0, 0, Header, 1, 1, 192
1, 0, Start_track
1, 0, Title_t, "Melody"
1, 0, Tempo, 273972
1, 0, Key_signature, -2, "major"
1, 0, Time_signature, 4, 2, 24, 8
1, 0, Note_on_c, 0, 65, 100
1, 192, Note_off_c, 0, 65, 100
1, 192, Note_on_c, 0, 63, 100
1, 336, Note_off_c, 0, 63, 100
1, 336, Note_on_c, 0, 58, 100
1, 384, Note_off_c, 0, 58, 100
1, 384, Note_on_c, 0, 61, 100
1, 576, Note_off_c, 0, 61, 100
1, 576, Note_on_c, 0, 63, 100
1, 768, Note_off_c, 0, 63, 100
1, 768, Note_on_c, 0, 58, 100
1, 960, Note_off_c, 0, 58, 100
1, 960, Note_on_c, 0, 58, 100
1, 1344, Note_off_c, 0, 58, 100
1, 2688, Note_on_c, 0, 50, 100
1, 2880, Note_off_c, 0, 50, 100
1, 2880, Note_on_c, 0, 57, 100
1, 2976, Note_off_c, 0, 57, 100
1, 2976, Note_on_c, 0, 60, 100
1, 3120, Note_off_c, 0, 60, 100
1, 3120, Note_on_c, 0, 58, 100
1, 3216, Note_off_c, 0, 58, 100
1, 3216, Note_on_c, 0, 55, 100
1, 3360, Note_off_c, 0, 55, 100
1, 3360, Note_on_c, 0, 58, 100
1, 3456, Note_off_c, 0, 58, 100
1, 3456, Note_on_c, 0, 61, 100
1, 3648, Note_off_c, 0, 61, 100
1, 3648, Note_on_c, 0, 60, 100
1, 3744, Note_off_c, 0, 60, 100
1, 3744, Note_on_c, 0, 58, 100
1, 3840, Note_off_c, 0, 58, 100
1, 3840, Note_on_c, 0, 60, 100
1, 4128, Note_off_c, 0, 60, 100
1, 4128, Note_on_c, 0, 58, 100
1, 4224, Note_off_c, 0, 58, 100
1, 4224, Note_on_c, 0, 56, 100
1, 4320, Note_off_c, 0, 56, 100
1, 4320, Note_on_c, 0, 60, 100
1, 4416, Note_off_c, 0, 60, 100
1, 4416, Note_on_c, 0, 59, 100
1, 4512, Note_off_c, 0, 59, 100
1, 4512, Note_on_c, 0, 57, 100
1, 4608, Note_off_c, 0, 57, 100
1, 4608, Note_on_c, 0, 58, 100
1, 4704, Note_off_c, 0, 58, 100
1, 4704, Note_on_c, 0, 54, 100
1, 4800, Note_off_c, 0, 54, 100
1, 4800, Note_on_c, 0, 55, 100
1, 4896, Note_off_c, 0, 55, 100
1, 4896, Note_on_c, 0, 58, 100
1, 4992, Note_off_c, 0, 58, 100
1, 4992, Note_on_c, 0, 61, 100
1, 5136, Note_off_c, 0, 61, 100
1, 5136, Note_on_c, 0, 56, 100
1, 5184, Note_off_c, 0, 56, 100
1, 5184, Note_on_c, 0, 61, 100
1, 5280, Note_off_c, 0, 61, 100
1, 5280, Note_on_c, 0, 62, 100
1, 5376, Note_off_c, 0, 62, 100
1, 5376, Note_on_c, 0, 58, 100
1, 5472, Note_off_c, 0, 58, 100
1, 5472, Note_on_c, 0, 60, 100
1, 5568, Note_off_c, 0, 60, 100
1, 5568, Note_on_c, 0, 55, 100
1, 5664, Note_off_c, 0, 55, 100
1, 5664, Note_on_c, 0, 58, 100
1, 5856, Note_off_c, 0, 58, 100
1, 5856, Note_on_c, 0, 58, 100
1, 5952, Note_off_c, 0, 58, 100
1, 7008, Note_on_c, 0, 65, 100
1, 7104, Note_off_c, 0, 65, 100
1, 7104, Note_on_c, 0, 62, 100
1, 7200, Note_off_c, 0, 62, 100
1, 7200, Note_on_c, 0, 60, 100
1, 7296, Note_off_c, 0, 60, 100
1, 7296, Note_on_c, 0, 59, 100
1, 7392, Note_off_c, 0, 59, 100
1, 7392, Note_on_c, 0, 55, 100
1, 7488, Note_off_c, 0, 55, 100
1, 7680, Note_on_c, 0, 60, 100
1, 7824, Note_off_c, 0, 60, 100
1, 7824, Note_on_c, 0, 58, 100
1, 7920, Note_off_c, 0, 58, 100
1, 7920, Note_on_c, 0, 60, 100
1, 7968, Note_off_c, 0, 60, 100
1, 7968, Note_on_c, 0, 58, 100
1, 8016, Note_off_c, 0, 58, 100
1, 8016, Note_on_c, 0, 55, 100
1, 8064, Note_off_c, 0, 55, 100
1, 8064, Note_on_c, 0, 57, 100
1, 8160, Note_off_c, 0, 57, 100
1, 8160, Note_on_c, 0, 53, 100
1, 8256, Note_off_c, 0, 53, 100
1, 8832, Note_on_c, 0, 50, 100
1, 9024, Note_off_c, 0, 50, 100
1, 9024, Note_on_c, 0, 56, 100
1, 9120, Note_off_c, 0, 56, 100
1, 9120, Note_on_c, 0, 58, 100
1, 9216, Note_off_c, 0, 58, 100
1, 9216, Note_on_c, 0, 54, 100
1, 9312, Note_off_c, 0, 54, 100
1, 9312, Note_on_c, 0, 55, 100
1, 9408, Note_off_c, 0, 55, 100
1, 9408, Note_on_c, 0, 60, 100
1, 9504, Note_off_c, 0, 60, 100
1, 9504, Note_on_c, 0, 58, 100
1, 9600, Note_off_c, 0, 58, 100
1, 9600, Note_on_c, 0, 57, 100
1, 9696, Note_off_c, 0, 57, 100
1, 9696, Note_on_c, 0, 60, 100
1, 9792, Note_off_c, 0, 60, 100
1, 9792, Note_on_c, 0, 63, 100
1, 9984, Note_off_c, 0, 63, 100
1, 9984, Note_on_c, 0, 68, 100
1, 10176, Note_off_c, 0, 68, 100
1, 10176, Note_on_c, 0, 67, 100
1, 10272, Note_off_c, 0, 67, 100
1, 10272, Note_on_c, 0, 66, 100
1, 10368, Note_off_c, 0, 66, 100
1, 10368, Note_on_c, 0, 65, 100
1, 10464, Note_off_c, 0, 65, 100
1, 10464, Note_on_c, 0, 62, 100
1, 10560, Note_off_c, 0, 62, 100
1, 10560, Note_on_c, 0, 58, 100
1, 10752, Note_off_c, 0, 58, 100
1, 10752, Note_on_c, 0, 63, 100
1, 10944, Note_off_c, 0, 63, 100
1, 10944, Note_on_c, 0, 58, 100
1, 11040, Note_off_c, 0, 58, 100
1, 11040, Note_on_c, 0, 55, 100
1, 11136, Note_off_c, 0, 55, 100
1, 11136, Note_on_c, 0, 61, 100
1, 11424, Note_off_c, 0, 61, 100
1, 11424, Note_on_c, 0, 58, 100
1, 11520, Note_off_c, 0, 58, 100
1, 11520, Note_on_c, 0, 60, 100
1, 11558, Note_off_c, 0, 60, 100
1, 11558, Note_on_c, 0, 62, 100
1, 11596, Note_off_c, 0, 62, 100
1, 11596, Note_on_c, 0, 60, 100
1, 11634, Note_off_c, 0, 60, 100
1, 11634, Note_on_c, 0, 58, 100
1, 11710, Note_off_c, 0, 58, 100
1, 11710, Note_on_c, 0, 57, 100
1, 11806, Note_off_c, 0, 57, 100
1, 11806, Note_on_c, 0, 58, 100
1, 12094, Note_off_c, 0, 58, 100
1, 13006, Note_on_c, 0, 62, 100
1, 13150, Note_off_c, 0, 62, 100
1, 13150, Note_on_c, 0, 66, 100
1, 13246, Note_off_c, 0, 66, 100
1, 13822, Note_on_c, 0, 60, 100
1, 14014, Note_off_c, 0, 60, 100
1, 14014, Note_on_c, 0, 64, 100
1, 14158, Note_off_c, 0, 64, 100
1, 14158, Note_on_c, 0, 60, 100
1, 14206, Note_off_c, 0, 60, 100
1, 14206, Note_on_c, 0, 62, 100
1, 14590, Note_off_c, 0, 62, 100
1, 14974, Note_on_c, 0, 59, 100
1, 15166, Note_off_c, 0, 59, 100
1, 15166, Note_on_c, 0, 67, 100
1, 15310, Note_off_c, 0, 67, 100
1, 15310, Note_on_c, 0, 62, 100
1, 15358, Note_off_c, 0, 62, 100
1, 15358, Note_on_c, 0, 65, 100
1, 15454, Note_off_c, 0, 65, 100
1, 15454, Note_on_c, 0, 67, 100
1, 15550, Note_off_c, 0, 67, 100
1, 16510, Note_on_c, 0, 64, 100
1, 16606, Note_off_c, 0, 64, 100
1, 16606, Note_on_c, 0, 65, 100
1, 16654, Note_off_c, 0, 65, 100
1, 16654, Note_on_c, 0, 67, 100
1, 16798, Note_off_c, 0, 67, 100
1, 16798, Note_on_c, 0, 69, 100
1, 16894, Note_off_c, 0, 69, 100
1, 16894, Note_on_c, 0, 70, 100
1, 17022, Note_off_c, 0, 70, 100
1, 17022, Note_on_c, 0, 72, 100
1, 17086, Note_off_c, 0, 72, 100
1, 17086, Note_on_c, 0, 74, 100
1, 17182, Note_off_c, 0, 74, 100
1, 17182, Note_on_c, 0, 72, 100
1, 17278, Note_off_c, 0, 72, 100
1, 17278, Note_on_c, 0, 70, 100
1, 17374, Note_off_c, 0, 70, 100
1, 17374, Note_on_c, 0, 67, 100
1, 17470, Note_off_c, 0, 67, 100
1, 17998, Note_on_c, 0, 67, 100
1, 18142, Note_off_c, 0, 67, 100
1, 18142, Note_on_c, 0, 63, 100
1, 18238, Note_off_c, 0, 63, 100
1, 18238, Note_on_c, 0, 60, 100
1, 18334, Note_off_c, 0, 60, 100
1, 18334, Note_on_c, 0, 58, 100
1, 18430, Note_off_c, 0, 58, 100
1, 18430, Note_on_c, 0, 57, 100
1, 18622, Note_off_c, 0, 57, 100
1, 18622, Note_on_c, 0, 65, 100
1, 18718, Note_off_c, 0, 65, 100
1, 18718, Note_on_c, 0, 60, 100
1, 18814, Note_off_c, 0, 60, 100
1, 18814, Note_on_c, 0, 63, 100
1, 18942, Note_off_c, 0, 63, 100
1, 18942, Note_on_c, 0, 65, 100
1, 19038, Note_off_c, 0, 65, 100
1, 19678, Note_on_c, 0, 61, 100
1, 19870, Note_off_c, 0, 61, 100
1, 19870, Note_on_c, 0, 65, 100
1, 19966, Note_off_c, 0, 65, 100
1, 19966, Note_on_c, 0, 70, 100
1, 20094, Note_off_c, 0, 70, 100
1, 20094, Note_on_c, 0, 65, 100
1, 20302, Note_off_c, 0, 65, 100
1, 20302, Note_on_c, 0, 60, 100
1, 20350, Note_off_c, 0, 60, 100
1, 20350, Note_on_c, 0, 63, 100
1, 20542, Note_off_c, 0, 63, 100
1, 20542, Note_on_c, 0, 70, 100
1, 20734, Note_off_c, 0, 70, 100
1, 21502, Note_on_c, 0, 63, 100
1, 21646, Note_off_c, 0, 63, 100
1, 21646, Note_on_c, 0, 70, 100
1, 21886, Note_off_c, 0, 70, 100
1, 21886, Note_on_c, 0, 64, 100
1, 22078, Note_off_c, 0, 64, 100
1, 22078, Note_on_c, 0, 70, 100
1, 22990, Note_off_c, 0, 70, 100
1, 22990, Note_on_c, 0, 68, 100
1, 23134, Note_off_c, 0, 68, 100
1, 23134, Note_on_c, 0, 67, 100
1, 23230, Note_off_c, 0, 67, 100
1, 23230, Note_on_c, 0, 68, 100
1, 23326, Note_off_c, 0, 68, 100
1, 23326, Note_on_c, 0, 67, 100
1, 23422, Note_off_c, 0, 67, 100
1, 23422, Note_on_c, 0, 65, 100
1, 23518, Note_off_c, 0, 65, 100
1, 23518, Note_on_c, 0, 63, 100
1, 23614, Note_off_c, 0, 63, 100
1, 23614, Note_on_c, 0, 60, 100
1, 23710, Note_off_c, 0, 60, 100
1, 23710, Note_on_c, 0, 61, 100
1, 23806, Note_off_c, 0, 61, 100
1, 23806, Note_on_c, 0, 62, 100
1, 23902, Note_off_c, 0, 62, 100
1, 23902, Note_on_c, 0, 58, 100
1, 23950, Note_off_c, 0, 58, 100
1, 23950, Note_on_c, 0, 56, 100
1, 24094, Note_off_c, 0, 56, 100
1, 24094, Note_on_c, 0, 58, 100
1, 24478, Note_off_c, 0, 58, 100
1, 25438, Note_on_c, 0, 70, 100
1, 25534, Note_off_c, 0, 70, 100
1, 25534, Note_on_c, 0, 74, 100
1, 25678, Note_off_c, 0, 74, 100
1, 25678, Note_on_c, 0, 75, 100
1, 25726, Note_off_c, 0, 75, 100
1, 25726, Note_on_c, 0, 77, 100
1, 25870, Note_off_c, 0, 77, 100
1, 25870, Note_on_c, 0, 79, 100
1, 25966, Note_off_c, 0, 79, 100
1, 27166, Note_on_c, 0, 73, 100
1, 27214, Note_off_c, 0, 73, 100
1, 27214, Note_on_c, 0, 74, 100
1, 27358, Note_off_c, 0, 74, 100
1, 27358, Note_on_c, 0, 77, 100
1, 27454, Note_off_c, 0, 77, 100
1, 27454, Note_on_c, 0, 80, 100
1, 27550, Note_off_c, 0, 80, 100
1, 27550, Note_on_c, 0, 79, 100
1, 27646, Note_off_c, 0, 79, 100
1, 27646, Note_on_c, 0, 77, 100
1, 27742, Note_off_c, 0, 77, 100
1, 27742, Note_on_c, 0, 75, 100
1, 27838, Note_off_c, 0, 75, 100
1, 27838, Note_on_c, 0, 72, 100
1, 27934, Note_off_c, 0, 72, 100
1, 27934, Note_on_c, 0, 73, 100
1, 28030, Note_off_c, 0, 73, 100
1, 28030, Note_on_c, 0, 74, 100
1, 28126, Note_off_c, 0, 74, 100
1, 28126, Note_on_c, 0, 70, 100
1, 28222, Note_off_c, 0, 70, 100
1, 28222, Note_on_c, 0, 65, 100
1, 28318, Note_off_c, 0, 65, 100
1, 28318, Note_on_c, 0, 64, 100
1, 28414, Note_off_c, 0, 64, 100
1, 28414, Note_on_c, 0, 62, 100
1, 28462, Note_off_c, 0, 62, 100
1, 28462, Note_on_c, 0, 63, 100
1, 28510, Note_off_c, 0, 63, 100
1, 28510, Note_on_c, 0, 67, 100
1, 28654, Note_off_c, 0, 67, 100
1, 28654, Note_on_c, 0, 66, 100
1, 28750, Note_off_c, 0, 66, 100
1, 28750, Note_on_c, 0, 64, 100
1, 28798, Note_off_c, 0, 64, 100
1, 28798, Note_on_c, 0, 65, 100
1, 28894, Note_off_c, 0, 65, 100
1, 28894, Note_on_c, 0, 61, 100
1, 29086, Note_off_c, 0, 61, 100
1, 29086, Note_on_c, 0, 65, 100
1, 29182, Note_off_c, 0, 65, 100
1, 29182, Note_on_c, 0, 70, 100
1, 29438, Note_off_c, 0, 70, 100
1, 29438, Note_on_c, 0, 67, 100
1, 29502, Note_off_c, 0, 67, 100
1, 29502, Note_on_c, 0, 63, 100
1, 29566, Note_off_c, 0, 63, 100
1, 29566, Note_on_c, 0, 60, 100
1, 29614, Note_off_c, 0, 60, 100
1, 29614, Note_on_c, 0, 61, 100
1, 29710, Note_off_c, 0, 61, 100
1, 29710, Note_on_c, 0, 68, 100
1, 29806, Note_off_c, 0, 68, 100
1, 30478, Note_on_c, 0, 65, 100
1, 30590, Note_off_c, 0, 65, 100
1, 30590, Note_on_c, 0, 64, 100
1, 30814, Note_off_c, 0, 64, 100
1, 30814, Note_on_c, 0, 67, 100
1, 30910, Note_off_c, 0, 67, 100
1, 30910, Note_on_c, 0, 63, 100
1, 31054, Note_off_c, 0, 63, 100
1, 31054, Note_on_c, 0, 60, 100
1, 31102, Note_off_c, 0, 60, 100
1, 31102, Note_on_c, 0, 65, 100
1, 31198, Note_off_c, 0, 65, 100
1, 31198, Note_on_c, 0, 62, 100
1, 31294, Note_off_c, 0, 62, 100
1, 31294, Note_on_c, 0, 63, 100
1, 31390, Note_off_c, 0, 63, 100
1, 31390, Note_on_c, 0, 65, 100
1, 31486, Note_off_c, 0, 65, 100
1, 31486, Note_on_c, 0, 61, 100
1, 31582, Note_off_c, 0, 61, 100
1, 31582, Note_on_c, 0, 62, 100
1, 31678, Note_off_c, 0, 62, 100
1, 31678, Note_on_c, 0, 63, 100
1, 31806, Note_off_c, 0, 63, 100
1, 31806, Note_on_c, 0, 61, 100
1, 31870, Note_off_c, 0, 61, 100
1, 31870, Note_on_c, 0, 62, 100
1, 31966, Note_off_c, 0, 62, 100
1, 31966, Note_on_c, 0, 58, 100
1, 32062, Note_off_c, 0, 58, 100
1, 32062, Note_on_c, 0, 53, 100
1, 32158, Note_off_c, 0, 53, 100
1, 32158, Note_on_c, 0, 51, 100
1, 32542, Note_off_c, 0, 51, 100
1, 32542, Note_on_c, 0, 58, 100
1, 32638, Note_off_c, 0, 58, 100
1, 32638, Note_on_c, 0, 51, 100
1, 32734, Note_off_c, 0, 51, 100
1, 32734, Note_on_c, 0, 52, 100
1, 32926, Note_off_c, 0, 52, 100
1, 32926, Note_on_c, 0, 53, 100
1, 33310, Note_off_c, 0, 53, 100
1, 33838, Note_on_c, 0, 53, 100
1, 33934, Note_off_c, 0, 53, 100
1, 33934, Note_on_c, 0, 51, 100
1, 34078, Note_off_c, 0, 51, 100
1, 34078, Note_on_c, 0, 55, 100
1, 34126, Note_off_c, 0, 55, 100
1, 34126, Note_on_c, 0, 58, 100
1, 34270, Note_off_c, 0, 58, 100
1, 34270, Note_on_c, 0, 61, 100
1, 34366, Note_off_c, 0, 61, 100
1, 34366, Note_on_c, 0, 57, 100
1, 34462, Note_off_c, 0, 57, 100
1, 34462, Note_on_c, 0, 60, 100
1, 34558, Note_off_c, 0, 60, 100
1, 34558, Note_on_c, 0, 57, 100
1, 34654, Note_off_c, 0, 57, 100
1, 34654, Note_on_c, 0, 58, 100
1, 34750, Note_off_c, 0, 58, 100
1, 34750, Note_on_c, 0, 62, 100
1, 34846, Note_off_c, 0, 62, 100
1, 34846, Note_on_c, 0, 58, 100
1, 34942, Note_off_c, 0, 58, 100
1, 34942, Note_on_c, 0, 65, 100
1, 35038, Note_off_c, 0, 65, 100
1, 35038, Note_on_c, 0, 62, 100
1, 35134, Note_off_c, 0, 62, 100
1, 35134, Note_on_c, 0, 58, 100
1, 35230, Note_off_c, 0, 58, 100
1, 35230, Note_on_c, 0, 63, 100
1, 35710, Note_off_c, 0, 63, 100
1, 35710, Note_on_c, 0, 61, 100
1, 35806, Note_off_c, 0, 61, 100
1, 35806, Note_on_c, 0, 58, 100
1, 35902, Note_off_c, 0, 58, 100
1, 35902, Note_on_c, 0, 60, 100
1, 36094, Note_off_c, 0, 60, 100
1, 36094, Note_on_c, 0, 58, 100
1, 36190, Note_off_c, 0, 58, 100
1, 36190, Note_on_c, 0, 53, 100
1, 36286, Note_off_c, 0, 53, 100
1, 36286, Note_on_c, 0, 57, 100
1, 36382, Note_off_c, 0, 57, 100
1, 36382, Note_on_c, 0, 58, 100
1, 36670, Note_off_c, 0, 58, 100
1, 37534, Note_on_c, 0, 64, 100
1, 37726, Note_off_c, 0, 64, 100
1, 37726, Note_on_c, 0, 67, 100
1, 37822, Note_off_c, 0, 67, 100
1, 38350, Note_on_c, 0, 66, 100
1, 38542, Note_off_c, 0, 66, 100
1, 38542, Note_on_c, 0, 69, 100
1, 38734, Note_off_c, 0, 69, 100
1, 38734, Note_on_c, 0, 74, 100
1, 39550, Note_off_c, 0, 74, 100
1, 39550, Note_on_c, 0, 71, 100
1, 39646, Note_off_c, 0, 71, 100
1, 39646, Note_on_c, 0, 74, 100
1, 39742, Note_off_c, 0, 74, 100
1, 39742, Note_on_c, 0, 79, 100
1, 39838, Note_off_c, 0, 79, 100
1, 39838, Note_on_c, 0, 78, 100
1, 39934, Note_off_c, 0, 78, 100
1, 39934, Note_on_c, 0, 77, 100
1, 40126, Note_off_c, 0, 77, 100
1, 40126, Note_on_c, 0, 74, 100
1, 40190, Note_off_c, 0, 74, 100
1, 40190, Note_on_c, 0, 75, 100
1, 40254, Note_off_c, 0, 75, 100
1, 40254, Note_on_c, 0, 74, 100
1, 40318, Note_off_c, 0, 74, 100
1, 40318, Note_on_c, 0, 72, 100
1, 40446, Note_off_c, 0, 72, 100
1, 40446, Note_on_c, 0, 71, 100
1, 40542, Note_off_c, 0, 71, 100
1, 41230, Note_on_c, 0, 74, 100
1, 41374, Note_off_c, 0, 74, 100
1, 41374, Note_on_c, 0, 81, 100
1, 41758, Note_off_c, 0, 81, 100
1, 41998, Note_on_c, 0, 79, 100
1, 42142, Note_off_c, 0, 79, 100
1, 42142, Note_on_c, 0, 82, 100
1, 42526, Note_off_c, 0, 82, 100
1, 43006, Note_on_c, 0, 79, 100
1, 43054, Note_off_c, 0, 79, 100
1, 43054, Note_on_c, 0, 81, 100
1, 43102, Note_off_c, 0, 81, 100
1, 43102, Note_on_c, 0, 79, 100
1, 43150, Note_off_c, 0, 79, 100
1, 43150, Note_on_c, 0, 75, 100
1, 43294, Note_off_c, 0, 75, 100
1, 43294, Note_on_c, 0, 77, 100
1, 43390, Note_off_c, 0, 77, 100
1, 43390, Note_on_c, 0, 82, 100
1, 43518, Note_off_c, 0, 82, 100
1, 43518, Note_on_c, 0, 84, 100
1, 43614, Note_off_c, 0, 84, 100
1, 44446, Note_on_c, 0, 84, 100
1, 44606, Note_off_c, 0, 84, 100
1, 44606, Note_on_c, 0, 86, 100
1, 45566, Note_off_c, 0, 86, 100
1, 46078, Note_on_c, 0, 82, 100
1, 46174, Note_off_c, 0, 82, 100
1, 46174, Note_on_c, 0, 80, 100
1, 46270, Note_off_c, 0, 80, 100
1, 46270, Note_on_c, 0, 82, 100
1, 46366, Note_off_c, 0, 82, 100
1, 46366, Note_on_c, 0, 80, 100
1, 46462, Note_off_c, 0, 80, 100
1, 46462, Note_on_c, 0, 77, 100
1, 46558, Note_off_c, 0, 77, 100
1, 46558, Note_on_c, 0, 79, 100
1, 46606, Note_off_c, 0, 79, 100
1, 46606, Note_on_c, 0, 77, 100
1, 46654, Note_off_c, 0, 77, 100
1, 46654, Note_on_c, 0, 76, 100
1, 46750, Note_off_c, 0, 76, 100
1, 46750, Note_on_c, 0, 79, 100
1, 46846, Note_off_c, 0, 79, 100
1, 46846, Note_on_c, 0, 77, 100
1, 46910, Note_off_c, 0, 77, 100
1, 46910, Note_on_c, 0, 76, 100
1, 46974, Note_off_c, 0, 76, 100
1, 46974, Note_on_c, 0, 74, 100
1, 47038, Note_off_c, 0, 74, 100
1, 47038, Note_on_c, 0, 70, 100
1, 47134, Note_off_c, 0, 70, 100
1, 47134, Note_on_c, 0, 68, 100
1, 47374, Note_off_c, 0, 68, 100
1, 47374, Note_on_c, 0, 72, 100
1, 47566, Note_off_c, 0, 72, 100
1, 47566, Note_on_c, 0, 70, 100
1, 47710, Note_off_c, 0, 70, 100
1, 47710, Note_on_c, 0, 66, 100
1, 47806, Note_off_c, 0, 66, 100
1, 48382, Note_on_c, 0, 66, 100
1, 48526, Note_off_c, 0, 66, 100
1, 48526, Note_on_c, 0, 70, 100
1, 48622, Note_off_c, 0, 70, 100
1, 48622, Note_on_c, 0, 72, 100
1, 48718, Note_off_c, 0, 72, 100
1, 48718, Note_on_c, 0, 73, 100
1, 48862, Note_off_c, 0, 73, 100
1, 48862, Note_on_c, 0, 74, 100
1, 48910, Note_off_c, 0, 74, 100
1, 48910, Note_on_c, 0, 75, 100
1, 49054, Note_off_c, 0, 75, 100
1, 49054, Note_on_c, 0, 73, 100
1, 49150, Note_off_c, 0, 73, 100
1, 49150, Note_on_c, 0, 74, 100
1, 49294, Note_off_c, 0, 74, 100
1, 49294, Note_on_c, 0, 70, 100
1, 49342, Note_off_c, 0, 70, 100
1, 49342, Note_on_c, 0, 65, 100
1, 49438, Note_off_c, 0, 65, 100
1, 49438, Note_on_c, 0, 64, 100
1, 49630, Note_off_c, 0, 64, 100
1, 49630, Note_on_c, 0, 67, 100
1, 49726, Note_off_c, 0, 67, 100
1, 49726, Note_on_c, 0, 66, 100
1, 49918, Note_off_c, 0, 66, 100
1, 49918, Note_on_c, 0, 65, 100
1, 50014, Note_off_c, 0, 65, 100
1, 50254, Note_on_c, 0, 70, 100
1, 50398, Note_off_c, 0, 70, 100
1, 50398, Note_on_c, 0, 65, 100
1, 50494, Note_off_c, 0, 65, 100
1, 50974, Note_on_c, 0, 72, 100
1, 51166, Note_off_c, 0, 72, 100
1, 51166, Note_on_c, 0, 69, 100
1, 51262, Note_off_c, 0, 69, 100
1, 51902, Note_on_c, 0, 74, 100
1, 51966, Note_off_c, 0, 74, 100
1, 51966, Note_on_c, 0, 72, 100
1, 52030, Note_off_c, 0, 72, 100
1, 52030, Note_on_c, 0, 71, 100
1, 52126, Note_off_c, 0, 71, 100
1, 52510, Note_on_c, 0, 72, 100
1, 52654, Note_off_c, 0, 72, 100
1, 52654, Note_on_c, 0, 74, 100
1, 52702, Note_off_c, 0, 74, 100
1, 52702, Note_on_c, 0, 72, 100
1, 52750, Note_off_c, 0, 72, 100
1, 52750, Note_on_c, 0, 69, 100
1, 52862, Note_off_c, 0, 69, 100
1, 52862, Note_on_c, 0, 72, 100
1, 52926, Note_off_c, 0, 72, 100
1, 52926, Note_on_c, 0, 75, 100
1, 53086, Note_off_c, 0, 75, 100
1, 53086, Note_on_c, 0, 79, 100
1, 53182, Note_off_c, 0, 79, 100
1, 53182, Note_on_c, 0, 78, 100
1, 53278, Note_off_c, 0, 78, 100
1, 53278, Note_on_c, 0, 76, 100
1, 53326, Note_off_c, 0, 76, 100
1, 53326, Note_on_c, 0, 77, 100
1, 53422, Note_off_c, 0, 77, 100
1, 53422, Note_on_c, 0, 74, 100
1, 53518, Note_off_c, 0, 74, 100
1, 53518, Note_on_c, 0, 70, 100
1, 53614, Note_off_c, 0, 70, 100
1, 53614, Note_on_c, 0, 74, 100
1, 53710, Note_off_c, 0, 74, 100
1, 53710, Note_on_c, 0, 77, 100
1, 53854, Note_off_c, 0, 77, 100
1, 53854, Note_on_c, 0, 74, 100
1, 53902, Note_off_c, 0, 74, 100
1, 53902, Note_on_c, 0, 75, 100
1, 54046, Note_off_c, 0, 75, 100
1, 54046, Note_on_c, 0, 72, 100
1, 54142, Note_off_c, 0, 72, 100
1, 54142, Note_on_c, 0, 70, 100
1, 54334, Note_off_c, 0, 70, 100
1, 54334, Note_on_c, 0, 73, 100
1, 54430, Note_off_c, 0, 73, 100
1, 54430, Note_on_c, 0, 72, 100
1, 54526, Note_off_c, 0, 72, 100
1, 54526, Note_on_c, 0, 70, 100
1, 54654, Note_off_c, 0, 70, 100
1, 54654, Note_on_c, 0, 65, 100
1, 54718, Note_off_c, 0, 65, 100
1, 54718, Note_on_c, 0, 64, 100
1, 54814, Note_off_c, 0, 64, 100
1, 54814, Note_on_c, 0, 62, 100
1, 54910, Note_off_c, 0, 62, 100
1, 54910, Note_on_c, 0, 63, 100
1, 55006, Note_off_c, 0, 63, 100
1, 55006, Note_on_c, 0, 61, 100
1, 55102, Note_off_c, 0, 61, 100
1, 55102, Note_on_c, 0, 62, 100
1, 55198, Note_off_c, 0, 62, 100
1, 55198, Note_on_c, 0, 65, 100
1, 55294, Note_off_c, 0, 65, 100
1, 55294, Note_on_c, 0, 70, 100
1, 55582, Note_off_c, 0, 70, 100
1, 55582, Note_on_c, 0, 65, 100
1, 55678, Note_off_c, 0, 65, 100
1, 55678, Note_on_c, 0, 72, 100
1, 55806, Note_off_c, 0, 72, 100
1, 55806, Note_on_c, 0, 65, 100
1, 55902, Note_off_c, 0, 65, 100
1, 56926, Note_on_c, 0, 77, 100
1, 57118, Note_off_c, 0, 77, 100
1, 57118, Note_on_c, 0, 82, 100
1, 57278, Note_off_c, 0, 82, 100
1, 57278, Note_on_c, 0, 86, 100
1, 57982, Note_off_c, 0, 86, 100
1, 57982, Note_on_c, 0, 82, 100
1, 58078, Note_off_c, 0, 82, 100
1, 58078, Note_on_c, 0, 77, 100
1, 58174, Note_off_c, 0, 77, 100
1, 58654, Note_on_c, 0, 80, 100
1, 58798, Note_off_c, 0, 80, 100
1, 58798, Note_on_c, 0, 79, 100
1, 58846, Note_off_c, 0, 79, 100
1, 58846, Note_on_c, 0, 78, 100
1, 58894, Note_off_c, 0, 78, 100
1, 58894, Note_on_c, 0, 77, 100
1, 59518, Note_off_c, 0, 77, 100
1, 59518, Note_on_c, 0, 75, 100
1, 59614, Note_off_c, 0, 75, 100
1, 59614, Note_on_c, 0, 77, 100
1, 59710, Note_off_c, 0, 77, 100
1, 59710, Note_on_c, 0, 73, 100
1, 59806, Note_off_c, 0, 73, 100
1, 59806, Note_on_c, 0, 74, 100
1, 59902, Note_off_c, 0, 74, 100
1, 59902, Note_on_c, 0, 70, 100
1, 59998, Note_off_c, 0, 70, 100
1, 59998, Note_on_c, 0, 65, 100
1, 60094, Note_off_c, 0, 65, 100
1, 60094, Note_on_c, 0, 64, 100
1, 60222, Note_off_c, 0, 64, 100
1, 60222, Note_on_c, 0, 62, 100
1, 60286, Note_off_c, 0, 62, 100
1, 60286, Note_on_c, 0, 63, 100
1, 60382, Note_off_c, 0, 63, 100
1, 60382, Note_on_c, 0, 61, 100
1, 60478, Note_off_c, 0, 61, 100
1, 60478, Note_on_c, 0, 62, 100
1, 60574, Note_off_c, 0, 62, 100
1, 60574, Note_on_c, 0, 65, 100
1, 60622, Note_off_c, 0, 65, 100
1, 60622, Note_on_c, 0, 70, 100
1, 60766, Note_off_c, 0, 70, 100
1, 60766, Note_on_c, 0, 72, 100
1, 60814, Note_off_c, 0, 72, 100
1, 60814, Note_on_c, 0, 67, 100
1, 60958, Note_off_c, 0, 67, 100
1, 60958, Note_on_c, 0, 70, 100
1, 61342, Note_off_c, 0, 70, 100
1, 61918, Note_on_c, 0, 74, 100
1, 62158, Note_off_c, 0, 74, 100
1, 62158, Note_on_c, 0, 78, 100
1, 62302, Note_off_c, 0, 78, 100
1, 62302, Note_on_c, 0, 79, 100
1, 62350, Note_off_c, 0, 79, 100
1, 62350, Note_on_c, 0, 80, 100
1, 62398, Note_off_c, 0, 80, 100
1, 62398, Note_on_c, 0, 81, 100
1, 62494, Note_off_c, 0, 81, 100
1, 62494, Note_on_c, 0, 80, 100
1, 62542, Note_off_c, 0, 80, 100
1, 62542, Note_on_c, 0, 79, 100
1, 62590, Note_off_c, 0, 79, 100
1, 62590, Note_on_c, 0, 78, 100
1, 62686, Note_off_c, 0, 78, 100
1, 62686, Note_on_c, 0, 74, 100
1, 62782, Note_off_c, 0, 74, 100
1, 63454, Note_on_c, 0, 79, 100
1, 63614, Note_off_c, 0, 79, 100
1, 63614, Note_on_c, 0, 83, 100
1, 63742, Note_off_c, 0, 83, 100
1, 63742, Note_on_c, 0, 89, 100
1, 63838, Note_off_c, 0, 89, 100
1, 64030, Note_on_c, 0, 85, 100
1, 64270, Note_off_c, 0, 85, 100
1, 64270, Note_on_c, 0, 86, 100
1, 64462, Note_off_c, 0, 86, 100
1, 64462, Note_on_c, 0, 83, 100
1, 64702, Note_off_c, 0, 83, 100
1, 64702, Note_on_c, 0, 79, 100
1, 64894, Note_off_c, 0, 79, 100
1, 64894, Note_on_c, 0, 81, 100
1, 64958, Note_off_c, 0, 81, 100
1, 64958, Note_on_c, 0, 82, 100
1, 65022, Note_off_c, 0, 82, 100
1, 65022, Note_on_c, 0, 81, 100
1, 65086, Note_off_c, 0, 81, 100
1, 65086, Note_on_c, 0, 79, 100
1, 65182, Note_off_c, 0, 79, 100
1, 65182, Note_on_c, 0, 82, 100
1, 65470, Note_off_c, 0, 82, 100
1, 65950, Note_on_c, 0, 78, 100
1, 66046, Note_off_c, 0, 78, 100
1, 66046, Note_on_c, 0, 80, 100
1, 66142, Note_off_c, 0, 80, 100
1, 66142, Note_on_c, 0, 81, 100
1, 66238, Note_off_c, 0, 81, 100
1, 66238, Note_on_c, 0, 80, 100
1, 66302, Note_off_c, 0, 80, 100
1, 66302, Note_on_c, 0, 79, 100
1, 66366, Note_off_c, 0, 79, 100
1, 66366, Note_on_c, 0, 78, 100
1, 66494, Note_off_c, 0, 78, 100
1, 66494, Note_on_c, 0, 79, 100
1, 67150, Note_off_c, 0, 79, 100
1, 67150, Note_on_c, 0, 75, 100
1, 67198, Note_off_c, 0, 75, 100
1, 67198, Note_on_c, 0, 77, 100
1, 67294, Note_off_c, 0, 77, 100
1, 67294, Note_on_c, 0, 75, 100
1, 67390, Note_off_c, 0, 75, 100
1, 67390, Note_on_c, 0, 72, 100
1, 67582, Note_off_c, 0, 72, 100
1, 67582, Note_on_c, 0, 79, 100
1, 67678, Note_off_c, 0, 79, 100
1, 67678, Note_on_c, 0, 82, 100
1, 67774, Note_off_c, 0, 82, 100
1, 67774, Note_on_c, 0, 79, 100
1, 67870, Note_off_c, 0, 79, 100
1, 67870, Note_on_c, 0, 80, 100
1, 67966, Note_off_c, 0, 80, 100
1, 67966, Note_on_c, 0, 81, 100
1, 68062, Note_off_c, 0, 81, 100
1, 68062, Note_on_c, 0, 77, 100
1, 68158, Note_off_c, 0, 77, 100
1, 68158, Note_on_c, 0, 79, 100
1, 68254, Note_off_c, 0, 79, 100
1, 68254, Note_on_c, 0, 75, 100
1, 68350, Note_off_c, 0, 75, 100
1, 68350, Note_on_c, 0, 72, 100
1, 68542, Note_off_c, 0, 72, 100
1, 68542, Note_on_c, 0, 77, 100
1, 68638, Note_off_c, 0, 77, 100
1, 68638, Note_on_c, 0, 75, 100
1, 68734, Note_off_c, 0, 75, 100
1, 68734, Note_on_c, 0, 74, 100
1, 68830, Note_off_c, 0, 74, 100
1, 68830, Note_on_c, 0, 70, 100
1, 68926, Note_off_c, 0, 70, 100
1, 68926, Note_on_c, 0, 65, 100
1, 69022, Note_off_c, 0, 65, 100
1, 69022, Note_on_c, 0, 64, 100
1, 69118, Note_off_c, 0, 64, 100
1, 69118, Note_on_c, 0, 62, 100
1, 69182, Note_off_c, 0, 62, 100
1, 69182, Note_on_c, 0, 63, 100
1, 69246, Note_off_c, 0, 63, 100
1, 69246, Note_on_c, 0, 67, 100
1, 69310, Note_off_c, 0, 67, 100
1, 69310, Note_on_c, 0, 66, 100
1, 69406, Note_off_c, 0, 66, 100
1, 69406, Note_on_c, 0, 64, 100
1, 69502, Note_off_c, 0, 64, 100
1, 69502, Note_on_c, 0, 65, 100
1, 69598, Note_off_c, 0, 65, 100
1, 69598, Note_on_c, 0, 62, 100
1, 69694, Note_off_c, 0, 62, 100
1, 69694, Note_on_c, 0, 63, 100
1, 69822, Note_off_c, 0, 63, 100
1, 69822, Note_on_c, 0, 61, 100
1, 69886, Note_off_c, 0, 61, 100
1, 69886, Note_on_c, 0, 62, 100
1, 70222, Note_off_c, 0, 62, 100
1, 70222, Note_on_c, 0, 70, 100
1, 70318, Note_off_c, 0, 70, 100
1, 70990, Note_on_c, 0, 63, 100
1, 71134, Note_off_c, 0, 63, 100
1, 71134, Note_on_c, 0, 65, 100
1, 71182, Note_off_c, 0, 65, 100
1, 71182, Note_on_c, 0, 70, 100
1, 71422, Note_off_c, 0, 70, 100
1, 71422, Note_on_c, 0, 74, 100
1, 71998, Note_off_c, 0, 74, 100
1, 72190, Note_on_c, 0, 75, 100
1, 72478, Note_off_c, 0, 75, 100
1, 72478, Note_on_c, 0, 72, 100
1, 72574, Note_off_c, 0, 72, 100
1, 72574, Note_on_c, 0, 73, 100
1, 72702, Note_off_c, 0, 73, 100
1, 72702, Note_on_c, 0, 74, 100
1, 72862, Note_off_c, 0, 74, 100
1, 72862, Note_on_c, 0, 70, 100
1, 73054, Note_off_c, 0, 70, 100
1, 73054, Note_on_c, 0, 70, 100
1, 73438, Note_off_c, 0, 70, 100
1, 74254, Note_on_c, 0, 77, 100
1, 74398, Note_off_c, 0, 77, 100
1, 74398, Note_on_c, 0, 79, 100
1, 74446, Note_off_c, 0, 79, 100
1, 74446, Note_on_c, 0, 82, 100
1, 74590, Note_off_c, 0, 82, 100
1, 74590, Note_on_c, 0, 84, 100
1, 74686, Note_off_c, 0, 84, 100
1, 74686, Note_on_c, 0, 86, 100
1, 75070, Note_off_c, 0, 86, 100
1, 75598, Note_on_c, 0, 91, 100
1, 75886, Note_off_c, 0, 91, 100
1, 76366, Note_on_c, 0, 89, 100
1, 76462, Note_off_c, 0, 89, 100
1, 76750, Note_on_c, 0, 87, 100
1, 76990, Note_off_c, 0, 87, 100
1, 76990, Note_on_c, 0, 85, 100
1, 77902, Note_off_c, 0, 85, 100
1, 77902, Note_on_c, 0, 82, 100
1, 78046, Note_off_c, 0, 82, 100
1, 78046, Note_on_c, 0, 80, 100
1, 78238, Note_off_c, 0, 80, 100
1, 78238, Note_on_c, 0, 80, 100
1, 78526, Note_off_c, 0, 80, 100
1, 78526, Note_on_c, 0, 79, 100
1, 78622, Note_off_c, 0, 79, 100
1, 78622, Note_on_c, 0, 78, 100
1, 78718, Note_off_c, 0, 78, 100
1, 78718, Note_on_c, 0, 77, 100
1, 78814, Note_off_c, 0, 77, 100
1, 78814, Note_on_c, 0, 76, 100
1, 78910, Note_off_c, 0, 76, 100
1, 78910, Note_on_c, 0, 75, 100
1, 79006, Note_off_c, 0, 75, 100
1, 79006, Note_on_c, 0, 79, 100
1, 79102, Note_off_c, 0, 79, 100
1, 79102, Note_on_c, 0, 74, 100
1, 79198, Note_off_c, 0, 74, 100
1, 79198, Note_on_c, 0, 72, 100
1, 79294, Note_off_c, 0, 72, 100
1, 79294, Note_on_c, 0, 77, 100
1, 79390, Note_off_c, 0, 77, 100
1, 79390, Note_on_c, 0, 75, 100
1, 79486, Note_off_c, 0, 75, 100
1, 79486, Note_on_c, 0, 74, 100
1, 79582, Note_off_c, 0, 74, 100
1, 79582, Note_on_c, 0, 70, 100
1, 79678, Note_off_c, 0, 70, 100
1, 79678, Note_on_c, 0, 65, 100
1, 79774, Note_off_c, 0, 65, 100
1, 79774, Note_on_c, 0, 64, 100
1, 79822, Note_off_c, 0, 64, 100
1, 79822, Note_on_c, 0, 62, 100
1, 79870, Note_off_c, 0, 62, 100
1, 79870, Note_on_c, 0, 63, 100
1, 79966, Note_off_c, 0, 63, 100
1, 79966, Note_on_c, 0, 67, 100
1, 80062, Note_off_c, 0, 67, 100
1, 80062, Note_on_c, 0, 66, 100
1, 80254, Note_off_c, 0, 66, 100
1, 80254, Note_on_c, 0, 65, 100
1, 80446, Note_off_c, 0, 65, 100
1, 80446, Note_on_c, 0, 63, 100
1, 80638, Note_off_c, 0, 63, 100
1, 80638, Note_on_c, 0, 62, 100
1, 80734, Note_off_c, 0, 62, 100
1, 80734, Note_on_c, 0, 70, 100
1, 81022, Note_off_c, 0, 70, 100
1, 81550, Note_on_c, 0, 70, 100
1, 81662, Note_off_c, 0, 70, 100
1, 81662, Note_on_c, 0, 72, 100
1, 81726, Note_off_c, 0, 72, 100
1, 81726, Note_on_c, 0, 70, 100
1, 81790, Note_off_c, 0, 70, 100
1, 81790, Note_on_c, 0, 68, 100
1, 81886, Note_off_c, 0, 68, 100
1, 81886, Note_on_c, 0, 72, 100
1, 81982, Note_off_c, 0, 72, 100
1, 82462, Note_on_c, 0, 70, 100
1, 82558, Note_off_c, 0, 70, 100
1, 82558, Note_on_c, 0, 74, 100
1, 82654, Note_off_c, 0, 74, 100
1, 83182, Note_on_c, 0, 70, 100
1, 83278, Note_off_c, 0, 70, 100
1, 83278, Note_on_c, 0, 75, 100
1, 83422, Note_off_c, 0, 75, 100
1, 83422, Note_on_c, 0, 79, 100
1, 83518, Note_off_c, 0, 79, 100
1, 84046, Note_on_c, 0, 74, 100
1, 84238, Note_off_c, 0, 74, 100
1, 84238, Note_on_c, 0, 82, 100
1, 84382, Note_off_c, 0, 82, 100
1, 84382, Note_on_c, 0, 75, 100
1, 84574, Note_off_c, 0, 75, 100
1, 84574, Note_on_c, 0, 82, 100
1, 84734, Note_off_c, 0, 82, 100
1, 84734, Note_on_c, 0, 75, 100
1, 84798, Note_off_c, 0, 75, 100
1, 84798, Note_on_c, 0, 76, 100
1, 84958, Note_off_c, 0, 76, 100
1, 84958, Note_on_c, 0, 82, 100
1, 85582, Note_off_c, 0, 82, 100
1, 85582, Note_on_c, 0, 80, 100
1, 85694, Note_off_c, 0, 80, 100
1, 85694, Note_on_c, 0, 81, 100
1, 85758, Note_off_c, 0, 81, 100
1, 85758, Note_on_c, 0, 80, 100
1, 85822, Note_off_c, 0, 80, 100
1, 85822, Note_on_c, 0, 77, 100
1, 85918, Note_off_c, 0, 77, 100
1, 85918, Note_on_c, 0, 75, 100
1, 86014, Note_off_c, 0, 75, 100
1, 86014, Note_on_c, 0, 74, 100
1, 86158, Note_off_c, 0, 74, 100
1, 86158, Note_on_c, 0, 70, 100
1, 86302, Note_off_c, 0, 70, 100
1, 86302, Note_on_c, 0, 70, 100
1, 86590, Note_off_c, 0, 70, 100
1, 87070, Note_on_c, 0, 76, 100
1, 87166, Note_off_c, 0, 76, 100
1, 87166, Note_on_c, 0, 79, 100
1, 87262, Note_off_c, 0, 79, 100
1, 87262, Note_on_c, 0, 76, 100
1, 87358, Note_off_c, 0, 76, 100
1, 87646, Note_on_c, 0, 78, 100
1, 87742, Note_off_c, 0, 78, 100
1, 87742, Note_on_c, 0, 79, 100
1, 87806, Note_off_c, 0, 79, 100
1, 87806, Note_on_c, 0, 81, 100
1, 87870, Note_off_c, 0, 81, 100
1, 87870, Note_on_c, 0, 90, 100
1, 87982, Note_off_c, 0, 90, 100
1, 87982, Note_on_c, 0, 61, 100
1, 88030, Note_off_c, 0, 61, 100
1, 88030, Note_on_c, 0, 59, 100
1, 88078, Note_off_c, 0, 59, 100
1, 88078, Note_on_c, 0, 57, 100
1, 88174, Note_off_c, 0, 57, 100
1, 88654, Note_on_c, 0, 55, 100
1, 88798, Note_off_c, 0, 55, 100
1, 88798, Note_on_c, 0, 57, 100
1, 88942, Note_off_c, 0, 57, 100
1, 88942, Note_on_c, 0, 57, 100
1, 88990, Note_off_c, 0, 57, 100
1, 88990, Note_on_c, 0, 60, 100
1, 89038, Note_off_c, 0, 60, 100
1, 89038, Note_on_c, 0, 62, 100
1, 89182, Note_off_c, 0, 62, 100
1, 89182, Note_on_c, 0, 58, 100
1, 89278, Note_off_c, 0, 58, 100
1, 89278, Note_on_c, 0, 59, 100
1, 89374, Note_off_c, 0, 59, 100
1, 89374, Note_on_c, 0, 62, 100
1, 89470, Note_off_c, 0, 62, 100
1, 89470, Note_on_c, 0, 67, 100
1, 90238, Note_off_c, 0, 67, 100
1, 90238, Note_on_c, 0, 64, 100
1, 90334, Note_off_c, 0, 64, 100
1, 90334, Note_on_c, 0, 67, 100
1, 90382, Note_off_c, 0, 67, 100
1, 90382, Note_on_c, 0, 70, 100
1, 90526, Note_off_c, 0, 70, 100
1, 90526, Note_on_c, 0, 72, 100
1, 90622, Note_off_c, 0, 72, 100
1, 90622, Note_on_c, 0, 74, 100
1, 90718, Note_off_c, 0, 74, 100
1, 90718, Note_on_c, 0, 72, 100
1, 90814, Note_off_c, 0, 72, 100
1, 90814, Note_on_c, 0, 74, 100
1, 90910, Note_off_c, 0, 74, 100
1, 90910, Note_on_c, 0, 72, 100
1, 91006, Note_off_c, 0, 72, 100
1, 91006, Note_on_c, 0, 70, 100
1, 91102, Note_off_c, 0, 70, 100
1, 91102, Note_on_c, 0, 67, 100
1, 91198, Note_off_c, 0, 67, 100
1, 91774, Note_on_c, 0, 63, 100
1, 91918, Note_off_c, 0, 63, 100
1, 91918, Note_on_c, 0, 70, 100
1, 92158, Note_off_c, 0, 70, 100
1, 92158, Note_on_c, 0, 77, 100
1, 92254, Note_off_c, 0, 77, 100
1, 92254, Note_on_c, 0, 74, 100
1, 92350, Note_off_c, 0, 74, 100
1, 92350, Note_on_c, 0, 75, 100
1, 92446, Note_off_c, 0, 75, 100
1, 92446, Note_on_c, 0, 77, 100
1, 92542, Note_off_c, 0, 77, 100
1, 92542, Note_on_c, 0, 80, 100
1, 92638, Note_off_c, 0, 80, 100
1, 92638, Note_on_c, 0, 78, 100
1, 92734, Note_off_c, 0, 78, 100
1, 92734, Note_on_c, 0, 77, 100
1, 92830, Note_off_c, 0, 77, 100
1, 92830, Note_on_c, 0, 75, 100
1, 92878, Note_off_c, 0, 75, 100
1, 92878, Note_on_c, 0, 74, 100
1, 93022, Note_off_c, 0, 74, 100
1, 93022, Note_on_c, 0, 70, 100
1, 93118, Note_off_c, 0, 70, 100
1, 93454, Note_on_c, 0, 74, 100
1, 93598, Note_off_c, 0, 74, 100
1, 93598, Note_on_c, 0, 75, 100
1, 93758, Note_off_c, 0, 75, 100
1, 93758, Note_on_c, 0, 70, 100
1, 93854, Note_off_c, 0, 70, 100
1, 94414, Note_on_c, 0, 76, 100
1, 94606, Note_off_c, 0, 76, 100
1, 94606, Note_on_c, 0, 77, 100
1, 94750, Note_off_c, 0, 77, 100
1, 94750, Note_on_c, 0, 76, 100
1, 94798, Note_off_c, 0, 76, 100
1, 94798, Note_on_c, 0, 77, 100
1, 94942, Note_off_c, 0, 77, 100
1, 94942, Note_on_c, 0, 76, 100
1, 95102, Note_off_c, 0, 76, 100
1, 95102, Note_on_c, 0, 75, 100
1, 95294, Note_off_c, 0, 75, 100
1, 95294, Note_on_c, 0, 77, 100
1, 95390, Note_off_c, 0, 77, 100
1, 95566, Note_on_c, 0, 80, 100
1, 95678, Note_off_c, 0, 80, 100
1, 95678, Note_on_c, 0, 79, 100
1, 95742, Note_off_c, 0, 79, 100
1, 95742, Note_on_c, 0, 80, 100
1, 96334, Note_off_c, 0, 80, 100
1, 96334, Note_on_c, 0, 86, 100
1, 96478, Note_off_c, 0, 86, 100
1, 96478, Note_on_c, 0, 79, 100
1, 96526, Note_off_c, 0, 79, 100
1, 96526, Note_on_c, 0, 77, 100
1, 96574, Note_off_c, 0, 77, 100
1, 96574, Note_on_c, 0, 75, 100
1, 96670, Note_off_c, 0, 75, 100
1, 96670, Note_on_c, 0, 77, 100
1, 96958, Note_off_c, 0, 77, 100
1, 96958, Note_on_c, 0, 75, 100
1, 97054, Note_off_c, 0, 75, 100
1, 97054, Note_on_c, 0, 72, 100
1, 97102, Note_off_c, 0, 72, 100
1, 97102, Note_on_c, 0, 70, 100
1, 97246, Note_off_c, 0, 70, 100
1, 97246, Note_on_c, 0, 68, 100
1, 97342, Note_off_c, 0, 68, 100
1, 97678, Note_on_c, 0, 65, 100
1, 97774, Note_off_c, 0, 65, 100
1, 97774, Note_on_c, 0, 64, 100
1, 97870, Note_off_c, 0, 64, 100
1, 97870, Note_on_c, 0, 63, 100
1, 98014, Note_off_c, 0, 63, 100
1, 98014, Note_on_c, 0, 67, 100
1, 98206, Note_off_c, 0, 67, 100
1, 98206, Note_on_c, 0, 60, 100
1, 98302, Note_off_c, 0, 60, 100
1, 98302, Note_on_c, 0, 65, 100
1, 98398, Note_off_c, 0, 65, 100
1, 98398, Note_on_c, 0, 62, 100
1, 98494, Note_off_c, 0, 62, 100
1, 98494, Note_on_c, 0, 63, 100
1, 98590, Note_off_c, 0, 63, 100
1, 98590, Note_on_c, 0, 65, 100
1, 98638, Note_off_c, 0, 65, 100
1, 98638, Note_on_c, 0, 68, 100
1, 98782, Note_off_c, 0, 68, 100
1, 98782, Note_on_c, 0, 66, 100
1, 98878, Note_off_c, 0, 66, 100
1, 98878, Note_on_c, 0, 65, 100
1, 98974, Note_off_c, 0, 65, 100
1, 98974, Note_on_c, 0, 63, 100
1, 99070, Note_off_c, 0, 63, 100
1, 99070, Note_on_c, 0, 62, 100
1, 99166, Note_off_c, 0, 62, 100
1, 99166, Note_on_c, 0, 70, 100
1, 99297, Note_off_c, 0, 70, 100
1, 99297, End_track
0, 0, End_of_file
