0, 0, Header, 1, 1, 192
1, 0, Start_track
1, 0, Title_t, "Melody"
1, 0, Tempo, 845070
1, 0, Key_signature, -1, "minor"
1, 0, Time_signature, 4, 2, 24, 8
1, 96, Note_on_c, 0, 67, 100
1, 120, Note_off_c, 0, 67, 100
1, 120, Note_on_c, 0, 66, 100
1, 144, Note_off_c, 0, 66, 100
1, 144, Note_on_c, 0, 64, 100
1, 168, Note_off_c, 0, 64, 100
1, 168, Note_on_c, 0, 62, 100
1, 192, Note_off_c, 0, 62, 100
1, 192, Note_on_c, 0, 63, 100
1, 216, Note_off_c, 0, 63, 100
1, 216, Note_on_c, 0, 63, 100
1, 264, Note_off_c, 0, 63, 100
1, 264, Note_on_c, 0, 54, 100
1, 288, Note_off_c, 0, 54, 100
1, 288, Note_on_c, 0, 56, 100
1, 312, Note_off_c, 0, 56, 100
1, 312, Note_on_c, 0, 58, 100
1, 360, Note_off_c, 0, 58, 100
1, 360, Note_on_c, 0, 62, 100
1, 418, Note_off_c, 0, 62, 100
1, 418, Note_on_c, 0, 60, 100
1, 435, Note_off_c, 0, 60, 100
1, 435, Note_on_c, 0, 62, 100
1, 452, Note_off_c, 0, 62, 100
1, 452, Note_on_c, 0, 60, 100
1, 469, Note_off_c, 0, 60, 100
1, 469, Note_on_c, 0, 58, 100
1, 503, Note_off_c, 0, 58, 100
1, 503, Note_on_c, 0, 57, 100
1, 537, Note_off_c, 0, 57, 100
1, 537, Note_on_c, 0, 60, 100
1, 554, Note_off_c, 0, 60, 100
1, 554, Note_on_c, 0, 63, 100
1, 595, Note_off_c, 0, 63, 100
1, 595, Note_on_c, 0, 67, 100
1, 643, Note_off_c, 0, 67, 100
1, 643, Note_on_c, 0, 59, 100
1, 667, Note_off_c, 0, 59, 100
1, 667, Note_on_c, 0, 60, 100
1, 691, Note_off_c, 0, 60, 100
1, 691, Note_on_c, 0, 64, 100
1, 715, Note_off_c, 0, 64, 100
1, 715, Note_on_c, 0, 65, 100
1, 763, Note_off_c, 0, 65, 100
1, 763, Note_on_c, 0, 67, 100
1, 794, Note_off_c, 0, 67, 100
1, 794, Note_on_c, 0, 68, 100
1, 826, Note_off_c, 0, 68, 100
1, 826, Note_on_c, 0, 70, 100
1, 889, Note_off_c, 0, 70, 100
1, 889, Note_on_c, 0, 72, 100
1, 921, Note_off_c, 0, 72, 100
1, 921, Note_on_c, 0, 64, 100
1, 1000, Note_off_c, 0, 64, 100
1, 1000, Note_on_c, 0, 60, 100
1, 1096, Note_off_c, 0, 60, 100
1, 1096, Note_on_c, 0, 64, 100
1, 1288, Note_off_c, 0, 64, 100
1, 1648, Note_on_c, 0, 72, 100
1, 1672, Note_off_c, 0, 72, 100
1, 1672, Note_on_c, 0, 74, 100
1, 1696, Note_off_c, 0, 74, 100
1, 1696, Note_on_c, 0, 76, 100
1, 1720, Note_off_c, 0, 76, 100
1, 1720, Note_on_c, 0, 77, 100
1, 1768, Note_off_c, 0, 77, 100
1, 1768, Note_on_c, 0, 76, 100
1, 1816, Note_off_c, 0, 76, 100
1, 1816, Note_on_c, 0, 72, 100
1, 1912, Note_off_c, 0, 72, 100
1, 1912, Note_on_c, 0, 73, 100
1, 1950, Note_off_c, 0, 73, 100
1, 1950, Note_on_c, 0, 74, 100
1, 1988, Note_off_c, 0, 74, 100
1, 1988, Note_on_c, 0, 72, 100
1, 2026, Note_off_c, 0, 72, 100
1, 2026, Note_on_c, 0, 69, 100
1, 2064, Note_off_c, 0, 69, 100
1, 2064, Note_on_c, 0, 70, 100
1, 2102, Note_off_c, 0, 70, 100
1, 2102, Note_on_c, 0, 72, 100
1, 2140, Note_off_c, 0, 72, 100
1, 2140, Note_on_c, 0, 67, 100
1, 2178, Note_off_c, 0, 67, 100
1, 2178, Note_on_c, 0, 69, 100
1, 2216, Note_off_c, 0, 69, 100
1, 2216, Note_on_c, 0, 65, 100
1, 2254, Note_off_c, 0, 65, 100
1, 2254, Note_on_c, 0, 62, 100
1, 2292, Note_off_c, 0, 62, 100
1, 2292, Note_on_c, 0, 58, 100
1, 2319, Note_off_c, 0, 58, 100
1, 2319, Note_on_c, 0, 67, 100
1, 2346, Note_off_c, 0, 67, 100
1, 2346, Note_on_c, 0, 68, 100
1, 2373, Note_off_c, 0, 68, 100
1, 2373, Note_on_c, 0, 67, 100
1, 2400, Note_off_c, 0, 67, 100
1, 2400, Note_on_c, 0, 65, 100
1, 2427, Note_off_c, 0, 65, 100
1, 2427, Note_on_c, 0, 63, 100
1, 2454, Note_off_c, 0, 63, 100
1, 2454, Note_on_c, 0, 64, 100
1, 2481, Note_off_c, 0, 64, 100
1, 2481, Note_on_c, 0, 61, 100
1, 2519, Note_off_c, 0, 61, 100
1, 2519, Note_on_c, 0, 60, 100
1, 2557, Note_off_c, 0, 60, 100
1, 2557, Note_on_c, 0, 63, 100
1, 2595, Note_off_c, 0, 63, 100
1, 2595, Note_on_c, 0, 59, 100
1, 2671, Note_off_c, 0, 59, 100
1, 2671, Note_on_c, 0, 58, 100
1, 2695, Note_off_c, 0, 58, 100
1, 2695, Note_on_c, 0, 60, 100
1, 2719, Note_off_c, 0, 60, 100
1, 2719, Note_on_c, 0, 63, 100
1, 2743, Note_off_c, 0, 63, 100
1, 2743, Note_on_c, 0, 64, 100
1, 2767, Note_off_c, 0, 64, 100
1, 2767, Note_on_c, 0, 66, 100
1, 2791, Note_off_c, 0, 66, 100
1, 2791, Note_on_c, 0, 71, 100
1, 2839, Note_off_c, 0, 71, 100
1, 2839, Note_on_c, 0, 75, 100
1, 2863, Note_off_c, 0, 75, 100
1, 2863, Note_on_c, 0, 76, 100
1, 3055, Note_off_c, 0, 76, 100
1, 3247, Note_on_c, 0, 74, 100
1, 3279, Note_off_c, 0, 74, 100
1, 3279, Note_on_c, 0, 75, 100
1, 3311, Note_off_c, 0, 75, 100
1, 3311, Note_on_c, 0, 74, 100
1, 3343, Note_off_c, 0, 74, 100
1, 3343, Note_on_c, 0, 70, 100
1, 3375, Note_off_c, 0, 70, 100
1, 3375, Note_on_c, 0, 65, 100
1, 3407, Note_off_c, 0, 65, 100
1, 3407, Note_on_c, 0, 62, 100
1, 3439, Note_off_c, 0, 62, 100
1, 3439, Note_on_c, 0, 60, 100
1, 3463, Note_off_c, 0, 60, 100
1, 3463, Note_on_c, 0, 61, 100
1, 3487, Note_off_c, 0, 61, 100
1, 3487, Note_on_c, 0, 62, 100
1, 3535, Note_off_c, 0, 62, 100
1, 3535, Note_on_c, 0, 53, 100
1, 3559, Note_off_c, 0, 53, 100
1, 3559, Note_on_c, 0, 55, 100
1, 3607, Note_off_c, 0, 55, 100
1, 3607, Note_on_c, 0, 56, 100
1, 3703, Note_off_c, 0, 56, 100
1, 3887, Note_on_c, 0, 61, 100
1, 3908, Note_off_c, 0, 61, 100
1, 3908, Note_on_c, 0, 63, 100
1, 3929, Note_off_c, 0, 63, 100
1, 3929, Note_on_c, 0, 65, 100
1, 3950, Note_off_c, 0, 65, 100
1, 3950, Note_on_c, 0, 66, 100
1, 3971, Note_off_c, 0, 66, 100
1, 3971, Note_on_c, 0, 67, 100
1, 3992, Note_off_c, 0, 67, 100
1, 3992, Note_on_c, 0, 70, 100
1, 4013, Note_off_c, 0, 70, 100
1, 4013, Note_on_c, 0, 72, 100
1, 4037, Note_off_c, 0, 72, 100
1, 4037, Note_on_c, 0, 68, 100
1, 4061, Note_off_c, 0, 68, 100
1, 4061, Note_on_c, 0, 67, 100
1, 4085, Note_off_c, 0, 67, 100
1, 4085, Note_on_c, 0, 65, 100
1, 4109, Note_off_c, 0, 65, 100
1, 4109, Note_on_c, 0, 70, 100
1, 4133, Note_off_c, 0, 70, 100
1, 4133, Note_on_c, 0, 71, 100
1, 4247, Note_off_c, 0, 71, 100
1, 4247, Note_on_c, 0, 71, 100
1, 4268, Note_off_c, 0, 71, 100
1, 4268, Note_on_c, 0, 72, 100
1, 4289, Note_off_c, 0, 72, 100
1, 4289, Note_on_c, 0, 73, 100
1, 4310, Note_off_c, 0, 73, 100
1, 4310, Note_on_c, 0, 74, 100
1, 4331, Note_off_c, 0, 74, 100
1, 4331, Note_on_c, 0, 72, 100
1, 4352, Note_off_c, 0, 72, 100
1, 4352, Note_on_c, 0, 71, 100
1, 4373, Note_off_c, 0, 71, 100
1, 4373, Note_on_c, 0, 69, 100
1, 4394, Note_off_c, 0, 69, 100
1, 4394, Note_on_c, 0, 67, 100
1, 4418, Note_off_c, 0, 67, 100
1, 4418, Note_on_c, 0, 65, 100
1, 4442, Note_off_c, 0, 65, 100
1, 4442, Note_on_c, 0, 64, 100
1, 4466, Note_off_c, 0, 64, 100
1, 4466, Note_on_c, 0, 59, 100
1, 4490, Note_off_c, 0, 59, 100
1, 4490, Note_on_c, 0, 62, 100
1, 4514, Note_off_c, 0, 62, 100
1, 4514, Note_on_c, 0, 59, 100
1, 4538, Note_off_c, 0, 59, 100
1, 4538, Note_on_c, 0, 60, 100
1, 4586, Note_off_c, 0, 60, 100
1, 4586, Note_on_c, 0, 59, 100
1, 4634, Note_off_c, 0, 59, 100
1, 4634, Note_on_c, 0, 56, 100
1, 4682, Note_off_c, 0, 56, 100
1, 4682, Note_on_c, 0, 57, 100
1, 4805, Note_off_c, 0, 57, 100
1, 4805, Note_on_c, 0, 60, 100
1, 4832, Note_off_c, 0, 60, 100
1, 4832, Note_on_c, 0, 64, 100
1, 4859, Note_off_c, 0, 64, 100
1, 4859, Note_on_c, 0, 67, 100
1, 4886, Note_off_c, 0, 67, 100
1, 4886, Note_on_c, 0, 64, 100
1, 4913, Note_off_c, 0, 64, 100
1, 4913, Note_on_c, 0, 59, 100
1, 4940, Note_off_c, 0, 59, 100
1, 4940, Note_on_c, 0, 57, 100
1, 4967, Note_off_c, 0, 57, 100
1, 4967, Note_on_c, 0, 62, 100
1, 5015, Note_off_c, 0, 62, 100
1, 5015, Note_on_c, 0, 64, 100
1, 5063, Note_off_c, 0, 64, 100
1, 5063, Note_on_c, 0, 62, 100
1, 5159, Note_off_c, 0, 62, 100
1, 5351, Note_on_c, 0, 76, 100
1, 5378, Note_off_c, 0, 76, 100
1, 5378, Note_on_c, 0, 77, 100
1, 5405, Note_off_c, 0, 77, 100
1, 5405, Note_on_c, 0, 76, 100
1, 5432, Note_off_c, 0, 76, 100
1, 5432, Note_on_c, 0, 74, 100
1, 5459, Note_off_c, 0, 74, 100
1, 5459, Note_on_c, 0, 72, 100
1, 5486, Note_off_c, 0, 72, 100
1, 5486, Note_on_c, 0, 70, 100
1, 5513, Note_off_c, 0, 70, 100
1, 5513, Note_on_c, 0, 67, 100
1, 5540, Note_off_c, 0, 67, 100
1, 5540, Note_on_c, 0, 68, 100
1, 5559, Note_off_c, 0, 68, 100
1, 5559, Note_on_c, 0, 69, 100
1, 5578, Note_off_c, 0, 69, 100
1, 5578, Note_on_c, 0, 70, 100
1, 5597, Note_off_c, 0, 70, 100
1, 5597, Note_on_c, 0, 69, 100
1, 5616, Note_off_c, 0, 69, 100
1, 5616, Note_on_c, 0, 67, 100
1, 5654, Note_off_c, 0, 67, 100
1, 5654, Note_on_c, 0, 66, 100
1, 5673, Note_off_c, 0, 66, 100
1, 5673, Note_on_c, 0, 64, 100
1, 5711, Note_off_c, 0, 64, 100
1, 5711, Note_on_c, 0, 60, 100
1, 5730, Note_off_c, 0, 60, 100
1, 5730, Note_on_c, 0, 63, 100
1, 5757, Note_off_c, 0, 63, 100
1, 5757, Note_on_c, 0, 60, 100
1, 5784, Note_off_c, 0, 60, 100
1, 5784, Note_on_c, 0, 61, 100
1, 5811, Note_off_c, 0, 61, 100
1, 5811, Note_on_c, 0, 54, 100
1, 5838, Note_off_c, 0, 54, 100
1, 5838, Note_on_c, 0, 58, 100
1, 5865, Note_off_c, 0, 58, 100
1, 5865, Note_on_c, 0, 61, 100
1, 5892, Note_off_c, 0, 61, 100
1, 5892, Note_on_c, 0, 58, 100
1, 5919, Note_off_c, 0, 58, 100
1, 5919, Note_on_c, 0, 60, 100
1, 5940, Note_off_c, 0, 60, 100
1, 5940, Note_on_c, 0, 58, 100
1, 5982, Note_off_c, 0, 58, 100
1, 5982, Note_on_c, 0, 60, 100
1, 6003, Note_off_c, 0, 60, 100
1, 6003, Note_on_c, 0, 63, 100
1, 6024, Note_off_c, 0, 63, 100
1, 6024, Note_on_c, 0, 70, 100
1, 6045, Note_off_c, 0, 70, 100
1, 6045, Note_on_c, 0, 69, 100
1, 6066, Note_off_c, 0, 69, 100
1, 6066, Note_on_c, 0, 66, 100
1, 6087, Note_off_c, 0, 66, 100
1, 6087, Note_on_c, 0, 67, 100
1, 6108, Note_off_c, 0, 67, 100
1, 6108, Note_on_c, 0, 68, 100
1, 6135, Note_off_c, 0, 68, 100
1, 6135, Note_on_c, 0, 70, 100
1, 6162, Note_off_c, 0, 70, 100
1, 6162, Note_on_c, 0, 72, 100
1, 6189, Note_off_c, 0, 72, 100
1, 6189, Note_on_c, 0, 74, 100
1, 6216, Note_off_c, 0, 74, 100
1, 6216, Note_on_c, 0, 72, 100
1, 6243, Note_off_c, 0, 72, 100
1, 6243, Note_on_c, 0, 70, 100
1, 6270, Note_off_c, 0, 70, 100
1, 6270, Note_on_c, 0, 69, 100
1, 6297, Note_off_c, 0, 69, 100
1, 6297, Note_on_c, 0, 77, 100
1, 6345, Note_off_c, 0, 77, 100
1, 6345, Note_on_c, 0, 79, 100
1, 6489, Note_off_c, 0, 79, 100
1, 6489, Note_on_c, 0, 79, 100
1, 6585, Note_off_c, 0, 79, 100
1, 6777, Note_on_c, 0, 78, 100
1, 6825, Note_off_c, 0, 78, 100
1, 6825, Note_on_c, 0, 79, 100
1, 6945, Note_off_c, 0, 79, 100
1, 6945, Note_on_c, 0, 78, 100
1, 6969, Note_off_c, 0, 78, 100
1, 6969, Note_on_c, 0, 76, 100
1, 6993, Note_off_c, 0, 76, 100
1, 6993, Note_on_c, 0, 75, 100
1, 7017, Note_off_c, 0, 75, 100
1, 7017, Note_on_c, 0, 73, 100
1, 7041, Note_off_c, 0, 73, 100
1, 7041, Note_on_c, 0, 72, 100
1, 7065, Note_off_c, 0, 72, 100
1, 7065, Note_on_c, 0, 71, 100
1, 7092, Note_off_c, 0, 71, 100
1, 7092, Note_on_c, 0, 72, 100
1, 7119, Note_off_c, 0, 72, 100
1, 7119, Note_on_c, 0, 68, 100
1, 7146, Note_off_c, 0, 68, 100
1, 7146, Note_on_c, 0, 66, 100
1, 7173, Note_off_c, 0, 66, 100
1, 7173, Note_on_c, 0, 64, 100
1, 7200, Note_off_c, 0, 64, 100
1, 7200, Note_on_c, 0, 60, 100
1, 7227, Note_off_c, 0, 60, 100
1, 7227, Note_on_c, 0, 63, 100
1, 7470, Note_off_c, 0, 63, 100
1, 7470, Note_on_c, 0, 75, 100
1, 7494, Note_off_c, 0, 75, 100
1, 7494, Note_on_c, 0, 76, 100
1, 7518, Note_off_c, 0, 76, 100
1, 7518, Note_on_c, 0, 75, 100
1, 7542, Note_off_c, 0, 75, 100
1, 7542, Note_on_c, 0, 73, 100
1, 7566, Note_off_c, 0, 73, 100
1, 7566, Note_on_c, 0, 72, 100
1, 7590, Note_off_c, 0, 72, 100
1, 7590, Note_on_c, 0, 71, 100
1, 7614, Note_off_c, 0, 71, 100
1, 7614, Note_on_c, 0, 70, 100
1, 7638, Note_off_c, 0, 70, 100
1, 7638, Note_on_c, 0, 67, 100
1, 7657, Note_off_c, 0, 67, 100
1, 7657, Note_on_c, 0, 68, 100
1, 7695, Note_off_c, 0, 68, 100
1, 7695, Note_on_c, 0, 69, 100
1, 7714, Note_off_c, 0, 69, 100
1, 7714, Note_on_c, 0, 65, 100
1, 7733, Note_off_c, 0, 65, 100
1, 7733, Note_on_c, 0, 61, 100
1, 7752, Note_off_c, 0, 61, 100
1, 7752, Note_on_c, 0, 57, 100
1, 7771, Note_off_c, 0, 57, 100
1, 7771, Note_on_c, 0, 58, 100
1, 7790, Note_off_c, 0, 58, 100
1, 7790, Note_on_c, 0, 59, 100
1, 7809, Note_off_c, 0, 59, 100
1, 7809, Note_on_c, 0, 63, 100
1, 7828, Note_off_c, 0, 63, 100
1, 7828, Note_on_c, 0, 66, 100
1, 7860, Note_off_c, 0, 66, 100
1, 7860, Note_on_c, 0, 71, 100
1, 7892, Note_off_c, 0, 71, 100
1, 7892, Note_on_c, 0, 75, 100
1, 7924, Note_off_c, 0, 75, 100
1, 7924, Note_on_c, 0, 78, 100
1, 7956, Note_off_c, 0, 78, 100
1, 7956, Note_on_c, 0, 81, 100
1, 8049, Note_off_c, 0, 81, 100
1, 8049, Note_on_c, 0, 77, 100
1, 8063, Note_off_c, 0, 77, 100
1, 8063, Note_on_c, 0, 76, 100
1, 8077, Note_off_c, 0, 76, 100
1, 8077, Note_on_c, 0, 73, 100
1, 8091, Note_off_c, 0, 73, 100
1, 8091, Note_on_c, 0, 69, 100
1, 8105, Note_off_c, 0, 69, 100
1, 8105, Note_on_c, 0, 65, 100
1, 8119, Note_off_c, 0, 65, 100
1, 8119, Note_on_c, 0, 61, 100
1, 8148, Note_off_c, 0, 61, 100
1, 8148, Note_on_c, 0, 70, 100
1, 8162, Note_off_c, 0, 70, 100
1, 8162, Note_on_c, 0, 71, 100
1, 8191, Note_off_c, 0, 71, 100
1, 8191, Note_on_c, 0, 67, 100
1, 8205, Note_off_c, 0, 67, 100
1, 8205, Note_on_c, 0, 63, 100
1, 8224, Note_off_c, 0, 63, 100
1, 8224, Note_on_c, 0, 59, 100
1, 8243, Note_off_c, 0, 59, 100
1, 8243, Note_on_c, 0, 68, 100
1, 8262, Note_off_c, 0, 68, 100
1, 8262, Note_on_c, 0, 69, 100
1, 8300, Note_off_c, 0, 69, 100
1, 8300, Note_on_c, 0, 65, 100
1, 8319, Note_off_c, 0, 65, 100
1, 8319, Note_on_c, 0, 61, 100
1, 8338, Note_off_c, 0, 61, 100
1, 8338, Note_on_c, 0, 57, 100
1, 8357, Note_off_c, 0, 57, 100
1, 8357, Note_on_c, 0, 55, 100
1, 8376, Note_off_c, 0, 55, 100
1, 8376, Note_on_c, 0, 67, 100
1, 8424, Note_off_c, 0, 67, 100
1, 8424, Note_on_c, 0, 63, 100
1, 8438, Note_off_c, 0, 63, 100
1, 8438, Note_on_c, 0, 59, 100
1, 8452, Note_off_c, 0, 59, 100
1, 8452, Note_on_c, 0, 57, 100
1, 8466, Note_off_c, 0, 57, 100
1, 8466, Note_on_c, 0, 65, 100
1, 8525, Note_off_c, 0, 65, 100
1, 8525, Note_on_c, 0, 61, 100
1, 8539, Note_off_c, 0, 61, 100
1, 8539, Note_on_c, 0, 57, 100
1, 8553, Note_off_c, 0, 57, 100
1, 8553, Note_on_c, 0, 55, 100
1, 8567, Note_off_c, 0, 55, 100
1, 8567, Note_on_c, 0, 53, 100
1, 8581, Note_off_c, 0, 53, 100
1, 8581, Note_on_c, 0, 58, 100
1, 8598, Note_off_c, 0, 58, 100
1, 8598, Note_on_c, 0, 59, 100
1, 8615, Note_off_c, 0, 59, 100
1, 8615, Note_on_c, 0, 63, 100
1, 8632, Note_off_c, 0, 63, 100
1, 8632, Note_on_c, 0, 65, 100
1, 8649, Note_off_c, 0, 65, 100
1, 8649, Note_on_c, 0, 68, 100
1, 8666, Note_off_c, 0, 68, 100
1, 8666, Note_on_c, 0, 67, 100
1, 8683, Note_off_c, 0, 67, 100
1, 8683, Note_on_c, 0, 73, 100
1, 8700, Note_off_c, 0, 73, 100
1, 8700, Note_on_c, 0, 75, 100
1, 8717, Note_off_c, 0, 75, 100
1, 8717, Note_on_c, 0, 71, 100
1, 8813, Note_off_c, 0, 71, 100
1, 9153, Note_on_c, 0, 72, 100
1, 9191, Note_off_c, 0, 72, 100
1, 9191, Note_on_c, 0, 74, 100
1, 9229, Note_off_c, 0, 74, 100
1, 9229, Note_on_c, 0, 75, 100
1, 9267, Note_off_c, 0, 75, 100
1, 9267, Note_on_c, 0, 74, 100
1, 9305, Note_off_c, 0, 74, 100
1, 9305, Note_on_c, 0, 75, 100
1, 9370, Note_off_c, 0, 75, 100
1, 9370, Note_on_c, 0, 72, 100
1, 9397, Note_off_c, 0, 72, 100
1, 9397, Note_on_c, 0, 76, 100
1, 9424, Note_off_c, 0, 76, 100
1, 9424, Note_on_c, 0, 75, 100
1, 9451, Note_off_c, 0, 75, 100
1, 9451, Note_on_c, 0, 70, 100
1, 9478, Note_off_c, 0, 70, 100
1, 9478, Note_on_c, 0, 65, 100
1, 9532, Note_off_c, 0, 65, 100
1, 9532, Note_on_c, 0, 65, 100
1, 9628, Note_off_c, 0, 65, 100
1, 9628, Note_on_c, 0, 62, 100
1, 9676, Note_off_c, 0, 62, 100
1, 9676, Note_on_c, 0, 61, 100
1, 9724, Note_off_c, 0, 61, 100
1, 9724, Note_on_c, 0, 62, 100
1, 9772, Note_off_c, 0, 62, 100
1, 9772, Note_on_c, 0, 65, 100
1, 9948, Note_off_c, 0, 65, 100
1, 9948, Note_on_c, 0, 74, 100
1, 9980, Note_off_c, 0, 74, 100
1, 9980, Note_on_c, 0, 75, 100
1, 10044, Note_off_c, 0, 75, 100
1, 10044, Note_on_c, 0, 74, 100
1, 10076, Note_off_c, 0, 74, 100
1, 10076, Note_on_c, 0, 75, 100
1, 10132, Note_off_c, 0, 75, 100
1, 10132, Note_on_c, 0, 72, 100
1, 10180, Note_off_c, 0, 72, 100
1, 10180, Note_on_c, 0, 75, 100
1, 10204, Note_off_c, 0, 75, 100
1, 10204, Note_on_c, 0, 73, 100
1, 10228, Note_off_c, 0, 73, 100
1, 10228, Note_on_c, 0, 65, 100
1, 10252, Note_off_c, 0, 65, 100
1, 10252, Note_on_c, 0, 68, 100
1, 10276, Note_off_c, 0, 68, 100
1, 10276, Note_on_c, 0, 70, 100
1, 10329, Note_off_c, 0, 70, 100
1, 10329, Note_on_c, 0, 70, 100
1, 10343, Note_off_c, 0, 70, 100
1, 10343, Note_on_c, 0, 72, 100
1, 10372, Note_off_c, 0, 72, 100
1, 10372, Note_on_c, 0, 77, 100
1, 10401, Note_off_c, 0, 77, 100
1, 10401, Note_on_c, 0, 69, 100
1, 10415, Note_off_c, 0, 69, 100
1, 10415, Note_on_c, 0, 70, 100
1, 10429, Note_off_c, 0, 70, 100
1, 10429, Note_on_c, 0, 72, 100
1, 10443, Note_off_c, 0, 72, 100
1, 10443, Note_on_c, 0, 75, 100
1, 10457, Note_off_c, 0, 75, 100
1, 10457, Note_on_c, 0, 71, 100
1, 10471, Note_off_c, 0, 71, 100
1, 10471, Note_on_c, 0, 68, 100
1, 10503, Note_off_c, 0, 68, 100
1, 10503, Note_on_c, 0, 65, 100
1, 10537, Note_off_c, 0, 65, 100
1, 10537, Note_on_c, 0, 63, 100
1, 10554, Note_off_c, 0, 63, 100
1, 10554, Note_on_c, 0, 61, 100
1, 10571, Note_off_c, 0, 61, 100
1, 10571, Note_on_c, 0, 63, 100
1, 10588, Note_off_c, 0, 63, 100
1, 10588, Note_on_c, 0, 65, 100
1, 10605, Note_off_c, 0, 65, 100
1, 10605, Note_on_c, 0, 65, 100
1, 10622, Note_off_c, 0, 65, 100
1, 10622, Note_on_c, 0, 67, 100
1, 10639, Note_off_c, 0, 67, 100
1, 10639, Note_on_c, 0, 68, 100
1, 10656, Note_off_c, 0, 68, 100
1, 10656, Note_on_c, 0, 68, 100
1, 10717, Note_off_c, 0, 68, 100
1, 10717, Note_on_c, 0, 69, 100
1, 10731, Note_off_c, 0, 69, 100
1, 10731, Note_on_c, 0, 70, 100
1, 10745, Note_off_c, 0, 70, 100
1, 10745, Note_on_c, 0, 70, 100
1, 10789, Note_off_c, 0, 70, 100
1, 10789, Note_on_c, 0, 71, 100
1, 10803, Note_off_c, 0, 71, 100
1, 10803, Note_on_c, 0, 72, 100
1, 10847, Note_off_c, 0, 72, 100
1, 10847, Note_on_c, 0, 63, 100
1, 10861, Note_off_c, 0, 63, 100
1, 10861, Note_on_c, 0, 65, 100
1, 10895, Note_off_c, 0, 65, 100
1, 10895, Note_on_c, 0, 68, 100
1, 10929, Note_off_c, 0, 68, 100
1, 10929, Note_on_c, 0, 69, 100
1, 10946, Note_off_c, 0, 69, 100
1, 10946, Note_on_c, 0, 70, 100
1, 10963, Note_off_c, 0, 70, 100
1, 10963, Note_on_c, 0, 70, 100
1, 10997, Note_off_c, 0, 70, 100
1, 10997, Note_on_c, 0, 71, 100
1, 11014, Note_off_c, 0, 71, 100
1, 11014, Note_on_c, 0, 72, 100
1, 11031, Note_off_c, 0, 72, 100
1, 11031, Note_on_c, 0, 72, 100
1, 11048, Note_off_c, 0, 72, 100
1, 11048, Note_on_c, 0, 75, 100
1, 11072, Note_off_c, 0, 75, 100
1, 11072, Note_on_c, 0, 72, 100
1, 11096, Note_off_c, 0, 72, 100
1, 11096, Note_on_c, 0, 70, 100
1, 11120, Note_off_c, 0, 70, 100
1, 11120, Note_on_c, 0, 68, 100
1, 11144, Note_off_c, 0, 68, 100
1, 11144, Note_on_c, 0, 65, 100
1, 11168, Note_off_c, 0, 65, 100
1, 11168, Note_on_c, 0, 62, 100
1, 11192, Note_off_c, 0, 62, 100
1, 11192, Note_on_c, 0, 69, 100
1, 11444, Note_off_c, 0, 69, 100
1, 11444, Note_on_c, 0, 68, 100
1, 11480, Note_off_c, 0, 68, 100
1, 11480, Note_on_c, 0, 70, 100
1, 11492, Note_off_c, 0, 70, 100
1, 11492, Note_on_c, 0, 71, 100
1, 11516, Note_off_c, 0, 71, 100
1, 11516, Note_on_c, 0, 72, 100
1, 11576, Note_off_c, 0, 72, 100
1, 11576, Note_on_c, 0, 76, 100
1, 11588, Note_off_c, 0, 76, 100
1, 11588, Note_on_c, 0, 75, 100
1, 11600, Note_off_c, 0, 75, 100
1, 11600, Note_on_c, 0, 72, 100
1, 11612, Note_off_c, 0, 72, 100
1, 11612, Note_on_c, 0, 70, 100
1, 11624, Note_off_c, 0, 70, 100
1, 11624, Note_on_c, 0, 69, 100
1, 11672, Note_off_c, 0, 69, 100
1, 11672, Note_on_c, 0, 65, 100
1, 11720, Note_off_c, 0, 65, 100
1, 11720, Note_on_c, 0, 62, 100
1, 11768, Note_off_c, 0, 62, 100
1, 11768, Note_on_c, 0, 63, 100
1, 11816, Note_off_c, 0, 63, 100
1, 11816, Note_on_c, 0, 60, 100
1, 11840, Note_off_c, 0, 60, 100
1, 11840, Note_on_c, 0, 67, 100
1, 11864, Note_off_c, 0, 67, 100
1, 11864, Note_on_c, 0, 68, 100
1, 11888, Note_off_c, 0, 68, 100
1, 11888, Note_on_c, 0, 67, 100
1, 11912, Note_off_c, 0, 67, 100
1, 11912, Note_on_c, 0, 65, 100
1, 11936, Note_off_c, 0, 65, 100
1, 11936, Note_on_c, 0, 64, 100
1, 12008, Note_off_c, 0, 64, 100
1, 12008, Note_on_c, 0, 62, 100
1, 12025, Note_off_c, 0, 62, 100
1, 12025, Note_on_c, 0, 63, 100
1, 12077, Note_off_c, 0, 63, 100
1, 12077, Note_on_c, 0, 70, 100
1, 12094, Note_off_c, 0, 70, 100
1, 12094, Note_on_c, 0, 71, 100
1, 12111, Note_off_c, 0, 71, 100
1, 12111, Note_on_c, 0, 70, 100
1, 12128, Note_off_c, 0, 70, 100
1, 12128, Note_on_c, 0, 69, 100
1, 12145, Note_off_c, 0, 69, 100
1, 12145, Note_on_c, 0, 68, 100
1, 12162, Note_off_c, 0, 68, 100
1, 12162, Note_on_c, 0, 66, 100
1, 12196, Note_off_c, 0, 66, 100
1, 12196, Note_on_c, 0, 70, 100
1, 12292, Note_off_c, 0, 70, 100
1, 12292, Note_on_c, 0, 72, 100
1, 12340, Note_off_c, 0, 72, 100
1, 12340, Note_on_c, 0, 72, 100
1, 12436, Note_off_c, 0, 72, 100
1, 12436, Note_on_c, 0, 70, 100
1, 12460, Note_off_c, 0, 70, 100
1, 12460, Note_on_c, 0, 72, 100
1, 12484, Note_off_c, 0, 72, 100
1, 12484, Note_on_c, 0, 75, 100
1, 12508, Note_off_c, 0, 75, 100
1, 12508, Note_on_c, 0, 72, 100
1, 12532, Note_off_c, 0, 72, 100
1, 12532, Note_on_c, 0, 70, 100
1, 12556, Note_off_c, 0, 70, 100
1, 12556, Note_on_c, 0, 68, 100
1, 12599, Note_off_c, 0, 68, 100
1, 12599, Note_on_c, 0, 65, 100
1, 12618, Note_off_c, 0, 65, 100
1, 12618, Note_on_c, 0, 70, 100
1, 12637, Note_off_c, 0, 70, 100
1, 12637, Note_on_c, 0, 72, 100
1, 12675, Note_off_c, 0, 72, 100
1, 12675, Note_on_c, 0, 72, 100
1, 12732, Note_off_c, 0, 72, 100
1, 12732, Note_on_c, 0, 72, 100
1, 12751, Note_off_c, 0, 72, 100
1, 12751, Note_on_c, 0, 71, 100
1, 12770, Note_off_c, 0, 71, 100
1, 12770, Note_on_c, 0, 72, 100
1, 12787, Note_off_c, 0, 72, 100
1, 12787, Note_on_c, 0, 75, 100
1, 12804, Note_off_c, 0, 75, 100
1, 12804, Note_on_c, 0, 72, 100
1, 12821, Note_off_c, 0, 72, 100
1, 12821, Note_on_c, 0, 70, 100
1, 12855, Note_off_c, 0, 70, 100
1, 12855, Note_on_c, 0, 68, 100
1, 12872, Note_off_c, 0, 68, 100
1, 12872, Note_on_c, 0, 65, 100
1, 12924, Note_off_c, 0, 65, 100
1, 12924, Note_on_c, 0, 68, 100
1, 12988, Note_off_c, 0, 68, 100
1, 12988, Note_on_c, 0, 72, 100
1, 13002, Note_off_c, 0, 72, 100
1, 13002, Note_on_c, 0, 70, 100
1, 13016, Note_off_c, 0, 70, 100
1, 13016, Note_on_c, 0, 72, 100
1, 13060, Note_off_c, 0, 72, 100
1, 13060, Note_on_c, 0, 72, 100
1, 13074, Note_off_c, 0, 72, 100
1, 13074, Note_on_c, 0, 71, 100
1, 13088, Note_off_c, 0, 71, 100
1, 13088, Note_on_c, 0, 72, 100
1, 13102, Note_off_c, 0, 72, 100
1, 13102, Note_on_c, 0, 72, 100
1, 13116, Note_off_c, 0, 72, 100
1, 13116, Note_on_c, 0, 70, 100
1, 13130, Note_off_c, 0, 70, 100
1, 13130, Note_on_c, 0, 72, 100
1, 13163, Note_off_c, 0, 72, 100
1, 13163, Note_on_c, 0, 76, 100
1, 13182, Note_off_c, 0, 76, 100
1, 13182, Note_on_c, 0, 72, 100
1, 13201, Note_off_c, 0, 72, 100
1, 13201, Note_on_c, 0, 71, 100
1, 13220, Note_off_c, 0, 71, 100
1, 13220, Note_on_c, 0, 68, 100
1, 13239, Note_off_c, 0, 68, 100
1, 13239, Note_on_c, 0, 65, 100
1, 13258, Note_off_c, 0, 65, 100
1, 13258, Note_on_c, 0, 68, 100
1, 13277, Note_off_c, 0, 68, 100
1, 13277, Note_on_c, 0, 69, 100
1, 13296, Note_off_c, 0, 69, 100
1, 13296, Note_on_c, 0, 70, 100
1, 13315, Note_off_c, 0, 70, 100
1, 13315, Note_on_c, 0, 72, 100
1, 13334, Note_off_c, 0, 72, 100
1, 13334, Note_on_c, 0, 76, 100
1, 13358, Note_off_c, 0, 76, 100
1, 13358, Note_on_c, 0, 72, 100
1, 13382, Note_off_c, 0, 72, 100
1, 13382, Note_on_c, 0, 71, 100
1, 13406, Note_off_c, 0, 71, 100
1, 13406, Note_on_c, 0, 68, 100
1, 13430, Note_off_c, 0, 68, 100
1, 13430, Note_on_c, 0, 65, 100
1, 13526, Note_off_c, 0, 65, 100
1, 13718, Note_on_c, 0, 72, 100
1, 13814, Note_off_c, 0, 72, 100
1, 13814, Note_on_c, 0, 79, 100
1, 13862, Note_off_c, 0, 79, 100
1, 13862, Note_on_c, 0, 77, 100
1, 13910, Note_off_c, 0, 77, 100
1, 13910, Note_on_c, 0, 76, 100
1, 14006, Note_off_c, 0, 76, 100
1, 14006, Note_on_c, 0, 74, 100
1, 14054, Note_off_c, 0, 74, 100
1, 14054, Note_on_c, 0, 76, 100
1, 14119, Note_off_c, 0, 76, 100
1, 14119, Note_on_c, 0, 74, 100
1, 14188, Note_off_c, 0, 74, 100
1, 14188, Note_on_c, 0, 76, 100
1, 14222, Note_off_c, 0, 76, 100
1, 14222, Note_on_c, 0, 74, 100
1, 14239, Note_off_c, 0, 74, 100
1, 14239, Note_on_c, 0, 76, 100
1, 14256, Note_off_c, 0, 76, 100
1, 14256, Note_on_c, 0, 74, 100
1, 14273, Note_off_c, 0, 74, 100
1, 14273, Note_on_c, 0, 72, 100
1, 14313, Note_off_c, 0, 72, 100
1, 14313, Note_on_c, 0, 70, 100
1, 14324, Note_off_c, 0, 70, 100
1, 14324, Note_on_c, 0, 70, 100
1, 14335, Note_off_c, 0, 70, 100
1, 14335, Note_on_c, 0, 69, 100
1, 14380, Note_off_c, 0, 69, 100
1, 14380, Note_on_c, 0, 65, 100
1, 14413, Note_off_c, 0, 65, 100
1, 14413, Note_on_c, 0, 61, 100
1, 14424, Note_off_c, 0, 61, 100
1, 14424, Note_on_c, 0, 62, 100
1, 14457, Note_off_c, 0, 62, 100
1, 14457, Note_on_c, 0, 65, 100
1, 14468, Note_off_c, 0, 65, 100
1, 14468, Note_on_c, 0, 62, 100
1, 14479, Note_off_c, 0, 62, 100
1, 14479, Note_on_c, 0, 60, 100
1, 14527, Note_off_c, 0, 60, 100
1, 14527, Note_on_c, 0, 67, 100
1, 14671, Note_off_c, 0, 67, 100
1, 14671, Note_on_c, 0, 84, 100
1, 14767, Note_off_c, 0, 84, 100
1, 14767, Note_on_c, 0, 79, 100
1, 14821, Note_off_c, 0, 79, 100
1, 14821, Note_on_c, 0, 80, 100
1, 14834, Note_off_c, 0, 80, 100
1, 14834, Note_on_c, 0, 81, 100
1, 14847, Note_off_c, 0, 81, 100
1, 14847, Note_on_c, 0, 80, 100
1, 14860, Note_off_c, 0, 80, 100
1, 14860, Note_on_c, 0, 81, 100
1, 14887, Note_off_c, 0, 81, 100
1, 14887, Note_on_c, 0, 82, 100
1, 14914, Note_off_c, 0, 82, 100
1, 14914, Note_on_c, 0, 78, 100
1, 14968, Note_off_c, 0, 78, 100
1, 14968, Note_on_c, 0, 73, 100
1, 14995, Note_off_c, 0, 73, 100
1, 14995, Note_on_c, 0, 70, 100
1, 15022, Note_off_c, 0, 70, 100
1, 15022, Note_on_c, 0, 65, 100
1, 15049, Note_off_c, 0, 65, 100
1, 15049, Note_on_c, 0, 61, 100
1, 15121, Note_off_c, 0, 61, 100
1, 15121, Note_on_c, 0, 64, 100
1, 15169, Note_off_c, 0, 64, 100
1, 15169, Note_on_c, 0, 54, 100
1, 15193, Note_off_c, 0, 54, 100
1, 15193, Note_on_c, 0, 58, 100
1, 15217, Note_off_c, 0, 58, 100
1, 15217, Note_on_c, 0, 61, 100
1, 15241, Note_off_c, 0, 61, 100
1, 15241, Note_on_c, 0, 62, 100
1, 15289, Note_off_c, 0, 62, 100
1, 15289, Note_on_c, 0, 61, 100
1, 15337, Note_off_c, 0, 61, 100
1, 15337, Note_on_c, 0, 62, 100
1, 15465, Note_off_c, 0, 62, 100
1, 15465, Note_on_c, 0, 70, 100
1, 15497, Note_off_c, 0, 70, 100
1, 15497, Note_on_c, 0, 72, 100
1, 15593, Note_off_c, 0, 72, 100
1, 15593, Note_on_c, 0, 77, 100
1, 15625, Note_off_c, 0, 77, 100
1, 15625, Note_on_c, 0, 76, 100
1, 15652, Note_off_c, 0, 76, 100
1, 15652, Note_on_c, 0, 72, 100
1, 15679, Note_off_c, 0, 72, 100
1, 15679, Note_on_c, 0, 70, 100
1, 15706, Note_off_c, 0, 70, 100
1, 15706, Note_on_c, 0, 69, 100
1, 15760, Note_off_c, 0, 69, 100
1, 15760, Note_on_c, 0, 67, 100
1, 15856, Note_off_c, 0, 67, 100
1, 16078, Note_on_c, 0, 61, 100
1, 16102, Note_off_c, 0, 61, 100
1, 16102, Note_on_c, 0, 64, 100
1, 16126, Note_off_c, 0, 64, 100
1, 16126, Note_on_c, 0, 68, 100
1, 16150, Note_off_c, 0, 68, 100
1, 16150, Note_on_c, 0, 69, 100
1, 16174, Note_off_c, 0, 69, 100
1, 16174, Note_on_c, 0, 70, 100
1, 16198, Note_off_c, 0, 70, 100
1, 16198, Note_on_c, 0, 71, 100
1, 16208, Note_off_c, 0, 71, 100
1, 16208, Note_on_c, 0, 73, 100
1, 16229, Note_off_c, 0, 73, 100
1, 16229, Note_on_c, 0, 74, 100
1, 16250, Note_off_c, 0, 74, 100
1, 16250, Note_on_c, 0, 76, 100
1, 16378, Note_off_c, 0, 76, 100
1, 16378, Note_on_c, 0, 76, 100
1, 16388, Note_off_c, 0, 76, 100
1, 16388, Note_on_c, 0, 74, 100
1, 16415, Note_off_c, 0, 74, 100
1, 16415, Note_on_c, 0, 76, 100
1, 16442, Note_off_c, 0, 76, 100
1, 16442, Note_on_c, 0, 75, 100
1, 16469, Note_off_c, 0, 75, 100
1, 16469, Note_on_c, 0, 73, 100
1, 16496, Note_off_c, 0, 73, 100
1, 16496, Note_on_c, 0, 72, 100
1, 16523, Note_off_c, 0, 72, 100
1, 16523, Note_on_c, 0, 73, 100
1, 16550, Note_off_c, 0, 73, 100
1, 16550, Note_on_c, 0, 72, 100
1, 16577, Note_off_c, 0, 72, 100
1, 16577, Note_on_c, 0, 70, 100
1, 16601, Note_off_c, 0, 70, 100
1, 16601, Note_on_c, 0, 71, 100
1, 16625, Note_off_c, 0, 71, 100
1, 16625, Note_on_c, 0, 70, 100
1, 16649, Note_off_c, 0, 70, 100
1, 16649, Note_on_c, 0, 69, 100
1, 16769, Note_off_c, 0, 69, 100
1, 16769, Note_on_c, 0, 60, 100
1, 16786, Note_off_c, 0, 60, 100
1, 16786, Note_on_c, 0, 64, 100
1, 16803, Note_off_c, 0, 64, 100
1, 16803, Note_on_c, 0, 67, 100
1, 16820, Note_off_c, 0, 67, 100
1, 16820, Note_on_c, 0, 71, 100
1, 16854, Note_off_c, 0, 71, 100
1, 16854, Note_on_c, 0, 69, 100
1, 16888, Note_off_c, 0, 69, 100
1, 16888, Note_on_c, 0, 73, 100
1, 16922, Note_off_c, 0, 73, 100
1, 16922, Note_on_c, 0, 69, 100
1, 16978, Note_off_c, 0, 69, 100
1, 16978, Note_on_c, 0, 71, 100
1, 17020, Note_off_c, 0, 71, 100
1, 17020, Note_on_c, 0, 67, 100
1, 17041, Note_off_c, 0, 67, 100
1, 17041, Note_on_c, 0, 63, 100
1, 17062, Note_off_c, 0, 63, 100
1, 17062, Note_on_c, 0, 64, 100
1, 17083, Note_off_c, 0, 64, 100
1, 17083, Note_on_c, 0, 61, 100
1, 17104, Note_off_c, 0, 61, 100
1, 17104, Note_on_c, 0, 63, 100
1, 17125, Note_off_c, 0, 63, 100
1, 17125, Note_on_c, 0, 67, 100
1, 17146, Note_off_c, 0, 67, 100
1, 17146, Note_on_c, 0, 71, 100
1, 17180, Note_off_c, 0, 71, 100
1, 17180, Note_on_c, 0, 69, 100
1, 17197, Note_off_c, 0, 69, 100
1, 17197, Note_on_c, 0, 65, 100
1, 17214, Note_off_c, 0, 65, 100
1, 17214, Note_on_c, 0, 61, 100
1, 17231, Note_off_c, 0, 61, 100
1, 17231, Note_on_c, 0, 55, 100
1, 17248, Note_off_c, 0, 55, 100
1, 17248, Note_on_c, 0, 53, 100
1, 17265, Note_off_c, 0, 53, 100
1, 17265, Note_on_c, 0, 67, 100
1, 17299, Note_off_c, 0, 67, 100
1, 17299, Note_on_c, 0, 58, 100
1, 17333, Note_off_c, 0, 58, 100
1, 17333, Note_on_c, 0, 61, 100
1, 17357, Note_off_c, 0, 61, 100
1, 17357, Note_on_c, 0, 67, 100
1, 17381, Note_off_c, 0, 67, 100
1, 17381, Note_on_c, 0, 68, 100
1, 17405, Note_off_c, 0, 68, 100
1, 17405, Note_on_c, 0, 72, 100
1, 17429, Note_off_c, 0, 72, 100
1, 17429, Note_on_c, 0, 71, 100
1, 17453, Note_off_c, 0, 71, 100
1, 17453, Note_on_c, 0, 65, 100
1, 17549, Note_off_c, 0, 65, 100
1, 17549, Note_on_c, 0, 65, 100
1, 17597, Note_off_c, 0, 65, 100
1, 17597, Note_on_c, 0, 67, 100
1, 17621, Note_off_c, 0, 67, 100
1, 17621, Note_on_c, 0, 68, 100
1, 17645, Note_off_c, 0, 68, 100
1, 17645, Note_on_c, 0, 69, 100
1, 17669, Note_off_c, 0, 69, 100
1, 17669, Note_on_c, 0, 69, 100
1, 17693, Note_off_c, 0, 69, 100
1, 17693, Note_on_c, 0, 67, 100
1, 17717, Note_off_c, 0, 67, 100
1, 17717, Note_on_c, 0, 66, 100
1, 17744, Note_off_c, 0, 66, 100
1, 17744, Note_on_c, 0, 64, 100
1, 17771, Note_off_c, 0, 64, 100
1, 17771, Note_on_c, 0, 61, 100
1, 17798, Note_off_c, 0, 61, 100
1, 17798, Note_on_c, 0, 63, 100
1, 17825, Note_off_c, 0, 63, 100
1, 17825, Note_on_c, 0, 59, 100
1, 17852, Note_off_c, 0, 59, 100
1, 17852, Note_on_c, 0, 61, 100
1, 17879, Note_off_c, 0, 61, 100
1, 17879, Note_on_c, 0, 57, 100
1, 17906, Note_off_c, 0, 57, 100
1, 17906, Note_on_c, 0, 69, 100
1, 17954, Note_off_c, 0, 69, 100
1, 17954, Note_on_c, 0, 71, 100
1, 18050, Note_off_c, 0, 71, 100
1, 18520, Note_on_c, 0, 73, 100
1, 18558, Note_off_c, 0, 73, 100
1, 18558, Note_on_c, 0, 75, 100
1, 18634, Note_off_c, 0, 75, 100
1, 18634, Note_on_c, 0, 75, 100
1, 18672, Note_off_c, 0, 75, 100
1, 18672, Note_on_c, 0, 76, 100
1, 18720, Note_off_c, 0, 76, 100
1, 18720, Note_on_c, 0, 75, 100
1, 18768, Note_off_c, 0, 75, 100
1, 18768, Note_on_c, 0, 76, 100
1, 18816, Note_off_c, 0, 76, 100
1, 18816, Note_on_c, 0, 72, 100
1, 18864, Note_off_c, 0, 72, 100
1, 18864, Note_on_c, 0, 74, 100
1, 18912, Note_off_c, 0, 74, 100
1, 18912, Note_on_c, 0, 75, 100
1, 19104, Note_off_c, 0, 75, 100
1, 19104, Note_on_c, 0, 73, 100
1, 19152, Note_off_c, 0, 73, 100
1, 19152, Note_on_c, 0, 75, 100
1, 19200, Note_off_c, 0, 75, 100
1, 19200, Note_on_c, 0, 76, 100
1, 19272, Note_off_c, 0, 76, 100
1, 19272, Note_on_c, 0, 75, 100
1, 19296, Note_off_c, 0, 75, 100
1, 19296, Note_on_c, 0, 76, 100
1, 19368, Note_off_c, 0, 76, 100
1, 19368, Note_on_c, 0, 75, 100
1, 19392, Note_off_c, 0, 75, 100
1, 19392, Note_on_c, 0, 76, 100
1, 19416, Note_off_c, 0, 76, 100
1, 19416, Note_on_c, 0, 73, 100
1, 19440, Note_off_c, 0, 73, 100
1, 19440, Note_on_c, 0, 75, 100
1, 19488, Note_off_c, 0, 75, 100
1, 19488, Note_on_c, 0, 76, 100
1, 19536, Note_off_c, 0, 76, 100
1, 19536, Note_on_c, 0, 72, 100
1, 19584, Note_off_c, 0, 72, 100
1, 19584, Note_on_c, 0, 74, 100
1, 19656, Note_off_c, 0, 74, 100
1, 19656, Note_on_c, 0, 75, 100
1, 19704, Note_off_c, 0, 75, 100
1, 19704, Note_on_c, 0, 74, 100
1, 19752, Note_off_c, 0, 74, 100
1, 19752, Note_on_c, 0, 75, 100
1, 19776, Note_off_c, 0, 75, 100
1, 19776, Note_on_c, 0, 74, 100
1, 19800, Note_off_c, 0, 74, 100
1, 19800, Note_on_c, 0, 75, 100
1, 19851, Note_off_c, 0, 75, 100
1, 19851, Note_on_c, 0, 74, 100
1, 19878, Note_off_c, 0, 74, 100
1, 19878, Note_on_c, 0, 75, 100
1, 19891, Note_off_c, 0, 75, 100
1, 19891, Note_on_c, 0, 77, 100
1, 19904, Note_off_c, 0, 77, 100
1, 19904, Note_on_c, 0, 76, 100
1, 19917, Note_off_c, 0, 76, 100
1, 19917, Note_on_c, 0, 72, 100
1, 19930, Note_off_c, 0, 72, 100
1, 19930, Note_on_c, 0, 70, 100
1, 19943, Note_off_c, 0, 70, 100
1, 19943, Note_on_c, 0, 68, 100
1, 19956, Note_off_c, 0, 68, 100
1, 19956, Note_on_c, 0, 65, 100
1, 19997, Note_off_c, 0, 65, 100
1, 19997, Note_on_c, 0, 60, 100
1, 20010, Note_off_c, 0, 60, 100
1, 20010, Note_on_c, 0, 65, 100
1, 20106, Note_off_c, 0, 65, 100
1, 20274, Note_on_c, 0, 61, 100
1, 20298, Note_off_c, 0, 61, 100
1, 20298, Note_on_c, 0, 63, 100
1, 20322, Note_off_c, 0, 63, 100
1, 20322, Note_on_c, 0, 65, 100
1, 20346, Note_off_c, 0, 65, 100
1, 20346, Note_on_c, 0, 68, 100
1, 20370, Note_off_c, 0, 68, 100
1, 20370, Note_on_c, 0, 69, 100
1, 20394, Note_off_c, 0, 69, 100
1, 20394, Note_on_c, 0, 70, 100
1, 20442, Note_off_c, 0, 70, 100
1, 20442, Note_on_c, 0, 71, 100
1, 20586, Note_off_c, 0, 71, 100
1, 20586, Note_on_c, 0, 59, 100
1, 20600, Note_off_c, 0, 59, 100
1, 20600, Note_on_c, 0, 63, 100
1, 20614, Note_off_c, 0, 63, 100
1, 20614, Note_on_c, 0, 67, 100
1, 20628, Note_off_c, 0, 67, 100
1, 20628, Note_on_c, 0, 71, 100
1, 20657, Note_off_c, 0, 71, 100
1, 20657, Note_on_c, 0, 69, 100
1, 20671, Note_off_c, 0, 69, 100
1, 20671, Note_on_c, 0, 67, 100
1, 20685, Note_off_c, 0, 67, 100
1, 20685, Note_on_c, 0, 66, 100
1, 20699, Note_off_c, 0, 66, 100
1, 20699, Note_on_c, 0, 65, 100
1, 20713, Note_off_c, 0, 65, 100
1, 20713, Note_on_c, 0, 64, 100
1, 20757, Note_off_c, 0, 64, 100
1, 20757, Note_on_c, 0, 63, 100
1, 20771, Note_off_c, 0, 63, 100
1, 20771, Note_on_c, 0, 55, 100
1, 20931, Note_off_c, 0, 55, 100
1, 20931, Note_on_c, 0, 63, 100
1, 20963, Note_off_c, 0, 63, 100
1, 20963, Note_on_c, 0, 59, 100
1, 20980, Note_off_c, 0, 59, 100
1, 20980, Note_on_c, 0, 54, 100
1, 20997, Note_off_c, 0, 54, 100
1, 20997, Note_on_c, 0, 55, 100
1, 21014, Note_off_c, 0, 55, 100
1, 21014, Note_on_c, 0, 57, 100
1, 21031, Note_off_c, 0, 57, 100
1, 21031, Note_on_c, 0, 58, 100
1, 21048, Note_off_c, 0, 58, 100
1, 21048, Note_on_c, 0, 60, 100
1, 21065, Note_off_c, 0, 60, 100
1, 21065, Note_on_c, 0, 63, 100
1, 21082, Note_off_c, 0, 63, 100
1, 21082, Note_on_c, 0, 60, 100
1, 21099, Note_off_c, 0, 60, 100
1, 21099, Note_on_c, 0, 62, 100
1, 21133, Note_off_c, 0, 62, 100
1, 21133, Note_on_c, 0, 60, 100
1, 21150, Note_off_c, 0, 60, 100
1, 21150, Note_on_c, 0, 59, 100
1, 21174, Note_off_c, 0, 59, 100
1, 21174, Note_on_c, 0, 61, 100
1, 21198, Note_off_c, 0, 61, 100
1, 21198, Note_on_c, 0, 63, 100
1, 21222, Note_off_c, 0, 63, 100
1, 21222, Note_on_c, 0, 69, 100
1, 21246, Note_off_c, 0, 69, 100
1, 21246, Note_on_c, 0, 69, 100
1, 21270, Note_off_c, 0, 69, 100
1, 21270, Note_on_c, 0, 66, 100
1, 21294, Note_off_c, 0, 66, 100
1, 21294, Note_on_c, 0, 67, 100
1, 21318, Note_off_c, 0, 67, 100
1, 21318, Note_on_c, 0, 68, 100
1, 21342, Note_off_c, 0, 68, 100
1, 21342, Note_on_c, 0, 69, 100
1, 21366, Note_off_c, 0, 69, 100
1, 21366, Note_on_c, 0, 72, 100
1, 21390, Note_off_c, 0, 72, 100
1, 21390, Note_on_c, 0, 74, 100
1, 21414, Note_off_c, 0, 74, 100
1, 21414, Note_on_c, 0, 72, 100
1, 21438, Note_off_c, 0, 72, 100
1, 21438, Note_on_c, 0, 70, 100
1, 21462, Note_off_c, 0, 70, 100
1, 21462, Note_on_c, 0, 68, 100
1, 21510, Note_off_c, 0, 68, 100
1, 21510, Note_on_c, 0, 68, 100
1, 21534, Note_off_c, 0, 68, 100
1, 21534, Note_on_c, 0, 84, 100
1, 21582, Note_off_c, 0, 84, 100
1, 21582, Note_on_c, 0, 84, 100
1, 21630, Note_off_c, 0, 84, 100
1, 21630, Note_on_c, 0, 68, 100
1, 21678, Note_off_c, 0, 68, 100
1, 21678, Note_on_c, 0, 80, 100
1, 21726, Note_off_c, 0, 80, 100
1, 21726, Note_on_c, 0, 81, 100
1, 21750, Note_off_c, 0, 81, 100
1, 21750, Note_on_c, 0, 82, 100
1, 21774, Note_off_c, 0, 82, 100
1, 21774, Note_on_c, 0, 84, 100
1, 21786, Note_off_c, 0, 84, 100
1, 21786, Note_on_c, 0, 78, 100
1, 21798, Note_off_c, 0, 78, 100
1, 21798, Note_on_c, 0, 77, 100
1, 21810, Note_off_c, 0, 77, 100
1, 21810, Note_on_c, 0, 74, 100
1, 21822, Note_off_c, 0, 74, 100
1, 21822, Note_on_c, 0, 71, 100
1, 21846, Note_off_c, 0, 71, 100
1, 21846, Note_on_c, 0, 66, 100
1, 21870, Note_off_c, 0, 66, 100
1, 21870, Note_on_c, 0, 62, 100
1, 21882, Note_off_c, 0, 62, 100
1, 21882, Note_on_c, 0, 59, 100
1, 21906, Note_off_c, 0, 59, 100
1, 21906, Note_on_c, 0, 54, 100
1, 21932, Note_off_c, 0, 54, 100
1, 21932, Note_on_c, 0, 58, 100
1, 21946, Note_off_c, 0, 58, 100
1, 21946, Note_on_c, 0, 62, 100
1, 21975, Note_off_c, 0, 62, 100
1, 21975, Note_on_c, 0, 60, 100
1, 21989, Note_off_c, 0, 60, 100
1, 21989, Note_on_c, 0, 62, 100
1, 22018, Note_off_c, 0, 62, 100
1, 22018, Note_on_c, 0, 60, 100
1, 22032, Note_off_c, 0, 60, 100
1, 22032, Note_on_c, 0, 58, 100
1, 22046, Note_off_c, 0, 58, 100
1, 22046, Note_on_c, 0, 60, 100
1, 22060, Note_off_c, 0, 60, 100
1, 22060, Note_on_c, 0, 61, 100
1, 22074, Note_off_c, 0, 61, 100
1, 22074, Note_on_c, 0, 65, 100
1, 22088, Note_off_c, 0, 65, 100
1, 22088, Note_on_c, 0, 68, 100
1, 22102, Note_off_c, 0, 68, 100
1, 22102, Note_on_c, 0, 74, 100
1, 22150, Note_off_c, 0, 74, 100
1, 22150, Note_on_c, 0, 65, 100
1, 22198, Note_off_c, 0, 65, 100
1, 22198, Note_on_c, 0, 68, 100
1, 22294, Note_off_c, 0, 68, 100
1, 22294, Note_on_c, 0, 61, 100
1, 22310, Note_off_c, 0, 61, 100
1, 22310, Note_on_c, 0, 63, 100
1, 22326, Note_off_c, 0, 63, 100
1, 22326, Note_on_c, 0, 64, 100
1, 22342, Note_off_c, 0, 64, 100
1, 22342, Note_on_c, 0, 67, 100
1, 22358, Note_off_c, 0, 67, 100
1, 22358, Note_on_c, 0, 66, 100
1, 22374, Note_off_c, 0, 66, 100
1, 22374, Note_on_c, 0, 68, 100
1, 22390, Note_off_c, 0, 68, 100
1, 22390, Note_on_c, 0, 70, 100
1, 22406, Note_off_c, 0, 70, 100
1, 22406, Note_on_c, 0, 72, 100
1, 22422, Note_off_c, 0, 72, 100
1, 22422, Note_on_c, 0, 74, 100
1, 22454, Note_off_c, 0, 74, 100
1, 22454, Note_on_c, 0, 70, 100
1, 22470, Note_off_c, 0, 70, 100
1, 22470, Note_on_c, 0, 71, 100
1, 22498, Note_off_c, 0, 71, 100
1, 22498, Note_on_c, 0, 72, 100
1, 22536, Note_off_c, 0, 72, 100
1, 22536, Note_on_c, 0, 74, 100
1, 22548, Note_off_c, 0, 74, 100
1, 22548, Note_on_c, 0, 75, 100
1, 22560, Note_off_c, 0, 75, 100
1, 22560, Note_on_c, 0, 74, 100
1, 22572, Note_off_c, 0, 74, 100
1, 22572, Note_on_c, 0, 72, 100
1, 22584, Note_off_c, 0, 72, 100
1, 22584, Note_on_c, 0, 70, 100
1, 22596, Note_off_c, 0, 70, 100
1, 22596, Note_on_c, 0, 68, 100
1, 22608, Note_off_c, 0, 68, 100
1, 22608, Note_on_c, 0, 65, 100
1, 22633, Note_off_c, 0, 65, 100
1, 22633, Note_on_c, 0, 61, 100
1, 22645, Note_off_c, 0, 61, 100
1, 22645, Note_on_c, 0, 58, 100
1, 22657, Note_off_c, 0, 58, 100
1, 22657, Note_on_c, 0, 56, 100
1, 22669, Note_off_c, 0, 56, 100
1, 22669, Note_on_c, 0, 53, 100
1, 22717, Note_off_c, 0, 53, 100
1, 22717, Note_on_c, 0, 52, 100
1, 22949, Note_off_c, 0, 52, 100
1, 22949, Note_on_c, 0, 61, 100
1, 22963, Note_off_c, 0, 61, 100
1, 22963, Note_on_c, 0, 63, 100
1, 22977, Note_off_c, 0, 63, 100
1, 22977, Note_on_c, 0, 67, 100
1, 22991, Note_off_c, 0, 67, 100
1, 22991, Note_on_c, 0, 70, 100
1, 23020, Note_off_c, 0, 70, 100
1, 23020, Note_on_c, 0, 69, 100
1, 23034, Note_off_c, 0, 69, 100
1, 23034, Note_on_c, 0, 65, 100
1, 23048, Note_off_c, 0, 65, 100
1, 23048, Note_on_c, 0, 62, 100
1, 23096, Note_off_c, 0, 62, 100
1, 23096, Note_on_c, 0, 60, 100
1, 23120, Note_off_c, 0, 60, 100
1, 23120, Note_on_c, 0, 67, 100
1, 23144, Note_off_c, 0, 67, 100
1, 23144, Note_on_c, 0, 65, 100
1, 23168, Note_off_c, 0, 65, 100
1, 23168, Note_on_c, 0, 64, 100
1, 23192, Note_off_c, 0, 64, 100
1, 23192, Note_on_c, 0, 62, 100
1, 23216, Note_off_c, 0, 62, 100
1, 23216, Note_on_c, 0, 60, 100
1, 23256, Note_off_c, 0, 60, 100
1, 23256, Note_on_c, 0, 58, 100
1, 23272, Note_off_c, 0, 58, 100
1, 23272, Note_on_c, 0, 57, 100
1, 23288, Note_off_c, 0, 57, 100
1, 23288, Note_on_c, 0, 60, 100
1, 23304, Note_off_c, 0, 60, 100
1, 23304, Note_on_c, 0, 64, 100
1, 23320, Note_off_c, 0, 64, 100
1, 23320, Note_on_c, 0, 67, 100
1, 23336, Note_off_c, 0, 67, 100
1, 23336, Note_on_c, 0, 64, 100
1, 23352, Note_off_c, 0, 64, 100
1, 23352, Note_on_c, 0, 65, 100
1, 23368, Note_off_c, 0, 65, 100
1, 23368, Note_on_c, 0, 67, 100
1, 23400, Note_off_c, 0, 67, 100
1, 23400, Note_on_c, 0, 65, 100
1, 23416, Note_off_c, 0, 65, 100
1, 23416, Note_on_c, 0, 72, 100
1, 23432, Note_off_c, 0, 72, 100
1, 23432, Note_on_c, 0, 71, 100
1, 23459, Note_off_c, 0, 71, 100
1, 23459, Note_on_c, 0, 72, 100
1, 23541, Note_off_c, 0, 72, 100
1, 23541, Note_on_c, 0, 74, 100
1, 23568, Note_off_c, 0, 74, 100
1, 23568, Note_on_c, 0, 75, 100
1, 23595, Note_off_c, 0, 75, 100
1, 23595, Note_on_c, 0, 72, 100
1, 23674, Note_off_c, 0, 72, 100
1, 23674, Note_on_c, 0, 74, 100
1, 23691, Note_off_c, 0, 74, 100
1, 23691, Note_on_c, 0, 75, 100
1, 23743, Note_off_c, 0, 75, 100
1, 23743, Note_on_c, 0, 72, 100
1, 23760, Note_off_c, 0, 72, 100
1, 23760, Note_on_c, 0, 72, 100
1, 23777, Note_off_c, 0, 72, 100
1, 23777, Note_on_c, 0, 75, 100
1, 23794, Note_off_c, 0, 75, 100
1, 23794, Note_on_c, 0, 74, 100
1, 23811, Note_off_c, 0, 74, 100
1, 23811, Note_on_c, 0, 75, 100
1, 23859, Note_off_c, 0, 75, 100
1, 23859, Note_on_c, 0, 72, 100
1, 23907, Note_off_c, 0, 72, 100
1, 23907, Note_on_c, 0, 76, 100
1, 23931, Note_off_c, 0, 76, 100
1, 23931, Note_on_c, 0, 73, 100
1, 23955, Note_off_c, 0, 73, 100
1, 23955, Note_on_c, 0, 71, 100
1, 24051, Note_off_c, 0, 71, 100
1, 24051, Note_on_c, 0, 72, 100
1, 24075, Note_off_c, 0, 72, 100
1, 24075, Note_on_c, 0, 76, 100
1, 24099, Note_off_c, 0, 76, 100
1, 24099, Note_on_c, 0, 73, 100
1, 24123, Note_off_c, 0, 73, 100
1, 24123, Note_on_c, 0, 72, 100
1, 24147, Note_off_c, 0, 72, 100
1, 24147, Note_on_c, 0, 71, 100
1, 24195, Note_off_c, 0, 71, 100
1, 24195, Note_on_c, 0, 72, 100
1, 24219, Note_off_c, 0, 72, 100
1, 24219, Note_on_c, 0, 75, 100
1, 24243, Note_off_c, 0, 75, 100
1, 24243, Note_on_c, 0, 75, 100
1, 24267, Note_off_c, 0, 75, 100
1, 24267, Note_on_c, 0, 72, 100
1, 24291, Note_off_c, 0, 72, 100
1, 24291, Note_on_c, 0, 70, 100
1, 24315, Note_off_c, 0, 70, 100
1, 24315, Note_on_c, 0, 71, 100
1, 24339, Note_off_c, 0, 71, 100
1, 24339, Note_on_c, 0, 68, 100
1, 24507, Note_off_c, 0, 68, 100
1, 24507, Note_on_c, 0, 72, 100
1, 24531, Note_off_c, 0, 72, 100
1, 24531, Note_on_c, 0, 75, 100
1, 24555, Note_off_c, 0, 75, 100
1, 24555, Note_on_c, 0, 74, 100
1, 24579, Note_off_c, 0, 74, 100
1, 24579, Note_on_c, 0, 70, 100
1, 24627, Note_off_c, 0, 70, 100
1, 24627, Note_on_c, 0, 69, 100
1, 24675, Note_off_c, 0, 69, 100
1, 24675, Note_on_c, 0, 65, 100
1, 24723, Note_off_c, 0, 65, 100
1, 24723, Note_on_c, 0, 62, 100
1, 24771, Note_off_c, 0, 62, 100
1, 24771, Note_on_c, 0, 67, 100
1, 24819, Note_off_c, 0, 67, 100
1, 24819, Note_on_c, 0, 62, 100
1, 24867, Note_off_c, 0, 62, 100
1, 24867, Note_on_c, 0, 67, 100
1, 24915, Note_off_c, 0, 67, 100
1, 24915, Note_on_c, 0, 69, 100
1, 25011, Note_off_c, 0, 69, 100
1, 25209, Note_on_c, 0, 61, 100
1, 25236, Note_off_c, 0, 61, 100
1, 25236, Note_on_c, 0, 63, 100
1, 25263, Note_off_c, 0, 63, 100
1, 25263, Note_on_c, 0, 68, 100
1, 25290, Note_off_c, 0, 68, 100
1, 25290, Note_on_c, 0, 70, 100
1, 25317, Note_off_c, 0, 70, 100
1, 25317, Note_on_c, 0, 71, 100
1, 25344, Note_off_c, 0, 71, 100
1, 25344, Note_on_c, 0, 74, 100
1, 25376, Note_off_c, 0, 74, 100
1, 25376, Note_on_c, 0, 76, 100
1, 25408, Note_off_c, 0, 76, 100
1, 25408, Note_on_c, 0, 78, 100
1, 25472, Note_off_c, 0, 78, 100
1, 25472, Note_on_c, 0, 77, 100
1, 25504, Note_off_c, 0, 77, 100
1, 25504, Note_on_c, 0, 78, 100
1, 25536, Note_off_c, 0, 78, 100
1, 25536, Note_on_c, 0, 77, 100
1, 25560, Note_off_c, 0, 77, 100
1, 25560, Note_on_c, 0, 78, 100
1, 25632, Note_off_c, 0, 78, 100
1, 25632, Note_on_c, 0, 74, 100
1, 25656, Note_off_c, 0, 74, 100
1, 25656, Note_on_c, 0, 76, 100
1, 25680, Note_off_c, 0, 76, 100
1, 25680, Note_on_c, 0, 75, 100
1, 25704, Note_off_c, 0, 75, 100
1, 25704, Note_on_c, 0, 73, 100
1, 25728, Note_off_c, 0, 73, 100
1, 25728, Note_on_c, 0, 72, 100
1, 25745, Note_off_c, 0, 72, 100
1, 25745, Note_on_c, 0, 74, 100
1, 25762, Note_off_c, 0, 74, 100
1, 25762, Note_on_c, 0, 72, 100
1, 25796, Note_off_c, 0, 72, 100
1, 25796, Note_on_c, 0, 71, 100
1, 25813, Note_off_c, 0, 71, 100
1, 25813, Note_on_c, 0, 70, 100
1, 25847, Note_off_c, 0, 70, 100
1, 25847, Note_on_c, 0, 67, 100
1, 25864, Note_off_c, 0, 67, 100
1, 25864, Note_on_c, 0, 68, 100
1, 25898, Note_off_c, 0, 68, 100
1, 25898, Note_on_c, 0, 69, 100
1, 25958, Note_off_c, 0, 69, 100
1, 25958, Note_on_c, 0, 69, 100
1, 25979, Note_off_c, 0, 69, 100
1, 25979, Note_on_c, 0, 73, 100
1, 26000, Note_off_c, 0, 73, 100
1, 26000, Note_on_c, 0, 69, 100
1, 26063, Note_off_c, 0, 69, 100
1, 26063, Note_on_c, 0, 69, 100
1, 26084, Note_off_c, 0, 69, 100
1, 26084, Note_on_c, 0, 73, 100
1, 26105, Note_off_c, 0, 73, 100
1, 26105, Note_on_c, 0, 69, 100
1, 26169, Note_off_c, 0, 69, 100
1, 26169, Note_on_c, 0, 69, 100
1, 26190, Note_off_c, 0, 69, 100
1, 26190, Note_on_c, 0, 73, 100
1, 26211, Note_off_c, 0, 73, 100
1, 26211, Note_on_c, 0, 69, 100
1, 26232, Note_off_c, 0, 69, 100
1, 26232, Note_on_c, 0, 67, 100
1, 26253, Note_off_c, 0, 67, 100
1, 26253, Note_on_c, 0, 65, 100
1, 26274, Note_off_c, 0, 65, 100
1, 26274, Note_on_c, 0, 67, 100
1, 26312, Note_off_c, 0, 67, 100
1, 26312, Note_on_c, 0, 69, 100
1, 26364, Note_off_c, 0, 69, 100
1, 26364, Note_on_c, 0, 69, 100
1, 26381, Note_off_c, 0, 69, 100
1, 26381, Note_on_c, 0, 73, 100
1, 26398, Note_off_c, 0, 73, 100
1, 26398, Note_on_c, 0, 71, 100
1, 26415, Note_off_c, 0, 71, 100
1, 26415, Note_on_c, 0, 67, 100
1, 26432, Note_off_c, 0, 67, 100
1, 26432, Note_on_c, 0, 61, 100
1, 26449, Note_off_c, 0, 61, 100
1, 26449, Note_on_c, 0, 67, 100
1, 26483, Note_off_c, 0, 67, 100
1, 26483, Note_on_c, 0, 71, 100
1, 26507, Note_off_c, 0, 71, 100
1, 26507, Note_on_c, 0, 67, 100
1, 26531, Note_off_c, 0, 67, 100
1, 26531, Note_on_c, 0, 61, 100
1, 26555, Note_off_c, 0, 61, 100
1, 26555, Note_on_c, 0, 67, 100
1, 26579, Note_off_c, 0, 67, 100
1, 26579, Note_on_c, 0, 71, 100
1, 26603, Note_off_c, 0, 71, 100
1, 26603, Note_on_c, 0, 69, 100
1, 26627, Note_off_c, 0, 69, 100
1, 26627, Note_on_c, 0, 67, 100
1, 26651, Note_off_c, 0, 67, 100
1, 26651, Note_on_c, 0, 65, 100
1, 26699, Note_off_c, 0, 65, 100
1, 26699, Note_on_c, 0, 65, 100
1, 26747, Note_off_c, 0, 65, 100
1, 26747, Note_on_c, 0, 65, 100
1, 26771, Note_off_c, 0, 65, 100
1, 26771, Note_on_c, 0, 69, 100
1, 26795, Note_off_c, 0, 69, 100
1, 26795, Note_on_c, 0, 65, 100
1, 26819, Note_off_c, 0, 65, 100
1, 26819, Note_on_c, 0, 61, 100
1, 26843, Note_off_c, 0, 61, 100
1, 26843, Note_on_c, 0, 65, 100
1, 26867, Note_off_c, 0, 65, 100
1, 26867, Note_on_c, 0, 69, 100
1, 26891, Note_off_c, 0, 69, 100
1, 26891, Note_on_c, 0, 63, 100
1, 26915, Note_off_c, 0, 63, 100
1, 26915, Note_on_c, 0, 61, 100
1, 26939, Note_off_c, 0, 61, 100
1, 26939, Note_on_c, 0, 63, 100
1, 26963, Note_off_c, 0, 63, 100
1, 26963, Note_on_c, 0, 65, 100
1, 26987, Note_off_c, 0, 65, 100
1, 26987, Note_on_c, 0, 60, 100
1, 27011, Note_off_c, 0, 60, 100
1, 27011, Note_on_c, 0, 61, 100
1, 27036, Note_off_c, 0, 61, 100
1, 27036, End_track
0, 0, End_of_file
