0, 0, Header, 1, 1, 192
1, 0, Start_track
1, 0, Title_t, "Melody"
1, 0, Tempo, 465116
1, 0, Key_signature, 1, "minor"
1, 0, Time_signature, 4, 2, 24, 8
1, 672, Note_on_c, 0, 61, 100
1, 720, Note_off_c, 0, 61, 100
1, 720, Note_on_c, 0, 62, 100
1, 768, Note_off_c, 0, 62, 100
1, 768, Note_on_c, 0, 65, 100
1, 895, Note_off_c, 0, 65, 100
1, 895, Note_on_c, 0, 73, 100
1, 1055, Note_off_c, 0, 73, 100
1, 1055, Note_on_c, 0, 73, 100
1, 1199, Note_off_c, 0, 73, 100
1, 1199, Note_on_c, 0, 72, 100
1, 1247, Note_off_c, 0, 72, 100
1, 1247, Note_on_c, 0, 73, 100
1, 1343, Note_off_c, 0, 73, 100
1, 1343, Note_on_c, 0, 69, 100
1, 1535, Note_off_c, 0, 69, 100
1, 1535, Note_on_c, 0, 74, 100
1, 1599, Note_off_c, 0, 74, 100
1, 1599, Note_on_c, 0, 76, 100
1, 1727, Note_off_c, 0, 76, 100
1, 1727, Note_on_c, 0, 74, 100
1, 1919, Note_off_c, 0, 74, 100
1, 1919, Note_on_c, 0, 69, 100
1, 2111, Note_off_c, 0, 69, 100
1, 2111, Note_on_c, 0, 71, 100
1, 2159, Note_off_c, 0, 71, 100
1, 2159, Note_on_c, 0, 72, 100
1, 2634, Note_off_c, 0, 72, 100
1, 2634, Note_on_c, 0, 74, 100
1, 2651, Note_off_c, 0, 74, 100
1, 2651, Note_on_c, 0, 73, 100
1, 2668, Note_off_c, 0, 73, 100
1, 2668, Note_on_c, 0, 70, 100
1, 2685, Note_off_c, 0, 70, 100
1, 2685, Note_on_c, 0, 71, 100
1, 2829, Note_off_c, 0, 71, 100
1, 2829, Note_on_c, 0, 62, 100
1, 3165, Note_off_c, 0, 62, 100
1, 3165, Note_on_c, 0, 62, 100
1, 3357, Note_off_c, 0, 62, 100
1, 4125, Note_on_c, 0, 80, 100
1, 4173, Note_off_c, 0, 80, 100
1, 4173, Note_on_c, 0, 81, 100
1, 4317, Note_off_c, 0, 81, 100
1, 4317, Note_on_c, 0, 80, 100
1, 4413, Note_off_c, 0, 80, 100
1, 4413, Note_on_c, 0, 81, 100
1, 4989, Note_off_c, 0, 81, 100
1, 4989, Note_on_c, 0, 77, 100
1, 5325, Note_off_c, 0, 77, 100
1, 5325, Note_on_c, 0, 75, 100
1, 5373, Note_off_c, 0, 75, 100
1, 5373, Note_on_c, 0, 77, 100
1, 5469, Note_off_c, 0, 77, 100
1, 5469, Note_on_c, 0, 75, 100
1, 5517, Note_off_c, 0, 75, 100
1, 5517, Note_on_c, 0, 77, 100
1, 5613, Note_off_c, 0, 77, 100
1, 6333, Note_on_c, 0, 71, 100
1, 6365, Note_off_c, 0, 71, 100
1, 6365, Note_on_c, 0, 72, 100
1, 6397, Note_off_c, 0, 72, 100
1, 6397, Note_on_c, 0, 74, 100
1, 6429, Note_off_c, 0, 74, 100
1, 6429, Note_on_c, 0, 76, 100
1, 6493, Note_off_c, 0, 76, 100
1, 6493, Note_on_c, 0, 74, 100
1, 6525, Note_off_c, 0, 74, 100
1, 6525, Note_on_c, 0, 72, 100
1, 6557, Note_off_c, 0, 72, 100
1, 6557, Note_on_c, 0, 71, 100
1, 6589, Note_off_c, 0, 71, 100
1, 6589, Note_on_c, 0, 69, 100
1, 6621, Note_off_c, 0, 69, 100
1, 6621, Note_on_c, 0, 67, 100
1, 6685, Note_off_c, 0, 67, 100
1, 6685, Note_on_c, 0, 65, 100
1, 6717, Note_off_c, 0, 65, 100
1, 6717, Note_on_c, 0, 64, 100
1, 6765, Note_off_c, 0, 64, 100
1, 6765, Note_on_c, 0, 67, 100
1, 6813, Note_off_c, 0, 67, 100
1, 6813, Note_on_c, 0, 70, 100
1, 6861, Note_off_c, 0, 70, 100
1, 6861, Note_on_c, 0, 72, 100
1, 6909, Note_off_c, 0, 72, 100
1, 6909, Note_on_c, 0, 69, 100
1, 7005, Note_off_c, 0, 69, 100
1, 7005, Note_on_c, 0, 75, 100
1, 7101, Note_off_c, 0, 75, 100
1, 7101, Note_on_c, 0, 73, 100
1, 7125, Note_off_c, 0, 73, 100
1, 7125, Note_on_c, 0, 72, 100
1, 7149, Note_off_c, 0, 72, 100
1, 7149, Note_on_c, 0, 71, 100
1, 7173, Note_off_c, 0, 71, 100
1, 7173, Note_on_c, 0, 71, 100
1, 7197, Note_off_c, 0, 71, 100
1, 7197, Note_on_c, 0, 69, 100
1, 7221, Note_off_c, 0, 69, 100
1, 7221, Note_on_c, 0, 67, 100
1, 7269, Note_off_c, 0, 67, 100
1, 7269, Note_on_c, 0, 67, 100
1, 7293, Note_off_c, 0, 67, 100
1, 7293, Note_on_c, 0, 65, 100
1, 7341, Note_off_c, 0, 65, 100
1, 7341, Note_on_c, 0, 64, 100
1, 7389, Note_off_c, 0, 64, 100
1, 7389, Note_on_c, 0, 62, 100
1, 7437, Note_off_c, 0, 62, 100
1, 7437, Note_on_c, 0, 63, 100
1, 7485, Note_off_c, 0, 63, 100
1, 7485, Note_on_c, 0, 46, 100
1, 7549, Note_off_c, 0, 46, 100
1, 7549, Note_on_c, 0, 61, 100
1, 7613, Note_off_c, 0, 61, 100
1, 7613, Note_on_c, 0, 58, 100
1, 7677, Note_off_c, 0, 58, 100
1, 7677, Note_on_c, 0, 60, 100
1, 7725, Note_off_c, 0, 60, 100
1, 7725, Note_on_c, 0, 58, 100
1, 7773, Note_off_c, 0, 58, 100
1, 7773, Note_on_c, 0, 57, 100
1, 7821, Note_off_c, 0, 57, 100
1, 7821, Note_on_c, 0, 55, 100
1, 7869, Note_off_c, 0, 55, 100
1, 7869, Note_on_c, 0, 53, 100
1, 7917, Note_off_c, 0, 53, 100
1, 7917, Note_on_c, 0, 57, 100
1, 7965, Note_off_c, 0, 57, 100
1, 7965, Note_on_c, 0, 60, 100
1, 8013, Note_off_c, 0, 60, 100
1, 8013, Note_on_c, 0, 63, 100
1, 8061, Note_off_c, 0, 63, 100
1, 8061, Note_on_c, 0, 59, 100
1, 8109, Note_off_c, 0, 59, 100
1, 8109, Note_on_c, 0, 61, 100
1, 8157, Note_off_c, 0, 61, 100
1, 8157, Note_on_c, 0, 62, 100
1, 8205, Note_off_c, 0, 62, 100
1, 8205, Note_on_c, 0, 60, 100
1, 8253, Note_off_c, 0, 60, 100
1, 8253, Note_on_c, 0, 58, 100
1, 8280, Note_off_c, 0, 58, 100
1, 8280, Note_on_c, 0, 59, 100
1, 8307, Note_off_c, 0, 59, 100
1, 8307, Note_on_c, 0, 62, 100
1, 8334, Note_off_c, 0, 62, 100
1, 8334, Note_on_c, 0, 65, 100
1, 8361, Note_off_c, 0, 65, 100
1, 8361, Note_on_c, 0, 69, 100
1, 8415, Note_off_c, 0, 69, 100
1, 8415, Note_on_c, 0, 65, 100
1, 8442, Note_off_c, 0, 65, 100
1, 8442, Note_on_c, 0, 67, 100
1, 8490, Note_off_c, 0, 67, 100
1, 8490, Note_on_c, 0, 69, 100
1, 8538, Note_off_c, 0, 69, 100
1, 8538, Note_on_c, 0, 70, 100
1, 8586, Note_off_c, 0, 70, 100
1, 8586, Note_on_c, 0, 74, 100
1, 8634, Note_off_c, 0, 74, 100
1, 8634, Note_on_c, 0, 79, 100
1, 8682, Note_off_c, 0, 79, 100
1, 8682, Note_on_c, 0, 77, 100
1, 8778, Note_off_c, 0, 77, 100
1, 9210, Note_on_c, 0, 86, 100
1, 9306, Note_off_c, 0, 86, 100
1, 9738, Note_on_c, 0, 80, 100
1, 9786, Note_off_c, 0, 80, 100
1, 9786, Note_on_c, 0, 81, 100
1, 9882, Note_off_c, 0, 81, 100
1, 10122, Note_on_c, 0, 57, 100
1, 10218, Note_off_c, 0, 57, 100
1, 10458, Note_on_c, 0, 74, 100
1, 10506, Note_off_c, 0, 74, 100
1, 10506, Note_on_c, 0, 76, 100
1, 10650, Note_off_c, 0, 76, 100
1, 10650, Note_on_c, 0, 69, 100
1, 10746, Note_off_c, 0, 69, 100
1, 10746, Note_on_c, 0, 74, 100
1, 10890, Note_off_c, 0, 74, 100
1, 10890, Note_on_c, 0, 69, 100
1, 11082, Note_off_c, 0, 69, 100
1, 11082, Note_on_c, 0, 72, 100
1, 11706, Note_off_c, 0, 72, 100
1, 11706, Note_on_c, 0, 73, 100
1, 11994, Note_off_c, 0, 73, 100
1, 11994, Note_on_c, 0, 71, 100
1, 12090, Note_off_c, 0, 71, 100
1, 12090, Note_on_c, 0, 73, 100
1, 12186, Note_off_c, 0, 73, 100
1, 12570, Note_on_c, 0, 71, 100
1, 12618, Note_off_c, 0, 71, 100
1, 12618, Note_on_c, 0, 74, 100
1, 13146, Note_off_c, 0, 74, 100
1, 13146, Note_on_c, 0, 75, 100
1, 13242, Note_off_c, 0, 75, 100
1, 13242, Note_on_c, 0, 73, 100
1, 13280, Note_off_c, 0, 73, 100
1, 13280, Note_on_c, 0, 72, 100
1, 13318, Note_off_c, 0, 72, 100
1, 13318, Note_on_c, 0, 70, 100
1, 13356, Note_off_c, 0, 70, 100
1, 13356, Note_on_c, 0, 69, 100
1, 13394, Note_off_c, 0, 69, 100
1, 13394, Note_on_c, 0, 67, 100
1, 13432, Note_off_c, 0, 67, 100
1, 13432, Note_on_c, 0, 65, 100
1, 13470, Note_off_c, 0, 65, 100
1, 13470, Note_on_c, 0, 63, 100
1, 13508, Note_off_c, 0, 63, 100
1, 13508, Note_on_c, 0, 62, 100
1, 13546, Note_off_c, 0, 62, 100
1, 13546, Note_on_c, 0, 61, 100
1, 13584, Note_off_c, 0, 61, 100
1, 13584, Note_on_c, 0, 62, 100
1, 13660, Note_off_c, 0, 62, 100
1, 13660, Note_on_c, 0, 60, 100
1, 13698, Note_off_c, 0, 60, 100
1, 13698, Note_on_c, 0, 59, 100
1, 13774, Note_off_c, 0, 59, 100
1, 13774, Note_on_c, 0, 62, 100
1, 13812, Note_off_c, 0, 62, 100
1, 13812, Note_on_c, 0, 69, 100
1, 13860, Note_off_c, 0, 69, 100
1, 13860, Note_on_c, 0, 65, 100
1, 13908, Note_off_c, 0, 65, 100
1, 13908, Note_on_c, 0, 67, 100
1, 13932, Note_off_c, 0, 67, 100
1, 13932, Note_on_c, 0, 67, 100
1, 13956, Note_off_c, 0, 67, 100
1, 13956, Note_on_c, 0, 69, 100
1, 13980, Note_off_c, 0, 69, 100
1, 13980, Note_on_c, 0, 69, 100
1, 14004, Note_off_c, 0, 69, 100
1, 14004, Note_on_c, 0, 70, 100
1, 14036, Note_off_c, 0, 70, 100
1, 14036, Note_on_c, 0, 70, 100
1, 14068, Note_off_c, 0, 70, 100
1, 14068, Note_on_c, 0, 72, 100
1, 14100, Note_off_c, 0, 72, 100
1, 14100, Note_on_c, 0, 74, 100
1, 14132, Note_off_c, 0, 74, 100
1, 14132, Note_on_c, 0, 72, 100
1, 14196, Note_off_c, 0, 72, 100
1, 14196, Note_on_c, 0, 71, 100
1, 14244, Note_off_c, 0, 71, 100
1, 14244, Note_on_c, 0, 69, 100
1, 14292, Note_off_c, 0, 69, 100
1, 14292, Note_on_c, 0, 68, 100
1, 14340, Note_off_c, 0, 68, 100
1, 14340, Note_on_c, 0, 76, 100
1, 14388, Note_off_c, 0, 76, 100
1, 14388, Note_on_c, 0, 77, 100
1, 14436, Note_off_c, 0, 77, 100
1, 14436, Note_on_c, 0, 79, 100
1, 14484, Note_off_c, 0, 79, 100
1, 14484, Note_on_c, 0, 81, 100
1, 14580, Note_off_c, 0, 81, 100
1, 15492, Note_on_c, 0, 70, 100
1, 15540, Note_off_c, 0, 70, 100
1, 15540, Note_on_c, 0, 72, 100
1, 15588, Note_off_c, 0, 72, 100
1, 15588, Note_on_c, 0, 74, 100
1, 15636, Note_off_c, 0, 74, 100
1, 15636, Note_on_c, 0, 76, 100
1, 15684, Note_off_c, 0, 76, 100
1, 15684, Note_on_c, 0, 74, 100
1, 15732, Note_off_c, 0, 74, 100
1, 15732, Note_on_c, 0, 70, 100
1, 15756, Note_off_c, 0, 70, 100
1, 15756, Note_on_c, 0, 71, 100
1, 15804, Note_off_c, 0, 71, 100
1, 15804, Note_on_c, 0, 69, 100
1, 15852, Note_off_c, 0, 69, 100
1, 15852, Note_on_c, 0, 67, 100
1, 15900, Note_off_c, 0, 67, 100
1, 15900, Note_on_c, 0, 65, 100
1, 15924, Note_off_c, 0, 65, 100
1, 15924, Note_on_c, 0, 63, 100
1, 15972, Note_off_c, 0, 63, 100
1, 15972, Note_on_c, 0, 59, 100
1, 16020, Note_off_c, 0, 59, 100
1, 16020, Note_on_c, 0, 62, 100
1, 16068, Note_off_c, 0, 62, 100
1, 16068, Note_on_c, 0, 58, 100
1, 16116, Note_off_c, 0, 58, 100
1, 16116, Note_on_c, 0, 60, 100
1, 16164, Note_off_c, 0, 60, 100
1, 16164, Note_on_c, 0, 62, 100
1, 16212, Note_off_c, 0, 62, 100
1, 16212, Note_on_c, 0, 60, 100
1, 16260, Note_off_c, 0, 60, 100
1, 16260, Note_on_c, 0, 58, 100
1, 16308, Note_off_c, 0, 58, 100
1, 16308, Note_on_c, 0, 57, 100
1, 16346, Note_off_c, 0, 57, 100
1, 16346, Note_on_c, 0, 55, 100
1, 16384, Note_off_c, 0, 55, 100
1, 16384, Note_on_c, 0, 53, 100
1, 16422, Note_off_c, 0, 53, 100
1, 16422, Note_on_c, 0, 57, 100
1, 16460, Note_off_c, 0, 57, 100
1, 16460, Note_on_c, 0, 60, 100
1, 16498, Note_off_c, 0, 60, 100
1, 16498, Note_on_c, 0, 63, 100
1, 16546, Note_off_c, 0, 63, 100
1, 16546, Note_on_c, 0, 60, 100
1, 16594, Note_off_c, 0, 60, 100
1, 16594, Note_on_c, 0, 61, 100
1, 16642, Note_off_c, 0, 61, 100
1, 16642, Note_on_c, 0, 62, 100
1, 16690, Note_off_c, 0, 62, 100
1, 16690, Note_on_c, 0, 62, 100
1, 16728, Note_off_c, 0, 62, 100
1, 16728, Note_on_c, 0, 60, 100
1, 16766, Note_off_c, 0, 60, 100
1, 16766, Note_on_c, 0, 58, 100
1, 16804, Note_off_c, 0, 58, 100
1, 16804, Note_on_c, 0, 63, 100
1, 16842, Note_off_c, 0, 63, 100
1, 16842, Note_on_c, 0, 70, 100
1, 16880, Note_off_c, 0, 70, 100
1, 16880, Note_on_c, 0, 67, 100
1, 16928, Note_off_c, 0, 67, 100
1, 16928, Note_on_c, 0, 68, 100
1, 16976, Note_off_c, 0, 68, 100
1, 16976, Note_on_c, 0, 69, 100
1, 17072, Note_off_c, 0, 69, 100
1, 17264, Note_on_c, 0, 68, 100
1, 17312, Note_off_c, 0, 68, 100
1, 17312, Note_on_c, 0, 70, 100
1, 17360, Note_off_c, 0, 70, 100
1, 17360, Note_on_c, 0, 75, 100
1, 17408, Note_off_c, 0, 75, 100
1, 17408, Note_on_c, 0, 72, 100
1, 17456, Note_off_c, 0, 72, 100
1, 17456, Note_on_c, 0, 74, 100
1, 17504, Note_off_c, 0, 74, 100
1, 17504, Note_on_c, 0, 72, 100
1, 17552, Note_off_c, 0, 72, 100
1, 17552, Note_on_c, 0, 71, 100
1, 17600, Note_off_c, 0, 71, 100
1, 17600, Note_on_c, 0, 68, 100
1, 17648, Note_off_c, 0, 68, 100
1, 17648, Note_on_c, 0, 69, 100
1, 17680, Note_off_c, 0, 69, 100
1, 17680, Note_on_c, 0, 71, 100
1, 17712, Note_off_c, 0, 71, 100
1, 17712, Note_on_c, 0, 74, 100
1, 17744, Note_off_c, 0, 74, 100
1, 17744, Note_on_c, 0, 76, 100
1, 17776, Note_off_c, 0, 76, 100
1, 17776, Note_on_c, 0, 80, 100
1, 18416, Note_off_c, 0, 80, 100
1, 18416, Note_on_c, 0, 80, 100
1, 18454, Note_off_c, 0, 80, 100
1, 18454, Note_on_c, 0, 75, 100
1, 18492, Note_off_c, 0, 75, 100
1, 18492, Note_on_c, 0, 72, 100
1, 18568, Note_off_c, 0, 72, 100
1, 18568, Note_on_c, 0, 68, 100
1, 18654, Note_off_c, 0, 68, 100
1, 18654, Note_on_c, 0, 72, 100
1, 18702, Note_off_c, 0, 72, 100
1, 18702, Note_on_c, 0, 75, 100
1, 18798, Note_off_c, 0, 75, 100
1, 18798, Note_on_c, 0, 80, 100
1, 18894, Note_off_c, 0, 80, 100
1, 18894, Note_on_c, 0, 75, 100
1, 18990, Note_off_c, 0, 75, 100
1, 18990, Note_on_c, 0, 72, 100
1, 19182, Note_off_c, 0, 72, 100
1, 19182, Note_on_c, 0, 72, 100
1, 19278, Note_off_c, 0, 72, 100
1, 19278, Note_on_c, 0, 73, 100
1, 19374, Note_off_c, 0, 73, 100
1, 19374, Note_on_c, 0, 79, 100
1, 19422, Note_off_c, 0, 79, 100
1, 19422, Note_on_c, 0, 80, 100
1, 19470, Note_off_c, 0, 80, 100
1, 19470, Note_on_c, 0, 84, 100
1, 19758, Note_off_c, 0, 84, 100
1, 19758, Note_on_c, 0, 80, 100
1, 20046, Note_off_c, 0, 80, 100
1, 20046, Note_on_c, 0, 68, 100
1, 20142, Note_off_c, 0, 68, 100
1, 20142, Note_on_c, 0, 72, 100
1, 20206, Note_off_c, 0, 72, 100
1, 20206, Note_on_c, 0, 76, 100
1, 20270, Note_off_c, 0, 76, 100
1, 20270, Note_on_c, 0, 80, 100
1, 20334, Note_off_c, 0, 80, 100
1, 20334, Note_on_c, 0, 84, 100
1, 20574, Note_off_c, 0, 84, 100
1, 20574, Note_on_c, 0, 77, 100
1, 20670, Note_off_c, 0, 77, 100
1, 20670, Note_on_c, 0, 87, 100
1, 20910, Note_off_c, 0, 87, 100
1, 20910, Note_on_c, 0, 84, 100
1, 21102, Note_off_c, 0, 84, 100
1, 21102, Note_on_c, 0, 85, 100
1, 21246, Note_off_c, 0, 85, 100
1, 21246, Note_on_c, 0, 77, 100
1, 21342, Note_off_c, 0, 77, 100
1, 21870, Note_on_c, 0, 80, 100
1, 21918, Note_off_c, 0, 80, 100
1, 21918, Note_on_c, 0, 81, 100
1, 21966, Note_off_c, 0, 81, 100
1, 21966, Note_on_c, 0, 80, 100
1, 22014, Note_off_c, 0, 80, 100
1, 22014, Note_on_c, 0, 77, 100
1, 22062, Note_off_c, 0, 77, 100
1, 22062, Note_on_c, 0, 73, 100
1, 22158, Note_off_c, 0, 73, 100
1, 22158, Note_on_c, 0, 69, 100
1, 22254, Note_off_c, 0, 69, 100
1, 22566, Note_on_c, 0, 75, 100
1, 22590, Note_off_c, 0, 75, 100
1, 22590, Note_on_c, 0, 74, 100
1, 22614, Note_off_c, 0, 74, 100
1, 22614, Note_on_c, 0, 72, 100
1, 22638, Note_off_c, 0, 72, 100
1, 22638, Note_on_c, 0, 69, 100
1, 22686, Note_off_c, 0, 69, 100
1, 22686, Note_on_c, 0, 71, 100
1, 22734, Note_off_c, 0, 71, 100
1, 22734, Note_on_c, 0, 72, 100
1, 22782, Note_off_c, 0, 72, 100
1, 22782, Note_on_c, 0, 73, 100
1, 22830, Note_off_c, 0, 73, 100
1, 22830, Note_on_c, 0, 76, 100
1, 22878, Note_off_c, 0, 76, 100
1, 22878, Note_on_c, 0, 74, 100
1, 22926, Note_off_c, 0, 74, 100
1, 22926, Note_on_c, 0, 72, 100
1, 22974, Note_off_c, 0, 72, 100
1, 22974, Note_on_c, 0, 71, 100
1, 23022, Note_off_c, 0, 71, 100
1, 23022, Note_on_c, 0, 69, 100
1, 23070, Note_off_c, 0, 69, 100
1, 23070, Note_on_c, 0, 67, 100
1, 23118, Note_off_c, 0, 67, 100
1, 23118, Note_on_c, 0, 65, 100
1, 23166, Note_off_c, 0, 65, 100
1, 23166, Note_on_c, 0, 64, 100
1, 23278, Note_off_c, 0, 64, 100
1, 23278, Note_on_c, 0, 62, 100
1, 23342, Note_off_c, 0, 62, 100
1, 23342, Note_on_c, 0, 63, 100
1, 23406, Note_off_c, 0, 63, 100
1, 23406, Note_on_c, 0, 60, 100
1, 23438, Note_off_c, 0, 60, 100
1, 23438, Note_on_c, 0, 61, 100
1, 23470, Note_off_c, 0, 61, 100
1, 23470, Note_on_c, 0, 57, 100
1, 23502, Note_off_c, 0, 57, 100
1, 23502, Note_on_c, 0, 59, 100
1, 23566, Note_off_c, 0, 59, 100
1, 23566, Note_on_c, 0, 62, 100
1, 23598, Note_off_c, 0, 62, 100
1, 23598, Note_on_c, 0, 57, 100
1, 23646, Note_off_c, 0, 57, 100
1, 23646, Note_on_c, 0, 59, 100
1, 23694, Note_off_c, 0, 59, 100
1, 23694, Note_on_c, 0, 62, 100
1, 23886, Note_off_c, 0, 62, 100
1, 23886, Note_on_c, 0, 72, 100
1, 23934, Note_off_c, 0, 72, 100
1, 23934, Note_on_c, 0, 74, 100
1, 24030, Note_off_c, 0, 74, 100
1, 24030, Note_on_c, 0, 67, 100
1, 24126, Note_off_c, 0, 67, 100
1, 24126, Note_on_c, 0, 71, 100
1, 24174, Note_off_c, 0, 71, 100
1, 24174, Note_on_c, 0, 72, 100
1, 24238, Note_off_c, 0, 72, 100
1, 24238, Note_on_c, 0, 74, 100
1, 24302, Note_off_c, 0, 74, 100
1, 24302, Note_on_c, 0, 67, 100
1, 24366, Note_off_c, 0, 67, 100
1, 24366, Note_on_c, 0, 71, 100
1, 24462, Note_off_c, 0, 71, 100
1, 24462, Note_on_c, 0, 73, 100
1, 24510, Note_off_c, 0, 73, 100
1, 24510, Note_on_c, 0, 74, 100
1, 24558, Note_off_c, 0, 74, 100
1, 24558, Note_on_c, 0, 67, 100
1, 24654, Note_off_c, 0, 67, 100
1, 24654, Note_on_c, 0, 73, 100
1, 24750, Note_off_c, 0, 73, 100
1, 24750, Note_on_c, 0, 74, 100
1, 25018, Note_off_c, 0, 74, 100
1, 25018, Note_on_c, 0, 76, 100
1, 25056, Note_off_c, 0, 76, 100
1, 25056, Note_on_c, 0, 73, 100
1, 25094, Note_off_c, 0, 73, 100
1, 25094, Note_on_c, 0, 72, 100
1, 25132, Note_off_c, 0, 72, 100
1, 25132, Note_on_c, 0, 70, 100
1, 25180, Note_off_c, 0, 70, 100
1, 25180, Note_on_c, 0, 67, 100
1, 25228, Note_off_c, 0, 67, 100
1, 25228, Note_on_c, 0, 65, 100
1, 25276, Note_off_c, 0, 65, 100
1, 25276, Note_on_c, 0, 62, 100
1, 25372, Note_off_c, 0, 62, 100
1, 25732, Note_on_c, 0, 72, 100
1, 25804, Note_off_c, 0, 72, 100
1, 25804, Note_on_c, 0, 75, 100
1, 25852, Note_off_c, 0, 75, 100
1, 25852, Note_on_c, 0, 72, 100
1, 25876, Note_off_c, 0, 72, 100
1, 25876, Note_on_c, 0, 70, 100
1, 25900, Note_off_c, 0, 70, 100
1, 25900, Note_on_c, 0, 67, 100
1, 25964, Note_off_c, 0, 67, 100
1, 25964, Note_on_c, 0, 65, 100
1, 26028, Note_off_c, 0, 65, 100
1, 26028, Note_on_c, 0, 72, 100
1, 26092, Note_off_c, 0, 72, 100
1, 26092, Note_on_c, 0, 75, 100
1, 26140, Note_off_c, 0, 75, 100
1, 26140, Note_on_c, 0, 73, 100
1, 26188, Note_off_c, 0, 73, 100
1, 26188, Note_on_c, 0, 70, 100
1, 26236, Note_off_c, 0, 70, 100
1, 26236, Note_on_c, 0, 67, 100
1, 26348, Note_off_c, 0, 67, 100
1, 26348, Note_on_c, 0, 72, 100
1, 26412, Note_off_c, 0, 72, 100
1, 26412, Note_on_c, 0, 74, 100
1, 26988, Note_off_c, 0, 74, 100
1, 27388, Note_on_c, 0, 72, 100
1, 27436, Note_off_c, 0, 72, 100
1, 27436, Note_on_c, 0, 74, 100
1, 27580, Note_off_c, 0, 74, 100
1, 27580, Note_on_c, 0, 79, 100
1, 27692, Note_off_c, 0, 79, 100
1, 27692, Note_on_c, 0, 77, 100
1, 28588, Note_off_c, 0, 77, 100
1, 28588, Note_on_c, 0, 75, 100
1, 28636, Note_off_c, 0, 75, 100
1, 28636, Note_on_c, 0, 76, 100
1, 28684, Note_off_c, 0, 76, 100
1, 28684, Note_on_c, 0, 80, 100
1, 28780, Note_off_c, 0, 80, 100
1, 29164, Note_on_c, 0, 79, 100
1, 29212, Note_off_c, 0, 79, 100
1, 29212, Note_on_c, 0, 80, 100
1, 29260, Note_off_c, 0, 80, 100
1, 29260, Note_on_c, 0, 79, 100
1, 29308, Note_off_c, 0, 79, 100
1, 29308, Note_on_c, 0, 78, 100
1, 29356, Note_off_c, 0, 78, 100
1, 29356, Note_on_c, 0, 77, 100
1, 29394, Note_off_c, 0, 77, 100
1, 29394, Note_on_c, 0, 76, 100
1, 29432, Note_off_c, 0, 76, 100
1, 29432, Note_on_c, 0, 75, 100
1, 29470, Note_off_c, 0, 75, 100
1, 29470, Note_on_c, 0, 73, 100
1, 29508, Note_off_c, 0, 73, 100
1, 29508, Note_on_c, 0, 76, 100
1, 29546, Note_off_c, 0, 76, 100
1, 29546, Note_on_c, 0, 74, 100
1, 29584, Note_off_c, 0, 74, 100
1, 29584, Note_on_c, 0, 73, 100
1, 29622, Note_off_c, 0, 73, 100
1, 29622, Note_on_c, 0, 72, 100
1, 29660, Note_off_c, 0, 72, 100
1, 29660, Note_on_c, 0, 67, 100
1, 29698, Note_off_c, 0, 67, 100
1, 29698, Note_on_c, 0, 68, 100
1, 29736, Note_off_c, 0, 68, 100
1, 29736, Note_on_c, 0, 69, 100
1, 29812, Note_off_c, 0, 69, 100
1, 29812, Note_on_c, 0, 65, 100
1, 29850, Note_off_c, 0, 65, 100
1, 29850, Note_on_c, 0, 61, 100
1, 29888, Note_off_c, 0, 61, 100
1, 29888, Note_on_c, 0, 59, 100
1, 29926, Note_off_c, 0, 59, 100
1, 29926, Note_on_c, 0, 60, 100
1, 29974, Note_off_c, 0, 60, 100
1, 29974, Note_on_c, 0, 57, 100
1, 30022, Note_off_c, 0, 57, 100
1, 30022, Note_on_c, 0, 59, 100
1, 30070, Note_off_c, 0, 59, 100
1, 30070, Note_on_c, 0, 57, 100
1, 30166, Note_off_c, 0, 57, 100
1, 30598, Note_on_c, 0, 58, 100
1, 30646, Note_off_c, 0, 58, 100
1, 30646, Note_on_c, 0, 57, 100
1, 30694, Note_off_c, 0, 57, 100
1, 30694, Note_on_c, 0, 58, 100
1, 30742, Note_off_c, 0, 58, 100
1, 30742, Note_on_c, 0, 59, 100
1, 30790, Note_off_c, 0, 59, 100
1, 30790, Note_on_c, 0, 62, 100
1, 30886, Note_off_c, 0, 62, 100
1, 30886, Note_on_c, 0, 64, 100
1, 30934, Note_off_c, 0, 64, 100
1, 30934, Note_on_c, 0, 62, 100
1, 30982, Note_off_c, 0, 62, 100
1, 30982, Note_on_c, 0, 60, 100
1, 31030, Note_off_c, 0, 60, 100
1, 31030, Note_on_c, 0, 59, 100
1, 31078, Note_off_c, 0, 59, 100
1, 31078, Note_on_c, 0, 57, 100
1, 31126, Note_off_c, 0, 57, 100
1, 31126, Note_on_c, 0, 55, 100
1, 31174, Note_off_c, 0, 55, 100
1, 31174, Note_on_c, 0, 53, 100
1, 31222, Note_off_c, 0, 53, 100
1, 31222, Note_on_c, 0, 58, 100
1, 31270, Note_off_c, 0, 58, 100
1, 31270, Note_on_c, 0, 60, 100
1, 31318, Note_off_c, 0, 60, 100
1, 31318, Note_on_c, 0, 63, 100
1, 31390, Note_off_c, 0, 63, 100
1, 31390, Note_on_c, 0, 60, 100
1, 31414, Note_off_c, 0, 60, 100
1, 31414, Note_on_c, 0, 61, 100
1, 31438, Note_off_c, 0, 61, 100
1, 31438, Note_on_c, 0, 62, 100
1, 31494, Note_off_c, 0, 62, 100
1, 31494, Note_on_c, 0, 60, 100
1, 31526, Note_off_c, 0, 60, 100
1, 31526, Note_on_c, 0, 58, 100
1, 31558, Note_off_c, 0, 58, 100
1, 31558, Note_on_c, 0, 55, 100
1, 31590, Note_off_c, 0, 55, 100
1, 31590, Note_on_c, 0, 60, 100
1, 31622, Note_off_c, 0, 60, 100
1, 31622, Note_on_c, 0, 66, 100
1, 31654, Note_off_c, 0, 66, 100
1, 31654, Note_on_c, 0, 69, 100
1, 31846, Note_off_c, 0, 69, 100
1, 32422, Note_on_c, 0, 72, 100
1, 32518, Note_off_c, 0, 72, 100
1, 33574, Note_on_c, 0, 72, 100
1, 33718, Note_off_c, 0, 72, 100
1, 33718, Note_on_c, 0, 84, 100
1, 33958, Note_off_c, 0, 84, 100
1, 33958, Note_on_c, 0, 84, 100
1, 34150, Note_off_c, 0, 84, 100
1, 34150, Note_on_c, 0, 80, 100
1, 34198, Note_off_c, 0, 80, 100
1, 34198, Note_on_c, 0, 81, 100
1, 34342, Note_off_c, 0, 81, 100
1, 34342, Note_on_c, 0, 77, 100
1, 34438, Note_off_c, 0, 77, 100
1, 34438, Note_on_c, 0, 74, 100
1, 34534, Note_off_c, 0, 74, 100
1, 34534, Note_on_c, 0, 76, 100
1, 34726, Note_off_c, 0, 76, 100
1, 34726, Note_on_c, 0, 74, 100
1, 34822, Note_off_c, 0, 74, 100
1, 34822, Note_on_c, 0, 75, 100
1, 35206, Note_off_c, 0, 75, 100
1, 35686, Note_on_c, 0, 75, 100
1, 35734, Note_off_c, 0, 75, 100
1, 35734, Note_on_c, 0, 77, 100
1, 35782, Note_off_c, 0, 77, 100
1, 35782, Note_on_c, 0, 75, 100
1, 35830, Note_off_c, 0, 75, 100
1, 35830, Note_on_c, 0, 74, 100
1, 35878, Note_off_c, 0, 74, 100
1, 35878, Note_on_c, 0, 72, 100
1, 35926, Note_off_c, 0, 72, 100
1, 35926, Note_on_c, 0, 70, 100
1, 35974, Note_off_c, 0, 70, 100
1, 35974, Note_on_c, 0, 69, 100
1, 36022, Note_off_c, 0, 69, 100
1, 36022, Note_on_c, 0, 67, 100
1, 36070, Note_off_c, 0, 67, 100
1, 36070, Note_on_c, 0, 65, 100
1, 36118, Note_off_c, 0, 65, 100
1, 36118, Note_on_c, 0, 63, 100
1, 36166, Note_off_c, 0, 63, 100
1, 36166, Note_on_c, 0, 60, 100
1, 36214, Note_off_c, 0, 60, 100
1, 36214, Note_on_c, 0, 61, 100
1, 36262, Note_off_c, 0, 61, 100
1, 36262, Note_on_c, 0, 62, 100
1, 36326, Note_off_c, 0, 62, 100
1, 36326, Note_on_c, 0, 60, 100
1, 36347, Note_off_c, 0, 60, 100
1, 36347, Note_on_c, 0, 58, 100
1, 36368, Note_off_c, 0, 58, 100
1, 36368, Note_on_c, 0, 63, 100
1, 36389, Note_off_c, 0, 63, 100
1, 36389, Note_on_c, 0, 65, 100
1, 36410, Note_off_c, 0, 65, 100
1, 36410, Note_on_c, 0, 66, 100
1, 36431, Note_off_c, 0, 66, 100
1, 36431, Note_on_c, 0, 69, 100
1, 36500, Note_off_c, 0, 69, 100
1, 36500, Note_on_c, 0, 65, 100
1, 36548, Note_off_c, 0, 65, 100
1, 36548, Note_on_c, 0, 67, 100
1, 36596, Note_off_c, 0, 67, 100
1, 36596, Note_on_c, 0, 69, 100
1, 36644, Note_off_c, 0, 69, 100
1, 36644, Note_on_c, 0, 71, 100
1, 36692, Note_off_c, 0, 71, 100
1, 36692, Note_on_c, 0, 72, 100
1, 36740, Note_off_c, 0, 72, 100
1, 36740, Note_on_c, 0, 74, 100
1, 36788, Note_off_c, 0, 74, 100
1, 36788, Note_on_c, 0, 72, 100
1, 36836, Note_off_c, 0, 72, 100
1, 36836, Note_on_c, 0, 71, 100
1, 36884, Note_off_c, 0, 71, 100
1, 36884, Note_on_c, 0, 68, 100
1, 36932, Note_off_c, 0, 68, 100
1, 36932, Note_on_c, 0, 69, 100
1, 36980, Note_off_c, 0, 69, 100
1, 36980, Note_on_c, 0, 65, 100
1, 37028, Note_off_c, 0, 65, 100
1, 37028, Note_on_c, 0, 61, 100
1, 37076, Note_off_c, 0, 61, 100
1, 37076, Note_on_c, 0, 57, 100
1, 37124, Note_off_c, 0, 57, 100
1, 37124, Note_on_c, 0, 60, 100
1, 37172, Note_off_c, 0, 60, 100
1, 37172, Note_on_c, 0, 57, 100
1, 37220, Note_off_c, 0, 57, 100
1, 37220, Note_on_c, 0, 59, 100
1, 37316, Note_off_c, 0, 59, 100
1, 37652, Note_on_c, 0, 58, 100
1, 37700, Note_off_c, 0, 58, 100
1, 37700, Note_on_c, 0, 60, 100
1, 37748, Note_off_c, 0, 60, 100
1, 37748, Note_on_c, 0, 62, 100
1, 37796, Note_off_c, 0, 62, 100
1, 37796, Note_on_c, 0, 61, 100
1, 37828, Note_off_c, 0, 61, 100
1, 37828, Note_on_c, 0, 59, 100
1, 37860, Note_off_c, 0, 59, 100
1, 37860, Note_on_c, 0, 58, 100
1, 37892, Note_off_c, 0, 58, 100
1, 37892, Note_on_c, 0, 62, 100
1, 37924, Note_off_c, 0, 62, 100
1, 37924, Note_on_c, 0, 67, 100
1, 37956, Note_off_c, 0, 67, 100
1, 37956, Note_on_c, 0, 71, 100
1, 38084, Note_off_c, 0, 71, 100
1, 38084, Note_on_c, 0, 58, 100
1, 38116, Note_off_c, 0, 58, 100
1, 38116, Note_on_c, 0, 59, 100
1, 38148, Note_off_c, 0, 59, 100
1, 38148, Note_on_c, 0, 61, 100
1, 38180, Note_off_c, 0, 61, 100
1, 38180, Note_on_c, 0, 63, 100
1, 38207, Note_off_c, 0, 63, 100
1, 38207, Note_on_c, 0, 62, 100
1, 38234, Note_off_c, 0, 62, 100
1, 38234, Note_on_c, 0, 60, 100
1, 38261, Note_off_c, 0, 60, 100
1, 38261, Note_on_c, 0, 59, 100
1, 38315, Note_off_c, 0, 59, 100
1, 38315, Note_on_c, 0, 76, 100
1, 38369, Note_off_c, 0, 76, 100
1, 38369, Note_on_c, 0, 75, 100
1, 38417, Note_off_c, 0, 75, 100
1, 38417, Note_on_c, 0, 72, 100
1, 38465, Note_off_c, 0, 72, 100
1, 38465, Note_on_c, 0, 59, 100
1, 38513, Note_off_c, 0, 59, 100
1, 38513, Note_on_c, 0, 60, 100
1, 38561, Note_off_c, 0, 60, 100
1, 38561, Note_on_c, 0, 62, 100
1, 38609, Note_off_c, 0, 62, 100
1, 38609, Note_on_c, 0, 60, 100
1, 38657, Note_off_c, 0, 60, 100
1, 38657, Note_on_c, 0, 59, 100
1, 38753, Note_off_c, 0, 59, 100
1, 38753, Note_on_c, 0, 76, 100
1, 38801, Note_off_c, 0, 76, 100
1, 38801, Note_on_c, 0, 75, 100
1, 38849, Note_off_c, 0, 75, 100
1, 38849, Note_on_c, 0, 72, 100
1, 38945, Note_off_c, 0, 72, 100
1, 38945, Note_on_c, 0, 59, 100
1, 38983, Note_off_c, 0, 59, 100
1, 38983, Note_on_c, 0, 61, 100
1, 39021, Note_off_c, 0, 61, 100
1, 39021, Note_on_c, 0, 62, 100
1, 39059, Note_off_c, 0, 62, 100
1, 39059, Note_on_c, 0, 60, 100
1, 39097, Note_off_c, 0, 60, 100
1, 39097, Note_on_c, 0, 59, 100
1, 39173, Note_off_c, 0, 59, 100
1, 39173, Note_on_c, 0, 76, 100
1, 39211, Note_off_c, 0, 76, 100
1, 39211, Note_on_c, 0, 75, 100
1, 39249, Note_off_c, 0, 75, 100
1, 39249, Note_on_c, 0, 74, 100
1, 39287, Note_off_c, 0, 74, 100
1, 39287, Note_on_c, 0, 59, 100
1, 39325, Note_off_c, 0, 59, 100
1, 39325, Note_on_c, 0, 60, 100
1, 39363, Note_off_c, 0, 60, 100
1, 39363, Note_on_c, 0, 61, 100
1, 39401, Note_off_c, 0, 61, 100
1, 39401, Note_on_c, 0, 62, 100
1, 39439, Note_off_c, 0, 62, 100
1, 39439, Note_on_c, 0, 59, 100
1, 39477, Note_off_c, 0, 59, 100
1, 39477, Note_on_c, 0, 60, 100
1, 39515, Note_off_c, 0, 60, 100
1, 39515, Note_on_c, 0, 62, 100
1, 39539, Note_off_c, 0, 62, 100
1, 39539, Note_on_c, 0, 60, 100
1, 39563, Note_off_c, 0, 60, 100
1, 39563, Note_on_c, 0, 59, 100
1, 39611, Note_off_c, 0, 59, 100
1, 39611, Note_on_c, 0, 64, 100
1, 39659, Note_off_c, 0, 64, 100
1, 39659, Note_on_c, 0, 71, 100
1, 39755, Note_off_c, 0, 71, 100
1, 39995, Note_on_c, 0, 50, 100
1, 40091, Note_off_c, 0, 50, 100
1, 40091, Note_on_c, 0, 62, 100
1, 40187, Note_off_c, 0, 62, 100
1, 40187, Note_on_c, 0, 69, 100
1, 40283, Note_off_c, 0, 69, 100
1, 40283, Note_on_c, 0, 74, 100
1, 40427, Note_off_c, 0, 74, 100
1, 40427, Note_on_c, 0, 86, 100
1, 40667, Note_off_c, 0, 86, 100
1, 40667, Note_on_c, 0, 81, 100
1, 40859, Note_off_c, 0, 81, 100
1, 40859, Note_on_c, 0, 77, 100
1, 40987, Note_off_c, 0, 77, 100
1, 40987, Note_on_c, 0, 53, 100
1, 41147, Note_off_c, 0, 53, 100
1, 41147, Note_on_c, 0, 69, 100
1, 41339, Note_off_c, 0, 69, 100
1, 41339, Note_on_c, 0, 76, 100
1, 41531, Note_off_c, 0, 76, 100
1, 41531, Note_on_c, 0, 79, 100
1, 41627, Note_off_c, 0, 79, 100
1, 41627, Note_on_c, 0, 77, 100
1, 41723, Note_off_c, 0, 77, 100
1, 41723, Note_on_c, 0, 74, 100
1, 41771, Note_off_c, 0, 74, 100
1, 41771, Note_on_c, 0, 76, 100
1, 41915, Note_off_c, 0, 76, 100
1, 41915, Note_on_c, 0, 53, 100
1, 42075, Note_off_c, 0, 53, 100
1, 42075, Note_on_c, 0, 55, 100
1, 42171, Note_off_c, 0, 55, 100
1, 42491, Note_on_c, 0, 55, 100
1, 42587, Note_off_c, 0, 55, 100
1, 42587, Note_on_c, 0, 62, 100
1, 42683, Note_off_c, 0, 62, 100
1, 42683, Note_on_c, 0, 65, 100
1, 42779, Note_off_c, 0, 65, 100
1, 42779, Note_on_c, 0, 67, 100
1, 42907, Note_off_c, 0, 67, 100
1, 42907, Note_on_c, 0, 67, 100
1, 43451, Note_off_c, 0, 67, 100
1, 43451, Note_on_c, 0, 68, 100
1, 43483, Note_off_c, 0, 68, 100
1, 43483, Note_on_c, 0, 69, 100
1, 43515, Note_off_c, 0, 69, 100
1, 43515, Note_on_c, 0, 70, 100
1, 43854, Note_off_c, 0, 70, 100
1, 43854, Note_on_c, 0, 70, 100
1, 43892, Note_off_c, 0, 70, 100
1, 43892, Note_on_c, 0, 72, 100
1, 43930, Note_off_c, 0, 72, 100
1, 43930, Note_on_c, 0, 74, 100
1, 43978, Note_off_c, 0, 74, 100
1, 43978, Note_on_c, 0, 71, 100
1, 44026, Note_off_c, 0, 71, 100
1, 44026, Note_on_c, 0, 70, 100
1, 44074, Note_off_c, 0, 70, 100
1, 44074, Note_on_c, 0, 67, 100
1, 44122, Note_off_c, 0, 67, 100
1, 44122, Note_on_c, 0, 65, 100
1, 44170, Note_off_c, 0, 65, 100
1, 44170, Note_on_c, 0, 63, 100
1, 44218, Note_off_c, 0, 63, 100
1, 44218, Note_on_c, 0, 60, 100
1, 44266, Note_off_c, 0, 60, 100
1, 44266, Note_on_c, 0, 61, 100
1, 44314, Note_off_c, 0, 61, 100
1, 44314, Note_on_c, 0, 62, 100
1, 44362, Note_off_c, 0, 62, 100
1, 44362, Note_on_c, 0, 61, 100
1, 44410, Note_off_c, 0, 61, 100
1, 44410, Note_on_c, 0, 60, 100
1, 44458, Note_off_c, 0, 60, 100
1, 44458, Note_on_c, 0, 58, 100
1, 44554, Note_off_c, 0, 58, 100
1, 44794, Note_on_c, 0, 62, 100
1, 44842, Note_off_c, 0, 62, 100
1, 44842, Note_on_c, 0, 60, 100
1, 44890, Note_off_c, 0, 60, 100
1, 44890, Note_on_c, 0, 57, 100
1, 44938, Note_off_c, 0, 57, 100
1, 44938, Note_on_c, 0, 58, 100
1, 44986, Note_off_c, 0, 58, 100
1, 44986, Note_on_c, 0, 59, 100
1, 45034, Note_off_c, 0, 59, 100
1, 45034, Note_on_c, 0, 62, 100
1, 45130, Note_off_c, 0, 62, 100
1, 45946, Note_on_c, 0, 67, 100
1, 46042, Note_off_c, 0, 67, 100
1, 46042, Note_on_c, 0, 71, 100
1, 46106, Note_off_c, 0, 71, 100
1, 46106, Note_on_c, 0, 73, 100
1, 46170, Note_off_c, 0, 73, 100
1, 46170, Note_on_c, 0, 75, 100
1, 46234, Note_off_c, 0, 75, 100
1, 46234, Note_on_c, 0, 73, 100
1, 46251, Note_off_c, 0, 73, 100
1, 46251, Note_on_c, 0, 72, 100
1, 46268, Note_off_c, 0, 72, 100
1, 46268, Note_on_c, 0, 70, 100
1, 46320, Note_off_c, 0, 70, 100
1, 46320, Note_on_c, 0, 67, 100
1, 46407, Note_off_c, 0, 67, 100
1, 46407, Note_on_c, 0, 65, 100
1, 46503, Note_off_c, 0, 65, 100
1, 46952, Note_on_c, 0, 67, 100
1, 47000, Note_off_c, 0, 67, 100
1, 47000, Note_on_c, 0, 70, 100
1, 47096, Note_off_c, 0, 70, 100
1, 47096, Note_on_c, 0, 72, 100
1, 47192, Note_off_c, 0, 72, 100
1, 47640, Note_on_c, 0, 64, 100
1, 47704, Note_off_c, 0, 64, 100
1, 47704, Note_on_c, 0, 67, 100
1, 47768, Note_off_c, 0, 67, 100
1, 47768, Note_on_c, 0, 70, 100
1, 47816, Note_off_c, 0, 70, 100
1, 47816, Note_on_c, 0, 70, 100
1, 47912, Note_off_c, 0, 70, 100
1, 47912, Note_on_c, 0, 70, 100
1, 48008, Note_off_c, 0, 70, 100
1, 48008, Note_on_c, 0, 67, 100
1, 48056, Note_off_c, 0, 67, 100
1, 48056, Note_on_c, 0, 71, 100
1, 48104, Note_off_c, 0, 71, 100
1, 48104, Note_on_c, 0, 72, 100
1, 48152, Note_off_c, 0, 72, 100
1, 48152, Note_on_c, 0, 72, 100
1, 48248, Note_off_c, 0, 72, 100
1, 48248, Note_on_c, 0, 67, 100
1, 48296, Note_off_c, 0, 67, 100
1, 48296, Note_on_c, 0, 70, 100
1, 48344, Note_off_c, 0, 70, 100
1, 48344, Note_on_c, 0, 70, 100
1, 48440, Note_off_c, 0, 70, 100
1, 48440, Note_on_c, 0, 70, 100
1, 48536, Note_off_c, 0, 70, 100
1, 48536, Note_on_c, 0, 67, 100
1, 48584, Note_off_c, 0, 67, 100
1, 48584, Note_on_c, 0, 71, 100
1, 48632, Note_off_c, 0, 71, 100
1, 48632, Note_on_c, 0, 72, 100
1, 48680, Note_off_c, 0, 72, 100
1, 48680, Note_on_c, 0, 72, 100
1, 48728, Note_off_c, 0, 72, 100
1, 48728, Note_on_c, 0, 67, 100
1, 48824, Note_off_c, 0, 67, 100
1, 48824, Note_on_c, 0, 70, 100
1, 48872, Note_off_c, 0, 70, 100
1, 48872, Note_on_c, 0, 70, 100
1, 48968, Note_off_c, 0, 70, 100
1, 48968, Note_on_c, 0, 70, 100
1, 49016, Note_off_c, 0, 70, 100
1, 49016, Note_on_c, 0, 67, 100
1, 49064, Note_off_c, 0, 67, 100
1, 49064, Note_on_c, 0, 71, 100
1, 49112, Note_off_c, 0, 71, 100
1, 49112, Note_on_c, 0, 72, 100
1, 49208, Note_off_c, 0, 72, 100
1, 49208, Note_on_c, 0, 72, 100
1, 49256, Note_off_c, 0, 72, 100
1, 49256, Note_on_c, 0, 67, 100
1, 49304, Note_off_c, 0, 67, 100
1, 49304, Note_on_c, 0, 70, 100
1, 49352, Note_off_c, 0, 70, 100
1, 49352, Note_on_c, 0, 71, 100
1, 49400, Note_off_c, 0, 71, 100
1, 49400, Note_on_c, 0, 72, 100
1, 49448, Note_off_c, 0, 72, 100
1, 49448, Note_on_c, 0, 72, 100
1, 49496, Note_off_c, 0, 72, 100
1, 49496, Note_on_c, 0, 67, 100
1, 49592, Note_off_c, 0, 67, 100
1, 49592, Note_on_c, 0, 70, 100
1, 49640, Note_off_c, 0, 70, 100
1, 49640, Note_on_c, 0, 72, 100
1, 49832, Note_off_c, 0, 72, 100
1, 50072, Note_on_c, 0, 70, 100
1, 50120, Note_off_c, 0, 70, 100
1, 50120, Note_on_c, 0, 72, 100
1, 50168, Note_off_c, 0, 72, 100
1, 50168, Note_on_c, 0, 74, 100
1, 50216, Note_off_c, 0, 74, 100
1, 50216, Note_on_c, 0, 72, 100
1, 50264, Note_off_c, 0, 72, 100
1, 50264, Note_on_c, 0, 71, 100
1, 50312, Note_off_c, 0, 71, 100
1, 50312, Note_on_c, 0, 67, 100
1, 50360, Note_off_c, 0, 67, 100
1, 50360, Note_on_c, 0, 68, 100
1, 50408, Note_off_c, 0, 68, 100
1, 50408, Note_on_c, 0, 69, 100
1, 50456, Note_off_c, 0, 69, 100
1, 50456, Note_on_c, 0, 65, 100
1, 50504, Note_off_c, 0, 65, 100
1, 50504, Note_on_c, 0, 62, 100
1, 50600, Note_off_c, 0, 62, 100
1, 51512, Note_on_c, 0, 78, 100
1, 51560, Note_off_c, 0, 78, 100
1, 51560, Note_on_c, 0, 79, 100
1, 51608, Note_off_c, 0, 79, 100
1, 51608, Note_on_c, 0, 77, 100
1, 51704, Note_off_c, 0, 77, 100
1, 51704, Note_on_c, 0, 71, 100
1, 51800, Note_off_c, 0, 71, 100
1, 51800, Note_on_c, 0, 75, 100
1, 51848, Note_off_c, 0, 75, 100
1, 51848, Note_on_c, 0, 76, 100
1, 51896, Note_off_c, 0, 76, 100
1, 51896, Note_on_c, 0, 74, 100
1, 51992, Note_off_c, 0, 74, 100
1, 51992, Note_on_c, 0, 69, 100
1, 52088, Note_off_c, 0, 69, 100
1, 52088, Note_on_c, 0, 68, 100
1, 52136, Note_off_c, 0, 68, 100
1, 52136, Note_on_c, 0, 62, 100
1, 52760, Note_off_c, 0, 62, 100
1, 52760, Note_on_c, 0, 64, 100
1, 52856, Note_off_c, 0, 64, 100
1, 52856, Note_on_c, 0, 62, 100
1, 52904, Note_off_c, 0, 62, 100
1, 52904, Note_on_c, 0, 67, 100
1, 53144, Note_off_c, 0, 67, 100
1, 53144, Note_on_c, 0, 66, 100
1, 53240, Note_off_c, 0, 66, 100
1, 53864, Note_on_c, 0, 75, 100
1, 53960, Note_off_c, 0, 75, 100
1, 53960, Note_on_c, 0, 77, 100
1, 54008, Note_off_c, 0, 77, 100
1, 54008, Note_on_c, 0, 75, 100
1, 54056, Note_off_c, 0, 75, 100
1, 54056, Note_on_c, 0, 74, 100
1, 54104, Note_off_c, 0, 74, 100
1, 54104, Note_on_c, 0, 72, 100
1, 54152, Note_off_c, 0, 72, 100
1, 54152, Note_on_c, 0, 70, 100
1, 54200, Note_off_c, 0, 70, 100
1, 54200, Note_on_c, 0, 69, 100
1, 54248, Note_off_c, 0, 69, 100
1, 54248, Note_on_c, 0, 67, 100
1, 54296, Note_off_c, 0, 67, 100
1, 54296, Note_on_c, 0, 65, 100
1, 54372, Note_off_c, 0, 65, 100
1, 54372, Note_on_c, 0, 63, 100
1, 54410, Note_off_c, 0, 63, 100
1, 54410, Note_on_c, 0, 60, 100
1, 54448, Note_off_c, 0, 60, 100
1, 54448, Note_on_c, 0, 61, 100
1, 54486, Note_off_c, 0, 61, 100
1, 54486, Note_on_c, 0, 62, 100
1, 54550, Note_off_c, 0, 62, 100
1, 54550, Note_on_c, 0, 60, 100
1, 54582, Note_off_c, 0, 60, 100
1, 54582, Note_on_c, 0, 58, 100
1, 54614, Note_off_c, 0, 58, 100
1, 54614, Note_on_c, 0, 61, 100
1, 54646, Note_off_c, 0, 61, 100
1, 54646, Note_on_c, 0, 65, 100
1, 54678, Note_off_c, 0, 65, 100
1, 54678, Note_on_c, 0, 69, 100
1, 54742, Note_off_c, 0, 69, 100
1, 54742, Note_on_c, 0, 65, 100
1, 54774, Note_off_c, 0, 65, 100
1, 54774, Note_on_c, 0, 67, 100
1, 54806, Note_off_c, 0, 67, 100
1, 54806, Note_on_c, 0, 67, 100
1, 54838, Note_off_c, 0, 67, 100
1, 54838, Note_on_c, 0, 69, 100
1, 54870, Note_off_c, 0, 69, 100
1, 54870, Note_on_c, 0, 69, 100
1, 55062, Note_off_c, 0, 69, 100
1, 55062, Note_on_c, 0, 77, 100
1, 55190, Note_off_c, 0, 77, 100
1, 55190, Note_on_c, 0, 64, 100
1, 55222, Note_off_c, 0, 64, 100
1, 55222, Note_on_c, 0, 62, 100
1, 55254, Note_off_c, 0, 62, 100
1, 55254, Note_on_c, 0, 65, 100
1, 56438, Note_off_c, 0, 65, 100
1, 56438, End_track
0, 0, End_of_file
