0, 0, Header, 1, 1, 192
1, 0, Start_track
1, 0, Title_t, "Melody"
1, 0, Tempo, 821917
1, 0, Key_signature, -1, "minor"
1, 0, Time_signature, 4, 2, 24, 8
1, 144, Note_on_c, 0, 76, 100
1, 168, Note_off_c, 0, 76, 100
1, 168, Note_on_c, 0, 77, 100
1, 192, Note_off_c, 0, 77, 100
1, 192, Note_on_c, 0, 80, 100
1, 240, Note_off_c, 0, 80, 100
1, 240, Note_on_c, 0, 79, 100
1, 288, Note_off_c, 0, 79, 100
1, 288, Note_on_c, 0, 77, 100
1, 336, Note_off_c, 0, 77, 100
1, 336, Note_on_c, 0, 75, 100
1, 384, Note_off_c, 0, 75, 100
1, 384, Note_on_c, 0, 77, 100
1, 480, Note_off_c, 0, 77, 100
1, 480, Note_on_c, 0, 68, 100
1, 576, Note_off_c, 0, 68, 100
1, 1056, Note_on_c, 0, 74, 100
1, 1104, Note_off_c, 0, 74, 100
1, 1104, Note_on_c, 0, 77, 100
1, 1152, Note_off_c, 0, 77, 100
1, 1152, Note_on_c, 0, 79, 100
1, 1248, Note_off_c, 0, 79, 100
1, 1248, Note_on_c, 0, 80, 100
1, 1464, Note_off_c, 0, 80, 100
1, 1464, Note_on_c, 0, 79, 100
1, 1488, Note_off_c, 0, 79, 100
1, 1488, Note_on_c, 0, 80, 100
1, 1512, Note_off_c, 0, 80, 100
1, 1512, Note_on_c, 0, 81, 100
1, 1536, Note_off_c, 0, 81, 100
1, 1536, Note_on_c, 0, 77, 100
1, 1574, Note_off_c, 0, 77, 100
1, 1574, Note_on_c, 0, 80, 100
1, 1612, Note_off_c, 0, 80, 100
1, 1612, Note_on_c, 0, 79, 100
1, 1650, Note_off_c, 0, 79, 100
1, 1650, Note_on_c, 0, 77, 100
1, 1688, Note_off_c, 0, 77, 100
1, 1688, Note_on_c, 0, 75, 100
1, 1726, Note_off_c, 0, 75, 100
1, 1726, Note_on_c, 0, 77, 100
1, 1822, Note_off_c, 0, 77, 100
1, 1822, Note_on_c, 0, 68, 100
1, 1918, Note_off_c, 0, 68, 100
1, 2398, Note_on_c, 0, 81, 100
1, 2446, Note_off_c, 0, 81, 100
1, 2446, Note_on_c, 0, 82, 100
1, 2494, Note_off_c, 0, 82, 100
1, 2494, Note_on_c, 0, 81, 100
1, 2542, Note_off_c, 0, 81, 100
1, 2542, Note_on_c, 0, 79, 100
1, 2590, Note_off_c, 0, 79, 100
1, 2590, Note_on_c, 0, 78, 100
1, 2638, Note_off_c, 0, 78, 100
1, 2638, Note_on_c, 0, 76, 100
1, 2703, Note_off_c, 0, 76, 100
1, 2703, Note_on_c, 0, 74, 100
1, 2720, Note_off_c, 0, 74, 100
1, 2720, Note_on_c, 0, 76, 100
1, 2737, Note_off_c, 0, 76, 100
1, 2737, Note_on_c, 0, 78, 100
1, 2754, Note_off_c, 0, 78, 100
1, 2754, Note_on_c, 0, 77, 100
1, 2771, Note_off_c, 0, 77, 100
1, 2771, Note_on_c, 0, 76, 100
1, 2788, Note_off_c, 0, 76, 100
1, 2788, Note_on_c, 0, 74, 100
1, 2805, Note_off_c, 0, 74, 100
1, 2805, Note_on_c, 0, 73, 100
1, 2857, Note_off_c, 0, 73, 100
1, 2857, Note_on_c, 0, 71, 100
1, 2874, Note_off_c, 0, 71, 100
1, 2874, Note_on_c, 0, 70, 100
1, 2938, Note_off_c, 0, 70, 100
1, 2938, Note_on_c, 0, 69, 100
1, 2970, Note_off_c, 0, 69, 100
1, 2970, Note_on_c, 0, 69, 100
1, 3002, Note_off_c, 0, 69, 100
1, 3002, Note_on_c, 0, 80, 100
1, 3034, Note_off_c, 0, 80, 100
1, 3034, Note_on_c, 0, 81, 100
1, 3066, Note_off_c, 0, 81, 100
1, 3066, Note_on_c, 0, 80, 100
1, 3090, Note_off_c, 0, 80, 100
1, 3090, Note_on_c, 0, 77, 100
1, 3138, Note_off_c, 0, 77, 100
1, 3138, Note_on_c, 0, 80, 100
1, 3210, Note_off_c, 0, 80, 100
1, 3210, Note_on_c, 0, 68, 100
1, 3306, Note_off_c, 0, 68, 100
1, 3851, Note_on_c, 0, 62, 100
1, 3868, Note_off_c, 0, 62, 100
1, 3868, Note_on_c, 0, 63, 100
1, 3885, Note_off_c, 0, 63, 100
1, 3885, Note_on_c, 0, 65, 100
1, 3902, Note_off_c, 0, 65, 100
1, 3902, Note_on_c, 0, 68, 100
1, 3919, Note_off_c, 0, 68, 100
1, 3919, Note_on_c, 0, 67, 100
1, 3936, Note_off_c, 0, 67, 100
1, 3936, Note_on_c, 0, 65, 100
1, 3953, Note_off_c, 0, 65, 100
1, 3953, Note_on_c, 0, 68, 100
1, 3987, Note_off_c, 0, 68, 100
1, 3987, Note_on_c, 0, 65, 100
1, 4056, Note_off_c, 0, 65, 100
1, 4056, Note_on_c, 0, 67, 100
1, 4073, Note_off_c, 0, 67, 100
1, 4073, Note_on_c, 0, 68, 100
1, 4090, Note_off_c, 0, 68, 100
1, 4090, Note_on_c, 0, 71, 100
1, 4107, Note_off_c, 0, 71, 100
1, 4107, Note_on_c, 0, 70, 100
1, 4124, Note_off_c, 0, 70, 100
1, 4124, Note_on_c, 0, 68, 100
1, 4141, Note_off_c, 0, 68, 100
1, 4141, Note_on_c, 0, 71, 100
1, 4193, Note_off_c, 0, 71, 100
1, 4193, Note_on_c, 0, 61, 100
1, 4224, Note_off_c, 0, 61, 100
1, 4224, Note_on_c, 0, 63, 100
1, 4237, Note_off_c, 0, 63, 100
1, 4237, Note_on_c, 0, 65, 100
1, 4250, Note_off_c, 0, 65, 100
1, 4250, Note_on_c, 0, 67, 100
1, 4263, Note_off_c, 0, 67, 100
1, 4263, Note_on_c, 0, 68, 100
1, 4276, Note_off_c, 0, 68, 100
1, 4276, Note_on_c, 0, 72, 100
1, 4289, Note_off_c, 0, 72, 100
1, 4289, Note_on_c, 0, 71, 100
1, 4302, Note_off_c, 0, 71, 100
1, 4302, Note_on_c, 0, 73, 100
1, 4315, Note_off_c, 0, 73, 100
1, 4315, Note_on_c, 0, 74, 100
1, 4328, Note_off_c, 0, 74, 100
1, 4328, Note_on_c, 0, 76, 100
1, 4341, Note_off_c, 0, 76, 100
1, 4341, Note_on_c, 0, 77, 100
1, 4354, Note_off_c, 0, 77, 100
1, 4354, Note_on_c, 0, 79, 100
1, 4381, Note_off_c, 0, 79, 100
1, 4381, Note_on_c, 0, 80, 100
1, 4477, Note_off_c, 0, 80, 100
1, 4794, Note_on_c, 0, 80, 100
1, 4842, Note_off_c, 0, 80, 100
1, 4842, Note_on_c, 0, 84, 100
1, 4858, Note_off_c, 0, 84, 100
1, 4858, Note_on_c, 0, 85, 100
1, 4874, Note_off_c, 0, 85, 100
1, 4874, Note_on_c, 0, 83, 100
1, 4890, Note_off_c, 0, 83, 100
1, 4890, Note_on_c, 0, 81, 100
1, 4906, Note_off_c, 0, 81, 100
1, 4906, Note_on_c, 0, 78, 100
1, 4922, Note_off_c, 0, 78, 100
1, 4922, Note_on_c, 0, 77, 100
1, 4954, Note_off_c, 0, 77, 100
1, 4954, Note_on_c, 0, 77, 100
1, 4987, Note_off_c, 0, 77, 100
1, 4987, Note_on_c, 0, 76, 100
1, 5039, Note_off_c, 0, 76, 100
1, 5039, Note_on_c, 0, 74, 100
1, 5091, Note_off_c, 0, 74, 100
1, 5091, Note_on_c, 0, 72, 100
1, 5108, Note_off_c, 0, 72, 100
1, 5108, Note_on_c, 0, 74, 100
1, 5125, Note_off_c, 0, 74, 100
1, 5125, Note_on_c, 0, 72, 100
1, 5142, Note_off_c, 0, 72, 100
1, 5142, Note_on_c, 0, 71, 100
1, 5191, Note_off_c, 0, 71, 100
1, 5191, Note_on_c, 0, 70, 100
1, 5223, Note_off_c, 0, 70, 100
1, 5223, Note_on_c, 0, 69, 100
1, 5287, Note_off_c, 0, 69, 100
1, 5287, Note_on_c, 0, 67, 100
1, 5319, Note_off_c, 0, 67, 100
1, 5319, Note_on_c, 0, 65, 100
1, 5375, Note_off_c, 0, 65, 100
1, 5375, Note_on_c, 0, 64, 100
1, 5447, Note_off_c, 0, 64, 100
1, 5447, Note_on_c, 0, 61, 100
1, 5471, Note_off_c, 0, 61, 100
1, 5471, Note_on_c, 0, 62, 100
1, 5495, Note_off_c, 0, 62, 100
1, 5495, Note_on_c, 0, 64, 100
1, 5519, Note_off_c, 0, 64, 100
1, 5519, Note_on_c, 0, 67, 100
1, 5543, Note_off_c, 0, 67, 100
1, 5543, Note_on_c, 0, 64, 100
1, 5607, Note_off_c, 0, 64, 100
1, 5607, Note_on_c, 0, 65, 100
1, 5671, Note_off_c, 0, 65, 100
1, 5671, Note_on_c, 0, 69, 100
1, 5735, Note_off_c, 0, 69, 100
1, 5735, Note_on_c, 0, 72, 100
1, 5783, Note_off_c, 0, 72, 100
1, 5783, Note_on_c, 0, 73, 100
1, 5831, Note_off_c, 0, 73, 100
1, 5831, Note_on_c, 0, 75, 100
1, 5879, Note_off_c, 0, 75, 100
1, 5879, Note_on_c, 0, 77, 100
1, 5927, Note_off_c, 0, 77, 100
1, 5927, Note_on_c, 0, 78, 100
1, 5975, Note_off_c, 0, 78, 100
1, 5975, Note_on_c, 0, 80, 100
1, 6023, Note_off_c, 0, 80, 100
1, 6023, Note_on_c, 0, 82, 100
1, 6071, Note_off_c, 0, 82, 100
1, 6071, Note_on_c, 0, 81, 100
1, 6119, Note_off_c, 0, 81, 100
1, 6119, Note_on_c, 0, 84, 100
1, 6215, Note_off_c, 0, 84, 100
1, 6215, Note_on_c, 0, 82, 100
1, 6263, Note_off_c, 0, 82, 100
1, 6263, Note_on_c, 0, 74, 100
1, 6311, Note_off_c, 0, 74, 100
1, 6311, Note_on_c, 0, 77, 100
1, 6349, Note_off_c, 0, 77, 100
1, 6349, Note_on_c, 0, 81, 100
1, 6387, Note_off_c, 0, 81, 100
1, 6387, Note_on_c, 0, 79, 100
1, 6425, Note_off_c, 0, 79, 100
1, 6425, Note_on_c, 0, 77, 100
1, 6463, Note_off_c, 0, 77, 100
1, 6463, Note_on_c, 0, 76, 100
1, 6501, Note_off_c, 0, 76, 100
1, 6501, Note_on_c, 0, 74, 100
1, 6565, Note_off_c, 0, 74, 100
1, 6565, Note_on_c, 0, 73, 100
1, 6629, Note_off_c, 0, 73, 100
1, 6629, Note_on_c, 0, 72, 100
1, 6693, Note_off_c, 0, 72, 100
1, 6693, Note_on_c, 0, 70, 100
1, 6731, Note_off_c, 0, 70, 100
1, 6731, Note_on_c, 0, 69, 100
1, 6807, Note_off_c, 0, 69, 100
1, 6807, Note_on_c, 0, 67, 100
1, 6845, Note_off_c, 0, 67, 100
1, 6845, Note_on_c, 0, 75, 100
1, 6979, Note_off_c, 0, 75, 100
1, 6979, Note_on_c, 0, 75, 100
1, 7027, Note_off_c, 0, 75, 100
1, 7027, Note_on_c, 0, 73, 100
1, 7075, Note_off_c, 0, 73, 100
1, 7075, Note_on_c, 0, 78, 100
1, 7151, Note_off_c, 0, 78, 100
1, 7151, Note_on_c, 0, 79, 100
1, 7189, Note_off_c, 0, 79, 100
1, 7189, Note_on_c, 0, 78, 100
1, 7227, Note_off_c, 0, 78, 100
1, 7227, Note_on_c, 0, 79, 100
1, 7339, Note_off_c, 0, 79, 100
1, 7339, Note_on_c, 0, 75, 100
1, 7412, Note_off_c, 0, 75, 100
1, 7412, Note_on_c, 0, 73, 100
1, 7426, Note_off_c, 0, 73, 100
1, 7426, Note_on_c, 0, 68, 100
1, 7440, Note_off_c, 0, 68, 100
1, 7440, Note_on_c, 0, 66, 100
1, 7710, Note_off_c, 0, 66, 100
1, 7710, Note_on_c, 0, 75, 100
1, 7774, Note_off_c, 0, 75, 100
1, 7774, Note_on_c, 0, 73, 100
1, 7838, Note_off_c, 0, 73, 100
1, 7838, Note_on_c, 0, 66, 100
1, 8030, Note_off_c, 0, 66, 100
1, 8030, Note_on_c, 0, 75, 100
1, 8126, Note_off_c, 0, 75, 100
1, 8126, Note_on_c, 0, 73, 100
1, 8222, Note_off_c, 0, 73, 100
1, 8222, Note_on_c, 0, 66, 100
1, 8318, Note_off_c, 0, 66, 100
1, 8318, Note_on_c, 0, 66, 100
1, 8366, Note_off_c, 0, 66, 100
1, 8366, Note_on_c, 0, 66, 100
1, 8414, Note_off_c, 0, 66, 100
1, 8414, Note_on_c, 0, 75, 100
1, 8462, Note_off_c, 0, 75, 100
1, 8462, Note_on_c, 0, 75, 100
1, 8510, Note_off_c, 0, 75, 100
1, 8510, Note_on_c, 0, 73, 100
1, 8558, Note_off_c, 0, 73, 100
1, 8558, Note_on_c, 0, 73, 100
1, 8606, Note_off_c, 0, 73, 100
1, 8606, Note_on_c, 0, 66, 100
1, 8702, Note_off_c, 0, 66, 100
1, 8702, Note_on_c, 0, 66, 100
1, 8798, Note_off_c, 0, 66, 100
1, 9278, Note_on_c, 0, 77, 100
1, 9374, Note_off_c, 0, 77, 100
1, 9374, Note_on_c, 0, 75, 100
1, 9422, Note_off_c, 0, 75, 100
1, 9422, Note_on_c, 0, 80, 100
1, 9446, Note_off_c, 0, 80, 100
1, 9446, Note_on_c, 0, 75, 100
1, 9470, Note_off_c, 0, 75, 100
1, 9470, Note_on_c, 0, 71, 100
1, 9518, Note_off_c, 0, 71, 100
1, 9518, Note_on_c, 0, 70, 100
1, 9542, Note_off_c, 0, 70, 100
1, 9542, Note_on_c, 0, 68, 100
1, 9566, Note_off_c, 0, 68, 100
1, 9566, Note_on_c, 0, 70, 100
1, 9630, Note_off_c, 0, 70, 100
1, 9630, Note_on_c, 0, 70, 100
1, 9694, Note_off_c, 0, 70, 100
1, 9694, Note_on_c, 0, 68, 100
1, 9758, Note_off_c, 0, 68, 100
1, 9758, Note_on_c, 0, 68, 100
1, 9806, Note_off_c, 0, 68, 100
1, 9806, Note_on_c, 0, 70, 100
1, 9854, Note_off_c, 0, 70, 100
1, 9854, Note_on_c, 0, 70, 100
1, 9902, Note_off_c, 0, 70, 100
1, 9902, Note_on_c, 0, 68, 100
1, 9950, Note_off_c, 0, 68, 100
1, 9950, Note_on_c, 0, 68, 100
1, 9992, Note_off_c, 0, 68, 100
1, 9992, Note_on_c, 0, 70, 100
1, 10034, Note_off_c, 0, 70, 100
1, 10034, Note_on_c, 0, 70, 100
1, 10055, Note_off_c, 0, 70, 100
1, 10055, Note_on_c, 0, 68, 100
1, 10076, Note_off_c, 0, 68, 100
1, 10076, Note_on_c, 0, 67, 100
1, 10097, Note_off_c, 0, 67, 100
1, 10097, Note_on_c, 0, 68, 100
1, 10118, Note_off_c, 0, 68, 100
1, 10118, Note_on_c, 0, 68, 100
1, 10139, Note_off_c, 0, 68, 100
1, 10139, Note_on_c, 0, 67, 100
1, 10187, Note_off_c, 0, 67, 100
1, 10187, Note_on_c, 0, 65, 100
1, 10235, Note_off_c, 0, 65, 100
1, 10235, Note_on_c, 0, 65, 100
1, 10331, Note_off_c, 0, 65, 100
1, 10587, Note_on_c, 0, 68, 100
1, 10619, Note_off_c, 0, 68, 100
1, 10619, Note_on_c, 0, 69, 100
1, 10651, Note_off_c, 0, 69, 100
1, 10651, Note_on_c, 0, 72, 100
1, 10683, Note_off_c, 0, 72, 100
1, 10683, Note_on_c, 0, 74, 100
1, 10739, Note_off_c, 0, 74, 100
1, 10739, Note_on_c, 0, 89, 100
1, 10811, Note_off_c, 0, 89, 100
1, 10811, Note_on_c, 0, 74, 100
1, 10835, Note_off_c, 0, 74, 100
1, 10835, Note_on_c, 0, 75, 100
1, 10859, Note_off_c, 0, 75, 100
1, 10859, Note_on_c, 0, 74, 100
1, 10883, Note_off_c, 0, 74, 100
1, 10883, Note_on_c, 0, 75, 100
1, 10945, Note_off_c, 0, 75, 100
1, 10945, Note_on_c, 0, 74, 100
1, 10983, Note_off_c, 0, 74, 100
1, 10983, Note_on_c, 0, 75, 100
1, 11021, Note_off_c, 0, 75, 100
1, 11021, Note_on_c, 0, 74, 100
1, 11059, Note_off_c, 0, 74, 100
1, 11059, Note_on_c, 0, 71, 100
1, 11097, Note_off_c, 0, 71, 100
1, 11097, Note_on_c, 0, 70, 100
1, 11182, Note_off_c, 0, 70, 100
1, 11182, Note_on_c, 0, 69, 100
1, 11203, Note_off_c, 0, 69, 100
1, 11203, Note_on_c, 0, 70, 100
1, 11224, Note_off_c, 0, 70, 100
1, 11224, Note_on_c, 0, 68, 100
1, 11245, Note_off_c, 0, 68, 100
1, 11245, Note_on_c, 0, 69, 100
1, 11266, Note_off_c, 0, 69, 100
1, 11266, Note_on_c, 0, 68, 100
1, 11287, Note_off_c, 0, 68, 100
1, 11287, Note_on_c, 0, 65, 100
1, 11335, Note_off_c, 0, 65, 100
1, 11335, Note_on_c, 0, 70, 100
1, 11359, Note_off_c, 0, 70, 100
1, 11359, Note_on_c, 0, 69, 100
1, 11383, Note_off_c, 0, 69, 100
1, 11383, Note_on_c, 0, 70, 100
1, 11407, Note_off_c, 0, 70, 100
1, 11407, Note_on_c, 0, 68, 100
1, 11431, Note_off_c, 0, 68, 100
1, 11431, Note_on_c, 0, 65, 100
1, 11479, Note_off_c, 0, 65, 100
1, 11479, Note_on_c, 0, 63, 100
1, 11503, Note_off_c, 0, 63, 100
1, 11503, Note_on_c, 0, 65, 100
1, 11575, Note_off_c, 0, 65, 100
1, 11575, Note_on_c, 0, 65, 100
1, 11623, Note_off_c, 0, 65, 100
1, 11623, Note_on_c, 0, 65, 100
1, 11647, Note_off_c, 0, 65, 100
1, 11647, Note_on_c, 0, 64, 100
1, 11743, Note_off_c, 0, 64, 100
1, 12319, Note_on_c, 0, 65, 100
1, 12343, Note_off_c, 0, 65, 100
1, 12343, Note_on_c, 0, 63, 100
1, 12367, Note_off_c, 0, 63, 100
1, 12367, Note_on_c, 0, 65, 100
1, 12391, Note_off_c, 0, 65, 100
1, 12391, Note_on_c, 0, 63, 100
1, 12415, Note_off_c, 0, 63, 100
1, 12415, Note_on_c, 0, 61, 100
1, 12439, Note_off_c, 0, 61, 100
1, 12439, Note_on_c, 0, 62, 100
1, 12487, Note_off_c, 0, 62, 100
1, 12487, Note_on_c, 0, 60, 100
1, 12535, Note_off_c, 0, 60, 100
1, 12535, Note_on_c, 0, 58, 100
1, 12583, Note_off_c, 0, 58, 100
1, 12583, Note_on_c, 0, 57, 100
1, 12631, Note_off_c, 0, 57, 100
1, 12631, Note_on_c, 0, 56, 100
1, 12679, Note_off_c, 0, 56, 100
1, 12679, Note_on_c, 0, 58, 100
1, 12727, Note_off_c, 0, 58, 100
1, 12727, Note_on_c, 0, 60, 100
1, 12775, Note_off_c, 0, 60, 100
1, 12775, Note_on_c, 0, 63, 100
1, 12823, Note_off_c, 0, 63, 100
1, 12823, Note_on_c, 0, 67, 100
1, 12919, Note_off_c, 0, 67, 100
1, 12919, Note_on_c, 0, 67, 100
1, 13015, Note_off_c, 0, 67, 100
1, 13015, Note_on_c, 0, 67, 100
1, 13249, Note_off_c, 0, 67, 100
1, 13249, Note_on_c, 0, 66, 100
1, 13270, Note_off_c, 0, 66, 100
1, 13270, Note_on_c, 0, 67, 100
1, 13291, Note_off_c, 0, 67, 100
1, 13291, Note_on_c, 0, 63, 100
1, 13333, Note_off_c, 0, 63, 100
1, 13333, Note_on_c, 0, 67, 100
1, 13375, Note_off_c, 0, 67, 100
1, 13375, Note_on_c, 0, 63, 100
1, 13396, Note_off_c, 0, 63, 100
1, 13396, Note_on_c, 0, 67, 100
1, 13492, Note_off_c, 0, 67, 100
1, 14111, Note_on_c, 0, 69, 100
1, 14128, Note_off_c, 0, 69, 100
1, 14128, Note_on_c, 0, 71, 100
1, 14145, Note_off_c, 0, 71, 100
1, 14145, Note_on_c, 0, 72, 100
1, 14162, Note_off_c, 0, 72, 100
1, 14162, Note_on_c, 0, 74, 100
1, 14186, Note_off_c, 0, 74, 100
1, 14186, Note_on_c, 0, 76, 100
1, 14282, Note_off_c, 0, 76, 100
1, 14282, Note_on_c, 0, 72, 100
1, 14306, Note_off_c, 0, 72, 100
1, 14306, Note_on_c, 0, 71, 100
1, 14354, Note_off_c, 0, 71, 100
1, 14354, Note_on_c, 0, 73, 100
1, 14450, Note_off_c, 0, 73, 100
1, 14450, Note_on_c, 0, 72, 100
1, 14498, Note_off_c, 0, 72, 100
1, 14498, Note_on_c, 0, 71, 100
1, 14594, Note_off_c, 0, 71, 100
1, 14978, Note_on_c, 0, 73, 100
1, 15026, Note_off_c, 0, 73, 100
1, 15026, Note_on_c, 0, 72, 100
1, 15074, Note_off_c, 0, 72, 100
1, 15074, Note_on_c, 0, 71, 100
1, 15122, Note_off_c, 0, 71, 100
1, 15122, Note_on_c, 0, 70, 100
1, 15170, Note_off_c, 0, 70, 100
1, 15170, Note_on_c, 0, 68, 100
1, 15194, Note_off_c, 0, 68, 100
1, 15194, Note_on_c, 0, 70, 100
1, 15218, Note_off_c, 0, 70, 100
1, 15218, Note_on_c, 0, 68, 100
1, 15242, Note_off_c, 0, 68, 100
1, 15242, Note_on_c, 0, 66, 100
1, 15266, Note_off_c, 0, 66, 100
1, 15266, Note_on_c, 0, 63, 100
1, 15314, Note_off_c, 0, 63, 100
1, 15314, Note_on_c, 0, 59, 100
1, 15362, Note_off_c, 0, 59, 100
1, 15362, Note_on_c, 0, 57, 100
1, 15506, Note_off_c, 0, 57, 100
1, 15506, Note_on_c, 0, 55, 100
1, 15554, Note_off_c, 0, 55, 100
1, 15554, Note_on_c, 0, 60, 100
1, 15602, Note_off_c, 0, 60, 100
1, 15602, Note_on_c, 0, 58, 100
1, 15650, Note_off_c, 0, 58, 100
1, 15650, Note_on_c, 0, 62, 100
1, 15698, Note_off_c, 0, 62, 100
1, 15698, Note_on_c, 0, 60, 100
1, 15719, Note_off_c, 0, 60, 100
1, 15719, Note_on_c, 0, 64, 100
1, 15761, Note_off_c, 0, 64, 100
1, 15761, Note_on_c, 0, 62, 100
1, 15782, Note_off_c, 0, 62, 100
1, 15782, Note_on_c, 0, 65, 100
1, 15803, Note_off_c, 0, 65, 100
1, 15803, Note_on_c, 0, 64, 100
1, 15824, Note_off_c, 0, 64, 100
1, 15824, Note_on_c, 0, 67, 100
1, 15845, Note_off_c, 0, 67, 100
1, 15845, Note_on_c, 0, 65, 100
1, 15866, Note_off_c, 0, 65, 100
1, 15866, Note_on_c, 0, 69, 100
1, 15887, Note_off_c, 0, 69, 100
1, 15887, Note_on_c, 0, 67, 100
1, 15935, Note_off_c, 0, 67, 100
1, 15935, Note_on_c, 0, 70, 100
1, 15983, Note_off_c, 0, 70, 100
1, 15983, Note_on_c, 0, 69, 100
1, 16031, Note_off_c, 0, 69, 100
1, 16031, Note_on_c, 0, 72, 100
1, 16127, Note_off_c, 0, 72, 100
1, 16295, Note_on_c, 0, 61, 100
1, 16319, Note_off_c, 0, 61, 100
1, 16319, Note_on_c, 0, 63, 100
1, 16343, Note_off_c, 0, 63, 100
1, 16343, Note_on_c, 0, 64, 100
1, 16367, Note_off_c, 0, 64, 100
1, 16367, Note_on_c, 0, 67, 100
1, 16391, Note_off_c, 0, 67, 100
1, 16391, Note_on_c, 0, 68, 100
1, 16415, Note_off_c, 0, 68, 100
1, 16415, Note_on_c, 0, 71, 100
1, 16439, Note_off_c, 0, 71, 100
1, 16439, Note_on_c, 0, 75, 100
1, 16511, Note_off_c, 0, 75, 100
1, 16511, Note_on_c, 0, 73, 100
1, 16535, Note_off_c, 0, 73, 100
1, 16535, Note_on_c, 0, 71, 100
1, 16559, Note_off_c, 0, 71, 100
1, 16559, Note_on_c, 0, 70, 100
1, 16583, Note_off_c, 0, 70, 100
1, 16583, Note_on_c, 0, 68, 100
1, 16607, Note_off_c, 0, 68, 100
1, 16607, Note_on_c, 0, 66, 100
1, 16631, Note_off_c, 0, 66, 100
1, 16631, Note_on_c, 0, 65, 100
1, 16655, Note_off_c, 0, 65, 100
1, 16655, Note_on_c, 0, 64, 100
1, 16751, Note_off_c, 0, 64, 100
1, 17077, Note_on_c, 0, 71, 100
1, 17115, Note_off_c, 0, 71, 100
1, 17115, Note_on_c, 0, 73, 100
1, 17153, Note_off_c, 0, 73, 100
1, 17153, Note_on_c, 0, 75, 100
1, 17191, Note_off_c, 0, 75, 100
1, 17191, Note_on_c, 0, 78, 100
1, 17336, Note_off_c, 0, 78, 100
1, 17336, Note_on_c, 0, 75, 100
1, 17357, Note_off_c, 0, 75, 100
1, 17357, Note_on_c, 0, 77, 100
1, 17378, Note_off_c, 0, 77, 100
1, 17378, Note_on_c, 0, 75, 100
1, 17399, Note_off_c, 0, 75, 100
1, 17399, Note_on_c, 0, 73, 100
1, 17420, Note_off_c, 0, 73, 100
1, 17420, Note_on_c, 0, 71, 100
1, 17468, Note_off_c, 0, 71, 100
1, 17468, Note_on_c, 0, 66, 100
1, 17564, Note_off_c, 0, 66, 100
1, 17564, Note_on_c, 0, 66, 100
1, 17612, Note_off_c, 0, 66, 100
1, 17612, Note_on_c, 0, 75, 100
1, 17708, Note_off_c, 0, 75, 100
1, 17708, Note_on_c, 0, 73, 100
1, 17756, Note_off_c, 0, 73, 100
1, 17756, Note_on_c, 0, 71, 100
1, 17804, Note_off_c, 0, 71, 100
1, 17804, Note_on_c, 0, 66, 100
1, 17996, Note_off_c, 0, 66, 100
1, 17996, Note_on_c, 0, 75, 100
1, 18034, Note_off_c, 0, 75, 100
1, 18034, Note_on_c, 0, 77, 100
1, 18072, Note_off_c, 0, 77, 100
1, 18072, Note_on_c, 0, 76, 100
1, 18110, Note_off_c, 0, 76, 100
1, 18110, Note_on_c, 0, 73, 100
1, 18148, Note_off_c, 0, 73, 100
1, 18148, Note_on_c, 0, 73, 100
1, 18186, Note_off_c, 0, 73, 100
1, 18186, Note_on_c, 0, 71, 100
1, 18250, Note_off_c, 0, 71, 100
1, 18250, Note_on_c, 0, 71, 100
1, 18314, Note_off_c, 0, 71, 100
1, 18314, Note_on_c, 0, 66, 100
1, 18410, Note_off_c, 0, 66, 100
1, 18714, Note_on_c, 0, 77, 100
1, 18762, Note_off_c, 0, 77, 100
1, 18762, Note_on_c, 0, 80, 100
1, 18810, Note_off_c, 0, 80, 100
1, 18810, Note_on_c, 0, 81, 100
1, 18858, Note_off_c, 0, 81, 100
1, 18858, Note_on_c, 0, 82, 100
1, 18906, Note_off_c, 0, 82, 100
1, 18906, Note_on_c, 0, 83, 100
1, 18986, Note_off_c, 0, 83, 100
1, 18986, Note_on_c, 0, 84, 100
1, 19050, Note_off_c, 0, 84, 100
1, 19050, Note_on_c, 0, 80, 100
1, 19082, Note_off_c, 0, 80, 100
1, 19082, Note_on_c, 0, 79, 100
1, 19114, Note_off_c, 0, 79, 100
1, 19114, Note_on_c, 0, 81, 100
1, 19146, Note_off_c, 0, 81, 100
1, 19146, Note_on_c, 0, 77, 100
1, 19194, Note_off_c, 0, 77, 100
1, 19194, Note_on_c, 0, 78, 100
1, 19242, Note_off_c, 0, 78, 100
1, 19242, Note_on_c, 0, 77, 100
1, 19402, Note_off_c, 0, 77, 100
1, 19402, Note_on_c, 0, 77, 100
1, 19434, Note_off_c, 0, 77, 100
1, 19434, Note_on_c, 0, 82, 100
1, 19466, Note_off_c, 0, 82, 100
1, 19466, Note_on_c, 0, 82, 100
1, 19498, Note_off_c, 0, 82, 100
1, 19498, Note_on_c, 0, 83, 100
1, 19530, Note_off_c, 0, 83, 100
1, 19530, Note_on_c, 0, 82, 100
1, 19562, Note_off_c, 0, 82, 100
1, 19562, Note_on_c, 0, 80, 100
1, 19594, Note_off_c, 0, 80, 100
1, 19594, Note_on_c, 0, 77, 100
1, 19626, Note_off_c, 0, 77, 100
1, 19626, Note_on_c, 0, 75, 100
1, 19658, Note_off_c, 0, 75, 100
1, 19658, Note_on_c, 0, 72, 100
1, 19690, Note_off_c, 0, 72, 100
1, 19690, Note_on_c, 0, 71, 100
1, 19722, Note_off_c, 0, 71, 100
1, 19722, Note_on_c, 0, 70, 100
1, 19754, Note_off_c, 0, 70, 100
1, 19754, Note_on_c, 0, 68, 100
1, 19786, Note_off_c, 0, 68, 100
1, 19786, Note_on_c, 0, 65, 100
1, 19818, Note_off_c, 0, 65, 100
1, 19818, Note_on_c, 0, 63, 100
1, 19850, Note_off_c, 0, 63, 100
1, 19850, Note_on_c, 0, 61, 100
1, 19882, Note_off_c, 0, 61, 100
1, 19882, Note_on_c, 0, 60, 100
1, 19914, Note_off_c, 0, 60, 100
1, 19914, Note_on_c, 0, 58, 100
1, 19946, Note_off_c, 0, 58, 100
1, 19946, Note_on_c, 0, 56, 100
1, 19978, Note_off_c, 0, 56, 100
1, 19978, Note_on_c, 0, 53, 100
1, 20010, Note_off_c, 0, 53, 100
1, 20010, Note_on_c, 0, 56, 100
1, 20042, Note_off_c, 0, 56, 100
1, 20042, Note_on_c, 0, 53, 100
1, 20074, Note_off_c, 0, 53, 100
1, 20074, Note_on_c, 0, 56, 100
1, 20130, Note_off_c, 0, 56, 100
1, 20130, Note_on_c, 0, 53, 100
1, 20154, Note_off_c, 0, 53, 100
1, 20154, Note_on_c, 0, 56, 100
1, 20202, Note_off_c, 0, 56, 100
1, 20202, Note_on_c, 0, 53, 100
1, 20226, Note_off_c, 0, 53, 100
1, 20226, Note_on_c, 0, 56, 100
1, 20250, Note_off_c, 0, 56, 100
1, 20250, Note_on_c, 0, 53, 100
1, 20274, Note_off_c, 0, 53, 100
1, 20274, Note_on_c, 0, 56, 100
1, 20319, Note_off_c, 0, 56, 100
1, 20319, Note_on_c, 0, 53, 100
1, 20340, Note_off_c, 0, 53, 100
1, 20340, Note_on_c, 0, 56, 100
1, 20382, Note_off_c, 0, 56, 100
1, 20382, Note_on_c, 0, 53, 100
1, 20403, Note_off_c, 0, 53, 100
1, 20403, Note_on_c, 0, 56, 100
1, 20445, Note_off_c, 0, 56, 100
1, 20445, Note_on_c, 0, 53, 100
1, 20466, Note_off_c, 0, 53, 100
1, 20466, Note_on_c, 0, 56, 100
1, 20525, Note_off_c, 0, 56, 100
1, 20525, Note_on_c, 0, 53, 100
1, 20544, Note_off_c, 0, 53, 100
1, 20544, Note_on_c, 0, 56, 100
1, 20582, Note_off_c, 0, 56, 100
1, 20582, Note_on_c, 0, 53, 100
1, 20601, Note_off_c, 0, 53, 100
1, 20601, Note_on_c, 0, 56, 100
1, 20639, Note_off_c, 0, 56, 100
1, 20639, Note_on_c, 0, 53, 100
1, 20658, Note_off_c, 0, 53, 100
1, 20658, Note_on_c, 0, 56, 100
1, 20677, Note_off_c, 0, 56, 100
1, 20677, Note_on_c, 0, 53, 100
1, 20773, Note_off_c, 0, 53, 100
1, 21013, Note_on_c, 0, 75, 100
1, 21061, Note_off_c, 0, 75, 100
1, 21061, Note_on_c, 0, 74, 100
1, 21085, Note_off_c, 0, 74, 100
1, 21085, Note_on_c, 0, 71, 100
1, 21109, Note_off_c, 0, 71, 100
1, 21109, Note_on_c, 0, 73, 100
1, 21133, Note_off_c, 0, 73, 100
1, 21133, Note_on_c, 0, 69, 100
1, 21157, Note_off_c, 0, 69, 100
1, 21157, Note_on_c, 0, 66, 100
1, 21181, Note_off_c, 0, 66, 100
1, 21181, Note_on_c, 0, 64, 100
1, 21205, Note_off_c, 0, 64, 100
1, 21205, Note_on_c, 0, 63, 100
1, 21229, Note_off_c, 0, 63, 100
1, 21229, Note_on_c, 0, 60, 100
1, 21253, Note_off_c, 0, 60, 100
1, 21253, Note_on_c, 0, 61, 100
1, 21291, Note_off_c, 0, 61, 100
1, 21291, Note_on_c, 0, 57, 100
1, 21329, Note_off_c, 0, 57, 100
1, 21329, Note_on_c, 0, 56, 100
1, 21367, Note_off_c, 0, 56, 100
1, 21367, Note_on_c, 0, 54, 100
1, 21405, Note_off_c, 0, 54, 100
1, 21405, Note_on_c, 0, 59, 100
1, 21501, Note_off_c, 0, 59, 100
1, 21659, Note_on_c, 0, 65, 100
1, 21707, Note_off_c, 0, 65, 100
1, 21707, Note_on_c, 0, 63, 100
1, 21731, Note_off_c, 0, 63, 100
1, 21731, Note_on_c, 0, 62, 100
1, 21755, Note_off_c, 0, 62, 100
1, 21755, Note_on_c, 0, 63, 100
1, 21779, Note_off_c, 0, 63, 100
1, 21779, Note_on_c, 0, 62, 100
1, 21803, Note_off_c, 0, 62, 100
1, 21803, Note_on_c, 0, 60, 100
1, 21827, Note_off_c, 0, 60, 100
1, 21827, Note_on_c, 0, 58, 100
1, 21875, Note_off_c, 0, 58, 100
1, 21875, Note_on_c, 0, 57, 100
1, 21923, Note_off_c, 0, 57, 100
1, 21923, Note_on_c, 0, 56, 100
1, 21971, Note_off_c, 0, 56, 100
1, 21971, Note_on_c, 0, 55, 100
1, 22019, Note_off_c, 0, 55, 100
1, 22019, Note_on_c, 0, 53, 100
1, 22067, Note_off_c, 0, 53, 100
1, 22067, Note_on_c, 0, 55, 100
1, 22115, Note_off_c, 0, 55, 100
1, 22115, Note_on_c, 0, 56, 100
1, 22163, Note_off_c, 0, 56, 100
1, 22163, Note_on_c, 0, 59, 100
1, 22228, Note_off_c, 0, 59, 100
1, 22228, Note_on_c, 0, 60, 100
1, 22280, Note_off_c, 0, 60, 100
1, 22280, Note_on_c, 0, 65, 100
1, 22367, Note_off_c, 0, 65, 100
1, 22367, Note_on_c, 0, 64, 100
1, 22384, Note_off_c, 0, 64, 100
1, 22384, Note_on_c, 0, 65, 100
1, 22480, Note_off_c, 0, 65, 100
1, 22593, Note_on_c, 0, 65, 100
1, 22617, Note_off_c, 0, 65, 100
1, 22617, Note_on_c, 0, 68, 100
1, 22665, Note_off_c, 0, 68, 100
1, 22665, Note_on_c, 0, 65, 100
1, 22689, Note_off_c, 0, 65, 100
1, 22689, Note_on_c, 0, 67, 100
1, 22713, Note_off_c, 0, 67, 100
1, 22713, Note_on_c, 0, 65, 100
1, 22761, Note_off_c, 0, 65, 100
1, 22761, Note_on_c, 0, 62, 100
1, 22806, Note_off_c, 0, 62, 100
1, 22806, Note_on_c, 0, 68, 100
1, 22827, Note_off_c, 0, 68, 100
1, 22827, Note_on_c, 0, 65, 100
1, 22848, Note_off_c, 0, 65, 100
1, 22848, Note_on_c, 0, 67, 100
1, 22890, Note_off_c, 0, 67, 100
1, 22890, Note_on_c, 0, 65, 100
1, 22932, Note_off_c, 0, 65, 100
1, 22932, Note_on_c, 0, 64, 100
1, 22953, Note_off_c, 0, 64, 100
1, 22953, Note_on_c, 0, 65, 100
1, 22974, Note_off_c, 0, 65, 100
1, 22974, Note_on_c, 0, 62, 100
1, 23070, Note_off_c, 0, 62, 100
1, 23239, Note_on_c, 0, 62, 100
1, 23268, Note_off_c, 0, 62, 100
1, 23268, Note_on_c, 0, 66, 100
1, 23282, Note_off_c, 0, 66, 100
1, 23282, Note_on_c, 0, 67, 100
1, 23296, Note_off_c, 0, 67, 100
1, 23296, Note_on_c, 0, 69, 100
1, 23310, Note_off_c, 0, 69, 100
1, 23310, Note_on_c, 0, 71, 100
1, 23324, Note_off_c, 0, 71, 100
1, 23324, Note_on_c, 0, 72, 100
1, 23338, Note_off_c, 0, 72, 100
1, 23338, Note_on_c, 0, 74, 100
1, 23352, Note_off_c, 0, 74, 100
1, 23352, Note_on_c, 0, 73, 100
1, 23432, Note_off_c, 0, 73, 100
1, 23432, Note_on_c, 0, 71, 100
1, 23448, Note_off_c, 0, 71, 100
1, 23448, Note_on_c, 0, 69, 100
1, 23464, Note_off_c, 0, 69, 100
1, 23464, Note_on_c, 0, 68, 100
1, 23480, Note_off_c, 0, 68, 100
1, 23480, Note_on_c, 0, 67, 100
1, 23496, Note_off_c, 0, 67, 100
1, 23496, Note_on_c, 0, 65, 100
1, 23512, Note_off_c, 0, 65, 100
1, 23512, Note_on_c, 0, 64, 100
1, 23528, Note_off_c, 0, 64, 100
1, 23528, Note_on_c, 0, 62, 100
1, 23544, Note_off_c, 0, 62, 100
1, 23544, Note_on_c, 0, 61, 100
1, 23640, Note_off_c, 0, 61, 100
1, 23880, Note_on_c, 0, 76, 100
1, 23928, Note_off_c, 0, 76, 100
1, 23928, Note_on_c, 0, 79, 100
1, 23976, Note_off_c, 0, 79, 100
1, 23976, Note_on_c, 0, 83, 100
1, 24024, Note_off_c, 0, 83, 100
1, 24024, Note_on_c, 0, 81, 100
1, 24072, Note_off_c, 0, 81, 100
1, 24072, Note_on_c, 0, 79, 100
1, 24120, Note_off_c, 0, 79, 100
1, 24120, Note_on_c, 0, 78, 100
1, 24168, Note_off_c, 0, 78, 100
1, 24168, Note_on_c, 0, 75, 100
1, 24216, Note_off_c, 0, 75, 100
1, 24216, Note_on_c, 0, 71, 100
1, 24264, Note_off_c, 0, 71, 100
1, 24264, Note_on_c, 0, 73, 100
1, 24312, Note_off_c, 0, 73, 100
1, 24312, Note_on_c, 0, 66, 100
1, 24360, Note_off_c, 0, 66, 100
1, 24360, Note_on_c, 0, 68, 100
1, 24408, Note_off_c, 0, 68, 100
1, 24408, Note_on_c, 0, 60, 100
1, 24456, Note_off_c, 0, 60, 100
1, 24456, Note_on_c, 0, 61, 100
1, 24648, Note_off_c, 0, 61, 100
1, 24648, Note_on_c, 0, 69, 100
1, 24713, Note_off_c, 0, 69, 100
1, 24713, Note_on_c, 0, 72, 100
1, 24730, Note_off_c, 0, 72, 100
1, 24730, Note_on_c, 0, 73, 100
1, 24747, Note_off_c, 0, 73, 100
1, 24747, Note_on_c, 0, 72, 100
1, 24764, Note_off_c, 0, 72, 100
1, 24764, Note_on_c, 0, 71, 100
1, 24798, Note_off_c, 0, 71, 100
1, 24798, Note_on_c, 0, 70, 100
1, 24867, Note_off_c, 0, 70, 100
1, 24867, Note_on_c, 0, 69, 100
1, 24904, Note_off_c, 0, 69, 100
1, 24904, Note_on_c, 0, 67, 100
1, 24974, Note_off_c, 0, 67, 100
1, 24974, Note_on_c, 0, 62, 100
1, 25034, Note_off_c, 0, 62, 100
1, 25034, Note_on_c, 0, 63, 100
1, 25044, Note_off_c, 0, 63, 100
1, 25044, Note_on_c, 0, 62, 100
1, 25054, Note_off_c, 0, 62, 100
1, 25054, Note_on_c, 0, 60, 100
1, 25064, Note_off_c, 0, 60, 100
1, 25064, Note_on_c, 0, 62, 100
1, 25074, Note_off_c, 0, 62, 100
1, 25074, Note_on_c, 0, 66, 100
1, 25150, Note_off_c, 0, 66, 100
1, 25150, Note_on_c, 0, 62, 100
1, 25188, Note_off_c, 0, 62, 100
1, 25188, Note_on_c, 0, 65, 100
1, 25226, Note_off_c, 0, 65, 100
1, 25226, Note_on_c, 0, 63, 100
1, 25504, Note_off_c, 0, 63, 100
1, 25504, Note_on_c, 0, 61, 100
1, 25552, Note_off_c, 0, 61, 100
1, 25552, Note_on_c, 0, 66, 100
1, 25648, Note_off_c, 0, 66, 100
1, 25648, Note_on_c, 0, 68, 100
1, 25665, Note_off_c, 0, 68, 100
1, 25665, Note_on_c, 0, 70, 100
1, 25682, Note_off_c, 0, 70, 100
1, 25682, Note_on_c, 0, 71, 100
1, 25699, Note_off_c, 0, 71, 100
1, 25699, Note_on_c, 0, 73, 100
1, 25751, Note_off_c, 0, 73, 100
1, 25751, Note_on_c, 0, 71, 100
1, 25768, Note_off_c, 0, 71, 100
1, 25768, Note_on_c, 0, 70, 100
1, 25785, Note_off_c, 0, 70, 100
1, 25785, Note_on_c, 0, 68, 100
1, 25802, Note_off_c, 0, 68, 100
1, 25802, Note_on_c, 0, 67, 100
1, 25819, Note_off_c, 0, 67, 100
1, 25819, Note_on_c, 0, 66, 100
1, 25836, Note_off_c, 0, 66, 100
1, 25836, Note_on_c, 0, 65, 100
1, 25884, Note_off_c, 0, 65, 100
1, 25884, Note_on_c, 0, 66, 100
1, 25980, Note_off_c, 0, 66, 100
1, 26124, Note_on_c, 0, 71, 100
1, 26220, Note_off_c, 0, 71, 100
1, 26220, Note_on_c, 0, 71, 100
1, 26412, Note_off_c, 0, 71, 100
1, 26412, Note_on_c, 0, 70, 100
1, 26508, Note_off_c, 0, 70, 100
1, 26508, Note_on_c, 0, 66, 100
1, 26556, Note_off_c, 0, 66, 100
1, 26556, Note_on_c, 0, 68, 100
1, 26676, Note_off_c, 0, 68, 100
1, 26676, Note_on_c, 0, 67, 100
1, 26700, Note_off_c, 0, 67, 100
1, 26700, Note_on_c, 0, 68, 100
1, 26724, Note_off_c, 0, 68, 100
1, 26724, Note_on_c, 0, 66, 100
1, 26772, Note_off_c, 0, 66, 100
1, 26772, Note_on_c, 0, 63, 100
1, 26940, Note_off_c, 0, 63, 100
1, 26940, Note_on_c, 0, 66, 100
1, 26988, Note_off_c, 0, 66, 100
1, 26988, Note_on_c, 0, 68, 100
1, 27084, Note_off_c, 0, 68, 100
1, 27084, Note_on_c, 0, 65, 100
1, 27180, Note_off_c, 0, 65, 100
1, 27391, Note_on_c, 0, 75, 100
1, 27410, Note_off_c, 0, 75, 100
1, 27410, Note_on_c, 0, 74, 100
1, 27429, Note_off_c, 0, 74, 100
1, 27429, Note_on_c, 0, 75, 100
1, 27448, Note_off_c, 0, 75, 100
1, 27448, Note_on_c, 0, 71, 100
1, 27486, Note_off_c, 0, 71, 100
1, 27486, Note_on_c, 0, 70, 100
1, 27505, Note_off_c, 0, 70, 100
1, 27505, Note_on_c, 0, 68, 100
1, 27543, Note_off_c, 0, 68, 100
1, 27543, Note_on_c, 0, 65, 100
1, 27562, Note_off_c, 0, 65, 100
1, 27562, Note_on_c, 0, 63, 100
1, 27589, Note_off_c, 0, 63, 100
1, 27589, Note_on_c, 0, 60, 100
1, 27616, Note_off_c, 0, 60, 100
1, 27616, Note_on_c, 0, 58, 100
1, 27643, Note_off_c, 0, 58, 100
1, 27643, Note_on_c, 0, 56, 100
1, 27670, Note_off_c, 0, 56, 100
1, 27670, Note_on_c, 0, 57, 100
1, 27697, Note_off_c, 0, 57, 100
1, 27697, Note_on_c, 0, 65, 100
1, 27847, Note_off_c, 0, 65, 100
1, 27847, Note_on_c, 0, 64, 100
1, 27895, Note_off_c, 0, 64, 100
1, 27895, Note_on_c, 0, 65, 100
1, 27943, Note_off_c, 0, 65, 100
1, 27943, Note_on_c, 0, 65, 100
1, 28007, Note_off_c, 0, 65, 100
1, 28007, Note_on_c, 0, 65, 100
1, 28094, Note_off_c, 0, 65, 100
1, 28094, End_track
0, 0, End_of_file
