0, 0, Header, 1, 1, 192
1, 0, Start_track
1, 0, Title_t, "Melody"
1, 0, Tempo, 410958
1, 0, Key_signature, 3, "major"
1, 0, Time_signature, 4, 2, 24, 8
1, 144, Note_on_c, 0, 61, 100
1, 288, Note_off_c, 0, 61, 100
1, 288, Note_on_c, 0, 64, 100
1, 384, Note_off_c, 0, 64, 100
1, 384, Note_on_c, 0, 63, 100
1, 576, Note_off_c, 0, 63, 100
1, 576, Note_on_c, 0, 68, 100
1, 720, Note_off_c, 0, 68, 100
1, 720, Note_on_c, 0, 68, 100
1, 864, Note_off_c, 0, 68, 100
1, 864, Note_on_c, 0, 68, 100
1, 1344, Note_off_c, 0, 68, 100
1, 1344, Note_on_c, 0, 66, 100
1, 1488, Note_off_c, 0, 66, 100
1, 1488, Note_on_c, 0, 61, 100
1, 1872, Note_off_c, 0, 61, 100
1, 2400, Note_on_c, 0, 69, 100
1, 2448, Note_off_c, 0, 69, 100
1, 2448, Note_on_c, 0, 71, 100
1, 2496, Note_off_c, 0, 71, 100
1, 2496, Note_on_c, 0, 73, 100
1, 2832, Note_off_c, 0, 73, 100
1, 2832, Note_on_c, 0, 74, 100
1, 2880, Note_off_c, 0, 74, 100
1, 2880, Note_on_c, 0, 76, 100
1, 2912, Note_off_c, 0, 76, 100
1, 2912, Note_on_c, 0, 77, 100
1, 2944, Note_off_c, 0, 77, 100
1, 2944, Note_on_c, 0, 80, 100
1, 2976, Note_off_c, 0, 80, 100
1, 2976, Note_on_c, 0, 81, 100
1, 3104, Note_off_c, 0, 81, 100
1, 3104, Note_on_c, 0, 79, 100
1, 3136, Note_off_c, 0, 79, 100
1, 3136, Note_on_c, 0, 77, 100
1, 3168, Note_off_c, 0, 77, 100
1, 3168, Note_on_c, 0, 76, 100
1, 3200, Note_off_c, 0, 76, 100
1, 3200, Note_on_c, 0, 77, 100
1, 3232, Note_off_c, 0, 77, 100
1, 3232, Note_on_c, 0, 73, 100
1, 3408, Note_off_c, 0, 73, 100
1, 3408, Note_on_c, 0, 74, 100
1, 3456, Note_off_c, 0, 74, 100
1, 3456, Note_on_c, 0, 73, 100
1, 3552, Note_off_c, 0, 73, 100
1, 3552, Note_on_c, 0, 74, 100
1, 3600, Note_off_c, 0, 74, 100
1, 3600, Note_on_c, 0, 73, 100
1, 3712, Note_off_c, 0, 73, 100
1, 3712, Note_on_c, 0, 77, 100
1, 3776, Note_off_c, 0, 77, 100
1, 3776, Note_on_c, 0, 75, 100
1, 3840, Note_off_c, 0, 75, 100
1, 3840, Note_on_c, 0, 76, 100
1, 3888, Note_off_c, 0, 76, 100
1, 3888, Note_on_c, 0, 73, 100
1, 4032, Note_off_c, 0, 73, 100
1, 4032, Note_on_c, 0, 66, 100
1, 4128, Note_off_c, 0, 66, 100
1, 4128, Note_on_c, 0, 69, 100
1, 4416, Note_off_c, 0, 69, 100
1, 4896, Note_on_c, 0, 76, 100
1, 4944, Note_off_c, 0, 76, 100
1, 4944, Note_on_c, 0, 78, 100
1, 4992, Note_off_c, 0, 78, 100
1, 4992, Note_on_c, 0, 79, 100
1, 5040, Note_off_c, 0, 79, 100
1, 5040, Note_on_c, 0, 81, 100
1, 5280, Note_off_c, 0, 81, 100
1, 5280, Note_on_c, 0, 79, 100
1, 5424, Note_off_c, 0, 79, 100
1, 5424, Note_on_c, 0, 77, 100
1, 5520, Note_off_c, 0, 77, 100
1, 5520, Note_on_c, 0, 76, 100
1, 5568, Note_off_c, 0, 76, 100
1, 5568, Note_on_c, 0, 74, 100
1, 5664, Note_off_c, 0, 74, 100
1, 5664, Note_on_c, 0, 72, 100
1, 5808, Note_off_c, 0, 72, 100
1, 5808, Note_on_c, 0, 71, 100
1, 5904, Note_off_c, 0, 71, 100
1, 5904, Note_on_c, 0, 69, 100
1, 6000, Note_off_c, 0, 69, 100
1, 6000, Note_on_c, 0, 67, 100
1, 6096, Note_off_c, 0, 67, 100
1, 6096, Note_on_c, 0, 66, 100
1, 6208, Note_off_c, 0, 66, 100
1, 6208, Note_on_c, 0, 65, 100
1, 6480, Note_off_c, 0, 65, 100
1, 6480, Note_on_c, 0, 66, 100
1, 6528, Note_off_c, 0, 66, 100
1, 6528, Note_on_c, 0, 68, 100
1, 6576, Note_off_c, 0, 68, 100
1, 6576, Note_on_c, 0, 69, 100
1, 6816, Note_off_c, 0, 69, 100
1, 6816, Note_on_c, 0, 71, 100
1, 6864, Note_off_c, 0, 71, 100
1, 6864, Note_on_c, 0, 73, 100
1, 6976, Note_off_c, 0, 73, 100
1, 6976, Note_on_c, 0, 69, 100
1, 7104, Note_off_c, 0, 69, 100
1, 7104, Note_on_c, 0, 69, 100
1, 7392, Note_off_c, 0, 69, 100
1, 8016, Note_on_c, 0, 73, 100
1, 8064, Note_off_c, 0, 73, 100
1, 8064, Note_on_c, 0, 76, 100
1, 8160, Note_off_c, 0, 76, 100
1, 8160, Note_on_c, 0, 76, 100
1, 8256, Note_off_c, 0, 76, 100
1, 8256, Note_on_c, 0, 80, 100
1, 8352, Note_off_c, 0, 80, 100
1, 8352, Note_on_c, 0, 83, 100
1, 9312, Note_off_c, 0, 83, 100
1, 9552, Note_on_c, 0, 73, 100
1, 9600, Note_off_c, 0, 73, 100
1, 9600, Note_on_c, 0, 76, 100
1, 9696, Note_off_c, 0, 76, 100
1, 9696, Note_on_c, 0, 78, 100
1, 9792, Note_off_c, 0, 78, 100
1, 9792, Note_on_c, 0, 80, 100
1, 9936, Note_off_c, 0, 80, 100
1, 9936, Note_on_c, 0, 83, 100
1, 10512, Note_off_c, 0, 83, 100
1, 11040, Note_on_c, 0, 81, 100
1, 11328, Note_off_c, 0, 81, 100
1, 11328, Note_on_c, 0, 86, 100
1, 11376, Note_off_c, 0, 86, 100
1, 11376, Note_on_c, 0, 85, 100
1, 11472, Note_off_c, 0, 85, 100
1, 11472, Note_on_c, 0, 88, 100
1, 12240, Note_off_c, 0, 88, 100
1, 12624, Note_on_c, 0, 69, 100
1, 12902, Note_off_c, 0, 69, 100
1, 12902, Note_on_c, 0, 73, 100
1, 12940, Note_off_c, 0, 73, 100
1, 12940, Note_on_c, 0, 76, 100
1, 12978, Note_off_c, 0, 76, 100
1, 12978, Note_on_c, 0, 78, 100
1, 13016, Note_off_c, 0, 78, 100
1, 13016, Note_on_c, 0, 81, 100
1, 13102, Note_off_c, 0, 81, 100
1, 13102, Note_on_c, 0, 83, 100
1, 13198, Note_off_c, 0, 83, 100
1, 13198, Note_on_c, 0, 83, 100
1, 13246, Note_off_c, 0, 83, 100
1, 13246, Note_on_c, 0, 80, 100
1, 13342, Note_off_c, 0, 80, 100
1, 13342, Note_on_c, 0, 80, 100
1, 13438, Note_off_c, 0, 80, 100
1, 13438, Note_on_c, 0, 76, 100
1, 13534, Note_off_c, 0, 76, 100
1, 13534, Note_on_c, 0, 74, 100
1, 13630, Note_off_c, 0, 74, 100
1, 13630, Note_on_c, 0, 73, 100
1, 13726, Note_off_c, 0, 73, 100
1, 13726, Note_on_c, 0, 71, 100
1, 13870, Note_off_c, 0, 71, 100
1, 13870, Note_on_c, 0, 69, 100
1, 13966, Note_off_c, 0, 69, 100
1, 13966, Note_on_c, 0, 65, 100
1, 14062, Note_off_c, 0, 65, 100
1, 14062, Note_on_c, 0, 61, 100
1, 14158, Note_off_c, 0, 61, 100
1, 14158, Note_on_c, 0, 57, 100
1, 14244, Note_off_c, 0, 57, 100
1, 14244, Note_on_c, 0, 64, 100
1, 14282, Note_off_c, 0, 64, 100
1, 14282, Note_on_c, 0, 65, 100
1, 14320, Note_off_c, 0, 65, 100
1, 14320, Note_on_c, 0, 64, 100
1, 14358, Note_off_c, 0, 64, 100
1, 14358, Note_on_c, 0, 61, 100
1, 14444, Note_off_c, 0, 61, 100
1, 14444, Note_on_c, 0, 62, 100
1, 14540, Note_off_c, 0, 62, 100
1, 14540, Note_on_c, 0, 65, 100
1, 14588, Note_off_c, 0, 65, 100
1, 14588, Note_on_c, 0, 69, 100
1, 14652, Note_off_c, 0, 69, 100
1, 14652, Note_on_c, 0, 69, 100
1, 14716, Note_off_c, 0, 69, 100
1, 14716, Note_on_c, 0, 76, 100
1, 14780, Note_off_c, 0, 76, 100
1, 14780, Note_on_c, 0, 79, 100
1, 14852, Note_off_c, 0, 79, 100
1, 14852, Note_on_c, 0, 76, 100
1, 14900, Note_off_c, 0, 76, 100
1, 14900, Note_on_c, 0, 77, 100
1, 14924, Note_off_c, 0, 77, 100
1, 14924, Note_on_c, 0, 76, 100
1, 14948, Note_off_c, 0, 76, 100
1, 14948, Note_on_c, 0, 74, 100
1, 14972, Note_off_c, 0, 74, 100
1, 14972, Note_on_c, 0, 73, 100
1, 15068, Note_off_c, 0, 73, 100
1, 15068, Note_on_c, 0, 76, 100
1, 15164, Note_off_c, 0, 76, 100
1, 15164, Note_on_c, 0, 74, 100
1, 15260, Note_off_c, 0, 74, 100
1, 15260, Note_on_c, 0, 69, 100
1, 15452, Note_off_c, 0, 69, 100
1, 16220, Note_on_c, 0, 78, 100
1, 16316, Note_off_c, 0, 78, 100
1, 16316, Note_on_c, 0, 76, 100
1, 16460, Note_off_c, 0, 76, 100
1, 16460, Note_on_c, 0, 73, 100
1, 16652, Note_off_c, 0, 73, 100
1, 16652, Note_on_c, 0, 72, 100
1, 16700, Note_off_c, 0, 72, 100
1, 16700, Note_on_c, 0, 71, 100
1, 16796, Note_off_c, 0, 71, 100
1, 16796, Note_on_c, 0, 69, 100
1, 17084, Note_off_c, 0, 69, 100
1, 17084, Note_on_c, 0, 66, 100
1, 17132, Note_off_c, 0, 66, 100
1, 17132, Note_on_c, 0, 64, 100
1, 17180, Note_off_c, 0, 64, 100
1, 17180, Note_on_c, 0, 66, 100
1, 17228, Note_off_c, 0, 66, 100
1, 17228, Note_on_c, 0, 64, 100
1, 17276, Note_off_c, 0, 64, 100
1, 17276, Note_on_c, 0, 61, 100
1, 17516, Note_off_c, 0, 61, 100
1, 17516, Note_on_c, 0, 59, 100
1, 17660, Note_off_c, 0, 59, 100
1, 17660, Note_on_c, 0, 57, 100
1, 18215, Note_off_c, 0, 57, 100
1, 18215, End_track
0, 0, End_of_file
