0, 0, Header, 1, 1, 192
1, 0, Start_track
1, 0, Title_t, "Melody"
1, 0, Tempo, 472440
1, 0, Key_signature, 2, "major"
1, 0, Time_signature, 4, 2, 24, 8
1, 672, Note_on_c, 0, 62, 100
1, 768, Note_off_c, 0, 62, 100
1, 768, Note_on_c, 0, 64, 100
1, 864, Note_off_c, 0, 64, 100
1, 864, Note_on_c, 0, 62, 100
1, 960, Note_off_c, 0, 62, 100
1, 960, Note_on_c, 0, 69, 100
1, 1056, Note_off_c, 0, 69, 100
1, 1056, Note_on_c, 0, 71, 100
1, 1152, Note_off_c, 0, 71, 100
1, 1152, Note_on_c, 0, 62, 100
1, 1296, Note_off_c, 0, 62, 100
1, 1296, Note_on_c, 0, 64, 100
1, 1440, Note_off_c, 0, 64, 100
1, 1440, Note_on_c, 0, 62, 100
1, 1488, Note_off_c, 0, 62, 100
1, 1488, Note_on_c, 0, 67, 100
1, 3686, Note_off_c, 0, 67, 100
1, 3686, Note_on_c, 0, 67, 100
1, 3724, Note_off_c, 0, 67, 100
1, 3724, Note_on_c, 0, 69, 100
1, 3762, Note_off_c, 0, 69, 100
1, 3762, Note_on_c, 0, 72, 100
1, 3800, Note_off_c, 0, 72, 100
1, 3800, Note_on_c, 0, 74, 100
1, 3838, Note_off_c, 0, 74, 100
1, 3838, Note_on_c, 0, 72, 100
1, 3886, Note_off_c, 0, 72, 100
1, 3886, Note_on_c, 0, 69, 100
1, 3934, Note_off_c, 0, 69, 100
1, 3934, Note_on_c, 0, 67, 100
1, 4126, Note_off_c, 0, 67, 100
1, 4126, Note_on_c, 0, 66, 100
1, 4158, Note_off_c, 0, 66, 100
1, 4158, Note_on_c, 0, 65, 100
1, 4190, Note_off_c, 0, 65, 100
1, 4190, Note_on_c, 0, 64, 100
1, 4222, Note_off_c, 0, 64, 100
1, 4222, Note_on_c, 0, 62, 100
1, 4286, Note_off_c, 0, 62, 100
1, 4286, Note_on_c, 0, 60, 100
1, 4574, Note_off_c, 0, 60, 100
1, 5374, Note_on_c, 0, 74, 100
1, 5518, Note_off_c, 0, 74, 100
1, 5518, Note_on_c, 0, 76, 100
1, 5662, Note_off_c, 0, 76, 100
1, 5662, Note_on_c, 0, 74, 100
1, 5806, Note_off_c, 0, 74, 100
1, 5806, Note_on_c, 0, 76, 100
1, 5902, Note_off_c, 0, 76, 100
1, 5902, Note_on_c, 0, 74, 100
1, 6046, Note_off_c, 0, 74, 100
1, 6046, Note_on_c, 0, 76, 100
1, 6142, Note_off_c, 0, 76, 100
1, 6142, Note_on_c, 0, 74, 100
1, 6238, Note_off_c, 0, 74, 100
1, 6238, Note_on_c, 0, 83, 100
1, 6334, Note_off_c, 0, 83, 100
1, 6334, Note_on_c, 0, 81, 100
1, 6430, Note_off_c, 0, 81, 100
1, 6430, Note_on_c, 0, 81, 100
1, 7102, Note_off_c, 0, 81, 100
1, 7438, Note_on_c, 0, 74, 100
1, 7486, Note_off_c, 0, 74, 100
1, 7486, Note_on_c, 0, 76, 100
1, 7582, Note_off_c, 0, 76, 100
1, 7582, Note_on_c, 0, 74, 100
1, 7678, Note_off_c, 0, 74, 100
1, 7678, Note_on_c, 0, 83, 100
1, 7774, Note_off_c, 0, 83, 100
1, 7774, Note_on_c, 0, 81, 100
1, 7918, Note_off_c, 0, 81, 100
1, 7918, Note_on_c, 0, 81, 100
1, 8014, Note_off_c, 0, 81, 100
1, 8014, Note_on_c, 0, 72, 100
1, 8110, Note_off_c, 0, 72, 100
1, 8110, Note_on_c, 0, 72, 100
1, 8206, Note_off_c, 0, 72, 100
1, 8206, Note_on_c, 0, 74, 100
1, 8318, Note_off_c, 0, 74, 100
1, 8318, Note_on_c, 0, 74, 100
1, 8382, Note_off_c, 0, 74, 100
1, 8382, Note_on_c, 0, 72, 100
1, 8446, Note_off_c, 0, 72, 100
1, 8446, Note_on_c, 0, 79, 100
1, 8542, Note_off_c, 0, 79, 100
1, 8542, Note_on_c, 0, 77, 100
1, 8638, Note_off_c, 0, 77, 100
1, 8638, Note_on_c, 0, 77, 100
1, 9828, Note_off_c, 0, 77, 100
1, 9828, Note_on_c, 0, 74, 100
1, 9866, Note_off_c, 0, 74, 100
1, 9866, Note_on_c, 0, 72, 100
1, 9904, Note_off_c, 0, 72, 100
1, 9904, Note_on_c, 0, 70, 100
1, 9942, Note_off_c, 0, 70, 100
1, 9942, Note_on_c, 0, 69, 100
1, 9980, Note_off_c, 0, 69, 100
1, 9980, Note_on_c, 0, 67, 100
1, 10076, Note_off_c, 0, 67, 100
1, 10076, Note_on_c, 0, 68, 100
1, 10172, Note_off_c, 0, 68, 100
1, 10172, Note_on_c, 0, 67, 100
1, 10236, Note_off_c, 0, 67, 100
1, 10236, Note_on_c, 0, 65, 100
1, 10300, Note_off_c, 0, 65, 100
1, 10300, Note_on_c, 0, 63, 100
1, 10364, Note_off_c, 0, 63, 100
1, 10364, Note_on_c, 0, 62, 100
1, 10428, Note_off_c, 0, 62, 100
1, 10428, Note_on_c, 0, 63, 100
1, 10492, Note_off_c, 0, 63, 100
1, 10492, Note_on_c, 0, 60, 100
1, 10972, Note_off_c, 0, 60, 100
1, 11612, Note_on_c, 0, 65, 100
1, 11900, Note_off_c, 0, 65, 100
1, 11900, Note_on_c, 0, 68, 100
1, 11996, Note_off_c, 0, 68, 100
1, 11996, Note_on_c, 0, 65, 100
1, 12092, Note_off_c, 0, 65, 100
1, 12092, Note_on_c, 0, 68, 100
1, 12284, Note_off_c, 0, 68, 100
1, 12284, Note_on_c, 0, 72, 100
1, 12732, Note_off_c, 0, 72, 100
1, 12732, Note_on_c, 0, 72, 100
1, 12860, Note_off_c, 0, 72, 100
1, 12860, Note_on_c, 0, 73, 100
1, 12956, Note_off_c, 0, 73, 100
1, 12956, Note_on_c, 0, 75, 100
1, 13100, Note_off_c, 0, 75, 100
1, 13100, Note_on_c, 0, 77, 100
1, 13244, Note_off_c, 0, 77, 100
1, 13244, Note_on_c, 0, 70, 100
1, 14588, Note_off_c, 0, 70, 100
1, 14588, Note_on_c, 0, 71, 100
1, 14780, Note_off_c, 0, 71, 100
1, 14780, Note_on_c, 0, 70, 100
1, 14972, Note_off_c, 0, 70, 100
1, 14972, Note_on_c, 0, 71, 100
1, 15116, Note_off_c, 0, 71, 100
1, 15116, Note_on_c, 0, 71, 100
1, 15164, Note_off_c, 0, 71, 100
1, 15164, Note_on_c, 0, 70, 100
1, 15356, Note_off_c, 0, 70, 100
1, 15356, Note_on_c, 0, 71, 100
1, 15500, Note_off_c, 0, 71, 100
1, 15500, Note_on_c, 0, 71, 100
1, 15548, Note_off_c, 0, 71, 100
1, 15548, Note_on_c, 0, 70, 100
1, 15692, Note_off_c, 0, 70, 100
1, 15692, Note_on_c, 0, 68, 100
1, 15884, Note_off_c, 0, 68, 100
1, 15884, Note_on_c, 0, 70, 100
1, 16028, Note_off_c, 0, 70, 100
1, 16028, Note_on_c, 0, 71, 100
1, 16380, Note_off_c, 0, 71, 100
1, 16380, Note_on_c, 0, 68, 100
1, 16444, Note_off_c, 0, 68, 100
1, 16444, Note_on_c, 0, 65, 100
1, 16508, Note_off_c, 0, 65, 100
1, 16508, Note_on_c, 0, 70, 100
1, 16572, Note_off_c, 0, 70, 100
1, 16572, Note_on_c, 0, 68, 100
1, 16636, Note_off_c, 0, 68, 100
1, 16636, Note_on_c, 0, 63, 100
1, 16700, Note_off_c, 0, 63, 100
1, 16700, Note_on_c, 0, 61, 100
1, 16796, Note_off_c, 0, 61, 100
1, 16796, Note_on_c, 0, 63, 100
1, 16892, Note_off_c, 0, 63, 100
1, 17756, Note_on_c, 0, 64, 100
1, 17916, Note_off_c, 0, 64, 100
1, 17916, Note_on_c, 0, 64, 100
1, 18044, Note_off_c, 0, 64, 100
1, 18044, Note_on_c, 0, 64, 100
1, 19100, Note_off_c, 0, 64, 100
1, 19100, Note_on_c, 0, 65, 100
1, 19148, Note_off_c, 0, 65, 100
1, 19148, Note_on_c, 0, 67, 100
1, 19196, Note_off_c, 0, 67, 100
1, 19196, Note_on_c, 0, 69, 100
1, 19580, Note_off_c, 0, 69, 100
1, 19580, Note_on_c, 0, 67, 100
1, 19644, Note_off_c, 0, 67, 100
1, 19644, Note_on_c, 0, 65, 100
1, 19708, Note_off_c, 0, 65, 100
1, 19708, Note_on_c, 0, 64, 100
1, 20476, Note_off_c, 0, 64, 100
1, 20828, Note_on_c, 0, 63, 100
1, 20876, Note_off_c, 0, 63, 100
1, 20876, Note_on_c, 0, 62, 100
1, 20924, Note_off_c, 0, 62, 100
1, 20924, Note_on_c, 0, 60, 100
1, 21020, Note_off_c, 0, 60, 100
1, 21020, Note_on_c, 0, 60, 100
1, 21068, Note_off_c, 0, 60, 100
1, 21068, Note_on_c, 0, 62, 100
1, 21116, Note_off_c, 0, 62, 100
1, 21116, Note_on_c, 0, 63, 100
1, 21164, Note_off_c, 0, 63, 100
1, 21164, Note_on_c, 0, 65, 100
1, 21212, Note_off_c, 0, 65, 100
1, 21212, Note_on_c, 0, 67, 100
1, 21260, Note_off_c, 0, 67, 100
1, 21260, Note_on_c, 0, 69, 100
1, 21308, Note_off_c, 0, 69, 100
1, 21308, Note_on_c, 0, 70, 100
1, 21346, Note_off_c, 0, 70, 100
1, 21346, Note_on_c, 0, 72, 100
1, 21422, Note_off_c, 0, 72, 100
1, 21422, Note_on_c, 0, 74, 100
1, 21460, Note_off_c, 0, 74, 100
1, 21460, Note_on_c, 0, 75, 100
1, 21498, Note_off_c, 0, 75, 100
1, 21498, Note_on_c, 0, 77, 100
1, 21594, Note_off_c, 0, 77, 100
1, 21594, Note_on_c, 0, 74, 100
1, 21754, Note_off_c, 0, 74, 100
1, 21754, Note_on_c, 0, 74, 100
1, 22170, Note_off_c, 0, 74, 100
1, 22170, Note_on_c, 0, 72, 100
1, 22218, Note_off_c, 0, 72, 100
1, 22218, Note_on_c, 0, 70, 100
1, 22330, Note_off_c, 0, 70, 100
1, 22330, Note_on_c, 0, 74, 100
1, 22362, Note_off_c, 0, 74, 100
1, 22362, Note_on_c, 0, 72, 100
1, 22394, Note_off_c, 0, 72, 100
1, 22394, Note_on_c, 0, 70, 100
1, 22426, Note_off_c, 0, 70, 100
1, 22426, Note_on_c, 0, 68, 100
1, 22458, Note_off_c, 0, 68, 100
1, 22458, Note_on_c, 0, 67, 100
1, 22842, Note_off_c, 0, 67, 100
1, 23658, Note_on_c, 0, 76, 100
1, 23706, Note_off_c, 0, 76, 100
1, 23706, Note_on_c, 0, 79, 100
1, 23754, Note_off_c, 0, 79, 100
1, 23754, Note_on_c, 0, 83, 100
1, 23850, Note_off_c, 0, 83, 100
1, 23850, Note_on_c, 0, 76, 100
1, 23946, Note_off_c, 0, 76, 100
1, 23946, Note_on_c, 0, 79, 100
1, 24042, Note_off_c, 0, 79, 100
1, 24042, Note_on_c, 0, 83, 100
1, 24138, Note_off_c, 0, 83, 100
1, 24138, Note_on_c, 0, 76, 100
1, 24234, Note_off_c, 0, 76, 100
1, 24234, Note_on_c, 0, 81, 100
1, 24378, Note_off_c, 0, 81, 100
1, 24378, Note_on_c, 0, 83, 100
1, 24474, Note_off_c, 0, 83, 100
1, 24474, Note_on_c, 0, 83, 100
1, 24522, Note_off_c, 0, 83, 100
1, 24522, Note_on_c, 0, 84, 100
1, 24666, Note_off_c, 0, 84, 100
1, 24666, Note_on_c, 0, 83, 100
1, 24762, Note_off_c, 0, 83, 100
1, 24762, Note_on_c, 0, 79, 100
1, 24810, Note_off_c, 0, 79, 100
1, 24810, Note_on_c, 0, 81, 100
1, 24906, Note_off_c, 0, 81, 100
1, 24906, Note_on_c, 0, 83, 100
1, 25018, Note_off_c, 0, 83, 100
1, 25018, Note_on_c, 0, 83, 100
1, 25082, Note_off_c, 0, 83, 100
1, 25082, Note_on_c, 0, 84, 100
1, 25146, Note_off_c, 0, 84, 100
1, 25146, Note_on_c, 0, 83, 100
1, 25194, Note_off_c, 0, 83, 100
1, 25194, Note_on_c, 0, 83, 100
1, 25242, Note_off_c, 0, 83, 100
1, 25242, Note_on_c, 0, 79, 100
1, 25338, Note_off_c, 0, 79, 100
1, 25338, Note_on_c, 0, 83, 100
1, 25434, Note_off_c, 0, 83, 100
1, 25434, Note_on_c, 0, 83, 100
1, 25482, Note_off_c, 0, 83, 100
1, 25482, Note_on_c, 0, 84, 100
1, 25530, Note_off_c, 0, 84, 100
1, 25530, Note_on_c, 0, 83, 100
1, 25578, Note_off_c, 0, 83, 100
1, 25578, Note_on_c, 0, 79, 100
1, 25674, Note_off_c, 0, 79, 100
1, 25674, Note_on_c, 0, 83, 100
1, 25770, Note_off_c, 0, 83, 100
1, 25770, Note_on_c, 0, 84, 100
1, 25866, Note_off_c, 0, 84, 100
1, 25866, Note_on_c, 0, 83, 100
1, 25952, Note_off_c, 0, 83, 100
1, 25952, Note_on_c, 0, 79, 100
1, 26028, Note_off_c, 0, 79, 100
1, 26028, Note_on_c, 0, 77, 100
1, 26066, Note_off_c, 0, 77, 100
1, 26066, Note_on_c, 0, 81, 100
1, 26104, Note_off_c, 0, 81, 100
1, 26104, Note_on_c, 0, 83, 100
1, 26152, Note_off_c, 0, 83, 100
1, 26152, Note_on_c, 0, 85, 100
1, 26200, Note_off_c, 0, 85, 100
1, 26200, Note_on_c, 0, 86, 100
1, 26248, Note_off_c, 0, 86, 100
1, 26248, Note_on_c, 0, 84, 100
1, 26296, Note_off_c, 0, 84, 100
1, 26296, Note_on_c, 0, 84, 100
1, 26344, Note_off_c, 0, 84, 100
1, 26344, Note_on_c, 0, 83, 100
1, 26392, Note_off_c, 0, 83, 100
1, 26392, Note_on_c, 0, 81, 100
1, 26440, Note_off_c, 0, 81, 100
1, 26440, Note_on_c, 0, 79, 100
1, 26488, Note_off_c, 0, 79, 100
1, 26488, Note_on_c, 0, 78, 100
1, 26536, Note_off_c, 0, 78, 100
1, 26536, Note_on_c, 0, 73, 100
1, 26584, Note_off_c, 0, 73, 100
1, 26584, Note_on_c, 0, 74, 100
1, 26632, Note_off_c, 0, 74, 100
1, 26632, Note_on_c, 0, 73, 100
1, 26680, Note_off_c, 0, 73, 100
1, 26680, Note_on_c, 0, 72, 100
1, 26728, Note_off_c, 0, 72, 100
1, 26728, Note_on_c, 0, 70, 100
1, 26776, Note_off_c, 0, 70, 100
1, 26776, Note_on_c, 0, 69, 100
1, 26824, Note_off_c, 0, 69, 100
1, 26824, Note_on_c, 0, 67, 100
1, 26872, Note_off_c, 0, 67, 100
1, 26872, Note_on_c, 0, 65, 100
1, 26920, Note_off_c, 0, 65, 100
1, 26920, Note_on_c, 0, 64, 100
1, 26968, Note_off_c, 0, 64, 100
1, 26968, Note_on_c, 0, 63, 100
1, 27016, Note_off_c, 0, 63, 100
1, 27016, Note_on_c, 0, 62, 100
1, 27064, Note_off_c, 0, 62, 100
1, 27064, Note_on_c, 0, 60, 100
1, 27112, Note_off_c, 0, 60, 100
1, 27112, Note_on_c, 0, 63, 100
1, 27160, Note_off_c, 0, 63, 100
1, 27160, Note_on_c, 0, 67, 100
1, 27208, Note_off_c, 0, 67, 100
1, 27208, Note_on_c, 0, 69, 100
1, 27256, Note_off_c, 0, 69, 100
1, 27256, Note_on_c, 0, 73, 100
1, 27273, Note_off_c, 0, 73, 100
1, 27273, Note_on_c, 0, 75, 100
1, 27307, Note_off_c, 0, 75, 100
1, 27307, Note_on_c, 0, 77, 100
1, 27394, Note_off_c, 0, 77, 100
1, 27394, Note_on_c, 0, 72, 100
1, 27411, Note_off_c, 0, 72, 100
1, 27411, Note_on_c, 0, 74, 100
1, 27445, Note_off_c, 0, 74, 100
1, 27445, Note_on_c, 0, 75, 100
1, 27462, Note_off_c, 0, 75, 100
1, 27462, Note_on_c, 0, 77, 100
1, 27514, Note_off_c, 0, 77, 100
1, 27514, Note_on_c, 0, 72, 100
1, 27548, Note_off_c, 0, 72, 100
1, 27548, Note_on_c, 0, 74, 100
1, 27582, Note_off_c, 0, 74, 100
1, 27582, Note_on_c, 0, 75, 100
1, 27616, Note_off_c, 0, 75, 100
1, 27616, Note_on_c, 0, 77, 100
1, 27681, Note_off_c, 0, 77, 100
1, 27681, Note_on_c, 0, 72, 100
1, 27729, Note_off_c, 0, 72, 100
1, 27729, Note_on_c, 0, 74, 100
1, 27777, Note_off_c, 0, 74, 100
1, 27777, Note_on_c, 0, 75, 100
1, 27825, Note_off_c, 0, 75, 100
1, 27825, Note_on_c, 0, 74, 100
1, 27863, Note_off_c, 0, 74, 100
1, 27863, Note_on_c, 0, 75, 100
1, 27901, Note_off_c, 0, 75, 100
1, 27901, Note_on_c, 0, 77, 100
1, 27939, Note_off_c, 0, 77, 100
1, 27939, Note_on_c, 0, 75, 100
1, 27977, Note_off_c, 0, 75, 100
1, 27977, Note_on_c, 0, 74, 100
1, 28015, Note_off_c, 0, 74, 100
1, 28015, Note_on_c, 0, 75, 100
1, 28063, Note_off_c, 0, 75, 100
1, 28063, Note_on_c, 0, 72, 100
1, 28111, Note_off_c, 0, 72, 100
1, 28111, Note_on_c, 0, 74, 100
1, 28159, Note_off_c, 0, 74, 100
1, 28159, Note_on_c, 0, 77, 100
1, 28207, Note_off_c, 0, 77, 100
1, 28207, Note_on_c, 0, 79, 100
1, 28239, Note_off_c, 0, 79, 100
1, 28239, Note_on_c, 0, 77, 100
1, 28271, Note_off_c, 0, 77, 100
1, 28271, Note_on_c, 0, 75, 100
1, 28303, Note_off_c, 0, 75, 100
1, 28303, Note_on_c, 0, 77, 100
1, 28335, Note_off_c, 0, 77, 100
1, 28335, Note_on_c, 0, 75, 100
1, 28367, Note_off_c, 0, 75, 100
1, 28367, Note_on_c, 0, 74, 100
1, 28426, Note_off_c, 0, 74, 100
1, 28426, Note_on_c, 0, 75, 100
1, 28453, Note_off_c, 0, 75, 100
1, 28453, Note_on_c, 0, 73, 100
1, 28480, Note_off_c, 0, 73, 100
1, 28480, Note_on_c, 0, 72, 100
1, 28507, Note_off_c, 0, 72, 100
1, 28507, Note_on_c, 0, 74, 100
1, 28534, Note_off_c, 0, 74, 100
1, 28534, Note_on_c, 0, 72, 100
1, 28561, Note_off_c, 0, 72, 100
1, 28561, Note_on_c, 0, 70, 100
1, 28588, Note_off_c, 0, 70, 100
1, 28588, Note_on_c, 0, 72, 100
1, 28615, Note_off_c, 0, 72, 100
1, 28615, Note_on_c, 0, 70, 100
1, 28642, Note_off_c, 0, 70, 100
1, 28642, Note_on_c, 0, 69, 100
1, 28669, Note_off_c, 0, 69, 100
1, 28669, Note_on_c, 0, 67, 100
1, 28696, Note_off_c, 0, 67, 100
1, 28696, Note_on_c, 0, 63, 100
1, 28723, Note_off_c, 0, 63, 100
1, 28723, Note_on_c, 0, 62, 100
1, 28750, Note_off_c, 0, 62, 100
1, 28750, Note_on_c, 0, 60, 100
1, 28777, Note_off_c, 0, 60, 100
1, 28777, Note_on_c, 0, 58, 100
1, 28825, Note_off_c, 0, 58, 100
1, 28825, Note_on_c, 0, 57, 100
1, 28873, Note_off_c, 0, 57, 100
1, 28873, Note_on_c, 0, 55, 100
1, 28969, Note_off_c, 0, 55, 100
1, 29161, Note_on_c, 0, 79, 100
1, 29193, Note_off_c, 0, 79, 100
1, 29193, Note_on_c, 0, 80, 100
1, 29225, Note_off_c, 0, 80, 100
1, 29225, Note_on_c, 0, 79, 100
1, 29257, Note_off_c, 0, 79, 100
1, 29257, Note_on_c, 0, 78, 100
1, 29289, Note_off_c, 0, 78, 100
1, 29289, Note_on_c, 0, 75, 100
1, 29321, Note_off_c, 0, 75, 100
1, 29321, Note_on_c, 0, 76, 100
1, 29353, Note_off_c, 0, 76, 100
1, 29353, Note_on_c, 0, 75, 100
1, 29401, Note_off_c, 0, 75, 100
1, 29401, Note_on_c, 0, 74, 100
1, 29449, Note_off_c, 0, 74, 100
1, 29449, Note_on_c, 0, 72, 100
1, 29497, Note_off_c, 0, 72, 100
1, 29497, Note_on_c, 0, 70, 100
1, 29545, Note_off_c, 0, 70, 100
1, 29545, Note_on_c, 0, 69, 100
1, 29593, Note_off_c, 0, 69, 100
1, 29593, Note_on_c, 0, 67, 100
1, 29641, Note_off_c, 0, 67, 100
1, 29641, Note_on_c, 0, 65, 100
1, 29689, Note_off_c, 0, 65, 100
1, 29689, Note_on_c, 0, 64, 100
1, 29737, Note_off_c, 0, 64, 100
1, 29737, Note_on_c, 0, 63, 100
1, 29785, Note_off_c, 0, 63, 100
1, 29785, Note_on_c, 0, 62, 100
1, 29833, Note_off_c, 0, 62, 100
1, 29833, Note_on_c, 0, 60, 100
1, 29881, Note_off_c, 0, 60, 100
1, 29881, Note_on_c, 0, 58, 100
1, 29929, Note_off_c, 0, 58, 100
1, 29929, Note_on_c, 0, 57, 100
1, 30025, Note_off_c, 0, 57, 100
1, 30025, Note_on_c, 0, 57, 100
1, 30159, Note_off_c, 0, 57, 100
1, 30159, Note_on_c, 0, 57, 100
1, 30197, Note_off_c, 0, 57, 100
1, 30197, Note_on_c, 0, 60, 100
1, 30235, Note_off_c, 0, 60, 100
1, 30235, Note_on_c, 0, 61, 100
1, 30273, Note_off_c, 0, 61, 100
1, 30273, Note_on_c, 0, 62, 100
1, 30311, Note_off_c, 0, 62, 100
1, 30311, Note_on_c, 0, 64, 100
1, 30359, Note_off_c, 0, 64, 100
1, 30359, Note_on_c, 0, 66, 100
1, 30407, Note_off_c, 0, 66, 100
1, 30407, Note_on_c, 0, 67, 100
1, 30455, Note_off_c, 0, 67, 100
1, 30455, Note_on_c, 0, 69, 100
1, 30503, Note_off_c, 0, 69, 100
1, 30503, Note_on_c, 0, 71, 100
1, 30551, Note_off_c, 0, 71, 100
1, 30551, Note_on_c, 0, 72, 100
1, 30599, Note_off_c, 0, 72, 100
1, 30599, Note_on_c, 0, 73, 100
1, 30647, Note_off_c, 0, 73, 100
1, 30647, Note_on_c, 0, 74, 100
1, 30695, Note_off_c, 0, 74, 100
1, 30695, Note_on_c, 0, 71, 100
1, 30823, Note_off_c, 0, 71, 100
1, 30823, Note_on_c, 0, 68, 100
1, 30887, Note_off_c, 0, 68, 100
1, 30887, Note_on_c, 0, 69, 100
1, 30951, Note_off_c, 0, 69, 100
1, 30951, Note_on_c, 0, 68, 100
1, 31015, Note_off_c, 0, 68, 100
1, 31015, Note_on_c, 0, 69, 100
1, 31175, Note_off_c, 0, 69, 100
1, 31175, Note_on_c, 0, 63, 100
1, 31271, Note_off_c, 0, 63, 100
1, 31271, Note_on_c, 0, 64, 100
1, 31367, Note_off_c, 0, 64, 100
1, 31367, Note_on_c, 0, 61, 100
1, 31463, Note_off_c, 0, 61, 100
1, 31463, Note_on_c, 0, 62, 100
1, 31559, Note_off_c, 0, 62, 100
1, 31559, Note_on_c, 0, 64, 100
1, 31847, Note_off_c, 0, 64, 100
1, 32327, Note_on_c, 0, 68, 100
1, 32375, Note_off_c, 0, 68, 100
1, 32375, Note_on_c, 0, 69, 100
1, 32423, Note_off_c, 0, 69, 100
1, 32423, Note_on_c, 0, 66, 100
1, 32567, Note_off_c, 0, 66, 100
1, 32567, Note_on_c, 0, 64, 100
1, 32615, Note_off_c, 0, 64, 100
1, 32615, Note_on_c, 0, 60, 100
1, 32663, Note_off_c, 0, 60, 100
1, 32663, Note_on_c, 0, 62, 100
1, 32711, Note_off_c, 0, 62, 100
1, 32711, Note_on_c, 0, 61, 100
1, 32759, Note_off_c, 0, 61, 100
1, 32759, Note_on_c, 0, 62, 100
1, 32807, Note_off_c, 0, 62, 100
1, 32807, Note_on_c, 0, 57, 100
1, 32903, Note_off_c, 0, 57, 100
1, 33191, Note_on_c, 0, 61, 100
1, 33239, Note_off_c, 0, 61, 100
1, 33239, Note_on_c, 0, 63, 100
1, 33287, Note_off_c, 0, 63, 100
1, 33287, Note_on_c, 0, 67, 100
1, 33335, Note_off_c, 0, 67, 100
1, 33335, Note_on_c, 0, 70, 100
1, 33383, Note_off_c, 0, 70, 100
1, 33383, Note_on_c, 0, 74, 100
1, 33431, Note_off_c, 0, 74, 100
1, 33431, Note_on_c, 0, 75, 100
1, 33479, Note_off_c, 0, 75, 100
1, 33479, Note_on_c, 0, 76, 100
1, 33527, Note_off_c, 0, 76, 100
1, 33527, Note_on_c, 0, 77, 100
1, 33671, Note_off_c, 0, 77, 100
1, 33671, Note_on_c, 0, 74, 100
1, 33695, Note_off_c, 0, 74, 100
1, 33695, Note_on_c, 0, 75, 100
1, 33719, Note_off_c, 0, 75, 100
1, 33719, Note_on_c, 0, 76, 100
1, 33743, Note_off_c, 0, 76, 100
1, 33743, Note_on_c, 0, 77, 100
1, 33767, Note_off_c, 0, 77, 100
1, 33767, Note_on_c, 0, 72, 100
1, 33805, Note_off_c, 0, 72, 100
1, 33805, Note_on_c, 0, 74, 100
1, 33843, Note_off_c, 0, 74, 100
1, 33843, Note_on_c, 0, 75, 100
1, 33881, Note_off_c, 0, 75, 100
1, 33881, Note_on_c, 0, 70, 100
1, 33919, Note_off_c, 0, 70, 100
1, 33919, Note_on_c, 0, 72, 100
1, 33957, Note_off_c, 0, 72, 100
1, 33957, Note_on_c, 0, 74, 100
1, 34005, Note_off_c, 0, 74, 100
1, 34005, Note_on_c, 0, 67, 100
1, 34053, Note_off_c, 0, 67, 100
1, 34053, Note_on_c, 0, 69, 100
1, 34101, Note_off_c, 0, 69, 100
1, 34101, Note_on_c, 0, 70, 100
1, 34149, Note_off_c, 0, 70, 100
1, 34149, Note_on_c, 0, 63, 100
1, 34173, Note_off_c, 0, 63, 100
1, 34173, Note_on_c, 0, 65, 100
1, 34197, Note_off_c, 0, 65, 100
1, 34197, Note_on_c, 0, 67, 100
1, 34293, Note_off_c, 0, 67, 100
1, 34293, Note_on_c, 0, 60, 100
1, 34317, Note_off_c, 0, 60, 100
1, 34317, Note_on_c, 0, 62, 100
1, 34365, Note_off_c, 0, 62, 100
1, 34365, Note_on_c, 0, 63, 100
1, 34413, Note_off_c, 0, 63, 100
1, 34413, Note_on_c, 0, 62, 100
1, 34437, Note_off_c, 0, 62, 100
1, 34437, Note_on_c, 0, 63, 100
1, 34461, Note_off_c, 0, 63, 100
1, 34461, Note_on_c, 0, 65, 100
1, 34485, Note_off_c, 0, 65, 100
1, 34485, Note_on_c, 0, 63, 100
1, 34509, Note_off_c, 0, 63, 100
1, 34509, Note_on_c, 0, 65, 100
1, 34565, Note_off_c, 0, 65, 100
1, 34565, Note_on_c, 0, 67, 100
1, 34597, Note_off_c, 0, 67, 100
1, 34597, Note_on_c, 0, 65, 100
1, 34629, Note_off_c, 0, 65, 100
1, 34629, Note_on_c, 0, 67, 100
1, 34661, Note_off_c, 0, 67, 100
1, 34661, Note_on_c, 0, 69, 100
1, 34693, Note_off_c, 0, 69, 100
1, 34693, Note_on_c, 0, 67, 100
1, 34725, Note_off_c, 0, 67, 100
1, 34725, Note_on_c, 0, 69, 100
1, 34742, Note_off_c, 0, 69, 100
1, 34742, Note_on_c, 0, 70, 100
1, 34759, Note_off_c, 0, 70, 100
1, 34759, Note_on_c, 0, 69, 100
1, 34793, Note_off_c, 0, 69, 100
1, 34793, Note_on_c, 0, 70, 100
1, 34810, Note_off_c, 0, 70, 100
1, 34810, Note_on_c, 0, 72, 100
1, 34844, Note_off_c, 0, 72, 100
1, 34844, Note_on_c, 0, 70, 100
1, 34861, Note_off_c, 0, 70, 100
1, 34861, Note_on_c, 0, 72, 100
1, 34895, Note_off_c, 0, 72, 100
1, 34895, Note_on_c, 0, 74, 100
1, 34933, Note_off_c, 0, 74, 100
1, 34933, Note_on_c, 0, 72, 100
1, 34954, Note_off_c, 0, 72, 100
1, 34954, Note_on_c, 0, 76, 100
1, 34996, Note_off_c, 0, 76, 100
1, 34996, Note_on_c, 0, 74, 100
1, 35038, Note_off_c, 0, 74, 100
1, 35038, Note_on_c, 0, 75, 100
1, 35059, Note_off_c, 0, 75, 100
1, 35059, Note_on_c, 0, 77, 100
1, 35080, Note_off_c, 0, 77, 100
1, 35080, Note_on_c, 0, 79, 100
1, 35101, Note_off_c, 0, 79, 100
1, 35101, Note_on_c, 0, 77, 100
1, 35139, Note_off_c, 0, 77, 100
1, 35139, Note_on_c, 0, 74, 100
1, 35177, Note_off_c, 0, 74, 100
1, 35177, Note_on_c, 0, 78, 100
1, 35215, Note_off_c, 0, 78, 100
1, 35215, Note_on_c, 0, 74, 100
1, 35253, Note_off_c, 0, 74, 100
1, 35253, Note_on_c, 0, 75, 100
1, 35291, Note_off_c, 0, 75, 100
1, 35291, Note_on_c, 0, 74, 100
1, 35318, Note_off_c, 0, 74, 100
1, 35318, Note_on_c, 0, 72, 100
1, 35345, Note_off_c, 0, 72, 100
1, 35345, Note_on_c, 0, 70, 100
1, 35372, Note_off_c, 0, 70, 100
1, 35372, Note_on_c, 0, 69, 100
1, 35399, Note_off_c, 0, 69, 100
1, 35399, Note_on_c, 0, 67, 100
1, 35426, Note_off_c, 0, 67, 100
1, 35426, Note_on_c, 0, 65, 100
1, 35453, Note_off_c, 0, 65, 100
1, 35453, Note_on_c, 0, 64, 100
1, 35480, Note_off_c, 0, 64, 100
1, 35480, Note_on_c, 0, 63, 100
1, 35497, Note_off_c, 0, 63, 100
1, 35497, Note_on_c, 0, 62, 100
1, 35514, Note_off_c, 0, 62, 100
1, 35514, Note_on_c, 0, 60, 100
1, 35531, Note_off_c, 0, 60, 100
1, 35531, Note_on_c, 0, 58, 100
1, 35548, Note_off_c, 0, 58, 100
1, 35548, Note_on_c, 0, 56, 100
1, 35600, Note_off_c, 0, 56, 100
1, 35600, Note_on_c, 0, 57, 100
1, 35634, Note_off_c, 0, 57, 100
1, 35634, Note_on_c, 0, 58, 100
1, 35651, Note_off_c, 0, 58, 100
1, 35651, Note_on_c, 0, 60, 100
1, 35668, Note_off_c, 0, 60, 100
1, 35668, Note_on_c, 0, 62, 100
1, 35692, Note_off_c, 0, 62, 100
1, 35692, Note_on_c, 0, 63, 100
1, 35716, Note_off_c, 0, 63, 100
1, 35716, Note_on_c, 0, 64, 100
1, 35740, Note_off_c, 0, 64, 100
1, 35740, Note_on_c, 0, 67, 100
1, 35764, Note_off_c, 0, 67, 100
1, 35764, Note_on_c, 0, 68, 100
1, 35788, Note_off_c, 0, 68, 100
1, 35788, Note_on_c, 0, 70, 100
1, 35812, Note_off_c, 0, 70, 100
1, 35812, Note_on_c, 0, 72, 100
1, 35860, Note_off_c, 0, 72, 100
1, 35860, Note_on_c, 0, 69, 100
1, 35887, Note_off_c, 0, 69, 100
1, 35887, Note_on_c, 0, 72, 100
1, 35914, Note_off_c, 0, 72, 100
1, 35914, Note_on_c, 0, 70, 100
1, 35941, Note_off_c, 0, 70, 100
1, 35941, Note_on_c, 0, 68, 100
1, 35968, Note_off_c, 0, 68, 100
1, 35968, Note_on_c, 0, 67, 100
1, 35995, Note_off_c, 0, 67, 100
1, 35995, Note_on_c, 0, 65, 100
1, 36022, Note_off_c, 0, 65, 100
1, 36022, Note_on_c, 0, 64, 100
1, 36049, Note_off_c, 0, 64, 100
1, 36049, Note_on_c, 0, 62, 100
1, 36073, Note_off_c, 0, 62, 100
1, 36073, Note_on_c, 0, 61, 100
1, 36097, Note_off_c, 0, 61, 100
1, 36097, Note_on_c, 0, 60, 100
1, 36121, Note_off_c, 0, 60, 100
1, 36121, Note_on_c, 0, 58, 100
1, 36145, Note_off_c, 0, 58, 100
1, 36145, Note_on_c, 0, 60, 100
1, 36169, Note_off_c, 0, 60, 100
1, 36169, Note_on_c, 0, 61, 100
1, 36193, Note_off_c, 0, 61, 100
1, 36193, Note_on_c, 0, 63, 100
1, 36217, Note_off_c, 0, 63, 100
1, 36217, Note_on_c, 0, 65, 100
1, 36241, Note_off_c, 0, 65, 100
1, 36241, Note_on_c, 0, 67, 100
1, 36268, Note_off_c, 0, 67, 100
1, 36268, Note_on_c, 0, 68, 100
1, 36295, Note_off_c, 0, 68, 100
1, 36295, Note_on_c, 0, 70, 100
1, 36322, Note_off_c, 0, 70, 100
1, 36322, Note_on_c, 0, 72, 100
1, 36349, Note_off_c, 0, 72, 100
1, 36349, Note_on_c, 0, 69, 100
1, 36376, Note_off_c, 0, 69, 100
1, 36376, Note_on_c, 0, 72, 100
1, 36430, Note_off_c, 0, 72, 100
1, 36430, Note_on_c, 0, 70, 100
1, 36454, Note_off_c, 0, 70, 100
1, 36454, Note_on_c, 0, 68, 100
1, 36478, Note_off_c, 0, 68, 100
1, 36478, Note_on_c, 0, 67, 100
1, 36526, Note_off_c, 0, 67, 100
1, 36526, Note_on_c, 0, 65, 100
1, 36550, Note_off_c, 0, 65, 100
1, 36550, Note_on_c, 0, 63, 100
1, 36574, Note_off_c, 0, 63, 100
1, 36574, Note_on_c, 0, 61, 100
1, 36598, Note_off_c, 0, 61, 100
1, 36598, Note_on_c, 0, 60, 100
1, 36622, Note_off_c, 0, 60, 100
1, 36622, Note_on_c, 0, 58, 100
1, 36646, Note_off_c, 0, 58, 100
1, 36646, Note_on_c, 0, 60, 100
1, 36670, Note_off_c, 0, 60, 100
1, 36670, Note_on_c, 0, 61, 100
1, 36718, Note_off_c, 0, 61, 100
1, 36718, Note_on_c, 0, 63, 100
1, 36742, Note_off_c, 0, 63, 100
1, 36742, Note_on_c, 0, 65, 100
1, 36766, Note_off_c, 0, 65, 100
1, 36766, Note_on_c, 0, 67, 100
1, 36790, Note_off_c, 0, 67, 100
1, 36790, Note_on_c, 0, 68, 100
1, 36814, Note_off_c, 0, 68, 100
1, 36814, Note_on_c, 0, 70, 100
1, 36831, Note_off_c, 0, 70, 100
1, 36831, Note_on_c, 0, 72, 100
1, 36848, Note_off_c, 0, 72, 100
1, 36848, Note_on_c, 0, 69, 100
1, 36882, Note_off_c, 0, 69, 100
1, 36882, Note_on_c, 0, 72, 100
1, 36916, Note_off_c, 0, 72, 100
1, 36916, Note_on_c, 0, 70, 100
1, 36933, Note_off_c, 0, 70, 100
1, 36933, Note_on_c, 0, 68, 100
1, 36950, Note_off_c, 0, 68, 100
1, 36950, Note_on_c, 0, 67, 100
1, 36984, Note_off_c, 0, 67, 100
1, 36984, Note_on_c, 0, 65, 100
1, 37001, Note_off_c, 0, 65, 100
1, 37001, Note_on_c, 0, 63, 100
1, 37033, Note_off_c, 0, 63, 100
1, 37033, Note_on_c, 0, 61, 100
1, 37065, Note_off_c, 0, 61, 100
1, 37065, Note_on_c, 0, 60, 100
1, 37097, Note_off_c, 0, 60, 100
1, 37097, Note_on_c, 0, 58, 100
1, 37129, Note_off_c, 0, 58, 100
1, 37129, Note_on_c, 0, 57, 100
1, 37225, Note_off_c, 0, 57, 100
1, 37481, Note_on_c, 0, 60, 100
1, 37529, Note_off_c, 0, 60, 100
1, 37529, Note_on_c, 0, 61, 100
1, 37577, Note_off_c, 0, 61, 100
1, 37577, Note_on_c, 0, 63, 100
1, 37601, Note_off_c, 0, 63, 100
1, 37601, Note_on_c, 0, 65, 100
1, 37625, Note_off_c, 0, 65, 100
1, 37625, Note_on_c, 0, 67, 100
1, 37673, Note_off_c, 0, 67, 100
1, 37673, Note_on_c, 0, 70, 100
1, 37697, Note_off_c, 0, 70, 100
1, 37697, Note_on_c, 0, 72, 100
1, 37745, Note_off_c, 0, 72, 100
1, 37745, Note_on_c, 0, 68, 100
1, 37769, Note_off_c, 0, 68, 100
1, 37769, Note_on_c, 0, 70, 100
1, 37803, Note_off_c, 0, 70, 100
1, 37803, Note_on_c, 0, 68, 100
1, 37820, Note_off_c, 0, 68, 100
1, 37820, Note_on_c, 0, 67, 100
1, 37854, Note_off_c, 0, 67, 100
1, 37854, Note_on_c, 0, 65, 100
1, 37871, Note_off_c, 0, 65, 100
1, 37871, Note_on_c, 0, 63, 100
1, 37888, Note_off_c, 0, 63, 100
1, 37888, Note_on_c, 0, 62, 100
1, 37905, Note_off_c, 0, 62, 100
1, 37905, Note_on_c, 0, 61, 100
1, 37922, Note_off_c, 0, 61, 100
1, 37922, Note_on_c, 0, 60, 100
1, 37939, Note_off_c, 0, 60, 100
1, 37939, Note_on_c, 0, 58, 100
1, 37956, Note_off_c, 0, 58, 100
1, 37956, Note_on_c, 0, 57, 100
1, 37980, Note_off_c, 0, 57, 100
1, 37980, Note_on_c, 0, 58, 100
1, 38004, Note_off_c, 0, 58, 100
1, 38004, Note_on_c, 0, 60, 100
1, 38028, Note_off_c, 0, 60, 100
1, 38028, Note_on_c, 0, 63, 100
1, 38052, Note_off_c, 0, 63, 100
1, 38052, Note_on_c, 0, 65, 100
1, 38076, Note_off_c, 0, 65, 100
1, 38076, Note_on_c, 0, 66, 100
1, 38124, Note_off_c, 0, 66, 100
1, 38124, Note_on_c, 0, 68, 100
1, 38148, Note_off_c, 0, 68, 100
1, 38148, Note_on_c, 0, 70, 100
1, 38172, Note_off_c, 0, 70, 100
1, 38172, Note_on_c, 0, 72, 100
1, 38220, Note_off_c, 0, 72, 100
1, 38220, Note_on_c, 0, 69, 100
1, 38244, Note_off_c, 0, 69, 100
1, 38244, Note_on_c, 0, 75, 100
1, 38268, Note_off_c, 0, 75, 100
1, 38268, Note_on_c, 0, 72, 100
1, 38292, Note_off_c, 0, 72, 100
1, 38292, Note_on_c, 0, 70, 100
1, 38316, Note_off_c, 0, 70, 100
1, 38316, Note_on_c, 0, 68, 100
1, 38340, Note_off_c, 0, 68, 100
1, 38340, Note_on_c, 0, 67, 100
1, 38367, Note_off_c, 0, 67, 100
1, 38367, Note_on_c, 0, 65, 100
1, 38394, Note_off_c, 0, 65, 100
1, 38394, Note_on_c, 0, 63, 100
1, 38421, Note_off_c, 0, 63, 100
1, 38421, Note_on_c, 0, 62, 100
1, 38448, Note_off_c, 0, 62, 100
1, 38448, Note_on_c, 0, 61, 100
1, 38502, Note_off_c, 0, 61, 100
1, 38502, Note_on_c, 0, 58, 100
1, 38529, Note_off_c, 0, 58, 100
1, 38529, Note_on_c, 0, 60, 100
1, 38561, Note_off_c, 0, 60, 100
1, 38561, Note_on_c, 0, 61, 100
1, 38593, Note_off_c, 0, 61, 100
1, 38593, Note_on_c, 0, 63, 100
1, 38625, Note_off_c, 0, 63, 100
1, 38625, Note_on_c, 0, 65, 100
1, 38657, Note_off_c, 0, 65, 100
1, 38657, Note_on_c, 0, 67, 100
1, 38689, Note_off_c, 0, 67, 100
1, 38689, Note_on_c, 0, 68, 100
1, 38721, Note_off_c, 0, 68, 100
1, 38721, Note_on_c, 0, 70, 100
1, 38745, Note_off_c, 0, 70, 100
1, 38745, Note_on_c, 0, 72, 100
1, 38793, Note_off_c, 0, 72, 100
1, 38793, Note_on_c, 0, 69, 100
1, 38817, Note_off_c, 0, 69, 100
1, 38817, Note_on_c, 0, 72, 100
1, 38865, Note_off_c, 0, 72, 100
1, 38865, Note_on_c, 0, 70, 100
1, 38889, Note_off_c, 0, 70, 100
1, 38889, Note_on_c, 0, 68, 100
1, 38913, Note_off_c, 0, 68, 100
1, 38913, Note_on_c, 0, 67, 100
1, 38940, Note_off_c, 0, 67, 100
1, 38940, Note_on_c, 0, 65, 100
1, 38967, Note_off_c, 0, 65, 100
1, 38967, Note_on_c, 0, 64, 100
1, 38994, Note_off_c, 0, 64, 100
1, 38994, Note_on_c, 0, 62, 100
1, 39021, Note_off_c, 0, 62, 100
1, 39021, Note_on_c, 0, 61, 100
1, 39048, Note_off_c, 0, 61, 100
1, 39048, Note_on_c, 0, 63, 100
1, 39075, Note_off_c, 0, 63, 100
1, 39075, Note_on_c, 0, 64, 100
1, 39102, Note_off_c, 0, 64, 100
1, 39102, Note_on_c, 0, 66, 100
1, 39118, Note_off_c, 0, 66, 100
1, 39118, Note_on_c, 0, 68, 100
1, 39134, Note_off_c, 0, 68, 100
1, 39134, Note_on_c, 0, 69, 100
1, 39150, Note_off_c, 0, 69, 100
1, 39150, Note_on_c, 0, 71, 100
1, 39198, Note_off_c, 0, 71, 100
1, 39198, Note_on_c, 0, 69, 100
1, 39214, Note_off_c, 0, 69, 100
1, 39214, Note_on_c, 0, 68, 100
1, 39230, Note_off_c, 0, 68, 100
1, 39230, Note_on_c, 0, 66, 100
1, 39246, Note_off_c, 0, 66, 100
1, 39246, Note_on_c, 0, 65, 100
1, 39262, Note_off_c, 0, 65, 100
1, 39262, Note_on_c, 0, 63, 100
1, 39278, Note_off_c, 0, 63, 100
1, 39278, Note_on_c, 0, 69, 100
1, 39294, Note_off_c, 0, 69, 100
1, 39294, Note_on_c, 0, 67, 100
1, 39311, Note_off_c, 0, 67, 100
1, 39311, Note_on_c, 0, 69, 100
1, 39345, Note_off_c, 0, 69, 100
1, 39345, Note_on_c, 0, 75, 100
1, 39379, Note_off_c, 0, 75, 100
1, 39379, Note_on_c, 0, 73, 100
1, 39413, Note_off_c, 0, 73, 100
1, 39413, Note_on_c, 0, 71, 100
1, 39430, Note_off_c, 0, 71, 100
1, 39430, Note_on_c, 0, 70, 100
1, 39464, Note_off_c, 0, 70, 100
1, 39464, Note_on_c, 0, 68, 100
1, 39481, Note_off_c, 0, 68, 100
1, 39481, Note_on_c, 0, 67, 100
1, 39513, Note_off_c, 0, 67, 100
1, 39513, Note_on_c, 0, 66, 100
1, 39545, Note_off_c, 0, 66, 100
1, 39545, Note_on_c, 0, 65, 100
1, 39577, Note_off_c, 0, 65, 100
1, 39577, Note_on_c, 0, 63, 100
1, 39609, Note_off_c, 0, 63, 100
1, 39609, Note_on_c, 0, 64, 100
1, 39641, Note_off_c, 0, 64, 100
1, 39641, Note_on_c, 0, 63, 100
1, 39673, Note_off_c, 0, 63, 100
1, 39673, Note_on_c, 0, 65, 100
1, 39694, Note_off_c, 0, 65, 100
1, 39694, Note_on_c, 0, 66, 100
1, 39715, Note_off_c, 0, 66, 100
1, 39715, Note_on_c, 0, 68, 100
1, 39736, Note_off_c, 0, 68, 100
1, 39736, Note_on_c, 0, 70, 100
1, 39778, Note_off_c, 0, 70, 100
1, 39778, Note_on_c, 0, 71, 100
1, 39799, Note_off_c, 0, 71, 100
1, 39799, Note_on_c, 0, 72, 100
1, 39820, Note_off_c, 0, 72, 100
1, 39820, Note_on_c, 0, 75, 100
1, 39841, Note_off_c, 0, 75, 100
1, 39841, Note_on_c, 0, 72, 100
1, 39862, Note_off_c, 0, 72, 100
1, 39862, Note_on_c, 0, 75, 100
1, 39879, Note_off_c, 0, 75, 100
1, 39879, Note_on_c, 0, 73, 100
1, 39896, Note_off_c, 0, 73, 100
1, 39896, Note_on_c, 0, 71, 100
1, 39930, Note_off_c, 0, 71, 100
1, 39930, Note_on_c, 0, 69, 100
1, 39964, Note_off_c, 0, 69, 100
1, 39964, Note_on_c, 0, 68, 100
1, 39998, Note_off_c, 0, 68, 100
1, 39998, Note_on_c, 0, 66, 100
1, 40015, Note_off_c, 0, 66, 100
1, 40015, Note_on_c, 0, 64, 100
1, 40032, Note_off_c, 0, 64, 100
1, 40032, Note_on_c, 0, 63, 100
1, 40049, Note_off_c, 0, 63, 100
1, 40049, Note_on_c, 0, 61, 100
1, 40097, Note_off_c, 0, 61, 100
1, 40097, Note_on_c, 0, 60, 100
1, 40145, Note_off_c, 0, 60, 100
1, 40145, Note_on_c, 0, 64, 100
1, 40193, Note_off_c, 0, 64, 100
1, 40193, Note_on_c, 0, 66, 100
1, 40241, Note_off_c, 0, 66, 100
1, 40241, Note_on_c, 0, 68, 100
1, 40265, Note_off_c, 0, 68, 100
1, 40265, Note_on_c, 0, 70, 100
1, 40313, Note_off_c, 0, 70, 100
1, 40313, Note_on_c, 0, 71, 100
1, 40337, Note_off_c, 0, 71, 100
1, 40337, Note_on_c, 0, 73, 100
1, 40361, Note_off_c, 0, 73, 100
1, 40361, Note_on_c, 0, 74, 100
1, 40385, Note_off_c, 0, 74, 100
1, 40385, Note_on_c, 0, 72, 100
1, 40409, Note_off_c, 0, 72, 100
1, 40409, Note_on_c, 0, 74, 100
1, 40433, Note_off_c, 0, 74, 100
1, 40433, Note_on_c, 0, 73, 100
1, 40457, Note_off_c, 0, 73, 100
1, 40457, Note_on_c, 0, 71, 100
1, 40481, Note_off_c, 0, 71, 100
1, 40481, Note_on_c, 0, 70, 100
1, 40505, Note_off_c, 0, 70, 100
1, 40505, Note_on_c, 0, 68, 100
1, 40553, Note_off_c, 0, 68, 100
1, 40553, Note_on_c, 0, 67, 100
1, 40577, Note_off_c, 0, 67, 100
1, 40577, Note_on_c, 0, 66, 100
1, 40601, Note_off_c, 0, 66, 100
1, 40601, Note_on_c, 0, 64, 100
1, 40625, Note_off_c, 0, 64, 100
1, 40625, Note_on_c, 0, 63, 100
1, 40657, Note_off_c, 0, 63, 100
1, 40657, Note_on_c, 0, 61, 100
1, 40689, Note_off_c, 0, 61, 100
1, 40689, Note_on_c, 0, 63, 100
1, 40721, Note_off_c, 0, 63, 100
1, 40721, Note_on_c, 0, 64, 100
1, 40753, Note_off_c, 0, 64, 100
1, 40753, Note_on_c, 0, 66, 100
1, 40785, Note_off_c, 0, 66, 100
1, 40785, Note_on_c, 0, 68, 100
1, 40817, Note_off_c, 0, 68, 100
1, 40817, Note_on_c, 0, 70, 100
1, 40841, Note_off_c, 0, 70, 100
1, 40841, Note_on_c, 0, 71, 100
1, 40865, Note_off_c, 0, 71, 100
1, 40865, Note_on_c, 0, 72, 100
1, 40913, Note_off_c, 0, 72, 100
1, 40913, Note_on_c, 0, 75, 100
1, 40937, Note_off_c, 0, 75, 100
1, 40937, Note_on_c, 0, 74, 100
1, 40961, Note_off_c, 0, 74, 100
1, 40961, Note_on_c, 0, 72, 100
1, 40985, Note_off_c, 0, 72, 100
1, 40985, Note_on_c, 0, 71, 100
1, 41009, Note_off_c, 0, 71, 100
1, 41009, Note_on_c, 0, 70, 100
1, 41033, Note_off_c, 0, 70, 100
1, 41033, Note_on_c, 0, 68, 100
1, 41057, Note_off_c, 0, 68, 100
1, 41057, Note_on_c, 0, 67, 100
1, 41081, Note_off_c, 0, 67, 100
1, 41081, Note_on_c, 0, 66, 100
1, 41105, Note_off_c, 0, 66, 100
1, 41105, Note_on_c, 0, 64, 100
1, 41129, Note_off_c, 0, 64, 100
1, 41129, Note_on_c, 0, 63, 100
1, 41177, Note_off_c, 0, 63, 100
1, 41177, Note_on_c, 0, 62, 100
1, 41201, Note_off_c, 0, 62, 100
1, 41201, Note_on_c, 0, 61, 100
1, 41249, Note_off_c, 0, 61, 100
1, 41249, Note_on_c, 0, 60, 100
1, 41297, Note_off_c, 0, 60, 100
1, 41297, Note_on_c, 0, 59, 100
1, 41345, Note_off_c, 0, 59, 100
1, 41345, Note_on_c, 0, 57, 100
1, 41441, Note_off_c, 0, 57, 100
1, 41661, Note_on_c, 0, 64, 100
1, 41699, Note_off_c, 0, 64, 100
1, 41699, Note_on_c, 0, 62, 100
1, 41737, Note_off_c, 0, 62, 100
1, 41737, Note_on_c, 0, 60, 100
1, 41775, Note_off_c, 0, 60, 100
1, 41775, Note_on_c, 0, 62, 100
1, 41871, Note_off_c, 0, 62, 100
1, 41871, Note_on_c, 0, 64, 100
1, 43023, Note_off_c, 0, 64, 100
1, 43791, Note_on_c, 0, 67, 100
1, 43983, Note_off_c, 0, 67, 100
1, 43983, Note_on_c, 0, 67, 100
1, 44127, Note_off_c, 0, 67, 100
1, 44127, Note_on_c, 0, 67, 100
1, 44175, Note_off_c, 0, 67, 100
1, 44175, Note_on_c, 0, 66, 100
1, 44223, Note_off_c, 0, 66, 100
1, 44223, Note_on_c, 0, 64, 100
1, 44319, Note_off_c, 0, 64, 100
1, 44319, Note_on_c, 0, 66, 100
1, 44367, Note_off_c, 0, 66, 100
1, 44367, Note_on_c, 0, 67, 100
1, 45183, Note_off_c, 0, 67, 100
1, 45183, Note_on_c, 0, 69, 100
1, 45327, Note_off_c, 0, 69, 100
1, 45327, Note_on_c, 0, 70, 100
1, 45423, Note_off_c, 0, 70, 100
1, 45423, Note_on_c, 0, 69, 100
1, 45519, Note_off_c, 0, 69, 100
1, 45519, Note_on_c, 0, 67, 100
1, 45615, Note_off_c, 0, 67, 100
1, 45615, Note_on_c, 0, 69, 100
1, 45711, Note_off_c, 0, 69, 100
1, 45711, Note_on_c, 0, 70, 100
1, 46767, Note_off_c, 0, 70, 100
1, 47631, Note_on_c, 0, 74, 100
1, 48255, Note_off_c, 0, 74, 100
1, 48255, Note_on_c, 0, 71, 100
1, 48367, Note_off_c, 0, 71, 100
1, 48367, Note_on_c, 0, 64, 100
1, 48433, Note_off_c, 0, 64, 100
1, 48433, End_track
0, 0, End_of_file
