0, 0, Header, 1, 1, 192
1, 0, Start_track
1, 0, Title_t, "Melody"
1, 0, Tempo, 238095
1, 0, Key_signature, -2, "major"
1, 0, Time_signature, 4, 2, 24, 8
1, 336, Note_on_c, 0, 60, 100
1, 768, Note_off_c, 0, 60, 100
1, 768, Note_on_c, 0, 60, 100
1, 895, Note_off_c, 0, 60, 100
1, 895, Note_on_c, 0, 62, 100
1, 959, Note_off_c, 0, 62, 100
1, 959, Note_on_c, 0, 64, 100
1, 1055, Note_off_c, 0, 64, 100
1, 1055, Note_on_c, 0, 65, 100
1, 1151, Note_off_c, 0, 65, 100
1, 1151, Note_on_c, 0, 60, 100
1, 1247, Note_off_c, 0, 60, 100
1, 1247, Note_on_c, 0, 59, 100
1, 1343, Note_off_c, 0, 59, 100
1, 1343, Note_on_c, 0, 58, 100
1, 1535, Note_off_c, 0, 58, 100
1, 1535, Note_on_c, 0, 60, 100
1, 1919, Note_off_c, 0, 60, 100
1, 1919, Note_on_c, 0, 60, 100
1, 2303, Note_off_c, 0, 60, 100
1, 2303, Note_on_c, 0, 60, 100
1, 2495, Note_off_c, 0, 60, 100
1, 2495, Note_on_c, 0, 58, 100
1, 2559, Note_off_c, 0, 58, 100
1, 2559, Note_on_c, 0, 60, 100
1, 2623, Note_off_c, 0, 60, 100
1, 2623, Note_on_c, 0, 58, 100
1, 2687, Note_off_c, 0, 58, 100
1, 2687, Note_on_c, 0, 56, 100
1, 2783, Note_off_c, 0, 56, 100
1, 2783, Note_on_c, 0, 53, 100
1, 2879, Note_off_c, 0, 53, 100
1, 2879, Note_on_c, 0, 50, 100
1, 3071, Note_off_c, 0, 50, 100
1, 3071, Note_on_c, 0, 53, 100
1, 3167, Note_off_c, 0, 53, 100
1, 3167, Note_on_c, 0, 56, 100
1, 3263, Note_off_c, 0, 56, 100
1, 3263, Note_on_c, 0, 57, 100
1, 3359, Note_off_c, 0, 57, 100
1, 3359, Note_on_c, 0, 60, 100
1, 3455, Note_off_c, 0, 60, 100
1, 3455, Note_on_c, 0, 62, 100
1, 3647, Note_off_c, 0, 62, 100
1, 3647, Note_on_c, 0, 63, 100
1, 3839, Note_off_c, 0, 63, 100
1, 3839, Note_on_c, 0, 62, 100
1, 3935, Note_off_c, 0, 62, 100
1, 3935, Note_on_c, 0, 60, 100
1, 4031, Note_off_c, 0, 60, 100
1, 4031, Note_on_c, 0, 58, 100
1, 4127, Note_off_c, 0, 58, 100
1, 4607, Note_on_c, 0, 60, 100
1, 4703, Note_off_c, 0, 60, 100
1, 4703, Note_on_c, 0, 58, 100
1, 4799, Note_off_c, 0, 58, 100
1, 4799, Note_on_c, 0, 57, 100
1, 4991, Note_off_c, 0, 57, 100
1, 4991, Note_on_c, 0, 58, 100
1, 5087, Note_off_c, 0, 58, 100
1, 5087, Note_on_c, 0, 57, 100
1, 5183, Note_off_c, 0, 57, 100
1, 5183, Note_on_c, 0, 55, 100
1, 5279, Note_off_c, 0, 55, 100
1, 5279, Note_on_c, 0, 57, 100
1, 5471, Note_off_c, 0, 57, 100
1, 5471, Note_on_c, 0, 53, 100
1, 5663, Note_off_c, 0, 53, 100
1, 5663, Note_on_c, 0, 53, 100
1, 5759, Note_off_c, 0, 53, 100
1, 5759, Note_on_c, 0, 57, 100
1, 5951, Note_off_c, 0, 57, 100
1, 5951, Note_on_c, 0, 62, 100
1, 6143, Note_off_c, 0, 62, 100
1, 6143, Note_on_c, 0, 59, 100
1, 6239, Note_off_c, 0, 59, 100
1, 6239, Note_on_c, 0, 60, 100
1, 6527, Note_off_c, 0, 60, 100
1, 6527, Note_on_c, 0, 55, 100
1, 6911, Note_off_c, 0, 55, 100
1, 7391, Note_on_c, 0, 62, 100
1, 7583, Note_off_c, 0, 62, 100
1, 7583, Note_on_c, 0, 60, 100
1, 7679, Note_off_c, 0, 60, 100
1, 7679, Note_on_c, 0, 63, 100
1, 7775, Note_off_c, 0, 63, 100
1, 7775, Note_on_c, 0, 60, 100
1, 7871, Note_off_c, 0, 60, 100
1, 7871, Note_on_c, 0, 62, 100
1, 8063, Note_off_c, 0, 62, 100
1, 8063, Note_on_c, 0, 60, 100
1, 8159, Note_off_c, 0, 60, 100
1, 8159, Note_on_c, 0, 53, 100
1, 8255, Note_off_c, 0, 53, 100
1, 8255, Note_on_c, 0, 55, 100
1, 8351, Note_off_c, 0, 55, 100
1, 8351, Note_on_c, 0, 53, 100
1, 8495, Note_off_c, 0, 53, 100
1, 8495, Note_on_c, 0, 59, 100
1, 8591, Note_off_c, 0, 59, 100
1, 8591, Note_on_c, 0, 60, 100
1, 8639, Note_off_c, 0, 60, 100
1, 8639, Note_on_c, 0, 59, 100
1, 8687, Note_off_c, 0, 59, 100
1, 8687, Note_on_c, 0, 58, 100
1, 8735, Note_off_c, 0, 58, 100
1, 8735, Note_on_c, 0, 53, 100
1, 8831, Note_off_c, 0, 53, 100
1, 8831, Note_on_c, 0, 56, 100
1, 8959, Note_off_c, 0, 56, 100
1, 8959, Note_on_c, 0, 53, 100
1, 9023, Note_off_c, 0, 53, 100
1, 9023, Note_on_c, 0, 50, 100
1, 9119, Note_off_c, 0, 50, 100
1, 9119, Note_on_c, 0, 48, 100
1, 9215, Note_off_c, 0, 48, 100
1, 9215, Note_on_c, 0, 53, 100
1, 9311, Note_off_c, 0, 53, 100
1, 9311, Note_on_c, 0, 56, 100
1, 9407, Note_off_c, 0, 56, 100
1, 9407, Note_on_c, 0, 57, 100
1, 9535, Note_off_c, 0, 57, 100
1, 9535, Note_on_c, 0, 60, 100
1, 9599, Note_off_c, 0, 60, 100
1, 9599, Note_on_c, 0, 64, 100
1, 9695, Note_off_c, 0, 64, 100
1, 9695, Note_on_c, 0, 63, 100
1, 9791, Note_off_c, 0, 63, 100
1, 10511, Note_on_c, 0, 65, 100
1, 10623, Note_off_c, 0, 65, 100
1, 10623, Note_on_c, 0, 64, 100
1, 10687, Note_off_c, 0, 64, 100
1, 10687, Note_on_c, 0, 62, 100
1, 10751, Note_off_c, 0, 62, 100
1, 10751, Note_on_c, 0, 60, 100
1, 10847, Note_off_c, 0, 60, 100
1, 11135, Note_on_c, 0, 60, 100
1, 11231, Note_off_c, 0, 60, 100
1, 11231, Note_on_c, 0, 58, 100
1, 11327, Note_off_c, 0, 58, 100
1, 11327, Note_on_c, 0, 57, 100
1, 11375, Note_off_c, 0, 57, 100
1, 11375, Note_on_c, 0, 55, 100
1, 11471, Note_off_c, 0, 55, 100
1, 11711, Note_on_c, 0, 55, 100
1, 11807, Note_off_c, 0, 55, 100
1, 11807, Note_on_c, 0, 53, 100
1, 11903, Note_off_c, 0, 53, 100
1, 11903, Note_on_c, 0, 52, 100
1, 12031, Note_off_c, 0, 52, 100
1, 12031, Note_on_c, 0, 53, 100
1, 12287, Note_off_c, 0, 53, 100
1, 12287, Note_on_c, 0, 50, 100
1, 12383, Note_off_c, 0, 50, 100
1, 12383, Note_on_c, 0, 48, 100
1, 12479, Note_off_c, 0, 48, 100
1, 12479, Note_on_c, 0, 49, 100
1, 12607, Note_off_c, 0, 49, 100
1, 12607, Note_on_c, 0, 51, 100
1, 12671, Note_off_c, 0, 51, 100
1, 12671, Note_on_c, 0, 52, 100
1, 12815, Note_off_c, 0, 52, 100
1, 12815, Note_on_c, 0, 54, 100
1, 12863, Note_off_c, 0, 54, 100
1, 12863, Note_on_c, 0, 55, 100
1, 12959, Note_off_c, 0, 55, 100
1, 12959, Note_on_c, 0, 57, 100
1, 13055, Note_off_c, 0, 57, 100
1, 13055, Note_on_c, 0, 58, 100
1, 13151, Note_off_c, 0, 58, 100
1, 13151, Note_on_c, 0, 56, 100
1, 13247, Note_off_c, 0, 56, 100
1, 13247, Note_on_c, 0, 57, 100
1, 13343, Note_off_c, 0, 57, 100
1, 13343, Note_on_c, 0, 60, 100
1, 13391, Note_off_c, 0, 60, 100
1, 13391, Note_on_c, 0, 64, 100
1, 13439, Note_off_c, 0, 64, 100
1, 13439, Note_on_c, 0, 65, 100
1, 13535, Note_off_c, 0, 65, 100
1, 13535, Note_on_c, 0, 61, 100
1, 13631, Note_off_c, 0, 61, 100
1, 13631, Note_on_c, 0, 64, 100
1, 13727, Note_off_c, 0, 64, 100
1, 13727, Note_on_c, 0, 61, 100
1, 13823, Note_off_c, 0, 61, 100
1, 13823, Note_on_c, 0, 62, 100
1, 13919, Note_off_c, 0, 62, 100
1, 13919, Note_on_c, 0, 61, 100
1, 14015, Note_off_c, 0, 61, 100
1, 14015, Note_on_c, 0, 60, 100
1, 14111, Note_off_c, 0, 60, 100
1, 14111, Note_on_c, 0, 58, 100
1, 14207, Note_off_c, 0, 58, 100
1, 14207, Note_on_c, 0, 59, 100
1, 14399, Note_off_c, 0, 59, 100
1, 14399, Note_on_c, 0, 57, 100
1, 14591, Note_off_c, 0, 57, 100
1, 14591, Note_on_c, 0, 59, 100
1, 14879, Note_off_c, 0, 59, 100
1, 14879, Note_on_c, 0, 57, 100
1, 15023, Note_off_c, 0, 57, 100
1, 15023, Note_on_c, 0, 54, 100
1, 15119, Note_off_c, 0, 54, 100
1, 15119, Note_on_c, 0, 52, 100
1, 15215, Note_off_c, 0, 52, 100
1, 15743, Note_on_c, 0, 52, 100
1, 15839, Note_off_c, 0, 52, 100
1, 15839, Note_on_c, 0, 50, 100
1, 15935, Note_off_c, 0, 50, 100
1, 15935, Note_on_c, 0, 49, 100
1, 16031, Note_off_c, 0, 49, 100
1, 16031, Note_on_c, 0, 50, 100
1, 16127, Note_off_c, 0, 50, 100
1, 16127, Note_on_c, 0, 52, 100
1, 16223, Note_off_c, 0, 52, 100
1, 16223, Note_on_c, 0, 49, 100
1, 16271, Note_off_c, 0, 49, 100
1, 16271, Note_on_c, 0, 47, 100
1, 16319, Note_off_c, 0, 47, 100
1, 16319, Note_on_c, 0, 41, 100
1, 16415, Note_off_c, 0, 41, 100
1, 16415, Note_on_c, 0, 57, 100
1, 16511, Note_off_c, 0, 57, 100
1, 16511, Note_on_c, 0, 59, 100
1, 16559, Note_off_c, 0, 59, 100
1, 16559, Note_on_c, 0, 64, 100
1, 16703, Note_off_c, 0, 64, 100
1, 16703, Note_on_c, 0, 62, 100
1, 16895, Note_off_c, 0, 62, 100
1, 16895, Note_on_c, 0, 55, 100
1, 17183, Note_off_c, 0, 55, 100
1, 17183, Note_on_c, 0, 57, 100
1, 17279, Note_off_c, 0, 57, 100
1, 17279, Note_on_c, 0, 58, 100
1, 17375, Note_off_c, 0, 58, 100
1, 17375, Note_on_c, 0, 60, 100
1, 17471, Note_off_c, 0, 60, 100
1, 17471, Note_on_c, 0, 62, 100
1, 17567, Note_off_c, 0, 62, 100
1, 17567, Note_on_c, 0, 60, 100
1, 17663, Note_off_c, 0, 60, 100
1, 18623, Note_on_c, 0, 60, 100
1, 18719, Note_off_c, 0, 60, 100
1, 18719, Note_on_c, 0, 62, 100
1, 18815, Note_off_c, 0, 62, 100
1, 18815, Note_on_c, 0, 65, 100
1, 18943, Note_off_c, 0, 65, 100
1, 18943, Note_on_c, 0, 67, 100
1, 19199, Note_off_c, 0, 67, 100
1, 19199, Note_on_c, 0, 55, 100
1, 19295, Note_off_c, 0, 55, 100
1, 19295, Note_on_c, 0, 57, 100
1, 19391, Note_off_c, 0, 57, 100
1, 19391, Note_on_c, 0, 60, 100
1, 19519, Note_off_c, 0, 60, 100
1, 19519, Note_on_c, 0, 62, 100
1, 19775, Note_off_c, 0, 62, 100
1, 19775, Note_on_c, 0, 48, 100
1, 19903, Note_off_c, 0, 48, 100
1, 19903, Note_on_c, 0, 50, 100
1, 19967, Note_off_c, 0, 50, 100
1, 19967, Note_on_c, 0, 53, 100
1, 20111, Note_off_c, 0, 53, 100
1, 20111, Note_on_c, 0, 55, 100
1, 20351, Note_off_c, 0, 55, 100
1, 20351, Note_on_c, 0, 57, 100
1, 20447, Note_off_c, 0, 57, 100
1, 20447, Note_on_c, 0, 58, 100
1, 20543, Note_off_c, 0, 58, 100
1, 20543, Note_on_c, 0, 60, 100
1, 20639, Note_off_c, 0, 60, 100
1, 20639, Note_on_c, 0, 62, 100
1, 20927, Note_off_c, 0, 62, 100
1, 20927, Note_on_c, 0, 58, 100
1, 21055, Note_off_c, 0, 58, 100
1, 21055, Note_on_c, 0, 55, 100
1, 21215, Note_off_c, 0, 55, 100
1, 21215, Note_on_c, 0, 60, 100
1, 21455, Note_off_c, 0, 60, 100
1, 21455, Note_on_c, 0, 60, 100
1, 21695, Note_off_c, 0, 60, 100
1, 21695, Note_on_c, 0, 57, 100
1, 21887, Note_off_c, 0, 57, 100
1, 21887, Note_on_c, 0, 53, 100
1, 22175, Note_off_c, 0, 53, 100
1, 22175, Note_on_c, 0, 58, 100
1, 22271, Note_off_c, 0, 58, 100
1, 22271, Note_on_c, 0, 60, 100
1, 22463, Note_off_c, 0, 60, 100
1, 22463, Note_on_c, 0, 58, 100
1, 22559, Note_off_c, 0, 58, 100
1, 22559, Note_on_c, 0, 59, 100
1, 22607, Note_off_c, 0, 59, 100
1, 22607, Note_on_c, 0, 58, 100
1, 22655, Note_off_c, 0, 58, 100
1, 22655, Note_on_c, 0, 56, 100
1, 22783, Note_off_c, 0, 56, 100
1, 22783, Note_on_c, 0, 53, 100
1, 22847, Note_off_c, 0, 53, 100
1, 22847, Note_on_c, 0, 50, 100
1, 22943, Note_off_c, 0, 50, 100
1, 22943, Note_on_c, 0, 48, 100
1, 23039, Note_off_c, 0, 48, 100
1, 23039, Note_on_c, 0, 53, 100
1, 23327, Note_off_c, 0, 53, 100
1, 23327, Note_on_c, 0, 53, 100
1, 23423, Note_off_c, 0, 53, 100
1, 24575, Note_on_c, 0, 53, 100
1, 24767, Note_off_c, 0, 53, 100
1, 24767, Note_on_c, 0, 57, 100
1, 24895, Note_off_c, 0, 57, 100
1, 24895, Note_on_c, 0, 62, 100
1, 24959, Note_off_c, 0, 62, 100
1, 24959, Note_on_c, 0, 60, 100
1, 25151, Note_off_c, 0, 60, 100
1, 25151, Note_on_c, 0, 62, 100
1, 25343, Note_off_c, 0, 62, 100
1, 25343, Note_on_c, 0, 55, 100
1, 25439, Note_off_c, 0, 55, 100
1, 25439, Note_on_c, 0, 57, 100
1, 25535, Note_off_c, 0, 57, 100
1, 25535, Note_on_c, 0, 58, 100
1, 25679, Note_off_c, 0, 58, 100
1, 25679, Note_on_c, 0, 60, 100
1, 25727, Note_off_c, 0, 60, 100
1, 25727, Note_on_c, 0, 62, 100
1, 25919, Note_off_c, 0, 62, 100
1, 25919, Note_on_c, 0, 60, 100
1, 26111, Note_off_c, 0, 60, 100
1, 26111, Note_on_c, 0, 62, 100
1, 26399, Note_off_c, 0, 62, 100
1, 26399, Note_on_c, 0, 60, 100
1, 26543, Note_off_c, 0, 60, 100
1, 26543, Note_on_c, 0, 57, 100
1, 26639, Note_off_c, 0, 57, 100
1, 26639, Note_on_c, 0, 55, 100
1, 26735, Note_off_c, 0, 55, 100
1, 27359, Note_on_c, 0, 59, 100
1, 27455, Note_off_c, 0, 59, 100
1, 27455, Note_on_c, 0, 60, 100
1, 27647, Note_off_c, 0, 60, 100
1, 27647, Note_on_c, 0, 53, 100
1, 27839, Note_off_c, 0, 53, 100
1, 27839, Note_on_c, 0, 57, 100
1, 27935, Note_off_c, 0, 57, 100
1, 27935, Note_on_c, 0, 62, 100
1, 28031, Note_off_c, 0, 62, 100
1, 28031, Note_on_c, 0, 60, 100
1, 28223, Note_off_c, 0, 60, 100
1, 28223, Note_on_c, 0, 62, 100
1, 28415, Note_off_c, 0, 62, 100
1, 28415, Note_on_c, 0, 65, 100
1, 28703, Note_off_c, 0, 65, 100
1, 28703, Note_on_c, 0, 61, 100
1, 28799, Note_off_c, 0, 61, 100
1, 28799, Note_on_c, 0, 60, 100
1, 28895, Note_off_c, 0, 60, 100
1, 28895, Note_on_c, 0, 58, 100
1, 28991, Note_off_c, 0, 58, 100
1, 28991, Note_on_c, 0, 55, 100
1, 29087, Note_off_c, 0, 55, 100
1, 29087, Note_on_c, 0, 56, 100
1, 29183, Note_off_c, 0, 56, 100
1, 29183, Note_on_c, 0, 57, 100
1, 29311, Note_off_c, 0, 57, 100
1, 29311, Note_on_c, 0, 60, 100
1, 29375, Note_off_c, 0, 60, 100
1, 29375, Note_on_c, 0, 62, 100
1, 29567, Note_off_c, 0, 62, 100
1, 29567, Note_on_c, 0, 63, 100
1, 29663, Note_off_c, 0, 63, 100
1, 29663, Note_on_c, 0, 64, 100
1, 29759, Note_off_c, 0, 64, 100
1, 29759, Note_on_c, 0, 62, 100
1, 29855, Note_off_c, 0, 62, 100
1, 29855, Note_on_c, 0, 60, 100
1, 30047, Note_off_c, 0, 60, 100
1, 30047, Note_on_c, 0, 53, 100
1, 30239, Note_off_c, 0, 53, 100
1, 30239, Note_on_c, 0, 53, 100
1, 30335, Note_off_c, 0, 53, 100
1, 30335, Note_on_c, 0, 60, 100
1, 30527, Note_off_c, 0, 60, 100
1, 30527, Note_on_c, 0, 53, 100
1, 30719, Note_off_c, 0, 53, 100
1, 30719, Note_on_c, 0, 58, 100
1, 31103, Note_off_c, 0, 58, 100
1, 31103, Note_on_c, 0, 60, 100
1, 31391, Note_off_c, 0, 60, 100
1, 31391, Note_on_c, 0, 55, 100
1, 31487, Note_off_c, 0, 55, 100
1, 32159, Note_on_c, 0, 60, 100
1, 32207, Note_off_c, 0, 60, 100
1, 32207, Note_on_c, 0, 58, 100
1, 32351, Note_off_c, 0, 58, 100
1, 32351, Note_on_c, 0, 60, 100
1, 32447, Note_off_c, 0, 60, 100
1, 32447, Note_on_c, 0, 57, 100
1, 32543, Note_off_c, 0, 57, 100
1, 32543, Note_on_c, 0, 58, 100
1, 32639, Note_off_c, 0, 58, 100
1, 32639, Note_on_c, 0, 57, 100
1, 32735, Note_off_c, 0, 57, 100
1, 32735, Note_on_c, 0, 55, 100
1, 32831, Note_off_c, 0, 55, 100
1, 32831, Note_on_c, 0, 53, 100
1, 32927, Note_off_c, 0, 53, 100
1, 32927, Note_on_c, 0, 51, 100
1, 33023, Note_off_c, 0, 51, 100
1, 33023, Note_on_c, 0, 52, 100
1, 33119, Note_off_c, 0, 52, 100
1, 33119, Note_on_c, 0, 55, 100
1, 33215, Note_off_c, 0, 55, 100
1, 33215, Note_on_c, 0, 57, 100
1, 33407, Note_off_c, 0, 57, 100
1, 33407, Note_on_c, 0, 60, 100
1, 33455, Note_off_c, 0, 60, 100
1, 33455, Note_on_c, 0, 63, 100
1, 33551, Note_off_c, 0, 63, 100
1, 33551, Note_on_c, 0, 61, 100
1, 33599, Note_off_c, 0, 61, 100
1, 33599, Note_on_c, 0, 60, 100
1, 33695, Note_off_c, 0, 60, 100
1, 33695, Note_on_c, 0, 58, 100
1, 33791, Note_off_c, 0, 58, 100
1, 33983, Note_on_c, 0, 62, 100
1, 34079, Note_off_c, 0, 62, 100
1, 34079, Note_on_c, 0, 59, 100
1, 34175, Note_off_c, 0, 59, 100
1, 34175, Note_on_c, 0, 60, 100
1, 34271, Note_off_c, 0, 60, 100
1, 34271, Note_on_c, 0, 57, 100
1, 34367, Note_off_c, 0, 57, 100
1, 34367, Note_on_c, 0, 53, 100
1, 34559, Note_off_c, 0, 53, 100
1, 34559, Note_on_c, 0, 58, 100
1, 34751, Note_off_c, 0, 58, 100
1, 34751, Note_on_c, 0, 58, 100
1, 34847, Note_off_c, 0, 58, 100
1, 34847, Note_on_c, 0, 56, 100
1, 34943, Note_off_c, 0, 56, 100
1, 34943, Note_on_c, 0, 55, 100
1, 35039, Note_off_c, 0, 55, 100
1, 35039, Note_on_c, 0, 53, 100
1, 35135, Note_off_c, 0, 53, 100
1, 35135, Note_on_c, 0, 52, 100
1, 35231, Note_off_c, 0, 52, 100
1, 35231, Note_on_c, 0, 50, 100
1, 35327, Note_off_c, 0, 50, 100
1, 35327, Note_on_c, 0, 48, 100
1, 35375, Note_off_c, 0, 48, 100
1, 35375, Note_on_c, 0, 47, 100
1, 35471, Note_off_c, 0, 47, 100
1, 35471, Note_on_c, 0, 50, 100
1, 35615, Note_off_c, 0, 50, 100
1, 35615, Note_on_c, 0, 47, 100
1, 35663, Note_off_c, 0, 47, 100
1, 35663, Note_on_c, 0, 48, 100
1, 35807, Note_off_c, 0, 48, 100
1, 35807, Note_on_c, 0, 50, 100
1, 35903, Note_off_c, 0, 50, 100
1, 35903, Note_on_c, 0, 52, 100
1, 35999, Note_off_c, 0, 52, 100
1, 35999, Note_on_c, 0, 53, 100
1, 36095, Note_off_c, 0, 53, 100
1, 36095, Note_on_c, 0, 55, 100
1, 36223, Note_off_c, 0, 55, 100
1, 36223, Note_on_c, 0, 51, 100
1, 36287, Note_off_c, 0, 51, 100
1, 36287, Note_on_c, 0, 53, 100
1, 36415, Note_off_c, 0, 53, 100
1, 36415, Note_on_c, 0, 57, 100
1, 36479, Note_off_c, 0, 57, 100
1, 36479, Note_on_c, 0, 60, 100
1, 36543, Note_off_c, 0, 60, 100
1, 36543, Note_on_c, 0, 62, 100
1, 36607, Note_off_c, 0, 62, 100
1, 36607, Note_on_c, 0, 64, 100
1, 36671, Note_off_c, 0, 64, 100
1, 36671, Note_on_c, 0, 65, 100
1, 36863, Note_off_c, 0, 65, 100
1, 36863, Note_on_c, 0, 61, 100
1, 36959, Note_off_c, 0, 61, 100
1, 37631, Note_on_c, 0, 53, 100
1, 37695, Note_off_c, 0, 53, 100
1, 37695, Note_on_c, 0, 55, 100
1, 37759, Note_off_c, 0, 55, 100
1, 37759, Note_on_c, 0, 60, 100
1, 37823, Note_off_c, 0, 60, 100
1, 37823, Note_on_c, 0, 65, 100
1, 38015, Note_off_c, 0, 65, 100
1, 38015, Note_on_c, 0, 61, 100
1, 38207, Note_off_c, 0, 61, 100
1, 38207, Note_on_c, 0, 58, 100
1, 38399, Note_off_c, 0, 58, 100
1, 38399, Note_on_c, 0, 64, 100
1, 38687, Note_off_c, 0, 64, 100
1, 38687, Note_on_c, 0, 60, 100
1, 38783, Note_off_c, 0, 60, 100
1, 38783, Note_on_c, 0, 57, 100
1, 38879, Note_off_c, 0, 57, 100
1, 38879, Note_on_c, 0, 54, 100
1, 38975, Note_off_c, 0, 54, 100
1, 39503, Note_on_c, 0, 54, 100
1, 39615, Note_off_c, 0, 54, 100
1, 39615, Note_on_c, 0, 57, 100
1, 39679, Note_off_c, 0, 57, 100
1, 39679, Note_on_c, 0, 60, 100
1, 39743, Note_off_c, 0, 60, 100
1, 39743, Note_on_c, 0, 63, 100
1, 39935, Note_off_c, 0, 63, 100
1, 39935, Note_on_c, 0, 62, 100
1, 40031, Note_off_c, 0, 62, 100
1, 40031, Note_on_c, 0, 61, 100
1, 40127, Note_off_c, 0, 61, 100
1, 40127, Note_on_c, 0, 60, 100
1, 40223, Note_off_c, 0, 60, 100
1, 40223, Note_on_c, 0, 58, 100
1, 40319, Note_off_c, 0, 58, 100
1, 40319, Note_on_c, 0, 59, 100
1, 40415, Note_off_c, 0, 59, 100
1, 40415, Note_on_c, 0, 62, 100
1, 40463, Note_off_c, 0, 62, 100
1, 40463, Note_on_c, 0, 64, 100
1, 40607, Note_off_c, 0, 64, 100
1, 40607, Note_on_c, 0, 62, 100
1, 40703, Note_off_c, 0, 62, 100
1, 40703, Note_on_c, 0, 67, 100
1, 40799, Note_off_c, 0, 67, 100
1, 40799, Note_on_c, 0, 64, 100
1, 40895, Note_off_c, 0, 64, 100
1, 40895, Note_on_c, 0, 65, 100
1, 40991, Note_off_c, 0, 65, 100
1, 40991, Note_on_c, 0, 64, 100
1, 41087, Note_off_c, 0, 64, 100
1, 41087, Note_on_c, 0, 62, 100
1, 41151, Note_off_c, 0, 62, 100
1, 41151, Note_on_c, 0, 64, 100
1, 41279, Note_off_c, 0, 64, 100
1, 41279, Note_on_c, 0, 60, 100
1, 41327, Note_off_c, 0, 60, 100
1, 41327, Note_on_c, 0, 62, 100
1, 41423, Note_off_c, 0, 62, 100
1, 41663, Note_on_c, 0, 60, 100
1, 41759, Note_off_c, 0, 60, 100
1, 41759, Note_on_c, 0, 59, 100
1, 41855, Note_off_c, 0, 59, 100
1, 41855, Note_on_c, 0, 58, 100
1, 41951, Note_off_c, 0, 58, 100
1, 41951, Note_on_c, 0, 56, 100
1, 42047, Note_off_c, 0, 56, 100
1, 42047, Note_on_c, 0, 57, 100
1, 42143, Note_off_c, 0, 57, 100
1, 42143, Note_on_c, 0, 55, 100
1, 42239, Note_off_c, 0, 55, 100
1, 42239, Note_on_c, 0, 53, 100
1, 42335, Note_off_c, 0, 53, 100
1, 42335, Note_on_c, 0, 51, 100
1, 42431, Note_off_c, 0, 51, 100
1, 42431, Note_on_c, 0, 52, 100
1, 42527, Note_off_c, 0, 52, 100
1, 42527, Note_on_c, 0, 55, 100
1, 42623, Note_off_c, 0, 55, 100
1, 42623, Note_on_c, 0, 58, 100
1, 42719, Note_off_c, 0, 58, 100
1, 42719, Note_on_c, 0, 60, 100
1, 42815, Note_off_c, 0, 60, 100
1, 42815, Note_on_c, 0, 62, 100
1, 42911, Note_off_c, 0, 62, 100
1, 42911, Note_on_c, 0, 61, 100
1, 43007, Note_off_c, 0, 61, 100
1, 43007, Note_on_c, 0, 60, 100
1, 43103, Note_off_c, 0, 60, 100
1, 43103, Note_on_c, 0, 55, 100
1, 43199, Note_off_c, 0, 55, 100
1, 43391, Note_on_c, 0, 60, 100
1, 43487, Note_off_c, 0, 60, 100
1, 43487, Note_on_c, 0, 65, 100
1, 43775, Note_off_c, 0, 65, 100
1, 43775, Note_on_c, 0, 60, 100
1, 43871, Note_off_c, 0, 60, 100
1, 44063, Note_on_c, 0, 55, 100
1, 44159, Note_off_c, 0, 55, 100
1, 44159, Note_on_c, 0, 60, 100
1, 44255, Note_off_c, 0, 60, 100
1, 44255, Note_on_c, 0, 65, 100
1, 44543, Note_off_c, 0, 65, 100
1, 44543, Note_on_c, 0, 60, 100
1, 44735, Note_off_c, 0, 60, 100
1, 44735, Note_on_c, 0, 55, 100
1, 44927, Note_off_c, 0, 55, 100
1, 44927, Note_on_c, 0, 58, 100
1, 45023, Note_off_c, 0, 58, 100
1, 45023, Note_on_c, 0, 57, 100
1, 45119, Note_off_c, 0, 57, 100
1, 45119, Note_on_c, 0, 55, 100
1, 45215, Note_off_c, 0, 55, 100
1, 45215, Note_on_c, 0, 53, 100
1, 45311, Note_off_c, 0, 53, 100
1, 45311, Note_on_c, 0, 52, 100
1, 45407, Note_off_c, 0, 52, 100
1, 45407, Note_on_c, 0, 48, 100
1, 45503, Note_off_c, 0, 48, 100
1, 45791, Note_on_c, 0, 61, 100
1, 45983, Note_off_c, 0, 61, 100
1, 45983, Note_on_c, 0, 62, 100
1, 46079, Note_off_c, 0, 62, 100
1, 46079, Note_on_c, 0, 60, 100
1, 46367, Note_off_c, 0, 60, 100
1, 46847, Note_on_c, 0, 65, 100
1, 47039, Note_off_c, 0, 65, 100
1, 47039, Note_on_c, 0, 55, 100
1, 47135, Note_off_c, 0, 55, 100
1, 47135, Note_on_c, 0, 65, 100
1, 47231, Note_off_c, 0, 65, 100
1, 47231, Note_on_c, 0, 68, 100
1, 47327, Note_off_c, 0, 68, 100
1, 47327, Note_on_c, 0, 68, 100
1, 47423, Note_off_c, 0, 68, 100
1, 47423, Note_on_c, 0, 67, 100
1, 47519, Note_off_c, 0, 67, 100
1, 47519, Note_on_c, 0, 67, 100
1, 47615, Note_off_c, 0, 67, 100
1, 47615, Note_on_c, 0, 65, 100
1, 47711, Note_off_c, 0, 65, 100
1, 47711, Note_on_c, 0, 65, 100
1, 47807, Note_off_c, 0, 65, 100
1, 47807, Note_on_c, 0, 60, 100
1, 47999, Note_off_c, 0, 60, 100
1, 47999, Note_on_c, 0, 62, 100
1, 48191, Note_off_c, 0, 62, 100
1, 48191, Note_on_c, 0, 60, 100
1, 48479, Note_off_c, 0, 60, 100
1, 49247, Note_on_c, 0, 60, 100
1, 49439, Note_off_c, 0, 60, 100
1, 49439, Note_on_c, 0, 60, 100
1, 49535, Note_off_c, 0, 60, 100
1, 49535, Note_on_c, 0, 62, 100
1, 50367, Note_off_c, 0, 62, 100
1, 50367, Note_on_c, 0, 67, 100
1, 50431, Note_off_c, 0, 67, 100
1, 50431, Note_on_c, 0, 69, 100
1, 50687, Note_off_c, 0, 69, 100
1, 50687, Note_on_c, 0, 62, 100
1, 50975, Note_off_c, 0, 62, 100
1, 50975, Note_on_c, 0, 69, 100
1, 51839, Note_off_c, 0, 69, 100
1, 51839, Note_on_c, 0, 62, 100
1, 52031, Note_off_c, 0, 62, 100
1, 52031, Note_on_c, 0, 68, 100
1, 52223, Note_off_c, 0, 68, 100
1, 52223, Note_on_c, 0, 67, 100
1, 52319, Note_off_c, 0, 67, 100
1, 52319, Note_on_c, 0, 65, 100
1, 52415, Note_off_c, 0, 65, 100
1, 52415, Note_on_c, 0, 67, 100
1, 52511, Note_off_c, 0, 67, 100
1, 52511, Note_on_c, 0, 65, 100
1, 52607, Note_off_c, 0, 65, 100
1, 52607, Note_on_c, 0, 63, 100
1, 52703, Note_off_c, 0, 63, 100
1, 52703, Note_on_c, 0, 60, 100
1, 52799, Note_off_c, 0, 60, 100
1, 52799, Note_on_c, 0, 57, 100
1, 52943, Note_off_c, 0, 57, 100
1, 52943, Note_on_c, 0, 53, 100
1, 52991, Note_off_c, 0, 53, 100
1, 52991, Note_on_c, 0, 55, 100
1, 53087, Note_off_c, 0, 55, 100
1, 53087, Note_on_c, 0, 56, 100
1, 53183, Note_off_c, 0, 56, 100
1, 53183, Note_on_c, 0, 58, 100
1, 53375, Note_off_c, 0, 58, 100
1, 53375, Note_on_c, 0, 59, 100
1, 53567, Note_off_c, 0, 59, 100
1, 53567, Note_on_c, 0, 62, 100
1, 53663, Note_off_c, 0, 62, 100
1, 53663, Note_on_c, 0, 59, 100
1, 53759, Note_off_c, 0, 59, 100
1, 53759, Note_on_c, 0, 60, 100
1, 53855, Note_off_c, 0, 60, 100
1, 53855, Note_on_c, 0, 62, 100
1, 53951, Note_off_c, 0, 62, 100
1, 53951, Note_on_c, 0, 64, 100
1, 54047, Note_off_c, 0, 64, 100
1, 54047, Note_on_c, 0, 65, 100
1, 54095, Note_off_c, 0, 65, 100
1, 54095, Note_on_c, 0, 67, 100
1, 54239, Note_off_c, 0, 67, 100
1, 54239, Note_on_c, 0, 65, 100
1, 54335, Note_off_c, 0, 65, 100
1, 54335, Note_on_c, 0, 67, 100
1, 54431, Note_off_c, 0, 67, 100
1, 54431, Note_on_c, 0, 65, 100
1, 54527, Note_off_c, 0, 65, 100
1, 55103, Note_on_c, 0, 62, 100
1, 55199, Note_off_c, 0, 62, 100
1, 55199, Note_on_c, 0, 64, 100
1, 55247, Note_off_c, 0, 64, 100
1, 55247, Note_on_c, 0, 65, 100
1, 55295, Note_off_c, 0, 65, 100
1, 55295, Note_on_c, 0, 69, 100
1, 55391, Note_off_c, 0, 69, 100
1, 55391, Note_on_c, 0, 60, 100
1, 55487, Note_off_c, 0, 60, 100
1, 55487, Note_on_c, 0, 62, 100
1, 55679, Note_off_c, 0, 62, 100
1, 55679, Note_on_c, 0, 67, 100
1, 56255, Note_off_c, 0, 67, 100
1, 56255, Note_on_c, 0, 62, 100
1, 56351, Note_off_c, 0, 62, 100
1, 56351, Note_on_c, 0, 65, 100
1, 56399, Note_off_c, 0, 65, 100
1, 56399, Note_on_c, 0, 67, 100
1, 56447, Note_off_c, 0, 67, 100
1, 56447, Note_on_c, 0, 69, 100
1, 56639, Note_off_c, 0, 69, 100
1, 56639, Note_on_c, 0, 62, 100
1, 56831, Note_off_c, 0, 62, 100
1, 56831, Note_on_c, 0, 67, 100
1, 56927, Note_off_c, 0, 67, 100
1, 56927, Note_on_c, 0, 65, 100
1, 57023, Note_off_c, 0, 65, 100
1, 57023, Note_on_c, 0, 67, 100
1, 57119, Note_off_c, 0, 67, 100
1, 57119, Note_on_c, 0, 65, 100
1, 57215, Note_off_c, 0, 65, 100
1, 57215, Note_on_c, 0, 64, 100
1, 57311, Note_off_c, 0, 64, 100
1, 57311, Note_on_c, 0, 62, 100
1, 57407, Note_off_c, 0, 62, 100
1, 57791, Note_on_c, 0, 65, 100
1, 57887, Note_off_c, 0, 65, 100
1, 57887, Note_on_c, 0, 62, 100
1, 57983, Note_off_c, 0, 62, 100
1, 57983, Note_on_c, 0, 64, 100
1, 58079, Note_off_c, 0, 64, 100
1, 58079, Note_on_c, 0, 62, 100
1, 58175, Note_off_c, 0, 62, 100
1, 58175, Note_on_c, 0, 60, 100
1, 58271, Note_off_c, 0, 60, 100
1, 58271, Note_on_c, 0, 59, 100
1, 58367, Note_off_c, 0, 59, 100
1, 58367, Note_on_c, 0, 58, 100
1, 58511, Note_off_c, 0, 58, 100
1, 58511, Note_on_c, 0, 56, 100
1, 58559, Note_off_c, 0, 56, 100
1, 58559, Note_on_c, 0, 57, 100
1, 58655, Note_off_c, 0, 57, 100
1, 58655, Note_on_c, 0, 58, 100
1, 58751, Note_off_c, 0, 58, 100
1, 58751, Note_on_c, 0, 59, 100
1, 58847, Note_off_c, 0, 59, 100
1, 58847, Note_on_c, 0, 60, 100
1, 58943, Note_off_c, 0, 60, 100
1, 58943, Note_on_c, 0, 62, 100
1, 59039, Note_off_c, 0, 62, 100
1, 59039, Note_on_c, 0, 59, 100
1, 59135, Note_off_c, 0, 59, 100
1, 59135, Note_on_c, 0, 60, 100
1, 59231, Note_off_c, 0, 60, 100
1, 59231, Note_on_c, 0, 62, 100
1, 59327, Note_off_c, 0, 62, 100
1, 59327, Note_on_c, 0, 63, 100
1, 59455, Note_off_c, 0, 63, 100
1, 59455, Note_on_c, 0, 64, 100
1, 59519, Note_off_c, 0, 64, 100
1, 59519, Note_on_c, 0, 63, 100
1, 59615, Note_off_c, 0, 63, 100
1, 59615, Note_on_c, 0, 62, 100
1, 59711, Note_off_c, 0, 62, 100
1, 59711, Note_on_c, 0, 61, 100
1, 59807, Note_off_c, 0, 61, 100
1, 59807, Note_on_c, 0, 60, 100
1, 59903, Note_off_c, 0, 60, 100
1, 60095, Note_on_c, 0, 59, 100
1, 60239, Note_off_c, 0, 59, 100
1, 60239, Note_on_c, 0, 62, 100
1, 60431, Note_off_c, 0, 62, 100
1, 60431, Note_on_c, 0, 60, 100
1, 60575, Note_off_c, 0, 60, 100
1, 60575, Note_on_c, 0, 57, 100
1, 60671, Note_off_c, 0, 57, 100
1, 60671, Note_on_c, 0, 53, 100
1, 60863, Note_off_c, 0, 53, 100
1, 60863, Note_on_c, 0, 58, 100
1, 60959, Note_off_c, 0, 58, 100
1, 60959, Note_on_c, 0, 57, 100
1, 61055, Note_off_c, 0, 57, 100
1, 61055, Note_on_c, 0, 55, 100
1, 61151, Note_off_c, 0, 55, 100
1, 61151, Note_on_c, 0, 53, 100
1, 61247, Note_off_c, 0, 53, 100
1, 61247, Note_on_c, 0, 51, 100
1, 61343, Note_off_c, 0, 51, 100
1, 61343, Note_on_c, 0, 52, 100
1, 61631, Note_off_c, 0, 52, 100
1, 61631, Note_on_c, 0, 55, 100
1, 61823, Note_off_c, 0, 55, 100
1, 61823, Note_on_c, 0, 59, 100
1, 61967, Note_off_c, 0, 59, 100
1, 61967, Note_on_c, 0, 62, 100
1, 62207, Note_off_c, 0, 62, 100
1, 62207, Note_on_c, 0, 66, 100
1, 62495, Note_off_c, 0, 66, 100
1, 62495, Note_on_c, 0, 62, 100
1, 62591, Note_off_c, 0, 62, 100
1, 62591, Note_on_c, 0, 65, 100
1, 62783, Note_off_c, 0, 65, 100
1, 62783, Note_on_c, 0, 61, 100
1, 62927, Note_off_c, 0, 61, 100
1, 62927, Note_on_c, 0, 63, 100
1, 62975, Note_off_c, 0, 63, 100
1, 62975, Note_on_c, 0, 64, 100
1, 63215, Note_off_c, 0, 64, 100
1, 63215, Note_on_c, 0, 60, 100
1, 63311, Note_off_c, 0, 60, 100
1, 63311, Note_on_c, 0, 57, 100
1, 63407, Note_off_c, 0, 57, 100
1, 63839, Note_on_c, 0, 57, 100
1, 63935, Note_off_c, 0, 57, 100
1, 63935, Note_on_c, 0, 60, 100
1, 64031, Note_off_c, 0, 60, 100
1, 64031, Note_on_c, 0, 64, 100
1, 64127, Note_off_c, 0, 64, 100
1, 64127, Note_on_c, 0, 63, 100
1, 64223, Note_off_c, 0, 63, 100
1, 64223, Note_on_c, 0, 60, 100
1, 64319, Note_off_c, 0, 60, 100
1, 64319, Note_on_c, 0, 57, 100
1, 64511, Note_off_c, 0, 57, 100
1, 64511, Note_on_c, 0, 61, 100
1, 64607, Note_off_c, 0, 61, 100
1, 64607, Note_on_c, 0, 62, 100
1, 64703, Note_off_c, 0, 62, 100
1, 64703, Note_on_c, 0, 59, 100
1, 64799, Note_off_c, 0, 59, 100
1, 64799, Note_on_c, 0, 55, 100
1, 64895, Note_off_c, 0, 55, 100
1, 65375, Note_on_c, 0, 55, 100
1, 65471, Note_off_c, 0, 55, 100
1, 65471, Note_on_c, 0, 59, 100
1, 65567, Note_off_c, 0, 59, 100
1, 65567, Note_on_c, 0, 62, 100
1, 65663, Note_off_c, 0, 62, 100
1, 65663, Note_on_c, 0, 61, 100
1, 65759, Note_off_c, 0, 61, 100
1, 65759, Note_on_c, 0, 59, 100
1, 65855, Note_off_c, 0, 59, 100
1, 66047, Note_on_c, 0, 60, 100
1, 66175, Note_off_c, 0, 60, 100
1, 66175, Note_on_c, 0, 59, 100
1, 66239, Note_off_c, 0, 59, 100
1, 66239, Note_on_c, 0, 58, 100
1, 66335, Note_off_c, 0, 58, 100
1, 66335, Note_on_c, 0, 56, 100
1, 66431, Note_off_c, 0, 56, 100
1, 66431, Note_on_c, 0, 57, 100
1, 66527, Note_off_c, 0, 57, 100
1, 66527, Note_on_c, 0, 60, 100
1, 66623, Note_off_c, 0, 60, 100
1, 66623, Note_on_c, 0, 62, 100
1, 66719, Note_off_c, 0, 62, 100
1, 67007, Note_on_c, 0, 54, 100
1, 67103, Note_off_c, 0, 54, 100
1, 67103, Note_on_c, 0, 57, 100
1, 67199, Note_off_c, 0, 57, 100
1, 67199, Note_on_c, 0, 60, 100
1, 67295, Note_off_c, 0, 60, 100
1, 67295, Note_on_c, 0, 63, 100
1, 67391, Note_off_c, 0, 63, 100
1, 67391, Note_on_c, 0, 60, 100
1, 67487, Note_off_c, 0, 60, 100
1, 67487, Note_on_c, 0, 61, 100
1, 67583, Note_off_c, 0, 61, 100
1, 67583, Note_on_c, 0, 62, 100
1, 67679, Note_off_c, 0, 62, 100
1, 67679, Note_on_c, 0, 61, 100
1, 67775, Note_off_c, 0, 61, 100
1, 67775, Note_on_c, 0, 60, 100
1, 67871, Note_off_c, 0, 60, 100
1, 67871, Note_on_c, 0, 59, 100
1, 67967, Note_off_c, 0, 59, 100
1, 67967, Note_on_c, 0, 58, 100
1, 68063, Note_off_c, 0, 58, 100
1, 68063, Note_on_c, 0, 56, 100
1, 68159, Note_off_c, 0, 56, 100
1, 68159, Note_on_c, 0, 57, 100
1, 68255, Note_off_c, 0, 57, 100
1, 68255, Note_on_c, 0, 55, 100
1, 68351, Note_off_c, 0, 55, 100
1, 68351, Note_on_c, 0, 53, 100
1, 68447, Note_off_c, 0, 53, 100
1, 68447, Note_on_c, 0, 51, 100
1, 68543, Note_off_c, 0, 51, 100
1, 68543, Note_on_c, 0, 52, 100
1, 68639, Note_off_c, 0, 52, 100
1, 68639, Note_on_c, 0, 55, 100
1, 68735, Note_off_c, 0, 55, 100
1, 68735, Note_on_c, 0, 57, 100
1, 68831, Note_off_c, 0, 57, 100
1, 68831, Note_on_c, 0, 60, 100
1, 68927, Note_off_c, 0, 60, 100
1, 68927, Note_on_c, 0, 63, 100
1, 69183, Note_off_c, 0, 63, 100
1, 69183, Note_on_c, 0, 63, 100
1, 69247, Note_off_c, 0, 63, 100
1, 69247, Note_on_c, 0, 61, 100
1, 69311, Note_off_c, 0, 61, 100
1, 69311, Note_on_c, 0, 60, 100
1, 69407, Note_off_c, 0, 60, 100
1, 69407, Note_on_c, 0, 58, 100
1, 69503, Note_off_c, 0, 58, 100
1, 69503, Note_on_c, 0, 60, 100
1, 69647, Note_off_c, 0, 60, 100
1, 69647, Note_on_c, 0, 58, 100
1, 69743, Note_off_c, 0, 58, 100
1, 70079, Note_on_c, 0, 60, 100
1, 70175, Note_off_c, 0, 60, 100
1, 70175, Note_on_c, 0, 59, 100
1, 70271, Note_off_c, 0, 59, 100
1, 70271, Note_on_c, 0, 58, 100
1, 70367, Note_off_c, 0, 58, 100
1, 70367, Note_on_c, 0, 56, 100
1, 70463, Note_off_c, 0, 56, 100
1, 70463, Note_on_c, 0, 57, 100
1, 70559, Note_off_c, 0, 57, 100
1, 70559, Note_on_c, 0, 60, 100
1, 70607, Note_off_c, 0, 60, 100
1, 70607, Note_on_c, 0, 62, 100
1, 70703, Note_off_c, 0, 62, 100
1, 70703, Note_on_c, 0, 65, 100
1, 70799, Note_off_c, 0, 65, 100
1, 70799, Note_on_c, 0, 65, 100
1, 71039, Note_off_c, 0, 65, 100
1, 71039, Note_on_c, 0, 53, 100
1, 71135, Note_off_c, 0, 53, 100
1, 71327, Note_on_c, 0, 65, 100
1, 71615, Note_off_c, 0, 65, 100
1, 71615, Note_on_c, 0, 65, 100
1, 71711, Note_off_c, 0, 65, 100
1, 71711, Note_on_c, 0, 65, 100
1, 71807, Note_off_c, 0, 65, 100
1, 71807, Note_on_c, 0, 65, 100
1, 71903, Note_off_c, 0, 65, 100
1, 71903, Note_on_c, 0, 65, 100
1, 72191, Note_off_c, 0, 65, 100
1, 72191, Note_on_c, 0, 65, 100
1, 72335, Note_off_c, 0, 65, 100
1, 72335, Note_on_c, 0, 65, 100
1, 72479, Note_off_c, 0, 65, 100
1, 72479, Note_on_c, 0, 65, 100
1, 72575, Note_off_c, 0, 65, 100
1, 73343, Note_on_c, 0, 60, 100
1, 73471, Note_off_c, 0, 60, 100
1, 73471, Note_on_c, 0, 62, 100
1, 73535, Note_off_c, 0, 62, 100
1, 73535, Note_on_c, 0, 64, 100
1, 73631, Note_off_c, 0, 64, 100
1, 73631, Note_on_c, 0, 65, 100
1, 73727, Note_off_c, 0, 65, 100
1, 73727, Note_on_c, 0, 58, 100
1, 73823, Note_off_c, 0, 58, 100
1, 73823, Note_on_c, 0, 60, 100
1, 73919, Note_off_c, 0, 60, 100
1, 73919, Note_on_c, 0, 62, 100
1, 74015, Note_off_c, 0, 62, 100
1, 74015, Note_on_c, 0, 64, 100
1, 74111, Note_off_c, 0, 64, 100
1, 74111, Note_on_c, 0, 55, 100
1, 74207, Note_off_c, 0, 55, 100
1, 74207, Note_on_c, 0, 57, 100
1, 74303, Note_off_c, 0, 57, 100
1, 74303, Note_on_c, 0, 58, 100
1, 74495, Note_off_c, 0, 58, 100
1, 74495, Note_on_c, 0, 62, 100
1, 74591, Note_off_c, 0, 62, 100
1, 74591, Note_on_c, 0, 60, 100
1, 74687, Note_off_c, 0, 60, 100
1, 74687, Note_on_c, 0, 58, 100
1, 74783, Note_off_c, 0, 58, 100
1, 74783, Note_on_c, 0, 57, 100
1, 74879, Note_off_c, 0, 57, 100
1, 74879, Note_on_c, 0, 55, 100
1, 75007, Note_off_c, 0, 55, 100
1, 75007, Note_on_c, 0, 53, 100
1, 75071, Note_off_c, 0, 53, 100
1, 75071, Note_on_c, 0, 50, 100
1, 75167, Note_off_c, 0, 50, 100
1, 75167, Note_on_c, 0, 51, 100
1, 75263, Note_off_c, 0, 51, 100
1, 75263, Note_on_c, 0, 52, 100
1, 75359, Note_off_c, 0, 52, 100
1, 75359, Note_on_c, 0, 55, 100
1, 75455, Note_off_c, 0, 55, 100
1, 75455, Note_on_c, 0, 57, 100
1, 75551, Note_off_c, 0, 57, 100
1, 75551, Note_on_c, 0, 62, 100
1, 75647, Note_off_c, 0, 62, 100
1, 75647, Note_on_c, 0, 66, 100
1, 75743, Note_off_c, 0, 66, 100
1, 75743, Note_on_c, 0, 62, 100
1, 75839, Note_off_c, 0, 62, 100
1, 75839, Note_on_c, 0, 58, 100
1, 76031, Note_off_c, 0, 58, 100
1, 76031, Note_on_c, 0, 65, 100
1, 76223, Note_off_c, 0, 65, 100
1, 76223, Note_on_c, 0, 63, 100
1, 76319, Note_off_c, 0, 63, 100
1, 76319, Note_on_c, 0, 64, 100
1, 76415, Note_off_c, 0, 64, 100
1, 76415, Note_on_c, 0, 60, 100
1, 76511, Note_off_c, 0, 60, 100
1, 76511, Note_on_c, 0, 61, 100
1, 76607, Note_off_c, 0, 61, 100
1, 76607, Note_on_c, 0, 62, 100
1, 76703, Note_off_c, 0, 62, 100
1, 76703, Note_on_c, 0, 61, 100
1, 76799, Note_off_c, 0, 61, 100
1, 76799, Note_on_c, 0, 60, 100
1, 76895, Note_off_c, 0, 60, 100
1, 76895, Note_on_c, 0, 59, 100
1, 76991, Note_off_c, 0, 59, 100
1, 76991, Note_on_c, 0, 58, 100
1, 77087, Note_off_c, 0, 58, 100
1, 77087, Note_on_c, 0, 56, 100
1, 77183, Note_off_c, 0, 56, 100
1, 77183, Note_on_c, 0, 57, 100
1, 77279, Note_off_c, 0, 57, 100
1, 77279, Note_on_c, 0, 55, 100
1, 77375, Note_off_c, 0, 55, 100
1, 77375, Note_on_c, 0, 53, 100
1, 77567, Note_off_c, 0, 53, 100
1, 77567, Note_on_c, 0, 56, 100
1, 77823, Note_off_c, 0, 56, 100
1, 77823, Note_on_c, 0, 55, 100
1, 77951, Note_off_c, 0, 55, 100
1, 77951, Note_on_c, 0, 53, 100
1, 78143, Note_off_c, 0, 53, 100
1, 78815, Note_on_c, 0, 56, 100
1, 78911, Note_off_c, 0, 56, 100
1, 78911, Note_on_c, 0, 55, 100
1, 79007, Note_off_c, 0, 55, 100
1, 79007, Note_on_c, 0, 53, 100
1, 79103, Note_off_c, 0, 53, 100
1, 79103, Note_on_c, 0, 51, 100
1, 79199, Note_off_c, 0, 51, 100
1, 79199, Note_on_c, 0, 52, 100
1, 79295, Note_off_c, 0, 52, 100
1, 79295, Note_on_c, 0, 50, 100
1, 79391, Note_off_c, 0, 50, 100
1, 79391, Note_on_c, 0, 48, 100
1, 79487, Note_off_c, 0, 48, 100
1, 79967, Note_on_c, 0, 48, 100
1, 80063, Note_off_c, 0, 48, 100
1, 80063, Note_on_c, 0, 49, 100
1, 80159, Note_off_c, 0, 49, 100
1, 80159, Note_on_c, 0, 50, 100
1, 80255, Note_off_c, 0, 50, 100
1, 80255, Note_on_c, 0, 53, 100
1, 80383, Note_off_c, 0, 53, 100
1, 80383, Note_on_c, 0, 55, 100
1, 80447, Note_off_c, 0, 55, 100
1, 80447, Note_on_c, 0, 57, 100
1, 80639, Note_off_c, 0, 57, 100
1, 80639, Note_on_c, 0, 60, 100
1, 80927, Note_off_c, 0, 60, 100
1, 80927, Note_on_c, 0, 59, 100
1, 81023, Note_off_c, 0, 59, 100
1, 81023, Note_on_c, 0, 58, 100
1, 81151, Note_off_c, 0, 58, 100
1, 81151, Note_on_c, 0, 55, 100
1, 81247, Note_off_c, 0, 55, 100
1, 81503, Note_on_c, 0, 48, 100
1, 81599, Note_off_c, 0, 48, 100
1, 81599, Note_on_c, 0, 49, 100
1, 81695, Note_off_c, 0, 49, 100
1, 81695, Note_on_c, 0, 50, 100
1, 81791, Note_off_c, 0, 50, 100
1, 81791, Note_on_c, 0, 53, 100
1, 81887, Note_off_c, 0, 53, 100
1, 81887, Note_on_c, 0, 57, 100
1, 81983, Note_off_c, 0, 57, 100
1, 81983, Note_on_c, 0, 60, 100
1, 82175, Note_off_c, 0, 60, 100
1, 82175, Note_on_c, 0, 57, 100
1, 82367, Note_off_c, 0, 57, 100
1, 82367, Note_on_c, 0, 58, 100
1, 82559, Note_off_c, 0, 58, 100
1, 82559, Note_on_c, 0, 55, 100
1, 82847, Note_off_c, 0, 55, 100
1, 82847, Note_on_c, 0, 56, 100
1, 82943, Note_off_c, 0, 56, 100
1, 82943, Note_on_c, 0, 57, 100
1, 83039, Note_off_c, 0, 57, 100
1, 83039, Note_on_c, 0, 60, 100
1, 83135, Note_off_c, 0, 60, 100
1, 83135, Note_on_c, 0, 62, 100
1, 83231, Note_off_c, 0, 62, 100
1, 83231, Note_on_c, 0, 61, 100
1, 83327, Note_off_c, 0, 61, 100
1, 83327, Note_on_c, 0, 60, 100
1, 83455, Note_off_c, 0, 60, 100
1, 83455, Note_on_c, 0, 57, 100
1, 83519, Note_off_c, 0, 57, 100
1, 83519, Note_on_c, 0, 53, 100
1, 83711, Note_off_c, 0, 53, 100
1, 83711, Note_on_c, 0, 58, 100
1, 83807, Note_off_c, 0, 58, 100
1, 83807, Note_on_c, 0, 56, 100
1, 83903, Note_off_c, 0, 56, 100
1, 83903, Note_on_c, 0, 58, 100
1, 83999, Note_off_c, 0, 58, 100
1, 83999, Note_on_c, 0, 56, 100
1, 84095, Note_off_c, 0, 56, 100
1, 84095, Note_on_c, 0, 55, 100
1, 84191, Note_off_c, 0, 55, 100
1, 84191, Note_on_c, 0, 53, 100
1, 84287, Note_off_c, 0, 53, 100
1, 84287, Note_on_c, 0, 52, 100
1, 84383, Note_off_c, 0, 52, 100
1, 84383, Note_on_c, 0, 50, 100
1, 84479, Note_off_c, 0, 50, 100
1, 84479, Note_on_c, 0, 48, 100
1, 84527, Note_off_c, 0, 48, 100
1, 84527, Note_on_c, 0, 47, 100
1, 84623, Note_off_c, 0, 47, 100
1, 84623, Note_on_c, 0, 50, 100
1, 84767, Note_off_c, 0, 50, 100
1, 84767, Note_on_c, 0, 47, 100
1, 84863, Note_off_c, 0, 47, 100
1, 84863, Note_on_c, 0, 48, 100
1, 84959, Note_off_c, 0, 48, 100
1, 84959, Note_on_c, 0, 50, 100
1, 85007, Note_off_c, 0, 50, 100
1, 85007, Note_on_c, 0, 52, 100
1, 85151, Note_off_c, 0, 52, 100
1, 85151, Note_on_c, 0, 53, 100
1, 85247, Note_off_c, 0, 53, 100
1, 85247, Note_on_c, 0, 55, 100
1, 85375, Note_off_c, 0, 55, 100
1, 85375, Note_on_c, 0, 53, 100
1, 85535, Note_off_c, 0, 53, 100
1, 85535, Note_on_c, 0, 61, 100
1, 85583, Note_off_c, 0, 61, 100
1, 85583, Note_on_c, 0, 62, 100
1, 85967, Note_off_c, 0, 62, 100
1, 86399, Note_on_c, 0, 49, 100
1, 86495, Note_off_c, 0, 49, 100
1, 86495, Note_on_c, 0, 52, 100
1, 86591, Note_off_c, 0, 52, 100
1, 86591, Note_on_c, 0, 55, 100
1, 86687, Note_off_c, 0, 55, 100
1, 86687, Note_on_c, 0, 57, 100
1, 86783, Note_off_c, 0, 57, 100
1, 86783, Note_on_c, 0, 60, 100
1, 86879, Note_off_c, 0, 60, 100
1, 86879, Note_on_c, 0, 58, 100
1, 86975, Note_off_c, 0, 58, 100
1, 87359, Note_on_c, 0, 49, 100
1, 87551, Note_off_c, 0, 49, 100
1, 87551, Note_on_c, 0, 50, 100
1, 87839, Note_off_c, 0, 50, 100
1, 87839, Note_on_c, 0, 62, 100
1, 88271, Note_off_c, 0, 62, 100
1, 88271, Note_on_c, 0, 59, 100
1, 88367, Note_off_c, 0, 59, 100
1, 88367, Note_on_c, 0, 57, 100
1, 88463, Note_off_c, 0, 57, 100
1, 88463, Note_on_c, 0, 50, 100
1, 88655, Note_off_c, 0, 50, 100
1, 89039, Note_on_c, 0, 50, 100
1, 89279, Note_off_c, 0, 50, 100
1, 89279, Note_on_c, 0, 62, 100
1, 89471, Note_off_c, 0, 62, 100
1, 89471, Note_on_c, 0, 61, 100
1, 89519, Note_off_c, 0, 61, 100
1, 89519, Note_on_c, 0, 60, 100
1, 89567, Note_off_c, 0, 60, 100
1, 89567, Note_on_c, 0, 58, 100
1, 89615, Note_off_c, 0, 58, 100
1, 89615, Note_on_c, 0, 57, 100
1, 89727, Note_off_c, 0, 57, 100
1, 89727, Note_on_c, 0, 53, 100
1, 89791, Note_off_c, 0, 53, 100
1, 89791, Note_on_c, 0, 51, 100
1, 89855, Note_off_c, 0, 51, 100
1, 89855, Note_on_c, 0, 60, 100
1, 90047, Note_off_c, 0, 60, 100
1, 90047, Note_on_c, 0, 57, 100
1, 90111, Note_off_c, 0, 57, 100
1, 90111, Note_on_c, 0, 58, 100
1, 90175, Note_off_c, 0, 58, 100
1, 90175, Note_on_c, 0, 59, 100
1, 90431, Note_off_c, 0, 59, 100
1, 90431, Note_on_c, 0, 57, 100
1, 90527, Note_off_c, 0, 57, 100
1, 90527, Note_on_c, 0, 56, 100
1, 90623, Note_off_c, 0, 56, 100
1, 90623, Note_on_c, 0, 55, 100
1, 90719, Note_off_c, 0, 55, 100
1, 90719, Note_on_c, 0, 54, 100
1, 90815, Note_off_c, 0, 54, 100
1, 90815, Note_on_c, 0, 53, 100
1, 90959, Note_off_c, 0, 53, 100
1, 90959, Note_on_c, 0, 51, 100
1, 91055, Note_off_c, 0, 51, 100
1, 91055, Note_on_c, 0, 52, 100
1, 91151, Note_off_c, 0, 52, 100
1, 91151, Note_on_c, 0, 55, 100
1, 91199, Note_off_c, 0, 55, 100
1, 91199, Note_on_c, 0, 57, 100
1, 91391, Note_off_c, 0, 57, 100
1, 91391, Note_on_c, 0, 60, 100
1, 91583, Note_off_c, 0, 60, 100
1, 91583, Note_on_c, 0, 54, 100
1, 91679, Note_off_c, 0, 54, 100
1, 91679, Note_on_c, 0, 58, 100
1, 91775, Note_off_c, 0, 58, 100
1, 91775, Note_on_c, 0, 62, 100
1, 91871, Note_off_c, 0, 62, 100
1, 91871, Note_on_c, 0, 66, 100
1, 91967, Note_off_c, 0, 66, 100
1, 91967, Note_on_c, 0, 62, 100
1, 92159, Note_off_c, 0, 62, 100
1, 92159, Note_on_c, 0, 65, 100
1, 92351, Note_off_c, 0, 65, 100
1, 92351, Note_on_c, 0, 63, 100
1, 92447, Note_off_c, 0, 63, 100
1, 92447, Note_on_c, 0, 64, 100
1, 92543, Note_off_c, 0, 64, 100
1, 92543, Note_on_c, 0, 60, 100
1, 92639, Note_off_c, 0, 60, 100
1, 92639, Note_on_c, 0, 61, 100
1, 92735, Note_off_c, 0, 61, 100
1, 92735, Note_on_c, 0, 62, 100
1, 92831, Note_off_c, 0, 62, 100
1, 92831, Note_on_c, 0, 61, 100
1, 92927, Note_off_c, 0, 61, 100
1, 92927, Note_on_c, 0, 60, 100
1, 93023, Note_off_c, 0, 60, 100
1, 93023, Note_on_c, 0, 59, 100
1, 93071, Note_off_c, 0, 59, 100
1, 93071, Note_on_c, 0, 58, 100
1, 93167, Note_off_c, 0, 58, 100
1, 93167, Note_on_c, 0, 56, 100
1, 93263, Note_off_c, 0, 56, 100
1, 93263, Note_on_c, 0, 57, 100
1, 93359, Note_off_c, 0, 57, 100
1, 93359, Note_on_c, 0, 55, 100
1, 93455, Note_off_c, 0, 55, 100
1, 93455, Note_on_c, 0, 54, 100
1, 93599, Note_off_c, 0, 54, 100
1, 93599, Note_on_c, 0, 55, 100
1, 93695, Note_off_c, 0, 55, 100
1, 93695, Note_on_c, 0, 57, 100
1, 93791, Note_off_c, 0, 57, 100
1, 93791, Note_on_c, 0, 54, 100
1, 93935, Note_off_c, 0, 54, 100
1, 93935, Note_on_c, 0, 57, 100
1, 93983, Note_off_c, 0, 57, 100
1, 93983, Note_on_c, 0, 60, 100
1, 94031, Note_off_c, 0, 60, 100
1, 94031, Note_on_c, 0, 62, 100
1, 94079, Note_off_c, 0, 62, 100
1, 94079, Note_on_c, 0, 65, 100
1, 94271, Note_off_c, 0, 65, 100
1, 94271, Note_on_c, 0, 62, 100
1, 94367, Note_off_c, 0, 62, 100
1, 94367, Note_on_c, 0, 55, 100
1, 94463, Note_off_c, 0, 55, 100
1, 94895, Note_on_c, 0, 55, 100
1, 94991, Note_off_c, 0, 55, 100
1, 94991, Note_on_c, 0, 56, 100
1, 95039, Note_off_c, 0, 56, 100
1, 95039, Note_on_c, 0, 57, 100
1, 95231, Note_off_c, 0, 57, 100
1, 95231, Note_on_c, 0, 62, 100
1, 95327, Note_off_c, 0, 62, 100
1, 95327, Note_on_c, 0, 60, 100
1, 95423, Note_off_c, 0, 60, 100
1, 95423, Note_on_c, 0, 57, 100
1, 95519, Note_off_c, 0, 57, 100
1, 95519, Note_on_c, 0, 53, 100
1, 95615, Note_off_c, 0, 53, 100
1, 95615, Note_on_c, 0, 58, 100
1, 95711, Note_off_c, 0, 58, 100
1, 95711, Note_on_c, 0, 56, 100
1, 95807, Note_off_c, 0, 56, 100
1, 95807, Note_on_c, 0, 58, 100
1, 95903, Note_off_c, 0, 58, 100
1, 95903, Note_on_c, 0, 56, 100
1, 95999, Note_off_c, 0, 56, 100
1, 95999, Note_on_c, 0, 58, 100
1, 96095, Note_off_c, 0, 58, 100
1, 96095, Note_on_c, 0, 56, 100
1, 96191, Note_off_c, 0, 56, 100
1, 96191, Note_on_c, 0, 58, 100
1, 96287, Note_off_c, 0, 58, 100
1, 96287, Note_on_c, 0, 56, 100
1, 96383, Note_off_c, 0, 56, 100
1, 96383, Note_on_c, 0, 58, 100
1, 96479, Note_off_c, 0, 58, 100
1, 96479, Note_on_c, 0, 56, 100
1, 96575, Note_off_c, 0, 56, 100
1, 96575, Note_on_c, 0, 53, 100
1, 96767, Note_off_c, 0, 53, 100
1, 96767, Note_on_c, 0, 56, 100
1, 96863, Note_off_c, 0, 56, 100
1, 96863, Note_on_c, 0, 57, 100
1, 96959, Note_off_c, 0, 57, 100
1, 96959, Note_on_c, 0, 58, 100
1, 97055, Note_off_c, 0, 58, 100
1, 97055, Note_on_c, 0, 59, 100
1, 97151, Note_off_c, 0, 59, 100
1, 97151, Note_on_c, 0, 60, 100
1, 97295, Note_off_c, 0, 60, 100
1, 97295, Note_on_c, 0, 65, 100
1, 97343, Note_off_c, 0, 65, 100
1, 97343, Note_on_c, 0, 66, 100
1, 97439, Note_off_c, 0, 66, 100
1, 97439, Note_on_c, 0, 65, 100
1, 97823, Note_off_c, 0, 65, 100
1, 97823, Note_on_c, 0, 64, 100
1, 97919, Note_off_c, 0, 64, 100
1, 97919, Note_on_c, 0, 62, 100
1, 97983, Note_off_c, 0, 62, 100
1, 97983, Note_on_c, 0, 60, 100
1, 98047, Note_off_c, 0, 60, 100
1, 98047, Note_on_c, 0, 58, 100
1, 98111, Note_off_c, 0, 58, 100
1, 98111, Note_on_c, 0, 57, 100
1, 98175, Note_off_c, 0, 57, 100
1, 98175, Note_on_c, 0, 55, 100
1, 98239, Note_off_c, 0, 55, 100
1, 98239, Note_on_c, 0, 53, 100
1, 98303, Note_off_c, 0, 53, 100
1, 98303, Note_on_c, 0, 51, 100
1, 98351, Note_off_c, 0, 51, 100
1, 98351, Note_on_c, 0, 50, 100
1, 98441, Note_off_c, 0, 50, 100
1, 98441, End_track
0, 0, End_of_file
