0, 0, Header, 1, 1, 192
1, 0, Start_track
1, 0, Title_t, "Melody"
1, 0, Tempo, 271493
1, 0, Key_signature, 0, "major"
1, 0, Time_signature, 4, 2, 24, 8
1, 0, Note_on_c, 0, 67, 100
1, 96, Note_off_c, 0, 67, 100
1, 96, Note_on_c, 0, 64, 100
1, 192, Note_off_c, 0, 64, 100
1, 480, Note_on_c, 0, 67, 100
1, 672, Note_off_c, 0, 67, 100
1, 672, Note_on_c, 0, 63, 100
1, 768, Note_off_c, 0, 63, 100
1, 1104, Note_on_c, 0, 62, 100
1, 1152, Note_off_c, 0, 62, 100
1, 1152, Note_on_c, 0, 60, 100
1, 1248, Note_off_c, 0, 60, 100
1, 1680, Note_on_c, 0, 58, 100
1, 2016, Note_off_c, 0, 58, 100
1, 2016, Note_on_c, 0, 60, 100
1, 2208, Note_off_c, 0, 60, 100
1, 2208, Note_on_c, 0, 55, 100
1, 2304, Note_off_c, 0, 55, 100
1, 2592, Note_on_c, 0, 64, 100
1, 2784, Note_off_c, 0, 64, 100
1, 2976, Note_on_c, 0, 59, 100
1, 3216, Note_off_c, 0, 59, 100
1, 3216, Note_on_c, 0, 62, 100
1, 3312, Note_off_c, 0, 62, 100
1, 3312, Note_on_c, 0, 59, 100
1, 3408, Note_off_c, 0, 59, 100
1, 3408, Note_on_c, 0, 60, 100
1, 3504, Note_off_c, 0, 60, 100
1, 3504, Note_on_c, 0, 67, 100
1, 3600, Note_off_c, 0, 67, 100
1, 3600, Note_on_c, 0, 65, 100
1, 3744, Note_off_c, 0, 65, 100
1, 3744, Note_on_c, 0, 63, 100
1, 3840, Note_off_c, 0, 63, 100
1, 3840, Note_on_c, 0, 64, 100
1, 3936, Note_off_c, 0, 64, 100
1, 3936, Note_on_c, 0, 62, 100
1, 4224, Note_off_c, 0, 62, 100
1, 4224, Note_on_c, 0, 61, 100
1, 4352, Note_off_c, 0, 61, 100
1, 4352, Note_on_c, 0, 59, 100
1, 4512, Note_off_c, 0, 59, 100
1, 4512, Note_on_c, 0, 57, 100
1, 4608, Note_off_c, 0, 57, 100
1, 4608, Note_on_c, 0, 58, 100
1, 4752, Note_off_c, 0, 58, 100
1, 4752, Note_on_c, 0, 60, 100
1, 4848, Note_off_c, 0, 60, 100
1, 4848, Note_on_c, 0, 61, 100
1, 4944, Note_off_c, 0, 61, 100
1, 4944, Note_on_c, 0, 63, 100
1, 4992, Note_off_c, 0, 63, 100
1, 4992, Note_on_c, 0, 65, 100
1, 5088, Note_off_c, 0, 65, 100
1, 5088, Note_on_c, 0, 68, 100
1, 5184, Note_off_c, 0, 68, 100
1, 5184, Note_on_c, 0, 67, 100
1, 5280, Note_off_c, 0, 67, 100
1, 5280, Note_on_c, 0, 65, 100
1, 5376, Note_off_c, 0, 65, 100
1, 5376, Note_on_c, 0, 63, 100
1, 5472, Note_off_c, 0, 63, 100
1, 5472, Note_on_c, 0, 61, 100
1, 5568, Note_off_c, 0, 61, 100
1, 5568, Note_on_c, 0, 58, 100
1, 5664, Note_off_c, 0, 58, 100
1, 5664, Note_on_c, 0, 59, 100
1, 5712, Note_off_c, 0, 59, 100
1, 5712, Note_on_c, 0, 60, 100
1, 5856, Note_off_c, 0, 60, 100
1, 5856, Note_on_c, 0, 63, 100
1, 5952, Note_off_c, 0, 63, 100
1, 5952, Note_on_c, 0, 58, 100
1, 6048, Note_off_c, 0, 58, 100
1, 6048, Note_on_c, 0, 55, 100
1, 6096, Note_off_c, 0, 55, 100
1, 6096, Note_on_c, 0, 56, 100
1, 6288, Note_off_c, 0, 56, 100
1, 7168, Note_on_c, 0, 69, 100
1, 7232, Note_off_c, 0, 69, 100
1, 7232, Note_on_c, 0, 71, 100
1, 7392, Note_off_c, 0, 71, 100
1, 7392, Note_on_c, 0, 69, 100
1, 7536, Note_off_c, 0, 69, 100
1, 7536, Note_on_c, 0, 67, 100
1, 7632, Note_off_c, 0, 67, 100
1, 7632, Note_on_c, 0, 66, 100
1, 7776, Note_off_c, 0, 66, 100
1, 7776, Note_on_c, 0, 64, 100
1, 7872, Note_off_c, 0, 64, 100
1, 7872, Note_on_c, 0, 62, 100
1, 7968, Note_off_c, 0, 62, 100
1, 7968, Note_on_c, 0, 61, 100
1, 8064, Note_off_c, 0, 61, 100
1, 8064, Note_on_c, 0, 60, 100
1, 8160, Note_off_c, 0, 60, 100
1, 8160, Note_on_c, 0, 59, 100
1, 8256, Note_off_c, 0, 59, 100
1, 8256, Note_on_c, 0, 57, 100
1, 8304, Note_off_c, 0, 57, 100
1, 8304, Note_on_c, 0, 55, 100
1, 8400, Note_off_c, 0, 55, 100
1, 8400, Note_on_c, 0, 53, 100
1, 8496, Note_off_c, 0, 53, 100
1, 8496, Note_on_c, 0, 55, 100
1, 8592, Note_off_c, 0, 55, 100
1, 8592, Note_on_c, 0, 57, 100
1, 8688, Note_off_c, 0, 57, 100
1, 8688, Note_on_c, 0, 60, 100
1, 8784, Note_off_c, 0, 60, 100
1, 8784, Note_on_c, 0, 64, 100
1, 8928, Note_off_c, 0, 64, 100
1, 8928, Note_on_c, 0, 65, 100
1, 9024, Note_off_c, 0, 65, 100
1, 9024, Note_on_c, 0, 61, 100
1, 9120, Note_off_c, 0, 61, 100
1, 9120, Note_on_c, 0, 64, 100
1, 9216, Note_off_c, 0, 64, 100
1, 9216, Note_on_c, 0, 62, 100
1, 9312, Note_off_c, 0, 62, 100
1, 9312, Note_on_c, 0, 64, 100
1, 9408, Note_off_c, 0, 64, 100
1, 9408, Note_on_c, 0, 65, 100
1, 9504, Note_off_c, 0, 65, 100
1, 9504, Note_on_c, 0, 67, 100
1, 9552, Note_off_c, 0, 67, 100
1, 9552, Note_on_c, 0, 69, 100
1, 9696, Note_off_c, 0, 69, 100
1, 9696, Note_on_c, 0, 72, 100
1, 9792, Note_off_c, 0, 72, 100
1, 9792, Note_on_c, 0, 71, 100
1, 9888, Note_off_c, 0, 71, 100
1, 9888, Note_on_c, 0, 69, 100
1, 9936, Note_off_c, 0, 69, 100
1, 9936, Note_on_c, 0, 67, 100
1, 10032, Note_off_c, 0, 67, 100
1, 10320, Note_on_c, 0, 66, 100
1, 10416, Note_off_c, 0, 66, 100
1, 10416, Note_on_c, 0, 67, 100
1, 10512, Note_off_c, 0, 67, 100
1, 10512, Note_on_c, 0, 70, 100
1, 10656, Note_off_c, 0, 70, 100
1, 10656, Note_on_c, 0, 69, 100
1, 10704, Note_off_c, 0, 69, 100
1, 10704, Note_on_c, 0, 68, 100
1, 10816, Note_off_c, 0, 68, 100
1, 10816, Note_on_c, 0, 59, 100
1, 10880, Note_off_c, 0, 59, 100
1, 10880, Note_on_c, 0, 60, 100
1, 10992, Note_off_c, 0, 60, 100
1, 10992, Note_on_c, 0, 63, 100
1, 11088, Note_off_c, 0, 63, 100
1, 11088, Note_on_c, 0, 65, 100
1, 11232, Note_off_c, 0, 65, 100
1, 11232, Note_on_c, 0, 66, 100
1, 11328, Note_off_c, 0, 66, 100
1, 11328, Note_on_c, 0, 67, 100
1, 11424, Note_off_c, 0, 67, 100
1, 11424, Note_on_c, 0, 65, 100
1, 11520, Note_off_c, 0, 65, 100
1, 11520, Note_on_c, 0, 64, 100
1, 11776, Note_off_c, 0, 64, 100
1, 11776, Note_on_c, 0, 55, 100
1, 11840, Note_off_c, 0, 55, 100
1, 11840, Note_on_c, 0, 57, 100
1, 11904, Note_off_c, 0, 57, 100
1, 11904, Note_on_c, 0, 62, 100
1, 12000, Note_off_c, 0, 62, 100
1, 12000, Note_on_c, 0, 59, 100
1, 12096, Note_off_c, 0, 59, 100
1, 12096, Note_on_c, 0, 60, 100
1, 12192, Note_off_c, 0, 60, 100
1, 12192, Note_on_c, 0, 62, 100
1, 12288, Note_off_c, 0, 62, 100
1, 12288, Note_on_c, 0, 63, 100
1, 12352, Note_off_c, 0, 63, 100
1, 12352, Note_on_c, 0, 64, 100
1, 12416, Note_off_c, 0, 64, 100
1, 12416, Note_on_c, 0, 65, 100
1, 12480, Note_off_c, 0, 65, 100
1, 12480, Note_on_c, 0, 64, 100
1, 12576, Note_off_c, 0, 64, 100
1, 12576, Note_on_c, 0, 62, 100
1, 12672, Note_off_c, 0, 62, 100
1, 12672, Note_on_c, 0, 60, 100
1, 12768, Note_off_c, 0, 60, 100
1, 12768, Note_on_c, 0, 55, 100
1, 12864, Note_off_c, 0, 55, 100
1, 12864, Note_on_c, 0, 58, 100
1, 12960, Note_off_c, 0, 58, 100
1, 12960, Note_on_c, 0, 55, 100
1, 13056, Note_off_c, 0, 55, 100
1, 13056, Note_on_c, 0, 56, 100
1, 13152, Note_off_c, 0, 56, 100
1, 13152, Note_on_c, 0, 58, 100
1, 13248, Note_off_c, 0, 58, 100
1, 13248, Note_on_c, 0, 60, 100
1, 13344, Note_off_c, 0, 60, 100
1, 13344, Note_on_c, 0, 63, 100
1, 13440, Note_off_c, 0, 63, 100
1, 13440, Note_on_c, 0, 67, 100
1, 13632, Note_off_c, 0, 67, 100
1, 13632, Note_on_c, 0, 67, 100
1, 13824, Note_off_c, 0, 67, 100
1, 13824, Note_on_c, 0, 67, 100
1, 13920, Note_off_c, 0, 67, 100
1, 13920, Note_on_c, 0, 68, 100
1, 13968, Note_off_c, 0, 68, 100
1, 13968, Note_on_c, 0, 67, 100
1, 14112, Note_off_c, 0, 67, 100
1, 14112, Note_on_c, 0, 68, 100
1, 14160, Note_off_c, 0, 68, 100
1, 14160, Note_on_c, 0, 67, 100
1, 14208, Note_off_c, 0, 67, 100
1, 14208, Note_on_c, 0, 65, 100
1, 14496, Note_off_c, 0, 65, 100
1, 14880, Note_on_c, 0, 69, 100
1, 14976, Note_off_c, 0, 69, 100
1, 14976, Note_on_c, 0, 71, 100
1, 15232, Note_off_c, 0, 71, 100
1, 15232, Note_on_c, 0, 69, 100
1, 15296, Note_off_c, 0, 69, 100
1, 15296, Note_on_c, 0, 67, 100
1, 15360, Note_off_c, 0, 67, 100
1, 15360, Note_on_c, 0, 66, 100
1, 15648, Note_off_c, 0, 66, 100
1, 15648, Note_on_c, 0, 62, 100
1, 15696, Note_off_c, 0, 62, 100
1, 15696, Note_on_c, 0, 61, 100
1, 15744, Note_off_c, 0, 61, 100
1, 15744, Note_on_c, 0, 59, 100
1, 16032, Note_off_c, 0, 59, 100
1, 16272, Note_on_c, 0, 61, 100
1, 16320, Note_off_c, 0, 61, 100
1, 16320, Note_on_c, 0, 62, 100
1, 16368, Note_off_c, 0, 62, 100
1, 16368, Note_on_c, 0, 64, 100
1, 16464, Note_off_c, 0, 64, 100
1, 16464, Note_on_c, 0, 66, 100
1, 16608, Note_off_c, 0, 66, 100
1, 16608, Note_on_c, 0, 62, 100
1, 16656, Note_off_c, 0, 62, 100
1, 16656, Note_on_c, 0, 61, 100
1, 16752, Note_off_c, 0, 61, 100
1, 16752, Note_on_c, 0, 62, 100
1, 16800, Note_off_c, 0, 62, 100
1, 16800, Note_on_c, 0, 59, 100
1, 16848, Note_off_c, 0, 59, 100
1, 16848, Note_on_c, 0, 58, 100
1, 17040, Note_off_c, 0, 58, 100
1, 17040, Note_on_c, 0, 60, 100
1, 17136, Note_off_c, 0, 60, 100
1, 17136, Note_on_c, 0, 61, 100
1, 17184, Note_off_c, 0, 61, 100
1, 17184, Note_on_c, 0, 63, 100
1, 17280, Note_off_c, 0, 63, 100
1, 17280, Note_on_c, 0, 65, 100
1, 17376, Note_off_c, 0, 65, 100
1, 17376, Note_on_c, 0, 68, 100
1, 17472, Note_off_c, 0, 68, 100
1, 17472, Note_on_c, 0, 67, 100
1, 17568, Note_off_c, 0, 67, 100
1, 17568, Note_on_c, 0, 65, 100
1, 17616, Note_off_c, 0, 65, 100
1, 17616, Note_on_c, 0, 63, 100
1, 17760, Note_off_c, 0, 63, 100
1, 17760, Note_on_c, 0, 60, 100
1, 18000, Note_off_c, 0, 60, 100
1, 18000, Note_on_c, 0, 60, 100
1, 18384, Note_off_c, 0, 60, 100
1, 18880, Note_on_c, 0, 56, 100
1, 19104, Note_off_c, 0, 56, 100
1, 19104, Note_on_c, 0, 57, 100
1, 19296, Note_off_c, 0, 57, 100
1, 19296, Note_on_c, 0, 59, 100
1, 19488, Note_off_c, 0, 59, 100
1, 19488, Note_on_c, 0, 60, 100
1, 19680, Note_off_c, 0, 60, 100
1, 19680, Note_on_c, 0, 62, 100
1, 19872, Note_off_c, 0, 62, 100
1, 19872, Note_on_c, 0, 64, 100
1, 20064, Note_off_c, 0, 64, 100
1, 20064, Note_on_c, 0, 67, 100
1, 20160, Note_off_c, 0, 67, 100
1, 20160, Note_on_c, 0, 66, 100
1, 20256, Note_off_c, 0, 66, 100
1, 20256, Note_on_c, 0, 64, 100
1, 20304, Note_off_c, 0, 64, 100
1, 20304, Note_on_c, 0, 62, 100
1, 20448, Note_off_c, 0, 62, 100
1, 20448, Note_on_c, 0, 61, 100
1, 20544, Note_off_c, 0, 61, 100
1, 20544, Note_on_c, 0, 60, 100
1, 20640, Note_off_c, 0, 60, 100
1, 20640, Note_on_c, 0, 59, 100
1, 20736, Note_off_c, 0, 59, 100
1, 20736, Note_on_c, 0, 57, 100
1, 20832, Note_off_c, 0, 57, 100
1, 20832, Note_on_c, 0, 55, 100
1, 20880, Note_off_c, 0, 55, 100
1, 20880, Note_on_c, 0, 53, 100
1, 21024, Note_off_c, 0, 53, 100
1, 21024, Note_on_c, 0, 52, 100
1, 21120, Note_off_c, 0, 52, 100
1, 21120, Note_on_c, 0, 53, 100
1, 21216, Note_off_c, 0, 53, 100
1, 21216, Note_on_c, 0, 55, 100
1, 21312, Note_off_c, 0, 55, 100
1, 21312, Note_on_c, 0, 57, 100
1, 21408, Note_off_c, 0, 57, 100
1, 21408, Note_on_c, 0, 60, 100
1, 21504, Note_off_c, 0, 60, 100
1, 21504, Note_on_c, 0, 64, 100
1, 21600, Note_off_c, 0, 64, 100
1, 21600, Note_on_c, 0, 61, 100
1, 21648, Note_off_c, 0, 61, 100
1, 21648, Note_on_c, 0, 62, 100
1, 21792, Note_off_c, 0, 62, 100
1, 21792, Note_on_c, 0, 67, 100
1, 21984, Note_off_c, 0, 67, 100
1, 22608, Note_on_c, 0, 59, 100
1, 22720, Note_off_c, 0, 59, 100
1, 22720, Note_on_c, 0, 60, 100
1, 22848, Note_off_c, 0, 60, 100
1, 22848, Note_on_c, 0, 65, 100
1, 22944, Note_off_c, 0, 65, 100
1, 22944, Note_on_c, 0, 64, 100
1, 23040, Note_off_c, 0, 64, 100
1, 23040, Note_on_c, 0, 63, 100
1, 23136, Note_off_c, 0, 63, 100
1, 23136, Note_on_c, 0, 61, 100
1, 23232, Note_off_c, 0, 61, 100
1, 23232, Note_on_c, 0, 60, 100
1, 23328, Note_off_c, 0, 60, 100
1, 23328, Note_on_c, 0, 58, 100
1, 23424, Note_off_c, 0, 58, 100
1, 23424, Note_on_c, 0, 56, 100
1, 23520, Note_off_c, 0, 56, 100
1, 23520, Note_on_c, 0, 54, 100
1, 23616, Note_off_c, 0, 54, 100
1, 23616, Note_on_c, 0, 53, 100
1, 23952, Note_off_c, 0, 53, 100
1, 23952, Note_on_c, 0, 55, 100
1, 24192, Note_off_c, 0, 55, 100
1, 24192, Note_on_c, 0, 59, 100
1, 24448, Note_off_c, 0, 59, 100
1, 24448, Note_on_c, 0, 57, 100
1, 24576, Note_off_c, 0, 57, 100
1, 24576, Note_on_c, 0, 56, 100
1, 24704, Note_off_c, 0, 56, 100
1, 24704, Note_on_c, 0, 57, 100
1, 24864, Note_off_c, 0, 57, 100
1, 24864, Note_on_c, 0, 60, 100
1, 25056, Note_off_c, 0, 60, 100
1, 25056, Note_on_c, 0, 58, 100
1, 25216, Note_off_c, 0, 58, 100
1, 25216, Note_on_c, 0, 56, 100
1, 25312, Note_off_c, 0, 56, 100
1, 25728, Note_on_c, 0, 67, 100
1, 25856, Note_off_c, 0, 67, 100
1, 25856, Note_on_c, 0, 67, 100
1, 25984, Note_off_c, 0, 67, 100
1, 25984, Note_on_c, 0, 67, 100
1, 26048, Note_off_c, 0, 67, 100
1, 26048, Note_on_c, 0, 65, 100
1, 26160, Note_off_c, 0, 65, 100
1, 26160, Note_on_c, 0, 58, 100
1, 26256, Note_off_c, 0, 58, 100
1, 26256, Note_on_c, 0, 70, 100
1, 26368, Note_off_c, 0, 70, 100
1, 26368, Note_on_c, 0, 68, 100
1, 26496, Note_off_c, 0, 68, 100
1, 26496, Note_on_c, 0, 67, 100
1, 26640, Note_off_c, 0, 67, 100
1, 26640, Note_on_c, 0, 65, 100
1, 26880, Note_off_c, 0, 65, 100
1, 26880, Note_on_c, 0, 64, 100
1, 26976, Note_off_c, 0, 64, 100
1, 26976, Note_on_c, 0, 55, 100
1, 27168, Note_off_c, 0, 55, 100
1, 27168, Note_on_c, 0, 57, 100
1, 27456, Note_off_c, 0, 57, 100
1, 28320, Note_on_c, 0, 64, 100
1, 28416, Note_off_c, 0, 64, 100
1, 28416, Note_on_c, 0, 62, 100
1, 28560, Note_off_c, 0, 62, 100
1, 28560, Note_on_c, 0, 54, 100
1, 28608, Note_off_c, 0, 54, 100
1, 28608, Note_on_c, 0, 57, 100
1, 28704, Note_off_c, 0, 57, 100
1, 28704, Note_on_c, 0, 61, 100
1, 28896, Note_off_c, 0, 61, 100
1, 28896, Note_on_c, 0, 59, 100
1, 29088, Note_off_c, 0, 59, 100
1, 29088, Note_on_c, 0, 63, 100
1, 29184, Note_off_c, 0, 63, 100
1, 29184, Note_on_c, 0, 61, 100
1, 29312, Note_off_c, 0, 61, 100
1, 29312, Note_on_c, 0, 53, 100
1, 29376, Note_off_c, 0, 53, 100
1, 29376, Note_on_c, 0, 56, 100
1, 29504, Note_off_c, 0, 56, 100
1, 29504, Note_on_c, 0, 58, 100
1, 29568, Note_off_c, 0, 58, 100
1, 29568, Note_on_c, 0, 60, 100
1, 29824, Note_off_c, 0, 60, 100
1, 29824, Note_on_c, 0, 52, 100
1, 29888, Note_off_c, 0, 52, 100
1, 29888, Note_on_c, 0, 55, 100
1, 29952, Note_off_c, 0, 55, 100
1, 29952, Note_on_c, 0, 58, 100
1, 30080, Note_off_c, 0, 58, 100
1, 30080, Note_on_c, 0, 55, 100
1, 30144, Note_off_c, 0, 55, 100
1, 30144, Note_on_c, 0, 56, 100
1, 30208, Note_off_c, 0, 56, 100
1, 30208, Note_on_c, 0, 58, 100
1, 30272, Note_off_c, 0, 58, 100
1, 30272, Note_on_c, 0, 59, 100
1, 30384, Note_off_c, 0, 59, 100
1, 30384, Note_on_c, 0, 60, 100
1, 30480, Note_off_c, 0, 60, 100
1, 30480, Note_on_c, 0, 61, 100
1, 30576, Note_off_c, 0, 61, 100
1, 30576, Note_on_c, 0, 59, 100
1, 30672, Note_off_c, 0, 59, 100
1, 30672, Note_on_c, 0, 60, 100
1, 30816, Note_off_c, 0, 60, 100
1, 30816, Note_on_c, 0, 63, 100
1, 30960, Note_off_c, 0, 63, 100
1, 30960, Note_on_c, 0, 65, 100
1, 31008, Note_off_c, 0, 65, 100
1, 31008, Note_on_c, 0, 67, 100
1, 31056, Note_off_c, 0, 67, 100
1, 31056, Note_on_c, 0, 70, 100
1, 31200, Note_off_c, 0, 70, 100
1, 31200, Note_on_c, 0, 68, 100
1, 31296, Note_off_c, 0, 68, 100
1, 31824, Note_on_c, 0, 68, 100
1, 31920, Note_off_c, 0, 68, 100
1, 31920, Note_on_c, 0, 71, 100
1, 32016, Note_off_c, 0, 71, 100
1, 32016, Note_on_c, 0, 68, 100
1, 32160, Note_off_c, 0, 68, 100
1, 32160, Note_on_c, 0, 65, 100
1, 32256, Note_off_c, 0, 65, 100
1, 32256, Note_on_c, 0, 68, 100
1, 32400, Note_off_c, 0, 68, 100
1, 32400, Note_on_c, 0, 64, 100
1, 32544, Note_off_c, 0, 64, 100
1, 32544, Note_on_c, 0, 68, 100
1, 32640, Note_off_c, 0, 68, 100
1, 32640, Note_on_c, 0, 64, 100
1, 32736, Note_off_c, 0, 64, 100
1, 32736, Note_on_c, 0, 60, 100
1, 32832, Note_off_c, 0, 60, 100
1, 33360, Note_on_c, 0, 67, 100
1, 33472, Note_off_c, 0, 67, 100
1, 33472, Note_on_c, 0, 68, 100
1, 33536, Note_off_c, 0, 68, 100
1, 33536, Note_on_c, 0, 69, 100
1, 33600, Note_off_c, 0, 69, 100
1, 33600, Note_on_c, 0, 70, 100
1, 33664, Note_off_c, 0, 70, 100
1, 33664, Note_on_c, 0, 68, 100
1, 33728, Note_off_c, 0, 68, 100
1, 33728, Note_on_c, 0, 67, 100
1, 33856, Note_off_c, 0, 67, 100
1, 33856, Note_on_c, 0, 63, 100
1, 33984, Note_off_c, 0, 63, 100
1, 33984, Note_on_c, 0, 59, 100
1, 34080, Note_off_c, 0, 59, 100
1, 34080, Note_on_c, 0, 55, 100
1, 34176, Note_off_c, 0, 55, 100
1, 34176, Note_on_c, 0, 61, 100
1, 34272, Note_off_c, 0, 61, 100
1, 34272, Note_on_c, 0, 65, 100
1, 34368, Note_off_c, 0, 65, 100
1, 34368, Note_on_c, 0, 61, 100
1, 34416, Note_off_c, 0, 61, 100
1, 34416, Note_on_c, 0, 63, 100
1, 34464, Note_off_c, 0, 63, 100
1, 34464, Note_on_c, 0, 61, 100
1, 34560, Note_off_c, 0, 61, 100
1, 34560, Note_on_c, 0, 60, 100
1, 34656, Note_off_c, 0, 60, 100
1, 34896, Note_on_c, 0, 65, 100
1, 35040, Note_off_c, 0, 65, 100
1, 35040, Note_on_c, 0, 64, 100
1, 35136, Note_off_c, 0, 64, 100
1, 35136, Note_on_c, 0, 63, 100
1, 35232, Note_off_c, 0, 63, 100
1, 35232, Note_on_c, 0, 70, 100
1, 35280, Note_off_c, 0, 70, 100
1, 35280, Note_on_c, 0, 69, 100
1, 35328, Note_off_c, 0, 69, 100
1, 35328, Note_on_c, 0, 68, 100
1, 35616, Note_off_c, 0, 68, 100
1, 35616, Note_on_c, 0, 60, 100
1, 35664, Note_off_c, 0, 60, 100
1, 35664, Note_on_c, 0, 63, 100
1, 35712, Note_off_c, 0, 63, 100
1, 35712, Note_on_c, 0, 67, 100
1, 35808, Note_off_c, 0, 67, 100
1, 35808, Note_on_c, 0, 65, 100
1, 35904, Note_off_c, 0, 65, 100
1, 35904, Note_on_c, 0, 62, 100
1, 36000, Note_off_c, 0, 62, 100
1, 36000, Note_on_c, 0, 63, 100
1, 36096, Note_off_c, 0, 63, 100
1, 36096, Note_on_c, 0, 64, 100
1, 36288, Note_off_c, 0, 64, 100
1, 36288, Note_on_c, 0, 67, 100
1, 36480, Note_off_c, 0, 67, 100
1, 36480, Note_on_c, 0, 70, 100
1, 36576, Note_off_c, 0, 70, 100
1, 36576, Note_on_c, 0, 72, 100
1, 36736, Note_off_c, 0, 72, 100
1, 36736, Note_on_c, 0, 71, 100
1, 36800, Note_off_c, 0, 71, 100
1, 36800, Note_on_c, 0, 69, 100
1, 36864, Note_off_c, 0, 69, 100
1, 36864, Note_on_c, 0, 67, 100
1, 36992, Note_off_c, 0, 67, 100
1, 36992, Note_on_c, 0, 65, 100
1, 37056, Note_off_c, 0, 65, 100
1, 37056, Note_on_c, 0, 63, 100
1, 37152, Note_off_c, 0, 63, 100
1, 37152, Note_on_c, 0, 62, 100
1, 37248, Note_off_c, 0, 62, 100
1, 37248, Note_on_c, 0, 60, 100
1, 37344, Note_off_c, 0, 60, 100
1, 37344, Note_on_c, 0, 59, 100
1, 37440, Note_off_c, 0, 59, 100
1, 37440, Note_on_c, 0, 58, 100
1, 37536, Note_off_c, 0, 58, 100
1, 37536, Note_on_c, 0, 57, 100
1, 37632, Note_off_c, 0, 57, 100
1, 37632, Note_on_c, 0, 56, 100
1, 37728, Note_off_c, 0, 56, 100
1, 38016, Note_on_c, 0, 67, 100
1, 38112, Note_off_c, 0, 67, 100
1, 38112, Note_on_c, 0, 68, 100
1, 38160, Note_off_c, 0, 68, 100
1, 38160, Note_on_c, 0, 67, 100
1, 38208, Note_off_c, 0, 67, 100
1, 38208, Note_on_c, 0, 65, 100
1, 38496, Note_off_c, 0, 65, 100
1, 39120, Note_on_c, 0, 66, 100
1, 39216, Note_off_c, 0, 66, 100
1, 39216, Note_on_c, 0, 67, 100
1, 39312, Note_off_c, 0, 67, 100
1, 39312, Note_on_c, 0, 71, 100
1, 39408, Note_off_c, 0, 71, 100
1, 39408, Note_on_c, 0, 69, 100
1, 39504, Note_off_c, 0, 69, 100
1, 39504, Note_on_c, 0, 64, 100
1, 39648, Note_off_c, 0, 64, 100
1, 39648, Note_on_c, 0, 66, 100
1, 39792, Note_off_c, 0, 66, 100
1, 39792, Note_on_c, 0, 67, 100
1, 39936, Note_off_c, 0, 67, 100
1, 39936, Note_on_c, 0, 71, 100
1, 40032, Note_off_c, 0, 71, 100
1, 40032, Note_on_c, 0, 69, 100
1, 40128, Note_off_c, 0, 69, 100
1, 40128, Note_on_c, 0, 67, 100
1, 40224, Note_off_c, 0, 67, 100
1, 40224, Note_on_c, 0, 68, 100
1, 40320, Note_off_c, 0, 68, 100
1, 40320, Note_on_c, 0, 71, 100
1, 40416, Note_off_c, 0, 71, 100
1, 40416, Note_on_c, 0, 69, 100
1, 40608, Note_off_c, 0, 69, 100
1, 40608, Note_on_c, 0, 69, 100
1, 40656, Note_off_c, 0, 69, 100
1, 40656, Note_on_c, 0, 67, 100
1, 40704, Note_off_c, 0, 67, 100
1, 40704, Note_on_c, 0, 66, 100
1, 40832, Note_off_c, 0, 66, 100
1, 40832, Note_on_c, 0, 69, 100
1, 40992, Note_off_c, 0, 69, 100
1, 40992, Note_on_c, 0, 62, 100
1, 41088, Note_off_c, 0, 62, 100
1, 41088, Note_on_c, 0, 59, 100
1, 41184, Note_off_c, 0, 59, 100
1, 41184, Note_on_c, 0, 57, 100
1, 41280, Note_off_c, 0, 57, 100
1, 41280, Note_on_c, 0, 58, 100
1, 41376, Note_off_c, 0, 58, 100
1, 41376, Note_on_c, 0, 60, 100
1, 41472, Note_off_c, 0, 60, 100
1, 41472, Note_on_c, 0, 61, 100
1, 41568, Note_off_c, 0, 61, 100
1, 41856, Note_on_c, 0, 66, 100
1, 41952, Note_off_c, 0, 66, 100
1, 41952, Note_on_c, 0, 65, 100
1, 42048, Note_off_c, 0, 65, 100
1, 42048, Note_on_c, 0, 64, 100
1, 42144, Note_off_c, 0, 64, 100
1, 42144, Note_on_c, 0, 62, 100
1, 42240, Note_off_c, 0, 62, 100
1, 42240, Note_on_c, 0, 63, 100
1, 42480, Note_off_c, 0, 63, 100
1, 42480, Note_on_c, 0, 60, 100
1, 42576, Note_off_c, 0, 60, 100
1, 42576, Note_on_c, 0, 55, 100
1, 42672, Note_off_c, 0, 55, 100
1, 42960, Note_on_c, 0, 58, 100
1, 43152, Note_off_c, 0, 58, 100
1, 43152, Note_on_c, 0, 56, 100
1, 43248, Note_off_c, 0, 56, 100
1, 43248, Note_on_c, 0, 53, 100
1, 43344, Note_off_c, 0, 53, 100
1, 43344, Note_on_c, 0, 60, 100
1, 43488, Note_off_c, 0, 60, 100
1, 43488, Note_on_c, 0, 63, 100
1, 43584, Note_off_c, 0, 63, 100
1, 43968, Note_on_c, 0, 45, 100
1, 44112, Note_off_c, 0, 45, 100
1, 44112, Note_on_c, 0, 52, 100
1, 44256, Note_off_c, 0, 52, 100
1, 44256, Note_on_c, 0, 55, 100
1, 44352, Note_off_c, 0, 55, 100
1, 44352, Note_on_c, 0, 52, 100
1, 44480, Note_off_c, 0, 52, 100
1, 44480, Note_on_c, 0, 54, 100
1, 44608, Note_off_c, 0, 54, 100
1, 44608, Note_on_c, 0, 57, 100
1, 44672, Note_off_c, 0, 57, 100
1, 44672, Note_on_c, 0, 60, 100
1, 44832, Note_off_c, 0, 60, 100
1, 44832, Note_on_c, 0, 64, 100
1, 44976, Note_off_c, 0, 64, 100
1, 44976, Note_on_c, 0, 66, 100
1, 45120, Note_off_c, 0, 66, 100
1, 45120, Note_on_c, 0, 71, 100
1, 45216, Note_off_c, 0, 71, 100
1, 45216, Note_on_c, 0, 70, 100
1, 45312, Note_off_c, 0, 70, 100
1, 45312, Note_on_c, 0, 69, 100
1, 45408, Note_off_c, 0, 69, 100
1, 45408, Note_on_c, 0, 65, 100
1, 45504, Note_off_c, 0, 65, 100
1, 45504, Note_on_c, 0, 62, 100
1, 45600, Note_off_c, 0, 62, 100
1, 45600, Note_on_c, 0, 58, 100
1, 45648, Note_off_c, 0, 58, 100
1, 45648, Note_on_c, 0, 61, 100
1, 45792, Note_off_c, 0, 61, 100
1, 45792, Note_on_c, 0, 64, 100
1, 45840, Note_off_c, 0, 64, 100
1, 45840, Note_on_c, 0, 62, 100
1, 45936, Note_off_c, 0, 62, 100
1, 45936, Note_on_c, 0, 60, 100
1, 46032, Note_off_c, 0, 60, 100
1, 46032, Note_on_c, 0, 59, 100
1, 46176, Note_off_c, 0, 59, 100
1, 46176, Note_on_c, 0, 62, 100
1, 46272, Note_off_c, 0, 62, 100
1, 46272, Note_on_c, 0, 65, 100
1, 46368, Note_off_c, 0, 65, 100
1, 46368, Note_on_c, 0, 68, 100
1, 46416, Note_off_c, 0, 68, 100
1, 46416, Note_on_c, 0, 65, 100
1, 46560, Note_off_c, 0, 65, 100
1, 46560, Note_on_c, 0, 66, 100
1, 46608, Note_off_c, 0, 66, 100
1, 46608, Note_on_c, 0, 67, 100
1, 46752, Note_off_c, 0, 67, 100
1, 46752, Note_on_c, 0, 65, 100
1, 46800, Note_off_c, 0, 65, 100
1, 46800, Note_on_c, 0, 64, 100
1, 46944, Note_off_c, 0, 64, 100
1, 46944, Note_on_c, 0, 60, 100
1, 47040, Note_off_c, 0, 60, 100
1, 47520, Note_on_c, 0, 70, 100
1, 47616, Note_off_c, 0, 70, 100
1, 47616, Note_on_c, 0, 72, 100
1, 47760, Note_off_c, 0, 72, 100
1, 47760, Note_on_c, 0, 70, 100
1, 47904, Note_off_c, 0, 70, 100
1, 47904, Note_on_c, 0, 68, 100
1, 48000, Note_off_c, 0, 68, 100
1, 48000, Note_on_c, 0, 67, 100
1, 48096, Note_off_c, 0, 67, 100
1, 48096, Note_on_c, 0, 65, 100
1, 48192, Note_off_c, 0, 65, 100
1, 48192, Note_on_c, 0, 62, 100
1, 48288, Note_off_c, 0, 62, 100
1, 48288, Note_on_c, 0, 63, 100
1, 48384, Note_off_c, 0, 63, 100
1, 48384, Note_on_c, 0, 64, 100
1, 48576, Note_off_c, 0, 64, 100
1, 48576, Note_on_c, 0, 64, 100
1, 48768, Note_off_c, 0, 64, 100
1, 48768, Note_on_c, 0, 64, 100
1, 48864, Note_off_c, 0, 64, 100
1, 48864, Note_on_c, 0, 65, 100
1, 48960, Note_off_c, 0, 65, 100
1, 48960, Note_on_c, 0, 64, 100
1, 49056, Note_off_c, 0, 64, 100
1, 49056, Note_on_c, 0, 60, 100
1, 49216, Note_off_c, 0, 60, 100
1, 49216, Note_on_c, 0, 55, 100
1, 49488, Note_off_c, 0, 55, 100
1, 49488, Note_on_c, 0, 58, 100
1, 49632, Note_off_c, 0, 58, 100
1, 49632, Note_on_c, 0, 60, 100
1, 49824, Note_off_c, 0, 60, 100
1, 49824, Note_on_c, 0, 58, 100
1, 49920, Note_off_c, 0, 58, 100
1, 49920, Note_on_c, 0, 56, 100
1, 50304, Note_off_c, 0, 56, 100
1, 50304, Note_on_c, 0, 66, 100
1, 50400, Note_off_c, 0, 66, 100
1, 50400, Note_on_c, 0, 67, 100
1, 50592, Note_off_c, 0, 67, 100
1, 50592, Note_on_c, 0, 68, 100
1, 50640, Note_off_c, 0, 68, 100
1, 50640, Note_on_c, 0, 67, 100
1, 50688, Note_off_c, 0, 67, 100
1, 50688, Note_on_c, 0, 65, 100
1, 50880, Note_off_c, 0, 65, 100
1, 51840, Note_on_c, 0, 71, 100
1, 51936, Note_off_c, 0, 71, 100
1, 51936, Note_on_c, 0, 72, 100
1, 52032, Note_off_c, 0, 72, 100
1, 52032, Note_on_c, 0, 71, 100
1, 52096, Note_off_c, 0, 71, 100
1, 52096, Note_on_c, 0, 69, 100
1, 52160, Note_off_c, 0, 69, 100
1, 52160, Note_on_c, 0, 67, 100
1, 52320, Note_off_c, 0, 67, 100
1, 52320, Note_on_c, 0, 64, 100
1, 52416, Note_off_c, 0, 64, 100
1, 52656, Note_on_c, 0, 58, 100
1, 52752, Note_off_c, 0, 58, 100
1, 52752, Note_on_c, 0, 60, 100
1, 52800, Note_off_c, 0, 60, 100
1, 52800, Note_on_c, 0, 62, 100
1, 52848, Note_off_c, 0, 62, 100
1, 52848, Note_on_c, 0, 66, 100
1, 52896, Note_off_c, 0, 66, 100
1, 52896, Note_on_c, 0, 73, 100
1, 53088, Note_off_c, 0, 73, 100
1, 53088, Note_on_c, 0, 71, 100
1, 53248, Note_off_c, 0, 71, 100
1, 53248, Note_on_c, 0, 69, 100
1, 53376, Note_off_c, 0, 69, 100
1, 53376, Note_on_c, 0, 68, 100
1, 53472, Note_off_c, 0, 68, 100
1, 53472, Note_on_c, 0, 64, 100
1, 53664, Note_off_c, 0, 64, 100
1, 53664, Note_on_c, 0, 70, 100
1, 53760, Note_off_c, 0, 70, 100
1, 53760, Note_on_c, 0, 72, 100
1, 54048, Note_off_c, 0, 72, 100
1, 54048, Note_on_c, 0, 70, 100
1, 54096, Note_off_c, 0, 70, 100
1, 54096, Note_on_c, 0, 68, 100
1, 54144, Note_off_c, 0, 68, 100
1, 54144, Note_on_c, 0, 67, 100
1, 54336, Note_off_c, 0, 67, 100
1, 54336, Note_on_c, 0, 65, 100
1, 54432, Note_off_c, 0, 65, 100
1, 54432, Note_on_c, 0, 63, 100
1, 54528, Note_off_c, 0, 63, 100
1, 54528, Note_on_c, 0, 60, 100
1, 54816, Note_off_c, 0, 60, 100
1, 55248, Note_on_c, 0, 70, 100
1, 55392, Note_off_c, 0, 70, 100
1, 55392, Note_on_c, 0, 67, 100
1, 55488, Note_off_c, 0, 67, 100
1, 55488, Note_on_c, 0, 68, 100
1, 55584, Note_off_c, 0, 68, 100
1, 55584, Note_on_c, 0, 70, 100
1, 55680, Note_off_c, 0, 70, 100
1, 55680, Note_on_c, 0, 68, 100
1, 55728, Note_off_c, 0, 68, 100
1, 55728, Note_on_c, 0, 67, 100
1, 55824, Note_off_c, 0, 67, 100
1, 55824, Note_on_c, 0, 65, 100
1, 55920, Note_off_c, 0, 65, 100
1, 56352, Note_on_c, 0, 69, 100
1, 56400, Note_off_c, 0, 69, 100
1, 56400, Note_on_c, 0, 71, 100
1, 56592, Note_off_c, 0, 71, 100
1, 56592, Note_on_c, 0, 74, 100
1, 56736, Note_off_c, 0, 74, 100
1, 56736, Note_on_c, 0, 73, 100
1, 56832, Note_off_c, 0, 73, 100
1, 56832, Note_on_c, 0, 72, 100
1, 56928, Note_off_c, 0, 72, 100
1, 56928, Note_on_c, 0, 71, 100
1, 57024, Note_off_c, 0, 71, 100
1, 57024, Note_on_c, 0, 69, 100
1, 57120, Note_off_c, 0, 69, 100
1, 57120, Note_on_c, 0, 67, 100
1, 57216, Note_off_c, 0, 67, 100
1, 57216, Note_on_c, 0, 66, 100
1, 57312, Note_off_c, 0, 66, 100
1, 57312, Note_on_c, 0, 64, 100
1, 57408, Note_off_c, 0, 64, 100
1, 57408, Note_on_c, 0, 62, 100
1, 57504, Note_off_c, 0, 62, 100
1, 57504, Note_on_c, 0, 64, 100
1, 57600, Note_off_c, 0, 64, 100
1, 57600, Note_on_c, 0, 65, 100
1, 57696, Note_off_c, 0, 65, 100
1, 57696, Note_on_c, 0, 67, 100
1, 57744, Note_off_c, 0, 67, 100
1, 57744, Note_on_c, 0, 64, 100
1, 57840, Note_off_c, 0, 64, 100
1, 57840, Note_on_c, 0, 65, 100
1, 57936, Note_off_c, 0, 65, 100
1, 57936, Note_on_c, 0, 62, 100
1, 58080, Note_off_c, 0, 62, 100
1, 58080, Note_on_c, 0, 64, 100
1, 58176, Note_off_c, 0, 64, 100
1, 58176, Note_on_c, 0, 65, 100
1, 58224, Note_off_c, 0, 65, 100
1, 58224, Note_on_c, 0, 67, 100
1, 58320, Note_off_c, 0, 67, 100
1, 58320, Note_on_c, 0, 70, 100
1, 58464, Note_off_c, 0, 70, 100
1, 58464, Note_on_c, 0, 68, 100
1, 58560, Note_off_c, 0, 68, 100
1, 58560, Note_on_c, 0, 66, 100
1, 58656, Note_off_c, 0, 66, 100
1, 58656, Note_on_c, 0, 63, 100
1, 58752, Note_off_c, 0, 63, 100
1, 58752, Note_on_c, 0, 60, 100
1, 58848, Note_off_c, 0, 60, 100
1, 58848, Note_on_c, 0, 58, 100
1, 58944, Note_off_c, 0, 58, 100
1, 58944, Note_on_c, 0, 56, 100
1, 59040, Note_off_c, 0, 56, 100
1, 59040, Note_on_c, 0, 55, 100
1, 59136, Note_off_c, 0, 55, 100
1, 59472, Note_on_c, 0, 64, 100
1, 59584, Note_off_c, 0, 64, 100
1, 59584, Note_on_c, 0, 65, 100
1, 59808, Note_off_c, 0, 65, 100
1, 59808, Note_on_c, 0, 63, 100
1, 60048, Note_off_c, 0, 63, 100
1, 60048, Note_on_c, 0, 60, 100
1, 60240, Note_off_c, 0, 60, 100
1, 60240, Note_on_c, 0, 56, 100
1, 60432, Note_off_c, 0, 56, 100
1, 60432, Note_on_c, 0, 53, 100
1, 60672, Note_off_c, 0, 53, 100
1, 60672, Note_on_c, 0, 55, 100
1, 60864, Note_off_c, 0, 55, 100
1, 60864, Note_on_c, 0, 64, 100
1, 61104, Note_off_c, 0, 64, 100
1, 61104, Note_on_c, 0, 64, 100
1, 61248, Note_off_c, 0, 64, 100
1, 61248, Note_on_c, 0, 64, 100
1, 61440, Note_off_c, 0, 64, 100
1, 61440, Note_on_c, 0, 64, 100
1, 61536, Note_off_c, 0, 64, 100
1, 61536, Note_on_c, 0, 67, 100
1, 61568, Note_off_c, 0, 67, 100
1, 61568, Note_on_c, 0, 64, 100
1, 61600, Note_off_c, 0, 64, 100
1, 61600, Note_on_c, 0, 62, 100
1, 61728, Note_off_c, 0, 62, 100
1, 61728, Note_on_c, 0, 60, 100
1, 62016, Note_off_c, 0, 60, 100
1, 62544, Note_on_c, 0, 55, 100
1, 62688, Note_off_c, 0, 55, 100
1, 62688, Note_on_c, 0, 58, 100
1, 62736, Note_off_c, 0, 58, 100
1, 62736, Note_on_c, 0, 60, 100
1, 62880, Note_off_c, 0, 60, 100
1, 62880, Note_on_c, 0, 63, 100
1, 62976, Note_off_c, 0, 63, 100
1, 62976, Note_on_c, 0, 67, 100
1, 63120, Note_off_c, 0, 67, 100
1, 63120, Note_on_c, 0, 67, 100
1, 63264, Note_off_c, 0, 67, 100
1, 63264, Note_on_c, 0, 65, 100
1, 63360, Note_off_c, 0, 65, 100
1, 63360, Note_on_c, 0, 67, 100
1, 63456, Note_off_c, 0, 67, 100
1, 63456, Note_on_c, 0, 65, 100
1, 63552, Note_off_c, 0, 65, 100
1, 64128, Note_on_c, 0, 64, 100
1, 64224, Note_off_c, 0, 64, 100
1, 64224, Note_on_c, 0, 69, 100
1, 64416, Note_off_c, 0, 69, 100
1, 64416, Note_on_c, 0, 62, 100
1, 64512, Note_off_c, 0, 62, 100
1, 64512, Note_on_c, 0, 67, 100
1, 64640, Note_off_c, 0, 67, 100
1, 64640, Note_on_c, 0, 60, 100
1, 64704, Note_off_c, 0, 60, 100
1, 64704, Note_on_c, 0, 65, 100
1, 64896, Note_off_c, 0, 65, 100
1, 64896, Note_on_c, 0, 64, 100
1, 65184, Note_off_c, 0, 64, 100
1, 65184, Note_on_c, 0, 62, 100
1, 65280, Note_off_c, 0, 62, 100
1, 65280, Note_on_c, 0, 61, 100
1, 65472, Note_off_c, 0, 61, 100
1, 65472, Note_on_c, 0, 59, 100
1, 65568, Note_off_c, 0, 59, 100
1, 65568, Note_on_c, 0, 57, 100
1, 65664, Note_off_c, 0, 57, 100
1, 65664, Note_on_c, 0, 58, 100
1, 65760, Note_off_c, 0, 58, 100
1, 65760, Note_on_c, 0, 60, 100
1, 65808, Note_off_c, 0, 60, 100
1, 65808, Note_on_c, 0, 61, 100
1, 65904, Note_off_c, 0, 61, 100
1, 65904, Note_on_c, 0, 63, 100
1, 66000, Note_off_c, 0, 63, 100
1, 66000, Note_on_c, 0, 65, 100
1, 66096, Note_off_c, 0, 65, 100
1, 66096, Note_on_c, 0, 67, 100
1, 66192, Note_off_c, 0, 67, 100
1, 66192, Note_on_c, 0, 72, 100
1, 66336, Note_off_c, 0, 72, 100
1, 66336, Note_on_c, 0, 70, 100
1, 66576, Note_off_c, 0, 70, 100
1, 66576, Note_on_c, 0, 67, 100
1, 66816, Note_off_c, 0, 67, 100
1, 66816, Note_on_c, 0, 70, 100
1, 67152, Note_off_c, 0, 70, 100
1, 67152, Note_on_c, 0, 67, 100
1, 67344, Note_off_c, 0, 67, 100
1, 67344, Note_on_c, 0, 63, 100
1, 67488, Note_off_c, 0, 63, 100
1, 67488, Note_on_c, 0, 60, 100
1, 67584, Note_off_c, 0, 60, 100
1, 68256, Note_on_c, 0, 69, 100
1, 68352, Note_off_c, 0, 69, 100
1, 68352, Note_on_c, 0, 71, 100
1, 68544, Note_off_c, 0, 71, 100
1, 68544, Note_on_c, 0, 69, 100
1, 68640, Note_off_c, 0, 69, 100
1, 68640, Note_on_c, 0, 67, 100
1, 68736, Note_off_c, 0, 67, 100
1, 68736, Note_on_c, 0, 66, 100
1, 68864, Note_off_c, 0, 66, 100
1, 68864, Note_on_c, 0, 64, 100
1, 68928, Note_off_c, 0, 64, 100
1, 68928, Note_on_c, 0, 62, 100
1, 69024, Note_off_c, 0, 62, 100
1, 69024, Note_on_c, 0, 61, 100
1, 69120, Note_off_c, 0, 61, 100
1, 69120, Note_on_c, 0, 60, 100
1, 69216, Note_off_c, 0, 60, 100
1, 69216, Note_on_c, 0, 59, 100
1, 69312, Note_off_c, 0, 59, 100
1, 69312, Note_on_c, 0, 57, 100
1, 69408, Note_off_c, 0, 57, 100
1, 69408, Note_on_c, 0, 55, 100
1, 69504, Note_off_c, 0, 55, 100
1, 69504, Note_on_c, 0, 53, 100
1, 69600, Note_off_c, 0, 53, 100
1, 69600, Note_on_c, 0, 64, 100
1, 69840, Note_off_c, 0, 64, 100
1, 69840, Note_on_c, 0, 62, 100
1, 70176, Note_off_c, 0, 62, 100
1, 70176, Note_on_c, 0, 67, 100
1, 70368, Note_off_c, 0, 67, 100
1, 71328, Note_on_c, 0, 62, 100
1, 71488, Note_off_c, 0, 62, 100
1, 71488, Note_on_c, 0, 61, 100
1, 71552, Note_off_c, 0, 61, 100
1, 71552, Note_on_c, 0, 60, 100
1, 71712, Note_off_c, 0, 60, 100
1, 71712, Note_on_c, 0, 65, 100
1, 71856, Note_off_c, 0, 65, 100
1, 71856, Note_on_c, 0, 64, 100
1, 71952, Note_off_c, 0, 64, 100
1, 71952, Note_on_c, 0, 63, 100
1, 72096, Note_off_c, 0, 63, 100
1, 72096, Note_on_c, 0, 58, 100
1, 72192, Note_off_c, 0, 58, 100
1, 72192, Note_on_c, 0, 57, 100
1, 72288, Note_off_c, 0, 57, 100
1, 72288, Note_on_c, 0, 56, 100
1, 72480, Note_off_c, 0, 56, 100
1, 72480, Note_on_c, 0, 62, 100
1, 72576, Note_off_c, 0, 62, 100
1, 72576, Note_on_c, 0, 63, 100
1, 72720, Note_off_c, 0, 63, 100
1, 72720, Note_on_c, 0, 59, 100
1, 72960, Note_off_c, 0, 59, 100
1, 72960, Note_on_c, 0, 62, 100
1, 73056, Note_off_c, 0, 62, 100
1, 73056, Note_on_c, 0, 62, 100
1, 73152, Note_off_c, 0, 62, 100
1, 73152, Note_on_c, 0, 59, 100
1, 73296, Note_off_c, 0, 59, 100
1, 73296, Note_on_c, 0, 62, 100
1, 73566, Note_off_c, 0, 62, 100
1, 73566, End_track
0, 0, End_of_file
