0, 0, Header, 1, 1, 192
1, 0, Start_track
1, 0, Title_t, "Melody"
1, 0, Tempo, 588235
1, 0, Key_signature, -3, "minor"
1, 0, Time_signature, 4, 2, 24, 8
1, 48, Note_on_c, 0, 63, 100
1, 192, Note_off_c, 0, 63, 100
1, 192, Note_on_c, 0, 60, 100
1, 288, Note_off_c, 0, 60, 100
1, 288, Note_on_c, 0, 61, 100
1, 384, Note_off_c, 0, 61, 100
1, 384, Note_on_c, 0, 58, 100
1, 528, Note_off_c, 0, 58, 100
1, 528, Note_on_c, 0, 56, 100
1, 624, Note_off_c, 0, 56, 100
1, 864, Note_on_c, 0, 70, 100
1, 912, Note_off_c, 0, 70, 100
1, 912, Note_on_c, 0, 72, 100
1, 1056, Note_off_c, 0, 72, 100
1, 1056, Note_on_c, 0, 70, 100
1, 1104, Note_off_c, 0, 70, 100
1, 1104, Note_on_c, 0, 63, 100
1, 1200, Note_off_c, 0, 63, 100
1, 1200, Note_on_c, 0, 68, 100
1, 1248, Note_off_c, 0, 68, 100
1, 1248, Note_on_c, 0, 67, 100
1, 1296, Note_off_c, 0, 67, 100
1, 1296, Note_on_c, 0, 63, 100
1, 1392, Note_off_c, 0, 63, 100
1, 1392, Note_on_c, 0, 58, 100
1, 1440, Note_off_c, 0, 58, 100
1, 1440, Note_on_c, 0, 56, 100
1, 1488, Note_off_c, 0, 56, 100
1, 1488, Note_on_c, 0, 55, 100
1, 1632, Note_off_c, 0, 55, 100
1, 1632, Note_on_c, 0, 63, 100
1, 2112, Note_off_c, 0, 63, 100
1, 2304, Note_on_c, 0, 68, 100
1, 2352, Note_off_c, 0, 68, 100
1, 2352, Note_on_c, 0, 70, 100
1, 2400, Note_off_c, 0, 70, 100
1, 2400, Note_on_c, 0, 68, 100
1, 2448, Note_off_c, 0, 68, 100
1, 2448, Note_on_c, 0, 63, 100
1, 2640, Note_off_c, 0, 63, 100
1, 2640, Note_on_c, 0, 68, 100
1, 2752, Note_off_c, 0, 68, 100
1, 2752, Note_on_c, 0, 67, 100
1, 2816, Note_off_c, 0, 67, 100
1, 2816, Note_on_c, 0, 63, 100
1, 3024, Note_off_c, 0, 63, 100
1, 3024, Note_on_c, 0, 60, 100
1, 3072, Note_off_c, 0, 60, 100
1, 3072, Note_on_c, 0, 63, 100
1, 3168, Note_off_c, 0, 63, 100
1, 3168, Note_on_c, 0, 63, 100
1, 3264, Note_off_c, 0, 63, 100
1, 3552, Note_on_c, 0, 55, 100
1, 3583, Note_off_c, 0, 55, 100
1, 3583, Note_on_c, 0, 58, 100
1, 3615, Note_off_c, 0, 58, 100
1, 3615, Note_on_c, 0, 61, 100
1, 3711, Note_off_c, 0, 61, 100
1, 3711, Note_on_c, 0, 65, 100
1, 3774, Note_off_c, 0, 65, 100
1, 3774, Note_on_c, 0, 67, 100
1, 3886, Note_off_c, 0, 67, 100
1, 3886, Note_on_c, 0, 70, 100
1, 3934, Note_off_c, 0, 70, 100
1, 3934, Note_on_c, 0, 72, 100
1, 4126, Note_off_c, 0, 72, 100
1, 4126, Note_on_c, 0, 67, 100
1, 4260, Note_off_c, 0, 67, 100
1, 4260, Note_on_c, 0, 69, 100
1, 4298, Note_off_c, 0, 69, 100
1, 4298, Note_on_c, 0, 70, 100
1, 4336, Note_off_c, 0, 70, 100
1, 4336, Note_on_c, 0, 67, 100
1, 4374, Note_off_c, 0, 67, 100
1, 4374, Note_on_c, 0, 63, 100
1, 4412, Note_off_c, 0, 63, 100
1, 4412, Note_on_c, 0, 61, 100
1, 4556, Note_off_c, 0, 61, 100
1, 4556, Note_on_c, 0, 63, 100
1, 4652, Note_off_c, 0, 63, 100
1, 4652, Note_on_c, 0, 59, 100
1, 4700, Note_off_c, 0, 59, 100
1, 4700, Note_on_c, 0, 60, 100
1, 4940, Note_off_c, 0, 60, 100
1, 4940, Note_on_c, 0, 68, 100
1, 5132, Note_off_c, 0, 68, 100
1, 5516, Note_on_c, 0, 68, 100
1, 5628, Note_off_c, 0, 68, 100
1, 5628, Note_on_c, 0, 68, 100
1, 5692, Note_off_c, 0, 68, 100
1, 5692, Note_on_c, 0, 70, 100
1, 5756, Note_off_c, 0, 70, 100
1, 5756, Note_on_c, 0, 66, 100
1, 5804, Note_off_c, 0, 66, 100
1, 5804, Note_on_c, 0, 65, 100
1, 5852, Note_off_c, 0, 65, 100
1, 5852, Note_on_c, 0, 63, 100
1, 6236, Note_off_c, 0, 63, 100
1, 6236, Note_on_c, 0, 69, 100
1, 6284, Note_off_c, 0, 69, 100
1, 6284, Note_on_c, 0, 68, 100
1, 6332, Note_off_c, 0, 68, 100
1, 6332, Note_on_c, 0, 70, 100
1, 6620, Note_off_c, 0, 70, 100
1, 6620, Note_on_c, 0, 68, 100
1, 6716, Note_off_c, 0, 68, 100
1, 6716, Note_on_c, 0, 68, 100
1, 6764, Note_off_c, 0, 68, 100
1, 6764, Note_on_c, 0, 67, 100
1, 6812, Note_off_c, 0, 67, 100
1, 6812, Note_on_c, 0, 65, 100
1, 6860, Note_off_c, 0, 65, 100
1, 6860, Note_on_c, 0, 63, 100
1, 6908, Note_off_c, 0, 63, 100
1, 6908, Note_on_c, 0, 62, 100
1, 6956, Note_off_c, 0, 62, 100
1, 6956, Note_on_c, 0, 60, 100
1, 7004, Note_off_c, 0, 60, 100
1, 7004, Note_on_c, 0, 58, 100
1, 7052, Note_off_c, 0, 58, 100
1, 7052, Note_on_c, 0, 55, 100
1, 7132, Note_off_c, 0, 55, 100
1, 7132, Note_on_c, 0, 56, 100
1, 7164, Note_off_c, 0, 56, 100
1, 7164, Note_on_c, 0, 57, 100
1, 7196, Note_off_c, 0, 57, 100
1, 7196, Note_on_c, 0, 60, 100
1, 7260, Note_off_c, 0, 60, 100
1, 7260, Note_on_c, 0, 62, 100
1, 7292, Note_off_c, 0, 62, 100
1, 7292, Note_on_c, 0, 67, 100
1, 7340, Note_off_c, 0, 67, 100
1, 7340, Note_on_c, 0, 65, 100
1, 7388, Note_off_c, 0, 65, 100
1, 7388, Note_on_c, 0, 62, 100
1, 7484, Note_off_c, 0, 62, 100
1, 7791, Note_on_c, 0, 60, 100
1, 7829, Note_off_c, 0, 60, 100
1, 7829, Note_on_c, 0, 58, 100
1, 7867, Note_off_c, 0, 58, 100
1, 7867, Note_on_c, 0, 63, 100
1, 7939, Note_off_c, 0, 63, 100
1, 7939, Note_on_c, 0, 65, 100
1, 8011, Note_off_c, 0, 65, 100
1, 8011, Note_on_c, 0, 66, 100
1, 8035, Note_off_c, 0, 66, 100
1, 8035, Note_on_c, 0, 67, 100
1, 8107, Note_off_c, 0, 67, 100
1, 8107, Note_on_c, 0, 68, 100
1, 8203, Note_off_c, 0, 68, 100
1, 8203, Note_on_c, 0, 70, 100
1, 8299, Note_off_c, 0, 70, 100
1, 8299, Note_on_c, 0, 66, 100
1, 8347, Note_off_c, 0, 66, 100
1, 8347, Note_on_c, 0, 67, 100
1, 8395, Note_off_c, 0, 67, 100
1, 8395, Note_on_c, 0, 63, 100
1, 8582, Note_off_c, 0, 63, 100
1, 8582, Note_on_c, 0, 57, 100
1, 8599, Note_off_c, 0, 57, 100
1, 8599, Note_on_c, 0, 59, 100
1, 8616, Note_off_c, 0, 59, 100
1, 8616, Note_on_c, 0, 62, 100
1, 8633, Note_off_c, 0, 62, 100
1, 8633, Note_on_c, 0, 63, 100
1, 8681, Note_off_c, 0, 63, 100
1, 8681, Note_on_c, 0, 65, 100
1, 8729, Note_off_c, 0, 65, 100
1, 8729, Note_on_c, 0, 66, 100
1, 8777, Note_off_c, 0, 66, 100
1, 8777, Note_on_c, 0, 67, 100
1, 8873, Note_off_c, 0, 67, 100
1, 8873, Note_on_c, 0, 72, 100
1, 8969, Note_off_c, 0, 72, 100
1, 8969, Note_on_c, 0, 65, 100
1, 9017, Note_off_c, 0, 65, 100
1, 9017, Note_on_c, 0, 67, 100
1, 9081, Note_off_c, 0, 67, 100
1, 9081, Note_on_c, 0, 63, 100
1, 9305, Note_off_c, 0, 63, 100
1, 9305, Note_on_c, 0, 56, 100
1, 9353, Note_off_c, 0, 56, 100
1, 9353, Note_on_c, 0, 59, 100
1, 9401, Note_off_c, 0, 59, 100
1, 9401, Note_on_c, 0, 60, 100
1, 9465, Note_off_c, 0, 60, 100
1, 9465, Note_on_c, 0, 63, 100
1, 9529, Note_off_c, 0, 63, 100
1, 9529, Note_on_c, 0, 65, 100
1, 9617, Note_off_c, 0, 65, 100
1, 9617, Note_on_c, 0, 66, 100
1, 9689, Note_off_c, 0, 66, 100
1, 9689, Note_on_c, 0, 63, 100
1, 9737, Note_off_c, 0, 63, 100
1, 9737, Note_on_c, 0, 67, 100
1, 9761, Note_off_c, 0, 67, 100
1, 9761, Note_on_c, 0, 69, 100
1, 9785, Note_off_c, 0, 69, 100
1, 9785, Note_on_c, 0, 68, 100
1, 9977, Note_off_c, 0, 68, 100
1, 9977, Note_on_c, 0, 66, 100
1, 10041, Note_off_c, 0, 66, 100
1, 10041, Note_on_c, 0, 63, 100
1, 10105, Note_off_c, 0, 63, 100
1, 10105, Note_on_c, 0, 58, 100
1, 10169, Note_off_c, 0, 58, 100
1, 10169, Note_on_c, 0, 56, 100
1, 10217, Note_off_c, 0, 56, 100
1, 10217, Note_on_c, 0, 51, 100
1, 10265, Note_off_c, 0, 51, 100
1, 10265, Note_on_c, 0, 54, 100
1, 10457, Note_off_c, 0, 54, 100
1, 11081, Note_on_c, 0, 72, 100
1, 11105, Note_off_c, 0, 72, 100
1, 11105, Note_on_c, 0, 71, 100
1, 11129, Note_off_c, 0, 71, 100
1, 11129, Note_on_c, 0, 70, 100
1, 11177, Note_off_c, 0, 70, 100
1, 11177, Note_on_c, 0, 68, 100
1, 11225, Note_off_c, 0, 68, 100
1, 11225, Note_on_c, 0, 67, 100
1, 11273, Note_off_c, 0, 67, 100
1, 11273, Note_on_c, 0, 65, 100
1, 11321, Note_off_c, 0, 65, 100
1, 11321, Note_on_c, 0, 64, 100
1, 11369, Note_off_c, 0, 64, 100
1, 11369, Note_on_c, 0, 61, 100
1, 11417, Note_off_c, 0, 61, 100
1, 11417, Note_on_c, 0, 60, 100
1, 11465, Note_off_c, 0, 60, 100
1, 11465, Note_on_c, 0, 58, 100
1, 11513, Note_off_c, 0, 58, 100
1, 11513, Note_on_c, 0, 57, 100
1, 11561, Note_off_c, 0, 57, 100
1, 11561, Note_on_c, 0, 60, 100
1, 11609, Note_off_c, 0, 60, 100
1, 11609, Note_on_c, 0, 63, 100
1, 11705, Note_off_c, 0, 63, 100
1, 11705, Note_on_c, 0, 67, 100
1, 11897, Note_off_c, 0, 67, 100
1, 11897, Note_on_c, 0, 56, 100
1, 11993, Note_off_c, 0, 56, 100
1, 11993, Note_on_c, 0, 67, 100
1, 12041, Note_off_c, 0, 67, 100
1, 12041, Note_on_c, 0, 68, 100
1, 12089, Note_off_c, 0, 68, 100
1, 12089, Note_on_c, 0, 67, 100
1, 12137, Note_off_c, 0, 67, 100
1, 12137, Note_on_c, 0, 65, 100
1, 12185, Note_off_c, 0, 65, 100
1, 12185, Note_on_c, 0, 62, 100
1, 12233, Note_off_c, 0, 62, 100
1, 12233, Note_on_c, 0, 59, 100
1, 12281, Note_off_c, 0, 59, 100
1, 12281, Note_on_c, 0, 58, 100
1, 12377, Note_off_c, 0, 58, 100
1, 12377, Note_on_c, 0, 63, 100
1, 12473, Note_off_c, 0, 63, 100
1, 12473, Note_on_c, 0, 63, 100
1, 12617, Note_off_c, 0, 63, 100
1, 12617, Note_on_c, 0, 58, 100
1, 12665, Note_off_c, 0, 58, 100
1, 12665, Note_on_c, 0, 56, 100
1, 12761, Note_off_c, 0, 56, 100
1, 12761, Note_on_c, 0, 63, 100
1, 12857, Note_off_c, 0, 63, 100
1, 12857, Note_on_c, 0, 57, 100
1, 12953, Note_off_c, 0, 57, 100
1, 12953, Note_on_c, 0, 63, 100
1, 13049, Note_off_c, 0, 63, 100
1, 13049, Note_on_c, 0, 58, 100
1, 13113, Note_off_c, 0, 58, 100
1, 13113, Note_on_c, 0, 63, 100
1, 13305, Note_off_c, 0, 63, 100
1, 13497, Note_on_c, 0, 63, 100
1, 13561, Note_off_c, 0, 63, 100
1, 13561, Note_on_c, 0, 63, 100
1, 13649, Note_off_c, 0, 63, 100
1, 13649, Note_on_c, 0, 67, 100
1, 13673, Note_off_c, 0, 67, 100
1, 13673, Note_on_c, 0, 68, 100
1, 13721, Note_off_c, 0, 68, 100
1, 13721, Note_on_c, 0, 67, 100
1, 13793, Note_off_c, 0, 67, 100
1, 13793, Note_on_c, 0, 63, 100
1, 13865, Note_off_c, 0, 63, 100
1, 13865, Note_on_c, 0, 63, 100
1, 13961, Note_off_c, 0, 63, 100
1, 13961, Note_on_c, 0, 63, 100
1, 14057, Note_off_c, 0, 63, 100
1, 14265, Note_on_c, 0, 63, 100
1, 14329, Note_off_c, 0, 63, 100
1, 14329, Note_on_c, 0, 63, 100
1, 14441, Note_off_c, 0, 63, 100
1, 14441, Note_on_c, 0, 68, 100
1, 14489, Note_off_c, 0, 68, 100
1, 14489, Note_on_c, 0, 70, 100
1, 14537, Note_off_c, 0, 70, 100
1, 14537, Note_on_c, 0, 68, 100
1, 14585, Note_off_c, 0, 68, 100
1, 14585, Note_on_c, 0, 66, 100
1, 14623, Note_off_c, 0, 66, 100
1, 14623, Note_on_c, 0, 63, 100
1, 14738, Note_off_c, 0, 63, 100
1, 14738, Note_on_c, 0, 63, 100
1, 14834, Note_off_c, 0, 63, 100
1, 15032, Note_on_c, 0, 63, 100
1, 15096, Note_off_c, 0, 63, 100
1, 15096, Note_on_c, 0, 63, 100
1, 15160, Note_off_c, 0, 63, 100
1, 15160, Note_on_c, 0, 67, 100
1, 15208, Note_off_c, 0, 67, 100
1, 15208, Note_on_c, 0, 68, 100
1, 15256, Note_off_c, 0, 68, 100
1, 15256, Note_on_c, 0, 67, 100
1, 15304, Note_off_c, 0, 67, 100
1, 15304, Note_on_c, 0, 63, 100
1, 15448, Note_off_c, 0, 63, 100
1, 15448, Note_on_c, 0, 62, 100
1, 15544, Note_off_c, 0, 62, 100
1, 15544, Note_on_c, 0, 63, 100
1, 15592, Note_off_c, 0, 63, 100
1, 15592, Note_on_c, 0, 63, 100
1, 15736, Note_off_c, 0, 63, 100
1, 15736, Note_on_c, 0, 63, 100
1, 15784, Note_off_c, 0, 63, 100
1, 15784, Note_on_c, 0, 63, 100
1, 15928, Note_off_c, 0, 63, 100
1, 15928, Note_on_c, 0, 63, 100
1, 16072, Note_off_c, 0, 63, 100
1, 16072, Note_on_c, 0, 61, 100
1, 16120, Note_off_c, 0, 61, 100
1, 16120, Note_on_c, 0, 67, 100
1, 16216, Note_off_c, 0, 67, 100
1, 16216, Note_on_c, 0, 63, 100
1, 16312, Note_off_c, 0, 63, 100
1, 16312, Note_on_c, 0, 63, 100
1, 16696, Note_off_c, 0, 63, 100
1, 16696, Note_on_c, 0, 72, 100
1, 16792, Note_off_c, 0, 72, 100
1, 16792, Note_on_c, 0, 63, 100
1, 16984, Note_off_c, 0, 63, 100
1, 17464, Note_on_c, 0, 63, 100
1, 17512, Note_off_c, 0, 63, 100
1, 17512, Note_on_c, 0, 65, 100
1, 17560, Note_off_c, 0, 65, 100
1, 17560, Note_on_c, 0, 68, 100
1, 17608, Note_off_c, 0, 68, 100
1, 17608, Note_on_c, 0, 70, 100
1, 17704, Note_off_c, 0, 70, 100
1, 17704, Note_on_c, 0, 70, 100
1, 17752, Note_off_c, 0, 70, 100
1, 17752, Note_on_c, 0, 72, 100
1, 17848, Note_off_c, 0, 72, 100
1, 17848, Note_on_c, 0, 70, 100
1, 17880, Note_off_c, 0, 70, 100
1, 17880, Note_on_c, 0, 72, 100
1, 17976, Note_off_c, 0, 72, 100
1, 17976, Note_on_c, 0, 70, 100
1, 18008, Note_off_c, 0, 70, 100
1, 18008, Note_on_c, 0, 72, 100
1, 18040, Note_off_c, 0, 72, 100
1, 18040, Note_on_c, 0, 68, 100
1, 18088, Note_off_c, 0, 68, 100
1, 18088, Note_on_c, 0, 63, 100
1, 18184, Note_off_c, 0, 63, 100
1, 18184, Note_on_c, 0, 63, 100
1, 18376, Note_off_c, 0, 63, 100
1, 18760, Note_on_c, 0, 74, 100
1, 18856, Note_off_c, 0, 74, 100
1, 18856, Note_on_c, 0, 72, 100
1, 18904, Note_off_c, 0, 72, 100
1, 18904, Note_on_c, 0, 70, 100
1, 18952, Note_off_c, 0, 70, 100
1, 18952, Note_on_c, 0, 69, 100
1, 19000, Note_off_c, 0, 69, 100
1, 19000, Note_on_c, 0, 68, 100
1, 19048, Note_off_c, 0, 68, 100
1, 19048, Note_on_c, 0, 67, 100
1, 19096, Note_off_c, 0, 67, 100
1, 19096, Note_on_c, 0, 65, 100
1, 19144, Note_off_c, 0, 65, 100
1, 19144, Note_on_c, 0, 64, 100
1, 19240, Note_off_c, 0, 64, 100
1, 19240, Note_on_c, 0, 67, 100
1, 19288, Note_off_c, 0, 67, 100
1, 19288, Note_on_c, 0, 65, 100
1, 19336, Note_off_c, 0, 65, 100
1, 19336, Note_on_c, 0, 63, 100
1, 19448, Note_off_c, 0, 63, 100
1, 19448, Note_on_c, 0, 61, 100
1, 19480, Note_off_c, 0, 61, 100
1, 19480, Note_on_c, 0, 62, 100
1, 19512, Note_off_c, 0, 62, 100
1, 19512, Note_on_c, 0, 65, 100
1, 19544, Note_off_c, 0, 65, 100
1, 19544, Note_on_c, 0, 72, 100
1, 19576, Note_off_c, 0, 72, 100
1, 19576, Note_on_c, 0, 70, 100
1, 19624, Note_off_c, 0, 70, 100
1, 19624, Note_on_c, 0, 69, 100
1, 19672, Note_off_c, 0, 69, 100
1, 19672, Note_on_c, 0, 68, 100
1, 19720, Note_off_c, 0, 68, 100
1, 19720, Note_on_c, 0, 63, 100
1, 19768, Note_off_c, 0, 63, 100
1, 19768, Note_on_c, 0, 65, 100
1, 19806, Note_off_c, 0, 65, 100
1, 19806, Note_on_c, 0, 67, 100
1, 19921, Note_off_c, 0, 67, 100
1, 19921, Note_on_c, 0, 68, 100
1, 19959, Note_off_c, 0, 68, 100
1, 19959, Note_on_c, 0, 65, 100
1, 20007, Note_off_c, 0, 65, 100
1, 20007, Note_on_c, 0, 63, 100
1, 20295, Note_off_c, 0, 63, 100
1, 20295, Note_on_c, 0, 63, 100
1, 20343, Note_off_c, 0, 63, 100
1, 20343, Note_on_c, 0, 65, 100
1, 20391, Note_off_c, 0, 65, 100
1, 20391, Note_on_c, 0, 67, 100
1, 20487, Note_off_c, 0, 67, 100
1, 20487, Note_on_c, 0, 70, 100
1, 20535, Note_off_c, 0, 70, 100
1, 20535, Note_on_c, 0, 75, 100
1, 20663, Note_off_c, 0, 75, 100
1, 20663, Note_on_c, 0, 72, 100
1, 20727, Note_off_c, 0, 72, 100
1, 20727, Note_on_c, 0, 73, 100
1, 20871, Note_off_c, 0, 73, 100
1, 20871, Note_on_c, 0, 72, 100
1, 20919, Note_off_c, 0, 72, 100
1, 20919, Note_on_c, 0, 71, 100
1, 20951, Note_off_c, 0, 71, 100
1, 20951, Note_on_c, 0, 70, 100
1, 21015, Note_off_c, 0, 70, 100
1, 21015, Note_on_c, 0, 68, 100
1, 21047, Note_off_c, 0, 68, 100
1, 21047, Note_on_c, 0, 67, 100
1, 21079, Note_off_c, 0, 67, 100
1, 21079, Note_on_c, 0, 65, 100
1, 21111, Note_off_c, 0, 65, 100
1, 21111, Note_on_c, 0, 63, 100
1, 21159, Note_off_c, 0, 63, 100
1, 21159, Note_on_c, 0, 62, 100
1, 21207, Note_off_c, 0, 62, 100
1, 21207, Note_on_c, 0, 61, 100
1, 21303, Note_off_c, 0, 61, 100
1, 21303, Note_on_c, 0, 66, 100
1, 21327, Note_off_c, 0, 66, 100
1, 21327, Note_on_c, 0, 72, 100
1, 21423, Note_off_c, 0, 72, 100
1, 21423, Note_on_c, 0, 70, 100
1, 21471, Note_off_c, 0, 70, 100
1, 21471, Note_on_c, 0, 72, 100
1, 21495, Note_off_c, 0, 72, 100
1, 21495, Note_on_c, 0, 71, 100
1, 21533, Note_off_c, 0, 71, 100
1, 21533, Note_on_c, 0, 67, 100
1, 21571, Note_off_c, 0, 67, 100
1, 21571, Note_on_c, 0, 65, 100
1, 21609, Note_off_c, 0, 65, 100
1, 21609, Note_on_c, 0, 63, 100
1, 21647, Note_off_c, 0, 63, 100
1, 21647, Note_on_c, 0, 61, 100
1, 21685, Note_off_c, 0, 61, 100
1, 21685, Note_on_c, 0, 60, 100
1, 21733, Note_off_c, 0, 60, 100
1, 21733, Note_on_c, 0, 63, 100
1, 21781, Note_off_c, 0, 63, 100
1, 21781, Note_on_c, 0, 65, 100
1, 21877, Note_off_c, 0, 65, 100
1, 21877, Note_on_c, 0, 68, 100
1, 22069, Note_off_c, 0, 68, 100
1, 22325, Note_on_c, 0, 70, 100
1, 22389, Note_off_c, 0, 70, 100
1, 22389, Note_on_c, 0, 72, 100
1, 22549, Note_off_c, 0, 72, 100
1, 22549, Note_on_c, 0, 67, 100
1, 22597, Note_off_c, 0, 67, 100
1, 22597, Note_on_c, 0, 69, 100
1, 22645, Note_off_c, 0, 69, 100
1, 22645, Note_on_c, 0, 65, 100
1, 22693, Note_off_c, 0, 65, 100
1, 22693, Note_on_c, 0, 66, 100
1, 22741, Note_off_c, 0, 66, 100
1, 22741, Note_on_c, 0, 62, 100
1, 22789, Note_off_c, 0, 62, 100
1, 22789, Note_on_c, 0, 63, 100
1, 22837, Note_off_c, 0, 63, 100
1, 22837, Note_on_c, 0, 58, 100
1, 22875, Note_off_c, 0, 58, 100
1, 22875, Note_on_c, 0, 60, 100
1, 22951, Note_off_c, 0, 60, 100
1, 22951, Note_on_c, 0, 56, 100
1, 22989, Note_off_c, 0, 56, 100
1, 22989, Note_on_c, 0, 57, 100
1, 23027, Note_off_c, 0, 57, 100
1, 23027, Note_on_c, 0, 58, 100
1, 23123, Note_off_c, 0, 58, 100
1, 23123, Note_on_c, 0, 67, 100
1, 23219, Note_off_c, 0, 67, 100
1, 23411, Note_on_c, 0, 67, 100
1, 23507, Note_off_c, 0, 67, 100
1, 23507, Note_on_c, 0, 64, 100
1, 23699, Note_off_c, 0, 64, 100
1, 23699, Note_on_c, 0, 67, 100
1, 23747, Note_off_c, 0, 67, 100
1, 23747, Note_on_c, 0, 64, 100
1, 23795, Note_off_c, 0, 64, 100
1, 23795, Note_on_c, 0, 65, 100
1, 23891, Note_off_c, 0, 65, 100
1, 23891, Note_on_c, 0, 60, 100
1, 23987, Note_off_c, 0, 60, 100
1, 23987, Note_on_c, 0, 63, 100
1, 24035, Note_off_c, 0, 63, 100
1, 24035, Note_on_c, 0, 64, 100
1, 24131, Note_off_c, 0, 64, 100
1, 24131, Note_on_c, 0, 60, 100
1, 24179, Note_off_c, 0, 60, 100
1, 24179, Note_on_c, 0, 63, 100
1, 24227, Note_off_c, 0, 63, 100
1, 24227, Note_on_c, 0, 60, 100
1, 24275, Note_off_c, 0, 60, 100
1, 24275, Note_on_c, 0, 62, 100
1, 24371, Note_off_c, 0, 62, 100
1, 24371, Note_on_c, 0, 70, 100
1, 24419, Note_off_c, 0, 70, 100
1, 24419, Note_on_c, 0, 70, 100
1, 24467, Note_off_c, 0, 70, 100
1, 24467, Note_on_c, 0, 66, 100
1, 24563, Note_off_c, 0, 66, 100
1, 24563, Note_on_c, 0, 63, 100
1, 24755, Note_off_c, 0, 63, 100
1, 24947, Note_on_c, 0, 63, 100
1, 25091, Note_off_c, 0, 63, 100
1, 25091, Note_on_c, 0, 67, 100
1, 25139, Note_off_c, 0, 67, 100
1, 25139, Note_on_c, 0, 68, 100
1, 25187, Note_off_c, 0, 68, 100
1, 25187, Note_on_c, 0, 67, 100
1, 25235, Note_off_c, 0, 67, 100
1, 25235, Note_on_c, 0, 63, 100
1, 25331, Note_off_c, 0, 63, 100
1, 25331, Note_on_c, 0, 58, 100
1, 25379, Note_off_c, 0, 58, 100
1, 25379, Note_on_c, 0, 63, 100
1, 25571, Note_off_c, 0, 63, 100
1, 25907, Note_on_c, 0, 60, 100
1, 25955, Note_off_c, 0, 60, 100
1, 25955, Note_on_c, 0, 63, 100
1, 26003, Note_off_c, 0, 63, 100
1, 26003, Note_on_c, 0, 65, 100
1, 26051, Note_off_c, 0, 65, 100
1, 26051, Note_on_c, 0, 60, 100
1, 26099, Note_off_c, 0, 60, 100
1, 26099, Note_on_c, 0, 63, 100
1, 26387, Note_off_c, 0, 63, 100
1, 26387, Note_on_c, 0, 58, 100
1, 26483, Note_off_c, 0, 58, 100
1, 26483, Note_on_c, 0, 56, 100
1, 26675, Note_off_c, 0, 56, 100
1, 26675, Note_on_c, 0, 63, 100
1, 26819, Note_off_c, 0, 63, 100
1, 26819, Note_on_c, 0, 53, 100
1, 26867, Note_off_c, 0, 53, 100
1, 26867, Note_on_c, 0, 55, 100
1, 27059, Note_off_c, 0, 55, 100
1, 27443, Note_on_c, 0, 60, 100
1, 27491, Note_off_c, 0, 60, 100
1, 27491, Note_on_c, 0, 63, 100
1, 27539, Note_off_c, 0, 63, 100
1, 27539, Note_on_c, 0, 65, 100
1, 27587, Note_off_c, 0, 65, 100
1, 27587, Note_on_c, 0, 60, 100
1, 27635, Note_off_c, 0, 60, 100
1, 27635, Note_on_c, 0, 63, 100
1, 27923, Note_off_c, 0, 63, 100
1, 27923, Note_on_c, 0, 58, 100
1, 28019, Note_off_c, 0, 58, 100
1, 28019, Note_on_c, 0, 56, 100
1, 28211, Note_off_c, 0, 56, 100
1, 28211, Note_on_c, 0, 63, 100
1, 28339, Note_off_c, 0, 63, 100
1, 28339, Note_on_c, 0, 53, 100
1, 28371, Note_off_c, 0, 53, 100
1, 28371, Note_on_c, 0, 55, 100
1, 28563, Note_off_c, 0, 55, 100
1, 28979, Note_on_c, 0, 65, 100
1, 29043, Note_off_c, 0, 65, 100
1, 29043, Note_on_c, 0, 68, 100
1, 29107, Note_off_c, 0, 68, 100
1, 29107, Note_on_c, 0, 70, 100
1, 29171, Note_off_c, 0, 70, 100
1, 29171, Note_on_c, 0, 65, 100
1, 29219, Note_off_c, 0, 65, 100
1, 29219, Note_on_c, 0, 68, 100
1, 29459, Note_off_c, 0, 68, 100
1, 29459, Note_on_c, 0, 63, 100
1, 29555, Note_off_c, 0, 63, 100
1, 29555, Note_on_c, 0, 61, 100
1, 29747, Note_off_c, 0, 61, 100
1, 29747, Note_on_c, 0, 66, 100
1, 29785, Note_off_c, 0, 66, 100
1, 29785, Note_on_c, 0, 68, 100
1, 29900, Note_off_c, 0, 68, 100
1, 29900, Note_on_c, 0, 60, 100
1, 30092, Note_off_c, 0, 60, 100
1, 30514, Note_on_c, 0, 62, 100
1, 30562, Note_off_c, 0, 62, 100
1, 30562, Note_on_c, 0, 64, 100
1, 30610, Note_off_c, 0, 64, 100
1, 30610, Note_on_c, 0, 65, 100
1, 30658, Note_off_c, 0, 65, 100
1, 30658, Note_on_c, 0, 67, 100
1, 30770, Note_off_c, 0, 67, 100
1, 30770, Note_on_c, 0, 68, 100
1, 30834, Note_off_c, 0, 68, 100
1, 30834, Note_on_c, 0, 70, 100
1, 30946, Note_off_c, 0, 70, 100
1, 30946, Note_on_c, 0, 70, 100
1, 30994, Note_off_c, 0, 70, 100
1, 30994, Note_on_c, 0, 72, 100
1, 31138, Note_off_c, 0, 72, 100
1, 31138, Note_on_c, 0, 68, 100
1, 31186, Note_off_c, 0, 68, 100
1, 31186, Note_on_c, 0, 67, 100
1, 31234, Note_off_c, 0, 67, 100
1, 31234, Note_on_c, 0, 65, 100
1, 31282, Note_off_c, 0, 65, 100
1, 31282, Note_on_c, 0, 64, 100
1, 31330, Note_off_c, 0, 64, 100
1, 31330, Note_on_c, 0, 60, 100
1, 31378, Note_off_c, 0, 60, 100
1, 31378, Note_on_c, 0, 63, 100
1, 31426, Note_off_c, 0, 63, 100
1, 31426, Note_on_c, 0, 61, 100
1, 31474, Note_off_c, 0, 61, 100
1, 31474, Note_on_c, 0, 62, 100
1, 31589, Note_off_c, 0, 62, 100
1, 31589, Note_on_c, 0, 67, 100
1, 31627, Note_off_c, 0, 67, 100
1, 31627, Note_on_c, 0, 71, 100
1, 31665, Note_off_c, 0, 71, 100
1, 31665, Note_on_c, 0, 70, 100
1, 31761, Note_off_c, 0, 70, 100
1, 32305, Note_on_c, 0, 71, 100
1, 32369, Note_off_c, 0, 71, 100
1, 32369, Note_on_c, 0, 73, 100
1, 32433, Note_off_c, 0, 73, 100
1, 32433, Note_on_c, 0, 71, 100
1, 32481, Note_off_c, 0, 71, 100
1, 32481, Note_on_c, 0, 73, 100
1, 32529, Note_off_c, 0, 73, 100
1, 32529, Note_on_c, 0, 70, 100
1, 32577, Note_off_c, 0, 70, 100
1, 32577, Note_on_c, 0, 63, 100
1, 32673, Note_off_c, 0, 63, 100
1, 32673, Note_on_c, 0, 68, 100
1, 32769, Note_off_c, 0, 68, 100
1, 32769, Note_on_c, 0, 68, 100
1, 32817, Note_off_c, 0, 68, 100
1, 32817, Note_on_c, 0, 66, 100
1, 32913, Note_off_c, 0, 66, 100
1, 32913, Note_on_c, 0, 63, 100
1, 33009, Note_off_c, 0, 63, 100
1, 33009, Note_on_c, 0, 65, 100
1, 33047, Note_off_c, 0, 65, 100
1, 33047, Note_on_c, 0, 67, 100
1, 33123, Note_off_c, 0, 67, 100
1, 33123, Note_on_c, 0, 68, 100
1, 33161, Note_off_c, 0, 68, 100
1, 33161, Note_on_c, 0, 67, 100
1, 33247, Note_off_c, 0, 67, 100
1, 33247, Note_on_c, 0, 63, 100
1, 33295, Note_off_c, 0, 63, 100
1, 33295, Note_on_c, 0, 62, 100
1, 33343, Note_off_c, 0, 62, 100
1, 33343, Note_on_c, 0, 66, 100
1, 33391, Note_off_c, 0, 66, 100
1, 33391, Note_on_c, 0, 67, 100
1, 33439, Note_off_c, 0, 67, 100
1, 33439, Note_on_c, 0, 72, 100
1, 33487, Note_off_c, 0, 72, 100
1, 33487, Note_on_c, 0, 70, 100
1, 33535, Note_off_c, 0, 70, 100
1, 33535, Note_on_c, 0, 72, 100
1, 33583, Note_off_c, 0, 72, 100
1, 33583, Note_on_c, 0, 67, 100
1, 33647, Note_off_c, 0, 67, 100
1, 33647, Note_on_c, 0, 65, 100
1, 33711, Note_off_c, 0, 65, 100
1, 33711, Note_on_c, 0, 63, 100
1, 33775, Note_off_c, 0, 63, 100
1, 33775, Note_on_c, 0, 61, 100
1, 33813, Note_off_c, 0, 61, 100
1, 33813, Note_on_c, 0, 60, 100
1, 33851, Note_off_c, 0, 60, 100
1, 33851, Note_on_c, 0, 63, 100
1, 33889, Note_off_c, 0, 63, 100
1, 33889, Note_on_c, 0, 65, 100
1, 33927, Note_off_c, 0, 65, 100
1, 33927, Note_on_c, 0, 67, 100
1, 33965, Note_off_c, 0, 67, 100
1, 33965, Note_on_c, 0, 70, 100
1, 34205, Note_off_c, 0, 70, 100
1, 34205, Note_on_c, 0, 68, 100
1, 34253, Note_off_c, 0, 68, 100
1, 34253, Note_on_c, 0, 67, 100
1, 34301, Note_off_c, 0, 67, 100
1, 34301, Note_on_c, 0, 65, 100
1, 34349, Note_off_c, 0, 65, 100
1, 34349, Note_on_c, 0, 63, 100
1, 34445, Note_off_c, 0, 63, 100
1, 34829, Note_on_c, 0, 72, 100
1, 34877, Note_off_c, 0, 72, 100
1, 34877, Note_on_c, 0, 70, 100
1, 34925, Note_off_c, 0, 70, 100
1, 34925, Note_on_c, 0, 69, 100
1, 34973, Note_off_c, 0, 69, 100
1, 34973, Note_on_c, 0, 67, 100
1, 35021, Note_off_c, 0, 67, 100
1, 35021, Note_on_c, 0, 66, 100
1, 35069, Note_off_c, 0, 66, 100
1, 35069, Note_on_c, 0, 61, 100
1, 35117, Note_off_c, 0, 61, 100
1, 35117, Note_on_c, 0, 60, 100
1, 35165, Note_off_c, 0, 60, 100
1, 35165, Note_on_c, 0, 63, 100
1, 35213, Note_off_c, 0, 63, 100
1, 35213, Note_on_c, 0, 62, 100
1, 35261, Note_off_c, 0, 62, 100
1, 35261, Note_on_c, 0, 60, 100
1, 35309, Note_off_c, 0, 60, 100
1, 35309, Note_on_c, 0, 58, 100
1, 35357, Note_off_c, 0, 58, 100
1, 35357, Note_on_c, 0, 60, 100
1, 35405, Note_off_c, 0, 60, 100
1, 35405, Note_on_c, 0, 63, 100
1, 35453, Note_off_c, 0, 63, 100
1, 35453, Note_on_c, 0, 65, 100
1, 35501, Note_off_c, 0, 65, 100
1, 35501, Note_on_c, 0, 66, 100
1, 35533, Note_off_c, 0, 66, 100
1, 35533, Note_on_c, 0, 67, 100
1, 35565, Note_off_c, 0, 67, 100
1, 35565, Note_on_c, 0, 67, 100
1, 35629, Note_off_c, 0, 67, 100
1, 35629, Note_on_c, 0, 68, 100
1, 35661, Note_off_c, 0, 68, 100
1, 35661, Note_on_c, 0, 69, 100
1, 35693, Note_off_c, 0, 69, 100
1, 35693, Note_on_c, 0, 70, 100
1, 35741, Note_off_c, 0, 70, 100
1, 35741, Note_on_c, 0, 67, 100
1, 35789, Note_off_c, 0, 67, 100
1, 35789, Note_on_c, 0, 68, 100
1, 35837, Note_off_c, 0, 68, 100
1, 35837, Note_on_c, 0, 70, 100
1, 35885, Note_off_c, 0, 70, 100
1, 35885, Note_on_c, 0, 67, 100
1, 35933, Note_off_c, 0, 67, 100
1, 35933, Note_on_c, 0, 65, 100
1, 35981, Note_off_c, 0, 65, 100
1, 35981, Note_on_c, 0, 64, 100
1, 36029, Note_off_c, 0, 64, 100
1, 36029, Note_on_c, 0, 67, 100
1, 36077, Note_off_c, 0, 67, 100
1, 36077, Note_on_c, 0, 65, 100
1, 36125, Note_off_c, 0, 65, 100
1, 36125, Note_on_c, 0, 60, 100
1, 36221, Note_off_c, 0, 60, 100
1, 36221, Note_on_c, 0, 58, 100
1, 36269, Note_off_c, 0, 58, 100
1, 36269, Note_on_c, 0, 60, 100
1, 36557, Note_off_c, 0, 60, 100
1, 36557, Note_on_c, 0, 64, 100
1, 36605, Note_off_c, 0, 64, 100
1, 36605, Note_on_c, 0, 65, 100
1, 36653, Note_off_c, 0, 65, 100
1, 36653, Note_on_c, 0, 59, 100
1, 36701, Note_off_c, 0, 59, 100
1, 36701, Note_on_c, 0, 61, 100
1, 36797, Note_off_c, 0, 61, 100
1, 36797, Note_on_c, 0, 58, 100
1, 36909, Note_off_c, 0, 58, 100
1, 36909, Note_on_c, 0, 63, 100
1, 37133, Note_off_c, 0, 63, 100
1, 37133, Note_on_c, 0, 67, 100
1, 37229, Note_off_c, 0, 67, 100
1, 37229, Note_on_c, 0, 68, 100
1, 37277, Note_off_c, 0, 68, 100
1, 37277, Note_on_c, 0, 67, 100
1, 37325, Note_off_c, 0, 67, 100
1, 37325, Note_on_c, 0, 63, 100
1, 37373, Note_off_c, 0, 63, 100
1, 37373, Note_on_c, 0, 58, 100
1, 37421, Note_off_c, 0, 58, 100
1, 37421, Note_on_c, 0, 56, 100
1, 37517, Note_off_c, 0, 56, 100
1, 37517, Note_on_c, 0, 55, 100
1, 37565, Note_off_c, 0, 55, 100
1, 37565, Note_on_c, 0, 58, 100
1, 37677, Note_off_c, 0, 58, 100
1, 37677, Note_on_c, 0, 63, 100
1, 37773, Note_off_c, 0, 63, 100
1, 38141, Note_on_c, 0, 63, 100
1, 38253, Note_off_c, 0, 63, 100
1, 38253, Note_on_c, 0, 63, 100
1, 38317, Note_off_c, 0, 63, 100
1, 38317, Note_on_c, 0, 60, 100
1, 38381, Note_off_c, 0, 60, 100
1, 38381, Note_on_c, 0, 63, 100
1, 38429, Note_off_c, 0, 63, 100
1, 38429, Note_on_c, 0, 63, 100
1, 38525, Note_off_c, 0, 63, 100
1, 38525, Note_on_c, 0, 60, 100
1, 38621, Note_off_c, 0, 60, 100
1, 38621, Note_on_c, 0, 63, 100
1, 38717, Note_off_c, 0, 63, 100
1, 38717, Note_on_c, 0, 60, 100
1, 38813, Note_off_c, 0, 60, 100
1, 38813, Note_on_c, 0, 63, 100
1, 38909, Note_off_c, 0, 63, 100
1, 38909, Note_on_c, 0, 60, 100
1, 38957, Note_off_c, 0, 60, 100
1, 38957, Note_on_c, 0, 63, 100
1, 39053, Note_off_c, 0, 63, 100
1, 39053, Note_on_c, 0, 63, 100
1, 39149, Note_off_c, 0, 63, 100
1, 39149, Note_on_c, 0, 60, 100
1, 39245, Note_off_c, 0, 60, 100
1, 39245, Note_on_c, 0, 63, 100
1, 39485, Note_off_c, 0, 63, 100
1, 39485, Note_on_c, 0, 63, 100
1, 39533, Note_off_c, 0, 63, 100
1, 39533, Note_on_c, 0, 68, 100
1, 39581, Note_off_c, 0, 68, 100
1, 39581, Note_on_c, 0, 69, 100
1, 39629, Note_off_c, 0, 69, 100
1, 39629, Note_on_c, 0, 68, 100
1, 39725, Note_off_c, 0, 68, 100
1, 39725, Note_on_c, 0, 67, 100
1, 39773, Note_off_c, 0, 67, 100
1, 39773, Note_on_c, 0, 68, 100
1, 39869, Note_off_c, 0, 68, 100
1, 39869, Note_on_c, 0, 65, 100
1, 39917, Note_off_c, 0, 65, 100
1, 39917, Note_on_c, 0, 63, 100
1, 40013, Note_off_c, 0, 63, 100
1, 40013, Note_on_c, 0, 63, 100
1, 40061, Note_off_c, 0, 63, 100
1, 40061, Note_on_c, 0, 60, 100
1, 40157, Note_off_c, 0, 60, 100
1, 40157, Note_on_c, 0, 63, 100
1, 40253, Note_off_c, 0, 63, 100
1, 40253, Note_on_c, 0, 60, 100
1, 40301, Note_off_c, 0, 60, 100
1, 40301, Note_on_c, 0, 63, 100
1, 40397, Note_off_c, 0, 63, 100
1, 40397, Note_on_c, 0, 67, 100
1, 40445, Note_off_c, 0, 67, 100
1, 40445, Note_on_c, 0, 68, 100
1, 40589, Note_off_c, 0, 68, 100
1, 40589, Note_on_c, 0, 66, 100
1, 40637, Note_off_c, 0, 66, 100
1, 40637, Note_on_c, 0, 63, 100
1, 40749, Note_off_c, 0, 63, 100
1, 40749, Note_on_c, 0, 63, 100
1, 40973, Note_off_c, 0, 63, 100
1, 40973, Note_on_c, 0, 63, 100
1, 41069, Note_off_c, 0, 63, 100
1, 41069, Note_on_c, 0, 67, 100
1, 41117, Note_off_c, 0, 67, 100
1, 41117, Note_on_c, 0, 70, 100
1, 41165, Note_off_c, 0, 70, 100
1, 41165, Note_on_c, 0, 68, 100
1, 41189, Note_off_c, 0, 68, 100
1, 41189, Note_on_c, 0, 65, 100
1, 41213, Note_off_c, 0, 65, 100
1, 41213, Note_on_c, 0, 63, 100
1, 41237, Note_off_c, 0, 63, 100
1, 41237, Note_on_c, 0, 61, 100
1, 41261, Note_off_c, 0, 61, 100
1, 41261, Note_on_c, 0, 68, 100
1, 41309, Note_off_c, 0, 68, 100
1, 41309, Note_on_c, 0, 65, 100
1, 41357, Note_off_c, 0, 65, 100
1, 41357, Note_on_c, 0, 63, 100
1, 41453, Note_off_c, 0, 63, 100
1, 41453, Note_on_c, 0, 63, 100
1, 41549, Note_off_c, 0, 63, 100
1, 41549, Note_on_c, 0, 63, 100
1, 41789, Note_off_c, 0, 63, 100
1, 41789, Note_on_c, 0, 63, 100
1, 41901, Note_off_c, 0, 63, 100
1, 41901, Note_on_c, 0, 66, 100
1, 41965, Note_off_c, 0, 66, 100
1, 41965, Note_on_c, 0, 63, 100
1, 42029, Note_off_c, 0, 63, 100
1, 42029, Note_on_c, 0, 66, 100
1, 42125, Note_off_c, 0, 66, 100
1, 42125, Note_on_c, 0, 65, 100
1, 42173, Note_off_c, 0, 65, 100
1, 42173, Note_on_c, 0, 66, 100
1, 42221, Note_off_c, 0, 66, 100
1, 42221, Note_on_c, 0, 63, 100
1, 42317, Note_off_c, 0, 63, 100
1, 42317, Note_on_c, 0, 63, 100
1, 42413, Note_off_c, 0, 63, 100
1, 42557, Note_on_c, 0, 63, 100
1, 42605, Note_off_c, 0, 63, 100
1, 42605, Note_on_c, 0, 68, 100
1, 42653, Note_off_c, 0, 68, 100
1, 42653, Note_on_c, 0, 66, 100
1, 42701, Note_off_c, 0, 66, 100
1, 42701, Note_on_c, 0, 63, 100
1, 42797, Note_off_c, 0, 63, 100
1, 42797, Note_on_c, 0, 63, 100
1, 42989, Note_off_c, 0, 63, 100
1, 42989, Note_on_c, 0, 65, 100
1, 43085, Note_off_c, 0, 65, 100
1, 43085, Note_on_c, 0, 65, 100
1, 43277, Note_off_c, 0, 65, 100
1, 43277, Note_on_c, 0, 61, 100
1, 43325, Note_off_c, 0, 61, 100
1, 43325, Note_on_c, 0, 64, 100
1, 43421, Note_off_c, 0, 64, 100
1, 43421, Note_on_c, 0, 67, 100
1, 43469, Note_off_c, 0, 67, 100
1, 43469, Note_on_c, 0, 65, 100
1, 43517, Note_off_c, 0, 65, 100
1, 43517, Note_on_c, 0, 61, 100
1, 43565, Note_off_c, 0, 61, 100
1, 43565, Note_on_c, 0, 63, 100
1, 43613, Note_off_c, 0, 63, 100
1, 43613, Note_on_c, 0, 61, 100
1, 43661, Note_off_c, 0, 61, 100
1, 43661, Note_on_c, 0, 62, 100
1, 43709, Note_off_c, 0, 62, 100
1, 43709, Note_on_c, 0, 60, 100
1, 43757, Note_off_c, 0, 60, 100
1, 43757, Note_on_c, 0, 58, 100
1, 43949, Note_off_c, 0, 58, 100
1, 44189, Note_on_c, 0, 58, 100
1, 44237, Note_off_c, 0, 58, 100
1, 44237, Note_on_c, 0, 60, 100
1, 44285, Note_off_c, 0, 60, 100
1, 44285, Note_on_c, 0, 63, 100
1, 44381, Note_off_c, 0, 63, 100
1, 44381, Note_on_c, 0, 68, 100
1, 44477, Note_off_c, 0, 68, 100
1, 44477, Note_on_c, 0, 65, 100
1, 44525, Note_off_c, 0, 65, 100
1, 44525, Note_on_c, 0, 63, 100
1, 44621, Note_off_c, 0, 63, 100
1, 44621, Note_on_c, 0, 63, 100
1, 44781, Note_off_c, 0, 63, 100
1, 44781, Note_on_c, 0, 68, 100
1, 44845, Note_off_c, 0, 68, 100
1, 44845, Note_on_c, 0, 65, 100
1, 44877, Note_off_c, 0, 65, 100
1, 44877, Note_on_c, 0, 67, 100
1, 44957, Note_off_c, 0, 67, 100
1, 44957, Note_on_c, 0, 63, 100
1, 45005, Note_off_c, 0, 63, 100
1, 45005, Note_on_c, 0, 63, 100
1, 45053, Note_off_c, 0, 63, 100
1, 45053, Note_on_c, 0, 66, 100
1, 45101, Note_off_c, 0, 66, 100
1, 45101, Note_on_c, 0, 63, 100
1, 45149, Note_off_c, 0, 63, 100
1, 45149, Note_on_c, 0, 67, 100
1, 45197, Note_off_c, 0, 67, 100
1, 45197, Note_on_c, 0, 66, 100
1, 45245, Note_off_c, 0, 66, 100
1, 45245, Note_on_c, 0, 67, 100
1, 45293, Note_off_c, 0, 67, 100
1, 45293, Note_on_c, 0, 63, 100
1, 45485, Note_off_c, 0, 63, 100
1, 45485, Note_on_c, 0, 70, 100
1, 45581, Note_off_c, 0, 70, 100
1, 45581, Note_on_c, 0, 72, 100
1, 45677, Note_off_c, 0, 72, 100
1, 45677, Note_on_c, 0, 70, 100
1, 45715, Note_off_c, 0, 70, 100
1, 45715, Note_on_c, 0, 68, 100
1, 45753, Note_off_c, 0, 68, 100
1, 45753, Note_on_c, 0, 67, 100
1, 45791, Note_off_c, 0, 67, 100
1, 45791, Note_on_c, 0, 65, 100
1, 45829, Note_off_c, 0, 65, 100
1, 45829, Note_on_c, 0, 63, 100
1, 45915, Note_off_c, 0, 63, 100
1, 45915, Note_on_c, 0, 62, 100
1, 45963, Note_off_c, 0, 62, 100
1, 45963, Note_on_c, 0, 61, 100
1, 46011, Note_off_c, 0, 61, 100
1, 46011, Note_on_c, 0, 65, 100
1, 46059, Note_off_c, 0, 65, 100
1, 46059, Note_on_c, 0, 63, 100
1, 46107, Note_off_c, 0, 63, 100
1, 46107, Note_on_c, 0, 61, 100
1, 46155, Note_off_c, 0, 61, 100
1, 46155, Note_on_c, 0, 60, 100
1, 46203, Note_off_c, 0, 60, 100
1, 46203, Note_on_c, 0, 65, 100
1, 46251, Note_off_c, 0, 65, 100
1, 46251, Note_on_c, 0, 70, 100
1, 46347, Note_off_c, 0, 70, 100
1, 46347, Note_on_c, 0, 69, 100
1, 46395, Note_off_c, 0, 69, 100
1, 46395, Note_on_c, 0, 67, 100
1, 46443, Note_off_c, 0, 67, 100
1, 46443, Note_on_c, 0, 68, 100
1, 46491, Note_off_c, 0, 68, 100
1, 46491, Note_on_c, 0, 67, 100
1, 46539, Note_off_c, 0, 67, 100
1, 46539, Note_on_c, 0, 65, 100
1, 46587, Note_off_c, 0, 65, 100
1, 46587, Note_on_c, 0, 64, 100
1, 46635, Note_off_c, 0, 64, 100
1, 46635, Note_on_c, 0, 63, 100
1, 46827, Note_off_c, 0, 63, 100
1, 47067, Note_on_c, 0, 70, 100
1, 47115, Note_off_c, 0, 70, 100
1, 47115, Note_on_c, 0, 72, 100
1, 47163, Note_off_c, 0, 72, 100
1, 47163, Note_on_c, 0, 65, 100
1, 47211, Note_off_c, 0, 65, 100
1, 47211, Note_on_c, 0, 66, 100
1, 47259, Note_off_c, 0, 66, 100
1, 47259, Note_on_c, 0, 67, 100
1, 47307, Note_off_c, 0, 67, 100
1, 47307, Note_on_c, 0, 69, 100
1, 47355, Note_off_c, 0, 69, 100
1, 47355, Note_on_c, 0, 62, 100
1, 47403, Note_off_c, 0, 62, 100
1, 47403, Note_on_c, 0, 63, 100
1, 47451, Note_off_c, 0, 63, 100
1, 47451, Note_on_c, 0, 59, 100
1, 47499, Note_off_c, 0, 59, 100
1, 47499, Note_on_c, 0, 60, 100
1, 47595, Note_off_c, 0, 60, 100
1, 47787, Note_on_c, 0, 58, 100
1, 47835, Note_off_c, 0, 58, 100
1, 47835, Note_on_c, 0, 60, 100
1, 47883, Note_off_c, 0, 60, 100
1, 47883, Note_on_c, 0, 63, 100
1, 47931, Note_off_c, 0, 63, 100
1, 47931, Note_on_c, 0, 65, 100
1, 47979, Note_off_c, 0, 65, 100
1, 47979, Note_on_c, 0, 66, 100
1, 48017, Note_off_c, 0, 66, 100
1, 48017, Note_on_c, 0, 67, 100
1, 48055, Note_off_c, 0, 67, 100
1, 48055, Note_on_c, 0, 72, 100
1, 48131, Note_off_c, 0, 72, 100
1, 48131, Note_on_c, 0, 71, 100
1, 48169, Note_off_c, 0, 71, 100
1, 48169, Note_on_c, 0, 70, 100
1, 48217, Note_off_c, 0, 70, 100
1, 48217, Note_on_c, 0, 67, 100
1, 48265, Note_off_c, 0, 67, 100
1, 48265, Note_on_c, 0, 64, 100
1, 48313, Note_off_c, 0, 64, 100
1, 48313, Note_on_c, 0, 61, 100
1, 48361, Note_off_c, 0, 61, 100
1, 48361, Note_on_c, 0, 66, 100
1, 48399, Note_off_c, 0, 66, 100
1, 48399, Note_on_c, 0, 67, 100
1, 48437, Note_off_c, 0, 67, 100
1, 48437, Note_on_c, 0, 68, 100
1, 48513, Note_off_c, 0, 68, 100
1, 48513, Note_on_c, 0, 68, 100
1, 48551, Note_off_c, 0, 68, 100
1, 48551, Note_on_c, 0, 66, 100
1, 48589, Note_off_c, 0, 66, 100
1, 48589, Note_on_c, 0, 65, 100
1, 48627, Note_off_c, 0, 65, 100
1, 48627, Note_on_c, 0, 60, 100
1, 48703, Note_off_c, 0, 60, 100
1, 48703, Note_on_c, 0, 60, 100
1, 48741, Note_off_c, 0, 60, 100
1, 48741, Note_on_c, 0, 67, 100
1, 48773, Note_off_c, 0, 67, 100
1, 48773, Note_on_c, 0, 68, 100
1, 48837, Note_off_c, 0, 68, 100
1, 48837, Note_on_c, 0, 66, 100
1, 48901, Note_off_c, 0, 66, 100
1, 48901, Note_on_c, 0, 64, 100
1, 48981, Note_off_c, 0, 64, 100
1, 48981, Note_on_c, 0, 59, 100
1, 49029, Note_off_c, 0, 59, 100
1, 49029, Note_on_c, 0, 58, 100
1, 49077, Note_off_c, 0, 58, 100
1, 49077, Note_on_c, 0, 56, 100
1, 49125, Note_off_c, 0, 56, 100
1, 49125, Note_on_c, 0, 55, 100
1, 49317, Note_off_c, 0, 55, 100
1, 49317, Note_on_c, 0, 63, 100
1, 49573, Note_off_c, 0, 63, 100
1, 49573, Note_on_c, 0, 56, 100
1, 49636, Note_off_c, 0, 56, 100
1, 49636, Note_on_c, 0, 63, 100
1, 49738, Note_off_c, 0, 63, 100
1, 49738, Note_on_c, 0, 55, 100
1, 49776, Note_off_c, 0, 55, 100
1, 49776, Note_on_c, 0, 57, 100
1, 49852, Note_off_c, 0, 57, 100
1, 49852, Note_on_c, 0, 63, 100
1, 49890, Note_off_c, 0, 63, 100
1, 49890, Note_on_c, 0, 58, 100
1, 49986, Note_off_c, 0, 58, 100
1, 50370, Note_on_c, 0, 62, 100
1, 50418, Note_off_c, 0, 62, 100
1, 50418, Note_on_c, 0, 65, 100
1, 50802, Note_off_c, 0, 65, 100
1, 50802, Note_on_c, 0, 63, 100
1, 50850, Note_off_c, 0, 63, 100
1, 50850, Note_on_c, 0, 65, 100
1, 50994, Note_off_c, 0, 65, 100
1, 50994, Note_on_c, 0, 63, 100
1, 51042, Note_off_c, 0, 63, 100
1, 51042, Note_on_c, 0, 65, 100
1, 51186, Note_off_c, 0, 65, 100
1, 51186, Note_on_c, 0, 63, 100
1, 51234, Note_off_c, 0, 63, 100
1, 51234, Note_on_c, 0, 65, 100
1, 51426, Note_off_c, 0, 65, 100
1, 51426, Note_on_c, 0, 65, 100
1, 51522, Note_off_c, 0, 65, 100
1, 51522, Note_on_c, 0, 65, 100
1, 51618, Note_off_c, 0, 65, 100
1, 51874, Note_on_c, 0, 68, 100
1, 51938, Note_off_c, 0, 68, 100
1, 51938, Note_on_c, 0, 67, 100
1, 52050, Note_off_c, 0, 67, 100
1, 52050, Note_on_c, 0, 64, 100
1, 52098, Note_off_c, 0, 64, 100
1, 52098, Note_on_c, 0, 65, 100
1, 52258, Note_off_c, 0, 65, 100
1, 52258, Note_on_c, 0, 63, 100
1, 52322, Note_off_c, 0, 63, 100
1, 52322, Note_on_c, 0, 62, 100
1, 52386, Note_off_c, 0, 62, 100
1, 52386, Note_on_c, 0, 61, 100
1, 52434, Note_off_c, 0, 61, 100
1, 52434, Note_on_c, 0, 58, 100
1, 52482, Note_off_c, 0, 58, 100
1, 52482, Note_on_c, 0, 63, 100
1, 52530, Note_off_c, 0, 63, 100
1, 52530, Note_on_c, 0, 65, 100
1, 53058, Note_off_c, 0, 65, 100
1, 53058, Note_on_c, 0, 61, 100
1, 53106, Note_off_c, 0, 61, 100
1, 53106, Note_on_c, 0, 58, 100
1, 53154, Note_off_c, 0, 58, 100
1, 53154, Note_on_c, 0, 57, 100
1, 53218, Note_off_c, 0, 57, 100
1, 53218, Note_on_c, 0, 53, 100
1, 53282, Note_off_c, 0, 53, 100
1, 53282, Note_on_c, 0, 56, 100
1, 53346, Note_off_c, 0, 56, 100
1, 53346, Note_on_c, 0, 55, 100
1, 53442, Note_off_c, 0, 55, 100
1, 53442, Note_on_c, 0, 51, 100
1, 53538, Note_off_c, 0, 51, 100
1, 53922, Note_on_c, 0, 44, 100
1, 54018, Note_off_c, 0, 44, 100
1, 54018, Note_on_c, 0, 51, 100
1, 54066, Note_off_c, 0, 51, 100
1, 54066, Note_on_c, 0, 56, 100
1, 54162, Note_off_c, 0, 56, 100
1, 54162, Note_on_c, 0, 58, 100
1, 54210, Note_off_c, 0, 58, 100
1, 54210, Note_on_c, 0, 59, 100
1, 54258, Note_off_c, 0, 59, 100
1, 54258, Note_on_c, 0, 60, 100
1, 54354, Note_off_c, 0, 60, 100
1, 54354, Note_on_c, 0, 65, 100
1, 54402, Note_off_c, 0, 65, 100
1, 54402, Note_on_c, 0, 64, 100
1, 54450, Note_off_c, 0, 64, 100
1, 54450, Note_on_c, 0, 63, 100
1, 54498, Note_off_c, 0, 63, 100
1, 54498, Note_on_c, 0, 61, 100
1, 54546, Note_off_c, 0, 61, 100
1, 54546, Note_on_c, 0, 60, 100
1, 54594, Note_off_c, 0, 60, 100
1, 54594, Note_on_c, 0, 63, 100
1, 54642, Note_off_c, 0, 63, 100
1, 54642, Note_on_c, 0, 65, 100
1, 54690, Note_off_c, 0, 65, 100
1, 54690, Note_on_c, 0, 67, 100
1, 54738, Note_off_c, 0, 67, 100
1, 54738, Note_on_c, 0, 70, 100
1, 54834, Note_off_c, 0, 70, 100
1, 54834, Note_on_c, 0, 67, 100
1, 54882, Note_off_c, 0, 67, 100
1, 54882, Note_on_c, 0, 68, 100
1, 54978, Note_off_c, 0, 68, 100
1, 54978, Note_on_c, 0, 63, 100
1, 55074, Note_off_c, 0, 63, 100
1, 55530, Note_on_c, 0, 75, 100
1, 55578, Note_off_c, 0, 75, 100
1, 55578, Note_on_c, 0, 74, 100
1, 55602, Note_off_c, 0, 74, 100
1, 55602, Note_on_c, 0, 73, 100
1, 55626, Note_off_c, 0, 73, 100
1, 55626, Note_on_c, 0, 72, 100
1, 55650, Note_off_c, 0, 72, 100
1, 55650, Note_on_c, 0, 70, 100
1, 55682, Note_off_c, 0, 70, 100
1, 55682, Note_on_c, 0, 68, 100
1, 55714, Note_off_c, 0, 68, 100
1, 55714, Note_on_c, 0, 67, 100
1, 55778, Note_off_c, 0, 67, 100
1, 55778, Note_on_c, 0, 65, 100
1, 55810, Note_off_c, 0, 65, 100
1, 55810, Note_on_c, 0, 63, 100
1, 55842, Note_off_c, 0, 63, 100
1, 55842, Note_on_c, 0, 62, 100
1, 55906, Note_off_c, 0, 62, 100
1, 55906, Note_on_c, 0, 72, 100
1, 55970, Note_off_c, 0, 72, 100
1, 55970, Note_on_c, 0, 67, 100
1, 56034, Note_off_c, 0, 67, 100
1, 56034, Note_on_c, 0, 69, 100
1, 56098, Note_off_c, 0, 69, 100
1, 56098, Note_on_c, 0, 70, 100
1, 56162, Note_off_c, 0, 70, 100
1, 56162, Note_on_c, 0, 69, 100
1, 56226, Note_off_c, 0, 69, 100
1, 56226, Note_on_c, 0, 68, 100
1, 56274, Note_off_c, 0, 68, 100
1, 56274, Note_on_c, 0, 67, 100
1, 56322, Note_off_c, 0, 67, 100
1, 56322, Note_on_c, 0, 65, 100
1, 56370, Note_off_c, 0, 65, 100
1, 56370, Note_on_c, 0, 63, 100
1, 56418, Note_off_c, 0, 63, 100
1, 56418, Note_on_c, 0, 62, 100
1, 56456, Note_off_c, 0, 62, 100
1, 56456, Note_on_c, 0, 64, 100
1, 56494, Note_off_c, 0, 64, 100
1, 56494, Note_on_c, 0, 68, 100
1, 56532, Note_off_c, 0, 68, 100
1, 56532, Note_on_c, 0, 70, 100
1, 56570, Note_off_c, 0, 70, 100
1, 56570, Note_on_c, 0, 72, 100
1, 56608, Note_off_c, 0, 72, 100
1, 56608, Note_on_c, 0, 70, 100
1, 56656, Note_off_c, 0, 70, 100
1, 56656, Note_on_c, 0, 68, 100
1, 56704, Note_off_c, 0, 68, 100
1, 56704, Note_on_c, 0, 67, 100
1, 56752, Note_off_c, 0, 67, 100
1, 56752, Note_on_c, 0, 65, 100
1, 56800, Note_off_c, 0, 65, 100
1, 56800, Note_on_c, 0, 63, 100
1, 56896, Note_off_c, 0, 63, 100
1, 56896, Note_on_c, 0, 66, 100
1, 56944, Note_off_c, 0, 66, 100
1, 56944, Note_on_c, 0, 68, 100
1, 57088, Note_off_c, 0, 68, 100
1, 57088, Note_on_c, 0, 65, 100
1, 57136, Note_off_c, 0, 65, 100
1, 57136, Note_on_c, 0, 63, 100
1, 57248, Note_off_c, 0, 63, 100
1, 57248, Note_on_c, 0, 63, 100
1, 57344, Note_off_c, 0, 63, 100
1, 57616, Note_on_c, 0, 71, 100
1, 57664, Note_off_c, 0, 71, 100
1, 57664, Note_on_c, 0, 72, 100
1, 57760, Note_off_c, 0, 72, 100
1, 57760, Note_on_c, 0, 69, 100
1, 57856, Note_off_c, 0, 69, 100
1, 57856, Note_on_c, 0, 65, 100
1, 57904, Note_off_c, 0, 65, 100
1, 57904, Note_on_c, 0, 67, 100
1, 57952, Note_off_c, 0, 67, 100
1, 57952, Note_on_c, 0, 63, 100
1, 58048, Note_off_c, 0, 63, 100
1, 58048, Note_on_c, 0, 63, 100
1, 58144, Note_off_c, 0, 63, 100
1, 58144, Note_on_c, 0, 68, 100
1, 58192, Note_off_c, 0, 68, 100
1, 58192, Note_on_c, 0, 67, 100
1, 58240, Note_off_c, 0, 67, 100
1, 58240, Note_on_c, 0, 63, 100
1, 58288, Note_off_c, 0, 63, 100
1, 58288, Note_on_c, 0, 58, 100
1, 58336, Note_off_c, 0, 58, 100
1, 58336, Note_on_c, 0, 63, 100
1, 58432, Note_off_c, 0, 63, 100
1, 58432, Note_on_c, 0, 63, 100
1, 58528, Note_off_c, 0, 63, 100
1, 58528, Note_on_c, 0, 68, 100
1, 58600, Note_off_c, 0, 68, 100
1, 58600, Note_on_c, 0, 63, 100
1, 58672, Note_off_c, 0, 63, 100
1, 58672, Note_on_c, 0, 67, 100
1, 58696, Note_off_c, 0, 67, 100
1, 58696, Note_on_c, 0, 66, 100
1, 58768, Note_off_c, 0, 66, 100
1, 58768, Note_on_c, 0, 63, 100
1, 58864, Note_off_c, 0, 63, 100
1, 58864, Note_on_c, 0, 63, 100
1, 58912, Note_off_c, 0, 63, 100
1, 58912, Note_on_c, 0, 68, 100
1, 59008, Note_off_c, 0, 68, 100
1, 59008, Note_on_c, 0, 65, 100
1, 59056, Note_off_c, 0, 65, 100
1, 59056, Note_on_c, 0, 66, 100
1, 59104, Note_off_c, 0, 66, 100
1, 59104, Note_on_c, 0, 63, 100
1, 59200, Note_off_c, 0, 63, 100
1, 59200, Note_on_c, 0, 63, 100
1, 59296, Note_off_c, 0, 63, 100
1, 59296, Note_on_c, 0, 67, 100
1, 59360, Note_off_c, 0, 67, 100
1, 59360, Note_on_c, 0, 68, 100
1, 59424, Note_off_c, 0, 68, 100
1, 59424, Note_on_c, 0, 63, 100
1, 59488, Note_off_c, 0, 63, 100
1, 59488, Note_on_c, 0, 66, 100
1, 59584, Note_off_c, 0, 66, 100
1, 59584, Note_on_c, 0, 63, 100
1, 59632, Note_off_c, 0, 63, 100
1, 59632, Note_on_c, 0, 63, 100
1, 59680, Note_off_c, 0, 63, 100
1, 59680, Note_on_c, 0, 68, 100
1, 59776, Note_off_c, 0, 68, 100
1, 59776, Note_on_c, 0, 65, 100
1, 59872, Note_off_c, 0, 65, 100
1, 59872, Note_on_c, 0, 63, 100
1, 59968, Note_off_c, 0, 63, 100
1, 60160, Note_on_c, 0, 72, 100
1, 60208, Note_off_c, 0, 72, 100
1, 60208, Note_on_c, 0, 71, 100
1, 60256, Note_off_c, 0, 71, 100
1, 60256, Note_on_c, 0, 70, 100
1, 60304, Note_off_c, 0, 70, 100
1, 60304, Note_on_c, 0, 68, 100
1, 60352, Note_off_c, 0, 68, 100
1, 60352, Note_on_c, 0, 67, 100
1, 60400, Note_off_c, 0, 67, 100
1, 60400, Note_on_c, 0, 65, 100
1, 60448, Note_off_c, 0, 65, 100
1, 60448, Note_on_c, 0, 64, 100
1, 60496, Note_off_c, 0, 64, 100
1, 60496, Note_on_c, 0, 61, 100
1, 60544, Note_off_c, 0, 61, 100
1, 60544, Note_on_c, 0, 60, 100
1, 60592, Note_off_c, 0, 60, 100
1, 60592, Note_on_c, 0, 58, 100
1, 60640, Note_off_c, 0, 58, 100
1, 60640, Note_on_c, 0, 57, 100
1, 60736, Note_off_c, 0, 57, 100
1, 60736, Note_on_c, 0, 67, 100
1, 60832, Note_off_c, 0, 67, 100
1, 60832, Note_on_c, 0, 67, 100
1, 60928, Note_off_c, 0, 67, 100
1, 60928, Note_on_c, 0, 57, 100
1, 61024, Note_off_c, 0, 57, 100
1, 61024, Note_on_c, 0, 56, 100
1, 61120, Note_off_c, 0, 56, 100
1, 61120, Note_on_c, 0, 66, 100
1, 61216, Note_off_c, 0, 66, 100
1, 61216, Note_on_c, 0, 66, 100
1, 61312, Note_off_c, 0, 66, 100
1, 61312, Note_on_c, 0, 62, 100
1, 61408, Note_off_c, 0, 62, 100
1, 61408, Note_on_c, 0, 63, 100
1, 61504, Note_off_c, 0, 63, 100
1, 61792, Note_on_c, 0, 61, 100
1, 61888, Note_off_c, 0, 61, 100
1, 61888, Note_on_c, 0, 63, 100
1, 61984, Note_off_c, 0, 63, 100
1, 61984, Note_on_c, 0, 60, 100
1, 62032, Note_off_c, 0, 60, 100
1, 62032, Note_on_c, 0, 63, 100
1, 62080, Note_off_c, 0, 63, 100
1, 62080, Note_on_c, 0, 59, 100
1, 62128, Note_off_c, 0, 59, 100
1, 62128, Note_on_c, 0, 63, 100
1, 62176, Note_off_c, 0, 63, 100
1, 62176, Note_on_c, 0, 58, 100
1, 62368, Note_off_c, 0, 58, 100
1, 62368, Note_on_c, 0, 55, 100
1, 62444, Note_off_c, 0, 55, 100
1, 62444, Note_on_c, 0, 58, 100
1, 62482, Note_off_c, 0, 58, 100
1, 62482, Note_on_c, 0, 55, 100
1, 62520, Note_off_c, 0, 55, 100
1, 62520, Note_on_c, 0, 56, 100
1, 62606, Note_off_c, 0, 56, 100
1, 62606, Note_on_c, 0, 60, 100
1, 62654, Note_off_c, 0, 60, 100
1, 62654, Note_on_c, 0, 63, 100
1, 62750, Note_off_c, 0, 63, 100
1, 62750, Note_on_c, 0, 67, 100
1, 62798, Note_off_c, 0, 67, 100
1, 62798, Note_on_c, 0, 66, 100
1, 62866, Note_off_c, 0, 66, 100
1, 62866, End_track
0, 0, End_of_file
