0, 0, Header, 1, 1, 192
1, 0, Start_track
1, 0, Title_t, "Melody"
1, 0, Tempo, 255319
1, 0, Key_signature, -2, "minor"
1, 0, Time_signature, 4, 2, 24, 8
1, 480, Note_on_c, 0, 63, 100
1, 576, Note_off_c, 0, 63, 100
1, 576, Note_on_c, 0, 62, 100
1, 768, Note_off_c, 0, 62, 100
1, 768, Note_on_c, 0, 58, 100
1, 1248, Note_off_c, 0, 58, 100
1, 1248, Note_on_c, 0, 63, 100
1, 1344, Note_off_c, 0, 63, 100
1, 1344, Note_on_c, 0, 62, 100
1, 1440, Note_off_c, 0, 62, 100
1, 1440, Note_on_c, 0, 58, 100
1, 1632, Note_off_c, 0, 58, 100
1, 1632, Note_on_c, 0, 58, 100
1, 2016, Note_off_c, 0, 58, 100
1, 2016, Note_on_c, 0, 63, 100
1, 2112, Note_off_c, 0, 63, 100
1, 2112, Note_on_c, 0, 62, 100
1, 2304, Note_off_c, 0, 62, 100
1, 2304, Note_on_c, 0, 58, 100
1, 2688, Note_off_c, 0, 58, 100
1, 2688, Note_on_c, 0, 63, 100
1, 2880, Note_off_c, 0, 63, 100
1, 2880, Note_on_c, 0, 62, 100
1, 3008, Note_off_c, 0, 62, 100
1, 3008, Note_on_c, 0, 58, 100
1, 3103, Note_off_c, 0, 58, 100
1, 3551, Note_on_c, 0, 63, 100
1, 3791, Note_off_c, 0, 63, 100
1, 3791, Note_on_c, 0, 61, 100
1, 3903, Note_off_c, 0, 61, 100
1, 3903, Note_on_c, 0, 63, 100
1, 4031, Note_off_c, 0, 63, 100
1, 4031, Note_on_c, 0, 61, 100
1, 4223, Note_off_c, 0, 61, 100
1, 4223, Note_on_c, 0, 61, 100
1, 4415, Note_off_c, 0, 61, 100
1, 4415, Note_on_c, 0, 58, 100
1, 4607, Note_off_c, 0, 58, 100
1, 4607, Note_on_c, 0, 58, 100
1, 4895, Note_off_c, 0, 58, 100
1, 5279, Note_on_c, 0, 63, 100
1, 5375, Note_off_c, 0, 63, 100
1, 5375, Note_on_c, 0, 62, 100
1, 5519, Note_off_c, 0, 62, 100
1, 5519, Note_on_c, 0, 58, 100
1, 5663, Note_off_c, 0, 58, 100
1, 5663, Note_on_c, 0, 63, 100
1, 5759, Note_off_c, 0, 63, 100
1, 5759, Note_on_c, 0, 62, 100
1, 5903, Note_off_c, 0, 62, 100
1, 5903, Note_on_c, 0, 58, 100
1, 5999, Note_off_c, 0, 58, 100
1, 6239, Note_on_c, 0, 67, 100
1, 6335, Note_off_c, 0, 67, 100
1, 6335, Note_on_c, 0, 65, 100
1, 6431, Note_off_c, 0, 65, 100
1, 6431, Note_on_c, 0, 62, 100
1, 6527, Note_off_c, 0, 62, 100
1, 6815, Note_on_c, 0, 63, 100
1, 6911, Note_off_c, 0, 63, 100
1, 6911, Note_on_c, 0, 62, 100
1, 7007, Note_off_c, 0, 62, 100
1, 7007, Note_on_c, 0, 58, 100
1, 7295, Note_off_c, 0, 58, 100
1, 7295, Note_on_c, 0, 53, 100
1, 7487, Note_off_c, 0, 53, 100
1, 7775, Note_on_c, 0, 62, 100
1, 7823, Note_off_c, 0, 62, 100
1, 7823, Note_on_c, 0, 60, 100
1, 7967, Note_off_c, 0, 60, 100
1, 7967, Note_on_c, 0, 53, 100
1, 8063, Note_off_c, 0, 53, 100
1, 8351, Note_on_c, 0, 64, 100
1, 8399, Note_off_c, 0, 64, 100
1, 8399, Note_on_c, 0, 63, 100
1, 8447, Note_off_c, 0, 63, 100
1, 8447, Note_on_c, 0, 62, 100
1, 8543, Note_off_c, 0, 62, 100
1, 8543, Note_on_c, 0, 58, 100
1, 8831, Note_off_c, 0, 58, 100
1, 8831, Note_on_c, 0, 58, 100
1, 9023, Note_off_c, 0, 58, 100
1, 9503, Note_on_c, 0, 62, 100
1, 9599, Note_off_c, 0, 62, 100
1, 9599, Note_on_c, 0, 63, 100
1, 9791, Note_off_c, 0, 63, 100
1, 9791, Note_on_c, 0, 62, 100
1, 9983, Note_off_c, 0, 62, 100
1, 9983, Note_on_c, 0, 63, 100
1, 10175, Note_off_c, 0, 63, 100
1, 10175, Note_on_c, 0, 62, 100
1, 10271, Note_off_c, 0, 62, 100
1, 10271, Note_on_c, 0, 58, 100
1, 11039, Note_off_c, 0, 58, 100
1, 11039, Note_on_c, 0, 61, 100
1, 11087, Note_off_c, 0, 61, 100
1, 11087, Note_on_c, 0, 62, 100
1, 11231, Note_off_c, 0, 62, 100
1, 11231, Note_on_c, 0, 65, 100
1, 11279, Note_off_c, 0, 65, 100
1, 11279, Note_on_c, 0, 67, 100
1, 11423, Note_off_c, 0, 67, 100
1, 11423, Note_on_c, 0, 72, 100
1, 11519, Note_off_c, 0, 72, 100
1, 11519, Note_on_c, 0, 70, 100
1, 11999, Note_off_c, 0, 70, 100
1, 11999, Note_on_c, 0, 68, 100
1, 12191, Note_off_c, 0, 68, 100
1, 12191, Note_on_c, 0, 65, 100
1, 12287, Note_off_c, 0, 65, 100
1, 12287, Note_on_c, 0, 68, 100
1, 12383, Note_off_c, 0, 68, 100
1, 12383, Note_on_c, 0, 65, 100
1, 12623, Note_off_c, 0, 65, 100
1, 12623, Note_on_c, 0, 65, 100
1, 12863, Note_off_c, 0, 65, 100
1, 12863, Note_on_c, 0, 58, 100
1, 13007, Note_off_c, 0, 58, 100
1, 13007, Note_on_c, 0, 63, 100
1, 13055, Note_off_c, 0, 63, 100
1, 13055, Note_on_c, 0, 65, 100
1, 13391, Note_off_c, 0, 65, 100
1, 13391, Note_on_c, 0, 63, 100
1, 13535, Note_off_c, 0, 63, 100
1, 13535, Note_on_c, 0, 65, 100
1, 13823, Note_off_c, 0, 65, 100
1, 14543, Note_on_c, 0, 65, 100
1, 14687, Note_off_c, 0, 65, 100
1, 14687, Note_on_c, 0, 67, 100
1, 14735, Note_off_c, 0, 67, 100
1, 14735, Note_on_c, 0, 69, 100
1, 14831, Note_off_c, 0, 69, 100
1, 14831, Note_on_c, 0, 70, 100
1, 14927, Note_off_c, 0, 70, 100
1, 14927, Note_on_c, 0, 69, 100
1, 15071, Note_off_c, 0, 69, 100
1, 15071, Note_on_c, 0, 67, 100
1, 15119, Note_off_c, 0, 67, 100
1, 15119, Note_on_c, 0, 65, 100
1, 15263, Note_off_c, 0, 65, 100
1, 15263, Note_on_c, 0, 64, 100
1, 15359, Note_off_c, 0, 64, 100
1, 15359, Note_on_c, 0, 62, 100
1, 15551, Note_off_c, 0, 62, 100
1, 15551, Note_on_c, 0, 62, 100
1, 15839, Note_off_c, 0, 62, 100
1, 15839, Note_on_c, 0, 67, 100
1, 15935, Note_off_c, 0, 67, 100
1, 15935, Note_on_c, 0, 65, 100
1, 16127, Note_off_c, 0, 65, 100
1, 16127, Note_on_c, 0, 63, 100
1, 16319, Note_off_c, 0, 63, 100
1, 16319, Note_on_c, 0, 63, 100
1, 16799, Note_off_c, 0, 63, 100
1, 17279, Note_on_c, 0, 69, 100
1, 17375, Note_off_c, 0, 69, 100
1, 17375, Note_on_c, 0, 70, 100
1, 17535, Note_off_c, 0, 70, 100
1, 17535, Note_on_c, 0, 67, 100
1, 17599, Note_off_c, 0, 67, 100
1, 17599, Note_on_c, 0, 69, 100
1, 17727, Note_off_c, 0, 69, 100
1, 17727, Note_on_c, 0, 65, 100
1, 17855, Note_off_c, 0, 65, 100
1, 17855, Note_on_c, 0, 65, 100
1, 18239, Note_off_c, 0, 65, 100
1, 18911, Note_on_c, 0, 67, 100
1, 19007, Note_off_c, 0, 67, 100
1, 19007, Note_on_c, 0, 67, 100
1, 19103, Note_off_c, 0, 67, 100
1, 19103, Note_on_c, 0, 69, 100
1, 19199, Note_off_c, 0, 69, 100
1, 19199, Note_on_c, 0, 70, 100
1, 19295, Note_off_c, 0, 70, 100
1, 19295, Note_on_c, 0, 72, 100
1, 19343, Note_off_c, 0, 72, 100
1, 19343, Note_on_c, 0, 69, 100
1, 19535, Note_off_c, 0, 69, 100
1, 19535, Note_on_c, 0, 70, 100
1, 19775, Note_off_c, 0, 70, 100
1, 19775, Note_on_c, 0, 65, 100
1, 19967, Note_off_c, 0, 65, 100
1, 19967, Note_on_c, 0, 69, 100
1, 20063, Note_off_c, 0, 69, 100
1, 20063, Note_on_c, 0, 70, 100
1, 20159, Note_off_c, 0, 70, 100
1, 20159, Note_on_c, 0, 69, 100
1, 20255, Note_off_c, 0, 69, 100
1, 20255, Note_on_c, 0, 67, 100
1, 20351, Note_off_c, 0, 67, 100
1, 20351, Note_on_c, 0, 65, 100
1, 20447, Note_off_c, 0, 65, 100
1, 20447, Note_on_c, 0, 64, 100
1, 20543, Note_off_c, 0, 64, 100
1, 20543, Note_on_c, 0, 63, 100
1, 20735, Note_off_c, 0, 63, 100
1, 20735, Note_on_c, 0, 62, 100
1, 20831, Note_off_c, 0, 62, 100
1, 20831, Note_on_c, 0, 61, 100
1, 20927, Note_off_c, 0, 61, 100
1, 20927, Note_on_c, 0, 58, 100
1, 21023, Note_off_c, 0, 58, 100
1, 21023, Note_on_c, 0, 57, 100
1, 21071, Note_off_c, 0, 57, 100
1, 21071, Note_on_c, 0, 56, 100
1, 21215, Note_off_c, 0, 56, 100
1, 21215, Note_on_c, 0, 58, 100
1, 21311, Note_off_c, 0, 58, 100
1, 21311, Note_on_c, 0, 60, 100
1, 21455, Note_off_c, 0, 60, 100
1, 21455, Note_on_c, 0, 65, 100
1, 21503, Note_off_c, 0, 65, 100
1, 21503, Note_on_c, 0, 67, 100
1, 21695, Note_off_c, 0, 67, 100
1, 21695, Note_on_c, 0, 67, 100
1, 21791, Note_off_c, 0, 67, 100
1, 21791, Note_on_c, 0, 66, 100
1, 21887, Note_off_c, 0, 66, 100
1, 22127, Note_on_c, 0, 58, 100
1, 22223, Note_off_c, 0, 58, 100
1, 22223, Note_on_c, 0, 64, 100
1, 22335, Note_off_c, 0, 64, 100
1, 22335, Note_on_c, 0, 65, 100
1, 22847, Note_off_c, 0, 65, 100
1, 22847, Note_on_c, 0, 63, 100
1, 22975, Note_off_c, 0, 63, 100
1, 22975, Note_on_c, 0, 61, 100
1, 23039, Note_off_c, 0, 61, 100
1, 23039, Note_on_c, 0, 63, 100
1, 23167, Note_off_c, 0, 63, 100
1, 23167, Note_on_c, 0, 61, 100
1, 23263, Note_off_c, 0, 61, 100
1, 23807, Note_on_c, 0, 71, 100
1, 23903, Note_off_c, 0, 71, 100
1, 23903, Note_on_c, 0, 72, 100
1, 24047, Note_off_c, 0, 72, 100
1, 24047, Note_on_c, 0, 69, 100
1, 24143, Note_off_c, 0, 69, 100
1, 24143, Note_on_c, 0, 65, 100
1, 24191, Note_off_c, 0, 65, 100
1, 24191, Note_on_c, 0, 62, 100
1, 24479, Note_off_c, 0, 62, 100
1, 24479, Note_on_c, 0, 70, 100
1, 24671, Note_off_c, 0, 70, 100
1, 24671, Note_on_c, 0, 71, 100
1, 24863, Note_off_c, 0, 71, 100
1, 24863, Note_on_c, 0, 68, 100
1, 24959, Note_off_c, 0, 68, 100
1, 24959, Note_on_c, 0, 64, 100
1, 25055, Note_off_c, 0, 64, 100
1, 25055, Note_on_c, 0, 61, 100
1, 25151, Note_off_c, 0, 61, 100
1, 25439, Note_on_c, 0, 70, 100
1, 25535, Note_off_c, 0, 70, 100
1, 25535, Note_on_c, 0, 69, 100
1, 25631, Note_off_c, 0, 69, 100
1, 25631, Note_on_c, 0, 67, 100
1, 25727, Note_off_c, 0, 67, 100
1, 25727, Note_on_c, 0, 65, 100
1, 25855, Note_off_c, 0, 65, 100
1, 25855, Note_on_c, 0, 64, 100
1, 25919, Note_off_c, 0, 64, 100
1, 25919, Note_on_c, 0, 63, 100
1, 26063, Note_off_c, 0, 63, 100
1, 26063, Note_on_c, 0, 58, 100
1, 26111, Note_off_c, 0, 58, 100
1, 26111, Note_on_c, 0, 62, 100
1, 26207, Note_off_c, 0, 62, 100
1, 26207, Note_on_c, 0, 65, 100
1, 26495, Note_off_c, 0, 65, 100
1, 26495, Note_on_c, 0, 61, 100
1, 26591, Note_off_c, 0, 61, 100
1, 26591, Note_on_c, 0, 65, 100
1, 26879, Note_off_c, 0, 65, 100
1, 26879, Note_on_c, 0, 60, 100
1, 27023, Note_off_c, 0, 60, 100
1, 27023, Note_on_c, 0, 60, 100
1, 27167, Note_off_c, 0, 60, 100
1, 27167, Note_on_c, 0, 60, 100
1, 27263, Note_off_c, 0, 60, 100
1, 27935, Note_on_c, 0, 61, 100
1, 28031, Note_off_c, 0, 61, 100
1, 28031, Note_on_c, 0, 62, 100
1, 28159, Note_off_c, 0, 62, 100
1, 28159, Note_on_c, 0, 65, 100
1, 28223, Note_off_c, 0, 65, 100
1, 28223, Note_on_c, 0, 67, 100
1, 28415, Note_off_c, 0, 67, 100
1, 28415, Note_on_c, 0, 70, 100
1, 28607, Note_off_c, 0, 70, 100
1, 28607, Note_on_c, 0, 70, 100
1, 28799, Note_off_c, 0, 70, 100
1, 28799, Note_on_c, 0, 70, 100
1, 29087, Note_off_c, 0, 70, 100
1, 29087, Note_on_c, 0, 70, 100
1, 29279, Note_off_c, 0, 70, 100
1, 29279, Note_on_c, 0, 70, 100
1, 29471, Note_off_c, 0, 70, 100
1, 29471, Note_on_c, 0, 70, 100
1, 29567, Note_off_c, 0, 70, 100
1, 29567, Note_on_c, 0, 70, 100
1, 29855, Note_off_c, 0, 70, 100
1, 29855, Note_on_c, 0, 70, 100
1, 30143, Note_off_c, 0, 70, 100
1, 30143, Note_on_c, 0, 68, 100
1, 30239, Note_off_c, 0, 68, 100
1, 30239, Note_on_c, 0, 65, 100
1, 30287, Note_off_c, 0, 65, 100
1, 30287, Note_on_c, 0, 68, 100
1, 30431, Note_off_c, 0, 68, 100
1, 30431, Note_on_c, 0, 70, 100
1, 30911, Note_off_c, 0, 70, 100
1, 31535, Note_on_c, 0, 72, 100
1, 31631, Note_off_c, 0, 72, 100
1, 31631, Note_on_c, 0, 73, 100
1, 31727, Note_off_c, 0, 73, 100
1, 31727, Note_on_c, 0, 73, 100
1, 31823, Note_off_c, 0, 73, 100
1, 31823, Note_on_c, 0, 73, 100
1, 31919, Note_off_c, 0, 73, 100
1, 31919, Note_on_c, 0, 69, 100
1, 32015, Note_off_c, 0, 69, 100
1, 32015, Note_on_c, 0, 70, 100
1, 32063, Note_off_c, 0, 70, 100
1, 32063, Note_on_c, 0, 70, 100
1, 32159, Note_off_c, 0, 70, 100
1, 32159, Note_on_c, 0, 70, 100
1, 32255, Note_off_c, 0, 70, 100
1, 32255, Note_on_c, 0, 66, 100
1, 32351, Note_off_c, 0, 66, 100
1, 32351, Note_on_c, 0, 67, 100
1, 32447, Note_off_c, 0, 67, 100
1, 32447, Note_on_c, 0, 67, 100
1, 32543, Note_off_c, 0, 67, 100
1, 32543, Note_on_c, 0, 67, 100
1, 32639, Note_off_c, 0, 67, 100
1, 32639, Note_on_c, 0, 63, 100
1, 32735, Note_off_c, 0, 63, 100
1, 32735, Note_on_c, 0, 64, 100
1, 32831, Note_off_c, 0, 64, 100
1, 32831, Note_on_c, 0, 64, 100
1, 32927, Note_off_c, 0, 64, 100
1, 32927, Note_on_c, 0, 64, 100
1, 33023, Note_off_c, 0, 64, 100
1, 33023, Note_on_c, 0, 61, 100
1, 33119, Note_off_c, 0, 61, 100
1, 33407, Note_on_c, 0, 69, 100
1, 33503, Note_off_c, 0, 69, 100
1, 33503, Note_on_c, 0, 70, 100
1, 33599, Note_off_c, 0, 70, 100
1, 33599, Note_on_c, 0, 72, 100
1, 33695, Note_off_c, 0, 72, 100
1, 33695, Note_on_c, 0, 67, 100
1, 33887, Note_off_c, 0, 67, 100
1, 33887, Note_on_c, 0, 69, 100
1, 33983, Note_off_c, 0, 69, 100
1, 33983, Note_on_c, 0, 70, 100
1, 34111, Note_off_c, 0, 70, 100
1, 34111, Note_on_c, 0, 69, 100
1, 34271, Note_off_c, 0, 69, 100
1, 34271, Note_on_c, 0, 67, 100
1, 34367, Note_off_c, 0, 67, 100
1, 34367, Note_on_c, 0, 65, 100
1, 34463, Note_off_c, 0, 65, 100
1, 34463, Note_on_c, 0, 64, 100
1, 34559, Note_off_c, 0, 64, 100
1, 34559, Note_on_c, 0, 63, 100
1, 34687, Note_off_c, 0, 63, 100
1, 34687, Note_on_c, 0, 63, 100
1, 34943, Note_off_c, 0, 63, 100
1, 34943, Note_on_c, 0, 63, 100
1, 35039, Note_off_c, 0, 63, 100
1, 35615, Note_on_c, 0, 62, 100
1, 35711, Note_off_c, 0, 62, 100
1, 35711, Note_on_c, 0, 59, 100
1, 35855, Note_off_c, 0, 59, 100
1, 35855, Note_on_c, 0, 60, 100
1, 36095, Note_off_c, 0, 60, 100
1, 36095, Note_on_c, 0, 63, 100
1, 36287, Note_off_c, 0, 63, 100
1, 36287, Note_on_c, 0, 67, 100
1, 36479, Note_off_c, 0, 67, 100
1, 36479, Note_on_c, 0, 72, 100
1, 36671, Note_off_c, 0, 72, 100
1, 36671, Note_on_c, 0, 69, 100
1, 36767, Note_off_c, 0, 69, 100
1, 36767, Note_on_c, 0, 67, 100
1, 36815, Note_off_c, 0, 67, 100
1, 36815, Note_on_c, 0, 65, 100
1, 36959, Note_off_c, 0, 65, 100
1, 36959, Note_on_c, 0, 64, 100
1, 37055, Note_off_c, 0, 64, 100
1, 37055, Note_on_c, 0, 63, 100
1, 37199, Note_off_c, 0, 63, 100
1, 37199, Note_on_c, 0, 62, 100
1, 37311, Note_off_c, 0, 62, 100
1, 37311, Note_on_c, 0, 61, 100
1, 37375, Note_off_c, 0, 61, 100
1, 37375, Note_on_c, 0, 57, 100
1, 37631, Note_off_c, 0, 57, 100
1, 37631, Note_on_c, 0, 60, 100
1, 37727, Note_off_c, 0, 60, 100
1, 37727, Note_on_c, 0, 58, 100
1, 37823, Note_off_c, 0, 58, 100
1, 37823, Note_on_c, 0, 57, 100
1, 37951, Note_off_c, 0, 57, 100
1, 37951, Note_on_c, 0, 58, 100
1, 38015, Note_off_c, 0, 58, 100
1, 38015, Note_on_c, 0, 62, 100
1, 38111, Note_off_c, 0, 62, 100
1, 38111, Note_on_c, 0, 65, 100
1, 38399, Note_off_c, 0, 65, 100
1, 38879, Note_on_c, 0, 64, 100
1, 38927, Note_off_c, 0, 64, 100
1, 38927, Note_on_c, 0, 67, 100
1, 39071, Note_off_c, 0, 67, 100
1, 39071, Note_on_c, 0, 70, 100
1, 39503, Note_off_c, 0, 70, 100
1, 39503, Note_on_c, 0, 68, 100
1, 39647, Note_off_c, 0, 68, 100
1, 39647, Note_on_c, 0, 65, 100
1, 39839, Note_off_c, 0, 65, 100
1, 40223, Note_on_c, 0, 64, 100
1, 40319, Note_off_c, 0, 64, 100
1, 40319, Note_on_c, 0, 65, 100
1, 40463, Note_off_c, 0, 65, 100
1, 40463, Note_on_c, 0, 58, 100
1, 40655, Note_off_c, 0, 58, 100
1, 40655, Note_on_c, 0, 63, 100
1, 40703, Note_off_c, 0, 63, 100
1, 40703, Note_on_c, 0, 65, 100
1, 40895, Note_off_c, 0, 65, 100
1, 40895, Note_on_c, 0, 62, 100
1, 40991, Note_off_c, 0, 62, 100
1, 41759, Note_on_c, 0, 63, 100
1, 41855, Note_off_c, 0, 63, 100
1, 41855, Note_on_c, 0, 65, 100
1, 42575, Note_off_c, 0, 65, 100
1, 42575, Note_on_c, 0, 65, 100
1, 42719, Note_off_c, 0, 65, 100
1, 42719, Note_on_c, 0, 62, 100
1, 42815, Note_off_c, 0, 62, 100
1, 43295, Note_on_c, 0, 65, 100
1, 43391, Note_off_c, 0, 65, 100
1, 43391, Note_on_c, 0, 64, 100
1, 43487, Note_off_c, 0, 64, 100
1, 43487, Note_on_c, 0, 65, 100
1, 43583, Note_off_c, 0, 65, 100
1, 43583, Note_on_c, 0, 65, 100
1, 43679, Note_off_c, 0, 65, 100
1, 43679, Note_on_c, 0, 65, 100
1, 43775, Note_off_c, 0, 65, 100
1, 43775, Note_on_c, 0, 64, 100
1, 43871, Note_off_c, 0, 64, 100
1, 43871, Note_on_c, 0, 65, 100
1, 43967, Note_off_c, 0, 65, 100
1, 43967, Note_on_c, 0, 65, 100
1, 44063, Note_off_c, 0, 65, 100
1, 44063, Note_on_c, 0, 65, 100
1, 44159, Note_off_c, 0, 65, 100
1, 44159, Note_on_c, 0, 64, 100
1, 44255, Note_off_c, 0, 64, 100
1, 44255, Note_on_c, 0, 65, 100
1, 44351, Note_off_c, 0, 65, 100
1, 44351, Note_on_c, 0, 65, 100
1, 44447, Note_off_c, 0, 65, 100
1, 44447, Note_on_c, 0, 65, 100
1, 44543, Note_off_c, 0, 65, 100
1, 44543, Note_on_c, 0, 66, 100
1, 44735, Note_off_c, 0, 66, 100
1, 44735, Note_on_c, 0, 67, 100
1, 44831, Note_off_c, 0, 67, 100
1, 44831, Note_on_c, 0, 57, 100
1, 44927, Note_off_c, 0, 57, 100
1, 45407, Note_on_c, 0, 57, 100
1, 45455, Note_off_c, 0, 57, 100
1, 45455, Note_on_c, 0, 58, 100
1, 45503, Note_off_c, 0, 58, 100
1, 45503, Note_on_c, 0, 62, 100
1, 45599, Note_off_c, 0, 62, 100
1, 45599, Note_on_c, 0, 65, 100
1, 45695, Note_off_c, 0, 65, 100
1, 45695, Note_on_c, 0, 69, 100
1, 45791, Note_off_c, 0, 69, 100
1, 45791, Note_on_c, 0, 70, 100
1, 45887, Note_off_c, 0, 70, 100
1, 45887, Note_on_c, 0, 67, 100
1, 45983, Note_off_c, 0, 67, 100
1, 45983, Note_on_c, 0, 69, 100
1, 46079, Note_off_c, 0, 69, 100
1, 46079, Note_on_c, 0, 65, 100
1, 46175, Note_off_c, 0, 65, 100
1, 46175, Note_on_c, 0, 68, 100
1, 46271, Note_off_c, 0, 68, 100
1, 46271, Note_on_c, 0, 63, 100
1, 46367, Note_off_c, 0, 63, 100
1, 46367, Note_on_c, 0, 64, 100
1, 46463, Note_off_c, 0, 64, 100
1, 46463, Note_on_c, 0, 62, 100
1, 46655, Note_off_c, 0, 62, 100
1, 46655, Note_on_c, 0, 63, 100
1, 46847, Note_off_c, 0, 63, 100
1, 46847, Note_on_c, 0, 60, 100
1, 47231, Note_off_c, 0, 60, 100
1, 47231, Note_on_c, 0, 60, 100
1, 47615, Note_off_c, 0, 60, 100
1, 47615, Note_on_c, 0, 60, 100
1, 47759, Note_off_c, 0, 60, 100
1, 47759, Note_on_c, 0, 67, 100
1, 47999, Note_off_c, 0, 67, 100
1, 47999, Note_on_c, 0, 65, 100
1, 48191, Note_off_c, 0, 65, 100
1, 48191, Note_on_c, 0, 62, 100
1, 48319, Note_off_c, 0, 62, 100
1, 48319, Note_on_c, 0, 60, 100
1, 48479, Note_off_c, 0, 60, 100
1, 48479, Note_on_c, 0, 60, 100
1, 48767, Note_off_c, 0, 60, 100
1, 48767, Note_on_c, 0, 60, 100
1, 48863, Note_off_c, 0, 60, 100
1, 49151, Note_on_c, 0, 58, 100
1, 49343, Note_off_c, 0, 58, 100
1, 49343, Note_on_c, 0, 55, 100
1, 49439, Note_off_c, 0, 55, 100
1, 49727, Note_on_c, 0, 58, 100
1, 50111, Note_off_c, 0, 58, 100
1, 50111, Note_on_c, 0, 60, 100
1, 50207, Note_off_c, 0, 60, 100
1, 50207, Note_on_c, 0, 58, 100
1, 50255, Note_off_c, 0, 58, 100
1, 50255, Note_on_c, 0, 61, 100
1, 50351, Note_off_c, 0, 61, 100
1, 50639, Note_on_c, 0, 61, 100
1, 50879, Note_off_c, 0, 61, 100
1, 50879, Note_on_c, 0, 63, 100
1, 50975, Note_off_c, 0, 63, 100
1, 50975, Note_on_c, 0, 64, 100
1, 51071, Note_off_c, 0, 64, 100
1, 51359, Note_on_c, 0, 58, 100
1, 51455, Note_off_c, 0, 58, 100
1, 51455, Note_on_c, 0, 61, 100
1, 51551, Note_off_c, 0, 61, 100
1, 51551, Note_on_c, 0, 62, 100
1, 51647, Note_off_c, 0, 62, 100
1, 51647, Note_on_c, 0, 63, 100
1, 51743, Note_off_c, 0, 63, 100
1, 51743, Note_on_c, 0, 64, 100
1, 51839, Note_off_c, 0, 64, 100
1, 51839, Note_on_c, 0, 65, 100
1, 51935, Note_off_c, 0, 65, 100
1, 51935, Note_on_c, 0, 67, 100
1, 52031, Note_off_c, 0, 67, 100
1, 52031, Note_on_c, 0, 69, 100
1, 52127, Note_off_c, 0, 69, 100
1, 52127, Note_on_c, 0, 70, 100
1, 52223, Note_off_c, 0, 70, 100
1, 52223, Note_on_c, 0, 69, 100
1, 52319, Note_off_c, 0, 69, 100
1, 52319, Note_on_c, 0, 67, 100
1, 52415, Note_off_c, 0, 67, 100
1, 52415, Note_on_c, 0, 65, 100
1, 52511, Note_off_c, 0, 65, 100
1, 52511, Note_on_c, 0, 64, 100
1, 52607, Note_off_c, 0, 64, 100
1, 52607, Note_on_c, 0, 63, 100
1, 52703, Note_off_c, 0, 63, 100
1, 52703, Note_on_c, 0, 57, 100
1, 52799, Note_off_c, 0, 57, 100
1, 52799, Note_on_c, 0, 58, 100
1, 52895, Note_off_c, 0, 58, 100
1, 52895, Note_on_c, 0, 61, 100
1, 52943, Note_off_c, 0, 61, 100
1, 52943, Note_on_c, 0, 62, 100
1, 53135, Note_off_c, 0, 62, 100
1, 53135, Note_on_c, 0, 65, 100
1, 53615, Note_off_c, 0, 65, 100
1, 54143, Note_on_c, 0, 68, 100
1, 54239, Note_off_c, 0, 68, 100
1, 54239, Note_on_c, 0, 68, 100
1, 54335, Note_off_c, 0, 68, 100
1, 54335, Note_on_c, 0, 68, 100
1, 54431, Note_off_c, 0, 68, 100
1, 54431, Note_on_c, 0, 68, 100
1, 54527, Note_off_c, 0, 68, 100
1, 54527, Note_on_c, 0, 68, 100
1, 54623, Note_off_c, 0, 68, 100
1, 54623, Note_on_c, 0, 65, 100
1, 54719, Note_off_c, 0, 65, 100
1, 54911, Note_on_c, 0, 65, 100
1, 55055, Note_off_c, 0, 65, 100
1, 55055, Note_on_c, 0, 65, 100
1, 55151, Note_off_c, 0, 65, 100
1, 55935, Note_on_c, 0, 62, 100
1, 56063, Note_off_c, 0, 62, 100
1, 56063, Note_on_c, 0, 57, 100
1, 56639, Note_off_c, 0, 57, 100
1, 56639, Note_on_c, 0, 63, 100
1, 56735, Note_off_c, 0, 63, 100
1, 56735, Note_on_c, 0, 58, 100
1, 57023, Note_off_c, 0, 58, 100
1, 57023, Note_on_c, 0, 64, 100
1, 57151, Note_off_c, 0, 64, 100
1, 57151, Note_on_c, 0, 59, 100
1, 57407, Note_off_c, 0, 59, 100
1, 57407, Note_on_c, 0, 65, 100
1, 57535, Note_off_c, 0, 65, 100
1, 57535, Note_on_c, 0, 60, 100
1, 57631, Note_off_c, 0, 60, 100
1, 57983, Note_on_c, 0, 65, 100
1, 58079, Note_off_c, 0, 65, 100
1, 58079, Note_on_c, 0, 67, 100
1, 58175, Note_off_c, 0, 67, 100
1, 58175, Note_on_c, 0, 68, 100
1, 58271, Note_off_c, 0, 68, 100
1, 58271, Note_on_c, 0, 70, 100
1, 58367, Note_off_c, 0, 70, 100
1, 58367, Note_on_c, 0, 68, 100
1, 58463, Note_off_c, 0, 68, 100
1, 58751, Note_on_c, 0, 67, 100
1, 58847, Note_off_c, 0, 67, 100
1, 58847, Note_on_c, 0, 66, 100
1, 58943, Note_off_c, 0, 66, 100
1, 58943, Note_on_c, 0, 65, 100
1, 59039, Note_off_c, 0, 65, 100
1, 59039, Note_on_c, 0, 64, 100
1, 59087, Note_off_c, 0, 64, 100
1, 59087, Note_on_c, 0, 63, 100
1, 59231, Note_off_c, 0, 63, 100
1, 59231, Note_on_c, 0, 58, 100
1, 59279, Note_off_c, 0, 58, 100
1, 59279, Note_on_c, 0, 58, 100
1, 59423, Note_off_c, 0, 58, 100
1, 59423, Note_on_c, 0, 60, 100
1, 59519, Note_off_c, 0, 60, 100
1, 59519, Note_on_c, 0, 61, 100
1, 59615, Note_off_c, 0, 61, 100
1, 59615, Note_on_c, 0, 63, 100
1, 59663, Note_off_c, 0, 63, 100
1, 59663, Note_on_c, 0, 64, 100
1, 59759, Note_off_c, 0, 64, 100
1, 60047, Note_on_c, 0, 58, 100
1, 60191, Note_off_c, 0, 58, 100
1, 60191, Note_on_c, 0, 60, 100
1, 60287, Note_off_c, 0, 60, 100
1, 60287, Note_on_c, 0, 61, 100
1, 60383, Note_off_c, 0, 61, 100
1, 60383, Note_on_c, 0, 63, 100
1, 60479, Note_off_c, 0, 63, 100
1, 60479, Note_on_c, 0, 64, 100
1, 60575, Note_off_c, 0, 64, 100
1, 60575, Note_on_c, 0, 66, 100
1, 60623, Note_off_c, 0, 66, 100
1, 60623, Note_on_c, 0, 67, 100
1, 60719, Note_off_c, 0, 67, 100
1, 61535, Note_on_c, 0, 69, 100
1, 61583, Note_off_c, 0, 69, 100
1, 61583, Note_on_c, 0, 70, 100
1, 61727, Note_off_c, 0, 70, 100
1, 61727, Note_on_c, 0, 72, 100
1, 61823, Note_off_c, 0, 72, 100
1, 61823, Note_on_c, 0, 73, 100
1, 62015, Note_off_c, 0, 73, 100
1, 62015, Note_on_c, 0, 69, 100
1, 62207, Note_off_c, 0, 69, 100
1, 62207, Note_on_c, 0, 70, 100
1, 62399, Note_off_c, 0, 70, 100
1, 62399, Note_on_c, 0, 66, 100
1, 62591, Note_off_c, 0, 66, 100
1, 62591, Note_on_c, 0, 67, 100
1, 62783, Note_off_c, 0, 67, 100
1, 62783, Note_on_c, 0, 63, 100
1, 62879, Note_off_c, 0, 63, 100
1, 62879, Note_on_c, 0, 64, 100
1, 62975, Note_off_c, 0, 64, 100
1, 63167, Note_on_c, 0, 61, 100
1, 63359, Note_off_c, 0, 61, 100
1, 63359, Note_on_c, 0, 69, 100
1, 63455, Note_off_c, 0, 69, 100
1, 63455, Note_on_c, 0, 70, 100
1, 63551, Note_off_c, 0, 70, 100
1, 63551, Note_on_c, 0, 67, 100
1, 63647, Note_off_c, 0, 67, 100
1, 63647, Note_on_c, 0, 69, 100
1, 63743, Note_off_c, 0, 69, 100
1, 63743, Note_on_c, 0, 65, 100
1, 63839, Note_off_c, 0, 65, 100
1, 63839, Note_on_c, 0, 67, 100
1, 63935, Note_off_c, 0, 67, 100
1, 63935, Note_on_c, 0, 63, 100
1, 64031, Note_off_c, 0, 63, 100
1, 64031, Note_on_c, 0, 65, 100
1, 64127, Note_off_c, 0, 65, 100
1, 64127, Note_on_c, 0, 62, 100
1, 64223, Note_off_c, 0, 62, 100
1, 64703, Note_on_c, 0, 60, 100
1, 64799, Note_off_c, 0, 60, 100
1, 64799, Note_on_c, 0, 60, 100
1, 64895, Note_off_c, 0, 60, 100
1, 64895, Note_on_c, 0, 60, 100
1, 64991, Note_off_c, 0, 60, 100
1, 64991, Note_on_c, 0, 60, 100
1, 65039, Note_off_c, 0, 60, 100
1, 65039, Note_on_c, 0, 60, 100
1, 65183, Note_off_c, 0, 60, 100
1, 65183, Note_on_c, 0, 60, 100
1, 65279, Note_off_c, 0, 60, 100
1, 65279, Note_on_c, 0, 60, 100
1, 65375, Note_off_c, 0, 60, 100
1, 65375, Note_on_c, 0, 60, 100
1, 65567, Note_off_c, 0, 60, 100
1, 65567, Note_on_c, 0, 60, 100
1, 65807, Note_off_c, 0, 60, 100
1, 65807, Note_on_c, 0, 60, 100
1, 65903, Note_off_c, 0, 60, 100
1, 65903, Note_on_c, 0, 61, 100
1, 65999, Note_off_c, 0, 61, 100
1, 65999, Note_on_c, 0, 60, 100
1, 66143, Note_off_c, 0, 60, 100
1, 66143, Note_on_c, 0, 60, 100
1, 66239, Note_off_c, 0, 60, 100
1, 66239, Note_on_c, 0, 60, 100
1, 66431, Note_off_c, 0, 60, 100
1, 66431, Note_on_c, 0, 60, 100
1, 66575, Note_off_c, 0, 60, 100
1, 66575, Note_on_c, 0, 60, 100
1, 66687, Note_off_c, 0, 60, 100
1, 66687, Note_on_c, 0, 60, 100
1, 66815, Note_off_c, 0, 60, 100
1, 66815, Note_on_c, 0, 60, 100
1, 66911, Note_off_c, 0, 60, 100
1, 66911, Note_on_c, 0, 60, 100
1, 67151, Note_off_c, 0, 60, 100
1, 67151, Note_on_c, 0, 60, 100
1, 67487, Note_off_c, 0, 60, 100
1, 67487, Note_on_c, 0, 60, 100
1, 67583, Note_off_c, 0, 60, 100
1, 67871, Note_on_c, 0, 67, 100
1, 68111, Note_off_c, 0, 67, 100
1, 68111, Note_on_c, 0, 65, 100
1, 68351, Note_off_c, 0, 65, 100
1, 68351, Note_on_c, 0, 60, 100
1, 68639, Note_off_c, 0, 60, 100
1, 69215, Note_on_c, 0, 57, 100
1, 69311, Note_off_c, 0, 57, 100
1, 69311, Note_on_c, 0, 58, 100
1, 69407, Note_off_c, 0, 58, 100
1, 69407, Note_on_c, 0, 60, 100
1, 69455, Note_off_c, 0, 60, 100
1, 69455, Note_on_c, 0, 61, 100
1, 69599, Note_off_c, 0, 61, 100
1, 69599, Note_on_c, 0, 63, 100
1, 69647, Note_off_c, 0, 63, 100
1, 69647, Note_on_c, 0, 60, 100
1, 69791, Note_off_c, 0, 60, 100
1, 69791, Note_on_c, 0, 61, 100
1, 69887, Note_off_c, 0, 61, 100
1, 69887, Note_on_c, 0, 58, 100
1, 69983, Note_off_c, 0, 58, 100
1, 69983, Note_on_c, 0, 60, 100
1, 70079, Note_off_c, 0, 60, 100
1, 70079, Note_on_c, 0, 61, 100
1, 70175, Note_off_c, 0, 61, 100
1, 70175, Note_on_c, 0, 63, 100
1, 70271, Note_off_c, 0, 63, 100
1, 70271, Note_on_c, 0, 65, 100
1, 70367, Note_off_c, 0, 65, 100
1, 70911, Note_on_c, 0, 67, 100
1, 71039, Note_off_c, 0, 67, 100
1, 71039, Note_on_c, 0, 65, 100
1, 71231, Note_off_c, 0, 65, 100
1, 71231, Note_on_c, 0, 62, 100
1, 71423, Note_off_c, 0, 62, 100
1, 71423, Note_on_c, 0, 63, 100
1, 71807, Note_off_c, 0, 63, 100
1, 71807, Note_on_c, 0, 63, 100
1, 71903, Note_off_c, 0, 63, 100
1, 72575, Note_on_c, 0, 67, 100
1, 72767, Note_off_c, 0, 67, 100
1, 72767, Note_on_c, 0, 70, 100
1, 72959, Note_off_c, 0, 70, 100
1, 72959, Note_on_c, 0, 72, 100
1, 73247, Note_off_c, 0, 72, 100
1, 73247, Note_on_c, 0, 73, 100
1, 73343, Note_off_c, 0, 73, 100
1, 73343, Note_on_c, 0, 72, 100
1, 73535, Note_off_c, 0, 72, 100
1, 73535, Note_on_c, 0, 70, 100
1, 73631, Note_off_c, 0, 70, 100
1, 73631, Note_on_c, 0, 67, 100
1, 73919, Note_off_c, 0, 67, 100
1, 73919, Note_on_c, 0, 67, 100
1, 74015, Note_off_c, 0, 67, 100
1, 74015, Note_on_c, 0, 67, 100
1, 74111, Note_off_c, 0, 67, 100
1, 74111, Note_on_c, 0, 67, 100
1, 74207, Note_off_c, 0, 67, 100
1, 74207, Note_on_c, 0, 67, 100
1, 74303, Note_off_c, 0, 67, 100
1, 74303, Note_on_c, 0, 67, 100
1, 74399, Note_off_c, 0, 67, 100
1, 74399, Note_on_c, 0, 67, 100
1, 74447, Note_off_c, 0, 67, 100
1, 74447, Note_on_c, 0, 67, 100
1, 74559, Note_off_c, 0, 67, 100
1, 74559, Note_on_c, 0, 67, 100
1, 74623, Note_off_c, 0, 67, 100
1, 74623, Note_on_c, 0, 67, 100
1, 74831, Note_off_c, 0, 67, 100
1, 74831, Note_on_c, 0, 67, 100
1, 75071, Note_off_c, 0, 67, 100
1, 75071, Note_on_c, 0, 67, 100
1, 75359, Note_off_c, 0, 67, 100
1, 75359, Note_on_c, 0, 65, 100
1, 75407, Note_off_c, 0, 65, 100
1, 75407, Note_on_c, 0, 67, 100
1, 75711, Note_off_c, 0, 67, 100
1, 75711, Note_on_c, 0, 67, 100
1, 75903, Note_off_c, 0, 67, 100
1, 75903, Note_on_c, 0, 65, 100
1, 75967, Note_off_c, 0, 65, 100
1, 75967, Note_on_c, 0, 67, 100
1, 76095, Note_off_c, 0, 67, 100
1, 76095, Note_on_c, 0, 65, 100
1, 76159, Note_off_c, 0, 65, 100
1, 76159, Note_on_c, 0, 62, 100
1, 76367, Note_off_c, 0, 62, 100
1, 76367, Note_on_c, 0, 60, 100
1, 76559, Note_off_c, 0, 60, 100
1, 76559, Note_on_c, 0, 60, 100
1, 76655, Note_off_c, 0, 60, 100
1, 77279, Note_on_c, 0, 58, 100
1, 77375, Note_off_c, 0, 58, 100
1, 77375, Note_on_c, 0, 61, 100
1, 77439, Note_off_c, 0, 61, 100
1, 77439, Note_on_c, 0, 63, 100
1, 77503, Note_off_c, 0, 63, 100
1, 77503, Note_on_c, 0, 65, 100
1, 77567, Note_off_c, 0, 65, 100
1, 77567, Note_on_c, 0, 63, 100
1, 77855, Note_off_c, 0, 63, 100
1, 77855, Note_on_c, 0, 62, 100
1, 77951, Note_off_c, 0, 62, 100
1, 77951, Note_on_c, 0, 63, 100
1, 78239, Note_off_c, 0, 63, 100
1, 78239, Note_on_c, 0, 61, 100
1, 78335, Note_off_c, 0, 61, 100
1, 78335, Note_on_c, 0, 63, 100
1, 78431, Note_off_c, 0, 63, 100
1, 78431, Note_on_c, 0, 65, 100
1, 78527, Note_off_c, 0, 65, 100
1, 78815, Note_on_c, 0, 58, 100
1, 78863, Note_off_c, 0, 58, 100
1, 78863, Note_on_c, 0, 61, 100
1, 78975, Note_off_c, 0, 61, 100
1, 78975, Note_on_c, 0, 63, 100
1, 79039, Note_off_c, 0, 63, 100
1, 79039, Note_on_c, 0, 65, 100
1, 79103, Note_off_c, 0, 65, 100
1, 79103, Note_on_c, 0, 63, 100
1, 79391, Note_off_c, 0, 63, 100
1, 79391, Note_on_c, 0, 61, 100
1, 79439, Note_off_c, 0, 61, 100
1, 79439, Note_on_c, 0, 63, 100
1, 79551, Note_off_c, 0, 63, 100
1, 79551, Note_on_c, 0, 61, 100
1, 79615, Note_off_c, 0, 61, 100
1, 79615, Note_on_c, 0, 58, 100
1, 79871, Note_off_c, 0, 58, 100
1, 79871, Note_on_c, 0, 58, 100
1, 80063, Note_off_c, 0, 58, 100
1, 80063, Note_on_c, 0, 58, 100
1, 80159, Note_off_c, 0, 58, 100
1, 80735, Note_on_c, 0, 60, 100
1, 80895, Note_off_c, 0, 60, 100
1, 80895, Note_on_c, 0, 62, 100
1, 80959, Note_off_c, 0, 62, 100
1, 80959, Note_on_c, 0, 63, 100
1, 81087, Note_off_c, 0, 63, 100
1, 81087, Note_on_c, 0, 65, 100
1, 81151, Note_off_c, 0, 65, 100
1, 81151, Note_on_c, 0, 67, 100
1, 81215, Note_off_c, 0, 67, 100
1, 81215, Note_on_c, 0, 70, 100
1, 81407, Note_off_c, 0, 70, 100
1, 81407, Note_on_c, 0, 69, 100
1, 81503, Note_off_c, 0, 69, 100
1, 81503, Note_on_c, 0, 69, 100
1, 81695, Note_off_c, 0, 69, 100
1, 81695, Note_on_c, 0, 68, 100
1, 81791, Note_off_c, 0, 68, 100
1, 81791, Note_on_c, 0, 67, 100
1, 81935, Note_off_c, 0, 67, 100
1, 81935, Note_on_c, 0, 67, 100
1, 82079, Note_off_c, 0, 67, 100
1, 82079, Note_on_c, 0, 68, 100
1, 82175, Note_off_c, 0, 68, 100
1, 82175, Note_on_c, 0, 69, 100
1, 82319, Note_off_c, 0, 69, 100
1, 82319, Note_on_c, 0, 69, 100
1, 82463, Note_off_c, 0, 69, 100
1, 82463, Note_on_c, 0, 68, 100
1, 82559, Note_off_c, 0, 68, 100
1, 82559, Note_on_c, 0, 67, 100
1, 82703, Note_off_c, 0, 67, 100
1, 82703, Note_on_c, 0, 67, 100
1, 82847, Note_off_c, 0, 67, 100
1, 82847, Note_on_c, 0, 68, 100
1, 82943, Note_off_c, 0, 68, 100
1, 82943, Note_on_c, 0, 69, 100
1, 83071, Note_off_c, 0, 69, 100
1, 83071, Note_on_c, 0, 69, 100
1, 83231, Note_off_c, 0, 69, 100
1, 83231, Note_on_c, 0, 69, 100
1, 83327, Note_off_c, 0, 69, 100
1, 83327, Note_on_c, 0, 67, 100
1, 83423, Note_off_c, 0, 67, 100
1, 83423, Note_on_c, 0, 67, 100
1, 83615, Note_off_c, 0, 67, 100
1, 83615, Note_on_c, 0, 67, 100
1, 83711, Note_off_c, 0, 67, 100
1, 83711, Note_on_c, 0, 65, 100
1, 83903, Note_off_c, 0, 65, 100
1, 83903, Note_on_c, 0, 62, 100
1, 83999, Note_off_c, 0, 62, 100
1, 83999, Note_on_c, 0, 64, 100
1, 84095, Note_off_c, 0, 64, 100
1, 84095, Note_on_c, 0, 65, 100
1, 84191, Note_off_c, 0, 65, 100
1, 84191, Note_on_c, 0, 70, 100
1, 84287, Note_off_c, 0, 70, 100
1, 84479, Note_on_c, 0, 63, 100
1, 84575, Note_off_c, 0, 63, 100
1, 84575, Note_on_c, 0, 65, 100
1, 84671, Note_off_c, 0, 65, 100
1, 84671, Note_on_c, 0, 67, 100
1, 84767, Note_off_c, 0, 67, 100
1, 84767, Note_on_c, 0, 69, 100
1, 84863, Note_off_c, 0, 69, 100
1, 85151, Note_on_c, 0, 67, 100
1, 85247, Note_off_c, 0, 67, 100
1, 85247, Note_on_c, 0, 65, 100
1, 85343, Note_off_c, 0, 65, 100
1, 85343, Note_on_c, 0, 67, 100
1, 85439, Note_off_c, 0, 67, 100
1, 85439, Note_on_c, 0, 63, 100
1, 85535, Note_off_c, 0, 63, 100
1, 85535, Note_on_c, 0, 65, 100
1, 85631, Note_off_c, 0, 65, 100
1, 85631, Note_on_c, 0, 62, 100
1, 85727, Note_off_c, 0, 62, 100
1, 85727, Note_on_c, 0, 63, 100
1, 85823, Note_off_c, 0, 63, 100
1, 85823, Note_on_c, 0, 60, 100
1, 85919, Note_off_c, 0, 60, 100
1, 85919, Note_on_c, 0, 62, 100
1, 86015, Note_off_c, 0, 62, 100
1, 86015, Note_on_c, 0, 58, 100
1, 86207, Note_off_c, 0, 58, 100
1, 86207, Note_on_c, 0, 60, 100
1, 86303, Note_off_c, 0, 60, 100
1, 86303, Note_on_c, 0, 56, 100
1, 86399, Note_off_c, 0, 56, 100
1, 86783, Note_on_c, 0, 55, 100
1, 86847, Note_off_c, 0, 55, 100
1, 86847, Note_on_c, 0, 56, 100
1, 86911, Note_off_c, 0, 56, 100
1, 86911, Note_on_c, 0, 58, 100
1, 86975, Note_off_c, 0, 58, 100
1, 86975, Note_on_c, 0, 58, 100
1, 87023, Note_off_c, 0, 58, 100
1, 87023, Note_on_c, 0, 57, 100
1, 87071, Note_off_c, 0, 57, 100
1, 87071, Note_on_c, 0, 55, 100
1, 87167, Note_off_c, 0, 55, 100
1, 87167, Note_on_c, 0, 55, 100
1, 87263, Note_off_c, 0, 55, 100
1, 87551, Note_on_c, 0, 58, 100
1, 87679, Note_off_c, 0, 58, 100
1, 87679, Note_on_c, 0, 60, 100
1, 87839, Note_off_c, 0, 60, 100
1, 87839, Note_on_c, 0, 61, 100
1, 87999, Note_off_c, 0, 61, 100
1, 87999, Note_on_c, 0, 63, 100
1, 88063, Note_off_c, 0, 63, 100
1, 88063, Note_on_c, 0, 64, 100
1, 88223, Note_off_c, 0, 64, 100
1, 88223, Note_on_c, 0, 67, 100
1, 88319, Note_off_c, 0, 67, 100
1, 88319, Note_on_c, 0, 65, 100
1, 88415, Note_off_c, 0, 65, 100
1, 88415, Note_on_c, 0, 62, 100
1, 88655, Note_off_c, 0, 62, 100
1, 88655, Note_on_c, 0, 62, 100
1, 88943, Note_off_c, 0, 62, 100
1, 89855, Note_on_c, 0, 73, 100
1, 89951, Note_off_c, 0, 73, 100
1, 89951, Note_on_c, 0, 74, 100
1, 90719, Note_off_c, 0, 74, 100
1, 90719, Note_on_c, 0, 72, 100
1, 90815, Note_off_c, 0, 72, 100
1, 90815, Note_on_c, 0, 70, 100
1, 91007, Note_off_c, 0, 70, 100
1, 91007, Note_on_c, 0, 69, 100
1, 91103, Note_off_c, 0, 69, 100
1, 91103, Note_on_c, 0, 67, 100
1, 91199, Note_off_c, 0, 67, 100
1, 91199, Note_on_c, 0, 65, 100
1, 91343, Note_off_c, 0, 65, 100
1, 91343, Note_on_c, 0, 63, 100
1, 91391, Note_off_c, 0, 63, 100
1, 91391, Note_on_c, 0, 62, 100
1, 91487, Note_off_c, 0, 62, 100
1, 91487, Note_on_c, 0, 65, 100
1, 91583, Note_off_c, 0, 65, 100
1, 91583, Note_on_c, 0, 67, 100
1, 91775, Note_off_c, 0, 67, 100
1, 91775, Note_on_c, 0, 70, 100
1, 91967, Note_off_c, 0, 70, 100
1, 91967, Note_on_c, 0, 70, 100
1, 92063, Note_off_c, 0, 70, 100
1, 92447, Note_on_c, 0, 68, 100
1, 92687, Note_off_c, 0, 68, 100
1, 92687, Note_on_c, 0, 65, 100
1, 92927, Note_off_c, 0, 65, 100
1, 92927, Note_on_c, 0, 68, 100
1, 93023, Note_off_c, 0, 68, 100
1, 93023, Note_on_c, 0, 69, 100
1, 93071, Note_off_c, 0, 69, 100
1, 93071, Note_on_c, 0, 70, 100
1, 93263, Note_off_c, 0, 70, 100
1, 93263, Note_on_c, 0, 70, 100
1, 93375, Note_off_c, 0, 70, 100
1, 93375, Note_on_c, 0, 69, 100
1, 93599, Note_off_c, 0, 69, 100
1, 93599, Note_on_c, 0, 65, 100
1, 93647, Note_off_c, 0, 65, 100
1, 93647, Note_on_c, 0, 67, 100
1, 93839, Note_off_c, 0, 67, 100
1, 93839, Note_on_c, 0, 70, 100
1, 93983, Note_off_c, 0, 70, 100
1, 93983, Note_on_c, 0, 70, 100
1, 94175, Note_off_c, 0, 70, 100
1, 94175, Note_on_c, 0, 65, 100
1, 94271, Note_off_c, 0, 65, 100
1, 94271, Note_on_c, 0, 67, 100
1, 94463, Note_off_c, 0, 67, 100
1, 94463, Note_on_c, 0, 68, 100
1, 94559, Note_off_c, 0, 68, 100
1, 94559, Note_on_c, 0, 70, 100
1, 94655, Note_off_c, 0, 70, 100
1, 95231, Note_on_c, 0, 68, 100
1, 95375, Note_off_c, 0, 68, 100
1, 95375, Note_on_c, 0, 58, 100
1, 95423, Note_off_c, 0, 58, 100
1, 95423, Note_on_c, 0, 62, 100
1, 95519, Note_off_c, 0, 62, 100
1, 95519, Note_on_c, 0, 67, 100
1, 95567, Note_off_c, 0, 67, 100
1, 95567, Note_on_c, 0, 66, 100
1, 95615, Note_off_c, 0, 66, 100
1, 95615, Note_on_c, 0, 67, 100
1, 95807, Note_off_c, 0, 67, 100
1, 95807, Note_on_c, 0, 58, 100
1, 95999, Note_off_c, 0, 58, 100
1, 95999, Note_on_c, 0, 64, 100
1, 96095, Note_off_c, 0, 64, 100
1, 96095, Note_on_c, 0, 65, 100
1, 97151, Note_off_c, 0, 65, 100
1, 97151, Note_on_c, 0, 63, 100
1, 97247, Note_off_c, 0, 63, 100
1, 97247, Note_on_c, 0, 65, 100
1, 97343, Note_off_c, 0, 65, 100
1, 97343, Note_on_c, 0, 67, 100
1, 97439, Note_off_c, 0, 67, 100
1, 97439, Note_on_c, 0, 65, 100
1, 97631, Note_off_c, 0, 65, 100
1, 97631, Note_on_c, 0, 65, 100
1, 97919, Note_off_c, 0, 65, 100
1, 97919, Note_on_c, 0, 65, 100
1, 98015, Note_off_c, 0, 65, 100
1, 98975, Note_on_c, 0, 65, 100
1, 99071, Note_off_c, 0, 65, 100
1, 99071, Note_on_c, 0, 64, 100
1, 99167, Note_off_c, 0, 64, 100
1, 99167, Note_on_c, 0, 65, 100
1, 99263, Note_off_c, 0, 65, 100
1, 99647, Note_on_c, 0, 65, 100
1, 99839, Note_off_c, 0, 65, 100
1, 99839, Note_on_c, 0, 64, 100
1, 99935, Note_off_c, 0, 64, 100
1, 99935, Note_on_c, 0, 65, 100
1, 100031, Note_off_c, 0, 65, 100
1, 100511, Note_on_c, 0, 65, 100
1, 100607, Note_off_c, 0, 65, 100
1, 100607, Note_on_c, 0, 63, 100
1, 100671, Note_off_c, 0, 63, 100
1, 100671, Note_on_c, 0, 64, 100
1, 100735, Note_off_c, 0, 64, 100
1, 100735, Note_on_c, 0, 65, 100
1, 100799, Note_off_c, 0, 65, 100
1, 100799, Note_on_c, 0, 65, 100
1, 100991, Note_off_c, 0, 65, 100
1, 100991, Note_on_c, 0, 63, 100
1, 101055, Note_off_c, 0, 63, 100
1, 101055, Note_on_c, 0, 64, 100
1, 101119, Note_off_c, 0, 64, 100
1, 101119, Note_on_c, 0, 65, 100
1, 101183, Note_off_c, 0, 65, 100
1, 101183, Note_on_c, 0, 65, 100
1, 101375, Note_off_c, 0, 65, 100
1, 101375, Note_on_c, 0, 63, 100
1, 101439, Note_off_c, 0, 63, 100
1, 101439, Note_on_c, 0, 64, 100
1, 101503, Note_off_c, 0, 64, 100
1, 101503, Note_on_c, 0, 65, 100
1, 101567, Note_off_c, 0, 65, 100
1, 101567, Note_on_c, 0, 65, 100
1, 101759, Note_off_c, 0, 65, 100
1, 101759, Note_on_c, 0, 63, 100
1, 101823, Note_off_c, 0, 63, 100
1, 101823, Note_on_c, 0, 64, 100
1, 101887, Note_off_c, 0, 64, 100
1, 101887, Note_on_c, 0, 65, 100
1, 101951, Note_off_c, 0, 65, 100
1, 101951, Note_on_c, 0, 65, 100
1, 102047, Note_off_c, 0, 65, 100
1, 102335, Note_on_c, 0, 65, 100
1, 102431, Note_off_c, 0, 65, 100
1, 102431, Note_on_c, 0, 64, 100
1, 102527, Note_off_c, 0, 64, 100
1, 102527, Note_on_c, 0, 65, 100
1, 102623, Note_off_c, 0, 65, 100
1, 102623, Note_on_c, 0, 67, 100
1, 102719, Note_off_c, 0, 67, 100
1, 102911, Note_on_c, 0, 65, 100
1, 103103, Note_off_c, 0, 65, 100
1, 103103, Note_on_c, 0, 62, 100
1, 103199, Note_off_c, 0, 62, 100
1, 103583, Note_on_c, 0, 63, 100
1, 103679, Note_off_c, 0, 63, 100
1, 103679, Note_on_c, 0, 62, 100
1, 103775, Note_off_c, 0, 62, 100
1, 103775, Note_on_c, 0, 62, 100
1, 103823, Note_off_c, 0, 62, 100
1, 103823, Note_on_c, 0, 60, 100
1, 103967, Note_off_c, 0, 60, 100
1, 103967, Note_on_c, 0, 60, 100
1, 104015, Note_off_c, 0, 60, 100
1, 104015, Note_on_c, 0, 58, 100
1, 104255, Note_off_c, 0, 58, 100
1, 104255, Note_on_c, 0, 57, 100
1, 104351, Note_off_c, 0, 57, 100
1, 104351, Note_on_c, 0, 56, 100
1, 104447, Note_off_c, 0, 56, 100
1, 105311, Note_on_c, 0, 58, 100
1, 105407, Note_off_c, 0, 58, 100
1, 105407, Note_on_c, 0, 60, 100
1, 105551, Note_off_c, 0, 60, 100
1, 105551, Note_on_c, 0, 57, 100
1, 105599, Note_off_c, 0, 57, 100
1, 105599, Note_on_c, 0, 58, 100
1, 105791, Note_off_c, 0, 58, 100
1, 105791, Note_on_c, 0, 60, 100
1, 105887, Note_off_c, 0, 60, 100
1, 105887, Note_on_c, 0, 57, 100
1, 105983, Note_off_c, 0, 57, 100
1, 105983, Note_on_c, 0, 58, 100
1, 106127, Note_off_c, 0, 58, 100
1, 106127, Note_on_c, 0, 60, 100
1, 106271, Note_off_c, 0, 60, 100
1, 106271, Note_on_c, 0, 58, 100
1, 106367, Note_off_c, 0, 58, 100
1, 106655, Note_on_c, 0, 61, 100
1, 106751, Note_off_c, 0, 61, 100
1, 106751, Note_on_c, 0, 62, 100
1, 106879, Note_off_c, 0, 62, 100
1, 106879, Note_on_c, 0, 65, 100
1, 106943, Note_off_c, 0, 65, 100
1, 106943, Note_on_c, 0, 67, 100
1, 107135, Note_off_c, 0, 67, 100
1, 107135, Note_on_c, 0, 65, 100
1, 107327, Note_off_c, 0, 65, 100
1, 107327, Note_on_c, 0, 67, 100
1, 107423, Note_off_c, 0, 67, 100
1, 107423, Note_on_c, 0, 65, 100
1, 107519, Note_off_c, 0, 65, 100
1, 107519, Note_on_c, 0, 68, 100
1, 107663, Note_off_c, 0, 68, 100
1, 107663, Note_on_c, 0, 67, 100
1, 107711, Note_off_c, 0, 67, 100
1, 107711, Note_on_c, 0, 67, 100
1, 107807, Note_off_c, 0, 67, 100
1, 107807, Note_on_c, 0, 65, 100
1, 107903, Note_off_c, 0, 65, 100
1, 108191, Note_on_c, 0, 74, 100
1, 108287, Note_off_c, 0, 74, 100
1, 108287, Note_on_c, 0, 72, 100
1, 108479, Note_off_c, 0, 72, 100
1, 108479, Note_on_c, 0, 70, 100
1, 108671, Note_off_c, 0, 70, 100
1, 108671, Note_on_c, 0, 69, 100
1, 108911, Note_off_c, 0, 69, 100
1, 108911, Note_on_c, 0, 67, 100
1, 109007, Note_off_c, 0, 67, 100
1, 109007, Note_on_c, 0, 65, 100
1, 109199, Note_off_c, 0, 65, 100
1, 109199, Note_on_c, 0, 67, 100
1, 109247, Note_off_c, 0, 67, 100
1, 109247, Note_on_c, 0, 63, 100
1, 109343, Note_off_c, 0, 63, 100
1, 109823, Note_on_c, 0, 61, 100
1, 109919, Note_off_c, 0, 61, 100
1, 109919, Note_on_c, 0, 62, 100
1, 109967, Note_off_c, 0, 62, 100
1, 109967, Note_on_c, 0, 63, 100
1, 110111, Note_off_c, 0, 63, 100
1, 110111, Note_on_c, 0, 65, 100
1, 110207, Note_off_c, 0, 65, 100
1, 110207, Note_on_c, 0, 66, 100
1, 110303, Note_off_c, 0, 66, 100
1, 110303, Note_on_c, 0, 70, 100
1, 110543, Note_off_c, 0, 70, 100
1, 110543, Note_on_c, 0, 70, 100
1, 110927, Note_off_c, 0, 70, 100
1, 111311, Note_on_c, 0, 61, 100
1, 111359, Note_off_c, 0, 61, 100
1, 111359, Note_on_c, 0, 62, 100
1, 111695, Note_off_c, 0, 62, 100
1, 111695, Note_on_c, 0, 65, 100
1, 111791, Note_off_c, 0, 65, 100
1, 112031, Note_on_c, 0, 62, 100
1, 112127, Note_off_c, 0, 62, 100
1, 112127, Note_on_c, 0, 63, 100
1, 112255, Note_off_c, 0, 63, 100
1, 112255, Note_on_c, 0, 67, 100
1, 112319, Note_off_c, 0, 67, 100
1, 112319, Note_on_c, 0, 70, 100
1, 112463, Note_off_c, 0, 70, 100
1, 112463, Note_on_c, 0, 74, 100
1, 112655, Note_off_c, 0, 74, 100
1, 112655, Note_on_c, 0, 72, 100
1, 112847, Note_off_c, 0, 72, 100
1, 112847, Note_on_c, 0, 70, 100
1, 112991, Note_off_c, 0, 70, 100
1, 112991, Note_on_c, 0, 69, 100
1, 113087, Note_off_c, 0, 69, 100
1, 113087, Note_on_c, 0, 68, 100
1, 113279, Note_off_c, 0, 68, 100
1, 113279, Note_on_c, 0, 67, 100
1, 113375, Note_off_c, 0, 67, 100
1, 113375, Note_on_c, 0, 65, 100
1, 113567, Note_off_c, 0, 65, 100
1, 113567, Note_on_c, 0, 64, 100
1, 113759, Note_off_c, 0, 64, 100
1, 113759, Note_on_c, 0, 66, 100
1, 113807, Note_off_c, 0, 66, 100
1, 113807, Note_on_c, 0, 68, 100
1, 114047, Note_off_c, 0, 68, 100
1, 114047, Note_on_c, 0, 66, 100
1, 114143, Note_off_c, 0, 66, 100
1, 114143, Note_on_c, 0, 64, 100
1, 114239, Note_off_c, 0, 64, 100
1, 114239, Note_on_c, 0, 58, 100
1, 114431, Note_off_c, 0, 58, 100
1, 114431, Note_on_c, 0, 63, 100
1, 114527, Note_off_c, 0, 63, 100
1, 114527, Note_on_c, 0, 65, 100
1, 114623, Note_off_c, 0, 65, 100
1, 114623, Note_on_c, 0, 67, 100
1, 114815, Note_off_c, 0, 67, 100
1, 114815, Note_on_c, 0, 65, 100
1, 114911, Note_off_c, 0, 65, 100
1, 114911, Note_on_c, 0, 63, 100
1, 115199, Note_off_c, 0, 63, 100
1, 116015, Note_on_c, 0, 72, 100
1, 116111, Note_off_c, 0, 72, 100
1, 116111, Note_on_c, 0, 70, 100
1, 116159, Note_off_c, 0, 70, 100
1, 116159, Note_on_c, 0, 69, 100
1, 116255, Note_off_c, 0, 69, 100
1, 116255, Note_on_c, 0, 67, 100
1, 116351, Note_off_c, 0, 67, 100
1, 116351, Note_on_c, 0, 65, 100
1, 116447, Note_off_c, 0, 65, 100
1, 116447, Note_on_c, 0, 64, 100
1, 116543, Note_off_c, 0, 64, 100
1, 116543, Note_on_c, 0, 62, 100
1, 116639, Note_off_c, 0, 62, 100
1, 116639, Note_on_c, 0, 60, 100
1, 116735, Note_off_c, 0, 60, 100
1, 116735, Note_on_c, 0, 59, 100
1, 116831, Note_off_c, 0, 59, 100
1, 117215, Note_on_c, 0, 68, 100
1, 117311, Note_off_c, 0, 68, 100
1, 117311, Note_on_c, 0, 67, 100
1, 117407, Note_off_c, 0, 67, 100
1, 117407, Note_on_c, 0, 65, 100
1, 117503, Note_off_c, 0, 65, 100
1, 117503, Note_on_c, 0, 63, 100
1, 117695, Note_off_c, 0, 63, 100
1, 117695, Note_on_c, 0, 63, 100
1, 118127, Note_off_c, 0, 63, 100
1, 118127, Note_on_c, 0, 63, 100
1, 118559, Note_off_c, 0, 63, 100
1, 118559, Note_on_c, 0, 62, 100
1, 118655, Note_off_c, 0, 62, 100
1, 118655, Note_on_c, 0, 63, 100
1, 118751, Note_off_c, 0, 63, 100
1, 118751, Note_on_c, 0, 62, 100
1, 118847, Note_off_c, 0, 62, 100
1, 118847, Note_on_c, 0, 63, 100
1, 118943, Note_off_c, 0, 63, 100
1, 118943, Note_on_c, 0, 62, 100
1, 119039, Note_off_c, 0, 62, 100
1, 119039, Note_on_c, 0, 63, 100
1, 119135, Note_off_c, 0, 63, 100
1, 119135, Note_on_c, 0, 63, 100
1, 119231, Note_off_c, 0, 63, 100
1, 119231, Note_on_c, 0, 62, 100
1, 119375, Note_off_c, 0, 62, 100
1, 119375, Note_on_c, 0, 63, 100
1, 119471, Note_off_c, 0, 63, 100
1, 120527, Note_on_c, 0, 63, 100
1, 120959, Note_off_c, 0, 63, 100
1, 120959, Note_on_c, 0, 62, 100
1, 121055, Note_off_c, 0, 62, 100
1, 121055, Note_on_c, 0, 63, 100
1, 121103, Note_off_c, 0, 63, 100
1, 121103, Note_on_c, 0, 65, 100
1, 121247, Note_off_c, 0, 65, 100
1, 121247, Note_on_c, 0, 60, 100
1, 121439, Note_off_c, 0, 60, 100
1, 121439, Note_on_c, 0, 58, 100
1, 121727, Note_off_c, 0, 58, 100
1, 121727, Note_on_c, 0, 58, 100
1, 121823, Note_off_c, 0, 58, 100
1, 122207, Note_on_c, 0, 63, 100
1, 122495, Note_off_c, 0, 63, 100
1, 122495, Note_on_c, 0, 62, 100
1, 122591, Note_off_c, 0, 62, 100
1, 122591, Note_on_c, 0, 64, 100
1, 122687, Note_off_c, 0, 64, 100
1, 122687, Note_on_c, 0, 65, 100
1, 122879, Note_off_c, 0, 65, 100
1, 122879, Note_on_c, 0, 60, 100
1, 123167, Note_off_c, 0, 60, 100
1, 123743, Note_on_c, 0, 68, 100
1, 123935, Note_off_c, 0, 68, 100
1, 123935, Note_on_c, 0, 61, 100
1, 124095, Note_off_c, 0, 61, 100
1, 124095, Note_on_c, 0, 67, 100
1, 124159, Note_off_c, 0, 67, 100
1, 124159, Note_on_c, 0, 66, 100
1, 124223, Note_off_c, 0, 66, 100
1, 124223, Note_on_c, 0, 65, 100
1, 124319, Note_off_c, 0, 65, 100
1, 124319, Note_on_c, 0, 64, 100
1, 124415, Note_off_c, 0, 64, 100
1, 124415, Note_on_c, 0, 63, 100
1, 124511, Note_off_c, 0, 63, 100
1, 124511, Note_on_c, 0, 62, 100
1, 124607, Note_off_c, 0, 62, 100
1, 124607, Note_on_c, 0, 61, 100
1, 124799, Note_off_c, 0, 61, 100
1, 124799, Note_on_c, 0, 60, 100
1, 124895, Note_off_c, 0, 60, 100
1, 124895, Note_on_c, 0, 57, 100
1, 124943, Note_off_c, 0, 57, 100
1, 124943, Note_on_c, 0, 58, 100
1, 125055, Note_off_c, 0, 58, 100
1, 125055, Note_on_c, 0, 62, 100
1, 125119, Note_off_c, 0, 62, 100
1, 125119, Note_on_c, 0, 65, 100
1, 125183, Note_off_c, 0, 65, 100
1, 125183, Note_on_c, 0, 69, 100
1, 125279, Note_off_c, 0, 69, 100
1, 125279, Note_on_c, 0, 67, 100
1, 125471, Note_off_c, 0, 67, 100
1, 125471, Note_on_c, 0, 67, 100
1, 125631, Note_off_c, 0, 67, 100
1, 125631, Note_on_c, 0, 65, 100
1, 127071, Note_off_c, 0, 65, 100
1, 127583, Note_on_c, 0, 67, 100
1, 127679, Note_off_c, 0, 67, 100
1, 127679, Note_on_c, 0, 69, 100
1, 127775, Note_off_c, 0, 69, 100
1, 127775, Note_on_c, 0, 70, 100
1, 127967, Note_off_c, 0, 70, 100
1, 127967, Note_on_c, 0, 72, 100
1, 128063, Note_off_c, 0, 72, 100
1, 128063, Note_on_c, 0, 74, 100
1, 128255, Note_off_c, 0, 74, 100
1, 128255, Note_on_c, 0, 72, 100
1, 128351, Note_off_c, 0, 72, 100
1, 128351, Note_on_c, 0, 70, 100
1, 128447, Note_off_c, 0, 70, 100
1, 128447, Note_on_c, 0, 69, 100
1, 128543, Note_off_c, 0, 69, 100
1, 128543, Note_on_c, 0, 70, 100
1, 128687, Note_off_c, 0, 70, 100
1, 128687, Note_on_c, 0, 67, 100
1, 128783, Note_off_c, 0, 67, 100
1, 128783, Note_on_c, 0, 69, 100
1, 128831, Note_off_c, 0, 69, 100
1, 128831, Note_on_c, 0, 65, 100
1, 128927, Note_off_c, 0, 65, 100
1, 129743, Note_on_c, 0, 70, 100
1, 129887, Note_off_c, 0, 70, 100
1, 129887, Note_on_c, 0, 70, 100
1, 129983, Note_off_c, 0, 70, 100
1, 129983, Note_on_c, 0, 70, 100
1, 130047, Note_off_c, 0, 70, 100
1, 130047, Note_on_c, 0, 70, 100
1, 130111, Note_off_c, 0, 70, 100
1, 130111, Note_on_c, 0, 70, 100
1, 130799, Note_off_c, 0, 70, 100
1, 130799, Note_on_c, 0, 69, 100
1, 130895, Note_off_c, 0, 69, 100
1, 130895, Note_on_c, 0, 67, 100
1, 130991, Note_off_c, 0, 67, 100
1, 130991, Note_on_c, 0, 65, 100
1, 131087, Note_off_c, 0, 65, 100
1, 131087, Note_on_c, 0, 64, 100
1, 131183, Note_off_c, 0, 64, 100
1, 131183, Note_on_c, 0, 62, 100
1, 131279, Note_off_c, 0, 62, 100
1, 131279, Note_on_c, 0, 60, 100
1, 131327, Note_off_c, 0, 60, 100
1, 131327, Note_on_c, 0, 58, 100
1, 131423, Note_off_c, 0, 58, 100
1, 131423, Note_on_c, 0, 57, 100
1, 131519, Note_off_c, 0, 57, 100
1, 131519, Note_on_c, 0, 56, 100
1, 131663, Note_off_c, 0, 56, 100
1, 131663, Note_on_c, 0, 61, 100
1, 131711, Note_off_c, 0, 61, 100
1, 131711, Note_on_c, 0, 63, 100
1, 131807, Note_off_c, 0, 63, 100
1, 131807, Note_on_c, 0, 67, 100
1, 131855, Note_off_c, 0, 67, 100
1, 131855, Note_on_c, 0, 65, 100
1, 131999, Note_off_c, 0, 65, 100
1, 131999, Note_on_c, 0, 63, 100
1, 132095, Note_off_c, 0, 63, 100
1, 132095, Note_on_c, 0, 62, 100
1, 132191, Note_off_c, 0, 62, 100
1, 132671, Note_on_c, 0, 55, 100
1, 132767, Note_off_c, 0, 55, 100
1, 132767, Note_on_c, 0, 58, 100
1, 132863, Note_off_c, 0, 58, 100
1, 132863, Note_on_c, 0, 61, 100
1, 132959, Note_off_c, 0, 61, 100
1, 132959, Note_on_c, 0, 63, 100
1, 133055, Note_off_c, 0, 63, 100
1, 133055, Note_on_c, 0, 60, 100
1, 133151, Note_off_c, 0, 60, 100
1, 133151, Note_on_c, 0, 61, 100
1, 133199, Note_off_c, 0, 61, 100
1, 133199, Note_on_c, 0, 58, 100
1, 133295, Note_off_c, 0, 58, 100
1, 133919, Note_on_c, 0, 64, 100
1, 134159, Note_off_c, 0, 64, 100
1, 134159, Note_on_c, 0, 61, 100
1, 134303, Note_off_c, 0, 61, 100
1, 134303, Note_on_c, 0, 64, 100
1, 134543, Note_off_c, 0, 64, 100
1, 134543, Note_on_c, 0, 64, 100
1, 134591, Note_off_c, 0, 64, 100
1, 134591, Note_on_c, 0, 64, 100
1, 134783, Note_off_c, 0, 64, 100
1, 134783, Note_on_c, 0, 61, 100
1, 134879, Note_off_c, 0, 61, 100
1, 134879, Note_on_c, 0, 64, 100
1, 134975, Note_off_c, 0, 64, 100
1, 134975, Note_on_c, 0, 61, 100
1, 135119, Note_off_c, 0, 61, 100
1, 135119, Note_on_c, 0, 64, 100
1, 135359, Note_off_c, 0, 64, 100
1, 135359, Note_on_c, 0, 61, 100
1, 135551, Note_off_c, 0, 61, 100
1, 135551, Note_on_c, 0, 64, 100
1, 135743, Note_off_c, 0, 64, 100
1, 135743, Note_on_c, 0, 61, 100
1, 135839, Note_off_c, 0, 61, 100
1, 135839, Note_on_c, 0, 64, 100
1, 135935, Note_off_c, 0, 64, 100
1, 136127, Note_on_c, 0, 64, 100
1, 136223, Note_off_c, 0, 64, 100
1, 136223, Note_on_c, 0, 64, 100
1, 136319, Note_off_c, 0, 64, 100
1, 136319, Note_on_c, 0, 61, 100
1, 136415, Note_off_c, 0, 61, 100
1, 136415, Note_on_c, 0, 64, 100
1, 136655, Note_off_c, 0, 64, 100
1, 136655, Note_on_c, 0, 64, 100
1, 136847, Note_off_c, 0, 64, 100
1, 136847, Note_on_c, 0, 64, 100
1, 137231, Note_off_c, 0, 64, 100
1, 137231, Note_on_c, 0, 61, 100
1, 137375, Note_off_c, 0, 61, 100
1, 137375, Note_on_c, 0, 64, 100
1, 137567, Note_off_c, 0, 64, 100
1, 137567, Note_on_c, 0, 61, 100
1, 137663, Note_off_c, 0, 61, 100
1, 137663, Note_on_c, 0, 64, 100
1, 137855, Note_off_c, 0, 64, 100
1, 137855, Note_on_c, 0, 61, 100
1, 137951, Note_off_c, 0, 61, 100
1, 138527, Note_on_c, 0, 61, 100
1, 138623, Note_off_c, 0, 61, 100
1, 138623, Note_on_c, 0, 62, 100
1, 138719, Note_off_c, 0, 62, 100
1, 138719, Note_on_c, 0, 65, 100
1, 138767, Note_off_c, 0, 65, 100
1, 138767, Note_on_c, 0, 67, 100
1, 138879, Note_off_c, 0, 67, 100
1, 138879, Note_on_c, 0, 70, 100
1, 139103, Note_off_c, 0, 70, 100
1, 139103, Note_on_c, 0, 67, 100
1, 139199, Note_off_c, 0, 67, 100
1, 139199, Note_on_c, 0, 70, 100
1, 139391, Note_off_c, 0, 70, 100
1, 139391, Note_on_c, 0, 67, 100
1, 139487, Note_off_c, 0, 67, 100
1, 139487, Note_on_c, 0, 70, 100
1, 139679, Note_off_c, 0, 70, 100
1, 139679, Note_on_c, 0, 67, 100
1, 139775, Note_off_c, 0, 67, 100
1, 139775, Note_on_c, 0, 70, 100
1, 139967, Note_off_c, 0, 70, 100
1, 139967, Note_on_c, 0, 67, 100
1, 140063, Note_off_c, 0, 67, 100
1, 140063, Note_on_c, 0, 70, 100
1, 140255, Note_off_c, 0, 70, 100
1, 140255, Note_on_c, 0, 67, 100
1, 140351, Note_off_c, 0, 67, 100
1, 140351, Note_on_c, 0, 70, 100
1, 140543, Note_off_c, 0, 70, 100
1, 140543, Note_on_c, 0, 67, 100
1, 140639, Note_off_c, 0, 67, 100
1, 140639, Note_on_c, 0, 70, 100
1, 140927, Note_off_c, 0, 70, 100
1, 140927, Note_on_c, 0, 67, 100
1, 141071, Note_off_c, 0, 67, 100
1, 141071, Note_on_c, 0, 63, 100
1, 141167, Note_off_c, 0, 63, 100
1, 141695, Note_on_c, 0, 73, 100
1, 141791, Note_off_c, 0, 73, 100
1, 141791, Note_on_c, 0, 71, 100
1, 141887, Note_off_c, 0, 71, 100
1, 141887, Note_on_c, 0, 72, 100
1, 141983, Note_off_c, 0, 72, 100
1, 141983, Note_on_c, 0, 70, 100
1, 142079, Note_off_c, 0, 70, 100
1, 142991, Note_on_c, 0, 68, 100
1, 143183, Note_off_c, 0, 68, 100
1, 143183, Note_on_c, 0, 65, 100
1, 143231, Note_off_c, 0, 65, 100
1, 143231, Note_on_c, 0, 67, 100
1, 143519, Note_off_c, 0, 67, 100
1, 143519, Note_on_c, 0, 66, 100
1, 143711, Note_off_c, 0, 66, 100
1, 143711, Note_on_c, 0, 62, 100
1, 143807, Note_off_c, 0, 62, 100
1, 143807, Note_on_c, 0, 65, 100
1, 144095, Note_off_c, 0, 65, 100
1, 144095, Note_on_c, 0, 64, 100
1, 144287, Note_off_c, 0, 64, 100
1, 144287, Note_on_c, 0, 61, 100
1, 144383, Note_off_c, 0, 61, 100
1, 144383, Note_on_c, 0, 63, 100
1, 144671, Note_off_c, 0, 63, 100
1, 144671, Note_on_c, 0, 62, 100
1, 144863, Note_off_c, 0, 62, 100
1, 144863, Note_on_c, 0, 60, 100
1, 144959, Note_off_c, 0, 60, 100
1, 144959, Note_on_c, 0, 62, 100
1, 145055, Note_off_c, 0, 62, 100
1, 145247, Note_on_c, 0, 60, 100
1, 145535, Note_off_c, 0, 60, 100
1, 145535, Note_on_c, 0, 59, 100
1, 145631, Note_off_c, 0, 59, 100
1, 145919, Note_on_c, 0, 58, 100
1, 146015, Note_off_c, 0, 58, 100
1, 146015, Note_on_c, 0, 61, 100
1, 146111, Note_off_c, 0, 61, 100
1, 146111, Note_on_c, 0, 62, 100
1, 146207, Note_off_c, 0, 62, 100
1, 146207, Note_on_c, 0, 64, 100
1, 146303, Note_off_c, 0, 64, 100
1, 146303, Note_on_c, 0, 65, 100
1, 146495, Note_off_c, 0, 65, 100
1, 146495, Note_on_c, 0, 65, 100
1, 146687, Note_off_c, 0, 65, 100
1, 146687, Note_on_c, 0, 67, 100
1, 146975, Note_off_c, 0, 67, 100
1, 146975, Note_on_c, 0, 65, 100
1, 147071, Note_off_c, 0, 65, 100
1, 147359, Note_on_c, 0, 64, 100
1, 147455, Note_off_c, 0, 64, 100
1, 147455, Note_on_c, 0, 63, 100
1, 147647, Note_off_c, 0, 63, 100
1, 147647, Note_on_c, 0, 58, 100
1, 147743, Note_off_c, 0, 58, 100
1, 147743, Note_on_c, 0, 61, 100
1, 147791, Note_off_c, 0, 61, 100
1, 147791, Note_on_c, 0, 62, 100
1, 147935, Note_off_c, 0, 62, 100
1, 147935, Note_on_c, 0, 65, 100
1, 147983, Note_off_c, 0, 65, 100
1, 147983, Note_on_c, 0, 67, 100
1, 148223, Note_off_c, 0, 67, 100
1, 148223, Note_on_c, 0, 70, 100
1, 148453, Note_off_c, 0, 70, 100
1, 148453, Note_on_c, 0, 67, 100
1, 148491, Note_off_c, 0, 67, 100
1, 148491, Note_on_c, 0, 65, 100
1, 148529, Note_off_c, 0, 65, 100
1, 148529, Note_on_c, 0, 62, 100
1, 148567, Note_off_c, 0, 62, 100
1, 148567, Note_on_c, 0, 58, 100
1, 148797, Note_off_c, 0, 58, 100
1, 148797, Note_on_c, 0, 53, 100
1, 148852, Note_off_c, 0, 53, 100
1, 148852, End_track
0, 0, End_of_file
