0, 0, Header, 1, 1, 192
1, 0, Start_track
1, 0, Title_t, "Melody"
1, 0, Tempo, 198019
1, 0, Key_signature, -3, "major"
1, 0, Time_signature, 4, 2, 24, 8
1, 576, Note_on_c, 0, 82, 100
1, 1920, Note_off_c, 0, 82, 100
1, 1920, Note_on_c, 0, 78, 100
1, 2016, Note_off_c, 0, 78, 100
1, 2016, Note_on_c, 0, 79, 100
1, 2112, Note_off_c, 0, 79, 100
1, 2112, Note_on_c, 0, 75, 100
1, 2208, Note_off_c, 0, 75, 100
1, 2208, Note_on_c, 0, 72, 100
1, 2304, Note_off_c, 0, 72, 100
1, 2304, Note_on_c, 0, 75, 100
1, 2592, Note_off_c, 0, 75, 100
1, 2592, Note_on_c, 0, 72, 100
1, 2832, Note_off_c, 0, 72, 100
1, 2832, Note_on_c, 0, 78, 100
1, 2928, Note_off_c, 0, 78, 100
1, 2928, Note_on_c, 0, 79, 100
1, 3072, Note_off_c, 0, 79, 100
1, 3072, Note_on_c, 0, 75, 100
1, 3264, Note_off_c, 0, 75, 100
1, 3264, Note_on_c, 0, 72, 100
1, 3360, Note_off_c, 0, 72, 100
1, 3360, Note_on_c, 0, 77, 100
1, 3456, Note_off_c, 0, 77, 100
1, 3456, Note_on_c, 0, 78, 100
1, 3600, Note_off_c, 0, 78, 100
1, 3600, Note_on_c, 0, 75, 100
1, 3792, Note_off_c, 0, 75, 100
1, 3792, Note_on_c, 0, 77, 100
1, 3888, Note_off_c, 0, 77, 100
1, 4128, Note_on_c, 0, 67, 100
1, 4224, Note_off_c, 0, 67, 100
1, 4224, Note_on_c, 0, 73, 100
1, 4320, Note_off_c, 0, 73, 100
1, 4320, Note_on_c, 0, 74, 100
1, 4368, Note_off_c, 0, 74, 100
1, 4368, Note_on_c, 0, 77, 100
1, 4464, Note_off_c, 0, 77, 100
1, 4464, Note_on_c, 0, 74, 100
1, 4560, Note_off_c, 0, 74, 100
1, 4560, Note_on_c, 0, 79, 100
1, 4656, Note_off_c, 0, 79, 100
1, 4656, Note_on_c, 0, 78, 100
1, 4752, Note_off_c, 0, 78, 100
1, 4752, Note_on_c, 0, 82, 100
1, 4896, Note_off_c, 0, 82, 100
1, 4896, Note_on_c, 0, 81, 100
1, 4992, Note_off_c, 0, 81, 100
1, 4992, Note_on_c, 0, 80, 100
1, 5088, Note_off_c, 0, 80, 100
1, 5088, Note_on_c, 0, 77, 100
1, 5184, Note_off_c, 0, 77, 100
1, 5184, Note_on_c, 0, 74, 100
1, 5280, Note_off_c, 0, 74, 100
1, 5280, Note_on_c, 0, 70, 100
1, 5376, Note_off_c, 0, 70, 100
1, 5376, Note_on_c, 0, 68, 100
1, 5472, Note_off_c, 0, 68, 100
1, 5472, Note_on_c, 0, 65, 100
1, 5568, Note_off_c, 0, 65, 100
1, 5568, Note_on_c, 0, 62, 100
1, 5664, Note_off_c, 0, 62, 100
1, 5664, Note_on_c, 0, 65, 100
1, 5760, Note_off_c, 0, 65, 100
1, 5760, Note_on_c, 0, 62, 100
1, 5856, Note_off_c, 0, 62, 100
1, 5856, Note_on_c, 0, 65, 100
1, 5952, Note_off_c, 0, 65, 100
1, 5952, Note_on_c, 0, 62, 100
1, 6016, Note_off_c, 0, 62, 100
1, 6016, Note_on_c, 0, 68, 100
1, 6144, Note_off_c, 0, 68, 100
1, 6144, Note_on_c, 0, 75, 100
1, 6336, Note_off_c, 0, 75, 100
1, 6591, Note_on_c, 0, 75, 100
1, 6719, Note_off_c, 0, 75, 100
1, 6719, Note_on_c, 0, 79, 100
1, 6815, Note_off_c, 0, 79, 100
1, 6815, Note_on_c, 0, 82, 100
1, 6975, Note_off_c, 0, 82, 100
1, 6975, Note_on_c, 0, 87, 100
1, 8351, Note_off_c, 0, 87, 100
1, 8351, Note_on_c, 0, 86, 100
1, 8639, Note_off_c, 0, 86, 100
1, 8639, Note_on_c, 0, 85, 100
1, 8831, Note_off_c, 0, 85, 100
1, 8831, Note_on_c, 0, 84, 100
1, 8927, Note_off_c, 0, 84, 100
1, 8927, Note_on_c, 0, 83, 100
1, 9023, Note_off_c, 0, 83, 100
1, 9023, Note_on_c, 0, 82, 100
1, 9119, Note_off_c, 0, 82, 100
1, 9119, Note_on_c, 0, 81, 100
1, 9215, Note_off_c, 0, 81, 100
1, 9215, Note_on_c, 0, 80, 100
1, 9311, Note_off_c, 0, 80, 100
1, 9311, Note_on_c, 0, 79, 100
1, 9407, Note_off_c, 0, 79, 100
1, 9407, Note_on_c, 0, 78, 100
1, 9503, Note_off_c, 0, 78, 100
1, 9503, Note_on_c, 0, 77, 100
1, 9599, Note_off_c, 0, 77, 100
1, 9599, Note_on_c, 0, 76, 100
1, 9663, Note_off_c, 0, 76, 100
1, 9663, Note_on_c, 0, 75, 100
1, 9727, Note_off_c, 0, 75, 100
1, 9727, Note_on_c, 0, 74, 100
1, 9791, Note_off_c, 0, 74, 100
1, 9791, Note_on_c, 0, 73, 100
1, 9983, Note_off_c, 0, 73, 100
1, 9983, Note_on_c, 0, 72, 100
1, 10239, Note_off_c, 0, 72, 100
1, 10239, Note_on_c, 0, 82, 100
1, 10335, Note_off_c, 0, 82, 100
1, 11135, Note_on_c, 0, 73, 100
1, 11231, Note_off_c, 0, 73, 100
1, 11231, Note_on_c, 0, 74, 100
1, 11327, Note_off_c, 0, 74, 100
1, 11327, Note_on_c, 0, 77, 100
1, 11423, Note_off_c, 0, 77, 100
1, 11423, Note_on_c, 0, 74, 100
1, 11519, Note_off_c, 0, 74, 100
1, 11519, Note_on_c, 0, 77, 100
1, 11615, Note_off_c, 0, 77, 100
1, 11615, Note_on_c, 0, 74, 100
1, 11711, Note_off_c, 0, 74, 100
1, 11711, Note_on_c, 0, 77, 100
1, 11759, Note_off_c, 0, 77, 100
1, 11759, Note_on_c, 0, 79, 100
1, 11855, Note_off_c, 0, 79, 100
1, 11855, Note_on_c, 0, 78, 100
1, 11967, Note_off_c, 0, 78, 100
1, 11967, Note_on_c, 0, 77, 100
1, 12095, Note_off_c, 0, 77, 100
1, 12095, Note_on_c, 0, 74, 100
1, 12191, Note_off_c, 0, 74, 100
1, 12191, Note_on_c, 0, 75, 100
1, 12287, Note_off_c, 0, 75, 100
1, 12287, Note_on_c, 0, 75, 100
1, 12479, Note_off_c, 0, 75, 100
1, 12479, Note_on_c, 0, 62, 100
1, 12575, Note_off_c, 0, 62, 100
1, 12575, Note_on_c, 0, 67, 100
1, 12671, Note_off_c, 0, 67, 100
1, 12671, Note_on_c, 0, 70, 100
1, 12767, Note_off_c, 0, 70, 100
1, 12767, Note_on_c, 0, 72, 100
1, 12863, Note_off_c, 0, 72, 100
1, 12863, Note_on_c, 0, 75, 100
1, 12959, Note_off_c, 0, 75, 100
1, 12959, Note_on_c, 0, 72, 100
1, 13055, Note_off_c, 0, 72, 100
1, 13055, Note_on_c, 0, 79, 100
1, 13151, Note_off_c, 0, 79, 100
1, 13151, Note_on_c, 0, 80, 100
1, 13247, Note_off_c, 0, 80, 100
1, 13247, Note_on_c, 0, 81, 100
1, 13343, Note_off_c, 0, 81, 100
1, 13343, Note_on_c, 0, 82, 100
1, 13439, Note_off_c, 0, 82, 100
1, 13439, Note_on_c, 0, 79, 100
1, 13631, Note_off_c, 0, 79, 100
1, 13631, Note_on_c, 0, 78, 100
1, 13919, Note_off_c, 0, 78, 100
1, 13919, Note_on_c, 0, 79, 100
1, 14111, Note_off_c, 0, 79, 100
1, 14111, Note_on_c, 0, 79, 100
1, 14207, Note_off_c, 0, 79, 100
1, 14207, Note_on_c, 0, 76, 100
1, 14303, Note_off_c, 0, 76, 100
1, 14303, Note_on_c, 0, 79, 100
1, 14399, Note_off_c, 0, 79, 100
1, 14399, Note_on_c, 0, 76, 100
1, 14591, Note_off_c, 0, 76, 100
1, 14591, Note_on_c, 0, 79, 100
1, 14685, Note_off_c, 0, 79, 100
1, 14685, End_track
0, 0, End_of_file
