0, 0, Header, 1, 1, 192
1, 0, Start_track
1, 0, Title_t, "Melody"
1, 0, Tempo, 216606
1, 0, Key_signature, -3, "major"
1, 0, Time_signature, 4, 2, 24, 8
1, 384, Note_on_c, 0, 72, 100
1, 528, Note_off_c, 0, 72, 100
1, 528, Note_on_c, 0, 65, 100
1, 624, Note_off_c, 0, 65, 100
1, 1104, Note_on_c, 0, 70, 100
1, 1200, Note_off_c, 0, 70, 100
1, 1200, Note_on_c, 0, 68, 100
1, 1296, Note_off_c, 0, 68, 100
1, 1296, Note_on_c, 0, 65, 100
1, 1488, Note_off_c, 0, 65, 100
1, 1920, Note_on_c, 0, 60, 100
1, 2016, Note_off_c, 0, 60, 100
1, 2016, Note_on_c, 0, 63, 100
1, 2064, Note_off_c, 0, 63, 100
1, 2064, Note_on_c, 0, 67, 100
1, 2176, Note_off_c, 0, 67, 100
1, 2176, Note_on_c, 0, 63, 100
1, 2304, Note_off_c, 0, 63, 100
1, 2304, Note_on_c, 0, 65, 100
1, 2400, Note_off_c, 0, 65, 100
1, 2400, Note_on_c, 0, 60, 100
1, 2496, Note_off_c, 0, 60, 100
1, 2496, Note_on_c, 0, 58, 100
1, 2688, Note_off_c, 0, 58, 100
1, 2688, Note_on_c, 0, 64, 100
1, 2784, Note_off_c, 0, 64, 100
1, 2784, Note_on_c, 0, 61, 100
1, 2880, Note_off_c, 0, 61, 100
1, 2880, Note_on_c, 0, 59, 100
1, 2976, Note_off_c, 0, 59, 100
1, 2976, Note_on_c, 0, 54, 100
1, 3072, Note_off_c, 0, 54, 100
1, 3072, Note_on_c, 0, 55, 100
1, 3456, Note_off_c, 0, 55, 100
1, 3456, Note_on_c, 0, 66, 100
1, 3552, Note_off_c, 0, 66, 100
1, 3936, Note_on_c, 0, 53, 100
1, 3984, Note_off_c, 0, 53, 100
1, 3984, Note_on_c, 0, 55, 100
1, 4128, Note_off_c, 0, 55, 100
1, 4128, Note_on_c, 0, 61, 100
1, 4224, Note_off_c, 0, 61, 100
1, 4224, Note_on_c, 0, 66, 100
1, 4320, Note_off_c, 0, 66, 100
1, 4320, Note_on_c, 0, 64, 100
1, 4416, Note_off_c, 0, 64, 100
1, 4416, Note_on_c, 0, 63, 100
1, 4512, Note_off_c, 0, 63, 100
1, 4512, Note_on_c, 0, 61, 100
1, 4608, Note_off_c, 0, 61, 100
1, 4608, Note_on_c, 0, 60, 100
1, 4704, Note_off_c, 0, 60, 100
1, 4704, Note_on_c, 0, 58, 100
1, 4800, Note_off_c, 0, 58, 100
1, 4800, Note_on_c, 0, 55, 100
1, 4992, Note_off_c, 0, 55, 100
1, 4992, Note_on_c, 0, 57, 100
1, 5088, Note_off_c, 0, 57, 100
1, 5088, Note_on_c, 0, 48, 100
1, 5184, Note_off_c, 0, 48, 100
1, 5184, Note_on_c, 0, 51, 100
1, 5280, Note_off_c, 0, 51, 100
1, 5280, Note_on_c, 0, 55, 100
1, 5376, Note_off_c, 0, 55, 100
1, 5376, Note_on_c, 0, 54, 100
1, 5472, Note_off_c, 0, 54, 100
1, 5472, Note_on_c, 0, 57, 100
1, 5568, Note_off_c, 0, 57, 100
1, 5568, Note_on_c, 0, 60, 100
1, 5664, Note_off_c, 0, 60, 100
1, 5664, Note_on_c, 0, 62, 100
1, 5760, Note_off_c, 0, 62, 100
1, 5760, Note_on_c, 0, 63, 100
1, 5856, Note_off_c, 0, 63, 100
1, 5856, Note_on_c, 0, 62, 100
1, 5952, Note_off_c, 0, 62, 100
1, 5952, Note_on_c, 0, 61, 100
1, 6048, Note_off_c, 0, 61, 100
1, 6048, Note_on_c, 0, 62, 100
1, 6144, Note_off_c, 0, 62, 100
1, 6144, Note_on_c, 0, 58, 100
1, 6432, Note_off_c, 0, 58, 100
1, 6432, Note_on_c, 0, 62, 100
1, 6720, Note_off_c, 0, 62, 100
1, 6720, Note_on_c, 0, 65, 100
1, 7104, Note_off_c, 0, 65, 100
1, 7104, Note_on_c, 0, 62, 100
1, 7152, Note_off_c, 0, 62, 100
1, 7152, Note_on_c, 0, 63, 100
1, 7200, Note_off_c, 0, 63, 100
1, 7200, Note_on_c, 0, 65, 100
1, 7248, Note_off_c, 0, 65, 100
1, 7248, Note_on_c, 0, 69, 100
1, 7296, Note_off_c, 0, 69, 100
1, 7296, Note_on_c, 0, 75, 100
1, 7392, Note_off_c, 0, 75, 100
1, 7392, Note_on_c, 0, 74, 100
1, 7488, Note_off_c, 0, 74, 100
1, 8064, Note_on_c, 0, 74, 100
1, 8160, Note_off_c, 0, 74, 100
1, 8832, Note_on_c, 0, 60, 100
1, 8928, Note_off_c, 0, 60, 100
1, 9216, Note_on_c, 0, 72, 100
1, 9408, Note_off_c, 0, 72, 100
1, 9408, Note_on_c, 0, 75, 100
1, 9536, Note_off_c, 0, 75, 100
1, 9536, Note_on_c, 0, 72, 100
1, 9984, Note_off_c, 0, 72, 100
1, 9984, Note_on_c, 0, 68, 100
1, 10080, Note_off_c, 0, 68, 100
1, 10080, Note_on_c, 0, 70, 100
1, 10176, Note_off_c, 0, 70, 100
1, 10176, Note_on_c, 0, 65, 100
1, 10368, Note_off_c, 0, 65, 100
1, 10656, Note_on_c, 0, 67, 100
1, 10848, Note_off_c, 0, 67, 100
1, 10848, Note_on_c, 0, 67, 100
1, 10944, Note_off_c, 0, 67, 100
1, 10944, Note_on_c, 0, 66, 100
1, 11040, Note_off_c, 0, 66, 100
1, 11040, Note_on_c, 0, 65, 100
1, 11136, Note_off_c, 0, 65, 100
1, 11136, Note_on_c, 0, 64, 100
1, 11232, Note_off_c, 0, 64, 100
1, 11232, Note_on_c, 0, 63, 100
1, 11328, Note_off_c, 0, 63, 100
1, 11328, Note_on_c, 0, 62, 100
1, 11424, Note_off_c, 0, 62, 100
1, 11424, Note_on_c, 0, 61, 100
1, 11520, Note_off_c, 0, 61, 100
1, 11520, Note_on_c, 0, 59, 100
1, 11616, Note_off_c, 0, 59, 100
1, 11616, Note_on_c, 0, 53, 100
1, 11712, Note_off_c, 0, 53, 100
1, 11712, Note_on_c, 0, 54, 100
1, 11808, Note_off_c, 0, 54, 100
1, 11808, Note_on_c, 0, 50, 100
1, 11904, Note_off_c, 0, 50, 100
1, 11904, Note_on_c, 0, 56, 100
1, 12000, Note_off_c, 0, 56, 100
1, 12000, Note_on_c, 0, 54, 100
1, 12096, Note_off_c, 0, 54, 100
1, 12096, Note_on_c, 0, 55, 100
1, 12192, Note_off_c, 0, 55, 100
1, 12192, Note_on_c, 0, 56, 100
1, 12288, Note_off_c, 0, 56, 100
1, 12288, Note_on_c, 0, 53, 100
1, 12384, Note_off_c, 0, 53, 100
1, 12672, Note_on_c, 0, 56, 100
1, 12960, Note_off_c, 0, 56, 100
1, 12960, Note_on_c, 0, 54, 100
1, 13056, Note_off_c, 0, 54, 100
1, 13056, Note_on_c, 0, 53, 100
1, 13152, Note_off_c, 0, 53, 100
1, 13152, Note_on_c, 0, 51, 100
1, 13248, Note_off_c, 0, 51, 100
1, 13248, Note_on_c, 0, 49, 100
1, 13344, Note_off_c, 0, 49, 100
1, 13344, Note_on_c, 0, 48, 100
1, 13440, Note_off_c, 0, 48, 100
1, 13440, Note_on_c, 0, 47, 100
1, 13536, Note_off_c, 0, 47, 100
1, 13920, Note_on_c, 0, 46, 100
1, 14112, Note_off_c, 0, 46, 100
1, 14112, Note_on_c, 0, 55, 100
1, 14208, Note_off_c, 0, 55, 100
1, 14208, Note_on_c, 0, 53, 100
1, 14304, Note_off_c, 0, 53, 100
1, 14304, Note_on_c, 0, 55, 100
1, 14400, Note_off_c, 0, 55, 100
1, 14400, Note_on_c, 0, 57, 100
1, 14496, Note_off_c, 0, 57, 100
1, 14496, Note_on_c, 0, 53, 100
1, 14592, Note_off_c, 0, 53, 100
1, 14592, Note_on_c, 0, 58, 100
1, 14688, Note_off_c, 0, 58, 100
1, 14688, Note_on_c, 0, 60, 100
1, 14784, Note_off_c, 0, 60, 100
1, 14784, Note_on_c, 0, 62, 100
1, 14880, Note_off_c, 0, 62, 100
1, 14880, Note_on_c, 0, 65, 100
1, 14976, Note_off_c, 0, 65, 100
1, 14976, Note_on_c, 0, 63, 100
1, 15072, Note_off_c, 0, 63, 100
1, 15072, Note_on_c, 0, 65, 100
1, 15168, Note_off_c, 0, 65, 100
1, 15168, Note_on_c, 0, 67, 100
1, 15264, Note_off_c, 0, 67, 100
1, 15264, Note_on_c, 0, 70, 100
1, 15408, Note_off_c, 0, 70, 100
1, 15408, Note_on_c, 0, 67, 100
1, 15504, Note_off_c, 0, 67, 100
1, 15504, Note_on_c, 0, 68, 100
1, 15648, Note_off_c, 0, 68, 100
1, 15648, Note_on_c, 0, 66, 100
1, 15744, Note_off_c, 0, 66, 100
1, 15744, Note_on_c, 0, 67, 100
1, 15792, Note_off_c, 0, 67, 100
1, 15792, Note_on_c, 0, 62, 100
1, 15888, Note_off_c, 0, 62, 100
1, 15888, Note_on_c, 0, 65, 100
1, 16032, Note_off_c, 0, 65, 100
1, 16032, Note_on_c, 0, 63, 100
1, 16224, Note_off_c, 0, 63, 100
1, 16224, Note_on_c, 0, 58, 100
1, 16320, Note_off_c, 0, 58, 100
1, 16512, Note_on_c, 0, 62, 100
1, 16608, Note_off_c, 0, 62, 100
1, 16608, Note_on_c, 0, 61, 100
1, 16704, Note_off_c, 0, 61, 100
1, 16704, Note_on_c, 0, 60, 100
1, 16800, Note_off_c, 0, 60, 100
1, 16800, Note_on_c, 0, 59, 100
1, 16896, Note_off_c, 0, 59, 100
1, 16896, Note_on_c, 0, 58, 100
1, 16992, Note_off_c, 0, 58, 100
1, 16992, Note_on_c, 0, 56, 100
1, 17088, Note_off_c, 0, 56, 100
1, 17088, Note_on_c, 0, 55, 100
1, 17184, Note_off_c, 0, 55, 100
1, 17184, Note_on_c, 0, 53, 100
1, 17280, Note_off_c, 0, 53, 100
1, 17280, Note_on_c, 0, 51, 100
1, 17376, Note_off_c, 0, 51, 100
1, 18048, Note_on_c, 0, 63, 100
1, 18144, Note_off_c, 0, 63, 100
1, 18144, Note_on_c, 0, 65, 100
1, 18240, Note_off_c, 0, 65, 100
1, 18240, Note_on_c, 0, 67, 100
1, 18336, Note_off_c, 0, 67, 100
1, 18336, Note_on_c, 0, 63, 100
1, 18432, Note_off_c, 0, 63, 100
1, 18432, Note_on_c, 0, 65, 100
1, 18528, Note_off_c, 0, 65, 100
1, 18528, Note_on_c, 0, 67, 100
1, 18624, Note_off_c, 0, 67, 100
1, 18624, Note_on_c, 0, 69, 100
1, 18720, Note_off_c, 0, 69, 100
1, 18720, Note_on_c, 0, 65, 100
1, 18816, Note_off_c, 0, 65, 100
1, 18816, Note_on_c, 0, 67, 100
1, 18912, Note_off_c, 0, 67, 100
1, 18912, Note_on_c, 0, 65, 100
1, 19008, Note_off_c, 0, 65, 100
1, 19008, Note_on_c, 0, 63, 100
1, 19104, Note_off_c, 0, 63, 100
1, 19104, Note_on_c, 0, 67, 100
1, 19200, Note_off_c, 0, 67, 100
1, 19200, Note_on_c, 0, 65, 100
1, 19296, Note_off_c, 0, 65, 100
1, 19296, Note_on_c, 0, 60, 100
1, 19584, Note_off_c, 0, 60, 100
1, 19584, Note_on_c, 0, 65, 100
1, 19680, Note_off_c, 0, 65, 100
1, 19680, Note_on_c, 0, 67, 100
1, 19776, Note_off_c, 0, 67, 100
1, 19776, Note_on_c, 0, 69, 100
1, 19872, Note_off_c, 0, 69, 100
1, 19872, Note_on_c, 0, 65, 100
1, 19968, Note_off_c, 0, 65, 100
1, 19968, Note_on_c, 0, 67, 100
1, 20096, Note_off_c, 0, 67, 100
1, 20096, Note_on_c, 0, 65, 100
1, 20160, Note_off_c, 0, 65, 100
1, 20160, Note_on_c, 0, 60, 100
1, 20256, Note_off_c, 0, 60, 100
1, 20256, Note_on_c, 0, 65, 100
1, 20352, Note_off_c, 0, 65, 100
1, 20352, Note_on_c, 0, 63, 100
1, 20448, Note_off_c, 0, 63, 100
1, 20448, Note_on_c, 0, 65, 100
1, 20544, Note_off_c, 0, 65, 100
1, 20544, Note_on_c, 0, 67, 100
1, 20640, Note_off_c, 0, 67, 100
1, 20640, Note_on_c, 0, 63, 100
1, 20736, Note_off_c, 0, 63, 100
1, 20736, Note_on_c, 0, 65, 100
1, 20784, Note_off_c, 0, 65, 100
1, 20784, Note_on_c, 0, 66, 100
1, 20832, Note_off_c, 0, 66, 100
1, 20832, Note_on_c, 0, 61, 100
1, 20928, Note_off_c, 0, 61, 100
1, 20928, Note_on_c, 0, 59, 100
1, 21120, Note_off_c, 0, 59, 100
1, 21120, Note_on_c, 0, 63, 100
1, 21216, Note_off_c, 0, 63, 100
1, 21216, Note_on_c, 0, 65, 100
1, 21312, Note_off_c, 0, 65, 100
1, 21312, Note_on_c, 0, 68, 100
1, 21408, Note_off_c, 0, 68, 100
1, 21888, Note_on_c, 0, 72, 100
1, 21984, Note_off_c, 0, 72, 100
1, 21984, Note_on_c, 0, 70, 100
1, 22080, Note_off_c, 0, 70, 100
1, 22080, Note_on_c, 0, 68, 100
1, 22208, Note_off_c, 0, 68, 100
1, 22208, Note_on_c, 0, 63, 100
1, 22400, Note_off_c, 0, 63, 100
1, 22656, Note_on_c, 0, 67, 100
1, 22752, Note_off_c, 0, 67, 100
1, 22752, Note_on_c, 0, 66, 100
1, 22848, Note_off_c, 0, 66, 100
1, 22848, Note_on_c, 0, 63, 100
1, 22976, Note_off_c, 0, 63, 100
1, 22976, Note_on_c, 0, 59, 100
1, 23104, Note_off_c, 0, 59, 100
1, 23104, Note_on_c, 0, 71, 100
1, 23168, Note_off_c, 0, 71, 100
1, 23168, Note_on_c, 0, 69, 100
1, 23232, Note_off_c, 0, 69, 100
1, 23232, Note_on_c, 0, 67, 100
1, 23424, Note_off_c, 0, 67, 100
1, 23424, Note_on_c, 0, 70, 100
1, 23520, Note_off_c, 0, 70, 100
1, 23520, Note_on_c, 0, 68, 100
1, 23616, Note_off_c, 0, 68, 100
1, 23616, Note_on_c, 0, 66, 100
1, 23712, Note_off_c, 0, 66, 100
1, 23712, Note_on_c, 0, 61, 100
1, 23808, Note_off_c, 0, 61, 100
1, 23808, Note_on_c, 0, 68, 100
1, 23856, Note_off_c, 0, 68, 100
1, 23856, Note_on_c, 0, 69, 100
1, 23952, Note_off_c, 0, 69, 100
1, 23952, Note_on_c, 0, 67, 100
1, 24000, Note_off_c, 0, 67, 100
1, 24000, Note_on_c, 0, 64, 100
1, 24192, Note_off_c, 0, 64, 100
1, 24192, Note_on_c, 0, 68, 100
1, 24320, Note_off_c, 0, 68, 100
1, 24320, Note_on_c, 0, 66, 100
1, 24384, Note_off_c, 0, 66, 100
1, 24384, Note_on_c, 0, 62, 100
1, 24576, Note_off_c, 0, 62, 100
1, 24576, Note_on_c, 0, 67, 100
1, 24768, Note_off_c, 0, 67, 100
1, 24960, Note_on_c, 0, 67, 100
1, 25024, Note_off_c, 0, 67, 100
1, 25024, Note_on_c, 0, 70, 100
1, 25088, Note_off_c, 0, 70, 100
1, 25088, Note_on_c, 0, 67, 100
1, 25280, Note_off_c, 0, 67, 100
1, 25728, Note_on_c, 0, 70, 100
1, 25824, Note_off_c, 0, 70, 100
1, 25824, Note_on_c, 0, 67, 100
1, 25920, Note_off_c, 0, 67, 100
1, 25920, Note_on_c, 0, 68, 100
1, 26048, Note_off_c, 0, 68, 100
1, 26048, Note_on_c, 0, 68, 100
1, 26112, Note_off_c, 0, 68, 100
1, 26112, Note_on_c, 0, 67, 100
1, 26256, Note_off_c, 0, 67, 100
1, 26256, Note_on_c, 0, 66, 100
1, 26304, Note_off_c, 0, 66, 100
1, 26304, Note_on_c, 0, 65, 100
1, 26400, Note_off_c, 0, 65, 100
1, 26400, Note_on_c, 0, 64, 100
1, 26496, Note_off_c, 0, 64, 100
1, 26496, Note_on_c, 0, 63, 100
1, 26592, Note_off_c, 0, 63, 100
1, 26592, Note_on_c, 0, 60, 100
1, 26688, Note_off_c, 0, 60, 100
1, 26688, Note_on_c, 0, 56, 100
1, 26880, Note_off_c, 0, 56, 100
1, 26880, Note_on_c, 0, 62, 100
1, 26976, Note_off_c, 0, 62, 100
1, 26976, Note_on_c, 0, 60, 100
1, 27072, Note_off_c, 0, 60, 100
1, 27072, Note_on_c, 0, 58, 100
1, 27168, Note_off_c, 0, 58, 100
1, 27168, Note_on_c, 0, 56, 100
1, 27328, Note_off_c, 0, 56, 100
1, 27328, Note_on_c, 0, 57, 100
1, 27392, Note_off_c, 0, 57, 100
1, 27392, Note_on_c, 0, 60, 100
1, 27648, Note_off_c, 0, 60, 100
1, 27648, Note_on_c, 0, 65, 100
1, 28032, Note_off_c, 0, 65, 100
1, 28032, Note_on_c, 0, 63, 100
1, 28176, Note_off_c, 0, 63, 100
1, 28176, Note_on_c, 0, 65, 100
1, 28368, Note_off_c, 0, 65, 100
1, 28368, Note_on_c, 0, 65, 100
1, 28512, Note_off_c, 0, 65, 100
1, 28512, Note_on_c, 0, 65, 100
1, 28704, Note_off_c, 0, 65, 100
1, 28704, Note_on_c, 0, 63, 100
1, 28800, Note_off_c, 0, 63, 100
1, 28800, Note_on_c, 0, 65, 100
1, 29088, Note_off_c, 0, 65, 100
1, 29088, Note_on_c, 0, 63, 100
1, 29184, Note_off_c, 0, 63, 100
1, 29184, Note_on_c, 0, 65, 100
1, 29376, Note_off_c, 0, 65, 100
1, 29376, Note_on_c, 0, 60, 100
1, 29472, Note_off_c, 0, 60, 100
1, 29856, Note_on_c, 0, 60, 100
1, 29952, Note_off_c, 0, 60, 100
1, 29952, Note_on_c, 0, 68, 100
1, 30048, Note_off_c, 0, 68, 100
1, 30048, Note_on_c, 0, 67, 100
1, 30144, Note_off_c, 0, 67, 100
1, 30144, Note_on_c, 0, 65, 100
1, 30240, Note_off_c, 0, 65, 100
1, 30240, Note_on_c, 0, 69, 100
1, 30336, Note_off_c, 0, 69, 100
1, 30336, Note_on_c, 0, 67, 100
1, 30432, Note_off_c, 0, 67, 100
1, 30432, Note_on_c, 0, 66, 100
1, 30528, Note_off_c, 0, 66, 100
1, 31392, Note_on_c, 0, 71, 100
1, 31488, Note_off_c, 0, 71, 100
1, 31488, Note_on_c, 0, 72, 100
1, 32208, Note_off_c, 0, 72, 100
1, 32208, Note_on_c, 0, 70, 100
1, 32304, Note_off_c, 0, 70, 100
1, 32304, Note_on_c, 0, 69, 100
1, 32400, Note_off_c, 0, 69, 100
1, 32400, Note_on_c, 0, 65, 100
1, 32512, Note_off_c, 0, 65, 100
1, 32512, Note_on_c, 0, 69, 100
1, 32736, Note_off_c, 0, 69, 100
1, 32736, Note_on_c, 0, 72, 100
1, 32832, Note_off_c, 0, 72, 100
1, 33504, Note_on_c, 0, 69, 100
1, 33696, Note_off_c, 0, 69, 100
1, 33696, Note_on_c, 0, 70, 100
1, 33888, Note_off_c, 0, 70, 100
1, 33888, Note_on_c, 0, 67, 100
1, 34080, Note_off_c, 0, 67, 100
1, 34080, Note_on_c, 0, 68, 100
1, 34272, Note_off_c, 0, 68, 100
1, 34272, Note_on_c, 0, 66, 100
1, 34320, Note_off_c, 0, 66, 100
1, 34320, Note_on_c, 0, 67, 100
1, 34464, Note_off_c, 0, 67, 100
1, 34464, Note_on_c, 0, 70, 100
1, 34560, Note_off_c, 0, 70, 100
1, 34560, Note_on_c, 0, 66, 100
1, 34656, Note_off_c, 0, 66, 100
1, 34656, Note_on_c, 0, 62, 100
1, 34752, Note_off_c, 0, 62, 100
1, 34752, Note_on_c, 0, 65, 100
1, 34848, Note_off_c, 0, 65, 100
1, 34848, Note_on_c, 0, 64, 100
1, 34944, Note_off_c, 0, 64, 100
1, 34944, Note_on_c, 0, 63, 100
1, 35088, Note_off_c, 0, 63, 100
1, 35088, Note_on_c, 0, 60, 100
1, 35136, Note_off_c, 0, 60, 100
1, 35136, Note_on_c, 0, 67, 100
1, 35328, Note_off_c, 0, 67, 100
1, 35328, Note_on_c, 0, 63, 100
1, 35392, Note_off_c, 0, 63, 100
1, 35392, Note_on_c, 0, 62, 100
1, 35520, Note_off_c, 0, 62, 100
1, 35520, Note_on_c, 0, 61, 100
1, 35568, Note_off_c, 0, 61, 100
1, 35568, Note_on_c, 0, 60, 100
1, 35664, Note_off_c, 0, 60, 100
1, 35664, Note_on_c, 0, 59, 100
1, 35712, Note_off_c, 0, 59, 100
1, 35712, Note_on_c, 0, 58, 100
1, 35856, Note_off_c, 0, 58, 100
1, 35856, Note_on_c, 0, 56, 100
1, 35904, Note_off_c, 0, 56, 100
1, 35904, Note_on_c, 0, 55, 100
1, 36032, Note_off_c, 0, 55, 100
1, 36032, Note_on_c, 0, 53, 100
1, 36096, Note_off_c, 0, 53, 100
1, 36096, Note_on_c, 0, 52, 100
1, 36288, Note_off_c, 0, 52, 100
1, 36288, Note_on_c, 0, 55, 100
1, 36384, Note_off_c, 0, 55, 100
1, 36384, Note_on_c, 0, 52, 100
1, 36480, Note_off_c, 0, 52, 100
1, 36480, Note_on_c, 0, 53, 100
1, 36624, Note_off_c, 0, 53, 100
1, 36624, Note_on_c, 0, 55, 100
1, 36672, Note_off_c, 0, 55, 100
1, 36672, Note_on_c, 0, 56, 100
1, 36768, Note_off_c, 0, 56, 100
1, 36768, Note_on_c, 0, 58, 100
1, 36864, Note_off_c, 0, 58, 100
1, 36864, Note_on_c, 0, 60, 100
1, 36960, Note_off_c, 0, 60, 100
1, 36960, Note_on_c, 0, 62, 100
1, 37056, Note_off_c, 0, 62, 100
1, 37056, Note_on_c, 0, 63, 100
1, 37152, Note_off_c, 0, 63, 100
1, 37152, Note_on_c, 0, 65, 100
1, 37248, Note_off_c, 0, 65, 100
1, 37248, Note_on_c, 0, 67, 100
1, 37344, Note_off_c, 0, 67, 100
1, 37344, Note_on_c, 0, 63, 100
1, 37440, Note_off_c, 0, 63, 100
1, 37440, Note_on_c, 0, 65, 100
1, 37536, Note_off_c, 0, 65, 100
1, 37536, Note_on_c, 0, 67, 100
1, 37824, Note_off_c, 0, 67, 100
1, 38016, Note_on_c, 0, 67, 100
1, 38160, Note_off_c, 0, 67, 100
1, 38160, Note_on_c, 0, 63, 100
1, 38208, Note_off_c, 0, 63, 100
1, 38208, Note_on_c, 0, 65, 100
1, 38336, Note_off_c, 0, 65, 100
1, 38336, Note_on_c, 0, 67, 100
1, 38592, Note_off_c, 0, 67, 100
1, 38592, Note_on_c, 0, 67, 100
1, 38720, Note_off_c, 0, 67, 100
1, 38720, Note_on_c, 0, 63, 100
1, 38784, Note_off_c, 0, 63, 100
1, 38784, Note_on_c, 0, 65, 100
1, 38912, Note_off_c, 0, 65, 100
1, 38912, Note_on_c, 0, 67, 100
1, 39072, Note_off_c, 0, 67, 100
1, 39072, Note_on_c, 0, 65, 100
1, 39168, Note_off_c, 0, 65, 100
1, 39168, Note_on_c, 0, 63, 100
1, 39232, Note_off_c, 0, 63, 100
1, 39232, Note_on_c, 0, 61, 100
1, 39296, Note_off_c, 0, 61, 100
1, 39296, Note_on_c, 0, 59, 100
1, 39456, Note_off_c, 0, 59, 100
1, 39456, Note_on_c, 0, 65, 100
1, 39552, Note_off_c, 0, 65, 100
1, 39552, Note_on_c, 0, 63, 100
1, 39616, Note_off_c, 0, 63, 100
1, 39616, Note_on_c, 0, 61, 100
1, 39680, Note_off_c, 0, 61, 100
1, 39680, Note_on_c, 0, 59, 100
1, 39776, Note_off_c, 0, 59, 100
1, 40320, Note_on_c, 0, 67, 100
1, 40416, Note_off_c, 0, 67, 100
1, 40416, Note_on_c, 0, 63, 100
1, 40464, Note_off_c, 0, 63, 100
1, 40464, Note_on_c, 0, 65, 100
1, 40608, Note_off_c, 0, 65, 100
1, 40608, Note_on_c, 0, 67, 100
1, 40800, Note_off_c, 0, 67, 100
1, 41088, Note_on_c, 0, 67, 100
1, 41216, Note_off_c, 0, 67, 100
1, 41216, Note_on_c, 0, 63, 100
1, 41280, Note_off_c, 0, 63, 100
1, 41280, Note_on_c, 0, 65, 100
1, 41376, Note_off_c, 0, 65, 100
1, 41376, Note_on_c, 0, 67, 100
1, 41568, Note_off_c, 0, 67, 100
1, 41568, Note_on_c, 0, 67, 100
1, 41760, Note_off_c, 0, 67, 100
1, 41760, Note_on_c, 0, 67, 100
1, 41904, Note_off_c, 0, 67, 100
1, 41904, Note_on_c, 0, 63, 100
1, 41952, Note_off_c, 0, 63, 100
1, 41952, Note_on_c, 0, 61, 100
1, 42000, Note_off_c, 0, 61, 100
1, 42000, Note_on_c, 0, 59, 100
1, 42112, Note_off_c, 0, 59, 100
1, 42112, Note_on_c, 0, 65, 100
1, 42176, Note_off_c, 0, 65, 100
1, 42176, Note_on_c, 0, 63, 100
1, 42240, Note_off_c, 0, 63, 100
1, 42240, Note_on_c, 0, 61, 100
1, 42336, Note_off_c, 0, 61, 100
1, 42336, Note_on_c, 0, 59, 100
1, 42528, Note_off_c, 0, 59, 100
1, 43104, Note_on_c, 0, 54, 100
1, 43200, Note_off_c, 0, 54, 100
1, 43200, Note_on_c, 0, 55, 100
1, 43248, Note_off_c, 0, 55, 100
1, 43248, Note_on_c, 0, 57, 100
1, 43296, Note_off_c, 0, 57, 100
1, 43296, Note_on_c, 0, 60, 100
1, 43392, Note_off_c, 0, 60, 100
1, 43392, Note_on_c, 0, 58, 100
1, 43488, Note_off_c, 0, 58, 100
1, 43488, Note_on_c, 0, 60, 100
1, 43584, Note_off_c, 0, 60, 100
1, 43776, Note_on_c, 0, 69, 100
1, 43872, Note_off_c, 0, 69, 100
1, 43872, Note_on_c, 0, 67, 100
1, 43968, Note_off_c, 0, 67, 100
1, 43968, Note_on_c, 0, 65, 100
1, 44096, Note_off_c, 0, 65, 100
1, 44096, Note_on_c, 0, 62, 100
1, 44160, Note_off_c, 0, 62, 100
1, 44160, Note_on_c, 0, 64, 100
1, 44448, Note_off_c, 0, 64, 100
1, 44448, Note_on_c, 0, 72, 100
1, 44640, Note_off_c, 0, 72, 100
1, 44640, Note_on_c, 0, 69, 100
1, 44832, Note_off_c, 0, 69, 100
1, 44832, Note_on_c, 0, 70, 100
1, 44928, Note_off_c, 0, 70, 100
1, 45120, Note_on_c, 0, 69, 100
1, 45216, Note_off_c, 0, 69, 100
1, 45216, Note_on_c, 0, 67, 100
1, 45456, Note_off_c, 0, 67, 100
1, 45456, Note_on_c, 0, 67, 100
1, 45600, Note_off_c, 0, 67, 100
1, 45600, Note_on_c, 0, 67, 100
1, 45648, Note_off_c, 0, 67, 100
1, 45648, Note_on_c, 0, 66, 100
1, 45792, Note_off_c, 0, 66, 100
1, 45792, Note_on_c, 0, 65, 100
1, 45840, Note_off_c, 0, 65, 100
1, 45840, Note_on_c, 0, 64, 100
1, 45984, Note_off_c, 0, 64, 100
1, 45984, Note_on_c, 0, 61, 100
1, 46080, Note_off_c, 0, 61, 100
1, 46080, Note_on_c, 0, 60, 100
1, 46176, Note_off_c, 0, 60, 100
1, 46176, Note_on_c, 0, 58, 100
1, 46272, Note_off_c, 0, 58, 100
1, 46464, Note_on_c, 0, 57, 100
1, 46592, Note_off_c, 0, 57, 100
1, 46592, Note_on_c, 0, 50, 100
1, 46800, Note_off_c, 0, 50, 100
1, 46800, Note_on_c, 0, 55, 100
1, 46848, Note_off_c, 0, 55, 100
1, 46848, Note_on_c, 0, 50, 100
1, 47040, Note_off_c, 0, 50, 100
1, 47040, Note_on_c, 0, 53, 100
1, 47136, Note_off_c, 0, 53, 100
1, 47136, Note_on_c, 0, 50, 100
1, 47232, Note_off_c, 0, 50, 100
1, 47232, Note_on_c, 0, 51, 100
1, 47328, Note_off_c, 0, 51, 100
1, 47328, Note_on_c, 0, 53, 100
1, 47424, Note_off_c, 0, 53, 100
1, 47424, Note_on_c, 0, 55, 100
1, 47568, Note_off_c, 0, 55, 100
1, 47568, Note_on_c, 0, 61, 100
1, 47616, Note_off_c, 0, 61, 100
1, 47616, Note_on_c, 0, 62, 100
1, 47760, Note_off_c, 0, 62, 100
1, 47760, Note_on_c, 0, 65, 100
1, 47872, Note_off_c, 0, 65, 100
1, 47872, Note_on_c, 0, 62, 100
1, 47936, Note_off_c, 0, 62, 100
1, 47936, Note_on_c, 0, 63, 100
1, 48000, Note_off_c, 0, 63, 100
1, 48000, Note_on_c, 0, 65, 100
1, 48192, Note_off_c, 0, 65, 100
1, 48192, Note_on_c, 0, 67, 100
1, 48288, Note_off_c, 0, 67, 100
1, 48288, Note_on_c, 0, 69, 100
1, 48384, Note_off_c, 0, 69, 100
1, 48384, Note_on_c, 0, 74, 100
1, 48480, Note_off_c, 0, 74, 100
1, 48480, Note_on_c, 0, 73, 100
1, 48768, Note_off_c, 0, 73, 100
1, 48768, Note_on_c, 0, 71, 100
1, 48912, Note_off_c, 0, 71, 100
1, 48912, Note_on_c, 0, 68, 100
1, 49104, Note_off_c, 0, 68, 100
1, 49104, Note_on_c, 0, 71, 100
1, 49152, Note_off_c, 0, 71, 100
1, 49152, Note_on_c, 0, 72, 100
1, 49536, Note_off_c, 0, 72, 100
1, 49920, Note_on_c, 0, 72, 100
1, 50016, Note_off_c, 0, 72, 100
1, 50016, Note_on_c, 0, 70, 100
1, 50304, Note_off_c, 0, 70, 100
1, 50304, Note_on_c, 0, 68, 100
1, 50448, Note_off_c, 0, 68, 100
1, 50448, Note_on_c, 0, 65, 100
1, 50592, Note_off_c, 0, 65, 100
1, 50592, Note_on_c, 0, 70, 100
1, 50784, Note_off_c, 0, 70, 100
1, 50784, Note_on_c, 0, 71, 100
1, 50880, Note_off_c, 0, 71, 100
1, 51072, Note_on_c, 0, 68, 100
1, 51264, Note_off_c, 0, 68, 100
1, 51264, Note_on_c, 0, 65, 100
1, 51408, Note_off_c, 0, 65, 100
1, 51408, Note_on_c, 0, 65, 100
1, 51504, Note_off_c, 0, 65, 100
1, 51504, Note_on_c, 0, 70, 100
1, 51600, Note_off_c, 0, 70, 100
1, 51600, Note_on_c, 0, 68, 100
1, 51648, Note_off_c, 0, 68, 100
1, 51648, Note_on_c, 0, 65, 100
1, 51840, Note_off_c, 0, 65, 100
1, 51840, Note_on_c, 0, 67, 100
1, 51936, Note_off_c, 0, 67, 100
1, 51936, Note_on_c, 0, 64, 100
1, 52032, Note_off_c, 0, 64, 100
1, 52032, Note_on_c, 0, 65, 100
1, 52128, Note_off_c, 0, 65, 100
1, 52128, Note_on_c, 0, 67, 100
1, 52176, Note_off_c, 0, 67, 100
1, 52176, Note_on_c, 0, 65, 100
1, 52224, Note_off_c, 0, 65, 100
1, 52224, Note_on_c, 0, 63, 100
1, 52352, Note_off_c, 0, 63, 100
1, 52352, Note_on_c, 0, 60, 100
1, 52448, Note_off_c, 0, 60, 100
1, 52992, Note_on_c, 0, 60, 100
1, 53184, Note_off_c, 0, 60, 100
1, 53184, Note_on_c, 0, 67, 100
1, 53280, Note_off_c, 0, 67, 100
1, 53280, Note_on_c, 0, 64, 100
1, 53376, Note_off_c, 0, 64, 100
1, 53376, Note_on_c, 0, 65, 100
1, 53520, Note_off_c, 0, 65, 100
1, 53520, Note_on_c, 0, 63, 100
1, 53568, Note_off_c, 0, 63, 100
1, 53568, Note_on_c, 0, 60, 100
1, 53664, Note_off_c, 0, 60, 100
1, 53664, Note_on_c, 0, 58, 100
1, 53760, Note_off_c, 0, 58, 100
1, 53760, Note_on_c, 0, 62, 100
1, 53952, Note_off_c, 0, 62, 100
1, 53952, Note_on_c, 0, 63, 100
1, 54048, Note_off_c, 0, 63, 100
1, 54960, Note_on_c, 0, 62, 100
1, 55056, Note_off_c, 0, 62, 100
1, 55056, Note_on_c, 0, 65, 100
1, 55104, Note_off_c, 0, 65, 100
1, 55104, Note_on_c, 0, 63, 100
1, 55200, Note_off_c, 0, 63, 100
1, 55200, Note_on_c, 0, 60, 100
1, 55296, Note_off_c, 0, 60, 100
1, 55632, Note_on_c, 0, 62, 100
1, 55776, Note_off_c, 0, 62, 100
1, 55776, Note_on_c, 0, 65, 100
1, 55920, Note_off_c, 0, 65, 100
1, 55920, Note_on_c, 0, 63, 100
1, 55968, Note_off_c, 0, 63, 100
1, 55968, Note_on_c, 0, 60, 100
1, 56064, Note_off_c, 0, 60, 100
1, 56064, Note_on_c, 0, 62, 100
1, 56208, Note_off_c, 0, 62, 100
1, 56208, Note_on_c, 0, 65, 100
1, 56256, Note_off_c, 0, 65, 100
1, 56256, Note_on_c, 0, 63, 100
1, 56352, Note_off_c, 0, 63, 100
1, 56352, Note_on_c, 0, 60, 100
1, 56544, Note_off_c, 0, 60, 100
1, 56544, Note_on_c, 0, 62, 100
1, 56704, Note_off_c, 0, 62, 100
1, 56704, Note_on_c, 0, 65, 100
1, 56768, Note_off_c, 0, 65, 100
1, 56768, Note_on_c, 0, 63, 100
1, 56896, Note_off_c, 0, 63, 100
1, 56896, Note_on_c, 0, 60, 100
1, 56960, Note_off_c, 0, 60, 100
1, 56960, Note_on_c, 0, 62, 100
1, 57072, Note_off_c, 0, 62, 100
1, 57072, Note_on_c, 0, 65, 100
1, 57168, Note_off_c, 0, 65, 100
1, 57168, Note_on_c, 0, 63, 100
1, 57312, Note_off_c, 0, 63, 100
1, 57312, Note_on_c, 0, 60, 100
1, 57408, Note_off_c, 0, 60, 100
1, 57408, Note_on_c, 0, 62, 100
1, 57504, Note_off_c, 0, 62, 100
1, 57504, Note_on_c, 0, 68, 100
1, 57696, Note_off_c, 0, 68, 100
1, 57696, Note_on_c, 0, 71, 100
1, 57744, Note_off_c, 0, 71, 100
1, 57744, Note_on_c, 0, 69, 100
1, 57888, Note_off_c, 0, 69, 100
1, 57888, Note_on_c, 0, 66, 100
1, 57984, Note_off_c, 0, 66, 100
1, 57984, Note_on_c, 0, 68, 100
1, 58080, Note_off_c, 0, 68, 100
1, 58080, Note_on_c, 0, 71, 100
1, 58176, Note_off_c, 0, 71, 100
1, 59136, Note_on_c, 0, 66, 100
1, 59264, Note_off_c, 0, 66, 100
1, 59264, Note_on_c, 0, 70, 100
1, 59328, Note_off_c, 0, 70, 100
1, 59328, Note_on_c, 0, 68, 100
1, 59472, Note_off_c, 0, 68, 100
1, 59472, Note_on_c, 0, 66, 100
1, 59568, Note_off_c, 0, 66, 100
1, 59568, Note_on_c, 0, 69, 100
1, 59616, Note_off_c, 0, 69, 100
1, 59616, Note_on_c, 0, 70, 100
1, 59664, Note_off_c, 0, 70, 100
1, 59664, Note_on_c, 0, 68, 100
1, 59760, Note_off_c, 0, 68, 100
1, 60672, Note_on_c, 0, 69, 100
1, 60768, Note_off_c, 0, 69, 100
1, 60768, Note_on_c, 0, 68, 100
1, 60816, Note_off_c, 0, 68, 100
1, 60816, Note_on_c, 0, 67, 100
1, 60864, Note_off_c, 0, 67, 100
1, 60864, Note_on_c, 0, 65, 100
1, 60960, Note_off_c, 0, 65, 100
1, 60960, Note_on_c, 0, 62, 100
1, 61056, Note_off_c, 0, 62, 100
1, 61056, Note_on_c, 0, 68, 100
1, 61200, Note_off_c, 0, 68, 100
1, 61200, Note_on_c, 0, 66, 100
1, 61248, Note_off_c, 0, 66, 100
1, 61248, Note_on_c, 0, 64, 100
1, 61344, Note_off_c, 0, 64, 100
1, 61344, Note_on_c, 0, 61, 100
1, 61440, Note_off_c, 0, 61, 100
1, 61440, Note_on_c, 0, 67, 100
1, 61536, Note_off_c, 0, 67, 100
1, 61536, Note_on_c, 0, 65, 100
1, 61632, Note_off_c, 0, 65, 100
1, 61632, Note_on_c, 0, 63, 100
1, 61760, Note_off_c, 0, 63, 100
1, 61760, Note_on_c, 0, 60, 100
1, 61824, Note_off_c, 0, 60, 100
1, 61824, Note_on_c, 0, 66, 100
1, 61888, Note_off_c, 0, 66, 100
1, 61888, Note_on_c, 0, 64, 100
1, 61952, Note_off_c, 0, 64, 100
1, 61952, Note_on_c, 0, 64, 100
1, 62016, Note_off_c, 0, 64, 100
1, 62016, Note_on_c, 0, 62, 100
1, 62144, Note_off_c, 0, 62, 100
1, 62144, Note_on_c, 0, 59, 100
1, 62208, Note_off_c, 0, 59, 100
1, 62208, Note_on_c, 0, 65, 100
1, 62304, Note_off_c, 0, 65, 100
1, 65280, Note_on_c, 0, 45, 100
1, 65408, Note_off_c, 0, 45, 100
1, 65408, Note_on_c, 0, 53, 100
1, 65472, Note_off_c, 0, 53, 100
1, 65472, Note_on_c, 0, 56, 100
1, 65568, Note_off_c, 0, 56, 100
1, 65568, Note_on_c, 0, 57, 100
1, 65856, Note_off_c, 0, 57, 100
1, 65856, Note_on_c, 0, 45, 100
1, 65984, Note_off_c, 0, 45, 100
1, 65984, Note_on_c, 0, 48, 100
1, 66048, Note_off_c, 0, 48, 100
1, 66048, Note_on_c, 0, 53, 100
1, 66112, Note_off_c, 0, 53, 100
1, 66112, Note_on_c, 0, 55, 100
1, 66176, Note_off_c, 0, 55, 100
1, 66176, Note_on_c, 0, 57, 100
1, 66432, Note_off_c, 0, 57, 100
1, 66432, Note_on_c, 0, 45, 100
1, 66528, Note_off_c, 0, 45, 100
1, 66528, Note_on_c, 0, 50, 100
1, 66576, Note_off_c, 0, 50, 100
1, 66576, Note_on_c, 0, 53, 100
1, 66624, Note_off_c, 0, 53, 100
1, 66624, Note_on_c, 0, 56, 100
1, 66720, Note_off_c, 0, 56, 100
1, 66720, Note_on_c, 0, 57, 100
1, 66960, Note_off_c, 0, 57, 100
1, 66960, Note_on_c, 0, 45, 100
1, 67072, Note_off_c, 0, 45, 100
1, 67072, Note_on_c, 0, 50, 100
1, 67136, Note_off_c, 0, 50, 100
1, 67136, Note_on_c, 0, 53, 100
1, 67200, Note_off_c, 0, 53, 100
1, 67200, Note_on_c, 0, 55, 100
1, 67296, Note_off_c, 0, 55, 100
1, 67296, Note_on_c, 0, 57, 100
1, 67392, Note_off_c, 0, 57, 100
1, 68256, Note_on_c, 0, 57, 100
1, 68352, Note_off_c, 0, 57, 100
1, 68352, Note_on_c, 0, 58, 100
1, 68448, Note_off_c, 0, 58, 100
1, 68448, Note_on_c, 0, 60, 100
1, 68544, Note_off_c, 0, 60, 100
1, 68544, Note_on_c, 0, 61, 100
1, 68640, Note_off_c, 0, 61, 100
1, 68640, Note_on_c, 0, 63, 100
1, 68688, Note_off_c, 0, 63, 100
1, 68688, Note_on_c, 0, 64, 100
1, 68832, Note_off_c, 0, 64, 100
1, 68832, Note_on_c, 0, 68, 100
1, 68928, Note_off_c, 0, 68, 100
1, 68928, Note_on_c, 0, 66, 100
1, 69024, Note_off_c, 0, 66, 100
1, 69024, Note_on_c, 0, 64, 100
1, 69120, Note_off_c, 0, 64, 100
1, 69120, Note_on_c, 0, 63, 100
1, 69216, Note_off_c, 0, 63, 100
1, 69216, Note_on_c, 0, 61, 100
1, 69312, Note_off_c, 0, 61, 100
1, 69312, Note_on_c, 0, 60, 100
1, 69408, Note_off_c, 0, 60, 100
1, 69408, Note_on_c, 0, 58, 100
1, 69504, Note_off_c, 0, 58, 100
1, 69504, Note_on_c, 0, 55, 100
1, 69648, Note_off_c, 0, 55, 100
1, 69648, Note_on_c, 0, 57, 100
1, 69744, Note_off_c, 0, 57, 100
1, 69744, Note_on_c, 0, 48, 100
1, 69840, Note_off_c, 0, 48, 100
1, 69840, Note_on_c, 0, 50, 100
1, 69888, Note_off_c, 0, 50, 100
1, 69888, Note_on_c, 0, 52, 100
1, 70080, Note_off_c, 0, 52, 100
1, 70080, Note_on_c, 0, 55, 100
1, 70176, Note_off_c, 0, 55, 100
1, 70176, Note_on_c, 0, 52, 100
1, 70272, Note_off_c, 0, 52, 100
1, 70272, Note_on_c, 0, 54, 100
1, 70368, Note_off_c, 0, 54, 100
1, 70560, Note_on_c, 0, 63, 100
1, 70656, Note_off_c, 0, 63, 100
1, 70656, Note_on_c, 0, 62, 100
1, 70752, Note_off_c, 0, 62, 100
1, 70752, Note_on_c, 0, 60, 100
1, 70848, Note_off_c, 0, 60, 100
1, 70848, Note_on_c, 0, 58, 100
1, 70944, Note_off_c, 0, 58, 100
1, 71184, Note_on_c, 0, 55, 100
1, 71232, Note_off_c, 0, 55, 100
1, 71232, Note_on_c, 0, 57, 100
1, 71296, Note_off_c, 0, 57, 100
1, 71296, Note_on_c, 0, 55, 100
1, 71360, Note_off_c, 0, 55, 100
1, 71360, Note_on_c, 0, 53, 100
1, 71520, Note_off_c, 0, 53, 100
1, 71520, Note_on_c, 0, 50, 100
1, 71616, Note_off_c, 0, 50, 100
1, 71616, Note_on_c, 0, 52, 100
1, 71744, Note_off_c, 0, 52, 100
1, 71744, Note_on_c, 0, 55, 100
1, 71808, Note_off_c, 0, 55, 100
1, 71808, Note_on_c, 0, 58, 100
1, 71856, Note_off_c, 0, 58, 100
1, 71856, Note_on_c, 0, 61, 100
1, 71952, Note_off_c, 0, 61, 100
1, 71952, Note_on_c, 0, 60, 100
1, 72096, Note_off_c, 0, 60, 100
1, 72096, Note_on_c, 0, 58, 100
1, 72192, Note_off_c, 0, 58, 100
1, 72192, Note_on_c, 0, 55, 100
1, 72336, Note_off_c, 0, 55, 100
1, 72336, Note_on_c, 0, 57, 100
1, 72432, Note_off_c, 0, 57, 100
1, 72672, Note_on_c, 0, 55, 100
1, 72768, Note_off_c, 0, 55, 100
1, 72768, Note_on_c, 0, 54, 100
1, 72864, Note_off_c, 0, 54, 100
1, 72864, Note_on_c, 0, 57, 100
1, 72960, Note_off_c, 0, 57, 100
1, 72960, Note_on_c, 0, 60, 100
1, 73056, Note_off_c, 0, 60, 100
1, 73056, Note_on_c, 0, 62, 100
1, 73152, Note_off_c, 0, 62, 100
1, 73152, Note_on_c, 0, 63, 100
1, 73248, Note_off_c, 0, 63, 100
1, 73248, Note_on_c, 0, 65, 100
1, 73440, Note_off_c, 0, 65, 100
1, 73440, Note_on_c, 0, 65, 100
1, 73632, Note_off_c, 0, 65, 100
1, 73632, Note_on_c, 0, 65, 100
1, 73824, Note_off_c, 0, 65, 100
1, 73824, Note_on_c, 0, 65, 100
1, 74016, Note_off_c, 0, 65, 100
1, 74016, Note_on_c, 0, 65, 100
1, 74208, Note_off_c, 0, 65, 100
1, 74208, Note_on_c, 0, 65, 100
1, 74400, Note_off_c, 0, 65, 100
1, 74400, Note_on_c, 0, 65, 100
1, 74496, Note_off_c, 0, 65, 100
1, 74496, Note_on_c, 0, 63, 100
1, 74624, Note_off_c, 0, 63, 100
1, 74624, Note_on_c, 0, 60, 100
1, 74688, Note_off_c, 0, 60, 100
1, 74688, Note_on_c, 0, 63, 100
1, 74784, Note_off_c, 0, 63, 100
1, 74784, Note_on_c, 0, 65, 100
1, 74976, Note_off_c, 0, 65, 100
1, 74976, Note_on_c, 0, 65, 100
1, 75168, Note_off_c, 0, 65, 100
1, 75168, Note_on_c, 0, 65, 100
1, 75360, Note_off_c, 0, 65, 100
1, 75360, Note_on_c, 0, 65, 100
1, 75600, Note_off_c, 0, 65, 100
1, 75600, Note_on_c, 0, 65, 100
1, 75744, Note_off_c, 0, 65, 100
1, 75744, Note_on_c, 0, 65, 100
1, 75840, Note_off_c, 0, 65, 100
1, 75840, Note_on_c, 0, 70, 100
1, 75936, Note_off_c, 0, 70, 100
1, 75936, Note_on_c, 0, 68, 100
1, 76032, Note_off_c, 0, 68, 100
1, 76032, Note_on_c, 0, 66, 100
1, 76128, Note_off_c, 0, 66, 100
1, 76128, Note_on_c, 0, 63, 100
1, 76224, Note_off_c, 0, 63, 100
1, 76224, Note_on_c, 0, 66, 100
1, 76416, Note_off_c, 0, 66, 100
1, 77424, Note_on_c, 0, 71, 100
1, 77472, Note_off_c, 0, 71, 100
1, 77472, Note_on_c, 0, 72, 100
1, 78144, Note_off_c, 0, 72, 100
1, 78480, Note_on_c, 0, 72, 100
1, 78592, Note_off_c, 0, 72, 100
1, 78592, Note_on_c, 0, 73, 100
1, 78656, Note_off_c, 0, 73, 100
1, 78656, Note_on_c, 0, 74, 100
1, 78864, Note_off_c, 0, 74, 100
1, 78864, Note_on_c, 0, 75, 100
1, 79056, Note_off_c, 0, 75, 100
1, 80064, Note_on_c, 0, 72, 100
1, 80160, Note_off_c, 0, 72, 100
1, 80160, Note_on_c, 0, 72, 100
1, 80256, Note_off_c, 0, 72, 100
1, 81312, Note_on_c, 0, 60, 100
1, 81552, Note_off_c, 0, 60, 100
1, 81552, Note_on_c, 0, 67, 100
1, 81600, Note_off_c, 0, 67, 100
1, 81600, Note_on_c, 0, 70, 100
1, 81696, Note_off_c, 0, 70, 100
1, 81696, Note_on_c, 0, 71, 100
1, 81744, Note_off_c, 0, 71, 100
1, 81744, Note_on_c, 0, 70, 100
1, 81840, Note_off_c, 0, 70, 100
1, 81840, Note_on_c, 0, 68, 100
1, 81936, Note_off_c, 0, 68, 100
1, 81936, Note_on_c, 0, 66, 100
1, 82048, Note_off_c, 0, 66, 100
1, 82048, Note_on_c, 0, 65, 100
1, 82112, Note_off_c, 0, 65, 100
1, 82112, Note_on_c, 0, 63, 100
1, 82224, Note_off_c, 0, 63, 100
1, 82224, Note_on_c, 0, 61, 100
1, 82320, Note_off_c, 0, 61, 100
1, 82320, Note_on_c, 0, 60, 100
1, 82368, Note_off_c, 0, 60, 100
1, 82368, Note_on_c, 0, 59, 100
1, 82464, Note_off_c, 0, 59, 100
1, 82464, Note_on_c, 0, 58, 100
1, 82560, Note_off_c, 0, 58, 100
1, 82560, Note_on_c, 0, 56, 100
1, 82656, Note_off_c, 0, 56, 100
1, 82656, Note_on_c, 0, 54, 100
1, 82752, Note_off_c, 0, 54, 100
1, 82752, Note_on_c, 0, 53, 100
1, 82848, Note_off_c, 0, 53, 100
1, 82848, Note_on_c, 0, 51, 100
1, 82944, Note_off_c, 0, 51, 100
1, 82944, Note_on_c, 0, 49, 100
1, 83040, Note_off_c, 0, 49, 100
1, 83040, Note_on_c, 0, 48, 100
1, 83136, Note_off_c, 0, 48, 100
1, 83136, Note_on_c, 0, 47, 100
1, 83232, Note_off_c, 0, 47, 100
1, 83520, Note_on_c, 0, 55, 100
1, 83568, Note_off_c, 0, 55, 100
1, 83568, Note_on_c, 0, 58, 100
1, 83664, Note_off_c, 0, 58, 100
1, 83664, Note_on_c, 0, 55, 100
1, 83760, Note_off_c, 0, 55, 100
1, 83760, Note_on_c, 0, 56, 100
1, 83856, Note_off_c, 0, 56, 100
1, 83856, Note_on_c, 0, 58, 100
1, 83968, Note_off_c, 0, 58, 100
1, 83968, Note_on_c, 0, 59, 100
1, 84032, Note_off_c, 0, 59, 100
1, 84032, Note_on_c, 0, 61, 100
1, 84096, Note_off_c, 0, 61, 100
1, 84096, Note_on_c, 0, 62, 100
1, 84192, Note_off_c, 0, 62, 100
1, 84192, Note_on_c, 0, 65, 100
1, 84288, Note_off_c, 0, 65, 100
1, 84288, Note_on_c, 0, 62, 100
1, 84432, Note_off_c, 0, 62, 100
1, 84432, Note_on_c, 0, 64, 100
1, 84544, Note_off_c, 0, 64, 100
1, 84544, Note_on_c, 0, 66, 100
1, 84608, Note_off_c, 0, 66, 100
1, 84608, Note_on_c, 0, 68, 100
1, 84672, Note_off_c, 0, 68, 100
1, 84672, Note_on_c, 0, 61, 100
1, 84800, Note_off_c, 0, 61, 100
1, 84800, Note_on_c, 0, 63, 100
1, 84864, Note_off_c, 0, 63, 100
1, 84864, Note_on_c, 0, 64, 100
1, 84960, Note_off_c, 0, 64, 100
1, 84960, Note_on_c, 0, 66, 100
1, 85104, Note_off_c, 0, 66, 100
1, 85104, Note_on_c, 0, 59, 100
1, 85152, Note_off_c, 0, 59, 100
1, 85152, Note_on_c, 0, 60, 100
1, 85248, Note_off_c, 0, 60, 100
1, 85248, Note_on_c, 0, 64, 100
1, 85344, Note_off_c, 0, 64, 100
1, 85344, Note_on_c, 0, 67, 100
1, 85392, Note_off_c, 0, 67, 100
1, 85392, Note_on_c, 0, 64, 100
1, 85536, Note_off_c, 0, 64, 100
1, 85536, Note_on_c, 0, 66, 100
1, 85632, Note_off_c, 0, 66, 100
1, 86592, Note_on_c, 0, 60, 100
1, 86736, Note_off_c, 0, 60, 100
1, 86736, Note_on_c, 0, 66, 100
1, 86880, Note_off_c, 0, 66, 100
1, 86880, Note_on_c, 0, 63, 100
1, 86976, Note_off_c, 0, 63, 100
1, 86976, Note_on_c, 0, 65, 100
1, 87072, Note_off_c, 0, 65, 100
1, 87072, Note_on_c, 0, 63, 100
1, 87168, Note_off_c, 0, 63, 100
1, 87168, Note_on_c, 0, 61, 100
1, 87312, Note_off_c, 0, 61, 100
1, 87312, Note_on_c, 0, 58, 100
1, 87360, Note_off_c, 0, 58, 100
1, 87360, Note_on_c, 0, 63, 100
1, 87456, Note_off_c, 0, 63, 100
1, 87456, Note_on_c, 0, 61, 100
1, 87552, Note_off_c, 0, 61, 100
1, 88992, Note_on_c, 0, 61, 100
1, 89040, Note_off_c, 0, 61, 100
1, 89040, Note_on_c, 0, 62, 100
1, 89232, Note_off_c, 0, 62, 100
1, 89232, Note_on_c, 0, 72, 100
1, 89328, Note_off_c, 0, 72, 100
1, 89328, Note_on_c, 0, 69, 100
1, 89376, Note_off_c, 0, 69, 100
1, 89376, Note_on_c, 0, 65, 100
1, 89424, Note_off_c, 0, 65, 100
1, 89424, Note_on_c, 0, 62, 100
1, 89520, Note_off_c, 0, 62, 100
1, 89520, Note_on_c, 0, 63, 100
1, 89616, Note_off_c, 0, 63, 100
1, 89616, Note_on_c, 0, 62, 100
1, 89664, Note_off_c, 0, 62, 100
1, 89664, Note_on_c, 0, 72, 100
1, 89760, Note_off_c, 0, 72, 100
1, 89760, Note_on_c, 0, 69, 100
1, 89808, Note_off_c, 0, 69, 100
1, 89808, Note_on_c, 0, 65, 100
1, 89856, Note_off_c, 0, 65, 100
1, 89856, Note_on_c, 0, 62, 100
1, 89952, Note_off_c, 0, 62, 100
1, 89952, Note_on_c, 0, 63, 100
1, 90000, Note_off_c, 0, 63, 100
1, 90000, Note_on_c, 0, 62, 100
1, 90048, Note_off_c, 0, 62, 100
1, 90048, Note_on_c, 0, 72, 100
1, 90096, Note_off_c, 0, 72, 100
1, 90096, Note_on_c, 0, 69, 100
1, 90144, Note_off_c, 0, 69, 100
1, 90144, Note_on_c, 0, 65, 100
1, 90192, Note_off_c, 0, 65, 100
1, 90192, Note_on_c, 0, 62, 100
1, 90240, Note_off_c, 0, 62, 100
1, 90240, Note_on_c, 0, 63, 100
1, 90304, Note_off_c, 0, 63, 100
1, 90304, Note_on_c, 0, 62, 100
1, 90368, Note_off_c, 0, 62, 100
1, 90368, Note_on_c, 0, 72, 100
1, 90432, Note_off_c, 0, 72, 100
1, 90432, Note_on_c, 0, 69, 100
1, 90480, Note_off_c, 0, 69, 100
1, 90480, Note_on_c, 0, 65, 100
1, 90528, Note_off_c, 0, 65, 100
1, 90528, Note_on_c, 0, 62, 100
1, 90624, Note_off_c, 0, 62, 100
1, 90624, Note_on_c, 0, 63, 100
1, 90688, Note_off_c, 0, 63, 100
1, 90688, Note_on_c, 0, 62, 100
1, 90752, Note_off_c, 0, 62, 100
1, 90752, Note_on_c, 0, 63, 100
1, 90816, Note_off_c, 0, 63, 100
1, 90816, Note_on_c, 0, 62, 100
1, 90864, Note_off_c, 0, 62, 100
1, 90864, Note_on_c, 0, 63, 100
1, 90912, Note_off_c, 0, 63, 100
1, 90912, Note_on_c, 0, 72, 100
1, 91008, Note_off_c, 0, 72, 100
1, 91008, Note_on_c, 0, 69, 100
1, 91072, Note_off_c, 0, 69, 100
1, 91072, Note_on_c, 0, 65, 100
1, 91136, Note_off_c, 0, 65, 100
1, 91136, Note_on_c, 0, 62, 100
1, 91200, Note_off_c, 0, 62, 100
1, 91200, Note_on_c, 0, 63, 100
1, 91248, Note_off_c, 0, 63, 100
1, 91248, Note_on_c, 0, 62, 100
1, 91344, Note_off_c, 0, 62, 100
1, 91344, Note_on_c, 0, 72, 100
1, 91392, Note_off_c, 0, 72, 100
1, 91392, Note_on_c, 0, 69, 100
1, 91440, Note_off_c, 0, 69, 100
1, 91440, Note_on_c, 0, 65, 100
1, 91488, Note_off_c, 0, 65, 100
1, 91488, Note_on_c, 0, 62, 100
1, 91536, Note_off_c, 0, 62, 100
1, 91536, Note_on_c, 0, 65, 100
1, 91584, Note_off_c, 0, 65, 100
1, 91584, Note_on_c, 0, 72, 100
1, 91632, Note_off_c, 0, 72, 100
1, 91632, Note_on_c, 0, 69, 100
1, 91728, Note_off_c, 0, 69, 100
1, 91728, Note_on_c, 0, 65, 100
1, 91776, Note_off_c, 0, 65, 100
1, 91776, Note_on_c, 0, 62, 100
1, 91824, Note_off_c, 0, 62, 100
1, 91824, Note_on_c, 0, 65, 100
1, 91872, Note_off_c, 0, 65, 100
1, 91872, Note_on_c, 0, 72, 100
1, 91920, Note_off_c, 0, 72, 100
1, 91920, Note_on_c, 0, 69, 100
1, 91968, Note_off_c, 0, 69, 100
1, 91968, Note_on_c, 0, 65, 100
1, 92016, Note_off_c, 0, 65, 100
1, 92016, Note_on_c, 0, 62, 100
1, 92064, Note_off_c, 0, 62, 100
1, 92064, Note_on_c, 0, 63, 100
1, 92112, Note_off_c, 0, 63, 100
1, 92112, Note_on_c, 0, 62, 100
1, 92208, Note_off_c, 0, 62, 100
1, 92208, Note_on_c, 0, 72, 100
1, 92304, Note_off_c, 0, 72, 100
1, 92304, Note_on_c, 0, 69, 100
1, 92352, Note_off_c, 0, 69, 100
1, 92352, Note_on_c, 0, 65, 100
1, 92416, Note_off_c, 0, 65, 100
1, 92416, Note_on_c, 0, 62, 100
1, 92480, Note_off_c, 0, 62, 100
1, 92480, Note_on_c, 0, 63, 100
1, 92544, Note_off_c, 0, 63, 100
1, 92544, Note_on_c, 0, 62, 100
1, 92608, Note_off_c, 0, 62, 100
1, 92608, Note_on_c, 0, 72, 100
1, 92672, Note_off_c, 0, 72, 100
1, 92672, Note_on_c, 0, 69, 100
1, 92736, Note_off_c, 0, 69, 100
1, 92736, Note_on_c, 0, 65, 100
1, 92774, Note_off_c, 0, 65, 100
1, 92774, Note_on_c, 0, 62, 100
1, 92812, Note_off_c, 0, 62, 100
1, 92812, Note_on_c, 0, 63, 100
1, 92888, Note_off_c, 0, 63, 100
1, 92888, Note_on_c, 0, 62, 100
1, 92926, Note_off_c, 0, 62, 100
1, 92926, Note_on_c, 0, 63, 100
1, 92974, Note_off_c, 0, 63, 100
1, 92974, Note_on_c, 0, 62, 100
1, 93070, Note_off_c, 0, 62, 100
1, 93070, Note_on_c, 0, 63, 100
1, 93118, Note_off_c, 0, 63, 100
1, 93118, Note_on_c, 0, 62, 100
1, 93214, Note_off_c, 0, 62, 100
1, 93214, Note_on_c, 0, 72, 100
1, 93310, Note_off_c, 0, 72, 100
1, 93310, Note_on_c, 0, 69, 100
1, 93374, Note_off_c, 0, 69, 100
1, 93374, Note_on_c, 0, 65, 100
1, 93438, Note_off_c, 0, 65, 100
1, 93438, Note_on_c, 0, 62, 100
1, 93502, Note_off_c, 0, 62, 100
1, 93502, Note_on_c, 0, 63, 100
1, 93566, Note_off_c, 0, 63, 100
1, 93566, Note_on_c, 0, 72, 100
1, 93630, Note_off_c, 0, 72, 100
1, 93630, Note_on_c, 0, 69, 100
1, 93694, Note_off_c, 0, 69, 100
1, 93694, Note_on_c, 0, 65, 100
1, 93742, Note_off_c, 0, 65, 100
1, 93742, Note_on_c, 0, 62, 100
1, 93790, Note_off_c, 0, 62, 100
1, 93790, Note_on_c, 0, 63, 100
1, 93886, Note_off_c, 0, 63, 100
1, 93886, Note_on_c, 0, 72, 100
1, 93934, Note_off_c, 0, 72, 100
1, 93934, Note_on_c, 0, 69, 100
1, 93982, Note_off_c, 0, 69, 100
1, 93982, Note_on_c, 0, 65, 100
1, 94030, Note_off_c, 0, 65, 100
1, 94030, Note_on_c, 0, 62, 100
1, 94078, Note_off_c, 0, 62, 100
1, 94078, Note_on_c, 0, 63, 100
1, 94142, Note_off_c, 0, 63, 100
1, 94142, Note_on_c, 0, 72, 100
1, 94206, Note_off_c, 0, 72, 100
1, 94206, Note_on_c, 0, 69, 100
1, 94270, Note_off_c, 0, 69, 100
1, 94270, Note_on_c, 0, 65, 100
1, 94318, Note_off_c, 0, 65, 100
1, 94318, Note_on_c, 0, 62, 100
1, 94366, Note_off_c, 0, 62, 100
1, 94366, Note_on_c, 0, 65, 100
1, 94414, Note_off_c, 0, 65, 100
1, 94414, Note_on_c, 0, 72, 100
1, 94462, Note_off_c, 0, 72, 100
1, 94462, Note_on_c, 0, 69, 100
1, 94510, Note_off_c, 0, 69, 100
1, 94510, Note_on_c, 0, 65, 100
1, 94558, Note_off_c, 0, 65, 100
1, 94558, Note_on_c, 0, 62, 100
1, 94606, Note_off_c, 0, 62, 100
1, 94606, Note_on_c, 0, 63, 100
1, 94702, Note_off_c, 0, 63, 100
1, 94702, Note_on_c, 0, 72, 100
1, 94750, Note_off_c, 0, 72, 100
1, 94750, Note_on_c, 0, 69, 100
1, 94798, Note_off_c, 0, 69, 100
1, 94798, Note_on_c, 0, 65, 100
1, 94846, Note_off_c, 0, 65, 100
1, 94846, Note_on_c, 0, 61, 100
1, 94942, Note_off_c, 0, 61, 100
1, 94942, Note_on_c, 0, 62, 100
1, 94990, Note_off_c, 0, 62, 100
1, 94990, Note_on_c, 0, 61, 100
1, 95102, Note_off_c, 0, 61, 100
1, 95102, Note_on_c, 0, 64, 100
1, 95166, Note_off_c, 0, 64, 100
1, 95166, Note_on_c, 0, 72, 100
1, 95230, Note_off_c, 0, 72, 100
1, 95230, Note_on_c, 0, 68, 100
1, 95278, Note_off_c, 0, 68, 100
1, 95278, Note_on_c, 0, 64, 100
1, 95326, Note_off_c, 0, 64, 100
1, 95326, Note_on_c, 0, 62, 100
1, 95374, Note_off_c, 0, 62, 100
1, 95374, Note_on_c, 0, 63, 100
1, 95422, Note_off_c, 0, 63, 100
1, 95422, Note_on_c, 0, 62, 100
1, 95486, Note_off_c, 0, 62, 100
1, 95486, Note_on_c, 0, 72, 100
1, 95550, Note_off_c, 0, 72, 100
1, 95550, Note_on_c, 0, 68, 100
1, 95614, Note_off_c, 0, 68, 100
1, 95614, Note_on_c, 0, 65, 100
1, 95710, Note_off_c, 0, 65, 100
1, 95710, Note_on_c, 0, 60, 100
1, 95758, Note_off_c, 0, 60, 100
1, 95758, Note_on_c, 0, 61, 100
1, 95806, Note_off_c, 0, 61, 100
1, 95806, Note_on_c, 0, 60, 100
1, 95870, Note_off_c, 0, 60, 100
1, 95870, Note_on_c, 0, 61, 100
1, 95934, Note_off_c, 0, 61, 100
1, 95934, Note_on_c, 0, 60, 100
1, 95998, Note_off_c, 0, 60, 100
1, 95998, Note_on_c, 0, 61, 100
1, 96046, Note_off_c, 0, 61, 100
1, 96046, Note_on_c, 0, 60, 100
1, 96094, Note_off_c, 0, 60, 100
1, 96094, Note_on_c, 0, 61, 100
1, 96142, Note_off_c, 0, 61, 100
1, 96142, Note_on_c, 0, 60, 100
1, 96286, Note_off_c, 0, 60, 100
1, 96286, Note_on_c, 0, 61, 100
1, 96382, Note_off_c, 0, 61, 100
1, 96382, Note_on_c, 0, 60, 100
1, 96430, Note_off_c, 0, 60, 100
1, 96430, Note_on_c, 0, 58, 100
1, 96478, Note_off_c, 0, 58, 100
1, 96478, Note_on_c, 0, 55, 100
1, 96526, Note_off_c, 0, 55, 100
1, 96526, Note_on_c, 0, 64, 100
1, 96574, Note_off_c, 0, 64, 100
1, 96574, Note_on_c, 0, 65, 100
1, 96766, Note_off_c, 0, 65, 100
1, 96766, Note_on_c, 0, 62, 100
1, 96830, Note_off_c, 0, 62, 100
1, 96830, Note_on_c, 0, 64, 100
1, 96894, Note_off_c, 0, 64, 100
1, 96894, Note_on_c, 0, 65, 100
1, 97054, Note_off_c, 0, 65, 100
1, 97054, Note_on_c, 0, 62, 100
1, 97150, Note_off_c, 0, 62, 100
1, 97150, Note_on_c, 0, 64, 100
1, 97246, Note_off_c, 0, 64, 100
1, 97246, Note_on_c, 0, 65, 100
1, 97438, Note_off_c, 0, 65, 100
1, 97982, Note_on_c, 0, 55, 100
1, 98046, Note_off_c, 0, 55, 100
1, 98046, Note_on_c, 0, 57, 100
1, 98110, Note_off_c, 0, 57, 100
1, 98110, Note_on_c, 0, 64, 100
1, 98302, Note_off_c, 0, 64, 100
1, 98302, Note_on_c, 0, 65, 100
1, 98494, Note_off_c, 0, 65, 100
1, 98494, Note_on_c, 0, 63, 100
1, 98638, Note_off_c, 0, 63, 100
1, 98638, Note_on_c, 0, 65, 100
1, 98782, Note_off_c, 0, 65, 100
1, 98782, Note_on_c, 0, 64, 100
1, 98974, Note_off_c, 0, 64, 100
1, 98974, Note_on_c, 0, 65, 100
1, 99134, Note_off_c, 0, 65, 100
1, 99134, Note_on_c, 0, 56, 100
1, 99198, Note_off_c, 0, 56, 100
1, 99198, Note_on_c, 0, 59, 100
1, 99262, Note_off_c, 0, 59, 100
1, 99262, Note_on_c, 0, 63, 100
1, 99406, Note_off_c, 0, 63, 100
1, 99406, Note_on_c, 0, 65, 100
1, 99550, Note_off_c, 0, 65, 100
1, 99550, Note_on_c, 0, 61, 100
1, 99598, Note_off_c, 0, 61, 100
1, 99598, Note_on_c, 0, 64, 100
1, 99742, Note_off_c, 0, 64, 100
1, 99742, Note_on_c, 0, 65, 100
1, 99934, Note_off_c, 0, 65, 100
1, 99934, Note_on_c, 0, 63, 100
1, 100030, Note_off_c, 0, 63, 100
1, 100030, Note_on_c, 0, 65, 100
1, 100126, Note_off_c, 0, 65, 100
1, 100318, Note_on_c, 0, 64, 100
1, 100510, Note_off_c, 0, 64, 100
1, 100510, Note_on_c, 0, 65, 100
1, 100798, Note_off_c, 0, 65, 100
1, 100798, Note_on_c, 0, 63, 100
1, 100990, Note_off_c, 0, 63, 100
1, 100990, Note_on_c, 0, 65, 100
1, 101182, Note_off_c, 0, 65, 100
1, 101182, Note_on_c, 0, 68, 100
1, 101326, Note_off_c, 0, 68, 100
1, 101326, Note_on_c, 0, 69, 100
1, 101470, Note_off_c, 0, 69, 100
1, 101470, Note_on_c, 0, 65, 100
1, 101630, Note_off_c, 0, 65, 100
1, 101630, Note_on_c, 0, 60, 100
1, 101694, Note_off_c, 0, 60, 100
1, 101694, Note_on_c, 0, 63, 100
1, 101854, Note_off_c, 0, 63, 100
1, 101854, Note_on_c, 0, 65, 100
1, 101950, Note_off_c, 0, 65, 100
1, 102334, Note_on_c, 0, 67, 100
1, 102462, Note_off_c, 0, 67, 100
1, 102462, Note_on_c, 0, 68, 100
1, 102526, Note_off_c, 0, 68, 100
1, 102526, Note_on_c, 0, 65, 100
1, 102622, Note_off_c, 0, 65, 100
1, 102622, Note_on_c, 0, 60, 100
1, 102718, Note_off_c, 0, 60, 100
1, 102718, Note_on_c, 0, 63, 100
1, 102846, Note_off_c, 0, 63, 100
1, 102846, Note_on_c, 0, 65, 100
1, 103006, Note_off_c, 0, 65, 100
1, 103006, Note_on_c, 0, 67, 100
1, 103198, Note_off_c, 0, 67, 100
1, 103198, Note_on_c, 0, 68, 100
1, 103294, Note_off_c, 0, 68, 100
1, 103294, Note_on_c, 0, 65, 100
1, 103390, Note_off_c, 0, 65, 100
1, 103390, Note_on_c, 0, 61, 100
1, 103486, Note_off_c, 0, 61, 100
1, 103486, Note_on_c, 0, 63, 100
1, 103534, Note_off_c, 0, 63, 100
1, 103534, Note_on_c, 0, 65, 100
1, 103630, Note_off_c, 0, 65, 100
1, 103630, Note_on_c, 0, 68, 100
1, 103742, Note_off_c, 0, 68, 100
1, 103742, Note_on_c, 0, 69, 100
1, 103806, Note_off_c, 0, 69, 100
1, 103806, Note_on_c, 0, 69, 100
1, 103870, Note_off_c, 0, 69, 100
1, 103870, Note_on_c, 0, 66, 100
1, 103966, Note_off_c, 0, 66, 100
1, 103966, Note_on_c, 0, 61, 100
1, 104062, Note_off_c, 0, 61, 100
1, 104878, Note_on_c, 0, 64, 100
1, 104974, Note_off_c, 0, 64, 100
1, 104974, Note_on_c, 0, 67, 100
1, 105118, Note_off_c, 0, 67, 100
1, 105118, Note_on_c, 0, 68, 100
1, 105214, Note_off_c, 0, 68, 100
1, 105214, Note_on_c, 0, 65, 100
1, 105310, Note_off_c, 0, 65, 100
1, 105310, Note_on_c, 0, 61, 100
1, 105406, Note_off_c, 0, 61, 100
1, 105406, Note_on_c, 0, 65, 100
1, 105454, Note_off_c, 0, 65, 100
1, 105454, Note_on_c, 0, 66, 100
1, 105550, Note_off_c, 0, 66, 100
1, 105550, Note_on_c, 0, 67, 100
1, 105598, Note_off_c, 0, 67, 100
1, 105598, Note_on_c, 0, 64, 100
1, 105694, Note_off_c, 0, 64, 100
1, 105694, Note_on_c, 0, 63, 100
1, 105790, Note_off_c, 0, 63, 100
1, 105790, Note_on_c, 0, 64, 100
1, 105918, Note_off_c, 0, 64, 100
1, 105918, Note_on_c, 0, 67, 100
1, 105982, Note_off_c, 0, 67, 100
1, 105982, Note_on_c, 0, 62, 100
1, 106078, Note_off_c, 0, 62, 100
1, 106078, Note_on_c, 0, 59, 100
1, 106174, Note_off_c, 0, 59, 100
1, 106174, Note_on_c, 0, 63, 100
1, 106270, Note_off_c, 0, 63, 100
1, 106270, Note_on_c, 0, 64, 100
1, 106366, Note_off_c, 0, 64, 100
1, 106366, Note_on_c, 0, 61, 100
1, 106558, Note_off_c, 0, 61, 100
1, 106558, Note_on_c, 0, 61, 100
1, 106654, Note_off_c, 0, 61, 100
1, 106654, Note_on_c, 0, 62, 100
1, 106750, Note_off_c, 0, 62, 100
1, 106750, Note_on_c, 0, 59, 100
1, 106942, Note_off_c, 0, 59, 100
1, 106942, Note_on_c, 0, 59, 100
1, 107038, Note_off_c, 0, 59, 100
1, 107038, Note_on_c, 0, 60, 100
1, 107134, Note_off_c, 0, 60, 100
1, 107134, Note_on_c, 0, 57, 100
1, 107278, Note_off_c, 0, 57, 100
1, 107278, Note_on_c, 0, 57, 100
1, 107422, Note_off_c, 0, 57, 100
1, 107422, Note_on_c, 0, 58, 100
1, 107518, Note_off_c, 0, 58, 100
1, 107518, Note_on_c, 0, 55, 100
1, 107614, Note_off_c, 0, 55, 100
1, 107614, Note_on_c, 0, 51, 100
1, 107710, Note_off_c, 0, 51, 100
1, 107710, Note_on_c, 0, 55, 100
1, 107806, Note_off_c, 0, 55, 100
1, 107806, Note_on_c, 0, 57, 100
1, 107902, Note_off_c, 0, 57, 100
1, 107902, Note_on_c, 0, 53, 100
1, 107966, Note_off_c, 0, 53, 100
1, 107966, Note_on_c, 0, 50, 100
1, 108094, Note_off_c, 0, 50, 100
1, 108094, Note_on_c, 0, 54, 100
1, 108190, Note_off_c, 0, 54, 100
1, 108190, Note_on_c, 0, 55, 100
1, 108286, Note_off_c, 0, 55, 100
1, 108286, Note_on_c, 0, 52, 100
1, 108382, Note_off_c, 0, 52, 100
1, 108382, Note_on_c, 0, 49, 100
1, 108430, Note_off_c, 0, 49, 100
1, 108430, Note_on_c, 0, 48, 100
1, 108526, Note_off_c, 0, 48, 100
1, 108958, Note_on_c, 0, 48, 100
1, 109150, Note_off_c, 0, 48, 100
1, 109150, Note_on_c, 0, 55, 100
1, 109246, Note_off_c, 0, 55, 100
1, 109246, Note_on_c, 0, 53, 100
1, 109342, Note_off_c, 0, 53, 100
1, 109342, Note_on_c, 0, 52, 100
1, 109438, Note_off_c, 0, 52, 100
1, 109438, Note_on_c, 0, 53, 100
1, 109534, Note_off_c, 0, 53, 100
1, 109534, Note_on_c, 0, 55, 100
1, 109630, Note_off_c, 0, 55, 100
1, 109630, Note_on_c, 0, 57, 100
1, 109726, Note_off_c, 0, 57, 100
1, 109726, Note_on_c, 0, 58, 100
1, 109822, Note_off_c, 0, 58, 100
1, 109822, Note_on_c, 0, 60, 100
1, 109918, Note_off_c, 0, 60, 100
1, 109918, Note_on_c, 0, 62, 100
1, 110014, Note_off_c, 0, 62, 100
1, 110014, Note_on_c, 0, 63, 100
1, 110110, Note_off_c, 0, 63, 100
1, 110110, Note_on_c, 0, 65, 100
1, 110206, Note_off_c, 0, 65, 100
1, 110206, Note_on_c, 0, 67, 100
1, 110302, Note_off_c, 0, 67, 100
1, 110302, Note_on_c, 0, 63, 100
1, 110398, Note_off_c, 0, 63, 100
1, 110398, Note_on_c, 0, 65, 100
1, 110494, Note_off_c, 0, 65, 100
1, 110494, Note_on_c, 0, 67, 100
1, 110590, Note_off_c, 0, 67, 100
1, 110590, Note_on_c, 0, 69, 100
1, 110686, Note_off_c, 0, 69, 100
1, 110686, Note_on_c, 0, 65, 100
1, 110782, Note_off_c, 0, 65, 100
1, 110782, Note_on_c, 0, 67, 100
1, 110878, Note_off_c, 0, 67, 100
1, 110878, Note_on_c, 0, 65, 100
1, 110926, Note_off_c, 0, 65, 100
1, 110926, Note_on_c, 0, 63, 100
1, 110974, Note_off_c, 0, 63, 100
1, 110974, Note_on_c, 0, 60, 100
1, 111070, Note_off_c, 0, 60, 100
1, 111070, Note_on_c, 0, 65, 100
1, 111166, Note_off_c, 0, 65, 100
1, 111166, Note_on_c, 0, 63, 100
1, 111262, Note_off_c, 0, 63, 100
1, 111262, Note_on_c, 0, 60, 100
1, 111358, Note_off_c, 0, 60, 100
1, 111358, Note_on_c, 0, 58, 100
1, 111454, Note_off_c, 0, 58, 100
1, 111454, Note_on_c, 0, 56, 100
1, 111550, Note_off_c, 0, 56, 100
1, 111550, Note_on_c, 0, 62, 100
1, 111646, Note_off_c, 0, 62, 100
1, 111646, Note_on_c, 0, 61, 100
1, 111742, Note_off_c, 0, 61, 100
1, 111742, Note_on_c, 0, 60, 100
1, 111838, Note_off_c, 0, 60, 100
1, 111838, Note_on_c, 0, 59, 100
1, 111934, Note_off_c, 0, 59, 100
1, 111934, Note_on_c, 0, 58, 100
1, 112030, Note_off_c, 0, 58, 100
1, 112030, Note_on_c, 0, 60, 100
1, 112126, Note_off_c, 0, 60, 100
1, 112126, Note_on_c, 0, 62, 100
1, 112174, Note_off_c, 0, 62, 100
1, 112174, Note_on_c, 0, 65, 100
1, 112270, Note_off_c, 0, 65, 100
1, 112270, Note_on_c, 0, 69, 100
1, 112366, Note_off_c, 0, 69, 100
1, 112366, Note_on_c, 0, 73, 100
1, 112462, Note_off_c, 0, 73, 100
1, 112462, Note_on_c, 0, 71, 100
1, 112606, Note_off_c, 0, 71, 100
1, 112606, Note_on_c, 0, 69, 100
1, 112702, Note_off_c, 0, 69, 100
1, 112702, Note_on_c, 0, 68, 100
1, 112798, Note_off_c, 0, 68, 100
1, 112798, Note_on_c, 0, 66, 100
1, 112894, Note_off_c, 0, 66, 100
1, 112894, Note_on_c, 0, 64, 100
1, 113022, Note_off_c, 0, 64, 100
1, 113022, Note_on_c, 0, 61, 100
1, 113086, Note_off_c, 0, 61, 100
1, 113086, Note_on_c, 0, 59, 100
1, 113278, Note_off_c, 0, 59, 100
1, 113278, Note_on_c, 0, 62, 100
1, 113374, Note_off_c, 0, 62, 100
1, 113374, Note_on_c, 0, 66, 100
1, 113470, Note_off_c, 0, 66, 100
1, 113470, Note_on_c, 0, 65, 100
1, 113614, Note_off_c, 0, 65, 100
1, 113614, Note_on_c, 0, 61, 100
1, 113854, Note_off_c, 0, 61, 100
1, 113854, Note_on_c, 0, 63, 100
1, 113950, Note_off_c, 0, 63, 100
1, 114238, Note_on_c, 0, 63, 100
1, 114334, Note_off_c, 0, 63, 100
1, 114334, Note_on_c, 0, 65, 100
1, 114430, Note_off_c, 0, 65, 100
1, 114430, Note_on_c, 0, 67, 100
1, 114526, Note_off_c, 0, 67, 100
1, 114526, Note_on_c, 0, 63, 100
1, 114622, Note_off_c, 0, 63, 100
1, 114622, Note_on_c, 0, 65, 100
1, 114718, Note_off_c, 0, 65, 100
1, 114718, Note_on_c, 0, 61, 100
1, 114814, Note_off_c, 0, 61, 100
1, 114814, Note_on_c, 0, 58, 100
1, 114910, Note_off_c, 0, 58, 100
1, 114910, Note_on_c, 0, 60, 100
1, 115006, Note_off_c, 0, 60, 100
1, 115726, Note_on_c, 0, 72, 100
1, 116062, Note_off_c, 0, 72, 100
1, 116062, Note_on_c, 0, 69, 100
1, 116158, Note_off_c, 0, 69, 100
1, 116158, Note_on_c, 0, 70, 100
1, 116286, Note_off_c, 0, 70, 100
1, 116286, Note_on_c, 0, 65, 100
1, 116446, Note_off_c, 0, 65, 100
1, 116446, Note_on_c, 0, 65, 100
1, 116590, Note_off_c, 0, 65, 100
1, 116590, Note_on_c, 0, 70, 100
1, 116686, Note_off_c, 0, 70, 100
1, 116686, Note_on_c, 0, 68, 100
1, 116782, Note_off_c, 0, 68, 100
1, 116782, Note_on_c, 0, 65, 100
1, 116926, Note_off_c, 0, 65, 100
1, 116926, Note_on_c, 0, 68, 100
1, 117054, Note_off_c, 0, 68, 100
1, 117054, Note_on_c, 0, 65, 100
1, 117118, Note_off_c, 0, 65, 100
1, 117118, Note_on_c, 0, 61, 100
1, 117246, Note_off_c, 0, 61, 100
1, 117246, Note_on_c, 0, 60, 100
1, 117310, Note_off_c, 0, 60, 100
1, 117310, Note_on_c, 0, 65, 100
1, 117502, Note_off_c, 0, 65, 100
1, 117502, Note_on_c, 0, 61, 100
1, 117550, Note_off_c, 0, 61, 100
1, 117550, Note_on_c, 0, 58, 100
1, 117646, Note_off_c, 0, 58, 100
1, 117646, Note_on_c, 0, 55, 100
1, 117742, Note_off_c, 0, 55, 100
1, 117742, Note_on_c, 0, 53, 100
1, 117838, Note_off_c, 0, 53, 100
1, 117838, Note_on_c, 0, 51, 100
1, 117886, Note_off_c, 0, 51, 100
1, 117886, Note_on_c, 0, 46, 100
1, 117982, Note_off_c, 0, 46, 100
1, 118846, Note_on_c, 0, 45, 100
1, 118942, Note_off_c, 0, 45, 100
1, 118942, Note_on_c, 0, 47, 100
1, 119038, Note_off_c, 0, 47, 100
1, 119998, Note_on_c, 0, 48, 100
1, 120094, Note_off_c, 0, 48, 100
1, 120094, Note_on_c, 0, 50, 100
1, 120190, Note_off_c, 0, 50, 100
1, 120190, Note_on_c, 0, 52, 100
1, 120334, Note_off_c, 0, 52, 100
1, 120334, Note_on_c, 0, 55, 100
1, 120382, Note_off_c, 0, 55, 100
1, 120382, Note_on_c, 0, 53, 100
1, 120478, Note_off_c, 0, 53, 100
1, 120478, Note_on_c, 0, 55, 100
1, 120574, Note_off_c, 0, 55, 100
1, 120574, Note_on_c, 0, 57, 100
1, 120670, Note_off_c, 0, 57, 100
1, 120670, Note_on_c, 0, 53, 100
1, 120766, Note_off_c, 0, 53, 100
1, 120766, Note_on_c, 0, 58, 100
1, 120862, Note_off_c, 0, 58, 100
1, 120862, Note_on_c, 0, 60, 100
1, 120958, Note_off_c, 0, 60, 100
1, 120958, Note_on_c, 0, 62, 100
1, 121054, Note_off_c, 0, 62, 100
1, 121054, Note_on_c, 0, 65, 100
1, 121150, Note_off_c, 0, 65, 100
1, 121150, Note_on_c, 0, 63, 100
1, 121246, Note_off_c, 0, 63, 100
1, 121246, Note_on_c, 0, 65, 100
1, 121534, Note_off_c, 0, 65, 100
1, 121534, Note_on_c, 0, 72, 100
1, 121598, Note_off_c, 0, 72, 100
1, 121598, Note_on_c, 0, 73, 100
1, 121662, Note_off_c, 0, 73, 100
1, 121662, Note_on_c, 0, 74, 100
1, 121726, Note_off_c, 0, 74, 100
1, 121726, Note_on_c, 0, 73, 100
1, 121774, Note_off_c, 0, 73, 100
1, 121774, Note_on_c, 0, 71, 100
1, 121870, Note_off_c, 0, 71, 100
1, 121870, Note_on_c, 0, 69, 100
1, 121918, Note_off_c, 0, 69, 100
1, 121918, Note_on_c, 0, 68, 100
1, 122014, Note_off_c, 0, 68, 100
1, 122014, Note_on_c, 0, 66, 100
1, 122158, Note_off_c, 0, 66, 100
1, 122158, Note_on_c, 0, 64, 100
1, 122254, Note_off_c, 0, 64, 100
1, 122254, Note_on_c, 0, 63, 100
1, 122302, Note_off_c, 0, 63, 100
1, 122302, Note_on_c, 0, 62, 100
1, 122430, Note_off_c, 0, 62, 100
1, 122430, Note_on_c, 0, 61, 100
1, 122542, Note_off_c, 0, 61, 100
1, 122542, Note_on_c, 0, 59, 100
1, 122638, Note_off_c, 0, 59, 100
1, 122638, Note_on_c, 0, 62, 100
1, 122686, Note_off_c, 0, 62, 100
1, 122686, Note_on_c, 0, 64, 100
1, 122782, Note_off_c, 0, 64, 100
1, 122782, Note_on_c, 0, 69, 100
1, 122878, Note_off_c, 0, 69, 100
1, 122878, Note_on_c, 0, 66, 100
1, 123022, Note_off_c, 0, 66, 100
1, 123022, Note_on_c, 0, 67, 100
1, 123070, Note_off_c, 0, 67, 100
1, 123070, Note_on_c, 0, 68, 100
1, 123166, Note_off_c, 0, 68, 100
1, 123166, Note_on_c, 0, 66, 100
1, 123262, Note_off_c, 0, 66, 100
1, 123262, Note_on_c, 0, 61, 100
1, 123390, Note_off_c, 0, 61, 100
1, 123390, Note_on_c, 0, 58, 100
1, 123454, Note_off_c, 0, 58, 100
1, 123454, Note_on_c, 0, 61, 100
1, 123598, Note_off_c, 0, 61, 100
1, 123598, Note_on_c, 0, 60, 100
1, 123646, Note_off_c, 0, 60, 100
1, 123646, Note_on_c, 0, 56, 100
1, 123838, Note_off_c, 0, 56, 100
1, 123838, Note_on_c, 0, 60, 100
1, 124030, Note_off_c, 0, 60, 100
1, 124286, Note_on_c, 0, 60, 100
1, 124414, Note_off_c, 0, 60, 100
1, 124414, Note_on_c, 0, 57, 100
1, 124510, Note_off_c, 0, 57, 100
1, 124510, Note_on_c, 0, 53, 100
1, 124606, Note_off_c, 0, 53, 100
1, 124606, Note_on_c, 0, 50, 100
1, 124654, Note_off_c, 0, 50, 100
1, 124654, Note_on_c, 0, 59, 100
1, 124750, Note_off_c, 0, 59, 100
1, 124750, Note_on_c, 0, 55, 100
1, 124846, Note_off_c, 0, 55, 100
1, 124846, Note_on_c, 0, 52, 100
1, 124942, Note_off_c, 0, 52, 100
1, 124942, Note_on_c, 0, 48, 100
1, 124990, Note_off_c, 0, 48, 100
1, 124990, Note_on_c, 0, 55, 100
1, 125038, Note_off_c, 0, 55, 100
1, 125038, Note_on_c, 0, 57, 100
1, 125134, Note_off_c, 0, 57, 100
1, 125134, Note_on_c, 0, 53, 100
1, 125230, Note_off_c, 0, 53, 100
1, 125230, Note_on_c, 0, 50, 100
1, 125422, Note_off_c, 0, 50, 100
1, 125422, Note_on_c, 0, 66, 100
1, 125518, Note_off_c, 0, 66, 100
1, 125518, Note_on_c, 0, 64, 100
1, 125630, Note_off_c, 0, 64, 100
1, 125630, Note_on_c, 0, 61, 100
1, 125758, Note_off_c, 0, 61, 100
1, 125758, Note_on_c, 0, 66, 100
1, 125854, Note_off_c, 0, 66, 100
1, 126910, Note_on_c, 0, 63, 100
1, 127006, Note_off_c, 0, 63, 100
1, 127006, Note_on_c, 0, 60, 100
1, 127102, Note_off_c, 0, 60, 100
1, 127102, Note_on_c, 0, 56, 100
1, 127198, Note_off_c, 0, 56, 100
1, 127198, Note_on_c, 0, 54, 100
1, 127294, Note_off_c, 0, 54, 100
1, 127294, Note_on_c, 0, 62, 100
1, 127358, Note_off_c, 0, 62, 100
1, 127358, Note_on_c, 0, 63, 100
1, 127422, Note_off_c, 0, 63, 100
1, 127422, Note_on_c, 0, 64, 100
1, 127486, Note_off_c, 0, 64, 100
1, 127486, Note_on_c, 0, 65, 100
1, 127582, Note_off_c, 0, 65, 100
1, 127582, Note_on_c, 0, 62, 100
1, 127678, Note_off_c, 0, 62, 100
1, 127678, Note_on_c, 0, 63, 100
1, 127774, Note_off_c, 0, 63, 100
1, 127774, Note_on_c, 0, 65, 100
1, 127966, Note_off_c, 0, 65, 100
1, 127966, Note_on_c, 0, 69, 100
1, 128062, Note_off_c, 0, 69, 100
1, 128062, Note_on_c, 0, 70, 100
1, 128158, Note_off_c, 0, 70, 100
1, 128158, Note_on_c, 0, 72, 100
1, 128254, Note_off_c, 0, 72, 100
1, 128254, Note_on_c, 0, 69, 100
1, 128350, Note_off_c, 0, 69, 100
1, 128350, Note_on_c, 0, 67, 100
1, 128494, Note_off_c, 0, 67, 100
1, 128494, Note_on_c, 0, 65, 100
1, 128590, Note_off_c, 0, 65, 100
1, 128590, Note_on_c, 0, 61, 100
1, 128638, Note_off_c, 0, 61, 100
1, 128638, Note_on_c, 0, 60, 100
1, 128734, Note_off_c, 0, 60, 100
1, 128734, Note_on_c, 0, 58, 100
1, 128830, Note_off_c, 0, 58, 100
1, 128830, Note_on_c, 0, 57, 100
1, 129022, Note_off_c, 0, 57, 100
1, 129022, Note_on_c, 0, 60, 100
1, 129166, Note_off_c, 0, 60, 100
1, 129166, Note_on_c, 0, 63, 100
1, 129214, Note_off_c, 0, 63, 100
1, 129214, Note_on_c, 0, 64, 100
1, 129310, Note_off_c, 0, 64, 100
1, 129310, Note_on_c, 0, 65, 100
1, 129662, Note_off_c, 0, 65, 100
1, 129662, Note_on_c, 0, 58, 100
1, 129790, Note_off_c, 0, 58, 100
1, 129790, Note_on_c, 0, 63, 100
1, 130046, Note_off_c, 0, 63, 100
1, 130046, Note_on_c, 0, 65, 100
1, 130318, Note_off_c, 0, 65, 100
1, 130318, Note_on_c, 0, 57, 100
1, 130462, Note_off_c, 0, 57, 100
1, 130462, Note_on_c, 0, 60, 100
1, 130558, Note_off_c, 0, 60, 100
1, 130558, Note_on_c, 0, 63, 100
1, 130750, Note_off_c, 0, 63, 100
1, 130750, Note_on_c, 0, 65, 100
1, 131038, Note_off_c, 0, 65, 100
1, 131038, Note_on_c, 0, 70, 100
1, 131230, Note_off_c, 0, 70, 100
1, 131230, Note_on_c, 0, 68, 100
1, 131326, Note_off_c, 0, 68, 100
1, 131326, Note_on_c, 0, 65, 100
1, 131518, Note_off_c, 0, 65, 100
1, 131518, Note_on_c, 0, 68, 100
1, 131614, Note_off_c, 0, 68, 100
1, 131614, Note_on_c, 0, 67, 100
1, 131710, Note_off_c, 0, 67, 100
1, 131710, Note_on_c, 0, 63, 100
1, 131902, Note_off_c, 0, 63, 100
1, 131902, Note_on_c, 0, 67, 100
1, 131998, Note_off_c, 0, 67, 100
1, 131998, Note_on_c, 0, 63, 100
1, 132094, Note_off_c, 0, 63, 100
1, 132094, Note_on_c, 0, 65, 100
1, 132190, Note_off_c, 0, 65, 100
1, 132190, Note_on_c, 0, 67, 100
1, 132286, Note_off_c, 0, 67, 100
1, 132286, Note_on_c, 0, 65, 100
1, 132334, Note_off_c, 0, 65, 100
1, 132334, Note_on_c, 0, 63, 100
1, 132430, Note_off_c, 0, 63, 100
1, 132430, Note_on_c, 0, 61, 100
1, 132478, Note_off_c, 0, 61, 100
1, 132478, Note_on_c, 0, 58, 100
1, 132574, Note_off_c, 0, 58, 100
1, 132574, Note_on_c, 0, 56, 100
1, 132670, Note_off_c, 0, 56, 100
1, 132670, Note_on_c, 0, 61, 100
1, 132766, Note_off_c, 0, 61, 100
1, 132766, Note_on_c, 0, 63, 100
1, 132862, Note_off_c, 0, 63, 100
1, 132862, Note_on_c, 0, 65, 100
1, 132958, Note_off_c, 0, 65, 100
1, 132958, Note_on_c, 0, 61, 100
1, 133054, Note_off_c, 0, 61, 100
1, 134590, Note_on_c, 0, 72, 100
1, 134686, Note_off_c, 0, 72, 100
1, 134686, Note_on_c, 0, 72, 100
1, 134782, Note_off_c, 0, 72, 100
1, 134782, Note_on_c, 0, 72, 100
1, 134878, Note_off_c, 0, 72, 100
1, 134878, Note_on_c, 0, 72, 100
1, 134974, Note_off_c, 0, 72, 100
1, 137278, Note_on_c, 0, 72, 100
1, 137326, Note_off_c, 0, 72, 100
1, 137326, Note_on_c, 0, 75, 100
1, 137422, Note_off_c, 0, 75, 100
1, 137422, Note_on_c, 0, 75, 100
1, 137518, Note_off_c, 0, 75, 100
1, 137854, Note_on_c, 0, 76, 100
1, 137950, Note_off_c, 0, 76, 100
1, 137950, Note_on_c, 0, 77, 100
1, 138622, Note_off_c, 0, 77, 100
1, 138622, Note_on_c, 0, 81, 100
1, 138718, Note_off_c, 0, 81, 100
1, 139198, Note_on_c, 0, 74, 100
1, 139326, Note_off_c, 0, 74, 100
1, 139326, Note_on_c, 0, 77, 100
1, 139614, Note_off_c, 0, 77, 100
1, 139966, Note_on_c, 0, 74, 100
1, 140062, Note_off_c, 0, 74, 100
1, 140062, Note_on_c, 0, 77, 100
1, 140734, Note_off_c, 0, 77, 100
1, 141348, Note_on_c, 0, 70, 100
1, 141424, Note_off_c, 0, 70, 100
1, 141424, Note_on_c, 0, 71, 100
1, 141462, Note_off_c, 0, 71, 100
1, 141462, Note_on_c, 0, 72, 100
1, 142076, Note_off_c, 0, 72, 100
1, 142076, Note_on_c, 0, 65, 100
1, 142140, Note_off_c, 0, 65, 100
1, 142140, Note_on_c, 0, 68, 100
1, 142204, Note_off_c, 0, 68, 100
1, 142204, Note_on_c, 0, 72, 100
1, 142364, Note_off_c, 0, 72, 100
1, 142364, Note_on_c, 0, 81, 100
1, 142460, Note_off_c, 0, 81, 100
1, 142460, Note_on_c, 0, 78, 100
1, 142556, Note_off_c, 0, 78, 100
1, 142796, Note_on_c, 0, 81, 100
1, 142844, Note_off_c, 0, 81, 100
1, 142844, Note_on_c, 0, 82, 100
1, 143484, Note_off_c, 0, 82, 100
1, 143484, Note_on_c, 0, 75, 100
1, 143612, Note_off_c, 0, 75, 100
1, 143612, Note_on_c, 0, 77, 100
1, 143708, Note_off_c, 0, 77, 100
1, 143900, Note_on_c, 0, 73, 100
1, 144092, Note_off_c, 0, 73, 100
1, 144092, Note_on_c, 0, 70, 100
1, 144188, Note_off_c, 0, 70, 100
1, 144188, Note_on_c, 0, 67, 100
1, 144284, Note_off_c, 0, 67, 100
1, 144284, Note_on_c, 0, 68, 100
1, 144476, Note_off_c, 0, 68, 100
1, 144476, Note_on_c, 0, 65, 100
1, 144668, Note_off_c, 0, 65, 100
1, 144668, Note_on_c, 0, 64, 100
1, 144956, Note_off_c, 0, 64, 100
1, 144956, Note_on_c, 0, 70, 100
1, 145052, Note_off_c, 0, 70, 100
1, 145052, Note_on_c, 0, 73, 100
1, 145148, Note_off_c, 0, 73, 100
1, 145148, Note_on_c, 0, 72, 100
1, 145244, Note_off_c, 0, 72, 100
1, 145244, Note_on_c, 0, 69, 100
1, 145340, Note_off_c, 0, 69, 100
1, 145340, Note_on_c, 0, 70, 100
1, 145484, Note_off_c, 0, 70, 100
1, 145484, Note_on_c, 0, 66, 100
1, 145628, Note_off_c, 0, 66, 100
1, 145628, Note_on_c, 0, 66, 100
1, 145772, Note_off_c, 0, 66, 100
1, 145772, Note_on_c, 0, 69, 100
1, 145868, Note_off_c, 0, 69, 100
1, 145868, Note_on_c, 0, 67, 100
1, 145916, Note_off_c, 0, 67, 100
1, 145916, Note_on_c, 0, 66, 100
1, 146012, Note_off_c, 0, 66, 100
1, 146012, Note_on_c, 0, 62, 100
1, 146108, Note_off_c, 0, 62, 100
1, 146108, Note_on_c, 0, 64, 100
1, 146204, Note_off_c, 0, 64, 100
1, 146204, Note_on_c, 0, 61, 100
1, 146444, Note_off_c, 0, 61, 100
1, 146444, Note_on_c, 0, 63, 100
1, 146556, Note_off_c, 0, 63, 100
1, 146556, Note_on_c, 0, 61, 100
1, 146620, Note_off_c, 0, 61, 100
1, 146620, Note_on_c, 0, 60, 100
1, 146748, Note_off_c, 0, 60, 100
1, 146748, Note_on_c, 0, 58, 100
1, 146812, Note_off_c, 0, 58, 100
1, 146812, Note_on_c, 0, 57, 100
1, 146940, Note_off_c, 0, 57, 100
1, 146940, Note_on_c, 0, 60, 100
1, 147004, Note_off_c, 0, 60, 100
1, 147004, Note_on_c, 0, 62, 100
1, 147068, Note_off_c, 0, 62, 100
1, 147068, Note_on_c, 0, 64, 100
1, 147164, Note_off_c, 0, 64, 100
1, 147164, Note_on_c, 0, 65, 100
1, 147644, Note_off_c, 0, 65, 100
1, 148028, Note_on_c, 0, 72, 100
1, 148220, Note_off_c, 0, 72, 100
1, 148220, Note_on_c, 0, 72, 100
1, 148364, Note_off_c, 0, 72, 100
1, 148364, Note_on_c, 0, 65, 100
1, 148556, Note_off_c, 0, 65, 100
1, 148556, Note_on_c, 0, 68, 100
1, 148748, Note_off_c, 0, 68, 100
1, 148748, Note_on_c, 0, 65, 100
1, 148892, Note_off_c, 0, 65, 100
1, 148892, Note_on_c, 0, 70, 100
1, 149084, Note_off_c, 0, 70, 100
1, 149084, Note_on_c, 0, 65, 100
1, 149276, Note_off_c, 0, 65, 100
1, 149276, Note_on_c, 0, 68, 100
1, 149468, Note_off_c, 0, 68, 100
1, 149468, Note_on_c, 0, 65, 100
1, 149564, Note_off_c, 0, 65, 100
1, 149564, Note_on_c, 0, 63, 100
1, 149660, Note_off_c, 0, 63, 100
1, 149660, Note_on_c, 0, 67, 100
1, 149756, Note_off_c, 0, 67, 100
1, 149756, Note_on_c, 0, 65, 100
1, 149852, Note_off_c, 0, 65, 100
1, 149852, Note_on_c, 0, 61, 100
1, 149948, Note_off_c, 0, 61, 100
1, 149948, Note_on_c, 0, 58, 100
1, 150044, Note_off_c, 0, 58, 100
1, 150044, Note_on_c, 0, 57, 100
1, 150140, Note_off_c, 0, 57, 100
1, 150140, Note_on_c, 0, 63, 100
1, 150236, Note_off_c, 0, 63, 100
1, 150236, Note_on_c, 0, 62, 100
1, 150332, Note_off_c, 0, 62, 100
1, 150332, Note_on_c, 0, 61, 100
1, 150428, Note_off_c, 0, 61, 100
1, 150428, Note_on_c, 0, 58, 100
1, 150476, Note_off_c, 0, 58, 100
1, 150476, Note_on_c, 0, 59, 100
1, 150524, Note_off_c, 0, 59, 100
1, 150524, Note_on_c, 0, 56, 100
1, 150620, Note_off_c, 0, 56, 100
1, 150620, Note_on_c, 0, 54, 100
1, 150716, Note_off_c, 0, 54, 100
1, 150716, Note_on_c, 0, 56, 100
1, 150860, Note_off_c, 0, 56, 100
1, 150860, Note_on_c, 0, 54, 100
1, 150956, Note_off_c, 0, 54, 100
1, 151628, Note_on_c, 0, 48, 100
1, 151724, Note_off_c, 0, 48, 100
1, 152012, Note_on_c, 0, 48, 100
1, 152204, Note_off_c, 0, 48, 100
1, 152204, Note_on_c, 0, 57, 100
1, 152300, Note_off_c, 0, 57, 100
1, 153500, Note_on_c, 0, 55, 100
1, 153596, Note_off_c, 0, 55, 100
1, 153596, Note_on_c, 0, 52, 100
1, 153692, Note_off_c, 0, 52, 100
1, 153692, Note_on_c, 0, 53, 100
1, 153788, Note_off_c, 0, 53, 100
1, 153788, Note_on_c, 0, 55, 100
1, 153884, Note_off_c, 0, 55, 100
1, 153884, Note_on_c, 0, 57, 100
1, 153980, Note_off_c, 0, 57, 100
1, 153980, Note_on_c, 0, 59, 100
1, 154076, Note_off_c, 0, 59, 100
1, 154076, Note_on_c, 0, 60, 100
1, 154172, Note_off_c, 0, 60, 100
1, 154172, Note_on_c, 0, 62, 100
1, 154364, Note_off_c, 0, 62, 100
1, 154364, Note_on_c, 0, 64, 100
1, 154460, Note_off_c, 0, 64, 100
1, 154460, Note_on_c, 0, 67, 100
1, 154620, Note_off_c, 0, 67, 100
1, 154620, Note_on_c, 0, 64, 100
1, 154748, Note_off_c, 0, 64, 100
1, 154748, Note_on_c, 0, 65, 100
1, 154844, Note_off_c, 0, 65, 100
1, 154844, Note_on_c, 0, 67, 100
1, 155132, Note_off_c, 0, 67, 100
1, 155132, Note_on_c, 0, 69, 100
1, 155228, Note_off_c, 0, 69, 100
1, 155228, Note_on_c, 0, 72, 100
1, 155276, Note_off_c, 0, 72, 100
1, 155276, Note_on_c, 0, 72, 100
1, 155324, Note_off_c, 0, 72, 100
1, 155324, Note_on_c, 0, 69, 100
1, 155468, Note_off_c, 0, 69, 100
1, 155468, Note_on_c, 0, 70, 100
1, 155516, Note_off_c, 0, 70, 100
1, 155516, Note_on_c, 0, 68, 100
1, 155612, Note_off_c, 0, 68, 100
1, 155612, Note_on_c, 0, 66, 100
1, 155708, Note_off_c, 0, 66, 100
1, 155708, Note_on_c, 0, 63, 100
1, 155804, Note_off_c, 0, 63, 100
1, 155804, Note_on_c, 0, 61, 100
1, 155900, Note_off_c, 0, 61, 100
1, 155900, Note_on_c, 0, 60, 100
1, 156188, Note_off_c, 0, 60, 100
1, 156188, Note_on_c, 0, 65, 100
1, 156668, Note_off_c, 0, 65, 100
1, 156668, Note_on_c, 0, 67, 100
1, 156764, Note_off_c, 0, 67, 100
1, 156764, Note_on_c, 0, 69, 100
1, 156908, Note_off_c, 0, 69, 100
1, 156908, Note_on_c, 0, 65, 100
1, 157004, Note_off_c, 0, 65, 100
1, 157004, Note_on_c, 0, 67, 100
1, 157116, Note_off_c, 0, 67, 100
1, 157116, Note_on_c, 0, 66, 100
1, 157308, Note_off_c, 0, 66, 100
1, 157308, Note_on_c, 0, 60, 100
1, 157484, Note_off_c, 0, 60, 100
1, 157484, Note_on_c, 0, 65, 100
1, 157724, Note_off_c, 0, 65, 100
1, 157724, Note_on_c, 0, 65, 100
1, 158012, Note_off_c, 0, 65, 100
1, 158012, Note_on_c, 0, 65, 100
1, 158108, Note_off_c, 0, 65, 100
1, 158108, Note_on_c, 0, 67, 100
1, 158252, Note_off_c, 0, 67, 100
1, 158252, Note_on_c, 0, 68, 100
1, 158348, Note_off_c, 0, 68, 100
1, 158348, Note_on_c, 0, 67, 100
1, 158396, Note_off_c, 0, 67, 100
1, 158396, Note_on_c, 0, 66, 100
1, 158492, Note_off_c, 0, 66, 100
1, 158492, Note_on_c, 0, 65, 100
1, 158588, Note_off_c, 0, 65, 100
1, 158588, Note_on_c, 0, 64, 100
1, 158684, Note_off_c, 0, 64, 100
1, 158684, Note_on_c, 0, 63, 100
1, 158780, Note_off_c, 0, 63, 100
1, 158780, Note_on_c, 0, 62, 100
1, 158908, Note_off_c, 0, 62, 100
1, 158908, Note_on_c, 0, 61, 100
1, 158972, Note_off_c, 0, 61, 100
1, 158972, Note_on_c, 0, 59, 100
1, 159164, Note_off_c, 0, 59, 100
1, 159164, Note_on_c, 0, 53, 100
1, 159260, Note_off_c, 0, 53, 100
1, 159260, Note_on_c, 0, 57, 100
1, 159308, Note_off_c, 0, 57, 100
1, 159308, Note_on_c, 0, 54, 100
1, 159452, Note_off_c, 0, 54, 100
1, 159452, Note_on_c, 0, 55, 100
1, 159500, Note_off_c, 0, 55, 100
1, 159500, Note_on_c, 0, 56, 100
1, 159644, Note_off_c, 0, 56, 100
1, 159644, Note_on_c, 0, 54, 100
1, 159740, Note_off_c, 0, 54, 100
1, 159740, Note_on_c, 0, 52, 100
1, 159836, Note_off_c, 0, 52, 100
1, 159836, Note_on_c, 0, 49, 100
1, 159932, Note_off_c, 0, 49, 100
1, 159932, Note_on_c, 0, 50, 100
1, 160028, Note_off_c, 0, 50, 100
1, 160028, Note_on_c, 0, 52, 100
1, 160188, Note_off_c, 0, 52, 100
1, 160188, Note_on_c, 0, 55, 100
1, 160316, Note_off_c, 0, 55, 100
1, 160316, Note_on_c, 0, 61, 100
1, 160412, Note_off_c, 0, 61, 100
1, 160412, Note_on_c, 0, 60, 100
1, 160508, Note_off_c, 0, 60, 100
1, 160508, Note_on_c, 0, 58, 100
1, 160604, Note_off_c, 0, 58, 100
1, 160604, Note_on_c, 0, 55, 100
1, 160700, Note_off_c, 0, 55, 100
1, 160700, Note_on_c, 0, 57, 100
1, 160828, Note_off_c, 0, 57, 100
1, 160828, Note_on_c, 0, 48, 100
1, 160956, Note_off_c, 0, 48, 100
1, 160956, Note_on_c, 0, 51, 100
1, 161020, Note_off_c, 0, 51, 100
1, 161020, Note_on_c, 0, 55, 100
1, 161084, Note_off_c, 0, 55, 100
1, 161084, Note_on_c, 0, 51, 100
1, 161180, Note_off_c, 0, 51, 100
1, 161180, Note_on_c, 0, 52, 100
1, 161276, Note_off_c, 0, 52, 100
1, 161468, Note_on_c, 0, 63, 100
1, 161564, Note_off_c, 0, 63, 100
1, 161564, Note_on_c, 0, 62, 100
1, 161612, Note_off_c, 0, 62, 100
1, 161612, Note_on_c, 0, 61, 100
1, 161756, Note_off_c, 0, 61, 100
1, 161756, Note_on_c, 0, 59, 100
1, 161852, Note_off_c, 0, 59, 100
1, 161852, Note_on_c, 0, 58, 100
1, 161948, Note_off_c, 0, 58, 100
1, 162428, Note_on_c, 0, 58, 100
1, 162908, Note_off_c, 0, 58, 100
1, 163452, Note_on_c, 0, 56, 100
1, 163516, Note_off_c, 0, 56, 100
1, 163516, Note_on_c, 0, 57, 100
1, 163580, Note_off_c, 0, 57, 100
1, 163580, Note_on_c, 0, 60, 100
1, 163628, Note_off_c, 0, 60, 100
1, 163628, Note_on_c, 0, 62, 100
1, 163724, Note_off_c, 0, 62, 100
1, 163724, Note_on_c, 0, 65, 100
1, 163820, Note_off_c, 0, 65, 100
1, 163820, Note_on_c, 0, 62, 100
1, 163916, Note_off_c, 0, 62, 100
1, 163916, Note_on_c, 0, 63, 100
1, 164012, Note_off_c, 0, 63, 100
1, 164012, Note_on_c, 0, 64, 100
1, 164060, Note_off_c, 0, 64, 100
1, 164060, Note_on_c, 0, 65, 100
1, 164156, Note_off_c, 0, 65, 100
1, 164156, Note_on_c, 0, 67, 100
1, 164252, Note_off_c, 0, 67, 100
1, 164252, Note_on_c, 0, 72, 100
1, 164348, Note_off_c, 0, 72, 100
1, 164348, Note_on_c, 0, 71, 100
1, 164444, Note_off_c, 0, 71, 100
1, 164444, Note_on_c, 0, 70, 100
1, 164540, Note_off_c, 0, 70, 100
1, 164540, Note_on_c, 0, 67, 100
1, 164684, Note_off_c, 0, 67, 100
1, 164684, Note_on_c, 0, 68, 100
1, 164732, Note_off_c, 0, 68, 100
1, 164732, Note_on_c, 0, 69, 100
1, 164828, Note_off_c, 0, 69, 100
1, 164828, Note_on_c, 0, 65, 100
1, 165068, Note_off_c, 0, 65, 100
1, 165068, Note_on_c, 0, 63, 100
1, 165452, Note_off_c, 0, 63, 100
1, 165452, Note_on_c, 0, 63, 100
1, 165500, Note_off_c, 0, 63, 100
1, 165500, Note_on_c, 0, 67, 100
1, 165692, Note_off_c, 0, 67, 100
1, 165692, Note_on_c, 0, 63, 100
1, 165842, Note_off_c, 0, 63, 100
1, 165842, End_track
0, 0, End_of_file
