0, 0, Header, 1, 1, 192
1, 0, Start_track
1, 0, Title_t, "Melody"
1, 0, Tempo, 375000
1, 0, Time_signature, 4, 2, 24, 8
1, 576, Note_on_c, 0, 61, 100
1, 624, Note_off_c, 0, 61, 100
1, 624, Note_on_c, 0, 62, 100
1, 672, Note_off_c, 0, 62, 100
1, 672, Note_on_c, 0, 66, 100
1, 720, Note_off_c, 0, 66, 100
1, 720, Note_on_c, 0, 69, 100
1, 768, Note_off_c, 0, 69, 100
1, 768, Note_on_c, 0, 73, 100
1, 864, Note_off_c, 0, 73, 100
1, 864, Note_on_c, 0, 76, 100
1, 1184, Note_off_c, 0, 76, 100
1, 1184, Note_on_c, 0, 73, 100
1, 1216, Note_off_c, 0, 73, 100
1, 1216, Note_on_c, 0, 71, 100
1, 1248, Note_off_c, 0, 71, 100
1, 1248, Note_on_c, 0, 69, 100
1, 1280, Note_off_c, 0, 69, 100
1, 1280, Note_on_c, 0, 66, 100
1, 1312, Note_off_c, 0, 66, 100
1, 1312, Note_on_c, 0, 62, 100
1, 1344, Note_off_c, 0, 62, 100
1, 1344, Note_on_c, 0, 61, 100
1, 1408, Note_off_c, 0, 61, 100
1, 1408, Note_on_c, 0, 59, 100
1, 1472, Note_off_c, 0, 59, 100
1, 1472, Note_on_c, 0, 58, 100
1, 1968, Note_off_c, 0, 58, 100
1, 1968, Note_on_c, 0, 46, 100
1, 2016, Note_off_c, 0, 46, 100
1, 2016, Note_on_c, 0, 47, 100
1, 2064, Note_off_c, 0, 47, 100
1, 2064, Note_on_c, 0, 51, 100
1, 2112, Note_off_c, 0, 51, 100
1, 2112, Note_on_c, 0, 54, 100
1, 2150, Note_off_c, 0, 54, 100
1, 2150, Note_on_c, 0, 58, 100
1, 2188, Note_off_c, 0, 58, 100
1, 2188, Note_on_c, 0, 55, 100
1, 2226, Note_off_c, 0, 55, 100
1, 2226, Note_on_c, 0, 56, 100
1, 2264, Note_off_c, 0, 56, 100
1, 2264, Note_on_c, 0, 58, 100
1, 2302, Note_off_c, 0, 58, 100
1, 2302, Note_on_c, 0, 59, 100
1, 2350, Note_off_c, 0, 59, 100
1, 2350, Note_on_c, 0, 60, 100
1, 2398, Note_off_c, 0, 60, 100
1, 2398, Note_on_c, 0, 63, 100
1, 2446, Note_off_c, 0, 63, 100
1, 2446, Note_on_c, 0, 65, 100
1, 2494, Note_off_c, 0, 65, 100
1, 2494, Note_on_c, 0, 70, 100
1, 2542, Note_off_c, 0, 70, 100
1, 2542, Note_on_c, 0, 68, 100
1, 2590, Note_off_c, 0, 68, 100
1, 2590, Note_on_c, 0, 67, 100
1, 2638, Note_off_c, 0, 67, 100
1, 2638, Note_on_c, 0, 65, 100
1, 2724, Note_off_c, 0, 65, 100
1, 2724, Note_on_c, 0, 63, 100
1, 2762, Note_off_c, 0, 63, 100
1, 2762, Note_on_c, 0, 61, 100
1, 2800, Note_off_c, 0, 61, 100
1, 2800, Note_on_c, 0, 60, 100
1, 2876, Note_off_c, 0, 60, 100
1, 2876, Note_on_c, 0, 58, 100
1, 2924, Note_off_c, 0, 58, 100
1, 2924, Note_on_c, 0, 55, 100
1, 3020, Note_off_c, 0, 55, 100
1, 3596, Note_on_c, 0, 70, 100
1, 3644, Note_off_c, 0, 70, 100
1, 3644, Note_on_c, 0, 71, 100
1, 3682, Note_off_c, 0, 71, 100
1, 3682, Note_on_c, 0, 70, 100
1, 3797, Note_off_c, 0, 70, 100
1, 3797, Note_on_c, 0, 68, 100
1, 3912, Note_off_c, 0, 68, 100
1, 3912, Note_on_c, 0, 66, 100
1, 3950, Note_off_c, 0, 66, 100
1, 3950, Note_on_c, 0, 67, 100
1, 3988, Note_off_c, 0, 67, 100
1, 3988, Note_on_c, 0, 66, 100
1, 4026, Note_off_c, 0, 66, 100
1, 4026, Note_on_c, 0, 65, 100
1, 4122, Note_off_c, 0, 65, 100
1, 4122, Note_on_c, 0, 63, 100
1, 4266, Note_off_c, 0, 63, 100
1, 4266, Note_on_c, 0, 61, 100
1, 4362, Note_off_c, 0, 61, 100
1, 4362, Note_on_c, 0, 59, 100
1, 4410, Note_off_c, 0, 59, 100
1, 4410, Note_on_c, 0, 54, 100
1, 4506, Note_off_c, 0, 54, 100
1, 4506, Note_on_c, 0, 51, 100
1, 4602, Note_off_c, 0, 51, 100
1, 4602, Note_on_c, 0, 58, 100
1, 4794, Note_off_c, 0, 58, 100
1, 4794, Note_on_c, 0, 59, 100
1, 4890, Note_off_c, 0, 59, 100
1, 4890, Note_on_c, 0, 56, 100
1, 5082, Note_off_c, 0, 56, 100
1, 5706, Note_on_c, 0, 68, 100
1, 5754, Note_off_c, 0, 68, 100
1, 5754, Note_on_c, 0, 70, 100
1, 5850, Note_off_c, 0, 70, 100
1, 5850, Note_on_c, 0, 66, 100
1, 5898, Note_off_c, 0, 66, 100
1, 5898, Note_on_c, 0, 68, 100
1, 5946, Note_off_c, 0, 68, 100
1, 5946, Note_on_c, 0, 64, 100
1, 6010, Note_off_c, 0, 64, 100
1, 6010, Note_on_c, 0, 66, 100
1, 6074, Note_off_c, 0, 66, 100
1, 6074, Note_on_c, 0, 61, 100
1, 6138, Note_off_c, 0, 61, 100
1, 6138, Note_on_c, 0, 64, 100
1, 6202, Note_off_c, 0, 64, 100
1, 6202, Note_on_c, 0, 59, 100
1, 6266, Note_off_c, 0, 59, 100
1, 6266, Note_on_c, 0, 61, 100
1, 6330, Note_off_c, 0, 61, 100
1, 6330, Note_on_c, 0, 56, 100
1, 6394, Note_off_c, 0, 56, 100
1, 6394, Note_on_c, 0, 58, 100
1, 6458, Note_off_c, 0, 58, 100
1, 6458, Note_on_c, 0, 54, 100
1, 6522, Note_off_c, 0, 54, 100
1, 6522, Note_on_c, 0, 56, 100
1, 6598, Note_off_c, 0, 56, 100
1, 6598, Note_on_c, 0, 52, 100
1, 6636, Note_off_c, 0, 52, 100
1, 6636, Note_on_c, 0, 54, 100
1, 6674, Note_off_c, 0, 54, 100
1, 6674, Note_on_c, 0, 49, 100
1, 6760, Note_off_c, 0, 49, 100
1, 6760, Note_on_c, 0, 52, 100
1, 6808, Note_off_c, 0, 52, 100
1, 6808, Note_on_c, 0, 54, 100
1, 6856, Note_off_c, 0, 54, 100
1, 6856, Note_on_c, 0, 56, 100
1, 6904, Note_off_c, 0, 56, 100
1, 6904, Note_on_c, 0, 58, 100
1, 7000, Note_off_c, 0, 58, 100
1, 7000, Note_on_c, 0, 59, 100
1, 7048, Note_off_c, 0, 59, 100
1, 7048, Note_on_c, 0, 61, 100
1, 7144, Note_off_c, 0, 61, 100
1, 7144, Note_on_c, 0, 64, 100
1, 7192, Note_off_c, 0, 64, 100
1, 7192, Note_on_c, 0, 67, 100
1, 7288, Note_off_c, 0, 67, 100
1, 7288, Note_on_c, 0, 68, 100
1, 7336, Note_off_c, 0, 68, 100
1, 7336, Note_on_c, 0, 70, 100
1, 7480, Note_off_c, 0, 70, 100
1, 7480, Note_on_c, 0, 67, 100
1, 7518, Note_off_c, 0, 67, 100
1, 7518, Note_on_c, 0, 68, 100
1, 7594, Note_off_c, 0, 68, 100
1, 7594, Note_on_c, 0, 66, 100
1, 7632, Note_off_c, 0, 66, 100
1, 7632, Note_on_c, 0, 67, 100
1, 7766, Note_off_c, 0, 67, 100
1, 7766, Note_on_c, 0, 65, 100
1, 7862, Note_off_c, 0, 65, 100
1, 7862, Note_on_c, 0, 63, 100
1, 7958, Note_off_c, 0, 63, 100
1, 7958, Note_on_c, 0, 60, 100
1, 8054, Note_off_c, 0, 60, 100
1, 8054, Note_on_c, 0, 58, 100
1, 8150, Note_off_c, 0, 58, 100
1, 8150, Note_on_c, 0, 56, 100
1, 8246, Note_off_c, 0, 56, 100
1, 8246, Note_on_c, 0, 55, 100
1, 8342, Note_off_c, 0, 55, 100
1, 8342, Note_on_c, 0, 51, 100
1, 8438, Note_off_c, 0, 51, 100
1, 8438, Note_on_c, 0, 60, 100
1, 8534, Note_off_c, 0, 60, 100
1, 8534, Note_on_c, 0, 57, 100
1, 8582, Note_off_c, 0, 57, 100
1, 8582, Note_on_c, 0, 53, 100
1, 8630, Note_off_c, 0, 53, 100
1, 8630, Note_on_c, 0, 50, 100
1, 8774, Note_off_c, 0, 50, 100
1, 8774, Note_on_c, 0, 59, 100
1, 8966, Note_off_c, 0, 59, 100
1, 9436, Note_on_c, 0, 61, 100
1, 9474, Note_off_c, 0, 61, 100
1, 9474, Note_on_c, 0, 64, 100
1, 9512, Note_off_c, 0, 64, 100
1, 9512, Note_on_c, 0, 66, 100
1, 9550, Note_off_c, 0, 66, 100
1, 9550, Note_on_c, 0, 68, 100
1, 9588, Note_off_c, 0, 68, 100
1, 9588, Note_on_c, 0, 71, 100
1, 9626, Note_off_c, 0, 71, 100
1, 9626, Note_on_c, 0, 70, 100
1, 9741, Note_off_c, 0, 70, 100
1, 9741, Note_on_c, 0, 68, 100
1, 9779, Note_off_c, 0, 68, 100
1, 9779, Note_on_c, 0, 66, 100
1, 9875, Note_off_c, 0, 66, 100
1, 9875, Note_on_c, 0, 64, 100
1, 10009, Note_off_c, 0, 64, 100
1, 10009, Note_on_c, 0, 63, 100
1, 10047, Note_off_c, 0, 63, 100
1, 10047, Note_on_c, 0, 66, 100
1, 10085, Note_off_c, 0, 66, 100
1, 10085, Note_on_c, 0, 63, 100
1, 10123, Note_off_c, 0, 63, 100
1, 10123, Note_on_c, 0, 61, 100
1, 10161, Note_off_c, 0, 61, 100
1, 10161, Note_on_c, 0, 60, 100
1, 10257, Note_off_c, 0, 60, 100
1, 10257, Note_on_c, 0, 58, 100
1, 10353, Note_off_c, 0, 58, 100
1, 10353, Note_on_c, 0, 56, 100
1, 10401, Note_off_c, 0, 56, 100
1, 10401, Note_on_c, 0, 60, 100
1, 10449, Note_off_c, 0, 60, 100
1, 10449, Note_on_c, 0, 63, 100
1, 10497, Note_off_c, 0, 63, 100
1, 10497, Note_on_c, 0, 67, 100
1, 10545, Note_off_c, 0, 67, 100
1, 10545, Note_on_c, 0, 62, 100
1, 10689, Note_off_c, 0, 62, 100
1, 10689, Note_on_c, 0, 60, 100
1, 10737, Note_off_c, 0, 60, 100
1, 10737, Note_on_c, 0, 65, 100
1, 10881, Note_off_c, 0, 65, 100
1, 10881, Note_on_c, 0, 63, 100
1, 11073, Note_off_c, 0, 63, 100
1, 11073, Note_on_c, 0, 55, 100
1, 11169, Note_off_c, 0, 55, 100
1, 11169, Note_on_c, 0, 54, 100
1, 11313, Note_off_c, 0, 54, 100
1, 11313, Note_on_c, 0, 62, 100
1, 11457, Note_off_c, 0, 62, 100
1, 11457, Note_on_c, 0, 60, 100
1, 11505, Note_off_c, 0, 60, 100
1, 11505, Note_on_c, 0, 57, 100
1, 11649, Note_off_c, 0, 57, 100
1, 11649, Note_on_c, 0, 47, 100
1, 11697, Note_off_c, 0, 47, 100
1, 11697, Note_on_c, 0, 51, 100
1, 11793, Note_off_c, 0, 51, 100
1, 11793, Note_on_c, 0, 55, 100
1, 11889, Note_off_c, 0, 55, 100
1, 11889, Note_on_c, 0, 54, 100
1, 12033, Note_off_c, 0, 54, 100
1, 12033, Note_on_c, 0, 57, 100
1, 12129, Note_off_c, 0, 57, 100
1, 12129, Note_on_c, 0, 61, 100
1, 12225, Note_off_c, 0, 61, 100
1, 12225, Note_on_c, 0, 64, 100
1, 12273, Note_off_c, 0, 64, 100
1, 12273, Note_on_c, 0, 66, 100
1, 12465, Note_off_c, 0, 66, 100
1, 12465, Note_on_c, 0, 61, 100
1, 12561, Note_off_c, 0, 61, 100
1, 12561, Note_on_c, 0, 68, 100
1, 12753, Note_off_c, 0, 68, 100
1, 12993, Note_on_c, 0, 70, 100
1, 13041, Note_off_c, 0, 70, 100
1, 13041, Note_on_c, 0, 66, 100
1, 13079, Note_off_c, 0, 66, 100
1, 13079, Note_on_c, 0, 63, 100
1, 13117, Note_off_c, 0, 63, 100
1, 13117, Note_on_c, 0, 61, 100
1, 13155, Note_off_c, 0, 61, 100
1, 13155, Note_on_c, 0, 58, 100
1, 13193, Note_off_c, 0, 58, 100
1, 13193, Note_on_c, 0, 56, 100
1, 13231, Note_off_c, 0, 56, 100
1, 13231, Note_on_c, 0, 58, 100
1, 13327, Note_off_c, 0, 58, 100
1, 13903, Note_on_c, 0, 72, 100
1, 13951, Note_off_c, 0, 72, 100
1, 13951, Note_on_c, 0, 73, 100
1, 14095, Note_off_c, 0, 73, 100
1, 14095, Note_on_c, 0, 64, 100
1, 14119, Note_off_c, 0, 64, 100
1, 14119, Note_on_c, 0, 63, 100
1, 14143, Note_off_c, 0, 63, 100
1, 14143, Note_on_c, 0, 62, 100
1, 14167, Note_off_c, 0, 62, 100
1, 14167, Note_on_c, 0, 61, 100
1, 14191, Note_off_c, 0, 61, 100
1, 14191, Note_on_c, 0, 59, 100
1, 14287, Note_off_c, 0, 59, 100
1, 14287, Note_on_c, 0, 61, 100
1, 14863, Note_off_c, 0, 61, 100
1, 15151, Note_on_c, 0, 70, 100
1, 15343, Note_off_c, 0, 70, 100
1, 15343, Note_on_c, 0, 70, 100
1, 15463, Note_off_c, 0, 70, 100
1, 15463, Note_on_c, 0, 68, 100
1, 15487, Note_off_c, 0, 68, 100
1, 15487, Note_on_c, 0, 66, 100
1, 15511, Note_off_c, 0, 66, 100
1, 15511, Note_on_c, 0, 63, 100
1, 15535, Note_off_c, 0, 63, 100
1, 15535, Note_on_c, 0, 61, 100
1, 15583, Note_off_c, 0, 61, 100
1, 15583, Note_on_c, 0, 58, 100
1, 15631, Note_off_c, 0, 58, 100
1, 15631, Note_on_c, 0, 56, 100
1, 15727, Note_off_c, 0, 56, 100
1, 15727, Note_on_c, 0, 58, 100
1, 16063, Note_off_c, 0, 58, 100
1, 16063, Note_on_c, 0, 67, 100
1, 16175, Note_off_c, 0, 67, 100
1, 16175, Note_on_c, 0, 63, 100
1, 16207, Note_off_c, 0, 63, 100
1, 16207, Note_on_c, 0, 60, 100
1, 16239, Note_off_c, 0, 60, 100
1, 16239, Note_on_c, 0, 58, 100
1, 16271, Note_off_c, 0, 58, 100
1, 16271, Note_on_c, 0, 55, 100
1, 16303, Note_off_c, 0, 55, 100
1, 16303, Note_on_c, 0, 53, 100
1, 16399, Note_off_c, 0, 53, 100
1, 16399, Note_on_c, 0, 55, 100
1, 16639, Note_off_c, 0, 55, 100
1, 16639, Note_on_c, 0, 54, 100
1, 16687, Note_off_c, 0, 54, 100
1, 16687, Note_on_c, 0, 55, 100
1, 16735, Note_off_c, 0, 55, 100
1, 16735, Note_on_c, 0, 51, 100
1, 16831, Note_off_c, 0, 51, 100
1, 16831, Note_on_c, 0, 53, 100
1, 17023, Note_off_c, 0, 53, 100
1, 17599, Note_on_c, 0, 59, 100
1, 17647, Note_off_c, 0, 59, 100
1, 17647, Note_on_c, 0, 58, 100
1, 17695, Note_off_c, 0, 58, 100
1, 17695, Note_on_c, 0, 56, 100
1, 17839, Note_off_c, 0, 56, 100
1, 17839, Note_on_c, 0, 53, 100
1, 17887, Note_off_c, 0, 53, 100
1, 17887, Note_on_c, 0, 56, 100
1, 17935, Note_off_c, 0, 56, 100
1, 17935, Note_on_c, 0, 54, 100
1, 17983, Note_off_c, 0, 54, 100
1, 17983, Note_on_c, 0, 53, 100
1, 18031, Note_off_c, 0, 53, 100
1, 18031, Note_on_c, 0, 56, 100
1, 18069, Note_off_c, 0, 56, 100
1, 18069, Note_on_c, 0, 59, 100
1, 18107, Note_off_c, 0, 59, 100
1, 18107, Note_on_c, 0, 56, 100
1, 18145, Note_off_c, 0, 56, 100
1, 18145, Note_on_c, 0, 63, 100
1, 18183, Note_off_c, 0, 63, 100
1, 18183, Note_on_c, 0, 62, 100
1, 18221, Note_off_c, 0, 62, 100
1, 18221, Note_on_c, 0, 61, 100
1, 18285, Note_off_c, 0, 61, 100
1, 18285, Note_on_c, 0, 59, 100
1, 18349, Note_off_c, 0, 59, 100
1, 18349, Note_on_c, 0, 58, 100
1, 18413, Note_off_c, 0, 58, 100
1, 18413, Note_on_c, 0, 54, 100
1, 18461, Note_off_c, 0, 54, 100
1, 18461, Note_on_c, 0, 56, 100
1, 18557, Note_off_c, 0, 56, 100
1, 18557, Note_on_c, 0, 52, 100
1, 18653, Note_off_c, 0, 52, 100
1, 18653, Note_on_c, 0, 52, 100
1, 18749, Note_off_c, 0, 52, 100
1, 19373, Note_on_c, 0, 47, 100
1, 19437, Note_off_c, 0, 47, 100
1, 19437, Note_on_c, 0, 52, 100
1, 19501, Note_off_c, 0, 52, 100
1, 19501, Note_on_c, 0, 57, 100
1, 19565, Note_off_c, 0, 57, 100
1, 19565, Note_on_c, 0, 54, 100
1, 19661, Note_off_c, 0, 54, 100
1, 19661, Note_on_c, 0, 59, 100
1, 19709, Note_off_c, 0, 59, 100
1, 19709, Note_on_c, 0, 64, 100
1, 19853, Note_off_c, 0, 64, 100
1, 19853, Note_on_c, 0, 66, 100
1, 19901, Note_off_c, 0, 66, 100
1, 19901, Note_on_c, 0, 71, 100
1, 19949, Note_off_c, 0, 71, 100
1, 19949, Note_on_c, 0, 68, 100
1, 20045, Note_off_c, 0, 68, 100
1, 20237, Note_on_c, 0, 63, 100
1, 20285, Note_off_c, 0, 63, 100
1, 20285, Note_on_c, 0, 66, 100
1, 20397, Note_off_c, 0, 66, 100
1, 20397, Note_on_c, 0, 63, 100
1, 20461, Note_off_c, 0, 63, 100
1, 20461, Note_on_c, 0, 64, 100
1, 20525, Note_off_c, 0, 64, 100
1, 20525, Note_on_c, 0, 61, 100
1, 20589, Note_off_c, 0, 61, 100
1, 20589, Note_on_c, 0, 59, 100
1, 20653, Note_off_c, 0, 59, 100
1, 20653, Note_on_c, 0, 56, 100
1, 20717, Note_off_c, 0, 56, 100
1, 20717, Note_on_c, 0, 52, 100
1, 20813, Note_off_c, 0, 52, 100
1, 20957, Note_on_c, 0, 52, 100
1, 21005, Note_off_c, 0, 52, 100
1, 21005, Note_on_c, 0, 54, 100
1, 21053, Note_off_c, 0, 54, 100
1, 21053, Note_on_c, 0, 56, 100
1, 21101, Note_off_c, 0, 56, 100
1, 21101, Note_on_c, 0, 59, 100
1, 21165, Note_off_c, 0, 59, 100
1, 21165, Note_on_c, 0, 56, 100
1, 21229, Note_off_c, 0, 56, 100
1, 21229, Note_on_c, 0, 58, 100
1, 21437, Note_off_c, 0, 58, 100
1, 21437, Note_on_c, 0, 58, 100
1, 21485, Note_off_c, 0, 58, 100
1, 21485, Note_on_c, 0, 55, 100
1, 21581, Note_off_c, 0, 55, 100
1, 21869, Note_on_c, 0, 55, 100
1, 21917, Note_off_c, 0, 55, 100
1, 21917, Note_on_c, 0, 58, 100
1, 21965, Note_off_c, 0, 58, 100
1, 21965, Note_on_c, 0, 59, 100
1, 22013, Note_off_c, 0, 59, 100
1, 22013, Note_on_c, 0, 58, 100
1, 22061, Note_off_c, 0, 58, 100
1, 22061, Note_on_c, 0, 55, 100
1, 22109, Note_off_c, 0, 55, 100
1, 22109, Note_on_c, 0, 56, 100
1, 22253, Note_off_c, 0, 56, 100
1, 22253, Note_on_c, 0, 58, 100
1, 22301, Note_off_c, 0, 58, 100
1, 22301, Note_on_c, 0, 59, 100
1, 22397, Note_off_c, 0, 59, 100
1, 22397, Note_on_c, 0, 62, 100
1, 22445, Note_off_c, 0, 62, 100
1, 22445, Note_on_c, 0, 65, 100
1, 22541, Note_off_c, 0, 65, 100
1, 22541, Note_on_c, 0, 62, 100
1, 22637, Note_off_c, 0, 62, 100
1, 22637, Note_on_c, 0, 69, 100
1, 22733, Note_off_c, 0, 69, 100
1, 22733, Note_on_c, 0, 67, 100
1, 22829, Note_off_c, 0, 67, 100
1, 22829, Note_on_c, 0, 65, 100
1, 22925, Note_off_c, 0, 65, 100
1, 22925, Note_on_c, 0, 62, 100
1, 23021, Note_off_c, 0, 62, 100
1, 23021, Note_on_c, 0, 64, 100
1, 23117, Note_off_c, 0, 64, 100
1, 23117, Note_on_c, 0, 66, 100
1, 23213, Note_off_c, 0, 66, 100
1, 23213, Note_on_c, 0, 68, 100
1, 23309, Note_off_c, 0, 68, 100
1, 23309, Note_on_c, 0, 70, 100
1, 23405, Note_off_c, 0, 70, 100
1, 23405, Note_on_c, 0, 63, 100
1, 23501, Note_off_c, 0, 63, 100
1, 23501, Note_on_c, 0, 65, 100
1, 23597, Note_off_c, 0, 65, 100
1, 23597, Note_on_c, 0, 67, 100
1, 23693, Note_off_c, 0, 67, 100
1, 23693, Note_on_c, 0, 69, 100
1, 23837, Note_off_c, 0, 69, 100
1, 23837, Note_on_c, 0, 60, 100
1, 23933, Note_off_c, 0, 60, 100
1, 23933, Note_on_c, 0, 62, 100
1, 24029, Note_off_c, 0, 62, 100
1, 24029, Note_on_c, 0, 63, 100
1, 24125, Note_off_c, 0, 63, 100
1, 24125, Note_on_c, 0, 65, 100
1, 24221, Note_off_c, 0, 65, 100
1, 24221, Note_on_c, 0, 67, 100
1, 24317, Note_off_c, 0, 67, 100
1, 24317, Note_on_c, 0, 63, 100
1, 24365, Note_off_c, 0, 63, 100
1, 24365, Note_on_c, 0, 62, 100
1, 24509, Note_off_c, 0, 62, 100
1, 24509, Note_on_c, 0, 60, 100
1, 24557, Note_off_c, 0, 60, 100
1, 24557, Note_on_c, 0, 66, 100
1, 24989, Note_off_c, 0, 66, 100
1, 24989, Note_on_c, 0, 65, 100
1, 25277, Note_off_c, 0, 65, 100
1, 25277, Note_on_c, 0, 63, 100
1, 25373, Note_off_c, 0, 63, 100
1, 25373, Note_on_c, 0, 63, 100
1, 25421, Note_off_c, 0, 63, 100
1, 25421, Note_on_c, 0, 62, 100
1, 25469, Note_off_c, 0, 62, 100
1, 25469, Note_on_c, 0, 60, 100
1, 25565, Note_off_c, 0, 60, 100
1, 25565, Note_on_c, 0, 58, 100
1, 25661, Note_off_c, 0, 58, 100
1, 25661, Note_on_c, 0, 55, 100
1, 25709, Note_off_c, 0, 55, 100
1, 25709, Note_on_c, 0, 57, 100
1, 25853, Note_off_c, 0, 57, 100
1, 25853, Note_on_c, 0, 53, 100
1, 25949, Note_off_c, 0, 53, 100
1, 26285, Note_on_c, 0, 69, 100
1, 26333, Note_off_c, 0, 69, 100
1, 26333, Note_on_c, 0, 66, 100
1, 26381, Note_off_c, 0, 66, 100
1, 26381, Note_on_c, 0, 62, 100
1, 26429, Note_off_c, 0, 62, 100
1, 26429, Note_on_c, 0, 59, 100
1, 26573, Note_off_c, 0, 59, 100
1, 26573, Note_on_c, 0, 71, 100
1, 26621, Note_off_c, 0, 71, 100
1, 26621, Note_on_c, 0, 68, 100
1, 26669, Note_off_c, 0, 68, 100
1, 26669, Note_on_c, 0, 64, 100
1, 26717, Note_off_c, 0, 64, 100
1, 26717, Note_on_c, 0, 61, 100
1, 26813, Note_off_c, 0, 61, 100
1, 28301, Note_on_c, 0, 71, 100
1, 28349, Note_off_c, 0, 71, 100
1, 28349, Note_on_c, 0, 69, 100
1, 28397, Note_off_c, 0, 69, 100
1, 28397, Note_on_c, 0, 68, 100
1, 28541, Note_off_c, 0, 68, 100
1, 28541, Note_on_c, 0, 71, 100
1, 28589, Note_off_c, 0, 71, 100
1, 28589, Note_on_c, 0, 69, 100
1, 28627, Note_off_c, 0, 69, 100
1, 28627, Note_on_c, 0, 68, 100
1, 28742, Note_off_c, 0, 68, 100
1, 28742, Note_on_c, 0, 71, 100
1, 28780, Note_off_c, 0, 71, 100
1, 28780, Note_on_c, 0, 69, 100
1, 28818, Note_off_c, 0, 69, 100
1, 28818, Note_on_c, 0, 68, 100
1, 28933, Note_off_c, 0, 68, 100
1, 28933, Note_on_c, 0, 66, 100
1, 28971, Note_off_c, 0, 66, 100
1, 28971, Note_on_c, 0, 65, 100
1, 29115, Note_off_c, 0, 65, 100
1, 29115, Note_on_c, 0, 68, 100
1, 29163, Note_off_c, 0, 68, 100
1, 29163, Note_on_c, 0, 66, 100
1, 29190, Note_off_c, 0, 66, 100
1, 29190, Note_on_c, 0, 65, 100
1, 29327, Note_off_c, 0, 65, 100
1, 29327, Note_on_c, 0, 68, 100
1, 29354, Note_off_c, 0, 68, 100
1, 29354, Note_on_c, 0, 66, 100
1, 29402, Note_off_c, 0, 66, 100
1, 29402, Note_on_c, 0, 65, 100
1, 29498, Note_off_c, 0, 65, 100
1, 29498, Note_on_c, 0, 68, 100
1, 29546, Note_off_c, 0, 68, 100
1, 29546, Note_on_c, 0, 66, 100
1, 29594, Note_off_c, 0, 66, 100
1, 29594, Note_on_c, 0, 65, 100
1, 29690, Note_off_c, 0, 65, 100
1, 29690, Note_on_c, 0, 65, 100
1, 29738, Note_off_c, 0, 65, 100
1, 29738, Note_on_c, 0, 63, 100
1, 29786, Note_off_c, 0, 63, 100
1, 29786, Note_on_c, 0, 62, 100
1, 29930, Note_off_c, 0, 62, 100
1, 29930, Note_on_c, 0, 65, 100
1, 29978, Note_off_c, 0, 65, 100
1, 29978, Note_on_c, 0, 63, 100
1, 30026, Note_off_c, 0, 63, 100
1, 30026, Note_on_c, 0, 62, 100
1, 30122, Note_off_c, 0, 62, 100
1, 30122, Note_on_c, 0, 65, 100
1, 30154, Note_off_c, 0, 65, 100
1, 30154, Note_on_c, 0, 63, 100
1, 30186, Note_off_c, 0, 63, 100
1, 30186, Note_on_c, 0, 62, 100
1, 30282, Note_off_c, 0, 62, 100
1, 30282, Note_on_c, 0, 65, 100
1, 30314, Note_off_c, 0, 65, 100
1, 30314, Note_on_c, 0, 63, 100
1, 30362, Note_off_c, 0, 63, 100
1, 30362, Note_on_c, 0, 62, 100
1, 30458, Note_off_c, 0, 62, 100
1, 30458, Note_on_c, 0, 58, 100
1, 30762, Note_off_c, 0, 58, 100
1, 30762, Note_on_c, 0, 58, 100
1, 30890, Note_off_c, 0, 58, 100
1, 30890, Note_on_c, 0, 58, 100
1, 31130, Note_off_c, 0, 58, 100
1, 31130, Note_on_c, 0, 59, 100
1, 31226, Note_off_c, 0, 59, 100
1, 31226, Note_on_c, 0, 53, 100
1, 31514, Note_off_c, 0, 53, 100
1, 31514, Note_on_c, 0, 53, 100
1, 31610, Note_off_c, 0, 53, 100
1, 31610, Note_on_c, 0, 51, 100
1, 31706, Note_off_c, 0, 51, 100
1, 31706, Note_on_c, 0, 46, 100
1, 31802, Note_off_c, 0, 46, 100
1, 31802, Note_on_c, 0, 44, 100
1, 31994, Note_off_c, 0, 44, 100
1, 31994, Note_on_c, 0, 58, 100
1, 32042, Note_off_c, 0, 58, 100
1, 32042, Note_on_c, 0, 56, 100
1, 32234, Note_off_c, 0, 56, 100
1, 32234, Note_on_c, 0, 54, 100
1, 32426, Note_off_c, 0, 54, 100
1, 32426, Note_on_c, 0, 56, 100
1, 32554, Note_off_c, 0, 56, 100
1, 32554, Note_on_c, 0, 52, 100
1, 32746, Note_off_c, 0, 52, 100
1, 33242, Note_on_c, 0, 64, 100
1, 33290, Note_off_c, 0, 64, 100
1, 33290, Note_on_c, 0, 66, 100
1, 33338, Note_off_c, 0, 66, 100
1, 33338, Note_on_c, 0, 68, 100
1, 33386, Note_off_c, 0, 68, 100
1, 33386, Note_on_c, 0, 70, 100
1, 33482, Note_off_c, 0, 70, 100
1, 33914, Note_on_c, 0, 70, 100
1, 33962, Note_off_c, 0, 70, 100
1, 33962, Note_on_c, 0, 68, 100
1, 34010, Note_off_c, 0, 68, 100
1, 34010, Note_on_c, 0, 66, 100
1, 34058, Note_off_c, 0, 66, 100
1, 34058, Note_on_c, 0, 64, 100
1, 34106, Note_off_c, 0, 64, 100
1, 34106, Note_on_c, 0, 70, 100
1, 34154, Note_off_c, 0, 70, 100
1, 34154, Note_on_c, 0, 68, 100
1, 34192, Note_off_c, 0, 68, 100
1, 34192, Note_on_c, 0, 66, 100
1, 34230, Note_off_c, 0, 66, 100
1, 34230, Note_on_c, 0, 64, 100
1, 34268, Note_off_c, 0, 64, 100
1, 34268, Note_on_c, 0, 70, 100
1, 34306, Note_off_c, 0, 70, 100
1, 34306, Note_on_c, 0, 67, 100
1, 34344, Note_off_c, 0, 67, 100
1, 34344, Note_on_c, 0, 68, 100
1, 34382, Note_off_c, 0, 68, 100
1, 34382, Note_on_c, 0, 66, 100
1, 34420, Note_off_c, 0, 66, 100
1, 34420, Note_on_c, 0, 64, 100
1, 34458, Note_off_c, 0, 64, 100
1, 34458, Note_on_c, 0, 70, 100
1, 34496, Note_off_c, 0, 70, 100
1, 34496, Note_on_c, 0, 68, 100
1, 34534, Note_off_c, 0, 68, 100
1, 34534, Note_on_c, 0, 66, 100
1, 34582, Note_off_c, 0, 66, 100
1, 34582, Note_on_c, 0, 64, 100
1, 34630, Note_off_c, 0, 64, 100
1, 34630, Note_on_c, 0, 70, 100
1, 34678, Note_off_c, 0, 70, 100
1, 34678, Note_on_c, 0, 68, 100
1, 34726, Note_off_c, 0, 68, 100
1, 34726, Note_on_c, 0, 66, 100
1, 34774, Note_off_c, 0, 66, 100
1, 34774, Note_on_c, 0, 64, 100
1, 34822, Note_off_c, 0, 64, 100
1, 34822, Note_on_c, 0, 70, 100
1, 34870, Note_off_c, 0, 70, 100
1, 34870, Note_on_c, 0, 68, 100
1, 34918, Note_off_c, 0, 68, 100
1, 34918, Note_on_c, 0, 66, 100
1, 34950, Note_off_c, 0, 66, 100
1, 34950, Note_on_c, 0, 64, 100
1, 35014, Note_off_c, 0, 64, 100
1, 35014, Note_on_c, 0, 69, 100
1, 35046, Note_off_c, 0, 69, 100
1, 35046, Note_on_c, 0, 68, 100
1, 35078, Note_off_c, 0, 68, 100
1, 35078, Note_on_c, 0, 66, 100
1, 35110, Note_off_c, 0, 66, 100
1, 35110, Note_on_c, 0, 64, 100
1, 35158, Note_off_c, 0, 64, 100
1, 35158, Note_on_c, 0, 70, 100
1, 35206, Note_off_c, 0, 70, 100
1, 35206, Note_on_c, 0, 68, 100
1, 35254, Note_off_c, 0, 68, 100
1, 35254, Note_on_c, 0, 66, 100
1, 35334, Note_off_c, 0, 66, 100
1, 35334, Note_on_c, 0, 64, 100
1, 35366, Note_off_c, 0, 64, 100
1, 35366, Note_on_c, 0, 70, 100
1, 35398, Note_off_c, 0, 70, 100
1, 35398, Note_on_c, 0, 68, 100
1, 35430, Note_off_c, 0, 68, 100
1, 35430, Note_on_c, 0, 67, 100
1, 35462, Note_off_c, 0, 67, 100
1, 35462, Note_on_c, 0, 65, 100
1, 35494, Note_off_c, 0, 65, 100
1, 35494, Note_on_c, 0, 63, 100
1, 35590, Note_off_c, 0, 63, 100
1, 35590, Note_on_c, 0, 70, 100
1, 35638, Note_off_c, 0, 70, 100
1, 35638, Note_on_c, 0, 68, 100
1, 35686, Note_off_c, 0, 68, 100
1, 35686, Note_on_c, 0, 67, 100
1, 35724, Note_off_c, 0, 67, 100
1, 35724, Note_on_c, 0, 65, 100
1, 35762, Note_off_c, 0, 65, 100
1, 35762, Note_on_c, 0, 63, 100
1, 35800, Note_off_c, 0, 63, 100
1, 35800, Note_on_c, 0, 70, 100
1, 35838, Note_off_c, 0, 70, 100
1, 35838, Note_on_c, 0, 68, 100
1, 35876, Note_off_c, 0, 68, 100
1, 35876, Note_on_c, 0, 67, 100
1, 35914, Note_off_c, 0, 67, 100
1, 35914, Note_on_c, 0, 65, 100
1, 35952, Note_off_c, 0, 65, 100
1, 35952, Note_on_c, 0, 63, 100
1, 35990, Note_off_c, 0, 63, 100
1, 35990, Note_on_c, 0, 70, 100
1, 36028, Note_off_c, 0, 70, 100
1, 36028, Note_on_c, 0, 68, 100
1, 36066, Note_off_c, 0, 68, 100
1, 36066, Note_on_c, 0, 67, 100
1, 36114, Note_off_c, 0, 67, 100
1, 36114, Note_on_c, 0, 65, 100
1, 36162, Note_off_c, 0, 65, 100
1, 36162, Note_on_c, 0, 63, 100
1, 36210, Note_off_c, 0, 63, 100
1, 36210, Note_on_c, 0, 62, 100
1, 36290, Note_off_c, 0, 62, 100
1, 36290, Note_on_c, 0, 68, 100
1, 36322, Note_off_c, 0, 68, 100
1, 36322, Note_on_c, 0, 67, 100
1, 36354, Note_off_c, 0, 67, 100
1, 36354, Note_on_c, 0, 65, 100
1, 36386, Note_off_c, 0, 65, 100
1, 36386, Note_on_c, 0, 63, 100
1, 36418, Note_off_c, 0, 63, 100
1, 36418, Note_on_c, 0, 62, 100
1, 36450, Note_off_c, 0, 62, 100
1, 36450, Note_on_c, 0, 68, 100
1, 36488, Note_off_c, 0, 68, 100
1, 36488, Note_on_c, 0, 67, 100
1, 36526, Note_off_c, 0, 67, 100
1, 36526, Note_on_c, 0, 65, 100
1, 36564, Note_off_c, 0, 65, 100
1, 36564, Note_on_c, 0, 63, 100
1, 36602, Note_off_c, 0, 63, 100
1, 36602, Note_on_c, 0, 62, 100
1, 36640, Note_off_c, 0, 62, 100
1, 36640, Note_on_c, 0, 68, 100
1, 36664, Note_off_c, 0, 68, 100
1, 36664, Note_on_c, 0, 67, 100
1, 36688, Note_off_c, 0, 67, 100
1, 36688, Note_on_c, 0, 65, 100
1, 36712, Note_off_c, 0, 65, 100
1, 36712, Note_on_c, 0, 63, 100
1, 36736, Note_off_c, 0, 63, 100
1, 36736, Note_on_c, 0, 62, 100
1, 36784, Note_off_c, 0, 62, 100
1, 36784, Note_on_c, 0, 68, 100
1, 36832, Note_off_c, 0, 68, 100
1, 36832, Note_on_c, 0, 67, 100
1, 36880, Note_off_c, 0, 67, 100
1, 36880, Note_on_c, 0, 66, 100
1, 36928, Note_off_c, 0, 66, 100
1, 36928, Note_on_c, 0, 64, 100
1, 37120, Note_off_c, 0, 64, 100
1, 38032, Note_on_c, 0, 62, 100
1, 38080, Note_off_c, 0, 62, 100
1, 38080, Note_on_c, 0, 66, 100
1, 38128, Note_off_c, 0, 66, 100
1, 38128, Note_on_c, 0, 61, 100
1, 38176, Note_off_c, 0, 61, 100
1, 38176, Note_on_c, 0, 62, 100
1, 38224, Note_off_c, 0, 62, 100
1, 38224, Note_on_c, 0, 65, 100
1, 38272, Note_off_c, 0, 65, 100
1, 38272, Note_on_c, 0, 63, 100
1, 38512, Note_off_c, 0, 63, 100
1, 38512, Note_on_c, 0, 62, 100
1, 38560, Note_off_c, 0, 62, 100
1, 38560, Note_on_c, 0, 60, 100
1, 38608, Note_off_c, 0, 60, 100
1, 38608, Note_on_c, 0, 55, 100
1, 38704, Note_off_c, 0, 55, 100
1, 38704, Note_on_c, 0, 56, 100
1, 38752, Note_off_c, 0, 56, 100
1, 38752, Note_on_c, 0, 57, 100
1, 38800, Note_off_c, 0, 57, 100
1, 38800, Note_on_c, 0, 48, 100
1, 38848, Note_off_c, 0, 48, 100
1, 38848, Note_on_c, 0, 63, 100
1, 38896, Note_off_c, 0, 63, 100
1, 38896, Note_on_c, 0, 67, 100
1, 38944, Note_off_c, 0, 67, 100
1, 38944, Note_on_c, 0, 65, 100
1, 38992, Note_off_c, 0, 65, 100
1, 38992, Note_on_c, 0, 62, 100
1, 39040, Note_off_c, 0, 62, 100
1, 39040, Note_on_c, 0, 58, 100
1, 39088, Note_off_c, 0, 58, 100
1, 39088, Note_on_c, 0, 63, 100
1, 39136, Note_off_c, 0, 63, 100
1, 39136, Note_on_c, 0, 62, 100
1, 39174, Note_off_c, 0, 62, 100
1, 39174, Note_on_c, 0, 58, 100
1, 39212, Note_off_c, 0, 58, 100
1, 39212, Note_on_c, 0, 55, 100
1, 39250, Note_off_c, 0, 55, 100
1, 39250, Note_on_c, 0, 53, 100
1, 39288, Note_off_c, 0, 53, 100
1, 39288, Note_on_c, 0, 60, 100
1, 39374, Note_off_c, 0, 60, 100
1, 39374, Note_on_c, 0, 57, 100
1, 39422, Note_off_c, 0, 57, 100
1, 39422, Note_on_c, 0, 58, 100
1, 39470, Note_off_c, 0, 58, 100
1, 39470, Note_on_c, 0, 62, 100
1, 39518, Note_off_c, 0, 62, 100
1, 39518, Note_on_c, 0, 69, 100
1, 39566, Note_off_c, 0, 69, 100
1, 39566, Note_on_c, 0, 67, 100
1, 39614, Note_off_c, 0, 67, 100
1, 39614, Note_on_c, 0, 65, 100
1, 39662, Note_off_c, 0, 65, 100
1, 39662, Note_on_c, 0, 63, 100
1, 39710, Note_off_c, 0, 63, 100
1, 39710, Note_on_c, 0, 62, 100
1, 39758, Note_off_c, 0, 62, 100
1, 39758, Note_on_c, 0, 60, 100
1, 39806, Note_off_c, 0, 60, 100
1, 39806, Note_on_c, 0, 58, 100
1, 39854, Note_off_c, 0, 58, 100
1, 39854, Note_on_c, 0, 59, 100
1, 39998, Note_off_c, 0, 59, 100
1, 39998, Note_on_c, 0, 54, 100
1, 40158, Note_off_c, 0, 54, 100
1, 40158, Note_on_c, 0, 50, 100
1, 40286, Note_off_c, 0, 50, 100
1, 40286, Note_on_c, 0, 56, 100
1, 40478, Note_off_c, 0, 56, 100
1, 41150, Note_on_c, 0, 71, 100
1, 41726, Note_off_c, 0, 71, 100
1, 41726, Note_on_c, 0, 69, 100
1, 41822, Note_off_c, 0, 69, 100
1, 41822, Note_on_c, 0, 71, 100
1, 41918, Note_off_c, 0, 71, 100
1, 41918, Note_on_c, 0, 73, 100
1, 42446, Note_off_c, 0, 73, 100
1, 42446, Note_on_c, 0, 71, 100
1, 42542, Note_off_c, 0, 71, 100
1, 42542, Note_on_c, 0, 69, 100
1, 42638, Note_off_c, 0, 69, 100
1, 42638, Note_on_c, 0, 68, 100
1, 42734, Note_off_c, 0, 68, 100
1, 42734, Note_on_c, 0, 66, 100
1, 42782, Note_off_c, 0, 66, 100
1, 42782, Note_on_c, 0, 64, 100
1, 42878, Note_off_c, 0, 64, 100
1, 42878, Note_on_c, 0, 62, 100
1, 43022, Note_off_c, 0, 62, 100
1, 43022, Note_on_c, 0, 61, 100
1, 43118, Note_off_c, 0, 61, 100
1, 43118, Note_on_c, 0, 59, 100
1, 43214, Note_off_c, 0, 59, 100
1, 43214, Note_on_c, 0, 58, 100
1, 43310, Note_off_c, 0, 58, 100
1, 43310, Note_on_c, 0, 56, 100
1, 43358, Note_off_c, 0, 56, 100
1, 43358, Note_on_c, 0, 54, 100
1, 43454, Note_off_c, 0, 54, 100
1, 43454, Note_on_c, 0, 52, 100
1, 43550, Note_off_c, 0, 52, 100
1, 43550, Note_on_c, 0, 51, 100
1, 43646, Note_off_c, 0, 51, 100
1, 43646, Note_on_c, 0, 49, 100
1, 43742, Note_off_c, 0, 49, 100
1, 43742, Note_on_c, 0, 48, 100
1, 43838, Note_off_c, 0, 48, 100
1, 43838, Note_on_c, 0, 50, 100
1, 43886, Note_off_c, 0, 50, 100
1, 43886, Note_on_c, 0, 51, 100
1, 43934, Note_off_c, 0, 51, 100
1, 43934, Note_on_c, 0, 53, 100
1, 43982, Note_off_c, 0, 53, 100
1, 43982, Note_on_c, 0, 55, 100
1, 44030, Note_off_c, 0, 55, 100
1, 44030, Note_on_c, 0, 58, 100
1, 44126, Note_off_c, 0, 58, 100
1, 44126, Note_on_c, 0, 56, 100
1, 44318, Note_off_c, 0, 56, 100
1, 44318, Note_on_c, 0, 60, 100
1, 44462, Note_off_c, 0, 60, 100
1, 44462, Note_on_c, 0, 66, 100
1, 44558, Note_off_c, 0, 66, 100
1, 44558, Note_on_c, 0, 70, 100
1, 44654, Note_off_c, 0, 70, 100
1, 44654, Note_on_c, 0, 68, 100
1, 44750, Note_off_c, 0, 68, 100
1, 44750, Note_on_c, 0, 63, 100
1, 44846, Note_off_c, 0, 63, 100
1, 44846, Note_on_c, 0, 59, 100
1, 44894, Note_off_c, 0, 59, 100
1, 44894, Note_on_c, 0, 65, 100
1, 44942, Note_off_c, 0, 65, 100
1, 44942, Note_on_c, 0, 66, 100
1, 45038, Note_off_c, 0, 66, 100
1, 45038, Note_on_c, 0, 63, 100
1, 45086, Note_off_c, 0, 63, 100
1, 45086, Note_on_c, 0, 65, 100
1, 45278, Note_off_c, 0, 65, 100
1, 45518, Note_on_c, 0, 65, 100
1, 45566, Note_off_c, 0, 65, 100
1, 45566, Note_on_c, 0, 63, 100
1, 45614, Note_off_c, 0, 63, 100
1, 45614, Note_on_c, 0, 61, 100
1, 45662, Note_off_c, 0, 61, 100
1, 45662, Note_on_c, 0, 70, 100
1, 45758, Note_off_c, 0, 70, 100
1, 45758, Note_on_c, 0, 58, 100
1, 45806, Note_off_c, 0, 58, 100
1, 45806, Note_on_c, 0, 59, 100
1, 45854, Note_off_c, 0, 59, 100
1, 45854, Note_on_c, 0, 52, 100
1, 45950, Note_off_c, 0, 52, 100
1, 47262, Note_on_c, 0, 68, 100
1, 47326, Note_off_c, 0, 68, 100
1, 47326, Note_on_c, 0, 70, 100
1, 47390, Note_off_c, 0, 70, 100
1, 47390, Note_on_c, 0, 70, 100
1, 47454, Note_off_c, 0, 70, 100
1, 47454, Note_on_c, 0, 70, 100
1, 47518, Note_off_c, 0, 70, 100
1, 47518, Note_on_c, 0, 70, 100
1, 47582, Note_off_c, 0, 70, 100
1, 47582, Note_on_c, 0, 70, 100
1, 47646, Note_off_c, 0, 70, 100
1, 47646, Note_on_c, 0, 70, 100
1, 47710, Note_off_c, 0, 70, 100
1, 47710, Note_on_c, 0, 70, 100
1, 47774, Note_off_c, 0, 70, 100
1, 47774, Note_on_c, 0, 70, 100
1, 47838, Note_off_c, 0, 70, 100
1, 47838, Note_on_c, 0, 70, 100
1, 47902, Note_off_c, 0, 70, 100
1, 47902, Note_on_c, 0, 70, 100
1, 47966, Note_off_c, 0, 70, 100
1, 47966, Note_on_c, 0, 70, 100
1, 48014, Note_off_c, 0, 70, 100
1, 48014, Note_on_c, 0, 73, 100
1, 48062, Note_off_c, 0, 73, 100
1, 48062, Note_on_c, 0, 73, 100
1, 48158, Note_off_c, 0, 73, 100
1, 48158, Note_on_c, 0, 73, 100
1, 48206, Note_off_c, 0, 73, 100
1, 48206, Note_on_c, 0, 73, 100
1, 48254, Note_off_c, 0, 73, 100
1, 48254, Note_on_c, 0, 73, 100
1, 48302, Note_off_c, 0, 73, 100
1, 48302, Note_on_c, 0, 73, 100
1, 48398, Note_off_c, 0, 73, 100
1, 48734, Note_on_c, 0, 68, 100
1, 48782, Note_off_c, 0, 68, 100
1, 48782, Note_on_c, 0, 73, 100
1, 48830, Note_off_c, 0, 73, 100
1, 48830, Note_on_c, 0, 71, 100
1, 48878, Note_off_c, 0, 71, 100
1, 48878, Note_on_c, 0, 68, 100
1, 48926, Note_off_c, 0, 68, 100
1, 48926, Note_on_c, 0, 70, 100
1, 49022, Note_off_c, 0, 70, 100
1, 49022, Note_on_c, 0, 67, 100
1, 49118, Note_off_c, 0, 67, 100
1, 49838, Note_on_c, 0, 72, 100
1, 50116, Note_off_c, 0, 72, 100
1, 50116, Note_on_c, 0, 69, 100
1, 50154, Note_off_c, 0, 69, 100
1, 50154, Note_on_c, 0, 67, 100
1, 50192, Note_off_c, 0, 67, 100
1, 50192, Note_on_c, 0, 65, 100
1, 50230, Note_off_c, 0, 65, 100
1, 50230, Note_on_c, 0, 64, 100
1, 50268, Note_off_c, 0, 64, 100
1, 50268, Note_on_c, 0, 62, 100
1, 50300, Note_off_c, 0, 62, 100
1, 50300, Note_on_c, 0, 60, 100
1, 50332, Note_off_c, 0, 60, 100
1, 50332, Note_on_c, 0, 59, 100
1, 50364, Note_off_c, 0, 59, 100
1, 50364, Note_on_c, 0, 57, 100
1, 50396, Note_off_c, 0, 57, 100
1, 50396, Note_on_c, 0, 55, 100
1, 50428, Note_off_c, 0, 55, 100
1, 50428, Note_on_c, 0, 54, 100
1, 50498, Note_off_c, 0, 54, 100
1, 50498, Note_on_c, 0, 55, 100
1, 50536, Note_off_c, 0, 55, 100
1, 50536, Note_on_c, 0, 57, 100
1, 50574, Note_off_c, 0, 57, 100
1, 50574, Note_on_c, 0, 58, 100
1, 50612, Note_off_c, 0, 58, 100
1, 50612, Note_on_c, 0, 63, 100
1, 50650, Note_off_c, 0, 63, 100
1, 50650, Note_on_c, 0, 61, 100
1, 50688, Note_off_c, 0, 61, 100
1, 50688, Note_on_c, 0, 62, 100
1, 50726, Note_off_c, 0, 62, 100
1, 50726, Note_on_c, 0, 65, 100
1, 50764, Note_off_c, 0, 65, 100
1, 50764, Note_on_c, 0, 67, 100
1, 50802, Note_off_c, 0, 67, 100
1, 50802, Note_on_c, 0, 68, 100
1, 50840, Note_off_c, 0, 68, 100
1, 50840, Note_on_c, 0, 71, 100
1, 50878, Note_off_c, 0, 71, 100
1, 50878, Note_on_c, 0, 68, 100
1, 50916, Note_off_c, 0, 68, 100
1, 50916, Note_on_c, 0, 69, 100
1, 50992, Note_off_c, 0, 69, 100
1, 50992, Note_on_c, 0, 66, 100
1, 51078, Note_off_c, 0, 66, 100
1, 51078, Note_on_c, 0, 68, 100
1, 51126, Note_off_c, 0, 68, 100
1, 51126, Note_on_c, 0, 64, 100
1, 51174, Note_off_c, 0, 64, 100
1, 51174, Note_on_c, 0, 63, 100
1, 51222, Note_off_c, 0, 63, 100
1, 51222, Note_on_c, 0, 61, 100
1, 51270, Note_off_c, 0, 61, 100
1, 51270, Note_on_c, 0, 66, 100
1, 51318, Note_off_c, 0, 66, 100
1, 51318, Note_on_c, 0, 59, 100
1, 51366, Note_off_c, 0, 59, 100
1, 51366, Note_on_c, 0, 56, 100
1, 51462, Note_off_c, 0, 56, 100
1, 51462, Note_on_c, 0, 58, 100
1, 51510, Note_off_c, 0, 58, 100
1, 51510, Note_on_c, 0, 54, 100
1, 51558, Note_off_c, 0, 54, 100
1, 51558, Note_on_c, 0, 55, 100
1, 51606, Note_off_c, 0, 55, 100
1, 51606, Note_on_c, 0, 56, 100
1, 51654, Note_off_c, 0, 56, 100
1, 51654, Note_on_c, 0, 52, 100
1, 51702, Note_off_c, 0, 52, 100
1, 51702, Note_on_c, 0, 51, 100
1, 51750, Note_off_c, 0, 51, 100
1, 51750, Note_on_c, 0, 49, 100
1, 51798, Note_off_c, 0, 49, 100
1, 51798, Note_on_c, 0, 48, 100
1, 51874, Note_off_c, 0, 48, 100
1, 51874, Note_on_c, 0, 51, 100
1, 51912, Note_off_c, 0, 51, 100
1, 51912, Note_on_c, 0, 52, 100
1, 51950, Note_off_c, 0, 52, 100
1, 51950, Note_on_c, 0, 58, 100
1, 52052, Note_off_c, 0, 58, 100
1, 52052, Note_on_c, 0, 51, 100
1, 52116, Note_off_c, 0, 51, 100
1, 52116, Note_on_c, 0, 53, 100
1, 52218, Note_off_c, 0, 53, 100
1, 52218, Note_on_c, 0, 51, 100
1, 52256, Note_off_c, 0, 51, 100
1, 52256, Note_on_c, 0, 53, 100
1, 52294, Note_off_c, 0, 53, 100
1, 52294, Note_on_c, 0, 55, 100
1, 52332, Note_off_c, 0, 55, 100
1, 52332, Note_on_c, 0, 58, 100
1, 52370, Note_off_c, 0, 58, 100
1, 52370, Note_on_c, 0, 62, 100
1, 52418, Note_off_c, 0, 62, 100
1, 52418, Note_on_c, 0, 60, 100
1, 52466, Note_off_c, 0, 60, 100
1, 52466, Note_on_c, 0, 57, 100
1, 52514, Note_off_c, 0, 57, 100
1, 52514, Note_on_c, 0, 55, 100
1, 52562, Note_off_c, 0, 55, 100
1, 52562, Note_on_c, 0, 57, 100
1, 52600, Note_off_c, 0, 57, 100
1, 52600, Note_on_c, 0, 60, 100
1, 52638, Note_off_c, 0, 60, 100
1, 52638, Note_on_c, 0, 63, 100
1, 52676, Note_off_c, 0, 63, 100
1, 52676, Note_on_c, 0, 65, 100
1, 52714, Note_off_c, 0, 65, 100
1, 52714, Note_on_c, 0, 62, 100
1, 52848, Note_off_c, 0, 62, 100
1, 52848, Note_on_c, 0, 69, 100
1, 52944, Note_off_c, 0, 69, 100
1, 52944, Note_on_c, 0, 74, 100
1, 53008, Note_off_c, 0, 74, 100
1, 53008, Note_on_c, 0, 72, 100
1, 53072, Note_off_c, 0, 72, 100
1, 53072, Note_on_c, 0, 67, 100
1, 53136, Note_off_c, 0, 67, 100
1, 53136, Note_on_c, 0, 63, 100
1, 53184, Note_off_c, 0, 63, 100
1, 53184, Note_on_c, 0, 70, 100
1, 53232, Note_off_c, 0, 70, 100
1, 53232, Note_on_c, 0, 67, 100
1, 53280, Note_off_c, 0, 67, 100
1, 53280, Note_on_c, 0, 68, 100
1, 53328, Note_off_c, 0, 68, 100
1, 53328, Note_on_c, 0, 69, 100
1, 53376, Note_off_c, 0, 69, 100
1, 53376, Note_on_c, 0, 65, 100
1, 53424, Note_off_c, 0, 65, 100
1, 53424, Note_on_c, 0, 66, 100
1, 53472, Note_off_c, 0, 66, 100
1, 53472, Note_on_c, 0, 67, 100
1, 53520, Note_off_c, 0, 67, 100
1, 53520, Note_on_c, 0, 63, 100
1, 53568, Note_off_c, 0, 63, 100
1, 53568, Note_on_c, 0, 62, 100
1, 53616, Note_off_c, 0, 62, 100
1, 53616, Note_on_c, 0, 60, 100
1, 53664, Note_off_c, 0, 60, 100
1, 53664, Note_on_c, 0, 66, 100
1, 53856, Note_off_c, 0, 66, 100
1, 53856, Note_on_c, 0, 61, 100
1, 54048, Note_off_c, 0, 61, 100
1, 54048, Note_on_c, 0, 68, 100
1, 54240, Note_off_c, 0, 68, 100
1, 54240, Note_on_c, 0, 64, 100
1, 54432, Note_off_c, 0, 64, 100
1, 54432, Note_on_c, 0, 68, 100
1, 54480, Note_off_c, 0, 68, 100
1, 54480, Note_on_c, 0, 70, 100
1, 54624, Note_off_c, 0, 70, 100
1, 54624, Note_on_c, 0, 66, 100
1, 54816, Note_off_c, 0, 66, 100
1, 54816, Note_on_c, 0, 69, 100
1, 54864, Note_off_c, 0, 69, 100
1, 54864, Note_on_c, 0, 71, 100
1, 55248, Note_off_c, 0, 71, 100
1, 55248, Note_on_c, 0, 69, 100
1, 55296, Note_off_c, 0, 69, 100
1, 55296, Note_on_c, 0, 71, 100
1, 55872, Note_off_c, 0, 71, 100
1, 56160, Note_on_c, 0, 71, 100
1, 56208, Note_off_c, 0, 71, 100
1, 56208, Note_on_c, 0, 69, 100
1, 56400, Note_off_c, 0, 69, 100
1, 56400, Note_on_c, 0, 71, 100
1, 56448, Note_off_c, 0, 71, 100
1, 56448, Note_on_c, 0, 73, 100
1, 57216, Note_off_c, 0, 73, 100
1, 57456, Note_on_c, 0, 73, 100
1, 57552, Note_off_c, 0, 73, 100
1, 58032, Note_on_c, 0, 79, 100
1, 58320, Note_off_c, 0, 79, 100
1, 58320, Note_on_c, 0, 75, 100
1, 58416, Note_off_c, 0, 75, 100
1, 58704, Note_on_c, 0, 71, 100
1, 58800, Note_off_c, 0, 71, 100
1, 58800, Note_on_c, 0, 68, 100
1, 58896, Note_off_c, 0, 68, 100
1, 58896, Note_on_c, 0, 63, 100
1, 58992, Note_off_c, 0, 63, 100
1, 58992, Note_on_c, 0, 66, 100
1, 59088, Note_off_c, 0, 66, 100
1, 59088, Note_on_c, 0, 65, 100
1, 59184, Note_off_c, 0, 65, 100
1, 59184, Note_on_c, 0, 63, 100
1, 59280, Note_off_c, 0, 63, 100
1, 59280, Note_on_c, 0, 61, 100
1, 59376, Note_off_c, 0, 61, 100
1, 59376, Note_on_c, 0, 59, 100
1, 59472, Note_off_c, 0, 59, 100
1, 59472, Note_on_c, 0, 56, 100
1, 59616, Note_off_c, 0, 56, 100
1, 59616, Note_on_c, 0, 51, 100
1, 59664, Note_off_c, 0, 51, 100
1, 59664, Note_on_c, 0, 58, 100
1, 59808, Note_off_c, 0, 58, 100
1, 59808, Note_on_c, 0, 56, 100
1, 59856, Note_off_c, 0, 56, 100
1, 59856, Note_on_c, 0, 54, 100
1, 59952, Note_off_c, 0, 54, 100
1, 59952, Note_on_c, 0, 52, 100
1, 60096, Note_off_c, 0, 52, 100
1, 60096, Note_on_c, 0, 51, 100
1, 60192, Note_off_c, 0, 51, 100
1, 60528, Note_on_c, 0, 49, 100
1, 60576, Note_off_c, 0, 49, 100
1, 60576, Note_on_c, 0, 50, 100
1, 60624, Note_off_c, 0, 50, 100
1, 60624, Note_on_c, 0, 51, 100
1, 60864, Note_off_c, 0, 51, 100
1, 60864, Note_on_c, 0, 46, 100
1, 60960, Note_off_c, 0, 46, 100
1, 60960, Note_on_c, 0, 47, 100
1, 61056, Note_off_c, 0, 47, 100
1, 61056, Note_on_c, 0, 51, 100
1, 61104, Note_off_c, 0, 51, 100
1, 61104, Note_on_c, 0, 54, 100
1, 61152, Note_off_c, 0, 54, 100
1, 61152, Note_on_c, 0, 52, 100
1, 61200, Note_off_c, 0, 52, 100
1, 61200, Note_on_c, 0, 54, 100
1, 61248, Note_off_c, 0, 54, 100
1, 61248, Note_on_c, 0, 56, 100
1, 61296, Note_off_c, 0, 56, 100
1, 61296, Note_on_c, 0, 58, 100
1, 61344, Note_off_c, 0, 58, 100
1, 61344, Note_on_c, 0, 59, 100
1, 61440, Note_off_c, 0, 59, 100
1, 61440, Note_on_c, 0, 61, 100
1, 61488, Note_off_c, 0, 61, 100
1, 61488, Note_on_c, 0, 63, 100
1, 61536, Note_off_c, 0, 63, 100
1, 61536, Note_on_c, 0, 64, 100
1, 61584, Note_off_c, 0, 64, 100
1, 61584, Note_on_c, 0, 66, 100
1, 61632, Note_off_c, 0, 66, 100
1, 61632, Note_on_c, 0, 68, 100
1, 61680, Note_off_c, 0, 68, 100
1, 61680, Note_on_c, 0, 70, 100
1, 61728, Note_off_c, 0, 70, 100
1, 61728, Note_on_c, 0, 71, 100
1, 61776, Note_off_c, 0, 71, 100
1, 61776, Note_on_c, 0, 70, 100
1, 61814, Note_off_c, 0, 70, 100
1, 61814, Note_on_c, 0, 68, 100
1, 61852, Note_off_c, 0, 68, 100
1, 61852, Note_on_c, 0, 66, 100
1, 61890, Note_off_c, 0, 66, 100
1, 61890, Note_on_c, 0, 64, 100
1, 61966, Note_off_c, 0, 64, 100
1, 61966, Note_on_c, 0, 63, 100
1, 62004, Note_off_c, 0, 63, 100
1, 62004, Note_on_c, 0, 61, 100
1, 62042, Note_off_c, 0, 61, 100
1, 62042, Note_on_c, 0, 59, 100
1, 62080, Note_off_c, 0, 59, 100
1, 62080, Note_on_c, 0, 58, 100
1, 62118, Note_off_c, 0, 58, 100
1, 62118, Note_on_c, 0, 56, 100
1, 62156, Note_off_c, 0, 56, 100
1, 62156, Note_on_c, 0, 54, 100
1, 62204, Note_off_c, 0, 54, 100
1, 62204, Note_on_c, 0, 56, 100
1, 62252, Note_off_c, 0, 56, 100
1, 62252, Note_on_c, 0, 58, 100
1, 62348, Note_off_c, 0, 58, 100
1, 62828, Note_on_c, 0, 44, 100
1, 62876, Note_off_c, 0, 44, 100
1, 62876, Note_on_c, 0, 54, 100
1, 62924, Note_off_c, 0, 54, 100
1, 62924, Note_on_c, 0, 52, 100
1, 62972, Note_off_c, 0, 52, 100
1, 62972, Note_on_c, 0, 48, 100
1, 63020, Note_off_c, 0, 48, 100
1, 63020, Note_on_c, 0, 51, 100
1, 63068, Note_off_c, 0, 51, 100
1, 63068, Note_on_c, 0, 58, 100
1, 63164, Note_off_c, 0, 58, 100
1, 63164, Note_on_c, 0, 56, 100
1, 63260, Note_off_c, 0, 56, 100
1, 63260, Note_on_c, 0, 63, 100
1, 63308, Note_off_c, 0, 63, 100
1, 63308, Note_on_c, 0, 67, 100
1, 63346, Note_off_c, 0, 67, 100
1, 63346, Note_on_c, 0, 70, 100
1, 63384, Note_off_c, 0, 70, 100
1, 63384, Note_on_c, 0, 69, 100
1, 63422, Note_off_c, 0, 69, 100
1, 63422, Note_on_c, 0, 68, 100
1, 63460, Note_off_c, 0, 68, 100
1, 63460, Note_on_c, 0, 65, 100
1, 63498, Note_off_c, 0, 65, 100
1, 63498, Note_on_c, 0, 63, 100
1, 63546, Note_off_c, 0, 63, 100
1, 63546, Note_on_c, 0, 66, 100
1, 63594, Note_off_c, 0, 66, 100
1, 63594, Note_on_c, 0, 65, 100
1, 63642, Note_off_c, 0, 65, 100
1, 63642, Note_on_c, 0, 61, 100
1, 63690, Note_off_c, 0, 61, 100
1, 63690, Note_on_c, 0, 59, 100
1, 63882, Note_off_c, 0, 59, 100
1, 63882, Note_on_c, 0, 64, 100
1, 63909, Note_off_c, 0, 64, 100
1, 63909, Note_on_c, 0, 65, 100
1, 63936, Note_off_c, 0, 65, 100
1, 63936, Note_on_c, 0, 64, 100
1, 63990, Note_off_c, 0, 64, 100
1, 63990, Note_on_c, 0, 62, 100
1, 64044, Note_off_c, 0, 62, 100
1, 64044, Note_on_c, 0, 60, 100
1, 64071, Note_off_c, 0, 60, 100
1, 64071, Note_on_c, 0, 59, 100
1, 64135, Note_off_c, 0, 59, 100
1, 64135, Note_on_c, 0, 62, 100
1, 64167, Note_off_c, 0, 62, 100
1, 64167, Note_on_c, 0, 63, 100
1, 64199, Note_off_c, 0, 63, 100
1, 64199, Note_on_c, 0, 66, 100
1, 64231, Note_off_c, 0, 66, 100
1, 64231, Note_on_c, 0, 68, 100
1, 64263, Note_off_c, 0, 68, 100
1, 64263, Note_on_c, 0, 64, 100
1, 64327, Note_off_c, 0, 64, 100
1, 64327, Note_on_c, 0, 62, 100
1, 64359, Note_off_c, 0, 62, 100
1, 64359, Note_on_c, 0, 67, 100
1, 64391, Note_off_c, 0, 67, 100
1, 64391, Note_on_c, 0, 68, 100
1, 64423, Note_off_c, 0, 68, 100
1, 64423, Note_on_c, 0, 66, 100
1, 64455, Note_off_c, 0, 66, 100
1, 64455, Note_on_c, 0, 64, 100
1, 64519, Note_off_c, 0, 64, 100
1, 64519, Note_on_c, 0, 63, 100
1, 64583, Note_off_c, 0, 63, 100
1, 64583, Note_on_c, 0, 61, 100
1, 64647, Note_off_c, 0, 61, 100
1, 64647, Note_on_c, 0, 59, 100
1, 64674, Note_off_c, 0, 59, 100
1, 64674, Note_on_c, 0, 58, 100
1, 64756, Note_off_c, 0, 58, 100
1, 64756, Note_on_c, 0, 54, 100
1, 64783, Note_off_c, 0, 54, 100
1, 64783, Note_on_c, 0, 55, 100
1, 64810, Note_off_c, 0, 55, 100
1, 64810, Note_on_c, 0, 57, 100
1, 64837, Note_off_c, 0, 57, 100
1, 64837, Note_on_c, 0, 52, 100
1, 64885, Note_off_c, 0, 52, 100
1, 64885, Note_on_c, 0, 49, 100
1, 64933, Note_off_c, 0, 49, 100
1, 64933, Note_on_c, 0, 54, 100
1, 64981, Note_off_c, 0, 54, 100
1, 64981, Note_on_c, 0, 52, 100
1, 65029, Note_off_c, 0, 52, 100
1, 65029, Note_on_c, 0, 53, 100
1, 65077, Note_off_c, 0, 53, 100
1, 65077, Note_on_c, 0, 54, 100
1, 65173, Note_off_c, 0, 54, 100
1, 65173, Note_on_c, 0, 58, 100
1, 65221, Note_off_c, 0, 58, 100
1, 65221, Note_on_c, 0, 63, 100
1, 65269, Note_off_c, 0, 63, 100
1, 65269, Note_on_c, 0, 61, 100
1, 65317, Note_off_c, 0, 61, 100
1, 65317, Note_on_c, 0, 60, 100
1, 65365, Note_off_c, 0, 60, 100
1, 65365, Note_on_c, 0, 58, 100
1, 65413, Note_off_c, 0, 58, 100
1, 65413, Note_on_c, 0, 57, 100
1, 65451, Note_off_c, 0, 57, 100
1, 65451, Note_on_c, 0, 60, 100
1, 65489, Note_off_c, 0, 60, 100
1, 65489, Note_on_c, 0, 63, 100
1, 65527, Note_off_c, 0, 63, 100
1, 65527, Note_on_c, 0, 67, 100
1, 65565, Note_off_c, 0, 67, 100
1, 65565, Note_on_c, 0, 66, 100
1, 65603, Note_off_c, 0, 66, 100
1, 65603, Note_on_c, 0, 62, 100
1, 65641, Note_off_c, 0, 62, 100
1, 65641, Note_on_c, 0, 63, 100
1, 65679, Note_off_c, 0, 63, 100
1, 65679, Note_on_c, 0, 67, 100
1, 65717, Note_off_c, 0, 67, 100
1, 65717, Note_on_c, 0, 70, 100
1, 65755, Note_off_c, 0, 70, 100
1, 65755, Note_on_c, 0, 74, 100
1, 65793, Note_off_c, 0, 74, 100
1, 65793, Note_on_c, 0, 72, 100
1, 65889, Note_off_c, 0, 72, 100
1, 65889, Note_on_c, 0, 67, 100
1, 65937, Note_off_c, 0, 67, 100
1, 65937, Note_on_c, 0, 63, 100
1, 65985, Note_off_c, 0, 63, 100
1, 65985, Note_on_c, 0, 70, 100
1, 66033, Note_off_c, 0, 70, 100
1, 66033, Note_on_c, 0, 71, 100
1, 66081, Note_off_c, 0, 71, 100
1, 66081, Note_on_c, 0, 70, 100
1, 66129, Note_off_c, 0, 70, 100
1, 66129, Note_on_c, 0, 67, 100
1, 66177, Note_off_c, 0, 67, 100
1, 66177, Note_on_c, 0, 69, 100
1, 66225, Note_off_c, 0, 69, 100
1, 66225, Note_on_c, 0, 71, 100
1, 66273, Note_off_c, 0, 71, 100
1, 66273, Note_on_c, 0, 69, 100
1, 66321, Note_off_c, 0, 69, 100
1, 66321, Note_on_c, 0, 65, 100
1, 66369, Note_off_c, 0, 65, 100
1, 66369, Note_on_c, 0, 67, 100
1, 66417, Note_off_c, 0, 67, 100
1, 66417, Note_on_c, 0, 69, 100
1, 66465, Note_off_c, 0, 69, 100
1, 66465, Note_on_c, 0, 67, 100
1, 66513, Note_off_c, 0, 67, 100
1, 66513, Note_on_c, 0, 63, 100
1, 66561, Note_off_c, 0, 63, 100
1, 66561, Note_on_c, 0, 65, 100
1, 66609, Note_off_c, 0, 65, 100
1, 66609, Note_on_c, 0, 67, 100
1, 66657, Note_off_c, 0, 67, 100
1, 66657, Note_on_c, 0, 65, 100
1, 66705, Note_off_c, 0, 65, 100
1, 66705, Note_on_c, 0, 62, 100
1, 66753, Note_off_c, 0, 62, 100
1, 66753, Note_on_c, 0, 63, 100
1, 66801, Note_off_c, 0, 63, 100
1, 66801, Note_on_c, 0, 67, 100
1, 66849, Note_off_c, 0, 67, 100
1, 66849, Note_on_c, 0, 63, 100
1, 66897, Note_off_c, 0, 63, 100
1, 66897, Note_on_c, 0, 60, 100
1, 66945, Note_off_c, 0, 60, 100
1, 66945, Note_on_c, 0, 62, 100
1, 67137, Note_off_c, 0, 62, 100
1, 67137, Note_on_c, 0, 66, 100
1, 67281, Note_off_c, 0, 66, 100
1, 67281, Note_on_c, 0, 56, 100
1, 67329, Note_off_c, 0, 56, 100
1, 67329, Note_on_c, 0, 54, 100
1, 67521, Note_off_c, 0, 54, 100
1, 67521, Note_on_c, 0, 56, 100
1, 67713, Note_off_c, 0, 56, 100
1, 67713, Note_on_c, 0, 57, 100
1, 67905, Note_off_c, 0, 57, 100
1, 67905, Note_on_c, 0, 54, 100
1, 68001, Note_off_c, 0, 54, 100
1, 68001, Note_on_c, 0, 58, 100
1, 68097, Note_off_c, 0, 58, 100
1, 68097, Note_on_c, 0, 59, 100
1, 68193, Note_off_c, 0, 59, 100
1, 68673, Note_on_c, 0, 69, 100
1, 68721, Note_off_c, 0, 69, 100
1, 68721, Note_on_c, 0, 71, 100
1, 68961, Note_off_c, 0, 71, 100
1, 68961, Note_on_c, 0, 68, 100
1, 69057, Note_off_c, 0, 68, 100
1, 69057, Note_on_c, 0, 69, 100
1, 69345, Note_off_c, 0, 69, 100
1, 69345, Note_on_c, 0, 64, 100
1, 69393, Note_off_c, 0, 64, 100
1, 69393, Note_on_c, 0, 61, 100
1, 69571, Note_off_c, 0, 61, 100
1, 69571, End_track
0, 0, End_of_file
