0, 0, Header, 1, 1, 192
1, 0, Start_track
1, 0, Title_t, "Melody"
1, 0, Tempo, 983606
1, 0, Key_signature, -5, "major"
1, 0, Time_signature, 4, 2, 24, 8
1, 192, Note_on_c, 0, 51, 100
1, 255, Note_off_c, 0, 51, 100
1, 255, Note_on_c, 0, 51, 100
1, 287, Note_off_c, 0, 51, 100
1, 287, Note_on_c, 0, 53, 100
1, 319, Note_off_c, 0, 53, 100
1, 319, Note_on_c, 0, 51, 100
1, 350, Note_off_c, 0, 51, 100
1, 350, Note_on_c, 0, 53, 100
1, 382, Note_off_c, 0, 53, 100
1, 382, Note_on_c, 0, 51, 100
1, 430, Note_off_c, 0, 51, 100
1, 430, Note_on_c, 0, 53, 100
1, 478, Note_off_c, 0, 53, 100
1, 478, Note_on_c, 0, 53, 100
1, 526, Note_off_c, 0, 53, 100
1, 526, Note_on_c, 0, 51, 100
1, 574, Note_off_c, 0, 51, 100
1, 574, Note_on_c, 0, 53, 100
1, 638, Note_off_c, 0, 53, 100
1, 638, Note_on_c, 0, 46, 100
1, 766, Note_off_c, 0, 46, 100
1, 766, Note_on_c, 0, 50, 100
1, 814, Note_off_c, 0, 50, 100
1, 814, Note_on_c, 0, 51, 100
1, 862, Note_off_c, 0, 51, 100
1, 862, Note_on_c, 0, 58, 100
1, 1078, Note_off_c, 0, 58, 100
1, 1078, Note_on_c, 0, 56, 100
1, 1102, Note_off_c, 0, 56, 100
1, 1102, Note_on_c, 0, 53, 100
1, 1126, Note_off_c, 0, 53, 100
1, 1126, Note_on_c, 0, 50, 100
1, 1150, Note_off_c, 0, 50, 100
1, 1150, Note_on_c, 0, 51, 100
1, 1177, Note_off_c, 0, 51, 100
1, 1177, Note_on_c, 0, 56, 100
1, 1204, Note_off_c, 0, 56, 100
1, 1204, Note_on_c, 0, 52, 100
1, 1258, Note_off_c, 0, 52, 100
1, 1258, Note_on_c, 0, 54, 100
1, 1285, Note_off_c, 0, 54, 100
1, 1285, Note_on_c, 0, 58, 100
1, 1312, Note_off_c, 0, 58, 100
1, 1312, Note_on_c, 0, 60, 100
1, 1339, Note_off_c, 0, 60, 100
1, 1339, Note_on_c, 0, 62, 100
1, 1353, Note_off_c, 0, 62, 100
1, 1353, Note_on_c, 0, 64, 100
1, 1367, Note_off_c, 0, 64, 100
1, 1367, Note_on_c, 0, 66, 100
1, 1455, Note_off_c, 0, 66, 100
1, 1455, Note_on_c, 0, 64, 100
1, 1484, Note_off_c, 0, 64, 100
1, 1484, Note_on_c, 0, 60, 100
1, 1513, Note_off_c, 0, 60, 100
1, 1513, Note_on_c, 0, 58, 100
1, 1527, Note_off_c, 0, 58, 100
1, 1527, Note_on_c, 0, 63, 100
1, 1623, Note_off_c, 0, 63, 100
1, 1623, Note_on_c, 0, 60, 100
1, 1795, Note_off_c, 0, 60, 100
1, 1795, Note_on_c, 0, 56, 100
1, 1833, Note_off_c, 0, 56, 100
1, 1833, Note_on_c, 0, 53, 100
1, 1871, Note_off_c, 0, 53, 100
1, 1871, Note_on_c, 0, 56, 100
1, 1967, Note_off_c, 0, 56, 100
1, 2173, Note_on_c, 0, 55, 100
1, 2197, Note_off_c, 0, 55, 100
1, 2197, Note_on_c, 0, 56, 100
1, 2221, Note_off_c, 0, 56, 100
1, 2221, Note_on_c, 0, 58, 100
1, 2245, Note_off_c, 0, 58, 100
1, 2245, Note_on_c, 0, 55, 100
1, 2269, Note_off_c, 0, 55, 100
1, 2269, Note_on_c, 0, 56, 100
1, 2293, Note_off_c, 0, 56, 100
1, 2293, Note_on_c, 0, 58, 100
1, 2325, Note_off_c, 0, 58, 100
1, 2325, Note_on_c, 0, 60, 100
1, 2357, Note_off_c, 0, 60, 100
1, 2357, Note_on_c, 0, 61, 100
1, 2389, Note_off_c, 0, 61, 100
1, 2389, Note_on_c, 0, 63, 100
1, 2421, Note_off_c, 0, 63, 100
1, 2421, Note_on_c, 0, 65, 100
1, 2453, Note_off_c, 0, 65, 100
1, 2453, Note_on_c, 0, 60, 100
1, 2533, Note_off_c, 0, 60, 100
1, 2533, Note_on_c, 0, 58, 100
1, 2557, Note_off_c, 0, 58, 100
1, 2557, Note_on_c, 0, 63, 100
1, 2605, Note_off_c, 0, 63, 100
1, 2605, Note_on_c, 0, 64, 100
1, 2629, Note_off_c, 0, 64, 100
1, 2629, Note_on_c, 0, 67, 100
1, 2653, Note_off_c, 0, 67, 100
1, 2653, Note_on_c, 0, 71, 100
1, 2677, Note_off_c, 0, 71, 100
1, 2677, Note_on_c, 0, 66, 100
1, 2725, Note_off_c, 0, 66, 100
1, 2725, Note_on_c, 0, 61, 100
1, 2773, Note_off_c, 0, 61, 100
1, 2773, Note_on_c, 0, 64, 100
1, 2821, Note_off_c, 0, 64, 100
1, 2821, Note_on_c, 0, 62, 100
1, 2869, Note_off_c, 0, 62, 100
1, 2869, Note_on_c, 0, 59, 100
1, 2893, Note_off_c, 0, 59, 100
1, 2893, Note_on_c, 0, 54, 100
1, 2917, Note_off_c, 0, 54, 100
1, 2917, Note_on_c, 0, 57, 100
1, 2965, Note_off_c, 0, 57, 100
1, 2965, Note_on_c, 0, 61, 100
1, 3013, Note_off_c, 0, 61, 100
1, 3013, Note_on_c, 0, 57, 100
1, 3037, Note_off_c, 0, 57, 100
1, 3037, Note_on_c, 0, 54, 100
1, 3061, Note_off_c, 0, 54, 100
1, 3061, Note_on_c, 0, 49, 100
1, 3109, Note_off_c, 0, 49, 100
1, 3109, Note_on_c, 0, 59, 100
1, 3157, Note_off_c, 0, 59, 100
1, 3157, Note_on_c, 0, 57, 100
1, 3205, Note_off_c, 0, 57, 100
1, 3205, Note_on_c, 0, 58, 100
1, 3301, Note_off_c, 0, 58, 100
1, 3301, Note_on_c, 0, 61, 100
1, 3349, Note_off_c, 0, 61, 100
1, 3349, Note_on_c, 0, 58, 100
1, 3397, Note_off_c, 0, 58, 100
1, 3397, Note_on_c, 0, 61, 100
1, 3675, Note_off_c, 0, 61, 100
1, 3675, Note_on_c, 0, 58, 100
1, 3713, Note_off_c, 0, 58, 100
1, 3713, Note_on_c, 0, 54, 100
1, 3751, Note_off_c, 0, 54, 100
1, 3751, Note_on_c, 0, 53, 100
1, 3789, Note_off_c, 0, 53, 100
1, 3789, Note_on_c, 0, 54, 100
1, 3827, Note_off_c, 0, 54, 100
1, 3827, Note_on_c, 0, 51, 100
1, 3947, Note_off_c, 0, 51, 100
1, 3947, Note_on_c, 0, 53, 100
1, 3971, Note_off_c, 0, 53, 100
1, 3971, Note_on_c, 0, 54, 100
1, 3995, Note_off_c, 0, 54, 100
1, 3995, Note_on_c, 0, 57, 100
1, 4019, Note_off_c, 0, 57, 100
1, 4019, Note_on_c, 0, 61, 100
1, 4040, Note_off_c, 0, 61, 100
1, 4040, Note_on_c, 0, 63, 100
1, 4061, Note_off_c, 0, 63, 100
1, 4061, Note_on_c, 0, 65, 100
1, 4082, Note_off_c, 0, 65, 100
1, 4082, Note_on_c, 0, 64, 100
1, 4103, Note_off_c, 0, 64, 100
1, 4103, Note_on_c, 0, 63, 100
1, 4124, Note_off_c, 0, 63, 100
1, 4124, Note_on_c, 0, 65, 100
1, 4145, Note_off_c, 0, 65, 100
1, 4145, Note_on_c, 0, 66, 100
1, 4166, Note_off_c, 0, 66, 100
1, 4166, Note_on_c, 0, 67, 100
1, 4187, Note_off_c, 0, 67, 100
1, 4187, Note_on_c, 0, 69, 100
1, 4208, Note_off_c, 0, 69, 100
1, 4208, Note_on_c, 0, 71, 100
1, 4272, Note_off_c, 0, 71, 100
1, 4272, Note_on_c, 0, 69, 100
1, 4293, Note_off_c, 0, 69, 100
1, 4293, Note_on_c, 0, 67, 100
1, 4314, Note_off_c, 0, 67, 100
1, 4314, Note_on_c, 0, 66, 100
1, 4378, Note_off_c, 0, 66, 100
1, 4378, Note_on_c, 0, 66, 100
1, 4418, Note_off_c, 0, 66, 100
1, 4418, Note_on_c, 0, 64, 100
1, 4437, Note_off_c, 0, 64, 100
1, 4437, Note_on_c, 0, 62, 100
1, 4456, Note_off_c, 0, 62, 100
1, 4456, Note_on_c, 0, 61, 100
1, 4475, Note_off_c, 0, 61, 100
1, 4475, Note_on_c, 0, 59, 100
1, 4513, Note_off_c, 0, 59, 100
1, 4513, Note_on_c, 0, 57, 100
1, 4532, Note_off_c, 0, 57, 100
1, 4532, Note_on_c, 0, 55, 100
1, 4551, Note_off_c, 0, 55, 100
1, 4551, Note_on_c, 0, 54, 100
1, 4733, Note_off_c, 0, 54, 100
1, 4733, Note_on_c, 0, 70, 100
1, 4781, Note_off_c, 0, 70, 100
1, 4781, Note_on_c, 0, 68, 100
1, 4805, Note_off_c, 0, 68, 100
1, 4805, Note_on_c, 0, 66, 100
1, 4829, Note_off_c, 0, 66, 100
1, 4829, Note_on_c, 0, 65, 100
1, 4877, Note_off_c, 0, 65, 100
1, 4877, Note_on_c, 0, 65, 100
1, 4901, Note_off_c, 0, 65, 100
1, 4901, Note_on_c, 0, 64, 100
1, 4925, Note_off_c, 0, 64, 100
1, 4925, Note_on_c, 0, 63, 100
1, 4973, Note_off_c, 0, 63, 100
1, 4973, Note_on_c, 0, 63, 100
1, 4997, Note_off_c, 0, 63, 100
1, 4997, Note_on_c, 0, 61, 100
1, 5021, Note_off_c, 0, 61, 100
1, 5021, Note_on_c, 0, 60, 100
1, 5093, Note_off_c, 0, 60, 100
1, 5093, Note_on_c, 0, 60, 100
1, 5117, Note_off_c, 0, 60, 100
1, 5117, Note_on_c, 0, 58, 100
1, 5141, Note_off_c, 0, 58, 100
1, 5141, Note_on_c, 0, 56, 100
1, 5203, Note_off_c, 0, 56, 100
1, 5203, Note_on_c, 0, 56, 100
1, 5241, Note_off_c, 0, 56, 100
1, 5241, Note_on_c, 0, 53, 100
1, 5279, Note_off_c, 0, 53, 100
1, 5279, Note_on_c, 0, 51, 100
1, 5317, Note_off_c, 0, 51, 100
1, 5317, Note_on_c, 0, 56, 100
1, 5355, Note_off_c, 0, 56, 100
1, 5355, Note_on_c, 0, 51, 100
1, 5451, Note_off_c, 0, 51, 100
1, 5451, Note_on_c, 0, 53, 100
1, 5763, Note_off_c, 0, 53, 100
1, 5763, Note_on_c, 0, 53, 100
1, 5787, Note_off_c, 0, 53, 100
1, 5787, Note_on_c, 0, 54, 100
1, 5835, Note_off_c, 0, 54, 100
1, 5835, Note_on_c, 0, 56, 100
1, 5859, Note_off_c, 0, 56, 100
1, 5859, Note_on_c, 0, 54, 100
1, 5883, Note_off_c, 0, 54, 100
1, 5883, Note_on_c, 0, 53, 100
1, 5907, Note_off_c, 0, 53, 100
1, 5907, Note_on_c, 0, 51, 100
1, 5931, Note_off_c, 0, 51, 100
1, 5931, Note_on_c, 0, 50, 100
1, 5969, Note_off_c, 0, 50, 100
1, 5969, Note_on_c, 0, 54, 100
1, 6007, Note_off_c, 0, 54, 100
1, 6007, Note_on_c, 0, 50, 100
1, 6045, Note_off_c, 0, 50, 100
1, 6045, Note_on_c, 0, 47, 100
1, 6083, Note_off_c, 0, 47, 100
1, 6083, Note_on_c, 0, 50, 100
1, 6121, Note_off_c, 0, 50, 100
1, 6121, Note_on_c, 0, 47, 100
1, 6217, Note_off_c, 0, 47, 100
1, 6217, Note_on_c, 0, 46, 100
1, 6457, Note_off_c, 0, 46, 100
1, 6457, Note_on_c, 0, 53, 100
1, 6505, Note_off_c, 0, 53, 100
1, 6505, Note_on_c, 0, 51, 100
1, 6537, Note_off_c, 0, 51, 100
1, 6537, Note_on_c, 0, 54, 100
1, 6569, Note_off_c, 0, 54, 100
1, 6569, Note_on_c, 0, 58, 100
1, 6633, Note_off_c, 0, 58, 100
1, 6633, Note_on_c, 0, 65, 100
1, 6697, Note_off_c, 0, 65, 100
1, 6697, Note_on_c, 0, 65, 100
1, 6745, Note_off_c, 0, 65, 100
1, 6745, Note_on_c, 0, 63, 100
1, 6841, Note_off_c, 0, 63, 100
1, 6841, Note_on_c, 0, 63, 100
1, 6889, Note_off_c, 0, 63, 100
1, 6889, Note_on_c, 0, 58, 100
1, 6985, Note_off_c, 0, 58, 100
1, 6985, Note_on_c, 0, 58, 100
1, 7105, Note_off_c, 0, 58, 100
1, 7105, Note_on_c, 0, 57, 100
1, 7153, Note_off_c, 0, 57, 100
1, 7153, Note_on_c, 0, 58, 100
1, 7201, Note_off_c, 0, 58, 100
1, 7201, Note_on_c, 0, 70, 100
1, 7249, Note_off_c, 0, 70, 100
1, 7249, Note_on_c, 0, 65, 100
1, 7273, Note_off_c, 0, 65, 100
1, 7273, Note_on_c, 0, 63, 100
1, 7321, Note_off_c, 0, 63, 100
1, 7321, Note_on_c, 0, 64, 100
1, 7417, Note_off_c, 0, 64, 100
1, 7417, Note_on_c, 0, 71, 100
1, 7609, Note_off_c, 0, 71, 100
1, 7609, Note_on_c, 0, 64, 100
1, 7657, Note_off_c, 0, 64, 100
1, 7657, Note_on_c, 0, 63, 100
1, 7721, Note_off_c, 0, 63, 100
1, 7721, Note_on_c, 0, 63, 100
1, 7785, Note_off_c, 0, 63, 100
1, 7785, Note_on_c, 0, 61, 100
1, 7849, Note_off_c, 0, 61, 100
1, 7849, Note_on_c, 0, 72, 100
1, 8257, Note_off_c, 0, 72, 100
1, 8257, Note_on_c, 0, 70, 100
1, 8305, Note_off_c, 0, 70, 100
1, 8305, Note_on_c, 0, 68, 100
1, 8329, Note_off_c, 0, 68, 100
1, 8329, Note_on_c, 0, 65, 100
1, 8353, Note_off_c, 0, 65, 100
1, 8353, Note_on_c, 0, 63, 100
1, 8377, Note_off_c, 0, 63, 100
1, 8377, Note_on_c, 0, 68, 100
1, 8401, Note_off_c, 0, 68, 100
1, 8401, Note_on_c, 0, 65, 100
1, 8457, Note_off_c, 0, 65, 100
1, 8457, Note_on_c, 0, 60, 100
1, 8489, Note_off_c, 0, 60, 100
1, 8489, Note_on_c, 0, 63, 100
1, 8521, Note_off_c, 0, 63, 100
1, 8521, Note_on_c, 0, 58, 100
1, 8553, Note_off_c, 0, 58, 100
1, 8553, Note_on_c, 0, 56, 100
1, 8585, Note_off_c, 0, 56, 100
1, 8585, Note_on_c, 0, 60, 100
1, 8617, Note_off_c, 0, 60, 100
1, 8617, Note_on_c, 0, 56, 100
1, 8655, Note_off_c, 0, 56, 100
1, 8655, Note_on_c, 0, 53, 100
1, 8693, Note_off_c, 0, 53, 100
1, 8693, Note_on_c, 0, 59, 100
1, 8731, Note_off_c, 0, 59, 100
1, 8731, Note_on_c, 0, 55, 100
1, 8769, Note_off_c, 0, 55, 100
1, 8769, Note_on_c, 0, 52, 100
1, 8807, Note_off_c, 0, 52, 100
1, 8807, Note_on_c, 0, 57, 100
1, 8831, Note_off_c, 0, 57, 100
1, 8831, Note_on_c, 0, 52, 100
1, 8855, Note_off_c, 0, 52, 100
1, 8855, Note_on_c, 0, 54, 100
1, 8879, Note_off_c, 0, 54, 100
1, 8879, Note_on_c, 0, 55, 100
1, 8903, Note_off_c, 0, 55, 100
1, 8903, Note_on_c, 0, 57, 100
1, 8927, Note_off_c, 0, 57, 100
1, 8927, Note_on_c, 0, 64, 100
1, 8999, Note_off_c, 0, 64, 100
1, 8999, Note_on_c, 0, 60, 100
1, 9037, Note_off_c, 0, 60, 100
1, 9037, Note_on_c, 0, 64, 100
1, 9075, Note_off_c, 0, 64, 100
1, 9075, Note_on_c, 0, 59, 100
1, 9113, Note_off_c, 0, 59, 100
1, 9113, Note_on_c, 0, 55, 100
1, 9151, Note_off_c, 0, 55, 100
1, 9151, Note_on_c, 0, 66, 100
1, 9189, Note_off_c, 0, 66, 100
1, 9189, Note_on_c, 0, 61, 100
1, 9237, Note_off_c, 0, 61, 100
1, 9237, Note_on_c, 0, 65, 100
1, 9333, Note_off_c, 0, 65, 100
1, 9333, Note_on_c, 0, 63, 100
1, 9381, Note_off_c, 0, 63, 100
1, 9381, Note_on_c, 0, 66, 100
1, 9477, Note_off_c, 0, 66, 100
1, 9477, Note_on_c, 0, 66, 100
1, 9525, Note_off_c, 0, 66, 100
1, 9525, Note_on_c, 0, 68, 100
1, 9573, Note_off_c, 0, 68, 100
1, 9573, Note_on_c, 0, 70, 100
1, 9649, Note_off_c, 0, 70, 100
1, 9649, Note_on_c, 0, 71, 100
1, 9687, Note_off_c, 0, 71, 100
1, 9687, Note_on_c, 0, 72, 100
1, 9725, Note_off_c, 0, 72, 100
1, 9725, Note_on_c, 0, 68, 100
1, 9763, Note_off_c, 0, 68, 100
1, 9763, Note_on_c, 0, 72, 100
1, 9827, Note_off_c, 0, 72, 100
1, 9827, Note_on_c, 0, 75, 100
1, 9891, Note_off_c, 0, 75, 100
1, 9891, Note_on_c, 0, 72, 100
1, 10220, Note_off_c, 0, 72, 100
1, 10220, Note_on_c, 0, 67, 100
1, 10234, Note_off_c, 0, 67, 100
1, 10234, Note_on_c, 0, 68, 100
1, 10248, Note_off_c, 0, 68, 100
1, 10248, Note_on_c, 0, 69, 100
1, 10277, Note_off_c, 0, 69, 100
1, 10277, Note_on_c, 0, 65, 100
1, 10291, Note_off_c, 0, 65, 100
1, 10291, Note_on_c, 0, 66, 100
1, 10305, Note_off_c, 0, 66, 100
1, 10305, Note_on_c, 0, 67, 100
1, 10319, Note_off_c, 0, 67, 100
1, 10319, Note_on_c, 0, 66, 100
1, 10381, Note_off_c, 0, 66, 100
1, 10381, Note_on_c, 0, 65, 100
1, 10429, Note_off_c, 0, 65, 100
1, 10429, Note_on_c, 0, 64, 100
1, 10453, Note_off_c, 0, 64, 100
1, 10453, Note_on_c, 0, 63, 100
1, 10477, Note_off_c, 0, 63, 100
1, 10477, Note_on_c, 0, 62, 100
1, 10501, Note_off_c, 0, 62, 100
1, 10501, Note_on_c, 0, 60, 100
1, 10525, Note_off_c, 0, 60, 100
1, 10525, Note_on_c, 0, 55, 100
1, 10552, Note_off_c, 0, 55, 100
1, 10552, Note_on_c, 0, 58, 100
1, 10579, Note_off_c, 0, 58, 100
1, 10579, Note_on_c, 0, 63, 100
1, 10606, Note_off_c, 0, 63, 100
1, 10606, Note_on_c, 0, 60, 100
1, 10633, Note_off_c, 0, 60, 100
1, 10633, Note_on_c, 0, 55, 100
1, 10660, Note_off_c, 0, 55, 100
1, 10660, Note_on_c, 0, 57, 100
1, 10714, Note_off_c, 0, 57, 100
1, 10714, Note_on_c, 0, 53, 100
1, 10752, Note_off_c, 0, 53, 100
1, 10752, Note_on_c, 0, 58, 100
1, 10867, Note_off_c, 0, 58, 100
1, 10867, Note_on_c, 0, 60, 100
1, 10905, Note_off_c, 0, 60, 100
1, 10905, Note_on_c, 0, 61, 100
1, 10953, Note_off_c, 0, 61, 100
1, 10953, Note_on_c, 0, 63, 100
1, 11001, Note_off_c, 0, 63, 100
1, 11001, Note_on_c, 0, 65, 100
1, 11049, Note_off_c, 0, 65, 100
1, 11049, Note_on_c, 0, 68, 100
1, 11145, Note_off_c, 0, 68, 100
1, 11145, Note_on_c, 0, 66, 100
1, 11193, Note_off_c, 0, 66, 100
1, 11193, Note_on_c, 0, 68, 100
1, 11241, Note_off_c, 0, 68, 100
1, 11241, Note_on_c, 0, 70, 100
1, 11289, Note_off_c, 0, 70, 100
1, 11289, Note_on_c, 0, 64, 100
1, 11313, Note_off_c, 0, 64, 100
1, 11313, Note_on_c, 0, 65, 100
1, 11457, Note_off_c, 0, 65, 100
1, 11457, Note_on_c, 0, 56, 100
1, 11481, Note_off_c, 0, 56, 100
1, 11481, Note_on_c, 0, 63, 100
1, 11529, Note_off_c, 0, 63, 100
1, 11529, Note_on_c, 0, 61, 100
1, 11721, Note_off_c, 0, 61, 100
1, 11968, Note_on_c, 0, 62, 100
1, 11997, Note_off_c, 0, 62, 100
1, 11997, Note_on_c, 0, 64, 100
1, 12011, Note_off_c, 0, 64, 100
1, 12011, Note_on_c, 0, 64, 100
1, 12025, Note_off_c, 0, 64, 100
1, 12025, Note_on_c, 0, 66, 100
1, 12039, Note_off_c, 0, 66, 100
1, 12039, Note_on_c, 0, 67, 100
1, 12053, Note_off_c, 0, 67, 100
1, 12053, Note_on_c, 0, 66, 100
1, 12101, Note_off_c, 0, 66, 100
1, 12101, Note_on_c, 0, 69, 100
1, 12149, Note_off_c, 0, 69, 100
1, 12149, Note_on_c, 0, 72, 100
1, 12197, Note_off_c, 0, 72, 100
1, 12197, Note_on_c, 0, 73, 100
1, 12283, Note_off_c, 0, 73, 100
1, 12283, Note_on_c, 0, 69, 100
1, 12321, Note_off_c, 0, 69, 100
1, 12321, Note_on_c, 0, 66, 100
1, 12359, Note_off_c, 0, 66, 100
1, 12359, Note_on_c, 0, 71, 100
1, 12397, Note_off_c, 0, 71, 100
1, 12397, Note_on_c, 0, 69, 100
1, 12435, Note_off_c, 0, 69, 100
1, 12435, Note_on_c, 0, 66, 100
1, 12467, Note_off_c, 0, 66, 100
1, 12467, Note_on_c, 0, 64, 100
1, 12499, Note_off_c, 0, 64, 100
1, 12499, Note_on_c, 0, 69, 100
1, 12531, Note_off_c, 0, 69, 100
1, 12531, Note_on_c, 0, 66, 100
1, 12563, Note_off_c, 0, 66, 100
1, 12563, Note_on_c, 0, 61, 100
1, 12595, Note_off_c, 0, 61, 100
1, 12595, Note_on_c, 0, 64, 100
1, 12627, Note_off_c, 0, 64, 100
1, 12627, Note_on_c, 0, 62, 100
1, 12665, Note_off_c, 0, 62, 100
1, 12665, Note_on_c, 0, 61, 100
1, 12703, Note_off_c, 0, 61, 100
1, 12703, Note_on_c, 0, 59, 100
1, 12741, Note_off_c, 0, 59, 100
1, 12741, Note_on_c, 0, 64, 100
1, 12779, Note_off_c, 0, 64, 100
1, 12779, Note_on_c, 0, 61, 100
1, 12865, Note_off_c, 0, 61, 100
1, 12865, Note_on_c, 0, 58, 100
1, 12913, Note_off_c, 0, 58, 100
1, 12913, Note_on_c, 0, 61, 100
1, 12961, Note_off_c, 0, 61, 100
1, 12961, Note_on_c, 0, 58, 100
1, 13009, Note_off_c, 0, 58, 100
1, 13009, Note_on_c, 0, 59, 100
1, 13047, Note_off_c, 0, 59, 100
1, 13047, Note_on_c, 0, 61, 100
1, 13085, Note_off_c, 0, 61, 100
1, 13085, Note_on_c, 0, 57, 100
1, 13161, Note_off_c, 0, 57, 100
1, 13161, Note_on_c, 0, 57, 100
1, 13343, Note_off_c, 0, 57, 100
1, 13343, Note_on_c, 0, 55, 100
1, 13391, Note_off_c, 0, 55, 100
1, 13391, Note_on_c, 0, 57, 100
1, 13412, Note_off_c, 0, 57, 100
1, 13412, Note_on_c, 0, 58, 100
1, 13433, Note_off_c, 0, 58, 100
1, 13433, Note_on_c, 0, 58, 100
1, 13454, Note_off_c, 0, 58, 100
1, 13454, Note_on_c, 0, 62, 100
1, 13475, Note_off_c, 0, 62, 100
1, 13475, Note_on_c, 0, 57, 100
1, 13496, Note_off_c, 0, 57, 100
1, 13496, Note_on_c, 0, 58, 100
1, 13517, Note_off_c, 0, 58, 100
1, 13517, Note_on_c, 0, 62, 100
1, 13538, Note_off_c, 0, 62, 100
1, 13538, Note_on_c, 0, 65, 100
1, 13559, Note_off_c, 0, 65, 100
1, 13559, Note_on_c, 0, 69, 100
1, 13580, Note_off_c, 0, 69, 100
1, 13580, Note_on_c, 0, 72, 100
1, 13628, Note_off_c, 0, 72, 100
1, 13628, Note_on_c, 0, 70, 100
1, 13676, Note_off_c, 0, 70, 100
1, 13676, Note_on_c, 0, 61, 100
1, 13700, Note_off_c, 0, 61, 100
1, 13700, Note_on_c, 0, 62, 100
1, 13724, Note_off_c, 0, 62, 100
1, 13724, Note_on_c, 0, 65, 100
1, 13748, Note_off_c, 0, 65, 100
1, 13748, Note_on_c, 0, 69, 100
1, 13772, Note_off_c, 0, 69, 100
1, 13772, Note_on_c, 0, 66, 100
1, 13820, Note_off_c, 0, 66, 100
1, 13820, Note_on_c, 0, 67, 100
1, 13868, Note_off_c, 0, 67, 100
1, 13868, Note_on_c, 0, 69, 100
1, 13916, Note_off_c, 0, 69, 100
1, 13916, Note_on_c, 0, 66, 100
1, 14156, Note_off_c, 0, 66, 100
1, 14156, Note_on_c, 0, 64, 100
1, 14220, Note_off_c, 0, 64, 100
1, 14220, Note_on_c, 0, 66, 100
1, 14284, Note_off_c, 0, 66, 100
1, 14284, Note_on_c, 0, 66, 100
1, 14316, Note_off_c, 0, 66, 100
1, 14316, Note_on_c, 0, 67, 100
1, 14396, Note_off_c, 0, 67, 100
1, 14396, Note_on_c, 0, 59, 100
1, 14492, Note_off_c, 0, 59, 100
1, 14492, Note_on_c, 0, 64, 100
1, 14540, Note_off_c, 0, 64, 100
1, 14540, Note_on_c, 0, 61, 100
1, 14636, Note_off_c, 0, 61, 100
1, 14636, Note_on_c, 0, 57, 100
1, 14876, Note_off_c, 0, 57, 100
1, 14876, Note_on_c, 0, 53, 100
1, 14924, Note_off_c, 0, 53, 100
1, 14924, Note_on_c, 0, 57, 100
1, 15020, Note_off_c, 0, 57, 100
1, 15020, Note_on_c, 0, 54, 100
1, 15212, Note_off_c, 0, 54, 100
1, 15538, Note_on_c, 0, 50, 100
1, 15576, Note_off_c, 0, 50, 100
1, 15576, Note_on_c, 0, 52, 100
1, 15614, Note_off_c, 0, 52, 100
1, 15614, Note_on_c, 0, 53, 100
1, 15652, Note_off_c, 0, 53, 100
1, 15652, Note_on_c, 0, 55, 100
1, 15690, Note_off_c, 0, 55, 100
1, 15690, Note_on_c, 0, 57, 100
1, 15722, Note_off_c, 0, 57, 100
1, 15722, Note_on_c, 0, 57, 100
1, 15754, Note_off_c, 0, 57, 100
1, 15754, Note_on_c, 0, 60, 100
1, 15786, Note_off_c, 0, 60, 100
1, 15786, Note_on_c, 0, 57, 100
1, 15818, Note_off_c, 0, 57, 100
1, 15818, Note_on_c, 0, 59, 100
1, 15850, Note_off_c, 0, 59, 100
1, 15850, Note_on_c, 0, 59, 100
1, 15882, Note_off_c, 0, 59, 100
1, 15882, Note_on_c, 0, 64, 100
1, 15930, Note_off_c, 0, 64, 100
1, 15930, Note_on_c, 0, 65, 100
1, 15978, Note_off_c, 0, 65, 100
1, 15978, Note_on_c, 0, 71, 100
1, 16074, Note_off_c, 0, 71, 100
1, 16074, Note_on_c, 0, 73, 100
1, 16122, Note_off_c, 0, 73, 100
1, 16122, Note_on_c, 0, 74, 100
1, 16170, Note_off_c, 0, 74, 100
1, 16170, Note_on_c, 0, 67, 100
1, 16218, Note_off_c, 0, 67, 100
1, 16218, Note_on_c, 0, 67, 100
1, 16266, Note_off_c, 0, 67, 100
1, 16266, Note_on_c, 0, 69, 100
1, 16287, Note_off_c, 0, 69, 100
1, 16287, Note_on_c, 0, 71, 100
1, 16308, Note_off_c, 0, 71, 100
1, 16308, Note_on_c, 0, 74, 100
1, 16329, Note_off_c, 0, 74, 100
1, 16329, Note_on_c, 0, 71, 100
1, 16350, Note_off_c, 0, 71, 100
1, 16350, Note_on_c, 0, 67, 100
1, 16392, Note_off_c, 0, 67, 100
1, 16392, Note_on_c, 0, 69, 100
1, 16413, Note_off_c, 0, 69, 100
1, 16413, Note_on_c, 0, 71, 100
1, 16434, Note_off_c, 0, 71, 100
1, 16434, Note_on_c, 0, 64, 100
1, 16455, Note_off_c, 0, 64, 100
1, 16455, Note_on_c, 0, 69, 100
1, 16472, Note_off_c, 0, 69, 100
1, 16472, Note_on_c, 0, 71, 100
1, 16506, Note_off_c, 0, 71, 100
1, 16506, Note_on_c, 0, 65, 100
1, 16540, Note_off_c, 0, 65, 100
1, 16540, Note_on_c, 0, 61, 100
1, 16557, Note_off_c, 0, 61, 100
1, 16557, Note_on_c, 0, 65, 100
1, 16574, Note_off_c, 0, 65, 100
1, 16574, Note_on_c, 0, 67, 100
1, 16591, Note_off_c, 0, 67, 100
1, 16591, Note_on_c, 0, 65, 100
1, 16608, Note_off_c, 0, 65, 100
1, 16608, Note_on_c, 0, 64, 100
1, 16625, Note_off_c, 0, 64, 100
1, 16625, Note_on_c, 0, 58, 100
1, 16642, Note_off_c, 0, 58, 100
1, 16642, Note_on_c, 0, 53, 100
1, 16666, Note_off_c, 0, 53, 100
1, 16666, Note_on_c, 0, 57, 100
1, 16690, Note_off_c, 0, 57, 100
1, 16690, Note_on_c, 0, 61, 100
1, 16714, Note_off_c, 0, 61, 100
1, 16714, Note_on_c, 0, 58, 100
1, 16738, Note_off_c, 0, 58, 100
1, 16738, Note_on_c, 0, 53, 100
1, 16762, Note_off_c, 0, 53, 100
1, 16762, Note_on_c, 0, 52, 100
1, 16786, Note_off_c, 0, 52, 100
1, 16786, Note_on_c, 0, 46, 100
1, 16810, Note_off_c, 0, 46, 100
1, 16810, Note_on_c, 0, 52, 100
1, 16834, Note_off_c, 0, 52, 100
1, 16834, Note_on_c, 0, 46, 100
1, 16882, Note_off_c, 0, 46, 100
1, 16882, Note_on_c, 0, 45, 100
1, 17078, Note_off_c, 0, 45, 100
1, 17078, Note_on_c, 0, 45, 100
1, 17095, Note_off_c, 0, 45, 100
1, 17095, Note_on_c, 0, 47, 100
1, 17112, Note_off_c, 0, 47, 100
1, 17112, Note_on_c, 0, 49, 100
1, 17129, Note_off_c, 0, 49, 100
1, 17129, Note_on_c, 0, 52, 100
1, 17146, Note_off_c, 0, 52, 100
1, 17146, Note_on_c, 0, 55, 100
1, 17163, Note_off_c, 0, 55, 100
1, 17163, Note_on_c, 0, 50, 100
1, 17180, Note_off_c, 0, 50, 100
1, 17180, Note_on_c, 0, 51, 100
1, 17197, Note_off_c, 0, 51, 100
1, 17197, Note_on_c, 0, 52, 100
1, 17214, Note_off_c, 0, 52, 100
1, 17214, Note_on_c, 0, 53, 100
1, 17230, Note_off_c, 0, 53, 100
1, 17230, Note_on_c, 0, 54, 100
1, 17246, Note_off_c, 0, 54, 100
1, 17246, Note_on_c, 0, 55, 100
1, 17262, Note_off_c, 0, 55, 100
1, 17262, Note_on_c, 0, 59, 100
1, 17278, Note_off_c, 0, 59, 100
1, 17278, Note_on_c, 0, 56, 100
1, 17294, Note_off_c, 0, 56, 100
1, 17294, Note_on_c, 0, 57, 100
1, 17326, Note_off_c, 0, 57, 100
1, 17326, Note_on_c, 0, 60, 100
1, 17342, Note_off_c, 0, 60, 100
1, 17342, Note_on_c, 0, 57, 100
1, 17358, Note_off_c, 0, 57, 100
1, 17358, Note_on_c, 0, 58, 100
1, 17390, Note_off_c, 0, 58, 100
1, 17390, Note_on_c, 0, 59, 100
1, 17406, Note_off_c, 0, 59, 100
1, 17406, Note_on_c, 0, 60, 100
1, 17430, Note_off_c, 0, 60, 100
1, 17430, Note_on_c, 0, 64, 100
1, 17454, Note_off_c, 0, 64, 100
1, 17454, Note_on_c, 0, 68, 100
1, 17478, Note_off_c, 0, 68, 100
1, 17478, Note_on_c, 0, 71, 100
1, 17502, Note_off_c, 0, 71, 100
1, 17502, Note_on_c, 0, 69, 100
1, 17526, Note_off_c, 0, 69, 100
1, 17526, Note_on_c, 0, 64, 100
1, 17550, Note_off_c, 0, 64, 100
1, 17550, Note_on_c, 0, 60, 100
1, 17598, Note_off_c, 0, 60, 100
1, 17598, Note_on_c, 0, 67, 100
1, 17742, Note_off_c, 0, 67, 100
1, 17742, Note_on_c, 0, 55, 100
1, 17838, Note_off_c, 0, 55, 100
1, 17838, Note_on_c, 0, 67, 100
1, 17886, Note_off_c, 0, 67, 100
1, 17886, Note_on_c, 0, 69, 100
1, 17934, Note_off_c, 0, 69, 100
1, 17934, Note_on_c, 0, 66, 100
1, 17982, Note_off_c, 0, 66, 100
1, 17982, Note_on_c, 0, 65, 100
1, 18078, Note_off_c, 0, 65, 100
1, 18078, Note_on_c, 0, 70, 100
1, 18289, Note_off_c, 0, 70, 100
1, 18289, Note_on_c, 0, 66, 100
1, 18327, Note_off_c, 0, 66, 100
1, 18327, Note_on_c, 0, 62, 100
1, 18365, Note_off_c, 0, 62, 100
1, 18365, Note_on_c, 0, 65, 100
1, 18397, Note_off_c, 0, 65, 100
1, 18397, Note_on_c, 0, 62, 100
1, 18429, Note_off_c, 0, 62, 100
1, 18429, Note_on_c, 0, 63, 100
1, 18461, Note_off_c, 0, 63, 100
1, 18461, Note_on_c, 0, 65, 100
1, 18493, Note_off_c, 0, 65, 100
1, 18493, Note_on_c, 0, 63, 100
1, 18589, Note_off_c, 0, 63, 100
1, 18797, Note_on_c, 0, 62, 100
1, 18821, Note_off_c, 0, 62, 100
1, 18821, Note_on_c, 0, 63, 100
1, 18869, Note_off_c, 0, 63, 100
1, 18869, Note_on_c, 0, 65, 100
1, 18893, Note_off_c, 0, 65, 100
1, 18893, Note_on_c, 0, 63, 100
1, 18917, Note_off_c, 0, 63, 100
1, 18917, Note_on_c, 0, 58, 100
1, 18941, Note_off_c, 0, 58, 100
1, 18941, Note_on_c, 0, 53, 100
1, 18973, Note_off_c, 0, 53, 100
1, 18973, Note_on_c, 0, 52, 100
1, 19005, Note_off_c, 0, 52, 100
1, 19005, Note_on_c, 0, 50, 100
1, 19037, Note_off_c, 0, 50, 100
1, 19037, Note_on_c, 0, 51, 100
1, 19069, Note_off_c, 0, 51, 100
1, 19069, Note_on_c, 0, 53, 100
1, 19101, Note_off_c, 0, 53, 100
1, 19101, Note_on_c, 0, 49, 100
1, 19133, Note_off_c, 0, 49, 100
1, 19133, Note_on_c, 0, 50, 100
1, 19181, Note_off_c, 0, 50, 100
1, 19181, Note_on_c, 0, 53, 100
1, 19229, Note_off_c, 0, 53, 100
1, 19229, Note_on_c, 0, 51, 100
1, 19277, Note_off_c, 0, 51, 100
1, 19277, Note_on_c, 0, 46, 100
1, 19469, Note_off_c, 0, 46, 100
1, 19469, Note_on_c, 0, 58, 100
1, 19493, Note_off_c, 0, 58, 100
1, 19493, Note_on_c, 0, 56, 100
1, 19517, Note_off_c, 0, 56, 100
1, 19517, Note_on_c, 0, 54, 100
1, 19565, Note_off_c, 0, 54, 100
1, 19565, Note_on_c, 0, 53, 100
1, 19613, Note_off_c, 0, 53, 100
1, 19613, Note_on_c, 0, 52, 100
1, 19709, Note_off_c, 0, 52, 100
1, 19709, Note_on_c, 0, 52, 100
1, 19730, Note_off_c, 0, 52, 100
1, 19730, Note_on_c, 0, 54, 100
1, 19751, Note_off_c, 0, 54, 100
1, 19751, Note_on_c, 0, 60, 100
1, 19878, Note_off_c, 0, 60, 100
1, 19878, Note_on_c, 0, 58, 100
1, 19899, Note_off_c, 0, 58, 100
1, 19899, Note_on_c, 0, 53, 100
1, 19995, Note_off_c, 0, 53, 100
1, 19995, Note_on_c, 0, 56, 100
1, 20331, Note_off_c, 0, 56, 100
1, 20331, Note_on_c, 0, 55, 100
1, 20379, Note_off_c, 0, 55, 100
1, 20379, Note_on_c, 0, 56, 100
1, 20427, Note_off_c, 0, 56, 100
1, 20427, Note_on_c, 0, 58, 100
1, 20475, Note_off_c, 0, 58, 100
1, 20475, Note_on_c, 0, 56, 100
1, 20523, Note_off_c, 0, 56, 100
1, 20523, Note_on_c, 0, 55, 100
1, 20571, Note_off_c, 0, 55, 100
1, 20571, Note_on_c, 0, 56, 100
1, 20619, Note_off_c, 0, 56, 100
1, 20619, Note_on_c, 0, 56, 100
1, 20667, Note_off_c, 0, 56, 100
1, 20667, Note_on_c, 0, 65, 100
1, 20763, Note_off_c, 0, 65, 100
1, 20763, Note_on_c, 0, 63, 100
1, 20811, Note_off_c, 0, 63, 100
1, 20811, Note_on_c, 0, 63, 100
1, 21012, Note_off_c, 0, 63, 100
1, 21012, Note_on_c, 0, 61, 100
1, 21114, Note_off_c, 0, 61, 100
1, 21114, Note_on_c, 0, 60, 100
1, 21178, Note_off_c, 0, 60, 100
1, 21178, Note_on_c, 0, 59, 100
1, 21338, Note_off_c, 0, 59, 100
1, 21338, Note_on_c, 0, 61, 100
1, 21434, Note_off_c, 0, 61, 100
1, 21434, Note_on_c, 0, 58, 100
1, 21754, Note_off_c, 0, 58, 100
1, 21754, Note_on_c, 0, 73, 100
1, 21775, Note_off_c, 0, 73, 100
1, 21775, Note_on_c, 0, 72, 100
1, 21796, Note_off_c, 0, 72, 100
1, 21796, Note_on_c, 0, 70, 100
1, 21836, Note_off_c, 0, 70, 100
1, 21836, Note_on_c, 0, 72, 100
1, 21855, Note_off_c, 0, 72, 100
1, 21855, Note_on_c, 0, 73, 100
1, 21893, Note_off_c, 0, 73, 100
1, 21893, Note_on_c, 0, 72, 100
1, 21912, Note_off_c, 0, 72, 100
1, 21912, Note_on_c, 0, 70, 100
1, 21988, Note_off_c, 0, 70, 100
1, 21988, Note_on_c, 0, 66, 100
1, 22055, Note_off_c, 0, 66, 100
1, 22055, Note_on_c, 0, 66, 100
1, 22079, Note_off_c, 0, 66, 100
1, 22079, Note_on_c, 0, 67, 100
1, 22103, Note_off_c, 0, 67, 100
1, 22103, Note_on_c, 0, 68, 100
1, 22151, Note_off_c, 0, 68, 100
1, 22151, Note_on_c, 0, 65, 100
1, 22295, Note_off_c, 0, 65, 100
1, 22295, Note_on_c, 0, 65, 100
1, 22319, Note_off_c, 0, 65, 100
1, 22319, Note_on_c, 0, 64, 100
1, 22343, Note_off_c, 0, 64, 100
1, 22343, Note_on_c, 0, 65, 100
1, 22367, Note_off_c, 0, 65, 100
1, 22367, Note_on_c, 0, 66, 100
1, 22391, Note_off_c, 0, 66, 100
1, 22391, Note_on_c, 0, 68, 100
1, 22423, Note_off_c, 0, 68, 100
1, 22423, Note_on_c, 0, 70, 100
1, 22455, Note_off_c, 0, 70, 100
1, 22455, Note_on_c, 0, 73, 100
1, 22487, Note_off_c, 0, 73, 100
1, 22487, Note_on_c, 0, 75, 100
1, 22519, Note_off_c, 0, 75, 100
1, 22519, Note_on_c, 0, 72, 100
1, 22615, Note_off_c, 0, 72, 100
1, 22615, Note_on_c, 0, 70, 100
1, 22647, Note_off_c, 0, 70, 100
1, 22647, Note_on_c, 0, 69, 100
1, 22679, Note_off_c, 0, 69, 100
1, 22679, Note_on_c, 0, 61, 100
1, 22711, Note_off_c, 0, 61, 100
1, 22711, Note_on_c, 0, 63, 100
1, 22743, Note_off_c, 0, 63, 100
1, 22743, Note_on_c, 0, 67, 100
1, 22799, Note_off_c, 0, 67, 100
1, 22799, Note_on_c, 0, 66, 100
1, 22871, Note_off_c, 0, 66, 100
1, 22871, Note_on_c, 0, 64, 100
1, 22895, Note_off_c, 0, 64, 100
1, 22895, Note_on_c, 0, 65, 100
1, 22919, Note_off_c, 0, 65, 100
1, 22919, Note_on_c, 0, 61, 100
1, 22943, Note_off_c, 0, 61, 100
1, 22943, Note_on_c, 0, 57, 100
1, 22967, Note_off_c, 0, 57, 100
1, 22967, Note_on_c, 0, 53, 100
1, 23005, Note_off_c, 0, 53, 100
1, 23005, Note_on_c, 0, 60, 100
1, 23043, Note_off_c, 0, 60, 100
1, 23043, Note_on_c, 0, 57, 100
1, 23081, Note_off_c, 0, 57, 100
1, 23081, Note_on_c, 0, 58, 100
1, 23119, Note_off_c, 0, 58, 100
1, 23119, Note_on_c, 0, 60, 100
1, 23181, Note_off_c, 0, 60, 100
1, 23181, Note_on_c, 0, 61, 100
1, 23205, Note_off_c, 0, 61, 100
1, 23205, Note_on_c, 0, 63, 100
1, 23229, Note_off_c, 0, 63, 100
1, 23229, Note_on_c, 0, 65, 100
1, 23253, Note_off_c, 0, 65, 100
1, 23253, Note_on_c, 0, 66, 100
1, 23277, Note_off_c, 0, 66, 100
1, 23277, Note_on_c, 0, 68, 100
1, 23301, Note_off_c, 0, 68, 100
1, 23301, Note_on_c, 0, 70, 100
1, 23325, Note_off_c, 0, 70, 100
1, 23325, Note_on_c, 0, 72, 100
1, 23349, Note_off_c, 0, 72, 100
1, 23349, Note_on_c, 0, 75, 100
1, 23397, Note_off_c, 0, 75, 100
1, 23397, Note_on_c, 0, 73, 100
1, 23589, Note_off_c, 0, 73, 100
1, 23589, Note_on_c, 0, 72, 100
1, 23637, Note_off_c, 0, 72, 100
1, 23637, Note_on_c, 0, 70, 100
1, 23685, Note_off_c, 0, 70, 100
1, 23685, Note_on_c, 0, 68, 100
1, 23733, Note_off_c, 0, 68, 100
1, 23733, Note_on_c, 0, 65, 100
1, 23781, Note_off_c, 0, 65, 100
1, 23781, Note_on_c, 0, 63, 100
1, 23829, Note_off_c, 0, 63, 100
1, 23829, Note_on_c, 0, 61, 100
1, 23877, Note_off_c, 0, 61, 100
1, 23877, Note_on_c, 0, 65, 100
1, 24069, Note_off_c, 0, 65, 100
1, 24069, Note_on_c, 0, 66, 100
1, 24093, Note_off_c, 0, 66, 100
1, 24093, Note_on_c, 0, 68, 100
1, 24117, Note_off_c, 0, 68, 100
1, 24117, Note_on_c, 0, 65, 100
1, 24155, Note_off_c, 0, 65, 100
1, 24155, Note_on_c, 0, 68, 100
1, 24193, Note_off_c, 0, 68, 100
1, 24193, Note_on_c, 0, 62, 100
1, 24231, Note_off_c, 0, 62, 100
1, 24231, Note_on_c, 0, 68, 100
1, 24269, Note_off_c, 0, 68, 100
1, 24269, Note_on_c, 0, 62, 100
1, 24355, Note_off_c, 0, 62, 100
1, 24355, Note_on_c, 0, 65, 100
1, 24403, Note_off_c, 0, 65, 100
1, 24403, Note_on_c, 0, 68, 100
1, 24451, Note_off_c, 0, 68, 100
1, 24451, Note_on_c, 0, 62, 100
1, 24537, Note_off_c, 0, 62, 100
1, 24537, Note_on_c, 0, 65, 100
1, 24575, Note_off_c, 0, 65, 100
1, 24575, Note_on_c, 0, 62, 100
1, 24613, Note_off_c, 0, 62, 100
1, 24613, Note_on_c, 0, 65, 100
1, 24651, Note_off_c, 0, 65, 100
1, 24651, Note_on_c, 0, 63, 100
1, 24689, Note_off_c, 0, 63, 100
1, 24689, Note_on_c, 0, 65, 100
1, 24737, Note_off_c, 0, 65, 100
1, 24737, Note_on_c, 0, 63, 100
1, 24785, Note_off_c, 0, 63, 100
1, 24785, Note_on_c, 0, 61, 100
1, 24833, Note_off_c, 0, 61, 100
1, 24833, Note_on_c, 0, 65, 100
1, 24881, Note_off_c, 0, 65, 100
1, 24881, Note_on_c, 0, 63, 100
1, 24898, Note_off_c, 0, 63, 100
1, 24898, Note_on_c, 0, 56, 100
1, 24915, Note_off_c, 0, 56, 100
1, 24915, Note_on_c, 0, 58, 100
1, 24932, Note_off_c, 0, 58, 100
1, 24932, Note_on_c, 0, 56, 100
1, 24949, Note_off_c, 0, 56, 100
1, 24949, Note_on_c, 0, 65, 100
1, 24966, Note_off_c, 0, 65, 100
1, 24966, Note_on_c, 0, 63, 100
1, 25053, Note_off_c, 0, 63, 100
1, 25053, Note_on_c, 0, 58, 100
1, 25349, Note_off_c, 0, 58, 100
1, 25349, Note_on_c, 0, 69, 100
1, 25366, Note_off_c, 0, 69, 100
1, 25366, Note_on_c, 0, 70, 100
1, 25383, Note_off_c, 0, 70, 100
1, 25383, Note_on_c, 0, 69, 100
1, 25400, Note_off_c, 0, 69, 100
1, 25400, Note_on_c, 0, 63, 100
1, 25434, Note_off_c, 0, 63, 100
1, 25434, Note_on_c, 0, 65, 100
1, 25475, Note_off_c, 0, 65, 100
1, 25475, Note_on_c, 0, 68, 100
1, 25571, Note_off_c, 0, 68, 100
1, 25571, Note_on_c, 0, 67, 100
1, 25595, Note_off_c, 0, 67, 100
1, 25595, Note_on_c, 0, 66, 100
1, 25619, Note_off_c, 0, 66, 100
1, 25619, Note_on_c, 0, 67, 100
1, 25643, Note_off_c, 0, 67, 100
1, 25643, Note_on_c, 0, 71, 100
1, 25667, Note_off_c, 0, 71, 100
1, 25667, Note_on_c, 0, 75, 100
1, 25691, Note_off_c, 0, 75, 100
1, 25691, Note_on_c, 0, 76, 100
1, 25715, Note_off_c, 0, 76, 100
1, 25715, Note_on_c, 0, 73, 100
1, 25739, Note_off_c, 0, 73, 100
1, 25739, Note_on_c, 0, 71, 100
1, 25763, Note_off_c, 0, 71, 100
1, 25763, Note_on_c, 0, 67, 100
1, 25787, Note_off_c, 0, 67, 100
1, 25787, Note_on_c, 0, 63, 100
1, 25811, Note_off_c, 0, 63, 100
1, 25811, Note_on_c, 0, 60, 100
1, 25883, Note_off_c, 0, 60, 100
1, 25883, Note_on_c, 0, 67, 100
1, 25931, Note_off_c, 0, 67, 100
1, 25931, Note_on_c, 0, 71, 100
1, 25979, Note_off_c, 0, 71, 100
1, 25979, Note_on_c, 0, 66, 100
1, 26027, Note_off_c, 0, 66, 100
1, 26027, Note_on_c, 0, 65, 100
1, 26044, Note_off_c, 0, 65, 100
1, 26044, Note_on_c, 0, 64, 100
1, 26061, Note_off_c, 0, 64, 100
1, 26061, Note_on_c, 0, 60, 100
1, 26095, Note_off_c, 0, 60, 100
1, 26095, Note_on_c, 0, 64, 100
1, 26112, Note_off_c, 0, 64, 100
1, 26112, Note_on_c, 0, 65, 100
1, 26199, Note_off_c, 0, 65, 100
1, 26199, Note_on_c, 0, 60, 100
1, 26216, Note_off_c, 0, 60, 100
1, 26216, Note_on_c, 0, 58, 100
1, 26264, Note_off_c, 0, 58, 100
1, 26264, Note_on_c, 0, 56, 100
1, 26312, Note_off_c, 0, 56, 100
1, 26312, Note_on_c, 0, 63, 100
1, 26408, Note_off_c, 0, 63, 100
1, 26408, Note_on_c, 0, 60, 100
1, 26456, Note_off_c, 0, 60, 100
1, 26456, Note_on_c, 0, 56, 100
1, 26504, Note_off_c, 0, 56, 100
1, 26504, Note_on_c, 0, 53, 100
1, 26552, Note_off_c, 0, 53, 100
1, 26552, Note_on_c, 0, 51, 100
1, 26600, Note_off_c, 0, 51, 100
1, 26600, Note_on_c, 0, 53, 100
1, 26676, Note_off_c, 0, 53, 100
1, 26676, Note_on_c, 0, 48, 100
1, 26714, Note_off_c, 0, 48, 100
1, 26714, Note_on_c, 0, 46, 100
1, 26752, Note_off_c, 0, 46, 100
1, 26752, Note_on_c, 0, 44, 100
1, 27046, Note_off_c, 0, 44, 100
1, 27046, Note_on_c, 0, 50, 100
1, 27067, Note_off_c, 0, 50, 100
1, 27067, Note_on_c, 0, 51, 100
1, 27088, Note_off_c, 0, 51, 100
1, 27088, Note_on_c, 0, 52, 100
1, 27109, Note_off_c, 0, 52, 100
1, 27109, Note_on_c, 0, 55, 100
1, 27130, Note_off_c, 0, 55, 100
1, 27130, Note_on_c, 0, 59, 100
1, 27151, Note_off_c, 0, 59, 100
1, 27151, Note_on_c, 0, 56, 100
1, 27172, Note_off_c, 0, 56, 100
1, 27172, Note_on_c, 0, 57, 100
1, 27191, Note_off_c, 0, 57, 100
1, 27191, Note_on_c, 0, 64, 100
1, 27210, Note_off_c, 0, 64, 100
1, 27210, Note_on_c, 0, 58, 100
1, 27229, Note_off_c, 0, 58, 100
1, 27229, Note_on_c, 0, 59, 100
1, 27248, Note_off_c, 0, 59, 100
1, 27248, Note_on_c, 0, 60, 100
1, 27267, Note_off_c, 0, 60, 100
1, 27267, Note_on_c, 0, 64, 100
1, 27286, Note_off_c, 0, 64, 100
1, 27286, Note_on_c, 0, 67, 100
1, 27305, Note_off_c, 0, 67, 100
1, 27305, Note_on_c, 0, 71, 100
1, 27324, Note_off_c, 0, 71, 100
1, 27324, Note_on_c, 0, 66, 100
1, 27482, Note_off_c, 0, 66, 100
1, 27482, Note_on_c, 0, 53, 100
1, 27506, Note_off_c, 0, 53, 100
1, 27506, Note_on_c, 0, 54, 100
1, 27530, Note_off_c, 0, 54, 100
1, 27530, Note_on_c, 0, 60, 100
1, 27554, Note_off_c, 0, 60, 100
1, 27554, Note_on_c, 0, 56, 100
1, 27596, Note_off_c, 0, 56, 100
1, 27596, Note_on_c, 0, 60, 100
1, 27617, Note_off_c, 0, 60, 100
1, 27617, Note_on_c, 0, 61, 100
1, 27638, Note_off_c, 0, 61, 100
1, 27638, Note_on_c, 0, 63, 100
1, 27659, Note_off_c, 0, 63, 100
1, 27659, Note_on_c, 0, 66, 100
1, 27680, Note_off_c, 0, 66, 100
1, 27680, Note_on_c, 0, 68, 100
1, 27701, Note_off_c, 0, 68, 100
1, 27701, Note_on_c, 0, 72, 100
1, 27722, Note_off_c, 0, 72, 100
1, 27722, Note_on_c, 0, 65, 100
1, 27791, Note_off_c, 0, 65, 100
1, 27791, Note_on_c, 0, 65, 100
1, 27839, Note_off_c, 0, 65, 100
1, 27839, Note_on_c, 0, 66, 100
1, 27887, Note_off_c, 0, 66, 100
1, 27887, Note_on_c, 0, 68, 100
1, 28079, Note_off_c, 0, 68, 100
1, 28079, Note_on_c, 0, 70, 100
1, 28127, Note_off_c, 0, 70, 100
1, 28127, Note_on_c, 0, 72, 100
1, 28159, Note_off_c, 0, 72, 100
1, 28159, Note_on_c, 0, 73, 100
1, 28191, Note_off_c, 0, 73, 100
1, 28191, Note_on_c, 0, 74, 100
1, 28223, Note_off_c, 0, 74, 100
1, 28223, Note_on_c, 0, 75, 100
1, 28287, Note_off_c, 0, 75, 100
1, 28287, Note_on_c, 0, 73, 100
1, 28319, Note_off_c, 0, 73, 100
1, 28319, Note_on_c, 0, 71, 100
1, 28343, Note_off_c, 0, 71, 100
1, 28343, Note_on_c, 0, 72, 100
1, 28415, Note_off_c, 0, 72, 100
1, 28415, Note_on_c, 0, 71, 100
1, 28439, Note_off_c, 0, 71, 100
1, 28439, Note_on_c, 0, 72, 100
1, 28559, Note_off_c, 0, 72, 100
1, 28559, Note_on_c, 0, 70, 100
1, 28607, Note_off_c, 0, 70, 100
1, 28607, Note_on_c, 0, 65, 100
1, 28655, Note_off_c, 0, 65, 100
1, 28655, Note_on_c, 0, 71, 100
1, 28703, Note_off_c, 0, 71, 100
1, 28703, Note_on_c, 0, 69, 100
1, 28737, Note_off_c, 0, 69, 100
1, 28737, Note_on_c, 0, 71, 100
1, 28754, Note_off_c, 0, 71, 100
1, 28754, Note_on_c, 0, 64, 100
1, 28788, Note_off_c, 0, 64, 100
1, 28788, Note_on_c, 0, 69, 100
1, 28805, Note_off_c, 0, 69, 100
1, 28805, Note_on_c, 0, 67, 100
1, 28822, Note_off_c, 0, 67, 100
1, 28822, Note_on_c, 0, 63, 100
1, 28839, Note_off_c, 0, 63, 100
1, 28839, Note_on_c, 0, 60, 100
1, 28856, Note_off_c, 0, 60, 100
1, 28856, Note_on_c, 0, 63, 100
1, 28873, Note_off_c, 0, 63, 100
1, 28873, Note_on_c, 0, 64, 100
1, 28890, Note_off_c, 0, 64, 100
1, 28890, Note_on_c, 0, 67, 100
1, 28922, Note_off_c, 0, 67, 100
1, 28922, Note_on_c, 0, 63, 100
1, 28954, Note_off_c, 0, 63, 100
1, 28954, Note_on_c, 0, 66, 100
1, 29018, Note_off_c, 0, 66, 100
1, 29018, Note_on_c, 0, 64, 100
1, 29050, Note_off_c, 0, 64, 100
1, 29050, Note_on_c, 0, 65, 100
1, 29120, Note_off_c, 0, 65, 100
1, 29120, Note_on_c, 0, 60, 100
1, 29158, Note_off_c, 0, 60, 100
1, 29158, Note_on_c, 0, 63, 100
1, 29196, Note_off_c, 0, 63, 100
1, 29196, Note_on_c, 0, 61, 100
1, 29234, Note_off_c, 0, 61, 100
1, 29234, Note_on_c, 0, 63, 100
1, 29272, Note_off_c, 0, 63, 100
1, 29272, Note_on_c, 0, 65, 100
1, 29336, Note_off_c, 0, 65, 100
1, 29336, Note_on_c, 0, 68, 100
1, 29400, Note_off_c, 0, 68, 100
1, 29400, Note_on_c, 0, 66, 100
1, 29608, Note_off_c, 0, 66, 100
1, 29608, Note_on_c, 0, 56, 100
1, 29656, Note_off_c, 0, 56, 100
1, 29656, Note_on_c, 0, 64, 100
1, 29704, Note_off_c, 0, 64, 100
1, 29704, Note_on_c, 0, 65, 100
1, 29752, Note_off_c, 0, 65, 100
1, 29752, Note_on_c, 0, 64, 100
1, 29848, Note_off_c, 0, 64, 100
1, 29848, Note_on_c, 0, 63, 100
1, 29963, Note_off_c, 0, 63, 100
1, 29963, Note_on_c, 0, 61, 100
1, 30001, Note_off_c, 0, 61, 100
1, 30001, Note_on_c, 0, 63, 100
1, 30039, Note_off_c, 0, 63, 100
1, 30039, Note_on_c, 0, 64, 100
1, 30071, Note_off_c, 0, 64, 100
1, 30071, Note_on_c, 0, 63, 100
1, 30135, Note_off_c, 0, 63, 100
1, 30135, Note_on_c, 0, 61, 100
1, 30167, Note_off_c, 0, 61, 100
1, 30167, Note_on_c, 0, 63, 100
1, 30327, Note_off_c, 0, 63, 100
1, 30327, Note_on_c, 0, 61, 100
1, 30351, Note_off_c, 0, 61, 100
1, 30351, Note_on_c, 0, 63, 100
1, 30375, Note_off_c, 0, 63, 100
1, 30375, Note_on_c, 0, 65, 100
1, 30399, Note_off_c, 0, 65, 100
1, 30399, Note_on_c, 0, 66, 100
1, 30444, Note_off_c, 0, 66, 100
1, 30444, Note_on_c, 0, 68, 100
1, 30465, Note_off_c, 0, 68, 100
1, 30465, Note_on_c, 0, 61, 100
1, 30486, Note_off_c, 0, 61, 100
1, 30486, Note_on_c, 0, 62, 100
1, 30507, Note_off_c, 0, 62, 100
1, 30507, Note_on_c, 0, 65, 100
1, 30549, Note_off_c, 0, 65, 100
1, 30549, Note_on_c, 0, 65, 100
1, 30570, Note_off_c, 0, 65, 100
1, 30570, Note_on_c, 0, 62, 100
1, 30591, Note_off_c, 0, 62, 100
1, 30591, Note_on_c, 0, 58, 100
1, 30612, Note_off_c, 0, 58, 100
1, 30612, Note_on_c, 0, 54, 100
1, 30636, Note_off_c, 0, 54, 100
1, 30636, Note_on_c, 0, 51, 100
1, 30660, Note_off_c, 0, 51, 100
1, 30660, Note_on_c, 0, 62, 100
1, 30684, Note_off_c, 0, 62, 100
1, 30684, Note_on_c, 0, 63, 100
1, 30708, Note_off_c, 0, 63, 100
1, 30708, Note_on_c, 0, 65, 100
1, 30732, Note_off_c, 0, 65, 100
1, 30732, Note_on_c, 0, 64, 100
1, 30756, Note_off_c, 0, 64, 100
1, 30756, Note_on_c, 0, 63, 100
1, 30804, Note_off_c, 0, 63, 100
1, 30804, Note_on_c, 0, 58, 100
1, 30828, Note_off_c, 0, 58, 100
1, 30828, Note_on_c, 0, 61, 100
1, 30900, Note_off_c, 0, 61, 100
1, 30900, Note_on_c, 0, 58, 100
1, 30924, Note_off_c, 0, 58, 100
1, 30924, Note_on_c, 0, 61, 100
1, 30948, Note_off_c, 0, 61, 100
1, 30948, Note_on_c, 0, 58, 100
1, 30972, Note_off_c, 0, 58, 100
1, 30972, Note_on_c, 0, 54, 100
1, 30996, Note_off_c, 0, 54, 100
1, 30996, Note_on_c, 0, 52, 100
1, 31044, Note_off_c, 0, 52, 100
1, 31044, Note_on_c, 0, 53, 100
1, 31092, Note_off_c, 0, 53, 100
1, 31092, Note_on_c, 0, 51, 100
1, 31215, Note_off_c, 0, 51, 100
1, 31215, Note_on_c, 0, 50, 100
1, 31242, Note_off_c, 0, 50, 100
1, 31242, Note_on_c, 0, 51, 100
1, 31269, Note_off_c, 0, 51, 100
1, 31269, Note_on_c, 0, 53, 100
1, 31296, Note_off_c, 0, 53, 100
1, 31296, Note_on_c, 0, 54, 100
1, 31323, Note_off_c, 0, 54, 100
1, 31323, Note_on_c, 0, 58, 100
1, 31350, Note_off_c, 0, 58, 100
1, 31350, Note_on_c, 0, 61, 100
1, 31377, Note_off_c, 0, 61, 100
1, 31377, Note_on_c, 0, 63, 100
1, 31394, Note_off_c, 0, 63, 100
1, 31394, Note_on_c, 0, 65, 100
1, 31411, Note_off_c, 0, 65, 100
1, 31411, Note_on_c, 0, 66, 100
1, 31445, Note_off_c, 0, 66, 100
1, 31445, Note_on_c, 0, 68, 100
1, 31462, Note_off_c, 0, 68, 100
1, 31462, Note_on_c, 0, 70, 100
1, 31479, Note_off_c, 0, 70, 100
1, 31479, Note_on_c, 0, 73, 100
1, 31513, Note_off_c, 0, 73, 100
1, 31513, Note_on_c, 0, 68, 100
1, 31530, Note_off_c, 0, 68, 100
1, 31530, Note_on_c, 0, 70, 100
1, 31547, Note_off_c, 0, 70, 100
1, 31547, Note_on_c, 0, 69, 100
1, 31564, Note_off_c, 0, 69, 100
1, 31564, Note_on_c, 0, 65, 100
1, 31585, Note_off_c, 0, 65, 100
1, 31585, Note_on_c, 0, 68, 100
1, 31606, Note_off_c, 0, 68, 100
1, 31606, Note_on_c, 0, 63, 100
1, 31627, Note_off_c, 0, 63, 100
1, 31627, Note_on_c, 0, 65, 100
1, 31648, Note_off_c, 0, 65, 100
1, 31648, Note_on_c, 0, 66, 100
1, 31669, Note_off_c, 0, 66, 100
1, 31669, Note_on_c, 0, 68, 100
1, 31690, Note_off_c, 0, 68, 100
1, 31690, Note_on_c, 0, 69, 100
1, 31711, Note_off_c, 0, 69, 100
1, 31711, Note_on_c, 0, 71, 100
1, 31732, Note_off_c, 0, 71, 100
1, 31732, Note_on_c, 0, 75, 100
1, 31770, Note_off_c, 0, 75, 100
1, 31770, Note_on_c, 0, 76, 100
1, 31787, Note_off_c, 0, 76, 100
1, 31787, Note_on_c, 0, 74, 100
1, 31874, Note_off_c, 0, 74, 100
1, 31874, Note_on_c, 0, 71, 100
1, 31891, Note_off_c, 0, 71, 100
1, 31891, Note_on_c, 0, 69, 100
1, 31908, Note_off_c, 0, 69, 100
1, 31908, Note_on_c, 0, 67, 100
1, 31925, Note_off_c, 0, 67, 100
1, 31925, Note_on_c, 0, 66, 100
1, 31986, Note_off_c, 0, 66, 100
1, 31986, Note_on_c, 0, 71, 100
1, 32000, Note_off_c, 0, 71, 100
1, 32000, Note_on_c, 0, 69, 100
1, 32014, Note_off_c, 0, 69, 100
1, 32014, Note_on_c, 0, 67, 100
1, 32028, Note_off_c, 0, 67, 100
1, 32028, Note_on_c, 0, 64, 100
1, 32057, Note_off_c, 0, 64, 100
1, 32057, Note_on_c, 0, 63, 100
1, 32071, Note_off_c, 0, 63, 100
1, 32071, Note_on_c, 0, 61, 100
1, 32115, Note_off_c, 0, 61, 100
1, 32115, Note_on_c, 0, 59, 100
1, 32129, Note_off_c, 0, 59, 100
1, 32129, Note_on_c, 0, 60, 100
1, 32225, Note_off_c, 0, 60, 100
1, 32225, Note_on_c, 0, 63, 100
1, 32369, Note_off_c, 0, 63, 100
1, 32369, Note_on_c, 0, 60, 100
1, 32417, Note_off_c, 0, 60, 100
1, 32417, Note_on_c, 0, 63, 100
1, 32465, Note_off_c, 0, 63, 100
1, 32465, Note_on_c, 0, 68, 100
1, 32657, Note_off_c, 0, 68, 100
1, 32657, Note_on_c, 0, 68, 100
1, 32724, Note_off_c, 0, 68, 100
1, 32724, Note_on_c, 0, 71, 100
1, 32743, Note_off_c, 0, 71, 100
1, 32743, Note_on_c, 0, 72, 100
1, 32781, Note_off_c, 0, 72, 100
1, 32781, Note_on_c, 0, 74, 100
1, 32800, Note_off_c, 0, 74, 100
1, 32800, Note_on_c, 0, 75, 100
1, 32876, Note_off_c, 0, 75, 100
1, 32876, Note_on_c, 0, 75, 100
1, 32967, Note_off_c, 0, 75, 100
1, 32967, Note_on_c, 0, 72, 100
1, 33039, Note_off_c, 0, 72, 100
1, 33039, Note_on_c, 0, 65, 100
1, 33063, Note_off_c, 0, 65, 100
1, 33063, Note_on_c, 0, 72, 100
1, 33119, Note_off_c, 0, 72, 100
1, 33119, Note_on_c, 0, 68, 100
1, 33183, Note_off_c, 0, 68, 100
1, 33183, Note_on_c, 0, 68, 100
1, 33215, Note_off_c, 0, 68, 100
1, 33215, Note_on_c, 0, 65, 100
1, 33247, Note_off_c, 0, 65, 100
1, 33247, Note_on_c, 0, 71, 100
1, 33279, Note_off_c, 0, 71, 100
1, 33279, Note_on_c, 0, 69, 100
1, 33394, Note_off_c, 0, 69, 100
1, 33394, Note_on_c, 0, 71, 100
1, 33432, Note_off_c, 0, 71, 100
1, 33432, Note_on_c, 0, 73, 100
1, 33470, Note_off_c, 0, 73, 100
1, 33470, Note_on_c, 0, 74, 100
1, 33534, Note_off_c, 0, 74, 100
1, 33534, Note_on_c, 0, 66, 100
1, 33598, Note_off_c, 0, 66, 100
1, 33598, Note_on_c, 0, 64, 100
1, 33806, Note_off_c, 0, 64, 100
1, 33806, Note_on_c, 0, 63, 100
1, 33854, Note_off_c, 0, 63, 100
1, 33854, Note_on_c, 0, 65, 100
1, 33918, Note_off_c, 0, 65, 100
1, 33918, Note_on_c, 0, 66, 100
1, 33982, Note_off_c, 0, 66, 100
1, 33982, Note_on_c, 0, 68, 100
1, 34046, Note_off_c, 0, 68, 100
1, 34046, Note_on_c, 0, 70, 100
1, 34110, Note_off_c, 0, 70, 100
1, 34110, Note_on_c, 0, 73, 100
1, 34174, Note_off_c, 0, 73, 100
1, 34174, Note_on_c, 0, 70, 100
1, 34238, Note_off_c, 0, 70, 100
1, 34238, Note_on_c, 0, 73, 100
1, 34286, Note_off_c, 0, 73, 100
1, 34286, Note_on_c, 0, 70, 100
1, 34334, Note_off_c, 0, 70, 100
1, 34334, Note_on_c, 0, 66, 100
1, 34382, Note_off_c, 0, 66, 100
1, 34382, Note_on_c, 0, 68, 100
1, 34478, Note_off_c, 0, 68, 100
1, 34478, Note_on_c, 0, 65, 100
1, 34526, Note_off_c, 0, 65, 100
1, 34526, Note_on_c, 0, 68, 100
1, 34574, Note_off_c, 0, 68, 100
1, 34574, Note_on_c, 0, 65, 100
1, 34660, Note_off_c, 0, 65, 100
1, 34660, Note_on_c, 0, 64, 100
1, 34698, Note_off_c, 0, 64, 100
1, 34698, Note_on_c, 0, 65, 100
1, 34736, Note_off_c, 0, 65, 100
1, 34736, Note_on_c, 0, 64, 100
1, 34774, Note_off_c, 0, 64, 100
1, 34774, Note_on_c, 0, 65, 100
1, 34812, Note_off_c, 0, 65, 100
1, 34812, Note_on_c, 0, 63, 100
1, 35025, Note_off_c, 0, 63, 100
1, 35025, Note_on_c, 0, 61, 100
1, 35046, Note_off_c, 0, 61, 100
1, 35046, Note_on_c, 0, 63, 100
1, 35067, Note_off_c, 0, 63, 100
1, 35067, Note_on_c, 0, 65, 100
1, 35088, Note_off_c, 0, 65, 100
1, 35088, Note_on_c, 0, 71, 100
1, 35109, Note_off_c, 0, 71, 100
1, 35109, Note_on_c, 0, 69, 100
1, 35151, Note_off_c, 0, 69, 100
1, 35151, Note_on_c, 0, 65, 100
1, 35172, Note_off_c, 0, 65, 100
1, 35172, Note_on_c, 0, 61, 100
1, 35193, Note_off_c, 0, 61, 100
1, 35193, Note_on_c, 0, 63, 100
1, 35225, Note_off_c, 0, 63, 100
1, 35225, Note_on_c, 0, 61, 100
1, 35257, Note_off_c, 0, 61, 100
1, 35257, Note_on_c, 0, 67, 100
1, 35289, Note_off_c, 0, 67, 100
1, 35289, Note_on_c, 0, 65, 100
1, 35321, Note_off_c, 0, 65, 100
1, 35321, Note_on_c, 0, 66, 100
1, 35385, Note_off_c, 0, 66, 100
1, 35385, Note_on_c, 0, 65, 100
1, 35449, Note_off_c, 0, 65, 100
1, 35449, Note_on_c, 0, 60, 100
1, 35481, Note_off_c, 0, 60, 100
1, 35481, Note_on_c, 0, 63, 100
1, 35513, Note_off_c, 0, 63, 100
1, 35513, Note_on_c, 0, 62, 100
1, 35545, Note_off_c, 0, 62, 100
1, 35545, Note_on_c, 0, 61, 100
1, 35577, Note_off_c, 0, 61, 100
1, 35577, Note_on_c, 0, 57, 100
1, 35625, Note_off_c, 0, 57, 100
1, 35625, Note_on_c, 0, 60, 100
1, 35673, Note_off_c, 0, 60, 100
1, 35673, Note_on_c, 0, 58, 100
1, 35721, Note_off_c, 0, 58, 100
1, 35721, Note_on_c, 0, 63, 100
1, 35817, Note_off_c, 0, 63, 100
1, 35817, Note_on_c, 0, 60, 100
1, 35865, Note_off_c, 0, 60, 100
1, 35865, Note_on_c, 0, 58, 100
1, 35913, Note_off_c, 0, 58, 100
1, 35913, Note_on_c, 0, 56, 100
1, 36033, Note_off_c, 0, 56, 100
1, 36033, Note_on_c, 0, 56, 100
1, 36081, Note_off_c, 0, 56, 100
1, 36081, Note_on_c, 0, 53, 100
1, 36105, Note_off_c, 0, 53, 100
1, 36105, Note_on_c, 0, 48, 100
1, 36129, Note_off_c, 0, 48, 100
1, 36129, Note_on_c, 0, 46, 100
1, 36201, Note_off_c, 0, 46, 100
1, 36201, Note_on_c, 0, 44, 100
1, 36393, Note_off_c, 0, 44, 100
1, 36393, Note_on_c, 0, 71, 100
1, 36441, Note_off_c, 0, 71, 100
1, 36441, Note_on_c, 0, 67, 100
1, 36465, Note_off_c, 0, 67, 100
1, 36465, Note_on_c, 0, 71, 100
1, 36489, Note_off_c, 0, 71, 100
1, 36489, Note_on_c, 0, 67, 100
1, 36513, Note_off_c, 0, 67, 100
1, 36513, Note_on_c, 0, 66, 100
1, 36537, Note_off_c, 0, 66, 100
1, 36537, Note_on_c, 0, 64, 100
1, 36575, Note_off_c, 0, 64, 100
1, 36575, Note_on_c, 0, 69, 100
1, 36613, Note_off_c, 0, 69, 100
1, 36613, Note_on_c, 0, 66, 100
1, 36651, Note_off_c, 0, 66, 100
1, 36651, Note_on_c, 0, 61, 100
1, 36689, Note_off_c, 0, 61, 100
1, 36689, Note_on_c, 0, 64, 100
1, 36759, Note_off_c, 0, 64, 100
1, 36759, Note_on_c, 0, 62, 100
1, 36791, Note_off_c, 0, 62, 100
1, 36791, Note_on_c, 0, 61, 100
1, 36823, Note_off_c, 0, 61, 100
1, 36823, Note_on_c, 0, 59, 100
1, 36855, Note_off_c, 0, 59, 100
1, 36855, Note_on_c, 0, 64, 100
1, 36919, Note_off_c, 0, 64, 100
1, 36919, Note_on_c, 0, 61, 100
1, 36967, Note_off_c, 0, 61, 100
1, 36967, Note_on_c, 0, 57, 100
1, 37183, Note_off_c, 0, 57, 100
1, 37183, Note_on_c, 0, 57, 100
1, 37207, Note_off_c, 0, 57, 100
1, 37207, Note_on_c, 0, 58, 100
1, 37231, Note_off_c, 0, 58, 100
1, 37231, Note_on_c, 0, 57, 100
1, 37255, Note_off_c, 0, 57, 100
1, 37255, Note_on_c, 0, 60, 100
1, 37279, Note_off_c, 0, 60, 100
1, 37279, Note_on_c, 0, 61, 100
1, 37303, Note_off_c, 0, 61, 100
1, 37303, Note_on_c, 0, 62, 100
1, 37322, Note_off_c, 0, 62, 100
1, 37322, Note_on_c, 0, 63, 100
1, 37341, Note_off_c, 0, 63, 100
1, 37341, Note_on_c, 0, 64, 100
1, 37398, Note_off_c, 0, 64, 100
1, 37398, Note_on_c, 0, 62, 100
1, 37417, Note_off_c, 0, 62, 100
1, 37417, Note_on_c, 0, 64, 100
1, 37436, Note_off_c, 0, 64, 100
1, 37436, Note_on_c, 0, 65, 100
1, 37455, Note_off_c, 0, 65, 100
1, 37455, Note_on_c, 0, 66, 100
1, 37493, Note_off_c, 0, 66, 100
1, 37493, Note_on_c, 0, 69, 100
1, 37557, Note_off_c, 0, 69, 100
1, 37557, Note_on_c, 0, 73, 100
1, 37805, Note_off_c, 0, 73, 100
1, 37805, Note_on_c, 0, 45, 100
1, 37829, Note_off_c, 0, 45, 100
1, 37829, Note_on_c, 0, 46, 100
1, 37853, Note_off_c, 0, 46, 100
1, 37853, Note_on_c, 0, 50, 100
1, 37877, Note_off_c, 0, 50, 100
1, 37877, Note_on_c, 0, 53, 100
1, 37898, Note_off_c, 0, 53, 100
1, 37898, Note_on_c, 0, 57, 100
1, 37919, Note_off_c, 0, 57, 100
1, 37919, Note_on_c, 0, 58, 100
1, 37940, Note_off_c, 0, 58, 100
1, 37940, Note_on_c, 0, 55, 100
1, 37961, Note_off_c, 0, 55, 100
1, 37961, Note_on_c, 0, 53, 100
1, 37982, Note_off_c, 0, 53, 100
1, 37982, Note_on_c, 0, 52, 100
1, 38003, Note_off_c, 0, 52, 100
1, 38003, Note_on_c, 0, 55, 100
1, 38024, Note_off_c, 0, 55, 100
1, 38024, Note_on_c, 0, 58, 100
1, 38045, Note_off_c, 0, 58, 100
1, 38045, Note_on_c, 0, 62, 100
1, 38066, Note_off_c, 0, 62, 100
1, 38066, Note_on_c, 0, 56, 100
1, 38090, Note_off_c, 0, 56, 100
1, 38090, Note_on_c, 0, 57, 100
1, 38114, Note_off_c, 0, 57, 100
1, 38114, Note_on_c, 0, 58, 100
1, 38138, Note_off_c, 0, 58, 100
1, 38138, Note_on_c, 0, 62, 100
1, 38162, Note_off_c, 0, 62, 100
1, 38162, Note_on_c, 0, 64, 100
1, 38186, Note_off_c, 0, 64, 100
1, 38186, Note_on_c, 0, 65, 100
1, 38210, Note_off_c, 0, 65, 100
1, 38210, Note_on_c, 0, 66, 100
1, 38234, Note_off_c, 0, 66, 100
1, 38234, Note_on_c, 0, 67, 100
1, 38258, Note_off_c, 0, 67, 100
1, 38258, Note_on_c, 0, 67, 100
1, 38268, Note_off_c, 0, 67, 100
1, 38268, Note_on_c, 0, 69, 100
1, 38298, Note_off_c, 0, 69, 100
1, 38298, Note_on_c, 0, 70, 100
1, 38308, Note_off_c, 0, 70, 100
1, 38308, Note_on_c, 0, 71, 100
1, 38328, Note_off_c, 0, 71, 100
1, 38328, Note_on_c, 0, 73, 100
1, 38368, Note_off_c, 0, 73, 100
1, 38368, Note_on_c, 0, 69, 100
1, 38378, Note_off_c, 0, 69, 100
1, 38378, Note_on_c, 0, 71, 100
1, 38408, Note_off_c, 0, 71, 100
1, 38408, Note_on_c, 0, 61, 100
1, 38428, Note_off_c, 0, 61, 100
1, 38428, Note_on_c, 0, 64, 100
1, 38438, Note_off_c, 0, 64, 100
1, 38438, Note_on_c, 0, 71, 100
1, 38448, Note_off_c, 0, 71, 100
1, 38448, Note_on_c, 0, 69, 100
1, 38480, Note_off_c, 0, 69, 100
1, 38480, Note_on_c, 0, 67, 100
1, 38512, Note_off_c, 0, 67, 100
1, 38512, Note_on_c, 0, 66, 100
1, 38544, Note_off_c, 0, 66, 100
1, 38544, Note_on_c, 0, 67, 100
1, 38576, Note_off_c, 0, 67, 100
1, 38576, Note_on_c, 0, 69, 100
1, 38608, Note_off_c, 0, 69, 100
1, 38608, Note_on_c, 0, 66, 100
1, 38640, Note_off_c, 0, 66, 100
1, 38640, Note_on_c, 0, 65, 100
1, 38664, Note_off_c, 0, 65, 100
1, 38664, Note_on_c, 0, 64, 100
1, 38688, Note_off_c, 0, 64, 100
1, 38688, Note_on_c, 0, 62, 100
1, 38712, Note_off_c, 0, 62, 100
1, 38712, Note_on_c, 0, 63, 100
1, 38864, Note_off_c, 0, 63, 100
1, 38864, Note_on_c, 0, 62, 100
1, 38896, Note_off_c, 0, 62, 100
1, 38896, Note_on_c, 0, 56, 100
1, 38992, Note_off_c, 0, 56, 100
1, 38992, Note_on_c, 0, 59, 100
1, 39072, Note_off_c, 0, 59, 100
1, 39072, Note_on_c, 0, 57, 100
1, 39168, Note_off_c, 0, 57, 100
1, 39168, Note_on_c, 0, 53, 100
1, 39216, Note_off_c, 0, 53, 100
1, 39216, Note_on_c, 0, 55, 100
1, 39264, Note_off_c, 0, 55, 100
1, 39264, Note_on_c, 0, 54, 100
1, 39536, Note_off_c, 0, 54, 100
1, 39536, Note_on_c, 0, 49, 100
1, 39568, Note_off_c, 0, 49, 100
1, 39568, Note_on_c, 0, 52, 100
1, 39600, Note_off_c, 0, 52, 100
1, 39600, Note_on_c, 0, 50, 100
1, 39696, Note_off_c, 0, 50, 100
1, 39696, Note_on_c, 0, 52, 100
1, 39744, Note_off_c, 0, 52, 100
1, 39744, Note_on_c, 0, 53, 100
1, 39830, Note_off_c, 0, 53, 100
1, 39830, Note_on_c, 0, 55, 100
1, 39868, Note_off_c, 0, 55, 100
1, 39868, Note_on_c, 0, 57, 100
1, 39906, Note_off_c, 0, 57, 100
1, 39906, Note_on_c, 0, 60, 100
1, 39944, Note_off_c, 0, 60, 100
1, 39944, Note_on_c, 0, 57, 100
1, 39982, Note_off_c, 0, 57, 100
1, 39982, Note_on_c, 0, 59, 100
1, 40030, Note_off_c, 0, 59, 100
1, 40030, Note_on_c, 0, 64, 100
1, 40078, Note_off_c, 0, 64, 100
1, 40078, Note_on_c, 0, 65, 100
1, 40126, Note_off_c, 0, 65, 100
1, 40126, Note_on_c, 0, 69, 100
1, 40174, Note_off_c, 0, 69, 100
1, 40174, Note_on_c, 0, 71, 100
1, 40222, Note_off_c, 0, 71, 100
1, 40222, Note_on_c, 0, 74, 100
1, 40270, Note_off_c, 0, 74, 100
1, 40270, Note_on_c, 0, 76, 100
1, 40612, Note_off_c, 0, 76, 100
1, 40612, Note_on_c, 0, 71, 100
1, 40639, Note_off_c, 0, 71, 100
1, 40639, Note_on_c, 0, 73, 100
1, 40666, Note_off_c, 0, 73, 100
1, 40666, Note_on_c, 0, 74, 100
1, 40720, Note_off_c, 0, 74, 100
1, 40720, Note_on_c, 0, 71, 100
1, 40747, Note_off_c, 0, 71, 100
1, 40747, Note_on_c, 0, 73, 100
1, 40779, Note_off_c, 0, 73, 100
1, 40779, Note_on_c, 0, 74, 100
1, 40843, Note_off_c, 0, 74, 100
1, 40843, Note_on_c, 0, 71, 100
1, 40907, Note_off_c, 0, 71, 100
1, 40907, Note_on_c, 0, 70, 100
1, 41179, Note_off_c, 0, 70, 100
1, 41179, Note_on_c, 0, 69, 100
1, 41227, Note_off_c, 0, 69, 100
1, 41227, Note_on_c, 0, 70, 100
1, 41275, Note_off_c, 0, 70, 100
1, 41275, Note_on_c, 0, 73, 100
1, 41323, Note_off_c, 0, 73, 100
1, 41323, Note_on_c, 0, 74, 100
1, 41371, Note_off_c, 0, 74, 100
1, 41371, Note_on_c, 0, 69, 100
1, 41467, Note_off_c, 0, 69, 100
1, 41467, Note_on_c, 0, 69, 100
1, 41515, Note_off_c, 0, 69, 100
1, 41515, Note_on_c, 0, 65, 100
1, 41539, Note_off_c, 0, 65, 100
1, 41539, Note_on_c, 0, 64, 100
1, 41563, Note_off_c, 0, 64, 100
1, 41563, Note_on_c, 0, 67, 100
1, 41587, Note_off_c, 0, 67, 100
1, 41587, Note_on_c, 0, 62, 100
1, 41635, Note_off_c, 0, 62, 100
1, 41635, Note_on_c, 0, 65, 100
1, 41659, Note_off_c, 0, 65, 100
1, 41659, Note_on_c, 0, 62, 100
1, 41683, Note_off_c, 0, 62, 100
1, 41683, Note_on_c, 0, 64, 100
1, 41707, Note_off_c, 0, 64, 100
1, 41707, Note_on_c, 0, 56, 100
1, 41755, Note_off_c, 0, 56, 100
1, 41755, Note_on_c, 0, 64, 100
1, 41851, Note_off_c, 0, 64, 100
1, 41851, Note_on_c, 0, 62, 100
1, 41899, Note_off_c, 0, 62, 100
1, 41899, Note_on_c, 0, 59, 100
1, 41937, Note_off_c, 0, 59, 100
1, 41937, Note_on_c, 0, 62, 100
1, 41994, Note_off_c, 0, 62, 100
1, 41994, Note_on_c, 0, 59, 100
1, 42032, Note_off_c, 0, 59, 100
1, 42032, Note_on_c, 0, 59, 100
1, 42051, Note_off_c, 0, 59, 100
1, 42051, Note_on_c, 0, 58, 100
1, 42070, Note_off_c, 0, 58, 100
1, 42070, Note_on_c, 0, 59, 100
1, 42137, Note_off_c, 0, 59, 100
1, 42137, Note_on_c, 0, 52, 100
1, 42185, Note_off_c, 0, 52, 100
1, 42185, Note_on_c, 0, 57, 100
1, 42233, Note_off_c, 0, 57, 100
1, 42233, Note_on_c, 0, 55, 100
1, 42281, Note_off_c, 0, 55, 100
1, 42281, Note_on_c, 0, 54, 100
1, 42537, Note_off_c, 0, 54, 100
1, 42537, Note_on_c, 0, 53, 100
1, 42558, Note_off_c, 0, 53, 100
1, 42558, Note_on_c, 0, 54, 100
1, 42579, Note_off_c, 0, 54, 100
1, 42579, Note_on_c, 0, 58, 100
1, 42600, Note_off_c, 0, 58, 100
1, 42600, Note_on_c, 0, 64, 100
1, 42621, Note_off_c, 0, 64, 100
1, 42621, Note_on_c, 0, 58, 100
1, 42642, Note_off_c, 0, 58, 100
1, 42642, Note_on_c, 0, 59, 100
1, 42663, Note_off_c, 0, 59, 100
1, 42663, Note_on_c, 0, 62, 100
1, 42695, Note_off_c, 0, 62, 100
1, 42695, Note_on_c, 0, 63, 100
1, 42727, Note_off_c, 0, 63, 100
1, 42727, Note_on_c, 0, 68, 100
1, 42759, Note_off_c, 0, 68, 100
1, 42759, Note_on_c, 0, 74, 100
1, 42791, Note_off_c, 0, 74, 100
1, 42791, Note_on_c, 0, 70, 100
1, 42823, Note_off_c, 0, 70, 100
1, 42823, Note_on_c, 0, 71, 100
1, 42855, Note_off_c, 0, 71, 100
1, 42855, Note_on_c, 0, 62, 100
1, 42876, Note_off_c, 0, 62, 100
1, 42876, Note_on_c, 0, 63, 100
1, 42897, Note_off_c, 0, 63, 100
1, 42897, Note_on_c, 0, 71, 100
1, 42918, Note_off_c, 0, 71, 100
1, 42918, Note_on_c, 0, 70, 100
1, 42939, Note_off_c, 0, 70, 100
1, 42939, Note_on_c, 0, 69, 100
1, 42960, Note_off_c, 0, 69, 100
1, 42960, Note_on_c, 0, 68, 100
1, 42981, Note_off_c, 0, 68, 100
1, 42981, Note_on_c, 0, 67, 100
1, 43002, Note_off_c, 0, 67, 100
1, 43002, Note_on_c, 0, 65, 100
1, 43023, Note_off_c, 0, 65, 100
1, 43023, Note_on_c, 0, 66, 100
1, 43044, Note_off_c, 0, 66, 100
1, 43044, Note_on_c, 0, 68, 100
1, 43092, Note_off_c, 0, 68, 100
1, 43092, Note_on_c, 0, 70, 100
1, 43140, Note_off_c, 0, 70, 100
1, 43140, Note_on_c, 0, 65, 100
1, 43188, Note_off_c, 0, 65, 100
1, 43188, Note_on_c, 0, 66, 100
1, 43236, Note_off_c, 0, 66, 100
1, 43236, Note_on_c, 0, 63, 100
1, 43492, Note_off_c, 0, 63, 100
1, 43492, Note_on_c, 0, 62, 100
1, 43524, Note_off_c, 0, 62, 100
1, 43524, Note_on_c, 0, 63, 100
1, 43556, Note_off_c, 0, 63, 100
1, 43556, Note_on_c, 0, 63, 100
1, 43588, Note_off_c, 0, 63, 100
1, 43588, Note_on_c, 0, 65, 100
1, 43620, Note_off_c, 0, 65, 100
1, 43620, Note_on_c, 0, 70, 100
1, 43716, Note_off_c, 0, 70, 100
1, 43716, Note_on_c, 0, 70, 100
1, 43812, Note_off_c, 0, 70, 100
1, 43812, Note_on_c, 0, 68, 100
1, 43850, Note_off_c, 0, 68, 100
1, 43850, Note_on_c, 0, 71, 100
1, 43888, Note_off_c, 0, 71, 100
1, 43888, Note_on_c, 0, 64, 100
1, 43926, Note_off_c, 0, 64, 100
1, 43926, Note_on_c, 0, 66, 100
1, 43964, Note_off_c, 0, 66, 100
1, 43964, Note_on_c, 0, 60, 100
1, 44066, Note_off_c, 0, 60, 100
1, 44066, Note_on_c, 0, 64, 100
1, 44098, Note_off_c, 0, 64, 100
1, 44098, Note_on_c, 0, 60, 100
1, 44130, Note_off_c, 0, 60, 100
1, 44130, Note_on_c, 0, 56, 100
1, 44162, Note_off_c, 0, 56, 100
1, 44162, Note_on_c, 0, 64, 100
1, 44194, Note_off_c, 0, 64, 100
1, 44194, Note_on_c, 0, 60, 100
1, 44221, Note_off_c, 0, 60, 100
1, 44221, Note_on_c, 0, 56, 100
1, 44248, Note_off_c, 0, 56, 100
1, 44248, Note_on_c, 0, 52, 100
1, 44275, Note_off_c, 0, 52, 100
1, 44275, Note_on_c, 0, 48, 100
1, 44302, Note_off_c, 0, 48, 100
1, 44302, Note_on_c, 0, 54, 100
1, 44356, Note_off_c, 0, 54, 100
1, 44356, Note_on_c, 0, 52, 100
1, 44383, Note_off_c, 0, 52, 100
1, 44383, Note_on_c, 0, 48, 100
1, 44421, Note_off_c, 0, 48, 100
1, 44421, Note_on_c, 0, 45, 100
1, 44459, Note_off_c, 0, 45, 100
1, 44459, Note_on_c, 0, 44, 100
1, 44830, Note_off_c, 0, 44, 100
1, 44830, Note_on_c, 0, 56, 100
1, 44894, Note_off_c, 0, 56, 100
1, 44894, Note_on_c, 0, 58, 100
1, 44926, Note_off_c, 0, 58, 100
1, 44926, Note_on_c, 0, 56, 100
1, 45006, Note_off_c, 0, 56, 100
1, 45006, Note_on_c, 0, 55, 100
1, 45054, Note_off_c, 0, 55, 100
1, 45054, Note_on_c, 0, 56, 100
1, 45102, Note_off_c, 0, 56, 100
1, 45102, Note_on_c, 0, 56, 100
1, 45150, Note_off_c, 0, 56, 100
1, 45150, Note_on_c, 0, 56, 100
1, 45198, Note_off_c, 0, 56, 100
1, 45198, Note_on_c, 0, 63, 100
1, 45294, Note_off_c, 0, 63, 100
1, 45294, Note_on_c, 0, 63, 100
1, 45342, Note_off_c, 0, 63, 100
1, 45342, Note_on_c, 0, 63, 100
1, 45438, Note_off_c, 0, 63, 100
1, 45438, Note_on_c, 0, 63, 100
1, 45534, Note_off_c, 0, 63, 100
1, 45534, Note_on_c, 0, 60, 100
1, 45582, Note_off_c, 0, 60, 100
1, 45582, Note_on_c, 0, 61, 100
1, 45630, Note_off_c, 0, 61, 100
1, 45630, Note_on_c, 0, 60, 100
1, 45726, Note_off_c, 0, 60, 100
1, 45726, Note_on_c, 0, 58, 100
1, 45870, Note_off_c, 0, 58, 100
1, 45870, Note_on_c, 0, 57, 100
1, 45918, Note_off_c, 0, 57, 100
1, 45918, Note_on_c, 0, 58, 100
1, 45966, Note_off_c, 0, 58, 100
1, 45966, Note_on_c, 0, 61, 100
1, 46014, Note_off_c, 0, 61, 100
1, 46014, Note_on_c, 0, 58, 100
1, 46374, Note_off_c, 0, 58, 100
1, 46374, Note_on_c, 0, 73, 100
1, 46398, Note_off_c, 0, 73, 100
1, 46398, Note_on_c, 0, 72, 100
1, 46422, Note_off_c, 0, 72, 100
1, 46422, Note_on_c, 0, 70, 100
1, 46470, Note_off_c, 0, 70, 100
1, 46470, Note_on_c, 0, 73, 100
1, 46542, Note_off_c, 0, 73, 100
1, 46542, Note_on_c, 0, 72, 100
1, 46590, Note_off_c, 0, 72, 100
1, 46590, Note_on_c, 0, 70, 100
1, 46638, Note_off_c, 0, 70, 100
1, 46638, Note_on_c, 0, 66, 100
1, 46686, Note_off_c, 0, 66, 100
1, 46686, Note_on_c, 0, 67, 100
1, 46713, Note_off_c, 0, 67, 100
1, 46713, Note_on_c, 0, 68, 100
1, 46822, Note_off_c, 0, 68, 100
1, 46822, Note_on_c, 0, 64, 100
1, 46849, Note_off_c, 0, 64, 100
1, 46849, Note_on_c, 0, 65, 100
1, 46876, Note_off_c, 0, 65, 100
1, 46876, Note_on_c, 0, 63, 100
1, 46948, Note_off_c, 0, 63, 100
1, 46948, Note_on_c, 0, 60, 100
1, 46972, Note_off_c, 0, 60, 100
1, 46972, Note_on_c, 0, 63, 100
1, 46996, Note_off_c, 0, 63, 100
1, 46996, Note_on_c, 0, 66, 100
1, 47020, Note_off_c, 0, 66, 100
1, 47020, Note_on_c, 0, 67, 100
1, 47044, Note_off_c, 0, 67, 100
1, 47044, Note_on_c, 0, 69, 100
1, 47068, Note_off_c, 0, 69, 100
1, 47068, Note_on_c, 0, 72, 100
1, 47082, Note_off_c, 0, 72, 100
1, 47082, Note_on_c, 0, 69, 100
1, 47141, Note_off_c, 0, 69, 100
1, 47141, Note_on_c, 0, 65, 100
1, 47155, Note_off_c, 0, 65, 100
1, 47155, Note_on_c, 0, 66, 100
1, 47169, Note_off_c, 0, 66, 100
1, 47169, Note_on_c, 0, 61, 100
1, 47213, Note_off_c, 0, 61, 100
1, 47213, Note_on_c, 0, 63, 100
1, 47242, Note_off_c, 0, 63, 100
1, 47242, Note_on_c, 0, 67, 100
1, 47256, Note_off_c, 0, 67, 100
1, 47256, Note_on_c, 0, 66, 100
1, 47280, Note_off_c, 0, 66, 100
1, 47280, Note_on_c, 0, 65, 100
1, 47304, Note_off_c, 0, 65, 100
1, 47304, Note_on_c, 0, 64, 100
1, 47328, Note_off_c, 0, 64, 100
1, 47328, Note_on_c, 0, 63, 100
1, 47376, Note_off_c, 0, 63, 100
1, 47376, Note_on_c, 0, 58, 100
1, 47400, Note_off_c, 0, 58, 100
1, 47400, Note_on_c, 0, 53, 100
1, 47424, Note_off_c, 0, 53, 100
1, 47424, Note_on_c, 0, 56, 100
1, 47448, Note_off_c, 0, 56, 100
1, 47448, Note_on_c, 0, 57, 100
1, 47480, Note_off_c, 0, 57, 100
1, 47480, Note_on_c, 0, 60, 100
1, 47512, Note_off_c, 0, 60, 100
1, 47512, Note_on_c, 0, 57, 100
1, 47544, Note_off_c, 0, 57, 100
1, 47544, Note_on_c, 0, 58, 100
1, 47576, Note_off_c, 0, 58, 100
1, 47576, Note_on_c, 0, 60, 100
1, 47608, Note_off_c, 0, 60, 100
1, 47608, Note_on_c, 0, 61, 100
1, 47640, Note_off_c, 0, 61, 100
1, 47640, Note_on_c, 0, 63, 100
1, 47664, Note_off_c, 0, 63, 100
1, 47664, Note_on_c, 0, 65, 100
1, 47688, Note_off_c, 0, 65, 100
1, 47688, Note_on_c, 0, 66, 100
1, 47712, Note_off_c, 0, 66, 100
1, 47712, Note_on_c, 0, 68, 100
1, 47736, Note_off_c, 0, 68, 100
1, 47736, Note_on_c, 0, 70, 100
1, 47760, Note_off_c, 0, 70, 100
1, 47760, Note_on_c, 0, 72, 100
1, 47784, Note_off_c, 0, 72, 100
1, 47784, Note_on_c, 0, 75, 100
1, 47832, Note_off_c, 0, 75, 100
1, 47832, Note_on_c, 0, 73, 100
1, 47947, Note_off_c, 0, 73, 100
1, 47947, Note_on_c, 0, 73, 100
1, 47985, Note_off_c, 0, 73, 100
1, 47985, Note_on_c, 0, 75, 100
1, 48071, Note_off_c, 0, 75, 100
1, 48071, Note_on_c, 0, 72, 100
1, 48119, Note_off_c, 0, 72, 100
1, 48119, Note_on_c, 0, 68, 100
1, 48167, Note_off_c, 0, 68, 100
1, 48167, Note_on_c, 0, 73, 100
1, 48455, Note_off_c, 0, 73, 100
1, 48455, Note_on_c, 0, 72, 100
1, 48503, Note_off_c, 0, 72, 100
1, 48503, Note_on_c, 0, 68, 100
1, 48551, Note_off_c, 0, 68, 100
1, 48551, Note_on_c, 0, 65, 100
1, 48599, Note_off_c, 0, 65, 100
1, 48599, Note_on_c, 0, 71, 100
1, 48647, Note_off_c, 0, 71, 100
1, 48647, Note_on_c, 0, 68, 100
1, 48695, Note_off_c, 0, 68, 100
1, 48695, Note_on_c, 0, 65, 100
1, 48719, Note_off_c, 0, 65, 100
1, 48719, Note_on_c, 0, 63, 100
1, 48767, Note_off_c, 0, 63, 100
1, 48767, Note_on_c, 0, 62, 100
1, 48983, Note_off_c, 0, 62, 100
1, 48983, Note_on_c, 0, 59, 100
1, 49031, Note_off_c, 0, 59, 100
1, 49031, Note_on_c, 0, 58, 100
1, 49296, Note_off_c, 0, 58, 100
1, 49296, End_track
0, 0, End_of_file
