0, 0, Header, 1, 1, 192
1, 0, Start_track
1, 0, Title_t, "Melody"
1, 0, Tempo, 952380
1, 0, Key_signature, 5, "major"
1, 0, Time_signature, 4, 2, 24, 8
1, 528, Note_on_c, 0, 75, 100
1, 576, Note_off_c, 0, 75, 100
1, 576, Note_on_c, 0, 73, 100
1, 614, Note_off_c, 0, 73, 100
1, 614, Note_on_c, 0, 71, 100
1, 652, Note_off_c, 0, 71, 100
1, 652, Note_on_c, 0, 73, 100
1, 690, Note_off_c, 0, 73, 100
1, 690, Note_on_c, 0, 70, 100
1, 728, Note_off_c, 0, 70, 100
1, 728, Note_on_c, 0, 68, 100
1, 766, Note_off_c, 0, 68, 100
1, 766, Note_on_c, 0, 70, 100
1, 804, Note_off_c, 0, 70, 100
1, 804, Note_on_c, 0, 66, 100
1, 842, Note_off_c, 0, 66, 100
1, 842, Note_on_c, 0, 68, 100
1, 880, Note_off_c, 0, 68, 100
1, 880, Note_on_c, 0, 63, 100
1, 918, Note_off_c, 0, 63, 100
1, 918, Note_on_c, 0, 66, 100
1, 994, Note_off_c, 0, 66, 100
1, 994, Note_on_c, 0, 73, 100
1, 1032, Note_off_c, 0, 73, 100
1, 1032, Note_on_c, 0, 74, 100
1, 1070, Note_off_c, 0, 74, 100
1, 1070, Note_on_c, 0, 69, 100
1, 1108, Note_off_c, 0, 69, 100
1, 1108, Note_on_c, 0, 66, 100
1, 1146, Note_off_c, 0, 66, 100
1, 1146, Note_on_c, 0, 73, 100
1, 1194, Note_off_c, 0, 73, 100
1, 1194, Note_on_c, 0, 69, 100
1, 1242, Note_off_c, 0, 69, 100
1, 1242, Note_on_c, 0, 71, 100
1, 1338, Note_off_c, 0, 71, 100
1, 1338, Note_on_c, 0, 66, 100
1, 1386, Note_off_c, 0, 66, 100
1, 1386, Note_on_c, 0, 69, 100
1, 1434, Note_off_c, 0, 69, 100
1, 1434, Note_on_c, 0, 62, 100
1, 1482, Note_off_c, 0, 62, 100
1, 1482, Note_on_c, 0, 66, 100
1, 1530, Note_off_c, 0, 66, 100
1, 1530, Note_on_c, 0, 59, 100
1, 1578, Note_off_c, 0, 59, 100
1, 1578, Note_on_c, 0, 64, 100
1, 1674, Note_off_c, 0, 64, 100
1, 1674, Note_on_c, 0, 61, 100
1, 1722, Note_off_c, 0, 61, 100
1, 1722, Note_on_c, 0, 57, 100
1, 1818, Note_off_c, 0, 57, 100
1, 1818, Note_on_c, 0, 54, 100
1, 1914, Note_off_c, 0, 54, 100
1, 2154, Note_on_c, 0, 55, 100
1, 2250, Note_off_c, 0, 55, 100
1, 2250, Note_on_c, 0, 58, 100
1, 2362, Note_off_c, 0, 58, 100
1, 2362, Note_on_c, 0, 60, 100
1, 2490, Note_off_c, 0, 60, 100
1, 2490, Note_on_c, 0, 63, 100
1, 2538, Note_off_c, 0, 63, 100
1, 2538, Note_on_c, 0, 67, 100
1, 2586, Note_off_c, 0, 67, 100
1, 2586, Note_on_c, 0, 70, 100
1, 2634, Note_off_c, 0, 70, 100
1, 2634, Note_on_c, 0, 72, 100
1, 2797, Note_off_c, 0, 72, 100
1, 2797, Note_on_c, 0, 74, 100
1, 2835, Note_off_c, 0, 74, 100
1, 2835, Note_on_c, 0, 76, 100
1, 2873, Note_off_c, 0, 76, 100
1, 2873, Note_on_c, 0, 77, 100
1, 2890, Note_off_c, 0, 77, 100
1, 2890, Note_on_c, 0, 76, 100
1, 3029, Note_off_c, 0, 76, 100
1, 3029, Note_on_c, 0, 72, 100
1, 3046, Note_off_c, 0, 72, 100
1, 3046, Note_on_c, 0, 74, 100
1, 3063, Note_off_c, 0, 74, 100
1, 3063, Note_on_c, 0, 76, 100
1, 3111, Note_off_c, 0, 76, 100
1, 3111, Note_on_c, 0, 72, 100
1, 3159, Note_off_c, 0, 72, 100
1, 3159, Note_on_c, 0, 72, 100
1, 3293, Note_off_c, 0, 72, 100
1, 3293, Note_on_c, 0, 69, 100
1, 3312, Note_off_c, 0, 69, 100
1, 3312, Note_on_c, 0, 70, 100
1, 3331, Note_off_c, 0, 70, 100
1, 3331, Note_on_c, 0, 74, 100
1, 3350, Note_off_c, 0, 74, 100
1, 3350, Note_on_c, 0, 72, 100
1, 3388, Note_off_c, 0, 72, 100
1, 3388, Note_on_c, 0, 71, 100
1, 3407, Note_off_c, 0, 71, 100
1, 3407, Note_on_c, 0, 76, 100
1, 3426, Note_off_c, 0, 76, 100
1, 3426, Note_on_c, 0, 70, 100
1, 3472, Note_off_c, 0, 70, 100
1, 3472, Note_on_c, 0, 69, 100
1, 3499, Note_off_c, 0, 69, 100
1, 3499, Note_on_c, 0, 68, 100
1, 3526, Note_off_c, 0, 68, 100
1, 3526, Note_on_c, 0, 71, 100
1, 3553, Note_off_c, 0, 71, 100
1, 3553, Note_on_c, 0, 70, 100
1, 3580, Note_off_c, 0, 70, 100
1, 3580, Note_on_c, 0, 68, 100
1, 3607, Note_off_c, 0, 68, 100
1, 3607, Note_on_c, 0, 64, 100
1, 3655, Note_off_c, 0, 64, 100
1, 3655, Note_on_c, 0, 63, 100
1, 3761, Note_off_c, 0, 63, 100
1, 3761, Note_on_c, 0, 63, 100
1, 3782, Note_off_c, 0, 63, 100
1, 3782, Note_on_c, 0, 64, 100
1, 3803, Note_off_c, 0, 64, 100
1, 3803, Note_on_c, 0, 66, 100
1, 3888, Note_off_c, 0, 66, 100
1, 3888, Note_on_c, 0, 75, 100
1, 3920, Note_off_c, 0, 75, 100
1, 3920, Note_on_c, 0, 74, 100
1, 3952, Note_off_c, 0, 74, 100
1, 3952, Note_on_c, 0, 73, 100
1, 3984, Note_off_c, 0, 73, 100
1, 3984, Note_on_c, 0, 68, 100
1, 4016, Note_off_c, 0, 68, 100
1, 4016, Note_on_c, 0, 73, 100
1, 4054, Note_off_c, 0, 73, 100
1, 4054, Note_on_c, 0, 70, 100
1, 4092, Note_off_c, 0, 70, 100
1, 4092, Note_on_c, 0, 68, 100
1, 4130, Note_off_c, 0, 68, 100
1, 4130, Note_on_c, 0, 66, 100
1, 4226, Note_off_c, 0, 66, 100
1, 4526, Note_on_c, 0, 54, 100
1, 4558, Note_off_c, 0, 54, 100
1, 4558, Note_on_c, 0, 57, 100
1, 4590, Note_off_c, 0, 57, 100
1, 4590, Note_on_c, 0, 58, 100
1, 4607, Note_off_c, 0, 58, 100
1, 4607, Note_on_c, 0, 59, 100
1, 4624, Note_off_c, 0, 59, 100
1, 4624, Note_on_c, 0, 61, 100
1, 4641, Note_off_c, 0, 61, 100
1, 4641, Note_on_c, 0, 62, 100
1, 4658, Note_off_c, 0, 62, 100
1, 4658, Note_on_c, 0, 61, 100
1, 4675, Note_off_c, 0, 61, 100
1, 4675, Note_on_c, 0, 62, 100
1, 4709, Note_off_c, 0, 62, 100
1, 4709, Note_on_c, 0, 66, 100
1, 4726, Note_off_c, 0, 66, 100
1, 4726, Note_on_c, 0, 62, 100
1, 4743, Note_off_c, 0, 62, 100
1, 4743, Note_on_c, 0, 64, 100
1, 4760, Note_off_c, 0, 64, 100
1, 4760, Note_on_c, 0, 66, 100
1, 4777, Note_off_c, 0, 66, 100
1, 4777, Note_on_c, 0, 71, 100
1, 4793, Note_off_c, 0, 71, 100
1, 4793, Note_on_c, 0, 73, 100
1, 4809, Note_off_c, 0, 73, 100
1, 4809, Note_on_c, 0, 78, 100
1, 4825, Note_off_c, 0, 78, 100
1, 4825, Note_on_c, 0, 76, 100
1, 4953, Note_off_c, 0, 76, 100
1, 4953, Note_on_c, 0, 74, 100
1, 5017, Note_off_c, 0, 74, 100
1, 5017, Note_on_c, 0, 75, 100
1, 5065, Note_off_c, 0, 75, 100
1, 5065, Note_on_c, 0, 70, 100
1, 5113, Note_off_c, 0, 70, 100
1, 5113, Note_on_c, 0, 68, 100
1, 5161, Note_off_c, 0, 68, 100
1, 5161, Note_on_c, 0, 70, 100
1, 5209, Note_off_c, 0, 70, 100
1, 5209, Note_on_c, 0, 63, 100
1, 5305, Note_off_c, 0, 63, 100
1, 5305, Note_on_c, 0, 58, 100
1, 5353, Note_off_c, 0, 58, 100
1, 5353, Note_on_c, 0, 63, 100
1, 5449, Note_off_c, 0, 63, 100
1, 5449, Note_on_c, 0, 58, 100
1, 5497, Note_off_c, 0, 58, 100
1, 5497, Note_on_c, 0, 56, 100
1, 5545, Note_off_c, 0, 56, 100
1, 5545, Note_on_c, 0, 58, 100
1, 5609, Note_off_c, 0, 58, 100
1, 5609, Note_on_c, 0, 51, 100
1, 5673, Note_off_c, 0, 51, 100
1, 5673, Note_on_c, 0, 49, 100
1, 5929, Note_off_c, 0, 49, 100
1, 5929, Note_on_c, 0, 68, 100
1, 6073, Note_off_c, 0, 68, 100
1, 6073, Note_on_c, 0, 66, 100
1, 6121, Note_off_c, 0, 66, 100
1, 6121, Note_on_c, 0, 68, 100
1, 6217, Note_off_c, 0, 68, 100
1, 6217, Note_on_c, 0, 61, 100
1, 6313, Note_off_c, 0, 61, 100
1, 6313, Note_on_c, 0, 61, 100
1, 6457, Note_off_c, 0, 61, 100
1, 6457, Note_on_c, 0, 63, 100
1, 6505, Note_off_c, 0, 63, 100
1, 6505, Note_on_c, 0, 64, 100
1, 6553, Note_off_c, 0, 64, 100
1, 6553, Note_on_c, 0, 66, 100
1, 6601, Note_off_c, 0, 66, 100
1, 6601, Note_on_c, 0, 68, 100
1, 6649, Note_off_c, 0, 68, 100
1, 6649, Note_on_c, 0, 71, 100
1, 6697, Note_off_c, 0, 71, 100
1, 6697, Note_on_c, 0, 70, 100
1, 6745, Note_off_c, 0, 70, 100
1, 6745, Note_on_c, 0, 68, 100
1, 6793, Note_off_c, 0, 68, 100
1, 6793, Note_on_c, 0, 67, 100
1, 6841, Note_off_c, 0, 67, 100
1, 6841, Note_on_c, 0, 70, 100
1, 7004, Note_off_c, 0, 70, 100
1, 7004, Note_on_c, 0, 69, 100
1, 7042, Note_off_c, 0, 69, 100
1, 7042, Note_on_c, 0, 70, 100
1, 7080, Note_off_c, 0, 70, 100
1, 7080, Note_on_c, 0, 69, 100
1, 7118, Note_off_c, 0, 69, 100
1, 7118, Note_on_c, 0, 70, 100
1, 7156, Note_off_c, 0, 70, 100
1, 7156, Note_on_c, 0, 75, 100
1, 7194, Note_off_c, 0, 75, 100
1, 7194, Note_on_c, 0, 68, 100
1, 7270, Note_off_c, 0, 68, 100
1, 7270, Note_on_c, 0, 67, 100
1, 7294, Note_off_c, 0, 67, 100
1, 7294, Note_on_c, 0, 68, 100
1, 7342, Note_off_c, 0, 68, 100
1, 7342, Note_on_c, 0, 68, 100
1, 7438, Note_off_c, 0, 68, 100
1, 7438, Note_on_c, 0, 67, 100
1, 7462, Note_off_c, 0, 67, 100
1, 7462, Note_on_c, 0, 68, 100
1, 7510, Note_off_c, 0, 68, 100
1, 7510, Note_on_c, 0, 73, 100
1, 7606, Note_off_c, 0, 73, 100
1, 7870, Note_on_c, 0, 75, 100
1, 7894, Note_off_c, 0, 75, 100
1, 7894, Note_on_c, 0, 76, 100
1, 7918, Note_off_c, 0, 76, 100
1, 7918, Note_on_c, 0, 78, 100
1, 7942, Note_off_c, 0, 78, 100
1, 7942, Note_on_c, 0, 79, 100
1, 7966, Note_off_c, 0, 79, 100
1, 7966, Note_on_c, 0, 75, 100
1, 7990, Note_off_c, 0, 75, 100
1, 7990, Note_on_c, 0, 76, 100
1, 8062, Note_off_c, 0, 76, 100
1, 8062, Note_on_c, 0, 76, 100
1, 8086, Note_off_c, 0, 76, 100
1, 8086, Note_on_c, 0, 75, 100
1, 8110, Note_off_c, 0, 75, 100
1, 8110, Note_on_c, 0, 74, 100
1, 8134, Note_off_c, 0, 74, 100
1, 8134, Note_on_c, 0, 73, 100
1, 8158, Note_off_c, 0, 73, 100
1, 8158, Note_on_c, 0, 72, 100
1, 8182, Note_off_c, 0, 72, 100
1, 8182, Note_on_c, 0, 71, 100
1, 8230, Note_off_c, 0, 71, 100
1, 8230, Note_on_c, 0, 75, 100
1, 8326, Note_off_c, 0, 75, 100
1, 8326, Note_on_c, 0, 73, 100
1, 8422, Note_off_c, 0, 73, 100
1, 8422, Note_on_c, 0, 71, 100
1, 8454, Note_off_c, 0, 71, 100
1, 8454, Note_on_c, 0, 70, 100
1, 8486, Note_off_c, 0, 70, 100
1, 8486, Note_on_c, 0, 66, 100
1, 8518, Note_off_c, 0, 66, 100
1, 8518, Note_on_c, 0, 63, 100
1, 8550, Note_off_c, 0, 63, 100
1, 8550, Note_on_c, 0, 68, 100
1, 8614, Note_off_c, 0, 68, 100
1, 8614, Note_on_c, 0, 63, 100
1, 8646, Note_off_c, 0, 63, 100
1, 8646, Note_on_c, 0, 66, 100
1, 8678, Note_off_c, 0, 66, 100
1, 8678, Note_on_c, 0, 63, 100
1, 8710, Note_off_c, 0, 63, 100
1, 8710, Note_on_c, 0, 58, 100
1, 8806, Note_off_c, 0, 58, 100
1, 8934, Note_on_c, 0, 71, 100
1, 8955, Note_off_c, 0, 71, 100
1, 8955, Note_on_c, 0, 73, 100
1, 8976, Note_off_c, 0, 73, 100
1, 8976, Note_on_c, 0, 74, 100
1, 8997, Note_off_c, 0, 74, 100
1, 8997, Note_on_c, 0, 78, 100
1, 9021, Note_off_c, 0, 78, 100
1, 9021, Note_on_c, 0, 76, 100
1, 9045, Note_off_c, 0, 76, 100
1, 9045, Note_on_c, 0, 74, 100
1, 9069, Note_off_c, 0, 74, 100
1, 9069, Note_on_c, 0, 73, 100
1, 9093, Note_off_c, 0, 73, 100
1, 9093, Note_on_c, 0, 71, 100
1, 9117, Note_off_c, 0, 71, 100
1, 9117, Note_on_c, 0, 69, 100
1, 9141, Note_off_c, 0, 69, 100
1, 9141, Note_on_c, 0, 73, 100
1, 9165, Note_off_c, 0, 73, 100
1, 9165, Note_on_c, 0, 71, 100
1, 9189, Note_off_c, 0, 71, 100
1, 9189, Note_on_c, 0, 66, 100
1, 9233, Note_off_c, 0, 66, 100
1, 9233, Note_on_c, 0, 69, 100
1, 9262, Note_off_c, 0, 69, 100
1, 9262, Note_on_c, 0, 66, 100
1, 9291, Note_off_c, 0, 66, 100
1, 9291, Note_on_c, 0, 69, 100
1, 9335, Note_off_c, 0, 69, 100
1, 9335, Note_on_c, 0, 64, 100
1, 9349, Note_off_c, 0, 64, 100
1, 9349, Note_on_c, 0, 63, 100
1, 9363, Note_off_c, 0, 63, 100
1, 9363, Note_on_c, 0, 62, 100
1, 9377, Note_off_c, 0, 62, 100
1, 9377, Note_on_c, 0, 69, 100
1, 9449, Note_off_c, 0, 69, 100
1, 9449, Note_on_c, 0, 66, 100
1, 9473, Note_off_c, 0, 66, 100
1, 9473, Note_on_c, 0, 64, 100
1, 9497, Note_off_c, 0, 64, 100
1, 9497, Note_on_c, 0, 62, 100
1, 9521, Note_off_c, 0, 62, 100
1, 9521, Note_on_c, 0, 63, 100
1, 9545, Note_off_c, 0, 63, 100
1, 9545, Note_on_c, 0, 62, 100
1, 9569, Note_off_c, 0, 62, 100
1, 9569, Note_on_c, 0, 61, 100
1, 9593, Note_off_c, 0, 61, 100
1, 9593, Note_on_c, 0, 63, 100
1, 9617, Note_off_c, 0, 63, 100
1, 9617, Note_on_c, 0, 65, 100
1, 9665, Note_off_c, 0, 65, 100
1, 9665, Note_on_c, 0, 60, 100
1, 9689, Note_off_c, 0, 60, 100
1, 9689, Note_on_c, 0, 63, 100
1, 9713, Note_off_c, 0, 63, 100
1, 9713, Note_on_c, 0, 65, 100
1, 9737, Note_off_c, 0, 65, 100
1, 9737, Note_on_c, 0, 68, 100
1, 9761, Note_off_c, 0, 68, 100
1, 9761, Note_on_c, 0, 72, 100
1, 9785, Note_off_c, 0, 72, 100
1, 9785, Note_on_c, 0, 75, 100
1, 9809, Note_off_c, 0, 75, 100
1, 9809, Note_on_c, 0, 73, 100
1, 9833, Note_off_c, 0, 73, 100
1, 9833, Note_on_c, 0, 72, 100
1, 9857, Note_off_c, 0, 72, 100
1, 9857, Note_on_c, 0, 71, 100
1, 9905, Note_off_c, 0, 71, 100
1, 9905, Note_on_c, 0, 72, 100
1, 9970, Note_off_c, 0, 72, 100
1, 9970, Note_on_c, 0, 65, 100
1, 9987, Note_off_c, 0, 65, 100
1, 9987, Note_on_c, 0, 67, 100
1, 10021, Note_off_c, 0, 67, 100
1, 10021, Note_on_c, 0, 70, 100
1, 10073, Note_off_c, 0, 70, 100
1, 10073, Note_on_c, 0, 68, 100
1, 10107, Note_off_c, 0, 68, 100
1, 10107, Note_on_c, 0, 67, 100
1, 10124, Note_off_c, 0, 67, 100
1, 10124, Note_on_c, 0, 65, 100
1, 10141, Note_off_c, 0, 65, 100
1, 10141, Note_on_c, 0, 63, 100
1, 10179, Note_off_c, 0, 63, 100
1, 10179, Note_on_c, 0, 63, 100
1, 10217, Note_off_c, 0, 63, 100
1, 10217, Note_on_c, 0, 61, 100
1, 10255, Note_off_c, 0, 61, 100
1, 10255, Note_on_c, 0, 60, 100
1, 10293, Note_off_c, 0, 60, 100
1, 10293, Note_on_c, 0, 58, 100
1, 10451, Note_off_c, 0, 58, 100
1, 10451, Note_on_c, 0, 55, 100
1, 10475, Note_off_c, 0, 55, 100
1, 10475, Note_on_c, 0, 58, 100
1, 10499, Note_off_c, 0, 58, 100
1, 10499, Note_on_c, 0, 62, 100
1, 10523, Note_off_c, 0, 62, 100
1, 10523, Note_on_c, 0, 60, 100
1, 10555, Note_off_c, 0, 60, 100
1, 10555, Note_on_c, 0, 58, 100
1, 10571, Note_off_c, 0, 58, 100
1, 10571, Note_on_c, 0, 60, 100
1, 10587, Note_off_c, 0, 60, 100
1, 10587, Note_on_c, 0, 63, 100
1, 10603, Note_off_c, 0, 63, 100
1, 10603, Note_on_c, 0, 67, 100
1, 10619, Note_off_c, 0, 67, 100
1, 10619, Note_on_c, 0, 65, 100
1, 10635, Note_off_c, 0, 65, 100
1, 10635, Note_on_c, 0, 64, 100
1, 10651, Note_off_c, 0, 64, 100
1, 10651, Note_on_c, 0, 60, 100
1, 10667, Note_off_c, 0, 60, 100
1, 10667, Note_on_c, 0, 62, 100
1, 10683, Note_off_c, 0, 62, 100
1, 10683, Note_on_c, 0, 64, 100
1, 10699, Note_off_c, 0, 64, 100
1, 10699, Note_on_c, 0, 65, 100
1, 10715, Note_off_c, 0, 65, 100
1, 10715, Note_on_c, 0, 64, 100
1, 10749, Note_off_c, 0, 64, 100
1, 10749, Note_on_c, 0, 67, 100
1, 10766, Note_off_c, 0, 67, 100
1, 10766, Note_on_c, 0, 69, 100
1, 10783, Note_off_c, 0, 69, 100
1, 10783, Note_on_c, 0, 74, 100
1, 10817, Note_off_c, 0, 74, 100
1, 10817, Note_on_c, 0, 65, 100
1, 10834, Note_off_c, 0, 65, 100
1, 10834, Note_on_c, 0, 69, 100
1, 10851, Note_off_c, 0, 69, 100
1, 10851, Note_on_c, 0, 74, 100
1, 10868, Note_off_c, 0, 74, 100
1, 10868, Note_on_c, 0, 72, 100
1, 10885, Note_off_c, 0, 72, 100
1, 10885, Note_on_c, 0, 70, 100
1, 10902, Note_off_c, 0, 70, 100
1, 10902, Note_on_c, 0, 69, 100
1, 10950, Note_off_c, 0, 69, 100
1, 10950, Note_on_c, 0, 79, 100
1, 10998, Note_off_c, 0, 79, 100
1, 10998, Note_on_c, 0, 76, 100
1, 11142, Note_off_c, 0, 76, 100
1, 11142, Note_on_c, 0, 80, 100
1, 11190, Note_off_c, 0, 80, 100
1, 11190, Note_on_c, 0, 78, 100
1, 11238, Note_off_c, 0, 78, 100
1, 11238, Note_on_c, 0, 75, 100
1, 11286, Note_off_c, 0, 75, 100
1, 11286, Note_on_c, 0, 75, 100
1, 11324, Note_off_c, 0, 75, 100
1, 11324, Note_on_c, 0, 73, 100
1, 11362, Note_off_c, 0, 73, 100
1, 11362, Note_on_c, 0, 78, 100
1, 11438, Note_off_c, 0, 78, 100
1, 11438, Note_on_c, 0, 75, 100
1, 11476, Note_off_c, 0, 75, 100
1, 11476, Note_on_c, 0, 78, 100
1, 11620, Note_off_c, 0, 78, 100
1, 11620, Note_on_c, 0, 75, 100
1, 11668, Note_off_c, 0, 75, 100
1, 11668, Note_on_c, 0, 71, 100
1, 11706, Note_off_c, 0, 71, 100
1, 11706, Note_on_c, 0, 75, 100
1, 11744, Note_off_c, 0, 75, 100
1, 11744, Note_on_c, 0, 70, 100
1, 11782, Note_off_c, 0, 70, 100
1, 11782, Note_on_c, 0, 68, 100
1, 11820, Note_off_c, 0, 68, 100
1, 11820, Note_on_c, 0, 70, 100
1, 11954, Note_off_c, 0, 70, 100
1, 11954, Note_on_c, 0, 71, 100
1, 11986, Note_off_c, 0, 71, 100
1, 11986, Note_on_c, 0, 73, 100
1, 12018, Note_off_c, 0, 73, 100
1, 12018, Note_on_c, 0, 74, 100
1, 12050, Note_off_c, 0, 74, 100
1, 12050, Note_on_c, 0, 66, 100
1, 12074, Note_off_c, 0, 66, 100
1, 12074, Note_on_c, 0, 76, 100
1, 12098, Note_off_c, 0, 76, 100
1, 12098, Note_on_c, 0, 74, 100
1, 12122, Note_off_c, 0, 74, 100
1, 12122, Note_on_c, 0, 73, 100
1, 12146, Note_off_c, 0, 73, 100
1, 12146, Note_on_c, 0, 72, 100
1, 12194, Note_off_c, 0, 72, 100
1, 12194, Note_on_c, 0, 73, 100
1, 12218, Note_off_c, 0, 73, 100
1, 12218, Note_on_c, 0, 66, 100
1, 12242, Note_off_c, 0, 66, 100
1, 12242, Note_on_c, 0, 73, 100
1, 12280, Note_off_c, 0, 73, 100
1, 12280, Note_on_c, 0, 69, 100
1, 12318, Note_off_c, 0, 69, 100
1, 12318, Note_on_c, 0, 71, 100
1, 12356, Note_off_c, 0, 71, 100
1, 12356, Note_on_c, 0, 66, 100
1, 12394, Note_off_c, 0, 66, 100
1, 12394, Note_on_c, 0, 64, 100
1, 12432, Note_off_c, 0, 64, 100
1, 12432, Note_on_c, 0, 69, 100
1, 12470, Note_off_c, 0, 69, 100
1, 12470, Note_on_c, 0, 66, 100
1, 12508, Note_off_c, 0, 66, 100
1, 12508, Note_on_c, 0, 61, 100
1, 12546, Note_off_c, 0, 61, 100
1, 12546, Note_on_c, 0, 59, 100
1, 12584, Note_off_c, 0, 59, 100
1, 12584, Note_on_c, 0, 59, 100
1, 12766, Note_off_c, 0, 59, 100
1, 12766, Note_on_c, 0, 59, 100
1, 12814, Note_off_c, 0, 59, 100
1, 12814, Note_on_c, 0, 58, 100
1, 12862, Note_off_c, 0, 58, 100
1, 12862, Note_on_c, 0, 56, 100
1, 12910, Note_off_c, 0, 56, 100
1, 12910, Note_on_c, 0, 54, 100
1, 12958, Note_off_c, 0, 54, 100
1, 12958, Note_on_c, 0, 61, 100
1, 13006, Note_off_c, 0, 61, 100
1, 13006, Note_on_c, 0, 58, 100
1, 13054, Note_off_c, 0, 58, 100
1, 13054, Note_on_c, 0, 54, 100
1, 13150, Note_off_c, 0, 54, 100
1, 13150, Note_on_c, 0, 54, 100
1, 13428, Note_off_c, 0, 54, 100
1, 13428, Note_on_c, 0, 56, 100
1, 13466, Note_off_c, 0, 56, 100
1, 13466, Note_on_c, 0, 59, 100
1, 13504, Note_off_c, 0, 59, 100
1, 13504, Note_on_c, 0, 59, 100
1, 13542, Note_off_c, 0, 59, 100
1, 13542, Note_on_c, 0, 63, 100
1, 13580, Note_off_c, 0, 63, 100
1, 13580, Note_on_c, 0, 61, 100
1, 13618, Note_off_c, 0, 61, 100
1, 13618, Note_on_c, 0, 63, 100
1, 13656, Note_off_c, 0, 63, 100
1, 13656, Note_on_c, 0, 64, 100
1, 13694, Note_off_c, 0, 64, 100
1, 13694, Note_on_c, 0, 66, 100
1, 13732, Note_off_c, 0, 66, 100
1, 13732, Note_on_c, 0, 68, 100
1, 13770, Note_off_c, 0, 68, 100
1, 13770, Note_on_c, 0, 70, 100
1, 13808, Note_off_c, 0, 70, 100
1, 13808, Note_on_c, 0, 71, 100
1, 13846, Note_off_c, 0, 71, 100
1, 13846, Note_on_c, 0, 75, 100
1, 13884, Note_off_c, 0, 75, 100
1, 13884, Note_on_c, 0, 76, 100
1, 13922, Note_off_c, 0, 76, 100
1, 13922, Note_on_c, 0, 78, 100
1, 13960, Note_off_c, 0, 78, 100
1, 13960, Note_on_c, 0, 79, 100
1, 13998, Note_off_c, 0, 79, 100
1, 13998, Note_on_c, 0, 75, 100
1, 14036, Note_off_c, 0, 75, 100
1, 14036, Note_on_c, 0, 76, 100
1, 14074, Note_off_c, 0, 76, 100
1, 14074, Note_on_c, 0, 68, 100
1, 14112, Note_off_c, 0, 68, 100
1, 14112, Note_on_c, 0, 71, 100
1, 14150, Note_off_c, 0, 71, 100
1, 14150, Note_on_c, 0, 75, 100
1, 14198, Note_off_c, 0, 75, 100
1, 14198, Note_on_c, 0, 67, 100
1, 14294, Note_off_c, 0, 67, 100
1, 14294, Note_on_c, 0, 68, 100
1, 14342, Note_off_c, 0, 68, 100
1, 14342, Note_on_c, 0, 71, 100
1, 14390, Note_off_c, 0, 71, 100
1, 14390, Note_on_c, 0, 66, 100
1, 14486, Note_off_c, 0, 66, 100
1, 14486, Note_on_c, 0, 64, 100
1, 14534, Note_off_c, 0, 64, 100
1, 14534, Note_on_c, 0, 63, 100
1, 14630, Note_off_c, 0, 63, 100
1, 14630, Note_on_c, 0, 63, 100
1, 14678, Note_off_c, 0, 63, 100
1, 14678, Note_on_c, 0, 64, 100
1, 14726, Note_off_c, 0, 64, 100
1, 14726, Note_on_c, 0, 66, 100
1, 14774, Note_off_c, 0, 66, 100
1, 14774, Note_on_c, 0, 63, 100
1, 14822, Note_off_c, 0, 63, 100
1, 14822, Note_on_c, 0, 61, 100
1, 14870, Note_off_c, 0, 61, 100
1, 14870, Note_on_c, 0, 63, 100
1, 15062, Note_off_c, 0, 63, 100
1, 15062, Note_on_c, 0, 70, 100
1, 15329, Note_off_c, 0, 70, 100
1, 15329, Note_on_c, 0, 68, 100
1, 15356, Note_off_c, 0, 68, 100
1, 15356, Note_on_c, 0, 70, 100
1, 15383, Note_off_c, 0, 70, 100
1, 15383, Note_on_c, 0, 71, 100
1, 15410, Note_off_c, 0, 71, 100
1, 15410, Note_on_c, 0, 75, 100
1, 15437, Note_off_c, 0, 75, 100
1, 15437, Note_on_c, 0, 70, 100
1, 15464, Note_off_c, 0, 70, 100
1, 15464, Note_on_c, 0, 68, 100
1, 15491, Note_off_c, 0, 68, 100
1, 15491, Note_on_c, 0, 73, 100
1, 15523, Note_off_c, 0, 73, 100
1, 15523, Note_on_c, 0, 70, 100
1, 15555, Note_off_c, 0, 70, 100
1, 15555, Note_on_c, 0, 66, 100
1, 15587, Note_off_c, 0, 66, 100
1, 15587, Note_on_c, 0, 68, 100
1, 15619, Note_off_c, 0, 68, 100
1, 15619, Note_on_c, 0, 70, 100
1, 15651, Note_off_c, 0, 70, 100
1, 15651, Note_on_c, 0, 69, 100
1, 15683, Note_off_c, 0, 69, 100
1, 15683, Note_on_c, 0, 68, 100
1, 15710, Note_off_c, 0, 68, 100
1, 15710, Note_on_c, 0, 67, 100
1, 15737, Note_off_c, 0, 67, 100
1, 15737, Note_on_c, 0, 65, 100
1, 15764, Note_off_c, 0, 65, 100
1, 15764, Note_on_c, 0, 66, 100
1, 15791, Note_off_c, 0, 66, 100
1, 15791, Note_on_c, 0, 63, 100
1, 15818, Note_off_c, 0, 63, 100
1, 15818, Note_on_c, 0, 64, 100
1, 15845, Note_off_c, 0, 64, 100
1, 15845, Note_on_c, 0, 59, 100
1, 15872, Note_off_c, 0, 59, 100
1, 15872, Note_on_c, 0, 60, 100
1, 15893, Note_off_c, 0, 60, 100
1, 15893, Note_on_c, 0, 59, 100
1, 15914, Note_off_c, 0, 59, 100
1, 15914, Note_on_c, 0, 68, 100
1, 15978, Note_off_c, 0, 68, 100
1, 15978, Note_on_c, 0, 66, 100
1, 15999, Note_off_c, 0, 66, 100
1, 15999, Note_on_c, 0, 68, 100
1, 16020, Note_off_c, 0, 68, 100
1, 16020, Note_on_c, 0, 71, 100
1, 16041, Note_off_c, 0, 71, 100
1, 16041, Note_on_c, 0, 75, 100
1, 16062, Note_off_c, 0, 75, 100
1, 16062, Note_on_c, 0, 73, 100
1, 16110, Note_off_c, 0, 73, 100
1, 16110, Note_on_c, 0, 70, 100
1, 16134, Note_off_c, 0, 70, 100
1, 16134, Note_on_c, 0, 70, 100
1, 16206, Note_off_c, 0, 70, 100
1, 16206, Note_on_c, 0, 66, 100
1, 16230, Note_off_c, 0, 66, 100
1, 16230, Note_on_c, 0, 63, 100
1, 16254, Note_off_c, 0, 63, 100
1, 16254, Note_on_c, 0, 61, 100
1, 16302, Note_off_c, 0, 61, 100
1, 16302, Note_on_c, 0, 58, 100
1, 16350, Note_off_c, 0, 58, 100
1, 16350, Note_on_c, 0, 58, 100
1, 16574, Note_off_c, 0, 58, 100
1, 16574, Note_on_c, 0, 50, 100
1, 16595, Note_off_c, 0, 50, 100
1, 16595, Note_on_c, 0, 52, 100
1, 16616, Note_off_c, 0, 52, 100
1, 16616, Note_on_c, 0, 54, 100
1, 16637, Note_off_c, 0, 54, 100
1, 16637, Note_on_c, 0, 62, 100
1, 16653, Note_off_c, 0, 62, 100
1, 16653, Note_on_c, 0, 54, 100
1, 16685, Note_off_c, 0, 54, 100
1, 16685, Note_on_c, 0, 57, 100
1, 16701, Note_off_c, 0, 57, 100
1, 16701, Note_on_c, 0, 59, 100
1, 16717, Note_off_c, 0, 59, 100
1, 16717, Note_on_c, 0, 62, 100
1, 16733, Note_off_c, 0, 62, 100
1, 16733, Note_on_c, 0, 61, 100
1, 16749, Note_off_c, 0, 61, 100
1, 16749, Note_on_c, 0, 59, 100
1, 16765, Note_off_c, 0, 59, 100
1, 16765, Note_on_c, 0, 62, 100
1, 16781, Note_off_c, 0, 62, 100
1, 16781, Note_on_c, 0, 66, 100
1, 16813, Note_off_c, 0, 66, 100
1, 16813, Note_on_c, 0, 62, 100
1, 16829, Note_off_c, 0, 62, 100
1, 16829, Note_on_c, 0, 64, 100
1, 16861, Note_off_c, 0, 64, 100
1, 16861, Note_on_c, 0, 66, 100
1, 16893, Note_off_c, 0, 66, 100
1, 16893, Note_on_c, 0, 74, 100
1, 16925, Note_off_c, 0, 74, 100
1, 16925, Note_on_c, 0, 78, 100
1, 16957, Note_off_c, 0, 78, 100
1, 16957, Note_on_c, 0, 76, 100
1, 17045, Note_off_c, 0, 76, 100
1, 17045, Note_on_c, 0, 74, 100
1, 17069, Note_off_c, 0, 74, 100
1, 17069, Note_on_c, 0, 73, 100
1, 17093, Note_off_c, 0, 73, 100
1, 17093, Note_on_c, 0, 72, 100
1, 17117, Note_off_c, 0, 72, 100
1, 17117, Note_on_c, 0, 71, 100
1, 17141, Note_off_c, 0, 71, 100
1, 17141, Note_on_c, 0, 70, 100
1, 17165, Note_off_c, 0, 70, 100
1, 17165, Note_on_c, 0, 69, 100
1, 17189, Note_off_c, 0, 69, 100
1, 17189, Note_on_c, 0, 68, 100
1, 17213, Note_off_c, 0, 68, 100
1, 17213, Note_on_c, 0, 67, 100
1, 17251, Note_off_c, 0, 67, 100
1, 17251, Note_on_c, 0, 66, 100
1, 17289, Note_off_c, 0, 66, 100
1, 17289, Note_on_c, 0, 65, 100
1, 17327, Note_off_c, 0, 65, 100
1, 17327, Note_on_c, 0, 63, 100
1, 17365, Note_off_c, 0, 63, 100
1, 17365, Note_on_c, 0, 67, 100
1, 17427, Note_off_c, 0, 67, 100
1, 17427, Note_on_c, 0, 65, 100
1, 17475, Note_off_c, 0, 65, 100
1, 17475, Note_on_c, 0, 63, 100
1, 17499, Note_off_c, 0, 63, 100
1, 17499, Note_on_c, 0, 65, 100
1, 17523, Note_off_c, 0, 65, 100
1, 17523, Note_on_c, 0, 68, 100
1, 17547, Note_off_c, 0, 68, 100
1, 17547, Note_on_c, 0, 75, 100
1, 17571, Note_off_c, 0, 75, 100
1, 17571, Note_on_c, 0, 79, 100
1, 17595, Note_off_c, 0, 79, 100
1, 17595, Note_on_c, 0, 75, 100
1, 17643, Note_off_c, 0, 75, 100
1, 17643, Note_on_c, 0, 79, 100
1, 17691, Note_off_c, 0, 79, 100
1, 17691, Note_on_c, 0, 75, 100
1, 17739, Note_off_c, 0, 75, 100
1, 17739, Note_on_c, 0, 72, 100
1, 17787, Note_off_c, 0, 72, 100
1, 17787, Note_on_c, 0, 75, 100
1, 17851, Note_off_c, 0, 75, 100
1, 17851, Note_on_c, 0, 68, 100
1, 17915, Note_off_c, 0, 68, 100
1, 17915, Note_on_c, 0, 72, 100
1, 18075, Note_off_c, 0, 72, 100
1, 18075, Note_on_c, 0, 72, 100
1, 18123, Note_off_c, 0, 72, 100
1, 18123, Note_on_c, 0, 60, 100
1, 18171, Note_off_c, 0, 60, 100
1, 18171, Note_on_c, 0, 72, 100
1, 18219, Note_off_c, 0, 72, 100
1, 18219, Note_on_c, 0, 72, 100
1, 18267, Note_off_c, 0, 72, 100
1, 18267, Note_on_c, 0, 72, 100
1, 18363, Note_off_c, 0, 72, 100
1, 18363, Note_on_c, 0, 60, 100
1, 18384, Note_off_c, 0, 60, 100
1, 18384, Note_on_c, 0, 69, 100
1, 18490, Note_off_c, 0, 69, 100
1, 18490, Note_on_c, 0, 70, 100
1, 18511, Note_off_c, 0, 70, 100
1, 18511, Note_on_c, 0, 72, 100
1, 18532, Note_off_c, 0, 72, 100
1, 18532, Note_on_c, 0, 74, 100
1, 18553, Note_off_c, 0, 74, 100
1, 18553, Note_on_c, 0, 69, 100
1, 18769, Note_off_c, 0, 69, 100
1, 18769, Note_on_c, 0, 67, 100
1, 18793, Note_off_c, 0, 67, 100
1, 18793, Note_on_c, 0, 68, 100
1, 18817, Note_off_c, 0, 68, 100
1, 18817, Note_on_c, 0, 70, 100
1, 18841, Note_off_c, 0, 70, 100
1, 18841, Note_on_c, 0, 71, 100
1, 18865, Note_off_c, 0, 71, 100
1, 18865, Note_on_c, 0, 75, 100
1, 18889, Note_off_c, 0, 75, 100
1, 18889, Note_on_c, 0, 74, 100
1, 18954, Note_off_c, 0, 74, 100
1, 18954, Note_on_c, 0, 73, 100
1, 18988, Note_off_c, 0, 73, 100
1, 18988, Note_on_c, 0, 66, 100
1, 19005, Note_off_c, 0, 66, 100
1, 19005, Note_on_c, 0, 68, 100
1, 19022, Note_off_c, 0, 68, 100
1, 19022, Note_on_c, 0, 71, 100
1, 19056, Note_off_c, 0, 71, 100
1, 19056, Note_on_c, 0, 70, 100
1, 19073, Note_off_c, 0, 70, 100
1, 19073, Note_on_c, 0, 66, 100
1, 19107, Note_off_c, 0, 66, 100
1, 19107, Note_on_c, 0, 63, 100
1, 19124, Note_off_c, 0, 63, 100
1, 19124, Note_on_c, 0, 61, 100
1, 19200, Note_off_c, 0, 61, 100
1, 19200, Note_on_c, 0, 63, 100
1, 19238, Note_off_c, 0, 63, 100
1, 19238, Note_on_c, 0, 66, 100
1, 19276, Note_off_c, 0, 66, 100
1, 19276, Note_on_c, 0, 63, 100
1, 19314, Note_off_c, 0, 63, 100
1, 19314, Note_on_c, 0, 61, 100
1, 19390, Note_off_c, 0, 61, 100
1, 19390, Note_on_c, 0, 58, 100
1, 19428, Note_off_c, 0, 58, 100
1, 19428, Note_on_c, 0, 59, 100
1, 19466, Note_off_c, 0, 59, 100
1, 19466, Note_on_c, 0, 51, 100
1, 19562, Note_off_c, 0, 51, 100
1, 19696, Note_on_c, 0, 52, 100
1, 19744, Note_off_c, 0, 52, 100
1, 19744, Note_on_c, 0, 57, 100
1, 19792, Note_off_c, 0, 57, 100
1, 19792, Note_on_c, 0, 54, 100
1, 19840, Note_off_c, 0, 54, 100
1, 19840, Note_on_c, 0, 59, 100
1, 19888, Note_off_c, 0, 59, 100
1, 19888, Note_on_c, 0, 57, 100
1, 19912, Note_off_c, 0, 57, 100
1, 19912, Note_on_c, 0, 61, 100
1, 19984, Note_off_c, 0, 61, 100
1, 19984, Note_on_c, 0, 59, 100
1, 20008, Note_off_c, 0, 59, 100
1, 20008, Note_on_c, 0, 64, 100
1, 20032, Note_off_c, 0, 64, 100
1, 20032, Note_on_c, 0, 61, 100
1, 20056, Note_off_c, 0, 61, 100
1, 20056, Note_on_c, 0, 69, 100
1, 20080, Note_off_c, 0, 69, 100
1, 20080, Note_on_c, 0, 66, 100
1, 20104, Note_off_c, 0, 66, 100
1, 20104, Note_on_c, 0, 71, 100
1, 20128, Note_off_c, 0, 71, 100
1, 20128, Note_on_c, 0, 69, 100
1, 20152, Note_off_c, 0, 69, 100
1, 20152, Note_on_c, 0, 73, 100
1, 20176, Note_off_c, 0, 73, 100
1, 20176, Note_on_c, 0, 71, 100
1, 20200, Note_off_c, 0, 71, 100
1, 20200, Note_on_c, 0, 76, 100
1, 20224, Note_off_c, 0, 76, 100
1, 20224, Note_on_c, 0, 71, 100
1, 20248, Note_off_c, 0, 71, 100
1, 20248, Note_on_c, 0, 73, 100
1, 20272, Note_off_c, 0, 73, 100
1, 20272, Note_on_c, 0, 75, 100
1, 20314, Note_off_c, 0, 75, 100
1, 20314, Note_on_c, 0, 71, 100
1, 20378, Note_off_c, 0, 71, 100
1, 20378, Note_on_c, 0, 75, 100
1, 20399, Note_off_c, 0, 75, 100
1, 20399, Note_on_c, 0, 66, 100
1, 20420, Note_off_c, 0, 66, 100
1, 20420, Note_on_c, 0, 68, 100
1, 20441, Note_off_c, 0, 68, 100
1, 20441, Note_on_c, 0, 71, 100
1, 20494, Note_off_c, 0, 71, 100
1, 20494, Note_on_c, 0, 66, 100
1, 20526, Note_off_c, 0, 66, 100
1, 20526, Note_on_c, 0, 63, 100
1, 20558, Note_off_c, 0, 63, 100
1, 20558, Note_on_c, 0, 68, 100
1, 20590, Note_off_c, 0, 68, 100
1, 20590, Note_on_c, 0, 63, 100
1, 20622, Note_off_c, 0, 63, 100
1, 20622, Note_on_c, 0, 66, 100
1, 20678, Note_off_c, 0, 66, 100
1, 20678, Note_on_c, 0, 63, 100
1, 20702, Note_off_c, 0, 63, 100
1, 20702, Note_on_c, 0, 59, 100
1, 20726, Note_off_c, 0, 59, 100
1, 20726, Note_on_c, 0, 58, 100
1, 20750, Note_off_c, 0, 58, 100
1, 20750, Note_on_c, 0, 56, 100
1, 20774, Note_off_c, 0, 56, 100
1, 20774, Note_on_c, 0, 61, 100
1, 20846, Note_off_c, 0, 61, 100
1, 20846, Note_on_c, 0, 58, 100
1, 20894, Note_off_c, 0, 58, 100
1, 20894, Note_on_c, 0, 59, 100
1, 20942, Note_off_c, 0, 59, 100
1, 20942, Note_on_c, 0, 66, 100
1, 21134, Note_off_c, 0, 66, 100
1, 21134, Note_on_c, 0, 58, 100
1, 21158, Note_off_c, 0, 58, 100
1, 21158, Note_on_c, 0, 59, 100
1, 21182, Note_off_c, 0, 59, 100
1, 21182, Note_on_c, 0, 63, 100
1, 21206, Note_off_c, 0, 63, 100
1, 21206, Note_on_c, 0, 66, 100
1, 21230, Note_off_c, 0, 66, 100
1, 21230, Note_on_c, 0, 68, 100
1, 21268, Note_off_c, 0, 68, 100
1, 21268, Note_on_c, 0, 66, 100
1, 21306, Note_off_c, 0, 66, 100
1, 21306, Note_on_c, 0, 68, 100
1, 21382, Note_off_c, 0, 68, 100
1, 21382, Note_on_c, 0, 66, 100
1, 21420, Note_off_c, 0, 66, 100
1, 21420, Note_on_c, 0, 68, 100
1, 21535, Note_off_c, 0, 68, 100
1, 21535, Note_on_c, 0, 71, 100
1, 21573, Note_off_c, 0, 71, 100
1, 21573, Note_on_c, 0, 73, 100
1, 21611, Note_off_c, 0, 73, 100
1, 21611, Note_on_c, 0, 75, 100
1, 21755, Note_off_c, 0, 75, 100
1, 21755, Note_on_c, 0, 76, 100
1, 21779, Note_off_c, 0, 76, 100
1, 21779, Note_on_c, 0, 78, 100
1, 21803, Note_off_c, 0, 78, 100
1, 21803, Note_on_c, 0, 76, 100
1, 21947, Note_off_c, 0, 76, 100
1, 21947, Note_on_c, 0, 78, 100
1, 21995, Note_off_c, 0, 78, 100
1, 21995, Note_on_c, 0, 80, 100
1, 22043, Note_off_c, 0, 80, 100
1, 22043, Note_on_c, 0, 75, 100
1, 22139, Note_off_c, 0, 75, 100
1, 22139, Note_on_c, 0, 73, 100
1, 22187, Note_off_c, 0, 73, 100
1, 22187, Note_on_c, 0, 78, 100
1, 22523, Note_off_c, 0, 78, 100
1, 22523, Note_on_c, 0, 78, 100
1, 22635, Note_off_c, 0, 78, 100
1, 22635, Note_on_c, 0, 76, 100
1, 22699, Note_off_c, 0, 76, 100
1, 22699, Note_on_c, 0, 78, 100
1, 22811, Note_off_c, 0, 78, 100
1, 22811, Note_on_c, 0, 80, 100
1, 22907, Note_off_c, 0, 80, 100
1, 22907, Note_on_c, 0, 73, 100
1, 23003, Note_off_c, 0, 73, 100
1, 23003, Note_on_c, 0, 73, 100
1, 23051, Note_off_c, 0, 73, 100
1, 23051, Note_on_c, 0, 71, 100
1, 23099, Note_off_c, 0, 71, 100
1, 23099, Note_on_c, 0, 73, 100
1, 23147, Note_off_c, 0, 73, 100
1, 23147, Note_on_c, 0, 75, 100
1, 23185, Note_off_c, 0, 75, 100
1, 23185, Note_on_c, 0, 78, 100
1, 23223, Note_off_c, 0, 78, 100
1, 23223, Note_on_c, 0, 70, 100
1, 23261, Note_off_c, 0, 70, 100
1, 23261, Note_on_c, 0, 76, 100
1, 23299, Note_off_c, 0, 76, 100
1, 23299, Note_on_c, 0, 70, 100
1, 23337, Note_off_c, 0, 70, 100
1, 23337, Note_on_c, 0, 76, 100
1, 23375, Note_off_c, 0, 76, 100
1, 23375, Note_on_c, 0, 68, 100
1, 23413, Note_off_c, 0, 68, 100
1, 23413, Note_on_c, 0, 66, 100
1, 23489, Note_off_c, 0, 66, 100
1, 23489, Note_on_c, 0, 67, 100
1, 23527, Note_off_c, 0, 67, 100
1, 23527, Note_on_c, 0, 59, 100
1, 23559, Note_off_c, 0, 59, 100
1, 23559, Note_on_c, 0, 63, 100
1, 23591, Note_off_c, 0, 63, 100
1, 23591, Note_on_c, 0, 67, 100
1, 23655, Note_off_c, 0, 67, 100
1, 23655, Note_on_c, 0, 63, 100
1, 23687, Note_off_c, 0, 63, 100
1, 23687, Note_on_c, 0, 59, 100
1, 23719, Note_off_c, 0, 59, 100
1, 23719, Note_on_c, 0, 66, 100
1, 23757, Note_off_c, 0, 66, 100
1, 23757, Note_on_c, 0, 63, 100
1, 23795, Note_off_c, 0, 63, 100
1, 23795, Note_on_c, 0, 59, 100
1, 23871, Note_off_c, 0, 59, 100
1, 23871, Note_on_c, 0, 63, 100
1, 23909, Note_off_c, 0, 63, 100
1, 23909, Note_on_c, 0, 58, 100
1, 23957, Note_off_c, 0, 58, 100
1, 23957, Note_on_c, 0, 54, 100
1, 24149, Note_off_c, 0, 54, 100
1, 24149, Note_on_c, 0, 62, 100
1, 24221, Note_off_c, 0, 62, 100
1, 24221, Note_on_c, 0, 61, 100
1, 24245, Note_off_c, 0, 61, 100
1, 24245, Note_on_c, 0, 62, 100
1, 24269, Note_off_c, 0, 62, 100
1, 24269, Note_on_c, 0, 69, 100
1, 24293, Note_off_c, 0, 69, 100
1, 24293, Note_on_c, 0, 61, 100
1, 24327, Note_off_c, 0, 61, 100
1, 24327, Note_on_c, 0, 62, 100
1, 24344, Note_off_c, 0, 62, 100
1, 24344, Note_on_c, 0, 66, 100
1, 24378, Note_off_c, 0, 66, 100
1, 24378, Note_on_c, 0, 61, 100
1, 24395, Note_off_c, 0, 61, 100
1, 24395, Note_on_c, 0, 62, 100
1, 24412, Note_off_c, 0, 62, 100
1, 24412, Note_on_c, 0, 64, 100
1, 24429, Note_off_c, 0, 64, 100
1, 24429, Note_on_c, 0, 66, 100
1, 24463, Note_off_c, 0, 66, 100
1, 24463, Note_on_c, 0, 71, 100
1, 24480, Note_off_c, 0, 71, 100
1, 24480, Note_on_c, 0, 73, 100
1, 24512, Note_off_c, 0, 73, 100
1, 24512, Note_on_c, 0, 78, 100
1, 24576, Note_off_c, 0, 78, 100
1, 24576, Note_on_c, 0, 76, 100
1, 24608, Note_off_c, 0, 76, 100
1, 24608, Note_on_c, 0, 74, 100
1, 24640, Note_off_c, 0, 74, 100
1, 24640, Note_on_c, 0, 73, 100
1, 24672, Note_off_c, 0, 73, 100
1, 24672, Note_on_c, 0, 71, 100
1, 24696, Note_off_c, 0, 71, 100
1, 24696, Note_on_c, 0, 69, 100
1, 24720, Note_off_c, 0, 69, 100
1, 24720, Note_on_c, 0, 66, 100
1, 24744, Note_off_c, 0, 66, 100
1, 24744, Note_on_c, 0, 64, 100
1, 24792, Note_off_c, 0, 64, 100
1, 24792, Note_on_c, 0, 77, 100
1, 24840, Note_off_c, 0, 77, 100
1, 24840, Note_on_c, 0, 76, 100
1, 24864, Note_off_c, 0, 76, 100
1, 24864, Note_on_c, 0, 75, 100
1, 24912, Note_off_c, 0, 75, 100
1, 24912, Note_on_c, 0, 72, 100
1, 24936, Note_off_c, 0, 72, 100
1, 24936, Note_on_c, 0, 73, 100
1, 24960, Note_off_c, 0, 73, 100
1, 24960, Note_on_c, 0, 65, 100
1, 24984, Note_off_c, 0, 65, 100
1, 24984, Note_on_c, 0, 68, 100
1, 25008, Note_off_c, 0, 68, 100
1, 25008, Note_on_c, 0, 72, 100
1, 25032, Note_off_c, 0, 72, 100
1, 25032, Note_on_c, 0, 71, 100
1, 25056, Note_off_c, 0, 71, 100
1, 25056, Note_on_c, 0, 69, 100
1, 25088, Note_off_c, 0, 69, 100
1, 25088, Note_on_c, 0, 70, 100
1, 25152, Note_off_c, 0, 70, 100
1, 25152, Note_on_c, 0, 65, 100
1, 25184, Note_off_c, 0, 65, 100
1, 25184, Note_on_c, 0, 68, 100
1, 25216, Note_off_c, 0, 68, 100
1, 25216, Note_on_c, 0, 67, 100
1, 25248, Note_off_c, 0, 67, 100
1, 25248, Note_on_c, 0, 63, 100
1, 25296, Note_off_c, 0, 63, 100
1, 25296, Note_on_c, 0, 60, 100
1, 25488, Note_off_c, 0, 60, 100
1, 25488, Note_on_c, 0, 54, 100
1, 25512, Note_off_c, 0, 54, 100
1, 25512, Note_on_c, 0, 58, 100
1, 25536, Note_off_c, 0, 58, 100
1, 25536, Note_on_c, 0, 53, 100
1, 25560, Note_off_c, 0, 53, 100
1, 25560, Note_on_c, 0, 55, 100
1, 25584, Note_off_c, 0, 55, 100
1, 25584, Note_on_c, 0, 58, 100
1, 25608, Note_off_c, 0, 58, 100
1, 25608, Note_on_c, 0, 62, 100
1, 25632, Note_off_c, 0, 62, 100
1, 25632, Note_on_c, 0, 60, 100
1, 25645, Note_off_c, 0, 60, 100
1, 25645, Note_on_c, 0, 62, 100
1, 25672, Note_off_c, 0, 62, 100
1, 25672, Note_on_c, 0, 65, 100
1, 25685, Note_off_c, 0, 65, 100
1, 25685, Note_on_c, 0, 69, 100
1, 25712, Note_off_c, 0, 69, 100
1, 25712, Note_on_c, 0, 67, 100
1, 25725, Note_off_c, 0, 67, 100
1, 25725, Note_on_c, 0, 65, 100
1, 25738, Note_off_c, 0, 65, 100
1, 25738, Note_on_c, 0, 64, 100
1, 25751, Note_off_c, 0, 64, 100
1, 25751, Note_on_c, 0, 65, 100
1, 25764, Note_off_c, 0, 65, 100
1, 25764, Note_on_c, 0, 70, 100
1, 25777, Note_off_c, 0, 70, 100
1, 25777, Note_on_c, 0, 74, 100
1, 25790, Note_off_c, 0, 74, 100
1, 25790, Note_on_c, 0, 72, 100
1, 25803, Note_off_c, 0, 72, 100
1, 25803, Note_on_c, 0, 70, 100
1, 25816, Note_off_c, 0, 70, 100
1, 25816, Note_on_c, 0, 69, 100
1, 25848, Note_off_c, 0, 69, 100
1, 25848, Note_on_c, 0, 79, 100
1, 25880, Note_off_c, 0, 79, 100
1, 25880, Note_on_c, 0, 77, 100
1, 25912, Note_off_c, 0, 77, 100
1, 25912, Note_on_c, 0, 76, 100
1, 26042, Note_off_c, 0, 76, 100
1, 26042, Note_on_c, 0, 74, 100
1, 26059, Note_off_c, 0, 74, 100
1, 26059, Note_on_c, 0, 72, 100
1, 26076, Note_off_c, 0, 72, 100
1, 26076, Note_on_c, 0, 69, 100
1, 26093, Note_off_c, 0, 69, 100
1, 26093, Note_on_c, 0, 67, 100
1, 26110, Note_off_c, 0, 67, 100
1, 26110, Note_on_c, 0, 65, 100
1, 26127, Note_off_c, 0, 65, 100
1, 26127, Note_on_c, 0, 64, 100
1, 26161, Note_off_c, 0, 64, 100
1, 26161, Note_on_c, 0, 62, 100
1, 26195, Note_off_c, 0, 62, 100
1, 26195, Note_on_c, 0, 64, 100
1, 26219, Note_off_c, 0, 64, 100
1, 26219, Note_on_c, 0, 68, 100
1, 26243, Note_off_c, 0, 68, 100
1, 26243, Note_on_c, 0, 67, 100
1, 26267, Note_off_c, 0, 67, 100
1, 26267, Note_on_c, 0, 65, 100
1, 26291, Note_off_c, 0, 65, 100
1, 26291, Note_on_c, 0, 64, 100
1, 26315, Note_off_c, 0, 64, 100
1, 26315, Note_on_c, 0, 62, 100
1, 26339, Note_off_c, 0, 62, 100
1, 26339, Note_on_c, 0, 60, 100
1, 26363, Note_off_c, 0, 60, 100
1, 26363, Note_on_c, 0, 59, 100
1, 26387, Note_off_c, 0, 59, 100
1, 26387, Note_on_c, 0, 63, 100
1, 26408, Note_off_c, 0, 63, 100
1, 26408, Note_on_c, 0, 59, 100
1, 26429, Note_off_c, 0, 59, 100
1, 26429, Note_on_c, 0, 58, 100
1, 26450, Note_off_c, 0, 58, 100
1, 26450, Note_on_c, 0, 57, 100
1, 26471, Note_off_c, 0, 57, 100
1, 26471, Note_on_c, 0, 55, 100
1, 26492, Note_off_c, 0, 55, 100
1, 26492, Note_on_c, 0, 56, 100
1, 26513, Note_off_c, 0, 56, 100
1, 26513, Note_on_c, 0, 59, 100
1, 26534, Note_off_c, 0, 59, 100
1, 26534, Note_on_c, 0, 63, 100
1, 26555, Note_off_c, 0, 63, 100
1, 26555, Note_on_c, 0, 66, 100
1, 26576, Note_off_c, 0, 66, 100
1, 26576, Note_on_c, 0, 63, 100
1, 26618, Note_off_c, 0, 63, 100
1, 26618, Note_on_c, 0, 66, 100
1, 26660, Note_off_c, 0, 66, 100
1, 26660, Note_on_c, 0, 68, 100
1, 26681, Note_off_c, 0, 68, 100
1, 26681, Note_on_c, 0, 71, 100
1, 26702, Note_off_c, 0, 71, 100
1, 26702, Note_on_c, 0, 73, 100
1, 26723, Note_off_c, 0, 73, 100
1, 26723, Note_on_c, 0, 75, 100
1, 26744, Note_off_c, 0, 75, 100
1, 26744, Note_on_c, 0, 73, 100
1, 26765, Note_off_c, 0, 73, 100
1, 26765, Note_on_c, 0, 70, 100
1, 26880, Note_off_c, 0, 70, 100
1, 26880, Note_on_c, 0, 68, 100
1, 26918, Note_off_c, 0, 68, 100
1, 26918, Note_on_c, 0, 70, 100
1, 26956, Note_off_c, 0, 70, 100
1, 26956, Note_on_c, 0, 66, 100
1, 27052, Note_off_c, 0, 66, 100
1, 27052, Note_on_c, 0, 66, 100
1, 27196, Note_off_c, 0, 66, 100
1, 27196, Note_on_c, 0, 66, 100
1, 27292, Note_off_c, 0, 66, 100
1, 27292, Note_on_c, 0, 66, 100
1, 27460, Note_off_c, 0, 66, 100
1, 27460, Note_on_c, 0, 67, 100
1, 27484, Note_off_c, 0, 67, 100
1, 27484, Note_on_c, 0, 69, 100
1, 27508, Note_off_c, 0, 69, 100
1, 27508, Note_on_c, 0, 71, 100
1, 27532, Note_off_c, 0, 71, 100
1, 27532, Note_on_c, 0, 66, 100
1, 27676, Note_off_c, 0, 66, 100
1, 27676, Note_on_c, 0, 66, 100
1, 27916, Note_off_c, 0, 66, 100
1, 27916, Note_on_c, 0, 63, 100
1, 27964, Note_off_c, 0, 63, 100
1, 27964, Note_on_c, 0, 61, 100
1, 28012, Note_off_c, 0, 61, 100
1, 28012, Note_on_c, 0, 63, 100
1, 28060, Note_off_c, 0, 63, 100
1, 28060, Note_on_c, 0, 61, 100
1, 28108, Note_off_c, 0, 61, 100
1, 28108, Note_on_c, 0, 63, 100
1, 28172, Note_off_c, 0, 63, 100
1, 28172, Note_on_c, 0, 61, 100
1, 28236, Note_off_c, 0, 61, 100
1, 28236, Note_on_c, 0, 63, 100
1, 28348, Note_off_c, 0, 63, 100
1, 28348, Note_on_c, 0, 61, 100
1, 28396, Note_off_c, 0, 61, 100
1, 28396, Note_on_c, 0, 63, 100
1, 28444, Note_off_c, 0, 63, 100
1, 28444, Note_on_c, 0, 61, 100
1, 28492, Note_off_c, 0, 61, 100
1, 28492, Note_on_c, 0, 63, 100
1, 28540, Note_off_c, 0, 63, 100
1, 28540, Note_on_c, 0, 61, 100
1, 28588, Note_off_c, 0, 61, 100
1, 28588, Note_on_c, 0, 63, 100
1, 28636, Note_off_c, 0, 63, 100
1, 28636, Note_on_c, 0, 61, 100
1, 28684, Note_off_c, 0, 61, 100
1, 28684, Note_on_c, 0, 68, 100
1, 28732, Note_off_c, 0, 68, 100
1, 28732, Note_on_c, 0, 66, 100
1, 28780, Note_off_c, 0, 66, 100
1, 28780, Note_on_c, 0, 68, 100
1, 28924, Note_off_c, 0, 68, 100
1, 28924, Note_on_c, 0, 66, 100
1, 29020, Note_off_c, 0, 66, 100
1, 29020, Note_on_c, 0, 63, 100
1, 29068, Note_off_c, 0, 63, 100
1, 29068, Note_on_c, 0, 61, 100
1, 29212, Note_off_c, 0, 61, 100
1, 29212, Note_on_c, 0, 51, 100
1, 29260, Note_off_c, 0, 51, 100
1, 29260, Note_on_c, 0, 49, 100
1, 29452, Note_off_c, 0, 49, 100
1, 29644, Note_on_c, 0, 51, 100
1, 29740, Note_off_c, 0, 51, 100
1, 29740, Note_on_c, 0, 49, 100
1, 29788, Note_off_c, 0, 49, 100
1, 29788, Note_on_c, 0, 54, 100
1, 30172, Note_off_c, 0, 54, 100
1, 30172, Note_on_c, 0, 54, 100
1, 30196, Note_off_c, 0, 54, 100
1, 30196, Note_on_c, 0, 56, 100
1, 30220, Note_off_c, 0, 56, 100
1, 30220, Note_on_c, 0, 58, 100
1, 30244, Note_off_c, 0, 58, 100
1, 30244, Note_on_c, 0, 59, 100
1, 30268, Note_off_c, 0, 59, 100
1, 30268, Note_on_c, 0, 61, 100
1, 30292, Note_off_c, 0, 61, 100
1, 30292, Note_on_c, 0, 63, 100
1, 30316, Note_off_c, 0, 63, 100
1, 30316, Note_on_c, 0, 66, 100
1, 30340, Note_off_c, 0, 66, 100
1, 30340, Note_on_c, 0, 68, 100
1, 30364, Note_off_c, 0, 68, 100
1, 30364, Note_on_c, 0, 70, 100
1, 30556, Note_off_c, 0, 70, 100
1, 30556, Note_on_c, 0, 66, 100
1, 30604, Note_off_c, 0, 66, 100
1, 30604, Note_on_c, 0, 63, 100
1, 30652, Note_off_c, 0, 63, 100
1, 30652, Note_on_c, 0, 61, 100
1, 30940, Note_off_c, 0, 61, 100
1, 30940, Note_on_c, 0, 63, 100
1, 30988, Note_off_c, 0, 63, 100
1, 30988, Note_on_c, 0, 61, 100
1, 31020, Note_off_c, 0, 61, 100
1, 31020, Note_on_c, 0, 63, 100
1, 31148, Note_off_c, 0, 63, 100
1, 31148, Note_on_c, 0, 61, 100
1, 31228, Note_off_c, 0, 61, 100
1, 31228, Note_on_c, 0, 63, 100
1, 31276, Note_off_c, 0, 63, 100
1, 31276, Note_on_c, 0, 61, 100
1, 31324, Note_off_c, 0, 61, 100
1, 31324, Note_on_c, 0, 60, 100
1, 31372, Note_off_c, 0, 60, 100
1, 31372, Note_on_c, 0, 61, 100
1, 31420, Note_off_c, 0, 61, 100
1, 31420, Note_on_c, 0, 66, 100
1, 31564, Note_off_c, 0, 66, 100
1, 31564, Note_on_c, 0, 66, 100
1, 31828, Note_off_c, 0, 66, 100
1, 31828, Note_on_c, 0, 59, 100
1, 31852, Note_off_c, 0, 59, 100
1, 31852, Note_on_c, 0, 62, 100
1, 31876, Note_off_c, 0, 62, 100
1, 31876, Note_on_c, 0, 61, 100
1, 31900, Note_off_c, 0, 61, 100
1, 31900, Note_on_c, 0, 62, 100
1, 31924, Note_off_c, 0, 62, 100
1, 31924, Note_on_c, 0, 66, 100
1, 31948, Note_off_c, 0, 66, 100
1, 31948, Note_on_c, 0, 62, 100
1, 31967, Note_off_c, 0, 62, 100
1, 31967, Note_on_c, 0, 67, 100
1, 31986, Note_off_c, 0, 67, 100
1, 31986, Note_on_c, 0, 69, 100
1, 32005, Note_off_c, 0, 69, 100
1, 32005, Note_on_c, 0, 74, 100
1, 32024, Note_off_c, 0, 74, 100
1, 32024, Note_on_c, 0, 78, 100
1, 32043, Note_off_c, 0, 78, 100
1, 32043, Note_on_c, 0, 76, 100
1, 32119, Note_off_c, 0, 76, 100
1, 32119, Note_on_c, 0, 74, 100
1, 32138, Note_off_c, 0, 74, 100
1, 32138, Note_on_c, 0, 73, 100
1, 32186, Note_off_c, 0, 73, 100
1, 32186, Note_on_c, 0, 71, 100
1, 32234, Note_off_c, 0, 71, 100
1, 32234, Note_on_c, 0, 73, 100
1, 32282, Note_off_c, 0, 73, 100
1, 32282, Note_on_c, 0, 69, 100
1, 32378, Note_off_c, 0, 69, 100
1, 32618, Note_on_c, 0, 66, 100
1, 32666, Note_off_c, 0, 66, 100
1, 32666, Note_on_c, 0, 68, 100
1, 32762, Note_off_c, 0, 68, 100
1, 32762, Note_on_c, 0, 70, 100
1, 32858, Note_off_c, 0, 70, 100
1, 32858, Note_on_c, 0, 72, 100
1, 33098, Note_off_c, 0, 72, 100
1, 33098, Note_on_c, 0, 72, 100
1, 33194, Note_off_c, 0, 72, 100
1, 33194, Note_on_c, 0, 72, 100
1, 33290, Note_off_c, 0, 72, 100
1, 33290, Note_on_c, 0, 72, 100
1, 33482, Note_off_c, 0, 72, 100
1, 33482, Note_on_c, 0, 72, 100
1, 33578, Note_off_c, 0, 72, 100
1, 33578, Note_on_c, 0, 60, 100
1, 33674, Note_off_c, 0, 60, 100
1, 33674, Note_on_c, 0, 69, 100
1, 34058, Note_off_c, 0, 69, 100
1, 34058, Note_on_c, 0, 63, 100
1, 34250, Note_off_c, 0, 63, 100
1, 34250, Note_on_c, 0, 61, 100
1, 34394, Note_off_c, 0, 61, 100
1, 34394, Note_on_c, 0, 66, 100
1, 34970, Note_off_c, 0, 66, 100
1, 35594, Note_on_c, 0, 63, 100
1, 35738, Note_off_c, 0, 63, 100
1, 35738, Note_on_c, 0, 61, 100
1, 35786, Note_off_c, 0, 61, 100
1, 35786, Note_on_c, 0, 63, 100
1, 35901, Note_off_c, 0, 63, 100
1, 35901, Note_on_c, 0, 61, 100
1, 35939, Note_off_c, 0, 61, 100
1, 35939, Note_on_c, 0, 63, 100
1, 36361, Note_off_c, 0, 63, 100
1, 36361, Note_on_c, 0, 68, 100
1, 36649, Note_off_c, 0, 68, 100
1, 36649, Note_on_c, 0, 66, 100
1, 36745, Note_off_c, 0, 66, 100
1, 36745, Note_on_c, 0, 63, 100
1, 36793, Note_off_c, 0, 63, 100
1, 36793, Note_on_c, 0, 61, 100
1, 36889, Note_off_c, 0, 61, 100
1, 36889, Note_on_c, 0, 61, 100
1, 37244, Note_off_c, 0, 61, 100
1, 37244, Note_on_c, 0, 59, 100
1, 37282, Note_off_c, 0, 59, 100
1, 37282, Note_on_c, 0, 61, 100
1, 37320, Note_off_c, 0, 61, 100
1, 37320, Note_on_c, 0, 58, 100
1, 37416, Note_off_c, 0, 58, 100
1, 37416, Note_on_c, 0, 59, 100
1, 37464, Note_off_c, 0, 59, 100
1, 37464, Note_on_c, 0, 63, 100
1, 37896, Note_off_c, 0, 63, 100
1, 37896, Note_on_c, 0, 70, 100
1, 38016, Note_off_c, 0, 70, 100
1, 38016, Note_on_c, 0, 68, 100
1, 38040, Note_off_c, 0, 68, 100
1, 38040, Note_on_c, 0, 67, 100
1, 38064, Note_off_c, 0, 67, 100
1, 38064, Note_on_c, 0, 66, 100
1, 38088, Note_off_c, 0, 66, 100
1, 38088, Note_on_c, 0, 63, 100
1, 38280, Note_off_c, 0, 63, 100
1, 38280, Note_on_c, 0, 61, 100
1, 38664, Note_off_c, 0, 61, 100
1, 38664, Note_on_c, 0, 63, 100
1, 38856, Note_off_c, 0, 63, 100
1, 38856, Note_on_c, 0, 61, 100
1, 39048, Note_off_c, 0, 61, 100
1, 39048, Note_on_c, 0, 66, 100
1, 39360, Note_off_c, 0, 66, 100
1, 39360, Note_on_c, 0, 68, 100
1, 39384, Note_off_c, 0, 68, 100
1, 39384, Note_on_c, 0, 70, 100
1, 39408, Note_off_c, 0, 70, 100
1, 39408, Note_on_c, 0, 71, 100
1, 39432, Note_off_c, 0, 71, 100
1, 39432, Note_on_c, 0, 75, 100
1, 39470, Note_off_c, 0, 75, 100
1, 39470, Note_on_c, 0, 70, 100
1, 39508, Note_off_c, 0, 70, 100
1, 39508, Note_on_c, 0, 75, 100
1, 39546, Note_off_c, 0, 75, 100
1, 39546, Note_on_c, 0, 78, 100
1, 39584, Note_off_c, 0, 78, 100
1, 39584, Note_on_c, 0, 73, 100
1, 39622, Note_off_c, 0, 73, 100
1, 39622, Note_on_c, 0, 75, 100
1, 39670, Note_off_c, 0, 75, 100
1, 39670, Note_on_c, 0, 70, 100
1, 39718, Note_off_c, 0, 70, 100
1, 39718, Note_on_c, 0, 73, 100
1, 39766, Note_off_c, 0, 73, 100
1, 39766, Note_on_c, 0, 68, 100
1, 39814, Note_off_c, 0, 68, 100
1, 39814, Note_on_c, 0, 70, 100
1, 39862, Note_off_c, 0, 70, 100
1, 39862, Note_on_c, 0, 66, 100
1, 39910, Note_off_c, 0, 66, 100
1, 39910, Note_on_c, 0, 68, 100
1, 39958, Note_off_c, 0, 68, 100
1, 39958, Note_on_c, 0, 63, 100
1, 40006, Note_off_c, 0, 63, 100
1, 40006, Note_on_c, 0, 61, 100
1, 40342, Note_off_c, 0, 61, 100
1, 40342, Note_on_c, 0, 58, 100
1, 40390, Note_off_c, 0, 58, 100
1, 40390, Note_on_c, 0, 56, 100
1, 40438, Note_off_c, 0, 56, 100
1, 40438, Note_on_c, 0, 51, 100
1, 40534, Note_off_c, 0, 51, 100
1, 40534, Note_on_c, 0, 49, 100
1, 41024, Note_off_c, 0, 49, 100
1, 41024, End_track
0, 0, End_of_file
