0, 0, Header, 1, 1, 192
1, 0, Start_track
1, 0, Title_t, "Melody"
1, 0, Tempo, 560747
1, 0, Key_signature, 0, "major"
1, 0, Time_signature, 4, 2, 24, 8
1, 216, Note_on_c, 0, 65, 100
1, 240, Note_off_c, 0, 65, 100
1, 240, Note_on_c, 0, 50, 100
1, 264, Note_off_c, 0, 50, 100
1, 264, Note_on_c, 0, 51, 100
1, 312, Note_off_c, 0, 51, 100
1, 312, Note_on_c, 0, 52, 100
1, 336, Note_off_c, 0, 52, 100
1, 336, Note_on_c, 0, 55, 100
1, 360, Note_off_c, 0, 55, 100
1, 360, Note_on_c, 0, 57, 100
1, 384, Note_off_c, 0, 57, 100
1, 384, Note_on_c, 0, 58, 100
1, 422, Note_off_c, 0, 58, 100
1, 422, Note_on_c, 0, 55, 100
1, 460, Note_off_c, 0, 55, 100
1, 460, Note_on_c, 0, 57, 100
1, 498, Note_off_c, 0, 57, 100
1, 498, Note_on_c, 0, 64, 100
1, 536, Note_off_c, 0, 64, 100
1, 536, Note_on_c, 0, 57, 100
1, 574, Note_off_c, 0, 57, 100
1, 574, Note_on_c, 0, 58, 100
1, 622, Note_off_c, 0, 58, 100
1, 622, Note_on_c, 0, 63, 100
1, 670, Note_off_c, 0, 63, 100
1, 670, Note_on_c, 0, 64, 100
1, 718, Note_off_c, 0, 64, 100
1, 718, Note_on_c, 0, 67, 100
1, 766, Note_off_c, 0, 67, 100
1, 766, Note_on_c, 0, 70, 100
1, 814, Note_off_c, 0, 70, 100
1, 814, Note_on_c, 0, 67, 100
1, 862, Note_off_c, 0, 67, 100
1, 862, Note_on_c, 0, 69, 100
1, 958, Note_off_c, 0, 69, 100
1, 958, Note_on_c, 0, 62, 100
1, 1022, Note_off_c, 0, 62, 100
1, 1022, Note_on_c, 0, 67, 100
1, 1086, Note_off_c, 0, 67, 100
1, 1086, Note_on_c, 0, 65, 100
1, 1118, Note_off_c, 0, 65, 100
1, 1118, Note_on_c, 0, 61, 100
1, 1150, Note_off_c, 0, 61, 100
1, 1150, Note_on_c, 0, 58, 100
1, 1246, Note_off_c, 0, 58, 100
1, 1246, Note_on_c, 0, 56, 100
1, 1342, Note_off_c, 0, 56, 100
1, 1342, Note_on_c, 0, 61, 100
1, 1486, Note_off_c, 0, 61, 100
1, 1486, Note_on_c, 0, 57, 100
1, 1598, Note_off_c, 0, 57, 100
1, 1598, Note_on_c, 0, 56, 100
1, 1790, Note_off_c, 0, 56, 100
1, 1790, Note_on_c, 0, 55, 100
1, 1854, Note_off_c, 0, 55, 100
1, 1854, Note_on_c, 0, 53, 100
1, 1918, Note_off_c, 0, 53, 100
1, 1918, Note_on_c, 0, 56, 100
1, 2158, Note_off_c, 0, 56, 100
1, 2158, Note_on_c, 0, 55, 100
1, 2206, Note_off_c, 0, 55, 100
1, 2206, Note_on_c, 0, 56, 100
1, 2254, Note_off_c, 0, 56, 100
1, 2254, Note_on_c, 0, 58, 100
1, 2302, Note_off_c, 0, 58, 100
1, 2302, Note_on_c, 0, 59, 100
1, 2350, Note_off_c, 0, 59, 100
1, 2350, Note_on_c, 0, 62, 100
1, 2398, Note_off_c, 0, 62, 100
1, 2398, Note_on_c, 0, 65, 100
1, 2446, Note_off_c, 0, 65, 100
1, 2446, Note_on_c, 0, 68, 100
1, 2494, Note_off_c, 0, 68, 100
1, 2494, Note_on_c, 0, 66, 100
1, 2542, Note_off_c, 0, 66, 100
1, 2542, Note_on_c, 0, 67, 100
1, 2590, Note_off_c, 0, 67, 100
1, 2590, Note_on_c, 0, 61, 100
1, 2686, Note_off_c, 0, 61, 100
1, 2686, Note_on_c, 0, 63, 100
1, 2734, Note_off_c, 0, 63, 100
1, 2734, Note_on_c, 0, 66, 100
1, 2782, Note_off_c, 0, 66, 100
1, 2782, Note_on_c, 0, 63, 100
1, 2830, Note_off_c, 0, 63, 100
1, 2830, Note_on_c, 0, 64, 100
1, 2926, Note_off_c, 0, 64, 100
1, 2926, Note_on_c, 0, 62, 100
1, 2974, Note_off_c, 0, 62, 100
1, 2974, Note_on_c, 0, 60, 100
1, 3022, Note_off_c, 0, 60, 100
1, 3022, Note_on_c, 0, 56, 100
1, 3070, Note_off_c, 0, 56, 100
1, 3070, Note_on_c, 0, 55, 100
1, 3134, Note_off_c, 0, 55, 100
1, 3134, Note_on_c, 0, 53, 100
1, 3198, Note_off_c, 0, 53, 100
1, 3198, Note_on_c, 0, 48, 100
1, 3326, Note_off_c, 0, 48, 100
1, 3326, Note_on_c, 0, 52, 100
1, 3422, Note_off_c, 0, 52, 100
1, 3934, Note_on_c, 0, 59, 100
1, 4030, Note_off_c, 0, 59, 100
1, 4030, Note_on_c, 0, 57, 100
1, 4094, Note_off_c, 0, 57, 100
1, 4094, Note_on_c, 0, 53, 100
1, 4158, Note_off_c, 0, 53, 100
1, 4158, Note_on_c, 0, 52, 100
1, 4270, Note_off_c, 0, 52, 100
1, 4270, Note_on_c, 0, 55, 100
1, 4318, Note_off_c, 0, 55, 100
1, 4318, Note_on_c, 0, 53, 100
1, 4366, Note_off_c, 0, 53, 100
1, 4366, Note_on_c, 0, 52, 100
1, 4414, Note_off_c, 0, 52, 100
1, 4414, Note_on_c, 0, 50, 100
1, 4510, Note_off_c, 0, 50, 100
1, 4894, Note_on_c, 0, 62, 100
1, 4990, Note_off_c, 0, 62, 100
1, 4990, Note_on_c, 0, 62, 100
1, 5086, Note_off_c, 0, 62, 100
1, 5086, Note_on_c, 0, 64, 100
1, 5182, Note_off_c, 0, 64, 100
1, 5182, Note_on_c, 0, 60, 100
1, 5230, Note_off_c, 0, 60, 100
1, 5230, Note_on_c, 0, 60, 100
1, 5326, Note_off_c, 0, 60, 100
1, 5326, Note_on_c, 0, 62, 100
1, 5438, Note_off_c, 0, 62, 100
1, 5438, Note_on_c, 0, 60, 100
1, 5502, Note_off_c, 0, 60, 100
1, 5502, Note_on_c, 0, 62, 100
1, 5614, Note_off_c, 0, 62, 100
1, 5614, Note_on_c, 0, 59, 100
1, 5758, Note_off_c, 0, 59, 100
1, 5758, Note_on_c, 0, 59, 100
1, 5854, Note_off_c, 0, 59, 100
1, 5854, Note_on_c, 0, 58, 100
1, 5950, Note_off_c, 0, 58, 100
1, 5950, Note_on_c, 0, 56, 100
1, 6142, Note_off_c, 0, 56, 100
1, 6142, Note_on_c, 0, 56, 100
1, 6190, Note_off_c, 0, 56, 100
1, 6190, Note_on_c, 0, 58, 100
1, 6286, Note_off_c, 0, 58, 100
1, 6286, Note_on_c, 0, 58, 100
1, 6430, Note_off_c, 0, 58, 100
1, 6430, Note_on_c, 0, 55, 100
1, 6526, Note_off_c, 0, 55, 100
1, 6814, Note_on_c, 0, 57, 100
1, 6910, Note_off_c, 0, 57, 100
1, 6910, Note_on_c, 0, 52, 100
1, 7006, Note_off_c, 0, 52, 100
1, 7006, Note_on_c, 0, 55, 100
1, 7102, Note_off_c, 0, 55, 100
1, 7102, Note_on_c, 0, 53, 100
1, 7198, Note_off_c, 0, 53, 100
1, 7198, Note_on_c, 0, 53, 100
1, 7294, Note_off_c, 0, 53, 100
1, 7294, Note_on_c, 0, 55, 100
1, 7390, Note_off_c, 0, 55, 100
1, 7390, Note_on_c, 0, 56, 100
1, 7582, Note_off_c, 0, 56, 100
1, 7582, Note_on_c, 0, 58, 100
1, 7630, Note_off_c, 0, 58, 100
1, 7630, Note_on_c, 0, 59, 100
1, 7678, Note_off_c, 0, 59, 100
1, 7678, Note_on_c, 0, 62, 100
1, 7774, Note_off_c, 0, 62, 100
1, 7774, Note_on_c, 0, 64, 100
1, 7870, Note_off_c, 0, 64, 100
1, 7870, Note_on_c, 0, 64, 100
1, 7966, Note_off_c, 0, 64, 100
1, 8350, Note_on_c, 0, 65, 100
1, 8382, Note_off_c, 0, 65, 100
1, 8382, Note_on_c, 0, 64, 100
1, 8414, Note_off_c, 0, 64, 100
1, 8414, Note_on_c, 0, 62, 100
1, 8446, Note_off_c, 0, 62, 100
1, 8446, Note_on_c, 0, 61, 100
1, 8494, Note_off_c, 0, 61, 100
1, 8494, Note_on_c, 0, 58, 100
1, 8542, Note_off_c, 0, 58, 100
1, 8542, Note_on_c, 0, 57, 100
1, 8590, Note_off_c, 0, 57, 100
1, 8590, Note_on_c, 0, 56, 100
1, 8638, Note_off_c, 0, 56, 100
1, 8638, Note_on_c, 0, 58, 100
1, 8676, Note_off_c, 0, 58, 100
1, 8676, Note_on_c, 0, 62, 100
1, 8714, Note_off_c, 0, 62, 100
1, 8714, Note_on_c, 0, 60, 100
1, 8752, Note_off_c, 0, 60, 100
1, 8752, Note_on_c, 0, 56, 100
1, 8790, Note_off_c, 0, 56, 100
1, 8790, Note_on_c, 0, 53, 100
1, 8876, Note_off_c, 0, 53, 100
1, 8876, Note_on_c, 0, 58, 100
1, 8924, Note_off_c, 0, 58, 100
1, 8924, Note_on_c, 0, 56, 100
1, 9116, Note_off_c, 0, 56, 100
1, 9116, Note_on_c, 0, 55, 100
1, 9212, Note_off_c, 0, 55, 100
1, 9212, Note_on_c, 0, 50, 100
1, 9260, Note_off_c, 0, 50, 100
1, 9260, Note_on_c, 0, 53, 100
1, 9356, Note_off_c, 0, 53, 100
1, 9356, Note_on_c, 0, 52, 100
1, 9468, Note_off_c, 0, 52, 100
1, 9468, Note_on_c, 0, 55, 100
1, 9532, Note_off_c, 0, 55, 100
1, 9532, Note_on_c, 0, 55, 100
1, 9596, Note_off_c, 0, 55, 100
1, 9596, Note_on_c, 0, 52, 100
1, 9692, Note_off_c, 0, 52, 100
1, 9692, Note_on_c, 0, 50, 100
1, 9740, Note_off_c, 0, 50, 100
1, 9740, Note_on_c, 0, 48, 100
1, 9852, Note_off_c, 0, 48, 100
1, 9852, Note_on_c, 0, 52, 100
1, 9980, Note_off_c, 0, 52, 100
1, 9980, Note_on_c, 0, 48, 100
1, 10076, Note_off_c, 0, 48, 100
1, 10076, Note_on_c, 0, 45, 100
1, 10268, Note_off_c, 0, 45, 100
1, 10892, Note_on_c, 0, 48, 100
1, 10940, Note_off_c, 0, 48, 100
1, 10940, Note_on_c, 0, 50, 100
1, 10988, Note_off_c, 0, 50, 100
1, 10988, Note_on_c, 0, 53, 100
1, 11036, Note_off_c, 0, 53, 100
1, 11036, Note_on_c, 0, 56, 100
1, 11170, Note_off_c, 0, 56, 100
1, 11170, Note_on_c, 0, 58, 100
1, 11208, Note_off_c, 0, 58, 100
1, 11208, Note_on_c, 0, 55, 100
1, 11246, Note_off_c, 0, 55, 100
1, 11246, Note_on_c, 0, 56, 100
1, 11284, Note_off_c, 0, 56, 100
1, 11284, Note_on_c, 0, 58, 100
1, 11360, Note_off_c, 0, 58, 100
1, 11360, Note_on_c, 0, 58, 100
1, 11398, Note_off_c, 0, 58, 100
1, 11398, Note_on_c, 0, 60, 100
1, 11436, Note_off_c, 0, 60, 100
1, 11436, Note_on_c, 0, 61, 100
1, 11474, Note_off_c, 0, 61, 100
1, 11474, Note_on_c, 0, 63, 100
1, 11512, Note_off_c, 0, 63, 100
1, 11512, Note_on_c, 0, 64, 100
1, 11560, Note_off_c, 0, 64, 100
1, 11560, Note_on_c, 0, 65, 100
1, 11608, Note_off_c, 0, 65, 100
1, 11608, Note_on_c, 0, 66, 100
1, 11656, Note_off_c, 0, 66, 100
1, 11656, Note_on_c, 0, 67, 100
1, 11704, Note_off_c, 0, 67, 100
1, 11704, Note_on_c, 0, 64, 100
1, 11752, Note_off_c, 0, 64, 100
1, 11752, Note_on_c, 0, 60, 100
1, 11800, Note_off_c, 0, 60, 100
1, 11800, Note_on_c, 0, 55, 100
1, 11848, Note_off_c, 0, 55, 100
1, 11848, Note_on_c, 0, 59, 100
1, 11896, Note_off_c, 0, 59, 100
1, 11896, Note_on_c, 0, 57, 100
1, 11944, Note_off_c, 0, 57, 100
1, 11944, Note_on_c, 0, 58, 100
1, 11992, Note_off_c, 0, 58, 100
1, 11992, Note_on_c, 0, 56, 100
1, 12088, Note_off_c, 0, 56, 100
1, 12088, Note_on_c, 0, 52, 100
1, 12136, Note_off_c, 0, 52, 100
1, 12136, Note_on_c, 0, 51, 100
1, 12184, Note_off_c, 0, 51, 100
1, 12184, Note_on_c, 0, 53, 100
1, 12280, Note_off_c, 0, 53, 100
1, 12280, Note_on_c, 0, 53, 100
1, 12407, Note_off_c, 0, 53, 100
1, 12407, Note_on_c, 0, 52, 100
1, 12471, Note_off_c, 0, 52, 100
1, 12471, Note_on_c, 0, 55, 100
1, 12759, Note_off_c, 0, 55, 100
1, 12759, Note_on_c, 0, 57, 100
1, 12807, Note_off_c, 0, 57, 100
1, 12807, Note_on_c, 0, 58, 100
1, 12855, Note_off_c, 0, 58, 100
1, 12855, Note_on_c, 0, 62, 100
1, 12999, Note_off_c, 0, 62, 100
1, 12999, Note_on_c, 0, 60, 100
1, 13143, Note_off_c, 0, 60, 100
1, 13143, Note_on_c, 0, 57, 100
1, 13495, Note_off_c, 0, 57, 100
1, 13495, Note_on_c, 0, 55, 100
1, 13558, Note_off_c, 0, 55, 100
1, 13558, Note_on_c, 0, 53, 100
1, 13878, Note_off_c, 0, 53, 100
1, 13878, Note_on_c, 0, 52, 100
1, 13941, Note_off_c, 0, 52, 100
1, 13941, Note_on_c, 0, 48, 100
1, 14037, Note_off_c, 0, 48, 100
1, 14437, Note_on_c, 0, 48, 100
1, 14485, Note_off_c, 0, 48, 100
1, 14485, Note_on_c, 0, 47, 100
1, 14533, Note_off_c, 0, 47, 100
1, 14533, Note_on_c, 0, 46, 100
1, 14581, Note_off_c, 0, 46, 100
1, 14581, Note_on_c, 0, 48, 100
1, 14677, Note_off_c, 0, 48, 100
1, 14677, Note_on_c, 0, 45, 100
1, 14869, Note_off_c, 0, 45, 100
1, 15157, Note_on_c, 0, 69, 100
1, 15301, Note_off_c, 0, 69, 100
1, 15301, Note_on_c, 0, 69, 100
1, 15397, Note_off_c, 0, 69, 100
1, 15397, Note_on_c, 0, 66, 100
1, 15445, Note_off_c, 0, 66, 100
1, 15445, Note_on_c, 0, 63, 100
1, 15493, Note_off_c, 0, 63, 100
1, 15493, Note_on_c, 0, 57, 100
1, 15541, Note_off_c, 0, 57, 100
1, 15541, Note_on_c, 0, 61, 100
1, 15637, Note_off_c, 0, 61, 100
1, 15637, Note_on_c, 0, 57, 100
1, 15733, Note_off_c, 0, 57, 100
1, 15733, Note_on_c, 0, 59, 100
1, 15781, Note_off_c, 0, 59, 100
1, 15781, Note_on_c, 0, 58, 100
1, 15829, Note_off_c, 0, 58, 100
1, 15829, Note_on_c, 0, 54, 100
1, 15877, Note_off_c, 0, 54, 100
1, 15877, Note_on_c, 0, 52, 100
1, 16021, Note_off_c, 0, 52, 100
1, 16021, Note_on_c, 0, 53, 100
1, 16165, Note_off_c, 0, 53, 100
1, 16165, Note_on_c, 0, 49, 100
1, 16261, Note_off_c, 0, 49, 100
1, 16261, Note_on_c, 0, 47, 100
1, 16357, Note_off_c, 0, 47, 100
1, 16769, Note_on_c, 0, 50, 100
1, 16807, Note_off_c, 0, 50, 100
1, 16807, Note_on_c, 0, 52, 100
1, 16845, Note_off_c, 0, 52, 100
1, 16845, Note_on_c, 0, 54, 100
1, 16883, Note_off_c, 0, 54, 100
1, 16883, Note_on_c, 0, 57, 100
1, 16947, Note_off_c, 0, 57, 100
1, 16947, Note_on_c, 0, 54, 100
1, 17011, Note_off_c, 0, 54, 100
1, 17011, Note_on_c, 0, 61, 100
1, 17171, Note_off_c, 0, 61, 100
1, 17171, Note_on_c, 0, 61, 100
1, 17219, Note_off_c, 0, 61, 100
1, 17219, Note_on_c, 0, 62, 100
1, 17267, Note_off_c, 0, 62, 100
1, 17267, Note_on_c, 0, 64, 100
1, 17305, Note_off_c, 0, 64, 100
1, 17305, Note_on_c, 0, 66, 100
1, 17343, Note_off_c, 0, 66, 100
1, 17343, Note_on_c, 0, 69, 100
1, 17381, Note_off_c, 0, 69, 100
1, 17381, Note_on_c, 0, 71, 100
1, 17419, Note_off_c, 0, 71, 100
1, 17419, Note_on_c, 0, 73, 100
1, 17803, Note_off_c, 0, 73, 100
1, 18081, Note_on_c, 0, 69, 100
1, 18129, Note_off_c, 0, 69, 100
1, 18129, Note_on_c, 0, 72, 100
1, 18177, Note_off_c, 0, 72, 100
1, 18177, Note_on_c, 0, 73, 100
1, 18225, Note_off_c, 0, 73, 100
1, 18225, Note_on_c, 0, 72, 100
1, 18273, Note_off_c, 0, 72, 100
1, 18273, Note_on_c, 0, 72, 100
1, 18321, Note_off_c, 0, 72, 100
1, 18321, Note_on_c, 0, 73, 100
1, 18369, Note_off_c, 0, 73, 100
1, 18369, Note_on_c, 0, 72, 100
1, 18417, Note_off_c, 0, 72, 100
1, 18417, Note_on_c, 0, 69, 100
1, 18513, Note_off_c, 0, 69, 100
1, 18513, Note_on_c, 0, 69, 100
1, 18561, Note_off_c, 0, 69, 100
1, 18561, Note_on_c, 0, 68, 100
1, 18633, Note_off_c, 0, 68, 100
1, 18633, Note_on_c, 0, 69, 100
1, 18753, Note_off_c, 0, 69, 100
1, 18753, Note_on_c, 0, 68, 100
1, 18777, Note_off_c, 0, 68, 100
1, 18777, Note_on_c, 0, 69, 100
1, 18849, Note_off_c, 0, 69, 100
1, 18849, Note_on_c, 0, 68, 100
1, 18897, Note_off_c, 0, 68, 100
1, 18897, Note_on_c, 0, 69, 100
1, 18993, Note_off_c, 0, 69, 100
1, 18993, Note_on_c, 0, 67, 100
1, 19089, Note_off_c, 0, 67, 100
1, 19089, Note_on_c, 0, 67, 100
1, 19233, Note_off_c, 0, 67, 100
1, 19233, Note_on_c, 0, 67, 100
1, 19329, Note_off_c, 0, 67, 100
1, 19329, Note_on_c, 0, 65, 100
1, 19425, Note_off_c, 0, 65, 100
1, 19713, Note_on_c, 0, 64, 100
1, 19761, Note_off_c, 0, 64, 100
1, 19761, Note_on_c, 0, 62, 100
1, 19825, Note_off_c, 0, 62, 100
1, 19825, Note_on_c, 0, 60, 100
1, 19889, Note_off_c, 0, 60, 100
1, 19889, Note_on_c, 0, 59, 100
1, 19953, Note_off_c, 0, 59, 100
1, 19953, Note_on_c, 0, 64, 100
1, 20145, Note_off_c, 0, 64, 100
1, 20529, Note_on_c, 0, 65, 100
1, 20577, Note_off_c, 0, 65, 100
1, 20577, Note_on_c, 0, 64, 100
1, 20625, Note_off_c, 0, 64, 100
1, 20625, Note_on_c, 0, 63, 100
1, 20673, Note_off_c, 0, 63, 100
1, 20673, Note_on_c, 0, 65, 100
1, 20721, Note_off_c, 0, 65, 100
1, 20721, Note_on_c, 0, 66, 100
1, 20769, Note_off_c, 0, 66, 100
1, 20769, Note_on_c, 0, 70, 100
1, 20817, Note_off_c, 0, 70, 100
1, 20817, Note_on_c, 0, 69, 100
1, 20865, Note_off_c, 0, 69, 100
1, 20865, Note_on_c, 0, 65, 100
1, 20913, Note_off_c, 0, 65, 100
1, 20913, Note_on_c, 0, 61, 100
1, 20977, Note_off_c, 0, 61, 100
1, 20977, Note_on_c, 0, 68, 100
1, 21041, Note_off_c, 0, 68, 100
1, 21041, Note_on_c, 0, 65, 100
1, 21153, Note_off_c, 0, 65, 100
1, 21153, Note_on_c, 0, 63, 100
1, 21201, Note_off_c, 0, 63, 100
1, 21201, Note_on_c, 0, 66, 100
1, 21297, Note_off_c, 0, 66, 100
1, 21297, Note_on_c, 0, 65, 100
1, 21393, Note_off_c, 0, 65, 100
1, 21393, Note_on_c, 0, 63, 100
1, 21441, Note_off_c, 0, 63, 100
1, 21441, Note_on_c, 0, 62, 100
1, 21489, Note_off_c, 0, 62, 100
1, 21489, Note_on_c, 0, 60, 100
1, 21537, Note_off_c, 0, 60, 100
1, 21537, Note_on_c, 0, 59, 100
1, 21585, Note_off_c, 0, 59, 100
1, 21585, Note_on_c, 0, 56, 100
1, 21633, Note_off_c, 0, 56, 100
1, 21633, Note_on_c, 0, 55, 100
1, 21681, Note_off_c, 0, 55, 100
1, 21681, Note_on_c, 0, 54, 100
1, 21729, Note_off_c, 0, 54, 100
1, 21729, Note_on_c, 0, 52, 100
1, 21873, Note_off_c, 0, 52, 100
1, 21873, Note_on_c, 0, 55, 100
1, 21921, Note_off_c, 0, 55, 100
1, 21921, Note_on_c, 0, 59, 100
1, 22065, Note_off_c, 0, 59, 100
1, 22065, Note_on_c, 0, 57, 100
1, 22161, Note_off_c, 0, 57, 100
1, 22161, Note_on_c, 0, 52, 100
1, 22257, Note_off_c, 0, 52, 100
1, 22257, Note_on_c, 0, 55, 100
1, 22353, Note_off_c, 0, 55, 100
1, 22353, Note_on_c, 0, 53, 100
1, 22449, Note_off_c, 0, 53, 100
1, 22785, Note_on_c, 0, 56, 100
1, 22833, Note_off_c, 0, 56, 100
1, 22833, Note_on_c, 0, 60, 100
1, 22881, Note_off_c, 0, 60, 100
1, 22881, Note_on_c, 0, 57, 100
1, 22929, Note_off_c, 0, 57, 100
1, 22929, Note_on_c, 0, 58, 100
1, 22977, Note_off_c, 0, 58, 100
1, 22977, Note_on_c, 0, 59, 100
1, 23025, Note_off_c, 0, 59, 100
1, 23025, Note_on_c, 0, 61, 100
1, 23079, Note_off_c, 0, 61, 100
1, 23079, Note_on_c, 0, 62, 100
1, 23106, Note_off_c, 0, 62, 100
1, 23106, Note_on_c, 0, 64, 100
1, 23133, Note_off_c, 0, 64, 100
1, 23133, Note_on_c, 0, 66, 100
1, 23160, Note_off_c, 0, 66, 100
1, 23160, Note_on_c, 0, 69, 100
1, 23187, Note_off_c, 0, 69, 100
1, 23187, Note_on_c, 0, 73, 100
1, 23214, Note_off_c, 0, 73, 100
1, 23214, Note_on_c, 0, 74, 100
1, 23252, Note_off_c, 0, 74, 100
1, 23252, Note_on_c, 0, 73, 100
1, 23290, Note_off_c, 0, 73, 100
1, 23290, Note_on_c, 0, 71, 100
1, 23328, Note_off_c, 0, 71, 100
1, 23328, Note_on_c, 0, 69, 100
1, 23366, Note_off_c, 0, 69, 100
1, 23366, Note_on_c, 0, 68, 100
1, 23442, Note_off_c, 0, 68, 100
1, 23442, Note_on_c, 0, 66, 100
1, 23480, Note_off_c, 0, 66, 100
1, 23480, Note_on_c, 0, 64, 100
1, 23556, Note_off_c, 0, 64, 100
1, 23556, Note_on_c, 0, 63, 100
1, 23594, Note_off_c, 0, 63, 100
1, 23594, Note_on_c, 0, 68, 100
1, 23642, Note_off_c, 0, 68, 100
1, 23642, Note_on_c, 0, 67, 100
1, 23690, Note_off_c, 0, 67, 100
1, 23690, Note_on_c, 0, 62, 100
1, 23738, Note_off_c, 0, 62, 100
1, 23738, Note_on_c, 0, 64, 100
1, 23786, Note_off_c, 0, 64, 100
1, 23786, Note_on_c, 0, 67, 100
1, 23834, Note_off_c, 0, 67, 100
1, 23834, Note_on_c, 0, 64, 100
1, 23882, Note_off_c, 0, 64, 100
1, 23882, Note_on_c, 0, 60, 100
1, 23930, Note_off_c, 0, 60, 100
1, 23930, Note_on_c, 0, 59, 100
1, 24026, Note_off_c, 0, 59, 100
1, 24026, Note_on_c, 0, 57, 100
1, 24122, Note_off_c, 0, 57, 100
1, 24122, Note_on_c, 0, 59, 100
1, 24170, Note_off_c, 0, 59, 100
1, 24170, Note_on_c, 0, 63, 100
1, 24266, Note_off_c, 0, 63, 100
1, 24266, Note_on_c, 0, 67, 100
1, 24314, Note_off_c, 0, 67, 100
1, 24314, Note_on_c, 0, 70, 100
1, 24458, Note_off_c, 0, 70, 100
1, 24458, Note_on_c, 0, 68, 100
1, 24506, Note_off_c, 0, 68, 100
1, 24506, Note_on_c, 0, 65, 100
1, 24554, Note_off_c, 0, 65, 100
1, 24554, Note_on_c, 0, 62, 100
1, 24617, Note_off_c, 0, 62, 100
1, 24617, Note_on_c, 0, 59, 100
1, 24681, Note_off_c, 0, 59, 100
1, 24681, Note_on_c, 0, 55, 100
1, 24744, Note_off_c, 0, 55, 100
1, 24744, Note_on_c, 0, 59, 100
1, 24792, Note_off_c, 0, 59, 100
1, 24792, Note_on_c, 0, 55, 100
1, 24984, Note_off_c, 0, 55, 100
1, 24984, Note_on_c, 0, 53, 100
1, 25032, Note_off_c, 0, 53, 100
1, 25032, Note_on_c, 0, 52, 100
1, 25128, Note_off_c, 0, 52, 100
1, 25435, Note_on_c, 0, 53, 100
1, 25473, Note_off_c, 0, 53, 100
1, 25473, Note_on_c, 0, 52, 100
1, 25511, Note_off_c, 0, 52, 100
1, 25511, Note_on_c, 0, 50, 100
1, 25639, Note_off_c, 0, 50, 100
1, 25639, Note_on_c, 0, 52, 100
1, 25670, Note_off_c, 0, 52, 100
1, 25670, Note_on_c, 0, 53, 100
1, 25702, Note_off_c, 0, 53, 100
1, 25702, Note_on_c, 0, 55, 100
1, 25750, Note_off_c, 0, 55, 100
1, 25750, Note_on_c, 0, 56, 100
1, 25798, Note_off_c, 0, 56, 100
1, 25798, Note_on_c, 0, 58, 100
1, 25942, Note_off_c, 0, 58, 100
1, 25942, Note_on_c, 0, 56, 100
1, 25990, Note_off_c, 0, 56, 100
1, 25990, Note_on_c, 0, 55, 100
1, 26038, Note_off_c, 0, 55, 100
1, 26038, Note_on_c, 0, 53, 100
1, 26086, Note_off_c, 0, 53, 100
1, 26086, Note_on_c, 0, 52, 100
1, 26230, Note_off_c, 0, 52, 100
1, 26230, Note_on_c, 0, 59, 100
1, 26310, Note_off_c, 0, 59, 100
1, 26310, Note_on_c, 0, 62, 100
1, 26373, Note_off_c, 0, 62, 100
1, 26373, Note_on_c, 0, 59, 100
1, 26405, Note_off_c, 0, 59, 100
1, 26405, Note_on_c, 0, 60, 100
1, 26436, Note_off_c, 0, 60, 100
1, 26436, Note_on_c, 0, 62, 100
1, 26506, Note_off_c, 0, 62, 100
1, 26506, Note_on_c, 0, 65, 100
1, 26544, Note_off_c, 0, 65, 100
1, 26544, Note_on_c, 0, 64, 100
1, 26582, Note_off_c, 0, 64, 100
1, 26582, Note_on_c, 0, 63, 100
1, 26620, Note_off_c, 0, 63, 100
1, 26620, Note_on_c, 0, 60, 100
1, 26658, Note_off_c, 0, 60, 100
1, 26658, Note_on_c, 0, 58, 100
1, 26754, Note_off_c, 0, 58, 100
1, 26754, Note_on_c, 0, 56, 100
1, 26850, Note_off_c, 0, 56, 100
1, 26850, Note_on_c, 0, 54, 100
1, 26946, Note_off_c, 0, 54, 100
1, 26946, Note_on_c, 0, 55, 100
1, 27042, Note_off_c, 0, 55, 100
1, 27282, Note_on_c, 0, 53, 100
1, 27330, Note_off_c, 0, 53, 100
1, 27330, Note_on_c, 0, 52, 100
1, 27426, Note_off_c, 0, 52, 100
1, 27426, Note_on_c, 0, 55, 100
1, 27570, Note_off_c, 0, 55, 100
1, 27570, Note_on_c, 0, 52, 100
1, 27618, Note_off_c, 0, 52, 100
1, 27618, Note_on_c, 0, 50, 100
1, 27714, Note_off_c, 0, 50, 100
1, 27714, Note_on_c, 0, 48, 100
1, 27810, Note_off_c, 0, 48, 100
1, 28462, Note_on_c, 0, 74, 100
1, 28500, Note_off_c, 0, 74, 100
1, 28500, Note_on_c, 0, 72, 100
1, 28538, Note_off_c, 0, 72, 100
1, 28538, Note_on_c, 0, 71, 100
1, 28614, Note_off_c, 0, 71, 100
1, 28614, Note_on_c, 0, 72, 100
1, 28652, Note_off_c, 0, 72, 100
1, 28652, Note_on_c, 0, 71, 100
1, 28690, Note_off_c, 0, 71, 100
1, 28690, Note_on_c, 0, 70, 100
1, 28728, Note_off_c, 0, 70, 100
1, 28728, Note_on_c, 0, 69, 100
1, 28804, Note_off_c, 0, 69, 100
1, 28804, Note_on_c, 0, 71, 100
1, 28842, Note_off_c, 0, 71, 100
1, 28842, Note_on_c, 0, 69, 100
1, 28880, Note_off_c, 0, 69, 100
1, 28880, Note_on_c, 0, 68, 100
1, 28918, Note_off_c, 0, 68, 100
1, 28918, Note_on_c, 0, 67, 100
1, 28956, Note_off_c, 0, 67, 100
1, 28956, Note_on_c, 0, 69, 100
1, 29052, Note_off_c, 0, 69, 100
1, 29340, Note_on_c, 0, 68, 100
1, 29378, Note_off_c, 0, 68, 100
1, 29378, Note_on_c, 0, 67, 100
1, 29416, Note_off_c, 0, 67, 100
1, 29416, Note_on_c, 0, 66, 100
1, 29454, Note_off_c, 0, 66, 100
1, 29454, Note_on_c, 0, 65, 100
1, 29492, Note_off_c, 0, 65, 100
1, 29492, Note_on_c, 0, 66, 100
1, 29530, Note_off_c, 0, 66, 100
1, 29530, Note_on_c, 0, 67, 100
1, 29606, Note_off_c, 0, 67, 100
1, 29606, Note_on_c, 0, 65, 100
1, 29644, Note_off_c, 0, 65, 100
1, 29644, Note_on_c, 0, 64, 100
1, 29682, Note_off_c, 0, 64, 100
1, 29682, Note_on_c, 0, 63, 100
1, 29720, Note_off_c, 0, 63, 100
1, 29720, Note_on_c, 0, 66, 100
1, 29960, Note_off_c, 0, 66, 100
1, 29960, Note_on_c, 0, 65, 100
1, 30008, Note_off_c, 0, 65, 100
1, 30008, Note_on_c, 0, 64, 100
1, 30168, Note_off_c, 0, 64, 100
1, 30168, Note_on_c, 0, 64, 100
1, 30264, Note_off_c, 0, 64, 100
1, 30536, Note_on_c, 0, 63, 100
1, 30632, Note_off_c, 0, 63, 100
1, 30632, Note_on_c, 0, 59, 100
1, 30680, Note_off_c, 0, 59, 100
1, 30680, Note_on_c, 0, 62, 100
1, 30936, Note_off_c, 0, 62, 100
1, 30936, Note_on_c, 0, 62, 100
1, 31000, Note_off_c, 0, 62, 100
1, 31000, Note_on_c, 0, 59, 100
1, 31096, Note_off_c, 0, 59, 100
1, 31544, Note_on_c, 0, 59, 100
1, 31640, Note_off_c, 0, 59, 100
1, 31640, Note_on_c, 0, 57, 100
1, 31736, Note_off_c, 0, 57, 100
1, 31736, Note_on_c, 0, 53, 100
1, 31784, Note_off_c, 0, 53, 100
1, 31784, Note_on_c, 0, 52, 100
1, 31880, Note_off_c, 0, 52, 100
1, 31880, Note_on_c, 0, 55, 100
1, 31928, Note_off_c, 0, 55, 100
1, 31928, Note_on_c, 0, 54, 100
1, 31976, Note_off_c, 0, 54, 100
1, 31976, Note_on_c, 0, 53, 100
1, 32062, Note_off_c, 0, 53, 100
1, 32062, Note_on_c, 0, 52, 100
1, 32100, Note_off_c, 0, 52, 100
1, 32100, Note_on_c, 0, 53, 100
1, 32138, Note_off_c, 0, 53, 100
1, 32138, Note_on_c, 0, 55, 100
1, 32176, Note_off_c, 0, 55, 100
1, 32176, Note_on_c, 0, 57, 100
1, 32214, Note_off_c, 0, 57, 100
1, 32214, Note_on_c, 0, 62, 100
1, 32262, Note_off_c, 0, 62, 100
1, 32262, Note_on_c, 0, 65, 100
1, 32310, Note_off_c, 0, 65, 100
1, 32310, Note_on_c, 0, 64, 100
1, 32358, Note_off_c, 0, 64, 100
1, 32358, Note_on_c, 0, 63, 100
1, 32406, Note_off_c, 0, 63, 100
1, 32406, Note_on_c, 0, 62, 100
1, 32454, Note_off_c, 0, 62, 100
1, 32454, Note_on_c, 0, 61, 100
1, 32502, Note_off_c, 0, 61, 100
1, 32502, Note_on_c, 0, 59, 100
1, 32550, Note_off_c, 0, 59, 100
1, 32550, Note_on_c, 0, 58, 100
1, 32598, Note_off_c, 0, 58, 100
1, 32598, Note_on_c, 0, 56, 100
1, 32646, Note_off_c, 0, 56, 100
1, 32646, Note_on_c, 0, 55, 100
1, 32694, Note_off_c, 0, 55, 100
1, 32694, Note_on_c, 0, 58, 100
1, 32742, Note_off_c, 0, 58, 100
1, 32742, Note_on_c, 0, 54, 100
1, 32854, Note_off_c, 0, 54, 100
1, 32854, Note_on_c, 0, 53, 100
1, 32950, Note_off_c, 0, 53, 100
1, 33318, Note_on_c, 0, 57, 100
1, 33366, Note_off_c, 0, 57, 100
1, 33366, Note_on_c, 0, 55, 100
1, 33398, Note_off_c, 0, 55, 100
1, 33398, Note_on_c, 0, 54, 100
1, 33430, Note_off_c, 0, 54, 100
1, 33430, Note_on_c, 0, 52, 100
1, 33462, Note_off_c, 0, 52, 100
1, 33462, Note_on_c, 0, 55, 100
1, 33494, Note_off_c, 0, 55, 100
1, 33494, Note_on_c, 0, 58, 100
1, 33526, Note_off_c, 0, 58, 100
1, 33526, Note_on_c, 0, 62, 100
1, 33558, Note_off_c, 0, 62, 100
1, 33558, Note_on_c, 0, 59, 100
1, 33596, Note_off_c, 0, 59, 100
1, 33596, Note_on_c, 0, 57, 100
1, 33634, Note_off_c, 0, 57, 100
1, 33634, Note_on_c, 0, 56, 100
1, 33672, Note_off_c, 0, 56, 100
1, 33672, Note_on_c, 0, 58, 100
1, 33710, Note_off_c, 0, 58, 100
1, 33710, Note_on_c, 0, 60, 100
1, 33748, Note_off_c, 0, 60, 100
1, 33748, Note_on_c, 0, 59, 100
1, 33786, Note_off_c, 0, 59, 100
1, 33786, Note_on_c, 0, 60, 100
1, 33805, Note_off_c, 0, 60, 100
1, 33805, Note_on_c, 0, 62, 100
1, 33824, Note_off_c, 0, 62, 100
1, 33824, Note_on_c, 0, 64, 100
1, 33843, Note_off_c, 0, 64, 100
1, 33843, Note_on_c, 0, 62, 100
1, 33862, Note_off_c, 0, 62, 100
1, 33862, Note_on_c, 0, 60, 100
1, 33881, Note_off_c, 0, 60, 100
1, 33881, Note_on_c, 0, 59, 100
1, 33919, Note_off_c, 0, 59, 100
1, 33919, Note_on_c, 0, 60, 100
1, 33970, Note_off_c, 0, 60, 100
1, 33970, Note_on_c, 0, 69, 100
1, 34002, Note_off_c, 0, 69, 100
1, 34002, Note_on_c, 0, 67, 100
1, 34034, Note_off_c, 0, 67, 100
1, 34034, Note_on_c, 0, 65, 100
1, 34066, Note_off_c, 0, 65, 100
1, 34066, Note_on_c, 0, 64, 100
1, 34098, Note_off_c, 0, 64, 100
1, 34098, Note_on_c, 0, 65, 100
1, 34130, Note_off_c, 0, 65, 100
1, 34130, Note_on_c, 0, 69, 100
1, 34178, Note_off_c, 0, 69, 100
1, 34178, Note_on_c, 0, 74, 100
1, 34226, Note_off_c, 0, 74, 100
1, 34226, Note_on_c, 0, 72, 100
1, 34274, Note_off_c, 0, 72, 100
1, 34274, Note_on_c, 0, 69, 100
1, 34370, Note_off_c, 0, 69, 100
1, 34629, Note_on_c, 0, 67, 100
1, 34667, Note_off_c, 0, 67, 100
1, 34667, Note_on_c, 0, 69, 100
1, 34705, Note_off_c, 0, 69, 100
1, 34705, Note_on_c, 0, 67, 100
1, 34753, Note_off_c, 0, 67, 100
1, 34753, Note_on_c, 0, 66, 100
1, 34801, Note_off_c, 0, 66, 100
1, 34801, Note_on_c, 0, 65, 100
1, 34849, Note_off_c, 0, 65, 100
1, 34849, Note_on_c, 0, 64, 100
1, 34897, Note_off_c, 0, 64, 100
1, 34897, Note_on_c, 0, 62, 100
1, 34993, Note_off_c, 0, 62, 100
1, 34993, Note_on_c, 0, 60, 100
1, 35089, Note_off_c, 0, 60, 100
1, 35089, Note_on_c, 0, 59, 100
1, 35137, Note_off_c, 0, 59, 100
1, 35137, Note_on_c, 0, 57, 100
1, 35185, Note_off_c, 0, 57, 100
1, 35185, Note_on_c, 0, 55, 100
1, 35233, Note_off_c, 0, 55, 100
1, 35233, Note_on_c, 0, 54, 100
1, 35281, Note_off_c, 0, 54, 100
1, 35281, Note_on_c, 0, 53, 100
1, 35377, Note_off_c, 0, 53, 100
1, 35617, Note_on_c, 0, 51, 100
1, 35665, Note_off_c, 0, 51, 100
1, 35665, Note_on_c, 0, 52, 100
1, 35713, Note_off_c, 0, 52, 100
1, 35713, Note_on_c, 0, 55, 100
1, 35761, Note_off_c, 0, 55, 100
1, 35761, Note_on_c, 0, 58, 100
1, 35809, Note_off_c, 0, 58, 100
1, 35809, Note_on_c, 0, 59, 100
1, 35895, Note_off_c, 0, 59, 100
1, 35895, Note_on_c, 0, 61, 100
1, 35933, Note_off_c, 0, 61, 100
1, 35933, Note_on_c, 0, 63, 100
1, 35971, Note_off_c, 0, 63, 100
1, 35971, Note_on_c, 0, 65, 100
1, 36009, Note_off_c, 0, 65, 100
1, 36009, Note_on_c, 0, 64, 100
1, 36047, Note_off_c, 0, 64, 100
1, 36047, Note_on_c, 0, 63, 100
1, 36095, Note_off_c, 0, 63, 100
1, 36095, Note_on_c, 0, 65, 100
1, 36191, Note_off_c, 0, 65, 100
1, 36191, Note_on_c, 0, 68, 100
1, 36239, Note_off_c, 0, 68, 100
1, 36239, Note_on_c, 0, 69, 100
1, 36287, Note_off_c, 0, 69, 100
1, 36287, Note_on_c, 0, 71, 100
1, 36335, Note_off_c, 0, 71, 100
1, 36335, Note_on_c, 0, 75, 100
1, 36383, Note_off_c, 0, 75, 100
1, 36383, Note_on_c, 0, 76, 100
1, 36431, Note_off_c, 0, 76, 100
1, 36431, Note_on_c, 0, 73, 100
1, 36527, Note_off_c, 0, 73, 100
1, 36527, Note_on_c, 0, 69, 100
1, 36623, Note_off_c, 0, 69, 100
1, 36623, Note_on_c, 0, 70, 100
1, 36719, Note_off_c, 0, 70, 100
1, 36719, Note_on_c, 0, 68, 100
1, 36863, Note_off_c, 0, 68, 100
1, 36863, Note_on_c, 0, 63, 100
1, 36911, Note_off_c, 0, 63, 100
1, 36911, Note_on_c, 0, 67, 100
1, 37083, Note_off_c, 0, 67, 100
1, 37083, Note_on_c, 0, 65, 100
1, 37121, Note_off_c, 0, 65, 100
1, 37121, Note_on_c, 0, 67, 100
1, 37159, Note_off_c, 0, 67, 100
1, 37159, Note_on_c, 0, 65, 100
1, 37197, Note_off_c, 0, 65, 100
1, 37197, Note_on_c, 0, 64, 100
1, 37229, Note_off_c, 0, 64, 100
1, 37229, Note_on_c, 0, 65, 100
1, 37261, Note_off_c, 0, 65, 100
1, 37261, Note_on_c, 0, 64, 100
1, 37293, Note_off_c, 0, 64, 100
1, 37293, Note_on_c, 0, 62, 100
1, 37325, Note_off_c, 0, 62, 100
1, 37325, Note_on_c, 0, 64, 100
1, 37357, Note_off_c, 0, 64, 100
1, 37357, Note_on_c, 0, 62, 100
1, 37389, Note_off_c, 0, 62, 100
1, 37389, Note_on_c, 0, 60, 100
1, 37437, Note_off_c, 0, 60, 100
1, 37437, Note_on_c, 0, 62, 100
1, 37485, Note_off_c, 0, 62, 100
1, 37485, Note_on_c, 0, 60, 100
1, 37581, Note_off_c, 0, 60, 100
1, 37581, Note_on_c, 0, 62, 100
1, 37677, Note_off_c, 0, 62, 100
1, 37888, Note_on_c, 0, 60, 100
1, 37926, Note_off_c, 0, 60, 100
1, 37926, Note_on_c, 0, 62, 100
1, 37964, Note_off_c, 0, 62, 100
1, 37964, Note_on_c, 0, 60, 100
1, 38012, Note_off_c, 0, 60, 100
1, 38012, Note_on_c, 0, 59, 100
1, 38156, Note_off_c, 0, 59, 100
1, 38156, Note_on_c, 0, 57, 100
1, 38220, Note_off_c, 0, 57, 100
1, 38220, Note_on_c, 0, 55, 100
1, 38284, Note_off_c, 0, 55, 100
1, 38284, Note_on_c, 0, 55, 100
1, 38348, Note_off_c, 0, 55, 100
1, 38348, Note_on_c, 0, 64, 100
1, 38444, Note_off_c, 0, 64, 100
1, 38444, Note_on_c, 0, 60, 100
1, 38540, Note_off_c, 0, 60, 100
1, 38540, Note_on_c, 0, 60, 100
1, 38828, Note_off_c, 0, 60, 100
1, 38828, Note_on_c, 0, 65, 100
1, 38876, Note_off_c, 0, 65, 100
1, 38876, Note_on_c, 0, 64, 100
1, 38924, Note_off_c, 0, 64, 100
1, 38924, Note_on_c, 0, 63, 100
1, 38972, Note_off_c, 0, 63, 100
1, 38972, Note_on_c, 0, 65, 100
1, 39020, Note_off_c, 0, 65, 100
1, 39020, Note_on_c, 0, 66, 100
1, 39068, Note_off_c, 0, 66, 100
1, 39068, Note_on_c, 0, 70, 100
1, 39116, Note_off_c, 0, 70, 100
1, 39116, Note_on_c, 0, 68, 100
1, 39164, Note_off_c, 0, 68, 100
1, 39164, Note_on_c, 0, 67, 100
1, 39212, Note_off_c, 0, 67, 100
1, 39212, Note_on_c, 0, 66, 100
1, 39260, Note_off_c, 0, 66, 100
1, 39260, Note_on_c, 0, 68, 100
1, 39308, Note_off_c, 0, 68, 100
1, 39308, Note_on_c, 0, 65, 100
1, 39452, Note_off_c, 0, 65, 100
1, 39452, Note_on_c, 0, 64, 100
1, 39500, Note_off_c, 0, 64, 100
1, 39500, Note_on_c, 0, 63, 100
1, 39538, Note_off_c, 0, 63, 100
1, 39538, Note_on_c, 0, 66, 100
1, 39576, Note_off_c, 0, 66, 100
1, 39576, Note_on_c, 0, 65, 100
1, 39614, Note_off_c, 0, 65, 100
1, 39614, Note_on_c, 0, 64, 100
1, 39652, Note_off_c, 0, 64, 100
1, 39652, Note_on_c, 0, 61, 100
1, 39690, Note_off_c, 0, 61, 100
1, 39690, Note_on_c, 0, 59, 100
1, 39738, Note_off_c, 0, 59, 100
1, 39738, Note_on_c, 0, 58, 100
1, 39834, Note_off_c, 0, 58, 100
1, 39834, Note_on_c, 0, 59, 100
1, 39882, Note_off_c, 0, 59, 100
1, 39882, Note_on_c, 0, 62, 100
1, 39930, Note_off_c, 0, 62, 100
1, 39930, Note_on_c, 0, 61, 100
1, 39978, Note_off_c, 0, 61, 100
1, 39978, Note_on_c, 0, 56, 100
1, 40026, Note_off_c, 0, 56, 100
1, 40026, Note_on_c, 0, 55, 100
1, 40074, Note_off_c, 0, 55, 100
1, 40074, Note_on_c, 0, 54, 100
1, 40138, Note_off_c, 0, 54, 100
1, 40138, Note_on_c, 0, 58, 100
1, 40202, Note_off_c, 0, 58, 100
1, 40202, Note_on_c, 0, 53, 100
1, 40314, Note_off_c, 0, 53, 100
1, 40314, Note_on_c, 0, 52, 100
1, 40410, Note_off_c, 0, 52, 100
1, 40410, Note_on_c, 0, 57, 100
1, 40602, Note_off_c, 0, 57, 100
1, 40842, Note_on_c, 0, 48, 100
1, 40906, Note_off_c, 0, 48, 100
1, 40906, Note_on_c, 0, 52, 100
1, 40970, Note_off_c, 0, 52, 100
1, 40970, Note_on_c, 0, 47, 100
1, 41034, Note_off_c, 0, 47, 100
1, 41034, Note_on_c, 0, 45, 100
1, 41226, Note_off_c, 0, 45, 100
1, 41686, Note_on_c, 0, 54, 100
1, 41724, Note_off_c, 0, 54, 100
1, 41724, Note_on_c, 0, 53, 100
1, 41762, Note_off_c, 0, 53, 100
1, 41762, Note_on_c, 0, 49, 100
1, 41800, Note_off_c, 0, 49, 100
1, 41800, Note_on_c, 0, 50, 100
1, 41838, Note_off_c, 0, 50, 100
1, 41838, Note_on_c, 0, 51, 100
1, 41876, Note_off_c, 0, 51, 100
1, 41876, Note_on_c, 0, 53, 100
1, 41914, Note_off_c, 0, 53, 100
1, 41914, Note_on_c, 0, 56, 100
1, 41952, Note_off_c, 0, 56, 100
1, 41952, Note_on_c, 0, 54, 100
1, 41990, Note_off_c, 0, 54, 100
1, 41990, Note_on_c, 0, 61, 100
1, 42182, Note_off_c, 0, 61, 100
1, 42182, Note_on_c, 0, 61, 100
1, 42230, Note_off_c, 0, 61, 100
1, 42230, Note_on_c, 0, 64, 100
1, 42278, Note_off_c, 0, 64, 100
1, 42278, Note_on_c, 0, 61, 100
1, 42326, Note_off_c, 0, 61, 100
1, 42326, Note_on_c, 0, 62, 100
1, 42374, Note_off_c, 0, 62, 100
1, 42374, Note_on_c, 0, 64, 100
1, 42422, Note_off_c, 0, 64, 100
1, 42422, Note_on_c, 0, 65, 100
1, 42470, Note_off_c, 0, 65, 100
1, 42470, Note_on_c, 0, 66, 100
1, 42614, Note_off_c, 0, 66, 100
1, 42614, Note_on_c, 0, 65, 100
1, 42662, Note_off_c, 0, 65, 100
1, 42662, Note_on_c, 0, 64, 100
1, 42710, Note_off_c, 0, 64, 100
1, 42710, Note_on_c, 0, 63, 100
1, 42758, Note_off_c, 0, 63, 100
1, 42758, Note_on_c, 0, 62, 100
1, 42834, Note_off_c, 0, 62, 100
1, 42834, Note_on_c, 0, 60, 100
1, 42872, Note_off_c, 0, 60, 100
1, 42872, Note_on_c, 0, 61, 100
1, 42910, Note_off_c, 0, 61, 100
1, 42910, Note_on_c, 0, 64, 100
1, 42996, Note_off_c, 0, 64, 100
1, 42996, Note_on_c, 0, 61, 100
1, 43044, Note_off_c, 0, 61, 100
1, 43044, Note_on_c, 0, 62, 100
1, 43092, Note_off_c, 0, 62, 100
1, 43092, Note_on_c, 0, 64, 100
1, 43140, Note_off_c, 0, 64, 100
1, 43140, Note_on_c, 0, 65, 100
1, 43204, Note_off_c, 0, 65, 100
1, 43204, Note_on_c, 0, 67, 100
1, 43236, Note_off_c, 0, 67, 100
1, 43236, Note_on_c, 0, 69, 100
1, 43268, Note_off_c, 0, 69, 100
1, 43268, Note_on_c, 0, 72, 100
1, 43300, Note_off_c, 0, 72, 100
1, 43300, Note_on_c, 0, 74, 100
1, 43332, Note_off_c, 0, 74, 100
1, 43332, Note_on_c, 0, 75, 100
1, 43380, Note_off_c, 0, 75, 100
1, 43380, Note_on_c, 0, 76, 100
1, 43572, Note_off_c, 0, 76, 100
1, 43572, Note_on_c, 0, 74, 100
1, 43620, Note_off_c, 0, 74, 100
1, 43620, Note_on_c, 0, 72, 100
1, 43668, Note_off_c, 0, 72, 100
1, 43668, Note_on_c, 0, 71, 100
1, 43716, Note_off_c, 0, 71, 100
1, 43716, Note_on_c, 0, 74, 100
1, 43764, Note_off_c, 0, 74, 100
1, 43764, Note_on_c, 0, 72, 100
1, 43812, Note_off_c, 0, 72, 100
1, 43812, Note_on_c, 0, 71, 100
1, 43860, Note_off_c, 0, 71, 100
1, 43860, Note_on_c, 0, 72, 100
1, 43956, Note_off_c, 0, 72, 100
1, 43956, Note_on_c, 0, 69, 100
1, 44215, Note_off_c, 0, 69, 100
1, 44215, Note_on_c, 0, 71, 100
1, 44253, Note_off_c, 0, 71, 100
1, 44253, Note_on_c, 0, 69, 100
1, 44291, Note_off_c, 0, 69, 100
1, 44291, Note_on_c, 0, 68, 100
1, 44318, Note_off_c, 0, 68, 100
1, 44318, Note_on_c, 0, 67, 100
1, 44400, Note_off_c, 0, 67, 100
1, 44400, Note_on_c, 0, 69, 100
1, 44454, Note_off_c, 0, 69, 100
1, 44454, Note_on_c, 0, 68, 100
1, 44481, Note_off_c, 0, 68, 100
1, 44481, Note_on_c, 0, 64, 100
1, 44577, Note_off_c, 0, 64, 100
1, 44577, Note_on_c, 0, 67, 100
1, 44673, Note_off_c, 0, 67, 100
1, 44673, Note_on_c, 0, 67, 100
1, 44711, Note_off_c, 0, 67, 100
1, 44711, Note_on_c, 0, 67, 100
1, 44826, Note_off_c, 0, 67, 100
1, 44826, Note_on_c, 0, 67, 100
1, 44912, Note_off_c, 0, 67, 100
1, 44912, Note_on_c, 0, 67, 100
1, 45008, Note_off_c, 0, 67, 100
1, 45008, Note_on_c, 0, 68, 100
1, 45152, Note_off_c, 0, 68, 100
1, 45152, Note_on_c, 0, 69, 100
1, 45440, Note_off_c, 0, 69, 100
1, 45440, Note_on_c, 0, 63, 100
1, 45488, Note_off_c, 0, 63, 100
1, 45488, Note_on_c, 0, 64, 100
1, 45536, Note_off_c, 0, 64, 100
1, 45536, Note_on_c, 0, 67, 100
1, 45632, Note_off_c, 0, 67, 100
1, 45632, Note_on_c, 0, 64, 100
1, 45680, Note_off_c, 0, 64, 100
1, 45680, Note_on_c, 0, 65, 100
1, 45920, Note_off_c, 0, 65, 100
1, 45920, Note_on_c, 0, 66, 100
1, 46160, Note_off_c, 0, 66, 100
1, 46160, Note_on_c, 0, 67, 100
1, 46400, Note_off_c, 0, 67, 100
1, 46400, Note_on_c, 0, 64, 100
1, 46496, Note_off_c, 0, 64, 100
1, 46496, Note_on_c, 0, 62, 100
1, 46592, Note_off_c, 0, 62, 100
1, 46880, Note_on_c, 0, 64, 100
1, 46976, Note_off_c, 0, 64, 100
1, 46976, Note_on_c, 0, 57, 100
1, 47072, Note_off_c, 0, 57, 100
1, 47312, Note_on_c, 0, 56, 100
1, 47360, Note_off_c, 0, 56, 100
1, 47360, Note_on_c, 0, 57, 100
1, 47387, Note_off_c, 0, 57, 100
1, 47387, Note_on_c, 0, 58, 100
1, 47414, Note_off_c, 0, 58, 100
1, 47414, Note_on_c, 0, 60, 100
1, 47441, Note_off_c, 0, 60, 100
1, 47441, Note_on_c, 0, 64, 100
1, 47468, Note_off_c, 0, 64, 100
1, 47468, Note_on_c, 0, 62, 100
1, 47495, Note_off_c, 0, 62, 100
1, 47495, Note_on_c, 0, 60, 100
1, 47522, Note_off_c, 0, 60, 100
1, 47522, Note_on_c, 0, 59, 100
1, 47549, Note_off_c, 0, 59, 100
1, 47549, Note_on_c, 0, 61, 100
1, 47581, Note_off_c, 0, 61, 100
1, 47581, Note_on_c, 0, 64, 100
1, 47613, Note_off_c, 0, 64, 100
1, 47613, Note_on_c, 0, 65, 100
1, 47645, Note_off_c, 0, 65, 100
1, 47645, Note_on_c, 0, 69, 100
1, 47677, Note_off_c, 0, 69, 100
1, 47677, Note_on_c, 0, 68, 100
1, 47773, Note_off_c, 0, 68, 100
1, 47933, Note_on_c, 0, 67, 100
1, 47965, Note_off_c, 0, 67, 100
1, 47965, Note_on_c, 0, 68, 100
1, 47997, Note_off_c, 0, 68, 100
1, 47997, Note_on_c, 0, 65, 100
1, 48029, Note_off_c, 0, 65, 100
1, 48029, Note_on_c, 0, 60, 100
1, 48061, Note_off_c, 0, 60, 100
1, 48061, Note_on_c, 0, 58, 100
1, 48093, Note_off_c, 0, 58, 100
1, 48093, Note_on_c, 0, 54, 100
1, 48149, Note_off_c, 0, 54, 100
1, 48149, Note_on_c, 0, 67, 100
1, 48221, Note_off_c, 0, 67, 100
1, 48221, Note_on_c, 0, 63, 100
1, 48245, Note_off_c, 0, 63, 100
1, 48245, Note_on_c, 0, 60, 100
1, 48269, Note_off_c, 0, 60, 100
1, 48269, Note_on_c, 0, 58, 100
1, 48293, Note_off_c, 0, 58, 100
1, 48293, Note_on_c, 0, 59, 100
1, 48317, Note_off_c, 0, 59, 100
1, 48317, Note_on_c, 0, 56, 100
1, 48365, Note_off_c, 0, 56, 100
1, 48365, Note_on_c, 0, 57, 100
1, 48413, Note_off_c, 0, 57, 100
1, 48413, Note_on_c, 0, 60, 100
1, 48461, Note_off_c, 0, 60, 100
1, 48461, Note_on_c, 0, 59, 100
1, 48509, Note_off_c, 0, 59, 100
1, 48509, Note_on_c, 0, 60, 100
1, 48541, Note_off_c, 0, 60, 100
1, 48541, Note_on_c, 0, 62, 100
1, 48573, Note_off_c, 0, 62, 100
1, 48573, Note_on_c, 0, 64, 100
1, 48605, Note_off_c, 0, 64, 100
1, 48605, Note_on_c, 0, 66, 100
1, 48637, Note_off_c, 0, 66, 100
1, 48637, Note_on_c, 0, 70, 100
1, 48669, Note_off_c, 0, 70, 100
1, 48669, Note_on_c, 0, 69, 100
1, 48733, Note_off_c, 0, 69, 100
1, 48733, Note_on_c, 0, 61, 100
1, 48765, Note_off_c, 0, 61, 100
1, 48765, Note_on_c, 0, 63, 100
1, 48797, Note_off_c, 0, 63, 100
1, 48797, Note_on_c, 0, 66, 100
1, 48829, Note_off_c, 0, 66, 100
1, 48829, Note_on_c, 0, 65, 100
1, 48861, Note_off_c, 0, 65, 100
1, 48861, Note_on_c, 0, 61, 100
1, 48893, Note_off_c, 0, 61, 100
1, 48893, Note_on_c, 0, 58, 100
1, 48931, Note_off_c, 0, 58, 100
1, 48931, Note_on_c, 0, 54, 100
1, 48969, Note_off_c, 0, 54, 100
1, 48969, Note_on_c, 0, 56, 100
1, 49007, Note_off_c, 0, 56, 100
1, 49007, Note_on_c, 0, 62, 100
1, 49045, Note_off_c, 0, 62, 100
1, 49045, Note_on_c, 0, 60, 100
1, 49083, Note_off_c, 0, 60, 100
1, 49083, Note_on_c, 0, 58, 100
1, 49114, Note_off_c, 0, 58, 100
1, 49114, Note_on_c, 0, 57, 100
1, 49210, Note_off_c, 0, 57, 100
1, 49210, Note_on_c, 0, 46, 100
1, 49242, Note_off_c, 0, 46, 100
1, 49242, Note_on_c, 0, 48, 100
1, 49273, Note_off_c, 0, 48, 100
1, 49273, Note_on_c, 0, 44, 100
1, 49369, Note_off_c, 0, 44, 100
1, 49849, Note_on_c, 0, 49, 100
1, 49897, Note_off_c, 0, 49, 100
1, 49897, Note_on_c, 0, 47, 100
1, 49945, Note_off_c, 0, 47, 100
1, 49945, Note_on_c, 0, 49, 100
1, 49993, Note_off_c, 0, 49, 100
1, 49993, Note_on_c, 0, 47, 100
1, 50041, Note_off_c, 0, 47, 100
1, 50041, Note_on_c, 0, 53, 100
1, 50072, Note_off_c, 0, 53, 100
1, 50072, Note_on_c, 0, 51, 100
1, 50104, Note_off_c, 0, 51, 100
1, 50104, Note_on_c, 0, 50, 100
1, 50135, Note_off_c, 0, 50, 100
1, 50135, Note_on_c, 0, 49, 100
1, 50199, Note_off_c, 0, 49, 100
1, 50199, Note_on_c, 0, 58, 100
1, 50230, Note_off_c, 0, 58, 100
1, 50230, Note_on_c, 0, 56, 100
1, 50278, Note_off_c, 0, 56, 100
1, 50278, Note_on_c, 0, 58, 100
1, 50326, Note_off_c, 0, 58, 100
1, 50326, Note_on_c, 0, 63, 100
1, 50350, Note_off_c, 0, 63, 100
1, 50350, Note_on_c, 0, 58, 100
1, 50374, Note_off_c, 0, 58, 100
1, 50374, Note_on_c, 0, 59, 100
1, 50398, Note_off_c, 0, 59, 100
1, 50398, Note_on_c, 0, 60, 100
1, 50422, Note_off_c, 0, 60, 100
1, 50422, Note_on_c, 0, 63, 100
1, 50446, Note_off_c, 0, 63, 100
1, 50446, Note_on_c, 0, 60, 100
1, 50470, Note_off_c, 0, 60, 100
1, 50470, Note_on_c, 0, 61, 100
1, 50494, Note_off_c, 0, 61, 100
1, 50494, Note_on_c, 0, 62, 100
1, 50518, Note_off_c, 0, 62, 100
1, 50518, Note_on_c, 0, 63, 100
1, 50542, Note_off_c, 0, 63, 100
1, 50542, Note_on_c, 0, 62, 100
1, 50566, Note_off_c, 0, 62, 100
1, 50566, Note_on_c, 0, 60, 100
1, 50590, Note_off_c, 0, 60, 100
1, 50590, Note_on_c, 0, 62, 100
1, 50614, Note_off_c, 0, 62, 100
1, 50614, Note_on_c, 0, 64, 100
1, 50641, Note_off_c, 0, 64, 100
1, 50641, Note_on_c, 0, 62, 100
1, 50668, Note_off_c, 0, 62, 100
1, 50668, Note_on_c, 0, 60, 100
1, 50695, Note_off_c, 0, 60, 100
1, 50695, Note_on_c, 0, 59, 100
1, 50749, Note_off_c, 0, 59, 100
1, 50749, Note_on_c, 0, 57, 100
1, 50776, Note_off_c, 0, 57, 100
1, 50776, Note_on_c, 0, 56, 100
1, 50803, Note_off_c, 0, 56, 100
1, 50803, Note_on_c, 0, 59, 100
1, 50827, Note_off_c, 0, 59, 100
1, 50827, Note_on_c, 0, 58, 100
1, 50851, Note_off_c, 0, 58, 100
1, 50851, Note_on_c, 0, 62, 100
1, 50899, Note_off_c, 0, 62, 100
1, 50899, Note_on_c, 0, 59, 100
1, 50971, Note_off_c, 0, 59, 100
1, 50971, Note_on_c, 0, 60, 100
1, 50995, Note_off_c, 0, 60, 100
1, 50995, Note_on_c, 0, 64, 100
1, 51043, Note_off_c, 0, 64, 100
1, 51043, Note_on_c, 0, 69, 100
1, 51091, Note_off_c, 0, 69, 100
1, 51091, Note_on_c, 0, 67, 100
1, 51251, Note_off_c, 0, 67, 100
1, 51251, Note_on_c, 0, 67, 100
1, 51314, Note_off_c, 0, 67, 100
1, 51314, Note_on_c, 0, 64, 100
1, 51378, Note_off_c, 0, 64, 100
1, 51378, Note_on_c, 0, 62, 100
1, 51474, Note_off_c, 0, 62, 100
1, 51474, Note_on_c, 0, 60, 100
1, 51522, Note_off_c, 0, 60, 100
1, 51522, Note_on_c, 0, 57, 100
1, 51618, Note_off_c, 0, 57, 100
1, 51810, Note_on_c, 0, 65, 100
1, 51858, Note_off_c, 0, 65, 100
1, 51858, Note_on_c, 0, 64, 100
1, 51882, Note_off_c, 0, 64, 100
1, 51882, Note_on_c, 0, 63, 100
1, 51906, Note_off_c, 0, 63, 100
1, 51906, Note_on_c, 0, 62, 100
1, 51930, Note_off_c, 0, 62, 100
1, 51930, Note_on_c, 0, 60, 100
1, 51954, Note_off_c, 0, 60, 100
1, 51954, Note_on_c, 0, 59, 100
1, 51992, Note_off_c, 0, 59, 100
1, 51992, Note_on_c, 0, 58, 100
1, 52030, Note_off_c, 0, 58, 100
1, 52030, Note_on_c, 0, 56, 100
1, 52068, Note_off_c, 0, 56, 100
1, 52068, Note_on_c, 0, 55, 100
1, 52106, Note_off_c, 0, 55, 100
1, 52106, Note_on_c, 0, 54, 100
1, 52202, Note_off_c, 0, 54, 100
1, 52336, Note_on_c, 0, 71, 100
1, 52384, Note_off_c, 0, 71, 100
1, 52384, Note_on_c, 0, 72, 100
1, 52408, Note_off_c, 0, 72, 100
1, 52408, Note_on_c, 0, 74, 100
1, 52456, Note_off_c, 0, 74, 100
1, 52456, Note_on_c, 0, 73, 100
1, 52480, Note_off_c, 0, 73, 100
1, 52480, Note_on_c, 0, 72, 100
1, 52504, Note_off_c, 0, 72, 100
1, 52504, Note_on_c, 0, 71, 100
1, 52528, Note_off_c, 0, 71, 100
1, 52528, Note_on_c, 0, 69, 100
1, 52576, Note_off_c, 0, 69, 100
1, 52576, Note_on_c, 0, 67, 100
1, 52624, Note_off_c, 0, 67, 100
1, 52624, Note_on_c, 0, 65, 100
1, 52672, Note_off_c, 0, 65, 100
1, 52672, Note_on_c, 0, 64, 100
1, 52720, Note_off_c, 0, 64, 100
1, 52720, Note_on_c, 0, 62, 100
1, 52736, Note_off_c, 0, 62, 100
1, 52736, Note_on_c, 0, 64, 100
1, 52752, Note_off_c, 0, 64, 100
1, 52752, Note_on_c, 0, 67, 100
1, 52800, Note_off_c, 0, 67, 100
1, 52800, Note_on_c, 0, 64, 100
1, 52848, Note_off_c, 0, 64, 100
1, 52848, Note_on_c, 0, 65, 100
1, 52896, Note_off_c, 0, 65, 100
1, 52896, Note_on_c, 0, 60, 100
1, 52936, Note_off_c, 0, 60, 100
1, 52936, Note_on_c, 0, 57, 100
1, 53032, Note_off_c, 0, 57, 100
1, 53032, Note_on_c, 0, 64, 100
1, 53056, Note_off_c, 0, 64, 100
1, 53056, Note_on_c, 0, 65, 100
1, 53080, Note_off_c, 0, 65, 100
1, 53080, Note_on_c, 0, 64, 100
1, 53104, Note_off_c, 0, 64, 100
1, 53104, Note_on_c, 0, 62, 100
1, 53152, Note_off_c, 0, 62, 100
1, 53152, Note_on_c, 0, 57, 100
1, 53200, Note_off_c, 0, 57, 100
1, 53200, Note_on_c, 0, 53, 100
1, 53248, Note_off_c, 0, 53, 100
1, 53248, Note_on_c, 0, 52, 100
1, 53360, Note_off_c, 0, 52, 100
1, 53360, Note_on_c, 0, 50, 100
1, 53456, Note_off_c, 0, 50, 100
1, 53752, Note_on_c, 0, 50, 100
1, 53800, Note_off_c, 0, 50, 100
1, 53800, Note_on_c, 0, 52, 100
1, 53824, Note_off_c, 0, 52, 100
1, 53824, Note_on_c, 0, 53, 100
1, 53848, Note_off_c, 0, 53, 100
1, 53848, Note_on_c, 0, 57, 100
1, 53872, Note_off_c, 0, 57, 100
1, 53872, Note_on_c, 0, 60, 100
1, 53906, Note_off_c, 0, 60, 100
1, 53906, Note_on_c, 0, 58, 100
1, 53958, Note_off_c, 0, 58, 100
1, 53958, Note_on_c, 0, 59, 100
1, 53992, Note_off_c, 0, 59, 100
1, 53992, Note_on_c, 0, 60, 100
1, 54026, Note_off_c, 0, 60, 100
1, 54026, Note_on_c, 0, 61, 100
1, 54043, Note_off_c, 0, 61, 100
1, 54043, Note_on_c, 0, 62, 100
1, 54060, Note_off_c, 0, 62, 100
1, 54060, Note_on_c, 0, 63, 100
1, 54092, Note_off_c, 0, 63, 100
1, 54092, Note_on_c, 0, 65, 100
1, 54124, Note_off_c, 0, 65, 100
1, 54124, Note_on_c, 0, 66, 100
1, 54156, Note_off_c, 0, 66, 100
1, 54156, Note_on_c, 0, 67, 100
1, 54188, Note_off_c, 0, 67, 100
1, 54188, Note_on_c, 0, 68, 100
1, 54220, Note_off_c, 0, 68, 100
1, 54220, Note_on_c, 0, 65, 100
1, 54252, Note_off_c, 0, 65, 100
1, 54252, Note_on_c, 0, 61, 100
1, 54300, Note_off_c, 0, 61, 100
1, 54300, Note_on_c, 0, 58, 100
1, 54348, Note_off_c, 0, 58, 100
1, 54348, Note_on_c, 0, 65, 100
1, 54396, Note_off_c, 0, 65, 100
1, 54396, Note_on_c, 0, 67, 100
1, 54492, Note_off_c, 0, 67, 100
1, 54492, Note_on_c, 0, 66, 100
1, 54516, Note_off_c, 0, 66, 100
1, 54516, Note_on_c, 0, 65, 100
1, 54540, Note_off_c, 0, 65, 100
1, 54540, Note_on_c, 0, 64, 100
1, 54564, Note_off_c, 0, 64, 100
1, 54564, Note_on_c, 0, 62, 100
1, 54588, Note_off_c, 0, 62, 100
1, 54588, Note_on_c, 0, 60, 100
1, 54636, Note_off_c, 0, 60, 100
1, 54636, Note_on_c, 0, 59, 100
1, 54668, Note_off_c, 0, 59, 100
1, 54668, Note_on_c, 0, 56, 100
1, 54700, Note_off_c, 0, 56, 100
1, 54700, Note_on_c, 0, 57, 100
1, 54764, Note_off_c, 0, 57, 100
1, 54764, Note_on_c, 0, 60, 100
1, 54796, Note_off_c, 0, 60, 100
1, 54796, Note_on_c, 0, 58, 100
1, 54828, Note_off_c, 0, 58, 100
1, 54828, Note_on_c, 0, 59, 100
1, 54860, Note_off_c, 0, 59, 100
1, 54860, Note_on_c, 0, 61, 100
1, 54892, Note_off_c, 0, 61, 100
1, 54892, Note_on_c, 0, 63, 100
1, 54924, Note_off_c, 0, 63, 100
1, 54924, Note_on_c, 0, 67, 100
1, 54956, Note_off_c, 0, 67, 100
1, 54956, Note_on_c, 0, 70, 100
1, 54988, Note_off_c, 0, 70, 100
1, 54988, Note_on_c, 0, 67, 100
1, 55020, Note_off_c, 0, 67, 100
1, 55020, Note_on_c, 0, 68, 100
1, 55068, Note_off_c, 0, 68, 100
1, 55068, Note_on_c, 0, 70, 100
1, 55116, Note_off_c, 0, 70, 100
1, 55116, Note_on_c, 0, 71, 100
1, 55164, Note_off_c, 0, 71, 100
1, 55164, Note_on_c, 0, 75, 100
1, 55212, Note_off_c, 0, 75, 100
1, 55212, Note_on_c, 0, 75, 100
1, 55340, Note_off_c, 0, 75, 100
1, 55340, Note_on_c, 0, 71, 100
1, 55404, Note_off_c, 0, 71, 100
1, 55404, Note_on_c, 0, 76, 100
1, 55500, Note_off_c, 0, 76, 100
1, 55692, Note_on_c, 0, 71, 100
1, 55740, Note_off_c, 0, 71, 100
1, 55740, Note_on_c, 0, 69, 100
1, 55836, Note_off_c, 0, 69, 100
1, 55836, Note_on_c, 0, 69, 100
1, 55932, Note_off_c, 0, 69, 100
1, 55932, Note_on_c, 0, 69, 100
1, 55980, Note_off_c, 0, 69, 100
1, 55980, Note_on_c, 0, 69, 100
1, 56076, Note_off_c, 0, 69, 100
1, 56076, Note_on_c, 0, 67, 100
1, 56172, Note_off_c, 0, 67, 100
1, 56172, Note_on_c, 0, 72, 100
1, 56364, Note_off_c, 0, 72, 100
1, 56364, Note_on_c, 0, 71, 100
1, 56428, Note_off_c, 0, 71, 100
1, 56428, Note_on_c, 0, 69, 100
1, 56492, Note_off_c, 0, 69, 100
1, 56492, Note_on_c, 0, 65, 100
1, 56556, Note_off_c, 0, 65, 100
1, 56556, Note_on_c, 0, 67, 100
1, 56796, Note_off_c, 0, 67, 100
1, 56796, Note_on_c, 0, 66, 100
1, 56844, Note_off_c, 0, 66, 100
1, 56844, Note_on_c, 0, 65, 100
1, 56892, Note_off_c, 0, 65, 100
1, 56892, Note_on_c, 0, 64, 100
1, 56940, Note_off_c, 0, 64, 100
1, 56940, Note_on_c, 0, 63, 100
1, 56988, Note_off_c, 0, 63, 100
1, 56988, Note_on_c, 0, 65, 100
1, 57036, Note_off_c, 0, 65, 100
1, 57036, Note_on_c, 0, 66, 100
1, 57084, Note_off_c, 0, 66, 100
1, 57084, Note_on_c, 0, 70, 100
1, 57132, Note_off_c, 0, 70, 100
1, 57132, Note_on_c, 0, 68, 100
1, 57180, Note_off_c, 0, 68, 100
1, 57180, Note_on_c, 0, 61, 100
1, 57276, Note_off_c, 0, 61, 100
1, 57276, Note_on_c, 0, 66, 100
1, 57324, Note_off_c, 0, 66, 100
1, 57324, Note_on_c, 0, 65, 100
1, 57388, Note_off_c, 0, 65, 100
1, 57388, Note_on_c, 0, 64, 100
1, 57452, Note_off_c, 0, 64, 100
1, 57452, Note_on_c, 0, 65, 100
1, 57516, Note_off_c, 0, 65, 100
1, 57516, Note_on_c, 0, 61, 100
1, 57612, Note_off_c, 0, 61, 100
1, 57612, Note_on_c, 0, 56, 100
1, 57660, Note_off_c, 0, 56, 100
1, 57660, Note_on_c, 0, 62, 100
1, 57804, Note_off_c, 0, 62, 100
1, 57804, Note_on_c, 0, 60, 100
1, 57900, Note_off_c, 0, 60, 100
1, 57900, Note_on_c, 0, 62, 100
1, 57948, Note_off_c, 0, 62, 100
1, 57948, Note_on_c, 0, 59, 100
1, 58140, Note_off_c, 0, 59, 100
1, 58140, Note_on_c, 0, 57, 100
1, 58188, Note_off_c, 0, 57, 100
1, 58188, Note_on_c, 0, 59, 100
1, 58236, Note_off_c, 0, 59, 100
1, 58236, Note_on_c, 0, 55, 100
1, 58380, Note_off_c, 0, 55, 100
1, 58380, Note_on_c, 0, 53, 100
1, 58428, Note_off_c, 0, 53, 100
1, 58428, Note_on_c, 0, 55, 100
1, 58476, Note_off_c, 0, 55, 100
1, 58476, Note_on_c, 0, 52, 100
1, 58572, Note_off_c, 0, 52, 100
1, 58572, Note_on_c, 0, 59, 100
1, 58668, Note_off_c, 0, 59, 100
1, 58668, Note_on_c, 0, 62, 100
1, 58956, Note_off_c, 0, 62, 100
1, 58956, Note_on_c, 0, 60, 100
1, 59004, Note_off_c, 0, 60, 100
1, 59004, Note_on_c, 0, 57, 100
1, 59100, Note_off_c, 0, 57, 100
1, 59340, Note_on_c, 0, 52, 100
1, 59388, Note_off_c, 0, 52, 100
1, 59388, Note_on_c, 0, 55, 100
1, 59500, Note_off_c, 0, 55, 100
1, 59500, Note_on_c, 0, 52, 100
1, 59564, Note_off_c, 0, 52, 100
1, 59564, Note_on_c, 0, 53, 100
1, 59628, Note_off_c, 0, 53, 100
1, 59628, Note_on_c, 0, 50, 100
1, 59724, Note_off_c, 0, 50, 100
1, 60060, Note_on_c, 0, 62, 100
1, 60156, Note_off_c, 0, 62, 100
1, 60156, Note_on_c, 0, 62, 100
1, 60300, Note_off_c, 0, 62, 100
1, 60300, Note_on_c, 0, 62, 100
1, 60396, Note_off_c, 0, 62, 100
1, 60396, Note_on_c, 0, 64, 100
1, 60492, Note_off_c, 0, 64, 100
1, 60492, Note_on_c, 0, 60, 100
1, 60588, Note_off_c, 0, 60, 100
1, 60588, Note_on_c, 0, 62, 100
1, 60684, Note_off_c, 0, 62, 100
1, 60684, Note_on_c, 0, 59, 100
1, 60876, Note_off_c, 0, 59, 100
1, 60876, Note_on_c, 0, 59, 100
1, 60972, Note_off_c, 0, 59, 100
1, 61164, Note_on_c, 0, 58, 100
1, 61202, Note_off_c, 0, 58, 100
1, 61202, Note_on_c, 0, 57, 100
1, 61240, Note_off_c, 0, 57, 100
1, 61240, Note_on_c, 0, 52, 100
1, 61278, Note_off_c, 0, 52, 100
1, 61278, Note_on_c, 0, 46, 100
1, 61316, Note_off_c, 0, 46, 100
1, 61316, Note_on_c, 0, 44, 100
1, 61508, Note_off_c, 0, 44, 100
1, 61802, Note_on_c, 0, 71, 100
1, 61866, Note_off_c, 0, 71, 100
1, 61866, Note_on_c, 0, 68, 100
1, 61930, Note_off_c, 0, 68, 100
1, 61930, Note_on_c, 0, 74, 100
1, 61978, Note_off_c, 0, 74, 100
1, 61978, Note_on_c, 0, 68, 100
1, 62026, Note_off_c, 0, 68, 100
1, 62026, Note_on_c, 0, 69, 100
1, 62074, Note_off_c, 0, 69, 100
1, 62074, Note_on_c, 0, 71, 100
1, 62122, Note_off_c, 0, 71, 100
1, 62122, Note_on_c, 0, 65, 100
1, 62218, Note_off_c, 0, 65, 100
1, 62218, Note_on_c, 0, 64, 100
1, 62314, Note_off_c, 0, 64, 100
1, 62314, Note_on_c, 0, 67, 100
1, 62410, Note_off_c, 0, 67, 100
1, 62410, Note_on_c, 0, 64, 100
1, 62458, Note_off_c, 0, 64, 100
1, 62458, Note_on_c, 0, 65, 100
1, 62506, Note_off_c, 0, 65, 100
1, 62506, Note_on_c, 0, 60, 100
1, 62554, Note_off_c, 0, 60, 100
1, 62554, Note_on_c, 0, 56, 100
1, 62602, Note_off_c, 0, 56, 100
1, 62602, Note_on_c, 0, 57, 100
1, 62650, Note_off_c, 0, 57, 100
1, 62650, Note_on_c, 0, 64, 100
1, 62794, Note_off_c, 0, 64, 100
1, 62794, Note_on_c, 0, 62, 100
1, 62842, Note_off_c, 0, 62, 100
1, 62842, Note_on_c, 0, 60, 100
1, 62890, Note_off_c, 0, 60, 100
1, 62890, Note_on_c, 0, 62, 100
1, 62986, Note_off_c, 0, 62, 100
1, 62986, Note_on_c, 0, 64, 100
1, 63082, Note_off_c, 0, 64, 100
1, 63082, Note_on_c, 0, 60, 100
1, 63178, Note_off_c, 0, 60, 100
1, 63178, Note_on_c, 0, 57, 100
1, 63226, Note_off_c, 0, 57, 100
1, 63226, Note_on_c, 0, 60, 100
1, 63466, Note_off_c, 0, 60, 100
1, 63466, Note_on_c, 0, 60, 100
1, 63754, Note_off_c, 0, 60, 100
1, 63754, Note_on_c, 0, 59, 100
1, 63850, Note_off_c, 0, 59, 100
1, 64138, Note_on_c, 0, 60, 100
1, 64234, Note_off_c, 0, 60, 100
1, 64234, Note_on_c, 0, 62, 100
1, 64258, Note_off_c, 0, 62, 100
1, 64258, Note_on_c, 0, 63, 100
1, 64282, Note_off_c, 0, 63, 100
1, 64282, Note_on_c, 0, 64, 100
1, 64378, Note_off_c, 0, 64, 100
1, 64378, Note_on_c, 0, 65, 100
1, 64402, Note_off_c, 0, 65, 100
1, 64402, Note_on_c, 0, 66, 100
1, 64474, Note_off_c, 0, 66, 100
1, 64474, Note_on_c, 0, 67, 100
1, 64522, Note_off_c, 0, 67, 100
1, 64522, Note_on_c, 0, 68, 100
1, 64570, Note_off_c, 0, 68, 100
1, 64570, Note_on_c, 0, 69, 100
1, 64810, Note_off_c, 0, 69, 100
1, 64810, Note_on_c, 0, 68, 100
1, 64858, Note_off_c, 0, 68, 100
1, 64858, Note_on_c, 0, 69, 100
1, 65146, Note_off_c, 0, 69, 100
1, 65146, Note_on_c, 0, 69, 100
1, 65338, Note_off_c, 0, 69, 100
1, 65578, Note_on_c, 0, 66, 100
1, 65770, Note_off_c, 0, 66, 100
1, 65770, Note_on_c, 0, 66, 100
1, 65866, Note_off_c, 0, 66, 100
1, 65866, Note_on_c, 0, 65, 100
1, 65962, Note_off_c, 0, 65, 100
1, 65962, Note_on_c, 0, 64, 100
1, 66154, Note_off_c, 0, 64, 100
1, 66154, Note_on_c, 0, 66, 100
1, 66346, Note_off_c, 0, 66, 100
1, 66346, Note_on_c, 0, 69, 100
1, 66442, Note_off_c, 0, 69, 100
1, 66682, Note_on_c, 0, 66, 100
1, 66730, Note_off_c, 0, 66, 100
1, 66730, Note_on_c, 0, 71, 100
1, 66826, Note_off_c, 0, 71, 100
1, 66826, Note_on_c, 0, 78, 100
1, 66874, Note_off_c, 0, 78, 100
1, 66874, Note_on_c, 0, 76, 100
1, 66922, Note_off_c, 0, 76, 100
1, 66922, Note_on_c, 0, 73, 100
1, 66954, Note_off_c, 0, 73, 100
1, 66954, Note_on_c, 0, 72, 100
1, 66986, Note_off_c, 0, 72, 100
1, 66986, Note_on_c, 0, 69, 100
1, 67018, Note_off_c, 0, 69, 100
1, 67018, Note_on_c, 0, 71, 100
1, 67082, Note_off_c, 0, 71, 100
1, 67082, Note_on_c, 0, 66, 100
1, 67114, Note_off_c, 0, 66, 100
1, 67114, Note_on_c, 0, 64, 100
1, 67162, Note_off_c, 0, 64, 100
1, 67162, Note_on_c, 0, 62, 100
1, 67210, Note_off_c, 0, 62, 100
1, 67210, Note_on_c, 0, 69, 100
1, 67258, Note_off_c, 0, 69, 100
1, 67258, Note_on_c, 0, 66, 100
1, 67306, Note_off_c, 0, 66, 100
1, 67306, Note_on_c, 0, 64, 100
1, 67402, Note_off_c, 0, 64, 100
1, 67402, Note_on_c, 0, 61, 100
1, 67450, Note_off_c, 0, 61, 100
1, 67450, Note_on_c, 0, 62, 100
1, 67498, Note_off_c, 0, 62, 100
1, 67498, Note_on_c, 0, 64, 100
1, 67546, Note_off_c, 0, 64, 100
1, 67546, Note_on_c, 0, 65, 100
1, 67642, Note_off_c, 0, 65, 100
1, 67642, Note_on_c, 0, 67, 100
1, 67690, Note_off_c, 0, 67, 100
1, 67690, Note_on_c, 0, 62, 100
1, 67738, Note_off_c, 0, 62, 100
1, 67738, Note_on_c, 0, 68, 100
1, 67786, Note_off_c, 0, 68, 100
1, 67786, Note_on_c, 0, 69, 100
1, 68170, Note_off_c, 0, 69, 100
1, 68170, Note_on_c, 0, 68, 100
1, 68218, Note_off_c, 0, 68, 100
1, 68218, Note_on_c, 0, 69, 100
1, 68314, Note_off_c, 0, 69, 100
1, 68314, Note_on_c, 0, 68, 100
1, 68362, Note_off_c, 0, 68, 100
1, 68362, Note_on_c, 0, 69, 100
1, 68410, Note_off_c, 0, 69, 100
1, 68410, Note_on_c, 0, 68, 100
1, 68458, Note_off_c, 0, 68, 100
1, 68458, Note_on_c, 0, 65, 100
1, 68554, Note_off_c, 0, 65, 100
1, 68554, Note_on_c, 0, 63, 100
1, 68602, Note_off_c, 0, 63, 100
1, 68602, Note_on_c, 0, 64, 100
1, 68698, Note_off_c, 0, 64, 100
1, 68698, Note_on_c, 0, 63, 100
1, 68746, Note_off_c, 0, 63, 100
1, 68746, Note_on_c, 0, 64, 100
1, 68842, Note_off_c, 0, 64, 100
1, 68842, Note_on_c, 0, 62, 100
1, 68986, Note_off_c, 0, 62, 100
1, 68986, Note_on_c, 0, 67, 100
1, 69322, Note_off_c, 0, 67, 100
1, 69322, Note_on_c, 0, 64, 100
1, 69370, Note_off_c, 0, 64, 100
1, 69370, Note_on_c, 0, 67, 100
1, 69466, Note_off_c, 0, 67, 100
1, 69466, Note_on_c, 0, 68, 100
1, 69514, Note_off_c, 0, 68, 100
1, 69514, Note_on_c, 0, 67, 100
1, 69562, Note_off_c, 0, 67, 100
1, 69562, Note_on_c, 0, 66, 100
1, 69658, Note_off_c, 0, 66, 100
1, 69922, Note_on_c, 0, 67, 100
1, 69946, Note_off_c, 0, 67, 100
1, 69946, Note_on_c, 0, 68, 100
1, 69970, Note_off_c, 0, 68, 100
1, 69970, Note_on_c, 0, 69, 100
1, 70090, Note_off_c, 0, 69, 100
1, 70090, Note_on_c, 0, 64, 100
1, 70138, Note_off_c, 0, 64, 100
1, 70138, Note_on_c, 0, 69, 100
1, 70250, Note_off_c, 0, 69, 100
1, 70250, Note_on_c, 0, 69, 100
1, 70314, Note_off_c, 0, 69, 100
1, 70314, Note_on_c, 0, 70, 100
1, 70570, Note_off_c, 0, 70, 100
1, 70570, Note_on_c, 0, 70, 100
1, 70634, Note_off_c, 0, 70, 100
1, 70634, Note_on_c, 0, 70, 100
1, 70698, Note_off_c, 0, 70, 100
1, 70698, Note_on_c, 0, 74, 100
1, 70762, Note_off_c, 0, 74, 100
1, 70762, Note_on_c, 0, 71, 100
1, 71030, Note_off_c, 0, 71, 100
1, 71030, Note_on_c, 0, 69, 100
1, 71068, Note_off_c, 0, 69, 100
1, 71068, Note_on_c, 0, 67, 100
1, 71106, Note_off_c, 0, 67, 100
1, 71106, Note_on_c, 0, 71, 100
1, 71144, Note_off_c, 0, 71, 100
1, 71144, Note_on_c, 0, 67, 100
1, 71240, Note_off_c, 0, 67, 100
1, 71240, Note_on_c, 0, 64, 100
1, 71336, Note_off_c, 0, 64, 100
1, 71336, Note_on_c, 0, 68, 100
1, 71400, Note_off_c, 0, 68, 100
1, 71400, Note_on_c, 0, 69, 100
1, 71464, Note_off_c, 0, 69, 100
1, 71464, Note_on_c, 0, 68, 100
1, 71528, Note_off_c, 0, 68, 100
1, 71528, Note_on_c, 0, 65, 100
1, 71576, Note_off_c, 0, 65, 100
1, 71576, Note_on_c, 0, 64, 100
1, 71672, Note_off_c, 0, 64, 100
1, 71672, Note_on_c, 0, 62, 100
1, 71784, Note_off_c, 0, 62, 100
1, 71784, Note_on_c, 0, 62, 100
1, 71848, Note_off_c, 0, 62, 100
1, 71848, Note_on_c, 0, 60, 100
1, 71960, Note_off_c, 0, 60, 100
1, 71960, Note_on_c, 0, 59, 100
1, 72056, Note_off_c, 0, 59, 100
1, 72056, Note_on_c, 0, 57, 100
1, 72392, Note_off_c, 0, 57, 100
1, 72392, Note_on_c, 0, 62, 100
1, 72552, Note_off_c, 0, 62, 100
1, 72552, Note_on_c, 0, 64, 100
1, 72680, Note_off_c, 0, 64, 100
1, 72680, Note_on_c, 0, 60, 100
1, 72824, Note_off_c, 0, 60, 100
1, 72824, Note_on_c, 0, 62, 100
1, 72968, Note_off_c, 0, 62, 100
1, 72968, Note_on_c, 0, 59, 100
1, 73160, Note_off_c, 0, 59, 100
1, 73160, Note_on_c, 0, 59, 100
1, 73256, Note_off_c, 0, 59, 100
1, 73544, Note_on_c, 0, 46, 100
1, 73592, Note_off_c, 0, 46, 100
1, 73592, Note_on_c, 0, 48, 100
1, 73640, Note_off_c, 0, 48, 100
1, 73640, Note_on_c, 0, 52, 100
1, 73736, Note_off_c, 0, 52, 100
1, 73736, Note_on_c, 0, 55, 100
1, 73832, Note_off_c, 0, 55, 100
1, 73832, Note_on_c, 0, 58, 100
1, 73928, Note_off_c, 0, 58, 100
1, 73928, Note_on_c, 0, 59, 100
1, 74024, Note_off_c, 0, 59, 100
1, 74024, Note_on_c, 0, 60, 100
1, 74120, Note_off_c, 0, 60, 100
1, 74120, Note_on_c, 0, 57, 100
1, 74360, Note_off_c, 0, 57, 100
1, 74360, Note_on_c, 0, 55, 100
1, 74408, Note_off_c, 0, 55, 100
1, 74408, Note_on_c, 0, 53, 100
1, 74504, Note_off_c, 0, 53, 100
1, 74504, Note_on_c, 0, 55, 100
1, 74600, Note_off_c, 0, 55, 100
1, 74600, Note_on_c, 0, 62, 100
1, 74648, Note_off_c, 0, 62, 100
1, 74648, Note_on_c, 0, 65, 100
1, 74898, Note_off_c, 0, 65, 100
1, 74898, Note_on_c, 0, 64, 100
1, 74940, Note_off_c, 0, 64, 100
1, 74940, Note_on_c, 0, 62, 100
1, 74961, Note_off_c, 0, 62, 100
1, 74961, Note_on_c, 0, 60, 100
1, 75046, Note_off_c, 0, 60, 100
1, 75046, Note_on_c, 0, 59, 100
1, 75174, Note_off_c, 0, 59, 100
1, 75174, Note_on_c, 0, 55, 100
1, 75222, Note_off_c, 0, 55, 100
1, 75222, Note_on_c, 0, 62, 100
1, 75318, Note_off_c, 0, 62, 100
1, 75318, Note_on_c, 0, 60, 100
1, 75414, Note_off_c, 0, 60, 100
1, 75798, Note_on_c, 0, 63, 100
1, 75846, Note_off_c, 0, 63, 100
1, 75846, Note_on_c, 0, 65, 100
1, 75894, Note_off_c, 0, 65, 100
1, 75894, Note_on_c, 0, 67, 100
1, 75942, Note_off_c, 0, 67, 100
1, 75942, Note_on_c, 0, 70, 100
1, 75990, Note_off_c, 0, 70, 100
1, 75990, Note_on_c, 0, 68, 100
1, 76038, Note_off_c, 0, 68, 100
1, 76038, Note_on_c, 0, 67, 100
1, 76086, Note_off_c, 0, 67, 100
1, 76086, Note_on_c, 0, 66, 100
1, 76198, Note_off_c, 0, 66, 100
1, 76198, Note_on_c, 0, 65, 100
1, 76262, Note_off_c, 0, 65, 100
1, 76262, Note_on_c, 0, 64, 100
1, 76326, Note_off_c, 0, 64, 100
1, 76326, Note_on_c, 0, 62, 100
1, 76358, Note_off_c, 0, 62, 100
1, 76358, Note_on_c, 0, 63, 100
1, 76422, Note_off_c, 0, 63, 100
1, 76422, Note_on_c, 0, 60, 100
1, 76454, Note_off_c, 0, 60, 100
1, 76454, Note_on_c, 0, 59, 100
1, 76486, Note_off_c, 0, 59, 100
1, 76486, Note_on_c, 0, 56, 100
1, 76582, Note_off_c, 0, 56, 100
1, 76582, Note_on_c, 0, 55, 100
1, 76710, Note_off_c, 0, 55, 100
1, 76710, Note_on_c, 0, 60, 100
1, 76806, Note_off_c, 0, 60, 100
1, 76806, Note_on_c, 0, 62, 100
1, 76925, Note_off_c, 0, 62, 100
1, 76925, End_track
0, 0, End_of_file
