0, 0, Header, 1, 1, 192
1, 0, Start_track
1, 0, Title_t, "Melody"
1, 0, Tempo, 298507
1, 0, Key_signature, -3, "major"
1, 0, Time_signature, 4, 2, 24, 8
1, 144, Note_on_c, 0, 67, 100
1, 192, Note_off_c, 0, 67, 100
1, 192, Note_on_c, 0, 65, 100
1, 288, Note_off_c, 0, 65, 100
1, 288, Note_on_c, 0, 63, 100
1, 384, Note_off_c, 0, 63, 100
1, 384, Note_on_c, 0, 62, 100
1, 480, Note_off_c, 0, 62, 100
1, 480, Note_on_c, 0, 63, 100
1, 624, Note_off_c, 0, 63, 100
1, 624, Note_on_c, 0, 65, 100
1, 720, Note_off_c, 0, 65, 100
1, 720, Note_on_c, 0, 67, 100
1, 816, Note_off_c, 0, 67, 100
1, 816, Note_on_c, 0, 70, 100
1, 912, Note_off_c, 0, 70, 100
1, 912, Note_on_c, 0, 71, 100
1, 960, Note_off_c, 0, 71, 100
1, 960, Note_on_c, 0, 72, 100
1, 1008, Note_off_c, 0, 72, 100
1, 1008, Note_on_c, 0, 73, 100
1, 1104, Note_off_c, 0, 73, 100
1, 1104, Note_on_c, 0, 74, 100
1, 1248, Note_off_c, 0, 74, 100
1, 1248, Note_on_c, 0, 71, 100
1, 1344, Note_off_c, 0, 71, 100
1, 1344, Note_on_c, 0, 67, 100
1, 1536, Note_off_c, 0, 67, 100
1, 1536, Note_on_c, 0, 70, 100
1, 1680, Note_off_c, 0, 70, 100
1, 1680, Note_on_c, 0, 71, 100
1, 1872, Note_off_c, 0, 71, 100
1, 1872, Note_on_c, 0, 66, 100
1, 1968, Note_off_c, 0, 66, 100
1, 1968, Note_on_c, 0, 70, 100
1, 2064, Note_off_c, 0, 70, 100
1, 2064, Note_on_c, 0, 67, 100
1, 2112, Note_off_c, 0, 67, 100
1, 2112, Note_on_c, 0, 65, 100
1, 2208, Note_off_c, 0, 65, 100
1, 2208, Note_on_c, 0, 65, 100
1, 2304, Note_off_c, 0, 65, 100
1, 2304, Note_on_c, 0, 67, 100
1, 2400, Note_off_c, 0, 67, 100
1, 2688, Note_on_c, 0, 65, 100
1, 2784, Note_off_c, 0, 65, 100
1, 2784, Note_on_c, 0, 63, 100
1, 2880, Note_off_c, 0, 63, 100
1, 3072, Note_on_c, 0, 62, 100
1, 3168, Note_off_c, 0, 62, 100
1, 3168, Note_on_c, 0, 63, 100
1, 3264, Note_off_c, 0, 63, 100
1, 3264, Note_on_c, 0, 65, 100
1, 3456, Note_off_c, 0, 65, 100
1, 3456, Note_on_c, 0, 63, 100
1, 3648, Note_off_c, 0, 63, 100
1, 3648, Note_on_c, 0, 60, 100
1, 3840, Note_off_c, 0, 60, 100
1, 3840, Note_on_c, 0, 63, 100
1, 4224, Note_off_c, 0, 63, 100
1, 4224, Note_on_c, 0, 65, 100
1, 4320, Note_off_c, 0, 65, 100
1, 4800, Note_on_c, 0, 67, 100
1, 4928, Note_off_c, 0, 67, 100
1, 4928, Note_on_c, 0, 65, 100
1, 4992, Note_off_c, 0, 65, 100
1, 4992, Note_on_c, 0, 63, 100
1, 5120, Note_off_c, 0, 63, 100
1, 5120, Note_on_c, 0, 62, 100
1, 5280, Note_off_c, 0, 62, 100
1, 5280, Note_on_c, 0, 60, 100
1, 5520, Note_off_c, 0, 60, 100
1, 5520, Note_on_c, 0, 63, 100
1, 5760, Note_off_c, 0, 63, 100
1, 5760, Note_on_c, 0, 62, 100
1, 5952, Note_off_c, 0, 62, 100
1, 5952, Note_on_c, 0, 58, 100
1, 6144, Note_off_c, 0, 58, 100
1, 6144, Note_on_c, 0, 62, 100
1, 6240, Note_off_c, 0, 62, 100
1, 6528, Note_on_c, 0, 60, 100
1, 6672, Note_off_c, 0, 60, 100
1, 6672, Note_on_c, 0, 58, 100
1, 6720, Note_off_c, 0, 58, 100
1, 6720, Note_on_c, 0, 55, 100
1, 6912, Note_off_c, 0, 55, 100
1, 6912, Note_on_c, 0, 55, 100
1, 7296, Note_off_c, 0, 55, 100
1, 7296, Note_on_c, 0, 55, 100
1, 7392, Note_off_c, 0, 55, 100
1, 8640, Note_on_c, 0, 67, 100
1, 8832, Note_off_c, 0, 67, 100
1, 8832, Note_on_c, 0, 71, 100
1, 9216, Note_off_c, 0, 71, 100
1, 9216, Note_on_c, 0, 74, 100
1, 9408, Note_off_c, 0, 74, 100
1, 9408, Note_on_c, 0, 65, 100
1, 9504, Note_off_c, 0, 65, 100
1, 9984, Note_on_c, 0, 63, 100
1, 10368, Note_off_c, 0, 63, 100
1, 10368, Note_on_c, 0, 72, 100
1, 10560, Note_off_c, 0, 72, 100
1, 10560, Note_on_c, 0, 62, 100
1, 10752, Note_off_c, 0, 62, 100
1, 10752, Note_on_c, 0, 60, 100
1, 10944, Note_off_c, 0, 60, 100
1, 10944, Note_on_c, 0, 63, 100
1, 11136, Note_off_c, 0, 63, 100
1, 11136, Note_on_c, 0, 57, 100
1, 11232, Note_off_c, 0, 57, 100
1, 12096, Note_on_c, 0, 67, 100
1, 12288, Note_off_c, 0, 67, 100
1, 12288, Note_on_c, 0, 70, 100
1, 12480, Note_off_c, 0, 70, 100
1, 12480, Note_on_c, 0, 71, 100
1, 12624, Note_off_c, 0, 71, 100
1, 12624, Note_on_c, 0, 74, 100
1, 12736, Note_off_c, 0, 74, 100
1, 12736, Note_on_c, 0, 67, 100
1, 12864, Note_off_c, 0, 67, 100
1, 12864, Note_on_c, 0, 71, 100
1, 13008, Note_off_c, 0, 71, 100
1, 13008, Note_on_c, 0, 70, 100
1, 13200, Note_off_c, 0, 70, 100
1, 13200, Note_on_c, 0, 67, 100
1, 13392, Note_off_c, 0, 67, 100
1, 13392, Note_on_c, 0, 63, 100
1, 13488, Note_off_c, 0, 63, 100
1, 13488, Note_on_c, 0, 65, 100
1, 13584, Note_off_c, 0, 65, 100
1, 13584, Note_on_c, 0, 62, 100
1, 13632, Note_off_c, 0, 62, 100
1, 13632, Note_on_c, 0, 63, 100
1, 13728, Note_off_c, 0, 63, 100
1, 13728, Note_on_c, 0, 67, 100
1, 13824, Note_off_c, 0, 67, 100
1, 13824, Note_on_c, 0, 66, 100
1, 13920, Note_off_c, 0, 66, 100
1, 13920, Note_on_c, 0, 62, 100
1, 14016, Note_off_c, 0, 62, 100
1, 14016, Note_on_c, 0, 65, 100
1, 14208, Note_off_c, 0, 65, 100
1, 14208, Note_on_c, 0, 63, 100
1, 14304, Note_off_c, 0, 63, 100
1, 14304, Note_on_c, 0, 62, 100
1, 14400, Note_off_c, 0, 62, 100
1, 14400, Note_on_c, 0, 60, 100
1, 14496, Note_off_c, 0, 60, 100
1, 14496, Note_on_c, 0, 58, 100
1, 14688, Note_off_c, 0, 58, 100
1, 14688, Note_on_c, 0, 62, 100
1, 14784, Note_off_c, 0, 62, 100
1, 14784, Note_on_c, 0, 59, 100
1, 14976, Note_off_c, 0, 59, 100
1, 14976, Note_on_c, 0, 60, 100
1, 15168, Note_off_c, 0, 60, 100
1, 15168, Note_on_c, 0, 58, 100
1, 15360, Note_off_c, 0, 58, 100
1, 15360, Note_on_c, 0, 53, 100
1, 15456, Note_off_c, 0, 53, 100
1, 15744, Note_on_c, 0, 51, 100
1, 15984, Note_off_c, 0, 51, 100
1, 15984, Note_on_c, 0, 53, 100
1, 16080, Note_off_c, 0, 53, 100
1, 16080, Note_on_c, 0, 55, 100
1, 16176, Note_off_c, 0, 55, 100
1, 16512, Note_on_c, 0, 58, 100
1, 16768, Note_off_c, 0, 58, 100
1, 16768, Note_on_c, 0, 56, 100
1, 16896, Note_off_c, 0, 56, 100
1, 16896, Note_on_c, 0, 55, 100
1, 16992, Note_off_c, 0, 55, 100
1, 17232, Note_on_c, 0, 62, 100
1, 17344, Note_off_c, 0, 62, 100
1, 17344, Note_on_c, 0, 65, 100
1, 17472, Note_off_c, 0, 65, 100
1, 17472, Note_on_c, 0, 63, 100
1, 17616, Note_off_c, 0, 63, 100
1, 17616, Note_on_c, 0, 65, 100
1, 17728, Note_off_c, 0, 65, 100
1, 17728, Note_on_c, 0, 66, 100
1, 17856, Note_off_c, 0, 66, 100
1, 17856, Note_on_c, 0, 67, 100
1, 17904, Note_off_c, 0, 67, 100
1, 17904, Note_on_c, 0, 70, 100
1, 18000, Note_off_c, 0, 70, 100
1, 18000, Note_on_c, 0, 69, 100
1, 18112, Note_off_c, 0, 69, 100
1, 18112, Note_on_c, 0, 68, 100
1, 18288, Note_off_c, 0, 68, 100
1, 18288, Note_on_c, 0, 66, 100
1, 18384, Note_off_c, 0, 66, 100
1, 18384, Note_on_c, 0, 68, 100
1, 18432, Note_off_c, 0, 68, 100
1, 18432, Note_on_c, 0, 67, 100
1, 18528, Note_off_c, 0, 67, 100
1, 18528, Note_on_c, 0, 64, 100
1, 18624, Note_off_c, 0, 64, 100
1, 18624, Note_on_c, 0, 65, 100
1, 18752, Note_off_c, 0, 65, 100
1, 18752, Note_on_c, 0, 61, 100
1, 18912, Note_off_c, 0, 61, 100
1, 18912, Note_on_c, 0, 58, 100
1, 19008, Note_off_c, 0, 58, 100
1, 19008, Note_on_c, 0, 54, 100
1, 19200, Note_off_c, 0, 54, 100
1, 19200, Note_on_c, 0, 56, 100
1, 19392, Note_off_c, 0, 56, 100
1, 19392, Note_on_c, 0, 54, 100
1, 19488, Note_off_c, 0, 54, 100
1, 19488, Note_on_c, 0, 58, 100
1, 19584, Note_off_c, 0, 58, 100
1, 19584, Note_on_c, 0, 52, 100
1, 19872, Note_off_c, 0, 52, 100
1, 19872, Note_on_c, 0, 54, 100
1, 20064, Note_off_c, 0, 54, 100
1, 20608, Note_on_c, 0, 48, 100
1, 20736, Note_off_c, 0, 48, 100
1, 20736, Note_on_c, 0, 51, 100
1, 20832, Note_off_c, 0, 51, 100
1, 20832, Note_on_c, 0, 53, 100
1, 20928, Note_off_c, 0, 53, 100
1, 20928, Note_on_c, 0, 51, 100
1, 21072, Note_off_c, 0, 51, 100
1, 21072, Note_on_c, 0, 54, 100
1, 21120, Note_off_c, 0, 54, 100
1, 21120, Note_on_c, 0, 58, 100
1, 21312, Note_off_c, 0, 58, 100
1, 21312, Note_on_c, 0, 56, 100
1, 21408, Note_off_c, 0, 56, 100
1, 21408, Note_on_c, 0, 60, 100
1, 21504, Note_off_c, 0, 60, 100
1, 21648, Note_on_c, 0, 58, 100
1, 21840, Note_off_c, 0, 58, 100
1, 21840, Note_on_c, 0, 62, 100
1, 21888, Note_off_c, 0, 62, 100
1, 21888, Note_on_c, 0, 63, 100
1, 21936, Note_off_c, 0, 63, 100
1, 21936, Note_on_c, 0, 65, 100
1, 22032, Note_off_c, 0, 65, 100
1, 22032, Note_on_c, 0, 67, 100
1, 22176, Note_off_c, 0, 67, 100
1, 22176, Note_on_c, 0, 68, 100
1, 22336, Note_off_c, 0, 68, 100
1, 22336, Note_on_c, 0, 67, 100
1, 22432, Note_off_c, 0, 67, 100
1, 22656, Note_on_c, 0, 65, 100
1, 22800, Note_off_c, 0, 65, 100
1, 22800, Note_on_c, 0, 64, 100
1, 22848, Note_off_c, 0, 64, 100
1, 22848, Note_on_c, 0, 65, 100
1, 23040, Note_off_c, 0, 65, 100
1, 23040, Note_on_c, 0, 65, 100
1, 23168, Note_off_c, 0, 65, 100
1, 23168, Note_on_c, 0, 63, 100
1, 23280, Note_off_c, 0, 63, 100
1, 23280, Note_on_c, 0, 62, 100
1, 23376, Note_off_c, 0, 62, 100
1, 23376, Note_on_c, 0, 60, 100
1, 23424, Note_off_c, 0, 60, 100
1, 23424, Note_on_c, 0, 59, 100
1, 23664, Note_off_c, 0, 59, 100
1, 23664, Note_on_c, 0, 62, 100
1, 23760, Note_off_c, 0, 62, 100
1, 23760, Note_on_c, 0, 60, 100
1, 23856, Note_off_c, 0, 60, 100
1, 23856, Note_on_c, 0, 60, 100
1, 23952, Note_off_c, 0, 60, 100
1, 23952, Note_on_c, 0, 62, 100
1, 24096, Note_off_c, 0, 62, 100
1, 24096, Note_on_c, 0, 63, 100
1, 24144, Note_off_c, 0, 63, 100
1, 24144, Note_on_c, 0, 67, 100
1, 24192, Note_off_c, 0, 67, 100
1, 24192, Note_on_c, 0, 72, 100
1, 24288, Note_off_c, 0, 72, 100
1, 25008, Note_on_c, 0, 71, 100
1, 25056, Note_off_c, 0, 71, 100
1, 25056, Note_on_c, 0, 72, 100
1, 25104, Note_off_c, 0, 72, 100
1, 25104, Note_on_c, 0, 75, 100
1, 25584, Note_off_c, 0, 75, 100
1, 25584, Note_on_c, 0, 74, 100
1, 25680, Note_off_c, 0, 74, 100
1, 25680, Note_on_c, 0, 71, 100
1, 25776, Note_off_c, 0, 71, 100
1, 25776, Note_on_c, 0, 67, 100
1, 26064, Note_off_c, 0, 67, 100
1, 26064, Note_on_c, 0, 71, 100
1, 26112, Note_off_c, 0, 71, 100
1, 26112, Note_on_c, 0, 69, 100
1, 26208, Note_off_c, 0, 69, 100
1, 26208, Note_on_c, 0, 65, 100
1, 26304, Note_off_c, 0, 65, 100
1, 26784, Note_on_c, 0, 65, 100
1, 26928, Note_off_c, 0, 65, 100
1, 26928, Note_on_c, 0, 69, 100
1, 27024, Note_off_c, 0, 69, 100
1, 27024, Note_on_c, 0, 71, 100
1, 27072, Note_off_c, 0, 71, 100
1, 27072, Note_on_c, 0, 75, 100
1, 27216, Note_off_c, 0, 75, 100
1, 27216, Note_on_c, 0, 71, 100
1, 27264, Note_off_c, 0, 71, 100
1, 27264, Note_on_c, 0, 74, 100
1, 27360, Note_off_c, 0, 74, 100
1, 27360, Note_on_c, 0, 71, 100
1, 27456, Note_off_c, 0, 71, 100
1, 27456, Note_on_c, 0, 67, 100
1, 27648, Note_off_c, 0, 67, 100
1, 27648, Note_on_c, 0, 69, 100
1, 27840, Note_off_c, 0, 69, 100
1, 27840, Note_on_c, 0, 74, 100
1, 27984, Note_off_c, 0, 74, 100
1, 27984, Note_on_c, 0, 72, 100
1, 28224, Note_off_c, 0, 72, 100
1, 28224, Note_on_c, 0, 71, 100
1, 28352, Note_off_c, 0, 71, 100
1, 28352, Note_on_c, 0, 69, 100
1, 28416, Note_off_c, 0, 69, 100
1, 28416, Note_on_c, 0, 68, 100
1, 28512, Note_off_c, 0, 68, 100
1, 28512, Note_on_c, 0, 71, 100
1, 28608, Note_off_c, 0, 71, 100
1, 28608, Note_on_c, 0, 68, 100
1, 28704, Note_off_c, 0, 68, 100
1, 28704, Note_on_c, 0, 67, 100
1, 28800, Note_off_c, 0, 67, 100
1, 28800, Note_on_c, 0, 66, 100
1, 28896, Note_off_c, 0, 66, 100
1, 28896, Note_on_c, 0, 67, 100
1, 28992, Note_off_c, 0, 67, 100
1, 28992, Note_on_c, 0, 68, 100
1, 29088, Note_off_c, 0, 68, 100
1, 29088, Note_on_c, 0, 71, 100
1, 29184, Note_off_c, 0, 71, 100
1, 29184, Note_on_c, 0, 66, 100
1, 29376, Note_off_c, 0, 66, 100
1, 29376, Note_on_c, 0, 64, 100
1, 29504, Note_off_c, 0, 64, 100
1, 29504, Note_on_c, 0, 66, 100
1, 29808, Note_off_c, 0, 66, 100
1, 29808, Note_on_c, 0, 63, 100
1, 30000, Note_off_c, 0, 63, 100
1, 30000, Note_on_c, 0, 67, 100
1, 30288, Note_off_c, 0, 67, 100
1, 30912, Note_on_c, 0, 66, 100
1, 31040, Note_off_c, 0, 66, 100
1, 31040, Note_on_c, 0, 65, 100
1, 31680, Note_off_c, 0, 65, 100
1, 31680, Note_on_c, 0, 63, 100
1, 31872, Note_off_c, 0, 63, 100
1, 31872, Note_on_c, 0, 67, 100
1, 32256, Note_off_c, 0, 67, 100
1, 32256, Note_on_c, 0, 65, 100
1, 32352, Note_off_c, 0, 65, 100
1, 32352, Note_on_c, 0, 63, 100
1, 32448, Note_off_c, 0, 63, 100
1, 32448, Note_on_c, 0, 59, 100
1, 32544, Note_off_c, 0, 59, 100
1, 32544, Note_on_c, 0, 55, 100
1, 32640, Note_off_c, 0, 55, 100
1, 33360, Note_on_c, 0, 58, 100
1, 33456, Note_off_c, 0, 58, 100
1, 33456, Note_on_c, 0, 57, 100
1, 33504, Note_off_c, 0, 57, 100
1, 33504, Note_on_c, 0, 55, 100
1, 33552, Note_off_c, 0, 55, 100
1, 33552, Note_on_c, 0, 54, 100
1, 33600, Note_off_c, 0, 54, 100
1, 33600, Note_on_c, 0, 55, 100
1, 33648, Note_off_c, 0, 55, 100
1, 33648, Note_on_c, 0, 57, 100
1, 33696, Note_off_c, 0, 57, 100
1, 33696, Note_on_c, 0, 54, 100
1, 33744, Note_off_c, 0, 54, 100
1, 33744, Note_on_c, 0, 53, 100
1, 33792, Note_off_c, 0, 53, 100
1, 33792, Note_on_c, 0, 52, 100
1, 33840, Note_off_c, 0, 52, 100
1, 33840, Note_on_c, 0, 53, 100
1, 33888, Note_off_c, 0, 53, 100
1, 33888, Note_on_c, 0, 50, 100
1, 33936, Note_off_c, 0, 50, 100
1, 33936, Note_on_c, 0, 51, 100
1, 33984, Note_off_c, 0, 51, 100
1, 33984, Note_on_c, 0, 52, 100
1, 34032, Note_off_c, 0, 52, 100
1, 34032, Note_on_c, 0, 54, 100
1, 34080, Note_off_c, 0, 54, 100
1, 34080, Note_on_c, 0, 56, 100
1, 34128, Note_off_c, 0, 56, 100
1, 34128, Note_on_c, 0, 55, 100
1, 34176, Note_off_c, 0, 55, 100
1, 34176, Note_on_c, 0, 53, 100
1, 34240, Note_off_c, 0, 53, 100
1, 34240, Note_on_c, 0, 55, 100
1, 34304, Note_off_c, 0, 55, 100
1, 34304, Note_on_c, 0, 58, 100
1, 34416, Note_off_c, 0, 58, 100
1, 34416, Note_on_c, 0, 56, 100
1, 34464, Note_off_c, 0, 56, 100
1, 34464, Note_on_c, 0, 55, 100
1, 34512, Note_off_c, 0, 55, 100
1, 34512, Note_on_c, 0, 56, 100
1, 34608, Note_off_c, 0, 56, 100
1, 34608, Note_on_c, 0, 56, 100
1, 34656, Note_off_c, 0, 56, 100
1, 34656, Note_on_c, 0, 63, 100
1, 34704, Note_off_c, 0, 63, 100
1, 34704, Note_on_c, 0, 58, 100
1, 34790, Note_off_c, 0, 58, 100
1, 34790, Note_on_c, 0, 59, 100
1, 34828, Note_off_c, 0, 59, 100
1, 34828, Note_on_c, 0, 61, 100
1, 34866, Note_off_c, 0, 61, 100
1, 34866, Note_on_c, 0, 62, 100
1, 34904, Note_off_c, 0, 62, 100
1, 34904, Note_on_c, 0, 65, 100
1, 35019, Note_off_c, 0, 65, 100
1, 35019, Note_on_c, 0, 63, 100
1, 35057, Note_off_c, 0, 63, 100
1, 35057, Note_on_c, 0, 62, 100
1, 35095, Note_off_c, 0, 62, 100
1, 35095, Note_on_c, 0, 64, 100
1, 35133, Note_off_c, 0, 64, 100
1, 35133, Note_on_c, 0, 68, 100
1, 35229, Note_off_c, 0, 68, 100
1, 35229, Note_on_c, 0, 70, 100
1, 35325, Note_off_c, 0, 70, 100
1, 35325, Note_on_c, 0, 67, 100
1, 35373, Note_off_c, 0, 67, 100
1, 35373, Note_on_c, 0, 66, 100
1, 35421, Note_off_c, 0, 66, 100
1, 35421, Note_on_c, 0, 65, 100
1, 35469, Note_off_c, 0, 65, 100
1, 35469, Note_on_c, 0, 64, 100
1, 35517, Note_off_c, 0, 64, 100
1, 35517, Note_on_c, 0, 68, 100
1, 35709, Note_off_c, 0, 68, 100
1, 35709, Note_on_c, 0, 66, 100
1, 35805, Note_off_c, 0, 66, 100
1, 35805, Note_on_c, 0, 64, 100
1, 35853, Note_off_c, 0, 64, 100
1, 35853, Note_on_c, 0, 65, 100
1, 35901, Note_off_c, 0, 65, 100
1, 35901, Note_on_c, 0, 63, 100
1, 35997, Note_off_c, 0, 63, 100
1, 35997, Note_on_c, 0, 64, 100
1, 36093, Note_off_c, 0, 64, 100
1, 36477, Note_on_c, 0, 63, 100
1, 36525, Note_off_c, 0, 63, 100
1, 36525, Note_on_c, 0, 62, 100
1, 36573, Note_off_c, 0, 62, 100
1, 36573, Note_on_c, 0, 61, 100
1, 36621, Note_off_c, 0, 61, 100
1, 36621, Note_on_c, 0, 58, 100
1, 36669, Note_off_c, 0, 58, 100
1, 36669, Note_on_c, 0, 58, 100
1, 36765, Note_off_c, 0, 58, 100
1, 36765, Note_on_c, 0, 57, 100
1, 36813, Note_off_c, 0, 57, 100
1, 36813, Note_on_c, 0, 55, 100
1, 36925, Note_off_c, 0, 55, 100
1, 36925, Note_on_c, 0, 58, 100
1, 36989, Note_off_c, 0, 58, 100
1, 36989, Note_on_c, 0, 63, 100
1, 37117, Note_off_c, 0, 63, 100
1, 37117, Note_on_c, 0, 55, 100
1, 37181, Note_off_c, 0, 55, 100
1, 37181, Note_on_c, 0, 53, 100
1, 37245, Note_off_c, 0, 53, 100
1, 37245, Note_on_c, 0, 50, 100
1, 37341, Note_off_c, 0, 50, 100
1, 37341, Note_on_c, 0, 54, 100
1, 37389, Note_off_c, 0, 54, 100
1, 37389, Note_on_c, 0, 57, 100
1, 37437, Note_off_c, 0, 57, 100
1, 37437, Note_on_c, 0, 56, 100
1, 37485, Note_off_c, 0, 56, 100
1, 37485, Note_on_c, 0, 53, 100
1, 37533, Note_off_c, 0, 53, 100
1, 37533, Note_on_c, 0, 49, 100
1, 37581, Note_off_c, 0, 49, 100
1, 37581, Note_on_c, 0, 53, 100
1, 37629, Note_off_c, 0, 53, 100
1, 37629, Note_on_c, 0, 51, 100
1, 37725, Note_off_c, 0, 51, 100
1, 37725, Note_on_c, 0, 50, 100
1, 37821, Note_off_c, 0, 50, 100
1, 37821, Note_on_c, 0, 57, 100
1, 37917, Note_off_c, 0, 57, 100
1, 37917, Note_on_c, 0, 62, 100
1, 38013, Note_off_c, 0, 62, 100
1, 38013, Note_on_c, 0, 57, 100
1, 38109, Note_off_c, 0, 57, 100
1, 38109, Note_on_c, 0, 65, 100
1, 38157, Note_off_c, 0, 65, 100
1, 38157, Note_on_c, 0, 68, 100
1, 38253, Note_off_c, 0, 68, 100
1, 38253, Note_on_c, 0, 67, 100
1, 38301, Note_off_c, 0, 67, 100
1, 38301, Note_on_c, 0, 65, 100
1, 38349, Note_off_c, 0, 65, 100
1, 38349, Note_on_c, 0, 63, 100
1, 38397, Note_off_c, 0, 63, 100
1, 38397, Note_on_c, 0, 62, 100
1, 38461, Note_off_c, 0, 62, 100
1, 38461, Note_on_c, 0, 63, 100
1, 38525, Note_off_c, 0, 63, 100
1, 38525, Note_on_c, 0, 67, 100
1, 38589, Note_off_c, 0, 67, 100
1, 38589, Note_on_c, 0, 70, 100
1, 38637, Note_off_c, 0, 70, 100
1, 38637, Note_on_c, 0, 75, 100
1, 38733, Note_off_c, 0, 75, 100
1, 38733, Note_on_c, 0, 72, 100
1, 38829, Note_off_c, 0, 72, 100
1, 39549, Note_on_c, 0, 81, 100
1, 40029, Note_off_c, 0, 81, 100
1, 40029, Note_on_c, 0, 79, 100
1, 40461, Note_off_c, 0, 79, 100
1, 40461, Note_on_c, 0, 82, 100
1, 40605, Note_off_c, 0, 82, 100
1, 40605, Note_on_c, 0, 79, 100
1, 40957, Note_off_c, 0, 79, 100
1, 40957, Note_on_c, 0, 83, 100
1, 41021, Note_off_c, 0, 83, 100
1, 41021, Note_on_c, 0, 82, 100
1, 41085, Note_off_c, 0, 82, 100
1, 41085, Note_on_c, 0, 79, 100
1, 41277, Note_off_c, 0, 79, 100
1, 41277, Note_on_c, 0, 82, 100
1, 41373, Note_off_c, 0, 82, 100
1, 41373, Note_on_c, 0, 78, 100
1, 41421, Note_off_c, 0, 78, 100
1, 41421, Note_on_c, 0, 79, 100
1, 41805, Note_off_c, 0, 79, 100
1, 41805, Note_on_c, 0, 77, 100
1, 42189, Note_off_c, 0, 77, 100
1, 43005, Note_on_c, 0, 82, 100
1, 43101, Note_off_c, 0, 82, 100
1, 43773, Note_on_c, 0, 80, 100
1, 43869, Note_off_c, 0, 80, 100
1, 43869, Note_on_c, 0, 79, 100
1, 43965, Note_off_c, 0, 79, 100
1, 43965, Note_on_c, 0, 77, 100
1, 44061, Note_off_c, 0, 77, 100
1, 44061, Note_on_c, 0, 75, 100
1, 44157, Note_off_c, 0, 75, 100
1, 44157, Note_on_c, 0, 73, 100
1, 44253, Note_off_c, 0, 73, 100
1, 44253, Note_on_c, 0, 70, 100
1, 44349, Note_off_c, 0, 70, 100
1, 44349, Note_on_c, 0, 66, 100
1, 44445, Note_off_c, 0, 66, 100
1, 44445, Note_on_c, 0, 63, 100
1, 44541, Note_off_c, 0, 63, 100
1, 44541, Note_on_c, 0, 68, 100
1, 44637, Note_off_c, 0, 68, 100
1, 44637, Note_on_c, 0, 65, 100
1, 44733, Note_off_c, 0, 65, 100
1, 44733, Note_on_c, 0, 61, 100
1, 44973, Note_off_c, 0, 61, 100
1, 44973, Note_on_c, 0, 63, 100
1, 45069, Note_off_c, 0, 63, 100
1, 45069, Note_on_c, 0, 66, 100
1, 45261, Note_off_c, 0, 66, 100
1, 45693, Note_on_c, 0, 65, 100
1, 45789, Note_off_c, 0, 65, 100
1, 45789, Note_on_c, 0, 67, 100
1, 45885, Note_off_c, 0, 67, 100
1, 45885, Note_on_c, 0, 74, 100
1, 46077, Note_off_c, 0, 74, 100
1, 46077, Note_on_c, 0, 74, 100
1, 46269, Note_off_c, 0, 74, 100
1, 46269, Note_on_c, 0, 72, 100
1, 46461, Note_off_c, 0, 72, 100
1, 46461, Note_on_c, 0, 75, 100
1, 46653, Note_off_c, 0, 75, 100
1, 46653, Note_on_c, 0, 74, 100
1, 46749, Note_off_c, 0, 74, 100
1, 46749, Note_on_c, 0, 72, 100
1, 47037, Note_off_c, 0, 72, 100
1, 47037, Note_on_c, 0, 70, 100
1, 47133, Note_off_c, 0, 70, 100
1, 47133, Note_on_c, 0, 67, 100
1, 47229, Note_off_c, 0, 67, 100
1, 47229, Note_on_c, 0, 65, 100
1, 47325, Note_off_c, 0, 65, 100
1, 47325, Note_on_c, 0, 65, 100
1, 47421, Note_off_c, 0, 65, 100
1, 47421, Note_on_c, 0, 63, 100
1, 47565, Note_off_c, 0, 63, 100
1, 47565, Note_on_c, 0, 65, 100
1, 47613, Note_off_c, 0, 65, 100
1, 47613, Note_on_c, 0, 67, 100
1, 47709, Note_off_c, 0, 67, 100
1, 47709, Note_on_c, 0, 67, 100
1, 47901, Note_off_c, 0, 67, 100
1, 47901, Note_on_c, 0, 65, 100
1, 47949, Note_off_c, 0, 65, 100
1, 47949, Note_on_c, 0, 64, 100
1, 47997, Note_off_c, 0, 64, 100
1, 47997, Note_on_c, 0, 62, 100
1, 48045, Note_off_c, 0, 62, 100
1, 48045, Note_on_c, 0, 59, 100
1, 48189, Note_off_c, 0, 59, 100
1, 48189, Note_on_c, 0, 62, 100
1, 48285, Note_off_c, 0, 62, 100
1, 48285, Note_on_c, 0, 60, 100
1, 48573, Note_off_c, 0, 60, 100
1, 48573, Note_on_c, 0, 63, 100
1, 48765, Note_off_c, 0, 63, 100
1, 48765, Note_on_c, 0, 65, 100
1, 49101, Note_off_c, 0, 65, 100
1, 49101, Note_on_c, 0, 63, 100
1, 49149, Note_off_c, 0, 63, 100
1, 49149, Note_on_c, 0, 65, 100
1, 49341, Note_off_c, 0, 65, 100
1, 49341, Note_on_c, 0, 65, 100
1, 49437, Note_off_c, 0, 65, 100
1, 49725, Note_on_c, 0, 66, 100
1, 49821, Note_off_c, 0, 66, 100
1, 49821, Note_on_c, 0, 68, 100
1, 49965, Note_off_c, 0, 68, 100
1, 49965, Note_on_c, 0, 66, 100
1, 50061, Note_off_c, 0, 66, 100
1, 50061, Note_on_c, 0, 64, 100
1, 50205, Note_off_c, 0, 64, 100
1, 50205, Note_on_c, 0, 67, 100
1, 50365, Note_off_c, 0, 67, 100
1, 50365, Note_on_c, 0, 62, 100
1, 50429, Note_off_c, 0, 62, 100
1, 50429, Note_on_c, 0, 66, 100
1, 50541, Note_off_c, 0, 66, 100
1, 50541, Note_on_c, 0, 64, 100
1, 50637, Note_off_c, 0, 64, 100
1, 50637, Note_on_c, 0, 61, 100
1, 50685, Note_off_c, 0, 61, 100
1, 50685, Note_on_c, 0, 59, 100
1, 50781, Note_off_c, 0, 59, 100
1, 50781, Note_on_c, 0, 58, 100
1, 50877, Note_off_c, 0, 58, 100
1, 50877, Note_on_c, 0, 54, 100
1, 51021, Note_off_c, 0, 54, 100
1, 51021, Note_on_c, 0, 53, 100
1, 51117, Note_off_c, 0, 53, 100
1, 51837, Note_on_c, 0, 70, 100
1, 51933, Note_off_c, 0, 70, 100
1, 51933, Note_on_c, 0, 71, 100
1, 52029, Note_off_c, 0, 71, 100
1, 52029, Note_on_c, 0, 72, 100
1, 52125, Note_off_c, 0, 72, 100
1, 52125, Note_on_c, 0, 73, 100
1, 52269, Note_off_c, 0, 73, 100
1, 52269, Note_on_c, 0, 71, 100
1, 52365, Note_off_c, 0, 71, 100
1, 52365, Note_on_c, 0, 69, 100
1, 52461, Note_off_c, 0, 69, 100
1, 52461, Note_on_c, 0, 68, 100
1, 52557, Note_off_c, 0, 68, 100
1, 52557, Note_on_c, 0, 71, 100
1, 52653, Note_off_c, 0, 71, 100
1, 52653, Note_on_c, 0, 68, 100
1, 52749, Note_off_c, 0, 68, 100
1, 52749, Note_on_c, 0, 67, 100
1, 52797, Note_off_c, 0, 67, 100
1, 52797, Note_on_c, 0, 66, 100
1, 52893, Note_off_c, 0, 66, 100
1, 52893, Note_on_c, 0, 70, 100
1, 53181, Note_off_c, 0, 70, 100
1, 53181, Note_on_c, 0, 65, 100
1, 53373, Note_off_c, 0, 65, 100
1, 53373, Note_on_c, 0, 64, 100
1, 53517, Note_off_c, 0, 64, 100
1, 53517, Note_on_c, 0, 68, 100
1, 53613, Note_off_c, 0, 68, 100
1, 53613, Note_on_c, 0, 63, 100
1, 53709, Note_off_c, 0, 63, 100
1, 53709, Note_on_c, 0, 67, 100
1, 53757, Note_off_c, 0, 67, 100
1, 53757, Note_on_c, 0, 66, 100
1, 53853, Note_off_c, 0, 66, 100
1, 53853, Note_on_c, 0, 62, 100
1, 54093, Note_off_c, 0, 62, 100
1, 54093, Note_on_c, 0, 65, 100
1, 54141, Note_off_c, 0, 65, 100
1, 54141, Note_on_c, 0, 64, 100
1, 54237, Note_off_c, 0, 64, 100
1, 54237, Note_on_c, 0, 61, 100
1, 54333, Note_off_c, 0, 61, 100
1, 54333, Note_on_c, 0, 59, 100
1, 54429, Note_off_c, 0, 59, 100
1, 54429, Note_on_c, 0, 57, 100
1, 54573, Note_off_c, 0, 57, 100
1, 54573, Note_on_c, 0, 56, 100
1, 54669, Note_off_c, 0, 56, 100
1, 54669, Note_on_c, 0, 58, 100
1, 54765, Note_off_c, 0, 58, 100
1, 54765, Note_on_c, 0, 62, 100
1, 54861, Note_off_c, 0, 62, 100
1, 54861, Note_on_c, 0, 61, 100
1, 54957, Note_off_c, 0, 61, 100
1, 54957, Note_on_c, 0, 56, 100
1, 55053, Note_off_c, 0, 56, 100
1, 55053, Note_on_c, 0, 53, 100
1, 55101, Note_off_c, 0, 53, 100
1, 55101, Note_on_c, 0, 52, 100
1, 55293, Note_off_c, 0, 52, 100
1, 55293, Note_on_c, 0, 55, 100
1, 55533, Note_off_c, 0, 55, 100
1, 55533, Note_on_c, 0, 52, 100
1, 55629, Note_off_c, 0, 52, 100
1, 55629, Note_on_c, 0, 55, 100
1, 55773, Note_off_c, 0, 55, 100
1, 55773, Note_on_c, 0, 60, 100
1, 55869, Note_off_c, 0, 60, 100
1, 55869, Note_on_c, 0, 58, 100
1, 56061, Note_off_c, 0, 58, 100
1, 56061, Note_on_c, 0, 62, 100
1, 56157, Note_off_c, 0, 62, 100
1, 56157, Note_on_c, 0, 63, 100
1, 56253, Note_off_c, 0, 63, 100
1, 56253, Note_on_c, 0, 65, 100
1, 56397, Note_off_c, 0, 65, 100
1, 56397, Note_on_c, 0, 70, 100
1, 56445, Note_off_c, 0, 70, 100
1, 56445, Note_on_c, 0, 65, 100
1, 56541, Note_off_c, 0, 65, 100
1, 56541, Note_on_c, 0, 67, 100
1, 56637, Note_off_c, 0, 67, 100
1, 56829, Note_on_c, 0, 65, 100
1, 56925, Note_off_c, 0, 65, 100
1, 57117, Note_on_c, 0, 62, 100
1, 57213, Note_off_c, 0, 62, 100
1, 57213, Note_on_c, 0, 63, 100
1, 57277, Note_off_c, 0, 63, 100
1, 57277, Note_on_c, 0, 65, 100
1, 57501, Note_off_c, 0, 65, 100
1, 57501, Note_on_c, 0, 60, 100
1, 57549, Note_off_c, 0, 60, 100
1, 57549, Note_on_c, 0, 63, 100
1, 57597, Note_off_c, 0, 63, 100
1, 57597, Note_on_c, 0, 65, 100
1, 57693, Note_off_c, 0, 65, 100
1, 57885, Note_on_c, 0, 60, 100
1, 57933, Note_off_c, 0, 60, 100
1, 57933, Note_on_c, 0, 63, 100
1, 57981, Note_off_c, 0, 63, 100
1, 57981, Note_on_c, 0, 65, 100
1, 58237, Note_off_c, 0, 65, 100
1, 58237, Note_on_c, 0, 60, 100
1, 58301, Note_off_c, 0, 60, 100
1, 58301, Note_on_c, 0, 63, 100
1, 58365, Note_off_c, 0, 63, 100
1, 58365, Note_on_c, 0, 65, 100
1, 58653, Note_off_c, 0, 65, 100
1, 58653, Note_on_c, 0, 60, 100
1, 58701, Note_off_c, 0, 60, 100
1, 58701, Note_on_c, 0, 63, 100
1, 58749, Note_off_c, 0, 63, 100
1, 58749, Note_on_c, 0, 65, 100
1, 58845, Note_off_c, 0, 65, 100
1, 59229, Note_on_c, 0, 60, 100
1, 59277, Note_off_c, 0, 60, 100
1, 59277, Note_on_c, 0, 63, 100
1, 59389, Note_off_c, 0, 63, 100
1, 59389, Note_on_c, 0, 65, 100
1, 59453, Note_off_c, 0, 65, 100
1, 59453, Note_on_c, 0, 60, 100
1, 59517, Note_off_c, 0, 60, 100
1, 59517, Note_on_c, 0, 63, 100
1, 59645, Note_off_c, 0, 63, 100
1, 59645, Note_on_c, 0, 65, 100
1, 59853, Note_off_c, 0, 65, 100
1, 59853, Note_on_c, 0, 66, 100
1, 59949, Note_off_c, 0, 66, 100
1, 60285, Note_on_c, 0, 68, 100
1, 60381, Note_off_c, 0, 68, 100
1, 60381, Note_on_c, 0, 67, 100
1, 60477, Note_off_c, 0, 67, 100
1, 60477, Note_on_c, 0, 66, 100
1, 60621, Note_off_c, 0, 66, 100
1, 60621, Note_on_c, 0, 67, 100
1, 60813, Note_off_c, 0, 67, 100
1, 60813, Note_on_c, 0, 63, 100
1, 61053, Note_off_c, 0, 63, 100
1, 61053, Note_on_c, 0, 65, 100
1, 61245, Note_off_c, 0, 65, 100
1, 61245, Note_on_c, 0, 62, 100
1, 61389, Note_off_c, 0, 62, 100
1, 61389, Note_on_c, 0, 65, 100
1, 61533, Note_off_c, 0, 65, 100
1, 61533, Note_on_c, 0, 63, 100
1, 61629, Note_off_c, 0, 63, 100
1, 61629, Note_on_c, 0, 59, 100
1, 61821, Note_off_c, 0, 59, 100
1, 61821, Note_on_c, 0, 57, 100
1, 61917, Note_off_c, 0, 57, 100
1, 61917, Note_on_c, 0, 63, 100
1, 62013, Note_off_c, 0, 63, 100
1, 62013, Note_on_c, 0, 60, 100
1, 62205, Note_off_c, 0, 60, 100
1, 62205, Note_on_c, 0, 59, 100
1, 62333, Note_off_c, 0, 59, 100
1, 62333, Note_on_c, 0, 55, 100
1, 62397, Note_off_c, 0, 55, 100
1, 62397, Note_on_c, 0, 51, 100
1, 62589, Note_off_c, 0, 51, 100
1, 62589, Note_on_c, 0, 53, 100
1, 62877, Note_off_c, 0, 53, 100
1, 62877, Note_on_c, 0, 51, 100
1, 62973, Note_off_c, 0, 51, 100
1, 62973, Note_on_c, 0, 48, 100
1, 63069, Note_off_c, 0, 48, 100
1, 63069, Note_on_c, 0, 45, 100
1, 63165, Note_off_c, 0, 45, 100
1, 63885, Note_on_c, 0, 46, 100
1, 63981, Note_off_c, 0, 46, 100
1, 63981, Note_on_c, 0, 50, 100
1, 64029, Note_off_c, 0, 50, 100
1, 64029, Note_on_c, 0, 45, 100
1, 64077, Note_off_c, 0, 45, 100
1, 64077, Note_on_c, 0, 50, 100
1, 64125, Note_off_c, 0, 50, 100
1, 64125, Note_on_c, 0, 53, 100
1, 64173, Note_off_c, 0, 53, 100
1, 64173, Note_on_c, 0, 51, 100
1, 64221, Note_off_c, 0, 51, 100
1, 64221, Note_on_c, 0, 50, 100
1, 64317, Note_off_c, 0, 50, 100
1, 64317, Note_on_c, 0, 51, 100
1, 64365, Note_off_c, 0, 51, 100
1, 64365, Note_on_c, 0, 55, 100
1, 64413, Note_off_c, 0, 55, 100
1, 64413, Note_on_c, 0, 58, 100
1, 64509, Note_off_c, 0, 58, 100
1, 64509, Note_on_c, 0, 57, 100
1, 64541, Note_off_c, 0, 57, 100
1, 64541, Note_on_c, 0, 56, 100
1, 64637, Note_off_c, 0, 56, 100
1, 64637, Note_on_c, 0, 60, 100
1, 64669, Note_off_c, 0, 60, 100
1, 64669, Note_on_c, 0, 62, 100
1, 64701, Note_off_c, 0, 62, 100
1, 64701, Note_on_c, 0, 55, 100
1, 64749, Note_off_c, 0, 55, 100
1, 64749, Note_on_c, 0, 58, 100
1, 64797, Note_off_c, 0, 58, 100
1, 64797, Note_on_c, 0, 60, 100
1, 64845, Note_off_c, 0, 60, 100
1, 64845, Note_on_c, 0, 63, 100
1, 64893, Note_off_c, 0, 63, 100
1, 64893, Note_on_c, 0, 60, 100
1, 64989, Note_off_c, 0, 60, 100
1, 64989, Note_on_c, 0, 63, 100
1, 65037, Note_off_c, 0, 63, 100
1, 65037, Note_on_c, 0, 61, 100
1, 65133, Note_off_c, 0, 61, 100
1, 65133, Note_on_c, 0, 63, 100
1, 65229, Note_off_c, 0, 63, 100
1, 65229, Note_on_c, 0, 62, 100
1, 65277, Note_off_c, 0, 62, 100
1, 65277, Note_on_c, 0, 65, 100
1, 65325, Note_off_c, 0, 65, 100
1, 65325, Note_on_c, 0, 67, 100
1, 65373, Note_off_c, 0, 67, 100
1, 65373, Note_on_c, 0, 70, 100
1, 65421, Note_off_c, 0, 70, 100
1, 65421, Note_on_c, 0, 67, 100
1, 65469, Note_off_c, 0, 67, 100
1, 65469, Note_on_c, 0, 65, 100
1, 65565, Note_off_c, 0, 65, 100
1, 65565, Note_on_c, 0, 63, 100
1, 65613, Note_off_c, 0, 63, 100
1, 65613, Note_on_c, 0, 62, 100
1, 65661, Note_off_c, 0, 62, 100
1, 65661, Note_on_c, 0, 63, 100
1, 65699, Note_off_c, 0, 63, 100
1, 65699, Note_on_c, 0, 66, 100
1, 65737, Note_off_c, 0, 66, 100
1, 65737, Note_on_c, 0, 67, 100
1, 65813, Note_off_c, 0, 67, 100
1, 65813, Note_on_c, 0, 71, 100
1, 65851, Note_off_c, 0, 71, 100
1, 65851, Note_on_c, 0, 75, 100
1, 65947, Note_off_c, 0, 75, 100
1, 65947, Note_on_c, 0, 79, 100
1, 66043, Note_off_c, 0, 79, 100
1, 66043, Note_on_c, 0, 80, 100
1, 66091, Note_off_c, 0, 80, 100
1, 66091, Note_on_c, 0, 82, 100
1, 66283, Note_off_c, 0, 82, 100
1, 66571, Note_on_c, 0, 44, 100
1, 66763, Note_off_c, 0, 44, 100
1, 66763, Note_on_c, 0, 46, 100
1, 66907, Note_off_c, 0, 46, 100
1, 66907, Note_on_c, 0, 51, 100
1, 67099, Note_off_c, 0, 51, 100
1, 67099, Note_on_c, 0, 53, 100
1, 67195, Note_off_c, 0, 53, 100
1, 67195, Note_on_c, 0, 58, 100
1, 67291, Note_off_c, 0, 58, 100
1, 67291, Note_on_c, 0, 63, 100
1, 67387, Note_off_c, 0, 63, 100
1, 67387, Note_on_c, 0, 56, 100
1, 67579, Note_off_c, 0, 56, 100
1, 67579, Note_on_c, 0, 63, 100
1, 67771, Note_off_c, 0, 63, 100
1, 67771, Note_on_c, 0, 65, 100
1, 67963, Note_off_c, 0, 65, 100
1, 67963, Note_on_c, 0, 63, 100
1, 68091, Note_off_c, 0, 63, 100
1, 68091, Note_on_c, 0, 65, 100
1, 68155, Note_off_c, 0, 65, 100
1, 68155, Note_on_c, 0, 66, 100
1, 68251, Note_off_c, 0, 66, 100
1, 68251, Note_on_c, 0, 75, 100
1, 68443, Note_off_c, 0, 75, 100
1, 68443, Note_on_c, 0, 70, 100
1, 68539, Note_off_c, 0, 70, 100
1, 68539, Note_on_c, 0, 84, 100
1, 68635, Note_off_c, 0, 84, 100
1, 68635, Note_on_c, 0, 80, 100
1, 69163, Note_off_c, 0, 80, 100
1, 69163, Note_on_c, 0, 77, 100
1, 69259, Note_off_c, 0, 77, 100
1, 69259, Note_on_c, 0, 75, 100
1, 69371, Note_off_c, 0, 75, 100
1, 69371, Note_on_c, 0, 73, 100
1, 69435, Note_off_c, 0, 73, 100
1, 69435, Note_on_c, 0, 72, 100
1, 69499, Note_off_c, 0, 72, 100
1, 69499, Note_on_c, 0, 69, 100
1, 69595, Note_off_c, 0, 69, 100
1, 69595, Note_on_c, 0, 63, 100
1, 69691, Note_off_c, 0, 63, 100
1, 70139, Note_on_c, 0, 80, 100
1, 70555, Note_off_c, 0, 80, 100
1, 70555, Note_on_c, 0, 79, 100
1, 71035, Note_off_c, 0, 79, 100
1, 71035, Note_on_c, 0, 79, 100
1, 71419, Note_off_c, 0, 79, 100
1, 71419, Note_on_c, 0, 79, 100
1, 71803, Note_off_c, 0, 79, 100
1, 71803, Note_on_c, 0, 86, 100
1, 72523, Note_off_c, 0, 86, 100
1, 72523, Note_on_c, 0, 77, 100
1, 72811, Note_off_c, 0, 77, 100
1, 73243, Note_on_c, 0, 84, 100
1, 73291, Note_off_c, 0, 84, 100
1, 73291, Note_on_c, 0, 86, 100
1, 74491, Note_off_c, 0, 86, 100
1, 74491, Note_on_c, 0, 84, 100
1, 74587, Note_off_c, 0, 84, 100
1, 74587, Note_on_c, 0, 82, 100
1, 74683, Note_off_c, 0, 82, 100
1, 74683, Note_on_c, 0, 80, 100
1, 74779, Note_off_c, 0, 80, 100
1, 74779, Note_on_c, 0, 79, 100
1, 74939, Note_off_c, 0, 79, 100
1, 74939, Note_on_c, 0, 77, 100
1, 75003, Note_off_c, 0, 77, 100
1, 75003, Note_on_c, 0, 75, 100
1, 75067, Note_off_c, 0, 75, 100
1, 75067, Note_on_c, 0, 74, 100
1, 75259, Note_off_c, 0, 74, 100
1, 75259, Note_on_c, 0, 71, 100
1, 75451, Note_off_c, 0, 71, 100
1, 75451, Note_on_c, 0, 66, 100
1, 75499, Note_off_c, 0, 66, 100
1, 75499, Note_on_c, 0, 69, 100
1, 75643, Note_off_c, 0, 69, 100
1, 75643, Note_on_c, 0, 74, 100
1, 75739, Note_off_c, 0, 74, 100
1, 75739, Note_on_c, 0, 75, 100
1, 75835, Note_off_c, 0, 75, 100
1, 75835, Note_on_c, 0, 71, 100
1, 75979, Note_off_c, 0, 71, 100
1, 75979, Note_on_c, 0, 69, 100
1, 76171, Note_off_c, 0, 69, 100
1, 76171, Note_on_c, 0, 72, 100
1, 76219, Note_off_c, 0, 72, 100
1, 76219, Note_on_c, 0, 75, 100
1, 76267, Note_off_c, 0, 75, 100
1, 76267, Note_on_c, 0, 77, 100
1, 76315, Note_off_c, 0, 77, 100
1, 76315, Note_on_c, 0, 79, 100
1, 76363, Note_off_c, 0, 79, 100
1, 76363, Note_on_c, 0, 81, 100
1, 76411, Note_off_c, 0, 81, 100
1, 76411, Note_on_c, 0, 82, 100
1, 76507, Note_off_c, 0, 82, 100
1, 76507, Note_on_c, 0, 81, 100
1, 76891, Note_off_c, 0, 81, 100
1, 76891, Note_on_c, 0, 79, 100
1, 76939, Note_off_c, 0, 79, 100
1, 76939, Note_on_c, 0, 81, 100
1, 77083, Note_off_c, 0, 81, 100
1, 77083, Note_on_c, 0, 79, 100
1, 77275, Note_off_c, 0, 79, 100
1, 77275, Note_on_c, 0, 75, 100
1, 77467, Note_off_c, 0, 75, 100
1, 78139, Note_on_c, 0, 85, 100
1, 78475, Note_off_c, 0, 85, 100
1, 78475, Note_on_c, 0, 79, 100
1, 78811, Note_off_c, 0, 79, 100
1, 78811, Note_on_c, 0, 77, 100
1, 79195, Note_off_c, 0, 77, 100
1, 79195, Note_on_c, 0, 75, 100
1, 79291, Note_off_c, 0, 75, 100
1, 79291, Note_on_c, 0, 72, 100
1, 79387, Note_off_c, 0, 72, 100
1, 79387, Note_on_c, 0, 77, 100
1, 79483, Note_off_c, 0, 77, 100
1, 79483, Note_on_c, 0, 77, 100
1, 79675, Note_off_c, 0, 77, 100
1, 79675, Note_on_c, 0, 77, 100
1, 79819, Note_off_c, 0, 77, 100
1, 79819, Note_on_c, 0, 77, 100
1, 80059, Note_off_c, 0, 77, 100
1, 80059, Note_on_c, 0, 77, 100
1, 80187, Note_off_c, 0, 77, 100
1, 80187, Note_on_c, 0, 77, 100
1, 80347, Note_off_c, 0, 77, 100
1, 80347, Note_on_c, 0, 77, 100
1, 81211, Note_off_c, 0, 77, 100
1, 81691, Note_on_c, 0, 79, 100
1, 81931, Note_off_c, 0, 79, 100
1, 81931, Note_on_c, 0, 77, 100
1, 82507, Note_off_c, 0, 77, 100
1, 82507, Note_on_c, 0, 79, 100
1, 82603, Note_off_c, 0, 79, 100
1, 82603, Note_on_c, 0, 77, 100
1, 82651, Note_off_c, 0, 77, 100
1, 82651, Note_on_c, 0, 75, 100
1, 82747, Note_off_c, 0, 75, 100
1, 82747, Note_on_c, 0, 77, 100
1, 82795, Note_off_c, 0, 77, 100
1, 82795, Note_on_c, 0, 70, 100
1, 82843, Note_off_c, 0, 70, 100
1, 82843, Note_on_c, 0, 73, 100
1, 82891, Note_off_c, 0, 73, 100
1, 82891, Note_on_c, 0, 75, 100
1, 83035, Note_off_c, 0, 75, 100
1, 83035, Note_on_c, 0, 74, 100
1, 83179, Note_off_c, 0, 74, 100
1, 83179, Note_on_c, 0, 71, 100
1, 83275, Note_off_c, 0, 71, 100
1, 83275, Note_on_c, 0, 68, 100
1, 83467, Note_off_c, 0, 68, 100
1, 83467, Note_on_c, 0, 71, 100
1, 83579, Note_off_c, 0, 71, 100
1, 83579, Note_on_c, 0, 75, 100
1, 83643, Note_off_c, 0, 75, 100
1, 83643, Note_on_c, 0, 73, 100
1, 83755, Note_off_c, 0, 73, 100
1, 83755, Note_on_c, 0, 71, 100
1, 83851, Note_off_c, 0, 71, 100
1, 83851, Note_on_c, 0, 69, 100
1, 83947, Note_off_c, 0, 69, 100
1, 83947, Note_on_c, 0, 67, 100
1, 84043, Note_off_c, 0, 67, 100
1, 84043, Note_on_c, 0, 65, 100
1, 84187, Note_off_c, 0, 65, 100
1, 84187, Note_on_c, 0, 69, 100
1, 84347, Note_off_c, 0, 69, 100
1, 84347, Note_on_c, 0, 71, 100
1, 84475, Note_off_c, 0, 71, 100
1, 84475, Note_on_c, 0, 75, 100
1, 84571, Note_off_c, 0, 75, 100
1, 84571, Note_on_c, 0, 77, 100
1, 84667, Note_off_c, 0, 77, 100
1, 85003, Note_on_c, 0, 73, 100
1, 85099, Note_off_c, 0, 73, 100
1, 85099, Note_on_c, 0, 76, 100
1, 85195, Note_off_c, 0, 76, 100
1, 85195, Note_on_c, 0, 73, 100
1, 85291, Note_off_c, 0, 73, 100
1, 85291, Note_on_c, 0, 69, 100
1, 85483, Note_off_c, 0, 69, 100
1, 85483, Note_on_c, 0, 66, 100
1, 85579, Note_off_c, 0, 66, 100
1, 85579, Note_on_c, 0, 69, 100
1, 85675, Note_off_c, 0, 69, 100
1, 85675, Note_on_c, 0, 71, 100
1, 85771, Note_off_c, 0, 71, 100
1, 85771, Note_on_c, 0, 75, 100
1, 85867, Note_off_c, 0, 75, 100
1, 85867, Note_on_c, 0, 80, 100
1, 86011, Note_off_c, 0, 80, 100
1, 86011, Note_on_c, 0, 77, 100
1, 86107, Note_off_c, 0, 77, 100
1, 86107, Note_on_c, 0, 75, 100
1, 86203, Note_off_c, 0, 75, 100
1, 86203, Note_on_c, 0, 73, 100
1, 86395, Note_off_c, 0, 73, 100
1, 86395, Note_on_c, 0, 71, 100
1, 86587, Note_off_c, 0, 71, 100
1, 86587, Note_on_c, 0, 67, 100
1, 86683, Note_off_c, 0, 67, 100
1, 86683, Note_on_c, 0, 71, 100
1, 86827, Note_off_c, 0, 71, 100
1, 86827, Note_on_c, 0, 69, 100
1, 86923, Note_off_c, 0, 69, 100
1, 86923, Note_on_c, 0, 68, 100
1, 87019, Note_off_c, 0, 68, 100
1, 87019, Note_on_c, 0, 66, 100
1, 87163, Note_off_c, 0, 66, 100
1, 87163, Note_on_c, 0, 63, 100
1, 87259, Note_off_c, 0, 63, 100
1, 87259, Note_on_c, 0, 67, 100
1, 87355, Note_off_c, 0, 67, 100
1, 87355, Note_on_c, 0, 62, 100
1, 87483, Note_off_c, 0, 62, 100
1, 87483, Note_on_c, 0, 60, 100
1, 87579, Note_off_c, 0, 60, 100
1, 88075, Note_on_c, 0, 60, 100
1, 88171, Note_off_c, 0, 60, 100
1, 88171, Note_on_c, 0, 60, 100
1, 88267, Note_off_c, 0, 60, 100
1, 88267, Note_on_c, 0, 63, 100
1, 88411, Note_off_c, 0, 63, 100
1, 88411, Note_on_c, 0, 63, 100
1, 88603, Note_off_c, 0, 63, 100
1, 88603, Note_on_c, 0, 65, 100
1, 88795, Note_off_c, 0, 65, 100
1, 88795, Note_on_c, 0, 65, 100
1, 88987, Note_off_c, 0, 65, 100
1, 88987, Note_on_c, 0, 65, 100
1, 89083, Note_off_c, 0, 65, 100
1, 89083, Note_on_c, 0, 67, 100
1, 89275, Note_off_c, 0, 67, 100
1, 89275, Note_on_c, 0, 60, 100
1, 89467, Note_off_c, 0, 60, 100
1, 89467, Note_on_c, 0, 63, 100
1, 89659, Note_off_c, 0, 63, 100
1, 89659, Note_on_c, 0, 63, 100
1, 89851, Note_off_c, 0, 63, 100
1, 89851, Note_on_c, 0, 72, 100
1, 90235, Note_off_c, 0, 72, 100
1, 90571, Note_on_c, 0, 70, 100
1, 90715, Note_off_c, 0, 70, 100
1, 90715, Note_on_c, 0, 67, 100
1, 90811, Note_off_c, 0, 67, 100
1, 90811, Note_on_c, 0, 65, 100
1, 90939, Note_off_c, 0, 65, 100
1, 90939, Note_on_c, 0, 62, 100
1, 91003, Note_off_c, 0, 62, 100
1, 91003, Note_on_c, 0, 63, 100
1, 91147, Note_off_c, 0, 63, 100
1, 91147, Note_on_c, 0, 66, 100
1, 91195, Note_off_c, 0, 66, 100
1, 91195, Note_on_c, 0, 70, 100
1, 91339, Note_off_c, 0, 70, 100
1, 91339, Note_on_c, 0, 66, 100
1, 91531, Note_off_c, 0, 66, 100
1, 91531, Note_on_c, 0, 63, 100
1, 91723, Note_off_c, 0, 63, 100
1, 91723, Note_on_c, 0, 68, 100
1, 91915, Note_off_c, 0, 68, 100
1, 91915, Note_on_c, 0, 66, 100
1, 92107, Note_off_c, 0, 66, 100
1, 92107, Note_on_c, 0, 64, 100
1, 92203, Note_off_c, 0, 64, 100
1, 92203, Note_on_c, 0, 65, 100
1, 92299, Note_off_c, 0, 65, 100
1, 92299, Note_on_c, 0, 61, 100
1, 92395, Note_off_c, 0, 61, 100
1, 92395, Note_on_c, 0, 58, 100
1, 92491, Note_off_c, 0, 58, 100
1, 92491, Note_on_c, 0, 54, 100
1, 92731, Note_off_c, 0, 54, 100
1, 92731, Note_on_c, 0, 56, 100
1, 92923, Note_off_c, 0, 56, 100
1, 92923, Note_on_c, 0, 53, 100
1, 93067, Note_off_c, 0, 53, 100
1, 93067, Note_on_c, 0, 58, 100
1, 93115, Note_off_c, 0, 58, 100
1, 93115, Note_on_c, 0, 51, 100
1, 93243, Note_off_c, 0, 51, 100
1, 93243, Note_on_c, 0, 49, 100
1, 93307, Note_off_c, 0, 49, 100
1, 93307, Note_on_c, 0, 51, 100
1, 93403, Note_off_c, 0, 51, 100
1, 93403, Note_on_c, 0, 53, 100
1, 93595, Note_off_c, 0, 53, 100
1, 93595, Note_on_c, 0, 51, 100
1, 93691, Note_off_c, 0, 51, 100
1, 93691, Note_on_c, 0, 46, 100
1, 93787, Note_off_c, 0, 46, 100
1, 93787, Note_on_c, 0, 44, 100
1, 93979, Note_off_c, 0, 44, 100
1, 94523, Note_on_c, 0, 43, 100
1, 94587, Note_off_c, 0, 43, 100
1, 94587, Note_on_c, 0, 44, 100
1, 94699, Note_off_c, 0, 44, 100
1, 94699, Note_on_c, 0, 46, 100
1, 94747, Note_off_c, 0, 46, 100
1, 94747, Note_on_c, 0, 48, 100
1, 94795, Note_off_c, 0, 48, 100
1, 94795, Note_on_c, 0, 52, 100
1, 94843, Note_off_c, 0, 52, 100
1, 94843, Note_on_c, 0, 47, 100
1, 94891, Note_off_c, 0, 47, 100
1, 94891, Note_on_c, 0, 49, 100
1, 95099, Note_off_c, 0, 49, 100
1, 95099, Note_on_c, 0, 51, 100
1, 95163, Note_off_c, 0, 51, 100
1, 95163, Note_on_c, 0, 49, 100
1, 95227, Note_off_c, 0, 49, 100
1, 95227, Note_on_c, 0, 51, 100
1, 95275, Note_off_c, 0, 51, 100
1, 95275, Note_on_c, 0, 49, 100
1, 95371, Note_off_c, 0, 49, 100
1, 95675, Note_on_c, 0, 53, 100
1, 95739, Note_off_c, 0, 53, 100
1, 95739, Note_on_c, 0, 57, 100
1, 95803, Note_off_c, 0, 57, 100
1, 95803, Note_on_c, 0, 58, 100
1, 95835, Note_off_c, 0, 58, 100
1, 95835, Note_on_c, 0, 56, 100
1, 95867, Note_off_c, 0, 56, 100
1, 95867, Note_on_c, 0, 54, 100
1, 95931, Note_off_c, 0, 54, 100
1, 95931, Note_on_c, 0, 52, 100
1, 95963, Note_off_c, 0, 52, 100
1, 95963, Note_on_c, 0, 55, 100
1, 95995, Note_off_c, 0, 55, 100
1, 95995, Note_on_c, 0, 57, 100
1, 96043, Note_off_c, 0, 57, 100
1, 96043, Note_on_c, 0, 54, 100
1, 96091, Note_off_c, 0, 54, 100
1, 96091, Note_on_c, 0, 53, 100
1, 96139, Note_off_c, 0, 53, 100
1, 96139, Note_on_c, 0, 48, 100
1, 96187, Note_off_c, 0, 48, 100
1, 96187, Note_on_c, 0, 50, 100
1, 96235, Note_off_c, 0, 50, 100
1, 96235, Note_on_c, 0, 52, 100
1, 96283, Note_off_c, 0, 52, 100
1, 96283, Note_on_c, 0, 51, 100
1, 96331, Note_off_c, 0, 51, 100
1, 96331, Note_on_c, 0, 50, 100
1, 96379, Note_off_c, 0, 50, 100
1, 96379, Note_on_c, 0, 49, 100
1, 96443, Note_off_c, 0, 49, 100
1, 96443, Note_on_c, 0, 48, 100
1, 96507, Note_off_c, 0, 48, 100
1, 96507, Note_on_c, 0, 51, 100
1, 96619, Note_off_c, 0, 51, 100
1, 96619, Note_on_c, 0, 54, 100
1, 96715, Note_off_c, 0, 54, 100
1, 96715, Note_on_c, 0, 58, 100
1, 96763, Note_off_c, 0, 58, 100
1, 96763, Note_on_c, 0, 62, 100
1, 96811, Note_off_c, 0, 62, 100
1, 96811, Note_on_c, 0, 61, 100
1, 96859, Note_off_c, 0, 61, 100
1, 96859, Note_on_c, 0, 59, 100
1, 96907, Note_off_c, 0, 59, 100
1, 96907, Note_on_c, 0, 57, 100
1, 96955, Note_off_c, 0, 57, 100
1, 96955, Note_on_c, 0, 56, 100
1, 97051, Note_off_c, 0, 56, 100
1, 97051, Note_on_c, 0, 58, 100
1, 97147, Note_off_c, 0, 58, 100
1, 97147, Note_on_c, 0, 55, 100
1, 97195, Note_off_c, 0, 55, 100
1, 97195, Note_on_c, 0, 58, 100
1, 97243, Note_off_c, 0, 58, 100
1, 97243, Note_on_c, 0, 60, 100
1, 97291, Note_off_c, 0, 60, 100
1, 97291, Note_on_c, 0, 63, 100
1, 97339, Note_off_c, 0, 63, 100
1, 97339, Note_on_c, 0, 62, 100
1, 97387, Note_off_c, 0, 62, 100
1, 97387, Note_on_c, 0, 60, 100
1, 97435, Note_off_c, 0, 60, 100
1, 97435, Note_on_c, 0, 58, 100
1, 97531, Note_off_c, 0, 58, 100
1, 97531, Note_on_c, 0, 60, 100
1, 97579, Note_off_c, 0, 60, 100
1, 97579, Note_on_c, 0, 61, 100
1, 97627, Note_off_c, 0, 61, 100
1, 97627, Note_on_c, 0, 63, 100
1, 97723, Note_off_c, 0, 63, 100
1, 97723, Note_on_c, 0, 64, 100
1, 97787, Note_off_c, 0, 64, 100
1, 97787, Note_on_c, 0, 62, 100
1, 97851, Note_off_c, 0, 62, 100
1, 97851, Note_on_c, 0, 63, 100
1, 97915, Note_off_c, 0, 63, 100
1, 97915, Note_on_c, 0, 66, 100
1, 97953, Note_off_c, 0, 66, 100
1, 97953, Note_on_c, 0, 69, 100
1, 97991, Note_off_c, 0, 69, 100
1, 97991, Note_on_c, 0, 67, 100
1, 98029, Note_off_c, 0, 67, 100
1, 98029, Note_on_c, 0, 66, 100
1, 98067, Note_off_c, 0, 66, 100
1, 98067, Note_on_c, 0, 63, 100
1, 98143, Note_off_c, 0, 63, 100
1, 98143, Note_on_c, 0, 62, 100
1, 98181, Note_off_c, 0, 62, 100
1, 98181, Note_on_c, 0, 63, 100
1, 98257, Note_off_c, 0, 63, 100
1, 98257, Note_on_c, 0, 74, 100
1, 98327, Note_off_c, 0, 74, 100
1, 98327, Note_on_c, 0, 73, 100
1, 98359, Note_off_c, 0, 73, 100
1, 98359, Note_on_c, 0, 72, 100
1, 98391, Note_off_c, 0, 72, 100
1, 98391, Note_on_c, 0, 70, 100
1, 98423, Note_off_c, 0, 70, 100
1, 98423, Note_on_c, 0, 67, 100
1, 98455, Note_off_c, 0, 67, 100
1, 98455, Note_on_c, 0, 63, 100
1, 98487, Note_off_c, 0, 63, 100
1, 98487, Note_on_c, 0, 62, 100
1, 98535, Note_off_c, 0, 62, 100
1, 98535, Note_on_c, 0, 60, 100
1, 98583, Note_off_c, 0, 60, 100
1, 98583, Note_on_c, 0, 59, 100
1, 98631, Note_off_c, 0, 59, 100
1, 98631, Note_on_c, 0, 57, 100
1, 98679, Note_off_c, 0, 57, 100
1, 98679, Note_on_c, 0, 56, 100
1, 98775, Note_off_c, 0, 56, 100
1, 99207, Note_on_c, 0, 72, 100
1, 99255, Note_off_c, 0, 72, 100
1, 99255, Note_on_c, 0, 71, 100
1, 99303, Note_off_c, 0, 71, 100
1, 99303, Note_on_c, 0, 70, 100
1, 99351, Note_off_c, 0, 70, 100
1, 99351, Note_on_c, 0, 67, 100
1, 99399, Note_off_c, 0, 67, 100
1, 99399, Note_on_c, 0, 63, 100
1, 99447, Note_off_c, 0, 63, 100
1, 99447, Note_on_c, 0, 60, 100
1, 99495, Note_off_c, 0, 60, 100
1, 99495, Note_on_c, 0, 63, 100
1, 99543, Note_off_c, 0, 63, 100
1, 99543, Note_on_c, 0, 59, 100
1, 99591, Note_off_c, 0, 59, 100
1, 99591, Note_on_c, 0, 63, 100
1, 99639, Note_off_c, 0, 63, 100
1, 99639, Note_on_c, 0, 60, 100
1, 99735, Note_off_c, 0, 60, 100
1, 99735, Note_on_c, 0, 71, 100
1, 99783, Note_off_c, 0, 71, 100
1, 99783, Note_on_c, 0, 67, 100
1, 99831, Note_off_c, 0, 67, 100
1, 99831, Note_on_c, 0, 63, 100
1, 99927, Note_off_c, 0, 63, 100
1, 99927, Note_on_c, 0, 60, 100
1, 99975, Note_off_c, 0, 60, 100
1, 99975, Note_on_c, 0, 63, 100
1, 100023, Note_off_c, 0, 63, 100
1, 100023, Note_on_c, 0, 69, 100
1, 100071, Note_off_c, 0, 69, 100
1, 100071, Note_on_c, 0, 65, 100
1, 100119, Note_off_c, 0, 65, 100
1, 100119, Note_on_c, 0, 63, 100
1, 100167, Note_off_c, 0, 63, 100
1, 100167, Note_on_c, 0, 60, 100
1, 100215, Note_off_c, 0, 60, 100
1, 100215, Note_on_c, 0, 62, 100
1, 100263, Note_off_c, 0, 62, 100
1, 100263, Note_on_c, 0, 65, 100
1, 100359, Note_off_c, 0, 65, 100
1, 100359, Note_on_c, 0, 62, 100
1, 100455, Note_off_c, 0, 62, 100
1, 100455, Note_on_c, 0, 59, 100
1, 100503, Note_off_c, 0, 59, 100
1, 100503, Note_on_c, 0, 57, 100
1, 100551, Note_off_c, 0, 57, 100
1, 100551, Note_on_c, 0, 62, 100
1, 100647, Note_off_c, 0, 62, 100
1, 100647, Note_on_c, 0, 63, 100
1, 100743, Note_off_c, 0, 63, 100
1, 100743, Note_on_c, 0, 60, 100
1, 100791, Note_off_c, 0, 60, 100
1, 100791, Note_on_c, 0, 57, 100
1, 100839, Note_off_c, 0, 57, 100
1, 100839, Note_on_c, 0, 54, 100
1, 100887, Note_off_c, 0, 54, 100
1, 100887, Note_on_c, 0, 57, 100
1, 100983, Note_off_c, 0, 57, 100
1, 100983, Note_on_c, 0, 62, 100
1, 101079, Note_off_c, 0, 62, 100
1, 101079, Note_on_c, 0, 58, 100
1, 101127, Note_off_c, 0, 58, 100
1, 101127, Note_on_c, 0, 55, 100
1, 101175, Note_off_c, 0, 55, 100
1, 101175, Note_on_c, 0, 50, 100
1, 101271, Note_off_c, 0, 50, 100
1, 101703, Note_on_c, 0, 74, 100
1, 101943, Note_off_c, 0, 74, 100
1, 101943, Note_on_c, 0, 69, 100
1, 102087, Note_off_c, 0, 69, 100
1, 102087, Note_on_c, 0, 71, 100
1, 102135, Note_off_c, 0, 71, 100
1, 102135, Note_on_c, 0, 72, 100
1, 102183, Note_off_c, 0, 72, 100
1, 102183, Note_on_c, 0, 71, 100
1, 102231, Note_off_c, 0, 71, 100
1, 102231, Note_on_c, 0, 67, 100
1, 102279, Note_off_c, 0, 67, 100
1, 102279, Note_on_c, 0, 63, 100
1, 102327, Note_off_c, 0, 63, 100
1, 102327, Note_on_c, 0, 60, 100
1, 102375, Note_off_c, 0, 60, 100
1, 102375, Note_on_c, 0, 63, 100
1, 102423, Note_off_c, 0, 63, 100
1, 102423, Note_on_c, 0, 67, 100
1, 102471, Note_off_c, 0, 67, 100
1, 102471, Note_on_c, 0, 71, 100
1, 102519, Note_off_c, 0, 71, 100
1, 102519, Note_on_c, 0, 67, 100
1, 102615, Note_off_c, 0, 67, 100
1, 102615, Note_on_c, 0, 63, 100
1, 102663, Note_off_c, 0, 63, 100
1, 102663, Note_on_c, 0, 60, 100
1, 102711, Note_off_c, 0, 60, 100
1, 102711, Note_on_c, 0, 63, 100
1, 102775, Note_off_c, 0, 63, 100
1, 102775, Note_on_c, 0, 67, 100
1, 102839, Note_off_c, 0, 67, 100
1, 102839, Note_on_c, 0, 69, 100
1, 102903, Note_off_c, 0, 69, 100
1, 102903, Note_on_c, 0, 65, 100
1, 102951, Note_off_c, 0, 65, 100
1, 102951, Note_on_c, 0, 66, 100
1, 102999, Note_off_c, 0, 66, 100
1, 102999, Note_on_c, 0, 67, 100
1, 103047, Note_off_c, 0, 67, 100
1, 103047, Note_on_c, 0, 63, 100
1, 103143, Note_off_c, 0, 63, 100
1, 103143, Note_on_c, 0, 60, 100
1, 103191, Note_off_c, 0, 60, 100
1, 103191, Note_on_c, 0, 64, 100
1, 103239, Note_off_c, 0, 64, 100
1, 103239, Note_on_c, 0, 65, 100
1, 103287, Note_off_c, 0, 65, 100
1, 103287, Note_on_c, 0, 62, 100
1, 103383, Note_off_c, 0, 62, 100
1, 103383, Note_on_c, 0, 58, 100
1, 103431, Note_off_c, 0, 58, 100
1, 103431, Note_on_c, 0, 55, 100
1, 103479, Note_off_c, 0, 55, 100
1, 103479, Note_on_c, 0, 57, 100
1, 103543, Note_off_c, 0, 57, 100
1, 103543, Note_on_c, 0, 58, 100
1, 103607, Note_off_c, 0, 58, 100
1, 103607, Note_on_c, 0, 63, 100
1, 103671, Note_off_c, 0, 63, 100
1, 103671, Note_on_c, 0, 60, 100
1, 103735, Note_off_c, 0, 60, 100
1, 103735, Note_on_c, 0, 59, 100
1, 103799, Note_off_c, 0, 59, 100
1, 103799, Note_on_c, 0, 54, 100
1, 103863, Note_off_c, 0, 54, 100
1, 103863, Note_on_c, 0, 55, 100
1, 103927, Note_off_c, 0, 55, 100
1, 103927, Note_on_c, 0, 59, 100
1, 103991, Note_off_c, 0, 59, 100
1, 103991, Note_on_c, 0, 60, 100
1, 104055, Note_off_c, 0, 60, 100
1, 104055, Note_on_c, 0, 59, 100
1, 104119, Note_off_c, 0, 59, 100
1, 104119, Note_on_c, 0, 55, 100
1, 104183, Note_off_c, 0, 55, 100
1, 104183, Note_on_c, 0, 51, 100
1, 104247, Note_off_c, 0, 51, 100
1, 104247, Note_on_c, 0, 48, 100
1, 104295, Note_off_c, 0, 48, 100
1, 104295, Note_on_c, 0, 58, 100
1, 104439, Note_off_c, 0, 58, 100
1, 104439, Note_on_c, 0, 51, 100
1, 104487, Note_off_c, 0, 51, 100
1, 104487, Note_on_c, 0, 56, 100
1, 104535, Note_off_c, 0, 56, 100
1, 104535, Note_on_c, 0, 55, 100
1, 104583, Note_off_c, 0, 55, 100
1, 104583, Note_on_c, 0, 51, 100
1, 104695, Note_off_c, 0, 51, 100
1, 104695, Note_on_c, 0, 48, 100
1, 104759, Note_off_c, 0, 48, 100
1, 104759, Note_on_c, 0, 55, 100
1, 104823, Note_off_c, 0, 55, 100
1, 104823, Note_on_c, 0, 53, 100
1, 105111, Note_off_c, 0, 53, 100
1, 105447, Note_on_c, 0, 51, 100
1, 105543, Note_off_c, 0, 51, 100
1, 105543, Note_on_c, 0, 55, 100
1, 105687, Note_off_c, 0, 55, 100
1, 105687, Note_on_c, 0, 53, 100
1, 105735, Note_off_c, 0, 53, 100
1, 105735, Note_on_c, 0, 51, 100
1, 105879, Note_off_c, 0, 51, 100
1, 105879, Note_on_c, 0, 50, 100
1, 105975, Note_off_c, 0, 50, 100
1, 105975, Note_on_c, 0, 48, 100
1, 106071, Note_off_c, 0, 48, 100
1, 106071, Note_on_c, 0, 50, 100
1, 106167, Note_off_c, 0, 50, 100
1, 106167, Note_on_c, 0, 51, 100
1, 106311, Note_off_c, 0, 51, 100
1, 106311, Note_on_c, 0, 48, 100
1, 106359, Note_off_c, 0, 48, 100
1, 106359, Note_on_c, 0, 53, 100
1, 106551, Note_off_c, 0, 53, 100
1, 106551, Note_on_c, 0, 51, 100
1, 106647, Note_off_c, 0, 51, 100
1, 106647, Note_on_c, 0, 53, 100
1, 106743, Note_off_c, 0, 53, 100
1, 106743, Note_on_c, 0, 54, 100
1, 106839, Note_off_c, 0, 54, 100
1, 106839, Note_on_c, 0, 55, 100
1, 106935, Note_off_c, 0, 55, 100
1, 106935, Note_on_c, 0, 57, 100
1, 107127, Note_off_c, 0, 57, 100
1, 107127, Note_on_c, 0, 55, 100
1, 107271, Note_off_c, 0, 55, 100
1, 107271, Note_on_c, 0, 63, 100
1, 107415, Note_off_c, 0, 63, 100
1, 107415, Note_on_c, 0, 58, 100
1, 107511, Note_off_c, 0, 58, 100
1, 107511, Note_on_c, 0, 59, 100
1, 107607, Note_off_c, 0, 59, 100
1, 107607, Note_on_c, 0, 62, 100
1, 107703, Note_off_c, 0, 62, 100
1, 107703, Note_on_c, 0, 63, 100
1, 107831, Note_off_c, 0, 63, 100
1, 107831, Note_on_c, 0, 67, 100
1, 107943, Note_off_c, 0, 67, 100
1, 107943, Note_on_c, 0, 66, 100
1, 108039, Note_off_c, 0, 66, 100
1, 108039, Note_on_c, 0, 62, 100
1, 108087, Note_off_c, 0, 62, 100
1, 108087, Note_on_c, 0, 65, 100
1, 108279, Note_off_c, 0, 65, 100
1, 108279, Note_on_c, 0, 64, 100
1, 108407, Note_off_c, 0, 64, 100
1, 108407, Note_on_c, 0, 66, 100
1, 108471, Note_off_c, 0, 66, 100
1, 108471, Note_on_c, 0, 71, 100
1, 108567, Note_off_c, 0, 71, 100
1, 108567, Note_on_c, 0, 73, 100
1, 108711, Note_off_c, 0, 73, 100
1, 108711, Note_on_c, 0, 67, 100
1, 108807, Note_off_c, 0, 67, 100
1, 108807, Note_on_c, 0, 71, 100
1, 108855, Note_off_c, 0, 71, 100
1, 108855, Note_on_c, 0, 69, 100
1, 108951, Note_off_c, 0, 69, 100
1, 108951, Note_on_c, 0, 65, 100
1, 109047, Note_off_c, 0, 65, 100
1, 109047, Note_on_c, 0, 63, 100
1, 109143, Note_off_c, 0, 63, 100
1, 109143, Note_on_c, 0, 67, 100
1, 109239, Note_off_c, 0, 67, 100
1, 109239, Note_on_c, 0, 62, 100
1, 109383, Note_off_c, 0, 62, 100
1, 109383, Note_on_c, 0, 60, 100
1, 109479, Note_off_c, 0, 60, 100
1, 109815, Note_on_c, 0, 63, 100
1, 110007, Note_off_c, 0, 63, 100
1, 110007, Note_on_c, 0, 63, 100
1, 110151, Note_off_c, 0, 63, 100
1, 110151, Note_on_c, 0, 63, 100
1, 110263, Note_off_c, 0, 63, 100
1, 110263, Note_on_c, 0, 65, 100
1, 110391, Note_off_c, 0, 65, 100
1, 110391, Note_on_c, 0, 63, 100
1, 110519, Note_off_c, 0, 63, 100
1, 110519, Note_on_c, 0, 65, 100
1, 110631, Note_off_c, 0, 65, 100
1, 110631, Note_on_c, 0, 66, 100
1, 110727, Note_off_c, 0, 66, 100
1, 110727, Note_on_c, 0, 65, 100
1, 110775, Note_off_c, 0, 65, 100
1, 110775, Note_on_c, 0, 63, 100
1, 110919, Note_off_c, 0, 63, 100
1, 110919, Note_on_c, 0, 60, 100
1, 111159, Note_off_c, 0, 60, 100
1, 111159, Note_on_c, 0, 63, 100
1, 111303, Note_off_c, 0, 63, 100
1, 111303, Note_on_c, 0, 65, 100
1, 111399, Note_off_c, 0, 65, 100
1, 111831, Note_on_c, 0, 60, 100
1, 111927, Note_off_c, 0, 60, 100
1, 111927, Note_on_c, 0, 62, 100
1, 112055, Note_off_c, 0, 62, 100
1, 112055, Note_on_c, 0, 63, 100
1, 112311, Note_off_c, 0, 63, 100
1, 112311, Note_on_c, 0, 62, 100
1, 112455, Note_off_c, 0, 62, 100
1, 112455, Note_on_c, 0, 60, 100
1, 112503, Note_off_c, 0, 60, 100
1, 112503, Note_on_c, 0, 63, 100
1, 112695, Note_off_c, 0, 63, 100
1, 112695, Note_on_c, 0, 62, 100
1, 112791, Note_off_c, 0, 62, 100
1, 112791, Note_on_c, 0, 60, 100
1, 112887, Note_off_c, 0, 60, 100
1, 112887, Note_on_c, 0, 63, 100
1, 113079, Note_off_c, 0, 63, 100
1, 113079, Note_on_c, 0, 62, 100
1, 113271, Note_off_c, 0, 62, 100
1, 113271, Note_on_c, 0, 60, 100
1, 113463, Note_off_c, 0, 60, 100
1, 113463, Note_on_c, 0, 72, 100
1, 113607, Note_off_c, 0, 72, 100
1, 113607, Note_on_c, 0, 69, 100
1, 113655, Note_off_c, 0, 69, 100
1, 113655, Note_on_c, 0, 70, 100
1, 113751, Note_off_c, 0, 70, 100
1, 114039, Note_on_c, 0, 65, 100
1, 114135, Note_off_c, 0, 65, 100
1, 114135, Note_on_c, 0, 67, 100
1, 114183, Note_off_c, 0, 67, 100
1, 114183, Note_on_c, 0, 68, 100
1, 114327, Note_off_c, 0, 68, 100
1, 114327, Note_on_c, 0, 67, 100
1, 114519, Note_off_c, 0, 67, 100
1, 114519, Note_on_c, 0, 63, 100
1, 114807, Note_off_c, 0, 63, 100
1, 114999, Note_on_c, 0, 63, 100
1, 115191, Note_off_c, 0, 63, 100
1, 115191, Note_on_c, 0, 61, 100
1, 115255, Note_off_c, 0, 61, 100
1, 115255, Note_on_c, 0, 62, 100
1, 115383, Note_off_c, 0, 62, 100
1, 115383, Note_on_c, 0, 65, 100
1, 115479, Note_off_c, 0, 65, 100
1, 115479, Note_on_c, 0, 70, 100
1, 115959, Note_off_c, 0, 70, 100
1, 115959, Note_on_c, 0, 70, 100
1, 116727, Note_off_c, 0, 70, 100
1, 116727, Note_on_c, 0, 70, 100
1, 117111, Note_off_c, 0, 70, 100
1, 117111, Note_on_c, 0, 70, 100
1, 117303, Note_off_c, 0, 70, 100
1, 117303, Note_on_c, 0, 72, 100
1, 117399, Note_off_c, 0, 72, 100
1, 117399, Note_on_c, 0, 68, 100
1, 117687, Note_off_c, 0, 68, 100
1, 118071, Note_on_c, 0, 68, 100
1, 118199, Note_off_c, 0, 68, 100
1, 118199, Note_on_c, 0, 67, 100
1, 118935, Note_off_c, 0, 67, 100
1, 118935, Note_on_c, 0, 65, 100
1, 119175, Note_off_c, 0, 65, 100
1, 119175, Note_on_c, 0, 64, 100
1, 119271, Note_off_c, 0, 64, 100
1, 119271, Note_on_c, 0, 65, 100
1, 119415, Note_off_c, 0, 65, 100
1, 119415, Note_on_c, 0, 62, 100
1, 119559, Note_off_c, 0, 62, 100
1, 119559, Note_on_c, 0, 63, 100
1, 119895, Note_off_c, 0, 63, 100
1, 119895, Note_on_c, 0, 60, 100
1, 120375, Note_off_c, 0, 60, 100
1, 120375, Note_on_c, 0, 58, 100
1, 120471, Note_off_c, 0, 58, 100
1, 120471, Note_on_c, 0, 62, 100
1, 120663, Note_off_c, 0, 62, 100
1, 120951, Note_on_c, 0, 60, 100
1, 121095, Note_off_c, 0, 60, 100
1, 121095, Note_on_c, 0, 60, 100
1, 121239, Note_off_c, 0, 60, 100
1, 121239, Note_on_c, 0, 58, 100
1, 121335, Note_off_c, 0, 58, 100
1, 121335, Note_on_c, 0, 60, 100
1, 121431, Note_off_c, 0, 60, 100
1, 121431, Note_on_c, 0, 58, 100
1, 121527, Note_off_c, 0, 58, 100
1, 121527, Note_on_c, 0, 62, 100
1, 121719, Note_off_c, 0, 62, 100
1, 121719, Note_on_c, 0, 60, 100
1, 121815, Note_off_c, 0, 60, 100
1, 121815, Note_on_c, 0, 58, 100
1, 121911, Note_off_c, 0, 58, 100
1, 121911, Note_on_c, 0, 60, 100
1, 122007, Note_off_c, 0, 60, 100
1, 122007, Note_on_c, 0, 58, 100
1, 122103, Note_off_c, 0, 58, 100
1, 122103, Note_on_c, 0, 60, 100
1, 122231, Note_off_c, 0, 60, 100
1, 122231, Note_on_c, 0, 58, 100
1, 122295, Note_off_c, 0, 58, 100
1, 122295, Note_on_c, 0, 62, 100
1, 122583, Note_off_c, 0, 62, 100
1, 122775, Note_on_c, 0, 63, 100
1, 122871, Note_off_c, 0, 63, 100
1, 122871, Note_on_c, 0, 62, 100
1, 122967, Note_off_c, 0, 62, 100
1, 122967, Note_on_c, 0, 60, 100
1, 123063, Note_off_c, 0, 60, 100
1, 123063, Note_on_c, 0, 59, 100
1, 123159, Note_off_c, 0, 59, 100
1, 123159, Note_on_c, 0, 62, 100
1, 123255, Note_off_c, 0, 62, 100
1, 123255, Note_on_c, 0, 60, 100
1, 123351, Note_off_c, 0, 60, 100
1, 123351, Note_on_c, 0, 56, 100
1, 123447, Note_off_c, 0, 56, 100
1, 123447, Note_on_c, 0, 58, 100
1, 123511, Note_off_c, 0, 58, 100
1, 123511, Note_on_c, 0, 60, 100
1, 123575, Note_off_c, 0, 60, 100
1, 123575, Note_on_c, 0, 58, 100
1, 123639, Note_off_c, 0, 58, 100
1, 123639, Note_on_c, 0, 55, 100
1, 123735, Note_off_c, 0, 55, 100
1, 123735, Note_on_c, 0, 53, 100
1, 123831, Note_off_c, 0, 53, 100
1, 123831, Note_on_c, 0, 51, 100
1, 124263, Note_off_c, 0, 51, 100
1, 124263, Note_on_c, 0, 50, 100
1, 124359, Note_off_c, 0, 50, 100
1, 124359, Note_on_c, 0, 48, 100
1, 124658, Note_off_c, 0, 48, 100
1, 124658, End_track
0, 0, End_of_file
