0, 0, Header, 1, 1, 192
1, 0, Start_track
1, 0, Title_t, "Melody"
1, 0, Tempo, 309278
1, 0, Key_signature, -1, "major"
1, 0, Time_signature, 4, 2, 24, 8
1, 640, Note_on_c, 0, 66, 100
1, 703, Note_off_c, 0, 66, 100
1, 703, Note_on_c, 0, 65, 100
1, 805, Note_off_c, 0, 65, 100
1, 805, Note_on_c, 0, 65, 100
1, 843, Note_off_c, 0, 65, 100
1, 843, Note_on_c, 0, 61, 100
1, 919, Note_off_c, 0, 61, 100
1, 919, Note_on_c, 0, 56, 100
1, 1101, Note_off_c, 0, 56, 100
1, 1101, Note_on_c, 0, 59, 100
1, 1293, Note_off_c, 0, 59, 100
1, 1485, Note_on_c, 0, 57, 100
1, 1677, Note_off_c, 0, 57, 100
1, 1677, Note_on_c, 0, 61, 100
1, 1821, Note_off_c, 0, 61, 100
1, 1821, Note_on_c, 0, 64, 100
1, 1917, Note_off_c, 0, 64, 100
1, 1917, Note_on_c, 0, 58, 100
1, 2013, Note_off_c, 0, 58, 100
1, 2013, Note_on_c, 0, 60, 100
1, 2301, Note_off_c, 0, 60, 100
1, 2301, Note_on_c, 0, 69, 100
1, 2397, Note_off_c, 0, 69, 100
1, 2397, Note_on_c, 0, 67, 100
1, 2493, Note_off_c, 0, 67, 100
1, 2493, Note_on_c, 0, 62, 100
1, 2637, Note_off_c, 0, 62, 100
1, 2637, Note_on_c, 0, 65, 100
1, 2733, Note_off_c, 0, 65, 100
1, 2973, Note_on_c, 0, 69, 100
1, 3069, Note_off_c, 0, 69, 100
1, 3069, Note_on_c, 0, 70, 100
1, 3117, Note_off_c, 0, 70, 100
1, 3117, Note_on_c, 0, 72, 100
1, 3453, Note_off_c, 0, 72, 100
1, 3453, Note_on_c, 0, 70, 100
1, 3645, Note_off_c, 0, 70, 100
1, 3645, Note_on_c, 0, 72, 100
1, 3789, Note_off_c, 0, 72, 100
1, 3789, Note_on_c, 0, 68, 100
1, 4221, Note_off_c, 0, 68, 100
1, 4221, Note_on_c, 0, 66, 100
1, 4413, Note_off_c, 0, 66, 100
1, 4413, Note_on_c, 0, 68, 100
1, 4605, Note_off_c, 0, 68, 100
1, 4605, Note_on_c, 0, 64, 100
1, 4989, Note_off_c, 0, 64, 100
1, 4989, Note_on_c, 0, 62, 100
1, 5181, Note_off_c, 0, 62, 100
1, 5181, Note_on_c, 0, 64, 100
1, 5325, Note_off_c, 0, 64, 100
1, 5325, Note_on_c, 0, 60, 100
1, 5421, Note_off_c, 0, 60, 100
1, 5805, Note_on_c, 0, 69, 100
1, 5901, Note_off_c, 0, 69, 100
1, 5901, Note_on_c, 0, 67, 100
1, 5949, Note_off_c, 0, 67, 100
1, 5949, Note_on_c, 0, 63, 100
1, 6045, Note_off_c, 0, 63, 100
1, 6045, Note_on_c, 0, 60, 100
1, 6141, Note_off_c, 0, 60, 100
1, 6141, Note_on_c, 0, 58, 100
1, 6429, Note_off_c, 0, 58, 100
1, 6429, Note_on_c, 0, 65, 100
1, 6525, Note_off_c, 0, 65, 100
1, 6525, Note_on_c, 0, 63, 100
1, 6669, Note_off_c, 0, 63, 100
1, 6669, Note_on_c, 0, 59, 100
1, 6813, Note_off_c, 0, 59, 100
1, 6813, Note_on_c, 0, 61, 100
1, 6909, Note_off_c, 0, 61, 100
1, 6909, Note_on_c, 0, 58, 100
1, 7197, Note_off_c, 0, 58, 100
1, 7197, Note_on_c, 0, 70, 100
1, 7293, Note_off_c, 0, 70, 100
1, 7293, Note_on_c, 0, 69, 100
1, 7389, Note_off_c, 0, 69, 100
1, 7389, Note_on_c, 0, 68, 100
1, 7485, Note_off_c, 0, 68, 100
1, 7485, Note_on_c, 0, 67, 100
1, 7629, Note_off_c, 0, 67, 100
1, 7629, Note_on_c, 0, 71, 100
1, 7677, Note_off_c, 0, 71, 100
1, 7677, Note_on_c, 0, 69, 100
1, 7773, Note_off_c, 0, 69, 100
1, 7773, Note_on_c, 0, 65, 100
1, 7869, Note_off_c, 0, 65, 100
1, 7869, Note_on_c, 0, 62, 100
1, 8013, Note_off_c, 0, 62, 100
1, 8013, Note_on_c, 0, 59, 100
1, 8109, Note_off_c, 0, 59, 100
1, 8349, Note_on_c, 0, 69, 100
1, 8733, Note_off_c, 0, 69, 100
1, 8733, Note_on_c, 0, 64, 100
1, 8829, Note_off_c, 0, 64, 100
1, 8829, Note_on_c, 0, 60, 100
1, 8957, Note_off_c, 0, 60, 100
1, 8957, Note_on_c, 0, 58, 100
1, 9053, Note_off_c, 0, 58, 100
1, 9405, Note_on_c, 0, 69, 100
1, 9501, Note_off_c, 0, 69, 100
1, 9501, Note_on_c, 0, 72, 100
1, 9597, Note_off_c, 0, 72, 100
1, 9597, Note_on_c, 0, 68, 100
1, 9693, Note_off_c, 0, 68, 100
1, 9693, Note_on_c, 0, 66, 100
1, 9789, Note_off_c, 0, 66, 100
1, 9789, Note_on_c, 0, 63, 100
1, 9933, Note_off_c, 0, 63, 100
1, 9933, Note_on_c, 0, 61, 100
1, 9981, Note_off_c, 0, 61, 100
1, 9981, Note_on_c, 0, 65, 100
1, 10077, Note_off_c, 0, 65, 100
1, 10077, Note_on_c, 0, 61, 100
1, 10173, Note_off_c, 0, 61, 100
1, 10173, Note_on_c, 0, 65, 100
1, 10365, Note_off_c, 0, 65, 100
1, 10365, Note_on_c, 0, 62, 100
1, 10461, Note_off_c, 0, 62, 100
1, 10461, Note_on_c, 0, 62, 100
1, 10557, Note_off_c, 0, 62, 100
1, 10557, Note_on_c, 0, 59, 100
1, 10701, Note_off_c, 0, 59, 100
1, 10701, Note_on_c, 0, 57, 100
1, 10749, Note_off_c, 0, 57, 100
1, 10749, Note_on_c, 0, 64, 100
1, 10941, Note_off_c, 0, 64, 100
1, 10941, Note_on_c, 0, 61, 100
1, 11069, Note_off_c, 0, 61, 100
1, 11069, Note_on_c, 0, 64, 100
1, 11133, Note_off_c, 0, 64, 100
1, 11133, Note_on_c, 0, 60, 100
1, 11229, Note_off_c, 0, 60, 100
1, 11229, Note_on_c, 0, 59, 100
1, 11325, Note_off_c, 0, 59, 100
1, 11325, Note_on_c, 0, 58, 100
1, 11421, Note_off_c, 0, 58, 100
1, 11421, Note_on_c, 0, 60, 100
1, 11517, Note_off_c, 0, 60, 100
1, 11517, Note_on_c, 0, 57, 100
1, 11613, Note_off_c, 0, 57, 100
1, 11613, Note_on_c, 0, 53, 100
1, 11709, Note_off_c, 0, 53, 100
1, 11709, Note_on_c, 0, 55, 100
1, 11805, Note_off_c, 0, 55, 100
1, 11805, Note_on_c, 0, 51, 100
1, 11997, Note_off_c, 0, 51, 100
1, 12477, Note_on_c, 0, 65, 100
1, 12573, Note_off_c, 0, 65, 100
1, 12573, Note_on_c, 0, 70, 100
1, 12717, Note_off_c, 0, 70, 100
1, 12717, Note_on_c, 0, 63, 100
1, 12813, Note_off_c, 0, 63, 100
1, 12813, Note_on_c, 0, 66, 100
1, 13053, Note_off_c, 0, 66, 100
1, 13053, Note_on_c, 0, 68, 100
1, 13149, Note_off_c, 0, 68, 100
1, 13149, Note_on_c, 0, 65, 100
1, 13245, Note_off_c, 0, 65, 100
1, 13245, Note_on_c, 0, 61, 100
1, 13389, Note_off_c, 0, 61, 100
1, 13389, Note_on_c, 0, 56, 100
1, 13437, Note_off_c, 0, 56, 100
1, 13437, Note_on_c, 0, 62, 100
1, 13629, Note_off_c, 0, 62, 100
1, 13629, Note_on_c, 0, 59, 100
1, 13725, Note_off_c, 0, 59, 100
1, 13725, Note_on_c, 0, 54, 100
1, 13821, Note_off_c, 0, 54, 100
1, 13821, Note_on_c, 0, 57, 100
1, 13948, Note_off_c, 0, 57, 100
1, 13948, Note_on_c, 0, 59, 100
1, 14012, Note_off_c, 0, 59, 100
1, 14012, Note_on_c, 0, 61, 100
1, 14108, Note_off_c, 0, 61, 100
1, 14108, Note_on_c, 0, 62, 100
1, 14204, Note_off_c, 0, 62, 100
1, 14204, Note_on_c, 0, 58, 100
1, 14348, Note_off_c, 0, 58, 100
1, 14348, Note_on_c, 0, 60, 100
1, 14492, Note_off_c, 0, 60, 100
1, 14492, Note_on_c, 0, 57, 100
1, 14924, Note_off_c, 0, 57, 100
1, 14924, Note_on_c, 0, 55, 100
1, 15068, Note_off_c, 0, 55, 100
1, 15068, Note_on_c, 0, 53, 100
1, 15260, Note_off_c, 0, 53, 100
1, 15884, Note_on_c, 0, 60, 100
1, 15932, Note_off_c, 0, 60, 100
1, 15932, Note_on_c, 0, 61, 100
1, 15996, Note_off_c, 0, 61, 100
1, 15996, Note_on_c, 0, 63, 100
1, 16060, Note_off_c, 0, 63, 100
1, 16060, Note_on_c, 0, 66, 100
1, 16124, Note_off_c, 0, 66, 100
1, 16124, Note_on_c, 0, 69, 100
1, 16220, Note_off_c, 0, 69, 100
1, 16220, Note_on_c, 0, 64, 100
1, 16460, Note_off_c, 0, 64, 100
1, 16460, Note_on_c, 0, 69, 100
1, 16556, Note_off_c, 0, 69, 100
1, 16556, Note_on_c, 0, 71, 100
1, 16604, Note_off_c, 0, 71, 100
1, 16604, Note_on_c, 0, 73, 100
1, 16652, Note_off_c, 0, 73, 100
1, 16652, Note_on_c, 0, 74, 100
1, 16748, Note_off_c, 0, 74, 100
1, 16748, Note_on_c, 0, 73, 100
1, 16844, Note_off_c, 0, 73, 100
1, 16844, Note_on_c, 0, 71, 100
1, 16940, Note_off_c, 0, 71, 100
1, 16940, Note_on_c, 0, 69, 100
1, 17036, Note_off_c, 0, 69, 100
1, 17036, Note_on_c, 0, 67, 100
1, 17132, Note_off_c, 0, 67, 100
1, 17132, Note_on_c, 0, 66, 100
1, 17228, Note_off_c, 0, 66, 100
1, 17228, Note_on_c, 0, 69, 100
1, 17276, Note_off_c, 0, 69, 100
1, 17276, Note_on_c, 0, 63, 100
1, 17372, Note_off_c, 0, 63, 100
1, 17372, Note_on_c, 0, 65, 100
1, 17468, Note_off_c, 0, 65, 100
1, 17468, Note_on_c, 0, 69, 100
1, 17564, Note_off_c, 0, 69, 100
1, 17564, Note_on_c, 0, 74, 100
1, 17660, Note_off_c, 0, 74, 100
1, 17660, Note_on_c, 0, 73, 100
1, 17708, Note_off_c, 0, 73, 100
1, 17708, Note_on_c, 0, 70, 100
1, 17996, Note_off_c, 0, 70, 100
1, 17996, Note_on_c, 0, 72, 100
1, 18044, Note_off_c, 0, 72, 100
1, 18044, Note_on_c, 0, 70, 100
1, 18188, Note_off_c, 0, 70, 100
1, 18188, Note_on_c, 0, 70, 100
1, 18380, Note_off_c, 0, 70, 100
1, 18716, Note_on_c, 0, 71, 100
1, 18764, Note_off_c, 0, 71, 100
1, 18764, Note_on_c, 0, 72, 100
1, 19148, Note_off_c, 0, 72, 100
1, 19148, Note_on_c, 0, 70, 100
1, 19196, Note_off_c, 0, 70, 100
1, 19196, Note_on_c, 0, 71, 100
1, 19244, Note_off_c, 0, 71, 100
1, 19244, Note_on_c, 0, 72, 100
1, 19292, Note_off_c, 0, 72, 100
1, 19292, Note_on_c, 0, 75, 100
1, 19580, Note_off_c, 0, 75, 100
1, 19580, Note_on_c, 0, 74, 100
1, 19628, Note_off_c, 0, 74, 100
1, 19628, Note_on_c, 0, 72, 100
1, 19772, Note_off_c, 0, 72, 100
1, 19772, Note_on_c, 0, 71, 100
1, 19820, Note_off_c, 0, 71, 100
1, 19820, Note_on_c, 0, 72, 100
1, 19964, Note_off_c, 0, 72, 100
1, 19964, Note_on_c, 0, 68, 100
1, 20300, Note_off_c, 0, 68, 100
1, 20300, Note_on_c, 0, 65, 100
1, 20348, Note_off_c, 0, 65, 100
1, 20348, Note_on_c, 0, 60, 100
1, 20492, Note_off_c, 0, 60, 100
1, 20492, Note_on_c, 0, 58, 100
1, 20588, Note_off_c, 0, 58, 100
1, 21020, Note_on_c, 0, 71, 100
1, 21052, Note_off_c, 0, 71, 100
1, 21052, Note_on_c, 0, 72, 100
1, 21084, Note_off_c, 0, 72, 100
1, 21084, Note_on_c, 0, 73, 100
1, 21116, Note_off_c, 0, 73, 100
1, 21116, Note_on_c, 0, 74, 100
1, 21164, Note_off_c, 0, 74, 100
1, 21164, Note_on_c, 0, 75, 100
1, 21404, Note_off_c, 0, 75, 100
1, 21404, Note_on_c, 0, 73, 100
1, 21500, Note_off_c, 0, 73, 100
1, 21500, Note_on_c, 0, 72, 100
1, 21644, Note_off_c, 0, 72, 100
1, 21644, Note_on_c, 0, 69, 100
1, 21692, Note_off_c, 0, 69, 100
1, 21692, Note_on_c, 0, 70, 100
1, 21820, Note_off_c, 0, 70, 100
1, 21820, Note_on_c, 0, 68, 100
1, 22220, Note_off_c, 0, 68, 100
1, 22220, Note_on_c, 0, 66, 100
1, 22316, Note_off_c, 0, 66, 100
1, 22316, Note_on_c, 0, 65, 100
1, 22412, Note_off_c, 0, 65, 100
1, 22412, Note_on_c, 0, 63, 100
1, 22460, Note_off_c, 0, 63, 100
1, 22460, Note_on_c, 0, 61, 100
1, 22652, Note_off_c, 0, 61, 100
1, 22652, Note_on_c, 0, 57, 100
1, 22684, Note_off_c, 0, 57, 100
1, 22684, Note_on_c, 0, 62, 100
1, 22780, Note_off_c, 0, 62, 100
1, 22780, Note_on_c, 0, 62, 100
1, 22844, Note_off_c, 0, 62, 100
1, 22844, Note_on_c, 0, 59, 100
1, 22940, Note_off_c, 0, 59, 100
1, 22940, Note_on_c, 0, 52, 100
1, 23036, Note_off_c, 0, 52, 100
1, 23036, Note_on_c, 0, 64, 100
1, 23228, Note_off_c, 0, 64, 100
1, 23228, Note_on_c, 0, 69, 100
1, 23324, Note_off_c, 0, 69, 100
1, 23324, Note_on_c, 0, 73, 100
1, 23420, Note_off_c, 0, 73, 100
1, 23420, Note_on_c, 0, 69, 100
1, 23516, Note_off_c, 0, 69, 100
1, 23516, Note_on_c, 0, 70, 100
1, 23900, Note_off_c, 0, 70, 100
1, 23900, Note_on_c, 0, 72, 100
1, 23996, Note_off_c, 0, 72, 100
1, 23996, Note_on_c, 0, 69, 100
1, 24092, Note_off_c, 0, 69, 100
1, 24092, Note_on_c, 0, 67, 100
1, 24188, Note_off_c, 0, 67, 100
1, 24188, Note_on_c, 0, 65, 100
1, 24284, Note_off_c, 0, 65, 100
1, 24284, Note_on_c, 0, 64, 100
1, 24380, Note_off_c, 0, 64, 100
1, 24380, Note_on_c, 0, 63, 100
1, 24524, Note_off_c, 0, 63, 100
1, 24524, Note_on_c, 0, 65, 100
1, 24572, Note_off_c, 0, 65, 100
1, 24572, Note_on_c, 0, 61, 100
1, 24668, Note_off_c, 0, 61, 100
1, 24668, Note_on_c, 0, 62, 100
1, 24764, Note_off_c, 0, 62, 100
1, 24764, Note_on_c, 0, 58, 100
1, 24956, Note_off_c, 0, 58, 100
1, 24956, Note_on_c, 0, 56, 100
1, 25148, Note_off_c, 0, 56, 100
1, 25148, Note_on_c, 0, 54, 100
1, 25244, Note_off_c, 0, 54, 100
1, 25244, Note_on_c, 0, 53, 100
1, 25436, Note_off_c, 0, 53, 100
1, 25868, Note_on_c, 0, 62, 100
1, 25916, Note_off_c, 0, 62, 100
1, 25916, Note_on_c, 0, 59, 100
1, 26156, Note_off_c, 0, 59, 100
1, 26156, Note_on_c, 0, 61, 100
1, 26300, Note_off_c, 0, 61, 100
1, 26300, Note_on_c, 0, 64, 100
1, 26492, Note_off_c, 0, 64, 100
1, 26492, Note_on_c, 0, 60, 100
1, 26684, Note_off_c, 0, 60, 100
1, 26684, Note_on_c, 0, 58, 100
1, 26780, Note_off_c, 0, 58, 100
1, 26780, Note_on_c, 0, 60, 100
1, 26876, Note_off_c, 0, 60, 100
1, 27356, Note_on_c, 0, 69, 100
1, 27644, Note_off_c, 0, 69, 100
1, 27644, Note_on_c, 0, 65, 100
1, 27836, Note_off_c, 0, 65, 100
1, 27836, Note_on_c, 0, 69, 100
1, 27980, Note_off_c, 0, 69, 100
1, 27980, Note_on_c, 0, 68, 100
1, 28220, Note_off_c, 0, 68, 100
1, 28220, Note_on_c, 0, 66, 100
1, 28412, Note_off_c, 0, 66, 100
1, 28412, Note_on_c, 0, 65, 100
1, 28604, Note_off_c, 0, 65, 100
1, 28604, Note_on_c, 0, 68, 100
1, 28796, Note_off_c, 0, 68, 100
1, 28796, Note_on_c, 0, 64, 100
1, 28988, Note_off_c, 0, 64, 100
1, 28988, Note_on_c, 0, 62, 100
1, 29180, Note_off_c, 0, 62, 100
1, 29180, Note_on_c, 0, 61, 100
1, 29324, Note_off_c, 0, 61, 100
1, 29324, Note_on_c, 0, 64, 100
1, 29564, Note_off_c, 0, 64, 100
1, 29564, Note_on_c, 0, 60, 100
1, 29756, Note_off_c, 0, 60, 100
1, 29756, Note_on_c, 0, 69, 100
1, 29900, Note_off_c, 0, 69, 100
1, 29900, Note_on_c, 0, 65, 100
1, 29996, Note_off_c, 0, 65, 100
1, 30524, Note_on_c, 0, 67, 100
1, 30620, Note_off_c, 0, 67, 100
1, 30620, Note_on_c, 0, 63, 100
1, 30716, Note_off_c, 0, 63, 100
1, 30716, Note_on_c, 0, 65, 100
1, 30812, Note_off_c, 0, 65, 100
1, 31052, Note_on_c, 0, 65, 100
1, 31100, Note_off_c, 0, 65, 100
1, 31100, Note_on_c, 0, 63, 100
1, 31292, Note_off_c, 0, 63, 100
1, 31292, Note_on_c, 0, 59, 100
1, 31388, Note_off_c, 0, 59, 100
1, 31388, Note_on_c, 0, 61, 100
1, 31484, Note_off_c, 0, 61, 100
1, 31484, Note_on_c, 0, 58, 100
1, 31580, Note_off_c, 0, 58, 100
1, 31580, Note_on_c, 0, 54, 100
1, 31820, Note_off_c, 0, 54, 100
1, 31820, Note_on_c, 0, 54, 100
1, 32252, Note_off_c, 0, 54, 100
1, 32252, Note_on_c, 0, 55, 100
1, 32380, Note_off_c, 0, 55, 100
1, 32380, Note_on_c, 0, 53, 100
1, 32476, Note_off_c, 0, 53, 100
1, 33164, Note_on_c, 0, 55, 100
1, 33260, Note_off_c, 0, 55, 100
1, 33260, Note_on_c, 0, 52, 100
1, 33356, Note_off_c, 0, 52, 100
1, 33356, Note_on_c, 0, 45, 100
1, 33452, Note_off_c, 0, 45, 100
1, 34124, Note_on_c, 0, 60, 100
1, 34220, Note_off_c, 0, 60, 100
1, 34220, Note_on_c, 0, 58, 100
1, 34316, Note_off_c, 0, 58, 100
1, 34316, Note_on_c, 0, 54, 100
1, 34508, Note_off_c, 0, 54, 100
1, 34508, Note_on_c, 0, 56, 100
1, 34556, Note_off_c, 0, 56, 100
1, 34556, Note_on_c, 0, 53, 100
1, 34652, Note_off_c, 0, 53, 100
1, 34940, Note_on_c, 0, 61, 100
1, 35036, Note_off_c, 0, 61, 100
1, 35036, Note_on_c, 0, 62, 100
1, 35132, Note_off_c, 0, 62, 100
1, 35132, Note_on_c, 0, 59, 100
1, 35324, Note_off_c, 0, 59, 100
1, 35324, Note_on_c, 0, 57, 100
1, 35516, Note_off_c, 0, 57, 100
1, 35516, Note_on_c, 0, 61, 100
1, 35612, Note_off_c, 0, 61, 100
1, 35612, Note_on_c, 0, 64, 100
1, 35708, Note_off_c, 0, 64, 100
1, 35708, Note_on_c, 0, 64, 100
1, 35756, Note_off_c, 0, 64, 100
1, 35756, Note_on_c, 0, 68, 100
1, 35852, Note_off_c, 0, 68, 100
1, 35852, Note_on_c, 0, 66, 100
1, 35900, Note_off_c, 0, 66, 100
1, 35900, Note_on_c, 0, 68, 100
1, 35948, Note_off_c, 0, 68, 100
1, 35948, Note_on_c, 0, 62, 100
1, 36044, Note_off_c, 0, 62, 100
1, 36044, Note_on_c, 0, 67, 100
1, 36092, Note_off_c, 0, 67, 100
1, 36092, Note_on_c, 0, 64, 100
1, 36188, Note_off_c, 0, 64, 100
1, 36188, Note_on_c, 0, 65, 100
1, 36284, Note_off_c, 0, 65, 100
1, 36284, Note_on_c, 0, 67, 100
1, 36380, Note_off_c, 0, 67, 100
1, 36380, Note_on_c, 0, 69, 100
1, 36476, Note_off_c, 0, 69, 100
1, 36476, Note_on_c, 0, 65, 100
1, 36572, Note_off_c, 0, 65, 100
1, 36572, Note_on_c, 0, 64, 100
1, 36668, Note_off_c, 0, 64, 100
1, 36668, Note_on_c, 0, 63, 100
1, 36764, Note_off_c, 0, 63, 100
1, 36764, Note_on_c, 0, 65, 100
1, 36860, Note_off_c, 0, 65, 100
1, 36860, Note_on_c, 0, 62, 100
1, 36956, Note_off_c, 0, 62, 100
1, 36956, Note_on_c, 0, 60, 100
1, 37052, Note_off_c, 0, 60, 100
1, 37052, Note_on_c, 0, 58, 100
1, 37244, Note_off_c, 0, 58, 100
1, 37244, Note_on_c, 0, 56, 100
1, 37388, Note_off_c, 0, 56, 100
1, 37388, Note_on_c, 0, 54, 100
1, 37532, Note_off_c, 0, 54, 100
1, 37532, Note_on_c, 0, 53, 100
1, 37772, Note_off_c, 0, 53, 100
1, 37772, Note_on_c, 0, 61, 100
1, 37964, Note_off_c, 0, 61, 100
1, 37964, Note_on_c, 0, 56, 100
1, 38156, Note_off_c, 0, 56, 100
1, 38156, Note_on_c, 0, 61, 100
1, 38396, Note_off_c, 0, 61, 100
1, 38396, Note_on_c, 0, 57, 100
1, 38684, Note_off_c, 0, 57, 100
1, 38684, Note_on_c, 0, 57, 100
1, 38780, Note_off_c, 0, 57, 100
1, 38780, Note_on_c, 0, 55, 100
1, 38972, Note_off_c, 0, 55, 100
1, 38972, Note_on_c, 0, 60, 100
1, 39068, Note_off_c, 0, 60, 100
1, 39068, Note_on_c, 0, 57, 100
1, 39548, Note_off_c, 0, 57, 100
1, 39548, Note_on_c, 0, 55, 100
1, 39644, Note_off_c, 0, 55, 100
1, 39644, Note_on_c, 0, 52, 100
1, 39740, Note_off_c, 0, 52, 100
1, 40268, Note_on_c, 0, 70, 100
1, 40316, Note_off_c, 0, 70, 100
1, 40316, Note_on_c, 0, 72, 100
1, 40380, Note_off_c, 0, 72, 100
1, 40380, Note_on_c, 0, 74, 100
1, 40540, Note_off_c, 0, 74, 100
1, 40540, Note_on_c, 0, 71, 100
1, 40572, Note_off_c, 0, 71, 100
1, 40572, Note_on_c, 0, 70, 100
1, 40604, Note_off_c, 0, 70, 100
1, 40604, Note_on_c, 0, 67, 100
1, 40668, Note_off_c, 0, 67, 100
1, 40668, Note_on_c, 0, 63, 100
1, 40844, Note_off_c, 0, 63, 100
1, 40844, Note_on_c, 0, 64, 100
1, 41036, Note_off_c, 0, 64, 100
1, 41036, Note_on_c, 0, 71, 100
1, 41084, Note_off_c, 0, 71, 100
1, 41084, Note_on_c, 0, 72, 100
1, 41132, Note_off_c, 0, 72, 100
1, 41132, Note_on_c, 0, 73, 100
1, 41228, Note_off_c, 0, 73, 100
1, 41228, Note_on_c, 0, 74, 100
1, 41276, Note_off_c, 0, 74, 100
1, 41276, Note_on_c, 0, 73, 100
1, 41420, Note_off_c, 0, 73, 100
1, 41420, Note_on_c, 0, 71, 100
1, 41516, Note_off_c, 0, 71, 100
1, 41516, Note_on_c, 0, 69, 100
1, 41612, Note_off_c, 0, 69, 100
1, 41612, Note_on_c, 0, 67, 100
1, 41708, Note_off_c, 0, 67, 100
1, 41708, Note_on_c, 0, 66, 100
1, 41804, Note_off_c, 0, 66, 100
1, 41804, Note_on_c, 0, 69, 100
1, 41852, Note_off_c, 0, 69, 100
1, 41852, Note_on_c, 0, 63, 100
1, 41948, Note_off_c, 0, 63, 100
1, 41948, Note_on_c, 0, 65, 100
1, 42044, Note_off_c, 0, 65, 100
1, 42044, Note_on_c, 0, 69, 100
1, 42140, Note_off_c, 0, 69, 100
1, 42140, Note_on_c, 0, 72, 100
1, 42236, Note_off_c, 0, 72, 100
1, 42236, Note_on_c, 0, 70, 100
1, 42572, Note_off_c, 0, 70, 100
1, 42572, Note_on_c, 0, 65, 100
1, 42716, Note_off_c, 0, 65, 100
1, 42716, Note_on_c, 0, 62, 100
1, 42812, Note_off_c, 0, 62, 100
1, 43292, Note_on_c, 0, 70, 100
1, 43772, Note_off_c, 0, 70, 100
1, 43772, Note_on_c, 0, 68, 100
1, 43836, Note_off_c, 0, 68, 100
1, 43836, Note_on_c, 0, 66, 100
1, 43900, Note_off_c, 0, 66, 100
1, 43900, Note_on_c, 0, 63, 100
1, 43964, Note_off_c, 0, 63, 100
1, 43964, Note_on_c, 0, 61, 100
1, 44060, Note_off_c, 0, 61, 100
1, 44060, Note_on_c, 0, 58, 100
1, 44156, Note_off_c, 0, 58, 100
1, 44156, Note_on_c, 0, 65, 100
1, 44252, Note_off_c, 0, 65, 100
1, 44252, Note_on_c, 0, 61, 100
1, 44348, Note_off_c, 0, 61, 100
1, 44348, Note_on_c, 0, 58, 100
1, 44444, Note_off_c, 0, 58, 100
1, 44444, Note_on_c, 0, 54, 100
1, 44540, Note_off_c, 0, 54, 100
1, 44540, Note_on_c, 0, 53, 100
1, 44636, Note_off_c, 0, 53, 100
1, 44636, Note_on_c, 0, 51, 100
1, 44732, Note_off_c, 0, 51, 100
1, 44924, Note_on_c, 0, 56, 100
1, 45020, Note_off_c, 0, 56, 100
1, 45020, Note_on_c, 0, 53, 100
1, 45116, Note_off_c, 0, 53, 100
1, 45116, Note_on_c, 0, 51, 100
1, 45260, Note_off_c, 0, 51, 100
1, 45260, Note_on_c, 0, 52, 100
1, 45308, Note_off_c, 0, 52, 100
1, 45308, Note_on_c, 0, 53, 100
1, 45500, Note_off_c, 0, 53, 100
1, 45500, Note_on_c, 0, 56, 100
1, 45644, Note_off_c, 0, 56, 100
1, 45644, Note_on_c, 0, 52, 100
1, 45788, Note_off_c, 0, 52, 100
1, 45788, Note_on_c, 0, 60, 100
1, 45980, Note_off_c, 0, 60, 100
1, 46508, Note_on_c, 0, 69, 100
1, 46604, Note_off_c, 0, 69, 100
1, 46604, Note_on_c, 0, 68, 100
1, 46908, Note_off_c, 0, 68, 100
1, 46908, Note_on_c, 0, 65, 100
1, 47228, Note_off_c, 0, 65, 100
1, 47228, Note_on_c, 0, 64, 100
1, 47420, Note_off_c, 0, 64, 100
1, 47420, Note_on_c, 0, 64, 100
1, 47612, Note_off_c, 0, 64, 100
1, 47612, Note_on_c, 0, 61, 100
1, 47804, Note_off_c, 0, 61, 100
1, 47804, Note_on_c, 0, 64, 100
1, 47996, Note_off_c, 0, 64, 100
1, 47996, Note_on_c, 0, 60, 100
1, 48140, Note_off_c, 0, 60, 100
1, 48140, Note_on_c, 0, 69, 100
1, 48284, Note_off_c, 0, 69, 100
1, 48284, Note_on_c, 0, 65, 100
1, 48572, Note_off_c, 0, 65, 100
1, 48572, Note_on_c, 0, 67, 100
1, 48668, Note_off_c, 0, 67, 100
1, 48668, Note_on_c, 0, 63, 100
1, 48860, Note_off_c, 0, 63, 100
1, 49532, Note_on_c, 0, 68, 100
1, 49676, Note_off_c, 0, 68, 100
1, 49676, Note_on_c, 0, 66, 100
1, 49724, Note_off_c, 0, 66, 100
1, 49724, Note_on_c, 0, 63, 100
1, 49820, Note_off_c, 0, 63, 100
1, 49820, Note_on_c, 0, 68, 100
1, 49916, Note_off_c, 0, 68, 100
1, 49916, Note_on_c, 0, 65, 100
1, 50108, Note_off_c, 0, 65, 100
1, 50108, Note_on_c, 0, 61, 100
1, 50252, Note_off_c, 0, 61, 100
1, 50252, Note_on_c, 0, 56, 100
1, 50300, Note_off_c, 0, 56, 100
1, 50300, Note_on_c, 0, 62, 100
1, 50444, Note_off_c, 0, 62, 100
1, 50444, Note_on_c, 0, 59, 100
1, 50684, Note_off_c, 0, 59, 100
1, 50684, Note_on_c, 0, 64, 100
1, 50876, Note_off_c, 0, 64, 100
1, 50876, Note_on_c, 0, 57, 100
1, 50914, Note_off_c, 0, 57, 100
1, 50914, Note_on_c, 0, 61, 100
1, 50990, Note_off_c, 0, 61, 100
1, 50990, Note_on_c, 0, 64, 100
1, 51066, Note_off_c, 0, 64, 100
1, 51066, Note_on_c, 0, 60, 100
1, 51258, Note_off_c, 0, 60, 100
1, 51258, Note_on_c, 0, 69, 100
1, 51402, Note_off_c, 0, 69, 100
1, 51402, Note_on_c, 0, 65, 100
1, 51498, Note_off_c, 0, 65, 100
1, 51930, Note_on_c, 0, 69, 100
1, 52218, Note_off_c, 0, 69, 100
1, 52218, Note_on_c, 0, 72, 100
1, 52346, Note_off_c, 0, 72, 100
1, 52346, Note_on_c, 0, 72, 100
1, 52410, Note_off_c, 0, 72, 100
1, 52410, Note_on_c, 0, 69, 100
1, 52506, Note_off_c, 0, 69, 100
1, 52506, Note_on_c, 0, 72, 100
1, 52602, Note_off_c, 0, 72, 100
1, 52602, Note_on_c, 0, 68, 100
1, 52698, Note_off_c, 0, 68, 100
1, 52698, Note_on_c, 0, 67, 100
1, 52746, Note_off_c, 0, 67, 100
1, 52746, Note_on_c, 0, 66, 100
1, 52890, Note_off_c, 0, 66, 100
1, 52890, Note_on_c, 0, 68, 100
1, 52986, Note_off_c, 0, 68, 100
1, 52986, Note_on_c, 0, 65, 100
1, 53178, Note_off_c, 0, 65, 100
1, 53178, Note_on_c, 0, 68, 100
1, 53274, Note_off_c, 0, 68, 100
1, 53274, Note_on_c, 0, 70, 100
1, 53370, Note_off_c, 0, 70, 100
1, 53370, Note_on_c, 0, 68, 100
1, 53562, Note_off_c, 0, 68, 100
1, 53562, Note_on_c, 0, 66, 100
1, 53658, Note_off_c, 0, 66, 100
1, 53658, Note_on_c, 0, 68, 100
1, 53754, Note_off_c, 0, 68, 100
1, 53754, Note_on_c, 0, 64, 100
1, 53850, Note_off_c, 0, 64, 100
1, 53850, Note_on_c, 0, 62, 100
1, 53898, Note_off_c, 0, 62, 100
1, 53898, Note_on_c, 0, 61, 100
1, 54042, Note_off_c, 0, 61, 100
1, 54042, Note_on_c, 0, 64, 100
1, 54138, Note_off_c, 0, 64, 100
1, 54138, Note_on_c, 0, 60, 100
1, 54234, Note_off_c, 0, 60, 100
1, 54234, Note_on_c, 0, 62, 100
1, 54330, Note_off_c, 0, 62, 100
1, 54330, Note_on_c, 0, 64, 100
1, 54426, Note_off_c, 0, 64, 100
1, 54426, Note_on_c, 0, 67, 100
1, 54522, Note_off_c, 0, 67, 100
1, 54522, Note_on_c, 0, 64, 100
1, 54666, Note_off_c, 0, 64, 100
1, 54666, Note_on_c, 0, 65, 100
1, 54858, Note_off_c, 0, 65, 100
1, 54858, Note_on_c, 0, 63, 100
1, 55002, Note_off_c, 0, 63, 100
1, 55002, Note_on_c, 0, 65, 100
1, 55194, Note_off_c, 0, 65, 100
1, 55194, Note_on_c, 0, 61, 100
1, 55242, Note_off_c, 0, 61, 100
1, 55242, Note_on_c, 0, 62, 100
1, 55482, Note_off_c, 0, 62, 100
1, 55482, Note_on_c, 0, 58, 100
1, 55674, Note_off_c, 0, 58, 100
1, 55674, Note_on_c, 0, 56, 100
1, 55770, Note_off_c, 0, 56, 100
1, 55770, Note_on_c, 0, 63, 100
1, 55866, Note_off_c, 0, 63, 100
1, 55866, Note_on_c, 0, 59, 100
1, 55962, Note_off_c, 0, 59, 100
1, 55962, Note_on_c, 0, 61, 100
1, 56202, Note_off_c, 0, 61, 100
1, 56202, Note_on_c, 0, 58, 100
1, 56346, Note_off_c, 0, 58, 100
1, 56346, Note_on_c, 0, 54, 100
1, 56442, Note_off_c, 0, 54, 100
1, 56890, Note_on_c, 0, 55, 100
1, 56954, Note_off_c, 0, 55, 100
1, 56954, Note_on_c, 0, 57, 100
1, 57018, Note_off_c, 0, 57, 100
1, 57018, Note_on_c, 0, 59, 100
1, 57066, Note_off_c, 0, 59, 100
1, 57066, Note_on_c, 0, 60, 100
1, 57114, Note_off_c, 0, 60, 100
1, 57114, Note_on_c, 0, 62, 100
1, 57162, Note_off_c, 0, 62, 100
1, 57162, Note_on_c, 0, 64, 100
1, 57210, Note_off_c, 0, 64, 100
1, 57210, Note_on_c, 0, 65, 100
1, 57248, Note_off_c, 0, 65, 100
1, 57248, Note_on_c, 0, 67, 100
1, 57286, Note_off_c, 0, 67, 100
1, 57286, Note_on_c, 0, 69, 100
1, 57324, Note_off_c, 0, 69, 100
1, 57324, Note_on_c, 0, 67, 100
1, 57362, Note_off_c, 0, 67, 100
1, 57362, Note_on_c, 0, 65, 100
1, 57400, Note_off_c, 0, 65, 100
1, 57400, Note_on_c, 0, 64, 100
1, 57448, Note_off_c, 0, 64, 100
1, 57448, Note_on_c, 0, 62, 100
1, 57496, Note_off_c, 0, 62, 100
1, 57496, Note_on_c, 0, 60, 100
1, 57544, Note_off_c, 0, 60, 100
1, 57544, Note_on_c, 0, 58, 100
1, 57640, Note_off_c, 0, 58, 100
1, 57880, Note_on_c, 0, 69, 100
1, 58168, Note_off_c, 0, 69, 100
1, 58360, Note_on_c, 0, 69, 100
1, 58456, Note_off_c, 0, 69, 100
1, 58456, Note_on_c, 0, 72, 100
1, 58552, Note_off_c, 0, 72, 100
1, 58552, Note_on_c, 0, 70, 100
1, 58648, Note_off_c, 0, 70, 100
1, 58648, Note_on_c, 0, 66, 100
1, 58744, Note_off_c, 0, 66, 100
1, 59032, Note_on_c, 0, 70, 100
1, 59128, Note_off_c, 0, 70, 100
1, 59128, Note_on_c, 0, 68, 100
1, 59224, Note_off_c, 0, 68, 100
1, 59224, Note_on_c, 0, 73, 100
1, 59512, Note_off_c, 0, 73, 100
1, 59512, Note_on_c, 0, 71, 100
1, 59640, Note_off_c, 0, 71, 100
1, 59640, Note_on_c, 0, 64, 100
1, 59736, Note_off_c, 0, 64, 100
1, 60088, Note_on_c, 0, 69, 100
1, 60232, Note_off_c, 0, 69, 100
1, 60232, Note_on_c, 0, 73, 100
1, 60280, Note_off_c, 0, 73, 100
1, 60280, Note_on_c, 0, 70, 100
1, 60424, Note_off_c, 0, 70, 100
1, 60424, Note_on_c, 0, 64, 100
1, 60568, Note_off_c, 0, 64, 100
1, 60568, Note_on_c, 0, 72, 100
1, 60664, Note_off_c, 0, 72, 100
1, 60664, Note_on_c, 0, 69, 100
1, 60856, Note_off_c, 0, 69, 100
1, 60856, Note_on_c, 0, 65, 100
1, 60952, Note_off_c, 0, 65, 100
1, 60952, Note_on_c, 0, 63, 100
1, 61144, Note_off_c, 0, 63, 100
1, 61144, Note_on_c, 0, 67, 100
1, 61240, Note_off_c, 0, 67, 100
1, 61240, Note_on_c, 0, 65, 100
1, 61336, Note_off_c, 0, 65, 100
1, 61336, Note_on_c, 0, 64, 100
1, 61432, Note_off_c, 0, 64, 100
1, 61432, Note_on_c, 0, 63, 100
1, 61528, Note_off_c, 0, 63, 100
1, 61528, Note_on_c, 0, 65, 100
1, 61624, Note_off_c, 0, 65, 100
1, 61624, Note_on_c, 0, 62, 100
1, 61720, Note_off_c, 0, 62, 100
1, 61720, Note_on_c, 0, 65, 100
1, 61816, Note_off_c, 0, 65, 100
1, 61816, Note_on_c, 0, 63, 100
1, 61912, Note_off_c, 0, 63, 100
1, 61912, Note_on_c, 0, 61, 100
1, 62008, Note_off_c, 0, 61, 100
1, 62008, Note_on_c, 0, 58, 100
1, 62136, Note_off_c, 0, 58, 100
1, 62136, Note_on_c, 0, 54, 100
1, 62200, Note_off_c, 0, 54, 100
1, 62200, Note_on_c, 0, 53, 100
1, 62328, Note_off_c, 0, 53, 100
1, 62328, Note_on_c, 0, 53, 100
1, 62424, Note_off_c, 0, 53, 100
1, 62584, Note_on_c, 0, 62, 100
1, 62776, Note_off_c, 0, 62, 100
1, 62776, Note_on_c, 0, 59, 100
1, 62968, Note_off_c, 0, 59, 100
1, 62968, Note_on_c, 0, 57, 100
1, 63256, Note_off_c, 0, 57, 100
1, 63256, Note_on_c, 0, 57, 100
1, 63352, Note_off_c, 0, 57, 100
1, 63352, Note_on_c, 0, 60, 100
1, 63544, Note_off_c, 0, 60, 100
1, 63544, Note_on_c, 0, 58, 100
1, 63672, Note_off_c, 0, 58, 100
1, 63672, Note_on_c, 0, 57, 100
1, 63880, Note_off_c, 0, 57, 100
1, 63880, Note_on_c, 0, 65, 100
1, 64072, Note_off_c, 0, 65, 100
1, 64648, Note_on_c, 0, 70, 100
1, 64744, Note_off_c, 0, 70, 100
1, 64744, Note_on_c, 0, 69, 100
1, 64840, Note_off_c, 0, 69, 100
1, 64840, Note_on_c, 0, 67, 100
1, 64936, Note_off_c, 0, 67, 100
1, 64936, Note_on_c, 0, 65, 100
1, 65176, Note_off_c, 0, 65, 100
1, 65176, Note_on_c, 0, 66, 100
1, 65272, Note_off_c, 0, 66, 100
1, 65272, Note_on_c, 0, 64, 100
1, 65368, Note_off_c, 0, 64, 100
1, 65368, Note_on_c, 0, 62, 100
1, 65464, Note_off_c, 0, 62, 100
1, 65464, Note_on_c, 0, 61, 100
1, 65560, Note_off_c, 0, 61, 100
1, 65560, Note_on_c, 0, 60, 100
1, 65656, Note_off_c, 0, 60, 100
1, 65656, Note_on_c, 0, 59, 100
1, 65752, Note_off_c, 0, 59, 100
1, 65752, Note_on_c, 0, 58, 100
1, 65848, Note_off_c, 0, 58, 100
1, 65848, Note_on_c, 0, 57, 100
1, 65944, Note_off_c, 0, 57, 100
1, 65944, Note_on_c, 0, 56, 100
1, 66040, Note_off_c, 0, 56, 100
1, 66040, Note_on_c, 0, 55, 100
1, 66136, Note_off_c, 0, 55, 100
1, 66136, Note_on_c, 0, 59, 100
1, 66232, Note_off_c, 0, 59, 100
1, 66232, Note_on_c, 0, 57, 100
1, 66328, Note_off_c, 0, 57, 100
1, 66328, Note_on_c, 0, 55, 100
1, 66424, Note_off_c, 0, 55, 100
1, 66424, Note_on_c, 0, 54, 100
1, 66520, Note_off_c, 0, 54, 100
1, 66520, Note_on_c, 0, 57, 100
1, 66616, Note_off_c, 0, 57, 100
1, 66616, Note_on_c, 0, 53, 100
1, 66712, Note_off_c, 0, 53, 100
1, 66712, Note_on_c, 0, 51, 100
1, 66808, Note_off_c, 0, 51, 100
1, 66808, Note_on_c, 0, 50, 100
1, 67000, Note_off_c, 0, 50, 100
1, 67000, Note_on_c, 0, 57, 100
1, 67144, Note_off_c, 0, 57, 100
1, 67144, Note_on_c, 0, 58, 100
1, 67336, Note_off_c, 0, 58, 100
1, 67720, Note_on_c, 0, 62, 100
1, 67768, Note_off_c, 0, 62, 100
1, 67768, Note_on_c, 0, 65, 100
1, 67816, Note_off_c, 0, 65, 100
1, 67816, Note_on_c, 0, 63, 100
1, 67912, Note_off_c, 0, 63, 100
1, 67912, Note_on_c, 0, 65, 100
1, 68008, Note_off_c, 0, 65, 100
1, 68008, Note_on_c, 0, 66, 100
1, 68104, Note_off_c, 0, 66, 100
1, 68104, Note_on_c, 0, 68, 100
1, 68200, Note_off_c, 0, 68, 100
1, 68200, Note_on_c, 0, 70, 100
1, 68296, Note_off_c, 0, 70, 100
1, 68296, Note_on_c, 0, 73, 100
1, 68392, Note_off_c, 0, 73, 100
1, 68392, Note_on_c, 0, 72, 100
1, 68488, Note_off_c, 0, 72, 100
1, 68488, Note_on_c, 0, 73, 100
1, 68728, Note_off_c, 0, 73, 100
1, 68728, Note_on_c, 0, 70, 100
1, 68824, Note_off_c, 0, 70, 100
1, 68824, Note_on_c, 0, 72, 100
1, 69112, Note_off_c, 0, 72, 100
1, 69112, Note_on_c, 0, 68, 100
1, 69208, Note_off_c, 0, 68, 100
1, 69208, Note_on_c, 0, 63, 100
1, 69400, Note_off_c, 0, 63, 100
1, 69976, Note_on_c, 0, 72, 100
1, 70024, Note_off_c, 0, 72, 100
1, 70024, Note_on_c, 0, 75, 100
1, 70504, Note_off_c, 0, 75, 100
1, 70504, Note_on_c, 0, 74, 100
1, 70552, Note_off_c, 0, 74, 100
1, 70552, Note_on_c, 0, 73, 100
1, 70600, Note_off_c, 0, 73, 100
1, 70600, Note_on_c, 0, 72, 100
1, 71032, Note_off_c, 0, 72, 100
1, 71032, Note_on_c, 0, 75, 100
1, 71320, Note_off_c, 0, 75, 100
1, 71320, Note_on_c, 0, 72, 100
1, 71608, Note_off_c, 0, 72, 100
1, 71608, Note_on_c, 0, 68, 100
1, 71704, Note_off_c, 0, 68, 100
1, 71704, Note_on_c, 0, 73, 100
1, 71800, Note_off_c, 0, 73, 100
1, 71800, Note_on_c, 0, 71, 100
1, 71896, Note_off_c, 0, 71, 100
1, 71896, Note_on_c, 0, 68, 100
1, 72088, Note_off_c, 0, 68, 100
1, 72088, Note_on_c, 0, 71, 100
1, 72184, Note_off_c, 0, 71, 100
1, 72184, Note_on_c, 0, 68, 100
1, 72280, Note_off_c, 0, 68, 100
1, 72280, Note_on_c, 0, 64, 100
1, 72376, Note_off_c, 0, 64, 100
1, 72376, Note_on_c, 0, 61, 100
1, 72520, Note_off_c, 0, 61, 100
1, 72520, Note_on_c, 0, 66, 100
1, 72568, Note_off_c, 0, 66, 100
1, 72568, Note_on_c, 0, 67, 100
1, 72760, Note_off_c, 0, 67, 100
1, 72760, Note_on_c, 0, 67, 100
1, 72856, Note_off_c, 0, 67, 100
1, 72856, Note_on_c, 0, 70, 100
1, 72904, Note_off_c, 0, 70, 100
1, 72904, Note_on_c, 0, 74, 100
1, 72952, Note_off_c, 0, 74, 100
1, 72952, Note_on_c, 0, 73, 100
1, 73000, Note_off_c, 0, 73, 100
1, 73000, Note_on_c, 0, 72, 100
1, 73144, Note_off_c, 0, 72, 100
1, 73144, Note_on_c, 0, 69, 100
1, 73240, Note_off_c, 0, 69, 100
1, 73240, Note_on_c, 0, 63, 100
1, 73336, Note_off_c, 0, 63, 100
1, 73816, Note_on_c, 0, 70, 100
1, 73912, Note_off_c, 0, 70, 100
1, 74152, Note_on_c, 0, 70, 100
1, 74248, Note_off_c, 0, 70, 100
1, 74248, Note_on_c, 0, 66, 100
1, 74296, Note_off_c, 0, 66, 100
1, 74296, Note_on_c, 0, 63, 100
1, 74392, Note_off_c, 0, 63, 100
1, 74392, Note_on_c, 0, 59, 100
1, 74488, Note_off_c, 0, 59, 100
1, 74488, Note_on_c, 0, 65, 100
1, 74584, Note_off_c, 0, 65, 100
1, 74584, Note_on_c, 0, 68, 100
1, 74680, Note_off_c, 0, 68, 100
1, 74680, Note_on_c, 0, 73, 100
1, 74776, Note_off_c, 0, 73, 100
1, 74776, Note_on_c, 0, 71, 100
1, 75256, Note_off_c, 0, 71, 100
1, 75256, Note_on_c, 0, 69, 100
1, 75352, Note_off_c, 0, 69, 100
1, 75352, Note_on_c, 0, 68, 100
1, 75400, Note_off_c, 0, 68, 100
1, 75400, Note_on_c, 0, 61, 100
1, 75592, Note_off_c, 0, 61, 100
1, 75928, Note_on_c, 0, 68, 100
1, 75976, Note_off_c, 0, 68, 100
1, 75976, Note_on_c, 0, 69, 100
1, 76120, Note_off_c, 0, 69, 100
1, 76120, Note_on_c, 0, 60, 100
1, 76312, Note_off_c, 0, 60, 100
1, 76696, Note_on_c, 0, 69, 100
1, 76888, Note_off_c, 0, 69, 100
1, 76888, Note_on_c, 0, 70, 100
1, 77048, Note_off_c, 0, 70, 100
1, 77048, Note_on_c, 0, 71, 100
1, 77112, Note_off_c, 0, 71, 100
1, 77112, Note_on_c, 0, 72, 100
1, 77272, Note_off_c, 0, 72, 100
1, 77272, Note_on_c, 0, 66, 100
1, 77464, Note_off_c, 0, 66, 100
1, 77464, Note_on_c, 0, 72, 100
1, 77560, Note_off_c, 0, 72, 100
1, 77560, Note_on_c, 0, 68, 100
1, 77656, Note_off_c, 0, 68, 100
1, 77656, Note_on_c, 0, 65, 100
1, 77752, Note_off_c, 0, 65, 100
1, 78040, Note_on_c, 0, 62, 100
1, 78136, Note_off_c, 0, 62, 100
1, 78136, Note_on_c, 0, 66, 100
1, 78184, Note_off_c, 0, 66, 100
1, 78184, Note_on_c, 0, 67, 100
1, 78232, Note_off_c, 0, 67, 100
1, 78232, Note_on_c, 0, 71, 100
1, 78328, Note_off_c, 0, 71, 100
1, 78328, Note_on_c, 0, 67, 100
1, 78392, Note_off_c, 0, 67, 100
1, 78392, Note_on_c, 0, 68, 100
1, 78456, Note_off_c, 0, 68, 100
1, 78456, Note_on_c, 0, 63, 100
1, 78520, Note_off_c, 0, 63, 100
1, 78520, Note_on_c, 0, 65, 100
1, 78584, Note_off_c, 0, 65, 100
1, 78584, Note_on_c, 0, 67, 100
1, 78648, Note_off_c, 0, 67, 100
1, 78648, Note_on_c, 0, 69, 100
1, 78712, Note_off_c, 0, 69, 100
1, 78712, Note_on_c, 0, 67, 100
1, 79000, Note_off_c, 0, 67, 100
1, 79000, Note_on_c, 0, 69, 100
1, 79288, Note_off_c, 0, 69, 100
1, 79288, Note_on_c, 0, 67, 100
1, 79326, Note_off_c, 0, 67, 100
1, 79326, Note_on_c, 0, 64, 100
1, 79364, Note_off_c, 0, 64, 100
1, 79364, Note_on_c, 0, 63, 100
1, 79440, Note_off_c, 0, 63, 100
1, 79440, Note_on_c, 0, 62, 100
1, 79478, Note_off_c, 0, 62, 100
1, 79478, Note_on_c, 0, 59, 100
1, 79554, Note_off_c, 0, 59, 100
1, 79554, Note_on_c, 0, 58, 100
1, 79592, Note_off_c, 0, 58, 100
1, 79592, Note_on_c, 0, 57, 100
1, 79630, Note_off_c, 0, 57, 100
1, 79630, Note_on_c, 0, 55, 100
1, 79668, Note_off_c, 0, 55, 100
1, 79668, Note_on_c, 0, 53, 100
1, 79732, Note_off_c, 0, 53, 100
1, 79732, Note_on_c, 0, 51, 100
1, 79796, Note_off_c, 0, 51, 100
1, 79796, Note_on_c, 0, 49, 100
1, 79860, Note_off_c, 0, 49, 100
1, 79860, Note_on_c, 0, 46, 100
1, 80052, Note_off_c, 0, 46, 100
1, 80388, Note_on_c, 0, 55, 100
1, 80436, Note_off_c, 0, 55, 100
1, 80436, Note_on_c, 0, 56, 100
1, 80500, Note_off_c, 0, 56, 100
1, 80500, Note_on_c, 0, 59, 100
1, 80564, Note_off_c, 0, 59, 100
1, 80564, Note_on_c, 0, 61, 100
1, 80628, Note_off_c, 0, 61, 100
1, 80628, Note_on_c, 0, 63, 100
1, 80676, Note_off_c, 0, 63, 100
1, 80676, Note_on_c, 0, 66, 100
1, 80724, Note_off_c, 0, 66, 100
1, 80724, Note_on_c, 0, 68, 100
1, 80772, Note_off_c, 0, 68, 100
1, 80772, Note_on_c, 0, 71, 100
1, 80820, Note_off_c, 0, 71, 100
1, 80820, Note_on_c, 0, 73, 100
1, 81012, Note_off_c, 0, 73, 100
1, 81012, Note_on_c, 0, 71, 100
1, 81060, Note_off_c, 0, 71, 100
1, 81060, Note_on_c, 0, 70, 100
1, 81108, Note_off_c, 0, 70, 100
1, 81108, Note_on_c, 0, 68, 100
1, 81156, Note_off_c, 0, 68, 100
1, 81156, Note_on_c, 0, 66, 100
1, 81252, Note_off_c, 0, 66, 100
1, 81540, Note_on_c, 0, 57, 100
1, 81588, Note_off_c, 0, 57, 100
1, 81588, Note_on_c, 0, 59, 100
1, 81636, Note_off_c, 0, 59, 100
1, 81636, Note_on_c, 0, 61, 100
1, 81684, Note_off_c, 0, 61, 100
1, 81684, Note_on_c, 0, 62, 100
1, 81732, Note_off_c, 0, 62, 100
1, 81732, Note_on_c, 0, 64, 100
1, 81780, Note_off_c, 0, 64, 100
1, 81780, Note_on_c, 0, 62, 100
1, 81804, Note_off_c, 0, 62, 100
1, 81804, Note_on_c, 0, 63, 100
1, 81852, Note_off_c, 0, 63, 100
1, 81852, Note_on_c, 0, 64, 100
1, 81876, Note_off_c, 0, 64, 100
1, 81876, Note_on_c, 0, 65, 100
1, 81900, Note_off_c, 0, 65, 100
1, 81900, Note_on_c, 0, 67, 100
1, 81924, Note_off_c, 0, 67, 100
1, 81924, Note_on_c, 0, 69, 100
1, 81948, Note_off_c, 0, 69, 100
1, 81948, Note_on_c, 0, 71, 100
1, 81972, Note_off_c, 0, 71, 100
1, 81972, Note_on_c, 0, 69, 100
1, 82010, Note_off_c, 0, 69, 100
1, 82010, Note_on_c, 0, 67, 100
1, 82048, Note_off_c, 0, 67, 100
1, 82048, Note_on_c, 0, 65, 100
1, 82086, Note_off_c, 0, 65, 100
1, 82086, Note_on_c, 0, 62, 100
1, 82124, Note_off_c, 0, 62, 100
1, 82124, Note_on_c, 0, 60, 100
1, 82162, Note_off_c, 0, 60, 100
1, 82162, Note_on_c, 0, 59, 100
1, 82226, Note_off_c, 0, 59, 100
1, 82226, Note_on_c, 0, 57, 100
1, 82290, Note_off_c, 0, 57, 100
1, 82290, Note_on_c, 0, 55, 100
1, 82386, Note_off_c, 0, 55, 100
1, 82610, Note_on_c, 0, 56, 100
1, 82642, Note_off_c, 0, 56, 100
1, 82642, Note_on_c, 0, 57, 100
1, 82674, Note_off_c, 0, 57, 100
1, 82674, Note_on_c, 0, 60, 100
1, 82706, Note_off_c, 0, 60, 100
1, 82706, Note_on_c, 0, 61, 100
1, 82738, Note_off_c, 0, 61, 100
1, 82738, Note_on_c, 0, 62, 100
1, 82786, Note_off_c, 0, 62, 100
1, 82786, Note_on_c, 0, 65, 100
1, 82810, Note_off_c, 0, 65, 100
1, 82810, Note_on_c, 0, 64, 100
1, 82858, Note_off_c, 0, 64, 100
1, 82858, Note_on_c, 0, 65, 100
1, 82882, Note_off_c, 0, 65, 100
1, 82882, Note_on_c, 0, 67, 100
1, 82906, Note_off_c, 0, 67, 100
1, 82906, Note_on_c, 0, 66, 100
1, 82930, Note_off_c, 0, 66, 100
1, 82930, Note_on_c, 0, 67, 100
1, 82994, Note_off_c, 0, 67, 100
1, 82994, Note_on_c, 0, 68, 100
1, 83058, Note_off_c, 0, 68, 100
1, 83058, Note_on_c, 0, 64, 100
1, 83122, Note_off_c, 0, 64, 100
1, 83122, Note_on_c, 0, 65, 100
1, 83160, Note_off_c, 0, 65, 100
1, 83160, Note_on_c, 0, 67, 100
1, 83198, Note_off_c, 0, 67, 100
1, 83198, Note_on_c, 0, 65, 100
1, 83236, Note_off_c, 0, 65, 100
1, 83236, Note_on_c, 0, 67, 100
1, 83274, Note_off_c, 0, 67, 100
1, 83274, Note_on_c, 0, 69, 100
1, 83312, Note_off_c, 0, 69, 100
1, 83312, Note_on_c, 0, 72, 100
1, 83360, Note_off_c, 0, 72, 100
1, 83360, Note_on_c, 0, 68, 100
1, 83456, Note_off_c, 0, 68, 100
1, 83792, Note_on_c, 0, 68, 100
1, 83984, Note_off_c, 0, 68, 100
1, 83984, Note_on_c, 0, 65, 100
1, 84032, Note_off_c, 0, 65, 100
1, 84032, Note_on_c, 0, 64, 100
1, 84080, Note_off_c, 0, 64, 100
1, 84080, Note_on_c, 0, 61, 100
1, 84224, Note_off_c, 0, 61, 100
1, 84224, Note_on_c, 0, 68, 100
1, 84320, Note_off_c, 0, 68, 100
1, 84320, Note_on_c, 0, 62, 100
1, 84416, Note_off_c, 0, 62, 100
1, 84416, Note_on_c, 0, 66, 100
1, 84464, Note_off_c, 0, 66, 100
1, 84464, Note_on_c, 0, 64, 100
1, 84704, Note_off_c, 0, 64, 100
1, 84704, Note_on_c, 0, 61, 100
1, 84800, Note_off_c, 0, 61, 100
1, 84800, Note_on_c, 0, 64, 100
1, 84848, Note_off_c, 0, 64, 100
1, 84848, Note_on_c, 0, 62, 100
1, 84886, Note_off_c, 0, 62, 100
1, 84886, Note_on_c, 0, 60, 100
1, 84962, Note_off_c, 0, 60, 100
1, 84962, Note_on_c, 0, 62, 100
1, 85038, Note_off_c, 0, 62, 100
1, 85038, Note_on_c, 0, 64, 100
1, 85134, Note_off_c, 0, 64, 100
1, 85134, Note_on_c, 0, 67, 100
1, 85230, Note_off_c, 0, 67, 100
1, 85230, Note_on_c, 0, 65, 100
1, 85326, Note_off_c, 0, 65, 100
1, 85326, Note_on_c, 0, 64, 100
1, 85422, Note_off_c, 0, 64, 100
1, 85422, Note_on_c, 0, 63, 100
1, 85518, Note_off_c, 0, 63, 100
1, 85518, Note_on_c, 0, 65, 100
1, 85550, Note_off_c, 0, 65, 100
1, 85550, Note_on_c, 0, 64, 100
1, 85582, Note_off_c, 0, 64, 100
1, 85582, Note_on_c, 0, 61, 100
1, 85614, Note_off_c, 0, 61, 100
1, 85614, Note_on_c, 0, 62, 100
1, 85710, Note_off_c, 0, 62, 100
1, 85710, Note_on_c, 0, 60, 100
1, 85806, Note_off_c, 0, 60, 100
1, 85806, Note_on_c, 0, 57, 100
1, 85998, Note_off_c, 0, 57, 100
1, 85998, Note_on_c, 0, 58, 100
1, 86382, Note_off_c, 0, 58, 100
1, 86382, Note_on_c, 0, 56, 100
1, 86478, Note_off_c, 0, 56, 100
1, 86478, Note_on_c, 0, 54, 100
1, 86526, Note_off_c, 0, 54, 100
1, 86526, Note_on_c, 0, 51, 100
1, 86670, Note_off_c, 0, 51, 100
1, 86670, Note_on_c, 0, 47, 100
1, 86766, Note_off_c, 0, 47, 100
1, 86766, Note_on_c, 0, 53, 100
1, 86910, Note_off_c, 0, 53, 100
1, 86910, Note_on_c, 0, 56, 100
1, 87006, Note_off_c, 0, 56, 100
1, 88014, Note_on_c, 0, 60, 100
1, 88110, Note_off_c, 0, 60, 100
1, 88110, Note_on_c, 0, 62, 100
1, 88238, Note_off_c, 0, 62, 100
1, 88238, Note_on_c, 0, 67, 100
1, 88302, Note_off_c, 0, 67, 100
1, 88302, Note_on_c, 0, 66, 100
1, 88532, Note_off_c, 0, 66, 100
1, 88532, Note_on_c, 0, 65, 100
1, 88570, Note_off_c, 0, 65, 100
1, 88570, Note_on_c, 0, 69, 100
1, 88608, Note_off_c, 0, 69, 100
1, 88608, Note_on_c, 0, 72, 100
1, 88646, Note_off_c, 0, 72, 100
1, 88646, Note_on_c, 0, 69, 100
1, 88780, Note_off_c, 0, 69, 100
1, 88780, Note_on_c, 0, 65, 100
1, 88876, Note_off_c, 0, 65, 100
1, 89068, Note_on_c, 0, 69, 100
1, 89260, Note_off_c, 0, 69, 100
1, 89260, Note_on_c, 0, 70, 100
1, 89356, Note_off_c, 0, 70, 100
1, 89356, Note_on_c, 0, 71, 100
1, 89452, Note_off_c, 0, 71, 100
1, 89452, Note_on_c, 0, 72, 100
1, 89548, Note_off_c, 0, 72, 100
1, 89548, Note_on_c, 0, 71, 100
1, 89644, Note_off_c, 0, 71, 100
1, 89644, Note_on_c, 0, 63, 100
1, 89740, Note_off_c, 0, 63, 100
1, 89740, Note_on_c, 0, 67, 100
1, 89836, Note_off_c, 0, 67, 100
1, 89836, Note_on_c, 0, 68, 100
1, 90066, Note_off_c, 0, 68, 100
1, 90066, Note_on_c, 0, 64, 100
1, 90104, Note_off_c, 0, 64, 100
1, 90104, Note_on_c, 0, 66, 100
1, 90142, Note_off_c, 0, 66, 100
1, 90142, Note_on_c, 0, 68, 100
1, 90180, Note_off_c, 0, 68, 100
1, 90180, Note_on_c, 0, 69, 100
1, 90266, Note_off_c, 0, 69, 100
1, 90266, Note_on_c, 0, 71, 100
1, 90314, Note_off_c, 0, 71, 100
1, 90314, Note_on_c, 0, 73, 100
1, 90554, Note_off_c, 0, 73, 100
1, 90554, Note_on_c, 0, 69, 100
1, 90602, Note_off_c, 0, 69, 100
1, 90602, Note_on_c, 0, 73, 100
1, 90794, Note_off_c, 0, 73, 100
1, 90794, Note_on_c, 0, 69, 100
1, 90890, Note_off_c, 0, 69, 100
1, 90890, Note_on_c, 0, 72, 100
1, 90986, Note_off_c, 0, 72, 100
1, 90986, Note_on_c, 0, 69, 100
1, 91178, Note_off_c, 0, 69, 100
1, 91178, Note_on_c, 0, 67, 100
1, 91274, Note_off_c, 0, 67, 100
1, 91274, Note_on_c, 0, 65, 100
1, 91658, Note_off_c, 0, 65, 100
1, 91658, Note_on_c, 0, 62, 100
1, 91754, Note_off_c, 0, 62, 100
1, 91754, Note_on_c, 0, 60, 100
1, 91898, Note_off_c, 0, 60, 100
1, 91898, Note_on_c, 0, 58, 100
1, 91994, Note_off_c, 0, 58, 100
1, 92282, Note_on_c, 0, 69, 100
1, 92330, Note_off_c, 0, 69, 100
1, 92330, Note_on_c, 0, 70, 100
1, 92522, Note_off_c, 0, 70, 100
1, 92522, Note_on_c, 0, 70, 100
1, 92906, Note_off_c, 0, 70, 100
1, 92906, Note_on_c, 0, 70, 100
1, 93098, Note_off_c, 0, 70, 100
1, 93098, Note_on_c, 0, 66, 100
1, 93290, Note_off_c, 0, 66, 100
1, 93290, Note_on_c, 0, 63, 100
1, 93482, Note_off_c, 0, 63, 100
1, 93482, Note_on_c, 0, 60, 100
1, 93578, Note_off_c, 0, 60, 100
1, 93578, Note_on_c, 0, 61, 100
1, 94010, Note_off_c, 0, 61, 100
1, 94010, Note_on_c, 0, 68, 100
1, 94058, Note_off_c, 0, 68, 100
1, 94058, Note_on_c, 0, 60, 100
1, 94186, Note_off_c, 0, 60, 100
1, 94186, Note_on_c, 0, 58, 100
1, 94282, Note_off_c, 0, 58, 100
1, 94922, Note_on_c, 0, 71, 100
1, 94970, Note_off_c, 0, 71, 100
1, 94970, Note_on_c, 0, 72, 100
1, 95114, Note_off_c, 0, 72, 100
1, 95114, Note_on_c, 0, 72, 100
1, 95210, Note_off_c, 0, 72, 100
1, 95210, Note_on_c, 0, 69, 100
1, 95306, Note_off_c, 0, 69, 100
1, 95306, Note_on_c, 0, 72, 100
1, 95594, Note_off_c, 0, 72, 100
1, 95594, Note_on_c, 0, 68, 100
1, 95786, Note_off_c, 0, 68, 100
1, 95786, Note_on_c, 0, 66, 100
1, 95930, Note_off_c, 0, 66, 100
1, 95930, Note_on_c, 0, 63, 100
1, 95978, Note_off_c, 0, 63, 100
1, 95978, Note_on_c, 0, 65, 100
1, 96074, Note_off_c, 0, 65, 100
1, 96362, Note_on_c, 0, 62, 100
1, 96554, Note_off_c, 0, 62, 100
1, 96554, Note_on_c, 0, 66, 100
1, 96650, Note_off_c, 0, 66, 100
1, 96650, Note_on_c, 0, 68, 100
1, 96746, Note_off_c, 0, 68, 100
1, 96746, Note_on_c, 0, 64, 100
1, 96842, Note_off_c, 0, 64, 100
1, 97514, Note_on_c, 0, 69, 100
1, 97610, Note_off_c, 0, 69, 100
1, 97610, Note_on_c, 0, 67, 100
1, 97706, Note_off_c, 0, 67, 100
1, 97706, Note_on_c, 0, 65, 100
1, 97802, Note_off_c, 0, 65, 100
1, 97802, Note_on_c, 0, 64, 100
1, 97898, Note_off_c, 0, 64, 100
1, 97898, Note_on_c, 0, 63, 100
1, 97994, Note_off_c, 0, 63, 100
1, 97994, Note_on_c, 0, 65, 100
1, 98090, Note_off_c, 0, 65, 100
1, 98090, Note_on_c, 0, 62, 100
1, 98186, Note_off_c, 0, 62, 100
1, 98186, Note_on_c, 0, 60, 100
1, 98282, Note_off_c, 0, 60, 100
1, 98282, Note_on_c, 0, 58, 100
1, 98378, Note_off_c, 0, 58, 100
1, 98618, Note_on_c, 0, 65, 100
1, 98666, Note_off_c, 0, 65, 100
1, 98666, Note_on_c, 0, 63, 100
1, 98794, Note_off_c, 0, 63, 100
1, 98794, Note_on_c, 0, 61, 100
1, 98905, Note_off_c, 0, 61, 100
1, 98905, Note_on_c, 0, 58, 100
1, 99001, Note_off_c, 0, 58, 100
1, 99001, Note_on_c, 0, 54, 100
1, 99049, Note_off_c, 0, 54, 100
1, 99049, Note_on_c, 0, 53, 100
1, 99289, Note_off_c, 0, 53, 100
1, 99289, Note_on_c, 0, 56, 100
1, 99385, Note_off_c, 0, 56, 100
1, 99385, Note_on_c, 0, 62, 100
1, 99433, Note_off_c, 0, 62, 100
1, 99433, Note_on_c, 0, 59, 100
1, 99529, Note_off_c, 0, 59, 100
1, 99529, Note_on_c, 0, 57, 100
1, 99688, Note_off_c, 0, 57, 100
1, 99688, Note_on_c, 0, 56, 100
1, 99864, Note_off_c, 0, 56, 100
1, 99864, Note_on_c, 0, 57, 100
1, 99960, Note_off_c, 0, 57, 100
1, 99960, Note_on_c, 0, 59, 100
1, 100008, Note_off_c, 0, 59, 100
1, 100008, Note_on_c, 0, 61, 100
1, 100104, Note_off_c, 0, 61, 100
1, 100104, Note_on_c, 0, 62, 100
1, 100200, Note_off_c, 0, 62, 100
1, 100200, Note_on_c, 0, 58, 100
1, 100296, Note_off_c, 0, 58, 100
1, 100296, Note_on_c, 0, 60, 100
1, 100392, Note_off_c, 0, 60, 100
1, 100584, Note_on_c, 0, 69, 100
1, 100712, Note_off_c, 0, 69, 100
1, 100712, Note_on_c, 0, 65, 100
1, 100776, Note_off_c, 0, 65, 100
1, 100776, Note_on_c, 0, 62, 100
1, 100968, Note_off_c, 0, 62, 100
1, 100968, Note_on_c, 0, 65, 100
1, 101352, Note_off_c, 0, 65, 100
1, 101352, Note_on_c, 0, 65, 100
1, 101480, Note_off_c, 0, 65, 100
1, 101480, Note_on_c, 0, 53, 100
1, 101576, Note_off_c, 0, 53, 100
1, 101832, Note_on_c, 0, 65, 100
1, 102059, Note_off_c, 0, 65, 100
1, 102059, End_track
0, 0, End_of_file
