0, 0, Header, 1, 1, 192
1, 0, Start_track
1, 0, Title_t, "Melody"
1, 0, Tempo, 425531
1, 0, Key_signature, -3, "minor"
1, 0, Time_signature, 4, 2, 24, 8
1, 144, Note_on_c, 0, 65, 100
1, 240, Note_off_c, 0, 65, 100
1, 240, Note_on_c, 0, 63, 100
1, 336, Note_off_c, 0, 63, 100
1, 336, Note_on_c, 0, 65, 100
1, 384, Note_off_c, 0, 65, 100
1, 384, Note_on_c, 0, 63, 100
1, 480, Note_off_c, 0, 63, 100
1, 480, Note_on_c, 0, 61, 100
1, 640, Note_off_c, 0, 61, 100
1, 640, Note_on_c, 0, 63, 100
1, 768, Note_off_c, 0, 63, 100
1, 768, Note_on_c, 0, 65, 100
1, 1632, Note_off_c, 0, 65, 100
1, 1632, Note_on_c, 0, 63, 100
1, 1728, Note_off_c, 0, 63, 100
1, 1728, Note_on_c, 0, 65, 100
1, 1824, Note_off_c, 0, 65, 100
1, 1824, Note_on_c, 0, 63, 100
1, 2064, Note_off_c, 0, 63, 100
1, 2064, Note_on_c, 0, 61, 100
1, 2112, Note_off_c, 0, 61, 100
1, 2112, Note_on_c, 0, 63, 100
1, 2208, Note_off_c, 0, 63, 100
1, 2208, Note_on_c, 0, 65, 100
1, 2400, Note_off_c, 0, 65, 100
1, 2400, Note_on_c, 0, 64, 100
1, 2448, Note_off_c, 0, 64, 100
1, 2448, Note_on_c, 0, 65, 100
1, 2832, Note_off_c, 0, 65, 100
1, 3200, Note_on_c, 0, 64, 100
1, 3232, Note_off_c, 0, 64, 100
1, 3232, Note_on_c, 0, 65, 100
1, 3792, Note_off_c, 0, 65, 100
1, 3792, Note_on_c, 0, 63, 100
1, 3888, Note_off_c, 0, 63, 100
1, 3888, Note_on_c, 0, 65, 100
1, 3984, Note_off_c, 0, 65, 100
1, 3984, Note_on_c, 0, 63, 100
1, 4032, Note_off_c, 0, 63, 100
1, 4032, Note_on_c, 0, 68, 100
1, 4128, Note_off_c, 0, 68, 100
1, 4128, Note_on_c, 0, 66, 100
1, 4176, Note_off_c, 0, 66, 100
1, 4176, Note_on_c, 0, 63, 100
1, 4288, Note_off_c, 0, 63, 100
1, 4288, Note_on_c, 0, 65, 100
1, 4560, Note_off_c, 0, 65, 100
1, 4560, Note_on_c, 0, 63, 100
1, 4608, Note_off_c, 0, 63, 100
1, 4608, Note_on_c, 0, 68, 100
1, 4672, Note_off_c, 0, 68, 100
1, 4672, Note_on_c, 0, 66, 100
1, 4736, Note_off_c, 0, 66, 100
1, 4736, Note_on_c, 0, 63, 100
1, 4800, Note_off_c, 0, 63, 100
1, 4800, Note_on_c, 0, 65, 100
1, 4896, Note_off_c, 0, 65, 100
1, 4896, Note_on_c, 0, 63, 100
1, 4992, Note_off_c, 0, 63, 100
1, 4992, Note_on_c, 0, 68, 100
1, 5056, Note_off_c, 0, 68, 100
1, 5056, Note_on_c, 0, 66, 100
1, 5120, Note_off_c, 0, 66, 100
1, 5120, Note_on_c, 0, 63, 100
1, 5184, Note_off_c, 0, 63, 100
1, 5184, Note_on_c, 0, 65, 100
1, 5280, Note_off_c, 0, 65, 100
1, 5280, Note_on_c, 0, 63, 100
1, 5376, Note_off_c, 0, 63, 100
1, 5376, Note_on_c, 0, 66, 100
1, 5424, Note_off_c, 0, 66, 100
1, 5424, Note_on_c, 0, 63, 100
1, 5520, Note_off_c, 0, 63, 100
1, 5520, Note_on_c, 0, 65, 100
1, 5568, Note_off_c, 0, 65, 100
1, 5568, Note_on_c, 0, 63, 100
1, 5664, Note_off_c, 0, 63, 100
1, 5664, Note_on_c, 0, 61, 100
1, 5712, Note_off_c, 0, 61, 100
1, 5712, Note_on_c, 0, 58, 100
1, 5808, Note_off_c, 0, 58, 100
1, 5808, Note_on_c, 0, 56, 100
1, 5856, Note_off_c, 0, 56, 100
1, 5856, Note_on_c, 0, 53, 100
1, 5904, Note_off_c, 0, 53, 100
1, 5904, Note_on_c, 0, 55, 100
1, 6016, Note_off_c, 0, 55, 100
1, 6016, Note_on_c, 0, 63, 100
1, 6480, Note_off_c, 0, 63, 100
1, 6480, Note_on_c, 0, 63, 100
1, 6528, Note_off_c, 0, 63, 100
1, 6528, Note_on_c, 0, 61, 100
1, 6624, Note_off_c, 0, 61, 100
1, 6624, Note_on_c, 0, 65, 100
1, 7056, Note_off_c, 0, 65, 100
1, 7056, Note_on_c, 0, 63, 100
1, 7200, Note_off_c, 0, 63, 100
1, 7200, Note_on_c, 0, 66, 100
1, 7248, Note_off_c, 0, 66, 100
1, 7248, Note_on_c, 0, 63, 100
1, 7296, Note_off_c, 0, 63, 100
1, 7296, Note_on_c, 0, 58, 100
1, 7392, Note_off_c, 0, 58, 100
1, 7392, Note_on_c, 0, 56, 100
1, 7584, Note_off_c, 0, 56, 100
1, 7872, Note_on_c, 0, 56, 100
1, 7920, Note_off_c, 0, 56, 100
1, 7920, Note_on_c, 0, 59, 100
1, 7968, Note_off_c, 0, 59, 100
1, 7968, Note_on_c, 0, 63, 100
1, 8016, Note_off_c, 0, 63, 100
1, 8016, Note_on_c, 0, 66, 100
1, 8064, Note_off_c, 0, 66, 100
1, 8064, Note_on_c, 0, 70, 100
1, 8128, Note_off_c, 0, 70, 100
1, 8128, Note_on_c, 0, 73, 100
1, 8192, Note_off_c, 0, 73, 100
1, 8192, Note_on_c, 0, 71, 100
1, 8256, Note_off_c, 0, 71, 100
1, 8256, Note_on_c, 0, 70, 100
1, 8294, Note_off_c, 0, 70, 100
1, 8294, Note_on_c, 0, 68, 100
1, 8332, Note_off_c, 0, 68, 100
1, 8332, Note_on_c, 0, 67, 100
1, 8408, Note_off_c, 0, 67, 100
1, 8408, Note_on_c, 0, 65, 100
1, 8446, Note_off_c, 0, 65, 100
1, 8446, Note_on_c, 0, 63, 100
1, 8510, Note_off_c, 0, 63, 100
1, 8510, Note_on_c, 0, 60, 100
1, 8574, Note_off_c, 0, 60, 100
1, 8574, Note_on_c, 0, 56, 100
1, 8638, Note_off_c, 0, 56, 100
1, 8638, Note_on_c, 0, 62, 100
1, 8714, Note_off_c, 0, 62, 100
1, 8714, Note_on_c, 0, 63, 100
1, 8752, Note_off_c, 0, 63, 100
1, 8752, Note_on_c, 0, 65, 100
1, 8790, Note_off_c, 0, 65, 100
1, 8790, Note_on_c, 0, 62, 100
1, 8876, Note_off_c, 0, 62, 100
1, 8876, Note_on_c, 0, 63, 100
1, 8924, Note_off_c, 0, 63, 100
1, 8924, Note_on_c, 0, 62, 100
1, 8972, Note_off_c, 0, 62, 100
1, 8972, Note_on_c, 0, 60, 100
1, 9020, Note_off_c, 0, 60, 100
1, 9020, Note_on_c, 0, 59, 100
1, 9068, Note_off_c, 0, 59, 100
1, 9068, Note_on_c, 0, 58, 100
1, 9116, Note_off_c, 0, 58, 100
1, 9116, Note_on_c, 0, 56, 100
1, 9164, Note_off_c, 0, 56, 100
1, 9164, Note_on_c, 0, 53, 100
1, 9212, Note_off_c, 0, 53, 100
1, 9212, Note_on_c, 0, 55, 100
1, 9308, Note_off_c, 0, 55, 100
1, 9308, Note_on_c, 0, 63, 100
1, 9404, Note_off_c, 0, 63, 100
1, 9740, Note_on_c, 0, 63, 100
1, 9788, Note_off_c, 0, 63, 100
1, 9788, Note_on_c, 0, 65, 100
1, 9836, Note_off_c, 0, 65, 100
1, 9836, Note_on_c, 0, 67, 100
1, 9884, Note_off_c, 0, 67, 100
1, 9884, Note_on_c, 0, 70, 100
1, 9932, Note_off_c, 0, 70, 100
1, 9932, Note_on_c, 0, 72, 100
1, 10044, Note_off_c, 0, 72, 100
1, 10044, Note_on_c, 0, 72, 100
1, 10108, Note_off_c, 0, 72, 100
1, 10108, Note_on_c, 0, 73, 100
1, 10316, Note_off_c, 0, 73, 100
1, 10316, Note_on_c, 0, 72, 100
1, 10364, Note_off_c, 0, 72, 100
1, 10364, Note_on_c, 0, 71, 100
1, 10388, Note_off_c, 0, 71, 100
1, 10388, Note_on_c, 0, 70, 100
1, 10436, Note_off_c, 0, 70, 100
1, 10436, Note_on_c, 0, 68, 100
1, 10460, Note_off_c, 0, 68, 100
1, 10460, Note_on_c, 0, 67, 100
1, 10508, Note_off_c, 0, 67, 100
1, 10508, Note_on_c, 0, 65, 100
1, 10556, Note_off_c, 0, 65, 100
1, 10556, Note_on_c, 0, 63, 100
1, 10620, Note_off_c, 0, 63, 100
1, 10620, Note_on_c, 0, 62, 100
1, 10684, Note_off_c, 0, 62, 100
1, 10684, Note_on_c, 0, 61, 100
1, 10844, Note_off_c, 0, 61, 100
1, 10844, Note_on_c, 0, 60, 100
1, 10868, Note_off_c, 0, 60, 100
1, 10868, Note_on_c, 0, 61, 100
1, 10892, Note_off_c, 0, 61, 100
1, 10892, Note_on_c, 0, 62, 100
1, 10916, Note_off_c, 0, 62, 100
1, 10916, Note_on_c, 0, 63, 100
1, 10940, Note_off_c, 0, 63, 100
1, 10940, Note_on_c, 0, 65, 100
1, 10988, Note_off_c, 0, 65, 100
1, 10988, Note_on_c, 0, 66, 100
1, 11036, Note_off_c, 0, 66, 100
1, 11036, Note_on_c, 0, 68, 100
1, 11084, Note_off_c, 0, 68, 100
1, 11084, Note_on_c, 0, 70, 100
1, 11324, Note_off_c, 0, 70, 100
1, 11324, Note_on_c, 0, 69, 100
1, 11372, Note_off_c, 0, 69, 100
1, 11372, Note_on_c, 0, 66, 100
1, 11420, Note_off_c, 0, 66, 100
1, 11420, Note_on_c, 0, 65, 100
1, 11468, Note_off_c, 0, 65, 100
1, 11468, Note_on_c, 0, 63, 100
1, 11564, Note_off_c, 0, 63, 100
1, 11564, Note_on_c, 0, 67, 100
1, 11612, Note_off_c, 0, 67, 100
1, 11612, Note_on_c, 0, 63, 100
1, 11660, Note_off_c, 0, 63, 100
1, 11660, Note_on_c, 0, 67, 100
1, 11756, Note_off_c, 0, 67, 100
1, 11756, Note_on_c, 0, 68, 100
1, 11804, Note_off_c, 0, 68, 100
1, 11804, Note_on_c, 0, 67, 100
1, 11852, Note_off_c, 0, 67, 100
1, 11852, Note_on_c, 0, 69, 100
1, 11900, Note_off_c, 0, 69, 100
1, 11900, Note_on_c, 0, 72, 100
1, 11948, Note_off_c, 0, 72, 100
1, 11948, Note_on_c, 0, 70, 100
1, 11996, Note_off_c, 0, 70, 100
1, 11996, Note_on_c, 0, 67, 100
1, 12044, Note_off_c, 0, 67, 100
1, 12044, Note_on_c, 0, 68, 100
1, 12092, Note_off_c, 0, 68, 100
1, 12092, Note_on_c, 0, 65, 100
1, 12130, Note_off_c, 0, 65, 100
1, 12130, Note_on_c, 0, 67, 100
1, 12168, Note_off_c, 0, 67, 100
1, 12168, Note_on_c, 0, 65, 100
1, 12206, Note_off_c, 0, 65, 100
1, 12206, Note_on_c, 0, 63, 100
1, 12244, Note_off_c, 0, 63, 100
1, 12244, Note_on_c, 0, 62, 100
1, 12330, Note_off_c, 0, 62, 100
1, 12330, Note_on_c, 0, 61, 100
1, 12378, Note_off_c, 0, 61, 100
1, 12378, Note_on_c, 0, 63, 100
1, 12426, Note_off_c, 0, 63, 100
1, 12426, Note_on_c, 0, 65, 100
1, 12474, Note_off_c, 0, 65, 100
1, 12474, Note_on_c, 0, 61, 100
1, 12512, Note_off_c, 0, 61, 100
1, 12512, Note_on_c, 0, 60, 100
1, 12550, Note_off_c, 0, 60, 100
1, 12550, Note_on_c, 0, 58, 100
1, 12626, Note_off_c, 0, 58, 100
1, 12626, Note_on_c, 0, 57, 100
1, 12728, Note_off_c, 0, 57, 100
1, 12728, Note_on_c, 0, 63, 100
1, 12856, Note_off_c, 0, 63, 100
1, 12856, Note_on_c, 0, 63, 100
1, 12920, Note_off_c, 0, 63, 100
1, 12920, Note_on_c, 0, 66, 100
1, 12984, Note_off_c, 0, 66, 100
1, 12984, Note_on_c, 0, 63, 100
1, 13048, Note_off_c, 0, 63, 100
1, 13048, Note_on_c, 0, 66, 100
1, 13144, Note_off_c, 0, 66, 100
1, 13144, Note_on_c, 0, 68, 100
1, 13384, Note_off_c, 0, 68, 100
1, 13384, Note_on_c, 0, 70, 100
1, 13480, Note_off_c, 0, 70, 100
1, 14123, Note_on_c, 0, 69, 100
1, 14161, Note_off_c, 0, 69, 100
1, 14161, Note_on_c, 0, 70, 100
1, 14199, Note_off_c, 0, 70, 100
1, 14199, Note_on_c, 0, 69, 100
1, 14295, Note_off_c, 0, 69, 100
1, 14295, Note_on_c, 0, 68, 100
1, 14391, Note_off_c, 0, 68, 100
1, 14391, Note_on_c, 0, 66, 100
1, 14487, Note_off_c, 0, 66, 100
1, 14487, Note_on_c, 0, 63, 100
1, 14631, Note_off_c, 0, 63, 100
1, 14631, Note_on_c, 0, 66, 100
1, 14679, Note_off_c, 0, 66, 100
1, 14679, Note_on_c, 0, 67, 100
1, 14871, Note_off_c, 0, 67, 100
1, 14871, Note_on_c, 0, 69, 100
1, 14919, Note_off_c, 0, 69, 100
1, 14919, Note_on_c, 0, 70, 100
1, 14967, Note_off_c, 0, 70, 100
1, 14967, Note_on_c, 0, 72, 100
1, 15015, Note_off_c, 0, 72, 100
1, 15015, Note_on_c, 0, 70, 100
1, 15255, Note_off_c, 0, 70, 100
1, 15255, Note_on_c, 0, 68, 100
1, 15303, Note_off_c, 0, 68, 100
1, 15303, Note_on_c, 0, 67, 100
1, 15351, Note_off_c, 0, 67, 100
1, 15351, Note_on_c, 0, 65, 100
1, 15389, Note_off_c, 0, 65, 100
1, 15389, Note_on_c, 0, 63, 100
1, 15427, Note_off_c, 0, 63, 100
1, 15427, Note_on_c, 0, 62, 100
1, 15465, Note_off_c, 0, 62, 100
1, 15465, Note_on_c, 0, 60, 100
1, 15503, Note_off_c, 0, 60, 100
1, 15503, Note_on_c, 0, 59, 100
1, 15541, Note_off_c, 0, 59, 100
1, 15541, Note_on_c, 0, 58, 100
1, 15617, Note_off_c, 0, 58, 100
1, 15617, Note_on_c, 0, 56, 100
1, 15655, Note_off_c, 0, 56, 100
1, 15655, Note_on_c, 0, 55, 100
1, 15693, Note_off_c, 0, 55, 100
1, 15693, Note_on_c, 0, 53, 100
1, 15731, Note_off_c, 0, 53, 100
1, 15731, Note_on_c, 0, 52, 100
1, 15827, Note_off_c, 0, 52, 100
1, 15827, Note_on_c, 0, 58, 100
1, 15971, Note_off_c, 0, 58, 100
1, 15971, Note_on_c, 0, 61, 100
1, 16019, Note_off_c, 0, 61, 100
1, 16019, Note_on_c, 0, 64, 100
1, 16067, Note_off_c, 0, 64, 100
1, 16067, Note_on_c, 0, 67, 100
1, 16115, Note_off_c, 0, 67, 100
1, 16115, Note_on_c, 0, 64, 100
1, 16179, Note_off_c, 0, 64, 100
1, 16179, Note_on_c, 0, 65, 100
1, 16243, Note_off_c, 0, 65, 100
1, 16243, Note_on_c, 0, 60, 100
1, 16307, Note_off_c, 0, 60, 100
1, 16307, Note_on_c, 0, 56, 100
1, 16355, Note_off_c, 0, 56, 100
1, 16355, Note_on_c, 0, 53, 100
1, 16403, Note_off_c, 0, 53, 100
1, 16403, Note_on_c, 0, 60, 100
1, 16499, Note_off_c, 0, 60, 100
1, 16755, Note_on_c, 0, 64, 100
1, 16819, Note_off_c, 0, 64, 100
1, 16819, Note_on_c, 0, 65, 100
1, 16883, Note_off_c, 0, 65, 100
1, 16883, Note_on_c, 0, 60, 100
1, 16931, Note_off_c, 0, 60, 100
1, 16931, Note_on_c, 0, 64, 100
1, 16979, Note_off_c, 0, 64, 100
1, 16979, Note_on_c, 0, 65, 100
1, 17027, Note_off_c, 0, 65, 100
1, 17027, Note_on_c, 0, 67, 100
1, 17075, Note_off_c, 0, 67, 100
1, 17075, Note_on_c, 0, 68, 100
1, 17151, Note_off_c, 0, 68, 100
1, 17151, Note_on_c, 0, 65, 100
1, 17189, Note_off_c, 0, 65, 100
1, 17189, Note_on_c, 0, 64, 100
1, 17227, Note_off_c, 0, 64, 100
1, 17227, Note_on_c, 0, 63, 100
1, 17265, Note_off_c, 0, 63, 100
1, 17265, Note_on_c, 0, 62, 100
1, 17313, Note_off_c, 0, 62, 100
1, 17313, Note_on_c, 0, 60, 100
1, 17361, Note_off_c, 0, 60, 100
1, 17361, Note_on_c, 0, 59, 100
1, 17409, Note_off_c, 0, 59, 100
1, 17409, Note_on_c, 0, 58, 100
1, 17457, Note_off_c, 0, 58, 100
1, 17457, Note_on_c, 0, 57, 100
1, 17505, Note_off_c, 0, 57, 100
1, 17505, Note_on_c, 0, 56, 100
1, 17553, Note_off_c, 0, 56, 100
1, 17553, Note_on_c, 0, 58, 100
1, 17601, Note_off_c, 0, 58, 100
1, 17601, Note_on_c, 0, 61, 100
1, 17649, Note_off_c, 0, 61, 100
1, 17649, Note_on_c, 0, 62, 100
1, 17697, Note_off_c, 0, 62, 100
1, 17697, Note_on_c, 0, 63, 100
1, 17745, Note_off_c, 0, 63, 100
1, 17745, Note_on_c, 0, 65, 100
1, 17793, Note_off_c, 0, 65, 100
1, 17793, Note_on_c, 0, 67, 100
1, 17841, Note_off_c, 0, 67, 100
1, 17841, Note_on_c, 0, 63, 100
1, 17937, Note_off_c, 0, 63, 100
1, 17937, Note_on_c, 0, 63, 100
1, 18033, Note_off_c, 0, 63, 100
1, 18033, Note_on_c, 0, 63, 100
1, 18273, Note_off_c, 0, 63, 100
1, 18273, Note_on_c, 0, 61, 100
1, 18321, Note_off_c, 0, 61, 100
1, 18321, Note_on_c, 0, 63, 100
1, 18417, Note_off_c, 0, 63, 100
1, 18753, Note_on_c, 0, 65, 100
1, 18801, Note_off_c, 0, 65, 100
1, 18801, Note_on_c, 0, 66, 100
1, 18849, Note_off_c, 0, 66, 100
1, 18849, Note_on_c, 0, 67, 100
1, 19137, Note_off_c, 0, 67, 100
1, 19137, Note_on_c, 0, 68, 100
1, 19185, Note_off_c, 0, 68, 100
1, 19185, Note_on_c, 0, 67, 100
1, 19313, Note_off_c, 0, 67, 100
1, 19313, Note_on_c, 0, 67, 100
1, 19441, Note_off_c, 0, 67, 100
1, 19441, Note_on_c, 0, 67, 100
1, 19505, Note_off_c, 0, 67, 100
1, 19505, Note_on_c, 0, 63, 100
1, 19569, Note_off_c, 0, 63, 100
1, 19569, Note_on_c, 0, 61, 100
1, 19799, Note_off_c, 0, 61, 100
1, 19799, Note_on_c, 0, 65, 100
1, 19875, Note_off_c, 0, 65, 100
1, 19875, Note_on_c, 0, 62, 100
1, 19913, Note_off_c, 0, 62, 100
1, 19913, Note_on_c, 0, 63, 100
1, 20143, Note_off_c, 0, 63, 100
1, 20143, Note_on_c, 0, 60, 100
1, 20239, Note_off_c, 0, 60, 100
1, 20239, Note_on_c, 0, 56, 100
1, 20287, Note_off_c, 0, 56, 100
1, 20287, Note_on_c, 0, 51, 100
1, 20383, Note_off_c, 0, 51, 100
1, 20383, Note_on_c, 0, 54, 100
1, 20431, Note_off_c, 0, 54, 100
1, 20431, Note_on_c, 0, 62, 100
1, 20527, Note_off_c, 0, 62, 100
1, 20911, Note_on_c, 0, 58, 100
1, 20975, Note_off_c, 0, 58, 100
1, 20975, Note_on_c, 0, 61, 100
1, 21039, Note_off_c, 0, 61, 100
1, 21039, Note_on_c, 0, 65, 100
1, 21103, Note_off_c, 0, 65, 100
1, 21103, Note_on_c, 0, 68, 100
1, 21218, Note_off_c, 0, 68, 100
1, 21218, Note_on_c, 0, 71, 100
1, 21256, Note_off_c, 0, 71, 100
1, 21256, Note_on_c, 0, 72, 100
1, 21294, Note_off_c, 0, 72, 100
1, 21294, Note_on_c, 0, 75, 100
1, 21534, Note_off_c, 0, 75, 100
1, 21534, Note_on_c, 0, 71, 100
1, 21630, Note_off_c, 0, 71, 100
1, 21630, Note_on_c, 0, 61, 100
1, 21774, Note_off_c, 0, 61, 100
1, 21774, Note_on_c, 0, 71, 100
1, 21918, Note_off_c, 0, 71, 100
1, 21918, Note_on_c, 0, 75, 100
1, 22014, Note_off_c, 0, 75, 100
1, 22014, Note_on_c, 0, 73, 100
1, 22110, Note_off_c, 0, 73, 100
1, 22110, Note_on_c, 0, 68, 100
1, 22158, Note_off_c, 0, 68, 100
1, 22158, Note_on_c, 0, 64, 100
1, 22206, Note_off_c, 0, 64, 100
1, 22206, Note_on_c, 0, 63, 100
1, 22302, Note_off_c, 0, 63, 100
1, 22494, Note_on_c, 0, 63, 100
1, 22542, Note_off_c, 0, 63, 100
1, 22542, Note_on_c, 0, 62, 100
1, 22590, Note_off_c, 0, 62, 100
1, 22590, Note_on_c, 0, 63, 100
1, 22638, Note_off_c, 0, 63, 100
1, 22638, Note_on_c, 0, 65, 100
1, 22702, Note_off_c, 0, 65, 100
1, 22702, Note_on_c, 0, 66, 100
1, 22766, Note_off_c, 0, 66, 100
1, 22766, Note_on_c, 0, 70, 100
1, 22830, Note_off_c, 0, 70, 100
1, 22830, Note_on_c, 0, 73, 100
1, 22878, Note_off_c, 0, 73, 100
1, 22878, Note_on_c, 0, 72, 100
1, 22974, Note_off_c, 0, 72, 100
1, 22974, Note_on_c, 0, 75, 100
1, 23214, Note_off_c, 0, 75, 100
1, 23214, Note_on_c, 0, 70, 100
1, 23310, Note_off_c, 0, 70, 100
1, 23310, Note_on_c, 0, 63, 100
1, 23454, Note_off_c, 0, 63, 100
1, 23454, Note_on_c, 0, 66, 100
1, 23550, Note_off_c, 0, 66, 100
1, 23550, Note_on_c, 0, 69, 100
1, 23662, Note_off_c, 0, 69, 100
1, 23662, Note_on_c, 0, 74, 100
1, 23694, Note_off_c, 0, 74, 100
1, 23694, Note_on_c, 0, 73, 100
1, 23726, Note_off_c, 0, 73, 100
1, 23726, Note_on_c, 0, 72, 100
1, 23758, Note_off_c, 0, 72, 100
1, 23758, Note_on_c, 0, 70, 100
1, 24046, Note_off_c, 0, 70, 100
1, 24046, Note_on_c, 0, 67, 100
1, 24110, Note_off_c, 0, 67, 100
1, 24110, Note_on_c, 0, 65, 100
1, 24174, Note_off_c, 0, 65, 100
1, 24174, Note_on_c, 0, 63, 100
1, 24222, Note_off_c, 0, 63, 100
1, 24222, Note_on_c, 0, 62, 100
1, 24318, Note_off_c, 0, 62, 100
1, 24318, Note_on_c, 0, 60, 100
1, 24414, Note_off_c, 0, 60, 100
1, 24654, Note_on_c, 0, 55, 100
1, 24702, Note_off_c, 0, 55, 100
1, 24702, Note_on_c, 0, 56, 100
1, 24788, Note_off_c, 0, 56, 100
1, 24788, Note_on_c, 0, 58, 100
1, 24826, Note_off_c, 0, 58, 100
1, 24826, Note_on_c, 0, 60, 100
1, 24864, Note_off_c, 0, 60, 100
1, 24864, Note_on_c, 0, 62, 100
1, 24902, Note_off_c, 0, 62, 100
1, 24902, Note_on_c, 0, 63, 100
1, 24940, Note_off_c, 0, 63, 100
1, 24940, Note_on_c, 0, 65, 100
1, 25036, Note_off_c, 0, 65, 100
1, 25036, Note_on_c, 0, 70, 100
1, 25180, Note_off_c, 0, 70, 100
1, 25180, Note_on_c, 0, 64, 100
1, 25228, Note_off_c, 0, 64, 100
1, 25228, Note_on_c, 0, 61, 100
1, 25276, Note_off_c, 0, 61, 100
1, 25276, Note_on_c, 0, 57, 100
1, 25300, Note_off_c, 0, 57, 100
1, 25300, Note_on_c, 0, 54, 100
1, 25396, Note_off_c, 0, 54, 100
1, 25564, Note_on_c, 0, 58, 100
1, 25708, Note_off_c, 0, 58, 100
1, 25708, Note_on_c, 0, 58, 100
1, 25756, Note_off_c, 0, 58, 100
1, 25756, Note_on_c, 0, 56, 100
1, 25804, Note_off_c, 0, 56, 100
1, 25804, Note_on_c, 0, 58, 100
1, 25852, Note_off_c, 0, 58, 100
1, 25852, Note_on_c, 0, 60, 100
1, 25900, Note_off_c, 0, 60, 100
1, 25900, Note_on_c, 0, 63, 100
1, 25924, Note_off_c, 0, 63, 100
1, 25924, Note_on_c, 0, 67, 100
1, 25972, Note_off_c, 0, 67, 100
1, 25972, Note_on_c, 0, 68, 100
1, 25996, Note_off_c, 0, 68, 100
1, 25996, Note_on_c, 0, 67, 100
1, 26020, Note_off_c, 0, 67, 100
1, 26020, Note_on_c, 0, 64, 100
1, 26068, Note_off_c, 0, 64, 100
1, 26068, Note_on_c, 0, 67, 100
1, 26092, Note_off_c, 0, 67, 100
1, 26092, Note_on_c, 0, 65, 100
1, 26284, Note_off_c, 0, 65, 100
1, 26284, Note_on_c, 0, 67, 100
1, 26332, Note_off_c, 0, 67, 100
1, 26332, Note_on_c, 0, 66, 100
1, 26380, Note_off_c, 0, 66, 100
1, 26380, Note_on_c, 0, 65, 100
1, 26428, Note_off_c, 0, 65, 100
1, 26428, Note_on_c, 0, 64, 100
1, 26476, Note_off_c, 0, 64, 100
1, 26476, Note_on_c, 0, 63, 100
1, 26540, Note_off_c, 0, 63, 100
1, 26540, Note_on_c, 0, 62, 100
1, 26604, Note_off_c, 0, 62, 100
1, 26604, Note_on_c, 0, 60, 100
1, 26668, Note_off_c, 0, 60, 100
1, 26668, Note_on_c, 0, 59, 100
1, 26716, Note_off_c, 0, 59, 100
1, 26716, Note_on_c, 0, 57, 100
1, 26764, Note_off_c, 0, 57, 100
1, 26764, Note_on_c, 0, 56, 100
1, 26812, Note_off_c, 0, 56, 100
1, 26812, Note_on_c, 0, 58, 100
1, 26860, Note_off_c, 0, 58, 100
1, 26860, Note_on_c, 0, 59, 100
1, 26908, Note_off_c, 0, 59, 100
1, 26908, Note_on_c, 0, 62, 100
1, 26956, Note_off_c, 0, 62, 100
1, 26956, Note_on_c, 0, 63, 100
1, 27004, Note_off_c, 0, 63, 100
1, 27004, Note_on_c, 0, 65, 100
1, 27052, Note_off_c, 0, 65, 100
1, 27052, Note_on_c, 0, 67, 100
1, 27090, Note_off_c, 0, 67, 100
1, 27090, Note_on_c, 0, 68, 100
1, 27128, Note_off_c, 0, 68, 100
1, 27128, Note_on_c, 0, 70, 100
1, 27204, Note_off_c, 0, 70, 100
1, 27204, Note_on_c, 0, 67, 100
1, 27242, Note_off_c, 0, 67, 100
1, 27242, Note_on_c, 0, 71, 100
1, 27306, Note_off_c, 0, 71, 100
1, 27306, Note_on_c, 0, 68, 100
1, 27370, Note_off_c, 0, 68, 100
1, 27370, Note_on_c, 0, 67, 100
1, 27434, Note_off_c, 0, 67, 100
1, 27434, Note_on_c, 0, 65, 100
1, 27482, Note_off_c, 0, 65, 100
1, 27482, Note_on_c, 0, 63, 100
1, 27530, Note_off_c, 0, 63, 100
1, 27530, Note_on_c, 0, 60, 100
1, 27578, Note_off_c, 0, 60, 100
1, 27578, Note_on_c, 0, 56, 100
1, 27626, Note_off_c, 0, 56, 100
1, 27626, Note_on_c, 0, 53, 100
1, 27674, Note_off_c, 0, 53, 100
1, 27674, Note_on_c, 0, 62, 100
1, 27722, Note_off_c, 0, 62, 100
1, 27722, Note_on_c, 0, 63, 100
1, 27770, Note_off_c, 0, 63, 100
1, 27770, Note_on_c, 0, 65, 100
1, 27818, Note_off_c, 0, 65, 100
1, 27818, Note_on_c, 0, 62, 100
1, 27866, Note_off_c, 0, 62, 100
1, 27866, Note_on_c, 0, 63, 100
1, 27914, Note_off_c, 0, 63, 100
1, 27914, Note_on_c, 0, 60, 100
1, 27962, Note_off_c, 0, 60, 100
1, 27962, Note_on_c, 0, 56, 100
1, 28010, Note_off_c, 0, 56, 100
1, 28010, Note_on_c, 0, 53, 100
1, 28058, Note_off_c, 0, 53, 100
1, 28058, Note_on_c, 0, 62, 100
1, 28202, Note_off_c, 0, 62, 100
1, 28202, Note_on_c, 0, 70, 100
1, 28278, Note_off_c, 0, 70, 100
1, 28278, Note_on_c, 0, 68, 100
1, 28316, Note_off_c, 0, 68, 100
1, 28316, Note_on_c, 0, 67, 100
1, 28354, Note_off_c, 0, 67, 100
1, 28354, Note_on_c, 0, 65, 100
1, 28440, Note_off_c, 0, 65, 100
1, 28440, Note_on_c, 0, 63, 100
1, 28536, Note_off_c, 0, 63, 100
1, 28536, Note_on_c, 0, 63, 100
1, 28648, Note_off_c, 0, 63, 100
1, 28648, Note_on_c, 0, 67, 100
1, 28712, Note_off_c, 0, 67, 100
1, 28712, Note_on_c, 0, 70, 100
1, 28904, Note_off_c, 0, 70, 100
1, 29352, Note_on_c, 0, 68, 100
1, 29400, Note_off_c, 0, 68, 100
1, 29400, Note_on_c, 0, 70, 100
1, 29688, Note_off_c, 0, 70, 100
1, 29688, Note_on_c, 0, 68, 100
1, 29736, Note_off_c, 0, 68, 100
1, 29736, Note_on_c, 0, 71, 100
1, 29784, Note_off_c, 0, 71, 100
1, 29784, Note_on_c, 0, 70, 100
1, 29832, Note_off_c, 0, 70, 100
1, 29832, Note_on_c, 0, 68, 100
1, 29928, Note_off_c, 0, 68, 100
1, 30158, Note_on_c, 0, 68, 100
1, 30196, Note_off_c, 0, 68, 100
1, 30196, Note_on_c, 0, 67, 100
1, 30234, Note_off_c, 0, 67, 100
1, 30234, Note_on_c, 0, 65, 100
1, 30272, Note_off_c, 0, 65, 100
1, 30272, Note_on_c, 0, 61, 100
1, 30310, Note_off_c, 0, 61, 100
1, 30310, Note_on_c, 0, 58, 100
1, 30374, Note_off_c, 0, 58, 100
1, 30374, Note_on_c, 0, 53, 100
1, 30438, Note_off_c, 0, 53, 100
1, 30438, Note_on_c, 0, 56, 100
1, 30502, Note_off_c, 0, 56, 100
1, 30502, Note_on_c, 0, 63, 100
1, 30566, Note_off_c, 0, 63, 100
1, 30566, Note_on_c, 0, 63, 100
1, 30630, Note_off_c, 0, 63, 100
1, 30630, Note_on_c, 0, 61, 100
1, 30694, Note_off_c, 0, 61, 100
1, 30694, Note_on_c, 0, 63, 100
1, 30732, Note_off_c, 0, 63, 100
1, 30732, Note_on_c, 0, 65, 100
1, 30770, Note_off_c, 0, 65, 100
1, 30770, Note_on_c, 0, 67, 100
1, 30808, Note_off_c, 0, 67, 100
1, 30808, Note_on_c, 0, 68, 100
1, 30846, Note_off_c, 0, 68, 100
1, 30846, Note_on_c, 0, 70, 100
1, 30884, Note_off_c, 0, 70, 100
1, 30884, Note_on_c, 0, 72, 100
1, 30948, Note_off_c, 0, 72, 100
1, 30948, Note_on_c, 0, 64, 100
1, 31012, Note_off_c, 0, 64, 100
1, 31012, Note_on_c, 0, 66, 100
1, 31076, Note_off_c, 0, 66, 100
1, 31076, Note_on_c, 0, 67, 100
1, 31108, Note_off_c, 0, 67, 100
1, 31108, Note_on_c, 0, 69, 100
1, 31140, Note_off_c, 0, 69, 100
1, 31140, Note_on_c, 0, 71, 100
1, 31204, Note_off_c, 0, 71, 100
1, 31204, Note_on_c, 0, 74, 100
1, 31236, Note_off_c, 0, 74, 100
1, 31236, Note_on_c, 0, 73, 100
1, 31268, Note_off_c, 0, 73, 100
1, 31268, Note_on_c, 0, 72, 100
1, 31316, Note_off_c, 0, 72, 100
1, 31316, Note_on_c, 0, 71, 100
1, 31364, Note_off_c, 0, 71, 100
1, 31364, Note_on_c, 0, 69, 100
1, 31460, Note_off_c, 0, 69, 100
1, 31652, Note_on_c, 0, 71, 100
1, 31690, Note_off_c, 0, 71, 100
1, 31690, Note_on_c, 0, 73, 100
1, 31728, Note_off_c, 0, 73, 100
1, 31728, Note_on_c, 0, 75, 100
1, 31804, Note_off_c, 0, 75, 100
1, 31804, Note_on_c, 0, 73, 100
1, 31842, Note_off_c, 0, 73, 100
1, 31842, Note_on_c, 0, 72, 100
1, 31890, Note_off_c, 0, 72, 100
1, 31890, Note_on_c, 0, 67, 100
1, 31938, Note_off_c, 0, 67, 100
1, 31938, Note_on_c, 0, 69, 100
1, 31986, Note_off_c, 0, 69, 100
1, 31986, Note_on_c, 0, 70, 100
1, 32034, Note_off_c, 0, 70, 100
1, 32034, Note_on_c, 0, 65, 100
1, 32072, Note_off_c, 0, 65, 100
1, 32072, Note_on_c, 0, 66, 100
1, 32110, Note_off_c, 0, 66, 100
1, 32110, Note_on_c, 0, 68, 100
1, 32148, Note_off_c, 0, 68, 100
1, 32148, Note_on_c, 0, 70, 100
1, 32186, Note_off_c, 0, 70, 100
1, 32186, Note_on_c, 0, 66, 100
1, 32224, Note_off_c, 0, 66, 100
1, 32224, Note_on_c, 0, 65, 100
1, 32272, Note_off_c, 0, 65, 100
1, 32272, Note_on_c, 0, 63, 100
1, 32320, Note_off_c, 0, 63, 100
1, 32320, Note_on_c, 0, 62, 100
1, 32368, Note_off_c, 0, 62, 100
1, 32368, Note_on_c, 0, 63, 100
1, 32416, Note_off_c, 0, 63, 100
1, 32416, Note_on_c, 0, 68, 100
1, 32480, Note_off_c, 0, 68, 100
1, 32480, Note_on_c, 0, 66, 100
1, 32544, Note_off_c, 0, 66, 100
1, 32544, Note_on_c, 0, 61, 100
1, 32608, Note_off_c, 0, 61, 100
1, 32608, Note_on_c, 0, 65, 100
1, 32752, Note_off_c, 0, 65, 100
1, 32752, Note_on_c, 0, 63, 100
1, 32838, Note_off_c, 0, 63, 100
1, 32838, Note_on_c, 0, 65, 100
1, 32876, Note_off_c, 0, 65, 100
1, 32876, Note_on_c, 0, 61, 100
1, 32914, Note_off_c, 0, 61, 100
1, 32914, Note_on_c, 0, 63, 100
1, 32952, Note_off_c, 0, 63, 100
1, 32952, Note_on_c, 0, 67, 100
1, 32990, Note_off_c, 0, 67, 100
1, 32990, Note_on_c, 0, 71, 100
1, 33028, Note_off_c, 0, 71, 100
1, 33028, Note_on_c, 0, 70, 100
1, 33066, Note_off_c, 0, 70, 100
1, 33066, Note_on_c, 0, 68, 100
1, 33104, Note_off_c, 0, 68, 100
1, 33104, Note_on_c, 0, 67, 100
1, 33142, Note_off_c, 0, 67, 100
1, 33142, Note_on_c, 0, 65, 100
1, 33180, Note_off_c, 0, 65, 100
1, 33180, Note_on_c, 0, 63, 100
1, 33228, Note_off_c, 0, 63, 100
1, 33228, Note_on_c, 0, 62, 100
1, 33276, Note_off_c, 0, 62, 100
1, 33276, Note_on_c, 0, 60, 100
1, 33324, Note_off_c, 0, 60, 100
1, 33324, Note_on_c, 0, 59, 100
1, 33372, Note_off_c, 0, 59, 100
1, 33372, Note_on_c, 0, 58, 100
1, 33420, Note_off_c, 0, 58, 100
1, 33420, Note_on_c, 0, 56, 100
1, 33468, Note_off_c, 0, 56, 100
1, 33468, Note_on_c, 0, 55, 100
1, 33516, Note_off_c, 0, 55, 100
1, 33516, Note_on_c, 0, 53, 100
1, 33564, Note_off_c, 0, 53, 100
1, 33564, Note_on_c, 0, 51, 100
1, 33660, Note_off_c, 0, 51, 100
1, 33660, Note_on_c, 0, 58, 100
1, 33756, Note_off_c, 0, 58, 100
1, 33756, Note_on_c, 0, 61, 100
1, 33804, Note_off_c, 0, 61, 100
1, 33804, Note_on_c, 0, 62, 100
1, 33852, Note_off_c, 0, 62, 100
1, 33852, Note_on_c, 0, 65, 100
1, 33900, Note_off_c, 0, 65, 100
1, 33900, Note_on_c, 0, 62, 100
1, 33948, Note_off_c, 0, 62, 100
1, 33948, Note_on_c, 0, 63, 100
1, 33996, Note_off_c, 0, 63, 100
1, 33996, Note_on_c, 0, 65, 100
1, 34044, Note_off_c, 0, 65, 100
1, 34044, Note_on_c, 0, 67, 100
1, 34092, Note_off_c, 0, 67, 100
1, 34092, Note_on_c, 0, 70, 100
1, 34140, Note_off_c, 0, 70, 100
1, 34140, Note_on_c, 0, 74, 100
1, 34178, Note_off_c, 0, 74, 100
1, 34178, Note_on_c, 0, 73, 100
1, 34216, Note_off_c, 0, 73, 100
1, 34216, Note_on_c, 0, 72, 100
1, 34254, Note_off_c, 0, 72, 100
1, 34254, Note_on_c, 0, 70, 100
1, 34292, Note_off_c, 0, 70, 100
1, 34292, Note_on_c, 0, 67, 100
1, 34330, Note_off_c, 0, 67, 100
1, 34330, Note_on_c, 0, 73, 100
1, 34378, Note_off_c, 0, 73, 100
1, 34378, Note_on_c, 0, 74, 100
1, 34426, Note_off_c, 0, 74, 100
1, 34426, Note_on_c, 0, 73, 100
1, 34474, Note_off_c, 0, 73, 100
1, 34474, Note_on_c, 0, 71, 100
1, 34522, Note_off_c, 0, 71, 100
1, 34522, Note_on_c, 0, 69, 100
1, 34560, Note_off_c, 0, 69, 100
1, 34560, Note_on_c, 0, 68, 100
1, 34598, Note_off_c, 0, 68, 100
1, 34598, Note_on_c, 0, 66, 100
1, 34674, Note_off_c, 0, 66, 100
1, 34674, Note_on_c, 0, 60, 100
1, 34712, Note_off_c, 0, 60, 100
1, 34712, Note_on_c, 0, 67, 100
1, 34808, Note_off_c, 0, 67, 100
1, 34808, Note_on_c, 0, 65, 100
1, 34856, Note_off_c, 0, 65, 100
1, 34856, Note_on_c, 0, 61, 100
1, 34904, Note_off_c, 0, 61, 100
1, 34904, Note_on_c, 0, 64, 100
1, 34968, Note_off_c, 0, 64, 100
1, 34968, Note_on_c, 0, 60, 100
1, 35032, Note_off_c, 0, 60, 100
1, 35032, Note_on_c, 0, 63, 100
1, 35128, Note_off_c, 0, 63, 100
1, 35336, Note_on_c, 0, 66, 100
1, 35384, Note_off_c, 0, 66, 100
1, 35384, Note_on_c, 0, 67, 100
1, 35432, Note_off_c, 0, 67, 100
1, 35432, Note_on_c, 0, 64, 100
1, 35480, Note_off_c, 0, 64, 100
1, 35480, Note_on_c, 0, 66, 100
1, 35528, Note_off_c, 0, 66, 100
1, 35528, Note_on_c, 0, 65, 100
1, 35576, Note_off_c, 0, 65, 100
1, 35576, Note_on_c, 0, 64, 100
1, 35624, Note_off_c, 0, 64, 100
1, 35624, Note_on_c, 0, 65, 100
1, 35672, Note_off_c, 0, 65, 100
1, 35672, Note_on_c, 0, 64, 100
1, 35816, Note_off_c, 0, 64, 100
1, 35816, Note_on_c, 0, 63, 100
1, 35864, Note_off_c, 0, 63, 100
1, 35864, Note_on_c, 0, 62, 100
1, 35891, Note_off_c, 0, 62, 100
1, 35891, Note_on_c, 0, 64, 100
1, 35918, Note_off_c, 0, 64, 100
1, 35918, Note_on_c, 0, 66, 100
1, 35945, Note_off_c, 0, 66, 100
1, 35945, Note_on_c, 0, 69, 100
1, 35972, Note_off_c, 0, 69, 100
1, 35972, Note_on_c, 0, 73, 100
1, 36026, Note_off_c, 0, 73, 100
1, 36026, Note_on_c, 0, 71, 100
1, 36053, Note_off_c, 0, 71, 100
1, 36053, Note_on_c, 0, 70, 100
1, 36117, Note_off_c, 0, 70, 100
1, 36117, Note_on_c, 0, 68, 100
1, 36181, Note_off_c, 0, 68, 100
1, 36181, Note_on_c, 0, 67, 100
1, 36245, Note_off_c, 0, 67, 100
1, 36245, Note_on_c, 0, 65, 100
1, 36283, Note_off_c, 0, 65, 100
1, 36283, Note_on_c, 0, 63, 100
1, 36321, Note_off_c, 0, 63, 100
1, 36321, Note_on_c, 0, 65, 100
1, 36397, Note_off_c, 0, 65, 100
1, 36397, Note_on_c, 0, 70, 100
1, 36435, Note_off_c, 0, 70, 100
1, 36435, Note_on_c, 0, 75, 100
1, 36771, Note_off_c, 0, 75, 100
1, 36771, Note_on_c, 0, 70, 100
1, 36819, Note_off_c, 0, 70, 100
1, 36819, Note_on_c, 0, 72, 100
1, 36915, Note_off_c, 0, 72, 100
1, 36915, Note_on_c, 0, 70, 100
1, 37155, Note_off_c, 0, 70, 100
1, 37155, Note_on_c, 0, 69, 100
1, 37203, Note_off_c, 0, 69, 100
1, 37203, Note_on_c, 0, 71, 100
1, 37251, Note_off_c, 0, 71, 100
1, 37251, Note_on_c, 0, 73, 100
1, 37347, Note_off_c, 0, 73, 100
1, 37347, Note_on_c, 0, 71, 100
1, 37395, Note_off_c, 0, 71, 100
1, 37395, Note_on_c, 0, 70, 100
1, 37443, Note_off_c, 0, 70, 100
1, 37443, Note_on_c, 0, 68, 100
1, 37491, Note_off_c, 0, 68, 100
1, 37491, Note_on_c, 0, 67, 100
1, 37539, Note_off_c, 0, 67, 100
1, 37539, Note_on_c, 0, 65, 100
1, 37587, Note_off_c, 0, 65, 100
1, 37587, Note_on_c, 0, 63, 100
1, 37651, Note_off_c, 0, 63, 100
1, 37651, Note_on_c, 0, 58, 100
1, 37715, Note_off_c, 0, 58, 100
1, 37715, Note_on_c, 0, 63, 100
1, 37779, Note_off_c, 0, 63, 100
1, 37779, Note_on_c, 0, 67, 100
1, 37827, Note_off_c, 0, 67, 100
1, 37827, Note_on_c, 0, 68, 100
1, 37875, Note_off_c, 0, 68, 100
1, 37875, Note_on_c, 0, 65, 100
1, 37923, Note_off_c, 0, 65, 100
1, 37923, Note_on_c, 0, 61, 100
1, 37971, Note_off_c, 0, 61, 100
1, 37971, Note_on_c, 0, 58, 100
1, 38099, Note_off_c, 0, 58, 100
1, 38099, Note_on_c, 0, 56, 100
1, 38163, Note_off_c, 0, 56, 100
1, 38163, Note_on_c, 0, 55, 100
1, 38259, Note_off_c, 0, 55, 100
1, 38259, Note_on_c, 0, 63, 100
1, 38355, Note_off_c, 0, 63, 100
1, 38355, Note_on_c, 0, 60, 100
1, 38403, Note_off_c, 0, 60, 100
1, 38403, Note_on_c, 0, 61, 100
1, 38451, Note_off_c, 0, 61, 100
1, 38451, Note_on_c, 0, 62, 100
1, 38499, Note_off_c, 0, 62, 100
1, 38499, Note_on_c, 0, 63, 100
1, 38547, Note_off_c, 0, 63, 100
1, 38547, Note_on_c, 0, 65, 100
1, 38595, Note_off_c, 0, 65, 100
1, 38595, Note_on_c, 0, 66, 100
1, 38643, Note_off_c, 0, 66, 100
1, 38643, Note_on_c, 0, 68, 100
1, 38691, Note_off_c, 0, 68, 100
1, 38691, Note_on_c, 0, 70, 100
1, 38883, Note_off_c, 0, 70, 100
1, 38883, Note_on_c, 0, 71, 100
1, 38931, Note_off_c, 0, 71, 100
1, 38931, Note_on_c, 0, 70, 100
1, 39027, Note_off_c, 0, 70, 100
1, 39027, Note_on_c, 0, 66, 100
1, 39075, Note_off_c, 0, 66, 100
1, 39075, Note_on_c, 0, 63, 100
1, 39171, Note_off_c, 0, 63, 100
1, 39459, Note_on_c, 0, 65, 100
1, 39507, Note_off_c, 0, 65, 100
1, 39507, Note_on_c, 0, 67, 100
1, 39651, Note_off_c, 0, 67, 100
1, 39651, Note_on_c, 0, 63, 100
1, 39699, Note_off_c, 0, 63, 100
1, 39699, Note_on_c, 0, 67, 100
1, 39737, Note_off_c, 0, 67, 100
1, 39737, Note_on_c, 0, 68, 100
1, 39775, Note_off_c, 0, 68, 100
1, 39775, Note_on_c, 0, 65, 100
1, 39813, Note_off_c, 0, 65, 100
1, 39813, Note_on_c, 0, 68, 100
1, 39851, Note_off_c, 0, 68, 100
1, 39851, Note_on_c, 0, 69, 100
1, 39889, Note_off_c, 0, 69, 100
1, 39889, Note_on_c, 0, 72, 100
1, 39927, Note_off_c, 0, 72, 100
1, 39927, Note_on_c, 0, 70, 100
1, 39965, Note_off_c, 0, 70, 100
1, 39965, Note_on_c, 0, 69, 100
1, 40041, Note_off_c, 0, 69, 100
1, 40041, Note_on_c, 0, 67, 100
1, 40127, Note_off_c, 0, 67, 100
1, 40127, Note_on_c, 0, 65, 100
1, 40175, Note_off_c, 0, 65, 100
1, 40175, Note_on_c, 0, 61, 100
1, 40271, Note_off_c, 0, 61, 100
1, 40271, Note_on_c, 0, 61, 100
1, 40347, Note_off_c, 0, 61, 100
1, 40347, Note_on_c, 0, 63, 100
1, 40385, Note_off_c, 0, 63, 100
1, 40385, Note_on_c, 0, 65, 100
1, 40423, Note_off_c, 0, 65, 100
1, 40423, Note_on_c, 0, 66, 100
1, 40525, Note_off_c, 0, 66, 100
1, 40525, Note_on_c, 0, 75, 100
1, 40797, Note_off_c, 0, 75, 100
1, 40797, Note_on_c, 0, 73, 100
1, 40845, Note_off_c, 0, 73, 100
1, 40845, Note_on_c, 0, 72, 100
1, 40941, Note_off_c, 0, 72, 100
1, 40941, Note_on_c, 0, 68, 100
1, 41037, Note_off_c, 0, 68, 100
1, 41037, Note_on_c, 0, 68, 100
1, 41101, Note_off_c, 0, 68, 100
1, 41101, Note_on_c, 0, 72, 100
1, 41165, Note_off_c, 0, 72, 100
1, 41165, Note_on_c, 0, 70, 100
1, 41453, Note_off_c, 0, 70, 100
1, 41709, Note_on_c, 0, 68, 100
1, 41757, Note_off_c, 0, 68, 100
1, 41757, Note_on_c, 0, 70, 100
1, 41853, Note_off_c, 0, 70, 100
1, 41853, Note_on_c, 0, 71, 100
1, 41877, Note_off_c, 0, 71, 100
1, 41877, Note_on_c, 0, 72, 100
1, 41901, Note_off_c, 0, 72, 100
1, 41901, Note_on_c, 0, 73, 100
1, 41949, Note_off_c, 0, 73, 100
1, 41949, Note_on_c, 0, 72, 100
1, 41973, Note_off_c, 0, 72, 100
1, 41973, Note_on_c, 0, 71, 100
1, 41997, Note_off_c, 0, 71, 100
1, 41997, Note_on_c, 0, 70, 100
1, 42045, Note_off_c, 0, 70, 100
1, 42045, Note_on_c, 0, 66, 100
1, 42093, Note_off_c, 0, 66, 100
1, 42093, Note_on_c, 0, 65, 100
1, 42141, Note_off_c, 0, 65, 100
1, 42141, Note_on_c, 0, 62, 100
1, 42189, Note_off_c, 0, 62, 100
1, 42189, Note_on_c, 0, 65, 100
1, 42237, Note_off_c, 0, 65, 100
1, 42237, Note_on_c, 0, 62, 100
1, 42285, Note_off_c, 0, 62, 100
1, 42285, Note_on_c, 0, 63, 100
1, 42333, Note_off_c, 0, 63, 100
1, 42333, Note_on_c, 0, 65, 100
1, 42381, Note_off_c, 0, 65, 100
1, 42381, Note_on_c, 0, 67, 100
1, 42429, Note_off_c, 0, 67, 100
1, 42429, Note_on_c, 0, 63, 100
1, 42477, Note_off_c, 0, 63, 100
1, 42477, Note_on_c, 0, 65, 100
1, 42525, Note_off_c, 0, 65, 100
1, 42525, Note_on_c, 0, 67, 100
1, 42573, Note_off_c, 0, 67, 100
1, 42573, Note_on_c, 0, 68, 100
1, 42669, Note_off_c, 0, 68, 100
1, 42669, Note_on_c, 0, 71, 100
1, 42717, Note_off_c, 0, 71, 100
1, 42717, Note_on_c, 0, 72, 100
1, 42765, Note_off_c, 0, 72, 100
1, 42765, Note_on_c, 0, 70, 100
1, 42813, Note_off_c, 0, 70, 100
1, 42813, Note_on_c, 0, 67, 100
1, 42861, Note_off_c, 0, 67, 100
1, 42861, Note_on_c, 0, 63, 100
1, 42909, Note_off_c, 0, 63, 100
1, 42909, Note_on_c, 0, 60, 100
1, 42957, Note_off_c, 0, 60, 100
1, 42957, Note_on_c, 0, 67, 100
1, 43005, Note_off_c, 0, 67, 100
1, 43005, Note_on_c, 0, 65, 100
1, 43053, Note_off_c, 0, 65, 100
1, 43053, Note_on_c, 0, 62, 100
1, 43101, Note_off_c, 0, 62, 100
1, 43101, Note_on_c, 0, 58, 100
1, 43197, Note_off_c, 0, 58, 100
1, 43197, Note_on_c, 0, 61, 100
1, 43245, Note_off_c, 0, 61, 100
1, 43245, Note_on_c, 0, 63, 100
1, 43485, Note_off_c, 0, 63, 100
1, 43485, Note_on_c, 0, 61, 100
1, 43533, Note_off_c, 0, 61, 100
1, 43533, Note_on_c, 0, 63, 100
1, 43581, Note_off_c, 0, 63, 100
1, 43581, Note_on_c, 0, 61, 100
1, 43629, Note_off_c, 0, 61, 100
1, 43629, Note_on_c, 0, 59, 100
1, 43677, Note_off_c, 0, 59, 100
1, 43677, Note_on_c, 0, 54, 100
1, 43725, Note_off_c, 0, 54, 100
1, 43725, Note_on_c, 0, 53, 100
1, 43773, Note_off_c, 0, 53, 100
1, 43773, Note_on_c, 0, 55, 100
1, 43821, Note_off_c, 0, 55, 100
1, 43821, Note_on_c, 0, 56, 100
1, 43869, Note_off_c, 0, 56, 100
1, 43869, Note_on_c, 0, 58, 100
1, 43917, Note_off_c, 0, 58, 100
1, 43917, Note_on_c, 0, 60, 100
1, 43965, Note_off_c, 0, 60, 100
1, 43965, Note_on_c, 0, 62, 100
1, 44013, Note_off_c, 0, 62, 100
1, 44013, Note_on_c, 0, 63, 100
1, 44061, Note_off_c, 0, 63, 100
1, 44061, Note_on_c, 0, 65, 100
1, 44085, Note_off_c, 0, 65, 100
1, 44085, Note_on_c, 0, 67, 100
1, 44109, Note_off_c, 0, 67, 100
1, 44109, Note_on_c, 0, 70, 100
1, 44173, Note_off_c, 0, 70, 100
1, 44173, Note_on_c, 0, 68, 100
1, 44237, Note_off_c, 0, 68, 100
1, 44237, Note_on_c, 0, 63, 100
1, 44301, Note_off_c, 0, 63, 100
1, 44301, Note_on_c, 0, 67, 100
1, 44365, Note_off_c, 0, 67, 100
1, 44365, Note_on_c, 0, 65, 100
1, 44461, Note_off_c, 0, 65, 100
1, 44733, Note_on_c, 0, 72, 100
1, 44781, Note_off_c, 0, 72, 100
1, 44781, Note_on_c, 0, 73, 100
1, 44829, Note_off_c, 0, 73, 100
1, 44829, Note_on_c, 0, 71, 100
1, 44877, Note_off_c, 0, 71, 100
1, 44877, Note_on_c, 0, 70, 100
1, 44973, Note_off_c, 0, 70, 100
1, 44973, Note_on_c, 0, 66, 100
1, 45021, Note_off_c, 0, 66, 100
1, 45021, Note_on_c, 0, 63, 100
1, 45117, Note_off_c, 0, 63, 100
1, 45117, Note_on_c, 0, 65, 100
1, 45165, Note_off_c, 0, 65, 100
1, 45165, Note_on_c, 0, 61, 100
1, 45309, Note_off_c, 0, 61, 100
1, 45309, Note_on_c, 0, 61, 100
1, 45357, Note_off_c, 0, 61, 100
1, 45357, Note_on_c, 0, 62, 100
1, 45405, Note_off_c, 0, 62, 100
1, 45405, Note_on_c, 0, 65, 100
1, 45453, Note_off_c, 0, 65, 100
1, 45453, Note_on_c, 0, 63, 100
1, 45501, Note_off_c, 0, 63, 100
1, 45501, Note_on_c, 0, 65, 100
1, 45597, Note_off_c, 0, 65, 100
1, 45597, Note_on_c, 0, 70, 100
1, 45693, Note_off_c, 0, 70, 100
1, 45693, Note_on_c, 0, 75, 100
1, 45789, Note_off_c, 0, 75, 100
1, 45789, Note_on_c, 0, 75, 100
1, 45837, Note_off_c, 0, 75, 100
1, 45837, Note_on_c, 0, 70, 100
1, 45885, Note_off_c, 0, 70, 100
1, 45885, Note_on_c, 0, 71, 100
1, 45933, Note_off_c, 0, 71, 100
1, 45933, Note_on_c, 0, 71, 100
1, 45981, Note_off_c, 0, 71, 100
1, 45981, Note_on_c, 0, 70, 100
1, 46077, Note_off_c, 0, 70, 100
1, 46221, Note_on_c, 0, 69, 100
1, 46245, Note_off_c, 0, 69, 100
1, 46245, Note_on_c, 0, 70, 100
1, 46269, Note_off_c, 0, 70, 100
1, 46269, Note_on_c, 0, 72, 100
1, 46293, Note_off_c, 0, 72, 100
1, 46293, Note_on_c, 0, 74, 100
1, 46341, Note_off_c, 0, 74, 100
1, 46341, Note_on_c, 0, 73, 100
1, 46365, Note_off_c, 0, 73, 100
1, 46365, Note_on_c, 0, 72, 100
1, 46389, Note_off_c, 0, 72, 100
1, 46389, Note_on_c, 0, 71, 100
1, 46413, Note_off_c, 0, 71, 100
1, 46413, Note_on_c, 0, 70, 100
1, 46461, Note_off_c, 0, 70, 100
1, 46461, Note_on_c, 0, 69, 100
1, 46509, Note_off_c, 0, 69, 100
1, 46509, Note_on_c, 0, 68, 100
1, 46557, Note_off_c, 0, 68, 100
1, 46557, Note_on_c, 0, 67, 100
1, 46605, Note_off_c, 0, 67, 100
1, 46605, Note_on_c, 0, 65, 100
1, 46653, Note_off_c, 0, 65, 100
1, 46653, Note_on_c, 0, 63, 100
1, 46701, Note_off_c, 0, 63, 100
1, 46701, Note_on_c, 0, 62, 100
1, 46749, Note_off_c, 0, 62, 100
1, 46749, Note_on_c, 0, 60, 100
1, 46797, Note_off_c, 0, 60, 100
1, 46797, Note_on_c, 0, 58, 100
1, 46893, Note_off_c, 0, 58, 100
1, 46893, Note_on_c, 0, 63, 100
1, 46941, Note_off_c, 0, 63, 100
1, 46941, Note_on_c, 0, 67, 100
1, 47085, Note_off_c, 0, 67, 100
1, 47085, Note_on_c, 0, 70, 100
1, 47469, Note_off_c, 0, 70, 100
1, 47469, Note_on_c, 0, 69, 100
1, 47517, Note_off_c, 0, 69, 100
1, 47517, Note_on_c, 0, 63, 100
1, 47565, Note_off_c, 0, 63, 100
1, 47565, Note_on_c, 0, 66, 100
1, 47629, Note_off_c, 0, 66, 100
1, 47629, Note_on_c, 0, 68, 100
1, 47693, Note_off_c, 0, 68, 100
1, 47693, Note_on_c, 0, 70, 100
1, 47757, Note_off_c, 0, 70, 100
1, 47757, Note_on_c, 0, 70, 100
1, 47901, Note_off_c, 0, 70, 100
1, 47901, Note_on_c, 0, 63, 100
1, 47949, Note_off_c, 0, 63, 100
1, 47949, Note_on_c, 0, 66, 100
1, 47997, Note_off_c, 0, 66, 100
1, 47997, Note_on_c, 0, 68, 100
1, 48045, Note_off_c, 0, 68, 100
1, 48045, Note_on_c, 0, 70, 100
1, 48141, Note_off_c, 0, 70, 100
1, 48381, Note_on_c, 0, 58, 100
1, 48429, Note_off_c, 0, 58, 100
1, 48429, Note_on_c, 0, 63, 100
1, 48477, Note_off_c, 0, 63, 100
1, 48477, Note_on_c, 0, 66, 100
1, 48525, Note_off_c, 0, 66, 100
1, 48525, Note_on_c, 0, 69, 100
1, 48573, Note_off_c, 0, 69, 100
1, 48573, Note_on_c, 0, 71, 100
1, 48621, Note_off_c, 0, 71, 100
1, 48621, Note_on_c, 0, 73, 100
1, 48765, Note_off_c, 0, 73, 100
1, 48765, Note_on_c, 0, 72, 100
1, 48813, Note_off_c, 0, 72, 100
1, 48813, Note_on_c, 0, 70, 100
1, 48861, Note_off_c, 0, 70, 100
1, 48861, Note_on_c, 0, 68, 100
1, 48909, Note_off_c, 0, 68, 100
1, 48909, Note_on_c, 0, 66, 100
1, 48957, Note_off_c, 0, 66, 100
1, 48957, Note_on_c, 0, 70, 100
1, 49053, Note_off_c, 0, 70, 100
1, 49053, Note_on_c, 0, 63, 100
1, 49197, Note_off_c, 0, 63, 100
1, 49197, Note_on_c, 0, 66, 100
1, 49245, Note_off_c, 0, 66, 100
1, 49245, Note_on_c, 0, 68, 100
1, 49293, Note_off_c, 0, 68, 100
1, 49293, Note_on_c, 0, 67, 100
1, 49331, Note_off_c, 0, 67, 100
1, 49331, Note_on_c, 0, 65, 100
1, 49369, Note_off_c, 0, 65, 100
1, 49369, Note_on_c, 0, 61, 100
1, 49407, Note_off_c, 0, 61, 100
1, 49407, Note_on_c, 0, 59, 100
1, 49445, Note_off_c, 0, 59, 100
1, 49445, Note_on_c, 0, 58, 100
1, 49483, Note_off_c, 0, 58, 100
1, 49483, Note_on_c, 0, 63, 100
1, 49531, Note_off_c, 0, 63, 100
1, 49531, Note_on_c, 0, 66, 100
1, 49579, Note_off_c, 0, 66, 100
1, 49579, Note_on_c, 0, 67, 100
1, 49627, Note_off_c, 0, 67, 100
1, 49627, Note_on_c, 0, 71, 100
1, 49675, Note_off_c, 0, 71, 100
1, 49675, Note_on_c, 0, 64, 100
1, 49723, Note_off_c, 0, 64, 100
1, 49723, Note_on_c, 0, 67, 100
1, 49771, Note_off_c, 0, 67, 100
1, 49771, Note_on_c, 0, 71, 100
1, 49819, Note_off_c, 0, 71, 100
1, 49819, Note_on_c, 0, 61, 100
1, 50011, Note_off_c, 0, 61, 100
1, 50011, Note_on_c, 0, 60, 100
1, 50059, Note_off_c, 0, 60, 100
1, 50059, Note_on_c, 0, 61, 100
1, 50107, Note_off_c, 0, 61, 100
1, 50107, Note_on_c, 0, 63, 100
1, 50203, Note_off_c, 0, 63, 100
1, 50203, Note_on_c, 0, 65, 100
1, 50251, Note_off_c, 0, 65, 100
1, 50251, Note_on_c, 0, 66, 100
1, 50315, Note_off_c, 0, 66, 100
1, 50315, Note_on_c, 0, 68, 100
1, 50379, Note_off_c, 0, 68, 100
1, 50379, Note_on_c, 0, 70, 100
1, 50443, Note_off_c, 0, 70, 100
1, 50443, Note_on_c, 0, 73, 100
1, 50539, Note_off_c, 0, 73, 100
1, 50539, Note_on_c, 0, 77, 100
1, 50587, Note_off_c, 0, 77, 100
1, 50587, Note_on_c, 0, 75, 100
1, 50699, Note_off_c, 0, 75, 100
1, 50699, Note_on_c, 0, 70, 100
1, 50827, Note_off_c, 0, 70, 100
1, 50827, Note_on_c, 0, 70, 100
1, 50881, Note_off_c, 0, 70, 100
1, 50881, Note_on_c, 0, 70, 100
1, 50935, Note_off_c, 0, 70, 100
1, 50935, Note_on_c, 0, 71, 100
1, 50962, Note_off_c, 0, 71, 100
1, 50962, Note_on_c, 0, 70, 100
1, 50989, Note_off_c, 0, 70, 100
1, 50989, Note_on_c, 0, 68, 100
1, 51016, Note_off_c, 0, 68, 100
1, 51016, Note_on_c, 0, 66, 100
1, 51054, Note_off_c, 0, 66, 100
1, 51054, Note_on_c, 0, 61, 100
1, 51092, Note_off_c, 0, 61, 100
1, 51092, Note_on_c, 0, 58, 100
1, 51130, Note_off_c, 0, 58, 100
1, 51130, Note_on_c, 0, 66, 100
1, 51168, Note_off_c, 0, 66, 100
1, 51168, Note_on_c, 0, 68, 100
1, 51350, Note_off_c, 0, 68, 100
1, 51350, Note_on_c, 0, 66, 100
1, 51398, Note_off_c, 0, 66, 100
1, 51398, Note_on_c, 0, 63, 100
1, 51494, Note_off_c, 0, 63, 100
1, 51494, Note_on_c, 0, 67, 100
1, 51628, Note_off_c, 0, 67, 100
1, 51628, Note_on_c, 0, 63, 100
1, 51666, Note_off_c, 0, 63, 100
1, 51666, Note_on_c, 0, 65, 100
1, 51704, Note_off_c, 0, 65, 100
1, 51704, Note_on_c, 0, 67, 100
1, 51742, Note_off_c, 0, 67, 100
1, 51742, Note_on_c, 0, 68, 100
1, 51780, Note_off_c, 0, 68, 100
1, 51780, Note_on_c, 0, 65, 100
1, 51828, Note_off_c, 0, 65, 100
1, 51828, Note_on_c, 0, 68, 100
1, 51876, Note_off_c, 0, 68, 100
1, 51876, Note_on_c, 0, 72, 100
1, 51924, Note_off_c, 0, 72, 100
1, 51924, Note_on_c, 0, 70, 100
1, 51972, Note_off_c, 0, 70, 100
1, 51972, Note_on_c, 0, 67, 100
1, 52068, Note_off_c, 0, 67, 100
1, 52356, Note_on_c, 0, 73, 100
1, 52377, Note_off_c, 0, 73, 100
1, 52377, Note_on_c, 0, 74, 100
1, 52398, Note_off_c, 0, 74, 100
1, 52398, Note_on_c, 0, 73, 100
1, 52440, Note_off_c, 0, 73, 100
1, 52440, Note_on_c, 0, 72, 100
1, 52461, Note_off_c, 0, 72, 100
1, 52461, Note_on_c, 0, 70, 100
1, 52525, Note_off_c, 0, 70, 100
1, 52525, Note_on_c, 0, 67, 100
1, 52584, Note_off_c, 0, 67, 100
1, 52584, Note_on_c, 0, 66, 100
1, 52622, Note_off_c, 0, 66, 100
1, 52622, Note_on_c, 0, 73, 100
1, 52660, Note_off_c, 0, 73, 100
1, 52660, Note_on_c, 0, 69, 100
1, 52698, Note_off_c, 0, 69, 100
1, 52698, Note_on_c, 0, 67, 100
1, 52736, Note_off_c, 0, 67, 100
1, 52736, Note_on_c, 0, 63, 100
1, 52784, Note_off_c, 0, 63, 100
1, 52784, Note_on_c, 0, 65, 100
1, 52832, Note_off_c, 0, 65, 100
1, 52832, Note_on_c, 0, 63, 100
1, 52880, Note_off_c, 0, 63, 100
1, 52880, Note_on_c, 0, 64, 100
1, 52952, Note_off_c, 0, 64, 100
1, 52952, Note_on_c, 0, 62, 100
1, 52976, Note_off_c, 0, 62, 100
1, 52976, Note_on_c, 0, 63, 100
1, 53024, Note_off_c, 0, 63, 100
1, 53024, Note_on_c, 0, 72, 100
1, 53072, Note_off_c, 0, 72, 100
1, 53072, Note_on_c, 0, 68, 100
1, 53096, Note_off_c, 0, 68, 100
1, 53096, Note_on_c, 0, 65, 100
1, 53120, Note_off_c, 0, 65, 100
1, 53120, Note_on_c, 0, 63, 100
1, 53168, Note_off_c, 0, 63, 100
1, 53168, Note_on_c, 0, 64, 100
1, 53216, Note_off_c, 0, 64, 100
1, 53216, Note_on_c, 0, 60, 100
1, 53264, Note_off_c, 0, 60, 100
1, 53264, Note_on_c, 0, 62, 100
1, 53312, Note_off_c, 0, 62, 100
1, 53312, Note_on_c, 0, 58, 100
1, 53360, Note_off_c, 0, 58, 100
1, 53360, Note_on_c, 0, 63, 100
1, 53408, Note_off_c, 0, 63, 100
1, 53408, Note_on_c, 0, 60, 100
1, 53456, Note_off_c, 0, 60, 100
1, 53456, Note_on_c, 0, 64, 100
1, 53504, Note_off_c, 0, 64, 100
1, 53504, Note_on_c, 0, 60, 100
1, 53552, Note_off_c, 0, 60, 100
1, 53552, Note_on_c, 0, 64, 100
1, 53600, Note_off_c, 0, 64, 100
1, 53600, Note_on_c, 0, 67, 100
1, 53648, Note_off_c, 0, 67, 100
1, 53648, Note_on_c, 0, 65, 100
1, 53696, Note_off_c, 0, 65, 100
1, 53696, Note_on_c, 0, 64, 100
1, 53744, Note_off_c, 0, 64, 100
1, 53744, Note_on_c, 0, 63, 100
1, 53792, Note_off_c, 0, 63, 100
1, 53792, Note_on_c, 0, 62, 100
1, 53840, Note_off_c, 0, 62, 100
1, 53840, Note_on_c, 0, 60, 100
1, 53888, Note_off_c, 0, 60, 100
1, 53888, Note_on_c, 0, 59, 100
1, 53926, Note_off_c, 0, 59, 100
1, 53926, Note_on_c, 0, 58, 100
1, 53964, Note_off_c, 0, 58, 100
1, 53964, Note_on_c, 0, 57, 100
1, 54002, Note_off_c, 0, 57, 100
1, 54002, Note_on_c, 0, 56, 100
1, 54040, Note_off_c, 0, 56, 100
1, 54040, Note_on_c, 0, 58, 100
1, 54126, Note_off_c, 0, 58, 100
1, 54126, Note_on_c, 0, 60, 100
1, 54174, Note_off_c, 0, 60, 100
1, 54174, Note_on_c, 0, 62, 100
1, 54222, Note_off_c, 0, 62, 100
1, 54222, Note_on_c, 0, 67, 100
1, 54308, Note_off_c, 0, 67, 100
1, 54308, Note_on_c, 0, 66, 100
1, 54346, Note_off_c, 0, 66, 100
1, 54346, Note_on_c, 0, 66, 100
1, 54384, Note_off_c, 0, 66, 100
1, 54384, Note_on_c, 0, 62, 100
1, 54422, Note_off_c, 0, 62, 100
1, 54422, Note_on_c, 0, 59, 100
1, 54508, Note_off_c, 0, 59, 100
1, 54508, Note_on_c, 0, 58, 100
1, 54556, Note_off_c, 0, 58, 100
1, 54556, Note_on_c, 0, 66, 100
1, 54604, Note_off_c, 0, 66, 100
1, 54604, Note_on_c, 0, 67, 100
1, 54652, Note_off_c, 0, 67, 100
1, 54652, Note_on_c, 0, 63, 100
1, 54748, Note_off_c, 0, 63, 100
1, 54748, Note_on_c, 0, 63, 100
1, 55084, Note_off_c, 0, 63, 100
1, 55084, Note_on_c, 0, 64, 100
1, 55132, Note_off_c, 0, 64, 100
1, 55132, Note_on_c, 0, 66, 100
1, 55228, Note_off_c, 0, 66, 100
1, 55420, Note_on_c, 0, 65, 100
1, 55484, Note_off_c, 0, 65, 100
1, 55484, Note_on_c, 0, 67, 100
1, 55548, Note_off_c, 0, 67, 100
1, 55548, Note_on_c, 0, 69, 100
1, 55612, Note_off_c, 0, 69, 100
1, 55612, Note_on_c, 0, 69, 100
1, 55660, Note_off_c, 0, 69, 100
1, 55660, Note_on_c, 0, 73, 100
1, 55756, Note_off_c, 0, 73, 100
1, 55756, Note_on_c, 0, 71, 100
1, 55842, Note_off_c, 0, 71, 100
1, 55842, Note_on_c, 0, 70, 100
1, 55918, Note_off_c, 0, 70, 100
1, 55918, Note_on_c, 0, 66, 100
1, 55956, Note_off_c, 0, 66, 100
1, 55956, Note_on_c, 0, 64, 100
1, 55994, Note_off_c, 0, 64, 100
1, 55994, Note_on_c, 0, 59, 100
1, 56032, Note_off_c, 0, 59, 100
1, 56032, Note_on_c, 0, 58, 100
1, 56108, Note_off_c, 0, 58, 100
1, 56108, Note_on_c, 0, 68, 100
1, 56146, Note_off_c, 0, 68, 100
1, 56146, Note_on_c, 0, 67, 100
1, 56184, Note_off_c, 0, 67, 100
1, 56184, Note_on_c, 0, 65, 100
1, 56232, Note_off_c, 0, 65, 100
1, 56232, Note_on_c, 0, 63, 100
1, 56280, Note_off_c, 0, 63, 100
1, 56280, Note_on_c, 0, 62, 100
1, 56328, Note_off_c, 0, 62, 100
1, 56328, Note_on_c, 0, 61, 100
1, 56376, Note_off_c, 0, 61, 100
1, 56376, Note_on_c, 0, 63, 100
1, 56414, Note_off_c, 0, 63, 100
1, 56414, Note_on_c, 0, 65, 100
1, 56452, Note_off_c, 0, 65, 100
1, 56452, Note_on_c, 0, 67, 100
1, 56490, Note_off_c, 0, 67, 100
1, 56490, Note_on_c, 0, 68, 100
1, 56528, Note_off_c, 0, 68, 100
1, 56528, Note_on_c, 0, 70, 100
1, 56566, Note_off_c, 0, 70, 100
1, 56566, Note_on_c, 0, 72, 100
1, 56614, Note_off_c, 0, 72, 100
1, 56614, Note_on_c, 0, 70, 100
1, 56662, Note_off_c, 0, 70, 100
1, 56662, Note_on_c, 0, 67, 100
1, 56710, Note_off_c, 0, 67, 100
1, 56710, Note_on_c, 0, 66, 100
1, 56758, Note_off_c, 0, 66, 100
1, 56758, Note_on_c, 0, 68, 100
1, 56854, Note_off_c, 0, 68, 100
1, 56854, Note_on_c, 0, 68, 100
1, 56950, Note_off_c, 0, 68, 100
1, 56950, Note_on_c, 0, 68, 100
1, 57046, Note_off_c, 0, 68, 100
1, 57046, Note_on_c, 0, 70, 100
1, 57142, Note_off_c, 0, 70, 100
1, 57142, Note_on_c, 0, 71, 100
1, 57206, Note_off_c, 0, 71, 100
1, 57206, Note_on_c, 0, 75, 100
1, 57270, Note_off_c, 0, 75, 100
1, 57270, Note_on_c, 0, 71, 100
1, 57334, Note_off_c, 0, 71, 100
1, 57334, Note_on_c, 0, 70, 100
1, 57398, Note_off_c, 0, 70, 100
1, 57398, Note_on_c, 0, 68, 100
1, 57494, Note_off_c, 0, 68, 100
1, 57718, Note_on_c, 0, 67, 100
1, 57782, Note_off_c, 0, 67, 100
1, 57782, Note_on_c, 0, 68, 100
1, 57814, Note_off_c, 0, 68, 100
1, 57814, Note_on_c, 0, 67, 100
1, 57846, Note_off_c, 0, 67, 100
1, 57846, Note_on_c, 0, 65, 100
1, 57878, Note_off_c, 0, 65, 100
1, 57878, Note_on_c, 0, 61, 100
1, 57948, Note_off_c, 0, 61, 100
1, 57948, Note_on_c, 0, 58, 100
1, 57986, Note_off_c, 0, 58, 100
1, 57986, Note_on_c, 0, 61, 100
1, 58024, Note_off_c, 0, 61, 100
1, 58024, Note_on_c, 0, 63, 100
1, 58062, Note_off_c, 0, 63, 100
1, 58062, Note_on_c, 0, 65, 100
1, 58100, Note_off_c, 0, 65, 100
1, 58100, Note_on_c, 0, 65, 100
1, 58148, Note_off_c, 0, 65, 100
1, 58148, Note_on_c, 0, 63, 100
1, 58330, Note_off_c, 0, 63, 100
1, 58330, Note_on_c, 0, 61, 100
1, 58368, Note_off_c, 0, 61, 100
1, 58368, Note_on_c, 0, 63, 100
1, 58406, Note_off_c, 0, 63, 100
1, 58406, Note_on_c, 0, 65, 100
1, 58444, Note_off_c, 0, 65, 100
1, 58444, Note_on_c, 0, 61, 100
1, 58530, Note_off_c, 0, 61, 100
1, 58530, Note_on_c, 0, 60, 100
1, 58578, Note_off_c, 0, 60, 100
1, 58578, Note_on_c, 0, 58, 100
1, 58674, Note_off_c, 0, 58, 100
1, 58674, Note_on_c, 0, 58, 100
1, 58722, Note_off_c, 0, 58, 100
1, 58722, Note_on_c, 0, 63, 100
1, 58770, Note_off_c, 0, 63, 100
1, 58770, Note_on_c, 0, 61, 100
1, 58818, Note_off_c, 0, 61, 100
1, 58818, Note_on_c, 0, 56, 100
1, 58866, Note_off_c, 0, 56, 100
1, 58866, Note_on_c, 0, 58, 100
1, 58904, Note_off_c, 0, 58, 100
1, 58904, Note_on_c, 0, 59, 100
1, 58942, Note_off_c, 0, 59, 100
1, 58942, Note_on_c, 0, 64, 100
1, 59018, Note_off_c, 0, 64, 100
1, 59018, Note_on_c, 0, 67, 100
1, 59056, Note_off_c, 0, 67, 100
1, 59056, Note_on_c, 0, 71, 100
1, 59094, Note_off_c, 0, 71, 100
1, 59094, Note_on_c, 0, 70, 100
1, 59132, Note_off_c, 0, 70, 100
1, 59132, Note_on_c, 0, 72, 100
1, 59170, Note_off_c, 0, 72, 100
1, 59170, Note_on_c, 0, 71, 100
1, 59208, Note_off_c, 0, 71, 100
1, 59208, Note_on_c, 0, 70, 100
1, 59438, Note_off_c, 0, 70, 100
1, 59438, Note_on_c, 0, 68, 100
1, 59486, Note_off_c, 0, 68, 100
1, 59486, Note_on_c, 0, 66, 100
1, 59534, Note_off_c, 0, 66, 100
1, 59534, Note_on_c, 0, 63, 100
1, 59582, Note_off_c, 0, 63, 100
1, 59582, Note_on_c, 0, 66, 100
1, 59630, Note_off_c, 0, 66, 100
1, 59630, Note_on_c, 0, 68, 100
1, 59726, Note_off_c, 0, 68, 100
1, 59726, Note_on_c, 0, 69, 100
1, 59822, Note_off_c, 0, 69, 100
1, 59822, Note_on_c, 0, 68, 100
1, 59886, Note_off_c, 0, 68, 100
1, 59886, Note_on_c, 0, 66, 100
1, 59950, Note_off_c, 0, 66, 100
1, 59950, Note_on_c, 0, 63, 100
1, 60014, Note_off_c, 0, 63, 100
1, 60014, Note_on_c, 0, 68, 100
1, 60158, Note_off_c, 0, 68, 100
1, 60158, Note_on_c, 0, 66, 100
1, 60206, Note_off_c, 0, 66, 100
1, 60206, Note_on_c, 0, 63, 100
1, 60270, Note_off_c, 0, 63, 100
1, 60270, Note_on_c, 0, 61, 100
1, 60334, Note_off_c, 0, 61, 100
1, 60334, Note_on_c, 0, 58, 100
1, 60398, Note_off_c, 0, 58, 100
1, 60398, Note_on_c, 0, 52, 100
1, 60462, Note_off_c, 0, 52, 100
1, 60462, Note_on_c, 0, 56, 100
1, 60686, Note_off_c, 0, 56, 100
1, 60686, Note_on_c, 0, 55, 100
1, 60782, Note_off_c, 0, 55, 100
1, 60782, Note_on_c, 0, 56, 100
1, 60820, Note_off_c, 0, 56, 100
1, 60820, Note_on_c, 0, 58, 100
1, 60858, Note_off_c, 0, 58, 100
1, 60858, Note_on_c, 0, 60, 100
1, 60896, Note_off_c, 0, 60, 100
1, 60896, Note_on_c, 0, 62, 100
1, 60934, Note_off_c, 0, 62, 100
1, 60934, Note_on_c, 0, 63, 100
1, 60972, Note_off_c, 0, 63, 100
1, 60972, Note_on_c, 0, 65, 100
1, 61010, Note_off_c, 0, 65, 100
1, 61010, Note_on_c, 0, 62, 100
1, 61048, Note_off_c, 0, 62, 100
1, 61048, Note_on_c, 0, 63, 100
1, 61086, Note_off_c, 0, 63, 100
1, 61086, Note_on_c, 0, 67, 100
1, 61124, Note_off_c, 0, 67, 100
1, 61124, Note_on_c, 0, 70, 100
1, 61162, Note_off_c, 0, 70, 100
1, 61162, Note_on_c, 0, 68, 100
1, 61238, Note_off_c, 0, 68, 100
1, 61238, Note_on_c, 0, 65, 100
1, 61276, Note_off_c, 0, 65, 100
1, 61276, Note_on_c, 0, 68, 100
1, 61314, Note_off_c, 0, 68, 100
1, 61314, Note_on_c, 0, 72, 100
1, 61352, Note_off_c, 0, 72, 100
1, 61352, Note_on_c, 0, 70, 100
1, 61640, Note_off_c, 0, 70, 100
1, 61640, Note_on_c, 0, 67, 100
1, 61736, Note_off_c, 0, 67, 100
1, 61736, Note_on_c, 0, 70, 100
1, 61784, Note_off_c, 0, 70, 100
1, 61784, Note_on_c, 0, 74, 100
1, 61832, Note_off_c, 0, 74, 100
1, 61832, Note_on_c, 0, 72, 100
1, 61880, Note_off_c, 0, 72, 100
1, 61880, Note_on_c, 0, 70, 100
1, 61928, Note_off_c, 0, 70, 100
1, 61928, Note_on_c, 0, 67, 100
1, 61966, Note_off_c, 0, 67, 100
1, 61966, Note_on_c, 0, 66, 100
1, 62004, Note_off_c, 0, 66, 100
1, 62004, Note_on_c, 0, 73, 100
1, 62042, Note_off_c, 0, 73, 100
1, 62042, Note_on_c, 0, 69, 100
1, 62080, Note_off_c, 0, 69, 100
1, 62080, Note_on_c, 0, 67, 100
1, 62118, Note_off_c, 0, 67, 100
1, 62118, Note_on_c, 0, 65, 100
1, 62166, Note_off_c, 0, 65, 100
1, 62166, Note_on_c, 0, 68, 100
1, 62310, Note_off_c, 0, 68, 100
1, 62310, Note_on_c, 0, 72, 100
1, 62406, Note_off_c, 0, 72, 100
1, 62406, Note_on_c, 0, 72, 100
1, 62454, Note_off_c, 0, 72, 100
1, 62454, Note_on_c, 0, 68, 100
1, 62502, Note_off_c, 0, 68, 100
1, 62502, Note_on_c, 0, 65, 100
1, 62550, Note_off_c, 0, 65, 100
1, 62550, Note_on_c, 0, 60, 100
1, 62598, Note_off_c, 0, 60, 100
1, 62598, Note_on_c, 0, 63, 100
1, 62646, Note_off_c, 0, 63, 100
1, 62646, Note_on_c, 0, 60, 100
1, 62694, Note_off_c, 0, 60, 100
1, 62694, Note_on_c, 0, 62, 100
1, 62790, Note_off_c, 0, 62, 100
1, 63078, Note_on_c, 0, 72, 100
1, 63174, Note_off_c, 0, 72, 100
1, 63174, Note_on_c, 0, 73, 100
1, 63334, Note_off_c, 0, 73, 100
1, 63334, Note_on_c, 0, 70, 100
1, 63398, Note_off_c, 0, 70, 100
1, 63398, Note_on_c, 0, 68, 100
1, 63462, Note_off_c, 0, 68, 100
1, 63462, Note_on_c, 0, 66, 100
1, 63510, Note_off_c, 0, 66, 100
1, 63510, Note_on_c, 0, 63, 100
1, 63558, Note_off_c, 0, 63, 100
1, 63558, Note_on_c, 0, 66, 100
1, 63606, Note_off_c, 0, 66, 100
1, 63606, Note_on_c, 0, 68, 100
1, 63654, Note_off_c, 0, 68, 100
1, 63654, Note_on_c, 0, 63, 100
1, 63782, Note_off_c, 0, 63, 100
1, 63782, Note_on_c, 0, 63, 100
1, 64102, Note_off_c, 0, 63, 100
1, 64102, Note_on_c, 0, 61, 100
1, 64166, Note_off_c, 0, 61, 100
1, 64166, Note_on_c, 0, 63, 100
1, 64230, Note_off_c, 0, 63, 100
1, 64230, Note_on_c, 0, 65, 100
1, 64278, Note_off_c, 0, 65, 100
1, 64278, Note_on_c, 0, 61, 100
1, 64374, Note_off_c, 0, 61, 100
1, 64614, Note_on_c, 0, 60, 100
1, 64710, Note_off_c, 0, 60, 100
1, 64710, Note_on_c, 0, 62, 100
1, 64758, Note_off_c, 0, 62, 100
1, 64758, Note_on_c, 0, 63, 100
1, 64806, Note_off_c, 0, 63, 100
1, 64806, Note_on_c, 0, 60, 100
1, 64844, Note_off_c, 0, 60, 100
1, 64844, Note_on_c, 0, 66, 100
1, 64882, Note_off_c, 0, 66, 100
1, 64882, Note_on_c, 0, 67, 100
1, 64920, Note_off_c, 0, 67, 100
1, 64920, Note_on_c, 0, 66, 100
1, 64958, Note_off_c, 0, 66, 100
1, 64958, Note_on_c, 0, 62, 100
1, 64996, Note_off_c, 0, 62, 100
1, 64996, Note_on_c, 0, 60, 100
1, 65044, Note_off_c, 0, 60, 100
1, 65044, Note_on_c, 0, 58, 100
1, 65092, Note_off_c, 0, 58, 100
1, 65092, Note_on_c, 0, 56, 100
1, 65252, Note_off_c, 0, 56, 100
1, 65252, Note_on_c, 0, 55, 100
1, 65524, Note_off_c, 0, 55, 100
1, 65524, Note_on_c, 0, 58, 100
1, 65572, Note_off_c, 0, 58, 100
1, 65572, Note_on_c, 0, 63, 100
1, 65668, Note_off_c, 0, 63, 100
1, 65956, Note_on_c, 0, 56, 100
1, 66148, Note_off_c, 0, 56, 100
1, 66148, Note_on_c, 0, 60, 100
1, 66244, Note_off_c, 0, 60, 100
1, 66244, Note_on_c, 0, 62, 100
1, 66292, Note_off_c, 0, 62, 100
1, 66292, Note_on_c, 0, 63, 100
1, 66628, Note_off_c, 0, 63, 100
1, 66628, Note_on_c, 0, 51, 100
1, 66724, Note_off_c, 0, 51, 100
1, 66724, Note_on_c, 0, 55, 100
1, 66820, Note_off_c, 0, 55, 100
1, 66820, Note_on_c, 0, 58, 100
1, 66868, Note_off_c, 0, 58, 100
1, 66868, Note_on_c, 0, 63, 100
1, 66980, Note_off_c, 0, 63, 100
1, 66980, Note_on_c, 0, 63, 100
1, 67108, Note_off_c, 0, 63, 100
1, 67108, Note_on_c, 0, 63, 100
1, 67396, Note_off_c, 0, 63, 100
1, 67396, Note_on_c, 0, 61, 100
1, 67444, Note_off_c, 0, 61, 100
1, 67444, Note_on_c, 0, 63, 100
1, 67492, Note_off_c, 0, 63, 100
1, 67492, Note_on_c, 0, 65, 100
1, 67540, Note_off_c, 0, 65, 100
1, 67540, Note_on_c, 0, 61, 100
1, 67588, Note_off_c, 0, 61, 100
1, 67588, Note_on_c, 0, 60, 100
1, 67636, Note_off_c, 0, 60, 100
1, 67636, Note_on_c, 0, 58, 100
1, 67684, Note_off_c, 0, 58, 100
1, 67684, Note_on_c, 0, 63, 100
1, 67972, Note_off_c, 0, 63, 100
1, 67972, Note_on_c, 0, 67, 100
1, 68068, Note_off_c, 0, 67, 100
1, 68068, Note_on_c, 0, 65, 100
1, 68116, Note_off_c, 0, 65, 100
1, 68116, Note_on_c, 0, 63, 100
1, 68164, Note_off_c, 0, 63, 100
1, 68164, Note_on_c, 0, 61, 100
1, 68212, Note_off_c, 0, 61, 100
1, 68212, Note_on_c, 0, 60, 100
1, 68260, Note_off_c, 0, 60, 100
1, 68260, Note_on_c, 0, 58, 100
1, 68356, Note_off_c, 0, 58, 100
1, 68356, Note_on_c, 0, 56, 100
1, 68452, Note_off_c, 0, 56, 100
1, 68452, Note_on_c, 0, 58, 100
1, 68548, Note_off_c, 0, 58, 100
1, 68548, Note_on_c, 0, 60, 100
1, 68644, Note_off_c, 0, 60, 100
1, 68644, Note_on_c, 0, 60, 100
1, 68692, Note_off_c, 0, 60, 100
1, 68692, Note_on_c, 0, 63, 100
1, 68740, Note_off_c, 0, 63, 100
1, 68740, Note_on_c, 0, 60, 100
1, 68788, Note_off_c, 0, 60, 100
1, 68788, Note_on_c, 0, 63, 100
1, 68836, Note_off_c, 0, 63, 100
1, 68836, Note_on_c, 0, 66, 100
1, 68884, Note_off_c, 0, 66, 100
1, 68884, Note_on_c, 0, 63, 100
1, 68932, Note_off_c, 0, 63, 100
1, 68932, Note_on_c, 0, 66, 100
1, 69028, Note_off_c, 0, 66, 100
1, 69028, Note_on_c, 0, 69, 100
1, 69124, Note_off_c, 0, 69, 100
1, 69124, Note_on_c, 0, 70, 100
1, 69268, Note_off_c, 0, 70, 100
1, 69268, Note_on_c, 0, 68, 100
1, 69316, Note_off_c, 0, 68, 100
1, 69316, Note_on_c, 0, 63, 100
1, 69364, Note_off_c, 0, 63, 100
1, 69364, Note_on_c, 0, 66, 100
1, 69412, Note_off_c, 0, 66, 100
1, 69412, Note_on_c, 0, 68, 100
1, 69508, Note_off_c, 0, 68, 100
1, 69508, Note_on_c, 0, 70, 100
1, 69604, Note_off_c, 0, 70, 100
1, 69860, Note_on_c, 0, 58, 100
1, 69924, Note_off_c, 0, 58, 100
1, 69924, Note_on_c, 0, 55, 100
1, 69988, Note_off_c, 0, 55, 100
1, 69988, Note_on_c, 0, 58, 100
1, 70026, Note_off_c, 0, 58, 100
1, 70026, Note_on_c, 0, 62, 100
1, 70064, Note_off_c, 0, 62, 100
1, 70064, Note_on_c, 0, 58, 100
1, 70102, Note_off_c, 0, 58, 100
1, 70102, Note_on_c, 0, 62, 100
1, 70140, Note_off_c, 0, 62, 100
1, 70140, Note_on_c, 0, 65, 100
1, 70226, Note_off_c, 0, 65, 100
1, 70226, Note_on_c, 0, 62, 100
1, 70274, Note_off_c, 0, 62, 100
1, 70274, Note_on_c, 0, 65, 100
1, 70322, Note_off_c, 0, 65, 100
1, 70322, Note_on_c, 0, 70, 100
1, 70370, Note_off_c, 0, 70, 100
1, 70370, Note_on_c, 0, 74, 100
1, 70466, Note_off_c, 0, 74, 100
1, 70466, Note_on_c, 0, 72, 100
1, 70658, Note_off_c, 0, 72, 100
1, 70658, Note_on_c, 0, 54, 100
1, 70706, Note_off_c, 0, 54, 100
1, 70706, Note_on_c, 0, 57, 100
1, 70754, Note_off_c, 0, 57, 100
1, 70754, Note_on_c, 0, 61, 100
1, 70792, Note_off_c, 0, 61, 100
1, 70792, Note_on_c, 0, 64, 100
1, 70830, Note_off_c, 0, 64, 100
1, 70830, Note_on_c, 0, 68, 100
1, 70868, Note_off_c, 0, 68, 100
1, 70868, Note_on_c, 0, 71, 100
1, 70906, Note_off_c, 0, 71, 100
1, 70906, Note_on_c, 0, 73, 100
1, 71040, Note_off_c, 0, 73, 100
1, 71040, Note_on_c, 0, 71, 100
1, 71088, Note_off_c, 0, 71, 100
1, 71088, Note_on_c, 0, 69, 100
1, 71136, Note_off_c, 0, 69, 100
1, 71136, Note_on_c, 0, 66, 100
1, 71232, Note_off_c, 0, 66, 100
1, 71232, Note_on_c, 0, 61, 100
1, 71404, Note_off_c, 0, 61, 100
1, 71404, Note_on_c, 0, 53, 100
1, 71442, Note_off_c, 0, 53, 100
1, 71442, Note_on_c, 0, 55, 100
1, 71480, Note_off_c, 0, 55, 100
1, 71480, Note_on_c, 0, 60, 100
1, 71518, Note_off_c, 0, 60, 100
1, 71518, Note_on_c, 0, 63, 100
1, 71566, Note_off_c, 0, 63, 100
1, 71566, Note_on_c, 0, 67, 100
1, 71614, Note_off_c, 0, 67, 100
1, 71614, Note_on_c, 0, 70, 100
1, 71662, Note_off_c, 0, 70, 100
1, 71662, Note_on_c, 0, 75, 100
1, 71758, Note_off_c, 0, 75, 100
1, 71758, Note_on_c, 0, 72, 100
1, 71806, Note_off_c, 0, 72, 100
1, 71806, Note_on_c, 0, 68, 100
1, 71854, Note_off_c, 0, 68, 100
1, 71854, Note_on_c, 0, 65, 100
1, 72094, Note_off_c, 0, 65, 100
1, 72094, Note_on_c, 0, 61, 100
1, 72142, Note_off_c, 0, 61, 100
1, 72142, Note_on_c, 0, 63, 100
1, 72190, Note_off_c, 0, 63, 100
1, 72190, Note_on_c, 0, 67, 100
1, 72238, Note_off_c, 0, 67, 100
1, 72238, Note_on_c, 0, 70, 100
1, 72286, Note_off_c, 0, 70, 100
1, 72286, Note_on_c, 0, 75, 100
1, 72478, Note_off_c, 0, 75, 100
1, 72478, Note_on_c, 0, 73, 100
1, 72542, Note_off_c, 0, 73, 100
1, 72542, Note_on_c, 0, 71, 100
1, 72606, Note_off_c, 0, 71, 100
1, 72606, Note_on_c, 0, 68, 100
1, 72670, Note_off_c, 0, 68, 100
1, 72670, Note_on_c, 0, 64, 100
1, 72734, Note_off_c, 0, 64, 100
1, 72734, Note_on_c, 0, 66, 100
1, 72766, Note_off_c, 0, 66, 100
1, 72766, Note_on_c, 0, 68, 100
1, 72798, Note_off_c, 0, 68, 100
1, 72798, Note_on_c, 0, 71, 100
1, 72830, Note_off_c, 0, 71, 100
1, 72830, Note_on_c, 0, 70, 100
1, 72910, Note_off_c, 0, 70, 100
1, 72910, Note_on_c, 0, 68, 100
1, 72958, Note_off_c, 0, 68, 100
1, 72958, Note_on_c, 0, 67, 100
1, 73054, Note_off_c, 0, 67, 100
1, 73054, Note_on_c, 0, 63, 100
1, 73150, Note_off_c, 0, 63, 100
1, 73150, Note_on_c, 0, 63, 100
1, 73246, Note_off_c, 0, 63, 100
1, 73246, Note_on_c, 0, 63, 100
1, 73534, Note_off_c, 0, 63, 100
1, 73534, Note_on_c, 0, 60, 100
1, 73582, Note_off_c, 0, 60, 100
1, 73582, Note_on_c, 0, 63, 100
1, 73630, Note_off_c, 0, 63, 100
1, 73630, Note_on_c, 0, 67, 100
1, 73678, Note_off_c, 0, 67, 100
1, 73678, Note_on_c, 0, 68, 100
1, 73726, Note_off_c, 0, 68, 100
1, 73726, Note_on_c, 0, 64, 100
1, 73774, Note_off_c, 0, 64, 100
1, 73774, Note_on_c, 0, 67, 100
1, 73822, Note_off_c, 0, 67, 100
1, 73822, Note_on_c, 0, 65, 100
1, 73870, Note_off_c, 0, 65, 100
1, 73870, Note_on_c, 0, 64, 100
1, 73918, Note_off_c, 0, 64, 100
1, 73918, Note_on_c, 0, 63, 100
1, 73966, Note_off_c, 0, 63, 100
1, 73966, Note_on_c, 0, 62, 100
1, 74014, Note_off_c, 0, 62, 100
1, 74014, Note_on_c, 0, 60, 100
1, 74078, Note_off_c, 0, 60, 100
1, 74078, Note_on_c, 0, 59, 100
1, 74142, Note_off_c, 0, 59, 100
1, 74142, Note_on_c, 0, 58, 100
1, 74206, Note_off_c, 0, 58, 100
1, 74206, Note_on_c, 0, 57, 100
1, 74244, Note_off_c, 0, 57, 100
1, 74244, Note_on_c, 0, 56, 100
1, 74282, Note_off_c, 0, 56, 100
1, 74282, Note_on_c, 0, 57, 100
1, 74320, Note_off_c, 0, 57, 100
1, 74320, Note_on_c, 0, 60, 100
1, 74358, Note_off_c, 0, 60, 100
1, 74358, Note_on_c, 0, 62, 100
1, 74396, Note_off_c, 0, 62, 100
1, 74396, Note_on_c, 0, 63, 100
1, 74503, Note_off_c, 0, 63, 100
1, 74503, End_track
0, 0, End_of_file
