0, 0, Header, 1, 1, 192
1, 0, Start_track
1, 0, Title_t, "Melody"
1, 0, Tempo, 174418
1, 0, Key_signature, -2, "major"
1, 0, Time_signature, 4, 2, 24, 8
1, 0, Note_on_c, 0, 64, 100
1, 96, Note_off_c, 0, 64, 100
1, 96, Note_on_c, 0, 66, 100
1, 192, Note_off_c, 0, 66, 100
1, 192, Note_on_c, 0, 67, 100
1, 288, Note_off_c, 0, 67, 100
1, 288, Note_on_c, 0, 69, 100
1, 384, Note_off_c, 0, 69, 100
1, 384, Note_on_c, 0, 65, 100
1, 480, Note_off_c, 0, 65, 100
1, 480, Note_on_c, 0, 64, 100
1, 576, Note_off_c, 0, 64, 100
1, 576, Note_on_c, 0, 63, 100
1, 672, Note_off_c, 0, 63, 100
1, 672, Note_on_c, 0, 65, 100
1, 768, Note_off_c, 0, 65, 100
1, 768, Note_on_c, 0, 62, 100
1, 864, Note_off_c, 0, 62, 100
1, 864, Note_on_c, 0, 60, 100
1, 960, Note_off_c, 0, 60, 100
1, 960, Note_on_c, 0, 58, 100
1, 1008, Note_off_c, 0, 58, 100
1, 1008, Note_on_c, 0, 55, 100
1, 1104, Note_off_c, 0, 55, 100
1, 1104, Note_on_c, 0, 63, 100
1, 1216, Note_off_c, 0, 63, 100
1, 1216, Note_on_c, 0, 59, 100
1, 1280, Note_off_c, 0, 59, 100
1, 1280, Note_on_c, 0, 56, 100
1, 1440, Note_off_c, 0, 56, 100
1, 1440, Note_on_c, 0, 61, 100
1, 1536, Note_off_c, 0, 61, 100
1, 1536, Note_on_c, 0, 58, 100
1, 1632, Note_off_c, 0, 58, 100
1, 1632, Note_on_c, 0, 54, 100
1, 1728, Note_off_c, 0, 54, 100
1, 1728, Note_on_c, 0, 55, 100
1, 1824, Note_off_c, 0, 55, 100
1, 1824, Note_on_c, 0, 58, 100
1, 1920, Note_off_c, 0, 58, 100
1, 1920, Note_on_c, 0, 57, 100
1, 2016, Note_off_c, 0, 57, 100
1, 2016, Note_on_c, 0, 56, 100
1, 2112, Note_off_c, 0, 56, 100
1, 2112, Note_on_c, 0, 55, 100
1, 2240, Note_off_c, 0, 55, 100
1, 2240, Note_on_c, 0, 59, 100
1, 2304, Note_off_c, 0, 59, 100
1, 2304, Note_on_c, 0, 57, 100
1, 2400, Note_off_c, 0, 57, 100
1, 2400, Note_on_c, 0, 54, 100
1, 2496, Note_off_c, 0, 54, 100
1, 2496, Note_on_c, 0, 52, 100
1, 2544, Note_off_c, 0, 52, 100
1, 2544, Note_on_c, 0, 50, 100
1, 2640, Note_off_c, 0, 50, 100
1, 2640, Note_on_c, 0, 54, 100
1, 2688, Note_off_c, 0, 54, 100
1, 2688, Note_on_c, 0, 55, 100
1, 2880, Note_off_c, 0, 55, 100
1, 2880, Note_on_c, 0, 57, 100
1, 2976, Note_off_c, 0, 57, 100
1, 2976, Note_on_c, 0, 59, 100
1, 3072, Note_off_c, 0, 59, 100
1, 3072, Note_on_c, 0, 50, 100
1, 3168, Note_off_c, 0, 50, 100
1, 3168, Note_on_c, 0, 52, 100
1, 3264, Note_off_c, 0, 52, 100
1, 3264, Note_on_c, 0, 53, 100
1, 3360, Note_off_c, 0, 53, 100
1, 3360, Note_on_c, 0, 55, 100
1, 3456, Note_off_c, 0, 55, 100
1, 3456, Note_on_c, 0, 51, 100
1, 3504, Note_off_c, 0, 51, 100
1, 3504, Note_on_c, 0, 50, 100
1, 3600, Note_off_c, 0, 50, 100
1, 3600, Note_on_c, 0, 49, 100
1, 3712, Note_off_c, 0, 49, 100
1, 3712, Note_on_c, 0, 51, 100
1, 3840, Note_off_c, 0, 51, 100
1, 3840, Note_on_c, 0, 48, 100
1, 3904, Note_off_c, 0, 48, 100
1, 3904, Note_on_c, 0, 51, 100
1, 3968, Note_off_c, 0, 51, 100
1, 3968, Note_on_c, 0, 56, 100
1, 4080, Note_off_c, 0, 56, 100
1, 4080, Note_on_c, 0, 60, 100
1, 4176, Note_off_c, 0, 60, 100
1, 4176, Note_on_c, 0, 59, 100
1, 4224, Note_off_c, 0, 59, 100
1, 4224, Note_on_c, 0, 61, 100
1, 4416, Note_off_c, 0, 61, 100
1, 4416, Note_on_c, 0, 63, 100
1, 4512, Note_off_c, 0, 63, 100
1, 4512, Note_on_c, 0, 66, 100
1, 4608, Note_off_c, 0, 66, 100
1, 4608, Note_on_c, 0, 64, 100
1, 4704, Note_off_c, 0, 64, 100
1, 4704, Note_on_c, 0, 66, 100
1, 4800, Note_off_c, 0, 66, 100
1, 4800, Note_on_c, 0, 68, 100
1, 4896, Note_off_c, 0, 68, 100
1, 4896, Note_on_c, 0, 71, 100
1, 4992, Note_off_c, 0, 71, 100
1, 4992, Note_on_c, 0, 67, 100
1, 5088, Note_off_c, 0, 67, 100
1, 5088, Note_on_c, 0, 64, 100
1, 5232, Note_off_c, 0, 64, 100
1, 5232, Note_on_c, 0, 62, 100
1, 5328, Note_off_c, 0, 62, 100
1, 5328, Note_on_c, 0, 60, 100
1, 5472, Note_off_c, 0, 60, 100
1, 5472, Note_on_c, 0, 62, 100
1, 5568, Note_off_c, 0, 62, 100
1, 5568, Note_on_c, 0, 64, 100
1, 5664, Note_off_c, 0, 64, 100
1, 5664, Note_on_c, 0, 67, 100
1, 5760, Note_off_c, 0, 67, 100
1, 5760, Note_on_c, 0, 72, 100
1, 5856, Note_off_c, 0, 72, 100
1, 5856, Note_on_c, 0, 60, 100
1, 6048, Note_off_c, 0, 60, 100
1, 6336, Note_on_c, 0, 67, 100
1, 6432, Note_off_c, 0, 67, 100
1, 6432, Note_on_c, 0, 65, 100
1, 6528, Note_off_c, 0, 65, 100
1, 6528, Note_on_c, 0, 63, 100
1, 6624, Note_off_c, 0, 63, 100
1, 6624, Note_on_c, 0, 59, 100
1, 6720, Note_off_c, 0, 59, 100
1, 6720, Note_on_c, 0, 56, 100
1, 6848, Note_off_c, 0, 56, 100
1, 6848, Note_on_c, 0, 61, 100
1, 6912, Note_off_c, 0, 61, 100
1, 6912, Note_on_c, 0, 58, 100
1, 7008, Note_off_c, 0, 58, 100
1, 7008, Note_on_c, 0, 61, 100
1, 7104, Note_off_c, 0, 61, 100
1, 7104, Note_on_c, 0, 65, 100
1, 7152, Note_off_c, 0, 65, 100
1, 7152, Note_on_c, 0, 66, 100
1, 7200, Note_off_c, 0, 66, 100
1, 7200, Note_on_c, 0, 70, 100
1, 7296, Note_off_c, 0, 70, 100
1, 7296, Note_on_c, 0, 69, 100
1, 7392, Note_off_c, 0, 69, 100
1, 7392, Note_on_c, 0, 68, 100
1, 7488, Note_off_c, 0, 68, 100
1, 7488, Note_on_c, 0, 67, 100
1, 7584, Note_off_c, 0, 67, 100
1, 7584, Note_on_c, 0, 71, 100
1, 7680, Note_off_c, 0, 71, 100
1, 7680, Note_on_c, 0, 69, 100
1, 7728, Note_off_c, 0, 69, 100
1, 7728, Note_on_c, 0, 66, 100
1, 7824, Note_off_c, 0, 66, 100
1, 7824, Note_on_c, 0, 64, 100
1, 7920, Note_off_c, 0, 64, 100
1, 7920, Note_on_c, 0, 62, 100
1, 8016, Note_off_c, 0, 62, 100
1, 8016, Note_on_c, 0, 65, 100
1, 8208, Note_off_c, 0, 65, 100
1, 8208, Note_on_c, 0, 69, 100
1, 8352, Note_off_c, 0, 69, 100
1, 8352, Note_on_c, 0, 67, 100
1, 8448, Note_off_c, 0, 67, 100
1, 8448, Note_on_c, 0, 65, 100
1, 8544, Note_off_c, 0, 65, 100
1, 8544, Note_on_c, 0, 63, 100
1, 8640, Note_off_c, 0, 63, 100
1, 8640, Note_on_c, 0, 62, 100
1, 8736, Note_off_c, 0, 62, 100
1, 8736, Note_on_c, 0, 60, 100
1, 8832, Note_off_c, 0, 60, 100
1, 8832, Note_on_c, 0, 58, 100
1, 8928, Note_off_c, 0, 58, 100
1, 8928, Note_on_c, 0, 60, 100
1, 9088, Note_off_c, 0, 60, 100
1, 9088, Note_on_c, 0, 62, 100
1, 9152, Note_off_c, 0, 62, 100
1, 9152, Note_on_c, 0, 65, 100
1, 9216, Note_off_c, 0, 65, 100
1, 9216, Note_on_c, 0, 69, 100
1, 9408, Note_off_c, 0, 69, 100
1, 9408, Note_on_c, 0, 72, 100
1, 9696, Note_off_c, 0, 72, 100
1, 9696, Note_on_c, 0, 69, 100
1, 9888, Note_off_c, 0, 69, 100
1, 9888, Note_on_c, 0, 72, 100
1, 9984, Note_off_c, 0, 72, 100
1, 9984, Note_on_c, 0, 69, 100
1, 10272, Note_off_c, 0, 69, 100
1, 10272, Note_on_c, 0, 72, 100
1, 10368, Note_off_c, 0, 72, 100
1, 10368, Note_on_c, 0, 69, 100
1, 10656, Note_off_c, 0, 69, 100
1, 10656, Note_on_c, 0, 67, 100
1, 10752, Note_off_c, 0, 67, 100
1, 10752, Note_on_c, 0, 65, 100
1, 10848, Note_off_c, 0, 65, 100
1, 10848, Note_on_c, 0, 62, 100
1, 11040, Note_off_c, 0, 62, 100
1, 11520, Note_on_c, 0, 68, 100
1, 11616, Note_off_c, 0, 68, 100
1, 11616, Note_on_c, 0, 70, 100
1, 11808, Note_off_c, 0, 70, 100
1, 11808, Note_on_c, 0, 67, 100
1, 11904, Note_off_c, 0, 67, 100
1, 11904, Note_on_c, 0, 65, 100
1, 12000, Note_off_c, 0, 65, 100
1, 12000, Note_on_c, 0, 61, 100
1, 12096, Note_off_c, 0, 61, 100
1, 12096, Note_on_c, 0, 58, 100
1, 12192, Note_off_c, 0, 58, 100
1, 12192, Note_on_c, 0, 55, 100
1, 12288, Note_off_c, 0, 55, 100
1, 12288, Note_on_c, 0, 64, 100
1, 12384, Note_off_c, 0, 64, 100
1, 12384, Note_on_c, 0, 67, 100
1, 12576, Note_off_c, 0, 67, 100
1, 12576, Note_on_c, 0, 69, 100
1, 12672, Note_off_c, 0, 69, 100
1, 12672, Note_on_c, 0, 65, 100
1, 12768, Note_off_c, 0, 65, 100
1, 12768, Note_on_c, 0, 64, 100
1, 12864, Note_off_c, 0, 64, 100
1, 12864, Note_on_c, 0, 63, 100
1, 12960, Note_off_c, 0, 63, 100
1, 12960, Note_on_c, 0, 65, 100
1, 13056, Note_off_c, 0, 65, 100
1, 13056, Note_on_c, 0, 62, 100
1, 13152, Note_off_c, 0, 62, 100
1, 13440, Note_on_c, 0, 62, 100
1, 13536, Note_off_c, 0, 62, 100
1, 13536, Note_on_c, 0, 59, 100
1, 13632, Note_off_c, 0, 59, 100
1, 13632, Note_on_c, 0, 56, 100
1, 13728, Note_off_c, 0, 56, 100
1, 13728, Note_on_c, 0, 61, 100
1, 13872, Note_off_c, 0, 61, 100
1, 13872, Note_on_c, 0, 58, 100
1, 13968, Note_off_c, 0, 58, 100
1, 13968, Note_on_c, 0, 54, 100
1, 14080, Note_off_c, 0, 54, 100
1, 14080, Note_on_c, 0, 55, 100
1, 14144, Note_off_c, 0, 55, 100
1, 14144, Note_on_c, 0, 58, 100
1, 14208, Note_off_c, 0, 58, 100
1, 14208, Note_on_c, 0, 57, 100
1, 14304, Note_off_c, 0, 57, 100
1, 14304, Note_on_c, 0, 56, 100
1, 14400, Note_off_c, 0, 56, 100
1, 14400, Note_on_c, 0, 55, 100
1, 14496, Note_off_c, 0, 55, 100
1, 14496, Note_on_c, 0, 59, 100
1, 14592, Note_off_c, 0, 59, 100
1, 14592, Note_on_c, 0, 57, 100
1, 14688, Note_off_c, 0, 57, 100
1, 14688, Note_on_c, 0, 56, 100
1, 14736, Note_off_c, 0, 56, 100
1, 14736, Note_on_c, 0, 54, 100
1, 14784, Note_off_c, 0, 54, 100
1, 14784, Note_on_c, 0, 52, 100
1, 14832, Note_off_c, 0, 52, 100
1, 14832, Note_on_c, 0, 50, 100
1, 14928, Note_off_c, 0, 50, 100
1, 14928, Note_on_c, 0, 54, 100
1, 15024, Note_off_c, 0, 54, 100
1, 15024, Note_on_c, 0, 55, 100
1, 15120, Note_off_c, 0, 55, 100
1, 15120, Note_on_c, 0, 57, 100
1, 15216, Note_off_c, 0, 57, 100
1, 15552, Note_on_c, 0, 49, 100
1, 15648, Note_off_c, 0, 49, 100
1, 15648, Note_on_c, 0, 54, 100
1, 15744, Note_off_c, 0, 54, 100
1, 15744, Note_on_c, 0, 51, 100
1, 15840, Note_off_c, 0, 51, 100
1, 15840, Note_on_c, 0, 50, 100
1, 15936, Note_off_c, 0, 50, 100
1, 15936, Note_on_c, 0, 49, 100
1, 16032, Note_off_c, 0, 49, 100
1, 16032, Note_on_c, 0, 51, 100
1, 16128, Note_off_c, 0, 51, 100
1, 16128, Note_on_c, 0, 48, 100
1, 16224, Note_off_c, 0, 48, 100
1, 16224, Note_on_c, 0, 51, 100
1, 16320, Note_off_c, 0, 51, 100
1, 16320, Note_on_c, 0, 56, 100
1, 16416, Note_off_c, 0, 56, 100
1, 16416, Note_on_c, 0, 60, 100
1, 16512, Note_off_c, 0, 60, 100
1, 16512, Note_on_c, 0, 59, 100
1, 16608, Note_off_c, 0, 59, 100
1, 16608, Note_on_c, 0, 61, 100
1, 16704, Note_off_c, 0, 61, 100
1, 16704, Note_on_c, 0, 63, 100
1, 16800, Note_off_c, 0, 63, 100
1, 16800, Note_on_c, 0, 66, 100
1, 16896, Note_off_c, 0, 66, 100
1, 16896, Note_on_c, 0, 64, 100
1, 16992, Note_off_c, 0, 64, 100
1, 16992, Note_on_c, 0, 66, 100
1, 17088, Note_off_c, 0, 66, 100
1, 17088, Note_on_c, 0, 68, 100
1, 17184, Note_off_c, 0, 68, 100
1, 17184, Note_on_c, 0, 71, 100
1, 17280, Note_off_c, 0, 71, 100
1, 17280, Note_on_c, 0, 67, 100
1, 17376, Note_off_c, 0, 67, 100
1, 17376, Note_on_c, 0, 65, 100
1, 17472, Note_off_c, 0, 65, 100
1, 17472, Note_on_c, 0, 64, 100
1, 17568, Note_off_c, 0, 64, 100
1, 17568, Note_on_c, 0, 62, 100
1, 17664, Note_off_c, 0, 62, 100
1, 17664, Note_on_c, 0, 60, 100
1, 17760, Note_off_c, 0, 60, 100
1, 17760, Note_on_c, 0, 62, 100
1, 17856, Note_off_c, 0, 62, 100
1, 17856, Note_on_c, 0, 64, 100
1, 17952, Note_off_c, 0, 64, 100
1, 17952, Note_on_c, 0, 67, 100
1, 18048, Note_off_c, 0, 67, 100
1, 18048, Note_on_c, 0, 72, 100
1, 18144, Note_off_c, 0, 72, 100
1, 18144, Note_on_c, 0, 72, 100
1, 18240, Note_off_c, 0, 72, 100
1, 18528, Note_on_c, 0, 60, 100
1, 18624, Note_off_c, 0, 60, 100
1, 18624, Note_on_c, 0, 63, 100
1, 18720, Note_off_c, 0, 63, 100
1, 18720, Note_on_c, 0, 67, 100
1, 18768, Note_off_c, 0, 67, 100
1, 18768, Note_on_c, 0, 66, 100
1, 18816, Note_off_c, 0, 66, 100
1, 18816, Note_on_c, 0, 63, 100
1, 18912, Note_off_c, 0, 63, 100
1, 18912, Note_on_c, 0, 59, 100
1, 19008, Note_off_c, 0, 59, 100
1, 19008, Note_on_c, 0, 56, 100
1, 19136, Note_off_c, 0, 56, 100
1, 19136, Note_on_c, 0, 61, 100
1, 19200, Note_off_c, 0, 61, 100
1, 19200, Note_on_c, 0, 58, 100
1, 19296, Note_off_c, 0, 58, 100
1, 19296, Note_on_c, 0, 61, 100
1, 19456, Note_off_c, 0, 61, 100
1, 19456, Note_on_c, 0, 66, 100
1, 19520, Note_off_c, 0, 66, 100
1, 19520, Note_on_c, 0, 69, 100
1, 19584, Note_off_c, 0, 69, 100
1, 19584, Note_on_c, 0, 70, 100
1, 19648, Note_off_c, 0, 70, 100
1, 19648, Note_on_c, 0, 69, 100
1, 19712, Note_off_c, 0, 69, 100
1, 19712, Note_on_c, 0, 68, 100
1, 19824, Note_off_c, 0, 68, 100
1, 19824, Note_on_c, 0, 67, 100
1, 19920, Note_off_c, 0, 67, 100
1, 19920, Note_on_c, 0, 71, 100
1, 19968, Note_off_c, 0, 71, 100
1, 19968, Note_on_c, 0, 69, 100
1, 20064, Note_off_c, 0, 69, 100
1, 20064, Note_on_c, 0, 66, 100
1, 20160, Note_off_c, 0, 66, 100
1, 20160, Note_on_c, 0, 64, 100
1, 20256, Note_off_c, 0, 64, 100
1, 20256, Note_on_c, 0, 62, 100
1, 20352, Note_off_c, 0, 62, 100
1, 20352, Note_on_c, 0, 65, 100
1, 20544, Note_off_c, 0, 65, 100
1, 20544, Note_on_c, 0, 69, 100
1, 20672, Note_off_c, 0, 69, 100
1, 20672, Note_on_c, 0, 67, 100
1, 20736, Note_off_c, 0, 67, 100
1, 20736, Note_on_c, 0, 65, 100
1, 20832, Note_off_c, 0, 65, 100
1, 20832, Note_on_c, 0, 63, 100
1, 20928, Note_off_c, 0, 63, 100
1, 20928, Note_on_c, 0, 62, 100
1, 21024, Note_off_c, 0, 62, 100
1, 21024, Note_on_c, 0, 60, 100
1, 21120, Note_off_c, 0, 60, 100
1, 21120, Note_on_c, 0, 58, 100
1, 21216, Note_off_c, 0, 58, 100
1, 21216, Note_on_c, 0, 60, 100
1, 21312, Note_off_c, 0, 60, 100
1, 21312, Note_on_c, 0, 62, 100
1, 21408, Note_off_c, 0, 62, 100
1, 21408, Note_on_c, 0, 65, 100
1, 21504, Note_off_c, 0, 65, 100
1, 21504, Note_on_c, 0, 69, 100
1, 21568, Note_off_c, 0, 69, 100
1, 21568, Note_on_c, 0, 72, 100
1, 21888, Note_off_c, 0, 72, 100
1, 21888, Note_on_c, 0, 69, 100
1, 22080, Note_off_c, 0, 69, 100
1, 22080, Note_on_c, 0, 67, 100
1, 22144, Note_off_c, 0, 67, 100
1, 22144, Note_on_c, 0, 69, 100
1, 22208, Note_off_c, 0, 69, 100
1, 22208, Note_on_c, 0, 67, 100
1, 22320, Note_off_c, 0, 67, 100
1, 22320, Note_on_c, 0, 65, 100
1, 22368, Note_off_c, 0, 65, 100
1, 22368, Note_on_c, 0, 64, 100
1, 22464, Note_off_c, 0, 64, 100
1, 22464, Note_on_c, 0, 63, 100
1, 22560, Note_off_c, 0, 63, 100
1, 22560, Note_on_c, 0, 62, 100
1, 22656, Note_off_c, 0, 62, 100
1, 22656, Note_on_c, 0, 60, 100
1, 22752, Note_off_c, 0, 60, 100
1, 22752, Note_on_c, 0, 63, 100
1, 22848, Note_off_c, 0, 63, 100
1, 22848, Note_on_c, 0, 62, 100
1, 22944, Note_off_c, 0, 62, 100
1, 22944, Note_on_c, 0, 60, 100
1, 23040, Note_off_c, 0, 60, 100
1, 23040, Note_on_c, 0, 58, 100
1, 23136, Note_off_c, 0, 58, 100
1, 23136, Note_on_c, 0, 60, 100
1, 23232, Note_off_c, 0, 60, 100
1, 23232, Note_on_c, 0, 62, 100
1, 23280, Note_off_c, 0, 62, 100
1, 23280, Note_on_c, 0, 65, 100
1, 23376, Note_off_c, 0, 65, 100
1, 23376, Note_on_c, 0, 61, 100
1, 23488, Note_off_c, 0, 61, 100
1, 23488, Note_on_c, 0, 63, 100
1, 23552, Note_off_c, 0, 63, 100
1, 23552, Note_on_c, 0, 65, 100
1, 23680, Note_off_c, 0, 65, 100
1, 23680, Note_on_c, 0, 68, 100
1, 23744, Note_off_c, 0, 68, 100
1, 23744, Note_on_c, 0, 72, 100
1, 23808, Note_off_c, 0, 72, 100
1, 23808, Note_on_c, 0, 75, 100
1, 24064, Note_off_c, 0, 75, 100
1, 24064, Note_on_c, 0, 72, 100
1, 24128, Note_off_c, 0, 72, 100
1, 24128, Note_on_c, 0, 71, 100
1, 24192, Note_off_c, 0, 71, 100
1, 24192, Note_on_c, 0, 67, 100
1, 24256, Note_off_c, 0, 67, 100
1, 24256, Note_on_c, 0, 65, 100
1, 24320, Note_off_c, 0, 65, 100
1, 24320, Note_on_c, 0, 61, 100
1, 24416, Note_off_c, 0, 61, 100
1, 24672, Note_on_c, 0, 64, 100
1, 24768, Note_off_c, 0, 64, 100
1, 24768, Note_on_c, 0, 67, 100
1, 24864, Note_off_c, 0, 67, 100
1, 24864, Note_on_c, 0, 71, 100
1, 24960, Note_off_c, 0, 71, 100
1, 24960, Note_on_c, 0, 63, 100
1, 25056, Note_off_c, 0, 63, 100
1, 25056, Note_on_c, 0, 65, 100
1, 25152, Note_off_c, 0, 65, 100
1, 25152, Note_on_c, 0, 69, 100
1, 25280, Note_off_c, 0, 69, 100
1, 25280, Note_on_c, 0, 71, 100
1, 25344, Note_off_c, 0, 71, 100
1, 25344, Note_on_c, 0, 70, 100
1, 25440, Note_off_c, 0, 70, 100
1, 25728, Note_on_c, 0, 63, 100
1, 25824, Note_off_c, 0, 63, 100
1, 25824, Note_on_c, 0, 59, 100
1, 25920, Note_off_c, 0, 59, 100
1, 25920, Note_on_c, 0, 56, 100
1, 26016, Note_off_c, 0, 56, 100
1, 26016, Note_on_c, 0, 61, 100
1, 26112, Note_off_c, 0, 61, 100
1, 26112, Note_on_c, 0, 58, 100
1, 26208, Note_off_c, 0, 58, 100
1, 26208, Note_on_c, 0, 61, 100
1, 26304, Note_off_c, 0, 61, 100
1, 26304, Note_on_c, 0, 63, 100
1, 26352, Note_off_c, 0, 63, 100
1, 26352, Note_on_c, 0, 65, 100
1, 26400, Note_off_c, 0, 65, 100
1, 26400, Note_on_c, 0, 66, 100
1, 26448, Note_off_c, 0, 66, 100
1, 26448, Note_on_c, 0, 70, 100
1, 26496, Note_off_c, 0, 70, 100
1, 26496, Note_on_c, 0, 69, 100
1, 26592, Note_off_c, 0, 69, 100
1, 26592, Note_on_c, 0, 68, 100
1, 26688, Note_off_c, 0, 68, 100
1, 26688, Note_on_c, 0, 67, 100
1, 26784, Note_off_c, 0, 67, 100
1, 26784, Note_on_c, 0, 71, 100
1, 26880, Note_off_c, 0, 71, 100
1, 26880, Note_on_c, 0, 69, 100
1, 26976, Note_off_c, 0, 69, 100
1, 26976, Note_on_c, 0, 66, 100
1, 27072, Note_off_c, 0, 66, 100
1, 27072, Note_on_c, 0, 64, 100
1, 27168, Note_off_c, 0, 64, 100
1, 27168, Note_on_c, 0, 62, 100
1, 27216, Note_off_c, 0, 62, 100
1, 27216, Note_on_c, 0, 66, 100
1, 27360, Note_off_c, 0, 66, 100
1, 27360, Note_on_c, 0, 67, 100
1, 27456, Note_off_c, 0, 67, 100
1, 27456, Note_on_c, 0, 69, 100
1, 27552, Note_off_c, 0, 69, 100
1, 27840, Note_on_c, 0, 68, 100
1, 27904, Note_off_c, 0, 68, 100
1, 27904, Note_on_c, 0, 67, 100
1, 27968, Note_off_c, 0, 67, 100
1, 27968, Note_on_c, 0, 63, 100
1, 28032, Note_off_c, 0, 63, 100
1, 28032, Note_on_c, 0, 62, 100
1, 28128, Note_off_c, 0, 62, 100
1, 28128, Note_on_c, 0, 61, 100
1, 28224, Note_off_c, 0, 61, 100
1, 28224, Note_on_c, 0, 63, 100
1, 28320, Note_off_c, 0, 63, 100
1, 28320, Note_on_c, 0, 61, 100
1, 28416, Note_off_c, 0, 61, 100
1, 28800, Note_on_c, 0, 68, 100
1, 28896, Note_off_c, 0, 68, 100
1, 28896, Note_on_c, 0, 67, 100
1, 28992, Note_off_c, 0, 67, 100
1, 28992, Note_on_c, 0, 66, 100
1, 29088, Note_off_c, 0, 66, 100
1, 29520, Note_on_c, 0, 74, 100
1, 29760, Note_off_c, 0, 74, 100
1, 29760, Note_on_c, 0, 73, 100
1, 29856, Note_off_c, 0, 73, 100
1, 29856, Note_on_c, 0, 72, 100
1, 29904, Note_off_c, 0, 72, 100
1, 29904, Note_on_c, 0, 71, 100
1, 30016, Note_off_c, 0, 71, 100
1, 30016, Note_on_c, 0, 67, 100
1, 30080, Note_off_c, 0, 67, 100
1, 30080, Note_on_c, 0, 69, 100
1, 30144, Note_off_c, 0, 69, 100
1, 30144, Note_on_c, 0, 71, 100
1, 30240, Note_off_c, 0, 71, 100
1, 30240, Note_on_c, 0, 67, 100
1, 30384, Note_off_c, 0, 67, 100
1, 30384, Note_on_c, 0, 64, 100
1, 30480, Note_off_c, 0, 64, 100
1, 30480, Note_on_c, 0, 62, 100
1, 30528, Note_off_c, 0, 62, 100
1, 30528, Note_on_c, 0, 60, 100
1, 30720, Note_off_c, 0, 60, 100
1, 30720, Note_on_c, 0, 67, 100
1, 30768, Note_off_c, 0, 67, 100
1, 30768, Note_on_c, 0, 60, 100
1, 30864, Note_off_c, 0, 60, 100
1, 30864, Note_on_c, 0, 63, 100
1, 30960, Note_off_c, 0, 63, 100
1, 30960, Note_on_c, 0, 67, 100
1, 31056, Note_off_c, 0, 67, 100
1, 31056, Note_on_c, 0, 63, 100
1, 31168, Note_off_c, 0, 63, 100
1, 31168, Note_on_c, 0, 59, 100
1, 31232, Note_off_c, 0, 59, 100
1, 31232, Note_on_c, 0, 56, 100
1, 31296, Note_off_c, 0, 56, 100
1, 31296, Note_on_c, 0, 61, 100
1, 31488, Note_off_c, 0, 61, 100
1, 31488, Note_on_c, 0, 58, 100
1, 31584, Note_off_c, 0, 58, 100
1, 31824, Note_on_c, 0, 69, 100
1, 31920, Note_off_c, 0, 69, 100
1, 31920, Note_on_c, 0, 68, 100
1, 32016, Note_off_c, 0, 68, 100
1, 32016, Note_on_c, 0, 67, 100
1, 32128, Note_off_c, 0, 67, 100
1, 32128, Note_on_c, 0, 71, 100
1, 32256, Note_off_c, 0, 71, 100
1, 32256, Note_on_c, 0, 69, 100
1, 32304, Note_off_c, 0, 69, 100
1, 32304, Note_on_c, 0, 67, 100
1, 32352, Note_off_c, 0, 67, 100
1, 32352, Note_on_c, 0, 66, 100
1, 32400, Note_off_c, 0, 66, 100
1, 32400, Note_on_c, 0, 64, 100
1, 32496, Note_off_c, 0, 64, 100
1, 32496, Note_on_c, 0, 62, 100
1, 32592, Note_off_c, 0, 62, 100
1, 32592, Note_on_c, 0, 65, 100
1, 32832, Note_off_c, 0, 65, 100
1, 32832, Note_on_c, 0, 69, 100
1, 32928, Note_off_c, 0, 69, 100
1, 32928, Note_on_c, 0, 67, 100
1, 33024, Note_off_c, 0, 67, 100
1, 33024, Note_on_c, 0, 65, 100
1, 33088, Note_off_c, 0, 65, 100
1, 33088, Note_on_c, 0, 63, 100
1, 33216, Note_off_c, 0, 63, 100
1, 33216, Note_on_c, 0, 62, 100
1, 33312, Note_off_c, 0, 62, 100
1, 33312, Note_on_c, 0, 60, 100
1, 33408, Note_off_c, 0, 60, 100
1, 33408, Note_on_c, 0, 58, 100
1, 33504, Note_off_c, 0, 58, 100
1, 33504, Note_on_c, 0, 60, 100
1, 33600, Note_off_c, 0, 60, 100
1, 33600, Note_on_c, 0, 62, 100
1, 33664, Note_off_c, 0, 62, 100
1, 33664, Note_on_c, 0, 65, 100
1, 33728, Note_off_c, 0, 65, 100
1, 33728, Note_on_c, 0, 68, 100
1, 33792, Note_off_c, 0, 68, 100
1, 33792, Note_on_c, 0, 65, 100
1, 33888, Note_off_c, 0, 65, 100
1, 33888, Note_on_c, 0, 62, 100
1, 33984, Note_off_c, 0, 62, 100
1, 33984, Note_on_c, 0, 58, 100
1, 34176, Note_off_c, 0, 58, 100
1, 34176, Note_on_c, 0, 53, 100
1, 34368, Note_off_c, 0, 53, 100
1, 34368, Note_on_c, 0, 52, 100
1, 34512, Note_off_c, 0, 52, 100
1, 34512, Note_on_c, 0, 55, 100
1, 34624, Note_off_c, 0, 55, 100
1, 34624, Note_on_c, 0, 54, 100
1, 34752, Note_off_c, 0, 54, 100
1, 34752, Note_on_c, 0, 53, 100
1, 34800, Note_off_c, 0, 53, 100
1, 34800, Note_on_c, 0, 52, 100
1, 34896, Note_off_c, 0, 52, 100
1, 34896, Note_on_c, 0, 51, 100
1, 34992, Note_off_c, 0, 51, 100
1, 34992, Note_on_c, 0, 50, 100
1, 35088, Note_off_c, 0, 50, 100
1, 35088, Note_on_c, 0, 48, 100
1, 35184, Note_off_c, 0, 48, 100
1, 35712, Note_on_c, 0, 48, 100
1, 35808, Note_off_c, 0, 48, 100
1, 35808, Note_on_c, 0, 51, 100
1, 35904, Note_off_c, 0, 51, 100
1, 35904, Note_on_c, 0, 50, 100
1, 36000, Note_off_c, 0, 50, 100
1, 36000, Note_on_c, 0, 48, 100
1, 36096, Note_off_c, 0, 48, 100
1, 36096, Note_on_c, 0, 46, 100
1, 36192, Note_off_c, 0, 46, 100
1, 36192, Note_on_c, 0, 48, 100
1, 36336, Note_off_c, 0, 48, 100
1, 36336, Note_on_c, 0, 50, 100
1, 36432, Note_off_c, 0, 50, 100
1, 36432, Note_on_c, 0, 53, 100
1, 36480, Note_off_c, 0, 53, 100
1, 36480, Note_on_c, 0, 49, 100
1, 36576, Note_off_c, 0, 49, 100
1, 36576, Note_on_c, 0, 51, 100
1, 36720, Note_off_c, 0, 51, 100
1, 36720, Note_on_c, 0, 53, 100
1, 36768, Note_off_c, 0, 53, 100
1, 36768, Note_on_c, 0, 55, 100
1, 36864, Note_off_c, 0, 55, 100
1, 36864, Note_on_c, 0, 52, 100
1, 36960, Note_off_c, 0, 52, 100
1, 36960, Note_on_c, 0, 54, 100
1, 37056, Note_off_c, 0, 54, 100
1, 37056, Note_on_c, 0, 55, 100
1, 37152, Note_off_c, 0, 55, 100
1, 37152, Note_on_c, 0, 57, 100
1, 37248, Note_off_c, 0, 57, 100
1, 37248, Note_on_c, 0, 51, 100
1, 37344, Note_off_c, 0, 51, 100
1, 37344, Note_on_c, 0, 53, 100
1, 37504, Note_off_c, 0, 53, 100
1, 37504, Note_on_c, 0, 55, 100
1, 37568, Note_off_c, 0, 55, 100
1, 37568, Note_on_c, 0, 57, 100
1, 37680, Note_off_c, 0, 57, 100
1, 37680, Note_on_c, 0, 58, 100
1, 37776, Note_off_c, 0, 58, 100
1, 37776, Note_on_c, 0, 60, 100
1, 37824, Note_off_c, 0, 60, 100
1, 37824, Note_on_c, 0, 62, 100
1, 37920, Note_off_c, 0, 62, 100
1, 37920, Note_on_c, 0, 65, 100
1, 38016, Note_off_c, 0, 65, 100
1, 38016, Note_on_c, 0, 59, 100
1, 38112, Note_off_c, 0, 59, 100
1, 38112, Note_on_c, 0, 61, 100
1, 38208, Note_off_c, 0, 61, 100
1, 38208, Note_on_c, 0, 63, 100
1, 38304, Note_off_c, 0, 63, 100
1, 38304, Note_on_c, 0, 65, 100
1, 38400, Note_off_c, 0, 65, 100
1, 38400, Note_on_c, 0, 66, 100
1, 38496, Note_off_c, 0, 66, 100
1, 38496, Note_on_c, 0, 68, 100
1, 38592, Note_off_c, 0, 68, 100
1, 38592, Note_on_c, 0, 70, 100
1, 38688, Note_off_c, 0, 70, 100
1, 38688, Note_on_c, 0, 73, 100
1, 38784, Note_off_c, 0, 73, 100
1, 38784, Note_on_c, 0, 69, 100
1, 38880, Note_off_c, 0, 69, 100
1, 38880, Note_on_c, 0, 67, 100
1, 38976, Note_off_c, 0, 67, 100
1, 38976, Note_on_c, 0, 66, 100
1, 39072, Note_off_c, 0, 66, 100
1, 39072, Note_on_c, 0, 64, 100
1, 39168, Note_off_c, 0, 64, 100
1, 39168, Note_on_c, 0, 62, 100
1, 39264, Note_off_c, 0, 62, 100
1, 39264, Note_on_c, 0, 64, 100
1, 39360, Note_off_c, 0, 64, 100
1, 39360, Note_on_c, 0, 66, 100
1, 39456, Note_off_c, 0, 66, 100
1, 39456, Note_on_c, 0, 69, 100
1, 39552, Note_off_c, 0, 69, 100
1, 39552, Note_on_c, 0, 74, 100
1, 39648, Note_off_c, 0, 74, 100
1, 39648, Note_on_c, 0, 69, 100
1, 39744, Note_off_c, 0, 69, 100
1, 40128, Note_on_c, 0, 67, 100
1, 40224, Note_off_c, 0, 67, 100
1, 40224, Note_on_c, 0, 65, 100
1, 40320, Note_off_c, 0, 65, 100
1, 40320, Note_on_c, 0, 61, 100
1, 40416, Note_off_c, 0, 61, 100
1, 40416, Note_on_c, 0, 63, 100
1, 40512, Note_off_c, 0, 63, 100
1, 40512, Note_on_c, 0, 65, 100
1, 40608, Note_off_c, 0, 65, 100
1, 40608, Note_on_c, 0, 67, 100
1, 40704, Note_off_c, 0, 67, 100
1, 40704, Note_on_c, 0, 69, 100
1, 40752, Note_off_c, 0, 69, 100
1, 40752, Note_on_c, 0, 68, 100
1, 40848, Note_off_c, 0, 68, 100
1, 40848, Note_on_c, 0, 63, 100
1, 40960, Note_off_c, 0, 63, 100
1, 40960, Note_on_c, 0, 60, 100
1, 41088, Note_off_c, 0, 60, 100
1, 41088, Note_on_c, 0, 59, 100
1, 41184, Note_off_c, 0, 59, 100
1, 41184, Note_on_c, 0, 61, 100
1, 41280, Note_off_c, 0, 61, 100
1, 41280, Note_on_c, 0, 63, 100
1, 41376, Note_off_c, 0, 63, 100
1, 41376, Note_on_c, 0, 66, 100
1, 41472, Note_off_c, 0, 66, 100
1, 41472, Note_on_c, 0, 64, 100
1, 41568, Note_off_c, 0, 64, 100
1, 41568, Note_on_c, 0, 66, 100
1, 41664, Note_off_c, 0, 66, 100
1, 41664, Note_on_c, 0, 68, 100
1, 41760, Note_off_c, 0, 68, 100
1, 41760, Note_on_c, 0, 71, 100
1, 41856, Note_off_c, 0, 71, 100
1, 41856, Note_on_c, 0, 67, 100
1, 41952, Note_off_c, 0, 67, 100
1, 41952, Note_on_c, 0, 64, 100
1, 42048, Note_off_c, 0, 64, 100
1, 42048, Note_on_c, 0, 62, 100
1, 42240, Note_off_c, 0, 62, 100
1, 42240, Note_on_c, 0, 60, 100
1, 42336, Note_off_c, 0, 60, 100
1, 42336, Note_on_c, 0, 62, 100
1, 42432, Note_off_c, 0, 62, 100
1, 42432, Note_on_c, 0, 64, 100
1, 42496, Note_off_c, 0, 64, 100
1, 42496, Note_on_c, 0, 67, 100
1, 42560, Note_off_c, 0, 67, 100
1, 42560, Note_on_c, 0, 72, 100
1, 42624, Note_off_c, 0, 72, 100
1, 42624, Note_on_c, 0, 71, 100
1, 42720, Note_off_c, 0, 71, 100
1, 42720, Note_on_c, 0, 60, 100
1, 42816, Note_off_c, 0, 60, 100
1, 43152, Note_on_c, 0, 67, 100
1, 43264, Note_off_c, 0, 67, 100
1, 43264, Note_on_c, 0, 65, 100
1, 43328, Note_off_c, 0, 65, 100
1, 43328, Note_on_c, 0, 63, 100
1, 43392, Note_off_c, 0, 63, 100
1, 43392, Note_on_c, 0, 59, 100
1, 43488, Note_off_c, 0, 59, 100
1, 43488, Note_on_c, 0, 56, 100
1, 43584, Note_off_c, 0, 56, 100
1, 43584, Note_on_c, 0, 61, 100
1, 43776, Note_off_c, 0, 61, 100
1, 43776, Note_on_c, 0, 58, 100
1, 43872, Note_off_c, 0, 58, 100
1, 43872, Note_on_c, 0, 61, 100
1, 43968, Note_off_c, 0, 61, 100
1, 43968, Note_on_c, 0, 65, 100
1, 44016, Note_off_c, 0, 65, 100
1, 44016, Note_on_c, 0, 67, 100
1, 44064, Note_off_c, 0, 67, 100
1, 44064, Note_on_c, 0, 70, 100
1, 44160, Note_off_c, 0, 70, 100
1, 44160, Note_on_c, 0, 69, 100
1, 44256, Note_off_c, 0, 69, 100
1, 44256, Note_on_c, 0, 68, 100
1, 44352, Note_off_c, 0, 68, 100
1, 44352, Note_on_c, 0, 67, 100
1, 44448, Note_off_c, 0, 67, 100
1, 44448, Note_on_c, 0, 71, 100
1, 44544, Note_off_c, 0, 71, 100
1, 44544, Note_on_c, 0, 69, 100
1, 44592, Note_off_c, 0, 69, 100
1, 44592, Note_on_c, 0, 66, 100
1, 44688, Note_off_c, 0, 66, 100
1, 44688, Note_on_c, 0, 64, 100
1, 44832, Note_off_c, 0, 64, 100
1, 44832, Note_on_c, 0, 62, 100
1, 44880, Note_off_c, 0, 62, 100
1, 44880, Note_on_c, 0, 65, 100
1, 45072, Note_off_c, 0, 65, 100
1, 45072, Note_on_c, 0, 69, 100
1, 45216, Note_off_c, 0, 69, 100
1, 45216, Note_on_c, 0, 67, 100
1, 45312, Note_off_c, 0, 67, 100
1, 45312, Note_on_c, 0, 65, 100
1, 45408, Note_off_c, 0, 65, 100
1, 45408, Note_on_c, 0, 63, 100
1, 45504, Note_off_c, 0, 63, 100
1, 45504, Note_on_c, 0, 62, 100
1, 45600, Note_off_c, 0, 62, 100
1, 45600, Note_on_c, 0, 60, 100
1, 45696, Note_off_c, 0, 60, 100
1, 45696, Note_on_c, 0, 58, 100
1, 45792, Note_off_c, 0, 58, 100
1, 45792, Note_on_c, 0, 60, 100
1, 45888, Note_off_c, 0, 60, 100
1, 45888, Note_on_c, 0, 62, 100
1, 45952, Note_off_c, 0, 62, 100
1, 45952, Note_on_c, 0, 65, 100
1, 46016, Note_off_c, 0, 65, 100
1, 46016, Note_on_c, 0, 67, 100
1, 46080, Note_off_c, 0, 67, 100
1, 46080, Note_on_c, 0, 69, 100
1, 46128, Note_off_c, 0, 69, 100
1, 46128, Note_on_c, 0, 72, 100
1, 46416, Note_off_c, 0, 72, 100
1, 46416, Note_on_c, 0, 69, 100
1, 46512, Note_off_c, 0, 69, 100
1, 46512, Note_on_c, 0, 72, 100
1, 46800, Note_off_c, 0, 72, 100
1, 46800, Note_on_c, 0, 69, 100
1, 47040, Note_off_c, 0, 69, 100
1, 47040, Note_on_c, 0, 67, 100
1, 47088, Note_off_c, 0, 67, 100
1, 47088, Note_on_c, 0, 69, 100
1, 47136, Note_off_c, 0, 69, 100
1, 47136, Note_on_c, 0, 67, 100
1, 47232, Note_off_c, 0, 67, 100
1, 47232, Note_on_c, 0, 65, 100
1, 47280, Note_off_c, 0, 65, 100
1, 47280, Note_on_c, 0, 64, 100
1, 47376, Note_off_c, 0, 64, 100
1, 47376, Note_on_c, 0, 63, 100
1, 47472, Note_off_c, 0, 63, 100
1, 47472, Note_on_c, 0, 65, 100
1, 47568, Note_off_c, 0, 65, 100
1, 47568, Note_on_c, 0, 62, 100
1, 47616, Note_off_c, 0, 62, 100
1, 47616, Note_on_c, 0, 65, 100
1, 47808, Note_off_c, 0, 65, 100
1, 47808, Note_on_c, 0, 67, 100
1, 47872, Note_off_c, 0, 67, 100
1, 47872, Note_on_c, 0, 69, 100
1, 47936, Note_off_c, 0, 69, 100
1, 47936, Note_on_c, 0, 72, 100
1, 48000, Note_off_c, 0, 72, 100
1, 48000, Note_on_c, 0, 70, 100
1, 48096, Note_off_c, 0, 70, 100
1, 48576, Note_on_c, 0, 69, 100
1, 49056, Note_off_c, 0, 69, 100
1, 49056, Note_on_c, 0, 63, 100
1, 49152, Note_off_c, 0, 63, 100
1, 49152, Note_on_c, 0, 64, 100
1, 49248, Note_off_c, 0, 64, 100
1, 49248, Note_on_c, 0, 66, 100
1, 49296, Note_off_c, 0, 66, 100
1, 49296, Note_on_c, 0, 67, 100
1, 49440, Note_off_c, 0, 67, 100
1, 49440, Note_on_c, 0, 69, 100
1, 49536, Note_off_c, 0, 69, 100
1, 49536, Note_on_c, 0, 63, 100
1, 49632, Note_off_c, 0, 63, 100
1, 49632, Note_on_c, 0, 65, 100
1, 49728, Note_off_c, 0, 65, 100
1, 49728, Note_on_c, 0, 67, 100
1, 49776, Note_off_c, 0, 67, 100
1, 49776, Note_on_c, 0, 69, 100
1, 49872, Note_off_c, 0, 69, 100
1, 49872, Note_on_c, 0, 70, 100
1, 50016, Note_off_c, 0, 70, 100
1, 50016, Note_on_c, 0, 65, 100
1, 50112, Note_off_c, 0, 65, 100
1, 50112, Note_on_c, 0, 62, 100
1, 50208, Note_off_c, 0, 62, 100
1, 50208, Note_on_c, 0, 58, 100
1, 50256, Note_off_c, 0, 58, 100
1, 50256, Note_on_c, 0, 56, 100
1, 50304, Note_off_c, 0, 56, 100
1, 50304, Note_on_c, 0, 63, 100
1, 50496, Note_off_c, 0, 63, 100
1, 50496, Note_on_c, 0, 59, 100
1, 50560, Note_off_c, 0, 59, 100
1, 50560, Note_on_c, 0, 66, 100
1, 50624, Note_off_c, 0, 66, 100
1, 50624, Note_on_c, 0, 61, 100
1, 50688, Note_off_c, 0, 61, 100
1, 50688, Note_on_c, 0, 58, 100
1, 50880, Note_off_c, 0, 58, 100
1, 51072, Note_on_c, 0, 69, 100
1, 51168, Note_off_c, 0, 69, 100
1, 51168, Note_on_c, 0, 68, 100
1, 51328, Note_off_c, 0, 68, 100
1, 51328, Note_on_c, 0, 67, 100
1, 51392, Note_off_c, 0, 67, 100
1, 51392, Note_on_c, 0, 67, 100
1, 51456, Note_off_c, 0, 67, 100
1, 51456, Note_on_c, 0, 71, 100
1, 51520, Note_off_c, 0, 71, 100
1, 51520, Note_on_c, 0, 69, 100
1, 51584, Note_off_c, 0, 69, 100
1, 51584, Note_on_c, 0, 66, 100
1, 51744, Note_off_c, 0, 66, 100
1, 51744, Note_on_c, 0, 64, 100
1, 51792, Note_off_c, 0, 64, 100
1, 51792, Note_on_c, 0, 62, 100
1, 51840, Note_off_c, 0, 62, 100
1, 51840, Note_on_c, 0, 66, 100
1, 51936, Note_off_c, 0, 66, 100
1, 51936, Note_on_c, 0, 67, 100
1, 52032, Note_off_c, 0, 67, 100
1, 52032, Note_on_c, 0, 69, 100
1, 52128, Note_off_c, 0, 69, 100
1, 52128, Note_on_c, 0, 71, 100
1, 52224, Note_off_c, 0, 71, 100
1, 52224, Note_on_c, 0, 62, 100
1, 52272, Note_off_c, 0, 62, 100
1, 52272, Note_on_c, 0, 64, 100
1, 52368, Note_off_c, 0, 64, 100
1, 52368, Note_on_c, 0, 65, 100
1, 52464, Note_off_c, 0, 65, 100
1, 52464, Note_on_c, 0, 67, 100
1, 52608, Note_off_c, 0, 67, 100
1, 52608, Note_on_c, 0, 61, 100
1, 52704, Note_off_c, 0, 61, 100
1, 52704, Note_on_c, 0, 63, 100
1, 52800, Note_off_c, 0, 63, 100
1, 52800, Note_on_c, 0, 65, 100
1, 52864, Note_off_c, 0, 65, 100
1, 52864, Note_on_c, 0, 67, 100
1, 52928, Note_off_c, 0, 67, 100
1, 52928, Note_on_c, 0, 70, 100
1, 52992, Note_off_c, 0, 70, 100
1, 52992, Note_on_c, 0, 68, 100
1, 53088, Note_off_c, 0, 68, 100
1, 53088, Note_on_c, 0, 63, 100
1, 53184, Note_off_c, 0, 63, 100
1, 53184, Note_on_c, 0, 60, 100
1, 53328, Note_off_c, 0, 60, 100
1, 53328, Note_on_c, 0, 59, 100
1, 53440, Note_off_c, 0, 59, 100
1, 53440, Note_on_c, 0, 61, 100
1, 53504, Note_off_c, 0, 61, 100
1, 53504, Note_on_c, 0, 63, 100
1, 53632, Note_off_c, 0, 63, 100
1, 53632, Note_on_c, 0, 66, 100
1, 53760, Note_off_c, 0, 66, 100
1, 53760, Note_on_c, 0, 64, 100
1, 53856, Note_off_c, 0, 64, 100
1, 53856, Note_on_c, 0, 66, 100
1, 53952, Note_off_c, 0, 66, 100
1, 53952, Note_on_c, 0, 68, 100
1, 54048, Note_off_c, 0, 68, 100
1, 54048, Note_on_c, 0, 71, 100
1, 54144, Note_off_c, 0, 71, 100
1, 54144, Note_on_c, 0, 67, 100
1, 54240, Note_off_c, 0, 67, 100
1, 54240, Note_on_c, 0, 65, 100
1, 54336, Note_off_c, 0, 65, 100
1, 54336, Note_on_c, 0, 64, 100
1, 54400, Note_off_c, 0, 64, 100
1, 54400, Note_on_c, 0, 62, 100
1, 54528, Note_off_c, 0, 62, 100
1, 54528, Note_on_c, 0, 60, 100
1, 54624, Note_off_c, 0, 60, 100
1, 55536, Note_on_c, 0, 67, 100
1, 55632, Note_off_c, 0, 67, 100
1, 55632, Note_on_c, 0, 65, 100
1, 55680, Note_off_c, 0, 65, 100
1, 55680, Note_on_c, 0, 63, 100
1, 55776, Note_off_c, 0, 63, 100
1, 55776, Note_on_c, 0, 59, 100
1, 55872, Note_off_c, 0, 59, 100
1, 55872, Note_on_c, 0, 56, 100
1, 56000, Note_off_c, 0, 56, 100
1, 56000, Note_on_c, 0, 61, 100
1, 56064, Note_off_c, 0, 61, 100
1, 56064, Note_on_c, 0, 58, 100
1, 56160, Note_off_c, 0, 58, 100
1, 56160, Note_on_c, 0, 54, 100
1, 56320, Note_off_c, 0, 54, 100
1, 56320, Note_on_c, 0, 58, 100
1, 56448, Note_off_c, 0, 58, 100
1, 56448, Note_on_c, 0, 57, 100
1, 56512, Note_off_c, 0, 57, 100
1, 56512, Note_on_c, 0, 56, 100
1, 56576, Note_off_c, 0, 56, 100
1, 56576, Note_on_c, 0, 55, 100
1, 56704, Note_off_c, 0, 55, 100
1, 56704, Note_on_c, 0, 59, 100
1, 56768, Note_off_c, 0, 59, 100
1, 56768, Note_on_c, 0, 57, 100
1, 56832, Note_off_c, 0, 57, 100
1, 56832, Note_on_c, 0, 54, 100
1, 57024, Note_off_c, 0, 54, 100
1, 57024, Note_on_c, 0, 52, 100
1, 57120, Note_off_c, 0, 52, 100
1, 57120, Note_on_c, 0, 50, 100
1, 57216, Note_off_c, 0, 50, 100
1, 57216, Note_on_c, 0, 53, 100
1, 57312, Note_off_c, 0, 53, 100
1, 57312, Note_on_c, 0, 55, 100
1, 57360, Note_off_c, 0, 55, 100
1, 57360, Note_on_c, 0, 57, 100
1, 57504, Note_off_c, 0, 57, 100
1, 57504, Note_on_c, 0, 60, 100
1, 57600, Note_off_c, 0, 60, 100
1, 57600, Note_on_c, 0, 58, 100
1, 57696, Note_off_c, 0, 58, 100
1, 57696, Note_on_c, 0, 60, 100
1, 57792, Note_off_c, 0, 60, 100
1, 57792, Note_on_c, 0, 62, 100
1, 57888, Note_off_c, 0, 62, 100
1, 57888, Note_on_c, 0, 65, 100
1, 57936, Note_off_c, 0, 65, 100
1, 57936, Note_on_c, 0, 70, 100
1, 58080, Note_off_c, 0, 70, 100
1, 58080, Note_on_c, 0, 65, 100
1, 58176, Note_off_c, 0, 65, 100
1, 58176, Note_on_c, 0, 62, 100
1, 58272, Note_off_c, 0, 62, 100
1, 58272, Note_on_c, 0, 58, 100
1, 58368, Note_off_c, 0, 58, 100
1, 58368, Note_on_c, 0, 64, 100
1, 58560, Note_off_c, 0, 64, 100
1, 58560, Note_on_c, 0, 66, 100
1, 58656, Note_off_c, 0, 66, 100
1, 58656, Note_on_c, 0, 67, 100
1, 58848, Note_off_c, 0, 67, 100
1, 59136, Note_on_c, 0, 67, 100
1, 59232, Note_off_c, 0, 67, 100
1, 59232, Note_on_c, 0, 72, 100
1, 59328, Note_off_c, 0, 72, 100
1, 59328, Note_on_c, 0, 69, 100
1, 59424, Note_off_c, 0, 69, 100
1, 59424, Note_on_c, 0, 67, 100
1, 59520, Note_off_c, 0, 67, 100
1, 59520, Note_on_c, 0, 65, 100
1, 59616, Note_off_c, 0, 65, 100
1, 59616, Note_on_c, 0, 64, 100
1, 59712, Note_off_c, 0, 64, 100
1, 59712, Note_on_c, 0, 63, 100
1, 59808, Note_off_c, 0, 63, 100
1, 59808, Note_on_c, 0, 65, 100
1, 59904, Note_off_c, 0, 65, 100
1, 59904, Note_on_c, 0, 62, 100
1, 60048, Note_off_c, 0, 62, 100
1, 60048, Note_on_c, 0, 65, 100
1, 60096, Note_off_c, 0, 65, 100
1, 60096, Note_on_c, 0, 67, 100
1, 60192, Note_off_c, 0, 67, 100
1, 60192, Note_on_c, 0, 69, 100
1, 60240, Note_off_c, 0, 69, 100
1, 60240, Note_on_c, 0, 72, 100
1, 60336, Note_off_c, 0, 72, 100
1, 60336, Note_on_c, 0, 70, 100
1, 60432, Note_off_c, 0, 70, 100
1, 60432, Note_on_c, 0, 69, 100
1, 60544, Note_off_c, 0, 69, 100
1, 60544, Note_on_c, 0, 72, 100
1, 60672, Note_off_c, 0, 72, 100
1, 60672, Note_on_c, 0, 67, 100
1, 60720, Note_off_c, 0, 67, 100
1, 60720, Note_on_c, 0, 65, 100
1, 60816, Note_off_c, 0, 65, 100
1, 60816, Note_on_c, 0, 61, 100
1, 60960, Note_off_c, 0, 61, 100
1, 60960, Note_on_c, 0, 58, 100
1, 61056, Note_off_c, 0, 58, 100
1, 61056, Note_on_c, 0, 63, 100
1, 61152, Note_off_c, 0, 63, 100
1, 61536, Note_on_c, 0, 51, 100
1, 61632, Note_off_c, 0, 51, 100
1, 61632, Note_on_c, 0, 55, 100
1, 61728, Note_off_c, 0, 55, 100
1, 61728, Note_on_c, 0, 58, 100
1, 61824, Note_off_c, 0, 58, 100
1, 61824, Note_on_c, 0, 51, 100
1, 62016, Note_off_c, 0, 51, 100
1, 62016, Note_on_c, 0, 57, 100
1, 62144, Note_off_c, 0, 57, 100
1, 62144, Note_on_c, 0, 60, 100
1, 62272, Note_off_c, 0, 60, 100
1, 62272, Note_on_c, 0, 58, 100
1, 62336, Note_off_c, 0, 58, 100
1, 62336, Note_on_c, 0, 60, 100
1, 62400, Note_off_c, 0, 60, 100
1, 62400, Note_on_c, 0, 62, 100
1, 62496, Note_off_c, 0, 62, 100
1, 62496, Note_on_c, 0, 65, 100
1, 62592, Note_off_c, 0, 65, 100
1, 62592, Note_on_c, 0, 63, 100
1, 62688, Note_off_c, 0, 63, 100
1, 62688, Note_on_c, 0, 61, 100
1, 62784, Note_off_c, 0, 61, 100
1, 62784, Note_on_c, 0, 56, 100
1, 62880, Note_off_c, 0, 56, 100
1, 62880, Note_on_c, 0, 60, 100
1, 62976, Note_off_c, 0, 60, 100
1, 62976, Note_on_c, 0, 58, 100
1, 63120, Note_off_c, 0, 58, 100
1, 63120, Note_on_c, 0, 54, 100
1, 63232, Note_off_c, 0, 54, 100
1, 63232, Note_on_c, 0, 55, 100
1, 63296, Note_off_c, 0, 55, 100
1, 63296, Note_on_c, 0, 58, 100
1, 63424, Note_off_c, 0, 58, 100
1, 63424, Note_on_c, 0, 57, 100
1, 63488, Note_off_c, 0, 57, 100
1, 63488, Note_on_c, 0, 56, 100
1, 63648, Note_off_c, 0, 56, 100
1, 63648, Note_on_c, 0, 56, 100
1, 63696, Note_off_c, 0, 56, 100
1, 63696, Note_on_c, 0, 57, 100
1, 63840, Note_off_c, 0, 57, 100
1, 63840, Note_on_c, 0, 61, 100
1, 63936, Note_off_c, 0, 61, 100
1, 63936, Note_on_c, 0, 62, 100
1, 64000, Note_off_c, 0, 62, 100
1, 64000, Note_on_c, 0, 64, 100
1, 64064, Note_off_c, 0, 64, 100
1, 64064, Note_on_c, 0, 63, 100
1, 64128, Note_off_c, 0, 63, 100
1, 64128, Note_on_c, 0, 61, 100
1, 64176, Note_off_c, 0, 61, 100
1, 64176, Note_on_c, 0, 62, 100
1, 64224, Note_off_c, 0, 62, 100
1, 64224, Note_on_c, 0, 64, 100
1, 64384, Note_off_c, 0, 64, 100
1, 64384, Note_on_c, 0, 66, 100
1, 64448, Note_off_c, 0, 66, 100
1, 64448, Note_on_c, 0, 69, 100
1, 64512, Note_off_c, 0, 69, 100
1, 64512, Note_on_c, 0, 68, 100
1, 64608, Note_off_c, 0, 68, 100
1, 64608, Note_on_c, 0, 64, 100
1, 64704, Note_off_c, 0, 64, 100
1, 64704, Note_on_c, 0, 65, 100
1, 64800, Note_off_c, 0, 65, 100
1, 64800, Note_on_c, 0, 67, 100
1, 64896, Note_off_c, 0, 67, 100
1, 64896, Note_on_c, 0, 61, 100
1, 64992, Note_off_c, 0, 61, 100
1, 64992, Note_on_c, 0, 63, 100
1, 65088, Note_off_c, 0, 63, 100
1, 65088, Note_on_c, 0, 65, 100
1, 65184, Note_off_c, 0, 65, 100
1, 65184, Note_on_c, 0, 67, 100
1, 65280, Note_off_c, 0, 67, 100
1, 65280, Note_on_c, 0, 70, 100
1, 65328, Note_off_c, 0, 70, 100
1, 65328, Note_on_c, 0, 68, 100
1, 65424, Note_off_c, 0, 68, 100
1, 65424, Note_on_c, 0, 63, 100
1, 65536, Note_off_c, 0, 63, 100
1, 65536, Note_on_c, 0, 60, 100
1, 65664, Note_off_c, 0, 60, 100
1, 65664, Note_on_c, 0, 59, 100
1, 65712, Note_off_c, 0, 59, 100
1, 65712, Note_on_c, 0, 61, 100
1, 65808, Note_off_c, 0, 61, 100
1, 65808, Note_on_c, 0, 63, 100
1, 65904, Note_off_c, 0, 63, 100
1, 65904, Note_on_c, 0, 66, 100
1, 66000, Note_off_c, 0, 66, 100
1, 66000, Note_on_c, 0, 64, 100
1, 66096, Note_off_c, 0, 64, 100
1, 66096, Note_on_c, 0, 66, 100
1, 66192, Note_off_c, 0, 66, 100
1, 66192, Note_on_c, 0, 68, 100
1, 66240, Note_off_c, 0, 68, 100
1, 66240, Note_on_c, 0, 71, 100
1, 66336, Note_off_c, 0, 71, 100
1, 66336, Note_on_c, 0, 67, 100
1, 66432, Note_off_c, 0, 67, 100
1, 66432, Note_on_c, 0, 65, 100
1, 66528, Note_off_c, 0, 65, 100
1, 66528, Note_on_c, 0, 64, 100
1, 66624, Note_off_c, 0, 64, 100
1, 66624, Note_on_c, 0, 62, 100
1, 66720, Note_off_c, 0, 62, 100
1, 66720, Note_on_c, 0, 60, 100
1, 66912, Note_off_c, 0, 60, 100
1, 66912, Note_on_c, 0, 64, 100
1, 67008, Note_off_c, 0, 64, 100
1, 67008, Note_on_c, 0, 67, 100
1, 67104, Note_off_c, 0, 67, 100
1, 67104, Note_on_c, 0, 72, 100
1, 67200, Note_off_c, 0, 72, 100
1, 67776, Note_on_c, 0, 67, 100
1, 67872, Note_off_c, 0, 67, 100
1, 67872, Note_on_c, 0, 65, 100
1, 67968, Note_off_c, 0, 65, 100
1, 67968, Note_on_c, 0, 63, 100
1, 68064, Note_off_c, 0, 63, 100
1, 68064, Note_on_c, 0, 59, 100
1, 68160, Note_off_c, 0, 59, 100
1, 68160, Note_on_c, 0, 56, 100
1, 68256, Note_off_c, 0, 56, 100
1, 68256, Note_on_c, 0, 61, 100
1, 68352, Note_off_c, 0, 61, 100
1, 68352, Note_on_c, 0, 58, 100
1, 68448, Note_off_c, 0, 58, 100
1, 68448, Note_on_c, 0, 61, 100
1, 68496, Note_off_c, 0, 61, 100
1, 68496, Note_on_c, 0, 65, 100
1, 68544, Note_off_c, 0, 65, 100
1, 68544, Note_on_c, 0, 68, 100
1, 68608, Note_off_c, 0, 68, 100
1, 68608, Note_on_c, 0, 70, 100
1, 68672, Note_off_c, 0, 70, 100
1, 68672, Note_on_c, 0, 69, 100
1, 68784, Note_off_c, 0, 69, 100
1, 68784, Note_on_c, 0, 68, 100
1, 68880, Note_off_c, 0, 68, 100
1, 68880, Note_on_c, 0, 67, 100
1, 68992, Note_off_c, 0, 67, 100
1, 68992, Note_on_c, 0, 70, 100
1, 69056, Note_off_c, 0, 70, 100
1, 69056, Note_on_c, 0, 69, 100
1, 69120, Note_off_c, 0, 69, 100
1, 69120, Note_on_c, 0, 66, 100
1, 69312, Note_off_c, 0, 66, 100
1, 69312, Note_on_c, 0, 64, 100
1, 69360, Note_off_c, 0, 64, 100
1, 69360, Note_on_c, 0, 62, 100
1, 69456, Note_off_c, 0, 62, 100
1, 69456, Note_on_c, 0, 65, 100
1, 69600, Note_off_c, 0, 65, 100
1, 69600, Note_on_c, 0, 67, 100
1, 69696, Note_off_c, 0, 67, 100
1, 69696, Note_on_c, 0, 68, 100
1, 69792, Note_off_c, 0, 68, 100
1, 69792, Note_on_c, 0, 67, 100
1, 69888, Note_off_c, 0, 67, 100
1, 69888, Note_on_c, 0, 65, 100
1, 69984, Note_off_c, 0, 65, 100
1, 69984, Note_on_c, 0, 63, 100
1, 70080, Note_off_c, 0, 63, 100
1, 70080, Note_on_c, 0, 62, 100
1, 70176, Note_off_c, 0, 62, 100
1, 70176, Note_on_c, 0, 60, 100
1, 70272, Note_off_c, 0, 60, 100
1, 70272, Note_on_c, 0, 58, 100
1, 70368, Note_off_c, 0, 58, 100
1, 70368, Note_on_c, 0, 60, 100
1, 70464, Note_off_c, 0, 60, 100
1, 70464, Note_on_c, 0, 62, 100
1, 70560, Note_off_c, 0, 62, 100
1, 70560, Note_on_c, 0, 65, 100
1, 70656, Note_off_c, 0, 65, 100
1, 70656, Note_on_c, 0, 69, 100
1, 70704, Note_off_c, 0, 69, 100
1, 70704, Note_on_c, 0, 72, 100
1, 70800, Note_off_c, 0, 72, 100
1, 70800, Note_on_c, 0, 69, 100
1, 70896, Note_off_c, 0, 69, 100
1, 71424, Note_on_c, 0, 68, 100
1, 71488, Note_off_c, 0, 68, 100
1, 71488, Note_on_c, 0, 69, 100
1, 71552, Note_off_c, 0, 69, 100
1, 71552, Note_on_c, 0, 70, 100
1, 71616, Note_off_c, 0, 70, 100
1, 71616, Note_on_c, 0, 69, 100
1, 71712, Note_off_c, 0, 69, 100
1, 71712, Note_on_c, 0, 67, 100
1, 71856, Note_off_c, 0, 67, 100
1, 71856, Note_on_c, 0, 65, 100
1, 71904, Note_off_c, 0, 65, 100
1, 71904, Note_on_c, 0, 63, 100
1, 72000, Note_off_c, 0, 63, 100
1, 72000, Note_on_c, 0, 62, 100
1, 72096, Note_off_c, 0, 62, 100
1, 72096, Note_on_c, 0, 60, 100
1, 72192, Note_off_c, 0, 60, 100
1, 72192, Note_on_c, 0, 58, 100
1, 72288, Note_off_c, 0, 58, 100
1, 72288, Note_on_c, 0, 60, 100
1, 72432, Note_off_c, 0, 60, 100
1, 72432, Note_on_c, 0, 62, 100
1, 72480, Note_off_c, 0, 62, 100
1, 72480, Note_on_c, 0, 65, 100
1, 72576, Note_off_c, 0, 65, 100
1, 72576, Note_on_c, 0, 61, 100
1, 72672, Note_off_c, 0, 61, 100
1, 72672, Note_on_c, 0, 63, 100
1, 72768, Note_off_c, 0, 63, 100
1, 72768, Note_on_c, 0, 65, 100
1, 72864, Note_off_c, 0, 65, 100
1, 72864, Note_on_c, 0, 70, 100
1, 72960, Note_off_c, 0, 70, 100
1, 72960, Note_on_c, 0, 72, 100
1, 73056, Note_off_c, 0, 72, 100
1, 73056, Note_on_c, 0, 75, 100
1, 73152, Note_off_c, 0, 75, 100
1, 73152, Note_on_c, 0, 72, 100
1, 73296, Note_off_c, 0, 72, 100
1, 73296, Note_on_c, 0, 67, 100
1, 73440, Note_off_c, 0, 67, 100
1, 73440, Note_on_c, 0, 65, 100
1, 73536, Note_off_c, 0, 65, 100
1, 73536, Note_on_c, 0, 61, 100
1, 73600, Note_off_c, 0, 61, 100
1, 73600, Note_on_c, 0, 58, 100
1, 73728, Note_off_c, 0, 58, 100
1, 73728, Note_on_c, 0, 64, 100
1, 73824, Note_off_c, 0, 64, 100
1, 73824, Note_on_c, 0, 66, 100
1, 73920, Note_off_c, 0, 66, 100
1, 73920, Note_on_c, 0, 67, 100
1, 74016, Note_off_c, 0, 67, 100
1, 74016, Note_on_c, 0, 69, 100
1, 74112, Note_off_c, 0, 69, 100
1, 74112, Note_on_c, 0, 63, 100
1, 74240, Note_off_c, 0, 63, 100
1, 74240, Note_on_c, 0, 65, 100
1, 74304, Note_off_c, 0, 65, 100
1, 74304, Note_on_c, 0, 67, 100
1, 74400, Note_off_c, 0, 67, 100
1, 74400, Note_on_c, 0, 69, 100
1, 74496, Note_off_c, 0, 69, 100
1, 74496, Note_on_c, 0, 70, 100
1, 74592, Note_off_c, 0, 70, 100
1, 74880, Note_on_c, 0, 63, 100
1, 74976, Note_off_c, 0, 63, 100
1, 74976, Note_on_c, 0, 59, 100
1, 75072, Note_off_c, 0, 59, 100
1, 75072, Note_on_c, 0, 56, 100
1, 75216, Note_off_c, 0, 56, 100
1, 75216, Note_on_c, 0, 61, 100
1, 75264, Note_off_c, 0, 61, 100
1, 75264, Note_on_c, 0, 58, 100
1, 75360, Note_off_c, 0, 58, 100
1, 75360, Note_on_c, 0, 61, 100
1, 75504, Note_off_c, 0, 61, 100
1, 75504, Note_on_c, 0, 66, 100
1, 75600, Note_off_c, 0, 66, 100
1, 75600, Note_on_c, 0, 70, 100
1, 75696, Note_off_c, 0, 70, 100
1, 75696, Note_on_c, 0, 69, 100
1, 75792, Note_off_c, 0, 69, 100
1, 75792, Note_on_c, 0, 68, 100
1, 75840, Note_off_c, 0, 68, 100
1, 75840, Note_on_c, 0, 67, 100
1, 75936, Note_off_c, 0, 67, 100
1, 75936, Note_on_c, 0, 71, 100
1, 76032, Note_off_c, 0, 71, 100
1, 76032, Note_on_c, 0, 69, 100
1, 76128, Note_off_c, 0, 69, 100
1, 76128, Note_on_c, 0, 66, 100
1, 76224, Note_off_c, 0, 66, 100
1, 76224, Note_on_c, 0, 64, 100
1, 76320, Note_off_c, 0, 64, 100
1, 76320, Note_on_c, 0, 62, 100
1, 76416, Note_off_c, 0, 62, 100
1, 76416, Note_on_c, 0, 66, 100
1, 76512, Note_off_c, 0, 66, 100
1, 76512, Note_on_c, 0, 67, 100
1, 76608, Note_off_c, 0, 67, 100
1, 76608, Note_on_c, 0, 69, 100
1, 76704, Note_off_c, 0, 69, 100
1, 76704, Note_on_c, 0, 71, 100
1, 76800, Note_off_c, 0, 71, 100
1, 76800, Note_on_c, 0, 62, 100
1, 76944, Note_off_c, 0, 62, 100
1, 76944, Note_on_c, 0, 63, 100
1, 77040, Note_off_c, 0, 63, 100
1, 77040, Note_on_c, 0, 65, 100
1, 77136, Note_off_c, 0, 65, 100
1, 77136, Note_on_c, 0, 66, 100
1, 77248, Note_off_c, 0, 66, 100
1, 77248, Note_on_c, 0, 63, 100
1, 77312, Note_off_c, 0, 63, 100
1, 77312, Note_on_c, 0, 62, 100
1, 77424, Note_off_c, 0, 62, 100
1, 77424, Note_on_c, 0, 61, 100
1, 77520, Note_off_c, 0, 61, 100
1, 77520, Note_on_c, 0, 63, 100
1, 77568, Note_off_c, 0, 63, 100
1, 77568, Note_on_c, 0, 60, 100
1, 77664, Note_off_c, 0, 60, 100
1, 77664, Note_on_c, 0, 63, 100
1, 77760, Note_off_c, 0, 63, 100
1, 77760, Note_on_c, 0, 68, 100
1, 77824, Note_off_c, 0, 68, 100
1, 77824, Note_on_c, 0, 72, 100
1, 77888, Note_off_c, 0, 72, 100
1, 77888, Note_on_c, 0, 71, 100
1, 77952, Note_off_c, 0, 71, 100
1, 77952, Note_on_c, 0, 69, 100
1, 78048, Note_off_c, 0, 69, 100
1, 78048, Note_on_c, 0, 68, 100
1, 78240, Note_off_c, 0, 68, 100
1, 78240, Note_on_c, 0, 66, 100
1, 78384, Note_off_c, 0, 66, 100
1, 78384, Note_on_c, 0, 64, 100
1, 78432, Note_off_c, 0, 64, 100
1, 78432, Note_on_c, 0, 66, 100
1, 78576, Note_off_c, 0, 66, 100
1, 78576, Note_on_c, 0, 68, 100
1, 78624, Note_off_c, 0, 68, 100
1, 78624, Note_on_c, 0, 71, 100
1, 78720, Note_off_c, 0, 71, 100
1, 78720, Note_on_c, 0, 67, 100
1, 78848, Note_off_c, 0, 67, 100
1, 78848, Note_on_c, 0, 65, 100
1, 78912, Note_off_c, 0, 65, 100
1, 78912, Note_on_c, 0, 64, 100
1, 79008, Note_off_c, 0, 64, 100
1, 79008, Note_on_c, 0, 62, 100
1, 79104, Note_off_c, 0, 62, 100
1, 79104, Note_on_c, 0, 60, 100
1, 79200, Note_off_c, 0, 60, 100
1, 79200, Note_on_c, 0, 62, 100
1, 79296, Note_off_c, 0, 62, 100
1, 79296, Note_on_c, 0, 64, 100
1, 79392, Note_off_c, 0, 64, 100
1, 79392, Note_on_c, 0, 67, 100
1, 79488, Note_off_c, 0, 67, 100
1, 79488, Note_on_c, 0, 72, 100
1, 79536, Note_off_c, 0, 72, 100
1, 79536, Note_on_c, 0, 71, 100
1, 79632, Note_off_c, 0, 71, 100
1, 79632, Note_on_c, 0, 69, 100
1, 79776, Note_off_c, 0, 69, 100
1, 79776, Note_on_c, 0, 68, 100
1, 79872, Note_off_c, 0, 68, 100
1, 79872, Note_on_c, 0, 67, 100
1, 79968, Note_off_c, 0, 67, 100
1, 79968, Note_on_c, 0, 63, 100
1, 80064, Note_off_c, 0, 63, 100
1, 80064, Note_on_c, 0, 62, 100
1, 80160, Note_off_c, 0, 62, 100
1, 80160, Note_on_c, 0, 60, 100
1, 80256, Note_off_c, 0, 60, 100
1, 80256, Note_on_c, 0, 63, 100
1, 80352, Note_off_c, 0, 63, 100
1, 80352, Note_on_c, 0, 59, 100
1, 80448, Note_off_c, 0, 59, 100
1, 80448, Note_on_c, 0, 56, 100
1, 80544, Note_off_c, 0, 56, 100
1, 80544, Note_on_c, 0, 61, 100
1, 80640, Note_off_c, 0, 61, 100
1, 80640, Note_on_c, 0, 58, 100
1, 80736, Note_off_c, 0, 58, 100
1, 81088, Note_on_c, 0, 68, 100
1, 81216, Note_off_c, 0, 68, 100
1, 81216, Note_on_c, 0, 67, 100
1, 81360, Note_off_c, 0, 67, 100
1, 81360, Note_on_c, 0, 71, 100
1, 81408, Note_off_c, 0, 71, 100
1, 81408, Note_on_c, 0, 69, 100
1, 81504, Note_off_c, 0, 69, 100
1, 81504, Note_on_c, 0, 67, 100
1, 81552, Note_off_c, 0, 67, 100
1, 81552, Note_on_c, 0, 66, 100
1, 81648, Note_off_c, 0, 66, 100
1, 81648, Note_on_c, 0, 64, 100
1, 81744, Note_off_c, 0, 64, 100
1, 81744, Note_on_c, 0, 62, 100
1, 81856, Note_off_c, 0, 62, 100
1, 81856, Note_on_c, 0, 65, 100
1, 82032, Note_off_c, 0, 65, 100
1, 82032, Note_on_c, 0, 69, 100
1, 82128, Note_off_c, 0, 69, 100
1, 82128, Note_on_c, 0, 67, 100
1, 82224, Note_off_c, 0, 67, 100
1, 82224, Note_on_c, 0, 65, 100
1, 82320, Note_off_c, 0, 65, 100
1, 82320, Note_on_c, 0, 63, 100
1, 82368, Note_off_c, 0, 63, 100
1, 82368, Note_on_c, 0, 62, 100
1, 82464, Note_off_c, 0, 62, 100
1, 82464, Note_on_c, 0, 60, 100
1, 82608, Note_off_c, 0, 60, 100
1, 82608, Note_on_c, 0, 58, 100
1, 82656, Note_off_c, 0, 58, 100
1, 82656, Note_on_c, 0, 60, 100
1, 82752, Note_off_c, 0, 60, 100
1, 82752, Note_on_c, 0, 62, 100
1, 82816, Note_off_c, 0, 62, 100
1, 82816, Note_on_c, 0, 65, 100
1, 82880, Note_off_c, 0, 65, 100
1, 82880, Note_on_c, 0, 69, 100
1, 83008, Note_off_c, 0, 69, 100
1, 83008, Note_on_c, 0, 59, 100
1, 83104, Note_off_c, 0, 59, 100
1, 83520, Note_on_c, 0, 57, 100
1, 83776, Note_off_c, 0, 57, 100
1, 83776, Note_on_c, 0, 56, 100
1, 83840, Note_off_c, 0, 56, 100
1, 83840, Note_on_c, 0, 57, 100
1, 83904, Note_off_c, 0, 57, 100
1, 83904, Note_on_c, 0, 55, 100
1, 84000, Note_off_c, 0, 55, 100
1, 84000, Note_on_c, 0, 53, 100
1, 84096, Note_off_c, 0, 53, 100
1, 84096, Note_on_c, 0, 51, 100
1, 84240, Note_off_c, 0, 51, 100
1, 84240, Note_on_c, 0, 49, 100
1, 84288, Note_off_c, 0, 49, 100
1, 84288, Note_on_c, 0, 48, 100
1, 84384, Note_off_c, 0, 48, 100
1, 84384, Note_on_c, 0, 46, 100
1, 84576, Note_off_c, 0, 46, 100
1, 84576, Note_on_c, 0, 53, 100
1, 84768, Note_off_c, 0, 53, 100
1, 84768, Note_on_c, 0, 55, 100
1, 84864, Note_off_c, 0, 55, 100
1, 84864, Note_on_c, 0, 58, 100
1, 84960, Note_off_c, 0, 58, 100
1, 84960, Note_on_c, 0, 60, 100
1, 85056, Note_off_c, 0, 60, 100
1, 85056, Note_on_c, 0, 63, 100
1, 85152, Note_off_c, 0, 63, 100
1, 85152, Note_on_c, 0, 65, 100
1, 85248, Note_off_c, 0, 65, 100
1, 85248, Note_on_c, 0, 61, 100
1, 85296, Note_off_c, 0, 61, 100
1, 85296, Note_on_c, 0, 63, 100
1, 85392, Note_off_c, 0, 63, 100
1, 85392, Note_on_c, 0, 65, 100
1, 85488, Note_off_c, 0, 65, 100
1, 85488, Note_on_c, 0, 67, 100
1, 85584, Note_off_c, 0, 67, 100
1, 85584, Note_on_c, 0, 69, 100
1, 85680, Note_off_c, 0, 69, 100
1, 86112, Note_on_c, 0, 51, 100
1, 86208, Note_off_c, 0, 51, 100
1, 86208, Note_on_c, 0, 55, 100
1, 86304, Note_off_c, 0, 55, 100
1, 86304, Note_on_c, 0, 58, 100
1, 86400, Note_off_c, 0, 58, 100
1, 86400, Note_on_c, 0, 51, 100
1, 86592, Note_off_c, 0, 51, 100
1, 86592, Note_on_c, 0, 57, 100
1, 86784, Note_off_c, 0, 57, 100
1, 86784, Note_on_c, 0, 62, 100
1, 86880, Note_off_c, 0, 62, 100
1, 86880, Note_on_c, 0, 60, 100
1, 87024, Note_off_c, 0, 60, 100
1, 87024, Note_on_c, 0, 57, 100
1, 87120, Note_off_c, 0, 57, 100
1, 87120, Note_on_c, 0, 55, 100
1, 87168, Note_off_c, 0, 55, 100
1, 87168, Note_on_c, 0, 63, 100
1, 87264, Note_off_c, 0, 63, 100
1, 87264, Note_on_c, 0, 58, 100
1, 87360, Note_off_c, 0, 58, 100
1, 87360, Note_on_c, 0, 56, 100
1, 87504, Note_off_c, 0, 56, 100
1, 87504, Note_on_c, 0, 61, 100
1, 87600, Note_off_c, 0, 61, 100
1, 87600, Note_on_c, 0, 58, 100
1, 87696, Note_off_c, 0, 58, 100
1, 87696, Note_on_c, 0, 54, 100
1, 87840, Note_off_c, 0, 54, 100
1, 87840, Note_on_c, 0, 55, 100
1, 87888, Note_off_c, 0, 55, 100
1, 87888, Note_on_c, 0, 58, 100
1, 87984, Note_off_c, 0, 58, 100
1, 87984, Note_on_c, 0, 57, 100
1, 88080, Note_off_c, 0, 57, 100
1, 88080, Note_on_c, 0, 56, 100
1, 88176, Note_off_c, 0, 56, 100
1, 88176, Note_on_c, 0, 55, 100
1, 88272, Note_off_c, 0, 55, 100
1, 88272, Note_on_c, 0, 59, 100
1, 88320, Note_off_c, 0, 59, 100
1, 88320, Note_on_c, 0, 57, 100
1, 88416, Note_off_c, 0, 57, 100
1, 88416, Note_on_c, 0, 54, 100
1, 88512, Note_off_c, 0, 54, 100
1, 88512, Note_on_c, 0, 52, 100
1, 88560, Note_off_c, 0, 52, 100
1, 88560, Note_on_c, 0, 50, 100
1, 88656, Note_off_c, 0, 50, 100
1, 88656, Note_on_c, 0, 54, 100
1, 88752, Note_off_c, 0, 54, 100
1, 88752, Note_on_c, 0, 55, 100
1, 88848, Note_off_c, 0, 55, 100
1, 88848, Note_on_c, 0, 57, 100
1, 88992, Note_off_c, 0, 57, 100
1, 88992, Note_on_c, 0, 59, 100
1, 89088, Note_off_c, 0, 59, 100
1, 89088, Note_on_c, 0, 50, 100
1, 89280, Note_off_c, 0, 50, 100
1, 89280, Note_on_c, 0, 52, 100
1, 89328, Note_off_c, 0, 52, 100
1, 89328, Note_on_c, 0, 54, 100
1, 89424, Note_off_c, 0, 54, 100
1, 89424, Note_on_c, 0, 49, 100
1, 89760, Note_off_c, 0, 49, 100
1, 89760, Note_on_c, 0, 51, 100
1, 89856, Note_off_c, 0, 51, 100
1, 89856, Note_on_c, 0, 48, 100
1, 89952, Note_off_c, 0, 48, 100
1, 89952, Note_on_c, 0, 51, 100
1, 90048, Note_off_c, 0, 51, 100
1, 90048, Note_on_c, 0, 56, 100
1, 90144, Note_off_c, 0, 56, 100
1, 90144, Note_on_c, 0, 60, 100
1, 90240, Note_off_c, 0, 60, 100
1, 90240, Note_on_c, 0, 59, 100
1, 90336, Note_off_c, 0, 59, 100
1, 90336, Note_on_c, 0, 61, 100
1, 90432, Note_off_c, 0, 61, 100
1, 90432, Note_on_c, 0, 63, 100
1, 90528, Note_off_c, 0, 63, 100
1, 90528, Note_on_c, 0, 66, 100
1, 90624, Note_off_c, 0, 66, 100
1, 90624, Note_on_c, 0, 64, 100
1, 90720, Note_off_c, 0, 64, 100
1, 90720, Note_on_c, 0, 66, 100
1, 90816, Note_off_c, 0, 66, 100
1, 90816, Note_on_c, 0, 68, 100
1, 90864, Note_off_c, 0, 68, 100
1, 90864, Note_on_c, 0, 30, 100
1, 90912, Note_off_c, 0, 30, 100
1, 90912, Note_on_c, 0, 71, 100
1, 91008, Note_off_c, 0, 71, 100
1, 91008, Note_on_c, 0, 67, 100
1, 91104, Note_off_c, 0, 67, 100
1, 91104, Note_on_c, 0, 60, 100
1, 91200, Note_off_c, 0, 60, 100
1, 92304, Note_on_c, 0, 60, 100
1, 92352, Note_off_c, 0, 60, 100
1, 92352, Note_on_c, 0, 63, 100
1, 92448, Note_off_c, 0, 63, 100
1, 92448, Note_on_c, 0, 67, 100
1, 92544, Note_off_c, 0, 67, 100
1, 92544, Note_on_c, 0, 63, 100
1, 92640, Note_off_c, 0, 63, 100
1, 92640, Note_on_c, 0, 59, 100
1, 92736, Note_off_c, 0, 59, 100
1, 92736, Note_on_c, 0, 56, 100
1, 92832, Note_off_c, 0, 56, 100
1, 92832, Note_on_c, 0, 61, 100
1, 92928, Note_off_c, 0, 61, 100
1, 92928, Note_on_c, 0, 58, 100
1, 93024, Note_off_c, 0, 58, 100
1, 93024, Note_on_c, 0, 61, 100
1, 93120, Note_off_c, 0, 61, 100
1, 93120, Note_on_c, 0, 66, 100
1, 93216, Note_off_c, 0, 66, 100
1, 93216, Note_on_c, 0, 70, 100
1, 93312, Note_off_c, 0, 70, 100
1, 93312, Note_on_c, 0, 69, 100
1, 93408, Note_off_c, 0, 69, 100
1, 93408, Note_on_c, 0, 68, 100
1, 93504, Note_off_c, 0, 68, 100
1, 93504, Note_on_c, 0, 67, 100
1, 93600, Note_off_c, 0, 67, 100
1, 93600, Note_on_c, 0, 71, 100
1, 93696, Note_off_c, 0, 71, 100
1, 93696, Note_on_c, 0, 69, 100
1, 93792, Note_off_c, 0, 69, 100
1, 93792, Note_on_c, 0, 66, 100
1, 93888, Note_off_c, 0, 66, 100
1, 93888, Note_on_c, 0, 64, 100
1, 93984, Note_off_c, 0, 64, 100
1, 93984, Note_on_c, 0, 62, 100
1, 94080, Note_off_c, 0, 62, 100
1, 94080, Note_on_c, 0, 65, 100
1, 94272, Note_off_c, 0, 65, 100
1, 94272, Note_on_c, 0, 69, 100
1, 94368, Note_off_c, 0, 69, 100
1, 94368, Note_on_c, 0, 67, 100
1, 94464, Note_off_c, 0, 67, 100
1, 94464, Note_on_c, 0, 65, 100
1, 94560, Note_off_c, 0, 65, 100
1, 94560, Note_on_c, 0, 63, 100
1, 94656, Note_off_c, 0, 63, 100
1, 94656, Note_on_c, 0, 62, 100
1, 94752, Note_off_c, 0, 62, 100
1, 94752, Note_on_c, 0, 60, 100
1, 94848, Note_off_c, 0, 60, 100
1, 94848, Note_on_c, 0, 58, 100
1, 94944, Note_off_c, 0, 58, 100
1, 94944, Note_on_c, 0, 60, 100
1, 95040, Note_off_c, 0, 60, 100
1, 95040, Note_on_c, 0, 62, 100
1, 95088, Note_off_c, 0, 62, 100
1, 95088, Note_on_c, 0, 65, 100
1, 95184, Note_off_c, 0, 65, 100
1, 95184, Note_on_c, 0, 69, 100
1, 95232, Note_off_c, 0, 69, 100
1, 95232, Note_on_c, 0, 72, 100
1, 95808, Note_off_c, 0, 72, 100
1, 95808, Note_on_c, 0, 71, 100
1, 95904, Note_off_c, 0, 71, 100
1, 95904, Note_on_c, 0, 72, 100
1, 96000, Note_off_c, 0, 72, 100
1, 96000, Note_on_c, 0, 69, 100
1, 96096, Note_off_c, 0, 69, 100
1, 96096, Note_on_c, 0, 72, 100
1, 96384, Note_off_c, 0, 72, 100
1, 96384, Note_on_c, 0, 69, 100
1, 96672, Note_off_c, 0, 69, 100
1, 96672, Note_on_c, 0, 67, 100
1, 96768, Note_off_c, 0, 67, 100
1, 96768, Note_on_c, 0, 65, 100
1, 96864, Note_off_c, 0, 65, 100
1, 96864, Note_on_c, 0, 63, 100
1, 96960, Note_off_c, 0, 63, 100
1, 96960, Note_on_c, 0, 62, 100
1, 97056, Note_off_c, 0, 62, 100
1, 97056, Note_on_c, 0, 60, 100
1, 97152, Note_off_c, 0, 60, 100
1, 97152, Note_on_c, 0, 58, 100
1, 97248, Note_off_c, 0, 58, 100
1, 97248, Note_on_c, 0, 60, 100
1, 97344, Note_off_c, 0, 60, 100
1, 97344, Note_on_c, 0, 62, 100
1, 97440, Note_off_c, 0, 62, 100
1, 97440, Note_on_c, 0, 69, 100
1, 97536, Note_off_c, 0, 69, 100
1, 97536, Note_on_c, 0, 72, 100
1, 97584, Note_off_c, 0, 72, 100
1, 97584, Note_on_c, 0, 75, 100
1, 97776, Note_off_c, 0, 75, 100
1, 97776, Note_on_c, 0, 72, 100
1, 97872, Note_off_c, 0, 72, 100
1, 97872, Note_on_c, 0, 75, 100
1, 98064, Note_off_c, 0, 75, 100
1, 98064, Note_on_c, 0, 72, 100
1, 98165, Note_off_c, 0, 72, 100
1, 98165, End_track
0, 0, End_of_file
