0, 0, Header, 1, 1, 192
1, 0, Start_track
1, 0, Title_t, "Melody"
1, 0, Tempo, 206896
1, 0, Key_signature, -3, "major"
1, 0, Time_signature, 4, 2, 24, 8
1, 720, Note_on_c, 0, 61, 100
1, 864, Note_off_c, 0, 61, 100
1, 864, Note_on_c, 0, 64, 100
1, 960, Note_off_c, 0, 64, 100
1, 960, Note_on_c, 0, 68, 100
1, 1056, Note_off_c, 0, 68, 100
1, 1056, Note_on_c, 0, 71, 100
1, 1152, Note_off_c, 0, 71, 100
1, 1152, Note_on_c, 0, 70, 100
1, 1440, Note_off_c, 0, 70, 100
1, 1440, Note_on_c, 0, 68, 100
1, 1536, Note_off_c, 0, 68, 100
1, 1536, Note_on_c, 0, 66, 100
1, 1632, Note_off_c, 0, 66, 100
1, 1632, Note_on_c, 0, 63, 100
1, 1728, Note_off_c, 0, 63, 100
1, 1728, Note_on_c, 0, 59, 100
1, 1824, Note_off_c, 0, 59, 100
1, 1824, Note_on_c, 0, 56, 100
1, 1968, Note_off_c, 0, 56, 100
1, 1968, Note_on_c, 0, 62, 100
1, 2064, Note_off_c, 0, 62, 100
1, 2064, Note_on_c, 0, 64, 100
1, 2112, Note_off_c, 0, 64, 100
1, 2112, Note_on_c, 0, 66, 100
1, 2208, Note_off_c, 0, 66, 100
1, 2208, Note_on_c, 0, 69, 100
1, 2304, Note_off_c, 0, 69, 100
1, 2304, Note_on_c, 0, 67, 100
1, 2400, Note_off_c, 0, 67, 100
1, 2400, Note_on_c, 0, 62, 100
1, 2496, Note_off_c, 0, 62, 100
1, 2496, Note_on_c, 0, 59, 100
1, 2592, Note_off_c, 0, 59, 100
1, 2592, Note_on_c, 0, 55, 100
1, 2688, Note_off_c, 0, 55, 100
1, 2688, Note_on_c, 0, 58, 100
1, 2752, Note_off_c, 0, 58, 100
1, 2752, Note_on_c, 0, 59, 100
1, 2816, Note_off_c, 0, 59, 100
1, 2816, Note_on_c, 0, 56, 100
1, 2880, Note_off_c, 0, 56, 100
1, 2880, Note_on_c, 0, 55, 100
1, 2976, Note_off_c, 0, 55, 100
1, 2976, Note_on_c, 0, 53, 100
1, 3072, Note_off_c, 0, 53, 100
1, 3072, Note_on_c, 0, 51, 100
1, 3168, Note_off_c, 0, 51, 100
1, 3168, Note_on_c, 0, 53, 100
1, 3264, Note_off_c, 0, 53, 100
1, 3264, Note_on_c, 0, 55, 100
1, 3360, Note_off_c, 0, 55, 100
1, 3360, Note_on_c, 0, 56, 100
1, 3456, Note_off_c, 0, 56, 100
1, 3456, Note_on_c, 0, 58, 100
1, 3552, Note_off_c, 0, 58, 100
1, 3552, Note_on_c, 0, 60, 100
1, 3648, Note_off_c, 0, 60, 100
1, 3648, Note_on_c, 0, 62, 100
1, 3775, Note_off_c, 0, 62, 100
1, 3775, Note_on_c, 0, 65, 100
1, 3887, Note_off_c, 0, 65, 100
1, 3887, Note_on_c, 0, 64, 100
1, 3983, Note_off_c, 0, 64, 100
1, 3983, Note_on_c, 0, 60, 100
1, 4095, Note_off_c, 0, 60, 100
1, 4095, Note_on_c, 0, 56, 100
1, 4159, Note_off_c, 0, 56, 100
1, 4159, Note_on_c, 0, 55, 100
1, 4223, Note_off_c, 0, 55, 100
1, 4223, Note_on_c, 0, 54, 100
1, 4319, Note_off_c, 0, 54, 100
1, 4319, Note_on_c, 0, 63, 100
1, 4415, Note_off_c, 0, 63, 100
1, 4415, Note_on_c, 0, 62, 100
1, 4511, Note_off_c, 0, 62, 100
1, 4511, Note_on_c, 0, 60, 100
1, 4607, Note_off_c, 0, 60, 100
1, 4607, Note_on_c, 0, 59, 100
1, 4703, Note_off_c, 0, 59, 100
1, 4703, Note_on_c, 0, 62, 100
1, 4799, Note_off_c, 0, 62, 100
1, 4799, Note_on_c, 0, 67, 100
1, 4895, Note_off_c, 0, 67, 100
1, 4895, Note_on_c, 0, 71, 100
1, 4991, Note_off_c, 0, 71, 100
1, 4991, Note_on_c, 0, 62, 100
1, 5087, Note_off_c, 0, 62, 100
1, 5087, Note_on_c, 0, 65, 100
1, 5183, Note_off_c, 0, 65, 100
1, 5183, Note_on_c, 0, 68, 100
1, 5279, Note_off_c, 0, 68, 100
1, 5279, Note_on_c, 0, 72, 100
1, 5375, Note_off_c, 0, 72, 100
1, 5375, Note_on_c, 0, 63, 100
1, 5471, Note_off_c, 0, 63, 100
1, 5471, Note_on_c, 0, 65, 100
1, 5567, Note_off_c, 0, 65, 100
1, 5567, Note_on_c, 0, 67, 100
1, 5663, Note_off_c, 0, 67, 100
1, 5663, Note_on_c, 0, 70, 100
1, 5759, Note_off_c, 0, 70, 100
1, 5759, Note_on_c, 0, 64, 100
1, 5855, Note_off_c, 0, 64, 100
1, 5855, Note_on_c, 0, 68, 100
1, 5999, Note_off_c, 0, 68, 100
1, 5999, Note_on_c, 0, 70, 100
1, 6095, Note_off_c, 0, 70, 100
1, 6095, Note_on_c, 0, 73, 100
1, 6191, Note_off_c, 0, 73, 100
1, 6191, Note_on_c, 0, 70, 100
1, 6335, Note_off_c, 0, 70, 100
1, 6335, Note_on_c, 0, 68, 100
1, 6431, Note_off_c, 0, 68, 100
1, 6431, Note_on_c, 0, 66, 100
1, 6527, Note_off_c, 0, 66, 100
1, 6863, Note_on_c, 0, 70, 100
1, 7007, Note_off_c, 0, 70, 100
1, 7007, Note_on_c, 0, 69, 100
1, 7103, Note_off_c, 0, 69, 100
1, 7103, Note_on_c, 0, 68, 100
1, 7199, Note_off_c, 0, 68, 100
1, 7199, Note_on_c, 0, 67, 100
1, 7295, Note_off_c, 0, 67, 100
1, 7295, Note_on_c, 0, 65, 100
1, 7391, Note_off_c, 0, 65, 100
1, 7391, Note_on_c, 0, 63, 100
1, 7487, Note_off_c, 0, 63, 100
1, 7487, Note_on_c, 0, 62, 100
1, 7583, Note_off_c, 0, 62, 100
1, 7583, Note_on_c, 0, 60, 100
1, 7727, Note_off_c, 0, 60, 100
1, 7727, Note_on_c, 0, 58, 100
1, 7823, Note_off_c, 0, 58, 100
1, 7823, Note_on_c, 0, 68, 100
1, 7871, Note_off_c, 0, 68, 100
1, 7871, Note_on_c, 0, 67, 100
1, 7967, Note_off_c, 0, 67, 100
1, 7967, Note_on_c, 0, 62, 100
1, 8111, Note_off_c, 0, 62, 100
1, 8111, Note_on_c, 0, 65, 100
1, 8207, Note_off_c, 0, 65, 100
1, 8207, Note_on_c, 0, 63, 100
1, 8303, Note_off_c, 0, 63, 100
1, 8303, Note_on_c, 0, 62, 100
1, 8399, Note_off_c, 0, 62, 100
1, 8399, Note_on_c, 0, 65, 100
1, 8447, Note_off_c, 0, 65, 100
1, 8447, Note_on_c, 0, 64, 100
1, 8543, Note_off_c, 0, 64, 100
1, 8543, Note_on_c, 0, 60, 100
1, 8639, Note_off_c, 0, 60, 100
1, 8639, Note_on_c, 0, 57, 100
1, 8735, Note_off_c, 0, 57, 100
1, 8735, Note_on_c, 0, 52, 100
1, 8831, Note_off_c, 0, 52, 100
1, 8831, Note_on_c, 0, 55, 100
1, 8927, Note_off_c, 0, 55, 100
1, 8927, Note_on_c, 0, 52, 100
1, 9023, Note_off_c, 0, 52, 100
1, 9023, Note_on_c, 0, 54, 100
1, 9119, Note_off_c, 0, 54, 100
1, 9119, Note_on_c, 0, 63, 100
1, 9215, Note_off_c, 0, 63, 100
1, 9215, Note_on_c, 0, 62, 100
1, 9343, Note_off_c, 0, 62, 100
1, 9343, Note_on_c, 0, 60, 100
1, 9407, Note_off_c, 0, 60, 100
1, 9407, Note_on_c, 0, 59, 100
1, 9503, Note_off_c, 0, 59, 100
1, 9503, Note_on_c, 0, 57, 100
1, 9599, Note_off_c, 0, 57, 100
1, 9599, Note_on_c, 0, 55, 100
1, 9695, Note_off_c, 0, 55, 100
1, 9695, Note_on_c, 0, 57, 100
1, 9791, Note_off_c, 0, 57, 100
1, 9791, Note_on_c, 0, 59, 100
1, 9887, Note_off_c, 0, 59, 100
1, 9887, Note_on_c, 0, 62, 100
1, 9935, Note_off_c, 0, 62, 100
1, 9935, Note_on_c, 0, 63, 100
1, 10079, Note_off_c, 0, 63, 100
1, 10079, Note_on_c, 0, 61, 100
1, 10175, Note_off_c, 0, 61, 100
1, 10175, Note_on_c, 0, 59, 100
1, 10271, Note_off_c, 0, 59, 100
1, 10271, Note_on_c, 0, 58, 100
1, 10463, Note_off_c, 0, 58, 100
1, 10463, Note_on_c, 0, 54, 100
1, 10559, Note_off_c, 0, 54, 100
1, 10559, Note_on_c, 0, 56, 100
1, 10655, Note_off_c, 0, 56, 100
1, 10655, Note_on_c, 0, 58, 100
1, 10751, Note_off_c, 0, 58, 100
1, 10751, Note_on_c, 0, 59, 100
1, 10847, Note_off_c, 0, 59, 100
1, 10847, Note_on_c, 0, 61, 100
1, 10943, Note_off_c, 0, 61, 100
1, 10943, Note_on_c, 0, 63, 100
1, 11039, Note_off_c, 0, 63, 100
1, 11039, Note_on_c, 0, 66, 100
1, 11135, Note_off_c, 0, 66, 100
1, 11135, Note_on_c, 0, 70, 100
1, 11231, Note_off_c, 0, 70, 100
1, 11231, Note_on_c, 0, 69, 100
1, 11327, Note_off_c, 0, 69, 100
1, 11327, Note_on_c, 0, 68, 100
1, 11423, Note_off_c, 0, 68, 100
1, 11423, Note_on_c, 0, 67, 100
1, 11519, Note_off_c, 0, 67, 100
1, 11519, Note_on_c, 0, 65, 100
1, 11615, Note_off_c, 0, 65, 100
1, 11903, Note_on_c, 0, 67, 100
1, 11999, Note_off_c, 0, 67, 100
1, 11999, Note_on_c, 0, 66, 100
1, 12095, Note_off_c, 0, 66, 100
1, 12095, Note_on_c, 0, 65, 100
1, 12191, Note_off_c, 0, 65, 100
1, 12191, Note_on_c, 0, 62, 100
1, 12287, Note_off_c, 0, 62, 100
1, 12287, Note_on_c, 0, 63, 100
1, 12383, Note_off_c, 0, 63, 100
1, 12383, Note_on_c, 0, 65, 100
1, 12575, Note_off_c, 0, 65, 100
1, 12575, Note_on_c, 0, 70, 100
1, 12671, Note_off_c, 0, 70, 100
1, 12671, Note_on_c, 0, 75, 100
1, 12815, Note_off_c, 0, 75, 100
1, 12815, Note_on_c, 0, 70, 100
1, 13007, Note_off_c, 0, 70, 100
1, 13247, Note_on_c, 0, 70, 100
1, 13343, Note_off_c, 0, 70, 100
1, 13343, Note_on_c, 0, 71, 100
1, 13439, Note_off_c, 0, 71, 100
1, 13439, Note_on_c, 0, 70, 100
1, 13727, Note_off_c, 0, 70, 100
1, 13727, Note_on_c, 0, 66, 100
1, 13823, Note_off_c, 0, 66, 100
1, 13823, Note_on_c, 0, 70, 100
1, 13871, Note_off_c, 0, 70, 100
1, 13871, Note_on_c, 0, 71, 100
1, 13919, Note_off_c, 0, 71, 100
1, 13919, Note_on_c, 0, 73, 100
1, 13967, Note_off_c, 0, 73, 100
1, 13967, Note_on_c, 0, 74, 100
1, 14543, Note_off_c, 0, 74, 100
1, 14543, Note_on_c, 0, 72, 100
1, 14591, Note_off_c, 0, 72, 100
1, 14591, Note_on_c, 0, 71, 100
1, 14687, Note_off_c, 0, 71, 100
1, 14687, Note_on_c, 0, 62, 100
1, 14783, Note_off_c, 0, 62, 100
1, 14783, Note_on_c, 0, 67, 100
1, 14879, Note_off_c, 0, 67, 100
1, 14879, Note_on_c, 0, 71, 100
1, 14975, Note_off_c, 0, 71, 100
1, 14975, Note_on_c, 0, 70, 100
1, 15071, Note_off_c, 0, 70, 100
1, 15071, Note_on_c, 0, 69, 100
1, 15119, Note_off_c, 0, 69, 100
1, 15119, Note_on_c, 0, 68, 100
1, 15263, Note_off_c, 0, 68, 100
1, 15263, Note_on_c, 0, 72, 100
1, 15359, Note_off_c, 0, 72, 100
1, 15359, Note_on_c, 0, 70, 100
1, 15455, Note_off_c, 0, 70, 100
1, 15455, Note_on_c, 0, 67, 100
1, 15551, Note_off_c, 0, 67, 100
1, 15551, Note_on_c, 0, 65, 100
1, 15647, Note_off_c, 0, 65, 100
1, 15647, Note_on_c, 0, 63, 100
1, 15743, Note_off_c, 0, 63, 100
1, 15743, Note_on_c, 0, 67, 100
1, 15839, Note_off_c, 0, 67, 100
1, 15839, Note_on_c, 0, 63, 100
1, 15935, Note_off_c, 0, 63, 100
1, 16127, Note_on_c, 0, 67, 100
1, 16165, Note_off_c, 0, 67, 100
1, 16165, Note_on_c, 0, 69, 100
1, 16203, Note_off_c, 0, 69, 100
1, 16203, Note_on_c, 0, 70, 100
1, 16241, Note_off_c, 0, 70, 100
1, 16241, Note_on_c, 0, 73, 100
1, 16279, Note_off_c, 0, 73, 100
1, 16279, Note_on_c, 0, 74, 100
1, 16413, Note_off_c, 0, 74, 100
1, 16413, Note_on_c, 0, 70, 100
1, 16605, Note_off_c, 0, 70, 100
1, 16605, Note_on_c, 0, 66, 100
1, 16701, Note_off_c, 0, 66, 100
1, 16701, Note_on_c, 0, 62, 100
1, 16797, Note_off_c, 0, 62, 100
1, 16989, Note_on_c, 0, 62, 100
1, 17085, Note_off_c, 0, 62, 100
1, 17085, Note_on_c, 0, 67, 100
1, 17181, Note_off_c, 0, 67, 100
1, 17181, Note_on_c, 0, 71, 100
1, 17277, Note_off_c, 0, 71, 100
1, 17277, Note_on_c, 0, 62, 100
1, 17373, Note_off_c, 0, 62, 100
1, 17373, Note_on_c, 0, 65, 100
1, 17469, Note_off_c, 0, 65, 100
1, 17469, Note_on_c, 0, 68, 100
1, 17565, Note_off_c, 0, 68, 100
1, 17565, Note_on_c, 0, 72, 100
1, 17661, Note_off_c, 0, 72, 100
1, 17661, Note_on_c, 0, 63, 100
1, 17757, Note_off_c, 0, 63, 100
1, 17757, Note_on_c, 0, 65, 100
1, 17853, Note_off_c, 0, 65, 100
1, 17853, Note_on_c, 0, 67, 100
1, 17949, Note_off_c, 0, 67, 100
1, 17949, Note_on_c, 0, 70, 100
1, 18045, Note_off_c, 0, 70, 100
1, 18045, Note_on_c, 0, 64, 100
1, 18237, Note_off_c, 0, 64, 100
1, 18237, Note_on_c, 0, 68, 100
1, 18333, Note_off_c, 0, 68, 100
1, 18333, Note_on_c, 0, 70, 100
1, 18429, Note_off_c, 0, 70, 100
1, 18429, Note_on_c, 0, 66, 100
1, 18765, Note_off_c, 0, 66, 100
1, 18765, Note_on_c, 0, 63, 100
1, 18877, Note_off_c, 0, 63, 100
1, 18877, Note_on_c, 0, 61, 100
1, 19005, Note_off_c, 0, 61, 100
1, 19005, Note_on_c, 0, 60, 100
1, 19101, Note_off_c, 0, 60, 100
1, 19101, Note_on_c, 0, 59, 100
1, 19197, Note_off_c, 0, 59, 100
1, 19197, Note_on_c, 0, 55, 100
1, 19293, Note_off_c, 0, 55, 100
1, 19293, Note_on_c, 0, 60, 100
1, 19389, Note_off_c, 0, 60, 100
1, 19389, Note_on_c, 0, 62, 100
1, 19485, Note_off_c, 0, 62, 100
1, 19485, Note_on_c, 0, 63, 100
1, 19581, Note_off_c, 0, 63, 100
1, 19581, Note_on_c, 0, 60, 100
1, 19629, Note_off_c, 0, 60, 100
1, 19629, Note_on_c, 0, 67, 100
1, 19725, Note_off_c, 0, 67, 100
1, 19725, Note_on_c, 0, 65, 100
1, 19821, Note_off_c, 0, 65, 100
1, 19821, Note_on_c, 0, 62, 100
1, 19917, Note_off_c, 0, 62, 100
1, 19917, Note_on_c, 0, 60, 100
1, 20013, Note_off_c, 0, 60, 100
1, 20013, Note_on_c, 0, 58, 100
1, 20109, Note_off_c, 0, 58, 100
1, 20349, Note_on_c, 0, 68, 100
1, 20413, Note_off_c, 0, 68, 100
1, 20413, Note_on_c, 0, 67, 100
1, 20477, Note_off_c, 0, 67, 100
1, 20477, Note_on_c, 0, 63, 100
1, 20573, Note_off_c, 0, 63, 100
1, 20829, Note_on_c, 0, 57, 100
1, 21021, Note_off_c, 0, 57, 100
1, 21021, Note_on_c, 0, 67, 100
1, 21117, Note_off_c, 0, 67, 100
1, 21117, Note_on_c, 0, 71, 100
1, 21213, Note_off_c, 0, 71, 100
1, 21213, Note_on_c, 0, 69, 100
1, 21261, Note_off_c, 0, 69, 100
1, 21261, Note_on_c, 0, 66, 100
1, 21405, Note_off_c, 0, 66, 100
1, 21405, Note_on_c, 0, 64, 100
1, 21501, Note_off_c, 0, 64, 100
1, 21501, Note_on_c, 0, 62, 100
1, 21549, Note_off_c, 0, 62, 100
1, 21549, Note_on_c, 0, 64, 100
1, 21645, Note_off_c, 0, 64, 100
1, 21645, Note_on_c, 0, 66, 100
1, 21741, Note_off_c, 0, 66, 100
1, 21741, Note_on_c, 0, 69, 100
1, 21837, Note_off_c, 0, 69, 100
1, 21837, Note_on_c, 0, 67, 100
1, 21949, Note_off_c, 0, 67, 100
1, 21949, Note_on_c, 0, 69, 100
1, 22013, Note_off_c, 0, 69, 100
1, 22013, Note_on_c, 0, 71, 100
1, 22125, Note_off_c, 0, 71, 100
1, 22125, Note_on_c, 0, 70, 100
1, 22269, Note_off_c, 0, 70, 100
1, 22269, Note_on_c, 0, 71, 100
1, 22749, Note_off_c, 0, 71, 100
1, 22989, Note_on_c, 0, 70, 100
1, 23133, Note_off_c, 0, 70, 100
1, 23133, Note_on_c, 0, 66, 100
1, 23229, Note_off_c, 0, 66, 100
1, 23229, Note_on_c, 0, 68, 100
1, 23325, Note_off_c, 0, 68, 100
1, 23325, Note_on_c, 0, 70, 100
1, 23421, Note_off_c, 0, 70, 100
1, 23421, Note_on_c, 0, 66, 100
1, 23517, Note_off_c, 0, 66, 100
1, 23517, Note_on_c, 0, 63, 100
1, 23613, Note_off_c, 0, 63, 100
1, 23613, Note_on_c, 0, 61, 100
1, 23709, Note_off_c, 0, 61, 100
1, 23709, Note_on_c, 0, 59, 100
1, 23805, Note_off_c, 0, 59, 100
1, 23805, Note_on_c, 0, 60, 100
1, 23901, Note_off_c, 0, 60, 100
1, 23901, Note_on_c, 0, 62, 100
1, 23997, Note_off_c, 0, 62, 100
1, 23997, Note_on_c, 0, 63, 100
1, 24093, Note_off_c, 0, 63, 100
1, 24093, Note_on_c, 0, 60, 100
1, 24189, Note_off_c, 0, 60, 100
1, 24189, Note_on_c, 0, 67, 100
1, 24285, Note_off_c, 0, 67, 100
1, 24285, Note_on_c, 0, 65, 100
1, 24381, Note_off_c, 0, 65, 100
1, 24381, Note_on_c, 0, 62, 100
1, 24509, Note_off_c, 0, 62, 100
1, 24509, Note_on_c, 0, 60, 100
1, 24573, Note_off_c, 0, 60, 100
1, 24573, Note_on_c, 0, 58, 100
1, 24861, Note_off_c, 0, 58, 100
1, 24861, Note_on_c, 0, 67, 100
1, 24957, Note_off_c, 0, 67, 100
1, 25437, Note_on_c, 0, 61, 100
1, 25533, Note_off_c, 0, 61, 100
1, 25533, Note_on_c, 0, 64, 100
1, 25597, Note_off_c, 0, 64, 100
1, 25597, Note_on_c, 0, 68, 100
1, 25661, Note_off_c, 0, 68, 100
1, 25661, Note_on_c, 0, 70, 100
1, 25725, Note_off_c, 0, 70, 100
1, 25725, Note_on_c, 0, 66, 100
1, 25821, Note_off_c, 0, 66, 100
1, 25821, Note_on_c, 0, 67, 100
1, 25917, Note_off_c, 0, 67, 100
1, 25917, Note_on_c, 0, 70, 100
1, 26013, Note_off_c, 0, 70, 100
1, 26013, Note_on_c, 0, 73, 100
1, 26109, Note_off_c, 0, 73, 100
1, 26109, Note_on_c, 0, 70, 100
1, 26205, Note_off_c, 0, 70, 100
1, 26205, Note_on_c, 0, 61, 100
1, 26301, Note_off_c, 0, 61, 100
1, 26301, Note_on_c, 0, 63, 100
1, 26445, Note_off_c, 0, 63, 100
1, 26445, Note_on_c, 0, 65, 100
1, 26493, Note_off_c, 0, 65, 100
1, 26493, Note_on_c, 0, 62, 100
1, 26589, Note_off_c, 0, 62, 100
1, 26589, Note_on_c, 0, 64, 100
1, 26685, Note_off_c, 0, 64, 100
1, 26685, Note_on_c, 0, 66, 100
1, 26781, Note_off_c, 0, 66, 100
1, 26781, Note_on_c, 0, 69, 100
1, 26877, Note_off_c, 0, 69, 100
1, 26877, Note_on_c, 0, 67, 100
1, 26973, Note_off_c, 0, 67, 100
1, 26973, Note_on_c, 0, 62, 100
1, 27069, Note_off_c, 0, 62, 100
1, 27069, Note_on_c, 0, 59, 100
1, 27261, Note_off_c, 0, 59, 100
1, 27261, Note_on_c, 0, 60, 100
1, 27357, Note_off_c, 0, 60, 100
1, 27357, Note_on_c, 0, 56, 100
1, 27453, Note_off_c, 0, 56, 100
1, 27453, Note_on_c, 0, 55, 100
1, 27549, Note_off_c, 0, 55, 100
1, 27549, Note_on_c, 0, 53, 100
1, 27645, Note_off_c, 0, 53, 100
1, 27645, Note_on_c, 0, 51, 100
1, 27741, Note_off_c, 0, 51, 100
1, 27741, Note_on_c, 0, 53, 100
1, 27837, Note_off_c, 0, 53, 100
1, 27837, Note_on_c, 0, 55, 100
1, 27933, Note_off_c, 0, 55, 100
1, 27933, Note_on_c, 0, 56, 100
1, 28029, Note_off_c, 0, 56, 100
1, 28029, Note_on_c, 0, 58, 100
1, 28125, Note_off_c, 0, 58, 100
1, 28125, Note_on_c, 0, 60, 100
1, 28221, Note_off_c, 0, 60, 100
1, 28221, Note_on_c, 0, 62, 100
1, 28317, Note_off_c, 0, 62, 100
1, 28317, Note_on_c, 0, 65, 100
1, 28413, Note_off_c, 0, 65, 100
1, 28413, Note_on_c, 0, 64, 100
1, 28509, Note_off_c, 0, 64, 100
1, 28509, Note_on_c, 0, 68, 100
1, 28605, Note_off_c, 0, 68, 100
1, 28605, Note_on_c, 0, 67, 100
1, 28701, Note_off_c, 0, 67, 100
1, 28861, Note_on_c, 0, 71, 100
1, 28989, Note_off_c, 0, 71, 100
1, 28989, Note_on_c, 0, 62, 100
1, 29085, Note_off_c, 0, 62, 100
1, 29085, Note_on_c, 0, 64, 100
1, 29181, Note_off_c, 0, 64, 100
1, 29181, Note_on_c, 0, 66, 100
1, 29245, Note_off_c, 0, 66, 100
1, 29245, Note_on_c, 0, 67, 100
1, 29309, Note_off_c, 0, 67, 100
1, 29309, Note_on_c, 0, 67, 100
1, 29373, Note_off_c, 0, 67, 100
1, 29373, Note_on_c, 0, 69, 100
1, 29437, Note_off_c, 0, 69, 100
1, 29437, Note_on_c, 0, 71, 100
1, 29501, Note_off_c, 0, 71, 100
1, 29501, Note_on_c, 0, 74, 100
1, 29613, Note_off_c, 0, 74, 100
1, 29613, Note_on_c, 0, 68, 100
1, 29709, Note_off_c, 0, 68, 100
1, 29709, Note_on_c, 0, 72, 100
1, 29757, Note_off_c, 0, 72, 100
1, 29757, Note_on_c, 0, 71, 100
1, 29805, Note_off_c, 0, 71, 100
1, 29805, Note_on_c, 0, 70, 100
1, 29853, Note_off_c, 0, 70, 100
1, 29853, Note_on_c, 0, 68, 100
1, 29949, Note_off_c, 0, 68, 100
1, 29949, Note_on_c, 0, 67, 100
1, 30141, Note_off_c, 0, 67, 100
1, 30141, Note_on_c, 0, 65, 100
1, 30237, Note_off_c, 0, 65, 100
1, 30237, Note_on_c, 0, 67, 100
1, 30285, Note_off_c, 0, 67, 100
1, 30285, Note_on_c, 0, 67, 100
1, 30397, Note_off_c, 0, 67, 100
1, 30397, Note_on_c, 0, 64, 100
1, 30525, Note_off_c, 0, 64, 100
1, 30525, Note_on_c, 0, 66, 100
1, 30589, Note_off_c, 0, 66, 100
1, 30589, Note_on_c, 0, 68, 100
1, 30653, Note_off_c, 0, 68, 100
1, 30653, Note_on_c, 0, 70, 100
1, 30717, Note_off_c, 0, 70, 100
1, 30717, Note_on_c, 0, 73, 100
1, 30957, Note_off_c, 0, 73, 100
1, 30957, Note_on_c, 0, 70, 100
1, 31053, Note_off_c, 0, 70, 100
1, 31053, Note_on_c, 0, 68, 100
1, 31165, Note_off_c, 0, 68, 100
1, 31165, Note_on_c, 0, 66, 100
1, 31229, Note_off_c, 0, 66, 100
1, 31229, Note_on_c, 0, 63, 100
1, 31325, Note_off_c, 0, 63, 100
1, 31773, Note_on_c, 0, 70, 100
1, 31821, Note_off_c, 0, 70, 100
1, 31821, Note_on_c, 0, 72, 100
1, 31869, Note_off_c, 0, 72, 100
1, 31869, Note_on_c, 0, 74, 100
1, 32061, Note_off_c, 0, 74, 100
1, 32061, Note_on_c, 0, 70, 100
1, 32157, Note_off_c, 0, 70, 100
1, 32157, Note_on_c, 0, 73, 100
1, 32205, Note_off_c, 0, 73, 100
1, 32205, Note_on_c, 0, 72, 100
1, 32253, Note_off_c, 0, 72, 100
1, 32253, Note_on_c, 0, 71, 100
1, 32301, Note_off_c, 0, 71, 100
1, 32301, Note_on_c, 0, 70, 100
1, 32349, Note_off_c, 0, 70, 100
1, 32349, Note_on_c, 0, 68, 100
1, 32445, Note_off_c, 0, 68, 100
1, 32445, Note_on_c, 0, 67, 100
1, 32541, Note_off_c, 0, 67, 100
1, 32541, Note_on_c, 0, 65, 100
1, 32637, Note_off_c, 0, 65, 100
1, 32637, Note_on_c, 0, 63, 100
1, 32781, Note_off_c, 0, 63, 100
1, 32781, Note_on_c, 0, 65, 100
1, 32944, Note_off_c, 0, 65, 100
1, 32944, Note_on_c, 0, 67, 100
1, 32982, Note_off_c, 0, 67, 100
1, 32982, Note_on_c, 0, 70, 100
1, 33058, Note_off_c, 0, 70, 100
1, 33058, Note_on_c, 0, 71, 100
1, 33096, Note_off_c, 0, 71, 100
1, 33096, Note_on_c, 0, 72, 100
1, 33134, Note_off_c, 0, 72, 100
1, 33134, Note_on_c, 0, 73, 100
1, 33172, Note_off_c, 0, 73, 100
1, 33172, Note_on_c, 0, 74, 100
1, 33690, Note_off_c, 0, 74, 100
1, 33690, Note_on_c, 0, 73, 100
1, 33738, Note_off_c, 0, 73, 100
1, 33738, Note_on_c, 0, 72, 100
1, 33786, Note_off_c, 0, 72, 100
1, 33786, Note_on_c, 0, 71, 100
1, 33914, Note_off_c, 0, 71, 100
1, 33914, Note_on_c, 0, 66, 100
1, 33978, Note_off_c, 0, 66, 100
1, 33978, Note_on_c, 0, 69, 100
1, 34074, Note_off_c, 0, 69, 100
1, 34074, Note_on_c, 0, 66, 100
1, 34170, Note_off_c, 0, 66, 100
1, 34170, Note_on_c, 0, 67, 100
1, 34266, Note_off_c, 0, 67, 100
1, 34266, Note_on_c, 0, 62, 100
1, 34362, Note_off_c, 0, 62, 100
1, 34362, Note_on_c, 0, 59, 100
1, 34458, Note_off_c, 0, 59, 100
1, 34458, Note_on_c, 0, 55, 100
1, 34554, Note_off_c, 0, 55, 100
1, 34554, Note_on_c, 0, 63, 100
1, 34650, Note_off_c, 0, 63, 100
1, 34650, Note_on_c, 0, 59, 100
1, 34746, Note_off_c, 0, 59, 100
1, 34746, Note_on_c, 0, 58, 100
1, 34842, Note_off_c, 0, 58, 100
1, 34842, Note_on_c, 0, 54, 100
1, 34938, Note_off_c, 0, 54, 100
1, 34938, Note_on_c, 0, 56, 100
1, 35034, Note_off_c, 0, 56, 100
1, 35034, Note_on_c, 0, 54, 100
1, 35130, Note_off_c, 0, 54, 100
1, 35130, Note_on_c, 0, 56, 100
1, 35226, Note_off_c, 0, 56, 100
1, 35226, Note_on_c, 0, 58, 100
1, 35322, Note_off_c, 0, 58, 100
1, 35322, Note_on_c, 0, 59, 100
1, 35418, Note_off_c, 0, 59, 100
1, 35418, Note_on_c, 0, 61, 100
1, 35514, Note_off_c, 0, 61, 100
1, 35514, Note_on_c, 0, 63, 100
1, 35610, Note_off_c, 0, 63, 100
1, 35610, Note_on_c, 0, 66, 100
1, 35706, Note_off_c, 0, 66, 100
1, 35706, Note_on_c, 0, 69, 100
1, 35802, Note_off_c, 0, 69, 100
1, 35802, Note_on_c, 0, 66, 100
1, 35898, Note_off_c, 0, 66, 100
1, 35898, Note_on_c, 0, 63, 100
1, 35994, Note_off_c, 0, 63, 100
1, 35994, Note_on_c, 0, 59, 100
1, 36090, Note_off_c, 0, 59, 100
1, 36090, Note_on_c, 0, 68, 100
1, 36346, Note_off_c, 0, 68, 100
1, 36346, Note_on_c, 0, 67, 100
1, 36410, Note_off_c, 0, 67, 100
1, 36410, Note_on_c, 0, 65, 100
1, 36474, Note_off_c, 0, 65, 100
1, 36474, Note_on_c, 0, 62, 100
1, 36570, Note_off_c, 0, 62, 100
1, 36570, Note_on_c, 0, 63, 100
1, 36666, Note_off_c, 0, 63, 100
1, 36666, Note_on_c, 0, 62, 100
1, 36762, Note_off_c, 0, 62, 100
1, 36762, Note_on_c, 0, 60, 100
1, 36858, Note_off_c, 0, 60, 100
1, 36858, Note_on_c, 0, 58, 100
1, 36954, Note_off_c, 0, 58, 100
1, 36954, Note_on_c, 0, 56, 100
1, 37050, Note_off_c, 0, 56, 100
1, 37050, Note_on_c, 0, 55, 100
1, 37146, Note_off_c, 0, 55, 100
1, 37146, Note_on_c, 0, 53, 100
1, 37242, Note_off_c, 0, 53, 100
1, 37242, Note_on_c, 0, 51, 100
1, 37338, Note_off_c, 0, 51, 100
1, 37338, Note_on_c, 0, 53, 100
1, 37530, Note_off_c, 0, 53, 100
1, 37530, Note_on_c, 0, 58, 100
1, 37578, Note_off_c, 0, 58, 100
1, 37578, Note_on_c, 0, 63, 100
1, 37674, Note_off_c, 0, 63, 100
1, 38490, Note_on_c, 0, 54, 100
1, 38586, Note_off_c, 0, 54, 100
1, 38586, Note_on_c, 0, 59, 100
1, 38682, Note_off_c, 0, 59, 100
1, 38682, Note_on_c, 0, 63, 100
1, 38778, Note_off_c, 0, 63, 100
1, 38778, Note_on_c, 0, 62, 100
1, 38874, Note_off_c, 0, 62, 100
1, 38874, Note_on_c, 0, 64, 100
1, 39018, Note_off_c, 0, 64, 100
1, 39018, Note_on_c, 0, 66, 100
1, 39114, Note_off_c, 0, 66, 100
1, 39114, Note_on_c, 0, 69, 100
1, 39210, Note_off_c, 0, 69, 100
1, 39210, Note_on_c, 0, 67, 100
1, 39306, Note_off_c, 0, 67, 100
1, 39306, Note_on_c, 0, 62, 100
1, 39402, Note_off_c, 0, 62, 100
1, 39402, Note_on_c, 0, 59, 100
1, 39498, Note_off_c, 0, 59, 100
1, 39498, Note_on_c, 0, 55, 100
1, 39546, Note_off_c, 0, 55, 100
1, 39546, Note_on_c, 0, 60, 100
1, 39642, Note_off_c, 0, 60, 100
1, 39642, Note_on_c, 0, 56, 100
1, 39802, Note_off_c, 0, 56, 100
1, 39802, Note_on_c, 0, 55, 100
1, 39866, Note_off_c, 0, 55, 100
1, 39866, Note_on_c, 0, 53, 100
1, 39978, Note_off_c, 0, 53, 100
1, 39978, Note_on_c, 0, 51, 100
1, 40074, Note_off_c, 0, 51, 100
1, 40074, Note_on_c, 0, 53, 100
1, 40186, Note_off_c, 0, 53, 100
1, 40186, Note_on_c, 0, 55, 100
1, 40250, Note_off_c, 0, 55, 100
1, 40250, Note_on_c, 0, 56, 100
1, 40410, Note_off_c, 0, 56, 100
1, 40410, Note_on_c, 0, 58, 100
1, 40506, Note_off_c, 0, 58, 100
1, 40506, Note_on_c, 0, 60, 100
1, 40602, Note_off_c, 0, 60, 100
1, 40602, Note_on_c, 0, 62, 100
1, 40698, Note_off_c, 0, 62, 100
1, 40698, Note_on_c, 0, 65, 100
1, 40794, Note_off_c, 0, 65, 100
1, 40794, Note_on_c, 0, 64, 100
1, 40890, Note_off_c, 0, 64, 100
1, 40890, Note_on_c, 0, 68, 100
1, 40986, Note_off_c, 0, 68, 100
1, 40986, Note_on_c, 0, 67, 100
1, 41178, Note_off_c, 0, 67, 100
1, 41178, Note_on_c, 0, 70, 100
1, 41226, Note_off_c, 0, 70, 100
1, 41226, Note_on_c, 0, 71, 100
1, 41274, Note_off_c, 0, 71, 100
1, 41274, Note_on_c, 0, 62, 100
1, 41370, Note_off_c, 0, 62, 100
1, 41370, Note_on_c, 0, 64, 100
1, 41466, Note_off_c, 0, 64, 100
1, 41466, Note_on_c, 0, 69, 100
1, 41562, Note_off_c, 0, 69, 100
1, 41562, Note_on_c, 0, 67, 100
1, 41658, Note_off_c, 0, 67, 100
1, 41658, Note_on_c, 0, 69, 100
1, 41754, Note_off_c, 0, 69, 100
1, 41754, Note_on_c, 0, 71, 100
1, 41802, Note_off_c, 0, 71, 100
1, 41802, Note_on_c, 0, 72, 100
1, 41946, Note_off_c, 0, 72, 100
1, 41946, Note_on_c, 0, 62, 100
1, 42042, Note_off_c, 0, 62, 100
1, 42042, Note_on_c, 0, 63, 100
1, 42090, Note_off_c, 0, 63, 100
1, 42090, Note_on_c, 0, 68, 100
1, 42186, Note_off_c, 0, 68, 100
1, 42186, Note_on_c, 0, 72, 100
1, 42282, Note_off_c, 0, 72, 100
1, 42282, Note_on_c, 0, 63, 100
1, 42378, Note_off_c, 0, 63, 100
1, 42378, Note_on_c, 0, 65, 100
1, 42474, Note_off_c, 0, 65, 100
1, 42474, Note_on_c, 0, 67, 100
1, 42570, Note_off_c, 0, 67, 100
1, 43002, Note_on_c, 0, 66, 100
1, 43242, Note_off_c, 0, 66, 100
1, 43242, Note_on_c, 0, 63, 100
1, 43386, Note_off_c, 0, 63, 100
1, 43386, Note_on_c, 0, 61, 100
1, 43434, Note_off_c, 0, 61, 100
1, 43434, Note_on_c, 0, 59, 100
1, 43530, Note_off_c, 0, 59, 100
1, 43530, Note_on_c, 0, 61, 100
1, 43626, Note_off_c, 0, 61, 100
1, 43626, Note_on_c, 0, 63, 100
1, 43722, Note_off_c, 0, 63, 100
1, 43722, Note_on_c, 0, 66, 100
1, 43818, Note_off_c, 0, 66, 100
1, 43818, Note_on_c, 0, 70, 100
1, 43914, Note_off_c, 0, 70, 100
1, 43914, Note_on_c, 0, 69, 100
1, 43962, Note_off_c, 0, 69, 100
1, 43962, Note_on_c, 0, 68, 100
1, 44058, Note_off_c, 0, 68, 100
1, 44058, Note_on_c, 0, 67, 100
1, 44154, Note_off_c, 0, 67, 100
1, 44154, Note_on_c, 0, 65, 100
1, 44250, Note_off_c, 0, 65, 100
1, 44250, Note_on_c, 0, 63, 100
1, 44346, Note_off_c, 0, 63, 100
1, 44346, Note_on_c, 0, 62, 100
1, 44442, Note_off_c, 0, 62, 100
1, 44442, Note_on_c, 0, 60, 100
1, 44538, Note_off_c, 0, 60, 100
1, 44538, Note_on_c, 0, 58, 100
1, 44666, Note_off_c, 0, 58, 100
1, 44666, Note_on_c, 0, 68, 100
1, 44730, Note_off_c, 0, 68, 100
1, 44730, Note_on_c, 0, 67, 100
1, 44858, Note_off_c, 0, 67, 100
1, 44858, Note_on_c, 0, 62, 100
1, 44922, Note_off_c, 0, 62, 100
1, 44922, Note_on_c, 0, 65, 100
1, 45018, Note_off_c, 0, 65, 100
1, 45018, Note_on_c, 0, 63, 100
1, 45114, Note_off_c, 0, 63, 100
1, 45114, Note_on_c, 0, 62, 100
1, 45210, Note_off_c, 0, 62, 100
1, 45210, Note_on_c, 0, 65, 100
1, 45306, Note_off_c, 0, 65, 100
1, 45306, Note_on_c, 0, 64, 100
1, 45402, Note_off_c, 0, 64, 100
1, 45402, Note_on_c, 0, 60, 100
1, 45498, Note_off_c, 0, 60, 100
1, 45498, Note_on_c, 0, 56, 100
1, 45642, Note_off_c, 0, 56, 100
1, 45642, Note_on_c, 0, 54, 100
1, 45690, Note_off_c, 0, 54, 100
1, 45690, Note_on_c, 0, 55, 100
1, 45882, Note_off_c, 0, 55, 100
1, 46074, Note_on_c, 0, 62, 100
1, 46170, Note_off_c, 0, 62, 100
1, 46410, Note_on_c, 0, 67, 100
1, 46458, Note_off_c, 0, 67, 100
1, 46458, Note_on_c, 0, 71, 100
1, 46554, Note_off_c, 0, 71, 100
1, 46938, Note_on_c, 0, 61, 100
1, 47034, Note_off_c, 0, 61, 100
1, 47034, Note_on_c, 0, 64, 100
1, 47082, Note_off_c, 0, 64, 100
1, 47082, Note_on_c, 0, 68, 100
1, 47130, Note_off_c, 0, 68, 100
1, 47130, Note_on_c, 0, 71, 100
1, 47226, Note_off_c, 0, 71, 100
1, 47226, Note_on_c, 0, 70, 100
1, 47418, Note_off_c, 0, 70, 100
1, 47418, Note_on_c, 0, 72, 100
1, 47514, Note_off_c, 0, 72, 100
1, 47514, Note_on_c, 0, 73, 100
1, 47610, Note_off_c, 0, 73, 100
1, 47610, Note_on_c, 0, 73, 100
1, 47898, Note_off_c, 0, 73, 100
1, 47898, Note_on_c, 0, 70, 100
1, 47994, Note_off_c, 0, 70, 100
1, 47994, Note_on_c, 0, 66, 100
1, 48090, Note_off_c, 0, 66, 100
1, 48090, Note_on_c, 0, 63, 100
1, 48282, Note_off_c, 0, 63, 100
1, 48282, Note_on_c, 0, 69, 100
1, 48378, Note_off_c, 0, 69, 100
1, 48378, Note_on_c, 0, 73, 100
1, 48426, Note_off_c, 0, 73, 100
1, 48426, Note_on_c, 0, 74, 100
1, 48618, Note_off_c, 0, 74, 100
1, 48618, Note_on_c, 0, 73, 100
1, 48666, Note_off_c, 0, 73, 100
1, 48666, Note_on_c, 0, 72, 100
1, 48714, Note_off_c, 0, 72, 100
1, 48714, Note_on_c, 0, 71, 100
1, 48762, Note_off_c, 0, 71, 100
1, 48762, Note_on_c, 0, 70, 100
1, 48890, Note_off_c, 0, 70, 100
1, 48890, Note_on_c, 0, 68, 100
1, 48954, Note_off_c, 0, 68, 100
1, 48954, Note_on_c, 0, 67, 100
1, 49050, Note_off_c, 0, 67, 100
1, 49050, Note_on_c, 0, 65, 100
1, 49146, Note_off_c, 0, 65, 100
1, 49146, Note_on_c, 0, 63, 100
1, 49242, Note_off_c, 0, 63, 100
1, 49242, Note_on_c, 0, 65, 100
1, 49338, Note_off_c, 0, 65, 100
1, 49338, Note_on_c, 0, 67, 100
1, 49434, Note_off_c, 0, 67, 100
1, 49434, Note_on_c, 0, 70, 100
1, 49530, Note_off_c, 0, 70, 100
1, 49530, Note_on_c, 0, 75, 100
1, 49626, Note_off_c, 0, 75, 100
1, 50010, Note_on_c, 0, 75, 100
1, 50106, Note_off_c, 0, 75, 100
1, 50106, Note_on_c, 0, 73, 100
1, 50202, Note_off_c, 0, 73, 100
1, 50202, Note_on_c, 0, 71, 100
1, 50298, Note_off_c, 0, 71, 100
1, 50298, Note_on_c, 0, 70, 100
1, 50586, Note_off_c, 0, 70, 100
1, 50586, Note_on_c, 0, 66, 100
1, 50730, Note_off_c, 0, 66, 100
1, 50730, Note_on_c, 0, 71, 100
1, 50778, Note_off_c, 0, 71, 100
1, 50778, Note_on_c, 0, 73, 100
1, 50826, Note_off_c, 0, 73, 100
1, 50826, Note_on_c, 0, 74, 100
1, 51450, Note_off_c, 0, 74, 100
1, 51450, Note_on_c, 0, 72, 100
1, 51498, Note_off_c, 0, 72, 100
1, 51498, Note_on_c, 0, 71, 100
1, 51642, Note_off_c, 0, 71, 100
1, 51642, Note_on_c, 0, 62, 100
1, 51690, Note_off_c, 0, 62, 100
1, 51690, Note_on_c, 0, 67, 100
1, 51786, Note_off_c, 0, 67, 100
1, 51786, Note_on_c, 0, 71, 100
1, 51882, Note_off_c, 0, 71, 100
1, 51882, Note_on_c, 0, 70, 100
1, 51978, Note_off_c, 0, 70, 100
1, 51978, Note_on_c, 0, 69, 100
1, 52090, Note_off_c, 0, 69, 100
1, 52090, Note_on_c, 0, 68, 100
1, 52218, Note_off_c, 0, 68, 100
1, 52218, Note_on_c, 0, 72, 100
1, 52266, Note_off_c, 0, 72, 100
1, 52266, Note_on_c, 0, 70, 100
1, 52362, Note_off_c, 0, 70, 100
1, 52362, Note_on_c, 0, 67, 100
1, 52458, Note_off_c, 0, 67, 100
1, 52458, Note_on_c, 0, 65, 100
1, 52554, Note_off_c, 0, 65, 100
1, 52554, Note_on_c, 0, 63, 100
1, 52666, Note_off_c, 0, 63, 100
1, 52666, Note_on_c, 0, 67, 100
1, 52794, Note_off_c, 0, 67, 100
1, 52794, Note_on_c, 0, 70, 100
1, 52938, Note_off_c, 0, 70, 100
1, 52938, Note_on_c, 0, 75, 100
1, 53178, Note_off_c, 0, 75, 100
1, 53178, Note_on_c, 0, 62, 100
1, 53370, Note_off_c, 0, 62, 100
1, 53370, Note_on_c, 0, 71, 100
1, 53466, Note_off_c, 0, 71, 100
1, 53466, Note_on_c, 0, 69, 100
1, 53562, Note_off_c, 0, 69, 100
1, 53946, Note_on_c, 0, 62, 100
1, 54042, Note_off_c, 0, 62, 100
1, 54042, Note_on_c, 0, 67, 100
1, 54138, Note_off_c, 0, 67, 100
1, 54138, Note_on_c, 0, 71, 100
1, 54186, Note_off_c, 0, 71, 100
1, 54186, Note_on_c, 0, 62, 100
1, 54282, Note_off_c, 0, 62, 100
1, 54282, Note_on_c, 0, 65, 100
1, 54330, Note_off_c, 0, 65, 100
1, 54330, Note_on_c, 0, 68, 100
1, 54426, Note_off_c, 0, 68, 100
1, 54426, Note_on_c, 0, 72, 100
1, 54522, Note_off_c, 0, 72, 100
1, 54522, Note_on_c, 0, 71, 100
1, 54570, Note_off_c, 0, 71, 100
1, 54570, Note_on_c, 0, 63, 100
1, 54666, Note_off_c, 0, 63, 100
1, 54666, Note_on_c, 0, 65, 100
1, 54810, Note_off_c, 0, 65, 100
1, 54810, Note_on_c, 0, 67, 100
1, 54858, Note_off_c, 0, 67, 100
1, 54858, Note_on_c, 0, 70, 100
1, 54954, Note_off_c, 0, 70, 100
1, 54954, Note_on_c, 0, 75, 100
1, 55098, Note_off_c, 0, 75, 100
1, 55098, Note_on_c, 0, 73, 100
1, 55194, Note_off_c, 0, 73, 100
1, 55194, Note_on_c, 0, 71, 100
1, 55290, Note_off_c, 0, 71, 100
1, 55290, Note_on_c, 0, 70, 100
1, 55386, Note_off_c, 0, 70, 100
1, 55386, Note_on_c, 0, 68, 100
1, 55482, Note_off_c, 0, 68, 100
1, 55482, Note_on_c, 0, 66, 100
1, 55578, Note_off_c, 0, 66, 100
1, 55578, Note_on_c, 0, 64, 100
1, 55674, Note_off_c, 0, 64, 100
1, 55674, Note_on_c, 0, 63, 100
1, 55770, Note_off_c, 0, 63, 100
1, 55770, Note_on_c, 0, 61, 100
1, 55866, Note_off_c, 0, 61, 100
1, 55866, Note_on_c, 0, 59, 100
1, 55994, Note_off_c, 0, 59, 100
1, 55994, Note_on_c, 0, 55, 100
1, 56058, Note_off_c, 0, 55, 100
1, 56058, Note_on_c, 0, 60, 100
1, 56154, Note_off_c, 0, 60, 100
1, 56154, Note_on_c, 0, 62, 100
1, 56298, Note_off_c, 0, 62, 100
1, 56298, Note_on_c, 0, 63, 100
1, 56346, Note_off_c, 0, 63, 100
1, 56346, Note_on_c, 0, 65, 100
1, 56394, Note_off_c, 0, 65, 100
1, 56394, Note_on_c, 0, 67, 100
1, 56538, Note_off_c, 0, 67, 100
1, 56538, Note_on_c, 0, 65, 100
1, 56634, Note_off_c, 0, 65, 100
1, 56634, Note_on_c, 0, 62, 100
1, 56730, Note_off_c, 0, 62, 100
1, 56730, Note_on_c, 0, 60, 100
1, 56826, Note_off_c, 0, 60, 100
1, 56826, Note_on_c, 0, 58, 100
1, 56922, Note_off_c, 0, 58, 100
1, 56922, Note_on_c, 0, 68, 100
1, 57018, Note_off_c, 0, 68, 100
1, 57018, Note_on_c, 0, 67, 100
1, 57114, Note_off_c, 0, 67, 100
1, 57114, Note_on_c, 0, 62, 100
1, 57258, Note_off_c, 0, 62, 100
1, 57258, Note_on_c, 0, 65, 100
1, 57354, Note_off_c, 0, 65, 100
1, 57354, Note_on_c, 0, 63, 100
1, 57450, Note_off_c, 0, 63, 100
1, 57450, Note_on_c, 0, 62, 100
1, 57546, Note_off_c, 0, 62, 100
1, 57546, Note_on_c, 0, 60, 100
1, 57658, Note_off_c, 0, 60, 100
1, 57658, Note_on_c, 0, 68, 100
1, 57722, Note_off_c, 0, 68, 100
1, 57722, Note_on_c, 0, 67, 100
1, 57930, Note_off_c, 0, 67, 100
1, 57930, Note_on_c, 0, 67, 100
1, 57978, Note_off_c, 0, 67, 100
1, 57978, Note_on_c, 0, 71, 100
1, 58170, Note_off_c, 0, 71, 100
1, 58170, Note_on_c, 0, 67, 100
1, 58266, Note_off_c, 0, 67, 100
1, 58266, Note_on_c, 0, 71, 100
1, 58650, Note_off_c, 0, 71, 100
1, 58650, Note_on_c, 0, 67, 100
1, 58746, Note_off_c, 0, 67, 100
1, 58746, Note_on_c, 0, 71, 100
1, 58842, Note_off_c, 0, 71, 100
1, 58842, Note_on_c, 0, 74, 100
1, 58938, Note_off_c, 0, 74, 100
1, 59226, Note_on_c, 0, 61, 100
1, 59322, Note_off_c, 0, 61, 100
1, 59322, Note_on_c, 0, 64, 100
1, 59386, Note_off_c, 0, 64, 100
1, 59386, Note_on_c, 0, 68, 100
1, 59450, Note_off_c, 0, 68, 100
1, 59450, Note_on_c, 0, 71, 100
1, 59514, Note_off_c, 0, 71, 100
1, 59514, Note_on_c, 0, 70, 100
1, 59562, Note_off_c, 0, 70, 100
1, 59562, Note_on_c, 0, 71, 100
1, 59610, Note_off_c, 0, 71, 100
1, 59610, Note_on_c, 0, 73, 100
1, 60138, Note_off_c, 0, 73, 100
1, 60138, Note_on_c, 0, 70, 100
1, 60234, Note_off_c, 0, 70, 100
1, 60234, Note_on_c, 0, 68, 100
1, 60282, Note_off_c, 0, 68, 100
1, 60282, Note_on_c, 0, 66, 100
1, 60378, Note_off_c, 0, 66, 100
1, 60378, Note_on_c, 0, 63, 100
1, 60474, Note_off_c, 0, 63, 100
1, 60474, Note_on_c, 0, 59, 100
1, 60714, Note_off_c, 0, 59, 100
1, 60714, Note_on_c, 0, 70, 100
1, 60762, Note_off_c, 0, 70, 100
1, 60762, Note_on_c, 0, 71, 100
1, 60810, Note_off_c, 0, 71, 100
1, 60810, Note_on_c, 0, 73, 100
1, 60858, Note_off_c, 0, 73, 100
1, 60858, Note_on_c, 0, 74, 100
1, 60954, Note_off_c, 0, 74, 100
1, 60954, Note_on_c, 0, 73, 100
1, 61002, Note_off_c, 0, 73, 100
1, 61002, Note_on_c, 0, 71, 100
1, 61050, Note_off_c, 0, 71, 100
1, 61050, Note_on_c, 0, 70, 100
1, 61146, Note_off_c, 0, 70, 100
1, 61146, Note_on_c, 0, 68, 100
1, 61242, Note_off_c, 0, 68, 100
1, 61242, Note_on_c, 0, 67, 100
1, 61338, Note_off_c, 0, 67, 100
1, 61338, Note_on_c, 0, 65, 100
1, 61434, Note_off_c, 0, 65, 100
1, 61434, Note_on_c, 0, 63, 100
1, 61530, Note_off_c, 0, 63, 100
1, 61530, Note_on_c, 0, 65, 100
1, 61674, Note_off_c, 0, 65, 100
1, 61674, Note_on_c, 0, 67, 100
1, 61770, Note_off_c, 0, 67, 100
1, 61770, Note_on_c, 0, 70, 100
1, 61818, Note_off_c, 0, 70, 100
1, 61818, Note_on_c, 0, 75, 100
1, 61914, Note_off_c, 0, 75, 100
1, 62250, Note_on_c, 0, 70, 100
1, 62298, Note_off_c, 0, 70, 100
1, 62298, Note_on_c, 0, 71, 100
1, 62346, Note_off_c, 0, 71, 100
1, 62346, Note_on_c, 0, 73, 100
1, 62874, Note_off_c, 0, 73, 100
1, 62874, Note_on_c, 0, 70, 100
1, 62970, Note_off_c, 0, 70, 100
1, 62970, Note_on_c, 0, 68, 100
1, 63066, Note_off_c, 0, 68, 100
1, 63066, Note_on_c, 0, 66, 100
1, 63162, Note_off_c, 0, 66, 100
1, 63162, Note_on_c, 0, 63, 100
1, 63306, Note_off_c, 0, 63, 100
1, 63306, Note_on_c, 0, 59, 100
1, 63354, Note_off_c, 0, 59, 100
1, 63354, Note_on_c, 0, 62, 100
1, 63450, Note_off_c, 0, 62, 100
1, 63450, Note_on_c, 0, 64, 100
1, 63546, Note_off_c, 0, 64, 100
1, 63546, Note_on_c, 0, 66, 100
1, 63642, Note_off_c, 0, 66, 100
1, 63642, Note_on_c, 0, 69, 100
1, 63786, Note_off_c, 0, 69, 100
1, 63786, Note_on_c, 0, 67, 100
1, 63882, Note_off_c, 0, 67, 100
1, 63882, Note_on_c, 0, 62, 100
1, 63930, Note_off_c, 0, 62, 100
1, 63930, Note_on_c, 0, 59, 100
1, 64122, Note_off_c, 0, 59, 100
1, 64122, Note_on_c, 0, 55, 100
1, 64170, Note_off_c, 0, 55, 100
1, 64170, Note_on_c, 0, 60, 100
1, 64266, Note_off_c, 0, 60, 100
1, 64266, Note_on_c, 0, 63, 100
1, 64314, Note_off_c, 0, 63, 100
1, 64314, Note_on_c, 0, 62, 100
1, 64410, Note_off_c, 0, 62, 100
1, 64410, Note_on_c, 0, 60, 100
1, 64506, Note_off_c, 0, 60, 100
1, 64506, Note_on_c, 0, 58, 100
1, 64602, Note_off_c, 0, 58, 100
1, 64602, Note_on_c, 0, 60, 100
1, 64698, Note_off_c, 0, 60, 100
1, 64698, Note_on_c, 0, 62, 100
1, 64794, Note_off_c, 0, 62, 100
1, 64794, Note_on_c, 0, 65, 100
1, 64890, Note_off_c, 0, 65, 100
1, 64890, Note_on_c, 0, 63, 100
1, 64986, Note_off_c, 0, 63, 100
1, 64986, Note_on_c, 0, 65, 100
1, 65178, Note_off_c, 0, 65, 100
1, 65178, Note_on_c, 0, 67, 100
1, 65226, Note_off_c, 0, 67, 100
1, 65226, Note_on_c, 0, 70, 100
1, 65274, Note_off_c, 0, 70, 100
1, 65274, Note_on_c, 0, 71, 100
1, 65370, Note_off_c, 0, 71, 100
1, 65370, Note_on_c, 0, 69, 100
1, 65466, Note_off_c, 0, 69, 100
1, 65466, Note_on_c, 0, 67, 100
1, 65562, Note_off_c, 0, 67, 100
1, 65562, Note_on_c, 0, 66, 100
1, 65658, Note_off_c, 0, 66, 100
1, 66138, Note_on_c, 0, 62, 100
1, 66234, Note_off_c, 0, 62, 100
1, 66234, Note_on_c, 0, 67, 100
1, 66330, Note_off_c, 0, 67, 100
1, 66330, Note_on_c, 0, 71, 100
1, 66426, Note_off_c, 0, 71, 100
1, 66426, Note_on_c, 0, 62, 100
1, 66522, Note_off_c, 0, 62, 100
1, 66522, Note_on_c, 0, 65, 100
1, 66618, Note_off_c, 0, 65, 100
1, 66618, Note_on_c, 0, 68, 100
1, 66762, Note_off_c, 0, 68, 100
1, 66762, Note_on_c, 0, 71, 100
1, 66810, Note_off_c, 0, 71, 100
1, 66810, Note_on_c, 0, 63, 100
1, 66906, Note_off_c, 0, 63, 100
1, 66906, Note_on_c, 0, 65, 100
1, 67002, Note_off_c, 0, 65, 100
1, 67002, Note_on_c, 0, 67, 100
1, 67098, Note_off_c, 0, 67, 100
1, 67098, Note_on_c, 0, 70, 100
1, 67194, Note_off_c, 0, 70, 100
1, 67194, Note_on_c, 0, 64, 100
1, 67322, Note_off_c, 0, 64, 100
1, 67322, Note_on_c, 0, 67, 100
1, 67386, Note_off_c, 0, 67, 100
1, 67386, Note_on_c, 0, 70, 100
1, 67482, Note_off_c, 0, 70, 100
1, 67482, Note_on_c, 0, 73, 100
1, 67578, Note_off_c, 0, 73, 100
1, 67578, Note_on_c, 0, 72, 100
1, 67626, Note_off_c, 0, 72, 100
1, 67626, Note_on_c, 0, 70, 100
1, 67722, Note_off_c, 0, 70, 100
1, 67722, Note_on_c, 0, 68, 100
1, 67834, Note_off_c, 0, 68, 100
1, 67834, Note_on_c, 0, 70, 100
1, 67962, Note_off_c, 0, 70, 100
1, 67962, Note_on_c, 0, 66, 100
1, 68026, Note_off_c, 0, 66, 100
1, 68026, Note_on_c, 0, 70, 100
1, 68090, Note_off_c, 0, 70, 100
1, 68090, Note_on_c, 0, 69, 100
1, 68202, Note_off_c, 0, 69, 100
1, 68202, Note_on_c, 0, 68, 100
1, 68298, Note_off_c, 0, 68, 100
1, 68298, Note_on_c, 0, 67, 100
1, 68394, Note_off_c, 0, 67, 100
1, 68394, Note_on_c, 0, 65, 100
1, 68490, Note_off_c, 0, 65, 100
1, 68490, Note_on_c, 0, 63, 100
1, 68602, Note_off_c, 0, 63, 100
1, 68602, Note_on_c, 0, 62, 100
1, 68666, Note_off_c, 0, 62, 100
1, 68666, Note_on_c, 0, 60, 100
1, 68778, Note_off_c, 0, 60, 100
1, 68778, Note_on_c, 0, 58, 100
1, 68874, Note_off_c, 0, 58, 100
1, 68874, Note_on_c, 0, 56, 100
1, 68970, Note_off_c, 0, 56, 100
1, 68970, Note_on_c, 0, 55, 100
1, 69066, Note_off_c, 0, 55, 100
1, 69066, Note_on_c, 0, 53, 100
1, 69114, Note_off_c, 0, 53, 100
1, 69114, Note_on_c, 0, 51, 100
1, 69178, Note_off_c, 0, 51, 100
1, 69178, Note_on_c, 0, 53, 100
1, 69242, Note_off_c, 0, 53, 100
1, 69242, Note_on_c, 0, 55, 100
1, 69306, Note_off_c, 0, 55, 100
1, 69306, Note_on_c, 0, 56, 100
1, 69354, Note_off_c, 0, 56, 100
1, 69354, Note_on_c, 0, 58, 100
1, 69402, Note_off_c, 0, 58, 100
1, 69402, Note_on_c, 0, 60, 100
1, 69450, Note_off_c, 0, 60, 100
1, 69450, Note_on_c, 0, 62, 100
1, 69498, Note_off_c, 0, 62, 100
1, 69498, Note_on_c, 0, 63, 100
1, 69546, Note_off_c, 0, 63, 100
1, 69546, Note_on_c, 0, 67, 100
1, 69594, Note_off_c, 0, 67, 100
1, 69594, Note_on_c, 0, 68, 100
1, 69690, Note_off_c, 0, 68, 100
1, 69690, Note_on_c, 0, 70, 100
1, 69882, Note_off_c, 0, 70, 100
1, 70074, Note_on_c, 0, 59, 100
1, 70170, Note_off_c, 0, 59, 100
1, 70170, Note_on_c, 0, 62, 100
1, 70266, Note_off_c, 0, 62, 100
1, 70266, Note_on_c, 0, 64, 100
1, 70304, Note_off_c, 0, 64, 100
1, 70304, Note_on_c, 0, 67, 100
1, 70342, Note_off_c, 0, 67, 100
1, 70342, Note_on_c, 0, 69, 100
1, 70418, Note_off_c, 0, 69, 100
1, 70418, Note_on_c, 0, 71, 100
1, 71032, Note_off_c, 0, 71, 100
1, 71032, Note_on_c, 0, 67, 100
1, 71070, Note_off_c, 0, 67, 100
1, 71070, Note_on_c, 0, 69, 100
1, 71146, Note_off_c, 0, 69, 100
1, 71146, Note_on_c, 0, 67, 100
1, 71242, Note_off_c, 0, 67, 100
1, 71510, Note_on_c, 0, 61, 100
1, 71606, Note_off_c, 0, 61, 100
1, 71606, Note_on_c, 0, 64, 100
1, 71670, Note_off_c, 0, 64, 100
1, 71670, Note_on_c, 0, 68, 100
1, 71734, Note_off_c, 0, 68, 100
1, 71734, Note_on_c, 0, 71, 100
1, 71798, Note_off_c, 0, 71, 100
1, 71798, Note_on_c, 0, 70, 100
1, 71942, Note_off_c, 0, 70, 100
1, 71942, Note_on_c, 0, 72, 100
1, 71990, Note_off_c, 0, 72, 100
1, 71990, Note_on_c, 0, 73, 100
1, 72038, Note_off_c, 0, 73, 100
1, 72038, Note_on_c, 0, 75, 100
1, 72182, Note_off_c, 0, 75, 100
1, 72182, Note_on_c, 0, 73, 100
1, 72470, Note_off_c, 0, 73, 100
1, 72470, Note_on_c, 0, 70, 100
1, 72566, Note_off_c, 0, 70, 100
1, 72566, Note_on_c, 0, 66, 100
1, 72662, Note_off_c, 0, 66, 100
1, 72662, Note_on_c, 0, 63, 100
1, 72758, Note_off_c, 0, 63, 100
1, 72988, Note_on_c, 0, 70, 100
1, 73026, Note_off_c, 0, 70, 100
1, 73026, Note_on_c, 0, 71, 100
1, 73064, Note_off_c, 0, 71, 100
1, 73064, Note_on_c, 0, 73, 100
1, 73102, Note_off_c, 0, 73, 100
1, 73102, Note_on_c, 0, 74, 100
1, 73236, Note_off_c, 0, 74, 100
1, 73236, Note_on_c, 0, 71, 100
1, 73332, Note_off_c, 0, 71, 100
1, 73332, Note_on_c, 0, 70, 100
1, 73380, Note_off_c, 0, 70, 100
1, 73380, Note_on_c, 0, 68, 100
1, 73476, Note_off_c, 0, 68, 100
1, 73476, Note_on_c, 0, 67, 100
1, 73588, Note_off_c, 0, 67, 100
1, 73588, Note_on_c, 0, 65, 100
1, 73652, Note_off_c, 0, 65, 100
1, 73652, Note_on_c, 0, 63, 100
1, 73764, Note_off_c, 0, 63, 100
1, 73764, Note_on_c, 0, 62, 100
1, 73860, Note_off_c, 0, 62, 100
1, 73860, Note_on_c, 0, 65, 100
1, 73972, Note_off_c, 0, 65, 100
1, 73972, Note_on_c, 0, 62, 100
1, 74036, Note_off_c, 0, 62, 100
1, 74036, Note_on_c, 0, 63, 100
1, 74164, Note_off_c, 0, 63, 100
1, 74164, Note_on_c, 0, 65, 100
1, 74292, Note_off_c, 0, 65, 100
1, 74292, Note_on_c, 0, 67, 100
1, 74388, Note_off_c, 0, 67, 100
1, 74388, Note_on_c, 0, 70, 100
1, 74484, Note_off_c, 0, 70, 100
1, 74484, Note_on_c, 0, 63, 100
1, 74612, Note_off_c, 0, 63, 100
1, 74612, Note_on_c, 0, 59, 100
1, 74676, Note_off_c, 0, 59, 100
1, 74676, Note_on_c, 0, 56, 100
1, 74868, Note_off_c, 0, 56, 100
1, 74868, Note_on_c, 0, 58, 100
1, 75012, Note_off_c, 0, 58, 100
1, 75012, Note_on_c, 0, 54, 100
1, 75252, Note_off_c, 0, 54, 100
1, 75252, Note_on_c, 0, 59, 100
1, 75348, Note_off_c, 0, 59, 100
1, 75348, Note_on_c, 0, 60, 100
1, 75492, Note_off_c, 0, 60, 100
1, 75492, Note_on_c, 0, 61, 100
1, 75540, Note_off_c, 0, 61, 100
1, 75540, Note_on_c, 0, 63, 100
1, 75636, Note_off_c, 0, 63, 100
1, 75636, Note_on_c, 0, 66, 100
1, 75684, Note_off_c, 0, 66, 100
1, 75684, Note_on_c, 0, 62, 100
1, 75780, Note_off_c, 0, 62, 100
1, 75780, Note_on_c, 0, 64, 100
1, 75828, Note_off_c, 0, 64, 100
1, 75828, Note_on_c, 0, 66, 100
1, 75924, Note_off_c, 0, 66, 100
1, 75924, Note_on_c, 0, 69, 100
1, 76020, Note_off_c, 0, 69, 100
1, 76020, Note_on_c, 0, 67, 100
1, 76116, Note_off_c, 0, 67, 100
1, 76116, Note_on_c, 0, 62, 100
1, 76212, Note_off_c, 0, 62, 100
1, 76212, Note_on_c, 0, 59, 100
1, 76308, Note_off_c, 0, 59, 100
1, 76308, Note_on_c, 0, 55, 100
1, 76404, Note_off_c, 0, 55, 100
1, 76404, Note_on_c, 0, 60, 100
1, 76500, Note_off_c, 0, 60, 100
1, 76500, Note_on_c, 0, 63, 100
1, 76596, Note_off_c, 0, 63, 100
1, 76596, Note_on_c, 0, 62, 100
1, 76692, Note_off_c, 0, 62, 100
1, 76692, Note_on_c, 0, 60, 100
1, 76788, Note_off_c, 0, 60, 100
1, 76788, Note_on_c, 0, 58, 100
1, 76884, Note_off_c, 0, 58, 100
1, 76884, Note_on_c, 0, 67, 100
1, 77076, Note_off_c, 0, 67, 100
1, 77460, Note_on_c, 0, 66, 100
1, 77556, Note_off_c, 0, 66, 100
1, 77556, Note_on_c, 0, 67, 100
1, 77940, Note_off_c, 0, 67, 100
1, 77940, Note_on_c, 0, 65, 100
1, 77988, Note_off_c, 0, 65, 100
1, 77988, Note_on_c, 0, 66, 100
1, 78084, Note_off_c, 0, 66, 100
1, 78084, Note_on_c, 0, 67, 100
1, 78196, Note_off_c, 0, 67, 100
1, 78196, Note_on_c, 0, 69, 100
1, 78260, Note_off_c, 0, 69, 100
1, 78260, Note_on_c, 0, 71, 100
1, 78388, Note_off_c, 0, 71, 100
1, 78388, Note_on_c, 0, 67, 100
1, 78612, Note_off_c, 0, 67, 100
1, 78612, Note_on_c, 0, 71, 100
1, 78660, Note_off_c, 0, 71, 100
1, 78660, Note_on_c, 0, 73, 100
1, 78756, Note_off_c, 0, 73, 100
1, 78756, Note_on_c, 0, 68, 100
1, 78852, Note_off_c, 0, 68, 100
1, 78852, Note_on_c, 0, 72, 100
1, 78948, Note_off_c, 0, 72, 100
1, 78948, Note_on_c, 0, 70, 100
1, 79044, Note_off_c, 0, 70, 100
1, 79044, Note_on_c, 0, 68, 100
1, 79140, Note_off_c, 0, 68, 100
1, 79140, Note_on_c, 0, 67, 100
1, 79284, Note_off_c, 0, 67, 100
1, 79284, Note_on_c, 0, 63, 100
1, 79332, Note_off_c, 0, 63, 100
1, 79332, Note_on_c, 0, 65, 100
1, 79380, Note_off_c, 0, 65, 100
1, 79380, Note_on_c, 0, 67, 100
1, 79476, Note_off_c, 0, 67, 100
1, 79476, Note_on_c, 0, 64, 100
1, 79572, Note_off_c, 0, 64, 100
1, 79572, Note_on_c, 0, 66, 100
1, 79716, Note_off_c, 0, 66, 100
1, 79716, Note_on_c, 0, 68, 100
1, 79812, Note_off_c, 0, 68, 100
1, 79812, Note_on_c, 0, 70, 100
1, 79860, Note_off_c, 0, 70, 100
1, 79860, Note_on_c, 0, 73, 100
1, 80052, Note_off_c, 0, 73, 100
1, 80052, Note_on_c, 0, 70, 100
1, 80148, Note_off_c, 0, 70, 100
1, 80148, Note_on_c, 0, 68, 100
1, 80244, Note_off_c, 0, 68, 100
1, 80244, Note_on_c, 0, 66, 100
1, 80372, Note_off_c, 0, 66, 100
1, 80372, Note_on_c, 0, 63, 100
1, 80436, Note_off_c, 0, 63, 100
1, 80436, Note_on_c, 0, 59, 100
1, 80532, Note_off_c, 0, 59, 100
1, 80532, Note_on_c, 0, 58, 100
1, 80628, Note_off_c, 0, 58, 100
1, 80628, Note_on_c, 0, 60, 100
1, 80724, Note_off_c, 0, 60, 100
1, 80724, Note_on_c, 0, 62, 100
1, 80868, Note_off_c, 0, 62, 100
1, 80868, Note_on_c, 0, 63, 100
1, 80964, Note_off_c, 0, 63, 100
1, 80964, Note_on_c, 0, 65, 100
1, 81012, Note_off_c, 0, 65, 100
1, 81012, Note_on_c, 0, 67, 100
1, 81108, Note_off_c, 0, 67, 100
1, 81108, Note_on_c, 0, 65, 100
1, 81204, Note_off_c, 0, 65, 100
1, 81204, Note_on_c, 0, 62, 100
1, 81332, Note_off_c, 0, 62, 100
1, 81332, Note_on_c, 0, 60, 100
1, 81396, Note_off_c, 0, 60, 100
1, 81396, Note_on_c, 0, 58, 100
1, 81492, Note_off_c, 0, 58, 100
1, 81492, Note_on_c, 0, 68, 100
1, 81588, Note_off_c, 0, 68, 100
1, 81588, Note_on_c, 0, 67, 100
1, 81684, Note_off_c, 0, 67, 100
1, 81684, Note_on_c, 0, 62, 100
1, 81780, Note_off_c, 0, 62, 100
1, 81780, Note_on_c, 0, 65, 100
1, 81876, Note_off_c, 0, 65, 100
1, 81876, Note_on_c, 0, 63, 100
1, 81972, Note_off_c, 0, 63, 100
1, 81972, Note_on_c, 0, 62, 100
1, 82068, Note_off_c, 0, 62, 100
1, 82068, Note_on_c, 0, 65, 100
1, 82164, Note_off_c, 0, 65, 100
1, 82164, Note_on_c, 0, 64, 100
1, 82292, Note_off_c, 0, 64, 100
1, 82292, Note_on_c, 0, 60, 100
1, 82356, Note_off_c, 0, 60, 100
1, 82356, Note_on_c, 0, 56, 100
1, 82596, Note_off_c, 0, 56, 100
1, 82596, Note_on_c, 0, 62, 100
1, 82884, Note_off_c, 0, 62, 100
1, 82884, Note_on_c, 0, 60, 100
1, 82932, Note_off_c, 0, 60, 100
1, 82932, Note_on_c, 0, 59, 100
1, 83028, Note_off_c, 0, 59, 100
1, 83028, Note_on_c, 0, 62, 100
1, 83124, Note_off_c, 0, 62, 100
1, 83124, Note_on_c, 0, 64, 100
1, 83220, Note_off_c, 0, 64, 100
1, 83220, Note_on_c, 0, 66, 100
1, 83316, Note_off_c, 0, 66, 100
1, 83796, Note_on_c, 0, 61, 100
1, 83892, Note_off_c, 0, 61, 100
1, 83892, Note_on_c, 0, 64, 100
1, 83956, Note_off_c, 0, 64, 100
1, 83956, Note_on_c, 0, 68, 100
1, 84020, Note_off_c, 0, 68, 100
1, 84020, Note_on_c, 0, 71, 100
1, 84084, Note_off_c, 0, 71, 100
1, 84084, Note_on_c, 0, 70, 100
1, 84276, Note_off_c, 0, 70, 100
1, 84276, Note_on_c, 0, 66, 100
1, 84468, Note_off_c, 0, 66, 100
1, 84468, Note_on_c, 0, 66, 100
1, 84756, Note_off_c, 0, 66, 100
1, 84756, Note_on_c, 0, 63, 100
1, 84852, Note_off_c, 0, 63, 100
1, 84852, Note_on_c, 0, 61, 100
1, 85044, Note_off_c, 0, 61, 100
1, 85044, Note_on_c, 0, 59, 100
1, 85236, Note_off_c, 0, 59, 100
1, 85236, Note_on_c, 0, 60, 100
1, 85332, Note_off_c, 0, 60, 100
1, 85332, Note_on_c, 0, 62, 100
1, 85428, Note_off_c, 0, 62, 100
1, 85428, Note_on_c, 0, 63, 100
1, 85524, Note_off_c, 0, 63, 100
1, 85524, Note_on_c, 0, 60, 100
1, 85620, Note_off_c, 0, 60, 100
1, 85620, Note_on_c, 0, 67, 100
1, 85716, Note_off_c, 0, 67, 100
1, 85716, Note_on_c, 0, 65, 100
1, 85812, Note_off_c, 0, 65, 100
1, 85812, Note_on_c, 0, 62, 100
1, 85940, Note_off_c, 0, 62, 100
1, 85940, Note_on_c, 0, 60, 100
1, 86004, Note_off_c, 0, 60, 100
1, 86004, Note_on_c, 0, 58, 100
1, 86100, Note_off_c, 0, 58, 100
1, 86100, Note_on_c, 0, 63, 100
1, 86196, Note_off_c, 0, 63, 100
1, 86196, Note_on_c, 0, 65, 100
1, 86292, Note_off_c, 0, 65, 100
1, 86292, Note_on_c, 0, 67, 100
1, 86484, Note_off_c, 0, 67, 100
1, 86484, Note_on_c, 0, 67, 100
1, 86580, Note_off_c, 0, 67, 100
1, 86580, Note_on_c, 0, 70, 100
1, 86868, Note_off_c, 0, 70, 100
1, 87252, Note_on_c, 0, 68, 100
1, 87348, Note_off_c, 0, 68, 100
1, 87348, Note_on_c, 0, 70, 100
1, 87876, Note_off_c, 0, 70, 100
1, 87876, Note_on_c, 0, 66, 100
1, 87924, Note_off_c, 0, 66, 100
1, 87924, Note_on_c, 0, 71, 100
1, 87988, Note_off_c, 0, 71, 100
1, 87988, Note_on_c, 0, 74, 100
1, 88052, Note_off_c, 0, 74, 100
1, 88052, Note_on_c, 0, 72, 100
1, 88260, Note_off_c, 0, 72, 100
1, 88260, Note_on_c, 0, 69, 100
1, 88500, Note_off_c, 0, 69, 100
1, 88500, Note_on_c, 0, 72, 100
1, 88596, Note_off_c, 0, 72, 100
1, 88596, Note_on_c, 0, 71, 100
1, 88740, Note_off_c, 0, 71, 100
1, 88740, Note_on_c, 0, 67, 100
1, 88836, Note_off_c, 0, 67, 100
1, 88836, Note_on_c, 0, 71, 100
1, 88932, Note_off_c, 0, 71, 100
1, 88932, Note_on_c, 0, 70, 100
1, 89028, Note_off_c, 0, 70, 100
1, 89028, Note_on_c, 0, 69, 100
1, 89124, Note_off_c, 0, 69, 100
1, 89124, Note_on_c, 0, 68, 100
1, 89220, Note_off_c, 0, 68, 100
1, 89220, Note_on_c, 0, 72, 100
1, 89268, Note_off_c, 0, 72, 100
1, 89268, Note_on_c, 0, 71, 100
1, 89316, Note_off_c, 0, 71, 100
1, 89316, Note_on_c, 0, 70, 100
1, 89412, Note_off_c, 0, 70, 100
1, 89412, Note_on_c, 0, 67, 100
1, 89460, Note_off_c, 0, 67, 100
1, 89460, Note_on_c, 0, 65, 100
1, 89556, Note_off_c, 0, 65, 100
1, 89556, Note_on_c, 0, 63, 100
1, 89652, Note_off_c, 0, 63, 100
1, 89652, Note_on_c, 0, 67, 100
1, 89748, Note_off_c, 0, 67, 100
1, 89748, Note_on_c, 0, 70, 100
1, 89844, Note_off_c, 0, 70, 100
1, 89844, Note_on_c, 0, 64, 100
1, 90228, Note_off_c, 0, 64, 100
1, 90228, Note_on_c, 0, 71, 100
1, 90324, Note_off_c, 0, 71, 100
1, 90324, Note_on_c, 0, 69, 100
1, 90420, Note_off_c, 0, 69, 100
1, 90420, Note_on_c, 0, 66, 100
1, 90516, Note_off_c, 0, 66, 100
1, 90516, Note_on_c, 0, 64, 100
1, 90660, Note_off_c, 0, 64, 100
1, 90660, Note_on_c, 0, 62, 100
1, 90756, Note_off_c, 0, 62, 100
1, 90756, Note_on_c, 0, 64, 100
1, 90852, Note_off_c, 0, 64, 100
1, 90852, Note_on_c, 0, 66, 100
1, 90948, Note_off_c, 0, 66, 100
1, 90948, Note_on_c, 0, 69, 100
1, 91044, Note_off_c, 0, 69, 100
1, 91044, Note_on_c, 0, 62, 100
1, 91140, Note_off_c, 0, 62, 100
1, 91140, Note_on_c, 0, 65, 100
1, 91236, Note_off_c, 0, 65, 100
1, 91236, Note_on_c, 0, 68, 100
1, 91332, Note_off_c, 0, 68, 100
1, 91332, Note_on_c, 0, 72, 100
1, 91428, Note_off_c, 0, 72, 100
1, 91428, Note_on_c, 0, 63, 100
1, 91524, Note_off_c, 0, 63, 100
1, 91524, Note_on_c, 0, 65, 100
1, 91668, Note_off_c, 0, 65, 100
1, 91668, Note_on_c, 0, 67, 100
1, 91716, Note_off_c, 0, 67, 100
1, 91716, Note_on_c, 0, 70, 100
1, 91812, Note_off_c, 0, 70, 100
1, 91812, Note_on_c, 0, 64, 100
1, 91908, Note_off_c, 0, 64, 100
1, 91908, Note_on_c, 0, 66, 100
1, 92004, Note_off_c, 0, 66, 100
1, 92004, Note_on_c, 0, 68, 100
1, 92100, Note_off_c, 0, 68, 100
1, 92100, Note_on_c, 0, 70, 100
1, 92148, Note_off_c, 0, 70, 100
1, 92148, Note_on_c, 0, 73, 100
1, 92388, Note_off_c, 0, 73, 100
1, 92388, Note_on_c, 0, 70, 100
1, 92484, Note_off_c, 0, 70, 100
1, 92484, Note_on_c, 0, 68, 100
1, 92596, Note_off_c, 0, 68, 100
1, 92596, Note_on_c, 0, 66, 100
1, 92724, Note_off_c, 0, 66, 100
1, 92724, Note_on_c, 0, 63, 100
1, 92788, Note_off_c, 0, 63, 100
1, 92788, Note_on_c, 0, 59, 100
1, 92980, Note_off_c, 0, 59, 100
1, 92980, Note_on_c, 0, 67, 100
1, 93044, Note_off_c, 0, 67, 100
1, 93044, Note_on_c, 0, 68, 100
1, 93108, Note_off_c, 0, 68, 100
1, 93108, Note_on_c, 0, 67, 100
1, 93204, Note_off_c, 0, 67, 100
1, 93204, Note_on_c, 0, 65, 100
1, 93300, Note_off_c, 0, 65, 100
1, 93300, Note_on_c, 0, 63, 100
1, 93396, Note_off_c, 0, 63, 100
1, 93396, Note_on_c, 0, 62, 100
1, 93492, Note_off_c, 0, 62, 100
1, 93492, Note_on_c, 0, 60, 100
1, 93588, Note_off_c, 0, 60, 100
1, 93588, Note_on_c, 0, 58, 100
1, 93636, Note_off_c, 0, 58, 100
1, 93636, Note_on_c, 0, 56, 100
1, 93732, Note_off_c, 0, 56, 100
1, 93732, Note_on_c, 0, 55, 100
1, 93828, Note_off_c, 0, 55, 100
1, 93828, Note_on_c, 0, 58, 100
1, 93924, Note_off_c, 0, 58, 100
1, 93924, Note_on_c, 0, 60, 100
1, 94020, Note_off_c, 0, 60, 100
1, 94020, Note_on_c, 0, 62, 100
1, 94068, Note_off_c, 0, 62, 100
1, 94068, Note_on_c, 0, 65, 100
1, 94164, Note_off_c, 0, 65, 100
1, 94164, Note_on_c, 0, 63, 100
1, 94260, Note_off_c, 0, 63, 100
1, 94260, Note_on_c, 0, 67, 100
1, 94388, Note_off_c, 0, 67, 100
1, 94388, Note_on_c, 0, 67, 100
1, 94484, Note_off_c, 0, 67, 100
1, 94836, Note_on_c, 0, 67, 100
1, 95028, Note_off_c, 0, 67, 100
1, 95028, Note_on_c, 0, 64, 100
1, 95092, Note_off_c, 0, 64, 100
1, 95092, Note_on_c, 0, 66, 100
1, 95156, Note_off_c, 0, 66, 100
1, 95156, Note_on_c, 0, 69, 100
1, 95220, Note_off_c, 0, 69, 100
1, 95220, Note_on_c, 0, 67, 100
1, 95316, Note_off_c, 0, 67, 100
1, 95316, Note_on_c, 0, 62, 100
1, 95460, Note_off_c, 0, 62, 100
1, 95460, Note_on_c, 0, 59, 100
1, 95556, Note_off_c, 0, 59, 100
1, 95556, Note_on_c, 0, 55, 100
1, 95604, Note_off_c, 0, 55, 100
1, 95604, Note_on_c, 0, 62, 100
1, 95796, Note_off_c, 0, 62, 100
1, 95988, Note_on_c, 0, 63, 100
1, 96180, Note_off_c, 0, 63, 100
1, 96180, Note_on_c, 0, 59, 100
1, 96324, Note_off_c, 0, 59, 100
1, 96324, Note_on_c, 0, 54, 100
1, 96372, Note_off_c, 0, 54, 100
1, 96372, Note_on_c, 0, 58, 100
1, 96660, Note_off_c, 0, 58, 100
1, 96660, Note_on_c, 0, 54, 100
1, 96756, Note_off_c, 0, 54, 100
1, 96756, Note_on_c, 0, 59, 100
1, 96852, Note_off_c, 0, 59, 100
1, 96852, Note_on_c, 0, 61, 100
1, 96948, Note_off_c, 0, 61, 100
1, 96948, Note_on_c, 0, 63, 100
1, 97044, Note_off_c, 0, 63, 100
1, 97044, Note_on_c, 0, 66, 100
1, 97140, Note_off_c, 0, 66, 100
1, 97140, Note_on_c, 0, 69, 100
1, 97236, Note_off_c, 0, 69, 100
1, 97236, Note_on_c, 0, 68, 100
1, 97332, Note_off_c, 0, 68, 100
1, 97332, Note_on_c, 0, 67, 100
1, 97428, Note_off_c, 0, 67, 100
1, 97428, Note_on_c, 0, 66, 100
1, 97524, Note_off_c, 0, 66, 100
1, 97524, Note_on_c, 0, 65, 100
1, 97620, Note_off_c, 0, 65, 100
1, 97620, Note_on_c, 0, 67, 100
1, 97716, Note_off_c, 0, 67, 100
1, 97716, Note_on_c, 0, 68, 100
1, 97844, Note_off_c, 0, 68, 100
1, 97844, Note_on_c, 0, 65, 100
1, 97908, Note_off_c, 0, 65, 100
1, 97908, Note_on_c, 0, 69, 100
1, 98004, Note_off_c, 0, 69, 100
1, 98004, Note_on_c, 0, 66, 100
1, 98100, Note_off_c, 0, 66, 100
1, 98100, Note_on_c, 0, 62, 100
1, 98196, Note_off_c, 0, 62, 100
1, 98196, Note_on_c, 0, 58, 100
1, 98292, Note_off_c, 0, 58, 100
1, 98292, Note_on_c, 0, 67, 100
1, 98388, Note_off_c, 0, 67, 100
1, 98388, Note_on_c, 0, 63, 100
1, 98484, Note_off_c, 0, 63, 100
1, 98484, Note_on_c, 0, 62, 100
1, 98580, Note_off_c, 0, 62, 100
1, 98580, Note_on_c, 0, 65, 100
1, 98676, Note_off_c, 0, 65, 100
1, 98676, Note_on_c, 0, 63, 100
1, 98772, Note_off_c, 0, 63, 100
1, 99348, Note_on_c, 0, 65, 100
1, 99396, Note_off_c, 0, 65, 100
1, 99396, Note_on_c, 0, 66, 100
1, 99828, Note_off_c, 0, 66, 100
1, 99828, Note_on_c, 0, 59, 100
1, 99924, Note_off_c, 0, 59, 100
1, 99924, Note_on_c, 0, 61, 100
1, 100020, Note_off_c, 0, 61, 100
1, 100020, Note_on_c, 0, 63, 100
1, 100116, Note_off_c, 0, 63, 100
1, 100116, Note_on_c, 0, 66, 100
1, 100212, Note_off_c, 0, 66, 100
1, 100212, Note_on_c, 0, 62, 100
1, 100308, Note_off_c, 0, 62, 100
1, 100308, Note_on_c, 0, 64, 100
1, 100404, Note_off_c, 0, 64, 100
1, 100404, Note_on_c, 0, 66, 100
1, 100500, Note_off_c, 0, 66, 100
1, 100500, Note_on_c, 0, 69, 100
1, 100596, Note_off_c, 0, 69, 100
1, 100596, Note_on_c, 0, 62, 100
1, 100884, Note_off_c, 0, 62, 100
1, 100884, Note_on_c, 0, 67, 100
1, 100932, Note_off_c, 0, 67, 100
1, 100932, Note_on_c, 0, 71, 100
1, 100980, Note_off_c, 0, 71, 100
1, 100980, Note_on_c, 0, 68, 100
1, 101210, Note_off_c, 0, 68, 100
1, 101210, Note_on_c, 0, 72, 100
1, 101248, Note_off_c, 0, 72, 100
1, 101248, Note_on_c, 0, 71, 100
1, 101286, Note_off_c, 0, 71, 100
1, 101286, Note_on_c, 0, 70, 100
1, 101698, Note_off_c, 0, 70, 100
1, 101698, Note_on_c, 0, 67, 100
1, 101810, Note_off_c, 0, 67, 100
1, 101810, Note_on_c, 0, 65, 100
1, 101874, Note_off_c, 0, 65, 100
1, 101874, Note_on_c, 0, 63, 100
1, 101970, Note_off_c, 0, 63, 100
1, 102226, Note_on_c, 0, 57, 100
1, 102322, Note_off_c, 0, 57, 100
1, 102514, Note_on_c, 0, 67, 100
1, 102610, Note_off_c, 0, 67, 100
1, 102610, Note_on_c, 0, 71, 100
1, 102802, Note_off_c, 0, 71, 100
1, 102802, Note_on_c, 0, 62, 100
1, 102994, Note_off_c, 0, 62, 100
1, 102994, Note_on_c, 0, 67, 100
1, 103090, Note_off_c, 0, 67, 100
1, 103090, Note_on_c, 0, 69, 100
1, 103138, Note_off_c, 0, 69, 100
1, 103138, Note_on_c, 0, 71, 100
1, 103234, Note_off_c, 0, 71, 100
1, 103234, Note_on_c, 0, 73, 100
1, 103282, Note_off_c, 0, 73, 100
1, 103282, Note_on_c, 0, 71, 100
1, 103378, Note_off_c, 0, 71, 100
1, 103378, Note_on_c, 0, 70, 100
1, 103474, Note_off_c, 0, 70, 100
1, 103474, Note_on_c, 0, 69, 100
1, 103570, Note_off_c, 0, 69, 100
1, 103570, Note_on_c, 0, 68, 100
1, 103618, Note_off_c, 0, 68, 100
1, 103618, Note_on_c, 0, 72, 100
1, 103666, Note_off_c, 0, 72, 100
1, 103666, Note_on_c, 0, 71, 100
1, 103714, Note_off_c, 0, 71, 100
1, 103714, Note_on_c, 0, 70, 100
1, 103810, Note_off_c, 0, 70, 100
1, 103810, Note_on_c, 0, 67, 100
1, 103922, Note_off_c, 0, 67, 100
1, 103922, Note_on_c, 0, 65, 100
1, 103986, Note_off_c, 0, 65, 100
1, 103986, Note_on_c, 0, 63, 100
1, 104050, Note_off_c, 0, 63, 100
1, 104050, Note_on_c, 0, 64, 100
1, 104146, Note_off_c, 0, 64, 100
1, 104146, Note_on_c, 0, 66, 100
1, 104242, Note_off_c, 0, 66, 100
1, 104242, Note_on_c, 0, 68, 100
1, 104338, Note_off_c, 0, 68, 100
1, 104338, Note_on_c, 0, 70, 100
1, 104434, Note_off_c, 0, 70, 100
1, 104434, Note_on_c, 0, 73, 100
1, 104530, Note_off_c, 0, 73, 100
1, 104530, Note_on_c, 0, 70, 100
1, 104626, Note_off_c, 0, 70, 100
1, 104626, Note_on_c, 0, 68, 100
1, 104722, Note_off_c, 0, 68, 100
1, 104722, Note_on_c, 0, 66, 100
1, 104818, Note_off_c, 0, 66, 100
1, 104818, Note_on_c, 0, 63, 100
1, 104914, Note_off_c, 0, 63, 100
1, 104914, Note_on_c, 0, 61, 100
1, 105010, Note_off_c, 0, 61, 100
1, 105010, Note_on_c, 0, 59, 100
1, 105106, Note_off_c, 0, 59, 100
1, 105106, Note_on_c, 0, 55, 100
1, 105202, Note_off_c, 0, 55, 100
1, 105202, Note_on_c, 0, 60, 100
1, 105298, Note_off_c, 0, 60, 100
1, 105298, Note_on_c, 0, 62, 100
1, 105394, Note_off_c, 0, 62, 100
1, 105394, Note_on_c, 0, 63, 100
1, 105538, Note_off_c, 0, 63, 100
1, 105538, Note_on_c, 0, 67, 100
1, 105586, Note_off_c, 0, 67, 100
1, 105586, Note_on_c, 0, 65, 100
1, 105778, Note_off_c, 0, 65, 100
1, 106066, Note_on_c, 0, 67, 100
1, 106162, Note_off_c, 0, 67, 100
1, 106162, Note_on_c, 0, 66, 100
1, 106258, Note_off_c, 0, 66, 100
1, 106258, Note_on_c, 0, 62, 100
1, 106306, Note_off_c, 0, 62, 100
1, 106306, Note_on_c, 0, 65, 100
1, 106450, Note_off_c, 0, 65, 100
1, 106450, Note_on_c, 0, 63, 100
1, 106546, Note_off_c, 0, 63, 100
1, 106546, Note_on_c, 0, 62, 100
1, 106642, Note_off_c, 0, 62, 100
1, 106642, Note_on_c, 0, 60, 100
1, 106690, Note_off_c, 0, 60, 100
1, 106690, Note_on_c, 0, 64, 100
1, 106882, Note_off_c, 0, 64, 100
1, 107122, Note_on_c, 0, 71, 100
1, 107218, Note_off_c, 0, 71, 100
1, 107218, Note_on_c, 0, 69, 100
1, 107314, Note_off_c, 0, 69, 100
1, 107314, Note_on_c, 0, 66, 100
1, 107410, Note_off_c, 0, 66, 100
1, 107410, Note_on_c, 0, 64, 100
1, 107506, Note_off_c, 0, 64, 100
1, 107506, Note_on_c, 0, 62, 100
1, 107554, Note_off_c, 0, 62, 100
1, 107554, Note_on_c, 0, 64, 100
1, 107650, Note_off_c, 0, 64, 100
1, 107650, Note_on_c, 0, 66, 100
1, 107698, Note_off_c, 0, 66, 100
1, 107698, Note_on_c, 0, 69, 100
1, 107890, Note_off_c, 0, 69, 100
1, 107890, Note_on_c, 0, 67, 100
1, 108018, Note_off_c, 0, 67, 100
1, 108018, Note_on_c, 0, 62, 100
1, 108082, Note_off_c, 0, 62, 100
1, 108082, Note_on_c, 0, 59, 100
1, 108178, Note_off_c, 0, 59, 100
1, 108722, Note_on_c, 0, 63, 100
1, 109042, Note_off_c, 0, 63, 100
1, 109042, Note_on_c, 0, 58, 100
1, 109330, Note_off_c, 0, 58, 100
1, 109330, Note_on_c, 0, 54, 100
1, 109426, Note_off_c, 0, 54, 100
1, 109426, Note_on_c, 0, 59, 100
1, 109522, Note_off_c, 0, 59, 100
1, 109522, Note_on_c, 0, 61, 100
1, 109666, Note_off_c, 0, 61, 100
1, 109666, Note_on_c, 0, 63, 100
1, 109762, Note_off_c, 0, 63, 100
1, 109762, Note_on_c, 0, 66, 100
1, 109858, Note_off_c, 0, 66, 100
1, 109858, Note_on_c, 0, 69, 100
1, 109954, Note_off_c, 0, 69, 100
1, 109954, Note_on_c, 0, 68, 100
1, 110002, Note_off_c, 0, 68, 100
1, 110002, Note_on_c, 0, 67, 100
1, 110098, Note_off_c, 0, 67, 100
1, 110098, Note_on_c, 0, 66, 100
1, 110242, Note_off_c, 0, 66, 100
1, 110242, Note_on_c, 0, 65, 100
1, 110338, Note_off_c, 0, 65, 100
1, 110338, Note_on_c, 0, 63, 100
1, 110386, Note_off_c, 0, 63, 100
1, 110386, Note_on_c, 0, 62, 100
1, 110482, Note_off_c, 0, 62, 100
1, 110482, Note_on_c, 0, 60, 100
1, 110578, Note_off_c, 0, 60, 100
1, 110578, Note_on_c, 0, 58, 100
1, 110674, Note_off_c, 0, 58, 100
1, 110674, Note_on_c, 0, 68, 100
1, 110770, Note_off_c, 0, 68, 100
1, 110770, Note_on_c, 0, 67, 100
1, 110866, Note_off_c, 0, 67, 100
1, 110866, Note_on_c, 0, 62, 100
1, 110962, Note_off_c, 0, 62, 100
1, 110962, Note_on_c, 0, 65, 100
1, 111090, Note_off_c, 0, 65, 100
1, 111090, Note_on_c, 0, 63, 100
1, 111202, Note_off_c, 0, 63, 100
1, 111202, Note_on_c, 0, 62, 100
1, 111346, Note_off_c, 0, 62, 100
1, 111346, Note_on_c, 0, 60, 100
1, 111394, Note_off_c, 0, 60, 100
1, 111394, Note_on_c, 0, 63, 100
1, 111490, Note_off_c, 0, 63, 100
1, 111490, Note_on_c, 0, 59, 100
1, 111586, Note_off_c, 0, 59, 100
1, 111586, Note_on_c, 0, 56, 100
1, 111682, Note_off_c, 0, 56, 100
1, 111682, Note_on_c, 0, 52, 100
1, 111730, Note_off_c, 0, 52, 100
1, 111730, Note_on_c, 0, 58, 100
1, 112066, Note_off_c, 0, 58, 100
1, 112066, Note_on_c, 0, 54, 100
1, 112114, Note_off_c, 0, 54, 100
1, 112114, Note_on_c, 0, 59, 100
1, 112210, Note_off_c, 0, 59, 100
1, 112210, Note_on_c, 0, 61, 100
1, 112306, Note_off_c, 0, 61, 100
1, 112306, Note_on_c, 0, 63, 100
1, 112402, Note_off_c, 0, 63, 100
1, 112402, Note_on_c, 0, 66, 100
1, 112498, Note_off_c, 0, 66, 100
1, 112498, Note_on_c, 0, 62, 100
1, 112594, Note_off_c, 0, 62, 100
1, 112594, Note_on_c, 0, 64, 100
1, 112690, Note_off_c, 0, 64, 100
1, 112690, Note_on_c, 0, 66, 100
1, 112786, Note_off_c, 0, 66, 100
1, 112786, Note_on_c, 0, 69, 100
1, 112882, Note_off_c, 0, 69, 100
1, 112882, Note_on_c, 0, 67, 100
1, 112978, Note_off_c, 0, 67, 100
1, 113314, Note_on_c, 0, 70, 100
1, 113362, Note_off_c, 0, 70, 100
1, 113362, Note_on_c, 0, 71, 100
1, 113410, Note_off_c, 0, 71, 100
1, 113410, Note_on_c, 0, 73, 100
1, 113458, Note_off_c, 0, 73, 100
1, 113458, Note_on_c, 0, 74, 100
1, 113573, Note_off_c, 0, 74, 100
1, 113573, Note_on_c, 0, 73, 100
1, 113611, Note_off_c, 0, 73, 100
1, 113611, Note_on_c, 0, 72, 100
1, 113649, Note_off_c, 0, 72, 100
1, 113649, Note_on_c, 0, 71, 100
1, 113697, Note_off_c, 0, 71, 100
1, 113697, Note_on_c, 0, 70, 100
1, 113745, Note_off_c, 0, 70, 100
1, 113745, Note_on_c, 0, 68, 100
1, 113841, Note_off_c, 0, 68, 100
1, 113841, Note_on_c, 0, 67, 100
1, 113937, Note_off_c, 0, 67, 100
1, 113937, Note_on_c, 0, 65, 100
1, 114033, Note_off_c, 0, 65, 100
1, 114033, Note_on_c, 0, 63, 100
1, 114129, Note_off_c, 0, 63, 100
1, 114129, Note_on_c, 0, 65, 100
1, 114225, Note_off_c, 0, 65, 100
1, 114225, Note_on_c, 0, 67, 100
1, 114321, Note_off_c, 0, 67, 100
1, 114321, Note_on_c, 0, 70, 100
1, 114417, Note_off_c, 0, 70, 100
1, 114417, Note_on_c, 0, 75, 100
1, 114513, Note_off_c, 0, 75, 100
1, 114801, Note_on_c, 0, 70, 100
1, 114849, Note_off_c, 0, 70, 100
1, 114849, Note_on_c, 0, 71, 100
1, 114897, Note_off_c, 0, 71, 100
1, 114897, Note_on_c, 0, 73, 100
1, 114945, Note_off_c, 0, 73, 100
1, 114945, Note_on_c, 0, 74, 100
1, 115089, Note_off_c, 0, 74, 100
1, 115089, Note_on_c, 0, 73, 100
1, 115185, Note_off_c, 0, 73, 100
1, 115185, Note_on_c, 0, 71, 100
1, 115377, Note_off_c, 0, 71, 100
1, 115377, Note_on_c, 0, 62, 100
1, 115415, Note_off_c, 0, 62, 100
1, 115415, Note_on_c, 0, 67, 100
1, 115491, Note_off_c, 0, 67, 100
1, 115491, Note_on_c, 0, 71, 100
1, 115615, Note_off_c, 0, 71, 100
1, 115615, Note_on_c, 0, 68, 100
1, 115711, Note_off_c, 0, 68, 100
1, 115711, Note_on_c, 0, 72, 100
1, 115759, Note_off_c, 0, 72, 100
1, 115759, Note_on_c, 0, 70, 100
1, 115855, Note_off_c, 0, 70, 100
1, 115855, Note_on_c, 0, 68, 100
1, 115951, Note_off_c, 0, 68, 100
1, 115951, Note_on_c, 0, 67, 100
1, 116047, Note_off_c, 0, 67, 100
1, 116431, Note_on_c, 0, 64, 100
1, 116527, Note_off_c, 0, 64, 100
1, 116527, Note_on_c, 0, 66, 100
1, 116623, Note_off_c, 0, 66, 100
1, 116623, Note_on_c, 0, 68, 100
1, 116719, Note_off_c, 0, 68, 100
1, 116719, Note_on_c, 0, 70, 100
1, 116815, Note_off_c, 0, 70, 100
1, 116815, Note_on_c, 0, 73, 100
1, 116911, Note_off_c, 0, 73, 100
1, 116911, Note_on_c, 0, 70, 100
1, 116959, Note_off_c, 0, 70, 100
1, 116959, Note_on_c, 0, 68, 100
1, 117055, Note_off_c, 0, 68, 100
1, 117055, Note_on_c, 0, 66, 100
1, 117199, Note_off_c, 0, 66, 100
1, 117199, Note_on_c, 0, 63, 100
1, 117295, Note_off_c, 0, 63, 100
1, 117535, Note_on_c, 0, 63, 100
1, 117631, Note_off_c, 0, 63, 100
1, 117631, Note_on_c, 0, 65, 100
1, 117743, Note_off_c, 0, 65, 100
1, 117743, Note_on_c, 0, 67, 100
1, 117871, Note_off_c, 0, 67, 100
1, 117871, Note_on_c, 0, 65, 100
1, 117919, Note_off_c, 0, 65, 100
1, 117919, Note_on_c, 0, 69, 100
1, 118015, Note_off_c, 0, 69, 100
1, 118015, Note_on_c, 0, 66, 100
1, 118111, Note_off_c, 0, 66, 100
1, 118111, Note_on_c, 0, 62, 100
1, 118207, Note_off_c, 0, 62, 100
1, 118207, Note_on_c, 0, 60, 100
1, 118255, Note_off_c, 0, 60, 100
1, 118255, Note_on_c, 0, 58, 100
1, 118351, Note_off_c, 0, 58, 100
1, 118351, Note_on_c, 0, 67, 100
1, 118447, Note_off_c, 0, 67, 100
1, 118447, Note_on_c, 0, 68, 100
1, 118543, Note_off_c, 0, 68, 100
1, 118543, Note_on_c, 0, 65, 100
1, 118639, Note_off_c, 0, 65, 100
1, 118639, Note_on_c, 0, 63, 100
1, 118735, Note_off_c, 0, 63, 100
1, 118735, Note_on_c, 0, 65, 100
1, 118783, Note_off_c, 0, 65, 100
1, 118783, Note_on_c, 0, 67, 100
1, 118927, Note_off_c, 0, 67, 100
1, 118927, Note_on_c, 0, 70, 100
1, 119023, Note_off_c, 0, 70, 100
1, 119023, Note_on_c, 0, 71, 100
1, 119119, Note_off_c, 0, 71, 100
1, 119119, Note_on_c, 0, 69, 100
1, 119215, Note_off_c, 0, 69, 100
1, 119215, Note_on_c, 0, 67, 100
1, 119311, Note_off_c, 0, 67, 100
1, 119311, Note_on_c, 0, 66, 100
1, 119503, Note_off_c, 0, 66, 100
1, 119503, Note_on_c, 0, 64, 100
1, 119599, Note_off_c, 0, 64, 100
1, 119599, Note_on_c, 0, 62, 100
1, 119695, Note_off_c, 0, 62, 100
1, 119695, Note_on_c, 0, 60, 100
1, 119791, Note_off_c, 0, 60, 100
1, 119791, Note_on_c, 0, 59, 100
1, 119887, Note_off_c, 0, 59, 100
1, 119887, Note_on_c, 0, 62, 100
1, 119983, Note_off_c, 0, 62, 100
1, 119983, Note_on_c, 0, 67, 100
1, 120079, Note_off_c, 0, 67, 100
1, 120079, Note_on_c, 0, 69, 100
1, 120175, Note_off_c, 0, 69, 100
1, 120175, Note_on_c, 0, 71, 100
1, 120367, Note_off_c, 0, 71, 100
1, 120367, Note_on_c, 0, 67, 100
1, 120415, Note_off_c, 0, 67, 100
1, 120415, Note_on_c, 0, 69, 100
1, 120463, Note_off_c, 0, 69, 100
1, 120463, Note_on_c, 0, 71, 100
1, 120559, Note_off_c, 0, 71, 100
1, 120559, Note_on_c, 0, 70, 100
1, 120655, Note_off_c, 0, 70, 100
1, 120991, Note_on_c, 0, 71, 100
1, 121039, Note_off_c, 0, 71, 100
1, 121039, Note_on_c, 0, 73, 100
1, 121327, Note_off_c, 0, 73, 100
1, 121327, Note_on_c, 0, 70, 100
1, 121615, Note_off_c, 0, 70, 100
1, 121615, Note_on_c, 0, 73, 100
1, 121711, Note_off_c, 0, 73, 100
1, 121711, Note_on_c, 0, 70, 100
1, 121807, Note_off_c, 0, 70, 100
1, 121807, Note_on_c, 0, 66, 100
1, 121903, Note_off_c, 0, 66, 100
1, 121903, Note_on_c, 0, 63, 100
1, 121999, Note_off_c, 0, 63, 100
1, 121999, Note_on_c, 0, 59, 100
1, 122095, Note_off_c, 0, 59, 100
1, 122095, Note_on_c, 0, 60, 100
1, 122191, Note_off_c, 0, 60, 100
1, 122191, Note_on_c, 0, 62, 100
1, 122287, Note_off_c, 0, 62, 100
1, 122287, Note_on_c, 0, 63, 100
1, 122383, Note_off_c, 0, 63, 100
1, 122383, Note_on_c, 0, 65, 100
1, 122479, Note_off_c, 0, 65, 100
1, 122479, Note_on_c, 0, 67, 100
1, 122575, Note_off_c, 0, 67, 100
1, 122575, Note_on_c, 0, 65, 100
1, 122671, Note_off_c, 0, 65, 100
1, 122671, Note_on_c, 0, 62, 100
1, 122767, Note_off_c, 0, 62, 100
1, 122767, Note_on_c, 0, 60, 100
1, 122863, Note_off_c, 0, 60, 100
1, 122863, Note_on_c, 0, 58, 100
1, 122959, Note_off_c, 0, 58, 100
1, 122959, Note_on_c, 0, 63, 100
1, 123055, Note_off_c, 0, 63, 100
1, 123055, Note_on_c, 0, 65, 100
1, 123119, Note_off_c, 0, 65, 100
1, 123119, Note_on_c, 0, 67, 100
1, 123183, Note_off_c, 0, 67, 100
1, 123183, Note_on_c, 0, 70, 100
1, 123247, Note_off_c, 0, 70, 100
1, 123247, Note_on_c, 0, 75, 100
1, 123487, Note_off_c, 0, 75, 100
1, 123487, Note_on_c, 0, 70, 100
1, 123583, Note_off_c, 0, 70, 100
1, 123583, Note_on_c, 0, 72, 100
1, 123775, Note_off_c, 0, 72, 100
1, 123775, Note_on_c, 0, 70, 100
1, 124255, Note_off_c, 0, 70, 100
1, 124591, Note_on_c, 0, 71, 100
1, 124639, Note_off_c, 0, 71, 100
1, 124639, Note_on_c, 0, 73, 100
1, 124879, Note_off_c, 0, 73, 100
1, 124879, Note_on_c, 0, 74, 100
1, 125167, Note_off_c, 0, 74, 100
1, 125167, Note_on_c, 0, 71, 100
1, 125359, Note_off_c, 0, 71, 100
1, 125359, Note_on_c, 0, 72, 100
1, 125455, Note_off_c, 0, 72, 100
1, 125455, Note_on_c, 0, 71, 100
1, 125551, Note_off_c, 0, 71, 100
1, 125551, Note_on_c, 0, 67, 100
1, 125599, Note_off_c, 0, 67, 100
1, 125599, Note_on_c, 0, 69, 100
1, 125695, Note_off_c, 0, 69, 100
1, 125695, Note_on_c, 0, 72, 100
1, 125791, Note_off_c, 0, 72, 100
1, 125791, Note_on_c, 0, 70, 100
1, 125887, Note_off_c, 0, 70, 100
1, 126223, Note_on_c, 0, 71, 100
1, 126271, Note_off_c, 0, 71, 100
1, 126271, Note_on_c, 0, 72, 100
1, 126319, Note_off_c, 0, 72, 100
1, 126319, Note_on_c, 0, 73, 100
1, 126367, Note_off_c, 0, 73, 100
1, 126367, Note_on_c, 0, 74, 100
1, 126655, Note_off_c, 0, 74, 100
1, 126655, Note_on_c, 0, 72, 100
1, 126703, Note_off_c, 0, 72, 100
1, 126703, Note_on_c, 0, 71, 100
1, 126751, Note_off_c, 0, 71, 100
1, 126751, Note_on_c, 0, 70, 100
1, 126895, Note_off_c, 0, 70, 100
1, 126895, Note_on_c, 0, 67, 100
1, 126991, Note_off_c, 0, 67, 100
1, 126991, Note_on_c, 0, 63, 100
1, 127135, Note_off_c, 0, 63, 100
1, 127135, Note_on_c, 0, 70, 100
1, 127183, Note_off_c, 0, 70, 100
1, 127183, Note_on_c, 0, 71, 100
1, 127231, Note_off_c, 0, 71, 100
1, 127231, Note_on_c, 0, 73, 100
1, 127279, Note_off_c, 0, 73, 100
1, 127279, Note_on_c, 0, 74, 100
1, 127423, Note_off_c, 0, 74, 100
1, 127423, Note_on_c, 0, 73, 100
1, 127471, Note_off_c, 0, 73, 100
1, 127471, Note_on_c, 0, 71, 100
1, 127663, Note_off_c, 0, 71, 100
1, 127663, Note_on_c, 0, 67, 100
1, 127759, Note_off_c, 0, 67, 100
1, 127759, Note_on_c, 0, 71, 100
1, 127919, Note_off_c, 0, 71, 100
1, 127919, Note_on_c, 0, 62, 100
1, 127983, Note_off_c, 0, 62, 100
1, 127983, Note_on_c, 0, 67, 100
1, 128047, Note_off_c, 0, 67, 100
1, 128047, Note_on_c, 0, 68, 100
1, 128143, Note_off_c, 0, 68, 100
1, 128143, Note_on_c, 0, 72, 100
1, 128191, Note_off_c, 0, 72, 100
1, 128191, Note_on_c, 0, 71, 100
1, 128239, Note_off_c, 0, 71, 100
1, 128239, Note_on_c, 0, 62, 100
1, 128303, Note_off_c, 0, 62, 100
1, 128303, Note_on_c, 0, 63, 100
1, 128367, Note_off_c, 0, 63, 100
1, 128367, Note_on_c, 0, 65, 100
1, 128495, Note_off_c, 0, 65, 100
1, 128495, Note_on_c, 0, 67, 100
1, 128559, Note_off_c, 0, 67, 100
1, 128559, Note_on_c, 0, 70, 100
1, 128623, Note_off_c, 0, 70, 100
1, 128623, Note_on_c, 0, 75, 100
1, 129199, Note_off_c, 0, 75, 100
1, 129199, Note_on_c, 0, 73, 100
1, 129295, Note_off_c, 0, 73, 100
1, 129295, Note_on_c, 0, 71, 100
1, 129391, Note_off_c, 0, 71, 100
1, 129391, Note_on_c, 0, 70, 100
1, 129519, Note_off_c, 0, 70, 100
1, 129519, Note_on_c, 0, 66, 100
1, 129583, Note_off_c, 0, 66, 100
1, 129583, Note_on_c, 0, 63, 100
1, 129775, Note_off_c, 0, 63, 100
1, 129775, Note_on_c, 0, 69, 100
1, 129823, Note_off_c, 0, 69, 100
1, 129823, Note_on_c, 0, 71, 100
1, 129871, Note_off_c, 0, 71, 100
1, 129871, Note_on_c, 0, 73, 100
1, 129919, Note_off_c, 0, 73, 100
1, 129919, Note_on_c, 0, 74, 100
1, 129967, Note_off_c, 0, 74, 100
1, 129967, Note_on_c, 0, 73, 100
1, 130063, Note_off_c, 0, 73, 100
1, 130063, Note_on_c, 0, 71, 100
1, 130159, Note_off_c, 0, 71, 100
1, 130159, Note_on_c, 0, 70, 100
1, 130255, Note_off_c, 0, 70, 100
1, 130255, Note_on_c, 0, 69, 100
1, 130351, Note_off_c, 0, 69, 100
1, 130351, Note_on_c, 0, 68, 100
1, 130447, Note_off_c, 0, 68, 100
1, 130447, Note_on_c, 0, 67, 100
1, 130543, Note_off_c, 0, 67, 100
1, 130543, Note_on_c, 0, 65, 100
1, 130591, Note_off_c, 0, 65, 100
1, 130591, Note_on_c, 0, 63, 100
1, 130687, Note_off_c, 0, 63, 100
1, 130687, Note_on_c, 0, 62, 100
1, 130831, Note_off_c, 0, 62, 100
1, 130831, Note_on_c, 0, 60, 100
1, 130927, Note_off_c, 0, 60, 100
1, 130927, Note_on_c, 0, 58, 100
1, 131023, Note_off_c, 0, 58, 100
1, 131023, Note_on_c, 0, 60, 100
1, 131119, Note_off_c, 0, 60, 100
1, 131119, Note_on_c, 0, 62, 100
1, 131215, Note_off_c, 0, 62, 100
1, 131215, Note_on_c, 0, 65, 100
1, 131311, Note_off_c, 0, 65, 100
1, 131311, Note_on_c, 0, 64, 100
1, 131407, Note_off_c, 0, 64, 100
1, 131407, Note_on_c, 0, 67, 100
1, 131503, Note_off_c, 0, 67, 100
1, 131695, Note_on_c, 0, 67, 100
1, 131733, Note_off_c, 0, 67, 100
1, 131733, Note_on_c, 0, 69, 100
1, 131771, Note_off_c, 0, 69, 100
1, 131771, Note_on_c, 0, 70, 100
1, 131809, Note_off_c, 0, 70, 100
1, 131809, Note_on_c, 0, 72, 100
1, 131847, Note_off_c, 0, 72, 100
1, 131847, Note_on_c, 0, 74, 100
1, 131981, Note_off_c, 0, 74, 100
1, 131981, Note_on_c, 0, 73, 100
1, 132077, Note_off_c, 0, 73, 100
1, 132077, Note_on_c, 0, 71, 100
1, 132269, Note_off_c, 0, 71, 100
1, 132269, Note_on_c, 0, 66, 100
1, 132365, Note_off_c, 0, 66, 100
1, 132365, Note_on_c, 0, 69, 100
1, 132557, Note_off_c, 0, 69, 100
1, 132557, Note_on_c, 0, 69, 100
1, 132653, Note_off_c, 0, 69, 100
1, 132653, Note_on_c, 0, 67, 100
1, 132749, Note_off_c, 0, 67, 100
1, 133133, Note_on_c, 0, 69, 100
1, 133181, Note_off_c, 0, 69, 100
1, 133181, Note_on_c, 0, 70, 100
1, 133517, Note_off_c, 0, 70, 100
1, 133517, Note_on_c, 0, 66, 100
1, 133613, Note_off_c, 0, 66, 100
1, 133613, Note_on_c, 0, 68, 100
1, 133709, Note_off_c, 0, 68, 100
1, 133709, Note_on_c, 0, 70, 100
1, 133805, Note_off_c, 0, 70, 100
1, 133805, Note_on_c, 0, 66, 100
1, 133901, Note_off_c, 0, 66, 100
1, 133901, Note_on_c, 0, 63, 100
1, 134093, Note_off_c, 0, 63, 100
1, 134093, Note_on_c, 0, 63, 100
1, 134253, Note_off_c, 0, 63, 100
1, 134253, Note_on_c, 0, 59, 100
1, 134381, Note_off_c, 0, 59, 100
1, 134381, Note_on_c, 0, 60, 100
1, 134477, Note_off_c, 0, 60, 100
1, 134477, Note_on_c, 0, 62, 100
1, 134573, Note_off_c, 0, 62, 100
1, 134573, Note_on_c, 0, 63, 100
1, 134701, Note_off_c, 0, 63, 100
1, 134701, Note_on_c, 0, 60, 100
1, 134765, Note_off_c, 0, 60, 100
1, 134765, Note_on_c, 0, 67, 100
1, 134861, Note_off_c, 0, 67, 100
1, 134861, Note_on_c, 0, 65, 100
1, 134957, Note_off_c, 0, 65, 100
1, 134957, Note_on_c, 0, 62, 100
1, 135053, Note_off_c, 0, 62, 100
1, 135053, Note_on_c, 0, 60, 100
1, 135149, Note_off_c, 0, 60, 100
1, 135149, Note_on_c, 0, 58, 100
1, 135245, Note_off_c, 0, 58, 100
1, 135245, Note_on_c, 0, 60, 100
1, 135293, Note_off_c, 0, 60, 100
1, 135293, Note_on_c, 0, 62, 100
1, 135437, Note_off_c, 0, 62, 100
1, 135437, Note_on_c, 0, 65, 100
1, 135533, Note_off_c, 0, 65, 100
1, 135533, Note_on_c, 0, 63, 100
1, 135629, Note_off_c, 0, 63, 100
1, 135629, Note_on_c, 0, 65, 100
1, 135725, Note_off_c, 0, 65, 100
1, 135725, Note_on_c, 0, 63, 100
1, 135789, Note_off_c, 0, 63, 100
1, 135789, Note_on_c, 0, 67, 100
1, 135853, Note_off_c, 0, 67, 100
1, 135853, Note_on_c, 0, 70, 100
1, 135965, Note_off_c, 0, 70, 100
1, 135965, Note_on_c, 0, 63, 100
1, 136061, Note_off_c, 0, 63, 100
1, 136061, Note_on_c, 0, 59, 100
1, 136109, Note_off_c, 0, 59, 100
1, 136109, Note_on_c, 0, 56, 100
1, 136205, Note_off_c, 0, 56, 100
1, 136205, Note_on_c, 0, 54, 100
1, 136301, Note_off_c, 0, 54, 100
1, 136301, Note_on_c, 0, 58, 100
1, 136685, Note_off_c, 0, 58, 100
1, 136685, Note_on_c, 0, 59, 100
1, 136781, Note_off_c, 0, 59, 100
1, 136781, Note_on_c, 0, 61, 100
1, 136877, Note_off_c, 0, 61, 100
1, 136877, Note_on_c, 0, 63, 100
1, 136973, Note_off_c, 0, 63, 100
1, 136973, Note_on_c, 0, 66, 100
1, 137069, Note_off_c, 0, 66, 100
1, 137069, Note_on_c, 0, 62, 100
1, 137165, Note_off_c, 0, 62, 100
1, 137165, Note_on_c, 0, 60, 100
1, 137261, Note_off_c, 0, 60, 100
1, 137261, Note_on_c, 0, 59, 100
1, 137389, Note_off_c, 0, 59, 100
1, 137389, Note_on_c, 0, 62, 100
1, 137517, Note_off_c, 0, 62, 100
1, 137517, Note_on_c, 0, 59, 100
1, 137645, Note_off_c, 0, 59, 100
1, 137645, Note_on_c, 0, 54, 100
1, 137725, Note_off_c, 0, 54, 100
1, 137725, End_track
0, 0, End_of_file
