0, 0, Header, 1, 1, 192
1, 0, Start_track
1, 0, Title_t, "Melody"
1, 0, Tempo, 204778
1, 0, Key_signature, 0, "major"
1, 0, Time_signature, 4, 2, 24, 8
1, 336, Note_on_c, 0, 64, 100
1, 768, Note_off_c, 0, 64, 100
1, 768, Note_on_c, 0, 62, 100
1, 960, Note_off_c, 0, 62, 100
1, 960, Note_on_c, 0, 65, 100
1, 1152, Note_off_c, 0, 65, 100
1, 1152, Note_on_c, 0, 65, 100
1, 1280, Note_off_c, 0, 65, 100
1, 1280, Note_on_c, 0, 67, 100
1, 1408, Note_off_c, 0, 67, 100
1, 1408, Note_on_c, 0, 69, 100
1, 1824, Note_off_c, 0, 69, 100
1, 1824, Note_on_c, 0, 67, 100
1, 1920, Note_off_c, 0, 67, 100
1, 1920, Note_on_c, 0, 65, 100
1, 2016, Note_off_c, 0, 65, 100
1, 2016, Note_on_c, 0, 62, 100
1, 2208, Note_off_c, 0, 62, 100
1, 2688, Note_on_c, 0, 69, 100
1, 2880, Note_off_c, 0, 69, 100
1, 2880, Note_on_c, 0, 62, 100
1, 2976, Note_off_c, 0, 62, 100
1, 2976, Note_on_c, 0, 65, 100
1, 3552, Note_off_c, 0, 65, 100
1, 3888, Note_on_c, 0, 69, 100
1, 4096, Note_off_c, 0, 69, 100
1, 4096, Note_on_c, 0, 67, 100
1, 4160, Note_off_c, 0, 67, 100
1, 4160, Note_on_c, 0, 69, 100
1, 4224, Note_off_c, 0, 69, 100
1, 4224, Note_on_c, 0, 67, 100
1, 4320, Note_off_c, 0, 67, 100
1, 4320, Note_on_c, 0, 62, 100
1, 4416, Note_off_c, 0, 62, 100
1, 4416, Note_on_c, 0, 65, 100
1, 4656, Note_off_c, 0, 65, 100
1, 4656, Note_on_c, 0, 64, 100
1, 4752, Note_off_c, 0, 64, 100
1, 5280, Note_on_c, 0, 67, 100
1, 5376, Note_off_c, 0, 67, 100
1, 5376, Note_on_c, 0, 68, 100
1, 5424, Note_off_c, 0, 68, 100
1, 5424, Note_on_c, 0, 69, 100
1, 6144, Note_off_c, 0, 69, 100
1, 6144, Note_on_c, 0, 69, 100
1, 6288, Note_off_c, 0, 69, 100
1, 6288, Note_on_c, 0, 69, 100
1, 6480, Note_off_c, 0, 69, 100
1, 6480, Note_on_c, 0, 69, 100
1, 6672, Note_off_c, 0, 69, 100
1, 6672, Note_on_c, 0, 67, 100
1, 6783, Note_off_c, 0, 67, 100
1, 6783, Note_on_c, 0, 69, 100
1, 6975, Note_off_c, 0, 69, 100
1, 6975, Note_on_c, 0, 71, 100
1, 7103, Note_off_c, 0, 71, 100
1, 7103, Note_on_c, 0, 72, 100
1, 7166, Note_off_c, 0, 72, 100
1, 7166, Note_on_c, 0, 73, 100
1, 7294, Note_off_c, 0, 73, 100
1, 7294, Note_on_c, 0, 69, 100
1, 7678, Note_off_c, 0, 69, 100
1, 7678, Note_on_c, 0, 67, 100
1, 7774, Note_off_c, 0, 67, 100
1, 7774, Note_on_c, 0, 69, 100
1, 7870, Note_off_c, 0, 69, 100
1, 7870, Note_on_c, 0, 71, 100
1, 7918, Note_off_c, 0, 71, 100
1, 7918, Note_on_c, 0, 67, 100
1, 8014, Note_off_c, 0, 67, 100
1, 8014, Note_on_c, 0, 65, 100
1, 8125, Note_off_c, 0, 65, 100
1, 8125, Note_on_c, 0, 67, 100
1, 8189, Note_off_c, 0, 67, 100
1, 8189, Note_on_c, 0, 69, 100
1, 8317, Note_off_c, 0, 69, 100
1, 8317, Note_on_c, 0, 71, 100
1, 8381, Note_off_c, 0, 71, 100
1, 8381, Note_on_c, 0, 67, 100
1, 8509, Note_off_c, 0, 67, 100
1, 8509, Note_on_c, 0, 65, 100
1, 8573, Note_off_c, 0, 65, 100
1, 8573, Note_on_c, 0, 67, 100
1, 8733, Note_off_c, 0, 67, 100
1, 8733, Note_on_c, 0, 65, 100
1, 8877, Note_off_c, 0, 65, 100
1, 8877, Note_on_c, 0, 65, 100
1, 8973, Note_off_c, 0, 65, 100
1, 8973, Note_on_c, 0, 67, 100
1, 9213, Note_off_c, 0, 67, 100
1, 9213, Note_on_c, 0, 69, 100
1, 9597, Note_off_c, 0, 69, 100
1, 9597, Note_on_c, 0, 67, 100
1, 9693, Note_off_c, 0, 67, 100
1, 9693, Note_on_c, 0, 69, 100
1, 9789, Note_off_c, 0, 69, 100
1, 9789, Note_on_c, 0, 71, 100
1, 9885, Note_off_c, 0, 71, 100
1, 9885, Note_on_c, 0, 73, 100
1, 9933, Note_off_c, 0, 73, 100
1, 9933, Note_on_c, 0, 73, 100
1, 10077, Note_off_c, 0, 73, 100
1, 10077, Note_on_c, 0, 69, 100
1, 10173, Note_off_c, 0, 69, 100
1, 10173, Note_on_c, 0, 71, 100
1, 10221, Note_off_c, 0, 71, 100
1, 10221, Note_on_c, 0, 71, 100
1, 10269, Note_off_c, 0, 71, 100
1, 10269, Note_on_c, 0, 69, 100
1, 10365, Note_off_c, 0, 69, 100
1, 10365, Note_on_c, 0, 65, 100
1, 10557, Note_off_c, 0, 65, 100
1, 10557, Note_on_c, 0, 65, 100
1, 10653, Note_off_c, 0, 65, 100
1, 11133, Note_on_c, 0, 65, 100
1, 11229, Note_off_c, 0, 65, 100
1, 11229, Note_on_c, 0, 67, 100
1, 11373, Note_off_c, 0, 67, 100
1, 11373, Note_on_c, 0, 71, 100
1, 11469, Note_off_c, 0, 71, 100
1, 11469, Note_on_c, 0, 64, 100
1, 11613, Note_off_c, 0, 64, 100
1, 11613, Note_on_c, 0, 65, 100
1, 11661, Note_off_c, 0, 65, 100
1, 11661, Note_on_c, 0, 67, 100
1, 11805, Note_off_c, 0, 67, 100
1, 11805, Note_on_c, 0, 67, 100
1, 11901, Note_off_c, 0, 67, 100
1, 11901, Note_on_c, 0, 61, 100
1, 11949, Note_off_c, 0, 61, 100
1, 11949, Note_on_c, 0, 60, 100
1, 12045, Note_off_c, 0, 60, 100
1, 12045, Note_on_c, 0, 59, 100
1, 12189, Note_off_c, 0, 59, 100
1, 12189, Note_on_c, 0, 58, 100
1, 12237, Note_off_c, 0, 58, 100
1, 12237, Note_on_c, 0, 57, 100
1, 12381, Note_off_c, 0, 57, 100
1, 12381, Note_on_c, 0, 56, 100
1, 12429, Note_off_c, 0, 56, 100
1, 12429, Note_on_c, 0, 55, 100
1, 12525, Note_off_c, 0, 55, 100
1, 12525, Note_on_c, 0, 59, 100
1, 12621, Note_off_c, 0, 59, 100
1, 12621, Note_on_c, 0, 64, 100
1, 12745, Note_off_c, 0, 64, 100
1, 12745, Note_on_c, 0, 65, 100
1, 12783, Note_off_c, 0, 65, 100
1, 12783, Note_on_c, 0, 66, 100
1, 12821, Note_off_c, 0, 66, 100
1, 12821, Note_on_c, 0, 68, 100
1, 12859, Note_off_c, 0, 68, 100
1, 12859, Note_on_c, 0, 68, 100
1, 13051, Note_off_c, 0, 68, 100
1, 13051, Note_on_c, 0, 68, 100
1, 13147, Note_off_c, 0, 68, 100
1, 13147, Note_on_c, 0, 67, 100
1, 13243, Note_off_c, 0, 67, 100
1, 13243, Note_on_c, 0, 67, 100
1, 13435, Note_off_c, 0, 67, 100
1, 13435, Note_on_c, 0, 62, 100
1, 13531, Note_off_c, 0, 62, 100
1, 13531, Note_on_c, 0, 65, 100
1, 13627, Note_off_c, 0, 65, 100
1, 13627, Note_on_c, 0, 69, 100
1, 13723, Note_off_c, 0, 69, 100
1, 13723, Note_on_c, 0, 72, 100
1, 13771, Note_off_c, 0, 72, 100
1, 13771, Note_on_c, 0, 71, 100
1, 13819, Note_off_c, 0, 71, 100
1, 13819, Note_on_c, 0, 69, 100
1, 13883, Note_off_c, 0, 69, 100
1, 13883, Note_on_c, 0, 65, 100
1, 13946, Note_off_c, 0, 65, 100
1, 13946, Note_on_c, 0, 62, 100
1, 14106, Note_off_c, 0, 62, 100
1, 14106, Note_on_c, 0, 57, 100
1, 14202, Note_off_c, 0, 57, 100
1, 14202, Note_on_c, 0, 59, 100
1, 14394, Note_off_c, 0, 59, 100
1, 15546, Note_on_c, 0, 63, 100
1, 15642, Note_off_c, 0, 63, 100
1, 15642, Note_on_c, 0, 68, 100
1, 15738, Note_off_c, 0, 68, 100
1, 15738, Note_on_c, 0, 72, 100
1, 15834, Note_off_c, 0, 72, 100
1, 15834, Note_on_c, 0, 72, 100
1, 15978, Note_off_c, 0, 72, 100
1, 15978, Note_on_c, 0, 72, 100
1, 16074, Note_off_c, 0, 72, 100
1, 16074, Note_on_c, 0, 70, 100
1, 16218, Note_off_c, 0, 70, 100
1, 16218, Note_on_c, 0, 66, 100
1, 16266, Note_off_c, 0, 66, 100
1, 16266, Note_on_c, 0, 63, 100
1, 16362, Note_off_c, 0, 63, 100
1, 16362, Note_on_c, 0, 60, 100
1, 16458, Note_off_c, 0, 60, 100
1, 17034, Note_on_c, 0, 60, 100
1, 17130, Note_off_c, 0, 60, 100
1, 17130, Note_on_c, 0, 63, 100
1, 17226, Note_off_c, 0, 63, 100
1, 17226, Note_on_c, 0, 68, 100
1, 17514, Note_off_c, 0, 68, 100
1, 17514, Note_on_c, 0, 63, 100
1, 17610, Note_off_c, 0, 63, 100
1, 17610, Note_on_c, 0, 68, 100
1, 17706, Note_off_c, 0, 68, 100
1, 17706, Note_on_c, 0, 65, 100
1, 17802, Note_off_c, 0, 65, 100
1, 17802, Note_on_c, 0, 60, 100
1, 17914, Note_off_c, 0, 60, 100
1, 17914, Note_on_c, 0, 59, 100
1, 17978, Note_off_c, 0, 59, 100
1, 17978, Note_on_c, 0, 58, 100
1, 18074, Note_off_c, 0, 58, 100
1, 18762, Note_on_c, 0, 69, 100
1, 18874, Note_off_c, 0, 69, 100
1, 18874, Note_on_c, 0, 65, 100
1, 18938, Note_off_c, 0, 65, 100
1, 18938, Note_on_c, 0, 67, 100
1, 19098, Note_off_c, 0, 67, 100
1, 19098, Note_on_c, 0, 66, 100
1, 19194, Note_off_c, 0, 66, 100
1, 19194, Note_on_c, 0, 63, 100
1, 19290, Note_off_c, 0, 63, 100
1, 19290, Note_on_c, 0, 66, 100
1, 19338, Note_off_c, 0, 66, 100
1, 19338, Note_on_c, 0, 67, 100
1, 19450, Note_off_c, 0, 67, 100
1, 19450, Note_on_c, 0, 67, 100
1, 19578, Note_off_c, 0, 67, 100
1, 19578, Note_on_c, 0, 58, 100
1, 19674, Note_off_c, 0, 58, 100
1, 20026, Note_on_c, 0, 58, 100
1, 20154, Note_off_c, 0, 58, 100
1, 20154, Note_on_c, 0, 61, 100
1, 20202, Note_off_c, 0, 61, 100
1, 20202, Note_on_c, 0, 63, 100
1, 20298, Note_off_c, 0, 63, 100
1, 20298, Note_on_c, 0, 65, 100
1, 20394, Note_off_c, 0, 65, 100
1, 20634, Note_on_c, 0, 68, 100
1, 20682, Note_off_c, 0, 68, 100
1, 20682, Note_on_c, 0, 65, 100
1, 20730, Note_off_c, 0, 65, 100
1, 20730, Note_on_c, 0, 63, 100
1, 20826, Note_off_c, 0, 63, 100
1, 20826, Note_on_c, 0, 66, 100
1, 20874, Note_off_c, 0, 66, 100
1, 20874, Note_on_c, 0, 68, 100
1, 20970, Note_off_c, 0, 68, 100
1, 20970, Note_on_c, 0, 70, 100
1, 21066, Note_off_c, 0, 70, 100
1, 21066, Note_on_c, 0, 72, 100
1, 21162, Note_off_c, 0, 72, 100
1, 21594, Note_on_c, 0, 57, 100
1, 21690, Note_off_c, 0, 57, 100
1, 21690, Note_on_c, 0, 59, 100
1, 21738, Note_off_c, 0, 59, 100
1, 21738, Note_on_c, 0, 62, 100
1, 21834, Note_off_c, 0, 62, 100
1, 21834, Note_on_c, 0, 65, 100
1, 21930, Note_off_c, 0, 65, 100
1, 22122, Note_on_c, 0, 59, 100
1, 22218, Note_off_c, 0, 59, 100
1, 22218, Note_on_c, 0, 62, 100
1, 22314, Note_off_c, 0, 62, 100
1, 22314, Note_on_c, 0, 65, 100
1, 22410, Note_off_c, 0, 65, 100
1, 22410, Note_on_c, 0, 69, 100
1, 22506, Note_off_c, 0, 69, 100
1, 22506, Note_on_c, 0, 71, 100
1, 22602, Note_off_c, 0, 71, 100
1, 22602, Note_on_c, 0, 74, 100
1, 22698, Note_off_c, 0, 74, 100
1, 23082, Note_on_c, 0, 57, 100
1, 23178, Note_off_c, 0, 57, 100
1, 23178, Note_on_c, 0, 59, 100
1, 23226, Note_off_c, 0, 59, 100
1, 23226, Note_on_c, 0, 62, 100
1, 23322, Note_off_c, 0, 62, 100
1, 23322, Note_on_c, 0, 65, 100
1, 23466, Note_off_c, 0, 65, 100
1, 23466, Note_on_c, 0, 69, 100
1, 23562, Note_off_c, 0, 69, 100
1, 23562, Note_on_c, 0, 71, 100
1, 23674, Note_off_c, 0, 71, 100
1, 23674, Note_on_c, 0, 74, 100
1, 23738, Note_off_c, 0, 74, 100
1, 23738, Note_on_c, 0, 69, 100
1, 23834, Note_off_c, 0, 69, 100
1, 24138, Note_on_c, 0, 71, 100
1, 24250, Note_off_c, 0, 71, 100
1, 24250, Note_on_c, 0, 69, 100
1, 24314, Note_off_c, 0, 69, 100
1, 24314, Note_on_c, 0, 65, 100
1, 24426, Note_off_c, 0, 65, 100
1, 24426, Note_on_c, 0, 62, 100
1, 24522, Note_off_c, 0, 62, 100
1, 24522, Note_on_c, 0, 59, 100
1, 24618, Note_off_c, 0, 59, 100
1, 24954, Note_on_c, 0, 59, 100
1, 25242, Note_off_c, 0, 59, 100
1, 25242, Note_on_c, 0, 59, 100
1, 25290, Note_off_c, 0, 59, 100
1, 25290, Note_on_c, 0, 62, 100
1, 25401, Note_off_c, 0, 62, 100
1, 25401, Note_on_c, 0, 65, 100
1, 25465, Note_off_c, 0, 65, 100
1, 25465, Note_on_c, 0, 69, 100
1, 25528, Note_off_c, 0, 69, 100
1, 25528, Note_on_c, 0, 71, 100
1, 25624, Note_off_c, 0, 71, 100
1, 25624, Note_on_c, 0, 74, 100
1, 25768, Note_off_c, 0, 74, 100
1, 25768, Note_on_c, 0, 72, 100
1, 25864, Note_off_c, 0, 72, 100
1, 25864, Note_on_c, 0, 69, 100
1, 26008, Note_off_c, 0, 69, 100
1, 26008, Note_on_c, 0, 71, 100
1, 26104, Note_off_c, 0, 71, 100
1, 26104, Note_on_c, 0, 69, 100
1, 26200, Note_off_c, 0, 69, 100
1, 26200, Note_on_c, 0, 65, 100
1, 26296, Note_off_c, 0, 65, 100
1, 26296, Note_on_c, 0, 62, 100
1, 26392, Note_off_c, 0, 62, 100
1, 26392, Note_on_c, 0, 59, 100
1, 26488, Note_off_c, 0, 59, 100
1, 26488, Note_on_c, 0, 67, 100
1, 26551, Note_off_c, 0, 67, 100
1, 26551, Note_on_c, 0, 65, 100
1, 26615, Note_off_c, 0, 65, 100
1, 26615, Note_on_c, 0, 62, 100
1, 26742, Note_off_c, 0, 62, 100
1, 26742, Note_on_c, 0, 57, 100
1, 26838, Note_off_c, 0, 57, 100
1, 27398, Note_on_c, 0, 71, 100
1, 27510, Note_off_c, 0, 71, 100
1, 27510, Note_on_c, 0, 67, 100
1, 27638, Note_off_c, 0, 67, 100
1, 27638, Note_on_c, 0, 69, 100
1, 27734, Note_off_c, 0, 69, 100
1, 27734, Note_on_c, 0, 65, 100
1, 27830, Note_off_c, 0, 65, 100
1, 27830, Note_on_c, 0, 62, 100
1, 27926, Note_off_c, 0, 62, 100
1, 27926, Note_on_c, 0, 59, 100
1, 28022, Note_off_c, 0, 59, 100
1, 28406, Note_on_c, 0, 62, 100
1, 28502, Note_off_c, 0, 62, 100
1, 28502, Note_on_c, 0, 65, 100
1, 28598, Note_off_c, 0, 65, 100
1, 28598, Note_on_c, 0, 67, 100
1, 28694, Note_off_c, 0, 67, 100
1, 28694, Note_on_c, 0, 69, 100
1, 28790, Note_off_c, 0, 69, 100
1, 28790, Note_on_c, 0, 71, 100
1, 28886, Note_off_c, 0, 71, 100
1, 29366, Note_on_c, 0, 62, 100
1, 29414, Note_off_c, 0, 62, 100
1, 29414, Note_on_c, 0, 65, 100
1, 29510, Note_off_c, 0, 65, 100
1, 29510, Note_on_c, 0, 60, 100
1, 29606, Note_off_c, 0, 60, 100
1, 29606, Note_on_c, 0, 65, 100
1, 29702, Note_off_c, 0, 65, 100
1, 29702, Note_on_c, 0, 69, 100
1, 29798, Note_off_c, 0, 69, 100
1, 29798, Note_on_c, 0, 67, 100
1, 29894, Note_off_c, 0, 67, 100
1, 29894, Note_on_c, 0, 69, 100
1, 29942, Note_off_c, 0, 69, 100
1, 29942, Note_on_c, 0, 67, 100
1, 30038, Note_off_c, 0, 67, 100
1, 30038, Note_on_c, 0, 69, 100
1, 30134, Note_off_c, 0, 69, 100
1, 30134, Note_on_c, 0, 67, 100
1, 30326, Note_off_c, 0, 67, 100
1, 30326, Note_on_c, 0, 60, 100
1, 30390, Note_off_c, 0, 60, 100
1, 30390, Note_on_c, 0, 65, 100
1, 30454, Note_off_c, 0, 65, 100
1, 30454, Note_on_c, 0, 69, 100
1, 30614, Note_off_c, 0, 69, 100
1, 30614, Note_on_c, 0, 74, 100
1, 30662, Note_off_c, 0, 74, 100
1, 30662, Note_on_c, 0, 73, 100
1, 30710, Note_off_c, 0, 73, 100
1, 30710, Note_on_c, 0, 69, 100
1, 30806, Note_off_c, 0, 69, 100
1, 30806, Note_on_c, 0, 65, 100
1, 30902, Note_off_c, 0, 65, 100
1, 30902, Note_on_c, 0, 62, 100
1, 30998, Note_off_c, 0, 62, 100
1, 30998, Note_on_c, 0, 58, 100
1, 31094, Note_off_c, 0, 58, 100
1, 31094, Note_on_c, 0, 67, 100
1, 31158, Note_off_c, 0, 67, 100
1, 31158, Note_on_c, 0, 65, 100
1, 31222, Note_off_c, 0, 65, 100
1, 31222, Note_on_c, 0, 62, 100
1, 31286, Note_off_c, 0, 62, 100
1, 31286, Note_on_c, 0, 57, 100
1, 31478, Note_off_c, 0, 57, 100
1, 31478, Note_on_c, 0, 57, 100
1, 31574, Note_off_c, 0, 57, 100
1, 31574, Note_on_c, 0, 59, 100
1, 31670, Note_off_c, 0, 59, 100
1, 31670, Note_on_c, 0, 55, 100
1, 31766, Note_off_c, 0, 55, 100
1, 32246, Note_on_c, 0, 55, 100
1, 32438, Note_off_c, 0, 55, 100
1, 32438, Note_on_c, 0, 59, 100
1, 32502, Note_off_c, 0, 59, 100
1, 32502, Note_on_c, 0, 57, 100
1, 32566, Note_off_c, 0, 57, 100
1, 32566, Note_on_c, 0, 55, 100
1, 32630, Note_off_c, 0, 55, 100
1, 32630, Note_on_c, 0, 53, 100
1, 32726, Note_off_c, 0, 53, 100
1, 33014, Note_on_c, 0, 53, 100
1, 33206, Note_off_c, 0, 53, 100
1, 33206, Note_on_c, 0, 59, 100
1, 33302, Note_off_c, 0, 59, 100
1, 33302, Note_on_c, 0, 60, 100
1, 33398, Note_off_c, 0, 60, 100
1, 33398, Note_on_c, 0, 57, 100
1, 33494, Note_off_c, 0, 57, 100
1, 33782, Note_on_c, 0, 55, 100
1, 33878, Note_off_c, 0, 55, 100
1, 33878, Note_on_c, 0, 59, 100
1, 33974, Note_off_c, 0, 59, 100
1, 33974, Note_on_c, 0, 62, 100
1, 34070, Note_off_c, 0, 62, 100
1, 34070, Note_on_c, 0, 57, 100
1, 34166, Note_off_c, 0, 57, 100
1, 34550, Note_on_c, 0, 57, 100
1, 34742, Note_off_c, 0, 57, 100
1, 34742, Note_on_c, 0, 60, 100
1, 34806, Note_off_c, 0, 60, 100
1, 34806, Note_on_c, 0, 64, 100
1, 34870, Note_off_c, 0, 64, 100
1, 34870, Note_on_c, 0, 59, 100
1, 34966, Note_off_c, 0, 59, 100
1, 35270, Note_on_c, 0, 59, 100
1, 35462, Note_off_c, 0, 59, 100
1, 35462, Note_on_c, 0, 62, 100
1, 35510, Note_off_c, 0, 62, 100
1, 35510, Note_on_c, 0, 65, 100
1, 35606, Note_off_c, 0, 65, 100
1, 35606, Note_on_c, 0, 67, 100
1, 35702, Note_off_c, 0, 67, 100
1, 36038, Note_on_c, 0, 62, 100
1, 36150, Note_off_c, 0, 62, 100
1, 36150, Note_on_c, 0, 65, 100
1, 36214, Note_off_c, 0, 65, 100
1, 36214, Note_on_c, 0, 69, 100
1, 36326, Note_off_c, 0, 69, 100
1, 36326, Note_on_c, 0, 72, 100
1, 36422, Note_off_c, 0, 72, 100
1, 36422, Note_on_c, 0, 67, 100
1, 36518, Note_off_c, 0, 67, 100
1, 36806, Note_on_c, 0, 67, 100
1, 36998, Note_off_c, 0, 67, 100
1, 36998, Note_on_c, 0, 71, 100
1, 37122, Note_off_c, 0, 71, 100
1, 37122, Note_on_c, 0, 74, 100
1, 37160, Note_off_c, 0, 74, 100
1, 37160, Note_on_c, 0, 73, 100
1, 37198, Note_off_c, 0, 73, 100
1, 37198, Note_on_c, 0, 72, 100
1, 37294, Note_off_c, 0, 72, 100
1, 37572, Note_on_c, 0, 65, 100
1, 37716, Note_off_c, 0, 65, 100
1, 37716, Note_on_c, 0, 69, 100
1, 37876, Note_off_c, 0, 69, 100
1, 37876, Note_on_c, 0, 72, 100
1, 38004, Note_off_c, 0, 72, 100
1, 38004, Note_on_c, 0, 71, 100
1, 38100, Note_off_c, 0, 71, 100
1, 38100, Note_on_c, 0, 67, 100
1, 38196, Note_off_c, 0, 67, 100
1, 38196, Note_on_c, 0, 74, 100
1, 38244, Note_off_c, 0, 74, 100
1, 38244, Note_on_c, 0, 72, 100
1, 38292, Note_off_c, 0, 72, 100
1, 38292, Note_on_c, 0, 71, 100
1, 38340, Note_off_c, 0, 71, 100
1, 38340, Note_on_c, 0, 62, 100
1, 38436, Note_off_c, 0, 62, 100
1, 38676, Note_on_c, 0, 62, 100
1, 38916, Note_off_c, 0, 62, 100
1, 38916, Note_on_c, 0, 69, 100
1, 39012, Note_off_c, 0, 69, 100
1, 39012, Note_on_c, 0, 71, 100
1, 39060, Note_off_c, 0, 71, 100
1, 39060, Note_on_c, 0, 70, 100
1, 39108, Note_off_c, 0, 70, 100
1, 39108, Note_on_c, 0, 66, 100
1, 39252, Note_off_c, 0, 66, 100
1, 39252, Note_on_c, 0, 68, 100
1, 39348, Note_off_c, 0, 68, 100
1, 39348, Note_on_c, 0, 64, 100
1, 39444, Note_off_c, 0, 64, 100
1, 39444, Note_on_c, 0, 60, 100
1, 39540, Note_off_c, 0, 60, 100
1, 39540, Note_on_c, 0, 62, 100
1, 39636, Note_off_c, 0, 62, 100
1, 39636, Note_on_c, 0, 60, 100
1, 39684, Note_off_c, 0, 60, 100
1, 39684, Note_on_c, 0, 59, 100
1, 39876, Note_off_c, 0, 59, 100
1, 39876, Note_on_c, 0, 63, 100
1, 40116, Note_off_c, 0, 63, 100
1, 40116, Note_on_c, 0, 70, 100
1, 40212, Note_off_c, 0, 70, 100
1, 40212, Note_on_c, 0, 70, 100
1, 40308, Note_off_c, 0, 70, 100
1, 40308, Note_on_c, 0, 61, 100
1, 40404, Note_off_c, 0, 61, 100
1, 40692, Note_on_c, 0, 61, 100
1, 40756, Note_off_c, 0, 61, 100
1, 40756, Note_on_c, 0, 66, 100
1, 40820, Note_off_c, 0, 66, 100
1, 40820, Note_on_c, 0, 70, 100
1, 40884, Note_off_c, 0, 70, 100
1, 40884, Note_on_c, 0, 71, 100
1, 40980, Note_off_c, 0, 71, 100
1, 40980, Note_on_c, 0, 63, 100
1, 41140, Note_off_c, 0, 63, 100
1, 41140, Note_on_c, 0, 66, 100
1, 41204, Note_off_c, 0, 66, 100
1, 41204, Note_on_c, 0, 70, 100
1, 41316, Note_off_c, 0, 70, 100
1, 41316, Note_on_c, 0, 72, 100
1, 41412, Note_off_c, 0, 72, 100
1, 41412, Note_on_c, 0, 68, 100
1, 41508, Note_off_c, 0, 68, 100
1, 41796, Note_on_c, 0, 68, 100
1, 41988, Note_off_c, 0, 68, 100
1, 41988, Note_on_c, 0, 72, 100
1, 42132, Note_off_c, 0, 72, 100
1, 42132, Note_on_c, 0, 75, 100
1, 42228, Note_off_c, 0, 75, 100
1, 42228, Note_on_c, 0, 73, 100
1, 42324, Note_off_c, 0, 73, 100
1, 42324, Note_on_c, 0, 70, 100
1, 42420, Note_off_c, 0, 70, 100
1, 42420, Note_on_c, 0, 73, 100
1, 42516, Note_off_c, 0, 73, 100
1, 42516, Note_on_c, 0, 70, 100
1, 42804, Note_off_c, 0, 70, 100
1, 42804, Note_on_c, 0, 63, 100
1, 42900, Note_off_c, 0, 63, 100
1, 42900, Note_on_c, 0, 68, 100
1, 42996, Note_off_c, 0, 68, 100
1, 42996, Note_on_c, 0, 72, 100
1, 43092, Note_off_c, 0, 72, 100
1, 43332, Note_on_c, 0, 61, 100
1, 43428, Note_off_c, 0, 61, 100
1, 43428, Note_on_c, 0, 66, 100
1, 43524, Note_off_c, 0, 66, 100
1, 43524, Note_on_c, 0, 70, 100
1, 43572, Note_off_c, 0, 70, 100
1, 43572, Note_on_c, 0, 60, 100
1, 43668, Note_off_c, 0, 60, 100
1, 43956, Note_on_c, 0, 60, 100
1, 44052, Note_off_c, 0, 60, 100
1, 44052, Note_on_c, 0, 63, 100
1, 44148, Note_off_c, 0, 63, 100
1, 44148, Note_on_c, 0, 68, 100
1, 44244, Note_off_c, 0, 68, 100
1, 44244, Note_on_c, 0, 67, 100
1, 44340, Note_off_c, 0, 67, 100
1, 44340, Note_on_c, 0, 67, 100
1, 44388, Note_off_c, 0, 67, 100
1, 44388, Note_on_c, 0, 64, 100
1, 44436, Note_off_c, 0, 64, 100
1, 44436, Note_on_c, 0, 65, 100
1, 44532, Note_off_c, 0, 65, 100
1, 44532, Note_on_c, 0, 69, 100
1, 44628, Note_off_c, 0, 69, 100
1, 44868, Note_on_c, 0, 58, 100
1, 44980, Note_off_c, 0, 58, 100
1, 44980, Note_on_c, 0, 61, 100
1, 45044, Note_off_c, 0, 61, 100
1, 45044, Note_on_c, 0, 62, 100
1, 45156, Note_off_c, 0, 62, 100
1, 45156, Note_on_c, 0, 65, 100
1, 45252, Note_off_c, 0, 65, 100
1, 45252, Note_on_c, 0, 63, 100
1, 45300, Note_off_c, 0, 63, 100
1, 45300, Note_on_c, 0, 66, 100
1, 45492, Note_off_c, 0, 66, 100
1, 45492, Note_on_c, 0, 70, 100
1, 45556, Note_off_c, 0, 70, 100
1, 45556, Note_on_c, 0, 72, 100
1, 45620, Note_off_c, 0, 72, 100
1, 45620, Note_on_c, 0, 71, 100
1, 45684, Note_off_c, 0, 71, 100
1, 45684, Note_on_c, 0, 68, 100
1, 45780, Note_off_c, 0, 68, 100
1, 45780, Note_on_c, 0, 66, 100
1, 45828, Note_off_c, 0, 66, 100
1, 45828, Note_on_c, 0, 63, 100
1, 45924, Note_off_c, 0, 63, 100
1, 46260, Note_on_c, 0, 62, 100
1, 46324, Note_off_c, 0, 62, 100
1, 46324, Note_on_c, 0, 65, 100
1, 46388, Note_off_c, 0, 65, 100
1, 46388, Note_on_c, 0, 69, 100
1, 46484, Note_off_c, 0, 69, 100
1, 46740, Note_on_c, 0, 64, 100
1, 46900, Note_off_c, 0, 64, 100
1, 46900, Note_on_c, 0, 67, 100
1, 46964, Note_off_c, 0, 67, 100
1, 46964, Note_on_c, 0, 71, 100
1, 47092, Note_off_c, 0, 71, 100
1, 47092, Note_on_c, 0, 65, 100
1, 47188, Note_off_c, 0, 65, 100
1, 47412, Note_on_c, 0, 65, 100
1, 47460, Note_off_c, 0, 65, 100
1, 47460, Note_on_c, 0, 69, 100
1, 47556, Note_off_c, 0, 69, 100
1, 47556, Note_on_c, 0, 72, 100
1, 47668, Note_off_c, 0, 72, 100
1, 47668, Note_on_c, 0, 67, 100
1, 47732, Note_off_c, 0, 67, 100
1, 47732, Note_on_c, 0, 69, 100
1, 47860, Note_off_c, 0, 69, 100
1, 47860, Note_on_c, 0, 72, 100
1, 47924, Note_off_c, 0, 72, 100
1, 47924, Note_on_c, 0, 69, 100
1, 48020, Note_off_c, 0, 69, 100
1, 48372, Note_on_c, 0, 69, 100
1, 48420, Note_off_c, 0, 69, 100
1, 48420, Note_on_c, 0, 71, 100
1, 48468, Note_off_c, 0, 71, 100
1, 48468, Note_on_c, 0, 72, 100
1, 48660, Note_off_c, 0, 72, 100
1, 48660, Note_on_c, 0, 74, 100
1, 48708, Note_off_c, 0, 74, 100
1, 48708, Note_on_c, 0, 72, 100
1, 48756, Note_off_c, 0, 72, 100
1, 48756, Note_on_c, 0, 69, 100
1, 48852, Note_off_c, 0, 69, 100
1, 48852, Note_on_c, 0, 65, 100
1, 48948, Note_off_c, 0, 65, 100
1, 48948, Note_on_c, 0, 62, 100
1, 49140, Note_off_c, 0, 62, 100
1, 49140, Note_on_c, 0, 62, 100
1, 49284, Note_off_c, 0, 62, 100
1, 49284, Note_on_c, 0, 66, 100
1, 49332, Note_off_c, 0, 66, 100
1, 49332, Note_on_c, 0, 69, 100
1, 49380, Note_off_c, 0, 69, 100
1, 49380, Note_on_c, 0, 69, 100
1, 49428, Note_off_c, 0, 69, 100
1, 49428, Note_on_c, 0, 72, 100
1, 49476, Note_off_c, 0, 72, 100
1, 49476, Note_on_c, 0, 66, 100
1, 49524, Note_off_c, 0, 66, 100
1, 49524, Note_on_c, 0, 60, 100
1, 49764, Note_off_c, 0, 60, 100
1, 49764, Note_on_c, 0, 67, 100
1, 49812, Note_off_c, 0, 67, 100
1, 49812, Note_on_c, 0, 71, 100
1, 49860, Note_off_c, 0, 71, 100
1, 49860, Note_on_c, 0, 62, 100
1, 50100, Note_off_c, 0, 62, 100
1, 50100, Note_on_c, 0, 69, 100
1, 50196, Note_off_c, 0, 69, 100
1, 50196, Note_on_c, 0, 71, 100
1, 50292, Note_off_c, 0, 71, 100
1, 50292, Note_on_c, 0, 64, 100
1, 50484, Note_off_c, 0, 64, 100
1, 50484, Note_on_c, 0, 71, 100
1, 50580, Note_off_c, 0, 71, 100
1, 50580, Note_on_c, 0, 71, 100
1, 50676, Note_off_c, 0, 71, 100
1, 50676, Note_on_c, 0, 72, 100
1, 50772, Note_off_c, 0, 72, 100
1, 50772, Note_on_c, 0, 69, 100
1, 50868, Note_off_c, 0, 69, 100
1, 50868, Note_on_c, 0, 72, 100
1, 50916, Note_off_c, 0, 72, 100
1, 50916, Note_on_c, 0, 69, 100
1, 51012, Note_off_c, 0, 69, 100
1, 51012, Note_on_c, 0, 71, 100
1, 51124, Note_off_c, 0, 71, 100
1, 51124, Note_on_c, 0, 69, 100
1, 51220, Note_off_c, 0, 69, 100
1, 51699, Note_on_c, 0, 70, 100
1, 51763, Note_off_c, 0, 70, 100
1, 51763, Note_on_c, 0, 71, 100
1, 52163, Note_off_c, 0, 71, 100
1, 52163, Note_on_c, 0, 69, 100
1, 52307, Note_off_c, 0, 69, 100
1, 52307, Note_on_c, 0, 71, 100
1, 52451, Note_off_c, 0, 71, 100
1, 52451, Note_on_c, 0, 71, 100
1, 52499, Note_off_c, 0, 71, 100
1, 52499, Note_on_c, 0, 74, 100
1, 52547, Note_off_c, 0, 74, 100
1, 52547, Note_on_c, 0, 69, 100
1, 52643, Note_off_c, 0, 69, 100
1, 52979, Note_on_c, 0, 69, 100
1, 53043, Note_off_c, 0, 69, 100
1, 53043, Note_on_c, 0, 72, 100
1, 53107, Note_off_c, 0, 72, 100
1, 53107, Note_on_c, 0, 74, 100
1, 53219, Note_off_c, 0, 74, 100
1, 53219, Note_on_c, 0, 73, 100
1, 53267, Note_off_c, 0, 73, 100
1, 53267, Note_on_c, 0, 65, 100
1, 53315, Note_off_c, 0, 65, 100
1, 53315, Note_on_c, 0, 69, 100
1, 53411, Note_off_c, 0, 69, 100
1, 53747, Note_on_c, 0, 65, 100
1, 53843, Note_off_c, 0, 65, 100
1, 53843, Note_on_c, 0, 69, 100
1, 53939, Note_off_c, 0, 69, 100
1, 53939, Note_on_c, 0, 72, 100
1, 54035, Note_off_c, 0, 72, 100
1, 54035, Note_on_c, 0, 72, 100
1, 54131, Note_off_c, 0, 72, 100
1, 54131, Note_on_c, 0, 69, 100
1, 54195, Note_off_c, 0, 69, 100
1, 54195, Note_on_c, 0, 65, 100
1, 54259, Note_off_c, 0, 65, 100
1, 54259, Note_on_c, 0, 62, 100
1, 54387, Note_off_c, 0, 62, 100
1, 54387, Note_on_c, 0, 57, 100
1, 54451, Note_off_c, 0, 57, 100
1, 54451, Note_on_c, 0, 64, 100
1, 54547, Note_off_c, 0, 64, 100
1, 54899, Note_on_c, 0, 64, 100
1, 54937, Note_off_c, 0, 64, 100
1, 54937, Note_on_c, 0, 67, 100
1, 54975, Note_off_c, 0, 67, 100
1, 54975, Note_on_c, 0, 62, 100
1, 55051, Note_off_c, 0, 62, 100
1, 55051, Note_on_c, 0, 67, 100
1, 55185, Note_off_c, 0, 67, 100
1, 55185, Note_on_c, 0, 71, 100
1, 55233, Note_off_c, 0, 71, 100
1, 55233, Note_on_c, 0, 70, 100
1, 55377, Note_off_c, 0, 70, 100
1, 55377, Note_on_c, 0, 68, 100
1, 55425, Note_off_c, 0, 68, 100
1, 55425, Note_on_c, 0, 71, 100
1, 55473, Note_off_c, 0, 71, 100
1, 55473, Note_on_c, 0, 70, 100
1, 55713, Note_off_c, 0, 70, 100
1, 55713, Note_on_c, 0, 68, 100
1, 55809, Note_off_c, 0, 68, 100
1, 55809, Note_on_c, 0, 67, 100
1, 55921, Note_off_c, 0, 67, 100
1, 55921, Note_on_c, 0, 67, 100
1, 55985, Note_off_c, 0, 67, 100
1, 55985, Note_on_c, 0, 64, 100
1, 56049, Note_off_c, 0, 64, 100
1, 56049, Note_on_c, 0, 60, 100
1, 56113, Note_off_c, 0, 60, 100
1, 56113, Note_on_c, 0, 65, 100
1, 56177, Note_off_c, 0, 65, 100
1, 56177, Note_on_c, 0, 69, 100
1, 56241, Note_off_c, 0, 69, 100
1, 56241, Note_on_c, 0, 72, 100
1, 56433, Note_off_c, 0, 72, 100
1, 56433, Note_on_c, 0, 69, 100
1, 56529, Note_off_c, 0, 69, 100
1, 56529, Note_on_c, 0, 65, 100
1, 56625, Note_off_c, 0, 65, 100
1, 56625, Note_on_c, 0, 62, 100
1, 56753, Note_off_c, 0, 62, 100
1, 56753, Note_on_c, 0, 64, 100
1, 56817, Note_off_c, 0, 64, 100
1, 56817, Note_on_c, 0, 65, 100
1, 56961, Note_off_c, 0, 65, 100
1, 56961, Note_on_c, 0, 67, 100
1, 57057, Note_off_c, 0, 67, 100
1, 57057, Note_on_c, 0, 66, 100
1, 57105, Note_off_c, 0, 66, 100
1, 57105, Note_on_c, 0, 62, 100
1, 57201, Note_off_c, 0, 62, 100
1, 57729, Note_on_c, 0, 67, 100
1, 57777, Note_off_c, 0, 67, 100
1, 57777, Note_on_c, 0, 68, 100
1, 57825, Note_off_c, 0, 68, 100
1, 57825, Note_on_c, 0, 69, 100
1, 58257, Note_off_c, 0, 69, 100
1, 58257, Note_on_c, 0, 62, 100
1, 58497, Note_off_c, 0, 62, 100
1, 58497, Note_on_c, 0, 65, 100
1, 58737, Note_off_c, 0, 65, 100
1, 58737, Note_on_c, 0, 61, 100
1, 58881, Note_off_c, 0, 61, 100
1, 58881, Note_on_c, 0, 64, 100
1, 58993, Note_off_c, 0, 64, 100
1, 58993, Note_on_c, 0, 62, 100
1, 59089, Note_off_c, 0, 62, 100
1, 59457, Note_on_c, 0, 62, 100
1, 59649, Note_off_c, 0, 62, 100
1, 59649, Note_on_c, 0, 69, 100
1, 59761, Note_off_c, 0, 69, 100
1, 59761, Note_on_c, 0, 71, 100
1, 59889, Note_off_c, 0, 71, 100
1, 59889, Note_on_c, 0, 64, 100
1, 59985, Note_off_c, 0, 64, 100
1, 59985, Note_on_c, 0, 63, 100
1, 60081, Note_off_c, 0, 63, 100
1, 60081, Note_on_c, 0, 62, 100
1, 60177, Note_off_c, 0, 62, 100
1, 60177, Note_on_c, 0, 65, 100
1, 60225, Note_off_c, 0, 65, 100
1, 60225, Note_on_c, 0, 60, 100
1, 60321, Note_off_c, 0, 60, 100
1, 60321, Note_on_c, 0, 63, 100
1, 60417, Note_off_c, 0, 63, 100
1, 60417, Note_on_c, 0, 68, 100
1, 60561, Note_off_c, 0, 68, 100
1, 60561, Note_on_c, 0, 71, 100
1, 60609, Note_off_c, 0, 71, 100
1, 60609, Note_on_c, 0, 64, 100
1, 60705, Note_off_c, 0, 64, 100
1, 61041, Note_on_c, 0, 64, 100
1, 61137, Note_off_c, 0, 64, 100
1, 61137, Note_on_c, 0, 68, 100
1, 61185, Note_off_c, 0, 68, 100
1, 61185, Note_on_c, 0, 70, 100
1, 61297, Note_off_c, 0, 70, 100
1, 61297, Note_on_c, 0, 71, 100
1, 61425, Note_off_c, 0, 71, 100
1, 61425, Note_on_c, 0, 63, 100
1, 61617, Note_off_c, 0, 63, 100
1, 61617, Note_on_c, 0, 63, 100
1, 61713, Note_off_c, 0, 63, 100
1, 61713, Note_on_c, 0, 66, 100
1, 61761, Note_off_c, 0, 66, 100
1, 61761, Note_on_c, 0, 70, 100
1, 62049, Note_off_c, 0, 70, 100
1, 62049, Note_on_c, 0, 68, 100
1, 62145, Note_off_c, 0, 68, 100
1, 62145, Note_on_c, 0, 66, 100
1, 62257, Note_off_c, 0, 66, 100
1, 62257, Note_on_c, 0, 63, 100
1, 62385, Note_off_c, 0, 63, 100
1, 62385, Note_on_c, 0, 59, 100
1, 62513, Note_off_c, 0, 59, 100
1, 62513, Note_on_c, 0, 61, 100
1, 62577, Note_off_c, 0, 61, 100
1, 62577, Note_on_c, 0, 62, 100
1, 62769, Note_off_c, 0, 62, 100
1, 62769, Note_on_c, 0, 67, 100
1, 62865, Note_off_c, 0, 67, 100
1, 62865, Note_on_c, 0, 62, 100
1, 62961, Note_off_c, 0, 62, 100
1, 62961, Note_on_c, 0, 61, 100
1, 63057, Note_off_c, 0, 61, 100
1, 63057, Note_on_c, 0, 59, 100
1, 63201, Note_off_c, 0, 59, 100
1, 63201, Note_on_c, 0, 58, 100
1, 63297, Note_off_c, 0, 58, 100
1, 63297, Note_on_c, 0, 57, 100
1, 63393, Note_off_c, 0, 57, 100
1, 63393, Note_on_c, 0, 56, 100
1, 63489, Note_off_c, 0, 56, 100
1, 63489, Note_on_c, 0, 55, 100
1, 63585, Note_off_c, 0, 55, 100
1, 63585, Note_on_c, 0, 59, 100
1, 63681, Note_off_c, 0, 59, 100
1, 63681, Note_on_c, 0, 57, 100
1, 63729, Note_off_c, 0, 57, 100
1, 63729, Note_on_c, 0, 62, 100
1, 63921, Note_off_c, 0, 62, 100
1, 63921, Note_on_c, 0, 65, 100
1, 63969, Note_off_c, 0, 65, 100
1, 63969, Note_on_c, 0, 69, 100
1, 64065, Note_off_c, 0, 69, 100
1, 64065, Note_on_c, 0, 74, 100
1, 64161, Note_off_c, 0, 74, 100
1, 64881, Note_on_c, 0, 70, 100
1, 65601, Note_off_c, 0, 70, 100
1, 65601, Note_on_c, 0, 68, 100
1, 65713, Note_off_c, 0, 68, 100
1, 65713, Note_on_c, 0, 70, 100
1, 65905, Note_off_c, 0, 70, 100
1, 66273, Note_on_c, 0, 70, 100
1, 66321, Note_off_c, 0, 70, 100
1, 66321, Note_on_c, 0, 71, 100
1, 66369, Note_off_c, 0, 71, 100
1, 66369, Note_on_c, 0, 72, 100
1, 66673, Note_off_c, 0, 72, 100
1, 66673, Note_on_c, 0, 70, 100
1, 66801, Note_off_c, 0, 70, 100
1, 66801, Note_on_c, 0, 68, 100
1, 66849, Note_off_c, 0, 68, 100
1, 66849, Note_on_c, 0, 66, 100
1, 66945, Note_off_c, 0, 66, 100
1, 66945, Note_on_c, 0, 63, 100
1, 67137, Note_off_c, 0, 63, 100
1, 67137, Note_on_c, 0, 61, 100
1, 67185, Note_off_c, 0, 61, 100
1, 67185, Note_on_c, 0, 63, 100
1, 67377, Note_off_c, 0, 63, 100
1, 67809, Note_on_c, 0, 70, 100
1, 67857, Note_off_c, 0, 70, 100
1, 67857, Note_on_c, 0, 71, 100
1, 67905, Note_off_c, 0, 71, 100
1, 67905, Note_on_c, 0, 72, 100
1, 68241, Note_off_c, 0, 72, 100
1, 68241, Note_on_c, 0, 73, 100
1, 68337, Note_off_c, 0, 73, 100
1, 68337, Note_on_c, 0, 68, 100
1, 68401, Note_off_c, 0, 68, 100
1, 68401, Note_on_c, 0, 72, 100
1, 68465, Note_off_c, 0, 72, 100
1, 68465, Note_on_c, 0, 71, 100
1, 69297, Note_off_c, 0, 71, 100
1, 69297, Note_on_c, 0, 70, 100
1, 69393, Note_off_c, 0, 70, 100
1, 69393, Note_on_c, 0, 69, 100
1, 69489, Note_off_c, 0, 69, 100
1, 69489, Note_on_c, 0, 68, 100
1, 69777, Note_off_c, 0, 68, 100
1, 69777, Note_on_c, 0, 67, 100
1, 69873, Note_off_c, 0, 67, 100
1, 69873, Note_on_c, 0, 66, 100
1, 69969, Note_off_c, 0, 66, 100
1, 69969, Note_on_c, 0, 72, 100
1, 70065, Note_off_c, 0, 72, 100
1, 70065, Note_on_c, 0, 69, 100
1, 70161, Note_off_c, 0, 69, 100
1, 70161, Note_on_c, 0, 66, 100
1, 70257, Note_off_c, 0, 66, 100
1, 70257, Note_on_c, 0, 65, 100
1, 70321, Note_off_c, 0, 65, 100
1, 70321, Note_on_c, 0, 64, 100
1, 70385, Note_off_c, 0, 64, 100
1, 70385, Note_on_c, 0, 63, 100
1, 70497, Note_off_c, 0, 63, 100
1, 70497, Note_on_c, 0, 62, 100
1, 70593, Note_off_c, 0, 62, 100
1, 70593, Note_on_c, 0, 61, 100
1, 70641, Note_off_c, 0, 61, 100
1, 70641, Note_on_c, 0, 60, 100
1, 70769, Note_off_c, 0, 60, 100
1, 70769, Note_on_c, 0, 59, 100
1, 70881, Note_off_c, 0, 59, 100
1, 70881, Note_on_c, 0, 58, 100
1, 70977, Note_off_c, 0, 58, 100
1, 70977, Note_on_c, 0, 57, 100
1, 71089, Note_off_c, 0, 57, 100
1, 71089, Note_on_c, 0, 56, 100
1, 71153, Note_off_c, 0, 56, 100
1, 71153, Note_on_c, 0, 55, 100
1, 71281, Note_off_c, 0, 55, 100
1, 71281, Note_on_c, 0, 59, 100
1, 71345, Note_off_c, 0, 59, 100
1, 71345, Note_on_c, 0, 57, 100
1, 71505, Note_off_c, 0, 57, 100
1, 71505, Note_on_c, 0, 62, 100
1, 71601, Note_off_c, 0, 62, 100
1, 71601, Note_on_c, 0, 69, 100
1, 71697, Note_off_c, 0, 69, 100
1, 71697, Note_on_c, 0, 72, 100
1, 71841, Note_off_c, 0, 72, 100
1, 71841, Note_on_c, 0, 72, 100
1, 71937, Note_off_c, 0, 72, 100
1, 71937, Note_on_c, 0, 69, 100
1, 72033, Note_off_c, 0, 69, 100
1, 72033, Note_on_c, 0, 71, 100
1, 72129, Note_off_c, 0, 71, 100
1, 72129, Note_on_c, 0, 69, 100
1, 72241, Note_off_c, 0, 69, 100
1, 72241, Note_on_c, 0, 65, 100
1, 72305, Note_off_c, 0, 65, 100
1, 72305, Note_on_c, 0, 64, 100
1, 72417, Note_off_c, 0, 64, 100
1, 72417, Note_on_c, 0, 67, 100
1, 72513, Note_off_c, 0, 67, 100
1, 72513, Note_on_c, 0, 62, 100
1, 72561, Note_off_c, 0, 62, 100
1, 72561, Note_on_c, 0, 61, 100
1, 72753, Note_off_c, 0, 61, 100
1, 72753, Note_on_c, 0, 57, 100
1, 72849, Note_off_c, 0, 57, 100
1, 72849, Note_on_c, 0, 54, 100
1, 72897, Note_off_c, 0, 54, 100
1, 72897, Note_on_c, 0, 55, 100
1, 72993, Note_off_c, 0, 55, 100
1, 73329, Note_on_c, 0, 57, 100
1, 73425, Note_off_c, 0, 57, 100
1, 73713, Note_on_c, 0, 64, 100
1, 73761, Note_off_c, 0, 64, 100
1, 73761, Note_on_c, 0, 62, 100
1, 73857, Note_off_c, 0, 62, 100
1, 73857, Note_on_c, 0, 59, 100
1, 73953, Note_off_c, 0, 59, 100
1, 73953, Note_on_c, 0, 55, 100
1, 74049, Note_off_c, 0, 55, 100
1, 74049, Note_on_c, 0, 57, 100
1, 74097, Note_off_c, 0, 57, 100
1, 74097, Note_on_c, 0, 52, 100
1, 74193, Note_off_c, 0, 52, 100
1, 74193, Note_on_c, 0, 50, 100
1, 74289, Note_off_c, 0, 50, 100
1, 74289, Note_on_c, 0, 54, 100
1, 74545, Note_off_c, 0, 54, 100
1, 74545, Note_on_c, 0, 62, 100
1, 74609, Note_off_c, 0, 62, 100
1, 74609, Note_on_c, 0, 68, 100
1, 74673, Note_off_c, 0, 68, 100
1, 74673, Note_on_c, 0, 67, 100
1, 74801, Note_off_c, 0, 67, 100
1, 74801, Note_on_c, 0, 69, 100
1, 74865, Note_off_c, 0, 69, 100
1, 74865, Note_on_c, 0, 65, 100
1, 74961, Note_off_c, 0, 65, 100
1, 75201, Note_on_c, 0, 74, 100
1, 75297, Note_off_c, 0, 74, 100
1, 75297, Note_on_c, 0, 71, 100
1, 75345, Note_off_c, 0, 71, 100
1, 75345, Note_on_c, 0, 70, 100
1, 75393, Note_off_c, 0, 70, 100
1, 75393, Note_on_c, 0, 69, 100
1, 75441, Note_off_c, 0, 69, 100
1, 75441, Note_on_c, 0, 68, 100
1, 75479, Note_off_c, 0, 68, 100
1, 75479, Note_on_c, 0, 67, 100
1, 75594, Note_off_c, 0, 67, 100
1, 75594, Note_on_c, 0, 66, 100
1, 75632, Note_off_c, 0, 66, 100
1, 75632, Note_on_c, 0, 65, 100
1, 75728, Note_off_c, 0, 65, 100
1, 76272, Note_on_c, 0, 73, 100
1, 76336, Note_off_c, 0, 73, 100
1, 76336, Note_on_c, 0, 74, 100
1, 76784, Note_off_c, 0, 74, 100
1, 76784, Note_on_c, 0, 69, 100
1, 76880, Note_off_c, 0, 69, 100
1, 76880, Note_on_c, 0, 74, 100
1, 77040, Note_off_c, 0, 74, 100
1, 77040, Note_on_c, 0, 73, 100
1, 77104, Note_off_c, 0, 73, 100
1, 77104, Note_on_c, 0, 71, 100
1, 77168, Note_off_c, 0, 71, 100
1, 77168, Note_on_c, 0, 68, 100
1, 77360, Note_off_c, 0, 68, 100
1, 77840, Note_on_c, 0, 71, 100
1, 78176, Note_off_c, 0, 71, 100
1, 78176, Note_on_c, 0, 69, 100
1, 78272, Note_off_c, 0, 69, 100
1, 78272, Note_on_c, 0, 65, 100
1, 78416, Note_off_c, 0, 65, 100
1, 78416, Note_on_c, 0, 62, 100
1, 78512, Note_off_c, 0, 62, 100
1, 79280, Note_on_c, 0, 71, 100
1, 79664, Note_off_c, 0, 71, 100
1, 79664, Note_on_c, 0, 69, 100
1, 79760, Note_off_c, 0, 69, 100
1, 79760, Note_on_c, 0, 65, 100
1, 79856, Note_off_c, 0, 65, 100
1, 79856, Note_on_c, 0, 62, 100
1, 79952, Note_off_c, 0, 62, 100
1, 80192, Note_on_c, 0, 74, 100
1, 80304, Note_off_c, 0, 74, 100
1, 80304, Note_on_c, 0, 64, 100
1, 80368, Note_off_c, 0, 64, 100
1, 80368, Note_on_c, 0, 69, 100
1, 80480, Note_off_c, 0, 69, 100
1, 80480, Note_on_c, 0, 74, 100
1, 80528, Note_off_c, 0, 74, 100
1, 80528, Note_on_c, 0, 73, 100
1, 80576, Note_off_c, 0, 73, 100
1, 80576, Note_on_c, 0, 72, 100
1, 80624, Note_off_c, 0, 72, 100
1, 80624, Note_on_c, 0, 69, 100
1, 80720, Note_off_c, 0, 69, 100
1, 80720, Note_on_c, 0, 66, 100
1, 80816, Note_off_c, 0, 66, 100
1, 80816, Note_on_c, 0, 62, 100
1, 80960, Note_off_c, 0, 62, 100
1, 80960, Note_on_c, 0, 65, 100
1, 81296, Note_off_c, 0, 65, 100
1, 81296, Note_on_c, 0, 68, 100
1, 81344, Note_off_c, 0, 68, 100
1, 81344, Note_on_c, 0, 65, 100
1, 81392, Note_off_c, 0, 65, 100
1, 81392, Note_on_c, 0, 64, 100
1, 81680, Note_off_c, 0, 64, 100
1, 81680, Note_on_c, 0, 67, 100
1, 81728, Note_off_c, 0, 67, 100
1, 81728, Note_on_c, 0, 65, 100
1, 81776, Note_off_c, 0, 65, 100
1, 81776, Note_on_c, 0, 64, 100
1, 81872, Note_off_c, 0, 64, 100
1, 82064, Note_on_c, 0, 67, 100
1, 82160, Note_off_c, 0, 67, 100
1, 82160, Note_on_c, 0, 61, 100
1, 82224, Note_off_c, 0, 61, 100
1, 82224, Note_on_c, 0, 62, 100
1, 82288, Note_off_c, 0, 62, 100
1, 82288, Note_on_c, 0, 64, 100
1, 82400, Note_off_c, 0, 64, 100
1, 82400, Note_on_c, 0, 65, 100
1, 82496, Note_off_c, 0, 65, 100
1, 82496, Note_on_c, 0, 62, 100
1, 82592, Note_off_c, 0, 62, 100
1, 82592, Note_on_c, 0, 60, 100
1, 82688, Note_off_c, 0, 60, 100
1, 82688, Note_on_c, 0, 59, 100
1, 82800, Note_off_c, 0, 59, 100
1, 82800, Note_on_c, 0, 62, 100
1, 82864, Note_off_c, 0, 62, 100
1, 82864, Note_on_c, 0, 57, 100
1, 82960, Note_off_c, 0, 57, 100
1, 83216, Note_on_c, 0, 68, 100
1, 83312, Note_off_c, 0, 68, 100
1, 83648, Note_on_c, 0, 64, 100
1, 83696, Note_off_c, 0, 64, 100
1, 83696, Note_on_c, 0, 65, 100
1, 83792, Note_off_c, 0, 65, 100
1, 83984, Note_on_c, 0, 65, 100
1, 84080, Note_off_c, 0, 65, 100
1, 84080, Note_on_c, 0, 69, 100
1, 84176, Note_off_c, 0, 69, 100
1, 84416, Note_on_c, 0, 69, 100
1, 84464, Note_off_c, 0, 69, 100
1, 84464, Note_on_c, 0, 72, 100
1, 84560, Note_off_c, 0, 72, 100
1, 84752, Note_on_c, 0, 72, 100
1, 84848, Note_off_c, 0, 72, 100
1, 84848, Note_on_c, 0, 71, 100
1, 84944, Note_off_c, 0, 71, 100
1, 85136, Note_on_c, 0, 71, 100
1, 85232, Note_off_c, 0, 71, 100
1, 85232, Note_on_c, 0, 67, 100
1, 85296, Note_off_c, 0, 67, 100
1, 85296, Note_on_c, 0, 69, 100
1, 85360, Note_off_c, 0, 69, 100
1, 85360, Note_on_c, 0, 71, 100
1, 85472, Note_off_c, 0, 71, 100
1, 85472, Note_on_c, 0, 67, 100
1, 85568, Note_off_c, 0, 67, 100
1, 85568, Note_on_c, 0, 65, 100
1, 85680, Note_off_c, 0, 65, 100
1, 85680, Note_on_c, 0, 67, 100
1, 85744, Note_off_c, 0, 67, 100
1, 85744, Note_on_c, 0, 69, 100
1, 85872, Note_off_c, 0, 69, 100
1, 85872, Note_on_c, 0, 71, 100
1, 85936, Note_off_c, 0, 71, 100
1, 85936, Note_on_c, 0, 65, 100
1, 86032, Note_off_c, 0, 65, 100
1, 86240, Note_on_c, 0, 67, 100
1, 86336, Note_off_c, 0, 67, 100
1, 86336, Note_on_c, 0, 64, 100
1, 86576, Note_off_c, 0, 64, 100
1, 86576, Note_on_c, 0, 67, 100
1, 86768, Note_off_c, 0, 67, 100
1, 86768, Note_on_c, 0, 61, 100
1, 86864, Note_off_c, 0, 61, 100
1, 86864, Note_on_c, 0, 62, 100
1, 86960, Note_off_c, 0, 62, 100
1, 86960, Note_on_c, 0, 64, 100
1, 87008, Note_off_c, 0, 64, 100
1, 87008, Note_on_c, 0, 65, 100
1, 87104, Note_off_c, 0, 65, 100
1, 87104, Note_on_c, 0, 62, 100
1, 87200, Note_off_c, 0, 62, 100
1, 87200, Note_on_c, 0, 60, 100
1, 87296, Note_off_c, 0, 60, 100
1, 87296, Note_on_c, 0, 59, 100
1, 87408, Note_off_c, 0, 59, 100
1, 87408, Note_on_c, 0, 62, 100
1, 87472, Note_off_c, 0, 62, 100
1, 87472, Note_on_c, 0, 57, 100
1, 87568, Note_off_c, 0, 57, 100
1, 87792, Note_on_c, 0, 68, 100
1, 87856, Note_off_c, 0, 68, 100
1, 87856, Note_on_c, 0, 62, 100
1, 87952, Note_off_c, 0, 62, 100
1, 88208, Note_on_c, 0, 69, 100
1, 88256, Note_off_c, 0, 69, 100
1, 88256, Note_on_c, 0, 66, 100
1, 88304, Note_off_c, 0, 66, 100
1, 88304, Note_on_c, 0, 65, 100
1, 88400, Note_off_c, 0, 65, 100
1, 88400, Note_on_c, 0, 62, 100
1, 88592, Note_off_c, 0, 62, 100
1, 88592, Note_on_c, 0, 69, 100
1, 88752, Note_off_c, 0, 69, 100
1, 88752, Note_on_c, 0, 65, 100
1, 88816, Note_off_c, 0, 65, 100
1, 88816, Note_on_c, 0, 62, 100
1, 89024, Note_off_c, 0, 62, 100
1, 89024, Note_on_c, 0, 63, 100
1, 89120, Note_off_c, 0, 63, 100
1, 89328, Note_on_c, 0, 68, 100
1, 89392, Note_off_c, 0, 68, 100
1, 89392, Note_on_c, 0, 66, 100
1, 89488, Note_off_c, 0, 66, 100
1, 89744, Note_on_c, 0, 70, 100
1, 89840, Note_off_c, 0, 70, 100
1, 89840, Note_on_c, 0, 72, 100
1, 90080, Note_off_c, 0, 72, 100
1, 90080, Note_on_c, 0, 68, 100
1, 90176, Note_off_c, 0, 68, 100
1, 90176, Note_on_c, 0, 72, 100
1, 90272, Note_off_c, 0, 72, 100
1, 90272, Note_on_c, 0, 71, 100
1, 90320, Note_off_c, 0, 71, 100
1, 90320, Note_on_c, 0, 70, 100
1, 90416, Note_off_c, 0, 70, 100
1, 90416, Note_on_c, 0, 66, 100
1, 90512, Note_off_c, 0, 66, 100
1, 90512, Note_on_c, 0, 70, 100
1, 90560, Note_off_c, 0, 70, 100
1, 90560, Note_on_c, 0, 68, 100
1, 90656, Note_off_c, 0, 68, 100
1, 90944, Note_on_c, 0, 63, 100
1, 91040, Note_off_c, 0, 63, 100
1, 91280, Note_on_c, 0, 68, 100
1, 91376, Note_off_c, 0, 68, 100
1, 91376, Note_on_c, 0, 66, 100
1, 91472, Note_off_c, 0, 66, 100
1, 91712, Note_on_c, 0, 68, 100
1, 91808, Note_off_c, 0, 68, 100
1, 91808, Note_on_c, 0, 66, 100
1, 91904, Note_off_c, 0, 66, 100
1, 91904, Note_on_c, 0, 63, 100
1, 92048, Note_off_c, 0, 63, 100
1, 92048, Note_on_c, 0, 60, 100
1, 92096, Note_off_c, 0, 60, 100
1, 92096, Note_on_c, 0, 65, 100
1, 92192, Note_off_c, 0, 65, 100
1, 92400, Note_on_c, 0, 68, 100
1, 92528, Note_off_c, 0, 68, 100
1, 92528, Note_on_c, 0, 67, 100
1, 92624, Note_off_c, 0, 67, 100
1, 92816, Note_on_c, 0, 68, 100
1, 92912, Note_off_c, 0, 68, 100
1, 92912, Note_on_c, 0, 63, 100
1, 93008, Note_off_c, 0, 63, 100
1, 93008, Note_on_c, 0, 70, 100
1, 93104, Note_off_c, 0, 70, 100
1, 93104, Note_on_c, 0, 66, 100
1, 93200, Note_off_c, 0, 66, 100
1, 93200, Note_on_c, 0, 63, 100
1, 93296, Note_off_c, 0, 63, 100
1, 93296, Note_on_c, 0, 61, 100
1, 93392, Note_off_c, 0, 61, 100
1, 93392, Note_on_c, 0, 60, 100
1, 93488, Note_off_c, 0, 60, 100
1, 93488, Note_on_c, 0, 58, 100
1, 93584, Note_off_c, 0, 58, 100
1, 93584, Note_on_c, 0, 63, 100
1, 93680, Note_off_c, 0, 63, 100
1, 94064, Note_on_c, 0, 60, 100
1, 94352, Note_off_c, 0, 60, 100
1, 94352, Note_on_c, 0, 56, 100
1, 94448, Note_off_c, 0, 56, 100
1, 94448, Note_on_c, 0, 50, 100
1, 94512, Note_off_c, 0, 50, 100
1, 94512, Note_on_c, 0, 63, 100
1, 94576, Note_off_c, 0, 63, 100
1, 94576, Note_on_c, 0, 67, 100
1, 94704, Note_off_c, 0, 67, 100
1, 94704, Note_on_c, 0, 67, 100
1, 94832, Note_off_c, 0, 67, 100
1, 94832, Note_on_c, 0, 69, 100
1, 94928, Note_off_c, 0, 69, 100
1, 94928, Note_on_c, 0, 67, 100
1, 95024, Note_off_c, 0, 67, 100
1, 95024, Note_on_c, 0, 66, 100
1, 95120, Note_off_c, 0, 66, 100
1, 95120, Note_on_c, 0, 65, 100
1, 95216, Note_off_c, 0, 65, 100
1, 95216, Note_on_c, 0, 62, 100
1, 95472, Note_off_c, 0, 62, 100
1, 95472, Note_on_c, 0, 65, 100
1, 95536, Note_off_c, 0, 65, 100
1, 95536, Note_on_c, 0, 69, 100
1, 95632, Note_off_c, 0, 69, 100
1, 95856, Note_on_c, 0, 71, 100
1, 95920, Note_off_c, 0, 71, 100
1, 95920, Note_on_c, 0, 74, 100
1, 96016, Note_off_c, 0, 74, 100
1, 96272, Note_on_c, 0, 66, 100
1, 96320, Note_off_c, 0, 66, 100
1, 96320, Note_on_c, 0, 69, 100
1, 96416, Note_off_c, 0, 69, 100
1, 96416, Note_on_c, 0, 74, 100
1, 96464, Note_off_c, 0, 74, 100
1, 96464, Note_on_c, 0, 73, 100
1, 96512, Note_off_c, 0, 73, 100
1, 96512, Note_on_c, 0, 69, 100
1, 96656, Note_off_c, 0, 69, 100
1, 96656, Note_on_c, 0, 65, 100
1, 96752, Note_off_c, 0, 65, 100
1, 96752, Note_on_c, 0, 62, 100
1, 96848, Note_off_c, 0, 62, 100
1, 97088, Note_on_c, 0, 67, 100
1, 97184, Note_off_c, 0, 67, 100
1, 97392, Note_on_c, 0, 69, 100
1, 97456, Note_off_c, 0, 69, 100
1, 97456, Note_on_c, 0, 65, 100
1, 97552, Note_off_c, 0, 65, 100
1, 97788, Note_on_c, 0, 69, 100
1, 97826, Note_off_c, 0, 69, 100
1, 97826, Note_on_c, 0, 65, 100
1, 97864, Note_off_c, 0, 65, 100
1, 97864, Note_on_c, 0, 61, 100
1, 97960, Note_off_c, 0, 61, 100
1, 98171, Note_on_c, 0, 69, 100
1, 98209, Note_off_c, 0, 69, 100
1, 98209, Note_on_c, 0, 68, 100
1, 98247, Note_off_c, 0, 68, 100
1, 98247, Note_on_c, 0, 64, 100
1, 98342, Note_off_c, 0, 64, 100
1, 98668, Note_on_c, 0, 65, 100
1, 98923, Note_off_c, 0, 65, 100
1, 98923, Note_on_c, 0, 69, 100
1, 98987, Note_off_c, 0, 69, 100
1, 98987, Note_on_c, 0, 67, 100
1, 99050, Note_off_c, 0, 67, 100
1, 99050, Note_on_c, 0, 62, 100
1, 99290, Note_off_c, 0, 62, 100
1, 99290, Note_on_c, 0, 71, 100
1, 99386, Note_off_c, 0, 71, 100
1, 99386, Note_on_c, 0, 67, 100
1, 99434, Note_off_c, 0, 67, 100
1, 99434, Note_on_c, 0, 64, 100
1, 99530, Note_off_c, 0, 64, 100
1, 99530, Note_on_c, 0, 69, 100
1, 99689, Note_off_c, 0, 69, 100
1, 99689, Note_on_c, 0, 72, 100
1, 99753, Note_off_c, 0, 72, 100
1, 99753, Note_on_c, 0, 71, 100
1, 99816, Note_off_c, 0, 71, 100
1, 99816, Note_on_c, 0, 69, 100
1, 99912, Note_off_c, 0, 69, 100
1, 99912, Note_on_c, 0, 65, 100
1, 100008, Note_off_c, 0, 65, 100
1, 100008, Note_on_c, 0, 62, 100
1, 100071, Note_off_c, 0, 62, 100
1, 100071, Note_on_c, 0, 59, 100
1, 100167, Note_off_c, 0, 59, 100
1, 100871, Note_on_c, 0, 69, 100
1, 101303, Note_off_c, 0, 69, 100
1, 101303, Note_on_c, 0, 69, 100
1, 101415, Note_off_c, 0, 69, 100
1, 101415, Note_on_c, 0, 71, 100
1, 101927, Note_off_c, 0, 71, 100
1, 101927, Note_on_c, 0, 69, 100
1, 102023, Note_off_c, 0, 69, 100
1, 102023, Note_on_c, 0, 71, 100
1, 102455, Note_off_c, 0, 71, 100
1, 102455, Note_on_c, 0, 69, 100
1, 102503, Note_off_c, 0, 69, 100
1, 102503, Note_on_c, 0, 71, 100
1, 103223, Note_off_c, 0, 71, 100
1, 103223, Note_on_c, 0, 67, 100
1, 103335, Note_off_c, 0, 67, 100
1, 103335, Note_on_c, 0, 65, 100
1, 103431, Note_off_c, 0, 65, 100
1, 103911, Note_on_c, 0, 71, 100
1, 104135, Note_off_c, 0, 71, 100
1, 104135, Note_on_c, 0, 69, 100
1, 104231, Note_off_c, 0, 69, 100
1, 104231, Note_on_c, 0, 71, 100
1, 104295, Note_off_c, 0, 71, 100
1, 104295, Note_on_c, 0, 62, 100
1, 104359, Note_off_c, 0, 62, 100
1, 104359, Note_on_c, 0, 67, 100
1, 104423, Note_off_c, 0, 67, 100
1, 104423, Note_on_c, 0, 69, 100
1, 104519, Note_off_c, 0, 69, 100
1, 104519, Note_on_c, 0, 71, 100
1, 104679, Note_off_c, 0, 71, 100
1, 104679, Note_on_c, 0, 62, 100
1, 104743, Note_off_c, 0, 62, 100
1, 104743, Note_on_c, 0, 67, 100
1, 104807, Note_off_c, 0, 67, 100
1, 104807, Note_on_c, 0, 69, 100
1, 104999, Note_off_c, 0, 69, 100
1, 104999, Note_on_c, 0, 71, 100
1, 105095, Note_off_c, 0, 71, 100
1, 105095, Note_on_c, 0, 69, 100
1, 105431, Note_off_c, 0, 69, 100
1, 105431, Note_on_c, 0, 71, 100
1, 105527, Note_off_c, 0, 71, 100
1, 105527, Note_on_c, 0, 69, 100
1, 105639, Note_off_c, 0, 69, 100
1, 105639, Note_on_c, 0, 65, 100
1, 105767, Note_off_c, 0, 65, 100
1, 105767, Note_on_c, 0, 64, 100
1, 105815, Note_off_c, 0, 64, 100
1, 105815, Note_on_c, 0, 67, 100
1, 105911, Note_off_c, 0, 67, 100
1, 105911, Note_on_c, 0, 65, 100
1, 106023, Note_off_c, 0, 65, 100
1, 106023, Note_on_c, 0, 62, 100
1, 106151, Note_off_c, 0, 62, 100
1, 106151, Note_on_c, 0, 61, 100
1, 106199, Note_off_c, 0, 61, 100
1, 106199, Note_on_c, 0, 64, 100
1, 106295, Note_off_c, 0, 64, 100
1, 106295, Note_on_c, 0, 62, 100
1, 106487, Note_off_c, 0, 62, 100
1, 106983, Note_on_c, 0, 69, 100
1, 107303, Note_off_c, 0, 69, 100
1, 107303, Note_on_c, 0, 67, 100
1, 107351, Note_off_c, 0, 67, 100
1, 107351, Note_on_c, 0, 65, 100
1, 107447, Note_off_c, 0, 65, 100
1, 107447, Note_on_c, 0, 62, 100
1, 107639, Note_off_c, 0, 62, 100
1, 107639, Note_on_c, 0, 68, 100
1, 107783, Note_off_c, 0, 68, 100
1, 107783, Note_on_c, 0, 71, 100
1, 107831, Note_off_c, 0, 71, 100
1, 107831, Note_on_c, 0, 62, 100
1, 107927, Note_off_c, 0, 62, 100
1, 107927, Note_on_c, 0, 65, 100
1, 107975, Note_off_c, 0, 65, 100
1, 107975, Note_on_c, 0, 68, 100
1, 108023, Note_off_c, 0, 68, 100
1, 108023, Note_on_c, 0, 70, 100
1, 108071, Note_off_c, 0, 70, 100
1, 108071, Note_on_c, 0, 68, 100
1, 108263, Note_off_c, 0, 68, 100
1, 108263, Note_on_c, 0, 70, 100
1, 108359, Note_off_c, 0, 70, 100
1, 108359, Note_on_c, 0, 68, 100
1, 108455, Note_off_c, 0, 68, 100
1, 108455, Note_on_c, 0, 67, 100
1, 108551, Note_off_c, 0, 67, 100
1, 108551, Note_on_c, 0, 72, 100
1, 108599, Note_off_c, 0, 72, 100
1, 108599, Note_on_c, 0, 62, 100
1, 108695, Note_off_c, 0, 62, 100
1, 109031, Note_on_c, 0, 62, 100
1, 109223, Note_off_c, 0, 62, 100
1, 109223, Note_on_c, 0, 69, 100
1, 109319, Note_off_c, 0, 69, 100
1, 109319, Note_on_c, 0, 71, 100
1, 109367, Note_off_c, 0, 71, 100
1, 109367, Note_on_c, 0, 65, 100
1, 109559, Note_off_c, 0, 65, 100
1, 109751, Note_on_c, 0, 64, 100
1, 109895, Note_off_c, 0, 64, 100
1, 109895, Note_on_c, 0, 67, 100
1, 109991, Note_off_c, 0, 67, 100
1, 109991, Note_on_c, 0, 71, 100
1, 110087, Note_off_c, 0, 71, 100
1, 110087, Note_on_c, 0, 61, 100
1, 110375, Note_off_c, 0, 61, 100
1, 110375, Note_on_c, 0, 61, 100
1, 110471, Note_off_c, 0, 61, 100
1, 110471, Note_on_c, 0, 63, 100
1, 110519, Note_off_c, 0, 63, 100
1, 110519, Note_on_c, 0, 65, 100
1, 110567, Note_off_c, 0, 65, 100
1, 110567, Note_on_c, 0, 67, 100
1, 110663, Note_off_c, 0, 67, 100
1, 110663, Note_on_c, 0, 60, 100
1, 110951, Note_off_c, 0, 60, 100
1, 110951, Note_on_c, 0, 67, 100
1, 111015, Note_off_c, 0, 67, 100
1, 111015, Note_on_c, 0, 62, 100
1, 111079, Note_off_c, 0, 62, 100
1, 111079, Note_on_c, 0, 68, 100
1, 111143, Note_off_c, 0, 68, 100
1, 111143, Note_on_c, 0, 64, 100
1, 111239, Note_off_c, 0, 64, 100
1, 111479, Note_on_c, 0, 64, 100
1, 111591, Note_off_c, 0, 64, 100
1, 111591, Note_on_c, 0, 68, 100
1, 111655, Note_off_c, 0, 68, 100
1, 111655, Note_on_c, 0, 70, 100
1, 111783, Note_off_c, 0, 70, 100
1, 111783, Note_on_c, 0, 66, 100
1, 111847, Note_off_c, 0, 66, 100
1, 111847, Note_on_c, 0, 61, 100
1, 111911, Note_off_c, 0, 61, 100
1, 111911, Note_on_c, 0, 59, 100
1, 112007, Note_off_c, 0, 59, 100
1, 112007, Note_on_c, 0, 62, 100
1, 112103, Note_off_c, 0, 62, 100
1, 112439, Note_on_c, 0, 62, 100
1, 112551, Note_off_c, 0, 62, 100
1, 112551, Note_on_c, 0, 65, 100
1, 112615, Note_off_c, 0, 65, 100
1, 112615, Note_on_c, 0, 69, 100
1, 112727, Note_off_c, 0, 69, 100
1, 112727, Note_on_c, 0, 71, 100
1, 112823, Note_off_c, 0, 71, 100
1, 112823, Note_on_c, 0, 63, 100
1, 112935, Note_off_c, 0, 63, 100
1, 112935, Note_on_c, 0, 61, 100
1, 112999, Note_off_c, 0, 61, 100
1, 112999, Note_on_c, 0, 58, 100
1, 113159, Note_off_c, 0, 58, 100
1, 113159, Note_on_c, 0, 56, 100
1, 113255, Note_off_c, 0, 56, 100
1, 113255, Note_on_c, 0, 54, 100
1, 113399, Note_off_c, 0, 54, 100
1, 113399, Note_on_c, 0, 63, 100
1, 113511, Note_off_c, 0, 63, 100
1, 113511, Note_on_c, 0, 66, 100
1, 113575, Note_off_c, 0, 66, 100
1, 113575, Note_on_c, 0, 70, 100
1, 113703, Note_off_c, 0, 70, 100
1, 113703, Note_on_c, 0, 62, 100
1, 113799, Note_off_c, 0, 62, 100
1, 114023, Note_on_c, 0, 65, 100
1, 114087, Note_off_c, 0, 65, 100
1, 114087, Note_on_c, 0, 66, 100
1, 114151, Note_off_c, 0, 66, 100
1, 114151, Note_on_c, 0, 70, 100
1, 114215, Note_off_c, 0, 70, 100
1, 114215, Note_on_c, 0, 72, 100
1, 114551, Note_off_c, 0, 72, 100
1, 114551, Note_on_c, 0, 61, 100
1, 114663, Note_off_c, 0, 61, 100
1, 114663, Note_on_c, 0, 64, 100
1, 114727, Note_off_c, 0, 64, 100
1, 114727, Note_on_c, 0, 68, 100
1, 114823, Note_off_c, 0, 68, 100
1, 115127, Note_on_c, 0, 58, 100
1, 115271, Note_off_c, 0, 58, 100
1, 115271, Note_on_c, 0, 60, 100
1, 115319, Note_off_c, 0, 60, 100
1, 115319, Note_on_c, 0, 62, 100
1, 115415, Note_off_c, 0, 62, 100
1, 115703, Note_on_c, 0, 60, 100
1, 115815, Note_off_c, 0, 60, 100
1, 115815, Note_on_c, 0, 65, 100
1, 115879, Note_off_c, 0, 65, 100
1, 115879, Note_on_c, 0, 69, 100
1, 115975, Note_off_c, 0, 69, 100
1, 116279, Note_on_c, 0, 63, 100
1, 116327, Note_off_c, 0, 63, 100
1, 116327, Note_on_c, 0, 66, 100
1, 116519, Note_off_c, 0, 66, 100
1, 116519, Note_on_c, 0, 70, 100
1, 116711, Note_off_c, 0, 70, 100
1, 116711, Note_on_c, 0, 62, 100
1, 116807, Note_off_c, 0, 62, 100
1, 116807, Note_on_c, 0, 66, 100
1, 116855, Note_off_c, 0, 66, 100
1, 116855, Note_on_c, 0, 68, 100
1, 116951, Note_off_c, 0, 68, 100
1, 117239, Note_on_c, 0, 61, 100
1, 117351, Note_off_c, 0, 61, 100
1, 117351, Note_on_c, 0, 64, 100
1, 117415, Note_off_c, 0, 64, 100
1, 117415, Note_on_c, 0, 68, 100
1, 117511, Note_off_c, 0, 68, 100
1, 117815, Note_on_c, 0, 58, 100
1, 117863, Note_off_c, 0, 58, 100
1, 117863, Note_on_c, 0, 60, 100
1, 117959, Note_off_c, 0, 60, 100
1, 117959, Note_on_c, 0, 64, 100
1, 118055, Note_off_c, 0, 64, 100
1, 118391, Note_on_c, 0, 60, 100
1, 118503, Note_off_c, 0, 60, 100
1, 118503, Note_on_c, 0, 65, 100
1, 118567, Note_off_c, 0, 65, 100
1, 118567, Note_on_c, 0, 69, 100
1, 118663, Note_off_c, 0, 69, 100
1, 118967, Note_on_c, 0, 60, 100
1, 119063, Note_off_c, 0, 60, 100
1, 119063, Note_on_c, 0, 65, 100
1, 119159, Note_off_c, 0, 65, 100
1, 119159, Note_on_c, 0, 69, 100
1, 119255, Note_off_c, 0, 69, 100
1, 119255, Note_on_c, 0, 71, 100
1, 119351, Note_off_c, 0, 71, 100
1, 119351, Note_on_c, 0, 68, 100
1, 119463, Note_off_c, 0, 68, 100
1, 119463, Note_on_c, 0, 66, 100
1, 119527, Note_off_c, 0, 66, 100
1, 119527, Note_on_c, 0, 63, 100
1, 119735, Note_off_c, 0, 63, 100
1, 119735, Note_on_c, 0, 64, 100
1, 119879, Note_off_c, 0, 64, 100
1, 119879, Note_on_c, 0, 67, 100
1, 119927, Note_off_c, 0, 67, 100
1, 119927, Note_on_c, 0, 71, 100
1, 120023, Note_off_c, 0, 71, 100
1, 120311, Note_on_c, 0, 63, 100
1, 120423, Note_off_c, 0, 63, 100
1, 120423, Note_on_c, 0, 65, 100
1, 120487, Note_off_c, 0, 65, 100
1, 120487, Note_on_c, 0, 69, 100
1, 120583, Note_off_c, 0, 69, 100
1, 120839, Note_on_c, 0, 62, 100
1, 120999, Note_off_c, 0, 62, 100
1, 120999, Note_on_c, 0, 65, 100
1, 121063, Note_off_c, 0, 65, 100
1, 121063, Note_on_c, 0, 70, 100
1, 121159, Note_off_c, 0, 70, 100
1, 121511, Note_on_c, 0, 63, 100
1, 121607, Note_off_c, 0, 63, 100
1, 121607, Note_on_c, 0, 68, 100
1, 121655, Note_off_c, 0, 68, 100
1, 121655, Note_on_c, 0, 71, 100
1, 121751, Note_off_c, 0, 71, 100
1, 122087, Note_on_c, 0, 61, 100
1, 122183, Note_off_c, 0, 61, 100
1, 122183, Note_on_c, 0, 66, 100
1, 122231, Note_off_c, 0, 66, 100
1, 122231, Note_on_c, 0, 70, 100
1, 122327, Note_off_c, 0, 70, 100
1, 122663, Note_on_c, 0, 64, 100
1, 122727, Note_off_c, 0, 64, 100
1, 122727, Note_on_c, 0, 67, 100
1, 122791, Note_off_c, 0, 67, 100
1, 122791, Note_on_c, 0, 71, 100
1, 122887, Note_off_c, 0, 71, 100
1, 123191, Note_on_c, 0, 63, 100
1, 123287, Note_off_c, 0, 63, 100
1, 123287, Note_on_c, 0, 65, 100
1, 123335, Note_off_c, 0, 65, 100
1, 123335, Note_on_c, 0, 67, 100
1, 123383, Note_off_c, 0, 67, 100
1, 123383, Note_on_c, 0, 70, 100
1, 123479, Note_off_c, 0, 70, 100
1, 123767, Note_on_c, 0, 61, 100
1, 123911, Note_off_c, 0, 61, 100
1, 123911, Note_on_c, 0, 66, 100
1, 123959, Note_off_c, 0, 66, 100
1, 123959, Note_on_c, 0, 70, 100
1, 124055, Note_off_c, 0, 70, 100
1, 124295, Note_on_c, 0, 62, 100
1, 124455, Note_off_c, 0, 62, 100
1, 124455, Note_on_c, 0, 66, 100
1, 124519, Note_off_c, 0, 66, 100
1, 124519, Note_on_c, 0, 68, 100
1, 124615, Note_off_c, 0, 68, 100
1, 124919, Note_on_c, 0, 64, 100
1, 125031, Note_off_c, 0, 64, 100
1, 125031, Note_on_c, 0, 68, 100
1, 125095, Note_off_c, 0, 68, 100
1, 125095, Note_on_c, 0, 71, 100
1, 125223, Note_off_c, 0, 71, 100
1, 125223, Note_on_c, 0, 69, 100
1, 125287, Note_off_c, 0, 69, 100
1, 125287, Note_on_c, 0, 65, 100
1, 125415, Note_off_c, 0, 65, 100
1, 125415, Note_on_c, 0, 62, 100
1, 125543, Note_off_c, 0, 62, 100
1, 125543, Note_on_c, 0, 65, 100
1, 125639, Note_off_c, 0, 65, 100
1, 125927, Note_on_c, 0, 64, 100
1, 126023, Note_off_c, 0, 64, 100
1, 126023, Note_on_c, 0, 67, 100
1, 126071, Note_off_c, 0, 67, 100
1, 126071, Note_on_c, 0, 71, 100
1, 126119, Note_off_c, 0, 71, 100
1, 126119, Note_on_c, 0, 70, 100
1, 126157, Note_off_c, 0, 70, 100
1, 126157, Note_on_c, 0, 68, 100
1, 126195, Note_off_c, 0, 68, 100
1, 126195, Note_on_c, 0, 66, 100
1, 126233, Note_off_c, 0, 66, 100
1, 126233, Note_on_c, 0, 64, 100
1, 126271, Note_off_c, 0, 64, 100
1, 126271, Note_on_c, 0, 61, 100
1, 126501, Note_off_c, 0, 61, 100
1, 126501, Note_on_c, 0, 61, 100
1, 126565, Note_off_c, 0, 61, 100
1, 126565, Note_on_c, 0, 63, 100
1, 126629, Note_off_c, 0, 63, 100
1, 126629, Note_on_c, 0, 67, 100
1, 126725, Note_off_c, 0, 67, 100
1, 127029, Note_on_c, 0, 60, 100
1, 127125, Note_off_c, 0, 60, 100
1, 127125, Note_on_c, 0, 64, 100
1, 127221, Note_off_c, 0, 64, 100
1, 127221, Note_on_c, 0, 68, 100
1, 127333, Note_off_c, 0, 68, 100
1, 127333, Note_on_c, 0, 71, 100
1, 127397, Note_off_c, 0, 71, 100
1, 127397, Note_on_c, 0, 64, 100
1, 127525, Note_off_c, 0, 64, 100
1, 127525, Note_on_c, 0, 66, 100
1, 127589, Note_off_c, 0, 66, 100
1, 127589, Note_on_c, 0, 68, 100
1, 127653, Note_off_c, 0, 68, 100
1, 127653, Note_on_c, 0, 71, 100
1, 127749, Note_off_c, 0, 71, 100
1, 127749, Note_on_c, 0, 64, 100
1, 127845, Note_off_c, 0, 64, 100
1, 128229, Note_on_c, 0, 64, 100
1, 128293, Note_off_c, 0, 64, 100
1, 128293, Note_on_c, 0, 68, 100
1, 128357, Note_off_c, 0, 68, 100
1, 128357, Note_on_c, 0, 70, 100
1, 128517, Note_off_c, 0, 70, 100
1, 128517, Note_on_c, 0, 73, 100
1, 128613, Note_off_c, 0, 73, 100
1, 128613, Note_on_c, 0, 71, 100
1, 128709, Note_off_c, 0, 71, 100
1, 128949, Note_on_c, 0, 61, 100
1, 129189, Note_off_c, 0, 61, 100
1, 129189, Note_on_c, 0, 66, 100
1, 129265, Note_off_c, 0, 66, 100
1, 129265, Note_on_c, 0, 67, 100
1, 129303, Note_off_c, 0, 67, 100
1, 129303, Note_on_c, 0, 66, 100
1, 129341, Note_off_c, 0, 66, 100
1, 129341, Note_on_c, 0, 65, 100
1, 129379, Note_off_c, 0, 65, 100
1, 129379, Note_on_c, 0, 63, 100
1, 129475, Note_off_c, 0, 63, 100
1, 129475, Note_on_c, 0, 61, 100
1, 129571, Note_off_c, 0, 61, 100
1, 129571, Note_on_c, 0, 59, 100
1, 129619, Note_off_c, 0, 59, 100
1, 129619, Note_on_c, 0, 58, 100
1, 129715, Note_off_c, 0, 58, 100
1, 129715, Note_on_c, 0, 57, 100
1, 129811, Note_off_c, 0, 57, 100
1, 129811, Note_on_c, 0, 56, 100
1, 129907, Note_off_c, 0, 56, 100
1, 129907, Note_on_c, 0, 55, 100
1, 130003, Note_off_c, 0, 55, 100
1, 130003, Note_on_c, 0, 59, 100
1, 130099, Note_off_c, 0, 59, 100
1, 130099, Note_on_c, 0, 57, 100
1, 130195, Note_off_c, 0, 57, 100
1, 130195, Note_on_c, 0, 53, 100
1, 130291, Note_off_c, 0, 53, 100
1, 130291, Note_on_c, 0, 50, 100
1, 130387, Note_off_c, 0, 50, 100
1, 130387, Note_on_c, 0, 55, 100
1, 130483, Note_off_c, 0, 55, 100
1, 130483, Note_on_c, 0, 53, 100
1, 130531, Note_off_c, 0, 53, 100
1, 130531, Note_on_c, 0, 50, 100
1, 130627, Note_off_c, 0, 50, 100
1, 130627, Note_on_c, 0, 53, 100
1, 130723, Note_off_c, 0, 53, 100
1, 130723, Note_on_c, 0, 57, 100
1, 130771, Note_off_c, 0, 57, 100
1, 130771, Note_on_c, 0, 60, 100
1, 130867, Note_off_c, 0, 60, 100
1, 130867, Note_on_c, 0, 55, 100
1, 130963, Note_off_c, 0, 55, 100
1, 131539, Note_on_c, 0, 65, 100
1, 131587, Note_off_c, 0, 65, 100
1, 131587, Note_on_c, 0, 66, 100
1, 131683, Note_off_c, 0, 66, 100
1, 131683, Note_on_c, 0, 67, 100
1, 132019, Note_off_c, 0, 67, 100
1, 132019, Note_on_c, 0, 67, 100
1, 132163, Note_off_c, 0, 67, 100
1, 132163, Note_on_c, 0, 67, 100
1, 132307, Note_off_c, 0, 67, 100
1, 132307, Note_on_c, 0, 71, 100
1, 132355, Note_off_c, 0, 71, 100
1, 132355, Note_on_c, 0, 70, 100
1, 132451, Note_off_c, 0, 70, 100
1, 132835, Note_on_c, 0, 63, 100
1, 132931, Note_off_c, 0, 63, 100
1, 132931, Note_on_c, 0, 66, 100
1, 133027, Note_off_c, 0, 66, 100
1, 133027, Note_on_c, 0, 70, 100
1, 133091, Note_off_c, 0, 70, 100
1, 133091, Note_on_c, 0, 71, 100
1, 133155, Note_off_c, 0, 71, 100
1, 133155, Note_on_c, 0, 68, 100
1, 133251, Note_off_c, 0, 68, 100
1, 133507, Note_on_c, 0, 61, 100
1, 133651, Note_off_c, 0, 61, 100
1, 133651, Note_on_c, 0, 65, 100
1, 133747, Note_off_c, 0, 65, 100
1, 133747, Note_on_c, 0, 68, 100
1, 133795, Note_off_c, 0, 68, 100
1, 133795, Note_on_c, 0, 71, 100
1, 133891, Note_off_c, 0, 71, 100
1, 133891, Note_on_c, 0, 68, 100
1, 133939, Note_off_c, 0, 68, 100
1, 133939, Note_on_c, 0, 62, 100
1, 134035, Note_off_c, 0, 62, 100
1, 134323, Note_on_c, 0, 62, 100
1, 134419, Note_off_c, 0, 62, 100
1, 134419, Note_on_c, 0, 65, 100
1, 134467, Note_off_c, 0, 65, 100
1, 134467, Note_on_c, 0, 68, 100
1, 134563, Note_off_c, 0, 68, 100
1, 134563, Note_on_c, 0, 71, 100
1, 134659, Note_off_c, 0, 71, 100
1, 134659, Note_on_c, 0, 67, 100
1, 134819, Note_off_c, 0, 67, 100
1, 134819, Note_on_c, 0, 71, 100
1, 134883, Note_off_c, 0, 71, 100
1, 134883, Note_on_c, 0, 68, 100
1, 135011, Note_off_c, 0, 68, 100
1, 135011, Note_on_c, 0, 71, 100
1, 135075, Note_off_c, 0, 71, 100
1, 135075, Note_on_c, 0, 70, 100
1, 135203, Note_off_c, 0, 70, 100
1, 135203, Note_on_c, 0, 69, 100
1, 135267, Note_off_c, 0, 69, 100
1, 135267, Note_on_c, 0, 70, 100
1, 135331, Note_off_c, 0, 70, 100
1, 135331, Note_on_c, 0, 71, 100
1, 135427, Note_off_c, 0, 71, 100
1, 135427, Note_on_c, 0, 64, 100
1, 135523, Note_off_c, 0, 64, 100
1, 135859, Note_on_c, 0, 64, 100
1, 135971, Note_off_c, 0, 64, 100
1, 135971, Note_on_c, 0, 65, 100
1, 136035, Note_off_c, 0, 65, 100
1, 136035, Note_on_c, 0, 69, 100
1, 136163, Note_off_c, 0, 69, 100
1, 136163, Note_on_c, 0, 71, 100
1, 136227, Note_off_c, 0, 71, 100
1, 136227, Note_on_c, 0, 70, 100
1, 136291, Note_off_c, 0, 70, 100
1, 136291, Note_on_c, 0, 67, 100
1, 136387, Note_off_c, 0, 67, 100
1, 136387, Note_on_c, 0, 70, 100
1, 136547, Note_off_c, 0, 70, 100
1, 136547, Note_on_c, 0, 69, 100
1, 136611, Note_off_c, 0, 69, 100
1, 136611, Note_on_c, 0, 74, 100
1, 136675, Note_off_c, 0, 74, 100
1, 136675, Note_on_c, 0, 73, 100
1, 136771, Note_off_c, 0, 73, 100
1, 136771, Note_on_c, 0, 69, 100
1, 136915, Note_off_c, 0, 69, 100
1, 136915, Note_on_c, 0, 71, 100
1, 137011, Note_off_c, 0, 71, 100
1, 137011, Note_on_c, 0, 65, 100
1, 137299, Note_off_c, 0, 65, 100
1, 137299, Note_on_c, 0, 67, 100
1, 137395, Note_off_c, 0, 67, 100
1, 137395, Note_on_c, 0, 64, 100
1, 137491, Note_off_c, 0, 64, 100
1, 137491, Note_on_c, 0, 60, 100
1, 137587, Note_off_c, 0, 60, 100
1, 137587, Note_on_c, 0, 57, 100
1, 137683, Note_off_c, 0, 57, 100
1, 137683, Note_on_c, 0, 53, 100
1, 137779, Note_off_c, 0, 53, 100
1, 137779, Note_on_c, 0, 52, 100
1, 137875, Note_off_c, 0, 52, 100
1, 138355, Note_on_c, 0, 60, 100
1, 138467, Note_off_c, 0, 60, 100
1, 138467, Note_on_c, 0, 65, 100
1, 138595, Note_off_c, 0, 65, 100
1, 138595, Note_on_c, 0, 60, 100
1, 138787, Note_off_c, 0, 60, 100
1, 138787, Note_on_c, 0, 60, 100
1, 138851, Note_off_c, 0, 60, 100
1, 138851, Note_on_c, 0, 66, 100
1, 138915, Note_off_c, 0, 66, 100
1, 138915, Note_on_c, 0, 63, 100
1, 139027, Note_off_c, 0, 63, 100
1, 139027, Note_on_c, 0, 66, 100
1, 139075, Note_off_c, 0, 66, 100
1, 139075, Note_on_c, 0, 69, 100
1, 139171, Note_off_c, 0, 69, 100
1, 139171, Note_on_c, 0, 67, 100
1, 139315, Note_off_c, 0, 67, 100
1, 139315, Note_on_c, 0, 69, 100
1, 139427, Note_off_c, 0, 69, 100
1, 139427, Note_on_c, 0, 67, 100
1, 139555, Note_off_c, 0, 67, 100
1, 139555, Note_on_c, 0, 63, 100
1, 139619, Note_off_c, 0, 63, 100
1, 139619, Note_on_c, 0, 70, 100
1, 139683, Note_off_c, 0, 70, 100
1, 139683, Note_on_c, 0, 65, 100
1, 139811, Note_off_c, 0, 65, 100
1, 139811, Note_on_c, 0, 61, 100
1, 139939, Note_off_c, 0, 61, 100
1, 139939, Note_on_c, 0, 58, 100
1, 140003, Note_off_c, 0, 58, 100
1, 140003, Note_on_c, 0, 54, 100
1, 140067, Note_off_c, 0, 54, 100
1, 140067, Note_on_c, 0, 53, 100
1, 140259, Note_off_c, 0, 53, 100
1, 140899, Note_on_c, 0, 68, 100
1, 141235, Note_off_c, 0, 68, 100
1, 141235, Note_on_c, 0, 60, 100
1, 141283, Note_off_c, 0, 60, 100
1, 141283, Note_on_c, 0, 72, 100
1, 141539, Note_off_c, 0, 72, 100
1, 141539, Note_on_c, 0, 70, 100
1, 141955, Note_off_c, 0, 70, 100
1, 141955, Note_on_c, 0, 68, 100
1, 142051, Note_off_c, 0, 68, 100
1, 142051, Note_on_c, 0, 70, 100
1, 142147, Note_off_c, 0, 70, 100
1, 142147, Note_on_c, 0, 68, 100
1, 142291, Note_off_c, 0, 68, 100
1, 142291, Note_on_c, 0, 65, 100
1, 142387, Note_off_c, 0, 65, 100
1, 142387, Note_on_c, 0, 63, 100
1, 142483, Note_off_c, 0, 63, 100
1, 142483, Note_on_c, 0, 61, 100
1, 142579, Note_off_c, 0, 61, 100
1, 142579, Note_on_c, 0, 58, 100
1, 142675, Note_off_c, 0, 58, 100
1, 142675, Note_on_c, 0, 54, 100
1, 142771, Note_off_c, 0, 54, 100
1, 142771, Note_on_c, 0, 53, 100
1, 143107, Note_off_c, 0, 53, 100
1, 143107, Note_on_c, 0, 51, 100
1, 143203, Note_off_c, 0, 51, 100
1, 143203, Note_on_c, 0, 56, 100
1, 143299, Note_off_c, 0, 56, 100
1, 143299, Note_on_c, 0, 51, 100
1, 143395, Note_off_c, 0, 51, 100
1, 143923, Note_on_c, 0, 63, 100
1, 144035, Note_off_c, 0, 63, 100
1, 144035, Note_on_c, 0, 66, 100
1, 144099, Note_off_c, 0, 66, 100
1, 144099, Note_on_c, 0, 68, 100
1, 144227, Note_off_c, 0, 68, 100
1, 144227, Note_on_c, 0, 72, 100
1, 144291, Note_off_c, 0, 72, 100
1, 144291, Note_on_c, 0, 71, 100
1, 144355, Note_off_c, 0, 71, 100
1, 144355, Note_on_c, 0, 69, 100
1, 144451, Note_off_c, 0, 69, 100
1, 144451, Note_on_c, 0, 65, 100
1, 144547, Note_off_c, 0, 65, 100
1, 144547, Note_on_c, 0, 64, 100
1, 144643, Note_off_c, 0, 64, 100
1, 144643, Note_on_c, 0, 60, 100
1, 144739, Note_off_c, 0, 60, 100
1, 144739, Note_on_c, 0, 57, 100
1, 144995, Note_off_c, 0, 57, 100
1, 144995, Note_on_c, 0, 60, 100
1, 145059, Note_off_c, 0, 60, 100
1, 145059, Note_on_c, 0, 59, 100
1, 145123, Note_off_c, 0, 59, 100
1, 145123, Note_on_c, 0, 57, 100
1, 145187, Note_off_c, 0, 57, 100
1, 145187, Note_on_c, 0, 53, 100
1, 145251, Note_off_c, 0, 53, 100
1, 145251, Note_on_c, 0, 52, 100
1, 145443, Note_off_c, 0, 52, 100
1, 145987, Note_on_c, 0, 73, 100
1, 146083, Note_off_c, 0, 73, 100
1, 146083, Note_on_c, 0, 71, 100
1, 146147, Note_off_c, 0, 71, 100
1, 146147, Note_on_c, 0, 71, 100
1, 146211, Note_off_c, 0, 71, 100
1, 146211, Note_on_c, 0, 67, 100
1, 146275, Note_off_c, 0, 67, 100
1, 146275, Note_on_c, 0, 64, 100
1, 146563, Note_off_c, 0, 64, 100
1, 146563, Note_on_c, 0, 60, 100
1, 146659, Note_off_c, 0, 60, 100
1, 146659, Note_on_c, 0, 59, 100
1, 146723, Note_off_c, 0, 59, 100
1, 146723, Note_on_c, 0, 62, 100
1, 146787, Note_off_c, 0, 62, 100
1, 146787, Note_on_c, 0, 61, 100
1, 146851, Note_off_c, 0, 61, 100
1, 146851, Note_on_c, 0, 55, 100
1, 147043, Note_off_c, 0, 55, 100
1, 147619, Note_on_c, 0, 74, 100
1, 147715, Note_off_c, 0, 74, 100
1, 147715, Note_on_c, 0, 68, 100
1, 147811, Note_off_c, 0, 68, 100
1, 147811, Note_on_c, 0, 69, 100
1, 148051, Note_off_c, 0, 69, 100
1, 148051, Note_on_c, 0, 71, 100
1, 148147, Note_off_c, 0, 71, 100
1, 148147, Note_on_c, 0, 67, 100
1, 148291, Note_off_c, 0, 67, 100
1, 148291, Note_on_c, 0, 62, 100
1, 148387, Note_off_c, 0, 62, 100
1, 148387, Note_on_c, 0, 60, 100
1, 148483, Note_off_c, 0, 60, 100
1, 148483, Note_on_c, 0, 59, 100
1, 148675, Note_off_c, 0, 59, 100
1, 149347, Note_on_c, 0, 74, 100
1, 149683, Note_off_c, 0, 74, 100
1, 149683, Note_on_c, 0, 69, 100
1, 149827, Note_off_c, 0, 69, 100
1, 149827, Note_on_c, 0, 65, 100
1, 149875, Note_off_c, 0, 65, 100
1, 149875, Note_on_c, 0, 64, 100
1, 150019, Note_off_c, 0, 64, 100
1, 150019, Note_on_c, 0, 67, 100
1, 150115, Note_off_c, 0, 67, 100
1, 150115, Note_on_c, 0, 62, 100
1, 150211, Note_off_c, 0, 62, 100
1, 150211, Note_on_c, 0, 60, 100
1, 150307, Note_off_c, 0, 60, 100
1, 150307, Note_on_c, 0, 59, 100
1, 150403, Note_off_c, 0, 59, 100
1, 150883, Note_on_c, 0, 67, 100
1, 150931, Note_off_c, 0, 67, 100
1, 150931, Note_on_c, 0, 73, 100
1, 150979, Note_off_c, 0, 73, 100
1, 150979, Note_on_c, 0, 74, 100
1, 151219, Note_off_c, 0, 74, 100
1, 151219, Note_on_c, 0, 67, 100
1, 151267, Note_off_c, 0, 67, 100
1, 151267, Note_on_c, 0, 69, 100
1, 151363, Note_off_c, 0, 69, 100
1, 151363, Note_on_c, 0, 65, 100
1, 151459, Note_off_c, 0, 65, 100
1, 151459, Note_on_c, 0, 64, 100
1, 151555, Note_off_c, 0, 64, 100
1, 151555, Note_on_c, 0, 67, 100
1, 151651, Note_off_c, 0, 67, 100
1, 151651, Note_on_c, 0, 61, 100
1, 151747, Note_off_c, 0, 61, 100
1, 151747, Note_on_c, 0, 60, 100
1, 151843, Note_off_c, 0, 60, 100
1, 151843, Note_on_c, 0, 59, 100
1, 151939, Note_off_c, 0, 59, 100
1, 152371, Note_on_c, 0, 71, 100
1, 152611, Note_off_c, 0, 71, 100
1, 152611, Note_on_c, 0, 72, 100
1, 152707, Note_off_c, 0, 72, 100
1, 152707, Note_on_c, 0, 69, 100
1, 152803, Note_off_c, 0, 69, 100
1, 152803, Note_on_c, 0, 65, 100
1, 152899, Note_off_c, 0, 65, 100
1, 152899, Note_on_c, 0, 64, 100
1, 153043, Note_off_c, 0, 64, 100
1, 153043, Note_on_c, 0, 67, 100
1, 153091, Note_off_c, 0, 67, 100
1, 153091, Note_on_c, 0, 66, 100
1, 153139, Note_off_c, 0, 66, 100
1, 153139, Note_on_c, 0, 64, 100
1, 153235, Note_off_c, 0, 64, 100
1, 153235, Note_on_c, 0, 60, 100
1, 153331, Note_off_c, 0, 60, 100
1, 153331, Note_on_c, 0, 59, 100
1, 153475, Note_off_c, 0, 59, 100
1, 153475, Note_on_c, 0, 57, 100
1, 153571, Note_off_c, 0, 57, 100
1, 154291, Note_on_c, 0, 69, 100
1, 154435, Note_off_c, 0, 69, 100
1, 154435, Note_on_c, 0, 67, 100
1, 154483, Note_off_c, 0, 67, 100
1, 154483, Note_on_c, 0, 65, 100
1, 154627, Note_off_c, 0, 65, 100
1, 154627, Note_on_c, 0, 62, 100
1, 154723, Note_off_c, 0, 62, 100
1, 154723, Note_on_c, 0, 60, 100
1, 154819, Note_off_c, 0, 60, 100
1, 154819, Note_on_c, 0, 59, 100
1, 154915, Note_off_c, 0, 59, 100
1, 154915, Note_on_c, 0, 62, 100
1, 154979, Note_off_c, 0, 62, 100
1, 154979, Note_on_c, 0, 59, 100
1, 155043, Note_off_c, 0, 59, 100
1, 155043, Note_on_c, 0, 57, 100
1, 155235, Note_off_c, 0, 57, 100
1, 155827, Note_on_c, 0, 67, 100
1, 155923, Note_off_c, 0, 67, 100
1, 155923, Note_on_c, 0, 65, 100
1, 156019, Note_off_c, 0, 65, 100
1, 156019, Note_on_c, 0, 62, 100
1, 156115, Note_off_c, 0, 62, 100
1, 156115, Note_on_c, 0, 60, 100
1, 156211, Note_off_c, 0, 60, 100
1, 156211, Note_on_c, 0, 59, 100
1, 156323, Note_off_c, 0, 59, 100
1, 156323, Note_on_c, 0, 55, 100
1, 156387, Note_off_c, 0, 55, 100
1, 156387, Note_on_c, 0, 53, 100
1, 156515, Note_off_c, 0, 53, 100
1, 156515, Note_on_c, 0, 55, 100
1, 156611, Note_off_c, 0, 55, 100
1, 157363, Note_on_c, 0, 66, 100
1, 157475, Note_off_c, 0, 66, 100
1, 157475, Note_on_c, 0, 65, 100
1, 157539, Note_off_c, 0, 65, 100
1, 157539, Note_on_c, 0, 64, 100
1, 157651, Note_off_c, 0, 64, 100
1, 157651, Note_on_c, 0, 67, 100
1, 157747, Note_off_c, 0, 67, 100
1, 157747, Note_on_c, 0, 64, 100
1, 157891, Note_off_c, 0, 64, 100
1, 157891, Note_on_c, 0, 60, 100
1, 157987, Note_off_c, 0, 60, 100
1, 157987, Note_on_c, 0, 57, 100
1, 158035, Note_off_c, 0, 57, 100
1, 158035, Note_on_c, 0, 53, 100
1, 158131, Note_off_c, 0, 53, 100
1, 158131, Note_on_c, 0, 52, 100
1, 158227, Note_off_c, 0, 52, 100
1, 158899, Note_on_c, 0, 52, 100
1, 159011, Note_off_c, 0, 52, 100
1, 159011, Note_on_c, 0, 55, 100
1, 159075, Note_off_c, 0, 55, 100
1, 159075, Note_on_c, 0, 57, 100
1, 159187, Note_off_c, 0, 57, 100
1, 159187, Note_on_c, 0, 60, 100
1, 159283, Note_off_c, 0, 60, 100
1, 159283, Note_on_c, 0, 57, 100
1, 159331, Note_off_c, 0, 57, 100
1, 159331, Note_on_c, 0, 60, 100
1, 159427, Note_off_c, 0, 60, 100
1, 159427, Note_on_c, 0, 62, 100
1, 159571, Note_off_c, 0, 62, 100
1, 159571, Note_on_c, 0, 61, 100
1, 159619, Note_off_c, 0, 61, 100
1, 159619, Note_on_c, 0, 67, 100
1, 159715, Note_off_c, 0, 67, 100
1, 159715, Note_on_c, 0, 65, 100
1, 159763, Note_off_c, 0, 65, 100
1, 159763, Note_on_c, 0, 64, 100
1, 159859, Note_off_c, 0, 64, 100
1, 159859, Note_on_c, 0, 65, 100
1, 159907, Note_off_c, 0, 65, 100
1, 159907, Note_on_c, 0, 69, 100
1, 160003, Note_off_c, 0, 69, 100
1, 160003, Note_on_c, 0, 72, 100
1, 160099, Note_off_c, 0, 72, 100
1, 160099, Note_on_c, 0, 69, 100
1, 160195, Note_off_c, 0, 69, 100
1, 160195, Note_on_c, 0, 65, 100
1, 160291, Note_off_c, 0, 65, 100
1, 160291, Note_on_c, 0, 64, 100
1, 160339, Note_off_c, 0, 64, 100
1, 160339, Note_on_c, 0, 67, 100
1, 160435, Note_off_c, 0, 67, 100
1, 160435, Note_on_c, 0, 64, 100
1, 160531, Note_off_c, 0, 64, 100
1, 160531, Note_on_c, 0, 60, 100
1, 160627, Note_off_c, 0, 60, 100
1, 160627, Note_on_c, 0, 54, 100
1, 160723, Note_off_c, 0, 54, 100
1, 160723, Note_on_c, 0, 53, 100
1, 160819, Note_off_c, 0, 53, 100
1, 160819, Note_on_c, 0, 52, 100
1, 160931, Note_off_c, 0, 52, 100
1, 160931, Note_on_c, 0, 55, 100
1, 160995, Note_off_c, 0, 55, 100
1, 160995, Note_on_c, 0, 52, 100
1, 161107, Note_off_c, 0, 52, 100
1, 161107, Note_on_c, 0, 50, 100
1, 161203, Note_off_c, 0, 50, 100
1, 161203, Note_on_c, 0, 47, 100
1, 161395, Note_off_c, 0, 47, 100
1, 162355, Note_on_c, 0, 45, 100
1, 162499, Note_off_c, 0, 45, 100
1, 162499, Note_on_c, 0, 47, 100
1, 162659, Note_off_c, 0, 47, 100
1, 162659, Note_on_c, 0, 67, 100
1, 162787, Note_off_c, 0, 67, 100
1, 162787, Note_on_c, 0, 63, 100
1, 162883, Note_off_c, 0, 63, 100
1, 162883, Note_on_c, 0, 65, 100
1, 162931, Note_off_c, 0, 65, 100
1, 162931, Note_on_c, 0, 68, 100
1, 163027, Note_off_c, 0, 68, 100
1, 163027, Note_on_c, 0, 72, 100
1, 163075, Note_off_c, 0, 72, 100
1, 163075, Note_on_c, 0, 71, 100
1, 163123, Note_off_c, 0, 71, 100
1, 163123, Note_on_c, 0, 70, 100
1, 163235, Note_off_c, 0, 70, 100
1, 163235, Note_on_c, 0, 66, 100
1, 163299, Note_off_c, 0, 66, 100
1, 163299, Note_on_c, 0, 65, 100
1, 163427, Note_off_c, 0, 65, 100
1, 163427, Note_on_c, 0, 68, 100
1, 163491, Note_off_c, 0, 68, 100
1, 163491, Note_on_c, 0, 63, 100
1, 163603, Note_off_c, 0, 63, 100
1, 163603, Note_on_c, 0, 61, 100
1, 163699, Note_off_c, 0, 61, 100
1, 163699, Note_on_c, 0, 58, 100
1, 163811, Note_off_c, 0, 58, 100
1, 163811, Note_on_c, 0, 54, 100
1, 163939, Note_off_c, 0, 54, 100
1, 163939, Note_on_c, 0, 53, 100
1, 164035, Note_off_c, 0, 53, 100
1, 164851, Note_on_c, 0, 73, 100
1, 164947, Note_off_c, 0, 73, 100
1, 164947, Note_on_c, 0, 72, 100
1, 165043, Note_off_c, 0, 72, 100
1, 165043, Note_on_c, 0, 68, 100
1, 165379, Note_off_c, 0, 68, 100
1, 165379, Note_on_c, 0, 65, 100
1, 165475, Note_off_c, 0, 65, 100
1, 165475, Note_on_c, 0, 63, 100
1, 165523, Note_off_c, 0, 63, 100
1, 165523, Note_on_c, 0, 67, 100
1, 165619, Note_off_c, 0, 67, 100
1, 165619, Note_on_c, 0, 65, 100
1, 165715, Note_off_c, 0, 65, 100
1, 165715, Note_on_c, 0, 61, 100
1, 165811, Note_off_c, 0, 61, 100
1, 165811, Note_on_c, 0, 60, 100
1, 166003, Note_off_c, 0, 60, 100
1, 166627, Note_on_c, 0, 60, 100
1, 166675, Note_off_c, 0, 60, 100
1, 166675, Note_on_c, 0, 65, 100
1, 166771, Note_off_c, 0, 65, 100
1, 166771, Note_on_c, 0, 63, 100
1, 166867, Note_off_c, 0, 63, 100
1, 166867, Note_on_c, 0, 60, 100
1, 166963, Note_off_c, 0, 60, 100
1, 166963, Note_on_c, 0, 58, 100
1, 167059, Note_off_c, 0, 58, 100
1, 167059, Note_on_c, 0, 54, 100
1, 167107, Note_off_c, 0, 54, 100
1, 167107, Note_on_c, 0, 53, 100
1, 167203, Note_off_c, 0, 53, 100
1, 167203, Note_on_c, 0, 63, 100
1, 167299, Note_off_c, 0, 63, 100
1, 167299, Note_on_c, 0, 67, 100
1, 167395, Note_off_c, 0, 67, 100
1, 167779, Note_on_c, 0, 51, 100
1, 167843, Note_off_c, 0, 51, 100
1, 167843, Note_on_c, 0, 53, 100
1, 167907, Note_off_c, 0, 53, 100
1, 167907, Note_on_c, 0, 56, 100
1, 168019, Note_off_c, 0, 56, 100
1, 168019, Note_on_c, 0, 61, 100
1, 168115, Note_off_c, 0, 61, 100
1, 168115, Note_on_c, 0, 55, 100
1, 168211, Note_off_c, 0, 55, 100
1, 168211, Note_on_c, 0, 67, 100
1, 168307, Note_off_c, 0, 67, 100
1, 168307, Note_on_c, 0, 63, 100
1, 168403, Note_off_c, 0, 63, 100
1, 168403, Note_on_c, 0, 66, 100
1, 168499, Note_off_c, 0, 66, 100
1, 168499, Note_on_c, 0, 63, 100
1, 168547, Note_off_c, 0, 63, 100
1, 168547, Note_on_c, 0, 66, 100
1, 168643, Note_off_c, 0, 66, 100
1, 168643, Note_on_c, 0, 70, 100
1, 168739, Note_off_c, 0, 70, 100
1, 169315, Note_on_c, 0, 64, 100
1, 169379, Note_off_c, 0, 64, 100
1, 169379, Note_on_c, 0, 65, 100
1, 169443, Note_off_c, 0, 65, 100
1, 169443, Note_on_c, 0, 69, 100
1, 169555, Note_off_c, 0, 69, 100
1, 169555, Note_on_c, 0, 67, 100
1, 169651, Note_off_c, 0, 67, 100
1, 169651, Note_on_c, 0, 69, 100
1, 169699, Note_off_c, 0, 69, 100
1, 169699, Note_on_c, 0, 68, 100
1, 169737, Note_off_c, 0, 68, 100
1, 169737, Note_on_c, 0, 67, 100
1, 169813, Note_off_c, 0, 67, 100
1, 169813, Note_on_c, 0, 69, 100
1, 169937, Note_off_c, 0, 69, 100
1, 169937, Note_on_c, 0, 67, 100
1, 170033, Note_off_c, 0, 67, 100
1, 170033, Note_on_c, 0, 60, 100
1, 170129, Note_off_c, 0, 60, 100
1, 170129, Note_on_c, 0, 65, 100
1, 170225, Note_off_c, 0, 65, 100
1, 170225, Note_on_c, 0, 69, 100
1, 170273, Note_off_c, 0, 69, 100
1, 170273, Note_on_c, 0, 71, 100
1, 170369, Note_off_c, 0, 71, 100
1, 171137, Note_on_c, 0, 71, 100
1, 171281, Note_off_c, 0, 71, 100
1, 171281, Note_on_c, 0, 69, 100
1, 171377, Note_off_c, 0, 69, 100
1, 171377, Note_on_c, 0, 71, 100
1, 171473, Note_off_c, 0, 71, 100
1, 171473, Note_on_c, 0, 74, 100
1, 171521, Note_off_c, 0, 74, 100
1, 171521, Note_on_c, 0, 73, 100
1, 171569, Note_off_c, 0, 73, 100
1, 171569, Note_on_c, 0, 72, 100
1, 171713, Note_off_c, 0, 72, 100
1, 171713, Note_on_c, 0, 69, 100
1, 171809, Note_off_c, 0, 69, 100
1, 172721, Note_on_c, 0, 69, 100
1, 172817, Note_off_c, 0, 69, 100
1, 173153, Note_on_c, 0, 74, 100
1, 173249, Note_off_c, 0, 74, 100
1, 173249, Note_on_c, 0, 73, 100
1, 173345, Note_off_c, 0, 73, 100
1, 173345, Note_on_c, 0, 69, 100
1, 173441, Note_off_c, 0, 69, 100
1, 173441, Note_on_c, 0, 74, 100
1, 173489, Note_off_c, 0, 74, 100
1, 173489, Note_on_c, 0, 73, 100
1, 173537, Note_off_c, 0, 73, 100
1, 173537, Note_on_c, 0, 69, 100
1, 173633, Note_off_c, 0, 69, 100
1, 173633, Note_on_c, 0, 65, 100
1, 173681, Note_off_c, 0, 65, 100
1, 173681, Note_on_c, 0, 62, 100
1, 173777, Note_off_c, 0, 62, 100
1, 173777, Note_on_c, 0, 67, 100
1, 173873, Note_off_c, 0, 67, 100
1, 173873, Note_on_c, 0, 65, 100
1, 174257, Note_off_c, 0, 65, 100
1, 174257, Note_on_c, 0, 65, 100
1, 174353, Note_off_c, 0, 65, 100
1, 174353, Note_on_c, 0, 65, 100
1, 174449, Note_off_c, 0, 65, 100
1, 174449, Note_on_c, 0, 67, 100
1, 174545, Note_off_c, 0, 67, 100
1, 174545, Note_on_c, 0, 65, 100
1, 174593, Note_off_c, 0, 65, 100
1, 174593, Note_on_c, 0, 62, 100
1, 174737, Note_off_c, 0, 62, 100
1, 174737, Note_on_c, 0, 61, 100
1, 174833, Note_off_c, 0, 61, 100
1, 174833, Note_on_c, 0, 69, 100
1, 174977, Note_off_c, 0, 69, 100
1, 174977, Note_on_c, 0, 60, 100
1, 175073, Note_off_c, 0, 60, 100
1, 175073, Note_on_c, 0, 69, 100
1, 175361, Note_off_c, 0, 69, 100
1, 176129, Note_on_c, 0, 69, 100
1, 176609, Note_off_c, 0, 69, 100
1, 176609, Note_on_c, 0, 69, 100
1, 176801, Note_off_c, 0, 69, 100
1, 176801, Note_on_c, 0, 69, 100
1, 177089, Note_off_c, 0, 69, 100
1, 177857, Note_on_c, 0, 69, 100
1, 178049, Note_off_c, 0, 69, 100
1, 178049, Note_on_c, 0, 68, 100
1, 178145, Note_off_c, 0, 68, 100
1, 178145, Note_on_c, 0, 69, 100
1, 178721, Note_off_c, 0, 69, 100
1, 178721, Note_on_c, 0, 68, 100
1, 178817, Note_off_c, 0, 68, 100
1, 178817, Note_on_c, 0, 69, 100
1, 179201, Note_off_c, 0, 69, 100
1, 179201, Note_on_c, 0, 67, 100
1, 179297, Note_off_c, 0, 67, 100
1, 179297, Note_on_c, 0, 69, 100
1, 179393, Note_off_c, 0, 69, 100
1, 179393, Note_on_c, 0, 67, 100
1, 179441, Note_off_c, 0, 67, 100
1, 179441, Note_on_c, 0, 69, 100
1, 179553, Note_off_c, 0, 69, 100
1, 179553, Note_on_c, 0, 67, 100
1, 179681, Note_off_c, 0, 67, 100
1, 179681, Note_on_c, 0, 65, 100
1, 179777, Note_off_c, 0, 65, 100
1, 179777, Note_on_c, 0, 62, 100
1, 179969, Note_off_c, 0, 62, 100
1, 180705, Note_on_c, 0, 67, 100
1, 181169, Note_off_c, 0, 67, 100
1, 181169, Note_on_c, 0, 67, 100
1, 181553, Note_off_c, 0, 67, 100
1, 181553, Note_on_c, 0, 66, 100
1, 181649, Note_off_c, 0, 66, 100
1, 181649, Note_on_c, 0, 67, 100
1, 181745, Note_off_c, 0, 67, 100
1, 181745, Note_on_c, 0, 69, 100
1, 181889, Note_off_c, 0, 69, 100
1, 181889, Note_on_c, 0, 65, 100
1, 182049, Note_off_c, 0, 65, 100
1, 182049, Note_on_c, 0, 65, 100
1, 182321, Note_off_c, 0, 65, 100
1, 182321, Note_on_c, 0, 62, 100
1, 182561, Note_off_c, 0, 62, 100
1, 182561, Note_on_c, 0, 62, 100
1, 182705, Note_off_c, 0, 62, 100
1, 182705, Note_on_c, 0, 59, 100
1, 182849, Note_off_c, 0, 59, 100
1, 182849, Note_on_c, 0, 53, 100
1, 182945, Note_off_c, 0, 53, 100
1, 183777, Note_on_c, 0, 67, 100
1, 184289, Note_off_c, 0, 67, 100
1, 184289, Note_on_c, 0, 69, 100
1, 184481, Note_off_c, 0, 69, 100
1, 184481, Note_on_c, 0, 70, 100
1, 184577, Note_off_c, 0, 70, 100
1, 184577, Note_on_c, 0, 71, 100
1, 184673, Note_off_c, 0, 71, 100
1, 184673, Note_on_c, 0, 70, 100
1, 184865, Note_off_c, 0, 70, 100
1, 184865, Note_on_c, 0, 71, 100
1, 185057, Note_off_c, 0, 71, 100
1, 185057, Note_on_c, 0, 70, 100
1, 185201, Note_off_c, 0, 70, 100
1, 185201, Note_on_c, 0, 71, 100
1, 185313, Note_off_c, 0, 71, 100
1, 185313, Note_on_c, 0, 67, 100
1, 185441, Note_off_c, 0, 67, 100
1, 185441, Note_on_c, 0, 62, 100
1, 185633, Note_off_c, 0, 62, 100
1, 185633, Note_on_c, 0, 59, 100
1, 185729, Note_off_c, 0, 59, 100
1, 185921, Note_on_c, 0, 71, 100
1, 186161, Note_off_c, 0, 71, 100
1, 186161, Note_on_c, 0, 70, 100
1, 186353, Note_off_c, 0, 70, 100
1, 186353, Note_on_c, 0, 71, 100
1, 186497, Note_off_c, 0, 71, 100
1, 186497, Note_on_c, 0, 72, 100
1, 186689, Note_off_c, 0, 72, 100
1, 186689, Note_on_c, 0, 71, 100
1, 186833, Note_off_c, 0, 71, 100
1, 186833, Note_on_c, 0, 69, 100
1, 187025, Note_off_c, 0, 69, 100
1, 187745, Note_on_c, 0, 72, 100
1, 188081, Note_off_c, 0, 72, 100
1, 188081, Note_on_c, 0, 71, 100
1, 188129, Note_off_c, 0, 71, 100
1, 188129, Note_on_c, 0, 72, 100
1, 188513, Note_off_c, 0, 72, 100
1, 188513, Note_on_c, 0, 68, 100
1, 188609, Note_off_c, 0, 68, 100
1, 188609, Note_on_c, 0, 63, 100
1, 188705, Note_off_c, 0, 63, 100
1, 189233, Note_on_c, 0, 70, 100
1, 189329, Note_off_c, 0, 70, 100
1, 189329, Note_on_c, 0, 71, 100
1, 189377, Note_off_c, 0, 71, 100
1, 189377, Note_on_c, 0, 72, 100
1, 189665, Note_off_c, 0, 72, 100
1, 189665, Note_on_c, 0, 71, 100
1, 189729, Note_off_c, 0, 71, 100
1, 189729, Note_on_c, 0, 72, 100
1, 189953, Note_off_c, 0, 72, 100
1, 189953, Note_on_c, 0, 68, 100
1, 190145, Note_off_c, 0, 68, 100
1, 190865, Note_on_c, 0, 71, 100
1, 190913, Note_off_c, 0, 71, 100
1, 190913, Note_on_c, 0, 72, 100
1, 191201, Note_off_c, 0, 72, 100
1, 191201, Note_on_c, 0, 71, 100
1, 191297, Note_off_c, 0, 71, 100
1, 191297, Note_on_c, 0, 72, 100
1, 191633, Note_off_c, 0, 72, 100
1, 191633, Note_on_c, 0, 68, 100
1, 191777, Note_off_c, 0, 68, 100
1, 191777, Note_on_c, 0, 63, 100
1, 191873, Note_off_c, 0, 63, 100
1, 192161, Note_on_c, 0, 75, 100
1, 192353, Note_off_c, 0, 75, 100
1, 192353, Note_on_c, 0, 74, 100
1, 192497, Note_off_c, 0, 74, 100
1, 192497, Note_on_c, 0, 75, 100
1, 192737, Note_off_c, 0, 75, 100
1, 192737, Note_on_c, 0, 74, 100
1, 192865, Note_off_c, 0, 74, 100
1, 192865, Note_on_c, 0, 75, 100
1, 193025, Note_off_c, 0, 75, 100
1, 193025, Note_on_c, 0, 71, 100
1, 193121, Note_off_c, 0, 71, 100
1, 193121, Note_on_c, 0, 72, 100
1, 193217, Note_off_c, 0, 72, 100
1, 193217, Note_on_c, 0, 75, 100
1, 193313, Note_off_c, 0, 75, 100
1, 193889, Note_on_c, 0, 70, 100
1, 193985, Note_off_c, 0, 70, 100
1, 193985, Note_on_c, 0, 71, 100
1, 194273, Note_off_c, 0, 71, 100
1, 194273, Note_on_c, 0, 70, 100
1, 194369, Note_off_c, 0, 70, 100
1, 194369, Note_on_c, 0, 71, 100
1, 194609, Note_off_c, 0, 71, 100
1, 194609, Note_on_c, 0, 67, 100
1, 194849, Note_off_c, 0, 67, 100
1, 194849, Note_on_c, 0, 74, 100
1, 195041, Note_off_c, 0, 74, 100
1, 195041, Note_on_c, 0, 73, 100
1, 195137, Note_off_c, 0, 73, 100
1, 195137, Note_on_c, 0, 74, 100
1, 195377, Note_off_c, 0, 74, 100
1, 195377, Note_on_c, 0, 73, 100
1, 195425, Note_off_c, 0, 73, 100
1, 195425, Note_on_c, 0, 74, 100
1, 195713, Note_off_c, 0, 74, 100
1, 195713, Note_on_c, 0, 73, 100
1, 195857, Note_off_c, 0, 73, 100
1, 195857, Note_on_c, 0, 74, 100
1, 196193, Note_off_c, 0, 74, 100
1, 196193, Note_on_c, 0, 71, 100
1, 196289, Note_off_c, 0, 71, 100
1, 196289, Note_on_c, 0, 74, 100
1, 196385, Note_off_c, 0, 74, 100
1, 196385, Note_on_c, 0, 73, 100
1, 196481, Note_off_c, 0, 73, 100
1, 196913, Note_on_c, 0, 70, 100
1, 197009, Note_off_c, 0, 70, 100
1, 197009, Note_on_c, 0, 71, 100
1, 197249, Note_off_c, 0, 71, 100
1, 197249, Note_on_c, 0, 70, 100
1, 197345, Note_off_c, 0, 70, 100
1, 197345, Note_on_c, 0, 71, 100
1, 197633, Note_off_c, 0, 71, 100
1, 197633, Note_on_c, 0, 67, 100
1, 197729, Note_off_c, 0, 67, 100
1, 198497, Note_on_c, 0, 73, 100
1, 198593, Note_off_c, 0, 73, 100
1, 198593, Note_on_c, 0, 74, 100
1, 198833, Note_off_c, 0, 74, 100
1, 198833, Note_on_c, 0, 73, 100
1, 198945, Note_off_c, 0, 73, 100
1, 198945, Note_on_c, 0, 74, 100
1, 199169, Note_off_c, 0, 74, 100
1, 199169, Note_on_c, 0, 71, 100
1, 199457, Note_off_c, 0, 71, 100
1, 200321, Note_on_c, 0, 74, 100
1, 200609, Note_off_c, 0, 74, 100
1, 200609, Note_on_c, 0, 71, 100
1, 200705, Note_off_c, 0, 71, 100
1, 200705, Note_on_c, 0, 69, 100
1, 200801, Note_off_c, 0, 69, 100
1, 200801, Note_on_c, 0, 67, 100
1, 200897, Note_off_c, 0, 67, 100
1, 200897, Note_on_c, 0, 66, 100
1, 200993, Note_off_c, 0, 66, 100
1, 200993, Note_on_c, 0, 65, 100
1, 201089, Note_off_c, 0, 65, 100
1, 201569, Note_on_c, 0, 64, 100
1, 201665, Note_off_c, 0, 64, 100
1, 201665, Note_on_c, 0, 65, 100
1, 201761, Note_off_c, 0, 65, 100
1, 201761, Note_on_c, 0, 67, 100
1, 201809, Note_off_c, 0, 67, 100
1, 201809, Note_on_c, 0, 69, 100
1, 201905, Note_off_c, 0, 69, 100
1, 201905, Note_on_c, 0, 65, 100
1, 202017, Note_off_c, 0, 65, 100
1, 202017, Note_on_c, 0, 62, 100
1, 202145, Note_off_c, 0, 62, 100
1, 202145, Note_on_c, 0, 61, 100
1, 202241, Note_off_c, 0, 61, 100
1, 202241, Note_on_c, 0, 64, 100
1, 202337, Note_off_c, 0, 64, 100
1, 202337, Note_on_c, 0, 62, 100
1, 202433, Note_off_c, 0, 62, 100
1, 202433, Note_on_c, 0, 65, 100
1, 202481, Note_off_c, 0, 65, 100
1, 202481, Note_on_c, 0, 69, 100
1, 202577, Note_off_c, 0, 69, 100
1, 203105, Note_on_c, 0, 64, 100
1, 203249, Note_off_c, 0, 64, 100
1, 203249, Note_on_c, 0, 68, 100
1, 203297, Note_off_c, 0, 68, 100
1, 203297, Note_on_c, 0, 71, 100
1, 203393, Note_off_c, 0, 71, 100
1, 203393, Note_on_c, 0, 63, 100
1, 203489, Note_off_c, 0, 63, 100
1, 203777, Note_on_c, 0, 61, 100
1, 203921, Note_off_c, 0, 61, 100
1, 203921, Note_on_c, 0, 60, 100
1, 204017, Note_off_c, 0, 60, 100
1, 204017, Note_on_c, 0, 59, 100
1, 204113, Note_off_c, 0, 59, 100
1, 204113, Note_on_c, 0, 58, 100
1, 204257, Note_off_c, 0, 58, 100
1, 204257, Note_on_c, 0, 57, 100
1, 204321, Note_off_c, 0, 57, 100
1, 204321, Note_on_c, 0, 56, 100
1, 204385, Note_off_c, 0, 56, 100
1, 204385, Note_on_c, 0, 55, 100
1, 204497, Note_off_c, 0, 55, 100
1, 204497, Note_on_c, 0, 59, 100
1, 204593, Note_off_c, 0, 59, 100
1, 204593, Note_on_c, 0, 57, 100
1, 204705, Note_off_c, 0, 57, 100
1, 204705, Note_on_c, 0, 62, 100
1, 204769, Note_off_c, 0, 62, 100
1, 204769, Note_on_c, 0, 65, 100
1, 204881, Note_off_c, 0, 65, 100
1, 204881, Note_on_c, 0, 69, 100
1, 204977, Note_off_c, 0, 69, 100
1, 204977, Note_on_c, 0, 62, 100
1, 205089, Note_off_c, 0, 62, 100
1, 205089, Note_on_c, 0, 65, 100
1, 205153, Note_off_c, 0, 65, 100
1, 205153, Note_on_c, 0, 69, 100
1, 205265, Note_off_c, 0, 69, 100
1, 205265, Note_on_c, 0, 71, 100
1, 205361, Note_off_c, 0, 71, 100
1, 205361, Note_on_c, 0, 69, 100
1, 205409, Note_off_c, 0, 69, 100
1, 205409, Note_on_c, 0, 67, 100
1, 205505, Note_off_c, 0, 67, 100
1, 205505, Note_on_c, 0, 65, 100
1, 205553, Note_off_c, 0, 65, 100
1, 205553, Note_on_c, 0, 64, 100
1, 205697, Note_off_c, 0, 64, 100
1, 205697, Note_on_c, 0, 67, 100
1, 205745, Note_off_c, 0, 67, 100
1, 205745, Note_on_c, 0, 62, 100
1, 205841, Note_off_c, 0, 62, 100
1, 206177, Note_on_c, 0, 67, 100
1, 206273, Note_off_c, 0, 67, 100
1, 206465, Note_on_c, 0, 69, 100
1, 206561, Note_off_c, 0, 69, 100
1, 206561, Note_on_c, 0, 67, 100
1, 206657, Note_off_c, 0, 67, 100
1, 206945, Note_on_c, 0, 69, 100
1, 207041, Note_off_c, 0, 69, 100
1, 207329, Note_on_c, 0, 62, 100
1, 207425, Note_off_c, 0, 62, 100
1, 207425, Note_on_c, 0, 65, 100
1, 207473, Note_off_c, 0, 65, 100
1, 207473, Note_on_c, 0, 69, 100
1, 207569, Note_off_c, 0, 69, 100
1, 207857, Note_on_c, 0, 64, 100
1, 207953, Note_off_c, 0, 64, 100
1, 207953, Note_on_c, 0, 67, 100
1, 208049, Note_off_c, 0, 67, 100
1, 208049, Note_on_c, 0, 71, 100
1, 208145, Note_off_c, 0, 71, 100
1, 208481, Note_on_c, 0, 65, 100
1, 208577, Note_off_c, 0, 65, 100
1, 208577, Note_on_c, 0, 69, 100
1, 208673, Note_off_c, 0, 69, 100
1, 208673, Note_on_c, 0, 72, 100
1, 208769, Note_off_c, 0, 72, 100
1, 208769, Note_on_c, 0, 67, 100
1, 208865, Note_off_c, 0, 67, 100
1, 208865, Note_on_c, 0, 69, 100
1, 208961, Note_off_c, 0, 69, 100
1, 209249, Note_on_c, 0, 69, 100
1, 209345, Note_off_c, 0, 69, 100
1, 209345, Note_on_c, 0, 71, 100
1, 209441, Note_off_c, 0, 71, 100
1, 209441, Note_on_c, 0, 72, 100
1, 209537, Note_off_c, 0, 72, 100
1, 209537, Note_on_c, 0, 73, 100
1, 209585, Note_off_c, 0, 73, 100
1, 209585, Note_on_c, 0, 72, 100
1, 209633, Note_off_c, 0, 72, 100
1, 209633, Note_on_c, 0, 69, 100
1, 209697, Note_off_c, 0, 69, 100
1, 209697, Note_on_c, 0, 65, 100
1, 209761, Note_off_c, 0, 65, 100
1, 209761, Note_on_c, 0, 62, 100
1, 209969, Note_off_c, 0, 62, 100
1, 209969, Note_on_c, 0, 65, 100
1, 210257, Note_off_c, 0, 65, 100
1, 210257, Note_on_c, 0, 67, 100
1, 210353, Note_off_c, 0, 67, 100
1, 210353, Note_on_c, 0, 65, 100
1, 210449, Note_off_c, 0, 65, 100
1, 210449, Note_on_c, 0, 62, 100
1, 210545, Note_off_c, 0, 62, 100
1, 210545, Note_on_c, 0, 57, 100
1, 210657, Note_off_c, 0, 57, 100
1, 210657, Note_on_c, 0, 53, 100
1, 210753, Note_off_c, 0, 53, 100
1, 211553, Note_on_c, 0, 54, 100
1, 211591, Note_off_c, 0, 54, 100
1, 211591, Note_on_c, 0, 56, 100
1, 211629, Note_off_c, 0, 56, 100
1, 211629, Note_on_c, 0, 63, 100
1, 211667, Note_off_c, 0, 63, 100
1, 211667, Note_on_c, 0, 67, 100
1, 211807, Note_off_c, 0, 67, 100
1, 211807, Note_on_c, 0, 60, 100
1, 211935, Note_off_c, 0, 60, 100
1, 211935, Note_on_c, 0, 58, 100
1, 212031, Note_off_c, 0, 58, 100
1, 212031, Note_on_c, 0, 54, 100
1, 212127, Note_off_c, 0, 54, 100
1, 212127, Note_on_c, 0, 51, 100
1, 212223, Note_off_c, 0, 51, 100
1, 212223, Note_on_c, 0, 54, 100
1, 212319, Note_off_c, 0, 54, 100
1, 212319, Note_on_c, 0, 47, 100
1, 212415, Note_off_c, 0, 47, 100
1, 212703, Note_on_c, 0, 58, 100
1, 212895, Note_off_c, 0, 58, 100
1, 212895, Note_on_c, 0, 60, 100
1, 212991, Note_off_c, 0, 60, 100
1, 212991, Note_on_c, 0, 56, 100
1, 213039, Note_off_c, 0, 56, 100
1, 213039, Note_on_c, 0, 54, 100
1, 213151, Note_off_c, 0, 54, 100
1, 213151, Note_on_c, 0, 56, 100
1, 213215, Note_off_c, 0, 56, 100
1, 213215, Note_on_c, 0, 67, 100
1, 213327, Note_off_c, 0, 67, 100
1, 213327, Note_on_c, 0, 60, 100
1, 213423, Note_off_c, 0, 60, 100
1, 213423, Note_on_c, 0, 58, 100
1, 213519, Note_off_c, 0, 58, 100
1, 213807, Note_on_c, 0, 58, 100
1, 213903, Note_off_c, 0, 58, 100
1, 213903, Note_on_c, 0, 60, 100
1, 213999, Note_off_c, 0, 60, 100
1, 213999, Note_on_c, 0, 62, 100
1, 214095, Note_off_c, 0, 62, 100
1, 214095, Note_on_c, 0, 65, 100
1, 214191, Note_off_c, 0, 65, 100
1, 214191, Note_on_c, 0, 63, 100
1, 214335, Note_off_c, 0, 63, 100
1, 214335, Note_on_c, 0, 66, 100
1, 214383, Note_off_c, 0, 66, 100
1, 214383, Note_on_c, 0, 70, 100
1, 214479, Note_off_c, 0, 70, 100
1, 214479, Note_on_c, 0, 71, 100
1, 214575, Note_off_c, 0, 71, 100
1, 214575, Note_on_c, 0, 68, 100
1, 214623, Note_off_c, 0, 68, 100
1, 214623, Note_on_c, 0, 66, 100
1, 214719, Note_off_c, 0, 66, 100
1, 214719, Note_on_c, 0, 63, 100
1, 214815, Note_off_c, 0, 63, 100
1, 215295, Note_on_c, 0, 63, 100
1, 215439, Note_off_c, 0, 63, 100
1, 215439, Note_on_c, 0, 66, 100
1, 215535, Note_off_c, 0, 66, 100
1, 215535, Note_on_c, 0, 67, 100
1, 215583, Note_off_c, 0, 67, 100
1, 215583, Note_on_c, 0, 70, 100
1, 215727, Note_off_c, 0, 70, 100
1, 215727, Note_on_c, 0, 65, 100
1, 215823, Note_off_c, 0, 65, 100
1, 215823, Note_on_c, 0, 60, 100
1, 215919, Note_off_c, 0, 60, 100
1, 215919, Note_on_c, 0, 58, 100
1, 216015, Note_off_c, 0, 58, 100
1, 216879, Note_on_c, 0, 58, 100
1, 216975, Note_off_c, 0, 58, 100
1, 216975, Note_on_c, 0, 60, 100
1, 217071, Note_off_c, 0, 60, 100
1, 217071, Note_on_c, 0, 62, 100
1, 217167, Note_off_c, 0, 62, 100
1, 217167, Note_on_c, 0, 65, 100
1, 217263, Note_off_c, 0, 65, 100
1, 217263, Note_on_c, 0, 63, 100
1, 217375, Note_off_c, 0, 63, 100
1, 217375, Note_on_c, 0, 66, 100
1, 217439, Note_off_c, 0, 66, 100
1, 217439, Note_on_c, 0, 68, 100
1, 217551, Note_off_c, 0, 68, 100
1, 217551, Note_on_c, 0, 71, 100
1, 217695, Note_off_c, 0, 71, 100
1, 217695, Note_on_c, 0, 68, 100
1, 217743, Note_off_c, 0, 68, 100
1, 217743, Note_on_c, 0, 66, 100
1, 217839, Note_off_c, 0, 66, 100
1, 217839, Note_on_c, 0, 63, 100
1, 217951, Note_off_c, 0, 63, 100
1, 217951, Note_on_c, 0, 58, 100
1, 218015, Note_off_c, 0, 58, 100
1, 218015, Note_on_c, 0, 62, 100
1, 218111, Note_off_c, 0, 62, 100
1, 218463, Note_on_c, 0, 69, 100
1, 218559, Note_off_c, 0, 69, 100
1, 218559, Note_on_c, 0, 71, 100
1, 218799, Note_off_c, 0, 71, 100
1, 218799, Note_on_c, 0, 69, 100
1, 218911, Note_off_c, 0, 69, 100
1, 218911, Note_on_c, 0, 71, 100
1, 219183, Note_off_c, 0, 71, 100
1, 219183, Note_on_c, 0, 69, 100
1, 219327, Note_off_c, 0, 69, 100
1, 219327, Note_on_c, 0, 65, 100
1, 219375, Note_off_c, 0, 65, 100
1, 219375, Note_on_c, 0, 62, 100
1, 219471, Note_off_c, 0, 62, 100
1, 219999, Note_on_c, 0, 67, 100
1, 220047, Note_off_c, 0, 67, 100
1, 220047, Note_on_c, 0, 65, 100
1, 220143, Note_off_c, 0, 65, 100
1, 220143, Note_on_c, 0, 62, 100
1, 220287, Note_off_c, 0, 62, 100
1, 220287, Note_on_c, 0, 64, 100
1, 220383, Note_off_c, 0, 64, 100
1, 220383, Note_on_c, 0, 62, 100
1, 220479, Note_off_c, 0, 62, 100
1, 220479, Note_on_c, 0, 60, 100
1, 220575, Note_off_c, 0, 60, 100
1, 220575, Note_on_c, 0, 57, 100
1, 220671, Note_off_c, 0, 57, 100
1, 220671, Note_on_c, 0, 53, 100
1, 220719, Note_off_c, 0, 53, 100
1, 220719, Note_on_c, 0, 50, 100
1, 220815, Note_off_c, 0, 50, 100
1, 221295, Note_on_c, 0, 50, 100
1, 221343, Note_off_c, 0, 50, 100
1, 221343, Note_on_c, 0, 53, 100
1, 221535, Note_off_c, 0, 53, 100
1, 221535, Note_on_c, 0, 57, 100
1, 221583, Note_off_c, 0, 57, 100
1, 221583, Note_on_c, 0, 66, 100
1, 221679, Note_off_c, 0, 66, 100
1, 221679, Note_on_c, 0, 68, 100
1, 221775, Note_off_c, 0, 68, 100
1, 221775, Note_on_c, 0, 67, 100
1, 221871, Note_off_c, 0, 67, 100
1, 221871, Note_on_c, 0, 62, 100
1, 221967, Note_off_c, 0, 62, 100
1, 222255, Note_on_c, 0, 62, 100
1, 222351, Note_off_c, 0, 62, 100
1, 222351, Note_on_c, 0, 65, 100
1, 222447, Note_off_c, 0, 65, 100
1, 222447, Note_on_c, 0, 69, 100
1, 222543, Note_off_c, 0, 69, 100
1, 222543, Note_on_c, 0, 74, 100
1, 222591, Note_off_c, 0, 74, 100
1, 222591, Note_on_c, 0, 73, 100
1, 222639, Note_off_c, 0, 73, 100
1, 222639, Note_on_c, 0, 69, 100
1, 222735, Note_off_c, 0, 69, 100
1, 223023, Note_on_c, 0, 71, 100
1, 223167, Note_off_c, 0, 71, 100
1, 223167, Note_on_c, 0, 67, 100
1, 223215, Note_off_c, 0, 67, 100
1, 223215, Note_on_c, 0, 65, 100
1, 223263, Note_off_c, 0, 65, 100
1, 223263, Note_on_c, 0, 62, 100
1, 223359, Note_off_c, 0, 62, 100
1, 223359, Note_on_c, 0, 58, 100
1, 223455, Note_off_c, 0, 58, 100
1, 223455, Note_on_c, 0, 65, 100
1, 223551, Note_off_c, 0, 65, 100
1, 223839, Note_on_c, 0, 65, 100
1, 223935, Note_off_c, 0, 65, 100
1, 223935, Note_on_c, 0, 67, 100
1, 224031, Note_off_c, 0, 67, 100
1, 224031, Note_on_c, 0, 69, 100
1, 224127, Note_off_c, 0, 69, 100
1, 224127, Note_on_c, 0, 71, 100
1, 224223, Note_off_c, 0, 71, 100
1, 224223, Note_on_c, 0, 67, 100
1, 224319, Note_off_c, 0, 67, 100
1, 224559, Note_on_c, 0, 71, 100
1, 224703, Note_off_c, 0, 71, 100
1, 224703, Note_on_c, 0, 67, 100
1, 224895, Note_off_c, 0, 67, 100
1, 224895, Note_on_c, 0, 69, 100
1, 225087, Note_off_c, 0, 69, 100
1, 225327, Note_on_c, 0, 69, 100
1, 225471, Note_off_c, 0, 69, 100
1, 225471, Note_on_c, 0, 72, 100
1, 225519, Note_off_c, 0, 72, 100
1, 225519, Note_on_c, 0, 71, 100
1, 225615, Note_off_c, 0, 71, 100
1, 225615, Note_on_c, 0, 69, 100
1, 225711, Note_off_c, 0, 69, 100
1, 225711, Note_on_c, 0, 67, 100
1, 225807, Note_off_c, 0, 67, 100
1, 226143, Note_on_c, 0, 70, 100
1, 226191, Note_off_c, 0, 70, 100
1, 226191, Note_on_c, 0, 71, 100
1, 226383, Note_off_c, 0, 71, 100
1, 226383, Note_on_c, 0, 67, 100
1, 226479, Note_off_c, 0, 67, 100
1, 226479, Note_on_c, 0, 65, 100
1, 226623, Note_off_c, 0, 65, 100
1, 226623, Note_on_c, 0, 67, 100
1, 226719, Note_off_c, 0, 67, 100
1, 226719, Note_on_c, 0, 69, 100
1, 226783, Note_off_c, 0, 69, 100
1, 226783, Note_on_c, 0, 65, 100
1, 226847, Note_off_c, 0, 65, 100
1, 226847, Note_on_c, 0, 62, 100
1, 226943, Note_off_c, 0, 62, 100
1, 227247, Note_on_c, 0, 63, 100
1, 227359, Note_off_c, 0, 63, 100
1, 227359, Note_on_c, 0, 64, 100
1, 227487, Note_off_c, 0, 64, 100
1, 227487, Note_on_c, 0, 65, 100
1, 227583, Note_off_c, 0, 65, 100
1, 227583, Note_on_c, 0, 67, 100
1, 227679, Note_off_c, 0, 67, 100
1, 227679, Note_on_c, 0, 64, 100
1, 227775, Note_off_c, 0, 64, 100
1, 227775, Note_on_c, 0, 65, 100
1, 227823, Note_off_c, 0, 65, 100
1, 227823, Note_on_c, 0, 67, 100
1, 227935, Note_off_c, 0, 67, 100
1, 227935, Note_on_c, 0, 69, 100
1, 227999, Note_off_c, 0, 69, 100
1, 227999, Note_on_c, 0, 65, 100
1, 228063, Note_off_c, 0, 65, 100
1, 228063, Note_on_c, 0, 64, 100
1, 228159, Note_off_c, 0, 64, 100
1, 228159, Note_on_c, 0, 63, 100
1, 228319, Note_off_c, 0, 63, 100
1, 228319, Note_on_c, 0, 67, 100
1, 228383, Note_off_c, 0, 67, 100
1, 228383, Note_on_c, 0, 62, 100
1, 228479, Note_off_c, 0, 62, 100
1, 228895, Note_on_c, 0, 62, 100
1, 228959, Note_off_c, 0, 62, 100
1, 228959, Note_on_c, 0, 63, 100
1, 229119, Note_off_c, 0, 63, 100
1, 229119, Note_on_c, 0, 61, 100
1, 229215, Note_off_c, 0, 61, 100
1, 229215, Note_on_c, 0, 63, 100
1, 229311, Note_off_c, 0, 63, 100
1, 229311, Note_on_c, 0, 61, 100
1, 229359, Note_off_c, 0, 61, 100
1, 229359, Note_on_c, 0, 59, 100
1, 229407, Note_off_c, 0, 59, 100
1, 229407, Note_on_c, 0, 58, 100
1, 229503, Note_off_c, 0, 58, 100
1, 229503, Note_on_c, 0, 57, 100
1, 229599, Note_off_c, 0, 57, 100
1, 229935, Note_on_c, 0, 57, 100
1, 230031, Note_off_c, 0, 57, 100
1, 230031, Note_on_c, 0, 61, 100
1, 230127, Note_off_c, 0, 61, 100
1, 230127, Note_on_c, 0, 65, 100
1, 230223, Note_off_c, 0, 65, 100
1, 230223, Note_on_c, 0, 69, 100
1, 230271, Note_off_c, 0, 69, 100
1, 230271, Note_on_c, 0, 71, 100
1, 230319, Note_off_c, 0, 71, 100
1, 230319, Note_on_c, 0, 68, 100
1, 230415, Note_off_c, 0, 68, 100
1, 230799, Note_on_c, 0, 64, 100
1, 230847, Note_off_c, 0, 64, 100
1, 230847, Note_on_c, 0, 65, 100
1, 230895, Note_off_c, 0, 65, 100
1, 230895, Note_on_c, 0, 66, 100
1, 231375, Note_off_c, 0, 66, 100
1, 231375, Note_on_c, 0, 65, 100
1, 231471, Note_off_c, 0, 65, 100
1, 231471, Note_on_c, 0, 64, 100
1, 231567, Note_off_c, 0, 64, 100
1, 231567, Note_on_c, 0, 63, 100
1, 231663, Note_off_c, 0, 63, 100
1, 231663, Note_on_c, 0, 63, 100
1, 231759, Note_off_c, 0, 63, 100
1, 231759, Note_on_c, 0, 66, 100
1, 231855, Note_off_c, 0, 66, 100
1, 231855, Note_on_c, 0, 65, 100
1, 231999, Note_off_c, 0, 65, 100
1, 231999, Note_on_c, 0, 63, 100
1, 232095, Note_off_c, 0, 63, 100
1, 232095, Note_on_c, 0, 61, 100
1, 232143, Note_off_c, 0, 61, 100
1, 232143, Note_on_c, 0, 60, 100
1, 232239, Note_off_c, 0, 60, 100
1, 232239, Note_on_c, 0, 59, 100
1, 232351, Note_off_c, 0, 59, 100
1, 232351, Note_on_c, 0, 58, 100
1, 232415, Note_off_c, 0, 58, 100
1, 232415, Note_on_c, 0, 57, 100
1, 232527, Note_off_c, 0, 57, 100
1, 232527, Note_on_c, 0, 56, 100
1, 232623, Note_off_c, 0, 56, 100
1, 232623, Note_on_c, 0, 55, 100
1, 232719, Note_off_c, 0, 55, 100
1, 233503, Note_on_c, 0, 72, 100
1, 233631, Note_off_c, 0, 72, 100
1, 233631, Note_on_c, 0, 73, 100
1, 234111, Note_off_c, 0, 73, 100
1, 234111, Note_on_c, 0, 70, 100
1, 234207, Note_off_c, 0, 70, 100
1, 234207, Note_on_c, 0, 71, 100
1, 234255, Note_off_c, 0, 71, 100
1, 234255, Note_on_c, 0, 67, 100
1, 234351, Note_off_c, 0, 67, 100
1, 234351, Note_on_c, 0, 66, 100
1, 234495, Note_off_c, 0, 66, 100
1, 234495, Note_on_c, 0, 70, 100
1, 234591, Note_off_c, 0, 70, 100
1, 234591, Note_on_c, 0, 69, 100
1, 234687, Note_off_c, 0, 69, 100
1, 234687, Note_on_c, 0, 66, 100
1, 234735, Note_off_c, 0, 66, 100
1, 234735, Note_on_c, 0, 65, 100
1, 234783, Note_off_c, 0, 65, 100
1, 234783, Note_on_c, 0, 64, 100
1, 234879, Note_off_c, 0, 64, 100
1, 234879, Note_on_c, 0, 63, 100
1, 235039, Note_off_c, 0, 63, 100
1, 235039, Note_on_c, 0, 65, 100
1, 235167, Note_off_c, 0, 65, 100
1, 235167, Note_on_c, 0, 63, 100
1, 235263, Note_off_c, 0, 63, 100
1, 235263, Note_on_c, 0, 61, 100
1, 235359, Note_off_c, 0, 61, 100
1, 235359, Note_on_c, 0, 60, 100
1, 235551, Note_off_c, 0, 60, 100
1, 235551, Note_on_c, 0, 59, 100
1, 235599, Note_off_c, 0, 59, 100
1, 235599, Note_on_c, 0, 58, 100
1, 235695, Note_off_c, 0, 58, 100
1, 235695, Note_on_c, 0, 57, 100
1, 235743, Note_off_c, 0, 57, 100
1, 235743, Note_on_c, 0, 56, 100
1, 235887, Note_off_c, 0, 56, 100
1, 235887, Note_on_c, 0, 55, 100
1, 235983, Note_off_c, 0, 55, 100
1, 235983, Note_on_c, 0, 59, 100
1, 236079, Note_off_c, 0, 59, 100
1, 236079, Note_on_c, 0, 57, 100
1, 236175, Note_off_c, 0, 57, 100
1, 236175, Note_on_c, 0, 62, 100
1, 236271, Note_off_c, 0, 62, 100
1, 236271, Note_on_c, 0, 65, 100
1, 236383, Note_off_c, 0, 65, 100
1, 236383, Note_on_c, 0, 69, 100
1, 236447, Note_off_c, 0, 69, 100
1, 236447, Note_on_c, 0, 63, 100
1, 236607, Note_off_c, 0, 63, 100
1, 236607, Note_on_c, 0, 68, 100
1, 236703, Note_off_c, 0, 68, 100
1, 236703, Note_on_c, 0, 72, 100
1, 236799, Note_off_c, 0, 72, 100
1, 236799, Note_on_c, 0, 60, 100
1, 236991, Note_off_c, 0, 60, 100
1, 237535, Note_on_c, 0, 70, 100
1, 237919, Note_off_c, 0, 70, 100
1, 237919, Note_on_c, 0, 65, 100
1, 237983, Note_off_c, 0, 65, 100
1, 237983, Note_on_c, 0, 68, 100
1, 238095, Note_off_c, 0, 68, 100
1, 238095, Note_on_c, 0, 66, 100
1, 238191, Note_off_c, 0, 66, 100
1, 238191, Note_on_c, 0, 63, 100
1, 238383, Note_off_c, 0, 63, 100
1, 238383, Note_on_c, 0, 65, 100
1, 238495, Note_off_c, 0, 65, 100
1, 238495, Note_on_c, 0, 60, 100
1, 238559, Note_off_c, 0, 60, 100
1, 238559, Note_on_c, 0, 56, 100
1, 238719, Note_off_c, 0, 56, 100
1, 238719, Note_on_c, 0, 53, 100
1, 238767, Note_off_c, 0, 53, 100
1, 238767, Note_on_c, 0, 58, 100
1, 238879, Note_off_c, 0, 58, 100
1, 238879, Note_on_c, 0, 60, 100
1, 238943, Note_off_c, 0, 60, 100
1, 238943, Note_on_c, 0, 65, 100
1, 239071, Note_off_c, 0, 65, 100
1, 239071, Note_on_c, 0, 63, 100
1, 239263, Note_off_c, 0, 63, 100
1, 239263, Note_on_c, 0, 62, 100
1, 239327, Note_off_c, 0, 62, 100
1, 239327, Note_on_c, 0, 58, 100
1, 239519, Note_off_c, 0, 58, 100
1, 240351, Note_on_c, 0, 73, 100
1, 240447, Note_off_c, 0, 73, 100
1, 240447, Note_on_c, 0, 70, 100
1, 240591, Note_off_c, 0, 70, 100
1, 240591, Note_on_c, 0, 71, 100
1, 240687, Note_off_c, 0, 71, 100
1, 240687, Note_on_c, 0, 68, 100
1, 240799, Note_off_c, 0, 68, 100
1, 240799, Note_on_c, 0, 65, 100
1, 240863, Note_off_c, 0, 65, 100
1, 240863, Note_on_c, 0, 67, 100
1, 240975, Note_off_c, 0, 67, 100
1, 240975, Note_on_c, 0, 69, 100
1, 241023, Note_off_c, 0, 69, 100
1, 241023, Note_on_c, 0, 70, 100
1, 241119, Note_off_c, 0, 70, 100
1, 241119, Note_on_c, 0, 63, 100
1, 241215, Note_off_c, 0, 63, 100
1, 241215, Note_on_c, 0, 65, 100
1, 241263, Note_off_c, 0, 65, 100
1, 241263, Note_on_c, 0, 67, 100
1, 241375, Note_off_c, 0, 67, 100
1, 241375, Note_on_c, 0, 69, 100
1, 241439, Note_off_c, 0, 69, 100
1, 241439, Note_on_c, 0, 64, 100
1, 241599, Note_off_c, 0, 64, 100
1, 241599, Note_on_c, 0, 66, 100
1, 241695, Note_off_c, 0, 66, 100
1, 241695, Note_on_c, 0, 68, 100
1, 241743, Note_off_c, 0, 68, 100
1, 241743, Note_on_c, 0, 70, 100
1, 241839, Note_off_c, 0, 70, 100
1, 241839, Note_on_c, 0, 66, 100
1, 241935, Note_off_c, 0, 66, 100
1, 241935, Note_on_c, 0, 64, 100
1, 242031, Note_off_c, 0, 64, 100
1, 242031, Note_on_c, 0, 63, 100
1, 242143, Note_off_c, 0, 63, 100
1, 242143, Note_on_c, 0, 66, 100
1, 242271, Note_off_c, 0, 66, 100
1, 242271, Note_on_c, 0, 64, 100
1, 242319, Note_off_c, 0, 64, 100
1, 242319, Note_on_c, 0, 62, 100
1, 242415, Note_off_c, 0, 62, 100
1, 242415, Note_on_c, 0, 61, 100
1, 242559, Note_off_c, 0, 61, 100
1, 242559, Note_on_c, 0, 63, 100
1, 242607, Note_off_c, 0, 63, 100
1, 242607, Note_on_c, 0, 62, 100
1, 242751, Note_off_c, 0, 62, 100
1, 242751, Note_on_c, 0, 64, 100
1, 242847, Note_off_c, 0, 64, 100
1, 242847, Note_on_c, 0, 66, 100
1, 242943, Note_off_c, 0, 66, 100
1, 242943, Note_on_c, 0, 68, 100
1, 243039, Note_off_c, 0, 68, 100
1, 243039, Note_on_c, 0, 63, 100
1, 243135, Note_off_c, 0, 63, 100
1, 243135, Note_on_c, 0, 66, 100
1, 243231, Note_off_c, 0, 66, 100
1, 243231, Note_on_c, 0, 65, 100
1, 243279, Note_off_c, 0, 65, 100
1, 243279, Note_on_c, 0, 67, 100
1, 243375, Note_off_c, 0, 67, 100
1, 243375, Note_on_c, 0, 64, 100
1, 243663, Note_off_c, 0, 64, 100
1, 243663, Note_on_c, 0, 67, 100
1, 243759, Note_off_c, 0, 67, 100
1, 243759, Note_on_c, 0, 61, 100
1, 243903, Note_off_c, 0, 61, 100
1, 243903, Note_on_c, 0, 60, 100
1, 243999, Note_off_c, 0, 60, 100
1, 243999, Note_on_c, 0, 59, 100
1, 244063, Note_off_c, 0, 59, 100
1, 244063, Note_on_c, 0, 58, 100
1, 244127, Note_off_c, 0, 58, 100
1, 244127, Note_on_c, 0, 57, 100
1, 244287, Note_off_c, 0, 57, 100
1, 244287, Note_on_c, 0, 56, 100
1, 244383, Note_off_c, 0, 56, 100
1, 244383, Note_on_c, 0, 55, 100
1, 244479, Note_off_c, 0, 55, 100
1, 244479, Note_on_c, 0, 59, 100
1, 244527, Note_off_c, 0, 59, 100
1, 244527, Note_on_c, 0, 57, 100
1, 244671, Note_off_c, 0, 57, 100
1, 244671, Note_on_c, 0, 62, 100
1, 244767, Note_off_c, 0, 62, 100
1, 244767, Note_on_c, 0, 65, 100
1, 244831, Note_off_c, 0, 65, 100
1, 244831, Note_on_c, 0, 69, 100
1, 244895, Note_off_c, 0, 69, 100
1, 244895, Note_on_c, 0, 72, 100
1, 245023, Note_off_c, 0, 72, 100
1, 245023, Note_on_c, 0, 72, 100
1, 245151, Note_off_c, 0, 72, 100
1, 245151, Note_on_c, 0, 69, 100
1, 245199, Note_off_c, 0, 69, 100
1, 245199, Note_on_c, 0, 71, 100
1, 245295, Note_off_c, 0, 71, 100
1, 245295, Note_on_c, 0, 69, 100
1, 245407, Note_off_c, 0, 69, 100
1, 245407, Note_on_c, 0, 65, 100
1, 245471, Note_off_c, 0, 65, 100
1, 245471, Note_on_c, 0, 64, 100
1, 245631, Note_off_c, 0, 64, 100
1, 245631, Note_on_c, 0, 62, 100
1, 245727, Note_off_c, 0, 62, 100
1, 245727, Note_on_c, 0, 67, 100
1, 245823, Note_off_c, 0, 67, 100
1, 246015, Note_on_c, 0, 71, 100
1, 246111, Note_off_c, 0, 71, 100
1, 246111, Note_on_c, 0, 70, 100
1, 246207, Note_off_c, 0, 70, 100
1, 246207, Note_on_c, 0, 65, 100
1, 246303, Note_off_c, 0, 65, 100
1, 246303, Note_on_c, 0, 66, 100
1, 246351, Note_off_c, 0, 66, 100
1, 246351, Note_on_c, 0, 65, 100
1, 246447, Note_off_c, 0, 65, 100
1, 246447, Note_on_c, 0, 68, 100
1, 246543, Note_off_c, 0, 68, 100
1, 246543, Note_on_c, 0, 64, 100
1, 246639, Note_off_c, 0, 64, 100
1, 246639, Note_on_c, 0, 61, 100
1, 246687, Note_off_c, 0, 61, 100
1, 246687, Note_on_c, 0, 59, 100
1, 246783, Note_off_c, 0, 59, 100
1, 246783, Note_on_c, 0, 58, 100
1, 246879, Note_off_c, 0, 58, 100
1, 246879, Note_on_c, 0, 57, 100
1, 246975, Note_off_c, 0, 57, 100
1, 246975, Note_on_c, 0, 56, 100
1, 247071, Note_off_c, 0, 56, 100
1, 247071, Note_on_c, 0, 55, 100
1, 247167, Note_off_c, 0, 55, 100
1, 247167, Note_on_c, 0, 59, 100
1, 247263, Note_off_c, 0, 59, 100
1, 247263, Note_on_c, 0, 57, 100
1, 247359, Note_off_c, 0, 57, 100
1, 248415, Note_on_c, 0, 68, 100
1, 248463, Note_off_c, 0, 68, 100
1, 248463, Note_on_c, 0, 69, 100
1, 248703, Note_off_c, 0, 69, 100
1, 248703, Note_on_c, 0, 68, 100
1, 248799, Note_off_c, 0, 68, 100
1, 248799, Note_on_c, 0, 69, 100
1, 248943, Note_off_c, 0, 69, 100
1, 248943, Note_on_c, 0, 61, 100
1, 249055, Note_off_c, 0, 61, 100
1, 249055, Note_on_c, 0, 62, 100
1, 249119, Note_off_c, 0, 62, 100
1, 249119, Note_on_c, 0, 61, 100
1, 249215, Note_off_c, 0, 61, 100
1, 249855, Note_on_c, 0, 67, 100
1, 250191, Note_off_c, 0, 67, 100
1, 250191, Note_on_c, 0, 65, 100
1, 250287, Note_off_c, 0, 65, 100
1, 250287, Note_on_c, 0, 62, 100
1, 250431, Note_off_c, 0, 62, 100
1, 250431, Note_on_c, 0, 59, 100
1, 250527, Note_off_c, 0, 59, 100
1, 251295, Note_on_c, 0, 67, 100
1, 251743, Note_off_c, 0, 67, 100
1, 251743, Note_on_c, 0, 62, 100
1, 251807, Note_off_c, 0, 62, 100
1, 251807, Note_on_c, 0, 67, 100
1, 251935, Note_off_c, 0, 67, 100
1, 251935, Note_on_c, 0, 70, 100
1, 251999, Note_off_c, 0, 70, 100
1, 251999, Note_on_c, 0, 71, 100
1, 252063, Note_off_c, 0, 71, 100
1, 252063, Note_on_c, 0, 70, 100
1, 252111, Note_off_c, 0, 70, 100
1, 252111, Note_on_c, 0, 67, 100
1, 252207, Note_off_c, 0, 67, 100
1, 252207, Note_on_c, 0, 65, 100
1, 252319, Note_off_c, 0, 65, 100
1, 252319, Note_on_c, 0, 67, 100
1, 252383, Note_off_c, 0, 67, 100
1, 252383, Note_on_c, 0, 69, 100
1, 252447, Note_off_c, 0, 69, 100
1, 252447, Note_on_c, 0, 67, 100
1, 252543, Note_off_c, 0, 67, 100
1, 252543, Note_on_c, 0, 65, 100
1, 252735, Note_off_c, 0, 65, 100
1, 252735, Note_on_c, 0, 67, 100
1, 252831, Note_off_c, 0, 67, 100
1, 252831, Note_on_c, 0, 69, 100
1, 252927, Note_off_c, 0, 69, 100
1, 252927, Note_on_c, 0, 62, 100
1, 252975, Note_off_c, 0, 62, 100
1, 252975, Note_on_c, 0, 67, 100
1, 253119, Note_off_c, 0, 67, 100
1, 253119, Note_on_c, 0, 62, 100
1, 253215, Note_off_c, 0, 62, 100
1, 253215, Note_on_c, 0, 59, 100
1, 253311, Note_off_c, 0, 59, 100
1, 253311, Note_on_c, 0, 55, 100
1, 253407, Note_off_c, 0, 55, 100
1, 253407, Note_on_c, 0, 50, 100
1, 253503, Note_off_c, 0, 50, 100
1, 253503, Note_on_c, 0, 53, 100
1, 253551, Note_off_c, 0, 53, 100
1, 253551, Note_on_c, 0, 57, 100
1, 253647, Note_off_c, 0, 57, 100
1, 253647, Note_on_c, 0, 67, 100
1, 253743, Note_off_c, 0, 67, 100
1, 253743, Note_on_c, 0, 69, 100
1, 253855, Note_off_c, 0, 69, 100
1, 253855, Note_on_c, 0, 67, 100
1, 253983, Note_off_c, 0, 67, 100
1, 253983, Note_on_c, 0, 62, 100
1, 254079, Note_off_c, 0, 62, 100
1, 254079, Note_on_c, 0, 67, 100
1, 254175, Note_off_c, 0, 67, 100
1, 254175, Note_on_c, 0, 60, 100
1, 254271, Note_off_c, 0, 60, 100
1, 254271, Note_on_c, 0, 65, 100
1, 254367, Note_off_c, 0, 65, 100
1, 254367, Note_on_c, 0, 69, 100
1, 254415, Note_off_c, 0, 69, 100
1, 254415, Note_on_c, 0, 74, 100
1, 254463, Note_off_c, 0, 74, 100
1, 254463, Note_on_c, 0, 73, 100
1, 254511, Note_off_c, 0, 73, 100
1, 254511, Note_on_c, 0, 67, 100
1, 254607, Note_off_c, 0, 67, 100
1, 255135, Note_on_c, 0, 62, 100
1, 255231, Note_off_c, 0, 62, 100
1, 255231, Note_on_c, 0, 67, 100
1, 255327, Note_off_c, 0, 67, 100
1, 255327, Note_on_c, 0, 71, 100
1, 255423, Note_off_c, 0, 71, 100
1, 255663, Note_on_c, 0, 65, 100
1, 255807, Note_off_c, 0, 65, 100
1, 255807, Note_on_c, 0, 69, 100
1, 255903, Note_off_c, 0, 69, 100
1, 255903, Note_on_c, 0, 72, 100
1, 255999, Note_off_c, 0, 72, 100
1, 255999, Note_on_c, 0, 65, 100
1, 256095, Note_off_c, 0, 65, 100
1, 256623, Note_on_c, 0, 67, 100
1, 256671, Note_off_c, 0, 67, 100
1, 256671, Note_on_c, 0, 71, 100
1, 256863, Note_off_c, 0, 71, 100
1, 256863, Note_on_c, 0, 74, 100
1, 257007, Note_off_c, 0, 74, 100
1, 257007, Note_on_c, 0, 73, 100
1, 257151, Note_off_c, 0, 73, 100
1, 257151, Note_on_c, 0, 74, 100
1, 257247, Note_off_c, 0, 74, 100
1, 257247, Note_on_c, 0, 71, 100
1, 257391, Note_off_c, 0, 71, 100
1, 257391, Note_on_c, 0, 72, 100
1, 257503, Note_off_c, 0, 72, 100
1, 257503, Note_on_c, 0, 71, 100
1, 257631, Note_off_c, 0, 71, 100
1, 257631, Note_on_c, 0, 72, 100
1, 257759, Note_off_c, 0, 72, 100
1, 257759, Note_on_c, 0, 70, 100
1, 257823, Note_off_c, 0, 70, 100
1, 257823, Note_on_c, 0, 69, 100
1, 257967, Note_off_c, 0, 69, 100
1, 257967, Note_on_c, 0, 67, 100
1, 258399, Note_off_c, 0, 67, 100
1, 258399, Note_on_c, 0, 68, 100
1, 258687, Note_off_c, 0, 68, 100
1, 258687, Note_on_c, 0, 67, 100
1, 258783, Note_off_c, 0, 67, 100
1, 258783, Note_on_c, 0, 67, 100
1, 258879, Note_off_c, 0, 67, 100
1, 258879, Note_on_c, 0, 65, 100
1, 258975, Note_off_c, 0, 65, 100
1, 258975, Note_on_c, 0, 69, 100
1, 259039, Note_off_c, 0, 69, 100
1, 259039, Note_on_c, 0, 72, 100
1, 259103, Note_off_c, 0, 72, 100
1, 259103, Note_on_c, 0, 69, 100
1, 259199, Note_off_c, 0, 69, 100
1, 259695, Note_on_c, 0, 67, 100
1, 259807, Note_off_c, 0, 67, 100
1, 259807, Note_on_c, 0, 71, 100
1, 259871, Note_off_c, 0, 71, 100
1, 259871, Note_on_c, 0, 74, 100
1, 259999, Note_off_c, 0, 74, 100
1, 259999, Note_on_c, 0, 74, 100
1, 260063, Note_off_c, 0, 74, 100
1, 260063, Note_on_c, 0, 69, 100
1, 260191, Note_off_c, 0, 69, 100
1, 260191, Note_on_c, 0, 74, 100
1, 260255, Note_off_c, 0, 74, 100
1, 260255, Note_on_c, 0, 71, 100
1, 260351, Note_off_c, 0, 71, 100
1, 260655, Note_on_c, 0, 71, 100
1, 260751, Note_off_c, 0, 71, 100
1, 260751, Note_on_c, 0, 72, 100
1, 260847, Note_off_c, 0, 72, 100
1, 260847, Note_on_c, 0, 71, 100
1, 260895, Note_off_c, 0, 71, 100
1, 260895, Note_on_c, 0, 69, 100
1, 260959, Note_off_c, 0, 69, 100
1, 260959, Note_on_c, 0, 65, 100
1, 261023, Note_off_c, 0, 65, 100
1, 261023, Note_on_c, 0, 63, 100
1, 261183, Note_off_c, 0, 63, 100
1, 261183, Note_on_c, 0, 68, 100
1, 261279, Note_off_c, 0, 68, 100
1, 261279, Note_on_c, 0, 72, 100
1, 261375, Note_off_c, 0, 72, 100
1, 261375, Note_on_c, 0, 73, 100
1, 261423, Note_off_c, 0, 73, 100
1, 261423, Note_on_c, 0, 61, 100
1, 261519, Note_off_c, 0, 61, 100
1, 261855, Note_on_c, 0, 61, 100
1, 261951, Note_off_c, 0, 61, 100
1, 261951, Note_on_c, 0, 66, 100
1, 262047, Note_off_c, 0, 66, 100
1, 262047, Note_on_c, 0, 70, 100
1, 262111, Note_off_c, 0, 70, 100
1, 262111, Note_on_c, 0, 72, 100
1, 262175, Note_off_c, 0, 72, 100
1, 262175, Note_on_c, 0, 70, 100
1, 262271, Note_off_c, 0, 70, 100
1, 262575, Note_on_c, 0, 70, 100
1, 262687, Note_off_c, 0, 70, 100
1, 262687, Note_on_c, 0, 66, 100
1, 262751, Note_off_c, 0, 66, 100
1, 262751, Note_on_c, 0, 61, 100
1, 262815, Note_off_c, 0, 61, 100
1, 262815, Note_on_c, 0, 58, 100
1, 262911, Note_off_c, 0, 58, 100
1, 262911, Note_on_c, 0, 63, 100
1, 263007, Note_off_c, 0, 63, 100
1, 263295, Note_on_c, 0, 63, 100
1, 263391, Note_off_c, 0, 63, 100
1, 263391, Note_on_c, 0, 65, 100
1, 263487, Note_off_c, 0, 65, 100
1, 263487, Note_on_c, 0, 68, 100
1, 263583, Note_off_c, 0, 68, 100
1, 263583, Note_on_c, 0, 72, 100
1, 263621, Note_off_c, 0, 72, 100
1, 263621, Note_on_c, 0, 71, 100
1, 263659, Note_off_c, 0, 71, 100
1, 263659, Note_on_c, 0, 70, 100
1, 263735, Note_off_c, 0, 70, 100
1, 263735, Note_on_c, 0, 60, 100
1, 263869, Note_off_c, 0, 60, 100
1, 263869, Note_on_c, 0, 65, 100
1, 263917, Note_off_c, 0, 65, 100
1, 263917, Note_on_c, 0, 68, 100
1, 264029, Note_off_c, 0, 68, 100
1, 264029, Note_on_c, 0, 73, 100
1, 264093, Note_off_c, 0, 73, 100
1, 264093, Note_on_c, 0, 70, 100
1, 264189, Note_off_c, 0, 70, 100
1, 264413, Note_on_c, 0, 69, 100
1, 264477, Note_off_c, 0, 69, 100
1, 264477, Note_on_c, 0, 66, 100
1, 264541, Note_off_c, 0, 66, 100
1, 264541, Note_on_c, 0, 61, 100
1, 264781, Note_off_c, 0, 61, 100
1, 264781, Note_on_c, 0, 67, 100
1, 264877, Note_off_c, 0, 67, 100
1, 264877, Note_on_c, 0, 63, 100
1, 265165, Note_off_c, 0, 63, 100
1, 265165, Note_on_c, 0, 67, 100
1, 265213, Note_off_c, 0, 67, 100
1, 265213, Note_on_c, 0, 63, 100
1, 265261, Note_off_c, 0, 63, 100
1, 265261, Note_on_c, 0, 60, 100
1, 265357, Note_off_c, 0, 60, 100
1, 265565, Note_on_c, 0, 68, 100
1, 265629, Note_off_c, 0, 68, 100
1, 265629, Note_on_c, 0, 66, 100
1, 265757, Note_off_c, 0, 66, 100
1, 265757, Note_on_c, 0, 61, 100
1, 265821, Note_off_c, 0, 61, 100
1, 265821, Note_on_c, 0, 58, 100
1, 265933, Note_off_c, 0, 58, 100
1, 265933, Note_on_c, 0, 54, 100
1, 266029, Note_off_c, 0, 54, 100
1, 266029, Note_on_c, 0, 51, 100
1, 266125, Note_off_c, 0, 51, 100
1, 266461, Note_on_c, 0, 51, 100
1, 266509, Note_off_c, 0, 51, 100
1, 266509, Note_on_c, 0, 54, 100
1, 266605, Note_off_c, 0, 54, 100
1, 266605, Note_on_c, 0, 58, 100
1, 266717, Note_off_c, 0, 58, 100
1, 266717, Note_on_c, 0, 60, 100
1, 266781, Note_off_c, 0, 60, 100
1, 266781, Note_on_c, 0, 67, 100
1, 266909, Note_off_c, 0, 67, 100
1, 266909, Note_on_c, 0, 67, 100
1, 267037, Note_off_c, 0, 67, 100
1, 267037, Note_on_c, 0, 63, 100
1, 267101, Note_off_c, 0, 63, 100
1, 267101, Note_on_c, 0, 68, 100
1, 267165, Note_off_c, 0, 68, 100
1, 267165, Note_on_c, 0, 62, 100
1, 267261, Note_off_c, 0, 62, 100
1, 267485, Note_on_c, 0, 71, 100
1, 267549, Note_off_c, 0, 71, 100
1, 267549, Note_on_c, 0, 66, 100
1, 267645, Note_off_c, 0, 66, 100
1, 267853, Note_on_c, 0, 71, 100
1, 267949, Note_off_c, 0, 71, 100
1, 267949, Note_on_c, 0, 72, 100
1, 268045, Note_off_c, 0, 72, 100
1, 268381, Note_on_c, 0, 71, 100
1, 268477, Note_off_c, 0, 71, 100
1, 268765, Note_on_c, 0, 67, 100
1, 268861, Note_off_c, 0, 67, 100
1, 268861, Note_on_c, 0, 62, 100
1, 268957, Note_off_c, 0, 62, 100
1, 268957, Note_on_c, 0, 67, 100
1, 269005, Note_off_c, 0, 67, 100
1, 269005, Note_on_c, 0, 71, 100
1, 269053, Note_off_c, 0, 71, 100
1, 269053, Note_on_c, 0, 70, 100
1, 269101, Note_off_c, 0, 70, 100
1, 269101, Note_on_c, 0, 67, 100
1, 269197, Note_off_c, 0, 67, 100
1, 269533, Note_on_c, 0, 60, 100
1, 269597, Note_off_c, 0, 60, 100
1, 269597, Note_on_c, 0, 65, 100
1, 269661, Note_off_c, 0, 65, 100
1, 269661, Note_on_c, 0, 69, 100
1, 269773, Note_off_c, 0, 69, 100
1, 269773, Note_on_c, 0, 71, 100
1, 269869, Note_off_c, 0, 71, 100
1, 269869, Note_on_c, 0, 62, 100
1, 269981, Note_off_c, 0, 62, 100
1, 269981, Note_on_c, 0, 67, 100
1, 270173, Note_off_c, 0, 67, 100
1, 270173, Note_on_c, 0, 71, 100
1, 270237, Note_off_c, 0, 71, 100
1, 270237, Note_on_c, 0, 67, 100
1, 270333, Note_off_c, 0, 67, 100
1, 270637, Note_on_c, 0, 62, 100
1, 270685, Note_off_c, 0, 62, 100
1, 270685, Note_on_c, 0, 67, 100
1, 270781, Note_off_c, 0, 67, 100
1, 270781, Note_on_c, 0, 71, 100
1, 270941, Note_off_c, 0, 71, 100
1, 270941, Note_on_c, 0, 62, 100
1, 271037, Note_off_c, 0, 62, 100
1, 271261, Note_on_c, 0, 60, 100
1, 271325, Note_off_c, 0, 60, 100
1, 271325, Note_on_c, 0, 67, 100
1, 271389, Note_off_c, 0, 67, 100
1, 271389, Note_on_c, 0, 69, 100
1, 271453, Note_off_c, 0, 69, 100
1, 271453, Note_on_c, 0, 66, 100
1, 271645, Note_off_c, 0, 66, 100
1, 271981, Note_on_c, 0, 62, 100
1, 272093, Note_off_c, 0, 62, 100
1, 272093, Note_on_c, 0, 67, 100
1, 272157, Note_off_c, 0, 67, 100
1, 272157, Note_on_c, 0, 71, 100
1, 272269, Note_off_c, 0, 71, 100
1, 272269, Note_on_c, 0, 67, 100
1, 272413, Note_off_c, 0, 67, 100
1, 272413, Note_on_c, 0, 65, 100
1, 272477, Note_off_c, 0, 65, 100
1, 272477, Note_on_c, 0, 69, 100
1, 272541, Note_off_c, 0, 69, 100
1, 272541, Note_on_c, 0, 68, 100
1, 272605, Note_off_c, 0, 68, 100
1, 272605, Note_on_c, 0, 62, 100
1, 272701, Note_off_c, 0, 62, 100
1, 273085, Note_on_c, 0, 71, 100
1, 273277, Note_off_c, 0, 71, 100
1, 273277, Note_on_c, 0, 62, 100
1, 273373, Note_off_c, 0, 62, 100
1, 273373, Note_on_c, 0, 67, 100
1, 273565, Note_off_c, 0, 67, 100
1, 273565, Note_on_c, 0, 71, 100
1, 273757, Note_off_c, 0, 71, 100
1, 273757, Note_on_c, 0, 67, 100
1, 273949, Note_off_c, 0, 67, 100
1, 273949, Note_on_c, 0, 71, 100
1, 273997, Note_off_c, 0, 71, 100
1, 273997, Note_on_c, 0, 70, 100
1, 274045, Note_off_c, 0, 70, 100
1, 274045, Note_on_c, 0, 67, 100
1, 274141, Note_off_c, 0, 67, 100
1, 274141, Note_on_c, 0, 65, 100
1, 274333, Note_off_c, 0, 65, 100
1, 274333, Note_on_c, 0, 69, 100
1, 274381, Note_off_c, 0, 69, 100
1, 274381, Note_on_c, 0, 67, 100
1, 274477, Note_off_c, 0, 67, 100
1, 274477, Note_on_c, 0, 65, 100
1, 274621, Note_off_c, 0, 65, 100
1, 274621, Note_on_c, 0, 69, 100
1, 274765, Note_off_c, 0, 69, 100
1, 274765, Note_on_c, 0, 62, 100
1, 274861, Note_off_c, 0, 62, 100
1, 274861, Note_on_c, 0, 67, 100
1, 275005, Note_off_c, 0, 67, 100
1, 275005, Note_on_c, 0, 71, 100
1, 275245, Note_off_c, 0, 71, 100
1, 275245, Note_on_c, 0, 67, 100
1, 275485, Note_off_c, 0, 67, 100
1, 275485, Note_on_c, 0, 71, 100
1, 275581, Note_off_c, 0, 71, 100
1, 275581, Note_on_c, 0, 67, 100
1, 275677, Note_off_c, 0, 67, 100
1, 275677, Note_on_c, 0, 69, 100
1, 275869, Note_off_c, 0, 69, 100
1, 275869, Note_on_c, 0, 72, 100
1, 276013, Note_off_c, 0, 72, 100
1, 276013, Note_on_c, 0, 69, 100
1, 276157, Note_off_c, 0, 69, 100
1, 276157, Note_on_c, 0, 72, 100
1, 276317, Note_off_c, 0, 72, 100
1, 276317, Note_on_c, 0, 62, 100
1, 276381, Note_off_c, 0, 62, 100
1, 276381, Note_on_c, 0, 67, 100
1, 276589, Note_off_c, 0, 67, 100
1, 276589, Note_on_c, 0, 71, 100
1, 276637, Note_off_c, 0, 71, 100
1, 276637, Note_on_c, 0, 69, 100
1, 276733, Note_off_c, 0, 69, 100
1, 276733, Note_on_c, 0, 62, 100
1, 276829, Note_off_c, 0, 62, 100
1, 276829, Note_on_c, 0, 67, 100
1, 276973, Note_off_c, 0, 67, 100
1, 276973, Note_on_c, 0, 71, 100
1, 277069, Note_off_c, 0, 71, 100
1, 277069, Note_on_c, 0, 67, 100
1, 277165, Note_off_c, 0, 67, 100
1, 277165, Note_on_c, 0, 65, 100
1, 277357, Note_off_c, 0, 65, 100
1, 277357, Note_on_c, 0, 69, 100
1, 277405, Note_off_c, 0, 69, 100
1, 277405, Note_on_c, 0, 67, 100
1, 277533, Note_off_c, 0, 67, 100
1, 277533, Note_on_c, 0, 65, 100
1, 277645, Note_off_c, 0, 65, 100
1, 277645, Note_on_c, 0, 60, 100
1, 277741, Note_off_c, 0, 60, 100
1, 277741, Note_on_c, 0, 57, 100
1, 277789, Note_off_c, 0, 57, 100
1, 277789, Note_on_c, 0, 53, 100
1, 277885, Note_off_c, 0, 53, 100
1, 278845, Note_on_c, 0, 62, 100
1, 278941, Note_off_c, 0, 62, 100
1, 278941, Note_on_c, 0, 59, 100
1, 278989, Note_off_c, 0, 59, 100
1, 278989, Note_on_c, 0, 55, 100
1, 279085, Note_off_c, 0, 55, 100
1, 279085, Note_on_c, 0, 53, 100
1, 279197, Note_off_c, 0, 53, 100
1, 279197, Note_on_c, 0, 52, 100
1, 279293, Note_off_c, 0, 52, 100
1, 279997, Note_on_c, 0, 62, 100
1, 280093, Note_off_c, 0, 62, 100
1, 280093, Note_on_c, 0, 59, 100
1, 280141, Note_off_c, 0, 59, 100
1, 280141, Note_on_c, 0, 55, 100
1, 280237, Note_off_c, 0, 55, 100
1, 280237, Note_on_c, 0, 53, 100
1, 280349, Note_off_c, 0, 53, 100
1, 280349, Note_on_c, 0, 52, 100
1, 280573, Note_off_c, 0, 52, 100
1, 280573, Note_on_c, 0, 52, 100
1, 280717, Note_off_c, 0, 52, 100
1, 280717, Note_on_c, 0, 53, 100
1, 280813, Note_off_c, 0, 53, 100
1, 280813, Note_on_c, 0, 57, 100
1, 280861, Note_off_c, 0, 57, 100
1, 280861, Note_on_c, 0, 60, 100
1, 280957, Note_off_c, 0, 60, 100
1, 280957, Note_on_c, 0, 55, 100
1, 281053, Note_off_c, 0, 55, 100
1, 281389, Note_on_c, 0, 55, 100
1, 281533, Note_off_c, 0, 55, 100
1, 281533, Note_on_c, 0, 57, 100
1, 281693, Note_off_c, 0, 57, 100
1, 281693, Note_on_c, 0, 62, 100
1, 281757, Note_off_c, 0, 62, 100
1, 281757, Note_on_c, 0, 68, 100
1, 281821, Note_off_c, 0, 68, 100
1, 281821, Note_on_c, 0, 67, 100
1, 281917, Note_off_c, 0, 67, 100
1, 281917, Note_on_c, 0, 68, 100
1, 282077, Note_off_c, 0, 68, 100
1, 282077, Note_on_c, 0, 65, 100
1, 282141, Note_off_c, 0, 65, 100
1, 282141, Note_on_c, 0, 64, 100
1, 282333, Note_off_c, 0, 64, 100
1, 282541, Note_on_c, 0, 64, 100
1, 282653, Note_off_c, 0, 64, 100
1, 282653, Note_on_c, 0, 65, 100
1, 282717, Note_off_c, 0, 65, 100
1, 282717, Note_on_c, 0, 67, 100
1, 282829, Note_off_c, 0, 67, 100
1, 282829, Note_on_c, 0, 69, 100
1, 282877, Note_off_c, 0, 69, 100
1, 282877, Note_on_c, 0, 66, 100
1, 282925, Note_off_c, 0, 66, 100
1, 282925, Note_on_c, 0, 62, 100
1, 283021, Note_off_c, 0, 62, 100
1, 283021, Note_on_c, 0, 64, 100
1, 283117, Note_off_c, 0, 64, 100
1, 283117, Note_on_c, 0, 65, 100
1, 283165, Note_off_c, 0, 65, 100
1, 283165, Note_on_c, 0, 61, 100
1, 283261, Note_off_c, 0, 61, 100
1, 283261, Note_on_c, 0, 62, 100
1, 283357, Note_off_c, 0, 62, 100
1, 283741, Note_on_c, 0, 60, 100
1, 283837, Note_off_c, 0, 60, 100
1, 283837, Note_on_c, 0, 62, 100
1, 283933, Note_off_c, 0, 62, 100
1, 283933, Note_on_c, 0, 64, 100
1, 284029, Note_off_c, 0, 64, 100
1, 284029, Note_on_c, 0, 60, 100
1, 284125, Note_off_c, 0, 60, 100
1, 284125, Note_on_c, 0, 62, 100
1, 284221, Note_off_c, 0, 62, 100
1, 284221, Note_on_c, 0, 64, 100
1, 284317, Note_off_c, 0, 64, 100
1, 284317, Note_on_c, 0, 65, 100
1, 284381, Note_off_c, 0, 65, 100
1, 284381, Note_on_c, 0, 67, 100
1, 284445, Note_off_c, 0, 67, 100
1, 284445, Note_on_c, 0, 64, 100
1, 284573, Note_off_c, 0, 64, 100
1, 284573, Note_on_c, 0, 65, 100
1, 284637, Note_off_c, 0, 65, 100
1, 284637, Note_on_c, 0, 69, 100
1, 284797, Note_off_c, 0, 69, 100
1, 284797, Note_on_c, 0, 72, 100
1, 284893, Note_off_c, 0, 72, 100
1, 284893, Note_on_c, 0, 64, 100
1, 284989, Note_off_c, 0, 64, 100
1, 285277, Note_on_c, 0, 64, 100
1, 285373, Note_off_c, 0, 64, 100
1, 285373, Note_on_c, 0, 65, 100
1, 285469, Note_off_c, 0, 65, 100
1, 285469, Note_on_c, 0, 69, 100
1, 285565, Note_off_c, 0, 69, 100
1, 285565, Note_on_c, 0, 71, 100
1, 285661, Note_off_c, 0, 71, 100
1, 285661, Note_on_c, 0, 65, 100
1, 285757, Note_off_c, 0, 65, 100
1, 285757, Note_on_c, 0, 66, 100
1, 285853, Note_off_c, 0, 66, 100
1, 285853, Note_on_c, 0, 68, 100
1, 285949, Note_off_c, 0, 68, 100
1, 285949, Note_on_c, 0, 70, 100
1, 285997, Note_off_c, 0, 70, 100
1, 285997, Note_on_c, 0, 69, 100
1, 286045, Note_off_c, 0, 69, 100
1, 286045, Note_on_c, 0, 63, 100
1, 286141, Note_off_c, 0, 63, 100
1, 286141, Note_on_c, 0, 65, 100
1, 286237, Note_off_c, 0, 65, 100
1, 286237, Note_on_c, 0, 61, 100
1, 286333, Note_off_c, 0, 61, 100
1, 286333, Note_on_c, 0, 60, 100
1, 286429, Note_off_c, 0, 60, 100
1, 286765, Note_on_c, 0, 60, 100
1, 286877, Note_off_c, 0, 60, 100
1, 286877, Note_on_c, 0, 61, 100
1, 286941, Note_off_c, 0, 61, 100
1, 286941, Note_on_c, 0, 63, 100
1, 287005, Note_off_c, 0, 63, 100
1, 287005, Note_on_c, 0, 65, 100
1, 287101, Note_off_c, 0, 65, 100
1, 287101, Note_on_c, 0, 63, 100
1, 287245, Note_off_c, 0, 63, 100
1, 287245, Note_on_c, 0, 62, 100
1, 287341, Note_off_c, 0, 62, 100
1, 287341, Note_on_c, 0, 61, 100
1, 287453, Note_off_c, 0, 61, 100
1, 287453, Note_on_c, 0, 60, 100
1, 287517, Note_off_c, 0, 60, 100
1, 287517, Note_on_c, 0, 58, 100
1, 287613, Note_off_c, 0, 58, 100
1, 287917, Note_on_c, 0, 58, 100
1, 288029, Note_off_c, 0, 58, 100
1, 288029, Note_on_c, 0, 53, 100
1, 288157, Note_off_c, 0, 53, 100
1, 288157, Note_on_c, 0, 54, 100
1, 288205, Note_off_c, 0, 54, 100
1, 288205, Note_on_c, 0, 56, 100
1, 288301, Note_off_c, 0, 56, 100
1, 288301, Note_on_c, 0, 58, 100
1, 288397, Note_off_c, 0, 58, 100
1, 288685, Note_on_c, 0, 58, 100
1, 288781, Note_off_c, 0, 58, 100
1, 288781, Note_on_c, 0, 57, 100
1, 288877, Note_off_c, 0, 57, 100
1, 288877, Note_on_c, 0, 58, 100
1, 288973, Note_off_c, 0, 58, 100
1, 288973, Note_on_c, 0, 60, 100
1, 289069, Note_off_c, 0, 60, 100
1, 289069, Note_on_c, 0, 61, 100
1, 289213, Note_off_c, 0, 61, 100
1, 289213, Note_on_c, 0, 63, 100
1, 289309, Note_off_c, 0, 63, 100
1, 289309, Note_on_c, 0, 65, 100
1, 289357, Note_off_c, 0, 65, 100
1, 289357, Note_on_c, 0, 60, 100
1, 289453, Note_off_c, 0, 60, 100
1, 289453, Note_on_c, 0, 63, 100
1, 289549, Note_off_c, 0, 63, 100
1, 289885, Note_on_c, 0, 63, 100
1, 290029, Note_off_c, 0, 63, 100
1, 290029, Note_on_c, 0, 65, 100
1, 290141, Note_off_c, 0, 65, 100
1, 290141, Note_on_c, 0, 67, 100
1, 290205, Note_off_c, 0, 67, 100
1, 290205, Note_on_c, 0, 68, 100
1, 290269, Note_off_c, 0, 68, 100
1, 290269, Note_on_c, 0, 70, 100
1, 290333, Note_off_c, 0, 70, 100
1, 290333, Note_on_c, 0, 72, 100
1, 290397, Note_off_c, 0, 72, 100
1, 290397, Note_on_c, 0, 71, 100
1, 290461, Note_off_c, 0, 71, 100
1, 290461, Note_on_c, 0, 68, 100
1, 290509, Note_off_c, 0, 68, 100
1, 290509, Note_on_c, 0, 66, 100
1, 290605, Note_off_c, 0, 66, 100
1, 290605, Note_on_c, 0, 65, 100
1, 290701, Note_off_c, 0, 65, 100
1, 291037, Note_on_c, 0, 65, 100
1, 291133, Note_off_c, 0, 65, 100
1, 291133, Note_on_c, 0, 66, 100
1, 291229, Note_off_c, 0, 66, 100
1, 291229, Note_on_c, 0, 68, 100
1, 291325, Note_off_c, 0, 68, 100
1, 291325, Note_on_c, 0, 70, 100
1, 291373, Note_off_c, 0, 70, 100
1, 291373, Note_on_c, 0, 66, 100
1, 291469, Note_off_c, 0, 66, 100
1, 291805, Note_on_c, 0, 66, 100
1, 291901, Note_off_c, 0, 66, 100
1, 291901, Note_on_c, 0, 69, 100
1, 291997, Note_off_c, 0, 69, 100
1, 291997, Note_on_c, 0, 70, 100
1, 292045, Note_off_c, 0, 70, 100
1, 292045, Note_on_c, 0, 72, 100
1, 292141, Note_off_c, 0, 72, 100
1, 292141, Note_on_c, 0, 70, 100
1, 292189, Note_off_c, 0, 70, 100
1, 292189, Note_on_c, 0, 69, 100
1, 292237, Note_off_c, 0, 69, 100
1, 292237, Note_on_c, 0, 67, 100
1, 292333, Note_off_c, 0, 67, 100
1, 292333, Note_on_c, 0, 65, 100
1, 292429, Note_off_c, 0, 65, 100
1, 292429, Note_on_c, 0, 64, 100
1, 292525, Note_off_c, 0, 64, 100
1, 292525, Note_on_c, 0, 65, 100
1, 292621, Note_off_c, 0, 65, 100
1, 292957, Note_on_c, 0, 65, 100
1, 293005, Note_off_c, 0, 65, 100
1, 293005, Note_on_c, 0, 64, 100
1, 293101, Note_off_c, 0, 64, 100
1, 293101, Note_on_c, 0, 65, 100
1, 293197, Note_off_c, 0, 65, 100
1, 293197, Note_on_c, 0, 61, 100
1, 293293, Note_off_c, 0, 61, 100
1, 293293, Note_on_c, 0, 62, 100
1, 293389, Note_off_c, 0, 62, 100
1, 293677, Note_on_c, 0, 62, 100
1, 293789, Note_off_c, 0, 62, 100
1, 293789, Note_on_c, 0, 61, 100
1, 293853, Note_off_c, 0, 61, 100
1, 293853, Note_on_c, 0, 62, 100
1, 293965, Note_off_c, 0, 62, 100
1, 293965, Note_on_c, 0, 64, 100
1, 294061, Note_off_c, 0, 64, 100
1, 294061, Note_on_c, 0, 65, 100
1, 294173, Note_off_c, 0, 65, 100
1, 294173, Note_on_c, 0, 62, 100
1, 294301, Note_off_c, 0, 62, 100
1, 294301, Note_on_c, 0, 59, 100
1, 294397, Note_off_c, 0, 59, 100
1, 294397, Note_on_c, 0, 58, 100
1, 294445, Note_off_c, 0, 58, 100
1, 294445, Note_on_c, 0, 57, 100
1, 294541, Note_off_c, 0, 57, 100
1, 295021, Note_on_c, 0, 57, 100
1, 295117, Note_off_c, 0, 57, 100
1, 295117, Note_on_c, 0, 59, 100
1, 295213, Note_off_c, 0, 59, 100
1, 295213, Note_on_c, 0, 61, 100
1, 295261, Note_off_c, 0, 61, 100
1, 295261, Note_on_c, 0, 62, 100
1, 295357, Note_off_c, 0, 62, 100
1, 295357, Note_on_c, 0, 64, 100
1, 295453, Note_off_c, 0, 64, 100
1, 295453, Note_on_c, 0, 66, 100
1, 295549, Note_off_c, 0, 66, 100
1, 295549, Note_on_c, 0, 62, 100
1, 295693, Note_off_c, 0, 62, 100
1, 295693, Note_on_c, 0, 60, 100
1, 295789, Note_off_c, 0, 60, 100
1, 295789, Note_on_c, 0, 59, 100
1, 295837, Note_off_c, 0, 59, 100
1, 295837, Note_on_c, 0, 55, 100
1, 295933, Note_off_c, 0, 55, 100
1, 295933, Note_on_c, 0, 57, 100
1, 296029, Note_off_c, 0, 57, 100
1, 296605, Note_on_c, 0, 53, 100
1, 296669, Note_off_c, 0, 53, 100
1, 296669, Note_on_c, 0, 55, 100
1, 296733, Note_off_c, 0, 55, 100
1, 296733, Note_on_c, 0, 57, 100
1, 297053, Note_off_c, 0, 57, 100
1, 297053, Note_on_c, 0, 59, 100
1, 297117, Note_off_c, 0, 59, 100
1, 297117, Note_on_c, 0, 60, 100
1, 297181, Note_off_c, 0, 60, 100
1, 297181, Note_on_c, 0, 62, 100
1, 297277, Note_off_c, 0, 62, 100
1, 297277, Note_on_c, 0, 64, 100
1, 297437, Note_off_c, 0, 64, 100
1, 297437, Note_on_c, 0, 60, 100
1, 297501, Note_off_c, 0, 60, 100
1, 297501, Note_on_c, 0, 62, 100
1, 297597, Note_off_c, 0, 62, 100
1, 298141, Note_on_c, 0, 62, 100
1, 298237, Note_off_c, 0, 62, 100
1, 298237, Note_on_c, 0, 65, 100
1, 298285, Note_off_c, 0, 65, 100
1, 298285, Note_on_c, 0, 69, 100
1, 298381, Note_off_c, 0, 69, 100
1, 298717, Note_on_c, 0, 68, 100
1, 298813, Note_off_c, 0, 68, 100
1, 298813, Note_on_c, 0, 72, 100
1, 298909, Note_off_c, 0, 72, 100
1, 298909, Note_on_c, 0, 71, 100
1, 299005, Note_off_c, 0, 71, 100
1, 299005, Note_on_c, 0, 69, 100
1, 299101, Note_off_c, 0, 69, 100
1, 299101, Note_on_c, 0, 67, 100
1, 299197, Note_off_c, 0, 67, 100
1, 299197, Note_on_c, 0, 65, 100
1, 299245, Note_off_c, 0, 65, 100
1, 299245, Note_on_c, 0, 67, 100
1, 299293, Note_off_c, 0, 67, 100
1, 299293, Note_on_c, 0, 69, 100
1, 299389, Note_off_c, 0, 69, 100
1, 299869, Note_on_c, 0, 62, 100
1, 299933, Note_off_c, 0, 62, 100
1, 299933, Note_on_c, 0, 65, 100
1, 299997, Note_off_c, 0, 65, 100
1, 299997, Note_on_c, 0, 69, 100
1, 300109, Note_off_c, 0, 69, 100
1, 300109, Note_on_c, 0, 72, 100
1, 300205, Note_off_c, 0, 72, 100
1, 300205, Note_on_c, 0, 67, 100
1, 300301, Note_off_c, 0, 67, 100
1, 300301, Note_on_c, 0, 69, 100
1, 300397, Note_off_c, 0, 69, 100
1, 300397, Note_on_c, 0, 71, 100
1, 300445, Note_off_c, 0, 71, 100
1, 300445, Note_on_c, 0, 67, 100
1, 300637, Note_off_c, 0, 67, 100
1, 300637, Note_on_c, 0, 65, 100
1, 300925, Note_off_c, 0, 65, 100
1, 300925, Note_on_c, 0, 65, 100
1, 301069, Note_off_c, 0, 65, 100
1, 301069, Note_on_c, 0, 67, 100
1, 301165, Note_off_c, 0, 67, 100
1, 301165, Note_on_c, 0, 69, 100
1, 301213, Note_off_c, 0, 69, 100
1, 301213, Note_on_c, 0, 71, 100
1, 301309, Note_off_c, 0, 71, 100
1, 301309, Note_on_c, 0, 64, 100
1, 301469, Note_off_c, 0, 64, 100
1, 301469, Note_on_c, 0, 65, 100
1, 301533, Note_off_c, 0, 65, 100
1, 301533, Note_on_c, 0, 67, 100
1, 301645, Note_off_c, 0, 67, 100
1, 301645, Note_on_c, 0, 69, 100
1, 301741, Note_off_c, 0, 69, 100
1, 301741, Note_on_c, 0, 62, 100
1, 301837, Note_off_c, 0, 62, 100
1, 302125, Note_on_c, 0, 62, 100
1, 302269, Note_off_c, 0, 62, 100
1, 302269, Note_on_c, 0, 64, 100
1, 302317, Note_off_c, 0, 64, 100
1, 302317, Note_on_c, 0, 65, 100
1, 302365, Note_off_c, 0, 65, 100
1, 302365, Note_on_c, 0, 66, 100
1, 302605, Note_off_c, 0, 66, 100
1, 302605, Note_on_c, 0, 68, 100
1, 302701, Note_off_c, 0, 68, 100
1, 302701, Note_on_c, 0, 64, 100
1, 302845, Note_off_c, 0, 64, 100
1, 302845, Note_on_c, 0, 60, 100
1, 302941, Note_off_c, 0, 60, 100
1, 302941, Note_on_c, 0, 62, 100
1, 303005, Note_off_c, 0, 62, 100
1, 303005, Note_on_c, 0, 60, 100
1, 303069, Note_off_c, 0, 60, 100
1, 303069, Note_on_c, 0, 59, 100
1, 303229, Note_off_c, 0, 59, 100
1, 303229, Note_on_c, 0, 55, 100
1, 303325, Note_off_c, 0, 55, 100
1, 303325, Note_on_c, 0, 57, 100
1, 303421, Note_off_c, 0, 57, 100
1, 303421, Note_on_c, 0, 53, 100
1, 303517, Note_off_c, 0, 53, 100
1, 303517, Note_on_c, 0, 50, 100
1, 303613, Note_off_c, 0, 50, 100
1, 303613, Note_on_c, 0, 55, 100
1, 303709, Note_off_c, 0, 55, 100
1, 303709, Note_on_c, 0, 53, 100
1, 303805, Note_off_c, 0, 53, 100
1, 303805, Note_on_c, 0, 50, 100
1, 303901, Note_off_c, 0, 50, 100
1, 304189, Note_on_c, 0, 72, 100
1, 304285, Note_off_c, 0, 72, 100
1, 304285, Note_on_c, 0, 71, 100
1, 304381, Note_off_c, 0, 71, 100
1, 304381, Note_on_c, 0, 69, 100
1, 304477, Note_off_c, 0, 69, 100
1, 304477, Note_on_c, 0, 67, 100
1, 304669, Note_off_c, 0, 67, 100
1, 305149, Note_on_c, 0, 67, 100
1, 305245, Note_off_c, 0, 67, 100
1, 305245, Note_on_c, 0, 69, 100
1, 305341, Note_off_c, 0, 69, 100
1, 305341, Note_on_c, 0, 71, 100
1, 305485, Note_off_c, 0, 71, 100
1, 305485, Note_on_c, 0, 67, 100
1, 305581, Note_off_c, 0, 67, 100
1, 305581, Note_on_c, 0, 65, 100
1, 305693, Note_off_c, 0, 65, 100
1, 305693, Note_on_c, 0, 67, 100
1, 305757, Note_off_c, 0, 67, 100
1, 305757, Note_on_c, 0, 69, 100
1, 305885, Note_off_c, 0, 69, 100
1, 305885, Note_on_c, 0, 65, 100
1, 305949, Note_off_c, 0, 65, 100
1, 305949, Note_on_c, 0, 62, 100
1, 306045, Note_off_c, 0, 62, 100
1, 306589, Note_on_c, 0, 66, 100
1, 306685, Note_off_c, 0, 66, 100
1, 306685, Note_on_c, 0, 67, 100
1, 307037, Note_off_c, 0, 67, 100
1, 307037, Note_on_c, 0, 62, 100
1, 307101, Note_off_c, 0, 62, 100
1, 307101, Note_on_c, 0, 67, 100
1, 307165, Note_off_c, 0, 67, 100
1, 307165, Note_on_c, 0, 69, 100
1, 307261, Note_off_c, 0, 69, 100
1, 307261, Note_on_c, 0, 72, 100
1, 307405, Note_off_c, 0, 72, 100
1, 307405, Note_on_c, 0, 71, 100
1, 307501, Note_off_c, 0, 71, 100
1, 307501, Note_on_c, 0, 60, 100
1, 307613, Note_off_c, 0, 60, 100
1, 307613, Note_on_c, 0, 65, 100
1, 307677, Note_off_c, 0, 65, 100
1, 307677, Note_on_c, 0, 69, 100
1, 307805, Note_off_c, 0, 69, 100
1, 307805, Note_on_c, 0, 72, 100
1, 307869, Note_off_c, 0, 72, 100
1, 307869, Note_on_c, 0, 70, 100
1, 307933, Note_off_c, 0, 70, 100
1, 307933, Note_on_c, 0, 69, 100
1, 307981, Note_off_c, 0, 69, 100
1, 307981, Note_on_c, 0, 71, 100
1, 308077, Note_off_c, 0, 71, 100
1, 308653, Note_on_c, 0, 70, 100
1, 308701, Note_off_c, 0, 70, 100
1, 308701, Note_on_c, 0, 71, 100
1, 308749, Note_off_c, 0, 71, 100
1, 308749, Note_on_c, 0, 72, 100
1, 308797, Note_off_c, 0, 72, 100
1, 308797, Note_on_c, 0, 74, 100
1, 309085, Note_off_c, 0, 74, 100
1, 309085, Note_on_c, 0, 71, 100
1, 309181, Note_off_c, 0, 71, 100
1, 309181, Note_on_c, 0, 74, 100
1, 309373, Note_off_c, 0, 74, 100
1, 309373, Note_on_c, 0, 71, 100
1, 309469, Note_off_c, 0, 71, 100
1, 309469, Note_on_c, 0, 74, 100
1, 309661, Note_off_c, 0, 74, 100
1, 309661, Note_on_c, 0, 71, 100
1, 309757, Note_off_c, 0, 71, 100
1, 309757, Note_on_c, 0, 62, 100
1, 309853, Note_off_c, 0, 62, 100
1, 309853, Note_on_c, 0, 65, 100
1, 310045, Note_off_c, 0, 65, 100
1, 310573, Note_on_c, 0, 72, 100
1, 310717, Note_off_c, 0, 72, 100
1, 310717, Note_on_c, 0, 75, 100
1, 310909, Note_off_c, 0, 75, 100
1, 310909, Note_on_c, 0, 75, 100
1, 311389, Note_off_c, 0, 75, 100
1, 311389, Note_on_c, 0, 70, 100
1, 311533, Note_off_c, 0, 70, 100
1, 311533, Note_on_c, 0, 81, 100
1, 311581, Note_off_c, 0, 81, 100
1, 311581, Note_on_c, 0, 82, 100
1, 311677, Note_off_c, 0, 82, 100
1, 312109, Note_on_c, 0, 72, 100
1, 312221, Note_off_c, 0, 72, 100
1, 312221, Note_on_c, 0, 75, 100
1, 312445, Note_off_c, 0, 75, 100
1, 312445, Note_on_c, 0, 75, 100
1, 312733, Note_off_c, 0, 75, 100
1, 312733, Note_on_c, 0, 72, 100
1, 312781, Note_off_c, 0, 72, 100
1, 312781, Note_on_c, 0, 73, 100
1, 312877, Note_off_c, 0, 73, 100
1, 312877, Note_on_c, 0, 68, 100
1, 313069, Note_off_c, 0, 68, 100
1, 313789, Note_on_c, 0, 75, 100
1, 313981, Note_off_c, 0, 75, 100
1, 313981, Note_on_c, 0, 75, 100
1, 314317, Note_off_c, 0, 75, 100
1, 314317, Note_on_c, 0, 74, 100
1, 314365, Note_off_c, 0, 74, 100
1, 314365, Note_on_c, 0, 73, 100
1, 314413, Note_off_c, 0, 73, 100
1, 314413, Note_on_c, 0, 72, 100
1, 314653, Note_off_c, 0, 72, 100
1, 314653, Note_on_c, 0, 75, 100
1, 314749, Note_off_c, 0, 75, 100
1, 315037, Note_on_c, 0, 82, 100
1, 315085, Note_off_c, 0, 82, 100
1, 315085, Note_on_c, 0, 83, 100
1, 315229, Note_off_c, 0, 83, 100
1, 315229, Note_on_c, 0, 75, 100
1, 315565, Note_off_c, 0, 75, 100
1, 315565, Note_on_c, 0, 75, 100
1, 315805, Note_off_c, 0, 75, 100
1, 315805, Note_on_c, 0, 72, 100
1, 315853, Note_off_c, 0, 72, 100
1, 315853, Note_on_c, 0, 73, 100
1, 315949, Note_off_c, 0, 73, 100
1, 315949, Note_on_c, 0, 68, 100
1, 316237, Note_off_c, 0, 68, 100
1, 316861, Note_on_c, 0, 75, 100
1, 317053, Note_off_c, 0, 75, 100
1, 317053, Note_on_c, 0, 74, 100
1, 317437, Note_off_c, 0, 74, 100
1, 317437, Note_on_c, 0, 72, 100
1, 317533, Note_off_c, 0, 72, 100
1, 317533, Note_on_c, 0, 71, 100
1, 317725, Note_off_c, 0, 71, 100
1, 317725, Note_on_c, 0, 74, 100
1, 317821, Note_off_c, 0, 74, 100
1, 318301, Note_on_c, 0, 74, 100
1, 318445, Note_off_c, 0, 74, 100
1, 318445, Note_on_c, 0, 74, 100
1, 318589, Note_off_c, 0, 74, 100
1, 318589, Note_on_c, 0, 81, 100
1, 318637, Note_off_c, 0, 81, 100
1, 318637, Note_on_c, 0, 82, 100
1, 318877, Note_off_c, 0, 82, 100
1, 318877, Note_on_c, 0, 71, 100
1, 318973, Note_off_c, 0, 71, 100
1, 318973, Note_on_c, 0, 62, 100
1, 319021, Note_off_c, 0, 62, 100
1, 319021, Note_on_c, 0, 65, 100
1, 319213, Note_off_c, 0, 65, 100
1, 319741, Note_on_c, 0, 66, 100
1, 319837, Note_off_c, 0, 66, 100
1, 320029, Note_on_c, 0, 80, 100
1, 320125, Note_off_c, 0, 80, 100
1, 320125, Note_on_c, 0, 74, 100
1, 320509, Note_off_c, 0, 74, 100
1, 320509, Note_on_c, 0, 73, 100
1, 320557, Note_off_c, 0, 73, 100
1, 320557, Note_on_c, 0, 71, 100
1, 320749, Note_off_c, 0, 71, 100
1, 320749, Note_on_c, 0, 74, 100
1, 320845, Note_off_c, 0, 74, 100
1, 321373, Note_on_c, 0, 74, 100
1, 321469, Note_off_c, 0, 74, 100
1, 321469, Note_on_c, 0, 75, 100
1, 321565, Note_off_c, 0, 75, 100
1, 321565, Note_on_c, 0, 74, 100
1, 321901, Note_off_c, 0, 74, 100
1, 321901, Note_on_c, 0, 71, 100
1, 322093, Note_off_c, 0, 71, 100
1, 322093, Note_on_c, 0, 67, 100
1, 322285, Note_off_c, 0, 67, 100
1, 323389, Note_on_c, 0, 68, 100
1, 323485, Note_off_c, 0, 68, 100
1, 323485, Note_on_c, 0, 69, 100
1, 324397, Note_off_c, 0, 69, 100
1, 324397, Note_on_c, 0, 68, 100
1, 324445, Note_off_c, 0, 68, 100
1, 324445, Note_on_c, 0, 69, 100
1, 324733, Note_off_c, 0, 69, 100
1, 324733, Note_on_c, 0, 69, 100
1, 325117, Note_off_c, 0, 69, 100
1, 325117, Note_on_c, 0, 70, 100
1, 325213, Note_off_c, 0, 70, 100
1, 325213, Note_on_c, 0, 69, 100
1, 325309, Note_off_c, 0, 69, 100
1, 325309, Note_on_c, 0, 65, 100
1, 325357, Note_off_c, 0, 65, 100
1, 325357, Note_on_c, 0, 62, 100
1, 325501, Note_off_c, 0, 62, 100
1, 325501, Note_on_c, 0, 59, 100
1, 325597, Note_off_c, 0, 59, 100
1, 325597, Note_on_c, 0, 68, 100
1, 325741, Note_off_c, 0, 68, 100
1, 325741, Note_on_c, 0, 67, 100
1, 325885, Note_off_c, 0, 67, 100
1, 325885, Note_on_c, 0, 71, 100
1, 325933, Note_off_c, 0, 71, 100
1, 325933, Note_on_c, 0, 69, 100
1, 326077, Note_off_c, 0, 69, 100
1, 326077, Note_on_c, 0, 66, 100
1, 326173, Note_off_c, 0, 66, 100
1, 326173, Note_on_c, 0, 65, 100
1, 326221, Note_off_c, 0, 65, 100
1, 326221, Note_on_c, 0, 64, 100
1, 326317, Note_off_c, 0, 64, 100
1, 326317, Note_on_c, 0, 63, 100
1, 326413, Note_off_c, 0, 63, 100
1, 326413, Note_on_c, 0, 65, 100
1, 326461, Note_off_c, 0, 65, 100
1, 326461, Note_on_c, 0, 66, 100
1, 326557, Note_off_c, 0, 66, 100
1, 326557, Note_on_c, 0, 67, 100
1, 326605, Note_off_c, 0, 67, 100
1, 326605, Note_on_c, 0, 70, 100
1, 326701, Note_off_c, 0, 70, 100
1, 326701, Note_on_c, 0, 71, 100
1, 326749, Note_off_c, 0, 71, 100
1, 326749, Note_on_c, 0, 64, 100
1, 326845, Note_off_c, 0, 64, 100
1, 326845, Note_on_c, 0, 66, 100
1, 326941, Note_off_c, 0, 66, 100
1, 326941, Note_on_c, 0, 68, 100
1, 327037, Note_off_c, 0, 68, 100
1, 327037, Note_on_c, 0, 70, 100
1, 327133, Note_off_c, 0, 70, 100
1, 327133, Note_on_c, 0, 66, 100
1, 327229, Note_off_c, 0, 66, 100
1, 327229, Note_on_c, 0, 63, 100
1, 327325, Note_off_c, 0, 63, 100
1, 327325, Note_on_c, 0, 59, 100
1, 327373, Note_off_c, 0, 59, 100
1, 327373, Note_on_c, 0, 58, 100
1, 327469, Note_off_c, 0, 58, 100
1, 327469, Note_on_c, 0, 57, 100
1, 327581, Note_off_c, 0, 57, 100
1, 327581, Note_on_c, 0, 56, 100
1, 327645, Note_off_c, 0, 56, 100
1, 327645, Note_on_c, 0, 55, 100
1, 327773, Note_off_c, 0, 55, 100
1, 327773, Note_on_c, 0, 59, 100
1, 327837, Note_off_c, 0, 59, 100
1, 327837, Note_on_c, 0, 57, 100
1, 327901, Note_off_c, 0, 57, 100
1, 327901, Note_on_c, 0, 62, 100
1, 328029, Note_off_c, 0, 62, 100
1, 328029, Note_on_c, 0, 65, 100
1, 328157, Note_off_c, 0, 65, 100
1, 328157, Note_on_c, 0, 69, 100
1, 328221, Note_off_c, 0, 69, 100
1, 328221, Note_on_c, 0, 74, 100
1, 328285, Note_off_c, 0, 74, 100
1, 328285, Note_on_c, 0, 72, 100
1, 328381, Note_off_c, 0, 72, 100
1, 329629, Note_on_c, 0, 69, 100
1, 329917, Note_off_c, 0, 69, 100
1, 329917, Note_on_c, 0, 67, 100
1, 330013, Note_off_c, 0, 67, 100
1, 330013, Note_on_c, 0, 65, 100
1, 330109, Note_off_c, 0, 65, 100
1, 330109, Note_on_c, 0, 62, 100
1, 330301, Note_off_c, 0, 62, 100
1, 330301, Note_on_c, 0, 59, 100
1, 330397, Note_off_c, 0, 59, 100
1, 331165, Note_on_c, 0, 57, 100
1, 331597, Note_off_c, 0, 57, 100
1, 331597, Note_on_c, 0, 55, 100
1, 331645, Note_off_c, 0, 55, 100
1, 331645, Note_on_c, 0, 53, 100
1, 331837, Note_off_c, 0, 53, 100
1, 332077, Note_on_c, 0, 61, 100
1, 332189, Note_off_c, 0, 61, 100
1, 332189, Note_on_c, 0, 60, 100
1, 332253, Note_off_c, 0, 60, 100
1, 332253, Note_on_c, 0, 59, 100
1, 332317, Note_off_c, 0, 59, 100
1, 332317, Note_on_c, 0, 58, 100
1, 332413, Note_off_c, 0, 58, 100
1, 332413, Note_on_c, 0, 57, 100
1, 332557, Note_off_c, 0, 57, 100
1, 332557, Note_on_c, 0, 56, 100
1, 332653, Note_off_c, 0, 56, 100
1, 332653, Note_on_c, 0, 55, 100
1, 332749, Note_off_c, 0, 55, 100
1, 332749, Note_on_c, 0, 58, 100
1, 332797, Note_off_c, 0, 58, 100
1, 332797, Note_on_c, 0, 59, 100
1, 332845, Note_off_c, 0, 59, 100
1, 332845, Note_on_c, 0, 57, 100
1, 332957, Note_off_c, 0, 57, 100
1, 332957, Note_on_c, 0, 62, 100
1, 333085, Note_off_c, 0, 62, 100
1, 333085, Note_on_c, 0, 65, 100
1, 333149, Note_off_c, 0, 65, 100
1, 333149, Note_on_c, 0, 69, 100
1, 333213, Note_off_c, 0, 69, 100
1, 333213, Note_on_c, 0, 72, 100
1, 333325, Note_off_c, 0, 72, 100
1, 333325, Note_on_c, 0, 72, 100
1, 333421, Note_off_c, 0, 72, 100
1, 333421, Note_on_c, 0, 69, 100
1, 333469, Note_off_c, 0, 69, 100
1, 333469, Note_on_c, 0, 72, 100
1, 333565, Note_off_c, 0, 72, 100
1, 333565, Note_on_c, 0, 67, 100
1, 333661, Note_off_c, 0, 67, 100
1, 334429, Note_on_c, 0, 67, 100
1, 334669, Note_off_c, 0, 67, 100
1, 334669, Note_on_c, 0, 63, 100
1, 334765, Note_off_c, 0, 63, 100
1, 334765, Note_on_c, 0, 68, 100
1, 334861, Note_off_c, 0, 68, 100
1, 334861, Note_on_c, 0, 66, 100
1, 334957, Note_off_c, 0, 66, 100
1, 334957, Note_on_c, 0, 63, 100
1, 335053, Note_off_c, 0, 63, 100
1, 335053, Note_on_c, 0, 58, 100
1, 335149, Note_off_c, 0, 58, 100
1, 335149, Note_on_c, 0, 66, 100
1, 335197, Note_off_c, 0, 66, 100
1, 335197, Note_on_c, 0, 65, 100
1, 335293, Note_off_c, 0, 65, 100
1, 335533, Note_on_c, 0, 60, 100
1, 335629, Note_off_c, 0, 60, 100
1, 335629, Note_on_c, 0, 65, 100
1, 335725, Note_off_c, 0, 65, 100
1, 335725, Note_on_c, 0, 68, 100
1, 335821, Note_off_c, 0, 68, 100
1, 335821, Note_on_c, 0, 70, 100
1, 335917, Note_off_c, 0, 70, 100
1, 335917, Note_on_c, 0, 68, 100
1, 335965, Note_off_c, 0, 68, 100
1, 335965, Note_on_c, 0, 62, 100
1, 336061, Note_off_c, 0, 62, 100
1, 336061, Note_on_c, 0, 61, 100
1, 336109, Note_off_c, 0, 61, 100
1, 336109, Note_on_c, 0, 59, 100
1, 336221, Note_off_c, 0, 59, 100
1, 336221, Note_on_c, 0, 56, 100
1, 336285, Note_off_c, 0, 56, 100
1, 336285, Note_on_c, 0, 57, 100
1, 336413, Note_off_c, 0, 57, 100
1, 336413, Note_on_c, 0, 59, 100
1, 336477, Note_off_c, 0, 59, 100
1, 336477, Note_on_c, 0, 61, 100
1, 336589, Note_off_c, 0, 61, 100
1, 336589, Note_on_c, 0, 62, 100
1, 336685, Note_off_c, 0, 62, 100
1, 336685, Note_on_c, 0, 64, 100
1, 336781, Note_off_c, 0, 64, 100
1, 336781, Note_on_c, 0, 65, 100
1, 336877, Note_off_c, 0, 65, 100
1, 336877, Note_on_c, 0, 67, 100
1, 336973, Note_off_c, 0, 67, 100
1, 336973, Note_on_c, 0, 69, 100
1, 337069, Note_off_c, 0, 69, 100
1, 337069, Note_on_c, 0, 70, 100
1, 337213, Note_off_c, 0, 70, 100
1, 337213, Note_on_c, 0, 70, 100
1, 337309, Note_off_c, 0, 70, 100
1, 337309, Note_on_c, 0, 69, 100
1, 337405, Note_off_c, 0, 69, 100
1, 337405, Note_on_c, 0, 67, 100
1, 337501, Note_off_c, 0, 67, 100
1, 337501, Note_on_c, 0, 65, 100
1, 337629, Note_off_c, 0, 65, 100
1, 337629, Note_on_c, 0, 67, 100
1, 337693, Note_off_c, 0, 67, 100
1, 337693, Note_on_c, 0, 69, 100
1, 337757, Note_off_c, 0, 69, 100
1, 337757, Note_on_c, 0, 71, 100
1, 337821, Note_off_c, 0, 71, 100
1, 337821, Note_on_c, 0, 70, 100
1, 337885, Note_off_c, 0, 70, 100
1, 337885, Note_on_c, 0, 63, 100
1, 337949, Note_off_c, 0, 63, 100
1, 337949, Note_on_c, 0, 66, 100
1, 338013, Note_off_c, 0, 66, 100
1, 338013, Note_on_c, 0, 65, 100
1, 338125, Note_off_c, 0, 65, 100
1, 338125, Note_on_c, 0, 64, 100
1, 338221, Note_off_c, 0, 64, 100
1, 338221, Note_on_c, 0, 63, 100
1, 338269, Note_off_c, 0, 63, 100
1, 338269, Note_on_c, 0, 62, 100
1, 338461, Note_off_c, 0, 62, 100
1, 338461, Note_on_c, 0, 61, 100
1, 338509, Note_off_c, 0, 61, 100
1, 338509, Note_on_c, 0, 60, 100
1, 338605, Note_off_c, 0, 60, 100
1, 338605, Note_on_c, 0, 58, 100
1, 338701, Note_off_c, 0, 58, 100
1, 338701, Note_on_c, 0, 54, 100
1, 338797, Note_off_c, 0, 54, 100
1, 338797, Note_on_c, 0, 53, 100
1, 338845, Note_off_c, 0, 53, 100
1, 338845, Note_on_c, 0, 51, 100
1, 338989, Note_off_c, 0, 51, 100
1, 338989, Note_on_c, 0, 56, 100
1, 339101, Note_off_c, 0, 56, 100
1, 339101, Note_on_c, 0, 54, 100
1, 339165, Note_off_c, 0, 54, 100
1, 339165, Note_on_c, 0, 51, 100
1, 339277, Note_off_c, 0, 51, 100
1, 339277, Note_on_c, 0, 48, 100
1, 339373, Note_off_c, 0, 48, 100
1, 339373, Note_on_c, 0, 53, 100
1, 339661, Note_off_c, 0, 53, 100
1, 339661, Note_on_c, 0, 51, 100
1, 339757, Note_off_c, 0, 51, 100
1, 339757, Note_on_c, 0, 56, 100
1, 339853, Note_off_c, 0, 56, 100
1, 339853, Note_on_c, 0, 47, 100
1, 339949, Note_off_c, 0, 47, 100
1, 340573, Note_on_c, 0, 46, 100
1, 340717, Note_off_c, 0, 46, 100
1, 340717, Note_on_c, 0, 51, 100
1, 340861, Note_off_c, 0, 51, 100
1, 340861, Note_on_c, 0, 68, 100
1, 340957, Note_off_c, 0, 68, 100
1, 340957, Note_on_c, 0, 64, 100
1, 341053, Note_off_c, 0, 64, 100
1, 341053, Note_on_c, 0, 65, 100
1, 341149, Note_off_c, 0, 65, 100
1, 341149, Note_on_c, 0, 69, 100
1, 341197, Note_off_c, 0, 69, 100
1, 341197, Note_on_c, 0, 63, 100
1, 341293, Note_off_c, 0, 63, 100
1, 341293, Note_on_c, 0, 55, 100
1, 341389, Note_off_c, 0, 55, 100
1, 341629, Note_on_c, 0, 50, 100
1, 341725, Note_off_c, 0, 50, 100
1, 341725, Note_on_c, 0, 51, 100
1, 341773, Note_off_c, 0, 51, 100
1, 341773, Note_on_c, 0, 50, 100
1, 341821, Note_off_c, 0, 50, 100
1, 341821, Note_on_c, 0, 49, 100
1, 341917, Note_off_c, 0, 49, 100
1, 341917, Note_on_c, 0, 53, 100
1, 342013, Note_off_c, 0, 53, 100
1, 342013, Note_on_c, 0, 49, 100
1, 342109, Note_off_c, 0, 49, 100
1, 342109, Note_on_c, 0, 50, 100
1, 342205, Note_off_c, 0, 50, 100
1, 342205, Note_on_c, 0, 51, 100
1, 342301, Note_off_c, 0, 51, 100
1, 342301, Note_on_c, 0, 53, 100
1, 342397, Note_off_c, 0, 53, 100
1, 342397, Note_on_c, 0, 55, 100
1, 342493, Note_off_c, 0, 55, 100
1, 342493, Note_on_c, 0, 56, 100
1, 342589, Note_off_c, 0, 56, 100
1, 342589, Note_on_c, 0, 57, 100
1, 342685, Note_off_c, 0, 57, 100
1, 342685, Note_on_c, 0, 60, 100
1, 342733, Note_off_c, 0, 60, 100
1, 342733, Note_on_c, 0, 59, 100
1, 342829, Note_off_c, 0, 59, 100
1, 342829, Note_on_c, 0, 51, 100
1, 342925, Note_off_c, 0, 51, 100
1, 343165, Note_on_c, 0, 62, 100
1, 343261, Note_off_c, 0, 62, 100
1, 343261, Note_on_c, 0, 64, 100
1, 343309, Note_off_c, 0, 64, 100
1, 343309, Note_on_c, 0, 66, 100
1, 343453, Note_off_c, 0, 66, 100
1, 343453, Note_on_c, 0, 56, 100
1, 343517, Note_off_c, 0, 56, 100
1, 343517, Note_on_c, 0, 57, 100
1, 343581, Note_off_c, 0, 57, 100
1, 343581, Note_on_c, 0, 63, 100
1, 343693, Note_off_c, 0, 63, 100
1, 343693, Note_on_c, 0, 61, 100
1, 343789, Note_off_c, 0, 61, 100
1, 343789, Note_on_c, 0, 59, 100
1, 343837, Note_off_c, 0, 59, 100
1, 343837, Note_on_c, 0, 58, 100
1, 343933, Note_off_c, 0, 58, 100
1, 343933, Note_on_c, 0, 57, 100
1, 344125, Note_off_c, 0, 57, 100
1, 344125, Note_on_c, 0, 56, 100
1, 344173, Note_off_c, 0, 56, 100
1, 344173, Note_on_c, 0, 55, 100
1, 344317, Note_off_c, 0, 55, 100
1, 344317, Note_on_c, 0, 70, 100
1, 344413, Note_off_c, 0, 70, 100
1, 344413, Note_on_c, 0, 69, 100
1, 344509, Note_off_c, 0, 69, 100
1, 344509, Note_on_c, 0, 62, 100
1, 344605, Note_off_c, 0, 62, 100
1, 344605, Note_on_c, 0, 65, 100
1, 344701, Note_off_c, 0, 65, 100
1, 344701, Note_on_c, 0, 69, 100
1, 344749, Note_off_c, 0, 69, 100
1, 344749, Note_on_c, 0, 67, 100
1, 344893, Note_off_c, 0, 67, 100
1, 344893, Note_on_c, 0, 65, 100
1, 344941, Note_off_c, 0, 65, 100
1, 344941, Note_on_c, 0, 69, 100
1, 345053, Note_off_c, 0, 69, 100
1, 345053, Note_on_c, 0, 72, 100
1, 345117, Note_off_c, 0, 72, 100
1, 345117, Note_on_c, 0, 62, 100
1, 345181, Note_off_c, 0, 62, 100
1, 345181, Note_on_c, 0, 65, 100
1, 345277, Note_off_c, 0, 65, 100
1, 345277, Note_on_c, 0, 69, 100
1, 345373, Note_off_c, 0, 69, 100
1, 345373, Note_on_c, 0, 75, 100
1, 345469, Note_off_c, 0, 75, 100
1, 345469, Note_on_c, 0, 66, 100
1, 345565, Note_off_c, 0, 66, 100
1, 345565, Note_on_c, 0, 65, 100
1, 345661, Note_off_c, 0, 65, 100
1, 346477, Note_on_c, 0, 66, 100
1, 346589, Note_off_c, 0, 66, 100
1, 346589, Note_on_c, 0, 67, 100
1, 347053, Note_off_c, 0, 67, 100
1, 347053, Note_on_c, 0, 67, 100
1, 347101, Note_off_c, 0, 67, 100
1, 347101, Note_on_c, 0, 67, 100
1, 347677, Note_off_c, 0, 67, 100
1, 347677, Note_on_c, 0, 67, 100
1, 347741, Note_off_c, 0, 67, 100
1, 347741, Note_on_c, 0, 67, 100
1, 348157, Note_off_c, 0, 67, 100
1, 348157, Note_on_c, 0, 65, 100
1, 348397, Note_off_c, 0, 65, 100
1, 348397, Note_on_c, 0, 67, 100
1, 348589, Note_off_c, 0, 67, 100
1, 348973, Note_on_c, 0, 67, 100
1, 349085, Note_off_c, 0, 67, 100
1, 349085, Note_on_c, 0, 67, 100
1, 349309, Note_off_c, 0, 67, 100
1, 349309, Note_on_c, 0, 67, 100
1, 349693, Note_off_c, 0, 67, 100
1, 349693, Note_on_c, 0, 62, 100
1, 349885, Note_off_c, 0, 62, 100
1, 350557, Note_on_c, 0, 67, 100
1, 350621, Note_off_c, 0, 67, 100
1, 350621, Note_on_c, 0, 67, 100
1, 350749, Note_off_c, 0, 67, 100
1, 350749, Note_on_c, 0, 67, 100
1, 351229, Note_off_c, 0, 67, 100
1, 351229, Note_on_c, 0, 67, 100
1, 351469, Note_off_c, 0, 67, 100
1, 351469, Note_on_c, 0, 67, 100
1, 351661, Note_off_c, 0, 67, 100
1, 352093, Note_on_c, 0, 67, 100
1, 352189, Note_off_c, 0, 67, 100
1, 352189, Note_on_c, 0, 67, 100
1, 352381, Note_off_c, 0, 67, 100
1, 352381, Note_on_c, 0, 67, 100
1, 352669, Note_off_c, 0, 67, 100
1, 352669, Note_on_c, 0, 71, 100
1, 352733, Note_off_c, 0, 71, 100
1, 352733, Note_on_c, 0, 67, 100
1, 352797, Note_off_c, 0, 67, 100
1, 352797, Note_on_c, 0, 74, 100
1, 352989, Note_off_c, 0, 74, 100
1, 353885, Note_on_c, 0, 67, 100
1, 354301, Note_off_c, 0, 67, 100
1, 354301, Note_on_c, 0, 62, 100
1, 354397, Note_off_c, 0, 62, 100
1, 354397, Note_on_c, 0, 70, 100
1, 354589, Note_off_c, 0, 70, 100
1, 354589, Note_on_c, 0, 71, 100
1, 354781, Note_off_c, 0, 71, 100
1, 355165, Note_on_c, 0, 69, 100
1, 355261, Note_off_c, 0, 69, 100
1, 355261, Note_on_c, 0, 71, 100
1, 355453, Note_off_c, 0, 71, 100
1, 355453, Note_on_c, 0, 69, 100
1, 355549, Note_off_c, 0, 69, 100
1, 355549, Note_on_c, 0, 67, 100
1, 355645, Note_off_c, 0, 67, 100
1, 355645, Note_on_c, 0, 65, 100
1, 355741, Note_off_c, 0, 65, 100
1, 355741, Note_on_c, 0, 62, 100
1, 355837, Note_off_c, 0, 62, 100
1, 355837, Note_on_c, 0, 58, 100
1, 355933, Note_off_c, 0, 58, 100
1, 355933, Note_on_c, 0, 65, 100
1, 356029, Note_off_c, 0, 65, 100
1, 356509, Note_on_c, 0, 65, 100
1, 356557, Note_off_c, 0, 65, 100
1, 356557, Note_on_c, 0, 65, 100
1, 356605, Note_off_c, 0, 65, 100
1, 356605, Note_on_c, 0, 67, 100
1, 356653, Note_off_c, 0, 67, 100
1, 356653, Note_on_c, 0, 69, 100
1, 356941, Note_off_c, 0, 69, 100
1, 356941, Note_on_c, 0, 71, 100
1, 357037, Note_off_c, 0, 71, 100
1, 357037, Note_on_c, 0, 69, 100
1, 357085, Note_off_c, 0, 69, 100
1, 357085, Note_on_c, 0, 66, 100
1, 357181, Note_off_c, 0, 66, 100
1, 357181, Note_on_c, 0, 65, 100
1, 357277, Note_off_c, 0, 65, 100
1, 357277, Note_on_c, 0, 65, 100
1, 357341, Note_off_c, 0, 65, 100
1, 357341, Note_on_c, 0, 64, 100
1, 357405, Note_off_c, 0, 64, 100
1, 357405, Note_on_c, 0, 63, 100
1, 357517, Note_off_c, 0, 63, 100
1, 357517, Note_on_c, 0, 66, 100
1, 357661, Note_off_c, 0, 66, 100
1, 357661, Note_on_c, 0, 71, 100
1, 357757, Note_off_c, 0, 71, 100
1, 357757, Note_on_c, 0, 67, 100
1, 357853, Note_off_c, 0, 67, 100
1, 357853, Note_on_c, 0, 66, 100
1, 358045, Note_off_c, 0, 66, 100
1, 358045, Note_on_c, 0, 65, 100
1, 358093, Note_off_c, 0, 65, 100
1, 358093, Note_on_c, 0, 68, 100
1, 358189, Note_off_c, 0, 68, 100
1, 358189, Note_on_c, 0, 63, 100
1, 358333, Note_off_c, 0, 63, 100
1, 358333, Note_on_c, 0, 62, 100
1, 358381, Note_off_c, 0, 62, 100
1, 358381, Note_on_c, 0, 61, 100
1, 358525, Note_off_c, 0, 61, 100
1, 358525, Note_on_c, 0, 65, 100
1, 358621, Note_off_c, 0, 65, 100
1, 358621, Note_on_c, 0, 62, 100
1, 358717, Note_off_c, 0, 62, 100
1, 358717, Note_on_c, 0, 66, 100
1, 358813, Note_off_c, 0, 66, 100
1, 358813, Note_on_c, 0, 68, 100
1, 358877, Note_off_c, 0, 68, 100
1, 358877, Note_on_c, 0, 71, 100
1, 358941, Note_off_c, 0, 71, 100
1, 358941, Note_on_c, 0, 70, 100
1, 359005, Note_off_c, 0, 70, 100
1, 359005, Note_on_c, 0, 64, 100
1, 359101, Note_off_c, 0, 64, 100
1, 359485, Note_on_c, 0, 72, 100
1, 359773, Note_off_c, 0, 72, 100
1, 359773, Note_on_c, 0, 72, 100
1, 359917, Note_off_c, 0, 72, 100
1, 359917, Note_on_c, 0, 70, 100
1, 360013, Note_off_c, 0, 70, 100
1, 360013, Note_on_c, 0, 72, 100
1, 360493, Note_off_c, 0, 72, 100
1, 360493, Note_on_c, 0, 70, 100
1, 360605, Note_off_c, 0, 70, 100
1, 360605, Note_on_c, 0, 72, 100
1, 360701, Note_off_c, 0, 72, 100
1, 361021, Note_on_c, 0, 72, 100
1, 361261, Note_off_c, 0, 72, 100
1, 361261, Note_on_c, 0, 70, 100
1, 361373, Note_off_c, 0, 70, 100
1, 361373, Note_on_c, 0, 72, 100
1, 361981, Note_off_c, 0, 72, 100
1, 361981, Note_on_c, 0, 70, 100
1, 362077, Note_off_c, 0, 70, 100
1, 362077, Note_on_c, 0, 67, 100
1, 362173, Note_off_c, 0, 67, 100
1, 362173, Note_on_c, 0, 63, 100
1, 362365, Note_off_c, 0, 63, 100
1, 362653, Note_on_c, 0, 71, 100
1, 362749, Note_off_c, 0, 71, 100
1, 362749, Note_on_c, 0, 72, 100
1, 363037, Note_off_c, 0, 72, 100
1, 363037, Note_on_c, 0, 73, 100
1, 363165, Note_off_c, 0, 73, 100
1, 363165, Note_on_c, 0, 72, 100
1, 363325, Note_off_c, 0, 72, 100
1, 363325, Note_on_c, 0, 73, 100
1, 363485, Note_off_c, 0, 73, 100
1, 363485, Note_on_c, 0, 75, 100
1, 363709, Note_off_c, 0, 75, 100
1, 363709, Note_on_c, 0, 62, 100
1, 363805, Note_off_c, 0, 62, 100
1, 364381, Note_on_c, 0, 74, 100
1, 364573, Note_off_c, 0, 74, 100
1, 364573, Note_on_c, 0, 73, 100
1, 364669, Note_off_c, 0, 73, 100
1, 364669, Note_on_c, 0, 71, 100
1, 364765, Note_off_c, 0, 71, 100
1, 364765, Note_on_c, 0, 70, 100
1, 364829, Note_off_c, 0, 70, 100
1, 364829, Note_on_c, 0, 66, 100
1, 364893, Note_off_c, 0, 66, 100
1, 364893, Note_on_c, 0, 63, 100
1, 365021, Note_off_c, 0, 63, 100
1, 365021, Note_on_c, 0, 59, 100
1, 365085, Note_off_c, 0, 59, 100
1, 365085, Note_on_c, 0, 67, 100
1, 365213, Note_off_c, 0, 67, 100
1, 365213, Note_on_c, 0, 66, 100
1, 365277, Note_off_c, 0, 66, 100
1, 365277, Note_on_c, 0, 63, 100
1, 365437, Note_off_c, 0, 63, 100
1, 365437, Note_on_c, 0, 57, 100
1, 365485, Note_off_c, 0, 57, 100
1, 365485, Note_on_c, 0, 69, 100
1, 365581, Note_off_c, 0, 69, 100
1, 365917, Note_on_c, 0, 74, 100
1, 366205, Note_off_c, 0, 74, 100
1, 366205, Note_on_c, 0, 71, 100
1, 366301, Note_off_c, 0, 71, 100
1, 366301, Note_on_c, 0, 69, 100
1, 366397, Note_off_c, 0, 69, 100
1, 366397, Note_on_c, 0, 65, 100
1, 366493, Note_off_c, 0, 65, 100
1, 366493, Note_on_c, 0, 62, 100
1, 366685, Note_off_c, 0, 62, 100
1, 366685, Note_on_c, 0, 67, 100
1, 366781, Note_off_c, 0, 67, 100
1, 366781, Note_on_c, 0, 63, 100
1, 366973, Note_off_c, 0, 63, 100
1, 366973, Note_on_c, 0, 70, 100
1, 367021, Note_off_c, 0, 70, 100
1, 367021, Note_on_c, 0, 68, 100
1, 367133, Note_off_c, 0, 68, 100
1, 367133, Note_on_c, 0, 70, 100
1, 367197, Note_off_c, 0, 70, 100
1, 367197, Note_on_c, 0, 68, 100
1, 367261, Note_off_c, 0, 68, 100
1, 367261, Note_on_c, 0, 65, 100
1, 367357, Note_off_c, 0, 65, 100
1, 367357, Note_on_c, 0, 71, 100
1, 367405, Note_off_c, 0, 71, 100
1, 367405, Note_on_c, 0, 70, 100
1, 367453, Note_off_c, 0, 70, 100
1, 367453, Note_on_c, 0, 68, 100
1, 367549, Note_off_c, 0, 68, 100
1, 367549, Note_on_c, 0, 69, 100
1, 367597, Note_off_c, 0, 69, 100
1, 367597, Note_on_c, 0, 68, 100
1, 367645, Note_off_c, 0, 68, 100
1, 367645, Note_on_c, 0, 67, 100
1, 367741, Note_off_c, 0, 67, 100
1, 367741, Note_on_c, 0, 71, 100
1, 367789, Note_off_c, 0, 71, 100
1, 367789, Note_on_c, 0, 70, 100
1, 367837, Note_off_c, 0, 70, 100
1, 367837, Note_on_c, 0, 69, 100
1, 367933, Note_off_c, 0, 69, 100
1, 367933, Note_on_c, 0, 66, 100
1, 368029, Note_off_c, 0, 66, 100
1, 368029, Note_on_c, 0, 65, 100
1, 368125, Note_off_c, 0, 65, 100
1, 368125, Note_on_c, 0, 64, 100
1, 368221, Note_off_c, 0, 64, 100
1, 368221, Note_on_c, 0, 63, 100
1, 368509, Note_off_c, 0, 63, 100
1, 368509, Note_on_c, 0, 71, 100
1, 368605, Note_off_c, 0, 71, 100
1, 368605, Note_on_c, 0, 63, 100
1, 368653, Note_off_c, 0, 63, 100
1, 368653, Note_on_c, 0, 62, 100
1, 368749, Note_off_c, 0, 62, 100
1, 368989, Note_on_c, 0, 68, 100
1, 369181, Note_off_c, 0, 68, 100
1, 369181, Note_on_c, 0, 71, 100
1, 369277, Note_off_c, 0, 71, 100
1, 369277, Note_on_c, 0, 64, 100
1, 369325, Note_off_c, 0, 64, 100
1, 369325, Note_on_c, 0, 70, 100
1, 369437, Note_off_c, 0, 70, 100
1, 369437, Note_on_c, 0, 60, 100
1, 369501, Note_off_c, 0, 60, 100
1, 369501, Note_on_c, 0, 62, 100
1, 369565, Note_off_c, 0, 62, 100
1, 369565, Note_on_c, 0, 63, 100
1, 369661, Note_off_c, 0, 63, 100
1, 369661, Note_on_c, 0, 67, 100
1, 369757, Note_off_c, 0, 67, 100
1, 369757, Note_on_c, 0, 67, 100
1, 369853, Note_off_c, 0, 67, 100
1, 369853, Note_on_c, 0, 69, 100
1, 369949, Note_off_c, 0, 69, 100
1, 369949, Note_on_c, 0, 69, 100
1, 370045, Note_off_c, 0, 69, 100
1, 370045, Note_on_c, 0, 71, 100
1, 370141, Note_off_c, 0, 71, 100
1, 370141, Note_on_c, 0, 69, 100
1, 370237, Note_off_c, 0, 69, 100
1, 370237, Note_on_c, 0, 65, 100
1, 370285, Note_off_c, 0, 65, 100
1, 370285, Note_on_c, 0, 62, 100
1, 370429, Note_off_c, 0, 62, 100
1, 370429, Note_on_c, 0, 58, 100
1, 370477, Note_off_c, 0, 58, 100
1, 370477, Note_on_c, 0, 65, 100
1, 370573, Note_off_c, 0, 65, 100
1, 371101, Note_on_c, 0, 66, 100
1, 371197, Note_off_c, 0, 66, 100
1, 371197, Note_on_c, 0, 67, 100
1, 371533, Note_off_c, 0, 67, 100
1, 371533, Note_on_c, 0, 62, 100
1, 371629, Note_off_c, 0, 62, 100
1, 371629, Note_on_c, 0, 67, 100
1, 371741, Note_off_c, 0, 67, 100
1, 371741, Note_on_c, 0, 62, 100
1, 371805, Note_off_c, 0, 62, 100
1, 371805, Note_on_c, 0, 61, 100
1, 371901, Note_off_c, 0, 61, 100
1, 372541, Note_on_c, 0, 65, 100
1, 373165, Note_off_c, 0, 65, 100
1, 373165, Note_on_c, 0, 62, 100
1, 373277, Note_off_c, 0, 62, 100
1, 373277, Note_on_c, 0, 57, 100
1, 373469, Note_off_c, 0, 57, 100
1, 374173, Note_on_c, 0, 57, 100
1, 374653, Note_off_c, 0, 57, 100
1, 374653, Note_on_c, 0, 59, 100
1, 374701, Note_off_c, 0, 59, 100
1, 374701, Note_on_c, 0, 55, 100
1, 374797, Note_off_c, 0, 55, 100
1, 375133, Note_on_c, 0, 62, 100
1, 375229, Note_off_c, 0, 62, 100
1, 375229, Note_on_c, 0, 60, 100
1, 375277, Note_off_c, 0, 60, 100
1, 375277, Note_on_c, 0, 59, 100
1, 375373, Note_off_c, 0, 59, 100
1, 375373, Note_on_c, 0, 55, 100
1, 375469, Note_off_c, 0, 55, 100
1, 375469, Note_on_c, 0, 57, 100
1, 375581, Note_off_c, 0, 57, 100
1, 375581, Note_on_c, 0, 59, 100
1, 375645, Note_off_c, 0, 59, 100
1, 375645, Note_on_c, 0, 60, 100
1, 375757, Note_off_c, 0, 60, 100
1, 375757, Note_on_c, 0, 62, 100
1, 375853, Note_off_c, 0, 62, 100
1, 375853, Note_on_c, 0, 64, 100
1, 375949, Note_off_c, 0, 64, 100
1, 375949, Note_on_c, 0, 65, 100
1, 376045, Note_off_c, 0, 65, 100
1, 376045, Note_on_c, 0, 67, 100
1, 376141, Note_off_c, 0, 67, 100
1, 376141, Note_on_c, 0, 69, 100
1, 376237, Note_off_c, 0, 69, 100
1, 376237, Note_on_c, 0, 71, 100
1, 376349, Note_off_c, 0, 71, 100
1, 376349, Note_on_c, 0, 72, 100
1, 376477, Note_off_c, 0, 72, 100
1, 376477, Note_on_c, 0, 71, 100
1, 376525, Note_off_c, 0, 71, 100
1, 376525, Note_on_c, 0, 69, 100
1, 376621, Note_off_c, 0, 69, 100
1, 377245, Note_on_c, 0, 69, 100
1, 377725, Note_off_c, 0, 69, 100
1, 377725, Note_on_c, 0, 65, 100
1, 377821, Note_off_c, 0, 65, 100
1, 377821, Note_on_c, 0, 69, 100
1, 377869, Note_off_c, 0, 69, 100
1, 377869, Note_on_c, 0, 71, 100
1, 377917, Note_off_c, 0, 71, 100
1, 377917, Note_on_c, 0, 72, 100
1, 378077, Note_off_c, 0, 72, 100
1, 378077, Note_on_c, 0, 74, 100
1, 378253, Note_off_c, 0, 74, 100
1, 378253, Note_on_c, 0, 69, 100
1, 378349, Note_off_c, 0, 69, 100
1, 378349, Note_on_c, 0, 71, 100
1, 378461, Note_off_c, 0, 71, 100
1, 378461, Note_on_c, 0, 71, 100
1, 378525, Note_off_c, 0, 71, 100
1, 378525, Note_on_c, 0, 69, 100
1, 378589, Note_off_c, 0, 69, 100
1, 378589, Note_on_c, 0, 65, 100
1, 378653, Note_off_c, 0, 65, 100
1, 378653, Note_on_c, 0, 67, 100
1, 378717, Note_off_c, 0, 67, 100
1, 378717, Note_on_c, 0, 69, 100
1, 378829, Note_off_c, 0, 69, 100
1, 378829, Note_on_c, 0, 71, 100
1, 378925, Note_off_c, 0, 71, 100
1, 378925, Note_on_c, 0, 64, 100
1, 379069, Note_off_c, 0, 64, 100
1, 379069, Note_on_c, 0, 65, 100
1, 379117, Note_off_c, 0, 65, 100
1, 379117, Note_on_c, 0, 67, 100
1, 379203, Note_off_c, 0, 67, 100
1, 379203, Note_on_c, 0, 69, 100
1, 379241, Note_off_c, 0, 69, 100
1, 379241, Note_on_c, 0, 69, 100
1, 379317, Note_off_c, 0, 69, 100
1, 379317, Note_on_c, 0, 62, 100
1, 379451, Note_off_c, 0, 62, 100
1, 379451, Note_on_c, 0, 64, 100
1, 379547, Note_off_c, 0, 64, 100
1, 379547, Note_on_c, 0, 65, 100
1, 379643, Note_off_c, 0, 65, 100
1, 380075, Note_on_c, 0, 60, 100
1, 380187, Note_off_c, 0, 60, 100
1, 380187, Note_on_c, 0, 62, 100
1, 380251, Note_off_c, 0, 62, 100
1, 380251, Note_on_c, 0, 64, 100
1, 380411, Note_off_c, 0, 64, 100
1, 380411, Note_on_c, 0, 60, 100
1, 380459, Note_off_c, 0, 60, 100
1, 380459, Note_on_c, 0, 62, 100
1, 380555, Note_off_c, 0, 62, 100
1, 380555, Note_on_c, 0, 64, 100
1, 380651, Note_off_c, 0, 64, 100
1, 380651, Note_on_c, 0, 65, 100
1, 380737, Note_off_c, 0, 65, 100
1, 380737, Note_on_c, 0, 65, 100
1, 380813, Note_off_c, 0, 65, 100
1, 380813, Note_on_c, 0, 69, 100
1, 380851, Note_off_c, 0, 69, 100
1, 380851, Note_on_c, 0, 59, 100
1, 380947, Note_off_c, 0, 59, 100
1, 381273, Note_on_c, 0, 59, 100
1, 381321, Note_off_c, 0, 59, 100
1, 381321, Note_on_c, 0, 59, 100
1, 381369, Note_off_c, 0, 59, 100
1, 381369, Note_on_c, 0, 60, 100
1, 381417, Note_off_c, 0, 60, 100
1, 381417, Note_on_c, 0, 62, 100
1, 381513, Note_off_c, 0, 62, 100
1, 381513, Note_on_c, 0, 64, 100
1, 381609, Note_off_c, 0, 64, 100
1, 381609, Note_on_c, 0, 65, 100
1, 381705, Note_off_c, 0, 65, 100
1, 381705, Note_on_c, 0, 67, 100
1, 381801, Note_off_c, 0, 67, 100
1, 381801, Note_on_c, 0, 69, 100
1, 381913, Note_off_c, 0, 69, 100
1, 381913, Note_on_c, 0, 71, 100
1, 381977, Note_off_c, 0, 71, 100
1, 381977, Note_on_c, 0, 67, 100
1, 382073, Note_off_c, 0, 67, 100
1, 382713, Note_on_c, 0, 67, 100
1, 382809, Note_off_c, 0, 67, 100
1, 382809, Note_on_c, 0, 69, 100
1, 382905, Note_off_c, 0, 69, 100
1, 382905, Note_on_c, 0, 71, 100
1, 383065, Note_off_c, 0, 71, 100
1, 383065, Note_on_c, 0, 66, 100
1, 383129, Note_off_c, 0, 66, 100
1, 383129, Note_on_c, 0, 69, 100
1, 383241, Note_off_c, 0, 69, 100
1, 383241, Note_on_c, 0, 65, 100
1, 383337, Note_off_c, 0, 65, 100
1, 383337, Note_on_c, 0, 62, 100
1, 383433, Note_off_c, 0, 62, 100
1, 383433, Note_on_c, 0, 67, 100
1, 383529, Note_off_c, 0, 67, 100
1, 383529, Note_on_c, 0, 65, 100
1, 383577, Note_off_c, 0, 65, 100
1, 383577, Note_on_c, 0, 67, 100
1, 383673, Note_off_c, 0, 67, 100
1, 383673, Note_on_c, 0, 69, 100
1, 383833, Note_off_c, 0, 69, 100
1, 383833, Note_on_c, 0, 70, 100
1, 383897, Note_off_c, 0, 70, 100
1, 383897, Note_on_c, 0, 60, 100
1, 384249, Note_off_c, 0, 60, 100
1, 384249, Note_on_c, 0, 61, 100
1, 384345, Note_off_c, 0, 61, 100
1, 384345, Note_on_c, 0, 63, 100
1, 384601, Note_off_c, 0, 63, 100
1, 384601, Note_on_c, 0, 65, 100
1, 384665, Note_off_c, 0, 65, 100
1, 384665, Note_on_c, 0, 63, 100
1, 384793, Note_off_c, 0, 63, 100
1, 384793, Note_on_c, 0, 62, 100
1, 384857, Note_off_c, 0, 62, 100
1, 384857, Note_on_c, 0, 63, 100
1, 384921, Note_off_c, 0, 63, 100
1, 384921, Note_on_c, 0, 65, 100
1, 385017, Note_off_c, 0, 65, 100
1, 385017, Note_on_c, 0, 66, 100
1, 385113, Note_off_c, 0, 66, 100
1, 385113, Note_on_c, 0, 65, 100
1, 385209, Note_off_c, 0, 65, 100
1, 385209, Note_on_c, 0, 63, 100
1, 385305, Note_off_c, 0, 63, 100
1, 385833, Note_on_c, 0, 66, 100
1, 385881, Note_off_c, 0, 66, 100
1, 385881, Note_on_c, 0, 68, 100
1, 385977, Note_off_c, 0, 68, 100
1, 385977, Note_on_c, 0, 70, 100
1, 386073, Note_off_c, 0, 70, 100
1, 386073, Note_on_c, 0, 72, 100
1, 386169, Note_off_c, 0, 72, 100
1, 386169, Note_on_c, 0, 63, 100
1, 386265, Note_off_c, 0, 63, 100
1, 386265, Note_on_c, 0, 65, 100
1, 386521, Note_off_c, 0, 65, 100
1, 386521, Note_on_c, 0, 66, 100
1, 386649, Note_off_c, 0, 66, 100
1, 386649, Note_on_c, 0, 65, 100
1, 386841, Note_off_c, 0, 65, 100
1, 386841, Note_on_c, 0, 64, 100
1, 386937, Note_off_c, 0, 64, 100
1, 386937, Note_on_c, 0, 63, 100
1, 387033, Note_off_c, 0, 63, 100
1, 387033, Note_on_c, 0, 62, 100
1, 387161, Note_off_c, 0, 62, 100
1, 387161, Note_on_c, 0, 61, 100
1, 387225, Note_off_c, 0, 61, 100
1, 387225, Note_on_c, 0, 60, 100
1, 387321, Note_off_c, 0, 60, 100
1, 387321, Note_on_c, 0, 58, 100
1, 387513, Note_off_c, 0, 58, 100
1, 387753, Note_on_c, 0, 58, 100
1, 387849, Note_off_c, 0, 58, 100
1, 387849, Note_on_c, 0, 54, 100
1, 387945, Note_off_c, 0, 54, 100
1, 387945, Note_on_c, 0, 53, 100
1, 388089, Note_off_c, 0, 53, 100
1, 388089, Note_on_c, 0, 51, 100
1, 388185, Note_off_c, 0, 51, 100
1, 388185, Note_on_c, 0, 56, 100
1, 388473, Note_off_c, 0, 56, 100
1, 388473, Note_on_c, 0, 53, 100
1, 388569, Note_off_c, 0, 53, 100
1, 388569, Note_on_c, 0, 47, 100
1, 388665, Note_off_c, 0, 47, 100
1, 388665, Note_on_c, 0, 53, 100
1, 388761, Note_off_c, 0, 53, 100
1, 388761, Note_on_c, 0, 51, 100
1, 388857, Note_off_c, 0, 51, 100
1, 389289, Note_on_c, 0, 46, 100
1, 389433, Note_off_c, 0, 46, 100
1, 389433, Note_on_c, 0, 55, 100
1, 389529, Note_off_c, 0, 55, 100
1, 389529, Note_on_c, 0, 62, 100
1, 389625, Note_off_c, 0, 62, 100
1, 389625, Note_on_c, 0, 62, 100
1, 389721, Note_off_c, 0, 62, 100
1, 389721, Note_on_c, 0, 57, 100
1, 389817, Note_off_c, 0, 57, 100
1, 389817, Note_on_c, 0, 53, 100
1, 389865, Note_off_c, 0, 53, 100
1, 389865, Note_on_c, 0, 51, 100
1, 389961, Note_off_c, 0, 51, 100
1, 389961, Note_on_c, 0, 54, 100
1, 390057, Note_off_c, 0, 54, 100
1, 390057, Note_on_c, 0, 47, 100
1, 390169, Note_off_c, 0, 47, 100
1, 390169, Note_on_c, 0, 51, 100
1, 390233, Note_off_c, 0, 51, 100
1, 390233, Note_on_c, 0, 57, 100
1, 390329, Note_off_c, 0, 57, 100
1, 390873, Note_on_c, 0, 51, 100
1, 390969, Note_off_c, 0, 51, 100
1, 390969, Note_on_c, 0, 55, 100
1, 391017, Note_off_c, 0, 55, 100
1, 391017, Note_on_c, 0, 59, 100
1, 391129, Note_off_c, 0, 59, 100
1, 391129, Note_on_c, 0, 53, 100
1, 391225, Note_off_c, 0, 53, 100
1, 391833, Note_on_c, 0, 45, 100
1, 391897, Note_off_c, 0, 45, 100
1, 391897, Note_on_c, 0, 53, 100
1, 391961, Note_off_c, 0, 53, 100
1, 391961, Note_on_c, 0, 52, 100
1, 392025, Note_off_c, 0, 52, 100
1, 392025, Note_on_c, 0, 47, 100
1, 392169, Note_off_c, 0, 47, 100
1, 392169, Note_on_c, 0, 47, 100
1, 392281, Note_off_c, 0, 47, 100
1, 392281, Note_on_c, 0, 55, 100
1, 392345, Note_off_c, 0, 55, 100
1, 392345, Note_on_c, 0, 50, 100
1, 392409, Note_off_c, 0, 50, 100
1, 392409, Note_on_c, 0, 53, 100
1, 392505, Note_off_c, 0, 53, 100
1, 392505, Note_on_c, 0, 50, 100
1, 392601, Note_off_c, 0, 50, 100
1, 392601, Note_on_c, 0, 45, 100
1, 392793, Note_off_c, 0, 45, 100
1, 393321, Note_on_c, 0, 45, 100
1, 393417, Note_off_c, 0, 45, 100
1, 393417, Note_on_c, 0, 52, 100
1, 393513, Note_off_c, 0, 52, 100
1, 393513, Note_on_c, 0, 47, 100
1, 393609, Note_off_c, 0, 47, 100
1, 393849, Note_on_c, 0, 54, 100
1, 393945, Note_off_c, 0, 54, 100
1, 393945, Note_on_c, 0, 48, 100
1, 394200, Note_off_c, 0, 48, 100
1, 394200, Note_on_c, 0, 57, 100
1, 394264, Note_off_c, 0, 57, 100
1, 394264, Note_on_c, 0, 51, 100
1, 394375, Note_off_c, 0, 51, 100
1, 394375, Note_on_c, 0, 52, 100
1, 394423, Note_off_c, 0, 52, 100
1, 394423, Note_on_c, 0, 55, 100
1, 394471, Note_off_c, 0, 55, 100
1, 394471, Note_on_c, 0, 59, 100
1, 394519, Note_off_c, 0, 59, 100
1, 394519, Note_on_c, 0, 50, 100
1, 394615, Note_off_c, 0, 50, 100
1, 395047, Note_on_c, 0, 50, 100
1, 395239, Note_off_c, 0, 50, 100
1, 395239, Note_on_c, 0, 53, 100
1, 395287, Note_off_c, 0, 53, 100
1, 395287, Note_on_c, 0, 57, 100
1, 395479, Note_off_c, 0, 57, 100
1, 395479, Note_on_c, 0, 52, 100
1, 395575, Note_off_c, 0, 52, 100
1, 395575, Note_on_c, 0, 55, 100
1, 395623, Note_off_c, 0, 55, 100
1, 395623, Note_on_c, 0, 59, 100
1, 395719, Note_off_c, 0, 59, 100
1, 395719, Note_on_c, 0, 62, 100
1, 395815, Note_off_c, 0, 62, 100
1, 395815, Note_on_c, 0, 57, 100
1, 396007, Note_off_c, 0, 57, 100
1, 396439, Note_on_c, 0, 47, 100
1, 396535, Note_off_c, 0, 47, 100
1, 396535, Note_on_c, 0, 51, 100
1, 396631, Note_off_c, 0, 51, 100
1, 396631, Note_on_c, 0, 48, 100
1, 396823, Note_off_c, 0, 48, 100
1, 396823, Note_on_c, 0, 57, 100
1, 396887, Note_off_c, 0, 57, 100
1, 396887, Note_on_c, 0, 50, 100
1, 396983, Note_off_c, 0, 50, 100
1, 397351, Note_on_c, 0, 48, 100
1, 397399, Note_off_c, 0, 48, 100
1, 397399, Note_on_c, 0, 49, 100
1, 397591, Note_off_c, 0, 49, 100
1, 397591, Note_on_c, 0, 57, 100
1, 397687, Note_off_c, 0, 57, 100
1, 397687, Note_on_c, 0, 59, 100
1, 397735, Note_off_c, 0, 59, 100
1, 397735, Note_on_c, 0, 52, 100
1, 397879, Note_off_c, 0, 52, 100
1, 397879, Note_on_c, 0, 55, 100
1, 397975, Note_off_c, 0, 55, 100
1, 397975, Note_on_c, 0, 59, 100
1, 398023, Note_off_c, 0, 59, 100
1, 398023, Note_on_c, 0, 59, 100
1, 398167, Note_off_c, 0, 59, 100
1, 398167, Note_on_c, 0, 57, 100
1, 398263, Note_off_c, 0, 57, 100
1, 398551, Note_on_c, 0, 50, 100
1, 398615, Note_off_c, 0, 50, 100
1, 398615, Note_on_c, 0, 55, 100
1, 398679, Note_off_c, 0, 55, 100
1, 398679, Note_on_c, 0, 57, 100
1, 398743, Note_off_c, 0, 57, 100
1, 398743, Note_on_c, 0, 67, 100
1, 398887, Note_off_c, 0, 67, 100
1, 398887, Note_on_c, 0, 67, 100
1, 398935, Note_off_c, 0, 67, 100
1, 398935, Note_on_c, 0, 51, 100
1, 399031, Note_off_c, 0, 51, 100
1, 399031, Note_on_c, 0, 48, 100
1, 399127, Note_off_c, 0, 48, 100
1, 399127, Note_on_c, 0, 45, 100
1, 399223, Note_off_c, 0, 45, 100
1, 399703, Note_on_c, 0, 45, 100
1, 399895, Note_off_c, 0, 45, 100
1, 399895, Note_on_c, 0, 50, 100
1, 400039, Note_off_c, 0, 50, 100
1, 400039, Note_on_c, 0, 57, 100
1, 400087, Note_off_c, 0, 57, 100
1, 400087, Note_on_c, 0, 53, 100
1, 400231, Note_off_c, 0, 53, 100
1, 400231, Note_on_c, 0, 50, 100
1, 400279, Note_off_c, 0, 50, 100
1, 400279, Note_on_c, 0, 57, 100
1, 400327, Note_off_c, 0, 57, 100
1, 400327, Note_on_c, 0, 55, 100
1, 400423, Note_off_c, 0, 55, 100
1, 400423, Note_on_c, 0, 57, 100
1, 400519, Note_off_c, 0, 57, 100
1, 401047, Note_on_c, 0, 53, 100
1, 401111, Note_off_c, 0, 53, 100
1, 401111, Note_on_c, 0, 65, 100
1, 401175, Note_off_c, 0, 65, 100
1, 401175, Note_on_c, 0, 67, 100
1, 401239, Note_off_c, 0, 67, 100
1, 401239, Note_on_c, 0, 71, 100
1, 401527, Note_off_c, 0, 71, 100
1, 401527, Note_on_c, 0, 67, 100
1, 401575, Note_off_c, 0, 67, 100
1, 401575, Note_on_c, 0, 64, 100
1, 401671, Note_off_c, 0, 64, 100
1, 401671, Note_on_c, 0, 59, 100
1, 401767, Note_off_c, 0, 59, 100
1, 401767, Note_on_c, 0, 54, 100
1, 401815, Note_off_c, 0, 54, 100
1, 401815, Note_on_c, 0, 51, 100
1, 401911, Note_off_c, 0, 51, 100
1, 401911, Note_on_c, 0, 48, 100
1, 401959, Note_off_c, 0, 48, 100
1, 401959, Note_on_c, 0, 47, 100
1, 402055, Note_off_c, 0, 47, 100
1, 402535, Note_on_c, 0, 47, 100
1, 402583, Note_off_c, 0, 47, 100
1, 402583, Note_on_c, 0, 53, 100
1, 402679, Note_off_c, 0, 53, 100
1, 402679, Note_on_c, 0, 47, 100
1, 403031, Note_off_c, 0, 47, 100
1, 403031, Note_on_c, 0, 55, 100
1, 403095, Note_off_c, 0, 55, 100
1, 403095, Note_on_c, 0, 47, 100
1, 403159, Note_off_c, 0, 47, 100
1, 403159, Note_on_c, 0, 48, 100
1, 403399, Note_off_c, 0, 48, 100
1, 403399, Note_on_c, 0, 55, 100
1, 403495, Note_off_c, 0, 55, 100
1, 403495, Note_on_c, 0, 48, 100
1, 403607, Note_off_c, 0, 48, 100
1, 403607, Note_on_c, 0, 55, 100
1, 403671, Note_off_c, 0, 55, 100
1, 403671, Note_on_c, 0, 57, 100
1, 403767, Note_off_c, 0, 57, 100
1, 404119, Note_on_c, 0, 51, 100
1, 404215, Note_off_c, 0, 51, 100
1, 404215, Note_on_c, 0, 55, 100
1, 404263, Note_off_c, 0, 55, 100
1, 404263, Note_on_c, 0, 59, 100
1, 404359, Note_off_c, 0, 59, 100
1, 404359, Note_on_c, 0, 49, 100
1, 404503, Note_off_c, 0, 49, 100
1, 404503, Note_on_c, 0, 51, 100
1, 404567, Note_off_c, 0, 51, 100
1, 404567, Note_on_c, 0, 57, 100
1, 404631, Note_off_c, 0, 57, 100
1, 404631, Note_on_c, 0, 51, 100
1, 404727, Note_off_c, 0, 51, 100
1, 405079, Note_on_c, 0, 50, 100
1, 405207, Note_off_c, 0, 50, 100
1, 405207, Note_on_c, 0, 51, 100
1, 405271, Note_off_c, 0, 51, 100
1, 405271, Note_on_c, 0, 53, 100
1, 405367, Note_off_c, 0, 53, 100
1, 405367, Note_on_c, 0, 55, 100
1, 405463, Note_off_c, 0, 55, 100
1, 405463, Note_on_c, 0, 50, 100
1, 405559, Note_off_c, 0, 50, 100
1, 405559, Note_on_c, 0, 53, 100
1, 405655, Note_off_c, 0, 53, 100
1, 405655, Note_on_c, 0, 57, 100
1, 405751, Note_off_c, 0, 57, 100
1, 405751, Note_on_c, 0, 60, 100
1, 405847, Note_off_c, 0, 60, 100
1, 405847, Note_on_c, 0, 57, 100
1, 405895, Note_off_c, 0, 57, 100
1, 405895, Note_on_c, 0, 60, 100
1, 405991, Note_off_c, 0, 60, 100
1, 405991, Note_on_c, 0, 62, 100
1, 406135, Note_off_c, 0, 62, 100
1, 406135, Note_on_c, 0, 67, 100
1, 406231, Note_off_c, 0, 67, 100
1, 406231, Note_on_c, 0, 62, 100
1, 406327, Note_off_c, 0, 62, 100
1, 406615, Note_on_c, 0, 62, 100
1, 406711, Note_off_c, 0, 62, 100
1, 406711, Note_on_c, 0, 65, 100
1, 406807, Note_off_c, 0, 65, 100
1, 406807, Note_on_c, 0, 69, 100
1, 406903, Note_off_c, 0, 69, 100
1, 406903, Note_on_c, 0, 71, 100
1, 406951, Note_off_c, 0, 71, 100
1, 406951, Note_on_c, 0, 66, 100
1, 406999, Note_off_c, 0, 66, 100
1, 406999, Note_on_c, 0, 69, 100
1, 407191, Note_off_c, 0, 69, 100
1, 407191, Note_on_c, 0, 67, 100
1, 407239, Note_off_c, 0, 67, 100
1, 407239, Note_on_c, 0, 71, 100
1, 407335, Note_off_c, 0, 71, 100
1, 407335, Note_on_c, 0, 62, 100
1, 407447, Note_off_c, 0, 62, 100
1, 407447, Note_on_c, 0, 65, 100
1, 407511, Note_off_c, 0, 65, 100
1, 407511, Note_on_c, 0, 69, 100
1, 407575, Note_off_c, 0, 69, 100
1, 407575, Note_on_c, 0, 71, 100
1, 407671, Note_off_c, 0, 71, 100
1, 407671, Note_on_c, 0, 79, 100
1, 407863, Note_off_c, 0, 79, 100
1, 408727, Note_on_c, 0, 56, 100
1, 408823, Note_off_c, 0, 56, 100
1, 408823, Note_on_c, 0, 68, 100
1, 408919, Note_off_c, 0, 68, 100
1, 408919, Note_on_c, 0, 59, 100
1, 408983, Note_off_c, 0, 59, 100
1, 408983, Note_on_c, 0, 58, 100
1, 409047, Note_off_c, 0, 58, 100
1, 409047, Note_on_c, 0, 59, 100
1, 409111, Note_off_c, 0, 59, 100
1, 409111, Note_on_c, 0, 58, 100
1, 409207, Note_off_c, 0, 58, 100
1, 409207, Note_on_c, 0, 68, 100
1, 409303, Note_off_c, 0, 68, 100
1, 409303, Note_on_c, 0, 58, 100
1, 409591, Note_off_c, 0, 58, 100
1, 409591, Note_on_c, 0, 68, 100
1, 409687, Note_off_c, 0, 68, 100
1, 409687, Note_on_c, 0, 63, 100
1, 409783, Note_off_c, 0, 63, 100
1, 409783, Note_on_c, 0, 66, 100
1, 409831, Note_off_c, 0, 66, 100
1, 409831, Note_on_c, 0, 70, 100
1, 409927, Note_off_c, 0, 70, 100
1, 410263, Note_on_c, 0, 47, 100
1, 410359, Note_off_c, 0, 47, 100
1, 410359, Note_on_c, 0, 54, 100
1, 410455, Note_off_c, 0, 54, 100
1, 410455, Note_on_c, 0, 68, 100
1, 410503, Note_off_c, 0, 68, 100
1, 410503, Note_on_c, 0, 67, 100
1, 410599, Note_off_c, 0, 67, 100
1, 410599, Note_on_c, 0, 70, 100
1, 410711, Note_off_c, 0, 70, 100
1, 410711, Note_on_c, 0, 66, 100
1, 410775, Note_off_c, 0, 66, 100
1, 410775, Note_on_c, 0, 63, 100
1, 410887, Note_off_c, 0, 63, 100
1, 410887, Note_on_c, 0, 65, 100
1, 410935, Note_off_c, 0, 65, 100
1, 410935, Note_on_c, 0, 66, 100
1, 410983, Note_off_c, 0, 66, 100
1, 410983, Note_on_c, 0, 68, 100
1, 411031, Note_off_c, 0, 68, 100
1, 411031, Note_on_c, 0, 67, 100
1, 411127, Note_off_c, 0, 67, 100
1, 411127, Note_on_c, 0, 69, 100
1, 411223, Note_off_c, 0, 69, 100
1, 411751, Note_on_c, 0, 61, 100
1, 411799, Note_off_c, 0, 61, 100
1, 411799, Note_on_c, 0, 62, 100
1, 411847, Note_off_c, 0, 62, 100
1, 411847, Note_on_c, 0, 63, 100
1, 411943, Note_off_c, 0, 63, 100
1, 411943, Note_on_c, 0, 68, 100
1, 412039, Note_off_c, 0, 68, 100
1, 412039, Note_on_c, 0, 67, 100
1, 412135, Note_off_c, 0, 67, 100
1, 412135, Note_on_c, 0, 69, 100
1, 412221, Note_off_c, 0, 69, 100
1, 412221, Note_on_c, 0, 68, 100
1, 412259, Note_off_c, 0, 68, 100
1, 412259, Note_on_c, 0, 63, 100
1, 412335, Note_off_c, 0, 63, 100
1, 412335, Note_on_c, 0, 66, 100
1, 412373, Note_off_c, 0, 66, 100
1, 412373, Note_on_c, 0, 64, 100
1, 412469, Note_off_c, 0, 64, 100
1, 412709, Note_on_c, 0, 64, 100
1, 412821, Note_off_c, 0, 64, 100
1, 412821, Note_on_c, 0, 67, 100
1, 412885, Note_off_c, 0, 67, 100
1, 412885, Note_on_c, 0, 69, 100
1, 413013, Note_off_c, 0, 69, 100
1, 413013, Note_on_c, 0, 62, 100
1, 413077, Note_off_c, 0, 62, 100
1, 413077, Note_on_c, 0, 68, 100
1, 413141, Note_off_c, 0, 68, 100
1, 413141, Note_on_c, 0, 67, 100
1, 413237, Note_off_c, 0, 67, 100
1, 413237, Note_on_c, 0, 65, 100
1, 413397, Note_off_c, 0, 65, 100
1, 413397, Note_on_c, 0, 69, 100
1, 413525, Note_off_c, 0, 69, 100
1, 413525, Note_on_c, 0, 60, 100
1, 413621, Note_off_c, 0, 60, 100
1, 413621, Note_on_c, 0, 65, 100
1, 413669, Note_off_c, 0, 65, 100
1, 413669, Note_on_c, 0, 69, 100
1, 413765, Note_off_c, 0, 69, 100
1, 413765, Note_on_c, 0, 71, 100
1, 413861, Note_off_c, 0, 71, 100
1, 413861, Note_on_c, 0, 63, 100
1, 413909, Note_off_c, 0, 63, 100
1, 413909, Note_on_c, 0, 66, 100
1, 414101, Note_off_c, 0, 66, 100
1, 414101, Note_on_c, 0, 70, 100
1, 414197, Note_off_c, 0, 70, 100
1, 414197, Note_on_c, 0, 71, 100
1, 414293, Note_off_c, 0, 71, 100
1, 414293, Note_on_c, 0, 68, 100
1, 414389, Note_off_c, 0, 68, 100
1, 414389, Note_on_c, 0, 63, 100
1, 414485, Note_off_c, 0, 63, 100
1, 415061, Note_on_c, 0, 70, 100
1, 415253, Note_off_c, 0, 70, 100
1, 415253, Note_on_c, 0, 62, 100
1, 415349, Note_off_c, 0, 62, 100
1, 415349, Note_on_c, 0, 65, 100
1, 415445, Note_off_c, 0, 65, 100
1, 415445, Note_on_c, 0, 63, 100
1, 415541, Note_off_c, 0, 63, 100
1, 415541, Note_on_c, 0, 65, 100
1, 415637, Note_off_c, 0, 65, 100
1, 415637, Note_on_c, 0, 70, 100
1, 415685, Note_off_c, 0, 70, 100
1, 415685, Note_on_c, 0, 61, 100
1, 415733, Note_off_c, 0, 61, 100
1, 415733, Note_on_c, 0, 61, 100
1, 415781, Note_off_c, 0, 61, 100
1, 415781, Note_on_c, 0, 58, 100
1, 415925, Note_off_c, 0, 58, 100
1, 415925, Note_on_c, 0, 54, 100
1, 415973, Note_off_c, 0, 54, 100
1, 415973, Note_on_c, 0, 53, 100
1, 416021, Note_off_c, 0, 53, 100
1, 416021, Note_on_c, 0, 49, 100
1, 416117, Note_off_c, 0, 49, 100
1, 416117, Note_on_c, 0, 54, 100
1, 416213, Note_off_c, 0, 54, 100
1, 416213, Note_on_c, 0, 49, 100
1, 416309, Note_off_c, 0, 49, 100
1, 416309, Note_on_c, 0, 54, 100
1, 416405, Note_off_c, 0, 54, 100
1, 416405, Note_on_c, 0, 67, 100
1, 416501, Note_off_c, 0, 67, 100
1, 416501, Note_on_c, 0, 62, 100
1, 416597, Note_off_c, 0, 62, 100
1, 416597, Note_on_c, 0, 67, 100
1, 416645, Note_off_c, 0, 67, 100
1, 416645, Note_on_c, 0, 68, 100
1, 416693, Note_off_c, 0, 68, 100
1, 416693, Note_on_c, 0, 67, 100
1, 416885, Note_off_c, 0, 67, 100
1, 416885, Note_on_c, 0, 67, 100
1, 416933, Note_off_c, 0, 67, 100
1, 416933, Note_on_c, 0, 68, 100
1, 417045, Note_off_c, 0, 68, 100
1, 417045, Note_on_c, 0, 67, 100
1, 417237, Note_off_c, 0, 67, 100
1, 417237, Note_on_c, 0, 67, 100
1, 417301, Note_off_c, 0, 67, 100
1, 417301, Note_on_c, 0, 64, 100
1, 417413, Note_off_c, 0, 64, 100
1, 417413, Note_on_c, 0, 66, 100
1, 417461, Note_off_c, 0, 66, 100
1, 417461, Note_on_c, 0, 67, 100
1, 417605, Note_off_c, 0, 67, 100
1, 417605, Note_on_c, 0, 71, 100
1, 417701, Note_off_c, 0, 71, 100
1, 417701, Note_on_c, 0, 63, 100
1, 417813, Note_off_c, 0, 63, 100
1, 417813, Note_on_c, 0, 68, 100
1, 417877, Note_off_c, 0, 68, 100
1, 417877, Note_on_c, 0, 71, 100
1, 417941, Note_off_c, 0, 71, 100
1, 417941, Note_on_c, 0, 70, 100
1, 418005, Note_off_c, 0, 70, 100
1, 418005, Note_on_c, 0, 68, 100
1, 418069, Note_off_c, 0, 68, 100
1, 418069, Note_on_c, 0, 70, 100
1, 418197, Note_off_c, 0, 70, 100
1, 418197, Note_on_c, 0, 68, 100
1, 418261, Note_off_c, 0, 68, 100
1, 418261, Note_on_c, 0, 67, 100
1, 418325, Note_off_c, 0, 67, 100
1, 418325, Note_on_c, 0, 67, 100
1, 418517, Note_off_c, 0, 67, 100
1, 418517, Note_on_c, 0, 60, 100
1, 418613, Note_off_c, 0, 60, 100
1, 418613, Note_on_c, 0, 65, 100
1, 418709, Note_off_c, 0, 65, 100
1, 418709, Note_on_c, 0, 69, 100
1, 418757, Note_off_c, 0, 69, 100
1, 418757, Note_on_c, 0, 74, 100
1, 418805, Note_off_c, 0, 74, 100
1, 418805, Note_on_c, 0, 73, 100
1, 418853, Note_off_c, 0, 73, 100
1, 418853, Note_on_c, 0, 71, 100
1, 418901, Note_off_c, 0, 71, 100
1, 418901, Note_on_c, 0, 69, 100
1, 418997, Note_off_c, 0, 69, 100
1, 418997, Note_on_c, 0, 65, 100
1, 419093, Note_off_c, 0, 65, 100
1, 419093, Note_on_c, 0, 62, 100
1, 419189, Note_off_c, 0, 62, 100
1, 419189, Note_on_c, 0, 57, 100
1, 419285, Note_off_c, 0, 57, 100
1, 419285, Note_on_c, 0, 65, 100
1, 419477, Note_off_c, 0, 65, 100
1, 419477, Note_on_c, 0, 67, 100
1, 419669, Note_off_c, 0, 67, 100
1, 419669, Note_on_c, 0, 69, 100
1, 419765, Note_off_c, 0, 69, 100
1, 419765, Note_on_c, 0, 68, 100
1, 419813, Note_off_c, 0, 68, 100
1, 419813, Note_on_c, 0, 65, 100
1, 419861, Note_off_c, 0, 65, 100
1, 419861, Note_on_c, 0, 64, 100
1, 419957, Note_off_c, 0, 64, 100
1, 420885, Note_on_c, 0, 62, 100
1, 421013, Note_off_c, 0, 62, 100
1, 421013, Note_on_c, 0, 65, 100
1, 421061, Note_off_c, 0, 65, 100
1, 421061, Note_on_c, 0, 67, 100
1, 421157, Note_off_c, 0, 67, 100
1, 421157, Note_on_c, 0, 69, 100
1, 421205, Note_off_c, 0, 69, 100
1, 421205, Note_on_c, 0, 62, 100
1, 421301, Note_off_c, 0, 62, 100
1, 421301, Note_on_c, 0, 65, 100
1, 421445, Note_off_c, 0, 65, 100
1, 421445, Note_on_c, 0, 67, 100
1, 421541, Note_off_c, 0, 67, 100
1, 421541, Note_on_c, 0, 69, 100
1, 421685, Note_off_c, 0, 69, 100
1, 421685, Note_on_c, 0, 62, 100
1, 421781, Note_off_c, 0, 62, 100
1, 421781, Note_on_c, 0, 65, 100
1, 421845, Note_off_c, 0, 65, 100
1, 421845, Note_on_c, 0, 67, 100
1, 421909, Note_off_c, 0, 67, 100
1, 421909, Note_on_c, 0, 69, 100
1, 421973, Note_off_c, 0, 69, 100
1, 421973, Note_on_c, 0, 68, 100
1, 422069, Note_off_c, 0, 68, 100
1, 422741, Note_on_c, 0, 69, 100
1, 422837, Note_off_c, 0, 69, 100
1, 422837, Note_on_c, 0, 62, 100
1, 422933, Note_off_c, 0, 62, 100
1, 422933, Note_on_c, 0, 66, 100
1, 423029, Note_off_c, 0, 66, 100
1, 423029, Note_on_c, 0, 67, 100
1, 423125, Note_off_c, 0, 67, 100
1, 423125, Note_on_c, 0, 69, 100
1, 423269, Note_off_c, 0, 69, 100
1, 423269, Note_on_c, 0, 62, 100
1, 423365, Note_off_c, 0, 62, 100
1, 423365, Note_on_c, 0, 65, 100
1, 423413, Note_off_c, 0, 65, 100
1, 423413, Note_on_c, 0, 67, 100
1, 423461, Note_off_c, 0, 67, 100
1, 423461, Note_on_c, 0, 69, 100
1, 423509, Note_off_c, 0, 69, 100
1, 423509, Note_on_c, 0, 62, 100
1, 423605, Note_off_c, 0, 62, 100
1, 424613, Note_on_c, 0, 68, 100
1, 424709, Note_off_c, 0, 68, 100
1, 424709, Note_on_c, 0, 67, 100
1, 424805, Note_off_c, 0, 67, 100
1, 424805, Note_on_c, 0, 69, 100
1, 425045, Note_off_c, 0, 69, 100
1, 425045, Note_on_c, 0, 67, 100
1, 425109, Note_off_c, 0, 67, 100
1, 425109, Note_on_c, 0, 69, 100
1, 425173, Note_off_c, 0, 69, 100
1, 425173, Note_on_c, 0, 67, 100
1, 425301, Note_off_c, 0, 67, 100
1, 425301, Note_on_c, 0, 65, 100
1, 425669, Note_off_c, 0, 65, 100
1, 425669, Note_on_c, 0, 62, 100
1, 425765, Note_off_c, 0, 62, 100
1, 425765, Note_on_c, 0, 65, 100
1, 425957, Note_off_c, 0, 65, 100
1, 425957, Note_on_c, 0, 67, 100
1, 426005, Note_off_c, 0, 67, 100
1, 426005, Note_on_c, 0, 62, 100
1, 426197, Note_off_c, 0, 62, 100
1, 427061, Note_on_c, 0, 64, 100
1, 427157, Note_off_c, 0, 64, 100
1, 427157, Note_on_c, 0, 65, 100
1, 427205, Note_off_c, 0, 65, 100
1, 427205, Note_on_c, 0, 67, 100
1, 427301, Note_off_c, 0, 67, 100
1, 427301, Note_on_c, 0, 69, 100
1, 427445, Note_off_c, 0, 69, 100
1, 427445, Note_on_c, 0, 64, 100
1, 427541, Note_off_c, 0, 64, 100
1, 427541, Note_on_c, 0, 65, 100
1, 427637, Note_off_c, 0, 65, 100
1, 427637, Note_on_c, 0, 67, 100
1, 427685, Note_off_c, 0, 67, 100
1, 427685, Note_on_c, 0, 69, 100
1, 427797, Note_off_c, 0, 69, 100
1, 427797, Note_on_c, 0, 64, 100
1, 427925, Note_off_c, 0, 64, 100
1, 427925, Note_on_c, 0, 65, 100
1, 427973, Note_off_c, 0, 65, 100
1, 427973, Note_on_c, 0, 67, 100
1, 428021, Note_off_c, 0, 67, 100
1, 428021, Note_on_c, 0, 69, 100
1, 428117, Note_off_c, 0, 69, 100
1, 428117, Note_on_c, 0, 68, 100
1, 428213, Note_off_c, 0, 68, 100
1, 428213, Note_on_c, 0, 64, 100
1, 428309, Note_off_c, 0, 64, 100
1, 428309, Note_on_c, 0, 65, 100
1, 428373, Note_off_c, 0, 65, 100
1, 428373, Note_on_c, 0, 67, 100
1, 428437, Note_off_c, 0, 67, 100
1, 428437, Note_on_c, 0, 69, 100
1, 428645, Note_off_c, 0, 69, 100
1, 428645, Note_on_c, 0, 83, 100
1, 428885, Note_off_c, 0, 83, 100
1, 428885, Note_on_c, 0, 69, 100
1, 429077, Note_off_c, 0, 69, 100
1, 429077, Note_on_c, 0, 74, 100
1, 429269, Note_off_c, 0, 74, 100
1, 429269, Note_on_c, 0, 69, 100
1, 429461, Note_off_c, 0, 69, 100
1, 429461, Note_on_c, 0, 74, 100
1, 429653, Note_off_c, 0, 74, 100
1, 429653, Note_on_c, 0, 69, 100
1, 429749, Note_off_c, 0, 69, 100
1, 429749, Note_on_c, 0, 68, 100
1, 429845, Note_off_c, 0, 68, 100
1, 430373, Note_on_c, 0, 69, 100
1, 430421, Note_off_c, 0, 69, 100
1, 430421, Note_on_c, 0, 71, 100
1, 430469, Note_off_c, 0, 71, 100
1, 430469, Note_on_c, 0, 69, 100
1, 430517, Note_off_c, 0, 69, 100
1, 430517, Note_on_c, 0, 68, 100
1, 430565, Note_off_c, 0, 68, 100
1, 430565, Note_on_c, 0, 69, 100
1, 430661, Note_off_c, 0, 69, 100
1, 430661, Note_on_c, 0, 74, 100
1, 430757, Note_off_c, 0, 74, 100
1, 430757, Note_on_c, 0, 68, 100
1, 430949, Note_off_c, 0, 68, 100
1, 430949, Note_on_c, 0, 74, 100
1, 431093, Note_off_c, 0, 74, 100
1, 431093, Note_on_c, 0, 71, 100
1, 431189, Note_off_c, 0, 71, 100
1, 431189, Note_on_c, 0, 67, 100
1, 431285, Note_off_c, 0, 67, 100
1, 431285, Note_on_c, 0, 66, 100
1, 431445, Note_off_c, 0, 66, 100
1, 431445, Note_on_c, 0, 68, 100
1, 431509, Note_off_c, 0, 68, 100
1, 431509, Note_on_c, 0, 66, 100
1, 431605, Note_off_c, 0, 66, 100
1, 431909, Note_on_c, 0, 66, 100
1, 432021, Note_off_c, 0, 66, 100
1, 432021, Note_on_c, 0, 65, 100
1, 432085, Note_off_c, 0, 65, 100
1, 432085, Note_on_c, 0, 66, 100
1, 432197, Note_off_c, 0, 66, 100
1, 432197, Note_on_c, 0, 70, 100
1, 432293, Note_off_c, 0, 70, 100
1, 432293, Note_on_c, 0, 65, 100
1, 432389, Note_off_c, 0, 65, 100
1, 432389, Note_on_c, 0, 64, 100
1, 432485, Note_off_c, 0, 64, 100
1, 432485, Note_on_c, 0, 65, 100
1, 432597, Note_off_c, 0, 65, 100
1, 432597, Note_on_c, 0, 67, 100
1, 432661, Note_off_c, 0, 67, 100
1, 432661, Note_on_c, 0, 62, 100
1, 432757, Note_off_c, 0, 62, 100
1, 433493, Note_on_c, 0, 66, 100
1, 433557, Note_off_c, 0, 66, 100
1, 433557, Note_on_c, 0, 65, 100
1, 433621, Note_off_c, 0, 65, 100
1, 433621, Note_on_c, 0, 66, 100
1, 433781, Note_off_c, 0, 66, 100
1, 433781, Note_on_c, 0, 70, 100
1, 433877, Note_off_c, 0, 70, 100
1, 433877, Note_on_c, 0, 69, 100
1, 433973, Note_off_c, 0, 69, 100
1, 433973, Note_on_c, 0, 68, 100
1, 434069, Note_off_c, 0, 68, 100
1, 434069, Note_on_c, 0, 63, 100
1, 434165, Note_off_c, 0, 63, 100
1, 434165, Note_on_c, 0, 70, 100
1, 434213, Note_off_c, 0, 70, 100
1, 434213, Note_on_c, 0, 67, 100
1, 434357, Note_off_c, 0, 67, 100
1, 434357, Note_on_c, 0, 68, 100
1, 434645, Note_off_c, 0, 68, 100
1, 434645, Note_on_c, 0, 67, 100
1, 434709, Note_off_c, 0, 67, 100
1, 434709, Note_on_c, 0, 68, 100
1, 434773, Note_off_c, 0, 68, 100
1, 434773, Note_on_c, 0, 70, 100
1, 434933, Note_off_c, 0, 70, 100
1, 434933, Note_on_c, 0, 68, 100
1, 434981, Note_off_c, 0, 68, 100
1, 434981, Note_on_c, 0, 64, 100
1, 435093, Note_off_c, 0, 64, 100
1, 435093, Note_on_c, 0, 66, 100
1, 435157, Note_off_c, 0, 66, 100
1, 435157, Note_on_c, 0, 68, 100
1, 435269, Note_off_c, 0, 68, 100
1, 435269, Note_on_c, 0, 69, 100
1, 435365, Note_off_c, 0, 69, 100
1, 435365, Note_on_c, 0, 65, 100
1, 435477, Note_off_c, 0, 65, 100
1, 435477, Note_on_c, 0, 61, 100
1, 435541, Note_off_c, 0, 61, 100
1, 435541, Note_on_c, 0, 59, 100
1, 435605, Note_off_c, 0, 59, 100
1, 435605, Note_on_c, 0, 58, 100
1, 435701, Note_off_c, 0, 58, 100
1, 435701, Note_on_c, 0, 57, 100
1, 435845, Note_off_c, 0, 57, 100
1, 435845, Note_on_c, 0, 56, 100
1, 435941, Note_off_c, 0, 56, 100
1, 435941, Note_on_c, 0, 55, 100
1, 436037, Note_off_c, 0, 55, 100
1, 436037, Note_on_c, 0, 59, 100
1, 436133, Note_off_c, 0, 59, 100
1, 436133, Note_on_c, 0, 57, 100
1, 436325, Note_off_c, 0, 57, 100
1, 437205, Note_on_c, 0, 59, 100
1, 437269, Note_off_c, 0, 59, 100
1, 437269, Note_on_c, 0, 58, 100
1, 437381, Note_off_c, 0, 58, 100
1, 437381, Note_on_c, 0, 54, 100
1, 437477, Note_off_c, 0, 54, 100
1, 437477, Note_on_c, 0, 53, 100
1, 437525, Note_off_c, 0, 53, 100
1, 437525, Note_on_c, 0, 51, 100
1, 437717, Note_off_c, 0, 51, 100
1, 437717, Note_on_c, 0, 56, 100
1, 437957, Note_off_c, 0, 56, 100
1, 437957, Note_on_c, 0, 53, 100
1, 438053, Note_off_c, 0, 53, 100
1, 438053, Note_on_c, 0, 48, 100
1, 438149, Note_off_c, 0, 48, 100
1, 438149, Note_on_c, 0, 53, 100
1, 438245, Note_off_c, 0, 53, 100
1, 438245, Note_on_c, 0, 51, 100
1, 438357, Note_off_c, 0, 51, 100
1, 438357, Note_on_c, 0, 45, 100
1, 438453, Note_off_c, 0, 45, 100
1, 439589, Note_on_c, 0, 67, 100
1, 439829, Note_off_c, 0, 67, 100
1, 439829, Note_on_c, 0, 71, 100
1, 439925, Note_off_c, 0, 71, 100
1, 439925, Note_on_c, 0, 69, 100
1, 440021, Note_off_c, 0, 69, 100
1, 440021, Note_on_c, 0, 66, 100
1, 440117, Note_off_c, 0, 66, 100
1, 440117, Note_on_c, 0, 65, 100
1, 440213, Note_off_c, 0, 65, 100
1, 440213, Note_on_c, 0, 64, 100
1, 440309, Note_off_c, 0, 64, 100
1, 440309, Note_on_c, 0, 63, 100
1, 440501, Note_off_c, 0, 63, 100
1, 441125, Note_on_c, 0, 63, 100
1, 441221, Note_off_c, 0, 63, 100
1, 441221, Note_on_c, 0, 62, 100
1, 441317, Note_off_c, 0, 62, 100
1, 441317, Note_on_c, 0, 63, 100
1, 441429, Note_off_c, 0, 63, 100
1, 441429, Note_on_c, 0, 65, 100
1, 441557, Note_off_c, 0, 65, 100
1, 441557, Note_on_c, 0, 66, 100
1, 441653, Note_off_c, 0, 66, 100
1, 441653, Note_on_c, 0, 68, 100
1, 441797, Note_off_c, 0, 68, 100
1, 441797, Note_on_c, 0, 70, 100
1, 441893, Note_off_c, 0, 70, 100
1, 441893, Note_on_c, 0, 62, 100
1, 442005, Note_off_c, 0, 62, 100
1, 442005, Note_on_c, 0, 61, 100
1, 442069, Note_off_c, 0, 61, 100
1, 442069, Note_on_c, 0, 59, 100
1, 442165, Note_off_c, 0, 59, 100
1, 442661, Note_on_c, 0, 61, 100
1, 442773, Note_off_c, 0, 61, 100
1, 442773, Note_on_c, 0, 63, 100
1, 442965, Note_off_c, 0, 63, 100
1, 442965, Note_on_c, 0, 65, 100
1, 443029, Note_off_c, 0, 65, 100
1, 443029, Note_on_c, 0, 60, 100
1, 443141, Note_off_c, 0, 60, 100
1, 443141, Note_on_c, 0, 66, 100
1, 443237, Note_off_c, 0, 66, 100
1, 443237, Note_on_c, 0, 69, 100
1, 443381, Note_off_c, 0, 69, 100
1, 443381, Note_on_c, 0, 71, 100
1, 443477, Note_off_c, 0, 71, 100
1, 443477, Note_on_c, 0, 67, 100
1, 443573, Note_off_c, 0, 67, 100
1, 443573, Note_on_c, 0, 62, 100
1, 443669, Note_off_c, 0, 62, 100
1, 443669, Note_on_c, 0, 58, 100
1, 443861, Note_off_c, 0, 58, 100
1, 443861, Note_on_c, 0, 63, 100
1, 443957, Note_off_c, 0, 63, 100
1, 443957, Note_on_c, 0, 62, 100
1, 444053, Note_off_c, 0, 62, 100
1, 444053, Note_on_c, 0, 63, 100
1, 444117, Note_off_c, 0, 63, 100
1, 444117, Note_on_c, 0, 67, 100
1, 444181, Note_off_c, 0, 67, 100
1, 444181, Note_on_c, 0, 64, 100
1, 444293, Note_off_c, 0, 64, 100
1, 444293, Note_on_c, 0, 66, 100
1, 444389, Note_off_c, 0, 66, 100
1, 444389, Note_on_c, 0, 68, 100
1, 444485, Note_off_c, 0, 68, 100
1, 444485, Note_on_c, 0, 70, 100
1, 444581, Note_off_c, 0, 70, 100
1, 444581, Note_on_c, 0, 66, 100
1, 444677, Note_off_c, 0, 66, 100
1, 444677, Note_on_c, 0, 63, 100
1, 444773, Note_off_c, 0, 63, 100
1, 444773, Note_on_c, 0, 59, 100
1, 444869, Note_off_c, 0, 59, 100
1, 444869, Note_on_c, 0, 58, 100
1, 444965, Note_off_c, 0, 58, 100
1, 444965, Note_on_c, 0, 57, 100
1, 445109, Note_off_c, 0, 57, 100
1, 445109, Note_on_c, 0, 56, 100
1, 445205, Note_off_c, 0, 56, 100
1, 445205, Note_on_c, 0, 55, 100
1, 445301, Note_off_c, 0, 55, 100
1, 445301, Note_on_c, 0, 59, 100
1, 445397, Note_off_c, 0, 59, 100
1, 445397, Note_on_c, 0, 57, 100
1, 445445, Note_off_c, 0, 57, 100
1, 445445, Note_on_c, 0, 62, 100
1, 445541, Note_off_c, 0, 62, 100
1, 445541, Note_on_c, 0, 65, 100
1, 445685, Note_off_c, 0, 65, 100
1, 445685, Note_on_c, 0, 62, 100
1, 445781, Note_off_c, 0, 62, 100
1, 445781, Note_on_c, 0, 62, 100
1, 445973, Note_off_c, 0, 62, 100
1, 445973, Note_on_c, 0, 57, 100
1, 446165, Note_off_c, 0, 57, 100
1, 446501, Note_on_c, 0, 57, 100
1, 446741, Note_off_c, 0, 57, 100
1, 446741, Note_on_c, 0, 52, 100
1, 446837, Note_off_c, 0, 52, 100
1, 446837, Note_on_c, 0, 57, 100
1, 447029, Note_off_c, 0, 57, 100
1, 447029, Note_on_c, 0, 53, 100
1, 447125, Note_off_c, 0, 53, 100
1, 447125, Note_on_c, 0, 50, 100
1, 447221, Note_off_c, 0, 50, 100
1, 447957, Note_on_c, 0, 69, 100
1, 448149, Note_off_c, 0, 69, 100
1, 448149, Note_on_c, 0, 70, 100
1, 448213, Note_off_c, 0, 70, 100
1, 448213, Note_on_c, 0, 69, 100
1, 448421, Note_off_c, 0, 69, 100
1, 448421, Note_on_c, 0, 49, 100
1, 448661, Note_off_c, 0, 49, 100
1, 448661, Note_on_c, 0, 66, 100
1, 448757, Note_off_c, 0, 66, 100
1, 448757, Note_on_c, 0, 68, 100
1, 448853, Note_off_c, 0, 68, 100
1, 448853, Note_on_c, 0, 66, 100
1, 448997, Note_off_c, 0, 66, 100
1, 448997, Note_on_c, 0, 64, 100
1, 449045, Note_off_c, 0, 64, 100
1, 449045, Note_on_c, 0, 69, 100
1, 449141, Note_off_c, 0, 69, 100
1, 449141, Note_on_c, 0, 70, 100
1, 449237, Note_off_c, 0, 70, 100
1, 449237, Note_on_c, 0, 58, 100
1, 449333, Note_off_c, 0, 58, 100
1, 450389, Note_on_c, 0, 61, 100
1, 450437, Note_off_c, 0, 61, 100
1, 450437, Note_on_c, 0, 63, 100
1, 450485, Note_off_c, 0, 63, 100
1, 450485, Note_on_c, 0, 65, 100
1, 450645, Note_off_c, 0, 65, 100
1, 450645, Note_on_c, 0, 70, 100
1, 450773, Note_off_c, 0, 70, 100
1, 450773, Note_on_c, 0, 63, 100
1, 450869, Note_off_c, 0, 63, 100
1, 450869, Note_on_c, 0, 66, 100
1, 450917, Note_off_c, 0, 66, 100
1, 450917, Note_on_c, 0, 68, 100
1, 451013, Note_off_c, 0, 68, 100
1, 451013, Note_on_c, 0, 63, 100
1, 451109, Note_off_c, 0, 63, 100
1, 451109, Note_on_c, 0, 61, 100
1, 451157, Note_off_c, 0, 61, 100
1, 451157, Note_on_c, 0, 59, 100
1, 451253, Note_off_c, 0, 59, 100
1, 451253, Note_on_c, 0, 58, 100
1, 451397, Note_off_c, 0, 58, 100
1, 451397, Note_on_c, 0, 57, 100
1, 451493, Note_off_c, 0, 57, 100
1, 451925, Note_on_c, 0, 57, 100
1, 452213, Note_off_c, 0, 57, 100
1, 452213, Note_on_c, 0, 59, 100
1, 452261, Note_off_c, 0, 59, 100
1, 452261, Note_on_c, 0, 61, 100
1, 452357, Note_off_c, 0, 61, 100
1, 452357, Note_on_c, 0, 62, 100
1, 452501, Note_off_c, 0, 62, 100
1, 452501, Note_on_c, 0, 64, 100
1, 452597, Note_off_c, 0, 64, 100
1, 452597, Note_on_c, 0, 61, 100
1, 452693, Note_off_c, 0, 61, 100
1, 452693, Note_on_c, 0, 62, 100
1, 452789, Note_off_c, 0, 62, 100
1, 452789, Note_on_c, 0, 64, 100
1, 452885, Note_off_c, 0, 64, 100
1, 452885, Note_on_c, 0, 65, 100
1, 452981, Note_off_c, 0, 65, 100
1, 452981, Note_on_c, 0, 67, 100
1, 453077, Note_off_c, 0, 67, 100
1, 453077, Note_on_c, 0, 61, 100
1, 453173, Note_off_c, 0, 61, 100
1, 453173, Note_on_c, 0, 66, 100
1, 453269, Note_off_c, 0, 66, 100
1, 453269, Note_on_c, 0, 68, 100
1, 453317, Note_off_c, 0, 68, 100
1, 453317, Note_on_c, 0, 71, 100
1, 453365, Note_off_c, 0, 71, 100
1, 453365, Note_on_c, 0, 70, 100
1, 453413, Note_off_c, 0, 70, 100
1, 453413, Note_on_c, 0, 67, 100
1, 453557, Note_off_c, 0, 67, 100
1, 453557, Note_on_c, 0, 66, 100
1, 453653, Note_off_c, 0, 66, 100
1, 453653, Note_on_c, 0, 69, 100
1, 453749, Note_off_c, 0, 69, 100
1, 453749, Note_on_c, 0, 71, 100
1, 453845, Note_off_c, 0, 71, 100
1, 453845, Note_on_c, 0, 62, 100
1, 453941, Note_off_c, 0, 62, 100
1, 453941, Note_on_c, 0, 60, 100
1, 454037, Note_off_c, 0, 60, 100
1, 454037, Note_on_c, 0, 59, 100
1, 454085, Note_off_c, 0, 59, 100
1, 454085, Note_on_c, 0, 55, 100
1, 454181, Note_off_c, 0, 55, 100
1, 454181, Note_on_c, 0, 63, 100
1, 454325, Note_off_c, 0, 63, 100
1, 454325, Note_on_c, 0, 62, 100
1, 454373, Note_off_c, 0, 62, 100
1, 454373, Note_on_c, 0, 63, 100
1, 454421, Note_off_c, 0, 63, 100
1, 454421, Note_on_c, 0, 65, 100
1, 454613, Note_off_c, 0, 65, 100
1, 454613, Note_on_c, 0, 66, 100
1, 454709, Note_off_c, 0, 66, 100
1, 454709, Note_on_c, 0, 67, 100
1, 455093, Note_off_c, 0, 67, 100
1, 455093, Note_on_c, 0, 70, 100
1, 455189, Note_off_c, 0, 70, 100
1, 455189, Note_on_c, 0, 63, 100
1, 455285, Note_off_c, 0, 63, 100
1, 455285, Note_on_c, 0, 62, 100
1, 455333, Note_off_c, 0, 62, 100
1, 455333, Note_on_c, 0, 61, 100
1, 455477, Note_off_c, 0, 61, 100
1, 455477, Note_on_c, 0, 62, 100
1, 455573, Note_off_c, 0, 62, 100
1, 455573, Note_on_c, 0, 63, 100
1, 455637, Note_off_c, 0, 63, 100
1, 455637, Note_on_c, 0, 67, 100
1, 455701, Note_off_c, 0, 67, 100
1, 455701, Note_on_c, 0, 64, 100
1, 455813, Note_off_c, 0, 64, 100
1, 455813, Note_on_c, 0, 66, 100
1, 455909, Note_off_c, 0, 66, 100
1, 455909, Note_on_c, 0, 68, 100
1, 456005, Note_off_c, 0, 68, 100
1, 456005, Note_on_c, 0, 70, 100
1, 456101, Note_off_c, 0, 70, 100
1, 456101, Note_on_c, 0, 66, 100
1, 456213, Note_off_c, 0, 66, 100
1, 456213, Note_on_c, 0, 55, 100
1, 456277, Note_off_c, 0, 55, 100
1, 456277, Note_on_c, 0, 59, 100
1, 456389, Note_off_c, 0, 59, 100
1, 456389, Note_on_c, 0, 58, 100
1, 456485, Note_off_c, 0, 58, 100
1, 456485, Note_on_c, 0, 57, 100
1, 456629, Note_off_c, 0, 57, 100
1, 456629, Note_on_c, 0, 62, 100
1, 456677, Note_off_c, 0, 62, 100
1, 456677, Note_on_c, 0, 65, 100
1, 456789, Note_off_c, 0, 65, 100
1, 456789, Note_on_c, 0, 69, 100
1, 456853, Note_off_c, 0, 69, 100
1, 456853, Note_on_c, 0, 74, 100
1, 456917, Note_off_c, 0, 74, 100
1, 456917, Note_on_c, 0, 73, 100
1, 457061, Note_off_c, 0, 73, 100
1, 457061, Note_on_c, 0, 69, 100
1, 457109, Note_off_c, 0, 69, 100
1, 457109, Note_on_c, 0, 69, 100
1, 457301, Note_off_c, 0, 69, 100
1, 457301, Note_on_c, 0, 68, 100
1, 457397, Note_off_c, 0, 68, 100
1, 458357, Note_on_c, 0, 71, 100
1, 458405, Note_off_c, 0, 71, 100
1, 458405, Note_on_c, 0, 72, 100
1, 458837, Note_off_c, 0, 72, 100
1, 458837, Note_on_c, 0, 70, 100
1, 458933, Note_off_c, 0, 70, 100
1, 458933, Note_on_c, 0, 72, 100
1, 459093, Note_off_c, 0, 72, 100
1, 459093, Note_on_c, 0, 71, 100
1, 459157, Note_off_c, 0, 71, 100
1, 459157, Note_on_c, 0, 72, 100
1, 459605, Note_off_c, 0, 72, 100
1, 459605, Note_on_c, 0, 68, 100
1, 459701, Note_off_c, 0, 68, 100
1, 459701, Note_on_c, 0, 63, 100
1, 459893, Note_off_c, 0, 63, 100
1, 460085, Note_on_c, 0, 70, 100
1, 460181, Note_off_c, 0, 70, 100
1, 460181, Note_on_c, 0, 72, 100
1, 460629, Note_off_c, 0, 72, 100
1, 460629, Note_on_c, 0, 63, 100
1, 460693, Note_off_c, 0, 63, 100
1, 460693, Note_on_c, 0, 60, 100
1, 460853, Note_off_c, 0, 60, 100
1, 460853, Note_on_c, 0, 63, 100
1, 461013, Note_off_c, 0, 63, 100
1, 461013, Note_on_c, 0, 72, 100
1, 461189, Note_off_c, 0, 72, 100
1, 461189, Note_on_c, 0, 63, 100
1, 461333, Note_off_c, 0, 63, 100
1, 461333, Note_on_c, 0, 72, 100
1, 461461, Note_off_c, 0, 72, 100
1, 461461, Note_on_c, 0, 63, 100
1, 461621, Note_off_c, 0, 63, 100
1, 461621, Note_on_c, 0, 72, 100
1, 461765, Note_off_c, 0, 72, 100
1, 461765, Note_on_c, 0, 63, 100
1, 461909, Note_off_c, 0, 63, 100
1, 461909, Note_on_c, 0, 72, 100
1, 462101, Note_off_c, 0, 72, 100
1, 462101, Note_on_c, 0, 63, 100
1, 462197, Note_off_c, 0, 63, 100
1, 462197, Note_on_c, 0, 72, 100
1, 462357, Note_off_c, 0, 72, 100
1, 462357, Note_on_c, 0, 73, 100
1, 462485, Note_off_c, 0, 73, 100
1, 462485, Note_on_c, 0, 75, 100
1, 462773, Note_off_c, 0, 75, 100
1, 462773, Note_on_c, 0, 74, 100
1, 462965, Note_off_c, 0, 74, 100
1, 463397, Note_on_c, 0, 70, 100
1, 463445, Note_off_c, 0, 70, 100
1, 463445, Note_on_c, 0, 71, 100
1, 463733, Note_off_c, 0, 71, 100
1, 463733, Note_on_c, 0, 62, 100
1, 463829, Note_off_c, 0, 62, 100
1, 463829, Note_on_c, 0, 71, 100
1, 463957, Note_off_c, 0, 71, 100
1, 463957, Note_on_c, 0, 63, 100
1, 464021, Note_off_c, 0, 63, 100
1, 464021, Note_on_c, 0, 67, 100
1, 464117, Note_off_c, 0, 67, 100
1, 464117, Note_on_c, 0, 71, 100
1, 464213, Note_off_c, 0, 71, 100
1, 464213, Note_on_c, 0, 66, 100
1, 464309, Note_off_c, 0, 66, 100
1, 464309, Note_on_c, 0, 61, 100
1, 464405, Note_off_c, 0, 61, 100
1, 464597, Note_on_c, 0, 61, 100
1, 464693, Note_off_c, 0, 61, 100
1, 464693, Note_on_c, 0, 66, 100
1, 464885, Note_off_c, 0, 66, 100
1, 464885, Note_on_c, 0, 70, 100
1, 465077, Note_off_c, 0, 70, 100
1, 465077, Note_on_c, 0, 62, 100
1, 465173, Note_off_c, 0, 62, 100
1, 465173, Note_on_c, 0, 61, 100
1, 465237, Note_off_c, 0, 61, 100
1, 465237, Note_on_c, 0, 60, 100
1, 465301, Note_off_c, 0, 60, 100
1, 465301, Note_on_c, 0, 59, 100
1, 465397, Note_off_c, 0, 59, 100
1, 465701, Note_on_c, 0, 63, 100
1, 465845, Note_off_c, 0, 63, 100
1, 465845, Note_on_c, 0, 61, 100
1, 465941, Note_off_c, 0, 61, 100
1, 465941, Note_on_c, 0, 58, 100
1, 466037, Note_off_c, 0, 58, 100
1, 466037, Note_on_c, 0, 54, 100
1, 466133, Note_off_c, 0, 54, 100
1, 466133, Note_on_c, 0, 56, 100
1, 466181, Note_off_c, 0, 56, 100
1, 466181, Note_on_c, 0, 58, 100
1, 466277, Note_off_c, 0, 58, 100
1, 466277, Note_on_c, 0, 61, 100
1, 466389, Note_off_c, 0, 61, 100
1, 466389, Note_on_c, 0, 63, 100
1, 466453, Note_off_c, 0, 63, 100
1, 466453, Note_on_c, 0, 66, 100
1, 466565, Note_off_c, 0, 66, 100
1, 466565, Note_on_c, 0, 68, 100
1, 466613, Note_off_c, 0, 68, 100
1, 466613, Note_on_c, 0, 70, 100
1, 466773, Note_off_c, 0, 70, 100
1, 466773, Note_on_c, 0, 73, 100
1, 466837, Note_off_c, 0, 73, 100
1, 466837, Note_on_c, 0, 68, 100
1, 466933, Note_off_c, 0, 68, 100
1, 467237, Note_on_c, 0, 68, 100
1, 467285, Note_off_c, 0, 68, 100
1, 467285, Note_on_c, 0, 67, 100
1, 467477, Note_off_c, 0, 67, 100
1, 467477, Note_on_c, 0, 66, 100
1, 467573, Note_off_c, 0, 66, 100
1, 467573, Note_on_c, 0, 69, 100
1, 467669, Note_off_c, 0, 69, 100
1, 467669, Note_on_c, 0, 64, 100
1, 467765, Note_off_c, 0, 64, 100
1, 467765, Note_on_c, 0, 62, 100
1, 467861, Note_off_c, 0, 62, 100
1, 470357, Note_on_c, 0, 68, 100
1, 470453, Note_off_c, 0, 68, 100
1, 470453, Note_on_c, 0, 69, 100
1, 470613, Note_off_c, 0, 69, 100
1, 470613, Note_on_c, 0, 69, 100
1, 470741, Note_off_c, 0, 69, 100
1, 470741, Note_on_c, 0, 68, 100
1, 470837, Note_off_c, 0, 68, 100
1, 470837, Note_on_c, 0, 69, 100
1, 471125, Note_off_c, 0, 69, 100
1, 471125, Note_on_c, 0, 67, 100
1, 471269, Note_off_c, 0, 67, 100
1, 471269, Note_on_c, 0, 69, 100
1, 471461, Note_off_c, 0, 69, 100
1, 471893, Note_on_c, 0, 69, 100
1, 472021, Note_off_c, 0, 69, 100
1, 472021, Note_on_c, 0, 67, 100
1, 472181, Note_off_c, 0, 67, 100
1, 472181, Note_on_c, 0, 69, 100
1, 472661, Note_off_c, 0, 69, 100
1, 472661, Note_on_c, 0, 65, 100
1, 472757, Note_off_c, 0, 65, 100
1, 472757, Note_on_c, 0, 62, 100
1, 472853, Note_off_c, 0, 62, 100
1, 473429, Note_on_c, 0, 69, 100
1, 473573, Note_off_c, 0, 69, 100
1, 473573, Note_on_c, 0, 65, 100
1, 473765, Note_off_c, 0, 65, 100
1, 473765, Note_on_c, 0, 69, 100
1, 474149, Note_off_c, 0, 69, 100
1, 474149, Note_on_c, 0, 67, 100
1, 474261, Note_off_c, 0, 67, 100
1, 474261, Note_on_c, 0, 69, 100
1, 474485, Note_off_c, 0, 69, 100
1, 474485, Note_on_c, 0, 69, 100
1, 474965, Note_off_c, 0, 69, 100
1, 474965, Note_on_c, 0, 65, 100
1, 475061, Note_off_c, 0, 65, 100
1, 475061, Note_on_c, 0, 62, 100
1, 475157, Note_off_c, 0, 62, 100
1, 475637, Note_on_c, 0, 69, 100
1, 475925, Note_off_c, 0, 69, 100
1, 475925, Note_on_c, 0, 67, 100
1, 476021, Note_off_c, 0, 67, 100
1, 476021, Note_on_c, 0, 65, 100
1, 476117, Note_off_c, 0, 65, 100
1, 476117, Note_on_c, 0, 62, 100
1, 476245, Note_off_c, 0, 62, 100
1, 476245, Note_on_c, 0, 62, 100
1, 476309, Note_off_c, 0, 62, 100
1, 476309, Note_on_c, 0, 57, 100
1, 476405, Note_off_c, 0, 57, 100
1, 476405, Note_on_c, 0, 53, 100
1, 476501, Note_off_c, 0, 53, 100
1, 476501, Note_on_c, 0, 55, 100
1, 476597, Note_off_c, 0, 55, 100
1, 476885, Note_on_c, 0, 55, 100
1, 476981, Note_off_c, 0, 55, 100
1, 476981, Note_on_c, 0, 57, 100
1, 477029, Note_off_c, 0, 57, 100
1, 477029, Note_on_c, 0, 59, 100
1, 477125, Note_off_c, 0, 59, 100
1, 477125, Note_on_c, 0, 60, 100
1, 477221, Note_off_c, 0, 60, 100
1, 477221, Note_on_c, 0, 62, 100
1, 477317, Note_off_c, 0, 62, 100
1, 477653, Note_on_c, 0, 62, 100
1, 477749, Note_off_c, 0, 62, 100
1, 477749, Note_on_c, 0, 61, 100
1, 477797, Note_off_c, 0, 61, 100
1, 477797, Note_on_c, 0, 62, 100
1, 477893, Note_off_c, 0, 62, 100
1, 477893, Note_on_c, 0, 65, 100
1, 477989, Note_off_c, 0, 65, 100
1, 477989, Note_on_c, 0, 67, 100
1, 478085, Note_off_c, 0, 67, 100
1, 478373, Note_on_c, 0, 67, 100
1, 478469, Note_off_c, 0, 67, 100
1, 478469, Note_on_c, 0, 66, 100
1, 478565, Note_off_c, 0, 66, 100
1, 478565, Note_on_c, 0, 67, 100
1, 478709, Note_off_c, 0, 67, 100
1, 478709, Note_on_c, 0, 74, 100
1, 478757, Note_off_c, 0, 74, 100
1, 478757, Note_on_c, 0, 69, 100
1, 478949, Note_off_c, 0, 69, 100
1, 479189, Note_on_c, 0, 69, 100
1, 479285, Note_off_c, 0, 69, 100
1, 479285, Note_on_c, 0, 68, 100
1, 479381, Note_off_c, 0, 68, 100
1, 479381, Note_on_c, 0, 67, 100
1, 479477, Note_off_c, 0, 67, 100
1, 479477, Note_on_c, 0, 72, 100
1, 479525, Note_off_c, 0, 72, 100
1, 479525, Note_on_c, 0, 67, 100
1, 479621, Note_off_c, 0, 67, 100
1, 479909, Note_on_c, 0, 67, 100
1, 480005, Note_off_c, 0, 67, 100
1, 480005, Note_on_c, 0, 66, 100
1, 480101, Note_off_c, 0, 66, 100
1, 480101, Note_on_c, 0, 67, 100
1, 480213, Note_off_c, 0, 67, 100
1, 480213, Note_on_c, 0, 71, 100
1, 480277, Note_off_c, 0, 71, 100
1, 480277, Note_on_c, 0, 65, 100
1, 480373, Note_off_c, 0, 65, 100
1, 480677, Note_on_c, 0, 65, 100
1, 480773, Note_off_c, 0, 65, 100
1, 480773, Note_on_c, 0, 64, 100
1, 480869, Note_off_c, 0, 64, 100
1, 480869, Note_on_c, 0, 65, 100
1, 480917, Note_off_c, 0, 65, 100
1, 480917, Note_on_c, 0, 69, 100
1, 481013, Note_off_c, 0, 69, 100
1, 481013, Note_on_c, 0, 64, 100
1, 481109, Note_off_c, 0, 64, 100
1, 481397, Note_on_c, 0, 64, 100
1, 481493, Note_off_c, 0, 64, 100
1, 481493, Note_on_c, 0, 63, 100
1, 481685, Note_off_c, 0, 63, 100
1, 481685, Note_on_c, 0, 64, 100
1, 481749, Note_off_c, 0, 64, 100
1, 481749, Note_on_c, 0, 67, 100
1, 481813, Note_off_c, 0, 67, 100
1, 481813, Note_on_c, 0, 62, 100
1, 481909, Note_off_c, 0, 62, 100
1, 482213, Note_on_c, 0, 70, 100
1, 482309, Note_off_c, 0, 70, 100
1, 482309, Note_on_c, 0, 69, 100
1, 482405, Note_off_c, 0, 69, 100
1, 482405, Note_on_c, 0, 70, 100
1, 482517, Note_off_c, 0, 70, 100
1, 482517, Note_on_c, 0, 75, 100
1, 482581, Note_off_c, 0, 75, 100
1, 482581, Note_on_c, 0, 68, 100
1, 482677, Note_off_c, 0, 68, 100
1, 482981, Note_on_c, 0, 68, 100
1, 483077, Note_off_c, 0, 68, 100
1, 483077, Note_on_c, 0, 67, 100
1, 483173, Note_off_c, 0, 67, 100
1, 483173, Note_on_c, 0, 68, 100
1, 483285, Note_off_c, 0, 68, 100
1, 483285, Note_on_c, 0, 72, 100
1, 483349, Note_off_c, 0, 72, 100
1, 483349, Note_on_c, 0, 66, 100
1, 483445, Note_off_c, 0, 66, 100
1, 483749, Note_on_c, 0, 66, 100
1, 483893, Note_off_c, 0, 66, 100
1, 483893, Note_on_c, 0, 67, 100
1, 483989, Note_off_c, 0, 67, 100
1, 483989, Note_on_c, 0, 71, 100
1, 484085, Note_off_c, 0, 71, 100
1, 484085, Note_on_c, 0, 65, 100
1, 484181, Note_off_c, 0, 65, 100
1, 484421, Note_on_c, 0, 65, 100
1, 484517, Note_off_c, 0, 65, 100
1, 484517, Note_on_c, 0, 64, 100
1, 484661, Note_off_c, 0, 64, 100
1, 484661, Note_on_c, 0, 69, 100
1, 484757, Note_off_c, 0, 69, 100
1, 484757, Note_on_c, 0, 63, 100
1, 485045, Note_off_c, 0, 63, 100
1, 485045, Note_on_c, 0, 63, 100
1, 485179, Note_off_c, 0, 63, 100
1, 485179, Note_on_c, 0, 68, 100
1, 485217, Note_off_c, 0, 68, 100
1, 485217, Note_on_c, 0, 68, 100
1, 485293, Note_off_c, 0, 68, 100
1, 485293, Note_on_c, 0, 61, 100
1, 485389, Note_off_c, 0, 61, 100
1, 485619, Note_on_c, 0, 61, 100
1, 485763, Note_off_c, 0, 61, 100
1, 485763, Note_on_c, 0, 69, 100
1, 485811, Note_off_c, 0, 69, 100
1, 485811, Note_on_c, 0, 69, 100
1, 485859, Note_off_c, 0, 69, 100
1, 485859, Note_on_c, 0, 66, 100
1, 485955, Note_off_c, 0, 66, 100
1, 486243, Note_on_c, 0, 60, 100
1, 486355, Note_off_c, 0, 60, 100
1, 486355, Note_on_c, 0, 65, 100
1, 486419, Note_off_c, 0, 65, 100
1, 486419, Note_on_c, 0, 69, 100
1, 486515, Note_off_c, 0, 69, 100
1, 486771, Note_on_c, 0, 58, 100
1, 486867, Note_off_c, 0, 58, 100
1, 486867, Note_on_c, 0, 63, 100
1, 486963, Note_off_c, 0, 63, 100
1, 487347, Note_on_c, 0, 56, 100
1, 487443, Note_off_c, 0, 56, 100
1, 487443, Note_on_c, 0, 60, 100
1, 487539, Note_off_c, 0, 60, 100
1, 487539, Note_on_c, 0, 54, 100
1, 487635, Note_off_c, 0, 54, 100
1, 487923, Note_on_c, 0, 54, 100
1, 488067, Note_off_c, 0, 54, 100
1, 488067, Note_on_c, 0, 58, 100
1, 488115, Note_off_c, 0, 58, 100
1, 488115, Note_on_c, 0, 63, 100
1, 488163, Note_off_c, 0, 63, 100
1, 488163, Note_on_c, 0, 62, 100
1, 488259, Note_off_c, 0, 62, 100
1, 488403, Note_on_c, 0, 69, 100
1, 488499, Note_off_c, 0, 69, 100
1, 488499, Note_on_c, 0, 68, 100
1, 488595, Note_off_c, 0, 68, 100
1, 488595, Note_on_c, 0, 74, 100
1, 488659, Note_off_c, 0, 74, 100
1, 488659, Note_on_c, 0, 74, 100
1, 488723, Note_off_c, 0, 74, 100
1, 488723, Note_on_c, 0, 67, 100
1, 488819, Note_off_c, 0, 67, 100
1, 489123, Note_on_c, 0, 67, 100
1, 489219, Note_off_c, 0, 67, 100
1, 489219, Note_on_c, 0, 66, 100
1, 489315, Note_off_c, 0, 66, 100
1, 489315, Note_on_c, 0, 67, 100
1, 489427, Note_off_c, 0, 67, 100
1, 489427, Note_on_c, 0, 71, 100
1, 489491, Note_off_c, 0, 71, 100
1, 489491, Note_on_c, 0, 65, 100
1, 489587, Note_off_c, 0, 65, 100
1, 489843, Note_on_c, 0, 69, 100
1, 489891, Note_off_c, 0, 69, 100
1, 489891, Note_on_c, 0, 64, 100
1, 489987, Note_off_c, 0, 64, 100
1, 490195, Note_on_c, 0, 67, 100
1, 490259, Note_off_c, 0, 67, 100
1, 490259, Note_on_c, 0, 62, 100
1, 490355, Note_off_c, 0, 62, 100
1, 490611, Note_on_c, 0, 65, 100
1, 490707, Note_off_c, 0, 65, 100
1, 490707, Note_on_c, 0, 60, 100
1, 490803, Note_off_c, 0, 60, 100
1, 490803, Note_on_c, 0, 64, 100
1, 490851, Note_off_c, 0, 64, 100
1, 490851, Note_on_c, 0, 69, 100
1, 490947, Note_off_c, 0, 69, 100
1, 491187, Note_on_c, 0, 59, 100
1, 491283, Note_off_c, 0, 59, 100
1, 491283, Note_on_c, 0, 59, 100
1, 491379, Note_off_c, 0, 59, 100
1, 491379, Note_on_c, 0, 64, 100
1, 491475, Note_off_c, 0, 64, 100
1, 491475, Note_on_c, 0, 68, 100
1, 491571, Note_off_c, 0, 68, 100
1, 491763, Note_on_c, 0, 60, 100
1, 491859, Note_off_c, 0, 60, 100
1, 491859, Note_on_c, 0, 55, 100
1, 491955, Note_off_c, 0, 55, 100
1, 491955, Note_on_c, 0, 53, 100
1, 492147, Note_off_c, 0, 53, 100
1, 492147, Note_on_c, 0, 59, 100
1, 492243, Note_off_c, 0, 59, 100
1, 492243, Note_on_c, 0, 53, 100
1, 492307, Note_off_c, 0, 53, 100
1, 492307, Note_on_c, 0, 57, 100
1, 492371, Note_off_c, 0, 57, 100
1, 492371, Note_on_c, 0, 52, 100
1, 492467, Note_off_c, 0, 52, 100
1, 493971, Note_on_c, 0, 66, 100
1, 494067, Note_off_c, 0, 66, 100
1, 494067, Note_on_c, 0, 67, 100
1, 494451, Note_off_c, 0, 67, 100
1, 494451, Note_on_c, 0, 66, 100
1, 494547, Note_off_c, 0, 66, 100
1, 494547, Note_on_c, 0, 67, 100
1, 494691, Note_off_c, 0, 67, 100
1, 494691, Note_on_c, 0, 61, 100
1, 494815, Note_off_c, 0, 61, 100
1, 494815, Note_on_c, 0, 60, 100
1, 494853, Note_off_c, 0, 60, 100
1, 494853, Note_on_c, 0, 59, 100
1, 494891, Note_off_c, 0, 59, 100
1, 494891, Note_on_c, 0, 58, 100
1, 494929, Note_off_c, 0, 58, 100
1, 494929, Note_on_c, 0, 57, 100
1, 495025, Note_off_c, 0, 57, 100
1, 495601, Note_on_c, 0, 65, 100
1, 496081, Note_off_c, 0, 65, 100
1, 496081, Note_on_c, 0, 62, 100
1, 496177, Note_off_c, 0, 62, 100
1, 496177, Note_on_c, 0, 57, 100
1, 496273, Note_off_c, 0, 57, 100
1, 497953, Note_on_c, 0, 67, 100
1, 498097, Note_off_c, 0, 67, 100
1, 498097, Note_on_c, 0, 65, 100
1, 498257, Note_off_c, 0, 65, 100
1, 498257, Note_on_c, 0, 67, 100
1, 498577, Note_off_c, 0, 67, 100
1, 498577, Note_on_c, 0, 65, 100
1, 498673, Note_off_c, 0, 65, 100
1, 498673, Note_on_c, 0, 67, 100
1, 498769, Note_off_c, 0, 67, 100
1, 498769, Note_on_c, 0, 69, 100
1, 499105, Note_off_c, 0, 69, 100
1, 499105, Note_on_c, 0, 65, 100
1, 499537, Note_off_c, 0, 65, 100
1, 499537, Note_on_c, 0, 62, 100
1, 499729, Note_off_c, 0, 62, 100
1, 499729, Note_on_c, 0, 62, 100
1, 499825, Note_off_c, 0, 62, 100
1, 500881, Note_on_c, 0, 62, 100
1, 500977, Note_off_c, 0, 62, 100
1, 500977, Note_on_c, 0, 65, 100
1, 501025, Note_off_c, 0, 65, 100
1, 501025, Note_on_c, 0, 67, 100
1, 501329, Note_off_c, 0, 67, 100
1, 501329, Note_on_c, 0, 69, 100
1, 501393, Note_off_c, 0, 69, 100
1, 501393, Note_on_c, 0, 63, 100
1, 501505, Note_off_c, 0, 63, 100
1, 501505, Note_on_c, 0, 62, 100
1, 501601, Note_off_c, 0, 62, 100
1, 501601, Note_on_c, 0, 61, 100
1, 501713, Note_off_c, 0, 61, 100
1, 501713, Note_on_c, 0, 65, 100
1, 501777, Note_off_c, 0, 65, 100
1, 501777, Note_on_c, 0, 60, 100
1, 501889, Note_off_c, 0, 60, 100
1, 501889, Note_on_c, 0, 63, 100
1, 501985, Note_off_c, 0, 63, 100
1, 501985, Note_on_c, 0, 68, 100
1, 502081, Note_off_c, 0, 68, 100
1, 502081, Note_on_c, 0, 72, 100
1, 502129, Note_off_c, 0, 72, 100
1, 502129, Note_on_c, 0, 75, 100
1, 502225, Note_off_c, 0, 75, 100
1, 502513, Note_on_c, 0, 64, 100
1, 502657, Note_off_c, 0, 64, 100
1, 502657, Note_on_c, 0, 66, 100
1, 502753, Note_off_c, 0, 66, 100
1, 502753, Note_on_c, 0, 68, 100
1, 502849, Note_off_c, 0, 68, 100
1, 502849, Note_on_c, 0, 70, 100
1, 502945, Note_off_c, 0, 70, 100
1, 502945, Note_on_c, 0, 66, 100
1, 503057, Note_off_c, 0, 66, 100
1, 503057, Note_on_c, 0, 61, 100
1, 503121, Note_off_c, 0, 61, 100
1, 503121, Note_on_c, 0, 59, 100
1, 503233, Note_off_c, 0, 59, 100
1, 503233, Note_on_c, 0, 58, 100
1, 503329, Note_off_c, 0, 58, 100
1, 503329, Note_on_c, 0, 57, 100
1, 503441, Note_off_c, 0, 57, 100
1, 503441, Note_on_c, 0, 56, 100
1, 503569, Note_off_c, 0, 56, 100
1, 503569, Note_on_c, 0, 55, 100
1, 503633, Note_off_c, 0, 55, 100
1, 503633, Note_on_c, 0, 59, 100
1, 503697, Note_off_c, 0, 59, 100
1, 503697, Note_on_c, 0, 57, 100
1, 503825, Note_off_c, 0, 57, 100
1, 503825, Note_on_c, 0, 53, 100
1, 503889, Note_off_c, 0, 53, 100
1, 503889, Note_on_c, 0, 50, 100
1, 503953, Note_off_c, 0, 50, 100
1, 503953, Note_on_c, 0, 53, 100
1, 504049, Note_off_c, 0, 53, 100
1, 504049, Note_on_c, 0, 44, 100
1, 504145, Note_off_c, 0, 44, 100
1, 504865, Note_on_c, 0, 45, 100
1, 505057, Note_off_c, 0, 45, 100
1, 505057, Note_on_c, 0, 48, 100
1, 505169, Note_off_c, 0, 48, 100
1, 505169, Note_on_c, 0, 66, 100
1, 505233, Note_off_c, 0, 66, 100
1, 505233, Note_on_c, 0, 66, 100
1, 505361, Note_off_c, 0, 66, 100
1, 505361, Note_on_c, 0, 60, 100
1, 505425, Note_off_c, 0, 60, 100
1, 505425, Note_on_c, 0, 66, 100
1, 505537, Note_off_c, 0, 66, 100
1, 505537, Note_on_c, 0, 65, 100
1, 505633, Note_off_c, 0, 65, 100
1, 505633, Note_on_c, 0, 65, 100
1, 505729, Note_off_c, 0, 65, 100
1, 506257, Note_on_c, 0, 45, 100
1, 506385, Note_off_c, 0, 45, 100
1, 506385, Note_on_c, 0, 53, 100
1, 506449, Note_off_c, 0, 53, 100
1, 506449, Note_on_c, 0, 50, 100
1, 506545, Note_off_c, 0, 50, 100
1, 506545, Note_on_c, 0, 53, 100
1, 506641, Note_off_c, 0, 53, 100
1, 506641, Note_on_c, 0, 57, 100
1, 506785, Note_off_c, 0, 57, 100
1, 506785, Note_on_c, 0, 45, 100
1, 506881, Note_off_c, 0, 45, 100
1, 506881, Note_on_c, 0, 45, 100
1, 506977, Note_off_c, 0, 45, 100
1, 507217, Note_on_c, 0, 55, 100
1, 507409, Note_off_c, 0, 55, 100
1, 507409, Note_on_c, 0, 44, 100
1, 507601, Note_off_c, 0, 44, 100
1, 507889, Note_on_c, 0, 53, 100
1, 507937, Note_off_c, 0, 53, 100
1, 507937, Note_on_c, 0, 46, 100
1, 508225, Note_off_c, 0, 46, 100
1, 508225, Note_on_c, 0, 55, 100
1, 508321, Note_off_c, 0, 55, 100
1, 508321, Note_on_c, 0, 48, 100
1, 508561, Note_off_c, 0, 48, 100
1, 508561, Note_on_c, 0, 55, 100
1, 508657, Note_off_c, 0, 55, 100
1, 508657, Note_on_c, 0, 51, 100
1, 508753, Note_off_c, 0, 51, 100
1, 509009, Note_on_c, 0, 57, 100
1, 509073, Note_off_c, 0, 57, 100
1, 509073, Note_on_c, 0, 54, 100
1, 509169, Note_off_c, 0, 54, 100
1, 509425, Note_on_c, 0, 56, 100
1, 509473, Note_off_c, 0, 56, 100
1, 509473, Note_on_c, 0, 54, 100
1, 509569, Note_off_c, 0, 54, 100
1, 509809, Note_on_c, 0, 58, 100
1, 509857, Note_off_c, 0, 58, 100
1, 509857, Note_on_c, 0, 51, 100
1, 509953, Note_off_c, 0, 51, 100
1, 510161, Note_on_c, 0, 57, 100
1, 510225, Note_off_c, 0, 57, 100
1, 510225, Note_on_c, 0, 50, 100
1, 510321, Note_off_c, 0, 50, 100
1, 510545, Note_on_c, 0, 55, 100
1, 510609, Note_off_c, 0, 55, 100
1, 510609, Note_on_c, 0, 48, 100
1, 510737, Note_off_c, 0, 48, 100
1, 510737, Note_on_c, 0, 53, 100
1, 510801, Note_off_c, 0, 53, 100
1, 510801, Note_on_c, 0, 56, 100
1, 510913, Note_off_c, 0, 56, 100
1, 510913, Note_on_c, 0, 54, 100
1, 511009, Note_off_c, 0, 54, 100
1, 511009, Note_on_c, 0, 58, 100
1, 511105, Note_off_c, 0, 58, 100
1, 511393, Note_on_c, 0, 46, 100
1, 511489, Note_off_c, 0, 46, 100
1, 511489, Note_on_c, 0, 56, 100
1, 511585, Note_off_c, 0, 56, 100
1, 511585, Note_on_c, 0, 50, 100
1, 511729, Note_off_c, 0, 50, 100
1, 511729, Note_on_c, 0, 55, 100
1, 511825, Note_off_c, 0, 55, 100
1, 511825, Note_on_c, 0, 51, 100
1, 511921, Note_off_c, 0, 51, 100
1, 511921, Note_on_c, 0, 54, 100
1, 511969, Note_off_c, 0, 54, 100
1, 511969, Note_on_c, 0, 56, 100
1, 512017, Note_off_c, 0, 56, 100
1, 512017, Note_on_c, 0, 66, 100
1, 512161, Note_off_c, 0, 66, 100
1, 512161, Note_on_c, 0, 70, 100
1, 512257, Note_off_c, 0, 70, 100
1, 512593, Note_on_c, 0, 61, 100
1, 512689, Note_off_c, 0, 61, 100
1, 512689, Note_on_c, 0, 66, 100
1, 512785, Note_off_c, 0, 66, 100
1, 512785, Note_on_c, 0, 70, 100
1, 512929, Note_off_c, 0, 70, 100
1, 512929, Note_on_c, 0, 65, 100
1, 513233, Note_off_c, 0, 65, 100
1, 513233, Note_on_c, 0, 54, 100
1, 513297, Note_off_c, 0, 54, 100
1, 513297, Note_on_c, 0, 48, 100
1, 513553, Note_off_c, 0, 48, 100
1, 513553, Note_on_c, 0, 54, 100
1, 513649, Note_off_c, 0, 54, 100
1, 513649, Note_on_c, 0, 49, 100
1, 513745, Note_off_c, 0, 49, 100
1, 513745, Note_on_c, 0, 50, 100
1, 513809, Note_off_c, 0, 50, 100
1, 513809, Note_on_c, 0, 53, 100
1, 513873, Note_off_c, 0, 53, 100
1, 513873, Note_on_c, 0, 57, 100
1, 513937, Note_off_c, 0, 57, 100
1, 513937, Note_on_c, 0, 58, 100
1, 514001, Note_off_c, 0, 58, 100
1, 514001, Note_on_c, 0, 57, 100
1, 514065, Note_off_c, 0, 57, 100
1, 514065, Note_on_c, 0, 53, 100
1, 514161, Note_off_c, 0, 53, 100
1, 514465, Note_on_c, 0, 52, 100
1, 514705, Note_off_c, 0, 52, 100
1, 514705, Note_on_c, 0, 54, 100
1, 514801, Note_off_c, 0, 54, 100
1, 514801, Note_on_c, 0, 58, 100
1, 514849, Note_off_c, 0, 58, 100
1, 514849, Note_on_c, 0, 52, 100
1, 514993, Note_off_c, 0, 52, 100
1, 514993, Note_on_c, 0, 55, 100
1, 515089, Note_off_c, 0, 55, 100
1, 515089, Note_on_c, 0, 57, 100
1, 515185, Note_off_c, 0, 57, 100
1, 515185, Note_on_c, 0, 60, 100
1, 515281, Note_off_c, 0, 60, 100
1, 515281, Note_on_c, 0, 57, 100
1, 515377, Note_off_c, 0, 57, 100
1, 515377, Note_on_c, 0, 60, 100
1, 515473, Note_off_c, 0, 60, 100
1, 515473, Note_on_c, 0, 62, 100
1, 515569, Note_off_c, 0, 62, 100
1, 515569, Note_on_c, 0, 67, 100
1, 515665, Note_off_c, 0, 67, 100
1, 515665, Note_on_c, 0, 60, 100
1, 515761, Note_off_c, 0, 60, 100
1, 515761, Note_on_c, 0, 65, 100
1, 515809, Note_off_c, 0, 65, 100
1, 515809, Note_on_c, 0, 69, 100
1, 515921, Note_off_c, 0, 69, 100
1, 515921, Note_on_c, 0, 71, 100
1, 515985, Note_off_c, 0, 71, 100
1, 515985, Note_on_c, 0, 62, 100
1, 516081, Note_off_c, 0, 62, 100
1, 517057, Note_on_c, 0, 68, 100
1, 517153, Note_off_c, 0, 68, 100
1, 517153, Note_on_c, 0, 69, 100
1, 517537, Note_off_c, 0, 69, 100
1, 517537, Note_on_c, 0, 69, 100
1, 517681, Note_off_c, 0, 69, 100
1, 517681, Note_on_c, 0, 67, 100
1, 517777, Note_off_c, 0, 67, 100
1, 517777, Note_on_c, 0, 65, 100
1, 517841, Note_off_c, 0, 65, 100
1, 517841, Note_on_c, 0, 62, 100
1, 518033, Note_off_c, 0, 62, 100
1, 519121, Note_on_c, 0, 68, 100
1, 519217, Note_off_c, 0, 68, 100
1, 519217, Note_on_c, 0, 69, 100
1, 519409, Note_off_c, 0, 69, 100
1, 519409, Note_on_c, 0, 69, 100
1, 520273, Note_off_c, 0, 69, 100
1, 520273, Note_on_c, 0, 62, 100
1, 520417, Note_off_c, 0, 62, 100
1, 520417, Note_on_c, 0, 65, 100
1, 520609, Note_off_c, 0, 65, 100
1, 520609, Note_on_c, 0, 69, 100
1, 520657, Note_off_c, 0, 69, 100
1, 520657, Note_on_c, 0, 68, 100
1, 520753, Note_off_c, 0, 68, 100
1, 520753, Note_on_c, 0, 69, 100
1, 520849, Note_off_c, 0, 69, 100
1, 520849, Note_on_c, 0, 67, 100
1, 520945, Note_off_c, 0, 67, 100
1, 520945, Note_on_c, 0, 69, 100
1, 521185, Note_off_c, 0, 69, 100
1, 521185, Note_on_c, 0, 67, 100
1, 521233, Note_off_c, 0, 67, 100
1, 521233, Note_on_c, 0, 66, 100
1, 521281, Note_off_c, 0, 66, 100
1, 521281, Note_on_c, 0, 65, 100
1, 521377, Note_off_c, 0, 65, 100
1, 521809, Note_on_c, 0, 62, 100
1, 521953, Note_off_c, 0, 62, 100
1, 521953, Note_on_c, 0, 65, 100
1, 522097, Note_off_c, 0, 65, 100
1, 522097, Note_on_c, 0, 68, 100
1, 522145, Note_off_c, 0, 68, 100
1, 522145, Note_on_c, 0, 69, 100
1, 522289, Note_off_c, 0, 69, 100
1, 522289, Note_on_c, 0, 69, 100
1, 522865, Note_off_c, 0, 69, 100
1, 522865, Note_on_c, 0, 67, 100
1, 522913, Note_off_c, 0, 67, 100
1, 522913, Note_on_c, 0, 69, 100
1, 523057, Note_off_c, 0, 69, 100
1, 523057, Note_on_c, 0, 67, 100
1, 523217, Note_off_c, 0, 67, 100
1, 523217, Note_on_c, 0, 69, 100
1, 523537, Note_off_c, 0, 69, 100
1, 523537, Note_on_c, 0, 67, 100
1, 523633, Note_off_c, 0, 67, 100
1, 523633, Note_on_c, 0, 69, 100
1, 523729, Note_off_c, 0, 69, 100
1, 523729, Note_on_c, 0, 65, 100
1, 523825, Note_off_c, 0, 65, 100
1, 523825, Note_on_c, 0, 62, 100
1, 523921, Note_off_c, 0, 62, 100
1, 524593, Note_on_c, 0, 68, 100
1, 524689, Note_off_c, 0, 68, 100
1, 524689, Note_on_c, 0, 69, 100
1, 525073, Note_off_c, 0, 69, 100
1, 525073, Note_on_c, 0, 67, 100
1, 525121, Note_off_c, 0, 67, 100
1, 525121, Note_on_c, 0, 65, 100
1, 525217, Note_off_c, 0, 65, 100
1, 525217, Note_on_c, 0, 62, 100
1, 525361, Note_off_c, 0, 62, 100
1, 525361, Note_on_c, 0, 62, 100
1, 525457, Note_off_c, 0, 62, 100
1, 525457, Note_on_c, 0, 62, 100
1, 525553, Note_off_c, 0, 62, 100
1, 525553, Note_on_c, 0, 62, 100
1, 525937, Note_off_c, 0, 62, 100
1, 525937, Note_on_c, 0, 60, 100
1, 526033, Note_off_c, 0, 60, 100
1, 526033, Note_on_c, 0, 62, 100
1, 526177, Note_off_c, 0, 62, 100
1, 526177, Note_on_c, 0, 65, 100
1, 526225, Note_off_c, 0, 65, 100
1, 526225, Note_on_c, 0, 62, 100
1, 526513, Note_off_c, 0, 62, 100
1, 526513, Note_on_c, 0, 65, 100
1, 526609, Note_off_c, 0, 65, 100
1, 526609, Note_on_c, 0, 62, 100
1, 526705, Note_off_c, 0, 62, 100
1, 527185, Note_on_c, 0, 67, 100
1, 527281, Note_off_c, 0, 67, 100
1, 527281, Note_on_c, 0, 65, 100
1, 527377, Note_off_c, 0, 65, 100
1, 527377, Note_on_c, 0, 66, 100
1, 527473, Note_off_c, 0, 66, 100
1, 527473, Note_on_c, 0, 67, 100
1, 527761, Note_off_c, 0, 67, 100
1, 527761, Note_on_c, 0, 65, 100
1, 527825, Note_off_c, 0, 65, 100
1, 527825, Note_on_c, 0, 67, 100
1, 527889, Note_off_c, 0, 67, 100
1, 527889, Note_on_c, 0, 69, 100
1, 528017, Note_off_c, 0, 69, 100
1, 528017, Note_on_c, 0, 72, 100
1, 529009, Note_off_c, 0, 72, 100
1, 529009, Note_on_c, 0, 69, 100
1, 529105, Note_off_c, 0, 69, 100
1, 529105, Note_on_c, 0, 72, 100
1, 529201, Note_off_c, 0, 72, 100
1, 529201, Note_on_c, 0, 69, 100
1, 529297, Note_off_c, 0, 69, 100
1, 529297, Note_on_c, 0, 67, 100
1, 529393, Note_off_c, 0, 67, 100
1, 529393, Note_on_c, 0, 65, 100
1, 529553, Note_off_c, 0, 65, 100
1, 529553, Note_on_c, 0, 69, 100
1, 529617, Note_off_c, 0, 69, 100
1, 529617, Note_on_c, 0, 65, 100
1, 529729, Note_off_c, 0, 65, 100
1, 529729, Note_on_c, 0, 64, 100
1, 529825, Note_off_c, 0, 64, 100
1, 529825, Note_on_c, 0, 62, 100
1, 529921, Note_off_c, 0, 62, 100
1, 529921, Note_on_c, 0, 65, 100
1, 530017, Note_off_c, 0, 65, 100
1, 530017, Note_on_c, 0, 62, 100
1, 530161, Note_off_c, 0, 62, 100
1, 530161, Note_on_c, 0, 60, 100
1, 530209, Note_off_c, 0, 60, 100
1, 530209, Note_on_c, 0, 59, 100
1, 530353, Note_off_c, 0, 59, 100
1, 530353, Note_on_c, 0, 61, 100
1, 530449, Note_off_c, 0, 61, 100
1, 530449, Note_on_c, 0, 57, 100
1, 530545, Note_off_c, 0, 57, 100
1, 530545, Note_on_c, 0, 53, 100
1, 530641, Note_off_c, 0, 53, 100
1, 530641, Note_on_c, 0, 55, 100
1, 530833, Note_off_c, 0, 55, 100
1, 530833, Note_on_c, 0, 53, 100
1, 531025, Note_off_c, 0, 53, 100
1, 531025, Note_on_c, 0, 50, 100
1, 531217, Note_off_c, 0, 50, 100
1, 531985, Note_on_c, 0, 72, 100
1, 532177, Note_off_c, 0, 72, 100
1, 532177, Note_on_c, 0, 73, 100
1, 533329, Note_off_c, 0, 73, 100
1, 533329, Note_on_c, 0, 72, 100
1, 533425, Note_off_c, 0, 72, 100
1, 533425, Note_on_c, 0, 68, 100
1, 533521, Note_off_c, 0, 68, 100
1, 533521, Note_on_c, 0, 73, 100
1, 533713, Note_off_c, 0, 73, 100
1, 533713, Note_on_c, 0, 72, 100
1, 533841, Note_off_c, 0, 72, 100
1, 533841, Note_on_c, 0, 68, 100
1, 534001, Note_off_c, 0, 68, 100
1, 534001, Note_on_c, 0, 73, 100
1, 534097, Note_off_c, 0, 73, 100
1, 534097, Note_on_c, 0, 72, 100
1, 534577, Note_off_c, 0, 72, 100
1, 534577, Note_on_c, 0, 68, 100
1, 534673, Note_off_c, 0, 68, 100
1, 534673, Note_on_c, 0, 73, 100
1, 534769, Note_off_c, 0, 73, 100
1, 534769, Note_on_c, 0, 72, 100
1, 534961, Note_off_c, 0, 72, 100
1, 534961, Note_on_c, 0, 68, 100
1, 535121, Note_off_c, 0, 68, 100
1, 535121, Note_on_c, 0, 73, 100
1, 535249, Note_off_c, 0, 73, 100
1, 535249, Note_on_c, 0, 72, 100
1, 535393, Note_off_c, 0, 72, 100
1, 535393, Note_on_c, 0, 68, 100
1, 535537, Note_off_c, 0, 68, 100
1, 535537, Note_on_c, 0, 72, 100
1, 535777, Note_off_c, 0, 72, 100
1, 535777, Note_on_c, 0, 72, 100
1, 535921, Note_off_c, 0, 72, 100
1, 535921, Note_on_c, 0, 71, 100
1, 536113, Note_off_c, 0, 71, 100
1, 536113, Note_on_c, 0, 73, 100
1, 536209, Note_off_c, 0, 73, 100
1, 536209, Note_on_c, 0, 73, 100
1, 536401, Note_off_c, 0, 73, 100
1, 536401, Note_on_c, 0, 70, 100
1, 536497, Note_off_c, 0, 70, 100
1, 536497, Note_on_c, 0, 72, 100
1, 536593, Note_off_c, 0, 72, 100
1, 536593, Note_on_c, 0, 72, 100
1, 536689, Note_off_c, 0, 72, 100
1, 536689, Note_on_c, 0, 68, 100
1, 536785, Note_off_c, 0, 68, 100
1, 536785, Note_on_c, 0, 73, 100
1, 536881, Note_off_c, 0, 73, 100
1, 536881, Note_on_c, 0, 73, 100
1, 536977, Note_off_c, 0, 73, 100
1, 536977, Note_on_c, 0, 68, 100
1, 537073, Note_off_c, 0, 68, 100
1, 537073, Note_on_c, 0, 72, 100
1, 537265, Note_off_c, 0, 72, 100
1, 537265, Note_on_c, 0, 72, 100
1, 537361, Note_off_c, 0, 72, 100
1, 537361, Note_on_c, 0, 69, 100
1, 537553, Note_off_c, 0, 69, 100
1, 537553, Note_on_c, 0, 72, 100
1, 537649, Note_off_c, 0, 72, 100
1, 537649, Note_on_c, 0, 72, 100
1, 537745, Note_off_c, 0, 72, 100
1, 537745, Note_on_c, 0, 72, 100
1, 537841, Note_off_c, 0, 72, 100
1, 537841, Note_on_c, 0, 67, 100
1, 537937, Note_off_c, 0, 67, 100
1, 537937, Note_on_c, 0, 71, 100
1, 538033, Note_off_c, 0, 71, 100
1, 538033, Note_on_c, 0, 71, 100
1, 538225, Note_off_c, 0, 71, 100
1, 538225, Note_on_c, 0, 67, 100
1, 538321, Note_off_c, 0, 67, 100
1, 538321, Note_on_c, 0, 72, 100
1, 538417, Note_off_c, 0, 72, 100
1, 538417, Note_on_c, 0, 72, 100
1, 538513, Note_off_c, 0, 72, 100
1, 538513, Note_on_c, 0, 69, 100
1, 538609, Note_off_c, 0, 69, 100
1, 538609, Note_on_c, 0, 71, 100
1, 538705, Note_off_c, 0, 71, 100
1, 538705, Note_on_c, 0, 71, 100
1, 538897, Note_off_c, 0, 71, 100
1, 538897, Note_on_c, 0, 67, 100
1, 538993, Note_off_c, 0, 67, 100
1, 538993, Note_on_c, 0, 65, 100
1, 539089, Note_off_c, 0, 65, 100
1, 539089, Note_on_c, 0, 62, 100
1, 539281, Note_off_c, 0, 62, 100
1, 539857, Note_on_c, 0, 70, 100
1, 539953, Note_off_c, 0, 70, 100
1, 539953, Note_on_c, 0, 72, 100
1, 540497, Note_off_c, 0, 72, 100
1, 540497, Note_on_c, 0, 65, 100
1, 540625, Note_off_c, 0, 65, 100
1, 540625, Note_on_c, 0, 72, 100
1, 540721, Note_off_c, 0, 72, 100
1, 540721, Note_on_c, 0, 72, 100
1, 540817, Note_off_c, 0, 72, 100
1, 540817, Note_on_c, 0, 69, 100
1, 540913, Note_off_c, 0, 69, 100
1, 540913, Note_on_c, 0, 71, 100
1, 540961, Note_off_c, 0, 71, 100
1, 540961, Note_on_c, 0, 71, 100
1, 541105, Note_off_c, 0, 71, 100
1, 541105, Note_on_c, 0, 67, 100
1, 541201, Note_off_c, 0, 67, 100
1, 541201, Note_on_c, 0, 72, 100
1, 541297, Note_off_c, 0, 72, 100
1, 541297, Note_on_c, 0, 72, 100
1, 541393, Note_off_c, 0, 72, 100
1, 541393, Note_on_c, 0, 69, 100
1, 541489, Note_off_c, 0, 69, 100
1, 541489, Note_on_c, 0, 72, 100
1, 541585, Note_off_c, 0, 72, 100
1, 541585, Note_on_c, 0, 71, 100
1, 541729, Note_off_c, 0, 71, 100
1, 541729, Note_on_c, 0, 67, 100
1, 541777, Note_off_c, 0, 67, 100
1, 541777, Note_on_c, 0, 72, 100
1, 541969, Note_off_c, 0, 72, 100
1, 541969, Note_on_c, 0, 72, 100
1, 542065, Note_off_c, 0, 72, 100
1, 542065, Note_on_c, 0, 69, 100
1, 542161, Note_off_c, 0, 69, 100
1, 542161, Note_on_c, 0, 71, 100
1, 542257, Note_off_c, 0, 71, 100
1, 542257, Note_on_c, 0, 71, 100
1, 542353, Note_off_c, 0, 71, 100
1, 542353, Note_on_c, 0, 67, 100
1, 542401, Note_off_c, 0, 67, 100
1, 542401, Note_on_c, 0, 65, 100
1, 542497, Note_off_c, 0, 65, 100
1, 542497, Note_on_c, 0, 62, 100
1, 542593, Note_off_c, 0, 62, 100
1, 543121, Note_on_c, 0, 70, 100
1, 543185, Note_off_c, 0, 70, 100
1, 543185, Note_on_c, 0, 71, 100
1, 543649, Note_off_c, 0, 71, 100
1, 543649, Note_on_c, 0, 67, 100
1, 543745, Note_off_c, 0, 67, 100
1, 543745, Note_on_c, 0, 69, 100
1, 543841, Note_off_c, 0, 69, 100
1, 543841, Note_on_c, 0, 71, 100
1, 543953, Note_off_c, 0, 71, 100
1, 543953, Note_on_c, 0, 62, 100
1, 544017, Note_off_c, 0, 62, 100
1, 544017, Note_on_c, 0, 67, 100
1, 544081, Note_off_c, 0, 67, 100
1, 544081, Note_on_c, 0, 69, 100
1, 544209, Note_off_c, 0, 69, 100
1, 544209, Note_on_c, 0, 71, 100
1, 544369, Note_off_c, 0, 71, 100
1, 544369, Note_on_c, 0, 62, 100
1, 544465, Note_off_c, 0, 62, 100
1, 544465, Note_on_c, 0, 69, 100
1, 544657, Note_off_c, 0, 69, 100
1, 544657, Note_on_c, 0, 72, 100
1, 544753, Note_off_c, 0, 72, 100
1, 544753, Note_on_c, 0, 75, 100
1, 544945, Note_off_c, 0, 75, 100
1, 544945, Note_on_c, 0, 77, 100
1, 545137, Note_off_c, 0, 77, 100
1, 545885, Note_on_c, 0, 74, 100
1, 545923, Note_off_c, 0, 74, 100
1, 545923, Note_on_c, 0, 75, 100
1, 545961, Note_off_c, 0, 75, 100
1, 545961, Note_on_c, 0, 76, 100
1, 545999, Note_off_c, 0, 76, 100
1, 545999, Note_on_c, 0, 77, 100
1, 547487, Note_off_c, 0, 77, 100
1, 547487, Note_on_c, 0, 75, 100
1, 547535, Note_off_c, 0, 75, 100
1, 547535, Note_on_c, 0, 73, 100
1, 547631, Note_off_c, 0, 73, 100
1, 547631, Note_on_c, 0, 75, 100
1, 547823, Note_off_c, 0, 75, 100
1, 547823, Note_on_c, 0, 71, 100
1, 547919, Note_off_c, 0, 71, 100
1, 547919, Note_on_c, 0, 69, 100
1, 547967, Note_off_c, 0, 69, 100
1, 547967, Note_on_c, 0, 65, 100
1, 548015, Note_off_c, 0, 65, 100
1, 548015, Note_on_c, 0, 66, 100
1, 548063, Note_off_c, 0, 66, 100
1, 548063, Note_on_c, 0, 65, 100
1, 548159, Note_off_c, 0, 65, 100
1, 548159, Note_on_c, 0, 64, 100
1, 548255, Note_off_c, 0, 64, 100
1, 548255, Note_on_c, 0, 63, 100
1, 548303, Note_off_c, 0, 63, 100
1, 548303, Note_on_c, 0, 66, 100
1, 548559, Note_off_c, 0, 66, 100
1, 548559, Note_on_c, 0, 71, 100
1, 548623, Note_off_c, 0, 71, 100
1, 548623, Note_on_c, 0, 64, 100
1, 548725, Note_off_c, 0, 64, 100
1, 548725, Note_on_c, 0, 67, 100
1, 548763, Note_off_c, 0, 67, 100
1, 548763, Note_on_c, 0, 68, 100
1, 548839, Note_off_c, 0, 68, 100
1, 548839, Note_on_c, 0, 71, 100
1, 548877, Note_off_c, 0, 71, 100
1, 548877, Note_on_c, 0, 70, 100
1, 548925, Note_off_c, 0, 70, 100
1, 548925, Note_on_c, 0, 68, 100
1, 548973, Note_off_c, 0, 68, 100
1, 548973, Note_on_c, 0, 67, 100
1, 549021, Note_off_c, 0, 67, 100
1, 549021, Note_on_c, 0, 70, 100
1, 549133, Note_off_c, 0, 70, 100
1, 549133, Note_on_c, 0, 68, 100
1, 549197, Note_off_c, 0, 68, 100
1, 549197, Note_on_c, 0, 67, 100
1, 549357, Note_off_c, 0, 67, 100
1, 549357, Note_on_c, 0, 67, 100
1, 549453, Note_off_c, 0, 67, 100
1, 549453, Note_on_c, 0, 60, 100
1, 549549, Note_off_c, 0, 60, 100
1, 549549, Note_on_c, 0, 65, 100
1, 549693, Note_off_c, 0, 65, 100
1, 549693, Note_on_c, 0, 74, 100
1, 549789, Note_off_c, 0, 74, 100
1, 549789, Note_on_c, 0, 73, 100
1, 549885, Note_off_c, 0, 73, 100
1, 549885, Note_on_c, 0, 69, 100
1, 549981, Note_off_c, 0, 69, 100
1, 549981, Note_on_c, 0, 65, 100
1, 550029, Note_off_c, 0, 65, 100
1, 550029, Note_on_c, 0, 62, 100
1, 550173, Note_off_c, 0, 62, 100
1, 550173, Note_on_c, 0, 65, 100
1, 550413, Note_off_c, 0, 65, 100
1, 550413, Note_on_c, 0, 67, 100
1, 550461, Note_off_c, 0, 67, 100
1, 550461, Note_on_c, 0, 65, 100
1, 550509, Note_off_c, 0, 65, 100
1, 550509, Note_on_c, 0, 62, 100
1, 550701, Note_off_c, 0, 62, 100
1, 551277, Note_on_c, 0, 67, 100
1, 551517, Note_off_c, 0, 67, 100
1, 551517, Note_on_c, 0, 65, 100
1, 551565, Note_off_c, 0, 65, 100
1, 551565, Note_on_c, 0, 62, 100
1, 551757, Note_off_c, 0, 62, 100
1, 551757, Note_on_c, 0, 61, 100
1, 551805, Note_off_c, 0, 61, 100
1, 551805, Note_on_c, 0, 60, 100
1, 551901, Note_off_c, 0, 60, 100
1, 551901, Note_on_c, 0, 59, 100
1, 551949, Note_off_c, 0, 59, 100
1, 551949, Note_on_c, 0, 63, 100
1, 552141, Note_off_c, 0, 63, 100
1, 552141, Note_on_c, 0, 58, 100
1, 552189, Note_off_c, 0, 58, 100
1, 552189, Note_on_c, 0, 55, 100
1, 552285, Note_off_c, 0, 55, 100
1, 552285, Note_on_c, 0, 53, 100
1, 552397, Note_off_c, 0, 53, 100
1, 552397, Note_on_c, 0, 52, 100
1, 552461, Note_off_c, 0, 52, 100
1, 552461, Note_on_c, 0, 51, 100
1, 552653, Note_off_c, 0, 51, 100
1, 553005, Note_on_c, 0, 50, 100
1, 553053, Note_off_c, 0, 50, 100
1, 553053, Note_on_c, 0, 52, 100
1, 553101, Note_off_c, 0, 52, 100
1, 553101, Note_on_c, 0, 55, 100
1, 553197, Note_off_c, 0, 55, 100
1, 553197, Note_on_c, 0, 57, 100
1, 553293, Note_off_c, 0, 57, 100
1, 553293, Note_on_c, 0, 67, 100
1, 553485, Note_off_c, 0, 67, 100
1, 553485, Note_on_c, 0, 69, 100
1, 553581, Note_off_c, 0, 69, 100
1, 553581, Note_on_c, 0, 67, 100
1, 553677, Note_off_c, 0, 67, 100
1, 554061, Note_on_c, 0, 63, 100
1, 554157, Note_off_c, 0, 63, 100
1, 554157, Note_on_c, 0, 61, 100
1, 554253, Note_off_c, 0, 61, 100
1, 554253, Note_on_c, 0, 59, 100
1, 554349, Note_off_c, 0, 59, 100
1, 554349, Note_on_c, 0, 57, 100
1, 554445, Note_off_c, 0, 57, 100
1, 554445, Note_on_c, 0, 56, 100
1, 554509, Note_off_c, 0, 56, 100
1, 554509, Note_on_c, 0, 69, 100
1, 554573, Note_off_c, 0, 69, 100
1, 554573, Note_on_c, 0, 71, 100
1, 554701, Note_off_c, 0, 71, 100
1, 554701, Note_on_c, 0, 68, 100
1, 554829, Note_off_c, 0, 68, 100
1, 554829, Note_on_c, 0, 70, 100
1, 554925, Note_off_c, 0, 70, 100
1, 554925, Note_on_c, 0, 65, 100
1, 554973, Note_off_c, 0, 65, 100
1, 554973, Note_on_c, 0, 66, 100
1, 555117, Note_off_c, 0, 66, 100
1, 555117, Note_on_c, 0, 70, 100
1, 555165, Note_off_c, 0, 70, 100
1, 555165, Note_on_c, 0, 69, 100
1, 555309, Note_off_c, 0, 69, 100
1, 555309, Note_on_c, 0, 63, 100
1, 555405, Note_off_c, 0, 63, 100
1, 555405, Note_on_c, 0, 59, 100
1, 555597, Note_off_c, 0, 59, 100
1, 555597, Note_on_c, 0, 61, 100
1, 555693, Note_off_c, 0, 61, 100
1, 555693, Note_on_c, 0, 65, 100
1, 555789, Note_off_c, 0, 65, 100
1, 555789, Note_on_c, 0, 69, 100
1, 555885, Note_off_c, 0, 69, 100
1, 555885, Note_on_c, 0, 71, 100
1, 555981, Note_off_c, 0, 71, 100
1, 555981, Note_on_c, 0, 66, 100
1, 556077, Note_off_c, 0, 66, 100
1, 556077, Note_on_c, 0, 68, 100
1, 556173, Note_off_c, 0, 68, 100
1, 556173, Note_on_c, 0, 69, 100
1, 556269, Note_off_c, 0, 69, 100
1, 556269, Note_on_c, 0, 71, 100
1, 556365, Note_off_c, 0, 71, 100
1, 556365, Note_on_c, 0, 66, 100
1, 556429, Note_off_c, 0, 66, 100
1, 556429, Note_on_c, 0, 68, 100
1, 556493, Note_off_c, 0, 68, 100
1, 556493, Note_on_c, 0, 67, 100
1, 556557, Note_off_c, 0, 67, 100
1, 556557, Note_on_c, 0, 70, 100
1, 556653, Note_off_c, 0, 70, 100
1, 556653, Note_on_c, 0, 67, 100
1, 556749, Note_off_c, 0, 67, 100
1, 556749, Note_on_c, 0, 68, 100
1, 556989, Note_off_c, 0, 68, 100
1, 556989, Note_on_c, 0, 66, 100
1, 557037, Note_off_c, 0, 66, 100
1, 557037, Note_on_c, 0, 70, 100
1, 557085, Note_off_c, 0, 70, 100
1, 557085, Note_on_c, 0, 67, 100
1, 557229, Note_off_c, 0, 67, 100
1, 557229, Note_on_c, 0, 63, 100
1, 557325, Note_off_c, 0, 63, 100
1, 557325, Note_on_c, 0, 67, 100
1, 557421, Note_off_c, 0, 67, 100
1, 557421, Note_on_c, 0, 70, 100
1, 557517, Note_off_c, 0, 70, 100
1, 557517, Note_on_c, 0, 65, 100
1, 557581, Note_off_c, 0, 65, 100
1, 557581, Note_on_c, 0, 66, 100
1, 557645, Note_off_c, 0, 66, 100
1, 557645, Note_on_c, 0, 69, 100
1, 557709, Note_off_c, 0, 69, 100
1, 557709, Note_on_c, 0, 71, 100
1, 557805, Note_off_c, 0, 71, 100
1, 557805, Note_on_c, 0, 66, 100
1, 557949, Note_off_c, 0, 66, 100
1, 557949, Note_on_c, 0, 61, 100
1, 558045, Note_off_c, 0, 61, 100
1, 558045, Note_on_c, 0, 59, 100
1, 558141, Note_off_c, 0, 59, 100
1, 558141, Note_on_c, 0, 58, 100
1, 558237, Note_off_c, 0, 58, 100
1, 558237, Note_on_c, 0, 57, 100
1, 558333, Note_off_c, 0, 57, 100
1, 559245, Note_on_c, 0, 65, 100
1, 559309, Note_off_c, 0, 65, 100
1, 559309, Note_on_c, 0, 66, 100
1, 559373, Note_off_c, 0, 66, 100
1, 559373, Note_on_c, 0, 46, 100
1, 559677, Note_off_c, 0, 46, 100
1, 559677, Note_on_c, 0, 55, 100
1, 559773, Note_off_c, 0, 55, 100
1, 559773, Note_on_c, 0, 51, 100
1, 560013, Note_off_c, 0, 51, 100
1, 560013, Note_on_c, 0, 69, 100
1, 560157, Note_off_c, 0, 69, 100
1, 560157, Note_on_c, 0, 64, 100
1, 560253, Note_off_c, 0, 64, 100
1, 560253, Note_on_c, 0, 67, 100
1, 560349, Note_off_c, 0, 67, 100
1, 560349, Note_on_c, 0, 69, 100
1, 560397, Note_off_c, 0, 69, 100
1, 560397, Note_on_c, 0, 70, 100
1, 560525, Note_off_c, 0, 70, 100
1, 560525, Note_on_c, 0, 65, 100
1, 560589, Note_off_c, 0, 65, 100
1, 560589, Note_on_c, 0, 70, 100
1, 560685, Note_off_c, 0, 70, 100
1, 560685, Note_on_c, 0, 68, 100
1, 560733, Note_off_c, 0, 68, 100
1, 560733, Note_on_c, 0, 67, 100
1, 560845, Note_off_c, 0, 67, 100
1, 560845, Note_on_c, 0, 66, 100
1, 560973, Note_off_c, 0, 66, 100
1, 560973, Note_on_c, 0, 60, 100
1, 561069, Note_off_c, 0, 60, 100
1, 561069, Note_on_c, 0, 65, 100
1, 561165, Note_off_c, 0, 65, 100
1, 561165, Note_on_c, 0, 69, 100
1, 561229, Note_off_c, 0, 69, 100
1, 561229, Note_on_c, 0, 71, 100
1, 561293, Note_off_c, 0, 71, 100
1, 561293, Note_on_c, 0, 63, 100
1, 561421, Note_off_c, 0, 63, 100
1, 561421, Note_on_c, 0, 66, 100
1, 561549, Note_off_c, 0, 66, 100
1, 561549, Note_on_c, 0, 73, 100
1, 561597, Note_off_c, 0, 73, 100
1, 561597, Note_on_c, 0, 74, 100
1, 561693, Note_off_c, 0, 74, 100
1, 561693, Note_on_c, 0, 68, 100
1, 561885, Note_off_c, 0, 68, 100
1, 562269, Note_on_c, 0, 45, 100
1, 562413, Note_off_c, 0, 45, 100
1, 562413, Note_on_c, 0, 54, 100
1, 562461, Note_off_c, 0, 54, 100
1, 562461, Note_on_c, 0, 46, 100
1, 562765, Note_off_c, 0, 46, 100
1, 562765, Note_on_c, 0, 56, 100
1, 562829, Note_off_c, 0, 56, 100
1, 562829, Note_on_c, 0, 51, 100
1, 562941, Note_off_c, 0, 51, 100
1, 562941, Note_on_c, 0, 54, 100
1, 563037, Note_off_c, 0, 54, 100
1, 563037, Note_on_c, 0, 57, 100
1, 563133, Note_off_c, 0, 57, 100
1, 563133, Note_on_c, 0, 52, 100
1, 563229, Note_off_c, 0, 52, 100
1, 563469, Note_on_c, 0, 63, 100
1, 563507, Note_off_c, 0, 63, 100
1, 563507, Note_on_c, 0, 64, 100
1, 563545, Note_off_c, 0, 64, 100
1, 563545, Note_on_c, 0, 67, 100
1, 563621, Note_off_c, 0, 67, 100
1, 563621, Note_on_c, 0, 71, 100
1, 563707, Note_off_c, 0, 71, 100
1, 563707, Note_on_c, 0, 69, 100
1, 563803, Note_off_c, 0, 69, 100
1, 563803, Note_on_c, 0, 66, 100
1, 563851, Note_off_c, 0, 66, 100
1, 563851, Note_on_c, 0, 69, 100
1, 563899, Note_off_c, 0, 69, 100
1, 563899, Note_on_c, 0, 68, 100
1, 563995, Note_off_c, 0, 68, 100
1, 563995, Note_on_c, 0, 67, 100
1, 564091, Note_off_c, 0, 67, 100
1, 564427, Note_on_c, 0, 61, 100
1, 564523, Note_off_c, 0, 61, 100
1, 564523, Note_on_c, 0, 65, 100
1, 564571, Note_off_c, 0, 65, 100
1, 564571, Note_on_c, 0, 69, 100
1, 564667, Note_off_c, 0, 69, 100
1, 564667, Note_on_c, 0, 71, 100
1, 564763, Note_off_c, 0, 71, 100
1, 564763, Note_on_c, 0, 63, 100
1, 564875, Note_off_c, 0, 63, 100
1, 564875, Note_on_c, 0, 67, 100
1, 564939, Note_off_c, 0, 67, 100
1, 564939, Note_on_c, 0, 70, 100
1, 565067, Note_off_c, 0, 70, 100
1, 565067, Note_on_c, 0, 70, 100
1, 565195, Note_off_c, 0, 70, 100
1, 565195, Note_on_c, 0, 68, 100
1, 565291, Note_off_c, 0, 68, 100
1, 565291, Note_on_c, 0, 67, 100
1, 565451, Note_off_c, 0, 67, 100
1, 565451, Note_on_c, 0, 67, 100
1, 565579, Note_off_c, 0, 67, 100
1, 565579, Note_on_c, 0, 60, 100
1, 565627, Note_off_c, 0, 60, 100
1, 565627, Note_on_c, 0, 62, 100
1, 565675, Note_off_c, 0, 62, 100
1, 565675, Note_on_c, 0, 65, 100
1, 565723, Note_off_c, 0, 65, 100
1, 565723, Note_on_c, 0, 67, 100
1, 565819, Note_off_c, 0, 67, 100
1, 565819, Note_on_c, 0, 78, 100
1, 565867, Note_off_c, 0, 78, 100
1, 565867, Note_on_c, 0, 79, 100
1, 565915, Note_off_c, 0, 79, 100
1, 565915, Note_on_c, 0, 81, 100
1, 566011, Note_off_c, 0, 81, 100
1, 566011, Note_on_c, 0, 79, 100
1, 566059, Note_off_c, 0, 79, 100
1, 566059, Note_on_c, 0, 75, 100
1, 566107, Note_off_c, 0, 75, 100
1, 566107, Note_on_c, 0, 68, 100
1, 566155, Note_off_c, 0, 68, 100
1, 566155, Note_on_c, 0, 69, 100
1, 566251, Note_off_c, 0, 69, 100
1, 566251, Note_on_c, 0, 68, 100
1, 566299, Note_off_c, 0, 68, 100
1, 566299, Note_on_c, 0, 67, 100
1, 566395, Note_off_c, 0, 67, 100
1, 567499, Note_on_c, 0, 77, 100
1, 567595, Note_off_c, 0, 77, 100
1, 567595, Note_on_c, 0, 79, 100
1, 568219, Note_off_c, 0, 79, 100
1, 568219, Note_on_c, 0, 77, 100
1, 568267, Note_off_c, 0, 77, 100
1, 568267, Note_on_c, 0, 79, 100
1, 568555, Note_off_c, 0, 79, 100
1, 568555, Note_on_c, 0, 68, 100
1, 568651, Note_off_c, 0, 68, 100
1, 568651, Note_on_c, 0, 66, 100
1, 568747, Note_off_c, 0, 66, 100
1, 569179, Note_on_c, 0, 75, 100
1, 569227, Note_off_c, 0, 75, 100
1, 569227, Note_on_c, 0, 77, 100
1, 569755, Note_off_c, 0, 77, 100
1, 569755, Note_on_c, 0, 72, 100
1, 569867, Note_off_c, 0, 72, 100
1, 569867, Note_on_c, 0, 46, 100
1, 569931, Note_off_c, 0, 46, 100
1, 569931, Note_on_c, 0, 45, 100
1, 570219, Note_off_c, 0, 45, 100
1, 570715, Note_on_c, 0, 78, 100
1, 570763, Note_off_c, 0, 78, 100
1, 570763, Note_on_c, 0, 79, 100
1, 571051, Note_off_c, 0, 79, 100
1, 571051, Note_on_c, 0, 80, 100
1, 571147, Note_off_c, 0, 80, 100
1, 571147, Note_on_c, 0, 81, 100
1, 571339, Note_off_c, 0, 81, 100
1, 571339, Note_on_c, 0, 80, 100
1, 571377, Note_off_c, 0, 80, 100
1, 571377, Note_on_c, 0, 77, 100
1, 571415, Note_off_c, 0, 77, 100
1, 571415, Note_on_c, 0, 75, 100
1, 571453, Note_off_c, 0, 75, 100
1, 571453, Note_on_c, 0, 72, 100
1, 571491, Note_off_c, 0, 72, 100
1, 571491, Note_on_c, 0, 70, 100
1, 571529, Note_off_c, 0, 70, 100
1, 571529, Note_on_c, 0, 69, 100
1, 571625, Note_off_c, 0, 69, 100
1, 572169, Note_on_c, 0, 79, 100
1, 572233, Note_off_c, 0, 79, 100
1, 572233, Note_on_c, 0, 80, 100
1, 572297, Note_off_c, 0, 80, 100
1, 572297, Note_on_c, 0, 81, 100
1, 573641, Note_off_c, 0, 81, 100
1, 573641, Note_on_c, 0, 80, 100
1, 573737, Note_off_c, 0, 80, 100
1, 573737, Note_on_c, 0, 81, 100
1, 573977, Note_off_c, 0, 81, 100
1, 573977, Note_on_c, 0, 76, 100
1, 574089, Note_off_c, 0, 76, 100
1, 574089, Note_on_c, 0, 77, 100
1, 574793, Note_off_c, 0, 77, 100
1, 574793, Note_on_c, 0, 74, 100
1, 574889, Note_off_c, 0, 74, 100
1, 574889, Note_on_c, 0, 73, 100
1, 574985, Note_off_c, 0, 73, 100
1, 574985, Note_on_c, 0, 69, 100
1, 575081, Note_off_c, 0, 69, 100
1, 575081, Note_on_c, 0, 74, 100
1, 575129, Note_off_c, 0, 74, 100
1, 575129, Note_on_c, 0, 72, 100
1, 575177, Note_off_c, 0, 72, 100
1, 575177, Note_on_c, 0, 69, 100
1, 575273, Note_off_c, 0, 69, 100
1, 575273, Note_on_c, 0, 65, 100
1, 575369, Note_off_c, 0, 65, 100
1, 575369, Note_on_c, 0, 62, 100
1, 575513, Note_off_c, 0, 62, 100
1, 575513, Note_on_c, 0, 58, 100
1, 575561, Note_off_c, 0, 58, 100
1, 575561, Note_on_c, 0, 65, 100
1, 575753, Note_off_c, 0, 65, 100
1, 575753, Note_on_c, 0, 67, 100
1, 575849, Note_off_c, 0, 67, 100
1, 576329, Note_on_c, 0, 67, 100
1, 576425, Note_off_c, 0, 67, 100
1, 576425, Note_on_c, 0, 69, 100
1, 576521, Note_off_c, 0, 69, 100
1, 576521, Note_on_c, 0, 71, 100
1, 576617, Note_off_c, 0, 71, 100
1, 576617, Note_on_c, 0, 67, 100
1, 577049, Note_off_c, 0, 67, 100
1, 577049, Note_on_c, 0, 65, 100
1, 577241, Note_off_c, 0, 65, 100
1, 577241, Note_on_c, 0, 65, 100
1, 577721, Note_off_c, 0, 65, 100
1, 577721, Note_on_c, 0, 64, 100
1, 577769, Note_off_c, 0, 64, 100
1, 577769, Note_on_c, 0, 65, 100
1, 577865, Note_off_c, 0, 65, 100
1, 577865, Note_on_c, 0, 62, 100
1, 577929, Note_off_c, 0, 62, 100
1, 577929, Note_on_c, 0, 65, 100
1, 577993, Note_off_c, 0, 65, 100
1, 577993, Note_on_c, 0, 62, 100
1, 578249, Note_off_c, 0, 62, 100
1, 578249, Note_on_c, 0, 59, 100
1, 578297, Note_off_c, 0, 59, 100
1, 578297, Note_on_c, 0, 62, 100
1, 578393, Note_off_c, 0, 62, 100
1, 578393, Note_on_c, 0, 59, 100
1, 578505, Note_off_c, 0, 59, 100
1, 578505, Note_on_c, 0, 57, 100
1, 578969, Note_off_c, 0, 57, 100
1, 578969, Note_on_c, 0, 53, 100
1, 579113, Note_off_c, 0, 53, 100
1, 579113, Note_on_c, 0, 50, 100
1, 579209, Note_off_c, 0, 50, 100
1, 580041, Note_on_c, 0, 70, 100
1, 580105, Note_off_c, 0, 70, 100
1, 580105, Note_on_c, 0, 72, 100
1, 580553, Note_off_c, 0, 72, 100
1, 580553, Note_on_c, 0, 71, 100
1, 580601, Note_off_c, 0, 71, 100
1, 580601, Note_on_c, 0, 72, 100
1, 581273, Note_off_c, 0, 72, 100
1, 581273, Note_on_c, 0, 72, 100
1, 581385, Note_off_c, 0, 72, 100
1, 581385, Note_on_c, 0, 70, 100
1, 581449, Note_off_c, 0, 70, 100
1, 581449, Note_on_c, 0, 68, 100
1, 581577, Note_off_c, 0, 68, 100
1, 581577, Note_on_c, 0, 65, 100
1, 581641, Note_off_c, 0, 65, 100
1, 581641, Note_on_c, 0, 63, 100
1, 581769, Note_off_c, 0, 63, 100
1, 581769, Note_on_c, 0, 68, 100
1, 581865, Note_off_c, 0, 68, 100
1, 582377, Note_on_c, 0, 70, 100
1, 582665, Note_off_c, 0, 70, 100
1, 582665, Note_on_c, 0, 69, 100
1, 582761, Note_off_c, 0, 69, 100
1, 582761, Note_on_c, 0, 70, 100
1, 583113, Note_off_c, 0, 70, 100
1, 583113, Note_on_c, 0, 68, 100
1, 583177, Note_off_c, 0, 68, 100
1, 583177, Note_on_c, 0, 70, 100
1, 583241, Note_off_c, 0, 70, 100
1, 583241, Note_on_c, 0, 72, 100
1, 583337, Note_off_c, 0, 72, 100
1, 583337, Note_on_c, 0, 70, 100
1, 583529, Note_off_c, 0, 70, 100
1, 583961, Note_on_c, 0, 70, 100
1, 584105, Note_off_c, 0, 70, 100
1, 584105, Note_on_c, 0, 64, 100
1, 584201, Note_off_c, 0, 64, 100
1, 584201, Note_on_c, 0, 65, 100
1, 584249, Note_off_c, 0, 65, 100
1, 584249, Note_on_c, 0, 67, 100
1, 584345, Note_off_c, 0, 67, 100
1, 584345, Note_on_c, 0, 66, 100
1, 584441, Note_off_c, 0, 66, 100
1, 584441, Note_on_c, 0, 63, 100
1, 584537, Note_off_c, 0, 63, 100
1, 584537, Note_on_c, 0, 62, 100
1, 584633, Note_off_c, 0, 62, 100
1, 584633, Note_on_c, 0, 65, 100
1, 584729, Note_off_c, 0, 65, 100
1, 584729, Note_on_c, 0, 63, 100
1, 584825, Note_off_c, 0, 63, 100
1, 585497, Note_on_c, 0, 63, 100
1, 585593, Note_off_c, 0, 63, 100
1, 585593, Note_on_c, 0, 62, 100
1, 585689, Note_off_c, 0, 62, 100
1, 585689, Note_on_c, 0, 63, 100
1, 585833, Note_off_c, 0, 63, 100
1, 585833, Note_on_c, 0, 66, 100
1, 585881, Note_off_c, 0, 66, 100
1, 585881, Note_on_c, 0, 65, 100
1, 586025, Note_off_c, 0, 65, 100
1, 586025, Note_on_c, 0, 61, 100
1, 586121, Note_off_c, 0, 61, 100
1, 586121, Note_on_c, 0, 58, 100
1, 586169, Note_off_c, 0, 58, 100
1, 586169, Note_on_c, 0, 54, 100
1, 586265, Note_off_c, 0, 54, 100
1, 586265, Note_on_c, 0, 60, 100
1, 586457, Note_off_c, 0, 60, 100
1, 587033, Note_on_c, 0, 60, 100
1, 587129, Note_off_c, 0, 60, 100
1, 587129, Note_on_c, 0, 61, 100
1, 587225, Note_off_c, 0, 61, 100
1, 587225, Note_on_c, 0, 63, 100
1, 587321, Note_off_c, 0, 63, 100
1, 587321, Note_on_c, 0, 65, 100
1, 587417, Note_off_c, 0, 65, 100
1, 587417, Note_on_c, 0, 62, 100
1, 587561, Note_off_c, 0, 62, 100
1, 587561, Note_on_c, 0, 65, 100
1, 587609, Note_off_c, 0, 65, 100
1, 587609, Note_on_c, 0, 69, 100
1, 587721, Note_off_c, 0, 69, 100
1, 587721, Note_on_c, 0, 72, 100
1, 587785, Note_off_c, 0, 72, 100
1, 587785, Note_on_c, 0, 66, 100
1, 587849, Note_off_c, 0, 66, 100
1, 587849, Note_on_c, 0, 67, 100
1, 587993, Note_off_c, 0, 67, 100
1, 587993, Note_on_c, 0, 71, 100
1, 588137, Note_off_c, 0, 71, 100
1, 588137, Note_on_c, 0, 62, 100
1, 588185, Note_off_c, 0, 62, 100
1, 588185, Note_on_c, 0, 67, 100
1, 588329, Note_off_c, 0, 67, 100
1, 588329, Note_on_c, 0, 71, 100
1, 588521, Note_off_c, 0, 71, 100
1, 588521, Note_on_c, 0, 62, 100
1, 588569, Note_off_c, 0, 62, 100
1, 588569, Note_on_c, 0, 67, 100
1, 588761, Note_off_c, 0, 67, 100
1, 588761, Note_on_c, 0, 69, 100
1, 588905, Note_off_c, 0, 69, 100
1, 588905, Note_on_c, 0, 65, 100
1, 589001, Note_off_c, 0, 65, 100
1, 589337, Note_on_c, 0, 66, 100
1, 589385, Note_off_c, 0, 66, 100
1, 589385, Note_on_c, 0, 67, 100
1, 589577, Note_off_c, 0, 67, 100
1, 589577, Note_on_c, 0, 62, 100
1, 589769, Note_off_c, 0, 62, 100
1, 589769, Note_on_c, 0, 67, 100
1, 589865, Note_off_c, 0, 67, 100
1, 589865, Note_on_c, 0, 69, 100
1, 589913, Note_off_c, 0, 69, 100
1, 589913, Note_on_c, 0, 71, 100
1, 590025, Note_off_c, 0, 71, 100
1, 590025, Note_on_c, 0, 62, 100
1, 590153, Note_off_c, 0, 62, 100
1, 590153, Note_on_c, 0, 67, 100
1, 590217, Note_off_c, 0, 67, 100
1, 590217, Note_on_c, 0, 69, 100
1, 590281, Note_off_c, 0, 69, 100
1, 590281, Note_on_c, 0, 71, 100
1, 590393, Note_off_c, 0, 71, 100
1, 590393, Note_on_c, 0, 62, 100
1, 590489, Note_off_c, 0, 62, 100
1, 590489, Note_on_c, 0, 66, 100
1, 590537, Note_off_c, 0, 66, 100
1, 590537, Note_on_c, 0, 67, 100
1, 590633, Note_off_c, 0, 67, 100
1, 590633, Note_on_c, 0, 69, 100
1, 590729, Note_off_c, 0, 69, 100
1, 590729, Note_on_c, 0, 71, 100
1, 590825, Note_off_c, 0, 71, 100
1, 590825, Note_on_c, 0, 67, 100
1, 591017, Note_off_c, 0, 67, 100
1, 592793, Note_on_c, 0, 70, 100
1, 592841, Note_off_c, 0, 70, 100
1, 592841, Note_on_c, 0, 71, 100
1, 592985, Note_off_c, 0, 71, 100
1, 592985, Note_on_c, 0, 74, 100
1, 593081, Note_off_c, 0, 74, 100
1, 593945, Note_on_c, 0, 70, 100
1, 593993, Note_off_c, 0, 70, 100
1, 593993, Note_on_c, 0, 74, 100
1, 594329, Note_off_c, 0, 74, 100
1, 594329, Note_on_c, 0, 71, 100
1, 594377, Note_off_c, 0, 71, 100
1, 594377, Note_on_c, 0, 65, 100
1, 594569, Note_off_c, 0, 65, 100
1, 595241, Note_on_c, 0, 69, 100
1, 595337, Note_off_c, 0, 69, 100
1, 595337, Note_on_c, 0, 71, 100
1, 595817, Note_off_c, 0, 71, 100
1, 595817, Note_on_c, 0, 65, 100
1, 595865, Note_off_c, 0, 65, 100
1, 595865, Note_on_c, 0, 70, 100
1, 595913, Note_off_c, 0, 70, 100
1, 595913, Note_on_c, 0, 71, 100
1, 596009, Note_off_c, 0, 71, 100
1, 596009, Note_on_c, 0, 74, 100
1, 596201, Note_off_c, 0, 74, 100
1, 596777, Note_on_c, 0, 71, 100
1, 596921, Note_off_c, 0, 71, 100
1, 596921, Note_on_c, 0, 67, 100
1, 597017, Note_off_c, 0, 67, 100
1, 597017, Note_on_c, 0, 74, 100
1, 597449, Note_off_c, 0, 74, 100
1, 597449, Note_on_c, 0, 71, 100
1, 597545, Note_off_c, 0, 71, 100
1, 597545, Note_on_c, 0, 74, 100
1, 597833, Note_off_c, 0, 74, 100
1, 597833, Note_on_c, 0, 71, 100
1, 597929, Note_off_c, 0, 71, 100
1, 597929, Note_on_c, 0, 65, 100
1, 598025, Note_off_c, 0, 65, 100
1, 598457, Note_on_c, 0, 70, 100
1, 598553, Note_off_c, 0, 70, 100
1, 598553, Note_on_c, 0, 71, 100
1, 598841, Note_off_c, 0, 71, 100
1, 598841, Note_on_c, 0, 65, 100
1, 598937, Note_off_c, 0, 65, 100
1, 598937, Note_on_c, 0, 71, 100
1, 599177, Note_off_c, 0, 71, 100
1, 599177, Note_on_c, 0, 74, 100
1, 599273, Note_off_c, 0, 74, 100
1, 599273, Note_on_c, 0, 73, 100
1, 599369, Note_off_c, 0, 73, 100
1, 599369, Note_on_c, 0, 70, 100
1, 599465, Note_off_c, 0, 70, 100
1, 599465, Note_on_c, 0, 71, 100
1, 599657, Note_off_c, 0, 71, 100
1, 599657, Note_on_c, 0, 73, 100
1, 599753, Note_off_c, 0, 73, 100
1, 599753, Note_on_c, 0, 74, 100
1, 599849, Note_off_c, 0, 74, 100
1, 599849, Note_on_c, 0, 67, 100
1, 599945, Note_off_c, 0, 67, 100
1, 599945, Note_on_c, 0, 70, 100
1, 600041, Note_off_c, 0, 70, 100
1, 600041, Note_on_c, 0, 74, 100
1, 600425, Note_off_c, 0, 74, 100
1, 600425, Note_on_c, 0, 74, 100
1, 600617, Note_off_c, 0, 74, 100
1, 600617, Note_on_c, 0, 77, 100
1, 600905, Note_off_c, 0, 77, 100
1, 600905, Note_on_c, 0, 79, 100
1, 600953, Note_off_c, 0, 79, 100
1, 600953, Note_on_c, 0, 72, 100
1, 601049, Note_off_c, 0, 72, 100
1, 601049, Note_on_c, 0, 74, 100
1, 601241, Note_off_c, 0, 74, 100
1, 601241, Note_on_c, 0, 77, 100
1, 601529, Note_off_c, 0, 77, 100
1, 601529, Note_on_c, 0, 72, 100
1, 601625, Note_off_c, 0, 72, 100
1, 601625, Note_on_c, 0, 74, 100
1, 601769, Note_off_c, 0, 74, 100
1, 601769, Note_on_c, 0, 70, 100
1, 601865, Note_off_c, 0, 70, 100
1, 601865, Note_on_c, 0, 65, 100
1, 601961, Note_off_c, 0, 65, 100
1, 601961, Note_on_c, 0, 67, 100
1, 602313, Note_off_c, 0, 67, 100
1, 602313, Note_on_c, 0, 66, 100
1, 602377, Note_off_c, 0, 66, 100
1, 602377, Note_on_c, 0, 67, 100
1, 602441, Note_off_c, 0, 67, 100
1, 602441, Note_on_c, 0, 68, 100
1, 602537, Note_off_c, 0, 68, 100
1, 602537, Note_on_c, 0, 65, 100
1, 602633, Note_off_c, 0, 65, 100
1, 602633, Note_on_c, 0, 61, 100
1, 602729, Note_off_c, 0, 61, 100
1, 602729, Note_on_c, 0, 62, 100
1, 603065, Note_off_c, 0, 62, 100
1, 603065, Note_on_c, 0, 58, 100
1, 603113, Note_off_c, 0, 58, 100
1, 603113, Note_on_c, 0, 55, 100
1, 603161, Note_off_c, 0, 55, 100
1, 603161, Note_on_c, 0, 53, 100
1, 603257, Note_off_c, 0, 53, 100
1, 603257, Note_on_c, 0, 50, 100
1, 603305, Note_off_c, 0, 50, 100
1, 603305, Note_on_c, 0, 48, 100
1, 603353, Note_off_c, 0, 48, 100
1, 603353, Note_on_c, 0, 50, 100
1, 603449, Note_off_c, 0, 50, 100
1, 604505, Note_on_c, 0, 73, 100
1, 604553, Note_off_c, 0, 73, 100
1, 604553, Note_on_c, 0, 74, 100
1, 604649, Note_off_c, 0, 74, 100
1, 604649, Note_on_c, 0, 75, 100
1, 604889, Note_off_c, 0, 75, 100
1, 604889, Note_on_c, 0, 76, 100
1, 604937, Note_off_c, 0, 76, 100
1, 604937, Note_on_c, 0, 77, 100
1, 604985, Note_off_c, 0, 77, 100
1, 604985, Note_on_c, 0, 78, 100
1, 605081, Note_off_c, 0, 78, 100
1, 605081, Note_on_c, 0, 76, 100
1, 605129, Note_off_c, 0, 76, 100
1, 605129, Note_on_c, 0, 77, 100
1, 605225, Note_off_c, 0, 77, 100
1, 605225, Note_on_c, 0, 78, 100
1, 605801, Note_off_c, 0, 78, 100
1, 605801, Note_on_c, 0, 76, 100
1, 605897, Note_off_c, 0, 76, 100
1, 605897, Note_on_c, 0, 75, 100
1, 606041, Note_off_c, 0, 75, 100
1, 606041, Note_on_c, 0, 72, 100
1, 606185, Note_off_c, 0, 72, 100
1, 606185, Note_on_c, 0, 73, 100
1, 606665, Note_off_c, 0, 73, 100
1, 606665, Note_on_c, 0, 71, 100
1, 606713, Note_off_c, 0, 71, 100
1, 606713, Note_on_c, 0, 72, 100
1, 606761, Note_off_c, 0, 72, 100
1, 606761, Note_on_c, 0, 73, 100
1, 606809, Note_off_c, 0, 73, 100
1, 606809, Note_on_c, 0, 75, 100
1, 606953, Note_off_c, 0, 75, 100
1, 606953, Note_on_c, 0, 68, 100
1, 607049, Note_off_c, 0, 68, 100
1, 607049, Note_on_c, 0, 67, 100
1, 607145, Note_off_c, 0, 67, 100
1, 607145, Note_on_c, 0, 68, 100
1, 607529, Note_off_c, 0, 68, 100
1, 607529, Note_on_c, 0, 67, 100
1, 607577, Note_off_c, 0, 67, 100
1, 607577, Note_on_c, 0, 66, 100
1, 607689, Note_off_c, 0, 66, 100
1, 607689, Note_on_c, 0, 68, 100
1, 607753, Note_off_c, 0, 68, 100
1, 607753, Note_on_c, 0, 70, 100
1, 607817, Note_off_c, 0, 70, 100
1, 607817, Note_on_c, 0, 61, 100
1, 607865, Note_off_c, 0, 61, 100
1, 607865, Note_on_c, 0, 62, 100
1, 607913, Note_off_c, 0, 62, 100
1, 607913, Note_on_c, 0, 63, 100
1, 608297, Note_off_c, 0, 63, 100
1, 608297, Note_on_c, 0, 66, 100
1, 608393, Note_off_c, 0, 66, 100
1, 608393, Note_on_c, 0, 63, 100
1, 608457, Note_off_c, 0, 63, 100
1, 608457, Note_on_c, 0, 61, 100
1, 608521, Note_off_c, 0, 61, 100
1, 608521, Note_on_c, 0, 58, 100
1, 608633, Note_off_c, 0, 58, 100
1, 608633, Note_on_c, 0, 55, 100
1, 608729, Note_off_c, 0, 55, 100
1, 608729, Note_on_c, 0, 58, 100
1, 608777, Note_off_c, 0, 58, 100
1, 608777, Note_on_c, 0, 57, 100
1, 608873, Note_off_c, 0, 57, 100
1, 608873, Note_on_c, 0, 53, 100
1, 608921, Note_off_c, 0, 53, 100
1, 608921, Note_on_c, 0, 54, 100
1, 608969, Note_off_c, 0, 54, 100
1, 608969, Note_on_c, 0, 53, 100
1, 609017, Note_off_c, 0, 53, 100
1, 609017, Note_on_c, 0, 50, 100
1, 609065, Note_off_c, 0, 50, 100
1, 609065, Note_on_c, 0, 47, 100
1, 609161, Note_off_c, 0, 47, 100
1, 609161, Note_on_c, 0, 46, 100
1, 609689, Note_off_c, 0, 46, 100
1, 609689, Note_on_c, 0, 43, 100
1, 609833, Note_off_c, 0, 43, 100
1, 609833, Note_on_c, 0, 51, 100
1, 609929, Note_off_c, 0, 51, 100
1, 610697, Note_on_c, 0, 71, 100
1, 610793, Note_off_c, 0, 71, 100
1, 610793, Note_on_c, 0, 73, 100
1, 611337, Note_off_c, 0, 73, 100
1, 611337, Note_on_c, 0, 74, 100
1, 611529, Note_off_c, 0, 74, 100
1, 611529, Note_on_c, 0, 77, 100
1, 611753, Note_off_c, 0, 77, 100
1, 611753, Note_on_c, 0, 72, 100
1, 611849, Note_off_c, 0, 72, 100
1, 611849, Note_on_c, 0, 74, 100
1, 611897, Note_off_c, 0, 74, 100
1, 611897, Note_on_c, 0, 73, 100
1, 611945, Note_off_c, 0, 73, 100
1, 611945, Note_on_c, 0, 71, 100
1, 611993, Note_off_c, 0, 71, 100
1, 611993, Note_on_c, 0, 70, 100
1, 612041, Note_off_c, 0, 70, 100
1, 612041, Note_on_c, 0, 67, 100
1, 612105, Note_off_c, 0, 67, 100
1, 612105, Note_on_c, 0, 69, 100
1, 612169, Note_off_c, 0, 69, 100
1, 612169, Note_on_c, 0, 67, 100
1, 612233, Note_off_c, 0, 67, 100
1, 612233, Note_on_c, 0, 68, 100
1, 612329, Note_off_c, 0, 68, 100
1, 612329, Note_on_c, 0, 67, 100
1, 612425, Note_off_c, 0, 67, 100
1, 612425, Note_on_c, 0, 62, 100
1, 612521, Note_off_c, 0, 62, 100
1, 612521, Note_on_c, 0, 61, 100
1, 612713, Note_off_c, 0, 61, 100
1, 612713, Note_on_c, 0, 62, 100
1, 612809, Note_off_c, 0, 62, 100
1, 612809, Note_on_c, 0, 58, 100
1, 612847, Note_off_c, 0, 58, 100
1, 612847, Note_on_c, 0, 55, 100
1, 612885, Note_off_c, 0, 55, 100
1, 612885, Note_on_c, 0, 54, 100
1, 612961, Note_off_c, 0, 54, 100
1, 612961, Note_on_c, 0, 49, 100
1, 612999, Note_off_c, 0, 49, 100
1, 612999, Note_on_c, 0, 50, 100
1, 613191, Note_off_c, 0, 50, 100
1, 613191, Note_on_c, 0, 46, 100
1, 613287, Note_off_c, 0, 46, 100
1, 613815, Note_on_c, 0, 77, 100
1, 613863, Note_off_c, 0, 77, 100
1, 613863, Note_on_c, 0, 79, 100
1, 614103, Note_off_c, 0, 79, 100
1, 614103, Note_on_c, 0, 84, 100
1, 614247, Note_off_c, 0, 84, 100
1, 614247, Note_on_c, 0, 78, 100
1, 614343, Note_off_c, 0, 78, 100
1, 614343, Note_on_c, 0, 73, 100
1, 614439, Note_off_c, 0, 73, 100
1, 614439, Note_on_c, 0, 74, 100
1, 614599, Note_off_c, 0, 74, 100
1, 614599, Note_on_c, 0, 76, 100
1, 614663, Note_off_c, 0, 76, 100
1, 614663, Note_on_c, 0, 77, 100
1, 614919, Note_off_c, 0, 77, 100
1, 614919, Note_on_c, 0, 73, 100
1, 614967, Note_off_c, 0, 73, 100
1, 614967, Note_on_c, 0, 72, 100
1, 615015, Note_off_c, 0, 72, 100
1, 615015, Note_on_c, 0, 74, 100
1, 615111, Note_off_c, 0, 74, 100
1, 615111, Note_on_c, 0, 72, 100
1, 615303, Note_off_c, 0, 72, 100
1, 615303, Note_on_c, 0, 73, 100
1, 615559, Note_off_c, 0, 73, 100
1, 615559, Note_on_c, 0, 72, 100
1, 615623, Note_off_c, 0, 72, 100
1, 615623, Note_on_c, 0, 71, 100
1, 615687, Note_off_c, 0, 71, 100
1, 615687, Note_on_c, 0, 70, 100
1, 615783, Note_off_c, 0, 70, 100
1, 615783, Note_on_c, 0, 66, 100
1, 615879, Note_off_c, 0, 66, 100
1, 615879, Note_on_c, 0, 67, 100
1, 616007, Note_off_c, 0, 67, 100
1, 616007, Note_on_c, 0, 68, 100
1, 616215, Note_off_c, 0, 68, 100
1, 616215, Note_on_c, 0, 61, 100
1, 616263, Note_off_c, 0, 61, 100
1, 616263, Note_on_c, 0, 62, 100
1, 616391, Note_off_c, 0, 62, 100
1, 616391, Note_on_c, 0, 65, 100
1, 616583, Note_off_c, 0, 65, 100
1, 617175, Note_on_c, 0, 67, 100
1, 617319, Note_off_c, 0, 67, 100
1, 617319, Note_on_c, 0, 62, 100
1, 617415, Note_off_c, 0, 62, 100
1, 617415, Note_on_c, 0, 65, 100
1, 617607, Note_off_c, 0, 65, 100
1, 617607, Note_on_c, 0, 67, 100
1, 618087, Note_off_c, 0, 67, 100
1, 618087, Note_on_c, 0, 67, 100
1, 618567, Note_off_c, 0, 67, 100
1, 618567, Note_on_c, 0, 65, 100
1, 618663, Note_off_c, 0, 65, 100
1, 618663, Note_on_c, 0, 69, 100
1, 618759, Note_off_c, 0, 69, 100
1, 618759, Note_on_c, 0, 68, 100
1, 618807, Note_off_c, 0, 68, 100
1, 618807, Note_on_c, 0, 67, 100
1, 618903, Note_off_c, 0, 67, 100
1, 619335, Note_on_c, 0, 69, 100
1, 619479, Note_off_c, 0, 69, 100
1, 619479, Note_on_c, 0, 67, 100
1, 619623, Note_off_c, 0, 67, 100
1, 619623, Note_on_c, 0, 69, 100
1, 619959, Note_off_c, 0, 69, 100
1, 619959, Note_on_c, 0, 67, 100
1, 620055, Note_off_c, 0, 67, 100
1, 620055, Note_on_c, 0, 65, 100
1, 620151, Note_off_c, 0, 65, 100
1, 620823, Note_on_c, 0, 46, 100
1, 621063, Note_off_c, 0, 46, 100
1, 621063, Note_on_c, 0, 53, 100
1, 621127, Note_off_c, 0, 53, 100
1, 621127, Note_on_c, 0, 56, 100
1, 621191, Note_off_c, 0, 56, 100
1, 621191, Note_on_c, 0, 52, 100
1, 621303, Note_off_c, 0, 52, 100
1, 621303, Note_on_c, 0, 53, 100
1, 621351, Note_off_c, 0, 53, 100
1, 621351, Note_on_c, 0, 54, 100
1, 621399, Note_off_c, 0, 54, 100
1, 621399, Note_on_c, 0, 57, 100
1, 621495, Note_off_c, 0, 57, 100
1, 621495, Note_on_c, 0, 59, 100
1, 621543, Note_off_c, 0, 59, 100
1, 621543, Note_on_c, 0, 51, 100
1, 621639, Note_off_c, 0, 51, 100
1, 621639, Note_on_c, 0, 52, 100
1, 621735, Note_off_c, 0, 52, 100
1, 622263, Note_on_c, 0, 69, 100
1, 622359, Note_off_c, 0, 69, 100
1, 622359, Note_on_c, 0, 66, 100
1, 622407, Note_off_c, 0, 66, 100
1, 622407, Note_on_c, 0, 69, 100
1, 622647, Note_off_c, 0, 69, 100
1, 622647, Note_on_c, 0, 69, 100
1, 622743, Note_off_c, 0, 69, 100
1, 622743, Note_on_c, 0, 62, 100
1, 622887, Note_off_c, 0, 62, 100
1, 622887, Note_on_c, 0, 66, 100
1, 622935, Note_off_c, 0, 66, 100
1, 622935, Note_on_c, 0, 69, 100
1, 623127, Note_off_c, 0, 69, 100
1, 623751, Note_on_c, 0, 63, 100
1, 623847, Note_off_c, 0, 63, 100
1, 623847, Note_on_c, 0, 68, 100
1, 623895, Note_off_c, 0, 68, 100
1, 623895, Note_on_c, 0, 69, 100
1, 624007, Note_off_c, 0, 69, 100
1, 624007, Note_on_c, 0, 69, 100
1, 624231, Note_off_c, 0, 69, 100
1, 624231, Note_on_c, 0, 68, 100
1, 624279, Note_off_c, 0, 68, 100
1, 624279, Note_on_c, 0, 59, 100
1, 624423, Note_off_c, 0, 59, 100
1, 624423, Note_on_c, 0, 71, 100
1, 624583, Note_off_c, 0, 71, 100
1, 624583, Note_on_c, 0, 71, 100
1, 624711, Note_off_c, 0, 71, 100
1, 624711, Note_on_c, 0, 59, 100
1, 624839, Note_off_c, 0, 59, 100
1, 624839, Note_on_c, 0, 71, 100
1, 624967, Note_off_c, 0, 71, 100
1, 624967, Note_on_c, 0, 71, 100
1, 625095, Note_off_c, 0, 71, 100
1, 625095, Note_on_c, 0, 57, 100
1, 625287, Note_off_c, 0, 57, 100
1, 625287, Note_on_c, 0, 60, 100
1, 625383, Note_off_c, 0, 60, 100
1, 625383, Note_on_c, 0, 60, 100
1, 625479, Note_off_c, 0, 60, 100
1, 625479, Note_on_c, 0, 69, 100
1, 625623, Note_off_c, 0, 69, 100
1, 625623, Note_on_c, 0, 69, 100
1, 625767, Note_off_c, 0, 69, 100
1, 625767, Note_on_c, 0, 69, 100
1, 625927, Note_off_c, 0, 69, 100
1, 625927, Note_on_c, 0, 58, 100
1, 626055, Note_off_c, 0, 58, 100
1, 626055, Note_on_c, 0, 69, 100
1, 626183, Note_off_c, 0, 69, 100
1, 626183, Note_on_c, 0, 72, 100
1, 626295, Note_off_c, 0, 72, 100
1, 626295, Note_on_c, 0, 71, 100
1, 626391, Note_off_c, 0, 71, 100
1, 626631, Note_on_c, 0, 57, 100
1, 626775, Note_off_c, 0, 57, 100
1, 626775, Note_on_c, 0, 69, 100
1, 626919, Note_off_c, 0, 69, 100
1, 626919, Note_on_c, 0, 69, 100
1, 627015, Note_off_c, 0, 69, 100
1, 627015, Note_on_c, 0, 63, 100
1, 627111, Note_off_c, 0, 63, 100
1, 627111, Note_on_c, 0, 71, 100
1, 627303, Note_off_c, 0, 71, 100
1, 627303, Note_on_c, 0, 71, 100
1, 627399, Note_off_c, 0, 71, 100
1, 627399, Note_on_c, 0, 63, 100
1, 627495, Note_off_c, 0, 63, 100
1, 627495, Note_on_c, 0, 69, 100
1, 627591, Note_off_c, 0, 69, 100
1, 627591, Note_on_c, 0, 69, 100
1, 627783, Note_off_c, 0, 69, 100
1, 627783, Note_on_c, 0, 65, 100
1, 627847, Note_off_c, 0, 65, 100
1, 627847, Note_on_c, 0, 66, 100
1, 627911, Note_off_c, 0, 66, 100
1, 627911, Note_on_c, 0, 71, 100
1, 628071, Note_off_c, 0, 71, 100
1, 628071, Note_on_c, 0, 71, 100
1, 628167, Note_off_c, 0, 71, 100
1, 628503, Note_on_c, 0, 63, 100
1, 628551, Note_off_c, 0, 63, 100
1, 628551, Note_on_c, 0, 69, 100
1, 628791, Note_off_c, 0, 69, 100
1, 628791, Note_on_c, 0, 69, 100
1, 628887, Note_off_c, 0, 69, 100
1, 628887, Note_on_c, 0, 62, 100
1, 628935, Note_off_c, 0, 62, 100
1, 628935, Note_on_c, 0, 63, 100
1, 629031, Note_off_c, 0, 63, 100
1, 629031, Note_on_c, 0, 71, 100
1, 629191, Note_off_c, 0, 71, 100
1, 629191, Note_on_c, 0, 71, 100
1, 629319, Note_off_c, 0, 71, 100
1, 629319, Note_on_c, 0, 61, 100
1, 629383, Note_off_c, 0, 61, 100
1, 629383, Note_on_c, 0, 62, 100
1, 629447, Note_off_c, 0, 62, 100
1, 629447, Note_on_c, 0, 69, 100
1, 629575, Note_off_c, 0, 69, 100
1, 629575, Note_on_c, 0, 69, 100
1, 629703, Note_off_c, 0, 69, 100
1, 629703, Note_on_c, 0, 58, 100
1, 629799, Note_off_c, 0, 58, 100
1, 629799, Note_on_c, 0, 59, 100
1, 629847, Note_off_c, 0, 59, 100
1, 629847, Note_on_c, 0, 70, 100
1, 629991, Note_off_c, 0, 70, 100
1, 629991, Note_on_c, 0, 70, 100
1, 630087, Note_off_c, 0, 70, 100
1, 630087, Note_on_c, 0, 65, 100
1, 630135, Note_off_c, 0, 65, 100
1, 630135, Note_on_c, 0, 67, 100
1, 630231, Note_off_c, 0, 67, 100
1, 630231, Note_on_c, 0, 68, 100
1, 630279, Note_off_c, 0, 68, 100
1, 630279, Note_on_c, 0, 72, 100
1, 630471, Note_off_c, 0, 72, 100
1, 630471, Note_on_c, 0, 72, 100
1, 630567, Note_off_c, 0, 72, 100
1, 630855, Note_on_c, 0, 58, 100
1, 630951, Note_off_c, 0, 58, 100
1, 630951, Note_on_c, 0, 69, 100
1, 630999, Note_off_c, 0, 69, 100
1, 630999, Note_on_c, 0, 70, 100
1, 631111, Note_off_c, 0, 70, 100
1, 631111, Note_on_c, 0, 70, 100
1, 631239, Note_off_c, 0, 70, 100
1, 631239, Note_on_c, 0, 58, 100
1, 631335, Note_off_c, 0, 58, 100
1, 631335, Note_on_c, 0, 71, 100
1, 631431, Note_off_c, 0, 71, 100
1, 631431, Note_on_c, 0, 70, 100
1, 631527, Note_off_c, 0, 70, 100
1, 631527, Note_on_c, 0, 70, 100
1, 631623, Note_off_c, 0, 70, 100
1, 631623, Note_on_c, 0, 62, 100
1, 631719, Note_off_c, 0, 62, 100
1, 631719, Note_on_c, 0, 63, 100
1, 631767, Note_off_c, 0, 63, 100
1, 631767, Note_on_c, 0, 72, 100
1, 631911, Note_off_c, 0, 72, 100
1, 631911, Note_on_c, 0, 72, 100
1, 632007, Note_off_c, 0, 72, 100
1, 632007, Note_on_c, 0, 58, 100
1, 632103, Note_off_c, 0, 58, 100
1, 632103, Note_on_c, 0, 70, 100
1, 632295, Note_off_c, 0, 70, 100
1, 632295, Note_on_c, 0, 70, 100
1, 632391, Note_off_c, 0, 70, 100
1, 632391, Note_on_c, 0, 59, 100
1, 632487, Note_off_c, 0, 59, 100
1, 632487, Note_on_c, 0, 60, 100
1, 632583, Note_off_c, 0, 60, 100
1, 632583, Note_on_c, 0, 72, 100
1, 632679, Note_off_c, 0, 72, 100
1, 632679, Note_on_c, 0, 72, 100
1, 632775, Note_off_c, 0, 72, 100
1, 633159, Note_on_c, 0, 58, 100
1, 633223, Note_off_c, 0, 58, 100
1, 633223, Note_on_c, 0, 59, 100
1, 633287, Note_off_c, 0, 59, 100
1, 633287, Note_on_c, 0, 70, 100
1, 633399, Note_off_c, 0, 70, 100
1, 633399, Note_on_c, 0, 70, 100
1, 633495, Note_off_c, 0, 70, 100
1, 633495, Note_on_c, 0, 59, 100
1, 633543, Note_off_c, 0, 59, 100
1, 633543, Note_on_c, 0, 60, 100
1, 633639, Note_off_c, 0, 60, 100
1, 633639, Note_on_c, 0, 72, 100
1, 633783, Note_off_c, 0, 72, 100
1, 633783, Note_on_c, 0, 72, 100
1, 633879, Note_off_c, 0, 72, 100
1, 633879, Note_on_c, 0, 58, 100
1, 633991, Note_off_c, 0, 58, 100
1, 633991, Note_on_c, 0, 71, 100
1, 634055, Note_off_c, 0, 71, 100
1, 634055, Note_on_c, 0, 70, 100
1, 634167, Note_off_c, 0, 70, 100
1, 634167, Note_on_c, 0, 70, 100
1, 634263, Note_off_c, 0, 70, 100
1, 634263, Note_on_c, 0, 59, 100
1, 634375, Note_off_c, 0, 59, 100
1, 634375, Note_on_c, 0, 60, 100
1, 634439, Note_off_c, 0, 60, 100
1, 634439, Note_on_c, 0, 72, 100
1, 634567, Note_off_c, 0, 72, 100
1, 634567, Note_on_c, 0, 72, 100
1, 634695, Note_off_c, 0, 72, 100
1, 634695, Note_on_c, 0, 58, 100
1, 634759, Note_off_c, 0, 58, 100
1, 634759, Note_on_c, 0, 59, 100
1, 634823, Note_off_c, 0, 59, 100
1, 634823, Note_on_c, 0, 70, 100
1, 634887, Note_off_c, 0, 70, 100
1, 634887, Note_on_c, 0, 70, 100
1, 635031, Note_off_c, 0, 70, 100
1, 635031, Note_on_c, 0, 59, 100
1, 635079, Note_off_c, 0, 59, 100
1, 635079, Note_on_c, 0, 60, 100
1, 635175, Note_off_c, 0, 60, 100
1, 635175, Note_on_c, 0, 72, 100
1, 635319, Note_off_c, 0, 72, 100
1, 635319, Note_on_c, 0, 72, 100
1, 635415, Note_off_c, 0, 72, 100
1, 635415, Note_on_c, 0, 59, 100
1, 635511, Note_off_c, 0, 59, 100
1, 635511, Note_on_c, 0, 60, 100
1, 635607, Note_off_c, 0, 60, 100
1, 635607, Note_on_c, 0, 72, 100
1, 635703, Note_off_c, 0, 72, 100
1, 636183, Note_on_c, 0, 59, 100
1, 636231, Note_off_c, 0, 59, 100
1, 636231, Note_on_c, 0, 60, 100
1, 636327, Note_off_c, 0, 60, 100
1, 636327, Note_on_c, 0, 71, 100
1, 636471, Note_off_c, 0, 71, 100
1, 636471, Note_on_c, 0, 71, 100
1, 636567, Note_off_c, 0, 71, 100
1, 636567, Note_on_c, 0, 56, 100
1, 636615, Note_off_c, 0, 56, 100
1, 636615, Note_on_c, 0, 57, 100
1, 636711, Note_off_c, 0, 57, 100
1, 636711, Note_on_c, 0, 72, 100
1, 636807, Note_off_c, 0, 72, 100
1, 636807, Note_on_c, 0, 71, 100
1, 636871, Note_off_c, 0, 71, 100
1, 636871, Note_on_c, 0, 73, 100
1, 636935, Note_off_c, 0, 73, 100
1, 636935, Note_on_c, 0, 72, 100
1, 637031, Note_off_c, 0, 72, 100
1, 637383, Note_on_c, 0, 59, 100
1, 637479, Note_off_c, 0, 59, 100
1, 637479, Note_on_c, 0, 69, 100
1, 637671, Note_off_c, 0, 69, 100
1, 637671, Note_on_c, 0, 69, 100
1, 637767, Note_off_c, 0, 69, 100
1, 637767, Note_on_c, 0, 57, 100
1, 637831, Note_off_c, 0, 57, 100
1, 637831, Note_on_c, 0, 58, 100
1, 637895, Note_off_c, 0, 58, 100
1, 637895, Note_on_c, 0, 71, 100
1, 638055, Note_off_c, 0, 71, 100
1, 638055, Note_on_c, 0, 71, 100
1, 638151, Note_off_c, 0, 71, 100
1, 638151, Note_on_c, 0, 58, 100
1, 638343, Note_off_c, 0, 58, 100
1, 638343, Note_on_c, 0, 69, 100
1, 638487, Note_off_c, 0, 69, 100
1, 638487, Note_on_c, 0, 69, 100
1, 638583, Note_off_c, 0, 69, 100
1, 638583, Note_on_c, 0, 57, 100
1, 638679, Note_off_c, 0, 57, 100
1, 638679, Note_on_c, 0, 58, 100
1, 638823, Note_off_c, 0, 58, 100
1, 638823, Note_on_c, 0, 71, 100
1, 638919, Note_off_c, 0, 71, 100
1, 640023, Note_on_c, 0, 69, 100
1, 640071, Note_off_c, 0, 69, 100
1, 640071, Note_on_c, 0, 70, 100
1, 640167, Note_off_c, 0, 70, 100
1, 640167, Note_on_c, 0, 71, 100
1, 640327, Note_off_c, 0, 71, 100
1, 640327, Note_on_c, 0, 70, 100
1, 640391, Note_off_c, 0, 70, 100
1, 640391, Note_on_c, 0, 71, 100
1, 641079, Note_off_c, 0, 71, 100
1, 641079, Note_on_c, 0, 70, 100
1, 641175, Note_off_c, 0, 70, 100
1, 641175, Note_on_c, 0, 71, 100
1, 641607, Note_off_c, 0, 71, 100
1, 641607, Note_on_c, 0, 69, 100
1, 641703, Note_off_c, 0, 69, 100
1, 641703, Note_on_c, 0, 71, 100
1, 641943, Note_off_c, 0, 71, 100
1, 641943, Note_on_c, 0, 69, 100
1, 641991, Note_off_c, 0, 69, 100
1, 641991, Note_on_c, 0, 71, 100
1, 642183, Note_off_c, 0, 71, 100
1, 642183, Note_on_c, 0, 62, 100
1, 642279, Note_off_c, 0, 62, 100
1, 642951, Note_on_c, 0, 70, 100
1, 643047, Note_off_c, 0, 70, 100
1, 643047, Note_on_c, 0, 71, 100
1, 643399, Note_off_c, 0, 71, 100
1, 643399, Note_on_c, 0, 67, 100
1, 643527, Note_off_c, 0, 67, 100
1, 643527, Note_on_c, 0, 71, 100
1, 643911, Note_off_c, 0, 71, 100
1, 643911, Note_on_c, 0, 67, 100
1, 644007, Note_off_c, 0, 67, 100
1, 644007, Note_on_c, 0, 65, 100
1, 644103, Note_off_c, 0, 65, 100
1, 644551, Note_on_c, 0, 69, 100
1, 644615, Note_off_c, 0, 69, 100
1, 644615, Note_on_c, 0, 70, 100
1, 644679, Note_off_c, 0, 70, 100
1, 644679, Note_on_c, 0, 71, 100
1, 644935, Note_off_c, 0, 71, 100
1, 644935, Note_on_c, 0, 65, 100
1, 644999, Note_off_c, 0, 65, 100
1, 644999, Note_on_c, 0, 71, 100
1, 645255, Note_off_c, 0, 71, 100
1, 645255, Note_on_c, 0, 65, 100
1, 645351, Note_off_c, 0, 65, 100
1, 645351, Note_on_c, 0, 72, 100
1, 645495, Note_off_c, 0, 72, 100
1, 645495, Note_on_c, 0, 65, 100
1, 645591, Note_off_c, 0, 65, 100
1, 645591, Note_on_c, 0, 72, 100
1, 645831, Note_off_c, 0, 72, 100
1, 645831, Note_on_c, 0, 73, 100
1, 646119, Note_off_c, 0, 73, 100
1, 646839, Note_on_c, 0, 73, 100
1, 646935, Note_off_c, 0, 73, 100
1, 646935, Note_on_c, 0, 74, 100
1, 647079, Note_off_c, 0, 74, 100
1, 647079, Note_on_c, 0, 74, 100
1, 647175, Note_off_c, 0, 74, 100
1, 647175, Note_on_c, 0, 73, 100
1, 647223, Note_off_c, 0, 73, 100
1, 647223, Note_on_c, 0, 74, 100
1, 647319, Note_off_c, 0, 74, 100
1, 647319, Note_on_c, 0, 71, 100
1, 647367, Note_off_c, 0, 71, 100
1, 647367, Note_on_c, 0, 73, 100
1, 647559, Note_off_c, 0, 73, 100
1, 647559, Note_on_c, 0, 71, 100
1, 647655, Note_off_c, 0, 71, 100
1, 647655, Note_on_c, 0, 67, 100
1, 647847, Note_off_c, 0, 67, 100
1, 647847, Note_on_c, 0, 67, 100
1, 647943, Note_off_c, 0, 67, 100
1, 647943, Note_on_c, 0, 65, 100
1, 648039, Note_off_c, 0, 65, 100
1, 648039, Note_on_c, 0, 62, 100
1, 648087, Note_off_c, 0, 62, 100
1, 648087, Note_on_c, 0, 65, 100
1, 648183, Note_off_c, 0, 65, 100
1, 648183, Note_on_c, 0, 67, 100
1, 648279, Note_off_c, 0, 67, 100
1, 648279, Note_on_c, 0, 69, 100
1, 648391, Note_off_c, 0, 69, 100
1, 648391, Note_on_c, 0, 71, 100
1, 648455, Note_off_c, 0, 71, 100
1, 648455, Note_on_c, 0, 66, 100
1, 648551, Note_off_c, 0, 66, 100
1, 648903, Note_on_c, 0, 65, 100
1, 648999, Note_off_c, 0, 65, 100
1, 648999, Note_on_c, 0, 67, 100
1, 649095, Note_off_c, 0, 67, 100
1, 649095, Note_on_c, 0, 69, 100
1, 649143, Note_off_c, 0, 69, 100
1, 649143, Note_on_c, 0, 71, 100
1, 649239, Note_off_c, 0, 71, 100
1, 649239, Note_on_c, 0, 64, 100
1, 649335, Note_off_c, 0, 64, 100
1, 649335, Note_on_c, 0, 66, 100
1, 649431, Note_off_c, 0, 66, 100
1, 649431, Note_on_c, 0, 68, 100
1, 649479, Note_off_c, 0, 68, 100
1, 649479, Note_on_c, 0, 70, 100
1, 649575, Note_off_c, 0, 70, 100
1, 649575, Note_on_c, 0, 69, 100
1, 649671, Note_off_c, 0, 69, 100
1, 649959, Note_on_c, 0, 63, 100
1, 650103, Note_off_c, 0, 63, 100
1, 650103, Note_on_c, 0, 62, 100
1, 650199, Note_off_c, 0, 62, 100
1, 650199, Note_on_c, 0, 63, 100
1, 650311, Note_off_c, 0, 63, 100
1, 650311, Note_on_c, 0, 65, 100
1, 650439, Note_off_c, 0, 65, 100
1, 650439, Note_on_c, 0, 66, 100
1, 650487, Note_off_c, 0, 66, 100
1, 650487, Note_on_c, 0, 68, 100
1, 650535, Note_off_c, 0, 68, 100
1, 650535, Note_on_c, 0, 70, 100
1, 650631, Note_off_c, 0, 70, 100
1, 650631, Note_on_c, 0, 71, 100
1, 650727, Note_off_c, 0, 71, 100
1, 650727, Note_on_c, 0, 68, 100
1, 650823, Note_off_c, 0, 68, 100
1, 650823, Note_on_c, 0, 66, 100
1, 650919, Note_off_c, 0, 66, 100
1, 650919, Note_on_c, 0, 65, 100
1, 651015, Note_off_c, 0, 65, 100
1, 651015, Note_on_c, 0, 65, 100
1, 651111, Note_off_c, 0, 65, 100
1, 651111, Note_on_c, 0, 63, 100
1, 651207, Note_off_c, 0, 63, 100
1, 651207, Note_on_c, 0, 62, 100
1, 651303, Note_off_c, 0, 62, 100
1, 651303, Note_on_c, 0, 61, 100
1, 651399, Note_off_c, 0, 61, 100
1, 651399, Note_on_c, 0, 65, 100
1, 651495, Note_off_c, 0, 65, 100
1, 651495, Note_on_c, 0, 61, 100
1, 651591, Note_off_c, 0, 61, 100
1, 651591, Note_on_c, 0, 61, 100
1, 651687, Note_off_c, 0, 61, 100
1, 651687, Note_on_c, 0, 63, 100
1, 651783, Note_off_c, 0, 63, 100
1, 651783, Note_on_c, 0, 65, 100
1, 651847, Note_off_c, 0, 65, 100
1, 651847, Note_on_c, 0, 67, 100
1, 651911, Note_off_c, 0, 67, 100
1, 651911, Note_on_c, 0, 63, 100
1, 652023, Note_off_c, 0, 63, 100
1, 652023, Note_on_c, 0, 61, 100
1, 652119, Note_off_c, 0, 61, 100
1, 652119, Note_on_c, 0, 59, 100
1, 652215, Note_off_c, 0, 59, 100
1, 652215, Note_on_c, 0, 58, 100
1, 652311, Note_off_c, 0, 58, 100
1, 652311, Note_on_c, 0, 57, 100
1, 652407, Note_off_c, 0, 57, 100
1, 652407, Note_on_c, 0, 56, 100
1, 652503, Note_off_c, 0, 56, 100
1, 652503, Note_on_c, 0, 55, 100
1, 652615, Note_off_c, 0, 55, 100
1, 652615, Note_on_c, 0, 59, 100
1, 652679, Note_off_c, 0, 59, 100
1, 652679, Note_on_c, 0, 57, 100
1, 652775, Note_off_c, 0, 57, 100
1, 653607, Note_on_c, 0, 57, 100
1, 654151, Note_off_c, 0, 57, 100
1, 654151, Note_on_c, 0, 54, 100
1, 654215, Note_off_c, 0, 54, 100
1, 654215, Note_on_c, 0, 57, 100
1, 654375, Note_off_c, 0, 57, 100
1, 654375, Note_on_c, 0, 54, 100
1, 654471, Note_off_c, 0, 54, 100
1, 654471, Note_on_c, 0, 55, 100
1, 654567, Note_off_c, 0, 55, 100
1, 654567, Note_on_c, 0, 51, 100
1, 654663, Note_off_c, 0, 51, 100
1, 654663, Note_on_c, 0, 50, 100
1, 654807, Note_off_c, 0, 50, 100
1, 654807, Note_on_c, 0, 49, 100
1, 654951, Note_off_c, 0, 49, 100
1, 654951, Note_on_c, 0, 53, 100
1, 655047, Note_off_c, 0, 53, 100
1, 655047, Note_on_c, 0, 48, 100
1, 655095, Note_off_c, 0, 48, 100
1, 655095, Note_on_c, 0, 51, 100
1, 655191, Note_off_c, 0, 51, 100
1, 655191, Note_on_c, 0, 56, 100
1, 655287, Note_off_c, 0, 56, 100
1, 655287, Note_on_c, 0, 58, 100
1, 655383, Note_off_c, 0, 58, 100
1, 655383, Note_on_c, 0, 60, 100
1, 655495, Note_off_c, 0, 60, 100
1, 655495, Note_on_c, 0, 63, 100
1, 655623, Note_off_c, 0, 63, 100
1, 655623, Note_on_c, 0, 59, 100
1, 655671, Note_off_c, 0, 59, 100
1, 655671, Note_on_c, 0, 58, 100
1, 655767, Note_off_c, 0, 58, 100
1, 655767, Note_on_c, 0, 57, 100
1, 655879, Note_off_c, 0, 57, 100
1, 655879, Note_on_c, 0, 55, 100
1, 655943, Note_off_c, 0, 55, 100
1, 655943, Note_on_c, 0, 54, 100
1, 656055, Note_off_c, 0, 54, 100
1, 656055, Note_on_c, 0, 59, 100
1, 656151, Note_off_c, 0, 59, 100
1, 656151, Note_on_c, 0, 58, 100
1, 656263, Note_off_c, 0, 58, 100
1, 656263, Note_on_c, 0, 54, 100
1, 656327, Note_off_c, 0, 54, 100
1, 656327, Note_on_c, 0, 53, 100
1, 656439, Note_off_c, 0, 53, 100
1, 656439, Note_on_c, 0, 51, 100
1, 656535, Note_off_c, 0, 51, 100
1, 656535, Note_on_c, 0, 56, 100
1, 656775, Note_off_c, 0, 56, 100
1, 656775, Note_on_c, 0, 56, 100
1, 656839, Note_off_c, 0, 56, 100
1, 656839, Note_on_c, 0, 58, 100
1, 656903, Note_off_c, 0, 58, 100
1, 656903, Note_on_c, 0, 60, 100
1, 656967, Note_off_c, 0, 60, 100
1, 656967, Note_on_c, 0, 61, 100
1, 657063, Note_off_c, 0, 61, 100
1, 657063, Note_on_c, 0, 62, 100
1, 657207, Note_off_c, 0, 62, 100
1, 657207, Note_on_c, 0, 65, 100
1, 657303, Note_off_c, 0, 65, 100
1, 657303, Note_on_c, 0, 63, 100
1, 657415, Note_off_c, 0, 63, 100
1, 657415, Note_on_c, 0, 62, 100
1, 657479, Note_off_c, 0, 62, 100
1, 657479, Note_on_c, 0, 66, 100
1, 657543, Note_off_c, 0, 66, 100
1, 657543, Note_on_c, 0, 66, 100
1, 657591, Note_off_c, 0, 66, 100
1, 657591, Note_on_c, 0, 68, 100
1, 657687, Note_off_c, 0, 68, 100
1, 657687, Note_on_c, 0, 64, 100
1, 657799, Note_off_c, 0, 64, 100
1, 657799, Note_on_c, 0, 63, 100
1, 657927, Note_off_c, 0, 63, 100
1, 657927, Note_on_c, 0, 64, 100
1, 658023, Note_off_c, 0, 64, 100
1, 658023, Note_on_c, 0, 69, 100
1, 658119, Note_off_c, 0, 69, 100
1, 658119, Note_on_c, 0, 67, 100
1, 658215, Note_off_c, 0, 67, 100
1, 658215, Note_on_c, 0, 69, 100
1, 658311, Note_off_c, 0, 69, 100
1, 658311, Note_on_c, 0, 67, 100
1, 658407, Note_off_c, 0, 67, 100
1, 658407, Note_on_c, 0, 67, 100
1, 658567, Note_off_c, 0, 67, 100
1, 658567, Note_on_c, 0, 72, 100
1, 658695, Note_off_c, 0, 72, 100
1, 658695, Note_on_c, 0, 69, 100
1, 658791, Note_off_c, 0, 69, 100
1, 658791, Note_on_c, 0, 71, 100
1, 658887, Note_off_c, 0, 71, 100
1, 658887, Note_on_c, 0, 68, 100
1, 658951, Note_off_c, 0, 68, 100
1, 658951, Note_on_c, 0, 66, 100
1, 659015, Note_off_c, 0, 66, 100
1, 659015, Note_on_c, 0, 63, 100
1, 659271, Note_off_c, 0, 63, 100
1, 659271, Note_on_c, 0, 65, 100
1, 659367, Note_off_c, 0, 65, 100
1, 659991, Note_on_c, 0, 66, 100
1, 660135, Note_off_c, 0, 66, 100
1, 660135, Note_on_c, 0, 66, 100
1, 660231, Note_off_c, 0, 66, 100
1, 660231, Note_on_c, 0, 68, 100
1, 660327, Note_off_c, 0, 68, 100
1, 660327, Note_on_c, 0, 71, 100
1, 660423, Note_off_c, 0, 71, 100
1, 660423, Note_on_c, 0, 64, 100
1, 660519, Note_off_c, 0, 64, 100
1, 660519, Note_on_c, 0, 66, 100
1, 660567, Note_off_c, 0, 66, 100
1, 660567, Note_on_c, 0, 67, 100
1, 660711, Note_off_c, 0, 67, 100
1, 660711, Note_on_c, 0, 69, 100
1, 660759, Note_off_c, 0, 69, 100
1, 660759, Note_on_c, 0, 66, 100
1, 660855, Note_off_c, 0, 66, 100
1, 660855, Note_on_c, 0, 64, 100
1, 660951, Note_off_c, 0, 64, 100
1, 660951, Note_on_c, 0, 63, 100
1, 661047, Note_off_c, 0, 63, 100
1, 661047, Note_on_c, 0, 62, 100
1, 661191, Note_off_c, 0, 62, 100
1, 661191, Note_on_c, 0, 68, 100
1, 661287, Note_off_c, 0, 68, 100
1, 661287, Note_on_c, 0, 67, 100
1, 661479, Note_off_c, 0, 67, 100
1, 661479, Note_on_c, 0, 65, 100
1, 661575, Note_off_c, 0, 65, 100
1, 661575, Note_on_c, 0, 63, 100
1, 661719, Note_off_c, 0, 63, 100
1, 661719, Note_on_c, 0, 59, 100
1, 661767, Note_off_c, 0, 59, 100
1, 661767, Note_on_c, 0, 58, 100
1, 661863, Note_off_c, 0, 58, 100
1, 661863, Note_on_c, 0, 68, 100
1, 661911, Note_off_c, 0, 68, 100
1, 661911, Note_on_c, 0, 69, 100
1, 662007, Note_off_c, 0, 69, 100
1, 662007, Note_on_c, 0, 68, 100
1, 662103, Note_off_c, 0, 68, 100
1, 662103, Note_on_c, 0, 67, 100
1, 662247, Note_off_c, 0, 67, 100
1, 662247, Note_on_c, 0, 70, 100
1, 662295, Note_off_c, 0, 70, 100
1, 662295, Note_on_c, 0, 67, 100
1, 662407, Note_off_c, 0, 67, 100
1, 662407, Note_on_c, 0, 68, 100
1, 662631, Note_off_c, 0, 68, 100
1, 662631, Note_on_c, 0, 68, 100
1, 662727, Note_off_c, 0, 68, 100
1, 662727, Note_on_c, 0, 67, 100
1, 662823, Note_off_c, 0, 67, 100
1, 662823, Note_on_c, 0, 66, 100
1, 662919, Note_off_c, 0, 66, 100
1, 662919, Note_on_c, 0, 69, 100
1, 662967, Note_off_c, 0, 69, 100
1, 662967, Note_on_c, 0, 71, 100
1, 663063, Note_off_c, 0, 71, 100
1, 663063, Note_on_c, 0, 63, 100
1, 663207, Note_off_c, 0, 63, 100
1, 663207, Note_on_c, 0, 62, 100
1, 663303, Note_off_c, 0, 62, 100
1, 663303, Note_on_c, 0, 63, 100
1, 663399, Note_off_c, 0, 63, 100
1, 663399, Note_on_c, 0, 67, 100
1, 663495, Note_off_c, 0, 67, 100
1, 663495, Note_on_c, 0, 64, 100
1, 663591, Note_off_c, 0, 64, 100
1, 663591, Note_on_c, 0, 66, 100
1, 663687, Note_off_c, 0, 66, 100
1, 663687, Note_on_c, 0, 68, 100
1, 663783, Note_off_c, 0, 68, 100
1, 663783, Note_on_c, 0, 70, 100
1, 663879, Note_off_c, 0, 70, 100
1, 663879, Note_on_c, 0, 66, 100
1, 663975, Note_off_c, 0, 66, 100
1, 663975, Note_on_c, 0, 61, 100
1, 664071, Note_off_c, 0, 61, 100
1, 664071, Note_on_c, 0, 59, 100
1, 664167, Note_off_c, 0, 59, 100
1, 664167, Note_on_c, 0, 58, 100
1, 664215, Note_off_c, 0, 58, 100
1, 664215, Note_on_c, 0, 57, 100
1, 664407, Note_off_c, 0, 57, 100
1, 665127, Note_on_c, 0, 57, 100
1, 665223, Note_off_c, 0, 57, 100
1, 665223, Note_on_c, 0, 59, 100
1, 665319, Note_off_c, 0, 59, 100
1, 665319, Note_on_c, 0, 62, 100
1, 665463, Note_off_c, 0, 62, 100
1, 665463, Note_on_c, 0, 65, 100
1, 665559, Note_off_c, 0, 65, 100
1, 665559, Note_on_c, 0, 69, 100
1, 665607, Note_off_c, 0, 69, 100
1, 665607, Note_on_c, 0, 71, 100
1, 665703, Note_off_c, 0, 71, 100
1, 665703, Note_on_c, 0, 74, 100
1, 665799, Note_off_c, 0, 74, 100
1, 665799, Note_on_c, 0, 69, 100
1, 665895, Note_off_c, 0, 69, 100
1, 666375, Note_on_c, 0, 62, 100
1, 666439, Note_off_c, 0, 62, 100
1, 666439, Note_on_c, 0, 65, 100
1, 666503, Note_off_c, 0, 65, 100
1, 666503, Note_on_c, 0, 69, 100
1, 666615, Note_off_c, 0, 69, 100
1, 666615, Note_on_c, 0, 65, 100
1, 666711, Note_off_c, 0, 65, 100
1, 666711, Note_on_c, 0, 62, 100
1, 666807, Note_off_c, 0, 62, 100
1, 667911, Note_on_c, 0, 74, 100
1, 668007, Note_off_c, 0, 74, 100
1, 668007, Note_on_c, 0, 73, 100
1, 668103, Note_off_c, 0, 73, 100
1, 668103, Note_on_c, 0, 69, 100
1, 668199, Note_off_c, 0, 69, 100
1, 668199, Note_on_c, 0, 65, 100
1, 668247, Note_off_c, 0, 65, 100
1, 668247, Note_on_c, 0, 62, 100
1, 668343, Note_off_c, 0, 62, 100
1, 668343, Note_on_c, 0, 57, 100
1, 668439, Note_off_c, 0, 57, 100
1, 668439, Note_on_c, 0, 65, 100
1, 668535, Note_off_c, 0, 65, 100
1, 669207, Note_on_c, 0, 65, 100
1, 669447, Note_off_c, 0, 65, 100
1, 669447, Note_on_c, 0, 74, 100
1, 669511, Note_off_c, 0, 74, 100
1, 669511, Note_on_c, 0, 74, 100
1, 669575, Note_off_c, 0, 74, 100
1, 669575, Note_on_c, 0, 73, 100
1, 669639, Note_off_c, 0, 73, 100
1, 669639, Note_on_c, 0, 69, 100
1, 669735, Note_off_c, 0, 69, 100
1, 670599, Note_on_c, 0, 70, 100
1, 670695, Note_off_c, 0, 70, 100
1, 670695, Note_on_c, 0, 71, 100
1, 671047, Note_off_c, 0, 71, 100
1, 671047, Note_on_c, 0, 69, 100
1, 671111, Note_off_c, 0, 69, 100
1, 671111, Note_on_c, 0, 65, 100
1, 671223, Note_off_c, 0, 65, 100
1, 671223, Note_on_c, 0, 62, 100
1, 671319, Note_off_c, 0, 62, 100
1, 671319, Note_on_c, 0, 57, 100
1, 671463, Note_off_c, 0, 57, 100
1, 671463, Note_on_c, 0, 53, 100
1, 671559, Note_off_c, 0, 53, 100
1, 672807, Note_on_c, 0, 71, 100
1, 672967, Note_off_c, 0, 71, 100
1, 672967, Note_on_c, 0, 65, 100
1, 673031, Note_off_c, 0, 65, 100
1, 673031, Note_on_c, 0, 69, 100
1, 673159, Note_off_c, 0, 69, 100
1, 673159, Note_on_c, 0, 65, 100
1, 673223, Note_off_c, 0, 65, 100
1, 673223, Note_on_c, 0, 62, 100
1, 673335, Note_off_c, 0, 62, 100
1, 673335, Note_on_c, 0, 59, 100
1, 673431, Note_off_c, 0, 59, 100
1, 673431, Note_on_c, 0, 57, 100
1, 673543, Note_off_c, 0, 57, 100
1, 673543, Note_on_c, 0, 59, 100
1, 673607, Note_off_c, 0, 59, 100
1, 673607, Note_on_c, 0, 57, 100
1, 673671, Note_off_c, 0, 57, 100
1, 673671, Note_on_c, 0, 53, 100
1, 673767, Note_off_c, 0, 53, 100
1, 673767, Note_on_c, 0, 52, 100
1, 673863, Note_off_c, 0, 52, 100
1, 674583, Note_on_c, 0, 51, 100
1, 674679, Note_off_c, 0, 51, 100
1, 674679, Note_on_c, 0, 52, 100
1, 674775, Note_off_c, 0, 52, 100
1, 674775, Note_on_c, 0, 57, 100
1, 674871, Note_off_c, 0, 57, 100
1, 674871, Note_on_c, 0, 60, 100
1, 674967, Note_off_c, 0, 60, 100
1, 674967, Note_on_c, 0, 51, 100
1, 675015, Note_off_c, 0, 51, 100
1, 675015, Note_on_c, 0, 52, 100
1, 675111, Note_off_c, 0, 52, 100
1, 675399, Note_on_c, 0, 50, 100
1, 675463, Note_off_c, 0, 50, 100
1, 675463, Note_on_c, 0, 53, 100
1, 675527, Note_off_c, 0, 53, 100
1, 675527, Note_on_c, 0, 57, 100
1, 675591, Note_off_c, 0, 57, 100
1, 675591, Note_on_c, 0, 60, 100
1, 675687, Note_off_c, 0, 60, 100
1, 675687, Note_on_c, 0, 59, 100
1, 675783, Note_off_c, 0, 59, 100
1, 676503, Note_on_c, 0, 59, 100
1, 676615, Note_off_c, 0, 59, 100
1, 676615, Note_on_c, 0, 58, 100
1, 676679, Note_off_c, 0, 58, 100
1, 676679, Note_on_c, 0, 59, 100
1, 676791, Note_off_c, 0, 59, 100
1, 676791, Note_on_c, 0, 60, 100
1, 676887, Note_off_c, 0, 60, 100
1, 676887, Note_on_c, 0, 62, 100
1, 676999, Note_off_c, 0, 62, 100
1, 676999, Note_on_c, 0, 64, 100
1, 677127, Note_off_c, 0, 64, 100
1, 677127, Note_on_c, 0, 65, 100
1, 677175, Note_off_c, 0, 65, 100
1, 677175, Note_on_c, 0, 67, 100
1, 677271, Note_off_c, 0, 67, 100
1, 677271, Note_on_c, 0, 67, 100
1, 677415, Note_off_c, 0, 67, 100
1, 677415, Note_on_c, 0, 69, 100
1, 677575, Note_off_c, 0, 69, 100
1, 677575, Note_on_c, 0, 72, 100
1, 677639, Note_off_c, 0, 72, 100
1, 677639, Note_on_c, 0, 69, 100
1, 677735, Note_off_c, 0, 69, 100
1, 678279, Note_on_c, 0, 67, 100
1, 678375, Note_off_c, 0, 67, 100
1, 678375, Note_on_c, 0, 69, 100
1, 678727, Note_off_c, 0, 69, 100
1, 678727, Note_on_c, 0, 65, 100
1, 678791, Note_off_c, 0, 65, 100
1, 678791, Note_on_c, 0, 70, 100
1, 678855, Note_off_c, 0, 70, 100
1, 678855, Note_on_c, 0, 73, 100
1, 678951, Note_off_c, 0, 73, 100
1, 678951, Note_on_c, 0, 70, 100
1, 679047, Note_off_c, 0, 70, 100
1, 679623, Note_on_c, 0, 69, 100
1, 679671, Note_off_c, 0, 69, 100
1, 679671, Note_on_c, 0, 71, 100
1, 679719, Note_off_c, 0, 71, 100
1, 679719, Note_on_c, 0, 72, 100
1, 679767, Note_off_c, 0, 72, 100
1, 679767, Note_on_c, 0, 68, 100
1, 679959, Note_off_c, 0, 68, 100
1, 679959, Note_on_c, 0, 65, 100
1, 680055, Note_off_c, 0, 65, 100
1, 680727, Note_on_c, 0, 70, 100
1, 680823, Note_off_c, 0, 70, 100
1, 680823, Note_on_c, 0, 73, 100
1, 680871, Note_off_c, 0, 73, 100
1, 680871, Note_on_c, 0, 70, 100
1, 680967, Note_off_c, 0, 70, 100
1, 680967, Note_on_c, 0, 68, 100
1, 681031, Note_off_c, 0, 68, 100
1, 681031, Note_on_c, 0, 72, 100
1, 681095, Note_off_c, 0, 72, 100
1, 681095, Note_on_c, 0, 70, 100
1, 681159, Note_off_c, 0, 70, 100
1, 681159, Note_on_c, 0, 73, 100
1, 681223, Note_off_c, 0, 73, 100
1, 681223, Note_on_c, 0, 71, 100
1, 681287, Note_off_c, 0, 71, 100
1, 681287, Note_on_c, 0, 68, 100
1, 681351, Note_off_c, 0, 68, 100
1, 681351, Note_on_c, 0, 70, 100
1, 681415, Note_off_c, 0, 70, 100
1, 681415, Note_on_c, 0, 73, 100
1, 681479, Note_off_c, 0, 73, 100
1, 681479, Note_on_c, 0, 70, 100
1, 681543, Note_off_c, 0, 70, 100
1, 681543, Note_on_c, 0, 73, 100
1, 681607, Note_off_c, 0, 73, 100
1, 681607, Note_on_c, 0, 68, 100
1, 681671, Note_off_c, 0, 68, 100
1, 681671, Note_on_c, 0, 69, 100
1, 681735, Note_off_c, 0, 69, 100
1, 681735, Note_on_c, 0, 73, 100
1, 681831, Note_off_c, 0, 73, 100
1, 681831, Note_on_c, 0, 73, 100
1, 681927, Note_off_c, 0, 73, 100
1, 681927, Note_on_c, 0, 70, 100
1, 682023, Note_off_c, 0, 70, 100
1, 682023, Note_on_c, 0, 73, 100
1, 682071, Note_off_c, 0, 73, 100
1, 682071, Note_on_c, 0, 72, 100
1, 682183, Note_off_c, 0, 72, 100
1, 682183, Note_on_c, 0, 70, 100
1, 682247, Note_off_c, 0, 70, 100
1, 682247, Note_on_c, 0, 72, 100
1, 682375, Note_off_c, 0, 72, 100
1, 682375, Note_on_c, 0, 73, 100
1, 682439, Note_off_c, 0, 73, 100
1, 682439, Note_on_c, 0, 71, 100
1, 682503, Note_off_c, 0, 71, 100
1, 682503, Note_on_c, 0, 70, 100
1, 682551, Note_off_c, 0, 70, 100
1, 682551, Note_on_c, 0, 71, 100
1, 682599, Note_off_c, 0, 71, 100
1, 682599, Note_on_c, 0, 70, 100
1, 682647, Note_off_c, 0, 70, 100
1, 682647, Note_on_c, 0, 71, 100
1, 682695, Note_off_c, 0, 71, 100
1, 682695, Note_on_c, 0, 72, 100
1, 682791, Note_off_c, 0, 72, 100
1, 682791, Note_on_c, 0, 73, 100
1, 682887, Note_off_c, 0, 73, 100
1, 682887, Note_on_c, 0, 68, 100
1, 682983, Note_off_c, 0, 68, 100
1, 682983, Note_on_c, 0, 71, 100
1, 683031, Note_off_c, 0, 71, 100
1, 683031, Note_on_c, 0, 72, 100
1, 683079, Note_off_c, 0, 72, 100
1, 683079, Note_on_c, 0, 71, 100
1, 683143, Note_off_c, 0, 71, 100
1, 683143, Note_on_c, 0, 72, 100
1, 683207, Note_off_c, 0, 72, 100
1, 683207, Note_on_c, 0, 70, 100
1, 683271, Note_off_c, 0, 70, 100
1, 683271, Note_on_c, 0, 68, 100
1, 683319, Note_off_c, 0, 68, 100
1, 683319, Note_on_c, 0, 70, 100
1, 683367, Note_off_c, 0, 70, 100
1, 683367, Note_on_c, 0, 71, 100
1, 683415, Note_off_c, 0, 71, 100
1, 683415, Note_on_c, 0, 69, 100
1, 683463, Note_off_c, 0, 69, 100
1, 683463, Note_on_c, 0, 70, 100
1, 683559, Note_off_c, 0, 70, 100
1, 683559, Note_on_c, 0, 68, 100
1, 683655, Note_off_c, 0, 68, 100
1, 683655, Note_on_c, 0, 70, 100
1, 683703, Note_off_c, 0, 70, 100
1, 683703, Note_on_c, 0, 73, 100
1, 683751, Note_off_c, 0, 73, 100
1, 683751, Note_on_c, 0, 72, 100
1, 683847, Note_off_c, 0, 72, 100
1, 683847, Note_on_c, 0, 73, 100
1, 683911, Note_off_c, 0, 73, 100
1, 683911, Note_on_c, 0, 70, 100
1, 683975, Note_off_c, 0, 70, 100
1, 683975, Note_on_c, 0, 68, 100
1, 684087, Note_off_c, 0, 68, 100
1, 684087, Note_on_c, 0, 70, 100
1, 684183, Note_off_c, 0, 70, 100
1, 684183, Note_on_c, 0, 74, 100
1, 684327, Note_off_c, 0, 74, 100
1, 684327, Note_on_c, 0, 68, 100
1, 684423, Note_off_c, 0, 68, 100
1, 684423, Note_on_c, 0, 70, 100
1, 684519, Note_off_c, 0, 70, 100
1, 684519, Note_on_c, 0, 72, 100
1, 684615, Note_off_c, 0, 72, 100
1, 684615, Note_on_c, 0, 71, 100
1, 684663, Note_off_c, 0, 71, 100
1, 684663, Note_on_c, 0, 70, 100
1, 684951, Note_off_c, 0, 70, 100
1, 685383, Note_on_c, 0, 72, 100
1, 685431, Note_off_c, 0, 72, 100
1, 685431, Note_on_c, 0, 69, 100
1, 685527, Note_off_c, 0, 69, 100
1, 685527, Note_on_c, 0, 65, 100
1, 685623, Note_off_c, 0, 65, 100
1, 685623, Note_on_c, 0, 73, 100
1, 685671, Note_off_c, 0, 73, 100
1, 685671, Note_on_c, 0, 72, 100
1, 685767, Note_off_c, 0, 72, 100
1, 685767, Note_on_c, 0, 71, 100
1, 685831, Note_off_c, 0, 71, 100
1, 685831, Note_on_c, 0, 69, 100
1, 685895, Note_off_c, 0, 69, 100
1, 685895, Note_on_c, 0, 71, 100
1, 685959, Note_off_c, 0, 71, 100
1, 685959, Note_on_c, 0, 73, 100
1, 686055, Note_off_c, 0, 73, 100
1, 686055, Note_on_c, 0, 71, 100
1, 686199, Note_off_c, 0, 71, 100
1, 686199, Note_on_c, 0, 69, 100
1, 686247, Note_off_c, 0, 69, 100
1, 686247, Note_on_c, 0, 71, 100
1, 686295, Note_off_c, 0, 71, 100
1, 686295, Note_on_c, 0, 73, 100
1, 686343, Note_off_c, 0, 73, 100
1, 686343, Note_on_c, 0, 72, 100
1, 686407, Note_off_c, 0, 72, 100
1, 686407, Note_on_c, 0, 69, 100
1, 686471, Note_off_c, 0, 69, 100
1, 686471, Note_on_c, 0, 65, 100
1, 686535, Note_off_c, 0, 65, 100
1, 686535, Note_on_c, 0, 69, 100
1, 686599, Note_off_c, 0, 69, 100
1, 686599, Note_on_c, 0, 72, 100
1, 686663, Note_off_c, 0, 72, 100
1, 686663, Note_on_c, 0, 69, 100
1, 686727, Note_off_c, 0, 69, 100
1, 686727, Note_on_c, 0, 72, 100
1, 686775, Note_off_c, 0, 72, 100
1, 686775, Note_on_c, 0, 69, 100
1, 686871, Note_off_c, 0, 69, 100
1, 686871, Note_on_c, 0, 68, 100
1, 686919, Note_off_c, 0, 68, 100
1, 686919, Note_on_c, 0, 71, 100
1, 687015, Note_off_c, 0, 71, 100
1, 687015, Note_on_c, 0, 69, 100
1, 687063, Note_off_c, 0, 69, 100
1, 687063, Note_on_c, 0, 74, 100
1, 687111, Note_off_c, 0, 74, 100
1, 687111, Note_on_c, 0, 69, 100
1, 687207, Note_off_c, 0, 69, 100
1, 687207, Note_on_c, 0, 71, 100
1, 687303, Note_off_c, 0, 71, 100
1, 687303, Note_on_c, 0, 73, 100
1, 687351, Note_off_c, 0, 73, 100
1, 687351, Note_on_c, 0, 72, 100
1, 687399, Note_off_c, 0, 72, 100
1, 687399, Note_on_c, 0, 71, 100
1, 687447, Note_off_c, 0, 71, 100
1, 687447, Note_on_c, 0, 72, 100
1, 687495, Note_off_c, 0, 72, 100
1, 687495, Note_on_c, 0, 71, 100
1, 687543, Note_off_c, 0, 71, 100
1, 687543, Note_on_c, 0, 72, 100
1, 687639, Note_off_c, 0, 72, 100
1, 687639, Note_on_c, 0, 71, 100
1, 687687, Note_off_c, 0, 71, 100
1, 687687, Note_on_c, 0, 72, 100
1, 687783, Note_off_c, 0, 72, 100
1, 687783, Note_on_c, 0, 71, 100
1, 687831, Note_off_c, 0, 71, 100
1, 687831, Note_on_c, 0, 72, 100
1, 687879, Note_off_c, 0, 72, 100
1, 687879, Note_on_c, 0, 73, 100
1, 687975, Note_off_c, 0, 73, 100
1, 687975, Note_on_c, 0, 72, 100
1, 688071, Note_off_c, 0, 72, 100
1, 688071, Note_on_c, 0, 74, 100
1, 688119, Note_off_c, 0, 74, 100
1, 688119, Note_on_c, 0, 73, 100
1, 688167, Note_off_c, 0, 73, 100
1, 688167, Note_on_c, 0, 71, 100
1, 688263, Note_off_c, 0, 71, 100
1, 688263, Note_on_c, 0, 72, 100
1, 688301, Note_off_c, 0, 72, 100
1, 688301, Note_on_c, 0, 69, 100
1, 688339, Note_off_c, 0, 69, 100
1, 688339, Note_on_c, 0, 71, 100
1, 688377, Note_off_c, 0, 71, 100
1, 688377, Note_on_c, 0, 69, 100
1, 688415, Note_off_c, 0, 69, 100
1, 688415, Note_on_c, 0, 65, 100
1, 688501, Note_off_c, 0, 65, 100
1, 688501, Note_on_c, 0, 69, 100
1, 688549, Note_off_c, 0, 69, 100
1, 688549, Note_on_c, 0, 71, 100
1, 688597, Note_off_c, 0, 71, 100
1, 688597, Note_on_c, 0, 69, 100
1, 688693, Note_off_c, 0, 69, 100
1, 688693, Note_on_c, 0, 71, 100
1, 688741, Note_off_c, 0, 71, 100
1, 688741, Note_on_c, 0, 69, 100
1, 688789, Note_off_c, 0, 69, 100
1, 688789, Note_on_c, 0, 65, 100
1, 688885, Note_off_c, 0, 65, 100
1, 688885, Note_on_c, 0, 72, 100
1, 688981, Note_off_c, 0, 72, 100
1, 688981, Note_on_c, 0, 71, 100
1, 689077, Note_off_c, 0, 71, 100
1, 689077, Note_on_c, 0, 72, 100
1, 689173, Note_off_c, 0, 72, 100
1, 689173, Note_on_c, 0, 71, 100
1, 689221, Note_off_c, 0, 71, 100
1, 689221, Note_on_c, 0, 73, 100
1, 689269, Note_off_c, 0, 73, 100
1, 689269, Note_on_c, 0, 71, 100
1, 689317, Note_off_c, 0, 71, 100
1, 689317, Note_on_c, 0, 72, 100
1, 689365, Note_off_c, 0, 72, 100
1, 689365, Note_on_c, 0, 73, 100
1, 689413, Note_off_c, 0, 73, 100
1, 689413, Note_on_c, 0, 72, 100
1, 689509, Note_off_c, 0, 72, 100
1, 690565, Note_on_c, 0, 67, 100
1, 690661, Note_off_c, 0, 67, 100
1, 690661, Note_on_c, 0, 68, 100
1, 690709, Note_off_c, 0, 68, 100
1, 690709, Note_on_c, 0, 69, 100
1, 691045, Note_off_c, 0, 69, 100
1, 691045, Note_on_c, 0, 65, 100
1, 691141, Note_off_c, 0, 65, 100
1, 691141, Note_on_c, 0, 68, 100
1, 691269, Note_off_c, 0, 68, 100
1, 691269, Note_on_c, 0, 65, 100
1, 691429, Note_off_c, 0, 65, 100
1, 691429, Note_on_c, 0, 69, 100
1, 691765, Note_off_c, 0, 69, 100
1, 691765, Note_on_c, 0, 65, 100
1, 691861, Note_off_c, 0, 65, 100
1, 691861, Note_on_c, 0, 71, 100
1, 692005, Note_off_c, 0, 71, 100
1, 692005, Note_on_c, 0, 72, 100
1, 692149, Note_off_c, 0, 72, 100
1, 692149, Note_on_c, 0, 71, 100
1, 692549, Note_off_c, 0, 71, 100
1, 692549, Note_on_c, 0, 65, 100
1, 692613, Note_off_c, 0, 65, 100
1, 692613, Note_on_c, 0, 69, 100
1, 692773, Note_off_c, 0, 69, 100
1, 692773, Note_on_c, 0, 65, 100
1, 692821, Note_off_c, 0, 65, 100
1, 692821, Note_on_c, 0, 69, 100
1, 692917, Note_off_c, 0, 69, 100
1, 692917, Note_on_c, 0, 65, 100
1, 693013, Note_off_c, 0, 65, 100
1, 693013, Note_on_c, 0, 69, 100
1, 693317, Note_off_c, 0, 69, 100
1, 693317, Note_on_c, 0, 65, 100
1, 693381, Note_off_c, 0, 65, 100
1, 693381, Note_on_c, 0, 71, 100
1, 693509, Note_off_c, 0, 71, 100
1, 693509, Note_on_c, 0, 65, 100
1, 693573, Note_off_c, 0, 65, 100
1, 693573, Note_on_c, 0, 71, 100
1, 693733, Note_off_c, 0, 71, 100
1, 693733, Note_on_c, 0, 65, 100
1, 693829, Note_off_c, 0, 65, 100
1, 693829, Note_on_c, 0, 71, 100
1, 693957, Note_off_c, 0, 71, 100
1, 693957, Note_on_c, 0, 66, 100
1, 694053, Note_off_c, 0, 66, 100
1, 694597, Note_on_c, 0, 69, 100
1, 694693, Note_off_c, 0, 69, 100
1, 694693, Note_on_c, 0, 65, 100
1, 694741, Note_off_c, 0, 65, 100
1, 694741, Note_on_c, 0, 69, 100
1, 694885, Note_off_c, 0, 69, 100
1, 694885, Note_on_c, 0, 65, 100
1, 694933, Note_off_c, 0, 65, 100
1, 694933, Note_on_c, 0, 71, 100
1, 695077, Note_off_c, 0, 71, 100
1, 695077, Note_on_c, 0, 65, 100
1, 695173, Note_off_c, 0, 65, 100
1, 695173, Note_on_c, 0, 71, 100
1, 695269, Note_off_c, 0, 71, 100
1, 695269, Note_on_c, 0, 66, 100
1, 695365, Note_off_c, 0, 66, 100
1, 695365, Note_on_c, 0, 71, 100
1, 695461, Note_off_c, 0, 71, 100
1, 695461, Note_on_c, 0, 66, 100
1, 695605, Note_off_c, 0, 66, 100
1, 695605, Note_on_c, 0, 71, 100
1, 695701, Note_off_c, 0, 71, 100
1, 695701, Note_on_c, 0, 65, 100
1, 695749, Note_off_c, 0, 65, 100
1, 695749, Note_on_c, 0, 68, 100
1, 695797, Note_off_c, 0, 68, 100
1, 695797, Note_on_c, 0, 69, 100
1, 695845, Note_off_c, 0, 69, 100
1, 695845, Note_on_c, 0, 65, 100
1, 695941, Note_off_c, 0, 65, 100
1, 695941, Note_on_c, 0, 69, 100
1, 696037, Note_off_c, 0, 69, 100
1, 696037, Note_on_c, 0, 65, 100
1, 696133, Note_off_c, 0, 65, 100
1, 696133, Note_on_c, 0, 69, 100
1, 696229, Note_off_c, 0, 69, 100
1, 696229, Note_on_c, 0, 65, 100
1, 696325, Note_off_c, 0, 65, 100
1, 696325, Note_on_c, 0, 69, 100
1, 696389, Note_off_c, 0, 69, 100
1, 696389, Note_on_c, 0, 65, 100
1, 696453, Note_off_c, 0, 65, 100
1, 696453, Note_on_c, 0, 70, 100
1, 696517, Note_off_c, 0, 70, 100
1, 696517, Note_on_c, 0, 72, 100
1, 696613, Note_off_c, 0, 72, 100
1, 696613, Note_on_c, 0, 65, 100
1, 696709, Note_off_c, 0, 65, 100
1, 696709, Note_on_c, 0, 72, 100
1, 696773, Note_off_c, 0, 72, 100
1, 696773, Note_on_c, 0, 65, 100
1, 696837, Note_off_c, 0, 65, 100
1, 696837, Note_on_c, 0, 72, 100
1, 696965, Note_off_c, 0, 72, 100
1, 696965, Note_on_c, 0, 65, 100
1, 697029, Note_off_c, 0, 65, 100
1, 697029, Note_on_c, 0, 72, 100
1, 697189, Note_off_c, 0, 72, 100
1, 697189, Note_on_c, 0, 65, 100
1, 697237, Note_off_c, 0, 65, 100
1, 697237, Note_on_c, 0, 68, 100
1, 697285, Note_off_c, 0, 68, 100
1, 697285, Note_on_c, 0, 69, 100
1, 697381, Note_off_c, 0, 69, 100
1, 697381, Note_on_c, 0, 65, 100
1, 697477, Note_off_c, 0, 65, 100
1, 697477, Note_on_c, 0, 69, 100
1, 697573, Note_off_c, 0, 69, 100
1, 697573, Note_on_c, 0, 65, 100
1, 697669, Note_off_c, 0, 65, 100
1, 697669, Note_on_c, 0, 71, 100
1, 697733, Note_off_c, 0, 71, 100
1, 697733, Note_on_c, 0, 65, 100
1, 697797, Note_off_c, 0, 65, 100
1, 697797, Note_on_c, 0, 72, 100
1, 697925, Note_off_c, 0, 72, 100
1, 697925, Note_on_c, 0, 65, 100
1, 697989, Note_off_c, 0, 65, 100
1, 697989, Note_on_c, 0, 72, 100
1, 698149, Note_off_c, 0, 72, 100
1, 698149, Note_on_c, 0, 65, 100
1, 698197, Note_off_c, 0, 65, 100
1, 698197, Note_on_c, 0, 69, 100
1, 698293, Note_off_c, 0, 69, 100
1, 698293, Note_on_c, 0, 65, 100
1, 698389, Note_off_c, 0, 65, 100
1, 698389, Note_on_c, 0, 69, 100
1, 698485, Note_off_c, 0, 69, 100
1, 698485, Note_on_c, 0, 65, 100
1, 698581, Note_off_c, 0, 65, 100
1, 698581, Note_on_c, 0, 69, 100
1, 698629, Note_off_c, 0, 69, 100
1, 698629, Note_on_c, 0, 65, 100
1, 698725, Note_off_c, 0, 65, 100
1, 698725, Note_on_c, 0, 69, 100
1, 698821, Note_off_c, 0, 69, 100
1, 698821, Note_on_c, 0, 65, 100
1, 698917, Note_off_c, 0, 65, 100
1, 698917, Note_on_c, 0, 69, 100
1, 699061, Note_off_c, 0, 69, 100
1, 699061, Note_on_c, 0, 65, 100
1, 699157, Note_off_c, 0, 65, 100
1, 699157, Note_on_c, 0, 70, 100
1, 699253, Note_off_c, 0, 70, 100
1, 699253, Note_on_c, 0, 65, 100
1, 699349, Note_off_c, 0, 65, 100
1, 699349, Note_on_c, 0, 70, 100
1, 699445, Note_off_c, 0, 70, 100
1, 699445, Note_on_c, 0, 65, 100
1, 699541, Note_off_c, 0, 65, 100
1, 699541, Note_on_c, 0, 69, 100
1, 699589, Note_off_c, 0, 69, 100
1, 699589, Note_on_c, 0, 65, 100
1, 699733, Note_off_c, 0, 65, 100
1, 699733, Note_on_c, 0, 71, 100
1, 699829, Note_off_c, 0, 71, 100
1, 699829, Note_on_c, 0, 65, 100
1, 699925, Note_off_c, 0, 65, 100
1, 699925, Note_on_c, 0, 71, 100
1, 699973, Note_off_c, 0, 71, 100
1, 699973, Note_on_c, 0, 65, 100
1, 700069, Note_off_c, 0, 65, 100
1, 700069, Note_on_c, 0, 69, 100
1, 700117, Note_off_c, 0, 69, 100
1, 700117, Note_on_c, 0, 65, 100
1, 700213, Note_off_c, 0, 65, 100
1, 700213, Note_on_c, 0, 71, 100
1, 700309, Note_off_c, 0, 71, 100
1, 700309, Note_on_c, 0, 65, 100
1, 700501, Note_off_c, 0, 65, 100
1, 700501, Note_on_c, 0, 69, 100
1, 700597, Note_off_c, 0, 69, 100
1, 700597, Note_on_c, 0, 65, 100
1, 700693, Note_off_c, 0, 65, 100
1, 700693, Note_on_c, 0, 69, 100
1, 700805, Note_off_c, 0, 69, 100
1, 700805, Note_on_c, 0, 65, 100
1, 700869, Note_off_c, 0, 65, 100
1, 700869, Note_on_c, 0, 68, 100
1, 700933, Note_off_c, 0, 68, 100
1, 700933, Note_on_c, 0, 69, 100
1, 701029, Note_off_c, 0, 69, 100
1, 701029, Note_on_c, 0, 65, 100
1, 701125, Note_off_c, 0, 65, 100
1, 701125, Note_on_c, 0, 69, 100
1, 701173, Note_off_c, 0, 69, 100
1, 701173, Note_on_c, 0, 65, 100
1, 701269, Note_off_c, 0, 65, 100
1, 701269, Note_on_c, 0, 69, 100
1, 701413, Note_off_c, 0, 69, 100
1, 701413, Note_on_c, 0, 65, 100
1, 701509, Note_off_c, 0, 65, 100
1, 701509, Note_on_c, 0, 71, 100
1, 701605, Note_off_c, 0, 71, 100
1, 701605, Note_on_c, 0, 65, 100
1, 701701, Note_off_c, 0, 65, 100
1, 701701, Note_on_c, 0, 71, 100
1, 701797, Note_off_c, 0, 71, 100
1, 701797, Note_on_c, 0, 65, 100
1, 701893, Note_off_c, 0, 65, 100
1, 701893, Note_on_c, 0, 69, 100
1, 701989, Note_off_c, 0, 69, 100
1, 701989, Note_on_c, 0, 65, 100
1, 702085, Note_off_c, 0, 65, 100
1, 702085, Note_on_c, 0, 69, 100
1, 702133, Note_off_c, 0, 69, 100
1, 702133, Note_on_c, 0, 65, 100
1, 702229, Note_off_c, 0, 65, 100
1, 702229, Note_on_c, 0, 69, 100
1, 702325, Note_off_c, 0, 69, 100
1, 702325, Note_on_c, 0, 65, 100
1, 702421, Note_off_c, 0, 65, 100
1, 702421, Note_on_c, 0, 69, 100
1, 702517, Note_off_c, 0, 69, 100
1, 702517, Note_on_c, 0, 65, 100
1, 702565, Note_off_c, 0, 65, 100
1, 702565, Note_on_c, 0, 69, 100
1, 702661, Note_off_c, 0, 69, 100
1, 702661, Note_on_c, 0, 71, 100
1, 702757, Note_off_c, 0, 71, 100
1, 702757, Note_on_c, 0, 65, 100
1, 702853, Note_off_c, 0, 65, 100
1, 702853, Note_on_c, 0, 71, 100
1, 702949, Note_off_c, 0, 71, 100
1, 702949, Note_on_c, 0, 65, 100
1, 703045, Note_off_c, 0, 65, 100
1, 703045, Note_on_c, 0, 71, 100
1, 703141, Note_off_c, 0, 71, 100
1, 703141, Note_on_c, 0, 73, 100
1, 703237, Note_off_c, 0, 73, 100
1, 703237, Note_on_c, 0, 71, 100
1, 703301, Note_off_c, 0, 71, 100
1, 703301, Note_on_c, 0, 65, 100
1, 703365, Note_off_c, 0, 65, 100
1, 703365, Note_on_c, 0, 70, 100
1, 703429, Note_off_c, 0, 70, 100
1, 703429, Note_on_c, 0, 65, 100
1, 703621, Note_off_c, 0, 65, 100
1, 703621, Note_on_c, 0, 70, 100
1, 703749, Note_off_c, 0, 70, 100
1, 703749, Note_on_c, 0, 65, 100
1, 703813, Note_off_c, 0, 65, 100
1, 703813, Note_on_c, 0, 72, 100
1, 703909, Note_off_c, 0, 72, 100
1, 703909, Note_on_c, 0, 73, 100
1, 704101, Note_off_c, 0, 73, 100
1, 704101, Note_on_c, 0, 72, 100
1, 704197, Note_off_c, 0, 72, 100
1, 704197, Note_on_c, 0, 73, 100
1, 704341, Note_off_c, 0, 73, 100
1, 704341, Note_on_c, 0, 72, 100
1, 704389, Note_off_c, 0, 72, 100
1, 704389, Note_on_c, 0, 73, 100
1, 704581, Note_off_c, 0, 73, 100
1, 704581, Note_on_c, 0, 73, 100
1, 704677, Note_off_c, 0, 73, 100
1, 704677, Note_on_c, 0, 72, 100
1, 704837, Note_off_c, 0, 72, 100
1, 704837, Note_on_c, 0, 73, 100
1, 704965, Note_off_c, 0, 73, 100
1, 704965, Note_on_c, 0, 70, 100
1, 705013, Note_off_c, 0, 70, 100
1, 705013, Note_on_c, 0, 65, 100
1, 705109, Note_off_c, 0, 65, 100
1, 705109, Note_on_c, 0, 70, 100
1, 705253, Note_off_c, 0, 70, 100
1, 705253, Note_on_c, 0, 65, 100
1, 705349, Note_off_c, 0, 65, 100
1, 705349, Note_on_c, 0, 70, 100
1, 705397, Note_off_c, 0, 70, 100
1, 705397, Note_on_c, 0, 65, 100
1, 705493, Note_off_c, 0, 65, 100
1, 705493, Note_on_c, 0, 70, 100
1, 705637, Note_off_c, 0, 70, 100
1, 705637, Note_on_c, 0, 65, 100
1, 705685, Note_off_c, 0, 65, 100
1, 705685, Note_on_c, 0, 69, 100
1, 705877, Note_off_c, 0, 69, 100
1, 705877, Note_on_c, 0, 65, 100
1, 705973, Note_off_c, 0, 65, 100
1, 705973, Note_on_c, 0, 72, 100
1, 706021, Note_off_c, 0, 72, 100
1, 706021, Note_on_c, 0, 73, 100
1, 706117, Note_off_c, 0, 73, 100
1, 706117, Note_on_c, 0, 72, 100
1, 706181, Note_off_c, 0, 72, 100
1, 706181, Note_on_c, 0, 73, 100
1, 706245, Note_off_c, 0, 73, 100
1, 706245, Note_on_c, 0, 72, 100
1, 706341, Note_off_c, 0, 72, 100
1, 707029, Note_on_c, 0, 68, 100
1, 707173, Note_off_c, 0, 68, 100
1, 707173, Note_on_c, 0, 70, 100
1, 707557, Note_off_c, 0, 70, 100
1, 707557, Note_on_c, 0, 66, 100
1, 707653, Note_off_c, 0, 66, 100
1, 707653, Note_on_c, 0, 72, 100
1, 707717, Note_off_c, 0, 72, 100
1, 707717, Note_on_c, 0, 71, 100
1, 707781, Note_off_c, 0, 71, 100
1, 707781, Note_on_c, 0, 70, 100
1, 708277, Note_off_c, 0, 70, 100
1, 708277, Note_on_c, 0, 71, 100
1, 708373, Note_off_c, 0, 71, 100
1, 708373, Note_on_c, 0, 70, 100
1, 708469, Note_off_c, 0, 70, 100
1, 708469, Note_on_c, 0, 66, 100
1, 708565, Note_off_c, 0, 66, 100
1, 708565, Note_on_c, 0, 65, 100
1, 708661, Note_off_c, 0, 65, 100
1, 708661, Note_on_c, 0, 64, 100
1, 708757, Note_off_c, 0, 64, 100
1, 708757, Note_on_c, 0, 63, 100
1, 708853, Note_off_c, 0, 63, 100
1, 708853, Note_on_c, 0, 62, 100
1, 708949, Note_off_c, 0, 62, 100
1, 708949, Note_on_c, 0, 61, 100
1, 709045, Note_off_c, 0, 61, 100
1, 709045, Note_on_c, 0, 60, 100
1, 709141, Note_off_c, 0, 60, 100
1, 709141, Note_on_c, 0, 58, 100
1, 709189, Note_off_c, 0, 58, 100
1, 709189, Note_on_c, 0, 58, 100
1, 709285, Note_off_c, 0, 58, 100
1, 709285, Note_on_c, 0, 57, 100
1, 709333, Note_off_c, 0, 57, 100
1, 709333, Note_on_c, 0, 53, 100
1, 709525, Note_off_c, 0, 53, 100
1, 709525, Note_on_c, 0, 69, 100
1, 709637, Note_off_c, 0, 69, 100
1, 709637, Note_on_c, 0, 62, 100
1, 709701, Note_off_c, 0, 62, 100
1, 709701, Note_on_c, 0, 69, 100
1, 709829, Note_off_c, 0, 69, 100
1, 709829, Note_on_c, 0, 62, 100
1, 709893, Note_off_c, 0, 62, 100
1, 709893, Note_on_c, 0, 69, 100
1, 709957, Note_off_c, 0, 69, 100
1, 709957, Note_on_c, 0, 62, 100
1, 710053, Note_off_c, 0, 62, 100
1, 710053, Note_on_c, 0, 67, 100
1, 710149, Note_off_c, 0, 67, 100
1, 710149, Note_on_c, 0, 71, 100
1, 710245, Note_off_c, 0, 71, 100
1, 710245, Note_on_c, 0, 62, 100
1, 710341, Note_off_c, 0, 62, 100
1, 710341, Note_on_c, 0, 71, 100
1, 710437, Note_off_c, 0, 71, 100
1, 710437, Note_on_c, 0, 62, 100
1, 710533, Note_off_c, 0, 62, 100
1, 710533, Note_on_c, 0, 71, 100
1, 710581, Note_off_c, 0, 71, 100
1, 710581, Note_on_c, 0, 62, 100
1, 710629, Note_off_c, 0, 62, 100
1, 710629, Note_on_c, 0, 70, 100
1, 710677, Note_off_c, 0, 70, 100
1, 710677, Note_on_c, 0, 71, 100
1, 710821, Note_off_c, 0, 71, 100
1, 710821, Note_on_c, 0, 63, 100
1, 710917, Note_off_c, 0, 63, 100
1, 710917, Note_on_c, 0, 71, 100
1, 710981, Note_off_c, 0, 71, 100
1, 710981, Note_on_c, 0, 63, 100
1, 711045, Note_off_c, 0, 63, 100
1, 711045, Note_on_c, 0, 70, 100
1, 711109, Note_off_c, 0, 70, 100
1, 711109, Note_on_c, 0, 66, 100
1, 711205, Note_off_c, 0, 66, 100
1, 711205, Note_on_c, 0, 70, 100
1, 711301, Note_off_c, 0, 70, 100
1, 711301, Note_on_c, 0, 64, 100
1, 711397, Note_off_c, 0, 64, 100
1, 711397, Note_on_c, 0, 70, 100
1, 711493, Note_off_c, 0, 70, 100
1, 711493, Note_on_c, 0, 64, 100
1, 711541, Note_off_c, 0, 64, 100
1, 711541, Note_on_c, 0, 70, 100
1, 711589, Note_off_c, 0, 70, 100
1, 711589, Note_on_c, 0, 64, 100
1, 711637, Note_off_c, 0, 64, 100
1, 711637, Note_on_c, 0, 70, 100
1, 711685, Note_off_c, 0, 70, 100
1, 711685, Note_on_c, 0, 71, 100
1, 711781, Note_off_c, 0, 71, 100
1, 711781, Note_on_c, 0, 65, 100
1, 711829, Note_off_c, 0, 65, 100
1, 711829, Note_on_c, 0, 71, 100
1, 711925, Note_off_c, 0, 71, 100
1, 711925, Note_on_c, 0, 66, 100
1, 712021, Note_off_c, 0, 66, 100
1, 712021, Note_on_c, 0, 71, 100
1, 712133, Note_off_c, 0, 71, 100
1, 712133, Note_on_c, 0, 66, 100
1, 712197, Note_off_c, 0, 66, 100
1, 712197, Note_on_c, 0, 70, 100
1, 712261, Note_off_c, 0, 70, 100
1, 712261, Note_on_c, 0, 71, 100
1, 712357, Note_off_c, 0, 71, 100
1, 712357, Note_on_c, 0, 65, 100
1, 712453, Note_off_c, 0, 65, 100
1, 712453, Note_on_c, 0, 71, 100
1, 712549, Note_off_c, 0, 71, 100
1, 712549, Note_on_c, 0, 65, 100
1, 712597, Note_off_c, 0, 65, 100
1, 712597, Note_on_c, 0, 67, 100
1, 712645, Note_off_c, 0, 67, 100
1, 712645, Note_on_c, 0, 69, 100
1, 712741, Note_off_c, 0, 69, 100
1, 712741, Note_on_c, 0, 65, 100
1, 712837, Note_off_c, 0, 65, 100
1, 712837, Note_on_c, 0, 70, 100
1, 712933, Note_off_c, 0, 70, 100
1, 712933, Note_on_c, 0, 66, 100
1, 713029, Note_off_c, 0, 66, 100
1, 713029, Note_on_c, 0, 71, 100
1, 713125, Note_off_c, 0, 71, 100
1, 713125, Note_on_c, 0, 65, 100
1, 713173, Note_off_c, 0, 65, 100
1, 713173, Note_on_c, 0, 69, 100
1, 713221, Note_off_c, 0, 69, 100
1, 713221, Note_on_c, 0, 71, 100
1, 713269, Note_off_c, 0, 71, 100
1, 713269, Note_on_c, 0, 65, 100
1, 713365, Note_off_c, 0, 65, 100
1, 713365, Note_on_c, 0, 69, 100
1, 713461, Note_off_c, 0, 69, 100
1, 713461, Note_on_c, 0, 65, 100
1, 713557, Note_off_c, 0, 65, 100
1, 713557, Note_on_c, 0, 69, 100
1, 713653, Note_off_c, 0, 69, 100
1, 713653, Note_on_c, 0, 65, 100
1, 713701, Note_off_c, 0, 65, 100
1, 713701, Note_on_c, 0, 69, 100
1, 713749, Note_off_c, 0, 69, 100
1, 713749, Note_on_c, 0, 71, 100
1, 713845, Note_off_c, 0, 71, 100
1, 713845, Note_on_c, 0, 65, 100
1, 713941, Note_off_c, 0, 65, 100
1, 713941, Note_on_c, 0, 70, 100
1, 714037, Note_off_c, 0, 70, 100
1, 714037, Note_on_c, 0, 65, 100
1, 714133, Note_off_c, 0, 65, 100
1, 714133, Note_on_c, 0, 69, 100
1, 714181, Note_off_c, 0, 69, 100
1, 714181, Note_on_c, 0, 74, 100
1, 714373, Note_off_c, 0, 74, 100
1, 714373, Note_on_c, 0, 71, 100
1, 714469, Note_off_c, 0, 71, 100
1, 714469, Note_on_c, 0, 69, 100
1, 714661, Note_off_c, 0, 69, 100
1, 715237, Note_on_c, 0, 74, 100
1, 715621, Note_off_c, 0, 74, 100
1, 715621, Note_on_c, 0, 71, 100
1, 715717, Note_off_c, 0, 71, 100
1, 715717, Note_on_c, 0, 69, 100
1, 715813, Note_off_c, 0, 69, 100
1, 715813, Note_on_c, 0, 74, 100
1, 716101, Note_off_c, 0, 74, 100
1, 716101, Note_on_c, 0, 74, 100
1, 716389, Note_off_c, 0, 74, 100
1, 716389, Note_on_c, 0, 74, 100
1, 716869, Note_off_c, 0, 74, 100
1, 716869, Note_on_c, 0, 69, 100
1, 716965, Note_off_c, 0, 69, 100
1, 716965, Note_on_c, 0, 62, 100
1, 717061, Note_off_c, 0, 62, 100
1, 717541, Note_on_c, 0, 82, 100
1, 717637, Note_off_c, 0, 82, 100
1, 717637, Note_on_c, 0, 74, 100
1, 717973, Note_off_c, 0, 74, 100
1, 717973, Note_on_c, 0, 69, 100
1, 718085, Note_off_c, 0, 69, 100
1, 718085, Note_on_c, 0, 74, 100
1, 718149, Note_off_c, 0, 74, 100
1, 718149, Note_on_c, 0, 73, 100
1, 718213, Note_off_c, 0, 73, 100
1, 718213, Note_on_c, 0, 71, 100
1, 718261, Note_off_c, 0, 71, 100
1, 718261, Note_on_c, 0, 69, 100
1, 718309, Note_off_c, 0, 69, 100
1, 718309, Note_on_c, 0, 67, 100
1, 718405, Note_off_c, 0, 67, 100
1, 718405, Note_on_c, 0, 65, 100
1, 718741, Note_off_c, 0, 65, 100
1, 718741, Note_on_c, 0, 62, 100
1, 718837, Note_off_c, 0, 62, 100
1, 718837, Note_on_c, 0, 65, 100
1, 718933, Note_off_c, 0, 65, 100
1, 718933, Note_on_c, 0, 62, 100
1, 719173, Note_off_c, 0, 62, 100
1, 719173, Note_on_c, 0, 59, 100
1, 719269, Note_off_c, 0, 59, 100
1, 719269, Note_on_c, 0, 62, 100
1, 719365, Note_off_c, 0, 62, 100
1, 719365, Note_on_c, 0, 59, 100
1, 719461, Note_off_c, 0, 59, 100
1, 719461, Note_on_c, 0, 57, 100
1, 719845, Note_off_c, 0, 57, 100
1, 719845, Note_on_c, 0, 55, 100
1, 719893, Note_off_c, 0, 55, 100
1, 719893, Note_on_c, 0, 53, 100
1, 720277, Note_off_c, 0, 53, 100
1, 720277, Note_on_c, 0, 50, 100
1, 720325, Note_off_c, 0, 50, 100
1, 720325, Note_on_c, 0, 45, 100
1, 720517, Note_off_c, 0, 45, 100
1, 722005, Note_on_c, 0, 44, 100
1, 722117, Note_off_c, 0, 44, 100
1, 722117, Note_on_c, 0, 48, 100
1, 722181, Note_off_c, 0, 48, 100
1, 722181, Note_on_c, 0, 46, 100
1, 722245, Note_off_c, 0, 46, 100
1, 722245, Note_on_c, 0, 48, 100
1, 722293, Note_off_c, 0, 48, 100
1, 722293, Note_on_c, 0, 46, 100
1, 722437, Note_off_c, 0, 46, 100
1, 722437, Note_on_c, 0, 53, 100
1, 722533, Note_off_c, 0, 53, 100
1, 722533, Note_on_c, 0, 46, 100
1, 722821, Note_off_c, 0, 46, 100
1, 722821, Note_on_c, 0, 53, 100
1, 722917, Note_off_c, 0, 53, 100
1, 722917, Note_on_c, 0, 51, 100
1, 723013, Note_off_c, 0, 51, 100
1, 723013, Note_on_c, 0, 50, 100
1, 723109, Note_off_c, 0, 50, 100
1, 723109, Note_on_c, 0, 51, 100
1, 723205, Note_off_c, 0, 51, 100
1, 723205, Note_on_c, 0, 53, 100
1, 723301, Note_off_c, 0, 53, 100
1, 723301, Note_on_c, 0, 51, 100
1, 723685, Note_off_c, 0, 51, 100
1, 723685, Note_on_c, 0, 52, 100
1, 723781, Note_off_c, 0, 52, 100
1, 723781, Note_on_c, 0, 54, 100
1, 723973, Note_off_c, 0, 54, 100
1, 723973, Note_on_c, 0, 57, 100
1, 724117, Note_off_c, 0, 57, 100
1, 724117, Note_on_c, 0, 62, 100
1, 724213, Note_off_c, 0, 62, 100
1, 724213, Note_on_c, 0, 61, 100
1, 724309, Note_off_c, 0, 61, 100
1, 724309, Note_on_c, 0, 59, 100
1, 724357, Note_off_c, 0, 59, 100
1, 724357, Note_on_c, 0, 58, 100
1, 724453, Note_off_c, 0, 58, 100
1, 724453, Note_on_c, 0, 57, 100
1, 724645, Note_off_c, 0, 57, 100
1, 725269, Note_on_c, 0, 56, 100
1, 725557, Note_off_c, 0, 56, 100
1, 725557, Note_on_c, 0, 59, 100
1, 725605, Note_off_c, 0, 59, 100
1, 725605, Note_on_c, 0, 64, 100
1, 725701, Note_off_c, 0, 64, 100
1, 725701, Note_on_c, 0, 63, 100
1, 725797, Note_off_c, 0, 63, 100
1, 725797, Note_on_c, 0, 61, 100
1, 725957, Note_off_c, 0, 61, 100
1, 725957, Note_on_c, 0, 57, 100
1, 726021, Note_off_c, 0, 57, 100
1, 726021, Note_on_c, 0, 62, 100
1, 726149, Note_off_c, 0, 62, 100
1, 726149, Note_on_c, 0, 64, 100
1, 726213, Note_off_c, 0, 64, 100
1, 726213, Note_on_c, 0, 66, 100
1, 726325, Note_off_c, 0, 66, 100
1, 726325, Note_on_c, 0, 69, 100
1, 726421, Note_off_c, 0, 69, 100
1, 726421, Note_on_c, 0, 65, 100
1, 726565, Note_off_c, 0, 65, 100
1, 726565, Note_on_c, 0, 66, 100
1, 726613, Note_off_c, 0, 66, 100
1, 726613, Note_on_c, 0, 65, 100
1, 726661, Note_off_c, 0, 65, 100
1, 726661, Note_on_c, 0, 63, 100
1, 726789, Note_off_c, 0, 63, 100
1, 726789, Note_on_c, 0, 61, 100
1, 726853, Note_off_c, 0, 61, 100
1, 726853, Note_on_c, 0, 60, 100
1, 726949, Note_off_c, 0, 60, 100
1, 726949, Note_on_c, 0, 59, 100
1, 727045, Note_off_c, 0, 59, 100
1, 727045, Note_on_c, 0, 63, 100
1, 727141, Note_off_c, 0, 63, 100
1, 727141, Note_on_c, 0, 59, 100
1, 727237, Note_off_c, 0, 59, 100
1, 727237, Note_on_c, 0, 58, 100
1, 727333, Note_off_c, 0, 58, 100
1, 727333, Note_on_c, 0, 57, 100
1, 727429, Note_off_c, 0, 57, 100
1, 727429, Note_on_c, 0, 56, 100
1, 727525, Note_off_c, 0, 56, 100
1, 727525, Note_on_c, 0, 55, 100
1, 727621, Note_off_c, 0, 55, 100
1, 727621, Note_on_c, 0, 59, 100
1, 727717, Note_off_c, 0, 59, 100
1, 727717, Note_on_c, 0, 57, 100
1, 727813, Note_off_c, 0, 57, 100
1, 727813, Note_on_c, 0, 53, 100
1, 727909, Note_off_c, 0, 53, 100
1, 728725, Note_on_c, 0, 54, 100
1, 728821, Note_off_c, 0, 54, 100
1, 728821, Note_on_c, 0, 55, 100
1, 728965, Note_off_c, 0, 55, 100
1, 728965, Note_on_c, 0, 68, 100
1, 729029, Note_off_c, 0, 68, 100
1, 729029, Note_on_c, 0, 68, 100
1, 729093, Note_off_c, 0, 68, 100
1, 729093, Note_on_c, 0, 67, 100
1, 729221, Note_off_c, 0, 67, 100
1, 729221, Note_on_c, 0, 69, 100
1, 729317, Note_off_c, 0, 69, 100
1, 729541, Note_on_c, 0, 58, 100
1, 729733, Note_off_c, 0, 58, 100
1, 729733, Note_on_c, 0, 58, 100
1, 729781, Note_off_c, 0, 58, 100
1, 729781, Note_on_c, 0, 58, 100
1, 729829, Note_off_c, 0, 58, 100
1, 729829, Note_on_c, 0, 59, 100
1, 729877, Note_off_c, 0, 59, 100
1, 729877, Note_on_c, 0, 61, 100
1, 729989, Note_off_c, 0, 61, 100
1, 729989, Note_on_c, 0, 60, 100
1, 730181, Note_off_c, 0, 60, 100
1, 730181, Note_on_c, 0, 67, 100
1, 730245, Note_off_c, 0, 67, 100
1, 730245, Note_on_c, 0, 63, 100
1, 730357, Note_off_c, 0, 63, 100
1, 730357, Note_on_c, 0, 67, 100
1, 730453, Note_off_c, 0, 67, 100
1, 730453, Note_on_c, 0, 71, 100
1, 730549, Note_off_c, 0, 71, 100
1, 730549, Note_on_c, 0, 68, 100
1, 730645, Note_off_c, 0, 68, 100
1, 730645, Note_on_c, 0, 61, 100
1, 730789, Note_off_c, 0, 61, 100
1, 730789, Note_on_c, 0, 60, 100
1, 730933, Note_off_c, 0, 60, 100
1, 730933, Note_on_c, 0, 70, 100
1, 731029, Note_off_c, 0, 70, 100
1, 731029, Note_on_c, 0, 69, 100
1, 731125, Note_off_c, 0, 69, 100
1, 731125, Note_on_c, 0, 66, 100
1, 731221, Note_off_c, 0, 66, 100
1, 731221, Note_on_c, 0, 65, 100
1, 731333, Note_off_c, 0, 65, 100
1, 731333, Note_on_c, 0, 63, 100
1, 731461, Note_off_c, 0, 63, 100
1, 731461, Note_on_c, 0, 67, 100
1, 731509, Note_off_c, 0, 67, 100
1, 731509, Note_on_c, 0, 66, 100
1, 731605, Note_off_c, 0, 66, 100
1, 731605, Note_on_c, 0, 63, 100
1, 731749, Note_off_c, 0, 63, 100
1, 731749, Note_on_c, 0, 58, 100
1, 731797, Note_off_c, 0, 58, 100
1, 731797, Note_on_c, 0, 65, 100
1, 731909, Note_off_c, 0, 65, 100
1, 731909, Note_on_c, 0, 60, 100
1, 732037, Note_off_c, 0, 60, 100
1, 732037, Note_on_c, 0, 56, 100
1, 732085, Note_off_c, 0, 56, 100
1, 732085, Note_on_c, 0, 56, 100
1, 732133, Note_off_c, 0, 56, 100
1, 732133, Note_on_c, 0, 54, 100
1, 732229, Note_off_c, 0, 54, 100
1, 732229, Note_on_c, 0, 51, 100
1, 732325, Note_off_c, 0, 51, 100
1, 732325, Note_on_c, 0, 56, 100
1, 732373, Note_off_c, 0, 56, 100
1, 732373, Note_on_c, 0, 53, 100
1, 732485, Note_off_c, 0, 53, 100
1, 732485, Note_on_c, 0, 48, 100
1, 732549, Note_off_c, 0, 48, 100
1, 732549, Note_on_c, 0, 46, 100
1, 732757, Note_off_c, 0, 46, 100
1, 732757, Note_on_c, 0, 51, 100
1, 732869, Note_off_c, 0, 51, 100
1, 732869, Note_on_c, 0, 46, 100
1, 732933, Note_off_c, 0, 46, 100
1, 732933, Note_on_c, 0, 44, 100
1, 733029, Note_off_c, 0, 44, 100
1, 734293, Note_on_c, 0, 45, 100
1, 734437, Note_off_c, 0, 45, 100
1, 734437, Note_on_c, 0, 50, 100
1, 734581, Note_off_c, 0, 50, 100
1, 734581, Note_on_c, 0, 53, 100
1, 734821, Note_off_c, 0, 53, 100
1, 734821, Note_on_c, 0, 56, 100
1, 734917, Note_off_c, 0, 56, 100
1, 734917, Note_on_c, 0, 50, 100
1, 735013, Note_off_c, 0, 50, 100
1, 735013, Note_on_c, 0, 53, 100
1, 735109, Note_off_c, 0, 53, 100
1, 735109, Note_on_c, 0, 57, 100
1, 735173, Note_off_c, 0, 57, 100
1, 735173, Note_on_c, 0, 63, 100
1, 735269, Note_off_c, 0, 63, 100
1, 735973, Note_on_c, 0, 63, 100
1, 736133, Note_off_c, 0, 63, 100
1, 736133, Note_on_c, 0, 62, 100
1, 736197, Note_off_c, 0, 62, 100
1, 736197, Note_on_c, 0, 63, 100
1, 736309, Note_off_c, 0, 63, 100
1, 736309, Note_on_c, 0, 65, 100
1, 736405, Note_off_c, 0, 65, 100
1, 736405, Note_on_c, 0, 61, 100
1, 736501, Note_off_c, 0, 61, 100
1, 736501, Note_on_c, 0, 63, 100
1, 736597, Note_off_c, 0, 63, 100
1, 736597, Note_on_c, 0, 64, 100
1, 736693, Note_off_c, 0, 64, 100
1, 736693, Note_on_c, 0, 66, 100
1, 736789, Note_off_c, 0, 66, 100
1, 736789, Note_on_c, 0, 63, 100
1, 736933, Note_off_c, 0, 63, 100
1, 736933, Note_on_c, 0, 61, 100
1, 736981, Note_off_c, 0, 61, 100
1, 736981, Note_on_c, 0, 59, 100
1, 737077, Note_off_c, 0, 59, 100
1, 737077, Note_on_c, 0, 58, 100
1, 737173, Note_off_c, 0, 58, 100
1, 737173, Note_on_c, 0, 59, 100
1, 737221, Note_off_c, 0, 59, 100
1, 737221, Note_on_c, 0, 61, 100
1, 737317, Note_off_c, 0, 61, 100
1, 737317, Note_on_c, 0, 63, 100
1, 737461, Note_off_c, 0, 63, 100
1, 737461, Note_on_c, 0, 64, 100
1, 737557, Note_off_c, 0, 64, 100
1, 737557, Note_on_c, 0, 66, 100
1, 737669, Note_off_c, 0, 66, 100
1, 737669, Note_on_c, 0, 66, 100
1, 737733, Note_off_c, 0, 66, 100
1, 737733, Note_on_c, 0, 68, 100
1, 737797, Note_off_c, 0, 68, 100
1, 737797, Note_on_c, 0, 70, 100
1, 737893, Note_off_c, 0, 70, 100
1, 737893, Note_on_c, 0, 66, 100
1, 737989, Note_off_c, 0, 66, 100
1, 737989, Note_on_c, 0, 61, 100
1, 738085, Note_off_c, 0, 61, 100
1, 738085, Note_on_c, 0, 59, 100
1, 738229, Note_off_c, 0, 59, 100
1, 738229, Note_on_c, 0, 58, 100
1, 738325, Note_off_c, 0, 58, 100
1, 738325, Note_on_c, 0, 57, 100
1, 738421, Note_off_c, 0, 57, 100
1, 738421, Note_on_c, 0, 56, 100
1, 738517, Note_off_c, 0, 56, 100
1, 738517, Note_on_c, 0, 55, 100
1, 738565, Note_off_c, 0, 55, 100
1, 738565, Note_on_c, 0, 58, 100
1, 738629, Note_off_c, 0, 58, 100
1, 738629, Note_on_c, 0, 59, 100
1, 738693, Note_off_c, 0, 59, 100
1, 738693, Note_on_c, 0, 57, 100
1, 738757, Note_off_c, 0, 57, 100
1, 738757, Note_on_c, 0, 62, 100
1, 738853, Note_off_c, 0, 62, 100
1, 738853, Note_on_c, 0, 65, 100
1, 739013, Note_off_c, 0, 65, 100
1, 739013, Note_on_c, 0, 70, 100
1, 739077, Note_off_c, 0, 70, 100
1, 739077, Note_on_c, 0, 74, 100
1, 739205, Note_off_c, 0, 74, 100
1, 739205, Note_on_c, 0, 61, 100
1, 739301, Note_off_c, 0, 61, 100
1, 739781, Note_on_c, 0, 69, 100
1, 739845, Note_off_c, 0, 69, 100
1, 739845, Note_on_c, 0, 72, 100
1, 740293, Note_off_c, 0, 72, 100
1, 740293, Note_on_c, 0, 69, 100
1, 740389, Note_off_c, 0, 69, 100
1, 740389, Note_on_c, 0, 83, 100
1, 740485, Note_off_c, 0, 83, 100
1, 740485, Note_on_c, 0, 72, 100
1, 740581, Note_off_c, 0, 72, 100
1, 741253, Note_on_c, 0, 74, 100
1, 741733, Note_off_c, 0, 74, 100
1, 741733, Note_on_c, 0, 69, 100
1, 741829, Note_off_c, 0, 69, 100
1, 741829, Note_on_c, 0, 68, 100
1, 741925, Note_off_c, 0, 68, 100
1, 741925, Note_on_c, 0, 65, 100
1, 742117, Note_off_c, 0, 65, 100
1, 742693, Note_on_c, 0, 68, 100
1, 742789, Note_off_c, 0, 68, 100
1, 742789, Note_on_c, 0, 69, 100
1, 743237, Note_off_c, 0, 69, 100
1, 743237, Note_on_c, 0, 67, 100
1, 743301, Note_off_c, 0, 67, 100
1, 743301, Note_on_c, 0, 65, 100
1, 743461, Note_off_c, 0, 65, 100
1, 743461, Note_on_c, 0, 67, 100
1, 743605, Note_off_c, 0, 67, 100
1, 743605, Note_on_c, 0, 71, 100
1, 743701, Note_off_c, 0, 71, 100
1, 743701, Note_on_c, 0, 69, 100
1, 743797, Note_off_c, 0, 69, 100
1, 743797, Note_on_c, 0, 66, 100
1, 743893, Note_off_c, 0, 66, 100
1, 743893, Note_on_c, 0, 65, 100
1, 743989, Note_off_c, 0, 65, 100
1, 743989, Note_on_c, 0, 64, 100
1, 744085, Note_off_c, 0, 64, 100
1, 744085, Note_on_c, 0, 63, 100
1, 744197, Note_off_c, 0, 63, 100
1, 744197, Note_on_c, 0, 66, 100
1, 744325, Note_off_c, 0, 66, 100
1, 744325, Note_on_c, 0, 70, 100
1, 744363, Note_off_c, 0, 70, 100
1, 744363, Note_on_c, 0, 70, 100
1, 744401, Note_off_c, 0, 70, 100
1, 744401, Note_on_c, 0, 71, 100
1, 744477, Note_off_c, 0, 71, 100
1, 744477, Note_on_c, 0, 68, 100
1, 744563, Note_off_c, 0, 68, 100
1, 744563, Note_on_c, 0, 66, 100
1, 744659, Note_off_c, 0, 66, 100
1, 744659, Note_on_c, 0, 65, 100
1, 744771, Note_off_c, 0, 65, 100
1, 744771, Note_on_c, 0, 67, 100
1, 744835, Note_off_c, 0, 67, 100
1, 744835, Note_on_c, 0, 63, 100
1, 744963, Note_off_c, 0, 63, 100
1, 744963, Note_on_c, 0, 62, 100
1, 745027, Note_off_c, 0, 62, 100
1, 745027, Note_on_c, 0, 61, 100
1, 745091, Note_off_c, 0, 61, 100
1, 745091, Note_on_c, 0, 60, 100
1, 745187, Note_off_c, 0, 60, 100
1, 745187, Note_on_c, 0, 61, 100
1, 745379, Note_off_c, 0, 61, 100
1, 745955, Note_on_c, 0, 64, 100
1, 746147, Note_off_c, 0, 64, 100
1, 746147, Note_on_c, 0, 66, 100
1, 746243, Note_off_c, 0, 66, 100
1, 746243, Note_on_c, 0, 67, 100
1, 746371, Note_off_c, 0, 67, 100
1, 746371, Note_on_c, 0, 63, 100
1, 747011, Note_off_c, 0, 63, 100
1, 747011, Note_on_c, 0, 61, 100
1, 747107, Note_off_c, 0, 61, 100
1, 747107, Note_on_c, 0, 64, 100
1, 747203, Note_off_c, 0, 64, 100
1, 747203, Note_on_c, 0, 60, 100
1, 747251, Note_off_c, 0, 60, 100
1, 747251, Note_on_c, 0, 63, 100
1, 747299, Note_off_c, 0, 63, 100
1, 747299, Note_on_c, 0, 68, 100
1, 747443, Note_off_c, 0, 68, 100
1, 747443, Note_on_c, 0, 72, 100
1, 747491, Note_off_c, 0, 72, 100
1, 747491, Note_on_c, 0, 71, 100
1, 747539, Note_off_c, 0, 71, 100
1, 747539, Note_on_c, 0, 64, 100
1, 747651, Note_off_c, 0, 64, 100
1, 747651, Note_on_c, 0, 66, 100
1, 747747, Note_off_c, 0, 66, 100
1, 748259, Note_on_c, 0, 68, 100
1, 748355, Note_off_c, 0, 68, 100
1, 748355, Note_on_c, 0, 69, 100
1, 748643, Note_off_c, 0, 69, 100
1, 748643, Note_on_c, 0, 65, 100
1, 748739, Note_off_c, 0, 65, 100
1, 748739, Note_on_c, 0, 69, 100
1, 748883, Note_off_c, 0, 69, 100
1, 748883, Note_on_c, 0, 74, 100
1, 748931, Note_off_c, 0, 74, 100
1, 748931, Note_on_c, 0, 71, 100
1, 749187, Note_off_c, 0, 71, 100
1, 749187, Note_on_c, 0, 71, 100
1, 749315, Note_off_c, 0, 71, 100
1, 749315, Note_on_c, 0, 67, 100
1, 749891, Note_off_c, 0, 67, 100
1, 749891, Note_on_c, 0, 65, 100
1, 749939, Note_off_c, 0, 65, 100
1, 749939, Note_on_c, 0, 67, 100
1, 750035, Note_off_c, 0, 67, 100
1, 750035, Note_on_c, 0, 69, 100
1, 750131, Note_off_c, 0, 69, 100
1, 750131, Note_on_c, 0, 65, 100
1, 750227, Note_off_c, 0, 65, 100
1, 750227, Note_on_c, 0, 62, 100
1, 750323, Note_off_c, 0, 62, 100
1, 750323, Note_on_c, 0, 65, 100
1, 750419, Note_off_c, 0, 65, 100
1, 750419, Note_on_c, 0, 62, 100
1, 750611, Note_off_c, 0, 62, 100
1, 750611, Note_on_c, 0, 59, 100
1, 750915, Note_off_c, 0, 59, 100
1, 750915, Note_on_c, 0, 55, 100
1, 750979, Note_off_c, 0, 55, 100
1, 750979, Note_on_c, 0, 57, 100
1, 751091, Note_off_c, 0, 57, 100
1, 751091, Note_on_c, 0, 53, 100
1, 751139, Note_off_c, 0, 53, 100
1, 751139, Note_on_c, 0, 50, 100
1, 751187, Note_off_c, 0, 50, 100
1, 751187, Note_on_c, 0, 53, 100
1, 751379, Note_off_c, 0, 53, 100
1, 752003, Note_on_c, 0, 54, 100
1, 752451, Note_off_c, 0, 54, 100
1, 752451, Note_on_c, 0, 51, 100
1, 752515, Note_off_c, 0, 51, 100
1, 752515, Note_on_c, 0, 56, 100
1, 752643, Note_off_c, 0, 56, 100
1, 752643, Note_on_c, 0, 58, 100
1, 752707, Note_off_c, 0, 58, 100
1, 752707, Note_on_c, 0, 60, 100
1, 752771, Note_off_c, 0, 60, 100
1, 752771, Note_on_c, 0, 63, 100
1, 752867, Note_off_c, 0, 63, 100
1, 752867, Note_on_c, 0, 65, 100
1, 752963, Note_off_c, 0, 65, 100
1, 753731, Note_on_c, 0, 47, 100
1, 753875, Note_off_c, 0, 47, 100
1, 753875, Note_on_c, 0, 56, 100
1, 753923, Note_off_c, 0, 56, 100
1, 753923, Note_on_c, 0, 65, 100
1, 754115, Note_off_c, 0, 65, 100
1, 754115, Note_on_c, 0, 62, 100
1, 754179, Note_off_c, 0, 62, 100
1, 754179, Note_on_c, 0, 63, 100
1, 754243, Note_off_c, 0, 63, 100
1, 754243, Note_on_c, 0, 66, 100
1, 754307, Note_off_c, 0, 66, 100
1, 754307, Note_on_c, 0, 67, 100
1, 754355, Note_off_c, 0, 67, 100
1, 754355, Note_on_c, 0, 70, 100
1, 754403, Note_off_c, 0, 70, 100
1, 754403, Note_on_c, 0, 69, 100
1, 754451, Note_off_c, 0, 69, 100
1, 754451, Note_on_c, 0, 67, 100
1, 754547, Note_off_c, 0, 67, 100
1, 754547, Note_on_c, 0, 62, 100
1, 754643, Note_off_c, 0, 62, 100
1, 754643, Note_on_c, 0, 65, 100
1, 754691, Note_off_c, 0, 65, 100
1, 754691, Note_on_c, 0, 68, 100
1, 754787, Note_off_c, 0, 68, 100
1, 754787, Note_on_c, 0, 70, 100
1, 754835, Note_off_c, 0, 70, 100
1, 754835, Note_on_c, 0, 72, 100
1, 754931, Note_off_c, 0, 72, 100
1, 754931, Note_on_c, 0, 73, 100
1, 755027, Note_off_c, 0, 73, 100
1, 755027, Note_on_c, 0, 68, 100
1, 755123, Note_off_c, 0, 68, 100
1, 755123, Note_on_c, 0, 71, 100
1, 755219, Note_off_c, 0, 71, 100
1, 755219, Note_on_c, 0, 68, 100
1, 755315, Note_off_c, 0, 68, 100
1, 755315, Note_on_c, 0, 66, 100
1, 755363, Note_off_c, 0, 66, 100
1, 755363, Note_on_c, 0, 63, 100
1, 755411, Note_off_c, 0, 63, 100
1, 755411, Note_on_c, 0, 60, 100
1, 755603, Note_off_c, 0, 60, 100
1, 755987, Note_on_c, 0, 63, 100
1, 756083, Note_off_c, 0, 63, 100
1, 756083, Note_on_c, 0, 66, 100
1, 756227, Note_off_c, 0, 66, 100
1, 756227, Note_on_c, 0, 75, 100
1, 756291, Note_off_c, 0, 75, 100
1, 756291, Note_on_c, 0, 75, 100
1, 756355, Note_off_c, 0, 75, 100
1, 756355, Note_on_c, 0, 68, 100
1, 756659, Note_off_c, 0, 68, 100
1, 756659, Note_on_c, 0, 72, 100
1, 756707, Note_off_c, 0, 72, 100
1, 756707, Note_on_c, 0, 70, 100
1, 757475, Note_off_c, 0, 70, 100
1, 757475, Note_on_c, 0, 65, 100
1, 757571, Note_off_c, 0, 65, 100
1, 757571, Note_on_c, 0, 70, 100
1, 757667, Note_off_c, 0, 70, 100
1, 757667, Note_on_c, 0, 68, 100
1, 757763, Note_off_c, 0, 68, 100
1, 757763, Note_on_c, 0, 65, 100
1, 757955, Note_off_c, 0, 65, 100
1, 757955, Note_on_c, 0, 61, 100
1, 758019, Note_off_c, 0, 61, 100
1, 758019, Note_on_c, 0, 68, 100
1, 758083, Note_off_c, 0, 68, 100
1, 758083, Note_on_c, 0, 65, 100
1, 758147, Note_off_c, 0, 65, 100
1, 758147, Note_on_c, 0, 63, 100
1, 758339, Note_off_c, 0, 63, 100
1, 758339, Note_on_c, 0, 58, 100
1, 758435, Note_off_c, 0, 58, 100
1, 758915, Note_on_c, 0, 65, 100
1, 758963, Note_off_c, 0, 65, 100
1, 758963, Note_on_c, 0, 69, 100
1, 759059, Note_off_c, 0, 69, 100
1, 759059, Note_on_c, 0, 72, 100
1, 759107, Note_off_c, 0, 72, 100
1, 759107, Note_on_c, 0, 74, 100
1, 759731, Note_off_c, 0, 74, 100
1, 759731, Note_on_c, 0, 72, 100
1, 759827, Note_off_c, 0, 72, 100
1, 759827, Note_on_c, 0, 69, 100
1, 759923, Note_off_c, 0, 69, 100
1, 759923, Note_on_c, 0, 73, 100
1, 760019, Note_off_c, 0, 73, 100
1, 760019, Note_on_c, 0, 71, 100
1, 760403, Note_off_c, 0, 71, 100
1, 760403, Note_on_c, 0, 69, 100
1, 760499, Note_off_c, 0, 69, 100
1, 760499, Note_on_c, 0, 71, 100
1, 760595, Note_off_c, 0, 71, 100
1, 760595, Note_on_c, 0, 69, 100
1, 761027, Note_off_c, 0, 69, 100
1, 761027, Note_on_c, 0, 64, 100
1, 761123, Note_off_c, 0, 64, 100
1, 761123, Note_on_c, 0, 66, 100
1, 761171, Note_off_c, 0, 66, 100
1, 761171, Note_on_c, 0, 69, 100
1, 761267, Note_off_c, 0, 69, 100
1, 761267, Note_on_c, 0, 71, 100
1, 761363, Note_off_c, 0, 71, 100
1, 761363, Note_on_c, 0, 64, 100
1, 761459, Note_off_c, 0, 64, 100
1, 761459, Note_on_c, 0, 61, 100
1, 761555, Note_off_c, 0, 61, 100
1, 761555, Note_on_c, 0, 59, 100
1, 761651, Note_off_c, 0, 59, 100
1, 762131, Note_on_c, 0, 66, 100
1, 762179, Note_off_c, 0, 66, 100
1, 762179, Note_on_c, 0, 68, 100
1, 762419, Note_off_c, 0, 68, 100
1, 762419, Note_on_c, 0, 71, 100
1, 762467, Note_off_c, 0, 71, 100
1, 762467, Note_on_c, 0, 71, 100
1, 762515, Note_off_c, 0, 71, 100
1, 762515, Note_on_c, 0, 70, 100
1, 762611, Note_off_c, 0, 70, 100
1, 762611, Note_on_c, 0, 66, 100
1, 762659, Note_off_c, 0, 66, 100
1, 762659, Note_on_c, 0, 65, 100
1, 762707, Note_off_c, 0, 65, 100
1, 762707, Note_on_c, 0, 63, 100
1, 762803, Note_off_c, 0, 63, 100
1, 762803, Note_on_c, 0, 67, 100
1, 762899, Note_off_c, 0, 67, 100
1, 762899, Note_on_c, 0, 65, 100
1, 763011, Note_off_c, 0, 65, 100
1, 763011, Note_on_c, 0, 62, 100
1, 763139, Note_off_c, 0, 62, 100
1, 763139, Note_on_c, 0, 68, 100
1, 763203, Note_off_c, 0, 68, 100
1, 763203, Note_on_c, 0, 65, 100
1, 763267, Note_off_c, 0, 65, 100
1, 763267, Note_on_c, 0, 61, 100
1, 763331, Note_off_c, 0, 61, 100
1, 763331, Note_on_c, 0, 62, 100
1, 763523, Note_off_c, 0, 62, 100
1, 763523, Note_on_c, 0, 64, 100
1, 763619, Note_off_c, 0, 64, 100
1, 763619, Note_on_c, 0, 62, 100
1, 763715, Note_off_c, 0, 62, 100
1, 763715, Note_on_c, 0, 65, 100
1, 763907, Note_off_c, 0, 65, 100
1, 764355, Note_on_c, 0, 66, 100
1, 764419, Note_off_c, 0, 66, 100
1, 764419, Note_on_c, 0, 67, 100
1, 764723, Note_off_c, 0, 67, 100
1, 764723, Note_on_c, 0, 65, 100
1, 764819, Note_off_c, 0, 65, 100
1, 764819, Note_on_c, 0, 62, 100
1, 765299, Note_off_c, 0, 62, 100
1, 765299, Note_on_c, 0, 62, 100
1, 766067, Note_off_c, 0, 62, 100
1, 766067, Note_on_c, 0, 64, 100
1, 766163, Note_off_c, 0, 64, 100
1, 766163, Note_on_c, 0, 67, 100
1, 766275, Note_off_c, 0, 67, 100
1, 766275, Note_on_c, 0, 65, 100
1, 766339, Note_off_c, 0, 65, 100
1, 766339, Note_on_c, 0, 62, 100
1, 766572, Note_off_c, 0, 62, 100
1, 766572, End_track
0, 0, End_of_file
