0, 0, Header, 1, 1, 192
1, 0, Start_track
1, 0, Title_t, "Melody"
1, 0, Tempo, 215053
1, 0, Key_signature, 0, "major"
1, 0, Time_signature, 4, 2, 24, 8
1, 96, Note_on_c, 0, 69, 100
1, 832, Note_off_c, 0, 69, 100
1, 832, Note_on_c, 0, 69, 100
1, 1151, Note_off_c, 0, 69, 100
1, 1151, Note_on_c, 0, 69, 100
1, 1439, Note_off_c, 0, 69, 100
1, 1439, Note_on_c, 0, 69, 100
1, 1871, Note_off_c, 0, 69, 100
1, 1871, Note_on_c, 0, 69, 100
1, 2111, Note_off_c, 0, 69, 100
1, 2111, Note_on_c, 0, 67, 100
1, 2303, Note_off_c, 0, 67, 100
1, 2303, Note_on_c, 0, 69, 100
1, 2687, Note_off_c, 0, 69, 100
1, 2687, Note_on_c, 0, 69, 100
1, 2879, Note_off_c, 0, 69, 100
1, 2879, Note_on_c, 0, 67, 100
1, 2975, Note_off_c, 0, 67, 100
1, 2975, Note_on_c, 0, 69, 100
1, 3167, Note_off_c, 0, 69, 100
1, 3167, Note_on_c, 0, 67, 100
1, 3263, Note_off_c, 0, 67, 100
1, 3263, Note_on_c, 0, 69, 100
1, 3359, Note_off_c, 0, 69, 100
1, 3359, Note_on_c, 0, 67, 100
1, 3455, Note_off_c, 0, 67, 100
1, 3455, Note_on_c, 0, 65, 100
1, 3647, Note_off_c, 0, 65, 100
1, 3647, Note_on_c, 0, 62, 100
1, 3839, Note_off_c, 0, 62, 100
1, 4127, Note_on_c, 0, 69, 100
1, 4463, Note_off_c, 0, 69, 100
1, 4463, Note_on_c, 0, 67, 100
1, 4607, Note_off_c, 0, 67, 100
1, 4607, Note_on_c, 0, 65, 100
1, 4671, Note_off_c, 0, 65, 100
1, 4671, Note_on_c, 0, 62, 100
1, 4735, Note_off_c, 0, 62, 100
1, 4735, Note_on_c, 0, 65, 100
1, 4847, Note_off_c, 0, 65, 100
1, 4847, Note_on_c, 0, 62, 100
1, 4943, Note_off_c, 0, 62, 100
1, 4943, Note_on_c, 0, 60, 100
1, 4991, Note_off_c, 0, 60, 100
1, 4991, Note_on_c, 0, 59, 100
1, 5087, Note_off_c, 0, 59, 100
1, 5087, Note_on_c, 0, 62, 100
1, 5231, Note_off_c, 0, 62, 100
1, 5231, Note_on_c, 0, 59, 100
1, 5423, Note_off_c, 0, 59, 100
1, 5423, Note_on_c, 0, 57, 100
1, 5519, Note_off_c, 0, 57, 100
1, 5519, Note_on_c, 0, 59, 100
1, 5567, Note_off_c, 0, 59, 100
1, 5567, Note_on_c, 0, 57, 100
1, 5807, Note_off_c, 0, 57, 100
1, 5807, Note_on_c, 0, 55, 100
1, 5951, Note_off_c, 0, 55, 100
1, 5951, Note_on_c, 0, 57, 100
1, 6079, Note_off_c, 0, 57, 100
1, 6079, Note_on_c, 0, 53, 100
1, 6527, Note_off_c, 0, 53, 100
1, 6527, Note_on_c, 0, 55, 100
1, 6719, Note_off_c, 0, 55, 100
1, 6719, Note_on_c, 0, 57, 100
1, 6815, Note_off_c, 0, 57, 100
1, 7295, Note_on_c, 0, 57, 100
1, 7391, Note_off_c, 0, 57, 100
1, 7391, Note_on_c, 0, 59, 100
1, 7487, Note_off_c, 0, 59, 100
1, 7487, Note_on_c, 0, 62, 100
1, 7583, Note_off_c, 0, 62, 100
1, 7583, Note_on_c, 0, 65, 100
1, 7679, Note_off_c, 0, 65, 100
1, 7679, Note_on_c, 0, 69, 100
1, 7775, Note_off_c, 0, 69, 100
1, 7775, Note_on_c, 0, 71, 100
1, 7871, Note_off_c, 0, 71, 100
1, 7871, Note_on_c, 0, 74, 100
1, 7967, Note_off_c, 0, 74, 100
1, 7967, Note_on_c, 0, 71, 100
1, 8255, Note_off_c, 0, 71, 100
1, 8639, Note_on_c, 0, 68, 100
1, 8735, Note_off_c, 0, 68, 100
1, 8735, Note_on_c, 0, 70, 100
1, 8831, Note_off_c, 0, 70, 100
1, 8831, Note_on_c, 0, 69, 100
1, 8927, Note_off_c, 0, 69, 100
1, 8927, Note_on_c, 0, 67, 100
1, 9023, Note_off_c, 0, 67, 100
1, 9023, Note_on_c, 0, 69, 100
1, 9119, Note_off_c, 0, 69, 100
1, 9119, Note_on_c, 0, 74, 100
1, 9215, Note_off_c, 0, 74, 100
1, 9215, Note_on_c, 0, 71, 100
1, 9503, Note_off_c, 0, 71, 100
1, 9503, Note_on_c, 0, 69, 100
1, 9599, Note_off_c, 0, 69, 100
1, 9599, Note_on_c, 0, 65, 100
1, 9695, Note_off_c, 0, 65, 100
1, 9695, Note_on_c, 0, 62, 100
1, 9791, Note_off_c, 0, 62, 100
1, 10175, Note_on_c, 0, 57, 100
1, 10271, Note_off_c, 0, 57, 100
1, 10271, Note_on_c, 0, 59, 100
1, 10367, Note_off_c, 0, 59, 100
1, 10367, Note_on_c, 0, 62, 100
1, 10463, Note_off_c, 0, 62, 100
1, 10463, Note_on_c, 0, 65, 100
1, 10511, Note_off_c, 0, 65, 100
1, 10511, Note_on_c, 0, 57, 100
1, 10655, Note_off_c, 0, 57, 100
1, 10655, Note_on_c, 0, 59, 100
1, 10751, Note_off_c, 0, 59, 100
1, 10751, Note_on_c, 0, 62, 100
1, 10847, Note_off_c, 0, 62, 100
1, 10847, Note_on_c, 0, 65, 100
1, 10895, Note_off_c, 0, 65, 100
1, 10895, Note_on_c, 0, 69, 100
1, 10991, Note_off_c, 0, 69, 100
1, 10991, Note_on_c, 0, 71, 100
1, 11087, Note_off_c, 0, 71, 100
1, 11087, Note_on_c, 0, 74, 100
1, 11231, Note_off_c, 0, 74, 100
1, 11231, Note_on_c, 0, 69, 100
1, 11327, Note_off_c, 0, 69, 100
1, 11711, Note_on_c, 0, 69, 100
1, 11807, Note_off_c, 0, 69, 100
1, 11807, Note_on_c, 0, 71, 100
1, 11903, Note_off_c, 0, 71, 100
1, 11903, Note_on_c, 0, 69, 100
1, 11999, Note_off_c, 0, 69, 100
1, 11999, Note_on_c, 0, 65, 100
1, 12095, Note_off_c, 0, 65, 100
1, 12095, Note_on_c, 0, 62, 100
1, 12191, Note_off_c, 0, 62, 100
1, 12191, Note_on_c, 0, 59, 100
1, 12287, Note_off_c, 0, 59, 100
1, 12287, Note_on_c, 0, 64, 100
1, 12383, Note_off_c, 0, 64, 100
1, 12383, Note_on_c, 0, 62, 100
1, 12479, Note_off_c, 0, 62, 100
1, 12479, Note_on_c, 0, 59, 100
1, 12543, Note_off_c, 0, 59, 100
1, 12543, Note_on_c, 0, 57, 100
1, 12607, Note_off_c, 0, 57, 100
1, 12607, Note_on_c, 0, 53, 100
1, 12815, Note_off_c, 0, 53, 100
1, 12815, Note_on_c, 0, 57, 100
1, 12911, Note_off_c, 0, 57, 100
1, 13439, Note_on_c, 0, 46, 100
1, 13535, Note_off_c, 0, 46, 100
1, 13535, Note_on_c, 0, 53, 100
1, 13631, Note_off_c, 0, 53, 100
1, 13631, Note_on_c, 0, 58, 100
1, 13727, Note_off_c, 0, 58, 100
1, 13727, Note_on_c, 0, 63, 100
1, 13823, Note_off_c, 0, 63, 100
1, 13823, Note_on_c, 0, 44, 100
1, 14015, Note_off_c, 0, 44, 100
1, 14015, Note_on_c, 0, 63, 100
1, 14111, Note_off_c, 0, 63, 100
1, 14111, Note_on_c, 0, 46, 100
1, 14399, Note_off_c, 0, 46, 100
1, 14687, Note_on_c, 0, 46, 100
1, 14783, Note_off_c, 0, 46, 100
1, 14783, Note_on_c, 0, 53, 100
1, 14879, Note_off_c, 0, 53, 100
1, 14879, Note_on_c, 0, 58, 100
1, 14975, Note_off_c, 0, 58, 100
1, 14975, Note_on_c, 0, 60, 100
1, 15103, Note_off_c, 0, 60, 100
1, 15103, Note_on_c, 0, 53, 100
1, 15167, Note_off_c, 0, 53, 100
1, 15167, Note_on_c, 0, 58, 100
1, 15263, Note_off_c, 0, 58, 100
1, 15263, Note_on_c, 0, 63, 100
1, 15359, Note_off_c, 0, 63, 100
1, 15359, Note_on_c, 0, 58, 100
1, 15551, Note_off_c, 0, 58, 100
1, 15743, Note_on_c, 0, 58, 100
1, 15887, Note_off_c, 0, 58, 100
1, 15887, Note_on_c, 0, 60, 100
1, 15935, Note_off_c, 0, 60, 100
1, 15935, Note_on_c, 0, 63, 100
1, 16031, Note_off_c, 0, 63, 100
1, 16031, Note_on_c, 0, 65, 100
1, 16127, Note_off_c, 0, 65, 100
1, 16127, Note_on_c, 0, 63, 100
1, 16223, Note_off_c, 0, 63, 100
1, 16223, Note_on_c, 0, 65, 100
1, 16319, Note_off_c, 0, 65, 100
1, 16319, Note_on_c, 0, 70, 100
1, 16447, Note_off_c, 0, 70, 100
1, 16447, Note_on_c, 0, 71, 100
1, 16511, Note_off_c, 0, 71, 100
1, 16511, Note_on_c, 0, 68, 100
1, 16607, Note_off_c, 0, 68, 100
1, 16607, Note_on_c, 0, 66, 100
1, 16703, Note_off_c, 0, 66, 100
1, 16703, Note_on_c, 0, 63, 100
1, 16831, Note_off_c, 0, 63, 100
1, 16831, Note_on_c, 0, 68, 100
1, 16895, Note_off_c, 0, 68, 100
1, 16895, Note_on_c, 0, 65, 100
1, 16991, Note_off_c, 0, 65, 100
1, 16991, Note_on_c, 0, 60, 100
1, 17087, Note_off_c, 0, 60, 100
1, 17087, Note_on_c, 0, 58, 100
1, 17183, Note_off_c, 0, 58, 100
1, 17183, Note_on_c, 0, 53, 100
1, 17279, Note_off_c, 0, 53, 100
1, 17279, Note_on_c, 0, 51, 100
1, 17375, Note_off_c, 0, 51, 100
1, 17375, Note_on_c, 0, 58, 100
1, 17471, Note_off_c, 0, 58, 100
1, 17471, Note_on_c, 0, 56, 100
1, 17567, Note_off_c, 0, 56, 100
1, 17567, Note_on_c, 0, 53, 100
1, 17663, Note_off_c, 0, 53, 100
1, 17663, Note_on_c, 0, 51, 100
1, 17855, Note_off_c, 0, 51, 100
1, 17855, Note_on_c, 0, 53, 100
1, 17951, Note_off_c, 0, 53, 100
1, 17951, Note_on_c, 0, 46, 100
1, 18143, Note_off_c, 0, 46, 100
1, 18623, Note_on_c, 0, 70, 100
1, 18767, Note_off_c, 0, 70, 100
1, 18767, Note_on_c, 0, 66, 100
1, 18815, Note_off_c, 0, 66, 100
1, 18815, Note_on_c, 0, 68, 100
1, 18911, Note_off_c, 0, 68, 100
1, 18911, Note_on_c, 0, 63, 100
1, 19007, Note_off_c, 0, 63, 100
1, 19007, Note_on_c, 0, 60, 100
1, 19151, Note_off_c, 0, 60, 100
1, 19151, Note_on_c, 0, 58, 100
1, 19199, Note_off_c, 0, 58, 100
1, 19199, Note_on_c, 0, 62, 100
1, 19295, Note_off_c, 0, 62, 100
1, 19295, Note_on_c, 0, 65, 100
1, 19391, Note_off_c, 0, 65, 100
1, 19583, Note_on_c, 0, 64, 100
1, 19679, Note_off_c, 0, 64, 100
1, 19679, Note_on_c, 0, 67, 100
1, 19871, Note_off_c, 0, 67, 100
1, 19871, Note_on_c, 0, 65, 100
1, 20303, Note_off_c, 0, 65, 100
1, 20303, Note_on_c, 0, 62, 100
1, 20351, Note_off_c, 0, 62, 100
1, 20351, Note_on_c, 0, 67, 100
1, 20447, Note_off_c, 0, 67, 100
1, 20447, Note_on_c, 0, 65, 100
1, 20543, Note_off_c, 0, 65, 100
1, 20543, Note_on_c, 0, 62, 100
1, 20639, Note_off_c, 0, 62, 100
1, 20639, Note_on_c, 0, 60, 100
1, 20735, Note_off_c, 0, 60, 100
1, 20735, Note_on_c, 0, 64, 100
1, 20831, Note_off_c, 0, 64, 100
1, 20831, Note_on_c, 0, 61, 100
1, 20927, Note_off_c, 0, 61, 100
1, 20927, Note_on_c, 0, 59, 100
1, 21023, Note_off_c, 0, 59, 100
1, 21023, Note_on_c, 0, 58, 100
1, 21119, Note_off_c, 0, 58, 100
1, 21119, Note_on_c, 0, 57, 100
1, 21215, Note_off_c, 0, 57, 100
1, 21215, Note_on_c, 0, 56, 100
1, 21311, Note_off_c, 0, 56, 100
1, 21311, Note_on_c, 0, 55, 100
1, 21407, Note_off_c, 0, 55, 100
1, 21407, Note_on_c, 0, 59, 100
1, 21503, Note_off_c, 0, 59, 100
1, 21503, Note_on_c, 0, 57, 100
1, 21599, Note_off_c, 0, 57, 100
1, 21599, Note_on_c, 0, 53, 100
1, 21695, Note_off_c, 0, 53, 100
1, 21695, Note_on_c, 0, 52, 100
1, 21887, Note_off_c, 0, 52, 100
1, 21887, Note_on_c, 0, 53, 100
1, 22079, Note_off_c, 0, 53, 100
1, 22079, Note_on_c, 0, 57, 100
1, 22175, Note_off_c, 0, 57, 100
1, 22527, Note_on_c, 0, 57, 100
1, 22591, Note_off_c, 0, 57, 100
1, 22591, Note_on_c, 0, 59, 100
1, 22655, Note_off_c, 0, 59, 100
1, 22655, Note_on_c, 0, 61, 100
1, 22751, Note_off_c, 0, 61, 100
1, 22751, Note_on_c, 0, 65, 100
1, 22847, Note_off_c, 0, 65, 100
1, 22847, Note_on_c, 0, 69, 100
1, 22943, Note_off_c, 0, 69, 100
1, 22943, Note_on_c, 0, 71, 100
1, 23039, Note_off_c, 0, 71, 100
1, 23039, Note_on_c, 0, 73, 100
1, 23135, Note_off_c, 0, 73, 100
1, 23567, Note_on_c, 0, 73, 100
1, 23663, Note_off_c, 0, 73, 100
1, 23663, Note_on_c, 0, 71, 100
1, 23759, Note_off_c, 0, 71, 100
1, 23759, Note_on_c, 0, 69, 100
1, 23807, Note_off_c, 0, 69, 100
1, 23807, Note_on_c, 0, 65, 100
1, 23903, Note_off_c, 0, 65, 100
1, 23903, Note_on_c, 0, 61, 100
1, 23999, Note_off_c, 0, 61, 100
1, 23999, Note_on_c, 0, 69, 100
1, 24095, Note_off_c, 0, 69, 100
1, 24095, Note_on_c, 0, 65, 100
1, 24191, Note_off_c, 0, 65, 100
1, 24191, Note_on_c, 0, 62, 100
1, 24287, Note_off_c, 0, 62, 100
1, 24287, Note_on_c, 0, 65, 100
1, 24383, Note_off_c, 0, 65, 100
1, 24383, Note_on_c, 0, 62, 100
1, 24575, Note_off_c, 0, 62, 100
1, 24575, Note_on_c, 0, 70, 100
1, 24671, Note_off_c, 0, 70, 100
1, 24671, Note_on_c, 0, 64, 100
1, 24767, Note_off_c, 0, 64, 100
1, 24767, Note_on_c, 0, 59, 100
1, 24863, Note_off_c, 0, 59, 100
1, 24863, Note_on_c, 0, 57, 100
1, 25055, Note_off_c, 0, 57, 100
1, 25055, Note_on_c, 0, 57, 100
1, 25151, Note_off_c, 0, 57, 100
1, 25151, Note_on_c, 0, 53, 100
1, 25343, Note_off_c, 0, 53, 100
1, 25343, Note_on_c, 0, 57, 100
1, 25439, Note_off_c, 0, 57, 100
1, 25439, Note_on_c, 0, 45, 100
1, 25823, Note_off_c, 0, 45, 100
1, 25823, Note_on_c, 0, 45, 100
1, 25919, Note_off_c, 0, 45, 100
1, 25919, Note_on_c, 0, 54, 100
1, 26015, Note_off_c, 0, 54, 100
1, 26015, Note_on_c, 0, 57, 100
1, 26111, Note_off_c, 0, 57, 100
1, 26111, Note_on_c, 0, 47, 100
1, 26255, Note_off_c, 0, 47, 100
1, 26255, Note_on_c, 0, 54, 100
1, 26351, Note_off_c, 0, 54, 100
1, 26591, Note_on_c, 0, 45, 100
1, 26735, Note_off_c, 0, 45, 100
1, 26735, Note_on_c, 0, 54, 100
1, 26831, Note_off_c, 0, 54, 100
1, 26831, Note_on_c, 0, 57, 100
1, 26879, Note_off_c, 0, 57, 100
1, 26879, Note_on_c, 0, 47, 100
1, 26975, Note_off_c, 0, 47, 100
1, 26975, Note_on_c, 0, 53, 100
1, 27071, Note_off_c, 0, 53, 100
1, 27359, Note_on_c, 0, 47, 100
1, 27455, Note_off_c, 0, 47, 100
1, 27455, Note_on_c, 0, 53, 100
1, 27551, Note_off_c, 0, 53, 100
1, 27551, Note_on_c, 0, 57, 100
1, 27647, Note_off_c, 0, 57, 100
1, 27647, Note_on_c, 0, 50, 100
1, 27743, Note_off_c, 0, 50, 100
1, 27743, Note_on_c, 0, 55, 100
1, 27839, Note_off_c, 0, 55, 100
1, 28127, Note_on_c, 0, 52, 100
1, 28223, Note_off_c, 0, 52, 100
1, 28223, Note_on_c, 0, 55, 100
1, 28319, Note_off_c, 0, 55, 100
1, 28319, Note_on_c, 0, 59, 100
1, 28415, Note_off_c, 0, 59, 100
1, 28415, Note_on_c, 0, 53, 100
1, 28511, Note_off_c, 0, 53, 100
1, 28511, Note_on_c, 0, 57, 100
1, 28607, Note_off_c, 0, 57, 100
1, 28895, Note_on_c, 0, 57, 100
1, 29039, Note_off_c, 0, 57, 100
1, 29039, Note_on_c, 0, 60, 100
1, 29135, Note_off_c, 0, 60, 100
1, 29135, Note_on_c, 0, 65, 100
1, 29183, Note_off_c, 0, 65, 100
1, 29183, Note_on_c, 0, 70, 100
1, 29279, Note_off_c, 0, 70, 100
1, 29279, Note_on_c, 0, 62, 100
1, 29375, Note_off_c, 0, 62, 100
1, 29663, Note_on_c, 0, 62, 100
1, 29759, Note_off_c, 0, 62, 100
1, 29759, Note_on_c, 0, 67, 100
1, 29855, Note_off_c, 0, 67, 100
1, 29855, Note_on_c, 0, 71, 100
1, 29951, Note_off_c, 0, 71, 100
1, 29951, Note_on_c, 0, 60, 100
1, 30143, Note_off_c, 0, 60, 100
1, 30143, Note_on_c, 0, 65, 100
1, 30239, Note_off_c, 0, 65, 100
1, 30239, Note_on_c, 0, 69, 100
1, 30335, Note_off_c, 0, 69, 100
1, 30335, Note_on_c, 0, 62, 100
1, 30527, Note_off_c, 0, 62, 100
1, 30527, Note_on_c, 0, 69, 100
1, 30623, Note_off_c, 0, 69, 100
1, 30623, Note_on_c, 0, 71, 100
1, 30719, Note_off_c, 0, 71, 100
1, 30719, Note_on_c, 0, 64, 100
1, 30815, Note_off_c, 0, 64, 100
1, 30815, Note_on_c, 0, 67, 100
1, 30911, Note_off_c, 0, 67, 100
1, 30911, Note_on_c, 0, 71, 100
1, 31007, Note_off_c, 0, 71, 100
1, 31007, Note_on_c, 0, 65, 100
1, 31103, Note_off_c, 0, 65, 100
1, 31871, Note_on_c, 0, 71, 100
1, 33311, Note_off_c, 0, 71, 100
1, 33311, Note_on_c, 0, 69, 100
1, 33407, Note_off_c, 0, 69, 100
1, 33407, Note_on_c, 0, 71, 100
1, 33599, Note_off_c, 0, 71, 100
1, 33599, Note_on_c, 0, 69, 100
1, 33695, Note_off_c, 0, 69, 100
1, 33695, Note_on_c, 0, 71, 100
1, 34079, Note_off_c, 0, 71, 100
1, 34079, Note_on_c, 0, 69, 100
1, 34175, Note_off_c, 0, 69, 100
1, 34175, Note_on_c, 0, 65, 100
1, 34271, Note_off_c, 0, 65, 100
1, 34271, Note_on_c, 0, 62, 100
1, 34367, Note_off_c, 0, 62, 100
1, 34943, Note_on_c, 0, 71, 100
1, 35087, Note_off_c, 0, 71, 100
1, 35087, Note_on_c, 0, 69, 100
1, 35231, Note_off_c, 0, 69, 100
1, 35231, Note_on_c, 0, 71, 100
1, 35759, Note_off_c, 0, 71, 100
1, 35759, Note_on_c, 0, 69, 100
1, 35903, Note_off_c, 0, 69, 100
1, 35903, Note_on_c, 0, 71, 100
1, 36095, Note_off_c, 0, 71, 100
1, 36095, Note_on_c, 0, 71, 100
1, 36431, Note_off_c, 0, 71, 100
1, 36431, Note_on_c, 0, 69, 100
1, 36527, Note_off_c, 0, 69, 100
1, 36527, Note_on_c, 0, 71, 100
1, 36623, Note_off_c, 0, 71, 100
1, 36623, Note_on_c, 0, 69, 100
1, 36719, Note_off_c, 0, 69, 100
1, 36719, Note_on_c, 0, 71, 100
1, 36815, Note_off_c, 0, 71, 100
1, 36815, Note_on_c, 0, 69, 100
1, 36911, Note_off_c, 0, 69, 100
1, 36911, Note_on_c, 0, 65, 100
1, 37007, Note_off_c, 0, 65, 100
1, 37007, Note_on_c, 0, 65, 100
1, 37103, Note_off_c, 0, 65, 100
1, 37103, Note_on_c, 0, 62, 100
1, 37199, Note_off_c, 0, 62, 100
1, 37199, Note_on_c, 0, 58, 100
1, 37247, Note_off_c, 0, 58, 100
1, 37247, Note_on_c, 0, 65, 100
1, 37679, Note_off_c, 0, 65, 100
1, 37679, Note_on_c, 0, 68, 100
1, 37775, Note_off_c, 0, 68, 100
1, 37775, Note_on_c, 0, 72, 100
1, 37919, Note_off_c, 0, 72, 100
1, 37919, Note_on_c, 0, 72, 100
1, 38783, Note_off_c, 0, 72, 100
1, 38783, Note_on_c, 0, 68, 100
1, 38879, Note_off_c, 0, 68, 100
1, 38879, Note_on_c, 0, 63, 100
1, 38975, Note_off_c, 0, 63, 100
1, 39551, Note_on_c, 0, 72, 100
1, 39679, Note_off_c, 0, 72, 100
1, 39679, Note_on_c, 0, 70, 100
1, 39839, Note_off_c, 0, 70, 100
1, 39839, Note_on_c, 0, 72, 100
1, 40319, Note_off_c, 0, 72, 100
1, 40319, Note_on_c, 0, 68, 100
1, 40415, Note_off_c, 0, 68, 100
1, 40415, Note_on_c, 0, 63, 100
1, 40511, Note_off_c, 0, 63, 100
1, 41039, Note_on_c, 0, 72, 100
1, 41183, Note_off_c, 0, 72, 100
1, 41183, Note_on_c, 0, 70, 100
1, 41375, Note_off_c, 0, 70, 100
1, 41375, Note_on_c, 0, 72, 100
1, 41855, Note_off_c, 0, 72, 100
1, 41855, Note_on_c, 0, 70, 100
1, 41999, Note_off_c, 0, 70, 100
1, 41999, Note_on_c, 0, 72, 100
1, 42191, Note_off_c, 0, 72, 100
1, 42623, Note_on_c, 0, 72, 100
1, 42719, Note_off_c, 0, 72, 100
1, 42719, Note_on_c, 0, 70, 100
1, 42879, Note_off_c, 0, 70, 100
1, 42879, Note_on_c, 0, 72, 100
1, 43391, Note_off_c, 0, 72, 100
1, 43391, Note_on_c, 0, 68, 100
1, 43487, Note_off_c, 0, 68, 100
1, 43487, Note_on_c, 0, 63, 100
1, 43679, Note_off_c, 0, 63, 100
1, 44111, Note_on_c, 0, 71, 100
1, 44255, Note_off_c, 0, 71, 100
1, 44255, Note_on_c, 0, 69, 100
1, 44399, Note_off_c, 0, 69, 100
1, 44399, Note_on_c, 0, 71, 100
1, 45215, Note_off_c, 0, 71, 100
1, 45215, Note_on_c, 0, 69, 100
1, 45375, Note_off_c, 0, 69, 100
1, 45375, Note_on_c, 0, 71, 100
1, 45567, Note_off_c, 0, 71, 100
1, 45935, Note_on_c, 0, 71, 100
1, 46031, Note_off_c, 0, 71, 100
1, 46031, Note_on_c, 0, 69, 100
1, 46175, Note_off_c, 0, 69, 100
1, 46175, Note_on_c, 0, 71, 100
1, 46703, Note_off_c, 0, 71, 100
1, 46703, Note_on_c, 0, 67, 100
1, 46799, Note_off_c, 0, 67, 100
1, 46799, Note_on_c, 0, 65, 100
1, 46895, Note_off_c, 0, 65, 100
1, 47423, Note_on_c, 0, 71, 100
1, 47519, Note_off_c, 0, 71, 100
1, 47519, Note_on_c, 0, 69, 100
1, 47679, Note_off_c, 0, 69, 100
1, 47679, Note_on_c, 0, 71, 100
1, 48095, Note_off_c, 0, 71, 100
1, 48095, Note_on_c, 0, 69, 100
1, 48287, Note_off_c, 0, 69, 100
1, 48287, Note_on_c, 0, 71, 100
1, 48479, Note_off_c, 0, 71, 100
1, 48479, Note_on_c, 0, 71, 100
1, 48671, Note_off_c, 0, 71, 100
1, 48671, Note_on_c, 0, 69, 100
1, 48767, Note_off_c, 0, 69, 100
1, 48767, Note_on_c, 0, 71, 100
1, 48959, Note_off_c, 0, 71, 100
1, 48959, Note_on_c, 0, 69, 100
1, 49055, Note_off_c, 0, 69, 100
1, 49055, Note_on_c, 0, 71, 100
1, 49295, Note_off_c, 0, 71, 100
1, 49295, Note_on_c, 0, 65, 100
1, 49343, Note_off_c, 0, 65, 100
1, 49343, Note_on_c, 0, 62, 100
1, 49439, Note_off_c, 0, 62, 100
1, 49439, Note_on_c, 0, 58, 100
1, 49535, Note_off_c, 0, 58, 100
1, 49535, Note_on_c, 0, 65, 100
1, 49823, Note_off_c, 0, 65, 100
1, 49823, Note_on_c, 0, 62, 100
1, 49919, Note_off_c, 0, 62, 100
1, 49919, Note_on_c, 0, 69, 100
1, 50111, Note_off_c, 0, 69, 100
1, 50111, Note_on_c, 0, 71, 100
1, 50255, Note_off_c, 0, 71, 100
1, 50255, Note_on_c, 0, 69, 100
1, 50367, Note_off_c, 0, 69, 100
1, 50367, Note_on_c, 0, 69, 100
1, 50495, Note_off_c, 0, 69, 100
1, 50495, Note_on_c, 0, 71, 100
1, 50591, Note_off_c, 0, 71, 100
1, 50591, Note_on_c, 0, 69, 100
1, 50879, Note_off_c, 0, 69, 100
1, 50879, Note_on_c, 0, 71, 100
1, 50975, Note_off_c, 0, 71, 100
1, 50975, Note_on_c, 0, 69, 100
1, 51263, Note_off_c, 0, 69, 100
1, 51647, Note_on_c, 0, 71, 100
1, 51791, Note_off_c, 0, 71, 100
1, 51791, Note_on_c, 0, 69, 100
1, 52031, Note_off_c, 0, 69, 100
1, 52031, Note_on_c, 0, 71, 100
1, 52223, Note_off_c, 0, 71, 100
1, 52223, Note_on_c, 0, 69, 100
1, 52607, Note_off_c, 0, 69, 100
1, 52607, Note_on_c, 0, 71, 100
1, 52703, Note_off_c, 0, 71, 100
1, 52703, Note_on_c, 0, 65, 100
1, 52799, Note_off_c, 0, 65, 100
1, 52799, Note_on_c, 0, 62, 100
1, 52895, Note_off_c, 0, 62, 100
1, 52895, Note_on_c, 0, 59, 100
1, 52991, Note_off_c, 0, 59, 100
1, 52991, Note_on_c, 0, 65, 100
1, 53087, Note_off_c, 0, 65, 100
1, 53087, Note_on_c, 0, 67, 100
1, 53183, Note_off_c, 0, 67, 100
1, 53183, Note_on_c, 0, 69, 100
1, 53311, Note_off_c, 0, 69, 100
1, 53311, Note_on_c, 0, 71, 100
1, 53375, Note_off_c, 0, 71, 100
1, 53375, Note_on_c, 0, 67, 100
1, 53471, Note_off_c, 0, 67, 100
1, 53471, Note_on_c, 0, 71, 100
1, 53567, Note_off_c, 0, 71, 100
1, 53567, Note_on_c, 0, 69, 100
1, 53663, Note_off_c, 0, 69, 100
1, 53663, Note_on_c, 0, 67, 100
1, 53759, Note_off_c, 0, 67, 100
1, 53759, Note_on_c, 0, 65, 100
1, 53887, Note_off_c, 0, 65, 100
1, 53887, Note_on_c, 0, 65, 100
1, 53951, Note_off_c, 0, 65, 100
1, 53951, Note_on_c, 0, 62, 100
1, 54047, Note_off_c, 0, 62, 100
1, 54047, Note_on_c, 0, 58, 100
1, 54143, Note_off_c, 0, 58, 100
1, 54143, Note_on_c, 0, 65, 100
1, 54527, Note_off_c, 0, 65, 100
1, 54527, Note_on_c, 0, 67, 100
1, 54623, Note_off_c, 0, 67, 100
1, 54623, Note_on_c, 0, 65, 100
1, 54719, Note_off_c, 0, 65, 100
1, 54719, Note_on_c, 0, 67, 100
1, 54815, Note_off_c, 0, 67, 100
1, 54815, Note_on_c, 0, 65, 100
1, 54911, Note_off_c, 0, 65, 100
1, 54911, Note_on_c, 0, 62, 100
1, 55007, Note_off_c, 0, 62, 100
1, 55007, Note_on_c, 0, 65, 100
1, 55103, Note_off_c, 0, 65, 100
1, 55103, Note_on_c, 0, 62, 100
1, 55295, Note_off_c, 0, 62, 100
1, 55295, Note_on_c, 0, 59, 100
1, 55391, Note_off_c, 0, 59, 100
1, 55391, Note_on_c, 0, 62, 100
1, 55487, Note_off_c, 0, 62, 100
1, 55487, Note_on_c, 0, 59, 100
1, 55583, Note_off_c, 0, 59, 100
1, 55583, Note_on_c, 0, 57, 100
1, 55775, Note_off_c, 0, 57, 100
1, 55775, Note_on_c, 0, 57, 100
1, 55871, Note_off_c, 0, 57, 100
1, 55871, Note_on_c, 0, 53, 100
1, 55967, Note_off_c, 0, 53, 100
1, 56447, Note_on_c, 0, 50, 100
1, 56543, Note_off_c, 0, 50, 100
1, 56543, Note_on_c, 0, 53, 100
1, 56639, Note_off_c, 0, 53, 100
1, 56639, Note_on_c, 0, 50, 100
1, 56831, Note_off_c, 0, 50, 100
1, 56831, Note_on_c, 0, 52, 100
1, 57023, Note_off_c, 0, 52, 100
1, 57023, Note_on_c, 0, 55, 100
1, 57119, Note_off_c, 0, 55, 100
1, 57119, Note_on_c, 0, 59, 100
1, 57215, Note_off_c, 0, 59, 100
1, 57215, Note_on_c, 0, 53, 100
1, 57311, Note_off_c, 0, 53, 100
1, 57311, Note_on_c, 0, 55, 100
1, 57407, Note_off_c, 0, 55, 100
1, 57407, Note_on_c, 0, 57, 100
1, 57551, Note_off_c, 0, 57, 100
1, 57551, Note_on_c, 0, 59, 100
1, 57599, Note_off_c, 0, 59, 100
1, 57599, Note_on_c, 0, 61, 100
1, 57695, Note_off_c, 0, 61, 100
1, 57695, Note_on_c, 0, 62, 100
1, 57791, Note_off_c, 0, 62, 100
1, 57791, Note_on_c, 0, 64, 100
1, 57887, Note_off_c, 0, 64, 100
1, 57887, Note_on_c, 0, 65, 100
1, 57983, Note_off_c, 0, 65, 100
1, 57983, Note_on_c, 0, 62, 100
1, 58079, Note_off_c, 0, 62, 100
1, 58079, Note_on_c, 0, 64, 100
1, 58175, Note_off_c, 0, 64, 100
1, 58175, Note_on_c, 0, 65, 100
1, 58271, Note_off_c, 0, 65, 100
1, 58271, Note_on_c, 0, 67, 100
1, 58367, Note_off_c, 0, 67, 100
1, 58367, Note_on_c, 0, 67, 100
1, 58463, Note_off_c, 0, 67, 100
1, 58463, Note_on_c, 0, 65, 100
1, 58559, Note_off_c, 0, 65, 100
1, 58559, Note_on_c, 0, 69, 100
1, 58655, Note_off_c, 0, 69, 100
1, 58655, Note_on_c, 0, 72, 100
1, 58847, Note_off_c, 0, 72, 100
1, 58847, Note_on_c, 0, 72, 100
1, 58943, Note_off_c, 0, 72, 100
1, 58943, Note_on_c, 0, 71, 100
1, 59039, Note_off_c, 0, 71, 100
1, 59519, Note_on_c, 0, 74, 100
1, 60239, Note_off_c, 0, 74, 100
1, 60239, Note_on_c, 0, 67, 100
1, 60287, Note_off_c, 0, 67, 100
1, 60287, Note_on_c, 0, 71, 100
1, 60383, Note_off_c, 0, 71, 100
1, 60383, Note_on_c, 0, 72, 100
1, 60479, Note_off_c, 0, 72, 100
1, 60479, Note_on_c, 0, 71, 100
1, 60575, Note_off_c, 0, 71, 100
1, 60575, Note_on_c, 0, 70, 100
1, 60671, Note_off_c, 0, 70, 100
1, 60671, Note_on_c, 0, 69, 100
1, 60767, Note_off_c, 0, 69, 100
1, 60767, Note_on_c, 0, 68, 100
1, 60863, Note_off_c, 0, 68, 100
1, 60863, Note_on_c, 0, 67, 100
1, 60959, Note_off_c, 0, 67, 100
1, 60959, Note_on_c, 0, 71, 100
1, 61055, Note_off_c, 0, 71, 100
1, 61055, Note_on_c, 0, 69, 100
1, 61151, Note_off_c, 0, 69, 100
1, 61151, Note_on_c, 0, 65, 100
1, 61199, Note_off_c, 0, 65, 100
1, 61199, Note_on_c, 0, 64, 100
1, 61391, Note_off_c, 0, 64, 100
1, 61391, Note_on_c, 0, 69, 100
1, 61439, Note_off_c, 0, 69, 100
1, 61439, Note_on_c, 0, 65, 100
1, 61823, Note_off_c, 0, 65, 100
1, 61823, Note_on_c, 0, 67, 100
1, 61951, Note_off_c, 0, 67, 100
1, 61951, Note_on_c, 0, 68, 100
1, 62047, Note_off_c, 0, 68, 100
1, 62399, Note_on_c, 0, 51, 100
1, 62495, Note_off_c, 0, 51, 100
1, 62495, Note_on_c, 0, 56, 100
1, 62591, Note_off_c, 0, 56, 100
1, 62591, Note_on_c, 0, 60, 100
1, 62687, Note_off_c, 0, 60, 100
1, 62687, Note_on_c, 0, 44, 100
1, 63071, Note_off_c, 0, 44, 100
1, 63071, Note_on_c, 0, 45, 100
1, 63215, Note_off_c, 0, 45, 100
1, 63215, Note_on_c, 0, 54, 100
1, 63311, Note_off_c, 0, 54, 100
1, 63311, Note_on_c, 0, 58, 100
1, 63455, Note_off_c, 0, 58, 100
1, 63455, Note_on_c, 0, 53, 100
1, 63551, Note_off_c, 0, 53, 100
1, 63983, Note_on_c, 0, 60, 100
1, 64079, Note_off_c, 0, 60, 100
1, 64079, Note_on_c, 0, 53, 100
1, 64127, Note_off_c, 0, 53, 100
1, 64127, Note_on_c, 0, 58, 100
1, 64223, Note_off_c, 0, 58, 100
1, 64223, Note_on_c, 0, 63, 100
1, 64319, Note_off_c, 0, 63, 100
1, 64319, Note_on_c, 0, 58, 100
1, 64415, Note_off_c, 0, 58, 100
1, 64415, Note_on_c, 0, 53, 100
1, 64511, Note_off_c, 0, 53, 100
1, 64511, Note_on_c, 0, 56, 100
1, 64607, Note_off_c, 0, 56, 100
1, 64895, Note_on_c, 0, 56, 100
1, 64991, Note_off_c, 0, 56, 100
1, 64991, Note_on_c, 0, 67, 100
1, 65087, Note_off_c, 0, 67, 100
1, 65087, Note_on_c, 0, 63, 100
1, 65183, Note_off_c, 0, 63, 100
1, 65183, Note_on_c, 0, 68, 100
1, 65279, Note_off_c, 0, 68, 100
1, 65279, Note_on_c, 0, 72, 100
1, 65375, Note_off_c, 0, 72, 100
1, 65375, Note_on_c, 0, 73, 100
1, 65471, Note_off_c, 0, 73, 100
1, 65471, Note_on_c, 0, 70, 100
1, 65567, Note_off_c, 0, 70, 100
1, 65567, Note_on_c, 0, 66, 100
1, 65663, Note_off_c, 0, 66, 100
1, 66047, Note_on_c, 0, 70, 100
1, 66191, Note_off_c, 0, 70, 100
1, 66191, Note_on_c, 0, 66, 100
1, 66239, Note_off_c, 0, 66, 100
1, 66239, Note_on_c, 0, 63, 100
1, 66431, Note_off_c, 0, 63, 100
1, 66431, Note_on_c, 0, 68, 100
1, 66527, Note_off_c, 0, 68, 100
1, 66527, Note_on_c, 0, 65, 100
1, 66671, Note_off_c, 0, 65, 100
1, 66671, Note_on_c, 0, 61, 100
1, 66815, Note_off_c, 0, 61, 100
1, 66815, Note_on_c, 0, 65, 100
1, 66911, Note_off_c, 0, 65, 100
1, 66911, Note_on_c, 0, 63, 100
1, 67007, Note_off_c, 0, 63, 100
1, 67007, Note_on_c, 0, 70, 100
1, 67103, Note_off_c, 0, 70, 100
1, 67103, Note_on_c, 0, 53, 100
1, 67199, Note_off_c, 0, 53, 100
1, 67199, Note_on_c, 0, 51, 100
1, 67295, Note_off_c, 0, 51, 100
1, 67295, Note_on_c, 0, 58, 100
1, 67391, Note_off_c, 0, 58, 100
1, 67391, Note_on_c, 0, 56, 100
1, 67455, Note_off_c, 0, 56, 100
1, 67455, Note_on_c, 0, 53, 100
1, 67519, Note_off_c, 0, 53, 100
1, 67519, Note_on_c, 0, 51, 100
1, 67679, Note_off_c, 0, 51, 100
1, 67679, Note_on_c, 0, 56, 100
1, 67775, Note_off_c, 0, 56, 100
1, 67775, Note_on_c, 0, 53, 100
1, 67871, Note_off_c, 0, 53, 100
1, 67871, Note_on_c, 0, 46, 100
1, 68063, Note_off_c, 0, 46, 100
1, 68495, Note_on_c, 0, 45, 100
1, 68607, Note_off_c, 0, 45, 100
1, 68607, Note_on_c, 0, 54, 100
1, 68671, Note_off_c, 0, 54, 100
1, 68671, Note_on_c, 0, 57, 100
1, 68735, Note_off_c, 0, 57, 100
1, 68735, Note_on_c, 0, 46, 100
1, 68927, Note_off_c, 0, 46, 100
1, 69311, Note_on_c, 0, 46, 100
1, 69503, Note_off_c, 0, 46, 100
1, 69503, Note_on_c, 0, 57, 100
1, 69599, Note_off_c, 0, 57, 100
1, 69599, Note_on_c, 0, 56, 100
1, 69695, Note_off_c, 0, 56, 100
1, 69695, Note_on_c, 0, 53, 100
1, 69791, Note_off_c, 0, 53, 100
1, 69791, Note_on_c, 0, 56, 100
1, 69887, Note_off_c, 0, 56, 100
1, 69887, Note_on_c, 0, 51, 100
1, 69983, Note_off_c, 0, 51, 100
1, 69983, Note_on_c, 0, 53, 100
1, 70079, Note_off_c, 0, 53, 100
1, 70079, Note_on_c, 0, 55, 100
1, 70175, Note_off_c, 0, 55, 100
1, 70175, Note_on_c, 0, 58, 100
1, 70271, Note_off_c, 0, 58, 100
1, 70271, Note_on_c, 0, 52, 100
1, 70367, Note_off_c, 0, 52, 100
1, 70847, Note_on_c, 0, 52, 100
1, 70943, Note_off_c, 0, 52, 100
1, 70943, Note_on_c, 0, 53, 100
1, 71103, Note_off_c, 0, 53, 100
1, 71103, Note_on_c, 0, 57, 100
1, 71167, Note_off_c, 0, 57, 100
1, 71167, Note_on_c, 0, 55, 100
1, 71231, Note_off_c, 0, 55, 100
1, 71231, Note_on_c, 0, 51, 100
1, 71423, Note_off_c, 0, 51, 100
1, 71423, Note_on_c, 0, 53, 100
1, 71519, Note_off_c, 0, 53, 100
1, 71519, Note_on_c, 0, 50, 100
1, 71615, Note_off_c, 0, 50, 100
1, 71615, Note_on_c, 0, 58, 100
1, 71759, Note_off_c, 0, 58, 100
1, 71759, Note_on_c, 0, 62, 100
1, 71807, Note_off_c, 0, 62, 100
1, 71807, Note_on_c, 0, 67, 100
1, 71903, Note_off_c, 0, 67, 100
1, 71903, Note_on_c, 0, 68, 100
1, 71999, Note_off_c, 0, 68, 100
1, 71999, Note_on_c, 0, 67, 100
1, 72127, Note_off_c, 0, 67, 100
1, 72127, Note_on_c, 0, 68, 100
1, 72191, Note_off_c, 0, 68, 100
1, 72191, Note_on_c, 0, 63, 100
1, 72287, Note_off_c, 0, 63, 100
1, 72287, Note_on_c, 0, 61, 100
1, 72383, Note_off_c, 0, 61, 100
1, 72383, Note_on_c, 0, 58, 100
1, 72479, Note_off_c, 0, 58, 100
1, 72479, Note_on_c, 0, 56, 100
1, 72575, Note_off_c, 0, 56, 100
1, 72575, Note_on_c, 0, 54, 100
1, 72671, Note_off_c, 0, 54, 100
1, 72863, Note_on_c, 0, 61, 100
1, 72911, Note_off_c, 0, 61, 100
1, 72911, Note_on_c, 0, 66, 100
1, 73007, Note_off_c, 0, 66, 100
1, 73007, Note_on_c, 0, 61, 100
1, 73103, Note_off_c, 0, 61, 100
1, 73103, Note_on_c, 0, 59, 100
1, 73199, Note_off_c, 0, 59, 100
1, 73199, Note_on_c, 0, 58, 100
1, 73295, Note_off_c, 0, 58, 100
1, 73295, Note_on_c, 0, 57, 100
1, 73391, Note_off_c, 0, 57, 100
1, 74111, Note_on_c, 0, 68, 100
1, 74239, Note_off_c, 0, 68, 100
1, 74239, Note_on_c, 0, 65, 100
1, 74303, Note_off_c, 0, 65, 100
1, 74303, Note_on_c, 0, 62, 100
1, 74495, Note_off_c, 0, 62, 100
1, 74495, Note_on_c, 0, 71, 100
1, 75599, Note_off_c, 0, 71, 100
1, 75599, Note_on_c, 0, 69, 100
1, 75647, Note_off_c, 0, 69, 100
1, 75647, Note_on_c, 0, 71, 100
1, 75839, Note_off_c, 0, 71, 100
1, 75839, Note_on_c, 0, 69, 100
1, 75935, Note_off_c, 0, 69, 100
1, 75935, Note_on_c, 0, 71, 100
1, 76367, Note_off_c, 0, 71, 100
1, 76367, Note_on_c, 0, 69, 100
1, 76463, Note_off_c, 0, 69, 100
1, 76463, Note_on_c, 0, 65, 100
1, 76559, Note_off_c, 0, 65, 100
1, 76559, Note_on_c, 0, 62, 100
1, 76655, Note_off_c, 0, 62, 100
1, 77087, Note_on_c, 0, 71, 100
1, 77375, Note_off_c, 0, 71, 100
1, 77375, Note_on_c, 0, 69, 100
1, 77471, Note_off_c, 0, 69, 100
1, 77471, Note_on_c, 0, 65, 100
1, 77567, Note_off_c, 0, 65, 100
1, 77567, Note_on_c, 0, 62, 100
1, 77663, Note_off_c, 0, 62, 100
1, 77663, Note_on_c, 0, 65, 100
1, 77759, Note_off_c, 0, 65, 100
1, 77759, Note_on_c, 0, 69, 100
1, 77855, Note_off_c, 0, 69, 100
1, 77855, Note_on_c, 0, 71, 100
1, 77951, Note_off_c, 0, 71, 100
1, 77951, Note_on_c, 0, 69, 100
1, 78047, Note_off_c, 0, 69, 100
1, 78047, Note_on_c, 0, 65, 100
1, 78143, Note_off_c, 0, 65, 100
1, 78143, Note_on_c, 0, 69, 100
1, 78239, Note_off_c, 0, 69, 100
1, 78239, Note_on_c, 0, 71, 100
1, 78335, Note_off_c, 0, 71, 100
1, 78335, Note_on_c, 0, 69, 100
1, 78431, Note_off_c, 0, 69, 100
1, 78431, Note_on_c, 0, 65, 100
1, 78527, Note_off_c, 0, 65, 100
1, 78527, Note_on_c, 0, 69, 100
1, 78623, Note_off_c, 0, 69, 100
1, 78623, Note_on_c, 0, 71, 100
1, 78719, Note_off_c, 0, 71, 100
1, 78719, Note_on_c, 0, 69, 100
1, 78815, Note_off_c, 0, 69, 100
1, 78815, Note_on_c, 0, 65, 100
1, 78911, Note_off_c, 0, 65, 100
1, 78911, Note_on_c, 0, 62, 100
1, 79039, Note_off_c, 0, 62, 100
1, 79039, Note_on_c, 0, 59, 100
1, 79103, Note_off_c, 0, 59, 100
1, 79103, Note_on_c, 0, 65, 100
1, 79487, Note_off_c, 0, 65, 100
1, 79487, Note_on_c, 0, 65, 100
1, 79583, Note_off_c, 0, 65, 100
1, 79583, Note_on_c, 0, 67, 100
1, 79679, Note_off_c, 0, 67, 100
1, 79679, Note_on_c, 0, 69, 100
1, 79775, Note_off_c, 0, 69, 100
1, 79775, Note_on_c, 0, 71, 100
1, 79871, Note_off_c, 0, 71, 100
1, 79871, Note_on_c, 0, 67, 100
1, 79967, Note_off_c, 0, 67, 100
1, 79967, Note_on_c, 0, 69, 100
1, 80063, Note_off_c, 0, 69, 100
1, 80063, Note_on_c, 0, 67, 100
1, 80159, Note_off_c, 0, 67, 100
1, 80159, Note_on_c, 0, 65, 100
1, 80351, Note_off_c, 0, 65, 100
1, 80351, Note_on_c, 0, 65, 100
1, 80447, Note_off_c, 0, 65, 100
1, 80447, Note_on_c, 0, 62, 100
1, 80639, Note_off_c, 0, 62, 100
1, 80639, Note_on_c, 0, 65, 100
1, 80735, Note_off_c, 0, 65, 100
1, 80735, Note_on_c, 0, 62, 100
1, 80831, Note_off_c, 0, 62, 100
1, 81407, Note_on_c, 0, 67, 100
1, 82463, Note_off_c, 0, 67, 100
1, 82463, Note_on_c, 0, 65, 100
1, 82559, Note_off_c, 0, 65, 100
1, 82559, Note_on_c, 0, 67, 100
1, 82687, Note_off_c, 0, 67, 100
1, 82687, Note_on_c, 0, 65, 100
1, 82847, Note_off_c, 0, 65, 100
1, 82847, Note_on_c, 0, 67, 100
1, 83231, Note_off_c, 0, 67, 100
1, 83231, Note_on_c, 0, 65, 100
1, 83327, Note_off_c, 0, 65, 100
1, 83327, Note_on_c, 0, 62, 100
1, 83519, Note_off_c, 0, 62, 100
1, 83519, Note_on_c, 0, 57, 100
1, 83711, Note_off_c, 0, 57, 100
1, 83903, Note_on_c, 0, 57, 100
1, 83999, Note_off_c, 0, 57, 100
1, 83999, Note_on_c, 0, 59, 100
1, 84095, Note_off_c, 0, 59, 100
1, 84095, Note_on_c, 0, 62, 100
1, 84191, Note_off_c, 0, 62, 100
1, 84191, Note_on_c, 0, 65, 100
1, 84287, Note_off_c, 0, 65, 100
1, 84287, Note_on_c, 0, 69, 100
1, 84383, Note_off_c, 0, 69, 100
1, 84383, Note_on_c, 0, 71, 100
1, 84479, Note_off_c, 0, 71, 100
1, 84479, Note_on_c, 0, 72, 100
1, 84863, Note_off_c, 0, 72, 100
1, 84863, Note_on_c, 0, 71, 100
1, 84959, Note_off_c, 0, 71, 100
1, 84959, Note_on_c, 0, 72, 100
1, 85055, Note_off_c, 0, 72, 100
1, 85055, Note_on_c, 0, 71, 100
1, 85151, Note_off_c, 0, 71, 100
1, 85151, Note_on_c, 0, 69, 100
1, 85247, Note_off_c, 0, 69, 100
1, 85247, Note_on_c, 0, 65, 100
1, 85343, Note_off_c, 0, 65, 100
1, 85343, Note_on_c, 0, 71, 100
1, 85439, Note_off_c, 0, 71, 100
1, 85439, Note_on_c, 0, 69, 100
1, 85631, Note_off_c, 0, 69, 100
1, 85631, Note_on_c, 0, 65, 100
1, 85727, Note_off_c, 0, 65, 100
1, 85727, Note_on_c, 0, 68, 100
1, 85823, Note_off_c, 0, 68, 100
1, 85823, Note_on_c, 0, 65, 100
1, 85919, Note_off_c, 0, 65, 100
1, 85919, Note_on_c, 0, 62, 100
1, 86111, Note_off_c, 0, 62, 100
1, 86111, Note_on_c, 0, 65, 100
1, 86207, Note_off_c, 0, 65, 100
1, 86207, Note_on_c, 0, 62, 100
1, 86303, Note_off_c, 0, 62, 100
1, 86303, Note_on_c, 0, 59, 100
1, 86495, Note_off_c, 0, 59, 100
1, 86495, Note_on_c, 0, 59, 100
1, 86591, Note_off_c, 0, 59, 100
1, 86591, Note_on_c, 0, 57, 100
1, 86687, Note_off_c, 0, 57, 100
1, 86975, Note_on_c, 0, 51, 100
1, 87071, Note_off_c, 0, 51, 100
1, 87071, Note_on_c, 0, 56, 100
1, 87167, Note_off_c, 0, 56, 100
1, 87167, Note_on_c, 0, 60, 100
1, 87263, Note_off_c, 0, 60, 100
1, 87263, Note_on_c, 0, 44, 100
1, 87551, Note_off_c, 0, 44, 100
1, 87551, Note_on_c, 0, 44, 100
1, 87615, Note_off_c, 0, 44, 100
1, 87615, Note_on_c, 0, 54, 100
1, 87679, Note_off_c, 0, 54, 100
1, 87679, Note_on_c, 0, 58, 100
1, 87743, Note_off_c, 0, 58, 100
1, 87743, Note_on_c, 0, 48, 100
1, 87839, Note_off_c, 0, 48, 100
1, 88367, Note_on_c, 0, 60, 100
1, 88463, Note_off_c, 0, 60, 100
1, 88463, Note_on_c, 0, 65, 100
1, 88511, Note_off_c, 0, 65, 100
1, 88511, Note_on_c, 0, 70, 100
1, 88607, Note_off_c, 0, 70, 100
1, 88607, Note_on_c, 0, 62, 100
1, 88703, Note_off_c, 0, 62, 100
1, 88703, Note_on_c, 0, 68, 100
1, 88799, Note_off_c, 0, 68, 100
1, 89183, Note_on_c, 0, 73, 100
1, 89855, Note_off_c, 0, 73, 100
1, 89855, Note_on_c, 0, 70, 100
1, 89919, Note_off_c, 0, 70, 100
1, 89919, Note_on_c, 0, 73, 100
1, 89983, Note_off_c, 0, 73, 100
1, 89983, Note_on_c, 0, 74, 100
1, 90047, Note_off_c, 0, 74, 100
1, 90047, Note_on_c, 0, 73, 100
1, 90143, Note_off_c, 0, 73, 100
1, 90143, Note_on_c, 0, 72, 100
1, 90239, Note_off_c, 0, 72, 100
1, 90239, Note_on_c, 0, 71, 100
1, 90287, Note_off_c, 0, 71, 100
1, 90287, Note_on_c, 0, 70, 100
1, 90335, Note_off_c, 0, 70, 100
1, 90335, Note_on_c, 0, 69, 100
1, 90431, Note_off_c, 0, 69, 100
1, 90431, Note_on_c, 0, 66, 100
1, 90479, Note_off_c, 0, 66, 100
1, 90479, Note_on_c, 0, 65, 100
1, 90575, Note_off_c, 0, 65, 100
1, 90575, Note_on_c, 0, 63, 100
1, 90687, Note_off_c, 0, 63, 100
1, 90687, Note_on_c, 0, 68, 100
1, 90751, Note_off_c, 0, 68, 100
1, 90751, Note_on_c, 0, 66, 100
1, 90815, Note_off_c, 0, 66, 100
1, 90815, Note_on_c, 0, 63, 100
1, 90943, Note_off_c, 0, 63, 100
1, 90943, Note_on_c, 0, 70, 100
1, 91007, Note_off_c, 0, 70, 100
1, 91007, Note_on_c, 0, 65, 100
1, 91103, Note_off_c, 0, 65, 100
1, 91103, Note_on_c, 0, 60, 100
1, 91247, Note_off_c, 0, 60, 100
1, 91247, Note_on_c, 0, 58, 100
1, 91343, Note_off_c, 0, 58, 100
1, 91343, Note_on_c, 0, 53, 100
1, 91391, Note_off_c, 0, 53, 100
1, 91391, Note_on_c, 0, 51, 100
1, 91487, Note_off_c, 0, 51, 100
1, 91487, Note_on_c, 0, 58, 100
1, 91583, Note_off_c, 0, 58, 100
1, 91583, Note_on_c, 0, 56, 100
1, 91679, Note_off_c, 0, 56, 100
1, 91679, Note_on_c, 0, 53, 100
1, 91775, Note_off_c, 0, 53, 100
1, 91775, Note_on_c, 0, 51, 100
1, 91871, Note_off_c, 0, 51, 100
1, 91871, Note_on_c, 0, 53, 100
1, 91967, Note_off_c, 0, 53, 100
1, 91967, Note_on_c, 0, 51, 100
1, 92063, Note_off_c, 0, 51, 100
1, 92063, Note_on_c, 0, 48, 100
1, 92159, Note_off_c, 0, 48, 100
1, 92159, Note_on_c, 0, 46, 100
1, 92351, Note_off_c, 0, 46, 100
1, 92351, Note_on_c, 0, 48, 100
1, 92447, Note_off_c, 0, 48, 100
1, 92447, Note_on_c, 0, 46, 100
1, 92543, Note_off_c, 0, 46, 100
1, 93311, Note_on_c, 0, 64, 100
1, 93407, Note_off_c, 0, 64, 100
1, 93407, Note_on_c, 0, 65, 100
1, 93503, Note_off_c, 0, 65, 100
1, 93503, Note_on_c, 0, 69, 100
1, 93599, Note_off_c, 0, 69, 100
1, 93599, Note_on_c, 0, 72, 100
1, 93695, Note_off_c, 0, 72, 100
1, 93695, Note_on_c, 0, 71, 100
1, 93983, Note_off_c, 0, 71, 100
1, 93983, Note_on_c, 0, 69, 100
1, 94079, Note_off_c, 0, 69, 100
1, 94079, Note_on_c, 0, 65, 100
1, 94175, Note_off_c, 0, 65, 100
1, 94175, Note_on_c, 0, 62, 100
1, 94271, Note_off_c, 0, 62, 100
1, 94847, Note_on_c, 0, 69, 100
1, 94943, Note_off_c, 0, 69, 100
1, 94943, Note_on_c, 0, 65, 100
1, 95039, Note_off_c, 0, 65, 100
1, 95039, Note_on_c, 0, 62, 100
1, 95135, Note_off_c, 0, 62, 100
1, 95135, Note_on_c, 0, 58, 100
1, 95231, Note_off_c, 0, 58, 100
1, 95231, Note_on_c, 0, 65, 100
1, 95519, Note_off_c, 0, 65, 100
1, 95519, Note_on_c, 0, 61, 100
1, 95615, Note_off_c, 0, 61, 100
1, 95615, Note_on_c, 0, 67, 100
1, 95711, Note_off_c, 0, 67, 100
1, 95711, Note_on_c, 0, 65, 100
1, 95807, Note_off_c, 0, 65, 100
1, 95807, Note_on_c, 0, 67, 100
1, 95903, Note_off_c, 0, 67, 100
1, 95903, Note_on_c, 0, 65, 100
1, 95999, Note_off_c, 0, 65, 100
1, 95999, Note_on_c, 0, 62, 100
1, 96095, Note_off_c, 0, 62, 100
1, 96095, Note_on_c, 0, 65, 100
1, 96191, Note_off_c, 0, 65, 100
1, 96191, Note_on_c, 0, 62, 100
1, 96287, Note_off_c, 0, 62, 100
1, 96287, Note_on_c, 0, 60, 100
1, 96383, Note_off_c, 0, 60, 100
1, 96383, Note_on_c, 0, 59, 100
1, 96479, Note_off_c, 0, 59, 100
1, 96479, Note_on_c, 0, 62, 100
1, 96575, Note_off_c, 0, 62, 100
1, 96575, Note_on_c, 0, 59, 100
1, 96671, Note_off_c, 0, 59, 100
1, 96671, Note_on_c, 0, 57, 100
1, 96815, Note_off_c, 0, 57, 100
1, 96815, Note_on_c, 0, 55, 100
1, 96911, Note_off_c, 0, 55, 100
1, 96911, Note_on_c, 0, 57, 100
1, 96959, Note_off_c, 0, 57, 100
1, 96959, Note_on_c, 0, 59, 100
1, 97055, Note_off_c, 0, 59, 100
1, 97055, Note_on_c, 0, 55, 100
1, 97151, Note_off_c, 0, 55, 100
1, 97151, Note_on_c, 0, 57, 100
1, 97247, Note_off_c, 0, 57, 100
1, 97247, Note_on_c, 0, 53, 100
1, 97343, Note_off_c, 0, 53, 100
1, 97343, Note_on_c, 0, 50, 100
1, 97487, Note_off_c, 0, 50, 100
1, 97487, Note_on_c, 0, 53, 100
1, 97535, Note_off_c, 0, 53, 100
1, 97535, Note_on_c, 0, 50, 100
1, 97631, Note_off_c, 0, 50, 100
1, 97631, Note_on_c, 0, 53, 100
1, 97679, Note_off_c, 0, 53, 100
1, 97679, Note_on_c, 0, 57, 100
1, 97823, Note_off_c, 0, 57, 100
1, 97823, Note_on_c, 0, 47, 100
1, 97919, Note_off_c, 0, 47, 100
1, 98687, Note_on_c, 0, 69, 100
1, 99135, Note_off_c, 0, 69, 100
1, 99135, Note_on_c, 0, 69, 100
1, 99263, Note_off_c, 0, 69, 100
1, 99263, Note_on_c, 0, 71, 100
1, 99359, Note_off_c, 0, 71, 100
1, 99359, Note_on_c, 0, 68, 100
1, 99503, Note_off_c, 0, 68, 100
1, 99503, Note_on_c, 0, 69, 100
1, 99647, Note_off_c, 0, 69, 100
1, 99647, Note_on_c, 0, 71, 100
1, 99743, Note_off_c, 0, 71, 100
1, 99743, Note_on_c, 0, 68, 100
1, 99887, Note_off_c, 0, 68, 100
1, 99887, Note_on_c, 0, 63, 100
1, 99983, Note_off_c, 0, 63, 100
1, 100271, Note_on_c, 0, 63, 100
1, 100367, Note_off_c, 0, 63, 100
1, 100367, Note_on_c, 0, 65, 100
1, 100415, Note_off_c, 0, 65, 100
1, 100415, Note_on_c, 0, 67, 100
1, 100511, Note_off_c, 0, 67, 100
1, 100511, Note_on_c, 0, 69, 100
1, 100607, Note_off_c, 0, 69, 100
1, 100607, Note_on_c, 0, 68, 100
1, 100751, Note_off_c, 0, 68, 100
1, 100751, Note_on_c, 0, 65, 100
1, 100799, Note_off_c, 0, 65, 100
1, 100799, Note_on_c, 0, 69, 100
1, 100895, Note_off_c, 0, 69, 100
1, 100895, Note_on_c, 0, 73, 100
1, 101087, Note_off_c, 0, 73, 100
1, 101087, Note_on_c, 0, 71, 100
1, 101183, Note_off_c, 0, 71, 100
1, 101183, Note_on_c, 0, 69, 100
1, 101279, Note_off_c, 0, 69, 100
1, 101279, Note_on_c, 0, 65, 100
1, 101375, Note_off_c, 0, 65, 100
1, 101375, Note_on_c, 0, 63, 100
1, 101471, Note_off_c, 0, 63, 100
1, 101471, Note_on_c, 0, 61, 100
1, 101567, Note_off_c, 0, 61, 100
1, 101567, Note_on_c, 0, 59, 100
1, 101759, Note_off_c, 0, 59, 100
1, 101759, Note_on_c, 0, 61, 100
1, 102143, Note_off_c, 0, 61, 100
1, 102143, Note_on_c, 0, 63, 100
1, 102335, Note_off_c, 0, 63, 100
1, 102335, Note_on_c, 0, 67, 100
1, 102431, Note_off_c, 0, 67, 100
1, 102431, Note_on_c, 0, 65, 100
1, 102527, Note_off_c, 0, 65, 100
1, 102527, Note_on_c, 0, 63, 100
1, 102623, Note_off_c, 0, 63, 100
1, 102623, Note_on_c, 0, 65, 100
1, 102719, Note_off_c, 0, 65, 100
1, 102719, Note_on_c, 0, 63, 100
1, 102815, Note_off_c, 0, 63, 100
1, 102815, Note_on_c, 0, 61, 100
1, 102911, Note_off_c, 0, 61, 100
1, 102911, Note_on_c, 0, 57, 100
1, 103007, Note_off_c, 0, 57, 100
1, 103007, Note_on_c, 0, 63, 100
1, 103103, Note_off_c, 0, 63, 100
1, 103103, Note_on_c, 0, 59, 100
1, 103199, Note_off_c, 0, 59, 100
1, 103199, Note_on_c, 0, 57, 100
1, 103295, Note_off_c, 0, 57, 100
1, 103295, Note_on_c, 0, 53, 100
1, 103391, Note_off_c, 0, 53, 100
1, 103391, Note_on_c, 0, 57, 100
1, 103487, Note_off_c, 0, 57, 100
1, 103487, Note_on_c, 0, 53, 100
1, 103583, Note_off_c, 0, 53, 100
1, 103583, Note_on_c, 0, 50, 100
1, 103679, Note_off_c, 0, 50, 100
1, 104639, Note_on_c, 0, 67, 100
1, 105279, Note_off_c, 0, 67, 100
1, 105279, Note_on_c, 0, 67, 100
1, 105407, Note_off_c, 0, 67, 100
1, 105407, Note_on_c, 0, 65, 100
1, 105503, Note_off_c, 0, 65, 100
1, 105503, Note_on_c, 0, 67, 100
1, 105791, Note_off_c, 0, 67, 100
1, 105791, Note_on_c, 0, 67, 100
1, 106319, Note_off_c, 0, 67, 100
1, 106319, Note_on_c, 0, 65, 100
1, 106415, Note_off_c, 0, 65, 100
1, 106415, Note_on_c, 0, 62, 100
1, 106511, Note_off_c, 0, 62, 100
1, 106511, Note_on_c, 0, 57, 100
1, 106607, Note_off_c, 0, 57, 100
1, 107087, Note_on_c, 0, 57, 100
1, 107135, Note_off_c, 0, 57, 100
1, 107135, Note_on_c, 0, 59, 100
1, 107327, Note_off_c, 0, 59, 100
1, 107327, Note_on_c, 0, 62, 100
1, 107423, Note_off_c, 0, 62, 100
1, 107423, Note_on_c, 0, 65, 100
1, 107519, Note_off_c, 0, 65, 100
1, 107519, Note_on_c, 0, 69, 100
1, 107567, Note_off_c, 0, 69, 100
1, 107567, Note_on_c, 0, 71, 100
1, 107615, Note_off_c, 0, 71, 100
1, 107615, Note_on_c, 0, 74, 100
1, 107711, Note_off_c, 0, 74, 100
1, 107711, Note_on_c, 0, 79, 100
1, 107839, Note_off_c, 0, 79, 100
1, 107839, Note_on_c, 0, 69, 100
1, 109055, Note_off_c, 0, 69, 100
1, 109055, Note_on_c, 0, 69, 100
1, 109247, Note_off_c, 0, 69, 100
1, 109247, Note_on_c, 0, 74, 100
1, 109375, Note_off_c, 0, 74, 100
1, 109375, Note_on_c, 0, 72, 100
1, 109439, Note_off_c, 0, 72, 100
1, 109439, Note_on_c, 0, 69, 100
1, 109583, Note_off_c, 0, 69, 100
1, 109583, Note_on_c, 0, 81, 100
1, 109727, Note_off_c, 0, 81, 100
1, 109727, Note_on_c, 0, 81, 100
1, 109887, Note_off_c, 0, 81, 100
1, 109887, Note_on_c, 0, 69, 100
1, 110015, Note_off_c, 0, 69, 100
1, 110015, Note_on_c, 0, 69, 100
1, 110111, Note_off_c, 0, 69, 100
1, 110111, Note_on_c, 0, 74, 100
1, 110303, Note_off_c, 0, 74, 100
1, 110303, Note_on_c, 0, 74, 100
1, 110399, Note_off_c, 0, 74, 100
1, 110399, Note_on_c, 0, 71, 100
1, 110495, Note_off_c, 0, 71, 100
1, 110495, Note_on_c, 0, 74, 100
1, 110687, Note_off_c, 0, 74, 100
1, 110687, Note_on_c, 0, 74, 100
1, 110879, Note_off_c, 0, 74, 100
1, 110879, Note_on_c, 0, 79, 100
1, 111231, Note_off_c, 0, 79, 100
1, 111231, Note_on_c, 0, 69, 100
1, 111327, Note_off_c, 0, 69, 100
1, 112031, Note_on_c, 0, 80, 100
1, 112223, Note_off_c, 0, 80, 100
1, 112223, Note_on_c, 0, 68, 100
1, 112511, Note_off_c, 0, 68, 100
1, 112511, Note_on_c, 0, 70, 100
1, 113183, Note_off_c, 0, 70, 100
1, 113183, Note_on_c, 0, 65, 100
1, 113279, Note_off_c, 0, 65, 100
1, 113279, Note_on_c, 0, 70, 100
1, 113375, Note_off_c, 0, 70, 100
1, 113375, Note_on_c, 0, 83, 100
1, 113519, Note_off_c, 0, 83, 100
1, 113519, Note_on_c, 0, 75, 100
1, 113663, Note_off_c, 0, 75, 100
1, 113663, Note_on_c, 0, 75, 100
1, 113759, Note_off_c, 0, 75, 100
1, 113759, Note_on_c, 0, 72, 100
1, 113855, Note_off_c, 0, 72, 100
1, 113855, Note_on_c, 0, 68, 100
1, 114047, Note_off_c, 0, 68, 100
1, 114047, Note_on_c, 0, 68, 100
1, 114143, Note_off_c, 0, 68, 100
1, 114143, Note_on_c, 0, 66, 100
1, 114383, Note_off_c, 0, 66, 100
1, 114383, Note_on_c, 0, 70, 100
1, 114431, Note_off_c, 0, 70, 100
1, 114431, Note_on_c, 0, 73, 100
1, 114527, Note_off_c, 0, 73, 100
1, 114527, Note_on_c, 0, 73, 100
1, 114719, Note_off_c, 0, 73, 100
1, 114719, Note_on_c, 0, 70, 100
1, 114879, Note_off_c, 0, 70, 100
1, 114879, Note_on_c, 0, 65, 100
1, 114943, Note_off_c, 0, 65, 100
1, 114943, Note_on_c, 0, 63, 100
1, 115103, Note_off_c, 0, 63, 100
1, 115103, Note_on_c, 0, 65, 100
1, 115199, Note_off_c, 0, 65, 100
1, 115199, Note_on_c, 0, 60, 100
1, 115295, Note_off_c, 0, 60, 100
1, 115295, Note_on_c, 0, 56, 100
1, 115439, Note_off_c, 0, 56, 100
1, 115439, Note_on_c, 0, 63, 100
1, 115535, Note_off_c, 0, 63, 100
1, 115535, Note_on_c, 0, 58, 100
1, 115583, Note_off_c, 0, 58, 100
1, 115583, Note_on_c, 0, 53, 100
1, 115679, Note_off_c, 0, 53, 100
1, 115679, Note_on_c, 0, 51, 100
1, 115775, Note_off_c, 0, 51, 100
1, 115775, Note_on_c, 0, 56, 100
1, 115871, Note_off_c, 0, 56, 100
1, 115871, Note_on_c, 0, 53, 100
1, 116255, Note_off_c, 0, 53, 100
1, 116255, Note_on_c, 0, 56, 100
1, 116351, Note_off_c, 0, 56, 100
1, 116351, Note_on_c, 0, 58, 100
1, 116447, Note_off_c, 0, 58, 100
1, 117023, Note_on_c, 0, 70, 100
1, 117167, Note_off_c, 0, 70, 100
1, 117167, Note_on_c, 0, 72, 100
1, 117263, Note_off_c, 0, 72, 100
1, 117263, Note_on_c, 0, 63, 100
1, 117407, Note_off_c, 0, 63, 100
1, 117407, Note_on_c, 0, 65, 100
1, 117599, Note_off_c, 0, 65, 100
1, 117599, Note_on_c, 0, 69, 100
1, 117743, Note_off_c, 0, 69, 100
1, 117743, Note_on_c, 0, 74, 100
1, 117791, Note_off_c, 0, 74, 100
1, 117791, Note_on_c, 0, 71, 100
1, 117887, Note_off_c, 0, 71, 100
1, 118415, Note_on_c, 0, 71, 100
1, 118847, Note_off_c, 0, 71, 100
1, 118847, Note_on_c, 0, 69, 100
1, 118895, Note_off_c, 0, 69, 100
1, 118895, Note_on_c, 0, 71, 100
1, 118991, Note_off_c, 0, 71, 100
1, 118991, Note_on_c, 0, 69, 100
1, 119039, Note_off_c, 0, 69, 100
1, 119039, Note_on_c, 0, 65, 100
1, 119135, Note_off_c, 0, 65, 100
1, 119135, Note_on_c, 0, 69, 100
1, 119231, Note_off_c, 0, 69, 100
1, 119231, Note_on_c, 0, 65, 100
1, 119567, Note_off_c, 0, 65, 100
1, 119567, Note_on_c, 0, 62, 100
1, 119615, Note_off_c, 0, 62, 100
1, 119615, Note_on_c, 0, 67, 100
1, 119711, Note_off_c, 0, 67, 100
1, 119711, Note_on_c, 0, 65, 100
1, 119807, Note_off_c, 0, 65, 100
1, 119807, Note_on_c, 0, 67, 100
1, 119903, Note_off_c, 0, 67, 100
1, 119903, Note_on_c, 0, 65, 100
1, 119999, Note_off_c, 0, 65, 100
1, 119999, Note_on_c, 0, 62, 100
1, 120095, Note_off_c, 0, 62, 100
1, 120095, Note_on_c, 0, 62, 100
1, 120191, Note_off_c, 0, 62, 100
1, 120191, Note_on_c, 0, 59, 100
1, 120335, Note_off_c, 0, 59, 100
1, 120335, Note_on_c, 0, 55, 100
1, 120383, Note_off_c, 0, 55, 100
1, 120383, Note_on_c, 0, 62, 100
1, 120671, Note_off_c, 0, 62, 100
1, 120671, Note_on_c, 0, 71, 100
1, 120767, Note_off_c, 0, 71, 100
1, 120767, Note_on_c, 0, 61, 100
1, 121055, Note_off_c, 0, 61, 100
1, 121055, Note_on_c, 0, 67, 100
1, 121151, Note_off_c, 0, 67, 100
1, 121151, Note_on_c, 0, 63, 100
1, 121247, Note_off_c, 0, 63, 100
1, 121583, Note_on_c, 0, 69, 100
1, 121679, Note_off_c, 0, 69, 100
1, 121679, Note_on_c, 0, 63, 100
1, 121727, Note_off_c, 0, 63, 100
1, 121727, Note_on_c, 0, 59, 100
1, 121823, Note_off_c, 0, 59, 100
1, 121823, Note_on_c, 0, 57, 100
1, 121919, Note_off_c, 0, 57, 100
1, 121919, Note_on_c, 0, 53, 100
1, 122111, Note_off_c, 0, 53, 100
1, 122111, Note_on_c, 0, 57, 100
1, 122207, Note_off_c, 0, 57, 100
1, 122207, Note_on_c, 0, 59, 100
1, 122303, Note_off_c, 0, 59, 100
1, 122303, Note_on_c, 0, 52, 100
1, 122495, Note_off_c, 0, 52, 100
1, 122495, Note_on_c, 0, 55, 100
1, 122591, Note_off_c, 0, 55, 100
1, 122591, Note_on_c, 0, 59, 100
1, 122687, Note_off_c, 0, 59, 100
1, 122687, Note_on_c, 0, 50, 100
1, 122783, Note_off_c, 0, 50, 100
1, 122783, Note_on_c, 0, 53, 100
1, 122879, Note_off_c, 0, 53, 100
1, 122879, Note_on_c, 0, 57, 100
1, 122927, Note_off_c, 0, 57, 100
1, 122927, Note_on_c, 0, 53, 100
1, 122975, Note_off_c, 0, 53, 100
1, 122975, Note_on_c, 0, 47, 100
1, 123071, Note_off_c, 0, 47, 100
1, 123599, Note_on_c, 0, 59, 100
1, 123647, Note_off_c, 0, 59, 100
1, 123647, Note_on_c, 0, 50, 100
1, 123743, Note_off_c, 0, 50, 100
1, 123743, Note_on_c, 0, 57, 100
1, 123839, Note_off_c, 0, 57, 100
1, 123839, Note_on_c, 0, 47, 100
1, 124127, Note_off_c, 0, 47, 100
1, 124127, Note_on_c, 0, 59, 100
1, 124223, Note_off_c, 0, 59, 100
1, 124223, Note_on_c, 0, 54, 100
1, 124319, Note_off_c, 0, 54, 100
1, 124319, Note_on_c, 0, 57, 100
1, 124415, Note_off_c, 0, 57, 100
1, 124415, Note_on_c, 0, 48, 100
1, 124703, Note_off_c, 0, 48, 100
1, 124703, Note_on_c, 0, 48, 100
1, 124799, Note_off_c, 0, 48, 100
1, 124799, Note_on_c, 0, 53, 100
1, 124895, Note_off_c, 0, 53, 100
1, 124895, Note_on_c, 0, 57, 100
1, 124991, Note_off_c, 0, 57, 100
1, 124991, Note_on_c, 0, 50, 100
1, 125087, Note_off_c, 0, 50, 100
1, 125375, Note_on_c, 0, 50, 100
1, 125471, Note_off_c, 0, 50, 100
1, 125471, Note_on_c, 0, 53, 100
1, 125519, Note_off_c, 0, 53, 100
1, 125519, Note_on_c, 0, 57, 100
1, 125615, Note_off_c, 0, 57, 100
1, 125615, Note_on_c, 0, 59, 100
1, 125711, Note_off_c, 0, 59, 100
1, 125711, Note_on_c, 0, 52, 100
1, 125807, Note_off_c, 0, 52, 100
1, 126095, Note_on_c, 0, 52, 100
1, 126207, Note_off_c, 0, 52, 100
1, 126207, Note_on_c, 0, 53, 100
1, 126271, Note_off_c, 0, 53, 100
1, 126271, Note_on_c, 0, 55, 100
1, 126383, Note_off_c, 0, 55, 100
1, 126383, Note_on_c, 0, 57, 100
1, 126479, Note_off_c, 0, 57, 100
1, 126479, Note_on_c, 0, 53, 100
1, 126575, Note_off_c, 0, 53, 100
1, 126575, Note_on_c, 0, 55, 100
1, 126671, Note_off_c, 0, 55, 100
1, 126671, Note_on_c, 0, 57, 100
1, 126783, Note_off_c, 0, 57, 100
1, 126783, Note_on_c, 0, 59, 100
1, 126911, Note_off_c, 0, 59, 100
1, 126911, Note_on_c, 0, 61, 100
1, 127007, Note_off_c, 0, 61, 100
1, 127007, Note_on_c, 0, 62, 100
1, 127055, Note_off_c, 0, 62, 100
1, 127055, Note_on_c, 0, 64, 100
1, 127151, Note_off_c, 0, 64, 100
1, 127151, Note_on_c, 0, 65, 100
1, 127247, Note_off_c, 0, 65, 100
1, 127247, Note_on_c, 0, 62, 100
1, 127359, Note_off_c, 0, 62, 100
1, 127359, Note_on_c, 0, 64, 100
1, 127423, Note_off_c, 0, 64, 100
1, 127423, Note_on_c, 0, 65, 100
1, 127583, Note_off_c, 0, 65, 100
1, 127583, Note_on_c, 0, 67, 100
1, 127679, Note_off_c, 0, 67, 100
1, 127679, Note_on_c, 0, 69, 100
1, 127775, Note_off_c, 0, 69, 100
1, 127775, Note_on_c, 0, 65, 100
1, 127871, Note_off_c, 0, 65, 100
1, 127871, Note_on_c, 0, 62, 100
1, 127967, Note_off_c, 0, 62, 100
1, 127967, Note_on_c, 0, 58, 100
1, 128063, Note_off_c, 0, 58, 100
1, 128063, Note_on_c, 0, 65, 100
1, 128303, Note_off_c, 0, 65, 100
1, 128303, Note_on_c, 0, 67, 100
1, 128399, Note_off_c, 0, 67, 100
1, 128399, Note_on_c, 0, 65, 100
1, 128447, Note_off_c, 0, 65, 100
1, 128447, Note_on_c, 0, 62, 100
1, 128543, Note_off_c, 0, 62, 100
1, 128543, Note_on_c, 0, 65, 100
1, 128639, Note_off_c, 0, 65, 100
1, 128639, Note_on_c, 0, 62, 100
1, 128735, Note_off_c, 0, 62, 100
1, 128735, Note_on_c, 0, 60, 100
1, 128831, Note_off_c, 0, 60, 100
1, 128831, Note_on_c, 0, 59, 100
1, 128927, Note_off_c, 0, 59, 100
1, 128927, Note_on_c, 0, 62, 100
1, 129023, Note_off_c, 0, 62, 100
1, 129023, Note_on_c, 0, 59, 100
1, 129119, Note_off_c, 0, 59, 100
1, 129119, Note_on_c, 0, 57, 100
1, 129311, Note_off_c, 0, 57, 100
1, 129311, Note_on_c, 0, 57, 100
1, 129359, Note_off_c, 0, 57, 100
1, 129359, Note_on_c, 0, 53, 100
1, 129503, Note_off_c, 0, 53, 100
1, 129503, Note_on_c, 0, 53, 100
1, 129599, Note_off_c, 0, 53, 100
1, 129599, Note_on_c, 0, 57, 100
1, 129695, Note_off_c, 0, 57, 100
1, 129695, Note_on_c, 0, 59, 100
1, 129791, Note_off_c, 0, 59, 100
1, 130367, Note_on_c, 0, 59, 100
1, 130463, Note_off_c, 0, 59, 100
1, 130463, Note_on_c, 0, 62, 100
1, 130559, Note_off_c, 0, 62, 100
1, 130559, Note_on_c, 0, 65, 100
1, 130703, Note_off_c, 0, 65, 100
1, 130703, Note_on_c, 0, 72, 100
1, 130895, Note_off_c, 0, 72, 100
1, 130895, Note_on_c, 0, 69, 100
1, 131039, Note_off_c, 0, 69, 100
1, 131039, Note_on_c, 0, 72, 100
1, 131135, Note_off_c, 0, 72, 100
1, 131135, Note_on_c, 0, 69, 100
1, 131327, Note_off_c, 0, 69, 100
1, 131327, Note_on_c, 0, 72, 100
1, 131519, Note_off_c, 0, 72, 100
1, 131519, Note_on_c, 0, 69, 100
1, 131663, Note_off_c, 0, 69, 100
1, 131663, Note_on_c, 0, 72, 100
1, 131903, Note_off_c, 0, 72, 100
1, 131903, Note_on_c, 0, 69, 100
1, 132095, Note_off_c, 0, 69, 100
1, 132095, Note_on_c, 0, 72, 100
1, 132287, Note_off_c, 0, 72, 100
1, 132287, Note_on_c, 0, 69, 100
1, 132479, Note_off_c, 0, 69, 100
1, 132479, Note_on_c, 0, 81, 100
1, 132671, Note_off_c, 0, 81, 100
1, 133055, Note_on_c, 0, 72, 100
1, 133199, Note_off_c, 0, 72, 100
1, 133199, Note_on_c, 0, 69, 100
1, 133247, Note_off_c, 0, 69, 100
1, 133247, Note_on_c, 0, 72, 100
1, 133439, Note_off_c, 0, 72, 100
1, 133439, Note_on_c, 0, 69, 100
1, 133631, Note_off_c, 0, 69, 100
1, 133631, Note_on_c, 0, 72, 100
1, 133727, Note_off_c, 0, 72, 100
1, 133727, Note_on_c, 0, 72, 100
1, 133823, Note_off_c, 0, 72, 100
1, 133823, Note_on_c, 0, 69, 100
1, 134015, Note_off_c, 0, 69, 100
1, 134015, Note_on_c, 0, 72, 100
1, 134111, Note_off_c, 0, 72, 100
1, 134111, Note_on_c, 0, 72, 100
1, 134207, Note_off_c, 0, 72, 100
1, 134207, Note_on_c, 0, 69, 100
1, 134399, Note_off_c, 0, 69, 100
1, 134399, Note_on_c, 0, 72, 100
1, 134495, Note_off_c, 0, 72, 100
1, 134495, Note_on_c, 0, 65, 100
1, 134591, Note_off_c, 0, 65, 100
1, 134591, Note_on_c, 0, 69, 100
1, 134783, Note_off_c, 0, 69, 100
1, 134783, Note_on_c, 0, 72, 100
1, 134879, Note_off_c, 0, 72, 100
1, 134879, Note_on_c, 0, 72, 100
1, 134975, Note_off_c, 0, 72, 100
1, 135359, Note_on_c, 0, 72, 100
1, 135455, Note_off_c, 0, 72, 100
1, 135455, Note_on_c, 0, 72, 100
1, 135551, Note_off_c, 0, 72, 100
1, 135551, Note_on_c, 0, 69, 100
1, 135647, Note_off_c, 0, 69, 100
1, 135647, Note_on_c, 0, 72, 100
1, 135743, Note_off_c, 0, 72, 100
1, 135743, Note_on_c, 0, 63, 100
1, 135839, Note_off_c, 0, 63, 100
1, 135839, Note_on_c, 0, 68, 100
1, 135935, Note_off_c, 0, 68, 100
1, 135935, Note_on_c, 0, 72, 100
1, 136079, Note_off_c, 0, 72, 100
1, 136079, Note_on_c, 0, 60, 100
1, 136271, Note_off_c, 0, 60, 100
1, 136607, Note_on_c, 0, 61, 100
1, 136703, Note_off_c, 0, 61, 100
1, 136703, Note_on_c, 0, 66, 100
1, 136799, Note_off_c, 0, 66, 100
1, 136799, Note_on_c, 0, 70, 100
1, 136895, Note_off_c, 0, 70, 100
1, 136895, Note_on_c, 0, 73, 100
1, 136991, Note_off_c, 0, 73, 100
1, 137471, Note_on_c, 0, 73, 100
1, 137567, Note_off_c, 0, 73, 100
1, 137567, Note_on_c, 0, 72, 100
1, 137615, Note_off_c, 0, 72, 100
1, 137615, Note_on_c, 0, 71, 100
1, 137663, Note_off_c, 0, 71, 100
1, 137663, Note_on_c, 0, 70, 100
1, 137855, Note_off_c, 0, 70, 100
1, 138239, Note_on_c, 0, 73, 100
1, 138335, Note_off_c, 0, 73, 100
1, 138335, Note_on_c, 0, 71, 100
1, 138431, Note_off_c, 0, 71, 100
1, 138431, Note_on_c, 0, 69, 100
1, 138527, Note_off_c, 0, 69, 100
1, 138527, Note_on_c, 0, 68, 100
1, 138623, Note_off_c, 0, 68, 100
1, 138623, Note_on_c, 0, 67, 100
1, 138719, Note_off_c, 0, 67, 100
1, 138719, Note_on_c, 0, 71, 100
1, 138815, Note_off_c, 0, 71, 100
1, 138815, Note_on_c, 0, 64, 100
1, 138911, Note_off_c, 0, 64, 100
1, 138911, Note_on_c, 0, 67, 100
1, 139007, Note_off_c, 0, 67, 100
1, 139007, Note_on_c, 0, 71, 100
1, 139103, Note_off_c, 0, 71, 100
1, 139103, Note_on_c, 0, 69, 100
1, 139199, Note_off_c, 0, 69, 100
1, 139199, Note_on_c, 0, 66, 100
1, 139295, Note_off_c, 0, 66, 100
1, 139295, Note_on_c, 0, 71, 100
1, 139391, Note_off_c, 0, 71, 100
1, 139391, Note_on_c, 0, 70, 100
1, 139727, Note_off_c, 0, 70, 100
1, 139727, Note_on_c, 0, 66, 100
1, 139775, Note_off_c, 0, 66, 100
1, 139775, Note_on_c, 0, 65, 100
1, 139871, Note_off_c, 0, 65, 100
1, 139871, Note_on_c, 0, 63, 100
1, 139967, Note_off_c, 0, 63, 100
1, 139967, Note_on_c, 0, 68, 100
1, 140063, Note_off_c, 0, 68, 100
1, 140063, Note_on_c, 0, 66, 100
1, 140159, Note_off_c, 0, 66, 100
1, 140159, Note_on_c, 0, 63, 100
1, 140255, Note_off_c, 0, 63, 100
1, 140255, Note_on_c, 0, 70, 100
1, 140351, Note_off_c, 0, 70, 100
1, 140351, Note_on_c, 0, 65, 100
1, 140447, Note_off_c, 0, 65, 100
1, 140447, Note_on_c, 0, 60, 100
1, 140543, Note_off_c, 0, 60, 100
1, 140543, Note_on_c, 0, 58, 100
1, 140639, Note_off_c, 0, 58, 100
1, 140639, Note_on_c, 0, 53, 100
1, 140735, Note_off_c, 0, 53, 100
1, 140735, Note_on_c, 0, 51, 100
1, 140831, Note_off_c, 0, 51, 100
1, 140831, Note_on_c, 0, 58, 100
1, 140927, Note_off_c, 0, 58, 100
1, 140927, Note_on_c, 0, 56, 100
1, 141023, Note_off_c, 0, 56, 100
1, 141023, Note_on_c, 0, 53, 100
1, 141119, Note_off_c, 0, 53, 100
1, 141119, Note_on_c, 0, 51, 100
1, 141215, Note_off_c, 0, 51, 100
1, 141215, Note_on_c, 0, 53, 100
1, 141311, Note_off_c, 0, 53, 100
1, 141311, Note_on_c, 0, 51, 100
1, 141407, Note_off_c, 0, 51, 100
1, 141407, Note_on_c, 0, 46, 100
1, 141599, Note_off_c, 0, 46, 100
1, 141599, Note_on_c, 0, 46, 100
1, 141695, Note_off_c, 0, 46, 100
1, 141695, Note_on_c, 0, 44, 100
1, 141887, Note_off_c, 0, 44, 100
1, 142271, Note_on_c, 0, 45, 100
1, 142463, Note_off_c, 0, 45, 100
1, 142463, Note_on_c, 0, 46, 100
1, 142847, Note_off_c, 0, 46, 100
1, 142847, Note_on_c, 0, 47, 100
1, 142991, Note_off_c, 0, 47, 100
1, 142991, Note_on_c, 0, 54, 100
1, 143039, Note_off_c, 0, 54, 100
1, 143039, Note_on_c, 0, 50, 100
1, 143135, Note_off_c, 0, 50, 100
1, 143615, Note_on_c, 0, 50, 100
1, 143711, Note_off_c, 0, 50, 100
1, 143711, Note_on_c, 0, 54, 100
1, 143855, Note_off_c, 0, 54, 100
1, 143855, Note_on_c, 0, 57, 100
1, 143951, Note_off_c, 0, 57, 100
1, 143951, Note_on_c, 0, 53, 100
1, 143999, Note_off_c, 0, 53, 100
1, 143999, Note_on_c, 0, 51, 100
1, 144095, Note_off_c, 0, 51, 100
1, 144095, Note_on_c, 0, 55, 100
1, 144191, Note_off_c, 0, 55, 100
1, 144191, Note_on_c, 0, 53, 100
1, 144287, Note_off_c, 0, 53, 100
1, 144575, Note_on_c, 0, 53, 100
1, 144671, Note_off_c, 0, 53, 100
1, 144671, Note_on_c, 0, 52, 100
1, 144767, Note_off_c, 0, 52, 100
1, 144767, Note_on_c, 0, 51, 100
1, 144863, Note_off_c, 0, 51, 100
1, 144863, Note_on_c, 0, 55, 100
1, 144959, Note_off_c, 0, 55, 100
1, 144959, Note_on_c, 0, 50, 100
1, 145055, Note_off_c, 0, 50, 100
1, 145055, Note_on_c, 0, 53, 100
1, 145151, Note_off_c, 0, 53, 100
1, 145151, Note_on_c, 0, 58, 100
1, 145247, Note_off_c, 0, 58, 100
1, 145247, Note_on_c, 0, 53, 100
1, 145343, Note_off_c, 0, 53, 100
1, 145343, Note_on_c, 0, 62, 100
1, 145439, Note_off_c, 0, 62, 100
1, 145775, Note_on_c, 0, 68, 100
1, 145871, Note_off_c, 0, 68, 100
1, 145871, Note_on_c, 0, 63, 100
1, 145967, Note_off_c, 0, 63, 100
1, 145967, Note_on_c, 0, 61, 100
1, 146111, Note_off_c, 0, 61, 100
1, 146111, Note_on_c, 0, 58, 100
1, 146175, Note_off_c, 0, 58, 100
1, 146175, Note_on_c, 0, 65, 100
1, 146239, Note_off_c, 0, 65, 100
1, 146239, Note_on_c, 0, 61, 100
1, 146303, Note_off_c, 0, 61, 100
1, 146303, Note_on_c, 0, 59, 100
1, 146399, Note_off_c, 0, 59, 100
1, 146399, Note_on_c, 0, 58, 100
1, 146495, Note_off_c, 0, 58, 100
1, 146495, Note_on_c, 0, 57, 100
1, 146591, Note_off_c, 0, 57, 100
1, 146591, Note_on_c, 0, 56, 100
1, 146687, Note_off_c, 0, 56, 100
1, 146687, Note_on_c, 0, 55, 100
1, 146783, Note_off_c, 0, 55, 100
1, 146783, Note_on_c, 0, 59, 100
1, 146879, Note_off_c, 0, 59, 100
1, 146879, Note_on_c, 0, 53, 100
1, 146975, Note_off_c, 0, 53, 100
1, 147263, Note_on_c, 0, 67, 100
1, 147359, Note_off_c, 0, 67, 100
1, 147359, Note_on_c, 0, 63, 100
1, 147455, Note_off_c, 0, 63, 100
1, 147647, Note_on_c, 0, 61, 100
1, 147839, Note_off_c, 0, 61, 100
1, 147839, Note_on_c, 0, 61, 100
1, 147935, Note_off_c, 0, 61, 100
1, 147935, Note_on_c, 0, 51, 100
1, 148031, Note_off_c, 0, 51, 100
1, 148031, Note_on_c, 0, 62, 100
1, 148095, Note_off_c, 0, 62, 100
1, 148095, Note_on_c, 0, 62, 100
1, 148159, Note_off_c, 0, 62, 100
1, 148159, Note_on_c, 0, 65, 100
1, 148255, Note_off_c, 0, 65, 100
1, 148895, Note_on_c, 0, 67, 100
1, 149807, Note_off_c, 0, 67, 100
1, 149807, Note_on_c, 0, 63, 100
1, 149903, Note_off_c, 0, 63, 100
1, 149903, Note_on_c, 0, 67, 100
1, 149999, Note_off_c, 0, 67, 100
1, 149999, Note_on_c, 0, 69, 100
1, 150095, Note_off_c, 0, 69, 100
1, 150095, Note_on_c, 0, 71, 100
1, 150191, Note_off_c, 0, 71, 100
1, 150191, Note_on_c, 0, 68, 100
1, 150287, Note_off_c, 0, 68, 100
1, 150287, Note_on_c, 0, 67, 100
1, 150383, Note_off_c, 0, 67, 100
1, 150383, Note_on_c, 0, 69, 100
1, 150479, Note_off_c, 0, 69, 100
1, 150479, Note_on_c, 0, 71, 100
1, 150623, Note_off_c, 0, 71, 100
1, 150623, Note_on_c, 0, 69, 100
1, 150719, Note_off_c, 0, 69, 100
1, 150719, Note_on_c, 0, 67, 100
1, 150815, Note_off_c, 0, 67, 100
1, 150815, Note_on_c, 0, 69, 100
1, 150863, Note_off_c, 0, 69, 100
1, 150863, Note_on_c, 0, 71, 100
1, 151199, Note_off_c, 0, 71, 100
1, 151199, Note_on_c, 0, 62, 100
1, 151295, Note_off_c, 0, 62, 100
1, 151295, Note_on_c, 0, 67, 100
1, 151359, Note_off_c, 0, 67, 100
1, 151359, Note_on_c, 0, 69, 100
1, 151423, Note_off_c, 0, 69, 100
1, 151423, Note_on_c, 0, 71, 100
1, 151583, Note_off_c, 0, 71, 100
1, 151583, Note_on_c, 0, 68, 100
1, 151679, Note_off_c, 0, 68, 100
1, 151679, Note_on_c, 0, 67, 100
1, 151775, Note_off_c, 0, 67, 100
1, 151775, Note_on_c, 0, 69, 100
1, 151871, Note_off_c, 0, 69, 100
1, 151871, Note_on_c, 0, 71, 100
1, 151967, Note_off_c, 0, 71, 100
1, 151967, Note_on_c, 0, 68, 100
1, 152063, Note_off_c, 0, 68, 100
1, 152063, Note_on_c, 0, 67, 100
1, 152159, Note_off_c, 0, 67, 100
1, 152159, Note_on_c, 0, 69, 100
1, 152255, Note_off_c, 0, 69, 100
1, 152255, Note_on_c, 0, 71, 100
1, 152351, Note_off_c, 0, 71, 100
1, 152351, Note_on_c, 0, 68, 100
1, 152447, Note_off_c, 0, 68, 100
1, 152447, Note_on_c, 0, 67, 100
1, 152543, Note_off_c, 0, 67, 100
1, 152543, Note_on_c, 0, 69, 100
1, 152639, Note_off_c, 0, 69, 100
1, 152639, Note_on_c, 0, 71, 100
1, 152735, Note_off_c, 0, 71, 100
1, 152735, Note_on_c, 0, 68, 100
1, 152831, Note_off_c, 0, 68, 100
1, 152831, Note_on_c, 0, 67, 100
1, 153215, Note_off_c, 0, 67, 100
1, 153215, Note_on_c, 0, 65, 100
1, 153311, Note_off_c, 0, 65, 100
1, 153311, Note_on_c, 0, 63, 100
1, 153407, Note_off_c, 0, 63, 100
1, 154559, Note_on_c, 0, 71, 100
1, 155519, Note_off_c, 0, 71, 100
1, 155519, Note_on_c, 0, 74, 100
1, 155615, Note_off_c, 0, 74, 100
1, 155615, Note_on_c, 0, 74, 100
1, 155663, Note_off_c, 0, 74, 100
1, 155663, Note_on_c, 0, 71, 100
1, 155855, Note_off_c, 0, 71, 100
1, 155855, Note_on_c, 0, 74, 100
1, 155951, Note_off_c, 0, 74, 100
1, 155951, Note_on_c, 0, 74, 100
1, 156047, Note_off_c, 0, 74, 100
1, 156047, Note_on_c, 0, 69, 100
1, 156335, Note_off_c, 0, 69, 100
1, 156863, Note_on_c, 0, 71, 100
1, 156959, Note_off_c, 0, 71, 100
1, 156959, Note_on_c, 0, 74, 100
1, 157487, Note_off_c, 0, 74, 100
1, 157487, Note_on_c, 0, 70, 100
1, 157535, Note_off_c, 0, 70, 100
1, 157535, Note_on_c, 0, 71, 100
1, 157583, Note_off_c, 0, 71, 100
1, 157583, Note_on_c, 0, 74, 100
1, 157823, Note_off_c, 0, 74, 100
1, 157823, Note_on_c, 0, 71, 100
1, 157919, Note_off_c, 0, 71, 100
1, 157919, Note_on_c, 0, 74, 100
1, 158015, Note_off_c, 0, 74, 100
1, 158015, Note_on_c, 0, 73, 100
1, 158207, Note_off_c, 0, 73, 100
1, 158207, Note_on_c, 0, 71, 100
1, 158303, Note_off_c, 0, 71, 100
1, 158303, Note_on_c, 0, 73, 100
1, 158399, Note_off_c, 0, 73, 100
1, 158399, Note_on_c, 0, 71, 100
1, 158495, Note_off_c, 0, 71, 100
1, 158495, Note_on_c, 0, 68, 100
1, 158591, Note_off_c, 0, 68, 100
1, 158591, Note_on_c, 0, 66, 100
1, 158719, Note_off_c, 0, 66, 100
1, 158719, Note_on_c, 0, 71, 100
1, 158783, Note_off_c, 0, 71, 100
1, 158783, Note_on_c, 0, 68, 100
1, 159023, Note_off_c, 0, 68, 100
1, 159023, Note_on_c, 0, 65, 100
1, 159119, Note_off_c, 0, 65, 100
1, 159119, Note_on_c, 0, 68, 100
1, 159215, Note_off_c, 0, 68, 100
1, 159215, Note_on_c, 0, 65, 100
1, 159311, Note_off_c, 0, 65, 100
1, 159311, Note_on_c, 0, 63, 100
1, 159359, Note_off_c, 0, 63, 100
1, 159359, Note_on_c, 0, 61, 100
1, 159455, Note_off_c, 0, 61, 100
1, 159615, Note_on_c, 0, 65, 100
1, 159679, Note_off_c, 0, 65, 100
1, 159679, Note_on_c, 0, 61, 100
1, 159791, Note_off_c, 0, 61, 100
1, 159791, Note_on_c, 0, 59, 100
1, 159887, Note_off_c, 0, 59, 100
1, 159887, Note_on_c, 0, 55, 100
1, 159999, Note_off_c, 0, 55, 100
1, 159999, Note_on_c, 0, 53, 100
1, 160063, Note_off_c, 0, 53, 100
1, 160063, Note_on_c, 0, 59, 100
1, 160127, Note_off_c, 0, 59, 100
1, 160127, Note_on_c, 0, 57, 100
1, 160223, Note_off_c, 0, 57, 100
1, 160223, Note_on_c, 0, 53, 100
1, 160415, Note_off_c, 0, 53, 100
1, 160415, Note_on_c, 0, 53, 100
1, 160511, Note_off_c, 0, 53, 100
1, 160511, Note_on_c, 0, 50, 100
1, 160607, Note_off_c, 0, 50, 100
1, 161087, Note_on_c, 0, 80, 100
1, 161343, Note_off_c, 0, 80, 100
1, 161343, Note_on_c, 0, 80, 100
1, 161471, Note_off_c, 0, 80, 100
1, 161471, Note_on_c, 0, 72, 100
1, 161759, Note_off_c, 0, 72, 100
1, 161759, Note_on_c, 0, 68, 100
1, 161903, Note_off_c, 0, 68, 100
1, 161903, Note_on_c, 0, 72, 100
1, 161999, Note_off_c, 0, 72, 100
1, 161999, Note_on_c, 0, 70, 100
1, 162111, Note_off_c, 0, 70, 100
1, 162111, Note_on_c, 0, 65, 100
1, 162175, Note_off_c, 0, 65, 100
1, 162175, Note_on_c, 0, 62, 100
1, 162303, Note_off_c, 0, 62, 100
1, 162303, Note_on_c, 0, 58, 100
1, 162367, Note_off_c, 0, 58, 100
1, 162367, Note_on_c, 0, 64, 100
1, 162463, Note_off_c, 0, 64, 100
1, 162767, Note_on_c, 0, 67, 100
1, 162911, Note_off_c, 0, 67, 100
1, 162911, Note_on_c, 0, 64, 100
1, 163007, Note_off_c, 0, 64, 100
1, 163007, Note_on_c, 0, 60, 100
1, 163151, Note_off_c, 0, 60, 100
1, 163151, Note_on_c, 0, 56, 100
1, 163199, Note_off_c, 0, 56, 100
1, 163199, Note_on_c, 0, 58, 100
1, 163247, Note_off_c, 0, 58, 100
1, 163247, Note_on_c, 0, 60, 100
1, 163343, Note_off_c, 0, 60, 100
1, 163343, Note_on_c, 0, 58, 100
1, 163487, Note_off_c, 0, 58, 100
1, 163487, Note_on_c, 0, 52, 100
1, 163583, Note_off_c, 0, 52, 100
1, 163583, Note_on_c, 0, 50, 100
1, 163679, Note_off_c, 0, 50, 100
1, 163679, Note_on_c, 0, 55, 100
1, 163727, Note_off_c, 0, 55, 100
1, 163727, Note_on_c, 0, 52, 100
1, 163871, Note_off_c, 0, 52, 100
1, 163871, Note_on_c, 0, 46, 100
1, 164063, Note_off_c, 0, 46, 100
1, 164399, Note_on_c, 0, 46, 100
1, 164495, Note_off_c, 0, 46, 100
1, 164495, Note_on_c, 0, 53, 100
1, 164591, Note_off_c, 0, 53, 100
1, 164591, Note_on_c, 0, 58, 100
1, 164687, Note_off_c, 0, 58, 100
1, 164687, Note_on_c, 0, 58, 100
1, 164735, Note_off_c, 0, 58, 100
1, 164735, Note_on_c, 0, 60, 100
1, 164831, Note_off_c, 0, 60, 100
1, 165119, Note_on_c, 0, 48, 100
1, 165215, Note_off_c, 0, 48, 100
1, 165215, Note_on_c, 0, 53, 100
1, 165407, Note_off_c, 0, 53, 100
1, 165407, Note_on_c, 0, 58, 100
1, 165503, Note_off_c, 0, 58, 100
1, 165503, Note_on_c, 0, 52, 100
1, 165599, Note_off_c, 0, 52, 100
1, 165599, Note_on_c, 0, 53, 100
1, 165695, Note_off_c, 0, 53, 100
1, 165695, Note_on_c, 0, 57, 100
1, 165823, Note_off_c, 0, 57, 100
1, 165823, Note_on_c, 0, 60, 100
1, 165935, Note_off_c, 0, 60, 100
1, 165935, Note_on_c, 0, 58, 100
1, 166031, Note_off_c, 0, 58, 100
1, 166319, Note_on_c, 0, 70, 100
1, 166415, Note_off_c, 0, 70, 100
1, 166415, Note_on_c, 0, 66, 100
1, 166463, Note_off_c, 0, 66, 100
1, 166463, Note_on_c, 0, 63, 100
1, 166655, Note_off_c, 0, 63, 100
1, 166655, Note_on_c, 0, 65, 100
1, 166751, Note_off_c, 0, 65, 100
1, 166751, Note_on_c, 0, 63, 100
1, 166847, Note_off_c, 0, 63, 100
1, 166847, Note_on_c, 0, 58, 100
1, 166943, Note_off_c, 0, 58, 100
1, 166943, Note_on_c, 0, 65, 100
1, 167039, Note_off_c, 0, 65, 100
1, 167039, Note_on_c, 0, 62, 100
1, 167135, Note_off_c, 0, 62, 100
1, 167135, Note_on_c, 0, 65, 100
1, 167231, Note_off_c, 0, 65, 100
1, 167615, Note_on_c, 0, 50, 100
1, 167711, Note_off_c, 0, 50, 100
1, 167711, Note_on_c, 0, 53, 100
1, 167855, Note_off_c, 0, 53, 100
1, 167855, Note_on_c, 0, 57, 100
1, 167951, Note_off_c, 0, 57, 100
1, 167951, Note_on_c, 0, 62, 100
1, 168063, Note_off_c, 0, 62, 100
1, 168063, Note_on_c, 0, 59, 100
1, 168255, Note_off_c, 0, 59, 100
1, 168255, Note_on_c, 0, 57, 100
1, 168447, Note_off_c, 0, 57, 100
1, 168623, Note_on_c, 0, 68, 100
1, 168719, Note_off_c, 0, 68, 100
1, 168719, Note_on_c, 0, 70, 100
1, 168767, Note_off_c, 0, 70, 100
1, 168767, Note_on_c, 0, 68, 100
1, 168959, Note_off_c, 0, 68, 100
1, 168959, Note_on_c, 0, 65, 100
1, 169007, Note_off_c, 0, 65, 100
1, 169007, Note_on_c, 0, 68, 100
1, 169103, Note_off_c, 0, 68, 100
1, 169103, Note_on_c, 0, 65, 100
1, 169215, Note_off_c, 0, 65, 100
1, 169215, Note_on_c, 0, 62, 100
1, 169343, Note_off_c, 0, 62, 100
1, 169343, Note_on_c, 0, 65, 100
1, 169679, Note_off_c, 0, 65, 100
1, 169679, Note_on_c, 0, 62, 100
1, 169775, Note_off_c, 0, 62, 100
1, 169775, Note_on_c, 0, 67, 100
1, 169871, Note_off_c, 0, 67, 100
1, 169871, Note_on_c, 0, 65, 100
1, 169983, Note_off_c, 0, 65, 100
1, 169983, Note_on_c, 0, 67, 100
1, 170047, Note_off_c, 0, 67, 100
1, 170047, Note_on_c, 0, 67, 100
1, 170111, Note_off_c, 0, 67, 100
1, 170111, Note_on_c, 0, 65, 100
1, 170159, Note_off_c, 0, 65, 100
1, 170159, Note_on_c, 0, 62, 100
1, 170255, Note_off_c, 0, 62, 100
1, 170255, Note_on_c, 0, 65, 100
1, 170303, Note_off_c, 0, 65, 100
1, 170303, Note_on_c, 0, 64, 100
1, 170399, Note_off_c, 0, 64, 100
1, 170399, Note_on_c, 0, 67, 100
1, 170495, Note_off_c, 0, 67, 100
1, 170495, Note_on_c, 0, 65, 100
1, 170591, Note_off_c, 0, 65, 100
1, 170591, Note_on_c, 0, 67, 100
1, 170687, Note_off_c, 0, 67, 100
1, 170687, Note_on_c, 0, 69, 100
1, 170783, Note_off_c, 0, 69, 100
1, 170783, Note_on_c, 0, 71, 100
1, 170879, Note_off_c, 0, 71, 100
1, 170879, Note_on_c, 0, 73, 100
1, 170975, Note_off_c, 0, 73, 100
1, 170975, Note_on_c, 0, 74, 100
1, 171071, Note_off_c, 0, 74, 100
1, 171071, Note_on_c, 0, 73, 100
1, 171167, Note_off_c, 0, 73, 100
1, 171167, Note_on_c, 0, 71, 100
1, 171263, Note_off_c, 0, 71, 100
1, 171263, Note_on_c, 0, 69, 100
1, 171359, Note_off_c, 0, 69, 100
1, 171359, Note_on_c, 0, 68, 100
1, 171455, Note_off_c, 0, 68, 100
1, 171455, Note_on_c, 0, 67, 100
1, 171599, Note_off_c, 0, 67, 100
1, 171599, Note_on_c, 0, 71, 100
1, 171647, Note_off_c, 0, 71, 100
1, 171647, Note_on_c, 0, 69, 100
1, 171743, Note_off_c, 0, 69, 100
1, 171743, Note_on_c, 0, 65, 100
1, 171839, Note_off_c, 0, 65, 100
1, 171839, Note_on_c, 0, 62, 100
1, 172031, Note_off_c, 0, 62, 100
1, 172031, Note_on_c, 0, 65, 100
1, 172223, Note_off_c, 0, 65, 100
1, 172223, Note_on_c, 0, 67, 100
1, 172319, Note_off_c, 0, 67, 100
1, 172319, Note_on_c, 0, 65, 100
1, 172415, Note_off_c, 0, 65, 100
1, 172415, Note_on_c, 0, 62, 100
1, 172511, Note_off_c, 0, 62, 100
1, 172511, Note_on_c, 0, 65, 100
1, 172607, Note_off_c, 0, 65, 100
1, 172607, Note_on_c, 0, 62, 100
1, 172703, Note_off_c, 0, 62, 100
1, 172703, Note_on_c, 0, 59, 100
1, 172895, Note_off_c, 0, 59, 100
1, 172895, Note_on_c, 0, 59, 100
1, 172991, Note_off_c, 0, 59, 100
1, 172991, Note_on_c, 0, 57, 100
1, 173087, Note_off_c, 0, 57, 100
1, 173087, Note_on_c, 0, 53, 100
1, 173183, Note_off_c, 0, 53, 100
1, 173183, Note_on_c, 0, 57, 100
1, 173279, Note_off_c, 0, 57, 100
1, 173279, Note_on_c, 0, 62, 100
1, 173375, Note_off_c, 0, 62, 100
1, 174047, Note_on_c, 0, 69, 100
1, 174623, Note_off_c, 0, 69, 100
1, 174623, Note_on_c, 0, 65, 100
1, 174719, Note_off_c, 0, 65, 100
1, 174719, Note_on_c, 0, 69, 100
1, 174815, Note_off_c, 0, 69, 100
1, 174815, Note_on_c, 0, 65, 100
1, 174911, Note_off_c, 0, 65, 100
1, 174911, Note_on_c, 0, 62, 100
1, 175103, Note_off_c, 0, 62, 100
1, 175103, Note_on_c, 0, 65, 100
1, 175295, Note_off_c, 0, 65, 100
1, 175295, Note_on_c, 0, 62, 100
1, 175391, Note_off_c, 0, 62, 100
1, 175391, Note_on_c, 0, 69, 100
1, 175583, Note_off_c, 0, 69, 100
1, 175919, Note_on_c, 0, 69, 100
1, 176159, Note_off_c, 0, 69, 100
1, 176159, Note_on_c, 0, 62, 100
1, 176207, Note_off_c, 0, 62, 100
1, 176207, Note_on_c, 0, 69, 100
1, 176447, Note_off_c, 0, 69, 100
1, 176447, Note_on_c, 0, 71, 100
1, 176575, Note_off_c, 0, 71, 100
1, 176575, Note_on_c, 0, 62, 100
1, 176639, Note_off_c, 0, 62, 100
1, 176639, Note_on_c, 0, 69, 100
1, 176831, Note_off_c, 0, 69, 100
1, 176831, Note_on_c, 0, 71, 100
1, 176975, Note_off_c, 0, 71, 100
1, 176975, Note_on_c, 0, 62, 100
1, 177023, Note_off_c, 0, 62, 100
1, 177023, Note_on_c, 0, 69, 100
1, 177215, Note_off_c, 0, 69, 100
1, 177215, Note_on_c, 0, 71, 100
1, 177311, Note_off_c, 0, 71, 100
1, 177311, Note_on_c, 0, 62, 100
1, 177407, Note_off_c, 0, 62, 100
1, 177407, Note_on_c, 0, 62, 100
1, 177503, Note_off_c, 0, 62, 100
1, 177983, Note_on_c, 0, 69, 100
1, 178079, Note_off_c, 0, 69, 100
1, 178079, Note_on_c, 0, 71, 100
1, 178175, Note_off_c, 0, 71, 100
1, 178175, Note_on_c, 0, 74, 100
1, 178271, Note_off_c, 0, 74, 100
1, 178559, Note_on_c, 0, 69, 100
1, 178655, Note_off_c, 0, 69, 100
1, 178655, Note_on_c, 0, 71, 100
1, 178751, Note_off_c, 0, 71, 100
1, 178751, Note_on_c, 0, 75, 100
1, 178847, Note_off_c, 0, 75, 100
1, 179327, Note_on_c, 0, 69, 100
1, 179519, Note_off_c, 0, 69, 100
1, 179519, Note_on_c, 0, 71, 100
1, 179647, Note_off_c, 0, 71, 100
1, 179647, Note_on_c, 0, 74, 100
1, 179807, Note_off_c, 0, 74, 100
1, 179807, Note_on_c, 0, 74, 100
1, 179903, Note_off_c, 0, 74, 100
1, 179903, Note_on_c, 0, 79, 100
1, 180095, Note_off_c, 0, 79, 100
1, 180095, Note_on_c, 0, 77, 100
1, 180383, Note_off_c, 0, 77, 100
1, 180383, Note_on_c, 0, 74, 100
1, 180479, Note_off_c, 0, 74, 100
1, 180479, Note_on_c, 0, 69, 100
1, 180623, Note_off_c, 0, 69, 100
1, 180623, Note_on_c, 0, 65, 100
1, 180719, Note_off_c, 0, 65, 100
1, 181103, Note_on_c, 0, 65, 100
1, 181199, Note_off_c, 0, 65, 100
1, 181199, Note_on_c, 0, 69, 100
1, 181295, Note_off_c, 0, 69, 100
1, 181295, Note_on_c, 0, 74, 100
1, 181583, Note_off_c, 0, 74, 100
1, 181583, Note_on_c, 0, 71, 100
1, 181679, Note_off_c, 0, 71, 100
1, 181679, Note_on_c, 0, 69, 100
1, 181775, Note_off_c, 0, 69, 100
1, 181775, Note_on_c, 0, 65, 100
1, 181823, Note_off_c, 0, 65, 100
1, 181823, Note_on_c, 0, 62, 100
1, 181919, Note_off_c, 0, 62, 100
1, 181919, Note_on_c, 0, 59, 100
1, 182015, Note_off_c, 0, 59, 100
1, 182015, Note_on_c, 0, 65, 100
1, 182111, Note_off_c, 0, 65, 100
1, 182111, Note_on_c, 0, 62, 100
1, 182207, Note_off_c, 0, 62, 100
1, 182207, Note_on_c, 0, 59, 100
1, 182303, Note_off_c, 0, 59, 100
1, 182303, Note_on_c, 0, 57, 100
1, 182399, Note_off_c, 0, 57, 100
1, 182399, Note_on_c, 0, 53, 100
1, 182591, Note_off_c, 0, 53, 100
1, 182591, Note_on_c, 0, 57, 100
1, 182687, Note_off_c, 0, 57, 100
1, 182687, Note_on_c, 0, 45, 100
1, 182879, Note_off_c, 0, 45, 100
1, 183359, Note_on_c, 0, 45, 100
1, 183503, Note_off_c, 0, 45, 100
1, 183503, Note_on_c, 0, 50, 100
1, 183615, Note_off_c, 0, 50, 100
1, 183615, Note_on_c, 0, 45, 100
1, 183711, Note_off_c, 0, 45, 100
1, 184175, Note_on_c, 0, 47, 100
1, 184271, Note_off_c, 0, 47, 100
1, 184271, Note_on_c, 0, 54, 100
1, 184415, Note_off_c, 0, 54, 100
1, 184415, Note_on_c, 0, 49, 100
1, 184703, Note_off_c, 0, 49, 100
1, 184703, Note_on_c, 0, 57, 100
1, 184751, Note_off_c, 0, 57, 100
1, 184751, Note_on_c, 0, 48, 100
1, 184847, Note_off_c, 0, 48, 100
1, 184847, Note_on_c, 0, 53, 100
1, 184943, Note_off_c, 0, 53, 100
1, 184943, Note_on_c, 0, 57, 100
1, 185039, Note_off_c, 0, 57, 100
1, 185039, Note_on_c, 0, 62, 100
1, 185087, Note_off_c, 0, 62, 100
1, 185087, Note_on_c, 0, 59, 100
1, 185183, Note_off_c, 0, 59, 100
1, 185663, Note_on_c, 0, 51, 100
1, 185855, Note_off_c, 0, 51, 100
1, 185855, Note_on_c, 0, 58, 100
1, 185951, Note_off_c, 0, 58, 100
1, 186287, Note_on_c, 0, 53, 100
1, 186383, Note_off_c, 0, 53, 100
1, 186383, Note_on_c, 0, 54, 100
1, 186479, Note_off_c, 0, 54, 100
1, 186687, Note_on_c, 0, 61, 100
1, 186911, Note_off_c, 0, 61, 100
1, 186911, Note_on_c, 0, 52, 100
1, 187007, Note_off_c, 0, 52, 100
1, 187247, Note_on_c, 0, 51, 100
1, 187343, Note_off_c, 0, 51, 100
1, 187343, Note_on_c, 0, 58, 100
1, 187455, Note_off_c, 0, 58, 100
1, 187455, Note_on_c, 0, 60, 100
1, 187551, Note_off_c, 0, 60, 100
1, 188159, Note_on_c, 0, 58, 100
1, 188255, Note_off_c, 0, 58, 100
1, 188255, Note_on_c, 0, 55, 100
1, 188351, Note_off_c, 0, 55, 100
1, 188351, Note_on_c, 0, 52, 100
1, 188447, Note_off_c, 0, 52, 100
1, 188447, Note_on_c, 0, 55, 100
1, 188639, Note_off_c, 0, 55, 100
1, 188639, Note_on_c, 0, 52, 100
1, 188783, Note_off_c, 0, 52, 100
1, 188783, Note_on_c, 0, 55, 100
1, 188879, Note_off_c, 0, 55, 100
1, 189119, Note_on_c, 0, 51, 100
1, 189215, Note_off_c, 0, 51, 100
1, 189215, Note_on_c, 0, 53, 100
1, 189311, Note_off_c, 0, 53, 100
1, 189311, Note_on_c, 0, 57, 100
1, 189407, Note_off_c, 0, 57, 100
1, 189407, Note_on_c, 0, 63, 100
1, 189503, Note_off_c, 0, 63, 100
1, 189503, Note_on_c, 0, 58, 100
1, 189647, Note_off_c, 0, 58, 100
1, 189647, Note_on_c, 0, 66, 100
1, 189695, Note_off_c, 0, 66, 100
1, 189695, Note_on_c, 0, 70, 100
1, 189791, Note_off_c, 0, 70, 100
1, 189791, Note_on_c, 0, 66, 100
1, 189887, Note_off_c, 0, 66, 100
1, 189887, Note_on_c, 0, 63, 100
1, 189983, Note_off_c, 0, 63, 100
1, 189983, Note_on_c, 0, 58, 100
1, 190079, Note_off_c, 0, 58, 100
1, 190079, Note_on_c, 0, 44, 100
1, 190271, Note_off_c, 0, 44, 100
1, 190271, Note_on_c, 0, 46, 100
1, 190367, Note_off_c, 0, 46, 100
1, 190367, Note_on_c, 0, 44, 100
1, 190559, Note_off_c, 0, 44, 100
1, 191231, Note_on_c, 0, 70, 100
1, 191327, Note_off_c, 0, 70, 100
1, 191327, Note_on_c, 0, 66, 100
1, 191423, Note_off_c, 0, 66, 100
1, 191423, Note_on_c, 0, 63, 100
1, 191519, Note_off_c, 0, 63, 100
1, 191519, Note_on_c, 0, 58, 100
1, 191615, Note_off_c, 0, 58, 100
1, 191615, Note_on_c, 0, 45, 100
1, 191807, Note_off_c, 0, 45, 100
1, 191807, Note_on_c, 0, 46, 100
1, 191903, Note_off_c, 0, 46, 100
1, 192479, Note_on_c, 0, 47, 100
1, 192575, Note_off_c, 0, 47, 100
1, 192575, Note_on_c, 0, 54, 100
1, 192767, Note_off_c, 0, 54, 100
1, 192767, Note_on_c, 0, 52, 100
1, 192863, Note_off_c, 0, 52, 100
1, 192863, Note_on_c, 0, 54, 100
1, 192959, Note_off_c, 0, 54, 100
1, 192959, Note_on_c, 0, 55, 100
1, 193055, Note_off_c, 0, 55, 100
1, 193055, Note_on_c, 0, 57, 100
1, 193151, Note_off_c, 0, 57, 100
1, 193151, Note_on_c, 0, 53, 100
1, 193247, Note_off_c, 0, 53, 100
1, 193919, Note_on_c, 0, 53, 100
1, 194015, Note_off_c, 0, 53, 100
1, 194015, Note_on_c, 0, 55, 100
1, 194111, Note_off_c, 0, 55, 100
1, 194111, Note_on_c, 0, 56, 100
1, 194175, Note_off_c, 0, 56, 100
1, 194175, Note_on_c, 0, 59, 100
1, 194239, Note_off_c, 0, 59, 100
1, 194239, Note_on_c, 0, 63, 100
1, 194351, Note_off_c, 0, 63, 100
1, 194351, Note_on_c, 0, 61, 100
1, 194447, Note_off_c, 0, 61, 100
1, 194447, Note_on_c, 0, 56, 100
1, 194687, Note_off_c, 0, 56, 100
1, 194687, Note_on_c, 0, 61, 100
1, 194783, Note_off_c, 0, 61, 100
1, 194783, Note_on_c, 0, 64, 100
1, 194879, Note_off_c, 0, 64, 100
1, 194879, Note_on_c, 0, 59, 100
1, 194975, Note_off_c, 0, 59, 100
1, 194975, Note_on_c, 0, 56, 100
1, 195071, Note_off_c, 0, 56, 100
1, 195071, Note_on_c, 0, 53, 100
1, 195215, Note_off_c, 0, 53, 100
1, 195215, Note_on_c, 0, 55, 100
1, 195263, Note_off_c, 0, 55, 100
1, 195263, Note_on_c, 0, 59, 100
1, 195359, Note_off_c, 0, 59, 100
1, 195359, Note_on_c, 0, 64, 100
1, 195455, Note_off_c, 0, 64, 100
1, 195455, Note_on_c, 0, 59, 100
1, 195551, Note_off_c, 0, 59, 100
1, 195551, Note_on_c, 0, 55, 100
1, 195647, Note_off_c, 0, 55, 100
1, 195647, Note_on_c, 0, 59, 100
1, 195743, Note_off_c, 0, 59, 100
1, 195743, Note_on_c, 0, 62, 100
1, 195839, Note_off_c, 0, 62, 100
1, 195839, Note_on_c, 0, 67, 100
1, 195935, Note_off_c, 0, 67, 100
1, 195935, Note_on_c, 0, 67, 100
1, 196031, Note_off_c, 0, 67, 100
1, 196031, Note_on_c, 0, 69, 100
1, 196127, Note_off_c, 0, 69, 100
1, 196127, Note_on_c, 0, 67, 100
1, 196223, Note_off_c, 0, 67, 100
1, 196223, Note_on_c, 0, 67, 100
1, 196319, Note_off_c, 0, 67, 100
1, 196319, Note_on_c, 0, 69, 100
1, 196463, Note_off_c, 0, 69, 100
1, 196463, Note_on_c, 0, 64, 100
1, 196607, Note_off_c, 0, 64, 100
1, 196607, Note_on_c, 0, 67, 100
1, 196735, Note_off_c, 0, 67, 100
1, 196735, Note_on_c, 0, 65, 100
1, 196799, Note_off_c, 0, 65, 100
1, 196799, Note_on_c, 0, 62, 100
1, 196895, Note_off_c, 0, 62, 100
1, 196895, Note_on_c, 0, 60, 100
1, 196991, Note_off_c, 0, 60, 100
1, 196991, Note_on_c, 0, 59, 100
1, 197087, Note_off_c, 0, 59, 100
1, 197087, Note_on_c, 0, 62, 100
1, 197183, Note_off_c, 0, 62, 100
1, 197183, Note_on_c, 0, 65, 100
1, 197279, Note_off_c, 0, 65, 100
1, 197279, Note_on_c, 0, 68, 100
1, 197375, Note_off_c, 0, 68, 100
1, 197375, Note_on_c, 0, 72, 100
1, 197471, Note_off_c, 0, 72, 100
1, 197471, Note_on_c, 0, 65, 100
1, 197567, Note_off_c, 0, 65, 100
1, 197567, Note_on_c, 0, 69, 100
1, 197663, Note_off_c, 0, 69, 100
1, 197663, Note_on_c, 0, 72, 100
1, 197759, Note_off_c, 0, 72, 100
1, 197759, Note_on_c, 0, 71, 100
1, 197951, Note_off_c, 0, 71, 100
1, 198527, Note_on_c, 0, 71, 100
1, 199583, Note_off_c, 0, 71, 100
1, 199583, Note_on_c, 0, 69, 100
1, 199775, Note_off_c, 0, 69, 100
1, 199775, Note_on_c, 0, 71, 100
1, 199967, Note_off_c, 0, 71, 100
1, 199967, Note_on_c, 0, 69, 100
1, 200063, Note_off_c, 0, 69, 100
1, 200063, Note_on_c, 0, 71, 100
1, 200255, Note_off_c, 0, 71, 100
1, 200255, Note_on_c, 0, 69, 100
1, 200351, Note_off_c, 0, 69, 100
1, 200351, Note_on_c, 0, 71, 100
1, 200447, Note_off_c, 0, 71, 100
1, 200447, Note_on_c, 0, 69, 100
1, 200735, Note_off_c, 0, 69, 100
1, 200735, Note_on_c, 0, 65, 100
1, 200831, Note_off_c, 0, 65, 100
1, 200831, Note_on_c, 0, 69, 100
1, 200927, Note_off_c, 0, 69, 100
1, 200927, Note_on_c, 0, 71, 100
1, 201167, Note_off_c, 0, 71, 100
1, 201167, Note_on_c, 0, 69, 100
1, 201215, Note_off_c, 0, 69, 100
1, 201215, Note_on_c, 0, 71, 100
1, 201311, Note_off_c, 0, 71, 100
1, 201311, Note_on_c, 0, 66, 100
1, 201407, Note_off_c, 0, 66, 100
1, 201407, Note_on_c, 0, 69, 100
1, 201551, Note_off_c, 0, 69, 100
1, 201551, Note_on_c, 0, 71, 100
1, 201599, Note_off_c, 0, 71, 100
1, 201599, Note_on_c, 0, 69, 100
1, 201695, Note_off_c, 0, 69, 100
1, 201695, Note_on_c, 0, 71, 100
1, 201791, Note_off_c, 0, 71, 100
1, 201791, Note_on_c, 0, 74, 100
1, 201887, Note_off_c, 0, 74, 100
1, 201887, Note_on_c, 0, 71, 100
1, 201983, Note_off_c, 0, 71, 100
1, 201983, Note_on_c, 0, 69, 100
1, 202079, Note_off_c, 0, 69, 100
1, 202079, Note_on_c, 0, 65, 100
1, 202175, Note_off_c, 0, 65, 100
1, 202175, Note_on_c, 0, 62, 100
1, 202303, Note_off_c, 0, 62, 100
1, 202303, Note_on_c, 0, 58, 100
1, 202367, Note_off_c, 0, 58, 100
1, 202367, Note_on_c, 0, 65, 100
1, 202751, Note_off_c, 0, 65, 100
1, 202751, Note_on_c, 0, 69, 100
1, 202847, Note_off_c, 0, 69, 100
1, 202847, Note_on_c, 0, 62, 100
1, 202943, Note_off_c, 0, 62, 100
1, 203423, Note_on_c, 0, 71, 100
1, 203807, Note_off_c, 0, 71, 100
1, 203807, Note_on_c, 0, 67, 100
1, 203903, Note_off_c, 0, 67, 100
1, 203903, Note_on_c, 0, 71, 100
1, 203999, Note_off_c, 0, 71, 100
1, 203999, Note_on_c, 0, 74, 100
1, 204191, Note_off_c, 0, 74, 100
1, 204191, Note_on_c, 0, 79, 100
1, 205055, Note_off_c, 0, 79, 100
1, 205055, Note_on_c, 0, 67, 100
1, 205247, Note_off_c, 0, 67, 100
1, 205247, Note_on_c, 0, 65, 100
1, 205439, Note_off_c, 0, 65, 100
1, 206207, Note_on_c, 0, 81, 100
1, 207455, Note_off_c, 0, 81, 100
1, 207455, Note_on_c, 0, 79, 100
1, 208031, Note_off_c, 0, 79, 100
1, 208031, Note_on_c, 0, 76, 100
1, 208127, Note_off_c, 0, 76, 100
1, 208127, Note_on_c, 0, 73, 100
1, 208655, Note_off_c, 0, 73, 100
1, 208655, Note_on_c, 0, 71, 100
1, 208767, Note_off_c, 0, 71, 100
1, 208767, Note_on_c, 0, 73, 100
1, 208895, Note_off_c, 0, 73, 100
1, 208895, Note_on_c, 0, 71, 100
1, 208991, Note_off_c, 0, 71, 100
1, 208991, Note_on_c, 0, 69, 100
1, 209087, Note_off_c, 0, 69, 100
1, 209087, Note_on_c, 0, 65, 100
1, 209183, Note_off_c, 0, 65, 100
1, 209183, Note_on_c, 0, 69, 100
1, 209471, Note_off_c, 0, 69, 100
1, 209471, Note_on_c, 0, 65, 100
1, 209663, Note_off_c, 0, 65, 100
1, 209663, Note_on_c, 0, 62, 100
1, 209855, Note_off_c, 0, 62, 100
1, 209855, Note_on_c, 0, 59, 100
1, 209951, Note_off_c, 0, 59, 100
1, 209951, Note_on_c, 0, 57, 100
1, 210047, Note_off_c, 0, 57, 100
1, 210047, Note_on_c, 0, 44, 100
1, 210239, Note_off_c, 0, 44, 100
1, 210239, Note_on_c, 0, 63, 100
1, 210335, Note_off_c, 0, 63, 100
1, 211103, Note_on_c, 0, 65, 100
1, 211343, Note_off_c, 0, 65, 100
1, 211343, Note_on_c, 0, 70, 100
1, 211455, Note_off_c, 0, 70, 100
1, 211455, Note_on_c, 0, 75, 100
1, 211583, Note_off_c, 0, 75, 100
1, 211583, Note_on_c, 0, 74, 100
1, 211775, Note_off_c, 0, 74, 100
1, 211775, Note_on_c, 0, 75, 100
1, 211871, Note_off_c, 0, 75, 100
1, 211871, Note_on_c, 0, 72, 100
1, 211967, Note_off_c, 0, 72, 100
1, 211967, Note_on_c, 0, 70, 100
1, 212063, Note_off_c, 0, 70, 100
1, 212063, Note_on_c, 0, 66, 100
1, 212159, Note_off_c, 0, 66, 100
1, 212159, Note_on_c, 0, 65, 100
1, 212255, Note_off_c, 0, 65, 100
1, 212255, Note_on_c, 0, 63, 100
1, 212351, Note_off_c, 0, 63, 100
1, 212351, Note_on_c, 0, 68, 100
1, 212447, Note_off_c, 0, 68, 100
1, 212447, Note_on_c, 0, 66, 100
1, 212543, Note_off_c, 0, 66, 100
1, 212543, Note_on_c, 0, 63, 100
1, 212735, Note_off_c, 0, 63, 100
1, 212735, Note_on_c, 0, 65, 100
1, 212879, Note_off_c, 0, 65, 100
1, 212879, Note_on_c, 0, 60, 100
1, 212991, Note_off_c, 0, 60, 100
1, 212991, Note_on_c, 0, 68, 100
1, 213055, Note_off_c, 0, 68, 100
1, 213055, Note_on_c, 0, 63, 100
1, 213167, Note_off_c, 0, 63, 100
1, 213167, Note_on_c, 0, 70, 100
1, 213263, Note_off_c, 0, 70, 100
1, 213263, Note_on_c, 0, 66, 100
1, 213311, Note_off_c, 0, 66, 100
1, 213311, Note_on_c, 0, 46, 100
1, 213503, Note_off_c, 0, 46, 100
1, 213503, Note_on_c, 0, 65, 100
1, 213541, Note_off_c, 0, 65, 100
1, 213541, Note_on_c, 0, 62, 100
1, 213617, Note_off_c, 0, 62, 100
1, 213617, Note_on_c, 0, 61, 100
1, 213693, Note_off_c, 0, 61, 100
1, 213693, Note_on_c, 0, 65, 100
1, 213789, Note_off_c, 0, 65, 100
1, 213789, Note_on_c, 0, 64, 100
1, 213885, Note_off_c, 0, 64, 100
1, 213885, Note_on_c, 0, 69, 100
1, 213981, Note_off_c, 0, 69, 100
1, 213981, Note_on_c, 0, 68, 100
1, 214077, Note_off_c, 0, 68, 100
1, 214077, Note_on_c, 0, 64, 100
1, 214173, Note_off_c, 0, 64, 100
1, 214173, Note_on_c, 0, 59, 100
1, 214269, Note_off_c, 0, 59, 100
1, 214269, Note_on_c, 0, 58, 100
1, 214365, Note_off_c, 0, 58, 100
1, 214365, Note_on_c, 0, 60, 100
1, 214461, Note_off_c, 0, 60, 100
1, 214461, Note_on_c, 0, 62, 100
1, 214589, Note_off_c, 0, 62, 100
1, 214589, Note_on_c, 0, 67, 100
1, 214653, Note_off_c, 0, 67, 100
1, 214653, Note_on_c, 0, 67, 100
1, 214749, Note_off_c, 0, 67, 100
1, 214749, Note_on_c, 0, 65, 100
1, 214845, Note_off_c, 0, 65, 100
1, 214845, Note_on_c, 0, 69, 100
1, 214941, Note_off_c, 0, 69, 100
1, 214941, Note_on_c, 0, 71, 100
1, 215037, Note_off_c, 0, 71, 100
1, 215037, Note_on_c, 0, 70, 100
1, 215133, Note_off_c, 0, 70, 100
1, 215133, Note_on_c, 0, 66, 100
1, 215277, Note_off_c, 0, 66, 100
1, 215277, Note_on_c, 0, 65, 100
1, 215325, Note_off_c, 0, 65, 100
1, 215325, Note_on_c, 0, 63, 100
1, 215421, Note_off_c, 0, 63, 100
1, 215421, Note_on_c, 0, 68, 100
1, 215517, Note_off_c, 0, 68, 100
1, 215517, Note_on_c, 0, 65, 100
1, 215613, Note_off_c, 0, 65, 100
1, 215613, Note_on_c, 0, 63, 100
1, 215709, Note_off_c, 0, 63, 100
1, 215709, Note_on_c, 0, 58, 100
1, 215805, Note_off_c, 0, 58, 100
1, 215805, Note_on_c, 0, 65, 100
1, 215933, Note_off_c, 0, 65, 100
1, 215933, Note_on_c, 0, 60, 100
1, 215997, Note_off_c, 0, 60, 100
1, 215997, Note_on_c, 0, 58, 100
1, 216125, Note_off_c, 0, 58, 100
1, 216125, Note_on_c, 0, 51, 100
1, 216237, Note_off_c, 0, 51, 100
1, 216237, Note_on_c, 0, 54, 100
1, 216285, Note_off_c, 0, 54, 100
1, 216285, Note_on_c, 0, 57, 100
1, 216381, Note_off_c, 0, 57, 100
1, 217053, Note_on_c, 0, 49, 100
1, 217149, Note_off_c, 0, 49, 100
1, 217149, Note_on_c, 0, 53, 100
1, 217245, Note_off_c, 0, 53, 100
1, 217245, Note_on_c, 0, 58, 100
1, 217341, Note_off_c, 0, 58, 100
1, 217341, Note_on_c, 0, 44, 100
1, 217677, Note_off_c, 0, 44, 100
1, 217677, Note_on_c, 0, 58, 100
1, 217725, Note_off_c, 0, 58, 100
1, 217725, Note_on_c, 0, 48, 100
1, 217821, Note_off_c, 0, 48, 100
1, 217821, Note_on_c, 0, 54, 100
1, 217917, Note_off_c, 0, 54, 100
1, 217917, Note_on_c, 0, 58, 100
1, 218013, Note_off_c, 0, 58, 100
1, 218013, Note_on_c, 0, 59, 100
1, 218061, Note_off_c, 0, 59, 100
1, 218061, Note_on_c, 0, 58, 100
1, 218109, Note_off_c, 0, 58, 100
1, 218109, Note_on_c, 0, 50, 100
1, 218205, Note_off_c, 0, 50, 100
1, 218205, Note_on_c, 0, 54, 100
1, 218301, Note_off_c, 0, 54, 100
1, 218301, Note_on_c, 0, 59, 100
1, 218397, Note_off_c, 0, 59, 100
1, 218397, Note_on_c, 0, 62, 100
1, 218493, Note_off_c, 0, 62, 100
1, 218493, Note_on_c, 0, 59, 100
1, 218589, Note_off_c, 0, 59, 100
1, 218589, Note_on_c, 0, 54, 100
1, 218685, Note_off_c, 0, 54, 100
1, 218685, Note_on_c, 0, 68, 100
1, 218781, Note_off_c, 0, 68, 100
1, 218781, Note_on_c, 0, 62, 100
1, 218877, Note_off_c, 0, 62, 100
1, 218877, Note_on_c, 0, 59, 100
1, 218973, Note_off_c, 0, 59, 100
1, 218973, Note_on_c, 0, 55, 100
1, 219117, Note_off_c, 0, 55, 100
1, 219117, Note_on_c, 0, 57, 100
1, 219213, Note_off_c, 0, 57, 100
1, 219213, Note_on_c, 0, 59, 100
1, 219261, Note_off_c, 0, 59, 100
1, 219261, Note_on_c, 0, 49, 100
1, 219357, Note_off_c, 0, 49, 100
1, 219357, Note_on_c, 0, 62, 100
1, 219453, Note_off_c, 0, 62, 100
1, 219453, Note_on_c, 0, 64, 100
1, 219549, Note_off_c, 0, 64, 100
1, 219549, Note_on_c, 0, 67, 100
1, 219741, Note_off_c, 0, 67, 100
1, 219741, Note_on_c, 0, 65, 100
1, 219837, Note_off_c, 0, 65, 100
1, 219837, Note_on_c, 0, 69, 100
1, 219933, Note_off_c, 0, 69, 100
1, 219933, Note_on_c, 0, 71, 100
1, 220029, Note_off_c, 0, 71, 100
1, 220029, Note_on_c, 0, 62, 100
1, 220125, Note_off_c, 0, 62, 100
1, 220125, Note_on_c, 0, 67, 100
1, 220221, Note_off_c, 0, 67, 100
1, 220221, Note_on_c, 0, 71, 100
1, 220317, Note_off_c, 0, 71, 100
1, 220317, Note_on_c, 0, 75, 100
1, 220413, Note_off_c, 0, 75, 100
1, 220413, Note_on_c, 0, 79, 100
1, 220605, Note_off_c, 0, 79, 100
1, 220605, Note_on_c, 0, 49, 100
1, 220797, Note_off_c, 0, 49, 100
1, 221949, Note_on_c, 0, 79, 100
1, 223245, Note_off_c, 0, 79, 100
1, 223245, Note_on_c, 0, 83, 100
1, 223389, Note_off_c, 0, 83, 100
1, 223389, Note_on_c, 0, 77, 100
1, 223869, Note_off_c, 0, 77, 100
1, 224509, Note_on_c, 0, 81, 100
1, 224781, Note_off_c, 0, 81, 100
1, 224781, Note_on_c, 0, 77, 100
1, 225261, Note_off_c, 0, 77, 100
1, 225885, Note_on_c, 0, 81, 100
1, 226893, Note_off_c, 0, 81, 100
1, 226893, Note_on_c, 0, 77, 100
1, 227197, Note_off_c, 0, 77, 100
1, 227197, Note_on_c, 0, 79, 100
1, 227373, Note_off_c, 0, 79, 100
1, 227373, Note_on_c, 0, 77, 100
1, 227613, Note_off_c, 0, 77, 100
1, 227613, Note_on_c, 0, 81, 100
1, 227949, Note_off_c, 0, 81, 100
1, 227949, Note_on_c, 0, 74, 100
1, 228045, Note_off_c, 0, 74, 100
1, 228045, Note_on_c, 0, 71, 100
1, 228157, Note_off_c, 0, 71, 100
1, 228157, Note_on_c, 0, 69, 100
1, 228285, Note_off_c, 0, 69, 100
1, 228285, Note_on_c, 0, 65, 100
1, 228381, Note_off_c, 0, 65, 100
1, 229005, Note_on_c, 0, 81, 100
1, 229725, Note_off_c, 0, 81, 100
1, 229725, Note_on_c, 0, 77, 100
1, 229917, Note_off_c, 0, 77, 100
1, 229917, Note_on_c, 0, 74, 100
1, 230205, Note_off_c, 0, 74, 100
1, 230493, Note_on_c, 0, 81, 100
1, 231261, Note_off_c, 0, 81, 100
1, 231261, Note_on_c, 0, 77, 100
1, 231421, Note_off_c, 0, 77, 100
1, 231421, Note_on_c, 0, 79, 100
1, 231485, Note_off_c, 0, 79, 100
1, 231485, Note_on_c, 0, 81, 100
1, 231581, Note_off_c, 0, 81, 100
1, 231837, Note_on_c, 0, 74, 100
1, 231997, Note_off_c, 0, 74, 100
1, 231997, Note_on_c, 0, 71, 100
1, 232317, Note_off_c, 0, 71, 100
1, 232317, Note_on_c, 0, 69, 100
1, 232413, Note_off_c, 0, 69, 100
1, 232413, Note_on_c, 0, 74, 100
1, 232461, Note_off_c, 0, 74, 100
1, 232461, Note_on_c, 0, 73, 100
1, 232605, Note_off_c, 0, 73, 100
1, 232605, Note_on_c, 0, 71, 100
1, 232701, Note_off_c, 0, 71, 100
1, 232701, Note_on_c, 0, 69, 100
1, 232845, Note_off_c, 0, 69, 100
1, 232845, Note_on_c, 0, 67, 100
1, 232989, Note_off_c, 0, 67, 100
1, 232989, Note_on_c, 0, 71, 100
1, 233085, Note_off_c, 0, 71, 100
1, 233085, Note_on_c, 0, 69, 100
1, 233181, Note_off_c, 0, 69, 100
1, 233181, Note_on_c, 0, 65, 100
1, 233277, Note_off_c, 0, 65, 100
1, 233277, Note_on_c, 0, 62, 100
1, 233373, Note_off_c, 0, 62, 100
1, 233373, Note_on_c, 0, 58, 100
1, 233469, Note_off_c, 0, 58, 100
1, 233469, Note_on_c, 0, 65, 100
1, 233565, Note_off_c, 0, 65, 100
1, 233565, Note_on_c, 0, 62, 100
1, 233661, Note_off_c, 0, 62, 100
1, 234237, Note_on_c, 0, 80, 100
1, 235101, Note_off_c, 0, 80, 100
1, 235101, Note_on_c, 0, 78, 100
1, 235389, Note_off_c, 0, 78, 100
1, 235389, Note_on_c, 0, 77, 100
1, 235581, Note_off_c, 0, 77, 100
1, 235581, Note_on_c, 0, 76, 100
1, 235677, Note_off_c, 0, 76, 100
1, 235677, Note_on_c, 0, 75, 100
1, 235773, Note_off_c, 0, 75, 100
1, 235773, Note_on_c, 0, 72, 100
1, 235869, Note_off_c, 0, 72, 100
1, 235869, Note_on_c, 0, 74, 100
1, 235965, Note_off_c, 0, 74, 100
1, 235965, Note_on_c, 0, 68, 100
1, 236061, Note_off_c, 0, 68, 100
1, 236061, Note_on_c, 0, 73, 100
1, 236157, Note_off_c, 0, 73, 100
1, 236157, Note_on_c, 0, 70, 100
1, 236301, Note_off_c, 0, 70, 100
1, 236301, Note_on_c, 0, 66, 100
1, 236413, Note_off_c, 0, 66, 100
1, 236413, Note_on_c, 0, 63, 100
1, 236509, Note_off_c, 0, 63, 100
1, 237181, Note_on_c, 0, 70, 100
1, 237597, Note_off_c, 0, 70, 100
1, 237597, Note_on_c, 0, 63, 100
1, 237693, Note_off_c, 0, 63, 100
1, 237693, Note_on_c, 0, 68, 100
1, 237789, Note_off_c, 0, 68, 100
1, 237789, Note_on_c, 0, 66, 100
1, 237885, Note_off_c, 0, 66, 100
1, 237885, Note_on_c, 0, 63, 100
1, 237981, Note_off_c, 0, 63, 100
1, 237981, Note_on_c, 0, 58, 100
1, 238077, Note_off_c, 0, 58, 100
1, 238077, Note_on_c, 0, 72, 100
1, 238221, Note_off_c, 0, 72, 100
1, 238221, Note_on_c, 0, 60, 100
1, 238269, Note_off_c, 0, 60, 100
1, 238269, Note_on_c, 0, 58, 100
1, 238365, Note_off_c, 0, 58, 100
1, 238365, Note_on_c, 0, 53, 100
1, 238413, Note_off_c, 0, 53, 100
1, 238413, Note_on_c, 0, 51, 100
1, 238557, Note_off_c, 0, 51, 100
1, 238557, Note_on_c, 0, 57, 100
1, 238653, Note_off_c, 0, 57, 100
1, 238653, Note_on_c, 0, 53, 100
1, 238749, Note_off_c, 0, 53, 100
1, 238749, Note_on_c, 0, 46, 100
1, 238909, Note_off_c, 0, 46, 100
1, 238909, Note_on_c, 0, 53, 100
1, 239037, Note_off_c, 0, 53, 100
1, 239037, Note_on_c, 0, 46, 100
1, 239133, Note_off_c, 0, 46, 100
1, 239133, Note_on_c, 0, 44, 100
1, 239613, Note_off_c, 0, 44, 100
1, 239613, Note_on_c, 0, 46, 100
1, 239805, Note_off_c, 0, 46, 100
1, 239805, Note_on_c, 0, 51, 100
1, 239901, Note_off_c, 0, 51, 100
1, 240381, Note_on_c, 0, 46, 100
1, 240509, Note_off_c, 0, 46, 100
1, 240509, Note_on_c, 0, 65, 100
1, 240573, Note_off_c, 0, 65, 100
1, 240573, Note_on_c, 0, 58, 100
1, 240669, Note_off_c, 0, 58, 100
1, 240669, Note_on_c, 0, 63, 100
1, 240765, Note_off_c, 0, 63, 100
1, 240765, Note_on_c, 0, 45, 100
1, 241053, Note_off_c, 0, 45, 100
1, 241629, Note_on_c, 0, 50, 100
1, 241725, Note_off_c, 0, 50, 100
1, 241725, Note_on_c, 0, 53, 100
1, 241821, Note_off_c, 0, 53, 100
1, 241821, Note_on_c, 0, 57, 100
1, 241917, Note_off_c, 0, 57, 100
1, 241917, Note_on_c, 0, 49, 100
1, 242013, Note_off_c, 0, 49, 100
1, 242013, Note_on_c, 0, 51, 100
1, 242157, Note_off_c, 0, 51, 100
1, 242157, Note_on_c, 0, 53, 100
1, 242253, Note_off_c, 0, 53, 100
1, 242253, Note_on_c, 0, 58, 100
1, 242349, Note_off_c, 0, 58, 100
1, 242349, Note_on_c, 0, 49, 100
1, 242493, Note_off_c, 0, 49, 100
1, 242493, Note_on_c, 0, 59, 100
1, 242589, Note_off_c, 0, 59, 100
1, 242589, Note_on_c, 0, 63, 100
1, 242685, Note_off_c, 0, 63, 100
1, 242685, Note_on_c, 0, 58, 100
1, 242781, Note_off_c, 0, 58, 100
1, 242781, Note_on_c, 0, 54, 100
1, 242877, Note_off_c, 0, 54, 100
1, 242877, Note_on_c, 0, 63, 100
1, 242973, Note_off_c, 0, 63, 100
1, 242973, Note_on_c, 0, 69, 100
1, 243165, Note_off_c, 0, 69, 100
1, 243165, Note_on_c, 0, 61, 100
1, 243261, Note_off_c, 0, 61, 100
1, 243261, Note_on_c, 0, 69, 100
1, 243357, Note_off_c, 0, 69, 100
1, 243357, Note_on_c, 0, 66, 100
1, 243453, Note_off_c, 0, 66, 100
1, 243453, Note_on_c, 0, 62, 100
1, 243581, Note_off_c, 0, 62, 100
1, 243581, Note_on_c, 0, 61, 100
1, 243645, Note_off_c, 0, 61, 100
1, 243645, Note_on_c, 0, 56, 100
1, 243741, Note_off_c, 0, 56, 100
1, 243741, Note_on_c, 0, 54, 100
1, 243837, Note_off_c, 0, 54, 100
1, 243837, Note_on_c, 0, 56, 100
1, 243981, Note_off_c, 0, 56, 100
1, 243981, Note_on_c, 0, 57, 100
1, 244029, Note_off_c, 0, 57, 100
1, 244029, Note_on_c, 0, 59, 100
1, 244125, Note_off_c, 0, 59, 100
1, 244125, Note_on_c, 0, 61, 100
1, 244221, Note_off_c, 0, 61, 100
1, 244221, Note_on_c, 0, 63, 100
1, 244317, Note_off_c, 0, 63, 100
1, 244317, Note_on_c, 0, 64, 100
1, 244413, Note_off_c, 0, 64, 100
1, 244413, Note_on_c, 0, 66, 100
1, 244509, Note_off_c, 0, 66, 100
1, 244509, Note_on_c, 0, 67, 100
1, 244557, Note_off_c, 0, 67, 100
1, 244557, Note_on_c, 0, 69, 100
1, 244605, Note_off_c, 0, 69, 100
1, 244605, Note_on_c, 0, 73, 100
1, 244797, Note_off_c, 0, 73, 100
1, 244797, Note_on_c, 0, 74, 100
1, 244893, Note_off_c, 0, 74, 100
1, 244893, Note_on_c, 0, 71, 100
1, 244989, Note_off_c, 0, 71, 100
1, 244989, Note_on_c, 0, 69, 100
1, 245085, Note_off_c, 0, 69, 100
1, 245085, Note_on_c, 0, 66, 100
1, 245181, Note_off_c, 0, 66, 100
1, 245181, Note_on_c, 0, 62, 100
1, 245277, Note_off_c, 0, 62, 100
1, 245277, Note_on_c, 0, 57, 100
1, 245373, Note_off_c, 0, 57, 100
1, 245373, Note_on_c, 0, 65, 100
1, 245469, Note_off_c, 0, 65, 100
1, 245469, Note_on_c, 0, 62, 100
1, 245565, Note_off_c, 0, 62, 100
1, 245565, Note_on_c, 0, 59, 100
1, 245661, Note_off_c, 0, 59, 100
1, 245661, Note_on_c, 0, 53, 100
1, 245757, Note_off_c, 0, 53, 100
1, 246429, Note_on_c, 0, 71, 100
1, 246813, Note_off_c, 0, 71, 100
1, 246813, Note_on_c, 0, 65, 100
1, 246909, Note_off_c, 0, 65, 100
1, 246909, Note_on_c, 0, 71, 100
1, 247005, Note_off_c, 0, 71, 100
1, 247005, Note_on_c, 0, 71, 100
1, 247101, Note_off_c, 0, 71, 100
1, 247101, Note_on_c, 0, 72, 100
1, 247197, Note_off_c, 0, 72, 100
1, 247197, Note_on_c, 0, 73, 100
1, 247293, Note_off_c, 0, 73, 100
1, 247293, Note_on_c, 0, 71, 100
1, 247389, Note_off_c, 0, 71, 100
1, 247389, Note_on_c, 0, 71, 100
1, 247485, Note_off_c, 0, 71, 100
1, 247485, Note_on_c, 0, 72, 100
1, 247581, Note_off_c, 0, 72, 100
1, 247581, Note_on_c, 0, 73, 100
1, 247725, Note_off_c, 0, 73, 100
1, 247725, Note_on_c, 0, 71, 100
1, 247821, Note_off_c, 0, 71, 100
1, 247821, Note_on_c, 0, 71, 100
1, 247917, Note_off_c, 0, 71, 100
1, 247917, Note_on_c, 0, 72, 100
1, 248013, Note_off_c, 0, 72, 100
1, 248013, Note_on_c, 0, 73, 100
1, 248061, Note_off_c, 0, 73, 100
1, 248061, Note_on_c, 0, 71, 100
1, 248157, Note_off_c, 0, 71, 100
1, 248157, Note_on_c, 0, 71, 100
1, 248301, Note_off_c, 0, 71, 100
1, 248301, Note_on_c, 0, 72, 100
1, 248397, Note_off_c, 0, 72, 100
1, 248397, Note_on_c, 0, 53, 100
1, 248445, Note_off_c, 0, 53, 100
1, 248445, Note_on_c, 0, 59, 100
1, 248637, Note_off_c, 0, 59, 100
1, 248637, Note_on_c, 0, 60, 100
1, 248733, Note_off_c, 0, 60, 100
1, 248733, Note_on_c, 0, 53, 100
1, 248829, Note_off_c, 0, 53, 100
1, 248829, Note_on_c, 0, 59, 100
1, 249021, Note_off_c, 0, 59, 100
1, 249021, Note_on_c, 0, 60, 100
1, 249149, Note_off_c, 0, 60, 100
1, 249149, Note_on_c, 0, 53, 100
1, 249213, Note_off_c, 0, 53, 100
1, 249213, Note_on_c, 0, 59, 100
1, 249405, Note_off_c, 0, 59, 100
1, 249405, Note_on_c, 0, 60, 100
1, 249501, Note_off_c, 0, 60, 100
1, 249501, Note_on_c, 0, 72, 100
1, 249597, Note_off_c, 0, 72, 100
1, 249597, Note_on_c, 0, 57, 100
1, 249693, Note_off_c, 0, 57, 100
1, 249693, Note_on_c, 0, 50, 100
1, 249789, Note_off_c, 0, 50, 100
1, 250365, Note_on_c, 0, 72, 100
1, 250461, Note_off_c, 0, 72, 100
1, 250461, Note_on_c, 0, 73, 100
1, 250557, Note_off_c, 0, 73, 100
1, 250557, Note_on_c, 0, 71, 100
1, 250653, Note_off_c, 0, 71, 100
1, 250653, Note_on_c, 0, 72, 100
1, 250749, Note_off_c, 0, 72, 100
1, 250749, Note_on_c, 0, 71, 100
1, 250941, Note_off_c, 0, 71, 100
1, 250941, Note_on_c, 0, 72, 100
1, 251037, Note_off_c, 0, 72, 100
1, 251037, Note_on_c, 0, 73, 100
1, 251133, Note_off_c, 0, 73, 100
1, 251133, Note_on_c, 0, 72, 100
1, 251421, Note_off_c, 0, 72, 100
1, 251421, Note_on_c, 0, 54, 100
1, 251517, Note_off_c, 0, 54, 100
1, 251517, Note_on_c, 0, 53, 100
1, 251709, Note_off_c, 0, 53, 100
1, 251709, Note_on_c, 0, 59, 100
1, 251805, Note_off_c, 0, 59, 100
1, 251805, Note_on_c, 0, 47, 100
1, 251901, Note_off_c, 0, 47, 100
1, 251901, Note_on_c, 0, 54, 100
1, 251997, Note_off_c, 0, 54, 100
1, 251997, Note_on_c, 0, 53, 100
1, 252093, Note_off_c, 0, 53, 100
1, 252093, Note_on_c, 0, 58, 100
1, 252189, Note_off_c, 0, 58, 100
1, 252189, Note_on_c, 0, 48, 100
1, 252285, Note_off_c, 0, 48, 100
1, 252285, Note_on_c, 0, 54, 100
1, 252477, Note_off_c, 0, 54, 100
1, 252477, Note_on_c, 0, 57, 100
1, 252573, Note_off_c, 0, 57, 100
1, 252573, Note_on_c, 0, 46, 100
1, 252669, Note_off_c, 0, 46, 100
1, 252669, Note_on_c, 0, 53, 100
1, 252765, Note_off_c, 0, 53, 100
1, 253245, Note_on_c, 0, 72, 100
1, 253341, Note_off_c, 0, 72, 100
1, 253341, Note_on_c, 0, 73, 100
1, 253437, Note_off_c, 0, 73, 100
1, 253437, Note_on_c, 0, 71, 100
1, 253629, Note_off_c, 0, 71, 100
1, 253629, Note_on_c, 0, 72, 100
1, 253725, Note_off_c, 0, 72, 100
1, 253725, Note_on_c, 0, 54, 100
1, 253821, Note_off_c, 0, 54, 100
1, 253821, Note_on_c, 0, 53, 100
1, 254013, Note_off_c, 0, 53, 100
1, 254013, Note_on_c, 0, 57, 100
1, 254109, Note_off_c, 0, 57, 100
1, 254109, Note_on_c, 0, 47, 100
1, 254205, Note_off_c, 0, 47, 100
1, 254205, Note_on_c, 0, 53, 100
1, 254397, Note_off_c, 0, 53, 100
1, 254397, Note_on_c, 0, 60, 100
1, 254493, Note_off_c, 0, 60, 100
1, 254493, Note_on_c, 0, 61, 100
1, 254589, Note_off_c, 0, 61, 100
1, 254589, Note_on_c, 0, 59, 100
1, 254781, Note_off_c, 0, 59, 100
1, 254781, Note_on_c, 0, 72, 100
1, 254877, Note_off_c, 0, 72, 100
1, 254877, Note_on_c, 0, 73, 100
1, 254973, Note_off_c, 0, 73, 100
1, 254973, Note_on_c, 0, 71, 100
1, 255165, Note_off_c, 0, 71, 100
1, 255165, Note_on_c, 0, 72, 100
1, 255261, Note_off_c, 0, 72, 100
1, 255261, Note_on_c, 0, 47, 100
1, 255357, Note_off_c, 0, 47, 100
1, 255357, Note_on_c, 0, 53, 100
1, 255549, Note_off_c, 0, 53, 100
1, 255549, Note_on_c, 0, 57, 100
1, 255693, Note_off_c, 0, 57, 100
1, 255693, Note_on_c, 0, 46, 100
1, 255741, Note_off_c, 0, 46, 100
1, 255741, Note_on_c, 0, 53, 100
1, 255837, Note_off_c, 0, 53, 100
1, 256317, Note_on_c, 0, 72, 100
1, 256413, Note_off_c, 0, 72, 100
1, 256413, Note_on_c, 0, 73, 100
1, 256509, Note_off_c, 0, 73, 100
1, 256509, Note_on_c, 0, 71, 100
1, 256605, Note_off_c, 0, 71, 100
1, 256605, Note_on_c, 0, 71, 100
1, 256701, Note_off_c, 0, 71, 100
1, 256701, Note_on_c, 0, 72, 100
1, 256797, Note_off_c, 0, 72, 100
1, 256797, Note_on_c, 0, 47, 100
1, 256893, Note_off_c, 0, 47, 100
1, 256893, Note_on_c, 0, 53, 100
1, 257133, Note_off_c, 0, 53, 100
1, 257133, Note_on_c, 0, 57, 100
1, 257229, Note_off_c, 0, 57, 100
1, 257229, Note_on_c, 0, 47, 100
1, 257277, Note_off_c, 0, 47, 100
1, 257277, Note_on_c, 0, 53, 100
1, 257469, Note_off_c, 0, 53, 100
1, 257469, Note_on_c, 0, 60, 100
1, 257565, Note_off_c, 0, 60, 100
1, 257565, Note_on_c, 0, 52, 100
1, 257661, Note_off_c, 0, 52, 100
1, 257661, Note_on_c, 0, 59, 100
1, 257853, Note_off_c, 0, 59, 100
1, 257853, Note_on_c, 0, 72, 100
1, 257949, Note_off_c, 0, 72, 100
1, 257949, Note_on_c, 0, 73, 100
1, 258045, Note_off_c, 0, 73, 100
1, 258045, Note_on_c, 0, 71, 100
1, 258237, Note_off_c, 0, 71, 100
1, 258237, Note_on_c, 0, 72, 100
1, 258333, Note_off_c, 0, 72, 100
1, 258333, Note_on_c, 0, 54, 100
1, 258429, Note_off_c, 0, 54, 100
1, 258429, Note_on_c, 0, 53, 100
1, 258621, Note_off_c, 0, 53, 100
1, 258621, Note_on_c, 0, 57, 100
1, 258717, Note_off_c, 0, 57, 100
1, 258717, Note_on_c, 0, 46, 100
1, 258813, Note_off_c, 0, 46, 100
1, 258813, Note_on_c, 0, 53, 100
1, 258909, Note_off_c, 0, 53, 100
1, 259437, Note_on_c, 0, 73, 100
1, 259533, Note_off_c, 0, 73, 100
1, 259533, Note_on_c, 0, 74, 100
1, 259677, Note_off_c, 0, 74, 100
1, 259677, Note_on_c, 0, 70, 100
1, 259773, Note_off_c, 0, 70, 100
1, 259773, Note_on_c, 0, 72, 100
1, 259917, Note_off_c, 0, 72, 100
1, 259917, Note_on_c, 0, 46, 100
1, 260029, Note_off_c, 0, 46, 100
1, 260029, Note_on_c, 0, 51, 100
1, 260157, Note_off_c, 0, 51, 100
1, 260157, Note_on_c, 0, 54, 100
1, 260301, Note_off_c, 0, 54, 100
1, 260301, Note_on_c, 0, 45, 100
1, 260349, Note_off_c, 0, 45, 100
1, 260349, Note_on_c, 0, 51, 100
1, 260541, Note_off_c, 0, 51, 100
1, 260541, Note_on_c, 0, 73, 100
1, 260637, Note_off_c, 0, 73, 100
1, 260637, Note_on_c, 0, 73, 100
1, 260733, Note_off_c, 0, 73, 100
1, 260733, Note_on_c, 0, 70, 100
1, 260829, Note_off_c, 0, 70, 100
1, 260829, Note_on_c, 0, 70, 100
1, 260925, Note_off_c, 0, 70, 100
1, 260925, Note_on_c, 0, 73, 100
1, 261117, Note_off_c, 0, 73, 100
1, 261117, Note_on_c, 0, 70, 100
1, 261261, Note_off_c, 0, 70, 100
1, 261261, Note_on_c, 0, 73, 100
1, 261357, Note_off_c, 0, 73, 100
1, 261357, Note_on_c, 0, 46, 100
1, 261453, Note_off_c, 0, 46, 100
1, 261453, Note_on_c, 0, 51, 100
1, 261645, Note_off_c, 0, 51, 100
1, 261645, Note_on_c, 0, 54, 100
1, 261789, Note_off_c, 0, 54, 100
1, 261789, Note_on_c, 0, 46, 100
1, 261837, Note_off_c, 0, 46, 100
1, 261837, Note_on_c, 0, 51, 100
1, 261933, Note_off_c, 0, 51, 100
1, 262413, Note_on_c, 0, 73, 100
1, 262557, Note_off_c, 0, 73, 100
1, 262557, Note_on_c, 0, 70, 100
1, 262653, Note_off_c, 0, 70, 100
1, 262653, Note_on_c, 0, 70, 100
1, 262749, Note_off_c, 0, 70, 100
1, 262749, Note_on_c, 0, 73, 100
1, 262893, Note_off_c, 0, 73, 100
1, 262893, Note_on_c, 0, 47, 100
1, 262989, Note_off_c, 0, 47, 100
1, 262989, Note_on_c, 0, 51, 100
1, 263181, Note_off_c, 0, 51, 100
1, 263181, Note_on_c, 0, 54, 100
1, 263325, Note_off_c, 0, 54, 100
1, 263325, Note_on_c, 0, 46, 100
1, 263373, Note_off_c, 0, 46, 100
1, 263373, Note_on_c, 0, 51, 100
1, 263565, Note_off_c, 0, 51, 100
1, 263565, Note_on_c, 0, 73, 100
1, 263805, Note_off_c, 0, 73, 100
1, 263805, Note_on_c, 0, 70, 100
1, 263901, Note_off_c, 0, 70, 100
1, 263901, Note_on_c, 0, 70, 100
1, 263997, Note_off_c, 0, 70, 100
1, 263997, Note_on_c, 0, 73, 100
1, 264093, Note_off_c, 0, 73, 100
1, 264093, Note_on_c, 0, 73, 100
1, 264189, Note_off_c, 0, 73, 100
1, 264189, Note_on_c, 0, 70, 100
1, 264381, Note_off_c, 0, 70, 100
1, 264381, Note_on_c, 0, 73, 100
1, 264429, Note_off_c, 0, 73, 100
1, 264429, Note_on_c, 0, 46, 100
1, 264525, Note_off_c, 0, 46, 100
1, 264525, Note_on_c, 0, 51, 100
1, 264717, Note_off_c, 0, 51, 100
1, 264717, Note_on_c, 0, 54, 100
1, 264861, Note_off_c, 0, 54, 100
1, 264861, Note_on_c, 0, 46, 100
1, 264909, Note_off_c, 0, 46, 100
1, 264909, Note_on_c, 0, 51, 100
1, 265005, Note_off_c, 0, 51, 100
1, 265533, Note_on_c, 0, 72, 100
1, 265629, Note_off_c, 0, 72, 100
1, 265629, Note_on_c, 0, 73, 100
1, 265773, Note_off_c, 0, 73, 100
1, 265773, Note_on_c, 0, 71, 100
1, 265869, Note_off_c, 0, 71, 100
1, 265869, Note_on_c, 0, 71, 100
1, 266013, Note_off_c, 0, 71, 100
1, 266013, Note_on_c, 0, 47, 100
1, 266109, Note_off_c, 0, 47, 100
1, 266109, Note_on_c, 0, 50, 100
1, 266301, Note_off_c, 0, 50, 100
1, 266301, Note_on_c, 0, 54, 100
1, 266397, Note_off_c, 0, 54, 100
1, 266397, Note_on_c, 0, 46, 100
1, 266493, Note_off_c, 0, 46, 100
1, 266493, Note_on_c, 0, 50, 100
1, 266733, Note_off_c, 0, 50, 100
1, 266733, Note_on_c, 0, 61, 100
1, 266829, Note_off_c, 0, 61, 100
1, 266829, Note_on_c, 0, 72, 100
1, 266925, Note_off_c, 0, 72, 100
1, 266925, Note_on_c, 0, 59, 100
1, 267021, Note_off_c, 0, 59, 100
1, 267021, Note_on_c, 0, 71, 100
1, 267117, Note_off_c, 0, 71, 100
1, 267117, Note_on_c, 0, 72, 100
1, 267213, Note_off_c, 0, 72, 100
1, 267213, Note_on_c, 0, 51, 100
1, 267325, Note_off_c, 0, 51, 100
1, 267325, Note_on_c, 0, 59, 100
1, 267597, Note_off_c, 0, 59, 100
1, 267597, Note_on_c, 0, 50, 100
1, 267837, Note_off_c, 0, 50, 100
1, 267837, Note_on_c, 0, 53, 100
1, 267965, Note_off_c, 0, 53, 100
1, 267965, Note_on_c, 0, 47, 100
1, 268029, Note_off_c, 0, 47, 100
1, 268029, Note_on_c, 0, 50, 100
1, 268221, Note_off_c, 0, 50, 100
1, 268557, Note_on_c, 0, 71, 100
1, 268605, Note_off_c, 0, 71, 100
1, 268605, Note_on_c, 0, 72, 100
1, 268701, Note_off_c, 0, 72, 100
1, 268701, Note_on_c, 0, 73, 100
1, 268797, Note_off_c, 0, 73, 100
1, 268797, Note_on_c, 0, 71, 100
1, 268989, Note_off_c, 0, 71, 100
1, 268989, Note_on_c, 0, 72, 100
1, 269085, Note_off_c, 0, 72, 100
1, 269085, Note_on_c, 0, 47, 100
1, 269181, Note_off_c, 0, 47, 100
1, 269181, Note_on_c, 0, 50, 100
1, 269373, Note_off_c, 0, 50, 100
1, 269373, Note_on_c, 0, 53, 100
1, 269469, Note_off_c, 0, 53, 100
1, 269469, Note_on_c, 0, 47, 100
1, 269565, Note_off_c, 0, 47, 100
1, 269565, Note_on_c, 0, 50, 100
1, 269757, Note_off_c, 0, 50, 100
1, 269757, Note_on_c, 0, 71, 100
1, 269853, Note_off_c, 0, 71, 100
1, 269853, Note_on_c, 0, 50, 100
1, 269901, Note_off_c, 0, 50, 100
1, 269901, Note_on_c, 0, 59, 100
1, 270045, Note_off_c, 0, 59, 100
1, 270045, Note_on_c, 0, 71, 100
1, 270141, Note_off_c, 0, 71, 100
1, 270141, Note_on_c, 0, 71, 100
1, 270189, Note_off_c, 0, 71, 100
1, 270189, Note_on_c, 0, 72, 100
1, 270285, Note_off_c, 0, 72, 100
1, 270285, Note_on_c, 0, 71, 100
1, 270573, Note_off_c, 0, 71, 100
1, 270573, Note_on_c, 0, 47, 100
1, 270669, Note_off_c, 0, 47, 100
1, 270669, Note_on_c, 0, 50, 100
1, 270909, Note_off_c, 0, 50, 100
1, 270909, Note_on_c, 0, 54, 100
1, 271005, Note_off_c, 0, 54, 100
1, 271005, Note_on_c, 0, 47, 100
1, 271053, Note_off_c, 0, 47, 100
1, 271053, Note_on_c, 0, 50, 100
1, 271149, Note_off_c, 0, 50, 100
1, 271869, Note_on_c, 0, 72, 100
1, 271965, Note_off_c, 0, 72, 100
1, 271965, Note_on_c, 0, 69, 100
1, 272061, Note_off_c, 0, 69, 100
1, 272061, Note_on_c, 0, 79, 100
1, 272637, Note_off_c, 0, 79, 100
1, 272637, Note_on_c, 0, 77, 100
1, 272733, Note_off_c, 0, 77, 100
1, 272733, Note_on_c, 0, 79, 100
1, 273501, Note_off_c, 0, 79, 100
1, 273501, Note_on_c, 0, 79, 100
1, 273789, Note_off_c, 0, 79, 100
1, 273789, Note_on_c, 0, 79, 100
1, 274125, Note_off_c, 0, 79, 100
1, 274125, Note_on_c, 0, 79, 100
1, 274269, Note_off_c, 0, 79, 100
1, 274269, Note_on_c, 0, 69, 100
1, 274461, Note_off_c, 0, 69, 100
1, 274461, Note_on_c, 0, 67, 100
1, 274557, Note_off_c, 0, 67, 100
1, 275277, Note_on_c, 0, 74, 100
1, 275581, Note_off_c, 0, 74, 100
1, 275581, Note_on_c, 0, 71, 100
1, 275645, Note_off_c, 0, 71, 100
1, 275645, Note_on_c, 0, 70, 100
1, 275709, Note_off_c, 0, 70, 100
1, 275709, Note_on_c, 0, 69, 100
1, 275805, Note_off_c, 0, 69, 100
1, 275805, Note_on_c, 0, 68, 100
1, 275901, Note_off_c, 0, 68, 100
1, 275901, Note_on_c, 0, 67, 100
1, 275997, Note_off_c, 0, 67, 100
1, 275997, Note_on_c, 0, 71, 100
1, 276093, Note_off_c, 0, 71, 100
1, 276093, Note_on_c, 0, 67, 100
1, 276285, Note_off_c, 0, 67, 100
1, 276285, Note_on_c, 0, 63, 100
1, 276381, Note_off_c, 0, 63, 100
1, 276381, Note_on_c, 0, 67, 100
1, 276477, Note_off_c, 0, 67, 100
1, 276477, Note_on_c, 0, 65, 100
1, 276573, Note_off_c, 0, 65, 100
1, 276573, Note_on_c, 0, 63, 100
1, 276621, Note_off_c, 0, 63, 100
1, 276621, Note_on_c, 0, 61, 100
1, 276765, Note_off_c, 0, 61, 100
1, 276765, Note_on_c, 0, 56, 100
1, 276861, Note_off_c, 0, 56, 100
1, 276861, Note_on_c, 0, 63, 100
1, 276957, Note_off_c, 0, 63, 100
1, 276957, Note_on_c, 0, 61, 100
1, 277053, Note_off_c, 0, 61, 100
1, 277053, Note_on_c, 0, 59, 100
1, 277197, Note_off_c, 0, 59, 100
1, 277197, Note_on_c, 0, 56, 100
1, 277245, Note_off_c, 0, 56, 100
1, 277245, Note_on_c, 0, 61, 100
1, 277677, Note_off_c, 0, 61, 100
1, 277677, Note_on_c, 0, 65, 100
1, 277773, Note_off_c, 0, 65, 100
1, 277773, Note_on_c, 0, 62, 100
1, 277917, Note_off_c, 0, 62, 100
1, 277917, Note_on_c, 0, 69, 100
1, 278301, Note_off_c, 0, 69, 100
1, 278589, Note_on_c, 0, 69, 100
1, 279021, Note_off_c, 0, 69, 100
1, 279021, Note_on_c, 0, 67, 100
1, 279117, Note_off_c, 0, 67, 100
1, 279117, Note_on_c, 0, 65, 100
1, 279261, Note_off_c, 0, 65, 100
1, 279261, Note_on_c, 0, 65, 100
1, 279309, Note_off_c, 0, 65, 100
1, 279309, Note_on_c, 0, 62, 100
1, 279405, Note_off_c, 0, 62, 100
1, 279405, Note_on_c, 0, 59, 100
1, 279501, Note_off_c, 0, 59, 100
1, 279501, Note_on_c, 0, 65, 100
1, 279613, Note_off_c, 0, 65, 100
1, 279613, Note_on_c, 0, 62, 100
1, 279709, Note_off_c, 0, 62, 100
1, 280189, Note_on_c, 0, 71, 100
1, 280605, Note_off_c, 0, 71, 100
1, 280605, Note_on_c, 0, 65, 100
1, 280701, Note_off_c, 0, 65, 100
1, 280701, Note_on_c, 0, 71, 100
1, 280845, Note_off_c, 0, 71, 100
1, 280845, Note_on_c, 0, 72, 100
1, 280941, Note_off_c, 0, 72, 100
1, 280941, Note_on_c, 0, 73, 100
1, 281037, Note_off_c, 0, 73, 100
1, 281037, Note_on_c, 0, 71, 100
1, 281229, Note_off_c, 0, 71, 100
1, 281229, Note_on_c, 0, 72, 100
1, 281341, Note_off_c, 0, 72, 100
1, 281341, Note_on_c, 0, 73, 100
1, 281469, Note_off_c, 0, 73, 100
1, 281469, Note_on_c, 0, 69, 100
1, 281565, Note_off_c, 0, 69, 100
1, 281565, Note_on_c, 0, 65, 100
1, 281661, Note_off_c, 0, 65, 100
1, 281661, Note_on_c, 0, 62, 100
1, 281757, Note_off_c, 0, 62, 100
1, 281757, Note_on_c, 0, 58, 100
1, 281853, Note_off_c, 0, 58, 100
1, 281853, Note_on_c, 0, 53, 100
1, 281949, Note_off_c, 0, 53, 100
1, 281949, Note_on_c, 0, 62, 100
1, 282045, Note_off_c, 0, 62, 100
1, 282045, Note_on_c, 0, 59, 100
1, 282141, Note_off_c, 0, 59, 100
1, 282141, Note_on_c, 0, 57, 100
1, 282237, Note_off_c, 0, 57, 100
1, 282237, Note_on_c, 0, 53, 100
1, 282333, Note_off_c, 0, 53, 100
1, 282333, Note_on_c, 0, 59, 100
1, 282429, Note_off_c, 0, 59, 100
1, 282429, Note_on_c, 0, 57, 100
1, 282525, Note_off_c, 0, 57, 100
1, 282525, Note_on_c, 0, 53, 100
1, 282621, Note_off_c, 0, 53, 100
1, 282621, Note_on_c, 0, 50, 100
1, 282717, Note_off_c, 0, 50, 100
1, 282717, Note_on_c, 0, 53, 100
1, 282813, Note_off_c, 0, 53, 100
1, 282813, Note_on_c, 0, 50, 100
1, 282909, Note_off_c, 0, 50, 100
1, 282909, Note_on_c, 0, 45, 100
1, 283005, Note_off_c, 0, 45, 100
1, 283389, Note_on_c, 0, 41, 100
1, 283485, Note_off_c, 0, 41, 100
1, 283485, Note_on_c, 0, 65, 100
1, 283581, Note_off_c, 0, 65, 100
1, 283581, Note_on_c, 0, 68, 100
1, 283677, Note_off_c, 0, 68, 100
1, 283677, Note_on_c, 0, 70, 100
1, 283773, Note_off_c, 0, 70, 100
1, 283773, Note_on_c, 0, 44, 100
1, 283869, Note_off_c, 0, 44, 100
1, 284157, Note_on_c, 0, 44, 100
1, 284301, Note_off_c, 0, 44, 100
1, 284301, Note_on_c, 0, 54, 100
1, 284397, Note_off_c, 0, 54, 100
1, 284397, Note_on_c, 0, 58, 100
1, 284493, Note_off_c, 0, 58, 100
1, 284493, Note_on_c, 0, 59, 100
1, 284541, Note_off_c, 0, 59, 100
1, 284541, Note_on_c, 0, 46, 100
1, 284637, Note_off_c, 0, 46, 100
1, 284877, Note_on_c, 0, 46, 100
1, 285021, Note_off_c, 0, 46, 100
1, 285021, Note_on_c, 0, 53, 100
1, 285117, Note_off_c, 0, 53, 100
1, 285117, Note_on_c, 0, 58, 100
1, 285213, Note_off_c, 0, 58, 100
1, 285213, Note_on_c, 0, 59, 100
1, 285309, Note_off_c, 0, 59, 100
1, 285309, Note_on_c, 0, 48, 100
1, 285405, Note_off_c, 0, 48, 100
1, 285645, Note_on_c, 0, 48, 100
1, 285741, Note_off_c, 0, 48, 100
1, 285741, Note_on_c, 0, 53, 100
1, 285837, Note_off_c, 0, 53, 100
1, 285837, Note_on_c, 0, 58, 100
1, 285949, Note_off_c, 0, 58, 100
1, 285949, Note_on_c, 0, 59, 100
1, 286077, Note_off_c, 0, 59, 100
1, 286077, Note_on_c, 0, 51, 100
1, 286173, Note_off_c, 0, 51, 100
1, 286461, Note_on_c, 0, 51, 100
1, 286525, Note_off_c, 0, 51, 100
1, 286525, Note_on_c, 0, 54, 100
1, 286589, Note_off_c, 0, 54, 100
1, 286589, Note_on_c, 0, 58, 100
1, 286749, Note_off_c, 0, 58, 100
1, 286749, Note_on_c, 0, 58, 100
1, 286845, Note_off_c, 0, 58, 100
1, 286845, Note_on_c, 0, 51, 100
1, 286909, Note_off_c, 0, 51, 100
1, 286909, Note_on_c, 0, 54, 100
1, 286973, Note_off_c, 0, 54, 100
1, 286973, Note_on_c, 0, 57, 100
1, 287101, Note_off_c, 0, 57, 100
1, 287101, Note_on_c, 0, 52, 100
1, 287197, Note_off_c, 0, 52, 100
1, 287613, Note_on_c, 0, 52, 100
1, 287757, Note_off_c, 0, 52, 100
1, 287757, Note_on_c, 0, 57, 100
1, 287805, Note_off_c, 0, 57, 100
1, 287805, Note_on_c, 0, 56, 100
1, 287901, Note_off_c, 0, 56, 100
1, 287901, Note_on_c, 0, 52, 100
1, 287997, Note_off_c, 0, 52, 100
1, 287997, Note_on_c, 0, 69, 100
1, 288189, Note_off_c, 0, 69, 100
1, 288189, Note_on_c, 0, 62, 100
1, 288285, Note_off_c, 0, 62, 100
1, 288285, Note_on_c, 0, 67, 100
1, 288477, Note_off_c, 0, 67, 100
1, 288477, Note_on_c, 0, 65, 100
1, 288573, Note_off_c, 0, 65, 100
1, 288573, Note_on_c, 0, 68, 100
1, 288669, Note_off_c, 0, 68, 100
1, 288669, Note_on_c, 0, 70, 100
1, 288765, Note_off_c, 0, 70, 100
1, 288765, Note_on_c, 0, 63, 100
1, 288813, Note_off_c, 0, 63, 100
1, 288813, Note_on_c, 0, 66, 100
1, 288909, Note_off_c, 0, 66, 100
1, 288909, Note_on_c, 0, 58, 100
1, 289021, Note_off_c, 0, 58, 100
1, 289021, Note_on_c, 0, 58, 100
1, 289085, Note_off_c, 0, 58, 100
1, 289085, Note_on_c, 0, 54, 100
1, 289149, Note_off_c, 0, 54, 100
1, 289149, Note_on_c, 0, 50, 100
1, 289245, Note_off_c, 0, 50, 100
1, 289245, Note_on_c, 0, 52, 100
1, 289341, Note_off_c, 0, 52, 100
1, 289341, Note_on_c, 0, 50, 100
1, 289437, Note_off_c, 0, 50, 100
1, 289437, Note_on_c, 0, 46, 100
1, 289629, Note_off_c, 0, 46, 100
1, 289629, Note_on_c, 0, 46, 100
1, 289725, Note_off_c, 0, 46, 100
1, 289725, Note_on_c, 0, 44, 100
1, 290013, Note_off_c, 0, 44, 100
1, 290013, Note_on_c, 0, 46, 100
1, 290109, Note_off_c, 0, 46, 100
1, 290109, Note_on_c, 0, 56, 100
1, 290205, Note_off_c, 0, 56, 100
1, 290205, Note_on_c, 0, 57, 100
1, 290301, Note_off_c, 0, 57, 100
1, 290301, Note_on_c, 0, 50, 100
1, 290397, Note_off_c, 0, 50, 100
1, 290829, Note_on_c, 0, 62, 100
1, 290877, Note_off_c, 0, 62, 100
1, 290877, Note_on_c, 0, 65, 100
1, 290973, Note_off_c, 0, 65, 100
1, 290973, Note_on_c, 0, 68, 100
1, 291069, Note_off_c, 0, 68, 100
1, 291069, Note_on_c, 0, 63, 100
1, 291165, Note_off_c, 0, 63, 100
1, 291165, Note_on_c, 0, 65, 100
1, 291261, Note_off_c, 0, 65, 100
1, 291261, Note_on_c, 0, 67, 100
1, 291357, Note_off_c, 0, 67, 100
1, 291357, Note_on_c, 0, 68, 100
1, 291453, Note_off_c, 0, 68, 100
1, 291453, Note_on_c, 0, 65, 100
1, 291549, Note_off_c, 0, 65, 100
1, 291549, Note_on_c, 0, 64, 100
1, 291645, Note_off_c, 0, 64, 100
1, 291645, Note_on_c, 0, 63, 100
1, 291741, Note_off_c, 0, 63, 100
1, 291741, Note_on_c, 0, 67, 100
1, 291933, Note_off_c, 0, 67, 100
1, 291933, Note_on_c, 0, 67, 100
1, 292029, Note_off_c, 0, 67, 100
1, 292029, Note_on_c, 0, 63, 100
1, 292077, Note_off_c, 0, 63, 100
1, 292077, Note_on_c, 0, 61, 100
1, 292173, Note_off_c, 0, 61, 100
1, 292173, Note_on_c, 0, 68, 100
1, 292285, Note_off_c, 0, 68, 100
1, 292285, Note_on_c, 0, 63, 100
1, 292413, Note_off_c, 0, 63, 100
1, 292413, Note_on_c, 0, 58, 100
1, 292509, Note_off_c, 0, 58, 100
1, 292509, Note_on_c, 0, 53, 100
1, 292557, Note_off_c, 0, 53, 100
1, 292557, Note_on_c, 0, 51, 100
1, 292701, Note_off_c, 0, 51, 100
1, 292701, Note_on_c, 0, 53, 100
1, 292797, Note_off_c, 0, 53, 100
1, 292797, Note_on_c, 0, 59, 100
1, 292893, Note_off_c, 0, 59, 100
1, 292893, Note_on_c, 0, 63, 100
1, 292989, Note_off_c, 0, 63, 100
1, 292989, Note_on_c, 0, 59, 100
1, 293085, Note_off_c, 0, 59, 100
1, 293085, Note_on_c, 0, 55, 100
1, 293181, Note_off_c, 0, 55, 100
1, 293181, Note_on_c, 0, 59, 100
1, 293277, Note_off_c, 0, 59, 100
1, 293277, Note_on_c, 0, 63, 100
1, 293373, Note_off_c, 0, 63, 100
1, 293373, Note_on_c, 0, 67, 100
1, 293469, Note_off_c, 0, 67, 100
1, 293469, Note_on_c, 0, 68, 100
1, 293565, Note_off_c, 0, 68, 100
1, 293565, Note_on_c, 0, 67, 100
1, 293661, Note_off_c, 0, 67, 100
1, 293661, Note_on_c, 0, 67, 100
1, 293805, Note_off_c, 0, 67, 100
1, 293805, Note_on_c, 0, 68, 100
1, 293901, Note_off_c, 0, 68, 100
1, 293901, Note_on_c, 0, 65, 100
1, 293997, Note_off_c, 0, 65, 100
1, 293997, Note_on_c, 0, 69, 100
1, 294093, Note_off_c, 0, 69, 100
1, 294093, Note_on_c, 0, 71, 100
1, 294141, Note_off_c, 0, 71, 100
1, 294141, Note_on_c, 0, 69, 100
1, 294237, Note_off_c, 0, 69, 100
1, 294237, Note_on_c, 0, 65, 100
1, 294381, Note_off_c, 0, 65, 100
1, 294381, Note_on_c, 0, 62, 100
1, 294477, Note_off_c, 0, 62, 100
1, 294477, Note_on_c, 0, 58, 100
1, 294525, Note_off_c, 0, 58, 100
1, 294525, Note_on_c, 0, 65, 100
1, 294717, Note_off_c, 0, 65, 100
1, 294717, Note_on_c, 0, 67, 100
1, 294909, Note_off_c, 0, 67, 100
1, 294909, Note_on_c, 0, 69, 100
1, 295005, Note_off_c, 0, 69, 100
1, 295485, Note_on_c, 0, 65, 100
1, 295613, Note_off_c, 0, 65, 100
1, 295613, Note_on_c, 0, 62, 100
1, 295677, Note_off_c, 0, 62, 100
1, 295677, Note_on_c, 0, 67, 100
1, 295869, Note_off_c, 0, 67, 100
1, 295869, Note_on_c, 0, 65, 100
1, 296157, Note_off_c, 0, 65, 100
1, 296157, Note_on_c, 0, 62, 100
1, 296541, Note_off_c, 0, 62, 100
1, 296541, Note_on_c, 0, 65, 100
1, 296637, Note_off_c, 0, 65, 100
1, 296637, Note_on_c, 0, 62, 100
1, 296733, Note_off_c, 0, 62, 100
1, 296733, Note_on_c, 0, 69, 100
1, 297597, Note_off_c, 0, 69, 100
1, 297981, Note_on_c, 0, 69, 100
1, 298077, Note_off_c, 0, 69, 100
1, 298077, Note_on_c, 0, 62, 100
1, 298269, Note_off_c, 0, 62, 100
1, 298269, Note_on_c, 0, 69, 100
1, 298653, Note_off_c, 0, 69, 100
1, 298653, Note_on_c, 0, 67, 100
1, 298749, Note_off_c, 0, 67, 100
1, 298749, Note_on_c, 0, 65, 100
1, 298941, Note_off_c, 0, 65, 100
1, 298941, Note_on_c, 0, 62, 100
1, 299133, Note_off_c, 0, 62, 100
1, 299133, Note_on_c, 0, 69, 100
1, 299325, Note_off_c, 0, 69, 100
1, 299325, Note_on_c, 0, 72, 100
1, 299469, Note_off_c, 0, 72, 100
1, 299469, Note_on_c, 0, 64, 100
1, 299853, Note_off_c, 0, 64, 100
1, 299853, Note_on_c, 0, 62, 100
1, 299949, Note_off_c, 0, 62, 100
1, 299949, Note_on_c, 0, 65, 100
1, 300045, Note_off_c, 0, 65, 100
1, 300045, Note_on_c, 0, 62, 100
1, 300189, Note_off_c, 0, 62, 100
1, 300189, Note_on_c, 0, 60, 100
1, 300237, Note_off_c, 0, 60, 100
1, 300237, Note_on_c, 0, 59, 100
1, 300349, Note_off_c, 0, 59, 100
1, 300349, Note_on_c, 0, 62, 100
1, 300413, Note_off_c, 0, 62, 100
1, 300413, Note_on_c, 0, 59, 100
1, 300573, Note_off_c, 0, 59, 100
1, 300573, Note_on_c, 0, 57, 100
1, 300669, Note_off_c, 0, 57, 100
1, 300669, Note_on_c, 0, 53, 100
1, 300861, Note_off_c, 0, 53, 100
1, 300861, Note_on_c, 0, 57, 100
1, 300957, Note_off_c, 0, 57, 100
1, 300957, Note_on_c, 0, 50, 100
1, 301053, Note_off_c, 0, 50, 100
1, 301581, Note_on_c, 0, 69, 100
1, 302109, Note_off_c, 0, 69, 100
1, 302109, Note_on_c, 0, 62, 100
1, 302205, Note_off_c, 0, 62, 100
1, 302205, Note_on_c, 0, 69, 100
1, 302397, Note_off_c, 0, 69, 100
1, 302397, Note_on_c, 0, 71, 100
1, 302525, Note_off_c, 0, 71, 100
1, 302525, Note_on_c, 0, 62, 100
1, 302589, Note_off_c, 0, 62, 100
1, 302589, Note_on_c, 0, 69, 100
1, 303165, Note_off_c, 0, 69, 100
1, 303165, Note_on_c, 0, 71, 100
1, 303261, Note_off_c, 0, 71, 100
1, 303261, Note_on_c, 0, 62, 100
1, 303357, Note_off_c, 0, 62, 100
1, 303357, Note_on_c, 0, 69, 100
1, 303549, Note_off_c, 0, 69, 100
1, 303549, Note_on_c, 0, 71, 100
1, 303645, Note_off_c, 0, 71, 100
1, 303645, Note_on_c, 0, 69, 100
1, 303741, Note_off_c, 0, 69, 100
1, 303741, Note_on_c, 0, 69, 100
1, 303933, Note_off_c, 0, 69, 100
1, 303933, Note_on_c, 0, 71, 100
1, 304029, Note_off_c, 0, 71, 100
1, 304029, Note_on_c, 0, 81, 100
1, 304125, Note_off_c, 0, 81, 100
1, 304125, Note_on_c, 0, 83, 100
1, 304317, Note_off_c, 0, 83, 100
1, 304317, Note_on_c, 0, 71, 100
1, 304413, Note_off_c, 0, 71, 100
1, 304413, Note_on_c, 0, 62, 100
1, 304509, Note_off_c, 0, 62, 100
1, 304509, Note_on_c, 0, 69, 100
1, 304701, Note_off_c, 0, 69, 100
1, 304701, Note_on_c, 0, 71, 100
1, 304845, Note_off_c, 0, 71, 100
1, 304845, Note_on_c, 0, 62, 100
1, 304893, Note_off_c, 0, 62, 100
1, 304893, Note_on_c, 0, 69, 100
1, 305181, Note_off_c, 0, 69, 100
1, 305469, Note_on_c, 0, 71, 100
1, 305565, Note_off_c, 0, 71, 100
1, 305565, Note_on_c, 0, 62, 100
1, 305661, Note_off_c, 0, 62, 100
1, 305661, Note_on_c, 0, 69, 100
1, 305853, Note_off_c, 0, 69, 100
1, 305853, Note_on_c, 0, 71, 100
1, 305949, Note_off_c, 0, 71, 100
1, 305949, Note_on_c, 0, 62, 100
1, 305997, Note_off_c, 0, 62, 100
1, 305997, Note_on_c, 0, 69, 100
1, 306237, Note_off_c, 0, 69, 100
1, 306237, Note_on_c, 0, 71, 100
1, 306333, Note_off_c, 0, 71, 100
1, 306333, Note_on_c, 0, 62, 100
1, 306381, Note_off_c, 0, 62, 100
1, 306381, Note_on_c, 0, 69, 100
1, 306621, Note_off_c, 0, 69, 100
1, 306621, Note_on_c, 0, 71, 100
1, 306717, Note_off_c, 0, 71, 100
1, 306717, Note_on_c, 0, 62, 100
1, 306765, Note_off_c, 0, 62, 100
1, 306765, Note_on_c, 0, 69, 100
1, 307005, Note_off_c, 0, 69, 100
1, 307005, Note_on_c, 0, 71, 100
1, 307101, Note_off_c, 0, 71, 100
1, 307101, Note_on_c, 0, 62, 100
1, 307197, Note_off_c, 0, 62, 100
1, 307197, Note_on_c, 0, 83, 100
1, 307389, Note_off_c, 0, 83, 100
1, 307389, Note_on_c, 0, 71, 100
1, 307485, Note_off_c, 0, 71, 100
1, 307485, Note_on_c, 0, 62, 100
1, 307533, Note_off_c, 0, 62, 100
1, 307533, Note_on_c, 0, 69, 100
1, 307773, Note_off_c, 0, 69, 100
1, 307773, Note_on_c, 0, 71, 100
1, 307837, Note_off_c, 0, 71, 100
1, 307837, Note_on_c, 0, 62, 100
1, 307901, Note_off_c, 0, 62, 100
1, 307901, Note_on_c, 0, 69, 100
1, 308093, Note_off_c, 0, 69, 100
1, 308541, Note_on_c, 0, 72, 100
1, 308637, Note_off_c, 0, 72, 100
1, 308637, Note_on_c, 0, 73, 100
1, 308733, Note_off_c, 0, 73, 100
1, 308733, Note_on_c, 0, 70, 100
1, 308925, Note_off_c, 0, 70, 100
1, 308925, Note_on_c, 0, 72, 100
1, 309021, Note_off_c, 0, 72, 100
1, 309021, Note_on_c, 0, 73, 100
1, 309117, Note_off_c, 0, 73, 100
1, 309117, Note_on_c, 0, 70, 100
1, 309309, Note_off_c, 0, 70, 100
1, 309309, Note_on_c, 0, 72, 100
1, 309405, Note_off_c, 0, 72, 100
1, 309405, Note_on_c, 0, 73, 100
1, 309501, Note_off_c, 0, 73, 100
1, 309501, Note_on_c, 0, 70, 100
1, 309693, Note_off_c, 0, 70, 100
1, 309693, Note_on_c, 0, 72, 100
1, 309789, Note_off_c, 0, 72, 100
1, 309789, Note_on_c, 0, 73, 100
1, 309885, Note_off_c, 0, 73, 100
1, 309885, Note_on_c, 0, 70, 100
1, 310125, Note_off_c, 0, 70, 100
1, 310125, Note_on_c, 0, 72, 100
1, 310221, Note_off_c, 0, 72, 100
1, 310221, Note_on_c, 0, 65, 100
1, 310333, Note_off_c, 0, 65, 100
1, 310333, Note_on_c, 0, 75, 100
1, 310461, Note_off_c, 0, 75, 100
1, 310461, Note_on_c, 0, 72, 100
1, 310557, Note_off_c, 0, 72, 100
1, 310557, Note_on_c, 0, 73, 100
1, 310653, Note_off_c, 0, 73, 100
1, 310653, Note_on_c, 0, 70, 100
1, 310845, Note_off_c, 0, 70, 100
1, 310845, Note_on_c, 0, 72, 100
1, 310941, Note_off_c, 0, 72, 100
1, 310941, Note_on_c, 0, 73, 100
1, 311037, Note_off_c, 0, 73, 100
1, 311037, Note_on_c, 0, 70, 100
1, 311325, Note_off_c, 0, 70, 100
1, 311677, Note_on_c, 0, 48, 100
1, 311805, Note_off_c, 0, 48, 100
1, 311805, Note_on_c, 0, 54, 100
1, 311901, Note_off_c, 0, 54, 100
1, 311901, Note_on_c, 0, 49, 100
1, 312141, Note_off_c, 0, 49, 100
1, 312141, Note_on_c, 0, 54, 100
1, 312189, Note_off_c, 0, 54, 100
1, 312189, Note_on_c, 0, 49, 100
1, 312285, Note_off_c, 0, 49, 100
1, 312285, Note_on_c, 0, 54, 100
1, 312381, Note_off_c, 0, 54, 100
1, 312381, Note_on_c, 0, 58, 100
1, 312477, Note_off_c, 0, 58, 100
1, 312477, Note_on_c, 0, 59, 100
1, 312573, Note_off_c, 0, 59, 100
1, 312573, Note_on_c, 0, 52, 100
1, 312669, Note_off_c, 0, 52, 100
1, 312669, Note_on_c, 0, 55, 100
1, 312765, Note_off_c, 0, 55, 100
1, 312765, Note_on_c, 0, 59, 100
1, 312861, Note_off_c, 0, 59, 100
1, 312861, Note_on_c, 0, 62, 100
1, 312957, Note_off_c, 0, 62, 100
1, 312957, Note_on_c, 0, 57, 100
1, 313053, Note_off_c, 0, 57, 100
1, 313389, Note_on_c, 0, 57, 100
1, 313437, Note_off_c, 0, 57, 100
1, 313437, Note_on_c, 0, 58, 100
1, 313485, Note_off_c, 0, 58, 100
1, 313485, Note_on_c, 0, 57, 100
1, 313533, Note_off_c, 0, 57, 100
1, 313533, Note_on_c, 0, 69, 100
1, 313597, Note_off_c, 0, 69, 100
1, 313597, Note_on_c, 0, 71, 100
1, 313661, Note_off_c, 0, 71, 100
1, 313661, Note_on_c, 0, 68, 100
1, 313725, Note_off_c, 0, 68, 100
1, 313725, Note_on_c, 0, 70, 100
1, 313869, Note_off_c, 0, 70, 100
1, 313869, Note_on_c, 0, 66, 100
1, 313917, Note_off_c, 0, 66, 100
1, 313917, Note_on_c, 0, 63, 100
1, 314013, Note_off_c, 0, 63, 100
1, 314013, Note_on_c, 0, 58, 100
1, 314173, Note_off_c, 0, 58, 100
1, 314173, Note_on_c, 0, 68, 100
1, 314237, Note_off_c, 0, 68, 100
1, 314237, Note_on_c, 0, 66, 100
1, 314301, Note_off_c, 0, 66, 100
1, 314301, Note_on_c, 0, 63, 100
1, 314397, Note_off_c, 0, 63, 100
1, 314877, Note_on_c, 0, 62, 100
1, 315213, Note_off_c, 0, 62, 100
1, 315213, Note_on_c, 0, 62, 100
1, 315549, Note_off_c, 0, 62, 100
1, 315549, Note_on_c, 0, 58, 100
1, 315645, Note_off_c, 0, 58, 100
1, 315645, Note_on_c, 0, 64, 100
1, 315837, Note_off_c, 0, 64, 100
1, 315837, Note_on_c, 0, 65, 100
1, 316029, Note_off_c, 0, 65, 100
1, 316029, Note_on_c, 0, 62, 100
1, 316413, Note_off_c, 0, 62, 100
1, 316413, Note_on_c, 0, 65, 100
1, 316509, Note_off_c, 0, 65, 100
1, 316509, Note_on_c, 0, 62, 100
1, 316605, Note_off_c, 0, 62, 100
1, 317085, Note_on_c, 0, 64, 100
1, 317181, Note_off_c, 0, 64, 100
1, 317181, Note_on_c, 0, 65, 100
1, 317373, Note_off_c, 0, 65, 100
1, 317373, Note_on_c, 0, 67, 100
1, 317565, Note_off_c, 0, 67, 100
1, 317565, Note_on_c, 0, 69, 100
1, 317757, Note_off_c, 0, 69, 100
1, 317757, Note_on_c, 0, 72, 100
1, 317901, Note_off_c, 0, 72, 100
1, 317901, Note_on_c, 0, 64, 100
1, 318333, Note_off_c, 0, 64, 100
1, 318333, Note_on_c, 0, 62, 100
1, 318525, Note_off_c, 0, 62, 100
1, 318525, Note_on_c, 0, 65, 100
1, 318717, Note_off_c, 0, 65, 100
1, 318717, Note_on_c, 0, 59, 100
1, 318909, Note_off_c, 0, 59, 100
1, 318909, Note_on_c, 0, 60, 100
1, 319005, Note_off_c, 0, 60, 100
1, 319005, Note_on_c, 0, 57, 100
1, 319485, Note_off_c, 0, 57, 100
1, 319485, Note_on_c, 0, 53, 100
1, 319677, Note_off_c, 0, 53, 100
1, 319677, Note_on_c, 0, 50, 100
1, 319773, Note_off_c, 0, 50, 100
1, 320301, Note_on_c, 0, 55, 100
1, 320397, Note_off_c, 0, 55, 100
1, 320397, Note_on_c, 0, 57, 100
1, 320701, Note_off_c, 0, 57, 100
1, 320701, Note_on_c, 0, 53, 100
1, 321277, Note_off_c, 0, 53, 100
1, 321741, Note_on_c, 0, 52, 100
1, 321885, Note_off_c, 0, 52, 100
1, 321885, Note_on_c, 0, 53, 100
1, 322173, Note_off_c, 0, 53, 100
1, 322173, Note_on_c, 0, 50, 100
1, 322653, Note_off_c, 0, 50, 100
1, 323325, Note_on_c, 0, 48, 100
1, 323421, Note_off_c, 0, 48, 100
1, 323421, Note_on_c, 0, 53, 100
1, 323517, Note_off_c, 0, 53, 100
1, 323517, Note_on_c, 0, 52, 100
1, 323565, Note_off_c, 0, 52, 100
1, 323565, Note_on_c, 0, 48, 100
1, 323661, Note_off_c, 0, 48, 100
1, 323661, Note_on_c, 0, 47, 100
1, 324237, Note_off_c, 0, 47, 100
1, 324573, Note_on_c, 0, 47, 100
1, 324621, Note_off_c, 0, 47, 100
1, 324621, Note_on_c, 0, 50, 100
1, 324733, Note_off_c, 0, 50, 100
1, 324733, Note_on_c, 0, 46, 100
1, 324861, Note_off_c, 0, 46, 100
1, 324861, Note_on_c, 0, 64, 100
1, 324957, Note_off_c, 0, 64, 100
1, 324957, Note_on_c, 0, 62, 100
1, 325053, Note_off_c, 0, 62, 100
1, 325053, Note_on_c, 0, 59, 100
1, 325149, Note_off_c, 0, 59, 100
1, 325149, Note_on_c, 0, 57, 100
1, 330575, Note_off_c, 0, 57, 100
1, 330575, End_track
0, 0, End_of_file
