0, 0, Header, 1, 1, 192
1, 0, Start_track
1, 0, Title_t, "Melody"
1, 0, Tempo, 232558
1, 0, Key_signature, -3, "major"
1, 0, Time_signature, 4, 2, 24, 8
1, 336, Note_on_c, 0, 55, 100
1, 480, Note_off_c, 0, 55, 100
1, 480, Note_on_c, 0, 57, 100
1, 576, Note_off_c, 0, 57, 100
1, 576, Note_on_c, 0, 59, 100
1, 672, Note_off_c, 0, 59, 100
1, 672, Note_on_c, 0, 62, 100
1, 768, Note_off_c, 0, 62, 100
1, 768, Note_on_c, 0, 60, 100
1, 864, Note_off_c, 0, 60, 100
1, 864, Note_on_c, 0, 59, 100
1, 960, Note_off_c, 0, 59, 100
1, 960, Note_on_c, 0, 60, 100
1, 1056, Note_off_c, 0, 60, 100
1, 1056, Note_on_c, 0, 63, 100
1, 1152, Note_off_c, 0, 63, 100
1, 1152, Note_on_c, 0, 62, 100
1, 1248, Note_off_c, 0, 62, 100
1, 1248, Note_on_c, 0, 61, 100
1, 1344, Note_off_c, 0, 61, 100
1, 1344, Note_on_c, 0, 62, 100
1, 1472, Note_off_c, 0, 62, 100
1, 1472, Note_on_c, 0, 65, 100
1, 1536, Note_off_c, 0, 65, 100
1, 1536, Note_on_c, 0, 63, 100
1, 1632, Note_off_c, 0, 63, 100
1, 1632, Note_on_c, 0, 62, 100
1, 1728, Note_off_c, 0, 62, 100
1, 1728, Note_on_c, 0, 63, 100
1, 1824, Note_off_c, 0, 63, 100
1, 1824, Note_on_c, 0, 67, 100
1, 1920, Note_off_c, 0, 67, 100
1, 1920, Note_on_c, 0, 65, 100
1, 2112, Note_off_c, 0, 65, 100
1, 2112, Note_on_c, 0, 67, 100
1, 2208, Note_off_c, 0, 67, 100
1, 2208, Note_on_c, 0, 63, 100
1, 2496, Note_off_c, 0, 63, 100
1, 3168, Note_on_c, 0, 70, 100
1, 3216, Note_off_c, 0, 70, 100
1, 3216, Note_on_c, 0, 72, 100
1, 3648, Note_off_c, 0, 72, 100
1, 3648, Note_on_c, 0, 71, 100
1, 3744, Note_off_c, 0, 71, 100
1, 3744, Note_on_c, 0, 70, 100
1, 3840, Note_off_c, 0, 70, 100
1, 3840, Note_on_c, 0, 68, 100
1, 3936, Note_off_c, 0, 68, 100
1, 3936, Note_on_c, 0, 63, 100
1, 4032, Note_off_c, 0, 63, 100
1, 4032, Note_on_c, 0, 64, 100
1, 4128, Note_off_c, 0, 64, 100
1, 4128, Note_on_c, 0, 67, 100
1, 4224, Note_off_c, 0, 67, 100
1, 4224, Note_on_c, 0, 65, 100
1, 4320, Note_off_c, 0, 65, 100
1, 4320, Note_on_c, 0, 67, 100
1, 4416, Note_off_c, 0, 67, 100
1, 4416, Note_on_c, 0, 68, 100
1, 4512, Note_off_c, 0, 68, 100
1, 4512, Note_on_c, 0, 70, 100
1, 4608, Note_off_c, 0, 70, 100
1, 4608, Note_on_c, 0, 67, 100
1, 4704, Note_off_c, 0, 67, 100
1, 4704, Note_on_c, 0, 65, 100
1, 4752, Note_off_c, 0, 65, 100
1, 4752, Note_on_c, 0, 63, 100
1, 4896, Note_off_c, 0, 63, 100
1, 4896, Note_on_c, 0, 60, 100
1, 4992, Note_off_c, 0, 60, 100
1, 4992, Note_on_c, 0, 62, 100
1, 5616, Note_off_c, 0, 62, 100
1, 5616, Note_on_c, 0, 60, 100
1, 5712, Note_off_c, 0, 60, 100
1, 5712, Note_on_c, 0, 62, 100
1, 5904, Note_off_c, 0, 62, 100
1, 5904, Note_on_c, 0, 57, 100
1, 6096, Note_off_c, 0, 57, 100
1, 6624, Note_on_c, 0, 54, 100
1, 6720, Note_off_c, 0, 54, 100
1, 6720, Note_on_c, 0, 56, 100
1, 6816, Note_off_c, 0, 56, 100
1, 6816, Note_on_c, 0, 58, 100
1, 6912, Note_off_c, 0, 58, 100
1, 6912, Note_on_c, 0, 60, 100
1, 7008, Note_off_c, 0, 60, 100
1, 7008, Note_on_c, 0, 63, 100
1, 7104, Note_off_c, 0, 63, 100
1, 7104, Note_on_c, 0, 66, 100
1, 7200, Note_off_c, 0, 66, 100
1, 7200, Note_on_c, 0, 68, 100
1, 7296, Note_off_c, 0, 68, 100
1, 7296, Note_on_c, 0, 70, 100
1, 7744, Note_off_c, 0, 70, 100
1, 7744, Note_on_c, 0, 55, 100
1, 7808, Note_off_c, 0, 55, 100
1, 7808, Note_on_c, 0, 56, 100
1, 7920, Note_off_c, 0, 56, 100
1, 7920, Note_on_c, 0, 58, 100
1, 7968, Note_off_c, 0, 58, 100
1, 7968, Note_on_c, 0, 61, 100
1, 8016, Note_off_c, 0, 61, 100
1, 8016, Note_on_c, 0, 62, 100
1, 8064, Note_off_c, 0, 62, 100
1, 8064, Note_on_c, 0, 65, 100
1, 8112, Note_off_c, 0, 65, 100
1, 8112, Note_on_c, 0, 67, 100
1, 8160, Note_off_c, 0, 67, 100
1, 8160, Note_on_c, 0, 69, 100
1, 8208, Note_off_c, 0, 69, 100
1, 8208, Note_on_c, 0, 70, 100
1, 8736, Note_off_c, 0, 70, 100
1, 8736, Note_on_c, 0, 68, 100
1, 8832, Note_off_c, 0, 68, 100
1, 8832, Note_on_c, 0, 67, 100
1, 8928, Note_off_c, 0, 67, 100
1, 8928, Note_on_c, 0, 63, 100
1, 9216, Note_off_c, 0, 63, 100
1, 9552, Note_on_c, 0, 69, 100
1, 9600, Note_off_c, 0, 69, 100
1, 9600, Note_on_c, 0, 71, 100
1, 9984, Note_off_c, 0, 71, 100
1, 9984, Note_on_c, 0, 71, 100
1, 10080, Note_off_c, 0, 71, 100
1, 10080, Note_on_c, 0, 67, 100
1, 10128, Note_off_c, 0, 67, 100
1, 10128, Note_on_c, 0, 69, 100
1, 10272, Note_off_c, 0, 69, 100
1, 10272, Note_on_c, 0, 71, 100
1, 10368, Note_off_c, 0, 71, 100
1, 10368, Note_on_c, 0, 69, 100
1, 10464, Note_off_c, 0, 69, 100
1, 10464, Note_on_c, 0, 65, 100
1, 10560, Note_off_c, 0, 65, 100
1, 10560, Note_on_c, 0, 67, 100
1, 10608, Note_off_c, 0, 67, 100
1, 10608, Note_on_c, 0, 69, 100
1, 10704, Note_off_c, 0, 69, 100
1, 10704, Note_on_c, 0, 67, 100
1, 10800, Note_off_c, 0, 67, 100
1, 10800, Note_on_c, 0, 63, 100
1, 10896, Note_off_c, 0, 63, 100
1, 10896, Note_on_c, 0, 65, 100
1, 10992, Note_off_c, 0, 65, 100
1, 10992, Note_on_c, 0, 67, 100
1, 11088, Note_off_c, 0, 67, 100
1, 11088, Note_on_c, 0, 65, 100
1, 11520, Note_off_c, 0, 65, 100
1, 11520, Note_on_c, 0, 63, 100
1, 11616, Note_off_c, 0, 63, 100
1, 11616, Note_on_c, 0, 65, 100
1, 11712, Note_off_c, 0, 65, 100
1, 11712, Note_on_c, 0, 63, 100
1, 11808, Note_off_c, 0, 63, 100
1, 11808, Note_on_c, 0, 62, 100
1, 11856, Note_off_c, 0, 62, 100
1, 11856, Note_on_c, 0, 63, 100
1, 11952, Note_off_c, 0, 63, 100
1, 11952, Note_on_c, 0, 66, 100
1, 12000, Note_off_c, 0, 66, 100
1, 12000, Note_on_c, 0, 65, 100
1, 12048, Note_off_c, 0, 65, 100
1, 12048, Note_on_c, 0, 63, 100
1, 12144, Note_off_c, 0, 63, 100
1, 12144, Note_on_c, 0, 65, 100
1, 12192, Note_off_c, 0, 65, 100
1, 12192, Note_on_c, 0, 67, 100
1, 12240, Note_off_c, 0, 67, 100
1, 12240, Note_on_c, 0, 66, 100
1, 12288, Note_off_c, 0, 66, 100
1, 12288, Note_on_c, 0, 64, 100
1, 12352, Note_off_c, 0, 64, 100
1, 12352, Note_on_c, 0, 66, 100
1, 12416, Note_off_c, 0, 66, 100
1, 12416, Note_on_c, 0, 72, 100
1, 12480, Note_off_c, 0, 72, 100
1, 12480, Note_on_c, 0, 71, 100
1, 12576, Note_off_c, 0, 71, 100
1, 12576, Note_on_c, 0, 70, 100
1, 12768, Note_off_c, 0, 70, 100
1, 13344, Note_on_c, 0, 71, 100
1, 13392, Note_off_c, 0, 71, 100
1, 13392, Note_on_c, 0, 72, 100
1, 13632, Note_off_c, 0, 72, 100
1, 13632, Note_on_c, 0, 67, 100
1, 13728, Note_off_c, 0, 67, 100
1, 13728, Note_on_c, 0, 70, 100
1, 13776, Note_off_c, 0, 70, 100
1, 13776, Note_on_c, 0, 68, 100
1, 13920, Note_off_c, 0, 68, 100
1, 13920, Note_on_c, 0, 63, 100
1, 14016, Note_off_c, 0, 63, 100
1, 14016, Note_on_c, 0, 64, 100
1, 14112, Note_off_c, 0, 64, 100
1, 14112, Note_on_c, 0, 67, 100
1, 14208, Note_off_c, 0, 67, 100
1, 14208, Note_on_c, 0, 65, 100
1, 14304, Note_off_c, 0, 65, 100
1, 14304, Note_on_c, 0, 60, 100
1, 14400, Note_off_c, 0, 60, 100
1, 14400, Note_on_c, 0, 58, 100
1, 14496, Note_off_c, 0, 58, 100
1, 14496, Note_on_c, 0, 56, 100
1, 14592, Note_off_c, 0, 56, 100
1, 14592, Note_on_c, 0, 55, 100
1, 14688, Note_off_c, 0, 55, 100
1, 14688, Note_on_c, 0, 57, 100
1, 14784, Note_off_c, 0, 57, 100
1, 14784, Note_on_c, 0, 59, 100
1, 14880, Note_off_c, 0, 59, 100
1, 14880, Note_on_c, 0, 62, 100
1, 14976, Note_off_c, 0, 62, 100
1, 14976, Note_on_c, 0, 60, 100
1, 15072, Note_off_c, 0, 60, 100
1, 15072, Note_on_c, 0, 62, 100
1, 15216, Note_off_c, 0, 62, 100
1, 15216, Note_on_c, 0, 63, 100
1, 15312, Note_off_c, 0, 63, 100
1, 15312, Note_on_c, 0, 65, 100
1, 15360, Note_off_c, 0, 65, 100
1, 15360, Note_on_c, 0, 67, 100
1, 15552, Note_off_c, 0, 67, 100
1, 15552, Note_on_c, 0, 62, 100
1, 15648, Note_off_c, 0, 62, 100
1, 15648, Note_on_c, 0, 65, 100
1, 15744, Note_off_c, 0, 65, 100
1, 15744, Note_on_c, 0, 63, 100
1, 15840, Note_off_c, 0, 63, 100
1, 15840, Note_on_c, 0, 60, 100
1, 15936, Note_off_c, 0, 60, 100
1, 15936, Note_on_c, 0, 55, 100
1, 16064, Note_off_c, 0, 55, 100
1, 16064, Note_on_c, 0, 54, 100
1, 16128, Note_off_c, 0, 54, 100
1, 16128, Note_on_c, 0, 56, 100
1, 16224, Note_off_c, 0, 56, 100
1, 16224, Note_on_c, 0, 57, 100
1, 16320, Note_off_c, 0, 57, 100
1, 16320, Note_on_c, 0, 60, 100
1, 16358, Note_off_c, 0, 60, 100
1, 16358, Note_on_c, 0, 62, 100
1, 16396, Note_off_c, 0, 62, 100
1, 16396, Note_on_c, 0, 64, 100
1, 16434, Note_off_c, 0, 64, 100
1, 16434, Note_on_c, 0, 66, 100
1, 16472, Note_off_c, 0, 66, 100
1, 16472, Note_on_c, 0, 68, 100
1, 16510, Note_off_c, 0, 68, 100
1, 16510, Note_on_c, 0, 70, 100
1, 16702, Note_off_c, 0, 70, 100
1, 16702, Note_on_c, 0, 58, 100
1, 16766, Note_off_c, 0, 58, 100
1, 16766, Note_on_c, 0, 59, 100
1, 16830, Note_off_c, 0, 59, 100
1, 16830, Note_on_c, 0, 61, 100
1, 16894, Note_off_c, 0, 61, 100
1, 16894, Note_on_c, 0, 62, 100
1, 16958, Note_off_c, 0, 62, 100
1, 16958, Note_on_c, 0, 67, 100
1, 17022, Note_off_c, 0, 67, 100
1, 17022, Note_on_c, 0, 70, 100
1, 17086, Note_off_c, 0, 70, 100
1, 17086, Note_on_c, 0, 75, 100
1, 17566, Note_off_c, 0, 75, 100
1, 17566, Note_on_c, 0, 74, 100
1, 17662, Note_off_c, 0, 74, 100
1, 17662, Note_on_c, 0, 72, 100
1, 17758, Note_off_c, 0, 72, 100
1, 17758, Note_on_c, 0, 71, 100
1, 17806, Note_off_c, 0, 71, 100
1, 17806, Note_on_c, 0, 67, 100
1, 17950, Note_off_c, 0, 67, 100
1, 17950, Note_on_c, 0, 69, 100
1, 18238, Note_off_c, 0, 69, 100
1, 19294, Note_on_c, 0, 79, 100
1, 19870, Note_off_c, 0, 79, 100
1, 19870, Note_on_c, 0, 77, 100
1, 19966, Note_off_c, 0, 77, 100
1, 19966, Note_on_c, 0, 75, 100
1, 20062, Note_off_c, 0, 75, 100
1, 20062, Note_on_c, 0, 67, 100
1, 20158, Note_off_c, 0, 67, 100
1, 20158, Note_on_c, 0, 69, 100
1, 20254, Note_off_c, 0, 69, 100
1, 20254, Note_on_c, 0, 74, 100
1, 20638, Note_off_c, 0, 74, 100
1, 20638, Note_on_c, 0, 73, 100
1, 20734, Note_off_c, 0, 73, 100
1, 20734, Note_on_c, 0, 71, 100
1, 20862, Note_off_c, 0, 71, 100
1, 20862, Note_on_c, 0, 67, 100
1, 20926, Note_off_c, 0, 67, 100
1, 20926, Note_on_c, 0, 69, 100
1, 21022, Note_off_c, 0, 69, 100
1, 21022, Note_on_c, 0, 71, 100
1, 21118, Note_off_c, 0, 71, 100
1, 21118, Note_on_c, 0, 67, 100
1, 21246, Note_off_c, 0, 67, 100
1, 21246, Note_on_c, 0, 63, 100
1, 21342, Note_off_c, 0, 63, 100
1, 21790, Note_on_c, 0, 70, 100
1, 21822, Note_off_c, 0, 70, 100
1, 21822, Note_on_c, 0, 71, 100
1, 21854, Note_off_c, 0, 71, 100
1, 21854, Note_on_c, 0, 73, 100
1, 22078, Note_off_c, 0, 73, 100
1, 22078, Note_on_c, 0, 72, 100
1, 22558, Note_off_c, 0, 72, 100
1, 22558, Note_on_c, 0, 70, 100
1, 22654, Note_off_c, 0, 70, 100
1, 22654, Note_on_c, 0, 68, 100
1, 22750, Note_off_c, 0, 68, 100
1, 22750, Note_on_c, 0, 63, 100
1, 22846, Note_off_c, 0, 63, 100
1, 22846, Note_on_c, 0, 64, 100
1, 22942, Note_off_c, 0, 64, 100
1, 22942, Note_on_c, 0, 67, 100
1, 23038, Note_off_c, 0, 67, 100
1, 23038, Note_on_c, 0, 65, 100
1, 23134, Note_off_c, 0, 65, 100
1, 23134, Note_on_c, 0, 67, 100
1, 23230, Note_off_c, 0, 67, 100
1, 23230, Note_on_c, 0, 68, 100
1, 23326, Note_off_c, 0, 68, 100
1, 23326, Note_on_c, 0, 65, 100
1, 23422, Note_off_c, 0, 65, 100
1, 23422, Note_on_c, 0, 70, 100
1, 23710, Note_off_c, 0, 70, 100
1, 23710, Note_on_c, 0, 68, 100
1, 23854, Note_off_c, 0, 68, 100
1, 23854, Note_on_c, 0, 67, 100
1, 23950, Note_off_c, 0, 67, 100
1, 23950, Note_on_c, 0, 63, 100
1, 23998, Note_off_c, 0, 63, 100
1, 23998, Note_on_c, 0, 62, 100
1, 24126, Note_off_c, 0, 62, 100
1, 24126, Note_on_c, 0, 65, 100
1, 24190, Note_off_c, 0, 65, 100
1, 24190, Note_on_c, 0, 63, 100
1, 24286, Note_off_c, 0, 63, 100
1, 24286, Note_on_c, 0, 60, 100
1, 24382, Note_off_c, 0, 60, 100
1, 24382, Note_on_c, 0, 59, 100
1, 24478, Note_off_c, 0, 59, 100
1, 24478, Note_on_c, 0, 62, 100
1, 24574, Note_off_c, 0, 62, 100
1, 24574, Note_on_c, 0, 60, 100
1, 24670, Note_off_c, 0, 60, 100
1, 24670, Note_on_c, 0, 55, 100
1, 24766, Note_off_c, 0, 55, 100
1, 24766, Note_on_c, 0, 53, 100
1, 24862, Note_off_c, 0, 53, 100
1, 24862, Note_on_c, 0, 51, 100
1, 24958, Note_off_c, 0, 51, 100
1, 24958, Note_on_c, 0, 55, 100
1, 25246, Note_off_c, 0, 55, 100
1, 25246, Note_on_c, 0, 51, 100
1, 25342, Note_off_c, 0, 51, 100
1, 25342, Note_on_c, 0, 54, 100
1, 25678, Note_off_c, 0, 54, 100
1, 25678, Note_on_c, 0, 56, 100
1, 25726, Note_off_c, 0, 56, 100
1, 25726, Note_on_c, 0, 58, 100
1, 25790, Note_off_c, 0, 58, 100
1, 25790, Note_on_c, 0, 60, 100
1, 25854, Note_off_c, 0, 60, 100
1, 25854, Note_on_c, 0, 63, 100
1, 25918, Note_off_c, 0, 63, 100
1, 25918, Note_on_c, 0, 68, 100
1, 26014, Note_off_c, 0, 68, 100
1, 26014, Note_on_c, 0, 70, 100
1, 26206, Note_off_c, 0, 70, 100
1, 26206, Note_on_c, 0, 58, 100
1, 26446, Note_off_c, 0, 58, 100
1, 26446, Note_on_c, 0, 59, 100
1, 26494, Note_off_c, 0, 59, 100
1, 26494, Note_on_c, 0, 63, 100
1, 26590, Note_off_c, 0, 63, 100
1, 26590, Note_on_c, 0, 62, 100
1, 26686, Note_off_c, 0, 62, 100
1, 26686, Note_on_c, 0, 59, 100
1, 26782, Note_off_c, 0, 59, 100
1, 26782, Note_on_c, 0, 56, 100
1, 26878, Note_off_c, 0, 56, 100
1, 26878, Note_on_c, 0, 62, 100
1, 27166, Note_off_c, 0, 62, 100
1, 27166, Note_on_c, 0, 60, 100
1, 27262, Note_off_c, 0, 60, 100
1, 27262, Note_on_c, 0, 62, 100
1, 27358, Note_off_c, 0, 62, 100
1, 27358, Note_on_c, 0, 63, 100
1, 27550, Note_off_c, 0, 63, 100
1, 28510, Note_on_c, 0, 60, 100
1, 28606, Note_off_c, 0, 60, 100
1, 28606, Note_on_c, 0, 59, 100
1, 28702, Note_off_c, 0, 59, 100
1, 28702, Note_on_c, 0, 62, 100
1, 28798, Note_off_c, 0, 62, 100
1, 28798, Note_on_c, 0, 60, 100
1, 28894, Note_off_c, 0, 60, 100
1, 28894, Note_on_c, 0, 62, 100
1, 28990, Note_off_c, 0, 62, 100
1, 28990, Note_on_c, 0, 63, 100
1, 29086, Note_off_c, 0, 63, 100
1, 29086, Note_on_c, 0, 65, 100
1, 29182, Note_off_c, 0, 65, 100
1, 29182, Note_on_c, 0, 67, 100
1, 29278, Note_off_c, 0, 67, 100
1, 29278, Note_on_c, 0, 63, 100
1, 29326, Note_off_c, 0, 63, 100
1, 29326, Note_on_c, 0, 60, 100
1, 29470, Note_off_c, 0, 60, 100
1, 29470, Note_on_c, 0, 59, 100
1, 29566, Note_off_c, 0, 59, 100
1, 29566, Note_on_c, 0, 63, 100
1, 29662, Note_off_c, 0, 63, 100
1, 29662, Note_on_c, 0, 62, 100
1, 29758, Note_off_c, 0, 62, 100
1, 29758, Note_on_c, 0, 59, 100
1, 29854, Note_off_c, 0, 59, 100
1, 29854, Note_on_c, 0, 62, 100
1, 29950, Note_off_c, 0, 62, 100
1, 29950, Note_on_c, 0, 60, 100
1, 30142, Note_off_c, 0, 60, 100
1, 30142, Note_on_c, 0, 53, 100
1, 30190, Note_off_c, 0, 53, 100
1, 30190, Note_on_c, 0, 55, 100
1, 30238, Note_off_c, 0, 55, 100
1, 30238, Note_on_c, 0, 59, 100
1, 30286, Note_off_c, 0, 59, 100
1, 30286, Note_on_c, 0, 60, 100
1, 30334, Note_off_c, 0, 60, 100
1, 30334, Note_on_c, 0, 62, 100
1, 30526, Note_off_c, 0, 62, 100
1, 30526, Note_on_c, 0, 63, 100
1, 30622, Note_off_c, 0, 63, 100
1, 30622, Note_on_c, 0, 65, 100
1, 30718, Note_off_c, 0, 65, 100
1, 30718, Note_on_c, 0, 67, 100
1, 30814, Note_off_c, 0, 67, 100
1, 30814, Note_on_c, 0, 60, 100
1, 30974, Note_off_c, 0, 60, 100
1, 30974, Note_on_c, 0, 62, 100
1, 31038, Note_off_c, 0, 62, 100
1, 31038, Note_on_c, 0, 65, 100
1, 31102, Note_off_c, 0, 65, 100
1, 31102, Note_on_c, 0, 72, 100
1, 31390, Note_off_c, 0, 72, 100
1, 31390, Note_on_c, 0, 70, 100
1, 31486, Note_off_c, 0, 70, 100
1, 31486, Note_on_c, 0, 68, 100
1, 31582, Note_off_c, 0, 68, 100
1, 31582, Note_on_c, 0, 65, 100
1, 31774, Note_off_c, 0, 65, 100
1, 31774, Note_on_c, 0, 68, 100
1, 31870, Note_off_c, 0, 68, 100
1, 31870, Note_on_c, 0, 70, 100
1, 32510, Note_off_c, 0, 70, 100
1, 32510, Note_on_c, 0, 67, 100
1, 32574, Note_off_c, 0, 67, 100
1, 32574, Note_on_c, 0, 68, 100
1, 32638, Note_off_c, 0, 68, 100
1, 32638, Note_on_c, 0, 67, 100
1, 32734, Note_off_c, 0, 67, 100
1, 32734, Note_on_c, 0, 63, 100
1, 32830, Note_off_c, 0, 63, 100
1, 32830, Note_on_c, 0, 62, 100
1, 32926, Note_off_c, 0, 62, 100
1, 32926, Note_on_c, 0, 56, 100
1, 33022, Note_off_c, 0, 56, 100
1, 33022, Note_on_c, 0, 55, 100
1, 33118, Note_off_c, 0, 55, 100
1, 33118, Note_on_c, 0, 57, 100
1, 33214, Note_off_c, 0, 57, 100
1, 33214, Note_on_c, 0, 59, 100
1, 33310, Note_off_c, 0, 59, 100
1, 33310, Note_on_c, 0, 62, 100
1, 33406, Note_off_c, 0, 62, 100
1, 33406, Note_on_c, 0, 60, 100
1, 33502, Note_off_c, 0, 60, 100
1, 33502, Note_on_c, 0, 62, 100
1, 33598, Note_off_c, 0, 62, 100
1, 33598, Note_on_c, 0, 63, 100
1, 33694, Note_off_c, 0, 63, 100
1, 33694, Note_on_c, 0, 65, 100
1, 33790, Note_off_c, 0, 65, 100
1, 33790, Note_on_c, 0, 67, 100
1, 33886, Note_off_c, 0, 67, 100
1, 33886, Note_on_c, 0, 62, 100
1, 33982, Note_off_c, 0, 62, 100
1, 33982, Note_on_c, 0, 65, 100
1, 34030, Note_off_c, 0, 65, 100
1, 34030, Note_on_c, 0, 62, 100
1, 34126, Note_off_c, 0, 62, 100
1, 34126, Note_on_c, 0, 63, 100
1, 34270, Note_off_c, 0, 63, 100
1, 34270, Note_on_c, 0, 60, 100
1, 34366, Note_off_c, 0, 60, 100
1, 34622, Note_on_c, 0, 54, 100
1, 34686, Note_off_c, 0, 54, 100
1, 34686, Note_on_c, 0, 56, 100
1, 34750, Note_off_c, 0, 56, 100
1, 34750, Note_on_c, 0, 58, 100
1, 34798, Note_off_c, 0, 58, 100
1, 34798, Note_on_c, 0, 60, 100
1, 34846, Note_off_c, 0, 60, 100
1, 34846, Note_on_c, 0, 63, 100
1, 34894, Note_off_c, 0, 63, 100
1, 34894, Note_on_c, 0, 66, 100
1, 34942, Note_off_c, 0, 66, 100
1, 34942, Note_on_c, 0, 70, 100
1, 35038, Note_off_c, 0, 70, 100
1, 35038, Note_on_c, 0, 73, 100
1, 35134, Note_off_c, 0, 73, 100
1, 35422, Note_on_c, 0, 59, 100
1, 35470, Note_off_c, 0, 59, 100
1, 35470, Note_on_c, 0, 62, 100
1, 35582, Note_off_c, 0, 62, 100
1, 35582, Note_on_c, 0, 69, 100
1, 35710, Note_off_c, 0, 69, 100
1, 35710, Note_on_c, 0, 67, 100
1, 35774, Note_off_c, 0, 67, 100
1, 35774, Note_on_c, 0, 69, 100
1, 35838, Note_off_c, 0, 69, 100
1, 35838, Note_on_c, 0, 67, 100
1, 35902, Note_off_c, 0, 67, 100
1, 35902, Note_on_c, 0, 65, 100
1, 35966, Note_off_c, 0, 65, 100
1, 35966, Note_on_c, 0, 66, 100
1, 36030, Note_off_c, 0, 66, 100
1, 36030, Note_on_c, 0, 69, 100
1, 36094, Note_off_c, 0, 69, 100
1, 36094, Note_on_c, 0, 67, 100
1, 36190, Note_off_c, 0, 67, 100
1, 36478, Note_on_c, 0, 72, 100
1, 36574, Note_off_c, 0, 72, 100
1, 36574, Note_on_c, 0, 74, 100
1, 36766, Note_off_c, 0, 74, 100
1, 36766, Note_on_c, 0, 72, 100
1, 36862, Note_off_c, 0, 72, 100
1, 36862, Note_on_c, 0, 71, 100
1, 36958, Note_off_c, 0, 71, 100
1, 36958, Note_on_c, 0, 68, 100
1, 37054, Note_off_c, 0, 68, 100
1, 37054, Note_on_c, 0, 67, 100
1, 37150, Note_off_c, 0, 67, 100
1, 37150, Note_on_c, 0, 66, 100
1, 37246, Note_off_c, 0, 66, 100
1, 37246, Note_on_c, 0, 65, 100
1, 37374, Note_off_c, 0, 65, 100
1, 37374, Note_on_c, 0, 63, 100
1, 37438, Note_off_c, 0, 63, 100
1, 37438, Note_on_c, 0, 62, 100
1, 37534, Note_off_c, 0, 62, 100
1, 37534, Note_on_c, 0, 60, 100
1, 37630, Note_off_c, 0, 60, 100
1, 37630, Note_on_c, 0, 63, 100
1, 37726, Note_off_c, 0, 63, 100
1, 37726, Note_on_c, 0, 55, 100
1, 37822, Note_off_c, 0, 55, 100
1, 37822, Note_on_c, 0, 57, 100
1, 37918, Note_off_c, 0, 57, 100
1, 37918, Note_on_c, 0, 59, 100
1, 38014, Note_off_c, 0, 59, 100
1, 38014, Note_on_c, 0, 60, 100
1, 38158, Note_off_c, 0, 60, 100
1, 38158, Note_on_c, 0, 62, 100
1, 38206, Note_off_c, 0, 62, 100
1, 38206, Note_on_c, 0, 63, 100
1, 38302, Note_off_c, 0, 63, 100
1, 38302, Note_on_c, 0, 65, 100
1, 38398, Note_off_c, 0, 65, 100
1, 38398, Note_on_c, 0, 67, 100
1, 38494, Note_off_c, 0, 67, 100
1, 38494, Note_on_c, 0, 72, 100
1, 38590, Note_off_c, 0, 72, 100
1, 38590, Note_on_c, 0, 67, 100
1, 38686, Note_off_c, 0, 67, 100
1, 38686, Note_on_c, 0, 65, 100
1, 39070, Note_off_c, 0, 65, 100
1, 39070, Note_on_c, 0, 63, 100
1, 39166, Note_off_c, 0, 63, 100
1, 39166, Note_on_c, 0, 67, 100
1, 39262, Note_off_c, 0, 67, 100
1, 39262, Note_on_c, 0, 63, 100
1, 39358, Note_off_c, 0, 63, 100
1, 39358, Note_on_c, 0, 62, 100
1, 39454, Note_off_c, 0, 62, 100
1, 39454, Note_on_c, 0, 65, 100
1, 39550, Note_off_c, 0, 65, 100
1, 39550, Note_on_c, 0, 63, 100
1, 39646, Note_off_c, 0, 63, 100
1, 39646, Note_on_c, 0, 60, 100
1, 39838, Note_off_c, 0, 60, 100
1, 40318, Note_on_c, 0, 64, 100
1, 40414, Note_off_c, 0, 64, 100
1, 40414, Note_on_c, 0, 63, 100
1, 40510, Note_off_c, 0, 63, 100
1, 40510, Note_on_c, 0, 64, 100
1, 40606, Note_off_c, 0, 64, 100
1, 40606, Note_on_c, 0, 67, 100
1, 40702, Note_off_c, 0, 67, 100
1, 40702, Note_on_c, 0, 65, 100
1, 40798, Note_off_c, 0, 65, 100
1, 40798, Note_on_c, 0, 60, 100
1, 40894, Note_off_c, 0, 60, 100
1, 40894, Note_on_c, 0, 65, 100
1, 40990, Note_off_c, 0, 65, 100
1, 40990, Note_on_c, 0, 68, 100
1, 41086, Note_off_c, 0, 68, 100
1, 41086, Note_on_c, 0, 67, 100
1, 41182, Note_off_c, 0, 67, 100
1, 41182, Note_on_c, 0, 63, 100
1, 41278, Note_off_c, 0, 63, 100
1, 41278, Note_on_c, 0, 67, 100
1, 41374, Note_off_c, 0, 67, 100
1, 41374, Note_on_c, 0, 70, 100
1, 41470, Note_off_c, 0, 70, 100
1, 41470, Note_on_c, 0, 67, 100
1, 41566, Note_off_c, 0, 67, 100
1, 41566, Note_on_c, 0, 63, 100
1, 41710, Note_off_c, 0, 63, 100
1, 41710, Note_on_c, 0, 60, 100
1, 41806, Note_off_c, 0, 60, 100
1, 41806, Note_on_c, 0, 56, 100
1, 41854, Note_off_c, 0, 56, 100
1, 41854, Note_on_c, 0, 62, 100
1, 41950, Note_off_c, 0, 62, 100
1, 41950, Note_on_c, 0, 60, 100
1, 42046, Note_off_c, 0, 60, 100
1, 42046, Note_on_c, 0, 58, 100
1, 42142, Note_off_c, 0, 58, 100
1, 42142, Note_on_c, 0, 56, 100
1, 42238, Note_off_c, 0, 56, 100
1, 42238, Note_on_c, 0, 55, 100
1, 42334, Note_off_c, 0, 55, 100
1, 42334, Note_on_c, 0, 57, 100
1, 42430, Note_off_c, 0, 57, 100
1, 42430, Note_on_c, 0, 59, 100
1, 42526, Note_off_c, 0, 59, 100
1, 42526, Note_on_c, 0, 62, 100
1, 42622, Note_off_c, 0, 62, 100
1, 42622, Note_on_c, 0, 59, 100
1, 42718, Note_off_c, 0, 59, 100
1, 42718, Note_on_c, 0, 62, 100
1, 42814, Note_off_c, 0, 62, 100
1, 42814, Note_on_c, 0, 63, 100
1, 42910, Note_off_c, 0, 63, 100
1, 42910, Note_on_c, 0, 65, 100
1, 43006, Note_off_c, 0, 65, 100
1, 43006, Note_on_c, 0, 67, 100
1, 43102, Note_off_c, 0, 67, 100
1, 43102, Note_on_c, 0, 63, 100
1, 43198, Note_off_c, 0, 63, 100
1, 43198, Note_on_c, 0, 65, 100
1, 43294, Note_off_c, 0, 65, 100
1, 43294, Note_on_c, 0, 60, 100
1, 43390, Note_off_c, 0, 60, 100
1, 43390, Note_on_c, 0, 63, 100
1, 43486, Note_off_c, 0, 63, 100
1, 43486, Note_on_c, 0, 60, 100
1, 43582, Note_off_c, 0, 60, 100
1, 43582, Note_on_c, 0, 58, 100
1, 43678, Note_off_c, 0, 58, 100
1, 43678, Note_on_c, 0, 54, 100
1, 43774, Note_off_c, 0, 54, 100
1, 43774, Note_on_c, 0, 56, 100
1, 43870, Note_off_c, 0, 56, 100
1, 43870, Note_on_c, 0, 58, 100
1, 43966, Note_off_c, 0, 58, 100
1, 43966, Note_on_c, 0, 60, 100
1, 44062, Note_off_c, 0, 60, 100
1, 44062, Note_on_c, 0, 63, 100
1, 44158, Note_off_c, 0, 63, 100
1, 44158, Note_on_c, 0, 65, 100
1, 44254, Note_off_c, 0, 65, 100
1, 44254, Note_on_c, 0, 66, 100
1, 44350, Note_off_c, 0, 66, 100
1, 44350, Note_on_c, 0, 68, 100
1, 44446, Note_off_c, 0, 68, 100
1, 44446, Note_on_c, 0, 70, 100
1, 44542, Note_off_c, 0, 70, 100
1, 44542, Note_on_c, 0, 71, 100
1, 44638, Note_off_c, 0, 71, 100
1, 44974, Note_on_c, 0, 70, 100
1, 45022, Note_off_c, 0, 70, 100
1, 45022, Note_on_c, 0, 72, 100
1, 45070, Note_off_c, 0, 72, 100
1, 45070, Note_on_c, 0, 73, 100
1, 45118, Note_off_c, 0, 73, 100
1, 45118, Note_on_c, 0, 74, 100
1, 45262, Note_off_c, 0, 74, 100
1, 45262, Note_on_c, 0, 72, 100
1, 45310, Note_off_c, 0, 72, 100
1, 45310, Note_on_c, 0, 71, 100
1, 45406, Note_off_c, 0, 71, 100
1, 45406, Note_on_c, 0, 67, 100
1, 45502, Note_off_c, 0, 67, 100
1, 45502, Note_on_c, 0, 69, 100
1, 45598, Note_off_c, 0, 69, 100
1, 45598, Note_on_c, 0, 71, 100
1, 45694, Note_off_c, 0, 71, 100
1, 45694, Note_on_c, 0, 69, 100
1, 45790, Note_off_c, 0, 69, 100
1, 45790, Note_on_c, 0, 65, 100
1, 45886, Note_off_c, 0, 65, 100
1, 46334, Note_on_c, 0, 64, 100
1, 46398, Note_off_c, 0, 64, 100
1, 46398, Note_on_c, 0, 65, 100
1, 47134, Note_off_c, 0, 65, 100
1, 47134, Note_on_c, 0, 63, 100
1, 47230, Note_off_c, 0, 63, 100
1, 47230, Note_on_c, 0, 65, 100
1, 47374, Note_off_c, 0, 65, 100
1, 47374, Note_on_c, 0, 63, 100
1, 47518, Note_off_c, 0, 63, 100
1, 47518, Note_on_c, 0, 65, 100
1, 47806, Note_off_c, 0, 65, 100
1, 47806, Note_on_c, 0, 63, 100
1, 47950, Note_off_c, 0, 63, 100
1, 47950, Note_on_c, 0, 65, 100
1, 48238, Note_off_c, 0, 65, 100
1, 48478, Note_on_c, 0, 67, 100
1, 48574, Note_off_c, 0, 67, 100
1, 48574, Note_on_c, 0, 66, 100
1, 48670, Note_off_c, 0, 66, 100
1, 48670, Note_on_c, 0, 63, 100
1, 48766, Note_off_c, 0, 63, 100
1, 48766, Note_on_c, 0, 62, 100
1, 48862, Note_off_c, 0, 62, 100
1, 48862, Note_on_c, 0, 65, 100
1, 48958, Note_off_c, 0, 65, 100
1, 48958, Note_on_c, 0, 63, 100
1, 49006, Note_off_c, 0, 63, 100
1, 49006, Note_on_c, 0, 60, 100
1, 49102, Note_off_c, 0, 60, 100
1, 49102, Note_on_c, 0, 59, 100
1, 49246, Note_off_c, 0, 59, 100
1, 49246, Note_on_c, 0, 55, 100
1, 49342, Note_off_c, 0, 55, 100
1, 49342, Note_on_c, 0, 59, 100
1, 49438, Note_off_c, 0, 59, 100
1, 49438, Note_on_c, 0, 62, 100
1, 49534, Note_off_c, 0, 62, 100
1, 49534, Note_on_c, 0, 60, 100
1, 49630, Note_off_c, 0, 60, 100
1, 49630, Note_on_c, 0, 62, 100
1, 49726, Note_off_c, 0, 62, 100
1, 49726, Note_on_c, 0, 64, 100
1, 49822, Note_off_c, 0, 64, 100
1, 49822, Note_on_c, 0, 67, 100
1, 49918, Note_off_c, 0, 67, 100
1, 49918, Note_on_c, 0, 65, 100
1, 50014, Note_off_c, 0, 65, 100
1, 50014, Note_on_c, 0, 64, 100
1, 50110, Note_off_c, 0, 64, 100
1, 50110, Note_on_c, 0, 63, 100
1, 50206, Note_off_c, 0, 63, 100
1, 50206, Note_on_c, 0, 62, 100
1, 50302, Note_off_c, 0, 62, 100
1, 50302, Note_on_c, 0, 60, 100
1, 50398, Note_off_c, 0, 60, 100
1, 50398, Note_on_c, 0, 56, 100
1, 50494, Note_off_c, 0, 56, 100
1, 50494, Note_on_c, 0, 55, 100
1, 50590, Note_off_c, 0, 55, 100
1, 50590, Note_on_c, 0, 56, 100
1, 50686, Note_off_c, 0, 56, 100
1, 50686, Note_on_c, 0, 58, 100
1, 50782, Note_off_c, 0, 58, 100
1, 50782, Note_on_c, 0, 60, 100
1, 50878, Note_off_c, 0, 60, 100
1, 50878, Note_on_c, 0, 62, 100
1, 50974, Note_off_c, 0, 62, 100
1, 50974, Note_on_c, 0, 65, 100
1, 51070, Note_off_c, 0, 65, 100
1, 51070, Note_on_c, 0, 70, 100
1, 51358, Note_off_c, 0, 70, 100
1, 51358, Note_on_c, 0, 68, 100
1, 51454, Note_off_c, 0, 68, 100
1, 51454, Note_on_c, 0, 67, 100
1, 51550, Note_off_c, 0, 67, 100
1, 51550, Note_on_c, 0, 63, 100
1, 51646, Note_off_c, 0, 63, 100
1, 51646, Note_on_c, 0, 62, 100
1, 51742, Note_off_c, 0, 62, 100
1, 51742, Note_on_c, 0, 65, 100
1, 51838, Note_off_c, 0, 65, 100
1, 51838, Note_on_c, 0, 63, 100
1, 51934, Note_off_c, 0, 63, 100
1, 51934, Note_on_c, 0, 60, 100
1, 52030, Note_off_c, 0, 60, 100
1, 52558, Note_on_c, 0, 70, 100
1, 52702, Note_off_c, 0, 70, 100
1, 52702, Note_on_c, 0, 70, 100
1, 53246, Note_off_c, 0, 70, 100
1, 53246, Note_on_c, 0, 66, 100
1, 53374, Note_off_c, 0, 66, 100
1, 53374, Note_on_c, 0, 70, 100
1, 53470, Note_off_c, 0, 70, 100
1, 53470, Note_on_c, 0, 73, 100
1, 53662, Note_off_c, 0, 73, 100
1, 53662, Note_on_c, 0, 70, 100
1, 53758, Note_off_c, 0, 70, 100
1, 53758, Note_on_c, 0, 66, 100
1, 53854, Note_off_c, 0, 66, 100
1, 53854, Note_on_c, 0, 63, 100
1, 54014, Note_off_c, 0, 63, 100
1, 54014, Note_on_c, 0, 72, 100
1, 54257, Note_off_c, 0, 72, 100
1, 54257, Note_on_c, 0, 69, 100
1, 54295, Note_off_c, 0, 69, 100
1, 54295, Note_on_c, 0, 65, 100
1, 54333, Note_off_c, 0, 65, 100
1, 54333, Note_on_c, 0, 62, 100
1, 54429, Note_off_c, 0, 62, 100
1, 54429, Note_on_c, 0, 65, 100
1, 54477, Note_off_c, 0, 65, 100
1, 54477, Note_on_c, 0, 72, 100
1, 54525, Note_off_c, 0, 72, 100
1, 54525, Note_on_c, 0, 71, 100
1, 55149, Note_off_c, 0, 71, 100
1, 55149, Note_on_c, 0, 67, 100
1, 55197, Note_off_c, 0, 67, 100
1, 55197, Note_on_c, 0, 69, 100
1, 55245, Note_off_c, 0, 69, 100
1, 55245, Note_on_c, 0, 71, 100
1, 55293, Note_off_c, 0, 71, 100
1, 55293, Note_on_c, 0, 69, 100
1, 55389, Note_off_c, 0, 69, 100
1, 55389, Note_on_c, 0, 65, 100
1, 55485, Note_off_c, 0, 65, 100
1, 55485, Note_on_c, 0, 62, 100
1, 55581, Note_off_c, 0, 62, 100
1, 55581, Note_on_c, 0, 59, 100
1, 55677, Note_off_c, 0, 59, 100
1, 55677, Note_on_c, 0, 67, 100
1, 55869, Note_off_c, 0, 67, 100
1, 56205, Note_on_c, 0, 67, 100
1, 56253, Note_off_c, 0, 67, 100
1, 56253, Note_on_c, 0, 69, 100
1, 56349, Note_off_c, 0, 69, 100
1, 56349, Note_on_c, 0, 72, 100
1, 56541, Note_off_c, 0, 72, 100
1, 56541, Note_on_c, 0, 72, 100
1, 56637, Note_off_c, 0, 72, 100
1, 56637, Note_on_c, 0, 74, 100
1, 57165, Note_off_c, 0, 74, 100
1, 57165, Note_on_c, 0, 72, 100
1, 57213, Note_off_c, 0, 72, 100
1, 57213, Note_on_c, 0, 74, 100
1, 57405, Note_off_c, 0, 74, 100
1, 57405, Note_on_c, 0, 75, 100
1, 57549, Note_off_c, 0, 75, 100
1, 57549, Note_on_c, 0, 74, 100
1, 57645, Note_off_c, 0, 74, 100
1, 57933, Note_on_c, 0, 73, 100
1, 57981, Note_off_c, 0, 73, 100
1, 57981, Note_on_c, 0, 74, 100
1, 58269, Note_off_c, 0, 74, 100
1, 58269, Note_on_c, 0, 73, 100
1, 58365, Note_off_c, 0, 73, 100
1, 58365, Note_on_c, 0, 71, 100
1, 58413, Note_off_c, 0, 71, 100
1, 58413, Note_on_c, 0, 70, 100
1, 58653, Note_off_c, 0, 70, 100
1, 58653, Note_on_c, 0, 64, 100
1, 58749, Note_off_c, 0, 64, 100
1, 58749, Note_on_c, 0, 68, 100
1, 58797, Note_off_c, 0, 68, 100
1, 58797, Note_on_c, 0, 70, 100
1, 58845, Note_off_c, 0, 70, 100
1, 58845, Note_on_c, 0, 75, 100
1, 59085, Note_off_c, 0, 75, 100
1, 59085, Note_on_c, 0, 73, 100
1, 59181, Note_off_c, 0, 73, 100
1, 59181, Note_on_c, 0, 72, 100
1, 59277, Note_off_c, 0, 72, 100
1, 59277, Note_on_c, 0, 67, 100
1, 59469, Note_off_c, 0, 67, 100
1, 59469, Note_on_c, 0, 70, 100
1, 59565, Note_off_c, 0, 70, 100
1, 59565, Note_on_c, 0, 67, 100
1, 59661, Note_off_c, 0, 67, 100
1, 59661, Note_on_c, 0, 63, 100
1, 59709, Note_off_c, 0, 63, 100
1, 59709, Note_on_c, 0, 64, 100
1, 59805, Note_off_c, 0, 64, 100
1, 59805, Note_on_c, 0, 67, 100
1, 59901, Note_off_c, 0, 67, 100
1, 59901, Note_on_c, 0, 65, 100
1, 59997, Note_off_c, 0, 65, 100
1, 59997, Note_on_c, 0, 68, 100
1, 60093, Note_off_c, 0, 68, 100
1, 60093, Note_on_c, 0, 71, 100
1, 60189, Note_off_c, 0, 71, 100
1, 60189, Note_on_c, 0, 75, 100
1, 60381, Note_off_c, 0, 75, 100
1, 60381, Note_on_c, 0, 75, 100
1, 60429, Note_off_c, 0, 75, 100
1, 60429, Note_on_c, 0, 79, 100
1, 60861, Note_off_c, 0, 79, 100
1, 60861, Note_on_c, 0, 70, 100
1, 61005, Note_off_c, 0, 70, 100
1, 61005, Note_on_c, 0, 77, 100
1, 61117, Note_off_c, 0, 77, 100
1, 61117, Note_on_c, 0, 74, 100
1, 61181, Note_off_c, 0, 74, 100
1, 61181, Note_on_c, 0, 68, 100
1, 61373, Note_off_c, 0, 68, 100
1, 61725, Note_on_c, 0, 73, 100
1, 61821, Note_off_c, 0, 73, 100
1, 61821, Note_on_c, 0, 74, 100
1, 62301, Note_off_c, 0, 74, 100
1, 62301, Note_on_c, 0, 70, 100
1, 62397, Note_off_c, 0, 70, 100
1, 62397, Note_on_c, 0, 66, 100
1, 62445, Note_off_c, 0, 66, 100
1, 62445, Note_on_c, 0, 62, 100
1, 62493, Note_off_c, 0, 62, 100
1, 62493, Note_on_c, 0, 58, 100
1, 62541, Note_off_c, 0, 58, 100
1, 62541, Note_on_c, 0, 54, 100
1, 62589, Note_off_c, 0, 54, 100
1, 62589, Note_on_c, 0, 50, 100
1, 62637, Note_off_c, 0, 50, 100
1, 62637, Note_on_c, 0, 51, 100
1, 62685, Note_off_c, 0, 51, 100
1, 62685, Note_on_c, 0, 54, 100
1, 62733, Note_off_c, 0, 54, 100
1, 62733, Note_on_c, 0, 57, 100
1, 62819, Note_off_c, 0, 57, 100
1, 62819, Note_on_c, 0, 62, 100
1, 62857, Note_off_c, 0, 62, 100
1, 62857, Note_on_c, 0, 66, 100
1, 62895, Note_off_c, 0, 66, 100
1, 62895, Note_on_c, 0, 68, 100
1, 62971, Note_off_c, 0, 68, 100
1, 62971, Note_on_c, 0, 70, 100
1, 63163, Note_off_c, 0, 70, 100
1, 63163, Note_on_c, 0, 57, 100
1, 63227, Note_off_c, 0, 57, 100
1, 63227, Note_on_c, 0, 59, 100
1, 63291, Note_off_c, 0, 59, 100
1, 63291, Note_on_c, 0, 61, 100
1, 63355, Note_off_c, 0, 61, 100
1, 63355, Note_on_c, 0, 63, 100
1, 63403, Note_off_c, 0, 63, 100
1, 63403, Note_on_c, 0, 67, 100
1, 63451, Note_off_c, 0, 67, 100
1, 63451, Note_on_c, 0, 71, 100
1, 63547, Note_off_c, 0, 71, 100
1, 63547, Note_on_c, 0, 75, 100
1, 63931, Note_off_c, 0, 75, 100
1, 63931, Note_on_c, 0, 71, 100
1, 64027, Note_off_c, 0, 71, 100
1, 64027, Note_on_c, 0, 74, 100
1, 64123, Note_off_c, 0, 74, 100
1, 64123, Note_on_c, 0, 72, 100
1, 64219, Note_off_c, 0, 72, 100
1, 64219, Note_on_c, 0, 63, 100
1, 64411, Note_off_c, 0, 63, 100
1, 64795, Note_on_c, 0, 71, 100
1, 64843, Note_off_c, 0, 71, 100
1, 64843, Note_on_c, 0, 72, 100
1, 65275, Note_off_c, 0, 72, 100
1, 65275, Note_on_c, 0, 72, 100
1, 65371, Note_off_c, 0, 72, 100
1, 65371, Note_on_c, 0, 67, 100
1, 65467, Note_off_c, 0, 67, 100
1, 65467, Note_on_c, 0, 71, 100
1, 65563, Note_off_c, 0, 71, 100
1, 65563, Note_on_c, 0, 74, 100
1, 65659, Note_off_c, 0, 74, 100
1, 65659, Note_on_c, 0, 72, 100
1, 65755, Note_off_c, 0, 72, 100
1, 65755, Note_on_c, 0, 66, 100
1, 65851, Note_off_c, 0, 66, 100
1, 65851, Note_on_c, 0, 69, 100
1, 65915, Note_off_c, 0, 69, 100
1, 65915, Note_on_c, 0, 71, 100
1, 65979, Note_off_c, 0, 71, 100
1, 65979, Note_on_c, 0, 74, 100
1, 66043, Note_off_c, 0, 74, 100
1, 66043, Note_on_c, 0, 72, 100
1, 66139, Note_off_c, 0, 72, 100
1, 66139, Note_on_c, 0, 69, 100
1, 66235, Note_off_c, 0, 69, 100
1, 66235, Note_on_c, 0, 71, 100
1, 66331, Note_off_c, 0, 71, 100
1, 66331, Note_on_c, 0, 74, 100
1, 66427, Note_off_c, 0, 74, 100
1, 66427, Note_on_c, 0, 72, 100
1, 66523, Note_off_c, 0, 72, 100
1, 66523, Note_on_c, 0, 67, 100
1, 66619, Note_off_c, 0, 67, 100
1, 66619, Note_on_c, 0, 63, 100
1, 66747, Note_off_c, 0, 63, 100
1, 66747, Note_on_c, 0, 60, 100
1, 66859, Note_off_c, 0, 60, 100
1, 66859, Note_on_c, 0, 59, 100
1, 66955, Note_off_c, 0, 59, 100
1, 66955, Note_on_c, 0, 57, 100
1, 67003, Note_off_c, 0, 57, 100
1, 67003, Note_on_c, 0, 59, 100
1, 67147, Note_off_c, 0, 59, 100
1, 67147, Note_on_c, 0, 62, 100
1, 67195, Note_off_c, 0, 62, 100
1, 67195, Note_on_c, 0, 60, 100
1, 67291, Note_off_c, 0, 60, 100
1, 67291, Note_on_c, 0, 62, 100
1, 67387, Note_off_c, 0, 62, 100
1, 67387, Note_on_c, 0, 63, 100
1, 67483, Note_off_c, 0, 63, 100
1, 67483, Note_on_c, 0, 65, 100
1, 67627, Note_off_c, 0, 65, 100
1, 67627, Note_on_c, 0, 64, 100
1, 67723, Note_off_c, 0, 64, 100
1, 67723, Note_on_c, 0, 60, 100
1, 67867, Note_off_c, 0, 60, 100
1, 67867, Note_on_c, 0, 70, 100
1, 67963, Note_off_c, 0, 70, 100
1, 67963, Note_on_c, 0, 75, 100
1, 68155, Note_off_c, 0, 75, 100
1, 68155, Note_on_c, 0, 73, 100
1, 68299, Note_off_c, 0, 73, 100
1, 68299, Note_on_c, 0, 71, 100
1, 68347, Note_off_c, 0, 71, 100
1, 68347, Note_on_c, 0, 72, 100
1, 68443, Note_off_c, 0, 72, 100
1, 68443, Note_on_c, 0, 66, 100
1, 68587, Note_off_c, 0, 66, 100
1, 68587, Note_on_c, 0, 67, 100
1, 68683, Note_off_c, 0, 67, 100
1, 68683, Note_on_c, 0, 70, 100
1, 68779, Note_off_c, 0, 70, 100
1, 68779, Note_on_c, 0, 68, 100
1, 68875, Note_off_c, 0, 68, 100
1, 68875, Note_on_c, 0, 63, 100
1, 68923, Note_off_c, 0, 63, 100
1, 68923, Note_on_c, 0, 64, 100
1, 69067, Note_off_c, 0, 64, 100
1, 69067, Note_on_c, 0, 67, 100
1, 69115, Note_off_c, 0, 67, 100
1, 69115, Note_on_c, 0, 65, 100
1, 69211, Note_off_c, 0, 65, 100
1, 69211, Note_on_c, 0, 68, 100
1, 69307, Note_off_c, 0, 68, 100
1, 69307, Note_on_c, 0, 72, 100
1, 69403, Note_off_c, 0, 72, 100
1, 69403, Note_on_c, 0, 75, 100
1, 69643, Note_off_c, 0, 75, 100
1, 69643, Note_on_c, 0, 75, 100
1, 69739, Note_off_c, 0, 75, 100
1, 69739, Note_on_c, 0, 74, 100
1, 69787, Note_off_c, 0, 74, 100
1, 69787, Note_on_c, 0, 73, 100
1, 69835, Note_off_c, 0, 73, 100
1, 69835, Note_on_c, 0, 71, 100
1, 69883, Note_off_c, 0, 71, 100
1, 69883, Note_on_c, 0, 72, 100
1, 70027, Note_off_c, 0, 72, 100
1, 70027, Note_on_c, 0, 69, 100
1, 70219, Note_off_c, 0, 69, 100
1, 70603, Note_on_c, 0, 71, 100
1, 70795, Note_off_c, 0, 71, 100
1, 70795, Note_on_c, 0, 72, 100
1, 70843, Note_off_c, 0, 72, 100
1, 70843, Note_on_c, 0, 71, 100
1, 70939, Note_off_c, 0, 71, 100
1, 70939, Note_on_c, 0, 69, 100
1, 70987, Note_off_c, 0, 69, 100
1, 70987, Note_on_c, 0, 71, 100
1, 71099, Note_off_c, 0, 71, 100
1, 71099, Note_on_c, 0, 67, 100
1, 71163, Note_off_c, 0, 67, 100
1, 71163, Note_on_c, 0, 63, 100
1, 71227, Note_off_c, 0, 63, 100
1, 71227, Note_on_c, 0, 60, 100
1, 71419, Note_off_c, 0, 60, 100
1, 71419, Note_on_c, 0, 63, 100
1, 71515, Note_off_c, 0, 63, 100
1, 71515, Note_on_c, 0, 60, 100
1, 71611, Note_off_c, 0, 60, 100
1, 71611, Note_on_c, 0, 58, 100
1, 71803, Note_off_c, 0, 58, 100
1, 71803, Note_on_c, 0, 60, 100
1, 71931, Note_off_c, 0, 60, 100
1, 71931, Note_on_c, 0, 61, 100
1, 71995, Note_off_c, 0, 61, 100
1, 71995, Note_on_c, 0, 63, 100
1, 72091, Note_off_c, 0, 63, 100
1, 72091, Note_on_c, 0, 65, 100
1, 72187, Note_off_c, 0, 65, 100
1, 72187, Note_on_c, 0, 62, 100
1, 72283, Note_off_c, 0, 62, 100
1, 72283, Note_on_c, 0, 64, 100
1, 72379, Note_off_c, 0, 64, 100
1, 72379, Note_on_c, 0, 63, 100
1, 72475, Note_off_c, 0, 63, 100
1, 72475, Note_on_c, 0, 65, 100
1, 72523, Note_off_c, 0, 65, 100
1, 72523, Note_on_c, 0, 67, 100
1, 72571, Note_off_c, 0, 67, 100
1, 72571, Note_on_c, 0, 69, 100
1, 72667, Note_off_c, 0, 69, 100
1, 72667, Note_on_c, 0, 72, 100
1, 72763, Note_off_c, 0, 72, 100
1, 72763, Note_on_c, 0, 71, 100
1, 72859, Note_off_c, 0, 71, 100
1, 72859, Note_on_c, 0, 74, 100
1, 72955, Note_off_c, 0, 74, 100
1, 72955, Note_on_c, 0, 70, 100
1, 73051, Note_off_c, 0, 70, 100
1, 73051, Note_on_c, 0, 68, 100
1, 73147, Note_off_c, 0, 68, 100
1, 73147, Note_on_c, 0, 63, 100
1, 73243, Note_off_c, 0, 63, 100
1, 73243, Note_on_c, 0, 65, 100
1, 73339, Note_off_c, 0, 65, 100
1, 73339, Note_on_c, 0, 67, 100
1, 73435, Note_off_c, 0, 67, 100
1, 73435, Note_on_c, 0, 63, 100
1, 73531, Note_off_c, 0, 63, 100
1, 73531, Note_on_c, 0, 60, 100
1, 73723, Note_off_c, 0, 60, 100
1, 73723, Note_on_c, 0, 65, 100
1, 73819, Note_off_c, 0, 65, 100
1, 74203, Note_on_c, 0, 67, 100
1, 74299, Note_off_c, 0, 67, 100
1, 74299, Note_on_c, 0, 66, 100
1, 74395, Note_off_c, 0, 66, 100
1, 74395, Note_on_c, 0, 65, 100
1, 74491, Note_off_c, 0, 65, 100
1, 74491, Note_on_c, 0, 63, 100
1, 74683, Note_off_c, 0, 63, 100
1, 74683, Note_on_c, 0, 60, 100
1, 74875, Note_off_c, 0, 60, 100
1, 74875, Note_on_c, 0, 60, 100
1, 75067, Note_off_c, 0, 60, 100
1, 75067, Note_on_c, 0, 60, 100
1, 75259, Note_off_c, 0, 60, 100
1, 75259, Note_on_c, 0, 60, 100
1, 75547, Note_off_c, 0, 60, 100
1, 75547, Note_on_c, 0, 66, 100
1, 75643, Note_off_c, 0, 66, 100
1, 75643, Note_on_c, 0, 67, 100
1, 75931, Note_off_c, 0, 67, 100
1, 75931, Note_on_c, 0, 65, 100
1, 76027, Note_off_c, 0, 65, 100
1, 76027, Note_on_c, 0, 63, 100
1, 76075, Note_off_c, 0, 63, 100
1, 76075, Note_on_c, 0, 60, 100
1, 76123, Note_off_c, 0, 60, 100
1, 76123, Note_on_c, 0, 63, 100
1, 76219, Note_off_c, 0, 63, 100
1, 76219, Note_on_c, 0, 67, 100
1, 76283, Note_off_c, 0, 67, 100
1, 76283, Note_on_c, 0, 63, 100
1, 76347, Note_off_c, 0, 63, 100
1, 76347, Note_on_c, 0, 67, 100
1, 76411, Note_off_c, 0, 67, 100
1, 76411, Note_on_c, 0, 69, 100
1, 76507, Note_off_c, 0, 69, 100
1, 76507, Note_on_c, 0, 74, 100
1, 76795, Note_off_c, 0, 74, 100
1, 76795, Note_on_c, 0, 72, 100
1, 76859, Note_off_c, 0, 72, 100
1, 76859, Note_on_c, 0, 70, 100
1, 77131, Note_off_c, 0, 70, 100
1, 77131, Note_on_c, 0, 67, 100
1, 77227, Note_off_c, 0, 67, 100
1, 77227, Note_on_c, 0, 63, 100
1, 77323, Note_off_c, 0, 63, 100
1, 77323, Note_on_c, 0, 60, 100
1, 77419, Note_off_c, 0, 60, 100
1, 77659, Note_on_c, 0, 53, 100
1, 77755, Note_off_c, 0, 53, 100
1, 77755, Note_on_c, 0, 56, 100
1, 77851, Note_off_c, 0, 56, 100
1, 77851, Note_on_c, 0, 60, 100
1, 77899, Note_off_c, 0, 60, 100
1, 77899, Note_on_c, 0, 63, 100
1, 77947, Note_off_c, 0, 63, 100
1, 77947, Note_on_c, 0, 67, 100
1, 78011, Note_off_c, 0, 67, 100
1, 78011, Note_on_c, 0, 70, 100
1, 78427, Note_off_c, 0, 70, 100
1, 78427, Note_on_c, 0, 67, 100
1, 78523, Note_off_c, 0, 67, 100
1, 78523, Note_on_c, 0, 68, 100
1, 78561, Note_off_c, 0, 68, 100
1, 78561, Note_on_c, 0, 67, 100
1, 78599, Note_off_c, 0, 67, 100
1, 78599, Note_on_c, 0, 65, 100
1, 78675, Note_off_c, 0, 65, 100
1, 78675, Note_on_c, 0, 63, 100
1, 78713, Note_off_c, 0, 63, 100
1, 78713, Note_on_c, 0, 62, 100
1, 78761, Note_off_c, 0, 62, 100
1, 78761, Note_on_c, 0, 60, 100
1, 78809, Note_off_c, 0, 60, 100
1, 78809, Note_on_c, 0, 58, 100
1, 78857, Note_off_c, 0, 58, 100
1, 78857, Note_on_c, 0, 56, 100
1, 78905, Note_off_c, 0, 56, 100
1, 78905, Note_on_c, 0, 55, 100
1, 78953, Note_off_c, 0, 55, 100
1, 78953, Note_on_c, 0, 53, 100
1, 79001, Note_off_c, 0, 53, 100
1, 79001, Note_on_c, 0, 51, 100
1, 79049, Note_off_c, 0, 51, 100
1, 79049, Note_on_c, 0, 50, 100
1, 79097, Note_off_c, 0, 50, 100
1, 79097, Note_on_c, 0, 48, 100
1, 79289, Note_off_c, 0, 48, 100
1, 79625, Note_on_c, 0, 50, 100
1, 79673, Note_off_c, 0, 50, 100
1, 79673, Note_on_c, 0, 52, 100
1, 79737, Note_off_c, 0, 52, 100
1, 79737, Note_on_c, 0, 54, 100
1, 79801, Note_off_c, 0, 54, 100
1, 79801, Note_on_c, 0, 50, 100
1, 79865, Note_off_c, 0, 50, 100
1, 79865, Note_on_c, 0, 55, 100
1, 79929, Note_off_c, 0, 55, 100
1, 79929, Note_on_c, 0, 57, 100
1, 79993, Note_off_c, 0, 57, 100
1, 79993, Note_on_c, 0, 59, 100
1, 80057, Note_off_c, 0, 59, 100
1, 80057, Note_on_c, 0, 60, 100
1, 80105, Note_off_c, 0, 60, 100
1, 80105, Note_on_c, 0, 62, 100
1, 80153, Note_off_c, 0, 62, 100
1, 80153, Note_on_c, 0, 64, 100
1, 80201, Note_off_c, 0, 64, 100
1, 80201, Note_on_c, 0, 65, 100
1, 80249, Note_off_c, 0, 65, 100
1, 80249, Note_on_c, 0, 67, 100
1, 80313, Note_off_c, 0, 67, 100
1, 80313, Note_on_c, 0, 69, 100
1, 80377, Note_off_c, 0, 69, 100
1, 80377, Note_on_c, 0, 71, 100
1, 80473, Note_off_c, 0, 71, 100
1, 80729, Note_on_c, 0, 52, 100
1, 80825, Note_off_c, 0, 52, 100
1, 80825, Note_on_c, 0, 54, 100
1, 80873, Note_off_c, 0, 54, 100
1, 80873, Note_on_c, 0, 56, 100
1, 80921, Note_off_c, 0, 56, 100
1, 80921, Note_on_c, 0, 57, 100
1, 80969, Note_off_c, 0, 57, 100
1, 80969, Note_on_c, 0, 60, 100
1, 81017, Note_off_c, 0, 60, 100
1, 81017, Note_on_c, 0, 62, 100
1, 81081, Note_off_c, 0, 62, 100
1, 81081, Note_on_c, 0, 65, 100
1, 81145, Note_off_c, 0, 65, 100
1, 81145, Note_on_c, 0, 68, 100
1, 81209, Note_off_c, 0, 68, 100
1, 81209, Note_on_c, 0, 70, 100
1, 81401, Note_off_c, 0, 70, 100
1, 81401, Note_on_c, 0, 58, 100
1, 81497, Note_off_c, 0, 58, 100
1, 81497, Note_on_c, 0, 61, 100
1, 81593, Note_off_c, 0, 61, 100
1, 81593, Note_on_c, 0, 63, 100
1, 81641, Note_off_c, 0, 63, 100
1, 81641, Note_on_c, 0, 67, 100
1, 81737, Note_off_c, 0, 67, 100
1, 81737, Note_on_c, 0, 71, 100
1, 81849, Note_off_c, 0, 71, 100
1, 81849, Note_on_c, 0, 75, 100
1, 82553, Note_off_c, 0, 75, 100
1, 82553, Note_on_c, 0, 71, 100
1, 82697, Note_off_c, 0, 71, 100
1, 82697, Note_on_c, 0, 74, 100
1, 83081, Note_off_c, 0, 74, 100
1, 83705, Note_on_c, 0, 70, 100
1, 83737, Note_off_c, 0, 70, 100
1, 83737, Note_on_c, 0, 71, 100
1, 83769, Note_off_c, 0, 71, 100
1, 83769, Note_on_c, 0, 72, 100
1, 83801, Note_off_c, 0, 72, 100
1, 83801, Note_on_c, 0, 73, 100
1, 83833, Note_off_c, 0, 73, 100
1, 83833, Note_on_c, 0, 74, 100
1, 83993, Note_off_c, 0, 74, 100
1, 83993, Note_on_c, 0, 73, 100
1, 84041, Note_off_c, 0, 73, 100
1, 84041, Note_on_c, 0, 72, 100
1, 84089, Note_off_c, 0, 72, 100
1, 84089, Note_on_c, 0, 71, 100
1, 84217, Note_off_c, 0, 71, 100
1, 84217, Note_on_c, 0, 68, 100
1, 84281, Note_off_c, 0, 68, 100
1, 84281, Note_on_c, 0, 67, 100
1, 84377, Note_off_c, 0, 67, 100
1, 84377, Note_on_c, 0, 66, 100
1, 84473, Note_off_c, 0, 66, 100
1, 84473, Note_on_c, 0, 65, 100
1, 84569, Note_off_c, 0, 65, 100
1, 84569, Note_on_c, 0, 63, 100
1, 84665, Note_off_c, 0, 63, 100
1, 84665, Note_on_c, 0, 62, 100
1, 84761, Note_off_c, 0, 62, 100
1, 84761, Note_on_c, 0, 60, 100
1, 84857, Note_off_c, 0, 60, 100
1, 84857, Note_on_c, 0, 59, 100
1, 84985, Note_off_c, 0, 59, 100
1, 84985, Note_on_c, 0, 57, 100
1, 85049, Note_off_c, 0, 57, 100
1, 85049, Note_on_c, 0, 59, 100
1, 85145, Note_off_c, 0, 59, 100
1, 85145, Note_on_c, 0, 62, 100
1, 85241, Note_off_c, 0, 62, 100
1, 85241, Note_on_c, 0, 60, 100
1, 85337, Note_off_c, 0, 60, 100
1, 85337, Note_on_c, 0, 62, 100
1, 85433, Note_off_c, 0, 62, 100
1, 85433, Note_on_c, 0, 63, 100
1, 85529, Note_off_c, 0, 63, 100
1, 85529, Note_on_c, 0, 65, 100
1, 85689, Note_off_c, 0, 65, 100
1, 85689, Note_on_c, 0, 67, 100
1, 85753, Note_off_c, 0, 67, 100
1, 85753, Note_on_c, 0, 68, 100
1, 85913, Note_off_c, 0, 68, 100
1, 85913, Note_on_c, 0, 71, 100
1, 86009, Note_off_c, 0, 71, 100
1, 86009, Note_on_c, 0, 72, 100
1, 86201, Note_off_c, 0, 72, 100
1, 86201, Note_on_c, 0, 67, 100
1, 86297, Note_off_c, 0, 67, 100
1, 86297, Note_on_c, 0, 68, 100
1, 86393, Note_off_c, 0, 68, 100
1, 86393, Note_on_c, 0, 67, 100
1, 86489, Note_off_c, 0, 67, 100
1, 86489, Note_on_c, 0, 65, 100
1, 86585, Note_off_c, 0, 65, 100
1, 86585, Note_on_c, 0, 64, 100
1, 86681, Note_off_c, 0, 64, 100
1, 86681, Note_on_c, 0, 67, 100
1, 86777, Note_off_c, 0, 67, 100
1, 86777, Note_on_c, 0, 65, 100
1, 86873, Note_off_c, 0, 65, 100
1, 86873, Note_on_c, 0, 60, 100
1, 86969, Note_off_c, 0, 60, 100
1, 86969, Note_on_c, 0, 56, 100
1, 87161, Note_off_c, 0, 56, 100
1, 87161, Note_on_c, 0, 60, 100
1, 87353, Note_off_c, 0, 60, 100
1, 87353, Note_on_c, 0, 55, 100
1, 87449, Note_off_c, 0, 55, 100
1, 87449, Note_on_c, 0, 60, 100
1, 87593, Note_off_c, 0, 60, 100
1, 87593, Note_on_c, 0, 58, 100
1, 87689, Note_off_c, 0, 58, 100
1, 87689, Note_on_c, 0, 60, 100
1, 87929, Note_off_c, 0, 60, 100
1, 87929, Note_on_c, 0, 69, 100
1, 88025, Note_off_c, 0, 69, 100
1, 88025, Note_on_c, 0, 67, 100
1, 88121, Note_off_c, 0, 67, 100
1, 88121, Note_on_c, 0, 66, 100
1, 88217, Note_off_c, 0, 66, 100
1, 88217, Note_on_c, 0, 65, 100
1, 88313, Note_off_c, 0, 65, 100
1, 88313, Note_on_c, 0, 63, 100
1, 88409, Note_off_c, 0, 63, 100
1, 88409, Note_on_c, 0, 67, 100
1, 88505, Note_off_c, 0, 67, 100
1, 88505, Note_on_c, 0, 69, 100
1, 88649, Note_off_c, 0, 69, 100
1, 88649, Note_on_c, 0, 74, 100
1, 88841, Note_off_c, 0, 74, 100
1, 88841, Note_on_c, 0, 74, 100
1, 88889, Note_off_c, 0, 74, 100
1, 88889, Note_on_c, 0, 71, 100
1, 88985, Note_off_c, 0, 71, 100
1, 89465, Note_on_c, 0, 72, 100
1, 89801, Note_off_c, 0, 72, 100
1, 89801, Note_on_c, 0, 68, 100
1, 89897, Note_off_c, 0, 68, 100
1, 89897, Note_on_c, 0, 70, 100
1, 89993, Note_off_c, 0, 70, 100
1, 89993, Note_on_c, 0, 66, 100
1, 90041, Note_off_c, 0, 66, 100
1, 90041, Note_on_c, 0, 63, 100
1, 90233, Note_off_c, 0, 63, 100
1, 90233, Note_on_c, 0, 58, 100
1, 90329, Note_off_c, 0, 58, 100
1, 90329, Note_on_c, 0, 65, 100
1, 90425, Note_off_c, 0, 65, 100
1, 90761, Note_on_c, 0, 70, 100
1, 90809, Note_off_c, 0, 70, 100
1, 90809, Note_on_c, 0, 72, 100
1, 90857, Note_off_c, 0, 72, 100
1, 90857, Note_on_c, 0, 73, 100
1, 90905, Note_off_c, 0, 73, 100
1, 90905, Note_on_c, 0, 74, 100
1, 91001, Note_off_c, 0, 74, 100
1, 91001, Note_on_c, 0, 73, 100
1, 91049, Note_off_c, 0, 73, 100
1, 91049, Note_on_c, 0, 71, 100
1, 91145, Note_off_c, 0, 71, 100
1, 91145, Note_on_c, 0, 68, 100
1, 91193, Note_off_c, 0, 68, 100
1, 91193, Note_on_c, 0, 67, 100
1, 91289, Note_off_c, 0, 67, 100
1, 91289, Note_on_c, 0, 65, 100
1, 91385, Note_off_c, 0, 65, 100
1, 91385, Note_on_c, 0, 63, 100
1, 91481, Note_off_c, 0, 63, 100
1, 91481, Note_on_c, 0, 60, 100
1, 91529, Note_off_c, 0, 60, 100
1, 91529, Note_on_c, 0, 63, 100
1, 91577, Note_off_c, 0, 63, 100
1, 91577, Note_on_c, 0, 67, 100
1, 91673, Note_off_c, 0, 67, 100
1, 91673, Note_on_c, 0, 62, 100
1, 91769, Note_off_c, 0, 62, 100
1, 91769, Note_on_c, 0, 65, 100
1, 91865, Note_off_c, 0, 65, 100
1, 91865, Note_on_c, 0, 68, 100
1, 91961, Note_off_c, 0, 68, 100
1, 92489, Note_on_c, 0, 68, 100
1, 92729, Note_off_c, 0, 68, 100
1, 92729, Note_on_c, 0, 67, 100
1, 92825, Note_off_c, 0, 67, 100
1, 92825, Note_on_c, 0, 65, 100
1, 92921, Note_off_c, 0, 65, 100
1, 92921, Note_on_c, 0, 63, 100
1, 93113, Note_off_c, 0, 63, 100
1, 93113, Note_on_c, 0, 59, 100
1, 93209, Note_off_c, 0, 59, 100
1, 93209, Note_on_c, 0, 62, 100
1, 93305, Note_off_c, 0, 62, 100
1, 93305, Note_on_c, 0, 60, 100
1, 93401, Note_off_c, 0, 60, 100
1, 93401, Note_on_c, 0, 62, 100
1, 93593, Note_off_c, 0, 62, 100
1, 93593, Note_on_c, 0, 65, 100
1, 93737, Note_off_c, 0, 65, 100
1, 93737, Note_on_c, 0, 66, 100
1, 93833, Note_off_c, 0, 66, 100
1, 93833, Note_on_c, 0, 67, 100
1, 93881, Note_off_c, 0, 67, 100
1, 93881, Note_on_c, 0, 68, 100
1, 93977, Note_off_c, 0, 68, 100
1, 93977, Note_on_c, 0, 66, 100
1, 94073, Note_off_c, 0, 66, 100
1, 94073, Note_on_c, 0, 67, 100
1, 94169, Note_off_c, 0, 67, 100
1, 94169, Note_on_c, 0, 63, 100
1, 94265, Note_off_c, 0, 63, 100
1, 94265, Note_on_c, 0, 62, 100
1, 94361, Note_off_c, 0, 62, 100
1, 94361, Note_on_c, 0, 65, 100
1, 94457, Note_off_c, 0, 65, 100
1, 94457, Note_on_c, 0, 63, 100
1, 94553, Note_off_c, 0, 63, 100
1, 94553, Note_on_c, 0, 60, 100
1, 94649, Note_off_c, 0, 60, 100
1, 94649, Note_on_c, 0, 59, 100
1, 94745, Note_off_c, 0, 59, 100
1, 94745, Note_on_c, 0, 62, 100
1, 94841, Note_off_c, 0, 62, 100
1, 94841, Note_on_c, 0, 60, 100
1, 94937, Note_off_c, 0, 60, 100
1, 94937, Note_on_c, 0, 62, 100
1, 95033, Note_off_c, 0, 62, 100
1, 95225, Note_on_c, 0, 72, 100
1, 95321, Note_off_c, 0, 72, 100
1, 95321, Note_on_c, 0, 66, 100
1, 95417, Note_off_c, 0, 66, 100
1, 95417, Note_on_c, 0, 67, 100
1, 95513, Note_off_c, 0, 67, 100
1, 95513, Note_on_c, 0, 70, 100
1, 95609, Note_off_c, 0, 70, 100
1, 95609, Note_on_c, 0, 68, 100
1, 95705, Note_off_c, 0, 68, 100
1, 95705, Note_on_c, 0, 67, 100
1, 95801, Note_off_c, 0, 67, 100
1, 95801, Note_on_c, 0, 64, 100
1, 95993, Note_off_c, 0, 64, 100
1, 95993, Note_on_c, 0, 67, 100
1, 96089, Note_off_c, 0, 67, 100
1, 96089, Note_on_c, 0, 65, 100
1, 96569, Note_off_c, 0, 65, 100
1, 96569, Note_on_c, 0, 63, 100
1, 96761, Note_off_c, 0, 63, 100
1, 96761, Note_on_c, 0, 65, 100
1, 97001, Note_off_c, 0, 65, 100
1, 97001, Note_on_c, 0, 63, 100
1, 97097, Note_off_c, 0, 63, 100
1, 97097, Note_on_c, 0, 65, 100
1, 97193, Note_off_c, 0, 65, 100
1, 97193, Note_on_c, 0, 63, 100
1, 97289, Note_off_c, 0, 63, 100
1, 97289, Note_on_c, 0, 60, 100
1, 97337, Note_off_c, 0, 60, 100
1, 97337, Note_on_c, 0, 58, 100
1, 97433, Note_off_c, 0, 58, 100
1, 97433, Note_on_c, 0, 56, 100
1, 97529, Note_off_c, 0, 56, 100
1, 97529, Note_on_c, 0, 55, 100
1, 97625, Note_off_c, 0, 55, 100
1, 97625, Note_on_c, 0, 57, 100
1, 97721, Note_off_c, 0, 57, 100
1, 97721, Note_on_c, 0, 59, 100
1, 97817, Note_off_c, 0, 59, 100
1, 97817, Note_on_c, 0, 62, 100
1, 97913, Note_off_c, 0, 62, 100
1, 97913, Note_on_c, 0, 60, 100
1, 98105, Note_off_c, 0, 60, 100
1, 98105, Note_on_c, 0, 62, 100
1, 98201, Note_off_c, 0, 62, 100
1, 98201, Note_on_c, 0, 63, 100
1, 98297, Note_off_c, 0, 63, 100
1, 98585, Note_on_c, 0, 62, 100
1, 98633, Note_off_c, 0, 62, 100
1, 98633, Note_on_c, 0, 63, 100
1, 98969, Note_off_c, 0, 63, 100
1, 98969, Note_on_c, 0, 62, 100
1, 99065, Note_off_c, 0, 62, 100
1, 99065, Note_on_c, 0, 63, 100
1, 99161, Note_off_c, 0, 63, 100
1, 99161, Note_on_c, 0, 65, 100
1, 99209, Note_off_c, 0, 65, 100
1, 99209, Note_on_c, 0, 67, 100
1, 99257, Note_off_c, 0, 67, 100
1, 99257, Note_on_c, 0, 68, 100
1, 99321, Note_off_c, 0, 68, 100
1, 99321, Note_on_c, 0, 69, 100
1, 99385, Note_off_c, 0, 69, 100
1, 99385, Note_on_c, 0, 73, 100
1, 99449, Note_off_c, 0, 73, 100
1, 99449, Note_on_c, 0, 72, 100
1, 99737, Note_off_c, 0, 72, 100
1, 99737, Note_on_c, 0, 70, 100
1, 99833, Note_off_c, 0, 70, 100
1, 99833, Note_on_c, 0, 62, 100
1, 99929, Note_off_c, 0, 62, 100
1, 99929, Note_on_c, 0, 65, 100
1, 100025, Note_off_c, 0, 65, 100
1, 100025, Note_on_c, 0, 67, 100
1, 100089, Note_off_c, 0, 67, 100
1, 100089, Note_on_c, 0, 69, 100
1, 100153, Note_off_c, 0, 69, 100
1, 100153, Note_on_c, 0, 72, 100
1, 100217, Note_off_c, 0, 72, 100
1, 100217, Note_on_c, 0, 71, 100
1, 100505, Note_off_c, 0, 71, 100
1, 100505, Note_on_c, 0, 68, 100
1, 100601, Note_off_c, 0, 68, 100
1, 100601, Note_on_c, 0, 67, 100
1, 100697, Note_off_c, 0, 67, 100
1, 100697, Note_on_c, 0, 63, 100
1, 100793, Note_off_c, 0, 63, 100
1, 101513, Note_on_c, 0, 70, 100
1, 101561, Note_off_c, 0, 70, 100
1, 101561, Note_on_c, 0, 71, 100
1, 102041, Note_off_c, 0, 71, 100
1, 102041, Note_on_c, 0, 67, 100
1, 102137, Note_off_c, 0, 67, 100
1, 102137, Note_on_c, 0, 71, 100
1, 102185, Note_off_c, 0, 71, 100
1, 102185, Note_on_c, 0, 72, 100
1, 102473, Note_off_c, 0, 72, 100
1, 102713, Note_on_c, 0, 79, 100
1, 103049, Note_off_c, 0, 79, 100
1, 103049, Note_on_c, 0, 77, 100
1, 103193, Note_off_c, 0, 77, 100
1, 103193, Note_on_c, 0, 75, 100
1, 103353, Note_off_c, 0, 75, 100
1, 103353, Note_on_c, 0, 77, 100
1, 103481, Note_off_c, 0, 77, 100
1, 103481, Note_on_c, 0, 79, 100
1, 103673, Note_off_c, 0, 79, 100
1, 103673, Note_on_c, 0, 77, 100
1, 103801, Note_off_c, 0, 77, 100
1, 103801, Note_on_c, 0, 75, 100
1, 104393, Note_off_c, 0, 75, 100
1, 104393, Note_on_c, 0, 72, 100
1, 104729, Note_off_c, 0, 72, 100
1, 104729, Note_on_c, 0, 70, 100
1, 104825, Note_off_c, 0, 70, 100
1, 104825, Note_on_c, 0, 72, 100
1, 105161, Note_off_c, 0, 72, 100
1, 105161, Note_on_c, 0, 70, 100
1, 105209, Note_off_c, 0, 70, 100
1, 105209, Note_on_c, 0, 68, 100
1, 105305, Note_off_c, 0, 68, 100
1, 105305, Note_on_c, 0, 63, 100
1, 105401, Note_off_c, 0, 63, 100
1, 105401, Note_on_c, 0, 64, 100
1, 105497, Note_off_c, 0, 64, 100
1, 105497, Note_on_c, 0, 67, 100
1, 105593, Note_off_c, 0, 67, 100
1, 105593, Note_on_c, 0, 65, 100
1, 105689, Note_off_c, 0, 65, 100
1, 105689, Note_on_c, 0, 68, 100
1, 105785, Note_off_c, 0, 68, 100
1, 105785, Note_on_c, 0, 72, 100
1, 105929, Note_off_c, 0, 72, 100
1, 105929, Note_on_c, 0, 73, 100
1, 105977, Note_off_c, 0, 73, 100
1, 105977, Note_on_c, 0, 75, 100
1, 106073, Note_off_c, 0, 75, 100
1, 106073, Note_on_c, 0, 72, 100
1, 106169, Note_off_c, 0, 72, 100
1, 106169, Note_on_c, 0, 68, 100
1, 106265, Note_off_c, 0, 68, 100
1, 106265, Note_on_c, 0, 67, 100
1, 106425, Note_off_c, 0, 67, 100
1, 106425, Note_on_c, 0, 65, 100
1, 106521, Note_off_c, 0, 65, 100
1, 106841, Note_on_c, 0, 67, 100
1, 106985, Note_off_c, 0, 67, 100
1, 106985, Note_on_c, 0, 66, 100
1, 107081, Note_off_c, 0, 66, 100
1, 107081, Note_on_c, 0, 65, 100
1, 107129, Note_off_c, 0, 65, 100
1, 107129, Note_on_c, 0, 64, 100
1, 107225, Note_off_c, 0, 64, 100
1, 107225, Note_on_c, 0, 63, 100
1, 107321, Note_off_c, 0, 63, 100
1, 107321, Note_on_c, 0, 62, 100
1, 107417, Note_off_c, 0, 62, 100
1, 107417, Note_on_c, 0, 60, 100
1, 107577, Note_off_c, 0, 60, 100
1, 107577, Note_on_c, 0, 59, 100
1, 107641, Note_off_c, 0, 59, 100
1, 107641, Note_on_c, 0, 60, 100
1, 107705, Note_off_c, 0, 60, 100
1, 107705, Note_on_c, 0, 62, 100
1, 107801, Note_off_c, 0, 62, 100
1, 107801, Note_on_c, 0, 63, 100
1, 107897, Note_off_c, 0, 63, 100
1, 107897, Note_on_c, 0, 60, 100
1, 108025, Note_off_c, 0, 60, 100
1, 108025, Note_on_c, 0, 62, 100
1, 108089, Note_off_c, 0, 62, 100
1, 108089, Note_on_c, 0, 63, 100
1, 108233, Note_off_c, 0, 63, 100
1, 108233, Note_on_c, 0, 65, 100
1, 108329, Note_off_c, 0, 65, 100
1, 108329, Note_on_c, 0, 66, 100
1, 108425, Note_off_c, 0, 66, 100
1, 108425, Note_on_c, 0, 68, 100
1, 108521, Note_off_c, 0, 68, 100
1, 108521, Note_on_c, 0, 70, 100
1, 108617, Note_off_c, 0, 70, 100
1, 108617, Note_on_c, 0, 73, 100
1, 108713, Note_off_c, 0, 73, 100
1, 108713, Note_on_c, 0, 70, 100
1, 108809, Note_off_c, 0, 70, 100
1, 108809, Note_on_c, 0, 66, 100
1, 108905, Note_off_c, 0, 66, 100
1, 108905, Note_on_c, 0, 63, 100
1, 109001, Note_off_c, 0, 63, 100
1, 109001, Note_on_c, 0, 61, 100
1, 109097, Note_off_c, 0, 61, 100
1, 109097, Note_on_c, 0, 62, 100
1, 109193, Note_off_c, 0, 62, 100
1, 109193, Note_on_c, 0, 64, 100
1, 109289, Note_off_c, 0, 64, 100
1, 109289, Note_on_c, 0, 65, 100
1, 109385, Note_off_c, 0, 65, 100
1, 109385, Note_on_c, 0, 62, 100
1, 109433, Note_off_c, 0, 62, 100
1, 109433, Note_on_c, 0, 67, 100
1, 109529, Note_off_c, 0, 67, 100
1, 109529, Note_on_c, 0, 63, 100
1, 109625, Note_off_c, 0, 63, 100
1, 109625, Note_on_c, 0, 59, 100
1, 109817, Note_off_c, 0, 59, 100
1, 109817, Note_on_c, 0, 63, 100
1, 109913, Note_off_c, 0, 63, 100
1, 109913, Note_on_c, 0, 60, 100
1, 109961, Note_off_c, 0, 60, 100
1, 109961, Note_on_c, 0, 63, 100
1, 110073, Note_off_c, 0, 63, 100
1, 110073, Note_on_c, 0, 67, 100
1, 110137, Note_off_c, 0, 67, 100
1, 110137, Note_on_c, 0, 63, 100
1, 110201, Note_off_c, 0, 63, 100
1, 110201, Note_on_c, 0, 67, 100
1, 110249, Note_off_c, 0, 67, 100
1, 110249, Note_on_c, 0, 70, 100
1, 110441, Note_off_c, 0, 70, 100
1, 110729, Note_on_c, 0, 68, 100
1, 110841, Note_off_c, 0, 68, 100
1, 110841, Note_on_c, 0, 70, 100
1, 111641, Note_off_c, 0, 70, 100
1, 111641, Note_on_c, 0, 67, 100
1, 111785, Note_off_c, 0, 67, 100
1, 111785, Note_on_c, 0, 63, 100
1, 111833, Note_off_c, 0, 63, 100
1, 111833, Note_on_c, 0, 60, 100
1, 111881, Note_off_c, 0, 60, 100
1, 111881, Note_on_c, 0, 63, 100
1, 111993, Note_off_c, 0, 63, 100
1, 111993, Note_on_c, 0, 67, 100
1, 112057, Note_off_c, 0, 67, 100
1, 112057, Note_on_c, 0, 70, 100
1, 112121, Note_off_c, 0, 70, 100
1, 112121, Note_on_c, 0, 67, 100
1, 112217, Note_off_c, 0, 67, 100
1, 112217, Note_on_c, 0, 63, 100
1, 112313, Note_off_c, 0, 63, 100
1, 112313, Note_on_c, 0, 60, 100
1, 112377, Note_off_c, 0, 60, 100
1, 112377, Note_on_c, 0, 63, 100
1, 112441, Note_off_c, 0, 63, 100
1, 112441, Note_on_c, 0, 66, 100
1, 112505, Note_off_c, 0, 66, 100
1, 112505, Note_on_c, 0, 67, 100
1, 112569, Note_off_c, 0, 67, 100
1, 112569, Note_on_c, 0, 68, 100
1, 112633, Note_off_c, 0, 68, 100
1, 112633, Note_on_c, 0, 67, 100
1, 112697, Note_off_c, 0, 67, 100
1, 112697, Note_on_c, 0, 65, 100
1, 112761, Note_off_c, 0, 65, 100
1, 112761, Note_on_c, 0, 62, 100
1, 112825, Note_off_c, 0, 62, 100
1, 112825, Note_on_c, 0, 65, 100
1, 112889, Note_off_c, 0, 65, 100
1, 112889, Note_on_c, 0, 66, 100
1, 112953, Note_off_c, 0, 66, 100
1, 112953, Note_on_c, 0, 67, 100
1, 113017, Note_off_c, 0, 67, 100
1, 113017, Note_on_c, 0, 70, 100
1, 113503, Note_off_c, 0, 70, 100
1, 113503, Note_on_c, 0, 67, 100
1, 113579, Note_off_c, 0, 67, 100
1, 113579, Note_on_c, 0, 63, 100
1, 113617, Note_off_c, 0, 63, 100
1, 113617, Note_on_c, 0, 60, 100
1, 113693, Note_off_c, 0, 60, 100
1, 113693, Note_on_c, 0, 63, 100
1, 113731, Note_off_c, 0, 63, 100
1, 113731, Note_on_c, 0, 66, 100
1, 113769, Note_off_c, 0, 66, 100
1, 113769, Note_on_c, 0, 67, 100
1, 113807, Note_off_c, 0, 67, 100
1, 113807, Note_on_c, 0, 70, 100
1, 113893, Note_off_c, 0, 70, 100
1, 113893, Note_on_c, 0, 67, 100
1, 113989, Note_off_c, 0, 67, 100
1, 113989, Note_on_c, 0, 65, 100
1, 114037, Note_off_c, 0, 65, 100
1, 114037, Note_on_c, 0, 63, 100
1, 114085, Note_off_c, 0, 63, 100
1, 114085, Note_on_c, 0, 60, 100
1, 114133, Note_off_c, 0, 60, 100
1, 114133, Note_on_c, 0, 63, 100
1, 114181, Note_off_c, 0, 63, 100
1, 114181, Note_on_c, 0, 64, 100
1, 114229, Note_off_c, 0, 64, 100
1, 114229, Note_on_c, 0, 70, 100
1, 114421, Note_off_c, 0, 70, 100
1, 114709, Note_on_c, 0, 70, 100
1, 114805, Note_off_c, 0, 70, 100
1, 114805, Note_on_c, 0, 75, 100
1, 114997, Note_off_c, 0, 75, 100
1, 114997, Note_on_c, 0, 74, 100
1, 115035, Note_off_c, 0, 74, 100
1, 115035, Note_on_c, 0, 72, 100
1, 115073, Note_off_c, 0, 72, 100
1, 115073, Note_on_c, 0, 70, 100
1, 115111, Note_off_c, 0, 70, 100
1, 115111, Note_on_c, 0, 68, 100
1, 115149, Note_off_c, 0, 68, 100
1, 115149, Note_on_c, 0, 65, 100
1, 115187, Note_off_c, 0, 65, 100
1, 115187, Note_on_c, 0, 68, 100
1, 115283, Note_off_c, 0, 68, 100
1, 115283, Note_on_c, 0, 70, 100
1, 115331, Note_off_c, 0, 70, 100
1, 115331, Note_on_c, 0, 71, 100
1, 115411, Note_off_c, 0, 71, 100
1, 115411, Note_on_c, 0, 75, 100
1, 115507, Note_off_c, 0, 75, 100
1, 115507, Note_on_c, 0, 74, 100
1, 115539, Note_off_c, 0, 74, 100
1, 115539, Note_on_c, 0, 72, 100
1, 115571, Note_off_c, 0, 72, 100
1, 115571, Note_on_c, 0, 71, 100
1, 115635, Note_off_c, 0, 71, 100
1, 115635, Note_on_c, 0, 68, 100
1, 115699, Note_off_c, 0, 68, 100
1, 115699, Note_on_c, 0, 65, 100
1, 115763, Note_off_c, 0, 65, 100
1, 115763, Note_on_c, 0, 63, 100
1, 115811, Note_off_c, 0, 63, 100
1, 115811, Note_on_c, 0, 65, 100
1, 115859, Note_off_c, 0, 65, 100
1, 115859, Note_on_c, 0, 67, 100
1, 115955, Note_off_c, 0, 67, 100
1, 115955, Note_on_c, 0, 70, 100
1, 116243, Note_off_c, 0, 70, 100
1, 116243, Note_on_c, 0, 67, 100
1, 116339, Note_off_c, 0, 67, 100
1, 116339, Note_on_c, 0, 65, 100
1, 116371, Note_off_c, 0, 65, 100
1, 116371, Note_on_c, 0, 63, 100
1, 116435, Note_off_c, 0, 63, 100
1, 116435, Note_on_c, 0, 60, 100
1, 116467, Note_off_c, 0, 60, 100
1, 116467, Note_on_c, 0, 63, 100
1, 116531, Note_off_c, 0, 63, 100
1, 116531, Note_on_c, 0, 67, 100
1, 116595, Note_off_c, 0, 67, 100
1, 116595, Note_on_c, 0, 70, 100
1, 116659, Note_off_c, 0, 70, 100
1, 116659, Note_on_c, 0, 67, 100
1, 116723, Note_off_c, 0, 67, 100
1, 116723, Note_on_c, 0, 63, 100
1, 116771, Note_off_c, 0, 63, 100
1, 116771, Note_on_c, 0, 60, 100
1, 116819, Note_off_c, 0, 60, 100
1, 116819, Note_on_c, 0, 63, 100
1, 116867, Note_off_c, 0, 63, 100
1, 116867, Note_on_c, 0, 65, 100
1, 116915, Note_off_c, 0, 65, 100
1, 116915, Note_on_c, 0, 67, 100
1, 116963, Note_off_c, 0, 67, 100
1, 116963, Note_on_c, 0, 70, 100
1, 117011, Note_off_c, 0, 70, 100
1, 117011, Note_on_c, 0, 67, 100
1, 117059, Note_off_c, 0, 67, 100
1, 117059, Note_on_c, 0, 65, 100
1, 117107, Note_off_c, 0, 65, 100
1, 117107, Note_on_c, 0, 63, 100
1, 117203, Note_off_c, 0, 63, 100
1, 117203, Note_on_c, 0, 67, 100
1, 117299, Note_off_c, 0, 67, 100
1, 117299, Note_on_c, 0, 70, 100
1, 117491, Note_off_c, 0, 70, 100
1, 117875, Note_on_c, 0, 72, 100
1, 117939, Note_off_c, 0, 72, 100
1, 117939, Note_on_c, 0, 73, 100
1, 118003, Note_off_c, 0, 73, 100
1, 118003, Note_on_c, 0, 74, 100
1, 118131, Note_off_c, 0, 74, 100
1, 118131, Note_on_c, 0, 73, 100
1, 118195, Note_off_c, 0, 73, 100
1, 118195, Note_on_c, 0, 72, 100
1, 118259, Note_off_c, 0, 72, 100
1, 118259, Note_on_c, 0, 71, 100
1, 118355, Note_off_c, 0, 71, 100
1, 118355, Note_on_c, 0, 68, 100
1, 118451, Note_off_c, 0, 68, 100
1, 118451, Note_on_c, 0, 67, 100
1, 118547, Note_off_c, 0, 67, 100
1, 118547, Note_on_c, 0, 66, 100
1, 118643, Note_off_c, 0, 66, 100
1, 118643, Note_on_c, 0, 65, 100
1, 118739, Note_off_c, 0, 65, 100
1, 118739, Note_on_c, 0, 63, 100
1, 118787, Note_off_c, 0, 63, 100
1, 118787, Note_on_c, 0, 62, 100
1, 118931, Note_off_c, 0, 62, 100
1, 118931, Note_on_c, 0, 60, 100
1, 119027, Note_off_c, 0, 60, 100
1, 119027, Note_on_c, 0, 59, 100
1, 119123, Note_off_c, 0, 59, 100
1, 119123, Note_on_c, 0, 55, 100
1, 119219, Note_off_c, 0, 55, 100
1, 119219, Note_on_c, 0, 59, 100
1, 119315, Note_off_c, 0, 59, 100
1, 119315, Note_on_c, 0, 62, 100
1, 119411, Note_off_c, 0, 62, 100
1, 119411, Note_on_c, 0, 60, 100
1, 119507, Note_off_c, 0, 60, 100
1, 119507, Note_on_c, 0, 62, 100
1, 119603, Note_off_c, 0, 62, 100
1, 119603, Note_on_c, 0, 63, 100
1, 119699, Note_off_c, 0, 63, 100
1, 119699, Note_on_c, 0, 65, 100
1, 119795, Note_off_c, 0, 65, 100
1, 119795, Note_on_c, 0, 67, 100
1, 119891, Note_off_c, 0, 67, 100
1, 119891, Note_on_c, 0, 63, 100
1, 119987, Note_off_c, 0, 63, 100
1, 119987, Note_on_c, 0, 60, 100
1, 120179, Note_off_c, 0, 60, 100
1, 120179, Note_on_c, 0, 65, 100
1, 120307, Note_off_c, 0, 65, 100
1, 120307, Note_on_c, 0, 63, 100
1, 120371, Note_off_c, 0, 63, 100
1, 120371, Note_on_c, 0, 59, 100
1, 120467, Note_off_c, 0, 59, 100
1, 120467, Note_on_c, 0, 55, 100
1, 120563, Note_off_c, 0, 55, 100
1, 120563, Note_on_c, 0, 63, 100
1, 120659, Note_off_c, 0, 63, 100
1, 120659, Note_on_c, 0, 60, 100
1, 120755, Note_off_c, 0, 60, 100
1, 120755, Note_on_c, 0, 63, 100
1, 120851, Note_off_c, 0, 63, 100
1, 120851, Note_on_c, 0, 67, 100
1, 121043, Note_off_c, 0, 67, 100
1, 121043, Note_on_c, 0, 67, 100
1, 121139, Note_off_c, 0, 67, 100
1, 121139, Note_on_c, 0, 65, 100
1, 121235, Note_off_c, 0, 65, 100
1, 121235, Note_on_c, 0, 68, 100
1, 121715, Note_off_c, 0, 68, 100
1, 121715, Note_on_c, 0, 67, 100
1, 121811, Note_off_c, 0, 67, 100
1, 121811, Note_on_c, 0, 68, 100
1, 121907, Note_off_c, 0, 68, 100
1, 121907, Note_on_c, 0, 67, 100
1, 122003, Note_off_c, 0, 67, 100
1, 122003, Note_on_c, 0, 65, 100
1, 122099, Note_off_c, 0, 65, 100
1, 122099, Note_on_c, 0, 63, 100
1, 122195, Note_off_c, 0, 63, 100
1, 122195, Note_on_c, 0, 60, 100
1, 122291, Note_off_c, 0, 60, 100
1, 122867, Note_on_c, 0, 64, 100
1, 122963, Note_off_c, 0, 64, 100
1, 122963, Note_on_c, 0, 67, 100
1, 123107, Note_off_c, 0, 67, 100
1, 123107, Note_on_c, 0, 70, 100
1, 123203, Note_off_c, 0, 70, 100
1, 123203, Note_on_c, 0, 75, 100
1, 123347, Note_off_c, 0, 75, 100
1, 123347, Note_on_c, 0, 75, 100
1, 123443, Note_off_c, 0, 75, 100
1, 123443, Note_on_c, 0, 73, 100
1, 123539, Note_off_c, 0, 73, 100
1, 123539, Note_on_c, 0, 72, 100
1, 123891, Note_off_c, 0, 72, 100
1, 123891, Note_on_c, 0, 70, 100
1, 123955, Note_off_c, 0, 70, 100
1, 123955, Note_on_c, 0, 68, 100
1, 124019, Note_off_c, 0, 68, 100
1, 124019, Note_on_c, 0, 67, 100
1, 124307, Note_off_c, 0, 67, 100
1, 124307, Note_on_c, 0, 65, 100
1, 124355, Note_off_c, 0, 65, 100
1, 124355, Note_on_c, 0, 63, 100
1, 124403, Note_off_c, 0, 63, 100
1, 124403, Note_on_c, 0, 60, 100
1, 124467, Note_off_c, 0, 60, 100
1, 124467, Note_on_c, 0, 58, 100
1, 124531, Note_off_c, 0, 58, 100
1, 124531, Note_on_c, 0, 56, 100
1, 124595, Note_off_c, 0, 56, 100
1, 124595, Note_on_c, 0, 55, 100
1, 124643, Note_off_c, 0, 55, 100
1, 124643, Note_on_c, 0, 53, 100
1, 124691, Note_off_c, 0, 53, 100
1, 124691, Note_on_c, 0, 51, 100
1, 124739, Note_off_c, 0, 51, 100
1, 124739, Note_on_c, 0, 48, 100
1, 124851, Note_off_c, 0, 48, 100
1, 124851, Note_on_c, 0, 46, 100
1, 125043, Note_off_c, 0, 46, 100
1, 125315, Note_on_c, 0, 48, 100
1, 125363, Note_off_c, 0, 48, 100
1, 125363, Note_on_c, 0, 51, 100
1, 125459, Note_off_c, 0, 51, 100
1, 125459, Note_on_c, 0, 48, 100
1, 125507, Note_off_c, 0, 48, 100
1, 125507, Note_on_c, 0, 53, 100
1, 125555, Note_off_c, 0, 53, 100
1, 125555, Note_on_c, 0, 50, 100
1, 125603, Note_off_c, 0, 50, 100
1, 125603, Note_on_c, 0, 51, 100
1, 125651, Note_off_c, 0, 51, 100
1, 125651, Note_on_c, 0, 50, 100
1, 125699, Note_off_c, 0, 50, 100
1, 125699, Note_on_c, 0, 51, 100
1, 125747, Note_off_c, 0, 51, 100
1, 125747, Note_on_c, 0, 53, 100
1, 125795, Note_off_c, 0, 53, 100
1, 125795, Note_on_c, 0, 54, 100
1, 125843, Note_off_c, 0, 54, 100
1, 125843, Note_on_c, 0, 56, 100
1, 125891, Note_off_c, 0, 56, 100
1, 125891, Note_on_c, 0, 57, 100
1, 125939, Note_off_c, 0, 57, 100
1, 125939, Note_on_c, 0, 59, 100
1, 126035, Note_off_c, 0, 59, 100
1, 126035, Note_on_c, 0, 60, 100
1, 126083, Note_off_c, 0, 60, 100
1, 126083, Note_on_c, 0, 61, 100
1, 126131, Note_off_c, 0, 61, 100
1, 126131, Note_on_c, 0, 62, 100
1, 126169, Note_off_c, 0, 62, 100
1, 126169, Note_on_c, 0, 63, 100
1, 126207, Note_off_c, 0, 63, 100
1, 126207, Note_on_c, 0, 65, 100
1, 126283, Note_off_c, 0, 65, 100
1, 126283, Note_on_c, 0, 63, 100
1, 126321, Note_off_c, 0, 63, 100
1, 126321, Note_on_c, 0, 65, 100
1, 126369, Note_off_c, 0, 65, 100
1, 126369, Note_on_c, 0, 67, 100
1, 126417, Note_off_c, 0, 67, 100
1, 126417, Note_on_c, 0, 69, 100
1, 126465, Note_off_c, 0, 69, 100
1, 126465, Note_on_c, 0, 70, 100
1, 126513, Note_off_c, 0, 70, 100
1, 126513, Note_on_c, 0, 71, 100
1, 126609, Note_off_c, 0, 71, 100
1, 126897, Note_on_c, 0, 50, 100
1, 126945, Note_off_c, 0, 50, 100
1, 126945, Note_on_c, 0, 53, 100
1, 126993, Note_off_c, 0, 53, 100
1, 126993, Note_on_c, 0, 56, 100
1, 127041, Note_off_c, 0, 56, 100
1, 127041, Note_on_c, 0, 57, 100
1, 127089, Note_off_c, 0, 57, 100
1, 127089, Note_on_c, 0, 60, 100
1, 127137, Note_off_c, 0, 60, 100
1, 127137, Note_on_c, 0, 63, 100
1, 127233, Note_off_c, 0, 63, 100
1, 127233, Note_on_c, 0, 66, 100
1, 127281, Note_off_c, 0, 66, 100
1, 127281, Note_on_c, 0, 67, 100
1, 127345, Note_off_c, 0, 67, 100
1, 127345, Note_on_c, 0, 70, 100
1, 127473, Note_off_c, 0, 70, 100
1, 127473, Note_on_c, 0, 50, 100
1, 127521, Note_off_c, 0, 50, 100
1, 127521, Note_on_c, 0, 52, 100
1, 127569, Note_off_c, 0, 52, 100
1, 127569, Note_on_c, 0, 55, 100
1, 127617, Note_off_c, 0, 55, 100
1, 127617, Note_on_c, 0, 56, 100
1, 127665, Note_off_c, 0, 56, 100
1, 127665, Note_on_c, 0, 59, 100
1, 127761, Note_off_c, 0, 59, 100
1, 127761, Note_on_c, 0, 61, 100
1, 127809, Note_off_c, 0, 61, 100
1, 127809, Note_on_c, 0, 63, 100
1, 127857, Note_off_c, 0, 63, 100
1, 127857, Note_on_c, 0, 65, 100
1, 127905, Note_off_c, 0, 65, 100
1, 127905, Note_on_c, 0, 67, 100
1, 127953, Note_off_c, 0, 67, 100
1, 127953, Note_on_c, 0, 69, 100
1, 128001, Note_off_c, 0, 69, 100
1, 128001, Note_on_c, 0, 71, 100
1, 128337, Note_off_c, 0, 71, 100
1, 128337, Note_on_c, 0, 70, 100
1, 128433, Note_off_c, 0, 70, 100
1, 128433, Note_on_c, 0, 71, 100
1, 128471, Note_off_c, 0, 71, 100
1, 128471, Note_on_c, 0, 67, 100
1, 128547, Note_off_c, 0, 67, 100
1, 128547, Note_on_c, 0, 69, 100
1, 128585, Note_off_c, 0, 69, 100
1, 128585, Note_on_c, 0, 71, 100
1, 128623, Note_off_c, 0, 71, 100
1, 128623, Note_on_c, 0, 69, 100
1, 128719, Note_off_c, 0, 69, 100
1, 128719, Note_on_c, 0, 65, 100
1, 128815, Note_off_c, 0, 65, 100
1, 129343, Note_on_c, 0, 66, 100
1, 129391, Note_off_c, 0, 66, 100
1, 129391, Note_on_c, 0, 67, 100
1, 129775, Note_off_c, 0, 67, 100
1, 129775, Note_on_c, 0, 60, 100
1, 129871, Note_off_c, 0, 60, 100
1, 129871, Note_on_c, 0, 63, 100
1, 129967, Note_off_c, 0, 63, 100
1, 129967, Note_on_c, 0, 67, 100
1, 130111, Note_off_c, 0, 67, 100
1, 130111, Note_on_c, 0, 58, 100
1, 130255, Note_off_c, 0, 58, 100
1, 130255, Note_on_c, 0, 62, 100
1, 130399, Note_off_c, 0, 62, 100
1, 130399, Note_on_c, 0, 65, 100
1, 130495, Note_off_c, 0, 65, 100
1, 130495, Note_on_c, 0, 60, 100
1, 130831, Note_off_c, 0, 60, 100
1, 130831, Note_on_c, 0, 63, 100
1, 130879, Note_off_c, 0, 63, 100
1, 130879, Note_on_c, 0, 66, 100
1, 130927, Note_off_c, 0, 66, 100
1, 130927, Note_on_c, 0, 58, 100
1, 131071, Note_off_c, 0, 58, 100
1, 131071, Note_on_c, 0, 62, 100
1, 131119, Note_off_c, 0, 62, 100
1, 131119, Note_on_c, 0, 65, 100
1, 131311, Note_off_c, 0, 65, 100
1, 131311, Note_on_c, 0, 60, 100
1, 131407, Note_off_c, 0, 60, 100
1, 131407, Note_on_c, 0, 63, 100
1, 131503, Note_off_c, 0, 63, 100
1, 131503, Note_on_c, 0, 67, 100
1, 131695, Note_off_c, 0, 67, 100
1, 131695, Note_on_c, 0, 58, 100
1, 131823, Note_off_c, 0, 58, 100
1, 131823, Note_on_c, 0, 62, 100
1, 131887, Note_off_c, 0, 62, 100
1, 131887, Note_on_c, 0, 65, 100
1, 131983, Note_off_c, 0, 65, 100
1, 131983, Note_on_c, 0, 63, 100
1, 132367, Note_off_c, 0, 63, 100
1, 132367, Note_on_c, 0, 60, 100
1, 132463, Note_off_c, 0, 60, 100
1, 132463, Note_on_c, 0, 63, 100
1, 132559, Note_off_c, 0, 63, 100
1, 132559, Note_on_c, 0, 67, 100
1, 132655, Note_off_c, 0, 67, 100
1, 132943, Note_on_c, 0, 65, 100
1, 133039, Note_off_c, 0, 65, 100
1, 133039, Note_on_c, 0, 68, 100
1, 133135, Note_off_c, 0, 68, 100
1, 133135, Note_on_c, 0, 72, 100
1, 133231, Note_off_c, 0, 72, 100
1, 133231, Note_on_c, 0, 63, 100
1, 133327, Note_off_c, 0, 63, 100
1, 133327, Note_on_c, 0, 67, 100
1, 133423, Note_off_c, 0, 67, 100
1, 133423, Note_on_c, 0, 70, 100
1, 133519, Note_off_c, 0, 70, 100
1, 133519, Note_on_c, 0, 65, 100
1, 133759, Note_off_c, 0, 65, 100
1, 133759, Note_on_c, 0, 67, 100
1, 133855, Note_off_c, 0, 67, 100
1, 133855, Note_on_c, 0, 72, 100
1, 133903, Note_off_c, 0, 72, 100
1, 133903, Note_on_c, 0, 63, 100
1, 133999, Note_off_c, 0, 63, 100
1, 133999, Note_on_c, 0, 67, 100
1, 134095, Note_off_c, 0, 67, 100
1, 134095, Note_on_c, 0, 70, 100
1, 134239, Note_off_c, 0, 70, 100
1, 134239, Note_on_c, 0, 60, 100
1, 134335, Note_off_c, 0, 60, 100
1, 134335, Note_on_c, 0, 63, 100
1, 134575, Note_off_c, 0, 63, 100
1, 134575, Note_on_c, 0, 67, 100
1, 134767, Note_off_c, 0, 67, 100
1, 134767, Note_on_c, 0, 58, 100
1, 135055, Note_off_c, 0, 58, 100
1, 135055, Note_on_c, 0, 62, 100
1, 135103, Note_off_c, 0, 62, 100
1, 135103, Note_on_c, 0, 65, 100
1, 135151, Note_off_c, 0, 65, 100
1, 135151, Note_on_c, 0, 60, 100
1, 135391, Note_off_c, 0, 60, 100
1, 135391, Note_on_c, 0, 63, 100
1, 135487, Note_off_c, 0, 63, 100
1, 135487, Note_on_c, 0, 67, 100
1, 135535, Note_off_c, 0, 67, 100
1, 135535, Note_on_c, 0, 62, 100
1, 135727, Note_off_c, 0, 62, 100
1, 136015, Note_on_c, 0, 67, 100
1, 136111, Note_off_c, 0, 67, 100
1, 136111, Note_on_c, 0, 66, 100
1, 136207, Note_off_c, 0, 66, 100
1, 136207, Note_on_c, 0, 66, 100
1, 136303, Note_off_c, 0, 66, 100
1, 136303, Note_on_c, 0, 65, 100
1, 136399, Note_off_c, 0, 65, 100
1, 136399, Note_on_c, 0, 64, 100
1, 136495, Note_off_c, 0, 64, 100
1, 136495, Note_on_c, 0, 63, 100
1, 136591, Note_off_c, 0, 63, 100
1, 136591, Note_on_c, 0, 62, 100
1, 136639, Note_off_c, 0, 62, 100
1, 136639, Note_on_c, 0, 60, 100
1, 136735, Note_off_c, 0, 60, 100
1, 136735, Note_on_c, 0, 58, 100
1, 136831, Note_off_c, 0, 58, 100
1, 136831, Note_on_c, 0, 53, 100
1, 137023, Note_off_c, 0, 53, 100
1, 137023, Note_on_c, 0, 53, 100
1, 137119, Note_off_c, 0, 53, 100
1, 137119, Note_on_c, 0, 56, 100
1, 137215, Note_off_c, 0, 56, 100
1, 137215, Note_on_c, 0, 62, 100
1, 137263, Note_off_c, 0, 62, 100
1, 137263, Note_on_c, 0, 59, 100
1, 137359, Note_off_c, 0, 59, 100
1, 137359, Note_on_c, 0, 57, 100
1, 137551, Note_off_c, 0, 57, 100
1, 137551, Note_on_c, 0, 57, 100
1, 137647, Note_off_c, 0, 57, 100
1, 137647, Note_on_c, 0, 59, 100
1, 137743, Note_off_c, 0, 59, 100
1, 137743, Note_on_c, 0, 62, 100
1, 137839, Note_off_c, 0, 62, 100
1, 137839, Note_on_c, 0, 60, 100
1, 137935, Note_off_c, 0, 60, 100
1, 137935, Note_on_c, 0, 62, 100
1, 138031, Note_off_c, 0, 62, 100
1, 138031, Note_on_c, 0, 63, 100
1, 138127, Note_off_c, 0, 63, 100
1, 138127, Note_on_c, 0, 65, 100
1, 138271, Note_off_c, 0, 65, 100
1, 138271, Note_on_c, 0, 67, 100
1, 138367, Note_off_c, 0, 67, 100
1, 138367, Note_on_c, 0, 72, 100
1, 138415, Note_off_c, 0, 72, 100
1, 138415, Note_on_c, 0, 68, 100
1, 138453, Note_off_c, 0, 68, 100
1, 138453, Note_on_c, 0, 67, 100
1, 138568, Note_off_c, 0, 67, 100
1, 138568, Note_on_c, 0, 65, 100
1, 138654, Note_off_c, 0, 65, 100
1, 138654, Note_on_c, 0, 63, 100
1, 138750, Note_off_c, 0, 63, 100
1, 138750, Note_on_c, 0, 67, 100
1, 138798, Note_off_c, 0, 67, 100
1, 138798, Note_on_c, 0, 63, 100
1, 138894, Note_off_c, 0, 63, 100
1, 138894, Note_on_c, 0, 62, 100
1, 138990, Note_off_c, 0, 62, 100
1, 138990, Note_on_c, 0, 60, 100
1, 139182, Note_off_c, 0, 60, 100
1, 139182, Note_on_c, 0, 62, 100
1, 139278, Note_off_c, 0, 62, 100
1, 139278, Note_on_c, 0, 63, 100
1, 139854, Note_off_c, 0, 63, 100
1, 139854, Note_on_c, 0, 62, 100
1, 139998, Note_off_c, 0, 62, 100
1, 139998, Note_on_c, 0, 63, 100
1, 140094, Note_off_c, 0, 63, 100
1, 140094, Note_on_c, 0, 65, 100
1, 140190, Note_off_c, 0, 65, 100
1, 140622, Note_on_c, 0, 63, 100
1, 140718, Note_off_c, 0, 63, 100
1, 140718, Note_on_c, 0, 65, 100
1, 140862, Note_off_c, 0, 65, 100
1, 140862, Note_on_c, 0, 66, 100
1, 140910, Note_off_c, 0, 66, 100
1, 140910, Note_on_c, 0, 67, 100
1, 141534, Note_off_c, 0, 67, 100
1, 141534, Note_on_c, 0, 70, 100
1, 141582, Note_off_c, 0, 70, 100
1, 141582, Note_on_c, 0, 69, 100
1, 141630, Note_off_c, 0, 69, 100
1, 141630, Note_on_c, 0, 66, 100
1, 141742, Note_off_c, 0, 66, 100
1, 141742, Note_on_c, 0, 64, 100
1, 141806, Note_off_c, 0, 64, 100
1, 141806, Note_on_c, 0, 60, 100
1, 142206, Note_off_c, 0, 60, 100
1, 142206, Note_on_c, 0, 65, 100
1, 142318, Note_off_c, 0, 65, 100
1, 142318, Note_on_c, 0, 60, 100
1, 142382, Note_off_c, 0, 60, 100
1, 142382, Note_on_c, 0, 65, 100
1, 142446, Note_off_c, 0, 65, 100
1, 142446, Note_on_c, 0, 68, 100
1, 142542, Note_off_c, 0, 68, 100
1, 142542, Note_on_c, 0, 65, 100
1, 142590, Note_off_c, 0, 65, 100
1, 142590, Note_on_c, 0, 68, 100
1, 142638, Note_off_c, 0, 68, 100
1, 142638, Note_on_c, 0, 72, 100
1, 142734, Note_off_c, 0, 72, 100
1, 142734, Note_on_c, 0, 75, 100
1, 143086, Note_off_c, 0, 75, 100
1, 143086, Note_on_c, 0, 74, 100
1, 143118, Note_off_c, 0, 74, 100
1, 143118, Note_on_c, 0, 74, 100
1, 143150, Note_off_c, 0, 74, 100
1, 143150, Note_on_c, 0, 71, 100
1, 143182, Note_off_c, 0, 71, 100
1, 143182, Note_on_c, 0, 70, 100
1, 143214, Note_off_c, 0, 70, 100
1, 143214, Note_on_c, 0, 68, 100
1, 143262, Note_off_c, 0, 68, 100
1, 143262, Note_on_c, 0, 67, 100
1, 143358, Note_off_c, 0, 67, 100
1, 143934, Note_on_c, 0, 67, 100
1, 144030, Note_off_c, 0, 67, 100
1, 144030, Note_on_c, 0, 66, 100
1, 144126, Note_off_c, 0, 66, 100
1, 144126, Note_on_c, 0, 63, 100
1, 144222, Note_off_c, 0, 63, 100
1, 144222, Note_on_c, 0, 62, 100
1, 144318, Note_off_c, 0, 62, 100
1, 144318, Note_on_c, 0, 65, 100
1, 144366, Note_off_c, 0, 65, 100
1, 144366, Note_on_c, 0, 63, 100
1, 144462, Note_off_c, 0, 63, 100
1, 144462, Note_on_c, 0, 60, 100
1, 144558, Note_off_c, 0, 60, 100
1, 144558, Note_on_c, 0, 57, 100
1, 144654, Note_off_c, 0, 57, 100
1, 144654, Note_on_c, 0, 55, 100
1, 144750, Note_off_c, 0, 55, 100
1, 144750, Note_on_c, 0, 60, 100
1, 144942, Note_off_c, 0, 60, 100
1, 144942, Note_on_c, 0, 63, 100
1, 145038, Note_off_c, 0, 63, 100
1, 145038, Note_on_c, 0, 65, 100
1, 145134, Note_off_c, 0, 65, 100
1, 145134, Note_on_c, 0, 66, 100
1, 145262, Note_off_c, 0, 66, 100
1, 145262, Note_on_c, 0, 65, 100
1, 145854, Note_off_c, 0, 65, 100
1, 145854, Note_on_c, 0, 66, 100
1, 145902, Note_off_c, 0, 66, 100
1, 145902, Note_on_c, 0, 65, 100
1, 146158, Note_off_c, 0, 65, 100
1, 146158, Note_on_c, 0, 66, 100
1, 146222, Note_off_c, 0, 66, 100
1, 146222, Note_on_c, 0, 65, 100
1, 146478, Note_off_c, 0, 65, 100
1, 146478, Note_on_c, 0, 63, 100
1, 146574, Note_off_c, 0, 63, 100
1, 146574, Note_on_c, 0, 60, 100
1, 147054, Note_off_c, 0, 60, 100
1, 147054, Note_on_c, 0, 58, 100
1, 147246, Note_off_c, 0, 58, 100
1, 147246, Note_on_c, 0, 62, 100
1, 147342, Note_off_c, 0, 62, 100
1, 147342, Note_on_c, 0, 60, 100
1, 147630, Note_off_c, 0, 60, 100
1, 147630, Note_on_c, 0, 55, 100
1, 148022, Note_off_c, 0, 55, 100
1, 148022, End_track
0, 0, End_of_file
