0, 0, Header, 1, 1, 192
1, 0, Start_track
1, 0, Title_t, "Melody"
1, 0, Tempo, 335195
1, 0, Key_signature, 1, "major"
1, 0, Time_signature, 3, 2, 24, 8
1, 64, Note_on_c, 0, 59, 100
1, 192, Note_off_c, 0, 59, 100
1, 192, Note_on_c, 0, 60, 100
1, 383, Note_off_c, 0, 60, 100
1, 383, Note_on_c, 0, 62, 100
1, 575, Note_off_c, 0, 62, 100
1, 575, Note_on_c, 0, 64, 100
1, 815, Note_off_c, 0, 64, 100
1, 815, Note_on_c, 0, 66, 100
1, 959, Note_off_c, 0, 66, 100
1, 959, Note_on_c, 0, 67, 100
1, 1199, Note_off_c, 0, 67, 100
1, 1199, Note_on_c, 0, 69, 100
1, 1295, Note_off_c, 0, 69, 100
1, 1295, Note_on_c, 0, 71, 100
1, 1631, Note_off_c, 0, 71, 100
1, 1631, Note_on_c, 0, 69, 100
1, 1727, Note_off_c, 0, 69, 100
1, 1727, Note_on_c, 0, 71, 100
1, 1871, Note_off_c, 0, 71, 100
1, 1871, Note_on_c, 0, 71, 100
1, 1967, Note_off_c, 0, 71, 100
1, 2255, Note_on_c, 0, 71, 100
1, 2399, Note_off_c, 0, 71, 100
1, 2399, Note_on_c, 0, 71, 100
1, 3263, Note_off_c, 0, 71, 100
1, 3263, Note_on_c, 0, 69, 100
1, 3327, Note_off_c, 0, 69, 100
1, 3327, Note_on_c, 0, 67, 100
1, 3391, Note_off_c, 0, 67, 100
1, 3391, Note_on_c, 0, 64, 100
1, 3455, Note_off_c, 0, 64, 100
1, 3455, Note_on_c, 0, 71, 100
1, 3486, Note_off_c, 0, 71, 100
1, 3486, Note_on_c, 0, 69, 100
1, 3518, Note_off_c, 0, 69, 100
1, 3518, Note_on_c, 0, 67, 100
1, 3582, Note_off_c, 0, 67, 100
1, 3582, Note_on_c, 0, 64, 100
1, 3614, Note_off_c, 0, 64, 100
1, 3614, Note_on_c, 0, 71, 100
1, 3646, Note_off_c, 0, 71, 100
1, 3646, Note_on_c, 0, 69, 100
1, 3694, Note_off_c, 0, 69, 100
1, 3694, Note_on_c, 0, 67, 100
1, 3742, Note_off_c, 0, 67, 100
1, 3742, Note_on_c, 0, 64, 100
1, 3790, Note_off_c, 0, 64, 100
1, 3790, Note_on_c, 0, 71, 100
1, 3838, Note_off_c, 0, 71, 100
1, 3838, Note_on_c, 0, 69, 100
1, 3886, Note_off_c, 0, 69, 100
1, 3886, Note_on_c, 0, 67, 100
1, 3934, Note_off_c, 0, 67, 100
1, 3934, Note_on_c, 0, 64, 100
1, 3982, Note_off_c, 0, 64, 100
1, 3982, Note_on_c, 0, 71, 100
1, 4030, Note_off_c, 0, 71, 100
1, 4030, Note_on_c, 0, 69, 100
1, 4061, Note_off_c, 0, 69, 100
1, 4061, Note_on_c, 0, 67, 100
1, 4093, Note_off_c, 0, 67, 100
1, 4093, Note_on_c, 0, 64, 100
1, 4125, Note_off_c, 0, 64, 100
1, 4125, Note_on_c, 0, 66, 100
1, 4189, Note_off_c, 0, 66, 100
1, 4189, Note_on_c, 0, 67, 100
1, 4221, Note_off_c, 0, 67, 100
1, 4221, Note_on_c, 0, 69, 100
1, 4259, Note_off_c, 0, 69, 100
1, 4259, Note_on_c, 0, 70, 100
1, 4297, Note_off_c, 0, 70, 100
1, 4297, Note_on_c, 0, 73, 100
1, 4335, Note_off_c, 0, 73, 100
1, 4335, Note_on_c, 0, 74, 100
1, 4373, Note_off_c, 0, 74, 100
1, 4373, Note_on_c, 0, 76, 100
1, 4411, Note_off_c, 0, 76, 100
1, 4411, Note_on_c, 0, 78, 100
1, 4435, Note_off_c, 0, 78, 100
1, 4435, Note_on_c, 0, 79, 100
1, 4459, Note_off_c, 0, 79, 100
1, 4459, Note_on_c, 0, 81, 100
1, 4507, Note_off_c, 0, 81, 100
1, 4507, Note_on_c, 0, 83, 100
1, 4555, Note_off_c, 0, 83, 100
1, 4555, Note_on_c, 0, 85, 100
1, 4603, Note_off_c, 0, 85, 100
1, 4603, Note_on_c, 0, 86, 100
1, 4699, Note_off_c, 0, 86, 100
1, 4699, Note_on_c, 0, 85, 100
1, 5083, Note_off_c, 0, 85, 100
1, 5083, Note_on_c, 0, 83, 100
1, 5131, Note_off_c, 0, 83, 100
1, 5131, Note_on_c, 0, 84, 100
1, 5179, Note_off_c, 0, 84, 100
1, 5179, Note_on_c, 0, 71, 100
1, 5659, Note_off_c, 0, 71, 100
1, 5659, Note_on_c, 0, 81, 100
1, 5707, Note_off_c, 0, 81, 100
1, 5707, Note_on_c, 0, 79, 100
1, 5819, Note_off_c, 0, 79, 100
1, 5819, Note_on_c, 0, 76, 100
1, 5947, Note_off_c, 0, 76, 100
1, 5947, Note_on_c, 0, 71, 100
1, 6043, Note_off_c, 0, 71, 100
1, 6427, Note_on_c, 0, 70, 100
1, 6523, Note_off_c, 0, 70, 100
1, 6523, Note_on_c, 0, 71, 100
1, 6859, Note_off_c, 0, 71, 100
1, 6859, Note_on_c, 0, 71, 100
1, 6955, Note_off_c, 0, 71, 100
1, 6955, Note_on_c, 0, 76, 100
1, 7099, Note_off_c, 0, 76, 100
1, 7099, Note_on_c, 0, 71, 100
1, 7243, Note_off_c, 0, 71, 100
1, 7243, Note_on_c, 0, 76, 100
1, 7354, Note_off_c, 0, 76, 100
1, 7354, Note_on_c, 0, 71, 100
1, 7482, Note_off_c, 0, 71, 100
1, 7482, Note_on_c, 0, 76, 100
1, 7914, Note_off_c, 0, 76, 100
1, 7914, Note_on_c, 0, 71, 100
1, 7962, Note_off_c, 0, 71, 100
1, 7962, Note_on_c, 0, 69, 100
1, 8010, Note_off_c, 0, 69, 100
1, 8010, Note_on_c, 0, 67, 100
1, 8058, Note_off_c, 0, 67, 100
1, 8058, Note_on_c, 0, 64, 100
1, 8202, Note_off_c, 0, 64, 100
1, 8202, Note_on_c, 0, 59, 100
1, 8298, Note_off_c, 0, 59, 100
1, 9082, Note_on_c, 0, 71, 100
1, 9146, Note_off_c, 0, 71, 100
1, 9146, Note_on_c, 0, 76, 100
1, 9210, Note_off_c, 0, 76, 100
1, 9210, Note_on_c, 0, 78, 100
1, 9306, Note_off_c, 0, 78, 100
1, 9306, Note_on_c, 0, 81, 100
1, 9466, Note_off_c, 0, 81, 100
1, 9466, Note_on_c, 0, 81, 100
1, 10266, Note_off_c, 0, 81, 100
1, 10266, Note_on_c, 0, 73, 100
1, 10314, Note_off_c, 0, 73, 100
1, 10314, Note_on_c, 0, 72, 100
1, 10362, Note_off_c, 0, 72, 100
1, 10362, Note_on_c, 0, 71, 100
1, 11562, Note_off_c, 0, 71, 100
1, 11562, Note_on_c, 0, 83, 100
1, 11610, Note_off_c, 0, 83, 100
1, 11610, Note_on_c, 0, 85, 100
1, 11658, Note_off_c, 0, 85, 100
1, 11658, Note_on_c, 0, 86, 100
1, 11706, Note_off_c, 0, 86, 100
1, 11706, Note_on_c, 0, 85, 100
1, 11753, Note_off_c, 0, 85, 100
1, 11753, Note_on_c, 0, 83, 100
1, 12185, Note_off_c, 0, 83, 100
1, 12185, Note_on_c, 0, 79, 100
1, 12233, Note_off_c, 0, 79, 100
1, 12233, Note_on_c, 0, 83, 100
1, 12319, Note_off_c, 0, 83, 100
1, 12319, Note_on_c, 0, 85, 100
1, 12357, Note_off_c, 0, 85, 100
1, 12357, Note_on_c, 0, 86, 100
1, 12395, Note_off_c, 0, 86, 100
1, 12395, Note_on_c, 0, 85, 100
1, 12433, Note_off_c, 0, 85, 100
1, 12433, Note_on_c, 0, 83, 100
1, 12519, Note_off_c, 0, 83, 100
1, 12519, Note_on_c, 0, 85, 100
1, 12567, Note_off_c, 0, 85, 100
1, 12567, Note_on_c, 0, 86, 100
1, 12615, Note_off_c, 0, 86, 100
1, 12615, Note_on_c, 0, 85, 100
1, 12663, Note_off_c, 0, 85, 100
1, 12663, Note_on_c, 0, 83, 100
1, 12727, Note_off_c, 0, 83, 100
1, 12727, Note_on_c, 0, 85, 100
1, 12790, Note_off_c, 0, 85, 100
1, 12790, Note_on_c, 0, 86, 100
1, 12854, Note_off_c, 0, 86, 100
1, 12854, Note_on_c, 0, 85, 100
1, 12902, Note_off_c, 0, 85, 100
1, 12902, Note_on_c, 0, 83, 100
1, 13142, Note_off_c, 0, 83, 100
1, 13142, Note_on_c, 0, 81, 100
1, 13190, Note_off_c, 0, 81, 100
1, 13190, Note_on_c, 0, 79, 100
1, 13238, Note_off_c, 0, 79, 100
1, 13238, Note_on_c, 0, 76, 100
1, 13334, Note_off_c, 0, 76, 100
1, 13334, Note_on_c, 0, 78, 100
1, 13430, Note_off_c, 0, 78, 100
1, 13430, Note_on_c, 0, 81, 100
1, 13457, Note_off_c, 0, 81, 100
1, 13457, Note_on_c, 0, 78, 100
1, 13484, Note_off_c, 0, 78, 100
1, 13484, Note_on_c, 0, 76, 100
1, 13511, Note_off_c, 0, 76, 100
1, 13511, Note_on_c, 0, 74, 100
1, 13565, Note_off_c, 0, 74, 100
1, 13565, Note_on_c, 0, 73, 100
1, 13683, Note_off_c, 0, 73, 100
1, 13683, Note_on_c, 0, 76, 100
1, 13714, Note_off_c, 0, 76, 100
1, 13714, Note_on_c, 0, 74, 100
1, 13746, Note_off_c, 0, 74, 100
1, 13746, Note_on_c, 0, 73, 100
1, 13778, Note_off_c, 0, 73, 100
1, 13778, Note_on_c, 0, 70, 100
1, 13809, Note_off_c, 0, 70, 100
1, 13809, Note_on_c, 0, 69, 100
1, 13857, Note_off_c, 0, 69, 100
1, 13857, Note_on_c, 0, 67, 100
1, 13905, Note_off_c, 0, 67, 100
1, 13905, Note_on_c, 0, 66, 100
1, 14097, Note_off_c, 0, 66, 100
1, 14097, Note_on_c, 0, 70, 100
1, 14121, Note_off_c, 0, 70, 100
1, 14121, Note_on_c, 0, 69, 100
1, 14145, Note_off_c, 0, 69, 100
1, 14145, Note_on_c, 0, 67, 100
1, 14169, Note_off_c, 0, 67, 100
1, 14169, Note_on_c, 0, 66, 100
1, 14193, Note_off_c, 0, 66, 100
1, 14193, Note_on_c, 0, 64, 100
1, 14289, Note_off_c, 0, 64, 100
1, 14289, Note_on_c, 0, 66, 100
1, 14385, Note_off_c, 0, 66, 100
1, 14385, Note_on_c, 0, 64, 100
1, 14433, Note_off_c, 0, 64, 100
1, 14433, Note_on_c, 0, 62, 100
1, 14481, Note_off_c, 0, 62, 100
1, 14481, Note_on_c, 0, 61, 100
1, 14615, Note_off_c, 0, 61, 100
1, 14615, Note_on_c, 0, 64, 100
1, 14653, Note_off_c, 0, 64, 100
1, 14653, Note_on_c, 0, 62, 100
1, 14691, Note_off_c, 0, 62, 100
1, 14691, Note_on_c, 0, 60, 100
1, 14729, Note_off_c, 0, 60, 100
1, 14729, Note_on_c, 0, 59, 100
1, 15305, Note_off_c, 0, 59, 100
1, 15919, Note_on_c, 0, 64, 100
1, 16015, Note_off_c, 0, 64, 100
1, 16015, Note_on_c, 0, 67, 100
1, 16063, Note_off_c, 0, 67, 100
1, 16063, Note_on_c, 0, 71, 100
1, 16111, Note_off_c, 0, 71, 100
1, 16111, Note_on_c, 0, 74, 100
1, 16175, Note_off_c, 0, 74, 100
1, 16175, Note_on_c, 0, 78, 100
1, 16207, Note_off_c, 0, 78, 100
1, 16207, Note_on_c, 0, 79, 100
1, 16238, Note_off_c, 0, 79, 100
1, 16238, Note_on_c, 0, 81, 100
1, 16270, Note_off_c, 0, 81, 100
1, 16270, Note_on_c, 0, 83, 100
1, 16301, Note_off_c, 0, 83, 100
1, 16301, Note_on_c, 0, 85, 100
1, 16781, Note_off_c, 0, 85, 100
1, 16781, Note_on_c, 0, 83, 100
1, 16829, Note_off_c, 0, 83, 100
1, 16829, Note_on_c, 0, 85, 100
1, 16877, Note_off_c, 0, 85, 100
1, 16877, Note_on_c, 0, 83, 100
1, 17213, Note_off_c, 0, 83, 100
1, 17213, Note_on_c, 0, 81, 100
1, 17325, Note_off_c, 0, 81, 100
1, 17325, Note_on_c, 0, 79, 100
1, 17453, Note_off_c, 0, 79, 100
1, 17453, Note_on_c, 0, 76, 100
1, 17549, Note_off_c, 0, 76, 100
1, 17981, Note_on_c, 0, 71, 100
1, 18173, Note_off_c, 0, 71, 100
1, 18173, Note_on_c, 0, 83, 100
1, 18365, Note_off_c, 0, 83, 100
1, 18365, Note_on_c, 0, 81, 100
1, 18413, Note_off_c, 0, 81, 100
1, 18413, Note_on_c, 0, 83, 100
1, 18605, Note_off_c, 0, 83, 100
1, 18605, Note_on_c, 0, 83, 100
1, 18797, Note_off_c, 0, 83, 100
1, 18797, Note_on_c, 0, 83, 100
1, 18989, Note_off_c, 0, 83, 100
1, 18989, Note_on_c, 0, 83, 100
1, 19085, Note_off_c, 0, 83, 100
1, 19085, Note_on_c, 0, 86, 100
1, 19181, Note_off_c, 0, 86, 100
1, 19181, Note_on_c, 0, 83, 100
1, 19853, Note_off_c, 0, 83, 100
1, 19853, Note_on_c, 0, 81, 100
1, 19949, Note_off_c, 0, 81, 100
1, 19949, Note_on_c, 0, 79, 100
1, 20045, Note_off_c, 0, 79, 100
1, 20045, Note_on_c, 0, 76, 100
1, 20141, Note_off_c, 0, 76, 100
1, 20813, Note_on_c, 0, 78, 100
1, 21101, Note_off_c, 0, 78, 100
1, 21101, Note_on_c, 0, 76, 100
1, 21165, Note_off_c, 0, 76, 100
1, 21165, Note_on_c, 0, 74, 100
1, 21229, Note_off_c, 0, 74, 100
1, 21229, Note_on_c, 0, 71, 100
1, 21293, Note_off_c, 0, 71, 100
1, 21293, Note_on_c, 0, 74, 100
1, 21325, Note_off_c, 0, 74, 100
1, 21325, Note_on_c, 0, 76, 100
1, 21357, Note_off_c, 0, 76, 100
1, 21357, Note_on_c, 0, 78, 100
1, 21389, Note_off_c, 0, 78, 100
1, 21389, Note_on_c, 0, 76, 100
1, 21453, Note_off_c, 0, 76, 100
1, 21453, Note_on_c, 0, 74, 100
1, 21485, Note_off_c, 0, 74, 100
1, 21485, Note_on_c, 0, 71, 100
1, 21965, Note_off_c, 0, 71, 100
1, 21965, Note_on_c, 0, 74, 100
1, 22013, Note_off_c, 0, 74, 100
1, 22013, Note_on_c, 0, 76, 100
1, 22061, Note_off_c, 0, 76, 100
1, 22061, Note_on_c, 0, 78, 100
1, 22109, Note_off_c, 0, 78, 100
1, 22109, Note_on_c, 0, 76, 100
1, 22156, Note_off_c, 0, 76, 100
1, 22156, Note_on_c, 0, 74, 100
1, 22204, Note_off_c, 0, 74, 100
1, 22204, Note_on_c, 0, 71, 100
1, 22252, Note_off_c, 0, 71, 100
1, 22252, Note_on_c, 0, 74, 100
1, 22279, Note_off_c, 0, 74, 100
1, 22279, Note_on_c, 0, 76, 100
1, 22306, Note_off_c, 0, 76, 100
1, 22306, Note_on_c, 0, 78, 100
1, 22333, Note_off_c, 0, 78, 100
1, 22333, Note_on_c, 0, 81, 100
1, 22387, Note_off_c, 0, 81, 100
1, 22387, Note_on_c, 0, 83, 100
1, 22414, Note_off_c, 0, 83, 100
1, 22414, Note_on_c, 0, 81, 100
1, 22441, Note_off_c, 0, 81, 100
1, 22441, Note_on_c, 0, 78, 100
1, 22489, Note_off_c, 0, 78, 100
1, 22489, Note_on_c, 0, 76, 100
1, 22537, Note_off_c, 0, 76, 100
1, 22537, Note_on_c, 0, 74, 100
1, 22585, Note_off_c, 0, 74, 100
1, 22585, Note_on_c, 0, 71, 100
1, 22633, Note_off_c, 0, 71, 100
1, 22633, Note_on_c, 0, 74, 100
1, 22671, Note_off_c, 0, 74, 100
1, 22671, Note_on_c, 0, 76, 100
1, 22709, Note_off_c, 0, 76, 100
1, 22709, Note_on_c, 0, 78, 100
1, 22747, Note_off_c, 0, 78, 100
1, 22747, Note_on_c, 0, 81, 100
1, 22785, Note_off_c, 0, 81, 100
1, 22785, Note_on_c, 0, 83, 100
1, 22823, Note_off_c, 0, 83, 100
1, 22823, Note_on_c, 0, 81, 100
1, 22861, Note_off_c, 0, 81, 100
1, 22861, Note_on_c, 0, 78, 100
1, 22899, Note_off_c, 0, 78, 100
1, 22899, Note_on_c, 0, 76, 100
1, 22937, Note_off_c, 0, 76, 100
1, 22937, Note_on_c, 0, 74, 100
1, 22975, Note_off_c, 0, 74, 100
1, 22975, Note_on_c, 0, 71, 100
1, 23045, Note_off_c, 0, 71, 100
1, 23045, Note_on_c, 0, 74, 100
1, 23077, Note_off_c, 0, 74, 100
1, 23077, Note_on_c, 0, 76, 100
1, 23109, Note_off_c, 0, 76, 100
1, 23109, Note_on_c, 0, 78, 100
1, 23141, Note_off_c, 0, 78, 100
1, 23141, Note_on_c, 0, 81, 100
1, 23173, Note_off_c, 0, 81, 100
1, 23173, Note_on_c, 0, 83, 100
1, 23229, Note_off_c, 0, 83, 100
1, 23229, Note_on_c, 0, 85, 100
1, 23277, Note_off_c, 0, 85, 100
1, 23277, Note_on_c, 0, 83, 100
1, 23325, Note_off_c, 0, 83, 100
1, 23325, Note_on_c, 0, 81, 100
1, 23348, Note_off_c, 0, 81, 100
1, 23348, Note_on_c, 0, 79, 100
1, 23372, Note_off_c, 0, 79, 100
1, 23372, Note_on_c, 0, 78, 100
1, 23396, Note_off_c, 0, 78, 100
1, 23396, Note_on_c, 0, 76, 100
1, 23444, Note_off_c, 0, 76, 100
1, 23444, Note_on_c, 0, 74, 100
1, 23491, Note_off_c, 0, 74, 100
1, 23491, Note_on_c, 0, 71, 100
1, 23539, Note_off_c, 0, 71, 100
1, 23539, Note_on_c, 0, 74, 100
1, 23587, Note_off_c, 0, 74, 100
1, 23587, Note_on_c, 0, 76, 100
1, 23625, Note_off_c, 0, 76, 100
1, 23625, Note_on_c, 0, 78, 100
1, 23663, Note_off_c, 0, 78, 100
1, 23663, Note_on_c, 0, 81, 100
1, 23701, Note_off_c, 0, 81, 100
1, 23701, Note_on_c, 0, 83, 100
1, 23777, Note_off_c, 0, 83, 100
1, 23777, Note_on_c, 0, 79, 100
1, 23815, Note_off_c, 0, 79, 100
1, 23815, Note_on_c, 0, 78, 100
1, 23853, Note_off_c, 0, 78, 100
1, 23853, Note_on_c, 0, 76, 100
1, 23891, Note_off_c, 0, 76, 100
1, 23891, Note_on_c, 0, 74, 100
1, 23929, Note_off_c, 0, 74, 100
1, 23929, Note_on_c, 0, 73, 100
1, 24274, Note_off_c, 0, 73, 100
1, 24274, Note_on_c, 0, 71, 100
1, 24312, Note_off_c, 0, 71, 100
1, 24312, Note_on_c, 0, 69, 100
1, 24350, Note_off_c, 0, 69, 100
1, 24350, Note_on_c, 0, 66, 100
1, 24398, Note_off_c, 0, 66, 100
1, 24398, Note_on_c, 0, 64, 100
1, 24445, Note_off_c, 0, 64, 100
1, 24445, Note_on_c, 0, 62, 100
1, 24637, Note_off_c, 0, 62, 100
1, 24637, Note_on_c, 0, 64, 100
1, 24829, Note_off_c, 0, 64, 100
1, 25405, Note_on_c, 0, 64, 100
1, 25453, Note_off_c, 0, 64, 100
1, 25453, Note_on_c, 0, 67, 100
1, 25501, Note_off_c, 0, 67, 100
1, 25501, Note_on_c, 0, 69, 100
1, 25549, Note_off_c, 0, 69, 100
1, 25549, Note_on_c, 0, 71, 100
1, 26365, Note_off_c, 0, 71, 100
1, 26365, Note_on_c, 0, 69, 100
1, 26413, Note_off_c, 0, 69, 100
1, 26413, Note_on_c, 0, 67, 100
1, 26461, Note_off_c, 0, 67, 100
1, 26461, Note_on_c, 0, 64, 100
1, 26509, Note_off_c, 0, 64, 100
1, 26509, Note_on_c, 0, 67, 100
1, 26557, Note_off_c, 0, 67, 100
1, 26557, Note_on_c, 0, 69, 100
1, 26605, Note_off_c, 0, 69, 100
1, 26605, Note_on_c, 0, 71, 100
1, 26653, Note_off_c, 0, 71, 100
1, 26653, Note_on_c, 0, 69, 100
1, 26691, Note_off_c, 0, 69, 100
1, 26691, Note_on_c, 0, 67, 100
1, 26729, Note_off_c, 0, 67, 100
1, 26729, Note_on_c, 0, 64, 100
1, 26805, Note_off_c, 0, 64, 100
1, 26805, Note_on_c, 0, 67, 100
1, 26843, Note_off_c, 0, 67, 100
1, 26843, Note_on_c, 0, 69, 100
1, 26881, Note_off_c, 0, 69, 100
1, 26881, Note_on_c, 0, 71, 100
1, 26919, Note_off_c, 0, 71, 100
1, 26919, Note_on_c, 0, 69, 100
1, 26957, Note_off_c, 0, 69, 100
1, 26957, Note_on_c, 0, 67, 100
1, 26995, Note_off_c, 0, 67, 100
1, 26995, Note_on_c, 0, 64, 100
1, 27033, Note_off_c, 0, 64, 100
1, 27033, Note_on_c, 0, 67, 100
1, 27081, Note_off_c, 0, 67, 100
1, 27081, Note_on_c, 0, 69, 100
1, 27129, Note_off_c, 0, 69, 100
1, 27129, Note_on_c, 0, 71, 100
1, 27177, Note_off_c, 0, 71, 100
1, 27177, Note_on_c, 0, 67, 100
1, 27225, Note_off_c, 0, 67, 100
1, 27225, Note_on_c, 0, 64, 100
1, 27289, Note_off_c, 0, 64, 100
1, 27289, Note_on_c, 0, 67, 100
1, 27321, Note_off_c, 0, 67, 100
1, 27321, Note_on_c, 0, 69, 100
1, 27353, Note_off_c, 0, 69, 100
1, 27353, Note_on_c, 0, 71, 100
1, 27384, Note_off_c, 0, 71, 100
1, 27384, Note_on_c, 0, 69, 100
1, 27416, Note_off_c, 0, 69, 100
1, 27416, Note_on_c, 0, 67, 100
1, 27470, Note_off_c, 0, 67, 100
1, 27470, Note_on_c, 0, 64, 100
1, 27497, Note_off_c, 0, 64, 100
1, 27497, Note_on_c, 0, 65, 100
1, 27524, Note_off_c, 0, 65, 100
1, 27524, Note_on_c, 0, 67, 100
1, 27551, Note_off_c, 0, 67, 100
1, 27551, Note_on_c, 0, 69, 100
1, 27578, Note_off_c, 0, 69, 100
1, 27578, Note_on_c, 0, 70, 100
1, 27605, Note_off_c, 0, 70, 100
1, 27605, Note_on_c, 0, 69, 100
1, 27643, Note_off_c, 0, 69, 100
1, 27643, Note_on_c, 0, 66, 100
1, 27681, Note_off_c, 0, 66, 100
1, 27681, Note_on_c, 0, 67, 100
1, 27719, Note_off_c, 0, 67, 100
1, 27719, Note_on_c, 0, 69, 100
1, 27757, Note_off_c, 0, 69, 100
1, 27757, Note_on_c, 0, 71, 100
1, 27795, Note_off_c, 0, 71, 100
1, 27795, Note_on_c, 0, 73, 100
1, 27827, Note_off_c, 0, 73, 100
1, 27827, Note_on_c, 0, 74, 100
1, 27858, Note_off_c, 0, 74, 100
1, 27858, Note_on_c, 0, 76, 100
1, 27890, Note_off_c, 0, 76, 100
1, 27890, Note_on_c, 0, 79, 100
1, 27922, Note_off_c, 0, 79, 100
1, 27922, Note_on_c, 0, 81, 100
1, 27953, Note_off_c, 0, 81, 100
1, 27953, Note_on_c, 0, 83, 100
1, 27985, Note_off_c, 0, 83, 100
1, 27985, Note_on_c, 0, 85, 100
1, 28657, Note_off_c, 0, 85, 100
1, 28657, Note_on_c, 0, 83, 100
1, 28753, Note_off_c, 0, 83, 100
1, 28753, Note_on_c, 0, 85, 100
1, 28945, Note_off_c, 0, 85, 100
1, 28945, Note_on_c, 0, 83, 100
1, 29137, Note_off_c, 0, 83, 100
1, 29857, Note_on_c, 0, 83, 100
1, 29953, Note_off_c, 0, 83, 100
1, 29953, Note_on_c, 0, 83, 100
1, 30049, Note_off_c, 0, 83, 100
1, 30049, Note_on_c, 0, 86, 100
1, 30433, Note_off_c, 0, 86, 100
1, 30433, Note_on_c, 0, 83, 100
1, 30481, Note_off_c, 0, 83, 100
1, 30481, Note_on_c, 0, 86, 100
1, 30961, Note_off_c, 0, 86, 100
1, 30961, Note_on_c, 0, 84, 100
1, 30985, Note_off_c, 0, 84, 100
1, 30985, Note_on_c, 0, 82, 100
1, 31009, Note_off_c, 0, 82, 100
1, 31009, Note_on_c, 0, 81, 100
1, 31033, Note_off_c, 0, 81, 100
1, 31033, Note_on_c, 0, 79, 100
1, 31057, Note_off_c, 0, 79, 100
1, 31057, Note_on_c, 0, 76, 100
1, 31249, Note_off_c, 0, 76, 100
1, 31249, Note_on_c, 0, 76, 100
1, 31441, Note_off_c, 0, 76, 100
1, 31441, Note_on_c, 0, 76, 100
1, 31585, Note_off_c, 0, 76, 100
1, 31585, Note_on_c, 0, 76, 100
1, 32161, Note_off_c, 0, 76, 100
1, 32161, Note_on_c, 0, 74, 100
1, 32209, Note_off_c, 0, 74, 100
1, 32209, Note_on_c, 0, 76, 100
1, 32401, Note_off_c, 0, 76, 100
1, 32401, Note_on_c, 0, 76, 100
1, 32593, Note_off_c, 0, 76, 100
1, 32593, Note_on_c, 0, 76, 100
1, 32785, Note_off_c, 0, 76, 100
1, 32785, Note_on_c, 0, 70, 100
1, 32881, Note_off_c, 0, 70, 100
1, 32881, Note_on_c, 0, 71, 100
1, 33313, Note_off_c, 0, 71, 100
1, 33313, Note_on_c, 0, 69, 100
1, 33361, Note_off_c, 0, 69, 100
1, 33361, Note_on_c, 0, 67, 100
1, 33505, Note_off_c, 0, 67, 100
1, 33505, Note_on_c, 0, 64, 100
1, 33601, Note_off_c, 0, 64, 100
1, 34465, Note_on_c, 0, 64, 100
1, 34513, Note_off_c, 0, 64, 100
1, 34513, Note_on_c, 0, 67, 100
1, 34609, Note_off_c, 0, 67, 100
1, 34609, Note_on_c, 0, 69, 100
1, 35233, Note_off_c, 0, 69, 100
1, 35233, Note_on_c, 0, 74, 100
1, 35617, Note_off_c, 0, 74, 100
1, 35617, Note_on_c, 0, 71, 100
1, 36193, Note_off_c, 0, 71, 100
1, 36721, Note_on_c, 0, 64, 100
1, 36817, Note_off_c, 0, 64, 100
1, 36817, Note_on_c, 0, 67, 100
1, 36913, Note_off_c, 0, 67, 100
1, 36913, Note_on_c, 0, 69, 100
1, 37009, Note_off_c, 0, 69, 100
1, 37009, Note_on_c, 0, 69, 100
1, 37153, Note_off_c, 0, 69, 100
1, 37153, Note_on_c, 0, 69, 100
1, 37297, Note_off_c, 0, 69, 100
1, 37297, Note_on_c, 0, 69, 100
1, 37537, Note_off_c, 0, 69, 100
1, 37537, Note_on_c, 0, 74, 100
1, 37777, Note_off_c, 0, 74, 100
1, 37777, Note_on_c, 0, 73, 100
1, 37873, Note_off_c, 0, 73, 100
1, 37873, Note_on_c, 0, 76, 100
1, 37921, Note_off_c, 0, 76, 100
1, 37921, Note_on_c, 0, 77, 100
1, 37969, Note_off_c, 0, 77, 100
1, 37969, Note_on_c, 0, 74, 100
1, 38017, Note_off_c, 0, 74, 100
1, 38017, Note_on_c, 0, 72, 100
1, 38065, Note_off_c, 0, 72, 100
1, 38065, Note_on_c, 0, 71, 100
1, 38449, Note_off_c, 0, 71, 100
1, 38813, Note_on_c, 0, 70, 100
1, 38851, Note_off_c, 0, 70, 100
1, 38851, Note_on_c, 0, 67, 100
1, 38889, Note_off_c, 0, 67, 100
1, 38889, Note_on_c, 0, 66, 100
1, 38959, Note_off_c, 0, 66, 100
1, 38959, Note_on_c, 0, 67, 100
1, 38991, Note_off_c, 0, 67, 100
1, 38991, Note_on_c, 0, 69, 100
1, 39023, Note_off_c, 0, 69, 100
1, 39023, Note_on_c, 0, 71, 100
1, 39054, Note_off_c, 0, 71, 100
1, 39054, Note_on_c, 0, 73, 100
1, 39086, Note_off_c, 0, 73, 100
1, 39086, Note_on_c, 0, 74, 100
1, 39118, Note_off_c, 0, 74, 100
1, 39118, Note_on_c, 0, 76, 100
1, 39156, Note_off_c, 0, 76, 100
1, 39156, Note_on_c, 0, 78, 100
1, 39194, Note_off_c, 0, 78, 100
1, 39194, Note_on_c, 0, 79, 100
1, 39232, Note_off_c, 0, 79, 100
1, 39232, Note_on_c, 0, 81, 100
1, 39270, Note_off_c, 0, 81, 100
1, 39270, Note_on_c, 0, 83, 100
1, 39308, Note_off_c, 0, 83, 100
1, 39308, Note_on_c, 0, 85, 100
1, 39596, Note_off_c, 0, 85, 100
1, 39596, Note_on_c, 0, 83, 100
1, 39691, Note_off_c, 0, 83, 100
1, 39691, Note_on_c, 0, 85, 100
1, 39729, Note_off_c, 0, 85, 100
1, 39729, Note_on_c, 0, 87, 100
1, 39767, Note_off_c, 0, 87, 100
1, 39767, Note_on_c, 0, 86, 100
1, 39805, Note_off_c, 0, 86, 100
1, 39805, Note_on_c, 0, 85, 100
1, 39843, Note_off_c, 0, 85, 100
1, 39843, Note_on_c, 0, 83, 100
1, 39881, Note_off_c, 0, 83, 100
1, 39881, Note_on_c, 0, 80, 100
1, 40169, Note_off_c, 0, 80, 100
1, 40169, Note_on_c, 0, 78, 100
1, 40265, Note_off_c, 0, 78, 100
1, 40456, Note_on_c, 0, 66, 100
1, 40494, Note_off_c, 0, 66, 100
1, 40494, Note_on_c, 0, 67, 100
1, 40532, Note_off_c, 0, 67, 100
1, 40532, Note_on_c, 0, 69, 100
1, 40570, Note_off_c, 0, 69, 100
1, 40570, Note_on_c, 0, 70, 100
1, 40608, Note_off_c, 0, 70, 100
1, 40608, Note_on_c, 0, 73, 100
1, 40646, Note_off_c, 0, 73, 100
1, 40646, Note_on_c, 0, 74, 100
1, 40670, Note_off_c, 0, 74, 100
1, 40670, Note_on_c, 0, 76, 100
1, 40693, Note_off_c, 0, 76, 100
1, 40693, Note_on_c, 0, 79, 100
1, 40717, Note_off_c, 0, 79, 100
1, 40717, Note_on_c, 0, 83, 100
1, 40765, Note_off_c, 0, 83, 100
1, 40765, Note_on_c, 0, 85, 100
1, 40789, Note_off_c, 0, 85, 100
1, 40789, Note_on_c, 0, 84, 100
1, 40813, Note_off_c, 0, 84, 100
1, 40813, Note_on_c, 0, 83, 100
1, 40836, Note_off_c, 0, 83, 100
1, 40836, Note_on_c, 0, 85, 100
1, 40874, Note_off_c, 0, 85, 100
1, 40874, Note_on_c, 0, 86, 100
1, 40912, Note_off_c, 0, 86, 100
1, 40912, Note_on_c, 0, 85, 100
1, 40950, Note_off_c, 0, 85, 100
1, 40950, Note_on_c, 0, 83, 100
1, 40988, Note_off_c, 0, 83, 100
1, 40988, Note_on_c, 0, 80, 100
1, 41314, Note_off_c, 0, 80, 100
1, 41314, Note_on_c, 0, 78, 100
1, 41410, Note_off_c, 0, 78, 100
1, 41649, Note_on_c, 0, 71, 100
1, 41697, Note_off_c, 0, 71, 100
1, 41697, Note_on_c, 0, 73, 100
1, 41745, Note_off_c, 0, 73, 100
1, 41745, Note_on_c, 0, 74, 100
1, 41793, Note_off_c, 0, 74, 100
1, 41793, Note_on_c, 0, 78, 100
1, 41817, Note_off_c, 0, 78, 100
1, 41817, Note_on_c, 0, 81, 100
1, 41840, Note_off_c, 0, 81, 100
1, 41840, Note_on_c, 0, 83, 100
1, 41888, Note_off_c, 0, 83, 100
1, 41888, Note_on_c, 0, 85, 100
1, 41935, Note_off_c, 0, 85, 100
1, 41935, Note_on_c, 0, 84, 100
1, 41959, Note_off_c, 0, 84, 100
1, 41959, Note_on_c, 0, 83, 100
1, 41982, Note_off_c, 0, 83, 100
1, 41982, Note_on_c, 0, 85, 100
1, 42030, Note_off_c, 0, 85, 100
1, 42030, Note_on_c, 0, 86, 100
1, 42078, Note_off_c, 0, 86, 100
1, 42078, Note_on_c, 0, 85, 100
1, 42126, Note_off_c, 0, 85, 100
1, 42126, Note_on_c, 0, 83, 100
1, 42174, Note_off_c, 0, 83, 100
1, 42174, Note_on_c, 0, 80, 100
1, 42462, Note_off_c, 0, 80, 100
1, 42462, Note_on_c, 0, 78, 100
1, 42557, Note_off_c, 0, 78, 100
1, 42557, Note_on_c, 0, 74, 100
1, 43229, Note_off_c, 0, 74, 100
1, 43229, Note_on_c, 0, 76, 100
1, 43325, Note_off_c, 0, 76, 100
1, 43325, Note_on_c, 0, 74, 100
1, 43709, Note_off_c, 0, 74, 100
1, 43709, Note_on_c, 0, 74, 100
1, 43853, Note_off_c, 0, 74, 100
1, 43853, Note_on_c, 0, 71, 100
1, 43948, Note_off_c, 0, 71, 100
1, 43948, Note_on_c, 0, 71, 100
1, 44348, Note_off_c, 0, 71, 100
1, 44348, Note_on_c, 0, 69, 100
1, 44412, Note_off_c, 0, 69, 100
1, 44412, Note_on_c, 0, 71, 100
1, 44476, Note_off_c, 0, 71, 100
1, 44476, Note_on_c, 0, 69, 100
1, 44812, Note_off_c, 0, 69, 100
1, 44812, Note_on_c, 0, 67, 100
1, 44860, Note_off_c, 0, 67, 100
1, 44860, Note_on_c, 0, 64, 100
1, 44956, Note_off_c, 0, 64, 100
1, 44956, Note_on_c, 0, 59, 100
1, 45244, Note_off_c, 0, 59, 100
1, 46012, Note_on_c, 0, 64, 100
1, 46108, Note_off_c, 0, 64, 100
1, 46108, Note_on_c, 0, 67, 100
1, 46204, Note_off_c, 0, 67, 100
1, 46204, Note_on_c, 0, 69, 100
1, 46348, Note_off_c, 0, 69, 100
1, 46348, Note_on_c, 0, 69, 100
1, 47068, Note_off_c, 0, 69, 100
1, 47068, Note_on_c, 0, 67, 100
1, 47163, Note_off_c, 0, 67, 100
1, 47163, Note_on_c, 0, 64, 100
1, 47355, Note_off_c, 0, 64, 100
1, 47355, Note_on_c, 0, 64, 100
1, 47451, Note_off_c, 0, 64, 100
1, 47835, Note_on_c, 0, 64, 100
1, 47883, Note_off_c, 0, 64, 100
1, 47883, Note_on_c, 0, 66, 100
1, 47931, Note_off_c, 0, 66, 100
1, 47931, Note_on_c, 0, 67, 100
1, 47969, Note_off_c, 0, 67, 100
1, 47969, Note_on_c, 0, 69, 100
1, 48007, Note_off_c, 0, 69, 100
1, 48007, Note_on_c, 0, 71, 100
1, 48045, Note_off_c, 0, 71, 100
1, 48045, Note_on_c, 0, 73, 100
1, 48083, Note_off_c, 0, 73, 100
1, 48083, Note_on_c, 0, 74, 100
1, 48121, Note_off_c, 0, 74, 100
1, 48121, Note_on_c, 0, 76, 100
1, 48153, Note_off_c, 0, 76, 100
1, 48153, Note_on_c, 0, 78, 100
1, 48185, Note_off_c, 0, 78, 100
1, 48185, Note_on_c, 0, 79, 100
1, 48248, Note_off_c, 0, 79, 100
1, 48248, Note_on_c, 0, 81, 100
1, 48280, Note_off_c, 0, 81, 100
1, 48280, Note_on_c, 0, 83, 100
1, 48312, Note_off_c, 0, 83, 100
1, 48312, Note_on_c, 0, 85, 100
1, 48648, Note_off_c, 0, 85, 100
1, 48648, Note_on_c, 0, 83, 100
1, 48696, Note_off_c, 0, 83, 100
1, 48696, Note_on_c, 0, 81, 100
1, 48760, Note_off_c, 0, 81, 100
1, 48760, Note_on_c, 0, 79, 100
1, 48823, Note_off_c, 0, 79, 100
1, 48823, Note_on_c, 0, 78, 100
1, 48951, Note_off_c, 0, 78, 100
1, 48951, Note_on_c, 0, 83, 100
1, 48983, Note_off_c, 0, 83, 100
1, 48983, Note_on_c, 0, 81, 100
1, 49015, Note_off_c, 0, 81, 100
1, 49015, Note_on_c, 0, 79, 100
1, 49047, Note_off_c, 0, 79, 100
1, 49047, Note_on_c, 0, 78, 100
1, 49079, Note_off_c, 0, 78, 100
1, 49079, Note_on_c, 0, 76, 100
1, 49175, Note_off_c, 0, 76, 100
1, 49175, Note_on_c, 0, 78, 100
1, 49223, Note_off_c, 0, 78, 100
1, 49223, Note_on_c, 0, 83, 100
1, 49271, Note_off_c, 0, 83, 100
1, 49271, Note_on_c, 0, 81, 100
1, 49303, Note_off_c, 0, 81, 100
1, 49303, Note_on_c, 0, 78, 100
1, 49335, Note_off_c, 0, 78, 100
1, 49335, Note_on_c, 0, 76, 100
1, 49366, Note_off_c, 0, 76, 100
1, 49366, Note_on_c, 0, 74, 100
1, 49398, Note_off_c, 0, 74, 100
1, 49398, Note_on_c, 0, 73, 100
1, 49736, Note_off_c, 0, 73, 100
1, 49736, Note_on_c, 0, 71, 100
1, 49763, Note_off_c, 0, 71, 100
1, 49763, Note_on_c, 0, 68, 100
1, 49790, Note_off_c, 0, 68, 100
1, 49790, Note_on_c, 0, 67, 100
1, 49817, Note_off_c, 0, 67, 100
1, 49817, Note_on_c, 0, 66, 100
1, 49844, Note_off_c, 0, 66, 100
1, 49844, Note_on_c, 0, 64, 100
1, 49892, Note_off_c, 0, 64, 100
1, 49892, Note_on_c, 0, 62, 100
1, 49940, Note_off_c, 0, 62, 100
1, 49940, Note_on_c, 0, 61, 100
1, 50132, Note_off_c, 0, 61, 100
1, 50372, Note_on_c, 0, 78, 100
1, 50516, Note_off_c, 0, 78, 100
1, 50516, Note_on_c, 0, 76, 100
1, 50612, Note_off_c, 0, 76, 100
1, 50612, Note_on_c, 0, 78, 100
1, 50756, Note_off_c, 0, 78, 100
1, 50756, Note_on_c, 0, 76, 100
1, 50804, Note_off_c, 0, 76, 100
1, 50804, Note_on_c, 0, 74, 100
1, 50835, Note_off_c, 0, 74, 100
1, 50835, Note_on_c, 0, 73, 100
1, 50867, Note_off_c, 0, 73, 100
1, 50867, Note_on_c, 0, 70, 100
1, 50899, Note_off_c, 0, 70, 100
1, 50899, Note_on_c, 0, 69, 100
1, 50931, Note_off_c, 0, 69, 100
1, 50931, Note_on_c, 0, 67, 100
1, 50963, Note_off_c, 0, 67, 100
1, 50963, Note_on_c, 0, 66, 100
1, 51283, Note_off_c, 0, 66, 100
1, 51283, Note_on_c, 0, 73, 100
1, 51667, Note_off_c, 0, 73, 100
1, 51667, Note_on_c, 0, 70, 100
1, 51715, Note_off_c, 0, 70, 100
1, 51715, Note_on_c, 0, 73, 100
1, 51801, Note_off_c, 0, 73, 100
1, 51801, Note_on_c, 0, 70, 100
1, 51839, Note_off_c, 0, 70, 100
1, 51839, Note_on_c, 0, 69, 100
1, 51877, Note_off_c, 0, 69, 100
1, 51877, Note_on_c, 0, 67, 100
1, 51915, Note_off_c, 0, 67, 100
1, 51915, Note_on_c, 0, 66, 100
1, 51953, Note_off_c, 0, 66, 100
1, 51953, Note_on_c, 0, 62, 100
1, 52049, Note_off_c, 0, 62, 100
1, 52049, Note_on_c, 0, 61, 100
1, 52145, Note_off_c, 0, 61, 100
1, 52481, Note_on_c, 0, 83, 100
1, 52817, Note_off_c, 0, 83, 100
1, 52817, Note_on_c, 0, 81, 100
1, 52865, Note_off_c, 0, 81, 100
1, 52865, Note_on_c, 0, 83, 100
1, 52961, Note_off_c, 0, 83, 100
1, 52961, Note_on_c, 0, 85, 100
1, 53009, Note_off_c, 0, 85, 100
1, 53009, Note_on_c, 0, 83, 100
1, 53057, Note_off_c, 0, 83, 100
1, 53057, Note_on_c, 0, 82, 100
1, 53201, Note_off_c, 0, 82, 100
1, 53201, Note_on_c, 0, 80, 100
1, 53249, Note_off_c, 0, 80, 100
1, 53249, Note_on_c, 0, 79, 100
1, 53297, Note_off_c, 0, 79, 100
1, 53297, Note_on_c, 0, 75, 100
1, 53318, Note_off_c, 0, 75, 100
1, 53318, Note_on_c, 0, 77, 100
1, 53360, Note_off_c, 0, 77, 100
1, 53360, Note_on_c, 0, 79, 100
1, 53381, Note_off_c, 0, 79, 100
1, 53381, Note_on_c, 0, 80, 100
1, 53402, Note_off_c, 0, 80, 100
1, 53402, Note_on_c, 0, 82, 100
1, 53423, Note_off_c, 0, 82, 100
1, 53423, Note_on_c, 0, 84, 100
1, 53444, Note_off_c, 0, 84, 100
1, 53444, Note_on_c, 0, 76, 100
1, 53465, Note_off_c, 0, 76, 100
1, 53465, Note_on_c, 0, 78, 100
1, 53486, Note_off_c, 0, 78, 100
1, 53486, Note_on_c, 0, 80, 100
1, 53518, Note_off_c, 0, 80, 100
1, 53518, Note_on_c, 0, 79, 100
1, 53582, Note_off_c, 0, 79, 100
1, 53582, Note_on_c, 0, 76, 100
1, 53614, Note_off_c, 0, 76, 100
1, 53614, Note_on_c, 0, 78, 100
1, 53646, Note_off_c, 0, 78, 100
1, 53646, Note_on_c, 0, 75, 100
1, 53678, Note_off_c, 0, 75, 100
1, 53678, Note_on_c, 0, 74, 100
1, 53702, Note_off_c, 0, 74, 100
1, 53702, Note_on_c, 0, 73, 100
1, 53750, Note_off_c, 0, 73, 100
1, 53750, Note_on_c, 0, 71, 100
1, 53798, Note_off_c, 0, 71, 100
1, 53798, Note_on_c, 0, 70, 100
1, 53822, Note_off_c, 0, 70, 100
1, 53822, Note_on_c, 0, 69, 100
1, 53846, Note_off_c, 0, 69, 100
1, 53846, Note_on_c, 0, 67, 100
1, 53870, Note_off_c, 0, 67, 100
1, 53870, Note_on_c, 0, 66, 100
1, 53918, Note_off_c, 0, 66, 100
1, 53918, Note_on_c, 0, 69, 100
1, 53966, Note_off_c, 0, 69, 100
1, 53966, Note_on_c, 0, 70, 100
1, 54014, Note_off_c, 0, 70, 100
1, 54014, Note_on_c, 0, 72, 100
1, 54062, Note_off_c, 0, 72, 100
1, 54062, Note_on_c, 0, 74, 100
1, 54083, Note_off_c, 0, 74, 100
1, 54083, Note_on_c, 0, 76, 100
1, 54104, Note_off_c, 0, 76, 100
1, 54104, Note_on_c, 0, 78, 100
1, 54125, Note_off_c, 0, 78, 100
1, 54125, Note_on_c, 0, 79, 100
1, 54146, Note_off_c, 0, 79, 100
1, 54146, Note_on_c, 0, 81, 100
1, 54167, Note_off_c, 0, 81, 100
1, 54167, Note_on_c, 0, 83, 100
1, 54188, Note_off_c, 0, 83, 100
1, 54188, Note_on_c, 0, 84, 100
1, 54209, Note_off_c, 0, 84, 100
1, 54209, Note_on_c, 0, 83, 100
1, 54230, Note_off_c, 0, 83, 100
1, 54230, Note_on_c, 0, 79, 100
1, 54275, Note_off_c, 0, 79, 100
1, 54275, Note_on_c, 0, 78, 100
1, 54299, Note_off_c, 0, 78, 100
1, 54299, Note_on_c, 0, 76, 100
1, 54323, Note_off_c, 0, 76, 100
1, 54323, Note_on_c, 0, 74, 100
1, 54347, Note_off_c, 0, 74, 100
1, 54347, Note_on_c, 0, 72, 100
1, 54371, Note_off_c, 0, 72, 100
1, 54371, Note_on_c, 0, 70, 100
1, 54395, Note_off_c, 0, 70, 100
1, 54395, Note_on_c, 0, 67, 100
1, 54443, Note_off_c, 0, 67, 100
1, 54443, Note_on_c, 0, 66, 100
1, 54731, Note_off_c, 0, 66, 100
1, 55115, Note_on_c, 0, 64, 100
1, 55163, Note_off_c, 0, 64, 100
1, 55163, Note_on_c, 0, 66, 100
1, 55211, Note_off_c, 0, 66, 100
1, 55211, Note_on_c, 0, 67, 100
1, 55275, Note_off_c, 0, 67, 100
1, 55275, Note_on_c, 0, 69, 100
1, 55306, Note_off_c, 0, 69, 100
1, 55306, Note_on_c, 0, 70, 100
1, 55338, Note_off_c, 0, 70, 100
1, 55338, Note_on_c, 0, 73, 100
1, 55370, Note_off_c, 0, 73, 100
1, 55370, Note_on_c, 0, 72, 100
1, 55402, Note_off_c, 0, 72, 100
1, 55402, Note_on_c, 0, 69, 100
1, 55440, Note_off_c, 0, 69, 100
1, 55440, Note_on_c, 0, 65, 100
1, 55478, Note_off_c, 0, 65, 100
1, 55478, Note_on_c, 0, 67, 100
1, 55516, Note_off_c, 0, 67, 100
1, 55516, Note_on_c, 0, 70, 100
1, 55554, Note_off_c, 0, 70, 100
1, 55554, Note_on_c, 0, 72, 100
1, 55592, Note_off_c, 0, 72, 100
1, 55592, Note_on_c, 0, 74, 100
1, 55619, Note_off_c, 0, 74, 100
1, 55619, Note_on_c, 0, 76, 100
1, 55646, Note_off_c, 0, 76, 100
1, 55646, Note_on_c, 0, 77, 100
1, 55673, Note_off_c, 0, 77, 100
1, 55673, Note_on_c, 0, 79, 100
1, 55727, Note_off_c, 0, 79, 100
1, 55727, Note_on_c, 0, 82, 100
1, 55754, Note_off_c, 0, 82, 100
1, 55754, Note_on_c, 0, 83, 100
1, 55781, Note_off_c, 0, 83, 100
1, 55781, Note_on_c, 0, 81, 100
1, 55805, Note_off_c, 0, 81, 100
1, 55805, Note_on_c, 0, 79, 100
1, 55853, Note_off_c, 0, 79, 100
1, 55853, Note_on_c, 0, 77, 100
1, 55877, Note_off_c, 0, 77, 100
1, 55877, Note_on_c, 0, 79, 100
1, 55901, Note_off_c, 0, 79, 100
1, 55901, Note_on_c, 0, 81, 100
1, 55925, Note_off_c, 0, 81, 100
1, 55925, Note_on_c, 0, 83, 100
1, 55973, Note_off_c, 0, 83, 100
1, 55973, Note_on_c, 0, 74, 100
1, 56021, Note_off_c, 0, 74, 100
1, 56021, Note_on_c, 0, 78, 100
1, 56069, Note_off_c, 0, 78, 100
1, 56069, Note_on_c, 0, 80, 100
1, 56117, Note_off_c, 0, 80, 100
1, 56117, Note_on_c, 0, 83, 100
1, 56165, Note_off_c, 0, 83, 100
1, 56165, Note_on_c, 0, 79, 100
1, 56203, Note_off_c, 0, 79, 100
1, 56203, Note_on_c, 0, 74, 100
1, 56241, Note_off_c, 0, 74, 100
1, 56241, Note_on_c, 0, 73, 100
1, 56279, Note_off_c, 0, 73, 100
1, 56279, Note_on_c, 0, 71, 100
1, 56317, Note_off_c, 0, 71, 100
1, 56317, Note_on_c, 0, 69, 100
1, 56355, Note_off_c, 0, 69, 100
1, 56355, Note_on_c, 0, 67, 100
1, 56393, Note_off_c, 0, 67, 100
1, 56393, Note_on_c, 0, 66, 100
1, 56431, Note_off_c, 0, 66, 100
1, 56431, Note_on_c, 0, 67, 100
1, 56469, Note_off_c, 0, 67, 100
1, 56469, Note_on_c, 0, 69, 100
1, 56507, Note_off_c, 0, 69, 100
1, 56507, Note_on_c, 0, 70, 100
1, 56545, Note_off_c, 0, 70, 100
1, 56545, Note_on_c, 0, 72, 100
1, 56569, Note_off_c, 0, 72, 100
1, 56569, Note_on_c, 0, 74, 100
1, 56593, Note_off_c, 0, 74, 100
1, 56593, Note_on_c, 0, 76, 100
1, 56641, Note_off_c, 0, 76, 100
1, 56641, Note_on_c, 0, 79, 100
1, 56665, Note_off_c, 0, 79, 100
1, 56665, Note_on_c, 0, 81, 100
1, 56689, Note_off_c, 0, 81, 100
1, 56689, Note_on_c, 0, 83, 100
1, 56737, Note_off_c, 0, 83, 100
1, 56737, Note_on_c, 0, 79, 100
1, 56791, Note_off_c, 0, 79, 100
1, 56791, Note_on_c, 0, 78, 100
1, 56818, Note_off_c, 0, 78, 100
1, 56818, Note_on_c, 0, 76, 100
1, 56845, Note_off_c, 0, 76, 100
1, 56845, Note_on_c, 0, 74, 100
1, 56872, Note_off_c, 0, 74, 100
1, 56872, Note_on_c, 0, 72, 100
1, 56899, Note_off_c, 0, 72, 100
1, 56899, Note_on_c, 0, 70, 100
1, 56926, Note_off_c, 0, 70, 100
1, 56926, Note_on_c, 0, 69, 100
1, 56974, Note_off_c, 0, 69, 100
1, 56974, Note_on_c, 0, 67, 100
1, 57022, Note_off_c, 0, 67, 100
1, 57022, Note_on_c, 0, 66, 100
1, 57406, Note_off_c, 0, 66, 100
1, 57406, Note_on_c, 0, 64, 100
1, 57438, Note_off_c, 0, 64, 100
1, 57438, Note_on_c, 0, 67, 100
1, 57470, Note_off_c, 0, 67, 100
1, 57470, Note_on_c, 0, 70, 100
1, 57502, Note_off_c, 0, 70, 100
1, 57502, Note_on_c, 0, 73, 100
1, 57534, Note_off_c, 0, 73, 100
1, 57534, Note_on_c, 0, 75, 100
1, 57566, Note_off_c, 0, 75, 100
1, 57566, Note_on_c, 0, 78, 100
1, 57597, Note_off_c, 0, 78, 100
1, 57597, Note_on_c, 0, 80, 100
1, 57629, Note_off_c, 0, 80, 100
1, 57629, Note_on_c, 0, 68, 100
1, 57661, Note_off_c, 0, 68, 100
1, 57661, Note_on_c, 0, 72, 100
1, 57693, Note_off_c, 0, 72, 100
1, 57693, Note_on_c, 0, 75, 100
1, 57724, Note_off_c, 0, 75, 100
1, 57724, Note_on_c, 0, 78, 100
1, 57756, Note_off_c, 0, 78, 100
1, 57756, Note_on_c, 0, 80, 100
1, 57788, Note_off_c, 0, 80, 100
1, 57788, Note_on_c, 0, 83, 100
1, 57820, Note_off_c, 0, 83, 100
1, 57820, Note_on_c, 0, 82, 100
1, 57852, Note_off_c, 0, 82, 100
1, 57852, Note_on_c, 0, 80, 100
1, 57884, Note_off_c, 0, 80, 100
1, 57884, Note_on_c, 0, 75, 100
1, 57916, Note_off_c, 0, 75, 100
1, 57916, Note_on_c, 0, 73, 100
1, 57948, Note_off_c, 0, 73, 100
1, 57948, Note_on_c, 0, 70, 100
1, 57979, Note_off_c, 0, 70, 100
1, 57979, Note_on_c, 0, 68, 100
1, 58011, Note_off_c, 0, 68, 100
1, 58011, Note_on_c, 0, 63, 100
1, 58075, Note_off_c, 0, 63, 100
1, 58075, Note_on_c, 0, 61, 100
1, 58123, Note_off_c, 0, 61, 100
1, 58123, Note_on_c, 0, 63, 100
1, 58171, Note_off_c, 0, 63, 100
1, 58171, Note_on_c, 0, 65, 100
1, 58195, Note_off_c, 0, 65, 100
1, 58195, Note_on_c, 0, 68, 100
1, 58219, Note_off_c, 0, 68, 100
1, 58219, Note_on_c, 0, 71, 100
1, 58243, Note_off_c, 0, 71, 100
1, 58243, Note_on_c, 0, 73, 100
1, 58267, Note_off_c, 0, 73, 100
1, 58267, Note_on_c, 0, 75, 100
1, 58298, Note_off_c, 0, 75, 100
1, 58298, Note_on_c, 0, 77, 100
1, 58330, Note_off_c, 0, 77, 100
1, 58330, Note_on_c, 0, 80, 100
1, 58362, Note_off_c, 0, 80, 100
1, 58362, Note_on_c, 0, 75, 100
1, 58394, Note_off_c, 0, 75, 100
1, 58394, Note_on_c, 0, 73, 100
1, 58426, Note_off_c, 0, 73, 100
1, 58426, Note_on_c, 0, 70, 100
1, 58496, Note_off_c, 0, 70, 100
1, 58496, Note_on_c, 0, 66, 100
1, 58534, Note_off_c, 0, 66, 100
1, 58534, Note_on_c, 0, 63, 100
1, 58572, Note_off_c, 0, 63, 100
1, 58572, Note_on_c, 0, 66, 100
1, 58610, Note_off_c, 0, 66, 100
1, 58610, Note_on_c, 0, 69, 100
1, 58675, Note_off_c, 0, 69, 100
1, 58675, Note_on_c, 0, 73, 100
1, 58702, Note_off_c, 0, 73, 100
1, 58702, Note_on_c, 0, 74, 100
1, 58729, Note_off_c, 0, 74, 100
1, 58729, Note_on_c, 0, 77, 100
1, 58756, Note_off_c, 0, 77, 100
1, 58756, Note_on_c, 0, 79, 100
1, 58783, Note_off_c, 0, 79, 100
1, 58783, Note_on_c, 0, 82, 100
1, 58810, Note_off_c, 0, 82, 100
1, 58810, Note_on_c, 0, 85, 100
1, 58869, Note_off_c, 0, 85, 100
1, 58869, Note_on_c, 0, 83, 100
1, 58901, Note_off_c, 0, 83, 100
1, 58901, Note_on_c, 0, 80, 100
1, 58933, Note_off_c, 0, 80, 100
1, 58933, Note_on_c, 0, 79, 100
1, 58965, Note_off_c, 0, 79, 100
1, 58965, Note_on_c, 0, 75, 100
1, 58997, Note_off_c, 0, 75, 100
1, 58997, Note_on_c, 0, 70, 100
1, 59029, Note_off_c, 0, 70, 100
1, 59029, Note_on_c, 0, 68, 100
1, 59067, Note_off_c, 0, 68, 100
1, 59067, Note_on_c, 0, 67, 100
1, 59105, Note_off_c, 0, 67, 100
1, 59105, Note_on_c, 0, 64, 100
1, 59143, Note_off_c, 0, 64, 100
1, 59143, Note_on_c, 0, 68, 100
1, 59181, Note_off_c, 0, 68, 100
1, 59181, Note_on_c, 0, 69, 100
1, 59219, Note_off_c, 0, 69, 100
1, 59219, Note_on_c, 0, 71, 100
1, 59243, Note_off_c, 0, 71, 100
1, 59243, Note_on_c, 0, 73, 100
1, 59267, Note_off_c, 0, 73, 100
1, 59267, Note_on_c, 0, 76, 100
1, 59315, Note_off_c, 0, 76, 100
1, 59315, Note_on_c, 0, 78, 100
1, 59363, Note_off_c, 0, 78, 100
1, 59363, Note_on_c, 0, 83, 100
1, 59387, Note_off_c, 0, 83, 100
1, 59387, Note_on_c, 0, 85, 100
1, 59442, Note_off_c, 0, 85, 100
1, 59442, Note_on_c, 0, 83, 100
1, 59474, Note_off_c, 0, 83, 100
1, 59474, Note_on_c, 0, 79, 100
1, 59506, Note_off_c, 0, 79, 100
1, 59506, Note_on_c, 0, 76, 100
1, 59538, Note_off_c, 0, 76, 100
1, 59538, Note_on_c, 0, 71, 100
1, 59570, Note_off_c, 0, 71, 100
1, 59570, Note_on_c, 0, 67, 100
1, 59602, Note_off_c, 0, 67, 100
1, 59602, Note_on_c, 0, 64, 100
1, 59640, Note_off_c, 0, 64, 100
1, 59640, Note_on_c, 0, 66, 100
1, 59678, Note_off_c, 0, 66, 100
1, 59678, Note_on_c, 0, 68, 100
1, 59716, Note_off_c, 0, 68, 100
1, 59716, Note_on_c, 0, 70, 100
1, 59754, Note_off_c, 0, 70, 100
1, 59754, Note_on_c, 0, 72, 100
1, 59813, Note_off_c, 0, 72, 100
1, 59813, Note_on_c, 0, 74, 100
1, 59834, Note_off_c, 0, 74, 100
1, 59834, Note_on_c, 0, 76, 100
1, 59855, Note_off_c, 0, 76, 100
1, 59855, Note_on_c, 0, 78, 100
1, 59876, Note_off_c, 0, 78, 100
1, 59876, Note_on_c, 0, 79, 100
1, 59897, Note_off_c, 0, 79, 100
1, 59897, Note_on_c, 0, 81, 100
1, 59918, Note_off_c, 0, 81, 100
1, 59918, Note_on_c, 0, 83, 100
1, 59960, Note_off_c, 0, 83, 100
1, 59960, Note_on_c, 0, 81, 100
1, 59981, Note_off_c, 0, 81, 100
1, 59981, Note_on_c, 0, 79, 100
1, 60012, Note_off_c, 0, 79, 100
1, 60012, Note_on_c, 0, 78, 100
1, 60044, Note_off_c, 0, 78, 100
1, 60044, Note_on_c, 0, 76, 100
1, 60076, Note_off_c, 0, 76, 100
1, 60076, Note_on_c, 0, 74, 100
1, 60108, Note_off_c, 0, 74, 100
1, 60108, Note_on_c, 0, 72, 100
1, 60140, Note_off_c, 0, 72, 100
1, 60140, Note_on_c, 0, 71, 100
1, 60172, Note_off_c, 0, 71, 100
1, 60172, Note_on_c, 0, 69, 100
1, 60220, Note_off_c, 0, 69, 100
1, 60220, Note_on_c, 0, 67, 100
1, 60268, Note_off_c, 0, 67, 100
1, 60268, Note_on_c, 0, 66, 100
1, 60364, Note_off_c, 0, 66, 100
1, 60892, Note_on_c, 0, 64, 100
1, 60940, Note_off_c, 0, 64, 100
1, 60940, Note_on_c, 0, 66, 100
1, 60978, Note_off_c, 0, 66, 100
1, 60978, Note_on_c, 0, 67, 100
1, 61016, Note_off_c, 0, 67, 100
1, 61016, Note_on_c, 0, 69, 100
1, 61054, Note_off_c, 0, 69, 100
1, 61054, Note_on_c, 0, 70, 100
1, 61092, Note_off_c, 0, 70, 100
1, 61092, Note_on_c, 0, 73, 100
1, 61130, Note_off_c, 0, 73, 100
1, 61130, Note_on_c, 0, 74, 100
1, 61161, Note_off_c, 0, 74, 100
1, 61161, Note_on_c, 0, 76, 100
1, 61193, Note_off_c, 0, 76, 100
1, 61193, Note_on_c, 0, 78, 100
1, 61225, Note_off_c, 0, 78, 100
1, 61225, Note_on_c, 0, 79, 100
1, 61257, Note_off_c, 0, 79, 100
1, 61257, Note_on_c, 0, 81, 100
1, 61289, Note_off_c, 0, 81, 100
1, 61289, Note_on_c, 0, 83, 100
1, 61657, Note_off_c, 0, 83, 100
1, 61657, Note_on_c, 0, 83, 100
1, 61897, Note_off_c, 0, 83, 100
1, 61897, Note_on_c, 0, 85, 100
1, 61945, Note_off_c, 0, 85, 100
1, 61945, Note_on_c, 0, 86, 100
1, 62041, Note_off_c, 0, 86, 100
1, 62041, Note_on_c, 0, 85, 100
1, 62089, Note_off_c, 0, 85, 100
1, 62089, Note_on_c, 0, 84, 100
1, 62137, Note_off_c, 0, 84, 100
1, 62137, Note_on_c, 0, 83, 100
1, 62345, Note_off_c, 0, 83, 100
1, 62345, Note_on_c, 0, 77, 100
1, 62409, Note_off_c, 0, 77, 100
1, 62409, Note_on_c, 0, 79, 100
1, 62473, Note_off_c, 0, 79, 100
1, 62473, Note_on_c, 0, 80, 100
1, 62511, Note_off_c, 0, 80, 100
1, 62511, Note_on_c, 0, 82, 100
1, 62549, Note_off_c, 0, 82, 100
1, 62549, Note_on_c, 0, 79, 100
1, 62587, Note_off_c, 0, 79, 100
1, 62587, Note_on_c, 0, 77, 100
1, 62625, Note_off_c, 0, 77, 100
1, 62625, Note_on_c, 0, 75, 100
1, 62711, Note_off_c, 0, 75, 100
1, 62711, Note_on_c, 0, 79, 100
1, 62759, Note_off_c, 0, 79, 100
1, 62759, Note_on_c, 0, 82, 100
1, 62807, Note_off_c, 0, 82, 100
1, 62807, Note_on_c, 0, 76, 100
1, 62855, Note_off_c, 0, 76, 100
1, 62855, Note_on_c, 0, 78, 100
1, 62893, Note_off_c, 0, 78, 100
1, 62893, Note_on_c, 0, 80, 100
1, 62931, Note_off_c, 0, 80, 100
1, 62931, Note_on_c, 0, 82, 100
1, 62969, Note_off_c, 0, 82, 100
1, 62969, Note_on_c, 0, 79, 100
1, 63007, Note_off_c, 0, 79, 100
1, 63007, Note_on_c, 0, 76, 100
1, 63045, Note_off_c, 0, 76, 100
1, 63045, Note_on_c, 0, 75, 100
1, 63093, Note_off_c, 0, 75, 100
1, 63093, Note_on_c, 0, 73, 100
1, 63141, Note_off_c, 0, 73, 100
1, 63141, Note_on_c, 0, 71, 100
1, 63189, Note_off_c, 0, 71, 100
1, 63189, Note_on_c, 0, 70, 100
1, 63237, Note_off_c, 0, 70, 100
1, 63237, Note_on_c, 0, 69, 100
1, 63301, Note_off_c, 0, 69, 100
1, 63301, Note_on_c, 0, 67, 100
1, 63364, Note_off_c, 0, 67, 100
1, 63364, Note_on_c, 0, 66, 100
1, 63620, Note_off_c, 0, 66, 100
1, 63620, Note_on_c, 0, 64, 100
1, 63668, Note_off_c, 0, 64, 100
1, 63668, Note_on_c, 0, 66, 100
1, 63716, Note_off_c, 0, 66, 100
1, 63716, Note_on_c, 0, 65, 100
1, 63764, Note_off_c, 0, 65, 100
1, 63764, Note_on_c, 0, 59, 100
1, 63860, Note_off_c, 0, 59, 100
1, 64436, Note_on_c, 0, 64, 100
1, 64484, Note_off_c, 0, 64, 100
1, 64484, Note_on_c, 0, 67, 100
1, 64532, Note_off_c, 0, 67, 100
1, 64532, Note_on_c, 0, 69, 100
1, 64676, Note_off_c, 0, 69, 100
1, 64676, Note_on_c, 0, 69, 100
1, 64836, Note_off_c, 0, 69, 100
1, 64836, Note_on_c, 0, 69, 100
1, 64963, Note_off_c, 0, 69, 100
1, 64963, Note_on_c, 0, 74, 100
1, 65635, Note_off_c, 0, 74, 100
1, 65635, Note_on_c, 0, 71, 100
1, 65731, Note_off_c, 0, 71, 100
1, 66307, Note_on_c, 0, 71, 100
1, 66499, Note_off_c, 0, 71, 100
1, 66499, Note_on_c, 0, 71, 100
1, 66595, Note_off_c, 0, 71, 100
1, 66595, Note_on_c, 0, 76, 100
1, 66691, Note_off_c, 0, 76, 100
1, 66691, Note_on_c, 0, 83, 100
1, 66883, Note_off_c, 0, 83, 100
1, 66883, Note_on_c, 0, 83, 100
1, 67219, Note_off_c, 0, 83, 100
1, 67219, Note_on_c, 0, 71, 100
1, 67331, Note_off_c, 0, 71, 100
1, 67331, Note_on_c, 0, 76, 100
1, 67395, Note_off_c, 0, 76, 100
1, 67395, Note_on_c, 0, 83, 100
1, 67459, Note_off_c, 0, 83, 100
1, 67459, Note_on_c, 0, 71, 100
1, 67523, Note_off_c, 0, 71, 100
1, 67523, Note_on_c, 0, 76, 100
1, 67587, Note_off_c, 0, 76, 100
1, 67587, Note_on_c, 0, 83, 100
1, 67651, Note_off_c, 0, 83, 100
1, 67651, Note_on_c, 0, 76, 100
1, 67747, Note_off_c, 0, 76, 100
1, 67747, Note_on_c, 0, 83, 100
1, 68323, Note_off_c, 0, 83, 100
1, 68323, Note_on_c, 0, 81, 100
1, 68371, Note_off_c, 0, 81, 100
1, 68371, Note_on_c, 0, 79, 100
1, 68419, Note_off_c, 0, 79, 100
1, 68419, Note_on_c, 0, 81, 100
1, 68515, Note_off_c, 0, 81, 100
1, 68515, Note_on_c, 0, 83, 100
1, 68611, Note_off_c, 0, 83, 100
1, 68611, Note_on_c, 0, 82, 100
1, 68707, Note_off_c, 0, 82, 100
1, 69091, Note_on_c, 0, 71, 100
1, 69187, Note_off_c, 0, 71, 100
1, 69187, Note_on_c, 0, 76, 100
1, 69331, Note_off_c, 0, 76, 100
1, 69331, Note_on_c, 0, 83, 100
1, 69475, Note_off_c, 0, 83, 100
1, 69475, Note_on_c, 0, 82, 100
1, 69571, Note_off_c, 0, 82, 100
1, 69571, Note_on_c, 0, 83, 100
1, 69859, Note_off_c, 0, 83, 100
1, 69859, Note_on_c, 0, 84, 100
1, 70003, Note_off_c, 0, 84, 100
1, 70003, Note_on_c, 0, 83, 100
1, 70051, Note_off_c, 0, 83, 100
1, 70051, Note_on_c, 0, 81, 100
1, 70099, Note_off_c, 0, 81, 100
1, 70099, Note_on_c, 0, 79, 100
1, 70147, Note_off_c, 0, 79, 100
1, 70147, Note_on_c, 0, 81, 100
1, 70195, Note_off_c, 0, 81, 100
1, 70195, Note_on_c, 0, 84, 100
1, 70243, Note_off_c, 0, 84, 100
1, 70243, Note_on_c, 0, 86, 100
1, 70291, Note_off_c, 0, 86, 100
1, 70291, Note_on_c, 0, 83, 100
1, 71203, Note_off_c, 0, 83, 100
1, 71203, Note_on_c, 0, 81, 100
1, 71251, Note_off_c, 0, 81, 100
1, 71251, Note_on_c, 0, 79, 100
1, 71299, Note_off_c, 0, 79, 100
1, 71299, Note_on_c, 0, 76, 100
1, 71491, Note_off_c, 0, 76, 100
1, 71491, Note_on_c, 0, 76, 100
1, 71683, Note_off_c, 0, 76, 100
1, 71683, Note_on_c, 0, 76, 100
1, 71875, Note_off_c, 0, 76, 100
1, 71875, Note_on_c, 0, 76, 100
1, 72355, Note_off_c, 0, 76, 100
1, 72355, Note_on_c, 0, 74, 100
1, 72451, Note_off_c, 0, 74, 100
1, 72451, Note_on_c, 0, 76, 100
1, 72547, Note_off_c, 0, 76, 100
1, 72547, Note_on_c, 0, 64, 100
1, 72643, Note_off_c, 0, 64, 100
1, 73603, Note_on_c, 0, 71, 100
1, 73859, Note_off_c, 0, 71, 100
1, 73859, Note_on_c, 0, 71, 100
1, 74035, Note_off_c, 0, 71, 100
1, 74035, Note_on_c, 0, 71, 100
1, 74659, Note_off_c, 0, 71, 100
1, 74659, Note_on_c, 0, 69, 100
1, 74755, Note_off_c, 0, 69, 100
1, 74755, Note_on_c, 0, 67, 100
1, 74883, Note_off_c, 0, 67, 100
1, 74883, Note_on_c, 0, 64, 100
1, 74979, Note_off_c, 0, 64, 100
1, 75446, Note_on_c, 0, 65, 100
1, 75484, Note_off_c, 0, 65, 100
1, 75484, Note_on_c, 0, 66, 100
1, 75810, Note_off_c, 0, 66, 100
1, 75810, Note_on_c, 0, 64, 100
1, 75858, Note_off_c, 0, 64, 100
1, 75858, Note_on_c, 0, 62, 100
1, 75906, Note_off_c, 0, 62, 100
1, 75906, Note_on_c, 0, 59, 100
1, 76578, Note_off_c, 0, 59, 100
1, 76578, Note_on_c, 0, 62, 100
1, 76674, Note_off_c, 0, 62, 100
1, 76674, Note_on_c, 0, 64, 100
1, 76722, Note_off_c, 0, 64, 100
1, 76722, Note_on_c, 0, 66, 100
1, 77009, Note_off_c, 0, 66, 100
1, 77009, Note_on_c, 0, 64, 100
1, 77057, Note_off_c, 0, 64, 100
1, 77057, Note_on_c, 0, 66, 100
1, 77121, Note_off_c, 0, 66, 100
1, 77121, Note_on_c, 0, 64, 100
1, 77185, Note_off_c, 0, 64, 100
1, 77185, Note_on_c, 0, 62, 100
1, 77249, Note_off_c, 0, 62, 100
1, 77249, Note_on_c, 0, 59, 100
1, 77825, Note_off_c, 0, 59, 100
1, 77825, Note_on_c, 0, 66, 100
1, 78161, Note_off_c, 0, 66, 100
1, 78161, Note_on_c, 0, 64, 100
1, 78209, Note_off_c, 0, 64, 100
1, 78209, Note_on_c, 0, 66, 100
1, 78401, Note_off_c, 0, 66, 100
1, 78401, Note_on_c, 0, 66, 100
1, 78593, Note_off_c, 0, 66, 100
1, 78593, Note_on_c, 0, 66, 100
1, 78785, Note_off_c, 0, 66, 100
1, 78785, Note_on_c, 0, 66, 100
1, 79313, Note_off_c, 0, 66, 100
1, 79313, Note_on_c, 0, 64, 100
1, 79361, Note_off_c, 0, 64, 100
1, 79361, Note_on_c, 0, 62, 100
1, 79457, Note_off_c, 0, 62, 100
1, 79457, Note_on_c, 0, 59, 100
1, 79553, Note_off_c, 0, 59, 100
1, 79553, Note_on_c, 0, 59, 100
1, 79649, Note_off_c, 0, 59, 100
1, 80033, Note_on_c, 0, 71, 100
1, 80465, Note_off_c, 0, 71, 100
1, 80465, Note_on_c, 0, 67, 100
1, 80513, Note_off_c, 0, 67, 100
1, 80513, Note_on_c, 0, 66, 100
1, 80545, Note_off_c, 0, 66, 100
1, 80545, Note_on_c, 0, 64, 100
1, 80673, Note_off_c, 0, 64, 100
1, 80673, Note_on_c, 0, 71, 100
1, 80992, Note_off_c, 0, 71, 100
1, 80992, Note_on_c, 0, 71, 100
1, 81088, Note_off_c, 0, 71, 100
1, 81088, Note_on_c, 0, 66, 100
1, 81216, Note_off_c, 0, 66, 100
1, 81216, Note_on_c, 0, 64, 100
1, 81293, Note_off_c, 0, 64, 100
1, 81293, End_track
0, 0, End_of_file
