0, 0, Header, 1, 1, 192
1, 0, Start_track
1, 0, Title_t, "Melody"
1, 0, Tempo, 335195
1, 0, Key_signature, 4, "major"
1, 0, Time_signature, 3, 2, 24, 8
1, 479, Note_on_c, 0, 75, 100
1, 575, Note_off_c, 0, 75, 100
1, 575, Note_on_c, 0, 71, 100
1, 671, Note_off_c, 0, 71, 100
1, 863, Note_on_c, 0, 71, 100
1, 959, Note_off_c, 0, 71, 100
1, 959, Note_on_c, 0, 80, 100
1, 1055, Note_off_c, 0, 80, 100
1, 1247, Note_on_c, 0, 83, 100
1, 1342, Note_off_c, 0, 83, 100
1, 1342, Note_on_c, 0, 78, 100
1, 1405, Note_off_c, 0, 78, 100
1, 1405, Note_on_c, 0, 83, 100
1, 1469, Note_off_c, 0, 83, 100
1, 1469, Note_on_c, 0, 80, 100
1, 1533, Note_off_c, 0, 80, 100
1, 1533, Note_on_c, 0, 78, 100
1, 1581, Note_off_c, 0, 78, 100
1, 1581, Note_on_c, 0, 83, 100
1, 1677, Note_off_c, 0, 83, 100
1, 1677, Note_on_c, 0, 75, 100
1, 1788, Note_off_c, 0, 75, 100
1, 1788, Note_on_c, 0, 68, 100
1, 1884, Note_off_c, 0, 68, 100
1, 2012, Note_on_c, 0, 83, 100
1, 2060, Note_off_c, 0, 83, 100
1, 2060, Note_on_c, 0, 73, 100
1, 2156, Note_off_c, 0, 73, 100
1, 2396, Note_on_c, 0, 83, 100
1, 2492, Note_off_c, 0, 83, 100
1, 2492, Note_on_c, 0, 75, 100
1, 2588, Note_off_c, 0, 75, 100
1, 2588, Note_on_c, 0, 83, 100
1, 2636, Note_off_c, 0, 83, 100
1, 2636, Note_on_c, 0, 78, 100
1, 2684, Note_off_c, 0, 78, 100
1, 2684, Note_on_c, 0, 83, 100
1, 2748, Note_off_c, 0, 83, 100
1, 2748, Note_on_c, 0, 75, 100
1, 2812, Note_off_c, 0, 75, 100
1, 2812, Note_on_c, 0, 83, 100
1, 2876, Note_off_c, 0, 83, 100
1, 2876, Note_on_c, 0, 73, 100
1, 2940, Note_off_c, 0, 73, 100
1, 2940, Note_on_c, 0, 78, 100
1, 3004, Note_off_c, 0, 78, 100
1, 3004, Note_on_c, 0, 75, 100
1, 3100, Note_off_c, 0, 75, 100
1, 3356, Note_on_c, 0, 83, 100
1, 3452, Note_off_c, 0, 83, 100
1, 3452, Note_on_c, 0, 75, 100
1, 3500, Note_off_c, 0, 75, 100
1, 3500, Note_on_c, 0, 71, 100
1, 3548, Note_off_c, 0, 71, 100
1, 3548, Note_on_c, 0, 66, 100
1, 3596, Note_off_c, 0, 66, 100
1, 3596, Note_on_c, 0, 71, 100
1, 3692, Note_off_c, 0, 71, 100
1, 3931, Note_on_c, 0, 71, 100
1, 4027, Note_off_c, 0, 71, 100
1, 4027, Note_on_c, 0, 68, 100
1, 4091, Note_off_c, 0, 68, 100
1, 4091, Note_on_c, 0, 71, 100
1, 4155, Note_off_c, 0, 71, 100
1, 4155, Note_on_c, 0, 63, 100
1, 4251, Note_off_c, 0, 63, 100
1, 4506, Note_on_c, 0, 83, 100
1, 4554, Note_off_c, 0, 83, 100
1, 4554, Note_on_c, 0, 85, 100
1, 5081, Note_off_c, 0, 85, 100
1, 5081, Note_on_c, 0, 83, 100
1, 5177, Note_off_c, 0, 83, 100
1, 5177, Note_on_c, 0, 85, 100
1, 5241, Note_off_c, 0, 85, 100
1, 5241, Note_on_c, 0, 83, 100
1, 5305, Note_off_c, 0, 83, 100
1, 5305, Note_on_c, 0, 85, 100
1, 5369, Note_off_c, 0, 85, 100
1, 5369, Note_on_c, 0, 83, 100
1, 5417, Note_off_c, 0, 83, 100
1, 5417, Note_on_c, 0, 78, 100
1, 5512, Note_off_c, 0, 78, 100
1, 5512, Note_on_c, 0, 83, 100
1, 5560, Note_off_c, 0, 83, 100
1, 5560, Note_on_c, 0, 80, 100
1, 5623, Note_off_c, 0, 80, 100
1, 5623, Note_on_c, 0, 75, 100
1, 5687, Note_off_c, 0, 75, 100
1, 5687, Note_on_c, 0, 80, 100
1, 5751, Note_off_c, 0, 80, 100
1, 5751, Note_on_c, 0, 78, 100
1, 5815, Note_off_c, 0, 78, 100
1, 5815, Note_on_c, 0, 73, 100
1, 5879, Note_off_c, 0, 73, 100
1, 5879, Note_on_c, 0, 78, 100
1, 5943, Note_off_c, 0, 78, 100
1, 5943, Note_on_c, 0, 75, 100
1, 6007, Note_off_c, 0, 75, 100
1, 6007, Note_on_c, 0, 71, 100
1, 6071, Note_off_c, 0, 71, 100
1, 6071, Note_on_c, 0, 75, 100
1, 6135, Note_off_c, 0, 75, 100
1, 6135, Note_on_c, 0, 71, 100
1, 6198, Note_off_c, 0, 71, 100
1, 6198, Note_on_c, 0, 73, 100
1, 6262, Note_off_c, 0, 73, 100
1, 6262, Note_on_c, 0, 71, 100
1, 6326, Note_off_c, 0, 71, 100
1, 6326, Note_on_c, 0, 66, 100
1, 6614, Note_off_c, 0, 66, 100
1, 6614, Note_on_c, 0, 71, 100
1, 6710, Note_off_c, 0, 71, 100
1, 6710, Note_on_c, 0, 68, 100
1, 6773, Note_off_c, 0, 68, 100
1, 6773, Note_on_c, 0, 71, 100
1, 6837, Note_off_c, 0, 71, 100
1, 6837, Note_on_c, 0, 68, 100
1, 6901, Note_off_c, 0, 68, 100
1, 6901, Note_on_c, 0, 63, 100
1, 6977, Note_off_c, 0, 63, 100
1, 6977, Note_on_c, 0, 66, 100
1, 7015, Note_off_c, 0, 66, 100
1, 7015, Note_on_c, 0, 63, 100
1, 7053, Note_off_c, 0, 63, 100
1, 7053, Note_on_c, 0, 66, 100
1, 7427, Note_off_c, 0, 66, 100
1, 7427, Note_on_c, 0, 63, 100
1, 7475, Note_off_c, 0, 63, 100
1, 7475, Note_on_c, 0, 66, 100
1, 7538, Note_off_c, 0, 66, 100
1, 7538, Note_on_c, 0, 73, 100
1, 7602, Note_off_c, 0, 73, 100
1, 7602, Note_on_c, 0, 71, 100
1, 7666, Note_off_c, 0, 71, 100
1, 7666, Note_on_c, 0, 66, 100
1, 7762, Note_off_c, 0, 66, 100
1, 7954, Note_on_c, 0, 75, 100
1, 8050, Note_off_c, 0, 75, 100
1, 8050, Note_on_c, 0, 71, 100
1, 8113, Note_off_c, 0, 71, 100
1, 8113, Note_on_c, 0, 73, 100
1, 8177, Note_off_c, 0, 73, 100
1, 8177, Note_on_c, 0, 71, 100
1, 8241, Note_off_c, 0, 71, 100
1, 8241, Note_on_c, 0, 75, 100
1, 8337, Note_off_c, 0, 75, 100
1, 8529, Note_on_c, 0, 82, 100
1, 8624, Note_off_c, 0, 82, 100
1, 8624, Note_on_c, 0, 75, 100
1, 8672, Note_off_c, 0, 75, 100
1, 8672, Note_on_c, 0, 82, 100
1, 8720, Note_off_c, 0, 82, 100
1, 8720, Note_on_c, 0, 76, 100
1, 8768, Note_off_c, 0, 76, 100
1, 8768, Note_on_c, 0, 78, 100
1, 8864, Note_off_c, 0, 78, 100
1, 9104, Note_on_c, 0, 83, 100
1, 9680, Note_off_c, 0, 83, 100
1, 9680, Note_on_c, 0, 80, 100
1, 9727, Note_off_c, 0, 80, 100
1, 9727, Note_on_c, 0, 83, 100
1, 9775, Note_off_c, 0, 83, 100
1, 9775, Note_on_c, 0, 78, 100
1, 9871, Note_off_c, 0, 78, 100
1, 9871, Note_on_c, 0, 83, 100
1, 9919, Note_off_c, 0, 83, 100
1, 9919, Note_on_c, 0, 76, 100
1, 9967, Note_off_c, 0, 76, 100
1, 9967, Note_on_c, 0, 83, 100
1, 10031, Note_off_c, 0, 83, 100
1, 10031, Note_on_c, 0, 75, 100
1, 10094, Note_off_c, 0, 75, 100
1, 10094, Note_on_c, 0, 83, 100
1, 10158, Note_off_c, 0, 83, 100
1, 10158, Note_on_c, 0, 73, 100
1, 10222, Note_off_c, 0, 73, 100
1, 10222, Note_on_c, 0, 83, 100
1, 10286, Note_off_c, 0, 83, 100
1, 10286, Note_on_c, 0, 75, 100
1, 10350, Note_off_c, 0, 75, 100
1, 10350, Note_on_c, 0, 83, 100
1, 10398, Note_off_c, 0, 83, 100
1, 10398, Note_on_c, 0, 76, 100
1, 10494, Note_off_c, 0, 76, 100
1, 10494, Note_on_c, 0, 83, 100
1, 10542, Note_off_c, 0, 83, 100
1, 10542, Note_on_c, 0, 78, 100
1, 10638, Note_off_c, 0, 78, 100
1, 10638, Note_on_c, 0, 83, 100
1, 10686, Note_off_c, 0, 83, 100
1, 10686, Note_on_c, 0, 80, 100
1, 10782, Note_off_c, 0, 80, 100
1, 10782, Note_on_c, 0, 83, 100
1, 10830, Note_off_c, 0, 83, 100
1, 10830, Note_on_c, 0, 78, 100
1, 10877, Note_off_c, 0, 78, 100
1, 10877, Note_on_c, 0, 83, 100
1, 10973, Note_off_c, 0, 83, 100
1, 10973, Note_on_c, 0, 78, 100
1, 11021, Note_off_c, 0, 78, 100
1, 11021, Note_on_c, 0, 83, 100
1, 11069, Note_off_c, 0, 83, 100
1, 11069, Note_on_c, 0, 76, 100
1, 11164, Note_off_c, 0, 76, 100
1, 11164, Note_on_c, 0, 83, 100
1, 11212, Note_off_c, 0, 83, 100
1, 11212, Note_on_c, 0, 75, 100
1, 11260, Note_off_c, 0, 75, 100
1, 11260, Note_on_c, 0, 83, 100
1, 11308, Note_off_c, 0, 83, 100
1, 11308, Note_on_c, 0, 73, 100
1, 11356, Note_off_c, 0, 73, 100
1, 11356, Note_on_c, 0, 83, 100
1, 11404, Note_off_c, 0, 83, 100
1, 11404, Note_on_c, 0, 75, 100
1, 11451, Note_off_c, 0, 75, 100
1, 11451, Note_on_c, 0, 83, 100
1, 11499, Note_off_c, 0, 83, 100
1, 11499, Note_on_c, 0, 76, 100
1, 11563, Note_off_c, 0, 76, 100
1, 11563, Note_on_c, 0, 83, 100
1, 11627, Note_off_c, 0, 83, 100
1, 11627, Note_on_c, 0, 78, 100
1, 11691, Note_off_c, 0, 78, 100
1, 11691, Note_on_c, 0, 71, 100
1, 11738, Note_off_c, 0, 71, 100
1, 11738, Note_on_c, 0, 80, 100
1, 11786, Note_off_c, 0, 80, 100
1, 11786, Note_on_c, 0, 83, 100
1, 11834, Note_off_c, 0, 83, 100
1, 11834, Note_on_c, 0, 78, 100
1, 11882, Note_off_c, 0, 78, 100
1, 11882, Note_on_c, 0, 83, 100
1, 11930, Note_off_c, 0, 83, 100
1, 11930, Note_on_c, 0, 78, 100
1, 11978, Note_off_c, 0, 78, 100
1, 11978, Note_on_c, 0, 83, 100
1, 12025, Note_off_c, 0, 83, 100
1, 12025, Note_on_c, 0, 76, 100
1, 12073, Note_off_c, 0, 76, 100
1, 12073, Note_on_c, 0, 83, 100
1, 12121, Note_off_c, 0, 83, 100
1, 12121, Note_on_c, 0, 75, 100
1, 12169, Note_off_c, 0, 75, 100
1, 12169, Note_on_c, 0, 83, 100
1, 12217, Note_off_c, 0, 83, 100
1, 12217, Note_on_c, 0, 73, 100
1, 12265, Note_off_c, 0, 73, 100
1, 12265, Note_on_c, 0, 83, 100
1, 12313, Note_off_c, 0, 83, 100
1, 12313, Note_on_c, 0, 75, 100
1, 12361, Note_off_c, 0, 75, 100
1, 12361, Note_on_c, 0, 83, 100
1, 12409, Note_off_c, 0, 83, 100
1, 12409, Note_on_c, 0, 75, 100
1, 12457, Note_off_c, 0, 75, 100
1, 12457, Note_on_c, 0, 83, 100
1, 12495, Note_off_c, 0, 83, 100
1, 12495, Note_on_c, 0, 76, 100
1, 12533, Note_off_c, 0, 76, 100
1, 12533, Note_on_c, 0, 83, 100
1, 12571, Note_off_c, 0, 83, 100
1, 12571, Note_on_c, 0, 78, 100
1, 12609, Note_off_c, 0, 78, 100
1, 12609, Note_on_c, 0, 83, 100
1, 12647, Note_off_c, 0, 83, 100
1, 12647, Note_on_c, 0, 78, 100
1, 12695, Note_off_c, 0, 78, 100
1, 12695, Note_on_c, 0, 83, 100
1, 12743, Note_off_c, 0, 83, 100
1, 12743, Note_on_c, 0, 80, 100
1, 12791, Note_off_c, 0, 80, 100
1, 12791, Note_on_c, 0, 83, 100
1, 12839, Note_off_c, 0, 83, 100
1, 12839, Note_on_c, 0, 76, 100
1, 12887, Note_off_c, 0, 76, 100
1, 12887, Note_on_c, 0, 83, 100
1, 12935, Note_off_c, 0, 83, 100
1, 12935, Note_on_c, 0, 75, 100
1, 12983, Note_off_c, 0, 75, 100
1, 12983, Note_on_c, 0, 83, 100
1, 13079, Note_off_c, 0, 83, 100
1, 13079, Note_on_c, 0, 75, 100
1, 13127, Note_off_c, 0, 75, 100
1, 13127, Note_on_c, 0, 83, 100
1, 13175, Note_off_c, 0, 83, 100
1, 13175, Note_on_c, 0, 80, 100
1, 13223, Note_off_c, 0, 80, 100
1, 13223, Note_on_c, 0, 83, 100
1, 13261, Note_off_c, 0, 83, 100
1, 13261, Note_on_c, 0, 75, 100
1, 13299, Note_off_c, 0, 75, 100
1, 13299, Note_on_c, 0, 83, 100
1, 13375, Note_off_c, 0, 83, 100
1, 13375, Note_on_c, 0, 76, 100
1, 13413, Note_off_c, 0, 76, 100
1, 13413, Note_on_c, 0, 71, 100
1, 13509, Note_off_c, 0, 71, 100
1, 13861, Note_on_c, 0, 83, 100
1, 13893, Note_off_c, 0, 83, 100
1, 13893, Note_on_c, 0, 85, 100
1, 13924, Note_off_c, 0, 85, 100
1, 13924, Note_on_c, 0, 86, 100
1, 13956, Note_off_c, 0, 86, 100
1, 13956, Note_on_c, 0, 87, 100
1, 14467, Note_off_c, 0, 87, 100
1, 14467, Note_on_c, 0, 86, 100
1, 14611, Note_off_c, 0, 86, 100
1, 14611, Note_on_c, 0, 85, 100
1, 14755, Note_off_c, 0, 85, 100
1, 14755, Note_on_c, 0, 87, 100
1, 14851, Note_off_c, 0, 87, 100
1, 14851, Note_on_c, 0, 85, 100
1, 14947, Note_off_c, 0, 85, 100
1, 14947, Note_on_c, 0, 87, 100
1, 15283, Note_off_c, 0, 87, 100
1, 15283, Note_on_c, 0, 86, 100
1, 15427, Note_off_c, 0, 86, 100
1, 15427, Note_on_c, 0, 85, 100
1, 15475, Note_off_c, 0, 85, 100
1, 15475, Note_on_c, 0, 83, 100
1, 15667, Note_off_c, 0, 83, 100
1, 15667, Note_on_c, 0, 80, 100
1, 15811, Note_off_c, 0, 80, 100
1, 15811, Note_on_c, 0, 75, 100
1, 16195, Note_off_c, 0, 75, 100
1, 16195, Note_on_c, 0, 73, 100
1, 16243, Note_off_c, 0, 73, 100
1, 16243, Note_on_c, 0, 75, 100
1, 16291, Note_off_c, 0, 75, 100
1, 16291, Note_on_c, 0, 78, 100
1, 16323, Note_off_c, 0, 78, 100
1, 16323, Note_on_c, 0, 80, 100
1, 16355, Note_off_c, 0, 80, 100
1, 16355, Note_on_c, 0, 83, 100
1, 16387, Note_off_c, 0, 83, 100
1, 16387, Note_on_c, 0, 85, 100
1, 16419, Note_off_c, 0, 85, 100
1, 16419, Note_on_c, 0, 83, 100
1, 16483, Note_off_c, 0, 83, 100
1, 16483, Note_on_c, 0, 80, 100
1, 16507, Note_off_c, 0, 80, 100
1, 16507, Note_on_c, 0, 79, 100
1, 16531, Note_off_c, 0, 79, 100
1, 16531, Note_on_c, 0, 78, 100
1, 16555, Note_off_c, 0, 78, 100
1, 16555, Note_on_c, 0, 75, 100
1, 16603, Note_off_c, 0, 75, 100
1, 16603, Note_on_c, 0, 73, 100
1, 16651, Note_off_c, 0, 73, 100
1, 16651, Note_on_c, 0, 71, 100
1, 16675, Note_off_c, 0, 71, 100
1, 16675, Note_on_c, 0, 75, 100
1, 17091, Note_off_c, 0, 75, 100
1, 17091, Note_on_c, 0, 73, 100
1, 17123, Note_off_c, 0, 73, 100
1, 17123, Note_on_c, 0, 75, 100
1, 17155, Note_off_c, 0, 75, 100
1, 17155, Note_on_c, 0, 78, 100
1, 17187, Note_off_c, 0, 78, 100
1, 17187, Note_on_c, 0, 80, 100
1, 17219, Note_off_c, 0, 80, 100
1, 17219, Note_on_c, 0, 83, 100
1, 17251, Note_off_c, 0, 83, 100
1, 17251, Note_on_c, 0, 80, 100
1, 17275, Note_off_c, 0, 80, 100
1, 17275, Note_on_c, 0, 79, 100
1, 17299, Note_off_c, 0, 79, 100
1, 17299, Note_on_c, 0, 75, 100
1, 17347, Note_off_c, 0, 75, 100
1, 17347, Note_on_c, 0, 73, 100
1, 17395, Note_off_c, 0, 73, 100
1, 17395, Note_on_c, 0, 75, 100
1, 17730, Note_off_c, 0, 75, 100
1, 17730, Note_on_c, 0, 73, 100
1, 17826, Note_off_c, 0, 73, 100
1, 17826, Note_on_c, 0, 71, 100
1, 18018, Note_off_c, 0, 71, 100
1, 18018, Note_on_c, 0, 68, 100
1, 18114, Note_off_c, 0, 68, 100
1, 18114, Note_on_c, 0, 63, 100
1, 18594, Note_off_c, 0, 63, 100
1, 18594, Note_on_c, 0, 64, 100
1, 18642, Note_off_c, 0, 64, 100
1, 18642, Note_on_c, 0, 66, 100
1, 18689, Note_off_c, 0, 66, 100
1, 18689, Note_on_c, 0, 68, 100
1, 18737, Note_off_c, 0, 68, 100
1, 18737, Note_on_c, 0, 71, 100
1, 18785, Note_off_c, 0, 71, 100
1, 18785, Note_on_c, 0, 73, 100
1, 18833, Note_off_c, 0, 73, 100
1, 18833, Note_on_c, 0, 75, 100
1, 18880, Note_off_c, 0, 75, 100
1, 18880, Note_on_c, 0, 78, 100
1, 18928, Note_off_c, 0, 78, 100
1, 18928, Note_on_c, 0, 80, 100
1, 18976, Note_off_c, 0, 80, 100
1, 18976, Note_on_c, 0, 83, 100
1, 19014, Note_off_c, 0, 83, 100
1, 19014, Note_on_c, 0, 85, 100
1, 19129, Note_off_c, 0, 85, 100
1, 19129, Note_on_c, 0, 85, 100
1, 19263, Note_off_c, 0, 85, 100
1, 19263, Note_on_c, 0, 85, 100
1, 19359, Note_off_c, 0, 85, 100
1, 19359, Note_on_c, 0, 85, 100
1, 19487, Note_off_c, 0, 85, 100
1, 19487, Note_on_c, 0, 83, 100
1, 19551, Note_off_c, 0, 83, 100
1, 19551, Note_on_c, 0, 75, 100
1, 19935, Note_off_c, 0, 75, 100
1, 19935, Note_on_c, 0, 73, 100
1, 20031, Note_off_c, 0, 73, 100
1, 20271, Note_on_c, 0, 85, 100
1, 20383, Note_off_c, 0, 85, 100
1, 20383, Note_on_c, 0, 83, 100
1, 20511, Note_off_c, 0, 83, 100
1, 20511, Note_on_c, 0, 85, 100
1, 20655, Note_off_c, 0, 85, 100
1, 20655, Note_on_c, 0, 83, 100
1, 20751, Note_off_c, 0, 83, 100
1, 20751, Note_on_c, 0, 75, 100
1, 20991, Note_off_c, 0, 75, 100
1, 20991, Note_on_c, 0, 73, 100
1, 21087, Note_off_c, 0, 73, 100
1, 21087, Note_on_c, 0, 75, 100
1, 21182, Note_off_c, 0, 75, 100
1, 21182, Note_on_c, 0, 73, 100
1, 21374, Note_off_c, 0, 73, 100
1, 21374, Note_on_c, 0, 85, 100
1, 21422, Note_off_c, 0, 85, 100
1, 21422, Note_on_c, 0, 83, 100
1, 21566, Note_off_c, 0, 83, 100
1, 21566, Note_on_c, 0, 85, 100
1, 21757, Note_off_c, 0, 85, 100
1, 21757, Note_on_c, 0, 83, 100
1, 21853, Note_off_c, 0, 83, 100
1, 21853, Note_on_c, 0, 75, 100
1, 21949, Note_off_c, 0, 75, 100
1, 21949, Note_on_c, 0, 73, 100
1, 22045, Note_off_c, 0, 73, 100
1, 22045, Note_on_c, 0, 75, 100
1, 22237, Note_off_c, 0, 75, 100
1, 22237, Note_on_c, 0, 73, 100
1, 22477, Note_off_c, 0, 73, 100
1, 22477, Note_on_c, 0, 64, 100
1, 22525, Note_off_c, 0, 64, 100
1, 22525, Note_on_c, 0, 66, 100
1, 22573, Note_off_c, 0, 66, 100
1, 22573, Note_on_c, 0, 68, 100
1, 22621, Note_off_c, 0, 68, 100
1, 22621, Note_on_c, 0, 71, 100
1, 22659, Note_off_c, 0, 71, 100
1, 22659, Note_on_c, 0, 73, 100
1, 22697, Note_off_c, 0, 73, 100
1, 22697, Note_on_c, 0, 75, 100
1, 22773, Note_off_c, 0, 75, 100
1, 22773, Note_on_c, 0, 78, 100
1, 22811, Note_off_c, 0, 78, 100
1, 22811, Note_on_c, 0, 80, 100
1, 22843, Note_off_c, 0, 80, 100
1, 22843, Note_on_c, 0, 83, 100
1, 22875, Note_off_c, 0, 83, 100
1, 22875, Note_on_c, 0, 85, 100
1, 22939, Note_off_c, 0, 85, 100
1, 22939, Note_on_c, 0, 83, 100
1, 22971, Note_off_c, 0, 83, 100
1, 22971, Note_on_c, 0, 86, 100
1, 23067, Note_off_c, 0, 86, 100
1, 23067, Note_on_c, 0, 84, 100
1, 23131, Note_off_c, 0, 84, 100
1, 23131, Note_on_c, 0, 75, 100
1, 23531, Note_off_c, 0, 75, 100
1, 23531, Note_on_c, 0, 73, 100
1, 23675, Note_off_c, 0, 73, 100
1, 23675, Note_on_c, 0, 84, 100
1, 23707, Note_off_c, 0, 84, 100
1, 23707, Note_on_c, 0, 85, 100
1, 23739, Note_off_c, 0, 85, 100
1, 23739, Note_on_c, 0, 86, 100
1, 23771, Note_off_c, 0, 86, 100
1, 23771, Note_on_c, 0, 87, 100
1, 24058, Note_off_c, 0, 87, 100
1, 24058, Note_on_c, 0, 86, 100
1, 24202, Note_off_c, 0, 86, 100
1, 24202, Note_on_c, 0, 86, 100
1, 24298, Note_off_c, 0, 86, 100
1, 24298, Note_on_c, 0, 87, 100
1, 24538, Note_off_c, 0, 87, 100
1, 24538, Note_on_c, 0, 86, 100
1, 24778, Note_off_c, 0, 86, 100
1, 24778, Note_on_c, 0, 83, 100
1, 25258, Note_off_c, 0, 83, 100
1, 25498, Note_on_c, 0, 85, 100
1, 25882, Note_off_c, 0, 85, 100
1, 25882, Note_on_c, 0, 83, 100
1, 25978, Note_off_c, 0, 83, 100
1, 25978, Note_on_c, 0, 79, 100
1, 26074, Note_off_c, 0, 79, 100
1, 26074, Note_on_c, 0, 83, 100
1, 26106, Note_off_c, 0, 83, 100
1, 26106, Note_on_c, 0, 78, 100
1, 26169, Note_off_c, 0, 78, 100
1, 26169, Note_on_c, 0, 83, 100
1, 26201, Note_off_c, 0, 83, 100
1, 26201, Note_on_c, 0, 78, 100
1, 26264, Note_off_c, 0, 78, 100
1, 26264, Note_on_c, 0, 75, 100
1, 26328, Note_off_c, 0, 75, 100
1, 26328, Note_on_c, 0, 78, 100
1, 26392, Note_off_c, 0, 78, 100
1, 26392, Note_on_c, 0, 73, 100
1, 26456, Note_off_c, 0, 73, 100
1, 26456, Note_on_c, 0, 77, 100
1, 26504, Note_off_c, 0, 77, 100
1, 26504, Note_on_c, 0, 73, 100
1, 26552, Note_off_c, 0, 73, 100
1, 26552, Note_on_c, 0, 71, 100
1, 26600, Note_off_c, 0, 71, 100
1, 26600, Note_on_c, 0, 73, 100
1, 26712, Note_off_c, 0, 73, 100
1, 26712, Note_on_c, 0, 71, 100
1, 26984, Note_off_c, 0, 71, 100
1, 26984, Note_on_c, 0, 66, 100
1, 27032, Note_off_c, 0, 66, 100
1, 27032, Note_on_c, 0, 71, 100
1, 27176, Note_off_c, 0, 71, 100
1, 27176, Note_on_c, 0, 59, 100
1, 27272, Note_off_c, 0, 59, 100
1, 27704, Note_on_c, 0, 64, 100
1, 27800, Note_off_c, 0, 64, 100
1, 27800, Note_on_c, 0, 66, 100
1, 28136, Note_off_c, 0, 66, 100
1, 28136, Note_on_c, 0, 64, 100
1, 28184, Note_off_c, 0, 64, 100
1, 28184, Note_on_c, 0, 68, 100
1, 28248, Note_off_c, 0, 68, 100
1, 28248, Note_on_c, 0, 71, 100
1, 28472, Note_off_c, 0, 71, 100
1, 28472, Note_on_c, 0, 66, 100
1, 28568, Note_off_c, 0, 66, 100
1, 28568, Note_on_c, 0, 71, 100
1, 28616, Note_off_c, 0, 71, 100
1, 28616, Note_on_c, 0, 73, 100
1, 28664, Note_off_c, 0, 73, 100
1, 28664, Note_on_c, 0, 67, 100
1, 28712, Note_off_c, 0, 67, 100
1, 28712, Note_on_c, 0, 68, 100
1, 28904, Note_off_c, 0, 68, 100
1, 28904, Note_on_c, 0, 75, 100
1, 28952, Note_off_c, 0, 75, 100
1, 28952, Note_on_c, 0, 71, 100
1, 29016, Note_off_c, 0, 71, 100
1, 29016, Note_on_c, 0, 76, 100
1, 29080, Note_off_c, 0, 76, 100
1, 29080, Note_on_c, 0, 78, 100
1, 29143, Note_off_c, 0, 78, 100
1, 29143, Note_on_c, 0, 73, 100
1, 29191, Note_off_c, 0, 73, 100
1, 29191, Note_on_c, 0, 78, 100
1, 29239, Note_off_c, 0, 78, 100
1, 29239, Note_on_c, 0, 80, 100
1, 29287, Note_off_c, 0, 80, 100
1, 29287, Note_on_c, 0, 78, 100
1, 29335, Note_off_c, 0, 78, 100
1, 29335, Note_on_c, 0, 80, 100
1, 29383, Note_off_c, 0, 80, 100
1, 29383, Note_on_c, 0, 83, 100
1, 29479, Note_off_c, 0, 83, 100
1, 30007, Note_on_c, 0, 83, 100
1, 30055, Note_off_c, 0, 83, 100
1, 30055, Note_on_c, 0, 85, 100
1, 30295, Note_off_c, 0, 85, 100
1, 30295, Note_on_c, 0, 83, 100
1, 30359, Note_off_c, 0, 83, 100
1, 30359, Note_on_c, 0, 85, 100
1, 30423, Note_off_c, 0, 85, 100
1, 30423, Note_on_c, 0, 83, 100
1, 30487, Note_off_c, 0, 83, 100
1, 30487, Note_on_c, 0, 78, 100
1, 30583, Note_off_c, 0, 78, 100
1, 30583, Note_on_c, 0, 83, 100
1, 30631, Note_off_c, 0, 83, 100
1, 30631, Note_on_c, 0, 80, 100
1, 30679, Note_off_c, 0, 80, 100
1, 30679, Note_on_c, 0, 76, 100
1, 30775, Note_off_c, 0, 76, 100
1, 30775, Note_on_c, 0, 80, 100
1, 30823, Note_off_c, 0, 80, 100
1, 30823, Note_on_c, 0, 78, 100
1, 30919, Note_off_c, 0, 78, 100
1, 30919, Note_on_c, 0, 75, 100
1, 30967, Note_off_c, 0, 75, 100
1, 30967, Note_on_c, 0, 78, 100
1, 31015, Note_off_c, 0, 78, 100
1, 31015, Note_on_c, 0, 76, 100
1, 31063, Note_off_c, 0, 76, 100
1, 31063, Note_on_c, 0, 73, 100
1, 31127, Note_off_c, 0, 73, 100
1, 31127, Note_on_c, 0, 76, 100
1, 31191, Note_off_c, 0, 76, 100
1, 31191, Note_on_c, 0, 75, 100
1, 31543, Note_off_c, 0, 75, 100
1, 31543, Note_on_c, 0, 73, 100
1, 31639, Note_off_c, 0, 73, 100
1, 31639, Note_on_c, 0, 71, 100
1, 31783, Note_off_c, 0, 71, 100
1, 31783, Note_on_c, 0, 66, 100
1, 31879, Note_off_c, 0, 66, 100
1, 32311, Note_on_c, 0, 71, 100
1, 32359, Note_off_c, 0, 71, 100
1, 32359, Note_on_c, 0, 75, 100
1, 32743, Note_off_c, 0, 75, 100
1, 32743, Note_on_c, 0, 73, 100
1, 32791, Note_off_c, 0, 73, 100
1, 32791, Note_on_c, 0, 75, 100
1, 32983, Note_off_c, 0, 75, 100
1, 32983, Note_on_c, 0, 75, 100
1, 33175, Note_off_c, 0, 75, 100
1, 33175, Note_on_c, 0, 75, 100
1, 33367, Note_off_c, 0, 75, 100
1, 33367, Note_on_c, 0, 75, 100
1, 33895, Note_off_c, 0, 75, 100
1, 33895, Note_on_c, 0, 73, 100
1, 33943, Note_off_c, 0, 73, 100
1, 33943, Note_on_c, 0, 71, 100
1, 34135, Note_off_c, 0, 71, 100
1, 34135, Note_on_c, 0, 68, 100
1, 34231, Note_off_c, 0, 68, 100
1, 34231, Note_on_c, 0, 63, 100
1, 34615, Note_off_c, 0, 63, 100
1, 35047, Note_on_c, 0, 61, 100
1, 35095, Note_off_c, 0, 61, 100
1, 35095, Note_on_c, 0, 63, 100
1, 35287, Note_off_c, 0, 63, 100
1, 35287, Note_on_c, 0, 63, 100
1, 35479, Note_off_c, 0, 63, 100
1, 35479, Note_on_c, 0, 63, 100
1, 35671, Note_off_c, 0, 63, 100
1, 35671, Note_on_c, 0, 63, 100
1, 36151, Note_off_c, 0, 63, 100
1, 36151, Note_on_c, 0, 61, 100
1, 36198, Note_off_c, 0, 61, 100
1, 36198, Note_on_c, 0, 63, 100
1, 36294, Note_off_c, 0, 63, 100
1, 36294, Note_on_c, 0, 73, 100
1, 36342, Note_off_c, 0, 73, 100
1, 36342, Note_on_c, 0, 70, 100
1, 36390, Note_off_c, 0, 70, 100
1, 36390, Note_on_c, 0, 71, 100
1, 36774, Note_off_c, 0, 71, 100
1, 37302, Note_on_c, 0, 67, 100
1, 37397, Note_off_c, 0, 67, 100
1, 37397, Note_on_c, 0, 68, 100
1, 37493, Note_off_c, 0, 68, 100
1, 37493, Note_on_c, 0, 80, 100
1, 37541, Note_off_c, 0, 80, 100
1, 37541, Note_on_c, 0, 78, 100
1, 37973, Note_off_c, 0, 78, 100
1, 37973, Note_on_c, 0, 67, 100
1, 38021, Note_off_c, 0, 67, 100
1, 38021, Note_on_c, 0, 68, 100
1, 38069, Note_off_c, 0, 68, 100
1, 38069, Note_on_c, 0, 78, 100
1, 38165, Note_off_c, 0, 78, 100
1, 38165, Note_on_c, 0, 76, 100
1, 38405, Note_off_c, 0, 76, 100
1, 38405, Note_on_c, 0, 67, 100
1, 38453, Note_off_c, 0, 67, 100
1, 38453, Note_on_c, 0, 68, 100
1, 38500, Note_off_c, 0, 68, 100
1, 38500, Note_on_c, 0, 75, 100
1, 38548, Note_off_c, 0, 75, 100
1, 38548, Note_on_c, 0, 73, 100
1, 38836, Note_off_c, 0, 73, 100
1, 38836, Note_on_c, 0, 67, 100
1, 38884, Note_off_c, 0, 67, 100
1, 38884, Note_on_c, 0, 68, 100
1, 38932, Note_off_c, 0, 68, 100
1, 38932, Note_on_c, 0, 73, 100
1, 39028, Note_off_c, 0, 73, 100
1, 39028, Note_on_c, 0, 71, 100
1, 39411, Note_off_c, 0, 71, 100
1, 39411, Note_on_c, 0, 67, 100
1, 39459, Note_off_c, 0, 67, 100
1, 39459, Note_on_c, 0, 68, 100
1, 39507, Note_off_c, 0, 68, 100
1, 39507, Note_on_c, 0, 75, 100
1, 39603, Note_off_c, 0, 75, 100
1, 39603, Note_on_c, 0, 73, 100
1, 39842, Note_off_c, 0, 73, 100
1, 39842, Note_on_c, 0, 67, 100
1, 39890, Note_off_c, 0, 67, 100
1, 39890, Note_on_c, 0, 68, 100
1, 39937, Note_off_c, 0, 68, 100
1, 39937, Note_on_c, 0, 78, 100
1, 40033, Note_off_c, 0, 78, 100
1, 40033, Note_on_c, 0, 75, 100
1, 40369, Note_off_c, 0, 75, 100
1, 40369, Note_on_c, 0, 67, 100
1, 40465, Note_off_c, 0, 67, 100
1, 40465, Note_on_c, 0, 68, 100
1, 40512, Note_off_c, 0, 68, 100
1, 40512, Note_on_c, 0, 78, 100
1, 40560, Note_off_c, 0, 78, 100
1, 40560, Note_on_c, 0, 76, 100
1, 40704, Note_off_c, 0, 76, 100
1, 40704, Note_on_c, 0, 67, 100
1, 40752, Note_off_c, 0, 67, 100
1, 40752, Note_on_c, 0, 68, 100
1, 40799, Note_off_c, 0, 68, 100
1, 40799, Note_on_c, 0, 80, 100
1, 40847, Note_off_c, 0, 80, 100
1, 40847, Note_on_c, 0, 78, 100
1, 41135, Note_off_c, 0, 78, 100
1, 41135, Note_on_c, 0, 67, 100
1, 41183, Note_off_c, 0, 67, 100
1, 41183, Note_on_c, 0, 68, 100
1, 41231, Note_off_c, 0, 68, 100
1, 41231, Note_on_c, 0, 78, 100
1, 41327, Note_off_c, 0, 78, 100
1, 41327, Note_on_c, 0, 76, 100
1, 41470, Note_off_c, 0, 76, 100
1, 41470, Note_on_c, 0, 67, 100
1, 41518, Note_off_c, 0, 67, 100
1, 41518, Note_on_c, 0, 68, 100
1, 41566, Note_off_c, 0, 68, 100
1, 41566, Note_on_c, 0, 75, 100
1, 41614, Note_off_c, 0, 75, 100
1, 41614, Note_on_c, 0, 73, 100
1, 41830, Note_off_c, 0, 73, 100
1, 41830, Note_on_c, 0, 68, 100
1, 41877, Note_off_c, 0, 68, 100
1, 41877, Note_on_c, 0, 71, 100
1, 41901, Note_off_c, 0, 71, 100
1, 41901, Note_on_c, 0, 73, 100
1, 41948, Note_off_c, 0, 73, 100
1, 41948, Note_on_c, 0, 75, 100
1, 41972, Note_off_c, 0, 75, 100
1, 41972, Note_on_c, 0, 78, 100
1, 41995, Note_off_c, 0, 78, 100
1, 41995, Note_on_c, 0, 80, 100
1, 42043, Note_off_c, 0, 80, 100
1, 42043, Note_on_c, 0, 83, 100
1, 42091, Note_off_c, 0, 83, 100
1, 42091, Note_on_c, 0, 85, 100
1, 42187, Note_off_c, 0, 85, 100
1, 42475, Note_on_c, 0, 83, 100
1, 42522, Note_off_c, 0, 83, 100
1, 42522, Note_on_c, 0, 85, 100
1, 42570, Note_off_c, 0, 85, 100
1, 42570, Note_on_c, 0, 80, 100
1, 42618, Note_off_c, 0, 80, 100
1, 42618, Note_on_c, 0, 83, 100
1, 42666, Note_off_c, 0, 83, 100
1, 42666, Note_on_c, 0, 78, 100
1, 42714, Note_off_c, 0, 78, 100
1, 42714, Note_on_c, 0, 83, 100
1, 42762, Note_off_c, 0, 83, 100
1, 42762, Note_on_c, 0, 78, 100
1, 42858, Note_off_c, 0, 78, 100
1, 42858, Note_on_c, 0, 76, 100
1, 42906, Note_off_c, 0, 76, 100
1, 42906, Note_on_c, 0, 78, 100
1, 42954, Note_off_c, 0, 78, 100
1, 42954, Note_on_c, 0, 80, 100
1, 43050, Note_off_c, 0, 80, 100
1, 43050, Note_on_c, 0, 78, 100
1, 43097, Note_off_c, 0, 78, 100
1, 43097, Note_on_c, 0, 80, 100
1, 43145, Note_off_c, 0, 80, 100
1, 43145, Note_on_c, 0, 83, 100
1, 43241, Note_off_c, 0, 83, 100
1, 43433, Note_on_c, 0, 71, 100
1, 43481, Note_off_c, 0, 71, 100
1, 43481, Note_on_c, 0, 73, 100
1, 43529, Note_off_c, 0, 73, 100
1, 43529, Note_on_c, 0, 71, 100
1, 43625, Note_off_c, 0, 71, 100
1, 43625, Note_on_c, 0, 78, 100
1, 43672, Note_off_c, 0, 78, 100
1, 43672, Note_on_c, 0, 83, 100
1, 43720, Note_off_c, 0, 83, 100
1, 43720, Note_on_c, 0, 80, 100
1, 43816, Note_off_c, 0, 80, 100
1, 43816, Note_on_c, 0, 78, 100
1, 43864, Note_off_c, 0, 78, 100
1, 43864, Note_on_c, 0, 80, 100
1, 43912, Note_off_c, 0, 80, 100
1, 43912, Note_on_c, 0, 83, 100
1, 43976, Note_off_c, 0, 83, 100
1, 43976, Note_on_c, 0, 78, 100
1, 44040, Note_off_c, 0, 78, 100
1, 44040, Note_on_c, 0, 80, 100
1, 44104, Note_off_c, 0, 80, 100
1, 44104, Note_on_c, 0, 83, 100
1, 44168, Note_off_c, 0, 83, 100
1, 44168, Note_on_c, 0, 80, 100
1, 44231, Note_off_c, 0, 80, 100
1, 44231, Note_on_c, 0, 83, 100
1, 44295, Note_off_c, 0, 83, 100
1, 44295, Note_on_c, 0, 85, 100
1, 44391, Note_off_c, 0, 85, 100
1, 44583, Note_on_c, 0, 83, 100
1, 44631, Note_off_c, 0, 83, 100
1, 44631, Note_on_c, 0, 85, 100
1, 44679, Note_off_c, 0, 85, 100
1, 44679, Note_on_c, 0, 83, 100
1, 44775, Note_off_c, 0, 83, 100
1, 44775, Note_on_c, 0, 78, 100
1, 44822, Note_off_c, 0, 78, 100
1, 44822, Note_on_c, 0, 71, 100
1, 44870, Note_off_c, 0, 71, 100
1, 44870, Note_on_c, 0, 78, 100
1, 44966, Note_off_c, 0, 78, 100
1, 44966, Note_on_c, 0, 83, 100
1, 45014, Note_off_c, 0, 83, 100
1, 45014, Note_on_c, 0, 80, 100
1, 45062, Note_off_c, 0, 80, 100
1, 45062, Note_on_c, 0, 83, 100
1, 45158, Note_off_c, 0, 83, 100
1, 45158, Note_on_c, 0, 78, 100
1, 45206, Note_off_c, 0, 78, 100
1, 45206, Note_on_c, 0, 83, 100
1, 45302, Note_off_c, 0, 83, 100
1, 45302, Note_on_c, 0, 85, 100
1, 45350, Note_off_c, 0, 85, 100
1, 45350, Note_on_c, 0, 83, 100
1, 45397, Note_off_c, 0, 83, 100
1, 45397, Note_on_c, 0, 85, 100
1, 45445, Note_off_c, 0, 85, 100
1, 45445, Note_on_c, 0, 83, 100
1, 46213, Note_off_c, 0, 83, 100
1, 46213, Note_on_c, 0, 85, 100
1, 46260, Note_off_c, 0, 85, 100
1, 46260, Note_on_c, 0, 86, 100
1, 46308, Note_off_c, 0, 86, 100
1, 46308, Note_on_c, 0, 87, 100
1, 46500, Note_off_c, 0, 87, 100
1, 46500, Note_on_c, 0, 85, 100
1, 46595, Note_off_c, 0, 85, 100
1, 46595, Note_on_c, 0, 83, 100
1, 46691, Note_off_c, 0, 83, 100
1, 46691, Note_on_c, 0, 87, 100
1, 46787, Note_off_c, 0, 87, 100
1, 46787, Note_on_c, 0, 86, 100
1, 46931, Note_off_c, 0, 86, 100
1, 46931, Note_on_c, 0, 87, 100
1, 46979, Note_off_c, 0, 87, 100
1, 46979, Note_on_c, 0, 85, 100
1, 47171, Note_off_c, 0, 85, 100
1, 47171, Note_on_c, 0, 86, 100
1, 47219, Note_off_c, 0, 86, 100
1, 47219, Note_on_c, 0, 87, 100
1, 47315, Note_off_c, 0, 87, 100
1, 47315, Note_on_c, 0, 85, 100
1, 47459, Note_off_c, 0, 85, 100
1, 47459, Note_on_c, 0, 86, 100
1, 47507, Note_off_c, 0, 86, 100
1, 47507, Note_on_c, 0, 87, 100
1, 47651, Note_off_c, 0, 87, 100
1, 47651, Note_on_c, 0, 85, 100
1, 47746, Note_off_c, 0, 85, 100
1, 47746, Note_on_c, 0, 83, 100
1, 48034, Note_off_c, 0, 83, 100
1, 48034, Note_on_c, 0, 80, 100
1, 48226, Note_off_c, 0, 80, 100
1, 48226, Note_on_c, 0, 75, 100
1, 48657, Note_off_c, 0, 75, 100
1, 48657, Note_on_c, 0, 73, 100
1, 48705, Note_off_c, 0, 73, 100
1, 48705, Note_on_c, 0, 75, 100
1, 48769, Note_off_c, 0, 75, 100
1, 48769, Note_on_c, 0, 78, 100
1, 48801, Note_off_c, 0, 78, 100
1, 48801, Note_on_c, 0, 80, 100
1, 48832, Note_off_c, 0, 80, 100
1, 48832, Note_on_c, 0, 83, 100
1, 48864, Note_off_c, 0, 83, 100
1, 48864, Note_on_c, 0, 80, 100
1, 48896, Note_off_c, 0, 80, 100
1, 48896, Note_on_c, 0, 75, 100
1, 49088, Note_off_c, 0, 75, 100
1, 49088, Note_on_c, 0, 75, 100
1, 49280, Note_off_c, 0, 75, 100
1, 49280, Note_on_c, 0, 75, 100
1, 49472, Note_off_c, 0, 75, 100
1, 49472, Note_on_c, 0, 75, 100
1, 50000, Note_off_c, 0, 75, 100
1, 50000, Note_on_c, 0, 73, 100
1, 50048, Note_off_c, 0, 73, 100
1, 50048, Note_on_c, 0, 71, 100
1, 50240, Note_off_c, 0, 71, 100
1, 50240, Note_on_c, 0, 68, 100
1, 50336, Note_off_c, 0, 68, 100
1, 50336, Note_on_c, 0, 63, 100
1, 50624, Note_off_c, 0, 63, 100
1, 51056, Note_on_c, 0, 63, 100
1, 51152, Note_off_c, 0, 63, 100
1, 51152, Note_on_c, 0, 61, 100
1, 51200, Note_off_c, 0, 61, 100
1, 51200, Note_on_c, 0, 66, 100
1, 51968, Note_off_c, 0, 66, 100
1, 51968, Note_on_c, 0, 61, 100
1, 52064, Note_off_c, 0, 61, 100
1, 52064, Note_on_c, 0, 66, 100
1, 52160, Note_off_c, 0, 66, 100
1, 52160, Note_on_c, 0, 71, 100
1, 52208, Note_off_c, 0, 71, 100
1, 52208, Note_on_c, 0, 73, 100
1, 52256, Note_off_c, 0, 73, 100
1, 52256, Note_on_c, 0, 75, 100
1, 52304, Note_off_c, 0, 75, 100
1, 52304, Note_on_c, 0, 78, 100
1, 52832, Note_off_c, 0, 78, 100
1, 52832, Note_on_c, 0, 75, 100
1, 52880, Note_off_c, 0, 75, 100
1, 52880, Note_on_c, 0, 78, 100
1, 52928, Note_off_c, 0, 78, 100
1, 52928, Note_on_c, 0, 83, 100
1, 52952, Note_off_c, 0, 83, 100
1, 52952, Note_on_c, 0, 80, 100
1, 52976, Note_off_c, 0, 80, 100
1, 52976, Note_on_c, 0, 78, 100
1, 53000, Note_off_c, 0, 78, 100
1, 53000, Note_on_c, 0, 75, 100
1, 53048, Note_off_c, 0, 75, 100
1, 53048, Note_on_c, 0, 73, 100
1, 53096, Note_off_c, 0, 73, 100
1, 53096, Note_on_c, 0, 75, 100
1, 53120, Note_off_c, 0, 75, 100
1, 53120, Note_on_c, 0, 78, 100
1, 53168, Note_off_c, 0, 78, 100
1, 53168, Note_on_c, 0, 83, 100
1, 53216, Note_off_c, 0, 83, 100
1, 53216, Note_on_c, 0, 80, 100
1, 53264, Note_off_c, 0, 80, 100
1, 53264, Note_on_c, 0, 75, 100
1, 53312, Note_off_c, 0, 75, 100
1, 53312, Note_on_c, 0, 73, 100
1, 53350, Note_off_c, 0, 73, 100
1, 53350, Note_on_c, 0, 71, 100
1, 53388, Note_off_c, 0, 71, 100
1, 53388, Note_on_c, 0, 68, 100
1, 53426, Note_off_c, 0, 68, 100
1, 53426, Note_on_c, 0, 66, 100
1, 53502, Note_off_c, 0, 66, 100
1, 53502, Note_on_c, 0, 63, 100
1, 53550, Note_off_c, 0, 63, 100
1, 53550, Note_on_c, 0, 66, 100
1, 54078, Note_off_c, 0, 66, 100
1, 54078, Note_on_c, 0, 64, 100
1, 54116, Note_off_c, 0, 64, 100
1, 54116, Note_on_c, 0, 66, 100
1, 54154, Note_off_c, 0, 66, 100
1, 54154, Note_on_c, 0, 71, 100
1, 54192, Note_off_c, 0, 71, 100
1, 54192, Note_on_c, 0, 61, 100
1, 54268, Note_off_c, 0, 61, 100
1, 54268, Note_on_c, 0, 63, 100
1, 54316, Note_off_c, 0, 63, 100
1, 54316, Note_on_c, 0, 66, 100
1, 54364, Note_off_c, 0, 66, 100
1, 54364, Note_on_c, 0, 68, 100
1, 54412, Note_off_c, 0, 68, 100
1, 54412, Note_on_c, 0, 71, 100
1, 54460, Note_off_c, 0, 71, 100
1, 54460, Note_on_c, 0, 73, 100
1, 54508, Note_off_c, 0, 73, 100
1, 54508, Note_on_c, 0, 75, 100
1, 54556, Note_off_c, 0, 75, 100
1, 54556, Note_on_c, 0, 78, 100
1, 54652, Note_off_c, 0, 78, 100
1, 55324, Note_on_c, 0, 75, 100
1, 55708, Note_off_c, 0, 75, 100
1, 55708, Note_on_c, 0, 73, 100
1, 55804, Note_off_c, 0, 73, 100
1, 55804, Note_on_c, 0, 73, 100
1, 56044, Note_off_c, 0, 73, 100
1, 56044, Note_on_c, 0, 71, 100
1, 56092, Note_off_c, 0, 71, 100
1, 56092, Note_on_c, 0, 68, 100
1, 56116, Note_off_c, 0, 68, 100
1, 56116, Note_on_c, 0, 66, 100
1, 56140, Note_off_c, 0, 66, 100
1, 56140, Note_on_c, 0, 63, 100
1, 56164, Note_off_c, 0, 63, 100
1, 56164, Note_on_c, 0, 62, 100
1, 56188, Note_off_c, 0, 62, 100
1, 56188, Note_on_c, 0, 61, 100
1, 56572, Note_off_c, 0, 61, 100
1, 56572, Note_on_c, 0, 78, 100
1, 56764, Note_off_c, 0, 78, 100
1, 56764, Note_on_c, 0, 75, 100
1, 56802, Note_off_c, 0, 75, 100
1, 56802, Note_on_c, 0, 73, 100
1, 56840, Note_off_c, 0, 73, 100
1, 56840, Note_on_c, 0, 70, 100
1, 56878, Note_off_c, 0, 70, 100
1, 56878, Note_on_c, 0, 69, 100
1, 56916, Note_off_c, 0, 69, 100
1, 56916, Note_on_c, 0, 68, 100
1, 56954, Note_off_c, 0, 68, 100
1, 56954, Note_on_c, 0, 66, 100
1, 57050, Note_off_c, 0, 66, 100
1, 57050, Note_on_c, 0, 73, 100
1, 57194, Note_off_c, 0, 73, 100
1, 57194, Note_on_c, 0, 71, 100
1, 57218, Note_off_c, 0, 71, 100
1, 57218, Note_on_c, 0, 68, 100
1, 57242, Note_off_c, 0, 68, 100
1, 57242, Note_on_c, 0, 67, 100
1, 57266, Note_off_c, 0, 67, 100
1, 57266, Note_on_c, 0, 66, 100
1, 57290, Note_off_c, 0, 66, 100
1, 57290, Note_on_c, 0, 64, 100
1, 57314, Note_off_c, 0, 64, 100
1, 57314, Note_on_c, 0, 63, 100
1, 57338, Note_off_c, 0, 63, 100
1, 57338, Note_on_c, 0, 61, 100
1, 57482, Note_off_c, 0, 61, 100
1, 57482, Note_on_c, 0, 78, 100
1, 57606, Note_off_c, 0, 78, 100
1, 57606, Note_on_c, 0, 75, 100
1, 57644, Note_off_c, 0, 75, 100
1, 57644, Note_on_c, 0, 73, 100
1, 57682, Note_off_c, 0, 73, 100
1, 57682, Note_on_c, 0, 71, 100
1, 57720, Note_off_c, 0, 71, 100
1, 57720, Note_on_c, 0, 68, 100
1, 57758, Note_off_c, 0, 68, 100
1, 57758, Note_on_c, 0, 67, 100
1, 57796, Note_off_c, 0, 67, 100
1, 57796, Note_on_c, 0, 66, 100
1, 57872, Note_off_c, 0, 66, 100
1, 57872, Note_on_c, 0, 73, 100
1, 57974, Note_off_c, 0, 73, 100
1, 57974, Note_on_c, 0, 70, 100
1, 58005, Note_off_c, 0, 70, 100
1, 58005, Note_on_c, 0, 67, 100
1, 58037, Note_off_c, 0, 67, 100
1, 58037, Note_on_c, 0, 66, 100
1, 58069, Note_off_c, 0, 66, 100
1, 58069, Note_on_c, 0, 63, 100
1, 58101, Note_off_c, 0, 63, 100
1, 58101, Note_on_c, 0, 62, 100
1, 58149, Note_off_c, 0, 62, 100
1, 58149, Note_on_c, 0, 61, 100
1, 58357, Note_off_c, 0, 61, 100
1, 58357, Note_on_c, 0, 66, 100
1, 58421, Note_off_c, 0, 66, 100
1, 58421, Note_on_c, 0, 78, 100
1, 58509, Note_off_c, 0, 78, 100
1, 58509, Note_on_c, 0, 75, 100
1, 58533, Note_off_c, 0, 75, 100
1, 58533, Note_on_c, 0, 74, 100
1, 58557, Note_off_c, 0, 74, 100
1, 58557, Note_on_c, 0, 71, 100
1, 58581, Note_off_c, 0, 71, 100
1, 58581, Note_on_c, 0, 68, 100
1, 58629, Note_off_c, 0, 68, 100
1, 58629, Note_on_c, 0, 67, 100
1, 58653, Note_off_c, 0, 67, 100
1, 58653, Note_on_c, 0, 66, 100
1, 58677, Note_off_c, 0, 66, 100
1, 58677, Note_on_c, 0, 73, 100
1, 58821, Note_off_c, 0, 73, 100
1, 58821, Note_on_c, 0, 70, 100
1, 58869, Note_off_c, 0, 70, 100
1, 58869, Note_on_c, 0, 68, 100
1, 58900, Note_off_c, 0, 68, 100
1, 58900, Note_on_c, 0, 67, 100
1, 58932, Note_off_c, 0, 67, 100
1, 58932, Note_on_c, 0, 66, 100
1, 58964, Note_off_c, 0, 66, 100
1, 58964, Note_on_c, 0, 63, 100
1, 58996, Note_off_c, 0, 63, 100
1, 58996, Note_on_c, 0, 62, 100
1, 59028, Note_off_c, 0, 62, 100
1, 59028, Note_on_c, 0, 61, 100
1, 59444, Note_off_c, 0, 61, 100
1, 59444, Note_on_c, 0, 64, 100
1, 59636, Note_off_c, 0, 64, 100
1, 59636, Note_on_c, 0, 68, 100
1, 59732, Note_off_c, 0, 68, 100
1, 60260, Note_on_c, 0, 64, 100
1, 60308, Note_off_c, 0, 64, 100
1, 60308, Note_on_c, 0, 66, 100
1, 60356, Note_off_c, 0, 66, 100
1, 60356, Note_on_c, 0, 68, 100
1, 60404, Note_off_c, 0, 68, 100
1, 60404, Note_on_c, 0, 71, 100
1, 60442, Note_off_c, 0, 71, 100
1, 60442, Note_on_c, 0, 73, 100
1, 60480, Note_off_c, 0, 73, 100
1, 60480, Note_on_c, 0, 75, 100
1, 60518, Note_off_c, 0, 75, 100
1, 60518, Note_on_c, 0, 78, 100
1, 60556, Note_off_c, 0, 78, 100
1, 60556, Note_on_c, 0, 80, 100
1, 60594, Note_off_c, 0, 80, 100
1, 60594, Note_on_c, 0, 83, 100
1, 60642, Note_off_c, 0, 83, 100
1, 60642, Note_on_c, 0, 85, 100
1, 60786, Note_off_c, 0, 85, 100
1, 60786, Note_on_c, 0, 83, 100
1, 60930, Note_off_c, 0, 83, 100
1, 60930, Note_on_c, 0, 85, 100
1, 61074, Note_off_c, 0, 85, 100
1, 61074, Note_on_c, 0, 63, 100
1, 61314, Note_off_c, 0, 63, 100
1, 61314, Note_on_c, 0, 61, 100
1, 61362, Note_off_c, 0, 61, 100
1, 61362, Note_on_c, 0, 63, 100
1, 61458, Note_off_c, 0, 63, 100
1, 61458, Note_on_c, 0, 61, 100
1, 61650, Note_off_c, 0, 61, 100
1, 61650, Note_on_c, 0, 85, 100
1, 61698, Note_off_c, 0, 85, 100
1, 61698, Note_on_c, 0, 83, 100
1, 61746, Note_off_c, 0, 83, 100
1, 61746, Note_on_c, 0, 80, 100
1, 61784, Note_off_c, 0, 80, 100
1, 61784, Note_on_c, 0, 79, 100
1, 61822, Note_off_c, 0, 79, 100
1, 61822, Note_on_c, 0, 75, 100
1, 61898, Note_off_c, 0, 75, 100
1, 61898, Note_on_c, 0, 73, 100
1, 62032, Note_off_c, 0, 73, 100
1, 62032, Note_on_c, 0, 70, 100
1, 62128, Note_off_c, 0, 70, 100
1, 62128, Note_on_c, 0, 63, 100
1, 62320, Note_off_c, 0, 63, 100
1, 62320, Note_on_c, 0, 63, 100
1, 62512, Note_off_c, 0, 63, 100
1, 62512, Note_on_c, 0, 61, 100
1, 62608, Note_off_c, 0, 61, 100
1, 62800, Note_on_c, 0, 85, 100
1, 62832, Note_off_c, 0, 85, 100
1, 62832, Note_on_c, 0, 83, 100
1, 62864, Note_off_c, 0, 83, 100
1, 62864, Note_on_c, 0, 80, 100
1, 62896, Note_off_c, 0, 80, 100
1, 62896, Note_on_c, 0, 78, 100
1, 62934, Note_off_c, 0, 78, 100
1, 62934, Note_on_c, 0, 75, 100
1, 63049, Note_off_c, 0, 75, 100
1, 63049, Note_on_c, 0, 73, 100
1, 63169, Note_off_c, 0, 73, 100
1, 63169, Note_on_c, 0, 70, 100
1, 63196, Note_off_c, 0, 70, 100
1, 63196, Note_on_c, 0, 68, 100
1, 63223, Note_off_c, 0, 68, 100
1, 63223, Note_on_c, 0, 66, 100
1, 63250, Note_off_c, 0, 66, 100
1, 63250, Note_on_c, 0, 63, 100
1, 63277, Note_off_c, 0, 63, 100
1, 63277, Note_on_c, 0, 61, 100
1, 63373, Note_off_c, 0, 61, 100
1, 63373, Note_on_c, 0, 63, 100
1, 63805, Note_off_c, 0, 63, 100
1, 63805, Note_on_c, 0, 61, 100
1, 63853, Note_off_c, 0, 61, 100
1, 63853, Note_on_c, 0, 64, 100
1, 63949, Note_off_c, 0, 64, 100
1, 63949, Note_on_c, 0, 68, 100
1, 64045, Note_off_c, 0, 68, 100
1, 64525, Note_on_c, 0, 61, 100
1, 64621, Note_off_c, 0, 61, 100
1, 64621, Note_on_c, 0, 63, 100
1, 64659, Note_off_c, 0, 63, 100
1, 64659, Note_on_c, 0, 66, 100
1, 64697, Note_off_c, 0, 66, 100
1, 64697, Note_on_c, 0, 68, 100
1, 64735, Note_off_c, 0, 68, 100
1, 64735, Note_on_c, 0, 71, 100
1, 64773, Note_off_c, 0, 71, 100
1, 64773, Note_on_c, 0, 73, 100
1, 64811, Note_off_c, 0, 73, 100
1, 64811, Note_on_c, 0, 75, 100
1, 64843, Note_off_c, 0, 75, 100
1, 64843, Note_on_c, 0, 78, 100
1, 64875, Note_off_c, 0, 78, 100
1, 64875, Note_on_c, 0, 80, 100
1, 64906, Note_off_c, 0, 80, 100
1, 64906, Note_on_c, 0, 83, 100
1, 64938, Note_off_c, 0, 83, 100
1, 64938, Note_on_c, 0, 85, 100
1, 65002, Note_off_c, 0, 85, 100
1, 65002, Note_on_c, 0, 83, 100
1, 65194, Note_off_c, 0, 83, 100
1, 65194, Note_on_c, 0, 87, 100
1, 65290, Note_off_c, 0, 87, 100
1, 65290, Note_on_c, 0, 86, 100
1, 65338, Note_off_c, 0, 86, 100
1, 65338, Note_on_c, 0, 85, 100
1, 65386, Note_off_c, 0, 85, 100
1, 65386, Note_on_c, 0, 83, 100
1, 65434, Note_off_c, 0, 83, 100
1, 65434, Note_on_c, 0, 87, 100
1, 65482, Note_off_c, 0, 87, 100
1, 65482, Note_on_c, 0, 86, 100
1, 65530, Note_off_c, 0, 86, 100
1, 65530, Note_on_c, 0, 85, 100
1, 65578, Note_off_c, 0, 85, 100
1, 65578, Note_on_c, 0, 84, 100
1, 65642, Note_off_c, 0, 84, 100
1, 65642, Note_on_c, 0, 83, 100
1, 65706, Note_off_c, 0, 83, 100
1, 65706, Note_on_c, 0, 78, 100
1, 65866, Note_off_c, 0, 78, 100
1, 65866, Note_on_c, 0, 76, 100
1, 65962, Note_off_c, 0, 76, 100
1, 65962, Note_on_c, 0, 75, 100
1, 66010, Note_off_c, 0, 75, 100
1, 66010, Note_on_c, 0, 78, 100
1, 66058, Note_off_c, 0, 78, 100
1, 66058, Note_on_c, 0, 77, 100
1, 66106, Note_off_c, 0, 77, 100
1, 66106, Note_on_c, 0, 76, 100
1, 66154, Note_off_c, 0, 76, 100
1, 66154, Note_on_c, 0, 75, 100
1, 66178, Note_off_c, 0, 75, 100
1, 66178, Note_on_c, 0, 78, 100
1, 66226, Note_off_c, 0, 78, 100
1, 66226, Note_on_c, 0, 86, 100
1, 66274, Note_off_c, 0, 86, 100
1, 66274, Note_on_c, 0, 85, 100
1, 66298, Note_off_c, 0, 85, 100
1, 66298, Note_on_c, 0, 84, 100
1, 66322, Note_off_c, 0, 84, 100
1, 66322, Note_on_c, 0, 83, 100
1, 66373, Note_off_c, 0, 83, 100
1, 66373, Note_on_c, 0, 86, 100
1, 66427, Note_off_c, 0, 86, 100
1, 66427, Note_on_c, 0, 85, 100
1, 66454, Note_off_c, 0, 85, 100
1, 66454, Note_on_c, 0, 84, 100
1, 66481, Note_off_c, 0, 84, 100
1, 66481, Note_on_c, 0, 83, 100
1, 66508, Note_off_c, 0, 83, 100
1, 66508, Note_on_c, 0, 86, 100
1, 66535, Note_off_c, 0, 86, 100
1, 66535, Note_on_c, 0, 85, 100
1, 66559, Note_off_c, 0, 85, 100
1, 66559, Note_on_c, 0, 83, 100
1, 66583, Note_off_c, 0, 83, 100
1, 66583, Note_on_c, 0, 82, 100
1, 66607, Note_off_c, 0, 82, 100
1, 66607, Note_on_c, 0, 78, 100
1, 66823, Note_off_c, 0, 78, 100
1, 66823, Note_on_c, 0, 75, 100
1, 66871, Note_off_c, 0, 75, 100
1, 66871, Note_on_c, 0, 78, 100
1, 66919, Note_off_c, 0, 78, 100
1, 66919, Note_on_c, 0, 75, 100
1, 66983, Note_off_c, 0, 75, 100
1, 66983, Note_on_c, 0, 78, 100
1, 67047, Note_off_c, 0, 78, 100
1, 67047, Note_on_c, 0, 75, 100
1, 67111, Note_off_c, 0, 75, 100
1, 67111, Note_on_c, 0, 71, 100
1, 67175, Note_off_c, 0, 71, 100
1, 67175, Note_on_c, 0, 66, 100
1, 67239, Note_off_c, 0, 66, 100
1, 67239, Note_on_c, 0, 64, 100
1, 67271, Note_off_c, 0, 64, 100
1, 67271, Note_on_c, 0, 66, 100
1, 67303, Note_off_c, 0, 66, 100
1, 67303, Note_on_c, 0, 68, 100
1, 67341, Note_off_c, 0, 68, 100
1, 67341, Note_on_c, 0, 71, 100
1, 67379, Note_off_c, 0, 71, 100
1, 67379, Note_on_c, 0, 73, 100
1, 67417, Note_off_c, 0, 73, 100
1, 67417, Note_on_c, 0, 75, 100
1, 67455, Note_off_c, 0, 75, 100
1, 67455, Note_on_c, 0, 78, 100
1, 67493, Note_off_c, 0, 78, 100
1, 67493, Note_on_c, 0, 83, 100
1, 67531, Note_off_c, 0, 83, 100
1, 67531, Note_on_c, 0, 87, 100
1, 67607, Note_off_c, 0, 87, 100
1, 67607, Note_on_c, 0, 83, 100
1, 67645, Note_off_c, 0, 83, 100
1, 67645, Note_on_c, 0, 87, 100
1, 67731, Note_off_c, 0, 87, 100
1, 67731, Note_on_c, 0, 83, 100
1, 68403, Note_off_c, 0, 83, 100
1, 68403, Note_on_c, 0, 81, 100
1, 68451, Note_off_c, 0, 81, 100
1, 68451, Note_on_c, 0, 83, 100
1, 68643, Note_off_c, 0, 83, 100
1, 68643, Note_on_c, 0, 83, 100
1, 68739, Note_off_c, 0, 83, 100
1, 69123, Note_on_c, 0, 82, 100
1, 69171, Note_off_c, 0, 82, 100
1, 69171, Note_on_c, 0, 83, 100
1, 69555, Note_off_c, 0, 83, 100
1, 69555, Note_on_c, 0, 80, 100
1, 69603, Note_off_c, 0, 80, 100
1, 69603, Note_on_c, 0, 83, 100
1, 69667, Note_off_c, 0, 83, 100
1, 69667, Note_on_c, 0, 86, 100
1, 69731, Note_off_c, 0, 86, 100
1, 69731, Note_on_c, 0, 83, 100
1, 70227, Note_off_c, 0, 83, 100
1, 70227, Note_on_c, 0, 80, 100
1, 70275, Note_off_c, 0, 80, 100
1, 70275, Note_on_c, 0, 83, 100
1, 70323, Note_off_c, 0, 83, 100
1, 70323, Note_on_c, 0, 85, 100
1, 70371, Note_off_c, 0, 85, 100
1, 70371, Note_on_c, 0, 83, 100
1, 70515, Note_off_c, 0, 83, 100
1, 70515, Note_on_c, 0, 78, 100
1, 70611, Note_off_c, 0, 78, 100
1, 70611, Note_on_c, 0, 83, 100
1, 70659, Note_off_c, 0, 83, 100
1, 70659, Note_on_c, 0, 85, 100
1, 70707, Note_off_c, 0, 85, 100
1, 70707, Note_on_c, 0, 83, 100
1, 70851, Note_off_c, 0, 83, 100
1, 70851, Note_on_c, 0, 80, 100
1, 70947, Note_off_c, 0, 80, 100
1, 70947, Note_on_c, 0, 83, 100
1, 70995, Note_off_c, 0, 83, 100
1, 70995, Note_on_c, 0, 85, 100
1, 71043, Note_off_c, 0, 85, 100
1, 71043, Note_on_c, 0, 83, 100
1, 71203, Note_off_c, 0, 83, 100
1, 71203, Note_on_c, 0, 76, 100
1, 71267, Note_off_c, 0, 76, 100
1, 71267, Note_on_c, 0, 83, 100
1, 71331, Note_off_c, 0, 83, 100
1, 71331, Note_on_c, 0, 85, 100
1, 71427, Note_off_c, 0, 85, 100
1, 71427, Note_on_c, 0, 83, 100
1, 71571, Note_off_c, 0, 83, 100
1, 71571, Note_on_c, 0, 75, 100
1, 71619, Note_off_c, 0, 75, 100
1, 71619, Note_on_c, 0, 83, 100
1, 71667, Note_off_c, 0, 83, 100
1, 71667, Note_on_c, 0, 85, 100
1, 71715, Note_off_c, 0, 85, 100
1, 71715, Note_on_c, 0, 83, 100
1, 71843, Note_off_c, 0, 83, 100
1, 71843, Note_on_c, 0, 73, 100
1, 71907, Note_off_c, 0, 73, 100
1, 71907, Note_on_c, 0, 83, 100
1, 71971, Note_off_c, 0, 83, 100
1, 71971, Note_on_c, 0, 85, 100
1, 72035, Note_off_c, 0, 85, 100
1, 72035, Note_on_c, 0, 83, 100
1, 72099, Note_off_c, 0, 83, 100
1, 72099, Note_on_c, 0, 78, 100
1, 72195, Note_off_c, 0, 78, 100
1, 72195, Note_on_c, 0, 83, 100
1, 72243, Note_off_c, 0, 83, 100
1, 72243, Note_on_c, 0, 85, 100
1, 72291, Note_off_c, 0, 85, 100
1, 72291, Note_on_c, 0, 83, 100
1, 72339, Note_off_c, 0, 83, 100
1, 72339, Note_on_c, 0, 80, 100
1, 72387, Note_off_c, 0, 80, 100
1, 72387, Note_on_c, 0, 83, 100
1, 72435, Note_off_c, 0, 83, 100
1, 72435, Note_on_c, 0, 85, 100
1, 72483, Note_off_c, 0, 85, 100
1, 72483, Note_on_c, 0, 83, 100
1, 72531, Note_off_c, 0, 83, 100
1, 72531, Note_on_c, 0, 86, 100
1, 72579, Note_off_c, 0, 86, 100
1, 72579, Note_on_c, 0, 78, 100
1, 72675, Note_off_c, 0, 78, 100
1, 72675, Note_on_c, 0, 83, 100
1, 72739, Note_off_c, 0, 83, 100
1, 72739, Note_on_c, 0, 83, 100
1, 72803, Note_off_c, 0, 83, 100
1, 72803, Note_on_c, 0, 85, 100
1, 72866, Note_off_c, 0, 85, 100
1, 72866, Note_on_c, 0, 83, 100
1, 73730, Note_off_c, 0, 83, 100
1, 73730, Note_on_c, 0, 80, 100
1, 74113, Note_off_c, 0, 80, 100
1, 74113, Note_on_c, 0, 78, 100
1, 74161, Note_off_c, 0, 78, 100
1, 74161, Note_on_c, 0, 75, 100
1, 74209, Note_off_c, 0, 75, 100
1, 74209, Note_on_c, 0, 73, 100
1, 74257, Note_off_c, 0, 73, 100
1, 74257, Note_on_c, 0, 71, 100
1, 74401, Note_off_c, 0, 71, 100
1, 74401, Note_on_c, 0, 71, 100
1, 74593, Note_off_c, 0, 71, 100
1, 74593, Note_on_c, 0, 71, 100
1, 74849, Note_off_c, 0, 71, 100
1, 74849, Note_on_c, 0, 71, 100
1, 75264, Note_off_c, 0, 71, 100
1, 75264, Note_on_c, 0, 68, 100
1, 75360, Note_off_c, 0, 68, 100
1, 75360, Note_on_c, 0, 71, 100
1, 75504, Note_off_c, 0, 71, 100
1, 75504, Note_on_c, 0, 71, 100
1, 75600, Note_off_c, 0, 71, 100
1, 76032, Note_on_c, 0, 74, 100
1, 76128, Note_off_c, 0, 74, 100
1, 76128, Note_on_c, 0, 75, 100
1, 76464, Note_off_c, 0, 75, 100
1, 76464, Note_on_c, 0, 73, 100
1, 76512, Note_off_c, 0, 73, 100
1, 76512, Note_on_c, 0, 71, 100
1, 76704, Note_off_c, 0, 71, 100
1, 76704, Note_on_c, 0, 71, 100
1, 76896, Note_off_c, 0, 71, 100
1, 76896, Note_on_c, 0, 71, 100
1, 77088, Note_off_c, 0, 71, 100
1, 77088, Note_on_c, 0, 71, 100
1, 77664, Note_off_c, 0, 71, 100
1, 77664, Note_on_c, 0, 71, 100
1, 77760, Note_off_c, 0, 71, 100
1, 77760, Note_on_c, 0, 64, 100
1, 77808, Note_off_c, 0, 64, 100
1, 77808, Note_on_c, 0, 59, 100
1, 77904, Note_off_c, 0, 59, 100
1, 78384, Note_on_c, 0, 71, 100
1, 78768, Note_off_c, 0, 71, 100
1, 78768, Note_on_c, 0, 68, 100
1, 78816, Note_off_c, 0, 68, 100
1, 78816, Note_on_c, 0, 64, 100
1, 78960, Note_off_c, 0, 64, 100
1, 78960, Note_on_c, 0, 71, 100
1, 79276, Note_off_c, 0, 71, 100
1, 79276, Note_on_c, 0, 71, 100
1, 79314, Note_off_c, 0, 71, 100
1, 79314, Note_on_c, 0, 66, 100
1, 79352, Note_off_c, 0, 66, 100
1, 79352, Note_on_c, 0, 64, 100
1, 79448, Note_off_c, 0, 64, 100
1, 79774, Note_on_c, 0, 64, 100
1, 79869, Note_off_c, 0, 64, 100
1, 79869, Note_on_c, 0, 59, 100
1, 79965, Note_off_c, 0, 59, 100
1, 79965, Note_on_c, 0, 64, 100
1, 80293, Note_off_c, 0, 64, 100
1, 80293, End_track
0, 0, End_of_file
