0, 0, Header, 1, 1, 192
1, 0, Start_track
1, 0, Title_t, "Melody"
1, 0, Tempo, 320855
1, 0, Key_signature, 1, "major"
1, 0, Time_signature, 1, 2, 24, 8
1, 0, Note_on_c, 0, 63, 100
1, 816, Note_off_c, 0, 63, 100
1, 816, Note_on_c, 0, 64, 100
1, 864, Note_off_c, 0, 64, 100
1, 864, Note_on_c, 0, 65, 100
1, 912, Note_off_c, 0, 65, 100
1, 912, Note_on_c, 0, 66, 100
1, 1824, Note_off_c, 0, 66, 100
1, 1824, Note_on_c, 0, 64, 100
1, 4416, Note_off_c, 0, 64, 100
1, 4416, Note_on_c, 0, 71, 100
1, 4512, Note_off_c, 0, 71, 100
1, 4512, Note_on_c, 0, 69, 100
1, 4608, Note_off_c, 0, 69, 100
1, 4608, Note_on_c, 0, 70, 100
1, 4704, Note_off_c, 0, 70, 100
1, 4704, Note_on_c, 0, 71, 100
1, 5616, Note_off_c, 0, 71, 100
1, 5616, Note_on_c, 0, 69, 100
1, 5712, Note_off_c, 0, 69, 100
1, 5712, Note_on_c, 0, 67, 100
1, 5808, Note_off_c, 0, 67, 100
1, 5808, Note_on_c, 0, 70, 100
1, 5856, Note_off_c, 0, 70, 100
1, 5856, Note_on_c, 0, 71, 100
1, 7104, Note_off_c, 0, 71, 100
1, 7536, Note_on_c, 0, 69, 100
1, 7632, Note_off_c, 0, 69, 100
1, 7632, Note_on_c, 0, 67, 100
1, 7776, Note_off_c, 0, 67, 100
1, 7776, Note_on_c, 0, 69, 100
1, 7824, Note_off_c, 0, 69, 100
1, 7824, Note_on_c, 0, 71, 100
1, 9360, Note_off_c, 0, 71, 100
1, 9360, Note_on_c, 0, 69, 100
1, 9504, Note_off_c, 0, 69, 100
1, 9504, Note_on_c, 0, 67, 100
1, 9648, Note_off_c, 0, 67, 100
1, 9648, Note_on_c, 0, 64, 100
1, 9744, Note_off_c, 0, 64, 100
1, 9744, Note_on_c, 0, 67, 100
1, 9888, Note_off_c, 0, 67, 100
1, 9888, Note_on_c, 0, 64, 100
1, 11040, Note_off_c, 0, 64, 100
1, 11328, Note_on_c, 0, 62, 100
1, 11584, Note_off_c, 0, 62, 100
1, 11584, Note_on_c, 0, 59, 100
1, 12640, Note_off_c, 0, 59, 100
1, 12911, Note_on_c, 0, 57, 100
1, 13007, Note_off_c, 0, 57, 100
1, 13007, Note_on_c, 0, 55, 100
1, 13119, Note_off_c, 0, 55, 100
1, 13119, Note_on_c, 0, 57, 100
1, 13342, Note_off_c, 0, 57, 100
1, 13342, Note_on_c, 0, 55, 100
1, 13502, Note_off_c, 0, 55, 100
1, 13502, Note_on_c, 0, 52, 100
1, 13565, Note_off_c, 0, 52, 100
1, 13565, Note_on_c, 0, 55, 100
1, 13629, Note_off_c, 0, 55, 100
1, 13629, Note_on_c, 0, 52, 100
1, 14013, Note_off_c, 0, 52, 100
1, 14013, Note_on_c, 0, 55, 100
1, 14493, Note_off_c, 0, 55, 100
1, 14781, Note_on_c, 0, 55, 100
1, 14877, Note_off_c, 0, 55, 100
1, 14877, Note_on_c, 0, 52, 100
1, 14973, Note_off_c, 0, 52, 100
1, 14973, Note_on_c, 0, 55, 100
1, 15597, Note_off_c, 0, 55, 100
1, 15597, Note_on_c, 0, 52, 100
1, 15693, Note_off_c, 0, 52, 100
1, 15693, Note_on_c, 0, 57, 100
1, 15805, Note_off_c, 0, 57, 100
1, 15805, Note_on_c, 0, 59, 100
1, 15869, Note_off_c, 0, 59, 100
1, 15869, Note_on_c, 0, 57, 100
1, 16445, Note_off_c, 0, 57, 100
1, 16653, Note_on_c, 0, 59, 100
1, 16765, Note_off_c, 0, 59, 100
1, 16765, Note_on_c, 0, 62, 100
1, 16893, Note_off_c, 0, 62, 100
1, 16893, Note_on_c, 0, 67, 100
1, 16989, Note_off_c, 0, 67, 100
1, 16989, Note_on_c, 0, 64, 100
1, 17085, Note_off_c, 0, 64, 100
1, 17085, Note_on_c, 0, 69, 100
1, 17229, Note_off_c, 0, 69, 100
1, 17229, Note_on_c, 0, 67, 100
1, 17341, Note_off_c, 0, 67, 100
1, 17341, Note_on_c, 0, 64, 100
1, 17405, Note_off_c, 0, 64, 100
1, 17405, Note_on_c, 0, 67, 100
1, 17469, Note_off_c, 0, 67, 100
1, 17469, Note_on_c, 0, 64, 100
1, 17725, Note_off_c, 0, 64, 100
1, 17725, Note_on_c, 0, 64, 100
1, 17917, Note_off_c, 0, 64, 100
1, 17917, Note_on_c, 0, 64, 100
1, 18685, Note_off_c, 0, 64, 100
1, 19101, Note_on_c, 0, 67, 100
1, 19149, Note_off_c, 0, 67, 100
1, 19149, Note_on_c, 0, 68, 100
1, 19197, Note_off_c, 0, 68, 100
1, 19197, Note_on_c, 0, 69, 100
1, 20253, Note_off_c, 0, 69, 100
1, 20541, Note_on_c, 0, 69, 100
1, 20637, Note_off_c, 0, 69, 100
1, 20637, Note_on_c, 0, 67, 100
1, 20733, Note_off_c, 0, 67, 100
1, 20733, Note_on_c, 0, 64, 100
1, 20829, Note_off_c, 0, 64, 100
1, 20829, Note_on_c, 0, 67, 100
1, 20925, Note_off_c, 0, 67, 100
1, 20925, Note_on_c, 0, 64, 100
1, 21021, Note_off_c, 0, 64, 100
1, 21021, Note_on_c, 0, 67, 100
1, 21117, Note_off_c, 0, 67, 100
1, 21117, Note_on_c, 0, 68, 100
1, 21165, Note_off_c, 0, 68, 100
1, 21165, Note_on_c, 0, 69, 100
1, 21309, Note_off_c, 0, 69, 100
1, 21309, Note_on_c, 0, 69, 100
1, 21501, Note_off_c, 0, 69, 100
1, 21501, Note_on_c, 0, 69, 100
1, 21693, Note_off_c, 0, 69, 100
1, 21693, Note_on_c, 0, 67, 100
1, 21789, Note_off_c, 0, 67, 100
1, 21789, Note_on_c, 0, 68, 100
1, 21837, Note_off_c, 0, 68, 100
1, 21837, Note_on_c, 0, 69, 100
1, 22605, Note_off_c, 0, 69, 100
1, 22941, Note_on_c, 0, 69, 100
1, 23037, Note_off_c, 0, 69, 100
1, 23037, Note_on_c, 0, 67, 100
1, 23085, Note_off_c, 0, 67, 100
1, 23085, Note_on_c, 0, 64, 100
1, 23181, Note_off_c, 0, 64, 100
1, 23181, Note_on_c, 0, 67, 100
1, 23293, Note_off_c, 0, 67, 100
1, 23293, Note_on_c, 0, 64, 100
1, 23357, Note_off_c, 0, 64, 100
1, 23357, Note_on_c, 0, 67, 100
1, 23469, Note_off_c, 0, 67, 100
1, 23469, Note_on_c, 0, 68, 100
1, 23517, Note_off_c, 0, 68, 100
1, 23517, Note_on_c, 0, 69, 100
1, 24381, Note_off_c, 0, 69, 100
1, 24813, Note_on_c, 0, 69, 100
1, 24909, Note_off_c, 0, 69, 100
1, 24909, Note_on_c, 0, 67, 100
1, 25020, Note_off_c, 0, 67, 100
1, 25020, Note_on_c, 0, 64, 100
1, 25084, Note_off_c, 0, 64, 100
1, 25084, Note_on_c, 0, 67, 100
1, 25147, Note_off_c, 0, 67, 100
1, 25147, Note_on_c, 0, 64, 100
1, 25243, Note_off_c, 0, 64, 100
1, 25243, Note_on_c, 0, 67, 100
1, 25377, Note_off_c, 0, 67, 100
1, 25377, Note_on_c, 0, 68, 100
1, 25415, Note_off_c, 0, 68, 100
1, 25415, Note_on_c, 0, 69, 100
1, 25491, Note_off_c, 0, 69, 100
1, 25491, Note_on_c, 0, 67, 100
1, 25577, Note_off_c, 0, 67, 100
1, 25577, Note_on_c, 0, 68, 100
1, 25625, Note_off_c, 0, 68, 100
1, 25625, Note_on_c, 0, 69, 100
1, 25673, Note_off_c, 0, 69, 100
1, 25673, Note_on_c, 0, 71, 100
1, 25721, Note_off_c, 0, 71, 100
1, 25721, Note_on_c, 0, 69, 100
1, 26585, Note_off_c, 0, 69, 100
1, 27065, Note_on_c, 0, 69, 100
1, 27161, Note_off_c, 0, 69, 100
1, 27161, Note_on_c, 0, 67, 100
1, 27257, Note_off_c, 0, 67, 100
1, 27257, Note_on_c, 0, 69, 100
1, 27305, Note_off_c, 0, 69, 100
1, 27305, Note_on_c, 0, 71, 100
1, 28169, Note_off_c, 0, 71, 100
1, 28473, Note_on_c, 0, 69, 100
1, 28537, Note_off_c, 0, 69, 100
1, 28537, Note_on_c, 0, 67, 100
1, 28697, Note_off_c, 0, 67, 100
1, 28697, Note_on_c, 0, 69, 100
1, 28745, Note_off_c, 0, 69, 100
1, 28745, Note_on_c, 0, 71, 100
1, 28841, Note_off_c, 0, 71, 100
1, 28841, Note_on_c, 0, 71, 100
1, 28889, Note_off_c, 0, 71, 100
1, 28889, Note_on_c, 0, 72, 100
1, 28937, Note_off_c, 0, 72, 100
1, 28937, Note_on_c, 0, 74, 100
1, 29433, Note_off_c, 0, 74, 100
1, 29433, Note_on_c, 0, 71, 100
1, 30105, Note_off_c, 0, 71, 100
1, 30521, Note_on_c, 0, 69, 100
1, 30569, Note_off_c, 0, 69, 100
1, 30569, Note_on_c, 0, 71, 100
1, 30665, Note_off_c, 0, 71, 100
1, 30665, Note_on_c, 0, 64, 100
1, 30713, Note_off_c, 0, 64, 100
1, 30713, Note_on_c, 0, 67, 100
1, 30809, Note_off_c, 0, 67, 100
1, 30809, Note_on_c, 0, 69, 100
1, 30905, Note_off_c, 0, 69, 100
1, 30905, Note_on_c, 0, 71, 100
1, 31001, Note_off_c, 0, 71, 100
1, 31001, Note_on_c, 0, 74, 100
1, 31145, Note_off_c, 0, 74, 100
1, 31145, Note_on_c, 0, 74, 100
1, 31241, Note_off_c, 0, 74, 100
1, 31241, Note_on_c, 0, 71, 100
1, 31337, Note_off_c, 0, 71, 100
1, 31577, Note_on_c, 0, 69, 100
1, 31625, Note_off_c, 0, 69, 100
1, 31625, Note_on_c, 0, 71, 100
1, 31673, Note_off_c, 0, 71, 100
1, 31673, Note_on_c, 0, 64, 100
1, 31769, Note_off_c, 0, 64, 100
1, 31769, Note_on_c, 0, 67, 100
1, 31865, Note_off_c, 0, 67, 100
1, 31865, Note_on_c, 0, 69, 100
1, 31961, Note_off_c, 0, 69, 100
1, 31961, Note_on_c, 0, 71, 100
1, 32009, Note_off_c, 0, 71, 100
1, 32009, Note_on_c, 0, 74, 100
1, 32201, Note_off_c, 0, 74, 100
1, 32201, Note_on_c, 0, 74, 100
1, 32345, Note_off_c, 0, 74, 100
1, 32345, Note_on_c, 0, 69, 100
1, 32441, Note_off_c, 0, 69, 100
1, 32633, Note_on_c, 0, 69, 100
1, 32697, Note_off_c, 0, 69, 100
1, 32697, Note_on_c, 0, 71, 100
1, 32761, Note_off_c, 0, 71, 100
1, 32761, Note_on_c, 0, 64, 100
1, 32825, Note_off_c, 0, 64, 100
1, 32825, Note_on_c, 0, 67, 100
1, 32873, Note_off_c, 0, 67, 100
1, 32873, Note_on_c, 0, 69, 100
1, 32969, Note_off_c, 0, 69, 100
1, 32969, Note_on_c, 0, 71, 100
1, 33081, Note_off_c, 0, 71, 100
1, 33081, Note_on_c, 0, 74, 100
1, 33209, Note_off_c, 0, 74, 100
1, 33209, Note_on_c, 0, 74, 100
1, 33305, Note_off_c, 0, 74, 100
1, 33305, Note_on_c, 0, 71, 100
1, 33401, Note_off_c, 0, 71, 100
1, 33593, Note_on_c, 0, 69, 100
1, 33657, Note_off_c, 0, 69, 100
1, 33657, Note_on_c, 0, 71, 100
1, 33721, Note_off_c, 0, 71, 100
1, 33721, Note_on_c, 0, 64, 100
1, 33785, Note_off_c, 0, 64, 100
1, 33785, Note_on_c, 0, 67, 100
1, 33881, Note_off_c, 0, 67, 100
1, 33881, Note_on_c, 0, 67, 100
1, 33929, Note_off_c, 0, 67, 100
1, 33929, Note_on_c, 0, 69, 100
1, 33977, Note_off_c, 0, 69, 100
1, 33977, Note_on_c, 0, 71, 100
1, 34073, Note_off_c, 0, 71, 100
1, 34073, Note_on_c, 0, 74, 100
1, 34217, Note_off_c, 0, 74, 100
1, 34217, Note_on_c, 0, 79, 100
1, 34313, Note_off_c, 0, 79, 100
1, 34313, Note_on_c, 0, 74, 100
1, 34505, Note_off_c, 0, 74, 100
1, 34505, Note_on_c, 0, 71, 100
1, 34649, Note_off_c, 0, 71, 100
1, 34649, Note_on_c, 0, 69, 100
1, 34697, Note_off_c, 0, 69, 100
1, 34697, Note_on_c, 0, 71, 100
1, 34985, Note_off_c, 0, 71, 100
1, 34985, Note_on_c, 0, 69, 100
1, 35033, Note_off_c, 0, 69, 100
1, 35033, Note_on_c, 0, 71, 100
1, 35081, Note_off_c, 0, 71, 100
1, 35081, Note_on_c, 0, 64, 100
1, 35177, Note_off_c, 0, 64, 100
1, 35177, Note_on_c, 0, 67, 100
1, 35273, Note_off_c, 0, 67, 100
1, 35273, Note_on_c, 0, 69, 100
1, 35321, Note_off_c, 0, 69, 100
1, 35321, Note_on_c, 0, 71, 100
1, 35417, Note_off_c, 0, 71, 100
1, 35417, Note_on_c, 0, 74, 100
1, 35513, Note_off_c, 0, 74, 100
1, 35513, Note_on_c, 0, 79, 100
1, 35657, Note_off_c, 0, 79, 100
1, 35657, Note_on_c, 0, 74, 100
1, 35705, Note_off_c, 0, 74, 100
1, 35705, Note_on_c, 0, 71, 100
1, 35801, Note_off_c, 0, 71, 100
1, 35801, Note_on_c, 0, 69, 100
1, 35897, Note_off_c, 0, 69, 100
1, 35897, Note_on_c, 0, 71, 100
1, 36185, Note_off_c, 0, 71, 100
1, 36185, Note_on_c, 0, 69, 100
1, 36233, Note_off_c, 0, 69, 100
1, 36233, Note_on_c, 0, 71, 100
1, 36377, Note_off_c, 0, 71, 100
1, 36377, Note_on_c, 0, 67, 100
1, 36425, Note_off_c, 0, 67, 100
1, 36425, Note_on_c, 0, 69, 100
1, 36473, Note_off_c, 0, 69, 100
1, 36473, Note_on_c, 0, 71, 100
1, 36569, Note_off_c, 0, 71, 100
1, 36569, Note_on_c, 0, 74, 100
1, 36809, Note_off_c, 0, 74, 100
1, 36809, Note_on_c, 0, 71, 100
1, 36972, Note_off_c, 0, 71, 100
1, 36972, Note_on_c, 0, 78, 100
1, 37010, Note_off_c, 0, 78, 100
1, 37010, Note_on_c, 0, 79, 100
1, 37240, Note_off_c, 0, 79, 100
1, 37240, Note_on_c, 0, 74, 100
1, 37336, Note_off_c, 0, 74, 100
1, 37336, Note_on_c, 0, 71, 100
1, 37912, Note_off_c, 0, 71, 100
1, 37912, Note_on_c, 0, 71, 100
1, 38008, Note_off_c, 0, 71, 100
1, 38008, Note_on_c, 0, 69, 100
1, 38056, Note_off_c, 0, 69, 100
1, 38056, Note_on_c, 0, 64, 100
1, 38152, Note_off_c, 0, 64, 100
1, 38152, Note_on_c, 0, 67, 100
1, 38296, Note_off_c, 0, 67, 100
1, 38296, Note_on_c, 0, 69, 100
1, 38392, Note_off_c, 0, 69, 100
1, 38392, Note_on_c, 0, 63, 100
1, 38488, Note_off_c, 0, 63, 100
1, 38488, Note_on_c, 0, 67, 100
1, 38584, Note_off_c, 0, 67, 100
1, 38584, Note_on_c, 0, 61, 100
1, 38728, Note_off_c, 0, 61, 100
1, 38728, Note_on_c, 0, 66, 100
1, 38824, Note_off_c, 0, 66, 100
1, 38824, Note_on_c, 0, 63, 100
1, 38872, Note_off_c, 0, 63, 100
1, 38872, Note_on_c, 0, 59, 100
1, 38920, Note_off_c, 0, 59, 100
1, 38920, Note_on_c, 0, 57, 100
1, 39064, Note_off_c, 0, 57, 100
1, 39064, Note_on_c, 0, 59, 100
1, 39112, Note_off_c, 0, 59, 100
1, 39112, Note_on_c, 0, 51, 100
1, 39160, Note_off_c, 0, 51, 100
1, 39160, Note_on_c, 0, 49, 100
1, 39256, Note_off_c, 0, 49, 100
1, 39256, Note_on_c, 0, 57, 100
1, 39352, Note_off_c, 0, 57, 100
1, 39352, Note_on_c, 0, 53, 100
1, 39448, Note_off_c, 0, 53, 100
1, 39448, Note_on_c, 0, 51, 100
1, 39640, Note_off_c, 0, 51, 100
1, 39928, Note_on_c, 0, 57, 100
1, 39992, Note_off_c, 0, 57, 100
1, 39992, Note_on_c, 0, 55, 100
1, 40056, Note_off_c, 0, 55, 100
1, 40056, Note_on_c, 0, 57, 100
1, 40120, Note_off_c, 0, 57, 100
1, 40120, Note_on_c, 0, 59, 100
1, 40184, Note_off_c, 0, 59, 100
1, 40184, Note_on_c, 0, 61, 100
1, 40248, Note_off_c, 0, 61, 100
1, 40248, Note_on_c, 0, 59, 100
1, 40312, Note_off_c, 0, 59, 100
1, 40312, Note_on_c, 0, 61, 100
1, 40360, Note_off_c, 0, 61, 100
1, 40360, Note_on_c, 0, 63, 100
1, 40408, Note_off_c, 0, 63, 100
1, 40408, Note_on_c, 0, 66, 100
1, 40456, Note_off_c, 0, 66, 100
1, 40456, Note_on_c, 0, 63, 100
1, 40696, Note_off_c, 0, 63, 100
1, 40696, Note_on_c, 0, 67, 100
1, 40744, Note_off_c, 0, 67, 100
1, 40744, Note_on_c, 0, 69, 100
1, 40792, Note_off_c, 0, 69, 100
1, 40792, Note_on_c, 0, 71, 100
1, 40840, Note_off_c, 0, 71, 100
1, 40840, Note_on_c, 0, 73, 100
1, 40888, Note_off_c, 0, 73, 100
1, 40888, Note_on_c, 0, 69, 100
1, 40984, Note_off_c, 0, 69, 100
1, 41320, Note_on_c, 0, 67, 100
1, 41368, Note_off_c, 0, 67, 100
1, 41368, Note_on_c, 0, 68, 100
1, 41416, Note_off_c, 0, 68, 100
1, 41416, Note_on_c, 0, 69, 100
1, 41704, Note_off_c, 0, 69, 100
1, 41704, Note_on_c, 0, 67, 100
1, 41752, Note_off_c, 0, 67, 100
1, 41752, Note_on_c, 0, 63, 100
1, 41800, Note_off_c, 0, 63, 100
1, 41800, Note_on_c, 0, 67, 100
1, 41848, Note_off_c, 0, 67, 100
1, 41848, Note_on_c, 0, 63, 100
1, 41912, Note_off_c, 0, 63, 100
1, 41912, Note_on_c, 0, 61, 100
1, 41976, Note_off_c, 0, 61, 100
1, 41976, Note_on_c, 0, 55, 100
1, 42040, Note_off_c, 0, 55, 100
1, 42040, Note_on_c, 0, 63, 100
1, 42088, Note_off_c, 0, 63, 100
1, 42088, Note_on_c, 0, 59, 100
1, 42136, Note_off_c, 0, 59, 100
1, 42136, Note_on_c, 0, 55, 100
1, 42184, Note_off_c, 0, 55, 100
1, 42184, Note_on_c, 0, 51, 100
1, 42232, Note_off_c, 0, 51, 100
1, 42232, Note_on_c, 0, 57, 100
1, 42296, Note_off_c, 0, 57, 100
1, 42296, Note_on_c, 0, 53, 100
1, 42360, Note_off_c, 0, 53, 100
1, 42360, Note_on_c, 0, 49, 100
1, 42424, Note_off_c, 0, 49, 100
1, 42424, Note_on_c, 0, 51, 100
1, 42488, Note_off_c, 0, 51, 100
1, 42488, Note_on_c, 0, 54, 100
1, 42552, Note_off_c, 0, 54, 100
1, 42552, Note_on_c, 0, 51, 100
1, 42808, Note_off_c, 0, 51, 100
1, 42808, Note_on_c, 0, 51, 100
1, 42904, Note_off_c, 0, 51, 100
1, 42904, Note_on_c, 0, 55, 100
1, 43000, Note_off_c, 0, 55, 100
1, 43000, Note_on_c, 0, 57, 100
1, 43096, Note_off_c, 0, 57, 100
1, 43288, Note_on_c, 0, 57, 100
1, 43336, Note_off_c, 0, 57, 100
1, 43336, Note_on_c, 0, 63, 100
1, 43448, Note_off_c, 0, 63, 100
1, 43448, Note_on_c, 0, 59, 100
1, 43832, Note_off_c, 0, 59, 100
1, 43832, Note_on_c, 0, 59, 100
1, 43896, Note_off_c, 0, 59, 100
1, 43896, Note_on_c, 0, 63, 100
1, 43960, Note_off_c, 0, 63, 100
1, 43960, Note_on_c, 0, 67, 100
1, 44216, Note_off_c, 0, 67, 100
1, 44216, Note_on_c, 0, 65, 100
1, 44280, Note_off_c, 0, 65, 100
1, 44280, Note_on_c, 0, 61, 100
1, 44344, Note_off_c, 0, 61, 100
1, 44344, Note_on_c, 0, 65, 100
1, 44408, Note_off_c, 0, 65, 100
1, 44408, Note_on_c, 0, 63, 100
1, 44472, Note_off_c, 0, 63, 100
1, 44472, Note_on_c, 0, 59, 100
1, 44728, Note_off_c, 0, 59, 100
1, 44728, Note_on_c, 0, 57, 100
1, 44824, Note_off_c, 0, 57, 100
1, 44824, Note_on_c, 0, 53, 100
1, 44872, Note_off_c, 0, 53, 100
1, 44872, Note_on_c, 0, 51, 100
1, 44920, Note_off_c, 0, 51, 100
1, 44920, Note_on_c, 0, 55, 100
1, 45016, Note_off_c, 0, 55, 100
1, 45016, Note_on_c, 0, 49, 100
1, 45064, Note_off_c, 0, 49, 100
1, 45064, Note_on_c, 0, 51, 100
1, 45112, Note_off_c, 0, 51, 100
1, 45112, Note_on_c, 0, 53, 100
1, 45208, Note_off_c, 0, 53, 100
1, 45208, Note_on_c, 0, 51, 100
1, 45304, Note_off_c, 0, 51, 100
1, 45304, Note_on_c, 0, 55, 100
1, 45400, Note_off_c, 0, 55, 100
1, 45592, Note_on_c, 0, 55, 100
1, 45688, Note_off_c, 0, 55, 100
1, 45688, Note_on_c, 0, 53, 100
1, 45784, Note_off_c, 0, 53, 100
1, 45784, Note_on_c, 0, 57, 100
1, 46072, Note_off_c, 0, 57, 100
1, 46072, Note_on_c, 0, 55, 100
1, 46120, Note_off_c, 0, 55, 100
1, 46120, Note_on_c, 0, 51, 100
1, 46216, Note_off_c, 0, 51, 100
1, 46216, Note_on_c, 0, 55, 100
1, 46264, Note_off_c, 0, 55, 100
1, 46264, Note_on_c, 0, 53, 100
1, 46360, Note_off_c, 0, 53, 100
1, 46648, Note_on_c, 0, 57, 100
1, 46712, Note_off_c, 0, 57, 100
1, 46712, Note_on_c, 0, 62, 100
1, 46776, Note_off_c, 0, 62, 100
1, 46776, Note_on_c, 0, 65, 100
1, 46840, Note_off_c, 0, 65, 100
1, 46840, Note_on_c, 0, 57, 100
1, 46904, Note_off_c, 0, 57, 100
1, 46904, Note_on_c, 0, 63, 100
1, 46968, Note_off_c, 0, 63, 100
1, 46968, Note_on_c, 0, 59, 100
1, 47056, Note_off_c, 0, 59, 100
1, 47056, Note_on_c, 0, 63, 100
1, 47128, Note_off_c, 0, 63, 100
1, 47128, Note_on_c, 0, 67, 100
1, 47176, Note_off_c, 0, 67, 100
1, 47176, Note_on_c, 0, 69, 100
1, 47200, Note_off_c, 0, 69, 100
1, 47200, Note_on_c, 0, 70, 100
1, 47224, Note_off_c, 0, 70, 100
1, 47224, Note_on_c, 0, 70, 100
1, 47320, Note_off_c, 0, 70, 100
1, 47320, Note_on_c, 0, 67, 100
1, 47368, Note_off_c, 0, 67, 100
1, 47368, Note_on_c, 0, 69, 100
1, 47416, Note_off_c, 0, 69, 100
1, 47416, Note_on_c, 0, 71, 100
1, 47480, Note_off_c, 0, 71, 100
1, 47480, Note_on_c, 0, 74, 100
1, 47544, Note_off_c, 0, 74, 100
1, 47544, Note_on_c, 0, 69, 100
1, 47640, Note_off_c, 0, 69, 100
1, 47896, Note_on_c, 0, 69, 100
1, 47992, Note_off_c, 0, 69, 100
1, 47992, Note_on_c, 0, 67, 100
1, 48088, Note_off_c, 0, 67, 100
1, 48088, Note_on_c, 0, 63, 100
1, 48184, Note_off_c, 0, 63, 100
1, 48184, Note_on_c, 0, 66, 100
1, 48232, Note_off_c, 0, 66, 100
1, 48232, Note_on_c, 0, 67, 100
1, 48664, Note_off_c, 0, 67, 100
1, 48664, Note_on_c, 0, 64, 100
1, 48760, Note_off_c, 0, 64, 100
1, 48760, Note_on_c, 0, 59, 100
1, 48856, Note_off_c, 0, 59, 100
1, 49048, Note_on_c, 0, 59, 100
1, 49144, Note_off_c, 0, 59, 100
1, 49144, Note_on_c, 0, 57, 100
1, 49208, Note_off_c, 0, 57, 100
1, 49208, Note_on_c, 0, 54, 100
1, 49271, Note_off_c, 0, 54, 100
1, 49271, Note_on_c, 0, 59, 100
1, 49335, Note_off_c, 0, 59, 100
1, 49335, Note_on_c, 0, 53, 100
1, 49479, Note_off_c, 0, 53, 100
1, 49479, Note_on_c, 0, 52, 100
1, 49527, Note_off_c, 0, 52, 100
1, 49527, Note_on_c, 0, 55, 100
1, 49623, Note_off_c, 0, 55, 100
1, 49815, Note_on_c, 0, 55, 100
1, 49911, Note_off_c, 0, 55, 100
1, 49911, Note_on_c, 0, 60, 100
1, 50007, Note_off_c, 0, 60, 100
1, 50007, Note_on_c, 0, 64, 100
1, 50055, Note_off_c, 0, 64, 100
1, 50055, Note_on_c, 0, 67, 100
1, 50199, Note_off_c, 0, 67, 100
1, 50199, Note_on_c, 0, 67, 100
1, 50247, Note_off_c, 0, 67, 100
1, 50247, Note_on_c, 0, 63, 100
1, 50391, Note_off_c, 0, 63, 100
1, 50391, Note_on_c, 0, 61, 100
1, 50439, Note_off_c, 0, 61, 100
1, 50439, Note_on_c, 0, 66, 100
1, 50487, Note_off_c, 0, 66, 100
1, 50487, Note_on_c, 0, 63, 100
1, 50583, Note_off_c, 0, 63, 100
1, 50583, Note_on_c, 0, 58, 100
1, 50823, Note_off_c, 0, 58, 100
1, 50823, Note_on_c, 0, 58, 100
1, 50919, Note_off_c, 0, 58, 100
1, 50919, Note_on_c, 0, 60, 100
1, 50967, Note_off_c, 0, 60, 100
1, 50967, Note_on_c, 0, 63, 100
1, 51015, Note_off_c, 0, 63, 100
1, 51015, Note_on_c, 0, 67, 100
1, 51063, Note_off_c, 0, 67, 100
1, 51063, Note_on_c, 0, 63, 100
1, 51127, Note_off_c, 0, 63, 100
1, 51127, Note_on_c, 0, 68, 100
1, 51191, Note_off_c, 0, 68, 100
1, 51191, Note_on_c, 0, 72, 100
1, 51255, Note_off_c, 0, 72, 100
1, 51255, Note_on_c, 0, 69, 100
1, 51351, Note_off_c, 0, 69, 100
1, 51543, Note_on_c, 0, 71, 100
1, 51639, Note_off_c, 0, 71, 100
1, 51639, Note_on_c, 0, 69, 100
1, 51703, Note_off_c, 0, 69, 100
1, 51703, Note_on_c, 0, 66, 100
1, 51735, Note_off_c, 0, 66, 100
1, 51735, Note_on_c, 0, 69, 100
1, 51767, Note_off_c, 0, 69, 100
1, 51767, Note_on_c, 0, 66, 100
1, 51799, Note_off_c, 0, 66, 100
1, 51799, Note_on_c, 0, 63, 100
1, 51879, Note_off_c, 0, 63, 100
1, 51879, Note_on_c, 0, 61, 100
1, 51927, Note_off_c, 0, 61, 100
1, 51927, Note_on_c, 0, 66, 100
1, 51975, Note_off_c, 0, 66, 100
1, 51975, Note_on_c, 0, 63, 100
1, 52023, Note_off_c, 0, 63, 100
1, 52023, Note_on_c, 0, 59, 100
1, 52099, Note_off_c, 0, 59, 100
1, 52099, Note_on_c, 0, 57, 100
1, 52137, Note_off_c, 0, 57, 100
1, 52137, Note_on_c, 0, 54, 100
1, 52175, Note_off_c, 0, 54, 100
1, 52175, Note_on_c, 0, 59, 100
1, 52213, Note_off_c, 0, 59, 100
1, 52213, Note_on_c, 0, 57, 100
1, 52501, Note_off_c, 0, 57, 100
1, 52789, Note_on_c, 0, 57, 100
1, 52885, Note_off_c, 0, 57, 100
1, 52885, Note_on_c, 0, 55, 100
1, 52981, Note_off_c, 0, 55, 100
1, 52981, Note_on_c, 0, 52, 100
1, 53029, Note_off_c, 0, 52, 100
1, 53029, Note_on_c, 0, 57, 100
1, 53125, Note_off_c, 0, 57, 100
1, 53125, Note_on_c, 0, 55, 100
1, 53173, Note_off_c, 0, 55, 100
1, 53173, Note_on_c, 0, 51, 100
1, 53237, Note_off_c, 0, 51, 100
1, 53237, Note_on_c, 0, 49, 100
1, 53301, Note_off_c, 0, 49, 100
1, 53301, Note_on_c, 0, 51, 100
1, 53557, Note_off_c, 0, 51, 100
1, 53557, Note_on_c, 0, 56, 100
1, 53621, Note_off_c, 0, 56, 100
1, 53621, Note_on_c, 0, 58, 100
1, 53685, Note_off_c, 0, 58, 100
1, 53685, Note_on_c, 0, 53, 100
1, 53749, Note_off_c, 0, 53, 100
1, 53749, Note_on_c, 0, 51, 100
1, 53813, Note_off_c, 0, 51, 100
1, 53813, Note_on_c, 0, 50, 100
1, 53877, Note_off_c, 0, 50, 100
1, 53877, Note_on_c, 0, 53, 100
1, 53941, Note_off_c, 0, 53, 100
1, 53941, Note_on_c, 0, 50, 100
1, 54005, Note_off_c, 0, 50, 100
1, 54005, Note_on_c, 0, 53, 100
1, 54069, Note_off_c, 0, 53, 100
1, 54069, Note_on_c, 0, 58, 100
1, 54133, Note_off_c, 0, 58, 100
1, 54133, Note_on_c, 0, 61, 100
1, 54165, Note_off_c, 0, 61, 100
1, 54165, Note_on_c, 0, 54, 100
1, 54197, Note_off_c, 0, 54, 100
1, 54197, Note_on_c, 0, 58, 100
1, 54261, Note_off_c, 0, 58, 100
1, 54261, Note_on_c, 0, 60, 100
1, 54293, Note_off_c, 0, 60, 100
1, 54293, Note_on_c, 0, 62, 100
1, 54373, Note_off_c, 0, 62, 100
1, 54373, Note_on_c, 0, 67, 100
1, 54421, Note_off_c, 0, 67, 100
1, 54421, Note_on_c, 0, 63, 100
1, 54469, Note_off_c, 0, 63, 100
1, 54469, Note_on_c, 0, 61, 100
1, 54517, Note_off_c, 0, 61, 100
1, 54517, Note_on_c, 0, 59, 100
1, 54565, Note_off_c, 0, 59, 100
1, 54565, Note_on_c, 0, 56, 100
1, 54613, Note_off_c, 0, 56, 100
1, 54613, Note_on_c, 0, 54, 100
1, 54661, Note_off_c, 0, 54, 100
1, 54661, Note_on_c, 0, 56, 100
1, 54709, Note_off_c, 0, 56, 100
1, 54709, Note_on_c, 0, 59, 100
1, 54773, Note_off_c, 0, 59, 100
1, 54773, Note_on_c, 0, 63, 100
1, 54837, Note_off_c, 0, 63, 100
1, 54837, Note_on_c, 0, 58, 100
1, 54933, Note_off_c, 0, 58, 100
1, 55141, Note_on_c, 0, 58, 100
1, 55189, Note_off_c, 0, 58, 100
1, 55189, Note_on_c, 0, 61, 100
1, 55237, Note_off_c, 0, 61, 100
1, 55237, Note_on_c, 0, 66, 100
1, 55312, Note_off_c, 0, 66, 100
1, 55312, Note_on_c, 0, 64, 100
1, 55366, Note_off_c, 0, 64, 100
1, 55366, Note_on_c, 0, 61, 100
1, 55420, Note_off_c, 0, 61, 100
1, 55420, Note_on_c, 0, 64, 100
1, 55447, Note_off_c, 0, 64, 100
1, 55447, Note_on_c, 0, 67, 100
1, 55522, Note_off_c, 0, 67, 100
1, 55522, Note_on_c, 0, 64, 100
1, 55570, Note_off_c, 0, 64, 100
1, 55570, Note_on_c, 0, 67, 100
1, 55618, Note_off_c, 0, 67, 100
1, 55618, Note_on_c, 0, 71, 100
1, 55666, Note_off_c, 0, 71, 100
1, 55666, Note_on_c, 0, 73, 100
1, 55762, Note_off_c, 0, 73, 100
1, 56002, Note_on_c, 0, 71, 100
1, 56098, Note_off_c, 0, 71, 100
1, 56098, Note_on_c, 0, 73, 100
1, 56194, Note_off_c, 0, 73, 100
1, 56194, Note_on_c, 0, 69, 100
1, 56242, Note_off_c, 0, 69, 100
1, 56242, Note_on_c, 0, 66, 100
1, 56338, Note_off_c, 0, 66, 100
1, 56338, Note_on_c, 0, 62, 100
1, 56530, Note_off_c, 0, 62, 100
1, 56530, Note_on_c, 0, 69, 100
1, 56578, Note_off_c, 0, 69, 100
1, 56578, Note_on_c, 0, 71, 100
1, 56690, Note_off_c, 0, 71, 100
1, 56690, Note_on_c, 0, 73, 100
1, 56818, Note_off_c, 0, 73, 100
1, 56818, Note_on_c, 0, 71, 100
1, 56866, Note_off_c, 0, 71, 100
1, 56866, Note_on_c, 0, 69, 100
1, 56914, Note_off_c, 0, 69, 100
1, 56914, Note_on_c, 0, 65, 100
1, 56962, Note_off_c, 0, 65, 100
1, 56962, Note_on_c, 0, 62, 100
1, 57010, Note_off_c, 0, 62, 100
1, 57010, Note_on_c, 0, 65, 100
1, 57058, Note_off_c, 0, 65, 100
1, 57058, Note_on_c, 0, 69, 100
1, 57106, Note_off_c, 0, 69, 100
1, 57106, Note_on_c, 0, 71, 100
1, 57154, Note_off_c, 0, 71, 100
1, 57154, Note_on_c, 0, 73, 100
1, 57298, Note_off_c, 0, 73, 100
1, 57298, Note_on_c, 0, 71, 100
1, 57346, Note_off_c, 0, 71, 100
1, 57346, Note_on_c, 0, 69, 100
1, 57394, Note_off_c, 0, 69, 100
1, 57394, Note_on_c, 0, 65, 100
1, 57442, Note_off_c, 0, 65, 100
1, 57442, Note_on_c, 0, 62, 100
1, 57682, Note_off_c, 0, 62, 100
1, 57682, Note_on_c, 0, 69, 100
1, 57730, Note_off_c, 0, 69, 100
1, 57730, Note_on_c, 0, 71, 100
1, 57778, Note_off_c, 0, 71, 100
1, 57778, Note_on_c, 0, 68, 100
1, 57874, Note_off_c, 0, 68, 100
1, 57874, Note_on_c, 0, 70, 100
1, 57922, Note_off_c, 0, 70, 100
1, 57922, Note_on_c, 0, 72, 100
1, 57970, Note_off_c, 0, 72, 100
1, 57970, Note_on_c, 0, 69, 100
1, 58018, Note_off_c, 0, 69, 100
1, 58018, Note_on_c, 0, 72, 100
1, 58066, Note_off_c, 0, 72, 100
1, 58066, Note_on_c, 0, 69, 100
1, 58114, Note_off_c, 0, 69, 100
1, 58114, Note_on_c, 0, 71, 100
1, 58200, Note_off_c, 0, 71, 100
1, 58200, Note_on_c, 0, 73, 100
1, 58276, Note_off_c, 0, 73, 100
1, 58276, Note_on_c, 0, 71, 100
1, 58314, Note_off_c, 0, 71, 100
1, 58314, Note_on_c, 0, 69, 100
1, 58352, Note_off_c, 0, 69, 100
1, 58352, Note_on_c, 0, 66, 100
1, 58400, Note_off_c, 0, 66, 100
1, 58400, Note_on_c, 0, 62, 100
1, 58640, Note_off_c, 0, 62, 100
1, 58640, Note_on_c, 0, 69, 100
1, 58736, Note_off_c, 0, 69, 100
1, 58736, Note_on_c, 0, 71, 100
1, 58784, Note_off_c, 0, 71, 100
1, 58784, Note_on_c, 0, 68, 100
1, 58832, Note_off_c, 0, 68, 100
1, 58832, Note_on_c, 0, 65, 100
1, 58880, Note_off_c, 0, 65, 100
1, 58880, Note_on_c, 0, 69, 100
1, 58976, Note_off_c, 0, 69, 100
1, 58976, Note_on_c, 0, 71, 100
1, 59024, Note_off_c, 0, 71, 100
1, 59024, Note_on_c, 0, 73, 100
1, 59184, Note_off_c, 0, 73, 100
1, 59184, Note_on_c, 0, 71, 100
1, 59312, Note_off_c, 0, 71, 100
1, 59312, Note_on_c, 0, 73, 100
1, 59408, Note_off_c, 0, 73, 100
1, 59408, Note_on_c, 0, 69, 100
1, 59456, Note_off_c, 0, 69, 100
1, 59456, Note_on_c, 0, 65, 100
1, 59504, Note_off_c, 0, 65, 100
1, 59504, Note_on_c, 0, 63, 100
1, 59552, Note_off_c, 0, 63, 100
1, 59552, Note_on_c, 0, 62, 100
1, 59792, Note_off_c, 0, 62, 100
1, 59792, Note_on_c, 0, 69, 100
1, 59840, Note_off_c, 0, 69, 100
1, 59840, Note_on_c, 0, 70, 100
1, 59936, Note_off_c, 0, 70, 100
1, 59936, Note_on_c, 0, 68, 100
1, 59984, Note_off_c, 0, 68, 100
1, 59984, Note_on_c, 0, 65, 100
1, 60032, Note_off_c, 0, 65, 100
1, 60032, Note_on_c, 0, 69, 100
1, 60080, Note_off_c, 0, 69, 100
1, 60080, Note_on_c, 0, 71, 100
1, 60176, Note_off_c, 0, 71, 100
1, 60176, Note_on_c, 0, 73, 100
1, 60272, Note_off_c, 0, 73, 100
1, 60272, Note_on_c, 0, 69, 100
1, 60464, Note_off_c, 0, 69, 100
1, 60464, Note_on_c, 0, 72, 100
1, 60496, Note_off_c, 0, 72, 100
1, 60496, Note_on_c, 0, 73, 100
1, 60592, Note_off_c, 0, 73, 100
1, 60592, Note_on_c, 0, 71, 100
1, 60624, Note_off_c, 0, 71, 100
1, 60624, Note_on_c, 0, 69, 100
1, 60656, Note_off_c, 0, 69, 100
1, 60656, Note_on_c, 0, 67, 100
1, 60704, Note_off_c, 0, 67, 100
1, 60704, Note_on_c, 0, 65, 100
1, 60752, Note_off_c, 0, 65, 100
1, 60752, Note_on_c, 0, 62, 100
1, 61040, Note_off_c, 0, 62, 100
1, 61040, Note_on_c, 0, 69, 100
1, 61078, Note_off_c, 0, 69, 100
1, 61078, Note_on_c, 0, 71, 100
1, 61116, Note_off_c, 0, 71, 100
1, 61116, Note_on_c, 0, 67, 100
1, 61192, Note_off_c, 0, 67, 100
1, 61192, Note_on_c, 0, 65, 100
1, 61470, Note_off_c, 0, 65, 100
1, 61470, Note_on_c, 0, 69, 100
1, 61518, Note_off_c, 0, 69, 100
1, 61518, Note_on_c, 0, 71, 100
1, 61566, Note_off_c, 0, 71, 100
1, 61566, Note_on_c, 0, 73, 100
1, 61710, Note_off_c, 0, 73, 100
1, 61710, Note_on_c, 0, 71, 100
1, 61806, Note_off_c, 0, 71, 100
1, 61806, Note_on_c, 0, 69, 100
1, 61870, Note_off_c, 0, 69, 100
1, 61870, Note_on_c, 0, 64, 100
1, 61934, Note_off_c, 0, 64, 100
1, 61934, Note_on_c, 0, 69, 100
1, 61998, Note_off_c, 0, 69, 100
1, 61998, Note_on_c, 0, 63, 100
1, 62142, Note_off_c, 0, 63, 100
1, 62142, Note_on_c, 0, 67, 100
1, 62190, Note_off_c, 0, 67, 100
1, 62190, Note_on_c, 0, 65, 100
1, 62254, Note_off_c, 0, 65, 100
1, 62254, Note_on_c, 0, 62, 100
1, 62318, Note_off_c, 0, 62, 100
1, 62318, Note_on_c, 0, 58, 100
1, 62382, Note_off_c, 0, 58, 100
1, 62382, Note_on_c, 0, 65, 100
1, 62526, Note_off_c, 0, 65, 100
1, 62526, Note_on_c, 0, 63, 100
1, 62574, Note_off_c, 0, 63, 100
1, 62574, Note_on_c, 0, 59, 100
1, 62670, Note_off_c, 0, 59, 100
1, 62670, Note_on_c, 0, 56, 100
1, 62766, Note_off_c, 0, 56, 100
1, 63006, Note_on_c, 0, 59, 100
1, 63102, Note_off_c, 0, 59, 100
1, 63102, Note_on_c, 0, 63, 100
1, 63198, Note_off_c, 0, 63, 100
1, 63198, Note_on_c, 0, 61, 100
1, 63246, Note_off_c, 0, 61, 100
1, 63246, Note_on_c, 0, 59, 100
1, 63294, Note_off_c, 0, 59, 100
1, 63294, Note_on_c, 0, 56, 100
1, 63342, Note_off_c, 0, 56, 100
1, 63342, Note_on_c, 0, 53, 100
1, 63438, Note_off_c, 0, 53, 100
1, 63438, Note_on_c, 0, 56, 100
1, 63486, Note_off_c, 0, 56, 100
1, 63486, Note_on_c, 0, 59, 100
1, 63534, Note_off_c, 0, 59, 100
1, 63534, Note_on_c, 0, 63, 100
1, 63582, Note_off_c, 0, 63, 100
1, 63582, Note_on_c, 0, 61, 100
1, 63630, Note_off_c, 0, 61, 100
1, 63630, Note_on_c, 0, 58, 100
1, 63678, Note_off_c, 0, 58, 100
1, 63678, Note_on_c, 0, 54, 100
1, 63774, Note_off_c, 0, 54, 100
1, 63966, Note_on_c, 0, 56, 100
1, 64014, Note_off_c, 0, 56, 100
1, 64014, Note_on_c, 0, 58, 100
1, 64062, Note_off_c, 0, 58, 100
1, 64062, Note_on_c, 0, 61, 100
1, 64254, Note_off_c, 0, 61, 100
1, 64254, Note_on_c, 0, 59, 100
1, 64302, Note_off_c, 0, 59, 100
1, 64302, Note_on_c, 0, 57, 100
1, 64326, Note_off_c, 0, 57, 100
1, 64326, Note_on_c, 0, 56, 100
1, 64350, Note_off_c, 0, 56, 100
1, 64350, Note_on_c, 0, 55, 100
1, 64374, Note_off_c, 0, 55, 100
1, 64374, Note_on_c, 0, 52, 100
1, 64422, Note_off_c, 0, 52, 100
1, 64422, Note_on_c, 0, 55, 100
1, 64470, Note_off_c, 0, 55, 100
1, 64470, Note_on_c, 0, 57, 100
1, 64494, Note_off_c, 0, 57, 100
1, 64494, Note_on_c, 0, 59, 100
1, 64558, Note_off_c, 0, 59, 100
1, 64558, Note_on_c, 0, 57, 100
1, 64622, Note_off_c, 0, 57, 100
1, 64622, Note_on_c, 0, 53, 100
1, 64686, Note_off_c, 0, 53, 100
1, 64686, Note_on_c, 0, 50, 100
1, 64750, Note_off_c, 0, 50, 100
1, 64750, Note_on_c, 0, 55, 100
1, 64814, Note_off_c, 0, 55, 100
1, 64814, Note_on_c, 0, 53, 100
1, 64910, Note_off_c, 0, 53, 100
1, 65118, Note_on_c, 0, 57, 100
1, 65214, Note_off_c, 0, 57, 100
1, 65214, Note_on_c, 0, 55, 100
1, 65262, Note_off_c, 0, 55, 100
1, 65262, Note_on_c, 0, 51, 100
1, 65358, Note_off_c, 0, 51, 100
1, 65358, Note_on_c, 0, 55, 100
1, 65454, Note_off_c, 0, 55, 100
1, 65454, Note_on_c, 0, 59, 100
1, 65518, Note_off_c, 0, 59, 100
1, 65518, Note_on_c, 0, 63, 100
1, 65582, Note_off_c, 0, 63, 100
1, 65582, Note_on_c, 0, 59, 100
1, 65646, Note_off_c, 0, 59, 100
1, 65646, Note_on_c, 0, 55, 100
1, 65694, Note_off_c, 0, 55, 100
1, 65694, Note_on_c, 0, 57, 100
1, 65742, Note_off_c, 0, 57, 100
1, 65742, Note_on_c, 0, 59, 100
1, 65790, Note_off_c, 0, 59, 100
1, 65790, Note_on_c, 0, 60, 100
1, 65838, Note_off_c, 0, 60, 100
1, 65838, Note_on_c, 0, 63, 100
1, 65876, Note_off_c, 0, 63, 100
1, 65876, Note_on_c, 0, 68, 100
1, 65914, Note_off_c, 0, 68, 100
1, 65914, Note_on_c, 0, 69, 100
1, 65990, Note_off_c, 0, 69, 100
1, 65990, Note_on_c, 0, 69, 100
1, 66076, Note_off_c, 0, 69, 100
1, 66076, Note_on_c, 0, 67, 100
1, 66124, Note_off_c, 0, 67, 100
1, 66124, Note_on_c, 0, 68, 100
1, 66172, Note_off_c, 0, 68, 100
1, 66172, Note_on_c, 0, 67, 100
1, 66220, Note_off_c, 0, 67, 100
1, 66220, Note_on_c, 0, 63, 100
1, 66284, Note_off_c, 0, 63, 100
1, 66284, Note_on_c, 0, 60, 100
1, 66348, Note_off_c, 0, 60, 100
1, 66348, Note_on_c, 0, 56, 100
1, 66412, Note_off_c, 0, 56, 100
1, 66412, Note_on_c, 0, 63, 100
1, 66476, Note_off_c, 0, 63, 100
1, 66476, Note_on_c, 0, 58, 100
1, 66572, Note_off_c, 0, 58, 100
1, 66892, Note_on_c, 0, 58, 100
1, 67132, Note_off_c, 0, 58, 100
1, 67132, Note_on_c, 0, 55, 100
1, 67244, Note_off_c, 0, 55, 100
1, 67244, Note_on_c, 0, 56, 100
1, 67308, Note_off_c, 0, 56, 100
1, 67308, Note_on_c, 0, 51, 100
1, 67372, Note_off_c, 0, 51, 100
1, 67372, Note_on_c, 0, 48, 100
1, 67436, Note_off_c, 0, 48, 100
1, 67436, Note_on_c, 0, 55, 100
1, 67500, Note_off_c, 0, 55, 100
1, 67500, Note_on_c, 0, 56, 100
1, 67756, Note_off_c, 0, 56, 100
1, 67756, Note_on_c, 0, 56, 100
1, 67820, Note_off_c, 0, 56, 100
1, 67820, Note_on_c, 0, 58, 100
1, 67884, Note_off_c, 0, 58, 100
1, 67884, Note_on_c, 0, 60, 100
1, 67948, Note_off_c, 0, 60, 100
1, 67948, Note_on_c, 0, 63, 100
1, 67996, Note_off_c, 0, 63, 100
1, 67996, Note_on_c, 0, 59, 100
1, 68044, Note_off_c, 0, 59, 100
1, 68044, Note_on_c, 0, 58, 100
1, 68092, Note_off_c, 0, 58, 100
1, 68092, Note_on_c, 0, 57, 100
1, 68140, Note_off_c, 0, 57, 100
1, 68140, Note_on_c, 0, 59, 100
1, 68204, Note_off_c, 0, 59, 100
1, 68204, Note_on_c, 0, 61, 100
1, 68268, Note_off_c, 0, 61, 100
1, 68268, Note_on_c, 0, 63, 100
1, 68332, Note_off_c, 0, 63, 100
1, 68332, Note_on_c, 0, 64, 100
1, 68380, Note_off_c, 0, 64, 100
1, 68380, Note_on_c, 0, 66, 100
1, 68428, Note_off_c, 0, 66, 100
1, 68428, Note_on_c, 0, 68, 100
1, 68476, Note_off_c, 0, 68, 100
1, 68476, Note_on_c, 0, 70, 100
1, 68524, Note_off_c, 0, 70, 100
1, 68524, Note_on_c, 0, 70, 100
1, 68572, Note_off_c, 0, 70, 100
1, 68572, Note_on_c, 0, 66, 100
1, 68620, Note_off_c, 0, 66, 100
1, 68620, Note_on_c, 0, 68, 100
1, 68668, Note_off_c, 0, 68, 100
1, 68668, Note_on_c, 0, 70, 100
1, 68716, Note_off_c, 0, 70, 100
1, 68716, Note_on_c, 0, 68, 100
1, 68764, Note_off_c, 0, 68, 100
1, 68764, Note_on_c, 0, 65, 100
1, 68812, Note_off_c, 0, 65, 100
1, 68812, Note_on_c, 0, 63, 100
1, 68860, Note_off_c, 0, 63, 100
1, 68860, Note_on_c, 0, 67, 100
1, 68908, Note_off_c, 0, 67, 100
1, 68908, Note_on_c, 0, 63, 100
1, 68956, Note_off_c, 0, 63, 100
1, 68956, Note_on_c, 0, 62, 100
1, 69004, Note_off_c, 0, 62, 100
1, 69004, Note_on_c, 0, 59, 100
1, 69052, Note_off_c, 0, 59, 100
1, 69052, Note_on_c, 0, 57, 100
1, 69100, Note_off_c, 0, 57, 100
1, 69100, Note_on_c, 0, 53, 100
1, 69164, Note_off_c, 0, 53, 100
1, 69164, Note_on_c, 0, 55, 100
1, 69228, Note_off_c, 0, 55, 100
1, 69228, Note_on_c, 0, 59, 100
1, 69292, Note_off_c, 0, 59, 100
1, 69292, Note_on_c, 0, 63, 100
1, 69330, Note_off_c, 0, 63, 100
1, 69330, Note_on_c, 0, 65, 100
1, 69368, Note_off_c, 0, 65, 100
1, 69368, Note_on_c, 0, 67, 100
1, 69406, Note_off_c, 0, 67, 100
1, 69406, Note_on_c, 0, 71, 100
1, 69444, Note_off_c, 0, 71, 100
1, 69444, Note_on_c, 0, 75, 100
1, 69482, Note_off_c, 0, 75, 100
1, 69482, Note_on_c, 0, 71, 100
1, 69578, Note_off_c, 0, 71, 100
1, 69578, Note_on_c, 0, 79, 100
1, 69674, Note_off_c, 0, 79, 100
1, 69674, Note_on_c, 0, 75, 100
1, 69770, Note_off_c, 0, 75, 100
1, 69770, Note_on_c, 0, 72, 100
1, 69866, Note_off_c, 0, 72, 100
1, 70250, Note_on_c, 0, 72, 100
1, 70346, Note_off_c, 0, 72, 100
1, 70346, Note_on_c, 0, 71, 100
1, 70490, Note_off_c, 0, 71, 100
1, 70490, Note_on_c, 0, 75, 100
1, 70634, Note_off_c, 0, 75, 100
1, 70634, Note_on_c, 0, 71, 100
1, 70730, Note_off_c, 0, 71, 100
1, 70730, Note_on_c, 0, 69, 100
1, 71210, Note_off_c, 0, 69, 100
1, 71210, Note_on_c, 0, 67, 100
1, 71306, Note_off_c, 0, 67, 100
1, 71306, Note_on_c, 0, 63, 100
1, 71354, Note_off_c, 0, 63, 100
1, 71354, Note_on_c, 0, 69, 100
1, 71402, Note_off_c, 0, 69, 100
1, 71402, Note_on_c, 0, 70, 100
1, 71450, Note_off_c, 0, 70, 100
1, 71450, Note_on_c, 0, 69, 100
1, 71498, Note_off_c, 0, 69, 100
1, 71498, Note_on_c, 0, 70, 100
1, 71546, Note_off_c, 0, 70, 100
1, 71546, Note_on_c, 0, 63, 100
1, 71626, Note_off_c, 0, 63, 100
1, 71626, Note_on_c, 0, 59, 100
1, 71690, Note_off_c, 0, 59, 100
1, 71690, Note_on_c, 0, 58, 100
1, 71722, Note_off_c, 0, 58, 100
1, 71722, Note_on_c, 0, 59, 100
1, 71754, Note_off_c, 0, 59, 100
1, 71754, Note_on_c, 0, 57, 100
1, 71786, Note_off_c, 0, 57, 100
1, 71786, Note_on_c, 0, 56, 100
1, 71834, Note_off_c, 0, 56, 100
1, 71834, Note_on_c, 0, 55, 100
1, 71882, Note_off_c, 0, 55, 100
1, 71882, Note_on_c, 0, 59, 100
1, 71978, Note_off_c, 0, 59, 100
1, 71978, Note_on_c, 0, 51, 100
1, 72016, Note_off_c, 0, 51, 100
1, 72016, Note_on_c, 0, 55, 100
1, 72054, Note_off_c, 0, 55, 100
1, 72054, Note_on_c, 0, 59, 100
1, 72092, Note_off_c, 0, 59, 100
1, 72092, Note_on_c, 0, 51, 100
1, 72130, Note_off_c, 0, 51, 100
1, 72130, Note_on_c, 0, 48, 100
1, 72264, Note_off_c, 0, 48, 100
1, 72264, Note_on_c, 0, 51, 100
1, 72312, Note_off_c, 0, 51, 100
1, 72312, Note_on_c, 0, 45, 100
1, 72504, Note_off_c, 0, 45, 100
1, 72840, Note_on_c, 0, 47, 100
1, 72888, Note_off_c, 0, 47, 100
1, 72888, Note_on_c, 0, 51, 100
1, 72936, Note_off_c, 0, 51, 100
1, 72936, Note_on_c, 0, 53, 100
1, 73000, Note_off_c, 0, 53, 100
1, 73000, Note_on_c, 0, 51, 100
1, 73064, Note_off_c, 0, 51, 100
1, 73064, Note_on_c, 0, 53, 100
1, 73160, Note_off_c, 0, 53, 100
1, 73368, Note_on_c, 0, 55, 100
1, 73416, Note_off_c, 0, 55, 100
1, 73416, Note_on_c, 0, 57, 100
1, 73464, Note_off_c, 0, 57, 100
1, 73464, Note_on_c, 0, 60, 100
1, 73512, Note_off_c, 0, 60, 100
1, 73512, Note_on_c, 0, 63, 100
1, 73560, Note_off_c, 0, 63, 100
1, 73560, Note_on_c, 0, 59, 100
1, 73768, Note_off_c, 0, 59, 100
1, 73768, Note_on_c, 0, 59, 100
1, 73832, Note_off_c, 0, 59, 100
1, 73832, Note_on_c, 0, 63, 100
1, 73896, Note_off_c, 0, 63, 100
1, 73896, Note_on_c, 0, 67, 100
1, 73992, Note_off_c, 0, 67, 100
1, 73992, Note_on_c, 0, 60, 100
1, 74152, Note_off_c, 0, 60, 100
1, 74152, Note_on_c, 0, 60, 100
1, 74216, Note_off_c, 0, 60, 100
1, 74216, Note_on_c, 0, 63, 100
1, 74280, Note_off_c, 0, 63, 100
1, 74280, Note_on_c, 0, 62, 100
1, 74424, Note_off_c, 0, 62, 100
1, 74424, Note_on_c, 0, 62, 100
1, 74472, Note_off_c, 0, 62, 100
1, 74472, Note_on_c, 0, 65, 100
1, 74568, Note_off_c, 0, 65, 100
1, 74568, Note_on_c, 0, 63, 100
1, 74712, Note_off_c, 0, 63, 100
1, 74712, Note_on_c, 0, 63, 100
1, 74760, Note_off_c, 0, 63, 100
1, 74760, Note_on_c, 0, 67, 100
1, 74808, Note_off_c, 0, 67, 100
1, 74808, Note_on_c, 0, 65, 100
1, 75000, Note_off_c, 0, 65, 100
1, 75000, Note_on_c, 0, 65, 100
1, 75048, Note_off_c, 0, 65, 100
1, 75048, Note_on_c, 0, 69, 100
1, 75144, Note_off_c, 0, 69, 100
1, 75144, Note_on_c, 0, 67, 100
1, 75304, Note_off_c, 0, 67, 100
1, 75304, Note_on_c, 0, 67, 100
1, 75368, Note_off_c, 0, 67, 100
1, 75368, Note_on_c, 0, 71, 100
1, 75432, Note_off_c, 0, 71, 100
1, 75432, Note_on_c, 0, 69, 100
1, 75624, Note_off_c, 0, 69, 100
1, 75624, Note_on_c, 0, 69, 100
1, 75688, Note_off_c, 0, 69, 100
1, 75688, Note_on_c, 0, 72, 100
1, 75752, Note_off_c, 0, 72, 100
1, 75752, Note_on_c, 0, 71, 100
1, 76008, Note_off_c, 0, 71, 100
1, 76008, Note_on_c, 0, 71, 100
1, 76040, Note_off_c, 0, 71, 100
1, 76040, Note_on_c, 0, 72, 100
1, 76072, Note_off_c, 0, 72, 100
1, 76072, Note_on_c, 0, 74, 100
1, 76104, Note_off_c, 0, 74, 100
1, 76104, Note_on_c, 0, 75, 100
1, 76168, Note_off_c, 0, 75, 100
1, 76168, Note_on_c, 0, 79, 100
1, 76296, Note_off_c, 0, 79, 100
1, 76296, Note_on_c, 0, 79, 100
1, 76392, Note_off_c, 0, 79, 100
1, 76392, Note_on_c, 0, 75, 100
1, 76488, Note_off_c, 0, 75, 100
1, 76488, Note_on_c, 0, 71, 100
1, 76680, Note_off_c, 0, 71, 100
1, 76680, Note_on_c, 0, 71, 100
1, 76776, Note_off_c, 0, 71, 100
1, 76776, Note_on_c, 0, 73, 100
1, 76824, Note_off_c, 0, 73, 100
1, 76824, Note_on_c, 0, 75, 100
1, 76872, Note_off_c, 0, 75, 100
1, 76872, Note_on_c, 0, 69, 100
1, 77160, Note_off_c, 0, 69, 100
1, 77160, Note_on_c, 0, 67, 100
1, 77256, Note_off_c, 0, 67, 100
1, 77256, Note_on_c, 0, 63, 100
1, 77304, Note_off_c, 0, 63, 100
1, 77304, Note_on_c, 0, 67, 100
1, 77352, Note_off_c, 0, 67, 100
1, 77352, Note_on_c, 0, 63, 100
1, 77448, Note_off_c, 0, 63, 100
1, 77640, Note_on_c, 0, 70, 100
1, 77688, Note_off_c, 0, 70, 100
1, 77688, Note_on_c, 0, 72, 100
1, 77736, Note_off_c, 0, 72, 100
1, 77736, Note_on_c, 0, 62, 100
1, 78072, Note_off_c, 0, 62, 100
1, 78072, Note_on_c, 0, 59, 100
1, 78120, Note_off_c, 0, 59, 100
1, 78120, Note_on_c, 0, 55, 100
1, 78216, Note_off_c, 0, 55, 100
1, 78216, Note_on_c, 0, 57, 100
1, 78504, Note_off_c, 0, 57, 100
1, 78504, Note_on_c, 0, 57, 100
1, 78600, Note_off_c, 0, 57, 100
1, 78600, Note_on_c, 0, 60, 100
1, 78648, Note_off_c, 0, 60, 100
1, 78648, Note_on_c, 0, 59, 100
1, 78888, Note_off_c, 0, 59, 100
1, 78888, Note_on_c, 0, 59, 100
1, 78984, Note_off_c, 0, 59, 100
1, 78984, Note_on_c, 0, 61, 100
1, 79032, Note_off_c, 0, 61, 100
1, 79032, Note_on_c, 0, 64, 100
1, 79080, Note_off_c, 0, 64, 100
1, 79080, Note_on_c, 0, 63, 100
1, 79176, Note_off_c, 0, 63, 100
1, 79336, Note_on_c, 0, 63, 100
1, 79400, Note_off_c, 0, 63, 100
1, 79400, Note_on_c, 0, 65, 100
1, 79464, Note_off_c, 0, 65, 100
1, 79464, Note_on_c, 0, 67, 100
1, 79528, Note_off_c, 0, 67, 100
1, 79528, Note_on_c, 0, 69, 100
1, 79752, Note_off_c, 0, 69, 100
1, 79752, Note_on_c, 0, 69, 100
1, 79848, Note_off_c, 0, 69, 100
1, 79848, Note_on_c, 0, 71, 100
1, 79976, Note_off_c, 0, 71, 100
1, 79976, Note_on_c, 0, 71, 100
1, 80232, Note_off_c, 0, 71, 100
1, 80232, Note_on_c, 0, 72, 100
1, 80520, Note_off_c, 0, 72, 100
1, 80712, Note_on_c, 0, 72, 100
1, 80808, Note_off_c, 0, 72, 100
1, 80808, Note_on_c, 0, 71, 100
1, 80952, Note_off_c, 0, 71, 100
1, 80952, Note_on_c, 0, 71, 100
1, 81032, Note_off_c, 0, 71, 100
1, 81032, Note_on_c, 0, 75, 100
1, 81128, Note_off_c, 0, 75, 100
1, 81128, Note_on_c, 0, 78, 100
1, 81160, Note_off_c, 0, 78, 100
1, 81160, Note_on_c, 0, 79, 100
1, 81576, Note_off_c, 0, 79, 100
1, 81576, Note_on_c, 0, 72, 100
1, 81672, Note_off_c, 0, 72, 100
1, 81672, Note_on_c, 0, 71, 100
1, 81816, Note_off_c, 0, 71, 100
1, 81816, Note_on_c, 0, 71, 100
1, 81912, Note_off_c, 0, 71, 100
1, 81912, Note_on_c, 0, 75, 100
1, 82056, Note_off_c, 0, 75, 100
1, 82056, Note_on_c, 0, 79, 100
1, 82104, Note_off_c, 0, 79, 100
1, 82104, Note_on_c, 0, 80, 100
1, 82152, Note_off_c, 0, 80, 100
1, 82152, Note_on_c, 0, 81, 100
1, 82200, Note_off_c, 0, 81, 100
1, 82200, Note_on_c, 0, 82, 100
1, 82296, Note_off_c, 0, 82, 100
1, 82296, Note_on_c, 0, 81, 100
1, 82488, Note_off_c, 0, 81, 100
1, 82488, Note_on_c, 0, 79, 100
1, 82536, Note_off_c, 0, 79, 100
1, 82536, Note_on_c, 0, 80, 100
1, 82792, Note_off_c, 0, 80, 100
1, 82792, Note_on_c, 0, 79, 100
1, 83176, Note_off_c, 0, 79, 100
1, 83176, Note_on_c, 0, 75, 100
1, 83240, Note_off_c, 0, 75, 100
1, 83240, Note_on_c, 0, 74, 100
1, 83272, Note_off_c, 0, 74, 100
1, 83272, Note_on_c, 0, 71, 100
1, 83400, Note_off_c, 0, 71, 100
1, 83400, Note_on_c, 0, 71, 100
1, 83448, Note_off_c, 0, 71, 100
1, 83448, Note_on_c, 0, 70, 100
1, 83496, Note_off_c, 0, 70, 100
1, 83496, Note_on_c, 0, 69, 100
1, 83640, Note_off_c, 0, 69, 100
1, 83640, Note_on_c, 0, 76, 100
1, 83688, Note_off_c, 0, 76, 100
1, 83688, Note_on_c, 0, 77, 100
1, 83880, Note_off_c, 0, 77, 100
1, 83880, Note_on_c, 0, 75, 100
1, 84168, Note_off_c, 0, 75, 100
1, 84328, Note_on_c, 0, 71, 100
1, 84392, Note_off_c, 0, 71, 100
1, 84392, Note_on_c, 0, 69, 100
1, 84456, Note_off_c, 0, 69, 100
1, 84456, Note_on_c, 0, 71, 100
1, 84552, Note_off_c, 0, 71, 100
1, 84552, Note_on_c, 0, 75, 100
1, 84648, Note_off_c, 0, 75, 100
1, 84648, Note_on_c, 0, 69, 100
1, 84744, Note_off_c, 0, 69, 100
1, 84744, Note_on_c, 0, 71, 100
1, 84840, Note_off_c, 0, 71, 100
1, 84840, Note_on_c, 0, 64, 100
1, 84888, Note_off_c, 0, 64, 100
1, 84888, Note_on_c, 0, 65, 100
1, 85224, Note_off_c, 0, 65, 100
1, 85224, Note_on_c, 0, 63, 100
1, 85288, Note_off_c, 0, 63, 100
1, 85288, Note_on_c, 0, 59, 100
1, 85352, Note_off_c, 0, 59, 100
1, 85352, Note_on_c, 0, 57, 100
1, 85416, Note_off_c, 0, 57, 100
1, 85416, Note_on_c, 0, 59, 100
1, 85480, Note_off_c, 0, 59, 100
1, 85480, Note_on_c, 0, 61, 100
1, 85544, Note_off_c, 0, 61, 100
1, 85544, Note_on_c, 0, 63, 100
1, 85608, Note_off_c, 0, 63, 100
1, 85608, Note_on_c, 0, 65, 100
1, 85656, Note_off_c, 0, 65, 100
1, 85656, Note_on_c, 0, 69, 100
1, 85704, Note_off_c, 0, 69, 100
1, 85704, Note_on_c, 0, 71, 100
1, 85752, Note_off_c, 0, 71, 100
1, 85752, Note_on_c, 0, 73, 100
1, 85848, Note_off_c, 0, 73, 100
1, 86088, Note_on_c, 0, 71, 100
1, 86136, Note_off_c, 0, 71, 100
1, 86136, Note_on_c, 0, 69, 100
1, 86280, Note_off_c, 0, 69, 100
1, 86280, Note_on_c, 0, 75, 100
1, 86328, Note_off_c, 0, 75, 100
1, 86328, Note_on_c, 0, 76, 100
1, 86376, Note_off_c, 0, 76, 100
1, 86376, Note_on_c, 0, 77, 100
1, 86520, Note_off_c, 0, 77, 100
1, 86520, Note_on_c, 0, 75, 100
1, 86808, Note_off_c, 0, 75, 100
1, 86808, Note_on_c, 0, 71, 100
1, 86856, Note_off_c, 0, 71, 100
1, 86856, Note_on_c, 0, 69, 100
1, 86904, Note_off_c, 0, 69, 100
1, 86904, Note_on_c, 0, 71, 100
1, 86952, Note_off_c, 0, 71, 100
1, 86952, Note_on_c, 0, 63, 100
1, 87048, Note_off_c, 0, 63, 100
1, 87048, Note_on_c, 0, 65, 100
1, 87288, Note_off_c, 0, 65, 100
1, 87288, Note_on_c, 0, 63, 100
1, 87336, Note_off_c, 0, 63, 100
1, 87336, Note_on_c, 0, 59, 100
1, 87432, Note_off_c, 0, 59, 100
1, 87432, Note_on_c, 0, 57, 100
1, 87528, Note_off_c, 0, 57, 100
1, 87672, Note_on_c, 0, 59, 100
1, 87720, Note_off_c, 0, 59, 100
1, 87720, Note_on_c, 0, 67, 100
1, 87816, Note_off_c, 0, 67, 100
1, 87816, Note_on_c, 0, 70, 100
1, 88104, Note_off_c, 0, 70, 100
1, 88104, Note_on_c, 0, 69, 100
1, 88168, Note_off_c, 0, 69, 100
1, 88168, Note_on_c, 0, 70, 100
1, 88232, Note_off_c, 0, 70, 100
1, 88232, Note_on_c, 0, 67, 100
1, 88296, Note_off_c, 0, 67, 100
1, 88296, Note_on_c, 0, 64, 100
1, 88360, Note_off_c, 0, 64, 100
1, 88360, Note_on_c, 0, 67, 100
1, 88424, Note_off_c, 0, 67, 100
1, 88424, Note_on_c, 0, 72, 100
1, 88680, Note_off_c, 0, 72, 100
1, 88680, Note_on_c, 0, 70, 100
1, 89064, Note_off_c, 0, 70, 100
1, 89064, Note_on_c, 0, 69, 100
1, 89179, Note_off_c, 0, 69, 100
1, 89179, Note_on_c, 0, 68, 100
1, 89217, Note_off_c, 0, 68, 100
1, 89217, Note_on_c, 0, 67, 100
1, 89255, Note_off_c, 0, 67, 100
1, 89255, Note_on_c, 0, 64, 100
1, 89319, Note_off_c, 0, 64, 100
1, 89319, Note_on_c, 0, 67, 100
1, 89383, Note_off_c, 0, 67, 100
1, 89383, Note_on_c, 0, 72, 100
1, 89543, Note_off_c, 0, 72, 100
1, 89543, Note_on_c, 0, 72, 100
1, 89735, Note_off_c, 0, 72, 100
1, 89735, Note_on_c, 0, 70, 100
1, 90023, Note_off_c, 0, 70, 100
1, 90023, Note_on_c, 0, 52, 100
1, 90071, Note_off_c, 0, 52, 100
1, 90071, Note_on_c, 0, 55, 100
1, 90167, Note_off_c, 0, 55, 100
1, 90167, Note_on_c, 0, 51, 100
1, 90215, Note_off_c, 0, 51, 100
1, 90215, Note_on_c, 0, 49, 100
1, 90263, Note_off_c, 0, 49, 100
1, 90263, Note_on_c, 0, 51, 100
1, 90311, Note_off_c, 0, 51, 100
1, 90311, Note_on_c, 0, 55, 100
1, 90359, Note_off_c, 0, 55, 100
1, 90359, Note_on_c, 0, 52, 100
1, 90407, Note_off_c, 0, 52, 100
1, 90407, Note_on_c, 0, 54, 100
1, 90445, Note_off_c, 0, 54, 100
1, 90445, Note_on_c, 0, 56, 100
1, 90521, Note_off_c, 0, 56, 100
1, 90521, Note_on_c, 0, 58, 100
1, 90559, Note_off_c, 0, 58, 100
1, 90559, Note_on_c, 0, 62, 100
1, 90597, Note_off_c, 0, 62, 100
1, 90597, Note_on_c, 0, 61, 100
1, 90629, Note_off_c, 0, 61, 100
1, 90629, Note_on_c, 0, 59, 100
1, 90661, Note_off_c, 0, 59, 100
1, 90661, Note_on_c, 0, 58, 100
1, 90693, Note_off_c, 0, 58, 100
1, 90693, Note_on_c, 0, 57, 100
1, 90725, Note_off_c, 0, 57, 100
1, 90725, Note_on_c, 0, 56, 100
1, 90789, Note_off_c, 0, 56, 100
1, 90789, Note_on_c, 0, 55, 100
1, 90885, Note_off_c, 0, 55, 100
1, 91029, Note_on_c, 0, 61, 100
1, 91077, Note_off_c, 0, 61, 100
1, 91077, Note_on_c, 0, 63, 100
1, 91125, Note_off_c, 0, 63, 100
1, 91125, Note_on_c, 0, 64, 100
1, 91173, Note_off_c, 0, 64, 100
1, 91173, Note_on_c, 0, 66, 100
1, 91269, Note_off_c, 0, 66, 100
1, 91269, Note_on_c, 0, 61, 100
1, 91317, Note_off_c, 0, 61, 100
1, 91317, Note_on_c, 0, 63, 100
1, 91365, Note_off_c, 0, 63, 100
1, 91365, Note_on_c, 0, 67, 100
1, 91461, Note_off_c, 0, 67, 100
1, 91461, Note_on_c, 0, 72, 100
1, 91621, Note_off_c, 0, 72, 100
1, 91621, Note_on_c, 0, 72, 100
1, 91749, Note_off_c, 0, 72, 100
1, 91749, Note_on_c, 0, 70, 100
1, 91941, Note_off_c, 0, 70, 100
1, 92229, Note_on_c, 0, 72, 100
1, 92325, Note_off_c, 0, 72, 100
1, 92325, Note_on_c, 0, 75, 100
1, 92421, Note_off_c, 0, 75, 100
1, 92421, Note_on_c, 0, 75, 100
1, 92517, Note_off_c, 0, 75, 100
1, 92517, Note_on_c, 0, 73, 100
1, 92901, Note_off_c, 0, 73, 100
1, 92901, Note_on_c, 0, 69, 100
1, 92939, Note_off_c, 0, 69, 100
1, 92939, Note_on_c, 0, 70, 100
1, 92977, Note_off_c, 0, 70, 100
1, 92977, Note_on_c, 0, 69, 100
1, 93015, Note_off_c, 0, 69, 100
1, 93015, Note_on_c, 0, 67, 100
1, 93053, Note_off_c, 0, 67, 100
1, 93053, Note_on_c, 0, 68, 100
1, 93091, Note_off_c, 0, 68, 100
1, 93091, Note_on_c, 0, 67, 100
1, 93139, Note_off_c, 0, 67, 100
1, 93139, Note_on_c, 0, 72, 100
1, 93235, Note_off_c, 0, 72, 100
1, 93235, Note_on_c, 0, 75, 100
1, 93331, Note_off_c, 0, 75, 100
1, 93331, Note_on_c, 0, 73, 100
1, 93379, Note_off_c, 0, 73, 100
1, 93379, Note_on_c, 0, 79, 100
1, 93571, Note_off_c, 0, 79, 100
1, 93763, Note_on_c, 0, 69, 100
1, 93859, Note_off_c, 0, 69, 100
1, 93859, Note_on_c, 0, 72, 100
1, 93955, Note_off_c, 0, 72, 100
1, 93955, Note_on_c, 0, 69, 100
1, 94099, Note_off_c, 0, 69, 100
1, 94099, Note_on_c, 0, 79, 100
1, 94147, Note_off_c, 0, 79, 100
1, 94147, Note_on_c, 0, 80, 100
1, 94195, Note_off_c, 0, 80, 100
1, 94195, Note_on_c, 0, 81, 100
1, 94435, Note_off_c, 0, 81, 100
1, 94435, Note_on_c, 0, 79, 100
1, 94627, Note_off_c, 0, 79, 100
1, 94627, Note_on_c, 0, 77, 100
1, 94755, Note_off_c, 0, 77, 100
1, 94755, Note_on_c, 0, 74, 100
1, 94819, Note_off_c, 0, 74, 100
1, 94819, Note_on_c, 0, 72, 100
1, 94915, Note_off_c, 0, 72, 100
1, 94915, Note_on_c, 0, 69, 100
1, 95347, Note_off_c, 0, 69, 100
1, 95347, Note_on_c, 0, 69, 100
1, 95395, Note_off_c, 0, 69, 100
1, 95395, Note_on_c, 0, 71, 100
1, 95491, Note_off_c, 0, 71, 100
1, 95491, Note_on_c, 0, 67, 100
1, 96019, Note_off_c, 0, 67, 100
1, 96019, Note_on_c, 0, 63, 100
1, 96067, Note_off_c, 0, 63, 100
1, 96067, Note_on_c, 0, 67, 100
1, 96115, Note_off_c, 0, 67, 100
1, 96115, Note_on_c, 0, 66, 100
1, 96211, Note_off_c, 0, 66, 100
1, 96211, Note_on_c, 0, 61, 100
1, 96259, Note_off_c, 0, 61, 100
1, 96259, Note_on_c, 0, 59, 100
1, 96307, Note_off_c, 0, 59, 100
1, 96307, Note_on_c, 0, 57, 100
1, 96355, Note_off_c, 0, 57, 100
1, 96355, Note_on_c, 0, 59, 100
1, 96403, Note_off_c, 0, 59, 100
1, 96403, Note_on_c, 0, 58, 100
1, 96499, Note_off_c, 0, 58, 100
1, 96499, Note_on_c, 0, 57, 100
1, 96547, Note_off_c, 0, 57, 100
1, 96547, Note_on_c, 0, 59, 100
1, 96611, Note_off_c, 0, 59, 100
1, 96611, Note_on_c, 0, 63, 100
1, 96675, Note_off_c, 0, 63, 100
1, 96675, Note_on_c, 0, 66, 100
1, 96739, Note_off_c, 0, 66, 100
1, 96739, Note_on_c, 0, 69, 100
1, 96803, Note_off_c, 0, 69, 100
1, 96803, Note_on_c, 0, 71, 100
1, 96867, Note_off_c, 0, 71, 100
1, 96867, Note_on_c, 0, 74, 100
1, 97027, Note_off_c, 0, 74, 100
1, 97027, Note_on_c, 0, 74, 100
1, 97123, Note_off_c, 0, 74, 100
1, 97123, Note_on_c, 0, 72, 100
1, 97267, Note_off_c, 0, 72, 100
1, 97267, Note_on_c, 0, 75, 100
1, 97315, Note_off_c, 0, 75, 100
1, 97315, Note_on_c, 0, 76, 100
1, 97363, Note_off_c, 0, 76, 100
1, 97363, Note_on_c, 0, 77, 100
1, 97507, Note_off_c, 0, 77, 100
1, 97507, Note_on_c, 0, 75, 100
1, 97795, Note_off_c, 0, 75, 100
1, 97987, Note_on_c, 0, 74, 100
1, 98035, Note_off_c, 0, 74, 100
1, 98035, Note_on_c, 0, 73, 100
1, 98083, Note_off_c, 0, 73, 100
1, 98083, Note_on_c, 0, 71, 100
1, 98131, Note_off_c, 0, 71, 100
1, 98131, Note_on_c, 0, 69, 100
1, 98179, Note_off_c, 0, 69, 100
1, 98179, Note_on_c, 0, 68, 100
1, 98371, Note_off_c, 0, 68, 100
1, 98371, Note_on_c, 0, 66, 100
1, 98419, Note_off_c, 0, 66, 100
1, 98419, Note_on_c, 0, 65, 100
1, 98443, Note_off_c, 0, 65, 100
1, 98443, Note_on_c, 0, 68, 100
1, 98499, Note_off_c, 0, 68, 100
1, 98499, Note_on_c, 0, 66, 100
1, 98562, Note_off_c, 0, 66, 100
1, 98562, Note_on_c, 0, 65, 100
1, 98594, Note_off_c, 0, 65, 100
1, 98594, Note_on_c, 0, 64, 100
1, 98625, Note_off_c, 0, 64, 100
1, 98625, Note_on_c, 0, 63, 100
1, 98705, Note_off_c, 0, 63, 100
1, 98705, Note_on_c, 0, 65, 100
1, 98753, Note_off_c, 0, 65, 100
1, 98753, Note_on_c, 0, 62, 100
1, 98801, Note_off_c, 0, 62, 100
1, 98801, Note_on_c, 0, 61, 100
1, 98849, Note_off_c, 0, 61, 100
1, 98849, Note_on_c, 0, 63, 100
1, 98945, Note_off_c, 0, 63, 100
1, 98945, Note_on_c, 0, 59, 100
1, 98993, Note_off_c, 0, 59, 100
1, 98993, Note_on_c, 0, 57, 100
1, 99089, Note_off_c, 0, 57, 100
1, 99329, Note_on_c, 0, 59, 100
1, 99425, Note_off_c, 0, 59, 100
1, 99425, Note_on_c, 0, 57, 100
1, 99473, Note_off_c, 0, 57, 100
1, 99473, Note_on_c, 0, 54, 100
1, 99521, Note_off_c, 0, 54, 100
1, 99521, Note_on_c, 0, 57, 100
1, 99569, Note_off_c, 0, 57, 100
1, 99569, Note_on_c, 0, 55, 100
1, 99617, Note_off_c, 0, 55, 100
1, 99617, Note_on_c, 0, 52, 100
1, 99713, Note_off_c, 0, 52, 100
1, 99713, Note_on_c, 0, 47, 100
1, 99761, Note_off_c, 0, 47, 100
1, 99761, Note_on_c, 0, 54, 100
1, 99809, Note_off_c, 0, 54, 100
1, 99809, Note_on_c, 0, 49, 100
1, 99905, Note_off_c, 0, 49, 100
1, 99905, Note_on_c, 0, 51, 100
1, 100001, Note_off_c, 0, 51, 100
1, 100001, Note_on_c, 0, 53, 100
1, 100049, Note_off_c, 0, 53, 100
1, 100049, Note_on_c, 0, 55, 100
1, 100145, Note_off_c, 0, 55, 100
1, 100385, Note_on_c, 0, 58, 100
1, 100673, Note_off_c, 0, 58, 100
1, 100673, Note_on_c, 0, 55, 100
1, 100721, Note_off_c, 0, 55, 100
1, 100721, Note_on_c, 0, 56, 100
1, 100807, Note_off_c, 0, 56, 100
1, 100807, Note_on_c, 0, 58, 100
1, 100845, Note_off_c, 0, 58, 100
1, 100845, Note_on_c, 0, 60, 100
1, 100883, Note_off_c, 0, 60, 100
1, 100883, Note_on_c, 0, 62, 100
1, 100921, Note_off_c, 0, 62, 100
1, 100921, Note_on_c, 0, 60, 100
1, 100959, Note_off_c, 0, 60, 100
1, 100959, Note_on_c, 0, 56, 100
1, 101007, Note_off_c, 0, 56, 100
1, 101007, Note_on_c, 0, 57, 100
1, 101055, Note_off_c, 0, 57, 100
1, 101055, Note_on_c, 0, 60, 100
1, 101103, Note_off_c, 0, 60, 100
1, 101103, Note_on_c, 0, 63, 100
1, 101151, Note_off_c, 0, 63, 100
1, 101151, Note_on_c, 0, 68, 100
1, 101199, Note_off_c, 0, 68, 100
1, 101199, Note_on_c, 0, 67, 100
1, 101247, Note_off_c, 0, 67, 100
1, 101247, Note_on_c, 0, 65, 100
1, 101295, Note_off_c, 0, 65, 100
1, 101295, Note_on_c, 0, 67, 100
1, 101343, Note_off_c, 0, 67, 100
1, 101343, Note_on_c, 0, 66, 100
1, 101407, Note_off_c, 0, 66, 100
1, 101407, Note_on_c, 0, 63, 100
1, 101471, Note_off_c, 0, 63, 100
1, 101471, Note_on_c, 0, 61, 100
1, 101535, Note_off_c, 0, 61, 100
1, 101535, Note_on_c, 0, 59, 100
1, 101583, Note_off_c, 0, 59, 100
1, 101583, Note_on_c, 0, 58, 100
1, 101631, Note_off_c, 0, 58, 100
1, 101631, Note_on_c, 0, 57, 100
1, 101679, Note_off_c, 0, 57, 100
1, 101679, Note_on_c, 0, 59, 100
1, 101727, Note_off_c, 0, 59, 100
1, 101727, Note_on_c, 0, 61, 100
1, 101775, Note_off_c, 0, 61, 100
1, 101775, Note_on_c, 0, 63, 100
1, 101823, Note_off_c, 0, 63, 100
1, 101823, Note_on_c, 0, 66, 100
1, 101871, Note_off_c, 0, 66, 100
1, 101871, Note_on_c, 0, 69, 100
1, 101919, Note_off_c, 0, 69, 100
1, 101919, Note_on_c, 0, 72, 100
1, 102015, Note_off_c, 0, 72, 100
1, 102015, Note_on_c, 0, 69, 100
1, 102111, Note_off_c, 0, 69, 100
1, 102111, Note_on_c, 0, 71, 100
1, 102207, Note_off_c, 0, 71, 100
1, 102207, Note_on_c, 0, 70, 100
1, 102303, Note_off_c, 0, 70, 100
1, 102591, Note_on_c, 0, 71, 100
1, 102639, Note_off_c, 0, 71, 100
1, 102639, Note_on_c, 0, 69, 100
1, 102687, Note_off_c, 0, 69, 100
1, 102687, Note_on_c, 0, 70, 100
1, 102927, Note_off_c, 0, 70, 100
1, 102927, Note_on_c, 0, 69, 100
1, 102975, Note_off_c, 0, 69, 100
1, 102975, Note_on_c, 0, 67, 100
1, 103023, Note_off_c, 0, 67, 100
1, 103023, Note_on_c, 0, 62, 100
1, 103119, Note_off_c, 0, 62, 100
1, 103119, Note_on_c, 0, 67, 100
1, 103167, Note_off_c, 0, 67, 100
1, 103167, Note_on_c, 0, 66, 100
1, 103215, Note_off_c, 0, 66, 100
1, 103215, Note_on_c, 0, 61, 100
1, 103327, Note_off_c, 0, 61, 100
1, 103327, Note_on_c, 0, 63, 100
1, 103391, Note_off_c, 0, 63, 100
1, 103391, Note_on_c, 0, 59, 100
1, 103455, Note_off_c, 0, 59, 100
1, 103455, Note_on_c, 0, 57, 100
1, 103503, Note_off_c, 0, 57, 100
1, 103503, Note_on_c, 0, 54, 100
1, 103551, Note_off_c, 0, 54, 100
1, 103551, Note_on_c, 0, 59, 100
1, 103599, Note_off_c, 0, 59, 100
1, 103599, Note_on_c, 0, 57, 100
1, 104079, Note_off_c, 0, 57, 100
1, 104463, Note_on_c, 0, 69, 100
1, 104559, Note_off_c, 0, 69, 100
1, 104559, Note_on_c, 0, 67, 100
1, 104703, Note_off_c, 0, 67, 100
1, 104703, Note_on_c, 0, 68, 100
1, 104751, Note_off_c, 0, 68, 100
1, 104751, Note_on_c, 0, 69, 100
1, 104895, Note_off_c, 0, 69, 100
1, 104895, Note_on_c, 0, 68, 100
1, 104943, Note_off_c, 0, 68, 100
1, 104943, Note_on_c, 0, 69, 100
1, 105183, Note_off_c, 0, 69, 100
1, 105183, Note_on_c, 0, 64, 100
1, 105279, Note_off_c, 0, 64, 100
1, 105279, Note_on_c, 0, 67, 100
1, 105375, Note_off_c, 0, 67, 100
1, 105567, Note_on_c, 0, 69, 100
1, 105663, Note_off_c, 0, 69, 100
1, 105663, Note_on_c, 0, 67, 100
1, 105711, Note_off_c, 0, 67, 100
1, 105711, Note_on_c, 0, 64, 100
1, 105759, Note_off_c, 0, 64, 100
1, 105759, Note_on_c, 0, 67, 100
1, 105855, Note_off_c, 0, 67, 100
1, 105855, Note_on_c, 0, 69, 100
1, 105999, Note_off_c, 0, 69, 100
1, 105999, Note_on_c, 0, 69, 100
1, 106095, Note_off_c, 0, 69, 100
1, 106095, Note_on_c, 0, 71, 100
1, 106239, Note_off_c, 0, 71, 100
1, 106239, Note_on_c, 0, 71, 100
1, 106335, Note_off_c, 0, 71, 100
1, 106335, Note_on_c, 0, 73, 100
1, 106431, Note_off_c, 0, 73, 100
1, 106431, Note_on_c, 0, 68, 100
1, 106719, Note_off_c, 0, 68, 100
1, 106719, Note_on_c, 0, 71, 100
1, 106815, Note_off_c, 0, 71, 100
1, 106815, Note_on_c, 0, 67, 100
1, 106911, Note_off_c, 0, 67, 100
1, 106911, Note_on_c, 0, 68, 100
1, 106959, Note_off_c, 0, 68, 100
1, 106959, Note_on_c, 0, 63, 100
1, 107151, Note_off_c, 0, 63, 100
1, 107151, Note_on_c, 0, 71, 100
1, 107247, Note_off_c, 0, 71, 100
1, 107247, Note_on_c, 0, 70, 100
1, 107343, Note_off_c, 0, 70, 100
1, 107343, Note_on_c, 0, 66, 100
1, 107391, Note_off_c, 0, 66, 100
1, 107391, Note_on_c, 0, 65, 100
1, 107439, Note_off_c, 0, 65, 100
1, 107439, Note_on_c, 0, 68, 100
1, 107487, Note_off_c, 0, 68, 100
1, 107487, Note_on_c, 0, 63, 100
1, 107535, Note_off_c, 0, 63, 100
1, 107535, Note_on_c, 0, 61, 100
1, 107583, Note_off_c, 0, 61, 100
1, 107583, Note_on_c, 0, 56, 100
1, 107631, Note_off_c, 0, 56, 100
1, 107631, Note_on_c, 0, 63, 100
1, 107679, Note_off_c, 0, 63, 100
1, 107679, Note_on_c, 0, 59, 100
1, 107727, Note_off_c, 0, 59, 100
1, 107727, Note_on_c, 0, 56, 100
1, 107775, Note_off_c, 0, 56, 100
1, 107775, Note_on_c, 0, 55, 100
1, 107823, Note_off_c, 0, 55, 100
1, 107823, Note_on_c, 0, 59, 100
1, 107935, Note_off_c, 0, 59, 100
1, 107935, Note_on_c, 0, 51, 100
1, 108031, Note_off_c, 0, 51, 100
1, 108255, Note_on_c, 0, 59, 100
1, 108319, Note_off_c, 0, 59, 100
1, 108319, Note_on_c, 0, 54, 100
1, 108383, Note_off_c, 0, 54, 100
1, 108383, Note_on_c, 0, 59, 100
1, 108447, Note_off_c, 0, 59, 100
1, 108447, Note_on_c, 0, 56, 100
1, 108639, Note_off_c, 0, 56, 100
1, 108639, Note_on_c, 0, 53, 100
1, 108687, Note_off_c, 0, 53, 100
1, 108687, Note_on_c, 0, 50, 100
1, 108735, Note_off_c, 0, 50, 100
1, 108735, Note_on_c, 0, 51, 100
1, 108783, Note_off_c, 0, 51, 100
1, 108783, Note_on_c, 0, 53, 100
1, 108831, Note_off_c, 0, 53, 100
1, 108831, Note_on_c, 0, 52, 100
1, 108927, Note_off_c, 0, 52, 100
1, 109263, Note_on_c, 0, 51, 100
1, 109311, Note_off_c, 0, 51, 100
1, 109311, Note_on_c, 0, 53, 100
1, 109359, Note_off_c, 0, 53, 100
1, 109359, Note_on_c, 0, 48, 100
1, 109407, Note_off_c, 0, 48, 100
1, 109407, Note_on_c, 0, 51, 100
1, 109503, Note_off_c, 0, 51, 100
1, 109503, Note_on_c, 0, 53, 100
1, 109551, Note_off_c, 0, 53, 100
1, 109551, Note_on_c, 0, 51, 100
1, 109599, Note_off_c, 0, 51, 100
1, 109599, Note_on_c, 0, 53, 100
1, 109695, Note_off_c, 0, 53, 100
1, 109695, Note_on_c, 0, 56, 100
1, 109791, Note_off_c, 0, 56, 100
1, 109791, Note_on_c, 0, 59, 100
1, 109839, Note_off_c, 0, 59, 100
1, 109839, Note_on_c, 0, 63, 100
1, 109887, Note_off_c, 0, 63, 100
1, 109887, Note_on_c, 0, 61, 100
1, 109935, Note_off_c, 0, 61, 100
1, 109935, Note_on_c, 0, 58, 100
1, 109983, Note_off_c, 0, 58, 100
1, 109983, Note_on_c, 0, 54, 100
1, 110079, Note_off_c, 0, 54, 100
1, 110079, Note_on_c, 0, 56, 100
1, 110175, Note_off_c, 0, 56, 100
1, 110175, Note_on_c, 0, 58, 100
1, 110239, Note_off_c, 0, 58, 100
1, 110239, Note_on_c, 0, 61, 100
1, 110303, Note_off_c, 0, 61, 100
1, 110303, Note_on_c, 0, 63, 100
1, 110367, Note_off_c, 0, 63, 100
1, 110367, Note_on_c, 0, 65, 100
1, 110623, Note_off_c, 0, 65, 100
1, 110623, Note_on_c, 0, 61, 100
1, 110687, Note_off_c, 0, 61, 100
1, 110687, Note_on_c, 0, 63, 100
1, 110751, Note_off_c, 0, 63, 100
1, 110751, Note_on_c, 0, 65, 100
1, 110815, Note_off_c, 0, 65, 100
1, 110815, Note_on_c, 0, 66, 100
1, 110879, Note_off_c, 0, 66, 100
1, 110879, Note_on_c, 0, 61, 100
1, 110975, Note_off_c, 0, 61, 100
1, 111183, Note_on_c, 0, 66, 100
1, 111279, Note_off_c, 0, 66, 100
1, 111279, Note_on_c, 0, 63, 100
1, 111391, Note_off_c, 0, 63, 100
1, 111391, Note_on_c, 0, 66, 100
1, 111455, Note_off_c, 0, 66, 100
1, 111455, Note_on_c, 0, 67, 100
1, 111519, Note_off_c, 0, 67, 100
1, 111519, Note_on_c, 0, 64, 100
1, 111663, Note_off_c, 0, 64, 100
1, 111663, Note_on_c, 0, 67, 100
1, 111711, Note_off_c, 0, 67, 100
1, 111711, Note_on_c, 0, 69, 100
1, 112095, Note_off_c, 0, 69, 100
1, 112095, Note_on_c, 0, 66, 100
1, 112159, Note_off_c, 0, 66, 100
1, 112159, Note_on_c, 0, 62, 100
1, 112223, Note_off_c, 0, 62, 100
1, 112223, Note_on_c, 0, 66, 100
1, 112287, Note_off_c, 0, 66, 100
1, 112287, Note_on_c, 0, 69, 100
1, 112383, Note_off_c, 0, 69, 100
1, 112383, Note_on_c, 0, 70, 100
1, 112479, Note_off_c, 0, 70, 100
1, 112863, Note_on_c, 0, 70, 100
1, 112927, Note_off_c, 0, 70, 100
1, 112927, Note_on_c, 0, 72, 100
1, 112991, Note_off_c, 0, 72, 100
1, 112991, Note_on_c, 0, 69, 100
1, 113093, Note_off_c, 0, 69, 100
1, 113093, Note_on_c, 0, 70, 100
1, 113169, Note_off_c, 0, 70, 100
1, 113169, Note_on_c, 0, 72, 100
1, 113207, Note_off_c, 0, 72, 100
1, 113207, Note_on_c, 0, 68, 100
1, 113245, Note_off_c, 0, 68, 100
1, 113245, Note_on_c, 0, 70, 100
1, 113437, Note_off_c, 0, 70, 100
1, 113437, Note_on_c, 0, 66, 100
1, 113533, Note_off_c, 0, 66, 100
1, 113533, Note_on_c, 0, 67, 100
1, 113629, Note_off_c, 0, 67, 100
1, 113629, Note_on_c, 0, 66, 100
1, 113693, Note_off_c, 0, 66, 100
1, 113693, Note_on_c, 0, 70, 100
1, 113757, Note_off_c, 0, 70, 100
1, 113757, Note_on_c, 0, 71, 100
1, 113917, Note_off_c, 0, 71, 100
1, 113917, Note_on_c, 0, 67, 100
1, 114013, Note_off_c, 0, 67, 100
1, 114013, Note_on_c, 0, 64, 100
1, 114077, Note_off_c, 0, 64, 100
1, 114077, Note_on_c, 0, 67, 100
1, 114141, Note_off_c, 0, 67, 100
1, 114141, Note_on_c, 0, 71, 100
1, 114205, Note_off_c, 0, 71, 100
1, 114205, Note_on_c, 0, 73, 100
1, 114301, Note_off_c, 0, 73, 100
1, 114301, Note_on_c, 0, 69, 100
1, 114397, Note_off_c, 0, 69, 100
1, 114397, Note_on_c, 0, 66, 100
1, 114589, Note_off_c, 0, 66, 100
1, 114589, Note_on_c, 0, 69, 100
1, 114685, Note_off_c, 0, 69, 100
1, 114685, Note_on_c, 0, 73, 100
1, 114781, Note_off_c, 0, 73, 100
1, 114781, Note_on_c, 0, 74, 100
1, 114925, Note_off_c, 0, 74, 100
1, 114925, Note_on_c, 0, 69, 100
1, 115021, Note_off_c, 0, 69, 100
1, 115021, Note_on_c, 0, 67, 100
1, 115069, Note_off_c, 0, 67, 100
1, 115069, Note_on_c, 0, 63, 100
1, 115117, Note_off_c, 0, 63, 100
1, 115117, Note_on_c, 0, 67, 100
1, 115213, Note_off_c, 0, 67, 100
1, 115213, Note_on_c, 0, 69, 100
1, 115261, Note_off_c, 0, 69, 100
1, 115261, Note_on_c, 0, 72, 100
1, 115309, Note_off_c, 0, 72, 100
1, 115309, Note_on_c, 0, 74, 100
1, 115405, Note_off_c, 0, 74, 100
1, 115405, Note_on_c, 0, 69, 100
1, 115501, Note_off_c, 0, 69, 100
1, 115501, Note_on_c, 0, 67, 100
1, 115549, Note_off_c, 0, 67, 100
1, 115549, Note_on_c, 0, 65, 100
1, 115645, Note_off_c, 0, 65, 100
1, 115645, Note_on_c, 0, 62, 100
1, 115741, Note_off_c, 0, 62, 100
1, 115933, Note_on_c, 0, 69, 100
1, 116029, Note_off_c, 0, 69, 100
1, 116029, Note_on_c, 0, 72, 100
1, 116125, Note_off_c, 0, 72, 100
1, 116125, Note_on_c, 0, 74, 100
1, 116221, Note_off_c, 0, 74, 100
1, 116221, Note_on_c, 0, 75, 100
1, 116317, Note_off_c, 0, 75, 100
1, 116317, Note_on_c, 0, 71, 100
1, 116413, Note_off_c, 0, 71, 100
1, 116413, Note_on_c, 0, 68, 100
1, 116461, Note_off_c, 0, 68, 100
1, 116461, Note_on_c, 0, 65, 100
1, 116605, Note_off_c, 0, 65, 100
1, 116605, Note_on_c, 0, 68, 100
1, 116701, Note_off_c, 0, 68, 100
1, 116701, Note_on_c, 0, 71, 100
1, 116797, Note_off_c, 0, 71, 100
1, 116797, Note_on_c, 0, 73, 100
1, 116893, Note_off_c, 0, 73, 100
1, 116893, Note_on_c, 0, 75, 100
1, 117037, Note_off_c, 0, 75, 100
1, 117037, Note_on_c, 0, 80, 100
1, 117229, Note_off_c, 0, 80, 100
1, 117229, Note_on_c, 0, 73, 100
1, 117277, Note_off_c, 0, 73, 100
1, 117277, Note_on_c, 0, 70, 100
1, 117373, Note_off_c, 0, 70, 100
1, 117661, Note_on_c, 0, 70, 100
1, 117757, Note_off_c, 0, 70, 100
1, 117757, Note_on_c, 0, 73, 100
1, 117853, Note_off_c, 0, 73, 100
1, 117853, Note_on_c, 0, 76, 100
1, 117997, Note_off_c, 0, 76, 100
1, 117997, Note_on_c, 0, 73, 100
1, 118109, Note_off_c, 0, 73, 100
1, 118109, Note_on_c, 0, 69, 100
1, 118237, Note_off_c, 0, 69, 100
1, 118237, Note_on_c, 0, 71, 100
1, 118333, Note_off_c, 0, 71, 100
1, 118333, Note_on_c, 0, 73, 100
1, 118477, Note_off_c, 0, 73, 100
1, 118477, Note_on_c, 0, 73, 100
1, 118573, Note_off_c, 0, 73, 100
1, 118573, Note_on_c, 0, 69, 100
1, 118685, Note_off_c, 0, 69, 100
1, 118685, Note_on_c, 0, 66, 100
1, 118813, Note_off_c, 0, 66, 100
1, 118813, Note_on_c, 0, 69, 100
1, 118909, Note_off_c, 0, 69, 100
1, 118909, Note_on_c, 0, 72, 100
1, 119005, Note_off_c, 0, 72, 100
1, 119005, Note_on_c, 0, 74, 100
1, 119101, Note_off_c, 0, 74, 100
1, 119101, Note_on_c, 0, 69, 100
1, 119197, Note_off_c, 0, 69, 100
1, 119197, Note_on_c, 0, 67, 100
1, 119293, Note_off_c, 0, 67, 100
1, 119293, Note_on_c, 0, 63, 100
1, 119341, Note_off_c, 0, 63, 100
1, 119341, Note_on_c, 0, 67, 100
1, 119389, Note_off_c, 0, 67, 100
1, 119389, Note_on_c, 0, 69, 100
1, 119485, Note_off_c, 0, 69, 100
1, 119485, Note_on_c, 0, 72, 100
1, 119533, Note_off_c, 0, 72, 100
1, 119533, Note_on_c, 0, 69, 100
1, 119581, Note_off_c, 0, 69, 100
1, 119581, Note_on_c, 0, 67, 100
1, 119677, Note_off_c, 0, 67, 100
1, 119677, Note_on_c, 0, 65, 100
1, 119725, Note_off_c, 0, 65, 100
1, 119725, Note_on_c, 0, 62, 100
1, 119821, Note_off_c, 0, 62, 100
1, 120029, Note_on_c, 0, 72, 100
1, 120093, Note_off_c, 0, 72, 100
1, 120093, Note_on_c, 0, 69, 100
1, 120253, Note_off_c, 0, 69, 100
1, 120253, Note_on_c, 0, 71, 100
1, 120349, Note_off_c, 0, 71, 100
1, 120349, Note_on_c, 0, 68, 100
1, 120445, Note_off_c, 0, 68, 100
1, 120445, Note_on_c, 0, 66, 100
1, 120493, Note_off_c, 0, 66, 100
1, 120493, Note_on_c, 0, 63, 100
1, 120541, Note_off_c, 0, 63, 100
1, 120541, Note_on_c, 0, 61, 100
1, 120605, Note_off_c, 0, 61, 100
1, 120605, Note_on_c, 0, 63, 100
1, 120669, Note_off_c, 0, 63, 100
1, 120669, Note_on_c, 0, 65, 100
1, 120733, Note_off_c, 0, 65, 100
1, 120733, Note_on_c, 0, 68, 100
1, 120781, Note_off_c, 0, 68, 100
1, 120781, Note_on_c, 0, 71, 100
1, 120829, Note_off_c, 0, 71, 100
1, 120829, Note_on_c, 0, 70, 100
1, 120925, Note_off_c, 0, 70, 100
1, 120925, Note_on_c, 0, 68, 100
1, 121021, Note_off_c, 0, 68, 100
1, 121021, Note_on_c, 0, 70, 100
1, 121117, Note_off_c, 0, 70, 100
1, 121117, Note_on_c, 0, 65, 100
1, 121213, Note_off_c, 0, 65, 100
1, 121213, Note_on_c, 0, 63, 100
1, 121309, Note_off_c, 0, 63, 100
1, 121501, Note_on_c, 0, 70, 100
1, 121597, Note_off_c, 0, 70, 100
1, 121597, Note_on_c, 0, 69, 100
1, 121693, Note_off_c, 0, 69, 100
1, 121693, Note_on_c, 0, 69, 100
1, 121789, Note_off_c, 0, 69, 100
1, 121789, Note_on_c, 0, 67, 100
1, 121885, Note_off_c, 0, 67, 100
1, 121885, Note_on_c, 0, 64, 100
1, 121949, Note_off_c, 0, 64, 100
1, 121949, Note_on_c, 0, 67, 100
1, 122013, Note_off_c, 0, 67, 100
1, 122013, Note_on_c, 0, 63, 100
1, 122077, Note_off_c, 0, 63, 100
1, 122077, Note_on_c, 0, 67, 100
1, 122269, Note_off_c, 0, 67, 100
1, 122269, Note_on_c, 0, 69, 100
1, 122333, Note_off_c, 0, 69, 100
1, 122333, Note_on_c, 0, 71, 100
1, 122397, Note_off_c, 0, 71, 100
1, 122397, Note_on_c, 0, 69, 100
1, 122653, Note_off_c, 0, 69, 100
1, 122653, Note_on_c, 0, 66, 100
1, 122717, Note_off_c, 0, 66, 100
1, 122717, Note_on_c, 0, 62, 100
1, 122781, Note_off_c, 0, 62, 100
1, 122781, Note_on_c, 0, 59, 100
1, 122877, Note_off_c, 0, 59, 100
1, 123037, Note_on_c, 0, 69, 100
1, 123101, Note_off_c, 0, 69, 100
1, 123101, Note_on_c, 0, 67, 100
1, 123165, Note_off_c, 0, 67, 100
1, 123165, Note_on_c, 0, 63, 100
1, 123229, Note_off_c, 0, 63, 100
1, 123229, Note_on_c, 0, 69, 100
1, 123325, Note_off_c, 0, 69, 100
1, 123325, Note_on_c, 0, 67, 100
1, 123373, Note_off_c, 0, 67, 100
1, 123373, Note_on_c, 0, 63, 100
1, 123469, Note_off_c, 0, 63, 100
1, 123469, Note_on_c, 0, 67, 100
1, 123565, Note_off_c, 0, 67, 100
1, 123565, Note_on_c, 0, 65, 100
1, 123677, Note_off_c, 0, 65, 100
1, 123677, Note_on_c, 0, 62, 100
1, 123949, Note_off_c, 0, 62, 100
1, 123949, Note_on_c, 0, 66, 100
1, 123997, Note_off_c, 0, 66, 100
1, 123997, Note_on_c, 0, 63, 100
1, 124093, Note_off_c, 0, 63, 100
1, 124093, Note_on_c, 0, 66, 100
1, 124253, Note_off_c, 0, 66, 100
1, 124253, Note_on_c, 0, 65, 100
1, 124317, Note_off_c, 0, 65, 100
1, 124317, Note_on_c, 0, 63, 100
1, 124381, Note_off_c, 0, 63, 100
1, 124381, Note_on_c, 0, 68, 100
1, 124429, Note_off_c, 0, 68, 100
1, 124429, Note_on_c, 0, 65, 100
1, 124477, Note_off_c, 0, 65, 100
1, 124477, Note_on_c, 0, 61, 100
1, 124525, Note_off_c, 0, 61, 100
1, 124525, Note_on_c, 0, 59, 100
1, 124573, Note_off_c, 0, 59, 100
1, 124573, Note_on_c, 0, 63, 100
1, 124669, Note_off_c, 0, 63, 100
1, 124669, Note_on_c, 0, 58, 100
1, 124861, Note_off_c, 0, 58, 100
1, 125053, Note_on_c, 0, 59, 100
1, 125101, Note_off_c, 0, 59, 100
1, 125101, Note_on_c, 0, 64, 100
1, 125245, Note_off_c, 0, 64, 100
1, 125245, Note_on_c, 0, 59, 100
1, 125405, Note_off_c, 0, 59, 100
1, 125405, Note_on_c, 0, 55, 100
1, 125469, Note_off_c, 0, 55, 100
1, 125469, Note_on_c, 0, 61, 100
1, 125533, Note_off_c, 0, 61, 100
1, 125533, Note_on_c, 0, 59, 100
1, 125597, Note_off_c, 0, 59, 100
1, 125597, Note_on_c, 0, 57, 100
1, 125661, Note_off_c, 0, 57, 100
1, 125661, Note_on_c, 0, 54, 100
1, 125725, Note_off_c, 0, 54, 100
1, 125725, Note_on_c, 0, 59, 100
1, 125773, Note_off_c, 0, 59, 100
1, 125773, Note_on_c, 0, 57, 100
1, 126013, Note_off_c, 0, 57, 100
1, 126013, Note_on_c, 0, 57, 100
1, 126109, Note_off_c, 0, 57, 100
1, 126109, Note_on_c, 0, 55, 100
1, 126157, Note_off_c, 0, 55, 100
1, 126157, Note_on_c, 0, 51, 100
1, 126205, Note_off_c, 0, 51, 100
1, 126205, Note_on_c, 0, 55, 100
1, 126253, Note_off_c, 0, 55, 100
1, 126253, Note_on_c, 0, 51, 100
1, 126349, Note_off_c, 0, 51, 100
1, 126349, Note_on_c, 0, 53, 100
1, 126445, Note_off_c, 0, 53, 100
1, 126589, Note_on_c, 0, 57, 100
1, 126685, Note_off_c, 0, 57, 100
1, 126685, Note_on_c, 0, 58, 100
1, 126749, Note_off_c, 0, 58, 100
1, 126749, Note_on_c, 0, 60, 100
1, 126813, Note_off_c, 0, 60, 100
1, 126813, Note_on_c, 0, 62, 100
1, 126877, Note_off_c, 0, 62, 100
1, 126877, Note_on_c, 0, 67, 100
1, 126925, Note_off_c, 0, 67, 100
1, 126925, Note_on_c, 0, 62, 100
1, 127069, Note_off_c, 0, 62, 100
1, 127069, Note_on_c, 0, 58, 100
1, 127133, Note_off_c, 0, 58, 100
1, 127133, Note_on_c, 0, 63, 100
1, 127197, Note_off_c, 0, 63, 100
1, 127197, Note_on_c, 0, 61, 100
1, 127261, Note_off_c, 0, 61, 100
1, 127261, Note_on_c, 0, 59, 100
1, 127325, Note_off_c, 0, 59, 100
1, 127325, Note_on_c, 0, 56, 100
1, 127389, Note_off_c, 0, 56, 100
1, 127389, Note_on_c, 0, 53, 100
1, 127453, Note_off_c, 0, 53, 100
1, 127453, Note_on_c, 0, 56, 100
1, 127517, Note_off_c, 0, 56, 100
1, 127517, Note_on_c, 0, 59, 100
1, 127581, Note_off_c, 0, 59, 100
1, 127581, Note_on_c, 0, 63, 100
1, 127645, Note_off_c, 0, 63, 100
1, 127645, Note_on_c, 0, 58, 100
1, 127741, Note_off_c, 0, 58, 100
1, 127933, Note_on_c, 0, 58, 100
1, 128029, Note_off_c, 0, 58, 100
1, 128029, Note_on_c, 0, 61, 100
1, 128093, Note_off_c, 0, 61, 100
1, 128093, Note_on_c, 0, 64, 100
1, 128157, Note_off_c, 0, 64, 100
1, 128157, Note_on_c, 0, 59, 100
1, 128221, Note_off_c, 0, 59, 100
1, 128221, Note_on_c, 0, 58, 100
1, 128269, Note_off_c, 0, 58, 100
1, 128269, Note_on_c, 0, 57, 100
1, 128317, Note_off_c, 0, 57, 100
1, 128317, Note_on_c, 0, 56, 100
1, 128365, Note_off_c, 0, 56, 100
1, 128365, Note_on_c, 0, 55, 100
1, 128413, Note_off_c, 0, 55, 100
1, 128413, Note_on_c, 0, 57, 100
1, 128477, Note_off_c, 0, 57, 100
1, 128477, Note_on_c, 0, 58, 100
1, 128541, Note_off_c, 0, 58, 100
1, 128541, Note_on_c, 0, 62, 100
1, 128605, Note_off_c, 0, 62, 100
1, 128605, Note_on_c, 0, 63, 100
1, 128653, Note_off_c, 0, 63, 100
1, 128653, Note_on_c, 0, 65, 100
1, 128701, Note_off_c, 0, 65, 100
1, 128701, Note_on_c, 0, 67, 100
1, 128749, Note_off_c, 0, 67, 100
1, 128749, Note_on_c, 0, 72, 100
1, 128797, Note_off_c, 0, 72, 100
1, 128797, Note_on_c, 0, 70, 100
1, 128893, Note_off_c, 0, 70, 100
1, 129133, Note_on_c, 0, 69, 100
1, 129229, Note_off_c, 0, 69, 100
1, 129229, Note_on_c, 0, 67, 100
1, 129325, Note_off_c, 0, 67, 100
1, 129325, Note_on_c, 0, 64, 100
1, 129373, Note_off_c, 0, 64, 100
1, 129373, Note_on_c, 0, 67, 100
1, 129469, Note_off_c, 0, 67, 100
1, 129469, Note_on_c, 0, 65, 100
1, 129517, Note_off_c, 0, 65, 100
1, 129517, Note_on_c, 0, 61, 100
1, 129565, Note_off_c, 0, 61, 100
1, 129565, Note_on_c, 0, 66, 100
1, 129613, Note_off_c, 0, 66, 100
1, 129613, Note_on_c, 0, 62, 100
1, 129709, Note_off_c, 0, 62, 100
1, 129709, Note_on_c, 0, 59, 100
1, 129757, Note_off_c, 0, 59, 100
1, 129757, Note_on_c, 0, 57, 100
1, 129853, Note_off_c, 0, 57, 100
1, 129853, Note_on_c, 0, 57, 100
1, 130093, Note_off_c, 0, 57, 100
1, 130093, Note_on_c, 0, 53, 100
1, 130141, Note_off_c, 0, 53, 100
1, 130141, Note_on_c, 0, 50, 100
1, 130237, Note_off_c, 0, 50, 100
1, 130237, Note_on_c, 0, 53, 100
1, 130285, Note_off_c, 0, 53, 100
1, 130285, Note_on_c, 0, 57, 100
1, 130333, Note_off_c, 0, 57, 100
1, 130333, Note_on_c, 0, 59, 100
1, 130381, Note_off_c, 0, 59, 100
1, 130381, Note_on_c, 0, 61, 100
1, 130429, Note_off_c, 0, 61, 100
1, 130429, Note_on_c, 0, 63, 100
1, 130477, Note_off_c, 0, 63, 100
1, 130477, Note_on_c, 0, 66, 100
1, 130525, Note_off_c, 0, 66, 100
1, 130525, Note_on_c, 0, 69, 100
1, 130573, Note_off_c, 0, 69, 100
1, 130573, Note_on_c, 0, 71, 100
1, 130621, Note_off_c, 0, 71, 100
1, 130621, Note_on_c, 0, 74, 100
1, 130669, Note_off_c, 0, 74, 100
1, 130669, Note_on_c, 0, 69, 100
1, 130765, Note_off_c, 0, 69, 100
1, 130973, Note_on_c, 0, 74, 100
1, 131037, Note_off_c, 0, 74, 100
1, 131037, Note_on_c, 0, 69, 100
1, 131165, Note_off_c, 0, 69, 100
1, 131165, Note_on_c, 0, 74, 100
1, 131229, Note_off_c, 0, 74, 100
1, 131229, Note_on_c, 0, 69, 100
1, 131293, Note_off_c, 0, 69, 100
1, 131293, Note_on_c, 0, 74, 100
1, 131389, Note_off_c, 0, 74, 100
1, 131389, Note_on_c, 0, 69, 100
1, 131485, Note_off_c, 0, 69, 100
1, 131485, Note_on_c, 0, 78, 100
1, 131533, Note_off_c, 0, 78, 100
1, 131533, Note_on_c, 0, 79, 100
1, 131773, Note_off_c, 0, 79, 100
1, 131773, Note_on_c, 0, 83, 100
1, 131821, Note_off_c, 0, 83, 100
1, 131821, Note_on_c, 0, 69, 100
1, 131917, Note_off_c, 0, 69, 100
1, 131917, Note_on_c, 0, 74, 100
1, 131965, Note_off_c, 0, 74, 100
1, 131965, Note_on_c, 0, 69, 100
1, 132061, Note_off_c, 0, 69, 100
1, 132061, Note_on_c, 0, 74, 100
1, 132109, Note_off_c, 0, 74, 100
1, 132109, Note_on_c, 0, 70, 100
1, 132205, Note_off_c, 0, 70, 100
1, 132205, Note_on_c, 0, 79, 100
1, 132317, Note_off_c, 0, 79, 100
1, 132317, Note_on_c, 0, 74, 100
1, 132413, Note_off_c, 0, 74, 100
1, 132589, Note_on_c, 0, 69, 100
1, 132701, Note_off_c, 0, 69, 100
1, 132701, Note_on_c, 0, 74, 100
1, 132765, Note_off_c, 0, 74, 100
1, 132765, Note_on_c, 0, 69, 100
1, 132829, Note_off_c, 0, 69, 100
1, 132829, Note_on_c, 0, 78, 100
1, 132877, Note_off_c, 0, 78, 100
1, 132877, Note_on_c, 0, 79, 100
1, 132925, Note_off_c, 0, 79, 100
1, 132925, Note_on_c, 0, 83, 100
1, 133021, Note_off_c, 0, 83, 100
1, 133021, Note_on_c, 0, 79, 100
1, 133117, Note_off_c, 0, 79, 100
1, 133117, Note_on_c, 0, 81, 100
1, 133149, Note_off_c, 0, 81, 100
1, 133149, Note_on_c, 0, 83, 100
1, 133181, Note_off_c, 0, 83, 100
1, 133181, Note_on_c, 0, 73, 100
1, 133261, Note_off_c, 0, 73, 100
1, 133261, Note_on_c, 0, 70, 100
1, 133357, Note_off_c, 0, 70, 100
1, 133357, Note_on_c, 0, 74, 100
1, 133405, Note_off_c, 0, 74, 100
1, 133405, Note_on_c, 0, 73, 100
1, 133453, Note_off_c, 0, 73, 100
1, 133453, Note_on_c, 0, 79, 100
1, 133597, Note_off_c, 0, 79, 100
1, 133597, Note_on_c, 0, 78, 100
1, 133635, Note_off_c, 0, 78, 100
1, 133635, Note_on_c, 0, 79, 100
1, 133711, Note_off_c, 0, 79, 100
1, 133711, Note_on_c, 0, 80, 100
1, 133749, Note_off_c, 0, 80, 100
1, 133749, Note_on_c, 0, 81, 100
1, 133787, Note_off_c, 0, 81, 100
1, 133787, Note_on_c, 0, 82, 100
1, 133883, Note_off_c, 0, 82, 100
1, 134075, Note_on_c, 0, 45, 100
1, 134171, Note_off_c, 0, 45, 100
1, 134171, Note_on_c, 0, 52, 100
1, 134247, Note_off_c, 0, 52, 100
1, 134247, Note_on_c, 0, 49, 100
1, 134285, Note_off_c, 0, 49, 100
1, 134285, Note_on_c, 0, 50, 100
1, 134323, Note_off_c, 0, 50, 100
1, 134323, Note_on_c, 0, 51, 100
1, 134649, Note_off_c, 0, 51, 100
1, 134649, Note_on_c, 0, 69, 100
1, 134745, Note_off_c, 0, 69, 100
1, 134745, Note_on_c, 0, 74, 100
1, 134793, Note_off_c, 0, 74, 100
1, 134793, Note_on_c, 0, 79, 100
1, 134969, Note_off_c, 0, 79, 100
1, 134969, Note_on_c, 0, 79, 100
1, 135065, Note_off_c, 0, 79, 100
1, 135065, Note_on_c, 0, 80, 100
1, 135097, Note_off_c, 0, 80, 100
1, 135097, Note_on_c, 0, 81, 100
1, 135225, Note_off_c, 0, 81, 100
1, 135225, Note_on_c, 0, 45, 100
1, 135321, Note_off_c, 0, 45, 100
1, 135321, Note_on_c, 0, 52, 100
1, 135417, Note_off_c, 0, 52, 100
1, 135417, Note_on_c, 0, 51, 100
1, 135513, Note_off_c, 0, 51, 100
1, 135705, Note_on_c, 0, 69, 100
1, 135801, Note_off_c, 0, 69, 100
1, 135801, Note_on_c, 0, 74, 100
1, 135897, Note_off_c, 0, 74, 100
1, 135897, Note_on_c, 0, 79, 100
1, 135993, Note_off_c, 0, 79, 100
1, 135993, Note_on_c, 0, 81, 100
1, 136153, Note_off_c, 0, 81, 100
1, 136153, Note_on_c, 0, 45, 100
1, 136281, Note_off_c, 0, 45, 100
1, 136281, Note_on_c, 0, 52, 100
1, 136329, Note_off_c, 0, 52, 100
1, 136329, Note_on_c, 0, 51, 100
1, 136425, Note_off_c, 0, 51, 100
1, 136425, Note_on_c, 0, 55, 100
1, 136521, Note_off_c, 0, 55, 100
1, 136521, Note_on_c, 0, 49, 100
1, 136617, Note_off_c, 0, 49, 100
1, 136617, Note_on_c, 0, 51, 100
1, 136809, Note_off_c, 0, 51, 100
1, 136809, Note_on_c, 0, 69, 100
1, 136905, Note_off_c, 0, 69, 100
1, 136905, Note_on_c, 0, 74, 100
1, 137001, Note_off_c, 0, 74, 100
1, 137001, Note_on_c, 0, 79, 100
1, 137097, Note_off_c, 0, 79, 100
1, 137097, Note_on_c, 0, 81, 100
1, 137193, Note_off_c, 0, 81, 100
1, 137193, Note_on_c, 0, 45, 100
1, 137305, Note_off_c, 0, 45, 100
1, 137305, Note_on_c, 0, 52, 100
1, 137369, Note_off_c, 0, 52, 100
1, 137369, Note_on_c, 0, 51, 100
1, 137433, Note_off_c, 0, 51, 100
1, 137433, Note_on_c, 0, 54, 100
1, 137529, Note_off_c, 0, 54, 100
1, 137529, Note_on_c, 0, 58, 100
1, 137577, Note_off_c, 0, 58, 100
1, 137577, Note_on_c, 0, 62, 100
1, 137625, Note_off_c, 0, 62, 100
1, 137625, Note_on_c, 0, 63, 100
1, 137673, Note_off_c, 0, 63, 100
1, 137673, Note_on_c, 0, 68, 100
1, 137721, Note_off_c, 0, 68, 100
1, 137721, Note_on_c, 0, 69, 100
1, 137769, Note_off_c, 0, 69, 100
1, 137769, Note_on_c, 0, 73, 100
1, 137817, Note_off_c, 0, 73, 100
1, 137817, Note_on_c, 0, 79, 100
1, 138153, Note_off_c, 0, 79, 100
1, 138153, Note_on_c, 0, 69, 100
1, 138201, Note_off_c, 0, 69, 100
1, 138201, Note_on_c, 0, 74, 100
1, 138297, Note_off_c, 0, 74, 100
1, 138297, Note_on_c, 0, 79, 100
1, 138393, Note_off_c, 0, 79, 100
1, 138393, Note_on_c, 0, 81, 100
1, 138441, Note_off_c, 0, 81, 100
1, 138441, Note_on_c, 0, 82, 100
1, 138537, Note_off_c, 0, 82, 100
1, 138537, Note_on_c, 0, 45, 100
1, 138681, Note_off_c, 0, 45, 100
1, 138681, Note_on_c, 0, 52, 100
1, 138729, Note_off_c, 0, 52, 100
1, 138729, Note_on_c, 0, 51, 100
1, 138777, Note_off_c, 0, 51, 100
1, 138777, Note_on_c, 0, 70, 100
1, 138825, Note_off_c, 0, 70, 100
1, 138825, Note_on_c, 0, 71, 100
1, 138873, Note_off_c, 0, 71, 100
1, 138873, Note_on_c, 0, 72, 100
1, 138921, Note_off_c, 0, 72, 100
1, 138921, Note_on_c, 0, 73, 100
1, 138969, Note_off_c, 0, 73, 100
1, 138969, Note_on_c, 0, 74, 100
1, 139065, Note_off_c, 0, 74, 100
1, 139065, Note_on_c, 0, 79, 100
1, 139113, Note_off_c, 0, 79, 100
1, 139113, Note_on_c, 0, 80, 100
1, 139257, Note_off_c, 0, 80, 100
1, 139257, Note_on_c, 0, 80, 100
1, 139353, Note_off_c, 0, 80, 100
1, 139353, Note_on_c, 0, 73, 100
1, 139545, Note_off_c, 0, 73, 100
1, 139785, Note_on_c, 0, 79, 100
1, 139833, Note_off_c, 0, 79, 100
1, 139833, Note_on_c, 0, 81, 100
1, 139929, Note_off_c, 0, 81, 100
1, 139929, Note_on_c, 0, 73, 100
1, 140121, Note_off_c, 0, 73, 100
1, 140121, Note_on_c, 0, 81, 100
1, 140649, Note_off_c, 0, 81, 100
1, 140649, Note_on_c, 0, 79, 100
1, 141177, Note_off_c, 0, 79, 100
1, 141177, Note_on_c, 0, 76, 100
1, 141465, Note_off_c, 0, 76, 100
1, 141465, Note_on_c, 0, 71, 100
1, 142521, Note_off_c, 0, 71, 100
1, 142521, Note_on_c, 0, 69, 100
1, 142617, Note_off_c, 0, 69, 100
1, 142617, Note_on_c, 0, 65, 100
1, 142713, Note_off_c, 0, 65, 100
1, 142713, Note_on_c, 0, 71, 100
1, 142761, Note_off_c, 0, 71, 100
1, 142761, Note_on_c, 0, 69, 100
1, 142809, Note_off_c, 0, 69, 100
1, 142809, Note_on_c, 0, 65, 100
1, 142857, Note_off_c, 0, 65, 100
1, 142857, Note_on_c, 0, 71, 100
1, 142905, Note_off_c, 0, 71, 100
1, 142905, Note_on_c, 0, 69, 100
1, 142953, Note_off_c, 0, 69, 100
1, 142953, Note_on_c, 0, 65, 100
1, 143001, Note_off_c, 0, 65, 100
1, 143001, Note_on_c, 0, 71, 100
1, 143049, Note_off_c, 0, 71, 100
1, 143049, Note_on_c, 0, 69, 100
1, 143097, Note_off_c, 0, 69, 100
1, 143097, Note_on_c, 0, 65, 100
1, 143145, Note_off_c, 0, 65, 100
1, 143145, Note_on_c, 0, 71, 100
1, 143193, Note_off_c, 0, 71, 100
1, 143193, Note_on_c, 0, 69, 100
1, 143289, Note_off_c, 0, 69, 100
1, 143289, Note_on_c, 0, 65, 100
1, 143385, Note_off_c, 0, 65, 100
1, 143641, Note_on_c, 0, 71, 100
1, 143817, Note_off_c, 0, 71, 100
1, 143817, Note_on_c, 0, 74, 100
1, 144153, Note_off_c, 0, 74, 100
1, 144153, Note_on_c, 0, 72, 100
1, 144201, Note_off_c, 0, 72, 100
1, 144201, Note_on_c, 0, 71, 100
1, 144249, Note_off_c, 0, 71, 100
1, 144249, Note_on_c, 0, 69, 100
1, 144297, Note_off_c, 0, 69, 100
1, 144297, Note_on_c, 0, 70, 100
1, 144345, Note_off_c, 0, 70, 100
1, 144345, Note_on_c, 0, 69, 100
1, 144393, Note_off_c, 0, 69, 100
1, 144393, Note_on_c, 0, 65, 100
1, 144441, Note_off_c, 0, 65, 100
1, 144441, Note_on_c, 0, 63, 100
1, 144489, Note_off_c, 0, 63, 100
1, 144489, Note_on_c, 0, 66, 100
1, 144537, Note_off_c, 0, 66, 100
1, 144537, Note_on_c, 0, 63, 100
1, 144575, Note_off_c, 0, 63, 100
1, 144575, Note_on_c, 0, 58, 100
1, 144613, Note_off_c, 0, 58, 100
1, 144613, Note_on_c, 0, 57, 100
1, 144689, Note_off_c, 0, 57, 100
1, 144689, Note_on_c, 0, 53, 100
1, 144727, Note_off_c, 0, 53, 100
1, 144727, Note_on_c, 0, 58, 100
1, 144775, Note_off_c, 0, 58, 100
1, 144775, Note_on_c, 0, 57, 100
1, 144823, Note_off_c, 0, 57, 100
1, 144823, Note_on_c, 0, 53, 100
1, 144871, Note_off_c, 0, 53, 100
1, 144871, Note_on_c, 0, 49, 100
1, 144919, Note_off_c, 0, 49, 100
1, 144919, Note_on_c, 0, 51, 100
1, 144967, Note_off_c, 0, 51, 100
1, 144967, Note_on_c, 0, 53, 100
1, 145015, Note_off_c, 0, 53, 100
1, 145015, Note_on_c, 0, 51, 100
1, 145207, Note_off_c, 0, 51, 100
1, 145207, Note_on_c, 0, 47, 100
1, 145303, Note_off_c, 0, 47, 100
1, 145303, Note_on_c, 0, 47, 100
1, 145367, Note_off_c, 0, 47, 100
1, 145367, Note_on_c, 0, 51, 100
1, 145431, Note_off_c, 0, 51, 100
1, 145431, Note_on_c, 0, 45, 100
1, 145623, Note_off_c, 0, 45, 100
1, 145831, Note_on_c, 0, 55, 100
1, 145879, Note_off_c, 0, 55, 100
1, 145879, Note_on_c, 0, 57, 100
1, 145927, Note_off_c, 0, 57, 100
1, 145927, Note_on_c, 0, 59, 100
1, 145975, Note_off_c, 0, 59, 100
1, 145975, Note_on_c, 0, 61, 100
1, 146023, Note_off_c, 0, 61, 100
1, 146023, Note_on_c, 0, 62, 100
1, 146071, Note_off_c, 0, 62, 100
1, 146071, Note_on_c, 0, 63, 100
1, 146135, Note_off_c, 0, 63, 100
1, 146135, Note_on_c, 0, 65, 100
1, 146199, Note_off_c, 0, 65, 100
1, 146199, Note_on_c, 0, 67, 100
1, 146263, Note_off_c, 0, 67, 100
1, 146263, Note_on_c, 0, 68, 100
1, 146295, Note_off_c, 0, 68, 100
1, 146295, Note_on_c, 0, 69, 100
1, 146327, Note_off_c, 0, 69, 100
1, 146327, Note_on_c, 0, 71, 100
1, 146359, Note_off_c, 0, 71, 100
1, 146359, Note_on_c, 0, 72, 100
1, 146423, Note_off_c, 0, 72, 100
1, 146423, Note_on_c, 0, 69, 100
1, 146551, Note_off_c, 0, 69, 100
1, 146551, Note_on_c, 0, 74, 100
1, 146647, Note_off_c, 0, 74, 100
1, 146647, Note_on_c, 0, 69, 100
1, 146839, Note_off_c, 0, 69, 100
1, 146839, Note_on_c, 0, 69, 100
1, 147031, Note_off_c, 0, 69, 100
1, 147031, Note_on_c, 0, 69, 100
1, 147223, Note_off_c, 0, 69, 100
1, 147223, Note_on_c, 0, 69, 100
1, 147799, Note_off_c, 0, 69, 100
1, 148087, Note_on_c, 0, 67, 100
1, 148183, Note_off_c, 0, 67, 100
1, 148183, Note_on_c, 0, 64, 100
1, 148231, Note_off_c, 0, 64, 100
1, 148231, Note_on_c, 0, 69, 100
1, 148327, Note_off_c, 0, 69, 100
1, 148327, Note_on_c, 0, 67, 100
1, 148423, Note_off_c, 0, 67, 100
1, 148423, Note_on_c, 0, 69, 100
1, 148519, Note_off_c, 0, 69, 100
1, 148519, Note_on_c, 0, 67, 100
1, 148615, Note_off_c, 0, 67, 100
1, 148615, Note_on_c, 0, 68, 100
1, 148663, Note_off_c, 0, 68, 100
1, 148663, Note_on_c, 0, 69, 100
1, 148807, Note_off_c, 0, 69, 100
1, 148807, Note_on_c, 0, 68, 100
1, 148855, Note_off_c, 0, 68, 100
1, 148855, Note_on_c, 0, 69, 100
1, 149591, Note_off_c, 0, 69, 100
1, 149591, Note_on_c, 0, 68, 100
1, 149655, Note_off_c, 0, 68, 100
1, 149655, Note_on_c, 0, 69, 100
1, 149815, Note_off_c, 0, 69, 100
1, 149815, Note_on_c, 0, 69, 100
1, 150103, Note_off_c, 0, 69, 100
1, 150103, Note_on_c, 0, 64, 100
1, 150871, Note_off_c, 0, 64, 100
1, 151159, Note_on_c, 0, 69, 100
1, 151255, Note_off_c, 0, 69, 100
1, 151255, Note_on_c, 0, 71, 100
1, 152406, Note_off_c, 0, 71, 100
1, 152406, End_track
0, 0, End_of_file
