0, 0, Header, 1, 1, 192
1, 0, Start_track
1, 0, Title_t, "Melody"
1, 0, Tempo, 422535
1, 0, Key_signature, 0, "major"
1, 0, Time_signature, 4, 2, 24, 8
1, 528, Note_on_c, 0, 62, 100
1, 576, Note_off_c, 0, 62, 100
1, 576, Note_on_c, 0, 65, 100
1, 672, Note_off_c, 0, 65, 100
1, 672, Note_on_c, 0, 67, 100
1, 1248, Note_off_c, 0, 67, 100
1, 1248, Note_on_c, 0, 69, 100
1, 1344, Note_off_c, 0, 69, 100
1, 1824, Note_on_c, 0, 62, 100
1, 1920, Note_off_c, 0, 62, 100
1, 1920, Note_on_c, 0, 65, 100
1, 2016, Note_off_c, 0, 65, 100
1, 2016, Note_on_c, 0, 67, 100
1, 2112, Note_off_c, 0, 67, 100
1, 2112, Note_on_c, 0, 64, 100
1, 2400, Note_off_c, 0, 64, 100
1, 2832, Note_on_c, 0, 69, 100
1, 2976, Note_off_c, 0, 69, 100
1, 2976, Note_on_c, 0, 67, 100
1, 3072, Note_off_c, 0, 67, 100
1, 3072, Note_on_c, 0, 65, 100
1, 3168, Note_off_c, 0, 65, 100
1, 3168, Note_on_c, 0, 57, 100
1, 3264, Note_off_c, 0, 57, 100
1, 3264, Note_on_c, 0, 62, 100
1, 3360, Note_off_c, 0, 62, 100
1, 3360, Note_on_c, 0, 65, 100
1, 3552, Note_off_c, 0, 65, 100
1, 3552, Note_on_c, 0, 65, 100
1, 3696, Note_off_c, 0, 65, 100
1, 3696, Note_on_c, 0, 65, 100
1, 3792, Note_off_c, 0, 65, 100
1, 3792, Note_on_c, 0, 65, 100
1, 3840, Note_off_c, 0, 65, 100
1, 3840, Note_on_c, 0, 67, 100
1, 3984, Note_off_c, 0, 67, 100
1, 3984, Note_on_c, 0, 67, 100
1, 4128, Note_off_c, 0, 67, 100
1, 4128, Note_on_c, 0, 67, 100
1, 4560, Note_off_c, 0, 67, 100
1, 4560, Note_on_c, 0, 69, 100
1, 4656, Note_off_c, 0, 69, 100
1, 5088, Note_on_c, 0, 62, 100
1, 5184, Note_off_c, 0, 62, 100
1, 5184, Note_on_c, 0, 65, 100
1, 5280, Note_off_c, 0, 65, 100
1, 5280, Note_on_c, 0, 67, 100
1, 5712, Note_off_c, 0, 67, 100
1, 5712, Note_on_c, 0, 64, 100
1, 5808, Note_off_c, 0, 64, 100
1, 6400, Note_on_c, 0, 62, 100
1, 6464, Note_off_c, 0, 62, 100
1, 6464, Note_on_c, 0, 65, 100
1, 6528, Note_off_c, 0, 65, 100
1, 6528, Note_on_c, 0, 67, 100
1, 6592, Note_off_c, 0, 67, 100
1, 6592, Note_on_c, 0, 69, 100
1, 6796, Note_off_c, 0, 69, 100
1, 6796, Note_on_c, 0, 72, 100
1, 6834, Note_off_c, 0, 72, 100
1, 6834, Note_on_c, 0, 69, 100
1, 6872, Note_off_c, 0, 69, 100
1, 6872, Note_on_c, 0, 67, 100
1, 6910, Note_off_c, 0, 67, 100
1, 6910, Note_on_c, 0, 65, 100
1, 6937, Note_off_c, 0, 65, 100
1, 6937, Note_on_c, 0, 62, 100
1, 6991, Note_off_c, 0, 62, 100
1, 6991, Note_on_c, 0, 65, 100
1, 7018, Note_off_c, 0, 65, 100
1, 7018, Note_on_c, 0, 67, 100
1, 7045, Note_off_c, 0, 67, 100
1, 7045, Note_on_c, 0, 69, 100
1, 7072, Note_off_c, 0, 69, 100
1, 7072, Note_on_c, 0, 72, 100
1, 7329, Note_off_c, 0, 72, 100
1, 7329, Note_on_c, 0, 69, 100
1, 7367, Note_off_c, 0, 69, 100
1, 7367, Note_on_c, 0, 72, 100
1, 7443, Note_off_c, 0, 72, 100
1, 7443, Note_on_c, 0, 69, 100
1, 7481, Note_off_c, 0, 69, 100
1, 7481, Note_on_c, 0, 67, 100
1, 7529, Note_off_c, 0, 67, 100
1, 7529, Note_on_c, 0, 65, 100
1, 7577, Note_off_c, 0, 65, 100
1, 7577, Note_on_c, 0, 62, 100
1, 7673, Note_off_c, 0, 62, 100
1, 8133, Note_on_c, 0, 62, 100
1, 8171, Note_off_c, 0, 62, 100
1, 8171, Note_on_c, 0, 65, 100
1, 8209, Note_off_c, 0, 65, 100
1, 8209, Note_on_c, 0, 67, 100
1, 8247, Note_off_c, 0, 67, 100
1, 8247, Note_on_c, 0, 69, 100
1, 8295, Note_off_c, 0, 69, 100
1, 8295, Note_on_c, 0, 72, 100
1, 8503, Note_off_c, 0, 72, 100
1, 8503, Note_on_c, 0, 74, 100
1, 8567, Note_off_c, 0, 74, 100
1, 8567, Note_on_c, 0, 72, 100
1, 8631, Note_off_c, 0, 72, 100
1, 8631, Note_on_c, 0, 74, 100
1, 8727, Note_off_c, 0, 74, 100
1, 8727, Note_on_c, 0, 69, 100
1, 8919, Note_off_c, 0, 69, 100
1, 8919, Note_on_c, 0, 72, 100
1, 8951, Note_off_c, 0, 72, 100
1, 8951, Note_on_c, 0, 69, 100
1, 8983, Note_off_c, 0, 69, 100
1, 8983, Note_on_c, 0, 67, 100
1, 9015, Note_off_c, 0, 67, 100
1, 9015, Note_on_c, 0, 65, 100
1, 9063, Note_off_c, 0, 65, 100
1, 9063, Note_on_c, 0, 62, 100
1, 9159, Note_off_c, 0, 62, 100
1, 9629, Note_on_c, 0, 62, 100
1, 9667, Note_off_c, 0, 62, 100
1, 9667, Note_on_c, 0, 65, 100
1, 9705, Note_off_c, 0, 65, 100
1, 9705, Note_on_c, 0, 67, 100
1, 9743, Note_off_c, 0, 67, 100
1, 9743, Note_on_c, 0, 69, 100
1, 9781, Note_off_c, 0, 69, 100
1, 9781, Note_on_c, 0, 72, 100
1, 10165, Note_off_c, 0, 72, 100
1, 10165, Note_on_c, 0, 69, 100
1, 10229, Note_off_c, 0, 69, 100
1, 10229, Note_on_c, 0, 72, 100
1, 10293, Note_off_c, 0, 72, 100
1, 10293, Note_on_c, 0, 69, 100
1, 10453, Note_off_c, 0, 69, 100
1, 10453, Note_on_c, 0, 72, 100
1, 10501, Note_off_c, 0, 72, 100
1, 10501, Note_on_c, 0, 69, 100
1, 10549, Note_off_c, 0, 69, 100
1, 10549, Note_on_c, 0, 67, 100
1, 10597, Note_off_c, 0, 67, 100
1, 10597, Note_on_c, 0, 65, 100
1, 10645, Note_off_c, 0, 65, 100
1, 10645, Note_on_c, 0, 62, 100
1, 10741, Note_off_c, 0, 62, 100
1, 11077, Note_on_c, 0, 70, 100
1, 11125, Note_off_c, 0, 70, 100
1, 11125, Note_on_c, 0, 69, 100
1, 11413, Note_off_c, 0, 69, 100
1, 11413, Note_on_c, 0, 64, 100
1, 11461, Note_off_c, 0, 64, 100
1, 11461, Note_on_c, 0, 67, 100
1, 11509, Note_off_c, 0, 67, 100
1, 11509, Note_on_c, 0, 64, 100
1, 11557, Note_off_c, 0, 64, 100
1, 11557, Note_on_c, 0, 65, 100
1, 11653, Note_off_c, 0, 65, 100
1, 11653, Note_on_c, 0, 57, 100
1, 11701, Note_off_c, 0, 57, 100
1, 11701, Note_on_c, 0, 59, 100
1, 11749, Note_off_c, 0, 59, 100
1, 11749, Note_on_c, 0, 61, 100
1, 11797, Note_off_c, 0, 61, 100
1, 11797, Note_on_c, 0, 62, 100
1, 11845, Note_off_c, 0, 62, 100
1, 11845, Note_on_c, 0, 64, 100
1, 11893, Note_off_c, 0, 64, 100
1, 11893, Note_on_c, 0, 65, 100
1, 11941, Note_off_c, 0, 65, 100
1, 11941, Note_on_c, 0, 62, 100
1, 12085, Note_off_c, 0, 62, 100
1, 12085, Note_on_c, 0, 57, 100
1, 12133, Note_off_c, 0, 57, 100
1, 12133, Note_on_c, 0, 55, 100
1, 12181, Note_off_c, 0, 55, 100
1, 12181, Note_on_c, 0, 53, 100
1, 12277, Note_off_c, 0, 53, 100
1, 12613, Note_on_c, 0, 56, 100
1, 12661, Note_off_c, 0, 56, 100
1, 12661, Note_on_c, 0, 58, 100
1, 12709, Note_off_c, 0, 58, 100
1, 12709, Note_on_c, 0, 59, 100
1, 12757, Note_off_c, 0, 59, 100
1, 12757, Note_on_c, 0, 60, 100
1, 12805, Note_off_c, 0, 60, 100
1, 12805, Note_on_c, 0, 63, 100
1, 12853, Note_off_c, 0, 63, 100
1, 12853, Note_on_c, 0, 66, 100
1, 12901, Note_off_c, 0, 66, 100
1, 12901, Note_on_c, 0, 68, 100
1, 12949, Note_off_c, 0, 68, 100
1, 12949, Note_on_c, 0, 70, 100
1, 12997, Note_off_c, 0, 70, 100
1, 12997, Note_on_c, 0, 72, 100
1, 13333, Note_off_c, 0, 72, 100
1, 13333, Note_on_c, 0, 68, 100
1, 13381, Note_off_c, 0, 68, 100
1, 13381, Note_on_c, 0, 72, 100
1, 13429, Note_off_c, 0, 72, 100
1, 13429, Note_on_c, 0, 70, 100
1, 13861, Note_off_c, 0, 70, 100
1, 13861, Note_on_c, 0, 66, 100
1, 13909, Note_off_c, 0, 66, 100
1, 13909, Note_on_c, 0, 70, 100
1, 13957, Note_off_c, 0, 70, 100
1, 13957, Note_on_c, 0, 68, 100
1, 14101, Note_off_c, 0, 68, 100
1, 14101, Note_on_c, 0, 69, 100
1, 14133, Note_off_c, 0, 69, 100
1, 14133, Note_on_c, 0, 72, 100
1, 14165, Note_off_c, 0, 72, 100
1, 14165, Note_on_c, 0, 70, 100
1, 14221, Note_off_c, 0, 70, 100
1, 14221, Note_on_c, 0, 64, 100
1, 14245, Note_off_c, 0, 64, 100
1, 14245, Note_on_c, 0, 65, 100
1, 14269, Note_off_c, 0, 65, 100
1, 14269, Note_on_c, 0, 68, 100
1, 14317, Note_off_c, 0, 68, 100
1, 14317, Note_on_c, 0, 66, 100
1, 14341, Note_off_c, 0, 66, 100
1, 14341, Note_on_c, 0, 61, 100
1, 14365, Note_off_c, 0, 61, 100
1, 14365, Note_on_c, 0, 62, 100
1, 14389, Note_off_c, 0, 62, 100
1, 14389, Note_on_c, 0, 65, 100
1, 14427, Note_off_c, 0, 65, 100
1, 14427, Note_on_c, 0, 63, 100
1, 14465, Note_off_c, 0, 63, 100
1, 14465, Note_on_c, 0, 56, 100
1, 14503, Note_off_c, 0, 56, 100
1, 14503, Note_on_c, 0, 57, 100
1, 14541, Note_off_c, 0, 57, 100
1, 14541, Note_on_c, 0, 60, 100
1, 14617, Note_off_c, 0, 60, 100
1, 14617, Note_on_c, 0, 56, 100
1, 14655, Note_off_c, 0, 56, 100
1, 14655, Note_on_c, 0, 57, 100
1, 14693, Note_off_c, 0, 57, 100
1, 14693, Note_on_c, 0, 60, 100
1, 14731, Note_off_c, 0, 60, 100
1, 14731, Note_on_c, 0, 58, 100
1, 15009, Note_off_c, 0, 58, 100
1, 15009, Note_on_c, 0, 54, 100
1, 15057, Note_off_c, 0, 54, 100
1, 15057, Note_on_c, 0, 53, 100
1, 15105, Note_off_c, 0, 53, 100
1, 15105, Note_on_c, 0, 51, 100
1, 15153, Note_off_c, 0, 51, 100
1, 15153, Note_on_c, 0, 56, 100
1, 15249, Note_off_c, 0, 56, 100
1, 15585, Note_on_c, 0, 56, 100
1, 15633, Note_off_c, 0, 56, 100
1, 15633, Note_on_c, 0, 58, 100
1, 15681, Note_off_c, 0, 58, 100
1, 15681, Note_on_c, 0, 60, 100
1, 15793, Note_off_c, 0, 60, 100
1, 15793, Note_on_c, 0, 56, 100
1, 15857, Note_off_c, 0, 56, 100
1, 15857, Note_on_c, 0, 61, 100
1, 15985, Note_off_c, 0, 61, 100
1, 15985, Note_on_c, 0, 58, 100
1, 16049, Note_off_c, 0, 58, 100
1, 16049, Note_on_c, 0, 62, 100
1, 16161, Note_off_c, 0, 62, 100
1, 16161, Note_on_c, 0, 58, 100
1, 16209, Note_off_c, 0, 58, 100
1, 16209, Note_on_c, 0, 63, 100
1, 16401, Note_off_c, 0, 63, 100
1, 16401, Note_on_c, 0, 65, 100
1, 16449, Note_off_c, 0, 65, 100
1, 16449, Note_on_c, 0, 66, 100
1, 16545, Note_off_c, 0, 66, 100
1, 16545, Note_on_c, 0, 65, 100
1, 16641, Note_off_c, 0, 65, 100
1, 16641, Note_on_c, 0, 66, 100
1, 16689, Note_off_c, 0, 66, 100
1, 16689, Note_on_c, 0, 70, 100
1, 16785, Note_off_c, 0, 70, 100
1, 16785, Note_on_c, 0, 73, 100
1, 16929, Note_off_c, 0, 73, 100
1, 16929, Note_on_c, 0, 77, 100
1, 17025, Note_off_c, 0, 77, 100
1, 17025, Note_on_c, 0, 77, 100
1, 17137, Note_off_c, 0, 77, 100
1, 17137, Note_on_c, 0, 75, 100
1, 17265, Note_off_c, 0, 75, 100
1, 17265, Note_on_c, 0, 75, 100
1, 17553, Note_off_c, 0, 75, 100
1, 17553, Note_on_c, 0, 73, 100
1, 17601, Note_off_c, 0, 73, 100
1, 17601, Note_on_c, 0, 72, 100
1, 17697, Note_off_c, 0, 72, 100
1, 17697, Note_on_c, 0, 68, 100
1, 17793, Note_off_c, 0, 68, 100
1, 17793, Note_on_c, 0, 69, 100
1, 17841, Note_off_c, 0, 69, 100
1, 17841, Note_on_c, 0, 71, 100
1, 17879, Note_off_c, 0, 71, 100
1, 17879, Note_on_c, 0, 70, 100
1, 17917, Note_off_c, 0, 70, 100
1, 17917, Note_on_c, 0, 66, 100
1, 17993, Note_off_c, 0, 66, 100
1, 17993, Note_on_c, 0, 63, 100
1, 18089, Note_off_c, 0, 63, 100
1, 18684, Note_on_c, 0, 57, 100
1, 18722, Note_off_c, 0, 57, 100
1, 18722, Note_on_c, 0, 59, 100
1, 18760, Note_off_c, 0, 59, 100
1, 18760, Note_on_c, 0, 61, 100
1, 18798, Note_off_c, 0, 61, 100
1, 18798, Note_on_c, 0, 62, 100
1, 19246, Note_off_c, 0, 62, 100
1, 19246, Note_on_c, 0, 61, 100
1, 19310, Note_off_c, 0, 61, 100
1, 19310, Note_on_c, 0, 59, 100
1, 19374, Note_off_c, 0, 59, 100
1, 19374, Note_on_c, 0, 58, 100
1, 19422, Note_off_c, 0, 58, 100
1, 19422, Note_on_c, 0, 57, 100
1, 19470, Note_off_c, 0, 57, 100
1, 19470, Note_on_c, 0, 53, 100
1, 19518, Note_off_c, 0, 53, 100
1, 19518, Note_on_c, 0, 52, 100
1, 19566, Note_off_c, 0, 52, 100
1, 19566, Note_on_c, 0, 50, 100
1, 19614, Note_off_c, 0, 50, 100
1, 19614, Note_on_c, 0, 53, 100
1, 19710, Note_off_c, 0, 53, 100
1, 19998, Note_on_c, 0, 57, 100
1, 20046, Note_off_c, 0, 57, 100
1, 20046, Note_on_c, 0, 59, 100
1, 20094, Note_off_c, 0, 59, 100
1, 20094, Note_on_c, 0, 61, 100
1, 20142, Note_off_c, 0, 61, 100
1, 20142, Note_on_c, 0, 62, 100
1, 20382, Note_off_c, 0, 62, 100
1, 20382, Note_on_c, 0, 61, 100
1, 20430, Note_off_c, 0, 61, 100
1, 20430, Note_on_c, 0, 59, 100
1, 20478, Note_off_c, 0, 59, 100
1, 20478, Note_on_c, 0, 58, 100
1, 20526, Note_off_c, 0, 58, 100
1, 20526, Note_on_c, 0, 57, 100
1, 20574, Note_off_c, 0, 57, 100
1, 20574, Note_on_c, 0, 53, 100
1, 20622, Note_off_c, 0, 53, 100
1, 20622, Note_on_c, 0, 52, 100
1, 20670, Note_off_c, 0, 52, 100
1, 20670, Note_on_c, 0, 50, 100
1, 20718, Note_off_c, 0, 50, 100
1, 20718, Note_on_c, 0, 53, 100
1, 20766, Note_off_c, 0, 53, 100
1, 20766, Note_on_c, 0, 55, 100
1, 20814, Note_off_c, 0, 55, 100
1, 20814, Note_on_c, 0, 57, 100
1, 20862, Note_off_c, 0, 57, 100
1, 20862, Note_on_c, 0, 59, 100
1, 20910, Note_off_c, 0, 59, 100
1, 20910, Note_on_c, 0, 61, 100
1, 20958, Note_off_c, 0, 61, 100
1, 20958, Note_on_c, 0, 62, 100
1, 21006, Note_off_c, 0, 62, 100
1, 21006, Note_on_c, 0, 64, 100
1, 21054, Note_off_c, 0, 64, 100
1, 21054, Note_on_c, 0, 61, 100
1, 21102, Note_off_c, 0, 61, 100
1, 21102, Note_on_c, 0, 62, 100
1, 21198, Note_off_c, 0, 62, 100
1, 21534, Note_on_c, 0, 57, 100
1, 21582, Note_off_c, 0, 57, 100
1, 21582, Note_on_c, 0, 59, 100
1, 21630, Note_off_c, 0, 59, 100
1, 21630, Note_on_c, 0, 61, 100
1, 21678, Note_off_c, 0, 61, 100
1, 21678, Note_on_c, 0, 62, 100
1, 21946, Note_off_c, 0, 62, 100
1, 21946, Note_on_c, 0, 61, 100
1, 21984, Note_off_c, 0, 61, 100
1, 21984, Note_on_c, 0, 59, 100
1, 22022, Note_off_c, 0, 59, 100
1, 22022, Note_on_c, 0, 58, 100
1, 22060, Note_off_c, 0, 58, 100
1, 22060, Note_on_c, 0, 57, 100
1, 22108, Note_off_c, 0, 57, 100
1, 22108, Note_on_c, 0, 53, 100
1, 22156, Note_off_c, 0, 53, 100
1, 22156, Note_on_c, 0, 52, 100
1, 22204, Note_off_c, 0, 52, 100
1, 22204, Note_on_c, 0, 50, 100
1, 22252, Note_off_c, 0, 50, 100
1, 22252, Note_on_c, 0, 53, 100
1, 22290, Note_off_c, 0, 53, 100
1, 22290, Note_on_c, 0, 55, 100
1, 22328, Note_off_c, 0, 55, 100
1, 22328, Note_on_c, 0, 57, 100
1, 22366, Note_off_c, 0, 57, 100
1, 22366, Note_on_c, 0, 59, 100
1, 22404, Note_off_c, 0, 59, 100
1, 22404, Note_on_c, 0, 61, 100
1, 22442, Note_off_c, 0, 61, 100
1, 22442, Note_on_c, 0, 62, 100
1, 22506, Note_off_c, 0, 62, 100
1, 22506, Note_on_c, 0, 64, 100
1, 22570, Note_off_c, 0, 64, 100
1, 22570, Note_on_c, 0, 61, 100
1, 22634, Note_off_c, 0, 61, 100
1, 22634, Note_on_c, 0, 62, 100
1, 22682, Note_off_c, 0, 62, 100
1, 22682, Note_on_c, 0, 65, 100
1, 22730, Note_off_c, 0, 65, 100
1, 22730, Note_on_c, 0, 69, 100
1, 22826, Note_off_c, 0, 69, 100
1, 22826, Note_on_c, 0, 71, 100
1, 22874, Note_off_c, 0, 71, 100
1, 22874, Note_on_c, 0, 76, 100
1, 23114, Note_off_c, 0, 76, 100
1, 23114, Note_on_c, 0, 57, 100
1, 23162, Note_off_c, 0, 57, 100
1, 23162, Note_on_c, 0, 59, 100
1, 23210, Note_off_c, 0, 59, 100
1, 23210, Note_on_c, 0, 61, 100
1, 23258, Note_off_c, 0, 61, 100
1, 23258, Note_on_c, 0, 62, 100
1, 23306, Note_off_c, 0, 62, 100
1, 23306, Note_on_c, 0, 64, 100
1, 23354, Note_off_c, 0, 64, 100
1, 23354, Note_on_c, 0, 61, 100
1, 23402, Note_off_c, 0, 61, 100
1, 23402, Note_on_c, 0, 62, 100
1, 23450, Note_off_c, 0, 62, 100
1, 23450, Note_on_c, 0, 64, 100
1, 23498, Note_off_c, 0, 64, 100
1, 23498, Note_on_c, 0, 65, 100
1, 23546, Note_off_c, 0, 65, 100
1, 23546, Note_on_c, 0, 67, 100
1, 23594, Note_off_c, 0, 67, 100
1, 23594, Note_on_c, 0, 69, 100
1, 24202, Note_off_c, 0, 69, 100
1, 24202, Note_on_c, 0, 73, 100
1, 24234, Note_off_c, 0, 73, 100
1, 24234, Note_on_c, 0, 74, 100
1, 24266, Note_off_c, 0, 74, 100
1, 24266, Note_on_c, 0, 73, 100
1, 24298, Note_off_c, 0, 73, 100
1, 24298, Note_on_c, 0, 71, 100
1, 24330, Note_off_c, 0, 71, 100
1, 24330, Note_on_c, 0, 64, 100
1, 24362, Note_off_c, 0, 64, 100
1, 24362, Note_on_c, 0, 65, 100
1, 24410, Note_off_c, 0, 65, 100
1, 24410, Note_on_c, 0, 61, 100
1, 24458, Note_off_c, 0, 61, 100
1, 24458, Note_on_c, 0, 62, 100
1, 24554, Note_off_c, 0, 62, 100
1, 24746, Note_on_c, 0, 62, 100
1, 24842, Note_off_c, 0, 62, 100
1, 24842, Note_on_c, 0, 65, 100
1, 24890, Note_off_c, 0, 65, 100
1, 24890, Note_on_c, 0, 69, 100
1, 24938, Note_off_c, 0, 69, 100
1, 24938, Note_on_c, 0, 73, 100
1, 24986, Note_off_c, 0, 73, 100
1, 24986, Note_on_c, 0, 74, 100
1, 25322, Note_off_c, 0, 74, 100
1, 25322, Note_on_c, 0, 74, 100
1, 25386, Note_off_c, 0, 74, 100
1, 25386, Note_on_c, 0, 73, 100
1, 25450, Note_off_c, 0, 73, 100
1, 25450, Note_on_c, 0, 64, 100
1, 25514, Note_off_c, 0, 64, 100
1, 25514, Note_on_c, 0, 65, 100
1, 25578, Note_off_c, 0, 65, 100
1, 25578, Note_on_c, 0, 61, 100
1, 25642, Note_off_c, 0, 61, 100
1, 25642, Note_on_c, 0, 62, 100
1, 25834, Note_off_c, 0, 62, 100
1, 26128, Note_on_c, 0, 57, 100
1, 26166, Note_off_c, 0, 57, 100
1, 26166, Note_on_c, 0, 59, 100
1, 26204, Note_off_c, 0, 59, 100
1, 26204, Note_on_c, 0, 61, 100
1, 26242, Note_off_c, 0, 61, 100
1, 26242, Note_on_c, 0, 62, 100
1, 26280, Note_off_c, 0, 62, 100
1, 26280, Note_on_c, 0, 64, 100
1, 26328, Note_off_c, 0, 64, 100
1, 26328, Note_on_c, 0, 65, 100
1, 26376, Note_off_c, 0, 65, 100
1, 26376, Note_on_c, 0, 67, 100
1, 26424, Note_off_c, 0, 67, 100
1, 26424, Note_on_c, 0, 71, 100
1, 26472, Note_off_c, 0, 71, 100
1, 26472, Note_on_c, 0, 73, 100
1, 26520, Note_off_c, 0, 73, 100
1, 26520, Note_on_c, 0, 74, 100
1, 26616, Note_off_c, 0, 74, 100
1, 26616, Note_on_c, 0, 74, 100
1, 26904, Note_off_c, 0, 74, 100
1, 26904, Note_on_c, 0, 68, 100
1, 26952, Note_off_c, 0, 68, 100
1, 26952, Note_on_c, 0, 73, 100
1, 27000, Note_off_c, 0, 73, 100
1, 27000, Note_on_c, 0, 74, 100
1, 27048, Note_off_c, 0, 74, 100
1, 27048, Note_on_c, 0, 73, 100
1, 27096, Note_off_c, 0, 73, 100
1, 27096, Note_on_c, 0, 69, 100
1, 27144, Note_off_c, 0, 69, 100
1, 27144, Note_on_c, 0, 64, 100
1, 27192, Note_off_c, 0, 64, 100
1, 27192, Note_on_c, 0, 65, 100
1, 27240, Note_off_c, 0, 65, 100
1, 27240, Note_on_c, 0, 61, 100
1, 27304, Note_off_c, 0, 61, 100
1, 27304, Note_on_c, 0, 62, 100
1, 27368, Note_off_c, 0, 62, 100
1, 27368, Note_on_c, 0, 62, 100
1, 27464, Note_off_c, 0, 62, 100
1, 27720, Note_on_c, 0, 69, 100
1, 27864, Note_off_c, 0, 69, 100
1, 27864, Note_on_c, 0, 69, 100
1, 27960, Note_off_c, 0, 69, 100
1, 27960, Note_on_c, 0, 74, 100
1, 28056, Note_off_c, 0, 74, 100
1, 28056, Note_on_c, 0, 69, 100
1, 28152, Note_off_c, 0, 69, 100
1, 28152, Note_on_c, 0, 74, 100
1, 28248, Note_off_c, 0, 74, 100
1, 28248, Note_on_c, 0, 69, 100
1, 28344, Note_off_c, 0, 69, 100
1, 28344, Note_on_c, 0, 67, 100
1, 28648, Note_off_c, 0, 67, 100
1, 28648, Note_on_c, 0, 65, 100
1, 28712, Note_off_c, 0, 65, 100
1, 28712, Note_on_c, 0, 67, 100
1, 28776, Note_off_c, 0, 67, 100
1, 28776, Note_on_c, 0, 65, 100
1, 28872, Note_off_c, 0, 65, 100
1, 28872, Note_on_c, 0, 67, 100
1, 28920, Note_off_c, 0, 67, 100
1, 28920, Note_on_c, 0, 69, 100
1, 29016, Note_off_c, 0, 69, 100
1, 29448, Note_on_c, 0, 69, 100
1, 29880, Note_off_c, 0, 69, 100
1, 29880, Note_on_c, 0, 68, 100
1, 29928, Note_off_c, 0, 68, 100
1, 29928, Note_on_c, 0, 67, 100
1, 29976, Note_off_c, 0, 67, 100
1, 29976, Note_on_c, 0, 65, 100
1, 30024, Note_off_c, 0, 65, 100
1, 30024, Note_on_c, 0, 64, 100
1, 30072, Note_off_c, 0, 64, 100
1, 30072, Note_on_c, 0, 62, 100
1, 30120, Note_off_c, 0, 62, 100
1, 30120, Note_on_c, 0, 61, 100
1, 30168, Note_off_c, 0, 61, 100
1, 30168, Note_on_c, 0, 59, 100
1, 30216, Note_off_c, 0, 59, 100
1, 30216, Note_on_c, 0, 57, 100
1, 30264, Note_off_c, 0, 57, 100
1, 30264, Note_on_c, 0, 56, 100
1, 30312, Note_off_c, 0, 56, 100
1, 30312, Note_on_c, 0, 55, 100
1, 30376, Note_off_c, 0, 55, 100
1, 30376, Note_on_c, 0, 57, 100
1, 30440, Note_off_c, 0, 57, 100
1, 30440, Note_on_c, 0, 59, 100
1, 30504, Note_off_c, 0, 59, 100
1, 30504, Note_on_c, 0, 61, 100
1, 30542, Note_off_c, 0, 61, 100
1, 30542, Note_on_c, 0, 62, 100
1, 30580, Note_off_c, 0, 62, 100
1, 30580, Note_on_c, 0, 64, 100
1, 30618, Note_off_c, 0, 64, 100
1, 30618, Note_on_c, 0, 61, 100
1, 30694, Note_off_c, 0, 61, 100
1, 30694, Note_on_c, 0, 62, 100
1, 30742, Note_off_c, 0, 62, 100
1, 30742, Note_on_c, 0, 64, 100
1, 30790, Note_off_c, 0, 64, 100
1, 30790, Note_on_c, 0, 65, 100
1, 30838, Note_off_c, 0, 65, 100
1, 30838, Note_on_c, 0, 67, 100
1, 30886, Note_off_c, 0, 67, 100
1, 30886, Note_on_c, 0, 69, 100
1, 31078, Note_off_c, 0, 69, 100
1, 31078, Note_on_c, 0, 67, 100
1, 31142, Note_off_c, 0, 67, 100
1, 31142, Note_on_c, 0, 65, 100
1, 31206, Note_off_c, 0, 65, 100
1, 31206, Note_on_c, 0, 69, 100
1, 31302, Note_off_c, 0, 69, 100
1, 31692, Note_on_c, 0, 60, 100
1, 31730, Note_off_c, 0, 60, 100
1, 31730, Note_on_c, 0, 65, 100
1, 31768, Note_off_c, 0, 65, 100
1, 31768, Note_on_c, 0, 67, 100
1, 31806, Note_off_c, 0, 67, 100
1, 31806, Note_on_c, 0, 69, 100
1, 31844, Note_off_c, 0, 69, 100
1, 31844, Note_on_c, 0, 62, 100
1, 32036, Note_off_c, 0, 62, 100
1, 32036, Note_on_c, 0, 64, 100
1, 32132, Note_off_c, 0, 64, 100
1, 32516, Note_on_c, 0, 62, 100
1, 32564, Note_off_c, 0, 62, 100
1, 32564, Note_on_c, 0, 67, 100
1, 32612, Note_off_c, 0, 67, 100
1, 32612, Note_on_c, 0, 69, 100
1, 32660, Note_off_c, 0, 69, 100
1, 32660, Note_on_c, 0, 71, 100
1, 32842, Note_off_c, 0, 71, 100
1, 32842, Note_on_c, 0, 62, 100
1, 32880, Note_off_c, 0, 62, 100
1, 32880, Note_on_c, 0, 67, 100
1, 32918, Note_off_c, 0, 67, 100
1, 32918, Note_on_c, 0, 69, 100
1, 32956, Note_off_c, 0, 69, 100
1, 32956, Note_on_c, 0, 71, 100
1, 32994, Note_off_c, 0, 71, 100
1, 32994, Note_on_c, 0, 67, 100
1, 33042, Note_off_c, 0, 67, 100
1, 33042, Note_on_c, 0, 65, 100
1, 33090, Note_off_c, 0, 65, 100
1, 33090, Note_on_c, 0, 67, 100
1, 33138, Note_off_c, 0, 67, 100
1, 33138, Note_on_c, 0, 69, 100
1, 33378, Note_off_c, 0, 69, 100
1, 33378, Note_on_c, 0, 65, 100
1, 33426, Note_off_c, 0, 65, 100
1, 33426, Note_on_c, 0, 67, 100
1, 33474, Note_off_c, 0, 67, 100
1, 33474, Note_on_c, 0, 69, 100
1, 33522, Note_off_c, 0, 69, 100
1, 33522, Note_on_c, 0, 67, 100
1, 33666, Note_off_c, 0, 67, 100
1, 33666, Note_on_c, 0, 64, 100
1, 33762, Note_off_c, 0, 64, 100
1, 33954, Note_on_c, 0, 62, 100
1, 34050, Note_off_c, 0, 62, 100
1, 34050, Note_on_c, 0, 67, 100
1, 34098, Note_off_c, 0, 67, 100
1, 34098, Note_on_c, 0, 69, 100
1, 34146, Note_off_c, 0, 69, 100
1, 34146, Note_on_c, 0, 71, 100
1, 34210, Note_off_c, 0, 71, 100
1, 34210, Note_on_c, 0, 72, 100
1, 34274, Note_off_c, 0, 72, 100
1, 34274, Note_on_c, 0, 71, 100
1, 34386, Note_off_c, 0, 71, 100
1, 34386, Note_on_c, 0, 72, 100
1, 34530, Note_off_c, 0, 72, 100
1, 34530, Note_on_c, 0, 71, 100
1, 34578, Note_off_c, 0, 71, 100
1, 34578, Note_on_c, 0, 67, 100
1, 34626, Note_off_c, 0, 67, 100
1, 34626, Note_on_c, 0, 65, 100
1, 34674, Note_off_c, 0, 65, 100
1, 34674, Note_on_c, 0, 67, 100
1, 34722, Note_off_c, 0, 67, 100
1, 34722, Note_on_c, 0, 69, 100
1, 34770, Note_off_c, 0, 69, 100
1, 34770, Note_on_c, 0, 70, 100
1, 34914, Note_off_c, 0, 70, 100
1, 34914, Note_on_c, 0, 69, 100
1, 35010, Note_off_c, 0, 69, 100
1, 35010, Note_on_c, 0, 70, 100
1, 35106, Note_off_c, 0, 70, 100
1, 35106, Note_on_c, 0, 69, 100
1, 35202, Note_off_c, 0, 69, 100
1, 35490, Note_on_c, 0, 62, 100
1, 35554, Note_off_c, 0, 62, 100
1, 35554, Note_on_c, 0, 67, 100
1, 35618, Note_off_c, 0, 67, 100
1, 35618, Note_on_c, 0, 69, 100
1, 35682, Note_off_c, 0, 69, 100
1, 35682, Note_on_c, 0, 71, 100
1, 35730, Note_off_c, 0, 71, 100
1, 35730, Note_on_c, 0, 72, 100
1, 36066, Note_off_c, 0, 72, 100
1, 36066, Note_on_c, 0, 71, 100
1, 36114, Note_off_c, 0, 71, 100
1, 36114, Note_on_c, 0, 72, 100
1, 36162, Note_off_c, 0, 72, 100
1, 36162, Note_on_c, 0, 71, 100
1, 36210, Note_off_c, 0, 71, 100
1, 36210, Note_on_c, 0, 69, 100
1, 36258, Note_off_c, 0, 69, 100
1, 36258, Note_on_c, 0, 67, 100
1, 36306, Note_off_c, 0, 67, 100
1, 36306, Note_on_c, 0, 66, 100
1, 36354, Note_off_c, 0, 66, 100
1, 36354, Note_on_c, 0, 65, 100
1, 36402, Note_off_c, 0, 65, 100
1, 36402, Note_on_c, 0, 69, 100
1, 36450, Note_off_c, 0, 69, 100
1, 36450, Note_on_c, 0, 64, 100
1, 36498, Note_off_c, 0, 64, 100
1, 36498, Note_on_c, 0, 67, 100
1, 36546, Note_off_c, 0, 67, 100
1, 36546, Note_on_c, 0, 65, 100
1, 36594, Note_off_c, 0, 65, 100
1, 36594, Note_on_c, 0, 64, 100
1, 36642, Note_off_c, 0, 64, 100
1, 36642, Note_on_c, 0, 62, 100
1, 36738, Note_off_c, 0, 62, 100
1, 37266, Note_on_c, 0, 60, 100
1, 37314, Note_off_c, 0, 60, 100
1, 37314, Note_on_c, 0, 61, 100
1, 37362, Note_off_c, 0, 61, 100
1, 37362, Note_on_c, 0, 63, 100
1, 37794, Note_off_c, 0, 63, 100
1, 37794, Note_on_c, 0, 63, 100
1, 37890, Note_off_c, 0, 63, 100
1, 37890, Note_on_c, 0, 63, 100
1, 37986, Note_off_c, 0, 63, 100
1, 37986, Note_on_c, 0, 63, 100
1, 38178, Note_off_c, 0, 63, 100
1, 38178, Note_on_c, 0, 58, 100
1, 38370, Note_off_c, 0, 58, 100
1, 38562, Note_on_c, 0, 53, 100
1, 38610, Note_off_c, 0, 53, 100
1, 38610, Note_on_c, 0, 56, 100
1, 38658, Note_off_c, 0, 56, 100
1, 38658, Note_on_c, 0, 54, 100
1, 38706, Note_off_c, 0, 54, 100
1, 38706, Note_on_c, 0, 56, 100
1, 38754, Note_off_c, 0, 56, 100
1, 38754, Note_on_c, 0, 58, 100
1, 38802, Note_off_c, 0, 58, 100
1, 38802, Note_on_c, 0, 60, 100
1, 38850, Note_off_c, 0, 60, 100
1, 38850, Note_on_c, 0, 61, 100
1, 38898, Note_off_c, 0, 61, 100
1, 38898, Note_on_c, 0, 63, 100
1, 38946, Note_off_c, 0, 63, 100
1, 38946, Note_on_c, 0, 63, 100
1, 39138, Note_off_c, 0, 63, 100
1, 39138, Note_on_c, 0, 63, 100
1, 39378, Note_off_c, 0, 63, 100
1, 39378, Note_on_c, 0, 65, 100
1, 39426, Note_off_c, 0, 65, 100
1, 39426, Note_on_c, 0, 66, 100
1, 39474, Note_off_c, 0, 66, 100
1, 39474, Note_on_c, 0, 68, 100
1, 39666, Note_off_c, 0, 68, 100
1, 39666, Note_on_c, 0, 58, 100
1, 39858, Note_off_c, 0, 58, 100
1, 40174, Note_on_c, 0, 60, 100
1, 40212, Note_off_c, 0, 60, 100
1, 40212, Note_on_c, 0, 61, 100
1, 40250, Note_off_c, 0, 61, 100
1, 40250, Note_on_c, 0, 63, 100
1, 40384, Note_off_c, 0, 63, 100
1, 40384, Note_on_c, 0, 63, 100
1, 40544, Note_off_c, 0, 63, 100
1, 40544, Note_on_c, 0, 63, 100
1, 40672, Note_off_c, 0, 63, 100
1, 40672, Note_on_c, 0, 64, 100
1, 40720, Note_off_c, 0, 64, 100
1, 40720, Note_on_c, 0, 65, 100
1, 41056, Note_off_c, 0, 65, 100
1, 41056, Note_on_c, 0, 61, 100
1, 41104, Note_off_c, 0, 61, 100
1, 41104, Note_on_c, 0, 63, 100
1, 41152, Note_off_c, 0, 63, 100
1, 41152, Note_on_c, 0, 68, 100
1, 41330, Note_off_c, 0, 68, 100
1, 41330, Note_on_c, 0, 67, 100
1, 41357, Note_off_c, 0, 67, 100
1, 41357, Note_on_c, 0, 65, 100
1, 41384, Note_off_c, 0, 65, 100
1, 41384, Note_on_c, 0, 63, 100
1, 41411, Note_off_c, 0, 63, 100
1, 41411, Note_on_c, 0, 61, 100
1, 41438, Note_off_c, 0, 61, 100
1, 41438, Note_on_c, 0, 63, 100
1, 41726, Note_off_c, 0, 63, 100
1, 41966, Note_on_c, 0, 63, 100
1, 42062, Note_off_c, 0, 63, 100
1, 42062, Note_on_c, 0, 66, 100
1, 42158, Note_off_c, 0, 66, 100
1, 42158, Note_on_c, 0, 73, 100
1, 42254, Note_off_c, 0, 73, 100
1, 42254, Note_on_c, 0, 77, 100
1, 42462, Note_off_c, 0, 77, 100
1, 42462, Note_on_c, 0, 75, 100
1, 42526, Note_off_c, 0, 75, 100
1, 42526, Note_on_c, 0, 73, 100
1, 42590, Note_off_c, 0, 73, 100
1, 42590, Note_on_c, 0, 72, 100
1, 42638, Note_off_c, 0, 72, 100
1, 42638, Note_on_c, 0, 70, 100
1, 42686, Note_off_c, 0, 70, 100
1, 42686, Note_on_c, 0, 68, 100
1, 42734, Note_off_c, 0, 68, 100
1, 42734, Note_on_c, 0, 67, 100
1, 42782, Note_off_c, 0, 67, 100
1, 42782, Note_on_c, 0, 66, 100
1, 42974, Note_off_c, 0, 66, 100
1, 42974, Note_on_c, 0, 64, 100
1, 43022, Note_off_c, 0, 64, 100
1, 43022, Note_on_c, 0, 65, 100
1, 43070, Note_off_c, 0, 65, 100
1, 43070, Note_on_c, 0, 69, 100
1, 43118, Note_off_c, 0, 69, 100
1, 43118, Note_on_c, 0, 76, 100
1, 43166, Note_off_c, 0, 76, 100
1, 43166, Note_on_c, 0, 79, 100
1, 43502, Note_off_c, 0, 79, 100
1, 43502, Note_on_c, 0, 77, 100
1, 43598, Note_off_c, 0, 77, 100
1, 43598, Note_on_c, 0, 76, 100
1, 43694, Note_off_c, 0, 76, 100
1, 43694, Note_on_c, 0, 74, 100
1, 43742, Note_off_c, 0, 74, 100
1, 43742, Note_on_c, 0, 76, 100
1, 43838, Note_off_c, 0, 76, 100
1, 43838, Note_on_c, 0, 72, 100
1, 43998, Note_off_c, 0, 72, 100
1, 43998, Note_on_c, 0, 72, 100
1, 44062, Note_off_c, 0, 72, 100
1, 44062, Note_on_c, 0, 69, 100
1, 44174, Note_off_c, 0, 69, 100
1, 44174, Note_on_c, 0, 65, 100
1, 44222, Note_off_c, 0, 65, 100
1, 44222, Note_on_c, 0, 62, 100
1, 44318, Note_off_c, 0, 62, 100
1, 44318, Note_on_c, 0, 67, 100
1, 44414, Note_off_c, 0, 67, 100
1, 44723, Note_on_c, 0, 72, 100
1, 44744, Note_off_c, 0, 72, 100
1, 44744, Note_on_c, 0, 73, 100
1, 44765, Note_off_c, 0, 73, 100
1, 44765, Note_on_c, 0, 74, 100
1, 44871, Note_off_c, 0, 74, 100
1, 44871, Note_on_c, 0, 73, 100
1, 44892, Note_off_c, 0, 73, 100
1, 44892, Note_on_c, 0, 72, 100
1, 44940, Note_off_c, 0, 72, 100
1, 44940, Note_on_c, 0, 71, 100
1, 44988, Note_off_c, 0, 71, 100
1, 44988, Note_on_c, 0, 69, 100
1, 45036, Note_off_c, 0, 69, 100
1, 45036, Note_on_c, 0, 67, 100
1, 45084, Note_off_c, 0, 67, 100
1, 45084, Note_on_c, 0, 66, 100
1, 45132, Note_off_c, 0, 66, 100
1, 45132, Note_on_c, 0, 65, 100
1, 45180, Note_off_c, 0, 65, 100
1, 45180, Note_on_c, 0, 69, 100
1, 45228, Note_off_c, 0, 69, 100
1, 45228, Note_on_c, 0, 64, 100
1, 45276, Note_off_c, 0, 64, 100
1, 45276, Note_on_c, 0, 67, 100
1, 45324, Note_off_c, 0, 67, 100
1, 45324, Note_on_c, 0, 65, 100
1, 45420, Note_off_c, 0, 65, 100
1, 45420, Note_on_c, 0, 57, 100
1, 45468, Note_off_c, 0, 57, 100
1, 45468, Note_on_c, 0, 59, 100
1, 45516, Note_off_c, 0, 59, 100
1, 45516, Note_on_c, 0, 61, 100
1, 45564, Note_off_c, 0, 61, 100
1, 45564, Note_on_c, 0, 62, 100
1, 45612, Note_off_c, 0, 62, 100
1, 45612, Note_on_c, 0, 64, 100
1, 45660, Note_off_c, 0, 64, 100
1, 45660, Note_on_c, 0, 61, 100
1, 45698, Note_off_c, 0, 61, 100
1, 45698, Note_on_c, 0, 62, 100
1, 45736, Note_off_c, 0, 62, 100
1, 45736, Note_on_c, 0, 64, 100
1, 45774, Note_off_c, 0, 64, 100
1, 45774, Note_on_c, 0, 65, 100
1, 45812, Note_off_c, 0, 65, 100
1, 45812, Note_on_c, 0, 67, 100
1, 45850, Note_off_c, 0, 67, 100
1, 45850, Note_on_c, 0, 69, 100
1, 45946, Note_off_c, 0, 69, 100
1, 46330, Note_on_c, 0, 69, 100
1, 46714, Note_off_c, 0, 69, 100
1, 46714, Note_on_c, 0, 69, 100
1, 46810, Note_off_c, 0, 69, 100
1, 46810, Note_on_c, 0, 69, 100
1, 46906, Note_off_c, 0, 69, 100
1, 46906, Note_on_c, 0, 72, 100
1, 46954, Note_off_c, 0, 72, 100
1, 46954, Note_on_c, 0, 67, 100
1, 47290, Note_off_c, 0, 67, 100
1, 47290, Note_on_c, 0, 66, 100
1, 47386, Note_off_c, 0, 66, 100
1, 47386, Note_on_c, 0, 65, 100
1, 47434, Note_off_c, 0, 65, 100
1, 47434, Note_on_c, 0, 69, 100
1, 47482, Note_off_c, 0, 69, 100
1, 47482, Note_on_c, 0, 64, 100
1, 47530, Note_off_c, 0, 64, 100
1, 47530, Note_on_c, 0, 67, 100
1, 47578, Note_off_c, 0, 67, 100
1, 47578, Note_on_c, 0, 65, 100
1, 47722, Note_off_c, 0, 65, 100
1, 47722, Note_on_c, 0, 57, 100
1, 47818, Note_off_c, 0, 57, 100
1, 47818, Note_on_c, 0, 61, 100
1, 47866, Note_off_c, 0, 61, 100
1, 47866, Note_on_c, 0, 64, 100
1, 47914, Note_off_c, 0, 64, 100
1, 47914, Note_on_c, 0, 61, 100
1, 47962, Note_off_c, 0, 61, 100
1, 47962, Note_on_c, 0, 62, 100
1, 48010, Note_off_c, 0, 62, 100
1, 48010, Note_on_c, 0, 64, 100
1, 48058, Note_off_c, 0, 64, 100
1, 48058, Note_on_c, 0, 65, 100
1, 48106, Note_off_c, 0, 65, 100
1, 48106, Note_on_c, 0, 67, 100
1, 48154, Note_off_c, 0, 67, 100
1, 48154, Note_on_c, 0, 69, 100
1, 48202, Note_off_c, 0, 69, 100
1, 48202, Note_on_c, 0, 72, 100
1, 48250, Note_off_c, 0, 72, 100
1, 48250, Note_on_c, 0, 71, 100
1, 48298, Note_off_c, 0, 71, 100
1, 48298, Note_on_c, 0, 69, 100
1, 48346, Note_off_c, 0, 69, 100
1, 48346, Note_on_c, 0, 68, 100
1, 48394, Note_off_c, 0, 68, 100
1, 48394, Note_on_c, 0, 71, 100
1, 48442, Note_off_c, 0, 71, 100
1, 48442, Note_on_c, 0, 69, 100
1, 48490, Note_off_c, 0, 69, 100
1, 48490, Note_on_c, 0, 65, 100
1, 48538, Note_off_c, 0, 65, 100
1, 48538, Note_on_c, 0, 64, 100
1, 48586, Note_off_c, 0, 64, 100
1, 48586, Note_on_c, 0, 67, 100
1, 48634, Note_off_c, 0, 67, 100
1, 48634, Note_on_c, 0, 65, 100
1, 48682, Note_off_c, 0, 65, 100
1, 48682, Note_on_c, 0, 62, 100
1, 48730, Note_off_c, 0, 62, 100
1, 48730, Note_on_c, 0, 61, 100
1, 48778, Note_off_c, 0, 61, 100
1, 48778, Note_on_c, 0, 64, 100
1, 48826, Note_off_c, 0, 64, 100
1, 48826, Note_on_c, 0, 62, 100
1, 48874, Note_off_c, 0, 62, 100
1, 48874, Note_on_c, 0, 60, 100
1, 48922, Note_off_c, 0, 60, 100
1, 48922, Note_on_c, 0, 59, 100
1, 48970, Note_off_c, 0, 59, 100
1, 48970, Note_on_c, 0, 57, 100
1, 49018, Note_off_c, 0, 57, 100
1, 49018, Note_on_c, 0, 55, 100
1, 49066, Note_off_c, 0, 55, 100
1, 49066, Note_on_c, 0, 54, 100
1, 49114, Note_off_c, 0, 54, 100
1, 49114, Note_on_c, 0, 53, 100
1, 49175, Note_off_c, 0, 53, 100
1, 49175, End_track
0, 0, End_of_file
