0, 0, Header, 1, 1, 192
1, 0, Start_track
1, 0, Title_t, "Melody"
1, 0, Tempo, 451127
1, 0, Key_signature, -3, "minor"
1, 0, Time_signature, 4, 2, 24, 8
1, 96, Note_on_c, 0, 71, 100
1, 192, Note_off_c, 0, 71, 100
1, 192, Note_on_c, 0, 72, 100
1, 288, Note_off_c, 0, 72, 100
1, 288, Note_on_c, 0, 73, 100
1, 447, Note_off_c, 0, 73, 100
1, 447, Note_on_c, 0, 72, 100
1, 511, Note_off_c, 0, 72, 100
1, 511, Note_on_c, 0, 71, 100
1, 575, Note_off_c, 0, 71, 100
1, 575, Note_on_c, 0, 70, 100
1, 671, Note_off_c, 0, 70, 100
1, 671, Note_on_c, 0, 63, 100
1, 767, Note_off_c, 0, 63, 100
1, 767, Note_on_c, 0, 68, 100
1, 831, Note_off_c, 0, 68, 100
1, 831, Note_on_c, 0, 69, 100
1, 895, Note_off_c, 0, 69, 100
1, 895, Note_on_c, 0, 68, 100
1, 959, Note_off_c, 0, 68, 100
1, 959, Note_on_c, 0, 66, 100
1, 1007, Note_off_c, 0, 66, 100
1, 1007, Note_on_c, 0, 63, 100
1, 1055, Note_off_c, 0, 63, 100
1, 1055, Note_on_c, 0, 61, 100
1, 1103, Note_off_c, 0, 61, 100
1, 1103, Note_on_c, 0, 58, 100
1, 1199, Note_off_c, 0, 58, 100
1, 1199, Note_on_c, 0, 57, 100
1, 1247, Note_off_c, 0, 57, 100
1, 1247, Note_on_c, 0, 56, 100
1, 1343, Note_off_c, 0, 56, 100
1, 1343, Note_on_c, 0, 54, 100
1, 1535, Note_off_c, 0, 54, 100
1, 1535, Note_on_c, 0, 51, 100
1, 1727, Note_off_c, 0, 51, 100
1, 2063, Note_on_c, 0, 51, 100
1, 2111, Note_off_c, 0, 51, 100
1, 2111, Note_on_c, 0, 54, 100
1, 2175, Note_off_c, 0, 54, 100
1, 2175, Note_on_c, 0, 56, 100
1, 2239, Note_off_c, 0, 56, 100
1, 2239, Note_on_c, 0, 58, 100
1, 2303, Note_off_c, 0, 58, 100
1, 2303, Note_on_c, 0, 55, 100
1, 2367, Note_off_c, 0, 55, 100
1, 2367, Note_on_c, 0, 56, 100
1, 2431, Note_off_c, 0, 56, 100
1, 2431, Note_on_c, 0, 55, 100
1, 2495, Note_off_c, 0, 55, 100
1, 2495, Note_on_c, 0, 51, 100
1, 2591, Note_off_c, 0, 51, 100
1, 2591, Note_on_c, 0, 51, 100
1, 2639, Note_off_c, 0, 51, 100
1, 2639, Note_on_c, 0, 56, 100
1, 2687, Note_off_c, 0, 56, 100
1, 2687, Note_on_c, 0, 54, 100
1, 2879, Note_off_c, 0, 54, 100
1, 2879, Note_on_c, 0, 48, 100
1, 2927, Note_off_c, 0, 48, 100
1, 2927, Note_on_c, 0, 49, 100
1, 3071, Note_off_c, 0, 49, 100
1, 3071, Note_on_c, 0, 51, 100
1, 3167, Note_off_c, 0, 51, 100
1, 3551, Note_on_c, 0, 51, 100
1, 3599, Note_off_c, 0, 51, 100
1, 3599, Note_on_c, 0, 54, 100
1, 3711, Note_off_c, 0, 54, 100
1, 3711, Note_on_c, 0, 56, 100
1, 3774, Note_off_c, 0, 56, 100
1, 3774, Note_on_c, 0, 58, 100
1, 3838, Note_off_c, 0, 58, 100
1, 3838, Note_on_c, 0, 58, 100
1, 3902, Note_off_c, 0, 58, 100
1, 3902, Note_on_c, 0, 60, 100
1, 3966, Note_off_c, 0, 60, 100
1, 3966, Note_on_c, 0, 61, 100
1, 4030, Note_off_c, 0, 61, 100
1, 4030, Note_on_c, 0, 58, 100
1, 4126, Note_off_c, 0, 58, 100
1, 4126, Note_on_c, 0, 51, 100
1, 4222, Note_off_c, 0, 51, 100
1, 4222, Note_on_c, 0, 55, 100
1, 4270, Note_off_c, 0, 55, 100
1, 4270, Note_on_c, 0, 56, 100
1, 4366, Note_off_c, 0, 56, 100
1, 4366, Note_on_c, 0, 51, 100
1, 4414, Note_off_c, 0, 51, 100
1, 4414, Note_on_c, 0, 54, 100
1, 4606, Note_off_c, 0, 54, 100
1, 4606, Note_on_c, 0, 51, 100
1, 4702, Note_off_c, 0, 51, 100
1, 5182, Note_on_c, 0, 65, 100
1, 5230, Note_off_c, 0, 65, 100
1, 5230, Note_on_c, 0, 61, 100
1, 5278, Note_off_c, 0, 61, 100
1, 5278, Note_on_c, 0, 63, 100
1, 5374, Note_off_c, 0, 63, 100
1, 5374, Note_on_c, 0, 61, 100
1, 5470, Note_off_c, 0, 61, 100
1, 5470, Note_on_c, 0, 58, 100
1, 5566, Note_off_c, 0, 58, 100
1, 5566, Note_on_c, 0, 51, 100
1, 5662, Note_off_c, 0, 51, 100
1, 5662, Note_on_c, 0, 49, 100
1, 5758, Note_off_c, 0, 49, 100
1, 5758, Note_on_c, 0, 56, 100
1, 5806, Note_off_c, 0, 56, 100
1, 5806, Note_on_c, 0, 57, 100
1, 5902, Note_off_c, 0, 57, 100
1, 5902, Note_on_c, 0, 51, 100
1, 5950, Note_off_c, 0, 51, 100
1, 5950, Note_on_c, 0, 53, 100
1, 5998, Note_off_c, 0, 53, 100
1, 5998, Note_on_c, 0, 54, 100
1, 6142, Note_off_c, 0, 54, 100
1, 6142, Note_on_c, 0, 51, 100
1, 6478, Note_off_c, 0, 51, 100
1, 6478, Note_on_c, 0, 64, 100
1, 6526, Note_off_c, 0, 64, 100
1, 6526, Note_on_c, 0, 65, 100
1, 6574, Note_off_c, 0, 65, 100
1, 6574, Note_on_c, 0, 66, 100
1, 6622, Note_off_c, 0, 66, 100
1, 6622, Note_on_c, 0, 67, 100
1, 6670, Note_off_c, 0, 67, 100
1, 6670, Note_on_c, 0, 66, 100
1, 6718, Note_off_c, 0, 66, 100
1, 6718, Note_on_c, 0, 67, 100
1, 6766, Note_off_c, 0, 67, 100
1, 6766, Note_on_c, 0, 68, 100
1, 6814, Note_off_c, 0, 68, 100
1, 6814, Note_on_c, 0, 66, 100
1, 6862, Note_off_c, 0, 66, 100
1, 6862, Note_on_c, 0, 68, 100
1, 6910, Note_off_c, 0, 68, 100
1, 6910, Note_on_c, 0, 69, 100
1, 6958, Note_off_c, 0, 69, 100
1, 6958, Note_on_c, 0, 67, 100
1, 7006, Note_off_c, 0, 67, 100
1, 7006, Note_on_c, 0, 69, 100
1, 7054, Note_off_c, 0, 69, 100
1, 7054, Note_on_c, 0, 70, 100
1, 7102, Note_off_c, 0, 70, 100
1, 7102, Note_on_c, 0, 63, 100
1, 7198, Note_off_c, 0, 63, 100
1, 7198, Note_on_c, 0, 63, 100
1, 7486, Note_off_c, 0, 63, 100
1, 7726, Note_on_c, 0, 63, 100
1, 7774, Note_off_c, 0, 63, 100
1, 7774, Note_on_c, 0, 64, 100
1, 7822, Note_off_c, 0, 64, 100
1, 7822, Note_on_c, 0, 65, 100
1, 7918, Note_off_c, 0, 65, 100
1, 7918, Note_on_c, 0, 67, 100
1, 8014, Note_off_c, 0, 67, 100
1, 8014, Note_on_c, 0, 66, 100
1, 8062, Note_off_c, 0, 66, 100
1, 8062, Note_on_c, 0, 68, 100
1, 8190, Note_off_c, 0, 68, 100
1, 8190, Note_on_c, 0, 60, 100
1, 8318, Note_off_c, 0, 60, 100
1, 8318, Note_on_c, 0, 62, 100
1, 8382, Note_off_c, 0, 62, 100
1, 8382, Note_on_c, 0, 63, 100
1, 8446, Note_off_c, 0, 63, 100
1, 8446, Note_on_c, 0, 65, 100
1, 8638, Note_off_c, 0, 65, 100
1, 8638, Note_on_c, 0, 58, 100
1, 8734, Note_off_c, 0, 58, 100
1, 8734, Note_on_c, 0, 60, 100
1, 8830, Note_off_c, 0, 60, 100
1, 8830, Note_on_c, 0, 61, 100
1, 8926, Note_off_c, 0, 61, 100
1, 8926, Note_on_c, 0, 60, 100
1, 8974, Note_off_c, 0, 60, 100
1, 8974, Note_on_c, 0, 61, 100
1, 9022, Note_off_c, 0, 61, 100
1, 9022, Note_on_c, 0, 62, 100
1, 9214, Note_off_c, 0, 62, 100
1, 9214, Note_on_c, 0, 63, 100
1, 9310, Note_off_c, 0, 63, 100
1, 9310, Note_on_c, 0, 51, 100
1, 9406, Note_off_c, 0, 51, 100
1, 9406, Note_on_c, 0, 51, 100
1, 9502, Note_off_c, 0, 51, 100
1, 9502, Note_on_c, 0, 54, 100
1, 9694, Note_off_c, 0, 54, 100
1, 9982, Note_on_c, 0, 71, 100
1, 10030, Note_off_c, 0, 71, 100
1, 10030, Note_on_c, 0, 72, 100
1, 10078, Note_off_c, 0, 72, 100
1, 10078, Note_on_c, 0, 73, 100
1, 10174, Note_off_c, 0, 73, 100
1, 10174, Note_on_c, 0, 72, 100
1, 10270, Note_off_c, 0, 72, 100
1, 10270, Note_on_c, 0, 71, 100
1, 10366, Note_off_c, 0, 71, 100
1, 10366, Note_on_c, 0, 70, 100
1, 10462, Note_off_c, 0, 70, 100
1, 10462, Note_on_c, 0, 63, 100
1, 10558, Note_off_c, 0, 63, 100
1, 10558, Note_on_c, 0, 65, 100
1, 10654, Note_off_c, 0, 65, 100
1, 10654, Note_on_c, 0, 66, 100
1, 10750, Note_off_c, 0, 66, 100
1, 10750, Note_on_c, 0, 63, 100
1, 11086, Note_off_c, 0, 63, 100
1, 11086, Note_on_c, 0, 58, 100
1, 11134, Note_off_c, 0, 58, 100
1, 11134, Note_on_c, 0, 61, 100
1, 11278, Note_off_c, 0, 61, 100
1, 11278, Note_on_c, 0, 63, 100
1, 11326, Note_off_c, 0, 63, 100
1, 11326, Note_on_c, 0, 65, 100
1, 11422, Note_off_c, 0, 65, 100
1, 11422, Note_on_c, 0, 63, 100
1, 11614, Note_off_c, 0, 63, 100
1, 11902, Note_on_c, 0, 69, 100
1, 11966, Note_off_c, 0, 69, 100
1, 11966, Note_on_c, 0, 68, 100
1, 12030, Note_off_c, 0, 68, 100
1, 12030, Note_on_c, 0, 66, 100
1, 12094, Note_off_c, 0, 66, 100
1, 12094, Note_on_c, 0, 63, 100
1, 12238, Note_off_c, 0, 63, 100
1, 12238, Note_on_c, 0, 63, 100
1, 12430, Note_off_c, 0, 63, 100
1, 12766, Note_on_c, 0, 72, 100
1, 12862, Note_off_c, 0, 72, 100
1, 12862, Note_on_c, 0, 73, 100
1, 12926, Note_off_c, 0, 73, 100
1, 12926, Note_on_c, 0, 69, 100
1, 12989, Note_off_c, 0, 69, 100
1, 12989, Note_on_c, 0, 72, 100
1, 13053, Note_off_c, 0, 72, 100
1, 13053, Note_on_c, 0, 69, 100
1, 13117, Note_off_c, 0, 69, 100
1, 13117, Note_on_c, 0, 65, 100
1, 13181, Note_off_c, 0, 65, 100
1, 13181, Note_on_c, 0, 68, 100
1, 13245, Note_off_c, 0, 68, 100
1, 13245, Note_on_c, 0, 67, 100
1, 13293, Note_off_c, 0, 67, 100
1, 13293, Note_on_c, 0, 63, 100
1, 13341, Note_off_c, 0, 63, 100
1, 13341, Note_on_c, 0, 65, 100
1, 13389, Note_off_c, 0, 65, 100
1, 13389, Note_on_c, 0, 64, 100
1, 13501, Note_off_c, 0, 64, 100
1, 13501, Note_on_c, 0, 61, 100
1, 13565, Note_off_c, 0, 61, 100
1, 13565, Note_on_c, 0, 57, 100
1, 13629, Note_off_c, 0, 57, 100
1, 13629, Note_on_c, 0, 52, 100
1, 13693, Note_off_c, 0, 52, 100
1, 13693, Note_on_c, 0, 49, 100
1, 13757, Note_off_c, 0, 49, 100
1, 13757, Note_on_c, 0, 51, 100
1, 13949, Note_off_c, 0, 51, 100
1, 14301, Note_on_c, 0, 64, 100
1, 14397, Note_off_c, 0, 64, 100
1, 14397, Note_on_c, 0, 66, 100
1, 14473, Note_off_c, 0, 66, 100
1, 14473, Note_on_c, 0, 62, 100
1, 14511, Note_off_c, 0, 62, 100
1, 14511, Note_on_c, 0, 65, 100
1, 14549, Note_off_c, 0, 65, 100
1, 14549, Note_on_c, 0, 63, 100
1, 14635, Note_off_c, 0, 63, 100
1, 14635, Note_on_c, 0, 58, 100
1, 14683, Note_off_c, 0, 58, 100
1, 14683, Note_on_c, 0, 61, 100
1, 14731, Note_off_c, 0, 61, 100
1, 14731, Note_on_c, 0, 60, 100
1, 14843, Note_off_c, 0, 60, 100
1, 14843, Note_on_c, 0, 56, 100
1, 14907, Note_off_c, 0, 56, 100
1, 14907, Note_on_c, 0, 54, 100
1, 14971, Note_off_c, 0, 54, 100
1, 14971, Note_on_c, 0, 58, 100
1, 15035, Note_off_c, 0, 58, 100
1, 15035, Note_on_c, 0, 54, 100
1, 15099, Note_off_c, 0, 54, 100
1, 15099, Note_on_c, 0, 53, 100
1, 15163, Note_off_c, 0, 53, 100
1, 15163, Note_on_c, 0, 51, 100
1, 15227, Note_off_c, 0, 51, 100
1, 15227, Note_on_c, 0, 56, 100
1, 15291, Note_off_c, 0, 56, 100
1, 15291, Note_on_c, 0, 51, 100
1, 15355, Note_off_c, 0, 51, 100
1, 15355, Note_on_c, 0, 54, 100
1, 15419, Note_off_c, 0, 54, 100
1, 15419, Note_on_c, 0, 55, 100
1, 15483, Note_off_c, 0, 55, 100
1, 15483, Note_on_c, 0, 56, 100
1, 15547, Note_off_c, 0, 56, 100
1, 15547, Note_on_c, 0, 57, 100
1, 15611, Note_off_c, 0, 57, 100
1, 15611, Note_on_c, 0, 58, 100
1, 15675, Note_off_c, 0, 58, 100
1, 15675, Note_on_c, 0, 51, 100
1, 15739, Note_off_c, 0, 51, 100
1, 15739, Note_on_c, 0, 54, 100
1, 15787, Note_off_c, 0, 54, 100
1, 15787, Note_on_c, 0, 55, 100
1, 15835, Note_off_c, 0, 55, 100
1, 15835, Note_on_c, 0, 56, 100
1, 15883, Note_off_c, 0, 56, 100
1, 15883, Note_on_c, 0, 57, 100
1, 15979, Note_off_c, 0, 57, 100
1, 15979, Note_on_c, 0, 58, 100
1, 16027, Note_off_c, 0, 58, 100
1, 16027, Note_on_c, 0, 60, 100
1, 16075, Note_off_c, 0, 60, 100
1, 16075, Note_on_c, 0, 62, 100
1, 16171, Note_off_c, 0, 62, 100
1, 16171, Note_on_c, 0, 65, 100
1, 16219, Note_off_c, 0, 65, 100
1, 16219, Note_on_c, 0, 62, 100
1, 16267, Note_off_c, 0, 62, 100
1, 16267, Note_on_c, 0, 63, 100
1, 16315, Note_off_c, 0, 63, 100
1, 16315, Note_on_c, 0, 64, 100
1, 16411, Note_off_c, 0, 64, 100
1, 16411, Note_on_c, 0, 55, 100
1, 16507, Note_off_c, 0, 55, 100
1, 16507, Note_on_c, 0, 58, 100
1, 16555, Note_off_c, 0, 58, 100
1, 16555, Note_on_c, 0, 61, 100
1, 16603, Note_off_c, 0, 61, 100
1, 16603, Note_on_c, 0, 60, 100
1, 16651, Note_off_c, 0, 60, 100
1, 16651, Note_on_c, 0, 55, 100
1, 16699, Note_off_c, 0, 55, 100
1, 16699, Note_on_c, 0, 58, 100
1, 16795, Note_off_c, 0, 58, 100
1, 16795, Note_on_c, 0, 55, 100
1, 16843, Note_off_c, 0, 55, 100
1, 16843, Note_on_c, 0, 56, 100
1, 16891, Note_off_c, 0, 56, 100
1, 16891, Note_on_c, 0, 58, 100
1, 16987, Note_off_c, 0, 58, 100
1, 16987, Note_on_c, 0, 60, 100
1, 17035, Note_off_c, 0, 60, 100
1, 17035, Note_on_c, 0, 63, 100
1, 17083, Note_off_c, 0, 63, 100
1, 17083, Note_on_c, 0, 67, 100
1, 17147, Note_off_c, 0, 67, 100
1, 17147, Note_on_c, 0, 64, 100
1, 17211, Note_off_c, 0, 64, 100
1, 17211, Note_on_c, 0, 65, 100
1, 17275, Note_off_c, 0, 65, 100
1, 17275, Note_on_c, 0, 67, 100
1, 17339, Note_off_c, 0, 67, 100
1, 17339, Note_on_c, 0, 68, 100
1, 17403, Note_off_c, 0, 68, 100
1, 17403, Note_on_c, 0, 70, 100
1, 17467, Note_off_c, 0, 70, 100
1, 17467, Note_on_c, 0, 72, 100
1, 17531, Note_off_c, 0, 72, 100
1, 17531, Note_on_c, 0, 75, 100
1, 17595, Note_off_c, 0, 75, 100
1, 17595, Note_on_c, 0, 74, 100
1, 17659, Note_off_c, 0, 74, 100
1, 17659, Note_on_c, 0, 70, 100
1, 17851, Note_off_c, 0, 70, 100
1, 18043, Note_on_c, 0, 77, 100
1, 18107, Note_off_c, 0, 77, 100
1, 18107, Note_on_c, 0, 78, 100
1, 18171, Note_off_c, 0, 78, 100
1, 18171, Note_on_c, 0, 79, 100
1, 18235, Note_off_c, 0, 79, 100
1, 18235, Note_on_c, 0, 75, 100
1, 18299, Note_off_c, 0, 75, 100
1, 18299, Note_on_c, 0, 73, 100
1, 18363, Note_off_c, 0, 73, 100
1, 18363, Note_on_c, 0, 70, 100
1, 18427, Note_off_c, 0, 70, 100
1, 18427, Note_on_c, 0, 69, 100
1, 18475, Note_off_c, 0, 69, 100
1, 18475, Note_on_c, 0, 68, 100
1, 18571, Note_off_c, 0, 68, 100
1, 18571, Note_on_c, 0, 66, 100
1, 18619, Note_off_c, 0, 66, 100
1, 18619, Note_on_c, 0, 63, 100
1, 18811, Note_off_c, 0, 63, 100
1, 18811, Note_on_c, 0, 65, 100
1, 18859, Note_off_c, 0, 65, 100
1, 18859, Note_on_c, 0, 66, 100
1, 18907, Note_off_c, 0, 66, 100
1, 18907, Note_on_c, 0, 67, 100
1, 18955, Note_off_c, 0, 67, 100
1, 18955, Note_on_c, 0, 70, 100
1, 19003, Note_off_c, 0, 70, 100
1, 19003, Note_on_c, 0, 69, 100
1, 19051, Note_off_c, 0, 69, 100
1, 19051, Note_on_c, 0, 68, 100
1, 19147, Note_off_c, 0, 68, 100
1, 19339, Note_on_c, 0, 68, 100
1, 19387, Note_off_c, 0, 68, 100
1, 19387, Note_on_c, 0, 70, 100
1, 19451, Note_off_c, 0, 70, 100
1, 19451, Note_on_c, 0, 71, 100
1, 19515, Note_off_c, 0, 71, 100
1, 19515, Note_on_c, 0, 72, 100
1, 19627, Note_off_c, 0, 72, 100
1, 19627, Note_on_c, 0, 73, 100
1, 19723, Note_off_c, 0, 73, 100
1, 19723, Note_on_c, 0, 74, 100
1, 19867, Note_off_c, 0, 74, 100
1, 19867, Note_on_c, 0, 75, 100
1, 20155, Note_off_c, 0, 75, 100
1, 20155, Note_on_c, 0, 63, 100
1, 20299, Note_off_c, 0, 63, 100
1, 20299, Note_on_c, 0, 65, 100
1, 20347, Note_off_c, 0, 65, 100
1, 20347, Note_on_c, 0, 66, 100
1, 20539, Note_off_c, 0, 66, 100
1, 20827, Note_on_c, 0, 66, 100
1, 20875, Note_off_c, 0, 66, 100
1, 20875, Note_on_c, 0, 70, 100
1, 20923, Note_off_c, 0, 70, 100
1, 20923, Note_on_c, 0, 71, 100
1, 21067, Note_off_c, 0, 71, 100
1, 21067, Note_on_c, 0, 72, 100
1, 21259, Note_off_c, 0, 72, 100
1, 21259, Note_on_c, 0, 73, 100
1, 21403, Note_off_c, 0, 73, 100
1, 21403, Note_on_c, 0, 74, 100
1, 21499, Note_off_c, 0, 74, 100
1, 21499, Note_on_c, 0, 75, 100
1, 21691, Note_off_c, 0, 75, 100
1, 21691, Note_on_c, 0, 63, 100
1, 21883, Note_off_c, 0, 63, 100
1, 21883, Note_on_c, 0, 66, 100
1, 22027, Note_off_c, 0, 66, 100
1, 22027, Note_on_c, 0, 63, 100
1, 22075, Note_off_c, 0, 63, 100
1, 22075, Note_on_c, 0, 69, 100
1, 22123, Note_off_c, 0, 69, 100
1, 22123, Note_on_c, 0, 68, 100
1, 22171, Note_off_c, 0, 68, 100
1, 22171, Note_on_c, 0, 66, 100
1, 22219, Note_off_c, 0, 66, 100
1, 22219, Note_on_c, 0, 63, 100
1, 22555, Note_off_c, 0, 63, 100
1, 22555, Note_on_c, 0, 69, 100
1, 22603, Note_off_c, 0, 69, 100
1, 22603, Note_on_c, 0, 70, 100
1, 22651, Note_off_c, 0, 70, 100
1, 22651, Note_on_c, 0, 71, 100
1, 22747, Note_off_c, 0, 71, 100
1, 22747, Note_on_c, 0, 72, 100
1, 22987, Note_off_c, 0, 72, 100
1, 22987, Note_on_c, 0, 73, 100
1, 23011, Note_off_c, 0, 73, 100
1, 23011, Note_on_c, 0, 75, 100
1, 23179, Note_off_c, 0, 75, 100
1, 23179, Note_on_c, 0, 63, 100
1, 23227, Note_off_c, 0, 63, 100
1, 23227, Note_on_c, 0, 65, 100
1, 23275, Note_off_c, 0, 65, 100
1, 23275, Note_on_c, 0, 66, 100
1, 23371, Note_off_c, 0, 66, 100
1, 23371, Note_on_c, 0, 63, 100
1, 23419, Note_off_c, 0, 63, 100
1, 23419, Note_on_c, 0, 66, 100
1, 23611, Note_off_c, 0, 66, 100
1, 23611, Note_on_c, 0, 72, 100
1, 23649, Note_off_c, 0, 72, 100
1, 23649, Note_on_c, 0, 71, 100
1, 23687, Note_off_c, 0, 71, 100
1, 23687, Note_on_c, 0, 72, 100
1, 23725, Note_off_c, 0, 72, 100
1, 23725, Note_on_c, 0, 73, 100
1, 23763, Note_off_c, 0, 73, 100
1, 23763, Note_on_c, 0, 74, 100
1, 23849, Note_off_c, 0, 74, 100
1, 23849, Note_on_c, 0, 75, 100
1, 23945, Note_off_c, 0, 75, 100
1, 23945, Note_on_c, 0, 63, 100
1, 23993, Note_off_c, 0, 63, 100
1, 23993, Note_on_c, 0, 65, 100
1, 24041, Note_off_c, 0, 65, 100
1, 24041, Note_on_c, 0, 66, 100
1, 24137, Note_off_c, 0, 66, 100
1, 24137, Note_on_c, 0, 63, 100
1, 24329, Note_off_c, 0, 63, 100
1, 24857, Note_on_c, 0, 70, 100
1, 24905, Note_off_c, 0, 70, 100
1, 24905, Note_on_c, 0, 68, 100
1, 24953, Note_off_c, 0, 68, 100
1, 24953, Note_on_c, 0, 67, 100
1, 25049, Note_off_c, 0, 67, 100
1, 25049, Note_on_c, 0, 70, 100
1, 25097, Note_off_c, 0, 70, 100
1, 25097, Note_on_c, 0, 70, 100
1, 25193, Note_off_c, 0, 70, 100
1, 25457, Note_on_c, 0, 74, 100
1, 25481, Note_off_c, 0, 74, 100
1, 25481, Note_on_c, 0, 72, 100
1, 25505, Note_off_c, 0, 72, 100
1, 25505, Note_on_c, 0, 71, 100
1, 25529, Note_off_c, 0, 71, 100
1, 25529, Note_on_c, 0, 70, 100
1, 25577, Note_off_c, 0, 70, 100
1, 25577, Note_on_c, 0, 68, 100
1, 25625, Note_off_c, 0, 68, 100
1, 25625, Note_on_c, 0, 67, 100
1, 25673, Note_off_c, 0, 67, 100
1, 25673, Note_on_c, 0, 65, 100
1, 25721, Note_off_c, 0, 65, 100
1, 25721, Note_on_c, 0, 64, 100
1, 25769, Note_off_c, 0, 64, 100
1, 25769, Note_on_c, 0, 61, 100
1, 25817, Note_off_c, 0, 61, 100
1, 25817, Note_on_c, 0, 60, 100
1, 25865, Note_off_c, 0, 60, 100
1, 25865, Note_on_c, 0, 58, 100
1, 25913, Note_off_c, 0, 58, 100
1, 25913, Note_on_c, 0, 55, 100
1, 25977, Note_off_c, 0, 55, 100
1, 25977, Note_on_c, 0, 56, 100
1, 26009, Note_off_c, 0, 56, 100
1, 26009, Note_on_c, 0, 58, 100
1, 26041, Note_off_c, 0, 58, 100
1, 26041, Note_on_c, 0, 60, 100
1, 26073, Note_off_c, 0, 60, 100
1, 26073, Note_on_c, 0, 64, 100
1, 26105, Note_off_c, 0, 64, 100
1, 26105, Note_on_c, 0, 67, 100
1, 26153, Note_off_c, 0, 67, 100
1, 26153, Note_on_c, 0, 64, 100
1, 26201, Note_off_c, 0, 64, 100
1, 26201, Note_on_c, 0, 65, 100
1, 26249, Note_off_c, 0, 65, 100
1, 26249, Note_on_c, 0, 67, 100
1, 26297, Note_off_c, 0, 67, 100
1, 26297, Note_on_c, 0, 68, 100
1, 26345, Note_off_c, 0, 68, 100
1, 26345, Note_on_c, 0, 59, 100
1, 26393, Note_off_c, 0, 59, 100
1, 26393, Note_on_c, 0, 60, 100
1, 26441, Note_off_c, 0, 60, 100
1, 26441, Note_on_c, 0, 63, 100
1, 26489, Note_off_c, 0, 63, 100
1, 26489, Note_on_c, 0, 67, 100
1, 26537, Note_off_c, 0, 67, 100
1, 26537, Note_on_c, 0, 66, 100
1, 26585, Note_off_c, 0, 66, 100
1, 26585, Note_on_c, 0, 65, 100
1, 26633, Note_off_c, 0, 65, 100
1, 26633, Note_on_c, 0, 64, 100
1, 26681, Note_off_c, 0, 64, 100
1, 26681, Note_on_c, 0, 63, 100
1, 26729, Note_off_c, 0, 63, 100
1, 26729, Note_on_c, 0, 60, 100
1, 26777, Note_off_c, 0, 60, 100
1, 26777, Note_on_c, 0, 56, 100
1, 26825, Note_off_c, 0, 56, 100
1, 26825, Note_on_c, 0, 53, 100
1, 26873, Note_off_c, 0, 53, 100
1, 26873, Note_on_c, 0, 62, 100
1, 26921, Note_off_c, 0, 62, 100
1, 26921, Note_on_c, 0, 58, 100
1, 26969, Note_off_c, 0, 58, 100
1, 26969, Note_on_c, 0, 60, 100
1, 27017, Note_off_c, 0, 60, 100
1, 27017, Note_on_c, 0, 56, 100
1, 27065, Note_off_c, 0, 56, 100
1, 27065, Note_on_c, 0, 55, 100
1, 27113, Note_off_c, 0, 55, 100
1, 27113, Note_on_c, 0, 53, 100
1, 27161, Note_off_c, 0, 53, 100
1, 27161, Note_on_c, 0, 58, 100
1, 27209, Note_off_c, 0, 58, 100
1, 27209, Note_on_c, 0, 57, 100
1, 27257, Note_off_c, 0, 57, 100
1, 27257, Note_on_c, 0, 56, 100
1, 27305, Note_off_c, 0, 56, 100
1, 27305, Note_on_c, 0, 58, 100
1, 27353, Note_off_c, 0, 58, 100
1, 27353, Note_on_c, 0, 60, 100
1, 27401, Note_off_c, 0, 60, 100
1, 27401, Note_on_c, 0, 62, 100
1, 27449, Note_off_c, 0, 62, 100
1, 27449, Note_on_c, 0, 67, 100
1, 27473, Note_off_c, 0, 67, 100
1, 27473, Note_on_c, 0, 66, 100
1, 27521, Note_off_c, 0, 66, 100
1, 27521, Note_on_c, 0, 61, 100
1, 27545, Note_off_c, 0, 61, 100
1, 27545, Note_on_c, 0, 62, 100
1, 27593, Note_off_c, 0, 62, 100
1, 27593, Note_on_c, 0, 65, 100
1, 27641, Note_off_c, 0, 65, 100
1, 27641, Note_on_c, 0, 63, 100
1, 27689, Note_off_c, 0, 63, 100
1, 27689, Note_on_c, 0, 60, 100
1, 27737, Note_off_c, 0, 60, 100
1, 27737, Note_on_c, 0, 56, 100
1, 27785, Note_off_c, 0, 56, 100
1, 27785, Note_on_c, 0, 53, 100
1, 27833, Note_off_c, 0, 53, 100
1, 27833, Note_on_c, 0, 62, 100
1, 27881, Note_off_c, 0, 62, 100
1, 27881, Note_on_c, 0, 60, 100
1, 27929, Note_off_c, 0, 60, 100
1, 27929, Note_on_c, 0, 58, 100
1, 27977, Note_off_c, 0, 58, 100
1, 27977, Note_on_c, 0, 56, 100
1, 28025, Note_off_c, 0, 56, 100
1, 28025, Note_on_c, 0, 55, 100
1, 28073, Note_off_c, 0, 55, 100
1, 28073, Note_on_c, 0, 58, 100
1, 28121, Note_off_c, 0, 58, 100
1, 28121, Note_on_c, 0, 60, 100
1, 28169, Note_off_c, 0, 60, 100
1, 28169, Note_on_c, 0, 62, 100
1, 28217, Note_off_c, 0, 62, 100
1, 28217, Note_on_c, 0, 65, 100
1, 28265, Note_off_c, 0, 65, 100
1, 28265, Note_on_c, 0, 62, 100
1, 28313, Note_off_c, 0, 62, 100
1, 28313, Note_on_c, 0, 63, 100
1, 28361, Note_off_c, 0, 63, 100
1, 28361, Note_on_c, 0, 65, 100
1, 28409, Note_off_c, 0, 65, 100
1, 28409, Note_on_c, 0, 67, 100
1, 28457, Note_off_c, 0, 67, 100
1, 28457, Note_on_c, 0, 70, 100
1, 28553, Note_off_c, 0, 70, 100
1, 29129, Note_on_c, 0, 77, 100
1, 29177, Note_off_c, 0, 77, 100
1, 29177, Note_on_c, 0, 78, 100
1, 29369, Note_off_c, 0, 78, 100
1, 29369, Note_on_c, 0, 75, 100
1, 29417, Note_off_c, 0, 75, 100
1, 29417, Note_on_c, 0, 73, 100
1, 29465, Note_off_c, 0, 73, 100
1, 29465, Note_on_c, 0, 70, 100
1, 29561, Note_off_c, 0, 70, 100
1, 29561, Note_on_c, 0, 69, 100
1, 29625, Note_off_c, 0, 69, 100
1, 29625, Note_on_c, 0, 68, 100
1, 29689, Note_off_c, 0, 68, 100
1, 29689, Note_on_c, 0, 66, 100
1, 29753, Note_off_c, 0, 66, 100
1, 29753, Note_on_c, 0, 63, 100
1, 29945, Note_off_c, 0, 63, 100
1, 29945, Note_on_c, 0, 54, 100
1, 30009, Note_off_c, 0, 54, 100
1, 30009, Note_on_c, 0, 66, 100
1, 30073, Note_off_c, 0, 66, 100
1, 30073, Note_on_c, 0, 66, 100
1, 30137, Note_off_c, 0, 66, 100
1, 30137, Note_on_c, 0, 63, 100
1, 30281, Note_off_c, 0, 63, 100
1, 30281, Note_on_c, 0, 68, 100
1, 30329, Note_off_c, 0, 68, 100
1, 30329, Note_on_c, 0, 67, 100
1, 30425, Note_off_c, 0, 67, 100
1, 30665, Note_on_c, 0, 78, 100
1, 30905, Note_off_c, 0, 78, 100
1, 30905, Note_on_c, 0, 75, 100
1, 30953, Note_off_c, 0, 75, 100
1, 30953, Note_on_c, 0, 73, 100
1, 31001, Note_off_c, 0, 73, 100
1, 31001, Note_on_c, 0, 70, 100
1, 31049, Note_off_c, 0, 70, 100
1, 31049, Note_on_c, 0, 69, 100
1, 31145, Note_off_c, 0, 69, 100
1, 31145, Note_on_c, 0, 68, 100
1, 31193, Note_off_c, 0, 68, 100
1, 31193, Note_on_c, 0, 66, 100
1, 31289, Note_off_c, 0, 66, 100
1, 31289, Note_on_c, 0, 63, 100
1, 31433, Note_off_c, 0, 63, 100
1, 31433, Note_on_c, 0, 67, 100
1, 31481, Note_off_c, 0, 67, 100
1, 31481, Note_on_c, 0, 68, 100
1, 31529, Note_off_c, 0, 68, 100
1, 31529, Note_on_c, 0, 69, 100
1, 31577, Note_off_c, 0, 69, 100
1, 31577, Note_on_c, 0, 67, 100
1, 31625, Note_off_c, 0, 67, 100
1, 31625, Note_on_c, 0, 68, 100
1, 31673, Note_off_c, 0, 68, 100
1, 31673, Note_on_c, 0, 69, 100
1, 31711, Note_off_c, 0, 69, 100
1, 31711, Note_on_c, 0, 68, 100
1, 31749, Note_off_c, 0, 68, 100
1, 31749, Note_on_c, 0, 71, 100
1, 31787, Note_off_c, 0, 71, 100
1, 31787, Note_on_c, 0, 72, 100
1, 31825, Note_off_c, 0, 72, 100
1, 31825, Note_on_c, 0, 71, 100
1, 31863, Note_off_c, 0, 71, 100
1, 31863, Note_on_c, 0, 70, 100
1, 31959, Note_off_c, 0, 70, 100
1, 31959, Note_on_c, 0, 58, 100
1, 32055, Note_off_c, 0, 58, 100
1, 32055, Note_on_c, 0, 65, 100
1, 32103, Note_off_c, 0, 65, 100
1, 32103, Note_on_c, 0, 68, 100
1, 32151, Note_off_c, 0, 68, 100
1, 32151, Note_on_c, 0, 66, 100
1, 32199, Note_off_c, 0, 66, 100
1, 32199, Note_on_c, 0, 67, 100
1, 32247, Note_off_c, 0, 67, 100
1, 32247, Note_on_c, 0, 63, 100
1, 32311, Note_off_c, 0, 63, 100
1, 32311, Note_on_c, 0, 65, 100
1, 32375, Note_off_c, 0, 65, 100
1, 32375, Note_on_c, 0, 61, 100
1, 32439, Note_off_c, 0, 61, 100
1, 32439, Note_on_c, 0, 58, 100
1, 32535, Note_off_c, 0, 58, 100
1, 32535, Note_on_c, 0, 53, 100
1, 32583, Note_off_c, 0, 53, 100
1, 32583, Note_on_c, 0, 63, 100
1, 32631, Note_off_c, 0, 63, 100
1, 32631, Note_on_c, 0, 61, 100
1, 32695, Note_off_c, 0, 61, 100
1, 32695, Note_on_c, 0, 60, 100
1, 32759, Note_off_c, 0, 60, 100
1, 32759, Note_on_c, 0, 56, 100
1, 32855, Note_off_c, 0, 56, 100
1, 32855, Note_on_c, 0, 54, 100
1, 32919, Note_off_c, 0, 54, 100
1, 32919, Note_on_c, 0, 58, 100
1, 32951, Note_off_c, 0, 58, 100
1, 32951, Note_on_c, 0, 57, 100
1, 32983, Note_off_c, 0, 57, 100
1, 32983, Note_on_c, 0, 51, 100
1, 33175, Note_off_c, 0, 51, 100
1, 33495, Note_on_c, 0, 55, 100
1, 33543, Note_off_c, 0, 55, 100
1, 33543, Note_on_c, 0, 57, 100
1, 33591, Note_off_c, 0, 57, 100
1, 33591, Note_on_c, 0, 60, 100
1, 33629, Note_off_c, 0, 60, 100
1, 33629, Note_on_c, 0, 59, 100
1, 33667, Note_off_c, 0, 59, 100
1, 33667, Note_on_c, 0, 58, 100
1, 33705, Note_off_c, 0, 58, 100
1, 33705, Note_on_c, 0, 56, 100
1, 33743, Note_off_c, 0, 56, 100
1, 33743, Note_on_c, 0, 55, 100
1, 33781, Note_off_c, 0, 55, 100
1, 33781, Note_on_c, 0, 58, 100
1, 33845, Note_off_c, 0, 58, 100
1, 33845, Note_on_c, 0, 60, 100
1, 33909, Note_off_c, 0, 60, 100
1, 33909, Note_on_c, 0, 65, 100
1, 33973, Note_off_c, 0, 65, 100
1, 33973, Note_on_c, 0, 62, 100
1, 34021, Note_off_c, 0, 62, 100
1, 34021, Note_on_c, 0, 63, 100
1, 34117, Note_off_c, 0, 63, 100
1, 34117, Note_on_c, 0, 70, 100
1, 34165, Note_off_c, 0, 70, 100
1, 34165, Note_on_c, 0, 74, 100
1, 34213, Note_off_c, 0, 74, 100
1, 34213, Note_on_c, 0, 75, 100
1, 34261, Note_off_c, 0, 75, 100
1, 34261, Note_on_c, 0, 72, 100
1, 34309, Note_off_c, 0, 72, 100
1, 34309, Note_on_c, 0, 68, 100
1, 34357, Note_off_c, 0, 68, 100
1, 34357, Note_on_c, 0, 67, 100
1, 34405, Note_off_c, 0, 67, 100
1, 34405, Note_on_c, 0, 65, 100
1, 34453, Note_off_c, 0, 65, 100
1, 34453, Note_on_c, 0, 74, 100
1, 34477, Note_off_c, 0, 74, 100
1, 34477, Note_on_c, 0, 73, 100
1, 34501, Note_off_c, 0, 73, 100
1, 34501, Note_on_c, 0, 72, 100
1, 34525, Note_off_c, 0, 72, 100
1, 34525, Note_on_c, 0, 71, 100
1, 34549, Note_off_c, 0, 71, 100
1, 34549, Note_on_c, 0, 70, 100
1, 34597, Note_off_c, 0, 70, 100
1, 34597, Note_on_c, 0, 68, 100
1, 34645, Note_off_c, 0, 68, 100
1, 34645, Note_on_c, 0, 67, 100
1, 34693, Note_off_c, 0, 67, 100
1, 34693, Note_on_c, 0, 65, 100
1, 34741, Note_off_c, 0, 65, 100
1, 34741, Note_on_c, 0, 62, 100
1, 34773, Note_off_c, 0, 62, 100
1, 34773, Note_on_c, 0, 63, 100
1, 34805, Note_off_c, 0, 63, 100
1, 34805, Note_on_c, 0, 62, 100
1, 34837, Note_off_c, 0, 62, 100
1, 34837, Note_on_c, 0, 64, 100
1, 34869, Note_off_c, 0, 64, 100
1, 34869, Note_on_c, 0, 55, 100
1, 34933, Note_off_c, 0, 55, 100
1, 34933, Note_on_c, 0, 58, 100
1, 34971, Note_off_c, 0, 58, 100
1, 34971, Note_on_c, 0, 61, 100
1, 35009, Note_off_c, 0, 61, 100
1, 35009, Note_on_c, 0, 60, 100
1, 35047, Note_off_c, 0, 60, 100
1, 35047, Note_on_c, 0, 55, 100
1, 35085, Note_off_c, 0, 55, 100
1, 35085, Note_on_c, 0, 58, 100
1, 35123, Note_off_c, 0, 58, 100
1, 35123, Note_on_c, 0, 56, 100
1, 35161, Note_off_c, 0, 56, 100
1, 35161, Note_on_c, 0, 57, 100
1, 35199, Note_off_c, 0, 57, 100
1, 35199, Note_on_c, 0, 58, 100
1, 35237, Note_off_c, 0, 58, 100
1, 35237, Note_on_c, 0, 60, 100
1, 35275, Note_off_c, 0, 60, 100
1, 35275, Note_on_c, 0, 64, 100
1, 35313, Note_off_c, 0, 64, 100
1, 35313, Note_on_c, 0, 67, 100
1, 35351, Note_off_c, 0, 67, 100
1, 35351, Note_on_c, 0, 64, 100
1, 35389, Note_off_c, 0, 64, 100
1, 35389, Note_on_c, 0, 65, 100
1, 35427, Note_off_c, 0, 65, 100
1, 35427, Note_on_c, 0, 67, 100
1, 35465, Note_off_c, 0, 67, 100
1, 35465, Note_on_c, 0, 68, 100
1, 35503, Note_off_c, 0, 68, 100
1, 35503, Note_on_c, 0, 70, 100
1, 35567, Note_off_c, 0, 70, 100
1, 35567, Note_on_c, 0, 72, 100
1, 35631, Note_off_c, 0, 72, 100
1, 35631, Note_on_c, 0, 68, 100
1, 35695, Note_off_c, 0, 68, 100
1, 35695, Note_on_c, 0, 67, 100
1, 35733, Note_off_c, 0, 67, 100
1, 35733, Note_on_c, 0, 65, 100
1, 35771, Note_off_c, 0, 65, 100
1, 35771, Note_on_c, 0, 64, 100
1, 35809, Note_off_c, 0, 64, 100
1, 35809, Note_on_c, 0, 65, 100
1, 35847, Note_off_c, 0, 65, 100
1, 35847, Note_on_c, 0, 70, 100
1, 35885, Note_off_c, 0, 70, 100
1, 35885, Note_on_c, 0, 69, 100
1, 35981, Note_off_c, 0, 69, 100
1, 35981, Note_on_c, 0, 68, 100
1, 36077, Note_off_c, 0, 68, 100
1, 36077, Note_on_c, 0, 71, 100
1, 36115, Note_off_c, 0, 71, 100
1, 36115, Note_on_c, 0, 70, 100
1, 36153, Note_off_c, 0, 70, 100
1, 36153, Note_on_c, 0, 69, 100
1, 36191, Note_off_c, 0, 69, 100
1, 36191, Note_on_c, 0, 68, 100
1, 36229, Note_off_c, 0, 68, 100
1, 36229, Note_on_c, 0, 61, 100
1, 36267, Note_off_c, 0, 61, 100
1, 36267, Note_on_c, 0, 68, 100
1, 36315, Note_off_c, 0, 68, 100
1, 36315, Note_on_c, 0, 66, 100
1, 36363, Note_off_c, 0, 66, 100
1, 36363, Note_on_c, 0, 65, 100
1, 36411, Note_off_c, 0, 65, 100
1, 36411, Note_on_c, 0, 64, 100
1, 36459, Note_off_c, 0, 64, 100
1, 36459, Note_on_c, 0, 63, 100
1, 36507, Note_off_c, 0, 63, 100
1, 36507, Note_on_c, 0, 60, 100
1, 36555, Note_off_c, 0, 60, 100
1, 36555, Note_on_c, 0, 56, 100
1, 36603, Note_off_c, 0, 56, 100
1, 36603, Note_on_c, 0, 53, 100
1, 36651, Note_off_c, 0, 53, 100
1, 36651, Note_on_c, 0, 62, 100
1, 36715, Note_off_c, 0, 62, 100
1, 36715, Note_on_c, 0, 58, 100
1, 36747, Note_off_c, 0, 58, 100
1, 36747, Note_on_c, 0, 60, 100
1, 36779, Note_off_c, 0, 60, 100
1, 36779, Note_on_c, 0, 62, 100
1, 36811, Note_off_c, 0, 62, 100
1, 36811, Note_on_c, 0, 65, 100
1, 36843, Note_off_c, 0, 65, 100
1, 36843, Note_on_c, 0, 62, 100
1, 36891, Note_off_c, 0, 62, 100
1, 36891, Note_on_c, 0, 63, 100
1, 36987, Note_off_c, 0, 63, 100
1, 36987, Note_on_c, 0, 70, 100
1, 37035, Note_off_c, 0, 70, 100
1, 37035, Note_on_c, 0, 74, 100
1, 37083, Note_off_c, 0, 74, 100
1, 37083, Note_on_c, 0, 75, 100
1, 37131, Note_off_c, 0, 75, 100
1, 37131, Note_on_c, 0, 70, 100
1, 37179, Note_off_c, 0, 70, 100
1, 37179, Note_on_c, 0, 68, 100
1, 37227, Note_off_c, 0, 68, 100
1, 37227, Note_on_c, 0, 67, 100
1, 37275, Note_off_c, 0, 67, 100
1, 37275, Note_on_c, 0, 63, 100
1, 37371, Note_off_c, 0, 63, 100
1, 37371, Note_on_c, 0, 61, 100
1, 37419, Note_off_c, 0, 61, 100
1, 37419, Note_on_c, 0, 71, 100
1, 37467, Note_off_c, 0, 71, 100
1, 37467, Note_on_c, 0, 72, 100
1, 37563, Note_off_c, 0, 72, 100
1, 37563, Note_on_c, 0, 70, 100
1, 37755, Note_off_c, 0, 70, 100
1, 38187, Note_on_c, 0, 75, 100
1, 38331, Note_off_c, 0, 75, 100
1, 38331, Note_on_c, 0, 87, 100
1, 38379, Note_off_c, 0, 87, 100
1, 38379, Note_on_c, 0, 87, 100
1, 38475, Note_off_c, 0, 87, 100
1, 38955, Note_on_c, 0, 82, 100
1, 39003, Note_off_c, 0, 82, 100
1, 39003, Note_on_c, 0, 84, 100
1, 39099, Note_off_c, 0, 84, 100
1, 39099, Note_on_c, 0, 86, 100
1, 39147, Note_off_c, 0, 86, 100
1, 39147, Note_on_c, 0, 87, 100
1, 39243, Note_off_c, 0, 87, 100
1, 39243, Note_on_c, 0, 87, 100
1, 39339, Note_off_c, 0, 87, 100
1, 39646, Note_on_c, 0, 80, 100
1, 39684, Note_off_c, 0, 80, 100
1, 39684, Note_on_c, 0, 82, 100
1, 39722, Note_off_c, 0, 82, 100
1, 39722, Note_on_c, 0, 83, 100
1, 39746, Note_off_c, 0, 83, 100
1, 39746, Note_on_c, 0, 84, 100
1, 39890, Note_off_c, 0, 84, 100
1, 39890, Note_on_c, 0, 87, 100
1, 39986, Note_off_c, 0, 87, 100
1, 40418, Note_on_c, 0, 80, 100
1, 40442, Note_off_c, 0, 80, 100
1, 40442, Note_on_c, 0, 81, 100
1, 40466, Note_off_c, 0, 81, 100
1, 40466, Note_on_c, 0, 83, 100
1, 40490, Note_off_c, 0, 83, 100
1, 40490, Note_on_c, 0, 84, 100
1, 40586, Note_off_c, 0, 84, 100
1, 40586, Note_on_c, 0, 86, 100
1, 40634, Note_off_c, 0, 86, 100
1, 40634, Note_on_c, 0, 87, 100
1, 40730, Note_off_c, 0, 87, 100
1, 41194, Note_on_c, 0, 84, 100
1, 41226, Note_off_c, 0, 84, 100
1, 41226, Note_on_c, 0, 85, 100
1, 41354, Note_off_c, 0, 85, 100
1, 41354, Note_on_c, 0, 88, 100
1, 41450, Note_off_c, 0, 88, 100
1, 41450, Note_on_c, 0, 88, 100
1, 41546, Note_off_c, 0, 88, 100
1, 41786, Note_on_c, 0, 85, 100
1, 41834, Note_off_c, 0, 85, 100
1, 41834, Note_on_c, 0, 87, 100
1, 41930, Note_off_c, 0, 87, 100
1, 41930, Note_on_c, 0, 88, 100
1, 42122, Note_off_c, 0, 88, 100
1, 42122, Note_on_c, 0, 63, 100
1, 42218, Note_off_c, 0, 63, 100
1, 42218, Note_on_c, 0, 66, 100
1, 42314, Note_off_c, 0, 66, 100
1, 42314, Note_on_c, 0, 64, 100
1, 42410, Note_off_c, 0, 64, 100
1, 42554, Note_on_c, 0, 84, 100
1, 42666, Note_off_c, 0, 84, 100
1, 42666, Note_on_c, 0, 87, 100
1, 42890, Note_off_c, 0, 87, 100
1, 42890, Note_on_c, 0, 63, 100
1, 42986, Note_off_c, 0, 63, 100
1, 42986, Note_on_c, 0, 66, 100
1, 43082, Note_off_c, 0, 66, 100
1, 43082, Note_on_c, 0, 67, 100
1, 43274, Note_off_c, 0, 67, 100
1, 43274, Note_on_c, 0, 84, 100
1, 43370, Note_off_c, 0, 84, 100
1, 43370, Note_on_c, 0, 87, 100
1, 43418, Note_off_c, 0, 87, 100
1, 43418, Note_on_c, 0, 88, 100
1, 43514, Note_off_c, 0, 88, 100
1, 43658, Note_on_c, 0, 63, 100
1, 43754, Note_off_c, 0, 63, 100
1, 43754, Note_on_c, 0, 66, 100
1, 43792, Note_off_c, 0, 66, 100
1, 43792, Note_on_c, 0, 67, 100
1, 43830, Note_off_c, 0, 67, 100
1, 43830, Note_on_c, 0, 68, 100
1, 43868, Note_off_c, 0, 68, 100
1, 43868, Note_on_c, 0, 67, 100
1, 43944, Note_off_c, 0, 67, 100
1, 43944, Note_on_c, 0, 68, 100
1, 43992, Note_off_c, 0, 68, 100
1, 43992, Note_on_c, 0, 69, 100
1, 44040, Note_off_c, 0, 69, 100
1, 44040, Note_on_c, 0, 68, 100
1, 44088, Note_off_c, 0, 68, 100
1, 44088, Note_on_c, 0, 69, 100
1, 44136, Note_off_c, 0, 69, 100
1, 44136, Note_on_c, 0, 70, 100
1, 44264, Note_off_c, 0, 70, 100
1, 44264, Note_on_c, 0, 84, 100
1, 44376, Note_off_c, 0, 84, 100
1, 44376, Note_on_c, 0, 86, 100
1, 44424, Note_off_c, 0, 86, 100
1, 44424, Note_on_c, 0, 87, 100
1, 44616, Note_off_c, 0, 87, 100
1, 44616, Note_on_c, 0, 85, 100
1, 44712, Note_off_c, 0, 85, 100
1, 44712, Note_on_c, 0, 73, 100
1, 44808, Note_off_c, 0, 73, 100
1, 44808, Note_on_c, 0, 82, 100
1, 45000, Note_off_c, 0, 82, 100
1, 45000, Note_on_c, 0, 78, 100
1, 45096, Note_off_c, 0, 78, 100
1, 45096, Note_on_c, 0, 75, 100
1, 45288, Note_off_c, 0, 75, 100
1, 45288, Note_on_c, 0, 77, 100
1, 45384, Note_off_c, 0, 77, 100
1, 45384, Note_on_c, 0, 78, 100
1, 45480, Note_off_c, 0, 78, 100
1, 45480, Note_on_c, 0, 75, 100
1, 45544, Note_off_c, 0, 75, 100
1, 45544, Note_on_c, 0, 73, 100
1, 45608, Note_off_c, 0, 73, 100
1, 45608, Note_on_c, 0, 70, 100
1, 45672, Note_off_c, 0, 70, 100
1, 45672, Note_on_c, 0, 69, 100
1, 45736, Note_off_c, 0, 69, 100
1, 45736, Note_on_c, 0, 68, 100
1, 45800, Note_off_c, 0, 68, 100
1, 45800, Note_on_c, 0, 66, 100
1, 45864, Note_off_c, 0, 66, 100
1, 45864, Note_on_c, 0, 77, 100
1, 45912, Note_off_c, 0, 77, 100
1, 45912, Note_on_c, 0, 78, 100
1, 46008, Note_off_c, 0, 78, 100
1, 46008, Note_on_c, 0, 75, 100
1, 46104, Note_off_c, 0, 75, 100
1, 46104, Note_on_c, 0, 73, 100
1, 46152, Note_off_c, 0, 73, 100
1, 46152, Note_on_c, 0, 70, 100
1, 46248, Note_off_c, 0, 70, 100
1, 46248, Note_on_c, 0, 69, 100
1, 46312, Note_off_c, 0, 69, 100
1, 46312, Note_on_c, 0, 68, 100
1, 46376, Note_off_c, 0, 68, 100
1, 46376, Note_on_c, 0, 66, 100
1, 46440, Note_off_c, 0, 66, 100
1, 46440, Note_on_c, 0, 77, 100
1, 46488, Note_off_c, 0, 77, 100
1, 46488, Note_on_c, 0, 78, 100
1, 46632, Note_off_c, 0, 78, 100
1, 46632, Note_on_c, 0, 75, 100
1, 46696, Note_off_c, 0, 75, 100
1, 46696, Note_on_c, 0, 73, 100
1, 46760, Note_off_c, 0, 73, 100
1, 46760, Note_on_c, 0, 70, 100
1, 46824, Note_off_c, 0, 70, 100
1, 46824, Note_on_c, 0, 68, 100
1, 46888, Note_off_c, 0, 68, 100
1, 46888, Note_on_c, 0, 69, 100
1, 46952, Note_off_c, 0, 69, 100
1, 46952, Note_on_c, 0, 63, 100
1, 47016, Note_off_c, 0, 63, 100
1, 47016, Note_on_c, 0, 69, 100
1, 47080, Note_off_c, 0, 69, 100
1, 47080, Note_on_c, 0, 68, 100
1, 47144, Note_off_c, 0, 68, 100
1, 47144, Note_on_c, 0, 66, 100
1, 47208, Note_off_c, 0, 66, 100
1, 47208, Note_on_c, 0, 63, 100
1, 47464, Note_off_c, 0, 63, 100
1, 47464, Note_on_c, 0, 63, 100
1, 47528, Note_off_c, 0, 63, 100
1, 47528, Note_on_c, 0, 63, 100
1, 47592, Note_off_c, 0, 63, 100
1, 47592, Note_on_c, 0, 66, 100
1, 47640, Note_off_c, 0, 66, 100
1, 47640, Note_on_c, 0, 67, 100
1, 47688, Note_off_c, 0, 67, 100
1, 47688, Note_on_c, 0, 72, 100
1, 47784, Note_off_c, 0, 72, 100
1, 47784, Note_on_c, 0, 71, 100
1, 47822, Note_off_c, 0, 71, 100
1, 47822, Note_on_c, 0, 70, 100
1, 47898, Note_off_c, 0, 70, 100
1, 47898, Note_on_c, 0, 63, 100
1, 48262, Note_off_c, 0, 63, 100
1, 48262, Note_on_c, 0, 63, 100
1, 48310, Note_off_c, 0, 63, 100
1, 48310, Note_on_c, 0, 63, 100
1, 48422, Note_off_c, 0, 63, 100
1, 48422, Note_on_c, 0, 70, 100
1, 48486, Note_off_c, 0, 70, 100
1, 48486, Note_on_c, 0, 68, 100
1, 48550, Note_off_c, 0, 68, 100
1, 48550, Note_on_c, 0, 66, 100
1, 48614, Note_off_c, 0, 66, 100
1, 48614, Note_on_c, 0, 61, 100
1, 48678, Note_off_c, 0, 61, 100
1, 48678, Note_on_c, 0, 63, 100
1, 49030, Note_off_c, 0, 63, 100
1, 49030, Note_on_c, 0, 58, 100
1, 49078, Note_off_c, 0, 58, 100
1, 49078, Note_on_c, 0, 58, 100
1, 49126, Note_off_c, 0, 58, 100
1, 49126, Note_on_c, 0, 61, 100
1, 49174, Note_off_c, 0, 61, 100
1, 49174, Note_on_c, 0, 62, 100
1, 49222, Note_off_c, 0, 62, 100
1, 49222, Note_on_c, 0, 65, 100
1, 49270, Note_off_c, 0, 65, 100
1, 49270, Note_on_c, 0, 64, 100
1, 49318, Note_off_c, 0, 64, 100
1, 49318, Note_on_c, 0, 63, 100
1, 49366, Note_off_c, 0, 63, 100
1, 49366, Note_on_c, 0, 62, 100
1, 49414, Note_off_c, 0, 62, 100
1, 49414, Note_on_c, 0, 61, 100
1, 49462, Note_off_c, 0, 61, 100
1, 49462, Note_on_c, 0, 53, 100
1, 49510, Note_off_c, 0, 53, 100
1, 49510, Note_on_c, 0, 60, 100
1, 49558, Note_off_c, 0, 60, 100
1, 49558, Note_on_c, 0, 58, 100
1, 49606, Note_off_c, 0, 58, 100
1, 49606, Note_on_c, 0, 53, 100
1, 49654, Note_off_c, 0, 53, 100
1, 49654, Note_on_c, 0, 56, 100
1, 49702, Note_off_c, 0, 56, 100
1, 49702, Note_on_c, 0, 55, 100
1, 49750, Note_off_c, 0, 55, 100
1, 49750, Note_on_c, 0, 51, 100
1, 49798, Note_off_c, 0, 51, 100
1, 49798, Note_on_c, 0, 53, 100
1, 49846, Note_off_c, 0, 53, 100
1, 49846, Note_on_c, 0, 49, 100
1, 49894, Note_off_c, 0, 49, 100
1, 49894, Note_on_c, 0, 48, 100
1, 49942, Note_off_c, 0, 48, 100
1, 49942, Note_on_c, 0, 46, 100
1, 49990, Note_off_c, 0, 46, 100
1, 49990, Note_on_c, 0, 51, 100
1, 50038, Note_off_c, 0, 51, 100
1, 50038, Note_on_c, 0, 50, 100
1, 50086, Note_off_c, 0, 50, 100
1, 50086, Note_on_c, 0, 49, 100
1, 50150, Note_off_c, 0, 49, 100
1, 50150, Note_on_c, 0, 50, 100
1, 50182, Note_off_c, 0, 50, 100
1, 50182, Note_on_c, 0, 55, 100
1, 50214, Note_off_c, 0, 55, 100
1, 50214, Note_on_c, 0, 59, 100
1, 50246, Note_off_c, 0, 59, 100
1, 50246, Note_on_c, 0, 66, 100
1, 50278, Note_off_c, 0, 66, 100
1, 50278, Note_on_c, 0, 64, 100
1, 50326, Note_off_c, 0, 64, 100
1, 50326, Note_on_c, 0, 59, 100
1, 50374, Note_off_c, 0, 59, 100
1, 50374, Note_on_c, 0, 57, 100
1, 50422, Note_off_c, 0, 57, 100
1, 50422, Note_on_c, 0, 55, 100
1, 50518, Note_off_c, 0, 55, 100
1, 50518, Note_on_c, 0, 61, 100
1, 50662, Note_off_c, 0, 61, 100
1, 50662, Note_on_c, 0, 60, 100
1, 50758, Note_off_c, 0, 60, 100
1, 50998, Note_on_c, 0, 56, 100
1, 51046, Note_off_c, 0, 56, 100
1, 51046, Note_on_c, 0, 58, 100
1, 51142, Note_off_c, 0, 58, 100
1, 51142, Note_on_c, 0, 54, 100
1, 51238, Note_off_c, 0, 54, 100
1, 51238, Note_on_c, 0, 51, 100
1, 51382, Note_off_c, 0, 51, 100
1, 51382, Note_on_c, 0, 49, 100
1, 51430, Note_off_c, 0, 49, 100
1, 51430, Note_on_c, 0, 48, 100
1, 51526, Note_off_c, 0, 48, 100
1, 51526, Note_on_c, 0, 56, 100
1, 51622, Note_off_c, 0, 56, 100
1, 51958, Note_on_c, 0, 56, 100
1, 52006, Note_off_c, 0, 56, 100
1, 52006, Note_on_c, 0, 57, 100
1, 52102, Note_off_c, 0, 57, 100
1, 52102, Note_on_c, 0, 60, 100
1, 52198, Note_off_c, 0, 60, 100
1, 52198, Note_on_c, 0, 58, 100
1, 52294, Note_off_c, 0, 58, 100
1, 52294, Note_on_c, 0, 55, 100
1, 52390, Note_off_c, 0, 55, 100
1, 52390, Note_on_c, 0, 51, 100
1, 52486, Note_off_c, 0, 51, 100
1, 52486, Note_on_c, 0, 48, 100
1, 52582, Note_off_c, 0, 48, 100
1, 52582, Note_on_c, 0, 56, 100
1, 52678, Note_off_c, 0, 56, 100
1, 52678, Note_on_c, 0, 58, 100
1, 52774, Note_off_c, 0, 58, 100
1, 52774, Note_on_c, 0, 54, 100
1, 52822, Note_off_c, 0, 54, 100
1, 52822, Note_on_c, 0, 55, 100
1, 52918, Note_off_c, 0, 55, 100
1, 52918, Note_on_c, 0, 51, 100
1, 53014, Note_off_c, 0, 51, 100
1, 53446, Note_on_c, 0, 48, 100
1, 53542, Note_off_c, 0, 48, 100
1, 53542, Note_on_c, 0, 51, 100
1, 53638, Note_off_c, 0, 51, 100
1, 53638, Note_on_c, 0, 55, 100
1, 53782, Note_off_c, 0, 55, 100
1, 53782, Note_on_c, 0, 51, 100
1, 53878, Note_off_c, 0, 51, 100
1, 53878, Note_on_c, 0, 48, 100
1, 53926, Note_off_c, 0, 48, 100
1, 53926, Note_on_c, 0, 51, 100
1, 54022, Note_off_c, 0, 51, 100
1, 54022, Note_on_c, 0, 54, 100
1, 54118, Note_off_c, 0, 54, 100
1, 54118, Note_on_c, 0, 51, 100
1, 54214, Note_off_c, 0, 51, 100
1, 54214, Note_on_c, 0, 48, 100
1, 54310, Note_off_c, 0, 48, 100
1, 54310, Note_on_c, 0, 51, 100
1, 54406, Note_off_c, 0, 51, 100
1, 54406, Note_on_c, 0, 55, 100
1, 54502, Note_off_c, 0, 55, 100
1, 54502, Note_on_c, 0, 58, 100
1, 54566, Note_off_c, 0, 58, 100
1, 54566, Note_on_c, 0, 57, 100
1, 54630, Note_off_c, 0, 57, 100
1, 54630, Note_on_c, 0, 56, 100
1, 54694, Note_off_c, 0, 56, 100
1, 54694, Note_on_c, 0, 55, 100
1, 54822, Note_off_c, 0, 55, 100
1, 54822, Note_on_c, 0, 51, 100
1, 54886, Note_off_c, 0, 51, 100
1, 54886, Note_on_c, 0, 46, 100
1, 54982, Note_off_c, 0, 46, 100
1, 54982, Note_on_c, 0, 45, 100
1, 55078, Note_off_c, 0, 45, 100
1, 55078, Note_on_c, 0, 44, 100
1, 55174, Note_off_c, 0, 44, 100
1, 55174, Note_on_c, 0, 53, 100
1, 55270, Note_off_c, 0, 53, 100
1, 55270, Note_on_c, 0, 50, 100
1, 55318, Note_off_c, 0, 50, 100
1, 55318, Note_on_c, 0, 51, 100
1, 55462, Note_off_c, 0, 51, 100
1, 55462, Note_on_c, 0, 60, 100
1, 55606, Note_off_c, 0, 60, 100
1, 55606, Note_on_c, 0, 58, 100
1, 55846, Note_off_c, 0, 58, 100
1, 55846, Note_on_c, 0, 51, 100
1, 56038, Note_off_c, 0, 51, 100
1, 56038, Note_on_c, 0, 56, 100
1, 56134, Note_off_c, 0, 56, 100
1, 56134, Note_on_c, 0, 55, 100
1, 56278, Note_off_c, 0, 55, 100
1, 56278, Note_on_c, 0, 56, 100
1, 56374, Note_off_c, 0, 56, 100
1, 56374, Note_on_c, 0, 54, 100
1, 56422, Note_off_c, 0, 54, 100
1, 56422, Note_on_c, 0, 51, 100
1, 56518, Note_off_c, 0, 51, 100
1, 56518, Note_on_c, 0, 46, 100
1, 56614, Note_off_c, 0, 46, 100
1, 56614, Note_on_c, 0, 49, 100
1, 56758, Note_off_c, 0, 49, 100
1, 56758, Note_on_c, 0, 51, 100
1, 56855, Note_off_c, 0, 51, 100
1, 56855, End_track
0, 0, End_of_file
