0, 0, Header, 1, 1, 192
1, 0, Start_track
1, 0, Title_t, "Melody"
1, 0, Tempo, 331491
1, 0, Key_signature, -3, "minor"
1, 0, Time_signature, 4, 2, 24, 8
1, 96, Note_on_c, 0, 61, 100
1, 192, Note_off_c, 0, 61, 100
1, 192, Note_on_c, 0, 58, 100
1, 288, Note_off_c, 0, 58, 100
1, 288, Note_on_c, 0, 51, 100
1, 384, Note_off_c, 0, 51, 100
1, 384, Note_on_c, 0, 57, 100
1, 480, Note_off_c, 0, 57, 100
1, 480, Note_on_c, 0, 56, 100
1, 528, Note_off_c, 0, 56, 100
1, 528, Note_on_c, 0, 53, 100
1, 576, Note_off_c, 0, 53, 100
1, 576, Note_on_c, 0, 51, 100
1, 768, Note_off_c, 0, 51, 100
1, 1152, Note_on_c, 0, 51, 100
1, 1248, Note_off_c, 0, 51, 100
1, 1248, Note_on_c, 0, 54, 100
1, 1344, Note_off_c, 0, 54, 100
1, 1344, Note_on_c, 0, 56, 100
1, 1488, Note_off_c, 0, 56, 100
1, 1488, Note_on_c, 0, 57, 100
1, 1728, Note_off_c, 0, 57, 100
1, 1728, Note_on_c, 0, 56, 100
1, 1824, Note_off_c, 0, 56, 100
1, 1824, Note_on_c, 0, 54, 100
1, 1920, Note_off_c, 0, 54, 100
1, 1920, Note_on_c, 0, 56, 100
1, 2112, Note_off_c, 0, 56, 100
1, 2112, Note_on_c, 0, 54, 100
1, 2256, Note_off_c, 0, 54, 100
1, 2256, Note_on_c, 0, 57, 100
1, 2496, Note_off_c, 0, 57, 100
1, 2496, Note_on_c, 0, 56, 100
1, 2592, Note_off_c, 0, 56, 100
1, 2592, Note_on_c, 0, 54, 100
1, 2688, Note_off_c, 0, 54, 100
1, 2688, Note_on_c, 0, 56, 100
1, 2880, Note_off_c, 0, 56, 100
1, 2880, Note_on_c, 0, 54, 100
1, 3008, Note_off_c, 0, 54, 100
1, 3008, Note_on_c, 0, 58, 100
1, 3168, Note_off_c, 0, 58, 100
1, 3168, Note_on_c, 0, 63, 100
1, 3504, Note_off_c, 0, 63, 100
1, 3504, Note_on_c, 0, 62, 100
1, 3600, Note_off_c, 0, 62, 100
1, 3600, Note_on_c, 0, 61, 100
1, 3696, Note_off_c, 0, 61, 100
1, 3696, Note_on_c, 0, 59, 100
1, 3792, Note_off_c, 0, 59, 100
1, 3792, Note_on_c, 0, 56, 100
1, 3904, Note_off_c, 0, 56, 100
1, 3904, Note_on_c, 0, 60, 100
1, 4032, Note_off_c, 0, 60, 100
1, 4032, Note_on_c, 0, 65, 100
1, 4224, Note_off_c, 0, 65, 100
1, 4608, Note_on_c, 0, 58, 100
1, 4800, Note_off_c, 0, 58, 100
1, 4800, Note_on_c, 0, 64, 100
1, 5136, Note_off_c, 0, 64, 100
1, 5136, Note_on_c, 0, 62, 100
1, 5184, Note_off_c, 0, 62, 100
1, 5184, Note_on_c, 0, 63, 100
1, 5472, Note_off_c, 0, 63, 100
1, 5472, Note_on_c, 0, 62, 100
1, 5568, Note_off_c, 0, 62, 100
1, 5568, Note_on_c, 0, 61, 100
1, 5664, Note_off_c, 0, 61, 100
1, 5664, Note_on_c, 0, 60, 100
1, 5760, Note_off_c, 0, 60, 100
1, 5760, Note_on_c, 0, 58, 100
1, 5808, Note_off_c, 0, 58, 100
1, 5808, Note_on_c, 0, 57, 100
1, 5904, Note_off_c, 0, 57, 100
1, 5904, Note_on_c, 0, 48, 100
1, 5952, Note_off_c, 0, 48, 100
1, 5952, Note_on_c, 0, 51, 100
1, 6048, Note_off_c, 0, 51, 100
1, 6048, Note_on_c, 0, 55, 100
1, 6144, Note_off_c, 0, 55, 100
1, 6144, Note_on_c, 0, 53, 100
1, 6240, Note_off_c, 0, 53, 100
1, 6240, Note_on_c, 0, 51, 100
1, 6336, Note_off_c, 0, 51, 100
1, 6336, Note_on_c, 0, 45, 100
1, 6400, Note_off_c, 0, 45, 100
1, 6400, Note_on_c, 0, 48, 100
1, 6464, Note_off_c, 0, 48, 100
1, 6464, Note_on_c, 0, 49, 100
1, 6528, Note_off_c, 0, 49, 100
1, 6528, Note_on_c, 0, 50, 100
1, 6720, Note_off_c, 0, 50, 100
1, 6720, Note_on_c, 0, 59, 100
1, 6848, Note_off_c, 0, 59, 100
1, 6848, Note_on_c, 0, 57, 100
1, 6912, Note_off_c, 0, 57, 100
1, 6912, Note_on_c, 0, 58, 100
1, 7104, Note_off_c, 0, 58, 100
1, 7488, Note_on_c, 0, 68, 100
1, 7632, Note_off_c, 0, 68, 100
1, 7632, Note_on_c, 0, 66, 100
1, 7680, Note_off_c, 0, 66, 100
1, 7680, Note_on_c, 0, 67, 100
1, 7968, Note_off_c, 0, 67, 100
1, 8208, Note_on_c, 0, 77, 100
1, 8352, Note_off_c, 0, 77, 100
1, 8352, Note_on_c, 0, 76, 100
1, 8448, Note_off_c, 0, 76, 100
1, 8448, Note_on_c, 0, 75, 100
1, 8736, Note_off_c, 0, 75, 100
1, 8976, Note_on_c, 0, 72, 100
1, 9120, Note_off_c, 0, 72, 100
1, 9120, Note_on_c, 0, 68, 100
1, 9312, Note_off_c, 0, 68, 100
1, 9312, Note_on_c, 0, 66, 100
1, 9504, Note_off_c, 0, 66, 100
1, 9792, Note_on_c, 0, 62, 100
1, 9888, Note_off_c, 0, 62, 100
1, 9888, Note_on_c, 0, 67, 100
1, 9984, Note_off_c, 0, 67, 100
1, 9984, Note_on_c, 0, 70, 100
1, 10176, Note_off_c, 0, 70, 100
1, 10176, Note_on_c, 0, 68, 100
1, 10304, Note_off_c, 0, 68, 100
1, 10304, Note_on_c, 0, 66, 100
1, 10368, Note_off_c, 0, 66, 100
1, 10368, Note_on_c, 0, 67, 100
1, 10512, Note_off_c, 0, 67, 100
1, 10512, Note_on_c, 0, 65, 100
1, 10560, Note_off_c, 0, 65, 100
1, 10560, Note_on_c, 0, 64, 100
1, 10656, Note_off_c, 0, 64, 100
1, 10656, Note_on_c, 0, 67, 100
1, 10752, Note_off_c, 0, 67, 100
1, 10752, Note_on_c, 0, 65, 100
1, 10848, Note_off_c, 0, 65, 100
1, 10848, Note_on_c, 0, 67, 100
1, 10944, Note_off_c, 0, 67, 100
1, 10944, Note_on_c, 0, 68, 100
1, 11040, Note_off_c, 0, 68, 100
1, 11040, Note_on_c, 0, 70, 100
1, 11136, Note_off_c, 0, 70, 100
1, 11136, Note_on_c, 0, 66, 100
1, 11232, Note_off_c, 0, 66, 100
1, 11232, Note_on_c, 0, 58, 100
1, 11328, Note_off_c, 0, 58, 100
1, 11328, Note_on_c, 0, 62, 100
1, 11424, Note_off_c, 0, 62, 100
1, 11424, Note_on_c, 0, 63, 100
1, 11616, Note_off_c, 0, 63, 100
1, 11616, Note_on_c, 0, 67, 100
1, 11712, Note_off_c, 0, 67, 100
1, 11712, Note_on_c, 0, 66, 100
1, 11776, Note_off_c, 0, 66, 100
1, 11776, Note_on_c, 0, 65, 100
1, 11840, Note_off_c, 0, 65, 100
1, 11840, Note_on_c, 0, 64, 100
1, 11904, Note_off_c, 0, 64, 100
1, 11904, Note_on_c, 0, 63, 100
1, 12000, Note_off_c, 0, 63, 100
1, 12000, Note_on_c, 0, 62, 100
1, 12096, Note_off_c, 0, 62, 100
1, 12096, Note_on_c, 0, 61, 100
1, 12192, Note_off_c, 0, 61, 100
1, 12192, Note_on_c, 0, 53, 100
1, 12288, Note_off_c, 0, 53, 100
1, 12288, Note_on_c, 0, 57, 100
1, 12384, Note_off_c, 0, 57, 100
1, 12384, Note_on_c, 0, 60, 100
1, 12480, Note_off_c, 0, 60, 100
1, 12480, Note_on_c, 0, 59, 100
1, 12576, Note_off_c, 0, 59, 100
1, 12576, Note_on_c, 0, 57, 100
1, 12624, Note_off_c, 0, 57, 100
1, 12624, Note_on_c, 0, 58, 100
1, 12768, Note_off_c, 0, 58, 100
1, 12768, Note_on_c, 0, 56, 100
1, 12864, Note_off_c, 0, 56, 100
1, 12864, Note_on_c, 0, 53, 100
1, 13008, Note_off_c, 0, 53, 100
1, 13008, Note_on_c, 0, 54, 100
1, 13248, Note_off_c, 0, 54, 100
1, 13248, Note_on_c, 0, 55, 100
1, 13440, Note_off_c, 0, 55, 100
1, 13440, Note_on_c, 0, 56, 100
1, 13632, Note_off_c, 0, 56, 100
1, 13632, Note_on_c, 0, 57, 100
1, 13824, Note_off_c, 0, 57, 100
1, 13824, Note_on_c, 0, 58, 100
1, 14016, Note_off_c, 0, 58, 100
1, 14016, Note_on_c, 0, 60, 100
1, 14208, Note_off_c, 0, 60, 100
1, 14208, Note_on_c, 0, 61, 100
1, 14400, Note_off_c, 0, 61, 100
1, 14400, Note_on_c, 0, 63, 100
1, 14592, Note_off_c, 0, 63, 100
1, 14592, Note_on_c, 0, 65, 100
1, 14928, Note_off_c, 0, 65, 100
1, 14928, Note_on_c, 0, 61, 100
1, 15024, Note_off_c, 0, 61, 100
1, 15024, Note_on_c, 0, 60, 100
1, 15120, Note_off_c, 0, 60, 100
1, 15120, Note_on_c, 0, 58, 100
1, 15168, Note_off_c, 0, 58, 100
1, 15168, Note_on_c, 0, 57, 100
1, 15296, Note_off_c, 0, 57, 100
1, 15296, Note_on_c, 0, 53, 100
1, 15360, Note_off_c, 0, 53, 100
1, 15360, Note_on_c, 0, 56, 100
1, 15488, Note_off_c, 0, 56, 100
1, 15488, Note_on_c, 0, 53, 100
1, 15600, Note_off_c, 0, 53, 100
1, 15600, Note_on_c, 0, 54, 100
1, 15696, Note_off_c, 0, 54, 100
1, 15696, Note_on_c, 0, 55, 100
1, 15888, Note_off_c, 0, 55, 100
1, 16464, Note_on_c, 0, 70, 100
1, 16656, Note_off_c, 0, 70, 100
1, 17088, Note_on_c, 0, 68, 100
1, 17184, Note_off_c, 0, 68, 100
1, 17184, Note_on_c, 0, 66, 100
1, 17280, Note_off_c, 0, 66, 100
1, 17280, Note_on_c, 0, 65, 100
1, 17472, Note_off_c, 0, 65, 100
1, 17472, Note_on_c, 0, 63, 100
1, 17616, Note_off_c, 0, 63, 100
1, 17616, Note_on_c, 0, 65, 100
1, 17808, Note_off_c, 0, 65, 100
1, 17808, Note_on_c, 0, 57, 100
1, 18000, Note_off_c, 0, 57, 100
1, 18336, Note_on_c, 0, 63, 100
1, 18432, Note_off_c, 0, 63, 100
1, 18432, Note_on_c, 0, 62, 100
1, 18528, Note_off_c, 0, 62, 100
1, 18528, Note_on_c, 0, 70, 100
1, 18624, Note_off_c, 0, 70, 100
1, 19152, Note_on_c, 0, 79, 100
1, 19248, Note_off_c, 0, 79, 100
1, 19536, Note_on_c, 0, 72, 100
1, 19680, Note_off_c, 0, 72, 100
1, 19680, Note_on_c, 0, 73, 100
1, 19872, Note_off_c, 0, 73, 100
1, 20064, Note_on_c, 0, 65, 100
1, 20160, Note_off_c, 0, 65, 100
1, 20160, Note_on_c, 0, 69, 100
1, 20256, Note_off_c, 0, 69, 100
1, 20256, Note_on_c, 0, 72, 100
1, 20352, Note_off_c, 0, 72, 100
1, 20352, Note_on_c, 0, 71, 100
1, 20448, Note_off_c, 0, 71, 100
1, 20448, Note_on_c, 0, 64, 100
1, 20736, Note_off_c, 0, 64, 100
1, 20736, Note_on_c, 0, 70, 100
1, 20832, Note_off_c, 0, 70, 100
1, 21120, Note_on_c, 0, 60, 100
1, 21264, Note_off_c, 0, 60, 100
1, 21264, Note_on_c, 0, 68, 100
1, 21360, Note_off_c, 0, 68, 100
1, 21648, Note_on_c, 0, 66, 100
1, 21744, Note_off_c, 0, 66, 100
1, 21744, Note_on_c, 0, 57, 100
1, 21840, Note_off_c, 0, 57, 100
1, 21840, Note_on_c, 0, 58, 100
1, 21888, Note_off_c, 0, 58, 100
1, 21888, Note_on_c, 0, 65, 100
1, 22032, Note_off_c, 0, 65, 100
1, 22032, Note_on_c, 0, 63, 100
1, 22224, Note_off_c, 0, 63, 100
1, 22224, Note_on_c, 0, 54, 100
1, 22272, Note_off_c, 0, 54, 100
1, 22272, Note_on_c, 0, 62, 100
1, 22464, Note_off_c, 0, 62, 100
1, 22656, Note_on_c, 0, 60, 100
1, 22800, Note_off_c, 0, 60, 100
1, 22800, Note_on_c, 0, 59, 100
1, 22896, Note_off_c, 0, 59, 100
1, 22896, Note_on_c, 0, 60, 100
1, 22992, Note_off_c, 0, 60, 100
1, 22992, Note_on_c, 0, 58, 100
1, 23088, Note_off_c, 0, 58, 100
1, 23088, Note_on_c, 0, 56, 100
1, 23184, Note_off_c, 0, 56, 100
1, 23184, Note_on_c, 0, 51, 100
1, 23296, Note_off_c, 0, 51, 100
1, 23296, Note_on_c, 0, 48, 100
1, 23424, Note_off_c, 0, 48, 100
1, 23424, Note_on_c, 0, 44, 100
1, 23472, Note_off_c, 0, 44, 100
1, 23472, Note_on_c, 0, 47, 100
1, 23520, Note_off_c, 0, 47, 100
1, 23520, Note_on_c, 0, 55, 100
1, 23760, Note_off_c, 0, 55, 100
1, 23760, Note_on_c, 0, 53, 100
1, 23856, Note_off_c, 0, 53, 100
1, 23856, Note_on_c, 0, 51, 100
1, 23952, Note_off_c, 0, 51, 100
1, 23952, Note_on_c, 0, 53, 100
1, 24000, Note_off_c, 0, 53, 100
1, 24000, Note_on_c, 0, 55, 100
1, 24096, Note_off_c, 0, 55, 100
1, 24096, Note_on_c, 0, 58, 100
1, 24256, Note_off_c, 0, 58, 100
1, 24256, Note_on_c, 0, 52, 100
1, 24320, Note_off_c, 0, 52, 100
1, 24320, Note_on_c, 0, 54, 100
1, 24384, Note_off_c, 0, 54, 100
1, 24384, Note_on_c, 0, 56, 100
1, 24576, Note_off_c, 0, 56, 100
1, 24576, Note_on_c, 0, 64, 100
1, 24672, Note_off_c, 0, 64, 100
1, 24672, Note_on_c, 0, 61, 100
1, 24816, Note_off_c, 0, 61, 100
1, 24816, Note_on_c, 0, 59, 100
1, 24912, Note_off_c, 0, 59, 100
1, 24912, Note_on_c, 0, 57, 100
1, 24960, Note_off_c, 0, 57, 100
1, 24960, Note_on_c, 0, 56, 100
1, 25056, Note_off_c, 0, 56, 100
1, 25056, Note_on_c, 0, 58, 100
1, 25216, Note_off_c, 0, 58, 100
1, 25216, Note_on_c, 0, 59, 100
1, 25280, Note_off_c, 0, 59, 100
1, 25280, Note_on_c, 0, 61, 100
1, 25440, Note_off_c, 0, 61, 100
1, 25440, Note_on_c, 0, 63, 100
1, 25536, Note_off_c, 0, 63, 100
1, 25536, Note_on_c, 0, 60, 100
1, 25632, Note_off_c, 0, 60, 100
1, 25632, Note_on_c, 0, 61, 100
1, 25728, Note_off_c, 0, 61, 100
1, 25728, Note_on_c, 0, 65, 100
1, 25920, Note_off_c, 0, 65, 100
1, 25920, Note_on_c, 0, 72, 100
1, 26208, Note_off_c, 0, 72, 100
1, 26752, Note_on_c, 0, 69, 100
1, 26816, Note_off_c, 0, 69, 100
1, 26816, Note_on_c, 0, 70, 100
1, 26880, Note_off_c, 0, 70, 100
1, 26880, Note_on_c, 0, 72, 100
1, 26976, Note_off_c, 0, 72, 100
1, 26976, Note_on_c, 0, 73, 100
1, 27120, Note_off_c, 0, 73, 100
1, 27120, Note_on_c, 0, 65, 100
1, 27168, Note_off_c, 0, 65, 100
1, 27168, Note_on_c, 0, 69, 100
1, 27216, Note_off_c, 0, 69, 100
1, 27216, Note_on_c, 0, 72, 100
1, 27328, Note_off_c, 0, 72, 100
1, 27328, Note_on_c, 0, 71, 100
1, 27392, Note_off_c, 0, 71, 100
1, 27392, Note_on_c, 0, 69, 100
1, 27456, Note_off_c, 0, 69, 100
1, 27456, Note_on_c, 0, 70, 100
1, 27520, Note_off_c, 0, 70, 100
1, 27520, Note_on_c, 0, 68, 100
1, 27584, Note_off_c, 0, 68, 100
1, 27584, Note_on_c, 0, 65, 100
1, 27696, Note_off_c, 0, 65, 100
1, 27696, Note_on_c, 0, 66, 100
1, 27792, Note_off_c, 0, 66, 100
1, 27792, Note_on_c, 0, 67, 100
1, 27904, Note_off_c, 0, 67, 100
1, 27904, Note_on_c, 0, 63, 100
1, 27968, Note_off_c, 0, 63, 100
1, 27968, Note_on_c, 0, 65, 100
1, 28032, Note_off_c, 0, 65, 100
1, 28032, Note_on_c, 0, 61, 100
1, 28160, Note_off_c, 0, 61, 100
1, 28160, Note_on_c, 0, 60, 100
1, 28224, Note_off_c, 0, 60, 100
1, 28224, Note_on_c, 0, 59, 100
1, 28320, Note_off_c, 0, 59, 100
1, 28320, Note_on_c, 0, 58, 100
1, 28464, Note_off_c, 0, 58, 100
1, 28464, Note_on_c, 0, 57, 100
1, 28560, Note_off_c, 0, 57, 100
1, 28560, Note_on_c, 0, 55, 100
1, 28672, Note_off_c, 0, 55, 100
1, 28672, Note_on_c, 0, 56, 100
1, 28736, Note_off_c, 0, 56, 100
1, 28736, Note_on_c, 0, 53, 100
1, 28848, Note_off_c, 0, 53, 100
1, 28848, Note_on_c, 0, 54, 100
1, 28944, Note_off_c, 0, 54, 100
1, 28944, Note_on_c, 0, 58, 100
1, 29056, Note_off_c, 0, 58, 100
1, 29056, Note_on_c, 0, 61, 100
1, 29120, Note_off_c, 0, 61, 100
1, 29120, Note_on_c, 0, 63, 100
1, 29184, Note_off_c, 0, 63, 100
1, 29184, Note_on_c, 0, 64, 100
1, 29376, Note_off_c, 0, 64, 100
1, 29376, Note_on_c, 0, 75, 100
1, 29568, Note_off_c, 0, 75, 100
1, 29568, Note_on_c, 0, 62, 100
1, 29664, Note_off_c, 0, 62, 100
1, 29664, Note_on_c, 0, 63, 100
1, 29808, Note_off_c, 0, 63, 100
1, 29808, Note_on_c, 0, 74, 100
1, 29904, Note_off_c, 0, 74, 100
1, 29904, Note_on_c, 0, 72, 100
1, 30016, Note_off_c, 0, 72, 100
1, 30016, Note_on_c, 0, 70, 100
1, 30144, Note_off_c, 0, 70, 100
1, 30144, Note_on_c, 0, 69, 100
1, 30384, Note_off_c, 0, 69, 100
1, 30384, Note_on_c, 0, 63, 100
1, 30480, Note_off_c, 0, 63, 100
1, 30480, Note_on_c, 0, 60, 100
1, 30576, Note_off_c, 0, 60, 100
1, 30576, Note_on_c, 0, 56, 100
1, 30672, Note_off_c, 0, 56, 100
1, 30672, Note_on_c, 0, 53, 100
1, 30720, Note_off_c, 0, 53, 100
1, 30720, Note_on_c, 0, 61, 100
1, 30768, Note_off_c, 0, 61, 100
1, 30768, Note_on_c, 0, 62, 100
1, 30864, Note_off_c, 0, 62, 100
1, 30864, Note_on_c, 0, 60, 100
1, 30960, Note_off_c, 0, 60, 100
1, 31632, Note_on_c, 0, 63, 100
1, 31824, Note_off_c, 0, 63, 100
1, 31824, Note_on_c, 0, 66, 100
1, 32016, Note_off_c, 0, 66, 100
1, 32016, Note_on_c, 0, 63, 100
1, 32160, Note_off_c, 0, 63, 100
1, 32160, Note_on_c, 0, 63, 100
1, 32256, Note_off_c, 0, 63, 100
1, 32640, Note_on_c, 0, 70, 100
1, 32832, Note_off_c, 0, 70, 100
1, 32832, Note_on_c, 0, 63, 100
1, 33120, Note_off_c, 0, 63, 100
1, 33360, Note_on_c, 0, 72, 100
1, 33504, Note_off_c, 0, 72, 100
1, 33504, Note_on_c, 0, 63, 100
1, 33696, Note_off_c, 0, 63, 100
1, 33696, Note_on_c, 0, 63, 100
1, 33888, Note_off_c, 0, 63, 100
1, 34240, Note_on_c, 0, 74, 100
1, 34304, Note_off_c, 0, 74, 100
1, 34304, Note_on_c, 0, 75, 100
1, 34368, Note_off_c, 0, 75, 100
1, 34368, Note_on_c, 0, 72, 100
1, 34464, Note_off_c, 0, 72, 100
1, 34464, Note_on_c, 0, 74, 100
1, 34560, Note_off_c, 0, 74, 100
1, 34560, Note_on_c, 0, 70, 100
1, 34656, Note_off_c, 0, 70, 100
1, 34656, Note_on_c, 0, 67, 100
1, 34848, Note_off_c, 0, 67, 100
1, 34848, Note_on_c, 0, 65, 100
1, 34944, Note_off_c, 0, 65, 100
1, 34944, Note_on_c, 0, 64, 100
1, 35040, Note_off_c, 0, 64, 100
1, 35040, Note_on_c, 0, 61, 100
1, 35136, Note_off_c, 0, 61, 100
1, 35136, Note_on_c, 0, 60, 100
1, 35232, Note_off_c, 0, 60, 100
1, 35232, Note_on_c, 0, 58, 100
1, 35328, Note_off_c, 0, 58, 100
1, 35328, Note_on_c, 0, 55, 100
1, 35424, Note_off_c, 0, 55, 100
1, 35424, Note_on_c, 0, 56, 100
1, 35472, Note_off_c, 0, 56, 100
1, 35472, Note_on_c, 0, 60, 100
1, 35584, Note_off_c, 0, 60, 100
1, 35584, Note_on_c, 0, 63, 100
1, 35648, Note_off_c, 0, 63, 100
1, 35648, Note_on_c, 0, 67, 100
1, 35712, Note_off_c, 0, 67, 100
1, 35712, Note_on_c, 0, 70, 100
1, 35808, Note_off_c, 0, 70, 100
1, 35808, Note_on_c, 0, 66, 100
1, 35904, Note_off_c, 0, 66, 100
1, 35904, Note_on_c, 0, 62, 100
1, 36000, Note_off_c, 0, 62, 100
1, 36000, Note_on_c, 0, 59, 100
1, 36096, Note_off_c, 0, 59, 100
1, 36096, Note_on_c, 0, 58, 100
1, 36192, Note_off_c, 0, 58, 100
1, 36192, Note_on_c, 0, 68, 100
1, 36672, Note_off_c, 0, 68, 100
1, 36672, Note_on_c, 0, 69, 100
1, 36768, Note_off_c, 0, 69, 100
1, 36768, Note_on_c, 0, 70, 100
1, 36960, Note_off_c, 0, 70, 100
1, 37248, Note_on_c, 0, 70, 100
1, 37344, Note_off_c, 0, 70, 100
1, 37344, Note_on_c, 0, 69, 100
1, 37440, Note_off_c, 0, 69, 100
1, 37440, Note_on_c, 0, 68, 100
1, 37536, Note_off_c, 0, 68, 100
1, 37536, Note_on_c, 0, 73, 100
1, 37632, Note_off_c, 0, 73, 100
1, 37632, Note_on_c, 0, 66, 100
1, 37728, Note_off_c, 0, 66, 100
1, 37728, Note_on_c, 0, 69, 100
1, 37824, Note_off_c, 0, 69, 100
1, 37824, Note_on_c, 0, 72, 100
1, 37920, Note_off_c, 0, 72, 100
1, 37920, Note_on_c, 0, 69, 100
1, 38016, Note_off_c, 0, 69, 100
1, 38016, Note_on_c, 0, 71, 100
1, 38208, Note_off_c, 0, 71, 100
1, 38208, Note_on_c, 0, 67, 100
1, 38304, Note_off_c, 0, 67, 100
1, 38304, Note_on_c, 0, 70, 100
1, 38400, Note_off_c, 0, 70, 100
1, 38400, Note_on_c, 0, 64, 100
1, 38528, Note_off_c, 0, 64, 100
1, 38528, Note_on_c, 0, 68, 100
1, 38592, Note_off_c, 0, 68, 100
1, 38592, Note_on_c, 0, 66, 100
1, 38688, Note_off_c, 0, 66, 100
1, 38688, Note_on_c, 0, 62, 100
1, 38832, Note_off_c, 0, 62, 100
1, 38832, Note_on_c, 0, 66, 100
1, 38880, Note_off_c, 0, 66, 100
1, 38880, Note_on_c, 0, 64, 100
1, 38928, Note_off_c, 0, 64, 100
1, 38928, Note_on_c, 0, 62, 100
1, 38976, Note_off_c, 0, 62, 100
1, 38976, Note_on_c, 0, 59, 100
1, 39072, Note_off_c, 0, 59, 100
1, 39072, Note_on_c, 0, 57, 100
1, 39216, Note_off_c, 0, 57, 100
1, 39216, Note_on_c, 0, 59, 100
1, 39264, Note_off_c, 0, 59, 100
1, 39264, Note_on_c, 0, 60, 100
1, 39312, Note_off_c, 0, 60, 100
1, 39312, Note_on_c, 0, 61, 100
1, 39360, Note_off_c, 0, 61, 100
1, 39360, Note_on_c, 0, 57, 100
1, 39456, Note_off_c, 0, 57, 100
1, 39456, Note_on_c, 0, 58, 100
1, 39648, Note_off_c, 0, 58, 100
1, 39648, Note_on_c, 0, 53, 100
1, 39744, Note_off_c, 0, 53, 100
1, 39744, Note_on_c, 0, 56, 100
1, 39840, Note_off_c, 0, 56, 100
1, 39840, Note_on_c, 0, 58, 100
1, 39888, Note_off_c, 0, 58, 100
1, 39888, Note_on_c, 0, 55, 100
1, 40032, Note_off_c, 0, 55, 100
1, 40032, Note_on_c, 0, 51, 100
1, 40080, Note_off_c, 0, 51, 100
1, 40080, Note_on_c, 0, 49, 100
1, 40224, Note_off_c, 0, 49, 100
1, 40224, Note_on_c, 0, 46, 100
1, 40272, Note_off_c, 0, 46, 100
1, 40272, Note_on_c, 0, 45, 100
1, 40464, Note_off_c, 0, 45, 100
1, 40464, Note_on_c, 0, 59, 100
1, 40608, Note_off_c, 0, 59, 100
1, 40608, Note_on_c, 0, 51, 100
1, 40800, Note_off_c, 0, 51, 100
1, 41136, Note_on_c, 0, 54, 100
1, 41232, Note_off_c, 0, 54, 100
1, 41232, Note_on_c, 0, 57, 100
1, 41280, Note_off_c, 0, 57, 100
1, 41280, Note_on_c, 0, 61, 100
1, 41344, Note_off_c, 0, 61, 100
1, 41344, Note_on_c, 0, 65, 100
1, 41408, Note_off_c, 0, 65, 100
1, 41408, Note_on_c, 0, 64, 100
1, 41472, Note_off_c, 0, 64, 100
1, 41472, Note_on_c, 0, 63, 100
1, 41520, Note_off_c, 0, 63, 100
1, 41520, Note_on_c, 0, 61, 100
1, 41568, Note_off_c, 0, 61, 100
1, 41568, Note_on_c, 0, 60, 100
1, 41616, Note_off_c, 0, 60, 100
1, 41616, Note_on_c, 0, 58, 100
1, 41664, Note_off_c, 0, 58, 100
1, 41664, Note_on_c, 0, 56, 100
1, 41760, Note_off_c, 0, 56, 100
1, 41760, Note_on_c, 0, 55, 100
1, 41808, Note_off_c, 0, 55, 100
1, 41808, Note_on_c, 0, 54, 100
1, 41856, Note_off_c, 0, 54, 100
1, 41856, Note_on_c, 0, 53, 100
1, 41920, Note_off_c, 0, 53, 100
1, 41920, Note_on_c, 0, 52, 100
1, 41984, Note_off_c, 0, 52, 100
1, 41984, Note_on_c, 0, 50, 100
1, 42048, Note_off_c, 0, 50, 100
1, 42048, Note_on_c, 0, 51, 100
1, 42096, Note_off_c, 0, 51, 100
1, 42096, Note_on_c, 0, 49, 100
1, 42144, Note_off_c, 0, 49, 100
1, 42144, Note_on_c, 0, 48, 100
1, 42192, Note_off_c, 0, 48, 100
1, 42192, Note_on_c, 0, 46, 100
1, 42240, Note_off_c, 0, 46, 100
1, 42240, Note_on_c, 0, 45, 100
1, 42336, Note_off_c, 0, 45, 100
1, 42336, Note_on_c, 0, 55, 100
1, 42384, Note_off_c, 0, 55, 100
1, 42384, Note_on_c, 0, 51, 100
1, 42432, Note_off_c, 0, 51, 100
1, 42432, Note_on_c, 0, 49, 100
1, 42496, Note_off_c, 0, 49, 100
1, 42496, Note_on_c, 0, 53, 100
1, 42560, Note_off_c, 0, 53, 100
1, 42560, Note_on_c, 0, 52, 100
1, 42624, Note_off_c, 0, 52, 100
1, 42624, Note_on_c, 0, 51, 100
1, 42688, Note_off_c, 0, 51, 100
1, 42688, Note_on_c, 0, 53, 100
1, 42752, Note_off_c, 0, 53, 100
1, 42752, Note_on_c, 0, 51, 100
1, 42816, Note_off_c, 0, 51, 100
1, 42816, Note_on_c, 0, 53, 100
1, 42864, Note_off_c, 0, 53, 100
1, 42864, Note_on_c, 0, 56, 100
1, 42912, Note_off_c, 0, 56, 100
1, 42912, Note_on_c, 0, 60, 100
1, 42960, Note_off_c, 0, 60, 100
1, 42960, Note_on_c, 0, 54, 100
1, 43046, Note_off_c, 0, 54, 100
1, 43046, Note_on_c, 0, 55, 100
1, 43084, Note_off_c, 0, 55, 100
1, 43084, Note_on_c, 0, 58, 100
1, 43160, Note_off_c, 0, 58, 100
1, 43160, Note_on_c, 0, 57, 100
1, 43198, Note_off_c, 0, 57, 100
1, 43198, Note_on_c, 0, 56, 100
1, 43246, Note_off_c, 0, 56, 100
1, 43246, Note_on_c, 0, 58, 100
1, 43294, Note_off_c, 0, 58, 100
1, 43294, Note_on_c, 0, 60, 100
1, 43390, Note_off_c, 0, 60, 100
1, 43390, Note_on_c, 0, 66, 100
1, 43438, Note_off_c, 0, 66, 100
1, 43438, Note_on_c, 0, 67, 100
1, 43486, Note_off_c, 0, 67, 100
1, 43486, Note_on_c, 0, 70, 100
1, 43582, Note_off_c, 0, 70, 100
1, 43582, Note_on_c, 0, 65, 100
1, 43614, Note_off_c, 0, 65, 100
1, 43614, Note_on_c, 0, 66, 100
1, 43678, Note_off_c, 0, 66, 100
1, 43678, Note_on_c, 0, 62, 100
1, 43710, Note_off_c, 0, 62, 100
1, 43710, Note_on_c, 0, 59, 100
1, 43742, Note_off_c, 0, 59, 100
1, 43742, Note_on_c, 0, 57, 100
1, 43774, Note_off_c, 0, 57, 100
1, 43774, Note_on_c, 0, 58, 100
1, 43870, Note_off_c, 0, 58, 100
1, 44254, Note_on_c, 0, 54, 100
1, 44350, Note_off_c, 0, 54, 100
1, 44350, Note_on_c, 0, 55, 100
1, 44398, Note_off_c, 0, 55, 100
1, 44398, Note_on_c, 0, 58, 100
1, 44446, Note_off_c, 0, 58, 100
1, 44446, Note_on_c, 0, 61, 100
1, 44494, Note_off_c, 0, 61, 100
1, 44494, Note_on_c, 0, 65, 100
1, 44542, Note_off_c, 0, 65, 100
1, 44542, Note_on_c, 0, 60, 100
1, 44638, Note_off_c, 0, 60, 100
1, 44638, Note_on_c, 0, 63, 100
1, 44798, Note_off_c, 0, 63, 100
1, 44798, Note_on_c, 0, 62, 100
1, 44862, Note_off_c, 0, 62, 100
1, 44862, Note_on_c, 0, 60, 100
1, 44926, Note_off_c, 0, 60, 100
1, 44926, Note_on_c, 0, 61, 100
1, 45022, Note_off_c, 0, 61, 100
1, 45022, Note_on_c, 0, 63, 100
1, 45118, Note_off_c, 0, 63, 100
1, 45118, Note_on_c, 0, 65, 100
1, 45214, Note_off_c, 0, 65, 100
1, 45214, Note_on_c, 0, 68, 100
1, 45310, Note_off_c, 0, 68, 100
1, 45310, Note_on_c, 0, 72, 100
1, 45598, Note_off_c, 0, 72, 100
1, 45598, Note_on_c, 0, 65, 100
1, 45694, Note_off_c, 0, 65, 100
1, 45694, Note_on_c, 0, 65, 100
1, 45838, Note_off_c, 0, 65, 100
1, 45838, Note_on_c, 0, 65, 100
1, 45982, Note_off_c, 0, 65, 100
1, 45982, Note_on_c, 0, 65, 100
1, 46222, Note_off_c, 0, 65, 100
1, 46222, Note_on_c, 0, 66, 100
1, 46414, Note_off_c, 0, 66, 100
1, 46606, Note_on_c, 0, 74, 100
1, 46942, Note_off_c, 0, 74, 100
1, 46942, Note_on_c, 0, 67, 100
1, 47038, Note_off_c, 0, 67, 100
1, 47038, Note_on_c, 0, 70, 100
1, 47134, Note_off_c, 0, 70, 100
1, 47134, Note_on_c, 0, 68, 100
1, 47230, Note_off_c, 0, 68, 100
1, 47230, Note_on_c, 0, 67, 100
1, 47326, Note_off_c, 0, 67, 100
1, 47326, Note_on_c, 0, 65, 100
1, 47422, Note_off_c, 0, 65, 100
1, 47422, Note_on_c, 0, 64, 100
1, 47550, Note_off_c, 0, 64, 100
1, 47550, Note_on_c, 0, 67, 100
1, 47614, Note_off_c, 0, 67, 100
1, 47614, Note_on_c, 0, 65, 100
1, 47710, Note_off_c, 0, 65, 100
1, 47710, Note_on_c, 0, 67, 100
1, 47902, Note_off_c, 0, 67, 100
1, 47902, Note_on_c, 0, 69, 100
1, 47998, Note_off_c, 0, 69, 100
1, 47998, Note_on_c, 0, 70, 100
1, 48126, Note_off_c, 0, 70, 100
1, 48126, Note_on_c, 0, 68, 100
1, 48190, Note_off_c, 0, 68, 100
1, 48190, Note_on_c, 0, 69, 100
1, 48286, Note_off_c, 0, 69, 100
1, 48286, Note_on_c, 0, 67, 100
1, 48382, Note_off_c, 0, 67, 100
1, 48382, Note_on_c, 0, 67, 100
1, 48478, Note_off_c, 0, 67, 100
1, 48478, Note_on_c, 0, 63, 100
1, 48574, Note_off_c, 0, 63, 100
1, 48574, Note_on_c, 0, 66, 100
1, 48638, Note_off_c, 0, 66, 100
1, 48638, Note_on_c, 0, 65, 100
1, 48702, Note_off_c, 0, 65, 100
1, 48702, Note_on_c, 0, 62, 100
1, 48766, Note_off_c, 0, 62, 100
1, 48766, Note_on_c, 0, 63, 100
1, 48862, Note_off_c, 0, 63, 100
1, 48862, Note_on_c, 0, 60, 100
1, 48958, Note_off_c, 0, 60, 100
1, 48958, Note_on_c, 0, 56, 100
1, 49054, Note_off_c, 0, 56, 100
1, 49054, Note_on_c, 0, 53, 100
1, 49150, Note_off_c, 0, 53, 100
1, 49150, Note_on_c, 0, 55, 100
1, 49246, Note_off_c, 0, 55, 100
1, 49246, Note_on_c, 0, 58, 100
1, 49342, Note_off_c, 0, 58, 100
1, 49534, Note_on_c, 0, 58, 100
1, 49678, Note_off_c, 0, 58, 100
1, 49678, Note_on_c, 0, 60, 100
1, 49702, Note_off_c, 0, 60, 100
1, 49702, Note_on_c, 0, 63, 100
1, 49822, Note_off_c, 0, 63, 100
1, 49822, Note_on_c, 0, 66, 100
1, 50062, Note_off_c, 0, 66, 100
1, 50062, Note_on_c, 0, 66, 100
1, 50302, Note_off_c, 0, 66, 100
1, 50302, Note_on_c, 0, 63, 100
1, 50446, Note_off_c, 0, 63, 100
1, 50446, Note_on_c, 0, 60, 100
1, 50734, Note_off_c, 0, 60, 100
1, 51022, Note_on_c, 0, 70, 100
1, 51166, Note_off_c, 0, 70, 100
1, 51166, Note_on_c, 0, 68, 100
1, 51262, Note_off_c, 0, 68, 100
1, 51262, Note_on_c, 0, 66, 100
1, 51286, Note_off_c, 0, 66, 100
1, 51286, Note_on_c, 0, 63, 100
1, 51430, Note_off_c, 0, 63, 100
1, 51430, Note_on_c, 0, 63, 100
1, 51646, Note_off_c, 0, 63, 100
1, 51646, Note_on_c, 0, 63, 100
1, 51838, Note_off_c, 0, 63, 100
1, 51838, Note_on_c, 0, 66, 100
1, 51934, Note_off_c, 0, 66, 100
1, 51934, Note_on_c, 0, 67, 100
1, 52030, Note_off_c, 0, 67, 100
1, 52606, Note_on_c, 0, 58, 100
1, 52702, Note_off_c, 0, 58, 100
1, 52702, Note_on_c, 0, 60, 100
1, 52798, Note_off_c, 0, 60, 100
1, 52798, Note_on_c, 0, 63, 100
1, 52942, Note_off_c, 0, 63, 100
1, 52942, Note_on_c, 0, 65, 100
1, 53086, Note_off_c, 0, 65, 100
1, 53086, Note_on_c, 0, 63, 100
1, 53182, Note_off_c, 0, 63, 100
1, 53182, Note_on_c, 0, 66, 100
1, 53326, Note_off_c, 0, 66, 100
1, 53326, Note_on_c, 0, 63, 100
1, 53566, Note_off_c, 0, 63, 100
1, 53566, Note_on_c, 0, 60, 100
1, 53758, Note_off_c, 0, 60, 100
1, 53758, Note_on_c, 0, 77, 100
1, 53902, Note_off_c, 0, 77, 100
1, 53902, Note_on_c, 0, 78, 100
1, 54046, Note_off_c, 0, 78, 100
1, 54046, Note_on_c, 0, 75, 100
1, 54142, Note_off_c, 0, 75, 100
1, 54142, Note_on_c, 0, 73, 100
1, 54238, Note_off_c, 0, 73, 100
1, 54238, Note_on_c, 0, 70, 100
1, 54286, Note_off_c, 0, 70, 100
1, 54286, Note_on_c, 0, 68, 100
1, 54430, Note_off_c, 0, 68, 100
1, 54430, Note_on_c, 0, 66, 100
1, 54526, Note_off_c, 0, 66, 100
1, 54526, Note_on_c, 0, 68, 100
1, 54622, Note_off_c, 0, 68, 100
1, 54622, Note_on_c, 0, 67, 100
1, 54670, Note_off_c, 0, 67, 100
1, 54670, Note_on_c, 0, 68, 100
1, 54814, Note_off_c, 0, 68, 100
1, 54814, Note_on_c, 0, 66, 100
1, 54910, Note_off_c, 0, 66, 100
1, 54910, Note_on_c, 0, 68, 100
1, 55102, Note_off_c, 0, 68, 100
1, 55102, Note_on_c, 0, 66, 100
1, 55198, Note_off_c, 0, 66, 100
1, 55198, Note_on_c, 0, 70, 100
1, 55438, Note_off_c, 0, 70, 100
1, 55438, Note_on_c, 0, 83, 100
1, 55582, Note_off_c, 0, 83, 100
1, 55582, Note_on_c, 0, 81, 100
1, 55774, Note_off_c, 0, 81, 100
1, 55774, Note_on_c, 0, 80, 100
1, 56014, Note_off_c, 0, 80, 100
1, 56014, Note_on_c, 0, 78, 100
1, 56062, Note_off_c, 0, 78, 100
1, 56062, Note_on_c, 0, 79, 100
1, 56158, Note_off_c, 0, 79, 100
1, 56158, Note_on_c, 0, 75, 100
1, 56254, Note_off_c, 0, 75, 100
1, 56254, Note_on_c, 0, 77, 100
1, 56350, Note_off_c, 0, 77, 100
1, 56350, Note_on_c, 0, 72, 100
1, 56446, Note_off_c, 0, 72, 100
1, 56446, Note_on_c, 0, 72, 100
1, 56542, Note_off_c, 0, 72, 100
1, 56542, Note_on_c, 0, 70, 100
1, 56638, Note_off_c, 0, 70, 100
1, 56638, Note_on_c, 0, 69, 100
1, 56782, Note_off_c, 0, 69, 100
1, 56782, Note_on_c, 0, 75, 100
1, 56926, Note_off_c, 0, 75, 100
1, 56926, Note_on_c, 0, 70, 100
1, 57022, Note_off_c, 0, 70, 100
1, 57022, Note_on_c, 0, 67, 100
1, 57118, Note_off_c, 0, 67, 100
1, 57118, Note_on_c, 0, 64, 100
1, 57214, Note_off_c, 0, 64, 100
1, 57214, Note_on_c, 0, 63, 100
1, 57310, Note_off_c, 0, 63, 100
1, 57310, Note_on_c, 0, 61, 100
1, 57406, Note_off_c, 0, 61, 100
1, 57406, Note_on_c, 0, 58, 100
1, 57454, Note_off_c, 0, 58, 100
1, 57454, Note_on_c, 0, 59, 100
1, 57550, Note_off_c, 0, 59, 100
1, 57550, Note_on_c, 0, 60, 100
1, 57742, Note_off_c, 0, 60, 100
1, 57742, Note_on_c, 0, 71, 100
1, 57854, Note_off_c, 0, 71, 100
1, 57854, Note_on_c, 0, 72, 100
1, 57982, Note_off_c, 0, 72, 100
1, 57982, Note_on_c, 0, 68, 100
1, 58174, Note_off_c, 0, 68, 100
1, 58462, Note_on_c, 0, 72, 100
1, 58654, Note_off_c, 0, 72, 100
1, 58654, Note_on_c, 0, 74, 100
1, 58750, Note_off_c, 0, 74, 100
1, 58750, Note_on_c, 0, 68, 100
1, 58942, Note_off_c, 0, 68, 100
1, 58942, Note_on_c, 0, 73, 100
1, 59086, Note_off_c, 0, 73, 100
1, 59086, Note_on_c, 0, 75, 100
1, 59182, Note_off_c, 0, 75, 100
1, 59182, Note_on_c, 0, 74, 100
1, 59278, Note_off_c, 0, 74, 100
1, 59278, Note_on_c, 0, 72, 100
1, 59374, Note_off_c, 0, 72, 100
1, 59374, Note_on_c, 0, 70, 100
1, 59470, Note_off_c, 0, 70, 100
1, 59470, Note_on_c, 0, 68, 100
1, 59518, Note_off_c, 0, 68, 100
1, 59518, Note_on_c, 0, 67, 100
1, 59614, Note_off_c, 0, 67, 100
1, 59614, Note_on_c, 0, 65, 100
1, 59710, Note_off_c, 0, 65, 100
1, 59710, Note_on_c, 0, 64, 100
1, 59806, Note_off_c, 0, 64, 100
1, 59806, Note_on_c, 0, 67, 100
1, 59902, Note_off_c, 0, 67, 100
1, 59902, Note_on_c, 0, 65, 100
1, 59998, Note_off_c, 0, 65, 100
1, 59998, Note_on_c, 0, 67, 100
1, 60094, Note_off_c, 0, 67, 100
1, 60094, Note_on_c, 0, 68, 100
1, 60190, Note_off_c, 0, 68, 100
1, 60190, Note_on_c, 0, 69, 100
1, 60286, Note_off_c, 0, 69, 100
1, 60286, Note_on_c, 0, 70, 100
1, 60382, Note_off_c, 0, 70, 100
1, 60382, Note_on_c, 0, 72, 100
1, 60478, Note_off_c, 0, 72, 100
1, 60478, Note_on_c, 0, 74, 100
1, 60574, Note_off_c, 0, 74, 100
1, 60574, Note_on_c, 0, 77, 100
1, 60670, Note_off_c, 0, 77, 100
1, 60670, Note_on_c, 0, 74, 100
1, 60766, Note_off_c, 0, 74, 100
1, 60766, Note_on_c, 0, 75, 100
1, 60862, Note_off_c, 0, 75, 100
1, 61054, Note_on_c, 0, 79, 100
1, 61150, Note_off_c, 0, 79, 100
1, 61150, Note_on_c, 0, 82, 100
1, 61246, Note_off_c, 0, 82, 100
1, 61246, Note_on_c, 0, 84, 100
1, 61390, Note_off_c, 0, 84, 100
1, 61390, Note_on_c, 0, 86, 100
1, 61486, Note_off_c, 0, 86, 100
1, 61726, Note_on_c, 0, 82, 100
1, 61822, Note_off_c, 0, 82, 100
1, 61822, Note_on_c, 0, 81, 100
1, 61918, Note_off_c, 0, 81, 100
1, 61918, Note_on_c, 0, 78, 100
1, 61966, Note_off_c, 0, 78, 100
1, 61966, Note_on_c, 0, 75, 100
1, 62158, Note_off_c, 0, 75, 100
1, 62158, Note_on_c, 0, 75, 100
1, 62350, Note_off_c, 0, 75, 100
1, 62350, Note_on_c, 0, 75, 100
1, 62542, Note_off_c, 0, 75, 100
1, 62782, Note_on_c, 0, 75, 100
1, 62878, Note_off_c, 0, 75, 100
1, 62878, Note_on_c, 0, 75, 100
1, 62974, Note_off_c, 0, 75, 100
1, 62974, Note_on_c, 0, 75, 100
1, 63022, Note_off_c, 0, 75, 100
1, 63022, Note_on_c, 0, 75, 100
1, 63070, Note_off_c, 0, 75, 100
1, 63070, Note_on_c, 0, 75, 100
1, 63118, Note_off_c, 0, 75, 100
1, 63118, Note_on_c, 0, 75, 100
1, 63214, Note_off_c, 0, 75, 100
1, 63214, Note_on_c, 0, 75, 100
1, 63262, Note_off_c, 0, 75, 100
1, 63262, Note_on_c, 0, 75, 100
1, 63358, Note_off_c, 0, 75, 100
1, 63358, Note_on_c, 0, 79, 100
1, 63694, Note_off_c, 0, 79, 100
1, 63694, Note_on_c, 0, 75, 100
1, 63886, Note_off_c, 0, 75, 100
1, 63886, Note_on_c, 0, 75, 100
1, 64270, Note_off_c, 0, 75, 100
1, 64270, Note_on_c, 0, 75, 100
1, 64366, Note_off_c, 0, 75, 100
1, 64366, Note_on_c, 0, 75, 100
1, 64414, Note_off_c, 0, 75, 100
1, 64414, Note_on_c, 0, 75, 100
1, 64462, Note_off_c, 0, 75, 100
1, 64462, Note_on_c, 0, 75, 100
1, 64558, Note_off_c, 0, 75, 100
1, 64558, Note_on_c, 0, 75, 100
1, 64654, Note_off_c, 0, 75, 100
1, 64654, Note_on_c, 0, 75, 100
1, 64702, Note_off_c, 0, 75, 100
1, 64702, Note_on_c, 0, 75, 100
1, 64766, Note_off_c, 0, 75, 100
1, 64766, Note_on_c, 0, 75, 100
1, 64830, Note_off_c, 0, 75, 100
1, 64830, Note_on_c, 0, 75, 100
1, 64894, Note_off_c, 0, 75, 100
1, 64894, Note_on_c, 0, 82, 100
1, 64990, Note_off_c, 0, 82, 100
1, 65230, Note_on_c, 0, 75, 100
1, 65422, Note_off_c, 0, 75, 100
1, 65422, Note_on_c, 0, 75, 100
1, 65614, Note_off_c, 0, 75, 100
1, 66094, Note_on_c, 0, 84, 100
1, 66238, Note_off_c, 0, 84, 100
1, 66238, Note_on_c, 0, 82, 100
1, 66334, Note_off_c, 0, 82, 100
1, 66334, Note_on_c, 0, 81, 100
1, 66430, Note_off_c, 0, 81, 100
1, 66430, Note_on_c, 0, 78, 100
1, 66526, Note_off_c, 0, 78, 100
1, 66526, Note_on_c, 0, 78, 100
1, 66622, Note_off_c, 0, 78, 100
1, 66622, Note_on_c, 0, 77, 100
1, 66670, Note_off_c, 0, 77, 100
1, 66670, Note_on_c, 0, 76, 100
1, 66814, Note_off_c, 0, 76, 100
1, 66814, Note_on_c, 0, 75, 100
1, 66910, Note_off_c, 0, 75, 100
1, 66910, Note_on_c, 0, 72, 100
1, 67006, Note_off_c, 0, 72, 100
1, 67006, Note_on_c, 0, 70, 100
1, 67150, Note_off_c, 0, 70, 100
1, 67150, Note_on_c, 0, 65, 100
1, 67246, Note_off_c, 0, 65, 100
1, 67246, Note_on_c, 0, 71, 100
1, 67294, Note_off_c, 0, 71, 100
1, 67294, Note_on_c, 0, 68, 100
1, 67342, Note_off_c, 0, 68, 100
1, 67342, Note_on_c, 0, 65, 100
1, 67390, Note_off_c, 0, 65, 100
1, 67390, Note_on_c, 0, 63, 100
1, 67486, Note_off_c, 0, 63, 100
1, 67486, Note_on_c, 0, 59, 100
1, 67582, Note_off_c, 0, 59, 100
1, 67582, Note_on_c, 0, 62, 100
1, 67678, Note_off_c, 0, 62, 100
1, 67678, Note_on_c, 0, 65, 100
1, 67774, Note_off_c, 0, 65, 100
1, 67774, Note_on_c, 0, 68, 100
1, 67870, Note_off_c, 0, 68, 100
1, 67870, Note_on_c, 0, 72, 100
1, 68014, Note_off_c, 0, 72, 100
1, 68014, Note_on_c, 0, 74, 100
1, 68062, Note_off_c, 0, 74, 100
1, 68062, Note_on_c, 0, 75, 100
1, 68158, Note_off_c, 0, 75, 100
1, 68158, Note_on_c, 0, 74, 100
1, 68254, Note_off_c, 0, 74, 100
1, 68254, Note_on_c, 0, 72, 100
1, 68350, Note_off_c, 0, 72, 100
1, 68350, Note_on_c, 0, 70, 100
1, 68446, Note_off_c, 0, 70, 100
1, 68446, Note_on_c, 0, 67, 100
1, 68590, Note_off_c, 0, 67, 100
1, 68590, Note_on_c, 0, 69, 100
1, 68638, Note_off_c, 0, 69, 100
1, 68638, Note_on_c, 0, 68, 100
1, 68686, Note_off_c, 0, 68, 100
1, 68686, Note_on_c, 0, 66, 100
1, 68782, Note_off_c, 0, 66, 100
1, 68782, Note_on_c, 0, 67, 100
1, 68878, Note_off_c, 0, 67, 100
1, 68878, Note_on_c, 0, 62, 100
1, 68926, Note_off_c, 0, 62, 100
1, 68926, Note_on_c, 0, 65, 100
1, 69054, Note_off_c, 0, 65, 100
1, 69054, Note_on_c, 0, 61, 100
1, 69166, Note_off_c, 0, 61, 100
1, 69166, Note_on_c, 0, 58, 100
1, 69262, Note_off_c, 0, 58, 100
1, 69262, Note_on_c, 0, 53, 100
1, 69310, Note_off_c, 0, 53, 100
1, 69310, Note_on_c, 0, 56, 100
1, 69406, Note_off_c, 0, 56, 100
1, 69406, Note_on_c, 0, 55, 100
1, 69502, Note_off_c, 0, 55, 100
1, 69838, Note_on_c, 0, 69, 100
1, 69886, Note_off_c, 0, 69, 100
1, 69886, Note_on_c, 0, 70, 100
1, 70078, Note_off_c, 0, 70, 100
1, 70078, Note_on_c, 0, 68, 100
1, 70174, Note_off_c, 0, 68, 100
1, 70174, Note_on_c, 0, 66, 100
1, 70270, Note_off_c, 0, 66, 100
1, 70270, Note_on_c, 0, 63, 100
1, 70414, Note_off_c, 0, 63, 100
1, 70414, Note_on_c, 0, 60, 100
1, 70558, Note_off_c, 0, 60, 100
1, 70558, Note_on_c, 0, 66, 100
1, 70750, Note_off_c, 0, 66, 100
1, 71134, Note_on_c, 0, 63, 100
1, 71230, Note_off_c, 0, 63, 100
1, 71230, Note_on_c, 0, 69, 100
1, 71294, Note_off_c, 0, 69, 100
1, 71294, Note_on_c, 0, 70, 100
1, 71358, Note_off_c, 0, 70, 100
1, 71358, Note_on_c, 0, 73, 100
1, 71422, Note_off_c, 0, 73, 100
1, 71422, Note_on_c, 0, 69, 100
1, 71518, Note_off_c, 0, 69, 100
1, 71710, Note_on_c, 0, 63, 100
1, 71806, Note_off_c, 0, 63, 100
1, 71806, Note_on_c, 0, 69, 100
1, 71854, Note_off_c, 0, 69, 100
1, 71854, Note_on_c, 0, 70, 100
1, 71902, Note_off_c, 0, 70, 100
1, 71902, Note_on_c, 0, 72, 100
1, 71950, Note_off_c, 0, 72, 100
1, 71950, Note_on_c, 0, 69, 100
1, 72046, Note_off_c, 0, 69, 100
1, 72046, Note_on_c, 0, 68, 100
1, 72094, Note_off_c, 0, 68, 100
1, 72094, Note_on_c, 0, 66, 100
1, 72142, Note_off_c, 0, 66, 100
1, 72142, Note_on_c, 0, 68, 100
1, 72238, Note_off_c, 0, 68, 100
1, 72238, Note_on_c, 0, 66, 100
1, 72286, Note_off_c, 0, 66, 100
1, 72286, Note_on_c, 0, 63, 100
1, 72334, Note_off_c, 0, 63, 100
1, 72334, Note_on_c, 0, 61, 100
1, 72382, Note_off_c, 0, 61, 100
1, 72382, Note_on_c, 0, 58, 100
1, 72478, Note_off_c, 0, 58, 100
1, 72478, Note_on_c, 0, 57, 100
1, 72574, Note_off_c, 0, 57, 100
1, 72574, Note_on_c, 0, 56, 100
1, 72622, Note_off_c, 0, 56, 100
1, 72622, Note_on_c, 0, 54, 100
1, 72670, Note_off_c, 0, 54, 100
1, 72670, Note_on_c, 0, 51, 100
1, 72766, Note_off_c, 0, 51, 100
1, 72766, Note_on_c, 0, 56, 100
1, 72830, Note_off_c, 0, 56, 100
1, 72830, Note_on_c, 0, 51, 100
1, 72894, Note_off_c, 0, 51, 100
1, 72894, Note_on_c, 0, 54, 100
1, 72958, Note_off_c, 0, 54, 100
1, 72958, Note_on_c, 0, 55, 100
1, 73022, Note_off_c, 0, 55, 100
1, 73022, Note_on_c, 0, 58, 100
1, 73086, Note_off_c, 0, 58, 100
1, 73086, Note_on_c, 0, 60, 100
1, 73150, Note_off_c, 0, 60, 100
1, 73150, Note_on_c, 0, 63, 100
1, 73278, Note_off_c, 0, 63, 100
1, 73278, Note_on_c, 0, 65, 100
1, 73438, Note_off_c, 0, 65, 100
1, 73438, Note_on_c, 0, 63, 100
1, 73534, Note_off_c, 0, 63, 100
1, 73534, Note_on_c, 0, 61, 100
1, 73582, Note_off_c, 0, 61, 100
1, 73582, Note_on_c, 0, 58, 100
1, 73630, Note_off_c, 0, 58, 100
1, 73630, Note_on_c, 0, 54, 100
1, 73678, Note_off_c, 0, 54, 100
1, 73678, Note_on_c, 0, 56, 100
1, 73726, Note_off_c, 0, 56, 100
1, 73726, Note_on_c, 0, 57, 100
1, 73790, Note_off_c, 0, 57, 100
1, 73790, Note_on_c, 0, 56, 100
1, 73854, Note_off_c, 0, 56, 100
1, 73854, Note_on_c, 0, 54, 100
1, 73918, Note_off_c, 0, 54, 100
1, 73918, Note_on_c, 0, 51, 100
1, 74014, Note_off_c, 0, 51, 100
1, 74014, Note_on_c, 0, 56, 100
1, 74158, Note_off_c, 0, 56, 100
1, 74158, Note_on_c, 0, 54, 100
1, 74302, Note_off_c, 0, 54, 100
1, 74302, Note_on_c, 0, 47, 100
1, 74350, Note_off_c, 0, 47, 100
1, 74350, Note_on_c, 0, 48, 100
1, 74398, Note_off_c, 0, 48, 100
1, 74398, Note_on_c, 0, 51, 100
1, 74564, Note_off_c, 0, 51, 100
1, 74564, End_track
0, 0, End_of_file
