0, 0, Header, 1, 1, 192
1, 0, Start_track
1, 0, Title_t, "Melody"
1, 0, Tempo, 714285
1, 0, Key_signature, -2, "major"
1, 0, Time_signature, 4, 2, 24, 8
1, 528, Note_on_c, 0, 60, 100
1, 576, Note_off_c, 0, 60, 100
1, 576, Note_on_c, 0, 62, 100
1, 672, Note_off_c, 0, 62, 100
1, 672, Note_on_c, 0, 63, 100
1, 720, Note_off_c, 0, 63, 100
1, 720, Note_on_c, 0, 65, 100
1, 768, Note_off_c, 0, 65, 100
1, 768, Note_on_c, 0, 64, 100
1, 816, Note_off_c, 0, 64, 100
1, 816, Note_on_c, 0, 62, 100
1, 1008, Note_off_c, 0, 62, 100
1, 1008, Note_on_c, 0, 55, 100
1, 1056, Note_off_c, 0, 55, 100
1, 1056, Note_on_c, 0, 58, 100
1, 1104, Note_off_c, 0, 58, 100
1, 1104, Note_on_c, 0, 60, 100
1, 1152, Note_off_c, 0, 60, 100
1, 1152, Note_on_c, 0, 62, 100
1, 1248, Note_off_c, 0, 62, 100
1, 1248, Note_on_c, 0, 62, 100
1, 1296, Note_off_c, 0, 62, 100
1, 1296, Note_on_c, 0, 58, 100
1, 1344, Note_off_c, 0, 58, 100
1, 1344, Note_on_c, 0, 64, 100
1, 1392, Note_off_c, 0, 64, 100
1, 1392, Note_on_c, 0, 65, 100
1, 1440, Note_off_c, 0, 65, 100
1, 1440, Note_on_c, 0, 65, 100
1, 1488, Note_off_c, 0, 65, 100
1, 1488, Note_on_c, 0, 67, 100
1, 1536, Note_off_c, 0, 67, 100
1, 1536, Note_on_c, 0, 62, 100
1, 1632, Note_off_c, 0, 62, 100
1, 1632, Note_on_c, 0, 62, 100
1, 1872, Note_off_c, 0, 62, 100
1, 1872, Note_on_c, 0, 60, 100
1, 1920, Note_off_c, 0, 60, 100
1, 1920, Note_on_c, 0, 58, 100
1, 1968, Note_off_c, 0, 58, 100
1, 1968, Note_on_c, 0, 60, 100
1, 2016, Note_off_c, 0, 60, 100
1, 2016, Note_on_c, 0, 53, 100
1, 2064, Note_off_c, 0, 53, 100
1, 2064, Note_on_c, 0, 58, 100
1, 2112, Note_off_c, 0, 58, 100
1, 2112, Note_on_c, 0, 55, 100
1, 2166, Note_off_c, 0, 55, 100
1, 2166, Note_on_c, 0, 50, 100
1, 2193, Note_off_c, 0, 50, 100
1, 2193, Note_on_c, 0, 53, 100
1, 2220, Note_off_c, 0, 53, 100
1, 2220, Note_on_c, 0, 55, 100
1, 2247, Note_off_c, 0, 55, 100
1, 2247, Note_on_c, 0, 53, 100
1, 2274, Note_off_c, 0, 53, 100
1, 2274, Note_on_c, 0, 50, 100
1, 2301, Note_off_c, 0, 50, 100
1, 2301, Note_on_c, 0, 51, 100
1, 2397, Note_off_c, 0, 51, 100
1, 2589, Note_on_c, 0, 63, 100
1, 2637, Note_off_c, 0, 63, 100
1, 2637, Note_on_c, 0, 67, 100
1, 2685, Note_off_c, 0, 67, 100
1, 2685, Note_on_c, 0, 70, 100
1, 2733, Note_off_c, 0, 70, 100
1, 2733, Note_on_c, 0, 72, 100
1, 2781, Note_off_c, 0, 72, 100
1, 2781, Note_on_c, 0, 74, 100
1, 2829, Note_off_c, 0, 74, 100
1, 2829, Note_on_c, 0, 75, 100
1, 2877, Note_off_c, 0, 75, 100
1, 2877, Note_on_c, 0, 74, 100
1, 2915, Note_off_c, 0, 74, 100
1, 2915, Note_on_c, 0, 72, 100
1, 2953, Note_off_c, 0, 72, 100
1, 2953, Note_on_c, 0, 70, 100
1, 2991, Note_off_c, 0, 70, 100
1, 2991, Note_on_c, 0, 67, 100
1, 3067, Note_off_c, 0, 67, 100
1, 3067, Note_on_c, 0, 72, 100
1, 3099, Note_off_c, 0, 72, 100
1, 3099, Note_on_c, 0, 73, 100
1, 3131, Note_off_c, 0, 73, 100
1, 3131, Note_on_c, 0, 74, 100
1, 3195, Note_off_c, 0, 74, 100
1, 3195, Note_on_c, 0, 70, 100
1, 3259, Note_off_c, 0, 70, 100
1, 3259, Note_on_c, 0, 72, 100
1, 3355, Note_off_c, 0, 72, 100
1, 3355, Note_on_c, 0, 69, 100
1, 3379, Note_off_c, 0, 69, 100
1, 3379, Note_on_c, 0, 65, 100
1, 3403, Note_off_c, 0, 65, 100
1, 3403, Note_on_c, 0, 60, 100
1, 3427, Note_off_c, 0, 60, 100
1, 3427, Note_on_c, 0, 57, 100
1, 3451, Note_off_c, 0, 57, 100
1, 3451, Note_on_c, 0, 53, 100
1, 3483, Note_off_c, 0, 53, 100
1, 3483, Note_on_c, 0, 63, 100
1, 3515, Note_off_c, 0, 63, 100
1, 3515, Note_on_c, 0, 62, 100
1, 3547, Note_off_c, 0, 62, 100
1, 3547, Note_on_c, 0, 58, 100
1, 3579, Note_off_c, 0, 58, 100
1, 3579, Note_on_c, 0, 55, 100
1, 3611, Note_off_c, 0, 55, 100
1, 3611, Note_on_c, 0, 50, 100
1, 3643, Note_off_c, 0, 50, 100
1, 3643, Note_on_c, 0, 53, 100
1, 3667, Note_off_c, 0, 53, 100
1, 3667, Note_on_c, 0, 50, 100
1, 3691, Note_off_c, 0, 50, 100
1, 3691, Note_on_c, 0, 51, 100
1, 3739, Note_off_c, 0, 51, 100
1, 3739, Note_on_c, 0, 62, 100
1, 3763, Note_off_c, 0, 62, 100
1, 3763, Note_on_c, 0, 61, 100
1, 3787, Note_off_c, 0, 61, 100
1, 3787, Note_on_c, 0, 56, 100
1, 3835, Note_off_c, 0, 56, 100
1, 3835, Note_on_c, 0, 53, 100
1, 3859, Note_off_c, 0, 53, 100
1, 3859, Note_on_c, 0, 60, 100
1, 3883, Note_off_c, 0, 60, 100
1, 3883, Note_on_c, 0, 57, 100
1, 3907, Note_off_c, 0, 57, 100
1, 3907, Note_on_c, 0, 58, 100
1, 3931, Note_off_c, 0, 58, 100
1, 3931, Note_on_c, 0, 62, 100
1, 3955, Note_off_c, 0, 62, 100
1, 3955, Note_on_c, 0, 65, 100
1, 3979, Note_off_c, 0, 65, 100
1, 3979, Note_on_c, 0, 69, 100
1, 4027, Note_off_c, 0, 69, 100
1, 4027, Note_on_c, 0, 72, 100
1, 4051, Note_off_c, 0, 72, 100
1, 4051, Note_on_c, 0, 70, 100
1, 4075, Note_off_c, 0, 70, 100
1, 4075, Note_on_c, 0, 67, 100
1, 4123, Note_off_c, 0, 67, 100
1, 4123, Note_on_c, 0, 63, 100
1, 4147, Note_off_c, 0, 63, 100
1, 4147, Note_on_c, 0, 58, 100
1, 4171, Note_off_c, 0, 58, 100
1, 4171, Note_on_c, 0, 55, 100
1, 4195, Note_off_c, 0, 55, 100
1, 4195, Note_on_c, 0, 62, 100
1, 4219, Note_off_c, 0, 62, 100
1, 4219, Note_on_c, 0, 65, 100
1, 4251, Note_off_c, 0, 65, 100
1, 4251, Note_on_c, 0, 60, 100
1, 4283, Note_off_c, 0, 60, 100
1, 4283, Note_on_c, 0, 56, 100
1, 4315, Note_off_c, 0, 56, 100
1, 4315, Note_on_c, 0, 53, 100
1, 4347, Note_off_c, 0, 53, 100
1, 4347, Note_on_c, 0, 58, 100
1, 4379, Note_off_c, 0, 58, 100
1, 4379, Note_on_c, 0, 55, 100
1, 4411, Note_off_c, 0, 55, 100
1, 4411, Note_on_c, 0, 51, 100
1, 4459, Note_off_c, 0, 51, 100
1, 4459, Note_on_c, 0, 48, 100
1, 4483, Note_off_c, 0, 48, 100
1, 4483, Note_on_c, 0, 54, 100
1, 4531, Note_off_c, 0, 54, 100
1, 4531, Note_on_c, 0, 50, 100
1, 4555, Note_off_c, 0, 50, 100
1, 4555, Note_on_c, 0, 48, 100
1, 4579, Note_off_c, 0, 48, 100
1, 4579, Note_on_c, 0, 46, 100
1, 4675, Note_off_c, 0, 46, 100
1, 4987, Note_on_c, 0, 62, 100
1, 5019, Note_off_c, 0, 62, 100
1, 5019, Note_on_c, 0, 61, 100
1, 5051, Note_off_c, 0, 61, 100
1, 5051, Note_on_c, 0, 60, 100
1, 5083, Note_off_c, 0, 60, 100
1, 5083, Note_on_c, 0, 58, 100
1, 5115, Note_off_c, 0, 58, 100
1, 5115, Note_on_c, 0, 55, 100
1, 5275, Note_off_c, 0, 55, 100
1, 5275, Note_on_c, 0, 58, 100
1, 5563, Note_off_c, 0, 58, 100
1, 5563, Note_on_c, 0, 63, 100
1, 5611, Note_off_c, 0, 63, 100
1, 5611, Note_on_c, 0, 62, 100
1, 5659, Note_off_c, 0, 62, 100
1, 5659, Note_on_c, 0, 61, 100
1, 5707, Note_off_c, 0, 61, 100
1, 5707, Note_on_c, 0, 55, 100
1, 5851, Note_off_c, 0, 55, 100
1, 5851, Note_on_c, 0, 58, 100
1, 5995, Note_off_c, 0, 58, 100
1, 5995, Note_on_c, 0, 63, 100
1, 6043, Note_off_c, 0, 63, 100
1, 6043, Note_on_c, 0, 62, 100
1, 6091, Note_off_c, 0, 62, 100
1, 6091, Note_on_c, 0, 60, 100
1, 6139, Note_off_c, 0, 60, 100
1, 6139, Note_on_c, 0, 58, 100
1, 6171, Note_off_c, 0, 58, 100
1, 6171, Note_on_c, 0, 57, 100
1, 6203, Note_off_c, 0, 57, 100
1, 6203, Note_on_c, 0, 53, 100
1, 6235, Note_off_c, 0, 53, 100
1, 6235, Note_on_c, 0, 57, 100
1, 6267, Note_off_c, 0, 57, 100
1, 6267, Note_on_c, 0, 60, 100
1, 6331, Note_off_c, 0, 60, 100
1, 6331, Note_on_c, 0, 55, 100
1, 6379, Note_off_c, 0, 55, 100
1, 6379, Note_on_c, 0, 54, 100
1, 6427, Note_off_c, 0, 54, 100
1, 6427, Note_on_c, 0, 53, 100
1, 6475, Note_off_c, 0, 53, 100
1, 6475, Note_on_c, 0, 51, 100
1, 6523, Note_off_c, 0, 51, 100
1, 6523, Note_on_c, 0, 50, 100
1, 6571, Note_off_c, 0, 50, 100
1, 6571, Note_on_c, 0, 54, 100
1, 6619, Note_off_c, 0, 54, 100
1, 6619, Note_on_c, 0, 57, 100
1, 6667, Note_off_c, 0, 57, 100
1, 6667, Note_on_c, 0, 60, 100
1, 6715, Note_off_c, 0, 60, 100
1, 6715, Note_on_c, 0, 63, 100
1, 6763, Note_off_c, 0, 63, 100
1, 6763, Note_on_c, 0, 66, 100
1, 6811, Note_off_c, 0, 66, 100
1, 6811, Note_on_c, 0, 62, 100
1, 6859, Note_off_c, 0, 62, 100
1, 6859, Note_on_c, 0, 60, 100
1, 6907, Note_off_c, 0, 60, 100
1, 6907, Note_on_c, 0, 58, 100
1, 7243, Note_off_c, 0, 58, 100
1, 7243, Note_on_c, 0, 50, 100
1, 7291, Note_off_c, 0, 50, 100
1, 7291, Note_on_c, 0, 58, 100
1, 7387, Note_off_c, 0, 58, 100
1, 7387, Note_on_c, 0, 58, 100
1, 7435, Note_off_c, 0, 58, 100
1, 7435, Note_on_c, 0, 58, 100
1, 7483, Note_off_c, 0, 58, 100
1, 7483, Note_on_c, 0, 58, 100
1, 7547, Note_off_c, 0, 58, 100
1, 7547, Note_on_c, 0, 58, 100
1, 7611, Note_off_c, 0, 58, 100
1, 7611, Note_on_c, 0, 60, 100
1, 7675, Note_off_c, 0, 60, 100
1, 7675, Note_on_c, 0, 57, 100
1, 7751, Note_off_c, 0, 57, 100
1, 7751, Note_on_c, 0, 57, 100
1, 7789, Note_off_c, 0, 57, 100
1, 7789, Note_on_c, 0, 55, 100
1, 7827, Note_off_c, 0, 55, 100
1, 7827, Note_on_c, 0, 57, 100
1, 7929, Note_off_c, 0, 57, 100
1, 7929, Note_on_c, 0, 57, 100
1, 7993, Note_off_c, 0, 57, 100
1, 7993, Note_on_c, 0, 55, 100
1, 8057, Note_off_c, 0, 55, 100
1, 8057, Note_on_c, 0, 57, 100
1, 8121, Note_off_c, 0, 57, 100
1, 8121, Note_on_c, 0, 57, 100
1, 8185, Note_off_c, 0, 57, 100
1, 8185, Note_on_c, 0, 54, 100
1, 8249, Note_off_c, 0, 54, 100
1, 8249, Note_on_c, 0, 57, 100
1, 8345, Note_off_c, 0, 57, 100
1, 8345, Note_on_c, 0, 57, 100
1, 8393, Note_off_c, 0, 57, 100
1, 8393, Note_on_c, 0, 50, 100
1, 8489, Note_off_c, 0, 50, 100
1, 8777, Note_on_c, 0, 50, 100
1, 8825, Note_off_c, 0, 50, 100
1, 8825, Note_on_c, 0, 56, 100
1, 8889, Note_off_c, 0, 56, 100
1, 8889, Note_on_c, 0, 56, 100
1, 8953, Note_off_c, 0, 56, 100
1, 8953, Note_on_c, 0, 55, 100
1, 9017, Note_off_c, 0, 55, 100
1, 9017, Note_on_c, 0, 56, 100
1, 9081, Note_off_c, 0, 56, 100
1, 9081, Note_on_c, 0, 56, 100
1, 9145, Note_off_c, 0, 56, 100
1, 9145, Note_on_c, 0, 58, 100
1, 9209, Note_off_c, 0, 58, 100
1, 9209, Note_on_c, 0, 55, 100
1, 9273, Note_off_c, 0, 55, 100
1, 9273, Note_on_c, 0, 55, 100
1, 9337, Note_off_c, 0, 55, 100
1, 9337, Note_on_c, 0, 54, 100
1, 9401, Note_off_c, 0, 54, 100
1, 9401, Note_on_c, 0, 55, 100
1, 9465, Note_off_c, 0, 55, 100
1, 9465, Note_on_c, 0, 55, 100
1, 9529, Note_off_c, 0, 55, 100
1, 9529, Note_on_c, 0, 53, 100
1, 9593, Note_off_c, 0, 53, 100
1, 9593, Note_on_c, 0, 55, 100
1, 9657, Note_off_c, 0, 55, 100
1, 9657, Note_on_c, 0, 51, 100
1, 9721, Note_off_c, 0, 51, 100
1, 9721, Note_on_c, 0, 55, 100
1, 9785, Note_off_c, 0, 55, 100
1, 9785, Note_on_c, 0, 60, 100
1, 9833, Note_off_c, 0, 60, 100
1, 9833, Note_on_c, 0, 61, 100
1, 9881, Note_off_c, 0, 61, 100
1, 9881, Note_on_c, 0, 62, 100
1, 9929, Note_off_c, 0, 62, 100
1, 9929, Note_on_c, 0, 63, 100
1, 10553, Note_off_c, 0, 63, 100
1, 10553, Note_on_c, 0, 62, 100
1, 10585, Note_off_c, 0, 62, 100
1, 10585, Note_on_c, 0, 67, 100
1, 10617, Note_off_c, 0, 67, 100
1, 10617, Note_on_c, 0, 66, 100
1, 10649, Note_off_c, 0, 66, 100
1, 10649, Note_on_c, 0, 61, 100
1, 10681, Note_off_c, 0, 61, 100
1, 10681, Note_on_c, 0, 60, 100
1, 10713, Note_off_c, 0, 60, 100
1, 10713, Note_on_c, 0, 58, 100
1, 10745, Note_off_c, 0, 58, 100
1, 10745, Note_on_c, 0, 60, 100
1, 10841, Note_off_c, 0, 60, 100
1, 10841, Note_on_c, 0, 57, 100
1, 10889, Note_off_c, 0, 57, 100
1, 10889, Note_on_c, 0, 58, 100
1, 10937, Note_off_c, 0, 58, 100
1, 10937, Note_on_c, 0, 60, 100
1, 11033, Note_off_c, 0, 60, 100
1, 11033, Note_on_c, 0, 56, 100
1, 11081, Note_off_c, 0, 56, 100
1, 11081, Note_on_c, 0, 57, 100
1, 11225, Note_off_c, 0, 57, 100
1, 11225, Note_on_c, 0, 53, 100
1, 11273, Note_off_c, 0, 53, 100
1, 11273, Note_on_c, 0, 54, 100
1, 11321, Note_off_c, 0, 54, 100
1, 11321, Note_on_c, 0, 53, 100
1, 11369, Note_off_c, 0, 53, 100
1, 11369, Note_on_c, 0, 50, 100
1, 11417, Note_off_c, 0, 50, 100
1, 11417, Note_on_c, 0, 51, 100
1, 11465, Note_off_c, 0, 51, 100
1, 11465, Note_on_c, 0, 49, 100
1, 11513, Note_off_c, 0, 49, 100
1, 11513, Note_on_c, 0, 50, 100
1, 11561, Note_off_c, 0, 50, 100
1, 11561, Note_on_c, 0, 58, 100
1, 11609, Note_off_c, 0, 58, 100
1, 11609, Note_on_c, 0, 57, 100
1, 11657, Note_off_c, 0, 57, 100
1, 11657, Note_on_c, 0, 50, 100
1, 11705, Note_off_c, 0, 50, 100
1, 11705, Note_on_c, 0, 51, 100
1, 11753, Note_off_c, 0, 51, 100
1, 11753, Note_on_c, 0, 60, 100
1, 11993, Note_off_c, 0, 60, 100
1, 11993, Note_on_c, 0, 53, 100
1, 12041, Note_off_c, 0, 53, 100
1, 12041, Note_on_c, 0, 55, 100
1, 12137, Note_off_c, 0, 55, 100
1, 12137, Note_on_c, 0, 62, 100
1, 12185, Note_off_c, 0, 62, 100
1, 12185, Note_on_c, 0, 57, 100
1, 12233, Note_off_c, 0, 57, 100
1, 12233, Note_on_c, 0, 58, 100
1, 12281, Note_off_c, 0, 58, 100
1, 12281, Note_on_c, 0, 67, 100
1, 12377, Note_off_c, 0, 67, 100
1, 12377, Note_on_c, 0, 58, 100
1, 12425, Note_off_c, 0, 58, 100
1, 12425, Note_on_c, 0, 60, 100
1, 12473, Note_off_c, 0, 60, 100
1, 12473, Note_on_c, 0, 69, 100
1, 12497, Note_off_c, 0, 69, 100
1, 12497, Note_on_c, 0, 68, 100
1, 12521, Note_off_c, 0, 68, 100
1, 12521, Note_on_c, 0, 60, 100
1, 12569, Note_off_c, 0, 60, 100
1, 12569, Note_on_c, 0, 62, 100
1, 12617, Note_off_c, 0, 62, 100
1, 12617, Note_on_c, 0, 70, 100
1, 12641, Note_off_c, 0, 70, 100
1, 12641, Note_on_c, 0, 69, 100
1, 12665, Note_off_c, 0, 69, 100
1, 12665, Note_on_c, 0, 62, 100
1, 12713, Note_off_c, 0, 62, 100
1, 12713, Note_on_c, 0, 67, 100
1, 12761, Note_off_c, 0, 67, 100
1, 12761, Note_on_c, 0, 74, 100
1, 12857, Note_off_c, 0, 74, 100
1, 12857, Note_on_c, 0, 69, 100
1, 12905, Note_off_c, 0, 69, 100
1, 12905, Note_on_c, 0, 72, 100
1, 12953, Note_off_c, 0, 72, 100
1, 12953, Note_on_c, 0, 70, 100
1, 13097, Note_off_c, 0, 70, 100
1, 13097, Note_on_c, 0, 74, 100
1, 13145, Note_off_c, 0, 74, 100
1, 13145, Note_on_c, 0, 75, 100
1, 13193, Note_off_c, 0, 75, 100
1, 13193, Note_on_c, 0, 74, 100
1, 13289, Note_off_c, 0, 74, 100
1, 13289, Note_on_c, 0, 70, 100
1, 13337, Note_off_c, 0, 70, 100
1, 13337, Note_on_c, 0, 67, 100
1, 13385, Note_off_c, 0, 67, 100
1, 13385, Note_on_c, 0, 63, 100
1, 13457, Note_off_c, 0, 63, 100
1, 13457, Note_on_c, 0, 72, 100
1, 13481, Note_off_c, 0, 72, 100
1, 13481, Note_on_c, 0, 73, 100
1, 13505, Note_off_c, 0, 73, 100
1, 13505, Note_on_c, 0, 74, 100
1, 13529, Note_off_c, 0, 74, 100
1, 13529, Note_on_c, 0, 72, 100
1, 13577, Note_off_c, 0, 72, 100
1, 13577, Note_on_c, 0, 70, 100
1, 13601, Note_off_c, 0, 70, 100
1, 13601, Note_on_c, 0, 71, 100
1, 13625, Note_off_c, 0, 71, 100
1, 13625, Note_on_c, 0, 69, 100
1, 13663, Note_off_c, 0, 69, 100
1, 13663, Note_on_c, 0, 67, 100
1, 13701, Note_off_c, 0, 67, 100
1, 13701, Note_on_c, 0, 65, 100
1, 13739, Note_off_c, 0, 65, 100
1, 13739, Note_on_c, 0, 63, 100
1, 13777, Note_off_c, 0, 63, 100
1, 13777, Note_on_c, 0, 62, 100
1, 13853, Note_off_c, 0, 62, 100
1, 13853, Note_on_c, 0, 58, 100
1, 13891, Note_off_c, 0, 58, 100
1, 13891, Note_on_c, 0, 53, 100
1, 13929, Note_off_c, 0, 53, 100
1, 13929, Note_on_c, 0, 51, 100
1, 13967, Note_off_c, 0, 51, 100
1, 13967, Note_on_c, 0, 50, 100
1, 14037, Note_off_c, 0, 50, 100
1, 14037, Note_on_c, 0, 60, 100
1, 14069, Note_off_c, 0, 60, 100
1, 14069, Note_on_c, 0, 61, 100
1, 14101, Note_off_c, 0, 61, 100
1, 14101, Note_on_c, 0, 62, 100
1, 14133, Note_off_c, 0, 62, 100
1, 14133, Note_on_c, 0, 58, 100
1, 14165, Note_off_c, 0, 58, 100
1, 14165, Note_on_c, 0, 53, 100
1, 14197, Note_off_c, 0, 53, 100
1, 14197, Note_on_c, 0, 61, 100
1, 14261, Note_off_c, 0, 61, 100
1, 14261, Note_on_c, 0, 58, 100
1, 14293, Note_off_c, 0, 58, 100
1, 14293, Note_on_c, 0, 54, 100
1, 14325, Note_off_c, 0, 54, 100
1, 14325, Note_on_c, 0, 51, 100
1, 14357, Note_off_c, 0, 51, 100
1, 14357, Note_on_c, 0, 60, 100
1, 14437, Note_off_c, 0, 60, 100
1, 14437, Note_on_c, 0, 58, 100
1, 14485, Note_off_c, 0, 58, 100
1, 14485, Note_on_c, 0, 56, 100
1, 14533, Note_off_c, 0, 56, 100
1, 14533, Note_on_c, 0, 54, 100
1, 14581, Note_off_c, 0, 54, 100
1, 14581, Note_on_c, 0, 53, 100
1, 14821, Note_off_c, 0, 53, 100
1, 14821, Note_on_c, 0, 64, 100
1, 14869, Note_off_c, 0, 64, 100
1, 14869, Note_on_c, 0, 65, 100
1, 14917, Note_off_c, 0, 65, 100
1, 14917, Note_on_c, 0, 65, 100
1, 14965, Note_off_c, 0, 65, 100
1, 14965, Note_on_c, 0, 63, 100
1, 15157, Note_off_c, 0, 63, 100
1, 15157, Note_on_c, 0, 61, 100
1, 15205, Note_off_c, 0, 61, 100
1, 15205, Note_on_c, 0, 60, 100
1, 15253, Note_off_c, 0, 60, 100
1, 15253, Note_on_c, 0, 58, 100
1, 15493, Note_off_c, 0, 58, 100
1, 15493, Note_on_c, 0, 53, 100
1, 15541, Note_off_c, 0, 53, 100
1, 15541, Note_on_c, 0, 61, 100
1, 15637, Note_off_c, 0, 61, 100
1, 15637, Note_on_c, 0, 61, 100
1, 15685, Note_off_c, 0, 61, 100
1, 15685, Note_on_c, 0, 58, 100
1, 15733, Note_off_c, 0, 58, 100
1, 15733, Note_on_c, 0, 61, 100
1, 15781, Note_off_c, 0, 61, 100
1, 15781, Note_on_c, 0, 62, 100
1, 15829, Note_off_c, 0, 62, 100
1, 15829, Note_on_c, 0, 63, 100
1, 15925, Note_off_c, 0, 63, 100
1, 15925, Note_on_c, 0, 58, 100
1, 16021, Note_off_c, 0, 58, 100
1, 16021, Note_on_c, 0, 58, 100
1, 16069, Note_off_c, 0, 58, 100
1, 16069, Note_on_c, 0, 53, 100
1, 16117, Note_off_c, 0, 53, 100
1, 16117, Note_on_c, 0, 60, 100
1, 16405, Note_off_c, 0, 60, 100
1, 16645, Note_on_c, 0, 67, 100
1, 16731, Note_off_c, 0, 67, 100
1, 16731, Note_on_c, 0, 70, 100
1, 16769, Note_off_c, 0, 70, 100
1, 16769, Note_on_c, 0, 68, 100
1, 16807, Note_off_c, 0, 68, 100
1, 16807, Note_on_c, 0, 67, 100
1, 16845, Note_off_c, 0, 67, 100
1, 16845, Note_on_c, 0, 65, 100
1, 16883, Note_off_c, 0, 65, 100
1, 16883, Note_on_c, 0, 64, 100
1, 16931, Note_off_c, 0, 64, 100
1, 16931, Note_on_c, 0, 65, 100
1, 16979, Note_off_c, 0, 65, 100
1, 16979, Note_on_c, 0, 67, 100
1, 17027, Note_off_c, 0, 67, 100
1, 17027, Note_on_c, 0, 68, 100
1, 17075, Note_off_c, 0, 68, 100
1, 17075, Note_on_c, 0, 65, 100
1, 17123, Note_off_c, 0, 65, 100
1, 17123, Note_on_c, 0, 60, 100
1, 17171, Note_off_c, 0, 60, 100
1, 17171, Note_on_c, 0, 56, 100
1, 17219, Note_off_c, 0, 56, 100
1, 17219, Note_on_c, 0, 53, 100
1, 17305, Note_off_c, 0, 53, 100
1, 17305, Note_on_c, 0, 63, 100
1, 17343, Note_off_c, 0, 63, 100
1, 17343, Note_on_c, 0, 64, 100
1, 17381, Note_off_c, 0, 64, 100
1, 17381, Note_on_c, 0, 60, 100
1, 17419, Note_off_c, 0, 60, 100
1, 17419, Note_on_c, 0, 57, 100
1, 17474, Note_off_c, 0, 57, 100
1, 17474, Note_on_c, 0, 56, 100
1, 17508, Note_off_c, 0, 56, 100
1, 17508, Note_on_c, 0, 54, 100
1, 17542, Note_off_c, 0, 54, 100
1, 17542, Note_on_c, 0, 53, 100
1, 17594, Note_off_c, 0, 53, 100
1, 17594, Note_on_c, 0, 56, 100
1, 17611, Note_off_c, 0, 56, 100
1, 17611, Note_on_c, 0, 55, 100
1, 17628, Note_off_c, 0, 55, 100
1, 17628, Note_on_c, 0, 51, 100
1, 17645, Note_off_c, 0, 51, 100
1, 17645, Note_on_c, 0, 49, 100
1, 17837, Note_off_c, 0, 49, 100
1, 17837, Note_on_c, 0, 64, 100
1, 17869, Note_off_c, 0, 64, 100
1, 17869, Note_on_c, 0, 65, 100
1, 17965, Note_off_c, 0, 65, 100
1, 17965, Note_on_c, 0, 65, 100
1, 18029, Note_off_c, 0, 65, 100
1, 18029, Note_on_c, 0, 63, 100
1, 18221, Note_off_c, 0, 63, 100
1, 18221, Note_on_c, 0, 61, 100
1, 18269, Note_off_c, 0, 61, 100
1, 18269, Note_on_c, 0, 60, 100
1, 18317, Note_off_c, 0, 60, 100
1, 18317, Note_on_c, 0, 58, 100
1, 18653, Note_off_c, 0, 58, 100
1, 18653, Note_on_c, 0, 61, 100
1, 18701, Note_off_c, 0, 61, 100
1, 18701, Note_on_c, 0, 58, 100
1, 18749, Note_off_c, 0, 58, 100
1, 18749, Note_on_c, 0, 62, 100
1, 18797, Note_off_c, 0, 62, 100
1, 18797, Note_on_c, 0, 63, 100
1, 18941, Note_off_c, 0, 63, 100
1, 18941, Note_on_c, 0, 61, 100
1, 18989, Note_off_c, 0, 61, 100
1, 18989, Note_on_c, 0, 62, 100
1, 19002, Note_off_c, 0, 62, 100
1, 19002, Note_on_c, 0, 63, 100
1, 19056, Note_off_c, 0, 63, 100
1, 19056, Note_on_c, 0, 61, 100
1, 19124, Note_off_c, 0, 61, 100
1, 19124, Note_on_c, 0, 58, 100
1, 19165, Note_off_c, 0, 58, 100
1, 19165, Note_on_c, 0, 60, 100
1, 19754, Note_off_c, 0, 60, 100
1, 19754, Note_on_c, 0, 60, 100
1, 19802, Note_off_c, 0, 60, 100
1, 19802, Note_on_c, 0, 63, 100
1, 19850, Note_off_c, 0, 63, 100
1, 19850, Note_on_c, 0, 65, 100
1, 19898, Note_off_c, 0, 65, 100
1, 19898, Note_on_c, 0, 67, 100
1, 19946, Note_off_c, 0, 67, 100
1, 19946, Note_on_c, 0, 68, 100
1, 19970, Note_off_c, 0, 68, 100
1, 19970, Note_on_c, 0, 69, 100
1, 20042, Note_off_c, 0, 69, 100
1, 20042, Note_on_c, 0, 70, 100
1, 20090, Note_off_c, 0, 70, 100
1, 20090, Note_on_c, 0, 72, 100
1, 20114, Note_off_c, 0, 72, 100
1, 20114, Note_on_c, 0, 67, 100
1, 20234, Note_off_c, 0, 67, 100
1, 20234, Note_on_c, 0, 65, 100
1, 20282, Note_off_c, 0, 65, 100
1, 20282, Note_on_c, 0, 67, 100
1, 20330, Note_off_c, 0, 67, 100
1, 20330, Note_on_c, 0, 66, 100
1, 20378, Note_off_c, 0, 66, 100
1, 20378, Note_on_c, 0, 65, 100
1, 20522, Note_off_c, 0, 65, 100
1, 20522, Note_on_c, 0, 67, 100
1, 20570, Note_off_c, 0, 67, 100
1, 20570, Note_on_c, 0, 70, 100
1, 20618, Note_off_c, 0, 70, 100
1, 20618, Note_on_c, 0, 72, 100
1, 20714, Note_off_c, 0, 72, 100
1, 20714, Note_on_c, 0, 71, 100
1, 20762, Note_off_c, 0, 71, 100
1, 20762, Note_on_c, 0, 72, 100
1, 20810, Note_off_c, 0, 72, 100
1, 20810, Note_on_c, 0, 73, 100
1, 20906, Note_off_c, 0, 73, 100
1, 20906, Note_on_c, 0, 74, 100
1, 20970, Note_off_c, 0, 74, 100
1, 20970, Note_on_c, 0, 73, 100
1, 21034, Note_off_c, 0, 73, 100
1, 21034, Note_on_c, 0, 70, 100
1, 21098, Note_off_c, 0, 70, 100
1, 21098, Note_on_c, 0, 75, 100
1, 21146, Note_off_c, 0, 75, 100
1, 21146, Note_on_c, 0, 76, 100
1, 21194, Note_off_c, 0, 76, 100
1, 21194, Note_on_c, 0, 77, 100
1, 21290, Note_off_c, 0, 77, 100
1, 21290, Note_on_c, 0, 79, 100
1, 21366, Note_off_c, 0, 79, 100
1, 21366, Note_on_c, 0, 72, 100
1, 21404, Note_off_c, 0, 72, 100
1, 21404, Note_on_c, 0, 73, 100
1, 21442, Note_off_c, 0, 73, 100
1, 21442, Note_on_c, 0, 74, 100
1, 21724, Note_off_c, 0, 74, 100
1, 21724, Note_on_c, 0, 73, 100
1, 21758, Note_off_c, 0, 73, 100
1, 21758, Note_on_c, 0, 72, 100
1, 21775, Note_off_c, 0, 72, 100
1, 21775, Note_on_c, 0, 71, 100
1, 21792, Note_off_c, 0, 71, 100
1, 21792, Note_on_c, 0, 70, 100
1, 21844, Note_off_c, 0, 70, 100
1, 21844, Note_on_c, 0, 72, 100
1, 21899, Note_off_c, 0, 72, 100
1, 21899, Note_on_c, 0, 67, 100
1, 21937, Note_off_c, 0, 67, 100
1, 21937, Note_on_c, 0, 69, 100
1, 21975, Note_off_c, 0, 69, 100
1, 21975, Note_on_c, 0, 70, 100
1, 22051, Note_off_c, 0, 70, 100
1, 22051, Note_on_c, 0, 67, 100
1, 22089, Note_off_c, 0, 67, 100
1, 22089, Note_on_c, 0, 65, 100
1, 22127, Note_off_c, 0, 65, 100
1, 22127, Note_on_c, 0, 61, 100
1, 22165, Note_off_c, 0, 61, 100
1, 22165, Note_on_c, 0, 60, 100
1, 22203, Note_off_c, 0, 60, 100
1, 22203, Note_on_c, 0, 58, 100
1, 22241, Note_off_c, 0, 58, 100
1, 22241, Note_on_c, 0, 55, 100
1, 22337, Note_off_c, 0, 55, 100
1, 22337, Note_on_c, 0, 58, 100
1, 22625, Note_off_c, 0, 58, 100
1, 22625, Note_on_c, 0, 73, 100
1, 22673, Note_off_c, 0, 73, 100
1, 22673, Note_on_c, 0, 74, 100
1, 22721, Note_off_c, 0, 74, 100
1, 22721, Note_on_c, 0, 75, 100
1, 22817, Note_off_c, 0, 75, 100
1, 22817, Note_on_c, 0, 74, 100
1, 22855, Note_off_c, 0, 74, 100
1, 22855, Note_on_c, 0, 72, 100
1, 22893, Note_off_c, 0, 72, 100
1, 22893, Note_on_c, 0, 70, 100
1, 22969, Note_off_c, 0, 70, 100
1, 22969, Note_on_c, 0, 67, 100
1, 23007, Note_off_c, 0, 67, 100
1, 23007, Note_on_c, 0, 72, 100
1, 23055, Note_off_c, 0, 72, 100
1, 23055, Note_on_c, 0, 74, 100
1, 23103, Note_off_c, 0, 74, 100
1, 23103, Note_on_c, 0, 75, 100
1, 23151, Note_off_c, 0, 75, 100
1, 23151, Note_on_c, 0, 72, 100
1, 23319, Note_off_c, 0, 72, 100
1, 23319, Note_on_c, 0, 71, 100
1, 23343, Note_off_c, 0, 71, 100
1, 23343, Note_on_c, 0, 69, 100
1, 23367, Note_off_c, 0, 69, 100
1, 23367, Note_on_c, 0, 67, 100
1, 23391, Note_off_c, 0, 67, 100
1, 23391, Note_on_c, 0, 65, 100
1, 23429, Note_off_c, 0, 65, 100
1, 23429, Note_on_c, 0, 64, 100
1, 23467, Note_off_c, 0, 64, 100
1, 23467, Note_on_c, 0, 63, 100
1, 23505, Note_off_c, 0, 63, 100
1, 23505, Note_on_c, 0, 62, 100
1, 23543, Note_off_c, 0, 62, 100
1, 23543, Note_on_c, 0, 60, 100
1, 23581, Note_off_c, 0, 60, 100
1, 23581, Note_on_c, 0, 58, 100
1, 23645, Note_off_c, 0, 58, 100
1, 23645, Note_on_c, 0, 57, 100
1, 23709, Note_off_c, 0, 57, 100
1, 23709, Note_on_c, 0, 55, 100
1, 23773, Note_off_c, 0, 55, 100
1, 23773, Note_on_c, 0, 53, 100
1, 23811, Note_off_c, 0, 53, 100
1, 23811, Note_on_c, 0, 51, 100
1, 23849, Note_off_c, 0, 51, 100
1, 23849, Note_on_c, 0, 50, 100
1, 23887, Note_off_c, 0, 50, 100
1, 23887, Note_on_c, 0, 53, 100
1, 23925, Note_off_c, 0, 53, 100
1, 23925, Note_on_c, 0, 58, 100
1, 24001, Note_off_c, 0, 58, 100
1, 24001, Note_on_c, 0, 62, 100
1, 24039, Note_off_c, 0, 62, 100
1, 24039, Note_on_c, 0, 58, 100
1, 24115, Note_off_c, 0, 58, 100
1, 24115, Note_on_c, 0, 55, 100
1, 24153, Note_off_c, 0, 55, 100
1, 24153, Note_on_c, 0, 65, 100
1, 24201, Note_off_c, 0, 65, 100
1, 24201, Note_on_c, 0, 62, 100
1, 24249, Note_off_c, 0, 62, 100
1, 24249, Note_on_c, 0, 58, 100
1, 24297, Note_off_c, 0, 58, 100
1, 24297, Note_on_c, 0, 53, 100
1, 24345, Note_off_c, 0, 53, 100
1, 24345, Note_on_c, 0, 60, 100
1, 24393, Note_off_c, 0, 60, 100
1, 24393, Note_on_c, 0, 62, 100
1, 24441, Note_off_c, 0, 62, 100
1, 24441, Note_on_c, 0, 58, 100
1, 24489, Note_off_c, 0, 58, 100
1, 24489, Note_on_c, 0, 50, 100
1, 24537, Note_off_c, 0, 50, 100
1, 24537, Note_on_c, 0, 55, 100
1, 24729, Note_off_c, 0, 55, 100
1, 25017, Note_on_c, 0, 55, 100
1, 25065, Note_off_c, 0, 55, 100
1, 25065, Note_on_c, 0, 58, 100
1, 25113, Note_off_c, 0, 58, 100
1, 25113, Note_on_c, 0, 60, 100
1, 25177, Note_off_c, 0, 60, 100
1, 25177, Note_on_c, 0, 62, 100
1, 25241, Note_off_c, 0, 62, 100
1, 25241, Note_on_c, 0, 60, 100
1, 25305, Note_off_c, 0, 60, 100
1, 25305, Note_on_c, 0, 62, 100
1, 25353, Note_off_c, 0, 62, 100
1, 25353, Note_on_c, 0, 63, 100
1, 25497, Note_off_c, 0, 63, 100
1, 25497, Note_on_c, 0, 62, 100
1, 25521, Note_off_c, 0, 62, 100
1, 25521, Note_on_c, 0, 63, 100
1, 25617, Note_off_c, 0, 63, 100
1, 25617, Note_on_c, 0, 62, 100
1, 25641, Note_off_c, 0, 62, 100
1, 25641, Note_on_c, 0, 63, 100
1, 25727, Note_off_c, 0, 63, 100
1, 25727, Note_on_c, 0, 62, 100
1, 25765, Note_off_c, 0, 62, 100
1, 25765, Note_on_c, 0, 63, 100
1, 25841, Note_off_c, 0, 63, 100
1, 25841, Note_on_c, 0, 62, 100
1, 25927, Note_off_c, 0, 62, 100
1, 25927, Note_on_c, 0, 60, 100
1, 25975, Note_off_c, 0, 60, 100
1, 25975, Note_on_c, 0, 58, 100
1, 26023, Note_off_c, 0, 58, 100
1, 26023, Note_on_c, 0, 55, 100
1, 26071, Note_off_c, 0, 55, 100
1, 26071, Note_on_c, 0, 62, 100
1, 26119, Note_off_c, 0, 62, 100
1, 26119, Note_on_c, 0, 63, 100
1, 26167, Note_off_c, 0, 63, 100
1, 26167, Note_on_c, 0, 60, 100
1, 26263, Note_off_c, 0, 60, 100
1, 26263, Note_on_c, 0, 60, 100
1, 26647, Note_off_c, 0, 60, 100
1, 26647, Note_on_c, 0, 57, 100
1, 26695, Note_off_c, 0, 57, 100
1, 26695, Note_on_c, 0, 54, 100
1, 26743, Note_off_c, 0, 54, 100
1, 26743, Note_on_c, 0, 50, 100
1, 26791, Note_off_c, 0, 50, 100
1, 26791, Note_on_c, 0, 48, 100
1, 26839, Note_off_c, 0, 48, 100
1, 26839, Note_on_c, 0, 55, 100
1, 27034, Note_off_c, 0, 55, 100
1, 27034, End_track
0, 0, End_of_file
