0, 0, Header, 1, 1, 192
1, 0, Start_track
1, 0, Title_t, "Melody"
1, 0, Tempo, 204081
1, 0, Key_signature, -3, "major"
1, 0, Time_signature, 4, 2, 24, 8
1, 640, Note_on_c, 0, 72, 100
1, 1408, Note_off_c, 0, 72, 100
1, 1408, Note_on_c, 0, 74, 100
1, 1600, Note_off_c, 0, 74, 100
1, 1600, Note_on_c, 0, 67, 100
1, 1872, Note_off_c, 0, 67, 100
1, 1872, Note_on_c, 0, 72, 100
1, 2832, Note_off_c, 0, 72, 100
1, 3168, Note_on_c, 0, 77, 100
1, 3456, Note_off_c, 0, 77, 100
1, 3456, Note_on_c, 0, 70, 100
1, 3936, Note_off_c, 0, 70, 100
1, 3936, Note_on_c, 0, 72, 100
1, 4272, Note_off_c, 0, 72, 100
1, 4272, Note_on_c, 0, 76, 100
1, 4368, Note_off_c, 0, 76, 100
1, 4368, Note_on_c, 0, 74, 100
1, 4464, Note_off_c, 0, 74, 100
1, 4608, Note_on_c, 0, 67, 100
1, 4896, Note_off_c, 0, 67, 100
1, 4896, Note_on_c, 0, 72, 100
1, 5952, Note_off_c, 0, 72, 100
1, 6192, Note_on_c, 0, 66, 100
1, 6288, Note_off_c, 0, 66, 100
1, 6288, Note_on_c, 0, 68, 100
1, 6336, Note_off_c, 0, 68, 100
1, 6336, Note_on_c, 0, 70, 100
1, 6432, Note_off_c, 0, 70, 100
1, 6432, Note_on_c, 0, 66, 100
1, 6576, Note_off_c, 0, 66, 100
1, 6576, Note_on_c, 0, 68, 100
1, 6672, Note_off_c, 0, 68, 100
1, 7008, Note_on_c, 0, 65, 100
1, 7104, Note_off_c, 0, 65, 100
1, 7104, Note_on_c, 0, 67, 100
1, 7152, Note_off_c, 0, 67, 100
1, 7152, Note_on_c, 0, 69, 100
1, 7248, Note_off_c, 0, 69, 100
1, 7248, Note_on_c, 0, 65, 100
1, 7360, Note_off_c, 0, 65, 100
1, 7360, Note_on_c, 0, 67, 100
1, 7584, Note_off_c, 0, 67, 100
1, 7584, Note_on_c, 0, 64, 100
1, 7872, Note_off_c, 0, 64, 100
1, 7872, Note_on_c, 0, 66, 100
1, 7968, Note_off_c, 0, 66, 100
1, 7968, Note_on_c, 0, 67, 100
1, 8064, Note_off_c, 0, 67, 100
1, 8064, Note_on_c, 0, 64, 100
1, 8160, Note_off_c, 0, 64, 100
1, 8160, Note_on_c, 0, 66, 100
1, 8256, Note_off_c, 0, 66, 100
1, 8496, Note_on_c, 0, 63, 100
1, 8592, Note_off_c, 0, 63, 100
1, 8592, Note_on_c, 0, 65, 100
1, 8704, Note_off_c, 0, 65, 100
1, 8704, Note_on_c, 0, 67, 100
1, 8768, Note_off_c, 0, 67, 100
1, 8768, Note_on_c, 0, 63, 100
1, 8928, Note_off_c, 0, 63, 100
1, 8928, Note_on_c, 0, 65, 100
1, 9024, Note_off_c, 0, 65, 100
1, 9648, Note_on_c, 0, 77, 100
1, 9936, Note_off_c, 0, 77, 100
1, 9936, Note_on_c, 0, 79, 100
1, 10848, Note_off_c, 0, 79, 100
1, 10848, Note_on_c, 0, 80, 100
1, 11136, Note_off_c, 0, 80, 100
1, 11136, Note_on_c, 0, 77, 100
1, 11424, Note_off_c, 0, 77, 100
1, 11424, Note_on_c, 0, 79, 100
1, 11776, Note_off_c, 0, 79, 100
1, 11776, Note_on_c, 0, 75, 100
1, 12096, Note_off_c, 0, 75, 100
1, 12096, Note_on_c, 0, 72, 100
1, 12288, Note_off_c, 0, 72, 100
1, 12288, Note_on_c, 0, 74, 100
1, 12528, Note_off_c, 0, 74, 100
1, 12528, Note_on_c, 0, 74, 100
1, 12672, Note_off_c, 0, 74, 100
1, 12672, Note_on_c, 0, 70, 100
1, 13008, Note_off_c, 0, 70, 100
1, 13008, Note_on_c, 0, 72, 100
1, 13440, Note_off_c, 0, 72, 100
1, 13440, Note_on_c, 0, 67, 100
1, 13696, Note_off_c, 0, 67, 100
1, 13696, Note_on_c, 0, 70, 100
1, 13824, Note_off_c, 0, 70, 100
1, 13824, Note_on_c, 0, 65, 100
1, 14208, Note_off_c, 0, 65, 100
1, 14208, Note_on_c, 0, 67, 100
1, 14496, Note_off_c, 0, 67, 100
1, 14496, Note_on_c, 0, 63, 100
1, 14688, Note_off_c, 0, 63, 100
1, 14688, Note_on_c, 0, 65, 100
1, 15360, Note_off_c, 0, 65, 100
1, 15360, Note_on_c, 0, 70, 100
1, 15424, Note_off_c, 0, 70, 100
1, 15424, Note_on_c, 0, 68, 100
1, 15552, Note_off_c, 0, 68, 100
1, 15552, Note_on_c, 0, 67, 100
1, 15616, Note_off_c, 0, 67, 100
1, 15616, Note_on_c, 0, 68, 100
1, 15680, Note_off_c, 0, 68, 100
1, 15680, Note_on_c, 0, 70, 100
1, 15888, Note_off_c, 0, 70, 100
1, 15888, Note_on_c, 0, 66, 100
1, 15936, Note_off_c, 0, 66, 100
1, 15936, Note_on_c, 0, 68, 100
1, 16032, Note_off_c, 0, 68, 100
1, 16032, Note_on_c, 0, 70, 100
1, 16224, Note_off_c, 0, 70, 100
1, 16224, Note_on_c, 0, 65, 100
1, 16416, Note_off_c, 0, 65, 100
1, 16416, Note_on_c, 0, 67, 100
1, 16512, Note_off_c, 0, 67, 100
1, 16512, Note_on_c, 0, 69, 100
1, 17040, Note_off_c, 0, 69, 100
1, 17040, Note_on_c, 0, 68, 100
1, 17136, Note_off_c, 0, 68, 100
1, 17136, Note_on_c, 0, 67, 100
1, 17232, Note_off_c, 0, 67, 100
1, 17232, Note_on_c, 0, 64, 100
1, 17712, Note_off_c, 0, 64, 100
1, 17712, Note_on_c, 0, 62, 100
1, 17760, Note_off_c, 0, 62, 100
1, 17760, Note_on_c, 0, 63, 100
1, 18048, Note_off_c, 0, 63, 100
1, 18048, Note_on_c, 0, 65, 100
1, 18144, Note_off_c, 0, 65, 100
1, 19584, Note_on_c, 0, 73, 100
1, 19680, Note_off_c, 0, 73, 100
1, 19680, Note_on_c, 0, 74, 100
1, 19776, Note_off_c, 0, 74, 100
1, 19776, Note_on_c, 0, 77, 100
1, 19872, Note_off_c, 0, 77, 100
1, 19872, Note_on_c, 0, 76, 100
1, 19968, Note_off_c, 0, 76, 100
1, 19968, Note_on_c, 0, 75, 100
1, 20032, Note_off_c, 0, 75, 100
1, 20032, Note_on_c, 0, 73, 100
1, 20096, Note_off_c, 0, 73, 100
1, 20096, Note_on_c, 0, 71, 100
1, 20160, Note_off_c, 0, 71, 100
1, 20160, Note_on_c, 0, 74, 100
1, 20352, Note_off_c, 0, 74, 100
1, 20352, Note_on_c, 0, 71, 100
1, 20400, Note_off_c, 0, 71, 100
1, 20400, Note_on_c, 0, 72, 100
1, 20496, Note_off_c, 0, 72, 100
1, 20496, Note_on_c, 0, 73, 100
1, 20544, Note_off_c, 0, 73, 100
1, 20544, Note_on_c, 0, 70, 100
1, 20592, Note_off_c, 0, 70, 100
1, 20592, Note_on_c, 0, 69, 100
1, 20688, Note_off_c, 0, 69, 100
1, 20688, Note_on_c, 0, 73, 100
1, 20736, Note_off_c, 0, 73, 100
1, 20736, Note_on_c, 0, 72, 100
1, 20832, Note_off_c, 0, 72, 100
1, 20832, Note_on_c, 0, 71, 100
1, 20928, Note_off_c, 0, 71, 100
1, 20928, Note_on_c, 0, 69, 100
1, 21024, Note_off_c, 0, 69, 100
1, 21024, Note_on_c, 0, 66, 100
1, 21120, Note_off_c, 0, 66, 100
1, 21120, Note_on_c, 0, 64, 100
1, 21216, Note_off_c, 0, 64, 100
1, 21216, Note_on_c, 0, 65, 100
1, 21312, Note_off_c, 0, 65, 100
1, 21312, Note_on_c, 0, 63, 100
1, 21360, Note_off_c, 0, 63, 100
1, 21360, Note_on_c, 0, 62, 100
1, 21504, Note_off_c, 0, 62, 100
1, 21504, Note_on_c, 0, 65, 100
1, 21568, Note_off_c, 0, 65, 100
1, 21568, Note_on_c, 0, 67, 100
1, 21632, Note_off_c, 0, 67, 100
1, 21632, Note_on_c, 0, 65, 100
1, 21792, Note_off_c, 0, 65, 100
1, 21792, Note_on_c, 0, 68, 100
1, 21840, Note_off_c, 0, 68, 100
1, 21840, Note_on_c, 0, 74, 100
1, 21888, Note_off_c, 0, 74, 100
1, 21888, Note_on_c, 0, 72, 100
1, 21936, Note_off_c, 0, 72, 100
1, 21936, Note_on_c, 0, 68, 100
1, 21984, Note_off_c, 0, 68, 100
1, 21984, Note_on_c, 0, 66, 100
1, 22128, Note_off_c, 0, 66, 100
1, 22128, Note_on_c, 0, 70, 100
1, 22224, Note_off_c, 0, 70, 100
1, 22224, Note_on_c, 0, 69, 100
1, 22320, Note_off_c, 0, 69, 100
1, 22320, Note_on_c, 0, 68, 100
1, 22416, Note_off_c, 0, 68, 100
1, 22416, Note_on_c, 0, 67, 100
1, 22528, Note_off_c, 0, 67, 100
1, 22528, Note_on_c, 0, 64, 100
1, 22656, Note_off_c, 0, 64, 100
1, 22656, Note_on_c, 0, 67, 100
1, 22800, Note_off_c, 0, 67, 100
1, 22800, Note_on_c, 0, 64, 100
1, 22848, Note_off_c, 0, 64, 100
1, 22848, Note_on_c, 0, 61, 100
1, 22944, Note_off_c, 0, 61, 100
1, 22944, Note_on_c, 0, 59, 100
1, 23040, Note_off_c, 0, 59, 100
1, 23040, Note_on_c, 0, 61, 100
1, 23136, Note_off_c, 0, 61, 100
1, 23136, Note_on_c, 0, 62, 100
1, 23184, Note_off_c, 0, 62, 100
1, 23184, Note_on_c, 0, 63, 100
1, 23328, Note_off_c, 0, 63, 100
1, 23328, Note_on_c, 0, 67, 100
1, 23424, Note_off_c, 0, 67, 100
1, 23424, Note_on_c, 0, 65, 100
1, 23520, Note_off_c, 0, 65, 100
1, 23520, Note_on_c, 0, 67, 100
1, 23616, Note_off_c, 0, 67, 100
1, 23616, Note_on_c, 0, 68, 100
1, 23712, Note_off_c, 0, 68, 100
1, 23712, Note_on_c, 0, 69, 100
1, 23760, Note_off_c, 0, 69, 100
1, 23760, Note_on_c, 0, 70, 100
1, 23904, Note_off_c, 0, 70, 100
1, 23904, Note_on_c, 0, 68, 100
1, 24000, Note_off_c, 0, 68, 100
1, 24000, Note_on_c, 0, 69, 100
1, 24096, Note_off_c, 0, 69, 100
1, 24096, Note_on_c, 0, 67, 100
1, 24192, Note_off_c, 0, 67, 100
1, 24192, Note_on_c, 0, 65, 100
1, 24288, Note_off_c, 0, 65, 100
1, 24288, Note_on_c, 0, 69, 100
1, 24384, Note_off_c, 0, 69, 100
1, 24384, Note_on_c, 0, 66, 100
1, 24432, Note_off_c, 0, 66, 100
1, 24432, Note_on_c, 0, 67, 100
1, 24480, Note_off_c, 0, 67, 100
1, 24480, Note_on_c, 0, 69, 100
1, 24576, Note_off_c, 0, 69, 100
1, 24576, Note_on_c, 0, 67, 100
1, 24672, Note_off_c, 0, 67, 100
1, 24672, Note_on_c, 0, 69, 100
1, 24768, Note_off_c, 0, 69, 100
1, 24768, Note_on_c, 0, 70, 100
1, 24864, Note_off_c, 0, 70, 100
1, 24864, Note_on_c, 0, 72, 100
1, 24960, Note_off_c, 0, 72, 100
1, 24960, Note_on_c, 0, 74, 100
1, 25056, Note_off_c, 0, 74, 100
1, 25056, Note_on_c, 0, 73, 100
1, 25152, Note_off_c, 0, 73, 100
1, 25152, Note_on_c, 0, 72, 100
1, 25248, Note_off_c, 0, 72, 100
1, 25248, Note_on_c, 0, 71, 100
1, 25344, Note_off_c, 0, 71, 100
1, 25344, Note_on_c, 0, 70, 100
1, 25440, Note_off_c, 0, 70, 100
1, 25440, Note_on_c, 0, 68, 100
1, 25536, Note_off_c, 0, 68, 100
1, 25536, Note_on_c, 0, 67, 100
1, 25632, Note_off_c, 0, 67, 100
1, 25632, Note_on_c, 0, 65, 100
1, 25728, Note_off_c, 0, 65, 100
1, 25728, Note_on_c, 0, 63, 100
1, 25792, Note_off_c, 0, 63, 100
1, 25792, Note_on_c, 0, 63, 100
1, 25856, Note_off_c, 0, 63, 100
1, 25856, Note_on_c, 0, 62, 100
1, 25984, Note_off_c, 0, 62, 100
1, 25984, Note_on_c, 0, 61, 100
1, 26208, Note_off_c, 0, 61, 100
1, 26208, Note_on_c, 0, 67, 100
1, 26352, Note_off_c, 0, 67, 100
1, 26352, Note_on_c, 0, 65, 100
1, 26448, Note_off_c, 0, 65, 100
1, 26448, Note_on_c, 0, 67, 100
1, 26544, Note_off_c, 0, 67, 100
1, 26544, Note_on_c, 0, 65, 100
1, 26640, Note_off_c, 0, 65, 100
1, 26640, Note_on_c, 0, 60, 100
1, 26736, Note_off_c, 0, 60, 100
1, 27600, Note_on_c, 0, 77, 100
1, 27696, Note_off_c, 0, 77, 100
1, 27696, Note_on_c, 0, 78, 100
1, 27792, Note_off_c, 0, 78, 100
1, 27792, Note_on_c, 0, 76, 100
1, 27840, Note_off_c, 0, 76, 100
1, 27840, Note_on_c, 0, 77, 100
1, 27936, Note_off_c, 0, 77, 100
1, 27936, Note_on_c, 0, 78, 100
1, 28032, Note_off_c, 0, 78, 100
1, 28032, Note_on_c, 0, 77, 100
1, 28080, Note_off_c, 0, 77, 100
1, 28080, Note_on_c, 0, 76, 100
1, 28176, Note_off_c, 0, 76, 100
1, 28176, Note_on_c, 0, 74, 100
1, 28224, Note_off_c, 0, 74, 100
1, 28224, Note_on_c, 0, 75, 100
1, 28320, Note_off_c, 0, 75, 100
1, 28320, Note_on_c, 0, 76, 100
1, 28416, Note_off_c, 0, 76, 100
1, 28416, Note_on_c, 0, 74, 100
1, 28464, Note_off_c, 0, 74, 100
1, 28464, Note_on_c, 0, 75, 100
1, 28560, Note_off_c, 0, 75, 100
1, 28560, Note_on_c, 0, 74, 100
1, 28656, Note_off_c, 0, 74, 100
1, 29088, Note_on_c, 0, 77, 100
1, 29184, Note_off_c, 0, 77, 100
1, 29184, Note_on_c, 0, 78, 100
1, 29280, Note_off_c, 0, 78, 100
1, 29280, Note_on_c, 0, 76, 100
1, 29376, Note_off_c, 0, 76, 100
1, 29376, Note_on_c, 0, 77, 100
1, 29472, Note_off_c, 0, 77, 100
1, 29472, Note_on_c, 0, 75, 100
1, 29568, Note_off_c, 0, 75, 100
1, 29568, Note_on_c, 0, 76, 100
1, 29664, Note_off_c, 0, 76, 100
1, 29664, Note_on_c, 0, 74, 100
1, 29760, Note_off_c, 0, 74, 100
1, 29760, Note_on_c, 0, 75, 100
1, 29856, Note_off_c, 0, 75, 100
1, 30672, Note_on_c, 0, 77, 100
1, 30720, Note_off_c, 0, 77, 100
1, 30720, Note_on_c, 0, 78, 100
1, 30816, Note_off_c, 0, 78, 100
1, 30816, Note_on_c, 0, 76, 100
1, 30912, Note_off_c, 0, 76, 100
1, 30912, Note_on_c, 0, 77, 100
1, 31008, Note_off_c, 0, 77, 100
1, 31008, Note_on_c, 0, 78, 100
1, 31104, Note_off_c, 0, 78, 100
1, 31104, Note_on_c, 0, 76, 100
1, 31200, Note_off_c, 0, 76, 100
1, 31200, Note_on_c, 0, 74, 100
1, 31296, Note_off_c, 0, 74, 100
1, 31296, Note_on_c, 0, 75, 100
1, 31392, Note_off_c, 0, 75, 100
1, 31392, Note_on_c, 0, 73, 100
1, 31488, Note_off_c, 0, 73, 100
1, 31488, Note_on_c, 0, 74, 100
1, 31616, Note_off_c, 0, 74, 100
1, 31616, Note_on_c, 0, 73, 100
1, 31744, Note_off_c, 0, 73, 100
1, 31744, Note_on_c, 0, 71, 100
1, 31872, Note_off_c, 0, 71, 100
1, 31872, Note_on_c, 0, 72, 100
1, 31968, Note_off_c, 0, 72, 100
1, 31968, Note_on_c, 0, 70, 100
1, 32064, Note_off_c, 0, 70, 100
1, 32064, Note_on_c, 0, 71, 100
1, 32160, Note_off_c, 0, 71, 100
1, 32160, Note_on_c, 0, 68, 100
1, 32256, Note_off_c, 0, 68, 100
1, 32256, Note_on_c, 0, 70, 100
1, 32352, Note_off_c, 0, 70, 100
1, 32352, Note_on_c, 0, 72, 100
1, 32448, Note_off_c, 0, 72, 100
1, 32448, Note_on_c, 0, 74, 100
1, 32544, Note_off_c, 0, 74, 100
1, 32544, Note_on_c, 0, 77, 100
1, 32640, Note_off_c, 0, 77, 100
1, 33024, Note_on_c, 0, 76, 100
1, 33264, Note_off_c, 0, 76, 100
1, 33264, Note_on_c, 0, 75, 100
1, 33312, Note_off_c, 0, 75, 100
1, 33312, Note_on_c, 0, 74, 100
1, 33360, Note_off_c, 0, 74, 100
1, 33360, Note_on_c, 0, 72, 100
1, 33472, Note_off_c, 0, 72, 100
1, 33472, Note_on_c, 0, 74, 100
1, 33744, Note_off_c, 0, 74, 100
1, 33744, Note_on_c, 0, 70, 100
1, 33984, Note_off_c, 0, 70, 100
1, 33984, Note_on_c, 0, 66, 100
1, 34176, Note_off_c, 0, 66, 100
1, 34176, Note_on_c, 0, 70, 100
1, 34560, Note_off_c, 0, 70, 100
1, 34560, Note_on_c, 0, 69, 100
1, 34608, Note_off_c, 0, 69, 100
1, 34608, Note_on_c, 0, 70, 100
1, 34704, Note_off_c, 0, 70, 100
1, 34704, Note_on_c, 0, 69, 100
1, 34848, Note_off_c, 0, 69, 100
1, 34848, Note_on_c, 0, 65, 100
1, 35040, Note_off_c, 0, 65, 100
1, 35040, Note_on_c, 0, 69, 100
1, 35280, Note_off_c, 0, 69, 100
1, 35280, Note_on_c, 0, 68, 100
1, 35616, Note_off_c, 0, 68, 100
1, 35616, Note_on_c, 0, 64, 100
1, 35776, Note_off_c, 0, 64, 100
1, 35776, Note_on_c, 0, 68, 100
1, 36768, Note_off_c, 0, 68, 100
1, 36768, Note_on_c, 0, 72, 100
1, 36864, Note_off_c, 0, 72, 100
1, 36864, Note_on_c, 0, 74, 100
1, 37056, Note_off_c, 0, 74, 100
1, 37056, Note_on_c, 0, 69, 100
1, 37248, Note_off_c, 0, 69, 100
1, 37248, Note_on_c, 0, 72, 100
1, 38016, Note_off_c, 0, 72, 100
1, 38016, Note_on_c, 0, 74, 100
1, 38208, Note_off_c, 0, 74, 100
1, 38208, Note_on_c, 0, 77, 100
1, 38304, Note_off_c, 0, 77, 100
1, 38304, Note_on_c, 0, 76, 100
1, 38400, Note_off_c, 0, 76, 100
1, 38400, Note_on_c, 0, 75, 100
1, 38496, Note_off_c, 0, 75, 100
1, 38496, Note_on_c, 0, 71, 100
1, 38592, Note_off_c, 0, 71, 100
1, 38592, Note_on_c, 0, 74, 100
1, 38688, Note_off_c, 0, 74, 100
1, 38688, Note_on_c, 0, 73, 100
1, 38784, Note_off_c, 0, 73, 100
1, 38784, Note_on_c, 0, 71, 100
1, 38832, Note_off_c, 0, 71, 100
1, 38832, Note_on_c, 0, 72, 100
1, 38928, Note_off_c, 0, 72, 100
1, 38928, Note_on_c, 0, 70, 100
1, 38976, Note_off_c, 0, 70, 100
1, 38976, Note_on_c, 0, 69, 100
1, 39072, Note_off_c, 0, 69, 100
1, 39072, Note_on_c, 0, 72, 100
1, 39168, Note_off_c, 0, 72, 100
1, 39168, Note_on_c, 0, 71, 100
1, 39264, Note_off_c, 0, 71, 100
1, 39552, Note_on_c, 0, 71, 100
1, 39628, Note_off_c, 0, 71, 100
1, 39628, Note_on_c, 0, 70, 100
1, 39666, Note_off_c, 0, 70, 100
1, 39666, Note_on_c, 0, 69, 100
1, 39704, Note_off_c, 0, 69, 100
1, 39704, Note_on_c, 0, 66, 100
1, 39806, Note_off_c, 0, 66, 100
1, 39806, Note_on_c, 0, 64, 100
1, 39870, Note_off_c, 0, 64, 100
1, 39870, Note_on_c, 0, 65, 100
1, 40030, Note_off_c, 0, 65, 100
1, 40030, Note_on_c, 0, 67, 100
1, 40126, Note_off_c, 0, 67, 100
1, 40126, Note_on_c, 0, 68, 100
1, 40222, Note_off_c, 0, 68, 100
1, 40222, Note_on_c, 0, 72, 100
1, 40366, Note_off_c, 0, 72, 100
1, 40366, Note_on_c, 0, 68, 100
1, 40414, Note_off_c, 0, 68, 100
1, 40414, Note_on_c, 0, 67, 100
1, 40462, Note_off_c, 0, 67, 100
1, 40462, Note_on_c, 0, 65, 100
1, 40510, Note_off_c, 0, 65, 100
1, 40510, Note_on_c, 0, 70, 100
1, 40606, Note_off_c, 0, 70, 100
1, 40606, Note_on_c, 0, 69, 100
1, 40702, Note_off_c, 0, 69, 100
1, 40702, Note_on_c, 0, 68, 100
1, 40798, Note_off_c, 0, 68, 100
1, 41726, Note_on_c, 0, 73, 100
1, 41854, Note_off_c, 0, 73, 100
1, 41854, Note_on_c, 0, 75, 100
1, 41950, Note_off_c, 0, 75, 100
1, 41950, Note_on_c, 0, 70, 100
1, 42622, Note_off_c, 0, 70, 100
1, 42622, Note_on_c, 0, 73, 100
1, 42718, Note_off_c, 0, 73, 100
1, 42910, Note_on_c, 0, 68, 100
1, 43342, Note_off_c, 0, 68, 100
1, 43342, Note_on_c, 0, 70, 100
1, 43582, Note_off_c, 0, 70, 100
1, 43582, Note_on_c, 0, 63, 100
1, 43966, Note_off_c, 0, 63, 100
1, 43966, Note_on_c, 0, 65, 100
1, 44158, Note_off_c, 0, 65, 100
1, 44158, Note_on_c, 0, 63, 100
1, 44254, Note_off_c, 0, 63, 100
1, 44446, Note_on_c, 0, 60, 100
1, 44638, Note_off_c, 0, 60, 100
1, 44638, Note_on_c, 0, 60, 100
1, 45406, Note_off_c, 0, 60, 100
1, 45982, Note_on_c, 0, 75, 100
1, 46318, Note_off_c, 0, 75, 100
1, 46318, Note_on_c, 0, 77, 100
1, 46654, Note_off_c, 0, 77, 100
1, 46654, Note_on_c, 0, 79, 100
1, 47134, Note_off_c, 0, 79, 100
1, 47134, Note_on_c, 0, 79, 100
1, 47326, Note_off_c, 0, 79, 100
1, 47326, Note_on_c, 0, 75, 100
1, 47518, Note_off_c, 0, 75, 100
1, 47518, Note_on_c, 0, 77, 100
1, 47710, Note_off_c, 0, 77, 100
1, 47710, Note_on_c, 0, 77, 100
1, 48862, Note_off_c, 0, 77, 100
1, 49438, Note_on_c, 0, 77, 100
1, 49582, Note_off_c, 0, 77, 100
1, 49582, Note_on_c, 0, 79, 100
1, 49630, Note_off_c, 0, 79, 100
1, 49630, Note_on_c, 0, 80, 100
1, 49678, Note_off_c, 0, 80, 100
1, 49678, Note_on_c, 0, 81, 100
1, 49726, Note_off_c, 0, 81, 100
1, 49726, Note_on_c, 0, 82, 100
1, 50782, Note_off_c, 0, 82, 100
1, 50782, Note_on_c, 0, 79, 100
1, 50878, Note_off_c, 0, 79, 100
1, 50878, Note_on_c, 0, 77, 100
1, 51070, Note_off_c, 0, 77, 100
1, 51070, Note_on_c, 0, 77, 100
1, 52558, Note_off_c, 0, 77, 100
1, 52558, Note_on_c, 0, 78, 100
1, 52750, Note_off_c, 0, 78, 100
1, 52750, Note_on_c, 0, 77, 100
1, 52894, Note_off_c, 0, 77, 100
1, 52894, Note_on_c, 0, 75, 100
1, 53134, Note_off_c, 0, 75, 100
1, 53134, Note_on_c, 0, 73, 100
1, 53566, Note_off_c, 0, 73, 100
1, 53566, Note_on_c, 0, 75, 100
1, 53854, Note_off_c, 0, 75, 100
1, 53854, Note_on_c, 0, 72, 100
1, 54142, Note_off_c, 0, 72, 100
1, 54142, Note_on_c, 0, 70, 100
1, 54238, Note_off_c, 0, 70, 100
1, 54238, Note_on_c, 0, 67, 100
1, 54334, Note_off_c, 0, 67, 100
1, 54334, Note_on_c, 0, 70, 100
1, 54782, Note_off_c, 0, 70, 100
1, 54782, Note_on_c, 0, 70, 100
1, 54878, Note_off_c, 0, 70, 100
1, 55550, Note_on_c, 0, 75, 100
1, 55614, Note_off_c, 0, 75, 100
1, 55614, Note_on_c, 0, 74, 100
1, 55742, Note_off_c, 0, 74, 100
1, 55742, Note_on_c, 0, 76, 100
1, 55806, Note_off_c, 0, 76, 100
1, 55806, Note_on_c, 0, 78, 100
1, 55870, Note_off_c, 0, 78, 100
1, 55870, Note_on_c, 0, 79, 100
1, 55966, Note_off_c, 0, 79, 100
1, 55966, Note_on_c, 0, 80, 100
1, 56062, Note_off_c, 0, 80, 100
1, 56062, Note_on_c, 0, 76, 100
1, 56158, Note_off_c, 0, 76, 100
1, 56702, Note_on_c, 0, 75, 100
1, 56766, Note_off_c, 0, 75, 100
1, 56766, Note_on_c, 0, 74, 100
1, 56878, Note_off_c, 0, 74, 100
1, 56878, Note_on_c, 0, 75, 100
1, 56974, Note_off_c, 0, 75, 100
1, 56974, Note_on_c, 0, 79, 100
1, 57118, Note_off_c, 0, 79, 100
1, 57118, Note_on_c, 0, 77, 100
1, 57214, Note_off_c, 0, 77, 100
1, 57214, Note_on_c, 0, 76, 100
1, 57310, Note_off_c, 0, 76, 100
1, 57310, Note_on_c, 0, 75, 100
1, 57406, Note_off_c, 0, 75, 100
1, 57406, Note_on_c, 0, 74, 100
1, 57502, Note_off_c, 0, 74, 100
1, 57790, Note_on_c, 0, 71, 100
1, 57886, Note_off_c, 0, 71, 100
1, 57886, Note_on_c, 0, 74, 100
1, 57982, Note_off_c, 0, 74, 100
1, 57982, Note_on_c, 0, 71, 100
1, 58078, Note_off_c, 0, 71, 100
1, 58078, Note_on_c, 0, 72, 100
1, 58174, Note_off_c, 0, 72, 100
1, 58174, Note_on_c, 0, 74, 100
1, 58270, Note_off_c, 0, 74, 100
1, 58270, Note_on_c, 0, 75, 100
1, 58430, Note_off_c, 0, 75, 100
1, 58430, Note_on_c, 0, 77, 100
1, 58494, Note_off_c, 0, 77, 100
1, 58494, Note_on_c, 0, 78, 100
1, 58606, Note_off_c, 0, 78, 100
1, 58606, Note_on_c, 0, 76, 100
1, 58702, Note_off_c, 0, 76, 100
1, 58702, Note_on_c, 0, 77, 100
1, 58814, Note_off_c, 0, 77, 100
1, 58814, Note_on_c, 0, 74, 100
1, 58942, Note_off_c, 0, 74, 100
1, 58942, Note_on_c, 0, 75, 100
1, 59038, Note_off_c, 0, 75, 100
1, 59038, Note_on_c, 0, 76, 100
1, 59134, Note_off_c, 0, 76, 100
1, 59134, Note_on_c, 0, 74, 100
1, 59230, Note_off_c, 0, 74, 100
1, 59230, Note_on_c, 0, 72, 100
1, 59326, Note_off_c, 0, 72, 100
1, 59326, Note_on_c, 0, 70, 100
1, 59422, Note_off_c, 0, 70, 100
1, 59422, Note_on_c, 0, 69, 100
1, 59518, Note_off_c, 0, 69, 100
1, 59518, Note_on_c, 0, 68, 100
1, 59614, Note_off_c, 0, 68, 100
1, 59614, Note_on_c, 0, 67, 100
1, 59710, Note_off_c, 0, 67, 100
1, 59710, Note_on_c, 0, 65, 100
1, 59806, Note_off_c, 0, 65, 100
1, 59806, Note_on_c, 0, 63, 100
1, 59998, Note_off_c, 0, 63, 100
1, 59998, Note_on_c, 0, 60, 100
1, 60094, Note_off_c, 0, 60, 100
1, 60094, Note_on_c, 0, 58, 100
1, 60190, Note_off_c, 0, 58, 100
1, 60190, Note_on_c, 0, 55, 100
1, 60334, Note_off_c, 0, 55, 100
1, 60334, Note_on_c, 0, 53, 100
1, 60430, Note_off_c, 0, 53, 100
1, 60430, Note_on_c, 0, 55, 100
1, 60542, Note_off_c, 0, 55, 100
1, 60542, Note_on_c, 0, 58, 100
1, 60670, Note_off_c, 0, 58, 100
1, 60670, Note_on_c, 0, 60, 100
1, 60718, Note_off_c, 0, 60, 100
1, 60718, Note_on_c, 0, 65, 100
1, 60814, Note_off_c, 0, 65, 100
1, 60814, Note_on_c, 0, 62, 100
1, 60910, Note_off_c, 0, 62, 100
1, 60910, Note_on_c, 0, 63, 100
1, 61006, Note_off_c, 0, 63, 100
1, 61006, Note_on_c, 0, 65, 100
1, 61118, Note_off_c, 0, 65, 100
1, 61118, Note_on_c, 0, 67, 100
1, 61246, Note_off_c, 0, 67, 100
1, 61246, Note_on_c, 0, 69, 100
1, 61310, Note_off_c, 0, 69, 100
1, 61310, Note_on_c, 0, 74, 100
1, 61374, Note_off_c, 0, 74, 100
1, 61374, Note_on_c, 0, 71, 100
1, 61470, Note_off_c, 0, 71, 100
1, 61918, Note_on_c, 0, 66, 100
1, 62398, Note_off_c, 0, 66, 100
1, 62398, Note_on_c, 0, 68, 100
1, 62494, Note_off_c, 0, 68, 100
1, 62494, Note_on_c, 0, 70, 100
1, 62686, Note_off_c, 0, 70, 100
1, 62686, Note_on_c, 0, 65, 100
1, 62878, Note_off_c, 0, 65, 100
1, 62878, Note_on_c, 0, 65, 100
1, 63070, Note_off_c, 0, 65, 100
1, 63070, Note_on_c, 0, 65, 100
1, 63166, Note_off_c, 0, 65, 100
1, 63166, Note_on_c, 0, 67, 100
1, 63262, Note_off_c, 0, 67, 100
1, 63262, Note_on_c, 0, 69, 100
1, 63358, Note_off_c, 0, 69, 100
1, 63358, Note_on_c, 0, 64, 100
1, 63550, Note_off_c, 0, 64, 100
1, 63550, Note_on_c, 0, 64, 100
1, 64702, Note_off_c, 0, 64, 100
1, 64942, Note_on_c, 0, 74, 100
1, 65038, Note_off_c, 0, 74, 100
1, 65038, Note_on_c, 0, 75, 100
1, 65086, Note_off_c, 0, 75, 100
1, 65086, Note_on_c, 0, 78, 100
1, 65182, Note_off_c, 0, 78, 100
1, 65182, Note_on_c, 0, 77, 100
1, 65278, Note_off_c, 0, 77, 100
1, 65278, Note_on_c, 0, 78, 100
1, 65374, Note_off_c, 0, 78, 100
1, 65374, Note_on_c, 0, 76, 100
1, 65662, Note_off_c, 0, 76, 100
1, 65662, Note_on_c, 0, 76, 100
1, 65758, Note_off_c, 0, 76, 100
1, 65758, Note_on_c, 0, 78, 100
1, 65854, Note_off_c, 0, 78, 100
1, 65854, Note_on_c, 0, 76, 100
1, 65950, Note_off_c, 0, 76, 100
1, 65950, Note_on_c, 0, 77, 100
1, 66046, Note_off_c, 0, 77, 100
1, 66046, Note_on_c, 0, 78, 100
1, 66142, Note_off_c, 0, 78, 100
1, 66142, Note_on_c, 0, 76, 100
1, 66238, Note_off_c, 0, 76, 100
1, 66430, Note_on_c, 0, 77, 100
1, 66526, Note_off_c, 0, 77, 100
1, 66526, Note_on_c, 0, 78, 100
1, 66574, Note_off_c, 0, 78, 100
1, 66574, Note_on_c, 0, 76, 100
1, 66670, Note_off_c, 0, 76, 100
1, 66670, Note_on_c, 0, 77, 100
1, 66766, Note_off_c, 0, 77, 100
1, 66766, Note_on_c, 0, 78, 100
1, 66862, Note_off_c, 0, 78, 100
1, 66862, Note_on_c, 0, 76, 100
1, 66958, Note_off_c, 0, 76, 100
1, 66958, Note_on_c, 0, 77, 100
1, 67054, Note_off_c, 0, 77, 100
1, 67054, Note_on_c, 0, 75, 100
1, 67150, Note_off_c, 0, 75, 100
1, 67150, Note_on_c, 0, 73, 100
1, 67198, Note_off_c, 0, 73, 100
1, 67198, Note_on_c, 0, 74, 100
1, 67294, Note_off_c, 0, 74, 100
1, 67294, Note_on_c, 0, 72, 100
1, 67390, Note_off_c, 0, 72, 100
1, 67390, Note_on_c, 0, 73, 100
1, 67518, Note_off_c, 0, 73, 100
1, 67518, Note_on_c, 0, 71, 100
1, 67582, Note_off_c, 0, 71, 100
1, 67582, Note_on_c, 0, 72, 100
1, 67678, Note_off_c, 0, 72, 100
1, 67678, Note_on_c, 0, 70, 100
1, 67774, Note_off_c, 0, 70, 100
1, 67774, Note_on_c, 0, 71, 100
1, 67870, Note_off_c, 0, 71, 100
1, 67870, Note_on_c, 0, 69, 100
1, 68014, Note_off_c, 0, 69, 100
1, 68014, Note_on_c, 0, 70, 100
1, 68110, Note_off_c, 0, 70, 100
1, 68110, Note_on_c, 0, 75, 100
1, 68206, Note_off_c, 0, 75, 100
1, 68206, Note_on_c, 0, 74, 100
1, 68302, Note_off_c, 0, 74, 100
1, 68302, Note_on_c, 0, 72, 100
1, 68398, Note_off_c, 0, 72, 100
1, 68398, Note_on_c, 0, 70, 100
1, 68494, Note_off_c, 0, 70, 100
1, 68494, Note_on_c, 0, 69, 100
1, 68590, Note_off_c, 0, 69, 100
1, 68590, Note_on_c, 0, 68, 100
1, 68686, Note_off_c, 0, 68, 100
1, 68686, Note_on_c, 0, 64, 100
1, 68782, Note_off_c, 0, 64, 100
1, 68782, Note_on_c, 0, 67, 100
1, 68878, Note_off_c, 0, 67, 100
1, 68878, Note_on_c, 0, 64, 100
1, 68974, Note_off_c, 0, 64, 100
1, 68974, Note_on_c, 0, 66, 100
1, 69070, Note_off_c, 0, 66, 100
1, 69070, Note_on_c, 0, 67, 100
1, 69214, Note_off_c, 0, 67, 100
1, 69214, Note_on_c, 0, 68, 100
1, 69262, Note_off_c, 0, 68, 100
1, 69262, Note_on_c, 0, 70, 100
1, 69358, Note_off_c, 0, 70, 100
1, 69358, Note_on_c, 0, 68, 100
1, 69406, Note_off_c, 0, 68, 100
1, 69406, Note_on_c, 0, 71, 100
1, 69454, Note_off_c, 0, 71, 100
1, 69454, Note_on_c, 0, 73, 100
1, 69550, Note_off_c, 0, 73, 100
1, 70718, Note_on_c, 0, 73, 100
1, 70782, Note_off_c, 0, 73, 100
1, 70782, Note_on_c, 0, 74, 100
1, 71038, Note_off_c, 0, 74, 100
1, 71038, Note_on_c, 0, 73, 100
1, 71134, Note_off_c, 0, 73, 100
1, 71134, Note_on_c, 0, 72, 100
1, 71230, Note_off_c, 0, 72, 100
1, 71230, Note_on_c, 0, 73, 100
1, 71326, Note_off_c, 0, 73, 100
1, 71326, Note_on_c, 0, 72, 100
1, 71422, Note_off_c, 0, 72, 100
1, 71422, Note_on_c, 0, 73, 100
1, 71518, Note_off_c, 0, 73, 100
1, 71518, Note_on_c, 0, 72, 100
1, 71566, Note_off_c, 0, 72, 100
1, 71566, Note_on_c, 0, 73, 100
1, 71614, Note_off_c, 0, 73, 100
1, 71614, Note_on_c, 0, 72, 100
1, 71710, Note_off_c, 0, 72, 100
1, 71710, Note_on_c, 0, 73, 100
1, 71806, Note_off_c, 0, 73, 100
1, 71806, Note_on_c, 0, 72, 100
1, 71854, Note_off_c, 0, 72, 100
1, 71854, Note_on_c, 0, 73, 100
1, 71950, Note_off_c, 0, 73, 100
1, 71950, Note_on_c, 0, 72, 100
1, 71998, Note_off_c, 0, 72, 100
1, 71998, Note_on_c, 0, 73, 100
1, 72094, Note_off_c, 0, 73, 100
1, 72094, Note_on_c, 0, 72, 100
1, 72142, Note_off_c, 0, 72, 100
1, 72142, Note_on_c, 0, 73, 100
1, 72190, Note_off_c, 0, 73, 100
1, 72190, Note_on_c, 0, 72, 100
1, 72286, Note_off_c, 0, 72, 100
1, 72286, Note_on_c, 0, 73, 100
1, 72382, Note_off_c, 0, 73, 100
1, 72382, Note_on_c, 0, 72, 100
1, 72430, Note_off_c, 0, 72, 100
1, 72430, Note_on_c, 0, 73, 100
1, 72574, Note_off_c, 0, 73, 100
1, 72574, Note_on_c, 0, 71, 100
1, 72638, Note_off_c, 0, 71, 100
1, 72638, Note_on_c, 0, 72, 100
1, 74110, Note_off_c, 0, 72, 100
1, 74110, Note_on_c, 0, 72, 100
1, 74398, Note_off_c, 0, 72, 100
1, 74398, Note_on_c, 0, 67, 100
1, 74590, Note_off_c, 0, 67, 100
1, 74590, Note_on_c, 0, 70, 100
1, 75454, Note_off_c, 0, 70, 100
1, 75454, Note_on_c, 0, 74, 100
1, 75742, Note_off_c, 0, 74, 100
1, 75742, Note_on_c, 0, 75, 100
1, 75790, Note_off_c, 0, 75, 100
1, 75790, Note_on_c, 0, 72, 100
1, 75934, Note_off_c, 0, 72, 100
1, 75934, Note_on_c, 0, 67, 100
1, 76030, Note_off_c, 0, 67, 100
1, 76030, Note_on_c, 0, 70, 100
1, 76318, Note_off_c, 0, 70, 100
1, 76318, Note_on_c, 0, 70, 100
1, 76862, Note_off_c, 0, 70, 100
1, 76862, Note_on_c, 0, 70, 100
1, 76958, Note_off_c, 0, 70, 100
1, 77662, Note_on_c, 0, 73, 100
1, 77854, Note_off_c, 0, 73, 100
1, 77854, Note_on_c, 0, 75, 100
1, 77950, Note_off_c, 0, 75, 100
1, 77950, Note_on_c, 0, 70, 100
1, 78206, Note_off_c, 0, 70, 100
1, 78206, Note_on_c, 0, 71, 100
1, 78270, Note_off_c, 0, 71, 100
1, 78270, Note_on_c, 0, 73, 100
1, 78430, Note_off_c, 0, 73, 100
1, 78430, Note_on_c, 0, 68, 100
1, 78622, Note_off_c, 0, 68, 100
1, 78622, Note_on_c, 0, 70, 100
1, 78718, Note_off_c, 0, 70, 100
1, 78718, Note_on_c, 0, 65, 100
1, 78910, Note_off_c, 0, 65, 100
1, 78910, Note_on_c, 0, 65, 100
1, 79198, Note_off_c, 0, 65, 100
1, 79198, Note_on_c, 0, 67, 100
1, 80318, Note_off_c, 0, 67, 100
1, 80318, Note_on_c, 0, 65, 100
1, 80382, Note_off_c, 0, 65, 100
1, 80382, Note_on_c, 0, 64, 100
1, 80446, Note_off_c, 0, 64, 100
1, 80446, Note_on_c, 0, 66, 100
1, 80590, Note_off_c, 0, 66, 100
1, 80590, Note_on_c, 0, 67, 100
1, 80702, Note_off_c, 0, 67, 100
1, 80702, Note_on_c, 0, 69, 100
1, 80830, Note_off_c, 0, 69, 100
1, 80830, Note_on_c, 0, 66, 100
1, 80926, Note_off_c, 0, 66, 100
1, 80926, Note_on_c, 0, 68, 100
1, 81022, Note_off_c, 0, 68, 100
1, 81662, Note_on_c, 0, 65, 100
1, 81726, Note_off_c, 0, 65, 100
1, 81726, Note_on_c, 0, 67, 100
1, 81790, Note_off_c, 0, 67, 100
1, 81790, Note_on_c, 0, 69, 100
1, 81918, Note_off_c, 0, 69, 100
1, 81918, Note_on_c, 0, 65, 100
1, 81982, Note_off_c, 0, 65, 100
1, 81982, Note_on_c, 0, 67, 100
1, 82078, Note_off_c, 0, 67, 100
1, 82078, Note_on_c, 0, 65, 100
1, 82174, Note_off_c, 0, 65, 100
1, 82174, Note_on_c, 0, 62, 100
1, 82270, Note_off_c, 0, 62, 100
1, 82270, Note_on_c, 0, 61, 100
1, 82430, Note_off_c, 0, 61, 100
1, 82430, Note_on_c, 0, 60, 100
1, 82558, Note_off_c, 0, 60, 100
1, 82558, Note_on_c, 0, 67, 100
1, 82606, Note_off_c, 0, 67, 100
1, 82606, Note_on_c, 0, 65, 100
1, 82750, Note_off_c, 0, 65, 100
1, 82750, Note_on_c, 0, 65, 100
1, 82846, Note_off_c, 0, 65, 100
1, 83518, Note_on_c, 0, 74, 100
1, 83710, Note_off_c, 0, 74, 100
1, 83710, Note_on_c, 0, 77, 100
1, 83806, Note_off_c, 0, 77, 100
1, 84094, Note_on_c, 0, 70, 100
1, 84350, Note_off_c, 0, 70, 100
1, 84350, Note_on_c, 0, 75, 100
1, 84414, Note_off_c, 0, 75, 100
1, 84414, Note_on_c, 0, 74, 100
1, 84478, Note_off_c, 0, 74, 100
1, 84478, Note_on_c, 0, 75, 100
1, 84622, Note_off_c, 0, 75, 100
1, 84622, Note_on_c, 0, 68, 100
1, 84862, Note_off_c, 0, 68, 100
1, 84862, Note_on_c, 0, 74, 100
1, 85118, Note_off_c, 0, 74, 100
1, 85118, Note_on_c, 0, 67, 100
1, 85342, Note_off_c, 0, 67, 100
1, 85342, Note_on_c, 0, 72, 100
1, 85534, Note_off_c, 0, 72, 100
1, 85534, Note_on_c, 0, 67, 100
1, 85726, Note_off_c, 0, 67, 100
1, 85726, Note_on_c, 0, 70, 100
1, 85822, Note_off_c, 0, 70, 100
1, 85822, Note_on_c, 0, 67, 100
1, 85918, Note_off_c, 0, 67, 100
1, 85918, Note_on_c, 0, 69, 100
1, 86014, Note_off_c, 0, 69, 100
1, 86254, Note_on_c, 0, 73, 100
1, 86350, Note_off_c, 0, 73, 100
1, 86350, Note_on_c, 0, 71, 100
1, 86462, Note_off_c, 0, 71, 100
1, 86462, Note_on_c, 0, 68, 100
1, 86590, Note_off_c, 0, 68, 100
1, 86590, Note_on_c, 0, 64, 100
1, 86686, Note_off_c, 0, 64, 100
1, 86686, Note_on_c, 0, 65, 100
1, 86782, Note_off_c, 0, 65, 100
1, 87022, Note_on_c, 0, 72, 100
1, 87118, Note_off_c, 0, 72, 100
1, 87118, Note_on_c, 0, 69, 100
1, 87214, Note_off_c, 0, 69, 100
1, 87214, Note_on_c, 0, 70, 100
1, 87310, Note_off_c, 0, 70, 100
1, 87310, Note_on_c, 0, 72, 100
1, 87406, Note_off_c, 0, 72, 100
1, 87406, Note_on_c, 0, 73, 100
1, 87502, Note_off_c, 0, 73, 100
1, 87502, Note_on_c, 0, 74, 100
1, 87550, Note_off_c, 0, 74, 100
1, 87550, Note_on_c, 0, 75, 100
1, 87646, Note_off_c, 0, 75, 100
1, 87646, Note_on_c, 0, 76, 100
1, 87806, Note_off_c, 0, 76, 100
1, 87806, Note_on_c, 0, 77, 100
1, 87870, Note_off_c, 0, 77, 100
1, 87870, Note_on_c, 0, 74, 100
1, 87934, Note_off_c, 0, 74, 100
1, 87934, Note_on_c, 0, 75, 100
1, 88030, Note_off_c, 0, 75, 100
1, 88030, Note_on_c, 0, 73, 100
1, 88270, Note_off_c, 0, 73, 100
1, 88270, Note_on_c, 0, 77, 100
1, 88366, Note_off_c, 0, 77, 100
1, 88366, Note_on_c, 0, 73, 100
1, 88462, Note_off_c, 0, 73, 100
1, 88462, Note_on_c, 0, 71, 100
1, 88606, Note_off_c, 0, 71, 100
1, 88606, Note_on_c, 0, 72, 100
1, 88702, Note_off_c, 0, 72, 100
1, 89374, Note_on_c, 0, 74, 100
1, 91070, Note_off_c, 0, 74, 100
1, 91070, Note_on_c, 0, 73, 100
1, 91134, Note_off_c, 0, 73, 100
1, 91134, Note_on_c, 0, 74, 100
1, 91198, Note_off_c, 0, 74, 100
1, 91198, Note_on_c, 0, 73, 100
1, 91262, Note_off_c, 0, 73, 100
1, 91262, Note_on_c, 0, 74, 100
1, 91326, Note_off_c, 0, 74, 100
1, 91326, Note_on_c, 0, 73, 100
1, 91486, Note_off_c, 0, 73, 100
1, 91486, Note_on_c, 0, 74, 100
1, 91534, Note_off_c, 0, 74, 100
1, 91534, Note_on_c, 0, 73, 100
1, 91630, Note_off_c, 0, 73, 100
1, 91630, Note_on_c, 0, 74, 100
1, 91678, Note_off_c, 0, 74, 100
1, 91678, Note_on_c, 0, 73, 100
1, 91774, Note_off_c, 0, 73, 100
1, 91774, Note_on_c, 0, 74, 100
1, 91822, Note_off_c, 0, 74, 100
1, 91822, Note_on_c, 0, 73, 100
1, 91870, Note_off_c, 0, 73, 100
1, 91870, Note_on_c, 0, 72, 100
1, 91966, Note_off_c, 0, 72, 100
1, 91966, Note_on_c, 0, 73, 100
1, 92014, Note_off_c, 0, 73, 100
1, 92014, Note_on_c, 0, 72, 100
1, 92062, Note_off_c, 0, 72, 100
1, 92062, Note_on_c, 0, 73, 100
1, 92110, Note_off_c, 0, 73, 100
1, 92110, Note_on_c, 0, 72, 100
1, 92158, Note_off_c, 0, 72, 100
1, 92158, Note_on_c, 0, 73, 100
1, 92222, Note_off_c, 0, 73, 100
1, 92222, Note_on_c, 0, 72, 100
1, 92286, Note_off_c, 0, 72, 100
1, 92286, Note_on_c, 0, 73, 100
1, 92350, Note_off_c, 0, 73, 100
1, 92350, Note_on_c, 0, 72, 100
1, 92494, Note_off_c, 0, 72, 100
1, 92494, Note_on_c, 0, 74, 100
1, 92734, Note_off_c, 0, 74, 100
1, 92734, Note_on_c, 0, 67, 100
1, 92926, Note_off_c, 0, 67, 100
1, 92926, Note_on_c, 0, 72, 100
1, 93694, Note_off_c, 0, 72, 100
1, 93694, Note_on_c, 0, 74, 100
1, 93886, Note_off_c, 0, 74, 100
1, 93886, Note_on_c, 0, 67, 100
1, 94270, Note_off_c, 0, 67, 100
1, 94270, Note_on_c, 0, 72, 100
1, 94462, Note_off_c, 0, 72, 100
1, 94462, Note_on_c, 0, 70, 100
1, 94654, Note_off_c, 0, 70, 100
1, 94654, Note_on_c, 0, 70, 100
1, 95230, Note_off_c, 0, 70, 100
1, 95230, Note_on_c, 0, 68, 100
1, 95278, Note_off_c, 0, 68, 100
1, 95278, Note_on_c, 0, 69, 100
1, 95374, Note_off_c, 0, 69, 100
1, 95374, Note_on_c, 0, 67, 100
1, 95470, Note_off_c, 0, 67, 100
1, 95470, Note_on_c, 0, 65, 100
1, 95566, Note_off_c, 0, 65, 100
1, 95566, Note_on_c, 0, 63, 100
1, 95710, Note_off_c, 0, 63, 100
1, 95710, Note_on_c, 0, 65, 100
1, 95854, Note_off_c, 0, 65, 100
1, 95854, Note_on_c, 0, 68, 100
1, 95902, Note_off_c, 0, 68, 100
1, 95902, Note_on_c, 0, 69, 100
1, 95950, Note_off_c, 0, 69, 100
1, 95950, Note_on_c, 0, 68, 100
1, 95998, Note_off_c, 0, 68, 100
1, 95998, Note_on_c, 0, 67, 100
1, 96190, Note_off_c, 0, 67, 100
1, 96190, Note_on_c, 0, 70, 100
1, 96238, Note_off_c, 0, 70, 100
1, 96238, Note_on_c, 0, 69, 100
1, 96334, Note_off_c, 0, 69, 100
1, 96334, Note_on_c, 0, 68, 100
1, 96430, Note_off_c, 0, 68, 100
1, 96430, Note_on_c, 0, 67, 100
1, 96526, Note_off_c, 0, 67, 100
1, 96526, Note_on_c, 0, 65, 100
1, 96622, Note_off_c, 0, 65, 100
1, 96622, Note_on_c, 0, 63, 100
1, 96718, Note_off_c, 0, 63, 100
1, 96718, Note_on_c, 0, 62, 100
1, 96814, Note_off_c, 0, 62, 100
1, 96814, Note_on_c, 0, 65, 100
1, 96910, Note_off_c, 0, 65, 100
1, 96910, Note_on_c, 0, 61, 100
1, 97022, Note_off_c, 0, 61, 100
1, 97022, Note_on_c, 0, 60, 100
1, 97118, Note_off_c, 0, 60, 100
1, 99134, Note_on_c, 0, 74, 100
1, 99550, Note_off_c, 0, 74, 100
1, 99550, Note_on_c, 0, 75, 100
1, 99934, Note_off_c, 0, 75, 100
1, 99934, Note_on_c, 0, 76, 100
1, 100318, Note_off_c, 0, 76, 100
1, 100318, Note_on_c, 0, 77, 100
1, 101566, Note_off_c, 0, 77, 100
1, 101566, Note_on_c, 0, 76, 100
1, 101662, Note_off_c, 0, 76, 100
1, 101662, Note_on_c, 0, 77, 100
1, 101806, Note_off_c, 0, 77, 100
1, 101806, Note_on_c, 0, 75, 100
1, 101854, Note_off_c, 0, 75, 100
1, 101854, Note_on_c, 0, 74, 100
1, 101902, Note_off_c, 0, 74, 100
1, 101902, Note_on_c, 0, 75, 100
1, 103438, Note_off_c, 0, 75, 100
1, 103438, Note_on_c, 0, 71, 100
1, 103534, Note_off_c, 0, 71, 100
1, 103534, Note_on_c, 0, 74, 100
1, 103630, Note_off_c, 0, 74, 100
1, 103630, Note_on_c, 0, 73, 100
1, 103678, Note_off_c, 0, 73, 100
1, 103678, Note_on_c, 0, 71, 100
1, 103774, Note_off_c, 0, 71, 100
1, 103774, Note_on_c, 0, 72, 100
1, 103870, Note_off_c, 0, 72, 100
1, 103870, Note_on_c, 0, 70, 100
1, 103966, Note_off_c, 0, 70, 100
1, 103966, Note_on_c, 0, 69, 100
1, 104014, Note_off_c, 0, 69, 100
1, 104014, Note_on_c, 0, 67, 100
1, 104126, Note_off_c, 0, 67, 100
1, 104126, Note_on_c, 0, 65, 100
1, 104254, Note_off_c, 0, 65, 100
1, 104254, Note_on_c, 0, 64, 100
1, 104302, Note_off_c, 0, 64, 100
1, 104302, Note_on_c, 0, 63, 100
1, 104398, Note_off_c, 0, 63, 100
1, 104398, Note_on_c, 0, 65, 100
1, 104510, Note_off_c, 0, 65, 100
1, 104510, Note_on_c, 0, 67, 100
1, 104574, Note_off_c, 0, 67, 100
1, 104574, Note_on_c, 0, 69, 100
1, 104686, Note_off_c, 0, 69, 100
1, 104686, Note_on_c, 0, 70, 100
1, 104782, Note_off_c, 0, 70, 100
1, 104782, Note_on_c, 0, 68, 100
1, 104878, Note_off_c, 0, 68, 100
1, 104878, Note_on_c, 0, 70, 100
1, 104974, Note_off_c, 0, 70, 100
1, 104974, Note_on_c, 0, 69, 100
1, 105070, Note_off_c, 0, 69, 100
1, 105070, Note_on_c, 0, 68, 100
1, 105166, Note_off_c, 0, 68, 100
1, 105166, Note_on_c, 0, 67, 100
1, 105278, Note_off_c, 0, 67, 100
1, 105278, Note_on_c, 0, 65, 100
1, 105406, Note_off_c, 0, 65, 100
1, 105406, Note_on_c, 0, 63, 100
1, 105502, Note_off_c, 0, 63, 100
1, 105502, Note_on_c, 0, 61, 100
1, 105694, Note_off_c, 0, 61, 100
1, 105694, Note_on_c, 0, 60, 100
1, 105790, Note_off_c, 0, 60, 100
1, 105790, Note_on_c, 0, 58, 100
1, 105886, Note_off_c, 0, 58, 100
1, 105886, Note_on_c, 0, 56, 100
1, 105934, Note_off_c, 0, 56, 100
1, 105934, Note_on_c, 0, 58, 100
1, 106030, Note_off_c, 0, 58, 100
1, 106030, Note_on_c, 0, 60, 100
1, 106174, Note_off_c, 0, 60, 100
1, 106174, Note_on_c, 0, 67, 100
1, 106366, Note_off_c, 0, 67, 100
1, 106366, Note_on_c, 0, 64, 100
1, 106462, Note_off_c, 0, 64, 100
1, 106462, Note_on_c, 0, 65, 100
1, 106510, Note_off_c, 0, 65, 100
1, 106510, Note_on_c, 0, 67, 100
1, 106606, Note_off_c, 0, 67, 100
1, 106606, Note_on_c, 0, 68, 100
1, 106702, Note_off_c, 0, 68, 100
1, 106702, Note_on_c, 0, 69, 100
1, 106750, Note_off_c, 0, 69, 100
1, 106750, Note_on_c, 0, 74, 100
1, 106942, Note_off_c, 0, 74, 100
1, 106942, Note_on_c, 0, 71, 100
1, 106990, Note_off_c, 0, 71, 100
1, 106990, Note_on_c, 0, 72, 100
1, 107086, Note_off_c, 0, 72, 100
1, 107086, Note_on_c, 0, 70, 100
1, 107198, Note_off_c, 0, 70, 100
1, 107198, Note_on_c, 0, 67, 100
1, 107262, Note_off_c, 0, 67, 100
1, 107262, Note_on_c, 0, 68, 100
1, 107326, Note_off_c, 0, 68, 100
1, 107326, Note_on_c, 0, 69, 100
1, 107470, Note_off_c, 0, 69, 100
1, 107470, Note_on_c, 0, 70, 100
1, 107566, Note_off_c, 0, 70, 100
1, 107566, Note_on_c, 0, 69, 100
1, 107662, Note_off_c, 0, 69, 100
1, 107662, Note_on_c, 0, 67, 100
1, 107758, Note_off_c, 0, 67, 100
1, 107758, Note_on_c, 0, 66, 100
1, 107854, Note_off_c, 0, 66, 100
1, 107854, Note_on_c, 0, 63, 100
1, 107998, Note_off_c, 0, 63, 100
1, 107998, Note_on_c, 0, 64, 100
1, 108046, Note_off_c, 0, 64, 100
1, 108046, Note_on_c, 0, 66, 100
1, 108094, Note_off_c, 0, 66, 100
1, 108094, Note_on_c, 0, 69, 100
1, 108190, Note_off_c, 0, 69, 100
1, 108190, Note_on_c, 0, 66, 100
1, 108286, Note_off_c, 0, 66, 100
1, 108286, Note_on_c, 0, 67, 100
1, 108382, Note_off_c, 0, 67, 100
1, 108382, Note_on_c, 0, 69, 100
1, 108478, Note_off_c, 0, 69, 100
1, 108478, Note_on_c, 0, 70, 100
1, 108574, Note_off_c, 0, 70, 100
1, 108574, Note_on_c, 0, 72, 100
1, 108670, Note_off_c, 0, 72, 100
1, 108670, Note_on_c, 0, 74, 100
1, 108718, Note_off_c, 0, 74, 100
1, 108718, Note_on_c, 0, 72, 100
1, 108766, Note_off_c, 0, 72, 100
1, 108766, Note_on_c, 0, 74, 100
1, 108862, Note_off_c, 0, 74, 100
1, 109534, Note_on_c, 0, 73, 100
1, 109678, Note_off_c, 0, 73, 100
1, 109678, Note_on_c, 0, 72, 100
1, 109774, Note_off_c, 0, 72, 100
1, 109774, Note_on_c, 0, 70, 100
1, 109870, Note_off_c, 0, 70, 100
1, 109870, Note_on_c, 0, 69, 100
1, 109966, Note_off_c, 0, 69, 100
1, 109966, Note_on_c, 0, 67, 100
1, 110062, Note_off_c, 0, 67, 100
1, 110062, Note_on_c, 0, 65, 100
1, 110158, Note_off_c, 0, 65, 100
1, 110158, Note_on_c, 0, 61, 100
1, 110254, Note_off_c, 0, 61, 100
1, 110254, Note_on_c, 0, 60, 100
1, 110350, Note_off_c, 0, 60, 100
1, 110350, Note_on_c, 0, 58, 100
1, 110494, Note_off_c, 0, 58, 100
1, 110494, Note_on_c, 0, 61, 100
1, 110734, Note_off_c, 0, 61, 100
1, 110734, Note_on_c, 0, 65, 100
1, 110782, Note_off_c, 0, 65, 100
1, 110782, Note_on_c, 0, 67, 100
1, 110887, Note_off_c, 0, 67, 100
1, 110887, End_track
0, 0, End_of_file
