0, 0, Header, 1, 1, 192
1, 0, Start_track
1, 0, Title_t, "Melody"
1, 0, Tempo, 310880
1, 0, Key_signature, -4, "major"
1, 0, Time_signature, 4, 2, 24, 8
1, 192, Note_on_c, 0, 67, 100
1, 320, Note_off_c, 0, 67, 100
1, 320, Note_on_c, 0, 65, 100
1, 383, Note_off_c, 0, 65, 100
1, 383, Note_on_c, 0, 64, 100
1, 479, Note_off_c, 0, 64, 100
1, 479, Note_on_c, 0, 62, 100
1, 719, Note_off_c, 0, 62, 100
1, 719, Note_on_c, 0, 64, 100
1, 815, Note_off_c, 0, 64, 100
1, 815, Note_on_c, 0, 67, 100
1, 911, Note_off_c, 0, 67, 100
1, 911, Note_on_c, 0, 65, 100
1, 1007, Note_off_c, 0, 65, 100
1, 1007, Note_on_c, 0, 68, 100
1, 1103, Note_off_c, 0, 68, 100
1, 1103, Note_on_c, 0, 70, 100
1, 1199, Note_off_c, 0, 70, 100
1, 1199, Note_on_c, 0, 72, 100
1, 1295, Note_off_c, 0, 72, 100
1, 1295, Note_on_c, 0, 70, 100
1, 1343, Note_off_c, 0, 70, 100
1, 1343, Note_on_c, 0, 68, 100
1, 1583, Note_off_c, 0, 68, 100
1, 1583, Note_on_c, 0, 70, 100
1, 1679, Note_off_c, 0, 70, 100
1, 1679, Note_on_c, 0, 69, 100
1, 1727, Note_off_c, 0, 69, 100
1, 1727, Note_on_c, 0, 70, 100
1, 1823, Note_off_c, 0, 70, 100
1, 1823, Note_on_c, 0, 72, 100
1, 1983, Note_off_c, 0, 72, 100
1, 1983, Note_on_c, 0, 73, 100
1, 2111, Note_off_c, 0, 73, 100
1, 2111, Note_on_c, 0, 65, 100
1, 2175, Note_off_c, 0, 65, 100
1, 2175, Note_on_c, 0, 68, 100
1, 2351, Note_off_c, 0, 68, 100
1, 2351, Note_on_c, 0, 72, 100
1, 2447, Note_off_c, 0, 72, 100
1, 2447, Note_on_c, 0, 70, 100
1, 2543, Note_off_c, 0, 70, 100
1, 2543, Note_on_c, 0, 68, 100
1, 2639, Note_off_c, 0, 68, 100
1, 2639, Note_on_c, 0, 65, 100
1, 2687, Note_off_c, 0, 65, 100
1, 2687, Note_on_c, 0, 67, 100
1, 2783, Note_off_c, 0, 67, 100
1, 2783, Note_on_c, 0, 65, 100
1, 2927, Note_off_c, 0, 65, 100
1, 2927, Note_on_c, 0, 63, 100
1, 3023, Note_off_c, 0, 63, 100
1, 3023, Note_on_c, 0, 63, 100
1, 3119, Note_off_c, 0, 63, 100
1, 3119, Note_on_c, 0, 62, 100
1, 3215, Note_off_c, 0, 62, 100
1, 3215, Note_on_c, 0, 63, 100
1, 3263, Note_off_c, 0, 63, 100
1, 3263, Note_on_c, 0, 65, 100
1, 3359, Note_off_c, 0, 65, 100
1, 3359, Note_on_c, 0, 64, 100
1, 3455, Note_off_c, 0, 64, 100
1, 3455, Note_on_c, 0, 63, 100
1, 3551, Note_off_c, 0, 63, 100
1, 3551, Note_on_c, 0, 60, 100
1, 3647, Note_off_c, 0, 60, 100
1, 3647, Note_on_c, 0, 58, 100
1, 3743, Note_off_c, 0, 58, 100
1, 3743, Note_on_c, 0, 56, 100
1, 3839, Note_off_c, 0, 56, 100
1, 3839, Note_on_c, 0, 58, 100
1, 3967, Note_off_c, 0, 58, 100
1, 3967, Note_on_c, 0, 56, 100
1, 4031, Note_off_c, 0, 56, 100
1, 4031, Note_on_c, 0, 58, 100
1, 4159, Note_off_c, 0, 58, 100
1, 4159, Note_on_c, 0, 56, 100
1, 4447, Note_off_c, 0, 56, 100
1, 4799, Note_on_c, 0, 60, 100
1, 4895, Note_off_c, 0, 60, 100
1, 4895, Note_on_c, 0, 59, 100
1, 4991, Note_off_c, 0, 59, 100
1, 4991, Note_on_c, 0, 58, 100
1, 5087, Note_off_c, 0, 58, 100
1, 5087, Note_on_c, 0, 60, 100
1, 5183, Note_off_c, 0, 60, 100
1, 5183, Note_on_c, 0, 61, 100
1, 5279, Note_off_c, 0, 61, 100
1, 5279, Note_on_c, 0, 63, 100
1, 5375, Note_off_c, 0, 63, 100
1, 5375, Note_on_c, 0, 64, 100
1, 5503, Note_off_c, 0, 64, 100
1, 5503, Note_on_c, 0, 62, 100
1, 5567, Note_off_c, 0, 62, 100
1, 5567, Note_on_c, 0, 63, 100
1, 5663, Note_off_c, 0, 63, 100
1, 5663, Note_on_c, 0, 61, 100
1, 5759, Note_off_c, 0, 61, 100
1, 5759, Note_on_c, 0, 60, 100
1, 5855, Note_off_c, 0, 60, 100
1, 5855, Note_on_c, 0, 63, 100
1, 5951, Note_off_c, 0, 63, 100
1, 5951, Note_on_c, 0, 65, 100
1, 6079, Note_off_c, 0, 65, 100
1, 6079, Note_on_c, 0, 63, 100
1, 6143, Note_off_c, 0, 63, 100
1, 6143, Note_on_c, 0, 67, 100
1, 6335, Note_off_c, 0, 67, 100
1, 6335, Note_on_c, 0, 68, 100
1, 6431, Note_off_c, 0, 68, 100
1, 6431, Note_on_c, 0, 67, 100
1, 6527, Note_off_c, 0, 67, 100
1, 6527, Note_on_c, 0, 65, 100
1, 6655, Note_off_c, 0, 65, 100
1, 6655, Note_on_c, 0, 66, 100
1, 6719, Note_off_c, 0, 66, 100
1, 6719, Note_on_c, 0, 67, 100
1, 6863, Note_off_c, 0, 67, 100
1, 6863, Note_on_c, 0, 60, 100
1, 6911, Note_off_c, 0, 60, 100
1, 6911, Note_on_c, 0, 63, 100
1, 7295, Note_off_c, 0, 63, 100
1, 7295, Note_on_c, 0, 56, 100
1, 7487, Note_off_c, 0, 56, 100
1, 7487, Note_on_c, 0, 60, 100
1, 7583, Note_off_c, 0, 60, 100
1, 7583, Note_on_c, 0, 58, 100
1, 7871, Note_off_c, 0, 58, 100
1, 8543, Note_on_c, 0, 63, 100
1, 8735, Note_off_c, 0, 63, 100
1, 8735, Note_on_c, 0, 72, 100
1, 8831, Note_off_c, 0, 72, 100
1, 8831, Note_on_c, 0, 73, 100
1, 8927, Note_off_c, 0, 73, 100
1, 8927, Note_on_c, 0, 72, 100
1, 9023, Note_off_c, 0, 72, 100
1, 9023, Note_on_c, 0, 70, 100
1, 9119, Note_off_c, 0, 70, 100
1, 9119, Note_on_c, 0, 71, 100
1, 9215, Note_off_c, 0, 71, 100
1, 9215, Note_on_c, 0, 72, 100
1, 9311, Note_off_c, 0, 72, 100
1, 9311, Note_on_c, 0, 70, 100
1, 9407, Note_off_c, 0, 70, 100
1, 9407, Note_on_c, 0, 68, 100
1, 9503, Note_off_c, 0, 68, 100
1, 9503, Note_on_c, 0, 66, 100
1, 9599, Note_off_c, 0, 66, 100
1, 9599, Note_on_c, 0, 67, 100
1, 9695, Note_off_c, 0, 67, 100
1, 9695, Note_on_c, 0, 65, 100
1, 9791, Note_off_c, 0, 65, 100
1, 9791, Note_on_c, 0, 64, 100
1, 9887, Note_off_c, 0, 64, 100
1, 9887, Note_on_c, 0, 64, 100
1, 9983, Note_off_c, 0, 64, 100
1, 9983, Note_on_c, 0, 67, 100
1, 10079, Note_off_c, 0, 67, 100
1, 10319, Note_on_c, 0, 65, 100
1, 10367, Note_off_c, 0, 65, 100
1, 10367, Note_on_c, 0, 67, 100
1, 10703, Note_off_c, 0, 67, 100
1, 10703, Note_on_c, 0, 65, 100
1, 10751, Note_off_c, 0, 65, 100
1, 10751, Note_on_c, 0, 68, 100
1, 10879, Note_off_c, 0, 68, 100
1, 10879, Note_on_c, 0, 65, 100
1, 10943, Note_off_c, 0, 65, 100
1, 10943, Note_on_c, 0, 67, 100
1, 11087, Note_off_c, 0, 67, 100
1, 11087, Note_on_c, 0, 65, 100
1, 11135, Note_off_c, 0, 65, 100
1, 11135, Note_on_c, 0, 68, 100
1, 11231, Note_off_c, 0, 68, 100
1, 11231, Note_on_c, 0, 67, 100
1, 11327, Note_off_c, 0, 67, 100
1, 11327, Note_on_c, 0, 65, 100
1, 11423, Note_off_c, 0, 65, 100
1, 11423, Note_on_c, 0, 64, 100
1, 11519, Note_off_c, 0, 64, 100
1, 11519, Note_on_c, 0, 70, 100
1, 11903, Note_off_c, 0, 70, 100
1, 11903, Note_on_c, 0, 72, 100
1, 11999, Note_off_c, 0, 72, 100
1, 11999, Note_on_c, 0, 70, 100
1, 12095, Note_off_c, 0, 70, 100
1, 12095, Note_on_c, 0, 67, 100
1, 12191, Note_off_c, 0, 67, 100
1, 12191, Note_on_c, 0, 65, 100
1, 12287, Note_off_c, 0, 65, 100
1, 12287, Note_on_c, 0, 63, 100
1, 12479, Note_off_c, 0, 63, 100
1, 12479, Note_on_c, 0, 65, 100
1, 12575, Note_off_c, 0, 65, 100
1, 12575, Note_on_c, 0, 63, 100
1, 12671, Note_off_c, 0, 63, 100
1, 12671, Note_on_c, 0, 66, 100
1, 12767, Note_off_c, 0, 66, 100
1, 12767, Note_on_c, 0, 65, 100
1, 12863, Note_off_c, 0, 65, 100
1, 12863, Note_on_c, 0, 63, 100
1, 13055, Note_off_c, 0, 63, 100
1, 13055, Note_on_c, 0, 64, 100
1, 13247, Note_off_c, 0, 64, 100
1, 13247, Note_on_c, 0, 65, 100
1, 13631, Note_off_c, 0, 65, 100
1, 14847, Note_on_c, 0, 60, 100
1, 14911, Note_off_c, 0, 60, 100
1, 14911, Note_on_c, 0, 65, 100
1, 14975, Note_off_c, 0, 65, 100
1, 14975, Note_on_c, 0, 62, 100
1, 15071, Note_off_c, 0, 62, 100
1, 15071, Note_on_c, 0, 63, 100
1, 15167, Note_off_c, 0, 63, 100
1, 15167, Note_on_c, 0, 64, 100
1, 15263, Note_off_c, 0, 64, 100
1, 15263, Note_on_c, 0, 62, 100
1, 15359, Note_off_c, 0, 62, 100
1, 15359, Note_on_c, 0, 60, 100
1, 15455, Note_off_c, 0, 60, 100
1, 15695, Note_on_c, 0, 59, 100
1, 15743, Note_off_c, 0, 59, 100
1, 15743, Note_on_c, 0, 62, 100
1, 15839, Note_off_c, 0, 62, 100
1, 15839, Note_on_c, 0, 60, 100
1, 16079, Note_off_c, 0, 60, 100
1, 16079, Note_on_c, 0, 60, 100
1, 16127, Note_off_c, 0, 60, 100
1, 16127, Note_on_c, 0, 63, 100
1, 16319, Note_off_c, 0, 63, 100
1, 16319, Note_on_c, 0, 65, 100
1, 16415, Note_off_c, 0, 65, 100
1, 16415, Note_on_c, 0, 63, 100
1, 16511, Note_off_c, 0, 63, 100
1, 16511, Note_on_c, 0, 62, 100
1, 16607, Note_off_c, 0, 62, 100
1, 16607, Note_on_c, 0, 63, 100
1, 16703, Note_off_c, 0, 63, 100
1, 16703, Note_on_c, 0, 62, 100
1, 16831, Note_off_c, 0, 62, 100
1, 16831, Note_on_c, 0, 61, 100
1, 16895, Note_off_c, 0, 61, 100
1, 16895, Note_on_c, 0, 60, 100
1, 16991, Note_off_c, 0, 60, 100
1, 16991, Note_on_c, 0, 62, 100
1, 17087, Note_off_c, 0, 62, 100
1, 17087, Note_on_c, 0, 63, 100
1, 17215, Note_off_c, 0, 63, 100
1, 17215, Note_on_c, 0, 64, 100
1, 17279, Note_off_c, 0, 64, 100
1, 17279, Note_on_c, 0, 65, 100
1, 17375, Note_off_c, 0, 65, 100
1, 17375, Note_on_c, 0, 67, 100
1, 17471, Note_off_c, 0, 67, 100
1, 17471, Note_on_c, 0, 68, 100
1, 17663, Note_off_c, 0, 68, 100
1, 17663, Note_on_c, 0, 70, 100
1, 17951, Note_off_c, 0, 70, 100
1, 18143, Note_on_c, 0, 75, 100
1, 18239, Note_off_c, 0, 75, 100
1, 18239, Note_on_c, 0, 72, 100
1, 18335, Note_off_c, 0, 72, 100
1, 18335, Note_on_c, 0, 70, 100
1, 18623, Note_off_c, 0, 70, 100
1, 18623, Note_on_c, 0, 67, 100
1, 18719, Note_off_c, 0, 67, 100
1, 18719, Note_on_c, 0, 65, 100
1, 18815, Note_off_c, 0, 65, 100
1, 18815, Note_on_c, 0, 63, 100
1, 18911, Note_off_c, 0, 63, 100
1, 18911, Note_on_c, 0, 65, 100
1, 19007, Note_off_c, 0, 65, 100
1, 19007, Note_on_c, 0, 67, 100
1, 19055, Note_off_c, 0, 67, 100
1, 19055, Note_on_c, 0, 68, 100
1, 19103, Note_off_c, 0, 68, 100
1, 19103, Note_on_c, 0, 67, 100
1, 19199, Note_off_c, 0, 67, 100
1, 19199, Note_on_c, 0, 68, 100
1, 19343, Note_off_c, 0, 68, 100
1, 19343, Note_on_c, 0, 69, 100
1, 19455, Note_off_c, 0, 69, 100
1, 19455, Note_on_c, 0, 70, 100
1, 19519, Note_off_c, 0, 70, 100
1, 19519, Note_on_c, 0, 67, 100
1, 19583, Note_off_c, 0, 67, 100
1, 19583, Note_on_c, 0, 63, 100
1, 19679, Note_off_c, 0, 63, 100
1, 19679, Note_on_c, 0, 60, 100
1, 19775, Note_off_c, 0, 60, 100
1, 19775, Note_on_c, 0, 63, 100
1, 19919, Note_off_c, 0, 63, 100
1, 19919, Note_on_c, 0, 61, 100
1, 19967, Note_off_c, 0, 61, 100
1, 19967, Note_on_c, 0, 62, 100
1, 20063, Note_off_c, 0, 62, 100
1, 20063, Note_on_c, 0, 61, 100
1, 20159, Note_off_c, 0, 61, 100
1, 20159, Note_on_c, 0, 60, 100
1, 20255, Note_off_c, 0, 60, 100
1, 20255, Note_on_c, 0, 64, 100
1, 20351, Note_off_c, 0, 64, 100
1, 20351, Note_on_c, 0, 67, 100
1, 20447, Note_off_c, 0, 67, 100
1, 20447, Note_on_c, 0, 71, 100
1, 20543, Note_off_c, 0, 71, 100
1, 20543, Note_on_c, 0, 74, 100
1, 20735, Note_off_c, 0, 74, 100
1, 20735, Note_on_c, 0, 76, 100
1, 20879, Note_off_c, 0, 76, 100
1, 20879, Note_on_c, 0, 74, 100
1, 20927, Note_off_c, 0, 74, 100
1, 20927, Note_on_c, 0, 71, 100
1, 21071, Note_off_c, 0, 71, 100
1, 21071, Note_on_c, 0, 67, 100
1, 21119, Note_off_c, 0, 67, 100
1, 21119, Note_on_c, 0, 69, 100
1, 21215, Note_off_c, 0, 69, 100
1, 21215, Note_on_c, 0, 71, 100
1, 21503, Note_off_c, 0, 71, 100
1, 23519, Note_on_c, 0, 64, 100
1, 23615, Note_off_c, 0, 64, 100
1, 23615, Note_on_c, 0, 67, 100
1, 23711, Note_off_c, 0, 67, 100
1, 23711, Note_on_c, 0, 64, 100
1, 23807, Note_off_c, 0, 64, 100
1, 23807, Note_on_c, 0, 62, 100
1, 23903, Note_off_c, 0, 62, 100
1, 23903, Note_on_c, 0, 67, 100
1, 23999, Note_off_c, 0, 67, 100
1, 23999, Note_on_c, 0, 66, 100
1, 24095, Note_off_c, 0, 66, 100
1, 24095, Note_on_c, 0, 67, 100
1, 24191, Note_off_c, 0, 67, 100
1, 24191, Note_on_c, 0, 69, 100
1, 24287, Note_off_c, 0, 69, 100
1, 24287, Note_on_c, 0, 67, 100
1, 24383, Note_off_c, 0, 67, 100
1, 24383, Note_on_c, 0, 64, 100
1, 24575, Note_off_c, 0, 64, 100
1, 24575, Note_on_c, 0, 62, 100
1, 24767, Note_off_c, 0, 62, 100
1, 24767, Note_on_c, 0, 62, 100
1, 24959, Note_off_c, 0, 62, 100
1, 24959, Note_on_c, 0, 64, 100
1, 25055, Note_off_c, 0, 64, 100
1, 25055, Note_on_c, 0, 67, 100
1, 25151, Note_off_c, 0, 67, 100
1, 25151, Note_on_c, 0, 69, 100
1, 25343, Note_off_c, 0, 69, 100
1, 25343, Note_on_c, 0, 71, 100
1, 25535, Note_off_c, 0, 71, 100
1, 25535, Note_on_c, 0, 71, 100
1, 25727, Note_off_c, 0, 71, 100
1, 25727, Note_on_c, 0, 72, 100
1, 25823, Note_off_c, 0, 72, 100
1, 25823, Note_on_c, 0, 71, 100
1, 25919, Note_off_c, 0, 71, 100
1, 25919, Note_on_c, 0, 70, 100
1, 26015, Note_off_c, 0, 70, 100
1, 26015, Note_on_c, 0, 68, 100
1, 26111, Note_off_c, 0, 68, 100
1, 26111, Note_on_c, 0, 69, 100
1, 26303, Note_off_c, 0, 69, 100
1, 26303, Note_on_c, 0, 69, 100
1, 26543, Note_off_c, 0, 69, 100
1, 26543, Note_on_c, 0, 67, 100
1, 26639, Note_off_c, 0, 67, 100
1, 26639, Note_on_c, 0, 63, 100
1, 26687, Note_off_c, 0, 63, 100
1, 26687, Note_on_c, 0, 60, 100
1, 26815, Note_off_c, 0, 60, 100
1, 26815, Note_on_c, 0, 55, 100
1, 26879, Note_off_c, 0, 55, 100
1, 26879, Note_on_c, 0, 59, 100
1, 27167, Note_off_c, 0, 59, 100
1, 27983, Note_on_c, 0, 60, 100
1, 28031, Note_off_c, 0, 60, 100
1, 28031, Note_on_c, 0, 61, 100
1, 28127, Note_off_c, 0, 61, 100
1, 28127, Note_on_c, 0, 63, 100
1, 28223, Note_off_c, 0, 63, 100
1, 28223, Note_on_c, 0, 64, 100
1, 28319, Note_off_c, 0, 64, 100
1, 28319, Note_on_c, 0, 67, 100
1, 28415, Note_off_c, 0, 67, 100
1, 28415, Note_on_c, 0, 70, 100
1, 28511, Note_off_c, 0, 70, 100
1, 28511, Note_on_c, 0, 68, 100
1, 28607, Note_off_c, 0, 68, 100
1, 28607, Note_on_c, 0, 65, 100
1, 28735, Note_off_c, 0, 65, 100
1, 28735, Note_on_c, 0, 60, 100
1, 28799, Note_off_c, 0, 60, 100
1, 28799, Note_on_c, 0, 67, 100
1, 28895, Note_off_c, 0, 67, 100
1, 28895, Note_on_c, 0, 68, 100
1, 28943, Note_off_c, 0, 68, 100
1, 28943, Note_on_c, 0, 67, 100
1, 28991, Note_off_c, 0, 67, 100
1, 28991, Note_on_c, 0, 65, 100
1, 29087, Note_off_c, 0, 65, 100
1, 29087, Note_on_c, 0, 68, 100
1, 29183, Note_off_c, 0, 68, 100
1, 29183, Note_on_c, 0, 65, 100
1, 29279, Note_off_c, 0, 65, 100
1, 29279, Note_on_c, 0, 61, 100
1, 29375, Note_off_c, 0, 61, 100
1, 29375, Note_on_c, 0, 56, 100
1, 29471, Note_off_c, 0, 56, 100
1, 29471, Note_on_c, 0, 53, 100
1, 29567, Note_off_c, 0, 53, 100
1, 29567, Note_on_c, 0, 60, 100
1, 29759, Note_off_c, 0, 60, 100
1, 29759, Note_on_c, 0, 58, 100
1, 29903, Note_off_c, 0, 58, 100
1, 29903, Note_on_c, 0, 63, 100
1, 29999, Note_off_c, 0, 63, 100
1, 30239, Note_on_c, 0, 63, 100
1, 30335, Note_off_c, 0, 63, 100
1, 30335, Note_on_c, 0, 64, 100
1, 30527, Note_off_c, 0, 64, 100
1, 30527, Note_on_c, 0, 64, 100
1, 30719, Note_off_c, 0, 64, 100
1, 30719, Note_on_c, 0, 65, 100
1, 30959, Note_off_c, 0, 65, 100
1, 30959, Note_on_c, 0, 65, 100
1, 31055, Note_off_c, 0, 65, 100
1, 31055, Note_on_c, 0, 65, 100
1, 31103, Note_off_c, 0, 65, 100
1, 31103, Note_on_c, 0, 66, 100
1, 31295, Note_off_c, 0, 66, 100
1, 31295, Note_on_c, 0, 68, 100
1, 31679, Note_off_c, 0, 68, 100
1, 31679, Note_on_c, 0, 65, 100
1, 31807, Note_off_c, 0, 65, 100
1, 31807, Note_on_c, 0, 63, 100
1, 31919, Note_off_c, 0, 63, 100
1, 31919, Note_on_c, 0, 60, 100
1, 32015, Note_off_c, 0, 60, 100
1, 32015, Note_on_c, 0, 61, 100
1, 32063, Note_off_c, 0, 61, 100
1, 32063, Note_on_c, 0, 65, 100
1, 32159, Note_off_c, 0, 65, 100
1, 32159, Note_on_c, 0, 68, 100
1, 32255, Note_off_c, 0, 68, 100
1, 32255, Note_on_c, 0, 70, 100
1, 32639, Note_off_c, 0, 70, 100
1, 32639, Note_on_c, 0, 68, 100
1, 32735, Note_off_c, 0, 68, 100
1, 32735, Note_on_c, 0, 64, 100
1, 32831, Note_off_c, 0, 64, 100
1, 32831, Note_on_c, 0, 61, 100
1, 32927, Note_off_c, 0, 61, 100
1, 32927, Note_on_c, 0, 67, 100
1, 33023, Note_off_c, 0, 67, 100
1, 33023, Note_on_c, 0, 65, 100
1, 33119, Note_off_c, 0, 65, 100
1, 33119, Note_on_c, 0, 66, 100
1, 33215, Note_off_c, 0, 66, 100
1, 33215, Note_on_c, 0, 67, 100
1, 33311, Note_off_c, 0, 67, 100
1, 33311, Note_on_c, 0, 65, 100
1, 33407, Note_off_c, 0, 65, 100
1, 33407, Note_on_c, 0, 63, 100
1, 33503, Note_off_c, 0, 63, 100
1, 33503, Note_on_c, 0, 60, 100
1, 33599, Note_off_c, 0, 60, 100
1, 33599, Note_on_c, 0, 58, 100
1, 33743, Note_off_c, 0, 58, 100
1, 33743, Note_on_c, 0, 56, 100
1, 33791, Note_off_c, 0, 56, 100
1, 33791, Note_on_c, 0, 58, 100
1, 33887, Note_off_c, 0, 58, 100
1, 33887, Note_on_c, 0, 56, 100
1, 33983, Note_off_c, 0, 56, 100
1, 33983, Note_on_c, 0, 58, 100
1, 34079, Note_off_c, 0, 58, 100
1, 34079, Note_on_c, 0, 56, 100
1, 34271, Note_off_c, 0, 56, 100
1, 34271, Note_on_c, 0, 56, 100
1, 34367, Note_off_c, 0, 56, 100
1, 34367, Note_on_c, 0, 60, 100
1, 34559, Note_off_c, 0, 60, 100
1, 34559, Note_on_c, 0, 63, 100
1, 34943, Note_off_c, 0, 63, 100
1, 35999, Note_on_c, 0, 72, 100
1, 36095, Note_off_c, 0, 72, 100
1, 36095, Note_on_c, 0, 75, 100
1, 36191, Note_off_c, 0, 75, 100
1, 36191, Note_on_c, 0, 76, 100
1, 36239, Note_off_c, 0, 76, 100
1, 36239, Note_on_c, 0, 75, 100
1, 36287, Note_off_c, 0, 75, 100
1, 36287, Note_on_c, 0, 72, 100
1, 36383, Note_off_c, 0, 72, 100
1, 36383, Note_on_c, 0, 70, 100
1, 36527, Note_off_c, 0, 70, 100
1, 36527, Note_on_c, 0, 68, 100
1, 36623, Note_off_c, 0, 68, 100
1, 36623, Note_on_c, 0, 70, 100
1, 36671, Note_off_c, 0, 70, 100
1, 36671, Note_on_c, 0, 72, 100
1, 36767, Note_off_c, 0, 72, 100
1, 36767, Note_on_c, 0, 73, 100
1, 36911, Note_off_c, 0, 73, 100
1, 36911, Note_on_c, 0, 70, 100
1, 37007, Note_off_c, 0, 70, 100
1, 37007, Note_on_c, 0, 71, 100
1, 37055, Note_off_c, 0, 71, 100
1, 37055, Note_on_c, 0, 72, 100
1, 37151, Note_off_c, 0, 72, 100
1, 37151, Note_on_c, 0, 70, 100
1, 37247, Note_off_c, 0, 70, 100
1, 37247, Note_on_c, 0, 68, 100
1, 37343, Note_off_c, 0, 68, 100
1, 37343, Note_on_c, 0, 64, 100
1, 37439, Note_off_c, 0, 64, 100
1, 37439, Note_on_c, 0, 60, 100
1, 37631, Note_off_c, 0, 60, 100
1, 37631, Note_on_c, 0, 65, 100
1, 37727, Note_off_c, 0, 65, 100
1, 37727, Note_on_c, 0, 60, 100
1, 37823, Note_off_c, 0, 60, 100
1, 37823, Note_on_c, 0, 65, 100
1, 37951, Note_off_c, 0, 65, 100
1, 37951, Note_on_c, 0, 68, 100
1, 38079, Note_off_c, 0, 68, 100
1, 38079, Note_on_c, 0, 65, 100
1, 38143, Note_off_c, 0, 65, 100
1, 38143, Note_on_c, 0, 66, 100
1, 38207, Note_off_c, 0, 66, 100
1, 38207, Note_on_c, 0, 67, 100
1, 38303, Note_off_c, 0, 67, 100
1, 38303, Note_on_c, 0, 66, 100
1, 38399, Note_off_c, 0, 66, 100
1, 38399, Note_on_c, 0, 65, 100
1, 38495, Note_off_c, 0, 65, 100
1, 38495, Note_on_c, 0, 67, 100
1, 38591, Note_off_c, 0, 67, 100
1, 38591, Note_on_c, 0, 68, 100
1, 38783, Note_off_c, 0, 68, 100
1, 38783, Note_on_c, 0, 70, 100
1, 38879, Note_off_c, 0, 70, 100
1, 38879, Note_on_c, 0, 72, 100
1, 38975, Note_off_c, 0, 72, 100
1, 38975, Note_on_c, 0, 73, 100
1, 39167, Note_off_c, 0, 73, 100
1, 39167, Note_on_c, 0, 75, 100
1, 39359, Note_off_c, 0, 75, 100
1, 39359, Note_on_c, 0, 80, 100
1, 39551, Note_off_c, 0, 80, 100
1, 39551, Note_on_c, 0, 75, 100
1, 39647, Note_off_c, 0, 75, 100
1, 39647, Note_on_c, 0, 73, 100
1, 39839, Note_off_c, 0, 73, 100
1, 39839, Note_on_c, 0, 70, 100
1, 39935, Note_off_c, 0, 70, 100
1, 39935, Note_on_c, 0, 68, 100
1, 40031, Note_off_c, 0, 68, 100
1, 40031, Note_on_c, 0, 77, 100
1, 40319, Note_off_c, 0, 77, 100
1, 40319, Note_on_c, 0, 75, 100
1, 40415, Note_off_c, 0, 75, 100
1, 40415, Note_on_c, 0, 73, 100
1, 40511, Note_off_c, 0, 73, 100
1, 40511, Note_on_c, 0, 72, 100
1, 40607, Note_off_c, 0, 72, 100
1, 40607, Note_on_c, 0, 70, 100
1, 40703, Note_off_c, 0, 70, 100
1, 40703, Note_on_c, 0, 69, 100
1, 40799, Note_off_c, 0, 69, 100
1, 40799, Note_on_c, 0, 67, 100
1, 40895, Note_off_c, 0, 67, 100
1, 40895, Note_on_c, 0, 68, 100
1, 40991, Note_off_c, 0, 68, 100
1, 40991, Note_on_c, 0, 66, 100
1, 41087, Note_off_c, 0, 66, 100
1, 41087, Note_on_c, 0, 63, 100
1, 41183, Note_off_c, 0, 63, 100
1, 41183, Note_on_c, 0, 64, 100
1, 41279, Note_off_c, 0, 64, 100
1, 41279, Note_on_c, 0, 65, 100
1, 41423, Note_off_c, 0, 65, 100
1, 41423, Note_on_c, 0, 63, 100
1, 41471, Note_off_c, 0, 63, 100
1, 41471, Note_on_c, 0, 60, 100
1, 41599, Note_off_c, 0, 60, 100
1, 41599, Note_on_c, 0, 61, 100
1, 41663, Note_off_c, 0, 61, 100
1, 41663, Note_on_c, 0, 62, 100
1, 41759, Note_off_c, 0, 62, 100
1, 41759, Note_on_c, 0, 60, 100
1, 41999, Note_off_c, 0, 60, 100
1, 41999, Note_on_c, 0, 62, 100
1, 42047, Note_off_c, 0, 62, 100
1, 42047, Note_on_c, 0, 67, 100
1, 42191, Note_off_c, 0, 67, 100
1, 42191, Note_on_c, 0, 65, 100
1, 42383, Note_off_c, 0, 65, 100
1, 42383, Note_on_c, 0, 67, 100
1, 42431, Note_off_c, 0, 67, 100
1, 42431, Note_on_c, 0, 69, 100
1, 42623, Note_off_c, 0, 69, 100
1, 42623, Note_on_c, 0, 72, 100
1, 42911, Note_off_c, 0, 72, 100
1, 43199, Note_on_c, 0, 67, 100
1, 43391, Note_off_c, 0, 67, 100
1, 43391, Note_on_c, 0, 64, 100
1, 43487, Note_off_c, 0, 64, 100
1, 43487, Note_on_c, 0, 60, 100
1, 43631, Note_off_c, 0, 60, 100
1, 43631, Note_on_c, 0, 68, 100
1, 43727, Note_off_c, 0, 68, 100
1, 43727, Note_on_c, 0, 65, 100
1, 43823, Note_off_c, 0, 65, 100
1, 43823, Note_on_c, 0, 61, 100
1, 43919, Note_off_c, 0, 61, 100
1, 43919, Note_on_c, 0, 59, 100
1, 43967, Note_off_c, 0, 59, 100
1, 43967, Note_on_c, 0, 62, 100
1, 44063, Note_off_c, 0, 62, 100
1, 44063, Note_on_c, 0, 60, 100
1, 44159, Note_off_c, 0, 60, 100
1, 44351, Note_on_c, 0, 63, 100
1, 44447, Note_off_c, 0, 63, 100
1, 44447, Note_on_c, 0, 67, 100
1, 44543, Note_off_c, 0, 67, 100
1, 44543, Note_on_c, 0, 70, 100
1, 44639, Note_off_c, 0, 70, 100
1, 44639, Note_on_c, 0, 72, 100
1, 44687, Note_off_c, 0, 72, 100
1, 44687, Note_on_c, 0, 70, 100
1, 44735, Note_off_c, 0, 70, 100
1, 44735, Note_on_c, 0, 69, 100
1, 44879, Note_off_c, 0, 69, 100
1, 44879, Note_on_c, 0, 67, 100
1, 44927, Note_off_c, 0, 67, 100
1, 44927, Note_on_c, 0, 68, 100
1, 45023, Note_off_c, 0, 68, 100
1, 45023, Note_on_c, 0, 72, 100
1, 45119, Note_off_c, 0, 72, 100
1, 45119, Note_on_c, 0, 75, 100
1, 45311, Note_off_c, 0, 75, 100
1, 45311, Note_on_c, 0, 77, 100
1, 45407, Note_off_c, 0, 77, 100
1, 45407, Note_on_c, 0, 78, 100
1, 45503, Note_off_c, 0, 78, 100
1, 45503, Note_on_c, 0, 79, 100
1, 45631, Note_off_c, 0, 79, 100
1, 45631, Note_on_c, 0, 77, 100
1, 45695, Note_off_c, 0, 77, 100
1, 45695, Note_on_c, 0, 74, 100
1, 45887, Note_off_c, 0, 74, 100
1, 45887, Note_on_c, 0, 72, 100
1, 45983, Note_off_c, 0, 72, 100
1, 45983, Note_on_c, 0, 75, 100
1, 46079, Note_off_c, 0, 75, 100
1, 46079, Note_on_c, 0, 72, 100
1, 46223, Note_off_c, 0, 72, 100
1, 46223, Note_on_c, 0, 72, 100
1, 46511, Note_off_c, 0, 72, 100
1, 47519, Note_on_c, 0, 74, 100
1, 47567, Note_off_c, 0, 74, 100
1, 47567, Note_on_c, 0, 72, 100
1, 47615, Note_off_c, 0, 72, 100
1, 47615, Note_on_c, 0, 66, 100
1, 47759, Note_off_c, 0, 66, 100
1, 47759, Note_on_c, 0, 69, 100
1, 47807, Note_off_c, 0, 69, 100
1, 47807, Note_on_c, 0, 72, 100
1, 47903, Note_off_c, 0, 72, 100
1, 47903, Note_on_c, 0, 75, 100
1, 47999, Note_off_c, 0, 75, 100
1, 47999, Note_on_c, 0, 72, 100
1, 48095, Note_off_c, 0, 72, 100
1, 48095, Note_on_c, 0, 73, 100
1, 48191, Note_off_c, 0, 73, 100
1, 48191, Note_on_c, 0, 74, 100
1, 48383, Note_off_c, 0, 74, 100
1, 48383, Note_on_c, 0, 72, 100
1, 48527, Note_off_c, 0, 72, 100
1, 48527, Note_on_c, 0, 69, 100
1, 48575, Note_off_c, 0, 69, 100
1, 48575, Note_on_c, 0, 70, 100
1, 48671, Note_off_c, 0, 70, 100
1, 48671, Note_on_c, 0, 71, 100
1, 48767, Note_off_c, 0, 71, 100
1, 48767, Note_on_c, 0, 72, 100
1, 48863, Note_off_c, 0, 72, 100
1, 48863, Note_on_c, 0, 71, 100
1, 48959, Note_off_c, 0, 71, 100
1, 48959, Note_on_c, 0, 67, 100
1, 49087, Note_off_c, 0, 67, 100
1, 49087, Note_on_c, 0, 62, 100
1, 49151, Note_off_c, 0, 62, 100
1, 49151, Note_on_c, 0, 66, 100
1, 49295, Note_off_c, 0, 66, 100
1, 49295, Note_on_c, 0, 62, 100
1, 49343, Note_off_c, 0, 62, 100
1, 49343, Note_on_c, 0, 65, 100
1, 49439, Note_off_c, 0, 65, 100
1, 49439, Note_on_c, 0, 62, 100
1, 49535, Note_off_c, 0, 62, 100
1, 49535, Note_on_c, 0, 66, 100
1, 49663, Note_off_c, 0, 66, 100
1, 49663, Note_on_c, 0, 62, 100
1, 49727, Note_off_c, 0, 62, 100
1, 49727, Note_on_c, 0, 65, 100
1, 49871, Note_off_c, 0, 65, 100
1, 49871, Note_on_c, 0, 60, 100
1, 49919, Note_off_c, 0, 60, 100
1, 49919, Note_on_c, 0, 66, 100
1, 50063, Note_off_c, 0, 66, 100
1, 50063, Note_on_c, 0, 62, 100
1, 50111, Note_off_c, 0, 62, 100
1, 50111, Note_on_c, 0, 67, 100
1, 50495, Note_off_c, 0, 67, 100
1, 50783, Note_on_c, 0, 67, 100
1, 50879, Note_off_c, 0, 67, 100
1, 50879, Note_on_c, 0, 68, 100
1, 50975, Note_off_c, 0, 68, 100
1, 51359, Note_on_c, 0, 64, 100
1, 51455, Note_off_c, 0, 64, 100
1, 51455, Note_on_c, 0, 69, 100
1, 51583, Note_off_c, 0, 69, 100
1, 51583, Note_on_c, 0, 64, 100
1, 51647, Note_off_c, 0, 64, 100
1, 51647, Note_on_c, 0, 70, 100
1, 51743, Note_off_c, 0, 70, 100
1, 51743, Note_on_c, 0, 71, 100
1, 51839, Note_off_c, 0, 71, 100
1, 51839, Note_on_c, 0, 72, 100
1, 51935, Note_off_c, 0, 72, 100
1, 51935, Note_on_c, 0, 71, 100
1, 52031, Note_off_c, 0, 71, 100
1, 52031, Note_on_c, 0, 69, 100
1, 52127, Note_off_c, 0, 69, 100
1, 52127, Note_on_c, 0, 68, 100
1, 52223, Note_off_c, 0, 68, 100
1, 52223, Note_on_c, 0, 67, 100
1, 52319, Note_off_c, 0, 67, 100
1, 52319, Note_on_c, 0, 68, 100
1, 52367, Note_off_c, 0, 68, 100
1, 52367, Note_on_c, 0, 67, 100
1, 52415, Note_off_c, 0, 67, 100
1, 52415, Note_on_c, 0, 66, 100
1, 52511, Note_off_c, 0, 66, 100
1, 52511, Note_on_c, 0, 64, 100
1, 52607, Note_off_c, 0, 64, 100
1, 52607, Note_on_c, 0, 62, 100
1, 52703, Note_off_c, 0, 62, 100
1, 52703, Note_on_c, 0, 59, 100
1, 52799, Note_off_c, 0, 59, 100
1, 52799, Note_on_c, 0, 57, 100
1, 52927, Note_off_c, 0, 57, 100
1, 52927, Note_on_c, 0, 55, 100
1, 53039, Note_off_c, 0, 55, 100
1, 53039, Note_on_c, 0, 59, 100
1, 53135, Note_off_c, 0, 59, 100
1, 53135, Note_on_c, 0, 58, 100
1, 53183, Note_off_c, 0, 58, 100
1, 53183, Note_on_c, 0, 57, 100
1, 53375, Note_off_c, 0, 57, 100
1, 53375, Note_on_c, 0, 67, 100
1, 53471, Note_off_c, 0, 67, 100
1, 53471, Note_on_c, 0, 66, 100
1, 53615, Note_off_c, 0, 66, 100
1, 53615, Note_on_c, 0, 65, 100
1, 53711, Note_off_c, 0, 65, 100
1, 53711, Note_on_c, 0, 64, 100
1, 53759, Note_off_c, 0, 64, 100
1, 53759, Note_on_c, 0, 63, 100
1, 53855, Note_off_c, 0, 63, 100
1, 53855, Note_on_c, 0, 65, 100
1, 53951, Note_off_c, 0, 65, 100
1, 53951, Note_on_c, 0, 66, 100
1, 54047, Note_off_c, 0, 66, 100
1, 54047, Note_on_c, 0, 69, 100
1, 54143, Note_off_c, 0, 69, 100
1, 54143, Note_on_c, 0, 72, 100
1, 54239, Note_off_c, 0, 72, 100
1, 54239, Note_on_c, 0, 69, 100
1, 54335, Note_off_c, 0, 69, 100
1, 54335, Note_on_c, 0, 71, 100
1, 54431, Note_off_c, 0, 71, 100
1, 54431, Note_on_c, 0, 69, 100
1, 54527, Note_off_c, 0, 69, 100
1, 54527, Note_on_c, 0, 68, 100
1, 54719, Note_off_c, 0, 68, 100
1, 54719, Note_on_c, 0, 69, 100
1, 54815, Note_off_c, 0, 69, 100
1, 54815, Note_on_c, 0, 70, 100
1, 54911, Note_off_c, 0, 70, 100
1, 54911, Note_on_c, 0, 71, 100
1, 55055, Note_off_c, 0, 71, 100
1, 55055, Note_on_c, 0, 64, 100
1, 55103, Note_off_c, 0, 64, 100
1, 55103, Note_on_c, 0, 68, 100
1, 55199, Note_off_c, 0, 68, 100
1, 55199, Note_on_c, 0, 69, 100
1, 55295, Note_off_c, 0, 69, 100
1, 55295, Note_on_c, 0, 70, 100
1, 55487, Note_off_c, 0, 70, 100
1, 55487, Note_on_c, 0, 71, 100
1, 55583, Note_off_c, 0, 71, 100
1, 55583, Note_on_c, 0, 72, 100
1, 55679, Note_off_c, 0, 72, 100
1, 55679, Note_on_c, 0, 73, 100
1, 55775, Note_off_c, 0, 73, 100
1, 55775, Note_on_c, 0, 70, 100
1, 55871, Note_off_c, 0, 70, 100
1, 55871, Note_on_c, 0, 67, 100
1, 55967, Note_off_c, 0, 67, 100
1, 55967, Note_on_c, 0, 64, 100
1, 56063, Note_off_c, 0, 64, 100
1, 56063, Note_on_c, 0, 65, 100
1, 56255, Note_off_c, 0, 65, 100
1, 56255, Note_on_c, 0, 68, 100
1, 56399, Note_off_c, 0, 68, 100
1, 56399, Note_on_c, 0, 65, 100
1, 56447, Note_off_c, 0, 65, 100
1, 56447, Note_on_c, 0, 67, 100
1, 56543, Note_off_c, 0, 67, 100
1, 56543, Note_on_c, 0, 65, 100
1, 56687, Note_off_c, 0, 65, 100
1, 56687, Note_on_c, 0, 60, 100
1, 56783, Note_off_c, 0, 60, 100
1, 56783, Note_on_c, 0, 56, 100
1, 56831, Note_off_c, 0, 56, 100
1, 56831, Note_on_c, 0, 58, 100
1, 57023, Note_off_c, 0, 58, 100
1, 57023, Note_on_c, 0, 53, 100
1, 57119, Note_off_c, 0, 53, 100
1, 57119, Note_on_c, 0, 56, 100
1, 57407, Note_off_c, 0, 56, 100
1, 57407, Note_on_c, 0, 60, 100
1, 57503, Note_off_c, 0, 60, 100
1, 57503, Note_on_c, 0, 63, 100
1, 57791, Note_off_c, 0, 63, 100
1, 57791, Note_on_c, 0, 60, 100
1, 57887, Note_off_c, 0, 60, 100
1, 57887, Note_on_c, 0, 63, 100
1, 57983, Note_off_c, 0, 63, 100
1, 57983, Note_on_c, 0, 60, 100
1, 58079, Note_off_c, 0, 60, 100
1, 58079, Note_on_c, 0, 58, 100
1, 58175, Note_off_c, 0, 58, 100
1, 58175, Note_on_c, 0, 56, 100
1, 58271, Note_off_c, 0, 56, 100
1, 58271, Note_on_c, 0, 53, 100
1, 58367, Note_off_c, 0, 53, 100
1, 58367, Note_on_c, 0, 56, 100
1, 58655, Note_off_c, 0, 56, 100
1, 59423, Note_on_c, 0, 73, 100
1, 59519, Note_off_c, 0, 73, 100
1, 59519, Note_on_c, 0, 75, 100
1, 59711, Note_off_c, 0, 75, 100
1, 59711, Note_on_c, 0, 77, 100
1, 59807, Note_off_c, 0, 77, 100
1, 59807, Note_on_c, 0, 75, 100
1, 59903, Note_off_c, 0, 75, 100
1, 59903, Note_on_c, 0, 73, 100
1, 60095, Note_off_c, 0, 73, 100
1, 60095, Note_on_c, 0, 75, 100
1, 60191, Note_off_c, 0, 75, 100
1, 60191, Note_on_c, 0, 73, 100
1, 60287, Note_off_c, 0, 73, 100
1, 60287, Note_on_c, 0, 71, 100
1, 60431, Note_off_c, 0, 71, 100
1, 60431, Note_on_c, 0, 70, 100
1, 60479, Note_off_c, 0, 70, 100
1, 60479, Note_on_c, 0, 68, 100
1, 60575, Note_off_c, 0, 68, 100
1, 60575, Note_on_c, 0, 70, 100
1, 60815, Note_off_c, 0, 70, 100
1, 60815, Note_on_c, 0, 70, 100
1, 60863, Note_off_c, 0, 70, 100
1, 60863, Note_on_c, 0, 72, 100
1, 60959, Note_off_c, 0, 72, 100
1, 60959, Note_on_c, 0, 70, 100
1, 61055, Note_off_c, 0, 70, 100
1, 61055, Note_on_c, 0, 68, 100
1, 61247, Note_off_c, 0, 68, 100
1, 61247, Note_on_c, 0, 70, 100
1, 61343, Note_off_c, 0, 70, 100
1, 61343, Note_on_c, 0, 68, 100
1, 61439, Note_off_c, 0, 68, 100
1, 61439, Note_on_c, 0, 67, 100
1, 61535, Note_off_c, 0, 67, 100
1, 61535, Note_on_c, 0, 68, 100
1, 61583, Note_off_c, 0, 68, 100
1, 61583, Note_on_c, 0, 67, 100
1, 61631, Note_off_c, 0, 67, 100
1, 61631, Note_on_c, 0, 66, 100
1, 61727, Note_off_c, 0, 66, 100
1, 61727, Note_on_c, 0, 67, 100
1, 61775, Note_off_c, 0, 67, 100
1, 61775, Note_on_c, 0, 66, 100
1, 61823, Note_off_c, 0, 66, 100
1, 61823, Note_on_c, 0, 65, 100
1, 61919, Note_off_c, 0, 65, 100
1, 61919, Note_on_c, 0, 67, 100
1, 61967, Note_off_c, 0, 67, 100
1, 61967, Note_on_c, 0, 65, 100
1, 62015, Note_off_c, 0, 65, 100
1, 62015, Note_on_c, 0, 64, 100
1, 62207, Note_off_c, 0, 64, 100
1, 62207, Note_on_c, 0, 63, 100
1, 62399, Note_off_c, 0, 63, 100
1, 62591, Note_on_c, 0, 60, 100
1, 62687, Note_off_c, 0, 60, 100
1, 62687, Note_on_c, 0, 59, 100
1, 62783, Note_off_c, 0, 59, 100
1, 62783, Note_on_c, 0, 58, 100
1, 62879, Note_off_c, 0, 58, 100
1, 62879, Note_on_c, 0, 56, 100
1, 63071, Note_off_c, 0, 56, 100
1, 63071, Note_on_c, 0, 53, 100
1, 63167, Note_off_c, 0, 53, 100
1, 63167, Note_on_c, 0, 55, 100
1, 63263, Note_off_c, 0, 55, 100
1, 63263, Note_on_c, 0, 53, 100
1, 63359, Note_off_c, 0, 53, 100
1, 63359, Note_on_c, 0, 51, 100
1, 63455, Note_off_c, 0, 51, 100
1, 63455, Note_on_c, 0, 60, 100
1, 63551, Note_off_c, 0, 60, 100
1, 63551, Note_on_c, 0, 55, 100
1, 63743, Note_off_c, 0, 55, 100
1, 63743, Note_on_c, 0, 58, 100
1, 63839, Note_off_c, 0, 58, 100
1, 63839, Note_on_c, 0, 56, 100
1, 63935, Note_off_c, 0, 56, 100
1, 63935, Note_on_c, 0, 53, 100
1, 64031, Note_off_c, 0, 53, 100
1, 64031, Note_on_c, 0, 56, 100
1, 64319, Note_off_c, 0, 56, 100
1, 64991, Note_on_c, 0, 72, 100
1, 65087, Note_off_c, 0, 72, 100
1, 65087, Note_on_c, 0, 68, 100
1, 65183, Note_off_c, 0, 68, 100
1, 65183, Note_on_c, 0, 70, 100
1, 65279, Note_off_c, 0, 70, 100
1, 65279, Note_on_c, 0, 72, 100
1, 65375, Note_off_c, 0, 72, 100
1, 65375, Note_on_c, 0, 68, 100
1, 65471, Note_off_c, 0, 68, 100
1, 65471, Note_on_c, 0, 65, 100
1, 65567, Note_off_c, 0, 65, 100
1, 65567, Note_on_c, 0, 68, 100
1, 65711, Note_off_c, 0, 68, 100
1, 65711, Note_on_c, 0, 72, 100
1, 65759, Note_off_c, 0, 72, 100
1, 65759, Note_on_c, 0, 68, 100
1, 65807, Note_off_c, 0, 68, 100
1, 65807, Note_on_c, 0, 65, 100
1, 65855, Note_off_c, 0, 65, 100
1, 65855, Note_on_c, 0, 73, 100
1, 65951, Note_off_c, 0, 73, 100
1, 65951, Note_on_c, 0, 69, 100
1, 66047, Note_off_c, 0, 69, 100
1, 66047, Note_on_c, 0, 72, 100
1, 66143, Note_off_c, 0, 72, 100
1, 66143, Note_on_c, 0, 71, 100
1, 66239, Note_off_c, 0, 71, 100
1, 66239, Note_on_c, 0, 70, 100
1, 66383, Note_off_c, 0, 70, 100
1, 66383, Note_on_c, 0, 65, 100
1, 66431, Note_off_c, 0, 65, 100
1, 66431, Note_on_c, 0, 68, 100
1, 66527, Note_off_c, 0, 68, 100
1, 66527, Note_on_c, 0, 67, 100
1, 66623, Note_off_c, 0, 67, 100
1, 66623, Note_on_c, 0, 65, 100
1, 66719, Note_off_c, 0, 65, 100
1, 66719, Note_on_c, 0, 67, 100
1, 66815, Note_off_c, 0, 67, 100
1, 66815, Note_on_c, 0, 75, 100
1, 66911, Note_off_c, 0, 75, 100
1, 66911, Note_on_c, 0, 76, 100
1, 67007, Note_off_c, 0, 76, 100
1, 67007, Note_on_c, 0, 77, 100
1, 67103, Note_off_c, 0, 77, 100
1, 67103, Note_on_c, 0, 76, 100
1, 67199, Note_off_c, 0, 76, 100
1, 67199, Note_on_c, 0, 75, 100
1, 67295, Note_off_c, 0, 75, 100
1, 67295, Note_on_c, 0, 68, 100
1, 67439, Note_off_c, 0, 68, 100
1, 67439, Note_on_c, 0, 65, 100
1, 67535, Note_off_c, 0, 65, 100
1, 67535, Note_on_c, 0, 63, 100
1, 67583, Note_off_c, 0, 63, 100
1, 67583, Note_on_c, 0, 68, 100
1, 67919, Note_off_c, 0, 68, 100
1, 67919, Note_on_c, 0, 65, 100
1, 68031, Note_off_c, 0, 65, 100
1, 68031, Note_on_c, 0, 63, 100
1, 68159, Note_off_c, 0, 63, 100
1, 68159, Note_on_c, 0, 68, 100
1, 68447, Note_off_c, 0, 68, 100
1, 68447, Note_on_c, 0, 65, 100
1, 68543, Note_off_c, 0, 65, 100
1, 68543, Note_on_c, 0, 61, 100
1, 68735, Note_off_c, 0, 61, 100
1, 68735, Note_on_c, 0, 68, 100
1, 68863, Note_off_c, 0, 68, 100
1, 68863, Note_on_c, 0, 65, 100
1, 68975, Note_off_c, 0, 65, 100
1, 68975, Note_on_c, 0, 61, 100
1, 69071, Note_off_c, 0, 61, 100
1, 69071, Note_on_c, 0, 58, 100
1, 69119, Note_off_c, 0, 58, 100
1, 69119, Note_on_c, 0, 69, 100
1, 69215, Note_off_c, 0, 69, 100
1, 69215, Note_on_c, 0, 65, 100
1, 69311, Note_off_c, 0, 65, 100
1, 69311, Note_on_c, 0, 62, 100
1, 69503, Note_off_c, 0, 62, 100
1, 69503, Note_on_c, 0, 67, 100
1, 69599, Note_off_c, 0, 67, 100
1, 69599, Note_on_c, 0, 65, 100
1, 69695, Note_off_c, 0, 65, 100
1, 69695, Note_on_c, 0, 62, 100
1, 69791, Note_off_c, 0, 62, 100
1, 69791, Note_on_c, 0, 63, 100
1, 69887, Note_off_c, 0, 63, 100
1, 69887, Note_on_c, 0, 64, 100
1, 69983, Note_off_c, 0, 64, 100
1, 69983, Note_on_c, 0, 65, 100
1, 70031, Note_off_c, 0, 65, 100
1, 70031, Note_on_c, 0, 64, 100
1, 70127, Note_off_c, 0, 64, 100
1, 70127, Note_on_c, 0, 60, 100
1, 70223, Note_off_c, 0, 60, 100
1, 70223, Note_on_c, 0, 64, 100
1, 70271, Note_off_c, 0, 64, 100
1, 70271, Note_on_c, 0, 65, 100
1, 70367, Note_off_c, 0, 65, 100
1, 70367, Note_on_c, 0, 67, 100
1, 70463, Note_off_c, 0, 67, 100
1, 70463, Note_on_c, 0, 65, 100
1, 70511, Note_off_c, 0, 65, 100
1, 70511, Note_on_c, 0, 62, 100
1, 70607, Note_off_c, 0, 62, 100
1, 70607, Note_on_c, 0, 65, 100
1, 70703, Note_off_c, 0, 65, 100
1, 70703, Note_on_c, 0, 66, 100
1, 70751, Note_off_c, 0, 66, 100
1, 70751, Note_on_c, 0, 67, 100
1, 70799, Note_off_c, 0, 67, 100
1, 70799, Note_on_c, 0, 72, 100
1, 70847, Note_off_c, 0, 72, 100
1, 70847, Note_on_c, 0, 67, 100
1, 70911, Note_off_c, 0, 67, 100
1, 70911, Note_on_c, 0, 65, 100
1, 70975, Note_off_c, 0, 65, 100
1, 70975, Note_on_c, 0, 64, 100
1, 71039, Note_off_c, 0, 64, 100
1, 71039, Note_on_c, 0, 65, 100
1, 71103, Note_off_c, 0, 65, 100
1, 71103, Note_on_c, 0, 64, 100
1, 71423, Note_off_c, 0, 64, 100
1, 71423, Note_on_c, 0, 63, 100
1, 71711, Note_off_c, 0, 63, 100
1, 73247, Note_on_c, 0, 72, 100
1, 73343, Note_off_c, 0, 72, 100
1, 73343, Note_on_c, 0, 75, 100
1, 73439, Note_off_c, 0, 75, 100
1, 73439, Note_on_c, 0, 77, 100
1, 73535, Note_off_c, 0, 77, 100
1, 73535, Note_on_c, 0, 75, 100
1, 73631, Note_off_c, 0, 75, 100
1, 73631, Note_on_c, 0, 72, 100
1, 73727, Note_off_c, 0, 72, 100
1, 73727, Note_on_c, 0, 74, 100
1, 73823, Note_off_c, 0, 74, 100
1, 73823, Note_on_c, 0, 75, 100
1, 73919, Note_off_c, 0, 75, 100
1, 73919, Note_on_c, 0, 74, 100
1, 74015, Note_off_c, 0, 74, 100
1, 74015, Note_on_c, 0, 70, 100
1, 74111, Note_off_c, 0, 70, 100
1, 74111, Note_on_c, 0, 73, 100
1, 74207, Note_off_c, 0, 73, 100
1, 74207, Note_on_c, 0, 75, 100
1, 74303, Note_off_c, 0, 75, 100
1, 74303, Note_on_c, 0, 73, 100
1, 74399, Note_off_c, 0, 73, 100
1, 74399, Note_on_c, 0, 72, 100
1, 74687, Note_off_c, 0, 72, 100
1, 74687, Note_on_c, 0, 70, 100
1, 74783, Note_off_c, 0, 70, 100
1, 74783, Note_on_c, 0, 69, 100
1, 74879, Note_off_c, 0, 69, 100
1, 74879, Note_on_c, 0, 68, 100
1, 74975, Note_off_c, 0, 68, 100
1, 74975, Note_on_c, 0, 63, 100
1, 75071, Note_off_c, 0, 63, 100
1, 75071, Note_on_c, 0, 68, 100
1, 75167, Note_off_c, 0, 68, 100
1, 75167, Note_on_c, 0, 70, 100
1, 75263, Note_off_c, 0, 70, 100
1, 75263, Note_on_c, 0, 69, 100
1, 75359, Note_off_c, 0, 69, 100
1, 75359, Note_on_c, 0, 71, 100
1, 75455, Note_off_c, 0, 71, 100
1, 75455, Note_on_c, 0, 69, 100
1, 75551, Note_off_c, 0, 69, 100
1, 75551, Note_on_c, 0, 64, 100
1, 75647, Note_off_c, 0, 64, 100
1, 75647, Note_on_c, 0, 67, 100
1, 75743, Note_off_c, 0, 67, 100
1, 75743, Note_on_c, 0, 69, 100
1, 75839, Note_off_c, 0, 69, 100
1, 75839, Note_on_c, 0, 67, 100
1, 75935, Note_off_c, 0, 67, 100
1, 75935, Note_on_c, 0, 64, 100
1, 76031, Note_off_c, 0, 64, 100
1, 76031, Note_on_c, 0, 66, 100
1, 76127, Note_off_c, 0, 66, 100
1, 76127, Note_on_c, 0, 67, 100
1, 76223, Note_off_c, 0, 67, 100
1, 76223, Note_on_c, 0, 64, 100
1, 76319, Note_off_c, 0, 64, 100
1, 76319, Note_on_c, 0, 63, 100
1, 76415, Note_off_c, 0, 63, 100
1, 76415, Note_on_c, 0, 62, 100
1, 76511, Note_off_c, 0, 62, 100
1, 76511, Note_on_c, 0, 64, 100
1, 76607, Note_off_c, 0, 64, 100
1, 76607, Note_on_c, 0, 67, 100
1, 76735, Note_off_c, 0, 67, 100
1, 76735, Note_on_c, 0, 64, 100
1, 76799, Note_off_c, 0, 64, 100
1, 76799, Note_on_c, 0, 71, 100
1, 76943, Note_off_c, 0, 71, 100
1, 76943, Note_on_c, 0, 67, 100
1, 76991, Note_off_c, 0, 67, 100
1, 76991, Note_on_c, 0, 72, 100
1, 77087, Note_off_c, 0, 72, 100
1, 77087, Note_on_c, 0, 73, 100
1, 77183, Note_off_c, 0, 73, 100
1, 77183, Note_on_c, 0, 74, 100
1, 77279, Note_off_c, 0, 74, 100
1, 77279, Note_on_c, 0, 71, 100
1, 77375, Note_off_c, 0, 71, 100
1, 77375, Note_on_c, 0, 67, 100
1, 77471, Note_off_c, 0, 67, 100
1, 77471, Note_on_c, 0, 64, 100
1, 77519, Note_off_c, 0, 64, 100
1, 77519, Note_on_c, 0, 67, 100
1, 77807, Note_off_c, 0, 67, 100
1, 78047, Note_on_c, 0, 67, 100
1, 78143, Note_off_c, 0, 67, 100
1, 78143, Note_on_c, 0, 69, 100
1, 78191, Note_off_c, 0, 69, 100
1, 78191, Note_on_c, 0, 70, 100
1, 78239, Note_off_c, 0, 70, 100
1, 78239, Note_on_c, 0, 71, 100
1, 78287, Note_off_c, 0, 71, 100
1, 78287, Note_on_c, 0, 74, 100
1, 78335, Note_off_c, 0, 74, 100
1, 78335, Note_on_c, 0, 72, 100
1, 78527, Note_off_c, 0, 72, 100
1, 78815, Note_on_c, 0, 72, 100
1, 78911, Note_off_c, 0, 72, 100
1, 78911, Note_on_c, 0, 75, 100
1, 79007, Note_off_c, 0, 75, 100
1, 79007, Note_on_c, 0, 76, 100
1, 79055, Note_off_c, 0, 76, 100
1, 79055, Note_on_c, 0, 81, 100
1, 79167, Note_off_c, 0, 81, 100
1, 79167, Note_on_c, 0, 84, 100
1, 79391, Note_off_c, 0, 84, 100
1, 79391, Note_on_c, 0, 74, 100
1, 79487, Note_off_c, 0, 74, 100
1, 79487, Note_on_c, 0, 76, 100
1, 79535, Note_off_c, 0, 76, 100
1, 79535, Note_on_c, 0, 77, 100
1, 79583, Note_off_c, 0, 77, 100
1, 79583, Note_on_c, 0, 78, 100
1, 79631, Note_off_c, 0, 78, 100
1, 79631, Note_on_c, 0, 79, 100
1, 79679, Note_off_c, 0, 79, 100
1, 79679, Note_on_c, 0, 78, 100
1, 79775, Note_off_c, 0, 78, 100
1, 80063, Note_on_c, 0, 76, 100
1, 80159, Note_off_c, 0, 76, 100
1, 80159, Note_on_c, 0, 75, 100
1, 80255, Note_off_c, 0, 75, 100
1, 80255, Note_on_c, 0, 74, 100
1, 80351, Note_off_c, 0, 74, 100
1, 80351, Note_on_c, 0, 71, 100
1, 80447, Note_off_c, 0, 71, 100
1, 80447, Note_on_c, 0, 67, 100
1, 80575, Note_off_c, 0, 67, 100
1, 80575, Note_on_c, 0, 64, 100
1, 80639, Note_off_c, 0, 64, 100
1, 80639, Note_on_c, 0, 67, 100
1, 81023, Note_off_c, 0, 67, 100
1, 81023, Note_on_c, 0, 69, 100
1, 81119, Note_off_c, 0, 69, 100
1, 81119, Note_on_c, 0, 67, 100
1, 81215, Note_off_c, 0, 67, 100
1, 81215, Note_on_c, 0, 64, 100
1, 81311, Note_off_c, 0, 64, 100
1, 81311, Note_on_c, 0, 65, 100
1, 81407, Note_off_c, 0, 65, 100
1, 81407, Note_on_c, 0, 66, 100
1, 81503, Note_off_c, 0, 66, 100
1, 81503, Note_on_c, 0, 64, 100
1, 81599, Note_off_c, 0, 64, 100
1, 81599, Note_on_c, 0, 60, 100
1, 81695, Note_off_c, 0, 60, 100
1, 81695, Note_on_c, 0, 57, 100
1, 81791, Note_off_c, 0, 57, 100
1, 81791, Note_on_c, 0, 55, 100
1, 81935, Note_off_c, 0, 55, 100
1, 81935, Note_on_c, 0, 53, 100
1, 82079, Note_off_c, 0, 53, 100
1, 82079, Note_on_c, 0, 57, 100
1, 82175, Note_off_c, 0, 57, 100
1, 82175, Note_on_c, 0, 59, 100
1, 82303, Note_off_c, 0, 59, 100
1, 82303, Note_on_c, 0, 56, 100
1, 82591, Note_off_c, 0, 56, 100
1, 83855, Note_on_c, 0, 60, 100
1, 83999, Note_off_c, 0, 60, 100
1, 83999, Note_on_c, 0, 60, 100
1, 84095, Note_off_c, 0, 60, 100
1, 84095, Note_on_c, 0, 65, 100
1, 84191, Note_off_c, 0, 65, 100
1, 84191, Note_on_c, 0, 60, 100
1, 84383, Note_off_c, 0, 60, 100
1, 84383, Note_on_c, 0, 60, 100
1, 84479, Note_off_c, 0, 60, 100
1, 84479, Note_on_c, 0, 61, 100
1, 84607, Note_off_c, 0, 61, 100
1, 84607, Note_on_c, 0, 58, 100
1, 84863, Note_off_c, 0, 58, 100
1, 84863, Note_on_c, 0, 60, 100
1, 85055, Note_off_c, 0, 60, 100
1, 85055, Note_on_c, 0, 58, 100
1, 85343, Note_off_c, 0, 58, 100
1, 85343, Note_on_c, 0, 65, 100
1, 85439, Note_off_c, 0, 65, 100
1, 85439, Note_on_c, 0, 68, 100
1, 85535, Note_off_c, 0, 68, 100
1, 85535, Note_on_c, 0, 67, 100
1, 85727, Note_off_c, 0, 67, 100
1, 85727, Note_on_c, 0, 67, 100
1, 85823, Note_off_c, 0, 67, 100
1, 85823, Note_on_c, 0, 72, 100
1, 85919, Note_off_c, 0, 72, 100
1, 85919, Note_on_c, 0, 70, 100
1, 86063, Note_off_c, 0, 70, 100
1, 86063, Note_on_c, 0, 67, 100
1, 86159, Note_off_c, 0, 67, 100
1, 86159, Note_on_c, 0, 63, 100
1, 86207, Note_off_c, 0, 63, 100
1, 86207, Note_on_c, 0, 68, 100
1, 86303, Note_off_c, 0, 68, 100
1, 86303, Note_on_c, 0, 63, 100
1, 86399, Note_off_c, 0, 63, 100
1, 86399, Note_on_c, 0, 66, 100
1, 86527, Note_off_c, 0, 66, 100
1, 86527, Note_on_c, 0, 63, 100
1, 86591, Note_off_c, 0, 63, 100
1, 86591, Note_on_c, 0, 65, 100
1, 86735, Note_off_c, 0, 65, 100
1, 86735, Note_on_c, 0, 63, 100
1, 86783, Note_off_c, 0, 63, 100
1, 86783, Note_on_c, 0, 68, 100
1, 86975, Note_off_c, 0, 68, 100
1, 86975, Note_on_c, 0, 65, 100
1, 87119, Note_off_c, 0, 65, 100
1, 87119, Note_on_c, 0, 63, 100
1, 87167, Note_off_c, 0, 63, 100
1, 87167, Note_on_c, 0, 68, 100
1, 87231, Note_off_c, 0, 68, 100
1, 87231, Note_on_c, 0, 63, 100
1, 87295, Note_off_c, 0, 63, 100
1, 87295, Note_on_c, 0, 61, 100
1, 87391, Note_off_c, 0, 61, 100
1, 87743, Note_on_c, 0, 68, 100
1, 87871, Note_off_c, 0, 68, 100
1, 87871, Note_on_c, 0, 64, 100
1, 88031, Note_off_c, 0, 64, 100
1, 88031, Note_on_c, 0, 63, 100
1, 88127, Note_off_c, 0, 63, 100
1, 88127, Note_on_c, 0, 61, 100
1, 88223, Note_off_c, 0, 61, 100
1, 88223, Note_on_c, 0, 68, 100
1, 88511, Note_off_c, 0, 68, 100
1, 88511, Note_on_c, 0, 63, 100
1, 88607, Note_off_c, 0, 63, 100
1, 88607, Note_on_c, 0, 61, 100
1, 88799, Note_off_c, 0, 61, 100
1, 88799, Note_on_c, 0, 59, 100
1, 88895, Note_off_c, 0, 59, 100
1, 88895, Note_on_c, 0, 60, 100
1, 89023, Note_off_c, 0, 60, 100
1, 89023, Note_on_c, 0, 58, 100
1, 89087, Note_off_c, 0, 58, 100
1, 89087, Note_on_c, 0, 57, 100
1, 89183, Note_off_c, 0, 57, 100
1, 89183, Note_on_c, 0, 55, 100
1, 89375, Note_off_c, 0, 55, 100
1, 89375, Note_on_c, 0, 58, 100
1, 89471, Note_off_c, 0, 58, 100
1, 89471, Note_on_c, 0, 59, 100
1, 89567, Note_off_c, 0, 59, 100
1, 89567, Note_on_c, 0, 62, 100
1, 89663, Note_off_c, 0, 62, 100
1, 89663, Note_on_c, 0, 67, 100
1, 89759, Note_off_c, 0, 67, 100
1, 89759, Note_on_c, 0, 65, 100
1, 89855, Note_off_c, 0, 65, 100
1, 89855, Note_on_c, 0, 68, 100
1, 89951, Note_off_c, 0, 68, 100
1, 89951, Note_on_c, 0, 65, 100
1, 90047, Note_off_c, 0, 65, 100
1, 90047, Note_on_c, 0, 60, 100
1, 90239, Note_off_c, 0, 60, 100
1, 90239, Note_on_c, 0, 58, 100
1, 90527, Note_off_c, 0, 58, 100
1, 91295, Note_on_c, 0, 63, 100
1, 91343, Note_off_c, 0, 63, 100
1, 91343, Note_on_c, 0, 65, 100
1, 91391, Note_off_c, 0, 65, 100
1, 91391, Note_on_c, 0, 68, 100
1, 91487, Note_off_c, 0, 68, 100
1, 91487, Note_on_c, 0, 70, 100
1, 91535, Note_off_c, 0, 70, 100
1, 91535, Note_on_c, 0, 68, 100
1, 91583, Note_off_c, 0, 68, 100
1, 91583, Note_on_c, 0, 67, 100
1, 91679, Note_off_c, 0, 67, 100
1, 91679, Note_on_c, 0, 68, 100
1, 91775, Note_off_c, 0, 68, 100
1, 91775, Note_on_c, 0, 70, 100
1, 91871, Note_off_c, 0, 70, 100
1, 91871, Note_on_c, 0, 68, 100
1, 91967, Note_off_c, 0, 68, 100
1, 91967, Note_on_c, 0, 65, 100
1, 92095, Note_off_c, 0, 65, 100
1, 92095, Note_on_c, 0, 63, 100
1, 92159, Note_off_c, 0, 63, 100
1, 92159, Note_on_c, 0, 67, 100
1, 92255, Note_off_c, 0, 67, 100
1, 92255, Note_on_c, 0, 65, 100
1, 92351, Note_off_c, 0, 65, 100
1, 92351, Note_on_c, 0, 62, 100
1, 92447, Note_off_c, 0, 62, 100
1, 92447, Note_on_c, 0, 63, 100
1, 92543, Note_off_c, 0, 63, 100
1, 92543, Note_on_c, 0, 64, 100
1, 92735, Note_off_c, 0, 64, 100
1, 92735, Note_on_c, 0, 72, 100
1, 92863, Note_off_c, 0, 72, 100
1, 92863, Note_on_c, 0, 72, 100
1, 92927, Note_off_c, 0, 72, 100
1, 92927, Note_on_c, 0, 68, 100
1, 93023, Note_off_c, 0, 68, 100
1, 93023, Note_on_c, 0, 65, 100
1, 93103, Note_off_c, 0, 65, 100
1, 93103, End_track
0, 0, End_of_file
