0, 0, Header, 1, 1, 192
1, 0, Start_track
1, 0, Title_t, "Melody"
1, 0, Tempo, 284360
1, 0, Key_signature, 1, "major"
1, 0, Time_signature, 4, 2, 24, 8
1, 720, Note_on_c, 0, 64, 100
1, 768, Note_off_c, 0, 64, 100
1, 768, Note_on_c, 0, 67, 100
1, 864, Note_off_c, 0, 67, 100
1, 864, Note_on_c, 0, 67, 100
1, 1056, Note_off_c, 0, 67, 100
1, 1056, Note_on_c, 0, 67, 100
1, 1152, Note_off_c, 0, 67, 100
1, 1152, Note_on_c, 0, 69, 100
1, 1248, Note_off_c, 0, 69, 100
1, 1248, Note_on_c, 0, 67, 100
1, 1344, Note_off_c, 0, 67, 100
1, 1344, Note_on_c, 0, 64, 100
1, 1440, Note_off_c, 0, 64, 100
1, 1440, Note_on_c, 0, 67, 100
1, 1728, Note_off_c, 0, 67, 100
1, 2064, Note_on_c, 0, 64, 100
1, 2112, Note_off_c, 0, 64, 100
1, 2112, Note_on_c, 0, 67, 100
1, 2208, Note_off_c, 0, 67, 100
1, 2208, Note_on_c, 0, 70, 100
1, 2256, Note_off_c, 0, 70, 100
1, 2256, Note_on_c, 0, 72, 100
1, 2304, Note_off_c, 0, 72, 100
1, 2304, Note_on_c, 0, 74, 100
1, 2496, Note_off_c, 0, 74, 100
1, 3168, Note_on_c, 0, 67, 100
1, 3264, Note_off_c, 0, 67, 100
1, 3264, Note_on_c, 0, 72, 100
1, 3360, Note_off_c, 0, 72, 100
1, 3360, Note_on_c, 0, 71, 100
1, 3504, Note_off_c, 0, 71, 100
1, 3504, Note_on_c, 0, 69, 100
1, 3600, Note_off_c, 0, 69, 100
1, 3600, Note_on_c, 0, 70, 100
1, 3696, Note_off_c, 0, 70, 100
1, 3696, Note_on_c, 0, 71, 100
1, 3792, Note_off_c, 0, 71, 100
1, 3792, Note_on_c, 0, 67, 100
1, 4032, Note_off_c, 0, 67, 100
1, 4032, Note_on_c, 0, 67, 100
1, 4128, Note_off_c, 0, 67, 100
1, 4128, Note_on_c, 0, 67, 100
1, 4288, Note_off_c, 0, 67, 100
1, 4288, Note_on_c, 0, 64, 100
1, 4352, Note_off_c, 0, 64, 100
1, 4352, Note_on_c, 0, 67, 100
1, 4416, Note_off_c, 0, 67, 100
1, 4416, Note_on_c, 0, 69, 100
1, 4512, Note_off_c, 0, 69, 100
1, 4512, Note_on_c, 0, 67, 100
1, 4672, Note_off_c, 0, 67, 100
1, 4672, Note_on_c, 0, 64, 100
1, 4768, Note_off_c, 0, 64, 100
1, 5136, Note_on_c, 0, 61, 100
1, 5184, Note_off_c, 0, 61, 100
1, 5184, Note_on_c, 0, 63, 100
1, 5280, Note_off_c, 0, 63, 100
1, 5280, Note_on_c, 0, 61, 100
1, 5376, Note_off_c, 0, 61, 100
1, 5376, Note_on_c, 0, 62, 100
1, 5472, Note_off_c, 0, 62, 100
1, 5472, Note_on_c, 0, 60, 100
1, 5616, Note_off_c, 0, 60, 100
1, 5616, Note_on_c, 0, 57, 100
1, 5712, Note_off_c, 0, 57, 100
1, 5712, Note_on_c, 0, 58, 100
1, 5808, Note_off_c, 0, 58, 100
1, 5808, Note_on_c, 0, 60, 100
1, 5952, Note_off_c, 0, 60, 100
1, 5952, Note_on_c, 0, 58, 100
1, 6000, Note_off_c, 0, 58, 100
1, 6000, Note_on_c, 0, 57, 100
1, 6096, Note_off_c, 0, 57, 100
1, 6096, Note_on_c, 0, 58, 100
1, 6192, Note_off_c, 0, 58, 100
1, 6192, Note_on_c, 0, 57, 100
1, 6288, Note_off_c, 0, 57, 100
1, 6288, Note_on_c, 0, 56, 100
1, 6384, Note_off_c, 0, 56, 100
1, 6384, Note_on_c, 0, 55, 100
1, 6480, Note_off_c, 0, 55, 100
1, 6480, Note_on_c, 0, 56, 100
1, 6576, Note_off_c, 0, 56, 100
1, 6576, Note_on_c, 0, 57, 100
1, 6672, Note_off_c, 0, 57, 100
1, 6672, Note_on_c, 0, 60, 100
1, 6768, Note_off_c, 0, 60, 100
1, 6768, Note_on_c, 0, 61, 100
1, 6864, Note_off_c, 0, 61, 100
1, 6864, Note_on_c, 0, 60, 100
1, 6960, Note_off_c, 0, 60, 100
1, 6960, Note_on_c, 0, 63, 100
1, 7056, Note_off_c, 0, 63, 100
1, 7056, Note_on_c, 0, 60, 100
1, 7152, Note_off_c, 0, 60, 100
1, 7968, Note_on_c, 0, 69, 100
1, 8064, Note_off_c, 0, 69, 100
1, 8064, Note_on_c, 0, 70, 100
1, 8160, Note_off_c, 0, 70, 100
1, 8160, Note_on_c, 0, 71, 100
1, 8256, Note_off_c, 0, 71, 100
1, 8256, Note_on_c, 0, 72, 100
1, 8352, Note_off_c, 0, 72, 100
1, 8352, Note_on_c, 0, 69, 100
1, 8496, Note_off_c, 0, 69, 100
1, 8496, Note_on_c, 0, 65, 100
1, 8592, Note_off_c, 0, 65, 100
1, 8592, Note_on_c, 0, 62, 100
1, 8640, Note_off_c, 0, 62, 100
1, 8640, Note_on_c, 0, 67, 100
1, 8784, Note_off_c, 0, 67, 100
1, 8784, Note_on_c, 0, 69, 100
1, 8880, Note_off_c, 0, 69, 100
1, 8880, Note_on_c, 0, 71, 100
1, 8976, Note_off_c, 0, 71, 100
1, 8976, Note_on_c, 0, 69, 100
1, 9024, Note_off_c, 0, 69, 100
1, 9024, Note_on_c, 0, 71, 100
1, 9120, Note_off_c, 0, 71, 100
1, 9120, Note_on_c, 0, 69, 100
1, 9216, Note_off_c, 0, 69, 100
1, 9216, Note_on_c, 0, 71, 100
1, 9312, Note_off_c, 0, 71, 100
1, 9312, Note_on_c, 0, 69, 100
1, 9408, Note_off_c, 0, 69, 100
1, 9408, Note_on_c, 0, 71, 100
1, 9504, Note_off_c, 0, 71, 100
1, 9504, Note_on_c, 0, 69, 100
1, 9600, Note_off_c, 0, 69, 100
1, 9600, Note_on_c, 0, 68, 100
1, 9744, Note_off_c, 0, 68, 100
1, 9744, Note_on_c, 0, 64, 100
1, 9792, Note_off_c, 0, 64, 100
1, 9792, Note_on_c, 0, 66, 100
1, 9888, Note_off_c, 0, 66, 100
1, 9888, Note_on_c, 0, 68, 100
1, 10032, Note_off_c, 0, 68, 100
1, 10032, Note_on_c, 0, 71, 100
1, 10128, Note_off_c, 0, 71, 100
1, 10128, Note_on_c, 0, 68, 100
1, 10176, Note_off_c, 0, 68, 100
1, 10176, Note_on_c, 0, 69, 100
1, 10272, Note_off_c, 0, 69, 100
1, 10272, Note_on_c, 0, 71, 100
1, 10464, Note_off_c, 0, 71, 100
1, 10464, Note_on_c, 0, 72, 100
1, 10624, Note_off_c, 0, 72, 100
1, 10624, Note_on_c, 0, 69, 100
1, 10752, Note_off_c, 0, 69, 100
1, 10752, Note_on_c, 0, 64, 100
1, 11008, Note_off_c, 0, 64, 100
1, 11008, Note_on_c, 0, 60, 100
1, 11136, Note_off_c, 0, 60, 100
1, 11136, Note_on_c, 0, 63, 100
1, 11328, Note_off_c, 0, 63, 100
1, 11328, Note_on_c, 0, 60, 100
1, 11376, Note_off_c, 0, 60, 100
1, 11376, Note_on_c, 0, 62, 100
1, 11472, Note_off_c, 0, 62, 100
1, 11472, Note_on_c, 0, 60, 100
1, 11664, Note_off_c, 0, 60, 100
1, 11664, Note_on_c, 0, 58, 100
1, 11712, Note_off_c, 0, 58, 100
1, 11712, Note_on_c, 0, 59, 100
1, 11808, Note_off_c, 0, 59, 100
1, 11808, Note_on_c, 0, 62, 100
1, 11952, Note_off_c, 0, 62, 100
1, 11952, Note_on_c, 0, 64, 100
1, 12048, Note_off_c, 0, 64, 100
1, 12048, Note_on_c, 0, 66, 100
1, 12096, Note_off_c, 0, 66, 100
1, 12096, Note_on_c, 0, 69, 100
1, 12192, Note_off_c, 0, 69, 100
1, 12192, Note_on_c, 0, 67, 100
1, 12288, Note_off_c, 0, 67, 100
1, 12288, Note_on_c, 0, 66, 100
1, 12384, Note_off_c, 0, 66, 100
1, 12384, Note_on_c, 0, 67, 100
1, 12528, Note_off_c, 0, 67, 100
1, 12528, Note_on_c, 0, 64, 100
1, 12624, Note_off_c, 0, 64, 100
1, 12624, Note_on_c, 0, 63, 100
1, 12720, Note_off_c, 0, 63, 100
1, 12960, Note_on_c, 0, 65, 100
1, 13056, Note_off_c, 0, 65, 100
1, 13056, Note_on_c, 0, 70, 100
1, 13248, Note_off_c, 0, 70, 100
1, 14208, Note_on_c, 0, 65, 100
1, 14400, Note_off_c, 0, 65, 100
1, 14400, Note_on_c, 0, 67, 100
1, 14448, Note_off_c, 0, 67, 100
1, 14448, Note_on_c, 0, 70, 100
1, 14544, Note_off_c, 0, 70, 100
1, 14544, Note_on_c, 0, 74, 100
1, 14640, Note_off_c, 0, 74, 100
1, 14640, Note_on_c, 0, 69, 100
1, 14736, Note_off_c, 0, 69, 100
1, 14736, Note_on_c, 0, 70, 100
1, 14832, Note_off_c, 0, 70, 100
1, 14832, Note_on_c, 0, 72, 100
1, 14928, Note_off_c, 0, 72, 100
1, 14928, Note_on_c, 0, 70, 100
1, 15024, Note_off_c, 0, 70, 100
1, 15024, Note_on_c, 0, 69, 100
1, 15120, Note_off_c, 0, 69, 100
1, 15120, Note_on_c, 0, 67, 100
1, 15216, Note_off_c, 0, 67, 100
1, 15216, Note_on_c, 0, 65, 100
1, 15312, Note_off_c, 0, 65, 100
1, 15312, Note_on_c, 0, 63, 100
1, 15408, Note_off_c, 0, 63, 100
1, 15408, Note_on_c, 0, 60, 100
1, 15504, Note_off_c, 0, 60, 100
1, 15504, Note_on_c, 0, 61, 100
1, 15552, Note_off_c, 0, 61, 100
1, 15552, Note_on_c, 0, 62, 100
1, 15648, Note_off_c, 0, 62, 100
1, 15648, Note_on_c, 0, 63, 100
1, 15744, Note_off_c, 0, 63, 100
1, 15744, Note_on_c, 0, 64, 100
1, 15840, Note_off_c, 0, 64, 100
1, 15840, Note_on_c, 0, 65, 100
1, 15936, Note_off_c, 0, 65, 100
1, 15936, Note_on_c, 0, 67, 100
1, 16032, Note_off_c, 0, 67, 100
1, 16032, Note_on_c, 0, 65, 100
1, 16128, Note_off_c, 0, 65, 100
1, 16128, Note_on_c, 0, 70, 100
1, 16368, Note_off_c, 0, 70, 100
1, 16368, Note_on_c, 0, 69, 100
1, 16416, Note_off_c, 0, 69, 100
1, 16416, Note_on_c, 0, 70, 100
1, 16464, Note_off_c, 0, 70, 100
1, 16464, Note_on_c, 0, 67, 100
1, 16560, Note_off_c, 0, 67, 100
1, 16560, Note_on_c, 0, 63, 100
1, 16656, Note_off_c, 0, 63, 100
1, 16656, Note_on_c, 0, 60, 100
1, 16704, Note_off_c, 0, 60, 100
1, 16704, Note_on_c, 0, 70, 100
1, 16944, Note_off_c, 0, 70, 100
1, 16944, Note_on_c, 0, 69, 100
1, 16992, Note_off_c, 0, 69, 100
1, 16992, Note_on_c, 0, 70, 100
1, 17040, Note_off_c, 0, 70, 100
1, 17040, Note_on_c, 0, 66, 100
1, 17136, Note_off_c, 0, 66, 100
1, 17136, Note_on_c, 0, 63, 100
1, 17280, Note_off_c, 0, 63, 100
1, 17280, Note_on_c, 0, 60, 100
1, 17328, Note_off_c, 0, 60, 100
1, 17328, Note_on_c, 0, 69, 100
1, 17424, Note_off_c, 0, 69, 100
1, 17424, Note_on_c, 0, 70, 100
1, 17472, Note_off_c, 0, 70, 100
1, 17472, Note_on_c, 0, 72, 100
1, 17568, Note_off_c, 0, 72, 100
1, 17568, Note_on_c, 0, 70, 100
1, 17760, Note_off_c, 0, 70, 100
1, 17760, Note_on_c, 0, 69, 100
1, 17808, Note_off_c, 0, 69, 100
1, 17808, Note_on_c, 0, 70, 100
1, 17856, Note_off_c, 0, 70, 100
1, 17856, Note_on_c, 0, 67, 100
1, 17952, Note_off_c, 0, 67, 100
1, 17952, Note_on_c, 0, 66, 100
1, 18048, Note_off_c, 0, 66, 100
1, 18048, Note_on_c, 0, 65, 100
1, 18144, Note_off_c, 0, 65, 100
1, 18144, Note_on_c, 0, 63, 100
1, 18288, Note_off_c, 0, 63, 100
1, 18288, Note_on_c, 0, 60, 100
1, 18384, Note_off_c, 0, 60, 100
1, 18384, Note_on_c, 0, 61, 100
1, 18432, Note_off_c, 0, 61, 100
1, 18432, Note_on_c, 0, 62, 100
1, 18528, Note_off_c, 0, 62, 100
1, 18528, Note_on_c, 0, 61, 100
1, 18624, Note_off_c, 0, 61, 100
1, 18816, Note_on_c, 0, 62, 100
1, 18864, Note_off_c, 0, 62, 100
1, 18864, Note_on_c, 0, 65, 100
1, 18960, Note_off_c, 0, 65, 100
1, 18960, Note_on_c, 0, 62, 100
1, 19008, Note_off_c, 0, 62, 100
1, 19008, Note_on_c, 0, 58, 100
1, 19248, Note_off_c, 0, 58, 100
1, 19248, Note_on_c, 0, 64, 100
1, 19344, Note_off_c, 0, 64, 100
1, 19344, Note_on_c, 0, 55, 100
1, 19440, Note_off_c, 0, 55, 100
1, 20160, Note_on_c, 0, 57, 100
1, 20256, Note_off_c, 0, 57, 100
1, 20256, Note_on_c, 0, 58, 100
1, 20304, Note_off_c, 0, 58, 100
1, 20304, Note_on_c, 0, 60, 100
1, 20352, Note_off_c, 0, 60, 100
1, 20352, Note_on_c, 0, 61, 100
1, 20400, Note_off_c, 0, 61, 100
1, 20400, Note_on_c, 0, 63, 100
1, 20496, Note_off_c, 0, 63, 100
1, 20496, Note_on_c, 0, 60, 100
1, 20608, Note_off_c, 0, 60, 100
1, 20608, Note_on_c, 0, 61, 100
1, 20672, Note_off_c, 0, 61, 100
1, 20672, Note_on_c, 0, 62, 100
1, 20800, Note_off_c, 0, 62, 100
1, 20800, Note_on_c, 0, 57, 100
1, 20976, Note_off_c, 0, 57, 100
1, 20976, Note_on_c, 0, 60, 100
1, 21072, Note_off_c, 0, 60, 100
1, 21072, Note_on_c, 0, 59, 100
1, 21168, Note_off_c, 0, 59, 100
1, 21168, Note_on_c, 0, 57, 100
1, 21264, Note_off_c, 0, 57, 100
1, 21264, Note_on_c, 0, 55, 100
1, 21360, Note_off_c, 0, 55, 100
1, 21360, Note_on_c, 0, 54, 100
1, 21456, Note_off_c, 0, 54, 100
1, 21456, Note_on_c, 0, 55, 100
1, 21552, Note_off_c, 0, 55, 100
1, 21552, Note_on_c, 0, 57, 100
1, 21648, Note_off_c, 0, 57, 100
1, 21648, Note_on_c, 0, 55, 100
1, 21744, Note_off_c, 0, 55, 100
1, 21744, Note_on_c, 0, 54, 100
1, 21840, Note_off_c, 0, 54, 100
1, 21840, Note_on_c, 0, 55, 100
1, 21936, Note_off_c, 0, 55, 100
1, 22128, Note_on_c, 0, 64, 100
1, 22224, Note_off_c, 0, 64, 100
1, 22224, Note_on_c, 0, 62, 100
1, 22320, Note_off_c, 0, 62, 100
1, 22320, Note_on_c, 0, 64, 100
1, 22416, Note_off_c, 0, 64, 100
1, 22416, Note_on_c, 0, 56, 100
1, 22512, Note_off_c, 0, 56, 100
1, 23232, Note_on_c, 0, 57, 100
1, 23328, Note_off_c, 0, 57, 100
1, 23328, Note_on_c, 0, 58, 100
1, 23376, Note_off_c, 0, 58, 100
1, 23376, Note_on_c, 0, 59, 100
1, 23488, Note_off_c, 0, 59, 100
1, 23488, Note_on_c, 0, 60, 100
1, 23616, Note_off_c, 0, 60, 100
1, 23616, Note_on_c, 0, 59, 100
1, 23712, Note_off_c, 0, 59, 100
1, 23712, Note_on_c, 0, 58, 100
1, 23760, Note_off_c, 0, 58, 100
1, 23760, Note_on_c, 0, 59, 100
1, 23856, Note_off_c, 0, 59, 100
1, 23856, Note_on_c, 0, 68, 100
1, 23952, Note_off_c, 0, 68, 100
1, 23952, Note_on_c, 0, 66, 100
1, 24064, Note_off_c, 0, 66, 100
1, 24064, Note_on_c, 0, 64, 100
1, 24192, Note_off_c, 0, 64, 100
1, 24192, Note_on_c, 0, 62, 100
1, 24240, Note_off_c, 0, 62, 100
1, 24240, Note_on_c, 0, 63, 100
1, 24336, Note_off_c, 0, 63, 100
1, 24336, Note_on_c, 0, 65, 100
1, 24432, Note_off_c, 0, 65, 100
1, 24432, Note_on_c, 0, 67, 100
1, 24528, Note_off_c, 0, 67, 100
1, 24528, Note_on_c, 0, 70, 100
1, 24640, Note_off_c, 0, 70, 100
1, 24640, Note_on_c, 0, 68, 100
1, 24768, Note_off_c, 0, 68, 100
1, 24768, Note_on_c, 0, 69, 100
1, 24816, Note_off_c, 0, 69, 100
1, 24816, Note_on_c, 0, 72, 100
1, 24912, Note_off_c, 0, 72, 100
1, 24912, Note_on_c, 0, 75, 100
1, 24960, Note_off_c, 0, 75, 100
1, 24960, Note_on_c, 0, 72, 100
1, 25056, Note_off_c, 0, 72, 100
1, 25056, Note_on_c, 0, 73, 100
1, 25152, Note_off_c, 0, 73, 100
1, 25152, Note_on_c, 0, 74, 100
1, 25248, Note_off_c, 0, 74, 100
1, 25248, Note_on_c, 0, 72, 100
1, 25344, Note_off_c, 0, 72, 100
1, 25344, Note_on_c, 0, 69, 100
1, 25440, Note_off_c, 0, 69, 100
1, 25440, Note_on_c, 0, 70, 100
1, 25536, Note_off_c, 0, 70, 100
1, 25536, Note_on_c, 0, 71, 100
1, 25680, Note_off_c, 0, 71, 100
1, 25680, Note_on_c, 0, 62, 100
1, 25776, Note_off_c, 0, 62, 100
1, 25776, Note_on_c, 0, 67, 100
1, 25872, Note_off_c, 0, 67, 100
1, 25872, Note_on_c, 0, 69, 100
1, 25968, Note_off_c, 0, 69, 100
1, 25968, Note_on_c, 0, 71, 100
1, 26064, Note_off_c, 0, 71, 100
1, 26064, Note_on_c, 0, 72, 100
1, 26160, Note_off_c, 0, 72, 100
1, 26160, Note_on_c, 0, 74, 100
1, 26256, Note_off_c, 0, 74, 100
1, 26256, Note_on_c, 0, 74, 100
1, 26304, Note_off_c, 0, 74, 100
1, 26304, Note_on_c, 0, 72, 100
1, 26400, Note_off_c, 0, 72, 100
1, 26400, Note_on_c, 0, 74, 100
1, 26448, Note_off_c, 0, 74, 100
1, 26448, Note_on_c, 0, 72, 100
1, 26528, Note_off_c, 0, 72, 100
1, 26528, Note_on_c, 0, 71, 100
1, 26624, Note_off_c, 0, 71, 100
1, 26624, Note_on_c, 0, 72, 100
1, 26656, Note_off_c, 0, 72, 100
1, 26656, Note_on_c, 0, 71, 100
1, 26688, Note_off_c, 0, 71, 100
1, 26688, Note_on_c, 0, 69, 100
1, 26784, Note_off_c, 0, 69, 100
1, 26784, Note_on_c, 0, 70, 100
1, 26832, Note_off_c, 0, 70, 100
1, 26832, Note_on_c, 0, 69, 100
1, 26880, Note_off_c, 0, 69, 100
1, 26880, Note_on_c, 0, 67, 100
1, 26976, Note_off_c, 0, 67, 100
1, 26976, Note_on_c, 0, 68, 100
1, 27024, Note_off_c, 0, 68, 100
1, 27024, Note_on_c, 0, 67, 100
1, 27120, Note_off_c, 0, 67, 100
1, 27120, Note_on_c, 0, 64, 100
1, 27216, Note_off_c, 0, 64, 100
1, 27216, Note_on_c, 0, 67, 100
1, 27264, Note_off_c, 0, 67, 100
1, 27264, Note_on_c, 0, 69, 100
1, 27360, Note_off_c, 0, 69, 100
1, 27360, Note_on_c, 0, 67, 100
1, 27520, Note_off_c, 0, 67, 100
1, 27520, Note_on_c, 0, 64, 100
1, 27584, Note_off_c, 0, 64, 100
1, 27584, Note_on_c, 0, 74, 100
1, 27744, Note_off_c, 0, 74, 100
1, 27744, Note_on_c, 0, 76, 100
1, 27792, Note_off_c, 0, 76, 100
1, 27792, Note_on_c, 0, 74, 100
1, 27840, Note_off_c, 0, 74, 100
1, 27840, Note_on_c, 0, 72, 100
1, 28032, Note_off_c, 0, 72, 100
1, 28032, Note_on_c, 0, 70, 100
1, 28128, Note_off_c, 0, 70, 100
1, 28128, Note_on_c, 0, 72, 100
1, 28176, Note_off_c, 0, 72, 100
1, 28176, Note_on_c, 0, 70, 100
1, 28224, Note_off_c, 0, 70, 100
1, 28224, Note_on_c, 0, 69, 100
1, 28416, Note_off_c, 0, 69, 100
1, 28416, Note_on_c, 0, 67, 100
1, 28512, Note_off_c, 0, 67, 100
1, 28512, Note_on_c, 0, 68, 100
1, 28560, Note_off_c, 0, 68, 100
1, 28560, Note_on_c, 0, 67, 100
1, 28656, Note_off_c, 0, 67, 100
1, 28656, Note_on_c, 0, 64, 100
1, 28752, Note_off_c, 0, 64, 100
1, 28752, Note_on_c, 0, 67, 100
1, 28800, Note_off_c, 0, 67, 100
1, 28800, Note_on_c, 0, 69, 100
1, 28896, Note_off_c, 0, 69, 100
1, 28896, Note_on_c, 0, 67, 100
1, 29040, Note_off_c, 0, 67, 100
1, 29040, Note_on_c, 0, 66, 100
1, 29136, Note_off_c, 0, 66, 100
1, 29136, Note_on_c, 0, 67, 100
1, 29184, Note_off_c, 0, 67, 100
1, 29184, Note_on_c, 0, 70, 100
1, 29312, Note_off_c, 0, 70, 100
1, 29312, Note_on_c, 0, 73, 100
1, 29440, Note_off_c, 0, 73, 100
1, 29440, Note_on_c, 0, 74, 100
1, 29568, Note_off_c, 0, 74, 100
1, 29568, Note_on_c, 0, 69, 100
1, 29696, Note_off_c, 0, 69, 100
1, 29696, Note_on_c, 0, 70, 100
1, 29856, Note_off_c, 0, 70, 100
1, 29856, Note_on_c, 0, 70, 100
1, 29952, Note_off_c, 0, 70, 100
1, 29952, Note_on_c, 0, 67, 100
1, 30048, Note_off_c, 0, 67, 100
1, 31488, Note_on_c, 0, 70, 100
1, 31584, Note_off_c, 0, 70, 100
1, 31584, Note_on_c, 0, 72, 100
1, 31680, Note_off_c, 0, 72, 100
1, 31680, Note_on_c, 0, 75, 100
1, 31776, Note_off_c, 0, 75, 100
1, 31776, Note_on_c, 0, 72, 100
1, 31872, Note_off_c, 0, 72, 100
1, 31872, Note_on_c, 0, 73, 100
1, 31968, Note_off_c, 0, 73, 100
1, 31968, Note_on_c, 0, 70, 100
1, 32064, Note_off_c, 0, 70, 100
1, 32064, Note_on_c, 0, 67, 100
1, 32160, Note_off_c, 0, 67, 100
1, 32160, Note_on_c, 0, 64, 100
1, 32256, Note_off_c, 0, 64, 100
1, 32256, Note_on_c, 0, 68, 100
1, 32352, Note_off_c, 0, 68, 100
1, 32352, Note_on_c, 0, 69, 100
1, 32448, Note_off_c, 0, 69, 100
1, 32448, Note_on_c, 0, 70, 100
1, 32544, Note_off_c, 0, 70, 100
1, 32544, Note_on_c, 0, 71, 100
1, 32640, Note_off_c, 0, 71, 100
1, 32640, Note_on_c, 0, 72, 100
1, 32736, Note_off_c, 0, 72, 100
1, 32736, Note_on_c, 0, 69, 100
1, 32832, Note_off_c, 0, 69, 100
1, 32832, Note_on_c, 0, 66, 100
1, 32976, Note_off_c, 0, 66, 100
1, 32976, Note_on_c, 0, 62, 100
1, 33072, Note_off_c, 0, 62, 100
1, 33072, Note_on_c, 0, 65, 100
1, 33168, Note_off_c, 0, 65, 100
1, 33168, Note_on_c, 0, 67, 100
1, 33216, Note_off_c, 0, 67, 100
1, 33216, Note_on_c, 0, 69, 100
1, 33360, Note_off_c, 0, 69, 100
1, 33360, Note_on_c, 0, 65, 100
1, 33456, Note_off_c, 0, 65, 100
1, 33456, Note_on_c, 0, 67, 100
1, 33552, Note_off_c, 0, 67, 100
1, 33552, Note_on_c, 0, 65, 100
1, 33648, Note_off_c, 0, 65, 100
1, 33648, Note_on_c, 0, 64, 100
1, 33744, Note_off_c, 0, 64, 100
1, 33744, Note_on_c, 0, 65, 100
1, 33792, Note_off_c, 0, 65, 100
1, 33792, Note_on_c, 0, 68, 100
1, 33936, Note_off_c, 0, 68, 100
1, 33936, Note_on_c, 0, 69, 100
1, 33984, Note_off_c, 0, 69, 100
1, 33984, Note_on_c, 0, 71, 100
1, 34080, Note_off_c, 0, 71, 100
1, 34080, Note_on_c, 0, 68, 100
1, 34272, Note_off_c, 0, 68, 100
1, 34272, Note_on_c, 0, 71, 100
1, 34320, Note_off_c, 0, 71, 100
1, 34320, Note_on_c, 0, 68, 100
1, 34416, Note_off_c, 0, 68, 100
1, 34416, Note_on_c, 0, 72, 100
1, 34512, Note_off_c, 0, 72, 100
1, 34512, Note_on_c, 0, 67, 100
1, 34608, Note_off_c, 0, 67, 100
1, 34608, Note_on_c, 0, 76, 100
1, 34704, Note_off_c, 0, 76, 100
1, 34704, Note_on_c, 0, 72, 100
1, 34848, Note_off_c, 0, 72, 100
1, 34848, Note_on_c, 0, 74, 100
1, 34944, Note_off_c, 0, 74, 100
1, 34944, Note_on_c, 0, 72, 100
1, 34992, Note_off_c, 0, 72, 100
1, 34992, Note_on_c, 0, 69, 100
1, 35136, Note_off_c, 0, 69, 100
1, 35136, Note_on_c, 0, 71, 100
1, 35174, Note_off_c, 0, 71, 100
1, 35174, Note_on_c, 0, 72, 100
1, 35289, Note_off_c, 0, 72, 100
1, 35289, Note_on_c, 0, 69, 100
1, 35423, Note_off_c, 0, 69, 100
1, 35423, Note_on_c, 0, 70, 100
1, 35471, Note_off_c, 0, 70, 100
1, 35471, Note_on_c, 0, 69, 100
1, 35519, Note_off_c, 0, 69, 100
1, 35519, Note_on_c, 0, 66, 100
1, 35615, Note_off_c, 0, 66, 100
1, 35615, Note_on_c, 0, 67, 100
1, 35711, Note_off_c, 0, 67, 100
1, 35711, Note_on_c, 0, 69, 100
1, 36047, Note_off_c, 0, 69, 100
1, 36047, Note_on_c, 0, 66, 100
1, 36095, Note_off_c, 0, 66, 100
1, 36095, Note_on_c, 0, 67, 100
1, 36239, Note_off_c, 0, 67, 100
1, 36239, Note_on_c, 0, 69, 100
1, 36335, Note_off_c, 0, 69, 100
1, 36335, Note_on_c, 0, 71, 100
1, 36431, Note_off_c, 0, 71, 100
1, 36431, Note_on_c, 0, 74, 100
1, 36527, Note_off_c, 0, 74, 100
1, 36527, Note_on_c, 0, 72, 100
1, 36623, Note_off_c, 0, 72, 100
1, 36623, Note_on_c, 0, 74, 100
1, 36671, Note_off_c, 0, 74, 100
1, 36671, Note_on_c, 0, 76, 100
1, 36767, Note_off_c, 0, 76, 100
1, 36767, Note_on_c, 0, 78, 100
1, 36863, Note_off_c, 0, 78, 100
1, 36863, Note_on_c, 0, 79, 100
1, 36959, Note_off_c, 0, 79, 100
1, 36959, Note_on_c, 0, 76, 100
1, 37055, Note_off_c, 0, 76, 100
1, 37055, Note_on_c, 0, 72, 100
1, 37183, Note_off_c, 0, 72, 100
1, 37183, Note_on_c, 0, 69, 100
1, 37279, Note_off_c, 0, 69, 100
1, 37279, Note_on_c, 0, 75, 100
1, 37375, Note_off_c, 0, 75, 100
1, 37375, Note_on_c, 0, 74, 100
1, 37407, Note_off_c, 0, 74, 100
1, 37407, Note_on_c, 0, 73, 100
1, 37439, Note_off_c, 0, 73, 100
1, 37439, Note_on_c, 0, 74, 100
1, 37535, Note_off_c, 0, 74, 100
1, 37535, Note_on_c, 0, 76, 100
1, 37631, Note_off_c, 0, 76, 100
1, 37631, Note_on_c, 0, 78, 100
1, 37746, Note_off_c, 0, 78, 100
1, 37746, Note_on_c, 0, 77, 100
1, 37784, Note_off_c, 0, 77, 100
1, 37784, Note_on_c, 0, 76, 100
1, 37822, Note_off_c, 0, 76, 100
1, 37822, Note_on_c, 0, 78, 100
1, 37950, Note_off_c, 0, 78, 100
1, 37950, Note_on_c, 0, 76, 100
1, 38238, Note_off_c, 0, 76, 100
1, 39166, Note_on_c, 0, 74, 100
1, 39358, Note_off_c, 0, 74, 100
1, 39358, Note_on_c, 0, 67, 100
1, 39422, Note_off_c, 0, 67, 100
1, 39422, Note_on_c, 0, 74, 100
1, 39550, Note_off_c, 0, 74, 100
1, 39550, Note_on_c, 0, 74, 100
1, 39678, Note_off_c, 0, 74, 100
1, 39678, Note_on_c, 0, 70, 100
1, 39790, Note_off_c, 0, 70, 100
1, 39790, Note_on_c, 0, 67, 100
1, 39886, Note_off_c, 0, 67, 100
1, 39886, Note_on_c, 0, 64, 100
1, 39982, Note_off_c, 0, 64, 100
1, 39982, Note_on_c, 0, 69, 100
1, 40078, Note_off_c, 0, 69, 100
1, 40078, Note_on_c, 0, 72, 100
1, 40126, Note_off_c, 0, 72, 100
1, 40126, Note_on_c, 0, 69, 100
1, 40270, Note_off_c, 0, 69, 100
1, 40270, Note_on_c, 0, 70, 100
1, 40318, Note_off_c, 0, 70, 100
1, 40318, Note_on_c, 0, 71, 100
1, 40414, Note_off_c, 0, 71, 100
1, 40414, Note_on_c, 0, 67, 100
1, 40702, Note_off_c, 0, 67, 100
1, 40702, Note_on_c, 0, 67, 100
1, 40846, Note_off_c, 0, 67, 100
1, 40846, Note_on_c, 0, 69, 100
1, 40894, Note_off_c, 0, 69, 100
1, 40894, Note_on_c, 0, 70, 100
1, 40990, Note_off_c, 0, 70, 100
1, 40990, Note_on_c, 0, 67, 100
1, 41182, Note_off_c, 0, 67, 100
1, 41758, Note_on_c, 0, 64, 100
1, 41854, Note_off_c, 0, 64, 100
1, 41854, Note_on_c, 0, 63, 100
1, 41902, Note_off_c, 0, 63, 100
1, 41902, Note_on_c, 0, 61, 100
1, 41998, Note_off_c, 0, 61, 100
1, 41998, Note_on_c, 0, 62, 100
1, 42094, Note_off_c, 0, 62, 100
1, 42094, Note_on_c, 0, 63, 100
1, 42190, Note_off_c, 0, 63, 100
1, 42190, Note_on_c, 0, 62, 100
1, 42238, Note_off_c, 0, 62, 100
1, 42238, Note_on_c, 0, 61, 100
1, 42334, Note_off_c, 0, 61, 100
1, 42334, Note_on_c, 0, 62, 100
1, 42430, Note_off_c, 0, 62, 100
1, 42430, Note_on_c, 0, 67, 100
1, 42558, Note_off_c, 0, 67, 100
1, 42558, Note_on_c, 0, 69, 100
1, 42622, Note_off_c, 0, 69, 100
1, 42622, Note_on_c, 0, 70, 100
1, 42750, Note_off_c, 0, 70, 100
1, 42750, Note_on_c, 0, 67, 100
1, 42814, Note_off_c, 0, 67, 100
1, 42814, Note_on_c, 0, 69, 100
1, 42910, Note_off_c, 0, 69, 100
1, 42910, Note_on_c, 0, 68, 100
1, 43006, Note_off_c, 0, 68, 100
1, 43006, Note_on_c, 0, 67, 100
1, 43102, Note_off_c, 0, 67, 100
1, 43102, Note_on_c, 0, 69, 100
1, 43198, Note_off_c, 0, 69, 100
1, 43198, Note_on_c, 0, 70, 100
1, 43294, Note_off_c, 0, 70, 100
1, 43294, Note_on_c, 0, 72, 100
1, 43438, Note_off_c, 0, 72, 100
1, 43438, Note_on_c, 0, 73, 100
1, 43534, Note_off_c, 0, 73, 100
1, 43534, Note_on_c, 0, 70, 100
1, 43582, Note_off_c, 0, 70, 100
1, 43582, Note_on_c, 0, 72, 100
1, 43678, Note_off_c, 0, 72, 100
1, 43678, Note_on_c, 0, 71, 100
1, 43822, Note_off_c, 0, 71, 100
1, 43822, Note_on_c, 0, 70, 100
1, 43918, Note_off_c, 0, 70, 100
1, 43918, Note_on_c, 0, 67, 100
1, 44014, Note_off_c, 0, 67, 100
1, 44014, Note_on_c, 0, 63, 100
1, 44110, Note_off_c, 0, 63, 100
1, 44110, Note_on_c, 0, 60, 100
1, 44206, Note_off_c, 0, 60, 100
1, 44206, Note_on_c, 0, 65, 100
1, 44302, Note_off_c, 0, 65, 100
1, 44302, Note_on_c, 0, 67, 100
1, 44350, Note_off_c, 0, 67, 100
1, 44350, Note_on_c, 0, 69, 100
1, 44446, Note_off_c, 0, 69, 100
1, 44446, Note_on_c, 0, 67, 100
1, 44542, Note_off_c, 0, 67, 100
1, 44542, Note_on_c, 0, 65, 100
1, 44670, Note_off_c, 0, 65, 100
1, 44670, Note_on_c, 0, 63, 100
1, 44782, Note_off_c, 0, 63, 100
1, 44782, Note_on_c, 0, 60, 100
1, 44878, Note_off_c, 0, 60, 100
1, 44878, Note_on_c, 0, 61, 100
1, 44974, Note_off_c, 0, 61, 100
1, 44974, Note_on_c, 0, 62, 100
1, 45070, Note_off_c, 0, 62, 100
1, 45070, Note_on_c, 0, 60, 100
1, 45166, Note_off_c, 0, 60, 100
1, 45166, Note_on_c, 0, 57, 100
1, 45262, Note_off_c, 0, 57, 100
1, 45262, Note_on_c, 0, 58, 100
1, 45358, Note_off_c, 0, 58, 100
1, 45358, Note_on_c, 0, 59, 100
1, 45454, Note_off_c, 0, 59, 100
1, 45454, Note_on_c, 0, 57, 100
1, 45646, Note_off_c, 0, 57, 100
1, 45646, Note_on_c, 0, 55, 100
1, 45694, Note_off_c, 0, 55, 100
1, 45694, Note_on_c, 0, 56, 100
1, 45886, Note_off_c, 0, 56, 100
1, 45886, Note_on_c, 0, 53, 100
1, 45982, Note_off_c, 0, 53, 100
1, 45982, Note_on_c, 0, 48, 100
1, 46078, Note_off_c, 0, 48, 100
1, 46510, Note_on_c, 0, 63, 100
1, 46558, Note_off_c, 0, 63, 100
1, 46558, Note_on_c, 0, 62, 100
1, 46606, Note_off_c, 0, 62, 100
1, 46606, Note_on_c, 0, 55, 100
1, 46798, Note_off_c, 0, 55, 100
1, 46798, Note_on_c, 0, 62, 100
1, 46846, Note_off_c, 0, 62, 100
1, 46846, Note_on_c, 0, 65, 100
1, 46942, Note_off_c, 0, 65, 100
1, 46942, Note_on_c, 0, 64, 100
1, 47038, Note_off_c, 0, 64, 100
1, 47038, Note_on_c, 0, 62, 100
1, 47166, Note_off_c, 0, 62, 100
1, 47166, Note_on_c, 0, 60, 100
1, 47262, Note_off_c, 0, 60, 100
1, 47806, Note_on_c, 0, 62, 100
1, 47902, Note_off_c, 0, 62, 100
1, 47902, Note_on_c, 0, 61, 100
1, 48046, Note_off_c, 0, 61, 100
1, 48046, Note_on_c, 0, 64, 100
1, 48142, Note_off_c, 0, 64, 100
1, 48142, Note_on_c, 0, 67, 100
1, 48190, Note_off_c, 0, 67, 100
1, 48190, Note_on_c, 0, 71, 100
1, 48286, Note_off_c, 0, 71, 100
1, 48286, Note_on_c, 0, 69, 100
1, 48430, Note_off_c, 0, 69, 100
1, 48430, Note_on_c, 0, 67, 100
1, 48574, Note_off_c, 0, 67, 100
1, 48574, Note_on_c, 0, 69, 100
1, 48670, Note_off_c, 0, 69, 100
1, 48670, Note_on_c, 0, 67, 100
1, 48814, Note_off_c, 0, 67, 100
1, 48814, Note_on_c, 0, 64, 100
1, 48910, Note_off_c, 0, 64, 100
1, 48910, Note_on_c, 0, 63, 100
1, 48958, Note_off_c, 0, 63, 100
1, 48958, Note_on_c, 0, 62, 100
1, 49054, Note_off_c, 0, 62, 100
1, 49054, Note_on_c, 0, 67, 100
1, 49150, Note_off_c, 0, 67, 100
1, 49150, Note_on_c, 0, 66, 100
1, 49246, Note_off_c, 0, 66, 100
1, 49246, Note_on_c, 0, 67, 100
1, 49342, Note_off_c, 0, 67, 100
1, 49342, Note_on_c, 0, 69, 100
1, 49470, Note_off_c, 0, 69, 100
1, 49470, Note_on_c, 0, 67, 100
1, 49678, Note_off_c, 0, 67, 100
1, 49678, Note_on_c, 0, 69, 100
1, 49726, Note_off_c, 0, 69, 100
1, 49726, Note_on_c, 0, 70, 100
1, 49870, Note_off_c, 0, 70, 100
1, 49870, Note_on_c, 0, 74, 100
1, 50206, Note_off_c, 0, 74, 100
1, 50206, Note_on_c, 0, 74, 100
1, 50302, Note_off_c, 0, 74, 100
1, 50302, Note_on_c, 0, 70, 100
1, 50494, Note_off_c, 0, 70, 100
1, 50494, Note_on_c, 0, 65, 100
1, 50622, Note_off_c, 0, 65, 100
1, 50622, Note_on_c, 0, 63, 100
1, 50910, Note_off_c, 0, 63, 100
1, 51262, Note_on_c, 0, 74, 100
1, 51358, Note_off_c, 0, 74, 100
1, 51358, Note_on_c, 0, 69, 100
1, 51454, Note_off_c, 0, 69, 100
1, 51454, Note_on_c, 0, 72, 100
1, 51550, Note_off_c, 0, 72, 100
1, 51550, Note_on_c, 0, 70, 100
1, 51646, Note_off_c, 0, 70, 100
1, 51646, Note_on_c, 0, 69, 100
1, 51742, Note_off_c, 0, 69, 100
1, 51742, Note_on_c, 0, 70, 100
1, 51838, Note_off_c, 0, 70, 100
1, 51838, Note_on_c, 0, 67, 100
1, 51934, Note_off_c, 0, 67, 100
1, 51934, Note_on_c, 0, 69, 100
1, 52030, Note_off_c, 0, 69, 100
1, 52030, Note_on_c, 0, 70, 100
1, 52126, Note_off_c, 0, 70, 100
1, 52126, Note_on_c, 0, 72, 100
1, 52222, Note_off_c, 0, 72, 100
1, 52222, Note_on_c, 0, 74, 100
1, 52318, Note_off_c, 0, 74, 100
1, 52318, Note_on_c, 0, 75, 100
1, 52414, Note_off_c, 0, 75, 100
1, 52414, Note_on_c, 0, 77, 100
1, 52558, Note_off_c, 0, 77, 100
1, 52558, Note_on_c, 0, 77, 100
1, 52702, Note_off_c, 0, 77, 100
1, 52702, Note_on_c, 0, 79, 100
1, 52894, Note_off_c, 0, 79, 100
1, 52894, Note_on_c, 0, 81, 100
1, 52942, Note_off_c, 0, 81, 100
1, 52942, Note_on_c, 0, 82, 100
1, 53086, Note_off_c, 0, 82, 100
1, 53086, Note_on_c, 0, 77, 100
1, 53278, Note_off_c, 0, 77, 100
1, 54238, Note_on_c, 0, 79, 100
1, 54334, Note_off_c, 0, 79, 100
1, 54334, Note_on_c, 0, 78, 100
1, 54382, Note_off_c, 0, 78, 100
1, 54382, Note_on_c, 0, 77, 100
1, 54478, Note_off_c, 0, 77, 100
1, 54478, Note_on_c, 0, 74, 100
1, 54574, Note_off_c, 0, 74, 100
1, 54574, Note_on_c, 0, 75, 100
1, 54670, Note_off_c, 0, 75, 100
1, 54670, Note_on_c, 0, 74, 100
1, 54766, Note_off_c, 0, 74, 100
1, 54766, Note_on_c, 0, 72, 100
1, 54862, Note_off_c, 0, 72, 100
1, 54862, Note_on_c, 0, 73, 100
1, 54958, Note_off_c, 0, 73, 100
1, 54958, Note_on_c, 0, 74, 100
1, 55054, Note_off_c, 0, 74, 100
1, 55054, Note_on_c, 0, 70, 100
1, 55166, Note_off_c, 0, 70, 100
1, 55166, Note_on_c, 0, 65, 100
1, 55342, Note_off_c, 0, 65, 100
1, 55342, Note_on_c, 0, 69, 100
1, 55438, Note_off_c, 0, 69, 100
1, 55438, Note_on_c, 0, 72, 100
1, 55534, Note_off_c, 0, 72, 100
1, 55534, Note_on_c, 0, 71, 100
1, 55630, Note_off_c, 0, 71, 100
1, 55630, Note_on_c, 0, 69, 100
1, 55726, Note_off_c, 0, 69, 100
1, 55726, Note_on_c, 0, 70, 100
1, 55822, Note_off_c, 0, 70, 100
1, 55822, Note_on_c, 0, 65, 100
1, 55870, Note_off_c, 0, 65, 100
1, 55870, Note_on_c, 0, 62, 100
1, 56062, Note_off_c, 0, 62, 100
1, 56062, Note_on_c, 0, 58, 100
1, 56158, Note_off_c, 0, 58, 100
1, 56158, Note_on_c, 0, 67, 100
1, 56254, Note_off_c, 0, 67, 100
1, 56254, Note_on_c, 0, 69, 100
1, 56302, Note_off_c, 0, 69, 100
1, 56302, Note_on_c, 0, 71, 100
1, 56398, Note_off_c, 0, 71, 100
1, 56398, Note_on_c, 0, 72, 100
1, 56494, Note_off_c, 0, 72, 100
1, 56494, Note_on_c, 0, 74, 100
1, 56590, Note_off_c, 0, 74, 100
1, 56590, Note_on_c, 0, 72, 100
1, 56686, Note_off_c, 0, 72, 100
1, 56686, Note_on_c, 0, 69, 100
1, 56782, Note_off_c, 0, 69, 100
1, 56782, Note_on_c, 0, 70, 100
1, 56830, Note_off_c, 0, 70, 100
1, 56830, Note_on_c, 0, 71, 100
1, 56926, Note_off_c, 0, 71, 100
1, 56926, Note_on_c, 0, 67, 100
1, 57070, Note_off_c, 0, 67, 100
1, 57070, Note_on_c, 0, 64, 100
1, 57166, Note_off_c, 0, 64, 100
1, 57166, Note_on_c, 0, 60, 100
1, 57214, Note_off_c, 0, 60, 100
1, 57214, Note_on_c, 0, 70, 100
1, 57310, Note_off_c, 0, 70, 100
1, 57310, Note_on_c, 0, 66, 100
1, 57406, Note_off_c, 0, 66, 100
1, 57406, Note_on_c, 0, 69, 100
1, 57502, Note_off_c, 0, 69, 100
1, 57502, Note_on_c, 0, 67, 100
1, 57598, Note_off_c, 0, 67, 100
1, 57598, Note_on_c, 0, 66, 100
1, 57694, Note_off_c, 0, 66, 100
1, 57694, Note_on_c, 0, 67, 100
1, 57790, Note_off_c, 0, 67, 100
1, 57790, Note_on_c, 0, 64, 100
1, 57886, Note_off_c, 0, 64, 100
1, 57886, Note_on_c, 0, 63, 100
1, 57982, Note_off_c, 0, 63, 100
1, 57982, Note_on_c, 0, 62, 100
1, 58078, Note_off_c, 0, 62, 100
1, 58078, Note_on_c, 0, 60, 100
1, 58174, Note_off_c, 0, 60, 100
1, 58174, Note_on_c, 0, 57, 100
1, 58270, Note_off_c, 0, 57, 100
1, 58270, Note_on_c, 0, 58, 100
1, 58366, Note_off_c, 0, 58, 100
1, 58366, Note_on_c, 0, 59, 100
1, 58702, Note_off_c, 0, 59, 100
1, 58702, Note_on_c, 0, 59, 100
1, 58798, Note_off_c, 0, 59, 100
1, 58798, Note_on_c, 0, 60, 100
1, 58894, Note_off_c, 0, 60, 100
1, 58894, Note_on_c, 0, 59, 100
1, 58942, Note_off_c, 0, 59, 100
1, 58942, Note_on_c, 0, 57, 100
1, 59086, Note_off_c, 0, 57, 100
1, 59086, Note_on_c, 0, 55, 100
1, 59134, Note_off_c, 0, 55, 100
1, 59134, Note_on_c, 0, 59, 100
1, 59230, Note_off_c, 0, 59, 100
1, 59230, Note_on_c, 0, 57, 100
1, 59326, Note_off_c, 0, 57, 100
1, 59326, Note_on_c, 0, 59, 100
1, 59454, Note_off_c, 0, 59, 100
1, 59454, Note_on_c, 0, 57, 100
1, 59646, Note_off_c, 0, 57, 100
1, 60574, Note_on_c, 0, 64, 100
1, 60670, Note_off_c, 0, 64, 100
1, 60670, Note_on_c, 0, 66, 100
1, 60718, Note_off_c, 0, 66, 100
1, 60718, Note_on_c, 0, 70, 100
1, 60814, Note_off_c, 0, 70, 100
1, 60814, Note_on_c, 0, 66, 100
1, 60926, Note_off_c, 0, 66, 100
1, 60926, Note_on_c, 0, 63, 100
1, 60990, Note_off_c, 0, 63, 100
1, 60990, Note_on_c, 0, 60, 100
1, 61102, Note_off_c, 0, 60, 100
1, 61102, Note_on_c, 0, 69, 100
1, 61198, Note_off_c, 0, 69, 100
1, 61198, Note_on_c, 0, 65, 100
1, 61294, Note_off_c, 0, 65, 100
1, 61294, Note_on_c, 0, 61, 100
1, 61390, Note_off_c, 0, 61, 100
1, 61390, Note_on_c, 0, 58, 100
1, 61486, Note_off_c, 0, 58, 100
1, 61486, Note_on_c, 0, 70, 100
1, 61582, Note_off_c, 0, 70, 100
1, 61582, Note_on_c, 0, 66, 100
1, 61630, Note_off_c, 0, 66, 100
1, 61630, Note_on_c, 0, 70, 100
1, 61726, Note_off_c, 0, 70, 100
1, 61726, Note_on_c, 0, 66, 100
1, 61822, Note_off_c, 0, 66, 100
1, 61822, Note_on_c, 0, 69, 100
1, 61918, Note_off_c, 0, 69, 100
1, 61918, Note_on_c, 0, 66, 100
1, 62206, Note_off_c, 0, 66, 100
1, 62206, Note_on_c, 0, 67, 100
1, 62350, Note_off_c, 0, 67, 100
1, 62350, Note_on_c, 0, 71, 100
1, 62446, Note_off_c, 0, 71, 100
1, 63310, Note_on_c, 0, 67, 100
1, 63422, Note_off_c, 0, 67, 100
1, 63422, Note_on_c, 0, 72, 100
1, 63486, Note_off_c, 0, 72, 100
1, 63486, Note_on_c, 0, 71, 100
1, 63518, Note_off_c, 0, 71, 100
1, 63518, Note_on_c, 0, 72, 100
1, 63614, Note_off_c, 0, 72, 100
1, 63614, Note_on_c, 0, 73, 100
1, 63790, Note_off_c, 0, 73, 100
1, 63790, Note_on_c, 0, 74, 100
1, 63934, Note_off_c, 0, 74, 100
1, 63934, Note_on_c, 0, 76, 100
1, 64222, Note_off_c, 0, 76, 100
1, 64222, Note_on_c, 0, 78, 100
1, 64846, Note_off_c, 0, 78, 100
1, 64846, Note_on_c, 0, 76, 100
1, 64942, Note_off_c, 0, 76, 100
1, 64942, Note_on_c, 0, 74, 100
1, 65038, Note_off_c, 0, 74, 100
1, 65038, Note_on_c, 0, 66, 100
1, 65134, Note_off_c, 0, 66, 100
1, 65134, Note_on_c, 0, 67, 100
1, 65278, Note_off_c, 0, 67, 100
1, 65278, Note_on_c, 0, 76, 100
1, 65470, Note_off_c, 0, 76, 100
1, 65470, Note_on_c, 0, 74, 100
1, 65598, Note_off_c, 0, 74, 100
1, 65598, Note_on_c, 0, 72, 100
1, 65694, Note_off_c, 0, 72, 100
1, 66190, Note_on_c, 0, 61, 100
1, 66302, Note_off_c, 0, 61, 100
1, 66302, Note_on_c, 0, 62, 100
1, 66478, Note_off_c, 0, 62, 100
1, 66478, Note_on_c, 0, 72, 100
1, 66574, Note_off_c, 0, 72, 100
1, 66574, Note_on_c, 0, 70, 100
1, 66622, Note_off_c, 0, 70, 100
1, 66622, Note_on_c, 0, 72, 100
1, 66718, Note_off_c, 0, 72, 100
1, 66718, Note_on_c, 0, 70, 100
1, 66862, Note_off_c, 0, 70, 100
1, 66862, Note_on_c, 0, 69, 100
1, 66958, Note_off_c, 0, 69, 100
1, 66958, Note_on_c, 0, 70, 100
1, 67006, Note_off_c, 0, 70, 100
1, 67006, Note_on_c, 0, 69, 100
1, 67102, Note_off_c, 0, 69, 100
1, 67102, Note_on_c, 0, 68, 100
1, 67198, Note_off_c, 0, 68, 100
1, 67198, Note_on_c, 0, 67, 100
1, 67294, Note_off_c, 0, 67, 100
1, 67294, Note_on_c, 0, 69, 100
1, 67438, Note_off_c, 0, 69, 100
1, 67438, Note_on_c, 0, 70, 100
1, 67534, Note_off_c, 0, 70, 100
1, 67534, Note_on_c, 0, 72, 100
1, 67582, Note_off_c, 0, 72, 100
1, 67582, Note_on_c, 0, 74, 100
1, 67678, Note_off_c, 0, 74, 100
1, 67678, Note_on_c, 0, 79, 100
1, 67774, Note_off_c, 0, 79, 100
1, 67774, Note_on_c, 0, 74, 100
1, 67870, Note_off_c, 0, 74, 100
1, 67870, Note_on_c, 0, 72, 100
1, 67966, Note_off_c, 0, 72, 100
1, 67966, Note_on_c, 0, 70, 100
1, 68062, Note_off_c, 0, 70, 100
1, 68062, Note_on_c, 0, 74, 100
1, 68158, Note_off_c, 0, 74, 100
1, 68158, Note_on_c, 0, 70, 100
1, 68254, Note_off_c, 0, 70, 100
1, 68254, Note_on_c, 0, 69, 100
1, 68350, Note_off_c, 0, 69, 100
1, 68350, Note_on_c, 0, 67, 100
1, 68446, Note_off_c, 0, 67, 100
1, 68446, Note_on_c, 0, 70, 100
1, 68542, Note_off_c, 0, 70, 100
1, 68542, Note_on_c, 0, 67, 100
1, 68638, Note_off_c, 0, 67, 100
1, 68638, Note_on_c, 0, 65, 100
1, 68782, Note_off_c, 0, 65, 100
1, 68782, Note_on_c, 0, 63, 100
1, 68878, Note_off_c, 0, 63, 100
1, 68878, Note_on_c, 0, 67, 100
1, 68990, Note_off_c, 0, 67, 100
1, 68990, Note_on_c, 0, 63, 100
1, 69054, Note_off_c, 0, 63, 100
1, 69054, Note_on_c, 0, 62, 100
1, 69166, Note_off_c, 0, 62, 100
1, 69166, Note_on_c, 0, 61, 100
1, 69262, Note_off_c, 0, 61, 100
1, 69262, Note_on_c, 0, 62, 100
1, 69310, Note_off_c, 0, 62, 100
1, 69310, Note_on_c, 0, 63, 100
1, 69406, Note_off_c, 0, 63, 100
1, 69406, Note_on_c, 0, 62, 100
1, 69550, Note_off_c, 0, 62, 100
1, 69550, Note_on_c, 0, 61, 100
1, 69646, Note_off_c, 0, 61, 100
1, 69646, Note_on_c, 0, 62, 100
1, 69742, Note_off_c, 0, 62, 100
1, 69742, Note_on_c, 0, 65, 100
1, 69838, Note_off_c, 0, 65, 100
1, 69838, Note_on_c, 0, 67, 100
1, 69934, Note_off_c, 0, 67, 100
1, 69934, Note_on_c, 0, 69, 100
1, 70030, Note_off_c, 0, 69, 100
1, 70030, Note_on_c, 0, 72, 100
1, 70126, Note_off_c, 0, 72, 100
1, 70126, Note_on_c, 0, 69, 100
1, 70222, Note_off_c, 0, 69, 100
1, 70222, Note_on_c, 0, 67, 100
1, 70318, Note_off_c, 0, 67, 100
1, 70318, Note_on_c, 0, 65, 100
1, 70414, Note_off_c, 0, 65, 100
1, 70414, Note_on_c, 0, 69, 100
1, 70510, Note_off_c, 0, 69, 100
1, 70510, Note_on_c, 0, 65, 100
1, 70606, Note_off_c, 0, 65, 100
1, 70606, Note_on_c, 0, 63, 100
1, 70702, Note_off_c, 0, 63, 100
1, 70702, Note_on_c, 0, 61, 100
1, 70798, Note_off_c, 0, 61, 100
1, 70798, Note_on_c, 0, 62, 100
1, 70910, Note_off_c, 0, 62, 100
1, 70910, Note_on_c, 0, 63, 100
1, 71038, Note_off_c, 0, 63, 100
1, 71038, Note_on_c, 0, 64, 100
1, 71230, Note_off_c, 0, 64, 100
1, 71230, Note_on_c, 0, 64, 100
1, 71326, Note_off_c, 0, 64, 100
1, 71326, Note_on_c, 0, 59, 100
1, 71422, Note_off_c, 0, 59, 100
1, 71950, Note_on_c, 0, 62, 100
1, 71998, Note_off_c, 0, 62, 100
1, 71998, Note_on_c, 0, 60, 100
1, 72062, Note_off_c, 0, 60, 100
1, 72062, Note_on_c, 0, 59, 100
1, 72126, Note_off_c, 0, 59, 100
1, 72126, Note_on_c, 0, 60, 100
1, 72190, Note_off_c, 0, 60, 100
1, 72190, Note_on_c, 0, 63, 100
1, 72238, Note_off_c, 0, 63, 100
1, 72238, Note_on_c, 0, 67, 100
1, 72286, Note_off_c, 0, 67, 100
1, 72286, Note_on_c, 0, 71, 100
1, 72382, Note_off_c, 0, 71, 100
1, 72382, Note_on_c, 0, 69, 100
1, 72430, Note_off_c, 0, 69, 100
1, 72430, Note_on_c, 0, 68, 100
1, 72478, Note_off_c, 0, 68, 100
1, 72478, Note_on_c, 0, 67, 100
1, 72526, Note_off_c, 0, 67, 100
1, 72526, Note_on_c, 0, 69, 100
1, 72574, Note_off_c, 0, 69, 100
1, 72574, Note_on_c, 0, 72, 100
1, 72601, Note_off_c, 0, 72, 100
1, 72601, Note_on_c, 0, 75, 100
1, 72655, Note_off_c, 0, 75, 100
1, 72655, Note_on_c, 0, 72, 100
1, 72737, Note_off_c, 0, 72, 100
1, 72737, Note_on_c, 0, 73, 100
1, 72764, Note_off_c, 0, 73, 100
1, 72764, Note_on_c, 0, 74, 100
1, 72860, Note_off_c, 0, 74, 100
1, 72860, Note_on_c, 0, 69, 100
1, 72908, Note_off_c, 0, 69, 100
1, 72908, Note_on_c, 0, 70, 100
1, 72956, Note_off_c, 0, 70, 100
1, 72956, Note_on_c, 0, 71, 100
1, 73052, Note_off_c, 0, 71, 100
1, 73052, Note_on_c, 0, 67, 100
1, 73148, Note_off_c, 0, 67, 100
1, 73820, Note_on_c, 0, 71, 100
1, 73916, Note_off_c, 0, 71, 100
1, 73916, Note_on_c, 0, 72, 100
1, 74012, Note_off_c, 0, 72, 100
1, 74012, Note_on_c, 0, 73, 100
1, 74108, Note_off_c, 0, 73, 100
1, 74108, Note_on_c, 0, 74, 100
1, 74204, Note_off_c, 0, 74, 100
1, 74204, Note_on_c, 0, 71, 100
1, 74300, Note_off_c, 0, 71, 100
1, 74300, Note_on_c, 0, 72, 100
1, 74396, Note_off_c, 0, 72, 100
1, 74396, Note_on_c, 0, 73, 100
1, 74540, Note_off_c, 0, 73, 100
1, 74540, Note_on_c, 0, 74, 100
1, 74636, Note_off_c, 0, 74, 100
1, 74636, Note_on_c, 0, 74, 100
1, 74684, Note_off_c, 0, 74, 100
1, 74684, Note_on_c, 0, 75, 100
1, 74780, Note_off_c, 0, 75, 100
1, 74780, Note_on_c, 0, 75, 100
1, 74876, Note_off_c, 0, 75, 100
1, 74876, Note_on_c, 0, 76, 100
1, 74972, Note_off_c, 0, 76, 100
1, 74972, Note_on_c, 0, 76, 100
1, 75068, Note_off_c, 0, 76, 100
1, 75068, Note_on_c, 0, 72, 100
1, 75164, Note_off_c, 0, 72, 100
1, 75164, Note_on_c, 0, 72, 100
1, 75260, Note_off_c, 0, 72, 100
1, 75260, Note_on_c, 0, 69, 100
1, 75356, Note_off_c, 0, 69, 100
1, 75356, Note_on_c, 0, 69, 100
1, 75452, Note_off_c, 0, 69, 100
1, 75452, Note_on_c, 0, 70, 100
1, 75644, Note_off_c, 0, 70, 100
1, 75644, Note_on_c, 0, 71, 100
1, 75740, Note_off_c, 0, 71, 100
1, 76076, Note_on_c, 0, 66, 100
1, 76220, Note_off_c, 0, 66, 100
1, 76220, Note_on_c, 0, 64, 100
1, 76268, Note_off_c, 0, 64, 100
1, 76268, Note_on_c, 0, 66, 100
1, 76412, Note_off_c, 0, 66, 100
1, 76412, Note_on_c, 0, 64, 100
1, 76604, Note_off_c, 0, 64, 100
1, 76604, Note_on_c, 0, 69, 100
1, 76796, Note_off_c, 0, 69, 100
1, 77372, Note_on_c, 0, 67, 100
1, 77420, Note_off_c, 0, 67, 100
1, 77420, Note_on_c, 0, 66, 100
1, 77516, Note_off_c, 0, 66, 100
1, 77516, Note_on_c, 0, 67, 100
1, 77612, Note_off_c, 0, 67, 100
1, 77612, Note_on_c, 0, 69, 100
1, 77708, Note_off_c, 0, 69, 100
1, 77708, Note_on_c, 0, 67, 100
1, 77804, Note_off_c, 0, 67, 100
1, 77804, Note_on_c, 0, 66, 100
1, 77900, Note_off_c, 0, 66, 100
1, 77900, Note_on_c, 0, 67, 100
1, 77948, Note_off_c, 0, 67, 100
1, 77948, Note_on_c, 0, 70, 100
1, 78092, Note_off_c, 0, 70, 100
1, 78092, Note_on_c, 0, 74, 100
1, 78140, Note_off_c, 0, 74, 100
1, 78140, Note_on_c, 0, 76, 100
1, 78236, Note_off_c, 0, 76, 100
1, 78236, Note_on_c, 0, 79, 100
1, 78476, Note_off_c, 0, 79, 100
1, 78476, Note_on_c, 0, 76, 100
1, 78524, Note_off_c, 0, 76, 100
1, 78524, Note_on_c, 0, 79, 100
1, 78780, Note_off_c, 0, 79, 100
1, 78780, Note_on_c, 0, 73, 100
1, 78844, Note_off_c, 0, 73, 100
1, 78844, Note_on_c, 0, 76, 100
1, 78940, Note_off_c, 0, 76, 100
1, 80108, Note_on_c, 0, 74, 100
1, 80204, Note_off_c, 0, 74, 100
1, 80204, Note_on_c, 0, 73, 100
1, 80300, Note_off_c, 0, 73, 100
1, 80300, Note_on_c, 0, 72, 100
1, 80396, Note_off_c, 0, 72, 100
1, 80396, Note_on_c, 0, 70, 100
1, 80444, Note_off_c, 0, 70, 100
1, 80444, Note_on_c, 0, 67, 100
1, 80540, Note_off_c, 0, 67, 100
1, 80540, Note_on_c, 0, 64, 100
1, 80684, Note_off_c, 0, 64, 100
1, 80684, Note_on_c, 0, 69, 100
1, 80780, Note_off_c, 0, 69, 100
1, 80780, Note_on_c, 0, 72, 100
1, 80876, Note_off_c, 0, 72, 100
1, 80876, Note_on_c, 0, 71, 100
1, 80972, Note_off_c, 0, 71, 100
1, 80972, Note_on_c, 0, 69, 100
1, 81068, Note_off_c, 0, 69, 100
1, 81068, Note_on_c, 0, 70, 100
1, 81164, Note_off_c, 0, 70, 100
1, 81164, Note_on_c, 0, 67, 100
1, 81260, Note_off_c, 0, 67, 100
1, 81260, Note_on_c, 0, 63, 100
1, 81356, Note_off_c, 0, 63, 100
1, 81356, Note_on_c, 0, 60, 100
1, 81468, Note_off_c, 0, 60, 100
1, 81468, Note_on_c, 0, 68, 100
1, 81596, Note_off_c, 0, 68, 100
1, 81596, Note_on_c, 0, 69, 100
1, 81692, Note_off_c, 0, 69, 100
1, 81692, Note_on_c, 0, 70, 100
1, 81788, Note_off_c, 0, 70, 100
1, 81788, Note_on_c, 0, 71, 100
1, 81884, Note_off_c, 0, 71, 100
1, 81884, Note_on_c, 0, 72, 100
1, 82236, Note_off_c, 0, 72, 100
1, 82236, Note_on_c, 0, 65, 100
1, 82364, Note_off_c, 0, 65, 100
1, 82364, Note_on_c, 0, 62, 100
1, 82412, Note_off_c, 0, 62, 100
1, 82412, Note_on_c, 0, 65, 100
1, 82620, Note_off_c, 0, 65, 100
1, 82620, Note_on_c, 0, 69, 100
1, 82748, Note_off_c, 0, 69, 100
1, 82748, Note_on_c, 0, 65, 100
1, 82812, Note_off_c, 0, 65, 100
1, 82812, Note_on_c, 0, 62, 100
1, 82876, Note_off_c, 0, 62, 100
1, 82876, Note_on_c, 0, 57, 100
1, 82988, Note_off_c, 0, 57, 100
1, 82988, Note_on_c, 0, 59, 100
1, 83084, Note_off_c, 0, 59, 100
1, 83084, Note_on_c, 0, 56, 100
1, 83324, Note_off_c, 0, 56, 100
1, 83324, Note_on_c, 0, 62, 100
1, 83372, Note_off_c, 0, 62, 100
1, 83372, Note_on_c, 0, 67, 100
1, 83468, Note_off_c, 0, 67, 100
1, 83468, Note_on_c, 0, 64, 100
1, 83516, Note_off_c, 0, 64, 100
1, 83516, Note_on_c, 0, 59, 100
1, 83708, Note_off_c, 0, 59, 100
1, 83708, Note_on_c, 0, 55, 100
1, 83756, Note_off_c, 0, 55, 100
1, 83756, Note_on_c, 0, 62, 100
1, 83852, Note_off_c, 0, 62, 100
1, 83852, Note_on_c, 0, 60, 100
1, 84092, Note_off_c, 0, 60, 100
1, 84092, Note_on_c, 0, 64, 100
1, 84156, Note_off_c, 0, 64, 100
1, 84156, Note_on_c, 0, 67, 100
1, 84220, Note_off_c, 0, 67, 100
1, 84220, Note_on_c, 0, 71, 100
1, 84284, Note_off_c, 0, 71, 100
1, 84284, Note_on_c, 0, 69, 100
1, 84476, Note_off_c, 0, 69, 100
1, 85052, Note_on_c, 0, 65, 100
1, 85100, Note_off_c, 0, 65, 100
1, 85100, Note_on_c, 0, 66, 100
1, 85148, Note_off_c, 0, 66, 100
1, 85148, Note_on_c, 0, 69, 100
1, 85196, Note_off_c, 0, 69, 100
1, 85196, Note_on_c, 0, 67, 100
1, 85244, Note_off_c, 0, 67, 100
1, 85244, Note_on_c, 0, 66, 100
1, 85340, Note_off_c, 0, 66, 100
1, 85340, Note_on_c, 0, 67, 100
1, 85436, Note_off_c, 0, 67, 100
1, 85436, Note_on_c, 0, 69, 100
1, 85484, Note_off_c, 0, 69, 100
1, 85484, Note_on_c, 0, 71, 100
1, 85532, Note_off_c, 0, 71, 100
1, 85532, Note_on_c, 0, 72, 100
1, 85628, Note_off_c, 0, 72, 100
1, 85628, Note_on_c, 0, 71, 100
1, 85676, Note_off_c, 0, 71, 100
1, 85676, Note_on_c, 0, 70, 100
1, 85724, Note_off_c, 0, 70, 100
1, 85724, Note_on_c, 0, 71, 100
1, 85820, Note_off_c, 0, 71, 100
1, 85820, Note_on_c, 0, 72, 100
1, 85858, Note_off_c, 0, 72, 100
1, 85858, Note_on_c, 0, 73, 100
1, 85896, Note_off_c, 0, 73, 100
1, 85896, Note_on_c, 0, 74, 100
1, 85972, Note_off_c, 0, 74, 100
1, 85972, Note_on_c, 0, 79, 100
1, 86010, Note_off_c, 0, 79, 100
1, 86010, Note_on_c, 0, 75, 100
1, 86074, Note_off_c, 0, 75, 100
1, 86074, Note_on_c, 0, 70, 100
1, 86138, Note_off_c, 0, 70, 100
1, 86138, Note_on_c, 0, 67, 100
1, 86202, Note_off_c, 0, 67, 100
1, 86202, Note_on_c, 0, 69, 100
1, 86346, Note_off_c, 0, 69, 100
1, 86346, Note_on_c, 0, 68, 100
1, 86394, Note_off_c, 0, 68, 100
1, 86394, Note_on_c, 0, 62, 100
1, 86586, Note_off_c, 0, 62, 100
1, 87258, Note_on_c, 0, 67, 100
1, 87354, Note_off_c, 0, 67, 100
1, 87354, Note_on_c, 0, 70, 100
1, 87450, Note_off_c, 0, 70, 100
1, 87450, Note_on_c, 0, 71, 100
1, 87546, Note_off_c, 0, 71, 100
1, 87546, Note_on_c, 0, 72, 100
1, 87642, Note_off_c, 0, 72, 100
1, 87642, Note_on_c, 0, 75, 100
1, 87738, Note_off_c, 0, 75, 100
1, 87738, Note_on_c, 0, 72, 100
1, 87834, Note_off_c, 0, 72, 100
1, 87834, Note_on_c, 0, 73, 100
1, 87930, Note_off_c, 0, 73, 100
1, 87930, Note_on_c, 0, 74, 100
1, 88026, Note_off_c, 0, 74, 100
1, 88026, Note_on_c, 0, 72, 100
1, 88122, Note_off_c, 0, 72, 100
1, 88122, Note_on_c, 0, 69, 100
1, 88218, Note_off_c, 0, 69, 100
1, 88218, Note_on_c, 0, 67, 100
1, 88314, Note_off_c, 0, 67, 100
1, 88314, Note_on_c, 0, 65, 100
1, 88506, Note_off_c, 0, 65, 100
1, 88506, Note_on_c, 0, 65, 100
1, 88746, Note_off_c, 0, 65, 100
1, 88746, Note_on_c, 0, 67, 100
1, 88842, Note_off_c, 0, 67, 100
1, 88842, Note_on_c, 0, 69, 100
1, 88890, Note_off_c, 0, 69, 100
1, 88890, Note_on_c, 0, 67, 100
1, 88986, Note_off_c, 0, 67, 100
1, 88986, Note_on_c, 0, 65, 100
1, 89082, Note_off_c, 0, 65, 100
1, 89082, Note_on_c, 0, 63, 100
1, 89178, Note_off_c, 0, 63, 100
1, 89178, Note_on_c, 0, 62, 100
1, 89274, Note_off_c, 0, 62, 100
1, 89274, Note_on_c, 0, 61, 100
1, 89466, Note_off_c, 0, 61, 100
1, 89466, Note_on_c, 0, 67, 100
1, 89594, Note_off_c, 0, 67, 100
1, 89594, Note_on_c, 0, 65, 100
1, 89658, Note_off_c, 0, 65, 100
1, 89658, Note_on_c, 0, 62, 100
1, 89754, Note_off_c, 0, 62, 100
1, 89754, Note_on_c, 0, 58, 100
1, 89850, Note_off_c, 0, 58, 100
1, 89850, Note_on_c, 0, 60, 100
1, 89946, Note_off_c, 0, 60, 100
1, 89946, Note_on_c, 0, 62, 100
1, 90042, Note_off_c, 0, 62, 100
1, 90042, Note_on_c, 0, 60, 100
1, 90138, Note_off_c, 0, 60, 100
1, 90138, Note_on_c, 0, 62, 100
1, 90426, Note_off_c, 0, 62, 100
1, 91290, Note_on_c, 0, 62, 100
1, 91386, Note_off_c, 0, 62, 100
1, 91386, Note_on_c, 0, 65, 100
1, 91434, Note_off_c, 0, 65, 100
1, 91434, Note_on_c, 0, 69, 100
1, 91530, Note_off_c, 0, 69, 100
1, 91530, Note_on_c, 0, 67, 100
1, 91626, Note_off_c, 0, 67, 100
1, 91626, Note_on_c, 0, 66, 100
1, 91722, Note_off_c, 0, 66, 100
1, 91722, Note_on_c, 0, 67, 100
1, 91818, Note_off_c, 0, 67, 100
1, 91818, Note_on_c, 0, 70, 100
1, 91914, Note_off_c, 0, 70, 100
1, 91914, Note_on_c, 0, 67, 100
1, 92026, Note_off_c, 0, 67, 100
1, 92026, Note_on_c, 0, 63, 100
1, 92090, Note_off_c, 0, 63, 100
1, 92090, Note_on_c, 0, 60, 100
1, 92154, Note_off_c, 0, 60, 100
1, 92154, Note_on_c, 0, 65, 100
1, 92250, Note_off_c, 0, 65, 100
1, 92250, Note_on_c, 0, 67, 100
1, 92346, Note_off_c, 0, 67, 100
1, 92346, Note_on_c, 0, 65, 100
1, 92394, Note_off_c, 0, 65, 100
1, 92394, Note_on_c, 0, 62, 100
1, 92490, Note_off_c, 0, 62, 100
1, 92490, Note_on_c, 0, 65, 100
1, 92538, Note_off_c, 0, 65, 100
1, 92538, Note_on_c, 0, 70, 100
1, 92634, Note_off_c, 0, 70, 100
1, 92634, Note_on_c, 0, 65, 100
1, 92730, Note_off_c, 0, 65, 100
1, 92730, Note_on_c, 0, 67, 100
1, 92826, Note_off_c, 0, 67, 100
1, 92826, Note_on_c, 0, 70, 100
1, 92874, Note_off_c, 0, 70, 100
1, 92874, Note_on_c, 0, 67, 100
1, 92922, Note_off_c, 0, 67, 100
1, 92922, Note_on_c, 0, 64, 100
1, 93018, Note_off_c, 0, 64, 100
1, 93018, Note_on_c, 0, 67, 100
1, 93114, Note_off_c, 0, 67, 100
1, 93114, Note_on_c, 0, 71, 100
1, 93258, Note_off_c, 0, 71, 100
1, 93258, Note_on_c, 0, 67, 100
1, 93306, Note_off_c, 0, 67, 100
1, 93306, Note_on_c, 0, 69, 100
1, 93402, Note_off_c, 0, 69, 100
1, 93402, Note_on_c, 0, 70, 100
1, 93450, Note_off_c, 0, 70, 100
1, 93450, Note_on_c, 0, 69, 100
1, 93498, Note_off_c, 0, 69, 100
1, 93498, Note_on_c, 0, 66, 100
1, 93642, Note_off_c, 0, 66, 100
1, 93642, Note_on_c, 0, 69, 100
1, 93690, Note_off_c, 0, 69, 100
1, 93690, Note_on_c, 0, 75, 100
1, 93818, Note_off_c, 0, 75, 100
1, 93818, Note_on_c, 0, 73, 100
1, 93882, Note_off_c, 0, 73, 100
1, 93882, Note_on_c, 0, 74, 100
1, 93978, Note_off_c, 0, 74, 100
1, 93978, Note_on_c, 0, 72, 100
1, 94074, Note_off_c, 0, 72, 100
1, 94074, Note_on_c, 0, 69, 100
1, 94202, Note_off_c, 0, 69, 100
1, 94202, Note_on_c, 0, 70, 100
1, 94266, Note_off_c, 0, 70, 100
1, 94266, Note_on_c, 0, 71, 100
1, 94410, Note_off_c, 0, 71, 100
1, 94410, Note_on_c, 0, 67, 100
1, 94506, Note_off_c, 0, 67, 100
1, 94506, Note_on_c, 0, 74, 100
1, 94554, Note_off_c, 0, 74, 100
1, 94554, Note_on_c, 0, 72, 100
1, 94650, Note_off_c, 0, 72, 100
1, 94650, Note_on_c, 0, 73, 100
1, 94794, Note_off_c, 0, 73, 100
1, 94794, Note_on_c, 0, 74, 100
1, 95034, Note_off_c, 0, 74, 100
1, 95034, Note_on_c, 0, 76, 100
1, 95162, Note_off_c, 0, 76, 100
1, 95162, Note_on_c, 0, 78, 100
1, 95274, Note_off_c, 0, 78, 100
1, 95274, Note_on_c, 0, 79, 100
1, 95370, Note_off_c, 0, 79, 100
1, 95370, Note_on_c, 0, 78, 100
1, 95466, Note_off_c, 0, 78, 100
1, 95466, Note_on_c, 0, 76, 100
1, 95562, Note_off_c, 0, 76, 100
1, 95562, Note_on_c, 0, 75, 100
1, 95610, Note_off_c, 0, 75, 100
1, 95610, Note_on_c, 0, 74, 100
1, 95706, Note_off_c, 0, 74, 100
1, 95706, Note_on_c, 0, 71, 100
1, 95802, Note_off_c, 0, 71, 100
1, 95802, Note_on_c, 0, 67, 100
1, 95994, Note_off_c, 0, 67, 100
1, 95994, Note_on_c, 0, 69, 100
1, 96090, Note_off_c, 0, 69, 100
1, 96090, Note_on_c, 0, 71, 100
1, 96186, Note_off_c, 0, 71, 100
1, 96186, Note_on_c, 0, 69, 100
1, 96282, Note_off_c, 0, 69, 100
1, 96282, Note_on_c, 0, 71, 100
1, 96570, Note_off_c, 0, 71, 100
1, 97242, Note_on_c, 0, 75, 100
1, 97386, Note_off_c, 0, 75, 100
1, 97386, Note_on_c, 0, 76, 100
1, 97482, Note_off_c, 0, 76, 100
1, 97482, Note_on_c, 0, 77, 100
1, 97578, Note_off_c, 0, 77, 100
1, 97578, Note_on_c, 0, 78, 100
1, 97674, Note_off_c, 0, 78, 100
1, 97674, Note_on_c, 0, 75, 100
1, 97770, Note_off_c, 0, 75, 100
1, 97770, Note_on_c, 0, 71, 100
1, 97866, Note_off_c, 0, 71, 100
1, 97866, Note_on_c, 0, 68, 100
1, 97914, Note_off_c, 0, 68, 100
1, 97914, Note_on_c, 0, 75, 100
1, 98010, Note_off_c, 0, 75, 100
1, 98010, Note_on_c, 0, 73, 100
1, 98106, Note_off_c, 0, 73, 100
1, 98106, Note_on_c, 0, 75, 100
1, 98202, Note_off_c, 0, 75, 100
1, 98202, Note_on_c, 0, 73, 100
1, 98346, Note_off_c, 0, 73, 100
1, 98346, Note_on_c, 0, 74, 100
1, 98442, Note_off_c, 0, 74, 100
1, 98442, Note_on_c, 0, 72, 100
1, 98490, Note_off_c, 0, 72, 100
1, 98490, Note_on_c, 0, 69, 100
1, 98618, Note_off_c, 0, 69, 100
1, 98618, Note_on_c, 0, 70, 100
1, 98682, Note_off_c, 0, 70, 100
1, 98682, Note_on_c, 0, 71, 100
1, 98778, Note_off_c, 0, 71, 100
1, 98778, Note_on_c, 0, 66, 100
1, 98874, Note_off_c, 0, 66, 100
1, 99114, Note_on_c, 0, 70, 100
1, 99210, Note_off_c, 0, 70, 100
1, 99210, Note_on_c, 0, 66, 100
1, 99258, Note_off_c, 0, 66, 100
1, 99258, Note_on_c, 0, 69, 100
1, 99354, Note_off_c, 0, 69, 100
1, 99354, Note_on_c, 0, 67, 100
1, 99450, Note_off_c, 0, 67, 100
1, 99450, Note_on_c, 0, 66, 100
1, 99546, Note_off_c, 0, 66, 100
1, 99546, Note_on_c, 0, 67, 100
1, 99642, Note_off_c, 0, 67, 100
1, 99642, Note_on_c, 0, 64, 100
1, 99738, Note_off_c, 0, 64, 100
1, 99738, Note_on_c, 0, 63, 100
1, 99834, Note_off_c, 0, 63, 100
1, 99834, Note_on_c, 0, 62, 100
1, 100026, Note_off_c, 0, 62, 100
1, 100026, Note_on_c, 0, 66, 100
1, 100170, Note_off_c, 0, 66, 100
1, 100170, Note_on_c, 0, 67, 100
1, 100218, Note_off_c, 0, 67, 100
1, 100218, Note_on_c, 0, 69, 100
1, 100314, Note_off_c, 0, 69, 100
1, 100314, Note_on_c, 0, 67, 100
1, 100458, Note_off_c, 0, 67, 100
1, 100458, Note_on_c, 0, 66, 100
1, 100554, Note_off_c, 0, 66, 100
1, 100554, Note_on_c, 0, 67, 100
1, 100602, Note_off_c, 0, 67, 100
1, 100602, Note_on_c, 0, 70, 100
1, 100794, Note_off_c, 0, 70, 100
1, 100794, Note_on_c, 0, 74, 100
1, 100842, Note_off_c, 0, 74, 100
1, 100842, Note_on_c, 0, 76, 100
1, 100938, Note_off_c, 0, 76, 100
1, 100938, Note_on_c, 0, 79, 100
1, 101050, Note_off_c, 0, 79, 100
1, 101050, Note_on_c, 0, 81, 100
1, 101178, Note_off_c, 0, 81, 100
1, 101178, Note_on_c, 0, 79, 100
1, 101226, Note_off_c, 0, 79, 100
1, 101226, Note_on_c, 0, 76, 100
1, 101322, Note_off_c, 0, 76, 100
1, 101322, Note_on_c, 0, 74, 100
1, 101418, Note_off_c, 0, 74, 100
1, 101994, Note_on_c, 0, 58, 100
1, 102090, Note_off_c, 0, 58, 100
1, 102090, Note_on_c, 0, 76, 100
1, 102186, Note_off_c, 0, 76, 100
1, 102186, Note_on_c, 0, 74, 100
1, 102378, Note_off_c, 0, 74, 100
1, 102762, Note_on_c, 0, 69, 100
1, 102858, Note_off_c, 0, 69, 100
1, 102858, Note_on_c, 0, 72, 100
1, 102906, Note_off_c, 0, 72, 100
1, 102906, Note_on_c, 0, 70, 100
1, 103146, Note_off_c, 0, 70, 100
1, 103146, Note_on_c, 0, 66, 100
1, 103242, Note_off_c, 0, 66, 100
1, 103242, Note_on_c, 0, 69, 100
1, 103354, Note_off_c, 0, 69, 100
1, 103354, Note_on_c, 0, 67, 100
1, 103578, Note_off_c, 0, 67, 100
1, 103578, Note_on_c, 0, 62, 100
1, 103626, Note_off_c, 0, 62, 100
1, 103626, Note_on_c, 0, 63, 100
1, 103770, Note_off_c, 0, 63, 100
1, 103770, Note_on_c, 0, 67, 100
1, 103962, Note_off_c, 0, 67, 100
1, 103962, Note_on_c, 0, 64, 100
1, 104058, Note_off_c, 0, 64, 100
1, 104058, Note_on_c, 0, 69, 100
1, 104202, Note_off_c, 0, 69, 100
1, 104202, Note_on_c, 0, 64, 100
1, 104250, Note_off_c, 0, 64, 100
1, 104250, Note_on_c, 0, 66, 100
1, 104346, Note_off_c, 0, 66, 100
1, 104346, Note_on_c, 0, 67, 100
1, 104442, Note_off_c, 0, 67, 100
1, 104442, Note_on_c, 0, 69, 100
1, 104538, Note_off_c, 0, 69, 100
1, 104538, Note_on_c, 0, 67, 100
1, 104634, Note_off_c, 0, 67, 100
1, 104634, Note_on_c, 0, 66, 100
1, 104730, Note_off_c, 0, 66, 100
1, 104730, Note_on_c, 0, 64, 100
1, 104826, Note_off_c, 0, 64, 100
1, 104826, Note_on_c, 0, 62, 100
1, 104922, Note_off_c, 0, 62, 100
1, 104922, Note_on_c, 0, 64, 100
1, 104970, Note_off_c, 0, 64, 100
1, 104970, Note_on_c, 0, 62, 100
1, 105018, Note_off_c, 0, 62, 100
1, 105018, Note_on_c, 0, 67, 100
1, 105210, Note_off_c, 0, 67, 100
1, 105210, Note_on_c, 0, 69, 100
1, 105498, Note_off_c, 0, 69, 100
1, 105498, Note_on_c, 0, 65, 100
1, 105546, Note_off_c, 0, 65, 100
1, 105546, Note_on_c, 0, 61, 100
1, 105594, Note_off_c, 0, 61, 100
1, 105594, Note_on_c, 0, 58, 100
1, 105650, Note_off_c, 0, 58, 100
1, 105650, End_track
0, 0, End_of_file
