0, 0, Header, 1, 1, 192
1, 0, Start_track
1, 0, Title_t, "Melody"
1, 0, Tempo, 444444
1, 0, Key_signature, -3, "minor"
1, 0, Time_signature, 4, 2, 24, 8
1, 672, Note_on_c, 0, 68, 100
1, 768, Note_off_c, 0, 68, 100
1, 768, Note_on_c, 0, 67, 100
1, 832, Note_off_c, 0, 67, 100
1, 832, Note_on_c, 0, 68, 100
1, 895, Note_off_c, 0, 68, 100
1, 895, Note_on_c, 0, 67, 100
1, 959, Note_off_c, 0, 67, 100
1, 959, Note_on_c, 0, 68, 100
1, 1007, Note_off_c, 0, 68, 100
1, 1007, Note_on_c, 0, 67, 100
1, 1055, Note_off_c, 0, 67, 100
1, 1055, Note_on_c, 0, 68, 100
1, 1103, Note_off_c, 0, 68, 100
1, 1103, Note_on_c, 0, 67, 100
1, 1151, Note_off_c, 0, 67, 100
1, 1151, Note_on_c, 0, 68, 100
1, 1247, Note_off_c, 0, 68, 100
1, 1247, Note_on_c, 0, 67, 100
1, 1295, Note_off_c, 0, 67, 100
1, 1295, Note_on_c, 0, 68, 100
1, 1391, Note_off_c, 0, 68, 100
1, 1391, Note_on_c, 0, 67, 100
1, 1439, Note_off_c, 0, 67, 100
1, 1439, Note_on_c, 0, 68, 100
1, 1487, Note_off_c, 0, 68, 100
1, 1487, Note_on_c, 0, 67, 100
1, 1583, Note_off_c, 0, 67, 100
1, 1583, Note_on_c, 0, 67, 100
1, 1631, Note_off_c, 0, 67, 100
1, 1631, Note_on_c, 0, 68, 100
1, 1727, Note_off_c, 0, 68, 100
1, 1727, Note_on_c, 0, 67, 100
1, 1823, Note_off_c, 0, 67, 100
1, 1823, Note_on_c, 0, 63, 100
1, 1871, Note_off_c, 0, 63, 100
1, 1871, Note_on_c, 0, 58, 100
1, 1919, Note_off_c, 0, 58, 100
1, 1919, Note_on_c, 0, 63, 100
1, 2207, Note_off_c, 0, 63, 100
1, 3455, Note_on_c, 0, 68, 100
1, 3551, Note_off_c, 0, 68, 100
1, 3551, Note_on_c, 0, 66, 100
1, 3647, Note_off_c, 0, 66, 100
1, 3647, Note_on_c, 0, 68, 100
1, 3695, Note_off_c, 0, 68, 100
1, 3695, Note_on_c, 0, 66, 100
1, 3743, Note_off_c, 0, 66, 100
1, 3743, Note_on_c, 0, 68, 100
1, 3839, Note_off_c, 0, 68, 100
1, 3839, Note_on_c, 0, 66, 100
1, 3903, Note_off_c, 0, 66, 100
1, 3903, Note_on_c, 0, 68, 100
1, 3967, Note_off_c, 0, 68, 100
1, 3967, Note_on_c, 0, 66, 100
1, 4031, Note_off_c, 0, 66, 100
1, 4031, Note_on_c, 0, 68, 100
1, 4095, Note_off_c, 0, 68, 100
1, 4095, Note_on_c, 0, 66, 100
1, 4159, Note_off_c, 0, 66, 100
1, 4159, Note_on_c, 0, 68, 100
1, 4223, Note_off_c, 0, 68, 100
1, 4223, Note_on_c, 0, 66, 100
1, 4319, Note_off_c, 0, 66, 100
1, 4319, Note_on_c, 0, 68, 100
1, 4367, Note_off_c, 0, 68, 100
1, 4367, Note_on_c, 0, 66, 100
1, 4415, Note_off_c, 0, 66, 100
1, 4415, Note_on_c, 0, 68, 100
1, 4511, Note_off_c, 0, 68, 100
1, 4511, Note_on_c, 0, 66, 100
1, 4655, Note_off_c, 0, 66, 100
1, 4655, Note_on_c, 0, 68, 100
1, 4847, Note_off_c, 0, 68, 100
1, 4847, Note_on_c, 0, 66, 100
1, 4895, Note_off_c, 0, 66, 100
1, 4895, Note_on_c, 0, 67, 100
1, 4991, Note_off_c, 0, 67, 100
1, 4991, Note_on_c, 0, 63, 100
1, 5039, Note_off_c, 0, 63, 100
1, 5039, Note_on_c, 0, 58, 100
1, 5087, Note_off_c, 0, 58, 100
1, 5087, Note_on_c, 0, 62, 100
1, 5135, Note_off_c, 0, 62, 100
1, 5135, Note_on_c, 0, 63, 100
1, 5327, Note_off_c, 0, 63, 100
1, 5807, Note_on_c, 0, 73, 100
1, 5855, Note_off_c, 0, 73, 100
1, 5855, Note_on_c, 0, 77, 100
1, 5951, Note_off_c, 0, 77, 100
1, 5951, Note_on_c, 0, 72, 100
1, 5999, Note_off_c, 0, 72, 100
1, 5999, Note_on_c, 0, 70, 100
1, 6095, Note_off_c, 0, 70, 100
1, 6095, Note_on_c, 0, 69, 100
1, 6191, Note_off_c, 0, 69, 100
1, 6191, Note_on_c, 0, 68, 100
1, 6287, Note_off_c, 0, 68, 100
1, 6287, Note_on_c, 0, 72, 100
1, 6383, Note_off_c, 0, 72, 100
1, 6383, Note_on_c, 0, 68, 100
1, 6431, Note_off_c, 0, 68, 100
1, 6431, Note_on_c, 0, 67, 100
1, 6479, Note_off_c, 0, 67, 100
1, 6479, Note_on_c, 0, 64, 100
1, 6575, Note_off_c, 0, 64, 100
1, 6575, Note_on_c, 0, 65, 100
1, 6671, Note_off_c, 0, 65, 100
1, 6671, Note_on_c, 0, 67, 100
1, 6767, Note_off_c, 0, 67, 100
1, 6767, Note_on_c, 0, 68, 100
1, 6863, Note_off_c, 0, 68, 100
1, 6863, Note_on_c, 0, 70, 100
1, 6987, Note_off_c, 0, 70, 100
1, 6987, Note_on_c, 0, 73, 100
1, 7025, Note_off_c, 0, 73, 100
1, 7025, Note_on_c, 0, 74, 100
1, 7063, Note_off_c, 0, 74, 100
1, 7063, Note_on_c, 0, 73, 100
1, 7101, Note_off_c, 0, 73, 100
1, 7101, Note_on_c, 0, 71, 100
1, 7197, Note_off_c, 0, 71, 100
1, 7197, Note_on_c, 0, 65, 100
1, 7229, Note_off_c, 0, 65, 100
1, 7229, Note_on_c, 0, 70, 100
1, 7261, Note_off_c, 0, 70, 100
1, 7261, Note_on_c, 0, 65, 100
1, 7293, Note_off_c, 0, 65, 100
1, 7293, Note_on_c, 0, 62, 100
1, 7389, Note_off_c, 0, 62, 100
1, 7389, Note_on_c, 0, 61, 100
1, 7413, Note_off_c, 0, 61, 100
1, 7413, Note_on_c, 0, 64, 100
1, 7437, Note_off_c, 0, 64, 100
1, 7437, Note_on_c, 0, 61, 100
1, 7461, Note_off_c, 0, 61, 100
1, 7461, Note_on_c, 0, 59, 100
1, 7533, Note_off_c, 0, 59, 100
1, 7533, Note_on_c, 0, 58, 100
1, 7629, Note_off_c, 0, 58, 100
1, 7629, Note_on_c, 0, 56, 100
1, 7677, Note_off_c, 0, 56, 100
1, 7677, Note_on_c, 0, 54, 100
1, 7725, Note_off_c, 0, 54, 100
1, 7725, Note_on_c, 0, 55, 100
1, 7869, Note_off_c, 0, 55, 100
1, 7869, Note_on_c, 0, 60, 100
1, 8013, Note_off_c, 0, 60, 100
1, 8013, Note_on_c, 0, 56, 100
1, 8061, Note_off_c, 0, 56, 100
1, 8061, Note_on_c, 0, 61, 100
1, 8109, Note_off_c, 0, 61, 100
1, 8109, Note_on_c, 0, 63, 100
1, 8205, Note_off_c, 0, 63, 100
1, 8205, Note_on_c, 0, 63, 100
1, 8301, Note_off_c, 0, 63, 100
1, 8637, Note_on_c, 0, 63, 100
1, 8685, Note_off_c, 0, 63, 100
1, 8685, Note_on_c, 0, 63, 100
1, 8733, Note_off_c, 0, 63, 100
1, 8733, Note_on_c, 0, 63, 100
1, 8829, Note_off_c, 0, 63, 100
1, 8829, Note_on_c, 0, 69, 100
1, 8877, Note_off_c, 0, 69, 100
1, 8877, Note_on_c, 0, 70, 100
1, 9789, Note_off_c, 0, 70, 100
1, 9789, Note_on_c, 0, 69, 100
1, 9837, Note_off_c, 0, 69, 100
1, 9837, Note_on_c, 0, 73, 100
1, 9981, Note_off_c, 0, 73, 100
1, 9981, Note_on_c, 0, 69, 100
1, 10077, Note_off_c, 0, 69, 100
1, 10077, Note_on_c, 0, 73, 100
1, 10173, Note_off_c, 0, 73, 100
1, 10173, Note_on_c, 0, 69, 100
1, 10221, Note_off_c, 0, 69, 100
1, 10221, Note_on_c, 0, 73, 100
1, 10365, Note_off_c, 0, 73, 100
1, 10365, Note_on_c, 0, 61, 100
1, 10413, Note_off_c, 0, 61, 100
1, 10413, Note_on_c, 0, 66, 100
1, 10557, Note_off_c, 0, 66, 100
1, 10557, Note_on_c, 0, 61, 100
1, 10605, Note_off_c, 0, 61, 100
1, 10605, Note_on_c, 0, 66, 100
1, 10749, Note_off_c, 0, 66, 100
1, 10749, Note_on_c, 0, 61, 100
1, 10941, Note_off_c, 0, 61, 100
1, 10941, Note_on_c, 0, 61, 100
1, 11085, Note_off_c, 0, 61, 100
1, 11085, Note_on_c, 0, 61, 100
1, 11181, Note_off_c, 0, 61, 100
1, 12131, Note_on_c, 0, 67, 100
1, 12169, Note_off_c, 0, 67, 100
1, 12169, Note_on_c, 0, 64, 100
1, 12207, Note_off_c, 0, 64, 100
1, 12207, Note_on_c, 0, 65, 100
1, 12245, Note_off_c, 0, 65, 100
1, 12245, Note_on_c, 0, 67, 100
1, 12283, Note_off_c, 0, 67, 100
1, 12283, Note_on_c, 0, 68, 100
1, 12379, Note_off_c, 0, 68, 100
1, 13051, Note_on_c, 0, 71, 100
1, 13147, Note_off_c, 0, 71, 100
1, 13147, Note_on_c, 0, 72, 100
1, 13291, Note_off_c, 0, 72, 100
1, 13291, Note_on_c, 0, 77, 100
1, 13387, Note_off_c, 0, 77, 100
1, 13387, Note_on_c, 0, 76, 100
1, 13483, Note_off_c, 0, 76, 100
1, 13483, Note_on_c, 0, 75, 100
1, 13579, Note_off_c, 0, 75, 100
1, 13579, Note_on_c, 0, 72, 100
1, 13665, Note_off_c, 0, 72, 100
1, 13665, Note_on_c, 0, 68, 100
1, 13703, Note_off_c, 0, 68, 100
1, 13703, Note_on_c, 0, 70, 100
1, 13741, Note_off_c, 0, 70, 100
1, 13741, Note_on_c, 0, 68, 100
1, 13779, Note_off_c, 0, 68, 100
1, 13779, Note_on_c, 0, 65, 100
1, 13817, Note_off_c, 0, 65, 100
1, 13817, Note_on_c, 0, 66, 100
1, 13961, Note_off_c, 0, 66, 100
1, 13961, Note_on_c, 0, 73, 100
1, 14009, Note_off_c, 0, 73, 100
1, 14009, Note_on_c, 0, 74, 100
1, 14073, Note_off_c, 0, 74, 100
1, 14073, Note_on_c, 0, 73, 100
1, 14137, Note_off_c, 0, 73, 100
1, 14137, Note_on_c, 0, 72, 100
1, 14201, Note_off_c, 0, 72, 100
1, 14201, Note_on_c, 0, 70, 100
1, 14265, Note_off_c, 0, 70, 100
1, 14265, Note_on_c, 0, 65, 100
1, 14329, Note_off_c, 0, 65, 100
1, 14329, Note_on_c, 0, 68, 100
1, 14393, Note_off_c, 0, 68, 100
1, 14393, Note_on_c, 0, 67, 100
1, 14489, Note_off_c, 0, 67, 100
1, 14489, Note_on_c, 0, 65, 100
1, 14585, Note_off_c, 0, 65, 100
1, 14585, Note_on_c, 0, 62, 100
1, 14681, Note_off_c, 0, 62, 100
1, 14681, Note_on_c, 0, 63, 100
1, 14777, Note_off_c, 0, 63, 100
1, 14777, Note_on_c, 0, 64, 100
1, 14841, Note_off_c, 0, 64, 100
1, 14841, Note_on_c, 0, 67, 100
1, 14905, Note_off_c, 0, 67, 100
1, 14905, Note_on_c, 0, 70, 100
1, 15017, Note_off_c, 0, 70, 100
1, 15017, Note_on_c, 0, 73, 100
1, 15113, Note_off_c, 0, 73, 100
1, 15113, Note_on_c, 0, 72, 100
1, 15161, Note_off_c, 0, 72, 100
1, 15161, Note_on_c, 0, 66, 100
1, 15305, Note_off_c, 0, 66, 100
1, 15305, Note_on_c, 0, 63, 100
1, 15353, Note_off_c, 0, 63, 100
1, 15353, Note_on_c, 0, 64, 100
1, 15385, Note_off_c, 0, 64, 100
1, 15385, Note_on_c, 0, 65, 100
1, 15417, Note_off_c, 0, 65, 100
1, 15417, Note_on_c, 0, 67, 100
1, 15481, Note_off_c, 0, 67, 100
1, 15481, Note_on_c, 0, 71, 100
1, 15593, Note_off_c, 0, 71, 100
1, 15593, Note_on_c, 0, 72, 100
1, 15689, Note_off_c, 0, 72, 100
1, 15689, Note_on_c, 0, 68, 100
1, 15775, Note_off_c, 0, 68, 100
1, 15775, Note_on_c, 0, 68, 100
1, 15813, Note_off_c, 0, 68, 100
1, 15813, Note_on_c, 0, 67, 100
1, 15851, Note_off_c, 0, 67, 100
1, 15851, Note_on_c, 0, 66, 100
1, 15889, Note_off_c, 0, 66, 100
1, 15889, Note_on_c, 0, 65, 100
1, 15982, Note_off_c, 0, 65, 100
1, 15982, Note_on_c, 0, 73, 100
1, 16009, Note_off_c, 0, 73, 100
1, 16009, Note_on_c, 0, 74, 100
1, 16036, Note_off_c, 0, 74, 100
1, 16036, Note_on_c, 0, 73, 100
1, 16090, Note_off_c, 0, 73, 100
1, 16090, Note_on_c, 0, 71, 100
1, 16165, Note_off_c, 0, 71, 100
1, 16165, Note_on_c, 0, 70, 100
1, 16261, Note_off_c, 0, 70, 100
1, 16261, Note_on_c, 0, 69, 100
1, 16309, Note_off_c, 0, 69, 100
1, 16309, Note_on_c, 0, 68, 100
1, 16405, Note_off_c, 0, 68, 100
1, 16405, Note_on_c, 0, 72, 100
1, 16501, Note_off_c, 0, 72, 100
1, 16501, Note_on_c, 0, 67, 100
1, 16597, Note_off_c, 0, 67, 100
1, 16597, Note_on_c, 0, 65, 100
1, 16693, Note_off_c, 0, 65, 100
1, 16693, Note_on_c, 0, 69, 100
1, 16741, Note_off_c, 0, 69, 100
1, 16741, Note_on_c, 0, 70, 100
1, 17269, Note_off_c, 0, 70, 100
1, 17269, Note_on_c, 0, 75, 100
1, 17333, Note_off_c, 0, 75, 100
1, 17333, Note_on_c, 0, 70, 100
1, 17397, Note_off_c, 0, 70, 100
1, 17397, Note_on_c, 0, 65, 100
1, 17461, Note_off_c, 0, 65, 100
1, 17461, Note_on_c, 0, 70, 100
1, 17557, Note_off_c, 0, 70, 100
1, 18421, Note_on_c, 0, 70, 100
1, 18459, Note_off_c, 0, 70, 100
1, 18459, Note_on_c, 0, 72, 100
1, 18497, Note_off_c, 0, 72, 100
1, 18497, Note_on_c, 0, 70, 100
1, 18535, Note_off_c, 0, 70, 100
1, 18535, Note_on_c, 0, 69, 100
1, 18573, Note_off_c, 0, 69, 100
1, 18573, Note_on_c, 0, 70, 100
1, 18643, Note_off_c, 0, 70, 100
1, 18643, Note_on_c, 0, 71, 100
1, 18675, Note_off_c, 0, 71, 100
1, 18675, Note_on_c, 0, 72, 100
1, 18707, Note_off_c, 0, 72, 100
1, 18707, Note_on_c, 0, 73, 100
1, 18739, Note_off_c, 0, 73, 100
1, 18739, Note_on_c, 0, 77, 100
1, 18771, Note_off_c, 0, 77, 100
1, 18771, Note_on_c, 0, 74, 100
1, 18803, Note_off_c, 0, 74, 100
1, 18803, Note_on_c, 0, 75, 100
1, 18851, Note_off_c, 0, 75, 100
1, 18851, Note_on_c, 0, 70, 100
1, 18899, Note_off_c, 0, 70, 100
1, 18899, Note_on_c, 0, 69, 100
1, 18947, Note_off_c, 0, 69, 100
1, 18947, Note_on_c, 0, 68, 100
1, 18995, Note_off_c, 0, 68, 100
1, 18995, Note_on_c, 0, 67, 100
1, 19043, Note_off_c, 0, 67, 100
1, 19043, Note_on_c, 0, 66, 100
1, 19091, Note_off_c, 0, 66, 100
1, 19091, Note_on_c, 0, 65, 100
1, 19139, Note_off_c, 0, 65, 100
1, 19139, Note_on_c, 0, 64, 100
1, 19187, Note_off_c, 0, 64, 100
1, 19187, Note_on_c, 0, 63, 100
1, 19235, Note_off_c, 0, 63, 100
1, 19235, Note_on_c, 0, 59, 100
1, 19283, Note_off_c, 0, 59, 100
1, 19283, Note_on_c, 0, 63, 100
1, 19331, Note_off_c, 0, 63, 100
1, 19331, Note_on_c, 0, 67, 100
1, 19379, Note_off_c, 0, 67, 100
1, 19379, Note_on_c, 0, 64, 100
1, 19417, Note_off_c, 0, 64, 100
1, 19417, Note_on_c, 0, 62, 100
1, 19455, Note_off_c, 0, 62, 100
1, 19455, Note_on_c, 0, 63, 100
1, 19493, Note_off_c, 0, 63, 100
1, 19493, Note_on_c, 0, 64, 100
1, 19531, Note_off_c, 0, 64, 100
1, 19531, Note_on_c, 0, 67, 100
1, 19569, Note_off_c, 0, 67, 100
1, 19569, Note_on_c, 0, 65, 100
1, 19607, Note_off_c, 0, 65, 100
1, 19607, Note_on_c, 0, 67, 100
1, 19645, Note_off_c, 0, 67, 100
1, 19645, Note_on_c, 0, 68, 100
1, 19683, Note_off_c, 0, 68, 100
1, 19683, Note_on_c, 0, 65, 100
1, 19759, Note_off_c, 0, 65, 100
1, 19759, Note_on_c, 0, 66, 100
1, 19797, Note_off_c, 0, 66, 100
1, 19797, Note_on_c, 0, 68, 100
1, 19835, Note_off_c, 0, 68, 100
1, 19835, Note_on_c, 0, 74, 100
1, 19873, Note_off_c, 0, 74, 100
1, 19873, Note_on_c, 0, 72, 100
1, 19911, Note_off_c, 0, 72, 100
1, 19911, Note_on_c, 0, 71, 100
1, 19949, Note_off_c, 0, 71, 100
1, 19949, Note_on_c, 0, 70, 100
1, 19997, Note_off_c, 0, 70, 100
1, 19997, Note_on_c, 0, 68, 100
1, 20045, Note_off_c, 0, 68, 100
1, 20045, Note_on_c, 0, 67, 100
1, 20093, Note_off_c, 0, 67, 100
1, 20093, Note_on_c, 0, 65, 100
1, 20141, Note_off_c, 0, 65, 100
1, 20141, Note_on_c, 0, 63, 100
1, 20189, Note_off_c, 0, 63, 100
1, 20189, Note_on_c, 0, 64, 100
1, 20237, Note_off_c, 0, 64, 100
1, 20237, Note_on_c, 0, 65, 100
1, 20285, Note_off_c, 0, 65, 100
1, 20285, Note_on_c, 0, 61, 100
1, 20381, Note_off_c, 0, 61, 100
1, 20381, Note_on_c, 0, 58, 100
1, 20429, Note_off_c, 0, 58, 100
1, 20429, Note_on_c, 0, 57, 100
1, 20525, Note_off_c, 0, 57, 100
1, 20525, Note_on_c, 0, 60, 100
1, 20563, Note_off_c, 0, 60, 100
1, 20563, Note_on_c, 0, 57, 100
1, 20601, Note_off_c, 0, 57, 100
1, 20601, Note_on_c, 0, 58, 100
1, 20639, Note_off_c, 0, 58, 100
1, 20639, Note_on_c, 0, 61, 100
1, 20677, Note_off_c, 0, 61, 100
1, 20677, Note_on_c, 0, 62, 100
1, 20715, Note_off_c, 0, 62, 100
1, 20715, Note_on_c, 0, 63, 100
1, 20753, Note_off_c, 0, 63, 100
1, 20753, Note_on_c, 0, 64, 100
1, 20791, Note_off_c, 0, 64, 100
1, 20791, Note_on_c, 0, 65, 100
1, 20829, Note_off_c, 0, 65, 100
1, 20829, Note_on_c, 0, 68, 100
1, 20867, Note_off_c, 0, 68, 100
1, 20867, Note_on_c, 0, 72, 100
1, 20953, Note_off_c, 0, 72, 100
1, 20953, Note_on_c, 0, 69, 100
1, 21001, Note_off_c, 0, 69, 100
1, 21001, Note_on_c, 0, 70, 100
1, 21049, Note_off_c, 0, 70, 100
1, 21049, Note_on_c, 0, 68, 100
1, 21097, Note_off_c, 0, 68, 100
1, 21097, Note_on_c, 0, 67, 100
1, 21145, Note_off_c, 0, 67, 100
1, 21145, Note_on_c, 0, 65, 100
1, 21193, Note_off_c, 0, 65, 100
1, 21193, Note_on_c, 0, 64, 100
1, 21217, Note_off_c, 0, 64, 100
1, 21217, Note_on_c, 0, 65, 100
1, 21241, Note_off_c, 0, 65, 100
1, 21241, Note_on_c, 0, 64, 100
1, 21265, Note_off_c, 0, 64, 100
1, 21265, Note_on_c, 0, 62, 100
1, 21289, Note_off_c, 0, 62, 100
1, 21289, Note_on_c, 0, 64, 100
1, 21327, Note_off_c, 0, 64, 100
1, 21327, Note_on_c, 0, 65, 100
1, 21365, Note_off_c, 0, 65, 100
1, 21365, Note_on_c, 0, 67, 100
1, 21403, Note_off_c, 0, 67, 100
1, 21403, Note_on_c, 0, 68, 100
1, 21441, Note_off_c, 0, 68, 100
1, 21441, Note_on_c, 0, 70, 100
1, 21527, Note_off_c, 0, 70, 100
1, 21527, Note_on_c, 0, 67, 100
1, 21575, Note_off_c, 0, 67, 100
1, 21575, Note_on_c, 0, 68, 100
1, 21623, Note_off_c, 0, 68, 100
1, 21623, Note_on_c, 0, 70, 100
1, 21671, Note_off_c, 0, 70, 100
1, 21671, Note_on_c, 0, 71, 100
1, 21709, Note_off_c, 0, 71, 100
1, 21709, Note_on_c, 0, 72, 100
1, 21747, Note_off_c, 0, 72, 100
1, 21747, Note_on_c, 0, 77, 100
1, 21785, Note_off_c, 0, 77, 100
1, 21785, Note_on_c, 0, 76, 100
1, 21861, Note_off_c, 0, 76, 100
1, 21861, Note_on_c, 0, 75, 100
1, 21909, Note_off_c, 0, 75, 100
1, 21909, Note_on_c, 0, 73, 100
1, 22005, Note_off_c, 0, 73, 100
1, 22005, Note_on_c, 0, 71, 100
1, 22053, Note_off_c, 0, 71, 100
1, 22053, Note_on_c, 0, 72, 100
1, 22085, Note_off_c, 0, 72, 100
1, 22085, Note_on_c, 0, 71, 100
1, 22117, Note_off_c, 0, 71, 100
1, 22117, Note_on_c, 0, 68, 100
1, 22181, Note_off_c, 0, 68, 100
1, 22181, Note_on_c, 0, 67, 100
1, 22213, Note_off_c, 0, 67, 100
1, 22213, Note_on_c, 0, 65, 100
1, 22245, Note_off_c, 0, 65, 100
1, 22245, Note_on_c, 0, 70, 100
1, 22293, Note_off_c, 0, 70, 100
1, 22293, Note_on_c, 0, 67, 100
1, 22341, Note_off_c, 0, 67, 100
1, 22341, Note_on_c, 0, 68, 100
1, 22389, Note_off_c, 0, 68, 100
1, 22389, Note_on_c, 0, 70, 100
1, 22437, Note_off_c, 0, 70, 100
1, 22437, Note_on_c, 0, 72, 100
1, 22533, Note_off_c, 0, 72, 100
1, 22533, Note_on_c, 0, 68, 100
1, 22629, Note_off_c, 0, 68, 100
1, 23013, Note_on_c, 0, 79, 100
1, 23077, Note_off_c, 0, 79, 100
1, 23077, Note_on_c, 0, 80, 100
1, 23141, Note_off_c, 0, 80, 100
1, 23141, Note_on_c, 0, 78, 100
1, 23205, Note_off_c, 0, 78, 100
1, 23205, Note_on_c, 0, 79, 100
1, 23253, Note_off_c, 0, 79, 100
1, 23253, Note_on_c, 0, 76, 100
1, 23301, Note_off_c, 0, 76, 100
1, 23301, Note_on_c, 0, 77, 100
1, 23349, Note_off_c, 0, 77, 100
1, 23349, Note_on_c, 0, 75, 100
1, 23397, Note_off_c, 0, 75, 100
1, 23397, Note_on_c, 0, 74, 100
1, 23429, Note_off_c, 0, 74, 100
1, 23429, Note_on_c, 0, 73, 100
1, 23461, Note_off_c, 0, 73, 100
1, 23461, Note_on_c, 0, 72, 100
1, 23493, Note_off_c, 0, 72, 100
1, 23493, Note_on_c, 0, 74, 100
1, 23525, Note_off_c, 0, 74, 100
1, 23525, Note_on_c, 0, 72, 100
1, 23557, Note_off_c, 0, 72, 100
1, 23557, Note_on_c, 0, 71, 100
1, 23589, Note_off_c, 0, 71, 100
1, 23589, Note_on_c, 0, 70, 100
1, 23627, Note_off_c, 0, 70, 100
1, 23627, Note_on_c, 0, 68, 100
1, 23665, Note_off_c, 0, 68, 100
1, 23665, Note_on_c, 0, 65, 100
1, 23703, Note_off_c, 0, 65, 100
1, 23703, Note_on_c, 0, 66, 100
1, 23741, Note_off_c, 0, 66, 100
1, 23741, Note_on_c, 0, 67, 100
1, 23779, Note_off_c, 0, 67, 100
1, 23779, Note_on_c, 0, 63, 100
1, 23827, Note_off_c, 0, 63, 100
1, 23827, Note_on_c, 0, 60, 100
1, 23875, Note_off_c, 0, 60, 100
1, 23875, Note_on_c, 0, 58, 100
1, 23923, Note_off_c, 0, 58, 100
1, 23923, Note_on_c, 0, 65, 100
1, 24019, Note_off_c, 0, 65, 100
1, 24019, Note_on_c, 0, 62, 100
1, 24067, Note_off_c, 0, 62, 100
1, 24067, Note_on_c, 0, 63, 100
1, 24115, Note_off_c, 0, 63, 100
1, 24115, Note_on_c, 0, 65, 100
1, 24163, Note_off_c, 0, 65, 100
1, 24163, Note_on_c, 0, 67, 100
1, 24201, Note_off_c, 0, 67, 100
1, 24201, Note_on_c, 0, 68, 100
1, 24239, Note_off_c, 0, 68, 100
1, 24239, Note_on_c, 0, 67, 100
1, 24277, Note_off_c, 0, 67, 100
1, 24277, Note_on_c, 0, 65, 100
1, 24315, Note_off_c, 0, 65, 100
1, 24315, Note_on_c, 0, 64, 100
1, 24401, Note_off_c, 0, 64, 100
1, 24401, Note_on_c, 0, 68, 100
1, 24449, Note_off_c, 0, 68, 100
1, 24449, Note_on_c, 0, 67, 100
1, 24497, Note_off_c, 0, 67, 100
1, 24497, Note_on_c, 0, 64, 100
1, 24545, Note_off_c, 0, 64, 100
1, 24545, Note_on_c, 0, 65, 100
1, 24593, Note_off_c, 0, 65, 100
1, 24593, Note_on_c, 0, 67, 100
1, 24641, Note_off_c, 0, 67, 100
1, 24641, Note_on_c, 0, 68, 100
1, 24689, Note_off_c, 0, 68, 100
1, 24689, Note_on_c, 0, 70, 100
1, 24737, Note_off_c, 0, 70, 100
1, 24737, Note_on_c, 0, 72, 100
1, 24801, Note_off_c, 0, 72, 100
1, 24801, Note_on_c, 0, 75, 100
1, 24865, Note_off_c, 0, 75, 100
1, 24865, Note_on_c, 0, 79, 100
1, 24929, Note_off_c, 0, 79, 100
1, 24929, Note_on_c, 0, 76, 100
1, 24993, Note_off_c, 0, 76, 100
1, 24993, Note_on_c, 0, 77, 100
1, 25057, Note_off_c, 0, 77, 100
1, 25057, Note_on_c, 0, 75, 100
1, 25121, Note_off_c, 0, 75, 100
1, 25121, Note_on_c, 0, 74, 100
1, 25153, Note_off_c, 0, 74, 100
1, 25153, Note_on_c, 0, 73, 100
1, 25185, Note_off_c, 0, 73, 100
1, 25185, Note_on_c, 0, 72, 100
1, 25217, Note_off_c, 0, 72, 100
1, 25217, Note_on_c, 0, 73, 100
1, 25249, Note_off_c, 0, 73, 100
1, 25249, Note_on_c, 0, 72, 100
1, 25281, Note_off_c, 0, 72, 100
1, 25281, Note_on_c, 0, 71, 100
1, 25313, Note_off_c, 0, 71, 100
1, 25313, Note_on_c, 0, 70, 100
1, 25361, Note_off_c, 0, 70, 100
1, 25361, Note_on_c, 0, 69, 100
1, 25409, Note_off_c, 0, 69, 100
1, 25409, Note_on_c, 0, 68, 100
1, 25457, Note_off_c, 0, 68, 100
1, 25457, Note_on_c, 0, 67, 100
1, 25505, Note_off_c, 0, 67, 100
1, 25505, Note_on_c, 0, 65, 100
1, 25543, Note_off_c, 0, 65, 100
1, 25543, Note_on_c, 0, 63, 100
1, 25581, Note_off_c, 0, 63, 100
1, 25581, Note_on_c, 0, 62, 100
1, 25619, Note_off_c, 0, 62, 100
1, 25619, Note_on_c, 0, 65, 100
1, 25657, Note_off_c, 0, 65, 100
1, 25657, Note_on_c, 0, 67, 100
1, 25695, Note_off_c, 0, 67, 100
1, 25695, Note_on_c, 0, 73, 100
1, 25733, Note_off_c, 0, 73, 100
1, 25733, Note_on_c, 0, 74, 100
1, 25771, Note_off_c, 0, 74, 100
1, 25771, Note_on_c, 0, 73, 100
1, 25809, Note_off_c, 0, 73, 100
1, 25809, Note_on_c, 0, 71, 100
1, 25847, Note_off_c, 0, 71, 100
1, 25847, Note_on_c, 0, 66, 100
1, 25933, Note_off_c, 0, 66, 100
1, 25933, Note_on_c, 0, 62, 100
1, 25981, Note_off_c, 0, 62, 100
1, 25981, Note_on_c, 0, 59, 100
1, 26029, Note_off_c, 0, 59, 100
1, 26029, Note_on_c, 0, 57, 100
1, 26077, Note_off_c, 0, 57, 100
1, 26077, Note_on_c, 0, 58, 100
1, 26109, Note_off_c, 0, 58, 100
1, 26109, Note_on_c, 0, 62, 100
1, 26141, Note_off_c, 0, 62, 100
1, 26141, Note_on_c, 0, 61, 100
1, 26173, Note_off_c, 0, 61, 100
1, 26173, Note_on_c, 0, 59, 100
1, 26205, Note_off_c, 0, 59, 100
1, 26205, Note_on_c, 0, 53, 100
1, 26237, Note_off_c, 0, 53, 100
1, 26237, Note_on_c, 0, 54, 100
1, 26269, Note_off_c, 0, 54, 100
1, 26269, Note_on_c, 0, 58, 100
1, 26293, Note_off_c, 0, 58, 100
1, 26293, Note_on_c, 0, 60, 100
1, 26317, Note_off_c, 0, 60, 100
1, 26317, Note_on_c, 0, 62, 100
1, 26341, Note_off_c, 0, 62, 100
1, 26341, Note_on_c, 0, 65, 100
1, 26413, Note_off_c, 0, 65, 100
1, 26413, Note_on_c, 0, 62, 100
1, 26461, Note_off_c, 0, 62, 100
1, 26461, Note_on_c, 0, 63, 100
1, 26509, Note_off_c, 0, 63, 100
1, 26509, Note_on_c, 0, 65, 100
1, 26557, Note_off_c, 0, 65, 100
1, 26557, Note_on_c, 0, 67, 100
1, 26605, Note_off_c, 0, 67, 100
1, 26605, Note_on_c, 0, 68, 100
1, 26653, Note_off_c, 0, 68, 100
1, 26653, Note_on_c, 0, 74, 100
1, 26691, Note_off_c, 0, 74, 100
1, 26691, Note_on_c, 0, 72, 100
1, 26729, Note_off_c, 0, 72, 100
1, 26729, Note_on_c, 0, 71, 100
1, 26767, Note_off_c, 0, 71, 100
1, 26767, Note_on_c, 0, 70, 100
1, 26805, Note_off_c, 0, 70, 100
1, 26805, Note_on_c, 0, 69, 100
1, 26843, Note_off_c, 0, 69, 100
1, 26843, Note_on_c, 0, 68, 100
1, 26891, Note_off_c, 0, 68, 100
1, 26891, Note_on_c, 0, 67, 100
1, 26939, Note_off_c, 0, 67, 100
1, 26939, Note_on_c, 0, 65, 100
1, 26987, Note_off_c, 0, 65, 100
1, 26987, Note_on_c, 0, 63, 100
1, 27083, Note_off_c, 0, 63, 100
1, 27083, Note_on_c, 0, 65, 100
1, 27131, Note_off_c, 0, 65, 100
1, 27131, Note_on_c, 0, 68, 100
1, 27179, Note_off_c, 0, 68, 100
1, 27179, Note_on_c, 0, 71, 100
1, 27275, Note_off_c, 0, 71, 100
1, 27275, Note_on_c, 0, 68, 100
1, 27323, Note_off_c, 0, 68, 100
1, 27323, Note_on_c, 0, 69, 100
1, 27371, Note_off_c, 0, 69, 100
1, 27371, Note_on_c, 0, 70, 100
1, 27467, Note_off_c, 0, 70, 100
1, 27467, Note_on_c, 0, 70, 100
1, 27563, Note_off_c, 0, 70, 100
1, 27563, Note_on_c, 0, 70, 100
1, 27611, Note_off_c, 0, 70, 100
1, 27611, Note_on_c, 0, 70, 100
1, 27659, Note_off_c, 0, 70, 100
1, 27659, Note_on_c, 0, 71, 100
1, 27707, Note_off_c, 0, 71, 100
1, 27707, Note_on_c, 0, 72, 100
1, 27755, Note_off_c, 0, 72, 100
1, 27755, Note_on_c, 0, 72, 100
1, 27835, Note_off_c, 0, 72, 100
1, 27835, Note_on_c, 0, 71, 100
1, 27867, Note_off_c, 0, 71, 100
1, 27867, Note_on_c, 0, 72, 100
1, 27899, Note_off_c, 0, 72, 100
1, 27899, Note_on_c, 0, 72, 100
1, 27931, Note_off_c, 0, 72, 100
1, 27931, Note_on_c, 0, 72, 100
1, 27963, Note_off_c, 0, 72, 100
1, 27963, Note_on_c, 0, 72, 100
1, 28091, Note_off_c, 0, 72, 100
1, 28091, Note_on_c, 0, 72, 100
1, 28187, Note_off_c, 0, 72, 100
1, 28187, Note_on_c, 0, 79, 100
1, 28417, Note_off_c, 0, 79, 100
1, 28417, Note_on_c, 0, 71, 100
1, 28455, Note_off_c, 0, 71, 100
1, 28455, Note_on_c, 0, 72, 100
1, 28493, Note_off_c, 0, 72, 100
1, 28493, Note_on_c, 0, 71, 100
1, 28531, Note_off_c, 0, 71, 100
1, 28531, Note_on_c, 0, 72, 100
1, 28569, Note_off_c, 0, 72, 100
1, 28569, Note_on_c, 0, 72, 100
1, 28617, Note_off_c, 0, 72, 100
1, 28617, Note_on_c, 0, 72, 100
1, 28665, Note_off_c, 0, 72, 100
1, 28665, Note_on_c, 0, 72, 100
1, 28713, Note_off_c, 0, 72, 100
1, 28713, Note_on_c, 0, 72, 100
1, 28809, Note_off_c, 0, 72, 100
1, 28809, Note_on_c, 0, 75, 100
1, 28905, Note_off_c, 0, 75, 100
1, 28905, Note_on_c, 0, 78, 100
1, 29001, Note_off_c, 0, 78, 100
1, 29385, Note_on_c, 0, 79, 100
1, 29433, Note_off_c, 0, 79, 100
1, 29433, Note_on_c, 0, 80, 100
1, 29481, Note_off_c, 0, 80, 100
1, 29481, Note_on_c, 0, 76, 100
1, 29529, Note_off_c, 0, 76, 100
1, 29529, Note_on_c, 0, 79, 100
1, 29577, Note_off_c, 0, 79, 100
1, 29577, Note_on_c, 0, 76, 100
1, 29625, Note_off_c, 0, 76, 100
1, 29625, Note_on_c, 0, 77, 100
1, 29673, Note_off_c, 0, 77, 100
1, 29673, Note_on_c, 0, 75, 100
1, 29721, Note_off_c, 0, 75, 100
1, 29721, Note_on_c, 0, 74, 100
1, 29759, Note_off_c, 0, 74, 100
1, 29759, Note_on_c, 0, 72, 100
1, 29797, Note_off_c, 0, 72, 100
1, 29797, Note_on_c, 0, 71, 100
1, 29835, Note_off_c, 0, 71, 100
1, 29835, Note_on_c, 0, 69, 100
1, 29873, Note_off_c, 0, 69, 100
1, 29873, Note_on_c, 0, 70, 100
1, 29911, Note_off_c, 0, 70, 100
1, 29911, Note_on_c, 0, 72, 100
1, 29945, Note_off_c, 0, 72, 100
1, 29945, Note_on_c, 0, 73, 100
1, 29997, Note_off_c, 0, 73, 100
1, 29997, Note_on_c, 0, 75, 100
1, 30031, Note_off_c, 0, 75, 100
1, 30031, Note_on_c, 0, 77, 100
1, 30065, Note_off_c, 0, 77, 100
1, 30065, Note_on_c, 0, 79, 100
1, 30082, Note_off_c, 0, 79, 100
1, 30082, Note_on_c, 0, 80, 100
1, 30099, Note_off_c, 0, 80, 100
1, 30099, Note_on_c, 0, 79, 100
1, 30147, Note_off_c, 0, 79, 100
1, 30147, Note_on_c, 0, 77, 100
1, 30195, Note_off_c, 0, 77, 100
1, 30195, Note_on_c, 0, 76, 100
1, 30243, Note_off_c, 0, 76, 100
1, 30243, Note_on_c, 0, 74, 100
1, 30291, Note_off_c, 0, 74, 100
1, 30291, Note_on_c, 0, 75, 100
1, 30339, Note_off_c, 0, 75, 100
1, 30339, Note_on_c, 0, 73, 100
1, 30387, Note_off_c, 0, 73, 100
1, 30387, Note_on_c, 0, 72, 100
1, 30435, Note_off_c, 0, 72, 100
1, 30435, Note_on_c, 0, 73, 100
1, 30483, Note_off_c, 0, 73, 100
1, 30483, Note_on_c, 0, 72, 100
1, 30531, Note_off_c, 0, 72, 100
1, 30531, Note_on_c, 0, 68, 100
1, 30579, Note_off_c, 0, 68, 100
1, 30579, Note_on_c, 0, 67, 100
1, 30627, Note_off_c, 0, 67, 100
1, 30627, Note_on_c, 0, 65, 100
1, 30675, Note_off_c, 0, 65, 100
1, 30675, Note_on_c, 0, 70, 100
1, 30723, Note_off_c, 0, 70, 100
1, 30723, Note_on_c, 0, 67, 100
1, 30771, Note_off_c, 0, 67, 100
1, 30771, Note_on_c, 0, 68, 100
1, 30819, Note_off_c, 0, 68, 100
1, 30819, Note_on_c, 0, 70, 100
1, 30867, Note_off_c, 0, 70, 100
1, 30867, Note_on_c, 0, 71, 100
1, 30915, Note_off_c, 0, 71, 100
1, 30915, Note_on_c, 0, 72, 100
1, 30963, Note_off_c, 0, 72, 100
1, 30963, Note_on_c, 0, 77, 100
1, 31011, Note_off_c, 0, 77, 100
1, 31011, Note_on_c, 0, 76, 100
1, 31059, Note_off_c, 0, 76, 100
1, 31059, Note_on_c, 0, 75, 100
1, 31113, Note_off_c, 0, 75, 100
1, 31113, Note_on_c, 0, 73, 100
1, 31140, Note_off_c, 0, 73, 100
1, 31140, Note_on_c, 0, 72, 100
1, 31167, Note_off_c, 0, 72, 100
1, 31167, Note_on_c, 0, 73, 100
1, 31194, Note_off_c, 0, 73, 100
1, 31194, Note_on_c, 0, 72, 100
1, 31221, Note_off_c, 0, 72, 100
1, 31221, Note_on_c, 0, 71, 100
1, 31248, Note_off_c, 0, 71, 100
1, 31248, Note_on_c, 0, 72, 100
1, 31296, Note_off_c, 0, 72, 100
1, 31296, Note_on_c, 0, 68, 100
1, 31320, Note_off_c, 0, 68, 100
1, 31320, Note_on_c, 0, 67, 100
1, 31344, Note_off_c, 0, 67, 100
1, 31344, Note_on_c, 0, 68, 100
1, 31368, Note_off_c, 0, 68, 100
1, 31368, Note_on_c, 0, 67, 100
1, 31416, Note_off_c, 0, 67, 100
1, 31416, Note_on_c, 0, 65, 100
1, 31440, Note_off_c, 0, 65, 100
1, 31440, Note_on_c, 0, 70, 100
1, 31488, Note_off_c, 0, 70, 100
1, 31488, Note_on_c, 0, 67, 100
1, 31536, Note_off_c, 0, 67, 100
1, 31536, Note_on_c, 0, 68, 100
1, 31584, Note_off_c, 0, 68, 100
1, 31584, Note_on_c, 0, 70, 100
1, 31632, Note_off_c, 0, 70, 100
1, 31632, Note_on_c, 0, 71, 100
1, 31680, Note_off_c, 0, 71, 100
1, 31680, Note_on_c, 0, 72, 100
1, 31776, Note_off_c, 0, 72, 100
1, 32112, Note_on_c, 0, 81, 100
1, 32144, Note_off_c, 0, 81, 100
1, 32144, Note_on_c, 0, 83, 100
1, 32176, Note_off_c, 0, 83, 100
1, 32176, Note_on_c, 0, 84, 100
1, 32323, Note_off_c, 0, 84, 100
1, 32323, Note_on_c, 0, 79, 100
1, 32361, Note_off_c, 0, 79, 100
1, 32361, Note_on_c, 0, 82, 100
1, 32495, Note_off_c, 0, 82, 100
1, 32495, Note_on_c, 0, 71, 100
1, 32591, Note_off_c, 0, 71, 100
1, 32591, Note_on_c, 0, 75, 100
1, 32639, Note_off_c, 0, 75, 100
1, 32639, Note_on_c, 0, 80, 100
1, 32783, Note_off_c, 0, 80, 100
1, 32783, Note_on_c, 0, 79, 100
1, 32837, Note_off_c, 0, 79, 100
1, 32837, Note_on_c, 0, 77, 100
1, 32864, Note_off_c, 0, 77, 100
1, 32864, Note_on_c, 0, 75, 100
1, 32891, Note_off_c, 0, 75, 100
1, 32891, Note_on_c, 0, 71, 100
1, 32918, Note_off_c, 0, 71, 100
1, 32918, Note_on_c, 0, 70, 100
1, 32972, Note_off_c, 0, 70, 100
1, 32972, Note_on_c, 0, 77, 100
1, 33020, Note_off_c, 0, 77, 100
1, 33020, Note_on_c, 0, 74, 100
1, 33068, Note_off_c, 0, 74, 100
1, 33068, Note_on_c, 0, 75, 100
1, 33116, Note_off_c, 0, 75, 100
1, 33116, Note_on_c, 0, 77, 100
1, 33164, Note_off_c, 0, 77, 100
1, 33164, Note_on_c, 0, 79, 100
1, 33212, Note_off_c, 0, 79, 100
1, 33212, Note_on_c, 0, 80, 100
1, 33260, Note_off_c, 0, 80, 100
1, 33260, Note_on_c, 0, 79, 100
1, 33308, Note_off_c, 0, 79, 100
1, 33308, Note_on_c, 0, 77, 100
1, 33356, Note_off_c, 0, 77, 100
1, 33356, Note_on_c, 0, 74, 100
1, 33394, Note_off_c, 0, 74, 100
1, 33394, Note_on_c, 0, 75, 100
1, 33432, Note_off_c, 0, 75, 100
1, 33432, Note_on_c, 0, 76, 100
1, 33508, Note_off_c, 0, 76, 100
1, 33508, Note_on_c, 0, 67, 100
1, 33546, Note_off_c, 0, 67, 100
1, 33546, Note_on_c, 0, 70, 100
1, 33584, Note_off_c, 0, 70, 100
1, 33584, Note_on_c, 0, 73, 100
1, 33622, Note_off_c, 0, 73, 100
1, 33622, Note_on_c, 0, 70, 100
1, 33660, Note_off_c, 0, 70, 100
1, 33660, Note_on_c, 0, 68, 100
1, 33698, Note_off_c, 0, 68, 100
1, 33698, Note_on_c, 0, 69, 100
1, 33736, Note_off_c, 0, 69, 100
1, 33736, Note_on_c, 0, 68, 100
1, 33800, Note_off_c, 0, 68, 100
1, 33800, Note_on_c, 0, 67, 100
1, 33864, Note_off_c, 0, 67, 100
1, 33864, Note_on_c, 0, 64, 100
1, 33928, Note_off_c, 0, 64, 100
1, 33928, Note_on_c, 0, 63, 100
1, 33966, Note_off_c, 0, 63, 100
1, 33966, Note_on_c, 0, 60, 100
1, 34004, Note_off_c, 0, 60, 100
1, 34004, Note_on_c, 0, 67, 100
1, 34042, Note_off_c, 0, 67, 100
1, 34042, Note_on_c, 0, 64, 100
1, 34118, Note_off_c, 0, 64, 100
1, 34118, Note_on_c, 0, 65, 100
1, 34166, Note_off_c, 0, 65, 100
1, 34166, Note_on_c, 0, 67, 100
1, 34214, Note_off_c, 0, 67, 100
1, 34214, Note_on_c, 0, 68, 100
1, 34262, Note_off_c, 0, 68, 100
1, 34262, Note_on_c, 0, 70, 100
1, 34310, Note_off_c, 0, 70, 100
1, 34310, Note_on_c, 0, 75, 100
1, 34358, Note_off_c, 0, 75, 100
1, 34358, Note_on_c, 0, 75, 100
1, 34454, Note_off_c, 0, 75, 100
1, 34454, Note_on_c, 0, 79, 100
1, 34540, Note_off_c, 0, 79, 100
1, 34540, Note_on_c, 0, 76, 100
1, 34578, Note_off_c, 0, 76, 100
1, 34578, Note_on_c, 0, 77, 100
1, 34616, Note_off_c, 0, 77, 100
1, 34616, Note_on_c, 0, 75, 100
1, 34654, Note_off_c, 0, 75, 100
1, 34654, Note_on_c, 0, 74, 100
1, 34716, Note_off_c, 0, 74, 100
1, 34716, Note_on_c, 0, 73, 100
1, 34764, Note_off_c, 0, 73, 100
1, 34764, Note_on_c, 0, 72, 100
1, 34788, Note_off_c, 0, 72, 100
1, 34788, Note_on_c, 0, 74, 100
1, 34812, Note_off_c, 0, 74, 100
1, 34812, Note_on_c, 0, 72, 100
1, 34836, Note_off_c, 0, 72, 100
1, 34836, Note_on_c, 0, 71, 100
1, 34884, Note_off_c, 0, 71, 100
1, 34884, Note_on_c, 0, 70, 100
1, 34932, Note_off_c, 0, 70, 100
1, 34932, Note_on_c, 0, 69, 100
1, 34980, Note_off_c, 0, 69, 100
1, 34980, Note_on_c, 0, 68, 100
1, 35028, Note_off_c, 0, 68, 100
1, 35028, Note_on_c, 0, 72, 100
1, 35108, Note_off_c, 0, 72, 100
1, 35108, Note_on_c, 0, 65, 100
1, 35140, Note_off_c, 0, 65, 100
1, 35140, Note_on_c, 0, 66, 100
1, 35172, Note_off_c, 0, 66, 100
1, 35172, Note_on_c, 0, 65, 100
1, 35204, Note_off_c, 0, 65, 100
1, 35204, Note_on_c, 0, 64, 100
1, 35236, Note_off_c, 0, 64, 100
1, 35236, Note_on_c, 0, 62, 100
1, 35268, Note_off_c, 0, 62, 100
1, 35268, Note_on_c, 0, 63, 100
1, 35316, Note_off_c, 0, 63, 100
1, 35316, Note_on_c, 0, 58, 100
1, 35364, Note_off_c, 0, 58, 100
1, 35364, Note_on_c, 0, 63, 100
1, 35412, Note_off_c, 0, 63, 100
1, 35412, Note_on_c, 0, 67, 100
1, 35460, Note_off_c, 0, 67, 100
1, 35460, Note_on_c, 0, 64, 100
1, 35508, Note_off_c, 0, 64, 100
1, 35508, Note_on_c, 0, 62, 100
1, 35556, Note_off_c, 0, 62, 100
1, 35556, Note_on_c, 0, 64, 100
1, 35604, Note_off_c, 0, 64, 100
1, 35604, Note_on_c, 0, 67, 100
1, 35652, Note_off_c, 0, 67, 100
1, 35652, Note_on_c, 0, 65, 100
1, 35700, Note_off_c, 0, 65, 100
1, 35700, Note_on_c, 0, 62, 100
1, 35748, Note_off_c, 0, 62, 100
1, 35748, Note_on_c, 0, 65, 100
1, 35796, Note_off_c, 0, 65, 100
1, 35796, Note_on_c, 0, 67, 100
1, 35844, Note_off_c, 0, 67, 100
1, 35844, Note_on_c, 0, 68, 100
1, 35940, Note_off_c, 0, 68, 100
1, 36084, Note_on_c, 0, 71, 100
1, 36132, Note_off_c, 0, 71, 100
1, 36132, Note_on_c, 0, 72, 100
1, 36180, Note_off_c, 0, 72, 100
1, 36180, Note_on_c, 0, 71, 100
1, 36228, Note_off_c, 0, 71, 100
1, 36228, Note_on_c, 0, 73, 100
1, 36266, Note_off_c, 0, 73, 100
1, 36266, Note_on_c, 0, 70, 100
1, 36304, Note_off_c, 0, 70, 100
1, 36304, Note_on_c, 0, 69, 100
1, 36342, Note_off_c, 0, 69, 100
1, 36342, Note_on_c, 0, 68, 100
1, 36380, Note_off_c, 0, 68, 100
1, 36380, Note_on_c, 0, 72, 100
1, 36418, Note_off_c, 0, 72, 100
1, 36418, Note_on_c, 0, 67, 100
1, 36466, Note_off_c, 0, 67, 100
1, 36466, Note_on_c, 0, 65, 100
1, 36514, Note_off_c, 0, 65, 100
1, 36514, Note_on_c, 0, 70, 100
1, 36610, Note_off_c, 0, 70, 100
1, 36610, Note_on_c, 0, 63, 100
1, 36658, Note_off_c, 0, 63, 100
1, 36658, Note_on_c, 0, 68, 100
1, 36706, Note_off_c, 0, 68, 100
1, 36706, Note_on_c, 0, 65, 100
1, 36754, Note_off_c, 0, 65, 100
1, 36754, Note_on_c, 0, 66, 100
1, 36802, Note_off_c, 0, 66, 100
1, 36802, Note_on_c, 0, 67, 100
1, 36917, Note_off_c, 0, 67, 100
1, 36917, Note_on_c, 0, 74, 100
1, 36955, Note_off_c, 0, 74, 100
1, 36955, Note_on_c, 0, 75, 100
1, 37185, Note_off_c, 0, 75, 100
1, 37185, Note_on_c, 0, 75, 100
1, 37233, Note_off_c, 0, 75, 100
1, 37233, Note_on_c, 0, 75, 100
1, 37377, Note_off_c, 0, 75, 100
1, 37377, Note_on_c, 0, 75, 100
1, 37569, Note_off_c, 0, 75, 100
1, 37569, Note_on_c, 0, 78, 100
1, 37633, Note_off_c, 0, 78, 100
1, 37633, Note_on_c, 0, 75, 100
1, 37761, Note_off_c, 0, 75, 100
1, 37761, Note_on_c, 0, 75, 100
1, 37905, Note_off_c, 0, 75, 100
1, 37905, Note_on_c, 0, 73, 100
1, 37953, Note_off_c, 0, 73, 100
1, 37953, Note_on_c, 0, 75, 100
1, 38145, Note_off_c, 0, 75, 100
1, 38145, Note_on_c, 0, 75, 100
1, 38241, Note_off_c, 0, 75, 100
1, 38433, Note_on_c, 0, 75, 100
1, 38529, Note_off_c, 0, 75, 100
1, 38529, Note_on_c, 0, 78, 100
1, 38593, Note_off_c, 0, 78, 100
1, 38593, Note_on_c, 0, 80, 100
1, 38657, Note_off_c, 0, 80, 100
1, 38657, Note_on_c, 0, 81, 100
1, 38769, Note_off_c, 0, 81, 100
1, 38769, Note_on_c, 0, 80, 100
1, 38865, Note_off_c, 0, 80, 100
1, 38865, Note_on_c, 0, 78, 100
1, 38961, Note_off_c, 0, 78, 100
1, 38961, Note_on_c, 0, 75, 100
1, 39057, Note_off_c, 0, 75, 100
1, 39057, Note_on_c, 0, 73, 100
1, 39105, Note_off_c, 0, 73, 100
1, 39105, Note_on_c, 0, 72, 100
1, 39137, Note_off_c, 0, 72, 100
1, 39137, Note_on_c, 0, 73, 100
1, 39169, Note_off_c, 0, 73, 100
1, 39169, Note_on_c, 0, 77, 100
1, 39201, Note_off_c, 0, 77, 100
1, 39201, Note_on_c, 0, 76, 100
1, 39233, Note_off_c, 0, 76, 100
1, 39233, Note_on_c, 0, 69, 100
1, 39265, Note_off_c, 0, 69, 100
1, 39265, Note_on_c, 0, 70, 100
1, 39345, Note_off_c, 0, 70, 100
1, 39345, Note_on_c, 0, 70, 100
1, 39393, Note_off_c, 0, 70, 100
1, 39393, Note_on_c, 0, 69, 100
1, 39441, Note_off_c, 0, 69, 100
1, 39441, Note_on_c, 0, 68, 100
1, 39585, Note_off_c, 0, 68, 100
1, 39585, Note_on_c, 0, 66, 100
1, 39633, Note_off_c, 0, 66, 100
1, 39633, Note_on_c, 0, 63, 100
1, 39729, Note_off_c, 0, 63, 100
1, 39729, Note_on_c, 0, 66, 100
1, 39825, Note_off_c, 0, 66, 100
1, 39825, Note_on_c, 0, 68, 100
1, 39937, Note_off_c, 0, 68, 100
1, 39937, Note_on_c, 0, 68, 100
1, 40065, Note_off_c, 0, 68, 100
1, 40065, Note_on_c, 0, 74, 100
1, 40089, Note_off_c, 0, 74, 100
1, 40089, Note_on_c, 0, 67, 100
1, 40113, Note_off_c, 0, 67, 100
1, 40113, Note_on_c, 0, 66, 100
1, 40233, Note_off_c, 0, 66, 100
1, 40233, Note_on_c, 0, 64, 100
1, 40257, Note_off_c, 0, 64, 100
1, 40257, Note_on_c, 0, 66, 100
1, 40353, Note_off_c, 0, 66, 100
1, 40353, Note_on_c, 0, 68, 100
1, 40449, Note_off_c, 0, 68, 100
1, 40449, Note_on_c, 0, 68, 100
1, 40689, Note_off_c, 0, 68, 100
1, 40689, Note_on_c, 0, 67, 100
1, 40713, Note_off_c, 0, 67, 100
1, 40713, Note_on_c, 0, 68, 100
1, 40737, Note_off_c, 0, 68, 100
1, 40737, Note_on_c, 0, 69, 100
1, 40761, Note_off_c, 0, 69, 100
1, 40761, Note_on_c, 0, 70, 100
1, 40977, Note_off_c, 0, 70, 100
1, 40977, Note_on_c, 0, 75, 100
1, 41063, Note_off_c, 0, 75, 100
1, 41063, Note_on_c, 0, 68, 100
1, 41101, Note_off_c, 0, 68, 100
1, 41101, Note_on_c, 0, 69, 100
1, 41139, Note_off_c, 0, 69, 100
1, 41139, Note_on_c, 0, 68, 100
1, 41279, Note_off_c, 0, 68, 100
1, 41279, Note_on_c, 0, 63, 100
1, 41343, Note_off_c, 0, 63, 100
1, 41343, Note_on_c, 0, 66, 100
1, 41407, Note_off_c, 0, 66, 100
1, 41407, Note_on_c, 0, 67, 100
1, 41503, Note_off_c, 0, 67, 100
1, 41503, Note_on_c, 0, 63, 100
1, 41551, Note_off_c, 0, 63, 100
1, 41551, Note_on_c, 0, 58, 100
1, 41743, Note_off_c, 0, 58, 100
1, 42271, Note_on_c, 0, 68, 100
1, 42367, Note_off_c, 0, 68, 100
1, 42367, Note_on_c, 0, 67, 100
1, 42463, Note_off_c, 0, 67, 100
1, 42463, Note_on_c, 0, 63, 100
1, 42511, Note_off_c, 0, 63, 100
1, 42511, Note_on_c, 0, 65, 100
1, 42607, Note_off_c, 0, 65, 100
1, 42607, Note_on_c, 0, 64, 100
1, 42655, Note_off_c, 0, 64, 100
1, 42655, Note_on_c, 0, 67, 100
1, 42703, Note_off_c, 0, 67, 100
1, 42703, Note_on_c, 0, 70, 100
1, 42751, Note_off_c, 0, 70, 100
1, 42751, Note_on_c, 0, 73, 100
1, 42847, Note_off_c, 0, 73, 100
1, 42847, Note_on_c, 0, 71, 100
1, 42991, Note_off_c, 0, 71, 100
1, 42991, Note_on_c, 0, 72, 100
1, 43087, Note_off_c, 0, 72, 100
1, 43087, Note_on_c, 0, 78, 100
1, 43135, Note_off_c, 0, 78, 100
1, 43135, Note_on_c, 0, 74, 100
1, 43159, Note_off_c, 0, 74, 100
1, 43159, Note_on_c, 0, 70, 100
1, 43183, Note_off_c, 0, 70, 100
1, 43183, Note_on_c, 0, 65, 100
1, 43303, Note_off_c, 0, 65, 100
1, 43303, Note_on_c, 0, 67, 100
1, 43375, Note_off_c, 0, 67, 100
1, 43375, Note_on_c, 0, 68, 100
1, 43471, Note_off_c, 0, 68, 100
1, 43471, Note_on_c, 0, 70, 100
1, 43567, Note_off_c, 0, 70, 100
1, 43567, Note_on_c, 0, 72, 100
1, 43663, Note_off_c, 0, 72, 100
1, 43663, Note_on_c, 0, 75, 100
1, 43807, Note_off_c, 0, 75, 100
1, 43807, Note_on_c, 0, 73, 100
1, 43855, Note_off_c, 0, 73, 100
1, 43855, Note_on_c, 0, 74, 100
1, 43951, Note_off_c, 0, 74, 100
1, 43951, Note_on_c, 0, 70, 100
1, 44047, Note_off_c, 0, 70, 100
1, 44047, Note_on_c, 0, 74, 100
1, 44159, Note_off_c, 0, 74, 100
1, 44159, Note_on_c, 0, 70, 100
1, 44223, Note_off_c, 0, 70, 100
1, 44223, Note_on_c, 0, 72, 100
1, 44335, Note_off_c, 0, 72, 100
1, 44335, Note_on_c, 0, 68, 100
1, 44431, Note_off_c, 0, 68, 100
1, 44431, Note_on_c, 0, 72, 100
1, 44575, Note_off_c, 0, 72, 100
1, 44575, Note_on_c, 0, 68, 100
1, 44623, Note_off_c, 0, 68, 100
1, 44623, Note_on_c, 0, 70, 100
1, 44815, Note_off_c, 0, 70, 100
1, 44815, Note_on_c, 0, 68, 100
1, 44911, Note_off_c, 0, 68, 100
1, 44911, Note_on_c, 0, 68, 100
1, 44959, Note_off_c, 0, 68, 100
1, 44959, Note_on_c, 0, 67, 100
1, 45007, Note_off_c, 0, 67, 100
1, 45007, Note_on_c, 0, 65, 100
1, 45103, Note_off_c, 0, 65, 100
1, 45103, Note_on_c, 0, 64, 100
1, 45199, Note_off_c, 0, 64, 100
1, 45199, Note_on_c, 0, 67, 100
1, 45285, Note_off_c, 0, 67, 100
1, 45285, Note_on_c, 0, 65, 100
1, 45323, Note_off_c, 0, 65, 100
1, 45323, Note_on_c, 0, 58, 100
1, 45361, Note_off_c, 0, 58, 100
1, 45361, Note_on_c, 0, 57, 100
1, 45399, Note_off_c, 0, 57, 100
1, 45399, Note_on_c, 0, 63, 100
1, 45437, Note_off_c, 0, 63, 100
1, 45437, Note_on_c, 0, 62, 100
1, 45501, Note_off_c, 0, 62, 100
1, 45501, Note_on_c, 0, 65, 100
1, 45565, Note_off_c, 0, 65, 100
1, 45565, Note_on_c, 0, 68, 100
1, 45677, Note_off_c, 0, 68, 100
1, 45677, Note_on_c, 0, 71, 100
1, 45773, Note_off_c, 0, 71, 100
1, 45773, Note_on_c, 0, 70, 100
1, 45821, Note_off_c, 0, 70, 100
1, 45821, Note_on_c, 0, 64, 100
1, 45949, Note_off_c, 0, 64, 100
1, 45949, Note_on_c, 0, 61, 100
1, 45981, Note_off_c, 0, 61, 100
1, 45981, Note_on_c, 0, 60, 100
1, 46013, Note_off_c, 0, 60, 100
1, 46013, Note_on_c, 0, 63, 100
1, 46157, Note_off_c, 0, 63, 100
1, 46157, Note_on_c, 0, 63, 100
1, 46397, Note_off_c, 0, 63, 100
1, 46397, Note_on_c, 0, 63, 100
1, 46516, Note_off_c, 0, 63, 100
1, 46516, End_track
0, 0, End_of_file
