0, 0, Header, 1, 1, 192
1, 0, Start_track
1, 0, Title_t, "Melody"
1, 0, Tempo, 310880
1, 0, Key_signature, -1, "major"
1, 0, Time_signature, 4, 2, 24, 8
1, 0, Note_on_c, 0, 72, 100
1, 144, Note_off_c, 0, 72, 100
1, 144, Note_on_c, 0, 77, 100
1, 288, Note_off_c, 0, 77, 100
1, 288, Note_on_c, 0, 72, 100
1, 384, Note_off_c, 0, 72, 100
1, 384, Note_on_c, 0, 77, 100
1, 672, Note_off_c, 0, 77, 100
1, 672, Note_on_c, 0, 72, 100
1, 768, Note_off_c, 0, 72, 100
1, 768, Note_on_c, 0, 77, 100
1, 895, Note_off_c, 0, 77, 100
1, 895, Note_on_c, 0, 72, 100
1, 959, Note_off_c, 0, 72, 100
1, 959, Note_on_c, 0, 77, 100
1, 1151, Note_off_c, 0, 77, 100
1, 1151, Note_on_c, 0, 77, 100
1, 1343, Note_off_c, 0, 77, 100
1, 1343, Note_on_c, 0, 81, 100
1, 1535, Note_off_c, 0, 81, 100
1, 1535, Note_on_c, 0, 77, 100
1, 1631, Note_off_c, 0, 77, 100
1, 1631, Note_on_c, 0, 72, 100
1, 1727, Note_off_c, 0, 72, 100
1, 1727, Note_on_c, 0, 74, 100
1, 1823, Note_off_c, 0, 74, 100
1, 1823, Note_on_c, 0, 77, 100
1, 1919, Note_off_c, 0, 77, 100
1, 1919, Note_on_c, 0, 74, 100
1, 2015, Note_off_c, 0, 74, 100
1, 2015, Note_on_c, 0, 72, 100
1, 2111, Note_off_c, 0, 72, 100
1, 2111, Note_on_c, 0, 69, 100
1, 2207, Note_off_c, 0, 69, 100
1, 2207, Note_on_c, 0, 65, 100
1, 2303, Note_off_c, 0, 65, 100
1, 2303, Note_on_c, 0, 69, 100
1, 2431, Note_off_c, 0, 69, 100
1, 2431, Note_on_c, 0, 67, 100
1, 2495, Note_off_c, 0, 67, 100
1, 2495, Note_on_c, 0, 66, 100
1, 2591, Note_off_c, 0, 66, 100
1, 2591, Note_on_c, 0, 67, 100
1, 2687, Note_off_c, 0, 67, 100
1, 2687, Note_on_c, 0, 74, 100
1, 2879, Note_off_c, 0, 74, 100
1, 2879, Note_on_c, 0, 72, 100
1, 3071, Note_off_c, 0, 72, 100
1, 3071, Note_on_c, 0, 65, 100
1, 3167, Note_off_c, 0, 65, 100
1, 3167, Note_on_c, 0, 60, 100
1, 3263, Note_off_c, 0, 60, 100
1, 3263, Note_on_c, 0, 65, 100
1, 3359, Note_off_c, 0, 65, 100
1, 3359, Note_on_c, 0, 69, 100
1, 3455, Note_off_c, 0, 69, 100
1, 3455, Note_on_c, 0, 72, 100
1, 3551, Note_off_c, 0, 72, 100
1, 3551, Note_on_c, 0, 65, 100
1, 3647, Note_off_c, 0, 65, 100
1, 3647, Note_on_c, 0, 69, 100
1, 3743, Note_off_c, 0, 69, 100
1, 3743, Note_on_c, 0, 72, 100
1, 3839, Note_off_c, 0, 72, 100
1, 3839, Note_on_c, 0, 74, 100
1, 3935, Note_off_c, 0, 74, 100
1, 3935, Note_on_c, 0, 70, 100
1, 4031, Note_off_c, 0, 70, 100
1, 4031, Note_on_c, 0, 79, 100
1, 4175, Note_off_c, 0, 79, 100
1, 4175, Note_on_c, 0, 73, 100
1, 4367, Note_off_c, 0, 73, 100
1, 4655, Note_on_c, 0, 72, 100
1, 4751, Note_off_c, 0, 72, 100
1, 4751, Note_on_c, 0, 77, 100
1, 4895, Note_off_c, 0, 77, 100
1, 4895, Note_on_c, 0, 74, 100
1, 4991, Note_off_c, 0, 74, 100
1, 4991, Note_on_c, 0, 68, 100
1, 5087, Note_off_c, 0, 68, 100
1, 5087, Note_on_c, 0, 69, 100
1, 5183, Note_off_c, 0, 69, 100
1, 5183, Note_on_c, 0, 65, 100
1, 5279, Note_off_c, 0, 65, 100
1, 5279, Note_on_c, 0, 68, 100
1, 5471, Note_off_c, 0, 68, 100
1, 5471, Note_on_c, 0, 65, 100
1, 5567, Note_off_c, 0, 65, 100
1, 5567, Note_on_c, 0, 68, 100
1, 5759, Note_off_c, 0, 68, 100
1, 5759, Note_on_c, 0, 65, 100
1, 5855, Note_off_c, 0, 65, 100
1, 6143, Note_on_c, 0, 69, 100
1, 6239, Note_off_c, 0, 69, 100
1, 6239, Note_on_c, 0, 72, 100
1, 6335, Note_off_c, 0, 72, 100
1, 6335, Note_on_c, 0, 77, 100
1, 6431, Note_off_c, 0, 77, 100
1, 6431, Note_on_c, 0, 69, 100
1, 6527, Note_off_c, 0, 69, 100
1, 6527, Note_on_c, 0, 72, 100
1, 6623, Note_off_c, 0, 72, 100
1, 6623, Note_on_c, 0, 77, 100
1, 6719, Note_off_c, 0, 77, 100
1, 6911, Note_on_c, 0, 69, 100
1, 7007, Note_off_c, 0, 69, 100
1, 7007, Note_on_c, 0, 72, 100
1, 7103, Note_off_c, 0, 72, 100
1, 7103, Note_on_c, 0, 77, 100
1, 7199, Note_off_c, 0, 77, 100
1, 7199, Note_on_c, 0, 69, 100
1, 7295, Note_off_c, 0, 69, 100
1, 7295, Note_on_c, 0, 72, 100
1, 7391, Note_off_c, 0, 72, 100
1, 7391, Note_on_c, 0, 77, 100
1, 7487, Note_off_c, 0, 77, 100
1, 7679, Note_on_c, 0, 69, 100
1, 7823, Note_off_c, 0, 69, 100
1, 7823, Note_on_c, 0, 74, 100
1, 7871, Note_off_c, 0, 74, 100
1, 7871, Note_on_c, 0, 77, 100
1, 7967, Note_off_c, 0, 77, 100
1, 7967, Note_on_c, 0, 69, 100
1, 8063, Note_off_c, 0, 69, 100
1, 8063, Note_on_c, 0, 74, 100
1, 8191, Note_off_c, 0, 74, 100
1, 8191, Note_on_c, 0, 77, 100
1, 8351, Note_off_c, 0, 77, 100
1, 8351, Note_on_c, 0, 74, 100
1, 8447, Note_off_c, 0, 74, 100
1, 8447, Note_on_c, 0, 76, 100
1, 8591, Note_off_c, 0, 76, 100
1, 8591, Note_on_c, 0, 75, 100
1, 8639, Note_off_c, 0, 75, 100
1, 8639, Note_on_c, 0, 78, 100
1, 8735, Note_off_c, 0, 78, 100
1, 8735, Note_on_c, 0, 74, 100
1, 9023, Note_off_c, 0, 74, 100
1, 9023, Note_on_c, 0, 72, 100
1, 9119, Note_off_c, 0, 72, 100
1, 9311, Note_on_c, 0, 77, 100
1, 9407, Note_off_c, 0, 77, 100
1, 9407, Note_on_c, 0, 75, 100
1, 9503, Note_off_c, 0, 75, 100
1, 9503, Note_on_c, 0, 74, 100
1, 9599, Note_off_c, 0, 74, 100
1, 9599, Note_on_c, 0, 72, 100
1, 9695, Note_off_c, 0, 72, 100
1, 9695, Note_on_c, 0, 69, 100
1, 9791, Note_off_c, 0, 69, 100
1, 9791, Note_on_c, 0, 65, 100
1, 9887, Note_off_c, 0, 65, 100
1, 9887, Note_on_c, 0, 72, 100
1, 10079, Note_off_c, 0, 72, 100
1, 10079, Note_on_c, 0, 70, 100
1, 10175, Note_off_c, 0, 70, 100
1, 10175, Note_on_c, 0, 72, 100
1, 10319, Note_off_c, 0, 72, 100
1, 10319, Note_on_c, 0, 72, 100
1, 10655, Note_off_c, 0, 72, 100
1, 10655, Note_on_c, 0, 70, 100
1, 10751, Note_off_c, 0, 70, 100
1, 10751, Note_on_c, 0, 68, 100
1, 10847, Note_off_c, 0, 68, 100
1, 10847, Note_on_c, 0, 69, 100
1, 10943, Note_off_c, 0, 69, 100
1, 10943, Note_on_c, 0, 60, 100
1, 11039, Note_off_c, 0, 60, 100
1, 11039, Note_on_c, 0, 62, 100
1, 11135, Note_off_c, 0, 62, 100
1, 11135, Note_on_c, 0, 65, 100
1, 11263, Note_off_c, 0, 65, 100
1, 11263, Note_on_c, 0, 68, 100
1, 11327, Note_off_c, 0, 68, 100
1, 11327, Note_on_c, 0, 71, 100
1, 11423, Note_off_c, 0, 71, 100
1, 11423, Note_on_c, 0, 74, 100
1, 11519, Note_off_c, 0, 74, 100
1, 11519, Note_on_c, 0, 72, 100
1, 11711, Note_off_c, 0, 72, 100
1, 11711, Note_on_c, 0, 65, 100
1, 11807, Note_off_c, 0, 65, 100
1, 11807, Note_on_c, 0, 69, 100
1, 11893, Note_off_c, 0, 69, 100
1, 11893, End_track
0, 0, End_of_file
