0, 0, Header, 1, 1, 192
1, 0, Start_track
1, 0, Title_t, "Melody"
1, 0, Tempo, 327868
1, 0, Key_signature, -4, "major"
1, 0, Time_signature, 4, 2, 24, 8
1, 144, Note_on_c, 0, 71, 100
1, 288, Note_off_c, 0, 71, 100
1, 288, Note_on_c, 0, 72, 100
1, 480, Note_off_c, 0, 72, 100
1, 480, Note_on_c, 0, 71, 100
1, 576, Note_off_c, 0, 71, 100
1, 576, Note_on_c, 0, 72, 100
1, 720, Note_off_c, 0, 72, 100
1, 720, Note_on_c, 0, 72, 100
1, 960, Note_off_c, 0, 72, 100
1, 960, Note_on_c, 0, 72, 100
1, 1104, Note_off_c, 0, 72, 100
1, 1104, Note_on_c, 0, 72, 100
1, 1296, Note_off_c, 0, 72, 100
1, 1536, Note_on_c, 0, 72, 100
1, 1664, Note_off_c, 0, 72, 100
1, 1664, Note_on_c, 0, 75, 100
1, 1824, Note_off_c, 0, 75, 100
1, 1824, Note_on_c, 0, 72, 100
1, 1920, Note_off_c, 0, 72, 100
1, 1920, Note_on_c, 0, 75, 100
1, 2016, Note_off_c, 0, 75, 100
1, 2016, Note_on_c, 0, 80, 100
1, 2208, Note_off_c, 0, 80, 100
1, 2208, Note_on_c, 0, 75, 100
1, 2400, Note_off_c, 0, 75, 100
1, 2400, Note_on_c, 0, 75, 100
1, 2496, Note_off_c, 0, 75, 100
1, 2496, Note_on_c, 0, 72, 100
1, 2688, Note_off_c, 0, 72, 100
1, 2688, Note_on_c, 0, 70, 100
1, 2784, Note_off_c, 0, 70, 100
1, 2784, Note_on_c, 0, 68, 100
1, 2880, Note_off_c, 0, 68, 100
1, 2880, Note_on_c, 0, 67, 100
1, 2976, Note_off_c, 0, 67, 100
1, 2976, Note_on_c, 0, 65, 100
1, 3072, Note_off_c, 0, 65, 100
1, 3072, Note_on_c, 0, 70, 100
1, 3360, Note_off_c, 0, 70, 100
1, 3360, Note_on_c, 0, 68, 100
1, 3456, Note_off_c, 0, 68, 100
1, 3456, Note_on_c, 0, 67, 100
1, 3648, Note_off_c, 0, 67, 100
1, 3648, Note_on_c, 0, 65, 100
1, 3792, Note_off_c, 0, 65, 100
1, 3792, Note_on_c, 0, 73, 100
1, 3936, Note_off_c, 0, 73, 100
1, 3936, Note_on_c, 0, 70, 100
1, 4032, Note_off_c, 0, 70, 100
1, 4032, Note_on_c, 0, 73, 100
1, 4224, Note_off_c, 0, 73, 100
1, 4224, Note_on_c, 0, 70, 100
1, 4416, Note_off_c, 0, 70, 100
1, 4704, Note_on_c, 0, 71, 100
1, 4800, Note_off_c, 0, 71, 100
1, 4800, Note_on_c, 0, 72, 100
1, 4896, Note_off_c, 0, 72, 100
1, 4896, Note_on_c, 0, 75, 100
1, 4992, Note_off_c, 0, 75, 100
1, 4992, Note_on_c, 0, 72, 100
1, 5120, Note_off_c, 0, 72, 100
1, 5120, Note_on_c, 0, 67, 100
1, 5280, Note_off_c, 0, 67, 100
1, 5280, Note_on_c, 0, 70, 100
1, 5376, Note_off_c, 0, 70, 100
1, 5376, Note_on_c, 0, 68, 100
1, 5472, Note_off_c, 0, 68, 100
1, 5472, Note_on_c, 0, 68, 100
1, 5664, Note_off_c, 0, 68, 100
1, 5664, Note_on_c, 0, 72, 100
1, 5712, Note_off_c, 0, 72, 100
1, 5712, Note_on_c, 0, 68, 100
1, 5760, Note_off_c, 0, 68, 100
1, 5760, Note_on_c, 0, 65, 100
1, 5856, Note_off_c, 0, 65, 100
1, 5856, Note_on_c, 0, 60, 100
1, 6048, Note_off_c, 0, 60, 100
1, 6240, Note_on_c, 0, 79, 100
1, 7008, Note_off_c, 0, 79, 100
1, 7008, Note_on_c, 0, 75, 100
1, 7104, Note_off_c, 0, 75, 100
1, 7104, Note_on_c, 0, 63, 100
1, 7200, Note_off_c, 0, 63, 100
1, 7200, Note_on_c, 0, 65, 100
1, 7296, Note_off_c, 0, 65, 100
1, 7296, Note_on_c, 0, 68, 100
1, 7392, Note_off_c, 0, 68, 100
1, 7392, Note_on_c, 0, 72, 100
1, 7488, Note_off_c, 0, 72, 100
1, 7488, Note_on_c, 0, 65, 100
1, 7584, Note_off_c, 0, 65, 100
1, 7584, Note_on_c, 0, 68, 100
1, 7776, Note_off_c, 0, 68, 100
1, 7776, Note_on_c, 0, 68, 100
1, 7968, Note_off_c, 0, 68, 100
1, 7968, Note_on_c, 0, 68, 100
1, 8064, Note_off_c, 0, 68, 100
1, 8064, Note_on_c, 0, 61, 100
1, 8160, Note_off_c, 0, 61, 100
1, 8160, Note_on_c, 0, 61, 100
1, 8208, Note_off_c, 0, 61, 100
1, 8208, Note_on_c, 0, 67, 100
1, 8352, Note_off_c, 0, 67, 100
1, 8352, Note_on_c, 0, 67, 100
1, 8448, Note_off_c, 0, 67, 100
1, 8448, Note_on_c, 0, 65, 100
1, 8640, Note_off_c, 0, 65, 100
1, 8640, Note_on_c, 0, 63, 100
1, 8832, Note_off_c, 0, 63, 100
1, 8832, Note_on_c, 0, 72, 100
1, 9024, Note_off_c, 0, 72, 100
1, 9216, Note_on_c, 0, 71, 100
1, 9344, Note_off_c, 0, 71, 100
1, 9344, Note_on_c, 0, 72, 100
1, 9504, Note_off_c, 0, 72, 100
1, 9504, Note_on_c, 0, 70, 100
1, 9600, Note_off_c, 0, 70, 100
1, 9600, Note_on_c, 0, 68, 100
1, 9744, Note_off_c, 0, 68, 100
1, 9744, Note_on_c, 0, 65, 100
1, 9888, Note_off_c, 0, 65, 100
1, 9888, Note_on_c, 0, 68, 100
1, 10080, Note_off_c, 0, 68, 100
1, 10080, Note_on_c, 0, 70, 100
1, 10176, Note_off_c, 0, 70, 100
1, 10176, Note_on_c, 0, 68, 100
1, 10272, Note_off_c, 0, 68, 100
1, 10272, Note_on_c, 0, 65, 100
1, 10368, Note_off_c, 0, 65, 100
1, 10368, Note_on_c, 0, 68, 100
1, 10560, Note_off_c, 0, 68, 100
1, 10560, Note_on_c, 0, 65, 100
1, 10752, Note_off_c, 0, 65, 100
1, 10752, Note_on_c, 0, 63, 100
1, 10848, Note_off_c, 0, 63, 100
1, 11136, Note_on_c, 0, 79, 100
1, 11232, Note_off_c, 0, 79, 100
1, 11232, Note_on_c, 0, 77, 100
1, 11328, Note_off_c, 0, 77, 100
1, 11328, Note_on_c, 0, 73, 100
1, 11424, Note_off_c, 0, 73, 100
1, 11424, Note_on_c, 0, 72, 100
1, 11712, Note_off_c, 0, 72, 100
1, 11712, Note_on_c, 0, 65, 100
1, 11808, Note_off_c, 0, 65, 100
1, 11808, Note_on_c, 0, 66, 100
1, 11904, Note_off_c, 0, 66, 100
1, 11904, Note_on_c, 0, 67, 100
1, 12000, Note_off_c, 0, 67, 100
1, 12000, Note_on_c, 0, 72, 100
1, 12288, Note_off_c, 0, 72, 100
1, 12288, Note_on_c, 0, 68, 100
1, 12384, Note_off_c, 0, 68, 100
1, 12384, Note_on_c, 0, 60, 100
1, 12480, Note_off_c, 0, 60, 100
1, 12480, Note_on_c, 0, 61, 100
1, 12576, Note_off_c, 0, 61, 100
1, 12576, Note_on_c, 0, 67, 100
1, 12864, Note_off_c, 0, 67, 100
1, 12864, Note_on_c, 0, 65, 100
1, 12966, Note_off_c, 0, 65, 100
1, 12966, End_track
0, 0, End_of_file
