0, 0, Header, 1, 1, 192
1, 0, Start_track
1, 0, Title_t, "Melody"
1, 0, Tempo, 200668
1, 0, Key_signature, -2, "minor"
1, 0, Time_signature, 4, 2, 24, 8
1, 576, Note_on_c, 0, 54, 100
1, 768, Note_off_c, 0, 54, 100
1, 768, Note_on_c, 0, 53, 100
1, 832, Note_off_c, 0, 53, 100
1, 832, Note_on_c, 0, 52, 100
1, 896, Note_off_c, 0, 52, 100
1, 896, Note_on_c, 0, 51, 100
1, 1008, Note_off_c, 0, 51, 100
1, 1008, Note_on_c, 0, 53, 100
1, 1104, Note_off_c, 0, 53, 100
1, 1104, Note_on_c, 0, 50, 100
1, 1296, Note_off_c, 0, 50, 100
1, 1296, Note_on_c, 0, 53, 100
1, 1440, Note_off_c, 0, 53, 100
1, 1440, Note_on_c, 0, 50, 100
1, 1488, Note_off_c, 0, 50, 100
1, 1488, Note_on_c, 0, 51, 100
1, 1680, Note_off_c, 0, 51, 100
1, 1680, Note_on_c, 0, 55, 100
1, 1792, Note_off_c, 0, 55, 100
1, 1792, Note_on_c, 0, 52, 100
1, 1856, Note_off_c, 0, 52, 100
1, 1856, Note_on_c, 0, 53, 100
1, 2064, Note_off_c, 0, 53, 100
1, 2064, Note_on_c, 0, 50, 100
1, 2176, Note_off_c, 0, 50, 100
1, 2176, Note_on_c, 0, 48, 100
1, 2368, Note_off_c, 0, 48, 100
1, 2368, Note_on_c, 0, 51, 100
1, 2592, Note_off_c, 0, 51, 100
1, 2592, Note_on_c, 0, 50, 100
1, 2784, Note_off_c, 0, 50, 100
1, 2784, Note_on_c, 0, 48, 100
1, 2976, Note_off_c, 0, 48, 100
1, 2976, Note_on_c, 0, 46, 100
1, 3168, Note_off_c, 0, 46, 100
1, 3168, Note_on_c, 0, 44, 100
1, 3552, Note_off_c, 0, 44, 100
1, 4128, Note_on_c, 0, 68, 100
1, 4224, Note_off_c, 0, 68, 100
1, 4224, Note_on_c, 0, 67, 100
1, 4320, Note_off_c, 0, 67, 100
1, 4320, Note_on_c, 0, 63, 100
1, 4416, Note_off_c, 0, 63, 100
1, 4416, Note_on_c, 0, 58, 100
1, 4512, Note_off_c, 0, 58, 100
1, 4512, Note_on_c, 0, 56, 100
1, 4560, Note_off_c, 0, 56, 100
1, 4560, Note_on_c, 0, 61, 100
1, 4704, Note_off_c, 0, 61, 100
1, 4704, Note_on_c, 0, 63, 100
1, 4752, Note_off_c, 0, 63, 100
1, 4752, Note_on_c, 0, 65, 100
1, 4896, Note_off_c, 0, 65, 100
1, 4896, Note_on_c, 0, 61, 100
1, 4992, Note_off_c, 0, 61, 100
1, 4992, Note_on_c, 0, 64, 100
1, 5088, Note_off_c, 0, 64, 100
1, 5088, Note_on_c, 0, 68, 100
1, 5184, Note_off_c, 0, 68, 100
1, 5184, Note_on_c, 0, 71, 100
1, 5280, Note_off_c, 0, 71, 100
1, 5280, Note_on_c, 0, 64, 100
1, 5328, Note_off_c, 0, 64, 100
1, 5328, Note_on_c, 0, 68, 100
1, 5376, Note_off_c, 0, 68, 100
1, 5376, Note_on_c, 0, 70, 100
1, 5568, Note_off_c, 0, 70, 100
1, 5568, Note_on_c, 0, 73, 100
1, 5836, Note_off_c, 0, 73, 100
1, 5836, Note_on_c, 0, 72, 100
1, 5874, Note_off_c, 0, 72, 100
1, 5874, Note_on_c, 0, 71, 100
1, 5912, Note_off_c, 0, 71, 100
1, 5912, Note_on_c, 0, 70, 100
1, 6190, Note_off_c, 0, 70, 100
1, 6190, Note_on_c, 0, 71, 100
1, 6238, Note_off_c, 0, 71, 100
1, 6238, Note_on_c, 0, 72, 100
1, 6430, Note_off_c, 0, 72, 100
1, 6430, Note_on_c, 0, 71, 100
1, 6478, Note_off_c, 0, 71, 100
1, 6478, Note_on_c, 0, 70, 100
1, 6526, Note_off_c, 0, 70, 100
1, 6526, Note_on_c, 0, 68, 100
1, 6718, Note_off_c, 0, 68, 100
1, 7246, Note_on_c, 0, 69, 100
1, 7342, Note_off_c, 0, 69, 100
1, 7342, Note_on_c, 0, 73, 100
1, 7438, Note_off_c, 0, 73, 100
1, 7438, Note_on_c, 0, 71, 100
1, 7550, Note_off_c, 0, 71, 100
1, 7550, Note_on_c, 0, 69, 100
1, 7614, Note_off_c, 0, 69, 100
1, 7614, Note_on_c, 0, 68, 100
1, 7726, Note_off_c, 0, 68, 100
1, 7726, Note_on_c, 0, 67, 100
1, 7822, Note_off_c, 0, 67, 100
1, 7822, Note_on_c, 0, 66, 100
1, 7966, Note_off_c, 0, 66, 100
1, 7966, Note_on_c, 0, 64, 100
1, 8062, Note_off_c, 0, 64, 100
1, 8062, Note_on_c, 0, 65, 100
1, 8110, Note_off_c, 0, 65, 100
1, 8110, Note_on_c, 0, 64, 100
1, 8206, Note_off_c, 0, 64, 100
1, 8206, Note_on_c, 0, 63, 100
1, 8302, Note_off_c, 0, 63, 100
1, 8302, Note_on_c, 0, 67, 100
1, 8398, Note_off_c, 0, 67, 100
1, 8398, Note_on_c, 0, 65, 100
1, 8494, Note_off_c, 0, 65, 100
1, 8494, Note_on_c, 0, 61, 100
1, 8590, Note_off_c, 0, 61, 100
1, 8590, Note_on_c, 0, 56, 100
1, 8702, Note_off_c, 0, 56, 100
1, 8702, Note_on_c, 0, 53, 100
1, 8766, Note_off_c, 0, 53, 100
1, 8766, Note_on_c, 0, 63, 100
1, 8926, Note_off_c, 0, 63, 100
1, 8926, Note_on_c, 0, 64, 100
1, 9118, Note_off_c, 0, 64, 100
1, 9118, Note_on_c, 0, 65, 100
1, 9358, Note_off_c, 0, 65, 100
1, 9358, Note_on_c, 0, 66, 100
1, 9454, Note_off_c, 0, 66, 100
1, 10318, Note_on_c, 0, 65, 100
1, 10366, Note_off_c, 0, 65, 100
1, 10366, Note_on_c, 0, 62, 100
1, 10558, Note_off_c, 0, 62, 100
1, 10558, Note_on_c, 0, 58, 100
1, 10686, Note_off_c, 0, 58, 100
1, 10686, Note_on_c, 0, 60, 100
1, 10894, Note_off_c, 0, 60, 100
1, 10894, Note_on_c, 0, 56, 100
1, 11038, Note_off_c, 0, 56, 100
1, 11038, Note_on_c, 0, 53, 100
1, 11086, Note_off_c, 0, 53, 100
1, 11086, Note_on_c, 0, 58, 100
1, 11198, Note_off_c, 0, 58, 100
1, 11198, Note_on_c, 0, 56, 100
1, 11262, Note_off_c, 0, 56, 100
1, 11262, Note_on_c, 0, 53, 100
1, 11374, Note_off_c, 0, 53, 100
1, 11374, Note_on_c, 0, 51, 100
1, 11470, Note_off_c, 0, 51, 100
1, 11470, Note_on_c, 0, 48, 100
1, 11710, Note_off_c, 0, 48, 100
1, 11710, Note_on_c, 0, 50, 100
1, 11902, Note_off_c, 0, 50, 100
1, 11902, Note_on_c, 0, 53, 100
1, 12046, Note_off_c, 0, 53, 100
1, 12046, Note_on_c, 0, 58, 100
1, 12238, Note_off_c, 0, 58, 100
1, 13054, Note_on_c, 0, 58, 100
1, 13150, Note_off_c, 0, 58, 100
1, 13150, Note_on_c, 0, 59, 100
1, 13246, Note_off_c, 0, 59, 100
1, 13246, Note_on_c, 0, 64, 100
1, 13310, Note_off_c, 0, 64, 100
1, 13310, Note_on_c, 0, 68, 100
1, 13374, Note_off_c, 0, 68, 100
1, 13374, Note_on_c, 0, 71, 100
1, 13502, Note_off_c, 0, 71, 100
1, 13502, Note_on_c, 0, 68, 100
1, 13566, Note_off_c, 0, 68, 100
1, 13566, Note_on_c, 0, 69, 100
1, 13678, Note_off_c, 0, 69, 100
1, 13678, Note_on_c, 0, 71, 100
1, 13774, Note_off_c, 0, 71, 100
1, 13774, Note_on_c, 0, 72, 100
1, 13918, Note_off_c, 0, 72, 100
1, 13918, Note_on_c, 0, 73, 100
1, 14110, Note_off_c, 0, 73, 100
1, 14110, Note_on_c, 0, 70, 100
1, 14254, Note_off_c, 0, 70, 100
1, 14254, Note_on_c, 0, 66, 100
1, 14350, Note_off_c, 0, 66, 100
1, 14350, Note_on_c, 0, 61, 100
1, 14446, Note_off_c, 0, 61, 100
1, 14446, Note_on_c, 0, 59, 100
1, 14542, Note_off_c, 0, 59, 100
1, 14542, Note_on_c, 0, 63, 100
1, 14686, Note_off_c, 0, 63, 100
1, 14686, Note_on_c, 0, 66, 100
1, 14734, Note_off_c, 0, 66, 100
1, 14734, Note_on_c, 0, 68, 100
1, 14830, Note_off_c, 0, 68, 100
1, 14830, Note_on_c, 0, 73, 100
1, 14926, Note_off_c, 0, 73, 100
1, 14926, Note_on_c, 0, 71, 100
1, 15022, Note_off_c, 0, 71, 100
1, 15022, Note_on_c, 0, 69, 100
1, 15118, Note_off_c, 0, 69, 100
1, 15118, Note_on_c, 0, 68, 100
1, 15214, Note_off_c, 0, 68, 100
1, 15214, Note_on_c, 0, 67, 100
1, 15310, Note_off_c, 0, 67, 100
1, 15310, Note_on_c, 0, 66, 100
1, 15406, Note_off_c, 0, 66, 100
1, 15406, Note_on_c, 0, 69, 100
1, 15502, Note_off_c, 0, 69, 100
1, 15502, Note_on_c, 0, 65, 100
1, 15598, Note_off_c, 0, 65, 100
1, 15598, Note_on_c, 0, 64, 100
1, 15694, Note_off_c, 0, 64, 100
1, 15694, Note_on_c, 0, 63, 100
1, 15806, Note_off_c, 0, 63, 100
1, 15806, Note_on_c, 0, 65, 100
1, 15934, Note_off_c, 0, 65, 100
1, 15934, Note_on_c, 0, 67, 100
1, 15982, Note_off_c, 0, 67, 100
1, 15982, Note_on_c, 0, 69, 100
1, 16078, Note_off_c, 0, 69, 100
1, 16078, Note_on_c, 0, 71, 100
1, 16222, Note_off_c, 0, 71, 100
1, 16222, Note_on_c, 0, 73, 100
1, 16270, Note_off_c, 0, 73, 100
1, 16270, Note_on_c, 0, 74, 100
1, 16414, Note_off_c, 0, 74, 100
1, 16414, Note_on_c, 0, 71, 100
1, 16510, Note_off_c, 0, 71, 100
1, 16510, Note_on_c, 0, 72, 100
1, 16558, Note_off_c, 0, 72, 100
1, 16558, Note_on_c, 0, 71, 100
1, 16654, Note_off_c, 0, 71, 100
1, 16654, Note_on_c, 0, 69, 100
1, 16750, Note_off_c, 0, 69, 100
1, 16750, Note_on_c, 0, 68, 100
1, 16846, Note_off_c, 0, 68, 100
1, 16846, Note_on_c, 0, 67, 100
1, 16942, Note_off_c, 0, 67, 100
1, 16942, Note_on_c, 0, 73, 100
1, 17038, Note_off_c, 0, 73, 100
1, 17038, Note_on_c, 0, 71, 100
1, 17134, Note_off_c, 0, 71, 100
1, 17134, Note_on_c, 0, 69, 100
1, 17230, Note_off_c, 0, 69, 100
1, 17230, Note_on_c, 0, 68, 100
1, 17342, Note_off_c, 0, 68, 100
1, 17342, Note_on_c, 0, 66, 100
1, 17470, Note_off_c, 0, 66, 100
1, 17470, Note_on_c, 0, 65, 100
1, 17518, Note_off_c, 0, 65, 100
1, 17518, Note_on_c, 0, 64, 100
1, 17614, Note_off_c, 0, 64, 100
1, 17614, Note_on_c, 0, 63, 100
1, 17710, Note_off_c, 0, 63, 100
1, 17710, Note_on_c, 0, 67, 100
1, 17806, Note_off_c, 0, 67, 100
1, 17806, Note_on_c, 0, 65, 100
1, 18142, Note_off_c, 0, 65, 100
1, 18142, Note_on_c, 0, 66, 100
1, 18238, Note_off_c, 0, 66, 100
1, 18238, Note_on_c, 0, 64, 100
1, 18430, Note_off_c, 0, 64, 100
1, 18430, Note_on_c, 0, 63, 100
1, 18526, Note_off_c, 0, 63, 100
1, 18526, Note_on_c, 0, 62, 100
1, 18622, Note_off_c, 0, 62, 100
1, 18622, Note_on_c, 0, 61, 100
1, 18670, Note_off_c, 0, 61, 100
1, 18670, Note_on_c, 0, 65, 100
1, 18766, Note_off_c, 0, 65, 100
1, 18766, Note_on_c, 0, 63, 100
1, 18862, Note_off_c, 0, 63, 100
1, 18862, Note_on_c, 0, 61, 100
1, 18958, Note_off_c, 0, 61, 100
1, 18958, Note_on_c, 0, 57, 100
1, 19102, Note_off_c, 0, 57, 100
1, 19102, Note_on_c, 0, 60, 100
1, 19198, Note_off_c, 0, 60, 100
1, 19198, Note_on_c, 0, 62, 100
1, 19342, Note_off_c, 0, 62, 100
1, 19342, Note_on_c, 0, 62, 100
1, 19438, Note_off_c, 0, 62, 100
1, 21502, Note_on_c, 0, 61, 100
1, 21646, Note_off_c, 0, 61, 100
1, 21646, Note_on_c, 0, 62, 100
1, 21790, Note_off_c, 0, 62, 100
1, 21790, Note_on_c, 0, 58, 100
1, 21886, Note_off_c, 0, 58, 100
1, 21886, Note_on_c, 0, 61, 100
1, 21982, Note_off_c, 0, 61, 100
1, 21982, Note_on_c, 0, 62, 100
1, 22270, Note_off_c, 0, 62, 100
1, 22270, Note_on_c, 0, 60, 100
1, 22462, Note_off_c, 0, 60, 100
1, 22462, Note_on_c, 0, 61, 100
1, 22558, Note_off_c, 0, 61, 100
1, 23902, Note_on_c, 0, 53, 100
1, 23998, Note_off_c, 0, 53, 100
1, 23998, Note_on_c, 0, 58, 100
1, 24094, Note_off_c, 0, 58, 100
1, 24094, Note_on_c, 0, 62, 100
1, 24190, Note_off_c, 0, 62, 100
1, 24190, Note_on_c, 0, 63, 100
1, 24286, Note_off_c, 0, 63, 100
1, 24286, Note_on_c, 0, 61, 100
1, 24382, Note_off_c, 0, 61, 100
1, 24382, Note_on_c, 0, 62, 100
1, 24478, Note_off_c, 0, 62, 100
1, 24478, Note_on_c, 0, 60, 100
1, 24574, Note_off_c, 0, 60, 100
1, 24574, Note_on_c, 0, 59, 100
1, 24670, Note_off_c, 0, 59, 100
1, 24670, Note_on_c, 0, 62, 100
1, 24718, Note_off_c, 0, 62, 100
1, 24718, Note_on_c, 0, 65, 100
1, 24862, Note_off_c, 0, 65, 100
1, 24862, Note_on_c, 0, 62, 100
1, 24910, Note_off_c, 0, 62, 100
1, 24910, Note_on_c, 0, 68, 100
1, 25006, Note_off_c, 0, 68, 100
1, 25006, Note_on_c, 0, 66, 100
1, 25102, Note_off_c, 0, 66, 100
1, 25102, Note_on_c, 0, 65, 100
1, 25150, Note_off_c, 0, 65, 100
1, 25150, Note_on_c, 0, 64, 100
1, 25246, Note_off_c, 0, 64, 100
1, 25246, Note_on_c, 0, 63, 100
1, 25342, Note_off_c, 0, 63, 100
1, 25342, Note_on_c, 0, 62, 100
1, 25438, Note_off_c, 0, 62, 100
1, 25438, Note_on_c, 0, 60, 100
1, 25534, Note_off_c, 0, 60, 100
1, 25534, Note_on_c, 0, 59, 100
1, 25678, Note_off_c, 0, 59, 100
1, 25678, Note_on_c, 0, 58, 100
1, 25726, Note_off_c, 0, 58, 100
1, 25726, Note_on_c, 0, 55, 100
1, 25822, Note_off_c, 0, 55, 100
1, 25822, Note_on_c, 0, 51, 100
1, 26014, Note_off_c, 0, 51, 100
1, 26014, Note_on_c, 0, 49, 100
1, 26062, Note_off_c, 0, 49, 100
1, 26062, Note_on_c, 0, 53, 100
1, 26158, Note_off_c, 0, 53, 100
1, 26158, Note_on_c, 0, 52, 100
1, 26254, Note_off_c, 0, 52, 100
1, 26254, Note_on_c, 0, 51, 100
1, 26366, Note_off_c, 0, 51, 100
1, 26366, Note_on_c, 0, 53, 100
1, 26494, Note_off_c, 0, 53, 100
1, 26494, Note_on_c, 0, 50, 100
1, 26558, Note_off_c, 0, 50, 100
1, 26558, Note_on_c, 0, 53, 100
1, 26622, Note_off_c, 0, 53, 100
1, 26622, Note_on_c, 0, 57, 100
1, 26750, Note_off_c, 0, 57, 100
1, 26750, Note_on_c, 0, 60, 100
1, 26878, Note_off_c, 0, 60, 100
1, 26878, Note_on_c, 0, 58, 100
1, 26974, Note_off_c, 0, 58, 100
1, 26974, Note_on_c, 0, 60, 100
1, 27118, Note_off_c, 0, 60, 100
1, 27118, Note_on_c, 0, 62, 100
1, 27166, Note_off_c, 0, 62, 100
1, 27166, Note_on_c, 0, 65, 100
1, 27214, Note_off_c, 0, 65, 100
1, 27214, Note_on_c, 0, 70, 100
1, 27326, Note_off_c, 0, 70, 100
1, 27326, Note_on_c, 0, 62, 100
1, 27422, Note_off_c, 0, 62, 100
1, 29566, Note_on_c, 0, 65, 100
1, 29614, Note_off_c, 0, 65, 100
1, 29614, Note_on_c, 0, 64, 100
1, 29710, Note_off_c, 0, 64, 100
1, 29710, Note_on_c, 0, 63, 100
1, 29854, Note_off_c, 0, 63, 100
1, 29854, Note_on_c, 0, 58, 100
1, 29902, Note_off_c, 0, 58, 100
1, 29902, Note_on_c, 0, 60, 100
1, 29950, Note_off_c, 0, 60, 100
1, 29950, Note_on_c, 0, 62, 100
1, 30078, Note_off_c, 0, 62, 100
1, 30078, Note_on_c, 0, 63, 100
1, 30238, Note_off_c, 0, 63, 100
1, 30238, Note_on_c, 0, 61, 100
1, 30286, Note_off_c, 0, 61, 100
1, 30286, Note_on_c, 0, 62, 100
1, 30430, Note_off_c, 0, 62, 100
1, 30430, Note_on_c, 0, 60, 100
1, 30526, Note_off_c, 0, 60, 100
1, 30526, Note_on_c, 0, 58, 100
1, 30622, Note_off_c, 0, 58, 100
1, 30622, Note_on_c, 0, 55, 100
1, 30718, Note_off_c, 0, 55, 100
1, 30718, Note_on_c, 0, 60, 100
1, 30814, Note_off_c, 0, 60, 100
1, 30814, Note_on_c, 0, 56, 100
1, 30910, Note_off_c, 0, 56, 100
1, 30910, Note_on_c, 0, 55, 100
1, 31006, Note_off_c, 0, 55, 100
1, 31006, Note_on_c, 0, 53, 100
1, 31102, Note_off_c, 0, 53, 100
1, 31102, Note_on_c, 0, 58, 100
1, 31230, Note_off_c, 0, 58, 100
1, 31230, Note_on_c, 0, 55, 100
1, 31294, Note_off_c, 0, 55, 100
1, 31294, Note_on_c, 0, 56, 100
1, 31390, Note_off_c, 0, 56, 100
1, 31390, Note_on_c, 0, 58, 100
1, 31486, Note_off_c, 0, 58, 100
1, 31486, Note_on_c, 0, 55, 100
1, 31582, Note_off_c, 0, 55, 100
1, 31582, Note_on_c, 0, 54, 100
1, 31678, Note_off_c, 0, 54, 100
1, 31678, Note_on_c, 0, 53, 100
1, 31774, Note_off_c, 0, 53, 100
1, 31774, Note_on_c, 0, 52, 100
1, 31870, Note_off_c, 0, 52, 100
1, 31870, Note_on_c, 0, 51, 100
1, 31966, Note_off_c, 0, 51, 100
1, 31966, Note_on_c, 0, 54, 100
1, 32014, Note_off_c, 0, 54, 100
1, 32014, Note_on_c, 0, 58, 100
1, 32126, Note_off_c, 0, 58, 100
1, 32126, Note_on_c, 0, 61, 100
1, 32190, Note_off_c, 0, 61, 100
1, 32190, Note_on_c, 0, 65, 100
1, 32302, Note_off_c, 0, 65, 100
1, 32302, Note_on_c, 0, 63, 100
1, 32398, Note_off_c, 0, 63, 100
1, 32398, Note_on_c, 0, 70, 100
1, 32542, Note_off_c, 0, 70, 100
1, 32542, Note_on_c, 0, 66, 100
1, 32638, Note_off_c, 0, 66, 100
1, 32638, Note_on_c, 0, 65, 100
1, 32702, Note_off_c, 0, 65, 100
1, 32702, Note_on_c, 0, 64, 100
1, 32766, Note_off_c, 0, 64, 100
1, 32766, Note_on_c, 0, 63, 100
1, 32878, Note_off_c, 0, 63, 100
1, 32878, Note_on_c, 0, 65, 100
1, 32974, Note_off_c, 0, 65, 100
1, 32974, Note_on_c, 0, 62, 100
1, 33118, Note_off_c, 0, 62, 100
1, 33118, Note_on_c, 0, 60, 100
1, 33214, Note_off_c, 0, 60, 100
1, 33214, Note_on_c, 0, 57, 100
1, 33262, Note_off_c, 0, 57, 100
1, 33262, Note_on_c, 0, 53, 100
1, 33358, Note_off_c, 0, 53, 100
1, 33358, Note_on_c, 0, 58, 100
1, 33502, Note_off_c, 0, 58, 100
1, 33502, Note_on_c, 0, 53, 100
1, 33550, Note_off_c, 0, 53, 100
1, 33550, Note_on_c, 0, 58, 100
1, 33694, Note_off_c, 0, 58, 100
1, 33694, Note_on_c, 0, 62, 100
1, 33790, Note_off_c, 0, 62, 100
1, 33790, Note_on_c, 0, 63, 100
1, 33886, Note_off_c, 0, 63, 100
1, 33886, Note_on_c, 0, 61, 100
1, 33982, Note_off_c, 0, 61, 100
1, 33982, Note_on_c, 0, 62, 100
1, 34078, Note_off_c, 0, 62, 100
1, 34078, Note_on_c, 0, 60, 100
1, 34174, Note_off_c, 0, 60, 100
1, 34174, Note_on_c, 0, 59, 100
1, 34270, Note_off_c, 0, 59, 100
1, 34270, Note_on_c, 0, 62, 100
1, 34366, Note_off_c, 0, 62, 100
1, 34366, Note_on_c, 0, 65, 100
1, 34510, Note_off_c, 0, 65, 100
1, 34510, Note_on_c, 0, 62, 100
1, 34558, Note_off_c, 0, 62, 100
1, 34558, Note_on_c, 0, 68, 100
1, 34654, Note_off_c, 0, 68, 100
1, 34654, Note_on_c, 0, 67, 100
1, 34750, Note_off_c, 0, 67, 100
1, 34750, Note_on_c, 0, 65, 100
1, 34846, Note_off_c, 0, 65, 100
1, 34846, Note_on_c, 0, 64, 100
1, 34942, Note_off_c, 0, 64, 100
1, 34942, Note_on_c, 0, 63, 100
1, 35006, Note_off_c, 0, 63, 100
1, 35006, Note_on_c, 0, 65, 100
1, 35070, Note_off_c, 0, 65, 100
1, 35070, Note_on_c, 0, 68, 100
1, 35230, Note_off_c, 0, 68, 100
1, 35230, Note_on_c, 0, 71, 100
1, 35326, Note_off_c, 0, 71, 100
1, 35326, Note_on_c, 0, 74, 100
1, 35390, Note_off_c, 0, 74, 100
1, 35390, Note_on_c, 0, 73, 100
1, 35454, Note_off_c, 0, 73, 100
1, 35454, Note_on_c, 0, 72, 100
1, 35518, Note_off_c, 0, 72, 100
1, 35518, Note_on_c, 0, 71, 100
1, 35582, Note_off_c, 0, 71, 100
1, 35582, Note_on_c, 0, 69, 100
1, 35646, Note_off_c, 0, 69, 100
1, 35646, Note_on_c, 0, 67, 100
1, 35758, Note_off_c, 0, 67, 100
1, 35758, Note_on_c, 0, 66, 100
1, 35854, Note_off_c, 0, 66, 100
1, 35854, Note_on_c, 0, 65, 100
1, 35950, Note_off_c, 0, 65, 100
1, 35950, Note_on_c, 0, 64, 100
1, 36046, Note_off_c, 0, 64, 100
1, 36046, Note_on_c, 0, 63, 100
1, 36142, Note_off_c, 0, 63, 100
1, 36142, Note_on_c, 0, 67, 100
1, 36238, Note_off_c, 0, 67, 100
1, 36238, Note_on_c, 0, 65, 100
1, 36286, Note_off_c, 0, 65, 100
1, 36286, Note_on_c, 0, 61, 100
1, 36382, Note_off_c, 0, 61, 100
1, 36382, Note_on_c, 0, 58, 100
1, 36478, Note_off_c, 0, 58, 100
1, 36478, Note_on_c, 0, 55, 100
1, 36574, Note_off_c, 0, 55, 100
1, 36574, Note_on_c, 0, 61, 100
1, 36734, Note_off_c, 0, 61, 100
1, 36734, Note_on_c, 0, 58, 100
1, 36798, Note_off_c, 0, 58, 100
1, 36798, Note_on_c, 0, 62, 100
1, 36958, Note_off_c, 0, 62, 100
1, 36958, Note_on_c, 0, 63, 100
1, 37198, Note_off_c, 0, 63, 100
1, 37198, Note_on_c, 0, 64, 100
1, 37342, Note_off_c, 0, 64, 100
1, 37342, Note_on_c, 0, 60, 100
1, 37438, Note_off_c, 0, 60, 100
1, 37438, Note_on_c, 0, 65, 100
1, 37534, Note_off_c, 0, 65, 100
1, 38270, Note_on_c, 0, 53, 100
1, 38590, Note_off_c, 0, 53, 100
1, 38590, Note_on_c, 0, 58, 100
1, 38686, Note_off_c, 0, 58, 100
1, 38686, Note_on_c, 0, 53, 100
1, 38734, Note_off_c, 0, 53, 100
1, 38734, Note_on_c, 0, 60, 100
1, 38830, Note_off_c, 0, 60, 100
1, 39310, Note_on_c, 0, 53, 100
1, 39550, Note_off_c, 0, 53, 100
1, 39550, Note_on_c, 0, 58, 100
1, 39646, Note_off_c, 0, 58, 100
1, 40126, Note_on_c, 0, 54, 100
1, 40462, Note_off_c, 0, 54, 100
1, 40462, Note_on_c, 0, 59, 100
1, 40574, Note_off_c, 0, 59, 100
1, 40574, Note_on_c, 0, 54, 100
1, 40638, Note_off_c, 0, 54, 100
1, 40638, Note_on_c, 0, 61, 100
1, 40702, Note_off_c, 0, 61, 100
1, 40702, Note_on_c, 0, 63, 100
1, 40798, Note_off_c, 0, 63, 100
1, 40798, Note_on_c, 0, 64, 100
1, 40894, Note_off_c, 0, 64, 100
1, 41374, Note_on_c, 0, 66, 100
1, 41470, Note_off_c, 0, 66, 100
1, 41470, Note_on_c, 0, 63, 100
1, 41566, Note_off_c, 0, 63, 100
1, 41566, Note_on_c, 0, 61, 100
1, 41662, Note_off_c, 0, 61, 100
1, 41662, Note_on_c, 0, 59, 100
1, 41726, Note_off_c, 0, 59, 100
1, 41726, Note_on_c, 0, 58, 100
1, 41854, Note_off_c, 0, 58, 100
1, 41854, Note_on_c, 0, 59, 100
1, 41950, Note_off_c, 0, 59, 100
1, 41950, Note_on_c, 0, 61, 100
1, 42046, Note_off_c, 0, 61, 100
1, 42046, Note_on_c, 0, 63, 100
1, 42142, Note_off_c, 0, 63, 100
1, 42142, Note_on_c, 0, 66, 100
1, 42238, Note_off_c, 0, 66, 100
1, 42238, Note_on_c, 0, 65, 100
1, 42286, Note_off_c, 0, 65, 100
1, 42286, Note_on_c, 0, 64, 100
1, 42382, Note_off_c, 0, 64, 100
1, 42382, Note_on_c, 0, 63, 100
1, 42478, Note_off_c, 0, 63, 100
1, 42478, Note_on_c, 0, 67, 100
1, 42574, Note_off_c, 0, 67, 100
1, 42574, Note_on_c, 0, 62, 100
1, 42718, Note_off_c, 0, 62, 100
1, 42718, Note_on_c, 0, 64, 100
1, 42814, Note_off_c, 0, 64, 100
1, 42814, Note_on_c, 0, 65, 100
1, 42910, Note_off_c, 0, 65, 100
1, 42910, Note_on_c, 0, 62, 100
1, 43006, Note_off_c, 0, 62, 100
1, 43006, Note_on_c, 0, 63, 100
1, 43102, Note_off_c, 0, 63, 100
1, 43102, Note_on_c, 0, 61, 100
1, 43198, Note_off_c, 0, 61, 100
1, 43198, Note_on_c, 0, 62, 100
1, 43294, Note_off_c, 0, 62, 100
1, 43294, Note_on_c, 0, 60, 100
1, 43390, Note_off_c, 0, 60, 100
1, 43390, Note_on_c, 0, 59, 100
1, 43454, Note_off_c, 0, 59, 100
1, 43454, Note_on_c, 0, 62, 100
1, 43518, Note_off_c, 0, 62, 100
1, 43518, Note_on_c, 0, 65, 100
1, 43678, Note_off_c, 0, 65, 100
1, 43678, Note_on_c, 0, 62, 100
1, 43726, Note_off_c, 0, 62, 100
1, 43726, Note_on_c, 0, 67, 100
1, 43822, Note_off_c, 0, 67, 100
1, 43822, Note_on_c, 0, 66, 100
1, 43918, Note_off_c, 0, 66, 100
1, 43918, Note_on_c, 0, 65, 100
1, 44014, Note_off_c, 0, 65, 100
1, 44014, Note_on_c, 0, 64, 100
1, 44110, Note_off_c, 0, 64, 100
1, 44110, Note_on_c, 0, 63, 100
1, 44222, Note_off_c, 0, 63, 100
1, 44222, Note_on_c, 0, 65, 100
1, 44286, Note_off_c, 0, 65, 100
1, 44286, Note_on_c, 0, 67, 100
1, 44350, Note_off_c, 0, 67, 100
1, 44350, Note_on_c, 0, 70, 100
1, 44446, Note_off_c, 0, 70, 100
1, 44446, Note_on_c, 0, 74, 100
1, 44542, Note_off_c, 0, 74, 100
1, 44542, Note_on_c, 0, 77, 100
1, 44686, Note_off_c, 0, 77, 100
1, 44686, Note_on_c, 0, 76, 100
1, 44734, Note_off_c, 0, 76, 100
1, 44734, Note_on_c, 0, 75, 100
1, 44830, Note_off_c, 0, 75, 100
1, 44830, Note_on_c, 0, 74, 100
1, 44926, Note_off_c, 0, 74, 100
1, 44926, Note_on_c, 0, 72, 100
1, 45022, Note_off_c, 0, 72, 100
1, 45022, Note_on_c, 0, 70, 100
1, 45118, Note_off_c, 0, 70, 100
1, 45118, Note_on_c, 0, 69, 100
1, 45214, Note_off_c, 0, 69, 100
1, 45214, Note_on_c, 0, 67, 100
1, 45310, Note_off_c, 0, 67, 100
1, 45310, Note_on_c, 0, 65, 100
1, 45358, Note_off_c, 0, 65, 100
1, 45358, Note_on_c, 0, 64, 100
1, 45454, Note_off_c, 0, 64, 100
1, 45454, Note_on_c, 0, 63, 100
1, 45550, Note_off_c, 0, 63, 100
1, 45550, Note_on_c, 0, 67, 100
1, 45646, Note_off_c, 0, 67, 100
1, 45646, Note_on_c, 0, 62, 100
1, 45694, Note_off_c, 0, 62, 100
1, 45694, Note_on_c, 0, 61, 100
1, 45886, Note_off_c, 0, 61, 100
1, 45886, Note_on_c, 0, 60, 100
1, 45982, Note_off_c, 0, 60, 100
1, 45982, Note_on_c, 0, 59, 100
1, 46078, Note_off_c, 0, 59, 100
1, 46078, Note_on_c, 0, 58, 100
1, 46174, Note_off_c, 0, 58, 100
1, 46174, Note_on_c, 0, 55, 100
1, 46270, Note_off_c, 0, 55, 100
1, 46270, Note_on_c, 0, 51, 100
1, 46366, Note_off_c, 0, 51, 100
1, 46366, Note_on_c, 0, 50, 100
1, 46462, Note_off_c, 0, 50, 100
1, 46462, Note_on_c, 0, 49, 100
1, 46558, Note_off_c, 0, 49, 100
1, 46558, Note_on_c, 0, 52, 100
1, 46606, Note_off_c, 0, 52, 100
1, 46606, Note_on_c, 0, 57, 100
1, 46702, Note_off_c, 0, 57, 100
1, 46702, Note_on_c, 0, 55, 100
1, 46798, Note_off_c, 0, 55, 100
1, 46798, Note_on_c, 0, 54, 100
1, 46942, Note_off_c, 0, 54, 100
1, 46942, Note_on_c, 0, 52, 100
1, 46990, Note_off_c, 0, 52, 100
1, 46990, Note_on_c, 0, 53, 100
1, 47134, Note_off_c, 0, 53, 100
1, 47134, Note_on_c, 0, 51, 100
1, 47230, Note_off_c, 0, 51, 100
1, 47230, Note_on_c, 0, 50, 100
1, 47326, Note_off_c, 0, 50, 100
1, 47326, Note_on_c, 0, 48, 100
1, 47374, Note_off_c, 0, 48, 100
1, 47374, Note_on_c, 0, 46, 100
1, 47422, Note_off_c, 0, 46, 100
1, 47422, Note_on_c, 0, 45, 100
1, 47614, Note_off_c, 0, 45, 100
1, 47614, Note_on_c, 0, 44, 100
1, 47806, Note_off_c, 0, 44, 100
1, 47806, Note_on_c, 0, 51, 100
1, 47934, Note_off_c, 0, 51, 100
1, 47934, Note_on_c, 0, 44, 100
1, 47998, Note_off_c, 0, 44, 100
1, 47998, Note_on_c, 0, 46, 100
1, 48190, Note_off_c, 0, 46, 100
1, 48190, Note_on_c, 0, 53, 100
1, 48286, Note_off_c, 0, 53, 100
1, 49006, Note_on_c, 0, 73, 100
1, 49102, Note_off_c, 0, 73, 100
1, 49102, Note_on_c, 0, 71, 100
1, 49198, Note_off_c, 0, 71, 100
1, 49198, Note_on_c, 0, 66, 100
1, 49294, Note_off_c, 0, 66, 100
1, 49294, Note_on_c, 0, 69, 100
1, 49406, Note_off_c, 0, 69, 100
1, 49406, Note_on_c, 0, 66, 100
1, 49470, Note_off_c, 0, 66, 100
1, 49470, Note_on_c, 0, 68, 100
1, 49582, Note_off_c, 0, 68, 100
1, 49582, Note_on_c, 0, 71, 100
1, 49630, Note_off_c, 0, 71, 100
1, 49630, Note_on_c, 0, 70, 100
1, 49678, Note_off_c, 0, 70, 100
1, 49678, Note_on_c, 0, 69, 100
1, 49774, Note_off_c, 0, 69, 100
1, 49774, Note_on_c, 0, 68, 100
1, 49870, Note_off_c, 0, 68, 100
1, 49870, Note_on_c, 0, 67, 100
1, 49966, Note_off_c, 0, 67, 100
1, 49966, Note_on_c, 0, 69, 100
1, 50062, Note_off_c, 0, 69, 100
1, 50062, Note_on_c, 0, 65, 100
1, 50158, Note_off_c, 0, 65, 100
1, 50158, Note_on_c, 0, 64, 100
1, 50254, Note_off_c, 0, 64, 100
1, 50254, Note_on_c, 0, 63, 100
1, 50350, Note_off_c, 0, 63, 100
1, 50350, Note_on_c, 0, 65, 100
1, 50446, Note_off_c, 0, 65, 100
1, 50446, Note_on_c, 0, 67, 100
1, 50542, Note_off_c, 0, 67, 100
1, 50542, Note_on_c, 0, 70, 100
1, 50638, Note_off_c, 0, 70, 100
1, 50638, Note_on_c, 0, 71, 100
1, 50686, Note_off_c, 0, 71, 100
1, 50686, Note_on_c, 0, 73, 100
1, 50830, Note_off_c, 0, 73, 100
1, 50830, Note_on_c, 0, 70, 100
1, 50942, Note_off_c, 0, 70, 100
1, 50942, Note_on_c, 0, 66, 100
1, 51070, Note_off_c, 0, 66, 100
1, 51070, Note_on_c, 0, 65, 100
1, 51118, Note_off_c, 0, 65, 100
1, 51118, Note_on_c, 0, 64, 100
1, 51214, Note_off_c, 0, 64, 100
1, 51214, Note_on_c, 0, 63, 100
1, 51326, Note_off_c, 0, 63, 100
1, 51326, Note_on_c, 0, 65, 100
1, 51454, Note_off_c, 0, 65, 100
1, 51454, Note_on_c, 0, 64, 100
1, 51550, Note_off_c, 0, 64, 100
1, 51550, Note_on_c, 0, 65, 100
1, 51598, Note_off_c, 0, 65, 100
1, 51598, Note_on_c, 0, 69, 100
1, 51742, Note_off_c, 0, 69, 100
1, 51742, Note_on_c, 0, 72, 100
1, 51838, Note_off_c, 0, 72, 100
1, 51838, Note_on_c, 0, 76, 100
1, 51902, Note_off_c, 0, 76, 100
1, 51902, Note_on_c, 0, 72, 100
1, 51966, Note_off_c, 0, 72, 100
1, 51966, Note_on_c, 0, 69, 100
1, 52174, Note_off_c, 0, 69, 100
1, 52174, Note_on_c, 0, 70, 100
1, 52286, Note_off_c, 0, 70, 100
1, 52286, Note_on_c, 0, 75, 100
1, 52350, Note_off_c, 0, 75, 100
1, 52350, Note_on_c, 0, 73, 100
1, 52510, Note_off_c, 0, 73, 100
1, 52510, Note_on_c, 0, 71, 100
1, 52606, Note_off_c, 0, 71, 100
1, 52606, Note_on_c, 0, 70, 100
1, 52702, Note_off_c, 0, 70, 100
1, 52702, Note_on_c, 0, 68, 100
1, 52798, Note_off_c, 0, 68, 100
1, 52798, Note_on_c, 0, 67, 100
1, 52894, Note_off_c, 0, 67, 100
1, 52894, Note_on_c, 0, 65, 100
1, 52990, Note_off_c, 0, 65, 100
1, 52990, Note_on_c, 0, 64, 100
1, 53134, Note_off_c, 0, 64, 100
1, 53134, Note_on_c, 0, 70, 100
1, 53230, Note_off_c, 0, 70, 100
1, 53230, Note_on_c, 0, 74, 100
1, 53326, Note_off_c, 0, 74, 100
1, 53326, Note_on_c, 0, 63, 100
1, 53566, Note_off_c, 0, 63, 100
1, 53566, Note_on_c, 0, 69, 100
1, 53662, Note_off_c, 0, 69, 100
1, 53662, Note_on_c, 0, 73, 100
1, 53710, Note_off_c, 0, 73, 100
1, 53710, Note_on_c, 0, 71, 100
1, 53806, Note_off_c, 0, 71, 100
1, 53806, Note_on_c, 0, 69, 100
1, 53902, Note_off_c, 0, 69, 100
1, 53902, Note_on_c, 0, 68, 100
1, 53998, Note_off_c, 0, 68, 100
1, 53998, Note_on_c, 0, 66, 100
1, 54094, Note_off_c, 0, 66, 100
1, 54094, Note_on_c, 0, 65, 100
1, 54190, Note_off_c, 0, 65, 100
1, 54190, Note_on_c, 0, 64, 100
1, 54286, Note_off_c, 0, 64, 100
1, 54286, Note_on_c, 0, 63, 100
1, 54382, Note_off_c, 0, 63, 100
1, 54382, Note_on_c, 0, 67, 100
1, 54478, Note_off_c, 0, 67, 100
1, 54478, Note_on_c, 0, 62, 100
1, 54590, Note_off_c, 0, 62, 100
1, 54590, Note_on_c, 0, 60, 100
1, 54654, Note_off_c, 0, 60, 100
1, 54654, Note_on_c, 0, 56, 100
1, 54782, Note_off_c, 0, 56, 100
1, 54782, Note_on_c, 0, 53, 100
1, 54846, Note_off_c, 0, 53, 100
1, 54846, Note_on_c, 0, 58, 100
1, 54942, Note_off_c, 0, 58, 100
1, 55918, Note_on_c, 0, 53, 100
1, 56206, Note_off_c, 0, 53, 100
1, 56206, Note_on_c, 0, 58, 100
1, 56398, Note_off_c, 0, 58, 100
1, 56398, Note_on_c, 0, 60, 100
1, 56590, Note_off_c, 0, 60, 100
1, 56590, Note_on_c, 0, 65, 100
1, 56782, Note_off_c, 0, 65, 100
1, 56782, Note_on_c, 0, 63, 100
1, 57022, Note_off_c, 0, 63, 100
1, 57022, Note_on_c, 0, 67, 100
1, 57166, Note_off_c, 0, 67, 100
1, 57166, Note_on_c, 0, 65, 100
1, 57310, Note_off_c, 0, 65, 100
1, 57310, Note_on_c, 0, 67, 100
1, 57406, Note_off_c, 0, 67, 100
1, 57406, Note_on_c, 0, 68, 100
1, 57742, Note_off_c, 0, 68, 100
1, 57742, Note_on_c, 0, 67, 100
1, 57838, Note_off_c, 0, 67, 100
1, 57838, Note_on_c, 0, 66, 100
1, 57934, Note_off_c, 0, 66, 100
1, 57934, Note_on_c, 0, 65, 100
1, 58030, Note_off_c, 0, 65, 100
1, 58030, Note_on_c, 0, 64, 100
1, 58126, Note_off_c, 0, 64, 100
1, 58126, Note_on_c, 0, 63, 100
1, 58222, Note_off_c, 0, 63, 100
1, 58222, Note_on_c, 0, 67, 100
1, 58318, Note_off_c, 0, 67, 100
1, 58318, Note_on_c, 0, 64, 100
1, 58462, Note_off_c, 0, 64, 100
1, 58462, Note_on_c, 0, 61, 100
1, 58510, Note_off_c, 0, 61, 100
1, 58510, Note_on_c, 0, 56, 100
1, 58622, Note_off_c, 0, 56, 100
1, 58622, Note_on_c, 0, 53, 100
1, 58686, Note_off_c, 0, 53, 100
1, 58686, Note_on_c, 0, 58, 100
1, 58894, Note_off_c, 0, 58, 100
1, 58894, Note_on_c, 0, 54, 100
1, 58990, Note_off_c, 0, 54, 100
1, 58990, Note_on_c, 0, 57, 100
1, 59086, Note_off_c, 0, 57, 100
1, 59086, Note_on_c, 0, 52, 100
1, 59134, Note_off_c, 0, 52, 100
1, 59134, Note_on_c, 0, 54, 100
1, 59326, Note_off_c, 0, 54, 100
1, 59326, Note_on_c, 0, 57, 100
1, 59422, Note_off_c, 0, 57, 100
1, 59422, Note_on_c, 0, 59, 100
1, 59470, Note_off_c, 0, 59, 100
1, 59470, Note_on_c, 0, 64, 100
1, 59566, Note_off_c, 0, 64, 100
1, 59566, Note_on_c, 0, 62, 100
1, 59662, Note_off_c, 0, 62, 100
1, 59662, Note_on_c, 0, 59, 100
1, 59758, Note_off_c, 0, 59, 100
1, 59758, Note_on_c, 0, 57, 100
1, 59854, Note_off_c, 0, 57, 100
1, 59854, Note_on_c, 0, 53, 100
1, 59950, Note_off_c, 0, 53, 100
1, 59950, Note_on_c, 0, 57, 100
1, 60046, Note_off_c, 0, 57, 100
1, 60046, Note_on_c, 0, 59, 100
1, 60142, Note_off_c, 0, 59, 100
1, 60142, Note_on_c, 0, 62, 100
1, 60238, Note_off_c, 0, 62, 100
1, 60238, Note_on_c, 0, 58, 100
1, 60334, Note_off_c, 0, 58, 100
1, 60334, Note_on_c, 0, 55, 100
1, 60430, Note_off_c, 0, 55, 100
1, 60430, Note_on_c, 0, 56, 100
1, 60526, Note_off_c, 0, 56, 100
1, 60526, Note_on_c, 0, 58, 100
1, 60622, Note_off_c, 0, 58, 100
1, 60622, Note_on_c, 0, 59, 100
1, 60766, Note_off_c, 0, 59, 100
1, 60766, Note_on_c, 0, 61, 100
1, 60862, Note_off_c, 0, 61, 100
1, 60862, Note_on_c, 0, 63, 100
1, 60958, Note_off_c, 0, 63, 100
1, 60958, Note_on_c, 0, 66, 100
1, 61054, Note_off_c, 0, 66, 100
1, 61054, Note_on_c, 0, 67, 100
1, 61102, Note_off_c, 0, 67, 100
1, 61102, Note_on_c, 0, 66, 100
1, 61198, Note_off_c, 0, 66, 100
1, 61198, Note_on_c, 0, 63, 100
1, 61342, Note_off_c, 0, 63, 100
1, 61342, Note_on_c, 0, 59, 100
1, 61390, Note_off_c, 0, 59, 100
1, 61390, Note_on_c, 0, 65, 100
1, 61486, Note_off_c, 0, 65, 100
1, 61486, Note_on_c, 0, 64, 100
1, 61582, Note_off_c, 0, 64, 100
1, 61582, Note_on_c, 0, 61, 100
1, 61726, Note_off_c, 0, 61, 100
1, 61726, Note_on_c, 0, 58, 100
1, 61822, Note_off_c, 0, 58, 100
1, 61822, Note_on_c, 0, 63, 100
1, 61918, Note_off_c, 0, 63, 100
1, 61918, Note_on_c, 0, 62, 100
1, 62014, Note_off_c, 0, 62, 100
1, 62014, Note_on_c, 0, 59, 100
1, 62110, Note_off_c, 0, 59, 100
1, 62462, Note_on_c, 0, 68, 100
1, 62526, Note_off_c, 0, 68, 100
1, 62526, Note_on_c, 0, 70, 100
1, 62638, Note_off_c, 0, 70, 100
1, 62638, Note_on_c, 0, 68, 100
1, 62734, Note_off_c, 0, 68, 100
1, 62734, Note_on_c, 0, 65, 100
1, 62878, Note_off_c, 0, 65, 100
1, 62878, Note_on_c, 0, 62, 100
1, 62974, Note_off_c, 0, 62, 100
1, 62974, Note_on_c, 0, 71, 100
1, 63022, Note_off_c, 0, 71, 100
1, 63022, Note_on_c, 0, 70, 100
1, 63118, Note_off_c, 0, 70, 100
1, 63118, Note_on_c, 0, 67, 100
1, 63262, Note_off_c, 0, 67, 100
1, 63262, Note_on_c, 0, 63, 100
1, 63358, Note_off_c, 0, 63, 100
1, 63358, Note_on_c, 0, 69, 100
1, 63454, Note_off_c, 0, 69, 100
1, 63838, Note_on_c, 0, 68, 100
1, 63934, Note_off_c, 0, 68, 100
1, 64382, Note_on_c, 0, 66, 100
1, 64446, Note_off_c, 0, 66, 100
1, 64446, Note_on_c, 0, 67, 100
1, 64558, Note_off_c, 0, 67, 100
1, 64558, Note_on_c, 0, 66, 100
1, 64654, Note_off_c, 0, 66, 100
1, 64654, Note_on_c, 0, 63, 100
1, 64798, Note_off_c, 0, 63, 100
1, 64798, Note_on_c, 0, 59, 100
1, 64846, Note_off_c, 0, 59, 100
1, 64846, Note_on_c, 0, 65, 100
1, 64942, Note_off_c, 0, 65, 100
1, 65374, Note_on_c, 0, 64, 100
1, 65470, Note_off_c, 0, 64, 100
1, 65950, Note_on_c, 0, 62, 100
1, 66046, Note_off_c, 0, 62, 100
1, 66046, Note_on_c, 0, 63, 100
1, 66142, Note_off_c, 0, 63, 100
1, 66142, Note_on_c, 0, 62, 100
1, 66238, Note_off_c, 0, 62, 100
1, 66238, Note_on_c, 0, 59, 100
1, 66430, Note_off_c, 0, 59, 100
1, 66430, Note_on_c, 0, 61, 100
1, 66526, Note_off_c, 0, 61, 100
1, 66526, Note_on_c, 0, 57, 100
1, 66622, Note_off_c, 0, 57, 100
1, 66622, Note_on_c, 0, 53, 100
1, 66718, Note_off_c, 0, 53, 100
1, 67070, Note_on_c, 0, 70, 100
1, 67134, Note_off_c, 0, 70, 100
1, 67134, Note_on_c, 0, 71, 100
1, 67230, Note_off_c, 0, 71, 100
1, 67486, Note_on_c, 0, 70, 100
1, 67582, Note_off_c, 0, 70, 100
1, 67870, Note_on_c, 0, 72, 100
1, 67918, Note_off_c, 0, 72, 100
1, 67918, Note_on_c, 0, 73, 100
1, 68014, Note_off_c, 0, 73, 100
1, 68254, Note_on_c, 0, 69, 100
1, 68350, Note_off_c, 0, 69, 100
1, 68638, Note_on_c, 0, 69, 100
1, 68830, Note_off_c, 0, 69, 100
1, 68830, Note_on_c, 0, 69, 100
1, 68990, Note_off_c, 0, 69, 100
1, 68990, Note_on_c, 0, 64, 100
1, 69054, Note_off_c, 0, 64, 100
1, 69054, Note_on_c, 0, 69, 100
1, 69166, Note_off_c, 0, 69, 100
1, 69166, Note_on_c, 0, 64, 100
1, 69214, Note_off_c, 0, 64, 100
1, 69214, Note_on_c, 0, 69, 100
1, 69310, Note_off_c, 0, 69, 100
1, 69310, Note_on_c, 0, 71, 100
1, 69406, Note_off_c, 0, 71, 100
1, 69406, Note_on_c, 0, 73, 100
1, 69502, Note_off_c, 0, 73, 100
1, 69502, Note_on_c, 0, 71, 100
1, 69598, Note_off_c, 0, 71, 100
1, 69598, Note_on_c, 0, 69, 100
1, 69758, Note_off_c, 0, 69, 100
1, 69758, Note_on_c, 0, 65, 100
1, 69822, Note_off_c, 0, 65, 100
1, 69822, Note_on_c, 0, 69, 100
1, 69886, Note_off_c, 0, 69, 100
1, 69886, Note_on_c, 0, 62, 100
1, 69982, Note_off_c, 0, 62, 100
1, 69982, Note_on_c, 0, 67, 100
1, 70126, Note_off_c, 0, 67, 100
1, 70126, Note_on_c, 0, 69, 100
1, 70222, Note_off_c, 0, 69, 100
1, 70222, Note_on_c, 0, 71, 100
1, 70318, Note_off_c, 0, 71, 100
1, 70318, Note_on_c, 0, 69, 100
1, 70414, Note_off_c, 0, 69, 100
1, 70414, Note_on_c, 0, 67, 100
1, 70526, Note_off_c, 0, 67, 100
1, 70526, Note_on_c, 0, 62, 100
1, 70590, Note_off_c, 0, 62, 100
1, 70590, Note_on_c, 0, 67, 100
1, 70718, Note_off_c, 0, 67, 100
1, 70718, Note_on_c, 0, 60, 100
1, 70782, Note_off_c, 0, 60, 100
1, 70782, Note_on_c, 0, 65, 100
1, 70910, Note_off_c, 0, 65, 100
1, 70910, Note_on_c, 0, 67, 100
1, 70974, Note_off_c, 0, 67, 100
1, 70974, Note_on_c, 0, 69, 100
1, 71086, Note_off_c, 0, 69, 100
1, 71086, Note_on_c, 0, 67, 100
1, 71182, Note_off_c, 0, 67, 100
1, 71182, Note_on_c, 0, 65, 100
1, 71326, Note_off_c, 0, 65, 100
1, 71326, Note_on_c, 0, 60, 100
1, 71374, Note_off_c, 0, 60, 100
1, 71374, Note_on_c, 0, 67, 100
1, 71486, Note_off_c, 0, 67, 100
1, 71486, Note_on_c, 0, 66, 100
1, 71550, Note_off_c, 0, 66, 100
1, 71550, Note_on_c, 0, 63, 100
1, 71662, Note_off_c, 0, 63, 100
1, 71662, Note_on_c, 0, 67, 100
1, 71758, Note_off_c, 0, 67, 100
1, 71758, Note_on_c, 0, 63, 100
1, 71806, Note_off_c, 0, 63, 100
1, 71806, Note_on_c, 0, 65, 100
1, 71902, Note_off_c, 0, 65, 100
1, 71902, Note_on_c, 0, 67, 100
1, 72046, Note_off_c, 0, 67, 100
1, 72046, Note_on_c, 0, 70, 100
1, 72142, Note_off_c, 0, 70, 100
1, 72142, Note_on_c, 0, 72, 100
1, 72190, Note_off_c, 0, 72, 100
1, 72190, Note_on_c, 0, 73, 100
1, 72238, Note_off_c, 0, 73, 100
1, 72238, Note_on_c, 0, 72, 100
1, 72334, Note_off_c, 0, 72, 100
1, 72334, Note_on_c, 0, 71, 100
1, 72430, Note_off_c, 0, 71, 100
1, 72430, Note_on_c, 0, 69, 100
1, 72526, Note_off_c, 0, 69, 100
1, 72526, Note_on_c, 0, 68, 100
1, 72622, Note_off_c, 0, 68, 100
1, 72622, Note_on_c, 0, 66, 100
1, 72718, Note_off_c, 0, 66, 100
1, 72718, Note_on_c, 0, 65, 100
1, 72830, Note_off_c, 0, 65, 100
1, 72830, Note_on_c, 0, 64, 100
1, 72894, Note_off_c, 0, 64, 100
1, 72894, Note_on_c, 0, 63, 100
1, 72958, Note_off_c, 0, 63, 100
1, 72958, Note_on_c, 0, 65, 100
1, 73054, Note_off_c, 0, 65, 100
1, 73054, Note_on_c, 0, 62, 100
1, 73214, Note_off_c, 0, 62, 100
1, 73214, Note_on_c, 0, 60, 100
1, 73278, Note_off_c, 0, 60, 100
1, 73278, Note_on_c, 0, 59, 100
1, 73406, Note_off_c, 0, 59, 100
1, 73406, Note_on_c, 0, 67, 100
1, 73470, Note_off_c, 0, 67, 100
1, 73470, Note_on_c, 0, 66, 100
1, 73534, Note_off_c, 0, 66, 100
1, 73534, Note_on_c, 0, 66, 100
1, 73630, Note_off_c, 0, 66, 100
1, 73630, Note_on_c, 0, 65, 100
1, 73726, Note_off_c, 0, 65, 100
1, 73726, Note_on_c, 0, 64, 100
1, 73822, Note_off_c, 0, 64, 100
1, 73822, Note_on_c, 0, 63, 100
1, 73918, Note_off_c, 0, 63, 100
1, 73918, Note_on_c, 0, 65, 100
1, 74014, Note_off_c, 0, 65, 100
1, 74014, Note_on_c, 0, 62, 100
1, 74110, Note_off_c, 0, 62, 100
1, 74110, Note_on_c, 0, 63, 100
1, 74206, Note_off_c, 0, 63, 100
1, 74206, Note_on_c, 0, 65, 100
1, 74302, Note_off_c, 0, 65, 100
1, 74302, Note_on_c, 0, 62, 100
1, 74398, Note_off_c, 0, 62, 100
1, 74398, Note_on_c, 0, 63, 100
1, 74542, Note_off_c, 0, 63, 100
1, 74542, Note_on_c, 0, 62, 100
1, 74638, Note_off_c, 0, 62, 100
1, 75022, Note_on_c, 0, 63, 100
1, 75134, Note_off_c, 0, 63, 100
1, 75134, Note_on_c, 0, 62, 100
1, 75230, Note_off_c, 0, 62, 100
1, 75646, Note_on_c, 0, 63, 100
1, 75742, Note_off_c, 0, 63, 100
1, 75742, Note_on_c, 0, 62, 100
1, 75838, Note_off_c, 0, 62, 100
1, 75838, Note_on_c, 0, 58, 100
1, 75902, Note_off_c, 0, 58, 100
1, 75902, Note_on_c, 0, 55, 100
1, 75966, Note_off_c, 0, 55, 100
1, 75966, Note_on_c, 0, 63, 100
1, 76078, Note_off_c, 0, 63, 100
1, 76078, Note_on_c, 0, 61, 100
1, 76174, Note_off_c, 0, 61, 100
1, 76174, Note_on_c, 0, 56, 100
1, 76366, Note_off_c, 0, 56, 100
1, 76366, Note_on_c, 0, 63, 100
1, 76478, Note_off_c, 0, 63, 100
1, 76478, Note_on_c, 0, 62, 100
1, 76574, Note_off_c, 0, 62, 100
1, 76894, Note_on_c, 0, 63, 100
1, 76990, Note_off_c, 0, 63, 100
1, 76990, Note_on_c, 0, 62, 100
1, 77086, Note_off_c, 0, 62, 100
1, 77470, Note_on_c, 0, 63, 100
1, 77614, Note_off_c, 0, 63, 100
1, 77614, Note_on_c, 0, 61, 100
1, 77710, Note_off_c, 0, 61, 100
1, 77710, Note_on_c, 0, 58, 100
1, 77854, Note_off_c, 0, 58, 100
1, 77854, Note_on_c, 0, 61, 100
1, 77998, Note_off_c, 0, 61, 100
1, 77998, Note_on_c, 0, 63, 100
1, 78094, Note_off_c, 0, 63, 100
1, 78094, Note_on_c, 0, 65, 100
1, 78206, Note_off_c, 0, 65, 100
1, 78206, Note_on_c, 0, 61, 100
1, 78270, Note_off_c, 0, 61, 100
1, 78270, Note_on_c, 0, 63, 100
1, 78382, Note_off_c, 0, 63, 100
1, 78382, Note_on_c, 0, 61, 100
1, 78478, Note_off_c, 0, 61, 100
1, 78478, Note_on_c, 0, 58, 100
1, 78622, Note_off_c, 0, 58, 100
1, 78622, Note_on_c, 0, 64, 100
1, 78718, Note_off_c, 0, 64, 100
1, 78718, Note_on_c, 0, 61, 100
1, 78814, Note_off_c, 0, 61, 100
1, 78814, Note_on_c, 0, 59, 100
1, 78958, Note_off_c, 0, 59, 100
1, 78958, Note_on_c, 0, 54, 100
1, 79006, Note_off_c, 0, 54, 100
1, 79006, Note_on_c, 0, 57, 100
1, 79102, Note_off_c, 0, 57, 100
1, 79102, Note_on_c, 0, 54, 100
1, 79198, Note_off_c, 0, 54, 100
1, 79198, Note_on_c, 0, 52, 100
1, 79294, Note_off_c, 0, 52, 100
1, 79294, Note_on_c, 0, 54, 100
1, 79390, Note_off_c, 0, 54, 100
1, 79390, Note_on_c, 0, 52, 100
1, 79486, Note_off_c, 0, 52, 100
1, 79486, Note_on_c, 0, 54, 100
1, 79582, Note_off_c, 0, 54, 100
1, 79582, Note_on_c, 0, 57, 100
1, 79742, Note_off_c, 0, 57, 100
1, 79742, Note_on_c, 0, 59, 100
1, 79806, Note_off_c, 0, 59, 100
1, 79806, Note_on_c, 0, 61, 100
1, 79918, Note_off_c, 0, 61, 100
1, 79918, Note_on_c, 0, 66, 100
1, 80014, Note_off_c, 0, 66, 100
1, 80014, Note_on_c, 0, 64, 100
1, 80062, Note_off_c, 0, 64, 100
1, 80062, Note_on_c, 0, 61, 100
1, 80158, Note_off_c, 0, 61, 100
1, 80158, Note_on_c, 0, 59, 100
1, 80302, Note_off_c, 0, 59, 100
1, 80302, Note_on_c, 0, 61, 100
1, 80350, Note_off_c, 0, 61, 100
1, 80350, Note_on_c, 0, 64, 100
1, 80446, Note_off_c, 0, 64, 100
1, 80446, Note_on_c, 0, 66, 100
1, 80542, Note_off_c, 0, 66, 100
1, 80542, Note_on_c, 0, 60, 100
1, 80638, Note_off_c, 0, 60, 100
1, 80638, Note_on_c, 0, 67, 100
1, 80734, Note_off_c, 0, 67, 100
1, 80734, Note_on_c, 0, 65, 100
1, 80878, Note_off_c, 0, 65, 100
1, 80878, Note_on_c, 0, 62, 100
1, 80974, Note_off_c, 0, 62, 100
1, 80974, Note_on_c, 0, 60, 100
1, 81118, Note_off_c, 0, 60, 100
1, 81118, Note_on_c, 0, 62, 100
1, 81214, Note_off_c, 0, 62, 100
1, 81214, Note_on_c, 0, 65, 100
1, 81262, Note_off_c, 0, 65, 100
1, 81262, Note_on_c, 0, 67, 100
1, 81358, Note_off_c, 0, 67, 100
1, 81358, Note_on_c, 0, 63, 100
1, 81502, Note_off_c, 0, 63, 100
1, 81502, Note_on_c, 0, 67, 100
1, 81598, Note_off_c, 0, 67, 100
1, 81598, Note_on_c, 0, 65, 100
1, 81694, Note_off_c, 0, 65, 100
1, 81982, Note_on_c, 0, 63, 100
1, 82078, Note_off_c, 0, 63, 100
1, 82078, Note_on_c, 0, 68, 100
1, 82174, Note_off_c, 0, 68, 100
1, 82174, Note_on_c, 0, 66, 100
1, 82270, Note_off_c, 0, 66, 100
1, 82270, Note_on_c, 0, 63, 100
1, 82366, Note_off_c, 0, 63, 100
1, 82366, Note_on_c, 0, 61, 100
1, 82462, Note_off_c, 0, 61, 100
1, 82462, Note_on_c, 0, 63, 100
1, 82558, Note_off_c, 0, 63, 100
1, 82558, Note_on_c, 0, 66, 100
1, 82654, Note_off_c, 0, 66, 100
1, 82654, Note_on_c, 0, 68, 100
1, 82750, Note_off_c, 0, 68, 100
1, 82750, Note_on_c, 0, 64, 100
1, 82846, Note_off_c, 0, 64, 100
1, 82846, Note_on_c, 0, 69, 100
1, 82942, Note_off_c, 0, 69, 100
1, 82942, Note_on_c, 0, 67, 100
1, 83038, Note_off_c, 0, 67, 100
1, 83038, Note_on_c, 0, 64, 100
1, 83134, Note_off_c, 0, 64, 100
1, 83134, Note_on_c, 0, 62, 100
1, 83230, Note_off_c, 0, 62, 100
1, 83230, Note_on_c, 0, 64, 100
1, 83278, Note_off_c, 0, 64, 100
1, 83278, Note_on_c, 0, 67, 100
1, 83326, Note_off_c, 0, 67, 100
1, 83326, Note_on_c, 0, 69, 100
1, 83518, Note_off_c, 0, 69, 100
1, 83518, Note_on_c, 0, 65, 100
1, 83614, Note_off_c, 0, 65, 100
1, 83614, Note_on_c, 0, 70, 100
1, 83710, Note_off_c, 0, 70, 100
1, 83710, Note_on_c, 0, 67, 100
1, 83774, Note_off_c, 0, 67, 100
1, 83774, Note_on_c, 0, 65, 100
1, 83838, Note_off_c, 0, 65, 100
1, 83838, Note_on_c, 0, 63, 100
1, 83998, Note_off_c, 0, 63, 100
1, 83998, Note_on_c, 0, 68, 100
1, 84094, Note_off_c, 0, 68, 100
1, 84094, Note_on_c, 0, 65, 100
1, 84190, Note_off_c, 0, 65, 100
1, 84190, Note_on_c, 0, 60, 100
1, 84286, Note_off_c, 0, 60, 100
1, 84286, Note_on_c, 0, 58, 100
1, 84382, Note_off_c, 0, 58, 100
1, 84382, Note_on_c, 0, 55, 100
1, 84430, Note_off_c, 0, 55, 100
1, 84430, Note_on_c, 0, 63, 100
1, 84542, Note_off_c, 0, 63, 100
1, 84542, Note_on_c, 0, 60, 100
1, 84606, Note_off_c, 0, 60, 100
1, 84606, Note_on_c, 0, 56, 100
1, 84766, Note_off_c, 0, 56, 100
1, 84766, Note_on_c, 0, 54, 100
1, 84814, Note_off_c, 0, 54, 100
1, 84814, Note_on_c, 0, 58, 100
1, 84862, Note_off_c, 0, 58, 100
1, 84862, Note_on_c, 0, 59, 100
1, 84926, Note_off_c, 0, 59, 100
1, 84926, Note_on_c, 0, 56, 100
1, 84990, Note_off_c, 0, 56, 100
1, 84990, Note_on_c, 0, 53, 100
1, 85054, Note_off_c, 0, 53, 100
1, 85054, Note_on_c, 0, 51, 100
1, 85150, Note_off_c, 0, 51, 100
1, 85150, Note_on_c, 0, 44, 100
1, 85342, Note_off_c, 0, 44, 100
1, 85342, Note_on_c, 0, 46, 100
1, 85534, Note_off_c, 0, 46, 100
1, 86078, Note_on_c, 0, 47, 100
1, 86142, Note_off_c, 0, 47, 100
1, 86142, Note_on_c, 0, 52, 100
1, 86270, Note_off_c, 0, 52, 100
1, 86270, Note_on_c, 0, 50, 100
1, 86334, Note_off_c, 0, 50, 100
1, 86334, Note_on_c, 0, 49, 100
1, 86494, Note_off_c, 0, 49, 100
1, 86494, Note_on_c, 0, 54, 100
1, 86590, Note_off_c, 0, 54, 100
1, 86590, Note_on_c, 0, 57, 100
1, 86686, Note_off_c, 0, 57, 100
1, 86686, Note_on_c, 0, 59, 100
1, 86734, Note_off_c, 0, 59, 100
1, 86734, Note_on_c, 0, 61, 100
1, 86830, Note_off_c, 0, 61, 100
1, 86830, Note_on_c, 0, 60, 100
1, 86926, Note_off_c, 0, 60, 100
1, 86926, Note_on_c, 0, 59, 100
1, 87022, Note_off_c, 0, 59, 100
1, 87022, Note_on_c, 0, 52, 100
1, 87118, Note_off_c, 0, 52, 100
1, 87118, Note_on_c, 0, 59, 100
1, 87358, Note_off_c, 0, 59, 100
1, 87358, Note_on_c, 0, 56, 100
1, 87454, Note_off_c, 0, 56, 100
1, 87454, Note_on_c, 0, 59, 100
1, 87550, Note_off_c, 0, 59, 100
1, 87550, Note_on_c, 0, 58, 100
1, 87646, Note_off_c, 0, 58, 100
1, 87646, Note_on_c, 0, 56, 100
1, 87742, Note_off_c, 0, 56, 100
1, 87742, Note_on_c, 0, 54, 100
1, 87838, Note_off_c, 0, 54, 100
1, 87838, Note_on_c, 0, 54, 100
1, 87934, Note_off_c, 0, 54, 100
1, 87934, Note_on_c, 0, 53, 100
1, 88030, Note_off_c, 0, 53, 100
1, 88030, Note_on_c, 0, 52, 100
1, 88126, Note_off_c, 0, 52, 100
1, 88126, Note_on_c, 0, 51, 100
1, 88222, Note_off_c, 0, 51, 100
1, 88222, Note_on_c, 0, 53, 100
1, 88318, Note_off_c, 0, 53, 100
1, 88318, Note_on_c, 0, 50, 100
1, 88414, Note_off_c, 0, 50, 100
1, 88414, Note_on_c, 0, 53, 100
1, 88510, Note_off_c, 0, 53, 100
1, 88510, Note_on_c, 0, 57, 100
1, 88606, Note_off_c, 0, 57, 100
1, 88606, Note_on_c, 0, 60, 100
1, 88702, Note_off_c, 0, 60, 100
1, 88702, Note_on_c, 0, 58, 100
1, 88798, Note_off_c, 0, 58, 100
1, 88798, Note_on_c, 0, 60, 100
1, 88894, Note_off_c, 0, 60, 100
1, 88894, Note_on_c, 0, 62, 100
1, 88990, Note_off_c, 0, 62, 100
1, 88990, Note_on_c, 0, 65, 100
1, 89086, Note_off_c, 0, 65, 100
1, 89086, Note_on_c, 0, 70, 100
1, 89182, Note_off_c, 0, 70, 100
1, 89182, Note_on_c, 0, 74, 100
1, 89278, Note_off_c, 0, 74, 100
1, 89278, Note_on_c, 0, 72, 100
1, 89422, Note_off_c, 0, 72, 100
1, 89422, Note_on_c, 0, 71, 100
1, 89566, Note_off_c, 0, 71, 100
1, 89566, Note_on_c, 0, 68, 100
1, 89662, Note_off_c, 0, 68, 100
1, 89662, Note_on_c, 0, 66, 100
1, 89710, Note_off_c, 0, 66, 100
1, 89710, Note_on_c, 0, 65, 100
1, 89806, Note_off_c, 0, 65, 100
1, 89806, Note_on_c, 0, 63, 100
1, 89950, Note_off_c, 0, 63, 100
1, 89950, Note_on_c, 0, 65, 100
1, 89998, Note_off_c, 0, 65, 100
1, 89998, Note_on_c, 0, 67, 100
1, 90142, Note_off_c, 0, 67, 100
1, 90142, Note_on_c, 0, 70, 100
1, 90190, Note_off_c, 0, 70, 100
1, 90190, Note_on_c, 0, 72, 100
1, 90238, Note_off_c, 0, 72, 100
1, 90238, Note_on_c, 0, 74, 100
1, 90286, Note_off_c, 0, 74, 100
1, 90286, Note_on_c, 0, 73, 100
1, 90382, Note_off_c, 0, 73, 100
1, 90382, Note_on_c, 0, 71, 100
1, 90478, Note_off_c, 0, 71, 100
1, 90478, Note_on_c, 0, 69, 100
1, 90574, Note_off_c, 0, 69, 100
1, 90574, Note_on_c, 0, 67, 100
1, 90686, Note_off_c, 0, 67, 100
1, 90686, Note_on_c, 0, 66, 100
1, 90750, Note_off_c, 0, 66, 100
1, 90750, Note_on_c, 0, 65, 100
1, 90878, Note_off_c, 0, 65, 100
1, 90878, Note_on_c, 0, 64, 100
1, 90942, Note_off_c, 0, 64, 100
1, 90942, Note_on_c, 0, 63, 100
1, 91038, Note_off_c, 0, 63, 100
1, 91390, Note_on_c, 0, 61, 100
1, 91438, Note_off_c, 0, 61, 100
1, 91438, Note_on_c, 0, 62, 100
1, 91534, Note_off_c, 0, 62, 100
1, 91534, Note_on_c, 0, 65, 100
1, 91678, Note_off_c, 0, 65, 100
1, 91678, Note_on_c, 0, 58, 100
1, 91774, Note_off_c, 0, 58, 100
1, 92590, Note_on_c, 0, 63, 100
1, 92686, Note_off_c, 0, 63, 100
1, 92686, Note_on_c, 0, 65, 100
1, 92734, Note_off_c, 0, 65, 100
1, 92734, Note_on_c, 0, 68, 100
1, 92830, Note_off_c, 0, 68, 100
1, 92830, Note_on_c, 0, 71, 100
1, 92926, Note_off_c, 0, 71, 100
1, 92926, Note_on_c, 0, 72, 100
1, 93982, Note_off_c, 0, 72, 100
1, 93982, Note_on_c, 0, 71, 100
1, 94078, Note_off_c, 0, 71, 100
1, 94078, Note_on_c, 0, 70, 100
1, 94174, Note_off_c, 0, 70, 100
1, 94174, Note_on_c, 0, 70, 100
1, 94270, Note_off_c, 0, 70, 100
1, 94270, Note_on_c, 0, 72, 100
1, 94366, Note_off_c, 0, 72, 100
1, 94366, Note_on_c, 0, 70, 100
1, 94462, Note_off_c, 0, 70, 100
1, 94462, Note_on_c, 0, 72, 100
1, 94558, Note_off_c, 0, 72, 100
1, 94558, Note_on_c, 0, 73, 100
1, 94606, Note_off_c, 0, 73, 100
1, 94606, Note_on_c, 0, 71, 100
1, 94750, Note_off_c, 0, 71, 100
1, 94750, Note_on_c, 0, 71, 100
1, 94798, Note_off_c, 0, 71, 100
1, 94798, Note_on_c, 0, 70, 100
1, 94846, Note_off_c, 0, 70, 100
1, 94846, Note_on_c, 0, 70, 100
1, 95038, Note_off_c, 0, 70, 100
1, 95038, Note_on_c, 0, 72, 100
1, 95134, Note_off_c, 0, 72, 100
1, 95134, Note_on_c, 0, 70, 100
1, 95230, Note_off_c, 0, 70, 100
1, 95230, Note_on_c, 0, 73, 100
1, 95294, Note_off_c, 0, 73, 100
1, 95294, Note_on_c, 0, 70, 100
1, 95358, Note_off_c, 0, 70, 100
1, 95358, Note_on_c, 0, 72, 100
1, 95486, Note_off_c, 0, 72, 100
1, 95486, Note_on_c, 0, 72, 100
1, 95614, Note_off_c, 0, 72, 100
1, 95614, Note_on_c, 0, 71, 100
1, 95678, Note_off_c, 0, 71, 100
1, 95678, Note_on_c, 0, 71, 100
1, 95742, Note_off_c, 0, 71, 100
1, 95742, Note_on_c, 0, 70, 100
1, 95806, Note_off_c, 0, 70, 100
1, 95806, Note_on_c, 0, 71, 100
1, 95902, Note_off_c, 0, 71, 100
1, 95902, Note_on_c, 0, 70, 100
1, 95998, Note_off_c, 0, 70, 100
1, 95998, Note_on_c, 0, 70, 100
1, 96142, Note_off_c, 0, 70, 100
1, 96142, Note_on_c, 0, 72, 100
1, 96190, Note_off_c, 0, 72, 100
1, 96190, Note_on_c, 0, 70, 100
1, 96382, Note_off_c, 0, 70, 100
1, 96382, Note_on_c, 0, 73, 100
1, 96478, Note_off_c, 0, 73, 100
1, 96478, Note_on_c, 0, 73, 100
1, 96574, Note_off_c, 0, 73, 100
1, 96574, Note_on_c, 0, 68, 100
1, 96670, Note_off_c, 0, 68, 100
1, 96670, Note_on_c, 0, 73, 100
1, 96766, Note_off_c, 0, 73, 100
1, 96766, Note_on_c, 0, 70, 100
1, 96862, Note_off_c, 0, 70, 100
1, 96862, Note_on_c, 0, 70, 100
1, 96958, Note_off_c, 0, 70, 100
1, 96958, Note_on_c, 0, 72, 100
1, 97022, Note_off_c, 0, 72, 100
1, 97022, Note_on_c, 0, 70, 100
1, 97086, Note_off_c, 0, 70, 100
1, 97086, Note_on_c, 0, 72, 100
1, 97198, Note_off_c, 0, 72, 100
1, 97198, Note_on_c, 0, 70, 100
1, 97294, Note_off_c, 0, 70, 100
1, 97294, Note_on_c, 0, 72, 100
1, 97438, Note_off_c, 0, 72, 100
1, 97438, Note_on_c, 0, 70, 100
1, 97534, Note_off_c, 0, 70, 100
1, 97534, Note_on_c, 0, 69, 100
1, 97630, Note_off_c, 0, 69, 100
1, 97630, Note_on_c, 0, 67, 100
1, 97678, Note_off_c, 0, 67, 100
1, 97678, Note_on_c, 0, 69, 100
1, 97790, Note_off_c, 0, 69, 100
1, 97790, Note_on_c, 0, 74, 100
1, 97854, Note_off_c, 0, 74, 100
1, 97854, Note_on_c, 0, 73, 100
1, 97918, Note_off_c, 0, 73, 100
1, 97918, Note_on_c, 0, 71, 100
1, 98014, Note_off_c, 0, 71, 100
1, 98014, Note_on_c, 0, 64, 100
1, 98062, Note_off_c, 0, 64, 100
1, 98062, Note_on_c, 0, 66, 100
1, 98158, Note_off_c, 0, 66, 100
1, 98158, Note_on_c, 0, 71, 100
1, 98254, Note_off_c, 0, 71, 100
1, 98254, Note_on_c, 0, 68, 100
1, 98350, Note_off_c, 0, 68, 100
1, 98350, Note_on_c, 0, 73, 100
1, 98446, Note_off_c, 0, 73, 100
1, 98446, Note_on_c, 0, 70, 100
1, 98590, Note_off_c, 0, 70, 100
1, 98590, Note_on_c, 0, 63, 100
1, 98686, Note_off_c, 0, 63, 100
1, 98686, Note_on_c, 0, 65, 100
1, 98734, Note_off_c, 0, 65, 100
1, 98734, Note_on_c, 0, 70, 100
1, 98830, Note_off_c, 0, 70, 100
1, 98830, Note_on_c, 0, 67, 100
1, 98942, Note_off_c, 0, 67, 100
1, 98942, Note_on_c, 0, 72, 100
1, 99006, Note_off_c, 0, 72, 100
1, 99006, Note_on_c, 0, 69, 100
1, 99134, Note_off_c, 0, 69, 100
1, 99134, Note_on_c, 0, 62, 100
1, 99198, Note_off_c, 0, 62, 100
1, 99198, Note_on_c, 0, 64, 100
1, 99326, Note_off_c, 0, 64, 100
1, 99326, Note_on_c, 0, 69, 100
1, 99390, Note_off_c, 0, 69, 100
1, 99390, Note_on_c, 0, 66, 100
1, 99550, Note_off_c, 0, 66, 100
1, 99550, Note_on_c, 0, 71, 100
1, 99598, Note_off_c, 0, 71, 100
1, 99598, Note_on_c, 0, 68, 100
1, 99694, Note_off_c, 0, 68, 100
1, 99694, Note_on_c, 0, 61, 100
1, 99790, Note_off_c, 0, 61, 100
1, 99790, Note_on_c, 0, 63, 100
1, 99886, Note_off_c, 0, 63, 100
1, 99886, Note_on_c, 0, 68, 100
1, 99982, Note_off_c, 0, 68, 100
1, 99982, Note_on_c, 0, 67, 100
1, 100078, Note_off_c, 0, 67, 100
1, 100078, Note_on_c, 0, 66, 100
1, 100174, Note_off_c, 0, 66, 100
1, 100174, Note_on_c, 0, 65, 100
1, 100270, Note_off_c, 0, 65, 100
1, 100270, Note_on_c, 0, 64, 100
1, 100366, Note_off_c, 0, 64, 100
1, 100366, Note_on_c, 0, 63, 100
1, 100414, Note_off_c, 0, 63, 100
1, 100414, Note_on_c, 0, 67, 100
1, 100510, Note_off_c, 0, 67, 100
1, 100510, Note_on_c, 0, 62, 100
1, 100606, Note_off_c, 0, 62, 100
1, 101086, Note_on_c, 0, 69, 100
1, 101182, Note_off_c, 0, 69, 100
1, 101182, Note_on_c, 0, 67, 100
1, 101278, Note_off_c, 0, 67, 100
1, 101278, Note_on_c, 0, 68, 100
1, 101374, Note_off_c, 0, 68, 100
1, 101374, Note_on_c, 0, 72, 100
1, 101470, Note_off_c, 0, 72, 100
1, 101470, Note_on_c, 0, 75, 100
1, 101566, Note_off_c, 0, 75, 100
1, 101566, Note_on_c, 0, 79, 100
1, 101662, Note_off_c, 0, 79, 100
1, 101662, Note_on_c, 0, 82, 100
1, 102526, Note_off_c, 0, 82, 100
1, 102526, Note_on_c, 0, 68, 100
1, 102862, Note_off_c, 0, 68, 100
1, 102862, Note_on_c, 0, 70, 100
1, 103150, Note_off_c, 0, 70, 100
1, 104062, Note_on_c, 0, 70, 100
1, 104110, Note_off_c, 0, 70, 100
1, 104110, Note_on_c, 0, 67, 100
1, 104206, Note_off_c, 0, 67, 100
1, 104206, Note_on_c, 0, 68, 100
1, 104318, Note_off_c, 0, 68, 100
1, 104318, Note_on_c, 0, 72, 100
1, 104382, Note_off_c, 0, 72, 100
1, 104382, Note_on_c, 0, 75, 100
1, 104494, Note_off_c, 0, 75, 100
1, 104494, Note_on_c, 0, 79, 100
1, 104590, Note_off_c, 0, 79, 100
1, 104590, Note_on_c, 0, 82, 100
1, 104830, Note_off_c, 0, 82, 100
1, 104830, Note_on_c, 0, 44, 100
1, 105022, Note_off_c, 0, 44, 100
1, 105022, Note_on_c, 0, 46, 100
1, 105118, Note_off_c, 0, 46, 100
1, 105406, Note_on_c, 0, 70, 100
1, 105502, Note_off_c, 0, 70, 100
1, 105502, Note_on_c, 0, 67, 100
1, 105550, Note_off_c, 0, 67, 100
1, 105550, Note_on_c, 0, 68, 100
1, 105598, Note_off_c, 0, 68, 100
1, 105598, Note_on_c, 0, 72, 100
1, 105694, Note_off_c, 0, 72, 100
1, 105694, Note_on_c, 0, 75, 100
1, 105790, Note_off_c, 0, 75, 100
1, 105790, Note_on_c, 0, 79, 100
1, 105886, Note_off_c, 0, 79, 100
1, 105886, Note_on_c, 0, 82, 100
1, 106078, Note_off_c, 0, 82, 100
1, 106318, Note_on_c, 0, 45, 100
1, 106510, Note_off_c, 0, 45, 100
1, 106510, Note_on_c, 0, 47, 100
1, 106606, Note_off_c, 0, 47, 100
1, 106894, Note_on_c, 0, 70, 100
1, 107006, Note_off_c, 0, 70, 100
1, 107006, Note_on_c, 0, 67, 100
1, 107070, Note_off_c, 0, 67, 100
1, 107070, Note_on_c, 0, 68, 100
1, 107134, Note_off_c, 0, 68, 100
1, 107134, Note_on_c, 0, 72, 100
1, 107230, Note_off_c, 0, 72, 100
1, 107230, Note_on_c, 0, 75, 100
1, 107374, Note_off_c, 0, 75, 100
1, 107374, Note_on_c, 0, 79, 100
1, 107470, Note_off_c, 0, 79, 100
1, 107470, Note_on_c, 0, 80, 100
1, 107854, Note_off_c, 0, 80, 100
1, 107854, Note_on_c, 0, 44, 100
1, 107998, Note_off_c, 0, 44, 100
1, 107998, Note_on_c, 0, 46, 100
1, 108190, Note_off_c, 0, 46, 100
1, 108430, Note_on_c, 0, 67, 100
1, 108542, Note_off_c, 0, 67, 100
1, 108542, Note_on_c, 0, 68, 100
1, 108606, Note_off_c, 0, 68, 100
1, 108606, Note_on_c, 0, 71, 100
1, 108734, Note_off_c, 0, 71, 100
1, 108734, Note_on_c, 0, 75, 100
1, 108798, Note_off_c, 0, 75, 100
1, 108798, Note_on_c, 0, 79, 100
1, 108862, Note_off_c, 0, 79, 100
1, 108862, Note_on_c, 0, 80, 100
1, 109246, Note_off_c, 0, 80, 100
1, 109438, Note_on_c, 0, 67, 100
1, 109534, Note_off_c, 0, 67, 100
1, 109534, Note_on_c, 0, 68, 100
1, 109630, Note_off_c, 0, 68, 100
1, 109630, Note_on_c, 0, 72, 100
1, 109726, Note_off_c, 0, 72, 100
1, 109726, Note_on_c, 0, 75, 100
1, 109774, Note_off_c, 0, 75, 100
1, 109774, Note_on_c, 0, 79, 100
1, 109918, Note_off_c, 0, 79, 100
1, 109918, Note_on_c, 0, 82, 100
1, 110110, Note_off_c, 0, 82, 100
1, 110350, Note_on_c, 0, 67, 100
1, 110462, Note_off_c, 0, 67, 100
1, 110462, Note_on_c, 0, 68, 100
1, 110526, Note_off_c, 0, 68, 100
1, 110526, Note_on_c, 0, 71, 100
1, 110590, Note_off_c, 0, 71, 100
1, 110590, Note_on_c, 0, 75, 100
1, 110686, Note_off_c, 0, 75, 100
1, 110686, Note_on_c, 0, 79, 100
1, 110926, Note_off_c, 0, 79, 100
1, 110926, Note_on_c, 0, 83, 100
1, 110974, Note_off_c, 0, 83, 100
1, 110974, Note_on_c, 0, 84, 100
1, 111070, Note_off_c, 0, 84, 100
1, 111070, Note_on_c, 0, 83, 100
1, 111166, Note_off_c, 0, 83, 100
1, 111166, Note_on_c, 0, 82, 100
1, 111310, Note_off_c, 0, 82, 100
1, 111310, Note_on_c, 0, 79, 100
1, 111550, Note_off_c, 0, 79, 100
1, 111550, Note_on_c, 0, 80, 100
1, 111598, Note_off_c, 0, 80, 100
1, 111598, Note_on_c, 0, 83, 100
1, 111694, Note_off_c, 0, 83, 100
1, 111934, Note_on_c, 0, 79, 100
1, 112126, Note_off_c, 0, 79, 100
1, 112126, Note_on_c, 0, 80, 100
1, 112222, Note_off_c, 0, 80, 100
1, 112222, Note_on_c, 0, 84, 100
1, 112318, Note_off_c, 0, 84, 100
1, 112318, Note_on_c, 0, 45, 100
1, 112510, Note_off_c, 0, 45, 100
1, 112510, Note_on_c, 0, 46, 100
1, 112654, Note_off_c, 0, 46, 100
1, 112654, Note_on_c, 0, 47, 100
1, 112846, Note_off_c, 0, 47, 100
1, 112846, Note_on_c, 0, 63, 100
1, 113038, Note_off_c, 0, 63, 100
1, 113230, Note_on_c, 0, 64, 100
1, 113326, Note_off_c, 0, 64, 100
1, 113614, Note_on_c, 0, 65, 100
1, 113854, Note_off_c, 0, 65, 100
1, 113854, Note_on_c, 0, 66, 100
1, 113950, Note_off_c, 0, 66, 100
1, 114238, Note_on_c, 0, 80, 100
1, 114430, Note_off_c, 0, 80, 100
1, 114430, Note_on_c, 0, 80, 100
1, 114574, Note_off_c, 0, 80, 100
1, 114574, Note_on_c, 0, 44, 100
1, 114766, Note_off_c, 0, 44, 100
1, 114766, Note_on_c, 0, 46, 100
1, 114958, Note_off_c, 0, 46, 100
1, 115198, Note_on_c, 0, 46, 100
1, 115454, Note_off_c, 0, 46, 100
1, 115454, Note_on_c, 0, 47, 100
1, 115726, Note_off_c, 0, 47, 100
1, 115726, Note_on_c, 0, 64, 100
1, 115870, Note_off_c, 0, 64, 100
1, 115870, Note_on_c, 0, 65, 100
1, 115918, Note_off_c, 0, 65, 100
1, 115918, Note_on_c, 0, 66, 100
1, 116014, Note_off_c, 0, 66, 100
1, 116254, Note_on_c, 0, 61, 100
1, 116398, Note_off_c, 0, 61, 100
1, 116398, Note_on_c, 0, 62, 100
1, 116494, Note_off_c, 0, 62, 100
1, 116494, Note_on_c, 0, 63, 100
1, 116686, Note_off_c, 0, 63, 100
1, 116686, Note_on_c, 0, 55, 100
1, 116798, Note_off_c, 0, 55, 100
1, 116798, Note_on_c, 0, 56, 100
1, 116862, Note_off_c, 0, 56, 100
1, 116862, Note_on_c, 0, 57, 100
1, 117070, Note_off_c, 0, 57, 100
1, 117070, Note_on_c, 0, 52, 100
1, 117214, Note_off_c, 0, 52, 100
1, 117214, Note_on_c, 0, 53, 100
1, 117262, Note_off_c, 0, 53, 100
1, 117262, Note_on_c, 0, 54, 100
1, 117374, Note_off_c, 0, 54, 100
1, 117374, Note_on_c, 0, 49, 100
1, 117470, Note_off_c, 0, 49, 100
1, 117790, Note_on_c, 0, 51, 100
1, 117982, Note_off_c, 0, 51, 100
1, 118270, Note_on_c, 0, 52, 100
1, 118366, Note_off_c, 0, 52, 100
1, 118366, Note_on_c, 0, 53, 100
1, 118414, Note_off_c, 0, 53, 100
1, 118414, Note_on_c, 0, 54, 100
1, 118526, Note_off_c, 0, 54, 100
1, 118526, Note_on_c, 0, 55, 100
1, 118654, Note_off_c, 0, 55, 100
1, 118654, Note_on_c, 0, 56, 100
1, 118846, Note_off_c, 0, 56, 100
1, 118846, Note_on_c, 0, 58, 100
1, 118942, Note_off_c, 0, 58, 100
1, 118942, Note_on_c, 0, 59, 100
1, 119038, Note_off_c, 0, 59, 100
1, 119038, Note_on_c, 0, 60, 100
1, 119086, Note_off_c, 0, 60, 100
1, 119086, Note_on_c, 0, 61, 100
1, 119182, Note_off_c, 0, 61, 100
1, 119182, Note_on_c, 0, 64, 100
1, 119278, Note_off_c, 0, 64, 100
1, 119278, Note_on_c, 0, 65, 100
1, 119374, Note_off_c, 0, 65, 100
1, 119374, Note_on_c, 0, 66, 100
1, 119486, Note_off_c, 0, 66, 100
1, 119486, Note_on_c, 0, 67, 100
1, 119550, Note_off_c, 0, 67, 100
1, 119550, Note_on_c, 0, 68, 100
1, 119678, Note_off_c, 0, 68, 100
1, 119678, Note_on_c, 0, 69, 100
1, 119742, Note_off_c, 0, 69, 100
1, 119742, Note_on_c, 0, 70, 100
1, 119806, Note_off_c, 0, 70, 100
1, 119806, Note_on_c, 0, 73, 100
1, 119902, Note_off_c, 0, 73, 100
1, 119902, Note_on_c, 0, 73, 100
1, 120046, Note_off_c, 0, 73, 100
1, 120046, Note_on_c, 0, 72, 100
1, 120142, Note_off_c, 0, 72, 100
1, 120142, Note_on_c, 0, 70, 100
1, 120190, Note_off_c, 0, 70, 100
1, 120190, Note_on_c, 0, 65, 100
1, 120286, Note_off_c, 0, 65, 100
1, 120286, Note_on_c, 0, 61, 100
1, 120430, Note_off_c, 0, 61, 100
1, 120430, Note_on_c, 0, 67, 100
1, 120526, Note_off_c, 0, 67, 100
1, 120526, Note_on_c, 0, 64, 100
1, 120622, Note_off_c, 0, 64, 100
1, 120622, Note_on_c, 0, 61, 100
1, 120718, Note_off_c, 0, 61, 100
1, 120718, Note_on_c, 0, 56, 100
1, 120862, Note_off_c, 0, 56, 100
1, 120862, Note_on_c, 0, 53, 100
1, 120958, Note_off_c, 0, 53, 100
1, 120958, Note_on_c, 0, 58, 100
1, 121022, Note_off_c, 0, 58, 100
1, 121022, Note_on_c, 0, 55, 100
1, 121086, Note_off_c, 0, 55, 100
1, 121086, Note_on_c, 0, 56, 100
1, 121198, Note_off_c, 0, 56, 100
1, 121198, Note_on_c, 0, 58, 100
1, 121294, Note_off_c, 0, 58, 100
1, 121294, Note_on_c, 0, 59, 100
1, 121406, Note_off_c, 0, 59, 100
1, 121406, Note_on_c, 0, 61, 100
1, 121534, Note_off_c, 0, 61, 100
1, 121534, Note_on_c, 0, 63, 100
1, 121662, Note_off_c, 0, 63, 100
1, 121662, Note_on_c, 0, 66, 100
1, 121726, Note_off_c, 0, 66, 100
1, 121726, Note_on_c, 0, 67, 100
1, 121774, Note_off_c, 0, 67, 100
1, 121774, Note_on_c, 0, 66, 100
1, 121870, Note_off_c, 0, 66, 100
1, 121870, Note_on_c, 0, 63, 100
1, 121982, Note_off_c, 0, 63, 100
1, 121982, Note_on_c, 0, 59, 100
1, 122046, Note_off_c, 0, 59, 100
1, 122046, Note_on_c, 0, 69, 100
1, 122174, Note_off_c, 0, 69, 100
1, 122174, Note_on_c, 0, 68, 100
1, 122238, Note_off_c, 0, 68, 100
1, 122238, Note_on_c, 0, 65, 100
1, 122350, Note_off_c, 0, 65, 100
1, 122350, Note_on_c, 0, 61, 100
1, 122446, Note_off_c, 0, 61, 100
1, 122446, Note_on_c, 0, 71, 100
1, 122494, Note_off_c, 0, 71, 100
1, 122494, Note_on_c, 0, 70, 100
1, 122590, Note_off_c, 0, 70, 100
1, 122590, Note_on_c, 0, 67, 100
1, 122686, Note_off_c, 0, 67, 100
1, 122686, Note_on_c, 0, 64, 100
1, 122830, Note_off_c, 0, 64, 100
1, 122830, Note_on_c, 0, 72, 100
1, 122878, Note_off_c, 0, 72, 100
1, 122878, Note_on_c, 0, 73, 100
1, 123070, Note_off_c, 0, 73, 100
1, 123070, Note_on_c, 0, 72, 100
1, 123166, Note_off_c, 0, 72, 100
1, 123166, Note_on_c, 0, 71, 100
1, 123326, Note_off_c, 0, 71, 100
1, 123326, Note_on_c, 0, 69, 100
1, 123390, Note_off_c, 0, 69, 100
1, 123390, Note_on_c, 0, 72, 100
1, 123454, Note_off_c, 0, 72, 100
1, 123454, Note_on_c, 0, 69, 100
1, 123550, Note_off_c, 0, 69, 100
1, 123550, Note_on_c, 0, 68, 100
1, 123646, Note_off_c, 0, 68, 100
1, 123646, Note_on_c, 0, 67, 100
1, 123742, Note_off_c, 0, 67, 100
1, 123742, Note_on_c, 0, 66, 100
1, 123838, Note_off_c, 0, 66, 100
1, 123838, Note_on_c, 0, 65, 100
1, 123934, Note_off_c, 0, 65, 100
1, 123934, Note_on_c, 0, 64, 100
1, 124030, Note_off_c, 0, 64, 100
1, 124030, Note_on_c, 0, 63, 100
1, 124078, Note_off_c, 0, 63, 100
1, 124078, Note_on_c, 0, 62, 100
1, 124174, Note_off_c, 0, 62, 100
1, 124174, Note_on_c, 0, 61, 100
1, 124286, Note_off_c, 0, 61, 100
1, 124286, Note_on_c, 0, 65, 100
1, 124350, Note_off_c, 0, 65, 100
1, 124350, Note_on_c, 0, 63, 100
1, 124462, Note_off_c, 0, 63, 100
1, 124462, Note_on_c, 0, 61, 100
1, 124558, Note_off_c, 0, 61, 100
1, 124558, Note_on_c, 0, 58, 100
1, 124654, Note_off_c, 0, 58, 100
1, 125278, Note_on_c, 0, 64, 100
1, 125326, Note_off_c, 0, 64, 100
1, 125326, Note_on_c, 0, 65, 100
1, 125374, Note_off_c, 0, 65, 100
1, 125374, Note_on_c, 0, 69, 100
1, 125470, Note_off_c, 0, 69, 100
1, 125470, Note_on_c, 0, 72, 100
1, 125566, Note_off_c, 0, 72, 100
1, 125566, Note_on_c, 0, 75, 100
1, 125662, Note_off_c, 0, 75, 100
1, 125662, Note_on_c, 0, 79, 100
1, 126334, Note_off_c, 0, 79, 100
1, 127166, Note_on_c, 0, 74, 100
1, 127230, Note_off_c, 0, 74, 100
1, 127230, Note_on_c, 0, 75, 100
1, 127486, Note_off_c, 0, 75, 100
1, 127486, Note_on_c, 0, 74, 100
1, 127550, Note_off_c, 0, 74, 100
1, 127550, Note_on_c, 0, 73, 100
1, 127614, Note_off_c, 0, 73, 100
1, 127614, Note_on_c, 0, 72, 100
1, 127918, Note_off_c, 0, 72, 100
1, 127918, Note_on_c, 0, 70, 100
1, 128014, Note_off_c, 0, 70, 100
1, 128014, Note_on_c, 0, 69, 100
1, 128318, Note_off_c, 0, 69, 100
1, 128318, Note_on_c, 0, 67, 100
1, 128382, Note_off_c, 0, 67, 100
1, 128382, Note_on_c, 0, 65, 100
1, 128446, Note_off_c, 0, 65, 100
1, 128446, Note_on_c, 0, 64, 100
1, 128542, Note_off_c, 0, 64, 100
1, 128542, Note_on_c, 0, 63, 100
1, 128590, Note_off_c, 0, 63, 100
1, 128590, Note_on_c, 0, 65, 100
1, 128734, Note_off_c, 0, 65, 100
1, 128734, Note_on_c, 0, 62, 100
1, 128830, Note_off_c, 0, 62, 100
1, 128830, Note_on_c, 0, 60, 100
1, 128894, Note_off_c, 0, 60, 100
1, 128894, Note_on_c, 0, 59, 100
1, 128958, Note_off_c, 0, 59, 100
1, 128958, Note_on_c, 0, 62, 100
1, 129086, Note_off_c, 0, 62, 100
1, 129086, Note_on_c, 0, 60, 100
1, 129150, Note_off_c, 0, 60, 100
1, 129150, Note_on_c, 0, 58, 100
1, 129214, Note_off_c, 0, 58, 100
1, 129214, Note_on_c, 0, 57, 100
1, 129310, Note_off_c, 0, 57, 100
1, 129310, Note_on_c, 0, 55, 100
1, 129406, Note_off_c, 0, 55, 100
1, 129406, Note_on_c, 0, 54, 100
1, 129502, Note_off_c, 0, 54, 100
1, 129502, Note_on_c, 0, 52, 100
1, 129598, Note_off_c, 0, 52, 100
1, 129598, Note_on_c, 0, 53, 100
1, 129694, Note_off_c, 0, 53, 100
1, 129694, Note_on_c, 0, 51, 100
1, 129790, Note_off_c, 0, 51, 100
1, 129790, Note_on_c, 0, 50, 100
1, 129886, Note_off_c, 0, 50, 100
1, 129886, Note_on_c, 0, 53, 100
1, 129934, Note_off_c, 0, 53, 100
1, 129934, Note_on_c, 0, 58, 100
1, 130030, Note_off_c, 0, 58, 100
1, 130030, Note_on_c, 0, 60, 100
1, 130126, Note_off_c, 0, 60, 100
1, 130126, Note_on_c, 0, 63, 100
1, 130222, Note_off_c, 0, 63, 100
1, 130222, Note_on_c, 0, 60, 100
1, 130318, Note_off_c, 0, 60, 100
1, 130318, Note_on_c, 0, 56, 100
1, 130430, Note_off_c, 0, 56, 100
1, 130430, Note_on_c, 0, 53, 100
1, 130494, Note_off_c, 0, 53, 100
1, 130494, Note_on_c, 0, 60, 100
1, 130606, Note_off_c, 0, 60, 100
1, 130606, Note_on_c, 0, 65, 100
1, 130702, Note_off_c, 0, 65, 100
1, 130702, Note_on_c, 0, 63, 100
1, 130798, Note_off_c, 0, 63, 100
1, 130798, Note_on_c, 0, 60, 100
1, 130894, Note_off_c, 0, 60, 100
1, 130894, Note_on_c, 0, 58, 100
1, 131006, Note_off_c, 0, 58, 100
1, 131006, Note_on_c, 0, 56, 100
1, 131070, Note_off_c, 0, 56, 100
1, 131070, Note_on_c, 0, 60, 100
1, 131182, Note_off_c, 0, 60, 100
1, 131182, Note_on_c, 0, 65, 100
1, 131278, Note_off_c, 0, 65, 100
1, 131278, Note_on_c, 0, 62, 100
1, 131374, Note_off_c, 0, 62, 100
1, 131374, Note_on_c, 0, 60, 100
1, 131470, Note_off_c, 0, 60, 100
1, 131470, Note_on_c, 0, 56, 100
1, 131518, Note_off_c, 0, 56, 100
1, 131518, Note_on_c, 0, 53, 100
1, 131614, Note_off_c, 0, 53, 100
1, 131614, Note_on_c, 0, 60, 100
1, 131758, Note_off_c, 0, 60, 100
1, 131758, Note_on_c, 0, 65, 100
1, 131854, Note_off_c, 0, 65, 100
1, 131854, Note_on_c, 0, 63, 100
1, 131950, Note_off_c, 0, 63, 100
1, 131950, Note_on_c, 0, 60, 100
1, 132046, Note_off_c, 0, 60, 100
1, 132046, Note_on_c, 0, 58, 100
1, 132190, Note_off_c, 0, 58, 100
1, 132190, Note_on_c, 0, 52, 100
1, 132238, Note_off_c, 0, 52, 100
1, 132238, Note_on_c, 0, 61, 100
1, 132334, Note_off_c, 0, 61, 100
1, 132334, Note_on_c, 0, 66, 100
1, 132430, Note_off_c, 0, 66, 100
1, 132430, Note_on_c, 0, 64, 100
1, 132478, Note_off_c, 0, 64, 100
1, 132478, Note_on_c, 0, 61, 100
1, 132574, Note_off_c, 0, 61, 100
1, 132574, Note_on_c, 0, 59, 100
1, 132718, Note_off_c, 0, 59, 100
1, 132718, Note_on_c, 0, 55, 100
1, 132814, Note_off_c, 0, 55, 100
1, 132814, Note_on_c, 0, 67, 100
1, 132910, Note_off_c, 0, 67, 100
1, 133438, Note_on_c, 0, 60, 100
1, 133534, Note_off_c, 0, 60, 100
1, 133534, Note_on_c, 0, 65, 100
1, 133630, Note_off_c, 0, 65, 100
1, 133630, Note_on_c, 0, 63, 100
1, 133726, Note_off_c, 0, 63, 100
1, 133726, Note_on_c, 0, 60, 100
1, 133822, Note_off_c, 0, 60, 100
1, 133822, Note_on_c, 0, 58, 100
1, 133966, Note_off_c, 0, 58, 100
1, 133966, Note_on_c, 0, 61, 100
1, 134062, Note_off_c, 0, 61, 100
1, 134062, Note_on_c, 0, 66, 100
1, 134158, Note_off_c, 0, 66, 100
1, 134158, Note_on_c, 0, 64, 100
1, 134270, Note_off_c, 0, 64, 100
1, 134270, Note_on_c, 0, 61, 100
1, 134398, Note_off_c, 0, 61, 100
1, 134398, Note_on_c, 0, 59, 100
1, 134494, Note_off_c, 0, 59, 100
1, 134494, Note_on_c, 0, 55, 100
1, 134542, Note_off_c, 0, 55, 100
1, 134542, Note_on_c, 0, 62, 100
1, 134654, Note_off_c, 0, 62, 100
1, 134654, Note_on_c, 0, 67, 100
1, 134718, Note_off_c, 0, 67, 100
1, 134718, Note_on_c, 0, 65, 100
1, 134830, Note_off_c, 0, 65, 100
1, 134830, Note_on_c, 0, 62, 100
1, 134926, Note_off_c, 0, 62, 100
1, 134926, Note_on_c, 0, 60, 100
1, 135070, Note_off_c, 0, 60, 100
1, 135070, Note_on_c, 0, 56, 100
1, 135118, Note_off_c, 0, 56, 100
1, 135118, Note_on_c, 0, 63, 100
1, 135230, Note_off_c, 0, 63, 100
1, 135230, Note_on_c, 0, 68, 100
1, 135358, Note_off_c, 0, 68, 100
1, 135358, Note_on_c, 0, 63, 100
1, 135406, Note_off_c, 0, 63, 100
1, 135406, Note_on_c, 0, 68, 100
1, 135502, Note_off_c, 0, 68, 100
1, 135502, Note_on_c, 0, 66, 100
1, 135598, Note_off_c, 0, 66, 100
1, 135598, Note_on_c, 0, 63, 100
1, 135694, Note_off_c, 0, 63, 100
1, 135694, Note_on_c, 0, 61, 100
1, 135790, Note_off_c, 0, 61, 100
1, 135790, Note_on_c, 0, 59, 100
1, 135886, Note_off_c, 0, 59, 100
1, 135886, Note_on_c, 0, 64, 100
1, 136030, Note_off_c, 0, 64, 100
1, 136030, Note_on_c, 0, 69, 100
1, 136126, Note_off_c, 0, 69, 100
1, 136126, Note_on_c, 0, 64, 100
1, 136222, Note_off_c, 0, 64, 100
1, 136222, Note_on_c, 0, 69, 100
1, 136318, Note_off_c, 0, 69, 100
1, 136318, Note_on_c, 0, 64, 100
1, 136414, Note_off_c, 0, 64, 100
1, 136414, Note_on_c, 0, 69, 100
1, 136510, Note_off_c, 0, 69, 100
1, 136510, Note_on_c, 0, 64, 100
1, 136558, Note_off_c, 0, 64, 100
1, 136558, Note_on_c, 0, 69, 100
1, 136654, Note_off_c, 0, 69, 100
1, 136654, Note_on_c, 0, 64, 100
1, 136750, Note_off_c, 0, 64, 100
1, 136750, Note_on_c, 0, 69, 100
1, 136846, Note_off_c, 0, 69, 100
1, 136846, Note_on_c, 0, 69, 100
1, 136942, Note_off_c, 0, 69, 100
1, 136942, Note_on_c, 0, 64, 100
1, 137038, Note_off_c, 0, 64, 100
1, 137038, Note_on_c, 0, 69, 100
1, 137134, Note_off_c, 0, 69, 100
1, 137134, Note_on_c, 0, 64, 100
1, 137230, Note_off_c, 0, 64, 100
1, 137230, Note_on_c, 0, 69, 100
1, 137326, Note_off_c, 0, 69, 100
1, 137326, Note_on_c, 0, 69, 100
1, 137470, Note_off_c, 0, 69, 100
1, 137470, Note_on_c, 0, 64, 100
1, 137518, Note_off_c, 0, 64, 100
1, 137518, Note_on_c, 0, 69, 100
1, 137614, Note_off_c, 0, 69, 100
1, 137614, Note_on_c, 0, 67, 100
1, 137726, Note_off_c, 0, 67, 100
1, 137726, Note_on_c, 0, 64, 100
1, 137790, Note_off_c, 0, 64, 100
1, 137790, Note_on_c, 0, 62, 100
1, 137902, Note_off_c, 0, 62, 100
1, 137902, Note_on_c, 0, 57, 100
1, 137998, Note_off_c, 0, 57, 100
1, 137998, Note_on_c, 0, 65, 100
1, 138094, Note_off_c, 0, 65, 100
1, 138094, Note_on_c, 0, 70, 100
1, 138190, Note_off_c, 0, 70, 100
1, 138190, Note_on_c, 0, 67, 100
1, 138302, Note_off_c, 0, 67, 100
1, 138302, Note_on_c, 0, 65, 100
1, 138366, Note_off_c, 0, 65, 100
1, 138366, Note_on_c, 0, 63, 100
1, 138526, Note_off_c, 0, 63, 100
1, 138526, Note_on_c, 0, 60, 100
1, 138622, Note_off_c, 0, 60, 100
1, 138622, Note_on_c, 0, 66, 100
1, 138718, Note_off_c, 0, 66, 100
1, 138718, Note_on_c, 0, 68, 100
1, 138814, Note_off_c, 0, 68, 100
1, 138814, Note_on_c, 0, 71, 100
1, 138910, Note_off_c, 0, 71, 100
1, 138910, Note_on_c, 0, 73, 100
1, 139678, Note_off_c, 0, 73, 100
1, 139678, Note_on_c, 0, 73, 100
1, 139726, Note_off_c, 0, 73, 100
1, 139726, Note_on_c, 0, 69, 100
1, 139774, Note_off_c, 0, 69, 100
1, 139774, Note_on_c, 0, 70, 100
1, 139870, Note_off_c, 0, 70, 100
1, 140686, Note_on_c, 0, 69, 100
1, 140798, Note_off_c, 0, 69, 100
1, 140798, Note_on_c, 0, 73, 100
1, 140862, Note_off_c, 0, 73, 100
1, 140862, Note_on_c, 0, 71, 100
1, 140974, Note_off_c, 0, 71, 100
1, 140974, Note_on_c, 0, 69, 100
1, 141070, Note_off_c, 0, 69, 100
1, 141070, Note_on_c, 0, 67, 100
1, 141214, Note_off_c, 0, 67, 100
1, 141214, Note_on_c, 0, 66, 100
1, 141310, Note_off_c, 0, 66, 100
1, 141310, Note_on_c, 0, 65, 100
1, 141406, Note_off_c, 0, 65, 100
1, 141406, Note_on_c, 0, 64, 100
1, 141502, Note_off_c, 0, 64, 100
1, 141502, Note_on_c, 0, 63, 100
1, 141550, Note_off_c, 0, 63, 100
1, 141550, Note_on_c, 0, 65, 100
1, 141646, Note_off_c, 0, 65, 100
1, 141646, Note_on_c, 0, 64, 100
1, 141742, Note_off_c, 0, 64, 100
1, 141742, Note_on_c, 0, 62, 100
1, 141838, Note_off_c, 0, 62, 100
1, 141838, Note_on_c, 0, 67, 100
1, 141886, Note_off_c, 0, 67, 100
1, 141886, Note_on_c, 0, 66, 100
1, 142030, Note_off_c, 0, 66, 100
1, 142030, Note_on_c, 0, 58, 100
1, 142174, Note_off_c, 0, 58, 100
1, 142174, Note_on_c, 0, 60, 100
1, 142270, Note_off_c, 0, 60, 100
1, 142270, Note_on_c, 0, 62, 100
1, 142366, Note_off_c, 0, 62, 100
1, 142366, Note_on_c, 0, 65, 100
1, 142462, Note_off_c, 0, 65, 100
1, 142462, Note_on_c, 0, 70, 100
1, 142558, Note_off_c, 0, 70, 100
1, 142558, Note_on_c, 0, 74, 100
1, 142654, Note_off_c, 0, 74, 100
1, 142654, Note_on_c, 0, 68, 100
1, 142750, Note_off_c, 0, 68, 100
1, 143038, Note_on_c, 0, 68, 100
1, 143134, Note_off_c, 0, 68, 100
1, 143134, Note_on_c, 0, 73, 100
1, 143230, Note_off_c, 0, 73, 100
1, 143230, Note_on_c, 0, 70, 100
1, 143326, Note_off_c, 0, 70, 100
1, 143326, Note_on_c, 0, 66, 100
1, 143422, Note_off_c, 0, 66, 100
1, 143422, Note_on_c, 0, 61, 100
1, 143518, Note_off_c, 0, 61, 100
1, 143518, Note_on_c, 0, 57, 100
1, 143566, Note_off_c, 0, 57, 100
1, 143566, Note_on_c, 0, 64, 100
1, 143662, Note_off_c, 0, 64, 100
1, 143950, Note_on_c, 0, 67, 100
1, 144046, Note_off_c, 0, 67, 100
1, 144382, Note_on_c, 0, 65, 100
1, 144430, Note_off_c, 0, 65, 100
1, 144430, Note_on_c, 0, 64, 100
1, 144478, Note_off_c, 0, 64, 100
1, 144478, Note_on_c, 0, 66, 100
1, 144574, Note_off_c, 0, 66, 100
1, 144718, Note_on_c, 0, 65, 100
1, 144814, Note_off_c, 0, 65, 100
1, 145102, Note_on_c, 0, 59, 100
1, 145198, Note_off_c, 0, 59, 100
1, 145390, Note_on_c, 0, 55, 100
1, 145486, Note_off_c, 0, 55, 100
1, 145486, Note_on_c, 0, 59, 100
1, 145582, Note_off_c, 0, 59, 100
1, 145582, Note_on_c, 0, 62, 100
1, 145678, Note_off_c, 0, 62, 100
1, 145678, Note_on_c, 0, 60, 100
1, 145774, Note_off_c, 0, 60, 100
1, 145774, Note_on_c, 0, 58, 100
1, 145870, Note_off_c, 0, 58, 100
1, 145870, Note_on_c, 0, 57, 100
1, 145982, Note_off_c, 0, 57, 100
1, 145982, Note_on_c, 0, 60, 100
1, 146110, Note_off_c, 0, 60, 100
1, 146110, Note_on_c, 0, 63, 100
1, 146206, Note_off_c, 0, 63, 100
1, 146206, Note_on_c, 0, 65, 100
1, 146302, Note_off_c, 0, 65, 100
1, 146302, Note_on_c, 0, 67, 100
1, 146350, Note_off_c, 0, 67, 100
1, 146350, Note_on_c, 0, 67, 100
1, 146446, Note_off_c, 0, 67, 100
1, 146446, Note_on_c, 0, 66, 100
1, 146590, Note_off_c, 0, 66, 100
1, 146590, Note_on_c, 0, 64, 100
1, 146686, Note_off_c, 0, 64, 100
1, 146686, Note_on_c, 0, 65, 100
1, 146782, Note_off_c, 0, 65, 100
1, 146782, Note_on_c, 0, 63, 100
1, 146878, Note_off_c, 0, 63, 100
1, 146878, Note_on_c, 0, 62, 100
1, 146974, Note_off_c, 0, 62, 100
1, 146974, Note_on_c, 0, 60, 100
1, 147070, Note_off_c, 0, 60, 100
1, 147070, Note_on_c, 0, 59, 100
1, 147134, Note_off_c, 0, 59, 100
1, 147134, Note_on_c, 0, 67, 100
1, 147198, Note_off_c, 0, 67, 100
1, 147198, Note_on_c, 0, 66, 100
1, 147262, Note_off_c, 0, 66, 100
1, 147262, Note_on_c, 0, 67, 100
1, 147358, Note_off_c, 0, 67, 100
1, 147358, Note_on_c, 0, 66, 100
1, 147406, Note_off_c, 0, 66, 100
1, 147406, Note_on_c, 0, 65, 100
1, 147502, Note_off_c, 0, 65, 100
1, 147502, Note_on_c, 0, 64, 100
1, 147598, Note_off_c, 0, 64, 100
1, 147598, Note_on_c, 0, 63, 100
1, 147694, Note_off_c, 0, 63, 100
1, 147694, Note_on_c, 0, 62, 100
1, 147790, Note_off_c, 0, 62, 100
1, 147790, Note_on_c, 0, 60, 100
1, 147902, Note_off_c, 0, 60, 100
1, 147902, Note_on_c, 0, 58, 100
1, 147966, Note_off_c, 0, 58, 100
1, 147966, Note_on_c, 0, 57, 100
1, 148126, Note_off_c, 0, 57, 100
1, 148126, Note_on_c, 0, 53, 100
1, 148174, Note_off_c, 0, 53, 100
1, 148174, Note_on_c, 0, 58, 100
1, 148318, Note_off_c, 0, 58, 100
1, 148318, Note_on_c, 0, 53, 100
1, 148366, Note_off_c, 0, 53, 100
1, 148366, Note_on_c, 0, 56, 100
1, 148558, Note_off_c, 0, 56, 100
1, 148558, Note_on_c, 0, 58, 100
1, 148798, Note_off_c, 0, 58, 100
1, 148798, Note_on_c, 0, 56, 100
1, 148941, Note_off_c, 0, 56, 100
1, 148941, End_track
0, 0, End_of_file
