0, 0, Header, 1, 1, 192
1, 0, Start_track
1, 0, Title_t, "Melody"
1, 0, Tempo, 211267
1, 0, Key_signature, -2, "minor"
1, 0, Time_signature, 4, 2, 24, 8
1, 336, Note_on_c, 0, 57, 100
1, 432, Note_off_c, 0, 57, 100
1, 432, Note_on_c, 0, 55, 100
1, 528, Note_off_c, 0, 55, 100
1, 528, Note_on_c, 0, 53, 100
1, 672, Note_off_c, 0, 53, 100
1, 672, Note_on_c, 0, 52, 100
1, 768, Note_off_c, 0, 52, 100
1, 768, Note_on_c, 0, 51, 100
1, 864, Note_off_c, 0, 51, 100
1, 864, Note_on_c, 0, 53, 100
1, 960, Note_off_c, 0, 53, 100
1, 960, Note_on_c, 0, 55, 100
1, 1024, Note_off_c, 0, 55, 100
1, 1024, Note_on_c, 0, 58, 100
1, 1088, Note_off_c, 0, 58, 100
1, 1088, Note_on_c, 0, 62, 100
1, 1152, Note_off_c, 0, 62, 100
1, 1152, Note_on_c, 0, 65, 100
1, 1216, Note_off_c, 0, 65, 100
1, 1216, Note_on_c, 0, 61, 100
1, 1280, Note_off_c, 0, 61, 100
1, 1280, Note_on_c, 0, 57, 100
1, 1344, Note_off_c, 0, 57, 100
1, 1344, Note_on_c, 0, 56, 100
1, 1440, Note_off_c, 0, 56, 100
1, 1440, Note_on_c, 0, 58, 100
1, 1920, Note_off_c, 0, 58, 100
1, 1920, Note_on_c, 0, 57, 100
1, 2016, Note_off_c, 0, 57, 100
1, 2016, Note_on_c, 0, 59, 100
1, 2256, Note_off_c, 0, 59, 100
1, 2256, Note_on_c, 0, 58, 100
1, 2352, Note_off_c, 0, 58, 100
1, 3408, Note_on_c, 0, 59, 100
1, 3552, Note_off_c, 0, 59, 100
1, 3552, Note_on_c, 0, 61, 100
1, 3744, Note_off_c, 0, 61, 100
1, 3744, Note_on_c, 0, 63, 100
1, 3888, Note_off_c, 0, 63, 100
1, 3888, Note_on_c, 0, 64, 100
1, 4224, Note_off_c, 0, 64, 100
1, 4224, Note_on_c, 0, 64, 100
1, 4368, Note_off_c, 0, 64, 100
1, 4368, Note_on_c, 0, 66, 100
1, 4512, Note_off_c, 0, 66, 100
1, 4512, Note_on_c, 0, 68, 100
1, 4704, Note_off_c, 0, 68, 100
1, 4704, Note_on_c, 0, 69, 100
1, 5712, Note_off_c, 0, 69, 100
1, 5712, Note_on_c, 0, 66, 100
1, 6016, Note_off_c, 0, 66, 100
1, 6016, Note_on_c, 0, 65, 100
1, 6112, Note_off_c, 0, 65, 100
1, 7968, Note_on_c, 0, 55, 100
1, 8112, Note_off_c, 0, 55, 100
1, 8112, Note_on_c, 0, 57, 100
1, 8208, Note_off_c, 0, 57, 100
1, 8208, Note_on_c, 0, 60, 100
1, 8320, Note_off_c, 0, 60, 100
1, 8320, Note_on_c, 0, 61, 100
1, 8448, Note_off_c, 0, 61, 100
1, 8448, Note_on_c, 0, 63, 100
1, 8576, Note_off_c, 0, 63, 100
1, 8576, Note_on_c, 0, 65, 100
1, 8736, Note_off_c, 0, 65, 100
1, 8736, Note_on_c, 0, 67, 100
1, 8832, Note_off_c, 0, 67, 100
1, 8832, Note_on_c, 0, 69, 100
1, 8976, Note_off_c, 0, 69, 100
1, 8976, Note_on_c, 0, 70, 100
1, 9120, Note_off_c, 0, 70, 100
1, 9120, Note_on_c, 0, 72, 100
1, 10176, Note_off_c, 0, 72, 100
1, 10176, Note_on_c, 0, 65, 100
1, 10272, Note_off_c, 0, 65, 100
1, 11904, Note_on_c, 0, 59, 100
1, 12000, Note_off_c, 0, 59, 100
1, 12000, Note_on_c, 0, 61, 100
1, 12096, Note_off_c, 0, 61, 100
1, 12096, Note_on_c, 0, 63, 100
1, 12192, Note_off_c, 0, 63, 100
1, 12192, Note_on_c, 0, 66, 100
1, 12336, Note_off_c, 0, 66, 100
1, 12336, Note_on_c, 0, 68, 100
1, 12432, Note_off_c, 0, 68, 100
1, 12432, Note_on_c, 0, 69, 100
1, 12528, Note_off_c, 0, 69, 100
1, 12528, Note_on_c, 0, 71, 100
1, 12624, Note_off_c, 0, 71, 100
1, 12624, Note_on_c, 0, 73, 100
1, 12768, Note_off_c, 0, 73, 100
1, 12768, Note_on_c, 0, 75, 100
1, 13248, Note_off_c, 0, 75, 100
1, 13248, Note_on_c, 0, 73, 100
1, 13344, Note_off_c, 0, 73, 100
1, 13344, Note_on_c, 0, 71, 100
1, 13440, Note_off_c, 0, 71, 100
1, 13440, Note_on_c, 0, 68, 100
1, 14208, Note_off_c, 0, 68, 100
1, 14208, Note_on_c, 0, 66, 100
1, 14304, Note_off_c, 0, 66, 100
1, 14304, Note_on_c, 0, 63, 100
1, 14400, Note_off_c, 0, 63, 100
1, 14400, Note_on_c, 0, 59, 100
1, 14544, Note_off_c, 0, 59, 100
1, 14544, Note_on_c, 0, 56, 100
1, 14640, Note_off_c, 0, 56, 100
1, 14640, Note_on_c, 0, 61, 100
1, 14736, Note_off_c, 0, 61, 100
1, 14736, Note_on_c, 0, 64, 100
1, 14880, Note_off_c, 0, 64, 100
1, 14880, Note_on_c, 0, 63, 100
1, 15168, Note_off_c, 0, 63, 100
1, 15168, Note_on_c, 0, 62, 100
1, 15264, Note_off_c, 0, 62, 100
1, 15792, Note_on_c, 0, 64, 100
1, 15888, Note_off_c, 0, 64, 100
1, 15888, Note_on_c, 0, 61, 100
1, 15936, Note_off_c, 0, 61, 100
1, 15936, Note_on_c, 0, 57, 100
1, 16032, Note_off_c, 0, 57, 100
1, 16032, Note_on_c, 0, 54, 100
1, 16128, Note_off_c, 0, 54, 100
1, 16128, Note_on_c, 0, 63, 100
1, 16224, Note_off_c, 0, 63, 100
1, 16224, Note_on_c, 0, 61, 100
1, 16320, Note_off_c, 0, 61, 100
1, 16320, Note_on_c, 0, 59, 100
1, 16416, Note_off_c, 0, 59, 100
1, 16416, Note_on_c, 0, 57, 100
1, 16512, Note_off_c, 0, 57, 100
1, 16512, Note_on_c, 0, 56, 100
1, 16608, Note_off_c, 0, 56, 100
1, 16608, Note_on_c, 0, 54, 100
1, 16752, Note_off_c, 0, 54, 100
1, 16752, Note_on_c, 0, 52, 100
1, 16848, Note_off_c, 0, 52, 100
1, 16848, Note_on_c, 0, 50, 100
1, 16896, Note_off_c, 0, 50, 100
1, 16896, Note_on_c, 0, 48, 100
1, 17280, Note_off_c, 0, 48, 100
1, 17280, Note_on_c, 0, 44, 100
1, 17664, Note_off_c, 0, 44, 100
1, 18816, Note_on_c, 0, 59, 100
1, 18912, Note_off_c, 0, 59, 100
1, 18912, Note_on_c, 0, 58, 100
1, 19008, Note_off_c, 0, 58, 100
1, 19008, Note_on_c, 0, 57, 100
1, 19104, Note_off_c, 0, 57, 100
1, 19104, Note_on_c, 0, 54, 100
1, 19200, Note_off_c, 0, 54, 100
1, 19200, Note_on_c, 0, 53, 100
1, 19296, Note_off_c, 0, 53, 100
1, 19296, Note_on_c, 0, 52, 100
1, 19392, Note_off_c, 0, 52, 100
1, 19392, Note_on_c, 0, 51, 100
1, 19488, Note_off_c, 0, 51, 100
1, 19488, Note_on_c, 0, 54, 100
1, 19584, Note_off_c, 0, 54, 100
1, 19584, Note_on_c, 0, 57, 100
1, 19680, Note_off_c, 0, 57, 100
1, 19680, Note_on_c, 0, 62, 100
1, 19776, Note_off_c, 0, 62, 100
1, 19776, Note_on_c, 0, 63, 100
1, 19872, Note_off_c, 0, 63, 100
1, 19872, Note_on_c, 0, 61, 100
1, 19968, Note_off_c, 0, 61, 100
1, 19968, Note_on_c, 0, 59, 100
1, 20064, Note_off_c, 0, 59, 100
1, 20064, Note_on_c, 0, 57, 100
1, 20160, Note_off_c, 0, 57, 100
1, 20160, Note_on_c, 0, 56, 100
1, 20256, Note_off_c, 0, 56, 100
1, 20256, Note_on_c, 0, 54, 100
1, 20352, Note_off_c, 0, 54, 100
1, 20352, Note_on_c, 0, 53, 100
1, 20416, Note_off_c, 0, 53, 100
1, 20416, Note_on_c, 0, 52, 100
1, 20480, Note_off_c, 0, 52, 100
1, 20480, Note_on_c, 0, 51, 100
1, 20608, Note_off_c, 0, 51, 100
1, 20608, Note_on_c, 0, 53, 100
1, 20736, Note_off_c, 0, 53, 100
1, 20736, Note_on_c, 0, 52, 100
1, 20928, Note_off_c, 0, 52, 100
1, 20928, Note_on_c, 0, 49, 100
1, 21120, Note_off_c, 0, 49, 100
1, 21120, Note_on_c, 0, 52, 100
1, 21312, Note_off_c, 0, 52, 100
1, 21312, Note_on_c, 0, 49, 100
1, 21504, Note_off_c, 0, 49, 100
1, 21504, Note_on_c, 0, 52, 100
1, 21648, Note_off_c, 0, 52, 100
1, 21648, Note_on_c, 0, 49, 100
1, 21792, Note_off_c, 0, 49, 100
1, 21792, Note_on_c, 0, 53, 100
1, 22176, Note_off_c, 0, 53, 100
1, 22176, Note_on_c, 0, 49, 100
1, 22272, Note_off_c, 0, 49, 100
1, 22272, Note_on_c, 0, 55, 100
1, 22400, Note_off_c, 0, 55, 100
1, 22400, Note_on_c, 0, 49, 100
1, 22464, Note_off_c, 0, 49, 100
1, 22464, Note_on_c, 0, 56, 100
1, 22560, Note_off_c, 0, 56, 100
1, 22560, Note_on_c, 0, 52, 100
1, 22656, Note_off_c, 0, 52, 100
1, 22656, Note_on_c, 0, 58, 100
1, 22784, Note_off_c, 0, 58, 100
1, 22784, Note_on_c, 0, 54, 100
1, 22848, Note_off_c, 0, 54, 100
1, 22848, Note_on_c, 0, 59, 100
1, 22976, Note_off_c, 0, 59, 100
1, 22976, Note_on_c, 0, 56, 100
1, 23040, Note_off_c, 0, 56, 100
1, 23040, Note_on_c, 0, 61, 100
1, 23136, Note_off_c, 0, 61, 100
1, 23136, Note_on_c, 0, 58, 100
1, 23232, Note_off_c, 0, 58, 100
1, 23232, Note_on_c, 0, 62, 100
1, 23328, Note_off_c, 0, 62, 100
1, 23328, Note_on_c, 0, 59, 100
1, 23424, Note_off_c, 0, 59, 100
1, 23424, Note_on_c, 0, 64, 100
1, 23520, Note_off_c, 0, 64, 100
1, 23520, Note_on_c, 0, 61, 100
1, 23616, Note_off_c, 0, 61, 100
1, 23616, Note_on_c, 0, 65, 100
1, 23712, Note_off_c, 0, 65, 100
1, 23712, Note_on_c, 0, 62, 100
1, 23808, Note_off_c, 0, 62, 100
1, 23808, Note_on_c, 0, 67, 100
1, 23904, Note_off_c, 0, 67, 100
1, 23904, Note_on_c, 0, 64, 100
1, 24000, Note_off_c, 0, 64, 100
1, 24000, Note_on_c, 0, 68, 100
1, 24096, Note_off_c, 0, 68, 100
1, 24096, Note_on_c, 0, 71, 100
1, 24192, Note_off_c, 0, 71, 100
1, 24864, Note_on_c, 0, 73, 100
1, 24960, Note_off_c, 0, 73, 100
1, 24960, Note_on_c, 0, 71, 100
1, 25056, Note_off_c, 0, 71, 100
1, 25056, Note_on_c, 0, 68, 100
1, 25152, Note_off_c, 0, 68, 100
1, 25152, Note_on_c, 0, 66, 100
1, 25248, Note_off_c, 0, 66, 100
1, 25248, Note_on_c, 0, 64, 100
1, 25344, Note_off_c, 0, 64, 100
1, 25344, Note_on_c, 0, 62, 100
1, 25440, Note_off_c, 0, 62, 100
1, 25440, Note_on_c, 0, 59, 100
1, 25536, Note_off_c, 0, 59, 100
1, 25536, Note_on_c, 0, 58, 100
1, 25664, Note_off_c, 0, 58, 100
1, 25664, Note_on_c, 0, 56, 100
1, 25728, Note_off_c, 0, 56, 100
1, 25728, Note_on_c, 0, 54, 100
1, 25824, Note_off_c, 0, 54, 100
1, 25824, Note_on_c, 0, 50, 100
1, 25920, Note_off_c, 0, 50, 100
1, 25920, Note_on_c, 0, 49, 100
1, 26016, Note_off_c, 0, 49, 100
1, 26016, Note_on_c, 0, 47, 100
1, 26112, Note_off_c, 0, 47, 100
1, 26112, Note_on_c, 0, 46, 100
1, 26208, Note_off_c, 0, 46, 100
1, 26208, Note_on_c, 0, 58, 100
1, 26304, Note_off_c, 0, 58, 100
1, 26944, Note_on_c, 0, 57, 100
1, 27072, Note_off_c, 0, 57, 100
1, 27072, Note_on_c, 0, 61, 100
1, 27120, Note_off_c, 0, 61, 100
1, 27120, Note_on_c, 0, 65, 100
1, 27216, Note_off_c, 0, 65, 100
1, 27216, Note_on_c, 0, 69, 100
1, 27264, Note_off_c, 0, 69, 100
1, 27264, Note_on_c, 0, 72, 100
1, 27360, Note_off_c, 0, 72, 100
1, 27360, Note_on_c, 0, 75, 100
1, 27456, Note_off_c, 0, 75, 100
1, 27456, Note_on_c, 0, 77, 100
1, 27792, Note_off_c, 0, 77, 100
1, 27792, Note_on_c, 0, 75, 100
1, 27936, Note_off_c, 0, 75, 100
1, 27936, Note_on_c, 0, 73, 100
1, 28032, Note_off_c, 0, 73, 100
1, 28032, Note_on_c, 0, 72, 100
1, 28128, Note_off_c, 0, 72, 100
1, 28128, Note_on_c, 0, 70, 100
1, 28224, Note_off_c, 0, 70, 100
1, 28224, Note_on_c, 0, 69, 100
1, 28320, Note_off_c, 0, 69, 100
1, 28320, Note_on_c, 0, 67, 100
1, 28416, Note_off_c, 0, 67, 100
1, 28416, Note_on_c, 0, 65, 100
1, 28512, Note_off_c, 0, 65, 100
1, 28512, Note_on_c, 0, 64, 100
1, 28608, Note_off_c, 0, 64, 100
1, 28608, Note_on_c, 0, 63, 100
1, 28704, Note_off_c, 0, 63, 100
1, 28704, Note_on_c, 0, 61, 100
1, 28800, Note_off_c, 0, 61, 100
1, 28800, Note_on_c, 0, 57, 100
1, 28896, Note_off_c, 0, 57, 100
1, 28896, Note_on_c, 0, 54, 100
1, 28992, Note_off_c, 0, 54, 100
1, 28992, Note_on_c, 0, 53, 100
1, 29088, Note_off_c, 0, 53, 100
1, 29088, Note_on_c, 0, 52, 100
1, 29184, Note_off_c, 0, 52, 100
1, 29184, Note_on_c, 0, 51, 100
1, 29280, Note_off_c, 0, 51, 100
1, 29280, Note_on_c, 0, 53, 100
1, 29376, Note_off_c, 0, 53, 100
1, 29376, Note_on_c, 0, 50, 100
1, 29472, Note_off_c, 0, 50, 100
1, 29472, Note_on_c, 0, 53, 100
1, 29568, Note_off_c, 0, 53, 100
1, 29568, Note_on_c, 0, 58, 100
1, 29664, Note_off_c, 0, 58, 100
1, 29664, Note_on_c, 0, 62, 100
1, 29760, Note_off_c, 0, 62, 100
1, 29760, Note_on_c, 0, 63, 100
1, 29888, Note_off_c, 0, 63, 100
1, 29888, Note_on_c, 0, 60, 100
1, 29952, Note_off_c, 0, 60, 100
1, 29952, Note_on_c, 0, 56, 100
1, 30048, Note_off_c, 0, 56, 100
1, 30048, Note_on_c, 0, 53, 100
1, 30144, Note_off_c, 0, 53, 100
1, 30144, Note_on_c, 0, 58, 100
1, 30240, Note_off_c, 0, 58, 100
1, 30240, Note_on_c, 0, 55, 100
1, 30336, Note_off_c, 0, 55, 100
1, 30336, Note_on_c, 0, 56, 100
1, 30432, Note_off_c, 0, 56, 100
1, 30432, Note_on_c, 0, 58, 100
1, 30528, Note_off_c, 0, 58, 100
1, 30528, Note_on_c, 0, 59, 100
1, 30624, Note_off_c, 0, 59, 100
1, 30624, Note_on_c, 0, 56, 100
1, 30720, Note_off_c, 0, 56, 100
1, 30720, Note_on_c, 0, 57, 100
1, 30816, Note_off_c, 0, 57, 100
1, 30816, Note_on_c, 0, 59, 100
1, 30912, Note_off_c, 0, 59, 100
1, 30912, Note_on_c, 0, 60, 100
1, 30960, Note_off_c, 0, 60, 100
1, 30960, Note_on_c, 0, 62, 100
1, 31056, Note_off_c, 0, 62, 100
1, 31056, Note_on_c, 0, 63, 100
1, 31200, Note_off_c, 0, 63, 100
1, 31200, Note_on_c, 0, 60, 100
1, 31296, Note_off_c, 0, 60, 100
1, 31296, Note_on_c, 0, 64, 100
1, 31440, Note_off_c, 0, 64, 100
1, 31440, Note_on_c, 0, 65, 100
1, 31584, Note_off_c, 0, 65, 100
1, 31584, Note_on_c, 0, 66, 100
1, 31680, Note_off_c, 0, 66, 100
1, 32592, Note_on_c, 0, 68, 100
1, 32784, Note_off_c, 0, 68, 100
1, 32784, Note_on_c, 0, 64, 100
1, 32928, Note_off_c, 0, 64, 100
1, 32928, Note_on_c, 0, 61, 100
1, 33024, Note_off_c, 0, 61, 100
1, 33024, Note_on_c, 0, 58, 100
1, 33168, Note_off_c, 0, 58, 100
1, 33168, Note_on_c, 0, 61, 100
1, 33312, Note_off_c, 0, 61, 100
1, 33312, Note_on_c, 0, 64, 100
1, 33600, Note_off_c, 0, 64, 100
1, 34176, Note_on_c, 0, 69, 100
1, 34272, Note_off_c, 0, 69, 100
1, 34272, Note_on_c, 0, 73, 100
1, 34368, Note_off_c, 0, 73, 100
1, 34368, Note_on_c, 0, 71, 100
1, 34464, Note_off_c, 0, 71, 100
1, 34464, Note_on_c, 0, 69, 100
1, 34560, Note_off_c, 0, 69, 100
1, 34560, Note_on_c, 0, 68, 100
1, 34656, Note_off_c, 0, 68, 100
1, 34656, Note_on_c, 0, 66, 100
1, 34752, Note_off_c, 0, 66, 100
1, 34752, Note_on_c, 0, 65, 100
1, 34848, Note_off_c, 0, 65, 100
1, 34848, Note_on_c, 0, 64, 100
1, 34944, Note_off_c, 0, 64, 100
1, 34944, Note_on_c, 0, 63, 100
1, 35040, Note_off_c, 0, 63, 100
1, 35040, Note_on_c, 0, 65, 100
1, 35136, Note_off_c, 0, 65, 100
1, 35136, Note_on_c, 0, 66, 100
1, 35232, Note_off_c, 0, 66, 100
1, 35232, Note_on_c, 0, 64, 100
1, 35328, Note_off_c, 0, 64, 100
1, 35328, Note_on_c, 0, 65, 100
1, 35424, Note_off_c, 0, 65, 100
1, 35424, Note_on_c, 0, 64, 100
1, 35520, Note_off_c, 0, 64, 100
1, 35520, Note_on_c, 0, 63, 100
1, 35616, Note_off_c, 0, 63, 100
1, 35616, Note_on_c, 0, 67, 100
1, 35712, Note_off_c, 0, 67, 100
1, 35712, Note_on_c, 0, 64, 100
1, 35808, Note_off_c, 0, 64, 100
1, 35808, Note_on_c, 0, 60, 100
1, 35904, Note_off_c, 0, 60, 100
1, 35904, Note_on_c, 0, 56, 100
1, 36000, Note_off_c, 0, 56, 100
1, 36000, Note_on_c, 0, 52, 100
1, 36096, Note_off_c, 0, 52, 100
1, 36096, Note_on_c, 0, 57, 100
1, 36384, Note_off_c, 0, 57, 100
1, 36384, Note_on_c, 0, 55, 100
1, 36480, Note_off_c, 0, 55, 100
1, 36480, Note_on_c, 0, 52, 100
1, 36576, Note_off_c, 0, 52, 100
1, 36576, Note_on_c, 0, 48, 100
1, 36672, Note_off_c, 0, 48, 100
1, 38160, Note_on_c, 0, 65, 100
1, 38304, Note_off_c, 0, 65, 100
1, 38304, Note_on_c, 0, 68, 100
1, 38400, Note_off_c, 0, 68, 100
1, 38400, Note_on_c, 0, 70, 100
1, 39168, Note_off_c, 0, 70, 100
1, 39168, Note_on_c, 0, 70, 100
1, 39360, Note_off_c, 0, 70, 100
1, 39360, Note_on_c, 0, 70, 100
1, 39840, Note_off_c, 0, 70, 100
1, 39840, Note_on_c, 0, 68, 100
1, 40032, Note_off_c, 0, 68, 100
1, 40032, Note_on_c, 0, 70, 100
1, 40128, Note_off_c, 0, 70, 100
1, 40128, Note_on_c, 0, 72, 100
1, 40224, Note_off_c, 0, 72, 100
1, 40224, Note_on_c, 0, 70, 100
1, 40704, Note_off_c, 0, 70, 100
1, 40704, Note_on_c, 0, 68, 100
1, 40800, Note_off_c, 0, 68, 100
1, 40800, Note_on_c, 0, 65, 100
1, 40896, Note_off_c, 0, 65, 100
1, 40896, Note_on_c, 0, 63, 100
1, 40992, Note_off_c, 0, 63, 100
1, 41856, Note_on_c, 0, 60, 100
1, 41952, Note_off_c, 0, 60, 100
1, 41952, Note_on_c, 0, 65, 100
1, 42048, Note_off_c, 0, 65, 100
1, 42048, Note_on_c, 0, 67, 100
1, 42144, Note_off_c, 0, 67, 100
1, 42144, Note_on_c, 0, 70, 100
1, 42240, Note_off_c, 0, 70, 100
1, 42240, Note_on_c, 0, 72, 100
1, 42336, Note_off_c, 0, 72, 100
1, 42336, Note_on_c, 0, 75, 100
1, 42432, Note_off_c, 0, 75, 100
1, 42432, Note_on_c, 0, 74, 100
1, 42528, Note_off_c, 0, 74, 100
1, 42528, Note_on_c, 0, 72, 100
1, 42624, Note_off_c, 0, 72, 100
1, 42624, Note_on_c, 0, 70, 100
1, 42720, Note_off_c, 0, 70, 100
1, 42720, Note_on_c, 0, 68, 100
1, 42816, Note_off_c, 0, 68, 100
1, 42816, Note_on_c, 0, 68, 100
1, 42912, Note_off_c, 0, 68, 100
1, 42912, Note_on_c, 0, 67, 100
1, 43008, Note_off_c, 0, 67, 100
1, 43008, Note_on_c, 0, 66, 100
1, 43104, Note_off_c, 0, 66, 100
1, 43104, Note_on_c, 0, 62, 100
1, 43200, Note_off_c, 0, 62, 100
1, 43200, Note_on_c, 0, 59, 100
1, 43296, Note_off_c, 0, 59, 100
1, 43296, Note_on_c, 0, 56, 100
1, 43392, Note_off_c, 0, 56, 100
1, 43392, Note_on_c, 0, 58, 100
1, 43488, Note_off_c, 0, 58, 100
1, 43488, Note_on_c, 0, 55, 100
1, 43584, Note_off_c, 0, 55, 100
1, 43584, Note_on_c, 0, 57, 100
1, 43680, Note_off_c, 0, 57, 100
1, 43680, Note_on_c, 0, 54, 100
1, 43776, Note_off_c, 0, 54, 100
1, 43776, Note_on_c, 0, 56, 100
1, 43872, Note_off_c, 0, 56, 100
1, 43872, Note_on_c, 0, 59, 100
1, 43968, Note_off_c, 0, 59, 100
1, 43968, Note_on_c, 0, 62, 100
1, 44064, Note_off_c, 0, 62, 100
1, 44064, Note_on_c, 0, 66, 100
1, 44160, Note_off_c, 0, 66, 100
1, 44160, Note_on_c, 0, 61, 100
1, 44256, Note_off_c, 0, 61, 100
1, 44256, Note_on_c, 0, 62, 100
1, 44352, Note_off_c, 0, 62, 100
1, 44352, Note_on_c, 0, 66, 100
1, 44448, Note_off_c, 0, 66, 100
1, 44448, Note_on_c, 0, 69, 100
1, 44544, Note_off_c, 0, 69, 100
1, 44544, Note_on_c, 0, 73, 100
1, 44640, Note_off_c, 0, 73, 100
1, 44640, Note_on_c, 0, 72, 100
1, 44736, Note_off_c, 0, 72, 100
1, 44736, Note_on_c, 0, 71, 100
1, 44832, Note_off_c, 0, 71, 100
1, 44832, Note_on_c, 0, 68, 100
1, 44928, Note_off_c, 0, 68, 100
1, 44928, Note_on_c, 0, 69, 100
1, 45024, Note_off_c, 0, 69, 100
1, 45024, Note_on_c, 0, 68, 100
1, 45120, Note_off_c, 0, 68, 100
1, 45120, Note_on_c, 0, 67, 100
1, 45184, Note_off_c, 0, 67, 100
1, 45184, Note_on_c, 0, 66, 100
1, 45248, Note_off_c, 0, 66, 100
1, 45248, Note_on_c, 0, 67, 100
1, 45312, Note_off_c, 0, 67, 100
1, 45312, Note_on_c, 0, 66, 100
1, 45504, Note_off_c, 0, 66, 100
1, 45504, Note_on_c, 0, 65, 100
1, 45600, Note_off_c, 0, 65, 100
1, 45600, Note_on_c, 0, 64, 100
1, 45696, Note_off_c, 0, 64, 100
1, 45696, Note_on_c, 0, 63, 100
1, 45792, Note_off_c, 0, 63, 100
1, 45792, Note_on_c, 0, 62, 100
1, 45888, Note_off_c, 0, 62, 100
1, 45888, Note_on_c, 0, 61, 100
1, 45984, Note_off_c, 0, 61, 100
1, 45984, Note_on_c, 0, 65, 100
1, 46080, Note_off_c, 0, 65, 100
1, 46080, Note_on_c, 0, 60, 100
1, 46176, Note_off_c, 0, 60, 100
1, 46176, Note_on_c, 0, 61, 100
1, 46272, Note_off_c, 0, 61, 100
1, 46272, Note_on_c, 0, 58, 100
1, 46368, Note_off_c, 0, 58, 100
1, 46368, Note_on_c, 0, 55, 100
1, 46464, Note_off_c, 0, 55, 100
1, 46464, Note_on_c, 0, 64, 100
1, 46560, Note_off_c, 0, 64, 100
1, 46560, Note_on_c, 0, 62, 100
1, 46656, Note_off_c, 0, 62, 100
1, 46656, Note_on_c, 0, 59, 100
1, 46752, Note_off_c, 0, 59, 100
1, 46752, Note_on_c, 0, 58, 100
1, 46848, Note_off_c, 0, 58, 100
1, 46848, Note_on_c, 0, 57, 100
1, 46944, Note_off_c, 0, 57, 100
1, 46944, Note_on_c, 0, 54, 100
1, 47040, Note_off_c, 0, 54, 100
1, 47040, Note_on_c, 0, 53, 100
1, 47136, Note_off_c, 0, 53, 100
1, 47136, Note_on_c, 0, 52, 100
1, 47232, Note_off_c, 0, 52, 100
1, 47232, Note_on_c, 0, 51, 100
1, 47328, Note_off_c, 0, 51, 100
1, 47328, Note_on_c, 0, 47, 100
1, 47424, Note_off_c, 0, 47, 100
1, 48192, Note_on_c, 0, 65, 100
1, 48288, Note_off_c, 0, 65, 100
1, 48288, Note_on_c, 0, 64, 100
1, 48384, Note_off_c, 0, 64, 100
1, 48384, Note_on_c, 0, 63, 100
1, 48480, Note_off_c, 0, 63, 100
1, 48480, Note_on_c, 0, 60, 100
1, 48576, Note_off_c, 0, 60, 100
1, 48576, Note_on_c, 0, 57, 100
1, 48704, Note_off_c, 0, 57, 100
1, 48704, Note_on_c, 0, 54, 100
1, 48768, Note_off_c, 0, 54, 100
1, 48768, Note_on_c, 0, 59, 100
1, 48864, Note_off_c, 0, 59, 100
1, 48864, Note_on_c, 0, 54, 100
1, 48960, Note_off_c, 0, 54, 100
1, 48960, Note_on_c, 0, 56, 100
1, 49056, Note_off_c, 0, 56, 100
1, 49056, Note_on_c, 0, 59, 100
1, 49152, Note_off_c, 0, 59, 100
1, 49152, Note_on_c, 0, 61, 100
1, 49248, Note_off_c, 0, 61, 100
1, 49248, Note_on_c, 0, 63, 100
1, 49344, Note_off_c, 0, 63, 100
1, 49344, Note_on_c, 0, 64, 100
1, 49440, Note_off_c, 0, 64, 100
1, 49440, Note_on_c, 0, 66, 100
1, 49536, Note_off_c, 0, 66, 100
1, 49536, Note_on_c, 0, 68, 100
1, 49632, Note_off_c, 0, 68, 100
1, 49632, Note_on_c, 0, 69, 100
1, 49728, Note_off_c, 0, 69, 100
1, 49728, Note_on_c, 0, 71, 100
1, 49855, Note_off_c, 0, 71, 100
1, 49855, Note_on_c, 0, 68, 100
1, 49919, Note_off_c, 0, 68, 100
1, 49919, Note_on_c, 0, 68, 100
1, 50015, Note_off_c, 0, 68, 100
1, 50015, Note_on_c, 0, 69, 100
1, 50111, Note_off_c, 0, 69, 100
1, 50111, Note_on_c, 0, 68, 100
1, 50207, Note_off_c, 0, 68, 100
1, 50207, Note_on_c, 0, 66, 100
1, 50495, Note_off_c, 0, 66, 100
1, 50831, Note_on_c, 0, 65, 100
1, 50975, Note_off_c, 0, 65, 100
1, 50975, Note_on_c, 0, 64, 100
1, 51071, Note_off_c, 0, 64, 100
1, 51071, Note_on_c, 0, 63, 100
1, 51167, Note_off_c, 0, 63, 100
1, 51167, Note_on_c, 0, 60, 100
1, 51263, Note_off_c, 0, 60, 100
1, 51263, Note_on_c, 0, 57, 100
1, 51327, Note_off_c, 0, 57, 100
1, 51327, Note_on_c, 0, 53, 100
1, 51391, Note_off_c, 0, 53, 100
1, 51391, Note_on_c, 0, 62, 100
1, 51503, Note_off_c, 0, 62, 100
1, 51503, Note_on_c, 0, 60, 100
1, 51599, Note_off_c, 0, 60, 100
1, 51599, Note_on_c, 0, 59, 100
1, 51711, Note_off_c, 0, 59, 100
1, 51711, Note_on_c, 0, 58, 100
1, 51775, Note_off_c, 0, 58, 100
1, 51775, Note_on_c, 0, 57, 100
1, 51887, Note_off_c, 0, 57, 100
1, 51887, Note_on_c, 0, 59, 100
1, 51983, Note_off_c, 0, 59, 100
1, 51983, Note_on_c, 0, 61, 100
1, 52095, Note_off_c, 0, 61, 100
1, 52095, Note_on_c, 0, 63, 100
1, 52223, Note_off_c, 0, 63, 100
1, 52223, Note_on_c, 0, 65, 100
1, 52319, Note_off_c, 0, 65, 100
1, 52319, Note_on_c, 0, 66, 100
1, 52415, Note_off_c, 0, 66, 100
1, 52415, Note_on_c, 0, 68, 100
1, 52511, Note_off_c, 0, 68, 100
1, 52511, Note_on_c, 0, 71, 100
1, 52607, Note_off_c, 0, 71, 100
1, 52607, Note_on_c, 0, 73, 100
1, 52703, Note_off_c, 0, 73, 100
1, 52703, Note_on_c, 0, 75, 100
1, 52847, Note_off_c, 0, 75, 100
1, 52847, Note_on_c, 0, 76, 100
1, 52943, Note_off_c, 0, 76, 100
1, 52943, Note_on_c, 0, 75, 100
1, 53087, Note_off_c, 0, 75, 100
1, 53087, Note_on_c, 0, 73, 100
1, 53183, Note_off_c, 0, 73, 100
1, 53183, Note_on_c, 0, 71, 100
1, 53279, Note_off_c, 0, 71, 100
1, 53279, Note_on_c, 0, 69, 100
1, 53375, Note_off_c, 0, 69, 100
1, 53375, Note_on_c, 0, 68, 100
1, 53423, Note_off_c, 0, 68, 100
1, 53423, Note_on_c, 0, 66, 100
1, 53519, Note_off_c, 0, 66, 100
1, 53519, Note_on_c, 0, 65, 100
1, 53567, Note_off_c, 0, 65, 100
1, 53567, Note_on_c, 0, 64, 100
1, 53759, Note_off_c, 0, 64, 100
1, 53759, Note_on_c, 0, 63, 100
1, 53855, Note_off_c, 0, 63, 100
1, 53855, Note_on_c, 0, 65, 100
1, 53951, Note_off_c, 0, 65, 100
1, 53951, Note_on_c, 0, 67, 100
1, 54047, Note_off_c, 0, 67, 100
1, 54047, Note_on_c, 0, 69, 100
1, 54143, Note_off_c, 0, 69, 100
1, 54143, Note_on_c, 0, 70, 100
1, 54239, Note_off_c, 0, 70, 100
1, 54239, Note_on_c, 0, 66, 100
1, 54335, Note_off_c, 0, 66, 100
1, 54335, Note_on_c, 0, 68, 100
1, 54431, Note_off_c, 0, 68, 100
1, 54431, Note_on_c, 0, 70, 100
1, 54527, Note_off_c, 0, 70, 100
1, 54527, Note_on_c, 0, 71, 100
1, 54623, Note_off_c, 0, 71, 100
1, 54623, Note_on_c, 0, 70, 100
1, 54671, Note_off_c, 0, 70, 100
1, 54671, Note_on_c, 0, 73, 100
1, 54815, Note_off_c, 0, 73, 100
1, 54815, Note_on_c, 0, 70, 100
1, 54863, Note_off_c, 0, 70, 100
1, 54863, Note_on_c, 0, 71, 100
1, 55007, Note_off_c, 0, 71, 100
1, 55007, Note_on_c, 0, 69, 100
1, 55103, Note_off_c, 0, 69, 100
1, 55103, Note_on_c, 0, 68, 100
1, 55199, Note_off_c, 0, 68, 100
1, 55199, Note_on_c, 0, 67, 100
1, 55295, Note_off_c, 0, 67, 100
1, 55295, Note_on_c, 0, 66, 100
1, 55391, Note_off_c, 0, 66, 100
1, 55391, Note_on_c, 0, 71, 100
1, 55487, Note_off_c, 0, 71, 100
1, 55487, Note_on_c, 0, 66, 100
1, 55679, Note_off_c, 0, 66, 100
1, 55679, Note_on_c, 0, 65, 100
1, 55727, Note_off_c, 0, 65, 100
1, 55727, Note_on_c, 0, 64, 100
1, 55823, Note_off_c, 0, 64, 100
1, 55823, Note_on_c, 0, 63, 100
1, 55919, Note_off_c, 0, 63, 100
1, 55919, Note_on_c, 0, 67, 100
1, 56015, Note_off_c, 0, 67, 100
1, 56015, Note_on_c, 0, 62, 100
1, 56127, Note_off_c, 0, 62, 100
1, 56127, Note_on_c, 0, 60, 100
1, 56191, Note_off_c, 0, 60, 100
1, 56191, Note_on_c, 0, 57, 100
1, 56319, Note_off_c, 0, 57, 100
1, 56319, Note_on_c, 0, 53, 100
1, 56383, Note_off_c, 0, 53, 100
1, 56383, Note_on_c, 0, 55, 100
1, 56495, Note_off_c, 0, 55, 100
1, 56495, Note_on_c, 0, 51, 100
1, 56591, Note_off_c, 0, 51, 100
1, 56591, Note_on_c, 0, 47, 100
1, 56639, Note_off_c, 0, 47, 100
1, 56639, Note_on_c, 0, 51, 100
1, 56735, Note_off_c, 0, 51, 100
1, 56735, Note_on_c, 0, 44, 100
1, 56927, Note_off_c, 0, 44, 100
1, 57663, Note_on_c, 0, 44, 100
1, 57791, Note_off_c, 0, 44, 100
1, 57791, Note_on_c, 0, 51, 100
1, 57887, Note_off_c, 0, 51, 100
1, 57887, Note_on_c, 0, 56, 100
1, 57983, Note_off_c, 0, 56, 100
1, 57983, Note_on_c, 0, 52, 100
1, 58175, Note_off_c, 0, 52, 100
1, 58175, Note_on_c, 0, 56, 100
1, 58271, Note_off_c, 0, 56, 100
1, 58271, Note_on_c, 0, 59, 100
1, 58367, Note_off_c, 0, 59, 100
1, 58367, Note_on_c, 0, 54, 100
1, 58559, Note_off_c, 0, 54, 100
1, 58559, Note_on_c, 0, 58, 100
1, 58655, Note_off_c, 0, 58, 100
1, 58655, Note_on_c, 0, 61, 100
1, 58751, Note_off_c, 0, 61, 100
1, 58751, Note_on_c, 0, 56, 100
1, 58895, Note_off_c, 0, 56, 100
1, 58895, Note_on_c, 0, 59, 100
1, 59007, Note_off_c, 0, 59, 100
1, 59007, Note_on_c, 0, 63, 100
1, 59135, Note_off_c, 0, 63, 100
1, 59135, Note_on_c, 0, 58, 100
1, 59231, Note_off_c, 0, 58, 100
1, 59231, Note_on_c, 0, 61, 100
1, 59423, Note_off_c, 0, 61, 100
1, 59423, Note_on_c, 0, 66, 100
1, 59519, Note_off_c, 0, 66, 100
1, 59519, Note_on_c, 0, 59, 100
1, 59711, Note_off_c, 0, 59, 100
1, 59711, Note_on_c, 0, 64, 100
1, 59807, Note_off_c, 0, 64, 100
1, 59807, Note_on_c, 0, 68, 100
1, 59903, Note_off_c, 0, 68, 100
1, 59903, Note_on_c, 0, 61, 100
1, 59999, Note_off_c, 0, 61, 100
1, 59999, Note_on_c, 0, 66, 100
1, 60095, Note_off_c, 0, 66, 100
1, 60095, Note_on_c, 0, 70, 100
1, 60191, Note_off_c, 0, 70, 100
1, 60191, Note_on_c, 0, 66, 100
1, 60287, Note_off_c, 0, 66, 100
1, 60287, Note_on_c, 0, 64, 100
1, 60383, Note_off_c, 0, 64, 100
1, 60383, Note_on_c, 0, 68, 100
1, 60479, Note_off_c, 0, 68, 100
1, 60479, Note_on_c, 0, 71, 100
1, 60575, Note_off_c, 0, 71, 100
1, 60575, Note_on_c, 0, 68, 100
1, 60671, Note_off_c, 0, 68, 100
1, 60671, Note_on_c, 0, 70, 100
1, 60767, Note_off_c, 0, 70, 100
1, 60767, Note_on_c, 0, 68, 100
1, 60863, Note_off_c, 0, 68, 100
1, 60863, Note_on_c, 0, 68, 100
1, 60959, Note_off_c, 0, 68, 100
1, 60959, Note_on_c, 0, 67, 100
1, 61055, Note_off_c, 0, 67, 100
1, 61055, Note_on_c, 0, 66, 100
1, 61151, Note_off_c, 0, 66, 100
1, 61151, Note_on_c, 0, 62, 100
1, 61247, Note_off_c, 0, 62, 100
1, 61247, Note_on_c, 0, 58, 100
1, 61343, Note_off_c, 0, 58, 100
1, 61343, Note_on_c, 0, 54, 100
1, 61439, Note_off_c, 0, 54, 100
1, 61439, Note_on_c, 0, 58, 100
1, 61535, Note_off_c, 0, 58, 100
1, 61535, Note_on_c, 0, 54, 100
1, 61631, Note_off_c, 0, 54, 100
1, 61631, Note_on_c, 0, 56, 100
1, 61823, Note_off_c, 0, 56, 100
1, 62207, Note_on_c, 0, 67, 100
1, 62245, Note_off_c, 0, 67, 100
1, 62245, Note_on_c, 0, 69, 100
1, 62283, Note_off_c, 0, 69, 100
1, 62283, Note_on_c, 0, 72, 100
1, 62321, Note_off_c, 0, 72, 100
1, 62321, Note_on_c, 0, 75, 100
1, 62461, Note_off_c, 0, 75, 100
1, 62461, Note_on_c, 0, 73, 100
1, 62525, Note_off_c, 0, 73, 100
1, 62525, Note_on_c, 0, 71, 100
1, 62589, Note_off_c, 0, 71, 100
1, 62589, Note_on_c, 0, 70, 100
1, 62685, Note_off_c, 0, 70, 100
1, 62685, Note_on_c, 0, 68, 100
1, 62781, Note_off_c, 0, 68, 100
1, 62781, Note_on_c, 0, 67, 100
1, 62877, Note_off_c, 0, 67, 100
1, 62877, Note_on_c, 0, 66, 100
1, 62973, Note_off_c, 0, 66, 100
1, 62973, Note_on_c, 0, 65, 100
1, 63069, Note_off_c, 0, 65, 100
1, 63069, Note_on_c, 0, 64, 100
1, 63165, Note_off_c, 0, 64, 100
1, 63165, Note_on_c, 0, 63, 100
1, 63261, Note_off_c, 0, 63, 100
1, 63261, Note_on_c, 0, 62, 100
1, 63357, Note_off_c, 0, 62, 100
1, 63357, Note_on_c, 0, 61, 100
1, 63453, Note_off_c, 0, 61, 100
1, 63453, Note_on_c, 0, 62, 100
1, 63549, Note_off_c, 0, 62, 100
1, 63549, Note_on_c, 0, 65, 100
1, 63645, Note_off_c, 0, 65, 100
1, 63645, Note_on_c, 0, 64, 100
1, 63741, Note_off_c, 0, 64, 100
1, 63741, Note_on_c, 0, 63, 100
1, 63837, Note_off_c, 0, 63, 100
1, 64605, Note_on_c, 0, 73, 100
1, 64653, Note_off_c, 0, 73, 100
1, 64653, Note_on_c, 0, 76, 100
1, 64797, Note_off_c, 0, 76, 100
1, 64797, Note_on_c, 0, 75, 100
1, 64893, Note_off_c, 0, 75, 100
1, 64893, Note_on_c, 0, 74, 100
1, 65021, Note_off_c, 0, 74, 100
1, 65021, Note_on_c, 0, 72, 100
1, 65149, Note_off_c, 0, 72, 100
1, 65149, Note_on_c, 0, 70, 100
1, 65213, Note_off_c, 0, 70, 100
1, 65213, Note_on_c, 0, 69, 100
1, 65325, Note_off_c, 0, 69, 100
1, 65325, Note_on_c, 0, 67, 100
1, 65421, Note_off_c, 0, 67, 100
1, 65421, Note_on_c, 0, 65, 100
1, 65469, Note_off_c, 0, 65, 100
1, 65469, Note_on_c, 0, 64, 100
1, 65565, Note_off_c, 0, 64, 100
1, 65565, Note_on_c, 0, 63, 100
1, 65661, Note_off_c, 0, 63, 100
1, 65661, Note_on_c, 0, 60, 100
1, 65757, Note_off_c, 0, 60, 100
1, 65757, Note_on_c, 0, 67, 100
1, 65917, Note_off_c, 0, 67, 100
1, 65917, Note_on_c, 0, 66, 100
1, 66045, Note_off_c, 0, 66, 100
1, 66045, Note_on_c, 0, 65, 100
1, 66093, Note_off_c, 0, 65, 100
1, 66093, Note_on_c, 0, 64, 100
1, 66189, Note_off_c, 0, 64, 100
1, 66189, Note_on_c, 0, 63, 100
1, 66285, Note_off_c, 0, 63, 100
1, 66285, Note_on_c, 0, 66, 100
1, 66381, Note_off_c, 0, 66, 100
1, 66381, Note_on_c, 0, 62, 100
1, 66525, Note_off_c, 0, 62, 100
1, 66525, Note_on_c, 0, 60, 100
1, 66621, Note_off_c, 0, 60, 100
1, 66621, Note_on_c, 0, 57, 100
1, 66717, Note_off_c, 0, 57, 100
1, 66717, Note_on_c, 0, 54, 100
1, 66813, Note_off_c, 0, 54, 100
1, 66813, Note_on_c, 0, 58, 100
1, 66957, Note_off_c, 0, 58, 100
1, 66957, Note_on_c, 0, 59, 100
1, 67197, Note_off_c, 0, 59, 100
1, 67197, Note_on_c, 0, 60, 100
1, 67293, Note_off_c, 0, 60, 100
1, 67293, Note_on_c, 0, 61, 100
1, 67389, Note_off_c, 0, 61, 100
1, 67965, Note_on_c, 0, 66, 100
1, 68061, Note_off_c, 0, 66, 100
1, 68061, Note_on_c, 0, 65, 100
1, 68157, Note_off_c, 0, 65, 100
1, 68157, Note_on_c, 0, 65, 100
1, 68253, Note_off_c, 0, 65, 100
1, 68253, Note_on_c, 0, 63, 100
1, 68349, Note_off_c, 0, 63, 100
1, 68349, Note_on_c, 0, 62, 100
1, 68397, Note_off_c, 0, 62, 100
1, 68397, Note_on_c, 0, 60, 100
1, 68493, Note_off_c, 0, 60, 100
1, 68493, Note_on_c, 0, 59, 100
1, 68589, Note_off_c, 0, 59, 100
1, 68589, Note_on_c, 0, 68, 100
1, 68685, Note_off_c, 0, 68, 100
1, 68685, Note_on_c, 0, 66, 100
1, 68781, Note_off_c, 0, 66, 100
1, 68781, Note_on_c, 0, 60, 100
1, 68877, Note_off_c, 0, 60, 100
1, 68877, Note_on_c, 0, 62, 100
1, 68973, Note_off_c, 0, 62, 100
1, 68973, Note_on_c, 0, 65, 100
1, 69069, Note_off_c, 0, 65, 100
1, 69069, Note_on_c, 0, 62, 100
1, 69165, Note_off_c, 0, 62, 100
1, 69165, Note_on_c, 0, 63, 100
1, 69357, Note_off_c, 0, 63, 100
1, 69357, Note_on_c, 0, 70, 100
1, 69453, Note_off_c, 0, 70, 100
1, 69453, Note_on_c, 0, 72, 100
1, 69597, Note_off_c, 0, 72, 100
1, 69597, Note_on_c, 0, 73, 100
1, 69693, Note_off_c, 0, 73, 100
1, 69693, Note_on_c, 0, 70, 100
1, 69789, Note_off_c, 0, 70, 100
1, 69789, Note_on_c, 0, 67, 100
1, 69885, Note_off_c, 0, 67, 100
1, 69885, Note_on_c, 0, 71, 100
1, 69981, Note_off_c, 0, 71, 100
1, 69981, Note_on_c, 0, 72, 100
1, 70077, Note_off_c, 0, 72, 100
1, 70077, Note_on_c, 0, 69, 100
1, 70221, Note_off_c, 0, 69, 100
1, 70221, Note_on_c, 0, 70, 100
1, 70317, Note_off_c, 0, 70, 100
1, 70317, Note_on_c, 0, 71, 100
1, 70413, Note_off_c, 0, 71, 100
1, 70413, Note_on_c, 0, 68, 100
1, 70557, Note_off_c, 0, 68, 100
1, 70557, Note_on_c, 0, 64, 100
1, 70653, Note_off_c, 0, 64, 100
1, 70653, Note_on_c, 0, 69, 100
1, 70749, Note_off_c, 0, 69, 100
1, 70749, Note_on_c, 0, 70, 100
1, 70845, Note_off_c, 0, 70, 100
1, 70845, Note_on_c, 0, 67, 100
1, 70941, Note_off_c, 0, 67, 100
1, 70941, Note_on_c, 0, 64, 100
1, 71037, Note_off_c, 0, 64, 100
1, 71037, Note_on_c, 0, 68, 100
1, 71133, Note_off_c, 0, 68, 100
1, 71133, Note_on_c, 0, 69, 100
1, 71229, Note_off_c, 0, 69, 100
1, 71229, Note_on_c, 0, 65, 100
1, 71373, Note_off_c, 0, 65, 100
1, 71373, Note_on_c, 0, 62, 100
1, 71421, Note_off_c, 0, 62, 100
1, 71421, Note_on_c, 0, 66, 100
1, 71517, Note_off_c, 0, 66, 100
1, 71517, Note_on_c, 0, 67, 100
1, 71613, Note_off_c, 0, 67, 100
1, 71613, Note_on_c, 0, 63, 100
1, 71757, Note_off_c, 0, 63, 100
1, 71757, Note_on_c, 0, 61, 100
1, 71805, Note_off_c, 0, 61, 100
1, 71805, Note_on_c, 0, 65, 100
1, 71853, Note_off_c, 0, 65, 100
1, 71853, Note_on_c, 0, 64, 100
1, 71949, Note_off_c, 0, 64, 100
1, 71949, Note_on_c, 0, 63, 100
1, 72093, Note_off_c, 0, 63, 100
1, 72093, Note_on_c, 0, 65, 100
1, 72189, Note_off_c, 0, 65, 100
1, 72189, Note_on_c, 0, 60, 100
1, 72285, Note_off_c, 0, 60, 100
1, 72285, Note_on_c, 0, 63, 100
1, 72381, Note_off_c, 0, 63, 100
1, 72381, Note_on_c, 0, 62, 100
1, 72477, Note_off_c, 0, 62, 100
1, 72477, Note_on_c, 0, 60, 100
1, 72573, Note_off_c, 0, 60, 100
1, 72573, Note_on_c, 0, 58, 100
1, 72669, Note_off_c, 0, 58, 100
1, 72669, Note_on_c, 0, 53, 100
1, 72957, Note_off_c, 0, 53, 100
1, 72957, Note_on_c, 0, 69, 100
1, 73053, Note_off_c, 0, 69, 100
1, 73053, Note_on_c, 0, 67, 100
1, 73149, Note_off_c, 0, 67, 100
1, 73149, Note_on_c, 0, 65, 100
1, 73245, Note_off_c, 0, 65, 100
1, 73245, Note_on_c, 0, 64, 100
1, 73341, Note_off_c, 0, 64, 100
1, 73341, Note_on_c, 0, 63, 100
1, 73437, Note_off_c, 0, 63, 100
1, 73437, Note_on_c, 0, 65, 100
1, 73533, Note_off_c, 0, 65, 100
1, 73533, Note_on_c, 0, 67, 100
1, 73629, Note_off_c, 0, 67, 100
1, 73629, Note_on_c, 0, 73, 100
1, 73773, Note_off_c, 0, 73, 100
1, 73773, Note_on_c, 0, 77, 100
1, 73869, Note_off_c, 0, 77, 100
1, 73869, Note_on_c, 0, 76, 100
1, 73917, Note_off_c, 0, 76, 100
1, 73917, Note_on_c, 0, 75, 100
1, 74013, Note_off_c, 0, 75, 100
1, 74013, Note_on_c, 0, 74, 100
1, 74109, Note_off_c, 0, 74, 100
1, 74109, Note_on_c, 0, 72, 100
1, 74205, Note_off_c, 0, 72, 100
1, 74205, Note_on_c, 0, 70, 100
1, 74301, Note_off_c, 0, 70, 100
1, 74301, Note_on_c, 0, 69, 100
1, 74397, Note_off_c, 0, 69, 100
1, 74397, Note_on_c, 0, 67, 100
1, 74493, Note_off_c, 0, 67, 100
1, 74493, Note_on_c, 0, 65, 100
1, 74557, Note_off_c, 0, 65, 100
1, 74557, Note_on_c, 0, 64, 100
1, 74621, Note_off_c, 0, 64, 100
1, 74621, Note_on_c, 0, 63, 100
1, 74781, Note_off_c, 0, 63, 100
1, 74781, Note_on_c, 0, 66, 100
1, 74877, Note_off_c, 0, 66, 100
1, 74877, Note_on_c, 0, 62, 100
1, 74973, Note_off_c, 0, 62, 100
1, 74973, Note_on_c, 0, 61, 100
1, 75069, Note_off_c, 0, 61, 100
1, 75069, Note_on_c, 0, 56, 100
1, 75261, Note_off_c, 0, 56, 100
1, 75261, Note_on_c, 0, 53, 100
1, 75309, Note_off_c, 0, 53, 100
1, 75309, Note_on_c, 0, 58, 100
1, 75789, Note_off_c, 0, 58, 100
1, 75789, Note_on_c, 0, 56, 100
1, 75837, Note_off_c, 0, 56, 100
1, 75837, Note_on_c, 0, 58, 100
1, 75983, Note_off_c, 0, 58, 100
1, 75983, End_track
0, 0, End_of_file
