0, 0, Header, 1, 1, 192
1, 0, Start_track
1, 0, Title_t, "Melody"
1, 0, Tempo, 476190
1, 0, Key_signature, -3, "major"
1, 0, Time_signature, 4, 2, 24, 8
1, 448, Note_on_c, 0, 55, 100
1, 512, Note_off_c, 0, 55, 100
1, 512, Note_on_c, 0, 60, 100
1, 576, Note_off_c, 0, 60, 100
1, 576, Note_on_c, 0, 63, 100
1, 640, Note_off_c, 0, 63, 100
1, 640, Note_on_c, 0, 65, 100
1, 704, Note_off_c, 0, 65, 100
1, 704, Note_on_c, 0, 67, 100
1, 768, Note_off_c, 0, 67, 100
1, 768, Note_on_c, 0, 63, 100
1, 816, Note_off_c, 0, 63, 100
1, 816, Note_on_c, 0, 65, 100
1, 1152, Note_off_c, 0, 65, 100
1, 1152, Note_on_c, 0, 65, 100
1, 1296, Note_off_c, 0, 65, 100
1, 1296, Note_on_c, 0, 63, 100
1, 1344, Note_off_c, 0, 63, 100
1, 1344, Note_on_c, 0, 65, 100
1, 1536, Note_off_c, 0, 65, 100
1, 2016, Note_on_c, 0, 55, 100
1, 2064, Note_off_c, 0, 55, 100
1, 2064, Note_on_c, 0, 60, 100
1, 2112, Note_off_c, 0, 60, 100
1, 2112, Note_on_c, 0, 63, 100
1, 2176, Note_off_c, 0, 63, 100
1, 2176, Note_on_c, 0, 65, 100
1, 2240, Note_off_c, 0, 65, 100
1, 2240, Note_on_c, 0, 66, 100
1, 2304, Note_off_c, 0, 66, 100
1, 2304, Note_on_c, 0, 65, 100
1, 2640, Note_off_c, 0, 65, 100
1, 2640, Note_on_c, 0, 63, 100
1, 2688, Note_off_c, 0, 63, 100
1, 2688, Note_on_c, 0, 65, 100
1, 2880, Note_off_c, 0, 65, 100
1, 2880, Note_on_c, 0, 63, 100
1, 2976, Note_off_c, 0, 63, 100
1, 2976, Note_on_c, 0, 66, 100
1, 3168, Note_off_c, 0, 66, 100
1, 3696, Note_on_c, 0, 66, 100
1, 3792, Note_off_c, 0, 66, 100
1, 3792, Note_on_c, 0, 63, 100
1, 3840, Note_off_c, 0, 63, 100
1, 3840, Note_on_c, 0, 65, 100
1, 3936, Note_off_c, 0, 65, 100
1, 3936, Note_on_c, 0, 64, 100
1, 4080, Note_off_c, 0, 64, 100
1, 4080, Note_on_c, 0, 63, 100
1, 4176, Note_off_c, 0, 63, 100
1, 4176, Note_on_c, 0, 61, 100
1, 4272, Note_off_c, 0, 61, 100
1, 4272, Note_on_c, 0, 63, 100
1, 4320, Note_off_c, 0, 63, 100
1, 4320, Note_on_c, 0, 62, 100
1, 4368, Note_off_c, 0, 62, 100
1, 4368, Note_on_c, 0, 60, 100
1, 4416, Note_off_c, 0, 60, 100
1, 4416, Note_on_c, 0, 59, 100
1, 4480, Note_off_c, 0, 59, 100
1, 4480, Note_on_c, 0, 62, 100
1, 4544, Note_off_c, 0, 62, 100
1, 4544, Note_on_c, 0, 65, 100
1, 4608, Note_off_c, 0, 65, 100
1, 4608, Note_on_c, 0, 70, 100
1, 4896, Note_off_c, 0, 70, 100
1, 4896, Note_on_c, 0, 68, 100
1, 4944, Note_off_c, 0, 68, 100
1, 4944, Note_on_c, 0, 70, 100
1, 4992, Note_off_c, 0, 70, 100
1, 4992, Note_on_c, 0, 65, 100
1, 5184, Note_off_c, 0, 65, 100
1, 5184, Note_on_c, 0, 67, 100
1, 5280, Note_off_c, 0, 67, 100
1, 5280, Note_on_c, 0, 63, 100
1, 5328, Note_off_c, 0, 63, 100
1, 5328, Note_on_c, 0, 65, 100
1, 5472, Note_off_c, 0, 65, 100
1, 5472, Note_on_c, 0, 63, 100
1, 5520, Note_off_c, 0, 63, 100
1, 5520, Note_on_c, 0, 60, 100
1, 5568, Note_off_c, 0, 60, 100
1, 5568, Note_on_c, 0, 53, 100
1, 5616, Note_off_c, 0, 53, 100
1, 5616, Note_on_c, 0, 51, 100
1, 5664, Note_off_c, 0, 51, 100
1, 5664, Note_on_c, 0, 53, 100
1, 5712, Note_off_c, 0, 53, 100
1, 5712, Note_on_c, 0, 51, 100
1, 5760, Note_off_c, 0, 51, 100
1, 5760, Note_on_c, 0, 55, 100
1, 5808, Note_off_c, 0, 55, 100
1, 5808, Note_on_c, 0, 48, 100
1, 5856, Note_off_c, 0, 48, 100
1, 5856, Note_on_c, 0, 51, 100
1, 5952, Note_off_c, 0, 51, 100
1, 6528, Note_on_c, 0, 73, 100
1, 6624, Note_off_c, 0, 73, 100
1, 6624, Note_on_c, 0, 74, 100
1, 6720, Note_off_c, 0, 74, 100
1, 6720, Note_on_c, 0, 72, 100
1, 6816, Note_off_c, 0, 72, 100
1, 6816, Note_on_c, 0, 70, 100
1, 7008, Note_off_c, 0, 70, 100
1, 7008, Note_on_c, 0, 69, 100
1, 7152, Note_off_c, 0, 69, 100
1, 7152, Note_on_c, 0, 67, 100
1, 7248, Note_off_c, 0, 67, 100
1, 7248, Note_on_c, 0, 65, 100
1, 7296, Note_off_c, 0, 65, 100
1, 7296, Note_on_c, 0, 63, 100
1, 7536, Note_off_c, 0, 63, 100
1, 7536, Note_on_c, 0, 62, 100
1, 7632, Note_off_c, 0, 62, 100
1, 7632, Note_on_c, 0, 60, 100
1, 7728, Note_off_c, 0, 60, 100
1, 7728, Note_on_c, 0, 59, 100
1, 7824, Note_off_c, 0, 59, 100
1, 7824, Note_on_c, 0, 62, 100
1, 7872, Note_off_c, 0, 62, 100
1, 7872, Note_on_c, 0, 58, 100
1, 7968, Note_off_c, 0, 58, 100
1, 7968, Note_on_c, 0, 58, 100
1, 8016, Note_off_c, 0, 58, 100
1, 8016, Note_on_c, 0, 57, 100
1, 8064, Note_off_c, 0, 57, 100
1, 8064, Note_on_c, 0, 56, 100
1, 8256, Note_off_c, 0, 56, 100
1, 8256, Note_on_c, 0, 54, 100
1, 8400, Note_off_c, 0, 54, 100
1, 8400, Note_on_c, 0, 55, 100
1, 8496, Note_off_c, 0, 55, 100
1, 8496, Note_on_c, 0, 63, 100
1, 8544, Note_off_c, 0, 63, 100
1, 8544, Note_on_c, 0, 65, 100
1, 8640, Note_off_c, 0, 65, 100
1, 8640, Note_on_c, 0, 63, 100
1, 8784, Note_off_c, 0, 63, 100
1, 8784, Note_on_c, 0, 60, 100
1, 8880, Note_off_c, 0, 60, 100
1, 9120, Note_on_c, 0, 69, 100
1, 9168, Note_off_c, 0, 69, 100
1, 9168, Note_on_c, 0, 68, 100
1, 9216, Note_off_c, 0, 68, 100
1, 9216, Note_on_c, 0, 67, 100
1, 9344, Note_off_c, 0, 67, 100
1, 9344, Note_on_c, 0, 69, 100
1, 9456, Note_off_c, 0, 69, 100
1, 9456, Note_on_c, 0, 71, 100
1, 9552, Note_off_c, 0, 71, 100
1, 9552, Note_on_c, 0, 67, 100
1, 9648, Note_off_c, 0, 67, 100
1, 9648, Note_on_c, 0, 66, 100
1, 9696, Note_off_c, 0, 66, 100
1, 9696, Note_on_c, 0, 67, 100
1, 9744, Note_off_c, 0, 67, 100
1, 9744, Note_on_c, 0, 66, 100
1, 9792, Note_off_c, 0, 66, 100
1, 9792, Note_on_c, 0, 65, 100
1, 9840, Note_off_c, 0, 65, 100
1, 9840, Note_on_c, 0, 64, 100
1, 9936, Note_off_c, 0, 64, 100
1, 9936, Note_on_c, 0, 62, 100
1, 10032, Note_off_c, 0, 62, 100
1, 10032, Note_on_c, 0, 63, 100
1, 10128, Note_off_c, 0, 63, 100
1, 10128, Note_on_c, 0, 65, 100
1, 10224, Note_off_c, 0, 65, 100
1, 10224, Note_on_c, 0, 66, 100
1, 10320, Note_off_c, 0, 66, 100
1, 10320, Note_on_c, 0, 68, 100
1, 10416, Note_off_c, 0, 68, 100
1, 10416, Note_on_c, 0, 70, 100
1, 10512, Note_off_c, 0, 70, 100
1, 10512, Note_on_c, 0, 73, 100
1, 10608, Note_off_c, 0, 73, 100
1, 10608, Note_on_c, 0, 72, 100
1, 10704, Note_off_c, 0, 72, 100
1, 10704, Note_on_c, 0, 70, 100
1, 10800, Note_off_c, 0, 70, 100
1, 10800, Note_on_c, 0, 71, 100
1, 10896, Note_off_c, 0, 71, 100
1, 10896, Note_on_c, 0, 62, 100
1, 10944, Note_off_c, 0, 62, 100
1, 10944, Note_on_c, 0, 65, 100
1, 11040, Note_off_c, 0, 65, 100
1, 11040, Note_on_c, 0, 67, 100
1, 11136, Note_off_c, 0, 67, 100
1, 11136, Note_on_c, 0, 68, 100
1, 11232, Note_off_c, 0, 68, 100
1, 11232, Note_on_c, 0, 67, 100
1, 11328, Note_off_c, 0, 67, 100
1, 11328, Note_on_c, 0, 65, 100
1, 11424, Note_off_c, 0, 65, 100
1, 11424, Note_on_c, 0, 62, 100
1, 11520, Note_off_c, 0, 62, 100
1, 11520, Note_on_c, 0, 63, 100
1, 11760, Note_off_c, 0, 63, 100
1, 11760, Note_on_c, 0, 55, 100
1, 11808, Note_off_c, 0, 55, 100
1, 11808, Note_on_c, 0, 57, 100
1, 11856, Note_off_c, 0, 57, 100
1, 11856, Note_on_c, 0, 62, 100
1, 11904, Note_off_c, 0, 62, 100
1, 11904, Note_on_c, 0, 60, 100
1, 12096, Note_off_c, 0, 60, 100
1, 12672, Note_on_c, 0, 60, 100
1, 12768, Note_off_c, 0, 60, 100
1, 12768, Note_on_c, 0, 65, 100
1, 12864, Note_off_c, 0, 65, 100
1, 12864, Note_on_c, 0, 68, 100
1, 12960, Note_off_c, 0, 68, 100
1, 12960, Note_on_c, 0, 72, 100
1, 13056, Note_off_c, 0, 72, 100
1, 13056, Note_on_c, 0, 70, 100
1, 13440, Note_off_c, 0, 70, 100
1, 13440, Note_on_c, 0, 70, 100
1, 13728, Note_off_c, 0, 70, 100
1, 13728, Note_on_c, 0, 70, 100
1, 14016, Note_off_c, 0, 70, 100
1, 14016, Note_on_c, 0, 67, 100
1, 14160, Note_off_c, 0, 67, 100
1, 14160, Note_on_c, 0, 62, 100
1, 14208, Note_off_c, 0, 62, 100
1, 14208, Note_on_c, 0, 70, 100
1, 14400, Note_off_c, 0, 70, 100
1, 14400, Note_on_c, 0, 70, 100
1, 14784, Note_off_c, 0, 70, 100
1, 14784, Note_on_c, 0, 68, 100
1, 14848, Note_off_c, 0, 68, 100
1, 14848, Note_on_c, 0, 65, 100
1, 14912, Note_off_c, 0, 65, 100
1, 14912, Note_on_c, 0, 60, 100
1, 14976, Note_off_c, 0, 60, 100
1, 14976, Note_on_c, 0, 58, 100
1, 15168, Note_off_c, 0, 58, 100
1, 15168, Note_on_c, 0, 56, 100
1, 15264, Note_off_c, 0, 56, 100
1, 15744, Note_on_c, 0, 72, 100
1, 15936, Note_off_c, 0, 72, 100
1, 15936, Note_on_c, 0, 70, 100
1, 16032, Note_off_c, 0, 70, 100
1, 16032, Note_on_c, 0, 68, 100
1, 16272, Note_off_c, 0, 68, 100
1, 16272, Note_on_c, 0, 67, 100
1, 16320, Note_off_c, 0, 67, 100
1, 16320, Note_on_c, 0, 66, 100
1, 16368, Note_off_c, 0, 66, 100
1, 16368, Note_on_c, 0, 69, 100
1, 16416, Note_off_c, 0, 69, 100
1, 16416, Note_on_c, 0, 66, 100
1, 16464, Note_off_c, 0, 66, 100
1, 16464, Note_on_c, 0, 65, 100
1, 16560, Note_off_c, 0, 65, 100
1, 16560, Note_on_c, 0, 63, 100
1, 16656, Note_off_c, 0, 63, 100
1, 16656, Note_on_c, 0, 61, 100
1, 16768, Note_off_c, 0, 61, 100
1, 16768, Note_on_c, 0, 62, 100
1, 16896, Note_off_c, 0, 62, 100
1, 16896, Note_on_c, 0, 60, 100
1, 16944, Note_off_c, 0, 60, 100
1, 16944, Note_on_c, 0, 59, 100
1, 17040, Note_off_c, 0, 59, 100
1, 17040, Note_on_c, 0, 62, 100
1, 17088, Note_off_c, 0, 62, 100
1, 17088, Note_on_c, 0, 65, 100
1, 17184, Note_off_c, 0, 65, 100
1, 17184, Note_on_c, 0, 67, 100
1, 17280, Note_off_c, 0, 67, 100
1, 17280, Note_on_c, 0, 68, 100
1, 17472, Note_off_c, 0, 68, 100
1, 17472, Note_on_c, 0, 67, 100
1, 17616, Note_off_c, 0, 67, 100
1, 17616, Note_on_c, 0, 65, 100
1, 17664, Note_off_c, 0, 65, 100
1, 17664, Note_on_c, 0, 63, 100
1, 17856, Note_off_c, 0, 63, 100
1, 17856, Note_on_c, 0, 62, 100
1, 18000, Note_off_c, 0, 62, 100
1, 18000, Note_on_c, 0, 60, 100
1, 18336, Note_off_c, 0, 60, 100
1, 18336, Note_on_c, 0, 63, 100
1, 18384, Note_off_c, 0, 63, 100
1, 18384, Note_on_c, 0, 58, 100
1, 18432, Note_off_c, 0, 58, 100
1, 18432, Note_on_c, 0, 64, 100
1, 18480, Note_off_c, 0, 64, 100
1, 18480, Note_on_c, 0, 67, 100
1, 18528, Note_off_c, 0, 67, 100
1, 18528, Note_on_c, 0, 66, 100
1, 18672, Note_off_c, 0, 66, 100
1, 18672, Note_on_c, 0, 64, 100
1, 18720, Note_off_c, 0, 64, 100
1, 18720, Note_on_c, 0, 63, 100
1, 18768, Note_off_c, 0, 63, 100
1, 18768, Note_on_c, 0, 62, 100
1, 18816, Note_off_c, 0, 62, 100
1, 18816, Note_on_c, 0, 61, 100
1, 18864, Note_off_c, 0, 61, 100
1, 18864, Note_on_c, 0, 63, 100
1, 18912, Note_off_c, 0, 63, 100
1, 18912, Note_on_c, 0, 60, 100
1, 18960, Note_off_c, 0, 60, 100
1, 18960, Note_on_c, 0, 62, 100
1, 19008, Note_off_c, 0, 62, 100
1, 19008, Note_on_c, 0, 64, 100
1, 19046, Note_off_c, 0, 64, 100
1, 19046, Note_on_c, 0, 65, 100
1, 19084, Note_off_c, 0, 65, 100
1, 19084, Note_on_c, 0, 66, 100
1, 19122, Note_off_c, 0, 66, 100
1, 19122, Note_on_c, 0, 68, 100
1, 19198, Note_off_c, 0, 68, 100
1, 19198, Note_on_c, 0, 70, 100
1, 19236, Note_off_c, 0, 70, 100
1, 19236, Note_on_c, 0, 73, 100
1, 19274, Note_off_c, 0, 73, 100
1, 19274, Note_on_c, 0, 72, 100
1, 19350, Note_off_c, 0, 72, 100
1, 19350, Note_on_c, 0, 70, 100
1, 19388, Note_off_c, 0, 70, 100
1, 19388, Note_on_c, 0, 68, 100
1, 19452, Note_off_c, 0, 68, 100
1, 19452, Note_on_c, 0, 70, 100
1, 19516, Note_off_c, 0, 70, 100
1, 19516, Note_on_c, 0, 72, 100
1, 19580, Note_off_c, 0, 72, 100
1, 19580, Note_on_c, 0, 70, 100
1, 19868, Note_off_c, 0, 70, 100
1, 19868, Note_on_c, 0, 67, 100
1, 19916, Note_off_c, 0, 67, 100
1, 19916, Note_on_c, 0, 67, 100
1, 19964, Note_off_c, 0, 67, 100
1, 19964, Note_on_c, 0, 62, 100
1, 20060, Note_off_c, 0, 62, 100
1, 20060, Note_on_c, 0, 58, 100
1, 20156, Note_off_c, 0, 58, 100
1, 20444, Note_on_c, 0, 53, 100
1, 20492, Note_off_c, 0, 53, 100
1, 20492, Note_on_c, 0, 55, 100
1, 20540, Note_off_c, 0, 55, 100
1, 20540, Note_on_c, 0, 56, 100
1, 20561, Note_off_c, 0, 56, 100
1, 20561, Note_on_c, 0, 58, 100
1, 20582, Note_off_c, 0, 58, 100
1, 20582, Note_on_c, 0, 60, 100
1, 20624, Note_off_c, 0, 60, 100
1, 20624, Note_on_c, 0, 62, 100
1, 20645, Note_off_c, 0, 62, 100
1, 20645, Note_on_c, 0, 63, 100
1, 20666, Note_off_c, 0, 63, 100
1, 20666, Note_on_c, 0, 65, 100
1, 20687, Note_off_c, 0, 65, 100
1, 20687, Note_on_c, 0, 67, 100
1, 20708, Note_off_c, 0, 67, 100
1, 20708, Note_on_c, 0, 68, 100
1, 20729, Note_off_c, 0, 68, 100
1, 20729, Note_on_c, 0, 70, 100
1, 20753, Note_off_c, 0, 70, 100
1, 20753, Note_on_c, 0, 71, 100
1, 20777, Note_off_c, 0, 71, 100
1, 20777, Note_on_c, 0, 72, 100
1, 20873, Note_off_c, 0, 72, 100
1, 20873, Note_on_c, 0, 70, 100
1, 20897, Note_off_c, 0, 70, 100
1, 20897, Note_on_c, 0, 71, 100
1, 20921, Note_off_c, 0, 71, 100
1, 20921, Note_on_c, 0, 70, 100
1, 20969, Note_off_c, 0, 70, 100
1, 20969, Note_on_c, 0, 68, 100
1, 21305, Note_off_c, 0, 68, 100
1, 21305, Note_on_c, 0, 72, 100
1, 21369, Note_off_c, 0, 72, 100
1, 21369, Note_on_c, 0, 70, 100
1, 21433, Note_off_c, 0, 70, 100
1, 21433, Note_on_c, 0, 73, 100
1, 21497, Note_off_c, 0, 73, 100
1, 21497, Note_on_c, 0, 72, 100
1, 21529, Note_off_c, 0, 72, 100
1, 21529, Note_on_c, 0, 71, 100
1, 21561, Note_off_c, 0, 71, 100
1, 21561, Note_on_c, 0, 70, 100
1, 21593, Note_off_c, 0, 70, 100
1, 21593, Note_on_c, 0, 69, 100
1, 21785, Note_off_c, 0, 69, 100
1, 21785, Note_on_c, 0, 69, 100
1, 21833, Note_off_c, 0, 69, 100
1, 21833, Note_on_c, 0, 65, 100
1, 21881, Note_off_c, 0, 65, 100
1, 21881, Note_on_c, 0, 64, 100
1, 21929, Note_off_c, 0, 64, 100
1, 21929, Note_on_c, 0, 63, 100
1, 22025, Note_off_c, 0, 63, 100
1, 22025, Note_on_c, 0, 61, 100
1, 22137, Note_off_c, 0, 61, 100
1, 22137, Note_on_c, 0, 56, 100
1, 22201, Note_off_c, 0, 56, 100
1, 22201, Note_on_c, 0, 53, 100
1, 22265, Note_off_c, 0, 53, 100
1, 22265, Note_on_c, 0, 63, 100
1, 22361, Note_off_c, 0, 63, 100
1, 22361, Note_on_c, 0, 66, 100
1, 22457, Note_off_c, 0, 66, 100
1, 22457, Note_on_c, 0, 70, 100
1, 22553, Note_off_c, 0, 70, 100
1, 22553, Note_on_c, 0, 73, 100
1, 22649, Note_off_c, 0, 73, 100
1, 22649, Note_on_c, 0, 75, 100
1, 22745, Note_off_c, 0, 75, 100
1, 22745, Note_on_c, 0, 77, 100
1, 22937, Note_off_c, 0, 77, 100
1, 22937, Note_on_c, 0, 75, 100
1, 23033, Note_off_c, 0, 75, 100
1, 23033, Note_on_c, 0, 74, 100
1, 23129, Note_off_c, 0, 74, 100
1, 23129, Note_on_c, 0, 72, 100
1, 23225, Note_off_c, 0, 72, 100
1, 23225, Note_on_c, 0, 71, 100
1, 23321, Note_off_c, 0, 71, 100
1, 23321, Note_on_c, 0, 62, 100
1, 23369, Note_off_c, 0, 62, 100
1, 23369, Note_on_c, 0, 65, 100
1, 23455, Note_off_c, 0, 65, 100
1, 23455, Note_on_c, 0, 67, 100
1, 23493, Note_off_c, 0, 67, 100
1, 23493, Note_on_c, 0, 68, 100
1, 23569, Note_off_c, 0, 68, 100
1, 23569, Note_on_c, 0, 67, 100
1, 23655, Note_off_c, 0, 67, 100
1, 23655, Note_on_c, 0, 65, 100
1, 23751, Note_off_c, 0, 65, 100
1, 23751, Note_on_c, 0, 62, 100
1, 23799, Note_off_c, 0, 62, 100
1, 23799, Note_on_c, 0, 63, 100
1, 23895, Note_off_c, 0, 63, 100
1, 23895, Note_on_c, 0, 55, 100
1, 23991, Note_off_c, 0, 55, 100
1, 23991, Note_on_c, 0, 57, 100
1, 24055, Note_off_c, 0, 57, 100
1, 24055, Note_on_c, 0, 62, 100
1, 24119, Note_off_c, 0, 62, 100
1, 24119, Note_on_c, 0, 60, 100
1, 24311, Note_off_c, 0, 60, 100
1, 24759, Note_on_c, 0, 66, 100
1, 24823, Note_off_c, 0, 66, 100
1, 24823, Note_on_c, 0, 63, 100
1, 24887, Note_off_c, 0, 63, 100
1, 24887, Note_on_c, 0, 65, 100
1, 24951, Note_off_c, 0, 65, 100
1, 24951, Note_on_c, 0, 63, 100
1, 24999, Note_off_c, 0, 63, 100
1, 24999, Note_on_c, 0, 65, 100
1, 25095, Note_off_c, 0, 65, 100
1, 25095, Note_on_c, 0, 63, 100
1, 25143, Note_off_c, 0, 63, 100
1, 25143, Note_on_c, 0, 65, 100
1, 25207, Note_off_c, 0, 65, 100
1, 25207, Note_on_c, 0, 60, 100
1, 25271, Note_off_c, 0, 60, 100
1, 25271, Note_on_c, 0, 63, 100
1, 25335, Note_off_c, 0, 63, 100
1, 25335, Note_on_c, 0, 65, 100
1, 25431, Note_off_c, 0, 65, 100
1, 25623, Note_on_c, 0, 63, 100
1, 25783, Note_off_c, 0, 63, 100
1, 25783, Note_on_c, 0, 65, 100
1, 25879, Note_off_c, 0, 65, 100
1, 26055, Note_on_c, 0, 63, 100
1, 26151, Note_off_c, 0, 63, 100
1, 26151, Note_on_c, 0, 65, 100
1, 26247, Note_off_c, 0, 65, 100
1, 26247, Note_on_c, 0, 65, 100
1, 26343, Note_off_c, 0, 65, 100
1, 26343, Note_on_c, 0, 65, 100
1, 26439, Note_off_c, 0, 65, 100
1, 26439, Note_on_c, 0, 63, 100
1, 26487, Note_off_c, 0, 63, 100
1, 26487, Note_on_c, 0, 65, 100
1, 26583, Note_off_c, 0, 65, 100
1, 26583, Note_on_c, 0, 65, 100
1, 26679, Note_off_c, 0, 65, 100
1, 26679, Note_on_c, 0, 66, 100
1, 26775, Note_off_c, 0, 66, 100
1, 26775, Note_on_c, 0, 60, 100
1, 26871, Note_off_c, 0, 60, 100
1, 26871, Note_on_c, 0, 63, 100
1, 27063, Note_off_c, 0, 63, 100
1, 27063, Note_on_c, 0, 65, 100
1, 27191, Note_off_c, 0, 65, 100
1, 27191, Note_on_c, 0, 60, 100
1, 27447, Note_off_c, 0, 60, 100
1, 27447, Note_on_c, 0, 61, 100
1, 27495, Note_off_c, 0, 61, 100
1, 27495, Note_on_c, 0, 65, 100
1, 27543, Note_off_c, 0, 65, 100
1, 27543, Note_on_c, 0, 68, 100
1, 27591, Note_off_c, 0, 68, 100
1, 27591, Note_on_c, 0, 71, 100
1, 27639, Note_off_c, 0, 71, 100
1, 27639, Note_on_c, 0, 65, 100
1, 27703, Note_off_c, 0, 65, 100
1, 27703, Note_on_c, 0, 66, 100
1, 27767, Note_off_c, 0, 66, 100
1, 27767, Note_on_c, 0, 69, 100
1, 27831, Note_off_c, 0, 69, 100
1, 27831, Note_on_c, 0, 66, 100
1, 27855, Note_off_c, 0, 66, 100
1, 27855, Note_on_c, 0, 67, 100
1, 27879, Note_off_c, 0, 67, 100
1, 27879, Note_on_c, 0, 66, 100
1, 27927, Note_off_c, 0, 66, 100
1, 27927, Note_on_c, 0, 65, 100
1, 27975, Note_off_c, 0, 65, 100
1, 27975, Note_on_c, 0, 64, 100
1, 28023, Note_off_c, 0, 64, 100
1, 28023, Note_on_c, 0, 63, 100
1, 28071, Note_off_c, 0, 63, 100
1, 28071, Note_on_c, 0, 62, 100
1, 28119, Note_off_c, 0, 62, 100
1, 28119, Note_on_c, 0, 61, 100
1, 28167, Note_off_c, 0, 61, 100
1, 28167, Note_on_c, 0, 65, 100
1, 28215, Note_off_c, 0, 65, 100
1, 28215, Note_on_c, 0, 63, 100
1, 28263, Note_off_c, 0, 63, 100
1, 28263, Note_on_c, 0, 61, 100
1, 28311, Note_off_c, 0, 61, 100
1, 28311, Note_on_c, 0, 60, 100
1, 28359, Note_off_c, 0, 60, 100
1, 28359, Note_on_c, 0, 59, 100
1, 28431, Note_off_c, 0, 59, 100
1, 28431, Note_on_c, 0, 58, 100
1, 28455, Note_off_c, 0, 58, 100
1, 28455, Note_on_c, 0, 54, 100
1, 28479, Note_off_c, 0, 54, 100
1, 28479, Note_on_c, 0, 54, 100
1, 28527, Note_off_c, 0, 54, 100
1, 28527, Note_on_c, 0, 53, 100
1, 28575, Note_off_c, 0, 53, 100
1, 28575, Note_on_c, 0, 52, 100
1, 28599, Note_off_c, 0, 52, 100
1, 28599, Note_on_c, 0, 51, 100
1, 28647, Note_off_c, 0, 51, 100
1, 28647, Note_on_c, 0, 54, 100
1, 28695, Note_off_c, 0, 54, 100
1, 28695, Note_on_c, 0, 58, 100
1, 28743, Note_off_c, 0, 58, 100
1, 28743, Note_on_c, 0, 61, 100
1, 28791, Note_off_c, 0, 61, 100
1, 28791, Note_on_c, 0, 65, 100
1, 28839, Note_off_c, 0, 65, 100
1, 28839, Note_on_c, 0, 63, 100
1, 28887, Note_off_c, 0, 63, 100
1, 28887, Note_on_c, 0, 64, 100
1, 28935, Note_off_c, 0, 64, 100
1, 28935, Note_on_c, 0, 62, 100
1, 28983, Note_off_c, 0, 62, 100
1, 28983, Note_on_c, 0, 63, 100
1, 29031, Note_off_c, 0, 63, 100
1, 29031, Note_on_c, 0, 61, 100
1, 29079, Note_off_c, 0, 61, 100
1, 29079, Note_on_c, 0, 62, 100
1, 29127, Note_off_c, 0, 62, 100
1, 29127, Note_on_c, 0, 60, 100
1, 29175, Note_off_c, 0, 60, 100
1, 29175, Note_on_c, 0, 59, 100
1, 29271, Note_off_c, 0, 59, 100
1, 29463, Note_on_c, 0, 62, 100
1, 29559, Note_off_c, 0, 62, 100
1, 29559, Note_on_c, 0, 71, 100
1, 29623, Note_off_c, 0, 71, 100
1, 29623, Note_on_c, 0, 71, 100
1, 29687, Note_off_c, 0, 71, 100
1, 29687, Note_on_c, 0, 70, 100
1, 29751, Note_off_c, 0, 70, 100
1, 29751, Note_on_c, 0, 67, 100
1, 29789, Note_off_c, 0, 67, 100
1, 29789, Note_on_c, 0, 63, 100
1, 29904, Note_off_c, 0, 63, 100
1, 29904, Note_on_c, 0, 67, 100
1, 29942, Note_off_c, 0, 67, 100
1, 29942, Note_on_c, 0, 67, 100
1, 30070, Note_off_c, 0, 67, 100
1, 30070, Note_on_c, 0, 63, 100
1, 30134, Note_off_c, 0, 63, 100
1, 30134, Note_on_c, 0, 59, 100
1, 30326, Note_off_c, 0, 59, 100
1, 30326, Note_on_c, 0, 62, 100
1, 30518, Note_off_c, 0, 62, 100
1, 30518, Note_on_c, 0, 63, 100
1, 30614, Note_off_c, 0, 63, 100
1, 31046, Note_on_c, 0, 67, 100
1, 31238, Note_off_c, 0, 67, 100
1, 31238, Note_on_c, 0, 72, 100
1, 31382, Note_off_c, 0, 72, 100
1, 31382, Note_on_c, 0, 75, 100
1, 31478, Note_off_c, 0, 75, 100
1, 31622, Note_on_c, 0, 65, 100
1, 31718, Note_off_c, 0, 65, 100
1, 31862, Note_on_c, 0, 63, 100
1, 32054, Note_off_c, 0, 63, 100
1, 32054, Note_on_c, 0, 65, 100
1, 32246, Note_off_c, 0, 65, 100
1, 32246, Note_on_c, 0, 67, 100
1, 32342, Note_off_c, 0, 67, 100
1, 32582, Note_on_c, 0, 75, 100
1, 32726, Note_off_c, 0, 75, 100
1, 32726, Note_on_c, 0, 66, 100
1, 32822, Note_off_c, 0, 66, 100
1, 32822, Note_on_c, 0, 65, 100
1, 32918, Note_off_c, 0, 65, 100
1, 32918, Note_on_c, 0, 63, 100
1, 33014, Note_off_c, 0, 63, 100
1, 33014, Note_on_c, 0, 65, 100
1, 33206, Note_off_c, 0, 65, 100
1, 33206, Note_on_c, 0, 63, 100
1, 33302, Note_off_c, 0, 63, 100
1, 33302, Note_on_c, 0, 60, 100
1, 33436, Note_off_c, 0, 60, 100
1, 33436, Note_on_c, 0, 69, 100
1, 33474, Note_off_c, 0, 69, 100
1, 33474, Note_on_c, 0, 70, 100
1, 33512, Note_off_c, 0, 70, 100
1, 33512, Note_on_c, 0, 69, 100
1, 33550, Note_off_c, 0, 69, 100
1, 33550, Note_on_c, 0, 68, 100
1, 33636, Note_off_c, 0, 68, 100
1, 33636, Note_on_c, 0, 67, 100
1, 33732, Note_off_c, 0, 67, 100
1, 33732, Note_on_c, 0, 65, 100
1, 33828, Note_off_c, 0, 65, 100
1, 33828, Note_on_c, 0, 66, 100
1, 33924, Note_off_c, 0, 66, 100
1, 33924, Note_on_c, 0, 69, 100
1, 34068, Note_off_c, 0, 69, 100
1, 34068, Note_on_c, 0, 64, 100
1, 34116, Note_off_c, 0, 64, 100
1, 34116, Note_on_c, 0, 67, 100
1, 34260, Note_off_c, 0, 67, 100
1, 34260, Note_on_c, 0, 66, 100
1, 34356, Note_off_c, 0, 66, 100
1, 34356, Note_on_c, 0, 62, 100
1, 34452, Note_off_c, 0, 62, 100
1, 34452, Note_on_c, 0, 59, 100
1, 34596, Note_off_c, 0, 59, 100
1, 34596, Note_on_c, 0, 63, 100
1, 34692, Note_off_c, 0, 63, 100
1, 34692, Note_on_c, 0, 66, 100
1, 34788, Note_off_c, 0, 66, 100
1, 34788, Note_on_c, 0, 70, 100
1, 34884, Note_off_c, 0, 70, 100
1, 34884, Note_on_c, 0, 73, 100
1, 34996, Note_off_c, 0, 73, 100
1, 34996, Note_on_c, 0, 75, 100
1, 35060, Note_off_c, 0, 75, 100
1, 35060, Note_on_c, 0, 77, 100
1, 35364, Note_off_c, 0, 77, 100
1, 35364, Note_on_c, 0, 74, 100
1, 35412, Note_off_c, 0, 74, 100
1, 35412, Note_on_c, 0, 75, 100
1, 35460, Note_off_c, 0, 75, 100
1, 35460, Note_on_c, 0, 71, 100
1, 35556, Note_off_c, 0, 71, 100
1, 35556, Note_on_c, 0, 70, 100
1, 35652, Note_off_c, 0, 70, 100
1, 35652, Note_on_c, 0, 69, 100
1, 35796, Note_off_c, 0, 69, 100
1, 35796, Note_on_c, 0, 68, 100
1, 35844, Note_off_c, 0, 68, 100
1, 35844, Note_on_c, 0, 65, 100
1, 35956, Note_off_c, 0, 65, 100
1, 35956, Note_on_c, 0, 63, 100
1, 36084, Note_off_c, 0, 63, 100
1, 36084, Note_on_c, 0, 67, 100
1, 36180, Note_off_c, 0, 67, 100
1, 36180, Note_on_c, 0, 55, 100
1, 36276, Note_off_c, 0, 55, 100
1, 36276, Note_on_c, 0, 57, 100
1, 36372, Note_off_c, 0, 57, 100
1, 36372, Note_on_c, 0, 62, 100
1, 36468, Note_off_c, 0, 62, 100
1, 36468, Note_on_c, 0, 60, 100
1, 36660, Note_off_c, 0, 60, 100
1, 36660, Note_on_c, 0, 62, 100
1, 36788, Note_off_c, 0, 62, 100
1, 36788, Note_on_c, 0, 63, 100
1, 36884, Note_off_c, 0, 63, 100
1, 37908, Note_on_c, 0, 60, 100
1, 38068, Note_off_c, 0, 60, 100
1, 38068, Note_on_c, 0, 69, 100
1, 38196, Note_off_c, 0, 69, 100
1, 38196, Note_on_c, 0, 72, 100
1, 38292, Note_off_c, 0, 72, 100
1, 38292, Note_on_c, 0, 74, 100
1, 38388, Note_off_c, 0, 74, 100
1, 38388, Note_on_c, 0, 74, 100
1, 38484, Note_off_c, 0, 74, 100
1, 38484, Note_on_c, 0, 75, 100
1, 38532, Note_off_c, 0, 75, 100
1, 38532, Note_on_c, 0, 74, 100
1, 38580, Note_off_c, 0, 74, 100
1, 38580, Note_on_c, 0, 75, 100
1, 38676, Note_off_c, 0, 75, 100
1, 38676, Note_on_c, 0, 74, 100
1, 38772, Note_off_c, 0, 74, 100
1, 38772, Note_on_c, 0, 72, 100
1, 39012, Note_off_c, 0, 72, 100
1, 39012, Note_on_c, 0, 69, 100
1, 39108, Note_off_c, 0, 69, 100
1, 39108, Note_on_c, 0, 67, 100
1, 39348, Note_off_c, 0, 67, 100
1, 39348, Note_on_c, 0, 63, 100
1, 39444, Note_off_c, 0, 63, 100
1, 39444, Note_on_c, 0, 62, 100
1, 39732, Note_off_c, 0, 62, 100
1, 40020, Note_on_c, 0, 45, 100
1, 40212, Note_off_c, 0, 45, 100
1, 40212, Note_on_c, 0, 52, 100
1, 40244, Note_off_c, 0, 52, 100
1, 40244, Note_on_c, 0, 55, 100
1, 40276, Note_off_c, 0, 55, 100
1, 40276, Note_on_c, 0, 59, 100
1, 40308, Note_off_c, 0, 59, 100
1, 40308, Note_on_c, 0, 49, 100
1, 40384, Note_off_c, 0, 49, 100
1, 40384, Note_on_c, 0, 52, 100
1, 40422, Note_off_c, 0, 52, 100
1, 40422, Note_on_c, 0, 55, 100
1, 40460, Note_off_c, 0, 55, 100
1, 40460, Note_on_c, 0, 59, 100
1, 40498, Note_off_c, 0, 59, 100
1, 40498, Note_on_c, 0, 54, 100
1, 40786, Note_off_c, 0, 54, 100
1, 40786, Note_on_c, 0, 46, 100
1, 40930, Note_off_c, 0, 46, 100
1, 40930, Note_on_c, 0, 51, 100
1, 40978, Note_off_c, 0, 51, 100
1, 40978, Note_on_c, 0, 54, 100
1, 41026, Note_off_c, 0, 54, 100
1, 41026, Note_on_c, 0, 58, 100
1, 41074, Note_off_c, 0, 58, 100
1, 41074, Note_on_c, 0, 51, 100
1, 41150, Note_off_c, 0, 51, 100
1, 41150, Note_on_c, 0, 54, 100
1, 41188, Note_off_c, 0, 54, 100
1, 41188, Note_on_c, 0, 58, 100
1, 41226, Note_off_c, 0, 58, 100
1, 41226, Note_on_c, 0, 61, 100
1, 41264, Note_off_c, 0, 61, 100
1, 41264, Note_on_c, 0, 53, 100
1, 41504, Note_off_c, 0, 53, 100
1, 41504, Note_on_c, 0, 44, 100
1, 41552, Note_off_c, 0, 44, 100
1, 41552, Note_on_c, 0, 51, 100
1, 41600, Note_off_c, 0, 51, 100
1, 41600, Note_on_c, 0, 56, 100
1, 41648, Note_off_c, 0, 56, 100
1, 41648, Note_on_c, 0, 49, 100
1, 41712, Note_off_c, 0, 49, 100
1, 41712, Note_on_c, 0, 53, 100
1, 41776, Note_off_c, 0, 53, 100
1, 41776, Note_on_c, 0, 56, 100
1, 41840, Note_off_c, 0, 56, 100
1, 41840, Note_on_c, 0, 59, 100
1, 41867, Note_off_c, 0, 59, 100
1, 41867, Note_on_c, 0, 63, 100
1, 41921, Note_off_c, 0, 63, 100
1, 41921, Note_on_c, 0, 61, 100
1, 41948, Note_off_c, 0, 61, 100
1, 41948, Note_on_c, 0, 59, 100
1, 42002, Note_off_c, 0, 59, 100
1, 42002, Note_on_c, 0, 56, 100
1, 42029, Note_off_c, 0, 56, 100
1, 42029, Note_on_c, 0, 55, 100
1, 42077, Note_off_c, 0, 55, 100
1, 42077, Note_on_c, 0, 63, 100
1, 42125, Note_off_c, 0, 63, 100
1, 42125, Note_on_c, 0, 59, 100
1, 42221, Note_off_c, 0, 59, 100
1, 42221, Note_on_c, 0, 62, 100
1, 42269, Note_off_c, 0, 62, 100
1, 42269, Note_on_c, 0, 55, 100
1, 42317, Note_off_c, 0, 55, 100
1, 42317, Note_on_c, 0, 59, 100
1, 42365, Note_off_c, 0, 59, 100
1, 42365, Note_on_c, 0, 62, 100
1, 42413, Note_off_c, 0, 62, 100
1, 42413, Note_on_c, 0, 60, 100
1, 42485, Note_off_c, 0, 60, 100
1, 42485, Note_on_c, 0, 62, 100
1, 42533, Note_off_c, 0, 62, 100
1, 42533, Note_on_c, 0, 63, 100
1, 42557, Note_off_c, 0, 63, 100
1, 42557, Note_on_c, 0, 65, 100
1, 42581, Note_off_c, 0, 65, 100
1, 42581, Note_on_c, 0, 67, 100
1, 42653, Note_off_c, 0, 67, 100
1, 42653, Note_on_c, 0, 72, 100
1, 42701, Note_off_c, 0, 72, 100
1, 42701, Note_on_c, 0, 67, 100
1, 42749, Note_off_c, 0, 67, 100
1, 42749, Note_on_c, 0, 65, 100
1, 42797, Note_off_c, 0, 65, 100
1, 42797, Note_on_c, 0, 63, 100
1, 42845, Note_off_c, 0, 63, 100
1, 42845, Note_on_c, 0, 67, 100
1, 42893, Note_off_c, 0, 67, 100
1, 42893, Note_on_c, 0, 63, 100
1, 42941, Note_off_c, 0, 63, 100
1, 42941, Note_on_c, 0, 67, 100
1, 42989, Note_off_c, 0, 67, 100
1, 42989, Note_on_c, 0, 64, 100
1, 43037, Note_off_c, 0, 64, 100
1, 43037, Note_on_c, 0, 68, 100
1, 43085, Note_off_c, 0, 68, 100
1, 43085, Note_on_c, 0, 66, 100
1, 43133, Note_off_c, 0, 66, 100
1, 43133, Note_on_c, 0, 64, 100
1, 43181, Note_off_c, 0, 64, 100
1, 43181, Note_on_c, 0, 63, 100
1, 43229, Note_off_c, 0, 63, 100
1, 43229, Note_on_c, 0, 61, 100
1, 43277, Note_off_c, 0, 61, 100
1, 43277, Note_on_c, 0, 60, 100
1, 43325, Note_off_c, 0, 60, 100
1, 43325, Note_on_c, 0, 58, 100
1, 43373, Note_off_c, 0, 58, 100
1, 43373, Note_on_c, 0, 57, 100
1, 43421, Note_off_c, 0, 57, 100
1, 43421, Note_on_c, 0, 55, 100
1, 43469, Note_off_c, 0, 55, 100
1, 43469, Note_on_c, 0, 56, 100
1, 43517, Note_off_c, 0, 56, 100
1, 43517, Note_on_c, 0, 58, 100
1, 43565, Note_off_c, 0, 58, 100
1, 43565, Note_on_c, 0, 60, 100
1, 43613, Note_off_c, 0, 60, 100
1, 43613, Note_on_c, 0, 62, 100
1, 43661, Note_off_c, 0, 62, 100
1, 43661, Note_on_c, 0, 63, 100
1, 43709, Note_off_c, 0, 63, 100
1, 43709, Note_on_c, 0, 65, 100
1, 43757, Note_off_c, 0, 65, 100
1, 43757, Note_on_c, 0, 67, 100
1, 43949, Note_off_c, 0, 67, 100
1, 43949, Note_on_c, 0, 70, 100
1, 44045, Note_off_c, 0, 70, 100
1, 44477, Note_on_c, 0, 67, 100
1, 44589, Note_off_c, 0, 67, 100
1, 44589, Note_on_c, 0, 68, 100
1, 44717, Note_off_c, 0, 68, 100
1, 44717, Note_on_c, 0, 72, 100
1, 44845, Note_off_c, 0, 72, 100
1, 44845, Note_on_c, 0, 70, 100
1, 45293, Note_off_c, 0, 70, 100
1, 45293, Note_on_c, 0, 70, 100
1, 45581, Note_off_c, 0, 70, 100
1, 45581, Note_on_c, 0, 67, 100
1, 45629, Note_off_c, 0, 67, 100
1, 45629, Note_on_c, 0, 63, 100
1, 45741, Note_off_c, 0, 63, 100
1, 45741, Note_on_c, 0, 60, 100
1, 45869, Note_off_c, 0, 60, 100
1, 45869, Note_on_c, 0, 58, 100
1, 45965, Note_off_c, 0, 58, 100
1, 46445, Note_on_c, 0, 75, 100
1, 46541, Note_off_c, 0, 75, 100
1, 46541, Note_on_c, 0, 77, 100
1, 46637, Note_off_c, 0, 77, 100
1, 46637, Note_on_c, 0, 75, 100
1, 46733, Note_off_c, 0, 75, 100
1, 46733, Note_on_c, 0, 73, 100
1, 46877, Note_off_c, 0, 73, 100
1, 46877, Note_on_c, 0, 72, 100
1, 46973, Note_off_c, 0, 72, 100
1, 46973, Note_on_c, 0, 70, 100
1, 47059, Note_off_c, 0, 70, 100
1, 47059, Note_on_c, 0, 68, 100
1, 47097, Note_off_c, 0, 68, 100
1, 47097, Note_on_c, 0, 70, 100
1, 47135, Note_off_c, 0, 70, 100
1, 47135, Note_on_c, 0, 68, 100
1, 47173, Note_off_c, 0, 68, 100
1, 47173, Note_on_c, 0, 67, 100
1, 47211, Note_off_c, 0, 67, 100
1, 47211, Note_on_c, 0, 66, 100
1, 47403, Note_off_c, 0, 66, 100
1, 47403, Note_on_c, 0, 73, 100
1, 47499, Note_off_c, 0, 73, 100
1, 47499, Note_on_c, 0, 70, 100
1, 47595, Note_off_c, 0, 70, 100
1, 47595, Note_on_c, 0, 66, 100
1, 47691, Note_off_c, 0, 66, 100
1, 47691, Note_on_c, 0, 65, 100
1, 47739, Note_off_c, 0, 65, 100
1, 47739, Note_on_c, 0, 63, 100
1, 47835, Note_off_c, 0, 63, 100
1, 47835, Note_on_c, 0, 62, 100
1, 47931, Note_off_c, 0, 62, 100
1, 47931, Note_on_c, 0, 60, 100
1, 48027, Note_off_c, 0, 60, 100
1, 48027, Note_on_c, 0, 59, 100
1, 48123, Note_off_c, 0, 59, 100
1, 48123, Note_on_c, 0, 68, 100
1, 48219, Note_off_c, 0, 68, 100
1, 48219, Note_on_c, 0, 67, 100
1, 48315, Note_off_c, 0, 67, 100
1, 48315, Note_on_c, 0, 65, 100
1, 48411, Note_off_c, 0, 65, 100
1, 48411, Note_on_c, 0, 63, 100
1, 48507, Note_off_c, 0, 63, 100
1, 48507, Note_on_c, 0, 65, 100
1, 48603, Note_off_c, 0, 65, 100
1, 48603, Note_on_c, 0, 67, 100
1, 48699, Note_off_c, 0, 67, 100
1, 48699, Note_on_c, 0, 69, 100
1, 48747, Note_off_c, 0, 69, 100
1, 48747, Note_on_c, 0, 71, 100
1, 48875, Note_off_c, 0, 71, 100
1, 48875, Note_on_c, 0, 72, 100
1, 48939, Note_off_c, 0, 72, 100
1, 48939, Note_on_c, 0, 74, 100
1, 49195, Note_off_c, 0, 74, 100
1, 49195, Note_on_c, 0, 75, 100
1, 49467, Note_off_c, 0, 75, 100
1, 49467, Note_on_c, 0, 75, 100
1, 49803, Note_off_c, 0, 75, 100
1, 49803, Note_on_c, 0, 73, 100
1, 49851, Note_off_c, 0, 73, 100
1, 49851, Note_on_c, 0, 75, 100
1, 49947, Note_off_c, 0, 75, 100
1, 50187, Note_on_c, 0, 70, 100
1, 50235, Note_off_c, 0, 70, 100
1, 50235, Note_on_c, 0, 68, 100
1, 50283, Note_off_c, 0, 68, 100
1, 50283, Note_on_c, 0, 67, 100
1, 50475, Note_off_c, 0, 67, 100
1, 50475, Note_on_c, 0, 65, 100
1, 50571, Note_off_c, 0, 65, 100
1, 50571, Note_on_c, 0, 63, 100
1, 50667, Note_off_c, 0, 63, 100
1, 50667, Note_on_c, 0, 62, 100
1, 50859, Note_off_c, 0, 62, 100
1, 50859, Note_on_c, 0, 60, 100
1, 50955, Note_off_c, 0, 60, 100
1, 50955, Note_on_c, 0, 58, 100
1, 51147, Note_off_c, 0, 58, 100
1, 51531, Note_on_c, 0, 53, 100
1, 51579, Note_off_c, 0, 53, 100
1, 51579, Note_on_c, 0, 58, 100
1, 51627, Note_off_c, 0, 58, 100
1, 51627, Note_on_c, 0, 60, 100
1, 51691, Note_off_c, 0, 60, 100
1, 51691, Note_on_c, 0, 63, 100
1, 51755, Note_off_c, 0, 63, 100
1, 51755, Note_on_c, 0, 65, 100
1, 51819, Note_off_c, 0, 65, 100
1, 51819, Note_on_c, 0, 67, 100
1, 51883, Note_off_c, 0, 67, 100
1, 51883, Note_on_c, 0, 68, 100
1, 51947, Note_off_c, 0, 68, 100
1, 51947, Note_on_c, 0, 70, 100
1, 52011, Note_off_c, 0, 70, 100
1, 52011, Note_on_c, 0, 72, 100
1, 52059, Note_off_c, 0, 72, 100
1, 52059, Note_on_c, 0, 74, 100
1, 52107, Note_off_c, 0, 74, 100
1, 52107, Note_on_c, 0, 75, 100
1, 52155, Note_off_c, 0, 75, 100
1, 52155, Note_on_c, 0, 75, 100
1, 52203, Note_off_c, 0, 75, 100
1, 52203, Note_on_c, 0, 77, 100
1, 52491, Note_off_c, 0, 77, 100
1, 52491, Note_on_c, 0, 75, 100
1, 52539, Note_off_c, 0, 75, 100
1, 52539, Note_on_c, 0, 73, 100
1, 52587, Note_off_c, 0, 73, 100
1, 52587, Note_on_c, 0, 72, 100
1, 52779, Note_off_c, 0, 72, 100
1, 52779, Note_on_c, 0, 70, 100
1, 52907, Note_off_c, 0, 70, 100
1, 52907, Note_on_c, 0, 68, 100
1, 52971, Note_off_c, 0, 68, 100
1, 52971, Note_on_c, 0, 65, 100
1, 53067, Note_off_c, 0, 65, 100
1, 53067, Note_on_c, 0, 66, 100
1, 53211, Note_off_c, 0, 66, 100
1, 53211, Note_on_c, 0, 70, 100
1, 53307, Note_off_c, 0, 70, 100
1, 53307, Note_on_c, 0, 73, 100
1, 53355, Note_off_c, 0, 73, 100
1, 53355, Note_on_c, 0, 75, 100
1, 53451, Note_off_c, 0, 75, 100
1, 53451, Note_on_c, 0, 77, 100
1, 53547, Note_off_c, 0, 77, 100
1, 53547, Note_on_c, 0, 75, 100
1, 53643, Note_off_c, 0, 75, 100
1, 53643, Note_on_c, 0, 76, 100
1, 53835, Note_off_c, 0, 76, 100
1, 54075, Note_on_c, 0, 71, 100
1, 54161, Note_off_c, 0, 71, 100
1, 54161, Note_on_c, 0, 70, 100
1, 54199, Note_off_c, 0, 70, 100
1, 54199, Note_on_c, 0, 71, 100
1, 54237, Note_off_c, 0, 71, 100
1, 54237, Note_on_c, 0, 70, 100
1, 54275, Note_off_c, 0, 70, 100
1, 54275, Note_on_c, 0, 68, 100
1, 54361, Note_off_c, 0, 68, 100
1, 54361, Note_on_c, 0, 63, 100
1, 54457, Note_off_c, 0, 63, 100
1, 54457, Note_on_c, 0, 65, 100
1, 54505, Note_off_c, 0, 65, 100
1, 54505, Note_on_c, 0, 67, 100
1, 54601, Note_off_c, 0, 67, 100
1, 54601, Note_on_c, 0, 63, 100
1, 54697, Note_off_c, 0, 63, 100
1, 54697, Note_on_c, 0, 60, 100
1, 54889, Note_off_c, 0, 60, 100
1, 54889, Note_on_c, 0, 63, 100
1, 54937, Note_off_c, 0, 63, 100
1, 54937, Note_on_c, 0, 65, 100
1, 55081, Note_off_c, 0, 65, 100
1, 55081, Note_on_c, 0, 63, 100
1, 55337, Note_off_c, 0, 63, 100
1, 55337, Note_on_c, 0, 67, 100
1, 55465, Note_off_c, 0, 67, 100
1, 55465, Note_on_c, 0, 70, 100
1, 55561, Note_off_c, 0, 70, 100
1, 55561, Note_on_c, 0, 72, 100
1, 55657, Note_off_c, 0, 72, 100
1, 55657, Note_on_c, 0, 75, 100
1, 55849, Note_off_c, 0, 75, 100
1, 55849, Note_on_c, 0, 77, 100
1, 55945, Note_off_c, 0, 77, 100
1, 55945, Note_on_c, 0, 75, 100
1, 56041, Note_off_c, 0, 75, 100
1, 56281, Note_on_c, 0, 65, 100
1, 56377, Note_off_c, 0, 65, 100
1, 56377, Note_on_c, 0, 63, 100
1, 56425, Note_off_c, 0, 63, 100
1, 56425, Note_on_c, 0, 65, 100
1, 56617, Note_off_c, 0, 65, 100
1, 56617, Note_on_c, 0, 67, 100
1, 56713, Note_off_c, 0, 67, 100
1, 56713, Note_on_c, 0, 75, 100
1, 56809, Note_off_c, 0, 75, 100
1, 57001, Note_on_c, 0, 66, 100
1, 57097, Note_off_c, 0, 66, 100
1, 57097, Note_on_c, 0, 63, 100
1, 57193, Note_off_c, 0, 63, 100
1, 57193, Note_on_c, 0, 65, 100
1, 57321, Note_off_c, 0, 65, 100
1, 57321, Note_on_c, 0, 63, 100
1, 57385, Note_off_c, 0, 63, 100
1, 57385, Note_on_c, 0, 60, 100
1, 57529, Note_off_c, 0, 60, 100
1, 57529, Note_on_c, 0, 75, 100
1, 57673, Note_off_c, 0, 75, 100
1, 57673, Note_on_c, 0, 72, 100
1, 57721, Note_off_c, 0, 72, 100
1, 57721, Note_on_c, 0, 70, 100
1, 57769, Note_off_c, 0, 70, 100
1, 57769, Note_on_c, 0, 67, 100
1, 57833, Note_off_c, 0, 67, 100
1, 57833, Note_on_c, 0, 66, 100
1, 57897, Note_off_c, 0, 66, 100
1, 57897, Note_on_c, 0, 65, 100
1, 57961, Note_off_c, 0, 65, 100
1, 57961, Note_on_c, 0, 63, 100
1, 58009, Note_off_c, 0, 63, 100
1, 58009, Note_on_c, 0, 63, 100
1, 58057, Note_off_c, 0, 63, 100
1, 58057, Note_on_c, 0, 60, 100
1, 58105, Note_off_c, 0, 60, 100
1, 58105, Note_on_c, 0, 58, 100
1, 58153, Note_off_c, 0, 58, 100
1, 58153, Note_on_c, 0, 55, 100
1, 58201, Note_off_c, 0, 55, 100
1, 58201, Note_on_c, 0, 53, 100
1, 58297, Note_off_c, 0, 53, 100
1, 58297, Note_on_c, 0, 54, 100
1, 58345, Note_off_c, 0, 54, 100
1, 58345, Note_on_c, 0, 55, 100
1, 58441, Note_off_c, 0, 55, 100
1, 58441, Note_on_c, 0, 54, 100
1, 58465, Note_off_c, 0, 54, 100
1, 58465, Note_on_c, 0, 55, 100
1, 58489, Note_off_c, 0, 55, 100
1, 58489, Note_on_c, 0, 57, 100
1, 58513, Note_off_c, 0, 57, 100
1, 58513, Note_on_c, 0, 59, 100
1, 58537, Note_off_c, 0, 59, 100
1, 58537, Note_on_c, 0, 61, 100
1, 58571, Note_off_c, 0, 61, 100
1, 58571, Note_on_c, 0, 62, 100
1, 58605, Note_off_c, 0, 62, 100
1, 58605, Note_on_c, 0, 64, 100
1, 58639, Note_off_c, 0, 64, 100
1, 58639, Note_on_c, 0, 66, 100
1, 58656, Note_off_c, 0, 66, 100
1, 58656, Note_on_c, 0, 67, 100
1, 58673, Note_off_c, 0, 67, 100
1, 58673, Note_on_c, 0, 68, 100
1, 58690, Note_off_c, 0, 68, 100
1, 58690, Note_on_c, 0, 69, 100
1, 58707, Note_off_c, 0, 69, 100
1, 58707, Note_on_c, 0, 71, 100
1, 58724, Note_off_c, 0, 71, 100
1, 58724, Note_on_c, 0, 73, 100
1, 58772, Note_off_c, 0, 73, 100
1, 58772, Note_on_c, 0, 72, 100
1, 58916, Note_off_c, 0, 72, 100
1, 58916, Note_on_c, 0, 68, 100
1, 59044, Note_off_c, 0, 68, 100
1, 59044, Note_on_c, 0, 70, 100
1, 59252, Note_off_c, 0, 70, 100
1, 59252, Note_on_c, 0, 70, 100
1, 59300, Note_off_c, 0, 70, 100
1, 59300, Note_on_c, 0, 66, 100
1, 59364, Note_off_c, 0, 66, 100
1, 59364, Note_on_c, 0, 63, 100
1, 59428, Note_off_c, 0, 63, 100
1, 59428, Note_on_c, 0, 58, 100
1, 59540, Note_off_c, 0, 58, 100
1, 59540, Note_on_c, 0, 65, 100
1, 59684, Note_off_c, 0, 65, 100
1, 59684, Note_on_c, 0, 63, 100
1, 59780, Note_off_c, 0, 63, 100
1, 60116, Note_on_c, 0, 67, 100
1, 60212, Note_off_c, 0, 67, 100
1, 60212, Note_on_c, 0, 66, 100
1, 60260, Note_off_c, 0, 66, 100
1, 60260, Note_on_c, 0, 67, 100
1, 60404, Note_off_c, 0, 67, 100
1, 60404, Note_on_c, 0, 63, 100
1, 60452, Note_off_c, 0, 63, 100
1, 60452, Note_on_c, 0, 60, 100
1, 60548, Note_off_c, 0, 60, 100
1, 60548, Note_on_c, 0, 55, 100
1, 60644, Note_off_c, 0, 55, 100
1, 60644, Note_on_c, 0, 62, 100
1, 60836, Note_off_c, 0, 62, 100
1, 60836, Note_on_c, 0, 63, 100
1, 60964, Note_off_c, 0, 63, 100
1, 60964, Note_on_c, 0, 65, 100
1, 61092, Note_off_c, 0, 65, 100
1, 61092, Note_on_c, 0, 63, 100
1, 61156, Note_off_c, 0, 63, 100
1, 61156, Note_on_c, 0, 65, 100
1, 61268, Note_off_c, 0, 65, 100
1, 61268, Note_on_c, 0, 63, 100
1, 61316, Note_off_c, 0, 63, 100
1, 61316, Note_on_c, 0, 62, 100
1, 61364, Note_off_c, 0, 62, 100
1, 61364, Note_on_c, 0, 60, 100
1, 61460, Note_off_c, 0, 60, 100
1, 61460, Note_on_c, 0, 59, 100
1, 61556, Note_off_c, 0, 59, 100
1, 61556, Note_on_c, 0, 62, 100
1, 61652, Note_off_c, 0, 62, 100
1, 61652, Note_on_c, 0, 65, 100
1, 61748, Note_off_c, 0, 65, 100
1, 61748, Note_on_c, 0, 67, 100
1, 61844, Note_off_c, 0, 67, 100
1, 61844, Note_on_c, 0, 67, 100
1, 61892, Note_off_c, 0, 67, 100
1, 61892, Note_on_c, 0, 68, 100
1, 61940, Note_off_c, 0, 68, 100
1, 61940, Note_on_c, 0, 67, 100
1, 61988, Note_off_c, 0, 67, 100
1, 61988, Note_on_c, 0, 65, 100
1, 62084, Note_off_c, 0, 65, 100
1, 62084, Note_on_c, 0, 62, 100
1, 62180, Note_off_c, 0, 62, 100
1, 62180, Note_on_c, 0, 63, 100
1, 62259, Note_off_c, 0, 63, 100
1, 62259, End_track
0, 0, End_of_file
