0, 0, Header, 1, 1, 192
1, 0, Start_track
1, 0, Title_t, "Melody"
1, 0, Tempo, 300000
1, 0, Key_signature, -3, "minor"
1, 0, Time_signature, 4, 2, 24, 8
1, 288, Note_on_c, 0, 70, 100
1, 384, Note_off_c, 0, 70, 100
1, 384, Note_on_c, 0, 73, 100
1, 480, Note_off_c, 0, 73, 100
1, 480, Note_on_c, 0, 75, 100
1, 576, Note_off_c, 0, 75, 100
1, 864, Note_on_c, 0, 63, 100
1, 912, Note_off_c, 0, 63, 100
1, 912, Note_on_c, 0, 66, 100
1, 1152, Note_off_c, 0, 66, 100
1, 1152, Note_on_c, 0, 68, 100
1, 1536, Note_off_c, 0, 68, 100
1, 1824, Note_on_c, 0, 63, 100
1, 1920, Note_off_c, 0, 63, 100
1, 1920, Note_on_c, 0, 67, 100
1, 2016, Note_off_c, 0, 67, 100
1, 2016, Note_on_c, 0, 70, 100
1, 2112, Note_off_c, 0, 70, 100
1, 2784, Note_on_c, 0, 67, 100
1, 2880, Note_off_c, 0, 67, 100
1, 2880, Note_on_c, 0, 70, 100
1, 2976, Note_off_c, 0, 70, 100
1, 3360, Note_on_c, 0, 70, 100
1, 3408, Note_off_c, 0, 70, 100
1, 3408, Note_on_c, 0, 75, 100
1, 3552, Note_off_c, 0, 75, 100
1, 3552, Note_on_c, 0, 70, 100
1, 3648, Note_off_c, 0, 70, 100
1, 3936, Note_on_c, 0, 70, 100
1, 3984, Note_off_c, 0, 70, 100
1, 3984, Note_on_c, 0, 73, 100
1, 4176, Note_off_c, 0, 73, 100
1, 4176, Note_on_c, 0, 75, 100
1, 4512, Note_off_c, 0, 75, 100
1, 4512, Note_on_c, 0, 73, 100
1, 4608, Note_off_c, 0, 73, 100
1, 4608, Note_on_c, 0, 77, 100
1, 4736, Note_off_c, 0, 77, 100
1, 4736, Note_on_c, 0, 70, 100
1, 4832, Note_off_c, 0, 70, 100
1, 5664, Note_on_c, 0, 70, 100
1, 5712, Note_off_c, 0, 70, 100
1, 5712, Note_on_c, 0, 75, 100
1, 5856, Note_off_c, 0, 75, 100
1, 5856, Note_on_c, 0, 70, 100
1, 5952, Note_off_c, 0, 70, 100
1, 5952, Note_on_c, 0, 73, 100
1, 6048, Note_off_c, 0, 73, 100
1, 6432, Note_on_c, 0, 70, 100
1, 6528, Note_off_c, 0, 70, 100
1, 6528, Note_on_c, 0, 75, 100
1, 6624, Note_off_c, 0, 75, 100
1, 6624, Note_on_c, 0, 73, 100
1, 6720, Note_off_c, 0, 73, 100
1, 6720, Note_on_c, 0, 70, 100
1, 6816, Note_off_c, 0, 70, 100
1, 6816, Note_on_c, 0, 68, 100
1, 7248, Note_off_c, 0, 68, 100
1, 7248, Note_on_c, 0, 70, 100
1, 7584, Note_off_c, 0, 70, 100
1, 7584, Note_on_c, 0, 68, 100
1, 7680, Note_off_c, 0, 68, 100
1, 7680, Note_on_c, 0, 65, 100
1, 7728, Note_off_c, 0, 65, 100
1, 7728, Note_on_c, 0, 67, 100
1, 7872, Note_off_c, 0, 67, 100
1, 7872, Note_on_c, 0, 63, 100
1, 8016, Note_off_c, 0, 63, 100
1, 8016, Note_on_c, 0, 61, 100
1, 8064, Note_off_c, 0, 61, 100
1, 8064, Note_on_c, 0, 63, 100
1, 8448, Note_off_c, 0, 63, 100
1, 9312, Note_on_c, 0, 63, 100
1, 9408, Note_off_c, 0, 63, 100
1, 9408, Note_on_c, 0, 63, 100
1, 9504, Note_off_c, 0, 63, 100
1, 9504, Note_on_c, 0, 63, 100
1, 9600, Note_off_c, 0, 63, 100
1, 9600, Note_on_c, 0, 67, 100
1, 9696, Note_off_c, 0, 67, 100
1, 9696, Note_on_c, 0, 70, 100
1, 9792, Note_off_c, 0, 70, 100
1, 9792, Note_on_c, 0, 72, 100
1, 9920, Note_off_c, 0, 72, 100
1, 9920, Note_on_c, 0, 75, 100
1, 10176, Note_off_c, 0, 75, 100
1, 10176, Note_on_c, 0, 73, 100
1, 10272, Note_off_c, 0, 73, 100
1, 10272, Note_on_c, 0, 72, 100
1, 10368, Note_off_c, 0, 72, 100
1, 10368, Note_on_c, 0, 70, 100
1, 10464, Note_off_c, 0, 70, 100
1, 10464, Note_on_c, 0, 72, 100
1, 10560, Note_off_c, 0, 72, 100
1, 10752, Note_on_c, 0, 63, 100
1, 10944, Note_off_c, 0, 63, 100
1, 10944, Note_on_c, 0, 63, 100
1, 11136, Note_off_c, 0, 63, 100
1, 11136, Note_on_c, 0, 63, 100
1, 11424, Note_off_c, 0, 63, 100
1, 11424, Note_on_c, 0, 67, 100
1, 11520, Note_off_c, 0, 67, 100
1, 11520, Note_on_c, 0, 65, 100
1, 11664, Note_off_c, 0, 65, 100
1, 11664, Note_on_c, 0, 61, 100
1, 11760, Note_off_c, 0, 61, 100
1, 12576, Note_on_c, 0, 63, 100
1, 12672, Note_off_c, 0, 63, 100
1, 12960, Note_on_c, 0, 63, 100
1, 13056, Note_off_c, 0, 63, 100
1, 13056, Note_on_c, 0, 68, 100
1, 13184, Note_off_c, 0, 68, 100
1, 13184, Note_on_c, 0, 70, 100
1, 13248, Note_off_c, 0, 70, 100
1, 13248, Note_on_c, 0, 72, 100
1, 13392, Note_off_c, 0, 72, 100
1, 13392, Note_on_c, 0, 75, 100
1, 13440, Note_off_c, 0, 75, 100
1, 13440, Note_on_c, 0, 78, 100
1, 13536, Note_off_c, 0, 78, 100
1, 13536, Note_on_c, 0, 77, 100
1, 13632, Note_off_c, 0, 77, 100
1, 13632, Note_on_c, 0, 75, 100
1, 13728, Note_off_c, 0, 75, 100
1, 13728, Note_on_c, 0, 73, 100
1, 14016, Note_off_c, 0, 73, 100
1, 14016, Note_on_c, 0, 72, 100
1, 14112, Note_off_c, 0, 72, 100
1, 14112, Note_on_c, 0, 71, 100
1, 14160, Note_off_c, 0, 71, 100
1, 14160, Note_on_c, 0, 70, 100
1, 14256, Note_off_c, 0, 70, 100
1, 14848, Note_on_c, 0, 63, 100
1, 14912, Note_off_c, 0, 63, 100
1, 14912, Note_on_c, 0, 65, 100
1, 14976, Note_off_c, 0, 65, 100
1, 14976, Note_on_c, 0, 67, 100
1, 15072, Note_off_c, 0, 67, 100
1, 15072, Note_on_c, 0, 70, 100
1, 15936, Note_off_c, 0, 70, 100
1, 15936, Note_on_c, 0, 72, 100
1, 16128, Note_off_c, 0, 72, 100
1, 16128, Note_on_c, 0, 66, 100
1, 16224, Note_off_c, 0, 66, 100
1, 16224, Note_on_c, 0, 65, 100
1, 16320, Note_off_c, 0, 65, 100
1, 16320, Note_on_c, 0, 63, 100
1, 16416, Note_off_c, 0, 63, 100
1, 16416, Note_on_c, 0, 60, 100
1, 16512, Note_off_c, 0, 60, 100
1, 16512, Note_on_c, 0, 63, 100
1, 16608, Note_off_c, 0, 63, 100
1, 16608, Note_on_c, 0, 66, 100
1, 16704, Note_off_c, 0, 66, 100
1, 16704, Note_on_c, 0, 65, 100
1, 16800, Note_off_c, 0, 65, 100
1, 16800, Note_on_c, 0, 63, 100
1, 17088, Note_off_c, 0, 63, 100
1, 17088, Note_on_c, 0, 65, 100
1, 17184, Note_off_c, 0, 65, 100
1, 17760, Note_on_c, 0, 72, 100
1, 17856, Note_off_c, 0, 72, 100
1, 18432, Note_on_c, 0, 73, 100
1, 18624, Note_off_c, 0, 73, 100
1, 18624, Note_on_c, 0, 72, 100
1, 18816, Note_off_c, 0, 72, 100
1, 18816, Note_on_c, 0, 73, 100
1, 18912, Note_off_c, 0, 73, 100
1, 18912, Note_on_c, 0, 72, 100
1, 19104, Note_off_c, 0, 72, 100
1, 19104, Note_on_c, 0, 70, 100
1, 19296, Note_off_c, 0, 70, 100
1, 19296, Note_on_c, 0, 72, 100
1, 19488, Note_off_c, 0, 72, 100
1, 19488, Note_on_c, 0, 70, 100
1, 19536, Note_off_c, 0, 70, 100
1, 19536, Note_on_c, 0, 73, 100
1, 19680, Note_off_c, 0, 73, 100
1, 19680, Note_on_c, 0, 70, 100
1, 19776, Note_off_c, 0, 70, 100
1, 19776, Note_on_c, 0, 72, 100
1, 19920, Note_off_c, 0, 72, 100
1, 19920, Note_on_c, 0, 73, 100
1, 20160, Note_off_c, 0, 73, 100
1, 20160, Note_on_c, 0, 72, 100
1, 20256, Note_off_c, 0, 72, 100
1, 20256, Note_on_c, 0, 70, 100
1, 20352, Note_off_c, 0, 70, 100
1, 20352, Note_on_c, 0, 72, 100
1, 20400, Note_off_c, 0, 72, 100
1, 20400, Note_on_c, 0, 73, 100
1, 20448, Note_off_c, 0, 73, 100
1, 20448, Note_on_c, 0, 72, 100
1, 20640, Note_off_c, 0, 72, 100
1, 20640, Note_on_c, 0, 70, 100
1, 20880, Note_off_c, 0, 70, 100
1, 20880, Note_on_c, 0, 72, 100
1, 21120, Note_off_c, 0, 72, 100
1, 21120, Note_on_c, 0, 66, 100
1, 21216, Note_off_c, 0, 66, 100
1, 21216, Note_on_c, 0, 65, 100
1, 21312, Note_off_c, 0, 65, 100
1, 21312, Note_on_c, 0, 63, 100
1, 21440, Note_off_c, 0, 63, 100
1, 21440, Note_on_c, 0, 60, 100
1, 21504, Note_off_c, 0, 60, 100
1, 21504, Note_on_c, 0, 65, 100
1, 21552, Note_off_c, 0, 65, 100
1, 21552, Note_on_c, 0, 66, 100
1, 21600, Note_off_c, 0, 66, 100
1, 21600, Note_on_c, 0, 65, 100
1, 21696, Note_off_c, 0, 65, 100
1, 21696, Note_on_c, 0, 63, 100
1, 21792, Note_off_c, 0, 63, 100
1, 21792, Note_on_c, 0, 65, 100
1, 21888, Note_off_c, 0, 65, 100
1, 21888, Note_on_c, 0, 63, 100
1, 21984, Note_off_c, 0, 63, 100
1, 21984, Note_on_c, 0, 65, 100
1, 22176, Note_off_c, 0, 65, 100
1, 22176, Note_on_c, 0, 63, 100
1, 22464, Note_off_c, 0, 63, 100
1, 22464, Note_on_c, 0, 61, 100
1, 22560, Note_off_c, 0, 61, 100
1, 22560, Note_on_c, 0, 60, 100
1, 22656, Note_off_c, 0, 60, 100
1, 23308, Note_on_c, 0, 58, 100
1, 23346, Note_off_c, 0, 58, 100
1, 23346, Note_on_c, 0, 56, 100
1, 23384, Note_off_c, 0, 56, 100
1, 23384, Note_on_c, 0, 55, 100
1, 23480, Note_off_c, 0, 55, 100
1, 23902, Note_on_c, 0, 53, 100
1, 23950, Note_off_c, 0, 53, 100
1, 23950, Note_on_c, 0, 55, 100
1, 23998, Note_off_c, 0, 55, 100
1, 23998, Note_on_c, 0, 62, 100
1, 24046, Note_off_c, 0, 62, 100
1, 24046, Note_on_c, 0, 65, 100
1, 24142, Note_off_c, 0, 65, 100
1, 24142, Note_on_c, 0, 64, 100
1, 24222, Note_off_c, 0, 64, 100
1, 24222, Note_on_c, 0, 68, 100
1, 24254, Note_off_c, 0, 68, 100
1, 24254, Note_on_c, 0, 70, 100
1, 24286, Note_off_c, 0, 70, 100
1, 24286, Note_on_c, 0, 73, 100
1, 24350, Note_off_c, 0, 73, 100
1, 24350, Note_on_c, 0, 72, 100
1, 24430, Note_off_c, 0, 72, 100
1, 24430, Note_on_c, 0, 70, 100
1, 24526, Note_off_c, 0, 70, 100
1, 24526, Note_on_c, 0, 68, 100
1, 24622, Note_off_c, 0, 68, 100
1, 24862, Note_on_c, 0, 63, 100
1, 24910, Note_off_c, 0, 63, 100
1, 24910, Note_on_c, 0, 67, 100
1, 25054, Note_off_c, 0, 67, 100
1, 25054, Note_on_c, 0, 68, 100
1, 25150, Note_off_c, 0, 68, 100
1, 25630, Note_on_c, 0, 64, 100
1, 25726, Note_off_c, 0, 64, 100
1, 25726, Note_on_c, 0, 65, 100
1, 25822, Note_off_c, 0, 65, 100
1, 25822, Note_on_c, 0, 62, 100
1, 25918, Note_off_c, 0, 62, 100
1, 25918, Note_on_c, 0, 58, 100
1, 26014, Note_off_c, 0, 58, 100
1, 26366, Note_on_c, 0, 62, 100
1, 26430, Note_off_c, 0, 62, 100
1, 26430, Note_on_c, 0, 65, 100
1, 26542, Note_off_c, 0, 65, 100
1, 26542, Note_on_c, 0, 67, 100
1, 26638, Note_off_c, 0, 67, 100
1, 26638, Note_on_c, 0, 64, 100
1, 26782, Note_off_c, 0, 64, 100
1, 26782, Note_on_c, 0, 62, 100
1, 26878, Note_off_c, 0, 62, 100
1, 26878, Note_on_c, 0, 63, 100
1, 26974, Note_off_c, 0, 63, 100
1, 26974, Note_on_c, 0, 60, 100
1, 27070, Note_off_c, 0, 60, 100
1, 27070, Note_on_c, 0, 56, 100
1, 27262, Note_off_c, 0, 56, 100
1, 27262, Note_on_c, 0, 54, 100
1, 27358, Note_off_c, 0, 54, 100
1, 27358, Note_on_c, 0, 61, 100
1, 27454, Note_off_c, 0, 61, 100
1, 27454, Note_on_c, 0, 59, 100
1, 27550, Note_off_c, 0, 59, 100
1, 27550, Note_on_c, 0, 57, 100
1, 27646, Note_off_c, 0, 57, 100
1, 27646, Note_on_c, 0, 58, 100
1, 27742, Note_off_c, 0, 58, 100
1, 27742, Note_on_c, 0, 51, 100
1, 28030, Note_off_c, 0, 51, 100
1, 28990, Note_on_c, 0, 57, 100
1, 29054, Note_off_c, 0, 57, 100
1, 29054, Note_on_c, 0, 55, 100
1, 29118, Note_off_c, 0, 55, 100
1, 29118, Note_on_c, 0, 51, 100
1, 29182, Note_off_c, 0, 51, 100
1, 29182, Note_on_c, 0, 49, 100
1, 29566, Note_off_c, 0, 49, 100
1, 29566, Note_on_c, 0, 56, 100
1, 29662, Note_off_c, 0, 56, 100
1, 30142, Note_on_c, 0, 56, 100
1, 30190, Note_off_c, 0, 56, 100
1, 30190, Note_on_c, 0, 55, 100
1, 30238, Note_off_c, 0, 55, 100
1, 30238, Note_on_c, 0, 53, 100
1, 30286, Note_off_c, 0, 53, 100
1, 30286, Note_on_c, 0, 56, 100
1, 30334, Note_off_c, 0, 56, 100
1, 30334, Note_on_c, 0, 59, 100
1, 30382, Note_off_c, 0, 59, 100
1, 30382, Note_on_c, 0, 63, 100
1, 30430, Note_off_c, 0, 63, 100
1, 30430, Note_on_c, 0, 70, 100
1, 30478, Note_off_c, 0, 70, 100
1, 30478, Note_on_c, 0, 67, 100
1, 30526, Note_off_c, 0, 67, 100
1, 30526, Note_on_c, 0, 65, 100
1, 30622, Note_off_c, 0, 65, 100
1, 31102, Note_on_c, 0, 65, 100
1, 31198, Note_off_c, 0, 65, 100
1, 31198, Note_on_c, 0, 63, 100
1, 31390, Note_off_c, 0, 63, 100
1, 31390, Note_on_c, 0, 63, 100
1, 31438, Note_off_c, 0, 63, 100
1, 31438, Note_on_c, 0, 66, 100
1, 31534, Note_off_c, 0, 66, 100
1, 31534, Note_on_c, 0, 68, 100
1, 31582, Note_off_c, 0, 68, 100
1, 31582, Note_on_c, 0, 67, 100
1, 31630, Note_off_c, 0, 67, 100
1, 31630, Note_on_c, 0, 69, 100
1, 31678, Note_off_c, 0, 69, 100
1, 31678, Note_on_c, 0, 70, 100
1, 31716, Note_off_c, 0, 70, 100
1, 31716, Note_on_c, 0, 71, 100
1, 31754, Note_off_c, 0, 71, 100
1, 31754, Note_on_c, 0, 72, 100
1, 31830, Note_off_c, 0, 72, 100
1, 31830, Note_on_c, 0, 73, 100
1, 31916, Note_off_c, 0, 73, 100
1, 31916, Note_on_c, 0, 72, 100
1, 31964, Note_off_c, 0, 72, 100
1, 31964, Note_on_c, 0, 71, 100
1, 32012, Note_off_c, 0, 71, 100
1, 32012, Note_on_c, 0, 70, 100
1, 32396, Note_off_c, 0, 70, 100
1, 33164, Note_on_c, 0, 67, 100
1, 33308, Note_off_c, 0, 67, 100
1, 33308, Note_on_c, 0, 75, 100
1, 33404, Note_off_c, 0, 75, 100
1, 33404, Note_on_c, 0, 73, 100
1, 33500, Note_off_c, 0, 73, 100
1, 33500, Note_on_c, 0, 74, 100
1, 33548, Note_off_c, 0, 74, 100
1, 33548, Note_on_c, 0, 73, 100
1, 33596, Note_off_c, 0, 73, 100
1, 33596, Note_on_c, 0, 72, 100
1, 33644, Note_off_c, 0, 72, 100
1, 33644, Note_on_c, 0, 69, 100
1, 33740, Note_off_c, 0, 69, 100
1, 33740, Note_on_c, 0, 72, 100
1, 33788, Note_off_c, 0, 72, 100
1, 33788, Note_on_c, 0, 70, 100
1, 33884, Note_off_c, 0, 70, 100
1, 33884, Note_on_c, 0, 67, 100
1, 33980, Note_off_c, 0, 67, 100
1, 33980, Note_on_c, 0, 63, 100
1, 34076, Note_off_c, 0, 63, 100
1, 34076, Note_on_c, 0, 60, 100
1, 34172, Note_off_c, 0, 60, 100
1, 34172, Note_on_c, 0, 68, 100
1, 34236, Note_off_c, 0, 68, 100
1, 34236, Note_on_c, 0, 70, 100
1, 34300, Note_off_c, 0, 70, 100
1, 34300, Note_on_c, 0, 67, 100
1, 34460, Note_off_c, 0, 67, 100
1, 34460, Note_on_c, 0, 65, 100
1, 34556, Note_off_c, 0, 65, 100
1, 34556, Note_on_c, 0, 63, 100
1, 34748, Note_off_c, 0, 63, 100
1, 34748, Note_on_c, 0, 62, 100
1, 34844, Note_off_c, 0, 62, 100
1, 34844, Note_on_c, 0, 65, 100
1, 34940, Note_off_c, 0, 65, 100
1, 34940, Note_on_c, 0, 62, 100
1, 35036, Note_off_c, 0, 62, 100
1, 35036, Note_on_c, 0, 63, 100
1, 35132, Note_off_c, 0, 63, 100
1, 35132, Note_on_c, 0, 65, 100
1, 35228, Note_off_c, 0, 65, 100
1, 35228, Note_on_c, 0, 67, 100
1, 35324, Note_off_c, 0, 67, 100
1, 35324, Note_on_c, 0, 63, 100
1, 35420, Note_off_c, 0, 63, 100
1, 35420, Note_on_c, 0, 58, 100
1, 35468, Note_off_c, 0, 58, 100
1, 35468, Note_on_c, 0, 61, 100
1, 35612, Note_off_c, 0, 61, 100
1, 35612, Note_on_c, 0, 63, 100
1, 35996, Note_off_c, 0, 63, 100
1, 37052, Note_on_c, 0, 70, 100
1, 37196, Note_off_c, 0, 70, 100
1, 37196, Note_on_c, 0, 73, 100
1, 37244, Note_off_c, 0, 73, 100
1, 37244, Note_on_c, 0, 75, 100
1, 37340, Note_off_c, 0, 75, 100
1, 37340, Note_on_c, 0, 73, 100
1, 37436, Note_off_c, 0, 73, 100
1, 37964, Note_on_c, 0, 75, 100
1, 38156, Note_off_c, 0, 75, 100
1, 38156, Note_on_c, 0, 78, 100
1, 38348, Note_off_c, 0, 78, 100
1, 38348, Note_on_c, 0, 77, 100
1, 38396, Note_off_c, 0, 77, 100
1, 38396, Note_on_c, 0, 75, 100
1, 38492, Note_off_c, 0, 75, 100
1, 38492, Note_on_c, 0, 73, 100
1, 38684, Note_off_c, 0, 73, 100
1, 38684, Note_on_c, 0, 75, 100
1, 38972, Note_off_c, 0, 75, 100
1, 38972, Note_on_c, 0, 73, 100
1, 39068, Note_off_c, 0, 73, 100
1, 39068, Note_on_c, 0, 70, 100
1, 39164, Note_off_c, 0, 70, 100
1, 39164, Note_on_c, 0, 69, 100
1, 39260, Note_off_c, 0, 69, 100
1, 39260, Note_on_c, 0, 67, 100
1, 39356, Note_off_c, 0, 67, 100
1, 39356, Note_on_c, 0, 68, 100
1, 39500, Note_off_c, 0, 68, 100
1, 39500, Note_on_c, 0, 65, 100
1, 39548, Note_off_c, 0, 65, 100
1, 39548, Note_on_c, 0, 66, 100
1, 39644, Note_off_c, 0, 66, 100
1, 39644, Note_on_c, 0, 63, 100
1, 39740, Note_off_c, 0, 63, 100
1, 39740, Note_on_c, 0, 60, 100
1, 39932, Note_off_c, 0, 60, 100
1, 39932, Note_on_c, 0, 65, 100
1, 40028, Note_off_c, 0, 65, 100
1, 40028, Note_on_c, 0, 63, 100
1, 40076, Note_off_c, 0, 63, 100
1, 40076, Note_on_c, 0, 65, 100
1, 40124, Note_off_c, 0, 65, 100
1, 40124, Note_on_c, 0, 66, 100
1, 40220, Note_off_c, 0, 66, 100
1, 40220, Note_on_c, 0, 63, 100
1, 40604, Note_off_c, 0, 63, 100
1, 41612, Note_on_c, 0, 59, 100
1, 41660, Note_off_c, 0, 59, 100
1, 41660, Note_on_c, 0, 60, 100
1, 41708, Note_off_c, 0, 60, 100
1, 41708, Note_on_c, 0, 62, 100
1, 41756, Note_off_c, 0, 62, 100
1, 41756, Note_on_c, 0, 63, 100
1, 41804, Note_off_c, 0, 63, 100
1, 41804, Note_on_c, 0, 65, 100
1, 41852, Note_off_c, 0, 65, 100
1, 41852, Note_on_c, 0, 67, 100
1, 41900, Note_off_c, 0, 67, 100
1, 41900, Note_on_c, 0, 68, 100
1, 41948, Note_off_c, 0, 68, 100
1, 41948, Note_on_c, 0, 69, 100
1, 41996, Note_off_c, 0, 69, 100
1, 41996, Note_on_c, 0, 70, 100
1, 42044, Note_off_c, 0, 70, 100
1, 42044, Note_on_c, 0, 66, 100
1, 42108, Note_off_c, 0, 66, 100
1, 42108, Note_on_c, 0, 67, 100
1, 42172, Note_off_c, 0, 67, 100
1, 42172, Note_on_c, 0, 74, 100
1, 42268, Note_off_c, 0, 74, 100
1, 42908, Note_on_c, 0, 77, 100
1, 42956, Note_off_c, 0, 77, 100
1, 42956, Note_on_c, 0, 76, 100
1, 43004, Note_off_c, 0, 76, 100
1, 43004, Note_on_c, 0, 75, 100
1, 43100, Note_off_c, 0, 75, 100
1, 43100, Note_on_c, 0, 72, 100
1, 43196, Note_off_c, 0, 72, 100
1, 43196, Note_on_c, 0, 68, 100
1, 43292, Note_off_c, 0, 68, 100
1, 43292, Note_on_c, 0, 65, 100
1, 43388, Note_off_c, 0, 65, 100
1, 43388, Note_on_c, 0, 74, 100
1, 43484, Note_off_c, 0, 74, 100
1, 43484, Note_on_c, 0, 76, 100
1, 43532, Note_off_c, 0, 76, 100
1, 43532, Note_on_c, 0, 74, 100
1, 43580, Note_off_c, 0, 74, 100
1, 43580, Note_on_c, 0, 70, 100
1, 43676, Note_off_c, 0, 70, 100
1, 43676, Note_on_c, 0, 72, 100
1, 43820, Note_off_c, 0, 72, 100
1, 43820, Note_on_c, 0, 74, 100
1, 43868, Note_off_c, 0, 74, 100
1, 43868, Note_on_c, 0, 72, 100
1, 43916, Note_off_c, 0, 72, 100
1, 43916, Note_on_c, 0, 68, 100
1, 43964, Note_off_c, 0, 68, 100
1, 43964, Note_on_c, 0, 65, 100
1, 44060, Note_off_c, 0, 65, 100
1, 44060, Note_on_c, 0, 63, 100
1, 44156, Note_off_c, 0, 63, 100
1, 44156, Note_on_c, 0, 62, 100
1, 44252, Note_off_c, 0, 62, 100
1, 44252, Note_on_c, 0, 65, 100
1, 44348, Note_off_c, 0, 65, 100
1, 44348, Note_on_c, 0, 70, 100
1, 44476, Note_off_c, 0, 70, 100
1, 44476, Note_on_c, 0, 68, 100
1, 44540, Note_off_c, 0, 68, 100
1, 44540, Note_on_c, 0, 67, 100
1, 44636, Note_off_c, 0, 67, 100
1, 44636, Note_on_c, 0, 63, 100
1, 44732, Note_off_c, 0, 63, 100
1, 44732, Note_on_c, 0, 61, 100
1, 44828, Note_off_c, 0, 61, 100
1, 44828, Note_on_c, 0, 63, 100
1, 45212, Note_off_c, 0, 63, 100
1, 46124, Note_on_c, 0, 67, 100
1, 46220, Note_off_c, 0, 67, 100
1, 46220, Note_on_c, 0, 68, 100
1, 46268, Note_off_c, 0, 68, 100
1, 46268, Note_on_c, 0, 70, 100
1, 46316, Note_off_c, 0, 70, 100
1, 46316, Note_on_c, 0, 66, 100
1, 46364, Note_off_c, 0, 66, 100
1, 46364, Note_on_c, 0, 67, 100
1, 46412, Note_off_c, 0, 67, 100
1, 46412, Note_on_c, 0, 70, 100
1, 46460, Note_off_c, 0, 70, 100
1, 46460, Note_on_c, 0, 75, 100
1, 46556, Note_off_c, 0, 75, 100
1, 46556, Note_on_c, 0, 73, 100
1, 46652, Note_off_c, 0, 73, 100
1, 47180, Note_on_c, 0, 70, 100
1, 47324, Note_off_c, 0, 70, 100
1, 47324, Note_on_c, 0, 72, 100
1, 47372, Note_off_c, 0, 72, 100
1, 47372, Note_on_c, 0, 70, 100
1, 47420, Note_off_c, 0, 70, 100
1, 47420, Note_on_c, 0, 67, 100
1, 47516, Note_off_c, 0, 67, 100
1, 47516, Note_on_c, 0, 75, 100
1, 47612, Note_off_c, 0, 75, 100
1, 47612, Note_on_c, 0, 76, 100
1, 47676, Note_off_c, 0, 76, 100
1, 47676, Note_on_c, 0, 75, 100
1, 47740, Note_off_c, 0, 75, 100
1, 47740, Note_on_c, 0, 70, 100
1, 47804, Note_off_c, 0, 70, 100
1, 47804, Note_on_c, 0, 73, 100
1, 47900, Note_off_c, 0, 73, 100
1, 47900, Note_on_c, 0, 74, 100
1, 47948, Note_off_c, 0, 74, 100
1, 47948, Note_on_c, 0, 73, 100
1, 47996, Note_off_c, 0, 73, 100
1, 47996, Note_on_c, 0, 70, 100
1, 48092, Note_off_c, 0, 70, 100
1, 48092, Note_on_c, 0, 68, 100
1, 48252, Note_off_c, 0, 68, 100
1, 48252, Note_on_c, 0, 72, 100
1, 48284, Note_off_c, 0, 72, 100
1, 48284, Note_on_c, 0, 70, 100
1, 48316, Note_off_c, 0, 70, 100
1, 48316, Note_on_c, 0, 68, 100
1, 48348, Note_off_c, 0, 68, 100
1, 48348, Note_on_c, 0, 66, 100
1, 48380, Note_off_c, 0, 66, 100
1, 48380, Note_on_c, 0, 68, 100
1, 48716, Note_off_c, 0, 68, 100
1, 48716, Note_on_c, 0, 66, 100
1, 48764, Note_off_c, 0, 66, 100
1, 48764, Note_on_c, 0, 68, 100
1, 48812, Note_off_c, 0, 68, 100
1, 48812, Note_on_c, 0, 69, 100
1, 48860, Note_off_c, 0, 69, 100
1, 48860, Note_on_c, 0, 68, 100
1, 48908, Note_off_c, 0, 68, 100
1, 48908, Note_on_c, 0, 63, 100
1, 48956, Note_off_c, 0, 63, 100
1, 48956, Note_on_c, 0, 61, 100
1, 49052, Note_off_c, 0, 61, 100
1, 49052, Note_on_c, 0, 63, 100
1, 49436, Note_off_c, 0, 63, 100
1, 50780, Note_on_c, 0, 66, 100
1, 50828, Note_off_c, 0, 66, 100
1, 50828, Note_on_c, 0, 67, 100
1, 50972, Note_off_c, 0, 67, 100
1, 50972, Note_on_c, 0, 74, 100
1, 51068, Note_off_c, 0, 74, 100
1, 51068, Note_on_c, 0, 77, 100
1, 51164, Note_off_c, 0, 77, 100
1, 51164, Note_on_c, 0, 76, 100
1, 51212, Note_off_c, 0, 76, 100
1, 51212, Note_on_c, 0, 75, 100
1, 51260, Note_off_c, 0, 75, 100
1, 51260, Note_on_c, 0, 74, 100
1, 51356, Note_off_c, 0, 74, 100
1, 51356, Note_on_c, 0, 72, 100
1, 51452, Note_off_c, 0, 72, 100
1, 51452, Note_on_c, 0, 70, 100
1, 51548, Note_off_c, 0, 70, 100
1, 51548, Note_on_c, 0, 68, 100
1, 51644, Note_off_c, 0, 68, 100
1, 51644, Note_on_c, 0, 67, 100
1, 51740, Note_off_c, 0, 67, 100
1, 51740, Note_on_c, 0, 65, 100
1, 51836, Note_off_c, 0, 65, 100
1, 51836, Note_on_c, 0, 64, 100
1, 51932, Note_off_c, 0, 64, 100
1, 51932, Note_on_c, 0, 67, 100
1, 52028, Note_off_c, 0, 67, 100
1, 52028, Note_on_c, 0, 70, 100
1, 52124, Note_off_c, 0, 70, 100
1, 52124, Note_on_c, 0, 73, 100
1, 52220, Note_off_c, 0, 73, 100
1, 52220, Note_on_c, 0, 72, 100
1, 52412, Note_off_c, 0, 72, 100
1, 52412, Note_on_c, 0, 68, 100
1, 52508, Note_off_c, 0, 68, 100
1, 52508, Note_on_c, 0, 72, 100
1, 52556, Note_off_c, 0, 72, 100
1, 52556, Note_on_c, 0, 68, 100
1, 52604, Note_off_c, 0, 68, 100
1, 52604, Note_on_c, 0, 65, 100
1, 52748, Note_off_c, 0, 65, 100
1, 52748, Note_on_c, 0, 70, 100
1, 52892, Note_off_c, 0, 70, 100
1, 52892, Note_on_c, 0, 68, 100
1, 52988, Note_off_c, 0, 68, 100
1, 52988, Note_on_c, 0, 67, 100
1, 53084, Note_off_c, 0, 67, 100
1, 53084, Note_on_c, 0, 68, 100
1, 53372, Note_off_c, 0, 68, 100
1, 53372, Note_on_c, 0, 67, 100
1, 53660, Note_off_c, 0, 67, 100
1, 53660, Note_on_c, 0, 68, 100
1, 53756, Note_off_c, 0, 68, 100
1, 53756, Note_on_c, 0, 67, 100
1, 53884, Note_off_c, 0, 67, 100
1, 53884, Note_on_c, 0, 63, 100
1, 54044, Note_off_c, 0, 63, 100
1, 54044, Note_on_c, 0, 63, 100
1, 54428, Note_off_c, 0, 63, 100
1, 55196, Note_on_c, 0, 58, 100
1, 55244, Note_off_c, 0, 58, 100
1, 55244, Note_on_c, 0, 60, 100
1, 55292, Note_off_c, 0, 60, 100
1, 55292, Note_on_c, 0, 61, 100
1, 55340, Note_off_c, 0, 61, 100
1, 55340, Note_on_c, 0, 58, 100
1, 55388, Note_off_c, 0, 58, 100
1, 55388, Note_on_c, 0, 64, 100
1, 55436, Note_off_c, 0, 64, 100
1, 55436, Note_on_c, 0, 65, 100
1, 55484, Note_off_c, 0, 65, 100
1, 55484, Note_on_c, 0, 67, 100
1, 55532, Note_off_c, 0, 67, 100
1, 55532, Note_on_c, 0, 70, 100
1, 55580, Note_off_c, 0, 70, 100
1, 55580, Note_on_c, 0, 72, 100
1, 55628, Note_off_c, 0, 72, 100
1, 55628, Note_on_c, 0, 70, 100
1, 55676, Note_off_c, 0, 70, 100
1, 55676, Note_on_c, 0, 75, 100
1, 55724, Note_off_c, 0, 75, 100
1, 55724, Note_on_c, 0, 73, 100
1, 55820, Note_off_c, 0, 73, 100
1, 55820, Note_on_c, 0, 72, 100
1, 55916, Note_off_c, 0, 72, 100
1, 56396, Note_on_c, 0, 75, 100
1, 56588, Note_off_c, 0, 75, 100
1, 56588, Note_on_c, 0, 66, 100
1, 56732, Note_off_c, 0, 66, 100
1, 56732, Note_on_c, 0, 78, 100
1, 56780, Note_off_c, 0, 78, 100
1, 56780, Note_on_c, 0, 75, 100
1, 56924, Note_off_c, 0, 75, 100
1, 56924, Note_on_c, 0, 73, 100
1, 57020, Note_off_c, 0, 73, 100
1, 57212, Note_on_c, 0, 72, 100
1, 57260, Note_off_c, 0, 72, 100
1, 57260, Note_on_c, 0, 73, 100
1, 57404, Note_off_c, 0, 73, 100
1, 57404, Note_on_c, 0, 72, 100
1, 57500, Note_off_c, 0, 72, 100
1, 57500, Note_on_c, 0, 71, 100
1, 57548, Note_off_c, 0, 71, 100
1, 57548, Note_on_c, 0, 70, 100
1, 57692, Note_off_c, 0, 70, 100
1, 57692, Note_on_c, 0, 68, 100
1, 57788, Note_off_c, 0, 68, 100
1, 57788, Note_on_c, 0, 63, 100
1, 57884, Note_off_c, 0, 63, 100
1, 57884, Note_on_c, 0, 60, 100
1, 57932, Note_off_c, 0, 60, 100
1, 57932, Note_on_c, 0, 66, 100
1, 58076, Note_off_c, 0, 66, 100
1, 58076, Note_on_c, 0, 63, 100
1, 58124, Note_off_c, 0, 63, 100
1, 58124, Note_on_c, 0, 65, 100
1, 58268, Note_off_c, 0, 65, 100
1, 58268, Note_on_c, 0, 63, 100
1, 58364, Note_off_c, 0, 63, 100
1, 58364, Note_on_c, 0, 66, 100
1, 58508, Note_off_c, 0, 66, 100
1, 58508, Note_on_c, 0, 63, 100
1, 58556, Note_off_c, 0, 63, 100
1, 58556, Note_on_c, 0, 65, 100
1, 58652, Note_off_c, 0, 65, 100
1, 58652, Note_on_c, 0, 63, 100
1, 58940, Note_off_c, 0, 63, 100
1, 58940, Note_on_c, 0, 65, 100
1, 59036, Note_off_c, 0, 65, 100
1, 59900, Note_on_c, 0, 66, 100
1, 60044, Note_off_c, 0, 66, 100
1, 60044, Note_on_c, 0, 65, 100
1, 60188, Note_off_c, 0, 65, 100
1, 60188, Note_on_c, 0, 63, 100
1, 60476, Note_off_c, 0, 63, 100
1, 60476, Note_on_c, 0, 65, 100
1, 60572, Note_off_c, 0, 65, 100
1, 61052, Note_on_c, 0, 61, 100
1, 61180, Note_off_c, 0, 61, 100
1, 61180, Note_on_c, 0, 58, 100
1, 61244, Note_off_c, 0, 58, 100
1, 61244, Note_on_c, 0, 60, 100
1, 61388, Note_off_c, 0, 60, 100
1, 61388, Note_on_c, 0, 58, 100
1, 61436, Note_off_c, 0, 58, 100
1, 61436, Note_on_c, 0, 60, 100
1, 61500, Note_off_c, 0, 60, 100
1, 61500, Note_on_c, 0, 61, 100
1, 61724, Note_off_c, 0, 61, 100
1, 61724, Note_on_c, 0, 58, 100
1, 61820, Note_off_c, 0, 58, 100
1, 61820, Note_on_c, 0, 60, 100
1, 61948, Note_off_c, 0, 60, 100
1, 61948, Note_on_c, 0, 58, 100
1, 62108, Note_off_c, 0, 58, 100
1, 62108, Note_on_c, 0, 56, 100
1, 62396, Note_off_c, 0, 56, 100
1, 62396, Note_on_c, 0, 58, 100
1, 62492, Note_off_c, 0, 58, 100
1, 63068, Note_on_c, 0, 54, 100
1, 63116, Note_off_c, 0, 54, 100
1, 63116, Note_on_c, 0, 55, 100
1, 63260, Note_off_c, 0, 55, 100
1, 63260, Note_on_c, 0, 58, 100
1, 63452, Note_off_c, 0, 58, 100
1, 63452, Note_on_c, 0, 51, 100
1, 63836, Note_off_c, 0, 51, 100
1, 64556, Note_on_c, 0, 63, 100
1, 64652, Note_off_c, 0, 63, 100
1, 64652, Note_on_c, 0, 67, 100
1, 64796, Note_off_c, 0, 67, 100
1, 64796, Note_on_c, 0, 70, 100
1, 64844, Note_off_c, 0, 70, 100
1, 64844, Note_on_c, 0, 75, 100
1, 64988, Note_off_c, 0, 75, 100
1, 64988, Note_on_c, 0, 73, 100
1, 65084, Note_off_c, 0, 73, 100
1, 65084, Note_on_c, 0, 72, 100
1, 65180, Note_off_c, 0, 72, 100
1, 65180, Note_on_c, 0, 71, 100
1, 65276, Note_off_c, 0, 71, 100
1, 65276, Note_on_c, 0, 70, 100
1, 65372, Note_off_c, 0, 70, 100
1, 65372, Note_on_c, 0, 68, 100
1, 65468, Note_off_c, 0, 68, 100
1, 65468, Note_on_c, 0, 63, 100
1, 65564, Note_off_c, 0, 63, 100
1, 65564, Note_on_c, 0, 60, 100
1, 65660, Note_off_c, 0, 60, 100
1, 65660, Note_on_c, 0, 66, 100
1, 65756, Note_off_c, 0, 66, 100
1, 65756, Note_on_c, 0, 63, 100
1, 65804, Note_off_c, 0, 63, 100
1, 65804, Note_on_c, 0, 66, 100
1, 65948, Note_off_c, 0, 66, 100
1, 65948, Note_on_c, 0, 67, 100
1, 66044, Note_off_c, 0, 67, 100
1, 66044, Note_on_c, 0, 63, 100
1, 66140, Note_off_c, 0, 63, 100
1, 66140, Note_on_c, 0, 65, 100
1, 66236, Note_off_c, 0, 65, 100
1, 66236, Note_on_c, 0, 60, 100
1, 66380, Note_off_c, 0, 60, 100
1, 66380, Note_on_c, 0, 63, 100
1, 66668, Note_off_c, 0, 63, 100
1, 67292, Note_on_c, 0, 63, 100
1, 67388, Note_off_c, 0, 63, 100
1, 67388, Note_on_c, 0, 68, 100
1, 67484, Note_off_c, 0, 68, 100
1, 67484, Note_on_c, 0, 71, 100
1, 67532, Note_off_c, 0, 71, 100
1, 67532, Note_on_c, 0, 72, 100
1, 67724, Note_off_c, 0, 72, 100
1, 67724, Note_on_c, 0, 68, 100
1, 67916, Note_off_c, 0, 68, 100
1, 67916, Note_on_c, 0, 68, 100
1, 67964, Note_off_c, 0, 68, 100
1, 67964, Note_on_c, 0, 73, 100
1, 68060, Note_off_c, 0, 73, 100
1, 68060, Note_on_c, 0, 68, 100
1, 68156, Note_off_c, 0, 68, 100
1, 68300, Note_on_c, 0, 68, 100
1, 68348, Note_off_c, 0, 68, 100
1, 68348, Note_on_c, 0, 74, 100
1, 68444, Note_off_c, 0, 74, 100
1, 68444, Note_on_c, 0, 68, 100
1, 68540, Note_off_c, 0, 68, 100
1, 68540, Note_on_c, 0, 74, 100
1, 68636, Note_off_c, 0, 74, 100
1, 68636, Note_on_c, 0, 75, 100
1, 68796, Note_off_c, 0, 75, 100
1, 68796, Note_on_c, 0, 78, 100
1, 68988, Note_off_c, 0, 78, 100
1, 68988, Note_on_c, 0, 77, 100
1, 69116, Note_off_c, 0, 77, 100
1, 69116, Note_on_c, 0, 75, 100
1, 69308, Note_off_c, 0, 75, 100
1, 69308, Note_on_c, 0, 73, 100
1, 69500, Note_off_c, 0, 73, 100
1, 69500, Note_on_c, 0, 72, 100
1, 69692, Note_off_c, 0, 72, 100
1, 69692, Note_on_c, 0, 71, 100
1, 69788, Note_off_c, 0, 71, 100
1, 69788, Note_on_c, 0, 69, 100
1, 69884, Note_off_c, 0, 69, 100
1, 69884, Note_on_c, 0, 70, 100
1, 70172, Note_off_c, 0, 70, 100
1, 70172, Note_on_c, 0, 68, 100
1, 70268, Note_off_c, 0, 68, 100
1, 70268, Note_on_c, 0, 67, 100
1, 70306, Note_off_c, 0, 67, 100
1, 70306, Note_on_c, 0, 68, 100
1, 70344, Note_off_c, 0, 68, 100
1, 70344, Note_on_c, 0, 67, 100
1, 70382, Note_off_c, 0, 67, 100
1, 70382, Note_on_c, 0, 65, 100
1, 70420, Note_off_c, 0, 65, 100
1, 70420, Note_on_c, 0, 64, 100
1, 70516, Note_off_c, 0, 64, 100
1, 70986, Note_on_c, 0, 67, 100
1, 71034, Note_off_c, 0, 67, 100
1, 71034, Note_on_c, 0, 68, 100
1, 71082, Note_off_c, 0, 68, 100
1, 71082, Note_on_c, 0, 67, 100
1, 71130, Note_off_c, 0, 67, 100
1, 71130, Note_on_c, 0, 65, 100
1, 71322, Note_off_c, 0, 65, 100
1, 71322, Note_on_c, 0, 65, 100
1, 71370, Note_off_c, 0, 65, 100
1, 71370, Note_on_c, 0, 70, 100
1, 71514, Note_off_c, 0, 70, 100
1, 71514, Note_on_c, 0, 72, 100
1, 71562, Note_off_c, 0, 72, 100
1, 71562, Note_on_c, 0, 70, 100
1, 71610, Note_off_c, 0, 70, 100
1, 71610, Note_on_c, 0, 68, 100
1, 71706, Note_off_c, 0, 68, 100
1, 71706, Note_on_c, 0, 73, 100
1, 71802, Note_off_c, 0, 73, 100
1, 71802, Note_on_c, 0, 76, 100
1, 71866, Note_off_c, 0, 76, 100
1, 71866, Note_on_c, 0, 73, 100
1, 71930, Note_off_c, 0, 73, 100
1, 71930, Note_on_c, 0, 70, 100
1, 71994, Note_off_c, 0, 70, 100
1, 71994, Note_on_c, 0, 72, 100
1, 72442, Note_off_c, 0, 72, 100
1, 72442, Note_on_c, 0, 73, 100
1, 72506, Note_off_c, 0, 73, 100
1, 72506, Note_on_c, 0, 72, 100
1, 72570, Note_off_c, 0, 72, 100
1, 72570, Note_on_c, 0, 70, 100
1, 72698, Note_off_c, 0, 70, 100
1, 72698, Note_on_c, 0, 63, 100
1, 72794, Note_off_c, 0, 63, 100
1, 73338, Note_on_c, 0, 73, 100
1, 73466, Note_off_c, 0, 73, 100
1, 73466, Note_on_c, 0, 72, 100
1, 73530, Note_off_c, 0, 72, 100
1, 73530, Note_on_c, 0, 70, 100
1, 73658, Note_off_c, 0, 70, 100
1, 73658, Note_on_c, 0, 72, 100
1, 73914, Note_off_c, 0, 72, 100
1, 73914, Note_on_c, 0, 73, 100
1, 74042, Note_off_c, 0, 73, 100
1, 74042, Note_on_c, 0, 72, 100
1, 74106, Note_off_c, 0, 72, 100
1, 74106, Note_on_c, 0, 70, 100
1, 74202, Note_off_c, 0, 70, 100
1, 74202, Note_on_c, 0, 72, 100
1, 74298, Note_off_c, 0, 72, 100
1, 74682, Note_on_c, 0, 73, 100
1, 74810, Note_off_c, 0, 73, 100
1, 74810, Note_on_c, 0, 72, 100
1, 74874, Note_off_c, 0, 72, 100
1, 74874, Note_on_c, 0, 70, 100
1, 74970, Note_off_c, 0, 70, 100
1, 74970, Note_on_c, 0, 72, 100
1, 75162, Note_off_c, 0, 72, 100
1, 75162, Note_on_c, 0, 73, 100
1, 75210, Note_off_c, 0, 73, 100
1, 75210, Note_on_c, 0, 72, 100
1, 75258, Note_off_c, 0, 72, 100
1, 75258, Note_on_c, 0, 70, 100
1, 75354, Note_off_c, 0, 70, 100
1, 75354, Note_on_c, 0, 73, 100
1, 75450, Note_off_c, 0, 73, 100
1, 75450, Note_on_c, 0, 73, 100
1, 75498, Note_off_c, 0, 73, 100
1, 75498, Note_on_c, 0, 72, 100
1, 75546, Note_off_c, 0, 72, 100
1, 75546, Note_on_c, 0, 70, 100
1, 75642, Note_off_c, 0, 70, 100
1, 75642, Note_on_c, 0, 72, 100
1, 75770, Note_off_c, 0, 72, 100
1, 75770, Note_on_c, 0, 70, 100
1, 75866, Note_off_c, 0, 70, 100
1, 76218, Note_on_c, 0, 73, 100
1, 76362, Note_off_c, 0, 73, 100
1, 76362, Note_on_c, 0, 72, 100
1, 76410, Note_off_c, 0, 72, 100
1, 76410, Note_on_c, 0, 70, 100
1, 76538, Note_off_c, 0, 70, 100
1, 76538, Note_on_c, 0, 72, 100
1, 76634, Note_off_c, 0, 72, 100
1, 77178, Note_on_c, 0, 75, 100
1, 77274, Note_off_c, 0, 75, 100
1, 77898, Note_on_c, 0, 79, 100
1, 78138, Note_off_c, 0, 79, 100
1, 78138, Note_on_c, 0, 79, 100
1, 78666, Note_off_c, 0, 79, 100
1, 78666, Note_on_c, 0, 75, 100
1, 78714, Note_off_c, 0, 75, 100
1, 78714, Note_on_c, 0, 76, 100
1, 78810, Note_off_c, 0, 76, 100
1, 78810, Note_on_c, 0, 75, 100
1, 78906, Note_off_c, 0, 75, 100
1, 78906, Note_on_c, 0, 74, 100
1, 79002, Note_off_c, 0, 74, 100
1, 79002, Note_on_c, 0, 77, 100
1, 79098, Note_off_c, 0, 77, 100
1, 79098, Note_on_c, 0, 75, 100
1, 79194, Note_off_c, 0, 75, 100
1, 79194, Note_on_c, 0, 70, 100
1, 79290, Note_off_c, 0, 70, 100
1, 79290, Note_on_c, 0, 67, 100
1, 79434, Note_off_c, 0, 67, 100
1, 79434, Note_on_c, 0, 70, 100
1, 79482, Note_off_c, 0, 70, 100
1, 79482, Note_on_c, 0, 74, 100
1, 79578, Note_off_c, 0, 74, 100
1, 79578, Note_on_c, 0, 72, 100
1, 79674, Note_off_c, 0, 72, 100
1, 79674, Note_on_c, 0, 71, 100
1, 79712, Note_off_c, 0, 71, 100
1, 79712, Note_on_c, 0, 70, 100
1, 79788, Note_off_c, 0, 70, 100
1, 79788, Note_on_c, 0, 70, 100
1, 79826, Note_off_c, 0, 70, 100
1, 79826, Note_on_c, 0, 69, 100
1, 79864, Note_off_c, 0, 69, 100
1, 79864, Note_on_c, 0, 68, 100
1, 79960, Note_off_c, 0, 68, 100
1, 79960, Note_on_c, 0, 72, 100
1, 80056, Note_off_c, 0, 72, 100
1, 80056, Note_on_c, 0, 67, 100
1, 80152, Note_off_c, 0, 67, 100
1, 80152, Note_on_c, 0, 65, 100
1, 80248, Note_off_c, 0, 65, 100
1, 80248, Note_on_c, 0, 70, 100
1, 80344, Note_off_c, 0, 70, 100
1, 80344, Note_on_c, 0, 67, 100
1, 80440, Note_off_c, 0, 67, 100
1, 80440, Note_on_c, 0, 68, 100
1, 80584, Note_off_c, 0, 68, 100
1, 80584, Note_on_c, 0, 70, 100
1, 80632, Note_off_c, 0, 70, 100
1, 80632, Note_on_c, 0, 73, 100
1, 80728, Note_off_c, 0, 73, 100
1, 80728, Note_on_c, 0, 71, 100
1, 80824, Note_off_c, 0, 71, 100
1, 80824, Note_on_c, 0, 73, 100
1, 80920, Note_off_c, 0, 73, 100
1, 80920, Note_on_c, 0, 71, 100
1, 81016, Note_off_c, 0, 71, 100
1, 81016, Note_on_c, 0, 70, 100
1, 81112, Note_off_c, 0, 70, 100
1, 81112, Note_on_c, 0, 66, 100
1, 81208, Note_off_c, 0, 66, 100
1, 81208, Note_on_c, 0, 62, 100
1, 81336, Note_off_c, 0, 62, 100
1, 81336, Note_on_c, 0, 58, 100
1, 81400, Note_off_c, 0, 58, 100
1, 81400, Note_on_c, 0, 63, 100
1, 81544, Note_off_c, 0, 63, 100
1, 81544, Note_on_c, 0, 58, 100
1, 81592, Note_off_c, 0, 58, 100
1, 81592, Note_on_c, 0, 61, 100
1, 81880, Note_off_c, 0, 61, 100
1, 82984, Note_on_c, 0, 58, 100
1, 83032, Note_off_c, 0, 58, 100
1, 83032, Note_on_c, 0, 61, 100
1, 83080, Note_off_c, 0, 61, 100
1, 83080, Note_on_c, 0, 63, 100
1, 83320, Note_off_c, 0, 63, 100
1, 83320, Note_on_c, 0, 58, 100
1, 83384, Note_off_c, 0, 58, 100
1, 83384, Note_on_c, 0, 61, 100
1, 83448, Note_off_c, 0, 61, 100
1, 83448, Note_on_c, 0, 63, 100
1, 83752, Note_off_c, 0, 63, 100
1, 83752, Note_on_c, 0, 58, 100
1, 83800, Note_off_c, 0, 58, 100
1, 83800, Note_on_c, 0, 61, 100
1, 83848, Note_off_c, 0, 61, 100
1, 83848, Note_on_c, 0, 60, 100
1, 83896, Note_off_c, 0, 60, 100
1, 83896, Note_on_c, 0, 58, 100
1, 84088, Note_off_c, 0, 58, 100
1, 84088, Note_on_c, 0, 60, 100
1, 84152, Note_off_c, 0, 60, 100
1, 84152, Note_on_c, 0, 63, 100
1, 84216, Note_off_c, 0, 63, 100
1, 84216, Note_on_c, 0, 61, 100
1, 84312, Note_off_c, 0, 61, 100
1, 84728, Note_on_c, 0, 58, 100
1, 84792, Note_off_c, 0, 58, 100
1, 84792, Note_on_c, 0, 61, 100
1, 84856, Note_off_c, 0, 61, 100
1, 84856, Note_on_c, 0, 63, 100
1, 85000, Note_off_c, 0, 63, 100
1, 85000, Note_on_c, 0, 60, 100
1, 85096, Note_off_c, 0, 60, 100
1, 85096, Note_on_c, 0, 58, 100
1, 85336, Note_off_c, 0, 58, 100
1, 85336, Note_on_c, 0, 60, 100
1, 85384, Note_off_c, 0, 60, 100
1, 85384, Note_on_c, 0, 63, 100
1, 85432, Note_off_c, 0, 63, 100
1, 85432, Note_on_c, 0, 58, 100
1, 85480, Note_off_c, 0, 58, 100
1, 85480, Note_on_c, 0, 60, 100
1, 85528, Note_off_c, 0, 60, 100
1, 85528, Note_on_c, 0, 61, 100
1, 85576, Note_off_c, 0, 61, 100
1, 85576, Note_on_c, 0, 63, 100
1, 85624, Note_off_c, 0, 63, 100
1, 85624, Note_on_c, 0, 61, 100
1, 85720, Note_off_c, 0, 61, 100
1, 86200, Note_on_c, 0, 63, 100
1, 86264, Note_off_c, 0, 63, 100
1, 86264, Note_on_c, 0, 66, 100
1, 86328, Note_off_c, 0, 66, 100
1, 86328, Note_on_c, 0, 68, 100
1, 86536, Note_off_c, 0, 68, 100
1, 86536, Note_on_c, 0, 66, 100
1, 86584, Note_off_c, 0, 66, 100
1, 86584, Note_on_c, 0, 68, 100
1, 86680, Note_off_c, 0, 68, 100
1, 86680, Note_on_c, 0, 66, 100
1, 86728, Note_off_c, 0, 66, 100
1, 86728, Note_on_c, 0, 63, 100
1, 86776, Note_off_c, 0, 63, 100
1, 86776, Note_on_c, 0, 61, 100
1, 86824, Note_off_c, 0, 61, 100
1, 86824, Note_on_c, 0, 58, 100
1, 86872, Note_off_c, 0, 58, 100
1, 86872, Note_on_c, 0, 60, 100
1, 86920, Note_off_c, 0, 60, 100
1, 86920, Note_on_c, 0, 55, 100
1, 87016, Note_off_c, 0, 55, 100
1, 87016, Note_on_c, 0, 52, 100
1, 87064, Note_off_c, 0, 52, 100
1, 87064, Note_on_c, 0, 53, 100
1, 87112, Note_off_c, 0, 53, 100
1, 87112, Note_on_c, 0, 56, 100
1, 87160, Note_off_c, 0, 56, 100
1, 87160, Note_on_c, 0, 60, 100
1, 87198, Note_off_c, 0, 60, 100
1, 87198, Note_on_c, 0, 63, 100
1, 87236, Note_off_c, 0, 63, 100
1, 87236, Note_on_c, 0, 70, 100
1, 87274, Note_off_c, 0, 70, 100
1, 87274, Note_on_c, 0, 68, 100
1, 87312, Note_off_c, 0, 68, 100
1, 87312, Note_on_c, 0, 66, 100
1, 87408, Note_off_c, 0, 66, 100
1, 87782, Note_on_c, 0, 58, 100
1, 87830, Note_off_c, 0, 58, 100
1, 87830, Note_on_c, 0, 61, 100
1, 87878, Note_off_c, 0, 61, 100
1, 87878, Note_on_c, 0, 63, 100
1, 88118, Note_off_c, 0, 63, 100
1, 88118, Note_on_c, 0, 61, 100
1, 88166, Note_off_c, 0, 61, 100
1, 88166, Note_on_c, 0, 63, 100
1, 88374, Note_off_c, 0, 63, 100
1, 88374, Note_on_c, 0, 58, 100
1, 88438, Note_off_c, 0, 58, 100
1, 88438, Note_on_c, 0, 60, 100
1, 88502, Note_off_c, 0, 60, 100
1, 88502, Note_on_c, 0, 64, 100
1, 88550, Note_off_c, 0, 64, 100
1, 88550, Note_on_c, 0, 65, 100
1, 88598, Note_off_c, 0, 65, 100
1, 88598, Note_on_c, 0, 67, 100
1, 88646, Note_off_c, 0, 67, 100
1, 88646, Note_on_c, 0, 72, 100
1, 88694, Note_off_c, 0, 72, 100
1, 88694, Note_on_c, 0, 75, 100
1, 88790, Note_off_c, 0, 75, 100
1, 88790, Note_on_c, 0, 73, 100
1, 88886, Note_off_c, 0, 73, 100
1, 89558, Note_on_c, 0, 63, 100
1, 89654, Note_off_c, 0, 63, 100
1, 89654, Note_on_c, 0, 66, 100
1, 89782, Note_off_c, 0, 66, 100
1, 89782, Note_on_c, 0, 63, 100
1, 90182, Note_off_c, 0, 63, 100
1, 90182, Note_on_c, 0, 61, 100
1, 90230, Note_off_c, 0, 61, 100
1, 90230, Note_on_c, 0, 63, 100
1, 90662, Note_off_c, 0, 63, 100
1, 90662, Note_on_c, 0, 58, 100
1, 90710, Note_off_c, 0, 58, 100
1, 90710, Note_on_c, 0, 60, 100
1, 90758, Note_off_c, 0, 60, 100
1, 90758, Note_on_c, 0, 63, 100
1, 90806, Note_off_c, 0, 63, 100
1, 90806, Note_on_c, 0, 61, 100
1, 90854, Note_off_c, 0, 61, 100
1, 90854, Note_on_c, 0, 60, 100
1, 90902, Note_off_c, 0, 60, 100
1, 90902, Note_on_c, 0, 63, 100
1, 90998, Note_off_c, 0, 63, 100
1, 90998, Note_on_c, 0, 66, 100
1, 91030, Note_off_c, 0, 66, 100
1, 91030, Note_on_c, 0, 67, 100
1, 91062, Note_off_c, 0, 67, 100
1, 91062, Note_on_c, 0, 70, 100
1, 91094, Note_off_c, 0, 70, 100
1, 91094, Note_on_c, 0, 75, 100
1, 91158, Note_off_c, 0, 75, 100
1, 91158, Note_on_c, 0, 72, 100
1, 91190, Note_off_c, 0, 72, 100
1, 91190, Note_on_c, 0, 73, 100
1, 91286, Note_off_c, 0, 73, 100
1, 91430, Note_on_c, 0, 63, 100
1, 91478, Note_off_c, 0, 63, 100
1, 91478, Note_on_c, 0, 60, 100
1, 91526, Note_off_c, 0, 60, 100
1, 91526, Note_on_c, 0, 62, 100
1, 91622, Note_off_c, 0, 62, 100
1, 91622, Note_on_c, 0, 63, 100
1, 91670, Note_off_c, 0, 63, 100
1, 91670, Note_on_c, 0, 58, 100
1, 91718, Note_off_c, 0, 58, 100
1, 91718, Note_on_c, 0, 60, 100
1, 91766, Note_off_c, 0, 60, 100
1, 91766, Note_on_c, 0, 62, 100
1, 91798, Note_off_c, 0, 62, 100
1, 91798, Note_on_c, 0, 63, 100
1, 91862, Note_off_c, 0, 63, 100
1, 91862, Note_on_c, 0, 66, 100
1, 91894, Note_off_c, 0, 66, 100
1, 91894, Note_on_c, 0, 67, 100
1, 91926, Note_off_c, 0, 67, 100
1, 91926, Note_on_c, 0, 70, 100
1, 91958, Note_off_c, 0, 70, 100
1, 91958, Note_on_c, 0, 67, 100
1, 91990, Note_off_c, 0, 67, 100
1, 91990, Note_on_c, 0, 72, 100
1, 92022, Note_off_c, 0, 72, 100
1, 92022, Note_on_c, 0, 74, 100
1, 92054, Note_off_c, 0, 74, 100
1, 92054, Note_on_c, 0, 73, 100
1, 92150, Note_off_c, 0, 73, 100
1, 92438, Note_on_c, 0, 58, 100
1, 92486, Note_off_c, 0, 58, 100
1, 92486, Note_on_c, 0, 60, 100
1, 92534, Note_off_c, 0, 60, 100
1, 92534, Note_on_c, 0, 61, 100
1, 92630, Note_off_c, 0, 61, 100
1, 92630, Note_on_c, 0, 60, 100
1, 92678, Note_off_c, 0, 60, 100
1, 92678, Note_on_c, 0, 58, 100
1, 92822, Note_off_c, 0, 58, 100
1, 92822, Note_on_c, 0, 60, 100
1, 92918, Note_off_c, 0, 60, 100
1, 92918, Note_on_c, 0, 58, 100
1, 92966, Note_off_c, 0, 58, 100
1, 92966, Note_on_c, 0, 64, 100
1, 93014, Note_off_c, 0, 64, 100
1, 93014, Note_on_c, 0, 65, 100
1, 93110, Note_off_c, 0, 65, 100
1, 93110, Note_on_c, 0, 68, 100
1, 93142, Note_off_c, 0, 68, 100
1, 93142, Note_on_c, 0, 71, 100
1, 93206, Note_off_c, 0, 71, 100
1, 93206, Note_on_c, 0, 70, 100
1, 93238, Note_off_c, 0, 70, 100
1, 93238, Note_on_c, 0, 72, 100
1, 93302, Note_off_c, 0, 72, 100
1, 93302, Note_on_c, 0, 77, 100
1, 93366, Note_off_c, 0, 77, 100
1, 93366, Note_on_c, 0, 72, 100
1, 93462, Note_off_c, 0, 72, 100
1, 93830, Note_on_c, 0, 57, 100
1, 93878, Note_off_c, 0, 57, 100
1, 93878, Note_on_c, 0, 60, 100
1, 93926, Note_off_c, 0, 60, 100
1, 93926, Note_on_c, 0, 57, 100
1, 93974, Note_off_c, 0, 57, 100
1, 93974, Note_on_c, 0, 58, 100
1, 94022, Note_off_c, 0, 58, 100
1, 94022, Note_on_c, 0, 55, 100
1, 94070, Note_off_c, 0, 55, 100
1, 94070, Note_on_c, 0, 53, 100
1, 94134, Note_off_c, 0, 53, 100
1, 94134, Note_on_c, 0, 52, 100
1, 94198, Note_off_c, 0, 52, 100
1, 94198, Note_on_c, 0, 53, 100
1, 94262, Note_off_c, 0, 53, 100
1, 94262, Note_on_c, 0, 52, 100
1, 94326, Note_off_c, 0, 52, 100
1, 94326, Note_on_c, 0, 53, 100
1, 94358, Note_off_c, 0, 53, 100
1, 94358, Note_on_c, 0, 55, 100
1, 94390, Note_off_c, 0, 55, 100
1, 94390, Note_on_c, 0, 61, 100
1, 94422, Note_off_c, 0, 61, 100
1, 94422, Note_on_c, 0, 60, 100
1, 94454, Note_off_c, 0, 60, 100
1, 94454, Note_on_c, 0, 71, 100
1, 94530, Note_off_c, 0, 71, 100
1, 94530, Note_on_c, 0, 71, 100
1, 94568, Note_off_c, 0, 71, 100
1, 94568, Note_on_c, 0, 63, 100
1, 94606, Note_off_c, 0, 63, 100
1, 94606, Note_on_c, 0, 62, 100
1, 94644, Note_off_c, 0, 62, 100
1, 94644, Note_on_c, 0, 65, 100
1, 94692, Note_off_c, 0, 65, 100
1, 94692, Note_on_c, 0, 72, 100
1, 94740, Note_off_c, 0, 72, 100
1, 94740, Note_on_c, 0, 73, 100
1, 94788, Note_off_c, 0, 73, 100
1, 94788, Note_on_c, 0, 65, 100
1, 94836, Note_off_c, 0, 65, 100
1, 94836, Note_on_c, 0, 72, 100
1, 94884, Note_off_c, 0, 72, 100
1, 94884, Note_on_c, 0, 74, 100
1, 94932, Note_off_c, 0, 74, 100
1, 94932, Note_on_c, 0, 78, 100
1, 94980, Note_off_c, 0, 78, 100
1, 94980, Note_on_c, 0, 77, 100
1, 95076, Note_off_c, 0, 77, 100
1, 95556, Note_on_c, 0, 75, 100
1, 95652, Note_off_c, 0, 75, 100
1, 96324, Note_on_c, 0, 86, 100
1, 96516, Note_off_c, 0, 86, 100
1, 96516, Note_on_c, 0, 86, 100
1, 96564, Note_off_c, 0, 86, 100
1, 96564, Note_on_c, 0, 87, 100
1, 96660, Note_off_c, 0, 87, 100
1, 96660, Note_on_c, 0, 86, 100
1, 96756, Note_off_c, 0, 86, 100
1, 97284, Note_on_c, 0, 81, 100
1, 97332, Note_off_c, 0, 81, 100
1, 97332, Note_on_c, 0, 82, 100
1, 97860, Note_off_c, 0, 82, 100
1, 97860, Note_on_c, 0, 79, 100
1, 98004, Note_off_c, 0, 79, 100
1, 98004, Note_on_c, 0, 80, 100
1, 98164, Note_off_c, 0, 80, 100
1, 98164, Note_on_c, 0, 66, 100
1, 98388, Note_off_c, 0, 66, 100
1, 98388, Note_on_c, 0, 79, 100
1, 98484, Note_off_c, 0, 79, 100
1, 98484, Note_on_c, 0, 75, 100
1, 98676, Note_off_c, 0, 75, 100
1, 98676, Note_on_c, 0, 73, 100
1, 98868, Note_off_c, 0, 73, 100
1, 98868, Note_on_c, 0, 72, 100
1, 98964, Note_off_c, 0, 72, 100
1, 98964, Note_on_c, 0, 71, 100
1, 99060, Note_off_c, 0, 71, 100
1, 99060, Note_on_c, 0, 70, 100
1, 99156, Note_off_c, 0, 70, 100
1, 99156, Note_on_c, 0, 68, 100
1, 99252, Note_off_c, 0, 68, 100
1, 99252, Note_on_c, 0, 63, 100
1, 99348, Note_off_c, 0, 63, 100
1, 99348, Note_on_c, 0, 60, 100
1, 99396, Note_off_c, 0, 60, 100
1, 99396, Note_on_c, 0, 65, 100
1, 99444, Note_off_c, 0, 65, 100
1, 99444, Note_on_c, 0, 67, 100
1, 99588, Note_off_c, 0, 67, 100
1, 99588, Note_on_c, 0, 70, 100
1, 99780, Note_off_c, 0, 70, 100
1, 99780, Note_on_c, 0, 63, 100
1, 99876, Note_off_c, 0, 63, 100
1, 100308, Note_on_c, 0, 60, 100
1, 100356, Note_off_c, 0, 60, 100
1, 100356, Note_on_c, 0, 61, 100
1, 100500, Note_off_c, 0, 61, 100
1, 100500, Note_on_c, 0, 63, 100
1, 100884, Note_off_c, 0, 63, 100
1, 100884, Note_on_c, 0, 58, 100
1, 100932, Note_off_c, 0, 58, 100
1, 100932, Note_on_c, 0, 61, 100
1, 101076, Note_off_c, 0, 61, 100
1, 101076, Note_on_c, 0, 63, 100
1, 101172, Note_off_c, 0, 63, 100
1, 101172, Note_on_c, 0, 66, 100
1, 101316, Note_off_c, 0, 66, 100
1, 101316, Note_on_c, 0, 63, 100
1, 101630, Note_off_c, 0, 63, 100
1, 101630, End_track
0, 0, End_of_file
