0, 0, Header, 1, 1, 192
1, 0, Start_track
1, 0, Title_t, "Melody"
1, 0, Tempo, 245901
1, 0, Key_signature, -2, "major"
1, 0, Time_signature, 4, 2, 24, 8
1, 640, Note_on_c, 0, 69, 100
1, 832, Note_off_c, 0, 69, 100
1, 832, Note_on_c, 0, 69, 100
1, 1535, Note_off_c, 0, 69, 100
1, 1535, Note_on_c, 0, 62, 100
1, 2063, Note_off_c, 0, 62, 100
1, 2063, Note_on_c, 0, 64, 100
1, 2207, Note_off_c, 0, 64, 100
1, 2207, Note_on_c, 0, 65, 100
1, 2303, Note_off_c, 0, 65, 100
1, 2303, Note_on_c, 0, 67, 100
1, 2591, Note_off_c, 0, 67, 100
1, 2591, Note_on_c, 0, 58, 100
1, 2687, Note_off_c, 0, 58, 100
1, 2687, Note_on_c, 0, 60, 100
1, 2879, Note_off_c, 0, 60, 100
1, 2879, Note_on_c, 0, 62, 100
1, 3071, Note_off_c, 0, 62, 100
1, 3071, Note_on_c, 0, 64, 100
1, 3359, Note_off_c, 0, 64, 100
1, 3359, Note_on_c, 0, 60, 100
1, 3647, Note_off_c, 0, 60, 100
1, 4511, Note_on_c, 0, 65, 100
1, 4607, Note_off_c, 0, 65, 100
1, 4607, Note_on_c, 0, 64, 100
1, 4943, Note_off_c, 0, 64, 100
1, 4943, Note_on_c, 0, 60, 100
1, 5327, Note_off_c, 0, 60, 100
1, 6815, Note_on_c, 0, 67, 100
1, 6911, Note_off_c, 0, 67, 100
1, 6911, Note_on_c, 0, 66, 100
1, 7199, Note_off_c, 0, 66, 100
1, 7199, Note_on_c, 0, 60, 100
1, 7563, Note_off_c, 0, 60, 100
1, 7563, Note_on_c, 0, 65, 100
1, 7601, Note_off_c, 0, 65, 100
1, 7601, Note_on_c, 0, 66, 100
1, 7639, Note_off_c, 0, 66, 100
1, 7639, Note_on_c, 0, 67, 100
1, 7677, Note_off_c, 0, 67, 100
1, 7677, Note_on_c, 0, 66, 100
1, 8205, Note_off_c, 0, 66, 100
1, 8205, Note_on_c, 0, 64, 100
1, 8317, Note_off_c, 0, 64, 100
1, 8317, Note_on_c, 0, 62, 100
1, 8445, Note_off_c, 0, 62, 100
1, 8445, Note_on_c, 0, 60, 100
1, 8637, Note_off_c, 0, 60, 100
1, 8637, Note_on_c, 0, 62, 100
1, 8733, Note_off_c, 0, 62, 100
1, 8733, Note_on_c, 0, 64, 100
1, 8829, Note_off_c, 0, 64, 100
1, 8829, Note_on_c, 0, 66, 100
1, 9501, Note_off_c, 0, 66, 100
1, 9501, Note_on_c, 0, 62, 100
1, 9837, Note_off_c, 0, 62, 100
1, 9837, Note_on_c, 0, 60, 100
1, 10701, Note_off_c, 0, 60, 100
1, 10701, Note_on_c, 0, 55, 100
1, 10845, Note_off_c, 0, 55, 100
1, 10845, Note_on_c, 0, 60, 100
1, 11133, Note_off_c, 0, 60, 100
1, 11133, Note_on_c, 0, 57, 100
1, 11325, Note_off_c, 0, 57, 100
1, 11325, Note_on_c, 0, 60, 100
1, 11613, Note_off_c, 0, 60, 100
1, 13117, Note_on_c, 0, 61, 100
1, 13245, Note_off_c, 0, 61, 100
1, 13245, Note_on_c, 0, 60, 100
1, 13437, Note_off_c, 0, 60, 100
1, 13437, Note_on_c, 0, 61, 100
1, 14109, Note_off_c, 0, 61, 100
1, 14349, Note_on_c, 0, 60, 100
1, 14781, Note_off_c, 0, 60, 100
1, 14781, Note_on_c, 0, 59, 100
1, 14877, Note_off_c, 0, 59, 100
1, 14877, Note_on_c, 0, 56, 100
1, 15069, Note_off_c, 0, 56, 100
1, 15069, Note_on_c, 0, 56, 100
1, 15165, Note_off_c, 0, 56, 100
1, 15165, Note_on_c, 0, 53, 100
1, 15357, Note_off_c, 0, 53, 100
1, 16077, Note_on_c, 0, 58, 100
1, 16125, Note_off_c, 0, 58, 100
1, 16125, Note_on_c, 0, 56, 100
1, 16221, Note_off_c, 0, 56, 100
1, 16221, Note_on_c, 0, 59, 100
1, 16317, Note_off_c, 0, 59, 100
1, 16317, Note_on_c, 0, 63, 100
1, 16413, Note_off_c, 0, 63, 100
1, 16413, Note_on_c, 0, 65, 100
1, 16509, Note_off_c, 0, 65, 100
1, 16509, Note_on_c, 0, 68, 100
1, 16605, Note_off_c, 0, 68, 100
1, 16605, Note_on_c, 0, 70, 100
1, 16701, Note_off_c, 0, 70, 100
1, 16701, Note_on_c, 0, 71, 100
1, 16845, Note_off_c, 0, 71, 100
1, 16845, Note_on_c, 0, 68, 100
1, 16893, Note_off_c, 0, 68, 100
1, 16893, Note_on_c, 0, 70, 100
1, 16989, Note_off_c, 0, 70, 100
1, 16989, Note_on_c, 0, 68, 100
1, 17085, Note_off_c, 0, 68, 100
1, 17085, Note_on_c, 0, 63, 100
1, 17181, Note_off_c, 0, 63, 100
1, 17181, Note_on_c, 0, 68, 100
1, 17469, Note_off_c, 0, 68, 100
1, 17469, Note_on_c, 0, 67, 100
1, 17565, Note_off_c, 0, 67, 100
1, 17565, Note_on_c, 0, 66, 100
1, 17661, Note_off_c, 0, 66, 100
1, 17661, Note_on_c, 0, 65, 100
1, 17757, Note_off_c, 0, 65, 100
1, 17757, Note_on_c, 0, 64, 100
1, 17901, Note_off_c, 0, 64, 100
1, 17901, Note_on_c, 0, 62, 100
1, 17997, Note_off_c, 0, 62, 100
1, 17997, Note_on_c, 0, 61, 100
1, 18045, Note_off_c, 0, 61, 100
1, 18045, Note_on_c, 0, 60, 100
1, 18141, Note_off_c, 0, 60, 100
1, 18141, Note_on_c, 0, 59, 100
1, 18237, Note_off_c, 0, 59, 100
1, 18237, Note_on_c, 0, 58, 100
1, 18333, Note_off_c, 0, 58, 100
1, 18333, Note_on_c, 0, 60, 100
1, 18429, Note_off_c, 0, 60, 100
1, 18429, Note_on_c, 0, 57, 100
1, 18685, Note_off_c, 0, 57, 100
1, 18685, Note_on_c, 0, 58, 100
1, 18749, Note_off_c, 0, 58, 100
1, 18749, Note_on_c, 0, 60, 100
1, 18813, Note_off_c, 0, 60, 100
1, 18813, Note_on_c, 0, 62, 100
1, 19053, Note_off_c, 0, 62, 100
1, 19053, Note_on_c, 0, 64, 100
1, 19101, Note_off_c, 0, 64, 100
1, 19101, Note_on_c, 0, 66, 100
1, 19149, Note_off_c, 0, 66, 100
1, 19149, Note_on_c, 0, 67, 100
1, 19437, Note_off_c, 0, 67, 100
1, 19437, Note_on_c, 0, 69, 100
1, 19485, Note_off_c, 0, 69, 100
1, 19485, Note_on_c, 0, 70, 100
1, 19581, Note_off_c, 0, 70, 100
1, 19581, Note_on_c, 0, 72, 100
1, 19869, Note_off_c, 0, 72, 100
1, 19869, Note_on_c, 0, 74, 100
1, 19917, Note_off_c, 0, 74, 100
1, 19917, Note_on_c, 0, 72, 100
1, 19965, Note_off_c, 0, 72, 100
1, 19965, Note_on_c, 0, 70, 100
1, 20029, Note_off_c, 0, 70, 100
1, 20029, Note_on_c, 0, 69, 100
1, 20589, Note_off_c, 0, 69, 100
1, 20589, Note_on_c, 0, 67, 100
1, 20637, Note_off_c, 0, 67, 100
1, 20637, Note_on_c, 0, 65, 100
1, 20685, Note_off_c, 0, 65, 100
1, 20685, Note_on_c, 0, 64, 100
1, 20877, Note_off_c, 0, 64, 100
1, 22269, Note_on_c, 0, 67, 100
1, 22365, Note_off_c, 0, 67, 100
1, 22365, Note_on_c, 0, 63, 100
1, 22461, Note_off_c, 0, 63, 100
1, 22461, Note_on_c, 0, 68, 100
1, 22557, Note_off_c, 0, 68, 100
1, 22557, Note_on_c, 0, 71, 100
1, 22653, Note_off_c, 0, 71, 100
1, 22653, Note_on_c, 0, 69, 100
1, 22781, Note_off_c, 0, 69, 100
1, 22781, Note_on_c, 0, 65, 100
1, 22941, Note_off_c, 0, 65, 100
1, 22941, Note_on_c, 0, 64, 100
1, 23037, Note_off_c, 0, 64, 100
1, 23037, Note_on_c, 0, 63, 100
1, 23181, Note_off_c, 0, 63, 100
1, 23181, Note_on_c, 0, 65, 100
1, 23229, Note_off_c, 0, 65, 100
1, 23229, Note_on_c, 0, 67, 100
1, 23325, Note_off_c, 0, 67, 100
1, 23325, Note_on_c, 0, 70, 100
1, 23469, Note_off_c, 0, 70, 100
1, 23469, Note_on_c, 0, 65, 100
1, 23565, Note_off_c, 0, 65, 100
1, 23565, Note_on_c, 0, 61, 100
1, 23613, Note_off_c, 0, 61, 100
1, 23613, Note_on_c, 0, 56, 100
1, 23805, Note_off_c, 0, 56, 100
1, 23805, Note_on_c, 0, 54, 100
1, 23853, Note_off_c, 0, 54, 100
1, 23853, Note_on_c, 0, 56, 100
1, 23949, Note_off_c, 0, 56, 100
1, 23949, Note_on_c, 0, 59, 100
1, 23997, Note_off_c, 0, 59, 100
1, 23997, Note_on_c, 0, 58, 100
1, 24093, Note_off_c, 0, 58, 100
1, 24093, Note_on_c, 0, 63, 100
1, 24381, Note_off_c, 0, 63, 100
1, 24381, Note_on_c, 0, 62, 100
1, 24477, Note_off_c, 0, 62, 100
1, 24477, Note_on_c, 0, 61, 100
1, 24573, Note_off_c, 0, 61, 100
1, 24573, Note_on_c, 0, 60, 100
1, 24669, Note_off_c, 0, 60, 100
1, 24669, Note_on_c, 0, 59, 100
1, 24765, Note_off_c, 0, 59, 100
1, 24765, Note_on_c, 0, 58, 100
1, 24861, Note_off_c, 0, 58, 100
1, 24861, Note_on_c, 0, 60, 100
1, 24957, Note_off_c, 0, 60, 100
1, 24957, Note_on_c, 0, 57, 100
1, 25053, Note_off_c, 0, 57, 100
1, 25053, Note_on_c, 0, 54, 100
1, 25149, Note_off_c, 0, 54, 100
1, 25149, Note_on_c, 0, 55, 100
1, 25293, Note_off_c, 0, 55, 100
1, 25293, Note_on_c, 0, 60, 100
1, 25405, Note_off_c, 0, 60, 100
1, 25405, Note_on_c, 0, 57, 100
1, 25469, Note_off_c, 0, 57, 100
1, 25469, Note_on_c, 0, 58, 100
1, 25581, Note_off_c, 0, 58, 100
1, 25581, Note_on_c, 0, 62, 100
1, 25725, Note_off_c, 0, 62, 100
1, 25725, Note_on_c, 0, 65, 100
1, 25773, Note_off_c, 0, 65, 100
1, 25773, Note_on_c, 0, 69, 100
1, 25869, Note_off_c, 0, 69, 100
1, 25869, Note_on_c, 0, 66, 100
1, 25917, Note_off_c, 0, 66, 100
1, 25917, Note_on_c, 0, 67, 100
1, 26013, Note_off_c, 0, 67, 100
1, 26013, Note_on_c, 0, 69, 100
1, 26109, Note_off_c, 0, 69, 100
1, 26109, Note_on_c, 0, 70, 100
1, 26173, Note_off_c, 0, 70, 100
1, 26173, Note_on_c, 0, 69, 100
1, 26237, Note_off_c, 0, 69, 100
1, 26237, Note_on_c, 0, 62, 100
1, 26301, Note_off_c, 0, 62, 100
1, 26301, Note_on_c, 0, 63, 100
1, 26493, Note_off_c, 0, 63, 100
1, 26493, Note_on_c, 0, 69, 100
1, 26685, Note_off_c, 0, 69, 100
1, 26685, Note_on_c, 0, 67, 100
1, 26781, Note_off_c, 0, 67, 100
1, 26781, Note_on_c, 0, 65, 100
1, 26877, Note_off_c, 0, 65, 100
1, 26877, Note_on_c, 0, 64, 100
1, 27165, Note_off_c, 0, 64, 100
1, 27165, Note_on_c, 0, 62, 100
1, 27453, Note_off_c, 0, 62, 100
1, 27453, Note_on_c, 0, 60, 100
1, 27549, Note_off_c, 0, 60, 100
1, 27549, Note_on_c, 0, 58, 100
1, 27645, Note_off_c, 0, 58, 100
1, 27645, Note_on_c, 0, 57, 100
1, 27933, Note_off_c, 0, 57, 100
1, 27933, Note_on_c, 0, 57, 100
1, 28269, Note_off_c, 0, 57, 100
1, 28269, Note_on_c, 0, 58, 100
1, 28317, Note_off_c, 0, 58, 100
1, 28317, Note_on_c, 0, 60, 100
1, 28365, Note_off_c, 0, 60, 100
1, 28365, Note_on_c, 0, 62, 100
1, 28413, Note_off_c, 0, 62, 100
1, 28413, Note_on_c, 0, 64, 100
1, 28461, Note_off_c, 0, 64, 100
1, 28461, Note_on_c, 0, 65, 100
1, 28509, Note_off_c, 0, 65, 100
1, 28509, Note_on_c, 0, 69, 100
1, 28557, Note_off_c, 0, 69, 100
1, 28557, Note_on_c, 0, 67, 100
1, 28605, Note_off_c, 0, 67, 100
1, 28605, Note_on_c, 0, 66, 100
1, 28653, Note_off_c, 0, 66, 100
1, 28653, Note_on_c, 0, 64, 100
1, 28701, Note_off_c, 0, 64, 100
1, 28701, Note_on_c, 0, 62, 100
1, 28749, Note_off_c, 0, 62, 100
1, 28749, Note_on_c, 0, 60, 100
1, 28797, Note_off_c, 0, 60, 100
1, 28797, Note_on_c, 0, 58, 100
1, 28893, Note_off_c, 0, 58, 100
1, 28893, Note_on_c, 0, 57, 100
1, 28989, Note_off_c, 0, 57, 100
1, 29949, Note_on_c, 0, 46, 100
1, 30045, Note_off_c, 0, 46, 100
1, 30045, Note_on_c, 0, 48, 100
1, 30141, Note_off_c, 0, 48, 100
1, 30141, Note_on_c, 0, 53, 100
1, 30237, Note_off_c, 0, 53, 100
1, 30237, Note_on_c, 0, 60, 100
1, 30333, Note_off_c, 0, 60, 100
1, 30333, Note_on_c, 0, 61, 100
1, 30429, Note_off_c, 0, 61, 100
1, 30429, Note_on_c, 0, 63, 100
1, 30525, Note_off_c, 0, 63, 100
1, 30525, Note_on_c, 0, 65, 100
1, 30621, Note_off_c, 0, 65, 100
1, 30621, Note_on_c, 0, 67, 100
1, 30717, Note_off_c, 0, 67, 100
1, 30717, Note_on_c, 0, 68, 100
1, 30813, Note_off_c, 0, 68, 100
1, 30813, Note_on_c, 0, 70, 100
1, 30909, Note_off_c, 0, 70, 100
1, 30909, Note_on_c, 0, 72, 100
1, 31005, Note_off_c, 0, 72, 100
1, 31005, Note_on_c, 0, 73, 100
1, 31101, Note_off_c, 0, 73, 100
1, 31101, Note_on_c, 0, 75, 100
1, 31197, Note_off_c, 0, 75, 100
1, 31197, Note_on_c, 0, 72, 100
1, 31293, Note_off_c, 0, 72, 100
1, 31293, Note_on_c, 0, 73, 100
1, 31389, Note_off_c, 0, 73, 100
1, 31389, Note_on_c, 0, 73, 100
1, 31549, Note_off_c, 0, 73, 100
1, 31549, Note_on_c, 0, 72, 100
1, 31613, Note_off_c, 0, 72, 100
1, 31613, Note_on_c, 0, 70, 100
1, 31677, Note_off_c, 0, 70, 100
1, 31677, Note_on_c, 0, 69, 100
1, 31773, Note_off_c, 0, 69, 100
1, 31773, Note_on_c, 0, 72, 100
1, 31869, Note_off_c, 0, 72, 100
1, 31869, Note_on_c, 0, 70, 100
1, 31965, Note_off_c, 0, 70, 100
1, 31965, Note_on_c, 0, 68, 100
1, 32061, Note_off_c, 0, 68, 100
1, 32061, Note_on_c, 0, 67, 100
1, 32157, Note_off_c, 0, 67, 100
1, 32157, Note_on_c, 0, 67, 100
1, 32253, Note_off_c, 0, 67, 100
1, 32253, Note_on_c, 0, 66, 100
1, 32349, Note_off_c, 0, 66, 100
1, 32349, Note_on_c, 0, 66, 100
1, 32445, Note_off_c, 0, 66, 100
1, 32445, Note_on_c, 0, 65, 100
1, 32541, Note_off_c, 0, 65, 100
1, 32541, Note_on_c, 0, 65, 100
1, 32589, Note_off_c, 0, 65, 100
1, 32589, Note_on_c, 0, 64, 100
1, 32637, Note_off_c, 0, 64, 100
1, 32637, Note_on_c, 0, 63, 100
1, 32701, Note_off_c, 0, 63, 100
1, 32701, Note_on_c, 0, 62, 100
1, 32765, Note_off_c, 0, 62, 100
1, 32765, Note_on_c, 0, 62, 100
1, 32829, Note_off_c, 0, 62, 100
1, 32829, Note_on_c, 0, 61, 100
1, 32925, Note_off_c, 0, 61, 100
1, 32925, Note_on_c, 0, 60, 100
1, 33021, Note_off_c, 0, 60, 100
1, 33021, Note_on_c, 0, 59, 100
1, 33117, Note_off_c, 0, 59, 100
1, 33117, Note_on_c, 0, 57, 100
1, 33213, Note_off_c, 0, 57, 100
1, 33213, Note_on_c, 0, 58, 100
1, 33309, Note_off_c, 0, 58, 100
1, 33309, Note_on_c, 0, 56, 100
1, 33405, Note_off_c, 0, 56, 100
1, 33405, Note_on_c, 0, 57, 100
1, 33501, Note_off_c, 0, 57, 100
1, 33501, Note_on_c, 0, 55, 100
1, 33597, Note_off_c, 0, 55, 100
1, 33597, Note_on_c, 0, 54, 100
1, 33741, Note_off_c, 0, 54, 100
1, 33741, Note_on_c, 0, 55, 100
1, 33837, Note_off_c, 0, 55, 100
1, 33837, Note_on_c, 0, 57, 100
1, 33933, Note_off_c, 0, 57, 100
1, 33933, Note_on_c, 0, 58, 100
1, 34173, Note_off_c, 0, 58, 100
1, 34173, Note_on_c, 0, 60, 100
1, 34221, Note_off_c, 0, 60, 100
1, 34221, Note_on_c, 0, 62, 100
1, 34317, Note_off_c, 0, 62, 100
1, 34317, Note_on_c, 0, 64, 100
1, 34557, Note_off_c, 0, 64, 100
1, 34557, Note_on_c, 0, 66, 100
1, 34653, Note_off_c, 0, 66, 100
1, 34653, Note_on_c, 0, 67, 100
1, 34749, Note_off_c, 0, 67, 100
1, 34749, Note_on_c, 0, 69, 100
1, 34941, Note_off_c, 0, 69, 100
1, 34941, Note_on_c, 0, 70, 100
1, 35037, Note_off_c, 0, 70, 100
1, 35037, Note_on_c, 0, 72, 100
1, 35229, Note_off_c, 0, 72, 100
1, 35229, Note_on_c, 0, 69, 100
1, 35325, Note_off_c, 0, 69, 100
1, 35325, Note_on_c, 0, 68, 100
1, 35421, Note_off_c, 0, 68, 100
1, 35421, Note_on_c, 0, 67, 100
1, 35517, Note_off_c, 0, 67, 100
1, 35517, Note_on_c, 0, 62, 100
1, 35613, Note_off_c, 0, 62, 100
1, 35613, Note_on_c, 0, 60, 100
1, 35709, Note_off_c, 0, 60, 100
1, 36477, Note_on_c, 0, 67, 100
1, 36541, Note_off_c, 0, 67, 100
1, 36541, Note_on_c, 0, 68, 100
1, 36605, Note_off_c, 0, 68, 100
1, 36605, Note_on_c, 0, 69, 100
1, 37677, Note_off_c, 0, 69, 100
1, 37677, Note_on_c, 0, 73, 100
1, 37821, Note_off_c, 0, 73, 100
1, 37821, Note_on_c, 0, 66, 100
1, 37869, Note_off_c, 0, 66, 100
1, 37869, Note_on_c, 0, 69, 100
1, 37965, Note_off_c, 0, 69, 100
1, 37965, Note_on_c, 0, 72, 100
1, 38077, Note_off_c, 0, 72, 100
1, 38077, Note_on_c, 0, 70, 100
1, 38301, Note_off_c, 0, 70, 100
1, 38301, Note_on_c, 0, 73, 100
1, 38397, Note_off_c, 0, 73, 100
1, 38397, Note_on_c, 0, 72, 100
1, 38589, Note_off_c, 0, 72, 100
1, 38589, Note_on_c, 0, 65, 100
1, 38637, Note_off_c, 0, 65, 100
1, 38637, Note_on_c, 0, 71, 100
1, 38781, Note_off_c, 0, 71, 100
1, 38781, Note_on_c, 0, 70, 100
1, 38973, Note_off_c, 0, 70, 100
1, 38973, Note_on_c, 0, 65, 100
1, 39117, Note_off_c, 0, 65, 100
1, 39117, Note_on_c, 0, 70, 100
1, 39229, Note_off_c, 0, 70, 100
1, 39229, Note_on_c, 0, 69, 100
1, 39357, Note_off_c, 0, 69, 100
1, 39357, Note_on_c, 0, 69, 100
1, 39549, Note_off_c, 0, 69, 100
1, 39549, Note_on_c, 0, 72, 100
1, 39645, Note_off_c, 0, 72, 100
1, 39645, Note_on_c, 0, 67, 100
1, 39741, Note_off_c, 0, 67, 100
1, 39741, Note_on_c, 0, 68, 100
1, 39837, Note_off_c, 0, 68, 100
1, 39837, Note_on_c, 0, 67, 100
1, 39885, Note_off_c, 0, 67, 100
1, 39885, Note_on_c, 0, 66, 100
1, 39933, Note_off_c, 0, 66, 100
1, 39933, Note_on_c, 0, 71, 100
1, 39981, Note_off_c, 0, 71, 100
1, 39981, Note_on_c, 0, 69, 100
1, 40077, Note_off_c, 0, 69, 100
1, 40077, Note_on_c, 0, 66, 100
1, 40221, Note_off_c, 0, 66, 100
1, 40221, Note_on_c, 0, 64, 100
1, 40317, Note_off_c, 0, 64, 100
1, 40317, Note_on_c, 0, 63, 100
1, 40509, Note_off_c, 0, 63, 100
1, 40509, Note_on_c, 0, 69, 100
1, 40605, Note_off_c, 0, 69, 100
1, 40605, Note_on_c, 0, 71, 100
1, 40701, Note_off_c, 0, 71, 100
1, 40701, Note_on_c, 0, 70, 100
1, 40797, Note_off_c, 0, 70, 100
1, 40797, Note_on_c, 0, 62, 100
1, 40893, Note_off_c, 0, 62, 100
1, 40893, Note_on_c, 0, 61, 100
1, 40989, Note_off_c, 0, 61, 100
1, 40989, Note_on_c, 0, 68, 100
1, 41085, Note_off_c, 0, 68, 100
1, 41085, Note_on_c, 0, 63, 100
1, 41181, Note_off_c, 0, 63, 100
1, 41181, Note_on_c, 0, 61, 100
1, 41277, Note_off_c, 0, 61, 100
1, 41277, Note_on_c, 0, 56, 100
1, 41469, Note_off_c, 0, 56, 100
1, 41469, Note_on_c, 0, 58, 100
1, 41661, Note_off_c, 0, 58, 100
1, 41661, Note_on_c, 0, 56, 100
1, 41757, Note_off_c, 0, 56, 100
1, 41757, Note_on_c, 0, 58, 100
1, 41853, Note_off_c, 0, 58, 100
1, 41853, Note_on_c, 0, 59, 100
1, 41949, Note_off_c, 0, 59, 100
1, 41949, Note_on_c, 0, 61, 100
1, 42045, Note_off_c, 0, 61, 100
1, 42045, Note_on_c, 0, 63, 100
1, 42141, Note_off_c, 0, 63, 100
1, 42141, Note_on_c, 0, 65, 100
1, 42285, Note_off_c, 0, 65, 100
1, 42285, Note_on_c, 0, 66, 100
1, 42381, Note_off_c, 0, 66, 100
1, 42381, Note_on_c, 0, 70, 100
1, 42429, Note_off_c, 0, 70, 100
1, 42429, Note_on_c, 0, 75, 100
1, 42685, Note_off_c, 0, 75, 100
1, 42685, Note_on_c, 0, 68, 100
1, 42813, Note_off_c, 0, 68, 100
1, 42813, Note_on_c, 0, 73, 100
1, 42909, Note_off_c, 0, 73, 100
1, 43725, Note_on_c, 0, 73, 100
1, 43773, Note_off_c, 0, 73, 100
1, 43773, Note_on_c, 0, 74, 100
1, 44029, Note_off_c, 0, 74, 100
1, 44029, Note_on_c, 0, 72, 100
1, 44093, Note_off_c, 0, 72, 100
1, 44093, Note_on_c, 0, 70, 100
1, 44157, Note_off_c, 0, 70, 100
1, 44157, Note_on_c, 0, 69, 100
1, 44973, Note_off_c, 0, 69, 100
1, 44973, Note_on_c, 0, 67, 100
1, 45069, Note_off_c, 0, 67, 100
1, 45069, Note_on_c, 0, 67, 100
1, 45117, Note_off_c, 0, 67, 100
1, 45117, Note_on_c, 0, 69, 100
1, 45245, Note_off_c, 0, 69, 100
1, 45245, Note_on_c, 0, 69, 100
1, 45309, Note_off_c, 0, 69, 100
1, 45309, Note_on_c, 0, 70, 100
1, 45405, Note_off_c, 0, 70, 100
1, 45405, Note_on_c, 0, 70, 100
1, 45501, Note_off_c, 0, 70, 100
1, 45501, Note_on_c, 0, 72, 100
1, 45629, Note_off_c, 0, 72, 100
1, 45629, Note_on_c, 0, 72, 100
1, 45741, Note_off_c, 0, 72, 100
1, 45741, Note_on_c, 0, 72, 100
1, 45837, Note_off_c, 0, 72, 100
1, 45837, Note_on_c, 0, 71, 100
1, 45885, Note_off_c, 0, 71, 100
1, 45885, Note_on_c, 0, 71, 100
1, 45981, Note_off_c, 0, 71, 100
1, 45981, Note_on_c, 0, 72, 100
1, 46077, Note_off_c, 0, 72, 100
1, 46077, Note_on_c, 0, 71, 100
1, 46173, Note_off_c, 0, 71, 100
1, 46173, Note_on_c, 0, 71, 100
1, 46269, Note_off_c, 0, 71, 100
1, 46269, Note_on_c, 0, 70, 100
1, 46365, Note_off_c, 0, 70, 100
1, 46365, Note_on_c, 0, 71, 100
1, 46461, Note_off_c, 0, 71, 100
1, 46461, Note_on_c, 0, 70, 100
1, 46557, Note_off_c, 0, 70, 100
1, 46557, Note_on_c, 0, 70, 100
1, 46653, Note_off_c, 0, 70, 100
1, 46653, Note_on_c, 0, 72, 100
1, 46749, Note_off_c, 0, 72, 100
1, 46749, Note_on_c, 0, 70, 100
1, 46845, Note_off_c, 0, 70, 100
1, 46845, Note_on_c, 0, 69, 100
1, 46941, Note_off_c, 0, 69, 100
1, 46941, Note_on_c, 0, 68, 100
1, 47037, Note_off_c, 0, 68, 100
1, 47037, Note_on_c, 0, 67, 100
1, 47133, Note_off_c, 0, 67, 100
1, 47133, Note_on_c, 0, 71, 100
1, 47229, Note_off_c, 0, 71, 100
1, 47229, Note_on_c, 0, 70, 100
1, 47325, Note_off_c, 0, 70, 100
1, 47325, Note_on_c, 0, 66, 100
1, 47421, Note_off_c, 0, 66, 100
1, 47421, Note_on_c, 0, 65, 100
1, 47517, Note_off_c, 0, 65, 100
1, 47517, Note_on_c, 0, 64, 100
1, 47565, Note_off_c, 0, 64, 100
1, 47565, Note_on_c, 0, 63, 100
1, 47709, Note_off_c, 0, 63, 100
1, 47709, Note_on_c, 0, 66, 100
1, 47805, Note_off_c, 0, 66, 100
1, 47805, Note_on_c, 0, 69, 100
1, 47901, Note_off_c, 0, 69, 100
1, 47901, Note_on_c, 0, 71, 100
1, 47997, Note_off_c, 0, 71, 100
1, 47997, Note_on_c, 0, 70, 100
1, 48093, Note_off_c, 0, 70, 100
1, 48093, Note_on_c, 0, 69, 100
1, 48189, Note_off_c, 0, 69, 100
1, 48189, Note_on_c, 0, 68, 100
1, 48285, Note_off_c, 0, 68, 100
1, 48285, Note_on_c, 0, 67, 100
1, 48381, Note_off_c, 0, 67, 100
1, 48381, Note_on_c, 0, 62, 100
1, 48477, Note_off_c, 0, 62, 100
1, 48477, Note_on_c, 0, 60, 100
1, 48573, Note_off_c, 0, 60, 100
1, 48573, Note_on_c, 0, 57, 100
1, 48669, Note_off_c, 0, 57, 100
1, 48669, Note_on_c, 0, 53, 100
1, 48765, Note_off_c, 0, 53, 100
1, 48765, Note_on_c, 0, 55, 100
1, 48861, Note_off_c, 0, 55, 100
1, 48861, Note_on_c, 0, 50, 100
1, 48957, Note_off_c, 0, 50, 100
1, 48957, Note_on_c, 0, 48, 100
1, 49085, Note_off_c, 0, 48, 100
1, 49085, Note_on_c, 0, 53, 100
1, 49149, Note_off_c, 0, 53, 100
1, 49149, Note_on_c, 0, 46, 100
1, 49341, Note_off_c, 0, 46, 100
1, 49341, Note_on_c, 0, 51, 100
1, 49437, Note_off_c, 0, 51, 100
1, 49437, Note_on_c, 0, 44, 100
1, 49629, Note_off_c, 0, 44, 100
1, 50445, Note_on_c, 0, 46, 100
1, 50557, Note_off_c, 0, 46, 100
1, 50557, Note_on_c, 0, 51, 100
1, 50685, Note_off_c, 0, 51, 100
1, 50685, Note_on_c, 0, 54, 100
1, 50733, Note_off_c, 0, 54, 100
1, 50733, Note_on_c, 0, 58, 100
1, 50829, Note_off_c, 0, 58, 100
1, 50829, Note_on_c, 0, 60, 100
1, 50925, Note_off_c, 0, 60, 100
1, 50925, Note_on_c, 0, 63, 100
1, 51021, Note_off_c, 0, 63, 100
1, 51021, Note_on_c, 0, 65, 100
1, 51069, Note_off_c, 0, 65, 100
1, 51069, Note_on_c, 0, 66, 100
1, 51165, Note_off_c, 0, 66, 100
1, 51165, Note_on_c, 0, 68, 100
1, 51261, Note_off_c, 0, 68, 100
1, 51261, Note_on_c, 0, 70, 100
1, 51357, Note_off_c, 0, 70, 100
1, 51357, Note_on_c, 0, 72, 100
1, 51453, Note_off_c, 0, 72, 100
1, 51453, Note_on_c, 0, 73, 100
1, 51549, Note_off_c, 0, 73, 100
1, 51549, Note_on_c, 0, 74, 100
1, 51645, Note_off_c, 0, 74, 100
1, 51645, Note_on_c, 0, 72, 100
1, 51741, Note_off_c, 0, 72, 100
1, 51741, Note_on_c, 0, 73, 100
1, 51837, Note_off_c, 0, 73, 100
1, 51837, Note_on_c, 0, 70, 100
1, 51933, Note_off_c, 0, 70, 100
1, 51933, Note_on_c, 0, 66, 100
1, 52029, Note_off_c, 0, 66, 100
1, 52029, Note_on_c, 0, 65, 100
1, 52125, Note_off_c, 0, 65, 100
1, 52125, Note_on_c, 0, 64, 100
1, 52221, Note_off_c, 0, 64, 100
1, 52221, Note_on_c, 0, 63, 100
1, 52317, Note_off_c, 0, 63, 100
1, 52317, Note_on_c, 0, 61, 100
1, 52413, Note_off_c, 0, 61, 100
1, 52413, Note_on_c, 0, 62, 100
1, 52509, Note_off_c, 0, 62, 100
1, 52509, Note_on_c, 0, 60, 100
1, 52605, Note_off_c, 0, 60, 100
1, 52605, Note_on_c, 0, 58, 100
1, 52701, Note_off_c, 0, 58, 100
1, 52701, Note_on_c, 0, 60, 100
1, 52797, Note_off_c, 0, 60, 100
1, 52797, Note_on_c, 0, 62, 100
1, 52925, Note_off_c, 0, 62, 100
1, 52925, Note_on_c, 0, 67, 100
1, 52989, Note_off_c, 0, 67, 100
1, 52989, Note_on_c, 0, 68, 100
1, 53085, Note_off_c, 0, 68, 100
1, 53085, Note_on_c, 0, 69, 100
1, 53181, Note_off_c, 0, 69, 100
1, 53181, Note_on_c, 0, 70, 100
1, 53277, Note_off_c, 0, 70, 100
1, 53277, Note_on_c, 0, 68, 100
1, 53373, Note_off_c, 0, 68, 100
1, 53373, Note_on_c, 0, 69, 100
1, 53469, Note_off_c, 0, 69, 100
1, 53469, Note_on_c, 0, 67, 100
1, 53565, Note_off_c, 0, 67, 100
1, 53565, Note_on_c, 0, 66, 100
1, 53661, Note_off_c, 0, 66, 100
1, 53661, Note_on_c, 0, 69, 100
1, 53757, Note_off_c, 0, 69, 100
1, 53757, Note_on_c, 0, 67, 100
1, 53853, Note_off_c, 0, 67, 100
1, 53853, Note_on_c, 0, 65, 100
1, 53949, Note_off_c, 0, 65, 100
1, 53949, Note_on_c, 0, 64, 100
1, 54045, Note_off_c, 0, 64, 100
1, 54045, Note_on_c, 0, 68, 100
1, 54141, Note_off_c, 0, 68, 100
1, 54141, Note_on_c, 0, 66, 100
1, 54237, Note_off_c, 0, 66, 100
1, 54237, Note_on_c, 0, 64, 100
1, 54333, Note_off_c, 0, 64, 100
1, 54333, Note_on_c, 0, 63, 100
1, 54429, Note_off_c, 0, 63, 100
1, 54429, Note_on_c, 0, 67, 100
1, 54525, Note_off_c, 0, 67, 100
1, 54525, Note_on_c, 0, 65, 100
1, 54621, Note_off_c, 0, 65, 100
1, 54621, Note_on_c, 0, 63, 100
1, 54717, Note_off_c, 0, 63, 100
1, 54717, Note_on_c, 0, 62, 100
1, 54813, Note_off_c, 0, 62, 100
1, 54813, Note_on_c, 0, 66, 100
1, 54909, Note_off_c, 0, 66, 100
1, 54909, Note_on_c, 0, 64, 100
1, 55005, Note_off_c, 0, 64, 100
1, 55005, Note_on_c, 0, 62, 100
1, 55101, Note_off_c, 0, 62, 100
1, 55101, Note_on_c, 0, 61, 100
1, 55197, Note_off_c, 0, 61, 100
1, 55197, Note_on_c, 0, 65, 100
1, 55293, Note_off_c, 0, 65, 100
1, 55293, Note_on_c, 0, 64, 100
1, 55581, Note_off_c, 0, 64, 100
1, 55581, Note_on_c, 0, 62, 100
1, 55629, Note_off_c, 0, 62, 100
1, 55629, Note_on_c, 0, 60, 100
1, 55677, Note_off_c, 0, 60, 100
1, 55677, Note_on_c, 0, 58, 100
1, 55933, Note_off_c, 0, 58, 100
1, 55933, Note_on_c, 0, 60, 100
1, 55997, Note_off_c, 0, 60, 100
1, 55997, Note_on_c, 0, 62, 100
1, 56061, Note_off_c, 0, 62, 100
1, 56061, Note_on_c, 0, 64, 100
1, 56125, Note_off_c, 0, 64, 100
1, 56125, Note_on_c, 0, 62, 100
1, 56189, Note_off_c, 0, 62, 100
1, 56189, Note_on_c, 0, 60, 100
1, 56253, Note_off_c, 0, 60, 100
1, 56253, Note_on_c, 0, 58, 100
1, 56349, Note_off_c, 0, 58, 100
1, 56349, Note_on_c, 0, 60, 100
1, 56445, Note_off_c, 0, 60, 100
1, 56445, Note_on_c, 0, 62, 100
1, 56493, Note_off_c, 0, 62, 100
1, 56493, Note_on_c, 0, 64, 100
1, 56541, Note_off_c, 0, 64, 100
1, 56541, Note_on_c, 0, 66, 100
1, 56637, Note_off_c, 0, 66, 100
1, 56637, Note_on_c, 0, 67, 100
1, 56675, Note_off_c, 0, 67, 100
1, 56675, Note_on_c, 0, 69, 100
1, 56751, Note_off_c, 0, 69, 100
1, 56751, Note_on_c, 0, 70, 100
1, 56789, Note_off_c, 0, 70, 100
1, 56789, Note_on_c, 0, 72, 100
1, 57845, Note_off_c, 0, 72, 100
1, 58267, Note_on_c, 0, 62, 100
1, 58363, Note_off_c, 0, 62, 100
1, 58363, Note_on_c, 0, 67, 100
1, 58459, Note_off_c, 0, 67, 100
1, 58459, Note_on_c, 0, 72, 100
1, 58555, Note_off_c, 0, 72, 100
1, 58555, Note_on_c, 0, 69, 100
1, 58699, Note_off_c, 0, 69, 100
1, 58699, Note_on_c, 0, 64, 100
1, 58747, Note_off_c, 0, 64, 100
1, 58747, Note_on_c, 0, 67, 100
1, 58875, Note_off_c, 0, 67, 100
1, 58875, Note_on_c, 0, 62, 100
1, 58987, Note_off_c, 0, 62, 100
1, 58987, Note_on_c, 0, 60, 100
1, 59083, Note_off_c, 0, 60, 100
1, 59083, Note_on_c, 0, 67, 100
1, 59179, Note_off_c, 0, 67, 100
1, 59179, Note_on_c, 0, 63, 100
1, 59275, Note_off_c, 0, 63, 100
1, 59275, Note_on_c, 0, 61, 100
1, 59387, Note_off_c, 0, 61, 100
1, 59387, Note_on_c, 0, 56, 100
1, 59515, Note_off_c, 0, 56, 100
1, 59515, Note_on_c, 0, 53, 100
1, 59563, Note_off_c, 0, 53, 100
1, 59563, Note_on_c, 0, 58, 100
1, 59659, Note_off_c, 0, 58, 100
1, 59659, Note_on_c, 0, 55, 100
1, 59707, Note_off_c, 0, 55, 100
1, 59707, Note_on_c, 0, 56, 100
1, 59803, Note_off_c, 0, 56, 100
1, 59803, Note_on_c, 0, 58, 100
1, 59899, Note_off_c, 0, 58, 100
1, 59899, Note_on_c, 0, 59, 100
1, 59995, Note_off_c, 0, 59, 100
1, 59995, Note_on_c, 0, 61, 100
1, 60091, Note_off_c, 0, 61, 100
1, 60091, Note_on_c, 0, 63, 100
1, 60187, Note_off_c, 0, 63, 100
1, 60187, Note_on_c, 0, 70, 100
1, 60283, Note_off_c, 0, 70, 100
1, 60283, Note_on_c, 0, 73, 100
1, 60379, Note_off_c, 0, 73, 100
1, 60379, Note_on_c, 0, 72, 100
1, 60475, Note_off_c, 0, 72, 100
1, 60475, Note_on_c, 0, 71, 100
1, 60571, Note_off_c, 0, 71, 100
1, 60571, Note_on_c, 0, 70, 100
1, 60667, Note_off_c, 0, 70, 100
1, 60667, Note_on_c, 0, 68, 100
1, 60811, Note_off_c, 0, 68, 100
1, 60811, Note_on_c, 0, 70, 100
1, 60859, Note_off_c, 0, 70, 100
1, 60859, Note_on_c, 0, 71, 100
1, 60955, Note_off_c, 0, 71, 100
1, 60955, Note_on_c, 0, 73, 100
1, 61051, Note_off_c, 0, 73, 100
1, 61051, Note_on_c, 0, 70, 100
1, 61147, Note_off_c, 0, 70, 100
1, 61147, Note_on_c, 0, 69, 100
1, 61243, Note_off_c, 0, 69, 100
1, 61243, Note_on_c, 0, 68, 100
1, 61339, Note_off_c, 0, 68, 100
1, 61339, Note_on_c, 0, 66, 100
1, 61435, Note_off_c, 0, 66, 100
1, 61435, Note_on_c, 0, 67, 100
1, 61531, Note_off_c, 0, 67, 100
1, 61531, Note_on_c, 0, 69, 100
1, 61675, Note_off_c, 0, 69, 100
1, 61675, Note_on_c, 0, 70, 100
1, 61771, Note_off_c, 0, 70, 100
1, 61771, Note_on_c, 0, 72, 100
1, 61819, Note_off_c, 0, 72, 100
1, 61819, Note_on_c, 0, 73, 100
1, 61915, Note_off_c, 0, 73, 100
1, 61915, Note_on_c, 0, 74, 100
1, 62059, Note_off_c, 0, 74, 100
1, 62059, Note_on_c, 0, 70, 100
1, 62203, Note_off_c, 0, 70, 100
1, 62203, Note_on_c, 0, 67, 100
1, 62251, Note_off_c, 0, 67, 100
1, 62251, Note_on_c, 0, 71, 100
1, 62347, Note_off_c, 0, 71, 100
1, 62347, Note_on_c, 0, 72, 100
1, 62443, Note_off_c, 0, 72, 100
1, 62443, Note_on_c, 0, 69, 100
1, 62587, Note_off_c, 0, 69, 100
1, 62587, Note_on_c, 0, 65, 100
1, 62635, Note_off_c, 0, 65, 100
1, 62635, Note_on_c, 0, 69, 100
1, 62731, Note_off_c, 0, 69, 100
1, 62731, Note_on_c, 0, 70, 100
1, 62827, Note_off_c, 0, 70, 100
1, 62827, Note_on_c, 0, 67, 100
1, 62923, Note_off_c, 0, 67, 100
1, 62923, Note_on_c, 0, 62, 100
1, 63019, Note_off_c, 0, 62, 100
1, 63019, Note_on_c, 0, 68, 100
1, 63115, Note_off_c, 0, 68, 100
1, 63115, Note_on_c, 0, 69, 100
1, 63211, Note_off_c, 0, 69, 100
1, 63211, Note_on_c, 0, 65, 100
1, 63307, Note_off_c, 0, 65, 100
1, 63307, Note_on_c, 0, 62, 100
1, 63355, Note_off_c, 0, 62, 100
1, 63355, Note_on_c, 0, 68, 100
1, 63451, Note_off_c, 0, 68, 100
1, 63451, Note_on_c, 0, 69, 100
1, 63547, Note_off_c, 0, 69, 100
1, 63547, Note_on_c, 0, 65, 100
1, 63643, Note_off_c, 0, 65, 100
1, 63643, Note_on_c, 0, 62, 100
1, 63739, Note_off_c, 0, 62, 100
1, 63739, Note_on_c, 0, 66, 100
1, 63835, Note_off_c, 0, 66, 100
1, 63835, Note_on_c, 0, 67, 100
1, 63931, Note_off_c, 0, 67, 100
1, 63931, Note_on_c, 0, 64, 100
1, 64027, Note_off_c, 0, 64, 100
1, 64027, Note_on_c, 0, 63, 100
1, 64075, Note_off_c, 0, 63, 100
1, 64075, Note_on_c, 0, 60, 100
1, 64123, Note_off_c, 0, 60, 100
1, 64123, Note_on_c, 0, 65, 100
1, 64219, Note_off_c, 0, 65, 100
1, 64219, Note_on_c, 0, 66, 100
1, 64315, Note_off_c, 0, 66, 100
1, 64315, Note_on_c, 0, 63, 100
1, 64507, Note_off_c, 0, 63, 100
1, 64507, Note_on_c, 0, 64, 100
1, 64603, Note_off_c, 0, 64, 100
1, 64603, Note_on_c, 0, 65, 100
1, 64747, Note_off_c, 0, 65, 100
1, 64747, Note_on_c, 0, 62, 100
1, 64843, Note_off_c, 0, 62, 100
1, 64843, Note_on_c, 0, 56, 100
1, 64939, Note_off_c, 0, 56, 100
1, 64939, Note_on_c, 0, 63, 100
1, 65035, Note_off_c, 0, 63, 100
1, 65035, Note_on_c, 0, 64, 100
1, 65083, Note_off_c, 0, 64, 100
1, 65083, Note_on_c, 0, 61, 100
1, 65179, Note_off_c, 0, 61, 100
1, 65659, Note_on_c, 0, 61, 100
1, 65755, Note_off_c, 0, 61, 100
1, 65755, Note_on_c, 0, 62, 100
1, 65899, Note_off_c, 0, 62, 100
1, 65899, Note_on_c, 0, 58, 100
1, 65995, Note_off_c, 0, 58, 100
1, 65995, Note_on_c, 0, 55, 100
1, 66043, Note_off_c, 0, 55, 100
1, 66043, Note_on_c, 0, 60, 100
1, 66139, Note_off_c, 0, 60, 100
1, 66139, Note_on_c, 0, 57, 100
1, 66283, Note_off_c, 0, 57, 100
1, 66283, Note_on_c, 0, 55, 100
1, 66379, Note_off_c, 0, 55, 100
1, 66379, Note_on_c, 0, 53, 100
1, 66427, Note_off_c, 0, 53, 100
1, 66427, Note_on_c, 0, 55, 100
1, 66523, Note_off_c, 0, 55, 100
1, 66523, Note_on_c, 0, 54, 100
1, 66619, Note_off_c, 0, 54, 100
1, 66619, Note_on_c, 0, 55, 100
1, 66715, Note_off_c, 0, 55, 100
1, 66715, Note_on_c, 0, 60, 100
1, 66811, Note_off_c, 0, 60, 100
1, 66811, Note_on_c, 0, 57, 100
1, 66907, Note_off_c, 0, 57, 100
1, 66907, Note_on_c, 0, 58, 100
1, 67003, Note_off_c, 0, 58, 100
1, 67003, Note_on_c, 0, 62, 100
1, 67131, Note_off_c, 0, 62, 100
1, 67131, Note_on_c, 0, 65, 100
1, 67195, Note_off_c, 0, 65, 100
1, 67195, Note_on_c, 0, 68, 100
1, 67291, Note_off_c, 0, 68, 100
1, 67291, Note_on_c, 0, 70, 100
1, 67387, Note_off_c, 0, 70, 100
1, 67387, Note_on_c, 0, 72, 100
1, 67483, Note_off_c, 0, 72, 100
1, 67483, Note_on_c, 0, 73, 100
1, 67579, Note_off_c, 0, 73, 100
1, 67579, Note_on_c, 0, 75, 100
1, 67675, Note_off_c, 0, 75, 100
1, 67675, Note_on_c, 0, 72, 100
1, 67771, Note_off_c, 0, 72, 100
1, 67771, Note_on_c, 0, 68, 100
1, 67867, Note_off_c, 0, 68, 100
1, 67867, Note_on_c, 0, 65, 100
1, 67963, Note_off_c, 0, 65, 100
1, 67963, Note_on_c, 0, 67, 100
1, 68059, Note_off_c, 0, 67, 100
1, 68059, Note_on_c, 0, 67, 100
1, 68107, Note_off_c, 0, 67, 100
1, 68107, Note_on_c, 0, 61, 100
1, 68251, Note_off_c, 0, 61, 100
1, 68251, Note_on_c, 0, 58, 100
1, 68395, Note_off_c, 0, 58, 100
1, 68395, Note_on_c, 0, 65, 100
1, 68491, Note_off_c, 0, 65, 100
1, 68491, Note_on_c, 0, 61, 100
1, 68587, Note_off_c, 0, 61, 100
1, 68587, Note_on_c, 0, 56, 100
1, 68683, Note_off_c, 0, 56, 100
1, 68683, Note_on_c, 0, 53, 100
1, 68779, Note_off_c, 0, 53, 100
1, 68779, Note_on_c, 0, 55, 100
1, 68875, Note_off_c, 0, 55, 100
1, 69307, Note_on_c, 0, 51, 100
1, 69403, Note_off_c, 0, 51, 100
1, 69403, Note_on_c, 0, 53, 100
1, 69451, Note_off_c, 0, 53, 100
1, 69451, Note_on_c, 0, 54, 100
1, 69499, Note_off_c, 0, 54, 100
1, 69499, Note_on_c, 0, 56, 100
1, 69547, Note_off_c, 0, 56, 100
1, 69547, Note_on_c, 0, 58, 100
1, 69595, Note_off_c, 0, 58, 100
1, 69595, Note_on_c, 0, 60, 100
1, 69643, Note_off_c, 0, 60, 100
1, 69643, Note_on_c, 0, 61, 100
1, 69691, Note_off_c, 0, 61, 100
1, 69691, Note_on_c, 0, 63, 100
1, 69755, Note_off_c, 0, 63, 100
1, 69755, Note_on_c, 0, 65, 100
1, 69819, Note_off_c, 0, 65, 100
1, 69819, Note_on_c, 0, 66, 100
1, 69883, Note_off_c, 0, 66, 100
1, 69883, Note_on_c, 0, 68, 100
1, 69947, Note_off_c, 0, 68, 100
1, 69947, Note_on_c, 0, 70, 100
1, 70011, Note_off_c, 0, 70, 100
1, 70011, Note_on_c, 0, 72, 100
1, 70075, Note_off_c, 0, 72, 100
1, 70075, Note_on_c, 0, 72, 100
1, 70171, Note_off_c, 0, 72, 100
1, 70171, Note_on_c, 0, 68, 100
1, 70219, Note_off_c, 0, 68, 100
1, 70219, Note_on_c, 0, 70, 100
1, 70331, Note_off_c, 0, 70, 100
1, 70331, Note_on_c, 0, 72, 100
1, 70395, Note_off_c, 0, 72, 100
1, 70395, Note_on_c, 0, 72, 100
1, 70459, Note_off_c, 0, 72, 100
1, 70459, Note_on_c, 0, 68, 100
1, 70523, Note_off_c, 0, 68, 100
1, 70523, Note_on_c, 0, 70, 100
1, 70587, Note_off_c, 0, 70, 100
1, 70587, Note_on_c, 0, 72, 100
1, 70651, Note_off_c, 0, 72, 100
1, 70651, Note_on_c, 0, 72, 100
1, 70747, Note_off_c, 0, 72, 100
1, 70747, Note_on_c, 0, 69, 100
1, 70843, Note_off_c, 0, 69, 100
1, 70843, Note_on_c, 0, 70, 100
1, 70891, Note_off_c, 0, 70, 100
1, 70891, Note_on_c, 0, 72, 100
1, 70939, Note_off_c, 0, 72, 100
1, 70939, Note_on_c, 0, 72, 100
1, 71035, Note_off_c, 0, 72, 100
1, 71035, Note_on_c, 0, 69, 100
1, 71099, Note_off_c, 0, 69, 100
1, 71099, Note_on_c, 0, 70, 100
1, 71163, Note_off_c, 0, 70, 100
1, 71163, Note_on_c, 0, 72, 100
1, 71227, Note_off_c, 0, 72, 100
1, 71227, Note_on_c, 0, 72, 100
1, 71323, Note_off_c, 0, 72, 100
1, 71323, Note_on_c, 0, 69, 100
1, 71371, Note_off_c, 0, 69, 100
1, 71371, Note_on_c, 0, 70, 100
1, 71419, Note_off_c, 0, 70, 100
1, 71419, Note_on_c, 0, 72, 100
1, 71515, Note_off_c, 0, 72, 100
1, 71515, Note_on_c, 0, 72, 100
1, 71611, Note_off_c, 0, 72, 100
1, 71611, Note_on_c, 0, 69, 100
1, 71675, Note_off_c, 0, 69, 100
1, 71675, Note_on_c, 0, 70, 100
1, 71739, Note_off_c, 0, 70, 100
1, 71739, Note_on_c, 0, 72, 100
1, 71803, Note_off_c, 0, 72, 100
1, 71803, Note_on_c, 0, 72, 100
1, 71899, Note_off_c, 0, 72, 100
1, 71899, Note_on_c, 0, 69, 100
1, 71947, Note_off_c, 0, 69, 100
1, 71947, Note_on_c, 0, 70, 100
1, 72043, Note_off_c, 0, 70, 100
1, 72043, Note_on_c, 0, 72, 100
1, 72091, Note_off_c, 0, 72, 100
1, 72091, Note_on_c, 0, 72, 100
1, 72187, Note_off_c, 0, 72, 100
1, 72187, Note_on_c, 0, 70, 100
1, 72251, Note_off_c, 0, 70, 100
1, 72251, Note_on_c, 0, 71, 100
1, 72315, Note_off_c, 0, 71, 100
1, 72315, Note_on_c, 0, 72, 100
1, 72379, Note_off_c, 0, 72, 100
1, 72379, Note_on_c, 0, 72, 100
1, 72443, Note_off_c, 0, 72, 100
1, 72443, Note_on_c, 0, 69, 100
1, 72507, Note_off_c, 0, 69, 100
1, 72507, Note_on_c, 0, 70, 100
1, 72571, Note_off_c, 0, 70, 100
1, 72571, Note_on_c, 0, 73, 100
1, 72619, Note_off_c, 0, 73, 100
1, 72619, Note_on_c, 0, 72, 100
1, 72715, Note_off_c, 0, 72, 100
1, 72715, Note_on_c, 0, 69, 100
1, 72795, Note_off_c, 0, 69, 100
1, 72795, Note_on_c, 0, 70, 100
1, 72859, Note_off_c, 0, 70, 100
1, 72859, Note_on_c, 0, 72, 100
1, 72891, Note_off_c, 0, 72, 100
1, 72891, Note_on_c, 0, 73, 100
1, 72923, Note_off_c, 0, 73, 100
1, 72923, Note_on_c, 0, 72, 100
1, 73019, Note_off_c, 0, 72, 100
1, 73019, Note_on_c, 0, 69, 100
1, 73083, Note_off_c, 0, 69, 100
1, 73083, Note_on_c, 0, 70, 100
1, 73147, Note_off_c, 0, 70, 100
1, 73147, Note_on_c, 0, 72, 100
1, 73211, Note_off_c, 0, 72, 100
1, 73211, Note_on_c, 0, 72, 100
1, 73275, Note_off_c, 0, 72, 100
1, 73275, Note_on_c, 0, 69, 100
1, 73339, Note_off_c, 0, 69, 100
1, 73339, Note_on_c, 0, 70, 100
1, 73435, Note_off_c, 0, 70, 100
1, 73435, Note_on_c, 0, 72, 100
1, 73483, Note_off_c, 0, 72, 100
1, 73483, Note_on_c, 0, 72, 100
1, 73579, Note_off_c, 0, 72, 100
1, 73579, Note_on_c, 0, 69, 100
1, 73675, Note_off_c, 0, 69, 100
1, 73675, Note_on_c, 0, 72, 100
1, 74107, Note_off_c, 0, 72, 100
1, 74107, Note_on_c, 0, 74, 100
1, 74395, Note_off_c, 0, 74, 100
1, 74395, Note_on_c, 0, 72, 100
1, 74683, Note_off_c, 0, 72, 100
1, 74683, Note_on_c, 0, 67, 100
1, 74779, Note_off_c, 0, 67, 100
1, 74779, Note_on_c, 0, 62, 100
1, 74875, Note_off_c, 0, 62, 100
1, 74875, Note_on_c, 0, 59, 100
1, 74971, Note_off_c, 0, 59, 100
1, 74971, Note_on_c, 0, 60, 100
1, 75067, Note_off_c, 0, 60, 100
1, 75067, Note_on_c, 0, 65, 100
1, 75163, Note_off_c, 0, 65, 100
1, 75691, Note_on_c, 0, 70, 100
1, 75739, Note_off_c, 0, 70, 100
1, 75739, Note_on_c, 0, 72, 100
1, 76315, Note_off_c, 0, 72, 100
1, 76315, Note_on_c, 0, 72, 100
1, 76411, Note_off_c, 0, 72, 100
1, 76411, Note_on_c, 0, 69, 100
1, 76507, Note_off_c, 0, 69, 100
1, 76507, Note_on_c, 0, 65, 100
1, 76603, Note_off_c, 0, 65, 100
1, 76603, Note_on_c, 0, 72, 100
1, 76699, Note_off_c, 0, 72, 100
1, 76699, Note_on_c, 0, 72, 100
1, 76795, Note_off_c, 0, 72, 100
1, 76795, Note_on_c, 0, 71, 100
1, 76891, Note_off_c, 0, 71, 100
1, 76891, Note_on_c, 0, 71, 100
1, 76987, Note_off_c, 0, 71, 100
1, 76987, Note_on_c, 0, 70, 100
1, 77083, Note_off_c, 0, 70, 100
1, 77083, Note_on_c, 0, 70, 100
1, 77131, Note_off_c, 0, 70, 100
1, 77131, Note_on_c, 0, 69, 100
1, 77323, Note_off_c, 0, 69, 100
1, 77323, Note_on_c, 0, 69, 100
1, 77467, Note_off_c, 0, 69, 100
1, 77467, Note_on_c, 0, 72, 100
1, 77563, Note_off_c, 0, 72, 100
1, 77563, Note_on_c, 0, 67, 100
1, 77691, Note_off_c, 0, 67, 100
1, 77691, Note_on_c, 0, 67, 100
1, 77851, Note_off_c, 0, 67, 100
1, 77851, Note_on_c, 0, 70, 100
1, 77947, Note_off_c, 0, 70, 100
1, 77947, Note_on_c, 0, 69, 100
1, 78043, Note_off_c, 0, 69, 100
1, 78043, Note_on_c, 0, 68, 100
1, 78139, Note_off_c, 0, 68, 100
1, 78139, Note_on_c, 0, 67, 100
1, 78235, Note_off_c, 0, 67, 100
1, 78235, Note_on_c, 0, 71, 100
1, 78331, Note_off_c, 0, 71, 100
1, 78331, Note_on_c, 0, 70, 100
1, 78427, Note_off_c, 0, 70, 100
1, 78427, Note_on_c, 0, 66, 100
1, 78523, Note_off_c, 0, 66, 100
1, 78523, Note_on_c, 0, 65, 100
1, 78619, Note_off_c, 0, 65, 100
1, 78619, Note_on_c, 0, 64, 100
1, 78715, Note_off_c, 0, 64, 100
1, 78715, Note_on_c, 0, 63, 100
1, 78811, Note_off_c, 0, 63, 100
1, 78811, Note_on_c, 0, 65, 100
1, 78907, Note_off_c, 0, 65, 100
1, 78907, Note_on_c, 0, 71, 100
1, 79099, Note_off_c, 0, 71, 100
1, 79099, Note_on_c, 0, 75, 100
1, 79195, Note_off_c, 0, 75, 100
1, 79195, Note_on_c, 0, 76, 100
1, 79291, Note_off_c, 0, 76, 100
1, 79291, Note_on_c, 0, 77, 100
1, 79387, Note_off_c, 0, 77, 100
1, 79387, Note_on_c, 0, 76, 100
1, 79483, Note_off_c, 0, 76, 100
1, 79483, Note_on_c, 0, 75, 100
1, 79579, Note_off_c, 0, 75, 100
1, 79579, Note_on_c, 0, 74, 100
1, 79627, Note_off_c, 0, 74, 100
1, 79627, Note_on_c, 0, 73, 100
1, 79675, Note_off_c, 0, 73, 100
1, 79675, Note_on_c, 0, 72, 100
1, 79771, Note_off_c, 0, 72, 100
1, 79771, Note_on_c, 0, 71, 100
1, 79867, Note_off_c, 0, 71, 100
1, 79867, Note_on_c, 0, 69, 100
1, 79963, Note_off_c, 0, 69, 100
1, 79963, Note_on_c, 0, 69, 100
1, 80097, Note_off_c, 0, 69, 100
1, 80097, Note_on_c, 0, 68, 100
1, 80173, Note_off_c, 0, 68, 100
1, 80173, Note_on_c, 0, 67, 100
1, 80211, Note_off_c, 0, 67, 100
1, 80211, Note_on_c, 0, 66, 100
1, 80249, Note_off_c, 0, 66, 100
1, 80249, Note_on_c, 0, 67, 100
1, 80345, Note_off_c, 0, 67, 100
1, 80345, Note_on_c, 0, 65, 100
1, 80441, Note_off_c, 0, 65, 100
1, 80441, Note_on_c, 0, 66, 100
1, 80537, Note_off_c, 0, 66, 100
1, 80537, Note_on_c, 0, 64, 100
1, 80633, Note_off_c, 0, 64, 100
1, 80633, Note_on_c, 0, 65, 100
1, 80729, Note_off_c, 0, 65, 100
1, 80729, Note_on_c, 0, 64, 100
1, 80825, Note_off_c, 0, 64, 100
1, 80825, Note_on_c, 0, 63, 100
1, 80921, Note_off_c, 0, 63, 100
1, 80921, Note_on_c, 0, 67, 100
1, 81017, Note_off_c, 0, 67, 100
1, 81017, Note_on_c, 0, 64, 100
1, 81113, Note_off_c, 0, 64, 100
1, 81113, Note_on_c, 0, 62, 100
1, 81209, Note_off_c, 0, 62, 100
1, 81209, Note_on_c, 0, 58, 100
1, 81305, Note_off_c, 0, 58, 100
1, 81305, Note_on_c, 0, 55, 100
1, 81401, Note_off_c, 0, 55, 100
1, 81401, Note_on_c, 0, 60, 100
1, 81593, Note_off_c, 0, 60, 100
1, 81593, Note_on_c, 0, 62, 100
1, 81689, Note_off_c, 0, 62, 100
1, 82361, Note_on_c, 0, 55, 100
1, 82409, Note_off_c, 0, 55, 100
1, 82409, Note_on_c, 0, 57, 100
1, 82457, Note_off_c, 0, 57, 100
1, 82457, Note_on_c, 0, 58, 100
1, 82505, Note_off_c, 0, 58, 100
1, 82505, Note_on_c, 0, 60, 100
1, 82553, Note_off_c, 0, 60, 100
1, 82553, Note_on_c, 0, 62, 100
1, 82649, Note_off_c, 0, 62, 100
1, 82649, Note_on_c, 0, 64, 100
1, 82697, Note_off_c, 0, 64, 100
1, 82697, Note_on_c, 0, 65, 100
1, 82745, Note_off_c, 0, 65, 100
1, 82745, Note_on_c, 0, 69, 100
1, 82841, Note_off_c, 0, 69, 100
1, 82841, Note_on_c, 0, 70, 100
1, 82937, Note_off_c, 0, 70, 100
1, 82937, Note_on_c, 0, 72, 100
1, 83781, Note_off_c, 0, 72, 100
1, 83781, Note_on_c, 0, 69, 100
1, 83819, Note_off_c, 0, 69, 100
1, 83819, Note_on_c, 0, 64, 100
1, 83857, Note_off_c, 0, 64, 100
1, 83857, Note_on_c, 0, 62, 100
1, 83895, Note_off_c, 0, 62, 100
1, 83895, Note_on_c, 0, 60, 100
1, 83959, Note_off_c, 0, 60, 100
1, 83959, Note_on_c, 0, 62, 100
1, 84023, Note_off_c, 0, 62, 100
1, 84023, Note_on_c, 0, 64, 100
1, 84087, Note_off_c, 0, 64, 100
1, 84087, Note_on_c, 0, 69, 100
1, 84183, Note_off_c, 0, 69, 100
1, 84183, Note_on_c, 0, 72, 100
1, 84375, Note_off_c, 0, 72, 100
1, 84375, Note_on_c, 0, 70, 100
1, 84471, Note_off_c, 0, 70, 100
1, 84471, Note_on_c, 0, 72, 100
1, 84759, Note_off_c, 0, 72, 100
1, 84759, Note_on_c, 0, 69, 100
1, 84807, Note_off_c, 0, 69, 100
1, 84807, Note_on_c, 0, 68, 100
1, 84855, Note_off_c, 0, 68, 100
1, 84855, Note_on_c, 0, 65, 100
1, 84903, Note_off_c, 0, 65, 100
1, 84903, Note_on_c, 0, 62, 100
1, 85095, Note_off_c, 0, 62, 100
1, 85719, Note_on_c, 0, 46, 100
1, 85767, Note_off_c, 0, 46, 100
1, 85767, Note_on_c, 0, 51, 100
1, 85815, Note_off_c, 0, 51, 100
1, 85815, Note_on_c, 0, 53, 100
1, 85863, Note_off_c, 0, 53, 100
1, 85863, Note_on_c, 0, 55, 100
1, 85911, Note_off_c, 0, 55, 100
1, 85911, Note_on_c, 0, 58, 100
1, 85959, Note_off_c, 0, 58, 100
1, 85959, Note_on_c, 0, 61, 100
1, 86007, Note_off_c, 0, 61, 100
1, 86007, Note_on_c, 0, 63, 100
1, 86071, Note_off_c, 0, 63, 100
1, 86071, Note_on_c, 0, 65, 100
1, 86135, Note_off_c, 0, 65, 100
1, 86135, Note_on_c, 0, 67, 100
1, 86199, Note_off_c, 0, 67, 100
1, 86199, Note_on_c, 0, 70, 100
1, 86247, Note_off_c, 0, 70, 100
1, 86247, Note_on_c, 0, 71, 100
1, 86295, Note_off_c, 0, 71, 100
1, 86295, Note_on_c, 0, 75, 100
1, 86343, Note_off_c, 0, 75, 100
1, 86343, Note_on_c, 0, 79, 100
1, 86391, Note_off_c, 0, 79, 100
1, 86391, Note_on_c, 0, 80, 100
1, 86487, Note_off_c, 0, 80, 100
1, 86487, Note_on_c, 0, 79, 100
1, 86727, Note_off_c, 0, 79, 100
1, 86727, Note_on_c, 0, 75, 100
1, 86839, Note_off_c, 0, 75, 100
1, 86839, Note_on_c, 0, 70, 100
1, 86967, Note_off_c, 0, 70, 100
1, 86967, Note_on_c, 0, 67, 100
1, 87063, Note_off_c, 0, 67, 100
1, 87063, Note_on_c, 0, 63, 100
1, 87159, Note_off_c, 0, 63, 100
1, 87159, Note_on_c, 0, 62, 100
1, 87255, Note_off_c, 0, 62, 100
1, 87543, Note_on_c, 0, 44, 100
1, 87831, Note_off_c, 0, 44, 100
1, 87831, Note_on_c, 0, 51, 100
1, 87927, Note_off_c, 0, 51, 100
1, 87927, Note_on_c, 0, 49, 100
1, 88023, Note_off_c, 0, 49, 100
1, 88023, Note_on_c, 0, 51, 100
1, 88119, Note_off_c, 0, 51, 100
1, 88119, Note_on_c, 0, 54, 100
1, 88215, Note_off_c, 0, 54, 100
1, 88215, Note_on_c, 0, 55, 100
1, 88263, Note_off_c, 0, 55, 100
1, 88263, Note_on_c, 0, 58, 100
1, 88311, Note_off_c, 0, 58, 100
1, 88311, Note_on_c, 0, 60, 100
1, 88407, Note_off_c, 0, 60, 100
1, 88407, Note_on_c, 0, 63, 100
1, 88455, Note_off_c, 0, 63, 100
1, 88455, Note_on_c, 0, 65, 100
1, 88503, Note_off_c, 0, 65, 100
1, 88503, Note_on_c, 0, 67, 100
1, 88551, Note_off_c, 0, 67, 100
1, 88551, Note_on_c, 0, 70, 100
1, 88599, Note_off_c, 0, 70, 100
1, 88599, Note_on_c, 0, 72, 100
1, 88695, Note_off_c, 0, 72, 100
1, 88695, Note_on_c, 0, 75, 100
1, 88759, Note_off_c, 0, 75, 100
1, 88759, Note_on_c, 0, 76, 100
1, 88823, Note_off_c, 0, 76, 100
1, 88823, Note_on_c, 0, 77, 100
1, 89463, Note_off_c, 0, 77, 100
1, 89463, Note_on_c, 0, 74, 100
1, 89527, Note_off_c, 0, 74, 100
1, 89527, Note_on_c, 0, 72, 100
1, 89591, Note_off_c, 0, 72, 100
1, 89591, Note_on_c, 0, 70, 100
1, 89655, Note_off_c, 0, 70, 100
1, 89655, Note_on_c, 0, 69, 100
1, 89751, Note_off_c, 0, 69, 100
1, 89751, Note_on_c, 0, 67, 100
1, 89847, Note_off_c, 0, 67, 100
1, 89847, Note_on_c, 0, 65, 100
1, 89943, Note_off_c, 0, 65, 100
1, 89943, Note_on_c, 0, 64, 100
1, 90039, Note_off_c, 0, 64, 100
1, 90039, Note_on_c, 0, 62, 100
1, 90519, Note_off_c, 0, 62, 100
1, 90519, Note_on_c, 0, 60, 100
1, 90615, Note_off_c, 0, 60, 100
1, 90615, Note_on_c, 0, 58, 100
1, 90711, Note_off_c, 0, 58, 100
1, 90711, Note_on_c, 0, 57, 100
1, 90807, Note_off_c, 0, 57, 100
1, 90807, Note_on_c, 0, 55, 100
1, 90999, Note_off_c, 0, 55, 100
1, 91287, Note_on_c, 0, 53, 100
1, 91383, Note_off_c, 0, 53, 100
1, 91383, Note_on_c, 0, 52, 100
1, 91479, Note_off_c, 0, 52, 100
1, 91479, Note_on_c, 0, 50, 100
1, 91527, Note_off_c, 0, 50, 100
1, 91527, Note_on_c, 0, 48, 100
1, 91959, Note_off_c, 0, 48, 100
1, 91959, Note_on_c, 0, 50, 100
1, 92055, Note_off_c, 0, 50, 100
1, 92055, Note_on_c, 0, 52, 100
1, 92151, Note_off_c, 0, 52, 100
1, 92151, Note_on_c, 0, 50, 100
1, 93127, Note_off_c, 0, 50, 100
1, 93127, End_track
0, 0, End_of_file
