0, 0, Header, 1, 1, 192
1, 0, Start_track
1, 0, Title_t, "Melody"
1, 0, Tempo, 186915
1, 0, Key_signature, -3, "major"
1, 0, Time_signature, 4, 2, 24, 8
1, 96, Note_on_c, 0, 53, 100
1, 192, Note_off_c, 0, 53, 100
1, 192, Note_on_c, 0, 58, 100
1, 288, Note_off_c, 0, 58, 100
1, 288, Note_on_c, 0, 60, 100
1, 384, Note_off_c, 0, 60, 100
1, 384, Note_on_c, 0, 61, 100
1, 480, Note_off_c, 0, 61, 100
1, 480, Note_on_c, 0, 63, 100
1, 576, Note_off_c, 0, 63, 100
1, 576, Note_on_c, 0, 65, 100
1, 640, Note_off_c, 0, 65, 100
1, 640, Note_on_c, 0, 67, 100
1, 704, Note_off_c, 0, 67, 100
1, 704, Note_on_c, 0, 68, 100
1, 768, Note_off_c, 0, 68, 100
1, 768, Note_on_c, 0, 67, 100
1, 864, Note_off_c, 0, 67, 100
1, 1344, Note_on_c, 0, 66, 100
1, 1392, Note_off_c, 0, 66, 100
1, 1392, Note_on_c, 0, 65, 100
1, 1440, Note_off_c, 0, 65, 100
1, 1440, Note_on_c, 0, 67, 100
1, 1536, Note_off_c, 0, 67, 100
1, 1536, Note_on_c, 0, 65, 100
1, 1632, Note_off_c, 0, 65, 100
1, 2016, Note_on_c, 0, 64, 100
1, 2064, Note_off_c, 0, 64, 100
1, 2064, Note_on_c, 0, 65, 100
1, 2112, Note_off_c, 0, 65, 100
1, 2112, Note_on_c, 0, 63, 100
1, 2304, Note_off_c, 0, 63, 100
1, 2688, Note_on_c, 0, 62, 100
1, 2752, Note_off_c, 0, 62, 100
1, 2752, Note_on_c, 0, 63, 100
1, 2816, Note_off_c, 0, 63, 100
1, 2816, Note_on_c, 0, 62, 100
1, 2912, Note_off_c, 0, 62, 100
1, 3216, Note_on_c, 0, 60, 100
1, 3456, Note_off_c, 0, 60, 100
1, 3456, Note_on_c, 0, 55, 100
1, 3648, Note_off_c, 0, 55, 100
1, 3648, Note_on_c, 0, 53, 100
1, 3840, Note_off_c, 0, 53, 100
1, 3840, Note_on_c, 0, 54, 100
1, 4032, Note_off_c, 0, 54, 100
1, 4032, Note_on_c, 0, 62, 100
1, 4512, Note_off_c, 0, 62, 100
1, 4512, Note_on_c, 0, 63, 100
1, 4608, Note_off_c, 0, 63, 100
1, 4608, Note_on_c, 0, 62, 100
1, 4704, Note_off_c, 0, 62, 100
1, 4704, Note_on_c, 0, 60, 100
1, 4800, Note_off_c, 0, 60, 100
1, 4800, Note_on_c, 0, 59, 100
1, 4896, Note_off_c, 0, 59, 100
1, 4896, Note_on_c, 0, 56, 100
1, 4944, Note_off_c, 0, 56, 100
1, 4944, Note_on_c, 0, 55, 100
1, 5088, Note_off_c, 0, 55, 100
1, 5088, Note_on_c, 0, 54, 100
1, 5184, Note_off_c, 0, 54, 100
1, 5184, Note_on_c, 0, 53, 100
1, 5280, Note_off_c, 0, 53, 100
1, 5280, Note_on_c, 0, 52, 100
1, 5328, Note_off_c, 0, 52, 100
1, 5328, Note_on_c, 0, 51, 100
1, 5440, Note_off_c, 0, 51, 100
1, 5440, Note_on_c, 0, 48, 100
1, 5568, Note_off_c, 0, 48, 100
1, 5568, Note_on_c, 0, 46, 100
1, 5760, Note_off_c, 0, 46, 100
1, 5760, Note_on_c, 0, 45, 100
1, 6048, Note_off_c, 0, 45, 100
1, 7392, Note_on_c, 0, 55, 100
1, 7488, Note_off_c, 0, 55, 100
1, 7488, Note_on_c, 0, 60, 100
1, 7584, Note_off_c, 0, 60, 100
1, 7584, Note_on_c, 0, 63, 100
1, 7632, Note_off_c, 0, 63, 100
1, 7632, Note_on_c, 0, 64, 100
1, 7680, Note_off_c, 0, 64, 100
1, 7680, Note_on_c, 0, 67, 100
1, 7776, Note_off_c, 0, 67, 100
1, 8128, Note_on_c, 0, 67, 100
1, 8192, Note_off_c, 0, 67, 100
1, 8192, Note_on_c, 0, 64, 100
1, 8256, Note_off_c, 0, 64, 100
1, 8256, Note_on_c, 0, 60, 100
1, 8352, Note_off_c, 0, 60, 100
1, 8352, Note_on_c, 0, 56, 100
1, 8400, Note_off_c, 0, 56, 100
1, 8400, Note_on_c, 0, 55, 100
1, 8496, Note_off_c, 0, 55, 100
1, 8928, Note_on_c, 0, 55, 100
1, 8976, Note_off_c, 0, 55, 100
1, 8976, Note_on_c, 0, 56, 100
1, 9088, Note_off_c, 0, 56, 100
1, 9088, Note_on_c, 0, 59, 100
1, 9152, Note_off_c, 0, 59, 100
1, 9152, Note_on_c, 0, 62, 100
1, 9216, Note_off_c, 0, 62, 100
1, 9216, Note_on_c, 0, 63, 100
1, 9264, Note_off_c, 0, 63, 100
1, 9264, Note_on_c, 0, 67, 100
1, 9504, Note_off_c, 0, 67, 100
1, 9504, Note_on_c, 0, 65, 100
1, 9552, Note_off_c, 0, 65, 100
1, 9552, Note_on_c, 0, 63, 100
1, 9600, Note_off_c, 0, 63, 100
1, 9600, Note_on_c, 0, 62, 100
1, 9664, Note_off_c, 0, 62, 100
1, 9664, Note_on_c, 0, 60, 100
1, 9728, Note_off_c, 0, 60, 100
1, 9728, Note_on_c, 0, 59, 100
1, 9792, Note_off_c, 0, 59, 100
1, 9792, Note_on_c, 0, 56, 100
1, 9840, Note_off_c, 0, 56, 100
1, 9840, Note_on_c, 0, 55, 100
1, 9888, Note_off_c, 0, 55, 100
1, 9888, Note_on_c, 0, 53, 100
1, 9936, Note_off_c, 0, 53, 100
1, 9936, Note_on_c, 0, 51, 100
1, 9984, Note_off_c, 0, 51, 100
1, 9984, Note_on_c, 0, 48, 100
1, 10080, Note_off_c, 0, 48, 100
1, 11040, Note_on_c, 0, 68, 100
1, 11136, Note_off_c, 0, 68, 100
1, 11136, Note_on_c, 0, 67, 100
1, 11232, Note_off_c, 0, 67, 100
1, 11232, Note_on_c, 0, 66, 100
1, 11328, Note_off_c, 0, 66, 100
1, 11328, Note_on_c, 0, 65, 100
1, 11424, Note_off_c, 0, 65, 100
1, 11424, Note_on_c, 0, 64, 100
1, 11520, Note_off_c, 0, 64, 100
1, 11520, Note_on_c, 0, 63, 100
1, 11616, Note_off_c, 0, 63, 100
1, 11616, Note_on_c, 0, 65, 100
1, 11712, Note_off_c, 0, 65, 100
1, 11712, Note_on_c, 0, 62, 100
1, 11808, Note_off_c, 0, 62, 100
1, 11808, Note_on_c, 0, 60, 100
1, 11904, Note_off_c, 0, 60, 100
1, 11904, Note_on_c, 0, 59, 100
1, 12000, Note_off_c, 0, 59, 100
1, 12000, Note_on_c, 0, 55, 100
1, 12048, Note_off_c, 0, 55, 100
1, 12048, Note_on_c, 0, 57, 100
1, 12144, Note_off_c, 0, 57, 100
1, 12144, Note_on_c, 0, 62, 100
1, 12240, Note_off_c, 0, 62, 100
1, 12240, Note_on_c, 0, 59, 100
1, 12352, Note_off_c, 0, 59, 100
1, 12352, Note_on_c, 0, 60, 100
1, 12480, Note_off_c, 0, 60, 100
1, 12480, Note_on_c, 0, 63, 100
1, 12576, Note_off_c, 0, 63, 100
1, 12576, Note_on_c, 0, 67, 100
1, 12672, Note_off_c, 0, 67, 100
1, 12672, Note_on_c, 0, 72, 100
1, 12768, Note_off_c, 0, 72, 100
1, 12768, Note_on_c, 0, 60, 100
1, 12864, Note_off_c, 0, 60, 100
1, 13248, Note_on_c, 0, 65, 100
1, 13344, Note_off_c, 0, 65, 100
1, 13824, Note_on_c, 0, 71, 100
1, 13920, Note_off_c, 0, 71, 100
1, 14400, Note_on_c, 0, 67, 100
1, 14496, Note_off_c, 0, 67, 100
1, 14976, Note_on_c, 0, 72, 100
1, 15072, Note_off_c, 0, 72, 100
1, 15312, Note_on_c, 0, 70, 100
1, 15456, Note_off_c, 0, 70, 100
1, 15456, Note_on_c, 0, 68, 100
1, 15696, Note_off_c, 0, 68, 100
1, 15696, Note_on_c, 0, 67, 100
1, 15808, Note_off_c, 0, 67, 100
1, 15808, Note_on_c, 0, 65, 100
1, 15904, Note_off_c, 0, 65, 100
1, 16464, Note_on_c, 0, 45, 100
1, 16944, Note_off_c, 0, 45, 100
1, 17280, Note_on_c, 0, 65, 100
1, 17568, Note_off_c, 0, 65, 100
1, 18048, Note_on_c, 0, 46, 100
1, 18432, Note_off_c, 0, 46, 100
1, 18432, Note_on_c, 0, 63, 100
1, 18688, Note_off_c, 0, 63, 100
1, 18688, Note_on_c, 0, 61, 100
1, 18752, Note_off_c, 0, 61, 100
1, 18752, Note_on_c, 0, 58, 100
1, 18864, Note_off_c, 0, 58, 100
1, 18864, Note_on_c, 0, 56, 100
1, 18960, Note_off_c, 0, 56, 100
1, 18960, Note_on_c, 0, 53, 100
1, 19056, Note_off_c, 0, 53, 100
1, 19392, Note_on_c, 0, 57, 100
1, 19728, Note_off_c, 0, 57, 100
1, 19728, Note_on_c, 0, 60, 100
1, 19872, Note_off_c, 0, 60, 100
1, 19872, Note_on_c, 0, 62, 100
1, 19968, Note_off_c, 0, 62, 100
1, 19968, Note_on_c, 0, 63, 100
1, 20064, Note_off_c, 0, 63, 100
1, 20064, Note_on_c, 0, 65, 100
1, 20160, Note_off_c, 0, 65, 100
1, 20160, Note_on_c, 0, 67, 100
1, 20208, Note_off_c, 0, 67, 100
1, 20208, Note_on_c, 0, 69, 100
1, 20304, Note_off_c, 0, 69, 100
1, 20304, Note_on_c, 0, 71, 100
1, 20448, Note_off_c, 0, 71, 100
1, 20448, Note_on_c, 0, 67, 100
1, 20544, Note_off_c, 0, 67, 100
1, 21504, Note_on_c, 0, 73, 100
1, 21696, Note_off_c, 0, 73, 100
1, 21696, Note_on_c, 0, 72, 100
1, 21760, Note_off_c, 0, 72, 100
1, 21760, Note_on_c, 0, 70, 100
1, 21824, Note_off_c, 0, 70, 100
1, 21824, Note_on_c, 0, 69, 100
1, 21920, Note_off_c, 0, 69, 100
1, 22752, Note_on_c, 0, 67, 100
1, 23376, Note_off_c, 0, 67, 100
1, 23376, Note_on_c, 0, 65, 100
1, 23472, Note_off_c, 0, 65, 100
1, 23472, Note_on_c, 0, 63, 100
1, 23568, Note_off_c, 0, 63, 100
1, 23568, Note_on_c, 0, 61, 100
1, 23616, Note_off_c, 0, 61, 100
1, 23616, Note_on_c, 0, 60, 100
1, 26688, Note_off_c, 0, 60, 100
1, 26688, Note_on_c, 0, 61, 100
1, 26976, Note_off_c, 0, 61, 100
1, 28512, Note_on_c, 0, 53, 100
1, 28608, Note_off_c, 0, 53, 100
1, 28608, Note_on_c, 0, 58, 100
1, 28704, Note_off_c, 0, 58, 100
1, 28704, Note_on_c, 0, 60, 100
1, 28800, Note_off_c, 0, 60, 100
1, 28800, Note_on_c, 0, 61, 100
1, 28896, Note_off_c, 0, 61, 100
1, 28896, Note_on_c, 0, 63, 100
1, 28992, Note_off_c, 0, 63, 100
1, 28992, Note_on_c, 0, 64, 100
1, 29088, Note_off_c, 0, 64, 100
1, 29088, Note_on_c, 0, 66, 100
1, 29184, Note_off_c, 0, 66, 100
1, 29184, Note_on_c, 0, 67, 100
1, 29280, Note_off_c, 0, 67, 100
1, 29280, Note_on_c, 0, 69, 100
1, 29328, Note_off_c, 0, 69, 100
1, 29328, Note_on_c, 0, 71, 100
1, 29424, Note_off_c, 0, 71, 100
1, 29424, Note_on_c, 0, 73, 100
1, 29520, Note_off_c, 0, 73, 100
1, 29520, Note_on_c, 0, 74, 100
1, 29632, Note_off_c, 0, 74, 100
1, 29632, Note_on_c, 0, 71, 100
1, 29760, Note_off_c, 0, 71, 100
1, 29760, Note_on_c, 0, 67, 100
1, 29808, Note_off_c, 0, 67, 100
1, 29808, Note_on_c, 0, 64, 100
1, 29904, Note_off_c, 0, 64, 100
1, 29904, Note_on_c, 0, 69, 100
1, 29952, Note_off_c, 0, 69, 100
1, 29952, Note_on_c, 0, 68, 100
1, 30144, Note_off_c, 0, 68, 100
1, 30144, Note_on_c, 0, 67, 100
1, 30192, Note_off_c, 0, 67, 100
1, 30192, Note_on_c, 0, 71, 100
1, 30288, Note_off_c, 0, 71, 100
1, 30288, Note_on_c, 0, 69, 100
1, 30384, Note_off_c, 0, 69, 100
1, 30384, Note_on_c, 0, 67, 100
1, 30480, Note_off_c, 0, 67, 100
1, 30480, Note_on_c, 0, 66, 100
1, 30576, Note_off_c, 0, 66, 100
1, 30576, Note_on_c, 0, 64, 100
1, 30672, Note_off_c, 0, 64, 100
1, 30672, Note_on_c, 0, 62, 100
1, 30864, Note_off_c, 0, 62, 100
1, 30864, Note_on_c, 0, 66, 100
1, 31056, Note_off_c, 0, 66, 100
1, 31056, Note_on_c, 0, 57, 100
1, 31248, Note_off_c, 0, 57, 100
1, 31248, Note_on_c, 0, 62, 100
1, 31488, Note_off_c, 0, 62, 100
1, 31488, Note_on_c, 0, 54, 100
1, 31632, Note_off_c, 0, 54, 100
1, 31632, Note_on_c, 0, 57, 100
1, 31824, Note_off_c, 0, 57, 100
1, 31824, Note_on_c, 0, 50, 100
1, 32016, Note_off_c, 0, 50, 100
1, 32016, Note_on_c, 0, 54, 100
1, 32256, Note_off_c, 0, 54, 100
1, 32256, Note_on_c, 0, 52, 100
1, 32544, Note_off_c, 0, 52, 100
1, 32544, Note_on_c, 0, 48, 100
1, 32704, Note_off_c, 0, 48, 100
1, 32704, Note_on_c, 0, 45, 100
1, 33280, Note_off_c, 0, 45, 100
1, 33840, Note_on_c, 0, 45, 100
1, 33936, Note_off_c, 0, 45, 100
1, 33936, Note_on_c, 0, 52, 100
1, 34048, Note_off_c, 0, 52, 100
1, 34048, Note_on_c, 0, 50, 100
1, 34144, Note_off_c, 0, 50, 100
1, 34560, Note_on_c, 0, 50, 100
1, 34656, Note_off_c, 0, 50, 100
1, 34656, Note_on_c, 0, 55, 100
1, 34752, Note_off_c, 0, 55, 100
1, 34752, Note_on_c, 0, 52, 100
1, 34848, Note_off_c, 0, 52, 100
1, 35520, Note_on_c, 0, 53, 100
1, 35584, Note_off_c, 0, 53, 100
1, 35584, Note_on_c, 0, 56, 100
1, 35648, Note_off_c, 0, 56, 100
1, 35648, Note_on_c, 0, 60, 100
1, 35760, Note_off_c, 0, 60, 100
1, 35760, Note_on_c, 0, 64, 100
1, 35856, Note_off_c, 0, 64, 100
1, 35856, Note_on_c, 0, 62, 100
1, 35968, Note_off_c, 0, 62, 100
1, 35968, Note_on_c, 0, 64, 100
1, 36096, Note_off_c, 0, 64, 100
1, 36096, Note_on_c, 0, 65, 100
1, 36192, Note_off_c, 0, 65, 100
1, 36192, Note_on_c, 0, 62, 100
1, 36240, Note_off_c, 0, 62, 100
1, 36240, Note_on_c, 0, 63, 100
1, 36352, Note_off_c, 0, 63, 100
1, 36352, Note_on_c, 0, 62, 100
1, 36480, Note_off_c, 0, 62, 100
1, 36480, Note_on_c, 0, 61, 100
1, 36528, Note_off_c, 0, 61, 100
1, 36528, Note_on_c, 0, 65, 100
1, 36624, Note_off_c, 0, 65, 100
1, 36624, Note_on_c, 0, 63, 100
1, 36720, Note_off_c, 0, 63, 100
1, 36720, Note_on_c, 0, 60, 100
1, 36816, Note_off_c, 0, 60, 100
1, 36816, Note_on_c, 0, 55, 100
1, 36912, Note_off_c, 0, 55, 100
1, 36912, Note_on_c, 0, 53, 100
1, 37008, Note_off_c, 0, 53, 100
1, 37008, Note_on_c, 0, 58, 100
1, 37120, Note_off_c, 0, 58, 100
1, 37120, Note_on_c, 0, 63, 100
1, 37248, Note_off_c, 0, 63, 100
1, 37248, Note_on_c, 0, 65, 100
1, 37344, Note_off_c, 0, 65, 100
1, 37344, Note_on_c, 0, 67, 100
1, 37440, Note_off_c, 0, 67, 100
1, 37440, Note_on_c, 0, 68, 100
1, 37536, Note_off_c, 0, 68, 100
1, 37536, Note_on_c, 0, 70, 100
1, 37632, Note_off_c, 0, 70, 100
1, 37632, Note_on_c, 0, 68, 100
1, 38976, Note_off_c, 0, 68, 100
1, 38976, Note_on_c, 0, 65, 100
1, 39024, Note_off_c, 0, 65, 100
1, 39024, Note_on_c, 0, 63, 100
1, 39120, Note_off_c, 0, 63, 100
1, 39120, Note_on_c, 0, 61, 100
1, 39216, Note_off_c, 0, 61, 100
1, 39216, Note_on_c, 0, 58, 100
1, 39312, Note_off_c, 0, 58, 100
1, 39312, Note_on_c, 0, 56, 100
1, 39360, Note_off_c, 0, 56, 100
1, 39360, Note_on_c, 0, 53, 100
1, 39456, Note_off_c, 0, 53, 100
1, 39456, Note_on_c, 0, 51, 100
1, 39504, Note_off_c, 0, 51, 100
1, 39504, Note_on_c, 0, 49, 100
1, 39616, Note_off_c, 0, 49, 100
1, 39616, Note_on_c, 0, 46, 100
1, 39808, Note_off_c, 0, 46, 100
1, 40800, Note_on_c, 0, 55, 100
1, 40896, Note_off_c, 0, 55, 100
1, 40896, Note_on_c, 0, 56, 100
1, 40992, Note_off_c, 0, 56, 100
1, 40992, Note_on_c, 0, 59, 100
1, 41088, Note_off_c, 0, 59, 100
1, 41088, Note_on_c, 0, 62, 100
1, 41184, Note_off_c, 0, 62, 100
1, 41184, Note_on_c, 0, 63, 100
1, 41280, Note_off_c, 0, 63, 100
1, 41280, Note_on_c, 0, 65, 100
1, 41376, Note_off_c, 0, 65, 100
1, 41376, Note_on_c, 0, 67, 100
1, 41472, Note_off_c, 0, 67, 100
1, 41472, Note_on_c, 0, 68, 100
1, 41568, Note_off_c, 0, 68, 100
1, 41568, Note_on_c, 0, 70, 100
1, 41664, Note_off_c, 0, 70, 100
1, 41664, Note_on_c, 0, 71, 100
1, 41712, Note_off_c, 0, 71, 100
1, 41712, Note_on_c, 0, 73, 100
1, 41808, Note_off_c, 0, 73, 100
1, 41808, Note_on_c, 0, 75, 100
1, 42048, Note_off_c, 0, 75, 100
1, 42048, Note_on_c, 0, 71, 100
1, 42144, Note_off_c, 0, 71, 100
1, 42816, Note_on_c, 0, 67, 100
1, 42912, Note_off_c, 0, 67, 100
1, 42912, Note_on_c, 0, 68, 100
1, 43008, Note_off_c, 0, 68, 100
1, 43008, Note_on_c, 0, 67, 100
1, 43104, Note_off_c, 0, 67, 100
1, 43104, Note_on_c, 0, 66, 100
1, 43200, Note_off_c, 0, 66, 100
1, 43200, Note_on_c, 0, 65, 100
1, 43296, Note_off_c, 0, 65, 100
1, 43296, Note_on_c, 0, 64, 100
1, 43392, Note_off_c, 0, 64, 100
1, 43392, Note_on_c, 0, 63, 100
1, 43488, Note_off_c, 0, 63, 100
1, 43488, Note_on_c, 0, 67, 100
1, 43584, Note_off_c, 0, 67, 100
1, 43584, Note_on_c, 0, 69, 100
1, 43680, Note_off_c, 0, 69, 100
1, 43680, Note_on_c, 0, 71, 100
1, 43776, Note_off_c, 0, 71, 100
1, 43776, Note_on_c, 0, 76, 100
1, 43872, Note_off_c, 0, 76, 100
1, 43872, Note_on_c, 0, 79, 100
1, 44448, Note_off_c, 0, 79, 100
1, 44448, Note_on_c, 0, 76, 100
1, 44544, Note_off_c, 0, 76, 100
1, 44544, Note_on_c, 0, 72, 100
1, 44688, Note_off_c, 0, 72, 100
1, 44688, Note_on_c, 0, 68, 100
1, 44928, Note_off_c, 0, 68, 100
1, 44928, Note_on_c, 0, 67, 100
1, 45120, Note_off_c, 0, 67, 100
1, 45120, Note_on_c, 0, 65, 100
1, 45312, Note_off_c, 0, 65, 100
1, 45312, Note_on_c, 0, 62, 100
1, 45408, Note_off_c, 0, 62, 100
1, 45408, Note_on_c, 0, 63, 100
1, 45792, Note_off_c, 0, 63, 100
1, 46464, Note_on_c, 0, 55, 100
1, 46528, Note_off_c, 0, 55, 100
1, 46528, Note_on_c, 0, 57, 100
1, 46592, Note_off_c, 0, 57, 100
1, 46592, Note_on_c, 0, 59, 100
1, 46720, Note_off_c, 0, 59, 100
1, 46720, Note_on_c, 0, 62, 100
1, 46784, Note_off_c, 0, 62, 100
1, 46784, Note_on_c, 0, 63, 100
1, 46848, Note_off_c, 0, 63, 100
1, 46848, Note_on_c, 0, 59, 100
1, 46944, Note_off_c, 0, 59, 100
1, 46944, Note_on_c, 0, 56, 100
1, 47040, Note_off_c, 0, 56, 100
1, 47040, Note_on_c, 0, 61, 100
1, 47136, Note_off_c, 0, 61, 100
1, 47136, Note_on_c, 0, 58, 100
1, 47280, Note_off_c, 0, 58, 100
1, 47280, Note_on_c, 0, 61, 100
1, 47376, Note_off_c, 0, 61, 100
1, 47376, Note_on_c, 0, 66, 100
1, 47520, Note_off_c, 0, 66, 100
1, 47520, Note_on_c, 0, 70, 100
1, 47616, Note_off_c, 0, 70, 100
1, 47616, Note_on_c, 0, 73, 100
1, 47664, Note_off_c, 0, 73, 100
1, 47664, Note_on_c, 0, 73, 100
1, 47760, Note_off_c, 0, 73, 100
1, 47760, Note_on_c, 0, 70, 100
1, 47872, Note_off_c, 0, 70, 100
1, 47872, Note_on_c, 0, 73, 100
1, 47936, Note_off_c, 0, 73, 100
1, 47936, Note_on_c, 0, 71, 100
1, 48048, Note_off_c, 0, 71, 100
1, 48048, Note_on_c, 0, 69, 100
1, 48144, Note_off_c, 0, 69, 100
1, 48144, Note_on_c, 0, 68, 100
1, 48240, Note_off_c, 0, 68, 100
1, 48240, Note_on_c, 0, 66, 100
1, 48384, Note_off_c, 0, 66, 100
1, 48384, Note_on_c, 0, 65, 100
1, 48432, Note_off_c, 0, 65, 100
1, 48432, Note_on_c, 0, 64, 100
1, 48528, Note_off_c, 0, 64, 100
1, 48528, Note_on_c, 0, 63, 100
1, 48640, Note_off_c, 0, 63, 100
1, 48640, Note_on_c, 0, 65, 100
1, 48768, Note_off_c, 0, 65, 100
1, 48768, Note_on_c, 0, 62, 100
1, 48864, Note_off_c, 0, 62, 100
1, 48864, Note_on_c, 0, 60, 100
1, 48960, Note_off_c, 0, 60, 100
1, 48960, Note_on_c, 0, 59, 100
1, 49008, Note_off_c, 0, 59, 100
1, 49008, Note_on_c, 0, 58, 100
1, 49104, Note_off_c, 0, 58, 100
1, 49104, Note_on_c, 0, 60, 100
1, 49216, Note_off_c, 0, 60, 100
1, 49216, Note_on_c, 0, 62, 100
1, 49280, Note_off_c, 0, 62, 100
1, 49280, Note_on_c, 0, 63, 100
1, 49392, Note_off_c, 0, 63, 100
1, 49392, Note_on_c, 0, 65, 100
1, 49488, Note_off_c, 0, 65, 100
1, 49488, Note_on_c, 0, 67, 100
1, 49632, Note_off_c, 0, 67, 100
1, 49632, Note_on_c, 0, 72, 100
1, 49824, Note_off_c, 0, 72, 100
1, 50880, Note_on_c, 0, 71, 100
1, 50976, Note_off_c, 0, 71, 100
1, 50976, Note_on_c, 0, 67, 100
1, 51024, Note_off_c, 0, 67, 100
1, 51024, Note_on_c, 0, 69, 100
1, 51072, Note_off_c, 0, 69, 100
1, 51072, Note_on_c, 0, 71, 100
1, 51168, Note_off_c, 0, 71, 100
1, 51168, Note_on_c, 0, 70, 100
1, 51264, Note_off_c, 0, 70, 100
1, 51264, Note_on_c, 0, 69, 100
1, 51360, Note_off_c, 0, 69, 100
1, 51360, Note_on_c, 0, 68, 100
1, 51520, Note_off_c, 0, 68, 100
1, 51520, Note_on_c, 0, 67, 100
1, 51584, Note_off_c, 0, 67, 100
1, 51584, Note_on_c, 0, 65, 100
1, 51712, Note_off_c, 0, 65, 100
1, 51712, Note_on_c, 0, 67, 100
1, 51776, Note_off_c, 0, 67, 100
1, 51776, Note_on_c, 0, 68, 100
1, 51904, Note_off_c, 0, 68, 100
1, 51904, Note_on_c, 0, 70, 100
1, 51968, Note_off_c, 0, 70, 100
1, 51968, Note_on_c, 0, 67, 100
1, 52032, Note_off_c, 0, 67, 100
1, 52032, Note_on_c, 0, 66, 100
1, 52224, Note_off_c, 0, 66, 100
1, 52224, Note_on_c, 0, 65, 100
1, 52320, Note_off_c, 0, 65, 100
1, 52320, Note_on_c, 0, 64, 100
1, 52416, Note_off_c, 0, 64, 100
1, 52416, Note_on_c, 0, 63, 100
1, 52480, Note_off_c, 0, 63, 100
1, 52480, Note_on_c, 0, 65, 100
1, 52544, Note_off_c, 0, 65, 100
1, 52544, Note_on_c, 0, 67, 100
1, 52656, Note_off_c, 0, 67, 100
1, 52656, Note_on_c, 0, 70, 100
1, 52752, Note_off_c, 0, 70, 100
1, 52752, Note_on_c, 0, 65, 100
1, 52864, Note_off_c, 0, 65, 100
1, 52864, Note_on_c, 0, 64, 100
1, 52992, Note_off_c, 0, 64, 100
1, 52992, Note_on_c, 0, 63, 100
1, 53040, Note_off_c, 0, 63, 100
1, 53040, Note_on_c, 0, 65, 100
1, 53136, Note_off_c, 0, 65, 100
1, 53136, Note_on_c, 0, 62, 100
1, 53280, Note_off_c, 0, 62, 100
1, 53280, Note_on_c, 0, 61, 100
1, 53328, Note_off_c, 0, 61, 100
1, 53328, Note_on_c, 0, 60, 100
1, 53424, Note_off_c, 0, 60, 100
1, 53424, Note_on_c, 0, 59, 100
1, 53520, Note_off_c, 0, 59, 100
1, 53520, Note_on_c, 0, 58, 100
1, 53632, Note_off_c, 0, 58, 100
1, 53632, Note_on_c, 0, 55, 100
1, 53760, Note_off_c, 0, 55, 100
1, 53760, Note_on_c, 0, 51, 100
1, 53856, Note_off_c, 0, 51, 100
1, 53856, Note_on_c, 0, 48, 100
1, 53904, Note_off_c, 0, 48, 100
1, 53904, Note_on_c, 0, 53, 100
1, 53952, Note_off_c, 0, 53, 100
1, 53952, Note_on_c, 0, 52, 100
1, 54048, Note_off_c, 0, 52, 100
1, 54048, Note_on_c, 0, 51, 100
1, 54144, Note_off_c, 0, 51, 100
1, 54144, Note_on_c, 0, 53, 100
1, 54208, Note_off_c, 0, 53, 100
1, 54208, Note_on_c, 0, 55, 100
1, 54272, Note_off_c, 0, 55, 100
1, 54272, Note_on_c, 0, 58, 100
1, 54384, Note_off_c, 0, 58, 100
1, 54384, Note_on_c, 0, 62, 100
1, 54480, Note_off_c, 0, 62, 100
1, 54480, Note_on_c, 0, 65, 100
1, 54576, Note_off_c, 0, 65, 100
1, 54576, Note_on_c, 0, 61, 100
1, 54672, Note_off_c, 0, 61, 100
1, 54672, Note_on_c, 0, 57, 100
1, 54784, Note_off_c, 0, 57, 100
1, 54784, Note_on_c, 0, 53, 100
1, 54848, Note_off_c, 0, 53, 100
1, 54848, Note_on_c, 0, 59, 100
1, 55008, Note_off_c, 0, 59, 100
1, 55008, Note_on_c, 0, 58, 100
1, 55104, Note_off_c, 0, 58, 100
1, 55104, Note_on_c, 0, 57, 100
1, 55152, Note_off_c, 0, 57, 100
1, 55152, Note_on_c, 0, 59, 100
1, 55248, Note_off_c, 0, 59, 100
1, 55248, Note_on_c, 0, 56, 100
1, 55360, Note_off_c, 0, 56, 100
1, 55360, Note_on_c, 0, 53, 100
1, 55424, Note_off_c, 0, 53, 100
1, 55424, Note_on_c, 0, 56, 100
1, 55536, Note_off_c, 0, 56, 100
1, 55536, Note_on_c, 0, 59, 100
1, 55632, Note_off_c, 0, 59, 100
1, 55632, Note_on_c, 0, 58, 100
1, 55680, Note_off_c, 0, 58, 100
1, 55680, Note_on_c, 0, 56, 100
1, 55872, Note_off_c, 0, 56, 100
1, 55872, Note_on_c, 0, 55, 100
1, 55920, Note_off_c, 0, 55, 100
1, 55920, Note_on_c, 0, 54, 100
1, 56016, Note_off_c, 0, 54, 100
1, 56016, Note_on_c, 0, 53, 100
1, 56112, Note_off_c, 0, 53, 100
1, 56112, Note_on_c, 0, 52, 100
1, 56208, Note_off_c, 0, 52, 100
1, 56208, Note_on_c, 0, 51, 100
1, 56320, Note_off_c, 0, 51, 100
1, 56320, Note_on_c, 0, 53, 100
1, 56384, Note_off_c, 0, 53, 100
1, 56384, Note_on_c, 0, 55, 100
1, 56496, Note_off_c, 0, 55, 100
1, 56496, Note_on_c, 0, 57, 100
1, 56592, Note_off_c, 0, 57, 100
1, 56592, Note_on_c, 0, 59, 100
1, 56736, Note_off_c, 0, 59, 100
1, 56736, Note_on_c, 0, 60, 100
1, 56832, Note_off_c, 0, 60, 100
1, 56832, Note_on_c, 0, 62, 100
1, 56928, Note_off_c, 0, 62, 100
1, 56928, Note_on_c, 0, 63, 100
1, 57024, Note_off_c, 0, 63, 100
1, 57024, Note_on_c, 0, 65, 100
1, 57120, Note_off_c, 0, 65, 100
1, 57120, Note_on_c, 0, 67, 100
1, 57216, Note_off_c, 0, 67, 100
1, 57216, Note_on_c, 0, 69, 100
1, 57312, Note_off_c, 0, 69, 100
1, 57312, Note_on_c, 0, 71, 100
1, 57408, Note_off_c, 0, 71, 100
1, 57408, Note_on_c, 0, 72, 100
1, 57456, Note_off_c, 0, 72, 100
1, 57456, Note_on_c, 0, 73, 100
1, 57552, Note_off_c, 0, 73, 100
1, 57552, Note_on_c, 0, 72, 100
1, 57744, Note_off_c, 0, 72, 100
1, 58176, Note_on_c, 0, 70, 100
1, 58272, Note_off_c, 0, 70, 100
1, 58272, Note_on_c, 0, 72, 100
1, 58368, Note_off_c, 0, 72, 100
1, 58368, Note_on_c, 0, 70, 100
1, 58560, Note_off_c, 0, 70, 100
1, 58752, Note_on_c, 0, 69, 100
1, 58848, Note_off_c, 0, 69, 100
1, 58848, Note_on_c, 0, 70, 100
1, 58944, Note_off_c, 0, 70, 100
1, 58944, Note_on_c, 0, 69, 100
1, 59136, Note_off_c, 0, 69, 100
1, 59136, Note_on_c, 0, 65, 100
1, 59328, Note_off_c, 0, 65, 100
1, 59328, Note_on_c, 0, 60, 100
1, 59472, Note_off_c, 0, 60, 100
1, 59472, Note_on_c, 0, 57, 100
1, 59616, Note_off_c, 0, 57, 100
1, 59616, Note_on_c, 0, 53, 100
1, 59808, Note_off_c, 0, 53, 100
1, 59808, Note_on_c, 0, 46, 100
1, 60096, Note_off_c, 0, 46, 100
1, 60096, Note_on_c, 0, 45, 100
1, 60288, Note_off_c, 0, 45, 100
1, 61344, Note_on_c, 0, 53, 100
1, 61440, Note_off_c, 0, 53, 100
1, 61440, Note_on_c, 0, 58, 100
1, 61536, Note_off_c, 0, 58, 100
1, 61536, Note_on_c, 0, 61, 100
1, 61632, Note_off_c, 0, 61, 100
1, 61632, Note_on_c, 0, 60, 100
1, 61728, Note_off_c, 0, 60, 100
1, 61728, Note_on_c, 0, 58, 100
1, 61824, Note_off_c, 0, 58, 100
1, 61824, Note_on_c, 0, 57, 100
1, 61920, Note_off_c, 0, 57, 100
1, 61920, Note_on_c, 0, 53, 100
1, 62016, Note_off_c, 0, 53, 100
1, 62016, Note_on_c, 0, 55, 100
1, 62112, Note_off_c, 0, 55, 100
1, 62112, Note_on_c, 0, 57, 100
1, 62208, Note_off_c, 0, 57, 100
1, 62208, Note_on_c, 0, 58, 100
1, 62336, Note_off_c, 0, 58, 100
1, 62336, Note_on_c, 0, 60, 100
1, 62400, Note_off_c, 0, 60, 100
1, 62400, Note_on_c, 0, 61, 100
1, 62496, Note_off_c, 0, 61, 100
1, 62496, Note_on_c, 0, 63, 100
1, 62592, Note_off_c, 0, 63, 100
1, 62592, Note_on_c, 0, 64, 100
1, 62688, Note_off_c, 0, 64, 100
1, 62688, Note_on_c, 0, 65, 100
1, 62784, Note_off_c, 0, 65, 100
1, 62784, Note_on_c, 0, 66, 100
1, 62880, Note_off_c, 0, 66, 100
1, 62880, Note_on_c, 0, 64, 100
1, 62976, Note_off_c, 0, 64, 100
1, 62976, Note_on_c, 0, 65, 100
1, 63072, Note_off_c, 0, 65, 100
1, 63072, Note_on_c, 0, 61, 100
1, 63168, Note_off_c, 0, 61, 100
1, 63168, Note_on_c, 0, 58, 100
1, 63264, Note_off_c, 0, 58, 100
1, 63264, Note_on_c, 0, 53, 100
1, 63360, Note_off_c, 0, 53, 100
1, 63360, Note_on_c, 0, 58, 100
1, 63456, Note_off_c, 0, 58, 100
1, 63456, Note_on_c, 0, 65, 100
1, 63552, Note_off_c, 0, 65, 100
1, 63552, Note_on_c, 0, 61, 100
1, 63648, Note_off_c, 0, 61, 100
1, 63648, Note_on_c, 0, 58, 100
1, 63744, Note_off_c, 0, 58, 100
1, 63744, Note_on_c, 0, 62, 100
1, 63840, Note_off_c, 0, 62, 100
1, 63840, Note_on_c, 0, 59, 100
1, 63936, Note_off_c, 0, 59, 100
1, 63936, Note_on_c, 0, 58, 100
1, 64032, Note_off_c, 0, 58, 100
1, 64032, Note_on_c, 0, 59, 100
1, 64128, Note_off_c, 0, 59, 100
1, 64128, Note_on_c, 0, 57, 100
1, 64224, Note_off_c, 0, 57, 100
1, 64224, Note_on_c, 0, 56, 100
1, 64320, Note_off_c, 0, 56, 100
1, 64320, Note_on_c, 0, 55, 100
1, 64416, Note_off_c, 0, 55, 100
1, 64416, Note_on_c, 0, 59, 100
1, 64512, Note_off_c, 0, 59, 100
1, 64512, Note_on_c, 0, 57, 100
1, 64608, Note_off_c, 0, 57, 100
1, 64608, Note_on_c, 0, 55, 100
1, 64704, Note_off_c, 0, 55, 100
1, 64704, Note_on_c, 0, 54, 100
1, 64800, Note_off_c, 0, 54, 100
1, 64800, Note_on_c, 0, 57, 100
1, 64896, Note_off_c, 0, 57, 100
1, 64896, Note_on_c, 0, 53, 100
1, 64992, Note_off_c, 0, 53, 100
1, 64992, Note_on_c, 0, 52, 100
1, 65088, Note_off_c, 0, 52, 100
1, 65088, Note_on_c, 0, 51, 100
1, 65184, Note_off_c, 0, 51, 100
1, 65184, Note_on_c, 0, 53, 100
1, 65280, Note_off_c, 0, 53, 100
1, 65280, Note_on_c, 0, 50, 100
1, 65376, Note_off_c, 0, 50, 100
1, 65376, Note_on_c, 0, 53, 100
1, 65472, Note_off_c, 0, 53, 100
1, 65472, Note_on_c, 0, 58, 100
1, 65568, Note_off_c, 0, 58, 100
1, 65568, Note_on_c, 0, 62, 100
1, 65664, Note_off_c, 0, 62, 100
1, 65664, Note_on_c, 0, 63, 100
1, 65712, Note_off_c, 0, 63, 100
1, 65712, Note_on_c, 0, 59, 100
1, 65808, Note_off_c, 0, 59, 100
1, 65808, Note_on_c, 0, 56, 100
1, 65904, Note_off_c, 0, 56, 100
1, 65904, Note_on_c, 0, 61, 100
1, 65952, Note_off_c, 0, 61, 100
1, 65952, Note_on_c, 0, 58, 100
1, 66048, Note_off_c, 0, 58, 100
1, 66048, Note_on_c, 0, 61, 100
1, 66144, Note_off_c, 0, 61, 100
1, 66144, Note_on_c, 0, 66, 100
1, 66288, Note_off_c, 0, 66, 100
1, 66288, Note_on_c, 0, 70, 100
1, 66384, Note_off_c, 0, 70, 100
1, 66384, Note_on_c, 0, 73, 100
1, 66480, Note_off_c, 0, 73, 100
1, 66480, Note_on_c, 0, 73, 100
1, 66576, Note_off_c, 0, 73, 100
1, 66576, Note_on_c, 0, 70, 100
1, 66672, Note_off_c, 0, 70, 100
1, 66672, Note_on_c, 0, 73, 100
1, 66768, Note_off_c, 0, 73, 100
1, 66768, Note_on_c, 0, 71, 100
1, 66912, Note_off_c, 0, 71, 100
1, 66912, Note_on_c, 0, 64, 100
1, 67008, Note_off_c, 0, 64, 100
1, 67008, Note_on_c, 0, 66, 100
1, 67104, Note_off_c, 0, 66, 100
1, 67104, Note_on_c, 0, 71, 100
1, 67200, Note_off_c, 0, 71, 100
1, 67200, Note_on_c, 0, 69, 100
1, 67264, Note_off_c, 0, 69, 100
1, 67264, Note_on_c, 0, 62, 100
1, 67328, Note_off_c, 0, 62, 100
1, 67328, Note_on_c, 0, 64, 100
1, 67440, Note_off_c, 0, 64, 100
1, 67440, Note_on_c, 0, 69, 100
1, 67536, Note_off_c, 0, 69, 100
1, 67536, Note_on_c, 0, 67, 100
1, 67680, Note_off_c, 0, 67, 100
1, 67680, Note_on_c, 0, 60, 100
1, 67776, Note_off_c, 0, 60, 100
1, 67776, Note_on_c, 0, 62, 100
1, 67872, Note_off_c, 0, 62, 100
1, 67872, Note_on_c, 0, 67, 100
1, 67968, Note_off_c, 0, 67, 100
1, 67968, Note_on_c, 0, 65, 100
1, 68006, Note_off_c, 0, 65, 100
1, 68006, Note_on_c, 0, 64, 100
1, 68044, Note_off_c, 0, 64, 100
1, 68044, Note_on_c, 0, 58, 100
1, 68120, Note_off_c, 0, 58, 100
1, 68120, Note_on_c, 0, 60, 100
1, 68206, Note_off_c, 0, 60, 100
1, 68206, Note_on_c, 0, 65, 100
1, 68302, Note_off_c, 0, 65, 100
1, 68302, Note_on_c, 0, 63, 100
1, 68414, Note_off_c, 0, 63, 100
1, 68414, Note_on_c, 0, 56, 100
1, 68542, Note_off_c, 0, 56, 100
1, 68542, Note_on_c, 0, 58, 100
1, 68638, Note_off_c, 0, 58, 100
1, 68638, Note_on_c, 0, 63, 100
1, 68734, Note_off_c, 0, 63, 100
1, 68734, Note_on_c, 0, 61, 100
1, 68782, Note_off_c, 0, 61, 100
1, 68782, Note_on_c, 0, 60, 100
1, 68878, Note_off_c, 0, 60, 100
1, 68878, Note_on_c, 0, 53, 100
1, 68926, Note_off_c, 0, 53, 100
1, 68926, Note_on_c, 0, 56, 100
1, 69022, Note_off_c, 0, 56, 100
1, 69022, Note_on_c, 0, 61, 100
1, 69118, Note_off_c, 0, 61, 100
1, 69118, Note_on_c, 0, 59, 100
1, 69214, Note_off_c, 0, 59, 100
1, 69214, Note_on_c, 0, 52, 100
1, 69310, Note_off_c, 0, 52, 100
1, 69310, Note_on_c, 0, 55, 100
1, 69358, Note_off_c, 0, 55, 100
1, 69358, Note_on_c, 0, 59, 100
1, 69454, Note_off_c, 0, 59, 100
1, 69454, Note_on_c, 0, 57, 100
1, 69566, Note_off_c, 0, 57, 100
1, 69566, Note_on_c, 0, 51, 100
1, 69630, Note_off_c, 0, 51, 100
1, 69630, Note_on_c, 0, 64, 100
1, 69742, Note_off_c, 0, 64, 100
1, 69742, Note_on_c, 0, 69, 100
1, 69838, Note_off_c, 0, 69, 100
1, 69838, Note_on_c, 0, 67, 100
1, 69934, Note_off_c, 0, 67, 100
1, 70558, Note_on_c, 0, 45, 100
1, 70654, Note_off_c, 0, 45, 100
1, 70654, Note_on_c, 0, 51, 100
1, 70750, Note_off_c, 0, 51, 100
1, 70750, Note_on_c, 0, 55, 100
1, 70846, Note_off_c, 0, 55, 100
1, 70846, Note_on_c, 0, 51, 100
1, 70942, Note_off_c, 0, 51, 100
1, 70942, Note_on_c, 0, 48, 100
1, 71038, Note_off_c, 0, 48, 100
1, 71038, Note_on_c, 0, 53, 100
1, 71134, Note_off_c, 0, 53, 100
1, 71134, Note_on_c, 0, 58, 100
1, 71230, Note_off_c, 0, 58, 100
1, 71230, Note_on_c, 0, 60, 100
1, 71326, Note_off_c, 0, 60, 100
1, 71326, Note_on_c, 0, 63, 100
1, 71470, Note_off_c, 0, 63, 100
1, 71470, Note_on_c, 0, 60, 100
1, 71518, Note_off_c, 0, 60, 100
1, 71518, Note_on_c, 0, 66, 100
1, 71614, Note_off_c, 0, 66, 100
1, 71614, Note_on_c, 0, 61, 100
1, 71710, Note_off_c, 0, 61, 100
1, 71710, Note_on_c, 0, 58, 100
1, 71854, Note_off_c, 0, 58, 100
1, 71854, Note_on_c, 0, 55, 100
1, 71950, Note_off_c, 0, 55, 100
1, 71950, Note_on_c, 0, 56, 100
1, 72046, Note_off_c, 0, 56, 100
1, 72046, Note_on_c, 0, 58, 100
1, 72142, Note_off_c, 0, 58, 100
1, 72142, Note_on_c, 0, 59, 100
1, 72254, Note_off_c, 0, 59, 100
1, 72254, Note_on_c, 0, 61, 100
1, 72318, Note_off_c, 0, 61, 100
1, 72318, Note_on_c, 0, 63, 100
1, 72446, Note_off_c, 0, 63, 100
1, 72446, Note_on_c, 0, 66, 100
1, 72574, Note_off_c, 0, 66, 100
1, 72574, Note_on_c, 0, 65, 100
1, 72622, Note_off_c, 0, 65, 100
1, 72622, Note_on_c, 0, 64, 100
1, 72718, Note_off_c, 0, 64, 100
1, 72718, Note_on_c, 0, 63, 100
1, 72862, Note_off_c, 0, 63, 100
1, 72862, Note_on_c, 0, 66, 100
1, 72958, Note_off_c, 0, 66, 100
1, 72958, Note_on_c, 0, 64, 100
1, 73022, Note_off_c, 0, 64, 100
1, 73022, Note_on_c, 0, 61, 100
1, 73086, Note_off_c, 0, 61, 100
1, 73086, Note_on_c, 0, 59, 100
1, 73198, Note_off_c, 0, 59, 100
1, 73198, Note_on_c, 0, 54, 100
1, 73294, Note_off_c, 0, 54, 100
1, 73294, Note_on_c, 0, 57, 100
1, 73390, Note_off_c, 0, 57, 100
1, 73390, Note_on_c, 0, 62, 100
1, 73486, Note_off_c, 0, 62, 100
1, 73486, Note_on_c, 0, 59, 100
1, 73726, Note_off_c, 0, 59, 100
1, 73726, Note_on_c, 0, 60, 100
1, 73790, Note_off_c, 0, 60, 100
1, 73790, Note_on_c, 0, 61, 100
1, 73854, Note_off_c, 0, 61, 100
1, 73854, Note_on_c, 0, 63, 100
1, 73918, Note_off_c, 0, 63, 100
1, 73918, Note_on_c, 0, 62, 100
1, 74014, Note_off_c, 0, 62, 100
1, 74014, Note_on_c, 0, 61, 100
1, 74110, Note_off_c, 0, 61, 100
1, 74110, Note_on_c, 0, 62, 100
1, 74206, Note_off_c, 0, 62, 100
1, 74206, Note_on_c, 0, 67, 100
1, 74302, Note_off_c, 0, 67, 100
1, 74302, Note_on_c, 0, 69, 100
1, 74366, Note_off_c, 0, 69, 100
1, 74366, Note_on_c, 0, 70, 100
1, 74430, Note_off_c, 0, 70, 100
1, 74430, Note_on_c, 0, 72, 100
1, 74494, Note_off_c, 0, 72, 100
1, 74494, Note_on_c, 0, 74, 100
1, 74542, Note_off_c, 0, 74, 100
1, 74542, Note_on_c, 0, 73, 100
1, 74638, Note_off_c, 0, 73, 100
1, 75070, Note_on_c, 0, 70, 100
1, 75166, Note_off_c, 0, 70, 100
1, 75550, Note_on_c, 0, 65, 100
1, 75694, Note_off_c, 0, 65, 100
1, 75694, Note_on_c, 0, 70, 100
1, 75790, Note_off_c, 0, 70, 100
1, 76126, Note_on_c, 0, 67, 100
1, 76286, Note_off_c, 0, 67, 100
1, 76286, Note_on_c, 0, 62, 100
1, 76382, Note_off_c, 0, 62, 100
1, 76670, Note_on_c, 0, 67, 100
1, 76798, Note_off_c, 0, 67, 100
1, 76798, Note_on_c, 0, 64, 100
1, 76846, Note_off_c, 0, 64, 100
1, 76846, Note_on_c, 0, 62, 100
1, 76942, Note_off_c, 0, 62, 100
1, 76942, Note_on_c, 0, 59, 100
1, 77038, Note_off_c, 0, 59, 100
1, 77038, Note_on_c, 0, 56, 100
1, 77134, Note_off_c, 0, 56, 100
1, 77134, Note_on_c, 0, 53, 100
1, 77230, Note_off_c, 0, 53, 100
1, 77230, Note_on_c, 0, 56, 100
1, 77326, Note_off_c, 0, 56, 100
1, 77326, Note_on_c, 0, 59, 100
1, 77438, Note_off_c, 0, 59, 100
1, 77438, Note_on_c, 0, 62, 100
1, 77566, Note_off_c, 0, 62, 100
1, 77566, Note_on_c, 0, 57, 100
1, 77614, Note_off_c, 0, 57, 100
1, 77614, Note_on_c, 0, 55, 100
1, 77710, Note_off_c, 0, 55, 100
1, 77710, Note_on_c, 0, 56, 100
1, 77822, Note_off_c, 0, 56, 100
1, 77822, Note_on_c, 0, 58, 100
1, 77886, Note_off_c, 0, 58, 100
1, 77886, Note_on_c, 0, 59, 100
1, 77998, Note_off_c, 0, 59, 100
1, 77998, Note_on_c, 0, 61, 100
1, 78094, Note_off_c, 0, 61, 100
1, 78094, Note_on_c, 0, 63, 100
1, 78206, Note_off_c, 0, 63, 100
1, 78206, Note_on_c, 0, 66, 100
1, 78270, Note_off_c, 0, 66, 100
1, 78270, Note_on_c, 0, 67, 100
1, 78398, Note_off_c, 0, 67, 100
1, 78398, Note_on_c, 0, 66, 100
1, 78462, Note_off_c, 0, 66, 100
1, 78462, Note_on_c, 0, 63, 100
1, 78574, Note_off_c, 0, 63, 100
1, 78574, Note_on_c, 0, 59, 100
1, 78670, Note_off_c, 0, 59, 100
1, 78670, Note_on_c, 0, 69, 100
1, 78782, Note_off_c, 0, 69, 100
1, 78782, Note_on_c, 0, 68, 100
1, 78846, Note_off_c, 0, 68, 100
1, 78846, Note_on_c, 0, 67, 100
1, 78910, Note_off_c, 0, 67, 100
1, 78910, Note_on_c, 0, 65, 100
1, 78974, Note_off_c, 0, 65, 100
1, 78974, Note_on_c, 0, 62, 100
1, 79038, Note_off_c, 0, 62, 100
1, 79038, Note_on_c, 0, 71, 100
1, 79166, Note_off_c, 0, 71, 100
1, 79166, Note_on_c, 0, 69, 100
1, 79230, Note_off_c, 0, 69, 100
1, 79230, Note_on_c, 0, 70, 100
1, 79390, Note_off_c, 0, 70, 100
1, 79390, Note_on_c, 0, 67, 100
1, 79486, Note_off_c, 0, 67, 100
1, 79486, Note_on_c, 0, 69, 100
1, 79582, Note_off_c, 0, 69, 100
1, 79582, Note_on_c, 0, 67, 100
1, 79678, Note_off_c, 0, 67, 100
1, 79678, Note_on_c, 0, 68, 100
1, 79726, Note_off_c, 0, 68, 100
1, 79726, Note_on_c, 0, 70, 100
1, 79822, Note_off_c, 0, 70, 100
1, 79822, Note_on_c, 0, 71, 100
1, 79870, Note_off_c, 0, 71, 100
1, 79870, Note_on_c, 0, 69, 100
1, 79966, Note_off_c, 0, 69, 100
1, 79966, Note_on_c, 0, 70, 100
1, 80398, Note_off_c, 0, 70, 100
1, 80398, Note_on_c, 0, 68, 100
1, 80510, Note_off_c, 0, 68, 100
1, 80510, Note_on_c, 0, 67, 100
1, 80830, Note_off_c, 0, 67, 100
1, 80830, Note_on_c, 0, 66, 100
1, 80926, Note_off_c, 0, 66, 100
1, 80926, Note_on_c, 0, 65, 100
1, 81118, Note_off_c, 0, 65, 100
1, 81118, Note_on_c, 0, 64, 100
1, 81214, Note_off_c, 0, 64, 100
1, 81214, Note_on_c, 0, 63, 100
1, 81310, Note_off_c, 0, 63, 100
1, 81310, Note_on_c, 0, 67, 100
1, 81406, Note_off_c, 0, 67, 100
1, 81406, Note_on_c, 0, 65, 100
1, 81502, Note_off_c, 0, 65, 100
1, 81502, Note_on_c, 0, 62, 100
1, 81598, Note_off_c, 0, 62, 100
1, 81598, Note_on_c, 0, 58, 100
1, 81694, Note_off_c, 0, 58, 100
1, 81694, Note_on_c, 0, 55, 100
1, 81790, Note_off_c, 0, 55, 100
1, 81790, Note_on_c, 0, 62, 100
1, 81886, Note_off_c, 0, 62, 100
1, 81886, Note_on_c, 0, 60, 100
1, 81982, Note_off_c, 0, 60, 100
1, 81982, Note_on_c, 0, 58, 100
1, 82078, Note_off_c, 0, 58, 100
1, 82078, Note_on_c, 0, 55, 100
1, 82174, Note_off_c, 0, 55, 100
1, 82174, Note_on_c, 0, 57, 100
1, 82270, Note_off_c, 0, 57, 100
1, 82270, Note_on_c, 0, 55, 100
1, 82366, Note_off_c, 0, 55, 100
1, 82366, Note_on_c, 0, 53, 100
1, 82462, Note_off_c, 0, 53, 100
1, 82462, Note_on_c, 0, 51, 100
1, 82558, Note_off_c, 0, 51, 100
1, 82558, Note_on_c, 0, 45, 100
1, 82750, Note_off_c, 0, 45, 100
1, 82750, Note_on_c, 0, 51, 100
1, 82846, Note_off_c, 0, 51, 100
1, 82846, Note_on_c, 0, 45, 100
1, 83038, Note_off_c, 0, 45, 100
1, 83758, Note_on_c, 0, 45, 100
1, 83854, Note_off_c, 0, 45, 100
1, 83854, Note_on_c, 0, 51, 100
1, 83950, Note_off_c, 0, 51, 100
1, 83950, Note_on_c, 0, 57, 100
1, 84046, Note_off_c, 0, 57, 100
1, 84046, Note_on_c, 0, 47, 100
1, 84158, Note_off_c, 0, 47, 100
1, 84158, Note_on_c, 0, 51, 100
1, 84286, Note_off_c, 0, 51, 100
1, 84286, Note_on_c, 0, 55, 100
1, 84334, Note_off_c, 0, 55, 100
1, 84334, Note_on_c, 0, 59, 100
1, 84430, Note_off_c, 0, 59, 100
1, 84430, Note_on_c, 0, 54, 100
1, 84574, Note_off_c, 0, 54, 100
1, 84574, Note_on_c, 0, 50, 100
1, 84670, Note_off_c, 0, 50, 100
1, 84670, Note_on_c, 0, 53, 100
1, 84766, Note_off_c, 0, 53, 100
1, 84766, Note_on_c, 0, 52, 100
1, 84862, Note_off_c, 0, 52, 100
1, 84862, Note_on_c, 0, 51, 100
1, 84926, Note_off_c, 0, 51, 100
1, 84926, Note_on_c, 0, 55, 100
1, 84990, Note_off_c, 0, 55, 100
1, 84990, Note_on_c, 0, 59, 100
1, 85102, Note_off_c, 0, 59, 100
1, 85102, Note_on_c, 0, 62, 100
1, 85198, Note_off_c, 0, 62, 100
1, 85198, Note_on_c, 0, 66, 100
1, 85246, Note_off_c, 0, 66, 100
1, 85246, Note_on_c, 0, 62, 100
1, 85342, Note_off_c, 0, 62, 100
1, 85342, Note_on_c, 0, 59, 100
1, 85486, Note_off_c, 0, 59, 100
1, 85486, Note_on_c, 0, 55, 100
1, 85582, Note_off_c, 0, 55, 100
1, 85582, Note_on_c, 0, 65, 100
1, 85678, Note_off_c, 0, 65, 100
1, 85678, Note_on_c, 0, 62, 100
1, 85774, Note_off_c, 0, 62, 100
1, 85774, Note_on_c, 0, 59, 100
1, 85886, Note_off_c, 0, 59, 100
1, 85886, Note_on_c, 0, 57, 100
1, 85950, Note_off_c, 0, 57, 100
1, 85950, Note_on_c, 0, 58, 100
1, 86014, Note_off_c, 0, 58, 100
1, 86014, Note_on_c, 0, 54, 100
1, 86206, Note_off_c, 0, 54, 100
1, 86206, Note_on_c, 0, 50, 100
1, 86302, Note_off_c, 0, 50, 100
1, 86302, Note_on_c, 0, 46, 100
1, 86398, Note_off_c, 0, 46, 100
1, 86846, Note_on_c, 0, 46, 100
1, 86910, Note_off_c, 0, 46, 100
1, 86910, Note_on_c, 0, 50, 100
1, 86974, Note_off_c, 0, 50, 100
1, 86974, Note_on_c, 0, 53, 100
1, 87022, Note_off_c, 0, 53, 100
1, 87022, Note_on_c, 0, 58, 100
1, 87118, Note_off_c, 0, 58, 100
1, 87118, Note_on_c, 0, 53, 100
1, 87166, Note_off_c, 0, 53, 100
1, 87166, Note_on_c, 0, 52, 100
1, 87262, Note_off_c, 0, 52, 100
1, 87262, Note_on_c, 0, 51, 100
1, 87358, Note_off_c, 0, 51, 100
1, 87358, Note_on_c, 0, 53, 100
1, 87486, Note_off_c, 0, 53, 100
1, 87486, Note_on_c, 0, 50, 100
1, 87614, Note_off_c, 0, 50, 100
1, 87614, Note_on_c, 0, 55, 100
1, 87678, Note_off_c, 0, 55, 100
1, 87678, Note_on_c, 0, 58, 100
1, 87742, Note_off_c, 0, 58, 100
1, 87742, Note_on_c, 0, 62, 100
1, 87838, Note_off_c, 0, 62, 100
1, 87838, Note_on_c, 0, 57, 100
1, 87982, Note_off_c, 0, 57, 100
1, 87982, Note_on_c, 0, 55, 100
1, 88078, Note_off_c, 0, 55, 100
1, 88078, Note_on_c, 0, 56, 100
1, 88174, Note_off_c, 0, 56, 100
1, 88174, Note_on_c, 0, 58, 100
1, 88270, Note_off_c, 0, 58, 100
1, 88270, Note_on_c, 0, 59, 100
1, 88382, Note_off_c, 0, 59, 100
1, 88382, Note_on_c, 0, 57, 100
1, 88446, Note_off_c, 0, 57, 100
1, 88446, Note_on_c, 0, 58, 100
1, 88574, Note_off_c, 0, 58, 100
1, 88574, Note_on_c, 0, 57, 100
1, 88638, Note_off_c, 0, 57, 100
1, 88638, Note_on_c, 0, 56, 100
1, 88750, Note_off_c, 0, 56, 100
1, 88750, Note_on_c, 0, 55, 100
1, 88846, Note_off_c, 0, 55, 100
1, 88846, Note_on_c, 0, 54, 100
1, 88942, Note_off_c, 0, 54, 100
1, 88942, Note_on_c, 0, 50, 100
1, 89038, Note_off_c, 0, 50, 100
1, 89038, Note_on_c, 0, 53, 100
1, 89230, Note_off_c, 0, 53, 100
1, 89230, Note_on_c, 0, 50, 100
1, 89374, Note_off_c, 0, 50, 100
1, 89374, Note_on_c, 0, 52, 100
1, 89566, Note_off_c, 0, 52, 100
1, 89566, Note_on_c, 0, 46, 100
1, 89758, Note_off_c, 0, 46, 100
1, 90190, Note_on_c, 0, 45, 100
1, 90302, Note_off_c, 0, 45, 100
1, 90302, Note_on_c, 0, 51, 100
1, 90366, Note_off_c, 0, 51, 100
1, 90366, Note_on_c, 0, 55, 100
1, 90462, Note_off_c, 0, 55, 100
1, 90718, Note_on_c, 0, 47, 100
1, 90814, Note_off_c, 0, 47, 100
1, 90814, Note_on_c, 0, 51, 100
1, 90910, Note_off_c, 0, 51, 100
1, 90910, Note_on_c, 0, 55, 100
1, 91006, Note_off_c, 0, 55, 100
1, 91294, Note_on_c, 0, 44, 100
1, 91390, Note_off_c, 0, 44, 100
1, 91390, Note_on_c, 0, 46, 100
1, 91454, Note_off_c, 0, 46, 100
1, 91454, Note_on_c, 0, 48, 100
1, 91518, Note_off_c, 0, 48, 100
1, 91518, Note_on_c, 0, 52, 100
1, 91614, Note_off_c, 0, 52, 100
1, 91870, Note_on_c, 0, 46, 100
1, 91966, Note_off_c, 0, 46, 100
1, 91966, Note_on_c, 0, 50, 100
1, 92062, Note_off_c, 0, 50, 100
1, 92062, Note_on_c, 0, 54, 100
1, 92158, Note_off_c, 0, 54, 100
1, 92494, Note_on_c, 0, 46, 100
1, 92590, Note_off_c, 0, 46, 100
1, 92590, Note_on_c, 0, 50, 100
1, 92686, Note_off_c, 0, 50, 100
1, 92686, Note_on_c, 0, 54, 100
1, 92782, Note_off_c, 0, 54, 100
1, 92782, Note_on_c, 0, 58, 100
1, 92878, Note_off_c, 0, 58, 100
1, 92878, Note_on_c, 0, 53, 100
1, 92990, Note_off_c, 0, 53, 100
1, 92990, Note_on_c, 0, 51, 100
1, 93118, Note_off_c, 0, 51, 100
1, 93118, Note_on_c, 0, 52, 100
1, 93166, Note_off_c, 0, 52, 100
1, 93166, Note_on_c, 0, 51, 100
1, 93262, Note_off_c, 0, 51, 100
1, 93262, Note_on_c, 0, 50, 100
1, 93358, Note_off_c, 0, 50, 100
1, 93694, Note_on_c, 0, 47, 100
1, 93758, Note_off_c, 0, 47, 100
1, 93758, Note_on_c, 0, 51, 100
1, 93822, Note_off_c, 0, 51, 100
1, 93822, Note_on_c, 0, 55, 100
1, 93886, Note_off_c, 0, 55, 100
1, 93886, Note_on_c, 0, 59, 100
1, 93982, Note_off_c, 0, 59, 100
1, 93982, Note_on_c, 0, 54, 100
1, 94078, Note_off_c, 0, 54, 100
1, 94078, Note_on_c, 0, 51, 100
1, 94174, Note_off_c, 0, 51, 100
1, 94174, Note_on_c, 0, 53, 100
1, 94270, Note_off_c, 0, 53, 100
1, 94270, Note_on_c, 0, 52, 100
1, 94366, Note_off_c, 0, 52, 100
1, 94366, Note_on_c, 0, 51, 100
1, 94462, Note_off_c, 0, 51, 100
1, 94798, Note_on_c, 0, 46, 100
1, 94894, Note_off_c, 0, 46, 100
1, 94894, Note_on_c, 0, 50, 100
1, 94990, Note_off_c, 0, 50, 100
1, 94990, Note_on_c, 0, 54, 100
1, 95086, Note_off_c, 0, 54, 100
1, 95374, Note_on_c, 0, 50, 100
1, 95486, Note_off_c, 0, 50, 100
1, 95486, Note_on_c, 0, 54, 100
1, 95550, Note_off_c, 0, 54, 100
1, 95550, Note_on_c, 0, 58, 100
1, 95662, Note_off_c, 0, 58, 100
1, 95662, Note_on_c, 0, 62, 100
1, 95758, Note_off_c, 0, 62, 100
1, 95758, Note_on_c, 0, 63, 100
1, 95870, Note_off_c, 0, 63, 100
1, 95870, Note_on_c, 0, 62, 100
1, 95998, Note_off_c, 0, 62, 100
1, 95998, Note_on_c, 0, 61, 100
1, 96046, Note_off_c, 0, 61, 100
1, 96046, Note_on_c, 0, 60, 100
1, 96142, Note_off_c, 0, 60, 100
1, 96142, Note_on_c, 0, 59, 100
1, 96254, Note_off_c, 0, 59, 100
1, 96254, Note_on_c, 0, 57, 100
1, 96382, Note_off_c, 0, 57, 100
1, 96382, Note_on_c, 0, 58, 100
1, 96478, Note_off_c, 0, 58, 100
1, 96478, Note_on_c, 0, 55, 100
1, 96574, Note_off_c, 0, 55, 100
1, 96574, Note_on_c, 0, 56, 100
1, 96622, Note_off_c, 0, 56, 100
1, 96622, Note_on_c, 0, 58, 100
1, 96718, Note_off_c, 0, 58, 100
1, 96718, Note_on_c, 0, 59, 100
1, 96814, Note_off_c, 0, 59, 100
1, 96814, Note_on_c, 0, 61, 100
1, 96910, Note_off_c, 0, 61, 100
1, 96910, Note_on_c, 0, 63, 100
1, 96958, Note_off_c, 0, 63, 100
1, 96958, Note_on_c, 0, 66, 100
1, 97054, Note_off_c, 0, 66, 100
1, 97054, Note_on_c, 0, 65, 100
1, 97150, Note_off_c, 0, 65, 100
1, 97150, Note_on_c, 0, 64, 100
1, 97246, Note_off_c, 0, 64, 100
1, 97246, Note_on_c, 0, 63, 100
1, 97342, Note_off_c, 0, 63, 100
1, 97342, Note_on_c, 0, 65, 100
1, 97438, Note_off_c, 0, 65, 100
1, 97438, Note_on_c, 0, 62, 100
1, 97582, Note_off_c, 0, 62, 100
1, 97582, Note_on_c, 0, 60, 100
1, 97678, Note_off_c, 0, 60, 100
1, 97678, Note_on_c, 0, 59, 100
1, 97726, Note_off_c, 0, 59, 100
1, 97726, Note_on_c, 0, 55, 100
1, 97822, Note_off_c, 0, 55, 100
1, 97822, Note_on_c, 0, 60, 100
1, 97918, Note_off_c, 0, 60, 100
1, 97918, Note_on_c, 0, 63, 100
1, 98014, Note_off_c, 0, 63, 100
1, 98014, Note_on_c, 0, 62, 100
1, 98110, Note_off_c, 0, 62, 100
1, 98110, Note_on_c, 0, 60, 100
1, 98206, Note_off_c, 0, 60, 100
1, 98206, Note_on_c, 0, 59, 100
1, 98302, Note_off_c, 0, 59, 100
1, 98302, Note_on_c, 0, 55, 100
1, 98398, Note_off_c, 0, 55, 100
1, 98398, Note_on_c, 0, 57, 100
1, 98542, Note_off_c, 0, 57, 100
1, 98542, Note_on_c, 0, 62, 100
1, 98638, Note_off_c, 0, 62, 100
1, 98638, Note_on_c, 0, 59, 100
1, 98734, Note_off_c, 0, 59, 100
1, 98734, Note_on_c, 0, 60, 100
1, 98830, Note_off_c, 0, 60, 100
1, 98830, Note_on_c, 0, 63, 100
1, 98974, Note_off_c, 0, 63, 100
1, 98974, Note_on_c, 0, 70, 100
1, 99118, Note_off_c, 0, 70, 100
1, 99118, Note_on_c, 0, 67, 100
1, 99214, Note_off_c, 0, 67, 100
1, 99214, Note_on_c, 0, 68, 100
1, 99310, Note_off_c, 0, 68, 100
1, 99310, Note_on_c, 0, 71, 100
1, 99406, Note_off_c, 0, 71, 100
1, 99406, Note_on_c, 0, 75, 100
1, 99454, Note_off_c, 0, 75, 100
1, 99454, Note_on_c, 0, 79, 100
1, 99550, Note_off_c, 0, 79, 100
1, 99550, Note_on_c, 0, 80, 100
1, 100318, Note_off_c, 0, 80, 100
1, 101374, Note_on_c, 0, 45, 100
1, 101470, Note_off_c, 0, 45, 100
1, 101470, Note_on_c, 0, 51, 100
1, 101566, Note_off_c, 0, 51, 100
1, 101566, Note_on_c, 0, 55, 100
1, 101662, Note_off_c, 0, 55, 100
1, 101662, Note_on_c, 0, 50, 100
1, 101822, Note_off_c, 0, 50, 100
1, 101822, Note_on_c, 0, 51, 100
1, 101886, Note_off_c, 0, 51, 100
1, 101886, Note_on_c, 0, 55, 100
1, 101998, Note_off_c, 0, 55, 100
1, 101998, Note_on_c, 0, 59, 100
1, 102094, Note_off_c, 0, 59, 100
1, 102094, Note_on_c, 0, 63, 100
1, 102190, Note_off_c, 0, 63, 100
1, 102190, Note_on_c, 0, 62, 100
1, 102286, Note_off_c, 0, 62, 100
1, 102286, Note_on_c, 0, 59, 100
1, 102398, Note_off_c, 0, 59, 100
1, 102398, Note_on_c, 0, 55, 100
1, 102462, Note_off_c, 0, 55, 100
1, 102462, Note_on_c, 0, 60, 100
1, 102590, Note_off_c, 0, 60, 100
1, 102590, Note_on_c, 0, 62, 100
1, 102654, Note_off_c, 0, 62, 100
1, 102654, Note_on_c, 0, 63, 100
1, 102782, Note_off_c, 0, 63, 100
1, 102782, Note_on_c, 0, 65, 100
1, 102846, Note_off_c, 0, 65, 100
1, 102846, Note_on_c, 0, 67, 100
1, 102910, Note_off_c, 0, 67, 100
1, 102910, Note_on_c, 0, 70, 100
1, 103006, Note_off_c, 0, 70, 100
1, 103006, Note_on_c, 0, 67, 100
1, 103166, Note_off_c, 0, 67, 100
1, 103166, Note_on_c, 0, 68, 100
1, 103230, Note_off_c, 0, 68, 100
1, 103230, Note_on_c, 0, 71, 100
1, 103294, Note_off_c, 0, 71, 100
1, 103294, Note_on_c, 0, 73, 100
1, 103342, Note_off_c, 0, 73, 100
1, 103342, Note_on_c, 0, 75, 100
1, 103438, Note_off_c, 0, 75, 100
1, 103438, Note_on_c, 0, 79, 100
1, 103486, Note_off_c, 0, 79, 100
1, 103486, Note_on_c, 0, 80, 100
1, 103582, Note_off_c, 0, 80, 100
1, 103582, Note_on_c, 0, 79, 100
1, 103966, Note_off_c, 0, 79, 100
1, 103966, Note_on_c, 0, 75, 100
1, 104014, Note_off_c, 0, 75, 100
1, 104014, Note_on_c, 0, 76, 100
1, 104062, Note_off_c, 0, 76, 100
1, 104062, Note_on_c, 0, 72, 100
1, 104254, Note_off_c, 0, 72, 100
1, 104254, Note_on_c, 0, 68, 100
1, 104350, Note_off_c, 0, 68, 100
1, 104830, Note_on_c, 0, 45, 100
1, 104926, Note_off_c, 0, 45, 100
1, 104926, Note_on_c, 0, 51, 100
1, 105022, Note_off_c, 0, 51, 100
1, 105022, Note_on_c, 0, 55, 100
1, 105118, Note_off_c, 0, 55, 100
1, 105118, Note_on_c, 0, 51, 100
1, 105214, Note_off_c, 0, 51, 100
1, 105214, Note_on_c, 0, 48, 100
1, 105278, Note_off_c, 0, 48, 100
1, 105278, Note_on_c, 0, 50, 100
1, 105342, Note_off_c, 0, 50, 100
1, 105342, Note_on_c, 0, 53, 100
1, 105470, Note_off_c, 0, 53, 100
1, 105470, Note_on_c, 0, 52, 100
1, 105534, Note_off_c, 0, 52, 100
1, 105534, Note_on_c, 0, 51, 100
1, 105598, Note_off_c, 0, 51, 100
1, 105598, Note_on_c, 0, 53, 100
1, 105694, Note_off_c, 0, 53, 100
1, 105694, Note_on_c, 0, 58, 100
1, 105838, Note_off_c, 0, 58, 100
1, 105838, Note_on_c, 0, 62, 100
1, 105934, Note_off_c, 0, 62, 100
1, 105934, Note_on_c, 0, 65, 100
1, 106030, Note_off_c, 0, 65, 100
1, 106030, Note_on_c, 0, 62, 100
1, 106126, Note_off_c, 0, 62, 100
1, 106126, Note_on_c, 0, 58, 100
1, 106174, Note_off_c, 0, 58, 100
1, 106174, Note_on_c, 0, 55, 100
1, 106270, Note_off_c, 0, 55, 100
1, 106270, Note_on_c, 0, 60, 100
1, 106366, Note_off_c, 0, 60, 100
1, 106366, Note_on_c, 0, 63, 100
1, 106462, Note_off_c, 0, 63, 100
1, 106462, Note_on_c, 0, 62, 100
1, 106558, Note_off_c, 0, 62, 100
1, 106558, Note_on_c, 0, 60, 100
1, 106654, Note_off_c, 0, 60, 100
1, 106654, Note_on_c, 0, 59, 100
1, 106750, Note_off_c, 0, 59, 100
1, 106750, Note_on_c, 0, 58, 100
1, 106798, Note_off_c, 0, 58, 100
1, 106798, Note_on_c, 0, 55, 100
1, 106846, Note_off_c, 0, 55, 100
1, 106846, Note_on_c, 0, 57, 100
1, 106942, Note_off_c, 0, 57, 100
1, 106942, Note_on_c, 0, 59, 100
1, 107038, Note_off_c, 0, 59, 100
1, 107038, Note_on_c, 0, 60, 100
1, 107134, Note_off_c, 0, 60, 100
1, 107134, Note_on_c, 0, 62, 100
1, 107230, Note_off_c, 0, 62, 100
1, 107230, Note_on_c, 0, 63, 100
1, 107326, Note_off_c, 0, 63, 100
1, 107326, Note_on_c, 0, 65, 100
1, 107422, Note_off_c, 0, 65, 100
1, 107422, Note_on_c, 0, 66, 100
1, 107582, Note_off_c, 0, 66, 100
1, 107582, Note_on_c, 0, 67, 100
1, 107646, Note_off_c, 0, 67, 100
1, 107646, Note_on_c, 0, 68, 100
1, 107774, Note_off_c, 0, 68, 100
1, 107774, Note_on_c, 0, 66, 100
1, 107838, Note_off_c, 0, 66, 100
1, 107838, Note_on_c, 0, 67, 100
1, 107902, Note_off_c, 0, 67, 100
1, 107902, Note_on_c, 0, 66, 100
1, 108094, Note_off_c, 0, 66, 100
1, 108094, Note_on_c, 0, 65, 100
1, 108190, Note_off_c, 0, 65, 100
1, 108190, Note_on_c, 0, 64, 100
1, 108286, Note_off_c, 0, 64, 100
1, 108286, Note_on_c, 0, 63, 100
1, 108382, Note_off_c, 0, 63, 100
1, 108382, Note_on_c, 0, 65, 100
1, 108478, Note_off_c, 0, 65, 100
1, 108478, Note_on_c, 0, 67, 100
1, 108574, Note_off_c, 0, 67, 100
1, 108574, Note_on_c, 0, 70, 100
1, 108670, Note_off_c, 0, 70, 100
1, 108670, Note_on_c, 0, 73, 100
1, 108766, Note_off_c, 0, 73, 100
1, 108766, Note_on_c, 0, 74, 100
1, 108862, Note_off_c, 0, 74, 100
1, 108862, Note_on_c, 0, 70, 100
1, 108990, Note_off_c, 0, 70, 100
1, 108990, Note_on_c, 0, 67, 100
1, 109054, Note_off_c, 0, 67, 100
1, 109054, Note_on_c, 0, 71, 100
1, 109118, Note_off_c, 0, 71, 100
1, 109118, Note_on_c, 0, 72, 100
1, 109246, Note_off_c, 0, 72, 100
1, 109246, Note_on_c, 0, 71, 100
1, 109310, Note_off_c, 0, 71, 100
1, 109310, Note_on_c, 0, 69, 100
1, 109374, Note_off_c, 0, 69, 100
1, 109374, Note_on_c, 0, 67, 100
1, 109534, Note_off_c, 0, 67, 100
1, 109534, Note_on_c, 0, 67, 100
1, 109582, Note_off_c, 0, 67, 100
1, 109582, Note_on_c, 0, 69, 100
1, 109726, Note_off_c, 0, 69, 100
1, 109726, Note_on_c, 0, 72, 100
1, 109822, Note_off_c, 0, 72, 100
1, 109822, Note_on_c, 0, 71, 100
1, 109886, Note_off_c, 0, 71, 100
1, 109886, Note_on_c, 0, 69, 100
1, 109950, Note_off_c, 0, 69, 100
1, 109950, Note_on_c, 0, 70, 100
1, 110062, Note_off_c, 0, 70, 100
1, 110062, Note_on_c, 0, 67, 100
1, 110158, Note_off_c, 0, 67, 100
1, 110158, Note_on_c, 0, 68, 100
1, 110254, Note_off_c, 0, 68, 100
1, 110254, Note_on_c, 0, 72, 100
1, 110350, Note_off_c, 0, 72, 100
1, 110350, Note_on_c, 0, 75, 100
1, 110462, Note_off_c, 0, 75, 100
1, 110462, Note_on_c, 0, 79, 100
1, 110590, Note_off_c, 0, 79, 100
1, 110590, Note_on_c, 0, 81, 100
1, 111646, Note_off_c, 0, 81, 100
1, 111934, Note_on_c, 0, 78, 100
1, 111998, Note_off_c, 0, 78, 100
1, 111998, Note_on_c, 0, 80, 100
1, 112062, Note_off_c, 0, 80, 100
1, 112062, Note_on_c, 0, 79, 100
1, 112318, Note_off_c, 0, 79, 100
1, 112318, Note_on_c, 0, 75, 100
1, 112510, Note_off_c, 0, 75, 100
1, 112510, Note_on_c, 0, 72, 100
1, 112654, Note_off_c, 0, 72, 100
1, 112654, Note_on_c, 0, 67, 100
1, 112750, Note_off_c, 0, 67, 100
1, 112750, Note_on_c, 0, 68, 100
1, 112846, Note_off_c, 0, 68, 100
1, 112846, Note_on_c, 0, 67, 100
1, 113150, Note_off_c, 0, 67, 100
1, 113150, Note_on_c, 0, 63, 100
1, 113534, Note_off_c, 0, 63, 100
1, 114238, Note_on_c, 0, 67, 100
1, 114334, Note_off_c, 0, 67, 100
1, 114334, Note_on_c, 0, 69, 100
1, 114430, Note_off_c, 0, 69, 100
1, 114430, Note_on_c, 0, 71, 100
1, 114478, Note_off_c, 0, 71, 100
1, 114478, Note_on_c, 0, 72, 100
1, 114574, Note_off_c, 0, 72, 100
1, 114574, Note_on_c, 0, 71, 100
1, 114670, Note_off_c, 0, 71, 100
1, 114670, Note_on_c, 0, 69, 100
1, 114766, Note_off_c, 0, 69, 100
1, 114766, Note_on_c, 0, 67, 100
1, 114862, Note_off_c, 0, 67, 100
1, 114862, Note_on_c, 0, 69, 100
1, 114958, Note_off_c, 0, 69, 100
1, 114958, Note_on_c, 0, 71, 100
1, 115070, Note_off_c, 0, 71, 100
1, 115070, Note_on_c, 0, 67, 100
1, 115134, Note_off_c, 0, 67, 100
1, 115134, Note_on_c, 0, 70, 100
1, 115198, Note_off_c, 0, 70, 100
1, 115198, Note_on_c, 0, 66, 100
1, 115294, Note_off_c, 0, 66, 100
1, 115294, Note_on_c, 0, 65, 100
1, 115438, Note_off_c, 0, 65, 100
1, 115438, Note_on_c, 0, 64, 100
1, 115534, Note_off_c, 0, 64, 100
1, 115534, Note_on_c, 0, 63, 100
1, 115646, Note_off_c, 0, 63, 100
1, 115646, Note_on_c, 0, 65, 100
1, 115774, Note_off_c, 0, 65, 100
1, 115774, Note_on_c, 0, 62, 100
1, 115870, Note_off_c, 0, 62, 100
1, 115870, Note_on_c, 0, 60, 100
1, 115966, Note_off_c, 0, 60, 100
1, 115966, Note_on_c, 0, 59, 100
1, 116110, Note_off_c, 0, 59, 100
1, 116110, Note_on_c, 0, 57, 100
1, 116206, Note_off_c, 0, 57, 100
1, 116206, Note_on_c, 0, 62, 100
1, 116302, Note_off_c, 0, 62, 100
1, 116302, Note_on_c, 0, 58, 100
1, 116350, Note_off_c, 0, 58, 100
1, 116350, Note_on_c, 0, 60, 100
1, 116542, Note_off_c, 0, 60, 100
1, 116542, Note_on_c, 0, 63, 100
1, 116638, Note_off_c, 0, 63, 100
1, 116638, Note_on_c, 0, 67, 100
1, 116734, Note_off_c, 0, 67, 100
1, 116734, Note_on_c, 0, 70, 100
1, 116830, Note_off_c, 0, 70, 100
1, 116830, Note_on_c, 0, 67, 100
1, 116926, Note_off_c, 0, 67, 100
1, 116926, Note_on_c, 0, 68, 100
1, 116990, Note_off_c, 0, 68, 100
1, 116990, Note_on_c, 0, 72, 100
1, 117054, Note_off_c, 0, 72, 100
1, 117054, Note_on_c, 0, 75, 100
1, 117118, Note_off_c, 0, 75, 100
1, 117118, Note_on_c, 0, 79, 100
1, 117214, Note_off_c, 0, 79, 100
1, 117214, Note_on_c, 0, 80, 100
1, 117310, Note_off_c, 0, 80, 100
1, 117310, Note_on_c, 0, 79, 100
1, 117454, Note_off_c, 0, 79, 100
1, 117454, Note_on_c, 0, 80, 100
1, 117502, Note_off_c, 0, 80, 100
1, 117502, Note_on_c, 0, 81, 100
1, 118078, Note_off_c, 0, 81, 100
1, 118078, Note_on_c, 0, 82, 100
1, 118462, Note_off_c, 0, 82, 100
1, 119230, Note_on_c, 0, 67, 100
1, 119326, Note_off_c, 0, 67, 100
1, 119326, Note_on_c, 0, 69, 100
1, 119422, Note_off_c, 0, 69, 100
1, 119422, Note_on_c, 0, 70, 100
1, 119518, Note_off_c, 0, 70, 100
1, 119518, Note_on_c, 0, 72, 100
1, 119614, Note_off_c, 0, 72, 100
1, 119614, Note_on_c, 0, 69, 100
1, 119710, Note_off_c, 0, 69, 100
1, 119710, Note_on_c, 0, 67, 100
1, 119806, Note_off_c, 0, 67, 100
1, 119806, Note_on_c, 0, 65, 100
1, 119902, Note_off_c, 0, 65, 100
1, 119902, Note_on_c, 0, 64, 100
1, 119998, Note_off_c, 0, 64, 100
1, 119998, Note_on_c, 0, 63, 100
1, 120094, Note_off_c, 0, 63, 100
1, 120094, Note_on_c, 0, 65, 100
1, 120190, Note_off_c, 0, 65, 100
1, 120190, Note_on_c, 0, 61, 100
1, 120286, Note_off_c, 0, 61, 100
1, 120286, Note_on_c, 0, 62, 100
1, 120382, Note_off_c, 0, 62, 100
1, 120382, Note_on_c, 0, 65, 100
1, 120478, Note_off_c, 0, 65, 100
1, 120478, Note_on_c, 0, 64, 100
1, 120574, Note_off_c, 0, 64, 100
1, 120574, Note_on_c, 0, 63, 100
1, 120638, Note_off_c, 0, 63, 100
1, 120638, Note_on_c, 0, 65, 100
1, 120766, Note_off_c, 0, 65, 100
1, 120766, Note_on_c, 0, 62, 100
1, 120830, Note_off_c, 0, 62, 100
1, 120830, Note_on_c, 0, 60, 100
1, 120894, Note_off_c, 0, 60, 100
1, 120894, Note_on_c, 0, 59, 100
1, 121022, Note_off_c, 0, 59, 100
1, 121022, Note_on_c, 0, 62, 100
1, 121150, Note_off_c, 0, 62, 100
1, 121150, Note_on_c, 0, 65, 100
1, 121246, Note_off_c, 0, 65, 100
1, 121246, Note_on_c, 0, 67, 100
1, 121342, Note_off_c, 0, 67, 100
1, 121342, Note_on_c, 0, 68, 100
1, 121438, Note_off_c, 0, 68, 100
1, 121438, Note_on_c, 0, 67, 100
1, 121534, Note_off_c, 0, 67, 100
1, 121534, Note_on_c, 0, 66, 100
1, 121630, Note_off_c, 0, 66, 100
1, 121630, Note_on_c, 0, 67, 100
1, 121678, Note_off_c, 0, 67, 100
1, 121678, Note_on_c, 0, 70, 100
1, 121790, Note_off_c, 0, 70, 100
1, 121790, Note_on_c, 0, 68, 100
1, 121854, Note_off_c, 0, 68, 100
1, 121854, Note_on_c, 0, 63, 100
1, 122014, Note_off_c, 0, 63, 100
1, 122014, Note_on_c, 0, 60, 100
1, 122062, Note_off_c, 0, 60, 100
1, 122062, Note_on_c, 0, 67, 100
1, 122174, Note_off_c, 0, 67, 100
1, 122174, Note_on_c, 0, 65, 100
1, 122302, Note_off_c, 0, 65, 100
1, 122302, Note_on_c, 0, 61, 100
1, 122398, Note_off_c, 0, 61, 100
1, 122398, Note_on_c, 0, 56, 100
1, 122494, Note_off_c, 0, 56, 100
1, 122494, Note_on_c, 0, 64, 100
1, 122590, Note_off_c, 0, 64, 100
1, 122590, Note_on_c, 0, 62, 100
1, 122638, Note_off_c, 0, 62, 100
1, 122638, Note_on_c, 0, 58, 100
1, 122734, Note_off_c, 0, 58, 100
1, 122734, Note_on_c, 0, 52, 100
1, 122830, Note_off_c, 0, 52, 100
1, 122830, Note_on_c, 0, 61, 100
1, 122974, Note_off_c, 0, 61, 100
1, 122974, Note_on_c, 0, 60, 100
1, 123022, Note_off_c, 0, 60, 100
1, 123022, Note_on_c, 0, 59, 100
1, 123118, Note_off_c, 0, 59, 100
1, 123118, Note_on_c, 0, 57, 100
1, 123214, Note_off_c, 0, 57, 100
1, 123214, Note_on_c, 0, 58, 100
1, 123310, Note_off_c, 0, 58, 100
1, 123310, Note_on_c, 0, 56, 100
1, 123406, Note_off_c, 0, 56, 100
1, 123406, Note_on_c, 0, 55, 100
1, 123518, Note_off_c, 0, 55, 100
1, 123518, Note_on_c, 0, 53, 100
1, 123646, Note_off_c, 0, 53, 100
1, 123646, Note_on_c, 0, 51, 100
1, 123838, Note_off_c, 0, 51, 100
1, 123838, Note_on_c, 0, 63, 100
1, 124078, Note_off_c, 0, 63, 100
1, 124078, Note_on_c, 0, 69, 100
1, 124174, Note_off_c, 0, 69, 100
1, 124174, Note_on_c, 0, 71, 100
1, 124558, Note_off_c, 0, 71, 100
1, 125182, Note_on_c, 0, 70, 100
1, 125278, Note_off_c, 0, 70, 100
1, 125278, Note_on_c, 0, 72, 100
1, 125758, Note_off_c, 0, 72, 100
1, 126286, Note_on_c, 0, 70, 100
1, 126526, Note_off_c, 0, 70, 100
1, 126526, Note_on_c, 0, 67, 100
1, 126814, Note_off_c, 0, 67, 100
1, 126814, Note_on_c, 0, 70, 100
1, 126910, Note_off_c, 0, 70, 100
1, 126910, Note_on_c, 0, 73, 100
1, 127246, Note_off_c, 0, 73, 100
1, 127246, Note_on_c, 0, 72, 100
1, 127342, Note_off_c, 0, 72, 100
1, 127342, Note_on_c, 0, 70, 100
1, 127438, Note_off_c, 0, 70, 100
1, 127438, Note_on_c, 0, 69, 100
1, 128062, Note_off_c, 0, 69, 100
1, 128062, Note_on_c, 0, 67, 100
1, 128254, Note_off_c, 0, 67, 100
1, 128254, Note_on_c, 0, 65, 100
1, 128398, Note_off_c, 0, 65, 100
1, 128398, Note_on_c, 0, 67, 100
1, 128542, Note_off_c, 0, 67, 100
1, 128542, Note_on_c, 0, 68, 100
1, 128638, Note_off_c, 0, 68, 100
1, 128638, Note_on_c, 0, 67, 100
1, 128782, Note_off_c, 0, 67, 100
1, 128782, Note_on_c, 0, 65, 100
1, 129358, Note_off_c, 0, 65, 100
1, 130222, Note_on_c, 0, 67, 100
1, 130318, Note_off_c, 0, 67, 100
1, 130318, Note_on_c, 0, 69, 100
1, 130366, Note_off_c, 0, 69, 100
1, 130366, Note_on_c, 0, 71, 100
1, 130462, Note_off_c, 0, 71, 100
1, 130462, Note_on_c, 0, 75, 100
1, 130558, Note_off_c, 0, 75, 100
1, 130558, Note_on_c, 0, 78, 100
1, 130606, Note_off_c, 0, 78, 100
1, 130606, Note_on_c, 0, 79, 100
1, 130846, Note_off_c, 0, 79, 100
1, 130846, Note_on_c, 0, 75, 100
1, 130942, Note_off_c, 0, 75, 100
1, 130942, Note_on_c, 0, 71, 100
1, 131134, Note_off_c, 0, 71, 100
1, 131134, Note_on_c, 0, 70, 100
1, 131230, Note_off_c, 0, 70, 100
1, 131230, Note_on_c, 0, 75, 100
1, 131326, Note_off_c, 0, 75, 100
1, 131326, Note_on_c, 0, 73, 100
1, 131422, Note_off_c, 0, 73, 100
1, 131422, Note_on_c, 0, 71, 100
1, 131470, Note_off_c, 0, 71, 100
1, 131470, Note_on_c, 0, 70, 100
1, 131582, Note_off_c, 0, 70, 100
1, 131582, Note_on_c, 0, 68, 100
1, 131710, Note_off_c, 0, 68, 100
1, 131710, Note_on_c, 0, 67, 100
1, 131806, Note_off_c, 0, 67, 100
1, 131806, Note_on_c, 0, 66, 100
1, 131902, Note_off_c, 0, 66, 100
1, 131902, Note_on_c, 0, 65, 100
1, 131998, Note_off_c, 0, 65, 100
1, 131998, Note_on_c, 0, 64, 100
1, 132094, Note_off_c, 0, 64, 100
1, 132094, Note_on_c, 0, 63, 100
1, 132190, Note_off_c, 0, 63, 100
1, 132190, Note_on_c, 0, 65, 100
1, 132286, Note_off_c, 0, 65, 100
1, 132286, Note_on_c, 0, 67, 100
1, 132382, Note_off_c, 0, 67, 100
1, 132382, Note_on_c, 0, 63, 100
1, 132478, Note_off_c, 0, 63, 100
1, 132478, Note_on_c, 0, 65, 100
1, 132574, Note_off_c, 0, 65, 100
1, 132574, Note_on_c, 0, 61, 100
1, 132670, Note_off_c, 0, 61, 100
1, 132670, Note_on_c, 0, 58, 100
1, 132766, Note_off_c, 0, 58, 100
1, 132766, Note_on_c, 0, 53, 100
1, 132862, Note_off_c, 0, 53, 100
1, 132862, Note_on_c, 0, 58, 100
1, 132958, Note_off_c, 0, 58, 100
1, 132958, Note_on_c, 0, 65, 100
1, 133054, Note_off_c, 0, 65, 100
1, 133054, Note_on_c, 0, 62, 100
1, 133102, Note_off_c, 0, 62, 100
1, 133102, Note_on_c, 0, 60, 100
1, 133198, Note_off_c, 0, 60, 100
1, 133198, Note_on_c, 0, 62, 100
1, 133310, Note_off_c, 0, 62, 100
1, 133310, Note_on_c, 0, 60, 100
1, 133438, Note_off_c, 0, 60, 100
1, 133438, Note_on_c, 0, 57, 100
1, 133534, Note_off_c, 0, 57, 100
1, 133534, Note_on_c, 0, 53, 100
1, 133582, Note_off_c, 0, 53, 100
1, 133582, Note_on_c, 0, 55, 100
1, 133726, Note_off_c, 0, 55, 100
1, 133726, Note_on_c, 0, 51, 100
1, 133822, Note_off_c, 0, 51, 100
1, 133822, Note_on_c, 0, 48, 100
1, 133918, Note_off_c, 0, 48, 100
1, 133918, Note_on_c, 0, 53, 100
1, 134110, Note_off_c, 0, 53, 100
1, 134110, Note_on_c, 0, 56, 100
1, 134206, Note_off_c, 0, 56, 100
1, 134206, Note_on_c, 0, 58, 100
1, 134302, Note_off_c, 0, 58, 100
1, 134302, Note_on_c, 0, 62, 100
1, 134350, Note_off_c, 0, 62, 100
1, 134350, Note_on_c, 0, 65, 100
1, 134462, Note_off_c, 0, 65, 100
1, 134462, Note_on_c, 0, 61, 100
1, 134526, Note_off_c, 0, 61, 100
1, 134526, Note_on_c, 0, 57, 100
1, 134638, Note_off_c, 0, 57, 100
1, 134638, Note_on_c, 0, 55, 100
1, 134734, Note_off_c, 0, 55, 100
1, 134734, Note_on_c, 0, 58, 100
1, 134830, Note_off_c, 0, 58, 100
1, 134830, Note_on_c, 0, 60, 100
1, 134926, Note_off_c, 0, 60, 100
1, 134926, Note_on_c, 0, 61, 100
1, 134974, Note_off_c, 0, 61, 100
1, 134974, Note_on_c, 0, 63, 100
1, 135166, Note_off_c, 0, 63, 100
1, 135166, Note_on_c, 0, 65, 100
1, 135262, Note_off_c, 0, 65, 100
1, 135262, Note_on_c, 0, 67, 100
1, 135358, Note_off_c, 0, 67, 100
1, 135358, Note_on_c, 0, 68, 100
1, 135422, Note_off_c, 0, 68, 100
1, 135422, Note_on_c, 0, 70, 100
1, 135486, Note_off_c, 0, 70, 100
1, 135486, Note_on_c, 0, 72, 100
1, 135694, Note_off_c, 0, 72, 100
1, 135694, Note_on_c, 0, 70, 100
1, 135838, Note_off_c, 0, 70, 100
1, 135838, Note_on_c, 0, 68, 100
1, 135886, Note_off_c, 0, 68, 100
1, 135886, Note_on_c, 0, 70, 100
1, 136078, Note_off_c, 0, 70, 100
1, 136414, Note_on_c, 0, 68, 100
1, 136510, Note_off_c, 0, 68, 100
1, 136510, Note_on_c, 0, 67, 100
1, 136702, Note_off_c, 0, 67, 100
1, 136702, Note_on_c, 0, 68, 100
1, 136894, Note_off_c, 0, 68, 100
1, 137230, Note_on_c, 0, 67, 100
1, 137342, Note_off_c, 0, 67, 100
1, 137342, Note_on_c, 0, 65, 100
1, 137534, Note_off_c, 0, 65, 100
1, 137534, Note_on_c, 0, 67, 100
1, 137822, Note_off_c, 0, 67, 100
1, 138238, Note_on_c, 0, 65, 100
1, 138334, Note_off_c, 0, 65, 100
1, 138334, Note_on_c, 0, 63, 100
1, 138430, Note_off_c, 0, 63, 100
1, 138430, Note_on_c, 0, 65, 100
1, 138718, Note_off_c, 0, 65, 100
1, 139198, Note_on_c, 0, 63, 100
1, 139390, Note_off_c, 0, 63, 100
1, 139390, Note_on_c, 0, 61, 100
1, 139774, Note_off_c, 0, 61, 100
1, 139774, Note_on_c, 0, 63, 100
1, 140030, Note_off_c, 0, 63, 100
1, 140030, Note_on_c, 0, 61, 100
1, 140254, Note_off_c, 0, 61, 100
1, 140254, Note_on_c, 0, 63, 100
1, 140542, Note_off_c, 0, 63, 100
1, 140542, Note_on_c, 0, 61, 100
1, 140638, Note_off_c, 0, 61, 100
1, 141406, Note_on_c, 0, 53, 100
1, 141502, Note_off_c, 0, 53, 100
1, 141502, Note_on_c, 0, 55, 100
1, 141550, Note_off_c, 0, 55, 100
1, 141550, Note_on_c, 0, 56, 100
1, 141598, Note_off_c, 0, 56, 100
1, 141598, Note_on_c, 0, 58, 100
1, 141694, Note_off_c, 0, 58, 100
1, 141694, Note_on_c, 0, 61, 100
1, 141790, Note_off_c, 0, 61, 100
1, 141790, Note_on_c, 0, 63, 100
1, 141886, Note_off_c, 0, 63, 100
1, 141886, Note_on_c, 0, 65, 100
1, 141934, Note_off_c, 0, 65, 100
1, 141934, Note_on_c, 0, 67, 100
1, 141982, Note_off_c, 0, 67, 100
1, 141982, Note_on_c, 0, 68, 100
1, 142030, Note_off_c, 0, 68, 100
1, 142030, Note_on_c, 0, 70, 100
1, 142078, Note_off_c, 0, 70, 100
1, 142078, Note_on_c, 0, 71, 100
1, 142126, Note_off_c, 0, 71, 100
1, 142126, Note_on_c, 0, 72, 100
1, 142366, Note_off_c, 0, 72, 100
1, 142366, Note_on_c, 0, 70, 100
1, 142654, Note_off_c, 0, 70, 100
1, 142654, Note_on_c, 0, 72, 100
1, 142846, Note_off_c, 0, 72, 100
1, 142846, Note_on_c, 0, 68, 100
1, 143518, Note_off_c, 0, 68, 100
1, 143518, Note_on_c, 0, 72, 100
1, 143758, Note_off_c, 0, 72, 100
1, 143758, Note_on_c, 0, 70, 100
1, 143998, Note_off_c, 0, 70, 100
1, 143998, Note_on_c, 0, 72, 100
1, 144142, Note_off_c, 0, 72, 100
1, 144142, Note_on_c, 0, 67, 100
1, 144190, Note_off_c, 0, 67, 100
1, 144190, Note_on_c, 0, 68, 100
1, 144382, Note_off_c, 0, 68, 100
1, 144382, Note_on_c, 0, 72, 100
1, 144446, Note_off_c, 0, 72, 100
1, 144446, Note_on_c, 0, 67, 100
1, 144830, Note_off_c, 0, 67, 100
1, 145342, Note_on_c, 0, 72, 100
1, 145438, Note_off_c, 0, 72, 100
1, 145438, Note_on_c, 0, 73, 100
1, 145534, Note_off_c, 0, 73, 100
1, 145534, Note_on_c, 0, 72, 100
1, 145630, Note_off_c, 0, 72, 100
1, 145630, Note_on_c, 0, 70, 100
1, 145726, Note_off_c, 0, 70, 100
1, 145726, Note_on_c, 0, 69, 100
1, 145774, Note_off_c, 0, 69, 100
1, 145774, Note_on_c, 0, 72, 100
1, 145870, Note_off_c, 0, 72, 100
1, 145870, Note_on_c, 0, 70, 100
1, 146014, Note_off_c, 0, 70, 100
1, 146014, Note_on_c, 0, 68, 100
1, 146110, Note_off_c, 0, 68, 100
1, 146110, Note_on_c, 0, 67, 100
1, 146206, Note_off_c, 0, 67, 100
1, 146206, Note_on_c, 0, 71, 100
1, 146302, Note_off_c, 0, 71, 100
1, 146302, Note_on_c, 0, 69, 100
1, 146398, Note_off_c, 0, 69, 100
1, 146398, Note_on_c, 0, 68, 100
1, 146494, Note_off_c, 0, 68, 100
1, 146494, Note_on_c, 0, 67, 100
1, 146590, Note_off_c, 0, 67, 100
1, 146590, Note_on_c, 0, 71, 100
1, 146686, Note_off_c, 0, 71, 100
1, 146686, Note_on_c, 0, 69, 100
1, 146782, Note_off_c, 0, 69, 100
1, 146782, Note_on_c, 0, 67, 100
1, 146878, Note_off_c, 0, 67, 100
1, 146878, Note_on_c, 0, 66, 100
1, 146974, Note_off_c, 0, 66, 100
1, 146974, Note_on_c, 0, 69, 100
1, 147070, Note_off_c, 0, 69, 100
1, 147070, Note_on_c, 0, 65, 100
1, 147166, Note_off_c, 0, 65, 100
1, 147166, Note_on_c, 0, 64, 100
1, 147262, Note_off_c, 0, 64, 100
1, 147262, Note_on_c, 0, 63, 100
1, 147358, Note_off_c, 0, 63, 100
1, 147358, Note_on_c, 0, 65, 100
1, 147406, Note_off_c, 0, 65, 100
1, 147406, Note_on_c, 0, 67, 100
1, 147502, Note_off_c, 0, 67, 100
1, 147502, Note_on_c, 0, 70, 100
1, 147598, Note_off_c, 0, 70, 100
1, 147598, Note_on_c, 0, 65, 100
1, 147710, Note_off_c, 0, 65, 100
1, 147710, Note_on_c, 0, 64, 100
1, 147774, Note_off_c, 0, 64, 100
1, 147774, Note_on_c, 0, 63, 100
1, 147886, Note_off_c, 0, 63, 100
1, 147886, Note_on_c, 0, 62, 100
1, 147982, Note_off_c, 0, 62, 100
1, 147982, Note_on_c, 0, 61, 100
1, 148094, Note_off_c, 0, 61, 100
1, 148094, Note_on_c, 0, 65, 100
1, 148222, Note_off_c, 0, 65, 100
1, 148222, Note_on_c, 0, 63, 100
1, 148270, Note_off_c, 0, 63, 100
1, 148270, Note_on_c, 0, 61, 100
1, 148366, Note_off_c, 0, 61, 100
1, 148366, Note_on_c, 0, 60, 100
1, 148414, Note_off_c, 0, 60, 100
1, 148414, Note_on_c, 0, 59, 100
1, 148510, Note_off_c, 0, 59, 100
1, 148510, Note_on_c, 0, 58, 100
1, 148606, Note_off_c, 0, 58, 100
1, 148606, Note_on_c, 0, 57, 100
1, 148654, Note_off_c, 0, 57, 100
1, 148654, Note_on_c, 0, 56, 100
1, 148702, Note_off_c, 0, 56, 100
1, 148702, Note_on_c, 0, 55, 100
1, 148798, Note_off_c, 0, 55, 100
1, 148798, Note_on_c, 0, 54, 100
1, 148894, Note_off_c, 0, 54, 100
1, 148894, Note_on_c, 0, 53, 100
1, 148990, Note_off_c, 0, 53, 100
1, 148990, Note_on_c, 0, 52, 100
1, 149086, Note_off_c, 0, 52, 100
1, 149086, Note_on_c, 0, 51, 100
1, 149246, Note_off_c, 0, 51, 100
1, 149246, Note_on_c, 0, 53, 100
1, 149374, Note_off_c, 0, 53, 100
1, 149374, Note_on_c, 0, 50, 100
1, 149578, Note_off_c, 0, 50, 100
1, 149578, End_track
0, 0, End_of_file
