0, 0, Header, 1, 1, 192
1, 0, Start_track
1, 0, Title_t, "Melody"
1, 0, Tempo, 434782
1, 0, Key_signature, -3, "major"
1, 0, Time_signature, 4, 2, 24, 8
1, 144, Note_on_c, 0, 69, 100
1, 192, Note_off_c, 0, 69, 100
1, 192, Note_on_c, 0, 72, 100
1, 240, Note_off_c, 0, 72, 100
1, 240, Note_on_c, 0, 74, 100
1, 288, Note_off_c, 0, 74, 100
1, 288, Note_on_c, 0, 77, 100
1, 336, Note_off_c, 0, 77, 100
1, 336, Note_on_c, 0, 79, 100
1, 384, Note_off_c, 0, 79, 100
1, 384, Note_on_c, 0, 81, 100
1, 432, Note_off_c, 0, 81, 100
1, 432, Note_on_c, 0, 84, 100
1, 480, Note_off_c, 0, 84, 100
1, 480, Note_on_c, 0, 86, 100
1, 528, Note_off_c, 0, 86, 100
1, 528, Note_on_c, 0, 84, 100
1, 672, Note_off_c, 0, 84, 100
1, 672, Note_on_c, 0, 82, 100
1, 720, Note_off_c, 0, 82, 100
1, 720, Note_on_c, 0, 84, 100
1, 768, Note_off_c, 0, 84, 100
1, 768, Note_on_c, 0, 82, 100
1, 864, Note_off_c, 0, 82, 100
1, 864, Note_on_c, 0, 79, 100
1, 912, Note_off_c, 0, 79, 100
1, 912, Note_on_c, 0, 81, 100
1, 960, Note_off_c, 0, 81, 100
1, 960, Note_on_c, 0, 79, 100
1, 1008, Note_off_c, 0, 79, 100
1, 1008, Note_on_c, 0, 77, 100
1, 1056, Note_off_c, 0, 77, 100
1, 1056, Note_on_c, 0, 75, 100
1, 1104, Note_off_c, 0, 75, 100
1, 1104, Note_on_c, 0, 72, 100
1, 1200, Note_off_c, 0, 72, 100
1, 1200, Note_on_c, 0, 69, 100
1, 1248, Note_off_c, 0, 69, 100
1, 1248, Note_on_c, 0, 72, 100
1, 1296, Note_off_c, 0, 72, 100
1, 1296, Note_on_c, 0, 74, 100
1, 1344, Note_off_c, 0, 74, 100
1, 1344, Note_on_c, 0, 75, 100
1, 1392, Note_off_c, 0, 75, 100
1, 1392, Note_on_c, 0, 77, 100
1, 1488, Note_off_c, 0, 77, 100
1, 1488, Note_on_c, 0, 72, 100
1, 1536, Note_off_c, 0, 72, 100
1, 1536, Note_on_c, 0, 72, 100
1, 1632, Note_off_c, 0, 72, 100
1, 2064, Note_on_c, 0, 67, 100
1, 2112, Note_off_c, 0, 67, 100
1, 2112, Note_on_c, 0, 72, 100
1, 2160, Note_off_c, 0, 72, 100
1, 2160, Note_on_c, 0, 75, 100
1, 2208, Note_off_c, 0, 75, 100
1, 2208, Note_on_c, 0, 77, 100
1, 2352, Note_off_c, 0, 77, 100
1, 2352, Note_on_c, 0, 78, 100
1, 2400, Note_off_c, 0, 78, 100
1, 2400, Note_on_c, 0, 77, 100
1, 2448, Note_off_c, 0, 77, 100
1, 2448, Note_on_c, 0, 75, 100
1, 2496, Note_off_c, 0, 75, 100
1, 2496, Note_on_c, 0, 72, 100
1, 2592, Note_off_c, 0, 72, 100
1, 2592, Note_on_c, 0, 70, 100
1, 2688, Note_off_c, 0, 70, 100
1, 2688, Note_on_c, 0, 67, 100
1, 2784, Note_off_c, 0, 67, 100
1, 2784, Note_on_c, 0, 65, 100
1, 2880, Note_off_c, 0, 65, 100
1, 2880, Note_on_c, 0, 63, 100
1, 3024, Note_off_c, 0, 63, 100
1, 3024, Note_on_c, 0, 66, 100
1, 3072, Note_off_c, 0, 66, 100
1, 3072, Note_on_c, 0, 65, 100
1, 3168, Note_off_c, 0, 65, 100
1, 3168, Note_on_c, 0, 66, 100
1, 3264, Note_off_c, 0, 66, 100
1, 3264, Note_on_c, 0, 65, 100
1, 3360, Note_off_c, 0, 65, 100
1, 3360, Note_on_c, 0, 66, 100
1, 3408, Note_off_c, 0, 66, 100
1, 3408, Note_on_c, 0, 72, 100
1, 3456, Note_off_c, 0, 72, 100
1, 3456, Note_on_c, 0, 63, 100
1, 3552, Note_off_c, 0, 63, 100
1, 3552, Note_on_c, 0, 65, 100
1, 3600, Note_off_c, 0, 65, 100
1, 3600, Note_on_c, 0, 63, 100
1, 3648, Note_off_c, 0, 63, 100
1, 3648, Note_on_c, 0, 60, 100
1, 3936, Note_off_c, 0, 60, 100
1, 3936, Note_on_c, 0, 60, 100
1, 4032, Note_off_c, 0, 60, 100
1, 4032, Note_on_c, 0, 63, 100
1, 4096, Note_off_c, 0, 63, 100
1, 4096, Note_on_c, 0, 65, 100
1, 4160, Note_off_c, 0, 65, 100
1, 4160, Note_on_c, 0, 67, 100
1, 4224, Note_off_c, 0, 67, 100
1, 4224, Note_on_c, 0, 68, 100
1, 4320, Note_off_c, 0, 68, 100
1, 4320, Note_on_c, 0, 70, 100
1, 4368, Note_off_c, 0, 70, 100
1, 4368, Note_on_c, 0, 68, 100
1, 4416, Note_off_c, 0, 68, 100
1, 4416, Note_on_c, 0, 63, 100
1, 4512, Note_off_c, 0, 63, 100
1, 4512, Note_on_c, 0, 65, 100
1, 4608, Note_off_c, 0, 65, 100
1, 4608, Note_on_c, 0, 63, 100
1, 4752, Note_off_c, 0, 63, 100
1, 4752, Note_on_c, 0, 66, 100
1, 4800, Note_off_c, 0, 66, 100
1, 4800, Note_on_c, 0, 69, 100
1, 4896, Note_off_c, 0, 69, 100
1, 4896, Note_on_c, 0, 72, 100
1, 4992, Note_off_c, 0, 72, 100
1, 4992, Note_on_c, 0, 74, 100
1, 5136, Note_off_c, 0, 74, 100
1, 5136, Note_on_c, 0, 71, 100
1, 5184, Note_off_c, 0, 71, 100
1, 5184, Note_on_c, 0, 72, 100
1, 5280, Note_off_c, 0, 72, 100
1, 5280, Note_on_c, 0, 74, 100
1, 5376, Note_off_c, 0, 74, 100
1, 5376, Note_on_c, 0, 75, 100
1, 5568, Note_off_c, 0, 75, 100
1, 5568, Note_on_c, 0, 77, 100
1, 5664, Note_off_c, 0, 77, 100
1, 5664, Note_on_c, 0, 75, 100
1, 5798, Note_off_c, 0, 75, 100
1, 5798, Note_on_c, 0, 72, 100
1, 5874, Note_off_c, 0, 72, 100
1, 5874, Note_on_c, 0, 75, 100
1, 5912, Note_off_c, 0, 75, 100
1, 5912, Note_on_c, 0, 76, 100
1, 5950, Note_off_c, 0, 76, 100
1, 5950, Note_on_c, 0, 77, 100
1, 6046, Note_off_c, 0, 77, 100
1, 6046, Note_on_c, 0, 75, 100
1, 6190, Note_off_c, 0, 75, 100
1, 6190, Note_on_c, 0, 69, 100
1, 6286, Note_off_c, 0, 69, 100
1, 6286, Note_on_c, 0, 72, 100
1, 6334, Note_off_c, 0, 72, 100
1, 6334, Note_on_c, 0, 74, 100
1, 6526, Note_off_c, 0, 74, 100
1, 6526, Note_on_c, 0, 75, 100
1, 6622, Note_off_c, 0, 75, 100
1, 6622, Note_on_c, 0, 72, 100
1, 6718, Note_off_c, 0, 72, 100
1, 6718, Note_on_c, 0, 67, 100
1, 7006, Note_off_c, 0, 67, 100
1, 7006, Note_on_c, 0, 60, 100
1, 7102, Note_off_c, 0, 60, 100
1, 7102, Note_on_c, 0, 61, 100
1, 7166, Note_off_c, 0, 61, 100
1, 7166, Note_on_c, 0, 62, 100
1, 7230, Note_off_c, 0, 62, 100
1, 7230, Note_on_c, 0, 63, 100
1, 7294, Note_off_c, 0, 63, 100
1, 7294, Note_on_c, 0, 65, 100
1, 7358, Note_off_c, 0, 65, 100
1, 7358, Note_on_c, 0, 67, 100
1, 7422, Note_off_c, 0, 67, 100
1, 7422, Note_on_c, 0, 68, 100
1, 7486, Note_off_c, 0, 68, 100
1, 7486, Note_on_c, 0, 70, 100
1, 7550, Note_off_c, 0, 70, 100
1, 7550, Note_on_c, 0, 71, 100
1, 7614, Note_off_c, 0, 71, 100
1, 7614, Note_on_c, 0, 72, 100
1, 7678, Note_off_c, 0, 72, 100
1, 7678, Note_on_c, 0, 67, 100
1, 7774, Note_off_c, 0, 67, 100
1, 7966, Note_on_c, 0, 65, 100
1, 8062, Note_off_c, 0, 65, 100
1, 8062, Note_on_c, 0, 63, 100
1, 8190, Note_off_c, 0, 63, 100
1, 8190, Note_on_c, 0, 60, 100
1, 8398, Note_off_c, 0, 60, 100
1, 8398, Note_on_c, 0, 60, 100
1, 8446, Note_off_c, 0, 60, 100
1, 8446, Note_on_c, 0, 64, 100
1, 8494, Note_off_c, 0, 64, 100
1, 8494, Note_on_c, 0, 65, 100
1, 8590, Note_off_c, 0, 65, 100
1, 8590, Note_on_c, 0, 60, 100
1, 8638, Note_off_c, 0, 60, 100
1, 8638, Note_on_c, 0, 64, 100
1, 8686, Note_off_c, 0, 64, 100
1, 8686, Note_on_c, 0, 65, 100
1, 8782, Note_off_c, 0, 65, 100
1, 8782, Note_on_c, 0, 65, 100
1, 8974, Note_off_c, 0, 65, 100
1, 8974, Note_on_c, 0, 60, 100
1, 9022, Note_off_c, 0, 60, 100
1, 9022, Note_on_c, 0, 63, 100
1, 9118, Note_off_c, 0, 63, 100
1, 9118, Note_on_c, 0, 77, 100
1, 9214, Note_off_c, 0, 77, 100
1, 9214, Note_on_c, 0, 78, 100
1, 9278, Note_off_c, 0, 78, 100
1, 9278, Note_on_c, 0, 79, 100
1, 9342, Note_off_c, 0, 79, 100
1, 9342, Note_on_c, 0, 79, 100
1, 9406, Note_off_c, 0, 79, 100
1, 9406, Note_on_c, 0, 79, 100
1, 9470, Note_off_c, 0, 79, 100
1, 9470, Note_on_c, 0, 79, 100
1, 9534, Note_off_c, 0, 79, 100
1, 9534, Note_on_c, 0, 79, 100
1, 9598, Note_off_c, 0, 79, 100
1, 9598, Note_on_c, 0, 78, 100
1, 9662, Note_off_c, 0, 78, 100
1, 9662, Note_on_c, 0, 79, 100
1, 9726, Note_off_c, 0, 79, 100
1, 9726, Note_on_c, 0, 79, 100
1, 9790, Note_off_c, 0, 79, 100
1, 9790, Note_on_c, 0, 79, 100
1, 9854, Note_off_c, 0, 79, 100
1, 9854, Note_on_c, 0, 79, 100
1, 9918, Note_off_c, 0, 79, 100
1, 9918, Note_on_c, 0, 79, 100
1, 9982, Note_off_c, 0, 79, 100
1, 9982, Note_on_c, 0, 78, 100
1, 10030, Note_off_c, 0, 78, 100
1, 10030, Note_on_c, 0, 77, 100
1, 10078, Note_off_c, 0, 77, 100
1, 10078, Note_on_c, 0, 75, 100
1, 10126, Note_off_c, 0, 75, 100
1, 10126, Note_on_c, 0, 72, 100
1, 10174, Note_off_c, 0, 72, 100
1, 10174, Note_on_c, 0, 75, 100
1, 10270, Note_off_c, 0, 75, 100
1, 10270, Note_on_c, 0, 77, 100
1, 10462, Note_off_c, 0, 77, 100
1, 10462, Note_on_c, 0, 78, 100
1, 10510, Note_off_c, 0, 78, 100
1, 10510, Note_on_c, 0, 77, 100
1, 10558, Note_off_c, 0, 77, 100
1, 10558, Note_on_c, 0, 75, 100
1, 10606, Note_off_c, 0, 75, 100
1, 10606, Note_on_c, 0, 72, 100
1, 10702, Note_off_c, 0, 72, 100
1, 10702, Note_on_c, 0, 70, 100
1, 10750, Note_off_c, 0, 70, 100
1, 10750, Note_on_c, 0, 67, 100
1, 10878, Note_off_c, 0, 67, 100
1, 10878, Note_on_c, 0, 69, 100
1, 10942, Note_off_c, 0, 69, 100
1, 10942, Note_on_c, 0, 72, 100
1, 11038, Note_off_c, 0, 72, 100
1, 11038, Note_on_c, 0, 74, 100
1, 11134, Note_off_c, 0, 74, 100
1, 11134, Note_on_c, 0, 75, 100
1, 11230, Note_off_c, 0, 75, 100
1, 11230, Note_on_c, 0, 72, 100
1, 11326, Note_off_c, 0, 72, 100
1, 11326, Note_on_c, 0, 70, 100
1, 11422, Note_off_c, 0, 70, 100
1, 11422, Note_on_c, 0, 67, 100
1, 11518, Note_off_c, 0, 67, 100
1, 11518, Note_on_c, 0, 65, 100
1, 11614, Note_off_c, 0, 65, 100
1, 11614, Note_on_c, 0, 68, 100
1, 11662, Note_off_c, 0, 68, 100
1, 11662, Note_on_c, 0, 65, 100
1, 11710, Note_off_c, 0, 65, 100
1, 11710, Note_on_c, 0, 63, 100
1, 11806, Note_off_c, 0, 63, 100
1, 11806, Note_on_c, 0, 60, 100
1, 11950, Note_off_c, 0, 60, 100
1, 11950, Note_on_c, 0, 58, 100
1, 12046, Note_off_c, 0, 58, 100
1, 12046, Note_on_c, 0, 55, 100
1, 12094, Note_off_c, 0, 55, 100
1, 12094, Note_on_c, 0, 60, 100
1, 12190, Note_off_c, 0, 60, 100
1, 12190, Note_on_c, 0, 62, 100
1, 12324, Note_off_c, 0, 62, 100
1, 12324, Note_on_c, 0, 62, 100
1, 12362, Note_off_c, 0, 62, 100
1, 12362, Note_on_c, 0, 63, 100
1, 12400, Note_off_c, 0, 63, 100
1, 12400, Note_on_c, 0, 64, 100
1, 12438, Note_off_c, 0, 64, 100
1, 12438, Note_on_c, 0, 63, 100
1, 12476, Note_off_c, 0, 63, 100
1, 12476, Note_on_c, 0, 62, 100
1, 12620, Note_off_c, 0, 62, 100
1, 12620, Note_on_c, 0, 60, 100
1, 12668, Note_off_c, 0, 60, 100
1, 12668, Note_on_c, 0, 63, 100
1, 12764, Note_off_c, 0, 63, 100
1, 13100, Note_on_c, 0, 65, 100
1, 13148, Note_off_c, 0, 65, 100
1, 13148, Note_on_c, 0, 69, 100
1, 13196, Note_off_c, 0, 69, 100
1, 13196, Note_on_c, 0, 68, 100
1, 13292, Note_off_c, 0, 68, 100
1, 13292, Note_on_c, 0, 70, 100
1, 13340, Note_off_c, 0, 70, 100
1, 13340, Note_on_c, 0, 71, 100
1, 13388, Note_off_c, 0, 71, 100
1, 13388, Note_on_c, 0, 73, 100
1, 13436, Note_off_c, 0, 73, 100
1, 13436, Note_on_c, 0, 76, 100
1, 13484, Note_off_c, 0, 76, 100
1, 13484, Note_on_c, 0, 83, 100
1, 13532, Note_off_c, 0, 83, 100
1, 13532, Note_on_c, 0, 80, 100
1, 13580, Note_off_c, 0, 80, 100
1, 13580, Note_on_c, 0, 81, 100
1, 13628, Note_off_c, 0, 81, 100
1, 13628, Note_on_c, 0, 82, 100
1, 13724, Note_off_c, 0, 82, 100
1, 13724, Note_on_c, 0, 75, 100
1, 13772, Note_off_c, 0, 75, 100
1, 13772, Note_on_c, 0, 80, 100
1, 13820, Note_off_c, 0, 80, 100
1, 13820, Note_on_c, 0, 77, 100
1, 13868, Note_off_c, 0, 77, 100
1, 13868, Note_on_c, 0, 78, 100
1, 13916, Note_off_c, 0, 78, 100
1, 13916, Note_on_c, 0, 79, 100
1, 13964, Note_off_c, 0, 79, 100
1, 13964, Note_on_c, 0, 77, 100
1, 14012, Note_off_c, 0, 77, 100
1, 14012, Note_on_c, 0, 75, 100
1, 14060, Note_off_c, 0, 75, 100
1, 14060, Note_on_c, 0, 74, 100
1, 14108, Note_off_c, 0, 74, 100
1, 14108, Note_on_c, 0, 73, 100
1, 14156, Note_off_c, 0, 73, 100
1, 14156, Note_on_c, 0, 75, 100
1, 14242, Note_off_c, 0, 75, 100
1, 14242, Note_on_c, 0, 74, 100
1, 14280, Note_off_c, 0, 74, 100
1, 14280, Note_on_c, 0, 73, 100
1, 14318, Note_off_c, 0, 73, 100
1, 14318, Note_on_c, 0, 70, 100
1, 14356, Note_off_c, 0, 70, 100
1, 14356, Note_on_c, 0, 67, 100
1, 14394, Note_off_c, 0, 67, 100
1, 14394, Note_on_c, 0, 68, 100
1, 14442, Note_off_c, 0, 68, 100
1, 14442, Note_on_c, 0, 66, 100
1, 14490, Note_off_c, 0, 66, 100
1, 14490, Note_on_c, 0, 67, 100
1, 14538, Note_off_c, 0, 67, 100
1, 14538, Note_on_c, 0, 65, 100
1, 14586, Note_off_c, 0, 65, 100
1, 14586, Note_on_c, 0, 63, 100
1, 14682, Note_off_c, 0, 63, 100
1, 14682, Note_on_c, 0, 62, 100
1, 14730, Note_off_c, 0, 62, 100
1, 14730, Note_on_c, 0, 63, 100
1, 14778, Note_off_c, 0, 63, 100
1, 14778, Note_on_c, 0, 65, 100
1, 14826, Note_off_c, 0, 65, 100
1, 14826, Note_on_c, 0, 67, 100
1, 14874, Note_off_c, 0, 67, 100
1, 14874, Note_on_c, 0, 68, 100
1, 14922, Note_off_c, 0, 68, 100
1, 14922, Note_on_c, 0, 70, 100
1, 14970, Note_off_c, 0, 70, 100
1, 14970, Note_on_c, 0, 77, 100
1, 15008, Note_off_c, 0, 77, 100
1, 15008, Note_on_c, 0, 75, 100
1, 15046, Note_off_c, 0, 75, 100
1, 15046, Note_on_c, 0, 73, 100
1, 15084, Note_off_c, 0, 73, 100
1, 15084, Note_on_c, 0, 70, 100
1, 15160, Note_off_c, 0, 70, 100
1, 15160, Note_on_c, 0, 68, 100
1, 15256, Note_off_c, 0, 68, 100
1, 15256, Note_on_c, 0, 67, 100
1, 15304, Note_off_c, 0, 67, 100
1, 15304, Note_on_c, 0, 68, 100
1, 15352, Note_off_c, 0, 68, 100
1, 15352, Note_on_c, 0, 67, 100
1, 15400, Note_off_c, 0, 67, 100
1, 15400, Note_on_c, 0, 65, 100
1, 15448, Note_off_c, 0, 65, 100
1, 15448, Note_on_c, 0, 63, 100
1, 15544, Note_off_c, 0, 63, 100
1, 15544, Note_on_c, 0, 64, 100
1, 15640, Note_off_c, 0, 64, 100
1, 15640, Note_on_c, 0, 64, 100
1, 15688, Note_off_c, 0, 64, 100
1, 15688, Note_on_c, 0, 65, 100
1, 15736, Note_off_c, 0, 65, 100
1, 15736, Note_on_c, 0, 67, 100
1, 15800, Note_off_c, 0, 67, 100
1, 15800, Note_on_c, 0, 68, 100
1, 15864, Note_off_c, 0, 68, 100
1, 15864, Note_on_c, 0, 70, 100
1, 15928, Note_off_c, 0, 70, 100
1, 15928, Note_on_c, 0, 72, 100
1, 15976, Note_off_c, 0, 72, 100
1, 15976, Note_on_c, 0, 73, 100
1, 16024, Note_off_c, 0, 73, 100
1, 16024, Note_on_c, 0, 75, 100
1, 16072, Note_off_c, 0, 75, 100
1, 16072, Note_on_c, 0, 76, 100
1, 16216, Note_off_c, 0, 76, 100
1, 16216, Note_on_c, 0, 76, 100
1, 16264, Note_off_c, 0, 76, 100
1, 16264, Note_on_c, 0, 77, 100
1, 16312, Note_off_c, 0, 77, 100
1, 16312, Note_on_c, 0, 79, 100
1, 16350, Note_off_c, 0, 79, 100
1, 16350, Note_on_c, 0, 81, 100
1, 16388, Note_off_c, 0, 81, 100
1, 16388, Note_on_c, 0, 82, 100
1, 16426, Note_off_c, 0, 82, 100
1, 16426, Note_on_c, 0, 84, 100
1, 16464, Note_off_c, 0, 84, 100
1, 16464, Note_on_c, 0, 85, 100
1, 16502, Note_off_c, 0, 85, 100
1, 16502, Note_on_c, 0, 87, 100
1, 16598, Note_off_c, 0, 87, 100
1, 16598, Note_on_c, 0, 85, 100
1, 16646, Note_off_c, 0, 85, 100
1, 16646, Note_on_c, 0, 84, 100
1, 16694, Note_off_c, 0, 84, 100
1, 16694, Note_on_c, 0, 82, 100
1, 16742, Note_off_c, 0, 82, 100
1, 16742, Note_on_c, 0, 84, 100
1, 16790, Note_off_c, 0, 84, 100
1, 16790, Note_on_c, 0, 82, 100
1, 16838, Note_off_c, 0, 82, 100
1, 16838, Note_on_c, 0, 79, 100
1, 16886, Note_off_c, 0, 79, 100
1, 16886, Note_on_c, 0, 80, 100
1, 16982, Note_off_c, 0, 80, 100
1, 16982, Note_on_c, 0, 77, 100
1, 17030, Note_off_c, 0, 77, 100
1, 17030, Note_on_c, 0, 79, 100
1, 17078, Note_off_c, 0, 79, 100
1, 17078, Note_on_c, 0, 80, 100
1, 17116, Note_off_c, 0, 80, 100
1, 17116, Note_on_c, 0, 82, 100
1, 17154, Note_off_c, 0, 82, 100
1, 17154, Note_on_c, 0, 84, 100
1, 17192, Note_off_c, 0, 84, 100
1, 17192, Note_on_c, 0, 82, 100
1, 17268, Note_off_c, 0, 82, 100
1, 17268, Note_on_c, 0, 80, 100
1, 17364, Note_off_c, 0, 80, 100
1, 17364, Note_on_c, 0, 77, 100
1, 17460, Note_off_c, 0, 77, 100
1, 17460, Note_on_c, 0, 77, 100
1, 17556, Note_off_c, 0, 77, 100
1, 17556, Note_on_c, 0, 77, 100
1, 17604, Note_off_c, 0, 77, 100
1, 17604, Note_on_c, 0, 78, 100
1, 17652, Note_off_c, 0, 78, 100
1, 17652, Note_on_c, 0, 77, 100
1, 17700, Note_off_c, 0, 77, 100
1, 17700, Note_on_c, 0, 75, 100
1, 17748, Note_off_c, 0, 75, 100
1, 17748, Note_on_c, 0, 72, 100
1, 17796, Note_off_c, 0, 72, 100
1, 17796, Note_on_c, 0, 70, 100
1, 17844, Note_off_c, 0, 70, 100
1, 17844, Note_on_c, 0, 69, 100
1, 17940, Note_off_c, 0, 69, 100
1, 17940, Note_on_c, 0, 71, 100
1, 18084, Note_off_c, 0, 71, 100
1, 18084, Note_on_c, 0, 72, 100
1, 18180, Note_off_c, 0, 72, 100
1, 18180, Note_on_c, 0, 75, 100
1, 18228, Note_off_c, 0, 75, 100
1, 18228, Note_on_c, 0, 72, 100
1, 18324, Note_off_c, 0, 72, 100
1, 18324, Note_on_c, 0, 73, 100
1, 18420, Note_off_c, 0, 73, 100
1, 18420, Note_on_c, 0, 74, 100
1, 18516, Note_off_c, 0, 74, 100
1, 18516, Note_on_c, 0, 76, 100
1, 18612, Note_off_c, 0, 76, 100
1, 18612, Note_on_c, 0, 77, 100
1, 18708, Note_off_c, 0, 77, 100
1, 18708, Note_on_c, 0, 79, 100
1, 18804, Note_off_c, 0, 79, 100
1, 18804, Note_on_c, 0, 80, 100
1, 18900, Note_off_c, 0, 80, 100
1, 18900, Note_on_c, 0, 77, 100
1, 18996, Note_off_c, 0, 77, 100
1, 18996, Note_on_c, 0, 72, 100
1, 19092, Note_off_c, 0, 72, 100
1, 19092, Note_on_c, 0, 68, 100
1, 19188, Note_off_c, 0, 68, 100
1, 19188, Note_on_c, 0, 79, 100
1, 19284, Note_off_c, 0, 79, 100
1, 19284, Note_on_c, 0, 78, 100
1, 19380, Note_off_c, 0, 78, 100
1, 19380, Note_on_c, 0, 77, 100
1, 19476, Note_off_c, 0, 77, 100
1, 19476, Note_on_c, 0, 76, 100
1, 19572, Note_off_c, 0, 76, 100
1, 19572, Note_on_c, 0, 74, 100
1, 19668, Note_off_c, 0, 74, 100
1, 19668, Note_on_c, 0, 75, 100
1, 19764, Note_off_c, 0, 75, 100
1, 19764, Note_on_c, 0, 74, 100
1, 19812, Note_off_c, 0, 74, 100
1, 19812, Note_on_c, 0, 71, 100
1, 19956, Note_off_c, 0, 71, 100
1, 19956, Note_on_c, 0, 72, 100
1, 20052, Note_off_c, 0, 72, 100
1, 20052, Note_on_c, 0, 73, 100
1, 20148, Note_off_c, 0, 73, 100
1, 20148, Note_on_c, 0, 75, 100
1, 20244, Note_off_c, 0, 75, 100
1, 20244, Note_on_c, 0, 77, 100
1, 20340, Note_off_c, 0, 77, 100
1, 20340, Note_on_c, 0, 78, 100
1, 20388, Note_off_c, 0, 78, 100
1, 20388, Note_on_c, 0, 79, 100
1, 20436, Note_off_c, 0, 79, 100
1, 20436, Note_on_c, 0, 84, 100
1, 20532, Note_off_c, 0, 84, 100
1, 20532, Note_on_c, 0, 79, 100
1, 20724, Note_off_c, 0, 79, 100
1, 20724, Note_on_c, 0, 77, 100
1, 21060, Note_off_c, 0, 77, 100
1, 21060, Note_on_c, 0, 77, 100
1, 21108, Note_off_c, 0, 77, 100
1, 21108, Note_on_c, 0, 80, 100
1, 21156, Note_off_c, 0, 80, 100
1, 21156, Note_on_c, 0, 77, 100
1, 21204, Note_off_c, 0, 77, 100
1, 21204, Note_on_c, 0, 75, 100
1, 21252, Note_off_c, 0, 75, 100
1, 21252, Note_on_c, 0, 72, 100
1, 21300, Note_off_c, 0, 72, 100
1, 21300, Note_on_c, 0, 70, 100
1, 21396, Note_off_c, 0, 70, 100
1, 21396, Note_on_c, 0, 67, 100
1, 21492, Note_off_c, 0, 67, 100
1, 21492, Note_on_c, 0, 67, 100
1, 21684, Note_off_c, 0, 67, 100
1, 21684, Note_on_c, 0, 60, 100
1, 21780, Note_off_c, 0, 60, 100
1, 21780, Note_on_c, 0, 60, 100
1, 21828, Note_off_c, 0, 60, 100
1, 21828, Note_on_c, 0, 62, 100
1, 21876, Note_off_c, 0, 62, 100
1, 21876, Note_on_c, 0, 63, 100
1, 22020, Note_off_c, 0, 63, 100
1, 22020, Note_on_c, 0, 60, 100
1, 22260, Note_off_c, 0, 60, 100
1, 22260, Note_on_c, 0, 54, 100
1, 22356, Note_off_c, 0, 54, 100
1, 22356, Note_on_c, 0, 56, 100
1, 22404, Note_off_c, 0, 56, 100
1, 22404, Note_on_c, 0, 53, 100
1, 22452, Note_off_c, 0, 53, 100
1, 22452, Note_on_c, 0, 54, 100
1, 22548, Note_off_c, 0, 54, 100
1, 23076, Note_on_c, 0, 72, 100
1, 23124, Note_off_c, 0, 72, 100
1, 23124, Note_on_c, 0, 72, 100
1, 23172, Note_off_c, 0, 72, 100
1, 23172, Note_on_c, 0, 72, 100
1, 23220, Note_off_c, 0, 72, 100
1, 23220, Note_on_c, 0, 72, 100
1, 23316, Note_off_c, 0, 72, 100
1, 23316, Note_on_c, 0, 72, 100
1, 23412, Note_off_c, 0, 72, 100
1, 23412, Note_on_c, 0, 72, 100
1, 23460, Note_off_c, 0, 72, 100
1, 23460, Note_on_c, 0, 72, 100
1, 23508, Note_off_c, 0, 72, 100
1, 23508, Note_on_c, 0, 72, 100
1, 23556, Note_off_c, 0, 72, 100
1, 23556, Note_on_c, 0, 72, 100
1, 23604, Note_off_c, 0, 72, 100
1, 23604, Note_on_c, 0, 72, 100
1, 23700, Note_off_c, 0, 72, 100
1, 23700, Note_on_c, 0, 72, 100
1, 23748, Note_off_c, 0, 72, 100
1, 23748, Note_on_c, 0, 72, 100
1, 23796, Note_off_c, 0, 72, 100
1, 23796, Note_on_c, 0, 72, 100
1, 23892, Note_off_c, 0, 72, 100
1, 23892, Note_on_c, 0, 75, 100
1, 23940, Note_off_c, 0, 75, 100
1, 23940, Note_on_c, 0, 72, 100
1, 23988, Note_off_c, 0, 72, 100
1, 23988, Note_on_c, 0, 70, 100
1, 24052, Note_off_c, 0, 70, 100
1, 24052, Note_on_c, 0, 67, 100
1, 24116, Note_off_c, 0, 67, 100
1, 24116, Note_on_c, 0, 65, 100
1, 24180, Note_off_c, 0, 65, 100
1, 24180, Note_on_c, 0, 63, 100
1, 24308, Note_off_c, 0, 63, 100
1, 24308, Note_on_c, 0, 63, 100
1, 24372, Note_off_c, 0, 63, 100
1, 24372, Note_on_c, 0, 65, 100
1, 24487, Note_off_c, 0, 65, 100
1, 24487, Note_on_c, 0, 65, 100
1, 24525, Note_off_c, 0, 65, 100
1, 24525, Note_on_c, 0, 65, 100
1, 24611, Note_off_c, 0, 65, 100
1, 24611, Note_on_c, 0, 66, 100
1, 24659, Note_off_c, 0, 66, 100
1, 24659, Note_on_c, 0, 65, 100
1, 24707, Note_off_c, 0, 65, 100
1, 24707, Note_on_c, 0, 63, 100
1, 24755, Note_off_c, 0, 63, 100
1, 24755, Note_on_c, 0, 60, 100
1, 24947, Note_off_c, 0, 60, 100
1, 24947, Note_on_c, 0, 58, 100
1, 25091, Note_off_c, 0, 58, 100
1, 25091, Note_on_c, 0, 57, 100
1, 25283, Note_off_c, 0, 57, 100
1, 25587, Note_on_c, 0, 72, 100
1, 25651, Note_off_c, 0, 72, 100
1, 25651, Note_on_c, 0, 72, 100
1, 25715, Note_off_c, 0, 72, 100
1, 25715, Note_on_c, 0, 72, 100
1, 25779, Note_off_c, 0, 72, 100
1, 25779, Note_on_c, 0, 72, 100
1, 25843, Note_off_c, 0, 72, 100
1, 25843, Note_on_c, 0, 72, 100
1, 25907, Note_off_c, 0, 72, 100
1, 25907, Note_on_c, 0, 72, 100
1, 26051, Note_off_c, 0, 72, 100
1, 26051, Note_on_c, 0, 72, 100
1, 26291, Note_off_c, 0, 72, 100
1, 26291, Note_on_c, 0, 75, 100
1, 26483, Note_off_c, 0, 75, 100
1, 26483, Note_on_c, 0, 77, 100
1, 26771, Note_off_c, 0, 77, 100
1, 26771, Note_on_c, 0, 75, 100
1, 26867, Note_off_c, 0, 75, 100
1, 26867, Note_on_c, 0, 77, 100
1, 26915, Note_off_c, 0, 77, 100
1, 26915, Note_on_c, 0, 78, 100
1, 26963, Note_off_c, 0, 78, 100
1, 26963, Note_on_c, 0, 77, 100
1, 27011, Note_off_c, 0, 77, 100
1, 27011, Note_on_c, 0, 75, 100
1, 27059, Note_off_c, 0, 75, 100
1, 27059, Note_on_c, 0, 74, 100
1, 27155, Note_off_c, 0, 74, 100
1, 27155, Note_on_c, 0, 72, 100
1, 27251, Note_off_c, 0, 72, 100
1, 27251, Note_on_c, 0, 72, 100
1, 27443, Note_off_c, 0, 72, 100
1, 27443, Note_on_c, 0, 70, 100
1, 27635, Note_off_c, 0, 70, 100
1, 27635, Note_on_c, 0, 72, 100
1, 27763, Note_off_c, 0, 72, 100
1, 27763, Note_on_c, 0, 75, 100
1, 28019, Note_off_c, 0, 75, 100
1, 28019, Note_on_c, 0, 77, 100
1, 28307, Note_off_c, 0, 77, 100
1, 28307, Note_on_c, 0, 75, 100
1, 28355, Note_off_c, 0, 75, 100
1, 28355, Note_on_c, 0, 77, 100
1, 28403, Note_off_c, 0, 77, 100
1, 28403, Note_on_c, 0, 80, 100
1, 28451, Note_off_c, 0, 80, 100
1, 28451, Note_on_c, 0, 77, 100
1, 28499, Note_off_c, 0, 77, 100
1, 28499, Note_on_c, 0, 75, 100
1, 28595, Note_off_c, 0, 75, 100
1, 28595, Note_on_c, 0, 72, 100
1, 28739, Note_off_c, 0, 72, 100
1, 28739, Note_on_c, 0, 72, 100
1, 28883, Note_off_c, 0, 72, 100
1, 28883, Note_on_c, 0, 72, 100
1, 28979, Note_off_c, 0, 72, 100
1, 28979, Note_on_c, 0, 75, 100
1, 29075, Note_off_c, 0, 75, 100
1, 29075, Note_on_c, 0, 76, 100
1, 29123, Note_off_c, 0, 76, 100
1, 29123, Note_on_c, 0, 77, 100
1, 29267, Note_off_c, 0, 77, 100
1, 29267, Note_on_c, 0, 76, 100
1, 29315, Note_off_c, 0, 76, 100
1, 29315, Note_on_c, 0, 77, 100
1, 29459, Note_off_c, 0, 77, 100
1, 29459, Note_on_c, 0, 76, 100
1, 29507, Note_off_c, 0, 76, 100
1, 29507, Note_on_c, 0, 77, 100
1, 29555, Note_off_c, 0, 77, 100
1, 29555, Note_on_c, 0, 76, 100
1, 29603, Note_off_c, 0, 76, 100
1, 29603, Note_on_c, 0, 77, 100
1, 29651, Note_off_c, 0, 77, 100
1, 29651, Note_on_c, 0, 75, 100
1, 29699, Note_off_c, 0, 75, 100
1, 29699, Note_on_c, 0, 72, 100
1, 29747, Note_off_c, 0, 72, 100
1, 29747, Note_on_c, 0, 70, 100
1, 29891, Note_off_c, 0, 70, 100
1, 29891, Note_on_c, 0, 72, 100
1, 29939, Note_off_c, 0, 72, 100
1, 29939, Note_on_c, 0, 72, 100
1, 30035, Note_off_c, 0, 72, 100
1, 30035, Note_on_c, 0, 67, 100
1, 30083, Note_off_c, 0, 67, 100
1, 30083, Note_on_c, 0, 65, 100
1, 30131, Note_off_c, 0, 65, 100
1, 30131, Note_on_c, 0, 63, 100
1, 30275, Note_off_c, 0, 63, 100
1, 30275, Note_on_c, 0, 60, 100
1, 30323, Note_off_c, 0, 60, 100
1, 30323, Note_on_c, 0, 63, 100
1, 30419, Note_off_c, 0, 63, 100
1, 30419, Note_on_c, 0, 65, 100
1, 30515, Note_off_c, 0, 65, 100
1, 30515, Note_on_c, 0, 66, 100
1, 30563, Note_off_c, 0, 66, 100
1, 30563, Note_on_c, 0, 67, 100
1, 30659, Note_off_c, 0, 67, 100
1, 30659, Note_on_c, 0, 65, 100
1, 30707, Note_off_c, 0, 65, 100
1, 30707, Note_on_c, 0, 63, 100
1, 30803, Note_off_c, 0, 63, 100
1, 30803, Note_on_c, 0, 60, 100
1, 30899, Note_off_c, 0, 60, 100
1, 30899, Note_on_c, 0, 63, 100
1, 31091, Note_off_c, 0, 63, 100
1, 31091, Note_on_c, 0, 60, 100
1, 31235, Note_off_c, 0, 60, 100
1, 31235, Note_on_c, 0, 62, 100
1, 31331, Note_off_c, 0, 62, 100
1, 31859, Note_on_c, 0, 73, 100
1, 31923, Note_off_c, 0, 73, 100
1, 31923, Note_on_c, 0, 74, 100
1, 31987, Note_off_c, 0, 74, 100
1, 31987, Note_on_c, 0, 74, 100
1, 32051, Note_off_c, 0, 74, 100
1, 32051, Note_on_c, 0, 74, 100
1, 32243, Note_off_c, 0, 74, 100
1, 32243, Note_on_c, 0, 74, 100
1, 32435, Note_off_c, 0, 74, 100
1, 32435, Note_on_c, 0, 72, 100
1, 32531, Note_off_c, 0, 72, 100
1, 32531, Note_on_c, 0, 69, 100
1, 32627, Note_off_c, 0, 69, 100
1, 32627, Note_on_c, 0, 65, 100
1, 32723, Note_off_c, 0, 65, 100
1, 32723, Note_on_c, 0, 69, 100
1, 32819, Note_off_c, 0, 69, 100
1, 32819, Note_on_c, 0, 72, 100
1, 32947, Note_off_c, 0, 72, 100
1, 32947, Note_on_c, 0, 74, 100
1, 33107, Note_off_c, 0, 74, 100
1, 33107, Note_on_c, 0, 74, 100
1, 33299, Note_off_c, 0, 74, 100
1, 33299, Note_on_c, 0, 74, 100
1, 33395, Note_off_c, 0, 74, 100
1, 33395, Note_on_c, 0, 75, 100
1, 33443, Note_off_c, 0, 75, 100
1, 33443, Note_on_c, 0, 76, 100
1, 33491, Note_off_c, 0, 76, 100
1, 33491, Note_on_c, 0, 74, 100
1, 33587, Note_off_c, 0, 74, 100
1, 33587, Note_on_c, 0, 72, 100
1, 33651, Note_off_c, 0, 72, 100
1, 33651, Note_on_c, 0, 69, 100
1, 33715, Note_off_c, 0, 69, 100
1, 33715, Note_on_c, 0, 68, 100
1, 33779, Note_off_c, 0, 68, 100
1, 33779, Note_on_c, 0, 67, 100
1, 33875, Note_off_c, 0, 67, 100
1, 33875, Note_on_c, 0, 63, 100
1, 33971, Note_off_c, 0, 63, 100
1, 33971, Note_on_c, 0, 65, 100
1, 34067, Note_off_c, 0, 65, 100
1, 34067, Note_on_c, 0, 62, 100
1, 34163, Note_off_c, 0, 62, 100
1, 34163, Note_on_c, 0, 63, 100
1, 34259, Note_off_c, 0, 63, 100
1, 34259, Note_on_c, 0, 60, 100
1, 34355, Note_off_c, 0, 60, 100
1, 34355, Note_on_c, 0, 60, 100
1, 34547, Note_off_c, 0, 60, 100
1, 34547, Note_on_c, 0, 67, 100
1, 34643, Note_off_c, 0, 67, 100
1, 34643, Note_on_c, 0, 68, 100
1, 34691, Note_off_c, 0, 68, 100
1, 34691, Note_on_c, 0, 69, 100
1, 34739, Note_off_c, 0, 69, 100
1, 34739, Note_on_c, 0, 66, 100
1, 34787, Note_off_c, 0, 66, 100
1, 34787, Note_on_c, 0, 67, 100
1, 34835, Note_off_c, 0, 67, 100
1, 34835, Note_on_c, 0, 70, 100
1, 34883, Note_off_c, 0, 70, 100
1, 34883, Note_on_c, 0, 70, 100
1, 34979, Note_off_c, 0, 70, 100
1, 34979, Note_on_c, 0, 68, 100
1, 35075, Note_off_c, 0, 68, 100
1, 35075, Note_on_c, 0, 63, 100
1, 35123, Note_off_c, 0, 63, 100
1, 35123, Note_on_c, 0, 65, 100
1, 35219, Note_off_c, 0, 65, 100
1, 35219, Note_on_c, 0, 67, 100
1, 35315, Note_off_c, 0, 67, 100
1, 35507, Note_on_c, 0, 62, 100
1, 35555, Note_off_c, 0, 62, 100
1, 35555, Note_on_c, 0, 65, 100
1, 35603, Note_off_c, 0, 65, 100
1, 35603, Note_on_c, 0, 70, 100
1, 35651, Note_off_c, 0, 70, 100
1, 35651, Note_on_c, 0, 74, 100
1, 35699, Note_off_c, 0, 74, 100
1, 35699, Note_on_c, 0, 71, 100
1, 35747, Note_off_c, 0, 71, 100
1, 35747, Note_on_c, 0, 72, 100
1, 35843, Note_off_c, 0, 72, 100
1, 35843, Note_on_c, 0, 72, 100
1, 35891, Note_off_c, 0, 72, 100
1, 35891, Note_on_c, 0, 67, 100
1, 35987, Note_off_c, 0, 67, 100
1, 36179, Note_on_c, 0, 63, 100
1, 36275, Note_off_c, 0, 63, 100
1, 36275, Note_on_c, 0, 67, 100
1, 36371, Note_off_c, 0, 67, 100
1, 36371, Note_on_c, 0, 63, 100
1, 36467, Note_off_c, 0, 63, 100
1, 36467, Note_on_c, 0, 62, 100
1, 36563, Note_off_c, 0, 62, 100
1, 36563, Note_on_c, 0, 60, 100
1, 36659, Note_off_c, 0, 60, 100
1, 36659, Note_on_c, 0, 59, 100
1, 36851, Note_off_c, 0, 59, 100
1, 36851, Note_on_c, 0, 62, 100
1, 36947, Note_off_c, 0, 62, 100
1, 37187, Note_on_c, 0, 62, 100
1, 37235, Note_off_c, 0, 62, 100
1, 37235, Note_on_c, 0, 63, 100
1, 37363, Note_off_c, 0, 63, 100
1, 37363, Note_on_c, 0, 67, 100
1, 37459, Note_off_c, 0, 67, 100
1, 38099, Note_on_c, 0, 65, 100
1, 38147, Note_off_c, 0, 65, 100
1, 38147, Note_on_c, 0, 62, 100
1, 38195, Note_off_c, 0, 62, 100
1, 38195, Note_on_c, 0, 70, 100
1, 38259, Note_off_c, 0, 70, 100
1, 38259, Note_on_c, 0, 72, 100
1, 38323, Note_off_c, 0, 72, 100
1, 38323, Note_on_c, 0, 74, 100
1, 38387, Note_off_c, 0, 74, 100
1, 38387, Note_on_c, 0, 75, 100
1, 38451, Note_off_c, 0, 75, 100
1, 38451, Note_on_c, 0, 74, 100
1, 38515, Note_off_c, 0, 74, 100
1, 38515, Note_on_c, 0, 73, 100
1, 38579, Note_off_c, 0, 73, 100
1, 38579, Note_on_c, 0, 70, 100
1, 38771, Note_off_c, 0, 70, 100
1, 38771, Note_on_c, 0, 70, 100
1, 38915, Note_off_c, 0, 70, 100
1, 38915, Note_on_c, 0, 62, 100
1, 38963, Note_off_c, 0, 62, 100
1, 38963, Note_on_c, 0, 61, 100
1, 39027, Note_off_c, 0, 61, 100
1, 39027, Note_on_c, 0, 63, 100
1, 39091, Note_off_c, 0, 63, 100
1, 39091, Note_on_c, 0, 68, 100
1, 39155, Note_off_c, 0, 68, 100
1, 39155, Note_on_c, 0, 66, 100
1, 39203, Note_off_c, 0, 66, 100
1, 39203, Note_on_c, 0, 67, 100
1, 39299, Note_off_c, 0, 67, 100
1, 39299, Note_on_c, 0, 70, 100
1, 39347, Note_off_c, 0, 70, 100
1, 39347, Note_on_c, 0, 72, 100
1, 39443, Note_off_c, 0, 72, 100
1, 39443, Note_on_c, 0, 70, 100
1, 39635, Note_off_c, 0, 70, 100
1, 39635, Note_on_c, 0, 66, 100
1, 39731, Note_off_c, 0, 66, 100
1, 39731, Note_on_c, 0, 67, 100
1, 39779, Note_off_c, 0, 67, 100
1, 39779, Note_on_c, 0, 65, 100
1, 39827, Note_off_c, 0, 65, 100
1, 39827, Note_on_c, 0, 63, 100
1, 39875, Note_off_c, 0, 63, 100
1, 39875, Note_on_c, 0, 62, 100
1, 39923, Note_off_c, 0, 62, 100
1, 39923, Note_on_c, 0, 64, 100
1, 40019, Note_off_c, 0, 64, 100
1, 40019, Note_on_c, 0, 67, 100
1, 40067, Note_off_c, 0, 67, 100
1, 40067, Note_on_c, 0, 67, 100
1, 40115, Note_off_c, 0, 67, 100
1, 40115, Note_on_c, 0, 61, 100
1, 40243, Note_off_c, 0, 61, 100
1, 40243, Note_on_c, 0, 59, 100
1, 40307, Note_off_c, 0, 59, 100
1, 40307, Note_on_c, 0, 58, 100
1, 40451, Note_off_c, 0, 58, 100
1, 40451, Note_on_c, 0, 72, 100
1, 41363, Note_off_c, 0, 72, 100
1, 41363, Note_on_c, 0, 70, 100
1, 41411, Note_off_c, 0, 70, 100
1, 41411, Note_on_c, 0, 68, 100
1, 41459, Note_off_c, 0, 68, 100
1, 41459, Note_on_c, 0, 65, 100
1, 41507, Note_off_c, 0, 65, 100
1, 41507, Note_on_c, 0, 60, 100
1, 41555, Note_off_c, 0, 60, 100
1, 41555, Note_on_c, 0, 62, 100
1, 41603, Note_off_c, 0, 62, 100
1, 41603, Note_on_c, 0, 65, 100
1, 41651, Note_off_c, 0, 65, 100
1, 41651, Note_on_c, 0, 68, 100
1, 41747, Note_off_c, 0, 68, 100
1, 41747, Note_on_c, 0, 68, 100
1, 41795, Note_off_c, 0, 68, 100
1, 41795, Note_on_c, 0, 67, 100
1, 41843, Note_off_c, 0, 67, 100
1, 41843, Note_on_c, 0, 65, 100
1, 41891, Note_off_c, 0, 65, 100
1, 41891, Note_on_c, 0, 67, 100
1, 41939, Note_off_c, 0, 67, 100
1, 41939, Note_on_c, 0, 68, 100
1, 41987, Note_off_c, 0, 68, 100
1, 41987, Note_on_c, 0, 70, 100
1, 42035, Note_off_c, 0, 70, 100
1, 42035, Note_on_c, 0, 71, 100
1, 42099, Note_off_c, 0, 71, 100
1, 42099, Note_on_c, 0, 72, 100
1, 42163, Note_off_c, 0, 72, 100
1, 42163, Note_on_c, 0, 72, 100
1, 42227, Note_off_c, 0, 72, 100
1, 42227, Note_on_c, 0, 73, 100
1, 42265, Note_off_c, 0, 73, 100
1, 42265, Note_on_c, 0, 75, 100
1, 42341, Note_off_c, 0, 75, 100
1, 42341, Note_on_c, 0, 75, 100
1, 42379, Note_off_c, 0, 75, 100
1, 42379, Note_on_c, 0, 77, 100
1, 42417, Note_off_c, 0, 77, 100
1, 42417, Note_on_c, 0, 78, 100
1, 42513, Note_off_c, 0, 78, 100
1, 42513, Note_on_c, 0, 78, 100
1, 42561, Note_off_c, 0, 78, 100
1, 42561, Note_on_c, 0, 77, 100
1, 42609, Note_off_c, 0, 77, 100
1, 42609, Note_on_c, 0, 75, 100
1, 42673, Note_off_c, 0, 75, 100
1, 42673, Note_on_c, 0, 72, 100
1, 42737, Note_off_c, 0, 72, 100
1, 42737, Note_on_c, 0, 74, 100
1, 42801, Note_off_c, 0, 74, 100
1, 42801, Note_on_c, 0, 75, 100
1, 42839, Note_off_c, 0, 75, 100
1, 42839, Note_on_c, 0, 77, 100
1, 42877, Note_off_c, 0, 77, 100
1, 42877, Note_on_c, 0, 75, 100
1, 42915, Note_off_c, 0, 75, 100
1, 42915, Note_on_c, 0, 73, 100
1, 42991, Note_off_c, 0, 73, 100
1, 42991, Note_on_c, 0, 74, 100
1, 43183, Note_off_c, 0, 74, 100
1, 43183, Note_on_c, 0, 75, 100
1, 43231, Note_off_c, 0, 75, 100
1, 43231, Note_on_c, 0, 76, 100
1, 43279, Note_off_c, 0, 76, 100
1, 43279, Note_on_c, 0, 77, 100
1, 43327, Note_off_c, 0, 77, 100
1, 43327, Note_on_c, 0, 79, 100
1, 43375, Note_off_c, 0, 79, 100
1, 43375, Note_on_c, 0, 80, 100
1, 43413, Note_off_c, 0, 80, 100
1, 43413, Note_on_c, 0, 82, 100
1, 43451, Note_off_c, 0, 82, 100
1, 43451, Note_on_c, 0, 80, 100
1, 43489, Note_off_c, 0, 80, 100
1, 43489, Note_on_c, 0, 79, 100
1, 43565, Note_off_c, 0, 79, 100
1, 43565, Note_on_c, 0, 77, 100
1, 43603, Note_off_c, 0, 77, 100
1, 43603, Note_on_c, 0, 79, 100
1, 43641, Note_off_c, 0, 79, 100
1, 43641, Note_on_c, 0, 77, 100
1, 43679, Note_off_c, 0, 77, 100
1, 43679, Note_on_c, 0, 75, 100
1, 43755, Note_off_c, 0, 75, 100
1, 43755, Note_on_c, 0, 74, 100
1, 43803, Note_off_c, 0, 74, 100
1, 43803, Note_on_c, 0, 75, 100
1, 43851, Note_off_c, 0, 75, 100
1, 43851, Note_on_c, 0, 74, 100
1, 43899, Note_off_c, 0, 74, 100
1, 43899, Note_on_c, 0, 72, 100
1, 43947, Note_off_c, 0, 72, 100
1, 43947, Note_on_c, 0, 71, 100
1, 43995, Note_off_c, 0, 71, 100
1, 43995, Note_on_c, 0, 70, 100
1, 44043, Note_off_c, 0, 70, 100
1, 44043, Note_on_c, 0, 69, 100
1, 44091, Note_off_c, 0, 69, 100
1, 44091, Note_on_c, 0, 68, 100
1, 44139, Note_off_c, 0, 68, 100
1, 44139, Note_on_c, 0, 65, 100
1, 44187, Note_off_c, 0, 65, 100
1, 44187, Note_on_c, 0, 67, 100
1, 44235, Note_off_c, 0, 67, 100
1, 44235, Note_on_c, 0, 68, 100
1, 44283, Note_off_c, 0, 68, 100
1, 44283, Note_on_c, 0, 70, 100
1, 44331, Note_off_c, 0, 70, 100
1, 44331, Note_on_c, 0, 68, 100
1, 44363, Note_off_c, 0, 68, 100
1, 44363, Note_on_c, 0, 75, 100
1, 44427, Note_off_c, 0, 75, 100
1, 44427, Note_on_c, 0, 71, 100
1, 44459, Note_off_c, 0, 71, 100
1, 44459, Note_on_c, 0, 72, 100
1, 44523, Note_off_c, 0, 72, 100
1, 44523, Note_on_c, 0, 74, 100
1, 44571, Note_off_c, 0, 74, 100
1, 44571, Note_on_c, 0, 71, 100
1, 44619, Note_off_c, 0, 71, 100
1, 44619, Note_on_c, 0, 72, 100
1, 44667, Note_off_c, 0, 72, 100
1, 44667, Note_on_c, 0, 73, 100
1, 44715, Note_off_c, 0, 73, 100
1, 44715, Note_on_c, 0, 75, 100
1, 44753, Note_off_c, 0, 75, 100
1, 44753, Note_on_c, 0, 77, 100
1, 44791, Note_off_c, 0, 77, 100
1, 44791, Note_on_c, 0, 81, 100
1, 44829, Note_off_c, 0, 81, 100
1, 44829, Note_on_c, 0, 83, 100
1, 44867, Note_off_c, 0, 83, 100
1, 44867, Note_on_c, 0, 86, 100
1, 44969, Note_off_c, 0, 86, 100
1, 44969, Note_on_c, 0, 86, 100
1, 45033, Note_off_c, 0, 86, 100
1, 45033, Note_on_c, 0, 84, 100
1, 45145, Note_off_c, 0, 84, 100
1, 45145, Note_on_c, 0, 79, 100
1, 45193, Note_off_c, 0, 79, 100
1, 45193, Note_on_c, 0, 75, 100
1, 45289, Note_off_c, 0, 75, 100
1, 45289, Note_on_c, 0, 77, 100
1, 45577, Note_off_c, 0, 77, 100
1, 45577, Note_on_c, 0, 81, 100
1, 45609, Note_off_c, 0, 81, 100
1, 45609, Note_on_c, 0, 82, 100
1, 45641, Note_off_c, 0, 82, 100
1, 45641, Note_on_c, 0, 81, 100
1, 45673, Note_off_c, 0, 81, 100
1, 45673, Note_on_c, 0, 82, 100
1, 45721, Note_off_c, 0, 82, 100
1, 45721, Note_on_c, 0, 81, 100
1, 45769, Note_off_c, 0, 81, 100
1, 45769, Note_on_c, 0, 75, 100
1, 45817, Note_off_c, 0, 75, 100
1, 45817, Note_on_c, 0, 73, 100
1, 45865, Note_off_c, 0, 73, 100
1, 45865, Note_on_c, 0, 71, 100
1, 45903, Note_off_c, 0, 71, 100
1, 45903, Note_on_c, 0, 70, 100
1, 45941, Note_off_c, 0, 70, 100
1, 45941, Note_on_c, 0, 68, 100
1, 45979, Note_off_c, 0, 68, 100
1, 45979, Note_on_c, 0, 66, 100
1, 46017, Note_off_c, 0, 66, 100
1, 46017, Note_on_c, 0, 67, 100
1, 46087, Note_off_c, 0, 67, 100
1, 46087, Note_on_c, 0, 63, 100
1, 46151, Note_off_c, 0, 63, 100
1, 46151, Note_on_c, 0, 70, 100
1, 46183, Note_off_c, 0, 70, 100
1, 46183, Note_on_c, 0, 74, 100
1, 46215, Note_off_c, 0, 74, 100
1, 46215, Note_on_c, 0, 70, 100
1, 46295, Note_off_c, 0, 70, 100
1, 46295, Note_on_c, 0, 72, 100
1, 46343, Note_off_c, 0, 72, 100
1, 46343, Note_on_c, 0, 73, 100
1, 46391, Note_off_c, 0, 73, 100
1, 46391, Note_on_c, 0, 75, 100
1, 46439, Note_off_c, 0, 75, 100
1, 46439, Note_on_c, 0, 77, 100
1, 46487, Note_off_c, 0, 77, 100
1, 46487, Note_on_c, 0, 79, 100
1, 46535, Note_off_c, 0, 79, 100
1, 46535, Note_on_c, 0, 80, 100
1, 46583, Note_off_c, 0, 80, 100
1, 46583, Note_on_c, 0, 82, 100
1, 46631, Note_off_c, 0, 82, 100
1, 46631, Note_on_c, 0, 83, 100
1, 46679, Note_off_c, 0, 83, 100
1, 46679, Note_on_c, 0, 84, 100
1, 46727, Note_off_c, 0, 84, 100
1, 46727, Note_on_c, 0, 79, 100
1, 46823, Note_off_c, 0, 79, 100
1, 46823, Note_on_c, 0, 77, 100
1, 46919, Note_off_c, 0, 77, 100
1, 47303, Note_on_c, 0, 75, 100
1, 47399, Note_off_c, 0, 75, 100
1, 47399, Note_on_c, 0, 84, 100
1, 47543, Note_off_c, 0, 84, 100
1, 47543, Note_on_c, 0, 86, 100
1, 47591, Note_off_c, 0, 86, 100
1, 47591, Note_on_c, 0, 87, 100
1, 47639, Note_off_c, 0, 87, 100
1, 47639, Note_on_c, 0, 86, 100
1, 47687, Note_off_c, 0, 86, 100
1, 47687, Note_on_c, 0, 84, 100
1, 47735, Note_off_c, 0, 84, 100
1, 47735, Note_on_c, 0, 86, 100
1, 47783, Note_off_c, 0, 86, 100
1, 47783, Note_on_c, 0, 84, 100
1, 47879, Note_off_c, 0, 84, 100
1, 47879, Note_on_c, 0, 82, 100
1, 47975, Note_off_c, 0, 82, 100
1, 47975, Note_on_c, 0, 79, 100
1, 48071, Note_off_c, 0, 79, 100
1, 48071, Note_on_c, 0, 78, 100
1, 48119, Note_off_c, 0, 78, 100
1, 48119, Note_on_c, 0, 77, 100
1, 48167, Note_off_c, 0, 77, 100
1, 48167, Note_on_c, 0, 75, 100
1, 48263, Note_off_c, 0, 75, 100
1, 48263, Note_on_c, 0, 72, 100
1, 48359, Note_off_c, 0, 72, 100
1, 48359, Note_on_c, 0, 70, 100
1, 48455, Note_off_c, 0, 70, 100
1, 48455, Note_on_c, 0, 67, 100
1, 48551, Note_off_c, 0, 67, 100
1, 48551, Note_on_c, 0, 69, 100
1, 48615, Note_off_c, 0, 69, 100
1, 48615, Note_on_c, 0, 72, 100
1, 48679, Note_off_c, 0, 72, 100
1, 48679, Note_on_c, 0, 74, 100
1, 48743, Note_off_c, 0, 74, 100
1, 48743, Note_on_c, 0, 75, 100
1, 48871, Note_off_c, 0, 75, 100
1, 48871, Note_on_c, 0, 77, 100
1, 48967, Note_off_c, 0, 77, 100
1, 49319, Note_on_c, 0, 78, 100
1, 49383, Note_off_c, 0, 78, 100
1, 49383, Note_on_c, 0, 79, 100
1, 49446, Note_off_c, 0, 79, 100
1, 49446, Note_on_c, 0, 79, 100
1, 49510, Note_off_c, 0, 79, 100
1, 49510, Note_on_c, 0, 79, 100
1, 49558, Note_off_c, 0, 79, 100
1, 49558, Note_on_c, 0, 79, 100
1, 49606, Note_off_c, 0, 79, 100
1, 49606, Note_on_c, 0, 79, 100
1, 49702, Note_off_c, 0, 79, 100
1, 49702, Note_on_c, 0, 78, 100
1, 49750, Note_off_c, 0, 78, 100
1, 49750, Note_on_c, 0, 79, 100
1, 49798, Note_off_c, 0, 79, 100
1, 49798, Note_on_c, 0, 79, 100
1, 49846, Note_off_c, 0, 79, 100
1, 49846, Note_on_c, 0, 79, 100
1, 49894, Note_off_c, 0, 79, 100
1, 49894, Note_on_c, 0, 79, 100
1, 49990, Note_off_c, 0, 79, 100
1, 49990, Note_on_c, 0, 79, 100
1, 50086, Note_off_c, 0, 79, 100
1, 50086, Note_on_c, 0, 78, 100
1, 50150, Note_off_c, 0, 78, 100
1, 50150, Note_on_c, 0, 79, 100
1, 50214, Note_off_c, 0, 79, 100
1, 50214, Note_on_c, 0, 79, 100
1, 50278, Note_off_c, 0, 79, 100
1, 50278, Note_on_c, 0, 79, 100
1, 50374, Note_off_c, 0, 79, 100
1, 50374, Note_on_c, 0, 79, 100
1, 50422, Note_off_c, 0, 79, 100
1, 50422, Note_on_c, 0, 79, 100
1, 50470, Note_off_c, 0, 79, 100
1, 50470, Note_on_c, 0, 78, 100
1, 50534, Note_off_c, 0, 78, 100
1, 50534, Note_on_c, 0, 79, 100
1, 50598, Note_off_c, 0, 79, 100
1, 50598, Note_on_c, 0, 79, 100
1, 50662, Note_off_c, 0, 79, 100
1, 50662, Note_on_c, 0, 79, 100
1, 50726, Note_off_c, 0, 79, 100
1, 50726, Note_on_c, 0, 79, 100
1, 50790, Note_off_c, 0, 79, 100
1, 50790, Note_on_c, 0, 79, 100
1, 50854, Note_off_c, 0, 79, 100
1, 50854, Note_on_c, 0, 77, 100
1, 50982, Note_off_c, 0, 77, 100
1, 50982, Note_on_c, 0, 75, 100
1, 51046, Note_off_c, 0, 75, 100
1, 51046, Note_on_c, 0, 72, 100
1, 51238, Note_off_c, 0, 72, 100
1, 51238, Note_on_c, 0, 72, 100
1, 51622, Note_off_c, 0, 72, 100
1, 51622, Note_on_c, 0, 75, 100
1, 51750, Note_off_c, 0, 75, 100
1, 51750, Note_on_c, 0, 77, 100
1, 51958, Note_off_c, 0, 77, 100
1, 51958, Note_on_c, 0, 74, 100
1, 52006, Note_off_c, 0, 74, 100
1, 52006, Note_on_c, 0, 78, 100
1, 52054, Note_off_c, 0, 78, 100
1, 52054, Note_on_c, 0, 79, 100
1, 52102, Note_off_c, 0, 79, 100
1, 52102, Note_on_c, 0, 78, 100
1, 52150, Note_off_c, 0, 78, 100
1, 52150, Note_on_c, 0, 77, 100
1, 52294, Note_off_c, 0, 77, 100
1, 52294, Note_on_c, 0, 75, 100
1, 52390, Note_off_c, 0, 75, 100
1, 52390, Note_on_c, 0, 72, 100
1, 52582, Note_off_c, 0, 72, 100
1, 52582, Note_on_c, 0, 72, 100
1, 52726, Note_off_c, 0, 72, 100
1, 52726, Note_on_c, 0, 70, 100
1, 52774, Note_off_c, 0, 70, 100
1, 52774, Note_on_c, 0, 63, 100
1, 52966, Note_off_c, 0, 63, 100
1, 52966, Note_on_c, 0, 70, 100
1, 53158, Note_off_c, 0, 70, 100
1, 53158, Note_on_c, 0, 69, 100
1, 53196, Note_off_c, 0, 69, 100
1, 53196, Note_on_c, 0, 70, 100
1, 53311, Note_off_c, 0, 70, 100
1, 53311, Note_on_c, 0, 68, 100
1, 53445, Note_off_c, 0, 68, 100
1, 53445, Note_on_c, 0, 63, 100
1, 53541, Note_off_c, 0, 63, 100
1, 53541, Note_on_c, 0, 65, 100
1, 53637, Note_off_c, 0, 65, 100
1, 53637, Note_on_c, 0, 68, 100
1, 53733, Note_off_c, 0, 68, 100
1, 53733, Note_on_c, 0, 67, 100
1, 53861, Note_off_c, 0, 67, 100
1, 53861, Note_on_c, 0, 69, 100
1, 53925, Note_off_c, 0, 69, 100
1, 53925, Note_on_c, 0, 72, 100
1, 54021, Note_off_c, 0, 72, 100
1, 54021, Note_on_c, 0, 74, 100
1, 54117, Note_off_c, 0, 74, 100
1, 54117, Note_on_c, 0, 75, 100
1, 54213, Note_off_c, 0, 75, 100
1, 54213, Note_on_c, 0, 77, 100
1, 54309, Note_off_c, 0, 77, 100
1, 54309, Note_on_c, 0, 79, 100
1, 54405, Note_off_c, 0, 79, 100
1, 54405, Note_on_c, 0, 81, 100
1, 54501, Note_off_c, 0, 81, 100
1, 54501, Note_on_c, 0, 86, 100
1, 54597, Note_off_c, 0, 86, 100
1, 54597, Note_on_c, 0, 84, 100
1, 54693, Note_off_c, 0, 84, 100
1, 54693, Note_on_c, 0, 86, 100
1, 54789, Note_off_c, 0, 86, 100
1, 54789, Note_on_c, 0, 84, 100
1, 54885, Note_off_c, 0, 84, 100
1, 54885, Note_on_c, 0, 83, 100
1, 54981, Note_off_c, 0, 83, 100
1, 54981, Note_on_c, 0, 82, 100
1, 55029, Note_off_c, 0, 82, 100
1, 55029, Note_on_c, 0, 81, 100
1, 55077, Note_off_c, 0, 81, 100
1, 55077, Note_on_c, 0, 80, 100
1, 55173, Note_off_c, 0, 80, 100
1, 55173, Note_on_c, 0, 77, 100
1, 55269, Note_off_c, 0, 77, 100
1, 55269, Note_on_c, 0, 79, 100
1, 55365, Note_off_c, 0, 79, 100
1, 55365, Note_on_c, 0, 75, 100
1, 55413, Note_off_c, 0, 75, 100
1, 55413, Note_on_c, 0, 72, 100
1, 55509, Note_off_c, 0, 72, 100
1, 55845, Note_on_c, 0, 72, 100
1, 55941, Note_off_c, 0, 72, 100
1, 55941, Note_on_c, 0, 72, 100
1, 56565, Note_off_c, 0, 72, 100
1, 56565, Note_on_c, 0, 79, 100
1, 56613, Note_off_c, 0, 79, 100
1, 56613, Note_on_c, 0, 84, 100
1, 56805, Note_off_c, 0, 84, 100
1, 56805, Note_on_c, 0, 85, 100
1, 56869, Note_off_c, 0, 85, 100
1, 56869, Note_on_c, 0, 86, 100
1, 56933, Note_off_c, 0, 86, 100
1, 56933, Note_on_c, 0, 85, 100
1, 56997, Note_off_c, 0, 85, 100
1, 56997, Note_on_c, 0, 84, 100
1, 57141, Note_off_c, 0, 84, 100
1, 57141, Note_on_c, 0, 79, 100
1, 57333, Note_off_c, 0, 79, 100
1, 57333, Note_on_c, 0, 72, 100
1, 57429, Note_off_c, 0, 72, 100
1, 57429, Note_on_c, 0, 74, 100
1, 57477, Note_off_c, 0, 74, 100
1, 57477, Note_on_c, 0, 78, 100
1, 57525, Note_off_c, 0, 78, 100
1, 57525, Note_on_c, 0, 79, 100
1, 57637, Note_off_c, 0, 79, 100
1, 57637, Note_on_c, 0, 77, 100
1, 57813, Note_off_c, 0, 77, 100
1, 57813, Note_on_c, 0, 75, 100
1, 57861, Note_off_c, 0, 75, 100
1, 57861, Note_on_c, 0, 72, 100
1, 57909, Note_off_c, 0, 72, 100
1, 57909, Note_on_c, 0, 70, 100
1, 57957, Note_off_c, 0, 70, 100
1, 57957, Note_on_c, 0, 68, 100
1, 58053, Note_off_c, 0, 68, 100
1, 58245, Note_on_c, 0, 67, 100
1, 58437, Note_off_c, 0, 67, 100
1, 58437, Note_on_c, 0, 69, 100
1, 58533, Note_off_c, 0, 69, 100
1, 58533, Note_on_c, 0, 72, 100
1, 58597, Note_off_c, 0, 72, 100
1, 58597, Note_on_c, 0, 73, 100
1, 58661, Note_off_c, 0, 73, 100
1, 58661, Note_on_c, 0, 75, 100
1, 58725, Note_off_c, 0, 75, 100
1, 58725, Note_on_c, 0, 77, 100
1, 58789, Note_off_c, 0, 77, 100
1, 58789, Note_on_c, 0, 79, 100
1, 58853, Note_off_c, 0, 79, 100
1, 58853, Note_on_c, 0, 81, 100
1, 58917, Note_off_c, 0, 81, 100
1, 58917, Note_on_c, 0, 86, 100
1, 59013, Note_off_c, 0, 86, 100
1, 59013, Note_on_c, 0, 84, 100
1, 59109, Note_off_c, 0, 84, 100
1, 59109, Note_on_c, 0, 81, 100
1, 59173, Note_off_c, 0, 81, 100
1, 59173, Note_on_c, 0, 82, 100
1, 59237, Note_off_c, 0, 82, 100
1, 59237, Note_on_c, 0, 81, 100
1, 59301, Note_off_c, 0, 81, 100
1, 59301, Note_on_c, 0, 80, 100
1, 59397, Note_off_c, 0, 80, 100
1, 59397, Note_on_c, 0, 77, 100
1, 59493, Note_off_c, 0, 77, 100
1, 59493, Note_on_c, 0, 75, 100
1, 59589, Note_off_c, 0, 75, 100
1, 59589, Note_on_c, 0, 72, 100
1, 59685, Note_off_c, 0, 72, 100
1, 59685, Note_on_c, 0, 70, 100
1, 59781, Note_off_c, 0, 70, 100
1, 59781, Note_on_c, 0, 68, 100
1, 59877, Note_off_c, 0, 68, 100
1, 59877, Note_on_c, 0, 67, 100
1, 60005, Note_off_c, 0, 67, 100
1, 60005, Note_on_c, 0, 69, 100
1, 60069, Note_off_c, 0, 69, 100
1, 60069, Note_on_c, 0, 72, 100
1, 60165, Note_off_c, 0, 72, 100
1, 60165, Note_on_c, 0, 74, 100
1, 60261, Note_off_c, 0, 74, 100
1, 60261, Note_on_c, 0, 75, 100
1, 60357, Note_off_c, 0, 75, 100
1, 60357, Note_on_c, 0, 77, 100
1, 60453, Note_off_c, 0, 77, 100
1, 60453, Note_on_c, 0, 78, 100
1, 60549, Note_off_c, 0, 78, 100
1, 60549, Note_on_c, 0, 79, 100
1, 60645, Note_off_c, 0, 79, 100
1, 60645, Note_on_c, 0, 78, 100
1, 60741, Note_off_c, 0, 78, 100
1, 60741, Note_on_c, 0, 79, 100
1, 60837, Note_off_c, 0, 79, 100
1, 60837, Note_on_c, 0, 78, 100
1, 60933, Note_off_c, 0, 78, 100
1, 60933, Note_on_c, 0, 77, 100
1, 60981, Note_off_c, 0, 77, 100
1, 60981, Note_on_c, 0, 75, 100
1, 61029, Note_off_c, 0, 75, 100
1, 61029, Note_on_c, 0, 72, 100
1, 61125, Note_off_c, 0, 72, 100
1, 61125, Note_on_c, 0, 70, 100
1, 61221, Note_off_c, 0, 70, 100
1, 61221, Note_on_c, 0, 67, 100
1, 61317, Note_off_c, 0, 67, 100
1, 61317, Note_on_c, 0, 65, 100
1, 61413, Note_off_c, 0, 65, 100
1, 61413, Note_on_c, 0, 65, 100
1, 61557, Note_off_c, 0, 65, 100
1, 61557, Note_on_c, 0, 66, 100
1, 61605, Note_off_c, 0, 66, 100
1, 61605, Note_on_c, 0, 65, 100
1, 61701, Note_off_c, 0, 65, 100
1, 61701, Note_on_c, 0, 63, 100
1, 61797, Note_off_c, 0, 63, 100
1, 61797, Note_on_c, 0, 65, 100
1, 61893, Note_off_c, 0, 65, 100
1, 61893, Note_on_c, 0, 63, 100
1, 61941, Note_off_c, 0, 63, 100
1, 61941, Note_on_c, 0, 60, 100
1, 62037, Note_off_c, 0, 60, 100
1, 62661, Note_on_c, 0, 66, 100
1, 62757, Note_off_c, 0, 66, 100
1, 62757, Note_on_c, 0, 67, 100
1, 62821, Note_off_c, 0, 67, 100
1, 62821, Note_on_c, 0, 70, 100
1, 62885, Note_off_c, 0, 70, 100
1, 62885, Note_on_c, 0, 72, 100
1, 62949, Note_off_c, 0, 72, 100
1, 62949, Note_on_c, 0, 75, 100
1, 63045, Note_off_c, 0, 75, 100
1, 63045, Note_on_c, 0, 72, 100
1, 63141, Note_off_c, 0, 72, 100
1, 63141, Note_on_c, 0, 77, 100
1, 63237, Note_off_c, 0, 77, 100
1, 63237, Note_on_c, 0, 78, 100
1, 63333, Note_off_c, 0, 78, 100
1, 63333, Note_on_c, 0, 79, 100
1, 63429, Note_off_c, 0, 79, 100
1, 63429, Note_on_c, 0, 75, 100
1, 63477, Note_off_c, 0, 75, 100
1, 63477, Note_on_c, 0, 72, 100
1, 63525, Note_off_c, 0, 72, 100
1, 63525, Note_on_c, 0, 80, 100
1, 63621, Note_off_c, 0, 80, 100
1, 63621, Note_on_c, 0, 81, 100
1, 63717, Note_off_c, 0, 81, 100
1, 63717, Note_on_c, 0, 82, 100
1, 63813, Note_off_c, 0, 82, 100
1, 63813, Note_on_c, 0, 80, 100
1, 63909, Note_off_c, 0, 80, 100
1, 63909, Note_on_c, 0, 77, 100
1, 64005, Note_off_c, 0, 77, 100
1, 64005, Note_on_c, 0, 78, 100
1, 64101, Note_off_c, 0, 78, 100
1, 64101, Note_on_c, 0, 79, 100
1, 64165, Note_off_c, 0, 79, 100
1, 64165, Note_on_c, 0, 80, 100
1, 64229, Note_off_c, 0, 80, 100
1, 64229, Note_on_c, 0, 79, 100
1, 64293, Note_off_c, 0, 79, 100
1, 64293, Note_on_c, 0, 77, 100
1, 64389, Note_off_c, 0, 77, 100
1, 64389, Note_on_c, 0, 75, 100
1, 64485, Note_off_c, 0, 75, 100
1, 64485, Note_on_c, 0, 72, 100
1, 64613, Note_off_c, 0, 72, 100
1, 64613, Note_on_c, 0, 79, 100
1, 64677, Note_off_c, 0, 79, 100
1, 64677, Note_on_c, 0, 73, 100
1, 64773, Note_off_c, 0, 73, 100
1, 64773, Note_on_c, 0, 71, 100
1, 64869, Note_off_c, 0, 71, 100
1, 64869, Note_on_c, 0, 72, 100
1, 64997, Note_off_c, 0, 72, 100
1, 64997, Note_on_c, 0, 70, 100
1, 65669, Note_off_c, 0, 70, 100
1, 65925, Note_on_c, 0, 72, 100
1, 65973, Note_off_c, 0, 72, 100
1, 65973, Note_on_c, 0, 68, 100
1, 66021, Note_off_c, 0, 68, 100
1, 66021, Note_on_c, 0, 65, 100
1, 66213, Note_off_c, 0, 65, 100
1, 66213, Note_on_c, 0, 65, 100
1, 66309, Note_off_c, 0, 65, 100
1, 66309, Note_on_c, 0, 65, 100
1, 66405, Note_off_c, 0, 65, 100
1, 66405, Note_on_c, 0, 67, 100
1, 66453, Note_off_c, 0, 67, 100
1, 66453, Note_on_c, 0, 68, 100
1, 66501, Note_off_c, 0, 68, 100
1, 66501, Note_on_c, 0, 70, 100
1, 66597, Note_off_c, 0, 70, 100
1, 66597, Note_on_c, 0, 71, 100
1, 66645, Note_off_c, 0, 71, 100
1, 66645, Note_on_c, 0, 72, 100
1, 66741, Note_off_c, 0, 72, 100
1, 66741, Note_on_c, 0, 72, 100
1, 66789, Note_off_c, 0, 72, 100
1, 66789, Note_on_c, 0, 72, 100
1, 66885, Note_off_c, 0, 72, 100
1, 66885, Note_on_c, 0, 72, 100
1, 66933, Note_off_c, 0, 72, 100
1, 66933, Note_on_c, 0, 74, 100
1, 66981, Note_off_c, 0, 74, 100
1, 66981, Note_on_c, 0, 75, 100
1, 67077, Note_off_c, 0, 75, 100
1, 67077, Note_on_c, 0, 72, 100
1, 67221, Note_off_c, 0, 72, 100
1, 67221, Note_on_c, 0, 68, 100
1, 67269, Note_off_c, 0, 68, 100
1, 67269, Note_on_c, 0, 69, 100
1, 67317, Note_off_c, 0, 69, 100
1, 67317, Note_on_c, 0, 69, 100
1, 67365, Note_off_c, 0, 69, 100
1, 67365, Note_on_c, 0, 66, 100
1, 67413, Note_off_c, 0, 66, 100
1, 67413, Note_on_c, 0, 65, 100
1, 67461, Note_off_c, 0, 65, 100
1, 67461, Note_on_c, 0, 63, 100
1, 67557, Note_off_c, 0, 63, 100
1, 67557, Note_on_c, 0, 62, 100
1, 67749, Note_off_c, 0, 62, 100
1, 67749, Note_on_c, 0, 62, 100
1, 67797, Note_off_c, 0, 62, 100
1, 67797, Note_on_c, 0, 64, 100
1, 67845, Note_off_c, 0, 64, 100
1, 67845, Note_on_c, 0, 65, 100
1, 67893, Note_off_c, 0, 65, 100
1, 67893, Note_on_c, 0, 68, 100
1, 67941, Note_off_c, 0, 68, 100
1, 67941, Note_on_c, 0, 70, 100
1, 68005, Note_off_c, 0, 70, 100
1, 68005, Note_on_c, 0, 68, 100
1, 68069, Note_off_c, 0, 68, 100
1, 68069, Note_on_c, 0, 65, 100
1, 68133, Note_off_c, 0, 65, 100
1, 68133, Note_on_c, 0, 63, 100
1, 68197, Note_off_c, 0, 63, 100
1, 68197, Note_on_c, 0, 68, 100
1, 68261, Note_off_c, 0, 68, 100
1, 68261, Note_on_c, 0, 70, 100
1, 68325, Note_off_c, 0, 70, 100
1, 68325, Note_on_c, 0, 72, 100
1, 68373, Note_off_c, 0, 72, 100
1, 68373, Note_on_c, 0, 74, 100
1, 68421, Note_off_c, 0, 74, 100
1, 68421, Note_on_c, 0, 77, 100
1, 68469, Note_off_c, 0, 77, 100
1, 68469, Note_on_c, 0, 80, 100
1, 68565, Note_off_c, 0, 80, 100
1, 68565, Note_on_c, 0, 78, 100
1, 68613, Note_off_c, 0, 78, 100
1, 68613, Note_on_c, 0, 79, 100
1, 68661, Note_off_c, 0, 79, 100
1, 68661, Note_on_c, 0, 78, 100
1, 68709, Note_off_c, 0, 78, 100
1, 68709, Note_on_c, 0, 77, 100
1, 68757, Note_off_c, 0, 77, 100
1, 68757, Note_on_c, 0, 75, 100
1, 68853, Note_off_c, 0, 75, 100
1, 68853, Note_on_c, 0, 72, 100
1, 68901, Note_off_c, 0, 72, 100
1, 68901, Note_on_c, 0, 80, 100
1, 68997, Note_off_c, 0, 80, 100
1, 68997, Note_on_c, 0, 78, 100
1, 69093, Note_off_c, 0, 78, 100
1, 69093, Note_on_c, 0, 79, 100
1, 69141, Note_off_c, 0, 79, 100
1, 69141, Note_on_c, 0, 84, 100
1, 69189, Note_off_c, 0, 84, 100
1, 69189, Note_on_c, 0, 83, 100
1, 69237, Note_off_c, 0, 83, 100
1, 69237, Note_on_c, 0, 84, 100
1, 69285, Note_off_c, 0, 84, 100
1, 69285, Note_on_c, 0, 79, 100
1, 69381, Note_off_c, 0, 79, 100
1, 69381, Note_on_c, 0, 75, 100
1, 69477, Note_off_c, 0, 75, 100
1, 69477, Note_on_c, 0, 77, 100
1, 69515, Note_off_c, 0, 77, 100
1, 69515, Note_on_c, 0, 79, 100
1, 69553, Note_off_c, 0, 79, 100
1, 69553, Note_on_c, 0, 81, 100
1, 69591, Note_off_c, 0, 81, 100
1, 69591, Note_on_c, 0, 79, 100
1, 69763, Note_off_c, 0, 79, 100
1, 69763, Note_on_c, 0, 74, 100
1, 69859, Note_off_c, 0, 74, 100
1, 69859, Note_on_c, 0, 77, 100
1, 69955, Note_off_c, 0, 77, 100
1, 70531, Note_on_c, 0, 79, 100
1, 70627, Note_off_c, 0, 79, 100
1, 70627, Note_on_c, 0, 84, 100
1, 70723, Note_off_c, 0, 84, 100
1, 70723, Note_on_c, 0, 86, 100
1, 70771, Note_off_c, 0, 86, 100
1, 70771, Note_on_c, 0, 84, 100
1, 70867, Note_off_c, 0, 84, 100
1, 70867, Note_on_c, 0, 82, 100
1, 70963, Note_off_c, 0, 82, 100
1, 70963, Note_on_c, 0, 79, 100
1, 71011, Note_off_c, 0, 79, 100
1, 71011, Note_on_c, 0, 84, 100
1, 71107, Note_off_c, 0, 84, 100
1, 71107, Note_on_c, 0, 86, 100
1, 71155, Note_off_c, 0, 86, 100
1, 71155, Note_on_c, 0, 84, 100
1, 71203, Note_off_c, 0, 84, 100
1, 71203, Note_on_c, 0, 82, 100
1, 71299, Note_off_c, 0, 82, 100
1, 71299, Note_on_c, 0, 79, 100
1, 71395, Note_off_c, 0, 79, 100
1, 71395, Note_on_c, 0, 84, 100
1, 71491, Note_off_c, 0, 84, 100
1, 71491, Note_on_c, 0, 86, 100
1, 71539, Note_off_c, 0, 86, 100
1, 71539, Note_on_c, 0, 84, 100
1, 71587, Note_off_c, 0, 84, 100
1, 71587, Note_on_c, 0, 82, 100
1, 71683, Note_off_c, 0, 82, 100
1, 71683, Note_on_c, 0, 79, 100
1, 71875, Note_off_c, 0, 79, 100
1, 71875, Note_on_c, 0, 84, 100
1, 71923, Note_off_c, 0, 84, 100
1, 71923, Note_on_c, 0, 82, 100
1, 71971, Note_off_c, 0, 82, 100
1, 71971, Note_on_c, 0, 79, 100
1, 72067, Note_off_c, 0, 79, 100
1, 72067, Note_on_c, 0, 77, 100
1, 72163, Note_off_c, 0, 77, 100
1, 72163, Note_on_c, 0, 79, 100
1, 72259, Note_off_c, 0, 79, 100
1, 72259, Note_on_c, 0, 80, 100
1, 72307, Note_off_c, 0, 80, 100
1, 72307, Note_on_c, 0, 79, 100
1, 72355, Note_off_c, 0, 79, 100
1, 72355, Note_on_c, 0, 78, 100
1, 72451, Note_off_c, 0, 78, 100
1, 72451, Note_on_c, 0, 77, 100
1, 72547, Note_off_c, 0, 77, 100
1, 72547, Note_on_c, 0, 77, 100
1, 72643, Note_off_c, 0, 77, 100
1, 72643, Note_on_c, 0, 78, 100
1, 72691, Note_off_c, 0, 78, 100
1, 72691, Note_on_c, 0, 77, 100
1, 72739, Note_off_c, 0, 77, 100
1, 72739, Note_on_c, 0, 75, 100
1, 72835, Note_off_c, 0, 75, 100
1, 72835, Note_on_c, 0, 72, 100
1, 72931, Note_off_c, 0, 72, 100
1, 72931, Note_on_c, 0, 74, 100
1, 72995, Note_off_c, 0, 74, 100
1, 72995, Note_on_c, 0, 75, 100
1, 73059, Note_off_c, 0, 75, 100
1, 73059, Note_on_c, 0, 74, 100
1, 73123, Note_off_c, 0, 74, 100
1, 73123, Note_on_c, 0, 72, 100
1, 73219, Note_off_c, 0, 72, 100
1, 73219, Note_on_c, 0, 69, 100
1, 73315, Note_off_c, 0, 69, 100
1, 73315, Note_on_c, 0, 68, 100
1, 73411, Note_off_c, 0, 68, 100
1, 73411, Note_on_c, 0, 77, 100
1, 73507, Note_off_c, 0, 77, 100
1, 73507, Note_on_c, 0, 75, 100
1, 73699, Note_off_c, 0, 75, 100
1, 73699, Note_on_c, 0, 74, 100
1, 73929, Note_off_c, 0, 74, 100
1, 73929, Note_on_c, 0, 72, 100
1, 74005, Note_off_c, 0, 72, 100
1, 74005, Note_on_c, 0, 74, 100
1, 74043, Note_off_c, 0, 74, 100
1, 74043, Note_on_c, 0, 75, 100
1, 74081, Note_off_c, 0, 75, 100
1, 74081, Note_on_c, 0, 75, 100
1, 74177, Note_off_c, 0, 75, 100
1, 74177, Note_on_c, 0, 74, 100
1, 74273, Note_off_c, 0, 74, 100
1, 74273, Note_on_c, 0, 67, 100
1, 74369, Note_off_c, 0, 67, 100
1, 74369, Note_on_c, 0, 63, 100
1, 74465, Note_off_c, 0, 63, 100
1, 74465, Note_on_c, 0, 65, 100
1, 74561, Note_off_c, 0, 65, 100
1, 74561, Note_on_c, 0, 65, 100
1, 74753, Note_off_c, 0, 65, 100
1, 74753, Note_on_c, 0, 65, 100
1, 74849, Note_off_c, 0, 65, 100
1, 74849, Note_on_c, 0, 65, 100
1, 74913, Note_off_c, 0, 65, 100
1, 74913, Note_on_c, 0, 63, 100
1, 74977, Note_off_c, 0, 63, 100
1, 74977, Note_on_c, 0, 60, 100
1, 75041, Note_off_c, 0, 60, 100
1, 75041, Note_on_c, 0, 58, 100
1, 75137, Note_off_c, 0, 58, 100
1, 75137, Note_on_c, 0, 55, 100
1, 75233, Note_off_c, 0, 55, 100
1, 75233, Note_on_c, 0, 72, 100
1, 75407, Note_off_c, 0, 72, 100
1, 75407, End_track
0, 0, End_of_file
