0, 0, Header, 1, 1, 192
1, 0, Start_track
1, 0, Title_t, "Melody"
1, 0, Tempo, 233463
1, 0, Time_signature, 1, 2, 24, 8
1, 96, Note_on_c, 0, 66, 100
1, 240, Note_off_c, 0, 66, 100
1, 240, Note_on_c, 0, 69, 100
1, 336, Note_off_c, 0, 69, 100
1, 336, Note_on_c, 0, 70, 100
1, 448, Note_off_c, 0, 70, 100
1, 448, Note_on_c, 0, 71, 100
1, 512, Note_off_c, 0, 71, 100
1, 512, Note_on_c, 0, 72, 100
1, 672, Note_off_c, 0, 72, 100
1, 672, Note_on_c, 0, 69, 100
1, 768, Note_off_c, 0, 69, 100
1, 768, Note_on_c, 0, 70, 100
1, 864, Note_off_c, 0, 70, 100
1, 864, Note_on_c, 0, 68, 100
1, 960, Note_off_c, 0, 68, 100
1, 960, Note_on_c, 0, 69, 100
1, 1056, Note_off_c, 0, 69, 100
1, 1056, Note_on_c, 0, 68, 100
1, 1152, Note_off_c, 0, 68, 100
1, 1152, Note_on_c, 0, 67, 100
1, 1248, Note_off_c, 0, 67, 100
1, 1248, Note_on_c, 0, 66, 100
1, 1344, Note_off_c, 0, 66, 100
1, 1344, Note_on_c, 0, 65, 100
1, 1408, Note_off_c, 0, 65, 100
1, 1408, Note_on_c, 0, 64, 100
1, 1472, Note_off_c, 0, 64, 100
1, 1472, Note_on_c, 0, 63, 100
1, 1536, Note_off_c, 0, 63, 100
1, 1536, Note_on_c, 0, 65, 100
1, 1632, Note_off_c, 0, 65, 100
1, 1632, Note_on_c, 0, 62, 100
1, 1776, Note_off_c, 0, 62, 100
1, 1776, Note_on_c, 0, 66, 100
1, 1824, Note_off_c, 0, 66, 100
1, 1824, Note_on_c, 0, 66, 100
1, 1872, Note_off_c, 0, 66, 100
1, 1872, Note_on_c, 0, 65, 100
1, 1968, Note_off_c, 0, 65, 100
1, 2304, Note_on_c, 0, 66, 100
1, 2368, Note_off_c, 0, 66, 100
1, 2368, Note_on_c, 0, 66, 100
1, 2432, Note_off_c, 0, 66, 100
1, 2432, Note_on_c, 0, 67, 100
1, 2496, Note_off_c, 0, 67, 100
1, 2496, Note_on_c, 0, 70, 100
1, 2544, Note_off_c, 0, 70, 100
1, 2544, Note_on_c, 0, 68, 100
1, 2640, Note_off_c, 0, 68, 100
1, 2640, Note_on_c, 0, 69, 100
1, 2688, Note_off_c, 0, 69, 100
1, 2688, Note_on_c, 0, 67, 100
1, 2752, Note_off_c, 0, 67, 100
1, 2752, Note_on_c, 0, 68, 100
1, 2816, Note_off_c, 0, 68, 100
1, 2816, Note_on_c, 0, 65, 100
1, 2880, Note_off_c, 0, 65, 100
1, 2880, Note_on_c, 0, 62, 100
1, 2976, Note_off_c, 0, 62, 100
1, 2976, Note_on_c, 0, 58, 100
1, 3072, Note_off_c, 0, 58, 100
1, 3072, Note_on_c, 0, 62, 100
1, 3200, Note_off_c, 0, 62, 100
1, 3200, Note_on_c, 0, 65, 100
1, 3264, Note_off_c, 0, 65, 100
1, 3264, Note_on_c, 0, 62, 100
1, 3360, Note_off_c, 0, 62, 100
1, 3360, Note_on_c, 0, 58, 100
1, 3456, Note_off_c, 0, 58, 100
1, 3456, Note_on_c, 0, 63, 100
1, 3600, Note_off_c, 0, 63, 100
1, 3600, Note_on_c, 0, 68, 100
1, 3648, Note_off_c, 0, 68, 100
1, 3648, Note_on_c, 0, 70, 100
1, 3744, Note_off_c, 0, 70, 100
1, 3744, Note_on_c, 0, 74, 100
1, 3840, Note_off_c, 0, 74, 100
1, 4176, Note_on_c, 0, 72, 100
1, 4288, Note_off_c, 0, 72, 100
1, 4288, Note_on_c, 0, 74, 100
1, 4352, Note_off_c, 0, 74, 100
1, 4352, Note_on_c, 0, 72, 100
1, 4416, Note_off_c, 0, 72, 100
1, 4416, Note_on_c, 0, 70, 100
1, 4512, Note_off_c, 0, 70, 100
1, 4512, Note_on_c, 0, 68, 100
1, 4608, Note_off_c, 0, 68, 100
1, 4608, Note_on_c, 0, 70, 100
1, 4704, Note_off_c, 0, 70, 100
1, 4704, Note_on_c, 0, 65, 100
1, 4800, Note_off_c, 0, 65, 100
1, 4800, Note_on_c, 0, 62, 100
1, 4896, Note_off_c, 0, 62, 100
1, 4896, Note_on_c, 0, 58, 100
1, 4992, Note_off_c, 0, 58, 100
1, 4992, Note_on_c, 0, 67, 100
1, 5088, Note_off_c, 0, 67, 100
1, 5088, Note_on_c, 0, 62, 100
1, 5184, Note_off_c, 0, 62, 100
1, 5184, Note_on_c, 0, 65, 100
1, 5328, Note_off_c, 0, 65, 100
1, 5328, Note_on_c, 0, 62, 100
1, 5520, Note_off_c, 0, 62, 100
1, 5520, Note_on_c, 0, 62, 100
1, 5568, Note_off_c, 0, 62, 100
1, 5568, Note_on_c, 0, 58, 100
1, 5664, Note_off_c, 0, 58, 100
1, 5664, Note_on_c, 0, 55, 100
1, 5760, Note_off_c, 0, 55, 100
1, 5760, Note_on_c, 0, 60, 100
1, 5904, Note_off_c, 0, 60, 100
1, 5904, Note_on_c, 0, 58, 100
1, 6000, Note_off_c, 0, 58, 100
1, 6336, Note_on_c, 0, 62, 100
1, 6464, Note_off_c, 0, 62, 100
1, 6464, Note_on_c, 0, 63, 100
1, 6528, Note_off_c, 0, 63, 100
1, 6528, Note_on_c, 0, 65, 100
1, 6624, Note_off_c, 0, 65, 100
1, 6624, Note_on_c, 0, 67, 100
1, 6720, Note_off_c, 0, 67, 100
1, 6720, Note_on_c, 0, 69, 100
1, 6816, Note_off_c, 0, 69, 100
1, 6816, Note_on_c, 0, 70, 100
1, 6912, Note_off_c, 0, 70, 100
1, 6912, Note_on_c, 0, 71, 100
1, 7008, Note_off_c, 0, 71, 100
1, 7008, Note_on_c, 0, 72, 100
1, 7200, Note_off_c, 0, 72, 100
1, 7200, Note_on_c, 0, 69, 100
1, 7296, Note_off_c, 0, 69, 100
1, 7296, Note_on_c, 0, 67, 100
1, 7392, Note_off_c, 0, 67, 100
1, 7392, Note_on_c, 0, 70, 100
1, 7488, Note_off_c, 0, 70, 100
1, 7488, Note_on_c, 0, 65, 100
1, 8160, Note_off_c, 0, 65, 100
1, 8448, Note_on_c, 0, 65, 100
1, 8544, Note_off_c, 0, 65, 100
1, 8544, Note_on_c, 0, 63, 100
1, 8640, Note_off_c, 0, 63, 100
1, 8640, Note_on_c, 0, 64, 100
1, 8688, Note_off_c, 0, 64, 100
1, 8688, Note_on_c, 0, 65, 100
1, 8784, Note_off_c, 0, 65, 100
1, 8784, Note_on_c, 0, 63, 100
1, 8976, Note_off_c, 0, 63, 100
1, 8976, Note_on_c, 0, 64, 100
1, 9120, Note_off_c, 0, 64, 100
1, 9120, Note_on_c, 0, 64, 100
1, 9264, Note_off_c, 0, 64, 100
1, 9264, Note_on_c, 0, 65, 100
1, 9360, Note_off_c, 0, 65, 100
1, 9360, Note_on_c, 0, 62, 100
1, 9472, Note_off_c, 0, 62, 100
1, 9472, Note_on_c, 0, 63, 100
1, 9536, Note_off_c, 0, 63, 100
1, 9536, Note_on_c, 0, 74, 100
1, 9632, Note_off_c, 0, 74, 100
1, 10032, Note_on_c, 0, 72, 100
1, 10128, Note_off_c, 0, 72, 100
1, 10128, Note_on_c, 0, 70, 100
1, 10272, Note_off_c, 0, 70, 100
1, 10272, Note_on_c, 0, 69, 100
1, 10432, Note_off_c, 0, 69, 100
1, 10432, Note_on_c, 0, 70, 100
1, 10560, Note_off_c, 0, 70, 100
1, 10560, Note_on_c, 0, 68, 100
1, 10656, Note_off_c, 0, 68, 100
1, 10656, Note_on_c, 0, 69, 100
1, 10752, Note_off_c, 0, 69, 100
1, 10752, Note_on_c, 0, 70, 100
1, 10896, Note_off_c, 0, 70, 100
1, 10896, Note_on_c, 0, 74, 100
1, 10992, Note_off_c, 0, 74, 100
1, 10992, Note_on_c, 0, 72, 100
1, 11088, Note_off_c, 0, 72, 100
1, 11088, Note_on_c, 0, 70, 100
1, 11232, Note_off_c, 0, 70, 100
1, 11232, Note_on_c, 0, 72, 100
1, 11424, Note_off_c, 0, 72, 100
1, 11424, Note_on_c, 0, 70, 100
1, 11520, Note_off_c, 0, 70, 100
1, 11520, Note_on_c, 0, 69, 100
1, 11616, Note_off_c, 0, 69, 100
1, 12336, Note_on_c, 0, 70, 100
1, 12432, Note_off_c, 0, 70, 100
1, 12432, Note_on_c, 0, 71, 100
1, 12480, Note_off_c, 0, 71, 100
1, 12480, Note_on_c, 0, 70, 100
1, 12576, Note_off_c, 0, 70, 100
1, 12576, Note_on_c, 0, 64, 100
1, 12624, Note_off_c, 0, 64, 100
1, 12624, Note_on_c, 0, 63, 100
1, 12672, Note_off_c, 0, 63, 100
1, 12672, Note_on_c, 0, 60, 100
1, 12720, Note_off_c, 0, 60, 100
1, 12720, Note_on_c, 0, 70, 100
1, 12768, Note_off_c, 0, 70, 100
1, 12768, Note_on_c, 0, 71, 100
1, 12816, Note_off_c, 0, 71, 100
1, 12816, Note_on_c, 0, 70, 100
1, 12864, Note_off_c, 0, 70, 100
1, 12864, Note_on_c, 0, 69, 100
1, 12960, Note_off_c, 0, 69, 100
1, 12960, Note_on_c, 0, 67, 100
1, 13056, Note_off_c, 0, 67, 100
1, 13056, Note_on_c, 0, 70, 100
1, 13248, Note_off_c, 0, 70, 100
1, 13248, Note_on_c, 0, 74, 100
1, 13344, Note_off_c, 0, 74, 100
1, 13344, Note_on_c, 0, 67, 100
1, 13440, Note_off_c, 0, 67, 100
1, 13920, Note_on_c, 0, 71, 100
1, 13968, Note_off_c, 0, 71, 100
1, 13968, Note_on_c, 0, 72, 100
1, 14112, Note_off_c, 0, 72, 100
1, 14112, Note_on_c, 0, 75, 100
1, 14208, Note_off_c, 0, 75, 100
1, 14208, Note_on_c, 0, 78, 100
1, 14880, Note_off_c, 0, 78, 100
1, 14880, Note_on_c, 0, 75, 100
1, 15091, Note_off_c, 0, 75, 100
1, 15091, Note_on_c, 0, 71, 100
1, 15129, Note_off_c, 0, 71, 100
1, 15129, Note_on_c, 0, 67, 100
1, 15225, Note_off_c, 0, 67, 100
1, 15551, Note_on_c, 0, 72, 100
1, 15647, Note_off_c, 0, 72, 100
1, 15647, Note_on_c, 0, 73, 100
1, 15743, Note_off_c, 0, 73, 100
1, 15743, Note_on_c, 0, 69, 100
1, 15807, Note_off_c, 0, 69, 100
1, 15807, Note_on_c, 0, 70, 100
1, 15871, Note_off_c, 0, 70, 100
1, 15871, Note_on_c, 0, 71, 100
1, 15935, Note_off_c, 0, 71, 100
1, 15935, Note_on_c, 0, 72, 100
1, 15983, Note_off_c, 0, 72, 100
1, 15983, Note_on_c, 0, 74, 100
1, 16031, Note_off_c, 0, 74, 100
1, 16031, Note_on_c, 0, 72, 100
1, 16127, Note_off_c, 0, 72, 100
1, 16127, Note_on_c, 0, 70, 100
1, 16223, Note_off_c, 0, 70, 100
1, 16223, Note_on_c, 0, 70, 100
1, 16271, Note_off_c, 0, 70, 100
1, 16271, Note_on_c, 0, 69, 100
1, 16415, Note_off_c, 0, 69, 100
1, 16415, Note_on_c, 0, 67, 100
1, 16463, Note_off_c, 0, 67, 100
1, 16463, Note_on_c, 0, 70, 100
1, 16607, Note_off_c, 0, 70, 100
1, 16607, Note_on_c, 0, 65, 100
1, 16655, Note_off_c, 0, 65, 100
1, 16655, Note_on_c, 0, 62, 100
1, 16799, Note_off_c, 0, 62, 100
1, 16799, Note_on_c, 0, 65, 100
1, 16895, Note_off_c, 0, 65, 100
1, 16895, Note_on_c, 0, 77, 100
1, 17087, Note_off_c, 0, 77, 100
1, 17087, Note_on_c, 0, 65, 100
1, 17183, Note_off_c, 0, 65, 100
1, 17183, Note_on_c, 0, 63, 100
1, 17279, Note_off_c, 0, 63, 100
1, 17279, Note_on_c, 0, 66, 100
1, 17375, Note_off_c, 0, 66, 100
1, 17375, Note_on_c, 0, 67, 100
1, 17567, Note_off_c, 0, 67, 100
1, 17567, Note_on_c, 0, 74, 100
1, 17759, Note_off_c, 0, 74, 100
1, 17759, Note_on_c, 0, 75, 100
1, 17951, Note_off_c, 0, 75, 100
1, 17951, Note_on_c, 0, 74, 100
1, 18111, Note_off_c, 0, 74, 100
1, 18111, Note_on_c, 0, 72, 100
1, 18175, Note_off_c, 0, 72, 100
1, 18175, Note_on_c, 0, 69, 100
1, 18287, Note_off_c, 0, 69, 100
1, 18287, Note_on_c, 0, 67, 100
1, 18383, Note_off_c, 0, 67, 100
1, 18383, Note_on_c, 0, 79, 100
1, 18623, Note_off_c, 0, 79, 100
1, 18623, Note_on_c, 0, 67, 100
1, 18719, Note_off_c, 0, 67, 100
1, 18719, Note_on_c, 0, 66, 100
1, 18815, Note_off_c, 0, 66, 100
1, 18815, Note_on_c, 0, 67, 100
1, 18911, Note_off_c, 0, 67, 100
1, 18911, Note_on_c, 0, 70, 100
1, 19103, Note_off_c, 0, 70, 100
1, 19103, Note_on_c, 0, 69, 100
1, 19295, Note_off_c, 0, 69, 100
1, 19295, Note_on_c, 0, 72, 100
1, 19343, Note_off_c, 0, 72, 100
1, 19343, Note_on_c, 0, 79, 100
1, 19439, Note_off_c, 0, 79, 100
1, 20447, Note_on_c, 0, 77, 100
1, 21263, Note_off_c, 0, 77, 100
1, 21263, Note_on_c, 0, 74, 100
1, 21359, Note_off_c, 0, 74, 100
1, 21359, Note_on_c, 0, 70, 100
1, 21455, Note_off_c, 0, 70, 100
1, 21455, Note_on_c, 0, 75, 100
1, 21567, Note_off_c, 0, 75, 100
1, 21567, Note_on_c, 0, 77, 100
1, 21759, Note_off_c, 0, 77, 100
1, 21759, Note_on_c, 0, 74, 100
1, 21887, Note_off_c, 0, 74, 100
1, 21887, Note_on_c, 0, 70, 100
1, 22143, Note_off_c, 0, 70, 100
1, 22143, Note_on_c, 0, 72, 100
1, 22431, Note_off_c, 0, 72, 100
1, 23039, Note_on_c, 0, 78, 100
1, 23471, Note_off_c, 0, 78, 100
1, 23471, Note_on_c, 0, 74, 100
1, 23519, Note_off_c, 0, 74, 100
1, 23519, Note_on_c, 0, 74, 100
1, 23567, Note_off_c, 0, 74, 100
1, 23567, Note_on_c, 0, 70, 100
1, 23615, Note_off_c, 0, 70, 100
1, 23615, Note_on_c, 0, 67, 100
1, 23711, Note_off_c, 0, 67, 100
1, 23711, Note_on_c, 0, 70, 100
1, 23807, Note_off_c, 0, 70, 100
1, 23807, Note_on_c, 0, 72, 100
1, 23903, Note_off_c, 0, 72, 100
1, 24335, Note_on_c, 0, 75, 100
1, 24479, Note_off_c, 0, 75, 100
1, 24479, Note_on_c, 0, 74, 100
1, 24639, Note_off_c, 0, 74, 100
1, 24639, Note_on_c, 0, 70, 100
1, 24767, Note_off_c, 0, 70, 100
1, 24767, Note_on_c, 0, 65, 100
1, 24863, Note_off_c, 0, 65, 100
1, 24863, Note_on_c, 0, 60, 100
1, 24911, Note_off_c, 0, 60, 100
1, 24911, Note_on_c, 0, 70, 100
1, 25055, Note_off_c, 0, 70, 100
1, 25055, Note_on_c, 0, 63, 100
1, 25103, Note_off_c, 0, 63, 100
1, 25103, Note_on_c, 0, 69, 100
1, 25247, Note_off_c, 0, 69, 100
1, 25247, Note_on_c, 0, 70, 100
1, 25343, Note_off_c, 0, 70, 100
1, 25343, Note_on_c, 0, 68, 100
1, 25471, Note_off_c, 0, 68, 100
1, 25471, Note_on_c, 0, 67, 100
1, 25631, Note_off_c, 0, 67, 100
1, 25631, Note_on_c, 0, 66, 100
1, 25775, Note_off_c, 0, 66, 100
1, 25775, Note_on_c, 0, 65, 100
1, 26015, Note_off_c, 0, 65, 100
1, 26015, Note_on_c, 0, 64, 100
1, 26111, Note_off_c, 0, 64, 100
1, 26111, Note_on_c, 0, 63, 100
1, 26207, Note_off_c, 0, 63, 100
1, 26207, Note_on_c, 0, 62, 100
1, 26303, Note_off_c, 0, 62, 100
1, 26303, Note_on_c, 0, 58, 100
1, 26399, Note_off_c, 0, 58, 100
1, 26399, Note_on_c, 0, 57, 100
1, 26495, Note_off_c, 0, 57, 100
1, 26495, Note_on_c, 0, 60, 100
1, 26591, Note_off_c, 0, 60, 100
1, 26591, Note_on_c, 0, 58, 100
1, 26735, Note_off_c, 0, 58, 100
1, 26735, Note_on_c, 0, 54, 100
1, 26831, Note_off_c, 0, 54, 100
1, 26831, Note_on_c, 0, 55, 100
1, 26879, Note_off_c, 0, 55, 100
1, 26879, Note_on_c, 0, 71, 100
1, 26927, Note_off_c, 0, 71, 100
1, 26927, Note_on_c, 0, 72, 100
1, 27023, Note_off_c, 0, 72, 100
1, 27023, Note_on_c, 0, 69, 100
1, 27167, Note_off_c, 0, 69, 100
1, 27167, Note_on_c, 0, 67, 100
1, 27263, Note_off_c, 0, 67, 100
1, 27263, Note_on_c, 0, 70, 100
1, 27391, Note_off_c, 0, 70, 100
1, 27391, Note_on_c, 0, 63, 100
1, 27455, Note_off_c, 0, 63, 100
1, 27455, Note_on_c, 0, 61, 100
1, 27551, Note_off_c, 0, 61, 100
1, 27551, Note_on_c, 0, 58, 100
1, 27695, Note_off_c, 0, 58, 100
1, 27695, Note_on_c, 0, 68, 100
1, 27791, Note_off_c, 0, 68, 100
1, 27791, Note_on_c, 0, 63, 100
1, 27839, Note_off_c, 0, 63, 100
1, 27839, Note_on_c, 0, 67, 100
1, 27935, Note_off_c, 0, 67, 100
1, 27935, Note_on_c, 0, 69, 100
1, 28031, Note_off_c, 0, 69, 100
1, 28031, Note_on_c, 0, 65, 100
1, 28127, Note_off_c, 0, 65, 100
1, 28127, Note_on_c, 0, 60, 100
1, 28223, Note_off_c, 0, 60, 100
1, 28223, Note_on_c, 0, 59, 100
1, 28319, Note_off_c, 0, 59, 100
1, 28319, Note_on_c, 0, 55, 100
1, 28415, Note_off_c, 0, 55, 100
1, 28415, Note_on_c, 0, 60, 100
1, 28607, Note_off_c, 0, 60, 100
1, 29567, Note_on_c, 0, 61, 100
1, 29663, Note_off_c, 0, 61, 100
1, 29663, Note_on_c, 0, 58, 100
1, 29759, Note_off_c, 0, 58, 100
1, 29759, Note_on_c, 0, 61, 100
1, 29855, Note_off_c, 0, 61, 100
1, 29855, Note_on_c, 0, 57, 100
1, 29903, Note_off_c, 0, 57, 100
1, 29903, Note_on_c, 0, 58, 100
1, 30015, Note_off_c, 0, 58, 100
1, 30015, Note_on_c, 0, 61, 100
1, 30143, Note_off_c, 0, 61, 100
1, 30143, Note_on_c, 0, 62, 100
1, 30239, Note_off_c, 0, 62, 100
1, 30239, Note_on_c, 0, 63, 100
1, 30335, Note_off_c, 0, 63, 100
1, 30335, Note_on_c, 0, 64, 100
1, 30431, Note_off_c, 0, 64, 100
1, 30431, Note_on_c, 0, 65, 100
1, 30527, Note_off_c, 0, 65, 100
1, 30527, Note_on_c, 0, 62, 100
1, 30575, Note_off_c, 0, 62, 100
1, 30575, Note_on_c, 0, 58, 100
1, 30671, Note_off_c, 0, 58, 100
1, 30671, Note_on_c, 0, 66, 100
1, 30767, Note_off_c, 0, 66, 100
1, 30767, Note_on_c, 0, 61, 100
1, 30863, Note_off_c, 0, 61, 100
1, 30863, Note_on_c, 0, 67, 100
1, 30975, Note_off_c, 0, 67, 100
1, 30975, Note_on_c, 0, 69, 100
1, 31103, Note_off_c, 0, 69, 100
1, 31103, Note_on_c, 0, 70, 100
1, 31199, Note_off_c, 0, 70, 100
1, 31199, Note_on_c, 0, 71, 100
1, 31295, Note_off_c, 0, 71, 100
1, 31295, Note_on_c, 0, 72, 100
1, 31391, Note_off_c, 0, 72, 100
1, 31391, Note_on_c, 0, 70, 100
1, 31551, Note_off_c, 0, 70, 100
1, 31551, Note_on_c, 0, 69, 100
1, 31679, Note_off_c, 0, 69, 100
1, 31679, Note_on_c, 0, 65, 100
1, 31743, Note_off_c, 0, 65, 100
1, 31743, Note_on_c, 0, 60, 100
1, 31807, Note_off_c, 0, 60, 100
1, 31807, Note_on_c, 0, 70, 100
1, 31967, Note_off_c, 0, 70, 100
1, 31967, Note_on_c, 0, 63, 100
1, 32015, Note_off_c, 0, 63, 100
1, 32015, Note_on_c, 0, 68, 100
1, 32159, Note_off_c, 0, 68, 100
1, 32159, Note_on_c, 0, 70, 100
1, 32255, Note_off_c, 0, 70, 100
1, 32255, Note_on_c, 0, 67, 100
1, 32351, Note_off_c, 0, 67, 100
1, 32351, Note_on_c, 0, 65, 100
1, 32447, Note_off_c, 0, 65, 100
1, 32447, Note_on_c, 0, 63, 100
1, 32511, Note_off_c, 0, 63, 100
1, 32511, Note_on_c, 0, 61, 100
1, 32575, Note_off_c, 0, 61, 100
1, 32575, Note_on_c, 0, 58, 100
1, 32639, Note_off_c, 0, 58, 100
1, 32639, Note_on_c, 0, 62, 100
1, 32735, Note_off_c, 0, 62, 100
1, 32735, Note_on_c, 0, 63, 100
1, 32831, Note_off_c, 0, 63, 100
1, 32831, Note_on_c, 0, 64, 100
1, 32927, Note_off_c, 0, 64, 100
1, 32927, Note_on_c, 0, 65, 100
1, 33119, Note_off_c, 0, 65, 100
1, 33119, Note_on_c, 0, 66, 100
1, 33215, Note_off_c, 0, 66, 100
1, 33215, Note_on_c, 0, 62, 100
1, 33311, Note_off_c, 0, 62, 100
1, 33311, Note_on_c, 0, 58, 100
1, 33407, Note_off_c, 0, 58, 100
1, 33407, Note_on_c, 0, 65, 100
1, 33503, Note_off_c, 0, 65, 100
1, 33503, Note_on_c, 0, 62, 100
1, 33551, Note_off_c, 0, 62, 100
1, 33551, Note_on_c, 0, 60, 100
1, 33647, Note_off_c, 0, 60, 100
1, 33647, Note_on_c, 0, 58, 100
1, 33695, Note_off_c, 0, 58, 100
1, 33695, Note_on_c, 0, 61, 100
1, 33743, Note_off_c, 0, 61, 100
1, 33743, Note_on_c, 0, 63, 100
1, 33839, Note_off_c, 0, 63, 100
1, 34079, Note_on_c, 0, 58, 100
1, 34175, Note_off_c, 0, 58, 100
1, 34367, Note_on_c, 0, 62, 100
1, 34463, Note_off_c, 0, 62, 100
1, 34463, Note_on_c, 0, 58, 100
1, 34559, Note_off_c, 0, 58, 100
1, 34559, Note_on_c, 0, 60, 100
1, 34655, Note_off_c, 0, 60, 100
1, 34655, Note_on_c, 0, 62, 100
1, 34751, Note_off_c, 0, 62, 100
1, 34751, Note_on_c, 0, 63, 100
1, 34847, Note_off_c, 0, 63, 100
1, 34847, Note_on_c, 0, 65, 100
1, 34943, Note_off_c, 0, 65, 100
1, 34943, Note_on_c, 0, 63, 100
1, 34991, Note_off_c, 0, 63, 100
1, 34991, Note_on_c, 0, 58, 100
1, 35087, Note_off_c, 0, 58, 100
1, 35855, Note_on_c, 0, 59, 100
1, 35999, Note_off_c, 0, 59, 100
1, 35999, Note_on_c, 0, 64, 100
1, 36191, Note_off_c, 0, 64, 100
1, 36191, Note_on_c, 0, 59, 100
1, 36287, Note_off_c, 0, 59, 100
1, 36287, Note_on_c, 0, 64, 100
1, 36383, Note_off_c, 0, 64, 100
1, 36383, Note_on_c, 0, 59, 100
1, 36479, Note_off_c, 0, 59, 100
1, 36479, Note_on_c, 0, 64, 100
1, 36575, Note_off_c, 0, 64, 100
1, 36575, Note_on_c, 0, 59, 100
1, 36719, Note_off_c, 0, 59, 100
1, 36719, Note_on_c, 0, 64, 100
1, 36815, Note_off_c, 0, 64, 100
1, 36815, Note_on_c, 0, 59, 100
1, 36911, Note_off_c, 0, 59, 100
1, 36911, Note_on_c, 0, 64, 100
1, 37007, Note_off_c, 0, 64, 100
1, 37007, Note_on_c, 0, 59, 100
1, 37103, Note_off_c, 0, 59, 100
1, 37103, Note_on_c, 0, 64, 100
1, 37199, Note_off_c, 0, 64, 100
1, 37199, Note_on_c, 0, 66, 100
1, 37247, Note_off_c, 0, 66, 100
1, 37247, Note_on_c, 0, 67, 100
1, 37439, Note_off_c, 0, 67, 100
1, 37439, Note_on_c, 0, 66, 100
1, 37583, Note_off_c, 0, 66, 100
1, 37583, Note_on_c, 0, 64, 100
1, 37695, Note_off_c, 0, 64, 100
1, 37695, Note_on_c, 0, 59, 100
1, 37823, Note_off_c, 0, 59, 100
1, 37823, Note_on_c, 0, 62, 100
1, 38111, Note_off_c, 0, 62, 100
1, 38879, Note_on_c, 0, 59, 100
1, 38975, Note_off_c, 0, 59, 100
1, 38975, Note_on_c, 0, 64, 100
1, 39071, Note_off_c, 0, 64, 100
1, 39071, Note_on_c, 0, 66, 100
1, 39167, Note_off_c, 0, 66, 100
1, 39167, Note_on_c, 0, 67, 100
1, 39231, Note_off_c, 0, 67, 100
1, 39231, Note_on_c, 0, 66, 100
1, 39295, Note_off_c, 0, 66, 100
1, 39295, Note_on_c, 0, 65, 100
1, 39423, Note_off_c, 0, 65, 100
1, 39423, Note_on_c, 0, 64, 100
1, 39487, Note_off_c, 0, 64, 100
1, 39487, Note_on_c, 0, 62, 100
1, 39551, Note_off_c, 0, 62, 100
1, 39551, Note_on_c, 0, 60, 100
1, 39615, Note_off_c, 0, 60, 100
1, 39615, Note_on_c, 0, 59, 100
1, 39679, Note_off_c, 0, 59, 100
1, 39679, Note_on_c, 0, 58, 100
1, 39775, Note_off_c, 0, 58, 100
1, 40271, Note_on_c, 0, 69, 100
1, 40415, Note_off_c, 0, 69, 100
1, 40415, Note_on_c, 0, 72, 100
1, 40511, Note_off_c, 0, 72, 100
1, 40511, Note_on_c, 0, 70, 100
1, 40607, Note_off_c, 0, 70, 100
1, 40607, Note_on_c, 0, 69, 100
1, 40703, Note_off_c, 0, 69, 100
1, 40703, Note_on_c, 0, 67, 100
1, 40799, Note_off_c, 0, 67, 100
1, 40799, Note_on_c, 0, 66, 100
1, 40895, Note_off_c, 0, 66, 100
1, 40895, Note_on_c, 0, 65, 100
1, 40991, Note_off_c, 0, 65, 100
1, 40991, Note_on_c, 0, 64, 100
1, 41087, Note_off_c, 0, 64, 100
1, 41087, Note_on_c, 0, 62, 100
1, 41183, Note_off_c, 0, 62, 100
1, 41183, Note_on_c, 0, 58, 100
1, 41279, Note_off_c, 0, 58, 100
1, 41279, Note_on_c, 0, 63, 100
1, 41375, Note_off_c, 0, 63, 100
1, 41375, Note_on_c, 0, 65, 100
1, 41567, Note_off_c, 0, 65, 100
1, 41567, Note_on_c, 0, 60, 100
1, 41663, Note_off_c, 0, 60, 100
1, 41663, Note_on_c, 0, 65, 100
1, 41759, Note_off_c, 0, 65, 100
1, 41759, Note_on_c, 0, 62, 100
1, 41855, Note_off_c, 0, 62, 100
1, 41855, Note_on_c, 0, 69, 100
1, 41951, Note_off_c, 0, 69, 100
1, 41951, Note_on_c, 0, 72, 100
1, 42047, Note_off_c, 0, 72, 100
1, 42047, Note_on_c, 0, 70, 100
1, 42143, Note_off_c, 0, 70, 100
1, 42143, Note_on_c, 0, 69, 100
1, 42239, Note_off_c, 0, 69, 100
1, 42239, Note_on_c, 0, 67, 100
1, 42335, Note_off_c, 0, 67, 100
1, 42335, Note_on_c, 0, 63, 100
1, 42383, Note_off_c, 0, 63, 100
1, 42383, Note_on_c, 0, 60, 100
1, 42431, Note_off_c, 0, 60, 100
1, 42431, Note_on_c, 0, 68, 100
1, 42527, Note_off_c, 0, 68, 100
1, 43103, Note_on_c, 0, 66, 100
1, 43199, Note_off_c, 0, 66, 100
1, 43199, Note_on_c, 0, 67, 100
1, 43263, Note_off_c, 0, 67, 100
1, 43263, Note_on_c, 0, 69, 100
1, 43327, Note_off_c, 0, 69, 100
1, 43327, Note_on_c, 0, 70, 100
1, 43391, Note_off_c, 0, 70, 100
1, 43391, Note_on_c, 0, 71, 100
1, 43583, Note_off_c, 0, 71, 100
1, 43583, Note_on_c, 0, 70, 100
1, 43679, Note_off_c, 0, 70, 100
1, 43679, Note_on_c, 0, 69, 100
1, 43727, Note_off_c, 0, 69, 100
1, 43727, Note_on_c, 0, 67, 100
1, 43775, Note_off_c, 0, 67, 100
1, 43775, Note_on_c, 0, 63, 100
1, 43871, Note_off_c, 0, 63, 100
1, 43871, Note_on_c, 0, 60, 100
1, 43967, Note_off_c, 0, 60, 100
1, 43967, Note_on_c, 0, 69, 100
1, 44063, Note_off_c, 0, 69, 100
1, 44063, Note_on_c, 0, 65, 100
1, 44159, Note_off_c, 0, 65, 100
1, 44159, Note_on_c, 0, 63, 100
1, 44207, Note_off_c, 0, 63, 100
1, 44207, Note_on_c, 0, 60, 100
1, 44303, Note_off_c, 0, 60, 100
1, 44303, Note_on_c, 0, 67, 100
1, 44447, Note_off_c, 0, 67, 100
1, 44447, Note_on_c, 0, 63, 100
1, 44495, Note_off_c, 0, 63, 100
1, 44495, Note_on_c, 0, 68, 100
1, 44639, Note_off_c, 0, 68, 100
1, 44639, Note_on_c, 0, 69, 100
1, 44735, Note_off_c, 0, 69, 100
1, 44735, Note_on_c, 0, 72, 100
1, 44831, Note_off_c, 0, 72, 100
1, 44831, Note_on_c, 0, 64, 100
1, 44879, Note_off_c, 0, 64, 100
1, 44879, Note_on_c, 0, 63, 100
1, 44975, Note_off_c, 0, 63, 100
1, 44975, Note_on_c, 0, 60, 100
1, 45071, Note_off_c, 0, 60, 100
1, 45071, Note_on_c, 0, 62, 100
1, 45215, Note_off_c, 0, 62, 100
1, 45215, Note_on_c, 0, 63, 100
1, 45311, Note_off_c, 0, 63, 100
1, 45311, Note_on_c, 0, 68, 100
1, 45407, Note_off_c, 0, 68, 100
1, 45407, Note_on_c, 0, 70, 100
1, 45503, Note_off_c, 0, 70, 100
1, 45503, Note_on_c, 0, 74, 100
1, 45599, Note_off_c, 0, 74, 100
1, 45599, Note_on_c, 0, 72, 100
1, 45695, Note_off_c, 0, 72, 100
1, 45695, Note_on_c, 0, 70, 100
1, 45791, Note_off_c, 0, 70, 100
1, 45791, Note_on_c, 0, 68, 100
1, 45887, Note_off_c, 0, 68, 100
1, 45887, Note_on_c, 0, 69, 100
1, 46031, Note_off_c, 0, 69, 100
1, 46031, Note_on_c, 0, 76, 100
1, 46143, Note_off_c, 0, 76, 100
1, 46143, Note_on_c, 0, 80, 100
1, 46463, Note_off_c, 0, 80, 100
1, 46463, Note_on_c, 0, 67, 100
1, 46559, Note_off_c, 0, 67, 100
1, 47807, Note_on_c, 0, 77, 100
1, 48447, Note_off_c, 0, 77, 100
1, 48447, Note_on_c, 0, 65, 100
1, 48623, Note_off_c, 0, 65, 100
1, 48623, Note_on_c, 0, 65, 100
1, 48719, Note_off_c, 0, 65, 100
1, 48719, Note_on_c, 0, 74, 100
1, 48863, Note_off_c, 0, 74, 100
1, 48863, Note_on_c, 0, 65, 100
1, 48911, Note_off_c, 0, 65, 100
1, 48911, Note_on_c, 0, 72, 100
1, 49055, Note_off_c, 0, 72, 100
1, 49055, Note_on_c, 0, 75, 100
1, 49247, Note_off_c, 0, 75, 100
1, 49247, Note_on_c, 0, 69, 100
1, 49439, Note_off_c, 0, 69, 100
1, 49439, Note_on_c, 0, 74, 100
1, 49631, Note_off_c, 0, 74, 100
1, 49631, Note_on_c, 0, 72, 100
1, 49727, Note_off_c, 0, 72, 100
1, 50591, Note_on_c, 0, 79, 100
1, 50783, Note_off_c, 0, 79, 100
1, 50783, Note_on_c, 0, 78, 100
1, 50879, Note_off_c, 0, 78, 100
1, 50879, Note_on_c, 0, 77, 100
1, 50975, Note_off_c, 0, 77, 100
1, 50975, Note_on_c, 0, 76, 100
1, 51023, Note_off_c, 0, 76, 100
1, 51023, Note_on_c, 0, 75, 100
1, 51119, Note_off_c, 0, 75, 100
1, 51119, Note_on_c, 0, 74, 100
1, 51215, Note_off_c, 0, 74, 100
1, 51215, Note_on_c, 0, 73, 100
1, 51327, Note_off_c, 0, 73, 100
1, 51327, Note_on_c, 0, 72, 100
1, 51455, Note_off_c, 0, 72, 100
1, 51455, Note_on_c, 0, 72, 100
1, 51551, Note_off_c, 0, 72, 100
1, 51551, Note_on_c, 0, 70, 100
1, 51647, Note_off_c, 0, 70, 100
1, 51647, Note_on_c, 0, 69, 100
1, 51839, Note_off_c, 0, 69, 100
1, 51839, Note_on_c, 0, 60, 100
1, 51887, Note_off_c, 0, 60, 100
1, 51887, Note_on_c, 0, 61, 100
1, 51983, Note_off_c, 0, 61, 100
1, 51983, Note_on_c, 0, 70, 100
1, 52127, Note_off_c, 0, 70, 100
1, 52127, Note_on_c, 0, 62, 100
1, 52223, Note_off_c, 0, 62, 100
1, 52223, Note_on_c, 0, 69, 100
1, 52271, Note_off_c, 0, 69, 100
1, 52271, Note_on_c, 0, 70, 100
1, 52367, Note_off_c, 0, 70, 100
1, 52367, Note_on_c, 0, 69, 100
1, 52511, Note_off_c, 0, 69, 100
1, 52511, Note_on_c, 0, 65, 100
1, 52607, Note_off_c, 0, 65, 100
1, 52607, Note_on_c, 0, 64, 100
1, 52703, Note_off_c, 0, 64, 100
1, 53711, Note_on_c, 0, 74, 100
1, 53903, Note_off_c, 0, 74, 100
1, 53903, Note_on_c, 0, 72, 100
1, 54095, Note_off_c, 0, 72, 100
1, 54095, Note_on_c, 0, 70, 100
1, 54287, Note_off_c, 0, 70, 100
1, 54287, Note_on_c, 0, 69, 100
1, 54479, Note_off_c, 0, 69, 100
1, 54479, Note_on_c, 0, 67, 100
1, 54623, Note_off_c, 0, 67, 100
1, 54623, Note_on_c, 0, 70, 100
1, 54719, Note_off_c, 0, 70, 100
1, 54719, Note_on_c, 0, 72, 100
1, 55007, Note_off_c, 0, 72, 100
1, 55007, Note_on_c, 0, 70, 100
1, 55167, Note_off_c, 0, 70, 100
1, 55167, Note_on_c, 0, 69, 100
1, 55295, Note_off_c, 0, 69, 100
1, 55295, Note_on_c, 0, 63, 100
1, 55343, Note_off_c, 0, 63, 100
1, 55343, Note_on_c, 0, 60, 100
1, 55439, Note_off_c, 0, 60, 100
1, 55439, Note_on_c, 0, 70, 100
1, 55679, Note_off_c, 0, 70, 100
1, 55679, Note_on_c, 0, 69, 100
1, 55775, Note_off_c, 0, 69, 100
1, 55775, Note_on_c, 0, 65, 100
1, 55871, Note_off_c, 0, 65, 100
1, 55871, Note_on_c, 0, 67, 100
1, 56015, Note_off_c, 0, 67, 100
1, 56015, Note_on_c, 0, 63, 100
1, 56159, Note_off_c, 0, 63, 100
1, 56159, Note_on_c, 0, 62, 100
1, 56351, Note_off_c, 0, 62, 100
1, 56351, Note_on_c, 0, 67, 100
1, 56495, Note_off_c, 0, 67, 100
1, 56495, Note_on_c, 0, 62, 100
1, 56543, Note_off_c, 0, 62, 100
1, 56543, Note_on_c, 0, 58, 100
1, 56591, Note_off_c, 0, 58, 100
1, 56591, Note_on_c, 0, 65, 100
1, 56783, Note_off_c, 0, 65, 100
1, 56783, Note_on_c, 0, 74, 100
1, 56879, Note_off_c, 0, 74, 100
1, 57167, Note_on_c, 0, 72, 100
1, 57311, Note_off_c, 0, 72, 100
1, 57311, Note_on_c, 0, 68, 100
1, 57407, Note_off_c, 0, 68, 100
1, 57407, Note_on_c, 0, 69, 100
1, 57551, Note_off_c, 0, 69, 100
1, 57551, Note_on_c, 0, 74, 100
1, 57599, Note_off_c, 0, 74, 100
1, 57599, Note_on_c, 0, 72, 100
1, 57791, Note_off_c, 0, 72, 100
1, 57791, Note_on_c, 0, 67, 100
1, 57887, Note_off_c, 0, 67, 100
1, 57887, Note_on_c, 0, 63, 100
1, 57983, Note_off_c, 0, 63, 100
1, 57983, Note_on_c, 0, 60, 100
1, 58079, Note_off_c, 0, 60, 100
1, 58607, Note_on_c, 0, 67, 100
1, 58703, Note_off_c, 0, 67, 100
1, 58703, Note_on_c, 0, 75, 100
1, 58847, Note_off_c, 0, 75, 100
1, 58847, Note_on_c, 0, 78, 100
1, 59039, Note_off_c, 0, 78, 100
1, 59039, Note_on_c, 0, 72, 100
1, 59135, Note_off_c, 0, 72, 100
1, 60191, Note_on_c, 0, 73, 100
1, 60335, Note_off_c, 0, 73, 100
1, 60335, Note_on_c, 0, 74, 100
1, 60431, Note_off_c, 0, 74, 100
1, 60431, Note_on_c, 0, 73, 100
1, 60575, Note_off_c, 0, 73, 100
1, 60575, Note_on_c, 0, 74, 100
1, 60671, Note_off_c, 0, 74, 100
1, 60671, Note_on_c, 0, 73, 100
1, 60767, Note_off_c, 0, 73, 100
1, 60767, Note_on_c, 0, 74, 100
1, 60911, Note_off_c, 0, 74, 100
1, 60911, Note_on_c, 0, 73, 100
1, 61007, Note_off_c, 0, 73, 100
1, 61007, Note_on_c, 0, 74, 100
1, 61103, Note_off_c, 0, 74, 100
1, 61103, Note_on_c, 0, 73, 100
1, 61199, Note_off_c, 0, 73, 100
1, 61199, Note_on_c, 0, 74, 100
1, 61343, Note_off_c, 0, 74, 100
1, 61343, Note_on_c, 0, 73, 100
1, 61439, Note_off_c, 0, 73, 100
1, 61439, Note_on_c, 0, 74, 100
1, 61535, Note_off_c, 0, 74, 100
1, 61535, Note_on_c, 0, 73, 100
1, 61631, Note_off_c, 0, 73, 100
1, 61631, Note_on_c, 0, 74, 100
1, 61727, Note_off_c, 0, 74, 100
1, 61727, Note_on_c, 0, 71, 100
1, 61823, Note_off_c, 0, 71, 100
1, 61823, Note_on_c, 0, 67, 100
1, 61919, Note_off_c, 0, 67, 100
1, 62735, Note_on_c, 0, 73, 100
1, 62879, Note_off_c, 0, 73, 100
1, 62879, Note_on_c, 0, 74, 100
1, 62975, Note_off_c, 0, 74, 100
1, 62975, Note_on_c, 0, 73, 100
1, 63071, Note_off_c, 0, 73, 100
1, 63071, Note_on_c, 0, 74, 100
1, 63167, Note_off_c, 0, 74, 100
1, 63167, Note_on_c, 0, 73, 100
1, 63263, Note_off_c, 0, 73, 100
1, 63263, Note_on_c, 0, 74, 100
1, 63359, Note_off_c, 0, 74, 100
1, 63359, Note_on_c, 0, 73, 100
1, 63455, Note_off_c, 0, 73, 100
1, 63455, Note_on_c, 0, 74, 100
1, 63551, Note_off_c, 0, 74, 100
1, 63551, Note_on_c, 0, 73, 100
1, 63647, Note_off_c, 0, 73, 100
1, 63647, Note_on_c, 0, 74, 100
1, 63743, Note_off_c, 0, 74, 100
1, 63743, Note_on_c, 0, 73, 100
1, 63839, Note_off_c, 0, 73, 100
1, 63839, Note_on_c, 0, 74, 100
1, 63935, Note_off_c, 0, 74, 100
1, 63935, Note_on_c, 0, 71, 100
1, 64079, Note_off_c, 0, 71, 100
1, 64079, Note_on_c, 0, 67, 100
1, 64175, Note_off_c, 0, 67, 100
1, 64767, Note_on_c, 0, 71, 100
1, 64831, Note_off_c, 0, 71, 100
1, 64831, Note_on_c, 0, 72, 100
1, 64991, Note_off_c, 0, 72, 100
1, 64991, Note_on_c, 0, 69, 100
1, 65279, Note_off_c, 0, 69, 100
1, 66047, Note_on_c, 0, 70, 100
1, 66623, Note_off_c, 0, 70, 100
1, 66623, Note_on_c, 0, 62, 100
1, 66815, Note_off_c, 0, 62, 100
1, 66815, Note_on_c, 0, 65, 100
1, 67007, Note_off_c, 0, 65, 100
1, 67007, Note_on_c, 0, 70, 100
1, 67135, Note_off_c, 0, 70, 100
1, 67135, Note_on_c, 0, 72, 100
1, 67295, Note_off_c, 0, 72, 100
1, 67295, Note_on_c, 0, 74, 100
1, 67487, Note_off_c, 0, 74, 100
1, 67487, Note_on_c, 0, 75, 100
1, 67679, Note_off_c, 0, 75, 100
1, 67679, Note_on_c, 0, 74, 100
1, 67871, Note_off_c, 0, 74, 100
1, 67871, Note_on_c, 0, 70, 100
1, 68063, Note_off_c, 0, 70, 100
1, 68063, Note_on_c, 0, 60, 100
1, 68159, Note_off_c, 0, 60, 100
1, 68159, Note_on_c, 0, 70, 100
1, 68351, Note_off_c, 0, 70, 100
1, 68351, Note_on_c, 0, 65, 100
1, 68543, Note_off_c, 0, 65, 100
1, 68543, Note_on_c, 0, 67, 100
1, 68687, Note_off_c, 0, 67, 100
1, 68687, Note_on_c, 0, 70, 100
1, 68879, Note_off_c, 0, 70, 100
1, 68879, Note_on_c, 0, 69, 100
1, 69023, Note_off_c, 0, 69, 100
1, 69023, Note_on_c, 0, 67, 100
1, 69215, Note_off_c, 0, 67, 100
1, 69215, Note_on_c, 0, 65, 100
1, 69311, Note_off_c, 0, 65, 100
1, 70031, Note_on_c, 0, 80, 100
1, 70847, Note_off_c, 0, 80, 100
1, 70847, Note_on_c, 0, 79, 100
1, 70975, Note_off_c, 0, 79, 100
1, 70975, Note_on_c, 0, 77, 100
1, 71135, Note_off_c, 0, 77, 100
1, 71135, Note_on_c, 0, 74, 100
1, 71375, Note_off_c, 0, 74, 100
1, 71375, Note_on_c, 0, 72, 100
1, 71519, Note_off_c, 0, 72, 100
1, 71519, Note_on_c, 0, 70, 100
1, 71807, Note_off_c, 0, 70, 100
1, 71807, Note_on_c, 0, 68, 100
1, 71903, Note_off_c, 0, 68, 100
1, 71903, Note_on_c, 0, 64, 100
1, 72143, Note_off_c, 0, 64, 100
1, 72143, Note_on_c, 0, 63, 100
1, 72287, Note_off_c, 0, 63, 100
1, 72287, Note_on_c, 0, 63, 100
1, 72479, Note_off_c, 0, 63, 100
1, 72479, Note_on_c, 0, 62, 100
1, 72575, Note_off_c, 0, 62, 100
1, 72911, Note_on_c, 0, 64, 100
1, 73055, Note_off_c, 0, 64, 100
1, 73055, Note_on_c, 0, 61, 100
1, 73343, Note_off_c, 0, 61, 100
1, 74111, Note_on_c, 0, 58, 100
1, 74159, Note_off_c, 0, 58, 100
1, 74159, Note_on_c, 0, 61, 100
1, 74255, Note_off_c, 0, 61, 100
1, 74255, Note_on_c, 0, 63, 100
1, 74367, Note_off_c, 0, 63, 100
1, 74367, Note_on_c, 0, 64, 100
1, 74431, Note_off_c, 0, 64, 100
1, 74431, Note_on_c, 0, 65, 100
1, 74559, Note_off_c, 0, 65, 100
1, 74559, Note_on_c, 0, 64, 100
1, 74623, Note_off_c, 0, 64, 100
1, 74623, Note_on_c, 0, 66, 100
1, 74735, Note_off_c, 0, 66, 100
1, 74735, Note_on_c, 0, 68, 100
1, 74831, Note_off_c, 0, 68, 100
1, 74831, Note_on_c, 0, 66, 100
1, 74879, Note_off_c, 0, 66, 100
1, 74879, Note_on_c, 0, 65, 100
1, 75119, Note_off_c, 0, 65, 100
1, 75119, Note_on_c, 0, 64, 100
1, 75215, Note_off_c, 0, 64, 100
1, 75215, Note_on_c, 0, 62, 100
1, 75311, Note_off_c, 0, 62, 100
1, 75839, Note_on_c, 0, 72, 100
1, 75935, Note_off_c, 0, 72, 100
1, 75935, Note_on_c, 0, 74, 100
1, 76031, Note_off_c, 0, 74, 100
1, 76031, Note_on_c, 0, 72, 100
1, 76127, Note_off_c, 0, 72, 100
1, 76127, Note_on_c, 0, 70, 100
1, 76223, Note_off_c, 0, 70, 100
1, 76223, Note_on_c, 0, 69, 100
1, 76319, Note_off_c, 0, 69, 100
1, 76319, Note_on_c, 0, 67, 100
1, 76415, Note_off_c, 0, 67, 100
1, 76415, Note_on_c, 0, 65, 100
1, 76543, Note_off_c, 0, 65, 100
1, 76543, Note_on_c, 0, 62, 100
1, 76607, Note_off_c, 0, 62, 100
1, 76607, Note_on_c, 0, 63, 100
1, 76703, Note_off_c, 0, 63, 100
1, 76703, Note_on_c, 0, 61, 100
1, 76799, Note_off_c, 0, 61, 100
1, 77135, Note_on_c, 0, 70, 100
1, 77183, Note_off_c, 0, 70, 100
1, 77183, Note_on_c, 0, 72, 100
1, 77279, Note_off_c, 0, 72, 100
1, 77279, Note_on_c, 0, 70, 100
1, 77471, Note_off_c, 0, 70, 100
1, 77471, Note_on_c, 0, 70, 100
1, 77519, Note_off_c, 0, 70, 100
1, 77519, Note_on_c, 0, 69, 100
1, 77663, Note_off_c, 0, 69, 100
1, 77663, Note_on_c, 0, 67, 100
1, 77823, Note_off_c, 0, 67, 100
1, 77823, Note_on_c, 0, 65, 100
1, 77951, Note_off_c, 0, 65, 100
1, 77951, Note_on_c, 0, 63, 100
1, 78079, Note_off_c, 0, 63, 100
1, 78079, Note_on_c, 0, 62, 100
1, 78207, Note_off_c, 0, 62, 100
1, 78207, Note_on_c, 0, 58, 100
1, 78303, Note_off_c, 0, 58, 100
1, 78719, Note_on_c, 0, 59, 100
1, 78815, Note_off_c, 0, 59, 100
1, 78815, Note_on_c, 0, 58, 100
1, 79103, Note_off_c, 0, 58, 100
1, 79103, Note_on_c, 0, 67, 100
1, 79295, Note_off_c, 0, 67, 100
1, 79295, Note_on_c, 0, 69, 100
1, 79391, Note_off_c, 0, 69, 100
1, 79391, Note_on_c, 0, 67, 100
1, 79583, Note_off_c, 0, 67, 100
1, 79583, Note_on_c, 0, 69, 100
1, 79775, Note_off_c, 0, 69, 100
1, 79775, Note_on_c, 0, 70, 100
1, 79967, Note_off_c, 0, 70, 100
1, 79967, Note_on_c, 0, 70, 100
1, 80063, Note_off_c, 0, 70, 100
1, 80063, Note_on_c, 0, 67, 100
1, 80255, Note_off_c, 0, 67, 100
1, 80255, Note_on_c, 0, 63, 100
1, 80351, Note_off_c, 0, 63, 100
1, 80351, Note_on_c, 0, 60, 100
1, 80447, Note_off_c, 0, 60, 100
1, 80447, Note_on_c, 0, 62, 100
1, 80543, Note_off_c, 0, 62, 100
1, 80543, Note_on_c, 0, 65, 100
1, 80639, Note_off_c, 0, 65, 100
1, 80639, Note_on_c, 0, 62, 100
1, 80735, Note_off_c, 0, 62, 100
1, 80735, Note_on_c, 0, 58, 100
1, 80831, Note_off_c, 0, 58, 100
1, 80831, Note_on_c, 0, 63, 100
1, 80927, Note_off_c, 0, 63, 100
1, 81359, Note_on_c, 0, 74, 100
1, 81599, Note_off_c, 0, 74, 100
1, 81599, Note_on_c, 0, 71, 100
1, 81663, Note_off_c, 0, 71, 100
1, 81663, Note_on_c, 0, 70, 100
1, 81727, Note_off_c, 0, 70, 100
1, 81727, Note_on_c, 0, 68, 100
1, 81791, Note_off_c, 0, 68, 100
1, 81791, Note_on_c, 0, 69, 100
1, 81839, Note_off_c, 0, 69, 100
1, 81839, Note_on_c, 0, 68, 100
1, 81887, Note_off_c, 0, 68, 100
1, 81887, Note_on_c, 0, 66, 100
1, 81935, Note_off_c, 0, 66, 100
1, 81935, Note_on_c, 0, 63, 100
1, 81983, Note_off_c, 0, 63, 100
1, 81983, Note_on_c, 0, 61, 100
1, 82031, Note_off_c, 0, 61, 100
1, 82031, Note_on_c, 0, 59, 100
1, 82127, Note_off_c, 0, 59, 100
1, 82127, Note_on_c, 0, 56, 100
1, 82175, Note_off_c, 0, 56, 100
1, 82175, Note_on_c, 0, 54, 100
1, 82271, Note_off_c, 0, 54, 100
1, 82751, Note_on_c, 0, 78, 100
1, 83039, Note_off_c, 0, 78, 100
1, 83039, Note_on_c, 0, 77, 100
1, 83087, Note_off_c, 0, 77, 100
1, 83087, Note_on_c, 0, 75, 100
1, 83135, Note_off_c, 0, 75, 100
1, 83135, Note_on_c, 0, 74, 100
1, 83183, Note_off_c, 0, 74, 100
1, 83183, Note_on_c, 0, 73, 100
1, 83231, Note_off_c, 0, 73, 100
1, 83231, Note_on_c, 0, 72, 100
1, 83279, Note_off_c, 0, 72, 100
1, 83279, Note_on_c, 0, 71, 100
1, 83327, Note_off_c, 0, 71, 100
1, 83327, Note_on_c, 0, 70, 100
1, 83403, Note_off_c, 0, 70, 100
1, 83403, Note_on_c, 0, 69, 100
1, 83441, Note_off_c, 0, 69, 100
1, 83441, Note_on_c, 0, 67, 100
1, 83479, Note_off_c, 0, 67, 100
1, 83479, Note_on_c, 0, 66, 100
1, 83517, Note_off_c, 0, 66, 100
1, 83517, Note_on_c, 0, 63, 100
1, 83565, Note_off_c, 0, 63, 100
1, 83565, Note_on_c, 0, 59, 100
1, 83661, Note_off_c, 0, 59, 100
1, 83661, Note_on_c, 0, 65, 100
1, 83709, Note_off_c, 0, 65, 100
1, 83709, Note_on_c, 0, 67, 100
1, 83773, Note_off_c, 0, 67, 100
1, 83773, Note_on_c, 0, 69, 100
1, 83837, Note_off_c, 0, 69, 100
1, 83837, Note_on_c, 0, 79, 100
1, 83901, Note_off_c, 0, 79, 100
1, 83901, Note_on_c, 0, 71, 100
1, 83997, Note_off_c, 0, 71, 100
1, 84861, Note_on_c, 0, 69, 100
1, 84957, Note_off_c, 0, 69, 100
1, 84957, Note_on_c, 0, 71, 100
1, 85149, Note_off_c, 0, 71, 100
1, 85149, Note_on_c, 0, 71, 100
1, 85245, Note_off_c, 0, 71, 100
1, 85245, Note_on_c, 0, 74, 100
1, 85293, Note_off_c, 0, 74, 100
1, 85293, Note_on_c, 0, 66, 100
1, 85341, Note_off_c, 0, 66, 100
1, 85341, Note_on_c, 0, 70, 100
1, 85437, Note_off_c, 0, 70, 100
1, 85437, Note_on_c, 0, 71, 100
1, 85533, Note_off_c, 0, 71, 100
1, 85533, Note_on_c, 0, 71, 100
1, 85725, Note_off_c, 0, 71, 100
1, 85725, Note_on_c, 0, 71, 100
1, 85885, Note_off_c, 0, 71, 100
1, 85885, Note_on_c, 0, 76, 100
1, 86157, Note_off_c, 0, 76, 100
1, 86157, Note_on_c, 0, 74, 100
1, 86253, Note_off_c, 0, 74, 100
1, 86685, Note_on_c, 0, 66, 100
1, 86733, Note_off_c, 0, 66, 100
1, 86733, Note_on_c, 0, 71, 100
1, 86877, Note_off_c, 0, 71, 100
1, 86877, Note_on_c, 0, 74, 100
1, 86973, Note_off_c, 0, 74, 100
1, 86973, Note_on_c, 0, 76, 100
1, 87069, Note_off_c, 0, 76, 100
1, 87069, Note_on_c, 0, 71, 100
1, 87165, Note_off_c, 0, 71, 100
1, 87165, Note_on_c, 0, 72, 100
1, 87357, Note_off_c, 0, 72, 100
1, 87357, Note_on_c, 0, 69, 100
1, 87485, Note_off_c, 0, 69, 100
1, 87485, Note_on_c, 0, 67, 100
1, 87677, Note_off_c, 0, 67, 100
1, 88365, Note_on_c, 0, 67, 100
1, 88461, Note_off_c, 0, 67, 100
1, 88461, Note_on_c, 0, 70, 100
1, 88573, Note_off_c, 0, 70, 100
1, 88573, Note_on_c, 0, 72, 100
1, 88701, Note_off_c, 0, 72, 100
1, 88701, Note_on_c, 0, 73, 100
1, 88765, Note_off_c, 0, 73, 100
1, 88765, Note_on_c, 0, 73, 100
1, 88829, Note_off_c, 0, 73, 100
1, 88829, Note_on_c, 0, 74, 100
1, 88893, Note_off_c, 0, 74, 100
1, 88893, Note_on_c, 0, 75, 100
1, 88989, Note_off_c, 0, 75, 100
1, 88989, Note_on_c, 0, 78, 100
1, 89149, Note_off_c, 0, 78, 100
1, 89149, Note_on_c, 0, 73, 100
1, 89245, Note_off_c, 0, 73, 100
1, 89613, Note_on_c, 0, 80, 100
1, 89757, Note_off_c, 0, 80, 100
1, 89757, Note_on_c, 0, 74, 100
1, 89853, Note_off_c, 0, 74, 100
1, 90333, Note_on_c, 0, 80, 100
1, 91069, Note_off_c, 0, 80, 100
1, 91069, Note_on_c, 0, 68, 100
1, 91133, Note_off_c, 0, 68, 100
1, 91133, Note_on_c, 0, 67, 100
1, 91197, Note_off_c, 0, 67, 100
1, 91197, Note_on_c, 0, 68, 100
1, 91293, Note_off_c, 0, 68, 100
1, 91293, Note_on_c, 0, 80, 100
1, 91485, Note_off_c, 0, 80, 100
1, 91869, Note_on_c, 0, 74, 100
1, 92061, Note_off_c, 0, 74, 100
1, 92061, Note_on_c, 0, 71, 100
1, 92157, Note_off_c, 0, 71, 100
1, 92157, Note_on_c, 0, 72, 100
1, 92253, Note_off_c, 0, 72, 100
1, 92253, Note_on_c, 0, 79, 100
1, 92397, Note_off_c, 0, 79, 100
1, 92397, Note_on_c, 0, 72, 100
1, 92493, Note_off_c, 0, 72, 100
1, 92493, Note_on_c, 0, 80, 100
1, 92685, Note_off_c, 0, 80, 100
1, 93021, Note_on_c, 0, 78, 100
1, 93117, Note_off_c, 0, 78, 100
1, 93117, Note_on_c, 0, 77, 100
1, 93213, Note_off_c, 0, 77, 100
1, 93757, Note_on_c, 0, 78, 100
1, 94557, Note_off_c, 0, 78, 100
1, 94557, Note_on_c, 0, 75, 100
1, 94653, Note_off_c, 0, 75, 100
1, 94653, Note_on_c, 0, 74, 100
1, 94749, Note_off_c, 0, 74, 100
1, 94749, Note_on_c, 0, 75, 100
1, 94845, Note_off_c, 0, 75, 100
1, 94845, Note_on_c, 0, 78, 100
1, 95229, Note_off_c, 0, 78, 100
1, 95229, Note_on_c, 0, 75, 100
1, 95293, Note_off_c, 0, 75, 100
1, 95293, Note_on_c, 0, 74, 100
1, 95357, Note_off_c, 0, 74, 100
1, 95357, Note_on_c, 0, 75, 100
1, 95517, Note_off_c, 0, 75, 100
1, 95517, Note_on_c, 0, 79, 100
1, 95709, Note_off_c, 0, 79, 100
1, 95709, Note_on_c, 0, 78, 100
1, 95805, Note_off_c, 0, 78, 100
1, 95805, Note_on_c, 0, 77, 100
1, 95901, Note_off_c, 0, 77, 100
1, 95901, Note_on_c, 0, 74, 100
1, 95949, Note_off_c, 0, 74, 100
1, 95949, Note_on_c, 0, 73, 100
1, 95997, Note_off_c, 0, 73, 100
1, 95997, Note_on_c, 0, 72, 100
1, 96093, Note_off_c, 0, 72, 100
1, 96093, Note_on_c, 0, 71, 100
1, 96237, Note_off_c, 0, 71, 100
1, 96237, Note_on_c, 0, 70, 100
1, 96333, Note_off_c, 0, 70, 100
1, 96333, Note_on_c, 0, 68, 100
1, 96405, Note_off_c, 0, 68, 100
1, 96405, End_track
0, 0, End_of_file
