0, 0, Header, 1, 1, 192
1, 0, Start_track
1, 0, Title_t, "Melody"
1, 0, Tempo, 257510
1, 0, Time_signature, 1, 2, 24, 8
1, 96, Note_on_c, 0, 74, 100
1, 240, Note_off_c, 0, 74, 100
1, 240, Note_on_c, 0, 70, 100
1, 336, Note_off_c, 0, 70, 100
1, 336, Note_on_c, 0, 67, 100
1, 448, Note_off_c, 0, 67, 100
1, 448, Note_on_c, 0, 62, 100
1, 512, Note_off_c, 0, 62, 100
1, 512, Note_on_c, 0, 67, 100
1, 624, Note_off_c, 0, 67, 100
1, 624, Note_on_c, 0, 70, 100
1, 720, Note_off_c, 0, 70, 100
1, 720, Note_on_c, 0, 74, 100
1, 912, Note_off_c, 0, 74, 100
1, 1296, Note_on_c, 0, 74, 100
1, 1440, Note_off_c, 0, 74, 100
1, 1440, Note_on_c, 0, 72, 100
1, 1536, Note_off_c, 0, 72, 100
1, 1920, Note_on_c, 0, 62, 100
1, 2016, Note_off_c, 0, 62, 100
1, 2016, Note_on_c, 0, 63, 100
1, 2112, Note_off_c, 0, 63, 100
1, 2112, Note_on_c, 0, 67, 100
1, 2208, Note_off_c, 0, 67, 100
1, 2208, Note_on_c, 0, 70, 100
1, 2304, Note_off_c, 0, 70, 100
1, 2304, Note_on_c, 0, 74, 100
1, 2400, Note_off_c, 0, 74, 100
1, 2400, Note_on_c, 0, 72, 100
1, 2496, Note_off_c, 0, 72, 100
1, 2496, Note_on_c, 0, 70, 100
1, 2592, Note_off_c, 0, 70, 100
1, 2976, Note_on_c, 0, 69, 100
1, 3072, Note_off_c, 0, 69, 100
1, 3072, Note_on_c, 0, 67, 100
1, 3168, Note_off_c, 0, 67, 100
1, 3168, Note_on_c, 0, 65, 100
1, 3302, Note_off_c, 0, 65, 100
1, 3302, Note_on_c, 0, 60, 100
1, 3340, Note_off_c, 0, 60, 100
1, 3340, Note_on_c, 0, 70, 100
1, 3416, Note_off_c, 0, 70, 100
1, 3416, Note_on_c, 0, 75, 100
1, 4078, Note_off_c, 0, 75, 100
1, 4078, Note_on_c, 0, 74, 100
1, 4174, Note_off_c, 0, 74, 100
1, 4174, Note_on_c, 0, 72, 100
1, 4270, Note_off_c, 0, 72, 100
1, 4270, Note_on_c, 0, 70, 100
1, 4366, Note_off_c, 0, 70, 100
1, 4366, Note_on_c, 0, 69, 100
1, 4462, Note_off_c, 0, 69, 100
1, 4462, Note_on_c, 0, 67, 100
1, 4558, Note_off_c, 0, 67, 100
1, 4558, Note_on_c, 0, 70, 100
1, 4750, Note_off_c, 0, 70, 100
1, 4750, Note_on_c, 0, 65, 100
1, 4846, Note_off_c, 0, 65, 100
1, 4846, Note_on_c, 0, 63, 100
1, 4942, Note_off_c, 0, 63, 100
1, 4942, Note_on_c, 0, 69, 100
1, 5086, Note_off_c, 0, 69, 100
1, 5086, Note_on_c, 0, 67, 100
1, 5182, Note_off_c, 0, 67, 100
1, 5182, Note_on_c, 0, 65, 100
1, 5278, Note_off_c, 0, 65, 100
1, 5278, Note_on_c, 0, 63, 100
1, 5374, Note_off_c, 0, 63, 100
1, 5374, Note_on_c, 0, 67, 100
1, 5502, Note_off_c, 0, 67, 100
1, 5502, Note_on_c, 0, 63, 100
1, 5566, Note_off_c, 0, 63, 100
1, 5566, Note_on_c, 0, 64, 100
1, 5662, Note_off_c, 0, 64, 100
1, 5662, Note_on_c, 0, 65, 100
1, 5758, Note_off_c, 0, 65, 100
1, 5758, Note_on_c, 0, 62, 100
1, 5822, Note_off_c, 0, 62, 100
1, 5822, Note_on_c, 0, 60, 100
1, 5886, Note_off_c, 0, 60, 100
1, 5886, Note_on_c, 0, 63, 100
1, 6046, Note_off_c, 0, 63, 100
1, 6046, Note_on_c, 0, 60, 100
1, 6190, Note_off_c, 0, 60, 100
1, 6190, Note_on_c, 0, 62, 100
1, 6430, Note_off_c, 0, 62, 100
1, 6430, Note_on_c, 0, 58, 100
1, 6526, Note_off_c, 0, 58, 100
1, 6526, Note_on_c, 0, 60, 100
1, 6622, Note_off_c, 0, 60, 100
1, 6910, Note_on_c, 0, 62, 100
1, 7006, Note_off_c, 0, 62, 100
1, 7006, Note_on_c, 0, 63, 100
1, 7102, Note_off_c, 0, 63, 100
1, 7102, Note_on_c, 0, 65, 100
1, 7230, Note_off_c, 0, 65, 100
1, 7230, Note_on_c, 0, 66, 100
1, 7294, Note_off_c, 0, 66, 100
1, 7294, Note_on_c, 0, 67, 100
1, 7390, Note_off_c, 0, 67, 100
1, 7390, Note_on_c, 0, 65, 100
1, 7486, Note_off_c, 0, 65, 100
1, 7486, Note_on_c, 0, 63, 100
1, 7582, Note_off_c, 0, 63, 100
1, 7582, Note_on_c, 0, 60, 100
1, 7678, Note_off_c, 0, 60, 100
1, 7678, Note_on_c, 0, 61, 100
1, 7774, Note_off_c, 0, 61, 100
1, 7774, Note_on_c, 0, 62, 100
1, 7966, Note_off_c, 0, 62, 100
1, 7966, Note_on_c, 0, 63, 100
1, 8158, Note_off_c, 0, 63, 100
1, 8158, Note_on_c, 0, 61, 100
1, 8350, Note_off_c, 0, 61, 100
1, 8350, Note_on_c, 0, 56, 100
1, 8398, Note_off_c, 0, 56, 100
1, 8398, Note_on_c, 0, 58, 100
1, 8446, Note_off_c, 0, 58, 100
1, 8446, Note_on_c, 0, 59, 100
1, 8542, Note_off_c, 0, 59, 100
1, 8542, Note_on_c, 0, 61, 100
1, 8638, Note_off_c, 0, 61, 100
1, 8638, Note_on_c, 0, 63, 100
1, 8734, Note_off_c, 0, 63, 100
1, 8734, Note_on_c, 0, 58, 100
1, 8830, Note_off_c, 0, 58, 100
1, 8830, Note_on_c, 0, 56, 100
1, 8974, Note_off_c, 0, 56, 100
1, 8974, Note_on_c, 0, 64, 100
1, 9070, Note_off_c, 0, 64, 100
1, 9310, Note_on_c, 0, 68, 100
1, 9406, Note_off_c, 0, 68, 100
1, 9406, Note_on_c, 0, 66, 100
1, 9502, Note_off_c, 0, 66, 100
1, 9502, Note_on_c, 0, 71, 100
1, 9598, Note_off_c, 0, 71, 100
1, 9886, Note_on_c, 0, 72, 100
1, 9982, Note_off_c, 0, 72, 100
1, 9982, Note_on_c, 0, 71, 100
1, 10078, Note_off_c, 0, 71, 100
1, 10078, Note_on_c, 0, 72, 100
1, 10174, Note_off_c, 0, 72, 100
1, 10174, Note_on_c, 0, 74, 100
1, 10270, Note_off_c, 0, 74, 100
1, 10270, Note_on_c, 0, 72, 100
1, 10366, Note_off_c, 0, 72, 100
1, 10366, Note_on_c, 0, 71, 100
1, 10462, Note_off_c, 0, 71, 100
1, 10462, Note_on_c, 0, 68, 100
1, 10558, Note_off_c, 0, 68, 100
1, 10558, Note_on_c, 0, 66, 100
1, 10654, Note_off_c, 0, 66, 100
1, 10654, Note_on_c, 0, 63, 100
1, 10750, Note_off_c, 0, 63, 100
1, 10750, Note_on_c, 0, 69, 100
1, 10798, Note_off_c, 0, 69, 100
1, 10798, Note_on_c, 0, 70, 100
1, 10894, Note_off_c, 0, 70, 100
1, 10894, Note_on_c, 0, 71, 100
1, 10990, Note_off_c, 0, 71, 100
1, 11230, Note_on_c, 0, 71, 100
1, 11470, Note_off_c, 0, 71, 100
1, 11470, Note_on_c, 0, 73, 100
1, 11614, Note_off_c, 0, 73, 100
1, 11614, Note_on_c, 0, 70, 100
1, 11774, Note_off_c, 0, 70, 100
1, 11774, Note_on_c, 0, 69, 100
1, 11838, Note_off_c, 0, 69, 100
1, 11838, Note_on_c, 0, 65, 100
1, 11902, Note_off_c, 0, 65, 100
1, 11902, Note_on_c, 0, 66, 100
1, 11934, Note_off_c, 0, 66, 100
1, 11934, Note_on_c, 0, 67, 100
1, 12030, Note_off_c, 0, 67, 100
1, 12030, Note_on_c, 0, 63, 100
1, 12158, Note_off_c, 0, 63, 100
1, 12158, Note_on_c, 0, 60, 100
1, 12222, Note_off_c, 0, 60, 100
1, 12222, Note_on_c, 0, 58, 100
1, 12286, Note_off_c, 0, 58, 100
1, 12286, Note_on_c, 0, 62, 100
1, 12382, Note_off_c, 0, 62, 100
1, 12382, Note_on_c, 0, 63, 100
1, 12478, Note_off_c, 0, 63, 100
1, 12478, Note_on_c, 0, 64, 100
1, 12574, Note_off_c, 0, 64, 100
1, 12574, Note_on_c, 0, 64, 100
1, 12766, Note_off_c, 0, 64, 100
1, 12766, Note_on_c, 0, 65, 100
1, 12862, Note_off_c, 0, 65, 100
1, 12862, Note_on_c, 0, 62, 100
1, 12926, Note_off_c, 0, 62, 100
1, 12926, Note_on_c, 0, 58, 100
1, 12990, Note_off_c, 0, 58, 100
1, 12990, Note_on_c, 0, 63, 100
1, 13150, Note_off_c, 0, 63, 100
1, 13150, Note_on_c, 0, 70, 100
1, 13294, Note_off_c, 0, 70, 100
1, 13294, Note_on_c, 0, 73, 100
1, 13390, Note_off_c, 0, 73, 100
1, 13390, Note_on_c, 0, 74, 100
1, 13502, Note_off_c, 0, 74, 100
1, 13502, Note_on_c, 0, 76, 100
1, 13566, Note_off_c, 0, 76, 100
1, 13566, Note_on_c, 0, 77, 100
1, 13630, Note_off_c, 0, 77, 100
1, 13630, Note_on_c, 0, 78, 100
1, 13726, Note_off_c, 0, 78, 100
1, 13726, Note_on_c, 0, 76, 100
1, 13822, Note_off_c, 0, 76, 100
1, 14462, Note_on_c, 0, 72, 100
1, 14734, Note_off_c, 0, 72, 100
1, 14734, Note_on_c, 0, 69, 100
1, 14878, Note_off_c, 0, 69, 100
1, 14878, Note_on_c, 0, 65, 100
1, 15166, Note_off_c, 0, 65, 100
1, 16270, Note_on_c, 0, 70, 100
1, 17278, Note_off_c, 0, 70, 100
1, 17278, Note_on_c, 0, 65, 100
1, 17470, Note_off_c, 0, 65, 100
1, 17470, Note_on_c, 0, 65, 100
1, 17566, Note_off_c, 0, 65, 100
1, 17566, Note_on_c, 0, 58, 100
1, 17662, Note_off_c, 0, 58, 100
1, 17662, Note_on_c, 0, 63, 100
1, 17726, Note_off_c, 0, 63, 100
1, 17726, Note_on_c, 0, 58, 100
1, 17790, Note_off_c, 0, 58, 100
1, 17790, Note_on_c, 0, 61, 100
1, 17950, Note_off_c, 0, 61, 100
1, 17950, Note_on_c, 0, 58, 100
1, 18046, Note_off_c, 0, 58, 100
1, 18958, Note_on_c, 0, 62, 100
1, 19102, Note_off_c, 0, 62, 100
1, 19102, Note_on_c, 0, 63, 100
1, 19198, Note_off_c, 0, 63, 100
1, 19198, Note_on_c, 0, 65, 100
1, 19582, Note_off_c, 0, 65, 100
1, 19582, Note_on_c, 0, 62, 100
1, 19678, Note_off_c, 0, 62, 100
1, 20302, Note_on_c, 0, 63, 100
1, 20446, Note_off_c, 0, 63, 100
1, 20446, Note_on_c, 0, 62, 100
1, 20542, Note_off_c, 0, 62, 100
1, 20542, Note_on_c, 0, 63, 100
1, 20638, Note_off_c, 0, 63, 100
1, 20638, Note_on_c, 0, 67, 100
1, 20734, Note_off_c, 0, 67, 100
1, 20734, Note_on_c, 0, 70, 100
1, 20830, Note_off_c, 0, 70, 100
1, 20830, Note_on_c, 0, 71, 100
1, 20926, Note_off_c, 0, 71, 100
1, 20926, Note_on_c, 0, 72, 100
1, 21022, Note_off_c, 0, 72, 100
1, 21022, Note_on_c, 0, 69, 100
1, 21214, Note_off_c, 0, 69, 100
1, 21214, Note_on_c, 0, 67, 100
1, 21310, Note_off_c, 0, 67, 100
1, 21310, Note_on_c, 0, 63, 100
1, 21406, Note_off_c, 0, 63, 100
1, 21406, Note_on_c, 0, 65, 100
1, 21502, Note_off_c, 0, 65, 100
1, 21502, Note_on_c, 0, 69, 100
1, 21598, Note_off_c, 0, 69, 100
1, 22030, Note_on_c, 0, 68, 100
1, 22174, Note_off_c, 0, 68, 100
1, 22174, Note_on_c, 0, 67, 100
1, 22366, Note_off_c, 0, 67, 100
1, 22366, Note_on_c, 0, 65, 100
1, 22462, Note_off_c, 0, 65, 100
1, 22462, Note_on_c, 0, 63, 100
1, 22558, Note_off_c, 0, 63, 100
1, 22558, Note_on_c, 0, 58, 100
1, 22654, Note_off_c, 0, 58, 100
1, 22654, Note_on_c, 0, 61, 100
1, 22846, Note_off_c, 0, 61, 100
1, 22846, Note_on_c, 0, 65, 100
1, 22894, Note_off_c, 0, 65, 100
1, 22894, Note_on_c, 0, 66, 100
1, 22990, Note_off_c, 0, 66, 100
1, 22990, Note_on_c, 0, 67, 100
1, 23086, Note_off_c, 0, 67, 100
1, 23518, Note_on_c, 0, 65, 100
1, 23614, Note_off_c, 0, 65, 100
1, 23614, Note_on_c, 0, 63, 100
1, 23710, Note_off_c, 0, 63, 100
1, 23710, Note_on_c, 0, 58, 100
1, 23806, Note_off_c, 0, 58, 100
1, 23806, Note_on_c, 0, 61, 100
1, 23902, Note_off_c, 0, 61, 100
1, 24958, Note_on_c, 0, 52, 100
1, 25054, Note_off_c, 0, 52, 100
1, 25054, Note_on_c, 0, 54, 100
1, 25150, Note_off_c, 0, 54, 100
1, 25150, Note_on_c, 0, 58, 100
1, 25246, Note_off_c, 0, 58, 100
1, 25246, Note_on_c, 0, 60, 100
1, 25342, Note_off_c, 0, 60, 100
1, 25342, Note_on_c, 0, 61, 100
1, 25438, Note_off_c, 0, 61, 100
1, 25438, Note_on_c, 0, 62, 100
1, 25534, Note_off_c, 0, 62, 100
1, 25534, Note_on_c, 0, 62, 100
1, 25582, Note_off_c, 0, 62, 100
1, 25582, Note_on_c, 0, 63, 100
1, 25678, Note_off_c, 0, 63, 100
1, 25678, Note_on_c, 0, 64, 100
1, 25726, Note_off_c, 0, 64, 100
1, 25726, Note_on_c, 0, 65, 100
1, 25822, Note_off_c, 0, 65, 100
1, 25822, Note_on_c, 0, 67, 100
1, 25918, Note_off_c, 0, 67, 100
1, 25918, Note_on_c, 0, 68, 100
1, 26014, Note_off_c, 0, 68, 100
1, 26014, Note_on_c, 0, 67, 100
1, 26158, Note_off_c, 0, 67, 100
1, 26158, Note_on_c, 0, 65, 100
1, 26254, Note_off_c, 0, 65, 100
1, 26254, Note_on_c, 0, 63, 100
1, 26302, Note_off_c, 0, 63, 100
1, 26302, Note_on_c, 0, 60, 100
1, 26398, Note_off_c, 0, 60, 100
1, 26398, Note_on_c, 0, 61, 100
1, 26494, Note_off_c, 0, 61, 100
1, 26494, Note_on_c, 0, 62, 100
1, 26590, Note_off_c, 0, 62, 100
1, 26590, Note_on_c, 0, 67, 100
1, 26750, Note_off_c, 0, 67, 100
1, 26750, Note_on_c, 0, 64, 100
1, 26814, Note_off_c, 0, 64, 100
1, 26814, Note_on_c, 0, 62, 100
1, 26878, Note_off_c, 0, 62, 100
1, 26878, Note_on_c, 0, 60, 100
1, 26926, Note_off_c, 0, 60, 100
1, 26926, Note_on_c, 0, 70, 100
1, 27070, Note_off_c, 0, 70, 100
1, 27070, Note_on_c, 0, 68, 100
1, 27198, Note_off_c, 0, 68, 100
1, 27198, Note_on_c, 0, 69, 100
1, 27358, Note_off_c, 0, 69, 100
1, 27358, Note_on_c, 0, 68, 100
1, 27454, Note_off_c, 0, 68, 100
1, 27838, Note_on_c, 0, 66, 100
1, 27902, Note_off_c, 0, 66, 100
1, 27902, Note_on_c, 0, 67, 100
1, 27966, Note_off_c, 0, 67, 100
1, 27966, Note_on_c, 0, 68, 100
1, 28030, Note_off_c, 0, 68, 100
1, 28030, Note_on_c, 0, 69, 100
1, 28126, Note_off_c, 0, 69, 100
1, 28126, Note_on_c, 0, 70, 100
1, 28222, Note_off_c, 0, 70, 100
1, 28222, Note_on_c, 0, 72, 100
1, 28286, Note_off_c, 0, 72, 100
1, 28286, Note_on_c, 0, 73, 100
1, 28350, Note_off_c, 0, 73, 100
1, 28350, Note_on_c, 0, 75, 100
1, 28414, Note_off_c, 0, 75, 100
1, 28414, Note_on_c, 0, 76, 100
1, 28510, Note_off_c, 0, 76, 100
1, 28510, Note_on_c, 0, 67, 100
1, 28654, Note_off_c, 0, 67, 100
1, 28654, Note_on_c, 0, 62, 100
1, 28702, Note_off_c, 0, 62, 100
1, 28702, Note_on_c, 0, 60, 100
1, 28750, Note_off_c, 0, 60, 100
1, 28750, Note_on_c, 0, 63, 100
1, 28798, Note_off_c, 0, 63, 100
1, 28798, Note_on_c, 0, 66, 100
1, 28894, Note_off_c, 0, 66, 100
1, 29182, Note_on_c, 0, 53, 100
1, 29278, Note_off_c, 0, 53, 100
1, 29854, Note_on_c, 0, 67, 100
1, 30046, Note_off_c, 0, 67, 100
1, 30046, Note_on_c, 0, 71, 100
1, 30190, Note_off_c, 0, 71, 100
1, 30190, Note_on_c, 0, 67, 100
1, 30286, Note_off_c, 0, 67, 100
1, 30286, Note_on_c, 0, 66, 100
1, 30478, Note_off_c, 0, 66, 100
1, 30478, Note_on_c, 0, 69, 100
1, 30574, Note_off_c, 0, 69, 100
1, 30574, Note_on_c, 0, 65, 100
1, 30670, Note_off_c, 0, 65, 100
1, 30670, Note_on_c, 0, 64, 100
1, 30814, Note_off_c, 0, 64, 100
1, 30814, Note_on_c, 0, 65, 100
1, 30910, Note_off_c, 0, 65, 100
1, 30910, Note_on_c, 0, 63, 100
1, 31006, Note_off_c, 0, 63, 100
1, 31006, Note_on_c, 0, 60, 100
1, 31102, Note_off_c, 0, 60, 100
1, 31102, Note_on_c, 0, 61, 100
1, 31198, Note_off_c, 0, 61, 100
1, 31198, Note_on_c, 0, 65, 100
1, 31294, Note_off_c, 0, 65, 100
1, 31294, Note_on_c, 0, 61, 100
1, 31390, Note_off_c, 0, 61, 100
1, 31390, Note_on_c, 0, 58, 100
1, 31486, Note_off_c, 0, 58, 100
1, 31486, Note_on_c, 0, 63, 100
1, 31582, Note_off_c, 0, 63, 100
1, 31582, Note_on_c, 0, 67, 100
1, 31630, Note_off_c, 0, 67, 100
1, 31630, Note_on_c, 0, 63, 100
1, 31774, Note_off_c, 0, 63, 100
1, 31774, Note_on_c, 0, 58, 100
1, 31870, Note_off_c, 0, 58, 100
1, 31870, Note_on_c, 0, 64, 100
1, 31966, Note_off_c, 0, 64, 100
1, 31966, Note_on_c, 0, 65, 100
1, 32062, Note_off_c, 0, 65, 100
1, 32062, Note_on_c, 0, 61, 100
1, 32158, Note_off_c, 0, 61, 100
1, 32590, Note_on_c, 0, 63, 100
1, 32734, Note_off_c, 0, 63, 100
1, 32734, Note_on_c, 0, 65, 100
1, 32830, Note_off_c, 0, 65, 100
1, 32830, Note_on_c, 0, 61, 100
1, 32926, Note_off_c, 0, 61, 100
1, 32926, Note_on_c, 0, 65, 100
1, 32974, Note_off_c, 0, 65, 100
1, 32974, Note_on_c, 0, 70, 100
1, 33022, Note_off_c, 0, 70, 100
1, 33022, Note_on_c, 0, 69, 100
1, 33118, Note_off_c, 0, 69, 100
1, 33118, Note_on_c, 0, 71, 100
1, 33310, Note_off_c, 0, 71, 100
1, 33310, Note_on_c, 0, 70, 100
1, 33502, Note_off_c, 0, 70, 100
1, 33502, Note_on_c, 0, 65, 100
1, 33646, Note_off_c, 0, 65, 100
1, 33646, Note_on_c, 0, 63, 100
1, 33742, Note_off_c, 0, 63, 100
1, 33742, Note_on_c, 0, 58, 100
1, 33790, Note_off_c, 0, 58, 100
1, 33790, Note_on_c, 0, 61, 100
1, 33886, Note_off_c, 0, 61, 100
1, 34462, Note_on_c, 0, 66, 100
1, 34558, Note_off_c, 0, 66, 100
1, 34558, Note_on_c, 0, 67, 100
1, 34846, Note_off_c, 0, 67, 100
1, 34846, Note_on_c, 0, 68, 100
1, 35230, Note_off_c, 0, 68, 100
1, 35230, Note_on_c, 0, 65, 100
1, 35326, Note_off_c, 0, 65, 100
1, 36190, Note_on_c, 0, 67, 100
1, 36286, Note_off_c, 0, 67, 100
1, 36286, Note_on_c, 0, 68, 100
1, 36430, Note_off_c, 0, 68, 100
1, 36430, Note_on_c, 0, 64, 100
1, 36670, Note_off_c, 0, 64, 100
1, 36670, Note_on_c, 0, 63, 100
1, 36862, Note_off_c, 0, 63, 100
1, 36862, Note_on_c, 0, 61, 100
1, 37054, Note_off_c, 0, 61, 100
1, 37054, Note_on_c, 0, 61, 100
1, 37150, Note_off_c, 0, 61, 100
1, 37150, Note_on_c, 0, 63, 100
1, 37246, Note_off_c, 0, 63, 100
1, 37438, Note_on_c, 0, 58, 100
1, 37534, Note_off_c, 0, 58, 100
1, 37534, Note_on_c, 0, 61, 100
1, 37630, Note_off_c, 0, 61, 100
1, 37630, Note_on_c, 0, 62, 100
1, 37726, Note_off_c, 0, 62, 100
1, 37726, Note_on_c, 0, 63, 100
1, 37822, Note_off_c, 0, 63, 100
1, 37822, Note_on_c, 0, 64, 100
1, 37918, Note_off_c, 0, 64, 100
1, 37918, Note_on_c, 0, 65, 100
1, 38014, Note_off_c, 0, 65, 100
1, 38014, Note_on_c, 0, 67, 100
1, 38110, Note_off_c, 0, 67, 100
1, 38110, Note_on_c, 0, 71, 100
1, 38206, Note_off_c, 0, 71, 100
1, 38206, Note_on_c, 0, 68, 100
1, 38350, Note_off_c, 0, 68, 100
1, 38350, Note_on_c, 0, 69, 100
1, 38446, Note_off_c, 0, 69, 100
1, 39550, Note_on_c, 0, 68, 100
1, 39678, Note_off_c, 0, 68, 100
1, 39678, Note_on_c, 0, 70, 100
1, 39742, Note_off_c, 0, 70, 100
1, 39742, Note_on_c, 0, 71, 100
1, 39870, Note_off_c, 0, 71, 100
1, 39870, Note_on_c, 0, 73, 100
1, 39934, Note_off_c, 0, 73, 100
1, 39934, Note_on_c, 0, 73, 100
1, 39998, Note_off_c, 0, 73, 100
1, 39998, Note_on_c, 0, 75, 100
1, 40062, Note_off_c, 0, 75, 100
1, 40062, Note_on_c, 0, 76, 100
1, 40174, Note_off_c, 0, 76, 100
1, 40174, Note_on_c, 0, 75, 100
1, 40270, Note_off_c, 0, 75, 100
1, 40270, Note_on_c, 0, 72, 100
1, 40366, Note_off_c, 0, 72, 100
1, 40366, Note_on_c, 0, 73, 100
1, 40462, Note_off_c, 0, 73, 100
1, 40462, Note_on_c, 0, 70, 100
1, 40510, Note_off_c, 0, 70, 100
1, 40510, Note_on_c, 0, 68, 100
1, 40638, Note_off_c, 0, 68, 100
1, 40638, Note_on_c, 0, 63, 100
1, 40702, Note_off_c, 0, 63, 100
1, 40702, Note_on_c, 0, 71, 100
1, 40798, Note_off_c, 0, 71, 100
1, 40798, Note_on_c, 0, 72, 100
1, 40846, Note_off_c, 0, 72, 100
1, 40846, Note_on_c, 0, 71, 100
1, 40894, Note_off_c, 0, 71, 100
1, 40894, Note_on_c, 0, 68, 100
1, 40990, Note_off_c, 0, 68, 100
1, 40990, Note_on_c, 0, 66, 100
1, 41086, Note_off_c, 0, 66, 100
1, 41086, Note_on_c, 0, 68, 100
1, 41214, Note_off_c, 0, 68, 100
1, 41214, Note_on_c, 0, 70, 100
1, 41406, Note_off_c, 0, 70, 100
1, 42526, Note_on_c, 0, 79, 100
1, 43198, Note_off_c, 0, 79, 100
1, 43198, Note_on_c, 0, 76, 100
1, 43294, Note_off_c, 0, 76, 100
1, 43294, Note_on_c, 0, 74, 100
1, 43390, Note_off_c, 0, 74, 100
1, 43390, Note_on_c, 0, 74, 100
1, 43486, Note_off_c, 0, 74, 100
1, 43486, Note_on_c, 0, 73, 100
1, 43582, Note_off_c, 0, 73, 100
1, 43582, Note_on_c, 0, 72, 100
1, 43678, Note_off_c, 0, 72, 100
1, 43678, Note_on_c, 0, 71, 100
1, 43822, Note_off_c, 0, 71, 100
1, 43822, Note_on_c, 0, 70, 100
1, 43870, Note_off_c, 0, 70, 100
1, 43870, Note_on_c, 0, 65, 100
1, 44062, Note_off_c, 0, 65, 100
1, 44062, Note_on_c, 0, 60, 100
1, 44158, Note_off_c, 0, 60, 100
1, 44158, Note_on_c, 0, 69, 100
1, 44350, Note_off_c, 0, 69, 100
1, 44350, Note_on_c, 0, 68, 100
1, 44478, Note_off_c, 0, 68, 100
1, 44478, Note_on_c, 0, 66, 100
1, 44542, Note_off_c, 0, 66, 100
1, 44542, Note_on_c, 0, 67, 100
1, 44638, Note_off_c, 0, 67, 100
1, 44638, Note_on_c, 0, 63, 100
1, 44734, Note_off_c, 0, 63, 100
1, 44734, Note_on_c, 0, 60, 100
1, 44830, Note_off_c, 0, 60, 100
1, 44830, Note_on_c, 0, 59, 100
1, 44926, Note_off_c, 0, 59, 100
1, 44926, Note_on_c, 0, 58, 100
1, 45022, Note_off_c, 0, 58, 100
1, 45454, Note_on_c, 0, 74, 100
1, 46558, Note_off_c, 0, 74, 100
1, 46558, Note_on_c, 0, 75, 100
1, 46750, Note_off_c, 0, 75, 100
1, 47470, Note_on_c, 0, 71, 100
1, 47566, Note_off_c, 0, 71, 100
1, 47566, Note_on_c, 0, 70, 100
1, 47678, Note_off_c, 0, 70, 100
1, 47678, Note_on_c, 0, 69, 100
1, 47774, Note_off_c, 0, 69, 100
1, 48574, Note_on_c, 0, 59, 100
1, 49006, Note_off_c, 0, 59, 100
1, 49006, Note_on_c, 0, 71, 100
1, 49102, Note_off_c, 0, 71, 100
1, 49102, Note_on_c, 0, 69, 100
1, 49198, Note_off_c, 0, 69, 100
1, 50206, Note_on_c, 0, 62, 100
1, 50254, Note_off_c, 0, 62, 100
1, 50254, Note_on_c, 0, 74, 100
1, 50350, Note_off_c, 0, 74, 100
1, 50350, Note_on_c, 0, 72, 100
1, 50398, Note_off_c, 0, 72, 100
1, 50398, Note_on_c, 0, 64, 100
1, 50446, Note_off_c, 0, 64, 100
1, 50446, Note_on_c, 0, 68, 100
1, 50590, Note_off_c, 0, 68, 100
1, 50590, Note_on_c, 0, 64, 100
1, 50638, Note_off_c, 0, 64, 100
1, 50638, Note_on_c, 0, 70, 100
1, 50782, Note_off_c, 0, 70, 100
1, 50782, Note_on_c, 0, 64, 100
1, 50878, Note_off_c, 0, 64, 100
1, 50878, Note_on_c, 0, 71, 100
1, 50974, Note_off_c, 0, 71, 100
1, 50974, Note_on_c, 0, 64, 100
1, 51070, Note_off_c, 0, 64, 100
1, 51070, Note_on_c, 0, 69, 100
1, 51166, Note_off_c, 0, 69, 100
1, 51166, Note_on_c, 0, 68, 100
1, 51358, Note_off_c, 0, 68, 100
1, 51358, Note_on_c, 0, 76, 100
1, 51550, Note_off_c, 0, 76, 100
1, 51550, Note_on_c, 0, 67, 100
1, 51646, Note_off_c, 0, 67, 100
1, 51646, Note_on_c, 0, 63, 100
1, 51742, Note_off_c, 0, 63, 100
1, 51742, Note_on_c, 0, 60, 100
1, 51790, Note_off_c, 0, 60, 100
1, 51790, Note_on_c, 0, 67, 100
1, 51934, Note_off_c, 0, 67, 100
1, 51934, Note_on_c, 0, 63, 100
1, 52030, Note_off_c, 0, 63, 100
1, 52030, Note_on_c, 0, 66, 100
1, 52126, Note_off_c, 0, 66, 100
1, 52126, Note_on_c, 0, 63, 100
1, 52174, Note_off_c, 0, 63, 100
1, 52174, Note_on_c, 0, 65, 100
1, 52318, Note_off_c, 0, 65, 100
1, 52318, Note_on_c, 0, 63, 100
1, 52414, Note_off_c, 0, 63, 100
1, 52414, Note_on_c, 0, 63, 100
1, 52702, Note_off_c, 0, 63, 100
1, 52702, Note_on_c, 0, 74, 100
1, 52894, Note_off_c, 0, 74, 100
1, 52894, Note_on_c, 0, 62, 100
1, 53054, Note_off_c, 0, 62, 100
1, 53054, Note_on_c, 0, 62, 100
1, 53278, Note_off_c, 0, 62, 100
1, 53278, Note_on_c, 0, 65, 100
1, 53374, Note_off_c, 0, 65, 100
1, 53374, Note_on_c, 0, 76, 100
1, 53470, Note_off_c, 0, 76, 100
1, 54046, Note_on_c, 0, 67, 100
1, 54238, Note_off_c, 0, 67, 100
1, 54238, Note_on_c, 0, 76, 100
1, 54430, Note_off_c, 0, 76, 100
1, 54430, Note_on_c, 0, 67, 100
1, 54526, Note_off_c, 0, 67, 100
1, 54526, Note_on_c, 0, 74, 100
1, 54718, Note_off_c, 0, 74, 100
1, 54718, Note_on_c, 0, 66, 100
1, 54814, Note_off_c, 0, 66, 100
1, 54814, Note_on_c, 0, 63, 100
1, 54862, Note_off_c, 0, 63, 100
1, 54862, Note_on_c, 0, 65, 100
1, 55006, Note_off_c, 0, 65, 100
1, 55006, Note_on_c, 0, 62, 100
1, 55102, Note_off_c, 0, 62, 100
1, 55102, Note_on_c, 0, 72, 100
1, 55198, Note_off_c, 0, 72, 100
1, 55198, Note_on_c, 0, 69, 100
1, 55294, Note_off_c, 0, 69, 100
1, 55294, Note_on_c, 0, 70, 100
1, 55390, Note_off_c, 0, 70, 100
1, 55630, Note_on_c, 0, 62, 100
1, 55774, Note_off_c, 0, 62, 100
1, 55774, Note_on_c, 0, 65, 100
1, 55870, Note_off_c, 0, 65, 100
1, 55870, Note_on_c, 0, 62, 100
1, 55966, Note_off_c, 0, 62, 100
1, 55966, Note_on_c, 0, 58, 100
1, 56062, Note_off_c, 0, 58, 100
1, 56062, Note_on_c, 0, 63, 100
1, 56350, Note_off_c, 0, 63, 100
1, 56350, Note_on_c, 0, 67, 100
1, 56542, Note_off_c, 0, 67, 100
1, 56542, Note_on_c, 0, 72, 100
1, 56686, Note_off_c, 0, 72, 100
1, 56686, Note_on_c, 0, 68, 100
1, 56734, Note_off_c, 0, 68, 100
1, 56734, Note_on_c, 0, 66, 100
1, 56782, Note_off_c, 0, 66, 100
1, 56782, Note_on_c, 0, 63, 100
1, 56830, Note_off_c, 0, 63, 100
1, 56830, Note_on_c, 0, 70, 100
1, 57022, Note_off_c, 0, 70, 100
1, 57022, Note_on_c, 0, 65, 100
1, 57118, Note_off_c, 0, 65, 100
1, 57118, Note_on_c, 0, 62, 100
1, 57310, Note_off_c, 0, 62, 100
1, 57310, Note_on_c, 0, 65, 100
1, 57406, Note_off_c, 0, 65, 100
1, 57406, Note_on_c, 0, 62, 100
1, 57502, Note_off_c, 0, 62, 100
1, 57502, Note_on_c, 0, 58, 100
1, 57550, Note_off_c, 0, 58, 100
1, 57550, Note_on_c, 0, 63, 100
1, 57646, Note_off_c, 0, 63, 100
1, 57854, Note_on_c, 0, 63, 100
1, 58046, Note_off_c, 0, 63, 100
1, 58046, Note_on_c, 0, 72, 100
1, 58174, Note_off_c, 0, 72, 100
1, 58174, Note_on_c, 0, 69, 100
1, 58238, Note_off_c, 0, 69, 100
1, 58238, Note_on_c, 0, 67, 100
1, 58302, Note_off_c, 0, 67, 100
1, 58302, Note_on_c, 0, 70, 100
1, 58398, Note_off_c, 0, 70, 100
1, 58622, Note_on_c, 0, 62, 100
1, 58798, Note_off_c, 0, 62, 100
1, 58798, Note_on_c, 0, 65, 100
1, 58894, Note_off_c, 0, 65, 100
1, 58894, Note_on_c, 0, 62, 100
1, 58990, Note_off_c, 0, 62, 100
1, 58990, Note_on_c, 0, 58, 100
1, 59086, Note_off_c, 0, 58, 100
1, 59086, Note_on_c, 0, 63, 100
1, 59182, Note_off_c, 0, 63, 100
1, 59422, Note_on_c, 0, 67, 100
1, 59614, Note_off_c, 0, 67, 100
1, 59614, Note_on_c, 0, 71, 100
1, 59758, Note_off_c, 0, 71, 100
1, 59758, Note_on_c, 0, 69, 100
1, 59806, Note_off_c, 0, 69, 100
1, 59806, Note_on_c, 0, 67, 100
1, 59902, Note_off_c, 0, 67, 100
1, 59902, Note_on_c, 0, 70, 100
1, 59998, Note_off_c, 0, 70, 100
1, 60286, Note_on_c, 0, 61, 100
1, 60574, Note_off_c, 0, 61, 100
1, 60574, Note_on_c, 0, 68, 100
1, 61246, Note_off_c, 0, 68, 100
1, 61582, Note_on_c, 0, 67, 100
1, 61726, Note_off_c, 0, 67, 100
1, 61726, Note_on_c, 0, 68, 100
1, 61822, Note_off_c, 0, 68, 100
1, 61822, Note_on_c, 0, 67, 100
1, 61918, Note_off_c, 0, 67, 100
1, 61918, Note_on_c, 0, 65, 100
1, 62014, Note_off_c, 0, 65, 100
1, 62014, Note_on_c, 0, 63, 100
1, 62110, Note_off_c, 0, 63, 100
1, 62110, Note_on_c, 0, 58, 100
1, 62206, Note_off_c, 0, 58, 100
1, 62206, Note_on_c, 0, 66, 100
1, 62350, Note_off_c, 0, 66, 100
1, 62350, Note_on_c, 0, 71, 100
1, 62542, Note_off_c, 0, 71, 100
1, 63694, Note_on_c, 0, 66, 100
1, 63838, Note_off_c, 0, 66, 100
1, 63838, Note_on_c, 0, 70, 100
1, 63934, Note_off_c, 0, 70, 100
1, 63934, Note_on_c, 0, 73, 100
1, 64030, Note_off_c, 0, 73, 100
1, 64030, Note_on_c, 0, 66, 100
1, 64126, Note_off_c, 0, 66, 100
1, 64126, Note_on_c, 0, 70, 100
1, 64318, Note_off_c, 0, 70, 100
1, 64318, Note_on_c, 0, 65, 100
1, 64414, Note_off_c, 0, 65, 100
1, 64414, Note_on_c, 0, 63, 100
1, 64510, Note_off_c, 0, 63, 100
1, 64510, Note_on_c, 0, 69, 100
1, 64702, Note_off_c, 0, 69, 100
1, 64702, Note_on_c, 0, 65, 100
1, 64798, Note_off_c, 0, 65, 100
1, 64798, Note_on_c, 0, 68, 100
1, 65038, Note_off_c, 0, 68, 100
1, 65038, Note_on_c, 0, 67, 100
1, 65342, Note_off_c, 0, 67, 100
1, 65342, Note_on_c, 0, 71, 100
1, 65406, Note_off_c, 0, 71, 100
1, 65406, Note_on_c, 0, 67, 100
1, 65470, Note_off_c, 0, 67, 100
1, 65470, Note_on_c, 0, 63, 100
1, 65566, Note_off_c, 0, 63, 100
1, 65566, Note_on_c, 0, 70, 100
1, 65806, Note_off_c, 0, 70, 100
1, 65806, Note_on_c, 0, 65, 100
1, 65902, Note_off_c, 0, 65, 100
1, 65902, Note_on_c, 0, 62, 100
1, 65998, Note_off_c, 0, 62, 100
1, 65998, Note_on_c, 0, 69, 100
1, 66094, Note_off_c, 0, 69, 100
1, 66910, Note_on_c, 0, 71, 100
1, 67006, Note_off_c, 0, 71, 100
1, 67006, Note_on_c, 0, 74, 100
1, 67198, Note_off_c, 0, 74, 100
1, 67198, Note_on_c, 0, 70, 100
1, 67390, Note_off_c, 0, 70, 100
1, 67582, Note_on_c, 0, 65, 100
1, 67774, Note_off_c, 0, 65, 100
1, 67774, Note_on_c, 0, 67, 100
1, 67870, Note_off_c, 0, 67, 100
1, 67870, Note_on_c, 0, 65, 100
1, 68062, Note_off_c, 0, 65, 100
1, 68062, Note_on_c, 0, 65, 100
1, 68110, Note_off_c, 0, 65, 100
1, 68110, Note_on_c, 0, 62, 100
1, 68206, Note_off_c, 0, 62, 100
1, 68494, Note_on_c, 0, 63, 100
1, 68734, Note_off_c, 0, 63, 100
1, 68734, Note_on_c, 0, 60, 100
1, 68830, Note_off_c, 0, 60, 100
1, 69118, Note_on_c, 0, 62, 100
1, 69310, Note_off_c, 0, 62, 100
1, 69310, Note_on_c, 0, 58, 100
1, 69406, Note_off_c, 0, 58, 100
1, 69406, Note_on_c, 0, 60, 100
1, 69598, Note_off_c, 0, 60, 100
1, 69598, Note_on_c, 0, 57, 100
1, 69646, Note_off_c, 0, 57, 100
1, 69646, Note_on_c, 0, 58, 100
1, 69742, Note_off_c, 0, 58, 100
1, 70558, Note_on_c, 0, 65, 100
1, 72142, Note_off_c, 0, 65, 100
1, 72142, Note_on_c, 0, 62, 100
1, 72334, Note_off_c, 0, 62, 100
1, 72862, Note_on_c, 0, 65, 100
1, 73102, Note_off_c, 0, 65, 100
1, 73102, Note_on_c, 0, 67, 100
1, 73246, Note_off_c, 0, 67, 100
1, 73246, Note_on_c, 0, 65, 100
1, 73342, Note_off_c, 0, 65, 100
1, 73342, Note_on_c, 0, 62, 100
1, 73630, Note_off_c, 0, 62, 100
1, 73630, Note_on_c, 0, 58, 100
1, 73918, Note_off_c, 0, 58, 100
1, 73918, Note_on_c, 0, 60, 100
1, 74046, Note_off_c, 0, 60, 100
1, 74046, Note_on_c, 0, 58, 100
1, 74110, Note_off_c, 0, 58, 100
1, 74110, Note_on_c, 0, 62, 100
1, 74206, Note_off_c, 0, 62, 100
1, 74206, Note_on_c, 0, 65, 100
1, 74302, Note_off_c, 0, 65, 100
1, 74302, Note_on_c, 0, 67, 100
1, 74398, Note_off_c, 0, 67, 100
1, 74398, Note_on_c, 0, 62, 100
1, 74494, Note_off_c, 0, 62, 100
1, 74494, Note_on_c, 0, 65, 100
1, 74686, Note_off_c, 0, 65, 100
1, 74686, Note_on_c, 0, 67, 100
1, 74830, Note_off_c, 0, 67, 100
1, 74830, Note_on_c, 0, 60, 100
1, 74878, Note_off_c, 0, 60, 100
1, 74878, Note_on_c, 0, 60, 100
1, 74974, Note_off_c, 0, 60, 100
1, 75166, Note_on_c, 0, 62, 100
1, 75214, Note_off_c, 0, 62, 100
1, 75214, Note_on_c, 0, 68, 100
1, 75358, Note_off_c, 0, 68, 100
1, 75358, Note_on_c, 0, 62, 100
1, 75550, Note_off_c, 0, 62, 100
1, 75550, Note_on_c, 0, 58, 100
1, 75646, Note_off_c, 0, 58, 100
1, 75646, Note_on_c, 0, 63, 100
1, 75838, Note_off_c, 0, 63, 100
1, 75838, Note_on_c, 0, 67, 100
1, 75934, Note_off_c, 0, 67, 100
1, 76366, Note_on_c, 0, 70, 100
1, 76606, Note_off_c, 0, 70, 100
1, 76606, Note_on_c, 0, 60, 100
1, 76734, Note_off_c, 0, 60, 100
1, 76734, Note_on_c, 0, 62, 100
1, 76798, Note_off_c, 0, 62, 100
1, 76798, Note_on_c, 0, 63, 100
1, 76894, Note_off_c, 0, 63, 100
1, 77470, Note_on_c, 0, 69, 100
1, 77758, Note_off_c, 0, 69, 100
1, 77758, Note_on_c, 0, 58, 100
1, 77854, Note_off_c, 0, 58, 100
1, 77854, Note_on_c, 0, 59, 100
1, 77950, Note_off_c, 0, 59, 100
1, 77950, Note_on_c, 0, 60, 100
1, 78046, Note_off_c, 0, 60, 100
1, 78430, Note_on_c, 0, 65, 100
1, 78526, Note_off_c, 0, 65, 100
1, 78526, Note_on_c, 0, 62, 100
1, 78622, Note_off_c, 0, 62, 100
1, 78622, Note_on_c, 0, 63, 100
1, 78814, Note_off_c, 0, 63, 100
1, 79102, Note_on_c, 0, 62, 100
1, 79150, Note_off_c, 0, 62, 100
1, 79150, Note_on_c, 0, 65, 100
1, 79246, Note_off_c, 0, 65, 100
1, 79246, Note_on_c, 0, 62, 100
1, 79390, Note_off_c, 0, 62, 100
1, 79390, Note_on_c, 0, 58, 100
1, 79438, Note_off_c, 0, 58, 100
1, 79438, Note_on_c, 0, 63, 100
1, 79582, Note_off_c, 0, 63, 100
1, 79582, Note_on_c, 0, 65, 100
1, 79630, Note_off_c, 0, 65, 100
1, 79630, Note_on_c, 0, 63, 100
1, 79742, Note_off_c, 0, 63, 100
1, 79742, Note_on_c, 0, 64, 100
1, 79806, Note_off_c, 0, 64, 100
1, 79806, Note_on_c, 0, 64, 100
1, 79966, Note_off_c, 0, 64, 100
1, 79966, Note_on_c, 0, 65, 100
1, 80014, Note_off_c, 0, 65, 100
1, 80014, Note_on_c, 0, 67, 100
1, 80110, Note_off_c, 0, 67, 100
1, 80110, Note_on_c, 0, 69, 100
1, 80206, Note_off_c, 0, 69, 100
1, 80206, Note_on_c, 0, 70, 100
1, 80254, Note_off_c, 0, 70, 100
1, 80254, Note_on_c, 0, 71, 100
1, 80350, Note_off_c, 0, 71, 100
1, 80350, Note_on_c, 0, 72, 100
1, 80446, Note_off_c, 0, 72, 100
1, 81022, Note_on_c, 0, 69, 100
1, 81166, Note_off_c, 0, 69, 100
1, 81166, Note_on_c, 0, 66, 100
1, 81214, Note_off_c, 0, 66, 100
1, 81214, Note_on_c, 0, 67, 100
1, 81310, Note_off_c, 0, 67, 100
1, 81310, Note_on_c, 0, 69, 100
1, 81406, Note_off_c, 0, 69, 100
1, 81406, Note_on_c, 0, 71, 100
1, 81502, Note_off_c, 0, 71, 100
1, 81502, Note_on_c, 0, 72, 100
1, 81598, Note_off_c, 0, 72, 100
1, 81598, Note_on_c, 0, 74, 100
1, 81694, Note_off_c, 0, 74, 100
1, 81694, Note_on_c, 0, 72, 100
1, 81742, Note_off_c, 0, 72, 100
1, 81742, Note_on_c, 0, 75, 100
1, 81838, Note_off_c, 0, 75, 100
1, 82558, Note_on_c, 0, 69, 100
1, 82702, Note_off_c, 0, 69, 100
1, 82702, Note_on_c, 0, 74, 100
1, 82798, Note_off_c, 0, 74, 100
1, 82798, Note_on_c, 0, 70, 100
1, 82846, Note_off_c, 0, 70, 100
1, 82846, Note_on_c, 0, 69, 100
1, 82894, Note_off_c, 0, 69, 100
1, 82894, Note_on_c, 0, 68, 100
1, 82942, Note_off_c, 0, 68, 100
1, 82942, Note_on_c, 0, 67, 100
1, 83038, Note_off_c, 0, 67, 100
1, 83038, Note_on_c, 0, 74, 100
1, 83134, Note_off_c, 0, 74, 100
1, 83134, Note_on_c, 0, 70, 100
1, 83198, Note_off_c, 0, 70, 100
1, 83198, Note_on_c, 0, 67, 100
1, 83262, Note_off_c, 0, 67, 100
1, 83262, Note_on_c, 0, 66, 100
1, 83326, Note_off_c, 0, 66, 100
1, 83326, Note_on_c, 0, 65, 100
1, 83422, Note_off_c, 0, 65, 100
1, 83422, Note_on_c, 0, 67, 100
1, 83470, Note_off_c, 0, 67, 100
1, 83470, Note_on_c, 0, 70, 100
1, 83518, Note_off_c, 0, 70, 100
1, 83518, Note_on_c, 0, 68, 100
1, 83566, Note_off_c, 0, 68, 100
1, 83566, Note_on_c, 0, 70, 100
1, 83614, Note_off_c, 0, 70, 100
1, 83614, Note_on_c, 0, 63, 100
1, 83710, Note_off_c, 0, 63, 100
1, 84382, Note_on_c, 0, 75, 100
1, 85390, Note_off_c, 0, 75, 100
1, 85390, Note_on_c, 0, 77, 100
1, 85486, Note_off_c, 0, 77, 100
1, 85486, Note_on_c, 0, 74, 100
1, 85582, Note_off_c, 0, 74, 100
1, 85582, Note_on_c, 0, 72, 100
1, 85694, Note_off_c, 0, 72, 100
1, 85694, Note_on_c, 0, 69, 100
1, 85758, Note_off_c, 0, 69, 100
1, 85758, Note_on_c, 0, 67, 100
1, 85822, Note_off_c, 0, 67, 100
1, 85822, Note_on_c, 0, 65, 100
1, 85918, Note_off_c, 0, 65, 100
1, 85918, Note_on_c, 0, 62, 100
1, 86014, Note_off_c, 0, 62, 100
1, 86014, Note_on_c, 0, 70, 100
1, 86206, Note_off_c, 0, 70, 100
1, 86206, Note_on_c, 0, 67, 100
1, 86302, Note_off_c, 0, 67, 100
1, 86302, Note_on_c, 0, 62, 100
1, 86350, Note_off_c, 0, 62, 100
1, 86350, Note_on_c, 0, 64, 100
1, 86398, Note_off_c, 0, 64, 100
1, 86398, Note_on_c, 0, 70, 100
1, 86494, Note_off_c, 0, 70, 100
1, 86494, Note_on_c, 0, 69, 100
1, 86590, Note_off_c, 0, 69, 100
1, 86590, Note_on_c, 0, 67, 100
1, 86718, Note_off_c, 0, 67, 100
1, 86718, Note_on_c, 0, 72, 100
1, 86878, Note_off_c, 0, 72, 100
1, 86878, Note_on_c, 0, 69, 100
1, 86974, Note_off_c, 0, 69, 100
1, 86974, Note_on_c, 0, 67, 100
1, 87070, Note_off_c, 0, 67, 100
1, 87070, Note_on_c, 0, 62, 100
1, 87166, Note_off_c, 0, 62, 100
1, 87166, Note_on_c, 0, 70, 100
1, 87262, Note_off_c, 0, 70, 100
1, 88798, Note_on_c, 0, 79, 100
1, 91534, Note_off_c, 0, 79, 100
1, 91534, Note_on_c, 0, 77, 100
1, 91630, Note_off_c, 0, 77, 100
1, 92110, Note_on_c, 0, 79, 100
1, 92350, Note_off_c, 0, 79, 100
1, 92350, Note_on_c, 0, 75, 100
1, 92606, Note_off_c, 0, 75, 100
1, 92606, Note_on_c, 0, 74, 100
1, 92830, Note_off_c, 0, 74, 100
1, 92830, Note_on_c, 0, 72, 100
1, 93214, Note_off_c, 0, 72, 100
1, 93982, Note_on_c, 0, 67, 100
1, 94222, Note_off_c, 0, 67, 100
1, 94222, Note_on_c, 0, 63, 100
1, 94462, Note_off_c, 0, 63, 100
1, 94462, Note_on_c, 0, 62, 100
1, 94718, Note_off_c, 0, 62, 100
1, 94718, Note_on_c, 0, 60, 100
1, 95038, Note_off_c, 0, 60, 100
1, 95038, Note_on_c, 0, 67, 100
1, 95294, Note_off_c, 0, 67, 100
1, 95294, Note_on_c, 0, 63, 100
1, 95518, Note_off_c, 0, 63, 100
1, 95518, Note_on_c, 0, 62, 100
1, 95710, Note_off_c, 0, 62, 100
1, 95710, Note_on_c, 0, 60, 100
1, 95998, Note_off_c, 0, 60, 100
1, 96526, Note_on_c, 0, 70, 100
1, 96766, Note_off_c, 0, 70, 100
1, 96766, Note_on_c, 0, 65, 100
1, 96862, Note_off_c, 0, 65, 100
1, 96862, Note_on_c, 0, 65, 100
1, 96958, Note_off_c, 0, 65, 100
1, 96958, Note_on_c, 0, 66, 100
1, 97054, Note_off_c, 0, 66, 100
1, 97054, Note_on_c, 0, 65, 100
1, 97246, Note_off_c, 0, 65, 100
1, 97246, Note_on_c, 0, 67, 100
1, 97438, Note_off_c, 0, 67, 100
1, 97438, Note_on_c, 0, 69, 100
1, 97630, Note_off_c, 0, 69, 100
1, 97630, Note_on_c, 0, 72, 100
1, 97822, Note_off_c, 0, 72, 100
1, 97822, Note_on_c, 0, 69, 100
1, 97918, Note_off_c, 0, 69, 100
1, 97918, Note_on_c, 0, 67, 100
1, 98014, Note_off_c, 0, 67, 100
1, 98014, Note_on_c, 0, 63, 100
1, 98062, Note_off_c, 0, 63, 100
1, 98062, Note_on_c, 0, 60, 100
1, 98110, Note_off_c, 0, 60, 100
1, 98110, Note_on_c, 0, 70, 100
1, 98302, Note_off_c, 0, 70, 100
1, 98302, Note_on_c, 0, 65, 100
1, 98398, Note_off_c, 0, 65, 100
1, 98398, Note_on_c, 0, 62, 100
1, 98494, Note_off_c, 0, 62, 100
1, 98494, Note_on_c, 0, 70, 100
1, 98590, Note_off_c, 0, 70, 100
1, 99070, Note_on_c, 0, 65, 100
1, 99166, Note_off_c, 0, 65, 100
1, 99166, Note_on_c, 0, 67, 100
1, 99262, Note_off_c, 0, 67, 100
1, 99262, Note_on_c, 0, 69, 100
1, 99358, Note_off_c, 0, 69, 100
1, 99358, Note_on_c, 0, 70, 100
1, 99454, Note_off_c, 0, 70, 100
1, 99454, Note_on_c, 0, 72, 100
1, 99550, Note_off_c, 0, 72, 100
1, 99550, Note_on_c, 0, 70, 100
1, 99646, Note_off_c, 0, 70, 100
1, 99646, Note_on_c, 0, 69, 100
1, 99742, Note_off_c, 0, 69, 100
1, 99742, Note_on_c, 0, 67, 100
1, 99838, Note_off_c, 0, 67, 100
1, 99838, Note_on_c, 0, 65, 100
1, 99934, Note_off_c, 0, 65, 100
1, 99934, Note_on_c, 0, 63, 100
1, 100030, Note_off_c, 0, 63, 100
1, 100030, Note_on_c, 0, 62, 100
1, 100126, Note_off_c, 0, 62, 100
1, 100414, Note_on_c, 0, 62, 100
1, 100558, Note_off_c, 0, 62, 100
1, 100558, Note_on_c, 0, 58, 100
1, 100702, Note_off_c, 0, 58, 100
1, 100702, Note_on_c, 0, 58, 100
1, 100942, Note_off_c, 0, 58, 100
1, 100942, Note_on_c, 0, 60, 100
1, 100990, Note_off_c, 0, 60, 100
1, 100990, Note_on_c, 0, 62, 100
1, 101054, Note_off_c, 0, 62, 100
1, 101054, Note_on_c, 0, 63, 100
1, 101118, Note_off_c, 0, 63, 100
1, 101118, Note_on_c, 0, 67, 100
1, 101182, Note_off_c, 0, 67, 100
1, 101182, Note_on_c, 0, 69, 100
1, 101230, Note_off_c, 0, 69, 100
1, 101230, Note_on_c, 0, 71, 100
1, 101326, Note_off_c, 0, 71, 100
1, 101326, Note_on_c, 0, 74, 100
1, 101470, Note_off_c, 0, 74, 100
1, 101470, Note_on_c, 0, 70, 100
1, 101662, Note_off_c, 0, 70, 100
1, 101662, Note_on_c, 0, 70, 100
1, 102046, Note_off_c, 0, 70, 100
1, 102718, Note_on_c, 0, 71, 100
1, 102814, Note_off_c, 0, 71, 100
1, 102814, Note_on_c, 0, 73, 100
1, 102910, Note_off_c, 0, 73, 100
1, 102910, Note_on_c, 0, 69, 100
1, 103006, Note_off_c, 0, 69, 100
1, 103006, Note_on_c, 0, 67, 100
1, 103102, Note_off_c, 0, 67, 100
1, 103102, Note_on_c, 0, 65, 100
1, 103198, Note_off_c, 0, 65, 100
1, 103198, Note_on_c, 0, 63, 100
1, 103294, Note_off_c, 0, 63, 100
1, 103294, Note_on_c, 0, 62, 100
1, 103390, Note_off_c, 0, 62, 100
1, 103390, Note_on_c, 0, 60, 100
1, 103486, Note_off_c, 0, 60, 100
1, 103486, Note_on_c, 0, 59, 100
1, 103614, Note_off_c, 0, 59, 100
1, 103614, Note_on_c, 0, 68, 100
1, 103678, Note_off_c, 0, 68, 100
1, 103678, Note_on_c, 0, 63, 100
1, 103774, Note_off_c, 0, 63, 100
1, 103774, Note_on_c, 0, 60, 100
1, 103870, Note_off_c, 0, 60, 100
1, 103870, Note_on_c, 0, 67, 100
1, 103918, Note_off_c, 0, 67, 100
1, 103918, Note_on_c, 0, 62, 100
1, 103966, Note_off_c, 0, 62, 100
1, 103966, Note_on_c, 0, 64, 100
1, 104014, Note_off_c, 0, 64, 100
1, 104014, Note_on_c, 0, 66, 100
1, 104158, Note_off_c, 0, 66, 100
1, 104158, Note_on_c, 0, 67, 100
1, 104206, Note_off_c, 0, 67, 100
1, 104206, Note_on_c, 0, 68, 100
1, 104254, Note_off_c, 0, 68, 100
1, 104254, Note_on_c, 0, 69, 100
1, 104350, Note_off_c, 0, 69, 100
1, 104350, Note_on_c, 0, 71, 100
1, 104398, Note_off_c, 0, 71, 100
1, 104398, Note_on_c, 0, 72, 100
1, 104494, Note_off_c, 0, 72, 100
1, 104494, Note_on_c, 0, 74, 100
1, 104590, Note_off_c, 0, 74, 100
1, 104590, Note_on_c, 0, 75, 100
1, 104686, Note_off_c, 0, 75, 100
1, 104686, Note_on_c, 0, 67, 100
1, 104782, Note_off_c, 0, 67, 100
1, 104782, Note_on_c, 0, 74, 100
1, 104894, Note_off_c, 0, 74, 100
1, 104894, Note_on_c, 0, 75, 100
1, 104958, Note_off_c, 0, 75, 100
1, 104958, Note_on_c, 0, 72, 100
1, 105054, Note_off_c, 0, 72, 100
1, 106030, Note_on_c, 0, 79, 100
1, 106270, Note_off_c, 0, 79, 100
1, 106270, Note_on_c, 0, 77, 100
1, 106366, Note_off_c, 0, 77, 100
1, 106366, Note_on_c, 0, 77, 100
1, 106430, Note_off_c, 0, 77, 100
1, 106430, Note_on_c, 0, 76, 100
1, 106494, Note_off_c, 0, 76, 100
1, 106494, Note_on_c, 0, 76, 100
1, 106558, Note_off_c, 0, 76, 100
1, 106558, Note_on_c, 0, 75, 100
1, 106654, Note_off_c, 0, 75, 100
1, 106654, Note_on_c, 0, 74, 100
1, 106750, Note_off_c, 0, 74, 100
1, 106750, Note_on_c, 0, 73, 100
1, 106814, Note_off_c, 0, 73, 100
1, 106814, Note_on_c, 0, 72, 100
1, 106878, Note_off_c, 0, 72, 100
1, 106878, Note_on_c, 0, 71, 100
1, 106942, Note_off_c, 0, 71, 100
1, 106942, Note_on_c, 0, 70, 100
1, 107086, Note_off_c, 0, 70, 100
1, 107086, Note_on_c, 0, 69, 100
1, 107198, Note_off_c, 0, 69, 100
1, 107198, Note_on_c, 0, 67, 100
1, 107262, Note_off_c, 0, 67, 100
1, 107262, Note_on_c, 0, 69, 100
1, 107374, Note_off_c, 0, 69, 100
1, 107374, Note_on_c, 0, 62, 100
1, 107470, Note_off_c, 0, 62, 100
1, 107470, Note_on_c, 0, 64, 100
1, 107518, Note_off_c, 0, 64, 100
1, 107518, Note_on_c, 0, 69, 100
1, 107774, Note_off_c, 0, 69, 100
1, 107774, Note_on_c, 0, 60, 100
1, 107838, Note_off_c, 0, 60, 100
1, 107838, Note_on_c, 0, 67, 100
1, 107934, Note_off_c, 0, 67, 100
1, 108142, Note_on_c, 0, 65, 100
1, 108238, Note_off_c, 0, 65, 100
1, 108238, Note_on_c, 0, 63, 100
1, 108350, Note_off_c, 0, 63, 100
1, 108350, Note_on_c, 0, 60, 100
1, 108414, Note_off_c, 0, 60, 100
1, 108414, Note_on_c, 0, 61, 100
1, 108478, Note_off_c, 0, 61, 100
1, 108478, Note_on_c, 0, 62, 100
1, 108574, Note_off_c, 0, 62, 100
1, 108574, Note_on_c, 0, 58, 100
1, 108622, Note_off_c, 0, 58, 100
1, 108622, Note_on_c, 0, 57, 100
1, 108766, Note_off_c, 0, 57, 100
1, 108766, Note_on_c, 0, 58, 100
1, 108958, Note_off_c, 0, 58, 100
1, 108958, Note_on_c, 0, 53, 100
1, 109342, Note_off_c, 0, 53, 100
1, 110494, Note_on_c, 0, 62, 100
1, 110638, Note_off_c, 0, 62, 100
1, 110638, Note_on_c, 0, 63, 100
1, 110734, Note_off_c, 0, 63, 100
1, 110734, Note_on_c, 0, 65, 100
1, 110782, Note_off_c, 0, 65, 100
1, 110782, Note_on_c, 0, 66, 100
1, 110878, Note_off_c, 0, 66, 100
1, 110878, Note_on_c, 0, 69, 100
1, 111022, Note_off_c, 0, 69, 100
1, 111022, Note_on_c, 0, 70, 100
1, 111118, Note_off_c, 0, 70, 100
1, 111118, Note_on_c, 0, 69, 100
1, 111214, Note_off_c, 0, 69, 100
1, 111214, Note_on_c, 0, 67, 100
1, 111310, Note_off_c, 0, 67, 100
1, 111310, Note_on_c, 0, 65, 100
1, 111422, Note_off_c, 0, 65, 100
1, 111422, Note_on_c, 0, 64, 100
1, 111486, Note_off_c, 0, 64, 100
1, 111486, Note_on_c, 0, 63, 100
1, 111598, Note_off_c, 0, 63, 100
1, 111598, Note_on_c, 0, 63, 100
1, 111646, Note_off_c, 0, 63, 100
1, 111646, Note_on_c, 0, 60, 100
1, 111742, Note_off_c, 0, 60, 100
1, 111742, Note_on_c, 0, 63, 100
1, 111886, Note_off_c, 0, 63, 100
1, 111886, Note_on_c, 0, 66, 100
1, 112030, Note_off_c, 0, 66, 100
1, 112030, Note_on_c, 0, 62, 100
1, 112222, Note_off_c, 0, 62, 100
1, 112222, Note_on_c, 0, 62, 100
1, 112510, Note_off_c, 0, 62, 100
1, 112990, Note_on_c, 0, 60, 100
1, 113150, Note_off_c, 0, 60, 100
1, 113150, Note_on_c, 0, 63, 100
1, 113214, Note_off_c, 0, 63, 100
1, 113214, Note_on_c, 0, 67, 100
1, 113278, Note_off_c, 0, 67, 100
1, 113278, Note_on_c, 0, 68, 100
1, 113326, Note_off_c, 0, 68, 100
1, 113326, Note_on_c, 0, 69, 100
1, 113422, Note_off_c, 0, 69, 100
1, 113422, Note_on_c, 0, 70, 100
1, 113534, Note_off_c, 0, 70, 100
1, 113534, Note_on_c, 0, 67, 100
1, 113662, Note_off_c, 0, 67, 100
1, 113662, Note_on_c, 0, 63, 100
1, 113758, Note_off_c, 0, 63, 100
1, 113758, Note_on_c, 0, 60, 100
1, 113854, Note_off_c, 0, 60, 100
1, 113854, Note_on_c, 0, 69, 100
1, 113950, Note_off_c, 0, 69, 100
1, 113950, Note_on_c, 0, 65, 100
1, 114046, Note_off_c, 0, 65, 100
1, 115246, Note_on_c, 0, 74, 100
1, 115342, Note_off_c, 0, 74, 100
1, 115342, Note_on_c, 0, 71, 100
1, 115486, Note_off_c, 0, 71, 100
1, 115486, Note_on_c, 0, 72, 100
1, 115582, Note_off_c, 0, 72, 100
1, 115582, Note_on_c, 0, 71, 100
1, 115678, Note_off_c, 0, 71, 100
1, 115678, Note_on_c, 0, 72, 100
1, 115774, Note_off_c, 0, 72, 100
1, 115774, Note_on_c, 0, 71, 100
1, 115838, Note_off_c, 0, 71, 100
1, 115838, Note_on_c, 0, 72, 100
1, 115902, Note_off_c, 0, 72, 100
1, 115902, Note_on_c, 0, 73, 100
1, 116014, Note_off_c, 0, 73, 100
1, 116014, Note_on_c, 0, 74, 100
1, 116110, Note_off_c, 0, 74, 100
1, 116110, Note_on_c, 0, 75, 100
1, 116222, Note_off_c, 0, 75, 100
1, 116222, Note_on_c, 0, 69, 100
1, 116318, Note_off_c, 0, 69, 100
1, 117790, Note_on_c, 0, 67, 100
1, 117886, Note_off_c, 0, 67, 100
1, 117886, Note_on_c, 0, 70, 100
1, 118030, Note_off_c, 0, 70, 100
1, 118030, Note_on_c, 0, 74, 100
1, 119422, Note_off_c, 0, 74, 100
1, 119422, Note_on_c, 0, 72, 100
1, 119518, Note_off_c, 0, 72, 100
1, 119518, Note_on_c, 0, 70, 100
1, 119614, Note_off_c, 0, 70, 100
1, 119614, Note_on_c, 0, 69, 100
1, 119710, Note_off_c, 0, 69, 100
1, 119710, Note_on_c, 0, 67, 100
1, 119806, Note_off_c, 0, 67, 100
1, 119806, Note_on_c, 0, 65, 100
1, 119934, Note_off_c, 0, 65, 100
1, 119934, Note_on_c, 0, 64, 100
1, 119998, Note_off_c, 0, 64, 100
1, 119998, Note_on_c, 0, 63, 100
1, 120094, Note_off_c, 0, 63, 100
1, 120094, Note_on_c, 0, 67, 100
1, 120190, Note_off_c, 0, 67, 100
1, 120190, Note_on_c, 0, 65, 100
1, 120286, Note_off_c, 0, 65, 100
1, 120286, Note_on_c, 0, 63, 100
1, 120382, Note_off_c, 0, 63, 100
1, 120382, Note_on_c, 0, 62, 100
1, 120478, Note_off_c, 0, 62, 100
1, 120478, Note_on_c, 0, 58, 100
1, 120574, Note_off_c, 0, 58, 100
1, 122014, Note_on_c, 0, 67, 100
1, 122110, Note_off_c, 0, 67, 100
1, 122110, Note_on_c, 0, 63, 100
1, 122254, Note_off_c, 0, 63, 100
1, 122254, Note_on_c, 0, 62, 100
1, 122494, Note_off_c, 0, 62, 100
1, 122494, Note_on_c, 0, 60, 100
1, 122590, Note_off_c, 0, 60, 100
1, 122590, Note_on_c, 0, 67, 100
1, 122686, Note_off_c, 0, 67, 100
1, 122686, Note_on_c, 0, 68, 100
1, 122782, Note_off_c, 0, 68, 100
1, 122782, Note_on_c, 0, 67, 100
1, 122878, Note_off_c, 0, 67, 100
1, 122878, Note_on_c, 0, 68, 100
1, 122974, Note_off_c, 0, 68, 100
1, 122974, Note_on_c, 0, 64, 100
1, 123070, Note_off_c, 0, 64, 100
1, 123070, Note_on_c, 0, 63, 100
1, 123134, Note_off_c, 0, 63, 100
1, 123134, Note_on_c, 0, 62, 100
1, 123198, Note_off_c, 0, 62, 100
1, 123198, Note_on_c, 0, 59, 100
1, 123294, Note_off_c, 0, 59, 100
1, 123550, Note_on_c, 0, 66, 100
1, 123646, Note_off_c, 0, 66, 100
1, 123646, Note_on_c, 0, 62, 100
1, 123774, Note_off_c, 0, 62, 100
1, 123774, Note_on_c, 0, 61, 100
1, 123934, Note_off_c, 0, 61, 100
1, 123934, Note_on_c, 0, 59, 100
1, 124126, Note_off_c, 0, 59, 100
1, 124126, Note_on_c, 0, 63, 100
1, 124222, Note_off_c, 0, 63, 100
1, 124222, Note_on_c, 0, 64, 100
1, 124318, Note_off_c, 0, 64, 100
1, 124318, Note_on_c, 0, 63, 100
1, 124366, Note_off_c, 0, 63, 100
1, 124366, Note_on_c, 0, 64, 100
1, 124510, Note_off_c, 0, 64, 100
1, 124510, Note_on_c, 0, 62, 100
1, 124580, Note_off_c, 0, 62, 100
1, 124580, End_track
0, 0, End_of_file
