0, 0, Header, 1, 1, 192
1, 0, Start_track
1, 0, Title_t, "Melody"
1, 0, Tempo, 300000
1, 0, Time_signature, 1, 2, 24, 8
1, 96, Note_on_c, 0, 74, 100
1, 336, Note_off_c, 0, 74, 100
1, 336, Note_on_c, 0, 71, 100
1, 576, Note_off_c, 0, 71, 100
1, 576, Note_on_c, 0, 69, 100
1, 864, Note_off_c, 0, 69, 100
1, 864, Note_on_c, 0, 66, 100
1, 1152, Note_off_c, 0, 66, 100
1, 1152, Note_on_c, 0, 62, 100
1, 1344, Note_off_c, 0, 62, 100
1, 1344, Note_on_c, 0, 71, 100
1, 1488, Note_off_c, 0, 71, 100
1, 1488, Note_on_c, 0, 69, 100
1, 1680, Note_off_c, 0, 69, 100
1, 1680, Note_on_c, 0, 71, 100
1, 1776, Note_off_c, 0, 71, 100
1, 2112, Note_on_c, 0, 71, 100
1, 2304, Note_off_c, 0, 71, 100
1, 2304, Note_on_c, 0, 69, 100
1, 2496, Note_off_c, 0, 69, 100
1, 2496, Note_on_c, 0, 66, 100
1, 2592, Note_off_c, 0, 66, 100
1, 2880, Note_on_c, 0, 66, 100
1, 2976, Note_off_c, 0, 66, 100
1, 2976, Note_on_c, 0, 66, 100
1, 3072, Note_off_c, 0, 66, 100
1, 3072, Note_on_c, 0, 69, 100
1, 3264, Note_off_c, 0, 69, 100
1, 3264, Note_on_c, 0, 69, 100
1, 3456, Note_off_c, 0, 69, 100
1, 3456, Note_on_c, 0, 71, 100
1, 3552, Note_off_c, 0, 71, 100
1, 3552, Note_on_c, 0, 69, 100
1, 3648, Note_off_c, 0, 69, 100
1, 3648, Note_on_c, 0, 65, 100
1, 3744, Note_off_c, 0, 65, 100
1, 3744, Note_on_c, 0, 62, 100
1, 3936, Note_off_c, 0, 62, 100
1, 3936, Note_on_c, 0, 62, 100
1, 4128, Note_off_c, 0, 62, 100
1, 4128, Note_on_c, 0, 66, 100
1, 4224, Note_off_c, 0, 66, 100
1, 4416, Note_on_c, 0, 62, 100
1, 4512, Note_off_c, 0, 62, 100
1, 4512, Note_on_c, 0, 62, 100
1, 4608, Note_off_c, 0, 62, 100
1, 4608, Note_on_c, 0, 67, 100
1, 4800, Note_off_c, 0, 67, 100
1, 4800, Note_on_c, 0, 67, 100
1, 4992, Note_off_c, 0, 67, 100
1, 4992, Note_on_c, 0, 71, 100
1, 5136, Note_off_c, 0, 71, 100
1, 5136, Note_on_c, 0, 69, 100
1, 5280, Note_off_c, 0, 69, 100
1, 5280, Note_on_c, 0, 69, 100
1, 5376, Note_off_c, 0, 69, 100
1, 6000, Note_on_c, 0, 67, 100
1, 6096, Note_off_c, 0, 67, 100
1, 6096, Note_on_c, 0, 71, 100
1, 6336, Note_off_c, 0, 71, 100
1, 6336, Note_on_c, 0, 74, 100
1, 6480, Note_off_c, 0, 74, 100
1, 6480, Note_on_c, 0, 76, 100
1, 6624, Note_off_c, 0, 76, 100
1, 6624, Note_on_c, 0, 74, 100
1, 6816, Note_off_c, 0, 74, 100
1, 6816, Note_on_c, 0, 74, 100
1, 7104, Note_off_c, 0, 74, 100
1, 7440, Note_on_c, 0, 71, 100
1, 7552, Note_off_c, 0, 71, 100
1, 7552, Note_on_c, 0, 67, 100
1, 7616, Note_off_c, 0, 67, 100
1, 7616, Note_on_c, 0, 69, 100
1, 7872, Note_off_c, 0, 69, 100
1, 7872, Note_on_c, 0, 66, 100
1, 7968, Note_off_c, 0, 66, 100
1, 7968, Note_on_c, 0, 62, 100
1, 8064, Note_off_c, 0, 62, 100
1, 8064, Note_on_c, 0, 67, 100
1, 8128, Note_off_c, 0, 67, 100
1, 8128, Note_on_c, 0, 66, 100
1, 8192, Note_off_c, 0, 66, 100
1, 8192, Note_on_c, 0, 62, 100
1, 8288, Note_off_c, 0, 62, 100
1, 8640, Note_on_c, 0, 77, 100
1, 8704, Note_off_c, 0, 77, 100
1, 8704, Note_on_c, 0, 78, 100
1, 8768, Note_off_c, 0, 78, 100
1, 8768, Note_on_c, 0, 76, 100
1, 8832, Note_off_c, 0, 76, 100
1, 8832, Note_on_c, 0, 74, 100
1, 8928, Note_off_c, 0, 74, 100
1, 8928, Note_on_c, 0, 71, 100
1, 9024, Note_off_c, 0, 71, 100
1, 9024, Note_on_c, 0, 70, 100
1, 9120, Note_off_c, 0, 70, 100
1, 9120, Note_on_c, 0, 67, 100
1, 9216, Note_off_c, 0, 67, 100
1, 9216, Note_on_c, 0, 69, 100
1, 9312, Note_off_c, 0, 69, 100
1, 9312, Note_on_c, 0, 67, 100
1, 9408, Note_off_c, 0, 67, 100
1, 9408, Note_on_c, 0, 66, 100
1, 9504, Note_off_c, 0, 66, 100
1, 9504, Note_on_c, 0, 62, 100
1, 9600, Note_off_c, 0, 62, 100
1, 9600, Note_on_c, 0, 66, 100
1, 9696, Note_off_c, 0, 66, 100
1, 9696, Note_on_c, 0, 62, 100
1, 9792, Note_off_c, 0, 62, 100
1, 9792, Note_on_c, 0, 64, 100
1, 9888, Note_off_c, 0, 64, 100
1, 9888, Note_on_c, 0, 60, 100
1, 9936, Note_off_c, 0, 60, 100
1, 9936, Note_on_c, 0, 62, 100
1, 10080, Note_off_c, 0, 62, 100
1, 10080, Note_on_c, 0, 59, 100
1, 10176, Note_off_c, 0, 59, 100
1, 10176, Note_on_c, 0, 57, 100
1, 10272, Note_off_c, 0, 57, 100
1, 10272, Note_on_c, 0, 56, 100
1, 10464, Note_off_c, 0, 56, 100
1, 10464, Note_on_c, 0, 65, 100
1, 10512, Note_off_c, 0, 65, 100
1, 10512, Note_on_c, 0, 66, 100
1, 10624, Note_off_c, 0, 66, 100
1, 10624, Note_on_c, 0, 62, 100
1, 10752, Note_off_c, 0, 62, 100
1, 10752, Note_on_c, 0, 63, 100
1, 10800, Note_off_c, 0, 63, 100
1, 10800, Note_on_c, 0, 64, 100
1, 10848, Note_off_c, 0, 64, 100
1, 10848, Note_on_c, 0, 63, 100
1, 10896, Note_off_c, 0, 63, 100
1, 10896, Note_on_c, 0, 64, 100
1, 11136, Note_off_c, 0, 64, 100
1, 11136, Note_on_c, 0, 65, 100
1, 11280, Note_off_c, 0, 65, 100
1, 11280, Note_on_c, 0, 64, 100
1, 11328, Note_off_c, 0, 64, 100
1, 11328, Note_on_c, 0, 62, 100
1, 11424, Note_off_c, 0, 62, 100
1, 12384, Note_on_c, 0, 64, 100
1, 12480, Note_off_c, 0, 64, 100
1, 12480, Note_on_c, 0, 63, 100
1, 12816, Note_off_c, 0, 63, 100
1, 12816, Note_on_c, 0, 64, 100
1, 12928, Note_off_c, 0, 64, 100
1, 12928, Note_on_c, 0, 65, 100
1, 13200, Note_off_c, 0, 65, 100
1, 13200, Note_on_c, 0, 65, 100
1, 13248, Note_off_c, 0, 65, 100
1, 13248, Note_on_c, 0, 64, 100
1, 13376, Note_off_c, 0, 64, 100
1, 13376, Note_on_c, 0, 62, 100
1, 13632, Note_off_c, 0, 62, 100
1, 13632, Note_on_c, 0, 59, 100
1, 13760, Note_off_c, 0, 59, 100
1, 13760, Note_on_c, 0, 53, 100
1, 13824, Note_off_c, 0, 53, 100
1, 13824, Note_on_c, 0, 57, 100
1, 13920, Note_off_c, 0, 57, 100
1, 13920, Note_on_c, 0, 64, 100
1, 13968, Note_off_c, 0, 64, 100
1, 13968, Note_on_c, 0, 62, 100
1, 14016, Note_off_c, 0, 62, 100
1, 14016, Note_on_c, 0, 63, 100
1, 14272, Note_off_c, 0, 63, 100
1, 14272, Note_on_c, 0, 64, 100
1, 14656, Note_off_c, 0, 64, 100
1, 14656, Note_on_c, 0, 65, 100
1, 14720, Note_off_c, 0, 65, 100
1, 14720, Note_on_c, 0, 64, 100
1, 14880, Note_off_c, 0, 64, 100
1, 14880, Note_on_c, 0, 62, 100
1, 15120, Note_off_c, 0, 62, 100
1, 15120, Note_on_c, 0, 58, 100
1, 15168, Note_off_c, 0, 58, 100
1, 15168, Note_on_c, 0, 57, 100
1, 15264, Note_off_c, 0, 57, 100
1, 15648, Note_on_c, 0, 66, 100
1, 15744, Note_off_c, 0, 66, 100
1, 15744, Note_on_c, 0, 69, 100
1, 15840, Note_off_c, 0, 69, 100
1, 15840, Note_on_c, 0, 70, 100
1, 15936, Note_off_c, 0, 70, 100
1, 15936, Note_on_c, 0, 72, 100
1, 16032, Note_off_c, 0, 72, 100
1, 16032, Note_on_c, 0, 70, 100
1, 16272, Note_off_c, 0, 70, 100
1, 16272, Note_on_c, 0, 69, 100
1, 16416, Note_off_c, 0, 69, 100
1, 16416, Note_on_c, 0, 67, 100
1, 16512, Note_off_c, 0, 67, 100
1, 16512, Note_on_c, 0, 65, 100
1, 16550, Note_off_c, 0, 65, 100
1, 16550, Note_on_c, 0, 66, 100
1, 16588, Note_off_c, 0, 66, 100
1, 16588, Note_on_c, 0, 62, 100
1, 16664, Note_off_c, 0, 62, 100
1, 16664, Note_on_c, 0, 59, 100
1, 16798, Note_off_c, 0, 59, 100
1, 16798, Note_on_c, 0, 54, 100
1, 16894, Note_off_c, 0, 54, 100
1, 16894, Note_on_c, 0, 62, 100
1, 17038, Note_off_c, 0, 62, 100
1, 17038, Note_on_c, 0, 66, 100
1, 17278, Note_off_c, 0, 66, 100
1, 17278, Note_on_c, 0, 67, 100
1, 17374, Note_off_c, 0, 67, 100
1, 17374, Note_on_c, 0, 69, 100
1, 17566, Note_off_c, 0, 69, 100
1, 17566, Note_on_c, 0, 69, 100
1, 17854, Note_off_c, 0, 69, 100
1, 18334, Note_on_c, 0, 69, 100
1, 18478, Note_off_c, 0, 69, 100
1, 18478, Note_on_c, 0, 71, 100
1, 18526, Note_off_c, 0, 71, 100
1, 18526, Note_on_c, 0, 71, 100
1, 18574, Note_off_c, 0, 71, 100
1, 18574, Note_on_c, 0, 72, 100
1, 18622, Note_off_c, 0, 72, 100
1, 18622, Note_on_c, 0, 72, 100
1, 18670, Note_off_c, 0, 72, 100
1, 18670, Note_on_c, 0, 74, 100
1, 18766, Note_off_c, 0, 74, 100
1, 18766, Note_on_c, 0, 74, 100
1, 18814, Note_off_c, 0, 74, 100
1, 18814, Note_on_c, 0, 76, 100
1, 18910, Note_off_c, 0, 76, 100
1, 18910, Note_on_c, 0, 73, 100
1, 19006, Note_off_c, 0, 73, 100
1, 19006, Note_on_c, 0, 71, 100
1, 19102, Note_off_c, 0, 71, 100
1, 19102, Note_on_c, 0, 70, 100
1, 19198, Note_off_c, 0, 70, 100
1, 19198, Note_on_c, 0, 69, 100
1, 19294, Note_off_c, 0, 69, 100
1, 19294, Note_on_c, 0, 67, 100
1, 19390, Note_off_c, 0, 67, 100
1, 19390, Note_on_c, 0, 66, 100
1, 19582, Note_off_c, 0, 66, 100
1, 19582, Note_on_c, 0, 64, 100
1, 19678, Note_off_c, 0, 64, 100
1, 19678, Note_on_c, 0, 65, 100
1, 19870, Note_off_c, 0, 65, 100
1, 19870, Note_on_c, 0, 70, 100
1, 19966, Note_off_c, 0, 70, 100
1, 19966, Note_on_c, 0, 75, 100
1, 20158, Note_off_c, 0, 75, 100
1, 20158, Note_on_c, 0, 69, 100
1, 20254, Note_off_c, 0, 69, 100
1, 20254, Note_on_c, 0, 70, 100
1, 20350, Note_off_c, 0, 70, 100
1, 20350, Note_on_c, 0, 69, 100
1, 20446, Note_off_c, 0, 69, 100
1, 20446, Note_on_c, 0, 67, 100
1, 20542, Note_off_c, 0, 67, 100
1, 21502, Note_on_c, 0, 69, 100
1, 21646, Note_off_c, 0, 69, 100
1, 21646, Note_on_c, 0, 69, 100
1, 21790, Note_off_c, 0, 69, 100
1, 21790, Note_on_c, 0, 70, 100
1, 21838, Note_off_c, 0, 70, 100
1, 21838, Note_on_c, 0, 69, 100
1, 21886, Note_off_c, 0, 69, 100
1, 21886, Note_on_c, 0, 69, 100
1, 22014, Note_off_c, 0, 69, 100
1, 22014, Note_on_c, 0, 74, 100
1, 22174, Note_off_c, 0, 74, 100
1, 22174, Note_on_c, 0, 71, 100
1, 22366, Note_off_c, 0, 71, 100
1, 22366, Note_on_c, 0, 67, 100
1, 22558, Note_off_c, 0, 67, 100
1, 22558, Note_on_c, 0, 69, 100
1, 22942, Note_off_c, 0, 69, 100
1, 22942, Note_on_c, 0, 62, 100
1, 23038, Note_off_c, 0, 62, 100
1, 23038, Note_on_c, 0, 66, 100
1, 23230, Note_off_c, 0, 66, 100
1, 23230, Note_on_c, 0, 66, 100
1, 23422, Note_off_c, 0, 66, 100
1, 23422, Note_on_c, 0, 67, 100
1, 23550, Note_off_c, 0, 67, 100
1, 23550, Note_on_c, 0, 69, 100
1, 23710, Note_off_c, 0, 69, 100
1, 23710, Note_on_c, 0, 66, 100
1, 23902, Note_off_c, 0, 66, 100
1, 23902, Note_on_c, 0, 62, 100
1, 24094, Note_off_c, 0, 62, 100
1, 24094, Note_on_c, 0, 59, 100
1, 24238, Note_off_c, 0, 59, 100
1, 24238, Note_on_c, 0, 71, 100
1, 24286, Note_off_c, 0, 71, 100
1, 24286, Note_on_c, 0, 72, 100
1, 24334, Note_off_c, 0, 72, 100
1, 24334, Note_on_c, 0, 73, 100
1, 24382, Note_off_c, 0, 73, 100
1, 24382, Note_on_c, 0, 74, 100
1, 24766, Note_off_c, 0, 74, 100
1, 24766, Note_on_c, 0, 74, 100
1, 24910, Note_off_c, 0, 74, 100
1, 24910, Note_on_c, 0, 74, 100
1, 25102, Note_off_c, 0, 74, 100
1, 25457, Note_on_c, 0, 70, 100
1, 25495, Note_off_c, 0, 70, 100
1, 25495, Note_on_c, 0, 71, 100
1, 25533, Note_off_c, 0, 71, 100
1, 25533, Note_on_c, 0, 72, 100
1, 25629, Note_off_c, 0, 72, 100
1, 25629, Note_on_c, 0, 69, 100
1, 25725, Note_off_c, 0, 69, 100
1, 25725, Note_on_c, 0, 68, 100
1, 25752, Note_off_c, 0, 68, 100
1, 25752, Note_on_c, 0, 67, 100
1, 25779, Note_off_c, 0, 67, 100
1, 25779, Note_on_c, 0, 66, 100
1, 25888, Note_off_c, 0, 66, 100
1, 25888, Note_on_c, 0, 62, 100
1, 26011, Note_off_c, 0, 62, 100
1, 26011, Note_on_c, 0, 66, 100
1, 26107, Note_off_c, 0, 66, 100
1, 26107, Note_on_c, 0, 69, 100
1, 26203, Note_off_c, 0, 69, 100
1, 26203, Note_on_c, 0, 66, 100
1, 26251, Note_off_c, 0, 66, 100
1, 26251, Note_on_c, 0, 69, 100
1, 26395, Note_off_c, 0, 69, 100
1, 26395, Note_on_c, 0, 66, 100
1, 26443, Note_off_c, 0, 66, 100
1, 26443, Note_on_c, 0, 67, 100
1, 26587, Note_off_c, 0, 67, 100
1, 26587, Note_on_c, 0, 62, 100
1, 26779, Note_off_c, 0, 62, 100
1, 26779, Note_on_c, 0, 66, 100
1, 26971, Note_off_c, 0, 66, 100
1, 27451, Note_on_c, 0, 62, 100
1, 27547, Note_off_c, 0, 62, 100
1, 27547, Note_on_c, 0, 62, 100
1, 27643, Note_off_c, 0, 62, 100
1, 27643, Note_on_c, 0, 66, 100
1, 27739, Note_off_c, 0, 66, 100
1, 27739, Note_on_c, 0, 66, 100
1, 27787, Note_off_c, 0, 66, 100
1, 27787, Note_on_c, 0, 67, 100
1, 27835, Note_off_c, 0, 67, 100
1, 27835, Note_on_c, 0, 67, 100
1, 27979, Note_off_c, 0, 67, 100
1, 27979, Note_on_c, 0, 69, 100
1, 28123, Note_off_c, 0, 69, 100
1, 28123, Note_on_c, 0, 70, 100
1, 28315, Note_off_c, 0, 70, 100
1, 28315, Note_on_c, 0, 70, 100
1, 28507, Note_off_c, 0, 70, 100
1, 28507, Note_on_c, 0, 69, 100
1, 28699, Note_off_c, 0, 69, 100
1, 28699, Note_on_c, 0, 67, 100
1, 29083, Note_off_c, 0, 67, 100
1, 29083, Note_on_c, 0, 62, 100
1, 29179, Note_off_c, 0, 62, 100
1, 29179, Note_on_c, 0, 66, 100
1, 29371, Note_off_c, 0, 66, 100
1, 29371, Note_on_c, 0, 66, 100
1, 29515, Note_off_c, 0, 66, 100
1, 29515, Note_on_c, 0, 67, 100
1, 29659, Note_off_c, 0, 67, 100
1, 29659, Note_on_c, 0, 69, 100
1, 29755, Note_off_c, 0, 69, 100
1, 30475, Note_on_c, 0, 62, 100
1, 30571, Note_off_c, 0, 62, 100
1, 30571, Note_on_c, 0, 66, 100
1, 30667, Note_off_c, 0, 66, 100
1, 30667, Note_on_c, 0, 67, 100
1, 30779, Note_off_c, 0, 67, 100
1, 30779, Note_on_c, 0, 69, 100
1, 30843, Note_off_c, 0, 69, 100
1, 30843, Note_on_c, 0, 75, 100
1, 30875, Note_off_c, 0, 75, 100
1, 30875, Note_on_c, 0, 76, 100
1, 30907, Note_off_c, 0, 76, 100
1, 30907, Note_on_c, 0, 77, 100
1, 30955, Note_off_c, 0, 77, 100
1, 30955, Note_on_c, 0, 78, 100
1, 31099, Note_off_c, 0, 78, 100
1, 31099, Note_on_c, 0, 74, 100
1, 31291, Note_off_c, 0, 74, 100
1, 31483, Note_on_c, 0, 68, 100
1, 31515, Note_off_c, 0, 68, 100
1, 31515, Note_on_c, 0, 69, 100
1, 31547, Note_off_c, 0, 69, 100
1, 31547, Note_on_c, 0, 70, 100
1, 31579, Note_off_c, 0, 70, 100
1, 31579, Note_on_c, 0, 71, 100
1, 31675, Note_off_c, 0, 71, 100
1, 31675, Note_on_c, 0, 69, 100
1, 31723, Note_off_c, 0, 69, 100
1, 31723, Note_on_c, 0, 70, 100
1, 31771, Note_off_c, 0, 70, 100
1, 31771, Note_on_c, 0, 71, 100
1, 31867, Note_off_c, 0, 71, 100
1, 31867, Note_on_c, 0, 69, 100
1, 32059, Note_off_c, 0, 69, 100
1, 32059, Note_on_c, 0, 62, 100
1, 32155, Note_off_c, 0, 62, 100
1, 32155, Note_on_c, 0, 62, 100
1, 32251, Note_off_c, 0, 62, 100
1, 32251, Note_on_c, 0, 65, 100
1, 32283, Note_off_c, 0, 65, 100
1, 32283, Note_on_c, 0, 66, 100
1, 32347, Note_off_c, 0, 66, 100
1, 32347, Note_on_c, 0, 69, 100
1, 32411, Note_off_c, 0, 69, 100
1, 32411, Note_on_c, 0, 70, 100
1, 32443, Note_off_c, 0, 70, 100
1, 32443, Note_on_c, 0, 71, 100
1, 32635, Note_off_c, 0, 71, 100
1, 32635, Note_on_c, 0, 69, 100
1, 32971, Note_off_c, 0, 69, 100
1, 32971, Note_on_c, 0, 64, 100
1, 33019, Note_off_c, 0, 64, 100
1, 33019, Note_on_c, 0, 65, 100
1, 33051, Note_off_c, 0, 65, 100
1, 33051, Note_on_c, 0, 66, 100
1, 33179, Note_off_c, 0, 66, 100
1, 33179, Note_on_c, 0, 65, 100
1, 33211, Note_off_c, 0, 65, 100
1, 33211, Note_on_c, 0, 66, 100
1, 33403, Note_off_c, 0, 66, 100
1, 33403, Note_on_c, 0, 62, 100
1, 33499, Note_off_c, 0, 62, 100
1, 33499, Note_on_c, 0, 61, 100
1, 33595, Note_off_c, 0, 61, 100
1, 34315, Note_on_c, 0, 77, 100
1, 34363, Note_off_c, 0, 77, 100
1, 34363, Note_on_c, 0, 78, 100
1, 34459, Note_off_c, 0, 78, 100
1, 34459, Note_on_c, 0, 77, 100
1, 34555, Note_off_c, 0, 77, 100
1, 34555, Note_on_c, 0, 78, 100
1, 34699, Note_off_c, 0, 78, 100
1, 34699, Note_on_c, 0, 76, 100
1, 34747, Note_off_c, 0, 76, 100
1, 34747, Note_on_c, 0, 74, 100
1, 34843, Note_off_c, 0, 74, 100
1, 34843, Note_on_c, 0, 70, 100
1, 35035, Note_off_c, 0, 70, 100
1, 35035, Note_on_c, 0, 69, 100
1, 35195, Note_off_c, 0, 69, 100
1, 35195, Note_on_c, 0, 65, 100
1, 35259, Note_off_c, 0, 65, 100
1, 35259, Note_on_c, 0, 66, 100
1, 35323, Note_off_c, 0, 66, 100
1, 35323, Note_on_c, 0, 65, 100
1, 35419, Note_off_c, 0, 65, 100
1, 35419, Note_on_c, 0, 63, 100
1, 35467, Note_off_c, 0, 63, 100
1, 35467, Note_on_c, 0, 64, 100
1, 35611, Note_off_c, 0, 64, 100
1, 35611, Note_on_c, 0, 62, 100
1, 35803, Note_off_c, 0, 62, 100
1, 36187, Note_on_c, 0, 71, 100
1, 36283, Note_off_c, 0, 71, 100
1, 36283, Note_on_c, 0, 72, 100
1, 36763, Note_off_c, 0, 72, 100
1, 36763, Note_on_c, 0, 69, 100
1, 36811, Note_off_c, 0, 69, 100
1, 36811, Note_on_c, 0, 74, 100
1, 36907, Note_off_c, 0, 74, 100
1, 36907, Note_on_c, 0, 69, 100
1, 37003, Note_off_c, 0, 69, 100
1, 37003, Note_on_c, 0, 68, 100
1, 37099, Note_off_c, 0, 68, 100
1, 37531, Note_on_c, 0, 68, 100
1, 37627, Note_off_c, 0, 68, 100
1, 37627, Note_on_c, 0, 72, 100
1, 37819, Note_off_c, 0, 72, 100
1, 37819, Note_on_c, 0, 71, 100
1, 38011, Note_off_c, 0, 71, 100
1, 38011, Note_on_c, 0, 69, 100
1, 38203, Note_off_c, 0, 69, 100
1, 38203, Note_on_c, 0, 66, 100
1, 38347, Note_off_c, 0, 66, 100
1, 38347, Note_on_c, 0, 62, 100
1, 38587, Note_off_c, 0, 62, 100
1, 38587, Note_on_c, 0, 66, 100
1, 38683, Note_off_c, 0, 66, 100
1, 38683, Note_on_c, 0, 69, 100
1, 38971, Note_off_c, 0, 69, 100
1, 39835, Note_on_c, 0, 65, 100
1, 39995, Note_off_c, 0, 65, 100
1, 39995, Note_on_c, 0, 66, 100
1, 40219, Note_off_c, 0, 66, 100
1, 40219, Note_on_c, 0, 65, 100
1, 40379, Note_off_c, 0, 65, 100
1, 40379, Note_on_c, 0, 66, 100
1, 40443, Note_off_c, 0, 66, 100
1, 40443, Note_on_c, 0, 65, 100
1, 40603, Note_off_c, 0, 65, 100
1, 40603, Note_on_c, 0, 66, 100
1, 40699, Note_off_c, 0, 66, 100
1, 40699, Note_on_c, 0, 65, 100
1, 40843, Note_off_c, 0, 65, 100
1, 40843, Note_on_c, 0, 66, 100
1, 40955, Note_off_c, 0, 66, 100
1, 40955, Note_on_c, 0, 65, 100
1, 41899, Note_off_c, 0, 65, 100
1, 41899, Note_on_c, 0, 67, 100
1, 41995, Note_off_c, 0, 67, 100
1, 41995, Note_on_c, 0, 69, 100
1, 42139, Note_off_c, 0, 69, 100
1, 42139, Note_on_c, 0, 62, 100
1, 42523, Note_off_c, 0, 62, 100
1, 42523, Note_on_c, 0, 65, 100
1, 42571, Note_off_c, 0, 65, 100
1, 42571, Note_on_c, 0, 66, 100
1, 42619, Note_off_c, 0, 66, 100
1, 42619, Note_on_c, 0, 65, 100
1, 42667, Note_off_c, 0, 65, 100
1, 42667, Note_on_c, 0, 64, 100
1, 42715, Note_off_c, 0, 64, 100
1, 42715, Note_on_c, 0, 63, 100
1, 42811, Note_off_c, 0, 63, 100
1, 43291, Note_on_c, 0, 66, 100
1, 43387, Note_off_c, 0, 66, 100
1, 43387, Note_on_c, 0, 67, 100
1, 43483, Note_off_c, 0, 67, 100
1, 43483, Note_on_c, 0, 65, 100
1, 43579, Note_off_c, 0, 65, 100
1, 43579, Note_on_c, 0, 66, 100
1, 43771, Note_off_c, 0, 66, 100
1, 43771, Note_on_c, 0, 67, 100
1, 44251, Note_off_c, 0, 67, 100
1, 44251, Note_on_c, 0, 68, 100
1, 44347, Note_off_c, 0, 68, 100
1, 44347, Note_on_c, 0, 69, 100
1, 44491, Note_off_c, 0, 69, 100
1, 44491, Note_on_c, 0, 62, 100
1, 44827, Note_off_c, 0, 62, 100
1, 44827, Note_on_c, 0, 65, 100
1, 44875, Note_off_c, 0, 65, 100
1, 44875, Note_on_c, 0, 66, 100
1, 44923, Note_off_c, 0, 66, 100
1, 44923, Note_on_c, 0, 65, 100
1, 44971, Note_off_c, 0, 65, 100
1, 44971, Note_on_c, 0, 64, 100
1, 45019, Note_off_c, 0, 64, 100
1, 45019, Note_on_c, 0, 63, 100
1, 45115, Note_off_c, 0, 63, 100
1, 45499, Note_on_c, 0, 62, 100
1, 45595, Note_off_c, 0, 62, 100
1, 45595, Note_on_c, 0, 62, 100
1, 45691, Note_off_c, 0, 62, 100
1, 45691, Note_on_c, 0, 65, 100
1, 45739, Note_off_c, 0, 65, 100
1, 45739, Note_on_c, 0, 66, 100
1, 45787, Note_off_c, 0, 66, 100
1, 45787, Note_on_c, 0, 67, 100
1, 45883, Note_off_c, 0, 67, 100
1, 45883, Note_on_c, 0, 69, 100
1, 45979, Note_off_c, 0, 69, 100
1, 45979, Note_on_c, 0, 69, 100
1, 46027, Note_off_c, 0, 69, 100
1, 46027, Note_on_c, 0, 70, 100
1, 46219, Note_off_c, 0, 70, 100
1, 46219, Note_on_c, 0, 69, 100
1, 46363, Note_off_c, 0, 69, 100
1, 46363, Note_on_c, 0, 67, 100
1, 46555, Note_off_c, 0, 67, 100
1, 46907, Note_on_c, 0, 75, 100
1, 46971, Note_off_c, 0, 75, 100
1, 46971, Note_on_c, 0, 76, 100
1, 47515, Note_off_c, 0, 76, 100
1, 47515, Note_on_c, 0, 78, 100
1, 47563, Note_off_c, 0, 78, 100
1, 47563, Note_on_c, 0, 76, 100
1, 47867, Note_off_c, 0, 76, 100
1, 47867, Note_on_c, 0, 74, 100
1, 48059, Note_off_c, 0, 74, 100
1, 49147, Note_on_c, 0, 75, 100
1, 49243, Note_off_c, 0, 75, 100
1, 49243, Note_on_c, 0, 74, 100
1, 49291, Note_off_c, 0, 74, 100
1, 49291, Note_on_c, 0, 76, 100
1, 49435, Note_off_c, 0, 76, 100
1, 49435, Note_on_c, 0, 78, 100
1, 49531, Note_off_c, 0, 78, 100
1, 49531, Note_on_c, 0, 74, 100
1, 49723, Note_off_c, 0, 74, 100
1, 49723, Note_on_c, 0, 74, 100
1, 49915, Note_off_c, 0, 74, 100
1, 49915, Note_on_c, 0, 71, 100
1, 50059, Note_off_c, 0, 71, 100
1, 50059, Note_on_c, 0, 71, 100
1, 50299, Note_off_c, 0, 71, 100
1, 50299, Note_on_c, 0, 69, 100
1, 50395, Note_off_c, 0, 69, 100
1, 50683, Note_on_c, 0, 66, 100
1, 50779, Note_off_c, 0, 66, 100
1, 50779, Note_on_c, 0, 65, 100
1, 50875, Note_off_c, 0, 65, 100
1, 50875, Note_on_c, 0, 66, 100
1, 50923, Note_off_c, 0, 66, 100
1, 50923, Note_on_c, 0, 65, 100
1, 51067, Note_off_c, 0, 65, 100
1, 51067, Note_on_c, 0, 62, 100
1, 51211, Note_off_c, 0, 62, 100
1, 51211, Note_on_c, 0, 62, 100
1, 51451, Note_off_c, 0, 62, 100
1, 51451, Note_on_c, 0, 71, 100
1, 51595, Note_off_c, 0, 71, 100
1, 51595, Note_on_c, 0, 71, 100
1, 51835, Note_off_c, 0, 71, 100
1, 51835, Note_on_c, 0, 69, 100
1, 51979, Note_off_c, 0, 69, 100
1, 51979, Note_on_c, 0, 77, 100
1, 52027, Note_off_c, 0, 77, 100
1, 52027, Note_on_c, 0, 78, 100
1, 52219, Note_off_c, 0, 78, 100
1, 52219, Note_on_c, 0, 77, 100
1, 52411, Note_off_c, 0, 77, 100
1, 52411, Note_on_c, 0, 75, 100
1, 52603, Note_off_c, 0, 75, 100
1, 52603, Note_on_c, 0, 74, 100
1, 52891, Note_off_c, 0, 74, 100
1, 52891, Note_on_c, 0, 69, 100
1, 53051, Note_off_c, 0, 69, 100
1, 53051, Note_on_c, 0, 68, 100
1, 53147, Note_off_c, 0, 68, 100
1, 53899, Note_on_c, 0, 76, 100
1, 53947, Note_off_c, 0, 76, 100
1, 53947, Note_on_c, 0, 77, 100
1, 54043, Note_off_c, 0, 77, 100
1, 54043, Note_on_c, 0, 74, 100
1, 54331, Note_off_c, 0, 74, 100
1, 54331, Note_on_c, 0, 77, 100
1, 54369, Note_off_c, 0, 77, 100
1, 54369, Note_on_c, 0, 78, 100
1, 54445, Note_off_c, 0, 78, 100
1, 54445, Note_on_c, 0, 76, 100
1, 54483, Note_off_c, 0, 76, 100
1, 54483, Note_on_c, 0, 74, 100
1, 54617, Note_off_c, 0, 74, 100
1, 54617, Note_on_c, 0, 77, 100
1, 54713, Note_off_c, 0, 77, 100
1, 54713, Note_on_c, 0, 79, 100
1, 54857, Note_off_c, 0, 79, 100
1, 54857, Note_on_c, 0, 78, 100
1, 55001, Note_off_c, 0, 78, 100
1, 55001, Note_on_c, 0, 76, 100
1, 55049, Note_off_c, 0, 76, 100
1, 55049, Note_on_c, 0, 74, 100
1, 55145, Note_off_c, 0, 74, 100
1, 55577, Note_on_c, 0, 70, 100
1, 55625, Note_off_c, 0, 70, 100
1, 55625, Note_on_c, 0, 71, 100
1, 55817, Note_off_c, 0, 71, 100
1, 55817, Note_on_c, 0, 76, 100
1, 55961, Note_off_c, 0, 76, 100
1, 55961, Note_on_c, 0, 74, 100
1, 56249, Note_off_c, 0, 74, 100
1, 56249, Note_on_c, 0, 71, 100
1, 56377, Note_off_c, 0, 71, 100
1, 56377, Note_on_c, 0, 69, 100
1, 56441, Note_off_c, 0, 69, 100
1, 56441, Note_on_c, 0, 68, 100
1, 56537, Note_off_c, 0, 68, 100
1, 56537, Note_on_c, 0, 67, 100
1, 56681, Note_off_c, 0, 67, 100
1, 56681, Note_on_c, 0, 62, 100
1, 56825, Note_off_c, 0, 62, 100
1, 56825, Note_on_c, 0, 75, 100
1, 56921, Note_off_c, 0, 75, 100
1, 56921, Note_on_c, 0, 76, 100
1, 57017, Note_off_c, 0, 76, 100
1, 57017, Note_on_c, 0, 78, 100
1, 57113, Note_off_c, 0, 78, 100
1, 57113, Note_on_c, 0, 75, 100
1, 57209, Note_off_c, 0, 75, 100
1, 57209, Note_on_c, 0, 74, 100
1, 57257, Note_off_c, 0, 74, 100
1, 57257, Note_on_c, 0, 72, 100
1, 57353, Note_off_c, 0, 72, 100
1, 57353, Note_on_c, 0, 71, 100
1, 57465, Note_off_c, 0, 71, 100
1, 57465, Note_on_c, 0, 70, 100
1, 57529, Note_off_c, 0, 70, 100
1, 57529, Note_on_c, 0, 67, 100
1, 57593, Note_off_c, 0, 67, 100
1, 57593, Note_on_c, 0, 69, 100
1, 57713, Note_off_c, 0, 69, 100
1, 57713, Note_on_c, 0, 77, 100
1, 57737, Note_off_c, 0, 77, 100
1, 57737, Note_on_c, 0, 78, 100
1, 57761, Note_off_c, 0, 78, 100
1, 57761, Note_on_c, 0, 79, 100
1, 57857, Note_off_c, 0, 79, 100
1, 58265, Note_on_c, 0, 61, 100
1, 58297, Note_off_c, 0, 61, 100
1, 58297, Note_on_c, 0, 62, 100
1, 58329, Note_off_c, 0, 62, 100
1, 58329, Note_on_c, 0, 63, 100
1, 58361, Note_off_c, 0, 63, 100
1, 58361, Note_on_c, 0, 64, 100
1, 58649, Note_off_c, 0, 64, 100
1, 58649, Note_on_c, 0, 69, 100
1, 58745, Note_off_c, 0, 69, 100
1, 58745, Note_on_c, 0, 67, 100
1, 58873, Note_off_c, 0, 67, 100
1, 58873, Note_on_c, 0, 62, 100
1, 59065, Note_off_c, 0, 62, 100
1, 59705, Note_on_c, 0, 62, 100
1, 59801, Note_off_c, 0, 62, 100
1, 59801, Note_on_c, 0, 67, 100
1, 59897, Note_off_c, 0, 67, 100
1, 59897, Note_on_c, 0, 69, 100
1, 59945, Note_off_c, 0, 69, 100
1, 59945, Note_on_c, 0, 71, 100
1, 60041, Note_off_c, 0, 71, 100
1, 60041, Note_on_c, 0, 74, 100
1, 60185, Note_off_c, 0, 74, 100
1, 60185, Note_on_c, 0, 74, 100
1, 60473, Note_off_c, 0, 74, 100
1, 60473, Note_on_c, 0, 71, 100
1, 60569, Note_off_c, 0, 71, 100
1, 60569, Note_on_c, 0, 67, 100
1, 60665, Note_off_c, 0, 67, 100
1, 60665, Note_on_c, 0, 69, 100
1, 60761, Note_off_c, 0, 69, 100
1, 60761, Note_on_c, 0, 69, 100
1, 60953, Note_off_c, 0, 69, 100
1, 60953, Note_on_c, 0, 69, 100
1, 61241, Note_off_c, 0, 69, 100
1, 61241, Note_on_c, 0, 62, 100
1, 61337, Note_off_c, 0, 62, 100
1, 61337, Note_on_c, 0, 66, 100
1, 61433, Note_off_c, 0, 66, 100
1, 61433, Note_on_c, 0, 67, 100
1, 61529, Note_off_c, 0, 67, 100
1, 61529, Note_on_c, 0, 69, 100
1, 61721, Note_off_c, 0, 69, 100
1, 61721, Note_on_c, 0, 69, 100
1, 61961, Note_off_c, 0, 69, 100
1, 61961, Note_on_c, 0, 67, 100
1, 62201, Note_off_c, 0, 67, 100
1, 62201, Note_on_c, 0, 66, 100
1, 62297, Note_off_c, 0, 66, 100
1, 62297, Note_on_c, 0, 65, 100
1, 62393, Note_off_c, 0, 65, 100
1, 62393, Note_on_c, 0, 62, 100
1, 62489, Note_off_c, 0, 62, 100
1, 62489, Note_on_c, 0, 64, 100
1, 62585, Note_off_c, 0, 64, 100
1, 63065, Note_on_c, 0, 75, 100
1, 63113, Note_off_c, 0, 75, 100
1, 63113, Note_on_c, 0, 76, 100
1, 63545, Note_off_c, 0, 76, 100
1, 63545, Note_on_c, 0, 74, 100
1, 63641, Note_off_c, 0, 74, 100
1, 63641, Note_on_c, 0, 72, 100
1, 63689, Note_off_c, 0, 72, 100
1, 63689, Note_on_c, 0, 74, 100
1, 63833, Note_off_c, 0, 74, 100
1, 63833, Note_on_c, 0, 77, 100
1, 63929, Note_off_c, 0, 77, 100
1, 64793, Note_on_c, 0, 71, 100
1, 64889, Note_off_c, 0, 71, 100
1, 64889, Note_on_c, 0, 74, 100
1, 64985, Note_off_c, 0, 74, 100
1, 64985, Note_on_c, 0, 77, 100
1, 65081, Note_off_c, 0, 77, 100
1, 65081, Note_on_c, 0, 78, 100
1, 65225, Note_off_c, 0, 78, 100
1, 65225, Note_on_c, 0, 75, 100
1, 65273, Note_off_c, 0, 75, 100
1, 65273, Note_on_c, 0, 76, 100
1, 65465, Note_off_c, 0, 76, 100
1, 65465, Note_on_c, 0, 74, 100
1, 65609, Note_off_c, 0, 74, 100
1, 65609, Note_on_c, 0, 71, 100
1, 65657, Note_off_c, 0, 71, 100
1, 65657, Note_on_c, 0, 72, 100
1, 65849, Note_off_c, 0, 72, 100
1, 65849, Note_on_c, 0, 70, 100
1, 65977, Note_off_c, 0, 70, 100
1, 65977, Note_on_c, 0, 69, 100
1, 66185, Note_off_c, 0, 69, 100
1, 66185, Note_on_c, 0, 67, 100
1, 66329, Note_off_c, 0, 67, 100
1, 66329, Note_on_c, 0, 66, 100
1, 66521, Note_off_c, 0, 66, 100
1, 66521, Note_on_c, 0, 67, 100
1, 66617, Note_off_c, 0, 67, 100
1, 66617, Note_on_c, 0, 69, 100
1, 66761, Note_off_c, 0, 69, 100
1, 66761, Note_on_c, 0, 69, 100
1, 66809, Note_off_c, 0, 69, 100
1, 66809, Note_on_c, 0, 70, 100
1, 66953, Note_off_c, 0, 70, 100
1, 66953, Note_on_c, 0, 69, 100
1, 67097, Note_off_c, 0, 69, 100
1, 67097, Note_on_c, 0, 67, 100
1, 67289, Note_off_c, 0, 67, 100
1, 68009, Note_on_c, 0, 68, 100
1, 68057, Note_off_c, 0, 68, 100
1, 68057, Note_on_c, 0, 70, 100
1, 68105, Note_off_c, 0, 70, 100
1, 68105, Note_on_c, 0, 71, 100
1, 68249, Note_off_c, 0, 71, 100
1, 68249, Note_on_c, 0, 74, 100
1, 68537, Note_off_c, 0, 74, 100
1, 68997, Note_on_c, 0, 68, 100
1, 69035, Note_off_c, 0, 68, 100
1, 69035, Note_on_c, 0, 69, 100
1, 69073, Note_off_c, 0, 69, 100
1, 69073, Note_on_c, 0, 71, 100
1, 69207, Note_off_c, 0, 71, 100
1, 69207, Note_on_c, 0, 71, 100
1, 69303, Note_off_c, 0, 71, 100
1, 69303, Note_on_c, 0, 74, 100
1, 69431, Note_off_c, 0, 74, 100
1, 69431, Note_on_c, 0, 70, 100
1, 69495, Note_off_c, 0, 70, 100
1, 69495, Note_on_c, 0, 71, 100
1, 69591, Note_off_c, 0, 71, 100
1, 69591, Note_on_c, 0, 71, 100
1, 69687, Note_off_c, 0, 71, 100
1, 69687, Note_on_c, 0, 74, 100
1, 69783, Note_off_c, 0, 74, 100
1, 69783, Note_on_c, 0, 70, 100
1, 69879, Note_off_c, 0, 70, 100
1, 69879, Note_on_c, 0, 70, 100
1, 70071, Note_off_c, 0, 70, 100
1, 70071, Note_on_c, 0, 78, 100
1, 70167, Note_off_c, 0, 78, 100
1, 70167, Note_on_c, 0, 74, 100
1, 70359, Note_off_c, 0, 74, 100
1, 70359, Note_on_c, 0, 62, 100
1, 70743, Note_off_c, 0, 62, 100
1, 70743, Note_on_c, 0, 62, 100
1, 70839, Note_off_c, 0, 62, 100
1, 70839, Note_on_c, 0, 66, 100
1, 70935, Note_off_c, 0, 66, 100
1, 70935, Note_on_c, 0, 65, 100
1, 71031, Note_off_c, 0, 65, 100
1, 71031, Note_on_c, 0, 62, 100
1, 71223, Note_off_c, 0, 62, 100
1, 71223, Note_on_c, 0, 62, 100
1, 71415, Note_off_c, 0, 62, 100
1, 71415, Note_on_c, 0, 62, 100
1, 71559, Note_off_c, 0, 62, 100
1, 71559, Note_on_c, 0, 69, 100
1, 71703, Note_off_c, 0, 69, 100
1, 71703, Note_on_c, 0, 67, 100
1, 71799, Note_off_c, 0, 67, 100
1, 72711, Note_on_c, 0, 73, 100
1, 72759, Note_off_c, 0, 73, 100
1, 72759, Note_on_c, 0, 75, 100
1, 72823, Note_off_c, 0, 75, 100
1, 72823, Note_on_c, 0, 77, 100
1, 72887, Note_off_c, 0, 77, 100
1, 72887, Note_on_c, 0, 78, 100
1, 73527, Note_off_c, 0, 78, 100
1, 73527, Note_on_c, 0, 76, 100
1, 73575, Note_off_c, 0, 76, 100
1, 73575, Note_on_c, 0, 74, 100
1, 73623, Note_off_c, 0, 74, 100
1, 73623, Note_on_c, 0, 71, 100
1, 73719, Note_off_c, 0, 71, 100
1, 73719, Note_on_c, 0, 74, 100
1, 73911, Note_off_c, 0, 74, 100
1, 74583, Note_on_c, 0, 70, 100
1, 74679, Note_off_c, 0, 70, 100
1, 74679, Note_on_c, 0, 74, 100
1, 74775, Note_off_c, 0, 74, 100
1, 74775, Note_on_c, 0, 77, 100
1, 74871, Note_off_c, 0, 77, 100
1, 74871, Note_on_c, 0, 77, 100
1, 74967, Note_off_c, 0, 77, 100
1, 74967, Note_on_c, 0, 78, 100
1, 75063, Note_off_c, 0, 78, 100
1, 75063, Note_on_c, 0, 79, 100
1, 75543, Note_off_c, 0, 79, 100
1, 75543, Note_on_c, 0, 80, 100
1, 75639, Note_off_c, 0, 80, 100
1, 76599, Note_on_c, 0, 71, 100
1, 76743, Note_off_c, 0, 71, 100
1, 76743, Note_on_c, 0, 74, 100
1, 76791, Note_off_c, 0, 74, 100
1, 76791, Note_on_c, 0, 77, 100
1, 76887, Note_off_c, 0, 77, 100
1, 76887, Note_on_c, 0, 77, 100
1, 77047, Note_off_c, 0, 77, 100
1, 77047, Note_on_c, 0, 76, 100
1, 77111, Note_off_c, 0, 76, 100
1, 77111, Note_on_c, 0, 74, 100
1, 77175, Note_off_c, 0, 74, 100
1, 77175, Note_on_c, 0, 76, 100
1, 77271, Note_off_c, 0, 76, 100
1, 77271, Note_on_c, 0, 74, 100
1, 77367, Note_off_c, 0, 74, 100
1, 77367, Note_on_c, 0, 71, 100
1, 77463, Note_off_c, 0, 71, 100
1, 77463, Note_on_c, 0, 67, 100
1, 77559, Note_off_c, 0, 67, 100
1, 77559, Note_on_c, 0, 70, 100
1, 77703, Note_off_c, 0, 70, 100
1, 77703, Note_on_c, 0, 74, 100
1, 77799, Note_off_c, 0, 74, 100
1, 78423, Note_on_c, 0, 76, 100
1, 78615, Note_off_c, 0, 76, 100
1, 78615, Note_on_c, 0, 71, 100
1, 78711, Note_off_c, 0, 71, 100
1, 78711, Note_on_c, 0, 76, 100
1, 78807, Note_off_c, 0, 76, 100
1, 78807, Note_on_c, 0, 74, 100
1, 78855, Note_off_c, 0, 74, 100
1, 78855, Note_on_c, 0, 71, 100
1, 78903, Note_off_c, 0, 71, 100
1, 78903, Note_on_c, 0, 67, 100
1, 78999, Note_off_c, 0, 67, 100
1, 78999, Note_on_c, 0, 64, 100
1, 79095, Note_off_c, 0, 64, 100
1, 79095, Note_on_c, 0, 71, 100
1, 79287, Note_off_c, 0, 71, 100
1, 79287, Note_on_c, 0, 74, 100
1, 79479, Note_off_c, 0, 74, 100
1, 79479, Note_on_c, 0, 71, 100
1, 79575, Note_off_c, 0, 71, 100
1, 79575, Note_on_c, 0, 69, 100
1, 79671, Note_off_c, 0, 69, 100
1, 79671, Note_on_c, 0, 67, 100
1, 79863, Note_off_c, 0, 67, 100
1, 79863, Note_on_c, 0, 67, 100
1, 79911, Note_off_c, 0, 67, 100
1, 79911, Note_on_c, 0, 68, 100
1, 79959, Note_off_c, 0, 68, 100
1, 79959, Note_on_c, 0, 66, 100
1, 80055, Note_off_c, 0, 66, 100
1, 80055, Note_on_c, 0, 62, 100
1, 80247, Note_off_c, 0, 62, 100
1, 80247, Note_on_c, 0, 64, 100
1, 80343, Note_off_c, 0, 64, 100
1, 80343, Note_on_c, 0, 65, 100
1, 80391, Note_off_c, 0, 65, 100
1, 80391, Note_on_c, 0, 62, 100
1, 80535, Note_off_c, 0, 62, 100
1, 80535, Note_on_c, 0, 59, 100
1, 80631, Note_off_c, 0, 59, 100
1, 80631, Note_on_c, 0, 62, 100
1, 80823, Note_off_c, 0, 62, 100
1, 81687, Note_on_c, 0, 70, 100
1, 81783, Note_off_c, 0, 70, 100
1, 81783, Note_on_c, 0, 71, 100
1, 83511, Note_off_c, 0, 71, 100
1, 83511, Note_on_c, 0, 70, 100
1, 83559, Note_off_c, 0, 70, 100
1, 83559, Note_on_c, 0, 69, 100
1, 83607, Note_off_c, 0, 69, 100
1, 83607, Note_on_c, 0, 68, 100
1, 83655, Note_off_c, 0, 68, 100
1, 83655, Note_on_c, 0, 71, 100
1, 83959, Note_off_c, 0, 71, 100
1, 83959, Note_on_c, 0, 70, 100
1, 84023, Note_off_c, 0, 70, 100
1, 84023, Note_on_c, 0, 69, 100
1, 84119, Note_off_c, 0, 69, 100
1, 84279, Note_on_c, 0, 57, 100
1, 84423, Note_off_c, 0, 57, 100
1, 84423, Note_on_c, 0, 57, 100
1, 84663, Note_off_c, 0, 57, 100
1, 84663, Note_on_c, 0, 60, 100
1, 84791, Note_off_c, 0, 60, 100
1, 84791, Note_on_c, 0, 57, 100
1, 84855, Note_off_c, 0, 57, 100
1, 84855, Note_on_c, 0, 62, 100
1, 84951, Note_off_c, 0, 62, 100
1, 84951, Note_on_c, 0, 66, 100
1, 85143, Note_off_c, 0, 66, 100
1, 85143, Note_on_c, 0, 62, 100
1, 85239, Note_off_c, 0, 62, 100
1, 85239, Note_on_c, 0, 67, 100
1, 85431, Note_off_c, 0, 67, 100
1, 85431, Note_on_c, 0, 67, 100
1, 85623, Note_off_c, 0, 67, 100
1, 85623, Note_on_c, 0, 69, 100
1, 85815, Note_off_c, 0, 69, 100
1, 85815, Note_on_c, 0, 74, 100
1, 85943, Note_off_c, 0, 74, 100
1, 85943, Note_on_c, 0, 70, 100
1, 86007, Note_off_c, 0, 70, 100
1, 86007, Note_on_c, 0, 71, 100
1, 86295, Note_off_c, 0, 71, 100
1, 86295, Note_on_c, 0, 69, 100
1, 86483, Note_off_c, 0, 69, 100
1, 86483, End_track
0, 0, End_of_file
