0, 0, Header, 1, 1, 192
1, 0, Start_track
1, 0, Title_t, "Melody"
1, 0, Tempo, 451127
1, 0, Key_signature, -4, "major"
1, 0, Time_signature, 4, 2, 24, 8
1, 144, Note_on_c, 0, 60, 100
1, 192, Note_off_c, 0, 60, 100
1, 192, Note_on_c, 0, 63, 100
1, 384, Note_off_c, 0, 63, 100
1, 384, Note_on_c, 0, 60, 100
1, 432, Note_off_c, 0, 60, 100
1, 432, Note_on_c, 0, 63, 100
1, 480, Note_off_c, 0, 63, 100
1, 480, Note_on_c, 0, 60, 100
1, 576, Note_off_c, 0, 60, 100
1, 576, Note_on_c, 0, 56, 100
1, 672, Note_off_c, 0, 56, 100
1, 672, Note_on_c, 0, 53, 100
1, 768, Note_off_c, 0, 53, 100
1, 1104, Note_on_c, 0, 61, 100
1, 1200, Note_off_c, 0, 61, 100
1, 1200, Note_on_c, 0, 64, 100
1, 1296, Note_off_c, 0, 64, 100
1, 1296, Note_on_c, 0, 61, 100
1, 1344, Note_off_c, 0, 61, 100
1, 1344, Note_on_c, 0, 57, 100
1, 1440, Note_off_c, 0, 57, 100
1, 1440, Note_on_c, 0, 54, 100
1, 1536, Note_off_c, 0, 54, 100
1, 1536, Note_on_c, 0, 60, 100
1, 1584, Note_off_c, 0, 60, 100
1, 1584, Note_on_c, 0, 63, 100
1, 1632, Note_off_c, 0, 63, 100
1, 1632, Note_on_c, 0, 60, 100
1, 1728, Note_off_c, 0, 60, 100
1, 2208, Note_on_c, 0, 60, 100
1, 2304, Note_off_c, 0, 60, 100
1, 2496, Note_on_c, 0, 54, 100
1, 2544, Note_off_c, 0, 54, 100
1, 2544, Note_on_c, 0, 57, 100
1, 2592, Note_off_c, 0, 57, 100
1, 2592, Note_on_c, 0, 61, 100
1, 2640, Note_off_c, 0, 61, 100
1, 2640, Note_on_c, 0, 60, 100
1, 2688, Note_off_c, 0, 60, 100
1, 2688, Note_on_c, 0, 59, 100
1, 2736, Note_off_c, 0, 59, 100
1, 2736, Note_on_c, 0, 61, 100
1, 2784, Note_off_c, 0, 61, 100
1, 2784, Note_on_c, 0, 62, 100
1, 2832, Note_off_c, 0, 62, 100
1, 2832, Note_on_c, 0, 64, 100
1, 2880, Note_off_c, 0, 64, 100
1, 2880, Note_on_c, 0, 65, 100
1, 2928, Note_off_c, 0, 65, 100
1, 2928, Note_on_c, 0, 67, 100
1, 2976, Note_off_c, 0, 67, 100
1, 2976, Note_on_c, 0, 64, 100
1, 3024, Note_off_c, 0, 64, 100
1, 3024, Note_on_c, 0, 62, 100
1, 3072, Note_off_c, 0, 62, 100
1, 3072, Note_on_c, 0, 60, 100
1, 3120, Note_off_c, 0, 60, 100
1, 3120, Note_on_c, 0, 61, 100
1, 3216, Note_off_c, 0, 61, 100
1, 3216, Note_on_c, 0, 66, 100
1, 3312, Note_off_c, 0, 66, 100
1, 3312, Note_on_c, 0, 69, 100
1, 3360, Note_off_c, 0, 69, 100
1, 3360, Note_on_c, 0, 68, 100
1, 3408, Note_off_c, 0, 68, 100
1, 3408, Note_on_c, 0, 66, 100
1, 3456, Note_off_c, 0, 66, 100
1, 3456, Note_on_c, 0, 64, 100
1, 3504, Note_off_c, 0, 64, 100
1, 3504, Note_on_c, 0, 61, 100
1, 3552, Note_off_c, 0, 61, 100
1, 3552, Note_on_c, 0, 59, 100
1, 3600, Note_off_c, 0, 59, 100
1, 3600, Note_on_c, 0, 57, 100
1, 3648, Note_off_c, 0, 57, 100
1, 3648, Note_on_c, 0, 56, 100
1, 3712, Note_off_c, 0, 56, 100
1, 3712, Note_on_c, 0, 54, 100
1, 3776, Note_off_c, 0, 54, 100
1, 3776, Note_on_c, 0, 52, 100
1, 3936, Note_off_c, 0, 52, 100
1, 3936, Note_on_c, 0, 71, 100
1, 3984, Note_off_c, 0, 71, 100
1, 3984, Note_on_c, 0, 69, 100
1, 4032, Note_off_c, 0, 69, 100
1, 4032, Note_on_c, 0, 68, 100
1, 4080, Note_off_c, 0, 68, 100
1, 4080, Note_on_c, 0, 66, 100
1, 4176, Note_off_c, 0, 66, 100
1, 4176, Note_on_c, 0, 61, 100
1, 4224, Note_off_c, 0, 61, 100
1, 4224, Note_on_c, 0, 63, 100
1, 4272, Note_off_c, 0, 63, 100
1, 4272, Note_on_c, 0, 61, 100
1, 4320, Note_off_c, 0, 61, 100
1, 4320, Note_on_c, 0, 58, 100
1, 4368, Note_off_c, 0, 58, 100
1, 4368, Note_on_c, 0, 59, 100
1, 4416, Note_off_c, 0, 59, 100
1, 4416, Note_on_c, 0, 60, 100
1, 4464, Note_off_c, 0, 60, 100
1, 4464, Note_on_c, 0, 63, 100
1, 4512, Note_off_c, 0, 63, 100
1, 4512, Note_on_c, 0, 66, 100
1, 4560, Note_off_c, 0, 66, 100
1, 4560, Note_on_c, 0, 67, 100
1, 4608, Note_off_c, 0, 67, 100
1, 4608, Note_on_c, 0, 66, 100
1, 4656, Note_off_c, 0, 66, 100
1, 4656, Note_on_c, 0, 64, 100
1, 4704, Note_off_c, 0, 64, 100
1, 4704, Note_on_c, 0, 62, 100
1, 4752, Note_off_c, 0, 62, 100
1, 4752, Note_on_c, 0, 59, 100
1, 4800, Note_off_c, 0, 59, 100
1, 4800, Note_on_c, 0, 57, 100
1, 4848, Note_off_c, 0, 57, 100
1, 4848, Note_on_c, 0, 55, 100
1, 4896, Note_off_c, 0, 55, 100
1, 4896, Note_on_c, 0, 54, 100
1, 4944, Note_off_c, 0, 54, 100
1, 4944, Note_on_c, 0, 52, 100
1, 4992, Note_off_c, 0, 52, 100
1, 4992, Note_on_c, 0, 59, 100
1, 5040, Note_off_c, 0, 59, 100
1, 5040, Note_on_c, 0, 59, 100
1, 5136, Note_off_c, 0, 59, 100
1, 5440, Note_on_c, 0, 69, 100
1, 5504, Note_off_c, 0, 69, 100
1, 5504, Note_on_c, 0, 67, 100
1, 5568, Note_off_c, 0, 67, 100
1, 5568, Note_on_c, 0, 66, 100
1, 5616, Note_off_c, 0, 66, 100
1, 5616, Note_on_c, 0, 64, 100
1, 5664, Note_off_c, 0, 64, 100
1, 5664, Note_on_c, 0, 62, 100
1, 5712, Note_off_c, 0, 62, 100
1, 5712, Note_on_c, 0, 59, 100
1, 5760, Note_off_c, 0, 59, 100
1, 5760, Note_on_c, 0, 61, 100
1, 5808, Note_off_c, 0, 61, 100
1, 5808, Note_on_c, 0, 59, 100
1, 5856, Note_off_c, 0, 59, 100
1, 5856, Note_on_c, 0, 56, 100
1, 5904, Note_off_c, 0, 56, 100
1, 5904, Note_on_c, 0, 57, 100
1, 5952, Note_off_c, 0, 57, 100
1, 5952, Note_on_c, 0, 52, 100
1, 6000, Note_off_c, 0, 52, 100
1, 6000, Note_on_c, 0, 53, 100
1, 6048, Note_off_c, 0, 53, 100
1, 6048, Note_on_c, 0, 57, 100
1, 6096, Note_off_c, 0, 57, 100
1, 6096, Note_on_c, 0, 62, 100
1, 6144, Note_off_c, 0, 62, 100
1, 6144, Note_on_c, 0, 61, 100
1, 6192, Note_off_c, 0, 61, 100
1, 6192, Note_on_c, 0, 59, 100
1, 6240, Note_off_c, 0, 59, 100
1, 6240, Note_on_c, 0, 57, 100
1, 6288, Note_off_c, 0, 57, 100
1, 6288, Note_on_c, 0, 53, 100
1, 6336, Note_off_c, 0, 53, 100
1, 6336, Note_on_c, 0, 56, 100
1, 6384, Note_off_c, 0, 56, 100
1, 6384, Note_on_c, 0, 53, 100
1, 6432, Note_off_c, 0, 53, 100
1, 6432, Note_on_c, 0, 54, 100
1, 6480, Note_off_c, 0, 54, 100
1, 6480, Note_on_c, 0, 56, 100
1, 6528, Note_off_c, 0, 56, 100
1, 6528, Note_on_c, 0, 57, 100
1, 6566, Note_off_c, 0, 57, 100
1, 6566, Note_on_c, 0, 59, 100
1, 6604, Note_off_c, 0, 59, 100
1, 6604, Note_on_c, 0, 61, 100
1, 6642, Note_off_c, 0, 61, 100
1, 6642, Note_on_c, 0, 64, 100
1, 6680, Note_off_c, 0, 64, 100
1, 6680, Note_on_c, 0, 67, 100
1, 6766, Note_off_c, 0, 67, 100
1, 6766, Note_on_c, 0, 68, 100
1, 6814, Note_off_c, 0, 68, 100
1, 6814, Note_on_c, 0, 66, 100
1, 6862, Note_off_c, 0, 66, 100
1, 6862, Note_on_c, 0, 64, 100
1, 6910, Note_off_c, 0, 64, 100
1, 6910, Note_on_c, 0, 68, 100
1, 6958, Note_off_c, 0, 68, 100
1, 6958, Note_on_c, 0, 69, 100
1, 7006, Note_off_c, 0, 69, 100
1, 7006, Note_on_c, 0, 67, 100
1, 7054, Note_off_c, 0, 67, 100
1, 7054, Note_on_c, 0, 65, 100
1, 7102, Note_off_c, 0, 65, 100
1, 7102, Note_on_c, 0, 64, 100
1, 7150, Note_off_c, 0, 64, 100
1, 7150, Note_on_c, 0, 62, 100
1, 7198, Note_off_c, 0, 62, 100
1, 7198, Note_on_c, 0, 60, 100
1, 7246, Note_off_c, 0, 60, 100
1, 7246, Note_on_c, 0, 57, 100
1, 7294, Note_off_c, 0, 57, 100
1, 7294, Note_on_c, 0, 58, 100
1, 7342, Note_off_c, 0, 58, 100
1, 7342, Note_on_c, 0, 62, 100
1, 7486, Note_off_c, 0, 62, 100
1, 7486, Note_on_c, 0, 62, 100
1, 7534, Note_off_c, 0, 62, 100
1, 7534, Note_on_c, 0, 64, 100
1, 7582, Note_off_c, 0, 64, 100
1, 7582, Note_on_c, 0, 61, 100
1, 7630, Note_off_c, 0, 61, 100
1, 7630, Note_on_c, 0, 59, 100
1, 7678, Note_off_c, 0, 59, 100
1, 7678, Note_on_c, 0, 57, 100
1, 7726, Note_off_c, 0, 57, 100
1, 7726, Note_on_c, 0, 61, 100
1, 7774, Note_off_c, 0, 61, 100
1, 7774, Note_on_c, 0, 64, 100
1, 7822, Note_off_c, 0, 64, 100
1, 7822, Note_on_c, 0, 68, 100
1, 7870, Note_off_c, 0, 68, 100
1, 7870, Note_on_c, 0, 71, 100
1, 7918, Note_off_c, 0, 71, 100
1, 7918, Note_on_c, 0, 70, 100
1, 7966, Note_off_c, 0, 70, 100
1, 7966, Note_on_c, 0, 69, 100
1, 8014, Note_off_c, 0, 69, 100
1, 8014, Note_on_c, 0, 61, 100
1, 8110, Note_off_c, 0, 61, 100
1, 8734, Note_on_c, 0, 72, 100
1, 8782, Note_off_c, 0, 72, 100
1, 8782, Note_on_c, 0, 71, 100
1, 8830, Note_off_c, 0, 71, 100
1, 8830, Note_on_c, 0, 70, 100
1, 8878, Note_off_c, 0, 70, 100
1, 8878, Note_on_c, 0, 69, 100
1, 8926, Note_off_c, 0, 69, 100
1, 8926, Note_on_c, 0, 67, 100
1, 8974, Note_off_c, 0, 67, 100
1, 8974, Note_on_c, 0, 65, 100
1, 9022, Note_off_c, 0, 65, 100
1, 9022, Note_on_c, 0, 64, 100
1, 9070, Note_off_c, 0, 64, 100
1, 9070, Note_on_c, 0, 62, 100
1, 9118, Note_off_c, 0, 62, 100
1, 9118, Note_on_c, 0, 60, 100
1, 9166, Note_off_c, 0, 60, 100
1, 9166, Note_on_c, 0, 58, 100
1, 9214, Note_off_c, 0, 58, 100
1, 9214, Note_on_c, 0, 57, 100
1, 9262, Note_off_c, 0, 57, 100
1, 9262, Note_on_c, 0, 57, 100
1, 9310, Note_off_c, 0, 57, 100
1, 9310, Note_on_c, 0, 60, 100
1, 9358, Note_off_c, 0, 60, 100
1, 9358, Note_on_c, 0, 62, 100
1, 9406, Note_off_c, 0, 62, 100
1, 9406, Note_on_c, 0, 64, 100
1, 9454, Note_off_c, 0, 64, 100
1, 9454, Note_on_c, 0, 64, 100
1, 9550, Note_off_c, 0, 64, 100
1, 9550, Note_on_c, 0, 62, 100
1, 9598, Note_off_c, 0, 62, 100
1, 9598, Note_on_c, 0, 64, 100
1, 9646, Note_off_c, 0, 64, 100
1, 9646, Note_on_c, 0, 64, 100
1, 9694, Note_off_c, 0, 64, 100
1, 9694, Note_on_c, 0, 62, 100
1, 9742, Note_off_c, 0, 62, 100
1, 9742, Note_on_c, 0, 64, 100
1, 9838, Note_off_c, 0, 64, 100
1, 10030, Note_on_c, 0, 67, 100
1, 10078, Note_off_c, 0, 67, 100
1, 10078, Note_on_c, 0, 65, 100
1, 10126, Note_off_c, 0, 65, 100
1, 10126, Note_on_c, 0, 64, 100
1, 10318, Note_off_c, 0, 64, 100
1, 10318, Note_on_c, 0, 62, 100
1, 10366, Note_off_c, 0, 62, 100
1, 10366, Note_on_c, 0, 61, 100
1, 10494, Note_off_c, 0, 61, 100
1, 10494, Note_on_c, 0, 70, 100
1, 10558, Note_off_c, 0, 70, 100
1, 10558, Note_on_c, 0, 69, 100
1, 10702, Note_off_c, 0, 69, 100
1, 10702, Note_on_c, 0, 67, 100
1, 10750, Note_off_c, 0, 67, 100
1, 10750, Note_on_c, 0, 65, 100
1, 10846, Note_off_c, 0, 65, 100
1, 10846, Note_on_c, 0, 57, 100
1, 10894, Note_off_c, 0, 57, 100
1, 10894, Note_on_c, 0, 62, 100
1, 10942, Note_off_c, 0, 62, 100
1, 10942, Note_on_c, 0, 64, 100
1, 10990, Note_off_c, 0, 64, 100
1, 10990, Note_on_c, 0, 67, 100
1, 11038, Note_off_c, 0, 67, 100
1, 11038, Note_on_c, 0, 64, 100
1, 11086, Note_off_c, 0, 64, 100
1, 11086, Note_on_c, 0, 63, 100
1, 11134, Note_off_c, 0, 63, 100
1, 11134, Note_on_c, 0, 62, 100
1, 11172, Note_off_c, 0, 62, 100
1, 11172, Note_on_c, 0, 60, 100
1, 11210, Note_off_c, 0, 60, 100
1, 11210, Note_on_c, 0, 57, 100
1, 11248, Note_off_c, 0, 57, 100
1, 11248, Note_on_c, 0, 58, 100
1, 11324, Note_off_c, 0, 58, 100
1, 11324, Note_on_c, 0, 59, 100
1, 11372, Note_off_c, 0, 59, 100
1, 11372, Note_on_c, 0, 62, 100
1, 11420, Note_off_c, 0, 62, 100
1, 11420, Note_on_c, 0, 65, 100
1, 11468, Note_off_c, 0, 65, 100
1, 11468, Note_on_c, 0, 69, 100
1, 11516, Note_off_c, 0, 69, 100
1, 11516, Note_on_c, 0, 67, 100
1, 11554, Note_off_c, 0, 67, 100
1, 11554, Note_on_c, 0, 64, 100
1, 11669, Note_off_c, 0, 64, 100
1, 11669, Note_on_c, 0, 55, 100
1, 11707, Note_off_c, 0, 55, 100
1, 11707, Note_on_c, 0, 57, 100
1, 11755, Note_off_c, 0, 57, 100
1, 11755, Note_on_c, 0, 53, 100
1, 11851, Note_off_c, 0, 53, 100
1, 11851, Note_on_c, 0, 50, 100
1, 11899, Note_off_c, 0, 50, 100
1, 11899, Note_on_c, 0, 52, 100
1, 11947, Note_off_c, 0, 52, 100
1, 11947, Note_on_c, 0, 53, 100
1, 11995, Note_off_c, 0, 53, 100
1, 11995, Note_on_c, 0, 50, 100
1, 12043, Note_off_c, 0, 50, 100
1, 12043, Note_on_c, 0, 52, 100
1, 12091, Note_off_c, 0, 52, 100
1, 12091, Note_on_c, 0, 50, 100
1, 12139, Note_off_c, 0, 50, 100
1, 12139, Note_on_c, 0, 53, 100
1, 12187, Note_off_c, 0, 53, 100
1, 12187, Note_on_c, 0, 57, 100
1, 12235, Note_off_c, 0, 57, 100
1, 12235, Note_on_c, 0, 60, 100
1, 12283, Note_off_c, 0, 60, 100
1, 12283, Note_on_c, 0, 58, 100
1, 12321, Note_off_c, 0, 58, 100
1, 12321, Note_on_c, 0, 59, 100
1, 12359, Note_off_c, 0, 59, 100
1, 12359, Note_on_c, 0, 62, 100
1, 12397, Note_off_c, 0, 62, 100
1, 12397, Note_on_c, 0, 68, 100
1, 12435, Note_off_c, 0, 68, 100
1, 12435, Note_on_c, 0, 67, 100
1, 12473, Note_off_c, 0, 67, 100
1, 12473, Note_on_c, 0, 63, 100
1, 12521, Note_off_c, 0, 63, 100
1, 12521, Note_on_c, 0, 62, 100
1, 12617, Note_off_c, 0, 62, 100
1, 12617, Note_on_c, 0, 65, 100
1, 12665, Note_off_c, 0, 65, 100
1, 12665, Note_on_c, 0, 64, 100
1, 12713, Note_off_c, 0, 64, 100
1, 12713, Note_on_c, 0, 63, 100
1, 12761, Note_off_c, 0, 63, 100
1, 12761, Note_on_c, 0, 65, 100
1, 12809, Note_off_c, 0, 65, 100
1, 12809, Note_on_c, 0, 62, 100
1, 12857, Note_off_c, 0, 62, 100
1, 12857, Note_on_c, 0, 60, 100
1, 12905, Note_off_c, 0, 60, 100
1, 12905, Note_on_c, 0, 58, 100
1, 12953, Note_off_c, 0, 58, 100
1, 12953, Note_on_c, 0, 55, 100
1, 13001, Note_off_c, 0, 55, 100
1, 13001, Note_on_c, 0, 57, 100
1, 13097, Note_off_c, 0, 57, 100
1, 13097, Note_on_c, 0, 60, 100
1, 13145, Note_off_c, 0, 60, 100
1, 13145, Note_on_c, 0, 53, 100
1, 13193, Note_off_c, 0, 53, 100
1, 13193, Note_on_c, 0, 52, 100
1, 13241, Note_off_c, 0, 52, 100
1, 13241, Note_on_c, 0, 51, 100
1, 13337, Note_off_c, 0, 51, 100
1, 13721, Note_on_c, 0, 74, 100
1, 13769, Note_off_c, 0, 74, 100
1, 13769, Note_on_c, 0, 73, 100
1, 13817, Note_off_c, 0, 73, 100
1, 13817, Note_on_c, 0, 72, 100
1, 13865, Note_off_c, 0, 72, 100
1, 13865, Note_on_c, 0, 70, 100
1, 13913, Note_off_c, 0, 70, 100
1, 13913, Note_on_c, 0, 69, 100
1, 13961, Note_off_c, 0, 69, 100
1, 13961, Note_on_c, 0, 67, 100
1, 14009, Note_off_c, 0, 67, 100
1, 14009, Note_on_c, 0, 66, 100
1, 14057, Note_off_c, 0, 66, 100
1, 14057, Note_on_c, 0, 63, 100
1, 14105, Note_off_c, 0, 63, 100
1, 14105, Note_on_c, 0, 62, 100
1, 14153, Note_off_c, 0, 62, 100
1, 14153, Note_on_c, 0, 60, 100
1, 14201, Note_off_c, 0, 60, 100
1, 14201, Note_on_c, 0, 57, 100
1, 14239, Note_off_c, 0, 57, 100
1, 14239, Note_on_c, 0, 55, 100
1, 14354, Note_off_c, 0, 55, 100
1, 14354, Note_on_c, 0, 53, 100
1, 14392, Note_off_c, 0, 53, 100
1, 14392, Note_on_c, 0, 57, 100
1, 14430, Note_off_c, 0, 57, 100
1, 14430, Note_on_c, 0, 60, 100
1, 14468, Note_off_c, 0, 60, 100
1, 14468, Note_on_c, 0, 62, 100
1, 14506, Note_off_c, 0, 62, 100
1, 14506, Note_on_c, 0, 63, 100
1, 14544, Note_off_c, 0, 63, 100
1, 14544, Note_on_c, 0, 62, 100
1, 14620, Note_off_c, 0, 62, 100
1, 14620, Note_on_c, 0, 60, 100
1, 14658, Note_off_c, 0, 60, 100
1, 14658, Note_on_c, 0, 59, 100
1, 14696, Note_off_c, 0, 59, 100
1, 14696, Note_on_c, 0, 57, 100
1, 14734, Note_off_c, 0, 57, 100
1, 14734, Note_on_c, 0, 58, 100
1, 14772, Note_off_c, 0, 58, 100
1, 14772, Note_on_c, 0, 62, 100
1, 14820, Note_off_c, 0, 62, 100
1, 14820, Note_on_c, 0, 64, 100
1, 14868, Note_off_c, 0, 64, 100
1, 14868, Note_on_c, 0, 66, 100
1, 14916, Note_off_c, 0, 66, 100
1, 14916, Note_on_c, 0, 69, 100
1, 14964, Note_off_c, 0, 69, 100
1, 14964, Note_on_c, 0, 66, 100
1, 15028, Note_off_c, 0, 66, 100
1, 15028, Note_on_c, 0, 67, 100
1, 15092, Note_off_c, 0, 67, 100
1, 15092, Note_on_c, 0, 69, 100
1, 15156, Note_off_c, 0, 69, 100
1, 15156, Note_on_c, 0, 70, 100
1, 15194, Note_off_c, 0, 70, 100
1, 15194, Note_on_c, 0, 72, 100
1, 15232, Note_off_c, 0, 72, 100
1, 15232, Note_on_c, 0, 74, 100
1, 15270, Note_off_c, 0, 74, 100
1, 15270, Note_on_c, 0, 73, 100
1, 15308, Note_off_c, 0, 73, 100
1, 15308, Note_on_c, 0, 72, 100
1, 15346, Note_off_c, 0, 72, 100
1, 15346, Note_on_c, 0, 69, 100
1, 15410, Note_off_c, 0, 69, 100
1, 15410, Note_on_c, 0, 64, 100
1, 15474, Note_off_c, 0, 64, 100
1, 15474, Note_on_c, 0, 60, 100
1, 15538, Note_off_c, 0, 60, 100
1, 15538, Note_on_c, 0, 62, 100
1, 15586, Note_off_c, 0, 62, 100
1, 15586, Note_on_c, 0, 58, 100
1, 15634, Note_off_c, 0, 58, 100
1, 15634, Note_on_c, 0, 57, 100
1, 15682, Note_off_c, 0, 57, 100
1, 15682, Note_on_c, 0, 56, 100
1, 15768, Note_off_c, 0, 56, 100
1, 15768, Note_on_c, 0, 57, 100
1, 15806, Note_off_c, 0, 57, 100
1, 15806, Note_on_c, 0, 58, 100
1, 15844, Note_off_c, 0, 58, 100
1, 15844, Note_on_c, 0, 60, 100
1, 15882, Note_off_c, 0, 60, 100
1, 15882, Note_on_c, 0, 61, 100
1, 15958, Note_off_c, 0, 61, 100
1, 15958, Note_on_c, 0, 62, 100
1, 15996, Note_off_c, 0, 62, 100
1, 15996, Note_on_c, 0, 65, 100
1, 16034, Note_off_c, 0, 65, 100
1, 16034, Note_on_c, 0, 62, 100
1, 16072, Note_off_c, 0, 62, 100
1, 16072, Note_on_c, 0, 64, 100
1, 16110, Note_off_c, 0, 64, 100
1, 16110, Note_on_c, 0, 62, 100
1, 16174, Note_off_c, 0, 62, 100
1, 16174, Note_on_c, 0, 60, 100
1, 16238, Note_off_c, 0, 60, 100
1, 16238, Note_on_c, 0, 59, 100
1, 16302, Note_off_c, 0, 59, 100
1, 16302, Note_on_c, 0, 58, 100
1, 16378, Note_off_c, 0, 58, 100
1, 16378, Note_on_c, 0, 57, 100
1, 16416, Note_off_c, 0, 57, 100
1, 16416, Note_on_c, 0, 54, 100
1, 16454, Note_off_c, 0, 54, 100
1, 16454, Note_on_c, 0, 55, 100
1, 16530, Note_off_c, 0, 55, 100
1, 16530, Note_on_c, 0, 57, 100
1, 16568, Note_off_c, 0, 57, 100
1, 16568, Note_on_c, 0, 58, 100
1, 16606, Note_off_c, 0, 58, 100
1, 16606, Note_on_c, 0, 60, 100
1, 16644, Note_off_c, 0, 60, 100
1, 16644, Note_on_c, 0, 62, 100
1, 16682, Note_off_c, 0, 62, 100
1, 16682, Note_on_c, 0, 65, 100
1, 16778, Note_off_c, 0, 65, 100
1, 16778, Note_on_c, 0, 64, 100
1, 16874, Note_off_c, 0, 64, 100
1, 17066, Note_on_c, 0, 69, 100
1, 17114, Note_off_c, 0, 69, 100
1, 17114, Note_on_c, 0, 70, 100
1, 17210, Note_off_c, 0, 70, 100
1, 17210, Note_on_c, 0, 69, 100
1, 17258, Note_off_c, 0, 69, 100
1, 17258, Note_on_c, 0, 68, 100
1, 17306, Note_off_c, 0, 68, 100
1, 17306, Note_on_c, 0, 67, 100
1, 17354, Note_off_c, 0, 67, 100
1, 17354, Note_on_c, 0, 65, 100
1, 17402, Note_off_c, 0, 65, 100
1, 17402, Note_on_c, 0, 63, 100
1, 17450, Note_off_c, 0, 63, 100
1, 17450, Note_on_c, 0, 62, 100
1, 17498, Note_off_c, 0, 62, 100
1, 17498, Note_on_c, 0, 60, 100
1, 17546, Note_off_c, 0, 60, 100
1, 17546, Note_on_c, 0, 58, 100
1, 17594, Note_off_c, 0, 58, 100
1, 17594, Note_on_c, 0, 56, 100
1, 17642, Note_off_c, 0, 56, 100
1, 17642, Note_on_c, 0, 55, 100
1, 17690, Note_off_c, 0, 55, 100
1, 17690, Note_on_c, 0, 50, 100
1, 17738, Note_off_c, 0, 50, 100
1, 17738, Note_on_c, 0, 53, 100
1, 17786, Note_off_c, 0, 53, 100
1, 17786, Note_on_c, 0, 50, 100
1, 17834, Note_off_c, 0, 50, 100
1, 17834, Note_on_c, 0, 53, 100
1, 17882, Note_off_c, 0, 53, 100
1, 17882, Note_on_c, 0, 55, 100
1, 17930, Note_off_c, 0, 55, 100
1, 17930, Note_on_c, 0, 56, 100
1, 17978, Note_off_c, 0, 56, 100
1, 17978, Note_on_c, 0, 58, 100
1, 18026, Note_off_c, 0, 58, 100
1, 18026, Note_on_c, 0, 59, 100
1, 18074, Note_off_c, 0, 59, 100
1, 18074, Note_on_c, 0, 61, 100
1, 18122, Note_off_c, 0, 61, 100
1, 18122, Note_on_c, 0, 62, 100
1, 18170, Note_off_c, 0, 62, 100
1, 18170, Note_on_c, 0, 64, 100
1, 18218, Note_off_c, 0, 64, 100
1, 18218, Note_on_c, 0, 65, 100
1, 18266, Note_off_c, 0, 65, 100
1, 18266, Note_on_c, 0, 67, 100
1, 18314, Note_off_c, 0, 67, 100
1, 18314, Note_on_c, 0, 68, 100
1, 18362, Note_off_c, 0, 68, 100
1, 18362, Note_on_c, 0, 70, 100
1, 18410, Note_off_c, 0, 70, 100
1, 18410, Note_on_c, 0, 72, 100
1, 18458, Note_off_c, 0, 72, 100
1, 18458, Note_on_c, 0, 72, 100
1, 18506, Note_off_c, 0, 72, 100
1, 18506, Note_on_c, 0, 70, 100
1, 18554, Note_off_c, 0, 70, 100
1, 18554, Note_on_c, 0, 68, 100
1, 18602, Note_off_c, 0, 68, 100
1, 18602, Note_on_c, 0, 67, 100
1, 18650, Note_off_c, 0, 67, 100
1, 18650, Note_on_c, 0, 65, 100
1, 18698, Note_off_c, 0, 65, 100
1, 18698, Note_on_c, 0, 63, 100
1, 18746, Note_off_c, 0, 63, 100
1, 18746, Note_on_c, 0, 60, 100
1, 18794, Note_off_c, 0, 60, 100
1, 18794, Note_on_c, 0, 61, 100
1, 18842, Note_off_c, 0, 61, 100
1, 18842, Note_on_c, 0, 65, 100
1, 18890, Note_off_c, 0, 65, 100
1, 18890, Note_on_c, 0, 60, 100
1, 18938, Note_off_c, 0, 60, 100
1, 18938, Note_on_c, 0, 59, 100
1, 18986, Note_off_c, 0, 59, 100
1, 18986, Note_on_c, 0, 58, 100
1, 19034, Note_off_c, 0, 58, 100
1, 19034, Note_on_c, 0, 55, 100
1, 19082, Note_off_c, 0, 55, 100
1, 19082, Note_on_c, 0, 53, 100
1, 19130, Note_off_c, 0, 53, 100
1, 19130, Note_on_c, 0, 48, 100
1, 19178, Note_off_c, 0, 48, 100
1, 19178, Note_on_c, 0, 47, 100
1, 19322, Note_off_c, 0, 47, 100
1, 19322, Note_on_c, 0, 61, 100
1, 19418, Note_off_c, 0, 61, 100
1, 19706, Note_on_c, 0, 52, 100
1, 19802, Note_off_c, 0, 52, 100
1, 19802, Note_on_c, 0, 57, 100
1, 19850, Note_off_c, 0, 57, 100
1, 19850, Note_on_c, 0, 61, 100
1, 19898, Note_off_c, 0, 61, 100
1, 19898, Note_on_c, 0, 59, 100
1, 19946, Note_off_c, 0, 59, 100
1, 19946, Note_on_c, 0, 60, 100
1, 20090, Note_off_c, 0, 60, 100
1, 20090, Note_on_c, 0, 56, 100
1, 20202, Note_off_c, 0, 56, 100
1, 20202, Note_on_c, 0, 53, 100
1, 20266, Note_off_c, 0, 53, 100
1, 20266, Note_on_c, 0, 49, 100
1, 20378, Note_off_c, 0, 49, 100
1, 20378, Note_on_c, 0, 49, 100
1, 20426, Note_off_c, 0, 49, 100
1, 20426, Note_on_c, 0, 53, 100
1, 20474, Note_off_c, 0, 53, 100
1, 20474, Note_on_c, 0, 56, 100
1, 20522, Note_off_c, 0, 56, 100
1, 20522, Note_on_c, 0, 60, 100
1, 20570, Note_off_c, 0, 60, 100
1, 20570, Note_on_c, 0, 60, 100
1, 20618, Note_off_c, 0, 60, 100
1, 20618, Note_on_c, 0, 58, 100
1, 20810, Note_off_c, 0, 58, 100
1, 20810, Note_on_c, 0, 57, 100
1, 20858, Note_off_c, 0, 57, 100
1, 20858, Note_on_c, 0, 61, 100
1, 20906, Note_off_c, 0, 61, 100
1, 20906, Note_on_c, 0, 60, 100
1, 20970, Note_off_c, 0, 60, 100
1, 20970, Note_on_c, 0, 59, 100
1, 21034, Note_off_c, 0, 59, 100
1, 21034, Note_on_c, 0, 57, 100
1, 21136, Note_off_c, 0, 57, 100
1, 21136, Note_on_c, 0, 56, 100
1, 21174, Note_off_c, 0, 56, 100
1, 21174, Note_on_c, 0, 60, 100
1, 21212, Note_off_c, 0, 60, 100
1, 21212, Note_on_c, 0, 62, 100
1, 21250, Note_off_c, 0, 62, 100
1, 21250, Note_on_c, 0, 66, 100
1, 21288, Note_off_c, 0, 66, 100
1, 21288, Note_on_c, 0, 68, 100
1, 21352, Note_off_c, 0, 68, 100
1, 21352, Note_on_c, 0, 65, 100
1, 21416, Note_off_c, 0, 65, 100
1, 21416, Note_on_c, 0, 63, 100
1, 21480, Note_off_c, 0, 63, 100
1, 21480, Note_on_c, 0, 61, 100
1, 21518, Note_off_c, 0, 61, 100
1, 21518, Note_on_c, 0, 62, 100
1, 21556, Note_off_c, 0, 62, 100
1, 21556, Note_on_c, 0, 65, 100
1, 21594, Note_off_c, 0, 65, 100
1, 21594, Note_on_c, 0, 71, 100
1, 21670, Note_off_c, 0, 71, 100
1, 21670, Note_on_c, 0, 70, 100
1, 21702, Note_off_c, 0, 70, 100
1, 21702, Note_on_c, 0, 68, 100
1, 21766, Note_off_c, 0, 68, 100
1, 21766, Note_on_c, 0, 67, 100
1, 21798, Note_off_c, 0, 67, 100
1, 21798, Note_on_c, 0, 65, 100
1, 21862, Note_off_c, 0, 65, 100
1, 21862, Note_on_c, 0, 66, 100
1, 21900, Note_off_c, 0, 66, 100
1, 21900, Note_on_c, 0, 58, 100
1, 21938, Note_off_c, 0, 58, 100
1, 21938, Note_on_c, 0, 61, 100
1, 21976, Note_off_c, 0, 61, 100
1, 21976, Note_on_c, 0, 63, 100
1, 22014, Note_off_c, 0, 63, 100
1, 22014, Note_on_c, 0, 65, 100
1, 22052, Note_off_c, 0, 65, 100
1, 22052, Note_on_c, 0, 68, 100
1, 22116, Note_off_c, 0, 68, 100
1, 22116, Note_on_c, 0, 65, 100
1, 22180, Note_off_c, 0, 65, 100
1, 22180, Note_on_c, 0, 64, 100
1, 22244, Note_off_c, 0, 64, 100
1, 22244, Note_on_c, 0, 63, 100
1, 22292, Note_off_c, 0, 63, 100
1, 22292, Note_on_c, 0, 61, 100
1, 22340, Note_off_c, 0, 61, 100
1, 22340, Note_on_c, 0, 58, 100
1, 22388, Note_off_c, 0, 58, 100
1, 22388, Note_on_c, 0, 59, 100
1, 22436, Note_off_c, 0, 59, 100
1, 22436, Note_on_c, 0, 60, 100
1, 22484, Note_off_c, 0, 60, 100
1, 22484, Note_on_c, 0, 63, 100
1, 22532, Note_off_c, 0, 63, 100
1, 22532, Note_on_c, 0, 66, 100
1, 22580, Note_off_c, 0, 66, 100
1, 22580, Note_on_c, 0, 68, 100
1, 22628, Note_off_c, 0, 68, 100
1, 22628, Note_on_c, 0, 71, 100
1, 22676, Note_off_c, 0, 71, 100
1, 22676, Note_on_c, 0, 69, 100
1, 22724, Note_off_c, 0, 69, 100
1, 22724, Note_on_c, 0, 68, 100
1, 22772, Note_off_c, 0, 68, 100
1, 22772, Note_on_c, 0, 66, 100
1, 22820, Note_off_c, 0, 66, 100
1, 22820, Note_on_c, 0, 64, 100
1, 22868, Note_off_c, 0, 64, 100
1, 22868, Note_on_c, 0, 60, 100
1, 22916, Note_off_c, 0, 60, 100
1, 22916, Note_on_c, 0, 59, 100
1, 22964, Note_off_c, 0, 59, 100
1, 22964, Note_on_c, 0, 57, 100
1, 23012, Note_off_c, 0, 57, 100
1, 23012, Note_on_c, 0, 55, 100
1, 23060, Note_off_c, 0, 55, 100
1, 23060, Note_on_c, 0, 56, 100
1, 23396, Note_off_c, 0, 56, 100
1, 23396, Note_on_c, 0, 61, 100
1, 23444, Note_off_c, 0, 61, 100
1, 23444, Note_on_c, 0, 63, 100
1, 23492, Note_off_c, 0, 63, 100
1, 23492, Note_on_c, 0, 64, 100
1, 23540, Note_off_c, 0, 64, 100
1, 23540, Note_on_c, 0, 66, 100
1, 23588, Note_off_c, 0, 66, 100
1, 23588, Note_on_c, 0, 68, 100
1, 23636, Note_off_c, 0, 68, 100
1, 23636, Note_on_c, 0, 71, 100
1, 23684, Note_off_c, 0, 71, 100
1, 23684, Note_on_c, 0, 70, 100
1, 23732, Note_off_c, 0, 70, 100
1, 23732, Note_on_c, 0, 66, 100
1, 23780, Note_off_c, 0, 66, 100
1, 23780, Note_on_c, 0, 68, 100
1, 23828, Note_off_c, 0, 68, 100
1, 23828, Note_on_c, 0, 64, 100
1, 23876, Note_off_c, 0, 64, 100
1, 23876, Note_on_c, 0, 63, 100
1, 23924, Note_off_c, 0, 63, 100
1, 23924, Note_on_c, 0, 61, 100
1, 23972, Note_off_c, 0, 61, 100
1, 23972, Note_on_c, 0, 66, 100
1, 24020, Note_off_c, 0, 66, 100
1, 24020, Note_on_c, 0, 65, 100
1, 24068, Note_off_c, 0, 65, 100
1, 24068, Note_on_c, 0, 64, 100
1, 24116, Note_off_c, 0, 64, 100
1, 24116, Note_on_c, 0, 63, 100
1, 24164, Note_off_c, 0, 63, 100
1, 24164, Note_on_c, 0, 61, 100
1, 24212, Note_off_c, 0, 61, 100
1, 24212, Note_on_c, 0, 59, 100
1, 24260, Note_off_c, 0, 59, 100
1, 24260, Note_on_c, 0, 58, 100
1, 24308, Note_off_c, 0, 58, 100
1, 24308, Note_on_c, 0, 56, 100
1, 24356, Note_off_c, 0, 56, 100
1, 24356, Note_on_c, 0, 54, 100
1, 24404, Note_off_c, 0, 54, 100
1, 24404, Note_on_c, 0, 55, 100
1, 24452, Note_off_c, 0, 55, 100
1, 24452, Note_on_c, 0, 59, 100
1, 24500, Note_off_c, 0, 59, 100
1, 24500, Note_on_c, 0, 64, 100
1, 24548, Note_off_c, 0, 64, 100
1, 24548, Note_on_c, 0, 63, 100
1, 24586, Note_off_c, 0, 63, 100
1, 24586, Note_on_c, 0, 60, 100
1, 24662, Note_off_c, 0, 60, 100
1, 24662, Note_on_c, 0, 56, 100
1, 24700, Note_off_c, 0, 56, 100
1, 24700, Note_on_c, 0, 55, 100
1, 24834, Note_off_c, 0, 55, 100
1, 24834, Note_on_c, 0, 63, 100
1, 24882, Note_off_c, 0, 63, 100
1, 24882, Note_on_c, 0, 67, 100
1, 24930, Note_off_c, 0, 67, 100
1, 24930, Note_on_c, 0, 68, 100
1, 24978, Note_off_c, 0, 68, 100
1, 24978, Note_on_c, 0, 67, 100
1, 25026, Note_off_c, 0, 67, 100
1, 25026, Note_on_c, 0, 65, 100
1, 25074, Note_off_c, 0, 65, 100
1, 25074, Note_on_c, 0, 63, 100
1, 25122, Note_off_c, 0, 63, 100
1, 25122, Note_on_c, 0, 60, 100
1, 25170, Note_off_c, 0, 60, 100
1, 25170, Note_on_c, 0, 58, 100
1, 25218, Note_off_c, 0, 58, 100
1, 25218, Note_on_c, 0, 56, 100
1, 25314, Note_off_c, 0, 56, 100
1, 25314, Note_on_c, 0, 49, 100
1, 25352, Note_off_c, 0, 49, 100
1, 25352, Note_on_c, 0, 50, 100
1, 25390, Note_off_c, 0, 50, 100
1, 25390, Note_on_c, 0, 54, 100
1, 25428, Note_off_c, 0, 54, 100
1, 25428, Note_on_c, 0, 57, 100
1, 25466, Note_off_c, 0, 57, 100
1, 25466, Note_on_c, 0, 61, 100
1, 25504, Note_off_c, 0, 61, 100
1, 25504, Note_on_c, 0, 62, 100
1, 25552, Note_off_c, 0, 62, 100
1, 25552, Note_on_c, 0, 59, 100
1, 25600, Note_off_c, 0, 59, 100
1, 25600, Note_on_c, 0, 61, 100
1, 25696, Note_off_c, 0, 61, 100
1, 25696, Note_on_c, 0, 64, 100
1, 25744, Note_off_c, 0, 64, 100
1, 25744, Note_on_c, 0, 65, 100
1, 25792, Note_off_c, 0, 65, 100
1, 25792, Note_on_c, 0, 66, 100
1, 25840, Note_off_c, 0, 66, 100
1, 25840, Note_on_c, 0, 69, 100
1, 25888, Note_off_c, 0, 69, 100
1, 25888, Note_on_c, 0, 66, 100
1, 25984, Note_off_c, 0, 66, 100
1, 26224, Note_on_c, 0, 72, 100
1, 26320, Note_off_c, 0, 72, 100
1, 26512, Note_on_c, 0, 75, 100
1, 26608, Note_off_c, 0, 75, 100
1, 26608, Note_on_c, 0, 72, 100
1, 26752, Note_off_c, 0, 72, 100
1, 26752, Note_on_c, 0, 68, 100
1, 26848, Note_off_c, 0, 68, 100
1, 26848, Note_on_c, 0, 76, 100
1, 27040, Note_off_c, 0, 76, 100
1, 27040, Note_on_c, 0, 73, 100
1, 27088, Note_off_c, 0, 73, 100
1, 27088, Note_on_c, 0, 71, 100
1, 27136, Note_off_c, 0, 71, 100
1, 27136, Note_on_c, 0, 68, 100
1, 27184, Note_off_c, 0, 68, 100
1, 27184, Note_on_c, 0, 66, 100
1, 27232, Note_off_c, 0, 66, 100
1, 27232, Note_on_c, 0, 64, 100
1, 27280, Note_off_c, 0, 64, 100
1, 27280, Note_on_c, 0, 63, 100
1, 27328, Note_off_c, 0, 63, 100
1, 27328, Note_on_c, 0, 62, 100
1, 27376, Note_off_c, 0, 62, 100
1, 27376, Note_on_c, 0, 59, 100
1, 27424, Note_off_c, 0, 59, 100
1, 27424, Note_on_c, 0, 61, 100
1, 27472, Note_off_c, 0, 61, 100
1, 27472, Note_on_c, 0, 58, 100
1, 27520, Note_off_c, 0, 58, 100
1, 27520, Note_on_c, 0, 59, 100
1, 27568, Note_off_c, 0, 59, 100
1, 27568, Note_on_c, 0, 61, 100
1, 27616, Note_off_c, 0, 61, 100
1, 27616, Note_on_c, 0, 58, 100
1, 27654, Note_off_c, 0, 58, 100
1, 27654, Note_on_c, 0, 66, 100
1, 27692, Note_off_c, 0, 66, 100
1, 27692, Note_on_c, 0, 65, 100
1, 27730, Note_off_c, 0, 65, 100
1, 27730, Note_on_c, 0, 63, 100
1, 27768, Note_off_c, 0, 63, 100
1, 27768, Note_on_c, 0, 61, 100
1, 27854, Note_off_c, 0, 61, 100
1, 27854, Note_on_c, 0, 57, 100
1, 27902, Note_off_c, 0, 57, 100
1, 27902, Note_on_c, 0, 60, 100
1, 27950, Note_off_c, 0, 60, 100
1, 27950, Note_on_c, 0, 57, 100
1, 27998, Note_off_c, 0, 57, 100
1, 27998, Note_on_c, 0, 58, 100
1, 28036, Note_off_c, 0, 58, 100
1, 28036, Note_on_c, 0, 60, 100
1, 28112, Note_off_c, 0, 60, 100
1, 28112, Note_on_c, 0, 63, 100
1, 28150, Note_off_c, 0, 63, 100
1, 28150, Note_on_c, 0, 65, 100
1, 28188, Note_off_c, 0, 65, 100
1, 28188, Note_on_c, 0, 68, 100
1, 28236, Note_off_c, 0, 68, 100
1, 28236, Note_on_c, 0, 72, 100
1, 28284, Note_off_c, 0, 72, 100
1, 28284, Note_on_c, 0, 73, 100
1, 28380, Note_off_c, 0, 73, 100
1, 28380, Note_on_c, 0, 71, 100
1, 28418, Note_off_c, 0, 71, 100
1, 28418, Note_on_c, 0, 69, 100
1, 28456, Note_off_c, 0, 69, 100
1, 28456, Note_on_c, 0, 68, 100
1, 28494, Note_off_c, 0, 68, 100
1, 28494, Note_on_c, 0, 66, 100
1, 28532, Note_off_c, 0, 66, 100
1, 28532, Note_on_c, 0, 64, 100
1, 28570, Note_off_c, 0, 64, 100
1, 28570, Note_on_c, 0, 61, 100
1, 28634, Note_off_c, 0, 61, 100
1, 28634, Note_on_c, 0, 62, 100
1, 28698, Note_off_c, 0, 62, 100
1, 28698, Note_on_c, 0, 66, 100
1, 28762, Note_off_c, 0, 66, 100
1, 28762, Note_on_c, 0, 61, 100
1, 28810, Note_off_c, 0, 61, 100
1, 28810, Note_on_c, 0, 60, 100
1, 28858, Note_off_c, 0, 60, 100
1, 28858, Note_on_c, 0, 59, 100
1, 28906, Note_off_c, 0, 59, 100
1, 28906, Note_on_c, 0, 57, 100
1, 29002, Note_off_c, 0, 57, 100
1, 29002, Note_on_c, 0, 60, 100
1, 29050, Note_off_c, 0, 60, 100
1, 29050, Note_on_c, 0, 66, 100
1, 29098, Note_off_c, 0, 66, 100
1, 29098, Note_on_c, 0, 64, 100
1, 29146, Note_off_c, 0, 64, 100
1, 29146, Note_on_c, 0, 64, 100
1, 29242, Note_off_c, 0, 64, 100
1, 29242, Note_on_c, 0, 61, 100
1, 29338, Note_off_c, 0, 61, 100
1, 29338, Note_on_c, 0, 59, 100
1, 29386, Note_off_c, 0, 59, 100
1, 29386, Note_on_c, 0, 59, 100
1, 29482, Note_off_c, 0, 59, 100
1, 29482, Note_on_c, 0, 57, 100
1, 29530, Note_off_c, 0, 57, 100
1, 29530, Note_on_c, 0, 59, 100
1, 29578, Note_off_c, 0, 59, 100
1, 29578, Note_on_c, 0, 59, 100
1, 29626, Note_off_c, 0, 59, 100
1, 29626, Note_on_c, 0, 57, 100
1, 29674, Note_off_c, 0, 57, 100
1, 29674, Note_on_c, 0, 59, 100
1, 29770, Note_off_c, 0, 59, 100
1, 29770, Note_on_c, 0, 59, 100
1, 29866, Note_off_c, 0, 59, 100
1, 29866, Note_on_c, 0, 66, 100
1, 29914, Note_off_c, 0, 66, 100
1, 29914, Note_on_c, 0, 64, 100
1, 29962, Note_off_c, 0, 64, 100
1, 29962, Note_on_c, 0, 61, 100
1, 30106, Note_off_c, 0, 61, 100
1, 30106, Note_on_c, 0, 60, 100
1, 30154, Note_off_c, 0, 60, 100
1, 30154, Note_on_c, 0, 60, 100
1, 30250, Note_off_c, 0, 60, 100
1, 30250, Note_on_c, 0, 57, 100
1, 30298, Note_off_c, 0, 57, 100
1, 30298, Note_on_c, 0, 59, 100
1, 30346, Note_off_c, 0, 59, 100
1, 30346, Note_on_c, 0, 59, 100
1, 30394, Note_off_c, 0, 59, 100
1, 30394, Note_on_c, 0, 57, 100
1, 30442, Note_off_c, 0, 57, 100
1, 30442, Note_on_c, 0, 59, 100
1, 30554, Note_off_c, 0, 59, 100
1, 30554, Note_on_c, 0, 59, 100
1, 30618, Note_off_c, 0, 59, 100
1, 30618, Note_on_c, 0, 56, 100
1, 30682, Note_off_c, 0, 56, 100
1, 30682, Note_on_c, 0, 55, 100
1, 30778, Note_off_c, 0, 55, 100
1, 31114, Note_on_c, 0, 69, 100
1, 31162, Note_off_c, 0, 69, 100
1, 31162, Note_on_c, 0, 67, 100
1, 31210, Note_off_c, 0, 67, 100
1, 31210, Note_on_c, 0, 66, 100
1, 31258, Note_off_c, 0, 66, 100
1, 31258, Note_on_c, 0, 64, 100
1, 31306, Note_off_c, 0, 64, 100
1, 31306, Note_on_c, 0, 62, 100
1, 31354, Note_off_c, 0, 62, 100
1, 31354, Note_on_c, 0, 59, 100
1, 31402, Note_off_c, 0, 59, 100
1, 31402, Note_on_c, 0, 57, 100
1, 31450, Note_off_c, 0, 57, 100
1, 31450, Note_on_c, 0, 58, 100
1, 31498, Note_off_c, 0, 58, 100
1, 31498, Note_on_c, 0, 61, 100
1, 31546, Note_off_c, 0, 61, 100
1, 31546, Note_on_c, 0, 64, 100
1, 31594, Note_off_c, 0, 64, 100
1, 31594, Note_on_c, 0, 67, 100
1, 31642, Note_off_c, 0, 67, 100
1, 31642, Note_on_c, 0, 69, 100
1, 31690, Note_off_c, 0, 69, 100
1, 31690, Note_on_c, 0, 66, 100
1, 31738, Note_off_c, 0, 66, 100
1, 31738, Note_on_c, 0, 64, 100
1, 31786, Note_off_c, 0, 64, 100
1, 31786, Note_on_c, 0, 61, 100
1, 31834, Note_off_c, 0, 61, 100
1, 31834, Note_on_c, 0, 59, 100
1, 31898, Note_off_c, 0, 59, 100
1, 31898, Note_on_c, 0, 56, 100
1, 31962, Note_off_c, 0, 56, 100
1, 31962, Note_on_c, 0, 57, 100
1, 32026, Note_off_c, 0, 57, 100
1, 32026, Note_on_c, 0, 58, 100
1, 32074, Note_off_c, 0, 58, 100
1, 32074, Note_on_c, 0, 55, 100
1, 32122, Note_off_c, 0, 55, 100
1, 32122, Note_on_c, 0, 54, 100
1, 32170, Note_off_c, 0, 54, 100
1, 32170, Note_on_c, 0, 52, 100
1, 32218, Note_off_c, 0, 52, 100
1, 32218, Note_on_c, 0, 49, 100
1, 32314, Note_off_c, 0, 49, 100
1, 32314, Note_on_c, 0, 51, 100
1, 32362, Note_off_c, 0, 51, 100
1, 32362, Note_on_c, 0, 53, 100
1, 32410, Note_off_c, 0, 53, 100
1, 32410, Note_on_c, 0, 56, 100
1, 32458, Note_off_c, 0, 56, 100
1, 32458, Note_on_c, 0, 53, 100
1, 32506, Note_off_c, 0, 53, 100
1, 32506, Note_on_c, 0, 54, 100
1, 32554, Note_off_c, 0, 54, 100
1, 32554, Note_on_c, 0, 56, 100
1, 32602, Note_off_c, 0, 56, 100
1, 32602, Note_on_c, 0, 57, 100
1, 32650, Note_off_c, 0, 57, 100
1, 32650, Note_on_c, 0, 59, 100
1, 32698, Note_off_c, 0, 59, 100
1, 32698, Note_on_c, 0, 61, 100
1, 32746, Note_off_c, 0, 61, 100
1, 32746, Note_on_c, 0, 59, 100
1, 32794, Note_off_c, 0, 59, 100
1, 32794, Note_on_c, 0, 64, 100
1, 32842, Note_off_c, 0, 64, 100
1, 32842, Note_on_c, 0, 61, 100
1, 32890, Note_off_c, 0, 61, 100
1, 32890, Note_on_c, 0, 63, 100
1, 32938, Note_off_c, 0, 63, 100
1, 32938, Note_on_c, 0, 61, 100
1, 32986, Note_off_c, 0, 61, 100
1, 32986, Note_on_c, 0, 55, 100
1, 33082, Note_off_c, 0, 55, 100
1, 33082, Note_on_c, 0, 62, 100
1, 33130, Note_off_c, 0, 62, 100
1, 33130, Note_on_c, 0, 65, 100
1, 33178, Note_off_c, 0, 65, 100
1, 33178, Note_on_c, 0, 64, 100
1, 33226, Note_off_c, 0, 64, 100
1, 33226, Note_on_c, 0, 62, 100
1, 33274, Note_off_c, 0, 62, 100
1, 33274, Note_on_c, 0, 60, 100
1, 33322, Note_off_c, 0, 60, 100
1, 33322, Note_on_c, 0, 59, 100
1, 33370, Note_off_c, 0, 59, 100
1, 33370, Note_on_c, 0, 58, 100
1, 33418, Note_off_c, 0, 58, 100
1, 33418, Note_on_c, 0, 54, 100
1, 33466, Note_off_c, 0, 54, 100
1, 33466, Note_on_c, 0, 57, 100
1, 33514, Note_off_c, 0, 57, 100
1, 33514, Note_on_c, 0, 54, 100
1, 33562, Note_off_c, 0, 54, 100
1, 33562, Note_on_c, 0, 55, 100
1, 33610, Note_off_c, 0, 55, 100
1, 33610, Note_on_c, 0, 52, 100
1, 33658, Note_off_c, 0, 52, 100
1, 33658, Note_on_c, 0, 53, 100
1, 33706, Note_off_c, 0, 53, 100
1, 33706, Note_on_c, 0, 62, 100
1, 33754, Note_off_c, 0, 62, 100
1, 33754, Note_on_c, 0, 61, 100
1, 33802, Note_off_c, 0, 61, 100
1, 33802, Note_on_c, 0, 59, 100
1, 33850, Note_off_c, 0, 59, 100
1, 33850, Note_on_c, 0, 57, 100
1, 33898, Note_off_c, 0, 57, 100
1, 33898, Note_on_c, 0, 52, 100
1, 33946, Note_off_c, 0, 52, 100
1, 33946, Note_on_c, 0, 56, 100
1, 33994, Note_off_c, 0, 56, 100
1, 33994, Note_on_c, 0, 53, 100
1, 34042, Note_off_c, 0, 53, 100
1, 34042, Note_on_c, 0, 54, 100
1, 34090, Note_off_c, 0, 54, 100
1, 34090, Note_on_c, 0, 56, 100
1, 34138, Note_off_c, 0, 56, 100
1, 34138, Note_on_c, 0, 57, 100
1, 34186, Note_off_c, 0, 57, 100
1, 34186, Note_on_c, 0, 59, 100
1, 34234, Note_off_c, 0, 59, 100
1, 34234, Note_on_c, 0, 61, 100
1, 34282, Note_off_c, 0, 61, 100
1, 34282, Note_on_c, 0, 64, 100
1, 34330, Note_off_c, 0, 64, 100
1, 34330, Note_on_c, 0, 67, 100
1, 34378, Note_off_c, 0, 67, 100
1, 34378, Note_on_c, 0, 68, 100
1, 34426, Note_off_c, 0, 68, 100
1, 34426, Note_on_c, 0, 66, 100
1, 34474, Note_off_c, 0, 66, 100
1, 34474, Note_on_c, 0, 64, 100
1, 34522, Note_off_c, 0, 64, 100
1, 34522, Note_on_c, 0, 68, 100
1, 34570, Note_off_c, 0, 68, 100
1, 34570, Note_on_c, 0, 69, 100
1, 34618, Note_off_c, 0, 69, 100
1, 34618, Note_on_c, 0, 67, 100
1, 34666, Note_off_c, 0, 67, 100
1, 34666, Note_on_c, 0, 65, 100
1, 34714, Note_off_c, 0, 65, 100
1, 34714, Note_on_c, 0, 64, 100
1, 34762, Note_off_c, 0, 64, 100
1, 34762, Note_on_c, 0, 62, 100
1, 34810, Note_off_c, 0, 62, 100
1, 34810, Note_on_c, 0, 60, 100
1, 34858, Note_off_c, 0, 60, 100
1, 34858, Note_on_c, 0, 57, 100
1, 34906, Note_off_c, 0, 57, 100
1, 34906, Note_on_c, 0, 58, 100
1, 34954, Note_off_c, 0, 58, 100
1, 34954, Note_on_c, 0, 62, 100
1, 35098, Note_off_c, 0, 62, 100
1, 35098, Note_on_c, 0, 63, 100
1, 35146, Note_off_c, 0, 63, 100
1, 35146, Note_on_c, 0, 64, 100
1, 35194, Note_off_c, 0, 64, 100
1, 35194, Note_on_c, 0, 67, 100
1, 35242, Note_off_c, 0, 67, 100
1, 35242, Note_on_c, 0, 74, 100
1, 35290, Note_off_c, 0, 74, 100
1, 35290, Note_on_c, 0, 72, 100
1, 35338, Note_off_c, 0, 72, 100
1, 35338, Note_on_c, 0, 69, 100
1, 35386, Note_off_c, 0, 69, 100
1, 35386, Note_on_c, 0, 67, 100
1, 35434, Note_off_c, 0, 67, 100
1, 35434, Note_on_c, 0, 65, 100
1, 35482, Note_off_c, 0, 65, 100
1, 35482, Note_on_c, 0, 64, 100
1, 35520, Note_off_c, 0, 64, 100
1, 35520, Note_on_c, 0, 65, 100
1, 35558, Note_off_c, 0, 65, 100
1, 35558, Note_on_c, 0, 69, 100
1, 35596, Note_off_c, 0, 69, 100
1, 35596, Note_on_c, 0, 72, 100
1, 35672, Note_off_c, 0, 72, 100
1, 35672, Note_on_c, 0, 76, 100
1, 35710, Note_off_c, 0, 76, 100
1, 35710, Note_on_c, 0, 75, 100
1, 35748, Note_off_c, 0, 75, 100
1, 35748, Note_on_c, 0, 74, 100
1, 35786, Note_off_c, 0, 74, 100
1, 35786, Note_on_c, 0, 73, 100
1, 35824, Note_off_c, 0, 73, 100
1, 35824, Note_on_c, 0, 72, 100
1, 35910, Note_off_c, 0, 72, 100
1, 35910, Note_on_c, 0, 69, 100
1, 35958, Note_off_c, 0, 69, 100
1, 35958, Note_on_c, 0, 67, 100
1, 36006, Note_off_c, 0, 67, 100
1, 36006, Note_on_c, 0, 66, 100
1, 36030, Note_off_c, 0, 66, 100
1, 36030, Note_on_c, 0, 64, 100
1, 36054, Note_off_c, 0, 64, 100
1, 36054, Note_on_c, 0, 61, 100
1, 36102, Note_off_c, 0, 61, 100
1, 36102, Note_on_c, 0, 63, 100
1, 36150, Note_off_c, 0, 63, 100
1, 36150, Note_on_c, 0, 64, 100
1, 36198, Note_off_c, 0, 64, 100
1, 36198, Note_on_c, 0, 62, 100
1, 36294, Note_off_c, 0, 62, 100
1, 36294, Note_on_c, 0, 61, 100
1, 36342, Note_off_c, 0, 61, 100
1, 36342, Note_on_c, 0, 64, 100
1, 36390, Note_off_c, 0, 64, 100
1, 36390, Note_on_c, 0, 67, 100
1, 36438, Note_off_c, 0, 67, 100
1, 36438, Note_on_c, 0, 70, 100
1, 36486, Note_off_c, 0, 70, 100
1, 36486, Note_on_c, 0, 70, 100
1, 36534, Note_off_c, 0, 70, 100
1, 36534, Note_on_c, 0, 69, 100
1, 36582, Note_off_c, 0, 69, 100
1, 36582, Note_on_c, 0, 67, 100
1, 36630, Note_off_c, 0, 67, 100
1, 36630, Note_on_c, 0, 64, 100
1, 36678, Note_off_c, 0, 64, 100
1, 36678, Note_on_c, 0, 62, 100
1, 36726, Note_off_c, 0, 62, 100
1, 36726, Note_on_c, 0, 61, 100
1, 36774, Note_off_c, 0, 61, 100
1, 36774, Note_on_c, 0, 58, 100
1, 36822, Note_off_c, 0, 58, 100
1, 36822, Note_on_c, 0, 57, 100
1, 36918, Note_off_c, 0, 57, 100
1, 36918, Note_on_c, 0, 59, 100
1, 36966, Note_off_c, 0, 59, 100
1, 36966, Note_on_c, 0, 61, 100
1, 37014, Note_off_c, 0, 61, 100
1, 37014, Note_on_c, 0, 64, 100
1, 37062, Note_off_c, 0, 64, 100
1, 37062, Note_on_c, 0, 61, 100
1, 37110, Note_off_c, 0, 61, 100
1, 37110, Note_on_c, 0, 62, 100
1, 37158, Note_off_c, 0, 62, 100
1, 37158, Note_on_c, 0, 64, 100
1, 37206, Note_off_c, 0, 64, 100
1, 37206, Note_on_c, 0, 65, 100
1, 37254, Note_off_c, 0, 65, 100
1, 37254, Note_on_c, 0, 67, 100
1, 37302, Note_off_c, 0, 67, 100
1, 37302, Note_on_c, 0, 68, 100
1, 37350, Note_off_c, 0, 68, 100
1, 37350, Note_on_c, 0, 69, 100
1, 37398, Note_off_c, 0, 69, 100
1, 37398, Note_on_c, 0, 72, 100
1, 37494, Note_off_c, 0, 72, 100
1, 37494, Note_on_c, 0, 71, 100
1, 37542, Note_off_c, 0, 71, 100
1, 37542, Note_on_c, 0, 69, 100
1, 37590, Note_off_c, 0, 69, 100
1, 37590, Note_on_c, 0, 67, 100
1, 37638, Note_off_c, 0, 67, 100
1, 37638, Note_on_c, 0, 66, 100
1, 37686, Note_off_c, 0, 66, 100
1, 37686, Note_on_c, 0, 65, 100
1, 37878, Note_off_c, 0, 65, 100
1, 37878, Note_on_c, 0, 64, 100
1, 37926, Note_off_c, 0, 64, 100
1, 37926, Note_on_c, 0, 63, 100
1, 37974, Note_off_c, 0, 63, 100
1, 37974, Note_on_c, 0, 62, 100
1, 38022, Note_off_c, 0, 62, 100
1, 38022, Note_on_c, 0, 60, 100
1, 38070, Note_off_c, 0, 60, 100
1, 38070, Note_on_c, 0, 57, 100
1, 38118, Note_off_c, 0, 57, 100
1, 38118, Note_on_c, 0, 58, 100
1, 38166, Note_off_c, 0, 58, 100
1, 38166, Note_on_c, 0, 59, 100
1, 38214, Note_off_c, 0, 59, 100
1, 38214, Note_on_c, 0, 55, 100
1, 38262, Note_off_c, 0, 55, 100
1, 38262, Note_on_c, 0, 57, 100
1, 38310, Note_off_c, 0, 57, 100
1, 38310, Note_on_c, 0, 53, 100
1, 38358, Note_off_c, 0, 53, 100
1, 38358, Note_on_c, 0, 51, 100
1, 38473, Note_off_c, 0, 51, 100
1, 38473, Note_on_c, 0, 61, 100
1, 38511, Note_off_c, 0, 61, 100
1, 38511, Note_on_c, 0, 62, 100
1, 38607, Note_off_c, 0, 62, 100
1, 39029, Note_on_c, 0, 55, 100
1, 39077, Note_off_c, 0, 55, 100
1, 39077, Note_on_c, 0, 58, 100
1, 39125, Note_off_c, 0, 58, 100
1, 39125, Note_on_c, 0, 62, 100
1, 39163, Note_off_c, 0, 62, 100
1, 39163, Note_on_c, 0, 63, 100
1, 39201, Note_off_c, 0, 63, 100
1, 39201, Note_on_c, 0, 60, 100
1, 39239, Note_off_c, 0, 60, 100
1, 39239, Note_on_c, 0, 62, 100
1, 39335, Note_off_c, 0, 62, 100
1, 39603, Note_on_c, 0, 55, 100
1, 39651, Note_off_c, 0, 55, 100
1, 39651, Note_on_c, 0, 58, 100
1, 39699, Note_off_c, 0, 58, 100
1, 39699, Note_on_c, 0, 62, 100
1, 39747, Note_off_c, 0, 62, 100
1, 39747, Note_on_c, 0, 63, 100
1, 39795, Note_off_c, 0, 63, 100
1, 39795, Note_on_c, 0, 62, 100
1, 39843, Note_off_c, 0, 62, 100
1, 39843, Note_on_c, 0, 61, 100
1, 39891, Note_off_c, 0, 61, 100
1, 39891, Note_on_c, 0, 60, 100
1, 39939, Note_off_c, 0, 60, 100
1, 39939, Note_on_c, 0, 58, 100
1, 39987, Note_off_c, 0, 58, 100
1, 39987, Note_on_c, 0, 57, 100
1, 40035, Note_off_c, 0, 57, 100
1, 40035, Note_on_c, 0, 55, 100
1, 40083, Note_off_c, 0, 55, 100
1, 40083, Note_on_c, 0, 54, 100
1, 40131, Note_off_c, 0, 54, 100
1, 40131, Note_on_c, 0, 51, 100
1, 40275, Note_off_c, 0, 51, 100
1, 40275, Note_on_c, 0, 49, 100
1, 40323, Note_off_c, 0, 49, 100
1, 40323, Note_on_c, 0, 50, 100
1, 40419, Note_off_c, 0, 50, 100
1, 40419, Note_on_c, 0, 54, 100
1, 40467, Note_off_c, 0, 54, 100
1, 40467, Note_on_c, 0, 57, 100
1, 40515, Note_off_c, 0, 57, 100
1, 40515, Note_on_c, 0, 54, 100
1, 40563, Note_off_c, 0, 54, 100
1, 40563, Note_on_c, 0, 55, 100
1, 40611, Note_off_c, 0, 55, 100
1, 40611, Note_on_c, 0, 57, 100
1, 40659, Note_off_c, 0, 57, 100
1, 40659, Note_on_c, 0, 58, 100
1, 40707, Note_off_c, 0, 58, 100
1, 40707, Note_on_c, 0, 60, 100
1, 40755, Note_off_c, 0, 60, 100
1, 40755, Note_on_c, 0, 61, 100
1, 40803, Note_off_c, 0, 61, 100
1, 40803, Note_on_c, 0, 62, 100
1, 40851, Note_off_c, 0, 62, 100
1, 40851, Note_on_c, 0, 65, 100
1, 40899, Note_off_c, 0, 65, 100
1, 40899, Note_on_c, 0, 62, 100
1, 40947, Note_off_c, 0, 62, 100
1, 40947, Note_on_c, 0, 64, 100
1, 40995, Note_off_c, 0, 64, 100
1, 40995, Note_on_c, 0, 62, 100
1, 41043, Note_off_c, 0, 62, 100
1, 41043, Note_on_c, 0, 60, 100
1, 41091, Note_off_c, 0, 60, 100
1, 41091, Note_on_c, 0, 59, 100
1, 41139, Note_off_c, 0, 59, 100
1, 41139, Note_on_c, 0, 58, 100
1, 41187, Note_off_c, 0, 58, 100
1, 41187, Note_on_c, 0, 55, 100
1, 41235, Note_off_c, 0, 55, 100
1, 41235, Note_on_c, 0, 57, 100
1, 41299, Note_off_c, 0, 57, 100
1, 41299, Note_on_c, 0, 50, 100
1, 41427, Note_off_c, 0, 50, 100
1, 41427, Note_on_c, 0, 57, 100
1, 41475, Note_off_c, 0, 57, 100
1, 41475, Note_on_c, 0, 54, 100
1, 41523, Note_off_c, 0, 54, 100
1, 41523, Note_on_c, 0, 55, 100
1, 41571, Note_off_c, 0, 55, 100
1, 41571, Note_on_c, 0, 57, 100
1, 41619, Note_off_c, 0, 57, 100
1, 41619, Note_on_c, 0, 58, 100
1, 41667, Note_off_c, 0, 58, 100
1, 41667, Note_on_c, 0, 54, 100
1, 41715, Note_off_c, 0, 54, 100
1, 41715, Note_on_c, 0, 55, 100
1, 41763, Note_off_c, 0, 55, 100
1, 41763, Note_on_c, 0, 57, 100
1, 41811, Note_off_c, 0, 57, 100
1, 41811, Note_on_c, 0, 58, 100
1, 41859, Note_off_c, 0, 58, 100
1, 41859, Note_on_c, 0, 60, 100
1, 41907, Note_off_c, 0, 60, 100
1, 41907, Note_on_c, 0, 62, 100
1, 41955, Note_off_c, 0, 62, 100
1, 41955, Note_on_c, 0, 64, 100
1, 42003, Note_off_c, 0, 64, 100
1, 42003, Note_on_c, 0, 65, 100
1, 42051, Note_off_c, 0, 65, 100
1, 42051, Note_on_c, 0, 57, 100
1, 42147, Note_off_c, 0, 57, 100
1, 42147, Note_on_c, 0, 60, 100
1, 42195, Note_off_c, 0, 60, 100
1, 42195, Note_on_c, 0, 62, 100
1, 42243, Note_off_c, 0, 62, 100
1, 42243, Note_on_c, 0, 64, 100
1, 42291, Note_off_c, 0, 64, 100
1, 42291, Note_on_c, 0, 65, 100
1, 42339, Note_off_c, 0, 65, 100
1, 42339, Note_on_c, 0, 67, 100
1, 42387, Note_off_c, 0, 67, 100
1, 42387, Note_on_c, 0, 69, 100
1, 42435, Note_off_c, 0, 69, 100
1, 42435, Note_on_c, 0, 69, 100
1, 42483, Note_off_c, 0, 69, 100
1, 42483, Note_on_c, 0, 67, 100
1, 42531, Note_off_c, 0, 67, 100
1, 42531, Note_on_c, 0, 65, 100
1, 42579, Note_off_c, 0, 65, 100
1, 42579, Note_on_c, 0, 64, 100
1, 42627, Note_off_c, 0, 64, 100
1, 42627, Note_on_c, 0, 63, 100
1, 42675, Note_off_c, 0, 63, 100
1, 42675, Note_on_c, 0, 62, 100
1, 42723, Note_off_c, 0, 62, 100
1, 42723, Note_on_c, 0, 61, 100
1, 42771, Note_off_c, 0, 61, 100
1, 42771, Note_on_c, 0, 60, 100
1, 42819, Note_off_c, 0, 60, 100
1, 42819, Note_on_c, 0, 61, 100
1, 42867, Note_off_c, 0, 61, 100
1, 42867, Note_on_c, 0, 58, 100
1, 42915, Note_off_c, 0, 58, 100
1, 42915, Note_on_c, 0, 57, 100
1, 43011, Note_off_c, 0, 57, 100
1, 43011, Note_on_c, 0, 52, 100
1, 43059, Note_off_c, 0, 52, 100
1, 43059, Note_on_c, 0, 53, 100
1, 43107, Note_off_c, 0, 53, 100
1, 43107, Note_on_c, 0, 55, 100
1, 43155, Note_off_c, 0, 55, 100
1, 43155, Note_on_c, 0, 56, 100
1, 43203, Note_off_c, 0, 56, 100
1, 43203, Note_on_c, 0, 58, 100
1, 43251, Note_off_c, 0, 58, 100
1, 43251, Note_on_c, 0, 60, 100
1, 43299, Note_off_c, 0, 60, 100
1, 43299, Note_on_c, 0, 63, 100
1, 43347, Note_off_c, 0, 63, 100
1, 43347, Note_on_c, 0, 60, 100
1, 43385, Note_off_c, 0, 60, 100
1, 43385, Note_on_c, 0, 61, 100
1, 43423, Note_off_c, 0, 61, 100
1, 43423, Note_on_c, 0, 62, 100
1, 43461, Note_off_c, 0, 62, 100
1, 43461, Note_on_c, 0, 65, 100
1, 43499, Note_off_c, 0, 65, 100
1, 43499, Note_on_c, 0, 68, 100
1, 43585, Note_off_c, 0, 68, 100
1, 43585, Note_on_c, 0, 72, 100
1, 43633, Note_off_c, 0, 72, 100
1, 43633, Note_on_c, 0, 71, 100
1, 43681, Note_off_c, 0, 71, 100
1, 43681, Note_on_c, 0, 67, 100
1, 43729, Note_off_c, 0, 67, 100
1, 43729, Note_on_c, 0, 70, 100
1, 43777, Note_off_c, 0, 70, 100
1, 43777, Note_on_c, 0, 67, 100
1, 43825, Note_off_c, 0, 67, 100
1, 43825, Note_on_c, 0, 62, 100
1, 43873, Note_off_c, 0, 62, 100
1, 43873, Note_on_c, 0, 58, 100
1, 43921, Note_off_c, 0, 58, 100
1, 43921, Note_on_c, 0, 60, 100
1, 43969, Note_off_c, 0, 60, 100
1, 43969, Note_on_c, 0, 60, 100
1, 44065, Note_off_c, 0, 60, 100
1, 44401, Note_on_c, 0, 75, 100
1, 44449, Note_off_c, 0, 75, 100
1, 44449, Note_on_c, 0, 74, 100
1, 44497, Note_off_c, 0, 74, 100
1, 44497, Note_on_c, 0, 73, 100
1, 44545, Note_off_c, 0, 73, 100
1, 44545, Note_on_c, 0, 65, 100
1, 44593, Note_off_c, 0, 65, 100
1, 44593, Note_on_c, 0, 67, 100
1, 44641, Note_off_c, 0, 67, 100
1, 44641, Note_on_c, 0, 70, 100
1, 44689, Note_off_c, 0, 70, 100
1, 44689, Note_on_c, 0, 72, 100
1, 44737, Note_off_c, 0, 72, 100
1, 44737, Note_on_c, 0, 75, 100
1, 44785, Note_off_c, 0, 75, 100
1, 44785, Note_on_c, 0, 72, 100
1, 44833, Note_off_c, 0, 72, 100
1, 44833, Note_on_c, 0, 71, 100
1, 44881, Note_off_c, 0, 71, 100
1, 44881, Note_on_c, 0, 70, 100
1, 44929, Note_off_c, 0, 70, 100
1, 44929, Note_on_c, 0, 68, 100
1, 44977, Note_off_c, 0, 68, 100
1, 44977, Note_on_c, 0, 67, 100
1, 45025, Note_off_c, 0, 67, 100
1, 45025, Note_on_c, 0, 65, 100
1, 45073, Note_off_c, 0, 65, 100
1, 45073, Note_on_c, 0, 63, 100
1, 45121, Note_off_c, 0, 63, 100
1, 45121, Note_on_c, 0, 60, 100
1, 45169, Note_off_c, 0, 60, 100
1, 45169, Note_on_c, 0, 61, 100
1, 45217, Note_off_c, 0, 61, 100
1, 45217, Note_on_c, 0, 66, 100
1, 45457, Note_off_c, 0, 66, 100
1, 45457, Note_on_c, 0, 61, 100
1, 45505, Note_off_c, 0, 61, 100
1, 45505, Note_on_c, 0, 58, 100
1, 45553, Note_off_c, 0, 58, 100
1, 45553, Note_on_c, 0, 59, 100
1, 45601, Note_off_c, 0, 59, 100
1, 45601, Note_on_c, 0, 61, 100
1, 45649, Note_off_c, 0, 61, 100
1, 45649, Note_on_c, 0, 62, 100
1, 45697, Note_off_c, 0, 62, 100
1, 45697, Note_on_c, 0, 64, 100
1, 45745, Note_off_c, 0, 64, 100
1, 45745, Note_on_c, 0, 66, 100
1, 45793, Note_off_c, 0, 66, 100
1, 45793, Note_on_c, 0, 69, 100
1, 45841, Note_off_c, 0, 69, 100
1, 45841, Note_on_c, 0, 72, 100
1, 45889, Note_off_c, 0, 72, 100
1, 45889, Note_on_c, 0, 73, 100
1, 45937, Note_off_c, 0, 73, 100
1, 45937, Note_on_c, 0, 71, 100
1, 45985, Note_off_c, 0, 71, 100
1, 45985, Note_on_c, 0, 69, 100
1, 46033, Note_off_c, 0, 69, 100
1, 46033, Note_on_c, 0, 71, 100
1, 46081, Note_off_c, 0, 71, 100
1, 46081, Note_on_c, 0, 72, 100
1, 46177, Note_off_c, 0, 72, 100
1, 46177, Note_on_c, 0, 72, 100
1, 46225, Note_off_c, 0, 72, 100
1, 46225, Note_on_c, 0, 68, 100
1, 46321, Note_off_c, 0, 68, 100
1, 46321, Note_on_c, 0, 68, 100
1, 46369, Note_off_c, 0, 68, 100
1, 46369, Note_on_c, 0, 65, 100
1, 46465, Note_off_c, 0, 65, 100
1, 46465, Note_on_c, 0, 65, 100
1, 46513, Note_off_c, 0, 65, 100
1, 46513, Note_on_c, 0, 61, 100
1, 46609, Note_off_c, 0, 61, 100
1, 46609, Note_on_c, 0, 61, 100
1, 46657, Note_off_c, 0, 61, 100
1, 46657, Note_on_c, 0, 72, 100
1, 46753, Note_off_c, 0, 72, 100
1, 46753, Note_on_c, 0, 72, 100
1, 46801, Note_off_c, 0, 72, 100
1, 46801, Note_on_c, 0, 73, 100
1, 46897, Note_off_c, 0, 73, 100
1, 46897, Note_on_c, 0, 73, 100
1, 46945, Note_off_c, 0, 73, 100
1, 46945, Note_on_c, 0, 69, 100
1, 47041, Note_off_c, 0, 69, 100
1, 47041, Note_on_c, 0, 69, 100
1, 47089, Note_off_c, 0, 69, 100
1, 47089, Note_on_c, 0, 66, 100
1, 47185, Note_off_c, 0, 66, 100
1, 47185, Note_on_c, 0, 66, 100
1, 47233, Note_off_c, 0, 66, 100
1, 47233, Note_on_c, 0, 62, 100
1, 47329, Note_off_c, 0, 62, 100
1, 47329, Note_on_c, 0, 62, 100
1, 47377, Note_off_c, 0, 62, 100
1, 47377, Note_on_c, 0, 61, 100
1, 47473, Note_off_c, 0, 61, 100
1, 47473, Note_on_c, 0, 61, 100
1, 47521, Note_off_c, 0, 61, 100
1, 47521, Note_on_c, 0, 59, 100
1, 47761, Note_off_c, 0, 59, 100
1, 47761, Note_on_c, 0, 72, 100
1, 47809, Note_off_c, 0, 72, 100
1, 47809, Note_on_c, 0, 73, 100
1, 47857, Note_off_c, 0, 73, 100
1, 47857, Note_on_c, 0, 72, 100
1, 47905, Note_off_c, 0, 72, 100
1, 47905, Note_on_c, 0, 71, 100
1, 47953, Note_off_c, 0, 71, 100
1, 47953, Note_on_c, 0, 70, 100
1, 48001, Note_off_c, 0, 70, 100
1, 48001, Note_on_c, 0, 66, 100
1, 48049, Note_off_c, 0, 66, 100
1, 48049, Note_on_c, 0, 65, 100
1, 48097, Note_off_c, 0, 65, 100
1, 48097, Note_on_c, 0, 64, 100
1, 48145, Note_off_c, 0, 64, 100
1, 48145, Note_on_c, 0, 63, 100
1, 48183, Note_off_c, 0, 63, 100
1, 48183, Note_on_c, 0, 61, 100
1, 48221, Note_off_c, 0, 61, 100
1, 48221, Note_on_c, 0, 58, 100
1, 48259, Note_off_c, 0, 58, 100
1, 48259, Note_on_c, 0, 59, 100
1, 48297, Note_off_c, 0, 59, 100
1, 48297, Note_on_c, 0, 60, 100
1, 48335, Note_off_c, 0, 60, 100
1, 48335, Note_on_c, 0, 63, 100
1, 48399, Note_off_c, 0, 63, 100
1, 48399, Note_on_c, 0, 66, 100
1, 48463, Note_off_c, 0, 66, 100
1, 48463, Note_on_c, 0, 68, 100
1, 48527, Note_off_c, 0, 68, 100
1, 48527, Note_on_c, 0, 71, 100
1, 48575, Note_off_c, 0, 71, 100
1, 48575, Note_on_c, 0, 69, 100
1, 48623, Note_off_c, 0, 69, 100
1, 48623, Note_on_c, 0, 71, 100
1, 48671, Note_off_c, 0, 71, 100
1, 48671, Note_on_c, 0, 69, 100
1, 48719, Note_off_c, 0, 69, 100
1, 48719, Note_on_c, 0, 68, 100
1, 48757, Note_off_c, 0, 68, 100
1, 48757, Note_on_c, 0, 66, 100
1, 48795, Note_off_c, 0, 66, 100
1, 48795, Note_on_c, 0, 64, 100
1, 48833, Note_off_c, 0, 64, 100
1, 48833, Note_on_c, 0, 61, 100
1, 48909, Note_off_c, 0, 61, 100
1, 48909, Note_on_c, 0, 63, 100
1, 48947, Note_off_c, 0, 63, 100
1, 48947, Note_on_c, 0, 60, 100
1, 48985, Note_off_c, 0, 60, 100
1, 48985, Note_on_c, 0, 57, 100
1, 49023, Note_off_c, 0, 57, 100
1, 49023, Note_on_c, 0, 55, 100
1, 49099, Note_off_c, 0, 55, 100
1, 49099, Note_on_c, 0, 56, 100
1, 49291, Note_off_c, 0, 56, 100
1, 49291, Note_on_c, 0, 61, 100
1, 49329, Note_off_c, 0, 61, 100
1, 49329, Note_on_c, 0, 63, 100
1, 49367, Note_off_c, 0, 63, 100
1, 49367, Note_on_c, 0, 64, 100
1, 49405, Note_off_c, 0, 64, 100
1, 49405, Note_on_c, 0, 66, 100
1, 49443, Note_off_c, 0, 66, 100
1, 49443, Note_on_c, 0, 68, 100
1, 49481, Note_off_c, 0, 68, 100
1, 49481, Note_on_c, 0, 71, 100
1, 49529, Note_off_c, 0, 71, 100
1, 49529, Note_on_c, 0, 70, 100
1, 49577, Note_off_c, 0, 70, 100
1, 49577, Note_on_c, 0, 66, 100
1, 49625, Note_off_c, 0, 66, 100
1, 49625, Note_on_c, 0, 68, 100
1, 49673, Note_off_c, 0, 68, 100
1, 49673, Note_on_c, 0, 64, 100
1, 49737, Note_off_c, 0, 64, 100
1, 49737, Note_on_c, 0, 63, 100
1, 49801, Note_off_c, 0, 63, 100
1, 49801, Note_on_c, 0, 62, 100
1, 49865, Note_off_c, 0, 62, 100
1, 49865, Note_on_c, 0, 61, 100
1, 49903, Note_off_c, 0, 61, 100
1, 49903, Note_on_c, 0, 63, 100
1, 49941, Note_off_c, 0, 63, 100
1, 49941, Note_on_c, 0, 64, 100
1, 49979, Note_off_c, 0, 64, 100
1, 49979, Note_on_c, 0, 66, 100
1, 50055, Note_off_c, 0, 66, 100
1, 50055, Note_on_c, 0, 63, 100
1, 50103, Note_off_c, 0, 63, 100
1, 50103, Note_on_c, 0, 61, 100
1, 50247, Note_off_c, 0, 61, 100
1, 50247, Note_on_c, 0, 66, 100
1, 50391, Note_off_c, 0, 66, 100
1, 50391, Note_on_c, 0, 64, 100
1, 50439, Note_off_c, 0, 64, 100
1, 50439, Note_on_c, 0, 63, 100
1, 50487, Note_off_c, 0, 63, 100
1, 50487, Note_on_c, 0, 61, 100
1, 50535, Note_off_c, 0, 61, 100
1, 50535, Note_on_c, 0, 59, 100
1, 50583, Note_off_c, 0, 59, 100
1, 50583, Note_on_c, 0, 55, 100
1, 50631, Note_off_c, 0, 55, 100
1, 50631, Note_on_c, 0, 58, 100
1, 50679, Note_off_c, 0, 58, 100
1, 50679, Note_on_c, 0, 55, 100
1, 50727, Note_off_c, 0, 55, 100
1, 50727, Note_on_c, 0, 57, 100
1, 50775, Note_off_c, 0, 57, 100
1, 50775, Note_on_c, 0, 58, 100
1, 50823, Note_off_c, 0, 58, 100
1, 50823, Note_on_c, 0, 60, 100
1, 50861, Note_off_c, 0, 60, 100
1, 50861, Note_on_c, 0, 63, 100
1, 50899, Note_off_c, 0, 63, 100
1, 50899, Note_on_c, 0, 67, 100
1, 50937, Note_off_c, 0, 67, 100
1, 50937, Note_on_c, 0, 65, 100
1, 50975, Note_off_c, 0, 65, 100
1, 50975, Note_on_c, 0, 63, 100
1, 51013, Note_off_c, 0, 63, 100
1, 51013, Note_on_c, 0, 60, 100
1, 51077, Note_off_c, 0, 60, 100
1, 51077, Note_on_c, 0, 58, 100
1, 51141, Note_off_c, 0, 58, 100
1, 51141, Note_on_c, 0, 56, 100
1, 51205, Note_off_c, 0, 56, 100
1, 51205, Note_on_c, 0, 55, 100
1, 51253, Note_off_c, 0, 55, 100
1, 51253, Note_on_c, 0, 53, 100
1, 51301, Note_off_c, 0, 53, 100
1, 51301, Note_on_c, 0, 51, 100
1, 51349, Note_off_c, 0, 51, 100
1, 51349, Note_on_c, 0, 49, 100
1, 51397, Note_off_c, 0, 49, 100
1, 51397, Note_on_c, 0, 50, 100
1, 51435, Note_off_c, 0, 50, 100
1, 51435, Note_on_c, 0, 54, 100
1, 51473, Note_off_c, 0, 54, 100
1, 51473, Note_on_c, 0, 57, 100
1, 51511, Note_off_c, 0, 57, 100
1, 51511, Note_on_c, 0, 61, 100
1, 51549, Note_off_c, 0, 61, 100
1, 51549, Note_on_c, 0, 59, 100
1, 51587, Note_off_c, 0, 59, 100
1, 51587, Note_on_c, 0, 61, 100
1, 51651, Note_off_c, 0, 61, 100
1, 51651, Note_on_c, 0, 62, 100
1, 51715, Note_off_c, 0, 62, 100
1, 51715, Note_on_c, 0, 64, 100
1, 51779, Note_off_c, 0, 64, 100
1, 51779, Note_on_c, 0, 61, 100
1, 51827, Note_off_c, 0, 61, 100
1, 51827, Note_on_c, 0, 57, 100
1, 51875, Note_off_c, 0, 57, 100
1, 51875, Note_on_c, 0, 54, 100
1, 51971, Note_off_c, 0, 54, 100
1, 51971, Note_on_c, 0, 50, 100
1, 52035, Note_off_c, 0, 50, 100
1, 52035, Note_on_c, 0, 49, 100
1, 52099, Note_off_c, 0, 49, 100
1, 52099, Note_on_c, 0, 47, 100
1, 52140, Note_off_c, 0, 47, 100
1, 52140, End_track
0, 0, End_of_file
