0, 0, Header, 1, 1, 192
1, 0, Start_track
1, 0, Title_t, "Melody"
1, 0, Tempo, 253164
1, 0, Key_signature, -2, "major"
1, 0, Time_signature, 4, 2, 24, 8
1, 576, Note_on_c, 0, 65, 100
1, 672, Note_off_c, 0, 65, 100
1, 672, Note_on_c, 0, 67, 100
1, 720, Note_off_c, 0, 67, 100
1, 720, Note_on_c, 0, 69, 100
1, 912, Note_off_c, 0, 69, 100
1, 912, Note_on_c, 0, 70, 100
1, 1056, Note_off_c, 0, 70, 100
1, 1056, Note_on_c, 0, 72, 100
1, 1248, Note_off_c, 0, 72, 100
1, 1248, Note_on_c, 0, 70, 100
1, 1440, Note_off_c, 0, 70, 100
1, 1440, Note_on_c, 0, 72, 100
1, 1536, Note_off_c, 0, 72, 100
1, 1536, Note_on_c, 0, 69, 100
1, 1920, Note_off_c, 0, 69, 100
1, 1920, Note_on_c, 0, 67, 100
1, 2112, Note_off_c, 0, 67, 100
1, 2112, Note_on_c, 0, 69, 100
1, 2352, Note_off_c, 0, 69, 100
1, 2352, Note_on_c, 0, 66, 100
1, 2640, Note_off_c, 0, 66, 100
1, 2880, Note_on_c, 0, 66, 100
1, 3072, Note_off_c, 0, 66, 100
1, 3072, Note_on_c, 0, 62, 100
1, 3264, Note_off_c, 0, 62, 100
1, 4032, Note_on_c, 0, 58, 100
1, 4128, Note_off_c, 0, 58, 100
1, 4128, Note_on_c, 0, 62, 100
1, 4224, Note_off_c, 0, 62, 100
1, 4224, Note_on_c, 0, 67, 100
1, 4320, Note_off_c, 0, 67, 100
1, 4320, Note_on_c, 0, 69, 100
1, 4416, Note_off_c, 0, 69, 100
1, 4416, Note_on_c, 0, 70, 100
1, 4512, Note_off_c, 0, 70, 100
1, 4512, Note_on_c, 0, 71, 100
1, 4608, Note_off_c, 0, 71, 100
1, 4608, Note_on_c, 0, 72, 100
1, 4704, Note_off_c, 0, 72, 100
1, 4704, Note_on_c, 0, 70, 100
1, 4800, Note_off_c, 0, 70, 100
1, 4800, Note_on_c, 0, 67, 100
1, 4896, Note_off_c, 0, 67, 100
1, 4896, Note_on_c, 0, 65, 100
1, 4992, Note_off_c, 0, 65, 100
1, 4992, Note_on_c, 0, 60, 100
1, 5088, Note_off_c, 0, 60, 100
1, 5088, Note_on_c, 0, 62, 100
1, 5376, Note_off_c, 0, 62, 100
1, 5952, Note_on_c, 0, 72, 100
1, 6048, Note_off_c, 0, 72, 100
1, 6048, Note_on_c, 0, 70, 100
1, 6144, Note_off_c, 0, 70, 100
1, 6144, Note_on_c, 0, 67, 100
1, 6240, Note_off_c, 0, 67, 100
1, 6240, Note_on_c, 0, 63, 100
1, 6336, Note_off_c, 0, 63, 100
1, 6336, Note_on_c, 0, 60, 100
1, 6432, Note_off_c, 0, 60, 100
1, 6432, Note_on_c, 0, 55, 100
1, 6592, Note_off_c, 0, 55, 100
1, 6592, Note_on_c, 0, 58, 100
1, 6720, Note_off_c, 0, 58, 100
1, 6720, Note_on_c, 0, 55, 100
1, 6912, Note_off_c, 0, 55, 100
1, 6912, Note_on_c, 0, 62, 100
1, 7248, Note_off_c, 0, 62, 100
1, 7248, Note_on_c, 0, 60, 100
1, 7360, Note_off_c, 0, 60, 100
1, 7360, Note_on_c, 0, 56, 100
1, 7488, Note_off_c, 0, 56, 100
1, 7488, Note_on_c, 0, 57, 100
1, 7680, Note_off_c, 0, 57, 100
1, 7680, Note_on_c, 0, 67, 100
1, 7968, Note_off_c, 0, 67, 100
1, 7968, Note_on_c, 0, 65, 100
1, 8448, Note_off_c, 0, 65, 100
1, 8448, Note_on_c, 0, 69, 100
1, 8640, Note_off_c, 0, 69, 100
1, 8640, Note_on_c, 0, 66, 100
1, 8736, Note_off_c, 0, 66, 100
1, 8736, Note_on_c, 0, 67, 100
1, 9264, Note_off_c, 0, 67, 100
1, 9264, Note_on_c, 0, 71, 100
1, 9408, Note_off_c, 0, 71, 100
1, 9408, Note_on_c, 0, 67, 100
1, 9600, Note_off_c, 0, 67, 100
1, 9600, Note_on_c, 0, 69, 100
1, 9984, Note_off_c, 0, 69, 100
1, 9984, Note_on_c, 0, 73, 100
1, 10176, Note_off_c, 0, 73, 100
1, 10176, Note_on_c, 0, 69, 100
1, 10320, Note_off_c, 0, 69, 100
1, 10320, Note_on_c, 0, 71, 100
1, 10464, Note_off_c, 0, 71, 100
1, 10464, Note_on_c, 0, 67, 100
1, 10560, Note_off_c, 0, 67, 100
1, 10560, Note_on_c, 0, 69, 100
1, 10752, Note_off_c, 0, 69, 100
1, 10752, Note_on_c, 0, 66, 100
1, 11088, Note_off_c, 0, 66, 100
1, 11088, Note_on_c, 0, 69, 100
1, 11280, Note_off_c, 0, 69, 100
1, 12432, Note_on_c, 0, 65, 100
1, 12672, Note_off_c, 0, 65, 100
1, 12672, Note_on_c, 0, 65, 100
1, 12864, Note_off_c, 0, 65, 100
1, 12864, Note_on_c, 0, 66, 100
1, 13056, Note_off_c, 0, 66, 100
1, 13056, Note_on_c, 0, 66, 100
1, 13248, Note_off_c, 0, 66, 100
1, 13248, Note_on_c, 0, 67, 100
1, 13392, Note_off_c, 0, 67, 100
1, 13392, Note_on_c, 0, 67, 100
1, 13632, Note_off_c, 0, 67, 100
1, 13632, Note_on_c, 0, 67, 100
1, 13824, Note_off_c, 0, 67, 100
1, 13824, Note_on_c, 0, 67, 100
1, 14016, Note_off_c, 0, 67, 100
1, 14016, Note_on_c, 0, 68, 100
1, 14208, Note_off_c, 0, 68, 100
1, 14208, Note_on_c, 0, 68, 100
1, 14400, Note_off_c, 0, 68, 100
1, 14400, Note_on_c, 0, 69, 100
1, 14656, Note_off_c, 0, 69, 100
1, 14656, Note_on_c, 0, 69, 100
1, 14880, Note_off_c, 0, 69, 100
1, 14880, Note_on_c, 0, 70, 100
1, 14976, Note_off_c, 0, 70, 100
1, 14976, Note_on_c, 0, 72, 100
1, 15168, Note_off_c, 0, 72, 100
1, 15168, Note_on_c, 0, 69, 100
1, 15360, Note_off_c, 0, 69, 100
1, 15360, Note_on_c, 0, 70, 100
1, 15504, Note_off_c, 0, 70, 100
1, 15504, Note_on_c, 0, 70, 100
1, 15552, Note_off_c, 0, 70, 100
1, 15552, Note_on_c, 0, 67, 100
1, 15744, Note_off_c, 0, 67, 100
1, 15744, Note_on_c, 0, 69, 100
1, 15840, Note_off_c, 0, 69, 100
1, 15840, Note_on_c, 0, 70, 100
1, 16032, Note_off_c, 0, 70, 100
1, 16032, Note_on_c, 0, 69, 100
1, 16272, Note_off_c, 0, 69, 100
1, 16272, Note_on_c, 0, 67, 100
1, 16416, Note_off_c, 0, 67, 100
1, 16416, Note_on_c, 0, 62, 100
1, 16576, Note_off_c, 0, 62, 100
1, 16576, Note_on_c, 0, 57, 100
1, 16704, Note_off_c, 0, 57, 100
1, 16704, Note_on_c, 0, 58, 100
1, 16896, Note_off_c, 0, 58, 100
1, 16896, Note_on_c, 0, 62, 100
1, 17184, Note_off_c, 0, 62, 100
1, 18144, Note_on_c, 0, 60, 100
1, 18336, Note_off_c, 0, 60, 100
1, 18336, Note_on_c, 0, 67, 100
1, 18432, Note_off_c, 0, 67, 100
1, 18432, Note_on_c, 0, 70, 100
1, 18816, Note_off_c, 0, 70, 100
1, 18816, Note_on_c, 0, 72, 100
1, 18912, Note_off_c, 0, 72, 100
1, 18912, Note_on_c, 0, 70, 100
1, 19008, Note_off_c, 0, 70, 100
1, 19008, Note_on_c, 0, 67, 100
1, 19104, Note_off_c, 0, 67, 100
1, 19104, Note_on_c, 0, 63, 100
1, 19200, Note_off_c, 0, 63, 100
1, 19200, Note_on_c, 0, 62, 100
1, 19328, Note_off_c, 0, 62, 100
1, 19328, Note_on_c, 0, 60, 100
1, 19536, Note_off_c, 0, 60, 100
1, 19536, Note_on_c, 0, 59, 100
1, 19680, Note_off_c, 0, 59, 100
1, 19680, Note_on_c, 0, 60, 100
1, 19968, Note_off_c, 0, 60, 100
1, 19968, Note_on_c, 0, 68, 100
1, 20064, Note_off_c, 0, 68, 100
1, 20064, Note_on_c, 0, 69, 100
1, 20352, Note_off_c, 0, 69, 100
1, 20352, Note_on_c, 0, 65, 100
1, 20736, Note_off_c, 0, 65, 100
1, 20736, Note_on_c, 0, 62, 100
1, 21024, Note_off_c, 0, 62, 100
1, 21600, Note_on_c, 0, 70, 100
1, 21888, Note_off_c, 0, 70, 100
1, 21888, Note_on_c, 0, 67, 100
1, 22080, Note_off_c, 0, 67, 100
1, 22080, Note_on_c, 0, 58, 100
1, 22368, Note_off_c, 0, 58, 100
1, 22368, Note_on_c, 0, 61, 100
1, 22464, Note_off_c, 0, 61, 100
1, 22464, Note_on_c, 0, 62, 100
1, 22800, Note_off_c, 0, 62, 100
1, 22800, Note_on_c, 0, 62, 100
1, 23040, Note_off_c, 0, 62, 100
1, 23040, Note_on_c, 0, 58, 100
1, 23328, Note_off_c, 0, 58, 100
1, 23520, Note_on_c, 0, 62, 100
1, 23808, Note_off_c, 0, 62, 100
1, 23808, Note_on_c, 0, 65, 100
1, 23984, Note_off_c, 0, 65, 100
1, 23984, End_track
0, 0, End_of_file
