0, 0, Header, 1, 1, 192
1, 0, Start_track
1, 0, Title_t, "Melody"
1, 0, Tempo, 300000
1, 0, Key_signature, -3, "major"
1, 0, Time_signature, 4, 2, 24, 8
1, 192, Note_on_c, 0, 62, 100
1, 288, Note_off_c, 0, 62, 100
1, 288, Note_on_c, 0, 59, 100
1, 384, Note_off_c, 0, 59, 100
1, 384, Note_on_c, 0, 55, 100
1, 528, Note_off_c, 0, 55, 100
1, 528, Note_on_c, 0, 58, 100
1, 576, Note_off_c, 0, 58, 100
1, 576, Note_on_c, 0, 63, 100
1, 672, Note_off_c, 0, 63, 100
1, 672, Note_on_c, 0, 65, 100
1, 768, Note_off_c, 0, 65, 100
1, 768, Note_on_c, 0, 67, 100
1, 864, Note_off_c, 0, 67, 100
1, 864, Note_on_c, 0, 65, 100
1, 960, Note_off_c, 0, 65, 100
1, 1248, Note_on_c, 0, 67, 100
1, 1440, Note_off_c, 0, 67, 100
1, 1440, Note_on_c, 0, 63, 100
1, 1536, Note_off_c, 0, 63, 100
1, 1536, Note_on_c, 0, 65, 100
1, 1632, Note_off_c, 0, 65, 100
1, 1632, Note_on_c, 0, 67, 100
1, 1680, Note_off_c, 0, 67, 100
1, 1680, Note_on_c, 0, 68, 100
1, 1824, Note_off_c, 0, 68, 100
1, 1824, Note_on_c, 0, 69, 100
1, 1920, Note_off_c, 0, 69, 100
1, 1920, Note_on_c, 0, 71, 100
1, 2064, Note_off_c, 0, 71, 100
1, 2064, Note_on_c, 0, 69, 100
1, 2208, Note_off_c, 0, 69, 100
1, 2208, Note_on_c, 0, 71, 100
1, 2496, Note_off_c, 0, 71, 100
1, 2496, Note_on_c, 0, 67, 100
1, 2592, Note_off_c, 0, 67, 100
1, 2592, Note_on_c, 0, 65, 100
1, 2688, Note_off_c, 0, 65, 100
1, 2688, Note_on_c, 0, 63, 100
1, 2784, Note_off_c, 0, 63, 100
1, 2784, Note_on_c, 0, 60, 100
1, 2880, Note_off_c, 0, 60, 100
1, 2880, Note_on_c, 0, 62, 100
1, 2976, Note_off_c, 0, 62, 100
1, 2976, Note_on_c, 0, 59, 100
1, 3216, Note_off_c, 0, 59, 100
1, 3216, Note_on_c, 0, 60, 100
1, 3264, Note_off_c, 0, 60, 100
1, 3264, Note_on_c, 0, 63, 100
1, 3360, Note_off_c, 0, 63, 100
1, 3360, Note_on_c, 0, 65, 100
1, 3456, Note_off_c, 0, 65, 100
1, 3456, Note_on_c, 0, 66, 100
1, 3552, Note_off_c, 0, 66, 100
1, 3552, Note_on_c, 0, 65, 100
1, 3648, Note_off_c, 0, 65, 100
1, 3648, Note_on_c, 0, 63, 100
1, 3744, Note_off_c, 0, 63, 100
1, 3744, Note_on_c, 0, 60, 100
1, 3840, Note_off_c, 0, 60, 100
1, 3840, Note_on_c, 0, 55, 100
1, 4032, Note_off_c, 0, 55, 100
1, 4224, Note_on_c, 0, 60, 100
1, 4560, Note_off_c, 0, 60, 100
1, 4560, Note_on_c, 0, 62, 100
1, 4896, Note_off_c, 0, 62, 100
1, 4896, Note_on_c, 0, 67, 100
1, 4992, Note_off_c, 0, 67, 100
1, 5760, Note_on_c, 0, 60, 100
1, 5904, Note_off_c, 0, 60, 100
1, 5904, Note_on_c, 0, 62, 100
1, 6144, Note_off_c, 0, 62, 100
1, 6144, Note_on_c, 0, 65, 100
1, 6432, Note_off_c, 0, 65, 100
1, 6432, Note_on_c, 0, 72, 100
1, 6720, Note_off_c, 0, 72, 100
1, 7008, Note_on_c, 0, 60, 100
1, 7104, Note_off_c, 0, 60, 100
1, 7104, Note_on_c, 0, 63, 100
1, 7200, Note_off_c, 0, 63, 100
1, 7200, Note_on_c, 0, 66, 100
1, 7296, Note_off_c, 0, 66, 100
1, 7296, Note_on_c, 0, 69, 100
1, 7440, Note_off_c, 0, 69, 100
1, 7440, Note_on_c, 0, 74, 100
1, 7488, Note_off_c, 0, 74, 100
1, 7488, Note_on_c, 0, 77, 100
1, 7616, Note_off_c, 0, 77, 100
1, 7616, Note_on_c, 0, 70, 100
1, 7872, Note_off_c, 0, 70, 100
1, 7872, Note_on_c, 0, 72, 100
1, 8016, Note_off_c, 0, 72, 100
1, 8016, Note_on_c, 0, 68, 100
1, 8064, Note_off_c, 0, 68, 100
1, 8064, Note_on_c, 0, 70, 100
1, 8160, Note_off_c, 0, 70, 100
1, 8160, Note_on_c, 0, 67, 100
1, 8256, Note_off_c, 0, 67, 100
1, 8256, Note_on_c, 0, 68, 100
1, 8352, Note_off_c, 0, 68, 100
1, 8352, Note_on_c, 0, 70, 100
1, 8400, Note_off_c, 0, 70, 100
1, 8400, Note_on_c, 0, 68, 100
1, 8496, Note_off_c, 0, 68, 100
1, 8496, Note_on_c, 0, 65, 100
1, 8592, Note_off_c, 0, 65, 100
1, 8592, Note_on_c, 0, 67, 100
1, 8832, Note_off_c, 0, 67, 100
1, 8832, Note_on_c, 0, 65, 100
1, 9024, Note_off_c, 0, 65, 100
1, 9024, Note_on_c, 0, 62, 100
1, 9072, Note_off_c, 0, 62, 100
1, 9072, Note_on_c, 0, 63, 100
1, 9168, Note_off_c, 0, 63, 100
1, 9168, Note_on_c, 0, 60, 100
1, 9360, Note_off_c, 0, 60, 100
1, 9360, Note_on_c, 0, 62, 100
1, 9504, Note_off_c, 0, 62, 100
1, 9504, Note_on_c, 0, 59, 100
1, 9600, Note_off_c, 0, 59, 100
1, 9600, Note_on_c, 0, 60, 100
1, 9696, Note_off_c, 0, 60, 100
1, 9696, Note_on_c, 0, 62, 100
1, 9744, Note_off_c, 0, 62, 100
1, 9744, Note_on_c, 0, 60, 100
1, 9792, Note_off_c, 0, 60, 100
1, 9792, Note_on_c, 0, 59, 100
1, 9984, Note_off_c, 0, 59, 100
1, 9984, Note_on_c, 0, 62, 100
1, 10272, Note_off_c, 0, 62, 100
1, 10272, Note_on_c, 0, 59, 100
1, 10368, Note_off_c, 0, 59, 100
1, 10368, Note_on_c, 0, 60, 100
1, 10512, Note_off_c, 0, 60, 100
1, 10512, Note_on_c, 0, 67, 100
1, 10608, Note_off_c, 0, 67, 100
1, 11520, Note_on_c, 0, 77, 100
1, 11712, Note_off_c, 0, 77, 100
1, 11712, Note_on_c, 0, 75, 100
1, 11808, Note_off_c, 0, 75, 100
1, 11808, Note_on_c, 0, 74, 100
1, 11904, Note_off_c, 0, 74, 100
1, 11904, Note_on_c, 0, 72, 100
1, 12048, Note_off_c, 0, 72, 100
1, 12048, Note_on_c, 0, 67, 100
1, 12192, Note_off_c, 0, 67, 100
1, 12192, Note_on_c, 0, 65, 100
1, 12480, Note_off_c, 0, 65, 100
1, 12480, Note_on_c, 0, 63, 100
1, 12576, Note_off_c, 0, 63, 100
1, 12576, Note_on_c, 0, 62, 100
1, 12672, Note_off_c, 0, 62, 100
1, 13008, Note_on_c, 0, 60, 100
1, 13248, Note_off_c, 0, 60, 100
1, 13248, Note_on_c, 0, 63, 100
1, 13344, Note_off_c, 0, 63, 100
1, 13344, Note_on_c, 0, 66, 100
1, 13440, Note_off_c, 0, 66, 100
1, 13440, Note_on_c, 0, 67, 100
1, 13584, Note_off_c, 0, 67, 100
1, 13584, Note_on_c, 0, 72, 100
1, 13728, Note_off_c, 0, 72, 100
1, 13728, Note_on_c, 0, 69, 100
1, 14016, Note_off_c, 0, 69, 100
1, 14016, Note_on_c, 0, 65, 100
1, 14208, Note_off_c, 0, 65, 100
1, 14208, Note_on_c, 0, 62, 100
1, 14352, Note_off_c, 0, 62, 100
1, 14352, Note_on_c, 0, 59, 100
1, 14496, Note_off_c, 0, 59, 100
1, 14496, Note_on_c, 0, 60, 100
1, 14592, Note_off_c, 0, 60, 100
1, 15360, Note_on_c, 0, 70, 100
1, 15456, Note_off_c, 0, 70, 100
1, 15456, Note_on_c, 0, 72, 100
1, 15552, Note_off_c, 0, 72, 100
1, 15552, Note_on_c, 0, 73, 100
1, 15648, Note_off_c, 0, 73, 100
1, 15648, Note_on_c, 0, 70, 100
1, 15744, Note_off_c, 0, 70, 100
1, 15744, Note_on_c, 0, 67, 100
1, 15888, Note_off_c, 0, 67, 100
1, 15888, Note_on_c, 0, 68, 100
1, 15936, Note_off_c, 0, 68, 100
1, 15936, Note_on_c, 0, 70, 100
1, 16064, Note_off_c, 0, 70, 100
1, 16064, Note_on_c, 0, 72, 100
1, 16224, Note_off_c, 0, 72, 100
1, 16224, Note_on_c, 0, 65, 100
1, 16512, Note_off_c, 0, 65, 100
1, 16512, Note_on_c, 0, 67, 100
1, 16800, Note_off_c, 0, 67, 100
1, 16800, Note_on_c, 0, 68, 100
1, 16896, Note_off_c, 0, 68, 100
1, 16896, Note_on_c, 0, 64, 100
1, 17040, Note_off_c, 0, 64, 100
1, 17040, Note_on_c, 0, 65, 100
1, 17088, Note_off_c, 0, 65, 100
1, 17088, Note_on_c, 0, 67, 100
1, 17184, Note_off_c, 0, 67, 100
1, 17184, Note_on_c, 0, 68, 100
1, 17280, Note_off_c, 0, 68, 100
1, 17280, Note_on_c, 0, 70, 100
1, 17376, Note_off_c, 0, 70, 100
1, 17376, Note_on_c, 0, 71, 100
1, 17472, Note_off_c, 0, 71, 100
1, 17472, Note_on_c, 0, 72, 100
1, 17568, Note_off_c, 0, 72, 100
1, 17568, Note_on_c, 0, 75, 100
1, 17664, Note_off_c, 0, 75, 100
1, 17664, Note_on_c, 0, 74, 100
1, 17760, Note_off_c, 0, 74, 100
1, 17760, Note_on_c, 0, 69, 100
1, 17856, Note_off_c, 0, 69, 100
1, 17856, Note_on_c, 0, 66, 100
1, 17952, Note_off_c, 0, 66, 100
1, 17952, Note_on_c, 0, 63, 100
1, 18096, Note_off_c, 0, 63, 100
1, 18096, Note_on_c, 0, 59, 100
1, 18192, Note_off_c, 0, 59, 100
1, 18192, Note_on_c, 0, 60, 100
1, 18336, Note_off_c, 0, 60, 100
1, 18336, Note_on_c, 0, 62, 100
1, 18624, Note_off_c, 0, 62, 100
1, 18624, Note_on_c, 0, 66, 100
1, 18720, Note_off_c, 0, 66, 100
1, 19296, Note_on_c, 0, 67, 100
1, 19584, Note_off_c, 0, 67, 100
1, 19584, Note_on_c, 0, 70, 100
1, 19680, Note_off_c, 0, 70, 100
1, 19680, Note_on_c, 0, 67, 100
1, 19776, Note_off_c, 0, 67, 100
1, 19776, Note_on_c, 0, 65, 100
1, 19872, Note_off_c, 0, 65, 100
1, 19872, Note_on_c, 0, 63, 100
1, 20016, Note_off_c, 0, 63, 100
1, 20016, Note_on_c, 0, 62, 100
1, 20160, Note_off_c, 0, 62, 100
1, 20160, Note_on_c, 0, 65, 100
1, 20256, Note_off_c, 0, 65, 100
1, 20256, Note_on_c, 0, 69, 100
1, 20352, Note_off_c, 0, 69, 100
1, 20352, Note_on_c, 0, 72, 100
1, 20496, Note_off_c, 0, 72, 100
1, 20496, Note_on_c, 0, 71, 100
1, 20640, Note_off_c, 0, 71, 100
1, 20640, Note_on_c, 0, 67, 100
1, 21024, Note_off_c, 0, 67, 100
1, 21024, Note_on_c, 0, 65, 100
1, 21072, Note_off_c, 0, 65, 100
1, 21072, Note_on_c, 0, 64, 100
1, 21216, Note_off_c, 0, 64, 100
1, 21216, Note_on_c, 0, 62, 100
1, 21408, Note_off_c, 0, 62, 100
1, 22368, Note_on_c, 0, 58, 100
1, 22464, Note_off_c, 0, 58, 100
1, 22464, Note_on_c, 0, 61, 100
1, 22560, Note_off_c, 0, 61, 100
1, 22560, Note_on_c, 0, 66, 100
1, 22656, Note_off_c, 0, 66, 100
1, 22656, Note_on_c, 0, 70, 100
1, 22848, Note_off_c, 0, 70, 100
1, 22848, Note_on_c, 0, 72, 100
1, 22976, Note_off_c, 0, 72, 100
1, 22976, Note_on_c, 0, 73, 100
1, 23232, Note_off_c, 0, 73, 100
1, 23232, Note_on_c, 0, 72, 100
1, 23328, Note_off_c, 0, 72, 100
1, 23328, Note_on_c, 0, 70, 100
1, 23424, Note_off_c, 0, 70, 100
1, 23424, Note_on_c, 0, 68, 100
1, 23520, Note_off_c, 0, 68, 100
1, 23520, Note_on_c, 0, 70, 100
1, 23664, Note_off_c, 0, 70, 100
1, 23664, Note_on_c, 0, 67, 100
1, 23760, Note_off_c, 0, 67, 100
1, 23760, Note_on_c, 0, 68, 100
1, 24000, Note_off_c, 0, 68, 100
1, 24000, Note_on_c, 0, 67, 100
1, 24096, Note_off_c, 0, 67, 100
1, 24096, Note_on_c, 0, 66, 100
1, 24192, Note_off_c, 0, 66, 100
1, 24192, Note_on_c, 0, 65, 100
1, 24288, Note_off_c, 0, 65, 100
1, 24288, Note_on_c, 0, 60, 100
1, 24384, Note_off_c, 0, 60, 100
1, 24384, Note_on_c, 0, 55, 100
1, 24576, Note_off_c, 0, 55, 100
1, 24576, Note_on_c, 0, 60, 100
1, 24672, Note_off_c, 0, 60, 100
1, 25440, Note_on_c, 0, 65, 100
1, 25536, Note_off_c, 0, 65, 100
1, 25536, Note_on_c, 0, 67, 100
1, 25632, Note_off_c, 0, 67, 100
1, 25632, Note_on_c, 0, 68, 100
1, 25728, Note_off_c, 0, 68, 100
1, 25728, Note_on_c, 0, 70, 100
1, 25824, Note_off_c, 0, 70, 100
1, 25824, Note_on_c, 0, 71, 100
1, 25920, Note_off_c, 0, 71, 100
1, 25920, Note_on_c, 0, 68, 100
1, 26016, Note_off_c, 0, 68, 100
1, 26016, Note_on_c, 0, 71, 100
1, 26112, Note_off_c, 0, 71, 100
1, 26112, Note_on_c, 0, 70, 100
1, 26208, Note_off_c, 0, 70, 100
1, 26400, Note_on_c, 0, 68, 100
1, 26688, Note_off_c, 0, 68, 100
1, 26688, Note_on_c, 0, 70, 100
1, 27072, Note_off_c, 0, 70, 100
1, 27072, Note_on_c, 0, 65, 100
1, 27168, Note_off_c, 0, 65, 100
1, 27168, Note_on_c, 0, 67, 100
1, 27264, Note_off_c, 0, 67, 100
1, 27264, Note_on_c, 0, 68, 100
1, 27360, Note_off_c, 0, 68, 100
1, 27360, Note_on_c, 0, 70, 100
1, 27456, Note_off_c, 0, 70, 100
1, 27456, Note_on_c, 0, 67, 100
1, 27552, Note_off_c, 0, 67, 100
1, 27552, Note_on_c, 0, 70, 100
1, 27648, Note_off_c, 0, 70, 100
1, 27648, Note_on_c, 0, 68, 100
1, 27936, Note_off_c, 0, 68, 100
1, 27936, Note_on_c, 0, 65, 100
1, 28128, Note_off_c, 0, 65, 100
1, 28128, Note_on_c, 0, 65, 100
1, 28224, Note_off_c, 0, 65, 100
1, 28224, Note_on_c, 0, 67, 100
1, 28512, Note_off_c, 0, 67, 100
1, 28512, Note_on_c, 0, 60, 100
1, 28608, Note_off_c, 0, 60, 100
1, 28608, Note_on_c, 0, 62, 100
1, 28704, Note_off_c, 0, 62, 100
1, 28704, Note_on_c, 0, 63, 100
1, 28800, Note_off_c, 0, 63, 100
1, 28800, Note_on_c, 0, 65, 100
1, 28896, Note_off_c, 0, 65, 100
1, 28896, Note_on_c, 0, 67, 100
1, 28992, Note_off_c, 0, 67, 100
1, 28992, Note_on_c, 0, 63, 100
1, 29088, Note_off_c, 0, 63, 100
1, 29088, Note_on_c, 0, 67, 100
1, 29184, Note_off_c, 0, 67, 100
1, 29184, Note_on_c, 0, 65, 100
1, 29472, Note_off_c, 0, 65, 100
1, 29472, Note_on_c, 0, 57, 100
1, 29568, Note_off_c, 0, 57, 100
1, 29760, Note_on_c, 0, 59, 100
1, 29952, Note_off_c, 0, 59, 100
1, 29952, Note_on_c, 0, 59, 100
1, 30016, Note_off_c, 0, 59, 100
1, 30016, Note_on_c, 0, 62, 100
1, 30288, Note_off_c, 0, 62, 100
1, 30288, Note_on_c, 0, 60, 100
1, 30432, Note_off_c, 0, 60, 100
1, 30432, Note_on_c, 0, 67, 100
1, 30720, Note_off_c, 0, 67, 100
1, 30720, Note_on_c, 0, 67, 100
1, 30912, Note_off_c, 0, 67, 100
1, 31872, Note_on_c, 0, 66, 100
1, 31968, Note_off_c, 0, 66, 100
1, 31968, Note_on_c, 0, 69, 100
1, 32064, Note_off_c, 0, 69, 100
1, 32064, Note_on_c, 0, 72, 100
1, 32160, Note_off_c, 0, 72, 100
1, 32160, Note_on_c, 0, 74, 100
1, 32256, Note_off_c, 0, 74, 100
1, 32256, Note_on_c, 0, 75, 100
1, 32352, Note_off_c, 0, 75, 100
1, 32352, Note_on_c, 0, 74, 100
1, 32448, Note_off_c, 0, 74, 100
1, 32448, Note_on_c, 0, 72, 100
1, 32640, Note_off_c, 0, 72, 100
1, 32640, Note_on_c, 0, 74, 100
1, 32832, Note_off_c, 0, 74, 100
1, 32832, Note_on_c, 0, 67, 100
1, 33024, Note_off_c, 0, 67, 100
1, 33024, Note_on_c, 0, 63, 100
1, 33408, Note_off_c, 0, 63, 100
1, 33408, Note_on_c, 0, 65, 100
1, 33504, Note_off_c, 0, 65, 100
1, 33504, Note_on_c, 0, 68, 100
1, 33696, Note_off_c, 0, 68, 100
1, 33696, Note_on_c, 0, 75, 100
1, 33792, Note_off_c, 0, 75, 100
1, 33792, Note_on_c, 0, 74, 100
1, 33936, Note_off_c, 0, 74, 100
1, 33936, Note_on_c, 0, 67, 100
1, 34032, Note_off_c, 0, 67, 100
1, 34560, Note_on_c, 0, 79, 100
1, 34656, Note_off_c, 0, 79, 100
1, 34656, Note_on_c, 0, 77, 100
1, 34752, Note_off_c, 0, 77, 100
1, 34752, Note_on_c, 0, 75, 100
1, 34848, Note_off_c, 0, 75, 100
1, 34848, Note_on_c, 0, 74, 100
1, 34944, Note_off_c, 0, 74, 100
1, 34944, Note_on_c, 0, 72, 100
1, 35088, Note_off_c, 0, 72, 100
1, 35088, Note_on_c, 0, 67, 100
1, 35232, Note_off_c, 0, 67, 100
1, 35232, Note_on_c, 0, 69, 100
1, 35424, Note_off_c, 0, 69, 100
1, 35424, Note_on_c, 0, 72, 100
1, 35712, Note_off_c, 0, 72, 100
1, 35712, Note_on_c, 0, 71, 100
1, 35904, Note_off_c, 0, 71, 100
1, 35904, Note_on_c, 0, 74, 100
1, 36048, Note_off_c, 0, 74, 100
1, 36048, Note_on_c, 0, 67, 100
1, 36192, Note_off_c, 0, 67, 100
1, 36192, Note_on_c, 0, 74, 100
1, 36480, Note_off_c, 0, 74, 100
1, 36480, Note_on_c, 0, 72, 100
1, 36576, Note_off_c, 0, 72, 100
1, 36576, Note_on_c, 0, 70, 100
1, 36672, Note_off_c, 0, 70, 100
1, 36672, Note_on_c, 0, 67, 100
1, 36768, Note_off_c, 0, 67, 100
1, 36768, Note_on_c, 0, 63, 100
1, 36864, Note_off_c, 0, 63, 100
1, 36864, Note_on_c, 0, 65, 100
1, 36992, Note_off_c, 0, 65, 100
1, 36992, Note_on_c, 0, 66, 100
1, 37152, Note_off_c, 0, 66, 100
1, 37152, Note_on_c, 0, 67, 100
1, 37440, Note_off_c, 0, 67, 100
1, 37440, Note_on_c, 0, 62, 100
1, 37536, Note_off_c, 0, 62, 100
1, 37536, Note_on_c, 0, 55, 100
1, 38208, Note_off_c, 0, 55, 100
1, 38592, Note_on_c, 0, 58, 100
1, 38630, Note_off_c, 0, 58, 100
1, 38630, Note_on_c, 0, 61, 100
1, 38745, Note_off_c, 0, 61, 100
1, 38745, Note_on_c, 0, 69, 100
1, 38927, Note_off_c, 0, 69, 100
1, 38927, Note_on_c, 0, 73, 100
1, 39167, Note_off_c, 0, 73, 100
1, 39167, Note_on_c, 0, 72, 100
1, 39263, Note_off_c, 0, 72, 100
1, 39263, Note_on_c, 0, 71, 100
1, 39359, Note_off_c, 0, 71, 100
1, 39359, Note_on_c, 0, 70, 100
1, 39455, Note_off_c, 0, 70, 100
1, 39455, Note_on_c, 0, 69, 100
1, 39589, Note_off_c, 0, 69, 100
1, 39589, Note_on_c, 0, 68, 100
1, 39665, Note_off_c, 0, 68, 100
1, 39665, Note_on_c, 0, 67, 100
1, 39703, Note_off_c, 0, 67, 100
1, 39703, Note_on_c, 0, 68, 100
1, 39837, Note_off_c, 0, 68, 100
1, 39837, Note_on_c, 0, 68, 100
1, 40125, Note_off_c, 0, 68, 100
1, 40125, Note_on_c, 0, 68, 100
1, 40269, Note_off_c, 0, 68, 100
1, 40269, Note_on_c, 0, 68, 100
1, 40413, Note_off_c, 0, 68, 100
1, 40413, Note_on_c, 0, 68, 100
1, 40701, Note_off_c, 0, 68, 100
1, 40701, Note_on_c, 0, 65, 100
1, 40989, Note_off_c, 0, 65, 100
1, 41805, Note_on_c, 0, 66, 100
1, 42045, Note_off_c, 0, 66, 100
1, 42045, Note_on_c, 0, 67, 100
1, 42237, Note_off_c, 0, 67, 100
1, 42237, Note_on_c, 0, 70, 100
1, 42525, Note_off_c, 0, 70, 100
1, 42525, Note_on_c, 0, 67, 100
1, 42621, Note_off_c, 0, 67, 100
1, 42621, Note_on_c, 0, 65, 100
1, 42909, Note_off_c, 0, 65, 100
1, 42909, Note_on_c, 0, 67, 100
1, 43293, Note_off_c, 0, 67, 100
1, 43293, Note_on_c, 0, 64, 100
1, 43389, Note_off_c, 0, 64, 100
1, 43389, Note_on_c, 0, 62, 100
1, 43533, Note_off_c, 0, 62, 100
1, 43533, Note_on_c, 0, 60, 100
1, 43677, Note_off_c, 0, 60, 100
1, 43677, Note_on_c, 0, 59, 100
1, 44061, Note_off_c, 0, 59, 100
1, 44061, Note_on_c, 0, 55, 100
1, 44157, Note_off_c, 0, 55, 100
1, 44157, Note_on_c, 0, 57, 100
1, 44285, Note_off_c, 0, 57, 100
1, 44285, Note_on_c, 0, 59, 100
1, 44445, Note_off_c, 0, 59, 100
1, 44445, Note_on_c, 0, 62, 100
1, 44637, Note_off_c, 0, 62, 100
1, 45405, Note_on_c, 0, 60, 100
1, 45885, Note_off_c, 0, 60, 100
1, 46173, Note_on_c, 0, 62, 100
1, 46269, Note_off_c, 0, 62, 100
1, 46269, Note_on_c, 0, 63, 100
1, 46365, Note_off_c, 0, 63, 100
1, 46365, Note_on_c, 0, 65, 100
1, 46461, Note_off_c, 0, 65, 100
1, 46461, Note_on_c, 0, 67, 100
1, 46653, Note_off_c, 0, 67, 100
1, 46653, Note_on_c, 0, 67, 100
1, 46749, Note_off_c, 0, 67, 100
1, 46749, Note_on_c, 0, 67, 100
1, 47325, Note_off_c, 0, 67, 100
1, 47709, Note_on_c, 0, 65, 100
1, 47805, Note_off_c, 0, 65, 100
1, 47805, Note_on_c, 0, 63, 100
1, 47949, Note_off_c, 0, 63, 100
1, 47949, Note_on_c, 0, 60, 100
1, 47997, Note_off_c, 0, 60, 100
1, 47997, Note_on_c, 0, 62, 100
1, 48189, Note_off_c, 0, 62, 100
1, 48189, Note_on_c, 0, 59, 100
1, 48285, Note_off_c, 0, 59, 100
1, 48285, Note_on_c, 0, 60, 100
1, 48477, Note_off_c, 0, 60, 100
1, 48477, Note_on_c, 0, 62, 100
1, 48573, Note_off_c, 0, 62, 100
1, 48573, Note_on_c, 0, 63, 100
1, 48669, Note_off_c, 0, 63, 100
1, 48669, Note_on_c, 0, 65, 100
1, 48765, Note_off_c, 0, 65, 100
1, 48765, Note_on_c, 0, 67, 100
1, 48861, Note_off_c, 0, 67, 100
1, 50205, Note_on_c, 0, 72, 100
1, 50493, Note_off_c, 0, 72, 100
1, 50493, Note_on_c, 0, 77, 100
1, 50589, Note_off_c, 0, 77, 100
1, 50589, Note_on_c, 0, 72, 100
1, 50685, Note_off_c, 0, 72, 100
1, 50685, Note_on_c, 0, 70, 100
1, 50781, Note_off_c, 0, 70, 100
1, 50781, Note_on_c, 0, 69, 100
1, 50877, Note_off_c, 0, 69, 100
1, 50877, Note_on_c, 0, 68, 100
1, 50973, Note_off_c, 0, 68, 100
1, 50973, Note_on_c, 0, 67, 100
1, 51069, Note_off_c, 0, 67, 100
1, 51069, Note_on_c, 0, 65, 100
1, 51165, Note_off_c, 0, 65, 100
1, 51165, Note_on_c, 0, 66, 100
1, 51261, Note_off_c, 0, 66, 100
1, 51261, Note_on_c, 0, 69, 100
1, 51357, Note_off_c, 0, 69, 100
1, 51357, Note_on_c, 0, 72, 100
1, 51453, Note_off_c, 0, 72, 100
1, 51453, Note_on_c, 0, 75, 100
1, 51645, Note_off_c, 0, 75, 100
1, 51645, Note_on_c, 0, 74, 100
1, 51741, Note_off_c, 0, 74, 100
1, 51741, Note_on_c, 0, 73, 100
1, 51837, Note_off_c, 0, 73, 100
1, 51837, Note_on_c, 0, 72, 100
1, 51933, Note_off_c, 0, 72, 100
1, 51933, Note_on_c, 0, 69, 100
1, 52029, Note_off_c, 0, 69, 100
1, 52029, Note_on_c, 0, 66, 100
1, 52157, Note_off_c, 0, 66, 100
1, 52157, Note_on_c, 0, 66, 100
1, 52221, Note_off_c, 0, 66, 100
1, 52221, Note_on_c, 0, 70, 100
1, 52413, Note_off_c, 0, 70, 100
1, 52413, Note_on_c, 0, 69, 100
1, 52509, Note_off_c, 0, 69, 100
1, 52509, Note_on_c, 0, 68, 100
1, 52605, Note_off_c, 0, 68, 100
1, 52605, Note_on_c, 0, 67, 100
1, 52701, Note_off_c, 0, 67, 100
1, 52701, Note_on_c, 0, 64, 100
1, 52749, Note_off_c, 0, 64, 100
1, 52749, Note_on_c, 0, 59, 100
1, 52893, Note_off_c, 0, 59, 100
1, 52893, Note_on_c, 0, 56, 100
1, 52989, Note_off_c, 0, 56, 100
1, 52989, Note_on_c, 0, 55, 100
1, 53181, Note_off_c, 0, 55, 100
1, 53181, Note_on_c, 0, 58, 100
1, 53277, Note_off_c, 0, 58, 100
1, 53277, Note_on_c, 0, 62, 100
1, 53373, Note_off_c, 0, 62, 100
1, 53373, Note_on_c, 0, 65, 100
1, 53501, Note_off_c, 0, 65, 100
1, 53501, Note_on_c, 0, 62, 100
1, 53565, Note_off_c, 0, 62, 100
1, 53565, Note_on_c, 0, 63, 100
1, 53661, Note_off_c, 0, 63, 100
1, 53661, Note_on_c, 0, 65, 100
1, 53757, Note_off_c, 0, 65, 100
1, 53757, Note_on_c, 0, 67, 100
1, 53949, Note_off_c, 0, 67, 100
1, 53949, Note_on_c, 0, 68, 100
1, 54045, Note_off_c, 0, 68, 100
1, 54045, Note_on_c, 0, 65, 100
1, 54141, Note_off_c, 0, 65, 100
1, 54141, Note_on_c, 0, 61, 100
1, 54285, Note_off_c, 0, 61, 100
1, 54285, Note_on_c, 0, 56, 100
1, 54333, Note_off_c, 0, 56, 100
1, 54333, Note_on_c, 0, 55, 100
1, 54461, Note_off_c, 0, 55, 100
1, 54461, Note_on_c, 0, 55, 100
1, 54573, Note_off_c, 0, 55, 100
1, 54573, Note_on_c, 0, 59, 100
1, 54669, Note_off_c, 0, 59, 100
1, 54669, Note_on_c, 0, 62, 100
1, 54813, Note_off_c, 0, 62, 100
1, 54813, Note_on_c, 0, 60, 100
1, 54909, Note_off_c, 0, 60, 100
1, 54909, Note_on_c, 0, 64, 100
1, 55005, Note_off_c, 0, 64, 100
1, 55005, Note_on_c, 0, 67, 100
1, 55101, Note_off_c, 0, 67, 100
1, 55101, Note_on_c, 0, 71, 100
1, 55197, Note_off_c, 0, 71, 100
1, 55197, Note_on_c, 0, 74, 100
1, 55293, Note_off_c, 0, 74, 100
1, 55293, Note_on_c, 0, 71, 100
1, 55389, Note_off_c, 0, 71, 100
1, 55389, Note_on_c, 0, 67, 100
1, 55485, Note_off_c, 0, 67, 100
1, 55485, Note_on_c, 0, 64, 100
1, 55581, Note_off_c, 0, 64, 100
1, 55581, Note_on_c, 0, 59, 100
1, 55677, Note_off_c, 0, 59, 100
1, 55677, Note_on_c, 0, 62, 100
1, 55773, Note_off_c, 0, 62, 100
1, 55773, Note_on_c, 0, 61, 100
1, 55869, Note_off_c, 0, 61, 100
1, 55869, Note_on_c, 0, 60, 100
1, 55965, Note_off_c, 0, 60, 100
1, 55965, Note_on_c, 0, 59, 100
1, 56061, Note_off_c, 0, 59, 100
1, 56061, Note_on_c, 0, 58, 100
1, 56157, Note_off_c, 0, 58, 100
1, 56157, Note_on_c, 0, 61, 100
1, 56253, Note_off_c, 0, 61, 100
1, 56253, Note_on_c, 0, 66, 100
1, 56349, Note_off_c, 0, 66, 100
1, 56349, Note_on_c, 0, 67, 100
1, 56445, Note_off_c, 0, 67, 100
1, 56445, Note_on_c, 0, 68, 100
1, 56589, Note_off_c, 0, 68, 100
1, 56589, Note_on_c, 0, 69, 100
1, 56733, Note_off_c, 0, 69, 100
1, 56733, Note_on_c, 0, 70, 100
1, 57021, Note_off_c, 0, 70, 100
1, 57021, Note_on_c, 0, 67, 100
1, 57117, Note_off_c, 0, 67, 100
1, 57117, Note_on_c, 0, 68, 100
1, 57213, Note_off_c, 0, 68, 100
1, 57501, Note_on_c, 0, 67, 100
1, 57837, Note_off_c, 0, 67, 100
1, 57837, Note_on_c, 0, 64, 100
1, 57933, Note_off_c, 0, 64, 100
1, 57933, Note_on_c, 0, 65, 100
1, 58029, Note_off_c, 0, 65, 100
1, 58653, Note_on_c, 0, 67, 100
1, 58797, Note_off_c, 0, 67, 100
1, 58797, Note_on_c, 0, 68, 100
1, 58893, Note_off_c, 0, 68, 100
1, 58893, Note_on_c, 0, 72, 100
1, 58941, Note_off_c, 0, 72, 100
1, 58941, Note_on_c, 0, 75, 100
1, 59037, Note_off_c, 0, 75, 100
1, 59037, Note_on_c, 0, 80, 100
1, 59277, Note_off_c, 0, 80, 100
1, 59277, Note_on_c, 0, 79, 100
1, 59421, Note_off_c, 0, 79, 100
1, 59421, Note_on_c, 0, 77, 100
1, 59517, Note_off_c, 0, 77, 100
1, 59517, Note_on_c, 0, 75, 100
1, 59613, Note_off_c, 0, 75, 100
1, 59613, Note_on_c, 0, 71, 100
1, 59901, Note_off_c, 0, 71, 100
1, 59901, Note_on_c, 0, 70, 100
1, 60189, Note_off_c, 0, 70, 100
1, 60189, Note_on_c, 0, 67, 100
1, 60285, Note_off_c, 0, 67, 100
1, 60285, Note_on_c, 0, 68, 100
1, 60381, Note_off_c, 0, 68, 100
1, 60381, Note_on_c, 0, 69, 100
1, 60477, Note_off_c, 0, 69, 100
1, 60477, Note_on_c, 0, 70, 100
1, 60573, Note_off_c, 0, 70, 100
1, 60573, Note_on_c, 0, 71, 100
1, 60669, Note_off_c, 0, 71, 100
1, 60669, Note_on_c, 0, 72, 100
1, 60765, Note_off_c, 0, 72, 100
1, 60765, Note_on_c, 0, 70, 100
1, 60909, Note_off_c, 0, 70, 100
1, 60909, Note_on_c, 0, 67, 100
1, 61053, Note_off_c, 0, 67, 100
1, 61053, Note_on_c, 0, 68, 100
1, 61149, Note_off_c, 0, 68, 100
1, 61149, Note_on_c, 0, 67, 100
1, 61245, Note_off_c, 0, 67, 100
1, 61245, Note_on_c, 0, 63, 100
1, 61341, Note_off_c, 0, 63, 100
1, 61341, Note_on_c, 0, 62, 100
1, 61437, Note_off_c, 0, 62, 100
1, 61437, Note_on_c, 0, 69, 100
1, 61533, Note_off_c, 0, 69, 100
1, 61533, Note_on_c, 0, 65, 100
1, 61629, Note_off_c, 0, 65, 100
1, 61629, Note_on_c, 0, 62, 100
1, 61773, Note_off_c, 0, 62, 100
1, 61773, Note_on_c, 0, 60, 100
1, 61821, Note_off_c, 0, 60, 100
1, 61821, Note_on_c, 0, 59, 100
1, 61917, Note_off_c, 0, 59, 100
1, 61917, Note_on_c, 0, 62, 100
1, 62013, Note_off_c, 0, 62, 100
1, 62013, Note_on_c, 0, 65, 100
1, 62109, Note_off_c, 0, 65, 100
1, 62109, Note_on_c, 0, 68, 100
1, 62205, Note_off_c, 0, 68, 100
1, 62205, Note_on_c, 0, 67, 100
1, 62397, Note_off_c, 0, 67, 100
1, 62397, Note_on_c, 0, 63, 100
1, 62589, Note_off_c, 0, 63, 100
1, 62589, Note_on_c, 0, 62, 100
1, 63309, Note_off_c, 0, 62, 100
1, 63309, Note_on_c, 0, 62, 100
1, 64077, Note_off_c, 0, 62, 100
1, 64077, Note_on_c, 0, 55, 100
1, 64461, Note_off_c, 0, 55, 100
1, 65277, Note_on_c, 0, 60, 100
1, 65421, Note_off_c, 0, 60, 100
1, 65421, Note_on_c, 0, 62, 100
1, 65469, Note_off_c, 0, 62, 100
1, 65469, Note_on_c, 0, 63, 100
1, 65757, Note_off_c, 0, 63, 100
1, 65757, Note_on_c, 0, 60, 100
1, 65805, Note_off_c, 0, 60, 100
1, 65805, Note_on_c, 0, 63, 100
1, 65949, Note_off_c, 0, 63, 100
1, 65949, Note_on_c, 0, 65, 100
1, 66045, Note_off_c, 0, 65, 100
1, 66045, Note_on_c, 0, 66, 100
1, 66141, Note_off_c, 0, 66, 100
1, 66141, Note_on_c, 0, 65, 100
1, 66237, Note_off_c, 0, 65, 100
1, 66237, Note_on_c, 0, 63, 100
1, 66429, Note_off_c, 0, 63, 100
1, 66429, Note_on_c, 0, 62, 100
1, 66557, Note_off_c, 0, 62, 100
1, 66557, Note_on_c, 0, 60, 100
1, 66621, Note_off_c, 0, 60, 100
1, 66621, Note_on_c, 0, 55, 100
1, 66749, Note_off_c, 0, 55, 100
1, 66749, Note_on_c, 0, 60, 100
1, 66845, Note_off_c, 0, 60, 100
1, 68109, Note_on_c, 0, 60, 100
1, 68157, Note_off_c, 0, 60, 100
1, 68157, Note_on_c, 0, 62, 100
1, 68253, Note_off_c, 0, 62, 100
1, 68253, Note_on_c, 0, 59, 100
1, 68301, Note_off_c, 0, 59, 100
1, 68301, Note_on_c, 0, 60, 100
1, 68349, Note_off_c, 0, 60, 100
1, 68349, Note_on_c, 0, 62, 100
1, 68397, Note_off_c, 0, 62, 100
1, 68397, Note_on_c, 0, 63, 100
1, 68637, Note_off_c, 0, 63, 100
1, 68637, Note_on_c, 0, 67, 100
1, 68925, Note_off_c, 0, 67, 100
1, 68925, Note_on_c, 0, 72, 100
1, 69117, Note_off_c, 0, 72, 100
1, 69117, Note_on_c, 0, 57, 100
1, 69405, Note_off_c, 0, 57, 100
1, 69405, Note_on_c, 0, 65, 100
1, 69693, Note_off_c, 0, 65, 100
1, 69693, Note_on_c, 0, 71, 100
1, 69885, Note_off_c, 0, 71, 100
1, 69885, Note_on_c, 0, 55, 100
1, 69981, Note_off_c, 0, 55, 100
1, 70173, Note_on_c, 0, 63, 100
1, 70461, Note_off_c, 0, 63, 100
1, 70461, Note_on_c, 0, 72, 100
1, 70653, Note_off_c, 0, 72, 100
1, 70653, Note_on_c, 0, 62, 100
1, 70749, Note_off_c, 0, 62, 100
1, 70749, Note_on_c, 0, 65, 100
1, 70845, Note_off_c, 0, 65, 100
1, 70845, Note_on_c, 0, 69, 100
1, 70941, Note_off_c, 0, 69, 100
1, 70941, Note_on_c, 0, 72, 100
1, 71037, Note_off_c, 0, 72, 100
1, 71037, Note_on_c, 0, 71, 100
1, 71133, Note_off_c, 0, 71, 100
1, 71133, Note_on_c, 0, 74, 100
1, 71229, Note_off_c, 0, 74, 100
1, 71229, Note_on_c, 0, 67, 100
1, 71325, Note_off_c, 0, 67, 100
1, 72093, Note_on_c, 0, 60, 100
1, 72189, Note_off_c, 0, 60, 100
1, 72189, Note_on_c, 0, 61, 100
1, 72285, Note_off_c, 0, 61, 100
1, 72285, Note_on_c, 0, 65, 100
1, 72381, Note_off_c, 0, 65, 100
1, 72381, Note_on_c, 0, 67, 100
1, 72477, Note_off_c, 0, 67, 100
1, 72477, Note_on_c, 0, 70, 100
1, 72573, Note_off_c, 0, 70, 100
1, 72573, Note_on_c, 0, 72, 100
1, 72717, Note_off_c, 0, 72, 100
1, 72717, Note_on_c, 0, 73, 100
1, 72861, Note_off_c, 0, 73, 100
1, 72861, Note_on_c, 0, 72, 100
1, 73149, Note_off_c, 0, 72, 100
1, 73149, Note_on_c, 0, 70, 100
1, 73293, Note_off_c, 0, 70, 100
1, 73293, Note_on_c, 0, 72, 100
1, 73485, Note_off_c, 0, 72, 100
1, 73485, Note_on_c, 0, 70, 100
1, 73725, Note_off_c, 0, 70, 100
1, 73725, Note_on_c, 0, 68, 100
1, 73821, Note_off_c, 0, 68, 100
1, 73821, Note_on_c, 0, 70, 100
1, 73917, Note_off_c, 0, 70, 100
1, 73917, Note_on_c, 0, 67, 100
1, 74013, Note_off_c, 0, 67, 100
1, 74013, Note_on_c, 0, 68, 100
1, 74109, Note_off_c, 0, 68, 100
1, 74109, Note_on_c, 0, 65, 100
1, 74205, Note_off_c, 0, 65, 100
1, 74205, Note_on_c, 0, 67, 100
1, 74301, Note_off_c, 0, 67, 100
1, 74301, Note_on_c, 0, 68, 100
1, 74493, Note_off_c, 0, 68, 100
1, 74493, Note_on_c, 0, 66, 100
1, 74733, Note_off_c, 0, 66, 100
1, 74733, Note_on_c, 0, 63, 100
1, 74829, Note_off_c, 0, 63, 100
1, 74829, Note_on_c, 0, 60, 100
1, 75021, Note_off_c, 0, 60, 100
1, 75741, Note_on_c, 0, 70, 100
1, 75837, Note_off_c, 0, 70, 100
1, 75837, Note_on_c, 0, 72, 100
1, 75933, Note_off_c, 0, 72, 100
1, 75933, Note_on_c, 0, 75, 100
1, 76029, Note_off_c, 0, 75, 100
1, 76029, Note_on_c, 0, 74, 100
1, 76125, Note_off_c, 0, 74, 100
1, 76125, Note_on_c, 0, 70, 100
1, 76221, Note_off_c, 0, 70, 100
1, 76221, Note_on_c, 0, 72, 100
1, 76317, Note_off_c, 0, 72, 100
1, 76317, Note_on_c, 0, 68, 100
1, 76413, Note_off_c, 0, 68, 100
1, 76413, Note_on_c, 0, 70, 100
1, 76893, Note_off_c, 0, 70, 100
1, 76893, Note_on_c, 0, 67, 100
1, 76989, Note_off_c, 0, 67, 100
1, 76989, Note_on_c, 0, 69, 100
1, 77085, Note_off_c, 0, 69, 100
1, 77085, Note_on_c, 0, 72, 100
1, 77181, Note_off_c, 0, 72, 100
1, 77181, Note_on_c, 0, 71, 100
1, 77277, Note_off_c, 0, 71, 100
1, 77277, Note_on_c, 0, 67, 100
1, 77373, Note_off_c, 0, 67, 100
1, 77373, Note_on_c, 0, 69, 100
1, 77469, Note_off_c, 0, 69, 100
1, 77469, Note_on_c, 0, 65, 100
1, 77565, Note_off_c, 0, 65, 100
1, 77565, Note_on_c, 0, 67, 100
1, 77901, Note_off_c, 0, 67, 100
1, 77901, Note_on_c, 0, 64, 100
1, 77949, Note_off_c, 0, 64, 100
1, 77949, Note_on_c, 0, 65, 100
1, 78045, Note_off_c, 0, 65, 100
1, 78045, Note_on_c, 0, 66, 100
1, 78141, Note_off_c, 0, 66, 100
1, 78141, Note_on_c, 0, 67, 100
1, 78237, Note_off_c, 0, 67, 100
1, 78237, Note_on_c, 0, 64, 100
1, 78333, Note_off_c, 0, 64, 100
1, 78333, Note_on_c, 0, 62, 100
1, 78429, Note_off_c, 0, 62, 100
1, 78429, Note_on_c, 0, 61, 100
1, 78477, Note_off_c, 0, 61, 100
1, 78477, Note_on_c, 0, 60, 100
1, 78525, Note_off_c, 0, 60, 100
1, 78525, Note_on_c, 0, 59, 100
1, 78621, Note_off_c, 0, 59, 100
1, 78621, Note_on_c, 0, 60, 100
1, 78669, Note_off_c, 0, 60, 100
1, 78669, Note_on_c, 0, 61, 100
1, 78717, Note_off_c, 0, 61, 100
1, 78717, Note_on_c, 0, 60, 100
1, 78765, Note_off_c, 0, 60, 100
1, 78765, Note_on_c, 0, 62, 100
1, 78813, Note_off_c, 0, 62, 100
1, 78813, Note_on_c, 0, 60, 100
1, 78909, Note_off_c, 0, 60, 100
1, 78909, Note_on_c, 0, 59, 100
1, 79005, Note_off_c, 0, 59, 100
1, 79005, Note_on_c, 0, 62, 100
1, 79053, Note_off_c, 0, 62, 100
1, 79053, Note_on_c, 0, 60, 100
1, 79101, Note_off_c, 0, 60, 100
1, 79101, Note_on_c, 0, 62, 100
1, 79773, Note_off_c, 0, 62, 100
1, 79773, Note_on_c, 0, 67, 100
1, 80253, Note_off_c, 0, 67, 100
1, 80781, Note_on_c, 0, 62, 100
1, 80925, Note_off_c, 0, 62, 100
1, 80925, Note_on_c, 0, 62, 100
1, 81069, Note_off_c, 0, 62, 100
1, 81069, Note_on_c, 0, 62, 100
1, 81165, Note_off_c, 0, 62, 100
1, 81165, Note_on_c, 0, 59, 100
1, 81277, Note_off_c, 0, 59, 100
1, 81277, Note_on_c, 0, 60, 100
1, 81405, Note_off_c, 0, 60, 100
1, 81405, Note_on_c, 0, 70, 100
1, 81597, Note_off_c, 0, 70, 100
1, 81597, Note_on_c, 0, 68, 100
1, 81693, Note_off_c, 0, 68, 100
1, 81693, Note_on_c, 0, 63, 100
1, 81741, Note_off_c, 0, 63, 100
1, 81741, Note_on_c, 0, 59, 100
1, 81789, Note_off_c, 0, 59, 100
1, 81789, Note_on_c, 0, 58, 100
1, 81885, Note_off_c, 0, 58, 100
1, 81885, Note_on_c, 0, 56, 100
1, 82077, Note_off_c, 0, 56, 100
1, 82077, Note_on_c, 0, 56, 100
1, 82173, Note_off_c, 0, 56, 100
1, 82173, Note_on_c, 0, 62, 100
1, 82317, Note_off_c, 0, 62, 100
1, 82317, Note_on_c, 0, 59, 100
1, 82461, Note_off_c, 0, 59, 100
1, 82461, Note_on_c, 0, 62, 100
1, 82557, Note_off_c, 0, 62, 100
1, 82557, Note_on_c, 0, 63, 100
1, 82653, Note_off_c, 0, 63, 100
1, 82653, Note_on_c, 0, 65, 100
1, 82749, Note_off_c, 0, 65, 100
1, 82749, Note_on_c, 0, 67, 100
1, 82845, Note_off_c, 0, 67, 100
1, 82845, Note_on_c, 0, 68, 100
1, 82941, Note_off_c, 0, 68, 100
1, 82941, Note_on_c, 0, 70, 100
1, 83133, Note_off_c, 0, 70, 100
1, 83133, Note_on_c, 0, 72, 100
1, 83261, Note_off_c, 0, 72, 100
1, 83261, Note_on_c, 0, 72, 100
1, 83645, Note_off_c, 0, 72, 100
1, 84669, Note_on_c, 0, 77, 100
1, 84797, Note_off_c, 0, 77, 100
1, 84797, Note_on_c, 0, 76, 100
1, 84861, Note_off_c, 0, 76, 100
1, 84861, Note_on_c, 0, 72, 100
1, 84957, Note_off_c, 0, 72, 100
1, 84957, Note_on_c, 0, 75, 100
1, 85053, Note_off_c, 0, 75, 100
1, 85053, Note_on_c, 0, 74, 100
1, 85197, Note_off_c, 0, 74, 100
1, 85197, Note_on_c, 0, 70, 100
1, 85437, Note_off_c, 0, 70, 100
1, 85437, Note_on_c, 0, 71, 100
1, 85629, Note_off_c, 0, 71, 100
1, 85629, Note_on_c, 0, 72, 100
1, 85821, Note_off_c, 0, 72, 100
1, 85821, Note_on_c, 0, 65, 100
1, 86013, Note_off_c, 0, 65, 100
1, 86013, Note_on_c, 0, 68, 100
1, 86157, Note_off_c, 0, 68, 100
1, 86157, Note_on_c, 0, 69, 100
1, 86301, Note_off_c, 0, 69, 100
1, 86301, Note_on_c, 0, 70, 100
1, 86541, Note_off_c, 0, 70, 100
1, 86541, Note_on_c, 0, 58, 100
1, 86733, Note_off_c, 0, 58, 100
1, 86733, Note_on_c, 0, 58, 100
1, 86781, Note_off_c, 0, 58, 100
1, 86781, Note_on_c, 0, 66, 100
1, 86973, Note_off_c, 0, 66, 100
1, 86973, Note_on_c, 0, 67, 100
1, 87165, Note_off_c, 0, 67, 100
1, 87165, Note_on_c, 0, 68, 100
1, 87357, Note_off_c, 0, 68, 100
1, 87357, Note_on_c, 0, 60, 100
1, 87549, Note_off_c, 0, 60, 100
1, 87549, Note_on_c, 0, 65, 100
1, 87693, Note_off_c, 0, 65, 100
1, 87693, Note_on_c, 0, 66, 100
1, 87837, Note_off_c, 0, 66, 100
1, 87837, Note_on_c, 0, 67, 100
1, 88029, Note_off_c, 0, 67, 100
1, 88029, Note_on_c, 0, 60, 100
1, 88221, Note_off_c, 0, 60, 100
1, 88221, Note_on_c, 0, 64, 100
1, 88797, Note_off_c, 0, 64, 100
1, 89181, Note_on_c, 0, 62, 100
1, 89229, Note_off_c, 0, 62, 100
1, 89229, Note_on_c, 0, 59, 100
1, 89373, Note_off_c, 0, 59, 100
1, 89373, Note_on_c, 0, 60, 100
1, 89469, Note_off_c, 0, 60, 100
1, 89469, Note_on_c, 0, 64, 100
1, 89565, Note_off_c, 0, 64, 100
1, 89565, Note_on_c, 0, 67, 100
1, 89757, Note_off_c, 0, 67, 100
1, 89757, Note_on_c, 0, 69, 100
1, 90429, Note_off_c, 0, 69, 100
1, 90717, Note_on_c, 0, 70, 100
1, 90813, Note_off_c, 0, 70, 100
1, 90813, Note_on_c, 0, 72, 100
1, 90941, Note_off_c, 0, 72, 100
1, 90941, Note_on_c, 0, 73, 100
1, 91053, Note_off_c, 0, 73, 100
1, 91053, Note_on_c, 0, 72, 100
1, 91197, Note_off_c, 0, 72, 100
1, 91197, Note_on_c, 0, 70, 100
1, 91293, Note_off_c, 0, 70, 100
1, 91293, Note_on_c, 0, 67, 100
1, 91869, Note_off_c, 0, 67, 100
1, 92157, Note_on_c, 0, 60, 100
1, 92253, Note_off_c, 0, 60, 100
1, 92253, Note_on_c, 0, 65, 100
1, 92349, Note_off_c, 0, 65, 100
1, 92349, Note_on_c, 0, 67, 100
1, 92445, Note_off_c, 0, 67, 100
1, 92445, Note_on_c, 0, 68, 100
1, 92541, Note_off_c, 0, 68, 100
1, 92541, Note_on_c, 0, 70, 100
1, 92685, Note_off_c, 0, 70, 100
1, 92685, Note_on_c, 0, 71, 100
1, 92877, Note_off_c, 0, 71, 100
1, 92877, Note_on_c, 0, 68, 100
1, 93453, Note_off_c, 0, 68, 100
1, 93789, Note_on_c, 0, 56, 100
1, 93933, Note_off_c, 0, 56, 100
1, 93933, Note_on_c, 0, 59, 100
1, 94029, Note_off_c, 0, 59, 100
1, 94029, Note_on_c, 0, 62, 100
1, 94125, Note_off_c, 0, 62, 100
1, 94125, Note_on_c, 0, 64, 100
1, 94221, Note_off_c, 0, 64, 100
1, 94221, Note_on_c, 0, 68, 100
1, 94365, Note_off_c, 0, 68, 100
1, 94365, Note_on_c, 0, 70, 100
1, 94653, Note_off_c, 0, 70, 100
1, 94653, Note_on_c, 0, 67, 100
1, 94749, Note_off_c, 0, 67, 100
1, 94749, Note_on_c, 0, 68, 100
1, 94845, Note_off_c, 0, 68, 100
1, 94845, Note_on_c, 0, 65, 100
1, 94941, Note_off_c, 0, 65, 100
1, 94941, Note_on_c, 0, 66, 100
1, 95133, Note_off_c, 0, 66, 100
1, 95133, Note_on_c, 0, 67, 100
1, 95421, Note_off_c, 0, 67, 100
1, 95421, Note_on_c, 0, 64, 100
1, 95549, Note_off_c, 0, 64, 100
1, 95549, Note_on_c, 0, 60, 100
1, 95613, Note_off_c, 0, 60, 100
1, 95613, Note_on_c, 0, 59, 100
1, 95757, Note_off_c, 0, 59, 100
1, 95757, Note_on_c, 0, 65, 100
1, 95901, Note_off_c, 0, 65, 100
1, 95901, Note_on_c, 0, 67, 100
1, 96669, Note_off_c, 0, 67, 100
1, 96669, Note_on_c, 0, 65, 100
1, 96717, Note_off_c, 0, 65, 100
1, 96717, Note_on_c, 0, 63, 100
1, 96765, Note_off_c, 0, 63, 100
1, 96765, Note_on_c, 0, 62, 100
1, 96861, Note_off_c, 0, 62, 100
1, 96861, Note_on_c, 0, 62, 100
1, 97245, Note_off_c, 0, 62, 100
1, 97629, Note_on_c, 0, 60, 100
1, 97725, Note_off_c, 0, 60, 100
1, 97725, Note_on_c, 0, 62, 100
1, 97821, Note_off_c, 0, 62, 100
1, 97821, Note_on_c, 0, 59, 100
1, 97917, Note_off_c, 0, 59, 100
1, 97917, Note_on_c, 0, 60, 100
1, 98045, Note_off_c, 0, 60, 100
1, 98045, Note_on_c, 0, 62, 100
1, 98109, Note_off_c, 0, 62, 100
1, 98109, Note_on_c, 0, 63, 100
1, 98205, Note_off_c, 0, 63, 100
1, 98205, Note_on_c, 0, 65, 100
1, 98397, Note_off_c, 0, 65, 100
1, 98397, Note_on_c, 0, 57, 100
1, 98493, Note_off_c, 0, 57, 100
1, 98493, Note_on_c, 0, 60, 100
1, 98589, Note_off_c, 0, 60, 100
1, 98589, Note_on_c, 0, 59, 100
1, 98781, Note_off_c, 0, 59, 100
1, 99165, Note_on_c, 0, 67, 100
1, 99453, Note_off_c, 0, 67, 100
1, 99453, Note_on_c, 0, 65, 100
1, 99549, Note_off_c, 0, 65, 100
1, 99549, Note_on_c, 0, 63, 100
1, 99645, Note_off_c, 0, 63, 100
1, 99645, Note_on_c, 0, 60, 100
1, 99741, Note_off_c, 0, 60, 100
1, 99741, Note_on_c, 0, 56, 100
1, 99789, Note_off_c, 0, 56, 100
1, 99789, Note_on_c, 0, 57, 100
1, 99933, Note_off_c, 0, 57, 100
1, 99933, Note_on_c, 0, 60, 100
1, 100029, Note_off_c, 0, 60, 100
1, 100029, Note_on_c, 0, 63, 100
1, 100125, Note_off_c, 0, 63, 100
1, 100125, Note_on_c, 0, 66, 100
1, 100221, Note_off_c, 0, 66, 100
1, 100221, Note_on_c, 0, 65, 100
1, 100317, Note_off_c, 0, 65, 100
1, 100317, Note_on_c, 0, 63, 100
1, 100413, Note_off_c, 0, 63, 100
1, 100413, Note_on_c, 0, 60, 100
1, 100509, Note_off_c, 0, 60, 100
1, 100509, Note_on_c, 0, 62, 100
1, 100605, Note_off_c, 0, 62, 100
1, 100605, Note_on_c, 0, 63, 100
1, 100701, Note_off_c, 0, 63, 100
1, 100701, Note_on_c, 0, 60, 100
1, 100797, Note_off_c, 0, 60, 100
1, 100797, Note_on_c, 0, 62, 100
1, 100893, Note_off_c, 0, 62, 100
1, 100893, Note_on_c, 0, 59, 100
1, 100989, Note_off_c, 0, 59, 100
1, 100989, Note_on_c, 0, 60, 100
1, 101085, Note_off_c, 0, 60, 100
1, 101085, Note_on_c, 0, 62, 100
1, 101133, Note_off_c, 0, 62, 100
1, 101133, Note_on_c, 0, 63, 100
1, 101277, Note_off_c, 0, 63, 100
1, 101277, Note_on_c, 0, 65, 100
1, 101373, Note_off_c, 0, 65, 100
1, 101373, Note_on_c, 0, 66, 100
1, 101469, Note_off_c, 0, 66, 100
1, 101469, Note_on_c, 0, 65, 100
1, 101565, Note_off_c, 0, 65, 100
1, 101565, Note_on_c, 0, 63, 100
1, 101757, Note_off_c, 0, 63, 100
1, 101757, Note_on_c, 0, 65, 100
1, 101853, Note_off_c, 0, 65, 100
1, 101853, Note_on_c, 0, 63, 100
1, 101949, Note_off_c, 0, 63, 100
1, 101949, Note_on_c, 0, 60, 100
1, 101997, Note_off_c, 0, 60, 100
1, 101997, Note_on_c, 0, 58, 100
1, 102045, Note_off_c, 0, 58, 100
1, 102045, Note_on_c, 0, 60, 100
1, 102763, Note_off_c, 0, 60, 100
1, 102763, End_track
0, 0, End_of_file
