0, 0, Header, 1, 1, 192
1, 0, Start_track
1, 0, Title_t, "Melody"
1, 0, Tempo, 731707
1, 0, Key_signature, -4, "major"
1, 0, Time_signature, 4, 2, 24, 8
1, 96, Note_on_c, 0, 56, 100
1, 128, Note_off_c, 0, 56, 100
1, 128, Note_on_c, 0, 58, 100
1, 159, Note_off_c, 0, 58, 100
1, 159, Note_on_c, 0, 60, 100
1, 191, Note_off_c, 0, 60, 100
1, 191, Note_on_c, 0, 51, 100
1, 287, Note_off_c, 0, 51, 100
1, 287, Note_on_c, 0, 51, 100
1, 671, Note_off_c, 0, 51, 100
1, 671, Note_on_c, 0, 50, 100
1, 719, Note_off_c, 0, 50, 100
1, 719, Note_on_c, 0, 51, 100
1, 815, Note_off_c, 0, 51, 100
1, 815, Note_on_c, 0, 53, 100
1, 1103, Note_off_c, 0, 53, 100
1, 1439, Note_on_c, 0, 51, 100
1, 1487, Note_off_c, 0, 51, 100
1, 1487, Note_on_c, 0, 52, 100
1, 1535, Note_off_c, 0, 52, 100
1, 1535, Note_on_c, 0, 53, 100
1, 1599, Note_off_c, 0, 53, 100
1, 1599, Note_on_c, 0, 54, 100
1, 1663, Note_off_c, 0, 54, 100
1, 1663, Note_on_c, 0, 55, 100
1, 2143, Note_off_c, 0, 55, 100
1, 2143, Note_on_c, 0, 55, 100
1, 2207, Note_off_c, 0, 55, 100
1, 2207, Note_on_c, 0, 54, 100
1, 2239, Note_off_c, 0, 54, 100
1, 2239, Note_on_c, 0, 53, 100
1, 2271, Note_off_c, 0, 53, 100
1, 2271, Note_on_c, 0, 52, 100
1, 2303, Note_off_c, 0, 52, 100
1, 2303, Note_on_c, 0, 51, 100
1, 2399, Note_off_c, 0, 51, 100
1, 2399, Note_on_c, 0, 55, 100
1, 2687, Note_off_c, 0, 55, 100
1, 3167, Note_on_c, 0, 54, 100
1, 3215, Note_off_c, 0, 54, 100
1, 3215, Note_on_c, 0, 55, 100
1, 3311, Note_off_c, 0, 55, 100
1, 3311, Note_on_c, 0, 56, 100
1, 3455, Note_off_c, 0, 56, 100
1, 3455, Note_on_c, 0, 56, 100
1, 3551, Note_off_c, 0, 56, 100
1, 3551, Note_on_c, 0, 56, 100
1, 3791, Note_off_c, 0, 56, 100
1, 3791, Note_on_c, 0, 53, 100
1, 3887, Note_off_c, 0, 53, 100
1, 3887, Note_on_c, 0, 54, 100
1, 3935, Note_off_c, 0, 54, 100
1, 3935, Note_on_c, 0, 55, 100
1, 3983, Note_off_c, 0, 55, 100
1, 3983, Note_on_c, 0, 56, 100
1, 4079, Note_off_c, 0, 56, 100
1, 4079, Note_on_c, 0, 61, 100
1, 4175, Note_off_c, 0, 61, 100
1, 4175, Note_on_c, 0, 53, 100
1, 4463, Note_off_c, 0, 53, 100
1, 4895, Note_on_c, 0, 53, 100
1, 4943, Note_off_c, 0, 53, 100
1, 4943, Note_on_c, 0, 54, 100
1, 4991, Note_off_c, 0, 54, 100
1, 4991, Note_on_c, 0, 55, 100
1, 5055, Note_off_c, 0, 55, 100
1, 5055, Note_on_c, 0, 58, 100
1, 5119, Note_off_c, 0, 58, 100
1, 5119, Note_on_c, 0, 57, 100
1, 5183, Note_off_c, 0, 57, 100
1, 5183, Note_on_c, 0, 56, 100
1, 5231, Note_off_c, 0, 56, 100
1, 5231, Note_on_c, 0, 61, 100
1, 5327, Note_off_c, 0, 61, 100
1, 5327, Note_on_c, 0, 52, 100
1, 5711, Note_off_c, 0, 52, 100
1, 5999, Note_on_c, 0, 56, 100
1, 6095, Note_off_c, 0, 56, 100
1, 6095, Note_on_c, 0, 58, 100
1, 6191, Note_off_c, 0, 58, 100
1, 6191, Note_on_c, 0, 59, 100
1, 6239, Note_off_c, 0, 59, 100
1, 6239, Note_on_c, 0, 60, 100
1, 7055, Note_off_c, 0, 60, 100
1, 7055, Note_on_c, 0, 53, 100
1, 7151, Note_off_c, 0, 53, 100
1, 7151, Note_on_c, 0, 54, 100
1, 7199, Note_off_c, 0, 54, 100
1, 7199, Note_on_c, 0, 56, 100
1, 7247, Note_off_c, 0, 56, 100
1, 7247, Note_on_c, 0, 58, 100
1, 7295, Note_off_c, 0, 58, 100
1, 7295, Note_on_c, 0, 60, 100
1, 7359, Note_off_c, 0, 60, 100
1, 7359, Note_on_c, 0, 61, 100
1, 7423, Note_off_c, 0, 61, 100
1, 7423, Note_on_c, 0, 63, 100
1, 7487, Note_off_c, 0, 63, 100
1, 7487, Note_on_c, 0, 66, 100
1, 7535, Note_off_c, 0, 66, 100
1, 7535, Note_on_c, 0, 64, 100
1, 7631, Note_off_c, 0, 64, 100
1, 7631, Note_on_c, 0, 59, 100
1, 7679, Note_off_c, 0, 59, 100
1, 7679, Note_on_c, 0, 60, 100
1, 7775, Note_off_c, 0, 60, 100
1, 7775, Note_on_c, 0, 63, 100
1, 7823, Note_off_c, 0, 63, 100
1, 7823, Note_on_c, 0, 58, 100
1, 7871, Note_off_c, 0, 58, 100
1, 7871, Note_on_c, 0, 55, 100
1, 7967, Note_off_c, 0, 55, 100
1, 7967, Note_on_c, 0, 56, 100
1, 8207, Note_off_c, 0, 56, 100
1, 8207, Note_on_c, 0, 56, 100
1, 8255, Note_off_c, 0, 56, 100
1, 8255, Note_on_c, 0, 54, 100
1, 8293, Note_off_c, 0, 54, 100
1, 8293, Note_on_c, 0, 53, 100
1, 8331, Note_off_c, 0, 53, 100
1, 8331, Note_on_c, 0, 52, 100
1, 8369, Note_off_c, 0, 52, 100
1, 8369, Note_on_c, 0, 51, 100
1, 8407, Note_off_c, 0, 51, 100
1, 8407, Note_on_c, 0, 63, 100
1, 8445, Note_off_c, 0, 63, 100
1, 8445, Note_on_c, 0, 60, 100
1, 8493, Note_off_c, 0, 60, 100
1, 8493, Note_on_c, 0, 58, 100
1, 8541, Note_off_c, 0, 58, 100
1, 8541, Note_on_c, 0, 57, 100
1, 8589, Note_off_c, 0, 57, 100
1, 8589, Note_on_c, 0, 56, 100
1, 8637, Note_off_c, 0, 56, 100
1, 8637, Note_on_c, 0, 55, 100
1, 8829, Note_off_c, 0, 55, 100
1, 8829, Note_on_c, 0, 53, 100
1, 8893, Note_off_c, 0, 53, 100
1, 8893, Note_on_c, 0, 51, 100
1, 8957, Note_off_c, 0, 51, 100
1, 8957, Note_on_c, 0, 53, 100
1, 9021, Note_off_c, 0, 53, 100
1, 9021, Note_on_c, 0, 51, 100
1, 9069, Note_off_c, 0, 51, 100
1, 9069, Note_on_c, 0, 53, 100
1, 9165, Note_off_c, 0, 53, 100
1, 9405, Note_on_c, 0, 48, 100
1, 9501, Note_off_c, 0, 48, 100
1, 9501, Note_on_c, 0, 51, 100
1, 9549, Note_off_c, 0, 51, 100
1, 9549, Note_on_c, 0, 53, 100
1, 9645, Note_off_c, 0, 53, 100
1, 9645, Note_on_c, 0, 54, 100
1, 9693, Note_off_c, 0, 54, 100
1, 9693, Note_on_c, 0, 55, 100
1, 9741, Note_off_c, 0, 55, 100
1, 9741, Note_on_c, 0, 51, 100
1, 9789, Note_off_c, 0, 51, 100
1, 9789, Note_on_c, 0, 53, 100
1, 9837, Note_off_c, 0, 53, 100
1, 9837, Note_on_c, 0, 55, 100
1, 9885, Note_off_c, 0, 55, 100
1, 9885, Note_on_c, 0, 51, 100
1, 9933, Note_off_c, 0, 51, 100
1, 9933, Note_on_c, 0, 53, 100
1, 9981, Note_off_c, 0, 53, 100
1, 9981, Note_on_c, 0, 55, 100
1, 10173, Note_off_c, 0, 55, 100
1, 10437, Note_on_c, 0, 50, 100
1, 10461, Note_off_c, 0, 50, 100
1, 10461, Note_on_c, 0, 51, 100
1, 10485, Note_off_c, 0, 51, 100
1, 10485, Note_on_c, 0, 53, 100
1, 10509, Note_off_c, 0, 53, 100
1, 10509, Note_on_c, 0, 56, 100
1, 10533, Note_off_c, 0, 56, 100
1, 10533, Note_on_c, 0, 58, 100
1, 10557, Note_off_c, 0, 58, 100
1, 10557, Note_on_c, 0, 61, 100
1, 10589, Note_off_c, 0, 61, 100
1, 10589, Note_on_c, 0, 60, 100
1, 10653, Note_off_c, 0, 60, 100
1, 10653, Note_on_c, 0, 58, 100
1, 10685, Note_off_c, 0, 58, 100
1, 10685, Note_on_c, 0, 56, 100
1, 10717, Note_off_c, 0, 56, 100
1, 10717, Note_on_c, 0, 54, 100
1, 10813, Note_off_c, 0, 54, 100
1, 10813, Note_on_c, 0, 53, 100
1, 10877, Note_off_c, 0, 53, 100
1, 10877, Note_on_c, 0, 55, 100
1, 10941, Note_off_c, 0, 55, 100
1, 10941, Note_on_c, 0, 56, 100
1, 11421, Note_off_c, 0, 56, 100
1, 11421, Note_on_c, 0, 54, 100
1, 11469, Note_off_c, 0, 54, 100
1, 11469, Note_on_c, 0, 53, 100
1, 11517, Note_off_c, 0, 53, 100
1, 11517, Note_on_c, 0, 56, 100
1, 11581, Note_off_c, 0, 56, 100
1, 11581, Note_on_c, 0, 61, 100
1, 11645, Note_off_c, 0, 61, 100
1, 11645, Note_on_c, 0, 53, 100
1, 11965, Note_off_c, 0, 53, 100
1, 11965, Note_on_c, 0, 51, 100
1, 12029, Note_off_c, 0, 51, 100
1, 12029, Note_on_c, 0, 54, 100
1, 12093, Note_off_c, 0, 54, 100
1, 12093, Note_on_c, 0, 51, 100
1, 12131, Note_off_c, 0, 51, 100
1, 12131, Note_on_c, 0, 52, 100
1, 12169, Note_off_c, 0, 52, 100
1, 12169, Note_on_c, 0, 55, 100
1, 12207, Note_off_c, 0, 55, 100
1, 12207, Note_on_c, 0, 60, 100
1, 12283, Note_off_c, 0, 60, 100
1, 12283, Note_on_c, 0, 58, 100
1, 12379, Note_off_c, 0, 58, 100
1, 12379, Note_on_c, 0, 56, 100
1, 12475, Note_off_c, 0, 56, 100
1, 12475, Note_on_c, 0, 56, 100
1, 12763, Note_off_c, 0, 56, 100
1, 12955, Note_on_c, 0, 56, 100
1, 13003, Note_off_c, 0, 56, 100
1, 13003, Note_on_c, 0, 61, 100
1, 13105, Note_off_c, 0, 61, 100
1, 13105, Note_on_c, 0, 56, 100
1, 13201, Note_off_c, 0, 56, 100
1, 13201, Note_on_c, 0, 55, 100
1, 13214, Note_off_c, 0, 55, 100
1, 13214, Note_on_c, 0, 54, 100
1, 13227, Note_off_c, 0, 54, 100
1, 13227, Note_on_c, 0, 53, 100
1, 13240, Note_off_c, 0, 53, 100
1, 13240, Note_on_c, 0, 52, 100
1, 13432, Note_off_c, 0, 52, 100
1, 13688, Note_on_c, 0, 56, 100
1, 13752, Note_off_c, 0, 56, 100
1, 13752, Note_on_c, 0, 58, 100
1, 13816, Note_off_c, 0, 58, 100
1, 13816, Note_on_c, 0, 59, 100
1, 13864, Note_off_c, 0, 59, 100
1, 13864, Note_on_c, 0, 60, 100
1, 14440, Note_off_c, 0, 60, 100
1, 14680, Note_on_c, 0, 54, 100
1, 14776, Note_off_c, 0, 54, 100
1, 14776, Note_on_c, 0, 55, 100
1, 14872, Note_off_c, 0, 55, 100
1, 14872, Note_on_c, 0, 57, 100
1, 14920, Note_off_c, 0, 57, 100
1, 14920, Note_on_c, 0, 58, 100
1, 14968, Note_off_c, 0, 58, 100
1, 14968, Note_on_c, 0, 60, 100
1, 15016, Note_off_c, 0, 60, 100
1, 15016, Note_on_c, 0, 61, 100
1, 15112, Note_off_c, 0, 61, 100
1, 15112, Note_on_c, 0, 64, 100
1, 15160, Note_off_c, 0, 64, 100
1, 15160, Note_on_c, 0, 67, 100
1, 15236, Note_off_c, 0, 67, 100
1, 15236, Note_on_c, 0, 66, 100
1, 15274, Note_off_c, 0, 66, 100
1, 15274, Note_on_c, 0, 67, 100
1, 15312, Note_off_c, 0, 67, 100
1, 15312, Note_on_c, 0, 66, 100
1, 15350, Note_off_c, 0, 66, 100
1, 15350, Note_on_c, 0, 67, 100
1, 15414, Note_off_c, 0, 67, 100
1, 15414, Note_on_c, 0, 65, 100
1, 15478, Note_off_c, 0, 65, 100
1, 15478, Note_on_c, 0, 60, 100
1, 15670, Note_off_c, 0, 60, 100
1, 15878, Note_on_c, 0, 53, 100
1, 15974, Note_off_c, 0, 53, 100
1, 15974, Note_on_c, 0, 56, 100
1, 16022, Note_off_c, 0, 56, 100
1, 16022, Note_on_c, 0, 57, 100
1, 16070, Note_off_c, 0, 57, 100
1, 16070, Note_on_c, 0, 58, 100
1, 16118, Note_off_c, 0, 58, 100
1, 16118, Note_on_c, 0, 59, 100
1, 16182, Note_off_c, 0, 59, 100
1, 16182, Note_on_c, 0, 63, 100
1, 16246, Note_off_c, 0, 63, 100
1, 16246, Note_on_c, 0, 61, 100
1, 16310, Note_off_c, 0, 61, 100
1, 16310, Note_on_c, 0, 53, 100
1, 16598, Note_off_c, 0, 53, 100
1, 16598, Note_on_c, 0, 53, 100
1, 16694, Note_off_c, 0, 53, 100
1, 16694, Note_on_c, 0, 56, 100
1, 16742, Note_off_c, 0, 56, 100
1, 16742, Note_on_c, 0, 63, 100
1, 16790, Note_off_c, 0, 63, 100
1, 16790, Note_on_c, 0, 61, 100
1, 16838, Note_off_c, 0, 61, 100
1, 16838, Note_on_c, 0, 56, 100
1, 16907, Note_off_c, 0, 56, 100
1, 16907, Note_on_c, 0, 58, 100
1, 16949, Note_off_c, 0, 58, 100
1, 16949, Note_on_c, 0, 59, 100
1, 16970, Note_off_c, 0, 59, 100
1, 16970, Note_on_c, 0, 60, 100
1, 17034, Note_off_c, 0, 60, 100
1, 17034, Note_on_c, 0, 59, 100
1, 17055, Note_off_c, 0, 59, 100
1, 17055, Note_on_c, 0, 60, 100
1, 17140, Note_off_c, 0, 60, 100
1, 17140, Note_on_c, 0, 60, 100
1, 17428, Note_off_c, 0, 60, 100
1, 17748, Note_on_c, 0, 54, 100
1, 17844, Note_off_c, 0, 54, 100
1, 17844, Note_on_c, 0, 55, 100
1, 17892, Note_off_c, 0, 55, 100
1, 17892, Note_on_c, 0, 58, 100
1, 17940, Note_off_c, 0, 58, 100
1, 17940, Note_on_c, 0, 55, 100
1, 17988, Note_off_c, 0, 55, 100
1, 17988, Note_on_c, 0, 61, 100
1, 18036, Note_off_c, 0, 61, 100
1, 18036, Note_on_c, 0, 58, 100
1, 18100, Note_off_c, 0, 58, 100
1, 18100, Note_on_c, 0, 63, 100
1, 18164, Note_off_c, 0, 63, 100
1, 18164, Note_on_c, 0, 64, 100
1, 18468, Note_off_c, 0, 64, 100
1, 18468, Note_on_c, 0, 67, 100
1, 18516, Note_off_c, 0, 67, 100
1, 18516, Note_on_c, 0, 65, 100
1, 18564, Note_off_c, 0, 65, 100
1, 18564, Note_on_c, 0, 60, 100
1, 18612, Note_off_c, 0, 60, 100
1, 18612, Note_on_c, 0, 56, 100
1, 18708, Note_off_c, 0, 56, 100
1, 18708, Note_on_c, 0, 60, 100
1, 19092, Note_off_c, 0, 60, 100
1, 19092, Note_on_c, 0, 59, 100
1, 19188, Note_off_c, 0, 59, 100
1, 19188, Note_on_c, 0, 60, 100
1, 19284, Note_off_c, 0, 60, 100
1, 19284, Note_on_c, 0, 66, 100
1, 19332, Note_off_c, 0, 66, 100
1, 19332, Note_on_c, 0, 67, 100
1, 19380, Note_off_c, 0, 67, 100
1, 19380, Note_on_c, 0, 65, 100
1, 19572, Note_off_c, 0, 65, 100
1, 19828, Note_on_c, 0, 65, 100
1, 19892, Note_off_c, 0, 65, 100
1, 19892, Note_on_c, 0, 61, 100
1, 19956, Note_off_c, 0, 61, 100
1, 19956, Note_on_c, 0, 53, 100
1, 20020, Note_off_c, 0, 53, 100
1, 20020, Note_on_c, 0, 56, 100
1, 20084, Note_off_c, 0, 56, 100
1, 20084, Note_on_c, 0, 58, 100
1, 20276, Note_off_c, 0, 58, 100
1, 20460, Note_on_c, 0, 67, 100
1, 20484, Note_off_c, 0, 67, 100
1, 20484, Note_on_c, 0, 68, 100
1, 20508, Note_off_c, 0, 68, 100
1, 20508, Note_on_c, 0, 67, 100
1, 20532, Note_off_c, 0, 67, 100
1, 20532, Note_on_c, 0, 65, 100
1, 20580, Note_off_c, 0, 65, 100
1, 20580, Note_on_c, 0, 67, 100
1, 20628, Note_off_c, 0, 67, 100
1, 20628, Note_on_c, 0, 65, 100
1, 20676, Note_off_c, 0, 65, 100
1, 20676, Note_on_c, 0, 62, 100
1, 20724, Note_off_c, 0, 62, 100
1, 20724, Note_on_c, 0, 61, 100
1, 20788, Note_off_c, 0, 61, 100
1, 20788, Note_on_c, 0, 63, 100
1, 20852, Note_off_c, 0, 63, 100
1, 20852, Note_on_c, 0, 60, 100
1, 21184, Note_off_c, 0, 60, 100
1, 21184, Note_on_c, 0, 53, 100
1, 21222, Note_off_c, 0, 53, 100
1, 21222, Note_on_c, 0, 55, 100
1, 21260, Note_off_c, 0, 55, 100
1, 21260, Note_on_c, 0, 56, 100
1, 21298, Note_off_c, 0, 56, 100
1, 21298, Note_on_c, 0, 59, 100
1, 21374, Note_off_c, 0, 59, 100
1, 21374, Note_on_c, 0, 61, 100
1, 21412, Note_off_c, 0, 61, 100
1, 21412, Note_on_c, 0, 59, 100
1, 21450, Note_off_c, 0, 59, 100
1, 21450, Note_on_c, 0, 61, 100
1, 21536, Note_off_c, 0, 61, 100
1, 21536, Note_on_c, 0, 59, 100
1, 21584, Note_off_c, 0, 59, 100
1, 21584, Note_on_c, 0, 60, 100
1, 21632, Note_off_c, 0, 60, 100
1, 21632, Note_on_c, 0, 63, 100
1, 21680, Note_off_c, 0, 63, 100
1, 21680, Note_on_c, 0, 58, 100
1, 21744, Note_off_c, 0, 58, 100
1, 21744, Note_on_c, 0, 56, 100
1, 21808, Note_off_c, 0, 56, 100
1, 21808, Note_on_c, 0, 51, 100
1, 22160, Note_off_c, 0, 51, 100
1, 22160, Note_on_c, 0, 52, 100
1, 22256, Note_off_c, 0, 52, 100
1, 22256, Note_on_c, 0, 53, 100
1, 22640, Note_off_c, 0, 53, 100
1, 22896, Note_on_c, 0, 52, 100
1, 22960, Note_off_c, 0, 52, 100
1, 22960, Note_on_c, 0, 53, 100
1, 23024, Note_off_c, 0, 53, 100
1, 23024, Note_on_c, 0, 54, 100
1, 23072, Note_off_c, 0, 54, 100
1, 23072, Note_on_c, 0, 55, 100
1, 23264, Note_off_c, 0, 55, 100
1, 23504, Note_on_c, 0, 48, 100
1, 23552, Note_off_c, 0, 48, 100
1, 23552, Note_on_c, 0, 51, 100
1, 23600, Note_off_c, 0, 51, 100
1, 23600, Note_on_c, 0, 55, 100
1, 23696, Note_off_c, 0, 55, 100
1, 23696, Note_on_c, 0, 58, 100
1, 23792, Note_off_c, 0, 58, 100
1, 23792, Note_on_c, 0, 56, 100
1, 23888, Note_off_c, 0, 56, 100
1, 24272, Note_on_c, 0, 56, 100
1, 24368, Note_off_c, 0, 56, 100
1, 24368, Note_on_c, 0, 57, 100
1, 24416, Note_off_c, 0, 57, 100
1, 24416, Note_on_c, 0, 58, 100
1, 24464, Note_off_c, 0, 58, 100
1, 24464, Note_on_c, 0, 60, 100
1, 24512, Note_off_c, 0, 60, 100
1, 24512, Note_on_c, 0, 63, 100
1, 24560, Note_off_c, 0, 63, 100
1, 24560, Note_on_c, 0, 61, 100
1, 24656, Note_off_c, 0, 61, 100
1, 24656, Note_on_c, 0, 58, 100
1, 24944, Note_off_c, 0, 58, 100
1, 25200, Note_on_c, 0, 57, 100
1, 25264, Note_off_c, 0, 57, 100
1, 25264, Note_on_c, 0, 58, 100
1, 25328, Note_off_c, 0, 58, 100
1, 25328, Note_on_c, 0, 59, 100
1, 25424, Note_off_c, 0, 59, 100
1, 25424, Note_on_c, 0, 60, 100
1, 25664, Note_off_c, 0, 60, 100
1, 25664, Note_on_c, 0, 61, 100
1, 25688, Note_off_c, 0, 61, 100
1, 25688, Note_on_c, 0, 62, 100
1, 25712, Note_off_c, 0, 62, 100
1, 25712, Note_on_c, 0, 63, 100
1, 25904, Note_off_c, 0, 63, 100
1, 25904, Note_on_c, 0, 53, 100
1, 25952, Note_off_c, 0, 53, 100
1, 25952, Note_on_c, 0, 54, 100
1, 26000, Note_off_c, 0, 54, 100
1, 26000, Note_on_c, 0, 57, 100
1, 26048, Note_off_c, 0, 57, 100
1, 26048, Note_on_c, 0, 60, 100
1, 26096, Note_off_c, 0, 60, 100
1, 26096, Note_on_c, 0, 63, 100
1, 26192, Note_off_c, 0, 63, 100
1, 26192, Note_on_c, 0, 61, 100
1, 26384, Note_off_c, 0, 61, 100
1, 26624, Note_on_c, 0, 60, 100
1, 26672, Note_off_c, 0, 60, 100
1, 26672, Note_on_c, 0, 58, 100
1, 26768, Note_off_c, 0, 58, 100
1, 26768, Note_on_c, 0, 64, 100
1, 26816, Note_off_c, 0, 64, 100
1, 26816, Note_on_c, 0, 65, 100
1, 26864, Note_off_c, 0, 65, 100
1, 26864, Note_on_c, 0, 61, 100
1, 26912, Note_off_c, 0, 61, 100
1, 26912, Note_on_c, 0, 60, 100
1, 26960, Note_off_c, 0, 60, 100
1, 26960, Note_on_c, 0, 58, 100
1, 27008, Note_off_c, 0, 58, 100
1, 27008, Note_on_c, 0, 63, 100
1, 27312, Note_off_c, 0, 63, 100
1, 27312, Note_on_c, 0, 54, 100
1, 27344, Note_off_c, 0, 54, 100
1, 27344, Note_on_c, 0, 55, 100
1, 27376, Note_off_c, 0, 55, 100
1, 27376, Note_on_c, 0, 56, 100
1, 27408, Note_off_c, 0, 56, 100
1, 27408, Note_on_c, 0, 57, 100
1, 27440, Note_off_c, 0, 57, 100
1, 27440, Note_on_c, 0, 60, 100
1, 27488, Note_off_c, 0, 60, 100
1, 27488, Note_on_c, 0, 63, 100
1, 27536, Note_off_c, 0, 63, 100
1, 27536, Note_on_c, 0, 65, 100
1, 27584, Note_off_c, 0, 65, 100
1, 27584, Note_on_c, 0, 66, 100
1, 27632, Note_off_c, 0, 66, 100
1, 27632, Note_on_c, 0, 64, 100
1, 27728, Note_off_c, 0, 64, 100
1, 27728, Note_on_c, 0, 65, 100
1, 28112, Note_off_c, 0, 65, 100
1, 28304, Note_on_c, 0, 56, 100
1, 28336, Note_off_c, 0, 56, 100
1, 28336, Note_on_c, 0, 57, 100
1, 28368, Note_off_c, 0, 57, 100
1, 28368, Note_on_c, 0, 58, 100
1, 28400, Note_off_c, 0, 58, 100
1, 28400, Note_on_c, 0, 61, 100
1, 28464, Note_off_c, 0, 61, 100
1, 28464, Note_on_c, 0, 65, 100
1, 28528, Note_off_c, 0, 65, 100
1, 28528, Note_on_c, 0, 53, 100
1, 28688, Note_off_c, 0, 53, 100
1, 28688, Note_on_c, 0, 54, 100
1, 28736, Note_off_c, 0, 54, 100
1, 28736, Note_on_c, 0, 55, 100
1, 28832, Note_off_c, 0, 55, 100
1, 28832, Note_on_c, 0, 63, 100
1, 28976, Note_off_c, 0, 63, 100
1, 28976, Note_on_c, 0, 60, 100
1, 29104, Note_off_c, 0, 60, 100
1, 29104, Note_on_c, 0, 51, 100
1, 29168, Note_off_c, 0, 51, 100
1, 29168, Note_on_c, 0, 56, 100
1, 29936, Note_off_c, 0, 56, 100
1, 30272, Note_on_c, 0, 56, 100
1, 30368, Note_off_c, 0, 56, 100
1, 30368, Note_on_c, 0, 53, 100
1, 30464, Note_off_c, 0, 53, 100
1, 30464, Note_on_c, 0, 52, 100
1, 30512, Note_off_c, 0, 52, 100
1, 30512, Note_on_c, 0, 51, 100
1, 30608, Note_off_c, 0, 51, 100
1, 30608, Note_on_c, 0, 49, 100
1, 30704, Note_off_c, 0, 49, 100
1, 30704, Note_on_c, 0, 48, 100
1, 30915, Note_off_c, 0, 48, 100
1, 30915, End_track
0, 0, End_of_file
