0, 0, Header, 1, 1, 192
1, 0, Start_track
1, 0, Title_t, "Melody"
1, 0, Tempo, 246913
1, 0, Key_signature, -4, "major"
1, 0, Time_signature, 4, 2, 24, 8
1, 384, Note_on_c, 0, 65, 100
1, 576, Note_off_c, 0, 65, 100
1, 576, Note_on_c, 0, 60, 100
1, 624, Note_off_c, 0, 60, 100
1, 624, Note_on_c, 0, 61, 100
1, 720, Note_off_c, 0, 61, 100
1, 720, Note_on_c, 0, 60, 100
1, 1536, Note_off_c, 0, 60, 100
1, 1536, Note_on_c, 0, 55, 100
1, 1599, Note_off_c, 0, 55, 100
1, 1599, Note_on_c, 0, 56, 100
1, 1663, Note_off_c, 0, 56, 100
1, 1663, Note_on_c, 0, 55, 100
1, 1726, Note_off_c, 0, 55, 100
1, 1726, Note_on_c, 0, 53, 100
1, 2302, Note_off_c, 0, 53, 100
1, 2302, Note_on_c, 0, 65, 100
1, 2430, Note_off_c, 0, 65, 100
1, 2430, Note_on_c, 0, 58, 100
1, 2622, Note_off_c, 0, 58, 100
1, 3214, Note_on_c, 0, 66, 100
1, 3310, Note_off_c, 0, 66, 100
1, 3310, Note_on_c, 0, 64, 100
1, 3406, Note_off_c, 0, 64, 100
1, 3406, Note_on_c, 0, 63, 100
1, 3550, Note_off_c, 0, 63, 100
1, 3550, Note_on_c, 0, 61, 100
1, 3646, Note_off_c, 0, 61, 100
1, 3646, Note_on_c, 0, 60, 100
1, 3742, Note_off_c, 0, 60, 100
1, 3742, Note_on_c, 0, 59, 100
1, 3838, Note_off_c, 0, 59, 100
1, 3838, Note_on_c, 0, 58, 100
1, 3934, Note_off_c, 0, 58, 100
1, 3934, Note_on_c, 0, 56, 100
1, 4030, Note_off_c, 0, 56, 100
1, 4030, Note_on_c, 0, 57, 100
1, 4126, Note_off_c, 0, 57, 100
1, 4126, Note_on_c, 0, 58, 100
1, 4222, Note_off_c, 0, 58, 100
1, 4222, Note_on_c, 0, 63, 100
1, 4318, Note_off_c, 0, 63, 100
1, 4318, Note_on_c, 0, 66, 100
1, 4462, Note_off_c, 0, 66, 100
1, 4462, Note_on_c, 0, 65, 100
1, 4558, Note_off_c, 0, 65, 100
1, 4558, Note_on_c, 0, 63, 100
1, 4606, Note_off_c, 0, 63, 100
1, 4606, Note_on_c, 0, 61, 100
1, 4702, Note_off_c, 0, 61, 100
1, 4702, Note_on_c, 0, 58, 100
1, 4990, Note_off_c, 0, 58, 100
1, 6430, Note_on_c, 0, 67, 100
1, 6622, Note_off_c, 0, 67, 100
1, 6622, Note_on_c, 0, 67, 100
1, 6814, Note_off_c, 0, 67, 100
1, 6814, Note_on_c, 0, 71, 100
1, 6862, Note_off_c, 0, 71, 100
1, 6862, Note_on_c, 0, 63, 100
1, 6910, Note_off_c, 0, 63, 100
1, 6910, Note_on_c, 0, 64, 100
1, 7006, Note_off_c, 0, 64, 100
1, 7006, Note_on_c, 0, 63, 100
1, 7102, Note_off_c, 0, 63, 100
1, 7102, Note_on_c, 0, 67, 100
1, 7198, Note_off_c, 0, 67, 100
1, 7198, Note_on_c, 0, 65, 100
1, 7294, Note_off_c, 0, 65, 100
1, 7294, Note_on_c, 0, 64, 100
1, 7390, Note_off_c, 0, 64, 100
1, 7390, Note_on_c, 0, 60, 100
1, 7486, Note_off_c, 0, 60, 100
1, 7486, Note_on_c, 0, 57, 100
1, 7678, Note_off_c, 0, 57, 100
1, 7678, Note_on_c, 0, 66, 100
1, 7726, Note_off_c, 0, 66, 100
1, 7726, Note_on_c, 0, 67, 100
1, 7822, Note_off_c, 0, 67, 100
1, 7822, Note_on_c, 0, 66, 100
1, 7870, Note_off_c, 0, 66, 100
1, 7870, Note_on_c, 0, 64, 100
1, 7966, Note_off_c, 0, 64, 100
1, 7966, Note_on_c, 0, 63, 100
1, 8062, Note_off_c, 0, 63, 100
1, 8062, Note_on_c, 0, 61, 100
1, 8158, Note_off_c, 0, 61, 100
1, 8158, Note_on_c, 0, 63, 100
1, 8254, Note_off_c, 0, 63, 100
1, 8254, Note_on_c, 0, 64, 100
1, 8350, Note_off_c, 0, 64, 100
1, 8350, Note_on_c, 0, 66, 100
1, 8446, Note_off_c, 0, 66, 100
1, 8446, Note_on_c, 0, 63, 100
1, 8574, Note_off_c, 0, 63, 100
1, 8574, Note_on_c, 0, 54, 100
1, 8686, Note_off_c, 0, 54, 100
1, 8686, Note_on_c, 0, 55, 100
1, 8782, Note_off_c, 0, 55, 100
1, 8782, Note_on_c, 0, 58, 100
1, 8878, Note_off_c, 0, 58, 100
1, 8878, Note_on_c, 0, 67, 100
1, 8974, Note_off_c, 0, 67, 100
1, 8974, Note_on_c, 0, 58, 100
1, 9086, Note_off_c, 0, 58, 100
1, 9086, Note_on_c, 0, 59, 100
1, 9214, Note_off_c, 0, 59, 100
1, 9214, Note_on_c, 0, 64, 100
1, 9310, Note_off_c, 0, 64, 100
1, 9310, Note_on_c, 0, 65, 100
1, 9502, Note_off_c, 0, 65, 100
1, 9502, Note_on_c, 0, 63, 100
1, 9598, Note_off_c, 0, 63, 100
1, 10222, Note_on_c, 0, 57, 100
1, 10270, Note_off_c, 0, 57, 100
1, 10270, Note_on_c, 0, 58, 100
1, 10366, Note_off_c, 0, 58, 100
1, 10366, Note_on_c, 0, 62, 100
1, 10462, Note_off_c, 0, 62, 100
1, 10462, Note_on_c, 0, 65, 100
1, 10510, Note_off_c, 0, 65, 100
1, 10510, Note_on_c, 0, 69, 100
1, 10654, Note_off_c, 0, 69, 100
1, 10654, Note_on_c, 0, 67, 100
1, 10750, Note_off_c, 0, 67, 100
1, 10750, Note_on_c, 0, 65, 100
1, 10846, Note_off_c, 0, 65, 100
1, 10846, Note_on_c, 0, 62, 100
1, 10942, Note_off_c, 0, 62, 100
1, 10942, Note_on_c, 0, 63, 100
1, 11038, Note_off_c, 0, 63, 100
1, 11038, Note_on_c, 0, 65, 100
1, 11086, Note_off_c, 0, 65, 100
1, 11086, Note_on_c, 0, 63, 100
1, 11134, Note_off_c, 0, 63, 100
1, 11134, Note_on_c, 0, 62, 100
1, 11230, Note_off_c, 0, 62, 100
1, 11230, Note_on_c, 0, 58, 100
1, 11326, Note_off_c, 0, 58, 100
1, 11902, Note_on_c, 0, 67, 100
1, 11998, Note_off_c, 0, 67, 100
1, 11998, Note_on_c, 0, 68, 100
1, 12094, Note_off_c, 0, 68, 100
1, 12094, Note_on_c, 0, 67, 100
1, 12190, Note_off_c, 0, 67, 100
1, 12190, Note_on_c, 0, 65, 100
1, 12286, Note_off_c, 0, 65, 100
1, 12286, Note_on_c, 0, 63, 100
1, 12382, Note_off_c, 0, 63, 100
1, 12382, Note_on_c, 0, 62, 100
1, 12478, Note_off_c, 0, 62, 100
1, 12478, Note_on_c, 0, 61, 100
1, 12574, Note_off_c, 0, 61, 100
1, 12574, Note_on_c, 0, 58, 100
1, 12670, Note_off_c, 0, 58, 100
1, 12670, Note_on_c, 0, 60, 100
1, 12766, Note_off_c, 0, 60, 100
1, 12766, Note_on_c, 0, 61, 100
1, 12862, Note_off_c, 0, 61, 100
1, 12862, Note_on_c, 0, 58, 100
1, 12958, Note_off_c, 0, 58, 100
1, 12958, Note_on_c, 0, 55, 100
1, 13054, Note_off_c, 0, 55, 100
1, 13054, Note_on_c, 0, 56, 100
1, 13150, Note_off_c, 0, 56, 100
1, 13150, Note_on_c, 0, 58, 100
1, 13246, Note_off_c, 0, 58, 100
1, 13246, Note_on_c, 0, 59, 100
1, 13342, Note_off_c, 0, 59, 100
1, 13342, Note_on_c, 0, 58, 100
1, 13390, Note_off_c, 0, 58, 100
1, 13390, Note_on_c, 0, 65, 100
1, 13534, Note_off_c, 0, 65, 100
1, 13534, Note_on_c, 0, 64, 100
1, 13630, Note_off_c, 0, 64, 100
1, 13630, Note_on_c, 0, 63, 100
1, 13726, Note_off_c, 0, 63, 100
1, 13726, Note_on_c, 0, 60, 100
1, 13822, Note_off_c, 0, 60, 100
1, 13822, Note_on_c, 0, 61, 100
1, 13918, Note_off_c, 0, 61, 100
1, 13918, Note_on_c, 0, 60, 100
1, 14014, Note_off_c, 0, 60, 100
1, 14014, Note_on_c, 0, 58, 100
1, 14110, Note_off_c, 0, 58, 100
1, 14110, Note_on_c, 0, 56, 100
1, 14206, Note_off_c, 0, 56, 100
1, 14206, Note_on_c, 0, 55, 100
1, 14302, Note_off_c, 0, 55, 100
1, 14302, Note_on_c, 0, 53, 100
1, 14398, Note_off_c, 0, 53, 100
1, 14398, Note_on_c, 0, 52, 100
1, 14494, Note_off_c, 0, 52, 100
1, 14494, Note_on_c, 0, 55, 100
1, 14590, Note_off_c, 0, 55, 100
1, 14590, Note_on_c, 0, 58, 100
1, 14686, Note_off_c, 0, 58, 100
1, 14686, Note_on_c, 0, 61, 100
1, 14782, Note_off_c, 0, 61, 100
1, 14782, Note_on_c, 0, 60, 100
1, 14830, Note_off_c, 0, 60, 100
1, 14830, Note_on_c, 0, 58, 100
1, 14926, Note_off_c, 0, 58, 100
1, 14926, Note_on_c, 0, 56, 100
1, 15166, Note_off_c, 0, 56, 100
1, 15166, Note_on_c, 0, 52, 100
1, 15262, Note_off_c, 0, 52, 100
1, 15262, Note_on_c, 0, 56, 100
1, 15358, Note_off_c, 0, 56, 100
1, 15358, Note_on_c, 0, 55, 100
1, 15454, Note_off_c, 0, 55, 100
1, 15454, Note_on_c, 0, 53, 100
1, 15550, Note_off_c, 0, 53, 100
1, 15550, Note_on_c, 0, 52, 100
1, 15646, Note_off_c, 0, 52, 100
1, 15646, Note_on_c, 0, 55, 100
1, 15742, Note_off_c, 0, 55, 100
1, 15742, Note_on_c, 0, 58, 100
1, 15838, Note_off_c, 0, 58, 100
1, 15838, Note_on_c, 0, 61, 100
1, 15934, Note_off_c, 0, 61, 100
1, 15934, Note_on_c, 0, 60, 100
1, 16030, Note_off_c, 0, 60, 100
1, 16030, Note_on_c, 0, 58, 100
1, 16126, Note_off_c, 0, 58, 100
1, 16126, Note_on_c, 0, 56, 100
1, 16254, Note_off_c, 0, 56, 100
1, 16254, Note_on_c, 0, 58, 100
1, 16414, Note_off_c, 0, 58, 100
1, 16414, Note_on_c, 0, 64, 100
1, 16510, Note_off_c, 0, 64, 100
1, 16510, Note_on_c, 0, 67, 100
1, 16638, Note_off_c, 0, 67, 100
1, 16638, Note_on_c, 0, 64, 100
1, 16702, Note_off_c, 0, 64, 100
1, 16702, Note_on_c, 0, 65, 100
1, 16846, Note_off_c, 0, 65, 100
1, 16846, Note_on_c, 0, 67, 100
1, 16894, Note_off_c, 0, 67, 100
1, 16894, Note_on_c, 0, 68, 100
1, 17022, Note_off_c, 0, 68, 100
1, 17022, Note_on_c, 0, 65, 100
1, 17214, Note_off_c, 0, 65, 100
1, 18302, Note_on_c, 0, 66, 100
1, 18366, Note_off_c, 0, 66, 100
1, 18366, Note_on_c, 0, 65, 100
1, 18430, Note_off_c, 0, 65, 100
1, 18430, Note_on_c, 0, 66, 100
1, 18574, Note_off_c, 0, 66, 100
1, 18574, Note_on_c, 0, 65, 100
1, 19102, Note_off_c, 0, 65, 100
1, 19102, Note_on_c, 0, 63, 100
1, 19198, Note_off_c, 0, 63, 100
1, 19198, Note_on_c, 0, 61, 100
1, 19390, Note_off_c, 0, 61, 100
1, 19390, Note_on_c, 0, 55, 100
1, 19582, Note_off_c, 0, 55, 100
1, 19582, Note_on_c, 0, 55, 100
1, 19870, Note_off_c, 0, 55, 100
1, 19870, Note_on_c, 0, 55, 100
1, 19966, Note_off_c, 0, 55, 100
1, 20830, Note_on_c, 0, 67, 100
1, 20926, Note_off_c, 0, 67, 100
1, 20926, Note_on_c, 0, 68, 100
1, 21054, Note_off_c, 0, 68, 100
1, 21054, Note_on_c, 0, 64, 100
1, 21118, Note_off_c, 0, 64, 100
1, 21118, Note_on_c, 0, 65, 100
1, 21214, Note_off_c, 0, 65, 100
1, 21646, Note_on_c, 0, 58, 100
1, 21694, Note_off_c, 0, 58, 100
1, 21694, Note_on_c, 0, 59, 100
1, 21790, Note_off_c, 0, 59, 100
1, 21790, Note_on_c, 0, 61, 100
1, 21886, Note_off_c, 0, 61, 100
1, 21886, Note_on_c, 0, 62, 100
1, 21982, Note_off_c, 0, 62, 100
1, 21982, Note_on_c, 0, 67, 100
1, 22078, Note_off_c, 0, 67, 100
1, 22414, Note_on_c, 0, 59, 100
1, 22526, Note_off_c, 0, 59, 100
1, 22526, Note_on_c, 0, 63, 100
1, 22590, Note_off_c, 0, 63, 100
1, 22590, Note_on_c, 0, 67, 100
1, 22654, Note_off_c, 0, 67, 100
1, 22654, Note_on_c, 0, 70, 100
1, 22750, Note_off_c, 0, 70, 100
1, 22750, Note_on_c, 0, 68, 100
1, 22846, Note_off_c, 0, 68, 100
1, 22846, Note_on_c, 0, 67, 100
1, 22942, Note_off_c, 0, 67, 100
1, 22942, Note_on_c, 0, 65, 100
1, 23038, Note_off_c, 0, 65, 100
1, 23038, Note_on_c, 0, 63, 100
1, 23134, Note_off_c, 0, 63, 100
1, 23134, Note_on_c, 0, 60, 100
1, 23230, Note_off_c, 0, 60, 100
1, 23230, Note_on_c, 0, 61, 100
1, 23326, Note_off_c, 0, 61, 100
1, 23326, Note_on_c, 0, 60, 100
1, 23422, Note_off_c, 0, 60, 100
1, 23422, Note_on_c, 0, 58, 100
1, 23518, Note_off_c, 0, 58, 100
1, 23518, Note_on_c, 0, 55, 100
1, 23614, Note_off_c, 0, 55, 100
1, 23614, Note_on_c, 0, 57, 100
1, 23710, Note_off_c, 0, 57, 100
1, 23710, Note_on_c, 0, 60, 100
1, 23806, Note_off_c, 0, 60, 100
1, 23806, Note_on_c, 0, 58, 100
1, 23902, Note_off_c, 0, 58, 100
1, 23902, Note_on_c, 0, 60, 100
1, 23998, Note_off_c, 0, 60, 100
1, 23998, Note_on_c, 0, 61, 100
1, 24094, Note_off_c, 0, 61, 100
1, 24094, Note_on_c, 0, 63, 100
1, 24190, Note_off_c, 0, 63, 100
1, 24190, Note_on_c, 0, 65, 100
1, 24286, Note_off_c, 0, 65, 100
1, 24286, Note_on_c, 0, 68, 100
1, 24382, Note_off_c, 0, 68, 100
1, 24382, Note_on_c, 0, 67, 100
1, 24478, Note_off_c, 0, 67, 100
1, 24478, Note_on_c, 0, 65, 100
1, 24574, Note_off_c, 0, 65, 100
1, 24574, Note_on_c, 0, 63, 100
1, 24670, Note_off_c, 0, 63, 100
1, 24670, Note_on_c, 0, 62, 100
1, 24766, Note_off_c, 0, 62, 100
1, 24766, Note_on_c, 0, 61, 100
1, 24862, Note_off_c, 0, 61, 100
1, 24862, Note_on_c, 0, 59, 100
1, 24958, Note_off_c, 0, 59, 100
1, 24958, Note_on_c, 0, 60, 100
1, 25054, Note_off_c, 0, 60, 100
1, 25054, Note_on_c, 0, 61, 100
1, 25150, Note_off_c, 0, 61, 100
1, 25150, Note_on_c, 0, 58, 100
1, 25246, Note_off_c, 0, 58, 100
1, 25246, Note_on_c, 0, 55, 100
1, 25342, Note_off_c, 0, 55, 100
1, 25342, Note_on_c, 0, 56, 100
1, 25438, Note_off_c, 0, 56, 100
1, 25438, Note_on_c, 0, 58, 100
1, 25534, Note_off_c, 0, 58, 100
1, 25534, Note_on_c, 0, 59, 100
1, 25662, Note_off_c, 0, 59, 100
1, 25662, Note_on_c, 0, 58, 100
1, 25726, Note_off_c, 0, 58, 100
1, 25726, Note_on_c, 0, 65, 100
1, 25822, Note_off_c, 0, 65, 100
1, 25822, Note_on_c, 0, 64, 100
1, 25918, Note_off_c, 0, 64, 100
1, 25918, Note_on_c, 0, 63, 100
1, 26046, Note_off_c, 0, 63, 100
1, 26046, Note_on_c, 0, 61, 100
1, 26110, Note_off_c, 0, 61, 100
1, 26110, Note_on_c, 0, 60, 100
1, 26206, Note_off_c, 0, 60, 100
1, 26206, Note_on_c, 0, 59, 100
1, 26302, Note_off_c, 0, 59, 100
1, 26302, Note_on_c, 0, 58, 100
1, 26398, Note_off_c, 0, 58, 100
1, 26398, Note_on_c, 0, 56, 100
1, 26494, Note_off_c, 0, 56, 100
1, 26494, Note_on_c, 0, 55, 100
1, 26590, Note_off_c, 0, 55, 100
1, 26590, Note_on_c, 0, 53, 100
1, 26686, Note_off_c, 0, 53, 100
1, 26686, Note_on_c, 0, 52, 100
1, 26782, Note_off_c, 0, 52, 100
1, 26782, Note_on_c, 0, 55, 100
1, 26878, Note_off_c, 0, 55, 100
1, 26878, Note_on_c, 0, 53, 100
1, 26926, Note_off_c, 0, 53, 100
1, 26926, Note_on_c, 0, 54, 100
1, 27022, Note_off_c, 0, 54, 100
1, 27022, Note_on_c, 0, 52, 100
1, 27070, Note_off_c, 0, 52, 100
1, 27070, Note_on_c, 0, 53, 100
1, 27166, Note_off_c, 0, 53, 100
1, 27166, Note_on_c, 0, 55, 100
1, 27262, Note_off_c, 0, 55, 100
1, 27262, Note_on_c, 0, 56, 100
1, 27358, Note_off_c, 0, 56, 100
1, 27358, Note_on_c, 0, 58, 100
1, 27454, Note_off_c, 0, 58, 100
1, 27454, Note_on_c, 0, 60, 100
1, 27550, Note_off_c, 0, 60, 100
1, 27550, Note_on_c, 0, 56, 100
1, 27646, Note_off_c, 0, 56, 100
1, 27646, Note_on_c, 0, 58, 100
1, 27934, Note_off_c, 0, 58, 100
1, 27934, Note_on_c, 0, 58, 100
1, 28126, Note_off_c, 0, 58, 100
1, 28126, Note_on_c, 0, 64, 100
1, 28222, Note_off_c, 0, 64, 100
1, 28222, Note_on_c, 0, 67, 100
1, 28350, Note_off_c, 0, 67, 100
1, 28350, Note_on_c, 0, 64, 100
1, 28414, Note_off_c, 0, 64, 100
1, 28414, Note_on_c, 0, 65, 100
1, 28510, Note_off_c, 0, 65, 100
1, 28510, Note_on_c, 0, 67, 100
1, 28606, Note_off_c, 0, 67, 100
1, 28606, Note_on_c, 0, 68, 100
1, 28702, Note_off_c, 0, 68, 100
1, 28702, Note_on_c, 0, 70, 100
1, 28798, Note_off_c, 0, 70, 100
1, 28798, Note_on_c, 0, 72, 100
1, 28990, Note_off_c, 0, 72, 100
1, 28990, Note_on_c, 0, 72, 100
1, 29182, Note_off_c, 0, 72, 100
1, 29182, Note_on_c, 0, 70, 100
1, 29374, Note_off_c, 0, 70, 100
1, 29374, Note_on_c, 0, 70, 100
1, 29470, Note_off_c, 0, 70, 100
1, 29470, Note_on_c, 0, 68, 100
1, 29662, Note_off_c, 0, 68, 100
1, 29662, Note_on_c, 0, 68, 100
1, 29758, Note_off_c, 0, 68, 100
1, 29758, Note_on_c, 0, 65, 100
1, 29950, Note_off_c, 0, 65, 100
1, 30718, Note_on_c, 0, 65, 100
1, 30766, Note_off_c, 0, 65, 100
1, 30766, Note_on_c, 0, 66, 100
1, 30862, Note_off_c, 0, 66, 100
1, 30862, Note_on_c, 0, 65, 100
1, 31006, Note_off_c, 0, 65, 100
1, 31006, Note_on_c, 0, 64, 100
1, 31198, Note_off_c, 0, 64, 100
1, 31198, Note_on_c, 0, 65, 100
1, 31534, Note_off_c, 0, 65, 100
1, 31534, Note_on_c, 0, 64, 100
1, 31582, Note_off_c, 0, 64, 100
1, 31582, Note_on_c, 0, 65, 100
1, 31678, Note_off_c, 0, 65, 100
1, 31678, Note_on_c, 0, 63, 100
1, 31774, Note_off_c, 0, 63, 100
1, 31774, Note_on_c, 0, 60, 100
1, 31870, Note_off_c, 0, 60, 100
1, 31870, Note_on_c, 0, 61, 100
1, 31966, Note_off_c, 0, 61, 100
1, 31966, Note_on_c, 0, 57, 100
1, 32062, Note_off_c, 0, 57, 100
1, 33406, Note_on_c, 0, 67, 100
1, 33502, Note_off_c, 0, 67, 100
1, 33502, Note_on_c, 0, 68, 100
1, 33790, Note_off_c, 0, 68, 100
1, 33790, Note_on_c, 0, 67, 100
1, 33982, Note_off_c, 0, 67, 100
1, 33982, Note_on_c, 0, 68, 100
1, 34046, Note_off_c, 0, 68, 100
1, 34046, Note_on_c, 0, 67, 100
1, 34110, Note_off_c, 0, 67, 100
1, 34110, Note_on_c, 0, 65, 100
1, 34302, Note_off_c, 0, 65, 100
1, 34558, Note_on_c, 0, 64, 100
1, 34654, Note_off_c, 0, 64, 100
1, 34654, Note_on_c, 0, 65, 100
1, 34702, Note_off_c, 0, 65, 100
1, 34702, Note_on_c, 0, 66, 100
1, 34798, Note_off_c, 0, 66, 100
1, 34798, Note_on_c, 0, 67, 100
1, 34846, Note_off_c, 0, 67, 100
1, 34846, Note_on_c, 0, 66, 100
1, 34894, Note_off_c, 0, 66, 100
1, 34894, Note_on_c, 0, 65, 100
1, 34942, Note_off_c, 0, 65, 100
1, 34942, Note_on_c, 0, 64, 100
1, 35038, Note_off_c, 0, 64, 100
1, 35038, Note_on_c, 0, 60, 100
1, 35134, Note_off_c, 0, 60, 100
1, 35326, Note_on_c, 0, 66, 100
1, 35518, Note_off_c, 0, 66, 100
1, 35518, Note_on_c, 0, 64, 100
1, 35646, Note_off_c, 0, 64, 100
1, 35646, Note_on_c, 0, 63, 100
1, 35806, Note_off_c, 0, 63, 100
1, 35806, Note_on_c, 0, 66, 100
1, 35998, Note_off_c, 0, 66, 100
1, 35998, Note_on_c, 0, 61, 100
1, 36190, Note_off_c, 0, 61, 100
1, 36190, Note_on_c, 0, 58, 100
1, 36382, Note_off_c, 0, 58, 100
1, 36382, Note_on_c, 0, 59, 100
1, 36574, Note_off_c, 0, 59, 100
1, 36574, Note_on_c, 0, 63, 100
1, 36670, Note_off_c, 0, 63, 100
1, 36670, Note_on_c, 0, 66, 100
1, 36862, Note_off_c, 0, 66, 100
1, 36862, Note_on_c, 0, 65, 100
1, 37054, Note_off_c, 0, 65, 100
1, 37054, Note_on_c, 0, 63, 100
1, 37150, Note_off_c, 0, 63, 100
1, 37390, Note_on_c, 0, 58, 100
1, 37534, Note_off_c, 0, 58, 100
1, 37534, Note_on_c, 0, 62, 100
1, 37630, Note_off_c, 0, 62, 100
1, 37966, Note_on_c, 0, 58, 100
1, 38158, Note_off_c, 0, 58, 100
1, 38158, Note_on_c, 0, 62, 100
1, 38398, Note_off_c, 0, 62, 100
1, 38398, Note_on_c, 0, 69, 100
1, 38590, Note_off_c, 0, 69, 100
1, 38590, Note_on_c, 0, 67, 100
1, 38782, Note_off_c, 0, 67, 100
1, 38782, Note_on_c, 0, 64, 100
1, 38830, Note_off_c, 0, 64, 100
1, 38830, Note_on_c, 0, 65, 100
1, 38974, Note_off_c, 0, 65, 100
1, 38974, Note_on_c, 0, 62, 100
1, 39070, Note_off_c, 0, 62, 100
1, 39502, Note_on_c, 0, 68, 100
1, 39646, Note_off_c, 0, 68, 100
1, 39646, Note_on_c, 0, 69, 100
1, 39694, Note_off_c, 0, 69, 100
1, 39694, Note_on_c, 0, 68, 100
1, 39742, Note_off_c, 0, 68, 100
1, 39742, Note_on_c, 0, 67, 100
1, 39838, Note_off_c, 0, 67, 100
1, 39838, Note_on_c, 0, 65, 100
1, 39934, Note_off_c, 0, 65, 100
1, 39934, Note_on_c, 0, 63, 100
1, 40030, Note_off_c, 0, 63, 100
1, 40030, Note_on_c, 0, 62, 100
1, 40078, Note_off_c, 0, 62, 100
1, 40078, Note_on_c, 0, 61, 100
1, 40222, Note_off_c, 0, 61, 100
1, 40222, Note_on_c, 0, 58, 100
1, 40318, Note_off_c, 0, 58, 100
1, 40318, Note_on_c, 0, 60, 100
1, 40414, Note_off_c, 0, 60, 100
1, 40414, Note_on_c, 0, 61, 100
1, 40462, Note_off_c, 0, 61, 100
1, 40462, Note_on_c, 0, 58, 100
1, 40606, Note_off_c, 0, 58, 100
1, 40606, Note_on_c, 0, 55, 100
1, 40654, Note_off_c, 0, 55, 100
1, 40654, Note_on_c, 0, 56, 100
1, 40846, Note_off_c, 0, 56, 100
1, 40846, Note_on_c, 0, 68, 100
1, 40958, Note_off_c, 0, 68, 100
1, 40958, Note_on_c, 0, 69, 100
1, 41022, Note_off_c, 0, 69, 100
1, 41022, Note_on_c, 0, 68, 100
1, 41086, Note_off_c, 0, 68, 100
1, 41086, Note_on_c, 0, 67, 100
1, 41182, Note_off_c, 0, 67, 100
1, 41182, Note_on_c, 0, 65, 100
1, 41278, Note_off_c, 0, 65, 100
1, 41278, Note_on_c, 0, 60, 100
1, 41374, Note_off_c, 0, 60, 100
1, 41374, Note_on_c, 0, 58, 100
1, 41470, Note_off_c, 0, 58, 100
1, 41470, Note_on_c, 0, 65, 100
1, 41566, Note_off_c, 0, 65, 100
1, 41566, Note_on_c, 0, 62, 100
1, 41662, Note_off_c, 0, 62, 100
1, 41662, Note_on_c, 0, 64, 100
1, 41758, Note_off_c, 0, 64, 100
1, 41758, Note_on_c, 0, 67, 100
1, 41854, Note_off_c, 0, 67, 100
1, 41854, Note_on_c, 0, 61, 100
1, 41998, Note_off_c, 0, 61, 100
1, 41998, Note_on_c, 0, 61, 100
1, 42046, Note_off_c, 0, 61, 100
1, 42046, Note_on_c, 0, 60, 100
1, 42142, Note_off_c, 0, 60, 100
1, 42142, Note_on_c, 0, 58, 100
1, 42238, Note_off_c, 0, 58, 100
1, 42238, Note_on_c, 0, 56, 100
1, 42334, Note_off_c, 0, 56, 100
1, 42574, Note_on_c, 0, 52, 100
1, 42622, Note_off_c, 0, 52, 100
1, 42622, Note_on_c, 0, 53, 100
1, 42718, Note_off_c, 0, 53, 100
1, 42718, Note_on_c, 0, 55, 100
1, 42814, Note_off_c, 0, 55, 100
1, 42814, Note_on_c, 0, 56, 100
1, 42910, Note_off_c, 0, 56, 100
1, 42910, Note_on_c, 0, 59, 100
1, 43006, Note_off_c, 0, 59, 100
1, 43006, Note_on_c, 0, 60, 100
1, 43102, Note_off_c, 0, 60, 100
1, 43102, Note_on_c, 0, 64, 100
1, 43198, Note_off_c, 0, 64, 100
1, 43198, Note_on_c, 0, 65, 100
1, 43262, Note_off_c, 0, 65, 100
1, 43262, Note_on_c, 0, 67, 100
1, 43390, Note_off_c, 0, 67, 100
1, 43390, Note_on_c, 0, 68, 100
1, 43486, Note_off_c, 0, 68, 100
1, 43486, Note_on_c, 0, 71, 100
1, 43582, Note_off_c, 0, 71, 100
1, 43582, Note_on_c, 0, 72, 100
1, 43678, Note_off_c, 0, 72, 100
1, 43678, Note_on_c, 0, 67, 100
1, 43774, Note_off_c, 0, 67, 100
1, 43774, Note_on_c, 0, 68, 100
1, 43870, Note_off_c, 0, 68, 100
1, 44254, Note_on_c, 0, 64, 100
1, 44350, Note_off_c, 0, 64, 100
1, 44350, Note_on_c, 0, 65, 100
1, 44446, Note_off_c, 0, 65, 100
1, 44446, Note_on_c, 0, 61, 100
1, 44494, Note_off_c, 0, 61, 100
1, 44494, Note_on_c, 0, 62, 100
1, 44590, Note_off_c, 0, 62, 100
1, 45214, Note_on_c, 0, 60, 100
1, 45310, Note_off_c, 0, 60, 100
1, 45310, Note_on_c, 0, 61, 100
1, 45406, Note_off_c, 0, 61, 100
1, 45406, Note_on_c, 0, 63, 100
1, 45502, Note_off_c, 0, 63, 100
1, 45502, Note_on_c, 0, 65, 100
1, 45598, Note_off_c, 0, 65, 100
1, 45598, Note_on_c, 0, 60, 100
1, 45646, Note_off_c, 0, 60, 100
1, 45646, Note_on_c, 0, 63, 100
1, 45790, Note_off_c, 0, 63, 100
1, 45790, Note_on_c, 0, 60, 100
1, 45886, Note_off_c, 0, 60, 100
1, 45886, Note_on_c, 0, 61, 100
1, 45982, Note_off_c, 0, 61, 100
1, 45982, Note_on_c, 0, 60, 100
1, 46030, Note_off_c, 0, 60, 100
1, 46030, Note_on_c, 0, 58, 100
1, 46174, Note_off_c, 0, 58, 100
1, 46174, Note_on_c, 0, 56, 100
1, 46270, Note_off_c, 0, 56, 100
1, 46270, Note_on_c, 0, 57, 100
1, 46366, Note_off_c, 0, 57, 100
1, 46366, Note_on_c, 0, 60, 100
1, 46414, Note_off_c, 0, 60, 100
1, 46414, Note_on_c, 0, 63, 100
1, 46558, Note_off_c, 0, 63, 100
1, 46558, Note_on_c, 0, 66, 100
1, 46654, Note_off_c, 0, 66, 100
1, 46654, Note_on_c, 0, 65, 100
1, 46750, Note_off_c, 0, 65, 100
1, 46750, Note_on_c, 0, 63, 100
1, 46846, Note_off_c, 0, 63, 100
1, 46846, Note_on_c, 0, 60, 100
1, 46942, Note_off_c, 0, 60, 100
1, 46942, Note_on_c, 0, 61, 100
1, 47038, Note_off_c, 0, 61, 100
1, 47902, Note_on_c, 0, 53, 100
1, 47998, Note_off_c, 0, 53, 100
1, 47998, Note_on_c, 0, 55, 100
1, 48190, Note_off_c, 0, 55, 100
1, 48190, Note_on_c, 0, 57, 100
1, 48286, Note_off_c, 0, 57, 100
1, 49054, Note_on_c, 0, 66, 100
1, 49150, Note_off_c, 0, 66, 100
1, 49150, Note_on_c, 0, 68, 100
1, 49438, Note_off_c, 0, 68, 100
1, 49438, Note_on_c, 0, 67, 100
1, 49678, Note_off_c, 0, 67, 100
1, 49678, Note_on_c, 0, 66, 100
1, 49726, Note_off_c, 0, 66, 100
1, 49726, Note_on_c, 0, 67, 100
1, 49822, Note_off_c, 0, 67, 100
1, 49822, Note_on_c, 0, 65, 100
1, 49918, Note_off_c, 0, 65, 100
1, 49918, Note_on_c, 0, 63, 100
1, 50014, Note_off_c, 0, 63, 100
1, 50014, Note_on_c, 0, 60, 100
1, 50062, Note_off_c, 0, 60, 100
1, 50062, Note_on_c, 0, 63, 100
1, 50206, Note_off_c, 0, 63, 100
1, 50206, Note_on_c, 0, 65, 100
1, 50302, Note_off_c, 0, 65, 100
1, 50302, Note_on_c, 0, 66, 100
1, 50350, Note_off_c, 0, 66, 100
1, 50350, Note_on_c, 0, 65, 100
1, 50398, Note_off_c, 0, 65, 100
1, 50398, Note_on_c, 0, 64, 100
1, 50446, Note_off_c, 0, 64, 100
1, 50446, Note_on_c, 0, 65, 100
1, 50494, Note_off_c, 0, 65, 100
1, 50494, Note_on_c, 0, 63, 100
1, 50590, Note_off_c, 0, 63, 100
1, 50590, Note_on_c, 0, 61, 100
1, 50686, Note_off_c, 0, 61, 100
1, 50686, Note_on_c, 0, 60, 100
1, 50782, Note_off_c, 0, 60, 100
1, 50782, Note_on_c, 0, 59, 100
1, 50878, Note_off_c, 0, 59, 100
1, 50878, Note_on_c, 0, 58, 100
1, 50974, Note_off_c, 0, 58, 100
1, 50974, Note_on_c, 0, 56, 100
1, 51070, Note_off_c, 0, 56, 100
1, 51070, Note_on_c, 0, 57, 100
1, 51166, Note_off_c, 0, 57, 100
1, 51166, Note_on_c, 0, 54, 100
1, 51262, Note_off_c, 0, 54, 100
1, 51262, Note_on_c, 0, 53, 100
1, 51358, Note_off_c, 0, 53, 100
1, 51358, Note_on_c, 0, 51, 100
1, 51454, Note_off_c, 0, 51, 100
1, 51646, Note_on_c, 0, 53, 100
1, 51742, Note_off_c, 0, 53, 100
1, 51742, Note_on_c, 0, 55, 100
1, 51838, Note_off_c, 0, 55, 100
1, 51838, Note_on_c, 0, 60, 100
1, 51934, Note_off_c, 0, 60, 100
1, 51934, Note_on_c, 0, 61, 100
1, 52030, Note_off_c, 0, 61, 100
1, 52030, Note_on_c, 0, 60, 100
1, 52126, Note_off_c, 0, 60, 100
1, 52126, Note_on_c, 0, 58, 100
1, 52222, Note_off_c, 0, 58, 100
1, 52222, Note_on_c, 0, 57, 100
1, 52318, Note_off_c, 0, 57, 100
1, 52318, Note_on_c, 0, 56, 100
1, 52414, Note_off_c, 0, 56, 100
1, 52414, Note_on_c, 0, 55, 100
1, 52510, Note_off_c, 0, 55, 100
1, 52702, Note_on_c, 0, 54, 100
1, 52798, Note_off_c, 0, 54, 100
1, 52798, Note_on_c, 0, 52, 100
1, 52894, Note_off_c, 0, 52, 100
1, 52894, Note_on_c, 0, 49, 100
1, 52990, Note_off_c, 0, 49, 100
1, 52990, Note_on_c, 0, 51, 100
1, 53246, Note_off_c, 0, 51, 100
1, 53246, Note_on_c, 0, 51, 100
1, 53310, Note_off_c, 0, 51, 100
1, 53310, Note_on_c, 0, 55, 100
1, 53374, Note_off_c, 0, 55, 100
1, 53374, Note_on_c, 0, 58, 100
1, 53470, Note_off_c, 0, 58, 100
1, 53470, Note_on_c, 0, 56, 100
1, 53566, Note_off_c, 0, 56, 100
1, 53566, Note_on_c, 0, 55, 100
1, 53662, Note_off_c, 0, 55, 100
1, 53662, Note_on_c, 0, 53, 100
1, 53758, Note_off_c, 0, 53, 100
1, 53758, Note_on_c, 0, 52, 100
1, 53854, Note_off_c, 0, 52, 100
1, 53854, Note_on_c, 0, 55, 100
1, 53950, Note_off_c, 0, 55, 100
1, 53950, Note_on_c, 0, 58, 100
1, 54094, Note_off_c, 0, 58, 100
1, 54094, Note_on_c, 0, 60, 100
1, 54142, Note_off_c, 0, 60, 100
1, 54142, Note_on_c, 0, 61, 100
1, 54238, Note_off_c, 0, 61, 100
1, 54238, Note_on_c, 0, 64, 100
1, 54334, Note_off_c, 0, 64, 100
1, 54334, Note_on_c, 0, 67, 100
1, 54430, Note_off_c, 0, 67, 100
1, 54430, Note_on_c, 0, 64, 100
1, 54526, Note_off_c, 0, 64, 100
1, 54526, Note_on_c, 0, 65, 100
1, 54670, Note_off_c, 0, 65, 100
1, 54670, Note_on_c, 0, 62, 100
1, 54766, Note_off_c, 0, 62, 100
1, 55678, Note_on_c, 0, 60, 100
1, 55774, Note_off_c, 0, 60, 100
1, 55774, Note_on_c, 0, 65, 100
1, 55870, Note_off_c, 0, 65, 100
1, 55870, Note_on_c, 0, 68, 100
1, 56014, Note_off_c, 0, 68, 100
1, 56014, Note_on_c, 0, 72, 100
1, 56206, Note_off_c, 0, 72, 100
1, 56206, Note_on_c, 0, 72, 100
1, 56302, Note_off_c, 0, 72, 100
1, 56302, Note_on_c, 0, 66, 100
1, 56398, Note_off_c, 0, 66, 100
1, 56398, Note_on_c, 0, 67, 100
1, 56878, Note_off_c, 0, 67, 100
1, 56878, Note_on_c, 0, 67, 100
1, 56974, Note_off_c, 0, 67, 100
1, 56974, Note_on_c, 0, 70, 100
1, 57118, Note_off_c, 0, 70, 100
1, 57118, Note_on_c, 0, 67, 100
1, 57166, Note_off_c, 0, 67, 100
1, 57166, Note_on_c, 0, 68, 100
1, 57310, Note_off_c, 0, 68, 100
1, 57310, Note_on_c, 0, 65, 100
1, 57550, Note_off_c, 0, 65, 100
1, 57550, Note_on_c, 0, 61, 100
1, 57646, Note_off_c, 0, 61, 100
1, 57934, Note_on_c, 0, 65, 100
1, 58046, Note_off_c, 0, 65, 100
1, 58046, Note_on_c, 0, 66, 100
1, 58110, Note_off_c, 0, 66, 100
1, 58110, Note_on_c, 0, 64, 100
1, 58174, Note_off_c, 0, 64, 100
1, 58174, Note_on_c, 0, 63, 100
1, 58270, Note_off_c, 0, 63, 100
1, 58270, Note_on_c, 0, 61, 100
1, 58366, Note_off_c, 0, 61, 100
1, 58366, Note_on_c, 0, 60, 100
1, 58462, Note_off_c, 0, 60, 100
1, 58462, Note_on_c, 0, 59, 100
1, 58558, Note_off_c, 0, 59, 100
1, 58558, Note_on_c, 0, 58, 100
1, 58654, Note_off_c, 0, 58, 100
1, 58654, Note_on_c, 0, 56, 100
1, 58750, Note_off_c, 0, 56, 100
1, 58750, Note_on_c, 0, 57, 100
1, 58846, Note_off_c, 0, 57, 100
1, 58846, Note_on_c, 0, 60, 100
1, 58990, Note_off_c, 0, 60, 100
1, 58990, Note_on_c, 0, 57, 100
1, 59038, Note_off_c, 0, 57, 100
1, 59038, Note_on_c, 0, 63, 100
1, 59198, Note_off_c, 0, 63, 100
1, 59198, Note_on_c, 0, 65, 100
1, 59422, Note_off_c, 0, 65, 100
1, 59422, Note_on_c, 0, 66, 100
1, 59518, Note_off_c, 0, 66, 100
1, 59518, Note_on_c, 0, 68, 100
1, 59710, Note_off_c, 0, 68, 100
1, 59710, Note_on_c, 0, 65, 100
1, 59854, Note_off_c, 0, 65, 100
1, 59854, Note_on_c, 0, 63, 100
1, 59966, Note_off_c, 0, 63, 100
1, 59966, Note_on_c, 0, 65, 100
1, 60094, Note_off_c, 0, 65, 100
1, 60094, Note_on_c, 0, 61, 100
1, 60478, Note_off_c, 0, 61, 100
1, 60958, Note_on_c, 0, 68, 100
1, 61150, Note_off_c, 0, 68, 100
1, 61150, Note_on_c, 0, 65, 100
1, 61246, Note_off_c, 0, 65, 100
1, 61246, Note_on_c, 0, 61, 100
1, 61342, Note_off_c, 0, 61, 100
1, 61342, Note_on_c, 0, 58, 100
1, 61438, Note_off_c, 0, 58, 100
1, 61438, Note_on_c, 0, 59, 100
1, 61534, Note_off_c, 0, 59, 100
1, 61822, Note_on_c, 0, 67, 100
1, 61870, Note_off_c, 0, 67, 100
1, 61870, Note_on_c, 0, 68, 100
1, 61966, Note_off_c, 0, 68, 100
1, 61966, Note_on_c, 0, 67, 100
1, 62110, Note_off_c, 0, 67, 100
1, 62110, Note_on_c, 0, 65, 100
1, 62206, Note_off_c, 0, 65, 100
1, 62206, Note_on_c, 0, 64, 100
1, 62302, Note_off_c, 0, 64, 100
1, 62302, Note_on_c, 0, 60, 100
1, 62398, Note_off_c, 0, 60, 100
1, 62398, Note_on_c, 0, 57, 100
1, 62494, Note_off_c, 0, 57, 100
1, 62494, Note_on_c, 0, 56, 100
1, 62590, Note_off_c, 0, 56, 100
1, 62590, Note_on_c, 0, 55, 100
1, 62734, Note_off_c, 0, 55, 100
1, 62734, Note_on_c, 0, 52, 100
1, 62782, Note_off_c, 0, 52, 100
1, 62782, Note_on_c, 0, 55, 100
1, 62878, Note_off_c, 0, 55, 100
1, 62878, Note_on_c, 0, 58, 100
1, 62974, Note_off_c, 0, 58, 100
1, 62974, Note_on_c, 0, 66, 100
1, 63038, Note_off_c, 0, 66, 100
1, 63038, Note_on_c, 0, 67, 100
1, 63102, Note_off_c, 0, 67, 100
1, 63102, Note_on_c, 0, 66, 100
1, 63166, Note_off_c, 0, 66, 100
1, 63166, Note_on_c, 0, 64, 100
1, 63262, Note_off_c, 0, 64, 100
1, 63262, Note_on_c, 0, 65, 100
1, 63310, Note_off_c, 0, 65, 100
1, 63310, Note_on_c, 0, 63, 100
1, 63358, Note_off_c, 0, 63, 100
1, 63358, Note_on_c, 0, 61, 100
1, 63550, Note_off_c, 0, 61, 100
1, 63550, Note_on_c, 0, 64, 100
1, 63646, Note_off_c, 0, 64, 100
1, 63646, Note_on_c, 0, 66, 100
1, 63742, Note_off_c, 0, 66, 100
1, 63742, Note_on_c, 0, 61, 100
1, 63934, Note_off_c, 0, 61, 100
1, 63934, Note_on_c, 0, 58, 100
1, 64126, Note_off_c, 0, 58, 100
1, 64126, Note_on_c, 0, 59, 100
1, 64414, Note_off_c, 0, 59, 100
1, 64798, Note_on_c, 0, 64, 100
1, 64894, Note_off_c, 0, 64, 100
1, 64894, Note_on_c, 0, 65, 100
1, 65278, Note_off_c, 0, 65, 100
1, 65278, Note_on_c, 0, 57, 100
1, 65374, Note_off_c, 0, 57, 100
1, 65374, Note_on_c, 0, 58, 100
1, 65470, Note_off_c, 0, 58, 100
1, 65470, Note_on_c, 0, 62, 100
1, 65566, Note_off_c, 0, 62, 100
1, 65566, Note_on_c, 0, 65, 100
1, 65662, Note_off_c, 0, 65, 100
1, 65662, Note_on_c, 0, 69, 100
1, 65758, Note_off_c, 0, 69, 100
1, 65758, Note_on_c, 0, 70, 100
1, 65854, Note_off_c, 0, 70, 100
1, 66046, Note_on_c, 0, 64, 100
1, 66142, Note_off_c, 0, 64, 100
1, 66142, Note_on_c, 0, 65, 100
1, 66238, Note_off_c, 0, 65, 100
1, 66430, Note_on_c, 0, 61, 100
1, 66526, Note_off_c, 0, 61, 100
1, 66526, Note_on_c, 0, 62, 100
1, 66622, Note_off_c, 0, 62, 100
1, 67150, Note_on_c, 0, 57, 100
1, 67198, Note_off_c, 0, 57, 100
1, 67198, Note_on_c, 0, 58, 100
1, 67294, Note_off_c, 0, 58, 100
1, 67294, Note_on_c, 0, 60, 100
1, 67390, Note_off_c, 0, 60, 100
1, 67390, Note_on_c, 0, 61, 100
1, 67486, Note_off_c, 0, 61, 100
1, 67486, Note_on_c, 0, 63, 100
1, 67582, Note_off_c, 0, 63, 100
1, 67582, Note_on_c, 0, 65, 100
1, 67678, Note_off_c, 0, 65, 100
1, 67678, Note_on_c, 0, 68, 100
1, 67774, Note_off_c, 0, 68, 100
1, 67774, Note_on_c, 0, 67, 100
1, 67870, Note_off_c, 0, 67, 100
1, 67870, Note_on_c, 0, 65, 100
1, 67918, Note_off_c, 0, 65, 100
1, 67918, Note_on_c, 0, 63, 100
1, 68014, Note_off_c, 0, 63, 100
1, 68014, Note_on_c, 0, 62, 100
1, 68110, Note_off_c, 0, 62, 100
1, 68110, Note_on_c, 0, 61, 100
1, 68254, Note_off_c, 0, 61, 100
1, 68254, Note_on_c, 0, 58, 100
1, 68302, Note_off_c, 0, 58, 100
1, 68302, Note_on_c, 0, 60, 100
1, 68446, Note_off_c, 0, 60, 100
1, 68446, Note_on_c, 0, 63, 100
1, 68542, Note_off_c, 0, 63, 100
1, 68542, Note_on_c, 0, 58, 100
1, 68638, Note_off_c, 0, 58, 100
1, 68638, Note_on_c, 0, 55, 100
1, 68734, Note_off_c, 0, 55, 100
1, 68734, Note_on_c, 0, 56, 100
1, 68926, Note_off_c, 0, 56, 100
1, 68926, Note_on_c, 0, 67, 100
1, 69022, Note_off_c, 0, 67, 100
1, 69022, Note_on_c, 0, 68, 100
1, 69118, Note_off_c, 0, 68, 100
1, 69118, Note_on_c, 0, 67, 100
1, 69310, Note_off_c, 0, 67, 100
1, 69310, Note_on_c, 0, 65, 100
1, 69454, Note_off_c, 0, 65, 100
1, 69454, Note_on_c, 0, 64, 100
1, 69694, Note_off_c, 0, 64, 100
1, 69694, Note_on_c, 0, 60, 100
1, 69886, Note_off_c, 0, 60, 100
1, 69886, Note_on_c, 0, 72, 100
1, 69982, Note_off_c, 0, 72, 100
1, 70654, Note_on_c, 0, 59, 100
1, 70750, Note_off_c, 0, 59, 100
1, 70750, Note_on_c, 0, 65, 100
1, 70846, Note_off_c, 0, 65, 100
1, 70846, Note_on_c, 0, 68, 100
1, 70942, Note_off_c, 0, 68, 100
1, 70942, Note_on_c, 0, 72, 100
1, 71038, Note_off_c, 0, 72, 100
1, 71038, Note_on_c, 0, 70, 100
1, 71134, Note_off_c, 0, 70, 100
1, 71134, Note_on_c, 0, 68, 100
1, 71230, Note_off_c, 0, 68, 100
1, 71230, Note_on_c, 0, 67, 100
1, 71326, Note_off_c, 0, 67, 100
1, 71326, Note_on_c, 0, 65, 100
1, 71422, Note_off_c, 0, 65, 100
1, 71422, Note_on_c, 0, 64, 100
1, 71518, Note_off_c, 0, 64, 100
1, 71518, Note_on_c, 0, 61, 100
1, 71614, Note_off_c, 0, 61, 100
1, 71614, Note_on_c, 0, 60, 100
1, 71710, Note_off_c, 0, 60, 100
1, 71710, Note_on_c, 0, 58, 100
1, 71806, Note_off_c, 0, 58, 100
1, 71806, Note_on_c, 0, 56, 100
1, 71902, Note_off_c, 0, 56, 100
1, 71902, Note_on_c, 0, 53, 100
1, 71998, Note_off_c, 0, 53, 100
1, 71998, Note_on_c, 0, 55, 100
1, 72094, Note_off_c, 0, 55, 100
1, 73150, Note_on_c, 0, 53, 100
1, 73246, Note_off_c, 0, 53, 100
1, 73246, Note_on_c, 0, 58, 100
1, 73342, Note_off_c, 0, 58, 100
1, 73342, Note_on_c, 0, 61, 100
1, 73438, Note_off_c, 0, 61, 100
1, 73438, Note_on_c, 0, 65, 100
1, 73534, Note_off_c, 0, 65, 100
1, 73534, Note_on_c, 0, 63, 100
1, 73630, Note_off_c, 0, 63, 100
1, 73630, Note_on_c, 0, 60, 100
1, 73726, Note_off_c, 0, 60, 100
1, 73726, Note_on_c, 0, 61, 100
1, 73822, Note_off_c, 0, 61, 100
1, 73822, Note_on_c, 0, 60, 100
1, 73870, Note_off_c, 0, 60, 100
1, 73870, Note_on_c, 0, 58, 100
1, 74014, Note_off_c, 0, 58, 100
1, 74014, Note_on_c, 0, 56, 100
1, 74110, Note_off_c, 0, 56, 100
1, 74110, Note_on_c, 0, 57, 100
1, 74206, Note_off_c, 0, 57, 100
1, 74206, Note_on_c, 0, 60, 100
1, 74302, Note_off_c, 0, 60, 100
1, 74302, Note_on_c, 0, 63, 100
1, 74398, Note_off_c, 0, 63, 100
1, 74398, Note_on_c, 0, 65, 100
1, 74446, Note_off_c, 0, 65, 100
1, 74446, Note_on_c, 0, 66, 100
1, 74590, Note_off_c, 0, 66, 100
1, 74590, Note_on_c, 0, 67, 100
1, 74638, Note_off_c, 0, 67, 100
1, 74638, Note_on_c, 0, 66, 100
1, 74686, Note_off_c, 0, 66, 100
1, 74686, Note_on_c, 0, 65, 100
1, 74782, Note_off_c, 0, 65, 100
1, 74782, Note_on_c, 0, 63, 100
1, 74878, Note_off_c, 0, 63, 100
1, 74878, Note_on_c, 0, 61, 100
1, 74974, Note_off_c, 0, 61, 100
1, 74974, Note_on_c, 0, 58, 100
1, 75262, Note_off_c, 0, 58, 100
1, 75742, Note_on_c, 0, 57, 100
1, 75838, Note_off_c, 0, 57, 100
1, 75838, Note_on_c, 0, 58, 100
1, 75934, Note_off_c, 0, 58, 100
1, 75934, Note_on_c, 0, 65, 100
1, 76030, Note_off_c, 0, 65, 100
1, 76030, Note_on_c, 0, 68, 100
1, 76174, Note_off_c, 0, 68, 100
1, 76174, Note_on_c, 0, 65, 100
1, 76318, Note_off_c, 0, 65, 100
1, 76318, Note_on_c, 0, 61, 100
1, 76414, Note_off_c, 0, 61, 100
1, 76414, Note_on_c, 0, 58, 100
1, 76558, Note_off_c, 0, 58, 100
1, 76558, Note_on_c, 0, 65, 100
1, 76798, Note_off_c, 0, 65, 100
1, 76798, Note_on_c, 0, 68, 100
1, 76990, Note_off_c, 0, 68, 100
1, 76990, Note_on_c, 0, 65, 100
1, 77086, Note_off_c, 0, 65, 100
1, 77086, Note_on_c, 0, 59, 100
1, 77182, Note_off_c, 0, 59, 100
1, 77662, Note_on_c, 0, 59, 100
1, 77758, Note_off_c, 0, 59, 100
1, 77758, Note_on_c, 0, 60, 100
1, 77822, Note_off_c, 0, 60, 100
1, 77822, Note_on_c, 0, 63, 100
1, 77886, Note_off_c, 0, 63, 100
1, 77886, Note_on_c, 0, 67, 100
1, 77950, Note_off_c, 0, 67, 100
1, 77950, Note_on_c, 0, 70, 100
1, 78046, Note_off_c, 0, 70, 100
1, 78046, Note_on_c, 0, 67, 100
1, 78142, Note_off_c, 0, 67, 100
1, 78142, Note_on_c, 0, 70, 100
1, 78334, Note_off_c, 0, 70, 100
1, 78334, Note_on_c, 0, 69, 100
1, 78430, Note_off_c, 0, 69, 100
1, 78430, Note_on_c, 0, 68, 100
1, 78526, Note_off_c, 0, 68, 100
1, 78526, Note_on_c, 0, 66, 100
1, 78622, Note_off_c, 0, 66, 100
1, 78622, Note_on_c, 0, 61, 100
1, 78718, Note_off_c, 0, 61, 100
1, 78718, Note_on_c, 0, 59, 100
1, 78814, Note_off_c, 0, 59, 100
1, 78814, Note_on_c, 0, 57, 100
1, 78910, Note_off_c, 0, 57, 100
1, 78910, Note_on_c, 0, 66, 100
1, 79006, Note_off_c, 0, 66, 100
1, 79006, Note_on_c, 0, 68, 100
1, 79102, Note_off_c, 0, 68, 100
1, 79102, Note_on_c, 0, 67, 100
1, 79150, Note_off_c, 0, 67, 100
1, 79150, Note_on_c, 0, 65, 100
1, 79246, Note_off_c, 0, 65, 100
1, 79246, Note_on_c, 0, 61, 100
1, 79342, Note_off_c, 0, 61, 100
1, 79870, Note_on_c, 0, 67, 100
1, 79966, Note_off_c, 0, 67, 100
1, 79966, Note_on_c, 0, 69, 100
1, 80014, Note_off_c, 0, 69, 100
1, 80014, Note_on_c, 0, 68, 100
1, 80062, Note_off_c, 0, 68, 100
1, 80062, Note_on_c, 0, 67, 100
1, 80158, Note_off_c, 0, 67, 100
1, 80158, Note_on_c, 0, 65, 100
1, 80254, Note_off_c, 0, 65, 100
1, 80254, Note_on_c, 0, 63, 100
1, 80350, Note_off_c, 0, 63, 100
1, 80350, Note_on_c, 0, 60, 100
1, 80446, Note_off_c, 0, 60, 100
1, 80446, Note_on_c, 0, 61, 100
1, 80542, Note_off_c, 0, 61, 100
1, 80542, Note_on_c, 0, 61, 100
1, 80638, Note_off_c, 0, 61, 100
1, 80638, Note_on_c, 0, 60, 100
1, 80766, Note_off_c, 0, 60, 100
1, 80766, Note_on_c, 0, 56, 100
1, 81022, Note_off_c, 0, 56, 100
1, 81022, Note_on_c, 0, 58, 100
1, 81118, Note_off_c, 0, 58, 100
1, 81118, Note_on_c, 0, 56, 100
1, 81214, Note_off_c, 0, 56, 100
1, 81214, Note_on_c, 0, 55, 100
1, 81310, Note_off_c, 0, 55, 100
1, 81310, Note_on_c, 0, 53, 100
1, 81406, Note_off_c, 0, 53, 100
1, 81406, Note_on_c, 0, 52, 100
1, 81598, Note_off_c, 0, 52, 100
1, 81598, Note_on_c, 0, 60, 100
1, 81646, Note_off_c, 0, 60, 100
1, 81646, Note_on_c, 0, 61, 100
1, 81742, Note_off_c, 0, 61, 100
1, 81742, Note_on_c, 0, 60, 100
1, 82036, Note_off_c, 0, 60, 100
1, 82036, End_track
0, 0, End_of_file
