0, 0, Header, 1, 1, 192
1, 0, Start_track
1, 0, Title_t, "Melody"
1, 0, Tempo, 304568
1, 0, Key_signature, 0, "major"
1, 0, Time_signature, 4, 2, 24, 8
1, 96, Note_on_c, 0, 64, 100
1, 192, Note_off_c, 0, 64, 100
1, 192, Note_on_c, 0, 67, 100
1, 288, Note_off_c, 0, 67, 100
1, 288, Note_on_c, 0, 72, 100
1, 384, Note_off_c, 0, 72, 100
1, 384, Note_on_c, 0, 69, 100
1, 480, Note_off_c, 0, 69, 100
1, 480, Note_on_c, 0, 67, 100
1, 528, Note_off_c, 0, 67, 100
1, 528, Note_on_c, 0, 65, 100
1, 624, Note_off_c, 0, 65, 100
1, 624, Note_on_c, 0, 64, 100
1, 720, Note_off_c, 0, 64, 100
1, 720, Note_on_c, 0, 62, 100
1, 864, Note_off_c, 0, 62, 100
1, 864, Note_on_c, 0, 60, 100
1, 960, Note_off_c, 0, 60, 100
1, 960, Note_on_c, 0, 64, 100
1, 1056, Note_off_c, 0, 64, 100
1, 1056, Note_on_c, 0, 62, 100
1, 1152, Note_off_c, 0, 62, 100
1, 1152, Note_on_c, 0, 60, 100
1, 1344, Note_off_c, 0, 60, 100
1, 1344, Note_on_c, 0, 55, 100
1, 1440, Note_off_c, 0, 55, 100
1, 1440, Note_on_c, 0, 52, 100
1, 1536, Note_off_c, 0, 52, 100
1, 1536, Note_on_c, 0, 53, 100
1, 1728, Note_off_c, 0, 53, 100
1, 1728, Note_on_c, 0, 57, 100
1, 1824, Note_off_c, 0, 57, 100
1, 1824, Note_on_c, 0, 60, 100
1, 1920, Note_off_c, 0, 60, 100
1, 1920, Note_on_c, 0, 65, 100
1, 2016, Note_off_c, 0, 65, 100
1, 2016, Note_on_c, 0, 66, 100
1, 2112, Note_off_c, 0, 66, 100
1, 2112, Note_on_c, 0, 69, 100
1, 2208, Note_off_c, 0, 69, 100
1, 2208, Note_on_c, 0, 67, 100
1, 2400, Note_off_c, 0, 67, 100
1, 2400, Note_on_c, 0, 71, 100
1, 2496, Note_off_c, 0, 71, 100
1, 2496, Note_on_c, 0, 74, 100
1, 2592, Note_off_c, 0, 74, 100
1, 2592, Note_on_c, 0, 72, 100
1, 2752, Note_off_c, 0, 72, 100
1, 2752, Note_on_c, 0, 71, 100
1, 2816, Note_off_c, 0, 71, 100
1, 2816, Note_on_c, 0, 69, 100
1, 2928, Note_off_c, 0, 69, 100
1, 2928, Note_on_c, 0, 67, 100
1, 3024, Note_off_c, 0, 67, 100
1, 3024, Note_on_c, 0, 67, 100
1, 3120, Note_off_c, 0, 67, 100
1, 3120, Note_on_c, 0, 67, 100
1, 3216, Note_off_c, 0, 67, 100
1, 3216, Note_on_c, 0, 66, 100
1, 3264, Note_off_c, 0, 66, 100
1, 3264, Note_on_c, 0, 69, 100
1, 3456, Note_off_c, 0, 69, 100
1, 3456, Note_on_c, 0, 67, 100
1, 3648, Note_off_c, 0, 67, 100
1, 3648, Note_on_c, 0, 72, 100
1, 3744, Note_off_c, 0, 72, 100
1, 3744, Note_on_c, 0, 72, 100
1, 3840, Note_off_c, 0, 72, 100
1, 3840, Note_on_c, 0, 71, 100
1, 3936, Note_off_c, 0, 71, 100
1, 3936, Note_on_c, 0, 69, 100
1, 4320, Note_off_c, 0, 69, 100
1, 4320, Note_on_c, 0, 67, 100
1, 4416, Note_off_c, 0, 67, 100
1, 4416, Note_on_c, 0, 65, 100
1, 4512, Note_off_c, 0, 65, 100
1, 4512, Note_on_c, 0, 64, 100
1, 4608, Note_off_c, 0, 64, 100
1, 4608, Note_on_c, 0, 67, 100
1, 4864, Note_off_c, 0, 67, 100
1, 4864, Note_on_c, 0, 65, 100
1, 5136, Note_off_c, 0, 65, 100
1, 5136, Note_on_c, 0, 69, 100
1, 5280, Note_off_c, 0, 69, 100
1, 5280, Note_on_c, 0, 74, 100
1, 5376, Note_off_c, 0, 74, 100
1, 5376, Note_on_c, 0, 71, 100
1, 5616, Note_off_c, 0, 71, 100
1, 5616, Note_on_c, 0, 69, 100
1, 5712, Note_off_c, 0, 69, 100
1, 5712, Note_on_c, 0, 67, 100
1, 5904, Note_off_c, 0, 67, 100
1, 6288, Note_on_c, 0, 67, 100
1, 6432, Note_off_c, 0, 67, 100
1, 6432, Note_on_c, 0, 62, 100
1, 6528, Note_off_c, 0, 62, 100
1, 6528, Note_on_c, 0, 71, 100
1, 6624, Note_off_c, 0, 71, 100
1, 6624, Note_on_c, 0, 74, 100
1, 6816, Note_off_c, 0, 74, 100
1, 6816, Note_on_c, 0, 72, 100
1, 6912, Note_off_c, 0, 72, 100
1, 6912, Note_on_c, 0, 71, 100
1, 7008, Note_off_c, 0, 71, 100
1, 7008, Note_on_c, 0, 69, 100
1, 7104, Note_off_c, 0, 69, 100
1, 7104, Note_on_c, 0, 67, 100
1, 7584, Note_off_c, 0, 67, 100
1, 7584, Note_on_c, 0, 62, 100
1, 7680, Note_off_c, 0, 62, 100
1, 7680, Note_on_c, 0, 71, 100
1, 7776, Note_off_c, 0, 71, 100
1, 7776, Note_on_c, 0, 74, 100
1, 7920, Note_off_c, 0, 74, 100
1, 7920, Note_on_c, 0, 72, 100
1, 8016, Note_off_c, 0, 72, 100
1, 8016, Note_on_c, 0, 69, 100
1, 8160, Note_off_c, 0, 69, 100
1, 8160, Note_on_c, 0, 65, 100
1, 8304, Note_off_c, 0, 65, 100
1, 8304, Note_on_c, 0, 69, 100
1, 8400, Note_off_c, 0, 69, 100
1, 8400, Note_on_c, 0, 74, 100
1, 8496, Note_off_c, 0, 74, 100
1, 8496, Note_on_c, 0, 71, 100
1, 8592, Note_off_c, 0, 71, 100
1, 8592, Note_on_c, 0, 69, 100
1, 8704, Note_off_c, 0, 69, 100
1, 8704, Note_on_c, 0, 67, 100
1, 9184, Note_off_c, 0, 67, 100
1, 9408, Note_on_c, 0, 64, 100
1, 9504, Note_off_c, 0, 64, 100
1, 9504, Note_on_c, 0, 67, 100
1, 9696, Note_off_c, 0, 67, 100
1, 9696, Note_on_c, 0, 73, 100
1, 9792, Note_off_c, 0, 73, 100
1, 9792, Note_on_c, 0, 69, 100
1, 9920, Note_off_c, 0, 69, 100
1, 9920, Note_on_c, 0, 67, 100
1, 10032, Note_off_c, 0, 67, 100
1, 10032, Note_on_c, 0, 65, 100
1, 10128, Note_off_c, 0, 65, 100
1, 10128, Note_on_c, 0, 64, 100
1, 10272, Note_off_c, 0, 64, 100
1, 10272, Note_on_c, 0, 62, 100
1, 10368, Note_off_c, 0, 62, 100
1, 10368, Note_on_c, 0, 61, 100
1, 10464, Note_off_c, 0, 61, 100
1, 10464, Note_on_c, 0, 62, 100
1, 10624, Note_off_c, 0, 62, 100
1, 10624, Note_on_c, 0, 64, 100
1, 10752, Note_off_c, 0, 64, 100
1, 10752, Note_on_c, 0, 65, 100
1, 10848, Note_off_c, 0, 65, 100
1, 10848, Note_on_c, 0, 62, 100
1, 11040, Note_off_c, 0, 62, 100
1, 11040, Note_on_c, 0, 69, 100
1, 11184, Note_off_c, 0, 69, 100
1, 11184, Note_on_c, 0, 74, 100
1, 11280, Note_off_c, 0, 74, 100
1, 11280, Note_on_c, 0, 71, 100
1, 11392, Note_off_c, 0, 71, 100
1, 11392, Note_on_c, 0, 69, 100
1, 11520, Note_off_c, 0, 69, 100
1, 11520, Note_on_c, 0, 67, 100
1, 11616, Note_off_c, 0, 67, 100
1, 11616, Note_on_c, 0, 64, 100
1, 11760, Note_off_c, 0, 64, 100
1, 11760, Note_on_c, 0, 69, 100
1, 11856, Note_off_c, 0, 69, 100
1, 11856, Note_on_c, 0, 67, 100
1, 12000, Note_off_c, 0, 67, 100
1, 12000, Note_on_c, 0, 65, 100
1, 12192, Note_off_c, 0, 65, 100
1, 12192, Note_on_c, 0, 64, 100
1, 12336, Note_off_c, 0, 64, 100
1, 12336, Note_on_c, 0, 67, 100
1, 12480, Note_off_c, 0, 67, 100
1, 12480, Note_on_c, 0, 72, 100
1, 12768, Note_off_c, 0, 72, 100
1, 12768, Note_on_c, 0, 76, 100
1, 12912, Note_off_c, 0, 76, 100
1, 12912, Note_on_c, 0, 71, 100
1, 13008, Note_off_c, 0, 71, 100
1, 13008, Note_on_c, 0, 74, 100
1, 13152, Note_off_c, 0, 74, 100
1, 13152, Note_on_c, 0, 72, 100
1, 13248, Note_off_c, 0, 72, 100
1, 13248, Note_on_c, 0, 69, 100
1, 13344, Note_off_c, 0, 69, 100
1, 13344, Note_on_c, 0, 67, 100
1, 13632, Note_off_c, 0, 67, 100
1, 13920, Note_on_c, 0, 67, 100
1, 14064, Note_off_c, 0, 67, 100
1, 14064, Note_on_c, 0, 65, 100
1, 14160, Note_off_c, 0, 65, 100
1, 14160, Note_on_c, 0, 69, 100
1, 14272, Note_off_c, 0, 69, 100
1, 14272, Note_on_c, 0, 72, 100
1, 14400, Note_off_c, 0, 72, 100
1, 14400, Note_on_c, 0, 77, 100
1, 14496, Note_off_c, 0, 77, 100
1, 14496, Note_on_c, 0, 76, 100
1, 14640, Note_off_c, 0, 76, 100
1, 14640, Note_on_c, 0, 74, 100
1, 14736, Note_off_c, 0, 74, 100
1, 14736, Note_on_c, 0, 72, 100
1, 14784, Note_off_c, 0, 72, 100
1, 14784, Note_on_c, 0, 71, 100
1, 14976, Note_off_c, 0, 71, 100
1, 14976, Note_on_c, 0, 74, 100
1, 15216, Note_off_c, 0, 74, 100
1, 15216, Note_on_c, 0, 72, 100
1, 15312, Note_off_c, 0, 72, 100
1, 15312, Note_on_c, 0, 71, 100
1, 15456, Note_off_c, 0, 71, 100
1, 15456, Note_on_c, 0, 69, 100
1, 15552, Note_off_c, 0, 69, 100
1, 15552, Note_on_c, 0, 67, 100
1, 15576, Note_off_c, 0, 67, 100
1, 15576, Note_on_c, 0, 68, 100
1, 15624, Note_off_c, 0, 68, 100
1, 15624, Note_on_c, 0, 67, 100
1, 15696, Note_off_c, 0, 67, 100
1, 15696, Note_on_c, 0, 66, 100
1, 15792, Note_off_c, 0, 66, 100
1, 15792, Note_on_c, 0, 69, 100
1, 15888, Note_off_c, 0, 69, 100
1, 15888, Note_on_c, 0, 67, 100
1, 16000, Note_off_c, 0, 67, 100
1, 16000, Note_on_c, 0, 64, 100
1, 16128, Note_off_c, 0, 64, 100
1, 16128, Note_on_c, 0, 73, 100
1, 16224, Note_off_c, 0, 73, 100
1, 16224, Note_on_c, 0, 70, 100
1, 16272, Note_off_c, 0, 70, 100
1, 16272, Note_on_c, 0, 69, 100
1, 16320, Note_off_c, 0, 69, 100
1, 16320, Note_on_c, 0, 70, 100
1, 16416, Note_off_c, 0, 70, 100
1, 16416, Note_on_c, 0, 69, 100
1, 16560, Note_off_c, 0, 69, 100
1, 16560, Note_on_c, 0, 67, 100
1, 16656, Note_off_c, 0, 67, 100
1, 16656, Note_on_c, 0, 65, 100
1, 16704, Note_off_c, 0, 65, 100
1, 16704, Note_on_c, 0, 64, 100
1, 16896, Note_off_c, 0, 64, 100
1, 16896, Note_on_c, 0, 62, 100
1, 16944, Note_off_c, 0, 62, 100
1, 16944, Note_on_c, 0, 67, 100
1, 17040, Note_off_c, 0, 67, 100
1, 17040, Note_on_c, 0, 64, 100
1, 17088, Note_off_c, 0, 64, 100
1, 17088, Note_on_c, 0, 65, 100
1, 17280, Note_off_c, 0, 65, 100
1, 17280, Note_on_c, 0, 69, 100
1, 17424, Note_off_c, 0, 69, 100
1, 17424, Note_on_c, 0, 74, 100
1, 17472, Note_off_c, 0, 74, 100
1, 17472, Note_on_c, 0, 71, 100
1, 17664, Note_off_c, 0, 71, 100
1, 17664, Note_on_c, 0, 72, 100
1, 17792, Note_off_c, 0, 72, 100
1, 17792, Note_on_c, 0, 71, 100
1, 17952, Note_off_c, 0, 71, 100
1, 17952, Note_on_c, 0, 69, 100
1, 18048, Note_off_c, 0, 69, 100
1, 18048, Note_on_c, 0, 67, 100
1, 18192, Note_off_c, 0, 67, 100
1, 18192, Note_on_c, 0, 65, 100
1, 18336, Note_off_c, 0, 65, 100
1, 18336, Note_on_c, 0, 64, 100
1, 18432, Note_off_c, 0, 64, 100
1, 18672, Note_on_c, 0, 67, 100
1, 18768, Note_off_c, 0, 67, 100
1, 18768, Note_on_c, 0, 69, 100
1, 18960, Note_off_c, 0, 69, 100
1, 18960, Note_on_c, 0, 64, 100
1, 19200, Note_off_c, 0, 64, 100
1, 19200, Note_on_c, 0, 67, 100
1, 19344, Note_off_c, 0, 67, 100
1, 19344, Note_on_c, 0, 64, 100
1, 19488, Note_off_c, 0, 64, 100
1, 19488, Note_on_c, 0, 60, 100
1, 19584, Note_off_c, 0, 60, 100
1, 19584, Note_on_c, 0, 55, 100
1, 19872, Note_off_c, 0, 55, 100
1, 20160, Note_on_c, 0, 69, 100
1, 21600, Note_off_c, 0, 69, 100
1, 21600, Note_on_c, 0, 67, 100
1, 21696, Note_off_c, 0, 67, 100
1, 21696, Note_on_c, 0, 72, 100
1, 21792, Note_off_c, 0, 72, 100
1, 21792, Note_on_c, 0, 76, 100
1, 21888, Note_off_c, 0, 76, 100
1, 21888, Note_on_c, 0, 71, 100
1, 21984, Note_off_c, 0, 71, 100
1, 21984, Note_on_c, 0, 74, 100
1, 22080, Note_off_c, 0, 74, 100
1, 22080, Note_on_c, 0, 72, 100
1, 22176, Note_off_c, 0, 72, 100
1, 22176, Note_on_c, 0, 70, 100
1, 22272, Note_off_c, 0, 70, 100
1, 22272, Note_on_c, 0, 73, 100
1, 22368, Note_off_c, 0, 73, 100
1, 22368, Note_on_c, 0, 70, 100
1, 22464, Note_off_c, 0, 70, 100
1, 22464, Note_on_c, 0, 69, 100
1, 22560, Note_off_c, 0, 69, 100
1, 22560, Note_on_c, 0, 67, 100
1, 22656, Note_off_c, 0, 67, 100
1, 22656, Note_on_c, 0, 65, 100
1, 22752, Note_off_c, 0, 65, 100
1, 22752, Note_on_c, 0, 64, 100
1, 22848, Note_off_c, 0, 64, 100
1, 22848, Note_on_c, 0, 62, 100
1, 22944, Note_off_c, 0, 62, 100
1, 22944, Note_on_c, 0, 61, 100
1, 23040, Note_off_c, 0, 61, 100
1, 23040, Note_on_c, 0, 64, 100
1, 23136, Note_off_c, 0, 64, 100
1, 23136, Note_on_c, 0, 61, 100
1, 23232, Note_off_c, 0, 61, 100
1, 23232, Note_on_c, 0, 62, 100
1, 23328, Note_off_c, 0, 62, 100
1, 23328, Note_on_c, 0, 65, 100
1, 23424, Note_off_c, 0, 65, 100
1, 23424, Note_on_c, 0, 69, 100
1, 23520, Note_off_c, 0, 69, 100
1, 23520, Note_on_c, 0, 65, 100
1, 23616, Note_off_c, 0, 65, 100
1, 23616, Note_on_c, 0, 74, 100
1, 23712, Note_off_c, 0, 74, 100
1, 23712, Note_on_c, 0, 67, 100
1, 23760, Note_off_c, 0, 67, 100
1, 23760, Note_on_c, 0, 69, 100
1, 23808, Note_off_c, 0, 69, 100
1, 23808, Note_on_c, 0, 71, 100
1, 23904, Note_off_c, 0, 71, 100
1, 23904, Note_on_c, 0, 71, 100
1, 24000, Note_off_c, 0, 71, 100
1, 24000, Note_on_c, 0, 71, 100
1, 24096, Note_off_c, 0, 71, 100
1, 24096, Note_on_c, 0, 74, 100
1, 24192, Note_off_c, 0, 74, 100
1, 24192, Note_on_c, 0, 71, 100
1, 24288, Note_off_c, 0, 71, 100
1, 24288, Note_on_c, 0, 72, 100
1, 24384, Note_off_c, 0, 72, 100
1, 24384, Note_on_c, 0, 71, 100
1, 24480, Note_off_c, 0, 71, 100
1, 24480, Note_on_c, 0, 69, 100
1, 24576, Note_off_c, 0, 69, 100
1, 24576, Note_on_c, 0, 67, 100
1, 24672, Note_off_c, 0, 67, 100
1, 24672, Note_on_c, 0, 69, 100
1, 24768, Note_off_c, 0, 69, 100
1, 24768, Note_on_c, 0, 67, 100
1, 24864, Note_off_c, 0, 67, 100
1, 24864, Note_on_c, 0, 64, 100
1, 24960, Note_off_c, 0, 64, 100
1, 24960, Note_on_c, 0, 67, 100
1, 25152, Note_off_c, 0, 67, 100
1, 25152, Note_on_c, 0, 69, 100
1, 25248, Note_off_c, 0, 69, 100
1, 25632, Note_on_c, 0, 67, 100
1, 25728, Note_off_c, 0, 67, 100
1, 25728, Note_on_c, 0, 67, 100
1, 25920, Note_off_c, 0, 67, 100
1, 25920, Note_on_c, 0, 67, 100
1, 26016, Note_off_c, 0, 67, 100
1, 26016, Note_on_c, 0, 65, 100
1, 26208, Note_off_c, 0, 65, 100
1, 26208, Note_on_c, 0, 65, 100
1, 26304, Note_off_c, 0, 65, 100
1, 26304, Note_on_c, 0, 67, 100
1, 26400, Note_off_c, 0, 67, 100
1, 26400, Note_on_c, 0, 65, 100
1, 26592, Note_off_c, 0, 65, 100
1, 26592, Note_on_c, 0, 67, 100
1, 26688, Note_off_c, 0, 67, 100
1, 26688, Note_on_c, 0, 69, 100
1, 26784, Note_off_c, 0, 69, 100
1, 26784, Note_on_c, 0, 66, 100
1, 26880, Note_off_c, 0, 66, 100
1, 26880, Note_on_c, 0, 67, 100
1, 27024, Note_off_c, 0, 67, 100
1, 27024, Note_on_c, 0, 64, 100
1, 27168, Note_off_c, 0, 64, 100
1, 27168, Note_on_c, 0, 65, 100
1, 27264, Note_off_c, 0, 65, 100
1, 27264, Note_on_c, 0, 65, 100
1, 27360, Note_off_c, 0, 65, 100
1, 27360, Note_on_c, 0, 65, 100
1, 27456, Note_off_c, 0, 65, 100
1, 27456, Note_on_c, 0, 64, 100
1, 27552, Note_off_c, 0, 64, 100
1, 27552, Note_on_c, 0, 62, 100
1, 27648, Note_off_c, 0, 62, 100
1, 27648, Note_on_c, 0, 60, 100
1, 27840, Note_off_c, 0, 60, 100
1, 27840, Note_on_c, 0, 59, 100
1, 27936, Note_off_c, 0, 59, 100
1, 27936, Note_on_c, 0, 57, 100
1, 28128, Note_off_c, 0, 57, 100
1, 28128, Note_on_c, 0, 55, 100
1, 28224, Note_off_c, 0, 55, 100
1, 28224, Note_on_c, 0, 53, 100
1, 28416, Note_off_c, 0, 53, 100
1, 28416, Note_on_c, 0, 52, 100
1, 28560, Note_off_c, 0, 52, 100
1, 28560, Note_on_c, 0, 50, 100
1, 28704, Note_off_c, 0, 50, 100
1, 28704, Note_on_c, 0, 49, 100
1, 28800, Note_off_c, 0, 49, 100
1, 28800, Note_on_c, 0, 52, 100
1, 28992, Note_off_c, 0, 52, 100
1, 28992, Note_on_c, 0, 49, 100
1, 29088, Note_off_c, 0, 49, 100
1, 29088, Note_on_c, 0, 50, 100
1, 29280, Note_off_c, 0, 50, 100
1, 29280, Note_on_c, 0, 53, 100
1, 29472, Note_off_c, 0, 53, 100
1, 29472, Note_on_c, 0, 57, 100
1, 29568, Note_off_c, 0, 57, 100
1, 29568, Note_on_c, 0, 57, 100
1, 29760, Note_off_c, 0, 57, 100
1, 29760, Note_on_c, 0, 55, 100
1, 29952, Note_off_c, 0, 55, 100
1, 30432, Note_on_c, 0, 66, 100
1, 30480, Note_off_c, 0, 66, 100
1, 30480, Note_on_c, 0, 67, 100
1, 32064, Note_off_c, 0, 67, 100
1, 32064, Note_on_c, 0, 64, 100
1, 32160, Note_off_c, 0, 64, 100
1, 32160, Note_on_c, 0, 72, 100
1, 32256, Note_off_c, 0, 72, 100
1, 32256, Note_on_c, 0, 67, 100
1, 32294, Note_off_c, 0, 67, 100
1, 32294, Note_on_c, 0, 69, 100
1, 32332, Note_off_c, 0, 69, 100
1, 32332, Note_on_c, 0, 67, 100
1, 32408, Note_off_c, 0, 67, 100
1, 32408, Note_on_c, 0, 65, 100
1, 32542, Note_off_c, 0, 65, 100
1, 32542, Note_on_c, 0, 60, 100
1, 32638, Note_off_c, 0, 60, 100
1, 32638, Note_on_c, 0, 69, 100
1, 32676, Note_off_c, 0, 69, 100
1, 32676, Note_on_c, 0, 70, 100
1, 32714, Note_off_c, 0, 70, 100
1, 32714, Note_on_c, 0, 69, 100
1, 32790, Note_off_c, 0, 69, 100
1, 32790, Note_on_c, 0, 65, 100
1, 32828, Note_off_c, 0, 65, 100
1, 32828, Note_on_c, 0, 60, 100
1, 33020, Note_off_c, 0, 60, 100
1, 33020, Note_on_c, 0, 71, 100
1, 33068, Note_off_c, 0, 71, 100
1, 33068, Note_on_c, 0, 72, 100
1, 33116, Note_off_c, 0, 72, 100
1, 33116, Note_on_c, 0, 71, 100
1, 33212, Note_off_c, 0, 71, 100
1, 33212, Note_on_c, 0, 67, 100
1, 33308, Note_off_c, 0, 67, 100
1, 33308, Note_on_c, 0, 72, 100
1, 33404, Note_off_c, 0, 72, 100
1, 33404, Note_on_c, 0, 69, 100
1, 33452, Note_off_c, 0, 69, 100
1, 33452, Note_on_c, 0, 70, 100
1, 33500, Note_off_c, 0, 70, 100
1, 33500, Note_on_c, 0, 69, 100
1, 33596, Note_off_c, 0, 69, 100
1, 33596, Note_on_c, 0, 65, 100
1, 33692, Note_off_c, 0, 65, 100
1, 33692, Note_on_c, 0, 69, 100
1, 33788, Note_off_c, 0, 69, 100
1, 33788, Note_on_c, 0, 67, 100
1, 33820, Note_off_c, 0, 67, 100
1, 33820, Note_on_c, 0, 69, 100
1, 33852, Note_off_c, 0, 69, 100
1, 33852, Note_on_c, 0, 67, 100
1, 33948, Note_off_c, 0, 67, 100
1, 33948, Note_on_c, 0, 64, 100
1, 34028, Note_off_c, 0, 64, 100
1, 34028, Note_on_c, 0, 60, 100
1, 34124, Note_off_c, 0, 60, 100
1, 34124, Note_on_c, 0, 55, 100
1, 34220, Note_off_c, 0, 55, 100
1, 34220, Note_on_c, 0, 60, 100
1, 34316, Note_off_c, 0, 60, 100
1, 34316, Note_on_c, 0, 64, 100
1, 34412, Note_off_c, 0, 64, 100
1, 34412, Note_on_c, 0, 67, 100
1, 34508, Note_off_c, 0, 67, 100
1, 34508, Note_on_c, 0, 61, 100
1, 34620, Note_off_c, 0, 61, 100
1, 34620, Note_on_c, 0, 64, 100
1, 34748, Note_off_c, 0, 64, 100
1, 34748, Note_on_c, 0, 58, 100
1, 34844, Note_off_c, 0, 58, 100
1, 35420, Note_on_c, 0, 57, 100
1, 35516, Note_off_c, 0, 57, 100
1, 35516, Note_on_c, 0, 61, 100
1, 35564, Note_off_c, 0, 61, 100
1, 35564, Note_on_c, 0, 62, 100
1, 35660, Note_off_c, 0, 62, 100
1, 35660, Note_on_c, 0, 64, 100
1, 35772, Note_off_c, 0, 64, 100
1, 35772, Note_on_c, 0, 65, 100
1, 35900, Note_off_c, 0, 65, 100
1, 35900, Note_on_c, 0, 64, 100
1, 35996, Note_off_c, 0, 64, 100
1, 35996, Note_on_c, 0, 62, 100
1, 36092, Note_off_c, 0, 62, 100
1, 36092, Note_on_c, 0, 60, 100
1, 36188, Note_off_c, 0, 60, 100
1, 36188, Note_on_c, 0, 62, 100
1, 36236, Note_off_c, 0, 62, 100
1, 36236, Note_on_c, 0, 60, 100
1, 36380, Note_off_c, 0, 60, 100
1, 36380, Note_on_c, 0, 57, 100
1, 36476, Note_off_c, 0, 57, 100
1, 36476, Note_on_c, 0, 59, 100
1, 36572, Note_off_c, 0, 59, 100
1, 36572, Note_on_c, 0, 57, 100
1, 36668, Note_off_c, 0, 57, 100
1, 36668, Note_on_c, 0, 55, 100
1, 36764, Note_off_c, 0, 55, 100
1, 36764, Note_on_c, 0, 53, 100
1, 36860, Note_off_c, 0, 53, 100
1, 36860, Note_on_c, 0, 52, 100
1, 36956, Note_off_c, 0, 52, 100
1, 36956, Note_on_c, 0, 55, 100
1, 37052, Note_off_c, 0, 55, 100
1, 37052, Note_on_c, 0, 60, 100
1, 37148, Note_off_c, 0, 60, 100
1, 37148, Note_on_c, 0, 55, 100
1, 37244, Note_off_c, 0, 55, 100
1, 37244, Note_on_c, 0, 62, 100
1, 37340, Note_off_c, 0, 62, 100
1, 37340, Note_on_c, 0, 55, 100
1, 37436, Note_off_c, 0, 55, 100
1, 37436, Note_on_c, 0, 55, 100
1, 37532, Note_off_c, 0, 55, 100
1, 37532, Note_on_c, 0, 64, 100
1, 37724, Note_off_c, 0, 64, 100
1, 37724, Note_on_c, 0, 55, 100
1, 37820, Note_off_c, 0, 55, 100
1, 37820, Note_on_c, 0, 60, 100
1, 37916, Note_off_c, 0, 60, 100
1, 37916, Note_on_c, 0, 55, 100
1, 38012, Note_off_c, 0, 55, 100
1, 38012, Note_on_c, 0, 62, 100
1, 38108, Note_off_c, 0, 62, 100
1, 38108, Note_on_c, 0, 55, 100
1, 38204, Note_off_c, 0, 55, 100
1, 38204, Note_on_c, 0, 64, 100
1, 38300, Note_off_c, 0, 64, 100
1, 38300, Note_on_c, 0, 66, 100
1, 38348, Note_off_c, 0, 66, 100
1, 38348, Note_on_c, 0, 67, 100
1, 38396, Note_off_c, 0, 67, 100
1, 38396, Note_on_c, 0, 65, 100
1, 38540, Note_off_c, 0, 65, 100
1, 38540, Note_on_c, 0, 55, 100
1, 38684, Note_off_c, 0, 55, 100
1, 38684, Note_on_c, 0, 65, 100
1, 38780, Note_off_c, 0, 65, 100
1, 38780, Note_on_c, 0, 66, 100
1, 38876, Note_off_c, 0, 66, 100
1, 38876, Note_on_c, 0, 67, 100
1, 39068, Note_off_c, 0, 67, 100
1, 39068, Note_on_c, 0, 67, 100
1, 39356, Note_off_c, 0, 67, 100
1, 39356, Note_on_c, 0, 55, 100
1, 39452, Note_off_c, 0, 55, 100
1, 39452, Note_on_c, 0, 55, 100
1, 39548, Note_off_c, 0, 55, 100
1, 39548, Note_on_c, 0, 63, 100
1, 39596, Note_off_c, 0, 63, 100
1, 39596, Note_on_c, 0, 65, 100
1, 39740, Note_off_c, 0, 65, 100
1, 39740, Note_on_c, 0, 55, 100
1, 39836, Note_off_c, 0, 55, 100
1, 39836, Note_on_c, 0, 55, 100
1, 39884, Note_off_c, 0, 55, 100
1, 39884, Note_on_c, 0, 64, 100
1, 40028, Note_off_c, 0, 64, 100
1, 40028, Note_on_c, 0, 55, 100
1, 40172, Note_off_c, 0, 55, 100
1, 40172, Note_on_c, 0, 64, 100
1, 40268, Note_off_c, 0, 64, 100
1, 40268, Note_on_c, 0, 55, 100
1, 40364, Note_off_c, 0, 55, 100
1, 40364, Note_on_c, 0, 55, 100
1, 40460, Note_off_c, 0, 55, 100
1, 40460, Note_on_c, 0, 64, 100
1, 40604, Note_off_c, 0, 64, 100
1, 40604, Note_on_c, 0, 55, 100
1, 40700, Note_off_c, 0, 55, 100
1, 40700, Note_on_c, 0, 61, 100
1, 40764, Note_off_c, 0, 61, 100
1, 40764, Note_on_c, 0, 60, 100
1, 40828, Note_off_c, 0, 60, 100
1, 40828, Note_on_c, 0, 55, 100
1, 40892, Note_off_c, 0, 55, 100
1, 40892, Note_on_c, 0, 62, 100
1, 40956, Note_off_c, 0, 62, 100
1, 40956, Note_on_c, 0, 61, 100
1, 41020, Note_off_c, 0, 61, 100
1, 41020, Note_on_c, 0, 55, 100
1, 41084, Note_off_c, 0, 55, 100
1, 41084, Note_on_c, 0, 64, 100
1, 41276, Note_off_c, 0, 64, 100
1, 41564, Note_on_c, 0, 65, 100
1, 41660, Note_off_c, 0, 65, 100
1, 41660, Note_on_c, 0, 64, 100
1, 41756, Note_off_c, 0, 64, 100
1, 41756, Note_on_c, 0, 65, 100
1, 41804, Note_off_c, 0, 65, 100
1, 41804, Note_on_c, 0, 62, 100
1, 41900, Note_off_c, 0, 62, 100
1, 41900, Note_on_c, 0, 64, 100
1, 41996, Note_off_c, 0, 64, 100
1, 41996, Note_on_c, 0, 65, 100
1, 42092, Note_off_c, 0, 65, 100
1, 42092, Note_on_c, 0, 69, 100
1, 42188, Note_off_c, 0, 69, 100
1, 42188, Note_on_c, 0, 67, 100
1, 42236, Note_off_c, 0, 67, 100
1, 42236, Note_on_c, 0, 55, 100
1, 42428, Note_off_c, 0, 55, 100
1, 42428, Note_on_c, 0, 60, 100
1, 42524, Note_off_c, 0, 60, 100
1, 42524, Note_on_c, 0, 67, 100
1, 42620, Note_off_c, 0, 67, 100
1, 42620, Note_on_c, 0, 65, 100
1, 42716, Note_off_c, 0, 65, 100
1, 42716, Note_on_c, 0, 62, 100
1, 42812, Note_off_c, 0, 62, 100
1, 42812, Note_on_c, 0, 59, 100
1, 42908, Note_off_c, 0, 59, 100
1, 42908, Note_on_c, 0, 55, 100
1, 43004, Note_off_c, 0, 55, 100
1, 43004, Note_on_c, 0, 60, 100
1, 43100, Note_off_c, 0, 60, 100
1, 43100, Note_on_c, 0, 55, 100
1, 43196, Note_off_c, 0, 55, 100
1, 43196, Note_on_c, 0, 64, 100
1, 43292, Note_off_c, 0, 64, 100
1, 43292, Note_on_c, 0, 60, 100
1, 43388, Note_off_c, 0, 60, 100
1, 43388, Note_on_c, 0, 67, 100
1, 43580, Note_off_c, 0, 67, 100
1, 43580, Note_on_c, 0, 64, 100
1, 43676, Note_off_c, 0, 64, 100
1, 43676, Note_on_c, 0, 60, 100
1, 43772, Note_off_c, 0, 60, 100
1, 43772, Note_on_c, 0, 67, 100
1, 43820, Note_off_c, 0, 67, 100
1, 43820, Note_on_c, 0, 64, 100
1, 43916, Note_off_c, 0, 64, 100
1, 43916, Note_on_c, 0, 67, 100
1, 43964, Note_off_c, 0, 67, 100
1, 43964, Note_on_c, 0, 72, 100
1, 44060, Note_off_c, 0, 72, 100
1, 44060, Note_on_c, 0, 67, 100
1, 44156, Note_off_c, 0, 67, 100
1, 44156, Note_on_c, 0, 64, 100
1, 44348, Note_off_c, 0, 64, 100
1, 44348, Note_on_c, 0, 60, 100
1, 44444, Note_off_c, 0, 60, 100
1, 44444, Note_on_c, 0, 57, 100
1, 44540, Note_off_c, 0, 57, 100
1, 44540, Note_on_c, 0, 65, 100
1, 44636, Note_off_c, 0, 65, 100
1, 44636, Note_on_c, 0, 60, 100
1, 44732, Note_off_c, 0, 60, 100
1, 44732, Note_on_c, 0, 69, 100
1, 45116, Note_off_c, 0, 69, 100
1, 45116, Note_on_c, 0, 67, 100
1, 45180, Note_off_c, 0, 67, 100
1, 45180, Note_on_c, 0, 66, 100
1, 45276, Note_off_c, 0, 66, 100
1, 45596, Note_on_c, 0, 67, 100
1, 46316, Note_off_c, 0, 67, 100
1, 46316, Note_on_c, 0, 64, 100
1, 46412, Note_off_c, 0, 64, 100
1, 46412, Note_on_c, 0, 67, 100
1, 46460, Note_off_c, 0, 67, 100
1, 46460, Note_on_c, 0, 64, 100
1, 46652, Note_off_c, 0, 64, 100
1, 46652, Note_on_c, 0, 67, 100
1, 46700, Note_off_c, 0, 67, 100
1, 46700, Note_on_c, 0, 64, 100
1, 46796, Note_off_c, 0, 64, 100
1, 46796, Note_on_c, 0, 67, 100
1, 46940, Note_off_c, 0, 67, 100
1, 46940, Note_on_c, 0, 69, 100
1, 47036, Note_off_c, 0, 69, 100
1, 47036, Note_on_c, 0, 71, 100
1, 47084, Note_off_c, 0, 71, 100
1, 47084, Note_on_c, 0, 74, 100
1, 47180, Note_off_c, 0, 74, 100
1, 47180, Note_on_c, 0, 73, 100
1, 47276, Note_off_c, 0, 73, 100
1, 47276, Note_on_c, 0, 71, 100
1, 47372, Note_off_c, 0, 71, 100
1, 47372, Note_on_c, 0, 69, 100
1, 47516, Note_off_c, 0, 69, 100
1, 47516, Note_on_c, 0, 67, 100
1, 47612, Note_off_c, 0, 67, 100
1, 47612, Note_on_c, 0, 65, 100
1, 47708, Note_off_c, 0, 65, 100
1, 47708, Note_on_c, 0, 64, 100
1, 47804, Note_off_c, 0, 64, 100
1, 47804, Note_on_c, 0, 62, 100
1, 47900, Note_off_c, 0, 62, 100
1, 47900, Note_on_c, 0, 61, 100
1, 47996, Note_off_c, 0, 61, 100
1, 47996, Note_on_c, 0, 62, 100
1, 48092, Note_off_c, 0, 62, 100
1, 48092, Note_on_c, 0, 64, 100
1, 48188, Note_off_c, 0, 64, 100
1, 48188, Note_on_c, 0, 65, 100
1, 48284, Note_off_c, 0, 65, 100
1, 48284, Note_on_c, 0, 69, 100
1, 48332, Note_off_c, 0, 69, 100
1, 48332, Note_on_c, 0, 67, 100
1, 48380, Note_off_c, 0, 67, 100
1, 48380, Note_on_c, 0, 69, 100
1, 48476, Note_off_c, 0, 69, 100
1, 48476, Note_on_c, 0, 67, 100
1, 48572, Note_off_c, 0, 67, 100
1, 48572, Note_on_c, 0, 64, 100
1, 48668, Note_off_c, 0, 64, 100
1, 48668, Note_on_c, 0, 67, 100
1, 48764, Note_off_c, 0, 67, 100
1, 48764, Note_on_c, 0, 65, 100
1, 48828, Note_off_c, 0, 65, 100
1, 48828, Note_on_c, 0, 67, 100
1, 48892, Note_off_c, 0, 67, 100
1, 48892, Note_on_c, 0, 65, 100
1, 48956, Note_off_c, 0, 65, 100
1, 48956, Note_on_c, 0, 62, 100
1, 49052, Note_off_c, 0, 62, 100
1, 49052, Note_on_c, 0, 65, 100
1, 49148, Note_off_c, 0, 65, 100
1, 49148, Note_on_c, 0, 64, 100
1, 49196, Note_off_c, 0, 64, 100
1, 49196, Note_on_c, 0, 65, 100
1, 49244, Note_off_c, 0, 65, 100
1, 49244, Note_on_c, 0, 64, 100
1, 49340, Note_off_c, 0, 64, 100
1, 49340, Note_on_c, 0, 60, 100
1, 49436, Note_off_c, 0, 60, 100
1, 49436, Note_on_c, 0, 64, 100
1, 49532, Note_off_c, 0, 64, 100
1, 49532, Note_on_c, 0, 67, 100
1, 49724, Note_off_c, 0, 67, 100
1, 49724, Note_on_c, 0, 64, 100
1, 49820, Note_off_c, 0, 64, 100
1, 49820, Note_on_c, 0, 69, 100
1, 49916, Note_off_c, 0, 69, 100
1, 49916, Note_on_c, 0, 67, 100
1, 50492, Note_off_c, 0, 67, 100
1, 50492, Note_on_c, 0, 64, 100
1, 50588, Note_off_c, 0, 64, 100
1, 50588, Note_on_c, 0, 63, 100
1, 50684, Note_off_c, 0, 63, 100
1, 50972, Note_on_c, 0, 65, 100
1, 51164, Note_off_c, 0, 65, 100
1, 51164, Note_on_c, 0, 62, 100
1, 51260, Note_off_c, 0, 62, 100
1, 51260, Note_on_c, 0, 65, 100
1, 51740, Note_off_c, 0, 65, 100
1, 51740, Note_on_c, 0, 62, 100
1, 51836, Note_off_c, 0, 62, 100
1, 51836, Note_on_c, 0, 59, 100
1, 51964, Note_off_c, 0, 59, 100
1, 51964, Note_on_c, 0, 59, 100
1, 52124, Note_off_c, 0, 59, 100
1, 52124, Note_on_c, 0, 62, 100
1, 52316, Note_off_c, 0, 62, 100
1, 52316, Note_on_c, 0, 60, 100
1, 52508, Note_off_c, 0, 60, 100
1, 52508, Note_on_c, 0, 64, 100
1, 52604, Note_off_c, 0, 64, 100
1, 52604, Note_on_c, 0, 60, 100
1, 52796, Note_off_c, 0, 60, 100
1, 52796, Note_on_c, 0, 55, 100
1, 53084, Note_off_c, 0, 55, 100
1, 53372, Note_on_c, 0, 49, 100
1, 53468, Note_off_c, 0, 49, 100
1, 53468, Note_on_c, 0, 52, 100
1, 53564, Note_off_c, 0, 52, 100
1, 53564, Note_on_c, 0, 57, 100
1, 53660, Note_off_c, 0, 57, 100
1, 53660, Note_on_c, 0, 55, 100
1, 53820, Note_off_c, 0, 55, 100
1, 53820, Note_on_c, 0, 53, 100
1, 54044, Note_off_c, 0, 53, 100
1, 54044, Note_on_c, 0, 57, 100
1, 54140, Note_off_c, 0, 57, 100
1, 54140, Note_on_c, 0, 62, 100
1, 54236, Note_off_c, 0, 62, 100
1, 54236, Note_on_c, 0, 65, 100
1, 54396, Note_off_c, 0, 65, 100
1, 54396, Note_on_c, 0, 69, 100
1, 54460, Note_off_c, 0, 69, 100
1, 54460, Note_on_c, 0, 66, 100
1, 54524, Note_off_c, 0, 66, 100
1, 54524, Note_on_c, 0, 67, 100
1, 54620, Note_off_c, 0, 67, 100
1, 54620, Note_on_c, 0, 64, 100
1, 54764, Note_off_c, 0, 64, 100
1, 54764, Note_on_c, 0, 60, 100
1, 54860, Note_off_c, 0, 60, 100
1, 54860, Note_on_c, 0, 65, 100
1, 55004, Note_off_c, 0, 65, 100
1, 55004, Note_on_c, 0, 62, 100
1, 55100, Note_off_c, 0, 62, 100
1, 55100, Note_on_c, 0, 59, 100
1, 55196, Note_off_c, 0, 59, 100
1, 55196, Note_on_c, 0, 60, 100
1, 55532, Note_off_c, 0, 60, 100
1, 55532, Note_on_c, 0, 55, 100
1, 55676, Note_off_c, 0, 55, 100
1, 55676, Note_on_c, 0, 52, 100
1, 55868, Note_off_c, 0, 52, 100
1, 55868, Note_on_c, 0, 55, 100
1, 56060, Note_off_c, 0, 55, 100
1, 56060, Note_on_c, 0, 64, 100
1, 56348, Note_off_c, 0, 64, 100
1, 56348, Note_on_c, 0, 63, 100
1, 56444, Note_off_c, 0, 63, 100
1, 56732, Note_on_c, 0, 65, 100
1, 56828, Note_off_c, 0, 65, 100
1, 56828, Note_on_c, 0, 62, 100
1, 56924, Note_off_c, 0, 62, 100
1, 56924, Note_on_c, 0, 62, 100
1, 57116, Note_off_c, 0, 62, 100
1, 57116, Note_on_c, 0, 62, 100
1, 57308, Note_off_c, 0, 62, 100
1, 57308, Note_on_c, 0, 64, 100
1, 57404, Note_off_c, 0, 64, 100
1, 57404, Note_on_c, 0, 65, 100
1, 57596, Note_off_c, 0, 65, 100
1, 57596, Note_on_c, 0, 67, 100
1, 57788, Note_off_c, 0, 67, 100
1, 57788, Note_on_c, 0, 66, 100
1, 57980, Note_off_c, 0, 66, 100
1, 57980, Note_on_c, 0, 65, 100
1, 58268, Note_off_c, 0, 65, 100
1, 58268, Note_on_c, 0, 65, 100
1, 58364, Note_off_c, 0, 65, 100
1, 58364, Note_on_c, 0, 64, 100
1, 58508, Note_off_c, 0, 64, 100
1, 58508, Note_on_c, 0, 62, 100
1, 58652, Note_off_c, 0, 62, 100
1, 58652, Note_on_c, 0, 60, 100
1, 58812, Note_off_c, 0, 60, 100
1, 58812, Note_on_c, 0, 62, 100
1, 58940, Note_off_c, 0, 62, 100
1, 58940, Note_on_c, 0, 64, 100
1, 59132, Note_off_c, 0, 64, 100
1, 59132, Note_on_c, 0, 61, 100
1, 59420, Note_off_c, 0, 61, 100
1, 59420, Note_on_c, 0, 60, 100
1, 59468, Note_off_c, 0, 60, 100
1, 59468, Note_on_c, 0, 59, 100
1, 59564, Note_off_c, 0, 59, 100
1, 59804, Note_on_c, 0, 64, 100
1, 59900, Note_off_c, 0, 64, 100
1, 59900, Note_on_c, 0, 65, 100
1, 59996, Note_off_c, 0, 65, 100
1, 59996, Note_on_c, 0, 64, 100
1, 60188, Note_off_c, 0, 64, 100
1, 60188, Note_on_c, 0, 62, 100
1, 60284, Note_off_c, 0, 62, 100
1, 60284, Note_on_c, 0, 60, 100
1, 60380, Note_off_c, 0, 60, 100
1, 60380, Note_on_c, 0, 62, 100
1, 60572, Note_off_c, 0, 62, 100
1, 60572, Note_on_c, 0, 64, 100
1, 60668, Note_off_c, 0, 64, 100
1, 60668, Note_on_c, 0, 59, 100
1, 60764, Note_off_c, 0, 59, 100
1, 60764, Note_on_c, 0, 57, 100
1, 60956, Note_off_c, 0, 57, 100
1, 60956, Note_on_c, 0, 55, 100
1, 61052, Note_off_c, 0, 55, 100
1, 61052, Note_on_c, 0, 53, 100
1, 61180, Note_off_c, 0, 53, 100
1, 61180, Note_on_c, 0, 53, 100
1, 61340, Note_off_c, 0, 53, 100
1, 61340, Note_on_c, 0, 53, 100
1, 61436, Note_off_c, 0, 53, 100
1, 61436, Note_on_c, 0, 52, 100
1, 61580, Note_off_c, 0, 52, 100
1, 61580, Note_on_c, 0, 55, 100
1, 61724, Note_off_c, 0, 55, 100
1, 61724, Note_on_c, 0, 60, 100
1, 61820, Note_off_c, 0, 60, 100
1, 61820, Note_on_c, 0, 62, 100
1, 62012, Note_off_c, 0, 62, 100
1, 62012, Note_on_c, 0, 60, 100
1, 62204, Note_off_c, 0, 60, 100
1, 62204, Note_on_c, 0, 64, 100
1, 62300, Note_off_c, 0, 64, 100
1, 62300, Note_on_c, 0, 62, 100
1, 62460, Note_off_c, 0, 62, 100
1, 62460, Note_on_c, 0, 60, 100
1, 62588, Note_off_c, 0, 60, 100
1, 62588, Note_on_c, 0, 62, 100
1, 62732, Note_off_c, 0, 62, 100
1, 62732, Note_on_c, 0, 64, 100
1, 62876, Note_off_c, 0, 64, 100
1, 62876, Note_on_c, 0, 60, 100
1, 63260, Note_off_c, 0, 60, 100
1, 63260, Note_on_c, 0, 55, 100
1, 63356, Note_off_c, 0, 55, 100
1, 63356, Note_on_c, 0, 60, 100
1, 63548, Note_off_c, 0, 60, 100
1, 63548, Note_on_c, 0, 64, 100
1, 63644, Note_off_c, 0, 64, 100
1, 64028, Note_on_c, 0, 65, 100
1, 64124, Note_off_c, 0, 65, 100
1, 64124, Note_on_c, 0, 65, 100
1, 64220, Note_off_c, 0, 65, 100
1, 64220, Note_on_c, 0, 62, 100
1, 64316, Note_off_c, 0, 62, 100
1, 64316, Note_on_c, 0, 59, 100
1, 64412, Note_off_c, 0, 59, 100
1, 64412, Note_on_c, 0, 55, 100
1, 64508, Note_off_c, 0, 55, 100
1, 64508, Note_on_c, 0, 60, 100
1, 64604, Note_off_c, 0, 60, 100
1, 64604, Note_on_c, 0, 55, 100
1, 64700, Note_off_c, 0, 55, 100
1, 64700, Note_on_c, 0, 60, 100
1, 64796, Note_off_c, 0, 60, 100
1, 64796, Note_on_c, 0, 64, 100
1, 64892, Note_off_c, 0, 64, 100
1, 64892, Note_on_c, 0, 67, 100
1, 64988, Note_off_c, 0, 67, 100
1, 64988, Note_on_c, 0, 64, 100
1, 65036, Note_off_c, 0, 64, 100
1, 65036, Note_on_c, 0, 61, 100
1, 65148, Note_off_c, 0, 61, 100
1, 65148, Note_on_c, 0, 67, 100
1, 65212, Note_off_c, 0, 67, 100
1, 65212, Note_on_c, 0, 65, 100
1, 65340, Note_off_c, 0, 65, 100
1, 65340, Note_on_c, 0, 64, 100
1, 65468, Note_off_c, 0, 64, 100
1, 65468, Note_on_c, 0, 62, 100
1, 65564, Note_off_c, 0, 62, 100
1, 65564, Note_on_c, 0, 60, 100
1, 65612, Note_off_c, 0, 60, 100
1, 65612, Note_on_c, 0, 61, 100
1, 65756, Note_off_c, 0, 61, 100
1, 65756, Note_on_c, 0, 58, 100
1, 65852, Note_off_c, 0, 58, 100
1, 65852, Note_on_c, 0, 57, 100
1, 65948, Note_off_c, 0, 57, 100
1, 65948, Note_on_c, 0, 55, 100
1, 66044, Note_off_c, 0, 55, 100
1, 66044, Note_on_c, 0, 52, 100
1, 66140, Note_off_c, 0, 52, 100
1, 66140, Note_on_c, 0, 53, 100
1, 66236, Note_off_c, 0, 53, 100
1, 66236, Note_on_c, 0, 55, 100
1, 66332, Note_off_c, 0, 55, 100
1, 66332, Note_on_c, 0, 57, 100
1, 66428, Note_off_c, 0, 57, 100
1, 66428, Note_on_c, 0, 50, 100
1, 66620, Note_off_c, 0, 50, 100
1, 67004, Note_on_c, 0, 49, 100
1, 67100, Note_off_c, 0, 49, 100
1, 67100, Note_on_c, 0, 55, 100
1, 67148, Note_off_c, 0, 55, 100
1, 67148, Note_on_c, 0, 57, 100
1, 67196, Note_off_c, 0, 57, 100
1, 67196, Note_on_c, 0, 48, 100
1, 67292, Note_off_c, 0, 48, 100
1, 67292, Note_on_c, 0, 57, 100
1, 67388, Note_off_c, 0, 57, 100
1, 67388, Note_on_c, 0, 56, 100
1, 67436, Note_off_c, 0, 56, 100
1, 67436, Note_on_c, 0, 59, 100
1, 67532, Note_off_c, 0, 59, 100
1, 67532, Note_on_c, 0, 60, 100
1, 67580, Note_off_c, 0, 60, 100
1, 67580, Note_on_c, 0, 62, 100
1, 67644, Note_off_c, 0, 62, 100
1, 67644, Note_on_c, 0, 64, 100
1, 67708, Note_off_c, 0, 64, 100
1, 67708, Note_on_c, 0, 60, 100
1, 67772, Note_off_c, 0, 60, 100
1, 67772, Note_on_c, 0, 55, 100
1, 67868, Note_off_c, 0, 55, 100
1, 67868, Note_on_c, 0, 53, 100
1, 67964, Note_off_c, 0, 53, 100
1, 67964, Note_on_c, 0, 52, 100
1, 68060, Note_off_c, 0, 52, 100
1, 68060, Note_on_c, 0, 53, 100
1, 68252, Note_off_c, 0, 53, 100
1, 68492, Note_on_c, 0, 52, 100
1, 68540, Note_off_c, 0, 52, 100
1, 68540, Note_on_c, 0, 55, 100
1, 68604, Note_off_c, 0, 55, 100
1, 68604, Note_on_c, 0, 60, 100
1, 68668, Note_off_c, 0, 60, 100
1, 68668, Note_on_c, 0, 62, 100
1, 68732, Note_off_c, 0, 62, 100
1, 68732, Note_on_c, 0, 64, 100
1, 68796, Note_off_c, 0, 64, 100
1, 68796, Note_on_c, 0, 65, 100
1, 68860, Note_off_c, 0, 65, 100
1, 68860, Note_on_c, 0, 66, 100
1, 68924, Note_off_c, 0, 66, 100
1, 68924, Note_on_c, 0, 67, 100
1, 69052, Note_off_c, 0, 67, 100
1, 69052, Note_on_c, 0, 64, 100
1, 69116, Note_off_c, 0, 64, 100
1, 69116, Note_on_c, 0, 65, 100
1, 69212, Note_off_c, 0, 65, 100
1, 69212, Note_on_c, 0, 69, 100
1, 69452, Note_off_c, 0, 69, 100
1, 69452, Note_on_c, 0, 72, 100
1, 69596, Note_off_c, 0, 72, 100
1, 69596, Note_on_c, 0, 71, 100
1, 69644, Note_off_c, 0, 71, 100
1, 69644, Note_on_c, 0, 69, 100
1, 69692, Note_off_c, 0, 69, 100
1, 69692, Note_on_c, 0, 72, 100
1, 69788, Note_off_c, 0, 72, 100
1, 69788, Note_on_c, 0, 69, 100
1, 69884, Note_off_c, 0, 69, 100
1, 69884, Note_on_c, 0, 65, 100
1, 69980, Note_off_c, 0, 65, 100
1, 69980, Note_on_c, 0, 62, 100
1, 70076, Note_off_c, 0, 62, 100
1, 70076, Note_on_c, 0, 57, 100
1, 70172, Note_off_c, 0, 57, 100
1, 70172, Note_on_c, 0, 55, 100
1, 70268, Note_off_c, 0, 55, 100
1, 70268, Note_on_c, 0, 59, 100
1, 70364, Note_off_c, 0, 59, 100
1, 70364, Note_on_c, 0, 60, 100
1, 70460, Note_off_c, 0, 60, 100
1, 70460, Note_on_c, 0, 62, 100
1, 70556, Note_off_c, 0, 62, 100
1, 70556, Note_on_c, 0, 64, 100
1, 70652, Note_off_c, 0, 64, 100
1, 70652, Note_on_c, 0, 60, 100
1, 70748, Note_off_c, 0, 60, 100
1, 70748, Note_on_c, 0, 62, 100
1, 70844, Note_off_c, 0, 62, 100
1, 70844, Note_on_c, 0, 64, 100
1, 70940, Note_off_c, 0, 64, 100
1, 70940, Note_on_c, 0, 65, 100
1, 71036, Note_off_c, 0, 65, 100
1, 71036, Note_on_c, 0, 67, 100
1, 71228, Note_off_c, 0, 67, 100
1, 71228, Note_on_c, 0, 64, 100
1, 71324, Note_off_c, 0, 64, 100
1, 71324, Note_on_c, 0, 67, 100
1, 71420, Note_off_c, 0, 67, 100
1, 71420, Note_on_c, 0, 67, 100
1, 71516, Note_off_c, 0, 67, 100
1, 71516, Note_on_c, 0, 70, 100
1, 71708, Note_off_c, 0, 70, 100
1, 71708, Note_on_c, 0, 67, 100
1, 71804, Note_off_c, 0, 67, 100
1, 71804, Note_on_c, 0, 66, 100
1, 71900, Note_off_c, 0, 66, 100
1, 71900, Note_on_c, 0, 61, 100
1, 71996, Note_off_c, 0, 61, 100
1, 71996, Note_on_c, 0, 58, 100
1, 72188, Note_off_c, 0, 58, 100
1, 72188, Note_on_c, 0, 64, 100
1, 72284, Note_off_c, 0, 64, 100
1, 72284, Note_on_c, 0, 65, 100
1, 72476, Note_off_c, 0, 65, 100
1, 72476, Note_on_c, 0, 67, 100
1, 72572, Note_off_c, 0, 67, 100
1, 72572, Note_on_c, 0, 64, 100
1, 72668, Note_off_c, 0, 64, 100
1, 72668, Note_on_c, 0, 60, 100
1, 72764, Note_off_c, 0, 60, 100
1, 72764, Note_on_c, 0, 57, 100
1, 72860, Note_off_c, 0, 57, 100
1, 72860, Note_on_c, 0, 53, 100
1, 72956, Note_off_c, 0, 53, 100
1, 72956, Note_on_c, 0, 59, 100
1, 73084, Note_off_c, 0, 59, 100
1, 73084, Note_on_c, 0, 57, 100
1, 73148, Note_off_c, 0, 57, 100
1, 73148, Note_on_c, 0, 55, 100
1, 73244, Note_off_c, 0, 55, 100
1, 73244, Note_on_c, 0, 52, 100
1, 73340, Note_off_c, 0, 52, 100
1, 73340, Note_on_c, 0, 53, 100
1, 73436, Note_off_c, 0, 53, 100
1, 73436, Note_on_c, 0, 62, 100
1, 73532, Note_off_c, 0, 62, 100
1, 73532, Note_on_c, 0, 59, 100
1, 73628, Note_off_c, 0, 59, 100
1, 73628, Note_on_c, 0, 55, 100
1, 73724, Note_off_c, 0, 55, 100
1, 73724, Note_on_c, 0, 60, 100
1, 73820, Note_off_c, 0, 60, 100
1, 73820, Note_on_c, 0, 62, 100
1, 73916, Note_off_c, 0, 62, 100
1, 73916, Note_on_c, 0, 64, 100
1, 74044, Note_off_c, 0, 64, 100
1, 74044, Note_on_c, 0, 67, 100
1, 74140, Note_off_c, 0, 67, 100
1, 74492, Note_on_c, 0, 69, 100
1, 74588, Note_off_c, 0, 69, 100
1, 74588, Note_on_c, 0, 67, 100
1, 74684, Note_off_c, 0, 67, 100
1, 74684, Note_on_c, 0, 69, 100
1, 74780, Note_off_c, 0, 69, 100
1, 74780, Note_on_c, 0, 67, 100
1, 74876, Note_off_c, 0, 67, 100
1, 74876, Note_on_c, 0, 64, 100
1, 74972, Note_off_c, 0, 64, 100
1, 74972, Note_on_c, 0, 60, 100
1, 75068, Note_off_c, 0, 60, 100
1, 75068, Note_on_c, 0, 58, 100
1, 75164, Note_off_c, 0, 58, 100
1, 75164, Note_on_c, 0, 55, 100
1, 75260, Note_off_c, 0, 55, 100
1, 75260, Note_on_c, 0, 57, 100
1, 75356, Note_off_c, 0, 57, 100
1, 75356, Note_on_c, 0, 60, 100
1, 75452, Note_off_c, 0, 60, 100
1, 75452, Note_on_c, 0, 62, 100
1, 75548, Note_off_c, 0, 62, 100
1, 75548, Note_on_c, 0, 64, 100
1, 75644, Note_off_c, 0, 64, 100
1, 75644, Note_on_c, 0, 67, 100
1, 75740, Note_off_c, 0, 67, 100
1, 75740, Note_on_c, 0, 65, 100
1, 75836, Note_off_c, 0, 65, 100
1, 75836, Note_on_c, 0, 60, 100
1, 75932, Note_off_c, 0, 60, 100
1, 75932, Note_on_c, 0, 62, 100
1, 76028, Note_off_c, 0, 62, 100
1, 76028, Note_on_c, 0, 64, 100
1, 76124, Note_off_c, 0, 64, 100
1, 76124, Note_on_c, 0, 60, 100
1, 76220, Note_off_c, 0, 60, 100
1, 76220, Note_on_c, 0, 55, 100
1, 76316, Note_off_c, 0, 55, 100
1, 76316, Note_on_c, 0, 52, 100
1, 76412, Note_off_c, 0, 52, 100
1, 76412, Note_on_c, 0, 53, 100
1, 76476, Note_off_c, 0, 53, 100
1, 76476, Note_on_c, 0, 55, 100
1, 76540, Note_off_c, 0, 55, 100
1, 76540, Note_on_c, 0, 57, 100
1, 76604, Note_off_c, 0, 57, 100
1, 76604, Note_on_c, 0, 59, 100
1, 76700, Note_off_c, 0, 59, 100
1, 76700, Note_on_c, 0, 62, 100
1, 76796, Note_off_c, 0, 62, 100
1, 76796, Note_on_c, 0, 60, 100
1, 76892, Note_off_c, 0, 60, 100
1, 76892, Note_on_c, 0, 55, 100
1, 76988, Note_off_c, 0, 55, 100
1, 76988, Note_on_c, 0, 60, 100
1, 77084, Note_off_c, 0, 60, 100
1, 77084, Note_on_c, 0, 62, 100
1, 77180, Note_off_c, 0, 62, 100
1, 77180, Note_on_c, 0, 64, 100
1, 77276, Note_off_c, 0, 64, 100
1, 77276, Note_on_c, 0, 59, 100
1, 77372, Note_off_c, 0, 59, 100
1, 77372, Note_on_c, 0, 60, 100
1, 77468, Note_off_c, 0, 60, 100
1, 77468, Note_on_c, 0, 64, 100
1, 77564, Note_off_c, 0, 64, 100
1, 77564, Note_on_c, 0, 60, 100
1, 77660, Note_off_c, 0, 60, 100
1, 77660, Note_on_c, 0, 64, 100
1, 77756, Note_off_c, 0, 64, 100
1, 77756, Note_on_c, 0, 58, 100
1, 77852, Note_off_c, 0, 58, 100
1, 77852, Note_on_c, 0, 61, 100
1, 77948, Note_off_c, 0, 61, 100
1, 77948, Note_on_c, 0, 55, 100
1, 78044, Note_off_c, 0, 55, 100
1, 78044, Note_on_c, 0, 58, 100
1, 78140, Note_off_c, 0, 58, 100
1, 78140, Note_on_c, 0, 52, 100
1, 78236, Note_off_c, 0, 52, 100
1, 78236, Note_on_c, 0, 58, 100
1, 78332, Note_off_c, 0, 58, 100
1, 78332, Note_on_c, 0, 58, 100
1, 78428, Note_off_c, 0, 58, 100
1, 78428, Note_on_c, 0, 57, 100
1, 78524, Note_off_c, 0, 57, 100
1, 78524, Note_on_c, 0, 57, 100
1, 78620, Note_off_c, 0, 57, 100
1, 78620, Note_on_c, 0, 55, 100
1, 78716, Note_off_c, 0, 55, 100
1, 78716, Note_on_c, 0, 55, 100
1, 78812, Note_off_c, 0, 55, 100
1, 78812, Note_on_c, 0, 53, 100
1, 78908, Note_off_c, 0, 53, 100
1, 78908, Note_on_c, 0, 53, 100
1, 79004, Note_off_c, 0, 53, 100
1, 79004, Note_on_c, 0, 52, 100
1, 79100, Note_off_c, 0, 52, 100
1, 79100, Note_on_c, 0, 52, 100
1, 79228, Note_off_c, 0, 52, 100
1, 79228, Note_on_c, 0, 50, 100
1, 79324, Note_off_c, 0, 50, 100
1, 79580, Note_on_c, 0, 66, 100
1, 79628, Note_off_c, 0, 66, 100
1, 79628, Note_on_c, 0, 67, 100
1, 80156, Note_off_c, 0, 67, 100
1, 80156, Note_on_c, 0, 64, 100
1, 80252, Note_off_c, 0, 64, 100
1, 80252, Note_on_c, 0, 69, 100
1, 80348, Note_off_c, 0, 69, 100
1, 80348, Note_on_c, 0, 66, 100
1, 80444, Note_off_c, 0, 66, 100
1, 80444, Note_on_c, 0, 67, 100
1, 80540, Note_off_c, 0, 67, 100
1, 80540, Note_on_c, 0, 65, 100
1, 80636, Note_off_c, 0, 65, 100
1, 80636, Note_on_c, 0, 64, 100
1, 80780, Note_off_c, 0, 64, 100
1, 80780, Note_on_c, 0, 67, 100
1, 80828, Note_off_c, 0, 67, 100
1, 80828, Note_on_c, 0, 72, 100
1, 80972, Note_off_c, 0, 72, 100
1, 80972, Note_on_c, 0, 67, 100
1, 81020, Note_off_c, 0, 67, 100
1, 81020, Note_on_c, 0, 70, 100
1, 81116, Note_off_c, 0, 70, 100
1, 81116, Note_on_c, 0, 67, 100
1, 81212, Note_off_c, 0, 67, 100
1, 81212, Note_on_c, 0, 68, 100
1, 81276, Note_off_c, 0, 68, 100
1, 81276, Note_on_c, 0, 67, 100
1, 81340, Note_off_c, 0, 67, 100
1, 81340, Note_on_c, 0, 69, 100
1, 81500, Note_off_c, 0, 69, 100
1, 81500, Note_on_c, 0, 69, 100
1, 81596, Note_off_c, 0, 69, 100
1, 81596, Note_on_c, 0, 65, 100
1, 81692, Note_off_c, 0, 65, 100
1, 81692, Note_on_c, 0, 64, 100
1, 81788, Note_off_c, 0, 64, 100
1, 81788, Note_on_c, 0, 67, 100
1, 81884, Note_off_c, 0, 67, 100
1, 81884, Note_on_c, 0, 65, 100
1, 81980, Note_off_c, 0, 65, 100
1, 81980, Note_on_c, 0, 60, 100
1, 82076, Note_off_c, 0, 60, 100
1, 82076, Note_on_c, 0, 55, 100
1, 82172, Note_off_c, 0, 55, 100
1, 82172, Note_on_c, 0, 64, 100
1, 82268, Note_off_c, 0, 64, 100
1, 82268, Note_on_c, 0, 67, 100
1, 82364, Note_off_c, 0, 67, 100
1, 82364, Note_on_c, 0, 67, 100
1, 82460, Note_off_c, 0, 67, 100
1, 82460, Note_on_c, 0, 64, 100
1, 82556, Note_off_c, 0, 64, 100
1, 82556, Note_on_c, 0, 65, 100
1, 82652, Note_off_c, 0, 65, 100
1, 82652, Note_on_c, 0, 62, 100
1, 82748, Note_off_c, 0, 62, 100
1, 82748, Note_on_c, 0, 59, 100
1, 82844, Note_off_c, 0, 59, 100
1, 82844, Note_on_c, 0, 55, 100
1, 82940, Note_off_c, 0, 55, 100
1, 82940, Note_on_c, 0, 60, 100
1, 83036, Note_off_c, 0, 60, 100
1, 83036, Note_on_c, 0, 55, 100
1, 83132, Note_off_c, 0, 55, 100
1, 83132, Note_on_c, 0, 60, 100
1, 83228, Note_off_c, 0, 60, 100
1, 83228, Note_on_c, 0, 64, 100
1, 83324, Note_off_c, 0, 64, 100
1, 83324, Note_on_c, 0, 67, 100
1, 83516, Note_off_c, 0, 67, 100
1, 83804, Note_on_c, 0, 55, 100
1, 83900, Note_off_c, 0, 55, 100
1, 83900, Note_on_c, 0, 61, 100
1, 83996, Note_off_c, 0, 61, 100
1, 83996, Note_on_c, 0, 67, 100
1, 84092, Note_off_c, 0, 67, 100
1, 84092, Note_on_c, 0, 65, 100
1, 84188, Note_off_c, 0, 65, 100
1, 84188, Note_on_c, 0, 64, 100
1, 84284, Note_off_c, 0, 64, 100
1, 84284, Note_on_c, 0, 61, 100
1, 84380, Note_off_c, 0, 61, 100
1, 84380, Note_on_c, 0, 55, 100
1, 84476, Note_off_c, 0, 55, 100
1, 84476, Note_on_c, 0, 62, 100
1, 84572, Note_off_c, 0, 62, 100
1, 84572, Note_on_c, 0, 58, 100
1, 84668, Note_off_c, 0, 58, 100
1, 84668, Note_on_c, 0, 62, 100
1, 84764, Note_off_c, 0, 62, 100
1, 84764, Note_on_c, 0, 64, 100
1, 84860, Note_off_c, 0, 64, 100
1, 84860, Note_on_c, 0, 65, 100
1, 84956, Note_off_c, 0, 65, 100
1, 84956, Note_on_c, 0, 64, 100
1, 85052, Note_off_c, 0, 64, 100
1, 85052, Note_on_c, 0, 62, 100
1, 85148, Note_off_c, 0, 62, 100
1, 85148, Note_on_c, 0, 60, 100
1, 85244, Note_off_c, 0, 60, 100
1, 85244, Note_on_c, 0, 59, 100
1, 85340, Note_off_c, 0, 59, 100
1, 85340, Note_on_c, 0, 67, 100
1, 85436, Note_off_c, 0, 67, 100
1, 85436, Note_on_c, 0, 55, 100
1, 85564, Note_off_c, 0, 55, 100
1, 85564, Note_on_c, 0, 62, 100
1, 85628, Note_off_c, 0, 62, 100
1, 85628, Note_on_c, 0, 65, 100
1, 85724, Note_off_c, 0, 65, 100
1, 85724, Note_on_c, 0, 66, 100
1, 85820, Note_off_c, 0, 66, 100
1, 85820, Note_on_c, 0, 65, 100
1, 86012, Note_off_c, 0, 65, 100
1, 86012, Note_on_c, 0, 64, 100
1, 86108, Note_off_c, 0, 64, 100
1, 86108, Note_on_c, 0, 60, 100
1, 86204, Note_off_c, 0, 60, 100
1, 86204, Note_on_c, 0, 55, 100
1, 86300, Note_off_c, 0, 55, 100
1, 86300, Note_on_c, 0, 52, 100
1, 86396, Note_off_c, 0, 52, 100
1, 86396, Note_on_c, 0, 53, 100
1, 86588, Note_off_c, 0, 53, 100
1, 86588, Note_on_c, 0, 62, 100
1, 86684, Note_off_c, 0, 62, 100
1, 87068, Note_on_c, 0, 68, 100
1, 87164, Note_off_c, 0, 68, 100
1, 87164, Note_on_c, 0, 69, 100
1, 87356, Note_off_c, 0, 69, 100
1, 87356, Note_on_c, 0, 67, 100
1, 87548, Note_off_c, 0, 67, 100
1, 87548, Note_on_c, 0, 72, 100
1, 87740, Note_off_c, 0, 72, 100
1, 87740, Note_on_c, 0, 60, 100
1, 87932, Note_off_c, 0, 60, 100
1, 87932, Note_on_c, 0, 63, 100
1, 88028, Note_off_c, 0, 63, 100
1, 88028, Note_on_c, 0, 64, 100
1, 88220, Note_off_c, 0, 64, 100
1, 88220, Note_on_c, 0, 65, 100
1, 88412, Note_off_c, 0, 65, 100
1, 88412, Note_on_c, 0, 66, 100
1, 88604, Note_off_c, 0, 66, 100
1, 88604, Note_on_c, 0, 67, 100
1, 88796, Note_off_c, 0, 67, 100
1, 88796, Note_on_c, 0, 55, 100
1, 88892, Note_off_c, 0, 55, 100
1, 88892, Note_on_c, 0, 59, 100
1, 88956, Note_off_c, 0, 59, 100
1, 88956, Note_on_c, 0, 60, 100
1, 89020, Note_off_c, 0, 60, 100
1, 89020, Note_on_c, 0, 65, 100
1, 89084, Note_off_c, 0, 65, 100
1, 89084, Note_on_c, 0, 64, 100
1, 89180, Note_off_c, 0, 64, 100
1, 89180, Note_on_c, 0, 60, 100
1, 89276, Note_off_c, 0, 60, 100
1, 89276, Note_on_c, 0, 55, 100
1, 89372, Note_off_c, 0, 55, 100
1, 89372, Note_on_c, 0, 53, 100
1, 89468, Note_off_c, 0, 53, 100
1, 89468, Note_on_c, 0, 60, 100
1, 89564, Note_off_c, 0, 60, 100
1, 89564, Note_on_c, 0, 62, 100
1, 89660, Note_off_c, 0, 62, 100
1, 89660, Note_on_c, 0, 64, 100
1, 89756, Note_off_c, 0, 64, 100
1, 89756, Note_on_c, 0, 67, 100
1, 89852, Note_off_c, 0, 67, 100
1, 89852, Note_on_c, 0, 61, 100
1, 89948, Note_off_c, 0, 61, 100
1, 89948, Note_on_c, 0, 64, 100
1, 90044, Note_off_c, 0, 64, 100
1, 90044, Note_on_c, 0, 67, 100
1, 90188, Note_off_c, 0, 67, 100
1, 90188, Note_on_c, 0, 70, 100
1, 90236, Note_off_c, 0, 70, 100
1, 90236, Note_on_c, 0, 69, 100
1, 90428, Note_off_c, 0, 69, 100
1, 90428, Note_on_c, 0, 63, 100
1, 90524, Note_off_c, 0, 63, 100
1, 90524, Note_on_c, 0, 64, 100
1, 90620, Note_off_c, 0, 64, 100
1, 90620, Note_on_c, 0, 67, 100
1, 90716, Note_off_c, 0, 67, 100
1, 90716, Note_on_c, 0, 64, 100
1, 90812, Note_off_c, 0, 64, 100
1, 90812, Note_on_c, 0, 65, 100
1, 90908, Note_off_c, 0, 65, 100
1, 90908, Note_on_c, 0, 72, 100
1, 90956, Note_off_c, 0, 72, 100
1, 90956, Note_on_c, 0, 71, 100
1, 91004, Note_off_c, 0, 71, 100
1, 91004, Note_on_c, 0, 64, 100
1, 91100, Note_off_c, 0, 64, 100
1, 91100, Note_on_c, 0, 62, 100
1, 91292, Note_off_c, 0, 62, 100
1, 91292, Note_on_c, 0, 60, 100
1, 91388, Note_off_c, 0, 60, 100
1, 91388, Note_on_c, 0, 59, 100
1, 91484, Note_off_c, 0, 59, 100
1, 91484, Note_on_c, 0, 62, 100
1, 91580, Note_off_c, 0, 62, 100
1, 91580, Note_on_c, 0, 57, 100
1, 91676, Note_off_c, 0, 57, 100
1, 91676, Note_on_c, 0, 55, 100
1, 91772, Note_off_c, 0, 55, 100
1, 91772, Note_on_c, 0, 54, 100
1, 91820, Note_off_c, 0, 54, 100
1, 91820, Note_on_c, 0, 53, 100
1, 91964, Note_off_c, 0, 53, 100
1, 91964, Note_on_c, 0, 64, 100
1, 92060, Note_off_c, 0, 64, 100
1, 92060, Note_on_c, 0, 65, 100
1, 92156, Note_off_c, 0, 65, 100
1, 92156, Note_on_c, 0, 64, 100
1, 92252, Note_off_c, 0, 64, 100
1, 92252, Note_on_c, 0, 60, 100
1, 92348, Note_off_c, 0, 60, 100
1, 92348, Note_on_c, 0, 55, 100
1, 92444, Note_off_c, 0, 55, 100
1, 92444, Note_on_c, 0, 52, 100
1, 92540, Note_off_c, 0, 52, 100
1, 92540, Note_on_c, 0, 53, 100
1, 92732, Note_off_c, 0, 53, 100
1, 92732, Note_on_c, 0, 67, 100
1, 92828, Note_off_c, 0, 67, 100
1, 92828, Note_on_c, 0, 64, 100
1, 92924, Note_off_c, 0, 64, 100
1, 92924, Note_on_c, 0, 67, 100
1, 93116, Note_off_c, 0, 67, 100
1, 93116, Note_on_c, 0, 69, 100
1, 93260, Note_off_c, 0, 69, 100
1, 93260, Note_on_c, 0, 66, 100
1, 93308, Note_off_c, 0, 66, 100
1, 93308, Note_on_c, 0, 67, 100
1, 93500, Note_off_c, 0, 67, 100
1, 93500, Note_on_c, 0, 64, 100
1, 93596, Note_off_c, 0, 64, 100
1, 93596, Note_on_c, 0, 60, 100
1, 93692, Note_off_c, 0, 60, 100
1, 93692, Note_on_c, 0, 64, 100
1, 93788, Note_off_c, 0, 64, 100
1, 93788, Note_on_c, 0, 65, 100
1, 93980, Note_off_c, 0, 65, 100
1, 93980, Note_on_c, 0, 64, 100
1, 94076, Note_off_c, 0, 64, 100
1, 94076, Note_on_c, 0, 63, 100
1, 94172, Note_off_c, 0, 63, 100
1, 94556, Note_on_c, 0, 60, 100
1, 94652, Note_off_c, 0, 60, 100
1, 94652, Note_on_c, 0, 57, 100
1, 94844, Note_off_c, 0, 57, 100
1, 94844, Note_on_c, 0, 67, 100
1, 94940, Note_off_c, 0, 67, 100
1, 94940, Note_on_c, 0, 66, 100
1, 94988, Note_off_c, 0, 66, 100
1, 94988, Note_on_c, 0, 57, 100
1, 95036, Note_off_c, 0, 57, 100
1, 95036, Note_on_c, 0, 60, 100
1, 95132, Note_off_c, 0, 60, 100
1, 95132, Note_on_c, 0, 57, 100
1, 95228, Note_off_c, 0, 57, 100
1, 95228, Note_on_c, 0, 64, 100
1, 95372, Note_off_c, 0, 64, 100
1, 95372, Note_on_c, 0, 63, 100
1, 95420, Note_off_c, 0, 63, 100
1, 95420, Note_on_c, 0, 64, 100
1, 95516, Note_off_c, 0, 64, 100
1, 95516, Note_on_c, 0, 64, 100
1, 95612, Note_off_c, 0, 64, 100
1, 95612, Note_on_c, 0, 60, 100
1, 95708, Note_off_c, 0, 60, 100
1, 95708, Note_on_c, 0, 55, 100
1, 95804, Note_off_c, 0, 55, 100
1, 95804, Note_on_c, 0, 48, 100
1, 95900, Note_off_c, 0, 48, 100
1, 95900, Note_on_c, 0, 54, 100
1, 95948, Note_off_c, 0, 54, 100
1, 95948, Note_on_c, 0, 57, 100
1, 95996, Note_off_c, 0, 57, 100
1, 95996, Note_on_c, 0, 61, 100
1, 96124, Note_off_c, 0, 61, 100
1, 96124, Note_on_c, 0, 57, 100
1, 96188, Note_off_c, 0, 57, 100
1, 96188, Note_on_c, 0, 61, 100
1, 96284, Note_off_c, 0, 61, 100
1, 96284, Note_on_c, 0, 68, 100
1, 96380, Note_off_c, 0, 68, 100
1, 96380, Note_on_c, 0, 64, 100
1, 96476, Note_off_c, 0, 64, 100
1, 96476, Note_on_c, 0, 61, 100
1, 96572, Note_off_c, 0, 61, 100
1, 96572, Note_on_c, 0, 57, 100
1, 96668, Note_off_c, 0, 57, 100
1, 96668, Note_on_c, 0, 52, 100
1, 96764, Note_off_c, 0, 52, 100
1, 96764, Note_on_c, 0, 57, 100
1, 96860, Note_off_c, 0, 57, 100
1, 97052, Note_on_c, 0, 62, 100
1, 97244, Note_off_c, 0, 62, 100
1, 97244, Note_on_c, 0, 57, 100
1, 97292, Note_off_c, 0, 57, 100
1, 97292, Note_on_c, 0, 65, 100
1, 97628, Note_off_c, 0, 65, 100
1, 97628, Note_on_c, 0, 62, 100
1, 97724, Note_off_c, 0, 62, 100
1, 97724, Note_on_c, 0, 60, 100
1, 97852, Note_off_c, 0, 60, 100
1, 97852, Note_on_c, 0, 57, 100
1, 97916, Note_off_c, 0, 57, 100
1, 97916, Note_on_c, 0, 59, 100
1, 98012, Note_off_c, 0, 59, 100
1, 98012, Note_on_c, 0, 57, 100
1, 98108, Note_off_c, 0, 57, 100
1, 98108, Note_on_c, 0, 55, 100
1, 98204, Note_off_c, 0, 55, 100
1, 98204, Note_on_c, 0, 57, 100
1, 98300, Note_off_c, 0, 57, 100
1, 98300, Note_on_c, 0, 52, 100
1, 98396, Note_off_c, 0, 52, 100
1, 98396, Note_on_c, 0, 55, 100
1, 98492, Note_off_c, 0, 55, 100
1, 98492, Note_on_c, 0, 45, 100
1, 98588, Note_off_c, 0, 45, 100
1, 98588, Note_on_c, 0, 55, 100
1, 98684, Note_off_c, 0, 55, 100
1, 98684, Note_on_c, 0, 64, 100
1, 98876, Note_off_c, 0, 64, 100
1, 98876, Note_on_c, 0, 67, 100
1, 99068, Note_off_c, 0, 67, 100
1, 99068, Note_on_c, 0, 60, 100
1, 99356, Note_off_c, 0, 60, 100
1, 99356, Note_on_c, 0, 60, 100
1, 99452, Note_off_c, 0, 60, 100
1, 99452, Note_on_c, 0, 64, 100
1, 99644, Note_off_c, 0, 64, 100
1, 99644, Note_on_c, 0, 67, 100
1, 99836, Note_off_c, 0, 67, 100
1, 99836, Note_on_c, 0, 72, 100
1, 100028, Note_off_c, 0, 72, 100
1, 100028, Note_on_c, 0, 69, 100
1, 100124, Note_off_c, 0, 69, 100
1, 100124, Note_on_c, 0, 65, 100
1, 100316, Note_off_c, 0, 65, 100
1, 100316, Note_on_c, 0, 62, 100
1, 100412, Note_off_c, 0, 62, 100
1, 100412, Note_on_c, 0, 69, 100
1, 100508, Note_off_c, 0, 69, 100
1, 100508, Note_on_c, 0, 72, 100
1, 100604, Note_off_c, 0, 72, 100
1, 100604, Note_on_c, 0, 71, 100
1, 100700, Note_off_c, 0, 71, 100
1, 100700, Note_on_c, 0, 70, 100
1, 100748, Note_off_c, 0, 70, 100
1, 100748, Note_on_c, 0, 71, 100
1, 100796, Note_off_c, 0, 71, 100
1, 100796, Note_on_c, 0, 67, 100
1, 100892, Note_off_c, 0, 67, 100
1, 100892, Note_on_c, 0, 71, 100
1, 100988, Note_off_c, 0, 71, 100
1, 100988, Note_on_c, 0, 69, 100
1, 101180, Note_off_c, 0, 69, 100
1, 101180, Note_on_c, 0, 65, 100
1, 101276, Note_off_c, 0, 65, 100
1, 101276, Note_on_c, 0, 69, 100
1, 101324, Note_off_c, 0, 69, 100
1, 101324, Note_on_c, 0, 67, 100
1, 101372, Note_off_c, 0, 67, 100
1, 101372, Note_on_c, 0, 69, 100
1, 101468, Note_off_c, 0, 69, 100
1, 101468, Note_on_c, 0, 67, 100
1, 101516, Note_off_c, 0, 67, 100
1, 101516, Note_on_c, 0, 64, 100
1, 101612, Note_off_c, 0, 64, 100
1, 101612, Note_on_c, 0, 60, 100
1, 101708, Note_off_c, 0, 60, 100
1, 101708, Note_on_c, 0, 55, 100
1, 101852, Note_off_c, 0, 55, 100
1, 101852, Note_on_c, 0, 60, 100
1, 101948, Note_off_c, 0, 60, 100
1, 101948, Note_on_c, 0, 64, 100
1, 102044, Note_off_c, 0, 64, 100
1, 102044, Note_on_c, 0, 67, 100
1, 102140, Note_off_c, 0, 67, 100
1, 102140, Note_on_c, 0, 70, 100
1, 102236, Note_off_c, 0, 70, 100
1, 102236, Note_on_c, 0, 64, 100
1, 102332, Note_off_c, 0, 64, 100
1, 102332, Note_on_c, 0, 62, 100
1, 102428, Note_off_c, 0, 62, 100
1, 102428, Note_on_c, 0, 57, 100
1, 102524, Note_off_c, 0, 57, 100
1, 102524, Note_on_c, 0, 61, 100
1, 102620, Note_off_c, 0, 61, 100
1, 102620, Note_on_c, 0, 58, 100
1, 102716, Note_off_c, 0, 58, 100
1, 102716, Note_on_c, 0, 57, 100
1, 102812, Note_off_c, 0, 57, 100
1, 102812, Note_on_c, 0, 55, 100
1, 102908, Note_off_c, 0, 55, 100
1, 102908, Note_on_c, 0, 53, 100
1, 103004, Note_off_c, 0, 53, 100
1, 103196, Note_on_c, 0, 69, 100
1, 103868, Note_off_c, 0, 69, 100
1, 103868, Note_on_c, 0, 67, 100
1, 103964, Note_off_c, 0, 67, 100
1, 103964, Note_on_c, 0, 64, 100
1, 104060, Note_off_c, 0, 64, 100
1, 104060, Note_on_c, 0, 65, 100
1, 104156, Note_off_c, 0, 65, 100
1, 104156, Note_on_c, 0, 62, 100
1, 104252, Note_off_c, 0, 62, 100
1, 104252, Note_on_c, 0, 59, 100
1, 104300, Note_off_c, 0, 59, 100
1, 104300, Note_on_c, 0, 55, 100
1, 104396, Note_off_c, 0, 55, 100
1, 104396, Note_on_c, 0, 60, 100
1, 104492, Note_off_c, 0, 60, 100
1, 104700, Note_on_c, 0, 67, 100
1, 104828, Note_off_c, 0, 67, 100
1, 104828, Note_on_c, 0, 60, 100
1, 105020, Note_off_c, 0, 60, 100
1, 105020, Note_on_c, 0, 72, 100
1, 105212, Note_off_c, 0, 72, 100
1, 105212, Note_on_c, 0, 72, 100
1, 105404, Note_off_c, 0, 72, 100
1, 105404, Note_on_c, 0, 72, 100
1, 105980, Note_off_c, 0, 72, 100
1, 105980, Note_on_c, 0, 69, 100
1, 106044, Note_off_c, 0, 69, 100
1, 106044, Note_on_c, 0, 68, 100
1, 106108, Note_off_c, 0, 68, 100
1, 106108, Note_on_c, 0, 67, 100
1, 106268, Note_off_c, 0, 67, 100
1, 106268, Note_on_c, 0, 69, 100
1, 106460, Note_off_c, 0, 69, 100
1, 106460, Note_on_c, 0, 65, 100
1, 106556, Note_off_c, 0, 65, 100
1, 106556, Note_on_c, 0, 67, 100
1, 106748, Note_off_c, 0, 67, 100
1, 106748, Note_on_c, 0, 67, 100
1, 106988, Note_off_c, 0, 67, 100
1, 106988, Note_on_c, 0, 64, 100
1, 107084, Note_off_c, 0, 64, 100
1, 107084, Note_on_c, 0, 67, 100
1, 107180, Note_off_c, 0, 67, 100
1, 107372, Note_on_c, 0, 64, 100
1, 107468, Note_off_c, 0, 64, 100
1, 107468, Note_on_c, 0, 64, 100
1, 107580, Note_off_c, 0, 64, 100
1, 107580, Note_on_c, 0, 60, 100
1, 107644, Note_off_c, 0, 60, 100
1, 107644, Note_on_c, 0, 64, 100
1, 107804, Note_off_c, 0, 64, 100
1, 107804, Note_on_c, 0, 60, 100
1, 107900, Note_off_c, 0, 60, 100
1, 107900, Note_on_c, 0, 64, 100
1, 108092, Note_off_c, 0, 64, 100
1, 108092, Note_on_c, 0, 60, 100
1, 108188, Note_off_c, 0, 60, 100
1, 108188, Note_on_c, 0, 59, 100
1, 108348, Note_off_c, 0, 59, 100
1, 108348, Note_on_c, 0, 52, 100
1, 108412, Note_off_c, 0, 52, 100
1, 108412, Note_on_c, 0, 55, 100
1, 108476, Note_off_c, 0, 55, 100
1, 108476, Note_on_c, 0, 58, 100
1, 108508, Note_off_c, 0, 58, 100
1, 108508, Note_on_c, 0, 62, 100
1, 108540, Note_off_c, 0, 62, 100
1, 108540, Note_on_c, 0, 64, 100
1, 108572, Note_off_c, 0, 64, 100
1, 108572, Note_on_c, 0, 66, 100
1, 108604, Note_off_c, 0, 66, 100
1, 108604, Note_on_c, 0, 67, 100
1, 108636, Note_off_c, 0, 67, 100
1, 108636, Note_on_c, 0, 69, 100
1, 108668, Note_off_c, 0, 69, 100
1, 108668, Note_on_c, 0, 67, 100
1, 108716, Note_off_c, 0, 67, 100
1, 108716, Note_on_c, 0, 68, 100
1, 108764, Note_off_c, 0, 68, 100
1, 108764, Note_on_c, 0, 69, 100
1, 108812, Note_off_c, 0, 69, 100
1, 108812, Note_on_c, 0, 67, 100
1, 108860, Note_off_c, 0, 67, 100
1, 108860, Note_on_c, 0, 63, 100
1, 108956, Note_off_c, 0, 63, 100
1, 108956, Note_on_c, 0, 64, 100
1, 109004, Note_off_c, 0, 64, 100
1, 109004, Note_on_c, 0, 67, 100
1, 109052, Note_off_c, 0, 67, 100
1, 109052, Note_on_c, 0, 65, 100
1, 109148, Note_off_c, 0, 65, 100
1, 109340, Note_on_c, 0, 55, 100
1, 109436, Note_off_c, 0, 55, 100
1, 109436, Note_on_c, 0, 58, 100
1, 109468, Note_off_c, 0, 58, 100
1, 109468, Note_on_c, 0, 60, 100
1, 109500, Note_off_c, 0, 60, 100
1, 109500, Note_on_c, 0, 62, 100
1, 109564, Note_off_c, 0, 62, 100
1, 109564, Note_on_c, 0, 64, 100
1, 109596, Note_off_c, 0, 64, 100
1, 109596, Note_on_c, 0, 65, 100
1, 109660, Note_off_c, 0, 65, 100
1, 109660, Note_on_c, 0, 66, 100
1, 109692, Note_off_c, 0, 66, 100
1, 109692, Note_on_c, 0, 67, 100
1, 109756, Note_off_c, 0, 67, 100
1, 109756, Note_on_c, 0, 65, 100
1, 109788, Note_off_c, 0, 65, 100
1, 109788, Note_on_c, 0, 62, 100
1, 109820, Note_off_c, 0, 62, 100
1, 109820, Note_on_c, 0, 63, 100
1, 109916, Note_off_c, 0, 63, 100
1, 109916, Note_on_c, 0, 64, 100
1, 109964, Note_off_c, 0, 64, 100
1, 109964, Note_on_c, 0, 60, 100
1, 110012, Note_off_c, 0, 60, 100
1, 110012, Note_on_c, 0, 59, 100
1, 110060, Note_off_c, 0, 59, 100
1, 110060, Note_on_c, 0, 55, 100
1, 110108, Note_off_c, 0, 55, 100
1, 110108, Note_on_c, 0, 54, 100
1, 110156, Note_off_c, 0, 54, 100
1, 110156, Note_on_c, 0, 52, 100
1, 110204, Note_off_c, 0, 52, 100
1, 110204, Note_on_c, 0, 55, 100
1, 110300, Note_off_c, 0, 55, 100
1, 110300, Note_on_c, 0, 45, 100
1, 110348, Note_off_c, 0, 45, 100
1, 110348, Note_on_c, 0, 47, 100
1, 110396, Note_off_c, 0, 47, 100
1, 110396, Note_on_c, 0, 48, 100
1, 110428, Note_off_c, 0, 48, 100
1, 110428, Note_on_c, 0, 50, 100
1, 110492, Note_off_c, 0, 50, 100
1, 110492, Note_on_c, 0, 51, 100
1, 110524, Note_off_c, 0, 51, 100
1, 110524, Note_on_c, 0, 50, 100
1, 110556, Note_off_c, 0, 50, 100
1, 110556, Note_on_c, 0, 48, 100
1, 110588, Note_off_c, 0, 48, 100
1, 110588, Note_on_c, 0, 51, 100
1, 110664, Note_off_c, 0, 51, 100
1, 110664, Note_on_c, 0, 52, 100
1, 110702, Note_off_c, 0, 52, 100
1, 110702, Note_on_c, 0, 53, 100
1, 110740, Note_off_c, 0, 53, 100
1, 110740, Note_on_c, 0, 55, 100
1, 110778, Note_off_c, 0, 55, 100
1, 110778, Note_on_c, 0, 58, 100
1, 110826, Note_off_c, 0, 58, 100
1, 110826, Note_on_c, 0, 60, 100
1, 110874, Note_off_c, 0, 60, 100
1, 110874, Note_on_c, 0, 58, 100
1, 110922, Note_off_c, 0, 58, 100
1, 110922, Note_on_c, 0, 60, 100
1, 110970, Note_off_c, 0, 60, 100
1, 110970, Note_on_c, 0, 61, 100
1, 111008, Note_off_c, 0, 61, 100
1, 111008, Note_on_c, 0, 62, 100
1, 111046, Note_off_c, 0, 62, 100
1, 111046, Note_on_c, 0, 63, 100
1, 111084, Note_off_c, 0, 63, 100
1, 111084, Note_on_c, 0, 64, 100
1, 111160, Note_off_c, 0, 64, 100
1, 111160, Note_on_c, 0, 65, 100
1, 111208, Note_off_c, 0, 65, 100
1, 111208, Note_on_c, 0, 66, 100
1, 111256, Note_off_c, 0, 66, 100
1, 111256, Note_on_c, 0, 67, 100
1, 111304, Note_off_c, 0, 67, 100
1, 111304, Note_on_c, 0, 65, 100
1, 111352, Note_off_c, 0, 65, 100
1, 111352, Note_on_c, 0, 62, 100
1, 111400, Note_off_c, 0, 62, 100
1, 111400, Note_on_c, 0, 63, 100
1, 111448, Note_off_c, 0, 63, 100
1, 111448, Note_on_c, 0, 64, 100
1, 111496, Note_off_c, 0, 64, 100
1, 111496, Note_on_c, 0, 60, 100
1, 111544, Note_off_c, 0, 60, 100
1, 111544, Note_on_c, 0, 56, 100
1, 111592, Note_off_c, 0, 56, 100
1, 111592, Note_on_c, 0, 55, 100
1, 111640, Note_off_c, 0, 55, 100
1, 111640, Note_on_c, 0, 59, 100
1, 111688, Note_off_c, 0, 59, 100
1, 111688, Note_on_c, 0, 60, 100
1, 111736, Note_off_c, 0, 60, 100
1, 111736, Note_on_c, 0, 62, 100
1, 111784, Note_off_c, 0, 62, 100
1, 111784, Note_on_c, 0, 64, 100
1, 111832, Note_off_c, 0, 64, 100
1, 111832, Note_on_c, 0, 60, 100
1, 111928, Note_off_c, 0, 60, 100
1, 111928, Note_on_c, 0, 58, 100
1, 112024, Note_off_c, 0, 58, 100
1, 112024, Note_on_c, 0, 55, 100
1, 112120, Note_off_c, 0, 55, 100
1, 112120, Note_on_c, 0, 56, 100
1, 112147, Note_off_c, 0, 56, 100
1, 112147, Note_on_c, 0, 57, 100
1, 112229, Note_off_c, 0, 57, 100
1, 112229, Note_on_c, 0, 55, 100
1, 112283, Note_off_c, 0, 55, 100
1, 112283, Note_on_c, 0, 53, 100
1, 112310, Note_off_c, 0, 53, 100
1, 112310, Note_on_c, 0, 51, 100
1, 112358, Note_off_c, 0, 51, 100
1, 112358, Note_on_c, 0, 55, 100
1, 112454, Note_off_c, 0, 55, 100
1, 112454, Note_on_c, 0, 48, 100
1, 112540, Note_off_c, 0, 48, 100
1, 112540, Note_on_c, 0, 53, 100
1, 112578, Note_off_c, 0, 53, 100
1, 112578, Note_on_c, 0, 55, 100
1, 112616, Note_off_c, 0, 55, 100
1, 112616, Note_on_c, 0, 57, 100
1, 112654, Note_off_c, 0, 57, 100
1, 112654, Note_on_c, 0, 60, 100
1, 112730, Note_off_c, 0, 60, 100
1, 112730, Note_on_c, 0, 62, 100
1, 112768, Note_off_c, 0, 62, 100
1, 112768, Note_on_c, 0, 65, 100
1, 112806, Note_off_c, 0, 65, 100
1, 112806, Note_on_c, 0, 67, 100
1, 112844, Note_off_c, 0, 67, 100
1, 112844, Note_on_c, 0, 69, 100
1, 112882, Note_off_c, 0, 69, 100
1, 112882, Note_on_c, 0, 72, 100
1, 112914, Note_off_c, 0, 72, 100
1, 112914, Note_on_c, 0, 71, 100
1, 112946, Note_off_c, 0, 71, 100
1, 112946, Note_on_c, 0, 69, 100
1, 112978, Note_off_c, 0, 69, 100
1, 112978, Note_on_c, 0, 67, 100
1, 113112, Note_off_c, 0, 67, 100
1, 113112, Note_on_c, 0, 69, 100
1, 113150, Note_off_c, 0, 69, 100
1, 113150, Note_on_c, 0, 62, 100
1, 113226, Note_off_c, 0, 62, 100
1, 113226, Note_on_c, 0, 63, 100
1, 113360, Note_off_c, 0, 63, 100
1, 113360, Note_on_c, 0, 64, 100
1, 113456, Note_off_c, 0, 64, 100
1, 113456, Note_on_c, 0, 65, 100
1, 113552, Note_off_c, 0, 65, 100
1, 113552, Note_on_c, 0, 66, 100
1, 113648, Note_off_c, 0, 66, 100
1, 113648, Note_on_c, 0, 67, 100
1, 113744, Note_off_c, 0, 67, 100
1, 113744, Note_on_c, 0, 72, 100
1, 113840, Note_off_c, 0, 72, 100
1, 113840, Note_on_c, 0, 67, 100
1, 113936, Note_off_c, 0, 67, 100
1, 113936, Note_on_c, 0, 65, 100
1, 114032, Note_off_c, 0, 65, 100
1, 114032, Note_on_c, 0, 64, 100
1, 114224, Note_off_c, 0, 64, 100
1, 114224, Note_on_c, 0, 60, 100
1, 114320, Note_off_c, 0, 60, 100
1, 114512, Note_on_c, 0, 55, 100
1, 114608, Note_off_c, 0, 55, 100
1, 114608, Note_on_c, 0, 58, 100
1, 114672, Note_off_c, 0, 58, 100
1, 114672, Note_on_c, 0, 61, 100
1, 114736, Note_off_c, 0, 61, 100
1, 114736, Note_on_c, 0, 65, 100
1, 114800, Note_off_c, 0, 65, 100
1, 114800, Note_on_c, 0, 64, 100
1, 114896, Note_off_c, 0, 64, 100
1, 114896, Note_on_c, 0, 61, 100
1, 114992, Note_off_c, 0, 61, 100
1, 114992, Note_on_c, 0, 58, 100
1, 115088, Note_off_c, 0, 58, 100
1, 115088, Note_on_c, 0, 53, 100
1, 115184, Note_off_c, 0, 53, 100
1, 115184, Note_on_c, 0, 57, 100
1, 115280, Note_off_c, 0, 57, 100
1, 115280, Note_on_c, 0, 55, 100
1, 115414, Note_off_c, 0, 55, 100
1, 115414, Note_on_c, 0, 53, 100
1, 115490, Note_off_c, 0, 53, 100
1, 115490, Note_on_c, 0, 50, 100
1, 115528, Note_off_c, 0, 50, 100
1, 115528, Note_on_c, 0, 53, 100
1, 115566, Note_off_c, 0, 53, 100
1, 115566, Note_on_c, 0, 55, 100
1, 115662, Note_off_c, 0, 55, 100
1, 115662, Note_on_c, 0, 57, 100
1, 115758, Note_off_c, 0, 57, 100
1, 115758, Note_on_c, 0, 60, 100
1, 115854, Note_off_c, 0, 60, 100
1, 115854, Note_on_c, 0, 64, 100
1, 115950, Note_off_c, 0, 64, 100
1, 115950, Note_on_c, 0, 59, 100
1, 116142, Note_off_c, 0, 59, 100
1, 116142, Note_on_c, 0, 59, 100
1, 116270, Note_off_c, 0, 59, 100
1, 116270, Note_on_c, 0, 57, 100
1, 116430, Note_off_c, 0, 57, 100
1, 116430, Note_on_c, 0, 59, 100
1, 116622, Note_off_c, 0, 59, 100
1, 116622, Note_on_c, 0, 60, 100
1, 116718, Note_off_c, 0, 60, 100
1, 117006, Note_on_c, 0, 64, 100
1, 117198, Note_off_c, 0, 64, 100
1, 117198, Note_on_c, 0, 64, 100
1, 117294, Note_off_c, 0, 64, 100
1, 117294, Note_on_c, 0, 64, 100
1, 117486, Note_off_c, 0, 64, 100
1, 117486, Note_on_c, 0, 64, 100
1, 117635, Note_off_c, 0, 64, 100
1, 117635, End_track
0, 0, End_of_file
