0, 0, Header, 1, 1, 192
1, 0, Start_track
1, 0, Title_t, "Melody"
1, 0, Tempo, 882352
1, 0, Key_signature, -5, "major"
1, 0, Time_signature, 4, 2, 24, 8
1, 624, Note_on_c, 0, 58, 100
1, 672, Note_off_c, 0, 58, 100
1, 672, Note_on_c, 0, 60, 100
1, 720, Note_off_c, 0, 60, 100
1, 720, Note_on_c, 0, 62, 100
1, 768, Note_off_c, 0, 62, 100
1, 768, Note_on_c, 0, 63, 100
1, 1056, Note_off_c, 0, 63, 100
1, 1056, Note_on_c, 0, 70, 100
1, 1080, Note_off_c, 0, 70, 100
1, 1080, Note_on_c, 0, 66, 100
1, 1104, Note_off_c, 0, 66, 100
1, 1104, Note_on_c, 0, 63, 100
1, 1128, Note_off_c, 0, 63, 100
1, 1128, Note_on_c, 0, 58, 100
1, 1152, Note_off_c, 0, 58, 100
1, 1152, Note_on_c, 0, 62, 100
1, 1440, Note_off_c, 0, 62, 100
1, 1440, Note_on_c, 0, 70, 100
1, 1472, Note_off_c, 0, 70, 100
1, 1472, Note_on_c, 0, 66, 100
1, 1504, Note_off_c, 0, 66, 100
1, 1504, Note_on_c, 0, 62, 100
1, 1536, Note_off_c, 0, 62, 100
1, 1536, Note_on_c, 0, 58, 100
1, 1584, Note_off_c, 0, 58, 100
1, 1584, Note_on_c, 0, 61, 100
1, 1728, Note_off_c, 0, 61, 100
1, 1728, Note_on_c, 0, 69, 100
1, 1752, Note_off_c, 0, 69, 100
1, 1752, Note_on_c, 0, 70, 100
1, 1800, Note_off_c, 0, 70, 100
1, 1800, Note_on_c, 0, 72, 100
1, 1824, Note_off_c, 0, 72, 100
1, 1824, Note_on_c, 0, 70, 100
1, 1848, Note_off_c, 0, 70, 100
1, 1848, Note_on_c, 0, 66, 100
1, 1872, Note_off_c, 0, 66, 100
1, 1872, Note_on_c, 0, 63, 100
1, 1896, Note_off_c, 0, 63, 100
1, 1896, Note_on_c, 0, 58, 100
1, 1920, Note_off_c, 0, 58, 100
1, 1920, Note_on_c, 0, 61, 100
1, 1968, Note_off_c, 0, 61, 100
1, 1968, Note_on_c, 0, 60, 100
1, 2160, Note_off_c, 0, 60, 100
1, 2523, Note_on_c, 0, 65, 100
1, 2550, Note_off_c, 0, 65, 100
1, 2550, Note_on_c, 0, 66, 100
1, 2577, Note_off_c, 0, 66, 100
1, 2577, Note_on_c, 0, 68, 100
1, 2604, Note_off_c, 0, 68, 100
1, 2604, Note_on_c, 0, 70, 100
1, 2631, Note_off_c, 0, 70, 100
1, 2631, Note_on_c, 0, 68, 100
1, 2658, Note_off_c, 0, 68, 100
1, 2658, Note_on_c, 0, 66, 100
1, 2685, Note_off_c, 0, 66, 100
1, 2685, Note_on_c, 0, 68, 100
1, 2877, Note_off_c, 0, 68, 100
1, 3069, Note_on_c, 0, 65, 100
1, 3093, Note_off_c, 0, 65, 100
1, 3093, Note_on_c, 0, 66, 100
1, 3117, Note_off_c, 0, 66, 100
1, 3117, Note_on_c, 0, 68, 100
1, 3165, Note_off_c, 0, 68, 100
1, 3165, Note_on_c, 0, 72, 100
1, 3189, Note_off_c, 0, 72, 100
1, 3189, Note_on_c, 0, 71, 100
1, 3213, Note_off_c, 0, 71, 100
1, 3213, Note_on_c, 0, 70, 100
1, 3237, Note_off_c, 0, 70, 100
1, 3237, Note_on_c, 0, 69, 100
1, 3261, Note_off_c, 0, 69, 100
1, 3261, Note_on_c, 0, 68, 100
1, 3285, Note_off_c, 0, 68, 100
1, 3285, Note_on_c, 0, 60, 100
1, 3309, Note_off_c, 0, 60, 100
1, 3309, Note_on_c, 0, 61, 100
1, 3333, Note_off_c, 0, 61, 100
1, 3333, Note_on_c, 0, 66, 100
1, 3357, Note_off_c, 0, 66, 100
1, 3357, Note_on_c, 0, 65, 100
1, 3381, Note_off_c, 0, 65, 100
1, 3381, Note_on_c, 0, 66, 100
1, 3405, Note_off_c, 0, 66, 100
1, 3405, Note_on_c, 0, 68, 100
1, 3429, Note_off_c, 0, 68, 100
1, 3429, Note_on_c, 0, 70, 100
1, 3453, Note_off_c, 0, 70, 100
1, 3453, Note_on_c, 0, 72, 100
1, 3477, Note_off_c, 0, 72, 100
1, 3477, Note_on_c, 0, 68, 100
1, 3501, Note_off_c, 0, 68, 100
1, 3501, Note_on_c, 0, 65, 100
1, 3525, Note_off_c, 0, 65, 100
1, 3525, Note_on_c, 0, 60, 100
1, 3549, Note_off_c, 0, 60, 100
1, 3549, Note_on_c, 0, 63, 100
1, 3573, Note_off_c, 0, 63, 100
1, 3573, Note_on_c, 0, 60, 100
1, 3597, Note_off_c, 0, 60, 100
1, 3597, Note_on_c, 0, 62, 100
1, 3621, Note_off_c, 0, 62, 100
1, 3621, Note_on_c, 0, 65, 100
1, 3645, Note_off_c, 0, 65, 100
1, 3645, Note_on_c, 0, 68, 100
1, 3677, Note_off_c, 0, 68, 100
1, 3677, Note_on_c, 0, 70, 100
1, 3709, Note_off_c, 0, 70, 100
1, 3709, Note_on_c, 0, 71, 100
1, 3741, Note_off_c, 0, 71, 100
1, 3741, Note_on_c, 0, 70, 100
1, 3773, Note_off_c, 0, 70, 100
1, 3773, Note_on_c, 0, 64, 100
1, 3837, Note_off_c, 0, 64, 100
1, 3837, Note_on_c, 0, 70, 100
1, 3885, Note_off_c, 0, 70, 100
1, 3885, Note_on_c, 0, 71, 100
1, 3933, Note_off_c, 0, 71, 100
1, 3933, Note_on_c, 0, 70, 100
1, 3981, Note_off_c, 0, 70, 100
1, 3981, Note_on_c, 0, 63, 100
1, 4365, Note_off_c, 0, 63, 100
1, 4365, Note_on_c, 0, 72, 100
1, 4389, Note_off_c, 0, 72, 100
1, 4389, Note_on_c, 0, 73, 100
1, 4413, Note_off_c, 0, 73, 100
1, 4413, Note_on_c, 0, 72, 100
1, 4437, Note_off_c, 0, 72, 100
1, 4437, Note_on_c, 0, 73, 100
1, 4461, Note_off_c, 0, 73, 100
1, 4461, Note_on_c, 0, 72, 100
1, 4485, Note_off_c, 0, 72, 100
1, 4485, Note_on_c, 0, 70, 100
1, 4509, Note_off_c, 0, 70, 100
1, 4509, Note_on_c, 0, 69, 100
1, 4533, Note_off_c, 0, 69, 100
1, 4533, Note_on_c, 0, 70, 100
1, 4557, Note_off_c, 0, 70, 100
1, 4557, Note_on_c, 0, 69, 100
1, 4581, Note_off_c, 0, 69, 100
1, 4581, Note_on_c, 0, 67, 100
1, 4605, Note_off_c, 0, 67, 100
1, 4605, Note_on_c, 0, 65, 100
1, 4821, Note_off_c, 0, 65, 100
1, 4821, Note_on_c, 0, 64, 100
1, 4845, Note_off_c, 0, 64, 100
1, 4845, Note_on_c, 0, 63, 100
1, 4869, Note_off_c, 0, 63, 100
1, 4869, Note_on_c, 0, 56, 100
1, 4893, Note_off_c, 0, 56, 100
1, 4893, Note_on_c, 0, 58, 100
1, 4917, Note_off_c, 0, 58, 100
1, 4917, Note_on_c, 0, 61, 100
1, 4941, Note_off_c, 0, 61, 100
1, 4941, Note_on_c, 0, 60, 100
1, 4989, Note_off_c, 0, 60, 100
1, 4989, Note_on_c, 0, 54, 100
1, 5085, Note_off_c, 0, 54, 100
1, 5085, Note_on_c, 0, 53, 100
1, 5181, Note_off_c, 0, 53, 100
1, 5661, Note_on_c, 0, 72, 100
1, 5685, Note_off_c, 0, 72, 100
1, 5685, Note_on_c, 0, 74, 100
1, 5709, Note_off_c, 0, 74, 100
1, 5709, Note_on_c, 0, 75, 100
1, 5733, Note_off_c, 0, 75, 100
1, 5733, Note_on_c, 0, 73, 100
1, 5757, Note_off_c, 0, 73, 100
1, 5757, Note_on_c, 0, 72, 100
1, 5778, Note_off_c, 0, 72, 100
1, 5778, Note_on_c, 0, 70, 100
1, 5799, Note_off_c, 0, 70, 100
1, 5799, Note_on_c, 0, 69, 100
1, 5820, Note_off_c, 0, 69, 100
1, 5820, Note_on_c, 0, 67, 100
1, 5841, Note_off_c, 0, 67, 100
1, 5841, Note_on_c, 0, 68, 100
1, 5862, Note_off_c, 0, 68, 100
1, 5862, Note_on_c, 0, 67, 100
1, 5883, Note_off_c, 0, 67, 100
1, 5883, Note_on_c, 0, 66, 100
1, 5925, Note_off_c, 0, 66, 100
1, 5925, Note_on_c, 0, 58, 100
1, 5946, Note_off_c, 0, 58, 100
1, 5946, Note_on_c, 0, 65, 100
1, 6042, Note_off_c, 0, 65, 100
1, 6042, Note_on_c, 0, 58, 100
1, 6090, Note_off_c, 0, 58, 100
1, 6090, Note_on_c, 0, 56, 100
1, 6138, Note_off_c, 0, 56, 100
1, 6138, Note_on_c, 0, 60, 100
1, 6186, Note_off_c, 0, 60, 100
1, 6186, Note_on_c, 0, 61, 100
1, 6282, Note_off_c, 0, 61, 100
1, 6522, Note_on_c, 0, 70, 100
1, 6549, Note_off_c, 0, 70, 100
1, 6549, Note_on_c, 0, 71, 100
1, 6603, Note_off_c, 0, 71, 100
1, 6603, Note_on_c, 0, 67, 100
1, 6630, Note_off_c, 0, 67, 100
1, 6630, Note_on_c, 0, 68, 100
1, 6657, Note_off_c, 0, 68, 100
1, 6657, Note_on_c, 0, 64, 100
1, 6684, Note_off_c, 0, 64, 100
1, 6684, Note_on_c, 0, 65, 100
1, 6711, Note_off_c, 0, 65, 100
1, 6711, Note_on_c, 0, 62, 100
1, 6759, Note_off_c, 0, 62, 100
1, 6759, Note_on_c, 0, 63, 100
1, 6807, Note_off_c, 0, 63, 100
1, 6807, Note_on_c, 0, 62, 100
1, 6855, Note_off_c, 0, 62, 100
1, 6855, Note_on_c, 0, 58, 100
1, 6903, Note_off_c, 0, 58, 100
1, 6903, Note_on_c, 0, 63, 100
1, 7191, Note_off_c, 0, 63, 100
1, 7191, Note_on_c, 0, 65, 100
1, 7215, Note_off_c, 0, 65, 100
1, 7215, Note_on_c, 0, 66, 100
1, 7239, Note_off_c, 0, 66, 100
1, 7239, Note_on_c, 0, 70, 100
1, 7263, Note_off_c, 0, 70, 100
1, 7263, Note_on_c, 0, 74, 100
1, 7287, Note_off_c, 0, 74, 100
1, 7287, Note_on_c, 0, 77, 100
1, 7335, Note_off_c, 0, 77, 100
1, 7335, Note_on_c, 0, 75, 100
1, 7431, Note_off_c, 0, 75, 100
1, 7623, Note_on_c, 0, 58, 100
1, 7671, Note_off_c, 0, 58, 100
1, 7671, Note_on_c, 0, 63, 100
1, 7698, Note_off_c, 0, 63, 100
1, 7698, Note_on_c, 0, 65, 100
1, 7725, Note_off_c, 0, 65, 100
1, 7725, Note_on_c, 0, 66, 100
1, 7752, Note_off_c, 0, 66, 100
1, 7752, Note_on_c, 0, 68, 100
1, 7779, Note_off_c, 0, 68, 100
1, 7779, Note_on_c, 0, 73, 100
1, 7806, Note_off_c, 0, 73, 100
1, 7806, Note_on_c, 0, 77, 100
1, 7833, Note_off_c, 0, 77, 100
1, 7833, Note_on_c, 0, 75, 100
1, 8004, Note_off_c, 0, 75, 100
1, 8004, Note_on_c, 0, 57, 100
1, 8069, Note_off_c, 0, 57, 100
1, 8069, Note_on_c, 0, 62, 100
1, 8121, Note_off_c, 0, 62, 100
1, 8121, Note_on_c, 0, 64, 100
1, 8138, Note_off_c, 0, 64, 100
1, 8138, Note_on_c, 0, 65, 100
1, 8155, Note_off_c, 0, 65, 100
1, 8155, Note_on_c, 0, 66, 100
1, 8172, Note_off_c, 0, 66, 100
1, 8172, Note_on_c, 0, 69, 100
1, 8189, Note_off_c, 0, 69, 100
1, 8189, Note_on_c, 0, 71, 100
1, 8206, Note_off_c, 0, 71, 100
1, 8206, Note_on_c, 0, 76, 100
1, 8223, Note_off_c, 0, 76, 100
1, 8223, Note_on_c, 0, 74, 100
1, 8384, Note_off_c, 0, 74, 100
1, 8384, Note_on_c, 0, 56, 100
1, 8466, Note_off_c, 0, 56, 100
1, 8466, Note_on_c, 0, 61, 100
1, 8518, Note_off_c, 0, 61, 100
1, 8518, Note_on_c, 0, 63, 100
1, 8535, Note_off_c, 0, 63, 100
1, 8535, Note_on_c, 0, 65, 100
1, 8552, Note_off_c, 0, 65, 100
1, 8552, Note_on_c, 0, 68, 100
1, 8569, Note_off_c, 0, 68, 100
1, 8569, Note_on_c, 0, 72, 100
1, 8586, Note_off_c, 0, 72, 100
1, 8586, Note_on_c, 0, 75, 100
1, 8603, Note_off_c, 0, 75, 100
1, 8603, Note_on_c, 0, 70, 100
1, 8699, Note_off_c, 0, 70, 100
1, 8876, Note_on_c, 0, 72, 100
1, 8897, Note_off_c, 0, 72, 100
1, 8897, Note_on_c, 0, 73, 100
1, 8918, Note_off_c, 0, 73, 100
1, 8918, Note_on_c, 0, 72, 100
1, 8939, Note_off_c, 0, 72, 100
1, 8939, Note_on_c, 0, 73, 100
1, 8960, Note_off_c, 0, 73, 100
1, 8960, Note_on_c, 0, 72, 100
1, 8981, Note_off_c, 0, 72, 100
1, 8981, Note_on_c, 0, 68, 100
1, 9002, Note_off_c, 0, 68, 100
1, 9002, Note_on_c, 0, 72, 100
1, 9066, Note_off_c, 0, 72, 100
1, 9066, Note_on_c, 0, 71, 100
1, 9098, Note_off_c, 0, 71, 100
1, 9098, Note_on_c, 0, 70, 100
1, 9130, Note_off_c, 0, 70, 100
1, 9130, Note_on_c, 0, 71, 100
1, 9162, Note_off_c, 0, 71, 100
1, 9162, Note_on_c, 0, 69, 100
1, 9194, Note_off_c, 0, 69, 100
1, 9194, Note_on_c, 0, 68, 100
1, 9226, Note_off_c, 0, 68, 100
1, 9226, Note_on_c, 0, 65, 100
1, 9258, Note_off_c, 0, 65, 100
1, 9258, Note_on_c, 0, 66, 100
1, 9290, Note_off_c, 0, 66, 100
1, 9290, Note_on_c, 0, 65, 100
1, 9354, Note_off_c, 0, 65, 100
1, 9354, Note_on_c, 0, 68, 100
1, 9386, Note_off_c, 0, 68, 100
1, 9386, Note_on_c, 0, 72, 100
1, 9410, Note_off_c, 0, 72, 100
1, 9410, Note_on_c, 0, 75, 100
1, 9434, Note_off_c, 0, 75, 100
1, 9434, Note_on_c, 0, 72, 100
1, 9482, Note_off_c, 0, 72, 100
1, 9482, Note_on_c, 0, 68, 100
1, 9530, Note_off_c, 0, 68, 100
1, 9530, Note_on_c, 0, 65, 100
1, 9616, Note_off_c, 0, 65, 100
1, 9616, Note_on_c, 0, 73, 100
1, 9654, Note_off_c, 0, 73, 100
1, 9654, Note_on_c, 0, 74, 100
1, 9692, Note_off_c, 0, 74, 100
1, 9692, Note_on_c, 0, 72, 100
1, 9730, Note_off_c, 0, 72, 100
1, 9730, Note_on_c, 0, 71, 100
1, 9768, Note_off_c, 0, 71, 100
1, 9768, Note_on_c, 0, 67, 100
1, 9816, Note_off_c, 0, 67, 100
1, 9816, Note_on_c, 0, 64, 100
1, 9981, Note_off_c, 0, 64, 100
1, 9981, Note_on_c, 0, 73, 100
1, 10023, Note_off_c, 0, 73, 100
1, 10023, Note_on_c, 0, 72, 100
1, 10044, Note_off_c, 0, 72, 100
1, 10044, Note_on_c, 0, 71, 100
1, 10065, Note_off_c, 0, 71, 100
1, 10065, Note_on_c, 0, 70, 100
1, 10086, Note_off_c, 0, 70, 100
1, 10086, Note_on_c, 0, 66, 100
1, 10107, Note_off_c, 0, 66, 100
1, 10107, Note_on_c, 0, 65, 100
1, 10128, Note_off_c, 0, 65, 100
1, 10128, Note_on_c, 0, 64, 100
1, 10149, Note_off_c, 0, 64, 100
1, 10149, Note_on_c, 0, 63, 100
1, 10197, Note_off_c, 0, 63, 100
1, 10197, Note_on_c, 0, 62, 100
1, 10245, Note_off_c, 0, 62, 100
1, 10245, Note_on_c, 0, 63, 100
1, 10341, Note_off_c, 0, 63, 100
1, 10581, Note_on_c, 0, 68, 100
1, 10629, Note_off_c, 0, 68, 100
1, 10629, Note_on_c, 0, 72, 100
1, 10677, Note_off_c, 0, 72, 100
1, 10677, Note_on_c, 0, 74, 100
1, 10725, Note_off_c, 0, 74, 100
1, 10725, Note_on_c, 0, 75, 100
1, 10757, Note_off_c, 0, 75, 100
1, 10757, Note_on_c, 0, 74, 100
1, 10789, Note_off_c, 0, 74, 100
1, 10789, Note_on_c, 0, 72, 100
1, 10821, Note_off_c, 0, 72, 100
1, 10821, Note_on_c, 0, 69, 100
1, 10853, Note_off_c, 0, 69, 100
1, 10853, Note_on_c, 0, 70, 100
1, 10885, Note_off_c, 0, 70, 100
1, 10885, Note_on_c, 0, 67, 100
1, 10917, Note_off_c, 0, 67, 100
1, 10917, Note_on_c, 0, 69, 100
1, 11013, Note_off_c, 0, 69, 100
1, 11013, Note_on_c, 0, 72, 100
1, 11061, Note_off_c, 0, 72, 100
1, 11061, Note_on_c, 0, 65, 100
1, 11253, Note_off_c, 0, 65, 100
1, 11685, Note_on_c, 0, 76, 100
1, 11717, Note_off_c, 0, 76, 100
1, 11717, Note_on_c, 0, 77, 100
1, 11749, Note_off_c, 0, 77, 100
1, 11749, Note_on_c, 0, 73, 100
1, 11781, Note_off_c, 0, 73, 100
1, 11781, Note_on_c, 0, 68, 100
1, 11845, Note_off_c, 0, 68, 100
1, 11845, Note_on_c, 0, 65, 100
1, 11877, Note_off_c, 0, 65, 100
1, 11877, Note_on_c, 0, 66, 100
1, 12021, Note_off_c, 0, 66, 100
1, 12021, Note_on_c, 0, 69, 100
1, 12045, Note_off_c, 0, 69, 100
1, 12045, Note_on_c, 0, 72, 100
1, 12069, Note_off_c, 0, 72, 100
1, 12069, Note_on_c, 0, 76, 100
1, 12117, Note_off_c, 0, 76, 100
1, 12117, Note_on_c, 0, 72, 100
1, 12165, Note_off_c, 0, 72, 100
1, 12165, Note_on_c, 0, 69, 100
1, 12213, Note_off_c, 0, 69, 100
1, 12213, Note_on_c, 0, 66, 100
1, 12261, Note_off_c, 0, 66, 100
1, 12261, Note_on_c, 0, 75, 100
1, 12309, Note_off_c, 0, 75, 100
1, 12309, Note_on_c, 0, 73, 100
1, 12357, Note_off_c, 0, 73, 100
1, 12357, Note_on_c, 0, 73, 100
1, 12453, Note_off_c, 0, 73, 100
1, 12453, Note_on_c, 0, 72, 100
1, 12549, Note_off_c, 0, 72, 100
1, 12549, Note_on_c, 0, 70, 100
1, 12666, Note_off_c, 0, 70, 100
1, 12666, Note_on_c, 0, 70, 100
1, 12687, Note_off_c, 0, 70, 100
1, 12687, Note_on_c, 0, 72, 100
1, 12708, Note_off_c, 0, 72, 100
1, 12708, Note_on_c, 0, 71, 100
1, 12729, Note_off_c, 0, 71, 100
1, 12729, Note_on_c, 0, 67, 100
1, 12771, Note_off_c, 0, 67, 100
1, 12771, Note_on_c, 0, 64, 100
1, 12813, Note_off_c, 0, 64, 100
1, 12813, Note_on_c, 0, 59, 100
1, 12834, Note_off_c, 0, 59, 100
1, 12834, Note_on_c, 0, 62, 100
1, 12930, Note_off_c, 0, 62, 100
1, 12930, Note_on_c, 0, 61, 100
1, 13026, Note_off_c, 0, 61, 100
1, 13218, Note_on_c, 0, 65, 100
1, 13252, Note_off_c, 0, 65, 100
1, 13252, Note_on_c, 0, 66, 100
1, 13356, Note_off_c, 0, 66, 100
1, 13356, Note_on_c, 0, 69, 100
1, 13373, Note_off_c, 0, 69, 100
1, 13373, Note_on_c, 0, 73, 100
1, 13390, Note_off_c, 0, 73, 100
1, 13390, Note_on_c, 0, 76, 100
1, 13407, Note_off_c, 0, 76, 100
1, 13407, Note_on_c, 0, 71, 100
1, 13599, Note_off_c, 0, 71, 100
1, 13791, Note_on_c, 0, 73, 100
1, 13887, Note_off_c, 0, 73, 100
1, 13887, Note_on_c, 0, 66, 100
1, 13935, Note_off_c, 0, 66, 100
1, 13935, Note_on_c, 0, 67, 100
1, 13983, Note_off_c, 0, 67, 100
1, 13983, Note_on_c, 0, 69, 100
1, 14031, Note_off_c, 0, 69, 100
1, 14031, Note_on_c, 0, 66, 100
1, 14079, Note_off_c, 0, 66, 100
1, 14079, Note_on_c, 0, 64, 100
1, 14127, Note_off_c, 0, 64, 100
1, 14127, Note_on_c, 0, 62, 100
1, 14175, Note_off_c, 0, 62, 100
1, 14175, Note_on_c, 0, 72, 100
1, 14223, Note_off_c, 0, 72, 100
1, 14223, Note_on_c, 0, 70, 100
1, 14271, Note_off_c, 0, 70, 100
1, 14271, Note_on_c, 0, 72, 100
1, 14319, Note_off_c, 0, 72, 100
1, 14319, Note_on_c, 0, 70, 100
1, 14559, Note_off_c, 0, 70, 100
1, 14559, Note_on_c, 0, 72, 100
1, 14591, Note_off_c, 0, 72, 100
1, 14591, Note_on_c, 0, 73, 100
1, 14623, Note_off_c, 0, 73, 100
1, 14623, Note_on_c, 0, 69, 100
1, 14655, Note_off_c, 0, 69, 100
1, 14655, Note_on_c, 0, 66, 100
1, 14719, Note_off_c, 0, 66, 100
1, 14719, Note_on_c, 0, 64, 100
1, 14751, Note_off_c, 0, 64, 100
1, 14751, Note_on_c, 0, 63, 100
1, 14827, Note_off_c, 0, 63, 100
1, 14827, Note_on_c, 0, 72, 100
1, 14846, Note_off_c, 0, 72, 100
1, 14846, Note_on_c, 0, 73, 100
1, 14865, Note_off_c, 0, 73, 100
1, 14865, Note_on_c, 0, 72, 100
1, 14884, Note_off_c, 0, 72, 100
1, 14884, Note_on_c, 0, 73, 100
1, 14903, Note_off_c, 0, 73, 100
1, 14903, Note_on_c, 0, 71, 100
1, 14922, Note_off_c, 0, 71, 100
1, 14922, Note_on_c, 0, 66, 100
1, 14962, Note_off_c, 0, 66, 100
1, 14962, Note_on_c, 0, 69, 100
1, 14983, Note_off_c, 0, 69, 100
1, 14983, Note_on_c, 0, 70, 100
1, 15004, Note_off_c, 0, 70, 100
1, 15004, Note_on_c, 0, 69, 100
1, 15025, Note_off_c, 0, 69, 100
1, 15025, Note_on_c, 0, 68, 100
1, 15046, Note_off_c, 0, 68, 100
1, 15046, Note_on_c, 0, 62, 100
1, 15088, Note_off_c, 0, 62, 100
1, 15088, Note_on_c, 0, 59, 100
1, 15109, Note_off_c, 0, 59, 100
1, 15109, Note_on_c, 0, 54, 100
1, 15130, Note_off_c, 0, 54, 100
1, 15130, Note_on_c, 0, 66, 100
1, 15226, Note_off_c, 0, 66, 100
1, 15226, Note_on_c, 0, 61, 100
1, 15274, Note_off_c, 0, 61, 100
1, 15274, Note_on_c, 0, 57, 100
1, 15322, Note_off_c, 0, 57, 100
1, 15322, Note_on_c, 0, 64, 100
1, 15418, Note_off_c, 0, 64, 100
1, 15610, Note_on_c, 0, 64, 100
1, 15642, Note_off_c, 0, 64, 100
1, 15642, Note_on_c, 0, 62, 100
1, 15674, Note_off_c, 0, 62, 100
1, 15674, Note_on_c, 0, 61, 100
1, 15706, Note_off_c, 0, 61, 100
1, 15706, Note_on_c, 0, 57, 100
1, 15754, Note_off_c, 0, 57, 100
1, 15754, Note_on_c, 0, 59, 100
1, 15946, Note_off_c, 0, 59, 100
1, 16186, Note_on_c, 0, 53, 100
1, 16210, Note_off_c, 0, 53, 100
1, 16210, Note_on_c, 0, 55, 100
1, 16234, Note_off_c, 0, 55, 100
1, 16234, Note_on_c, 0, 57, 100
1, 16258, Note_off_c, 0, 57, 100
1, 16258, Note_on_c, 0, 59, 100
1, 16282, Note_off_c, 0, 59, 100
1, 16282, Note_on_c, 0, 64, 100
1, 16306, Note_off_c, 0, 64, 100
1, 16306, Note_on_c, 0, 62, 100
1, 16330, Note_off_c, 0, 62, 100
1, 16330, Note_on_c, 0, 60, 100
1, 16354, Note_off_c, 0, 60, 100
1, 16354, Note_on_c, 0, 57, 100
1, 16378, Note_off_c, 0, 57, 100
1, 16378, Note_on_c, 0, 59, 100
1, 16402, Note_off_c, 0, 59, 100
1, 16402, Note_on_c, 0, 60, 100
1, 16426, Note_off_c, 0, 60, 100
1, 16426, Note_on_c, 0, 62, 100
1, 16450, Note_off_c, 0, 62, 100
1, 16450, Note_on_c, 0, 64, 100
1, 16474, Note_off_c, 0, 64, 100
1, 16474, Note_on_c, 0, 65, 100
1, 16522, Note_off_c, 0, 65, 100
1, 16522, Note_on_c, 0, 57, 100
1, 16538, Note_off_c, 0, 57, 100
1, 16538, Note_on_c, 0, 58, 100
1, 16554, Note_off_c, 0, 58, 100
1, 16554, Note_on_c, 0, 59, 100
1, 16570, Note_off_c, 0, 59, 100
1, 16570, Note_on_c, 0, 64, 100
1, 16602, Note_off_c, 0, 64, 100
1, 16602, Note_on_c, 0, 62, 100
1, 16618, Note_off_c, 0, 62, 100
1, 16618, Note_on_c, 0, 60, 100
1, 16650, Note_off_c, 0, 60, 100
1, 16650, Note_on_c, 0, 57, 100
1, 16666, Note_off_c, 0, 57, 100
1, 16666, Note_on_c, 0, 59, 100
1, 16687, Note_off_c, 0, 59, 100
1, 16687, Note_on_c, 0, 62, 100
1, 16708, Note_off_c, 0, 62, 100
1, 16708, Note_on_c, 0, 65, 100
1, 16729, Note_off_c, 0, 65, 100
1, 16729, Note_on_c, 0, 68, 100
1, 16771, Note_off_c, 0, 68, 100
1, 16771, Note_on_c, 0, 65, 100
1, 16792, Note_off_c, 0, 65, 100
1, 16792, Note_on_c, 0, 64, 100
1, 16813, Note_off_c, 0, 64, 100
1, 16813, Note_on_c, 0, 68, 100
1, 16834, Note_off_c, 0, 68, 100
1, 16834, Note_on_c, 0, 71, 100
1, 16855, Note_off_c, 0, 71, 100
1, 16855, Note_on_c, 0, 74, 100
1, 16879, Note_off_c, 0, 74, 100
1, 16879, Note_on_c, 0, 72, 100
1, 16903, Note_off_c, 0, 72, 100
1, 16903, Note_on_c, 0, 71, 100
1, 16927, Note_off_c, 0, 71, 100
1, 16927, Note_on_c, 0, 67, 100
1, 16951, Note_off_c, 0, 67, 100
1, 16951, Note_on_c, 0, 69, 100
1, 17047, Note_off_c, 0, 69, 100
1, 17239, Note_on_c, 0, 70, 100
1, 17266, Note_off_c, 0, 70, 100
1, 17266, Note_on_c, 0, 72, 100
1, 17293, Note_off_c, 0, 72, 100
1, 17293, Note_on_c, 0, 71, 100
1, 17320, Note_off_c, 0, 71, 100
1, 17320, Note_on_c, 0, 67, 100
1, 17347, Note_off_c, 0, 67, 100
1, 17347, Note_on_c, 0, 64, 100
1, 17374, Note_off_c, 0, 64, 100
1, 17374, Note_on_c, 0, 59, 100
1, 17401, Note_off_c, 0, 59, 100
1, 17401, Note_on_c, 0, 62, 100
1, 17428, Note_off_c, 0, 62, 100
1, 17428, Note_on_c, 0, 61, 100
1, 17476, Note_off_c, 0, 61, 100
1, 17476, Note_on_c, 0, 69, 100
1, 17524, Note_off_c, 0, 69, 100
1, 17524, Note_on_c, 0, 70, 100
1, 17572, Note_off_c, 0, 70, 100
1, 17572, Note_on_c, 0, 69, 100
1, 17620, Note_off_c, 0, 69, 100
1, 17620, Note_on_c, 0, 67, 100
1, 17652, Note_off_c, 0, 67, 100
1, 17652, Note_on_c, 0, 68, 100
1, 17684, Note_off_c, 0, 68, 100
1, 17684, Note_on_c, 0, 67, 100
1, 17716, Note_off_c, 0, 67, 100
1, 17716, Note_on_c, 0, 65, 100
1, 17748, Note_off_c, 0, 65, 100
1, 17748, Note_on_c, 0, 72, 100
1, 17894, Note_off_c, 0, 72, 100
1, 17894, Note_on_c, 0, 69, 100
1, 17921, Note_off_c, 0, 69, 100
1, 17921, Note_on_c, 0, 65, 100
1, 17948, Note_off_c, 0, 65, 100
1, 17948, Note_on_c, 0, 60, 100
1, 17975, Note_off_c, 0, 60, 100
1, 17975, Note_on_c, 0, 57, 100
1, 18002, Note_off_c, 0, 57, 100
1, 18002, Note_on_c, 0, 64, 100
1, 18050, Note_off_c, 0, 64, 100
1, 18050, Note_on_c, 0, 67, 100
1, 18098, Note_off_c, 0, 67, 100
1, 18098, Note_on_c, 0, 64, 100
1, 18434, Note_off_c, 0, 64, 100
1, 18434, Note_on_c, 0, 60, 100
1, 18482, Note_off_c, 0, 60, 100
1, 18482, Note_on_c, 0, 64, 100
1, 18530, Note_off_c, 0, 64, 100
1, 18530, Note_on_c, 0, 67, 100
1, 18578, Note_off_c, 0, 67, 100
1, 18578, Note_on_c, 0, 68, 100
1, 18626, Note_off_c, 0, 68, 100
1, 18626, Note_on_c, 0, 71, 100
1, 18674, Note_off_c, 0, 71, 100
1, 18674, Note_on_c, 0, 69, 100
1, 18722, Note_off_c, 0, 69, 100
1, 18722, Note_on_c, 0, 64, 100
1, 18770, Note_off_c, 0, 64, 100
1, 18770, Note_on_c, 0, 68, 100
1, 18818, Note_off_c, 0, 68, 100
1, 18818, Note_on_c, 0, 56, 100
1, 18866, Note_off_c, 0, 56, 100
1, 18866, Note_on_c, 0, 60, 100
1, 18914, Note_off_c, 0, 60, 100
1, 18914, Note_on_c, 0, 63, 100
1, 18962, Note_off_c, 0, 63, 100
1, 18962, Note_on_c, 0, 64, 100
1, 19026, Note_off_c, 0, 64, 100
1, 19026, Note_on_c, 0, 67, 100
1, 19090, Note_off_c, 0, 67, 100
1, 19090, Note_on_c, 0, 65, 100
1, 19154, Note_off_c, 0, 65, 100
1, 19154, Note_on_c, 0, 58, 100
1, 19202, Note_off_c, 0, 58, 100
1, 19202, Note_on_c, 0, 63, 100
1, 19298, Note_off_c, 0, 63, 100
1, 19634, Note_on_c, 0, 63, 100
1, 19682, Note_off_c, 0, 63, 100
1, 19682, Note_on_c, 0, 65, 100
1, 19730, Note_off_c, 0, 65, 100
1, 19730, Note_on_c, 0, 63, 100
1, 19970, Note_off_c, 0, 63, 100
1, 19970, Note_on_c, 0, 63, 100
1, 20018, Note_off_c, 0, 63, 100
1, 20018, Note_on_c, 0, 66, 100
1, 20066, Note_off_c, 0, 66, 100
1, 20066, Note_on_c, 0, 68, 100
1, 20114, Note_off_c, 0, 68, 100
1, 20114, Note_on_c, 0, 69, 100
1, 20152, Note_off_c, 0, 69, 100
1, 20152, Note_on_c, 0, 70, 100
1, 20190, Note_off_c, 0, 70, 100
1, 20190, Note_on_c, 0, 66, 100
1, 20228, Note_off_c, 0, 66, 100
1, 20228, Note_on_c, 0, 63, 100
1, 20266, Note_off_c, 0, 63, 100
1, 20266, Note_on_c, 0, 58, 100
1, 20304, Note_off_c, 0, 58, 100
1, 20304, Note_on_c, 0, 69, 100
1, 20376, Note_off_c, 0, 69, 100
1, 20376, Note_on_c, 0, 66, 100
1, 20400, Note_off_c, 0, 66, 100
1, 20400, Note_on_c, 0, 63, 100
1, 20448, Note_off_c, 0, 63, 100
1, 20448, Note_on_c, 0, 67, 100
1, 20472, Note_off_c, 0, 67, 100
1, 20472, Note_on_c, 0, 68, 100
1, 20544, Note_off_c, 0, 68, 100
1, 20544, Note_on_c, 0, 66, 100
1, 20640, Note_off_c, 0, 66, 100
1, 20640, Note_on_c, 0, 61, 100
1, 20688, Note_off_c, 0, 61, 100
1, 20688, Note_on_c, 0, 64, 100
1, 20726, Note_off_c, 0, 64, 100
1, 20726, Note_on_c, 0, 65, 100
1, 20764, Note_off_c, 0, 65, 100
1, 20764, Note_on_c, 0, 68, 100
1, 20802, Note_off_c, 0, 68, 100
1, 20802, Note_on_c, 0, 68, 100
1, 20840, Note_off_c, 0, 68, 100
1, 20840, Note_on_c, 0, 68, 100
1, 21032, Note_off_c, 0, 68, 100
1, 21317, Note_on_c, 0, 65, 100
1, 21371, Note_off_c, 0, 65, 100
1, 21371, Note_on_c, 0, 68, 100
1, 21398, Note_off_c, 0, 68, 100
1, 21398, Note_on_c, 0, 70, 100
1, 21425, Note_off_c, 0, 70, 100
1, 21425, Note_on_c, 0, 72, 100
1, 21452, Note_off_c, 0, 72, 100
1, 21452, Note_on_c, 0, 75, 100
1, 21506, Note_off_c, 0, 75, 100
1, 21506, Note_on_c, 0, 73, 100
1, 21533, Note_off_c, 0, 73, 100
1, 21533, Note_on_c, 0, 72, 100
1, 21560, Note_off_c, 0, 72, 100
1, 21560, Note_on_c, 0, 73, 100
1, 21587, Note_off_c, 0, 73, 100
1, 21587, Note_on_c, 0, 72, 100
1, 21614, Note_off_c, 0, 72, 100
1, 21614, Note_on_c, 0, 70, 100
1, 21641, Note_off_c, 0, 70, 100
1, 21641, Note_on_c, 0, 68, 100
1, 21689, Note_off_c, 0, 68, 100
1, 21689, Note_on_c, 0, 60, 100
1, 21737, Note_off_c, 0, 60, 100
1, 21737, Note_on_c, 0, 61, 100
1, 21785, Note_off_c, 0, 61, 100
1, 21785, Note_on_c, 0, 66, 100
1, 21833, Note_off_c, 0, 66, 100
1, 21833, Note_on_c, 0, 65, 100
1, 21897, Note_off_c, 0, 65, 100
1, 21897, Note_on_c, 0, 63, 100
1, 21929, Note_off_c, 0, 63, 100
1, 21929, Note_on_c, 0, 62, 100
1, 21961, Note_off_c, 0, 62, 100
1, 21961, Note_on_c, 0, 65, 100
1, 21993, Note_off_c, 0, 65, 100
1, 21993, Note_on_c, 0, 68, 100
1, 22025, Note_off_c, 0, 68, 100
1, 22025, Note_on_c, 0, 71, 100
1, 22063, Note_off_c, 0, 71, 100
1, 22063, Note_on_c, 0, 73, 100
1, 22101, Note_off_c, 0, 73, 100
1, 22101, Note_on_c, 0, 70, 100
1, 22177, Note_off_c, 0, 70, 100
1, 22177, Note_on_c, 0, 68, 100
1, 22215, Note_off_c, 0, 68, 100
1, 22215, Note_on_c, 0, 70, 100
1, 22263, Note_off_c, 0, 70, 100
1, 22263, Note_on_c, 0, 66, 100
1, 22311, Note_off_c, 0, 66, 100
1, 22311, Note_on_c, 0, 58, 100
1, 22359, Note_off_c, 0, 58, 100
1, 22359, Note_on_c, 0, 63, 100
1, 22407, Note_off_c, 0, 63, 100
1, 22407, Note_on_c, 0, 66, 100
1, 22455, Note_off_c, 0, 66, 100
1, 22455, Note_on_c, 0, 65, 100
1, 22503, Note_off_c, 0, 65, 100
1, 22503, Note_on_c, 0, 63, 100
1, 22695, Note_off_c, 0, 63, 100
1, 23031, Note_on_c, 0, 57, 100
1, 23127, Note_off_c, 0, 57, 100
1, 23127, Note_on_c, 0, 63, 100
1, 23192, Note_off_c, 0, 63, 100
1, 23192, Note_on_c, 0, 67, 100
1, 23244, Note_off_c, 0, 67, 100
1, 23244, Note_on_c, 0, 62, 100
1, 23261, Note_off_c, 0, 62, 100
1, 23261, Note_on_c, 0, 60, 100
1, 23278, Note_off_c, 0, 60, 100
1, 23278, Note_on_c, 0, 63, 100
1, 23295, Note_off_c, 0, 63, 100
1, 23295, Note_on_c, 0, 65, 100
1, 23329, Note_off_c, 0, 65, 100
1, 23329, Note_on_c, 0, 67, 100
1, 23346, Note_off_c, 0, 67, 100
1, 23346, Note_on_c, 0, 69, 100
1, 23387, Note_off_c, 0, 69, 100
1, 23387, Note_on_c, 0, 73, 100
1, 23483, Note_off_c, 0, 73, 100
1, 23483, Note_on_c, 0, 69, 100
1, 23507, Note_off_c, 0, 69, 100
1, 23507, Note_on_c, 0, 65, 100
1, 23531, Note_off_c, 0, 65, 100
1, 23531, Note_on_c, 0, 63, 100
1, 23555, Note_off_c, 0, 63, 100
1, 23555, Note_on_c, 0, 72, 100
1, 23651, Note_off_c, 0, 72, 100
1, 23939, Note_on_c, 0, 73, 100
1, 23960, Note_off_c, 0, 73, 100
1, 23960, Note_on_c, 0, 72, 100
1, 23981, Note_off_c, 0, 72, 100
1, 23981, Note_on_c, 0, 70, 100
1, 24002, Note_off_c, 0, 70, 100
1, 24002, Note_on_c, 0, 66, 100
1, 24023, Note_off_c, 0, 66, 100
1, 24023, Note_on_c, 0, 63, 100
1, 24044, Note_off_c, 0, 63, 100
1, 24044, Note_on_c, 0, 58, 100
1, 24065, Note_off_c, 0, 58, 100
1, 24065, Note_on_c, 0, 61, 100
1, 24086, Note_off_c, 0, 61, 100
1, 24086, Note_on_c, 0, 58, 100
1, 24107, Note_off_c, 0, 58, 100
1, 24107, Note_on_c, 0, 60, 100
1, 24128, Note_off_c, 0, 60, 100
1, 24128, Note_on_c, 0, 65, 100
1, 24272, Note_off_c, 0, 65, 100
1, 24272, Note_on_c, 0, 61, 100
1, 24296, Note_off_c, 0, 61, 100
1, 24296, Note_on_c, 0, 58, 100
1, 24320, Note_off_c, 0, 58, 100
1, 24320, Note_on_c, 0, 54, 100
1, 24352, Note_off_c, 0, 54, 100
1, 24352, Note_on_c, 0, 64, 100
1, 24384, Note_off_c, 0, 64, 100
1, 24384, Note_on_c, 0, 60, 100
1, 24416, Note_off_c, 0, 60, 100
1, 24416, Note_on_c, 0, 57, 100
1, 24448, Note_off_c, 0, 57, 100
1, 24448, Note_on_c, 0, 54, 100
1, 24480, Note_off_c, 0, 54, 100
1, 24480, Note_on_c, 0, 63, 100
1, 24704, Note_off_c, 0, 63, 100
1, 24704, Note_on_c, 0, 63, 100
1, 24725, Note_off_c, 0, 63, 100
1, 24725, Note_on_c, 0, 65, 100
1, 24746, Note_off_c, 0, 65, 100
1, 24746, Note_on_c, 0, 66, 100
1, 24767, Note_off_c, 0, 66, 100
1, 24767, Note_on_c, 0, 70, 100
1, 24788, Note_off_c, 0, 70, 100
1, 24788, Note_on_c, 0, 73, 100
1, 24809, Note_off_c, 0, 73, 100
1, 24809, Note_on_c, 0, 70, 100
1, 24830, Note_off_c, 0, 70, 100
1, 24830, Note_on_c, 0, 68, 100
1, 24851, Note_off_c, 0, 68, 100
1, 24851, Note_on_c, 0, 66, 100
1, 24893, Note_off_c, 0, 66, 100
1, 24893, Note_on_c, 0, 70, 100
1, 24914, Note_off_c, 0, 70, 100
1, 24914, Note_on_c, 0, 74, 100
1, 24935, Note_off_c, 0, 74, 100
1, 24935, Note_on_c, 0, 77, 100
1, 24956, Note_off_c, 0, 77, 100
1, 24956, Note_on_c, 0, 72, 100
1, 24977, Note_off_c, 0, 72, 100
1, 24977, Note_on_c, 0, 75, 100
1, 24998, Note_off_c, 0, 75, 100
1, 24998, Note_on_c, 0, 76, 100
1, 25019, Note_off_c, 0, 76, 100
1, 25019, Note_on_c, 0, 70, 100
1, 25061, Note_off_c, 0, 70, 100
1, 25061, Note_on_c, 0, 69, 100
1, 25082, Note_off_c, 0, 69, 100
1, 25082, Note_on_c, 0, 68, 100
1, 25103, Note_off_c, 0, 68, 100
1, 25103, Note_on_c, 0, 67, 100
1, 25124, Note_off_c, 0, 67, 100
1, 25124, Note_on_c, 0, 66, 100
1, 25187, Note_off_c, 0, 66, 100
1, 25187, Note_on_c, 0, 65, 100
1, 25208, Note_off_c, 0, 65, 100
1, 25208, Note_on_c, 0, 63, 100
1, 25229, Note_off_c, 0, 63, 100
1, 25229, Note_on_c, 0, 58, 100
1, 25271, Note_off_c, 0, 58, 100
1, 25271, Note_on_c, 0, 61, 100
1, 25298, Note_off_c, 0, 61, 100
1, 25298, Note_on_c, 0, 60, 100
1, 25325, Note_off_c, 0, 60, 100
1, 25325, Note_on_c, 0, 58, 100
1, 25352, Note_off_c, 0, 58, 100
1, 25352, Note_on_c, 0, 57, 100
1, 25379, Note_off_c, 0, 57, 100
1, 25379, Note_on_c, 0, 55, 100
1, 25406, Note_off_c, 0, 55, 100
1, 25406, Note_on_c, 0, 56, 100
1, 25433, Note_off_c, 0, 56, 100
1, 25433, Note_on_c, 0, 53, 100
1, 25460, Note_off_c, 0, 53, 100
1, 25460, Note_on_c, 0, 54, 100
1, 25484, Note_off_c, 0, 54, 100
1, 25484, Note_on_c, 0, 58, 100
1, 25508, Note_off_c, 0, 58, 100
1, 25508, Note_on_c, 0, 61, 100
1, 25532, Note_off_c, 0, 61, 100
1, 25532, Note_on_c, 0, 65, 100
1, 25716, Note_off_c, 0, 65, 100
1, 25716, Note_on_c, 0, 63, 100
1, 25868, Note_off_c, 0, 63, 100
1, 25868, Note_on_c, 0, 68, 100
1, 25916, Note_off_c, 0, 68, 100
1, 25916, Note_on_c, 0, 70, 100
1, 25940, Note_off_c, 0, 70, 100
1, 25940, Note_on_c, 0, 68, 100
1, 25964, Note_off_c, 0, 68, 100
1, 25964, Note_on_c, 0, 66, 100
1, 25988, Note_off_c, 0, 66, 100
1, 25988, Note_on_c, 0, 61, 100
1, 26012, Note_off_c, 0, 61, 100
1, 26012, Note_on_c, 0, 58, 100
1, 26036, Note_off_c, 0, 58, 100
1, 26036, Note_on_c, 0, 54, 100
1, 26084, Note_off_c, 0, 54, 100
1, 26084, Note_on_c, 0, 64, 100
1, 26228, Note_off_c, 0, 64, 100
1, 26228, Note_on_c, 0, 60, 100
1, 26276, Note_off_c, 0, 60, 100
1, 26276, Note_on_c, 0, 56, 100
1, 26324, Note_off_c, 0, 56, 100
1, 26324, Note_on_c, 0, 54, 100
1, 26372, Note_off_c, 0, 54, 100
1, 26372, Note_on_c, 0, 53, 100
1, 26444, Note_off_c, 0, 53, 100
1, 26444, Note_on_c, 0, 56, 100
1, 26468, Note_off_c, 0, 56, 100
1, 26468, Note_on_c, 0, 60, 100
1, 26492, Note_off_c, 0, 60, 100
1, 26492, Note_on_c, 0, 63, 100
1, 26516, Note_off_c, 0, 63, 100
1, 26516, Note_on_c, 0, 61, 100
1, 26540, Note_off_c, 0, 61, 100
1, 26540, Note_on_c, 0, 60, 100
1, 26564, Note_off_c, 0, 60, 100
1, 26564, Note_on_c, 0, 56, 100
1, 26612, Note_off_c, 0, 56, 100
1, 26612, Note_on_c, 0, 58, 100
1, 27358, Note_off_c, 0, 58, 100
1, 27358, End_track
0, 0, End_of_file
