0, 0, Header, 1, 1, 192
1, 0, Start_track
1, 0, Title_t, "Melody"
1, 0, Tempo, 247933
1, 0, Key_signature, -2, "minor"
1, 0, Time_signature, 4, 2, 24, 8
1, 0, Note_on_c, 0, 65, 100
1, 192, Note_off_c, 0, 65, 100
1, 192, Note_on_c, 0, 69, 100
1, 288, Note_off_c, 0, 69, 100
1, 288, Note_on_c, 0, 67, 100
1, 384, Note_off_c, 0, 67, 100
1, 384, Note_on_c, 0, 65, 100
1, 480, Note_off_c, 0, 65, 100
1, 480, Note_on_c, 0, 62, 100
1, 576, Note_off_c, 0, 62, 100
1, 576, Note_on_c, 0, 60, 100
1, 672, Note_off_c, 0, 60, 100
1, 672, Note_on_c, 0, 58, 100
1, 720, Note_off_c, 0, 58, 100
1, 720, Note_on_c, 0, 60, 100
1, 864, Note_off_c, 0, 60, 100
1, 864, Note_on_c, 0, 58, 100
1, 1152, Note_off_c, 0, 58, 100
1, 1536, Note_on_c, 0, 65, 100
1, 1728, Note_off_c, 0, 65, 100
1, 1728, Note_on_c, 0, 68, 100
1, 1824, Note_off_c, 0, 68, 100
1, 1824, Note_on_c, 0, 67, 100
1, 1920, Note_off_c, 0, 67, 100
1, 1920, Note_on_c, 0, 65, 100
1, 2016, Note_off_c, 0, 65, 100
1, 2016, Note_on_c, 0, 62, 100
1, 2112, Note_off_c, 0, 62, 100
1, 2112, Note_on_c, 0, 58, 100
1, 2240, Note_off_c, 0, 58, 100
1, 2240, Note_on_c, 0, 55, 100
1, 2304, Note_off_c, 0, 55, 100
1, 2304, Note_on_c, 0, 64, 100
1, 2400, Note_off_c, 0, 64, 100
1, 2400, Note_on_c, 0, 65, 100
1, 2688, Note_off_c, 0, 65, 100
1, 2688, Note_on_c, 0, 63, 100
1, 2816, Note_off_c, 0, 63, 100
1, 2816, Note_on_c, 0, 65, 100
1, 2880, Note_off_c, 0, 65, 100
1, 2880, Note_on_c, 0, 63, 100
1, 2976, Note_off_c, 0, 63, 100
1, 2976, Note_on_c, 0, 61, 100
1, 3072, Note_off_c, 0, 61, 100
1, 3072, Note_on_c, 0, 58, 100
1, 3168, Note_off_c, 0, 58, 100
1, 3168, Note_on_c, 0, 58, 100
1, 3456, Note_off_c, 0, 58, 100
1, 3744, Note_on_c, 0, 70, 100
1, 3840, Note_off_c, 0, 70, 100
1, 4032, Note_on_c, 0, 69, 100
1, 4128, Note_off_c, 0, 69, 100
1, 4128, Note_on_c, 0, 67, 100
1, 4224, Note_off_c, 0, 67, 100
1, 4224, Note_on_c, 0, 65, 100
1, 4320, Note_off_c, 0, 65, 100
1, 4320, Note_on_c, 0, 63, 100
1, 4416, Note_off_c, 0, 63, 100
1, 4416, Note_on_c, 0, 62, 100
1, 4512, Note_off_c, 0, 62, 100
1, 4512, Note_on_c, 0, 60, 100
1, 4608, Note_off_c, 0, 60, 100
1, 4608, Note_on_c, 0, 59, 100
1, 4704, Note_off_c, 0, 59, 100
1, 4704, Note_on_c, 0, 55, 100
1, 4752, Note_off_c, 0, 55, 100
1, 4752, Note_on_c, 0, 60, 100
1, 4896, Note_off_c, 0, 60, 100
1, 4896, Note_on_c, 0, 61, 100
1, 4992, Note_off_c, 0, 61, 100
1, 4992, Note_on_c, 0, 62, 100
1, 5120, Note_off_c, 0, 62, 100
1, 5120, Note_on_c, 0, 65, 100
1, 5280, Note_off_c, 0, 65, 100
1, 5280, Note_on_c, 0, 65, 100
1, 5568, Note_off_c, 0, 65, 100
1, 6144, Note_on_c, 0, 67, 100
1, 6240, Note_off_c, 0, 67, 100
1, 6240, Note_on_c, 0, 65, 100
1, 6336, Note_off_c, 0, 65, 100
1, 6336, Note_on_c, 0, 62, 100
1, 6432, Note_off_c, 0, 62, 100
1, 6432, Note_on_c, 0, 60, 100
1, 6528, Note_off_c, 0, 60, 100
1, 6528, Note_on_c, 0, 58, 100
1, 6624, Note_off_c, 0, 58, 100
1, 6624, Note_on_c, 0, 53, 100
1, 6816, Note_off_c, 0, 53, 100
1, 6816, Note_on_c, 0, 50, 100
1, 6912, Note_off_c, 0, 50, 100
1, 6912, Note_on_c, 0, 53, 100
1, 7008, Note_off_c, 0, 53, 100
1, 7008, Note_on_c, 0, 58, 100
1, 7296, Note_off_c, 0, 58, 100
1, 8448, Note_on_c, 0, 69, 100
1, 8544, Note_off_c, 0, 69, 100
1, 8544, Note_on_c, 0, 67, 100
1, 8640, Note_off_c, 0, 67, 100
1, 8640, Note_on_c, 0, 65, 100
1, 8688, Note_off_c, 0, 65, 100
1, 8688, Note_on_c, 0, 62, 100
1, 8784, Note_off_c, 0, 62, 100
1, 8784, Note_on_c, 0, 60, 100
1, 8928, Note_off_c, 0, 60, 100
1, 8928, Note_on_c, 0, 58, 100
1, 9120, Note_off_c, 0, 58, 100
1, 9120, Note_on_c, 0, 60, 100
1, 9408, Note_off_c, 0, 60, 100
1, 9408, Note_on_c, 0, 58, 100
1, 9600, Note_off_c, 0, 58, 100
1, 9600, Note_on_c, 0, 60, 100
1, 9696, Note_off_c, 0, 60, 100
1, 9696, Note_on_c, 0, 61, 100
1, 9792, Note_off_c, 0, 61, 100
1, 9792, Note_on_c, 0, 62, 100
1, 9888, Note_off_c, 0, 62, 100
1, 9888, Note_on_c, 0, 60, 100
1, 10080, Note_off_c, 0, 60, 100
1, 10560, Note_on_c, 0, 58, 100
1, 10656, Note_off_c, 0, 58, 100
1, 10656, Note_on_c, 0, 60, 100
1, 10752, Note_off_c, 0, 60, 100
1, 10752, Note_on_c, 0, 63, 100
1, 10848, Note_off_c, 0, 63, 100
1, 10848, Note_on_c, 0, 67, 100
1, 10944, Note_off_c, 0, 67, 100
1, 10944, Note_on_c, 0, 66, 100
1, 11040, Note_off_c, 0, 66, 100
1, 11040, Note_on_c, 0, 64, 100
1, 11136, Note_off_c, 0, 64, 100
1, 11136, Note_on_c, 0, 65, 100
1, 11232, Note_off_c, 0, 65, 100
1, 11232, Note_on_c, 0, 62, 100
1, 11328, Note_off_c, 0, 62, 100
1, 11328, Note_on_c, 0, 58, 100
1, 11424, Note_off_c, 0, 58, 100
1, 11424, Note_on_c, 0, 56, 100
1, 11520, Note_off_c, 0, 56, 100
1, 11520, Note_on_c, 0, 55, 100
1, 11648, Note_off_c, 0, 55, 100
1, 11648, Note_on_c, 0, 56, 100
1, 11712, Note_off_c, 0, 56, 100
1, 11712, Note_on_c, 0, 58, 100
1, 11808, Note_off_c, 0, 58, 100
1, 11808, Note_on_c, 0, 60, 100
1, 11904, Note_off_c, 0, 60, 100
1, 11904, Note_on_c, 0, 61, 100
1, 12000, Note_off_c, 0, 61, 100
1, 12000, Note_on_c, 0, 63, 100
1, 12192, Note_off_c, 0, 63, 100
1, 12192, Note_on_c, 0, 67, 100
1, 12288, Note_off_c, 0, 67, 100
1, 12288, Note_on_c, 0, 72, 100
1, 12432, Note_off_c, 0, 72, 100
1, 12432, Note_on_c, 0, 74, 100
1, 12480, Note_off_c, 0, 74, 100
1, 12480, Note_on_c, 0, 75, 100
1, 12624, Note_off_c, 0, 75, 100
1, 12624, Note_on_c, 0, 72, 100
1, 12672, Note_off_c, 0, 72, 100
1, 12672, Note_on_c, 0, 73, 100
1, 12816, Note_off_c, 0, 73, 100
1, 12816, Note_on_c, 0, 70, 100
1, 12912, Note_off_c, 0, 70, 100
1, 13392, Note_on_c, 0, 74, 100
1, 13584, Note_off_c, 0, 74, 100
1, 13584, Note_on_c, 0, 69, 100
1, 13728, Note_off_c, 0, 69, 100
1, 13728, Note_on_c, 0, 72, 100
1, 13824, Note_off_c, 0, 72, 100
1, 13824, Note_on_c, 0, 70, 100
1, 13952, Note_off_c, 0, 70, 100
1, 13952, Note_on_c, 0, 65, 100
1, 14016, Note_off_c, 0, 65, 100
1, 14016, Note_on_c, 0, 64, 100
1, 14112, Note_off_c, 0, 64, 100
1, 14112, Note_on_c, 0, 63, 100
1, 14208, Note_off_c, 0, 63, 100
1, 14208, Note_on_c, 0, 62, 100
1, 14304, Note_off_c, 0, 62, 100
1, 14304, Note_on_c, 0, 60, 100
1, 14400, Note_off_c, 0, 60, 100
1, 14400, Note_on_c, 0, 59, 100
1, 14496, Note_off_c, 0, 59, 100
1, 14496, Note_on_c, 0, 56, 100
1, 14592, Note_off_c, 0, 56, 100
1, 14592, Note_on_c, 0, 55, 100
1, 14688, Note_off_c, 0, 55, 100
1, 14688, Note_on_c, 0, 58, 100
1, 14784, Note_off_c, 0, 58, 100
1, 14784, Note_on_c, 0, 60, 100
1, 14880, Note_off_c, 0, 60, 100
1, 14880, Note_on_c, 0, 63, 100
1, 14976, Note_off_c, 0, 63, 100
1, 14976, Note_on_c, 0, 67, 100
1, 15072, Note_off_c, 0, 67, 100
1, 15072, Note_on_c, 0, 70, 100
1, 15264, Note_off_c, 0, 70, 100
1, 15264, Note_on_c, 0, 70, 100
1, 15456, Note_off_c, 0, 70, 100
1, 16128, Note_on_c, 0, 69, 100
1, 16224, Note_off_c, 0, 69, 100
1, 16224, Note_on_c, 0, 67, 100
1, 16320, Note_off_c, 0, 67, 100
1, 16320, Note_on_c, 0, 65, 100
1, 16416, Note_off_c, 0, 65, 100
1, 16416, Note_on_c, 0, 62, 100
1, 16512, Note_off_c, 0, 62, 100
1, 16512, Note_on_c, 0, 60, 100
1, 16608, Note_off_c, 0, 60, 100
1, 16608, Note_on_c, 0, 58, 100
1, 16800, Note_off_c, 0, 58, 100
1, 16800, Note_on_c, 0, 55, 100
1, 16992, Note_off_c, 0, 55, 100
1, 17280, Note_on_c, 0, 66, 100
1, 17376, Note_off_c, 0, 66, 100
1, 17376, Note_on_c, 0, 67, 100
1, 17952, Note_off_c, 0, 67, 100
1, 17952, Note_on_c, 0, 65, 100
1, 18000, Note_off_c, 0, 65, 100
1, 18000, Note_on_c, 0, 67, 100
1, 18336, Note_off_c, 0, 67, 100
1, 18336, Note_on_c, 0, 65, 100
1, 18432, Note_off_c, 0, 65, 100
1, 18432, Note_on_c, 0, 68, 100
1, 18560, Note_off_c, 0, 68, 100
1, 18560, Note_on_c, 0, 65, 100
1, 18624, Note_off_c, 0, 65, 100
1, 18624, Note_on_c, 0, 67, 100
1, 18912, Note_off_c, 0, 67, 100
1, 19296, Note_on_c, 0, 64, 100
1, 19392, Note_off_c, 0, 64, 100
1, 19392, Note_on_c, 0, 67, 100
1, 19488, Note_off_c, 0, 67, 100
1, 19488, Note_on_c, 0, 64, 100
1, 19584, Note_off_c, 0, 64, 100
1, 19584, Note_on_c, 0, 65, 100
1, 19680, Note_off_c, 0, 65, 100
1, 19680, Note_on_c, 0, 67, 100
1, 19776, Note_off_c, 0, 67, 100
1, 19776, Note_on_c, 0, 68, 100
1, 19872, Note_off_c, 0, 68, 100
1, 19872, Note_on_c, 0, 70, 100
1, 19968, Note_off_c, 0, 70, 100
1, 19968, Note_on_c, 0, 72, 100
1, 20096, Note_off_c, 0, 72, 100
1, 20096, Note_on_c, 0, 68, 100
1, 20160, Note_off_c, 0, 68, 100
1, 20160, Note_on_c, 0, 71, 100
1, 20448, Note_off_c, 0, 71, 100
1, 20832, Note_on_c, 0, 67, 100
1, 20928, Note_off_c, 0, 67, 100
1, 20928, Note_on_c, 0, 70, 100
1, 21024, Note_off_c, 0, 70, 100
1, 21024, Note_on_c, 0, 68, 100
1, 21120, Note_off_c, 0, 68, 100
1, 21120, Note_on_c, 0, 67, 100
1, 21216, Note_off_c, 0, 67, 100
1, 21216, Note_on_c, 0, 65, 100
1, 21312, Note_off_c, 0, 65, 100
1, 21312, Note_on_c, 0, 63, 100
1, 21408, Note_off_c, 0, 63, 100
1, 21408, Note_on_c, 0, 62, 100
1, 21504, Note_off_c, 0, 62, 100
1, 21504, Note_on_c, 0, 61, 100
1, 21600, Note_off_c, 0, 61, 100
1, 21600, Note_on_c, 0, 63, 100
1, 21696, Note_off_c, 0, 63, 100
1, 21696, Note_on_c, 0, 64, 100
1, 21792, Note_off_c, 0, 64, 100
1, 21792, Note_on_c, 0, 66, 100
1, 21888, Note_off_c, 0, 66, 100
1, 21888, Note_on_c, 0, 67, 100
1, 21984, Note_off_c, 0, 67, 100
1, 21984, Note_on_c, 0, 69, 100
1, 22080, Note_off_c, 0, 69, 100
1, 22080, Note_on_c, 0, 70, 100
1, 22176, Note_off_c, 0, 70, 100
1, 22176, Note_on_c, 0, 72, 100
1, 22272, Note_off_c, 0, 72, 100
1, 22272, Note_on_c, 0, 73, 100
1, 22368, Note_off_c, 0, 73, 100
1, 22368, Note_on_c, 0, 69, 100
1, 22464, Note_off_c, 0, 69, 100
1, 22464, Note_on_c, 0, 70, 100
1, 22592, Note_off_c, 0, 70, 100
1, 22592, Note_on_c, 0, 64, 100
1, 22656, Note_off_c, 0, 64, 100
1, 22656, Note_on_c, 0, 67, 100
1, 22752, Note_off_c, 0, 67, 100
1, 22752, Note_on_c, 0, 63, 100
1, 22848, Note_off_c, 0, 63, 100
1, 22848, Note_on_c, 0, 64, 100
1, 22944, Note_off_c, 0, 64, 100
1, 22944, Note_on_c, 0, 60, 100
1, 23040, Note_off_c, 0, 60, 100
1, 23040, Note_on_c, 0, 61, 100
1, 23136, Note_off_c, 0, 61, 100
1, 23136, Note_on_c, 0, 57, 100
1, 23232, Note_off_c, 0, 57, 100
1, 23232, Note_on_c, 0, 58, 100
1, 23360, Note_off_c, 0, 58, 100
1, 23360, Note_on_c, 0, 54, 100
1, 23424, Note_off_c, 0, 54, 100
1, 23424, Note_on_c, 0, 55, 100
1, 23552, Note_off_c, 0, 55, 100
1, 23552, Note_on_c, 0, 51, 100
1, 23616, Note_off_c, 0, 51, 100
1, 23616, Note_on_c, 0, 52, 100
1, 23664, Note_off_c, 0, 52, 100
1, 23664, Note_on_c, 0, 54, 100
1, 23760, Note_off_c, 0, 54, 100
1, 23760, Note_on_c, 0, 55, 100
1, 23904, Note_off_c, 0, 55, 100
1, 23904, Note_on_c, 0, 57, 100
1, 24000, Note_off_c, 0, 57, 100
1, 24000, Note_on_c, 0, 58, 100
1, 24096, Note_off_c, 0, 58, 100
1, 24096, Note_on_c, 0, 60, 100
1, 24192, Note_off_c, 0, 60, 100
1, 24192, Note_on_c, 0, 61, 100
1, 24288, Note_off_c, 0, 61, 100
1, 24288, Note_on_c, 0, 63, 100
1, 24384, Note_off_c, 0, 63, 100
1, 24384, Note_on_c, 0, 64, 100
1, 24480, Note_off_c, 0, 64, 100
1, 24480, Note_on_c, 0, 66, 100
1, 24576, Note_off_c, 0, 66, 100
1, 24576, Note_on_c, 0, 67, 100
1, 24672, Note_off_c, 0, 67, 100
1, 25248, Note_on_c, 0, 79, 100
1, 25296, Note_off_c, 0, 79, 100
1, 25296, Note_on_c, 0, 83, 100
1, 25440, Note_off_c, 0, 83, 100
1, 25440, Note_on_c, 0, 73, 100
1, 25680, Note_off_c, 0, 73, 100
1, 25680, Note_on_c, 0, 70, 100
1, 25968, Note_off_c, 0, 70, 100
1, 26880, Note_on_c, 0, 79, 100
1, 27072, Note_off_c, 0, 79, 100
1, 27072, Note_on_c, 0, 73, 100
1, 27264, Note_off_c, 0, 73, 100
1, 27264, Note_on_c, 0, 70, 100
1, 27408, Note_off_c, 0, 70, 100
1, 27408, Note_on_c, 0, 67, 100
1, 27648, Note_off_c, 0, 67, 100
1, 27648, Note_on_c, 0, 70, 100
1, 27936, Note_off_c, 0, 70, 100
1, 27936, Note_on_c, 0, 72, 100
1, 28032, Note_off_c, 0, 72, 100
1, 28512, Note_on_c, 0, 79, 100
1, 28608, Note_off_c, 0, 79, 100
1, 28800, Note_on_c, 0, 73, 100
1, 29184, Note_off_c, 0, 73, 100
1, 29184, Note_on_c, 0, 70, 100
1, 29376, Note_off_c, 0, 70, 100
1, 29376, Note_on_c, 0, 68, 100
1, 29472, Note_off_c, 0, 68, 100
1, 29472, Note_on_c, 0, 67, 100
1, 29568, Note_off_c, 0, 67, 100
1, 29568, Note_on_c, 0, 66, 100
1, 29616, Note_off_c, 0, 66, 100
1, 29616, Note_on_c, 0, 62, 100
1, 29712, Note_off_c, 0, 62, 100
1, 29712, Note_on_c, 0, 57, 100
1, 29856, Note_off_c, 0, 57, 100
1, 29856, Note_on_c, 0, 56, 100
1, 29952, Note_off_c, 0, 56, 100
1, 29952, Note_on_c, 0, 55, 100
1, 30048, Note_off_c, 0, 55, 100
1, 30048, Note_on_c, 0, 56, 100
1, 30144, Note_off_c, 0, 56, 100
1, 30144, Note_on_c, 0, 58, 100
1, 30240, Note_off_c, 0, 58, 100
1, 30240, Note_on_c, 0, 60, 100
1, 30336, Note_off_c, 0, 60, 100
1, 30336, Note_on_c, 0, 61, 100
1, 30432, Note_off_c, 0, 61, 100
1, 30432, Note_on_c, 0, 63, 100
1, 30672, Note_off_c, 0, 63, 100
1, 30672, Note_on_c, 0, 72, 100
1, 31104, Note_off_c, 0, 72, 100
1, 31104, Note_on_c, 0, 70, 100
1, 31200, Note_off_c, 0, 70, 100
1, 31200, Note_on_c, 0, 65, 100
1, 31296, Note_off_c, 0, 65, 100
1, 31296, Note_on_c, 0, 61, 100
1, 31392, Note_off_c, 0, 61, 100
1, 31392, Note_on_c, 0, 62, 100
1, 31488, Note_off_c, 0, 62, 100
1, 31488, Note_on_c, 0, 65, 100
1, 31584, Note_off_c, 0, 65, 100
1, 31584, Note_on_c, 0, 70, 100
1, 31776, Note_off_c, 0, 70, 100
1, 31776, Note_on_c, 0, 69, 100
1, 32064, Note_off_c, 0, 69, 100
1, 33408, Note_on_c, 0, 65, 100
1, 33600, Note_off_c, 0, 65, 100
1, 33600, Note_on_c, 0, 70, 100
1, 33696, Note_off_c, 0, 70, 100
1, 33696, Note_on_c, 0, 72, 100
1, 33792, Note_off_c, 0, 72, 100
1, 33792, Note_on_c, 0, 70, 100
1, 33840, Note_off_c, 0, 70, 100
1, 33840, Note_on_c, 0, 67, 100
1, 33936, Note_off_c, 0, 67, 100
1, 33936, Note_on_c, 0, 65, 100
1, 34032, Note_off_c, 0, 65, 100
1, 34032, Note_on_c, 0, 61, 100
1, 34128, Note_off_c, 0, 61, 100
1, 34128, Note_on_c, 0, 62, 100
1, 34272, Note_off_c, 0, 62, 100
1, 34272, Note_on_c, 0, 63, 100
1, 34368, Note_off_c, 0, 63, 100
1, 34368, Note_on_c, 0, 61, 100
1, 34416, Note_off_c, 0, 61, 100
1, 34416, Note_on_c, 0, 62, 100
1, 34512, Note_off_c, 0, 62, 100
1, 34512, Note_on_c, 0, 58, 100
1, 34656, Note_off_c, 0, 58, 100
1, 34656, Note_on_c, 0, 53, 100
1, 34752, Note_off_c, 0, 53, 100
1, 34752, Note_on_c, 0, 50, 100
1, 34848, Note_off_c, 0, 50, 100
1, 34848, Note_on_c, 0, 51, 100
1, 34944, Note_off_c, 0, 51, 100
1, 34944, Note_on_c, 0, 53, 100
1, 35040, Note_off_c, 0, 53, 100
1, 35040, Note_on_c, 0, 49, 100
1, 35136, Note_off_c, 0, 49, 100
1, 35136, Note_on_c, 0, 50, 100
1, 35232, Note_off_c, 0, 50, 100
1, 35232, Note_on_c, 0, 53, 100
1, 35328, Note_off_c, 0, 53, 100
1, 35328, Note_on_c, 0, 58, 100
1, 35616, Note_off_c, 0, 58, 100
1, 36048, Note_on_c, 0, 58, 100
1, 36096, Note_off_c, 0, 58, 100
1, 36096, Note_on_c, 0, 64, 100
1, 36160, Note_off_c, 0, 64, 100
1, 36160, Note_on_c, 0, 67, 100
1, 36224, Note_off_c, 0, 67, 100
1, 36224, Note_on_c, 0, 65, 100
1, 36288, Note_off_c, 0, 65, 100
1, 36288, Note_on_c, 0, 64, 100
1, 36672, Note_off_c, 0, 64, 100
1, 36672, Note_on_c, 0, 63, 100
1, 36768, Note_off_c, 0, 63, 100
1, 36768, Note_on_c, 0, 61, 100
1, 36960, Note_off_c, 0, 61, 100
1, 36960, Note_on_c, 0, 58, 100
1, 37056, Note_off_c, 0, 58, 100
1, 37056, Note_on_c, 0, 55, 100
1, 37152, Note_off_c, 0, 55, 100
1, 37152, Note_on_c, 0, 53, 100
1, 37440, Note_off_c, 0, 53, 100
1, 37728, Note_on_c, 0, 53, 100
1, 37872, Note_off_c, 0, 53, 100
1, 37872, Note_on_c, 0, 58, 100
1, 37968, Note_off_c, 0, 58, 100
1, 37968, Note_on_c, 0, 62, 100
1, 38016, Note_off_c, 0, 62, 100
1, 38016, Note_on_c, 0, 57, 100
1, 38112, Note_off_c, 0, 57, 100
1, 38112, Note_on_c, 0, 60, 100
1, 38208, Note_off_c, 0, 60, 100
1, 38208, Note_on_c, 0, 63, 100
1, 38304, Note_off_c, 0, 63, 100
1, 38304, Note_on_c, 0, 67, 100
1, 38400, Note_off_c, 0, 67, 100
1, 38400, Note_on_c, 0, 65, 100
1, 38496, Note_off_c, 0, 65, 100
1, 38496, Note_on_c, 0, 62, 100
1, 38592, Note_off_c, 0, 62, 100
1, 38592, Note_on_c, 0, 58, 100
1, 38688, Note_off_c, 0, 58, 100
1, 38688, Note_on_c, 0, 57, 100
1, 38784, Note_off_c, 0, 57, 100
1, 38784, Note_on_c, 0, 56, 100
1, 39072, Note_off_c, 0, 56, 100
1, 39072, Note_on_c, 0, 60, 100
1, 39168, Note_off_c, 0, 60, 100
1, 39168, Note_on_c, 0, 63, 100
1, 39200, Note_off_c, 0, 63, 100
1, 39200, Note_on_c, 0, 65, 100
1, 39264, Note_off_c, 0, 65, 100
1, 39264, Note_on_c, 0, 67, 100
1, 39296, Note_off_c, 0, 67, 100
1, 39296, Note_on_c, 0, 65, 100
1, 39360, Note_off_c, 0, 65, 100
1, 39360, Note_on_c, 0, 64, 100
1, 39744, Note_off_c, 0, 64, 100
1, 39744, Note_on_c, 0, 63, 100
1, 39840, Note_off_c, 0, 63, 100
1, 39840, Note_on_c, 0, 61, 100
1, 40032, Note_off_c, 0, 61, 100
1, 40032, Note_on_c, 0, 58, 100
1, 40128, Note_off_c, 0, 58, 100
1, 40128, Note_on_c, 0, 55, 100
1, 40272, Note_off_c, 0, 55, 100
1, 40272, Note_on_c, 0, 50, 100
1, 40320, Note_off_c, 0, 50, 100
1, 40320, Note_on_c, 0, 53, 100
1, 40416, Note_off_c, 0, 53, 100
1, 40416, Note_on_c, 0, 55, 100
1, 40608, Note_off_c, 0, 55, 100
1, 40992, Note_on_c, 0, 53, 100
1, 41088, Note_off_c, 0, 53, 100
1, 41088, Note_on_c, 0, 58, 100
1, 41184, Note_off_c, 0, 58, 100
1, 41184, Note_on_c, 0, 62, 100
1, 41280, Note_off_c, 0, 62, 100
1, 41280, Note_on_c, 0, 57, 100
1, 41376, Note_off_c, 0, 57, 100
1, 41376, Note_on_c, 0, 60, 100
1, 41472, Note_off_c, 0, 60, 100
1, 41472, Note_on_c, 0, 63, 100
1, 41568, Note_off_c, 0, 63, 100
1, 41568, Note_on_c, 0, 67, 100
1, 41616, Note_off_c, 0, 67, 100
1, 41616, Note_on_c, 0, 65, 100
1, 41760, Note_off_c, 0, 65, 100
1, 41760, Note_on_c, 0, 67, 100
1, 41808, Note_off_c, 0, 67, 100
1, 41808, Note_on_c, 0, 70, 100
1, 41952, Note_off_c, 0, 70, 100
1, 41952, Note_on_c, 0, 74, 100
1, 42048, Note_off_c, 0, 74, 100
1, 42048, Note_on_c, 0, 72, 100
1, 42240, Note_off_c, 0, 72, 100
1, 42240, Note_on_c, 0, 73, 100
1, 42336, Note_off_c, 0, 73, 100
1, 42336, Note_on_c, 0, 73, 100
1, 42432, Note_off_c, 0, 73, 100
1, 42432, Note_on_c, 0, 70, 100
1, 42528, Note_off_c, 0, 70, 100
1, 42528, Note_on_c, 0, 73, 100
1, 42624, Note_off_c, 0, 73, 100
1, 42624, Note_on_c, 0, 68, 100
1, 42720, Note_off_c, 0, 68, 100
1, 42720, Note_on_c, 0, 67, 100
1, 42816, Note_off_c, 0, 67, 100
1, 42816, Note_on_c, 0, 65, 100
1, 42912, Note_off_c, 0, 65, 100
1, 42912, Note_on_c, 0, 58, 100
1, 43008, Note_off_c, 0, 58, 100
1, 43008, Note_on_c, 0, 61, 100
1, 43104, Note_off_c, 0, 61, 100
1, 43104, Note_on_c, 0, 60, 100
1, 43200, Note_off_c, 0, 60, 100
1, 43200, Note_on_c, 0, 58, 100
1, 43296, Note_off_c, 0, 58, 100
1, 43296, Note_on_c, 0, 53, 100
1, 43392, Note_off_c, 0, 53, 100
1, 43392, Note_on_c, 0, 56, 100
1, 43488, Note_off_c, 0, 56, 100
1, 43488, Note_on_c, 0, 55, 100
1, 43584, Note_off_c, 0, 55, 100
1, 43584, Note_on_c, 0, 53, 100
1, 43776, Note_off_c, 0, 53, 100
1, 44928, Note_on_c, 0, 70, 100
1, 45216, Note_off_c, 0, 70, 100
1, 45216, Note_on_c, 0, 58, 100
1, 45312, Note_off_c, 0, 58, 100
1, 45312, Note_on_c, 0, 60, 100
1, 45408, Note_off_c, 0, 60, 100
1, 45408, Note_on_c, 0, 62, 100
1, 45504, Note_off_c, 0, 62, 100
1, 45696, Note_on_c, 0, 65, 100
1, 46080, Note_off_c, 0, 65, 100
1, 46080, Note_on_c, 0, 63, 100
1, 46224, Note_off_c, 0, 63, 100
1, 46224, Note_on_c, 0, 65, 100
1, 46272, Note_off_c, 0, 65, 100
1, 46272, Note_on_c, 0, 67, 100
1, 46368, Note_off_c, 0, 67, 100
1, 46368, Note_on_c, 0, 70, 100
1, 46464, Note_off_c, 0, 70, 100
1, 46464, Note_on_c, 0, 69, 100
1, 46560, Note_off_c, 0, 69, 100
1, 46560, Note_on_c, 0, 74, 100
1, 46752, Note_off_c, 0, 74, 100
1, 46752, Note_on_c, 0, 70, 100
1, 47040, Note_off_c, 0, 70, 100
1, 47616, Note_on_c, 0, 70, 100
1, 47808, Note_off_c, 0, 70, 100
1, 47808, Note_on_c, 0, 68, 100
1, 47872, Note_off_c, 0, 68, 100
1, 47872, Note_on_c, 0, 70, 100
1, 47936, Note_off_c, 0, 70, 100
1, 47936, Note_on_c, 0, 68, 100
1, 48000, Note_off_c, 0, 68, 100
1, 48000, Note_on_c, 0, 67, 100
1, 48064, Note_off_c, 0, 67, 100
1, 48064, Note_on_c, 0, 66, 100
1, 48128, Note_off_c, 0, 66, 100
1, 48128, Note_on_c, 0, 62, 100
1, 48192, Note_off_c, 0, 62, 100
1, 48192, Note_on_c, 0, 57, 100
1, 48288, Note_off_c, 0, 57, 100
1, 48288, Note_on_c, 0, 56, 100
1, 48384, Note_off_c, 0, 56, 100
1, 48384, Note_on_c, 0, 55, 100
1, 48448, Note_off_c, 0, 55, 100
1, 48448, Note_on_c, 0, 56, 100
1, 48512, Note_off_c, 0, 56, 100
1, 48512, Note_on_c, 0, 57, 100
1, 48576, Note_off_c, 0, 57, 100
1, 48576, Note_on_c, 0, 58, 100
1, 48672, Note_off_c, 0, 58, 100
1, 48672, Note_on_c, 0, 60, 100
1, 48768, Note_off_c, 0, 60, 100
1, 48768, Note_on_c, 0, 61, 100
1, 48864, Note_off_c, 0, 61, 100
1, 48864, Note_on_c, 0, 63, 100
1, 48960, Note_off_c, 0, 63, 100
1, 48960, Note_on_c, 0, 65, 100
1, 49056, Note_off_c, 0, 65, 100
1, 49056, Note_on_c, 0, 67, 100
1, 49152, Note_off_c, 0, 67, 100
1, 49152, Note_on_c, 0, 72, 100
1, 49248, Note_off_c, 0, 72, 100
1, 49248, Note_on_c, 0, 73, 100
1, 49296, Note_off_c, 0, 73, 100
1, 49296, Note_on_c, 0, 74, 100
1, 49344, Note_off_c, 0, 74, 100
1, 49344, Note_on_c, 0, 75, 100
1, 49440, Note_off_c, 0, 75, 100
1, 49440, Note_on_c, 0, 72, 100
1, 49536, Note_off_c, 0, 72, 100
1, 49536, Note_on_c, 0, 73, 100
1, 49664, Note_off_c, 0, 73, 100
1, 49664, Note_on_c, 0, 70, 100
1, 49824, Note_off_c, 0, 70, 100
1, 49824, Note_on_c, 0, 74, 100
1, 50112, Note_off_c, 0, 74, 100
1, 50112, Note_on_c, 0, 69, 100
1, 50208, Note_off_c, 0, 69, 100
1, 50208, Note_on_c, 0, 72, 100
1, 50304, Note_off_c, 0, 72, 100
1, 50304, Note_on_c, 0, 70, 100
1, 50432, Note_off_c, 0, 70, 100
1, 50432, Note_on_c, 0, 65, 100
1, 50496, Note_off_c, 0, 65, 100
1, 50496, Note_on_c, 0, 64, 100
1, 50624, Note_off_c, 0, 64, 100
1, 50624, Note_on_c, 0, 63, 100
1, 50688, Note_off_c, 0, 63, 100
1, 50688, Note_on_c, 0, 62, 100
1, 50784, Note_off_c, 0, 62, 100
1, 50784, Note_on_c, 0, 60, 100
1, 50880, Note_off_c, 0, 60, 100
1, 50880, Note_on_c, 0, 57, 100
1, 50976, Note_off_c, 0, 57, 100
1, 50976, Note_on_c, 0, 58, 100
1, 51072, Note_off_c, 0, 58, 100
1, 51072, Note_on_c, 0, 59, 100
1, 51168, Note_off_c, 0, 59, 100
1, 51168, Note_on_c, 0, 55, 100
1, 51264, Note_off_c, 0, 55, 100
1, 51264, Note_on_c, 0, 56, 100
1, 51360, Note_off_c, 0, 56, 100
1, 51360, Note_on_c, 0, 54, 100
1, 51456, Note_off_c, 0, 54, 100
1, 51456, Note_on_c, 0, 55, 100
1, 51552, Note_off_c, 0, 55, 100
1, 51552, Note_on_c, 0, 62, 100
1, 51648, Note_off_c, 0, 62, 100
1, 51648, Note_on_c, 0, 58, 100
1, 51840, Note_off_c, 0, 58, 100
1, 51840, Note_on_c, 0, 62, 100
1, 52128, Note_off_c, 0, 62, 100
1, 52608, Note_on_c, 0, 60, 100
1, 52736, Note_off_c, 0, 60, 100
1, 52736, Note_on_c, 0, 62, 100
1, 52896, Note_off_c, 0, 62, 100
1, 52896, Note_on_c, 0, 58, 100
1, 52992, Note_off_c, 0, 58, 100
1, 52992, Note_on_c, 0, 55, 100
1, 53088, Note_off_c, 0, 55, 100
1, 53088, Note_on_c, 0, 58, 100
1, 53280, Note_off_c, 0, 58, 100
1, 54432, Note_on_c, 0, 53, 100
1, 54624, Note_off_c, 0, 53, 100
1, 54624, Note_on_c, 0, 50, 100
1, 54720, Note_off_c, 0, 50, 100
1, 54720, Note_on_c, 0, 53, 100
1, 54816, Note_off_c, 0, 53, 100
1, 54816, Note_on_c, 0, 50, 100
1, 54912, Note_off_c, 0, 50, 100
1, 54912, Note_on_c, 0, 51, 100
1, 55008, Note_off_c, 0, 51, 100
1, 55008, Note_on_c, 0, 55, 100
1, 55104, Note_off_c, 0, 55, 100
1, 55104, Note_on_c, 0, 58, 100
1, 55200, Note_off_c, 0, 58, 100
1, 55200, Note_on_c, 0, 55, 100
1, 55296, Note_off_c, 0, 55, 100
1, 55296, Note_on_c, 0, 56, 100
1, 55392, Note_off_c, 0, 56, 100
1, 55392, Note_on_c, 0, 60, 100
1, 55440, Note_off_c, 0, 60, 100
1, 55440, Note_on_c, 0, 63, 100
1, 55552, Note_off_c, 0, 63, 100
1, 55552, Note_on_c, 0, 60, 100
1, 55616, Note_off_c, 0, 60, 100
1, 55616, Note_on_c, 0, 61, 100
1, 55776, Note_off_c, 0, 61, 100
1, 55776, Note_on_c, 0, 65, 100
1, 55872, Note_off_c, 0, 65, 100
1, 55872, Note_on_c, 0, 68, 100
1, 55968, Note_off_c, 0, 68, 100
1, 55968, Note_on_c, 0, 65, 100
1, 56016, Note_off_c, 0, 65, 100
1, 56016, Note_on_c, 0, 66, 100
1, 56160, Note_off_c, 0, 66, 100
1, 56160, Note_on_c, 0, 70, 100
1, 56208, Note_off_c, 0, 70, 100
1, 56208, Note_on_c, 0, 73, 100
1, 56352, Note_off_c, 0, 73, 100
1, 56352, Note_on_c, 0, 70, 100
1, 56448, Note_off_c, 0, 70, 100
1, 56448, Note_on_c, 0, 74, 100
1, 56544, Note_off_c, 0, 74, 100
1, 56544, Note_on_c, 0, 75, 100
1, 56640, Note_off_c, 0, 75, 100
1, 56640, Note_on_c, 0, 74, 100
1, 56736, Note_off_c, 0, 74, 100
1, 56736, Note_on_c, 0, 72, 100
1, 56832, Note_off_c, 0, 72, 100
1, 56832, Note_on_c, 0, 70, 100
1, 56928, Note_off_c, 0, 70, 100
1, 56928, Note_on_c, 0, 69, 100
1, 57024, Note_off_c, 0, 69, 100
1, 57024, Note_on_c, 0, 68, 100
1, 57120, Note_off_c, 0, 68, 100
1, 57120, Note_on_c, 0, 67, 100
1, 57216, Note_off_c, 0, 67, 100
1, 57216, Note_on_c, 0, 66, 100
1, 57344, Note_off_c, 0, 66, 100
1, 57344, Note_on_c, 0, 62, 100
1, 57408, Note_off_c, 0, 62, 100
1, 57408, Note_on_c, 0, 57, 100
1, 57504, Note_off_c, 0, 57, 100
1, 57504, Note_on_c, 0, 56, 100
1, 57600, Note_off_c, 0, 56, 100
1, 57600, Note_on_c, 0, 55, 100
1, 57664, Note_off_c, 0, 55, 100
1, 57664, Note_on_c, 0, 56, 100
1, 57728, Note_off_c, 0, 56, 100
1, 57728, Note_on_c, 0, 57, 100
1, 57792, Note_off_c, 0, 57, 100
1, 57792, Note_on_c, 0, 58, 100
1, 57888, Note_off_c, 0, 58, 100
1, 57888, Note_on_c, 0, 60, 100
1, 57984, Note_off_c, 0, 60, 100
1, 57984, Note_on_c, 0, 61, 100
1, 58080, Note_off_c, 0, 61, 100
1, 58080, Note_on_c, 0, 63, 100
1, 58176, Note_off_c, 0, 63, 100
1, 58176, Note_on_c, 0, 65, 100
1, 58272, Note_off_c, 0, 65, 100
1, 58272, Note_on_c, 0, 67, 100
1, 58368, Note_off_c, 0, 67, 100
1, 58368, Note_on_c, 0, 72, 100
1, 58656, Note_off_c, 0, 72, 100
1, 58656, Note_on_c, 0, 70, 100
1, 58752, Note_off_c, 0, 70, 100
1, 59040, Note_on_c, 0, 69, 100
1, 59232, Note_off_c, 0, 69, 100
1, 59232, Note_on_c, 0, 67, 100
1, 59520, Note_off_c, 0, 67, 100
1, 59520, Note_on_c, 0, 65, 100
1, 59616, Note_off_c, 0, 65, 100
1, 59616, Note_on_c, 0, 63, 100
1, 59712, Note_off_c, 0, 63, 100
1, 59712, Note_on_c, 0, 62, 100
1, 59808, Note_off_c, 0, 62, 100
1, 59808, Note_on_c, 0, 60, 100
1, 59904, Note_off_c, 0, 60, 100
1, 59904, Note_on_c, 0, 59, 100
1, 60192, Note_off_c, 0, 59, 100
1, 60192, Note_on_c, 0, 67, 100
1, 60288, Note_off_c, 0, 67, 100
1, 60672, Note_on_c, 0, 70, 100
1, 60768, Note_off_c, 0, 70, 100
1, 60768, Note_on_c, 0, 65, 100
1, 60816, Note_off_c, 0, 65, 100
1, 60816, Note_on_c, 0, 67, 100
1, 60912, Note_off_c, 0, 67, 100
1, 60912, Note_on_c, 0, 70, 100
1, 61008, Note_off_c, 0, 70, 100
1, 61008, Note_on_c, 0, 67, 100
1, 61152, Note_off_c, 0, 67, 100
1, 61152, Note_on_c, 0, 65, 100
1, 61248, Note_off_c, 0, 65, 100
1, 61248, Note_on_c, 0, 62, 100
1, 61344, Note_off_c, 0, 62, 100
1, 61344, Note_on_c, 0, 60, 100
1, 61440, Note_off_c, 0, 60, 100
1, 61440, Note_on_c, 0, 58, 100
1, 61536, Note_off_c, 0, 58, 100
1, 61536, Note_on_c, 0, 53, 100
1, 61728, Note_off_c, 0, 53, 100
1, 61728, Note_on_c, 0, 50, 100
1, 61776, Note_off_c, 0, 50, 100
1, 61776, Note_on_c, 0, 53, 100
1, 61872, Note_off_c, 0, 53, 100
1, 62160, Note_on_c, 0, 58, 100
1, 62304, Note_off_c, 0, 58, 100
1, 62304, Note_on_c, 0, 58, 100
1, 62496, Note_off_c, 0, 58, 100
1, 63456, Note_on_c, 0, 70, 100
1, 63552, Note_off_c, 0, 70, 100
1, 63552, Note_on_c, 0, 70, 100
1, 63648, Note_off_c, 0, 70, 100
1, 63648, Note_on_c, 0, 70, 100
1, 63744, Note_off_c, 0, 70, 100
1, 63744, Note_on_c, 0, 70, 100
1, 64128, Note_off_c, 0, 70, 100
1, 64128, Note_on_c, 0, 67, 100
1, 64224, Note_off_c, 0, 67, 100
1, 64224, Note_on_c, 0, 70, 100
1, 64320, Note_off_c, 0, 70, 100
1, 64992, Note_on_c, 0, 70, 100
1, 65088, Note_off_c, 0, 70, 100
1, 65088, Note_on_c, 0, 70, 100
1, 65184, Note_off_c, 0, 70, 100
1, 65184, Note_on_c, 0, 70, 100
1, 65280, Note_off_c, 0, 70, 100
1, 65280, Note_on_c, 0, 70, 100
1, 65664, Note_off_c, 0, 70, 100
1, 65664, Note_on_c, 0, 74, 100
1, 65808, Note_off_c, 0, 74, 100
1, 65808, Note_on_c, 0, 70, 100
1, 65904, Note_off_c, 0, 70, 100
1, 66720, Note_on_c, 0, 75, 100
1, 66912, Note_off_c, 0, 75, 100
1, 66912, Note_on_c, 0, 70, 100
1, 67104, Note_off_c, 0, 70, 100
1, 67104, Note_on_c, 0, 76, 100
1, 67296, Note_off_c, 0, 76, 100
1, 67296, Note_on_c, 0, 70, 100
1, 67488, Note_off_c, 0, 70, 100
1, 67488, Note_on_c, 0, 77, 100
1, 67680, Note_off_c, 0, 77, 100
1, 67680, Note_on_c, 0, 76, 100
1, 67872, Note_off_c, 0, 76, 100
1, 67872, Note_on_c, 0, 75, 100
1, 68064, Note_off_c, 0, 75, 100
1, 68064, Note_on_c, 0, 73, 100
1, 68160, Note_off_c, 0, 73, 100
1, 68160, Note_on_c, 0, 70, 100
1, 68256, Note_off_c, 0, 70, 100
1, 68256, Note_on_c, 0, 70, 100
1, 68448, Note_off_c, 0, 70, 100
1, 68448, Note_on_c, 0, 65, 100
1, 68640, Note_off_c, 0, 65, 100
1, 68640, Note_on_c, 0, 68, 100
1, 68832, Note_off_c, 0, 68, 100
1, 68832, Note_on_c, 0, 67, 100
1, 69024, Note_off_c, 0, 67, 100
1, 69024, Note_on_c, 0, 65, 100
1, 69216, Note_off_c, 0, 65, 100
1, 69216, Note_on_c, 0, 58, 100
1, 69312, Note_off_c, 0, 58, 100
1, 69312, Note_on_c, 0, 64, 100
1, 69376, Note_off_c, 0, 64, 100
1, 69376, Note_on_c, 0, 66, 100
1, 69440, Note_off_c, 0, 66, 100
1, 69440, Note_on_c, 0, 65, 100
1, 69504, Note_off_c, 0, 65, 100
1, 69504, Note_on_c, 0, 64, 100
1, 69648, Note_off_c, 0, 64, 100
1, 69648, Note_on_c, 0, 61, 100
1, 69696, Note_off_c, 0, 61, 100
1, 69696, Note_on_c, 0, 58, 100
1, 69888, Note_off_c, 0, 58, 100
1, 69888, Note_on_c, 0, 63, 100
1, 70016, Note_off_c, 0, 63, 100
1, 70016, Note_on_c, 0, 65, 100
1, 70080, Note_off_c, 0, 65, 100
1, 70080, Note_on_c, 0, 63, 100
1, 70176, Note_off_c, 0, 63, 100
1, 70176, Note_on_c, 0, 61, 100
1, 70272, Note_off_c, 0, 61, 100
1, 70272, Note_on_c, 0, 58, 100
1, 70368, Note_off_c, 0, 58, 100
1, 70368, Note_on_c, 0, 53, 100
1, 70464, Note_off_c, 0, 53, 100
1, 70464, Note_on_c, 0, 49, 100
1, 70560, Note_off_c, 0, 49, 100
1, 70560, Note_on_c, 0, 50, 100
1, 70656, Note_off_c, 0, 50, 100
1, 70656, Note_on_c, 0, 53, 100
1, 70752, Note_off_c, 0, 53, 100
1, 70752, Note_on_c, 0, 49, 100
1, 70848, Note_off_c, 0, 49, 100
1, 70848, Note_on_c, 0, 50, 100
1, 70944, Note_off_c, 0, 50, 100
1, 70944, Note_on_c, 0, 53, 100
1, 71040, Note_off_c, 0, 53, 100
1, 71040, Note_on_c, 0, 58, 100
1, 71136, Note_off_c, 0, 58, 100
1, 71136, Note_on_c, 0, 60, 100
1, 71280, Note_off_c, 0, 60, 100
1, 71280, Note_on_c, 0, 62, 100
1, 71424, Note_off_c, 0, 62, 100
1, 71424, Note_on_c, 0, 58, 100
1, 71712, Note_off_c, 0, 58, 100
1, 72912, Note_on_c, 0, 71, 100
1, 73200, Note_off_c, 0, 71, 100
1, 73200, Note_on_c, 0, 72, 100
1, 73632, Note_off_c, 0, 72, 100
1, 73632, Note_on_c, 0, 60, 100
1, 73792, Note_off_c, 0, 60, 100
1, 73792, Note_on_c, 0, 72, 100
1, 73968, Note_off_c, 0, 72, 100
1, 73968, Note_on_c, 0, 71, 100
1, 74064, Note_off_c, 0, 71, 100
1, 74064, Note_on_c, 0, 72, 100
1, 74496, Note_off_c, 0, 72, 100
1, 74496, Note_on_c, 0, 70, 100
1, 74688, Note_off_c, 0, 70, 100
1, 74688, Note_on_c, 0, 72, 100
1, 74880, Note_off_c, 0, 72, 100
1, 74880, Note_on_c, 0, 70, 100
1, 74976, Note_off_c, 0, 70, 100
1, 74976, Note_on_c, 0, 65, 100
1, 75072, Note_off_c, 0, 65, 100
1, 75072, Note_on_c, 0, 61, 100
1, 75168, Note_off_c, 0, 61, 100
1, 75168, Note_on_c, 0, 62, 100
1, 75264, Note_off_c, 0, 62, 100
1, 75264, Note_on_c, 0, 65, 100
1, 75360, Note_off_c, 0, 65, 100
1, 75360, Note_on_c, 0, 70, 100
1, 75648, Note_off_c, 0, 70, 100
1, 76032, Note_on_c, 0, 72, 100
1, 76224, Note_off_c, 0, 72, 100
1, 76224, Note_on_c, 0, 75, 100
1, 76416, Note_off_c, 0, 75, 100
1, 76416, Note_on_c, 0, 72, 100
1, 76512, Note_off_c, 0, 72, 100
1, 76512, Note_on_c, 0, 70, 100
1, 76704, Note_off_c, 0, 70, 100
1, 76704, Note_on_c, 0, 67, 100
1, 76896, Note_off_c, 0, 67, 100
1, 76896, Note_on_c, 0, 60, 100
1, 76992, Note_off_c, 0, 60, 100
1, 76992, Note_on_c, 0, 65, 100
1, 77088, Note_off_c, 0, 65, 100
1, 77088, Note_on_c, 0, 65, 100
1, 77184, Note_off_c, 0, 65, 100
1, 77184, Note_on_c, 0, 64, 100
1, 77280, Note_off_c, 0, 64, 100
1, 77280, Note_on_c, 0, 61, 100
1, 77328, Note_off_c, 0, 61, 100
1, 77328, Note_on_c, 0, 58, 100
1, 77472, Note_off_c, 0, 58, 100
1, 77472, Note_on_c, 0, 55, 100
1, 77520, Note_off_c, 0, 55, 100
1, 77520, Note_on_c, 0, 61, 100
1, 77664, Note_off_c, 0, 61, 100
1, 77664, Note_on_c, 0, 62, 100
1, 77760, Note_off_c, 0, 62, 100
1, 77760, Note_on_c, 0, 63, 100
1, 77856, Note_off_c, 0, 63, 100
1, 77856, Note_on_c, 0, 64, 100
1, 77952, Note_off_c, 0, 64, 100
1, 77952, Note_on_c, 0, 65, 100
1, 78048, Note_off_c, 0, 65, 100
1, 78048, Note_on_c, 0, 64, 100
1, 78144, Note_off_c, 0, 64, 100
1, 78144, Note_on_c, 0, 65, 100
1, 78240, Note_off_c, 0, 65, 100
1, 78240, Note_on_c, 0, 67, 100
1, 78336, Note_off_c, 0, 67, 100
1, 78336, Note_on_c, 0, 68, 100
1, 78432, Note_off_c, 0, 68, 100
1, 78432, Note_on_c, 0, 62, 100
1, 78528, Note_off_c, 0, 62, 100
1, 78528, Note_on_c, 0, 63, 100
1, 78624, Note_off_c, 0, 63, 100
1, 78624, Note_on_c, 0, 64, 100
1, 78720, Note_off_c, 0, 64, 100
1, 78720, Note_on_c, 0, 67, 100
1, 78816, Note_off_c, 0, 67, 100
1, 78816, Note_on_c, 0, 62, 100
1, 78912, Note_off_c, 0, 62, 100
1, 78912, Note_on_c, 0, 63, 100
1, 79008, Note_off_c, 0, 63, 100
1, 79008, Note_on_c, 0, 65, 100
1, 79104, Note_off_c, 0, 65, 100
1, 79104, Note_on_c, 0, 64, 100
1, 79200, Note_off_c, 0, 64, 100
1, 79200, Note_on_c, 0, 65, 100
1, 79296, Note_off_c, 0, 65, 100
1, 79296, Note_on_c, 0, 61, 100
1, 79392, Note_off_c, 0, 61, 100
1, 79392, Note_on_c, 0, 62, 100
1, 79488, Note_off_c, 0, 62, 100
1, 79488, Note_on_c, 0, 58, 100
1, 79584, Note_off_c, 0, 58, 100
1, 79584, Note_on_c, 0, 53, 100
1, 79680, Note_off_c, 0, 53, 100
1, 80512, Note_on_c, 0, 57, 100
1, 80832, Note_off_c, 0, 57, 100
1, 80832, Note_on_c, 0, 58, 100
1, 81024, Note_off_c, 0, 58, 100
1, 81024, Note_on_c, 0, 63, 100
1, 81072, Note_off_c, 0, 63, 100
1, 81072, Note_on_c, 0, 64, 100
1, 81168, Note_off_c, 0, 64, 100
1, 81168, Note_on_c, 0, 63, 100
1, 81408, Note_off_c, 0, 63, 100
1, 81408, Note_on_c, 0, 61, 100
1, 81552, Note_off_c, 0, 61, 100
1, 81552, Note_on_c, 0, 58, 100
1, 81696, Note_off_c, 0, 58, 100
1, 81696, Note_on_c, 0, 56, 100
1, 82368, Note_off_c, 0, 56, 100
1, 82368, Note_on_c, 0, 58, 100
1, 82560, Note_off_c, 0, 58, 100
1, 82560, Note_on_c, 0, 56, 100
1, 82752, Note_off_c, 0, 56, 100
1, 82752, Note_on_c, 0, 58, 100
1, 82848, Note_off_c, 0, 58, 100
1, 83040, Note_on_c, 0, 65, 100
1, 83088, Note_off_c, 0, 65, 100
1, 83088, Note_on_c, 0, 63, 100
1, 83232, Note_off_c, 0, 63, 100
1, 83232, Note_on_c, 0, 58, 100
1, 83328, Note_off_c, 0, 58, 100
1, 83328, Note_on_c, 0, 61, 100
1, 83520, Note_off_c, 0, 61, 100
1, 83520, Note_on_c, 0, 63, 100
1, 83616, Note_off_c, 0, 63, 100
1, 83808, Note_on_c, 0, 58, 100
1, 83904, Note_off_c, 0, 58, 100
1, 83904, Note_on_c, 0, 56, 100
1, 84000, Note_off_c, 0, 56, 100
1, 84000, Note_on_c, 0, 53, 100
1, 84048, Note_off_c, 0, 53, 100
1, 84048, Note_on_c, 0, 56, 100
1, 84240, Note_off_c, 0, 56, 100
1, 84240, Note_on_c, 0, 58, 100
1, 84336, Note_off_c, 0, 58, 100
1, 84864, Note_on_c, 0, 67, 100
1, 84960, Note_off_c, 0, 67, 100
1, 84960, Note_on_c, 0, 68, 100
1, 85008, Note_off_c, 0, 68, 100
1, 85008, Note_on_c, 0, 67, 100
1, 85120, Note_off_c, 0, 67, 100
1, 85120, Note_on_c, 0, 66, 100
1, 85184, Note_off_c, 0, 66, 100
1, 85184, Note_on_c, 0, 65, 100
1, 85312, Note_off_c, 0, 65, 100
1, 85312, Note_on_c, 0, 64, 100
1, 85376, Note_off_c, 0, 64, 100
1, 85376, Note_on_c, 0, 62, 100
1, 85440, Note_off_c, 0, 62, 100
1, 85440, Note_on_c, 0, 63, 100
1, 85536, Note_off_c, 0, 63, 100
1, 85536, Note_on_c, 0, 62, 100
1, 85632, Note_off_c, 0, 62, 100
1, 85632, Note_on_c, 0, 61, 100
1, 85728, Note_off_c, 0, 61, 100
1, 85728, Note_on_c, 0, 63, 100
1, 85824, Note_off_c, 0, 63, 100
1, 85824, Note_on_c, 0, 60, 100
1, 85920, Note_off_c, 0, 60, 100
1, 85920, Note_on_c, 0, 61, 100
1, 86016, Note_off_c, 0, 61, 100
1, 86016, Note_on_c, 0, 58, 100
1, 86112, Note_off_c, 0, 58, 100
1, 86112, Note_on_c, 0, 54, 100
1, 86208, Note_off_c, 0, 54, 100
1, 86208, Note_on_c, 0, 53, 100
1, 86304, Note_off_c, 0, 53, 100
1, 86304, Note_on_c, 0, 51, 100
1, 86400, Note_off_c, 0, 51, 100
1, 86400, Note_on_c, 0, 49, 100
1, 86496, Note_off_c, 0, 49, 100
1, 86496, Note_on_c, 0, 53, 100
1, 86592, Note_off_c, 0, 53, 100
1, 86592, Note_on_c, 0, 55, 100
1, 86720, Note_off_c, 0, 55, 100
1, 86720, Note_on_c, 0, 58, 100
1, 86976, Note_off_c, 0, 58, 100
1, 86976, Note_on_c, 0, 61, 100
1, 87168, Note_off_c, 0, 61, 100
1, 87168, Note_on_c, 0, 64, 100
1, 87360, Note_off_c, 0, 64, 100
1, 87360, Note_on_c, 0, 65, 100
1, 87456, Note_off_c, 0, 65, 100
1, 88032, Note_on_c, 0, 64, 100
1, 88128, Note_off_c, 0, 64, 100
1, 88128, Note_on_c, 0, 65, 100
1, 88176, Note_off_c, 0, 65, 100
1, 88176, Note_on_c, 0, 67, 100
1, 88272, Note_off_c, 0, 67, 100
1, 88272, Note_on_c, 0, 68, 100
1, 88416, Note_off_c, 0, 68, 100
1, 88416, Note_on_c, 0, 63, 100
1, 88512, Note_off_c, 0, 63, 100
1, 88512, Note_on_c, 0, 64, 100
1, 88608, Note_off_c, 0, 64, 100
1, 88608, Note_on_c, 0, 67, 100
1, 88704, Note_off_c, 0, 67, 100
1, 88704, Note_on_c, 0, 65, 100
1, 88800, Note_off_c, 0, 65, 100
1, 88800, Note_on_c, 0, 61, 100
1, 88896, Note_off_c, 0, 61, 100
1, 88896, Note_on_c, 0, 62, 100
1, 88992, Note_off_c, 0, 62, 100
1, 88992, Note_on_c, 0, 63, 100
1, 89040, Note_off_c, 0, 63, 100
1, 89040, Note_on_c, 0, 61, 100
1, 89184, Note_off_c, 0, 61, 100
1, 89184, Note_on_c, 0, 62, 100
1, 89280, Note_off_c, 0, 62, 100
1, 89280, Note_on_c, 0, 58, 100
1, 89376, Note_off_c, 0, 58, 100
1, 89376, Note_on_c, 0, 53, 100
1, 89472, Note_off_c, 0, 53, 100
1, 89472, Note_on_c, 0, 49, 100
1, 89616, Note_off_c, 0, 49, 100
1, 89616, Note_on_c, 0, 50, 100
1, 89664, Note_off_c, 0, 50, 100
1, 89664, Note_on_c, 0, 51, 100
1, 89760, Note_off_c, 0, 51, 100
1, 89760, Note_on_c, 0, 52, 100
1, 89856, Note_off_c, 0, 52, 100
1, 89856, Note_on_c, 0, 53, 100
1, 89952, Note_off_c, 0, 53, 100
1, 89952, Note_on_c, 0, 49, 100
1, 90048, Note_off_c, 0, 49, 100
1, 90048, Note_on_c, 0, 50, 100
1, 90144, Note_off_c, 0, 50, 100
1, 90144, Note_on_c, 0, 53, 100
1, 90192, Note_off_c, 0, 53, 100
1, 90192, Note_on_c, 0, 46, 100
1, 90336, Note_off_c, 0, 46, 100
1, 90336, Note_on_c, 0, 46, 100
1, 90432, Note_off_c, 0, 46, 100
1, 92208, Note_on_c, 0, 58, 100
1, 92928, Note_off_c, 0, 58, 100
1, 92928, Note_on_c, 0, 62, 100
1, 93120, Note_off_c, 0, 62, 100
1, 93120, Note_on_c, 0, 63, 100
1, 93312, Note_off_c, 0, 63, 100
1, 93312, Note_on_c, 0, 62, 100
1, 93408, Note_off_c, 0, 62, 100
1, 93408, Note_on_c, 0, 58, 100
1, 93600, Note_off_c, 0, 58, 100
1, 93600, Note_on_c, 0, 56, 100
1, 93888, Note_off_c, 0, 56, 100
1, 94464, Note_on_c, 0, 55, 100
1, 94656, Note_off_c, 0, 55, 100
1, 94656, Note_on_c, 0, 56, 100
1, 94848, Note_off_c, 0, 56, 100
1, 94848, Note_on_c, 0, 57, 100
1, 94992, Note_off_c, 0, 57, 100
1, 94992, Note_on_c, 0, 58, 100
1, 95136, Note_off_c, 0, 58, 100
1, 95136, Note_on_c, 0, 65, 100
1, 95328, Note_off_c, 0, 65, 100
1, 95328, Note_on_c, 0, 65, 100
1, 95520, Note_off_c, 0, 65, 100
1, 95520, Note_on_c, 0, 63, 100
1, 95616, Note_off_c, 0, 63, 100
1, 95616, Note_on_c, 0, 65, 100
1, 95712, Note_off_c, 0, 65, 100
1, 95712, Note_on_c, 0, 63, 100
1, 95904, Note_off_c, 0, 63, 100
1, 95904, Note_on_c, 0, 52, 100
1, 96096, Note_off_c, 0, 52, 100
1, 96096, Note_on_c, 0, 53, 100
1, 96288, Note_off_c, 0, 53, 100
1, 96288, Note_on_c, 0, 55, 100
1, 96384, Note_off_c, 0, 55, 100
1, 96384, Note_on_c, 0, 53, 100
1, 96624, Note_off_c, 0, 53, 100
1, 96624, Note_on_c, 0, 62, 100
1, 96720, Note_off_c, 0, 62, 100
1, 96720, Note_on_c, 0, 63, 100
1, 97056, Note_off_c, 0, 63, 100
1, 97056, Note_on_c, 0, 62, 100
1, 97152, Note_off_c, 0, 62, 100
1, 97152, Note_on_c, 0, 63, 100
1, 97280, Note_off_c, 0, 63, 100
1, 97280, Note_on_c, 0, 62, 100
1, 97568, Note_off_c, 0, 62, 100
1, 98208, Note_on_c, 0, 58, 100
1, 98304, Note_off_c, 0, 58, 100
1, 98304, Note_on_c, 0, 62, 100
1, 98400, Note_off_c, 0, 62, 100
1, 98400, Note_on_c, 0, 63, 100
1, 98496, Note_off_c, 0, 63, 100
1, 98496, Note_on_c, 0, 62, 100
1, 98592, Note_off_c, 0, 62, 100
1, 98592, Note_on_c, 0, 58, 100
1, 98688, Note_off_c, 0, 58, 100
1, 98688, Note_on_c, 0, 53, 100
1, 98784, Note_off_c, 0, 53, 100
1, 98784, Note_on_c, 0, 51, 100
1, 98976, Note_off_c, 0, 51, 100
1, 98976, Note_on_c, 0, 49, 100
1, 99072, Note_off_c, 0, 49, 100
1, 99072, Note_on_c, 0, 50, 100
1, 99168, Note_off_c, 0, 50, 100
1, 99168, Note_on_c, 0, 53, 100
1, 99264, Note_off_c, 0, 53, 100
1, 99264, Note_on_c, 0, 55, 100
1, 99360, Note_off_c, 0, 55, 100
1, 99360, Note_on_c, 0, 58, 100
1, 99648, Note_off_c, 0, 58, 100
1, 100368, Note_on_c, 0, 58, 100
1, 100416, Note_off_c, 0, 58, 100
1, 100416, Note_on_c, 0, 58, 100
1, 100464, Note_off_c, 0, 58, 100
1, 100464, Note_on_c, 0, 61, 100
1, 100512, Note_off_c, 0, 61, 100
1, 100512, Note_on_c, 0, 58, 100
1, 100800, Note_off_c, 0, 58, 100
1, 100800, Note_on_c, 0, 58, 100
1, 100896, Note_off_c, 0, 58, 100
1, 100896, Note_on_c, 0, 58, 100
1, 100992, Note_off_c, 0, 58, 100
1, 100992, Note_on_c, 0, 58, 100
1, 101184, Note_off_c, 0, 58, 100
1, 101184, Note_on_c, 0, 58, 100
1, 101280, Note_off_c, 0, 58, 100
1, 101280, Note_on_c, 0, 58, 100
1, 101376, Note_off_c, 0, 58, 100
1, 101376, Note_on_c, 0, 58, 100
1, 101568, Note_off_c, 0, 58, 100
1, 101568, Note_on_c, 0, 58, 100
1, 101664, Note_off_c, 0, 58, 100
1, 101664, Note_on_c, 0, 58, 100
1, 101760, Note_off_c, 0, 58, 100
1, 101760, Note_on_c, 0, 58, 100
1, 101952, Note_off_c, 0, 58, 100
1, 101952, Note_on_c, 0, 59, 100
1, 102144, Note_off_c, 0, 59, 100
1, 102144, Note_on_c, 0, 58, 100
1, 102624, Note_off_c, 0, 58, 100
1, 102624, Note_on_c, 0, 58, 100
1, 102672, Note_off_c, 0, 58, 100
1, 102672, Note_on_c, 0, 58, 100
1, 102816, Note_off_c, 0, 58, 100
1, 102816, Note_on_c, 0, 58, 100
1, 102912, Note_off_c, 0, 58, 100
1, 102912, Note_on_c, 0, 58, 100
1, 103200, Note_off_c, 0, 58, 100
1, 103200, Note_on_c, 0, 59, 100
1, 103488, Note_off_c, 0, 59, 100
1, 103872, Note_on_c, 0, 58, 100
1, 103968, Note_off_c, 0, 58, 100
1, 103968, Note_on_c, 0, 58, 100
1, 104352, Note_off_c, 0, 58, 100
1, 104352, Note_on_c, 0, 60, 100
1, 104448, Note_off_c, 0, 60, 100
1, 104448, Note_on_c, 0, 61, 100
1, 104544, Note_off_c, 0, 61, 100
1, 104544, Note_on_c, 0, 63, 100
1, 104688, Note_off_c, 0, 63, 100
1, 104688, Note_on_c, 0, 65, 100
1, 104784, Note_off_c, 0, 65, 100
1, 104784, Note_on_c, 0, 67, 100
1, 104832, Note_off_c, 0, 67, 100
1, 104832, Note_on_c, 0, 72, 100
1, 105216, Note_off_c, 0, 72, 100
1, 105216, Note_on_c, 0, 70, 100
1, 105344, Note_off_c, 0, 70, 100
1, 105344, Note_on_c, 0, 69, 100
1, 105408, Note_off_c, 0, 69, 100
1, 105408, Note_on_c, 0, 67, 100
1, 105504, Note_off_c, 0, 67, 100
1, 105504, Note_on_c, 0, 66, 100
1, 105600, Note_off_c, 0, 66, 100
1, 105600, Note_on_c, 0, 65, 100
1, 105696, Note_off_c, 0, 65, 100
1, 105696, Note_on_c, 0, 63, 100
1, 105792, Note_off_c, 0, 63, 100
1, 105792, Note_on_c, 0, 62, 100
1, 105888, Note_off_c, 0, 62, 100
1, 105888, Note_on_c, 0, 60, 100
1, 105984, Note_off_c, 0, 60, 100
1, 105984, Note_on_c, 0, 59, 100
1, 106080, Note_off_c, 0, 59, 100
1, 106080, Note_on_c, 0, 62, 100
1, 106176, Note_off_c, 0, 62, 100
1, 106176, Note_on_c, 0, 56, 100
1, 106272, Note_off_c, 0, 56, 100
1, 106272, Note_on_c, 0, 54, 100
1, 106368, Note_off_c, 0, 54, 100
1, 106368, Note_on_c, 0, 55, 100
1, 106464, Note_off_c, 0, 55, 100
1, 106464, Note_on_c, 0, 63, 100
1, 106560, Note_off_c, 0, 63, 100
1, 106560, Note_on_c, 0, 59, 100
1, 106752, Note_off_c, 0, 59, 100
1, 106752, Note_on_c, 0, 62, 100
1, 107040, Note_off_c, 0, 62, 100
1, 107520, Note_on_c, 0, 62, 100
1, 107616, Note_off_c, 0, 62, 100
1, 107616, Note_on_c, 0, 63, 100
1, 107712, Note_off_c, 0, 63, 100
1, 107712, Note_on_c, 0, 61, 100
1, 107808, Note_off_c, 0, 61, 100
1, 107808, Note_on_c, 0, 62, 100
1, 107856, Note_off_c, 0, 62, 100
1, 107856, Note_on_c, 0, 58, 100
1, 108000, Note_off_c, 0, 58, 100
1, 108000, Note_on_c, 0, 53, 100
1, 108192, Note_off_c, 0, 53, 100
1, 108192, Note_on_c, 0, 51, 100
1, 108288, Note_off_c, 0, 51, 100
1, 108288, Note_on_c, 0, 53, 100
1, 108384, Note_off_c, 0, 53, 100
1, 108384, Note_on_c, 0, 58, 100
1, 108672, Note_off_c, 0, 58, 100
1, 109920, Note_on_c, 0, 67, 100
1, 110016, Note_off_c, 0, 67, 100
1, 110016, Note_on_c, 0, 65, 100
1, 110080, Note_off_c, 0, 65, 100
1, 110080, Note_on_c, 0, 67, 100
1, 110144, Note_off_c, 0, 67, 100
1, 110144, Note_on_c, 0, 65, 100
1, 110208, Note_off_c, 0, 65, 100
1, 110208, Note_on_c, 0, 67, 100
1, 110304, Note_off_c, 0, 67, 100
1, 110304, Note_on_c, 0, 68, 100
1, 110400, Note_off_c, 0, 68, 100
1, 110400, Note_on_c, 0, 65, 100
1, 110464, Note_off_c, 0, 65, 100
1, 110464, Note_on_c, 0, 67, 100
1, 110528, Note_off_c, 0, 67, 100
1, 110528, Note_on_c, 0, 65, 100
1, 110592, Note_off_c, 0, 65, 100
1, 110592, Note_on_c, 0, 67, 100
1, 110784, Note_off_c, 0, 67, 100
1, 110784, Note_on_c, 0, 67, 100
1, 110928, Note_off_c, 0, 67, 100
1, 110928, Note_on_c, 0, 68, 100
1, 111024, Note_off_c, 0, 68, 100
1, 111456, Note_on_c, 0, 67, 100
1, 111552, Note_off_c, 0, 67, 100
1, 111552, Note_on_c, 0, 65, 100
1, 111648, Note_off_c, 0, 65, 100
1, 111648, Note_on_c, 0, 68, 100
1, 111696, Note_off_c, 0, 68, 100
1, 111696, Note_on_c, 0, 65, 100
1, 111744, Note_off_c, 0, 65, 100
1, 111744, Note_on_c, 0, 68, 100
1, 111872, Note_off_c, 0, 68, 100
1, 111872, Note_on_c, 0, 65, 100
1, 111936, Note_off_c, 0, 65, 100
1, 111936, Note_on_c, 0, 67, 100
1, 112032, Note_off_c, 0, 67, 100
1, 112032, Note_on_c, 0, 65, 100
1, 112080, Note_off_c, 0, 65, 100
1, 112080, Note_on_c, 0, 64, 100
1, 112128, Note_off_c, 0, 64, 100
1, 112128, Note_on_c, 0, 65, 100
1, 112224, Note_off_c, 0, 65, 100
1, 112224, Note_on_c, 0, 67, 100
1, 112320, Note_off_c, 0, 67, 100
1, 112320, Note_on_c, 0, 67, 100
1, 112416, Note_off_c, 0, 67, 100
1, 112416, Note_on_c, 0, 68, 100
1, 112512, Note_off_c, 0, 68, 100
1, 113184, Note_on_c, 0, 65, 100
1, 113280, Note_off_c, 0, 65, 100
1, 113280, Note_on_c, 0, 68, 100
1, 113376, Note_off_c, 0, 68, 100
1, 113376, Note_on_c, 0, 65, 100
1, 113472, Note_off_c, 0, 65, 100
1, 113472, Note_on_c, 0, 67, 100
1, 113568, Note_off_c, 0, 67, 100
1, 113568, Note_on_c, 0, 64, 100
1, 113664, Note_off_c, 0, 64, 100
1, 113664, Note_on_c, 0, 65, 100
1, 113760, Note_off_c, 0, 65, 100
1, 113760, Note_on_c, 0, 67, 100
1, 113856, Note_off_c, 0, 67, 100
1, 113856, Note_on_c, 0, 68, 100
1, 113952, Note_off_c, 0, 68, 100
1, 113952, Note_on_c, 0, 70, 100
1, 114048, Note_off_c, 0, 70, 100
1, 114048, Note_on_c, 0, 72, 100
1, 114144, Note_off_c, 0, 72, 100
1, 114144, Note_on_c, 0, 70, 100
1, 114240, Note_off_c, 0, 70, 100
1, 114240, Note_on_c, 0, 72, 100
1, 114336, Note_off_c, 0, 72, 100
1, 114336, Note_on_c, 0, 70, 100
1, 114432, Note_off_c, 0, 70, 100
1, 114432, Note_on_c, 0, 68, 100
1, 114528, Note_off_c, 0, 68, 100
1, 114528, Note_on_c, 0, 67, 100
1, 114624, Note_off_c, 0, 67, 100
1, 114624, Note_on_c, 0, 68, 100
1, 114720, Note_off_c, 0, 68, 100
1, 114720, Note_on_c, 0, 67, 100
1, 114816, Note_off_c, 0, 67, 100
1, 114816, Note_on_c, 0, 65, 100
1, 114912, Note_off_c, 0, 65, 100
1, 114912, Note_on_c, 0, 63, 100
1, 115008, Note_off_c, 0, 63, 100
1, 115008, Note_on_c, 0, 62, 100
1, 115104, Note_off_c, 0, 62, 100
1, 115104, Note_on_c, 0, 60, 100
1, 115200, Note_off_c, 0, 60, 100
1, 115200, Note_on_c, 0, 59, 100
1, 115296, Note_off_c, 0, 59, 100
1, 115296, Note_on_c, 0, 62, 100
1, 115392, Note_off_c, 0, 62, 100
1, 115392, Note_on_c, 0, 56, 100
1, 115488, Note_off_c, 0, 56, 100
1, 115488, Note_on_c, 0, 54, 100
1, 115584, Note_off_c, 0, 54, 100
1, 115584, Note_on_c, 0, 55, 100
1, 115680, Note_off_c, 0, 55, 100
1, 115680, Note_on_c, 0, 63, 100
1, 115776, Note_off_c, 0, 63, 100
1, 115776, Note_on_c, 0, 59, 100
1, 115968, Note_off_c, 0, 59, 100
1, 115968, Note_on_c, 0, 62, 100
1, 116064, Note_off_c, 0, 62, 100
1, 116064, Note_on_c, 0, 59, 100
1, 116160, Note_off_c, 0, 59, 100
1, 116160, Note_on_c, 0, 60, 100
1, 116256, Note_off_c, 0, 60, 100
1, 116256, Note_on_c, 0, 63, 100
1, 116352, Note_off_c, 0, 63, 100
1, 116352, Note_on_c, 0, 67, 100
1, 116448, Note_off_c, 0, 67, 100
1, 116448, Note_on_c, 0, 70, 100
1, 116640, Note_off_c, 0, 70, 100
1, 116640, Note_on_c, 0, 70, 100
1, 116928, Note_off_c, 0, 70, 100
1, 117216, Note_on_c, 0, 60, 100
1, 117312, Note_off_c, 0, 60, 100
1, 117312, Note_on_c, 0, 62, 100
1, 117376, Note_off_c, 0, 62, 100
1, 117376, Note_on_c, 0, 63, 100
1, 117440, Note_off_c, 0, 63, 100
1, 117440, Note_on_c, 0, 67, 100
1, 117504, Note_off_c, 0, 67, 100
1, 117504, Note_on_c, 0, 70, 100
1, 117600, Note_off_c, 0, 70, 100
1, 117600, Note_on_c, 0, 70, 100
1, 117888, Note_off_c, 0, 70, 100
1, 118656, Note_on_c, 0, 70, 100
1, 118752, Note_off_c, 0, 70, 100
1, 118752, Note_on_c, 0, 70, 100
1, 118848, Note_off_c, 0, 70, 100
1, 118848, Note_on_c, 0, 70, 100
1, 118944, Note_off_c, 0, 70, 100
1, 118944, Note_on_c, 0, 70, 100
1, 119040, Note_off_c, 0, 70, 100
1, 119040, Note_on_c, 0, 70, 100
1, 119136, Note_off_c, 0, 70, 100
1, 119136, Note_on_c, 0, 70, 100
1, 119424, Note_off_c, 0, 70, 100
1, 119424, Note_on_c, 0, 70, 100
1, 119760, Note_off_c, 0, 70, 100
1, 119760, Note_on_c, 0, 70, 100
1, 120192, Note_off_c, 0, 70, 100
1, 120192, Note_on_c, 0, 70, 100
1, 120480, Note_off_c, 0, 70, 100
1, 120480, Note_on_c, 0, 70, 100
1, 120576, Note_off_c, 0, 70, 100
1, 120576, Note_on_c, 0, 70, 100
1, 120768, Note_off_c, 0, 70, 100
1, 121344, Note_on_c, 0, 70, 100
1, 121440, Note_off_c, 0, 70, 100
1, 121440, Note_on_c, 0, 70, 100
1, 121536, Note_off_c, 0, 70, 100
1, 121536, Note_on_c, 0, 70, 100
1, 121632, Note_off_c, 0, 70, 100
1, 121632, Note_on_c, 0, 70, 100
1, 121680, Note_off_c, 0, 70, 100
1, 121680, Note_on_c, 0, 74, 100
1, 121824, Note_off_c, 0, 74, 100
1, 121824, Note_on_c, 0, 72, 100
1, 121920, Note_off_c, 0, 72, 100
1, 121920, Note_on_c, 0, 70, 100
1, 122208, Note_off_c, 0, 70, 100
1, 122208, Note_on_c, 0, 70, 100
1, 122400, Note_off_c, 0, 70, 100
1, 122400, Note_on_c, 0, 70, 100
1, 122496, Note_off_c, 0, 70, 100
1, 122496, Note_on_c, 0, 70, 100
1, 122592, Note_off_c, 0, 70, 100
1, 122592, Note_on_c, 0, 70, 100
1, 122688, Note_off_c, 0, 70, 100
1, 122688, Note_on_c, 0, 70, 100
1, 122784, Note_off_c, 0, 70, 100
1, 122784, Note_on_c, 0, 70, 100
1, 122880, Note_off_c, 0, 70, 100
1, 122880, Note_on_c, 0, 70, 100
1, 123072, Note_off_c, 0, 70, 100
1, 123072, Note_on_c, 0, 70, 100
1, 123168, Note_off_c, 0, 70, 100
1, 123168, Note_on_c, 0, 70, 100
1, 123216, Note_off_c, 0, 70, 100
1, 123216, Note_on_c, 0, 75, 100
1, 123360, Note_off_c, 0, 75, 100
1, 123360, Note_on_c, 0, 73, 100
1, 123456, Note_off_c, 0, 73, 100
1, 123456, Note_on_c, 0, 70, 100
1, 123744, Note_off_c, 0, 70, 100
1, 123744, Note_on_c, 0, 70, 100
1, 123936, Note_off_c, 0, 70, 100
1, 123936, Note_on_c, 0, 70, 100
1, 124032, Note_off_c, 0, 70, 100
1, 124032, Note_on_c, 0, 70, 100
1, 124128, Note_off_c, 0, 70, 100
1, 124128, Note_on_c, 0, 70, 100
1, 124368, Note_off_c, 0, 70, 100
1, 124368, Note_on_c, 0, 70, 100
1, 124608, Note_off_c, 0, 70, 100
1, 124608, Note_on_c, 0, 70, 100
1, 124704, Note_off_c, 0, 70, 100
1, 124704, Note_on_c, 0, 70, 100
1, 124752, Note_off_c, 0, 70, 100
1, 124752, Note_on_c, 0, 68, 100
1, 124864, Note_off_c, 0, 68, 100
1, 124864, Note_on_c, 0, 67, 100
1, 124928, Note_off_c, 0, 67, 100
1, 124928, Note_on_c, 0, 65, 100
1, 125024, Note_off_c, 0, 65, 100
1, 125280, Note_on_c, 0, 70, 100
1, 125568, Note_off_c, 0, 70, 100
1, 125568, Note_on_c, 0, 67, 100
1, 125664, Note_off_c, 0, 67, 100
1, 125664, Note_on_c, 0, 65, 100
1, 125760, Note_off_c, 0, 65, 100
1, 125760, Note_on_c, 0, 62, 100
1, 125856, Note_off_c, 0, 62, 100
1, 125856, Note_on_c, 0, 60, 100
1, 125952, Note_off_c, 0, 60, 100
1, 125952, Note_on_c, 0, 58, 100
1, 126048, Note_off_c, 0, 58, 100
1, 126048, Note_on_c, 0, 53, 100
1, 126144, Note_off_c, 0, 53, 100
1, 126144, Note_on_c, 0, 48, 100
1, 126192, Note_off_c, 0, 48, 100
1, 126192, Note_on_c, 0, 50, 100
1, 126288, Note_off_c, 0, 50, 100
1, 126288, Note_on_c, 0, 53, 100
1, 126432, Note_off_c, 0, 53, 100
1, 126432, Note_on_c, 0, 50, 100
1, 126592, Note_off_c, 0, 50, 100
1, 126592, Note_on_c, 0, 53, 100
1, 126720, Note_off_c, 0, 53, 100
1, 126720, Note_on_c, 0, 58, 100
1, 126784, Note_off_c, 0, 58, 100
1, 126784, Note_on_c, 0, 61, 100
1, 126848, Note_off_c, 0, 61, 100
1, 126848, Note_on_c, 0, 64, 100
1, 126912, Note_off_c, 0, 64, 100
1, 126912, Note_on_c, 0, 65, 100
1, 127008, Note_off_c, 0, 65, 100
1, 127968, Note_on_c, 0, 60, 100
1, 128064, Note_off_c, 0, 60, 100
1, 128064, Note_on_c, 0, 64, 100
1, 128112, Note_off_c, 0, 64, 100
1, 128112, Note_on_c, 0, 67, 100
1, 128160, Note_off_c, 0, 67, 100
1, 128160, Note_on_c, 0, 65, 100
1, 128208, Note_off_c, 0, 65, 100
1, 128208, Note_on_c, 0, 64, 100
1, 128304, Note_off_c, 0, 64, 100
1, 128304, Note_on_c, 0, 61, 100
1, 128400, Note_off_c, 0, 61, 100
1, 128400, Note_on_c, 0, 58, 100
1, 128496, Note_off_c, 0, 58, 100
1, 128496, Note_on_c, 0, 55, 100
1, 128592, Note_off_c, 0, 55, 100
1, 128592, Note_on_c, 0, 63, 100
1, 128688, Note_off_c, 0, 63, 100
1, 128688, Note_on_c, 0, 61, 100
1, 128784, Note_off_c, 0, 61, 100
1, 128784, Note_on_c, 0, 58, 100
1, 128880, Note_off_c, 0, 58, 100
1, 128880, Note_on_c, 0, 55, 100
1, 128976, Note_off_c, 0, 55, 100
1, 128976, Note_on_c, 0, 64, 100
1, 129120, Note_off_c, 0, 64, 100
1, 129120, Note_on_c, 0, 61, 100
1, 129168, Note_off_c, 0, 61, 100
1, 129168, Note_on_c, 0, 65, 100
1, 129312, Note_off_c, 0, 65, 100
1, 129312, Note_on_c, 0, 61, 100
1, 129408, Note_off_c, 0, 61, 100
1, 129408, Note_on_c, 0, 64, 100
1, 129504, Note_off_c, 0, 64, 100
1, 129504, Note_on_c, 0, 61, 100
1, 129600, Note_off_c, 0, 61, 100
1, 129600, Note_on_c, 0, 58, 100
1, 129696, Note_off_c, 0, 58, 100
1, 129696, Note_on_c, 0, 55, 100
1, 129792, Note_off_c, 0, 55, 100
1, 129792, Note_on_c, 0, 63, 100
1, 129888, Note_off_c, 0, 63, 100
1, 129888, Note_on_c, 0, 60, 100
1, 129984, Note_off_c, 0, 60, 100
1, 129984, Note_on_c, 0, 64, 100
1, 130112, Note_off_c, 0, 64, 100
1, 130112, Note_on_c, 0, 60, 100
1, 130176, Note_off_c, 0, 60, 100
1, 130176, Note_on_c, 0, 65, 100
1, 130272, Note_off_c, 0, 65, 100
1, 130272, Note_on_c, 0, 60, 100
1, 130368, Note_off_c, 0, 60, 100
1, 130368, Note_on_c, 0, 65, 100
1, 130464, Note_off_c, 0, 65, 100
1, 130464, Note_on_c, 0, 65, 100
1, 130560, Note_off_c, 0, 65, 100
1, 130560, Note_on_c, 0, 67, 100
1, 130624, Note_off_c, 0, 67, 100
1, 130624, Note_on_c, 0, 68, 100
1, 130720, Note_off_c, 0, 68, 100
1, 131424, Note_on_c, 0, 61, 100
1, 131520, Note_off_c, 0, 61, 100
1, 131520, Note_on_c, 0, 65, 100
1, 131584, Note_off_c, 0, 65, 100
1, 131584, Note_on_c, 0, 66, 100
1, 131648, Note_off_c, 0, 66, 100
1, 131648, Note_on_c, 0, 65, 100
1, 131712, Note_off_c, 0, 65, 100
1, 131712, Note_on_c, 0, 64, 100
1, 131808, Note_off_c, 0, 64, 100
1, 131808, Note_on_c, 0, 65, 100
1, 131904, Note_off_c, 0, 65, 100
1, 131904, Note_on_c, 0, 63, 100
1, 132000, Note_off_c, 0, 63, 100
1, 132000, Note_on_c, 0, 61, 100
1, 132096, Note_off_c, 0, 61, 100
1, 132096, Note_on_c, 0, 58, 100
1, 132192, Note_off_c, 0, 58, 100
1, 132192, Note_on_c, 0, 53, 100
1, 132288, Note_off_c, 0, 53, 100
1, 132288, Note_on_c, 0, 49, 100
1, 132384, Note_off_c, 0, 49, 100
1, 132384, Note_on_c, 0, 50, 100
1, 132480, Note_off_c, 0, 50, 100
1, 132480, Note_on_c, 0, 53, 100
1, 132576, Note_off_c, 0, 53, 100
1, 132576, Note_on_c, 0, 49, 100
1, 132672, Note_off_c, 0, 49, 100
1, 132672, Note_on_c, 0, 50, 100
1, 132768, Note_off_c, 0, 50, 100
1, 132768, Note_on_c, 0, 53, 100
1, 132864, Note_off_c, 0, 53, 100
1, 132864, Note_on_c, 0, 58, 100
1, 132960, Note_off_c, 0, 58, 100
1, 132960, Note_on_c, 0, 55, 100
1, 133056, Note_off_c, 0, 55, 100
1, 133056, Note_on_c, 0, 58, 100
1, 133152, Note_off_c, 0, 58, 100
1, 133152, Note_on_c, 0, 61, 100
1, 133200, Note_off_c, 0, 61, 100
1, 133200, Note_on_c, 0, 62, 100
1, 133344, Note_off_c, 0, 62, 100
1, 133344, Note_on_c, 0, 65, 100
1, 133392, Note_off_c, 0, 65, 100
1, 133392, Note_on_c, 0, 67, 100
1, 133536, Note_off_c, 0, 67, 100
1, 133536, Note_on_c, 0, 65, 100
1, 133632, Note_off_c, 0, 65, 100
1, 133632, Note_on_c, 0, 68, 100
1, 133728, Note_off_c, 0, 68, 100
1, 133728, Note_on_c, 0, 65, 100
1, 133824, Note_off_c, 0, 65, 100
1, 133824, Note_on_c, 0, 67, 100
1, 133920, Note_off_c, 0, 67, 100
1, 133920, Note_on_c, 0, 64, 100
1, 134016, Note_off_c, 0, 64, 100
1, 134016, Note_on_c, 0, 65, 100
1, 134112, Note_off_c, 0, 65, 100
1, 134112, Note_on_c, 0, 62, 100
1, 134208, Note_off_c, 0, 62, 100
1, 134208, Note_on_c, 0, 59, 100
1, 134336, Note_off_c, 0, 59, 100
1, 134336, Note_on_c, 0, 56, 100
1, 134400, Note_off_c, 0, 56, 100
1, 134400, Note_on_c, 0, 55, 100
1, 134496, Note_off_c, 0, 55, 100
1, 134496, Note_on_c, 0, 60, 100
1, 134592, Note_off_c, 0, 60, 100
1, 134592, Note_on_c, 0, 63, 100
1, 134688, Note_off_c, 0, 63, 100
1, 134688, Note_on_c, 0, 67, 100
1, 134784, Note_off_c, 0, 67, 100
1, 134784, Note_on_c, 0, 70, 100
1, 134880, Note_off_c, 0, 70, 100
1, 134880, Note_on_c, 0, 74, 100
1, 135168, Note_off_c, 0, 74, 100
1, 136032, Note_on_c, 0, 69, 100
1, 136224, Note_off_c, 0, 69, 100
1, 136224, Note_on_c, 0, 70, 100
1, 137232, Note_off_c, 0, 70, 100
1, 137232, Note_on_c, 0, 67, 100
1, 137424, Note_off_c, 0, 67, 100
1, 137424, Note_on_c, 0, 69, 100
1, 137568, Note_off_c, 0, 69, 100
1, 137568, Note_on_c, 0, 70, 100
1, 137616, Note_off_c, 0, 70, 100
1, 137616, Note_on_c, 0, 67, 100
1, 137856, Note_off_c, 0, 67, 100
1, 137856, Note_on_c, 0, 70, 100
1, 138048, Note_off_c, 0, 70, 100
1, 138048, Note_on_c, 0, 67, 100
1, 138144, Note_off_c, 0, 67, 100
1, 138144, Note_on_c, 0, 61, 100
1, 138240, Note_off_c, 0, 61, 100
1, 138240, Note_on_c, 0, 60, 100
1, 138336, Note_off_c, 0, 60, 100
1, 138720, Note_on_c, 0, 70, 100
1, 138912, Note_off_c, 0, 70, 100
1, 138912, Note_on_c, 0, 67, 100
1, 139008, Note_off_c, 0, 67, 100
1, 139008, Note_on_c, 0, 70, 100
1, 139200, Note_off_c, 0, 70, 100
1, 139200, Note_on_c, 0, 67, 100
1, 139344, Note_off_c, 0, 67, 100
1, 139344, Note_on_c, 0, 70, 100
1, 139584, Note_off_c, 0, 70, 100
1, 139584, Note_on_c, 0, 67, 100
1, 139776, Note_off_c, 0, 67, 100
1, 139776, Note_on_c, 0, 62, 100
1, 139872, Note_off_c, 0, 62, 100
1, 139872, Note_on_c, 0, 60, 100
1, 139968, Note_off_c, 0, 60, 100
1, 140448, Note_on_c, 0, 70, 100
1, 140736, Note_off_c, 0, 70, 100
1, 140736, Note_on_c, 0, 67, 100
1, 140928, Note_off_c, 0, 67, 100
1, 140928, Note_on_c, 0, 70, 100
1, 141120, Note_off_c, 0, 70, 100
1, 141120, Note_on_c, 0, 67, 100
1, 141264, Note_off_c, 0, 67, 100
1, 141264, Note_on_c, 0, 60, 100
1, 141408, Note_off_c, 0, 60, 100
1, 141408, Note_on_c, 0, 59, 100
1, 141504, Note_off_c, 0, 59, 100
1, 141984, Note_on_c, 0, 70, 100
1, 142272, Note_off_c, 0, 70, 100
1, 142272, Note_on_c, 0, 69, 100
1, 142368, Note_off_c, 0, 69, 100
1, 142368, Note_on_c, 0, 67, 100
1, 142464, Note_off_c, 0, 67, 100
1, 142464, Note_on_c, 0, 65, 100
1, 142560, Note_off_c, 0, 65, 100
1, 142560, Note_on_c, 0, 63, 100
1, 142656, Note_off_c, 0, 63, 100
1, 142656, Note_on_c, 0, 62, 100
1, 142752, Note_off_c, 0, 62, 100
1, 142752, Note_on_c, 0, 60, 100
1, 142800, Note_off_c, 0, 60, 100
1, 142800, Note_on_c, 0, 59, 100
1, 142944, Note_off_c, 0, 59, 100
1, 142944, Note_on_c, 0, 61, 100
1, 142992, Note_off_c, 0, 61, 100
1, 142992, Note_on_c, 0, 56, 100
1, 143136, Note_off_c, 0, 56, 100
1, 143136, Note_on_c, 0, 54, 100
1, 143232, Note_off_c, 0, 54, 100
1, 143232, Note_on_c, 0, 55, 100
1, 143328, Note_off_c, 0, 55, 100
1, 143328, Note_on_c, 0, 63, 100
1, 143424, Note_off_c, 0, 63, 100
1, 143424, Note_on_c, 0, 59, 100
1, 143520, Note_off_c, 0, 59, 100
1, 143520, Note_on_c, 0, 55, 100
1, 143616, Note_off_c, 0, 55, 100
1, 143616, Note_on_c, 0, 62, 100
1, 143712, Note_off_c, 0, 62, 100
1, 143712, Note_on_c, 0, 59, 100
1, 143808, Note_off_c, 0, 59, 100
1, 143808, Note_on_c, 0, 60, 100
1, 143904, Note_off_c, 0, 60, 100
1, 143904, Note_on_c, 0, 63, 100
1, 144000, Note_off_c, 0, 63, 100
1, 144000, Note_on_c, 0, 67, 100
1, 144096, Note_off_c, 0, 67, 100
1, 144096, Note_on_c, 0, 70, 100
1, 144288, Note_off_c, 0, 70, 100
1, 144288, Note_on_c, 0, 74, 100
1, 144576, Note_off_c, 0, 74, 100
1, 144576, Note_on_c, 0, 69, 100
1, 144672, Note_off_c, 0, 69, 100
1, 144672, Note_on_c, 0, 66, 100
1, 144768, Note_off_c, 0, 66, 100
1, 144768, Note_on_c, 0, 63, 100
1, 144864, Note_off_c, 0, 63, 100
1, 144864, Note_on_c, 0, 66, 100
1, 144960, Note_off_c, 0, 66, 100
1, 144960, Note_on_c, 0, 69, 100
1, 145248, Note_off_c, 0, 69, 100
1, 145248, Note_on_c, 0, 72, 100
1, 145536, Note_off_c, 0, 72, 100
1, 145536, Note_on_c, 0, 70, 100
1, 145621, Note_off_c, 0, 70, 100
1, 145621, End_track
0, 0, End_of_file
