0, 0, Header, 1, 1, 192
1, 0, Start_track
1, 0, Title_t, "Melody"
1, 0, Tempo, 937500
1, 0, Key_signature, -5, "major"
1, 0, Time_signature, 4, 2, 24, 8
1, 576, Note_on_c, 0, 57, 100
1, 640, Note_off_c, 0, 57, 100
1, 640, Note_on_c, 0, 58, 100
1, 704, Note_off_c, 0, 58, 100
1, 704, Note_on_c, 0, 70, 100
1, 768, Note_off_c, 0, 70, 100
1, 768, Note_on_c, 0, 68, 100
1, 816, Note_off_c, 0, 68, 100
1, 816, Note_on_c, 0, 66, 100
1, 1056, Note_off_c, 0, 66, 100
1, 1056, Note_on_c, 0, 63, 100
1, 1104, Note_off_c, 0, 63, 100
1, 1104, Note_on_c, 0, 65, 100
1, 1152, Note_off_c, 0, 65, 100
1, 1152, Note_on_c, 0, 63, 100
1, 1248, Note_off_c, 0, 63, 100
1, 1248, Note_on_c, 0, 65, 100
1, 1488, Note_off_c, 0, 65, 100
1, 1488, Note_on_c, 0, 63, 100
1, 1536, Note_off_c, 0, 63, 100
1, 1536, Note_on_c, 0, 62, 100
1, 1584, Note_off_c, 0, 62, 100
1, 1584, Note_on_c, 0, 63, 100
1, 1632, Note_off_c, 0, 63, 100
1, 1632, Note_on_c, 0, 70, 100
1, 1680, Note_off_c, 0, 70, 100
1, 1680, Note_on_c, 0, 70, 100
1, 2016, Note_off_c, 0, 70, 100
1, 2016, Note_on_c, 0, 69, 100
1, 2048, Note_off_c, 0, 69, 100
1, 2048, Note_on_c, 0, 71, 100
1, 2080, Note_off_c, 0, 71, 100
1, 2080, Note_on_c, 0, 68, 100
1, 2208, Note_off_c, 0, 68, 100
1, 2208, Note_on_c, 0, 66, 100
1, 2240, Note_off_c, 0, 66, 100
1, 2240, Note_on_c, 0, 68, 100
1, 2272, Note_off_c, 0, 68, 100
1, 2272, Note_on_c, 0, 65, 100
1, 2464, Note_off_c, 0, 65, 100
1, 2640, Note_on_c, 0, 68, 100
1, 2688, Note_off_c, 0, 68, 100
1, 2688, Note_on_c, 0, 70, 100
1, 2736, Note_off_c, 0, 70, 100
1, 2736, Note_on_c, 0, 68, 100
1, 2784, Note_off_c, 0, 68, 100
1, 2784, Note_on_c, 0, 70, 100
1, 3168, Note_off_c, 0, 70, 100
1, 3168, Note_on_c, 0, 68, 100
1, 3216, Note_off_c, 0, 68, 100
1, 3216, Note_on_c, 0, 70, 100
1, 3264, Note_off_c, 0, 70, 100
1, 3264, Note_on_c, 0, 72, 100
1, 3312, Note_off_c, 0, 72, 100
1, 3312, Note_on_c, 0, 75, 100
1, 3360, Note_off_c, 0, 75, 100
1, 3360, Note_on_c, 0, 73, 100
1, 3408, Note_off_c, 0, 73, 100
1, 3408, Note_on_c, 0, 72, 100
1, 3456, Note_off_c, 0, 72, 100
1, 3456, Note_on_c, 0, 70, 100
1, 3488, Note_off_c, 0, 70, 100
1, 3488, Note_on_c, 0, 73, 100
1, 3520, Note_off_c, 0, 73, 100
1, 3520, Note_on_c, 0, 72, 100
1, 3552, Note_off_c, 0, 72, 100
1, 3552, Note_on_c, 0, 71, 100
1, 3584, Note_off_c, 0, 71, 100
1, 3584, Note_on_c, 0, 64, 100
1, 3744, Note_off_c, 0, 64, 100
1, 3744, Note_on_c, 0, 62, 100
1, 3792, Note_off_c, 0, 62, 100
1, 3792, Note_on_c, 0, 63, 100
1, 3840, Note_off_c, 0, 63, 100
1, 3840, Note_on_c, 0, 73, 100
1, 4176, Note_off_c, 0, 73, 100
1, 4176, Note_on_c, 0, 70, 100
1, 4224, Note_off_c, 0, 70, 100
1, 4224, Note_on_c, 0, 66, 100
1, 4272, Note_off_c, 0, 66, 100
1, 4272, Note_on_c, 0, 70, 100
1, 4531, Note_off_c, 0, 70, 100
1, 4531, Note_on_c, 0, 66, 100
1, 4569, Note_off_c, 0, 66, 100
1, 4569, Note_on_c, 0, 61, 100
1, 4607, Note_off_c, 0, 61, 100
1, 4607, Note_on_c, 0, 65, 100
1, 4895, Note_off_c, 0, 65, 100
1, 4895, Note_on_c, 0, 63, 100
1, 4943, Note_off_c, 0, 63, 100
1, 4943, Note_on_c, 0, 68, 100
1, 4991, Note_off_c, 0, 68, 100
1, 4991, Note_on_c, 0, 66, 100
1, 5029, Note_off_c, 0, 66, 100
1, 5029, Note_on_c, 0, 65, 100
1, 5067, Note_off_c, 0, 65, 100
1, 5067, Note_on_c, 0, 63, 100
1, 5105, Note_off_c, 0, 63, 100
1, 5105, Note_on_c, 0, 65, 100
1, 5220, Note_off_c, 0, 65, 100
1, 5220, Note_on_c, 0, 63, 100
1, 5258, Note_off_c, 0, 63, 100
1, 5258, Note_on_c, 0, 68, 100
1, 5296, Note_off_c, 0, 68, 100
1, 5296, Note_on_c, 0, 66, 100
1, 5334, Note_off_c, 0, 66, 100
1, 5334, Note_on_c, 0, 65, 100
1, 5372, Note_off_c, 0, 65, 100
1, 5372, Note_on_c, 0, 63, 100
1, 5420, Note_off_c, 0, 63, 100
1, 5420, Note_on_c, 0, 65, 100
1, 5660, Note_off_c, 0, 65, 100
1, 5660, Note_on_c, 0, 61, 100
1, 5708, Note_off_c, 0, 61, 100
1, 5708, Note_on_c, 0, 63, 100
1, 5756, Note_off_c, 0, 63, 100
1, 5756, Note_on_c, 0, 65, 100
1, 5794, Note_off_c, 0, 65, 100
1, 5794, Note_on_c, 0, 68, 100
1, 5832, Note_off_c, 0, 68, 100
1, 5832, Note_on_c, 0, 66, 100
1, 5870, Note_off_c, 0, 66, 100
1, 5870, Note_on_c, 0, 68, 100
1, 5908, Note_off_c, 0, 68, 100
1, 5908, Note_on_c, 0, 66, 100
1, 5946, Note_off_c, 0, 66, 100
1, 5946, Note_on_c, 0, 71, 100
1, 5994, Note_off_c, 0, 71, 100
1, 5994, Note_on_c, 0, 67, 100
1, 6042, Note_off_c, 0, 67, 100
1, 6042, Note_on_c, 0, 71, 100
1, 6090, Note_off_c, 0, 71, 100
1, 6090, Note_on_c, 0, 67, 100
1, 6138, Note_off_c, 0, 67, 100
1, 6138, Note_on_c, 0, 72, 100
1, 6186, Note_off_c, 0, 72, 100
1, 6186, Note_on_c, 0, 67, 100
1, 6234, Note_off_c, 0, 67, 100
1, 6234, Note_on_c, 0, 72, 100
1, 6282, Note_off_c, 0, 72, 100
1, 6282, Note_on_c, 0, 67, 100
1, 6330, Note_off_c, 0, 67, 100
1, 6330, Note_on_c, 0, 68, 100
1, 6522, Note_off_c, 0, 68, 100
1, 6522, Note_on_c, 0, 73, 100
1, 6570, Note_off_c, 0, 73, 100
1, 6570, Note_on_c, 0, 68, 100
1, 6618, Note_off_c, 0, 68, 100
1, 6618, Note_on_c, 0, 73, 100
1, 6666, Note_off_c, 0, 73, 100
1, 6666, Note_on_c, 0, 68, 100
1, 6714, Note_off_c, 0, 68, 100
1, 6714, Note_on_c, 0, 71, 100
1, 6762, Note_off_c, 0, 71, 100
1, 6762, Note_on_c, 0, 65, 100
1, 6810, Note_off_c, 0, 65, 100
1, 6810, Note_on_c, 0, 70, 100
1, 6858, Note_off_c, 0, 70, 100
1, 6858, Note_on_c, 0, 65, 100
1, 6906, Note_off_c, 0, 65, 100
1, 6906, Note_on_c, 0, 66, 100
1, 7098, Note_off_c, 0, 66, 100
1, 7386, Note_on_c, 0, 58, 100
1, 7434, Note_off_c, 0, 58, 100
1, 7434, Note_on_c, 0, 59, 100
1, 7482, Note_off_c, 0, 59, 100
1, 7482, Note_on_c, 0, 70, 100
1, 7818, Note_off_c, 0, 70, 100
1, 7818, Note_on_c, 0, 68, 100
1, 7866, Note_off_c, 0, 68, 100
1, 7866, Note_on_c, 0, 66, 100
1, 7904, Note_off_c, 0, 66, 100
1, 7904, Note_on_c, 0, 65, 100
1, 7942, Note_off_c, 0, 65, 100
1, 7942, Note_on_c, 0, 63, 100
1, 8018, Note_off_c, 0, 63, 100
1, 8018, Note_on_c, 0, 59, 100
1, 8056, Note_off_c, 0, 59, 100
1, 8056, Note_on_c, 0, 60, 100
1, 8152, Note_off_c, 0, 60, 100
1, 8152, Note_on_c, 0, 71, 100
1, 8344, Note_off_c, 0, 71, 100
1, 8344, Note_on_c, 0, 69, 100
1, 8376, Note_off_c, 0, 69, 100
1, 8376, Note_on_c, 0, 68, 100
1, 8408, Note_off_c, 0, 68, 100
1, 8408, Note_on_c, 0, 66, 100
1, 8440, Note_off_c, 0, 66, 100
1, 8440, Note_on_c, 0, 67, 100
1, 8536, Note_off_c, 0, 67, 100
1, 8536, Note_on_c, 0, 68, 100
1, 8952, Note_off_c, 0, 68, 100
1, 8952, Note_on_c, 0, 67, 100
1, 8984, Note_off_c, 0, 67, 100
1, 8984, Note_on_c, 0, 68, 100
1, 9054, Note_off_c, 0, 68, 100
1, 9054, Note_on_c, 0, 75, 100
1, 9092, Note_off_c, 0, 75, 100
1, 9092, Note_on_c, 0, 68, 100
1, 9130, Note_off_c, 0, 68, 100
1, 9130, Note_on_c, 0, 75, 100
1, 9168, Note_off_c, 0, 75, 100
1, 9168, Note_on_c, 0, 68, 100
1, 9206, Note_off_c, 0, 68, 100
1, 9206, Note_on_c, 0, 75, 100
1, 9302, Note_off_c, 0, 75, 100
1, 9302, Note_on_c, 0, 68, 100
1, 9542, Note_off_c, 0, 68, 100
1, 9542, Note_on_c, 0, 70, 100
1, 9590, Note_off_c, 0, 70, 100
1, 9590, Note_on_c, 0, 72, 100
1, 9628, Note_off_c, 0, 72, 100
1, 9628, Note_on_c, 0, 75, 100
1, 9666, Note_off_c, 0, 75, 100
1, 9666, Note_on_c, 0, 73, 100
1, 9704, Note_off_c, 0, 73, 100
1, 9704, Note_on_c, 0, 68, 100
1, 9742, Note_off_c, 0, 68, 100
1, 9742, Note_on_c, 0, 65, 100
1, 9780, Note_off_c, 0, 65, 100
1, 9780, Note_on_c, 0, 64, 100
1, 9924, Note_off_c, 0, 64, 100
1, 9924, Note_on_c, 0, 62, 100
1, 9948, Note_off_c, 0, 62, 100
1, 9948, Note_on_c, 0, 63, 100
1, 10020, Note_off_c, 0, 63, 100
1, 10020, Note_on_c, 0, 73, 100
1, 10116, Note_off_c, 0, 73, 100
1, 10404, Note_on_c, 0, 73, 100
1, 10428, Note_off_c, 0, 73, 100
1, 10428, Note_on_c, 0, 72, 100
1, 10452, Note_off_c, 0, 72, 100
1, 10452, Note_on_c, 0, 73, 100
1, 10500, Note_off_c, 0, 73, 100
1, 10500, Note_on_c, 0, 70, 100
1, 10524, Note_off_c, 0, 70, 100
1, 10524, Note_on_c, 0, 69, 100
1, 10548, Note_off_c, 0, 69, 100
1, 10548, Note_on_c, 0, 70, 100
1, 10596, Note_off_c, 0, 70, 100
1, 10596, Note_on_c, 0, 66, 100
1, 10620, Note_off_c, 0, 66, 100
1, 10620, Note_on_c, 0, 65, 100
1, 10644, Note_off_c, 0, 65, 100
1, 10644, Note_on_c, 0, 66, 100
1, 10692, Note_off_c, 0, 66, 100
1, 10692, Note_on_c, 0, 58, 100
1, 10716, Note_off_c, 0, 58, 100
1, 10716, Note_on_c, 0, 61, 100
1, 10740, Note_off_c, 0, 61, 100
1, 10740, Note_on_c, 0, 64, 100
1, 10764, Note_off_c, 0, 64, 100
1, 10764, Note_on_c, 0, 65, 100
1, 10788, Note_off_c, 0, 65, 100
1, 10788, Note_on_c, 0, 64, 100
1, 10812, Note_off_c, 0, 64, 100
1, 10812, Note_on_c, 0, 65, 100
1, 10836, Note_off_c, 0, 65, 100
1, 10836, Note_on_c, 0, 68, 100
1, 10860, Note_off_c, 0, 68, 100
1, 10860, Note_on_c, 0, 64, 100
1, 10884, Note_off_c, 0, 64, 100
1, 10884, Note_on_c, 0, 65, 100
1, 10908, Note_off_c, 0, 65, 100
1, 10908, Note_on_c, 0, 68, 100
1, 10949, Note_off_c, 0, 68, 100
1, 10949, Note_on_c, 0, 65, 100
1, 10966, Note_off_c, 0, 65, 100
1, 10966, Note_on_c, 0, 63, 100
1, 10983, Note_off_c, 0, 63, 100
1, 10983, Note_on_c, 0, 62, 100
1, 11017, Note_off_c, 0, 62, 100
1, 11017, Note_on_c, 0, 63, 100
1, 11034, Note_off_c, 0, 63, 100
1, 11034, Note_on_c, 0, 66, 100
1, 11051, Note_off_c, 0, 66, 100
1, 11051, Note_on_c, 0, 62, 100
1, 11085, Note_off_c, 0, 62, 100
1, 11085, Note_on_c, 0, 63, 100
1, 11102, Note_off_c, 0, 63, 100
1, 11102, Note_on_c, 0, 66, 100
1, 11119, Note_off_c, 0, 66, 100
1, 11119, Note_on_c, 0, 63, 100
1, 11146, Note_off_c, 0, 63, 100
1, 11146, Note_on_c, 0, 62, 100
1, 11173, Note_off_c, 0, 62, 100
1, 11173, Note_on_c, 0, 65, 100
1, 11200, Note_off_c, 0, 65, 100
1, 11200, Note_on_c, 0, 63, 100
1, 11227, Note_off_c, 0, 63, 100
1, 11227, Note_on_c, 0, 61, 100
1, 11254, Note_off_c, 0, 61, 100
1, 11254, Note_on_c, 0, 58, 100
1, 11281, Note_off_c, 0, 58, 100
1, 11281, Note_on_c, 0, 57, 100
1, 11308, Note_off_c, 0, 57, 100
1, 11308, Note_on_c, 0, 53, 100
1, 11356, Note_off_c, 0, 53, 100
1, 11356, Note_on_c, 0, 58, 100
1, 11380, Note_off_c, 0, 58, 100
1, 11380, Note_on_c, 0, 59, 100
1, 11404, Note_off_c, 0, 59, 100
1, 11404, Note_on_c, 0, 60, 100
1, 11428, Note_off_c, 0, 60, 100
1, 11428, Note_on_c, 0, 63, 100
1, 11452, Note_off_c, 0, 63, 100
1, 11452, Note_on_c, 0, 64, 100
1, 11476, Note_off_c, 0, 64, 100
1, 11476, Note_on_c, 0, 63, 100
1, 11500, Note_off_c, 0, 63, 100
1, 11500, Note_on_c, 0, 61, 100
1, 11512, Note_off_c, 0, 61, 100
1, 11512, Note_on_c, 0, 62, 100
1, 11524, Note_off_c, 0, 62, 100
1, 11524, Note_on_c, 0, 63, 100
1, 11536, Note_off_c, 0, 63, 100
1, 11536, Note_on_c, 0, 60, 100
1, 11572, Note_off_c, 0, 60, 100
1, 11572, Note_on_c, 0, 61, 100
1, 11584, Note_off_c, 0, 61, 100
1, 11584, Note_on_c, 0, 58, 100
1, 11620, Note_off_c, 0, 58, 100
1, 11620, Note_on_c, 0, 60, 100
1, 11632, Note_off_c, 0, 60, 100
1, 11632, Note_on_c, 0, 61, 100
1, 11644, Note_off_c, 0, 61, 100
1, 11644, Note_on_c, 0, 62, 100
1, 11656, Note_off_c, 0, 62, 100
1, 11656, Note_on_c, 0, 63, 100
1, 11668, Note_off_c, 0, 63, 100
1, 11668, Note_on_c, 0, 67, 100
1, 11692, Note_off_c, 0, 67, 100
1, 11692, Note_on_c, 0, 72, 100
1, 11721, Note_off_c, 0, 72, 100
1, 11721, Note_on_c, 0, 70, 100
1, 11750, Note_off_c, 0, 70, 100
1, 11750, Note_on_c, 0, 69, 100
1, 11764, Note_off_c, 0, 69, 100
1, 11764, Note_on_c, 0, 65, 100
1, 11778, Note_off_c, 0, 65, 100
1, 11778, Note_on_c, 0, 63, 100
1, 11807, Note_off_c, 0, 63, 100
1, 11807, Note_on_c, 0, 61, 100
1, 11821, Note_off_c, 0, 61, 100
1, 11821, Note_on_c, 0, 59, 100
1, 11835, Note_off_c, 0, 59, 100
1, 11835, Note_on_c, 0, 71, 100
1, 11864, Note_off_c, 0, 71, 100
1, 11864, Note_on_c, 0, 70, 100
1, 11878, Note_off_c, 0, 70, 100
1, 11878, Note_on_c, 0, 68, 100
1, 11910, Note_off_c, 0, 68, 100
1, 11910, Note_on_c, 0, 64, 100
1, 11942, Note_off_c, 0, 64, 100
1, 11942, Note_on_c, 0, 60, 100
1, 11974, Note_off_c, 0, 60, 100
1, 11974, Note_on_c, 0, 62, 100
1, 12006, Note_off_c, 0, 62, 100
1, 12006, Note_on_c, 0, 64, 100
1, 12214, Note_off_c, 0, 64, 100
1, 12214, Note_on_c, 0, 60, 100
1, 12262, Note_off_c, 0, 60, 100
1, 12262, Note_on_c, 0, 61, 100
1, 12300, Note_off_c, 0, 61, 100
1, 12300, Note_on_c, 0, 63, 100
1, 12338, Note_off_c, 0, 63, 100
1, 12338, Note_on_c, 0, 61, 100
1, 12376, Note_off_c, 0, 61, 100
1, 12376, Note_on_c, 0, 56, 100
1, 12596, Note_off_c, 0, 56, 100
1, 12596, Note_on_c, 0, 61, 100
1, 12644, Note_off_c, 0, 61, 100
1, 12644, Note_on_c, 0, 62, 100
1, 12682, Note_off_c, 0, 62, 100
1, 12682, Note_on_c, 0, 71, 100
1, 12720, Note_off_c, 0, 71, 100
1, 12720, Note_on_c, 0, 69, 100
1, 12758, Note_off_c, 0, 69, 100
1, 12758, Note_on_c, 0, 67, 100
1, 12796, Note_off_c, 0, 67, 100
1, 12796, Note_on_c, 0, 66, 100
1, 12834, Note_off_c, 0, 66, 100
1, 12834, Note_on_c, 0, 69, 100
1, 13141, Note_off_c, 0, 69, 100
1, 13141, Note_on_c, 0, 57, 100
1, 13179, Note_off_c, 0, 57, 100
1, 13179, Note_on_c, 0, 58, 100
1, 13217, Note_off_c, 0, 58, 100
1, 13217, Note_on_c, 0, 61, 100
1, 13255, Note_off_c, 0, 61, 100
1, 13255, Note_on_c, 0, 62, 100
1, 13293, Note_off_c, 0, 62, 100
1, 13293, Note_on_c, 0, 64, 100
1, 13331, Note_off_c, 0, 64, 100
1, 13331, Note_on_c, 0, 66, 100
1, 13369, Note_off_c, 0, 66, 100
1, 13369, Note_on_c, 0, 67, 100
1, 13407, Note_off_c, 0, 67, 100
1, 13407, Note_on_c, 0, 69, 100
1, 13503, Note_off_c, 0, 69, 100
1, 13503, Note_on_c, 0, 69, 100
1, 13906, Note_off_c, 0, 69, 100
1, 13906, Note_on_c, 0, 69, 100
1, 13944, Note_off_c, 0, 69, 100
1, 13944, Note_on_c, 0, 73, 100
1, 14020, Note_off_c, 0, 73, 100
1, 14020, Note_on_c, 0, 74, 100
1, 14058, Note_off_c, 0, 74, 100
1, 14058, Note_on_c, 0, 73, 100
1, 14096, Note_off_c, 0, 73, 100
1, 14096, Note_on_c, 0, 71, 100
1, 14134, Note_off_c, 0, 71, 100
1, 14134, Note_on_c, 0, 74, 100
1, 14172, Note_off_c, 0, 74, 100
1, 14172, Note_on_c, 0, 72, 100
1, 14210, Note_off_c, 0, 72, 100
1, 14210, Note_on_c, 0, 70, 100
1, 14248, Note_off_c, 0, 70, 100
1, 14248, Note_on_c, 0, 69, 100
1, 14286, Note_off_c, 0, 69, 100
1, 14286, Note_on_c, 0, 67, 100
1, 14324, Note_off_c, 0, 67, 100
1, 14324, Note_on_c, 0, 69, 100
1, 14482, Note_off_c, 0, 69, 100
1, 14482, Note_on_c, 0, 62, 100
1, 14506, Note_off_c, 0, 62, 100
1, 14506, Note_on_c, 0, 67, 100
1, 14530, Note_off_c, 0, 67, 100
1, 14530, Note_on_c, 0, 68, 100
1, 14554, Note_off_c, 0, 68, 100
1, 14554, Note_on_c, 0, 67, 100
1, 14563, Note_off_c, 0, 67, 100
1, 14563, Note_on_c, 0, 64, 100
1, 14582, Note_off_c, 0, 64, 100
1, 14582, Note_on_c, 0, 62, 100
1, 14620, Note_off_c, 0, 62, 100
1, 14620, Note_on_c, 0, 66, 100
1, 14639, Note_off_c, 0, 66, 100
1, 14639, Note_on_c, 0, 67, 100
1, 14648, Note_off_c, 0, 67, 100
1, 14648, Note_on_c, 0, 65, 100
1, 14657, Note_off_c, 0, 65, 100
1, 14657, Note_on_c, 0, 62, 100
1, 14695, Note_off_c, 0, 62, 100
1, 14695, Note_on_c, 0, 66, 100
1, 14704, Note_off_c, 0, 66, 100
1, 14704, Note_on_c, 0, 67, 100
1, 14713, Note_off_c, 0, 67, 100
1, 14713, Note_on_c, 0, 66, 100
1, 14722, Note_off_c, 0, 66, 100
1, 14722, Note_on_c, 0, 67, 100
1, 14731, Note_off_c, 0, 67, 100
1, 14731, Note_on_c, 0, 66, 100
1, 14740, Note_off_c, 0, 66, 100
1, 14740, Note_on_c, 0, 62, 100
1, 14782, Note_off_c, 0, 62, 100
1, 14782, Note_on_c, 0, 67, 100
1, 14792, Note_off_c, 0, 67, 100
1, 14792, Note_on_c, 0, 68, 100
1, 14802, Note_off_c, 0, 68, 100
1, 14802, Note_on_c, 0, 69, 100
1, 14812, Note_off_c, 0, 69, 100
1, 14812, Note_on_c, 0, 68, 100
1, 14822, Note_off_c, 0, 68, 100
1, 14822, Note_on_c, 0, 67, 100
1, 14832, Note_off_c, 0, 67, 100
1, 14832, Note_on_c, 0, 62, 100
1, 14864, Note_off_c, 0, 62, 100
1, 14864, Note_on_c, 0, 66, 100
1, 14874, Note_off_c, 0, 66, 100
1, 14874, Note_on_c, 0, 67, 100
1, 14884, Note_off_c, 0, 67, 100
1, 14884, Note_on_c, 0, 68, 100
1, 14905, Note_off_c, 0, 68, 100
1, 14905, Note_on_c, 0, 67, 100
1, 14915, Note_off_c, 0, 67, 100
1, 14915, Note_on_c, 0, 66, 100
1, 14925, Note_off_c, 0, 66, 100
1, 14925, Note_on_c, 0, 62, 100
1, 14965, Note_off_c, 0, 62, 100
1, 14965, Note_on_c, 0, 65, 100
1, 14975, Note_off_c, 0, 65, 100
1, 14975, Note_on_c, 0, 66, 100
1, 14985, Note_off_c, 0, 66, 100
1, 14985, Note_on_c, 0, 67, 100
1, 14995, Note_off_c, 0, 67, 100
1, 14995, Note_on_c, 0, 66, 100
1, 15005, Note_off_c, 0, 66, 100
1, 15005, Note_on_c, 0, 65, 100
1, 15015, Note_off_c, 0, 65, 100
1, 15015, Note_on_c, 0, 62, 100
1, 15055, Note_off_c, 0, 62, 100
1, 15055, Note_on_c, 0, 60, 100
1, 15065, Note_off_c, 0, 60, 100
1, 15065, Note_on_c, 0, 61, 100
1, 15085, Note_off_c, 0, 61, 100
1, 15085, Note_on_c, 0, 60, 100
1, 15105, Note_off_c, 0, 60, 100
1, 15105, Note_on_c, 0, 57, 100
1, 15134, Note_off_c, 0, 57, 100
1, 15134, Note_on_c, 0, 60, 100
1, 15143, Note_off_c, 0, 60, 100
1, 15143, Note_on_c, 0, 61, 100
1, 15152, Note_off_c, 0, 61, 100
1, 15152, Note_on_c, 0, 60, 100
1, 15180, Note_off_c, 0, 60, 100
1, 15180, Note_on_c, 0, 57, 100
1, 15218, Note_off_c, 0, 57, 100
1, 15218, Note_on_c, 0, 56, 100
1, 15227, Note_off_c, 0, 56, 100
1, 15227, Note_on_c, 0, 57, 100
1, 15236, Note_off_c, 0, 57, 100
1, 15236, Note_on_c, 0, 61, 100
1, 15245, Note_off_c, 0, 61, 100
1, 15245, Note_on_c, 0, 62, 100
1, 15254, Note_off_c, 0, 62, 100
1, 15254, Note_on_c, 0, 61, 100
1, 15263, Note_off_c, 0, 61, 100
1, 15263, Note_on_c, 0, 60, 100
1, 15291, Note_off_c, 0, 60, 100
1, 15291, Note_on_c, 0, 57, 100
1, 15300, Note_off_c, 0, 57, 100
1, 15300, Note_on_c, 0, 60, 100
1, 15396, Note_off_c, 0, 60, 100
1, 15396, Note_on_c, 0, 62, 100
1, 15636, Note_off_c, 0, 62, 100
1, 15636, Note_on_c, 0, 60, 100
1, 15660, Note_off_c, 0, 60, 100
1, 15660, Note_on_c, 0, 57, 100
1, 15684, Note_off_c, 0, 57, 100
1, 15684, Note_on_c, 0, 56, 100
1, 15876, Note_off_c, 0, 56, 100
1, 15876, Note_on_c, 0, 57, 100
1, 16068, Note_off_c, 0, 57, 100
1, 16068, Note_on_c, 0, 69, 100
1, 16336, Note_off_c, 0, 69, 100
1, 16336, Note_on_c, 0, 67, 100
1, 16374, Note_off_c, 0, 67, 100
1, 16374, Note_on_c, 0, 65, 100
1, 16412, Note_off_c, 0, 65, 100
1, 16412, Note_on_c, 0, 64, 100
1, 16604, Note_off_c, 0, 64, 100
1, 16895, Note_on_c, 0, 62, 100
1, 16921, Note_off_c, 0, 62, 100
1, 16921, Note_on_c, 0, 60, 100
1, 16947, Note_off_c, 0, 60, 100
1, 16947, Note_on_c, 0, 58, 100
1, 16964, Note_off_c, 0, 58, 100
1, 16964, Note_on_c, 0, 60, 100
1, 16981, Note_off_c, 0, 60, 100
1, 16981, Note_on_c, 0, 63, 100
1, 16989, Note_off_c, 0, 63, 100
1, 16989, Note_on_c, 0, 66, 100
1, 16997, Note_off_c, 0, 66, 100
1, 16997, Note_on_c, 0, 67, 100
1, 17005, Note_off_c, 0, 67, 100
1, 17005, Note_on_c, 0, 68, 100
1, 17013, Note_off_c, 0, 68, 100
1, 17013, Note_on_c, 0, 71, 100
1, 17021, Note_off_c, 0, 71, 100
1, 17021, Note_on_c, 0, 74, 100
1, 17069, Note_off_c, 0, 74, 100
1, 17069, Note_on_c, 0, 72, 100
1, 17117, Note_off_c, 0, 72, 100
1, 17117, Note_on_c, 0, 71, 100
1, 17165, Note_off_c, 0, 71, 100
1, 17165, Note_on_c, 0, 69, 100
1, 17213, Note_off_c, 0, 69, 100
1, 17213, Note_on_c, 0, 74, 100
1, 17261, Note_off_c, 0, 74, 100
1, 17261, Note_on_c, 0, 72, 100
1, 17309, Note_off_c, 0, 72, 100
1, 17309, Note_on_c, 0, 63, 100
1, 17501, Note_off_c, 0, 63, 100
1, 17501, Note_on_c, 0, 61, 100
1, 17549, Note_off_c, 0, 61, 100
1, 17549, Note_on_c, 0, 62, 100
1, 17597, Note_off_c, 0, 62, 100
1, 17597, Note_on_c, 0, 72, 100
1, 17789, Note_off_c, 0, 72, 100
1, 17789, Note_on_c, 0, 69, 100
1, 17933, Note_off_c, 0, 69, 100
1, 17933, Note_on_c, 0, 65, 100
1, 17981, Note_off_c, 0, 65, 100
1, 17981, Note_on_c, 0, 64, 100
1, 18221, Note_off_c, 0, 64, 100
1, 18221, Note_on_c, 0, 62, 100
1, 18269, Note_off_c, 0, 62, 100
1, 18269, Note_on_c, 0, 69, 100
1, 18317, Note_off_c, 0, 69, 100
1, 18317, Note_on_c, 0, 67, 100
1, 18365, Note_off_c, 0, 67, 100
1, 18365, Note_on_c, 0, 64, 100
1, 18509, Note_off_c, 0, 64, 100
1, 18509, Note_on_c, 0, 60, 100
1, 18557, Note_off_c, 0, 60, 100
1, 18557, Note_on_c, 0, 63, 100
1, 18701, Note_off_c, 0, 63, 100
1, 18701, Note_on_c, 0, 59, 100
1, 18749, Note_off_c, 0, 59, 100
1, 18749, Note_on_c, 0, 62, 100
1, 18893, Note_off_c, 0, 62, 100
1, 18893, Note_on_c, 0, 58, 100
1, 18941, Note_off_c, 0, 58, 100
1, 18941, Note_on_c, 0, 70, 100
1, 19085, Note_off_c, 0, 70, 100
1, 19085, Note_on_c, 0, 68, 100
1, 19133, Note_off_c, 0, 68, 100
1, 19133, Note_on_c, 0, 66, 100
1, 19277, Note_off_c, 0, 66, 100
1, 19277, Note_on_c, 0, 65, 100
1, 19325, Note_off_c, 0, 65, 100
1, 19325, Note_on_c, 0, 63, 100
1, 19469, Note_off_c, 0, 63, 100
1, 19469, Note_on_c, 0, 62, 100
1, 19517, Note_off_c, 0, 62, 100
1, 19517, Note_on_c, 0, 63, 100
1, 19757, Note_off_c, 0, 63, 100
1, 19757, Note_on_c, 0, 58, 100
1, 19805, Note_off_c, 0, 58, 100
1, 19805, Note_on_c, 0, 70, 100
1, 19853, Note_off_c, 0, 70, 100
1, 19853, Note_on_c, 0, 68, 100
1, 19901, Note_off_c, 0, 68, 100
1, 19901, Note_on_c, 0, 66, 100
1, 19949, Note_off_c, 0, 66, 100
1, 19949, Note_on_c, 0, 65, 100
1, 19997, Note_off_c, 0, 65, 100
1, 19997, Note_on_c, 0, 63, 100
1, 20045, Note_off_c, 0, 63, 100
1, 20045, Note_on_c, 0, 62, 100
1, 20093, Note_off_c, 0, 62, 100
1, 20093, Note_on_c, 0, 63, 100
1, 20370, Note_off_c, 0, 63, 100
1, 20370, Note_on_c, 0, 69, 100
1, 20391, Note_off_c, 0, 69, 100
1, 20391, Note_on_c, 0, 70, 100
1, 20412, Note_off_c, 0, 70, 100
1, 20412, Note_on_c, 0, 71, 100
1, 20433, Note_off_c, 0, 71, 100
1, 20433, Note_on_c, 0, 67, 100
1, 20454, Note_off_c, 0, 67, 100
1, 20454, Note_on_c, 0, 63, 100
1, 20475, Note_off_c, 0, 63, 100
1, 20475, Note_on_c, 0, 60, 100
1, 20527, Note_off_c, 0, 60, 100
1, 20527, Note_on_c, 0, 59, 100
1, 20561, Note_off_c, 0, 59, 100
1, 20561, Note_on_c, 0, 56, 100
1, 20595, Note_off_c, 0, 56, 100
1, 20595, Note_on_c, 0, 55, 100
1, 20612, Note_off_c, 0, 55, 100
1, 20612, Note_on_c, 0, 52, 100
1, 20629, Note_off_c, 0, 52, 100
1, 20629, Note_on_c, 0, 51, 100
1, 20646, Note_off_c, 0, 51, 100
1, 20646, Note_on_c, 0, 47, 100
1, 20663, Note_off_c, 0, 47, 100
1, 20663, Note_on_c, 0, 45, 100
1, 20711, Note_off_c, 0, 45, 100
1, 20711, Note_on_c, 0, 45, 100
1, 20759, Note_off_c, 0, 45, 100
1, 20759, Note_on_c, 0, 44, 100
1, 20999, Note_off_c, 0, 44, 100
1, 20999, Note_on_c, 0, 46, 100
1, 21047, Note_off_c, 0, 46, 100
1, 21047, Note_on_c, 0, 44, 100
1, 21095, Note_off_c, 0, 44, 100
1, 21095, Note_on_c, 0, 46, 100
1, 21335, Note_off_c, 0, 46, 100
1, 21335, Note_on_c, 0, 68, 100
1, 21383, Note_off_c, 0, 68, 100
1, 21383, Note_on_c, 0, 70, 100
1, 21431, Note_off_c, 0, 70, 100
1, 21431, Note_on_c, 0, 68, 100
1, 21479, Note_off_c, 0, 68, 100
1, 21479, Note_on_c, 0, 70, 100
1, 21527, Note_off_c, 0, 70, 100
1, 21527, Note_on_c, 0, 68, 100
1, 21575, Note_off_c, 0, 68, 100
1, 21575, Note_on_c, 0, 70, 100
1, 21623, Note_off_c, 0, 70, 100
1, 21623, Note_on_c, 0, 68, 100
1, 21661, Note_off_c, 0, 68, 100
1, 21661, Note_on_c, 0, 75, 100
1, 21699, Note_off_c, 0, 75, 100
1, 21699, Note_on_c, 0, 68, 100
1, 21737, Note_off_c, 0, 68, 100
1, 21737, Note_on_c, 0, 70, 100
1, 21775, Note_off_c, 0, 70, 100
1, 21775, Note_on_c, 0, 68, 100
1, 21813, Note_off_c, 0, 68, 100
1, 21813, Note_on_c, 0, 67, 100
1, 21909, Note_off_c, 0, 67, 100
1, 21909, Note_on_c, 0, 69, 100
1, 21957, Note_off_c, 0, 69, 100
1, 21957, Note_on_c, 0, 67, 100
1, 22005, Note_off_c, 0, 67, 100
1, 22005, Note_on_c, 0, 74, 100
1, 22101, Note_off_c, 0, 74, 100
1, 22101, Note_on_c, 0, 66, 100
1, 22149, Note_off_c, 0, 66, 100
1, 22149, Note_on_c, 0, 68, 100
1, 22197, Note_off_c, 0, 68, 100
1, 22197, Note_on_c, 0, 66, 100
1, 22245, Note_off_c, 0, 66, 100
1, 22245, Note_on_c, 0, 68, 100
1, 22581, Note_off_c, 0, 68, 100
1, 22581, Note_on_c, 0, 65, 100
1, 22605, Note_off_c, 0, 65, 100
1, 22605, Note_on_c, 0, 64, 100
1, 22629, Note_off_c, 0, 64, 100
1, 22629, Note_on_c, 0, 65, 100
1, 22653, Note_off_c, 0, 65, 100
1, 22653, Note_on_c, 0, 68, 100
1, 22677, Note_off_c, 0, 68, 100
1, 22677, Note_on_c, 0, 63, 100
1, 22701, Note_off_c, 0, 63, 100
1, 22701, Note_on_c, 0, 62, 100
1, 22725, Note_off_c, 0, 62, 100
1, 22725, Note_on_c, 0, 63, 100
1, 22749, Note_off_c, 0, 63, 100
1, 22749, Note_on_c, 0, 65, 100
1, 22773, Note_off_c, 0, 65, 100
1, 22773, Note_on_c, 0, 63, 100
1, 22800, Note_off_c, 0, 63, 100
1, 22800, Note_on_c, 0, 62, 100
1, 22827, Note_off_c, 0, 62, 100
1, 22827, Note_on_c, 0, 65, 100
1, 22854, Note_off_c, 0, 65, 100
1, 22854, Note_on_c, 0, 63, 100
1, 22881, Note_off_c, 0, 63, 100
1, 22881, Note_on_c, 0, 61, 100
1, 22908, Note_off_c, 0, 61, 100
1, 22908, Note_on_c, 0, 60, 100
1, 22935, Note_off_c, 0, 60, 100
1, 22935, Note_on_c, 0, 58, 100
1, 22962, Note_off_c, 0, 58, 100
1, 22962, Note_on_c, 0, 57, 100
1, 23058, Note_off_c, 0, 57, 100
1, 23058, Note_on_c, 0, 58, 100
1, 23154, Note_off_c, 0, 58, 100
1, 23154, Note_on_c, 0, 59, 100
1, 23250, Note_off_c, 0, 59, 100
1, 23250, Note_on_c, 0, 60, 100
1, 23346, Note_off_c, 0, 60, 100
1, 23346, Note_on_c, 0, 68, 100
1, 23442, Note_off_c, 0, 68, 100
1, 23442, Note_on_c, 0, 66, 100
1, 23538, Note_off_c, 0, 66, 100
1, 23538, Note_on_c, 0, 73, 100
1, 23634, Note_off_c, 0, 73, 100
1, 23634, Note_on_c, 0, 69, 100
1, 23730, Note_off_c, 0, 69, 100
1, 23730, Note_on_c, 0, 72, 100
1, 23826, Note_off_c, 0, 72, 100
1, 23826, Note_on_c, 0, 70, 100
1, 23922, Note_off_c, 0, 70, 100
1, 23922, Note_on_c, 0, 65, 100
1, 24018, Note_off_c, 0, 65, 100
1, 24018, Note_on_c, 0, 61, 100
1, 24114, Note_off_c, 0, 61, 100
1, 24114, Note_on_c, 0, 59, 100
1, 24210, Note_off_c, 0, 59, 100
1, 24210, Note_on_c, 0, 57, 100
1, 24306, Note_off_c, 0, 57, 100
1, 24306, Note_on_c, 0, 67, 100
1, 24402, Note_off_c, 0, 67, 100
1, 24402, Note_on_c, 0, 68, 100
1, 24498, Note_off_c, 0, 68, 100
1, 24498, Note_on_c, 0, 60, 100
1, 24786, Note_off_c, 0, 60, 100
1, 24786, Note_on_c, 0, 68, 100
1, 24834, Note_off_c, 0, 68, 100
1, 24834, Note_on_c, 0, 69, 100
1, 24882, Note_off_c, 0, 69, 100
1, 24882, Note_on_c, 0, 61, 100
1, 25218, Note_off_c, 0, 61, 100
1, 25218, Note_on_c, 0, 68, 100
1, 25266, Note_off_c, 0, 68, 100
1, 25266, Note_on_c, 0, 69, 100
1, 25314, Note_off_c, 0, 69, 100
1, 25314, Note_on_c, 0, 71, 100
1, 25362, Note_off_c, 0, 71, 100
1, 25362, Note_on_c, 0, 69, 100
1, 25506, Note_off_c, 0, 69, 100
1, 25506, Note_on_c, 0, 67, 100
1, 25554, Note_off_c, 0, 67, 100
1, 25554, Note_on_c, 0, 66, 100
1, 25602, Note_off_c, 0, 66, 100
1, 25602, Note_on_c, 0, 64, 100
1, 25650, Note_off_c, 0, 64, 100
1, 25650, Note_on_c, 0, 67, 100
1, 25746, Note_off_c, 0, 67, 100
1, 25746, Note_on_c, 0, 66, 100
1, 25842, Note_off_c, 0, 66, 100
1, 26130, Note_on_c, 0, 56, 100
1, 26178, Note_off_c, 0, 56, 100
1, 26178, Note_on_c, 0, 57, 100
1, 26226, Note_off_c, 0, 57, 100
1, 26226, Note_on_c, 0, 71, 100
1, 26274, Note_off_c, 0, 71, 100
1, 26274, Note_on_c, 0, 69, 100
1, 26322, Note_off_c, 0, 69, 100
1, 26322, Note_on_c, 0, 66, 100
1, 26370, Note_off_c, 0, 66, 100
1, 26370, Note_on_c, 0, 62, 100
1, 26418, Note_off_c, 0, 62, 100
1, 26418, Note_on_c, 0, 74, 100
1, 26658, Note_off_c, 0, 74, 100
1, 26658, Note_on_c, 0, 72, 100
1, 26706, Note_off_c, 0, 72, 100
1, 26706, Note_on_c, 0, 70, 100
1, 26754, Note_off_c, 0, 70, 100
1, 26754, Note_on_c, 0, 62, 100
1, 26850, Note_off_c, 0, 62, 100
1, 26850, Note_on_c, 0, 69, 100
1, 27058, Note_off_c, 0, 69, 100
1, 27058, Note_on_c, 0, 62, 100
1, 27122, Note_off_c, 0, 62, 100
1, 27122, Note_on_c, 0, 69, 100
1, 27154, Note_off_c, 0, 69, 100
1, 27154, Note_on_c, 0, 62, 100
1, 27186, Note_off_c, 0, 62, 100
1, 27186, Note_on_c, 0, 69, 100
1, 27474, Note_off_c, 0, 69, 100
1, 27474, Note_on_c, 0, 62, 100
1, 27522, Note_off_c, 0, 62, 100
1, 27522, Note_on_c, 0, 69, 100
1, 27570, Note_off_c, 0, 69, 100
1, 27570, Note_on_c, 0, 62, 100
1, 27634, Note_off_c, 0, 62, 100
1, 27634, Note_on_c, 0, 69, 100
1, 27858, Note_off_c, 0, 69, 100
1, 27858, Note_on_c, 0, 61, 100
1, 27906, Note_off_c, 0, 61, 100
1, 27906, Note_on_c, 0, 68, 100
1, 27954, Note_off_c, 0, 68, 100
1, 27954, Note_on_c, 0, 61, 100
1, 28002, Note_off_c, 0, 61, 100
1, 28002, Note_on_c, 0, 68, 100
1, 28194, Note_off_c, 0, 68, 100
1, 28194, Note_on_c, 0, 61, 100
1, 28242, Note_off_c, 0, 61, 100
1, 28242, Note_on_c, 0, 68, 100
1, 28290, Note_off_c, 0, 68, 100
1, 28290, Note_on_c, 0, 61, 100
1, 28338, Note_off_c, 0, 61, 100
1, 28338, Note_on_c, 0, 69, 100
1, 28530, Note_off_c, 0, 69, 100
1, 28962, Note_on_c, 0, 70, 100
1, 29010, Note_off_c, 0, 70, 100
1, 29010, Note_on_c, 0, 71, 100
1, 29058, Note_off_c, 0, 71, 100
1, 29058, Note_on_c, 0, 74, 100
1, 29144, Note_off_c, 0, 74, 100
1, 29144, Note_on_c, 0, 72, 100
1, 29182, Note_off_c, 0, 72, 100
1, 29182, Note_on_c, 0, 67, 100
1, 29220, Note_off_c, 0, 67, 100
1, 29220, Note_on_c, 0, 64, 100
1, 29258, Note_off_c, 0, 64, 100
1, 29258, Note_on_c, 0, 62, 100
1, 29334, Note_off_c, 0, 62, 100
1, 29334, Note_on_c, 0, 60, 100
1, 29372, Note_off_c, 0, 60, 100
1, 29372, Note_on_c, 0, 59, 100
1, 29448, Note_off_c, 0, 59, 100
1, 29448, Note_on_c, 0, 60, 100
1, 29486, Note_off_c, 0, 60, 100
1, 29486, Note_on_c, 0, 62, 100
1, 29524, Note_off_c, 0, 62, 100
1, 29524, Note_on_c, 0, 64, 100
1, 29562, Note_off_c, 0, 64, 100
1, 29562, Note_on_c, 0, 67, 100
1, 29600, Note_off_c, 0, 67, 100
1, 29600, Note_on_c, 0, 69, 100
1, 29638, Note_off_c, 0, 69, 100
1, 29638, Note_on_c, 0, 71, 100
1, 29676, Note_off_c, 0, 71, 100
1, 29676, Note_on_c, 0, 72, 100
1, 29708, Note_off_c, 0, 72, 100
1, 29708, Note_on_c, 0, 73, 100
1, 29804, Note_off_c, 0, 73, 100
1, 29804, Note_on_c, 0, 70, 100
1, 29836, Note_off_c, 0, 70, 100
1, 29836, Note_on_c, 0, 66, 100
1, 29868, Note_off_c, 0, 66, 100
1, 29868, Note_on_c, 0, 63, 100
1, 29916, Note_off_c, 0, 63, 100
1, 29916, Note_on_c, 0, 62, 100
1, 30132, Note_off_c, 0, 62, 100
1, 30132, Note_on_c, 0, 64, 100
1, 30156, Note_off_c, 0, 64, 100
1, 30156, Note_on_c, 0, 65, 100
1, 30180, Note_off_c, 0, 65, 100
1, 30180, Note_on_c, 0, 67, 100
1, 30204, Note_off_c, 0, 67, 100
1, 30204, Note_on_c, 0, 64, 100
1, 30228, Note_off_c, 0, 64, 100
1, 30228, Note_on_c, 0, 65, 100
1, 30252, Note_off_c, 0, 65, 100
1, 30252, Note_on_c, 0, 62, 100
1, 30279, Note_off_c, 0, 62, 100
1, 30279, Note_on_c, 0, 64, 100
1, 30306, Note_off_c, 0, 64, 100
1, 30306, Note_on_c, 0, 65, 100
1, 30333, Note_off_c, 0, 65, 100
1, 30333, Note_on_c, 0, 67, 100
1, 30360, Note_off_c, 0, 67, 100
1, 30360, Note_on_c, 0, 69, 100
1, 30490, Note_off_c, 0, 69, 100
1, 30490, Note_on_c, 0, 72, 100
1, 30514, Note_off_c, 0, 72, 100
1, 30514, Note_on_c, 0, 71, 100
1, 30562, Note_off_c, 0, 71, 100
1, 30562, Note_on_c, 0, 69, 100
1, 30586, Note_off_c, 0, 69, 100
1, 30586, Note_on_c, 0, 67, 100
1, 30610, Note_off_c, 0, 67, 100
1, 30610, Note_on_c, 0, 65, 100
1, 30634, Note_off_c, 0, 65, 100
1, 30634, Note_on_c, 0, 64, 100
1, 30730, Note_off_c, 0, 64, 100
1, 30730, Note_on_c, 0, 60, 100
1, 30826, Note_off_c, 0, 60, 100
1, 30826, Note_on_c, 0, 63, 100
1, 30970, Note_off_c, 0, 63, 100
1, 30970, Note_on_c, 0, 60, 100
1, 31018, Note_off_c, 0, 60, 100
1, 31018, Note_on_c, 0, 62, 100
1, 31114, Note_off_c, 0, 62, 100
1, 31114, Note_on_c, 0, 63, 100
1, 31146, Note_off_c, 0, 63, 100
1, 31146, Note_on_c, 0, 64, 100
1, 31178, Note_off_c, 0, 64, 100
1, 31178, Note_on_c, 0, 65, 100
1, 31234, Note_off_c, 0, 65, 100
1, 31234, Note_on_c, 0, 73, 100
1, 31330, Note_off_c, 0, 73, 100
1, 31330, Note_on_c, 0, 72, 100
1, 31354, Note_off_c, 0, 72, 100
1, 31354, Note_on_c, 0, 71, 100
1, 31378, Note_off_c, 0, 71, 100
1, 31378, Note_on_c, 0, 70, 100
1, 31402, Note_off_c, 0, 70, 100
1, 31402, Note_on_c, 0, 68, 100
1, 31450, Note_off_c, 0, 68, 100
1, 31450, Note_on_c, 0, 66, 100
1, 31850, Note_off_c, 0, 66, 100
1, 31850, Note_on_c, 0, 71, 100
1, 31914, Note_off_c, 0, 71, 100
1, 31914, Note_on_c, 0, 70, 100
1, 31935, Note_off_c, 0, 70, 100
1, 31935, Note_on_c, 0, 68, 100
1, 31956, Note_off_c, 0, 68, 100
1, 31956, Note_on_c, 0, 66, 100
1, 31977, Note_off_c, 0, 66, 100
1, 31977, Note_on_c, 0, 65, 100
1, 32025, Note_off_c, 0, 65, 100
1, 32025, Note_on_c, 0, 63, 100
1, 32073, Note_off_c, 0, 63, 100
1, 32073, Note_on_c, 0, 62, 100
1, 32278, Note_off_c, 0, 62, 100
1, 32278, Note_on_c, 0, 69, 100
1, 32305, Note_off_c, 0, 69, 100
1, 32305, Note_on_c, 0, 70, 100
1, 32332, Note_off_c, 0, 70, 100
1, 32332, Note_on_c, 0, 68, 100
1, 32359, Note_off_c, 0, 68, 100
1, 32359, Note_on_c, 0, 66, 100
1, 32397, Note_off_c, 0, 66, 100
1, 32397, Note_on_c, 0, 65, 100
1, 32435, Note_off_c, 0, 65, 100
1, 32435, Note_on_c, 0, 63, 100
1, 32473, Note_off_c, 0, 63, 100
1, 32473, Note_on_c, 0, 61, 100
1, 32511, Note_off_c, 0, 61, 100
1, 32511, Note_on_c, 0, 60, 100
1, 32693, Note_off_c, 0, 60, 100
1, 32693, Note_on_c, 0, 70, 100
1, 32741, Note_off_c, 0, 70, 100
1, 32741, Note_on_c, 0, 71, 100
1, 32775, Note_off_c, 0, 71, 100
1, 32775, Note_on_c, 0, 69, 100
1, 32809, Note_off_c, 0, 69, 100
1, 32809, Note_on_c, 0, 68, 100
1, 32843, Note_off_c, 0, 68, 100
1, 32843, Note_on_c, 0, 66, 100
1, 32860, Note_off_c, 0, 66, 100
1, 32860, Note_on_c, 0, 64, 100
1, 32877, Note_off_c, 0, 64, 100
1, 32877, Note_on_c, 0, 63, 100
1, 32894, Note_off_c, 0, 63, 100
1, 32894, Note_on_c, 0, 61, 100
1, 32911, Note_off_c, 0, 61, 100
1, 32911, Note_on_c, 0, 60, 100
1, 32928, Note_off_c, 0, 60, 100
1, 32928, Note_on_c, 0, 58, 100
1, 32976, Note_off_c, 0, 58, 100
1, 32976, Note_on_c, 0, 57, 100
1, 33024, Note_off_c, 0, 57, 100
1, 33024, Note_on_c, 0, 56, 100
1, 33152, Note_off_c, 0, 56, 100
1, 33152, Note_on_c, 0, 56, 100
1, 33184, Note_off_c, 0, 56, 100
1, 33184, Note_on_c, 0, 57, 100
1, 33216, Note_off_c, 0, 57, 100
1, 33216, Note_on_c, 0, 58, 100
1, 33248, Note_off_c, 0, 58, 100
1, 33248, Note_on_c, 0, 53, 100
1, 33280, Note_off_c, 0, 53, 100
1, 33280, Note_on_c, 0, 54, 100
1, 33312, Note_off_c, 0, 54, 100
1, 33312, Note_on_c, 0, 56, 100
1, 33580, Note_off_c, 0, 56, 100
1, 33580, Note_on_c, 0, 58, 100
1, 33618, Note_off_c, 0, 58, 100
1, 33618, Note_on_c, 0, 60, 100
1, 33656, Note_off_c, 0, 60, 100
1, 33656, Note_on_c, 0, 61, 100
1, 33694, Note_off_c, 0, 61, 100
1, 33694, Note_on_c, 0, 62, 100
1, 33732, Note_off_c, 0, 62, 100
1, 33732, Note_on_c, 0, 63, 100
1, 33808, Note_off_c, 0, 63, 100
1, 33808, Note_on_c, 0, 63, 100
1, 33846, Note_off_c, 0, 63, 100
1, 33846, Note_on_c, 0, 63, 100
1, 33884, Note_off_c, 0, 63, 100
1, 33884, Note_on_c, 0, 63, 100
1, 34012, Note_off_c, 0, 63, 100
1, 34012, Note_on_c, 0, 61, 100
1, 34076, Note_off_c, 0, 61, 100
1, 34076, Note_on_c, 0, 68, 100
1, 34220, Note_off_c, 0, 68, 100
1, 34220, Note_on_c, 0, 66, 100
1, 34268, Note_off_c, 0, 66, 100
1, 34268, Note_on_c, 0, 65, 100
1, 34364, Note_off_c, 0, 65, 100
1, 34364, Note_on_c, 0, 63, 100
1, 34460, Note_off_c, 0, 63, 100
1, 34460, Note_on_c, 0, 61, 100
1, 34892, Note_off_c, 0, 61, 100
1, 34892, Note_on_c, 0, 73, 100
1, 34940, Note_off_c, 0, 73, 100
1, 34940, Note_on_c, 0, 72, 100
1, 34988, Note_off_c, 0, 72, 100
1, 34988, Note_on_c, 0, 73, 100
1, 35036, Note_off_c, 0, 73, 100
1, 35036, Note_on_c, 0, 70, 100
1, 35074, Note_off_c, 0, 70, 100
1, 35074, Note_on_c, 0, 69, 100
1, 35112, Note_off_c, 0, 69, 100
1, 35112, Note_on_c, 0, 70, 100
1, 35150, Note_off_c, 0, 70, 100
1, 35150, Note_on_c, 0, 66, 100
1, 35188, Note_off_c, 0, 66, 100
1, 35188, Note_on_c, 0, 58, 100
1, 35226, Note_off_c, 0, 58, 100
1, 35226, Note_on_c, 0, 61, 100
1, 35274, Note_off_c, 0, 61, 100
1, 35274, Note_on_c, 0, 64, 100
1, 35322, Note_off_c, 0, 64, 100
1, 35322, Note_on_c, 0, 65, 100
1, 35533, Note_off_c, 0, 65, 100
1, 35533, Note_on_c, 0, 63, 100
1, 35571, Note_off_c, 0, 63, 100
1, 35571, Note_on_c, 0, 65, 100
1, 35609, Note_off_c, 0, 65, 100
1, 35609, Note_on_c, 0, 68, 100
1, 35657, Note_off_c, 0, 68, 100
1, 35657, Note_on_c, 0, 68, 100
1, 35705, Note_off_c, 0, 68, 100
1, 35705, Note_on_c, 0, 68, 100
1, 35753, Note_off_c, 0, 68, 100
1, 35753, Note_on_c, 0, 68, 100
1, 35849, Note_off_c, 0, 68, 100
1, 35849, Note_on_c, 0, 68, 100
1, 35945, Note_off_c, 0, 68, 100
1, 35945, Note_on_c, 0, 65, 100
1, 35993, Note_off_c, 0, 65, 100
1, 35993, Note_on_c, 0, 61, 100
1, 36125, Note_off_c, 0, 61, 100
1, 36125, Note_on_c, 0, 63, 100
1, 36139, Note_off_c, 0, 63, 100
1, 36139, Note_on_c, 0, 65, 100
1, 36153, Note_off_c, 0, 65, 100
1, 36153, Note_on_c, 0, 66, 100
1, 36167, Note_off_c, 0, 66, 100
1, 36167, Note_on_c, 0, 68, 100
1, 36233, Note_off_c, 0, 68, 100
1, 36233, Note_on_c, 0, 64, 100
1, 36238, Note_off_c, 0, 64, 100
1, 36238, Note_on_c, 0, 66, 100
1, 36243, Note_off_c, 0, 66, 100
1, 36243, Note_on_c, 0, 71, 100
1, 36248, Note_off_c, 0, 71, 100
1, 36248, Note_on_c, 0, 69, 100
1, 36253, Note_off_c, 0, 69, 100
1, 36253, Note_on_c, 0, 68, 100
1, 36258, Note_off_c, 0, 68, 100
1, 36258, Note_on_c, 0, 66, 100
1, 36263, Note_off_c, 0, 66, 100
1, 36263, Note_on_c, 0, 64, 100
1, 36268, Note_off_c, 0, 64, 100
1, 36268, Note_on_c, 0, 65, 100
1, 36273, Note_off_c, 0, 65, 100
1, 36273, Note_on_c, 0, 64, 100
1, 36278, Note_off_c, 0, 64, 100
1, 36278, Note_on_c, 0, 63, 100
1, 36283, Note_off_c, 0, 63, 100
1, 36283, Note_on_c, 0, 61, 100
1, 36288, Note_off_c, 0, 61, 100
1, 36288, Note_on_c, 0, 59, 100
1, 36293, Note_off_c, 0, 59, 100
1, 36293, Note_on_c, 0, 57, 100
1, 36298, Note_off_c, 0, 57, 100
1, 36298, Note_on_c, 0, 56, 100
1, 36303, Note_off_c, 0, 56, 100
1, 36303, Note_on_c, 0, 54, 100
1, 36308, Note_off_c, 0, 54, 100
1, 36308, Note_on_c, 0, 56, 100
1, 36318, Note_off_c, 0, 56, 100
1, 36318, Note_on_c, 0, 56, 100
1, 36323, Note_off_c, 0, 56, 100
1, 36323, Note_on_c, 0, 55, 100
1, 36328, Note_off_c, 0, 55, 100
1, 36328, Note_on_c, 0, 54, 100
1, 36333, Note_off_c, 0, 54, 100
1, 36333, Note_on_c, 0, 52, 100
1, 36338, Note_off_c, 0, 52, 100
1, 36338, Note_on_c, 0, 51, 100
1, 36343, Note_off_c, 0, 51, 100
1, 36343, Note_on_c, 0, 49, 100
1, 36348, Note_off_c, 0, 49, 100
1, 36348, Note_on_c, 0, 47, 100
1, 36353, Note_off_c, 0, 47, 100
1, 36353, Note_on_c, 0, 45, 100
1, 36358, Note_off_c, 0, 45, 100
1, 36358, Note_on_c, 0, 44, 100
1, 37363, Note_off_c, 0, 44, 100
1, 37363, End_track
0, 0, End_of_file
