0, 0, Header, 1, 1, 192
1, 0, Start_track
1, 0, Title_t, "Melody"
1, 0, Tempo, 208333
1, 0, Key_signature, -1, "major"
1, 0, Time_signature, 4, 2, 24, 8
1, 576, Note_on_c, 0, 74, 100
1, 768, Note_off_c, 0, 74, 100
1, 768, Note_on_c, 0, 74, 100
1, 960, Note_off_c, 0, 74, 100
1, 960, Note_on_c, 0, 71, 100
1, 1152, Note_off_c, 0, 71, 100
1, 1152, Note_on_c, 0, 71, 100
1, 1344, Note_off_c, 0, 71, 100
1, 1344, Note_on_c, 0, 68, 100
1, 1536, Note_off_c, 0, 68, 100
1, 1536, Note_on_c, 0, 68, 100
1, 1728, Note_off_c, 0, 68, 100
1, 1728, Note_on_c, 0, 65, 100
1, 1920, Note_off_c, 0, 65, 100
1, 1920, Note_on_c, 0, 65, 100
1, 2112, Note_off_c, 0, 65, 100
1, 2112, Note_on_c, 0, 62, 100
1, 2304, Note_off_c, 0, 62, 100
1, 2304, Note_on_c, 0, 62, 100
1, 2496, Note_off_c, 0, 62, 100
1, 2496, Note_on_c, 0, 65, 100
1, 2688, Note_off_c, 0, 65, 100
1, 2688, Note_on_c, 0, 65, 100
1, 2880, Note_off_c, 0, 65, 100
1, 2880, Note_on_c, 0, 67, 100
1, 3072, Note_off_c, 0, 67, 100
1, 3072, Note_on_c, 0, 67, 100
1, 3264, Note_off_c, 0, 67, 100
1, 3264, Note_on_c, 0, 68, 100
1, 3504, Note_off_c, 0, 68, 100
1, 3504, Note_on_c, 0, 65, 100
1, 3600, Note_off_c, 0, 65, 100
1, 3600, Note_on_c, 0, 61, 100
1, 3648, Note_off_c, 0, 61, 100
1, 3648, Note_on_c, 0, 58, 100
1, 3744, Note_off_c, 0, 58, 100
1, 3744, Note_on_c, 0, 55, 100
1, 3936, Note_off_c, 0, 55, 100
1, 3936, Note_on_c, 0, 72, 100
1, 4224, Note_off_c, 0, 72, 100
1, 4224, Note_on_c, 0, 70, 100
1, 4320, Note_off_c, 0, 70, 100
1, 4320, Note_on_c, 0, 69, 100
1, 4416, Note_off_c, 0, 69, 100
1, 4416, Note_on_c, 0, 67, 100
1, 4512, Note_off_c, 0, 67, 100
1, 4512, Note_on_c, 0, 66, 100
1, 4608, Note_off_c, 0, 66, 100
1, 4608, Note_on_c, 0, 65, 100
1, 4704, Note_off_c, 0, 65, 100
1, 4704, Note_on_c, 0, 60, 100
1, 4800, Note_off_c, 0, 60, 100
1, 4800, Note_on_c, 0, 57, 100
1, 4896, Note_off_c, 0, 57, 100
1, 4896, Note_on_c, 0, 55, 100
1, 4992, Note_off_c, 0, 55, 100
1, 4992, Note_on_c, 0, 63, 100
1, 5184, Note_off_c, 0, 63, 100
1, 5184, Note_on_c, 0, 62, 100
1, 5280, Note_off_c, 0, 62, 100
1, 5280, Note_on_c, 0, 60, 100
1, 5376, Note_off_c, 0, 60, 100
1, 5376, Note_on_c, 0, 59, 100
1, 5472, Note_off_c, 0, 59, 100
1, 5472, Note_on_c, 0, 62, 100
1, 5568, Note_off_c, 0, 62, 100
1, 5568, Note_on_c, 0, 65, 100
1, 5664, Note_off_c, 0, 65, 100
1, 5664, Note_on_c, 0, 69, 100
1, 5760, Note_off_c, 0, 69, 100
1, 5760, Note_on_c, 0, 68, 100
1, 5808, Note_off_c, 0, 68, 100
1, 5808, Note_on_c, 0, 63, 100
1, 5904, Note_off_c, 0, 63, 100
1, 5904, Note_on_c, 0, 64, 100
1, 6048, Note_off_c, 0, 64, 100
1, 6048, Note_on_c, 0, 67, 100
1, 6144, Note_off_c, 0, 67, 100
1, 6144, Note_on_c, 0, 65, 100
1, 6240, Note_off_c, 0, 65, 100
1, 6240, Note_on_c, 0, 62, 100
1, 6432, Note_off_c, 0, 62, 100
1, 7008, Note_on_c, 0, 62, 100
1, 7104, Note_off_c, 0, 62, 100
1, 7104, Note_on_c, 0, 65, 100
1, 7152, Note_off_c, 0, 65, 100
1, 7152, Note_on_c, 0, 66, 100
1, 7200, Note_off_c, 0, 66, 100
1, 7200, Note_on_c, 0, 65, 100
1, 7248, Note_off_c, 0, 65, 100
1, 7248, Note_on_c, 0, 62, 100
1, 7392, Note_off_c, 0, 62, 100
1, 7392, Note_on_c, 0, 60, 100
1, 7488, Note_off_c, 0, 60, 100
1, 7488, Note_on_c, 0, 57, 100
1, 7584, Note_off_c, 0, 57, 100
1, 7584, Note_on_c, 0, 53, 100
1, 7680, Note_off_c, 0, 53, 100
1, 7680, Note_on_c, 0, 65, 100
1, 7968, Note_off_c, 0, 65, 100
1, 7968, Note_on_c, 0, 62, 100
1, 8064, Note_off_c, 0, 62, 100
1, 8544, Note_on_c, 0, 62, 100
1, 8640, Note_off_c, 0, 62, 100
1, 8640, Note_on_c, 0, 67, 100
1, 8736, Note_off_c, 0, 67, 100
1, 8736, Note_on_c, 0, 67, 100
1, 8832, Note_off_c, 0, 67, 100
1, 8832, Note_on_c, 0, 65, 100
1, 8928, Note_off_c, 0, 65, 100
1, 8928, Note_on_c, 0, 62, 100
1, 9024, Note_off_c, 0, 62, 100
1, 9024, Note_on_c, 0, 58, 100
1, 9168, Note_off_c, 0, 58, 100
1, 9168, Note_on_c, 0, 64, 100
1, 9312, Note_off_c, 0, 64, 100
1, 9312, Note_on_c, 0, 65, 100
1, 9552, Note_off_c, 0, 65, 100
1, 9552, Note_on_c, 0, 62, 100
1, 9600, Note_off_c, 0, 62, 100
1, 9600, Note_on_c, 0, 64, 100
1, 9792, Note_off_c, 0, 64, 100
1, 9792, Note_on_c, 0, 67, 100
1, 9984, Note_off_c, 0, 67, 100
1, 9984, Note_on_c, 0, 69, 100
1, 10112, Note_off_c, 0, 69, 100
1, 10112, Note_on_c, 0, 69, 100
1, 10272, Note_off_c, 0, 69, 100
1, 10272, Note_on_c, 0, 69, 100
1, 10656, Note_off_c, 0, 69, 100
1, 10656, Note_on_c, 0, 60, 100
1, 10848, Note_off_c, 0, 60, 100
1, 10848, Note_on_c, 0, 60, 100
1, 11040, Note_off_c, 0, 60, 100
1, 11040, Note_on_c, 0, 64, 100
1, 11136, Note_off_c, 0, 64, 100
1, 11136, Note_on_c, 0, 67, 100
1, 11232, Note_off_c, 0, 67, 100
1, 11232, Note_on_c, 0, 65, 100
1, 11328, Note_off_c, 0, 65, 100
1, 11328, Note_on_c, 0, 64, 100
1, 11424, Note_off_c, 0, 64, 100
1, 11424, Note_on_c, 0, 67, 100
1, 11520, Note_off_c, 0, 67, 100
1, 11520, Note_on_c, 0, 65, 100
1, 11616, Note_off_c, 0, 65, 100
1, 11616, Note_on_c, 0, 61, 100
1, 11712, Note_off_c, 0, 61, 100
1, 11712, Note_on_c, 0, 58, 100
1, 11840, Note_off_c, 0, 58, 100
1, 11840, Note_on_c, 0, 53, 100
1, 11904, Note_off_c, 0, 53, 100
1, 11904, Note_on_c, 0, 57, 100
1, 12000, Note_off_c, 0, 57, 100
1, 12000, Note_on_c, 0, 53, 100
1, 12096, Note_off_c, 0, 53, 100
1, 12096, Note_on_c, 0, 58, 100
1, 12192, Note_off_c, 0, 58, 100
1, 12192, Note_on_c, 0, 59, 100
1, 12288, Note_off_c, 0, 59, 100
1, 12288, Note_on_c, 0, 60, 100
1, 12384, Note_off_c, 0, 60, 100
1, 12384, Note_on_c, 0, 65, 100
1, 12480, Note_off_c, 0, 65, 100
1, 12480, Note_on_c, 0, 64, 100
1, 12576, Note_off_c, 0, 64, 100
1, 12576, Note_on_c, 0, 62, 100
1, 12624, Note_off_c, 0, 62, 100
1, 12624, Note_on_c, 0, 63, 100
1, 12768, Note_off_c, 0, 63, 100
1, 12768, Note_on_c, 0, 55, 100
1, 12816, Note_off_c, 0, 55, 100
1, 12816, Note_on_c, 0, 58, 100
1, 12960, Note_off_c, 0, 58, 100
1, 12960, Note_on_c, 0, 60, 100
1, 13056, Note_off_c, 0, 60, 100
1, 13056, Note_on_c, 0, 62, 100
1, 13152, Note_off_c, 0, 62, 100
1, 13152, Note_on_c, 0, 63, 100
1, 13248, Note_off_c, 0, 63, 100
1, 13248, Note_on_c, 0, 62, 100
1, 13344, Note_off_c, 0, 62, 100
1, 13344, Note_on_c, 0, 60, 100
1, 13440, Note_off_c, 0, 60, 100
1, 13440, Note_on_c, 0, 59, 100
1, 13536, Note_off_c, 0, 59, 100
1, 13536, Note_on_c, 0, 57, 100
1, 13632, Note_off_c, 0, 57, 100
1, 13632, Note_on_c, 0, 56, 100
1, 13728, Note_off_c, 0, 56, 100
1, 13728, Note_on_c, 0, 54, 100
1, 13824, Note_off_c, 0, 54, 100
1, 13824, Note_on_c, 0, 53, 100
1, 13920, Note_off_c, 0, 53, 100
1, 13920, Note_on_c, 0, 55, 100
1, 13968, Note_off_c, 0, 55, 100
1, 13968, Note_on_c, 0, 58, 100
1, 14016, Note_off_c, 0, 58, 100
1, 14016, Note_on_c, 0, 62, 100
1, 14208, Note_off_c, 0, 62, 100
1, 14208, Note_on_c, 0, 57, 100
1, 14304, Note_off_c, 0, 57, 100
1, 14304, Note_on_c, 0, 60, 100
1, 14400, Note_off_c, 0, 60, 100
1, 14400, Note_on_c, 0, 63, 100
1, 14496, Note_off_c, 0, 63, 100
1, 14496, Note_on_c, 0, 67, 100
1, 14592, Note_off_c, 0, 67, 100
1, 14592, Note_on_c, 0, 65, 100
1, 14688, Note_off_c, 0, 65, 100
1, 15552, Note_on_c, 0, 71, 100
1, 15648, Note_off_c, 0, 71, 100
1, 15648, Note_on_c, 0, 72, 100
1, 15696, Note_off_c, 0, 72, 100
1, 15696, Note_on_c, 0, 71, 100
1, 15744, Note_off_c, 0, 71, 100
1, 15744, Note_on_c, 0, 70, 100
1, 15840, Note_off_c, 0, 70, 100
1, 15840, Note_on_c, 0, 68, 100
1, 15936, Note_off_c, 0, 68, 100
1, 15936, Note_on_c, 0, 67, 100
1, 16032, Note_off_c, 0, 67, 100
1, 16032, Note_on_c, 0, 66, 100
1, 16128, Note_off_c, 0, 66, 100
1, 16128, Note_on_c, 0, 65, 100
1, 16176, Note_off_c, 0, 65, 100
1, 16176, Note_on_c, 0, 63, 100
1, 16272, Note_off_c, 0, 63, 100
1, 16272, Note_on_c, 0, 61, 100
1, 16416, Note_off_c, 0, 61, 100
1, 16416, Note_on_c, 0, 60, 100
1, 16512, Note_off_c, 0, 60, 100
1, 16512, Note_on_c, 0, 58, 100
1, 16560, Note_off_c, 0, 58, 100
1, 16560, Note_on_c, 0, 60, 100
1, 16656, Note_off_c, 0, 60, 100
1, 16656, Note_on_c, 0, 61, 100
1, 16800, Note_off_c, 0, 61, 100
1, 16800, Note_on_c, 0, 62, 100
1, 16896, Note_off_c, 0, 62, 100
1, 16896, Note_on_c, 0, 63, 100
1, 16992, Note_off_c, 0, 63, 100
1, 16992, Note_on_c, 0, 60, 100
1, 17088, Note_off_c, 0, 60, 100
1, 17088, Note_on_c, 0, 55, 100
1, 17184, Note_off_c, 0, 55, 100
1, 17184, Note_on_c, 0, 51, 100
1, 17232, Note_off_c, 0, 51, 100
1, 17232, Note_on_c, 0, 54, 100
1, 17376, Note_off_c, 0, 54, 100
1, 17376, Note_on_c, 0, 63, 100
1, 17472, Note_off_c, 0, 63, 100
1, 17472, Note_on_c, 0, 62, 100
1, 17568, Note_off_c, 0, 62, 100
1, 17568, Note_on_c, 0, 60, 100
1, 17664, Note_off_c, 0, 60, 100
1, 17664, Note_on_c, 0, 61, 100
1, 17808, Note_off_c, 0, 61, 100
1, 17808, Note_on_c, 0, 53, 100
1, 17952, Note_off_c, 0, 53, 100
1, 17952, Note_on_c, 0, 51, 100
1, 18048, Note_off_c, 0, 51, 100
1, 18048, Note_on_c, 0, 52, 100
1, 18144, Note_off_c, 0, 52, 100
1, 18144, Note_on_c, 0, 59, 100
1, 18240, Note_off_c, 0, 59, 100
1, 18240, Note_on_c, 0, 60, 100
1, 18816, Note_off_c, 0, 60, 100
1, 19104, Note_on_c, 0, 55, 100
1, 19200, Note_off_c, 0, 55, 100
1, 19200, Note_on_c, 0, 57, 100
1, 19296, Note_off_c, 0, 57, 100
1, 19296, Note_on_c, 0, 60, 100
1, 19392, Note_off_c, 0, 60, 100
1, 19392, Note_on_c, 0, 62, 100
1, 19488, Note_off_c, 0, 62, 100
1, 19488, Note_on_c, 0, 65, 100
1, 19680, Note_off_c, 0, 65, 100
1, 20544, Note_on_c, 0, 67, 100
1, 20640, Note_off_c, 0, 67, 100
1, 20640, Note_on_c, 0, 66, 100
1, 20736, Note_off_c, 0, 66, 100
1, 20736, Note_on_c, 0, 65, 100
1, 20832, Note_off_c, 0, 65, 100
1, 20832, Note_on_c, 0, 62, 100
1, 20928, Note_off_c, 0, 62, 100
1, 20928, Note_on_c, 0, 59, 100
1, 21312, Note_off_c, 0, 59, 100
1, 22272, Note_on_c, 0, 67, 100
1, 22368, Note_off_c, 0, 67, 100
1, 22368, Note_on_c, 0, 69, 100
1, 22560, Note_off_c, 0, 69, 100
1, 22560, Note_on_c, 0, 65, 100
1, 22608, Note_off_c, 0, 65, 100
1, 22608, Note_on_c, 0, 62, 100
1, 22752, Note_off_c, 0, 62, 100
1, 22752, Note_on_c, 0, 60, 100
1, 22848, Note_off_c, 0, 60, 100
1, 23488, Note_on_c, 0, 60, 100
1, 23616, Note_off_c, 0, 60, 100
1, 23616, Note_on_c, 0, 62, 100
1, 23712, Note_off_c, 0, 62, 100
1, 23712, Note_on_c, 0, 65, 100
1, 23808, Note_off_c, 0, 65, 100
1, 23808, Note_on_c, 0, 69, 100
1, 23904, Note_off_c, 0, 69, 100
1, 24288, Note_on_c, 0, 60, 100
1, 24384, Note_off_c, 0, 60, 100
1, 24384, Note_on_c, 0, 62, 100
1, 24480, Note_off_c, 0, 62, 100
1, 24480, Note_on_c, 0, 65, 100
1, 24576, Note_off_c, 0, 65, 100
1, 24576, Note_on_c, 0, 70, 100
1, 24672, Note_off_c, 0, 70, 100
1, 24672, Note_on_c, 0, 60, 100
1, 24768, Note_off_c, 0, 60, 100
1, 24768, Note_on_c, 0, 62, 100
1, 24864, Note_off_c, 0, 62, 100
1, 24864, Note_on_c, 0, 65, 100
1, 24960, Note_off_c, 0, 65, 100
1, 24960, Note_on_c, 0, 71, 100
1, 25104, Note_off_c, 0, 71, 100
1, 25104, Note_on_c, 0, 60, 100
1, 25152, Note_off_c, 0, 60, 100
1, 25152, Note_on_c, 0, 62, 100
1, 25248, Note_off_c, 0, 62, 100
1, 25248, Note_on_c, 0, 65, 100
1, 25344, Note_off_c, 0, 65, 100
1, 25344, Note_on_c, 0, 72, 100
1, 25536, Note_off_c, 0, 72, 100
1, 25536, Note_on_c, 0, 71, 100
1, 25632, Note_off_c, 0, 71, 100
1, 25632, Note_on_c, 0, 72, 100
1, 25776, Note_off_c, 0, 72, 100
1, 25776, Note_on_c, 0, 69, 100
1, 25872, Note_off_c, 0, 69, 100
1, 25872, Note_on_c, 0, 69, 100
1, 26064, Note_off_c, 0, 69, 100
1, 26064, Note_on_c, 0, 65, 100
1, 26400, Note_off_c, 0, 65, 100
1, 26400, Note_on_c, 0, 62, 100
1, 26496, Note_off_c, 0, 62, 100
1, 27264, Note_on_c, 0, 65, 100
1, 27456, Note_off_c, 0, 65, 100
1, 27456, Note_on_c, 0, 68, 100
1, 27648, Note_off_c, 0, 68, 100
1, 27648, Note_on_c, 0, 70, 100
1, 27744, Note_off_c, 0, 70, 100
1, 27744, Note_on_c, 0, 71, 100
1, 27840, Note_off_c, 0, 71, 100
1, 27840, Note_on_c, 0, 70, 100
1, 28032, Note_off_c, 0, 70, 100
1, 28032, Note_on_c, 0, 68, 100
1, 28224, Note_off_c, 0, 68, 100
1, 28224, Note_on_c, 0, 65, 100
1, 28416, Note_off_c, 0, 65, 100
1, 28416, Note_on_c, 0, 63, 100
1, 28608, Note_off_c, 0, 63, 100
1, 28608, Note_on_c, 0, 60, 100
1, 28752, Note_off_c, 0, 60, 100
1, 28752, Note_on_c, 0, 64, 100
1, 28992, Note_off_c, 0, 64, 100
1, 28992, Note_on_c, 0, 60, 100
1, 29088, Note_off_c, 0, 60, 100
1, 29088, Note_on_c, 0, 65, 100
1, 29440, Note_off_c, 0, 65, 100
1, 29440, Note_on_c, 0, 64, 100
1, 29504, Note_off_c, 0, 64, 100
1, 29504, Note_on_c, 0, 62, 100
1, 29568, Note_off_c, 0, 62, 100
1, 29568, Note_on_c, 0, 60, 100
1, 29664, Note_off_c, 0, 60, 100
1, 30432, Note_on_c, 0, 60, 100
1, 30528, Note_off_c, 0, 60, 100
1, 30528, Note_on_c, 0, 62, 100
1, 30624, Note_off_c, 0, 62, 100
1, 30624, Note_on_c, 0, 64, 100
1, 30720, Note_off_c, 0, 64, 100
1, 30720, Note_on_c, 0, 65, 100
1, 30816, Note_off_c, 0, 65, 100
1, 30816, Note_on_c, 0, 64, 100
1, 30912, Note_off_c, 0, 64, 100
1, 30912, Note_on_c, 0, 62, 100
1, 31008, Note_off_c, 0, 62, 100
1, 31008, Note_on_c, 0, 61, 100
1, 31104, Note_off_c, 0, 61, 100
1, 31104, Note_on_c, 0, 60, 100
1, 31200, Note_off_c, 0, 60, 100
1, 31200, Note_on_c, 0, 58, 100
1, 31344, Note_off_c, 0, 58, 100
1, 31344, Note_on_c, 0, 53, 100
1, 31440, Note_off_c, 0, 53, 100
1, 31440, Note_on_c, 0, 55, 100
1, 31488, Note_off_c, 0, 55, 100
1, 31488, Note_on_c, 0, 57, 100
1, 31584, Note_off_c, 0, 57, 100
1, 31584, Note_on_c, 0, 53, 100
1, 31680, Note_off_c, 0, 53, 100
1, 31680, Note_on_c, 0, 58, 100
1, 31808, Note_off_c, 0, 58, 100
1, 31808, Note_on_c, 0, 59, 100
1, 31872, Note_off_c, 0, 59, 100
1, 31872, Note_on_c, 0, 60, 100
1, 31968, Note_off_c, 0, 60, 100
1, 31968, Note_on_c, 0, 65, 100
1, 32016, Note_off_c, 0, 65, 100
1, 32016, Note_on_c, 0, 64, 100
1, 32128, Note_off_c, 0, 64, 100
1, 32128, Note_on_c, 0, 63, 100
1, 32256, Note_off_c, 0, 63, 100
1, 32256, Note_on_c, 0, 62, 100
1, 32352, Note_off_c, 0, 62, 100
1, 32352, Note_on_c, 0, 63, 100
1, 32448, Note_off_c, 0, 63, 100
1, 32448, Note_on_c, 0, 64, 100
1, 32544, Note_off_c, 0, 64, 100
1, 32544, Note_on_c, 0, 67, 100
1, 32592, Note_off_c, 0, 67, 100
1, 32592, Note_on_c, 0, 65, 100
1, 32688, Note_off_c, 0, 65, 100
1, 32688, Note_on_c, 0, 62, 100
1, 32784, Note_off_c, 0, 62, 100
1, 32784, Note_on_c, 0, 58, 100
1, 32832, Note_off_c, 0, 58, 100
1, 32832, Note_on_c, 0, 57, 100
1, 33024, Note_off_c, 0, 57, 100
1, 33024, Note_on_c, 0, 56, 100
1, 33120, Note_off_c, 0, 56, 100
1, 33120, Note_on_c, 0, 58, 100
1, 33216, Note_off_c, 0, 58, 100
1, 33216, Note_on_c, 0, 59, 100
1, 33312, Note_off_c, 0, 59, 100
1, 33312, Note_on_c, 0, 60, 100
1, 33408, Note_off_c, 0, 60, 100
1, 33408, Note_on_c, 0, 61, 100
1, 33504, Note_off_c, 0, 61, 100
1, 33504, Note_on_c, 0, 62, 100
1, 33600, Note_off_c, 0, 62, 100
1, 33600, Note_on_c, 0, 63, 100
1, 33696, Note_off_c, 0, 63, 100
1, 33696, Note_on_c, 0, 64, 100
1, 33792, Note_off_c, 0, 64, 100
1, 33792, Note_on_c, 0, 65, 100
1, 33888, Note_off_c, 0, 65, 100
1, 33888, Note_on_c, 0, 61, 100
1, 33984, Note_off_c, 0, 61, 100
1, 33984, Note_on_c, 0, 62, 100
1, 34080, Note_off_c, 0, 62, 100
1, 34080, Note_on_c, 0, 65, 100
1, 34176, Note_off_c, 0, 65, 100
1, 34176, Note_on_c, 0, 68, 100
1, 34272, Note_off_c, 0, 68, 100
1, 34272, Note_on_c, 0, 65, 100
1, 34368, Note_off_c, 0, 65, 100
1, 35280, Note_on_c, 0, 68, 100
1, 35328, Note_off_c, 0, 68, 100
1, 35328, Note_on_c, 0, 67, 100
1, 35392, Note_off_c, 0, 67, 100
1, 35392, Note_on_c, 0, 65, 100
1, 35456, Note_off_c, 0, 65, 100
1, 35456, Note_on_c, 0, 61, 100
1, 35568, Note_off_c, 0, 61, 100
1, 35568, Note_on_c, 0, 60, 100
1, 35664, Note_off_c, 0, 60, 100
1, 35664, Note_on_c, 0, 58, 100
1, 35712, Note_off_c, 0, 58, 100
1, 35712, Note_on_c, 0, 57, 100
1, 35840, Note_off_c, 0, 57, 100
1, 35840, Note_on_c, 0, 53, 100
1, 35904, Note_off_c, 0, 53, 100
1, 35904, Note_on_c, 0, 58, 100
1, 36000, Note_off_c, 0, 58, 100
1, 36000, Note_on_c, 0, 59, 100
1, 36096, Note_off_c, 0, 59, 100
1, 36096, Note_on_c, 0, 60, 100
1, 36192, Note_off_c, 0, 60, 100
1, 36192, Note_on_c, 0, 65, 100
1, 36288, Note_off_c, 0, 65, 100
1, 36288, Note_on_c, 0, 64, 100
1, 36384, Note_off_c, 0, 64, 100
1, 36384, Note_on_c, 0, 67, 100
1, 36480, Note_off_c, 0, 67, 100
1, 36480, Note_on_c, 0, 65, 100
1, 36576, Note_off_c, 0, 65, 100
1, 36576, Note_on_c, 0, 61, 100
1, 36624, Note_off_c, 0, 61, 100
1, 36624, Note_on_c, 0, 58, 100
1, 36768, Note_off_c, 0, 58, 100
1, 36768, Note_on_c, 0, 53, 100
1, 36864, Note_off_c, 0, 53, 100
1, 36864, Note_on_c, 0, 57, 100
1, 36960, Note_off_c, 0, 57, 100
1, 36960, Note_on_c, 0, 53, 100
1, 37056, Note_off_c, 0, 53, 100
1, 37056, Note_on_c, 0, 58, 100
1, 37200, Note_off_c, 0, 58, 100
1, 37200, Note_on_c, 0, 59, 100
1, 37248, Note_off_c, 0, 59, 100
1, 37248, Note_on_c, 0, 60, 100
1, 37344, Note_off_c, 0, 60, 100
1, 37344, Note_on_c, 0, 57, 100
1, 37440, Note_off_c, 0, 57, 100
1, 37440, Note_on_c, 0, 53, 100
1, 37536, Note_off_c, 0, 53, 100
1, 37536, Note_on_c, 0, 51, 100
1, 38016, Note_off_c, 0, 51, 100
1, 38016, Note_on_c, 0, 60, 100
1, 38112, Note_off_c, 0, 60, 100
1, 38112, Note_on_c, 0, 62, 100
1, 38304, Note_off_c, 0, 62, 100
1, 38304, Note_on_c, 0, 60, 100
1, 38400, Note_off_c, 0, 60, 100
1, 38400, Note_on_c, 0, 58, 100
1, 38496, Note_off_c, 0, 58, 100
1, 38496, Note_on_c, 0, 54, 100
1, 38592, Note_off_c, 0, 54, 100
1, 38592, Note_on_c, 0, 53, 100
1, 38688, Note_off_c, 0, 53, 100
1, 38688, Note_on_c, 0, 51, 100
1, 38784, Note_off_c, 0, 51, 100
1, 38784, Note_on_c, 0, 50, 100
1, 38928, Note_off_c, 0, 50, 100
1, 38928, Note_on_c, 0, 55, 100
1, 39072, Note_off_c, 0, 55, 100
1, 39072, Note_on_c, 0, 58, 100
1, 39360, Note_off_c, 0, 58, 100
1, 39936, Note_on_c, 0, 72, 100
1, 40128, Note_off_c, 0, 72, 100
1, 40128, Note_on_c, 0, 68, 100
1, 40224, Note_off_c, 0, 68, 100
1, 40224, Note_on_c, 0, 65, 100
1, 40320, Note_off_c, 0, 65, 100
1, 40320, Note_on_c, 0, 70, 100
1, 40416, Note_off_c, 0, 70, 100
1, 40416, Note_on_c, 0, 67, 100
1, 40464, Note_off_c, 0, 67, 100
1, 40464, Note_on_c, 0, 63, 100
1, 40608, Note_off_c, 0, 63, 100
1, 40608, Note_on_c, 0, 68, 100
1, 40800, Note_off_c, 0, 68, 100
1, 40800, Note_on_c, 0, 65, 100
1, 40992, Note_off_c, 0, 65, 100
1, 40992, Note_on_c, 0, 61, 100
1, 41088, Note_off_c, 0, 61, 100
1, 41088, Note_on_c, 0, 58, 100
1, 41184, Note_off_c, 0, 58, 100
1, 41184, Note_on_c, 0, 61, 100
1, 41280, Note_off_c, 0, 61, 100
1, 41280, Note_on_c, 0, 65, 100
1, 41472, Note_off_c, 0, 65, 100
1, 41472, Note_on_c, 0, 67, 100
1, 41664, Note_off_c, 0, 67, 100
1, 41664, Note_on_c, 0, 64, 100
1, 41792, Note_off_c, 0, 64, 100
1, 41792, Note_on_c, 0, 60, 100
1, 41856, Note_off_c, 0, 60, 100
1, 41856, Note_on_c, 0, 66, 100
1, 41952, Note_off_c, 0, 66, 100
1, 42336, Note_on_c, 0, 65, 100
1, 42432, Note_off_c, 0, 65, 100
1, 42432, Note_on_c, 0, 62, 100
1, 42528, Note_off_c, 0, 62, 100
1, 42528, Note_on_c, 0, 58, 100
1, 42624, Note_off_c, 0, 58, 100
1, 42624, Note_on_c, 0, 63, 100
1, 42720, Note_off_c, 0, 63, 100
1, 42720, Note_on_c, 0, 64, 100
1, 42816, Note_off_c, 0, 64, 100
1, 42816, Note_on_c, 0, 64, 100
1, 43392, Note_off_c, 0, 64, 100
1, 43392, Note_on_c, 0, 62, 100
1, 43488, Note_off_c, 0, 62, 100
1, 43488, Note_on_c, 0, 60, 100
1, 43536, Note_off_c, 0, 60, 100
1, 43536, Note_on_c, 0, 57, 100
1, 43632, Note_off_c, 0, 57, 100
1, 43632, Note_on_c, 0, 53, 100
1, 43728, Note_off_c, 0, 53, 100
1, 43728, Note_on_c, 0, 52, 100
1, 44400, Note_off_c, 0, 52, 100
1, 44688, Note_on_c, 0, 64, 100
1, 44880, Note_off_c, 0, 64, 100
1, 44880, Note_on_c, 0, 62, 100
1, 45024, Note_off_c, 0, 62, 100
1, 45024, Note_on_c, 0, 62, 100
1, 45120, Note_off_c, 0, 62, 100
1, 45696, Note_on_c, 0, 64, 100
1, 45888, Note_off_c, 0, 64, 100
1, 45888, Note_on_c, 0, 65, 100
1, 46464, Note_off_c, 0, 65, 100
1, 46464, Note_on_c, 0, 62, 100
1, 46560, Note_off_c, 0, 62, 100
1, 46560, Note_on_c, 0, 65, 100
1, 46944, Note_off_c, 0, 65, 100
1, 47616, Note_on_c, 0, 64, 100
1, 47760, Note_off_c, 0, 64, 100
1, 47760, Note_on_c, 0, 65, 100
1, 47904, Note_off_c, 0, 65, 100
1, 47904, Note_on_c, 0, 62, 100
1, 48000, Note_off_c, 0, 62, 100
1, 48000, Note_on_c, 0, 64, 100
1, 48144, Note_off_c, 0, 64, 100
1, 48144, Note_on_c, 0, 65, 100
1, 48288, Note_off_c, 0, 65, 100
1, 48288, Note_on_c, 0, 62, 100
1, 48384, Note_off_c, 0, 62, 100
1, 48384, Note_on_c, 0, 64, 100
1, 48528, Note_off_c, 0, 64, 100
1, 48528, Note_on_c, 0, 65, 100
1, 48672, Note_off_c, 0, 65, 100
1, 48672, Note_on_c, 0, 62, 100
1, 48768, Note_off_c, 0, 62, 100
1, 48768, Note_on_c, 0, 64, 100
1, 48864, Note_off_c, 0, 64, 100
1, 48864, Note_on_c, 0, 65, 100
1, 49056, Note_off_c, 0, 65, 100
1, 49056, Note_on_c, 0, 61, 100
1, 49152, Note_off_c, 0, 61, 100
1, 49152, Note_on_c, 0, 64, 100
1, 49248, Note_off_c, 0, 64, 100
1, 49248, Note_on_c, 0, 65, 100
1, 49392, Note_off_c, 0, 65, 100
1, 49392, Note_on_c, 0, 61, 100
1, 49488, Note_off_c, 0, 61, 100
1, 49488, Note_on_c, 0, 65, 100
1, 49824, Note_off_c, 0, 65, 100
1, 49824, Note_on_c, 0, 60, 100
1, 49920, Note_off_c, 0, 60, 100
1, 49920, Note_on_c, 0, 65, 100
1, 50208, Note_off_c, 0, 65, 100
1, 50208, Note_on_c, 0, 60, 100
1, 50304, Note_off_c, 0, 60, 100
1, 50304, Note_on_c, 0, 65, 100
1, 50400, Note_off_c, 0, 65, 100
1, 50400, Note_on_c, 0, 67, 100
1, 50496, Note_off_c, 0, 67, 100
1, 50496, Note_on_c, 0, 69, 100
1, 50784, Note_off_c, 0, 69, 100
1, 50784, Note_on_c, 0, 64, 100
1, 50880, Note_off_c, 0, 64, 100
1, 50880, Note_on_c, 0, 65, 100
1, 51008, Note_off_c, 0, 65, 100
1, 51008, Note_on_c, 0, 62, 100
1, 51072, Note_off_c, 0, 62, 100
1, 51072, Note_on_c, 0, 65, 100
1, 51840, Note_off_c, 0, 65, 100
1, 51840, Note_on_c, 0, 65, 100
1, 51936, Note_off_c, 0, 65, 100
1, 51936, Note_on_c, 0, 67, 100
1, 52032, Note_off_c, 0, 67, 100
1, 52032, Note_on_c, 0, 68, 100
1, 52128, Note_off_c, 0, 68, 100
1, 52944, Note_on_c, 0, 65, 100
1, 53088, Note_off_c, 0, 65, 100
1, 53088, Note_on_c, 0, 68, 100
1, 53184, Note_off_c, 0, 68, 100
1, 53184, Note_on_c, 0, 70, 100
1, 53280, Note_off_c, 0, 70, 100
1, 53280, Note_on_c, 0, 71, 100
1, 53328, Note_off_c, 0, 71, 100
1, 53328, Note_on_c, 0, 70, 100
1, 53440, Note_off_c, 0, 70, 100
1, 53440, Note_on_c, 0, 68, 100
1, 53568, Note_off_c, 0, 68, 100
1, 53568, Note_on_c, 0, 65, 100
1, 53664, Note_off_c, 0, 65, 100
1, 53664, Note_on_c, 0, 60, 100
1, 53760, Note_off_c, 0, 60, 100
1, 53760, Note_on_c, 0, 63, 100
1, 53856, Note_off_c, 0, 63, 100
1, 53856, Note_on_c, 0, 65, 100
1, 54240, Note_off_c, 0, 65, 100
1, 54528, Note_on_c, 0, 68, 100
1, 54624, Note_off_c, 0, 68, 100
1, 54624, Note_on_c, 0, 69, 100
1, 54672, Note_off_c, 0, 69, 100
1, 54672, Note_on_c, 0, 65, 100
1, 54816, Note_off_c, 0, 65, 100
1, 54816, Note_on_c, 0, 60, 100
1, 54912, Note_off_c, 0, 60, 100
1, 54912, Note_on_c, 0, 65, 100
1, 54960, Note_off_c, 0, 65, 100
1, 54960, Note_on_c, 0, 66, 100
1, 55008, Note_off_c, 0, 66, 100
1, 55008, Note_on_c, 0, 67, 100
1, 55104, Note_off_c, 0, 67, 100
1, 55104, Note_on_c, 0, 64, 100
1, 55200, Note_off_c, 0, 64, 100
1, 55200, Note_on_c, 0, 60, 100
1, 55296, Note_off_c, 0, 60, 100
1, 55296, Note_on_c, 0, 64, 100
1, 55392, Note_off_c, 0, 64, 100
1, 55392, Note_on_c, 0, 65, 100
1, 55488, Note_off_c, 0, 65, 100
1, 56160, Note_on_c, 0, 69, 100
1, 56448, Note_off_c, 0, 69, 100
1, 56448, Note_on_c, 0, 67, 100
1, 56544, Note_off_c, 0, 67, 100
1, 56544, Note_on_c, 0, 65, 100
1, 56640, Note_off_c, 0, 65, 100
1, 56640, Note_on_c, 0, 64, 100
1, 56736, Note_off_c, 0, 64, 100
1, 56736, Note_on_c, 0, 62, 100
1, 56832, Note_off_c, 0, 62, 100
1, 56832, Note_on_c, 0, 65, 100
1, 56928, Note_off_c, 0, 65, 100
1, 57408, Note_on_c, 0, 65, 100
1, 57504, Note_off_c, 0, 65, 100
1, 57504, Note_on_c, 0, 67, 100
1, 57600, Note_off_c, 0, 67, 100
1, 57600, Note_on_c, 0, 68, 100
1, 57696, Note_off_c, 0, 68, 100
1, 57696, Note_on_c, 0, 70, 100
1, 57792, Note_off_c, 0, 70, 100
1, 57792, Note_on_c, 0, 71, 100
1, 57888, Note_off_c, 0, 71, 100
1, 57888, Note_on_c, 0, 73, 100
1, 57984, Note_off_c, 0, 73, 100
1, 58512, Note_on_c, 0, 73, 100
1, 58608, Note_off_c, 0, 73, 100
1, 58608, Note_on_c, 0, 71, 100
1, 58704, Note_off_c, 0, 71, 100
1, 58704, Note_on_c, 0, 70, 100
1, 58816, Note_off_c, 0, 70, 100
1, 58816, Note_on_c, 0, 68, 100
1, 58944, Note_off_c, 0, 68, 100
1, 58944, Note_on_c, 0, 65, 100
1, 58992, Note_off_c, 0, 65, 100
1, 58992, Note_on_c, 0, 66, 100
1, 59088, Note_off_c, 0, 66, 100
1, 59088, Note_on_c, 0, 67, 100
1, 59232, Note_off_c, 0, 67, 100
1, 59232, Note_on_c, 0, 62, 100
1, 59328, Note_off_c, 0, 62, 100
1, 59328, Note_on_c, 0, 65, 100
1, 59376, Note_off_c, 0, 65, 100
1, 59376, Note_on_c, 0, 67, 100
1, 59424, Note_off_c, 0, 67, 100
1, 59424, Note_on_c, 0, 65, 100
1, 59472, Note_off_c, 0, 65, 100
1, 59472, Note_on_c, 0, 64, 100
1, 59616, Note_off_c, 0, 64, 100
1, 59616, Note_on_c, 0, 63, 100
1, 59712, Note_off_c, 0, 63, 100
1, 59712, Note_on_c, 0, 62, 100
1, 59808, Note_off_c, 0, 62, 100
1, 59808, Note_on_c, 0, 61, 100
1, 59856, Note_off_c, 0, 61, 100
1, 59856, Note_on_c, 0, 60, 100
1, 60000, Note_off_c, 0, 60, 100
1, 60000, Note_on_c, 0, 58, 100
1, 60096, Note_off_c, 0, 58, 100
1, 60096, Note_on_c, 0, 53, 100
1, 60192, Note_off_c, 0, 53, 100
1, 60192, Note_on_c, 0, 55, 100
1, 60288, Note_off_c, 0, 55, 100
1, 60288, Note_on_c, 0, 57, 100
1, 60480, Note_off_c, 0, 57, 100
1, 60480, Note_on_c, 0, 58, 100
1, 60576, Note_off_c, 0, 58, 100
1, 60576, Note_on_c, 0, 59, 100
1, 60672, Note_off_c, 0, 59, 100
1, 60672, Note_on_c, 0, 60, 100
1, 60768, Note_off_c, 0, 60, 100
1, 60768, Note_on_c, 0, 65, 100
1, 60864, Note_off_c, 0, 65, 100
1, 60864, Note_on_c, 0, 64, 100
1, 60960, Note_off_c, 0, 64, 100
1, 60960, Note_on_c, 0, 67, 100
1, 61008, Note_off_c, 0, 67, 100
1, 61008, Note_on_c, 0, 65, 100
1, 61104, Note_off_c, 0, 65, 100
1, 61776, Note_on_c, 0, 57, 100
1, 61824, Note_off_c, 0, 57, 100
1, 61824, Note_on_c, 0, 58, 100
1, 62016, Note_off_c, 0, 58, 100
1, 62016, Note_on_c, 0, 60, 100
1, 62112, Note_off_c, 0, 60, 100
1, 62112, Note_on_c, 0, 62, 100
1, 62208, Note_off_c, 0, 62, 100
1, 62208, Note_on_c, 0, 63, 100
1, 62304, Note_off_c, 0, 63, 100
1, 62304, Note_on_c, 0, 65, 100
1, 62464, Note_off_c, 0, 65, 100
1, 62464, Note_on_c, 0, 67, 100
1, 62528, Note_off_c, 0, 67, 100
1, 62528, Note_on_c, 0, 69, 100
1, 62592, Note_off_c, 0, 69, 100
1, 62592, Note_on_c, 0, 74, 100
1, 62688, Note_off_c, 0, 74, 100
1, 62688, Note_on_c, 0, 72, 100
1, 62784, Note_off_c, 0, 72, 100
1, 62784, Note_on_c, 0, 69, 100
1, 62880, Note_off_c, 0, 69, 100
1, 62880, Note_on_c, 0, 67, 100
1, 62976, Note_off_c, 0, 67, 100
1, 62976, Note_on_c, 0, 65, 100
1, 63072, Note_off_c, 0, 65, 100
1, 63072, Note_on_c, 0, 61, 100
1, 63120, Note_off_c, 0, 61, 100
1, 63120, Note_on_c, 0, 62, 100
1, 63264, Note_off_c, 0, 62, 100
1, 63264, Note_on_c, 0, 65, 100
1, 63360, Note_off_c, 0, 65, 100
1, 63360, Note_on_c, 0, 70, 100
1, 63456, Note_off_c, 0, 70, 100
1, 63456, Note_on_c, 0, 65, 100
1, 63504, Note_off_c, 0, 65, 100
1, 63504, Note_on_c, 0, 68, 100
1, 63648, Note_off_c, 0, 68, 100
1, 63648, Note_on_c, 0, 65, 100
1, 63744, Note_off_c, 0, 65, 100
1, 63744, Note_on_c, 0, 67, 100
1, 63840, Note_off_c, 0, 67, 100
1, 63840, Note_on_c, 0, 65, 100
1, 63936, Note_off_c, 0, 65, 100
1, 63936, Note_on_c, 0, 64, 100
1, 64032, Note_off_c, 0, 64, 100
1, 64032, Note_on_c, 0, 67, 100
1, 64128, Note_off_c, 0, 67, 100
1, 64128, Note_on_c, 0, 65, 100
1, 64224, Note_off_c, 0, 65, 100
1, 64224, Note_on_c, 0, 61, 100
1, 64272, Note_off_c, 0, 61, 100
1, 64272, Note_on_c, 0, 58, 100
1, 64416, Note_off_c, 0, 58, 100
1, 64416, Note_on_c, 0, 60, 100
1, 64512, Note_off_c, 0, 60, 100
1, 64512, Note_on_c, 0, 61, 100
1, 64608, Note_off_c, 0, 61, 100
1, 64608, Note_on_c, 0, 63, 100
1, 64704, Note_off_c, 0, 63, 100
1, 64704, Note_on_c, 0, 60, 100
1, 64800, Note_off_c, 0, 60, 100
1, 64800, Note_on_c, 0, 61, 100
1, 64896, Note_off_c, 0, 61, 100
1, 64896, Note_on_c, 0, 58, 100
1, 64992, Note_off_c, 0, 58, 100
1, 64992, Note_on_c, 0, 53, 100
1, 65088, Note_off_c, 0, 53, 100
1, 65088, Note_on_c, 0, 58, 100
1, 65184, Note_off_c, 0, 58, 100
1, 65184, Note_on_c, 0, 60, 100
1, 65232, Note_off_c, 0, 60, 100
1, 65232, Note_on_c, 0, 58, 100
1, 65376, Note_off_c, 0, 58, 100
1, 65376, Note_on_c, 0, 65, 100
1, 65472, Note_off_c, 0, 65, 100
1, 65472, Note_on_c, 0, 56, 100
1, 65568, Note_off_c, 0, 56, 100
1, 65568, Note_on_c, 0, 54, 100
1, 65664, Note_off_c, 0, 54, 100
1, 65664, Note_on_c, 0, 55, 100
1, 65760, Note_off_c, 0, 55, 100
1, 66144, Note_on_c, 0, 57, 100
1, 66240, Note_off_c, 0, 57, 100
1, 66240, Note_on_c, 0, 59, 100
1, 66288, Note_off_c, 0, 59, 100
1, 66288, Note_on_c, 0, 64, 100
1, 66336, Note_off_c, 0, 64, 100
1, 66336, Note_on_c, 0, 67, 100
1, 66384, Note_off_c, 0, 67, 100
1, 66384, Note_on_c, 0, 66, 100
1, 66528, Note_off_c, 0, 66, 100
1, 66528, Note_on_c, 0, 63, 100
1, 66624, Note_off_c, 0, 63, 100
1, 66624, Note_on_c, 0, 62, 100
1, 66720, Note_off_c, 0, 62, 100
1, 67392, Note_on_c, 0, 74, 100
1, 67488, Note_off_c, 0, 74, 100
1, 67488, Note_on_c, 0, 73, 100
1, 67584, Note_off_c, 0, 73, 100
1, 67584, Note_on_c, 0, 72, 100
1, 67680, Note_off_c, 0, 72, 100
1, 67680, Note_on_c, 0, 69, 100
1, 67776, Note_off_c, 0, 69, 100
1, 67776, Note_on_c, 0, 68, 100
1, 67872, Note_off_c, 0, 68, 100
1, 67872, Note_on_c, 0, 67, 100
1, 67968, Note_off_c, 0, 67, 100
1, 67968, Note_on_c, 0, 65, 100
1, 68064, Note_off_c, 0, 65, 100
1, 68064, Note_on_c, 0, 62, 100
1, 68352, Note_off_c, 0, 62, 100
1, 68352, Note_on_c, 0, 64, 100
1, 68480, Note_off_c, 0, 64, 100
1, 68480, Note_on_c, 0, 65, 100
1, 68640, Note_off_c, 0, 65, 100
1, 68640, Note_on_c, 0, 69, 100
1, 68992, Note_off_c, 0, 69, 100
1, 68992, Note_on_c, 0, 67, 100
1, 69056, Note_off_c, 0, 67, 100
1, 69056, Note_on_c, 0, 65, 100
1, 69216, Note_off_c, 0, 65, 100
1, 69216, Note_on_c, 0, 64, 100
1, 69264, Note_off_c, 0, 64, 100
1, 69264, Note_on_c, 0, 62, 100
1, 69408, Note_off_c, 0, 62, 100
1, 69408, Note_on_c, 0, 61, 100
1, 69504, Note_off_c, 0, 61, 100
1, 69504, Note_on_c, 0, 64, 100
1, 69600, Note_off_c, 0, 64, 100
1, 69600, Note_on_c, 0, 62, 100
1, 69696, Note_off_c, 0, 62, 100
1, 69696, Note_on_c, 0, 61, 100
1, 69792, Note_off_c, 0, 61, 100
1, 69792, Note_on_c, 0, 64, 100
1, 69888, Note_off_c, 0, 64, 100
1, 69888, Note_on_c, 0, 62, 100
1, 69984, Note_off_c, 0, 62, 100
1, 69984, Note_on_c, 0, 60, 100
1, 70080, Note_off_c, 0, 60, 100
1, 70080, Note_on_c, 0, 57, 100
1, 70176, Note_off_c, 0, 57, 100
1, 70176, Note_on_c, 0, 58, 100
1, 70272, Note_off_c, 0, 58, 100
1, 70272, Note_on_c, 0, 59, 100
1, 70368, Note_off_c, 0, 59, 100
1, 70368, Note_on_c, 0, 62, 100
1, 70416, Note_off_c, 0, 62, 100
1, 70416, Note_on_c, 0, 65, 100
1, 70560, Note_off_c, 0, 65, 100
1, 70560, Note_on_c, 0, 67, 100
1, 70656, Note_off_c, 0, 67, 100
1, 70656, Note_on_c, 0, 68, 100
1, 70752, Note_off_c, 0, 68, 100
1, 71232, Note_on_c, 0, 73, 100
1, 71328, Note_off_c, 0, 73, 100
1, 71328, Note_on_c, 0, 74, 100
1, 71424, Note_off_c, 0, 74, 100
1, 71424, Note_on_c, 0, 70, 100
1, 71520, Note_off_c, 0, 70, 100
1, 71520, Note_on_c, 0, 71, 100
1, 71616, Note_off_c, 0, 71, 100
1, 71616, Note_on_c, 0, 67, 100
1, 71712, Note_off_c, 0, 67, 100
1, 71712, Note_on_c, 0, 68, 100
1, 71808, Note_off_c, 0, 68, 100
1, 71808, Note_on_c, 0, 64, 100
1, 71904, Note_off_c, 0, 64, 100
1, 71904, Note_on_c, 0, 65, 100
1, 72000, Note_off_c, 0, 65, 100
1, 72000, Note_on_c, 0, 61, 100
1, 72096, Note_off_c, 0, 61, 100
1, 72096, Note_on_c, 0, 62, 100
1, 72192, Note_off_c, 0, 62, 100
1, 72192, Note_on_c, 0, 58, 100
1, 72288, Note_off_c, 0, 58, 100
1, 72288, Note_on_c, 0, 59, 100
1, 72384, Note_off_c, 0, 59, 100
1, 72384, Note_on_c, 0, 55, 100
1, 72480, Note_off_c, 0, 55, 100
1, 72480, Note_on_c, 0, 56, 100
1, 72768, Note_off_c, 0, 56, 100
1, 73440, Note_on_c, 0, 67, 100
1, 73488, Note_off_c, 0, 67, 100
1, 73488, Note_on_c, 0, 68, 100
1, 73632, Note_off_c, 0, 68, 100
1, 73632, Note_on_c, 0, 65, 100
1, 73728, Note_off_c, 0, 65, 100
1, 73728, Note_on_c, 0, 67, 100
1, 73824, Note_off_c, 0, 67, 100
1, 73824, Note_on_c, 0, 68, 100
1, 74016, Note_off_c, 0, 68, 100
1, 74016, Note_on_c, 0, 65, 100
1, 74112, Note_off_c, 0, 65, 100
1, 74112, Note_on_c, 0, 67, 100
1, 74208, Note_off_c, 0, 67, 100
1, 74208, Note_on_c, 0, 68, 100
1, 74400, Note_off_c, 0, 68, 100
1, 74400, Note_on_c, 0, 65, 100
1, 74496, Note_off_c, 0, 65, 100
1, 74496, Note_on_c, 0, 67, 100
1, 74592, Note_off_c, 0, 67, 100
1, 74592, Note_on_c, 0, 68, 100
1, 74784, Note_off_c, 0, 68, 100
1, 74784, Note_on_c, 0, 65, 100
1, 74880, Note_off_c, 0, 65, 100
1, 74880, Note_on_c, 0, 68, 100
1, 75168, Note_off_c, 0, 68, 100
1, 75168, Note_on_c, 0, 65, 100
1, 75264, Note_off_c, 0, 65, 100
1, 75264, Note_on_c, 0, 68, 100
1, 75552, Note_off_c, 0, 68, 100
1, 75552, Note_on_c, 0, 65, 100
1, 75648, Note_off_c, 0, 65, 100
1, 75648, Note_on_c, 0, 68, 100
1, 75792, Note_off_c, 0, 68, 100
1, 75792, Note_on_c, 0, 70, 100
1, 75888, Note_off_c, 0, 70, 100
1, 76416, Note_on_c, 0, 65, 100
1, 76608, Note_off_c, 0, 65, 100
1, 76608, Note_on_c, 0, 68, 100
1, 76800, Note_off_c, 0, 68, 100
1, 76800, Note_on_c, 0, 70, 100
1, 76992, Note_off_c, 0, 70, 100
1, 76992, Note_on_c, 0, 69, 100
1, 77184, Note_off_c, 0, 69, 100
1, 77184, Note_on_c, 0, 68, 100
1, 77376, Note_off_c, 0, 68, 100
1, 77376, Note_on_c, 0, 65, 100
1, 77568, Note_off_c, 0, 65, 100
1, 77568, Note_on_c, 0, 63, 100
1, 77760, Note_off_c, 0, 63, 100
1, 77760, Note_on_c, 0, 60, 100
1, 77952, Note_off_c, 0, 60, 100
1, 77952, Note_on_c, 0, 64, 100
1, 78096, Note_off_c, 0, 64, 100
1, 78096, Note_on_c, 0, 67, 100
1, 78240, Note_off_c, 0, 67, 100
1, 78240, Note_on_c, 0, 64, 100
1, 78528, Note_off_c, 0, 64, 100
1, 80448, Note_on_c, 0, 65, 100
1, 80576, Note_off_c, 0, 65, 100
1, 80576, Note_on_c, 0, 68, 100
1, 80640, Note_off_c, 0, 68, 100
1, 80640, Note_on_c, 0, 70, 100
1, 80736, Note_off_c, 0, 70, 100
1, 80736, Note_on_c, 0, 71, 100
1, 80832, Note_off_c, 0, 71, 100
1, 80832, Note_on_c, 0, 70, 100
1, 80928, Note_off_c, 0, 70, 100
1, 80928, Note_on_c, 0, 68, 100
1, 81024, Note_off_c, 0, 68, 100
1, 81024, Note_on_c, 0, 65, 100
1, 81168, Note_off_c, 0, 65, 100
1, 81168, Note_on_c, 0, 68, 100
1, 81216, Note_off_c, 0, 68, 100
1, 81216, Note_on_c, 0, 70, 100
1, 81312, Note_off_c, 0, 70, 100
1, 81312, Note_on_c, 0, 71, 100
1, 81408, Note_off_c, 0, 71, 100
1, 81408, Note_on_c, 0, 70, 100
1, 81504, Note_off_c, 0, 70, 100
1, 81504, Note_on_c, 0, 68, 100
1, 81552, Note_off_c, 0, 68, 100
1, 81552, Note_on_c, 0, 65, 100
1, 81696, Note_off_c, 0, 65, 100
1, 81696, Note_on_c, 0, 68, 100
1, 81744, Note_off_c, 0, 68, 100
1, 81744, Note_on_c, 0, 70, 100
1, 81856, Note_off_c, 0, 70, 100
1, 81856, Note_on_c, 0, 71, 100
1, 81984, Note_off_c, 0, 71, 100
1, 81984, Note_on_c, 0, 70, 100
1, 82080, Note_off_c, 0, 70, 100
1, 82080, Note_on_c, 0, 68, 100
1, 82176, Note_off_c, 0, 68, 100
1, 82176, Note_on_c, 0, 65, 100
1, 82272, Note_off_c, 0, 65, 100
1, 82272, Note_on_c, 0, 68, 100
1, 82368, Note_off_c, 0, 68, 100
1, 82368, Note_on_c, 0, 70, 100
1, 82464, Note_off_c, 0, 70, 100
1, 82464, Note_on_c, 0, 71, 100
1, 82560, Note_off_c, 0, 71, 100
1, 82560, Note_on_c, 0, 70, 100
1, 82656, Note_off_c, 0, 70, 100
1, 82656, Note_on_c, 0, 68, 100
1, 82752, Note_off_c, 0, 68, 100
1, 82752, Note_on_c, 0, 65, 100
1, 82848, Note_off_c, 0, 65, 100
1, 82848, Note_on_c, 0, 68, 100
1, 82944, Note_off_c, 0, 68, 100
1, 82944, Note_on_c, 0, 70, 100
1, 83040, Note_off_c, 0, 70, 100
1, 83040, Note_on_c, 0, 71, 100
1, 83136, Note_off_c, 0, 71, 100
1, 83136, Note_on_c, 0, 70, 100
1, 83232, Note_off_c, 0, 70, 100
1, 83232, Note_on_c, 0, 68, 100
1, 83328, Note_off_c, 0, 68, 100
1, 83328, Note_on_c, 0, 65, 100
1, 83424, Note_off_c, 0, 65, 100
1, 83424, Note_on_c, 0, 64, 100
1, 83520, Note_off_c, 0, 64, 100
1, 83520, Note_on_c, 0, 63, 100
1, 83616, Note_off_c, 0, 63, 100
1, 83616, Note_on_c, 0, 60, 100
1, 83712, Note_off_c, 0, 60, 100
1, 83712, Note_on_c, 0, 59, 100
1, 83808, Note_off_c, 0, 59, 100
1, 83808, Note_on_c, 0, 58, 100
1, 83904, Note_off_c, 0, 58, 100
1, 83904, Note_on_c, 0, 56, 100
1, 84000, Note_off_c, 0, 56, 100
1, 84000, Note_on_c, 0, 52, 100
1, 84048, Note_off_c, 0, 52, 100
1, 84048, Note_on_c, 0, 51, 100
1, 84192, Note_off_c, 0, 51, 100
1, 84192, Note_on_c, 0, 48, 100
1, 84288, Note_off_c, 0, 48, 100
1, 84288, Note_on_c, 0, 47, 100
1, 84384, Note_off_c, 0, 47, 100
1, 84384, Note_on_c, 0, 47, 100
1, 84576, Note_off_c, 0, 47, 100
1, 86016, Note_on_c, 0, 65, 100
1, 86208, Note_off_c, 0, 65, 100
1, 86208, Note_on_c, 0, 64, 100
1, 86400, Note_off_c, 0, 64, 100
1, 86400, Note_on_c, 0, 63, 100
1, 86592, Note_off_c, 0, 63, 100
1, 86592, Note_on_c, 0, 62, 100
1, 86784, Note_off_c, 0, 62, 100
1, 86784, Note_on_c, 0, 61, 100
1, 86976, Note_off_c, 0, 61, 100
1, 86976, Note_on_c, 0, 62, 100
1, 87168, Note_off_c, 0, 62, 100
1, 87168, Note_on_c, 0, 63, 100
1, 87360, Note_off_c, 0, 63, 100
1, 87360, Note_on_c, 0, 64, 100
1, 87456, Note_off_c, 0, 64, 100
1, 87456, Note_on_c, 0, 65, 100
1, 87936, Note_off_c, 0, 65, 100
1, 87936, Note_on_c, 0, 62, 100
1, 88064, Note_off_c, 0, 62, 100
1, 88064, Note_on_c, 0, 60, 100
1, 88128, Note_off_c, 0, 60, 100
1, 88128, Note_on_c, 0, 58, 100
1, 88224, Note_off_c, 0, 58, 100
1, 88224, Note_on_c, 0, 57, 100
1, 88464, Note_off_c, 0, 57, 100
1, 88464, Note_on_c, 0, 55, 100
1, 88752, Note_off_c, 0, 55, 100
1, 89184, Note_on_c, 0, 72, 100
1, 89472, Note_off_c, 0, 72, 100
1, 89472, Note_on_c, 0, 70, 100
1, 89568, Note_off_c, 0, 70, 100
1, 89568, Note_on_c, 0, 68, 100
1, 89664, Note_off_c, 0, 68, 100
1, 89664, Note_on_c, 0, 65, 100
1, 89760, Note_off_c, 0, 65, 100
1, 89760, Note_on_c, 0, 61, 100
1, 89856, Note_off_c, 0, 61, 100
1, 89856, Note_on_c, 0, 60, 100
1, 90048, Note_off_c, 0, 60, 100
1, 90048, Note_on_c, 0, 58, 100
1, 90144, Note_off_c, 0, 58, 100
1, 90144, Note_on_c, 0, 63, 100
1, 90672, Note_off_c, 0, 63, 100
1, 90672, Note_on_c, 0, 62, 100
1, 90768, Note_off_c, 0, 62, 100
1, 90768, Note_on_c, 0, 63, 100
1, 90816, Note_off_c, 0, 63, 100
1, 90816, Note_on_c, 0, 62, 100
1, 90912, Note_off_c, 0, 62, 100
1, 90912, Note_on_c, 0, 60, 100
1, 91008, Note_off_c, 0, 60, 100
1, 91008, Note_on_c, 0, 59, 100
1, 91104, Note_off_c, 0, 59, 100
1, 91104, Note_on_c, 0, 62, 100
1, 91200, Note_off_c, 0, 62, 100
1, 91200, Note_on_c, 0, 65, 100
1, 91296, Note_off_c, 0, 65, 100
1, 91296, Note_on_c, 0, 69, 100
1, 91392, Note_off_c, 0, 69, 100
1, 91392, Note_on_c, 0, 68, 100
1, 91584, Note_off_c, 0, 68, 100
1, 91584, Note_on_c, 0, 64, 100
1, 91680, Note_off_c, 0, 64, 100
1, 91680, Note_on_c, 0, 61, 100
1, 91776, Note_off_c, 0, 61, 100
1, 91776, Note_on_c, 0, 58, 100
1, 91872, Note_off_c, 0, 58, 100
1, 91872, Note_on_c, 0, 61, 100
1, 91968, Note_off_c, 0, 61, 100
1, 91968, Note_on_c, 0, 64, 100
1, 92064, Note_off_c, 0, 64, 100
1, 92064, Note_on_c, 0, 68, 100
1, 92160, Note_off_c, 0, 68, 100
1, 92160, Note_on_c, 0, 67, 100
1, 92256, Note_off_c, 0, 67, 100
1, 92640, Note_on_c, 0, 68, 100
1, 92688, Note_off_c, 0, 68, 100
1, 92688, Note_on_c, 0, 67, 100
1, 92784, Note_off_c, 0, 67, 100
1, 93024, Note_on_c, 0, 68, 100
1, 93120, Note_off_c, 0, 68, 100
1, 93120, Note_on_c, 0, 67, 100
1, 93216, Note_off_c, 0, 67, 100
1, 93696, Note_on_c, 0, 68, 100
1, 93792, Note_off_c, 0, 68, 100
1, 94080, Note_on_c, 0, 67, 100
1, 94176, Note_off_c, 0, 67, 100
1, 94464, Note_on_c, 0, 68, 100
1, 94560, Note_off_c, 0, 68, 100
1, 94848, Note_on_c, 0, 67, 100
1, 94944, Note_off_c, 0, 67, 100
1, 95328, Note_on_c, 0, 68, 100
1, 95424, Note_off_c, 0, 68, 100
1, 95616, Note_on_c, 0, 67, 100
1, 96000, Note_off_c, 0, 67, 100
1, 96000, Note_on_c, 0, 68, 100
1, 96096, Note_off_c, 0, 68, 100
1, 96096, Note_on_c, 0, 67, 100
1, 96192, Note_off_c, 0, 67, 100
1, 96192, Note_on_c, 0, 68, 100
1, 96288, Note_off_c, 0, 68, 100
1, 96288, Note_on_c, 0, 67, 100
1, 96384, Note_off_c, 0, 67, 100
1, 96384, Note_on_c, 0, 68, 100
1, 96480, Note_off_c, 0, 68, 100
1, 96480, Note_on_c, 0, 67, 100
1, 96672, Note_off_c, 0, 67, 100
1, 96672, Note_on_c, 0, 68, 100
1, 97056, Note_off_c, 0, 68, 100
1, 97056, Note_on_c, 0, 67, 100
1, 97152, Note_off_c, 0, 67, 100
1, 97920, Note_on_c, 0, 72, 100
1, 98064, Note_off_c, 0, 72, 100
1, 98064, Note_on_c, 0, 70, 100
1, 98304, Note_off_c, 0, 70, 100
1, 98304, Note_on_c, 0, 69, 100
1, 98496, Note_off_c, 0, 69, 100
1, 98496, Note_on_c, 0, 65, 100
1, 98688, Note_off_c, 0, 65, 100
1, 98688, Note_on_c, 0, 60, 100
1, 98784, Note_off_c, 0, 60, 100
1, 98784, Note_on_c, 0, 65, 100
1, 98976, Note_off_c, 0, 65, 100
1, 98976, Note_on_c, 0, 65, 100
1, 99264, Note_off_c, 0, 65, 100
1, 99552, Note_on_c, 0, 72, 100
1, 99744, Note_off_c, 0, 72, 100
1, 99744, Note_on_c, 0, 70, 100
1, 99840, Note_off_c, 0, 70, 100
1, 99840, Note_on_c, 0, 68, 100
1, 99936, Note_off_c, 0, 68, 100
1, 99936, Note_on_c, 0, 65, 100
1, 100032, Note_off_c, 0, 65, 100
1, 100032, Note_on_c, 0, 67, 100
1, 100128, Note_off_c, 0, 67, 100
1, 100128, Note_on_c, 0, 64, 100
1, 100272, Note_off_c, 0, 64, 100
1, 100272, Note_on_c, 0, 65, 100
1, 100416, Note_off_c, 0, 65, 100
1, 100416, Note_on_c, 0, 67, 100
1, 100480, Note_off_c, 0, 67, 100
1, 100480, Note_on_c, 0, 68, 100
1, 100544, Note_off_c, 0, 68, 100
1, 100544, Note_on_c, 0, 70, 100
1, 100608, Note_off_c, 0, 70, 100
1, 100608, Note_on_c, 0, 71, 100
1, 100704, Note_off_c, 0, 71, 100
1, 100704, Note_on_c, 0, 73, 100
1, 100800, Note_off_c, 0, 73, 100
1, 100800, Note_on_c, 0, 71, 100
1, 100896, Note_off_c, 0, 71, 100
1, 101232, Note_on_c, 0, 73, 100
1, 101328, Note_off_c, 0, 73, 100
1, 101328, Note_on_c, 0, 72, 100
1, 101376, Note_off_c, 0, 72, 100
1, 101376, Note_on_c, 0, 71, 100
1, 101472, Note_off_c, 0, 71, 100
1, 101472, Note_on_c, 0, 63, 100
1, 101568, Note_off_c, 0, 63, 100
1, 101568, Note_on_c, 0, 64, 100
1, 101664, Note_off_c, 0, 64, 100
1, 101664, Note_on_c, 0, 65, 100
1, 101760, Note_off_c, 0, 65, 100
1, 101760, Note_on_c, 0, 70, 100
1, 101856, Note_off_c, 0, 70, 100
1, 101856, Note_on_c, 0, 68, 100
1, 101904, Note_off_c, 0, 68, 100
1, 101904, Note_on_c, 0, 65, 100
1, 102000, Note_off_c, 0, 65, 100
1, 102000, Note_on_c, 0, 66, 100
1, 102096, Note_off_c, 0, 66, 100
1, 102096, Note_on_c, 0, 67, 100
1, 102240, Note_off_c, 0, 67, 100
1, 102240, Note_on_c, 0, 61, 100
1, 102288, Note_off_c, 0, 61, 100
1, 102288, Note_on_c, 0, 62, 100
1, 102336, Note_off_c, 0, 62, 100
1, 102336, Note_on_c, 0, 67, 100
1, 102384, Note_off_c, 0, 67, 100
1, 102384, Note_on_c, 0, 65, 100
1, 102480, Note_off_c, 0, 65, 100
1, 102480, Note_on_c, 0, 64, 100
1, 102624, Note_off_c, 0, 64, 100
1, 102624, Note_on_c, 0, 63, 100
1, 102720, Note_off_c, 0, 63, 100
1, 102720, Note_on_c, 0, 62, 100
1, 102768, Note_off_c, 0, 62, 100
1, 102768, Note_on_c, 0, 61, 100
1, 102864, Note_off_c, 0, 61, 100
1, 102864, Note_on_c, 0, 60, 100
1, 103008, Note_off_c, 0, 60, 100
1, 103008, Note_on_c, 0, 57, 100
1, 103104, Note_off_c, 0, 57, 100
1, 103104, Note_on_c, 0, 56, 100
1, 103152, Note_off_c, 0, 56, 100
1, 103152, Note_on_c, 0, 55, 100
1, 103248, Note_off_c, 0, 55, 100
1, 103248, Note_on_c, 0, 54, 100
1, 103392, Note_off_c, 0, 54, 100
1, 103392, Note_on_c, 0, 65, 100
1, 103488, Note_off_c, 0, 65, 100
1, 103488, Note_on_c, 0, 64, 100
1, 103536, Note_off_c, 0, 64, 100
1, 103536, Note_on_c, 0, 63, 100
1, 103632, Note_off_c, 0, 63, 100
1, 103632, Note_on_c, 0, 62, 100
1, 103776, Note_off_c, 0, 62, 100
1, 103776, Note_on_c, 0, 60, 100
1, 103824, Note_off_c, 0, 60, 100
1, 103824, Note_on_c, 0, 58, 100
1, 103920, Note_off_c, 0, 58, 100
1, 103920, Note_on_c, 0, 57, 100
1, 104016, Note_off_c, 0, 57, 100
1, 104016, Note_on_c, 0, 56, 100
1, 104112, Note_off_c, 0, 56, 100
1, 104544, Note_on_c, 0, 68, 100
1, 104640, Note_off_c, 0, 68, 100
1, 104640, Note_on_c, 0, 67, 100
1, 104736, Note_off_c, 0, 67, 100
1, 104736, Note_on_c, 0, 66, 100
1, 104832, Note_off_c, 0, 66, 100
1, 104832, Note_on_c, 0, 65, 100
1, 104928, Note_off_c, 0, 65, 100
1, 105312, Note_on_c, 0, 75, 100
1, 105360, Note_off_c, 0, 75, 100
1, 105360, Note_on_c, 0, 74, 100
1, 105504, Note_off_c, 0, 74, 100
1, 105504, Note_on_c, 0, 73, 100
1, 105600, Note_off_c, 0, 73, 100
1, 105600, Note_on_c, 0, 72, 100
1, 105696, Note_off_c, 0, 72, 100
1, 106080, Note_on_c, 0, 68, 100
1, 106176, Note_off_c, 0, 68, 100
1, 106176, Note_on_c, 0, 67, 100
1, 106224, Note_off_c, 0, 67, 100
1, 106224, Note_on_c, 0, 66, 100
1, 106320, Note_off_c, 0, 66, 100
1, 106320, Note_on_c, 0, 65, 100
1, 106416, Note_off_c, 0, 65, 100
1, 106800, Note_on_c, 0, 75, 100
1, 106896, Note_off_c, 0, 75, 100
1, 106896, Note_on_c, 0, 74, 100
1, 106992, Note_off_c, 0, 74, 100
1, 106992, Note_on_c, 0, 73, 100
1, 107088, Note_off_c, 0, 73, 100
1, 107088, Note_on_c, 0, 72, 100
1, 107184, Note_off_c, 0, 72, 100
1, 107616, Note_on_c, 0, 73, 100
1, 107712, Note_off_c, 0, 73, 100
1, 107712, Note_on_c, 0, 72, 100
1, 107808, Note_off_c, 0, 72, 100
1, 107808, Note_on_c, 0, 70, 100
1, 107904, Note_off_c, 0, 70, 100
1, 107904, Note_on_c, 0, 71, 100
1, 108000, Note_off_c, 0, 71, 100
1, 108384, Note_on_c, 0, 63, 100
1, 108576, Note_off_c, 0, 63, 100
1, 108576, Note_on_c, 0, 65, 100
1, 108672, Note_off_c, 0, 65, 100
1, 108672, Note_on_c, 0, 69, 100
1, 108768, Note_off_c, 0, 69, 100
1, 108768, Note_on_c, 0, 63, 100
1, 108816, Note_off_c, 0, 63, 100
1, 108816, Note_on_c, 0, 64, 100
1, 108960, Note_off_c, 0, 64, 100
1, 108960, Note_on_c, 0, 67, 100
1, 109056, Note_off_c, 0, 67, 100
1, 109056, Note_on_c, 0, 65, 100
1, 109152, Note_off_c, 0, 65, 100
1, 109152, Note_on_c, 0, 61, 100
1, 109200, Note_off_c, 0, 61, 100
1, 109200, Note_on_c, 0, 60, 100
1, 109344, Note_off_c, 0, 60, 100
1, 109344, Note_on_c, 0, 58, 100
1, 109392, Note_off_c, 0, 58, 100
1, 109392, Note_on_c, 0, 57, 100
1, 109536, Note_off_c, 0, 57, 100
1, 109536, Note_on_c, 0, 53, 100
1, 109632, Note_off_c, 0, 53, 100
1, 109632, Note_on_c, 0, 58, 100
1, 109728, Note_off_c, 0, 58, 100
1, 109728, Note_on_c, 0, 59, 100
1, 109824, Note_off_c, 0, 59, 100
1, 109824, Note_on_c, 0, 60, 100
1, 109920, Note_off_c, 0, 60, 100
1, 109920, Note_on_c, 0, 65, 100
1, 110016, Note_off_c, 0, 65, 100
1, 110016, Note_on_c, 0, 64, 100
1, 110112, Note_off_c, 0, 64, 100
1, 110112, Note_on_c, 0, 67, 100
1, 110208, Note_off_c, 0, 67, 100
1, 110208, Note_on_c, 0, 65, 100
1, 110304, Note_off_c, 0, 65, 100
1, 110304, Note_on_c, 0, 61, 100
1, 110400, Note_off_c, 0, 61, 100
1, 110400, Note_on_c, 0, 58, 100
1, 110496, Note_off_c, 0, 58, 100
1, 110496, Note_on_c, 0, 53, 100
1, 110592, Note_off_c, 0, 53, 100
1, 110592, Note_on_c, 0, 57, 100
1, 110688, Note_off_c, 0, 57, 100
1, 110688, Note_on_c, 0, 58, 100
1, 110784, Note_off_c, 0, 58, 100
1, 110784, Note_on_c, 0, 60, 100
1, 110880, Note_off_c, 0, 60, 100
1, 110880, Note_on_c, 0, 62, 100
1, 110976, Note_off_c, 0, 62, 100
1, 110976, Note_on_c, 0, 63, 100
1, 111072, Note_off_c, 0, 63, 100
1, 111072, Note_on_c, 0, 65, 100
1, 111168, Note_off_c, 0, 65, 100
1, 111168, Note_on_c, 0, 67, 100
1, 111264, Note_off_c, 0, 67, 100
1, 111264, Note_on_c, 0, 71, 100
1, 111312, Note_off_c, 0, 71, 100
1, 111312, Note_on_c, 0, 72, 100
1, 111360, Note_off_c, 0, 72, 100
1, 111360, Note_on_c, 0, 74, 100
1, 111456, Note_off_c, 0, 74, 100
1, 111456, Note_on_c, 0, 75, 100
1, 111616, Note_off_c, 0, 75, 100
1, 111616, Note_on_c, 0, 74, 100
1, 111680, Note_off_c, 0, 74, 100
1, 111680, Note_on_c, 0, 72, 100
1, 111744, Note_off_c, 0, 72, 100
1, 111744, Note_on_c, 0, 71, 100
1, 111840, Note_off_c, 0, 71, 100
1, 111840, Note_on_c, 0, 69, 100
1, 111936, Note_off_c, 0, 69, 100
1, 111936, Note_on_c, 0, 68, 100
1, 112032, Note_off_c, 0, 68, 100
1, 112032, Note_on_c, 0, 66, 100
1, 112128, Note_off_c, 0, 66, 100
1, 112128, Note_on_c, 0, 65, 100
1, 112224, Note_off_c, 0, 65, 100
1, 112224, Note_on_c, 0, 63, 100
1, 112320, Note_off_c, 0, 63, 100
1, 112320, Note_on_c, 0, 62, 100
1, 112416, Note_off_c, 0, 62, 100
1, 112416, Note_on_c, 0, 60, 100
1, 112512, Note_off_c, 0, 60, 100
1, 112512, Note_on_c, 0, 58, 100
1, 112608, Note_off_c, 0, 58, 100
1, 113040, Note_on_c, 0, 45, 100
1, 113136, Note_off_c, 0, 45, 100
1, 113808, Note_on_c, 0, 70, 100
1, 113904, Note_off_c, 0, 70, 100
1, 113904, Note_on_c, 0, 72, 100
1, 113952, Note_off_c, 0, 72, 100
1, 113952, Note_on_c, 0, 71, 100
1, 114048, Note_off_c, 0, 71, 100
1, 114048, Note_on_c, 0, 70, 100
1, 114144, Note_off_c, 0, 70, 100
1, 114144, Note_on_c, 0, 68, 100
1, 114240, Note_off_c, 0, 68, 100
1, 114240, Note_on_c, 0, 67, 100
1, 114336, Note_off_c, 0, 67, 100
1, 114336, Note_on_c, 0, 66, 100
1, 114432, Note_off_c, 0, 66, 100
1, 114432, Note_on_c, 0, 65, 100
1, 114528, Note_off_c, 0, 65, 100
1, 114528, Note_on_c, 0, 63, 100
1, 114624, Note_off_c, 0, 63, 100
1, 114624, Note_on_c, 0, 61, 100
1, 114816, Note_off_c, 0, 61, 100
1, 114816, Note_on_c, 0, 58, 100
1, 114912, Note_off_c, 0, 58, 100
1, 114912, Note_on_c, 0, 60, 100
1, 115008, Note_off_c, 0, 60, 100
1, 115008, Note_on_c, 0, 61, 100
1, 115104, Note_off_c, 0, 61, 100
1, 115104, Note_on_c, 0, 62, 100
1, 115200, Note_off_c, 0, 62, 100
1, 115200, Note_on_c, 0, 63, 100
1, 115296, Note_off_c, 0, 63, 100
1, 115296, Note_on_c, 0, 60, 100
1, 115344, Note_off_c, 0, 60, 100
1, 115344, Note_on_c, 0, 55, 100
1, 115456, Note_off_c, 0, 55, 100
1, 115456, Note_on_c, 0, 51, 100
1, 115584, Note_off_c, 0, 51, 100
1, 115584, Note_on_c, 0, 54, 100
1, 115728, Note_off_c, 0, 54, 100
1, 115728, Note_on_c, 0, 63, 100
1, 116928, Note_off_c, 0, 63, 100
1, 116928, Note_on_c, 0, 64, 100
1, 117120, Note_off_c, 0, 64, 100
1, 117120, Note_on_c, 0, 65, 100
1, 117248, Note_off_c, 0, 65, 100
1, 117248, Note_on_c, 0, 60, 100
1, 117312, Note_off_c, 0, 60, 100
1, 117312, Note_on_c, 0, 57, 100
1, 117408, Note_off_c, 0, 57, 100
1, 117408, Note_on_c, 0, 53, 100
1, 117504, Note_off_c, 0, 53, 100
1, 117504, Note_on_c, 0, 58, 100
1, 117600, Note_off_c, 0, 58, 100
1, 117600, Note_on_c, 0, 59, 100
1, 117792, Note_off_c, 0, 59, 100
1, 117792, Note_on_c, 0, 60, 100
1, 117984, Note_off_c, 0, 60, 100
1, 118848, Note_on_c, 0, 65, 100
1, 118944, Note_off_c, 0, 65, 100
1, 118944, Note_on_c, 0, 66, 100
1, 119040, Note_off_c, 0, 66, 100
1, 119040, Note_on_c, 0, 67, 100
1, 119136, Note_off_c, 0, 67, 100
1, 119136, Note_on_c, 0, 63, 100
1, 119232, Note_off_c, 0, 63, 100
1, 119232, Note_on_c, 0, 64, 100
1, 119328, Note_off_c, 0, 64, 100
1, 119328, Note_on_c, 0, 67, 100
1, 119424, Note_off_c, 0, 67, 100
1, 119424, Note_on_c, 0, 65, 100
1, 119472, Note_off_c, 0, 65, 100
1, 119472, Note_on_c, 0, 62, 100
1, 119568, Note_off_c, 0, 62, 100
1, 119568, Note_on_c, 0, 58, 100
1, 119760, Note_off_c, 0, 58, 100
1, 119760, Note_on_c, 0, 64, 100
1, 119872, Note_off_c, 0, 64, 100
1, 119872, Note_on_c, 0, 65, 100
1, 120000, Note_off_c, 0, 65, 100
1, 120000, Note_on_c, 0, 62, 100
1, 120064, Note_off_c, 0, 62, 100
1, 120064, Note_on_c, 0, 58, 100
1, 120128, Note_off_c, 0, 58, 100
1, 120128, Note_on_c, 0, 57, 100
1, 120256, Note_off_c, 0, 57, 100
1, 120256, Note_on_c, 0, 55, 100
1, 120384, Note_off_c, 0, 55, 100
1, 120384, Note_on_c, 0, 64, 100
1, 120480, Note_off_c, 0, 64, 100
1, 120480, Note_on_c, 0, 65, 100
1, 120576, Note_off_c, 0, 65, 100
1, 120576, Note_on_c, 0, 62, 100
1, 120672, Note_off_c, 0, 62, 100
1, 120672, Note_on_c, 0, 58, 100
1, 120768, Note_off_c, 0, 58, 100
1, 120768, Note_on_c, 0, 57, 100
1, 120864, Note_off_c, 0, 57, 100
1, 120864, Note_on_c, 0, 55, 100
1, 120960, Note_off_c, 0, 55, 100
1, 120960, Note_on_c, 0, 64, 100
1, 121056, Note_off_c, 0, 64, 100
1, 121056, Note_on_c, 0, 65, 100
1, 121152, Note_off_c, 0, 65, 100
1, 121152, Note_on_c, 0, 60, 100
1, 121248, Note_off_c, 0, 60, 100
1, 121248, Note_on_c, 0, 57, 100
1, 121344, Note_off_c, 0, 57, 100
1, 121344, Note_on_c, 0, 55, 100
1, 121440, Note_off_c, 0, 55, 100
1, 121440, Note_on_c, 0, 53, 100
1, 121536, Note_off_c, 0, 53, 100
1, 121536, Note_on_c, 0, 64, 100
1, 121632, Note_off_c, 0, 64, 100
1, 121632, Note_on_c, 0, 65, 100
1, 121728, Note_off_c, 0, 65, 100
1, 122592, Note_on_c, 0, 65, 100
1, 122688, Note_off_c, 0, 65, 100
1, 122688, Note_on_c, 0, 71, 100
1, 122880, Note_off_c, 0, 71, 100
1, 122880, Note_on_c, 0, 72, 100
1, 123072, Note_off_c, 0, 72, 100
1, 123072, Note_on_c, 0, 68, 100
1, 123264, Note_off_c, 0, 68, 100
1, 123264, Note_on_c, 0, 69, 100
1, 123456, Note_off_c, 0, 69, 100
1, 123456, Note_on_c, 0, 64, 100
1, 123648, Note_off_c, 0, 64, 100
1, 123648, Note_on_c, 0, 65, 100
1, 123840, Note_off_c, 0, 65, 100
1, 123840, Note_on_c, 0, 59, 100
1, 124032, Note_off_c, 0, 59, 100
1, 124032, Note_on_c, 0, 60, 100
1, 124224, Note_off_c, 0, 60, 100
1, 124224, Note_on_c, 0, 55, 100
1, 124320, Note_off_c, 0, 55, 100
1, 124320, Note_on_c, 0, 56, 100
1, 124704, Note_off_c, 0, 56, 100
1, 125760, Note_on_c, 0, 59, 100
1, 125904, Note_off_c, 0, 59, 100
1, 125904, Note_on_c, 0, 70, 100
1, 126000, Note_off_c, 0, 70, 100
1, 127104, Note_on_c, 0, 71, 100
1, 127200, Note_off_c, 0, 71, 100
1, 127200, Note_on_c, 0, 72, 100
1, 127296, Note_off_c, 0, 72, 100
1, 127680, Note_on_c, 0, 72, 100
1, 127776, Note_off_c, 0, 72, 100
1, 127776, Note_on_c, 0, 70, 100
1, 127872, Note_off_c, 0, 70, 100
1, 127872, Note_on_c, 0, 69, 100
1, 127968, Note_off_c, 0, 69, 100
1, 127968, Note_on_c, 0, 67, 100
1, 128016, Note_off_c, 0, 67, 100
1, 128016, Note_on_c, 0, 66, 100
1, 128128, Note_off_c, 0, 66, 100
1, 128128, Note_on_c, 0, 69, 100
1, 128256, Note_off_c, 0, 69, 100
1, 128256, Note_on_c, 0, 67, 100
1, 128352, Note_off_c, 0, 67, 100
1, 128352, Note_on_c, 0, 62, 100
1, 128448, Note_off_c, 0, 62, 100
1, 128448, Note_on_c, 0, 65, 100
1, 128496, Note_off_c, 0, 65, 100
1, 128496, Note_on_c, 0, 66, 100
1, 128544, Note_off_c, 0, 66, 100
1, 128544, Note_on_c, 0, 65, 100
1, 128592, Note_off_c, 0, 65, 100
1, 128592, Note_on_c, 0, 64, 100
1, 128736, Note_off_c, 0, 64, 100
1, 128736, Note_on_c, 0, 63, 100
1, 128832, Note_off_c, 0, 63, 100
1, 128832, Note_on_c, 0, 62, 100
1, 128928, Note_off_c, 0, 62, 100
1, 128928, Note_on_c, 0, 61, 100
1, 129024, Note_off_c, 0, 61, 100
1, 129024, Note_on_c, 0, 60, 100
1, 129120, Note_off_c, 0, 60, 100
1, 129120, Note_on_c, 0, 58, 100
1, 129168, Note_off_c, 0, 58, 100
1, 129168, Note_on_c, 0, 53, 100
1, 129312, Note_off_c, 0, 53, 100
1, 129312, Note_on_c, 0, 55, 100
1, 129408, Note_off_c, 0, 55, 100
1, 129408, Note_on_c, 0, 57, 100
1, 129504, Note_off_c, 0, 57, 100
1, 129504, Note_on_c, 0, 53, 100
1, 129600, Note_off_c, 0, 53, 100
1, 129600, Note_on_c, 0, 58, 100
1, 129696, Note_off_c, 0, 58, 100
1, 129696, Note_on_c, 0, 59, 100
1, 129792, Note_off_c, 0, 59, 100
1, 129792, Note_on_c, 0, 60, 100
1, 129888, Note_off_c, 0, 60, 100
1, 129888, Note_on_c, 0, 65, 100
1, 129984, Note_off_c, 0, 65, 100
1, 129984, Note_on_c, 0, 64, 100
1, 130032, Note_off_c, 0, 64, 100
1, 130032, Note_on_c, 0, 67, 100
1, 130128, Note_off_c, 0, 67, 100
1, 130128, Note_on_c, 0, 65, 100
1, 130224, Note_off_c, 0, 65, 100
1, 130224, Note_on_c, 0, 60, 100
1, 130320, Note_off_c, 0, 60, 100
1, 130320, Note_on_c, 0, 57, 100
1, 130432, Note_off_c, 0, 57, 100
1, 130432, Note_on_c, 0, 53, 100
1, 130496, Note_off_c, 0, 53, 100
1, 130496, Note_on_c, 0, 58, 100
1, 130608, Note_off_c, 0, 58, 100
1, 130608, Note_on_c, 0, 57, 100
1, 130704, Note_off_c, 0, 57, 100
1, 130704, Note_on_c, 0, 58, 100
1, 130848, Note_off_c, 0, 58, 100
1, 130848, Note_on_c, 0, 65, 100
1, 130944, Note_off_c, 0, 65, 100
1, 130944, Note_on_c, 0, 64, 100
1, 131040, Note_off_c, 0, 64, 100
1, 131040, Note_on_c, 0, 65, 100
1, 131136, Note_off_c, 0, 65, 100
1, 131136, Note_on_c, 0, 70, 100
1, 131280, Note_off_c, 0, 70, 100
1, 131280, Note_on_c, 0, 67, 100
1, 131328, Note_off_c, 0, 67, 100
1, 131328, Note_on_c, 0, 68, 100
1, 131424, Note_off_c, 0, 68, 100
1, 131424, Note_on_c, 0, 60, 100
1, 131520, Note_off_c, 0, 60, 100
1, 131520, Note_on_c, 0, 61, 100
1, 131568, Note_off_c, 0, 61, 100
1, 131568, Note_on_c, 0, 62, 100
1, 131664, Note_off_c, 0, 62, 100
1, 131664, Note_on_c, 0, 67, 100
1, 131808, Note_off_c, 0, 67, 100
1, 131808, Note_on_c, 0, 62, 100
1, 131904, Note_off_c, 0, 62, 100
1, 131904, Note_on_c, 0, 64, 100
1, 132000, Note_off_c, 0, 64, 100
1, 132000, Note_on_c, 0, 67, 100
1, 132096, Note_off_c, 0, 67, 100
1, 132096, Note_on_c, 0, 65, 100
1, 132144, Note_off_c, 0, 65, 100
1, 132144, Note_on_c, 0, 60, 100
1, 132240, Note_off_c, 0, 60, 100
1, 132240, Note_on_c, 0, 62, 100
1, 132384, Note_off_c, 0, 62, 100
1, 132384, Note_on_c, 0, 63, 100
1, 132480, Note_off_c, 0, 63, 100
1, 133056, Note_on_c, 0, 60, 100
1, 133120, Note_off_c, 0, 60, 100
1, 133120, Note_on_c, 0, 61, 100
1, 133184, Note_off_c, 0, 61, 100
1, 133184, Note_on_c, 0, 62, 100
1, 133248, Note_off_c, 0, 62, 100
1, 133248, Note_on_c, 0, 63, 100
1, 133344, Note_off_c, 0, 63, 100
1, 133344, Note_on_c, 0, 60, 100
1, 133392, Note_off_c, 0, 60, 100
1, 133392, Note_on_c, 0, 64, 100
1, 133536, Note_off_c, 0, 64, 100
1, 133536, Note_on_c, 0, 65, 100
1, 134016, Note_off_c, 0, 65, 100
1, 134016, Note_on_c, 0, 62, 100
1, 134112, Note_off_c, 0, 62, 100
1, 134112, Note_on_c, 0, 60, 100
1, 134160, Note_off_c, 0, 60, 100
1, 134160, Note_on_c, 0, 56, 100
1, 134304, Note_off_c, 0, 56, 100
1, 134304, Note_on_c, 0, 55, 100
1, 134592, Note_off_c, 0, 55, 100
1, 135168, Note_on_c, 0, 53, 100
1, 135360, Note_off_c, 0, 53, 100
1, 135360, Note_on_c, 0, 55, 100
1, 135456, Note_off_c, 0, 55, 100
1, 135456, Note_on_c, 0, 56, 100
1, 135504, Note_off_c, 0, 56, 100
1, 135504, Note_on_c, 0, 57, 100
1, 135600, Note_off_c, 0, 57, 100
1, 135600, Note_on_c, 0, 60, 100
1, 135696, Note_off_c, 0, 60, 100
1, 135696, Note_on_c, 0, 62, 100
1, 135888, Note_off_c, 0, 62, 100
1, 135888, Note_on_c, 0, 65, 100
1, 136128, Note_off_c, 0, 65, 100
1, 136128, Note_on_c, 0, 68, 100
1, 136224, Note_off_c, 0, 68, 100
1, 136224, Note_on_c, 0, 69, 100
1, 136272, Note_off_c, 0, 69, 100
1, 136272, Note_on_c, 0, 65, 100
1, 136416, Note_off_c, 0, 65, 100
1, 136416, Note_on_c, 0, 67, 100
1, 136512, Note_off_c, 0, 67, 100
1, 136512, Note_on_c, 0, 65, 100
1, 136992, Note_off_c, 0, 65, 100
1, 136992, Note_on_c, 0, 62, 100
1, 137088, Note_off_c, 0, 62, 100
1, 137088, Note_on_c, 0, 60, 100
1, 137216, Note_off_c, 0, 60, 100
1, 137216, Note_on_c, 0, 58, 100
1, 137376, Note_off_c, 0, 58, 100
1, 137376, Note_on_c, 0, 57, 100
1, 137568, Note_off_c, 0, 57, 100
1, 137568, Note_on_c, 0, 55, 100
1, 137856, Note_off_c, 0, 55, 100
1, 138336, Note_on_c, 0, 72, 100
1, 138624, Note_off_c, 0, 72, 100
1, 138624, Note_on_c, 0, 70, 100
1, 138720, Note_off_c, 0, 70, 100
1, 138720, Note_on_c, 0, 68, 100
1, 138816, Note_off_c, 0, 68, 100
1, 138816, Note_on_c, 0, 65, 100
1, 138912, Note_off_c, 0, 65, 100
1, 138912, Note_on_c, 0, 61, 100
1, 139008, Note_off_c, 0, 61, 100
1, 139008, Note_on_c, 0, 60, 100
1, 139104, Note_off_c, 0, 60, 100
1, 139104, Note_on_c, 0, 59, 100
1, 139200, Note_off_c, 0, 59, 100
1, 139344, Note_on_c, 0, 63, 100
1, 139680, Note_off_c, 0, 63, 100
1, 139680, Note_on_c, 0, 62, 100
1, 139872, Note_off_c, 0, 62, 100
1, 140928, Note_on_c, 0, 60, 100
1, 141120, Note_off_c, 0, 60, 100
1, 141120, Note_on_c, 0, 62, 100
1, 141600, Note_off_c, 0, 62, 100
1, 141600, Note_on_c, 0, 60, 100
1, 141696, Note_off_c, 0, 60, 100
1, 141696, Note_on_c, 0, 61, 100
1, 141792, Note_off_c, 0, 61, 100
1, 141792, Note_on_c, 0, 62, 100
1, 141984, Note_off_c, 0, 62, 100
1, 141984, Note_on_c, 0, 60, 100
1, 142032, Note_off_c, 0, 60, 100
1, 142032, Note_on_c, 0, 61, 100
1, 142176, Note_off_c, 0, 61, 100
1, 142176, Note_on_c, 0, 62, 100
1, 142336, Note_off_c, 0, 62, 100
1, 142336, Note_on_c, 0, 60, 100
1, 142400, Note_off_c, 0, 60, 100
1, 142400, Note_on_c, 0, 61, 100
1, 142560, Note_off_c, 0, 61, 100
1, 142560, Note_on_c, 0, 62, 100
1, 142704, Note_off_c, 0, 62, 100
1, 142704, Note_on_c, 0, 60, 100
1, 142800, Note_off_c, 0, 60, 100
1, 142800, Note_on_c, 0, 61, 100
1, 142944, Note_off_c, 0, 61, 100
1, 142944, Note_on_c, 0, 62, 100
1, 143136, Note_off_c, 0, 62, 100
1, 143136, Note_on_c, 0, 59, 100
1, 143184, Note_off_c, 0, 59, 100
1, 143184, Note_on_c, 0, 61, 100
1, 143376, Note_off_c, 0, 61, 100
1, 143376, Note_on_c, 0, 62, 100
1, 143520, Note_off_c, 0, 62, 100
1, 143520, Note_on_c, 0, 59, 100
1, 143616, Note_off_c, 0, 59, 100
1, 143616, Note_on_c, 0, 61, 100
1, 143712, Note_off_c, 0, 61, 100
1, 143712, Note_on_c, 0, 62, 100
1, 143856, Note_off_c, 0, 62, 100
1, 143856, Note_on_c, 0, 59, 100
1, 143952, Note_off_c, 0, 59, 100
1, 143952, Note_on_c, 0, 62, 100
1, 144064, Note_off_c, 0, 62, 100
1, 144064, Note_on_c, 0, 65, 100
1, 144128, Note_off_c, 0, 65, 100
1, 144128, Note_on_c, 0, 68, 100
1, 144240, Note_off_c, 0, 68, 100
1, 144240, Note_on_c, 0, 71, 100
1, 144336, Note_off_c, 0, 71, 100
1, 144336, Note_on_c, 0, 74, 100
1, 144432, Note_off_c, 0, 74, 100
1, 145296, Note_on_c, 0, 73, 100
1, 145440, Note_off_c, 0, 73, 100
1, 145440, Note_on_c, 0, 74, 100
1, 145536, Note_off_c, 0, 74, 100
1, 145536, Note_on_c, 0, 70, 100
1, 145632, Note_off_c, 0, 70, 100
1, 145632, Note_on_c, 0, 71, 100
1, 145728, Note_off_c, 0, 71, 100
1, 145728, Note_on_c, 0, 67, 100
1, 145824, Note_off_c, 0, 67, 100
1, 145824, Note_on_c, 0, 68, 100
1, 145920, Note_off_c, 0, 68, 100
1, 145920, Note_on_c, 0, 64, 100
1, 146016, Note_off_c, 0, 64, 100
1, 146016, Note_on_c, 0, 65, 100
1, 146112, Note_off_c, 0, 65, 100
1, 146112, Note_on_c, 0, 61, 100
1, 146208, Note_off_c, 0, 61, 100
1, 146208, Note_on_c, 0, 62, 100
1, 146304, Note_off_c, 0, 62, 100
1, 146304, Note_on_c, 0, 58, 100
1, 146400, Note_off_c, 0, 58, 100
1, 146400, Note_on_c, 0, 59, 100
1, 146496, Note_off_c, 0, 59, 100
1, 146496, Note_on_c, 0, 55, 100
1, 146592, Note_off_c, 0, 55, 100
1, 146592, Note_on_c, 0, 56, 100
1, 146688, Note_off_c, 0, 56, 100
1, 147456, Note_on_c, 0, 53, 100
1, 147552, Note_off_c, 0, 53, 100
1, 147552, Note_on_c, 0, 55, 100
1, 147648, Note_off_c, 0, 55, 100
1, 147648, Note_on_c, 0, 57, 100
1, 147696, Note_off_c, 0, 57, 100
1, 147696, Note_on_c, 0, 60, 100
1, 147792, Note_off_c, 0, 60, 100
1, 147792, Note_on_c, 0, 62, 100
1, 147888, Note_off_c, 0, 62, 100
1, 147888, Note_on_c, 0, 65, 100
1, 147984, Note_off_c, 0, 65, 100
1, 147984, Note_on_c, 0, 64, 100
1, 148080, Note_off_c, 0, 64, 100
1, 148080, Note_on_c, 0, 67, 100
1, 148176, Note_off_c, 0, 67, 100
1, 148176, Note_on_c, 0, 65, 100
1, 148288, Note_off_c, 0, 65, 100
1, 148288, Note_on_c, 0, 60, 100
1, 148352, Note_off_c, 0, 60, 100
1, 148352, Note_on_c, 0, 57, 100
1, 148480, Note_off_c, 0, 57, 100
1, 148480, Note_on_c, 0, 55, 100
1, 148608, Note_off_c, 0, 55, 100
1, 148608, Note_on_c, 0, 53, 100
1, 148704, Note_off_c, 0, 53, 100
1, 148704, Note_on_c, 0, 55, 100
1, 148800, Note_off_c, 0, 55, 100
1, 148800, Note_on_c, 0, 58, 100
1, 148896, Note_off_c, 0, 58, 100
1, 148896, Note_on_c, 0, 60, 100
1, 148992, Note_off_c, 0, 60, 100
1, 148992, Note_on_c, 0, 61, 100
1, 149088, Note_off_c, 0, 61, 100
1, 149088, Note_on_c, 0, 62, 100
1, 149184, Note_off_c, 0, 62, 100
1, 149184, Note_on_c, 0, 63, 100
1, 149280, Note_off_c, 0, 63, 100
1, 149280, Note_on_c, 0, 64, 100
1, 149376, Note_off_c, 0, 64, 100
1, 149376, Note_on_c, 0, 65, 100
1, 149424, Note_off_c, 0, 65, 100
1, 149424, Note_on_c, 0, 61, 100
1, 149520, Note_off_c, 0, 61, 100
1, 149520, Note_on_c, 0, 62, 100
1, 149664, Note_off_c, 0, 62, 100
1, 149664, Note_on_c, 0, 65, 100
1, 149712, Note_off_c, 0, 65, 100
1, 149712, Note_on_c, 0, 68, 100
1, 149856, Note_off_c, 0, 68, 100
1, 149856, Note_on_c, 0, 63, 100
1, 149952, Note_off_c, 0, 63, 100
1, 149952, Note_on_c, 0, 64, 100
1, 150048, Note_off_c, 0, 64, 100
1, 150048, Note_on_c, 0, 67, 100
1, 150144, Note_off_c, 0, 67, 100
1, 150144, Note_on_c, 0, 65, 100
1, 150240, Note_off_c, 0, 65, 100
1, 150240, Note_on_c, 0, 60, 100
1, 150336, Note_off_c, 0, 60, 100
1, 150336, Note_on_c, 0, 63, 100
1, 150432, Note_off_c, 0, 63, 100
1, 150432, Note_on_c, 0, 62, 100
1, 150528, Note_off_c, 0, 62, 100
1, 150528, Note_on_c, 0, 61, 100
1, 150624, Note_off_c, 0, 61, 100
1, 150624, Note_on_c, 0, 60, 100
1, 150720, Note_off_c, 0, 60, 100
1, 150720, Note_on_c, 0, 59, 100
1, 150816, Note_off_c, 0, 59, 100
1, 151584, Note_on_c, 0, 67, 100
1, 151824, Note_off_c, 0, 67, 100
1, 151824, Note_on_c, 0, 69, 100
1, 151872, Note_off_c, 0, 69, 100
1, 151872, Note_on_c, 0, 72, 100
1, 152256, Note_off_c, 0, 72, 100
1, 153216, Note_on_c, 0, 67, 100
1, 153360, Note_off_c, 0, 67, 100
1, 153360, Note_on_c, 0, 68, 100
1, 153504, Note_off_c, 0, 68, 100
1, 153504, Note_on_c, 0, 60, 100
1, 154080, Note_off_c, 0, 60, 100
1, 154752, Note_on_c, 0, 67, 100
1, 154944, Note_off_c, 0, 67, 100
1, 154944, Note_on_c, 0, 69, 100
1, 155088, Note_off_c, 0, 69, 100
1, 155088, Note_on_c, 0, 72, 100
1, 155520, Note_off_c, 0, 72, 100
1, 155520, Note_on_c, 0, 66, 100
1, 155648, Note_off_c, 0, 66, 100
1, 155648, Note_on_c, 0, 68, 100
1, 155808, Note_off_c, 0, 68, 100
1, 155808, Note_on_c, 0, 74, 100
1, 156192, Note_off_c, 0, 74, 100
1, 156864, Note_on_c, 0, 74, 100
1, 156960, Note_off_c, 0, 74, 100
1, 156960, Note_on_c, 0, 73, 100
1, 157056, Note_off_c, 0, 73, 100
1, 157056, Note_on_c, 0, 72, 100
1, 157152, Note_off_c, 0, 72, 100
1, 157152, Note_on_c, 0, 69, 100
1, 157248, Note_off_c, 0, 69, 100
1, 157248, Note_on_c, 0, 68, 100
1, 157344, Note_off_c, 0, 68, 100
1, 157344, Note_on_c, 0, 67, 100
1, 157440, Note_off_c, 0, 67, 100
1, 157440, Note_on_c, 0, 62, 100
1, 157536, Note_off_c, 0, 62, 100
1, 157536, Note_on_c, 0, 61, 100
1, 157632, Note_off_c, 0, 61, 100
1, 157632, Note_on_c, 0, 60, 100
1, 157728, Note_off_c, 0, 60, 100
1, 157728, Note_on_c, 0, 57, 100
1, 157824, Note_off_c, 0, 57, 100
1, 157824, Note_on_c, 0, 56, 100
1, 157920, Note_off_c, 0, 56, 100
1, 157920, Note_on_c, 0, 55, 100
1, 158016, Note_off_c, 0, 55, 100
1, 158016, Note_on_c, 0, 50, 100
1, 158112, Note_off_c, 0, 50, 100
1, 158112, Note_on_c, 0, 49, 100
1, 158208, Note_off_c, 0, 49, 100
1, 158208, Note_on_c, 0, 48, 100
1, 158400, Note_off_c, 0, 48, 100
1, 158400, Note_on_c, 0, 47, 100
1, 158496, Note_off_c, 0, 47, 100
1, 158496, Note_on_c, 0, 49, 100
1, 158592, Note_off_c, 0, 49, 100
1, 158592, Note_on_c, 0, 50, 100
1, 158688, Note_off_c, 0, 50, 100
1, 158688, Note_on_c, 0, 55, 100
1, 158784, Note_off_c, 0, 55, 100
1, 158784, Note_on_c, 0, 56, 100
1, 158880, Note_off_c, 0, 56, 100
1, 158880, Note_on_c, 0, 57, 100
1, 158976, Note_off_c, 0, 57, 100
1, 158976, Note_on_c, 0, 60, 100
1, 159072, Note_off_c, 0, 60, 100
1, 159072, Note_on_c, 0, 61, 100
1, 159120, Note_off_c, 0, 61, 100
1, 159120, Note_on_c, 0, 62, 100
1, 159264, Note_off_c, 0, 62, 100
1, 159264, Note_on_c, 0, 67, 100
1, 159312, Note_off_c, 0, 67, 100
1, 159312, Note_on_c, 0, 68, 100
1, 159456, Note_off_c, 0, 68, 100
1, 159456, Note_on_c, 0, 69, 100
1, 159504, Note_off_c, 0, 69, 100
1, 159504, Note_on_c, 0, 72, 100
1, 159648, Note_off_c, 0, 72, 100
1, 159648, Note_on_c, 0, 73, 100
1, 159744, Note_off_c, 0, 73, 100
1, 159744, Note_on_c, 0, 74, 100
1, 159840, Note_off_c, 0, 74, 100
1, 159840, Note_on_c, 0, 74, 100
1, 159936, Note_off_c, 0, 74, 100
1, 160608, Note_on_c, 0, 74, 100
1, 160896, Note_off_c, 0, 74, 100
1, 160896, Note_on_c, 0, 72, 100
1, 160992, Note_off_c, 0, 72, 100
1, 160992, Note_on_c, 0, 69, 100
1, 161088, Note_off_c, 0, 69, 100
1, 161088, Note_on_c, 0, 67, 100
1, 161184, Note_off_c, 0, 67, 100
1, 161184, Note_on_c, 0, 66, 100
1, 161280, Note_off_c, 0, 66, 100
1, 161280, Note_on_c, 0, 65, 100
1, 161376, Note_off_c, 0, 65, 100
1, 161376, Note_on_c, 0, 65, 100
1, 161568, Note_off_c, 0, 65, 100
1, 162192, Note_on_c, 0, 67, 100
1, 162336, Note_off_c, 0, 67, 100
1, 162336, Note_on_c, 0, 68, 100
1, 162432, Note_off_c, 0, 68, 100
1, 162432, Note_on_c, 0, 65, 100
1, 162528, Note_off_c, 0, 65, 100
1, 162528, Note_on_c, 0, 61, 100
1, 162576, Note_off_c, 0, 61, 100
1, 162576, Note_on_c, 0, 58, 100
1, 162720, Note_off_c, 0, 58, 100
1, 162720, Note_on_c, 0, 55, 100
1, 162816, Note_off_c, 0, 55, 100
1, 162816, Note_on_c, 0, 67, 100
1, 162912, Note_off_c, 0, 67, 100
1, 162912, Note_on_c, 0, 68, 100
1, 163008, Note_off_c, 0, 68, 100
1, 163008, Note_on_c, 0, 65, 100
1, 163104, Note_off_c, 0, 65, 100
1, 163104, Note_on_c, 0, 61, 100
1, 163200, Note_off_c, 0, 61, 100
1, 163200, Note_on_c, 0, 58, 100
1, 163296, Note_off_c, 0, 58, 100
1, 163296, Note_on_c, 0, 53, 100
1, 163392, Note_off_c, 0, 53, 100
1, 163392, Note_on_c, 0, 57, 100
1, 163456, Note_off_c, 0, 57, 100
1, 163456, Note_on_c, 0, 60, 100
1, 163520, Note_off_c, 0, 60, 100
1, 163520, Note_on_c, 0, 58, 100
1, 163680, Note_off_c, 0, 58, 100
1, 163680, Note_on_c, 0, 53, 100
1, 163776, Note_off_c, 0, 53, 100
1, 163776, Note_on_c, 0, 56, 100
1, 163872, Note_off_c, 0, 56, 100
1, 163872, Note_on_c, 0, 54, 100
1, 163968, Note_off_c, 0, 54, 100
1, 163968, Note_on_c, 0, 55, 100
1, 164096, Note_off_c, 0, 55, 100
1, 164096, Note_on_c, 0, 58, 100
1, 164160, Note_off_c, 0, 58, 100
1, 164160, Note_on_c, 0, 61, 100
1, 164256, Note_off_c, 0, 61, 100
1, 164256, Note_on_c, 0, 65, 100
1, 164352, Note_off_c, 0, 65, 100
1, 164352, Note_on_c, 0, 64, 100
1, 164448, Note_off_c, 0, 64, 100
1, 164448, Note_on_c, 0, 60, 100
1, 164544, Note_off_c, 0, 60, 100
1, 164544, Note_on_c, 0, 57, 100
1, 164640, Note_off_c, 0, 57, 100
1, 164640, Note_on_c, 0, 55, 100
1, 164736, Note_off_c, 0, 55, 100
1, 164736, Note_on_c, 0, 54, 100
1, 164832, Note_off_c, 0, 54, 100
1, 164832, Note_on_c, 0, 63, 100
1, 164928, Note_off_c, 0, 63, 100
1, 164928, Note_on_c, 0, 62, 100
1, 165024, Note_off_c, 0, 62, 100
1, 165024, Note_on_c, 0, 60, 100
1, 165120, Note_off_c, 0, 60, 100
1, 165120, Note_on_c, 0, 58, 100
1, 165216, Note_off_c, 0, 58, 100
1, 165216, Note_on_c, 0, 55, 100
1, 165312, Note_off_c, 0, 55, 100
1, 165312, Note_on_c, 0, 54, 100
1, 165408, Note_off_c, 0, 54, 100
1, 165408, Note_on_c, 0, 53, 100
1, 165504, Note_off_c, 0, 53, 100
1, 165504, Note_on_c, 0, 52, 100
1, 165600, Note_off_c, 0, 52, 100
1, 165600, Note_on_c, 0, 47, 100
1, 165696, Note_off_c, 0, 47, 100
1, 165696, Note_on_c, 0, 52, 100
1, 165792, Note_off_c, 0, 52, 100
1, 165792, Note_on_c, 0, 54, 100
1, 165888, Note_off_c, 0, 54, 100
1, 165888, Note_on_c, 0, 55, 100
1, 165984, Note_off_c, 0, 55, 100
1, 165984, Note_on_c, 0, 52, 100
1, 166176, Note_off_c, 0, 52, 100
1, 166176, Note_on_c, 0, 58, 100
1, 166272, Note_off_c, 0, 58, 100
1, 166272, Note_on_c, 0, 56, 100
1, 166368, Note_off_c, 0, 56, 100
1, 166368, Note_on_c, 0, 57, 100
1, 166464, Note_off_c, 0, 57, 100
1, 166464, Note_on_c, 0, 62, 100
1, 166560, Note_off_c, 0, 62, 100
1, 166560, Note_on_c, 0, 59, 100
1, 166656, Note_off_c, 0, 59, 100
1, 166656, Note_on_c, 0, 60, 100
1, 166752, Note_off_c, 0, 60, 100
1, 166752, Note_on_c, 0, 67, 100
1, 166848, Note_off_c, 0, 67, 100
1, 166848, Note_on_c, 0, 64, 100
1, 166944, Note_off_c, 0, 64, 100
1, 166944, Note_on_c, 0, 65, 100
1, 167040, Note_off_c, 0, 65, 100
1, 167040, Note_on_c, 0, 70, 100
1, 167168, Note_off_c, 0, 70, 100
1, 167168, Note_on_c, 0, 68, 100
1, 167232, Note_off_c, 0, 68, 100
1, 167232, Note_on_c, 0, 69, 100
1, 167328, Note_off_c, 0, 69, 100
1, 167328, Note_on_c, 0, 74, 100
1, 167424, Note_off_c, 0, 74, 100
1, 168000, Note_on_c, 0, 74, 100
1, 168096, Note_off_c, 0, 74, 100
1, 168096, Note_on_c, 0, 73, 100
1, 168144, Note_off_c, 0, 73, 100
1, 168144, Note_on_c, 0, 72, 100
1, 168192, Note_off_c, 0, 72, 100
1, 168192, Note_on_c, 0, 71, 100
1, 168288, Note_off_c, 0, 71, 100
1, 168288, Note_on_c, 0, 68, 100
1, 168384, Note_off_c, 0, 68, 100
1, 168384, Note_on_c, 0, 67, 100
1, 168480, Note_off_c, 0, 67, 100
1, 168480, Note_on_c, 0, 66, 100
1, 168528, Note_off_c, 0, 66, 100
1, 168528, Note_on_c, 0, 65, 100
1, 168624, Note_off_c, 0, 65, 100
1, 168624, Note_on_c, 0, 62, 100
1, 168720, Note_off_c, 0, 62, 100
1, 168720, Note_on_c, 0, 58, 100
1, 168912, Note_off_c, 0, 58, 100
1, 168912, Note_on_c, 0, 64, 100
1, 169008, Note_off_c, 0, 64, 100
1, 169008, Note_on_c, 0, 65, 100
1, 169056, Note_off_c, 0, 65, 100
1, 169056, Note_on_c, 0, 65, 100
1, 169440, Note_off_c, 0, 65, 100
1, 170112, Note_on_c, 0, 64, 100
1, 170304, Note_off_c, 0, 64, 100
1, 170304, Note_on_c, 0, 65, 100
1, 170928, Note_off_c, 0, 65, 100
1, 170928, Note_on_c, 0, 64, 100
1, 171024, Note_off_c, 0, 64, 100
1, 171024, Note_on_c, 0, 65, 100
1, 171648, Note_off_c, 0, 65, 100
1, 171648, Note_on_c, 0, 64, 100
1, 171792, Note_off_c, 0, 64, 100
1, 171792, Note_on_c, 0, 65, 100
1, 172416, Note_off_c, 0, 65, 100
1, 172416, Note_on_c, 0, 62, 100
1, 172608, Note_off_c, 0, 62, 100
1, 172608, Note_on_c, 0, 65, 100
1, 172800, Note_off_c, 0, 65, 100
1, 172800, Note_on_c, 0, 67, 100
1, 172896, Note_off_c, 0, 67, 100
1, 172896, Note_on_c, 0, 69, 100
1, 173088, Note_off_c, 0, 69, 100
1, 173088, Note_on_c, 0, 69, 100
1, 173376, Note_off_c, 0, 69, 100
1, 173664, Note_on_c, 0, 65, 100
1, 173904, Note_off_c, 0, 65, 100
1, 173904, Note_on_c, 0, 62, 100
1, 173952, Note_off_c, 0, 62, 100
1, 173952, Note_on_c, 0, 64, 100
1, 174144, Note_off_c, 0, 64, 100
1, 174144, Note_on_c, 0, 67, 100
1, 174240, Note_off_c, 0, 67, 100
1, 174240, Note_on_c, 0, 68, 100
1, 174432, Note_off_c, 0, 68, 100
1, 174432, Note_on_c, 0, 68, 100
1, 174528, Note_off_c, 0, 68, 100
1, 174528, Note_on_c, 0, 68, 100
1, 174720, Note_off_c, 0, 68, 100
1, 175872, Note_on_c, 0, 67, 100
1, 175968, Note_off_c, 0, 67, 100
1, 175968, Note_on_c, 0, 68, 100
1, 176064, Note_off_c, 0, 68, 100
1, 176064, Note_on_c, 0, 67, 100
1, 176112, Note_off_c, 0, 67, 100
1, 176112, Note_on_c, 0, 66, 100
1, 176208, Note_off_c, 0, 66, 100
1, 176208, Note_on_c, 0, 65, 100
1, 176320, Note_off_c, 0, 65, 100
1, 176320, Note_on_c, 0, 61, 100
1, 176384, Note_off_c, 0, 61, 100
1, 176384, Note_on_c, 0, 60, 100
1, 176512, Note_off_c, 0, 60, 100
1, 176512, Note_on_c, 0, 58, 100
1, 176640, Note_off_c, 0, 58, 100
1, 176640, Note_on_c, 0, 57, 100
1, 176688, Note_off_c, 0, 57, 100
1, 176688, Note_on_c, 0, 58, 100
1, 176784, Note_off_c, 0, 58, 100
1, 176784, Note_on_c, 0, 57, 100
1, 176880, Note_off_c, 0, 57, 100
1, 176880, Note_on_c, 0, 55, 100
1, 176976, Note_off_c, 0, 55, 100
1, 176976, Note_on_c, 0, 54, 100
1, 177072, Note_off_c, 0, 54, 100
1, 177072, Note_on_c, 0, 63, 100
1, 177168, Note_off_c, 0, 63, 100
1, 177168, Note_on_c, 0, 62, 100
1, 177264, Note_off_c, 0, 62, 100
1, 177264, Note_on_c, 0, 60, 100
1, 177360, Note_off_c, 0, 60, 100
1, 177360, Note_on_c, 0, 58, 100
1, 177456, Note_off_c, 0, 58, 100
1, 177456, Note_on_c, 0, 55, 100
1, 177552, Note_off_c, 0, 55, 100
1, 177552, Note_on_c, 0, 54, 100
1, 177648, Note_off_c, 0, 54, 100
1, 177648, Note_on_c, 0, 53, 100
1, 177744, Note_off_c, 0, 53, 100
1, 177744, Note_on_c, 0, 52, 100
1, 177792, Note_off_c, 0, 52, 100
1, 177792, Note_on_c, 0, 48, 100
1, 177888, Note_off_c, 0, 48, 100
1, 178176, Note_on_c, 0, 66, 100
1, 178272, Note_off_c, 0, 66, 100
1, 178272, Note_on_c, 0, 67, 100
1, 178464, Note_off_c, 0, 67, 100
1, 178464, Note_on_c, 0, 65, 100
1, 178560, Note_off_c, 0, 65, 100
1, 178560, Note_on_c, 0, 62, 100
1, 178656, Note_off_c, 0, 62, 100
1, 178656, Note_on_c, 0, 57, 100
1, 178752, Note_off_c, 0, 57, 100
1, 178752, Note_on_c, 0, 53, 100
1, 178800, Note_off_c, 0, 53, 100
1, 178800, Note_on_c, 0, 67, 100
1, 179136, Note_off_c, 0, 67, 100
1, 179136, Note_on_c, 0, 65, 100
1, 179264, Note_off_c, 0, 65, 100
1, 179264, Note_on_c, 0, 60, 100
1, 179360, Note_off_c, 0, 60, 100
1, 179616, Note_on_c, 0, 67, 100
1, 179904, Note_off_c, 0, 67, 100
1, 179904, Note_on_c, 0, 65, 100
1, 180000, Note_off_c, 0, 65, 100
1, 180000, Note_on_c, 0, 62, 100
1, 180096, Note_off_c, 0, 62, 100
1, 180096, Note_on_c, 0, 58, 100
1, 180192, Note_off_c, 0, 58, 100
1, 180192, Note_on_c, 0, 55, 100
1, 180288, Note_off_c, 0, 55, 100
1, 180288, Note_on_c, 0, 65, 100
1, 180384, Note_off_c, 0, 65, 100
1, 180384, Note_on_c, 0, 67, 100
1, 180672, Note_off_c, 0, 67, 100
1, 180672, Note_on_c, 0, 65, 100
1, 180768, Note_off_c, 0, 65, 100
1, 180768, Note_on_c, 0, 61, 100
1, 180816, Note_off_c, 0, 61, 100
1, 180816, Note_on_c, 0, 58, 100
1, 180960, Note_off_c, 0, 58, 100
1, 180960, Note_on_c, 0, 55, 100
1, 181152, Note_off_c, 0, 55, 100
1, 181152, Note_on_c, 0, 67, 100
1, 181440, Note_off_c, 0, 67, 100
1, 181440, Note_on_c, 0, 65, 100
1, 181536, Note_off_c, 0, 65, 100
1, 181536, Note_on_c, 0, 61, 100
1, 181632, Note_off_c, 0, 61, 100
1, 181632, Note_on_c, 0, 58, 100
1, 181728, Note_off_c, 0, 58, 100
1, 181728, Note_on_c, 0, 55, 100
1, 181824, Note_off_c, 0, 55, 100
1, 181824, Note_on_c, 0, 68, 100
1, 181952, Note_off_c, 0, 68, 100
1, 181952, Note_on_c, 0, 63, 100
1, 182016, Note_off_c, 0, 63, 100
1, 182016, Note_on_c, 0, 64, 100
1, 182112, Note_off_c, 0, 64, 100
1, 182112, Note_on_c, 0, 67, 100
1, 182208, Note_off_c, 0, 67, 100
1, 182208, Note_on_c, 0, 65, 100
1, 182304, Note_off_c, 0, 65, 100
1, 182304, Note_on_c, 0, 61, 100
1, 182400, Note_off_c, 0, 61, 100
1, 182400, Note_on_c, 0, 58, 100
1, 182496, Note_off_c, 0, 58, 100
1, 182496, Note_on_c, 0, 53, 100
1, 182592, Note_off_c, 0, 53, 100
1, 182592, Note_on_c, 0, 57, 100
1, 182688, Note_off_c, 0, 57, 100
1, 182688, Note_on_c, 0, 53, 100
1, 182784, Note_off_c, 0, 53, 100
1, 182784, Note_on_c, 0, 58, 100
1, 182880, Note_off_c, 0, 58, 100
1, 182880, Note_on_c, 0, 59, 100
1, 182976, Note_off_c, 0, 59, 100
1, 182976, Note_on_c, 0, 60, 100
1, 183040, Note_off_c, 0, 60, 100
1, 183040, Note_on_c, 0, 61, 100
1, 183104, Note_off_c, 0, 61, 100
1, 183104, Note_on_c, 0, 62, 100
1, 183232, Note_off_c, 0, 62, 100
1, 183232, Note_on_c, 0, 64, 100
1, 183360, Note_off_c, 0, 64, 100
1, 183360, Note_on_c, 0, 65, 100
1, 183456, Note_off_c, 0, 65, 100
1, 183456, Note_on_c, 0, 64, 100
1, 183552, Note_off_c, 0, 64, 100
1, 183552, Note_on_c, 0, 62, 100
1, 183616, Note_off_c, 0, 62, 100
1, 183616, Note_on_c, 0, 61, 100
1, 183680, Note_off_c, 0, 61, 100
1, 183680, Note_on_c, 0, 60, 100
1, 183840, Note_off_c, 0, 60, 100
1, 183840, Note_on_c, 0, 58, 100
1, 183936, Note_off_c, 0, 58, 100
1, 183936, Note_on_c, 0, 53, 100
1, 184032, Note_off_c, 0, 53, 100
1, 184032, Note_on_c, 0, 55, 100
1, 184128, Note_off_c, 0, 55, 100
1, 184128, Note_on_c, 0, 57, 100
1, 184224, Note_off_c, 0, 57, 100
1, 184224, Note_on_c, 0, 51, 100
1, 184320, Note_off_c, 0, 51, 100
1, 184848, Note_on_c, 0, 69, 100
1, 184992, Note_off_c, 0, 69, 100
1, 184992, Note_on_c, 0, 63, 100
1, 185136, Note_off_c, 0, 63, 100
1, 185136, Note_on_c, 0, 69, 100
1, 185232, Note_off_c, 0, 69, 100
1, 185232, Note_on_c, 0, 63, 100
1, 185424, Note_off_c, 0, 63, 100
1, 185424, Note_on_c, 0, 69, 100
1, 185568, Note_off_c, 0, 69, 100
1, 185568, Note_on_c, 0, 62, 100
1, 185664, Note_off_c, 0, 62, 100
1, 186624, Note_on_c, 0, 69, 100
1, 186768, Note_off_c, 0, 69, 100
1, 186768, Note_on_c, 0, 62, 100
1, 186864, Note_off_c, 0, 62, 100
1, 187200, Note_on_c, 0, 68, 100
1, 187328, Note_off_c, 0, 68, 100
1, 187328, Note_on_c, 0, 68, 100
1, 187424, Note_off_c, 0, 68, 100
1, 187968, Note_on_c, 0, 68, 100
1, 188064, Note_off_c, 0, 68, 100
1, 188064, Note_on_c, 0, 67, 100
1, 188160, Note_off_c, 0, 67, 100
1, 188160, Note_on_c, 0, 61, 100
1, 188256, Note_off_c, 0, 61, 100
1, 188256, Note_on_c, 0, 68, 100
1, 188352, Note_off_c, 0, 68, 100
1, 188352, Note_on_c, 0, 67, 100
1, 188544, Note_off_c, 0, 67, 100
1, 188544, Note_on_c, 0, 67, 100
1, 188592, Note_off_c, 0, 67, 100
1, 188592, Note_on_c, 0, 66, 100
1, 188688, Note_off_c, 0, 66, 100
1, 188688, Note_on_c, 0, 60, 100
1, 188784, Note_off_c, 0, 60, 100
1, 189984, Note_on_c, 0, 60, 100
1, 190080, Note_off_c, 0, 60, 100
1, 190080, Note_on_c, 0, 62, 100
1, 190208, Note_off_c, 0, 62, 100
1, 190208, Note_on_c, 0, 65, 100
1, 190272, Note_off_c, 0, 65, 100
1, 190272, Note_on_c, 0, 68, 100
1, 190368, Note_off_c, 0, 68, 100
1, 190368, Note_on_c, 0, 65, 100
1, 190464, Note_off_c, 0, 65, 100
1, 190464, Note_on_c, 0, 67, 100
1, 190560, Note_off_c, 0, 67, 100
1, 190560, Note_on_c, 0, 65, 100
1, 190656, Note_off_c, 0, 65, 100
1, 190656, Note_on_c, 0, 68, 100
1, 190752, Note_off_c, 0, 68, 100
1, 190752, Note_on_c, 0, 65, 100
1, 190848, Note_off_c, 0, 65, 100
1, 190848, Note_on_c, 0, 67, 100
1, 190944, Note_off_c, 0, 67, 100
1, 190944, Note_on_c, 0, 65, 100
1, 191040, Note_off_c, 0, 65, 100
1, 191040, Note_on_c, 0, 68, 100
1, 191136, Note_off_c, 0, 68, 100
1, 191136, Note_on_c, 0, 65, 100
1, 191232, Note_off_c, 0, 65, 100
1, 191232, Note_on_c, 0, 67, 100
1, 191328, Note_off_c, 0, 67, 100
1, 191328, Note_on_c, 0, 65, 100
1, 191424, Note_off_c, 0, 65, 100
1, 191424, Note_on_c, 0, 68, 100
1, 191520, Note_off_c, 0, 68, 100
1, 191520, Note_on_c, 0, 65, 100
1, 191616, Note_off_c, 0, 65, 100
1, 191616, Note_on_c, 0, 67, 100
1, 191712, Note_off_c, 0, 67, 100
1, 191712, Note_on_c, 0, 65, 100
1, 191808, Note_off_c, 0, 65, 100
1, 191808, Note_on_c, 0, 68, 100
1, 191904, Note_off_c, 0, 68, 100
1, 191904, Note_on_c, 0, 65, 100
1, 192000, Note_off_c, 0, 65, 100
1, 192000, Note_on_c, 0, 67, 100
1, 192096, Note_off_c, 0, 67, 100
1, 192096, Note_on_c, 0, 67, 100
1, 192192, Note_off_c, 0, 67, 100
1, 192192, Note_on_c, 0, 65, 100
1, 192288, Note_off_c, 0, 65, 100
1, 192288, Note_on_c, 0, 62, 100
1, 192384, Note_off_c, 0, 62, 100
1, 192384, Note_on_c, 0, 61, 100
1, 192480, Note_off_c, 0, 61, 100
1, 192480, Note_on_c, 0, 60, 100
1, 192576, Note_off_c, 0, 60, 100
1, 192576, Note_on_c, 0, 59, 100
1, 192672, Note_off_c, 0, 59, 100
1, 192672, Note_on_c, 0, 62, 100
1, 192768, Note_off_c, 0, 62, 100
1, 192768, Note_on_c, 0, 65, 100
1, 192864, Note_off_c, 0, 65, 100
1, 192864, Note_on_c, 0, 67, 100
1, 192960, Note_off_c, 0, 67, 100
1, 192960, Note_on_c, 0, 69, 100
1, 193056, Note_off_c, 0, 69, 100
1, 193056, Note_on_c, 0, 63, 100
1, 193152, Note_off_c, 0, 63, 100
1, 193152, Note_on_c, 0, 64, 100
1, 193248, Note_off_c, 0, 64, 100
1, 193248, Note_on_c, 0, 67, 100
1, 193344, Note_off_c, 0, 67, 100
1, 193344, Note_on_c, 0, 65, 100
1, 193440, Note_off_c, 0, 65, 100
1, 193440, Note_on_c, 0, 62, 100
1, 193536, Note_off_c, 0, 62, 100
1, 193536, Note_on_c, 0, 58, 100
1, 193632, Note_off_c, 0, 58, 100
1, 193632, Note_on_c, 0, 55, 100
1, 193728, Note_off_c, 0, 55, 100
1, 193728, Note_on_c, 0, 63, 100
1, 193824, Note_off_c, 0, 63, 100
1, 193824, Note_on_c, 0, 65, 100
1, 193920, Note_off_c, 0, 65, 100
1, 194688, Note_on_c, 0, 71, 100
1, 194880, Note_off_c, 0, 71, 100
1, 194880, Note_on_c, 0, 72, 100
1, 195072, Note_off_c, 0, 72, 100
1, 195072, Note_on_c, 0, 68, 100
1, 195264, Note_off_c, 0, 68, 100
1, 195264, Note_on_c, 0, 69, 100
1, 195456, Note_off_c, 0, 69, 100
1, 195456, Note_on_c, 0, 64, 100
1, 195648, Note_off_c, 0, 64, 100
1, 195648, Note_on_c, 0, 65, 100
1, 195840, Note_off_c, 0, 65, 100
1, 195840, Note_on_c, 0, 59, 100
1, 195936, Note_off_c, 0, 59, 100
1, 195936, Note_on_c, 0, 60, 100
1, 196128, Note_off_c, 0, 60, 100
1, 196128, Note_on_c, 0, 56, 100
1, 196224, Note_off_c, 0, 56, 100
1, 196224, Note_on_c, 0, 57, 100
1, 196368, Note_off_c, 0, 57, 100
1, 196368, Note_on_c, 0, 53, 100
1, 196576, Note_off_c, 0, 53, 100
1, 196576, End_track
0, 0, End_of_file
