0, 0, Header, 1, 1, 192
1, 0, Start_track
1, 0, Title_t, "Melody"
1, 0, Tempo, 250000
1, 0, Key_signature, -1, "minor"
1, 0, Time_signature, 4, 2, 24, 8
1, 144, Note_on_c, 0, 60, 100
1, 288, Note_off_c, 0, 60, 100
1, 288, Note_on_c, 0, 55, 100
1, 432, Note_off_c, 0, 55, 100
1, 432, Note_on_c, 0, 58, 100
1, 528, Note_off_c, 0, 58, 100
1, 528, Note_on_c, 0, 55, 100
1, 720, Note_off_c, 0, 55, 100
1, 720, Note_on_c, 0, 58, 100
1, 960, Note_off_c, 0, 58, 100
1, 960, Note_on_c, 0, 55, 100
1, 1008, Note_off_c, 0, 55, 100
1, 1008, Note_on_c, 0, 58, 100
1, 1104, Note_off_c, 0, 58, 100
1, 1104, Note_on_c, 0, 60, 100
1, 1248, Note_off_c, 0, 60, 100
1, 1248, Note_on_c, 0, 65, 100
1, 1344, Note_off_c, 0, 65, 100
1, 1344, Note_on_c, 0, 67, 100
1, 1536, Note_off_c, 0, 67, 100
1, 1536, Note_on_c, 0, 70, 100
1, 1680, Note_off_c, 0, 70, 100
1, 1680, Note_on_c, 0, 72, 100
1, 1824, Note_off_c, 0, 72, 100
1, 1824, Note_on_c, 0, 67, 100
1, 2016, Note_off_c, 0, 67, 100
1, 2016, Note_on_c, 0, 67, 100
1, 2112, Note_off_c, 0, 67, 100
1, 2112, Note_on_c, 0, 65, 100
1, 2304, Note_off_c, 0, 65, 100
1, 2304, Note_on_c, 0, 63, 100
1, 2448, Note_off_c, 0, 63, 100
1, 2448, Note_on_c, 0, 62, 100
1, 2640, Note_off_c, 0, 62, 100
1, 2640, Note_on_c, 0, 65, 100
1, 2976, Note_off_c, 0, 65, 100
1, 2976, Note_on_c, 0, 72, 100
1, 3024, Note_off_c, 0, 72, 100
1, 3024, Note_on_c, 0, 70, 100
1, 3072, Note_off_c, 0, 70, 100
1, 3072, Note_on_c, 0, 67, 100
1, 3264, Note_off_c, 0, 67, 100
1, 3264, Note_on_c, 0, 68, 100
1, 3408, Note_off_c, 0, 68, 100
1, 3408, Note_on_c, 0, 65, 100
1, 3552, Note_off_c, 0, 65, 100
1, 3552, Note_on_c, 0, 62, 100
1, 3792, Note_off_c, 0, 62, 100
1, 3792, Note_on_c, 0, 61, 100
1, 3888, Note_off_c, 0, 61, 100
1, 4224, Note_on_c, 0, 60, 100
1, 4512, Note_off_c, 0, 60, 100
1, 4512, Note_on_c, 0, 58, 100
1, 4608, Note_off_c, 0, 58, 100
1, 4608, Note_on_c, 0, 57, 100
1, 4752, Note_off_c, 0, 57, 100
1, 4752, Note_on_c, 0, 65, 100
1, 4944, Note_off_c, 0, 65, 100
1, 4944, Note_on_c, 0, 63, 100
1, 5136, Note_off_c, 0, 63, 100
1, 5136, Note_on_c, 0, 65, 100
1, 5520, Note_off_c, 0, 65, 100
1, 5520, Note_on_c, 0, 62, 100
1, 5760, Note_off_c, 0, 62, 100
1, 5760, Note_on_c, 0, 65, 100
1, 5952, Note_off_c, 0, 65, 100
1, 5952, Note_on_c, 0, 74, 100
1, 6144, Note_off_c, 0, 74, 100
1, 6144, Note_on_c, 0, 72, 100
1, 6336, Note_off_c, 0, 72, 100
1, 6336, Note_on_c, 0, 70, 100
1, 6528, Note_off_c, 0, 70, 100
1, 6528, Note_on_c, 0, 69, 100
1, 6672, Note_off_c, 0, 69, 100
1, 6672, Note_on_c, 0, 67, 100
1, 6816, Note_off_c, 0, 67, 100
1, 6816, Note_on_c, 0, 65, 100
1, 6976, Note_off_c, 0, 65, 100
1, 6976, Note_on_c, 0, 65, 100
1, 7104, Note_off_c, 0, 65, 100
1, 7104, Note_on_c, 0, 60, 100
1, 7248, Note_off_c, 0, 60, 100
1, 7248, Note_on_c, 0, 67, 100
1, 7344, Note_off_c, 0, 67, 100
1, 7584, Note_on_c, 0, 69, 100
1, 7680, Note_off_c, 0, 69, 100
1, 7680, Note_on_c, 0, 66, 100
1, 7776, Note_off_c, 0, 66, 100
1, 7776, Note_on_c, 0, 63, 100
1, 7968, Note_off_c, 0, 63, 100
1, 7968, Note_on_c, 0, 66, 100
1, 8064, Note_off_c, 0, 66, 100
1, 8064, Note_on_c, 0, 70, 100
1, 8160, Note_off_c, 0, 70, 100
1, 8160, Note_on_c, 0, 67, 100
1, 8256, Note_off_c, 0, 67, 100
1, 8640, Note_on_c, 0, 63, 100
1, 8736, Note_off_c, 0, 63, 100
1, 8736, Note_on_c, 0, 65, 100
1, 8832, Note_off_c, 0, 65, 100
1, 8832, Note_on_c, 0, 63, 100
1, 8928, Note_off_c, 0, 63, 100
1, 8928, Note_on_c, 0, 69, 100
1, 9072, Note_off_c, 0, 69, 100
1, 9072, Note_on_c, 0, 74, 100
1, 9168, Note_off_c, 0, 74, 100
1, 9168, Note_on_c, 0, 72, 100
1, 9408, Note_off_c, 0, 72, 100
1, 9408, Note_on_c, 0, 67, 100
1, 9504, Note_off_c, 0, 67, 100
1, 9504, Note_on_c, 0, 62, 100
1, 9600, Note_off_c, 0, 62, 100
1, 9888, Note_on_c, 0, 68, 100
1, 9984, Note_off_c, 0, 68, 100
1, 9984, Note_on_c, 0, 62, 100
1, 10080, Note_off_c, 0, 62, 100
1, 10080, Note_on_c, 0, 63, 100
1, 10272, Note_off_c, 0, 63, 100
1, 10272, Note_on_c, 0, 67, 100
1, 10368, Note_off_c, 0, 67, 100
1, 10368, Note_on_c, 0, 70, 100
1, 10464, Note_off_c, 0, 70, 100
1, 10464, Note_on_c, 0, 67, 100
1, 10560, Note_off_c, 0, 67, 100
1, 10560, Note_on_c, 0, 68, 100
1, 10656, Note_off_c, 0, 68, 100
1, 11040, Note_on_c, 0, 58, 100
1, 11136, Note_off_c, 0, 58, 100
1, 11136, Note_on_c, 0, 61, 100
1, 11232, Note_off_c, 0, 61, 100
1, 11232, Note_on_c, 0, 63, 100
1, 11328, Note_off_c, 0, 63, 100
1, 11328, Note_on_c, 0, 66, 100
1, 11376, Note_off_c, 0, 66, 100
1, 11376, Note_on_c, 0, 68, 100
1, 11472, Note_off_c, 0, 68, 100
1, 11472, Note_on_c, 0, 71, 100
1, 11616, Note_off_c, 0, 71, 100
1, 11616, Note_on_c, 0, 73, 100
1, 11712, Note_off_c, 0, 73, 100
1, 11712, Note_on_c, 0, 72, 100
1, 11808, Note_off_c, 0, 72, 100
1, 11808, Note_on_c, 0, 71, 100
1, 11904, Note_off_c, 0, 71, 100
1, 11904, Note_on_c, 0, 70, 100
1, 12000, Note_off_c, 0, 70, 100
1, 12000, Note_on_c, 0, 69, 100
1, 12096, Note_off_c, 0, 69, 100
1, 12096, Note_on_c, 0, 68, 100
1, 12192, Note_off_c, 0, 68, 100
1, 12672, Note_on_c, 0, 58, 100
1, 12768, Note_off_c, 0, 58, 100
1, 12768, Note_on_c, 0, 59, 100
1, 12912, Note_off_c, 0, 59, 100
1, 12912, Note_on_c, 0, 63, 100
1, 13008, Note_off_c, 0, 63, 100
1, 13008, Note_on_c, 0, 65, 100
1, 13120, Note_off_c, 0, 65, 100
1, 13120, Note_on_c, 0, 66, 100
1, 13248, Note_off_c, 0, 66, 100
1, 13248, Note_on_c, 0, 62, 100
1, 13344, Note_off_c, 0, 62, 100
1, 13344, Note_on_c, 0, 61, 100
1, 13392, Note_off_c, 0, 61, 100
1, 13392, Note_on_c, 0, 66, 100
1, 13536, Note_off_c, 0, 66, 100
1, 13536, Note_on_c, 0, 65, 100
1, 13632, Note_off_c, 0, 65, 100
1, 13632, Note_on_c, 0, 64, 100
1, 13776, Note_off_c, 0, 64, 100
1, 13776, Note_on_c, 0, 68, 100
1, 13872, Note_off_c, 0, 68, 100
1, 14112, Note_on_c, 0, 65, 100
1, 14208, Note_off_c, 0, 65, 100
1, 14208, Note_on_c, 0, 66, 100
1, 14304, Note_off_c, 0, 66, 100
1, 14304, Note_on_c, 0, 63, 100
1, 14400, Note_off_c, 0, 63, 100
1, 14400, Note_on_c, 0, 62, 100
1, 14448, Note_off_c, 0, 62, 100
1, 14448, Note_on_c, 0, 66, 100
1, 14544, Note_off_c, 0, 66, 100
1, 14544, Note_on_c, 0, 69, 100
1, 14592, Note_off_c, 0, 69, 100
1, 14592, Note_on_c, 0, 67, 100
1, 14784, Note_off_c, 0, 67, 100
1, 14784, Note_on_c, 0, 62, 100
1, 14976, Note_off_c, 0, 62, 100
1, 14976, Note_on_c, 0, 64, 100
1, 15120, Note_off_c, 0, 64, 100
1, 15120, Note_on_c, 0, 68, 100
1, 15264, Note_off_c, 0, 68, 100
1, 15264, Note_on_c, 0, 63, 100
1, 15312, Note_off_c, 0, 63, 100
1, 15312, Note_on_c, 0, 67, 100
1, 15456, Note_off_c, 0, 67, 100
1, 15456, Note_on_c, 0, 68, 100
1, 15648, Note_off_c, 0, 68, 100
1, 15648, Note_on_c, 0, 64, 100
1, 15840, Note_off_c, 0, 64, 100
1, 15840, Note_on_c, 0, 68, 100
1, 16000, Note_off_c, 0, 68, 100
1, 16000, Note_on_c, 0, 64, 100
1, 16128, Note_off_c, 0, 64, 100
1, 16128, Note_on_c, 0, 68, 100
1, 16224, Note_off_c, 0, 68, 100
1, 16224, Note_on_c, 0, 66, 100
1, 16320, Note_off_c, 0, 66, 100
1, 16320, Note_on_c, 0, 64, 100
1, 16512, Note_off_c, 0, 64, 100
1, 16512, Note_on_c, 0, 66, 100
1, 16608, Note_off_c, 0, 66, 100
1, 16608, Note_on_c, 0, 67, 100
1, 16704, Note_off_c, 0, 67, 100
1, 16704, Note_on_c, 0, 64, 100
1, 16800, Note_off_c, 0, 64, 100
1, 16800, Note_on_c, 0, 69, 100
1, 16896, Note_off_c, 0, 69, 100
1, 16896, Note_on_c, 0, 64, 100
1, 16992, Note_off_c, 0, 64, 100
1, 16992, Note_on_c, 0, 68, 100
1, 17088, Note_off_c, 0, 68, 100
1, 17088, Note_on_c, 0, 64, 100
1, 17184, Note_off_c, 0, 64, 100
1, 17184, Note_on_c, 0, 67, 100
1, 17232, Note_off_c, 0, 67, 100
1, 17232, Note_on_c, 0, 68, 100
1, 17472, Note_off_c, 0, 68, 100
1, 17472, Note_on_c, 0, 66, 100
1, 17568, Note_off_c, 0, 66, 100
1, 17568, Note_on_c, 0, 64, 100
1, 17760, Note_off_c, 0, 64, 100
1, 17760, Note_on_c, 0, 65, 100
1, 17808, Note_off_c, 0, 65, 100
1, 17808, Note_on_c, 0, 64, 100
1, 18000, Note_off_c, 0, 64, 100
1, 18000, Note_on_c, 0, 65, 100
1, 18144, Note_off_c, 0, 65, 100
1, 18144, Note_on_c, 0, 66, 100
1, 18240, Note_off_c, 0, 66, 100
1, 18240, Note_on_c, 0, 63, 100
1, 18336, Note_off_c, 0, 63, 100
1, 18336, Note_on_c, 0, 62, 100
1, 18432, Note_off_c, 0, 62, 100
1, 18432, Note_on_c, 0, 69, 100
1, 18624, Note_off_c, 0, 69, 100
1, 18624, Note_on_c, 0, 70, 100
1, 18720, Note_off_c, 0, 70, 100
1, 18720, Note_on_c, 0, 67, 100
1, 18768, Note_off_c, 0, 67, 100
1, 18768, Note_on_c, 0, 68, 100
1, 18912, Note_off_c, 0, 68, 100
1, 18912, Note_on_c, 0, 65, 100
1, 19008, Note_off_c, 0, 65, 100
1, 19008, Note_on_c, 0, 64, 100
1, 19200, Note_off_c, 0, 64, 100
1, 19200, Note_on_c, 0, 68, 100
1, 19296, Note_off_c, 0, 68, 100
1, 19536, Note_on_c, 0, 70, 100
1, 19728, Note_off_c, 0, 70, 100
1, 19728, Note_on_c, 0, 68, 100
1, 19824, Note_off_c, 0, 68, 100
1, 19824, Note_on_c, 0, 65, 100
1, 19920, Note_off_c, 0, 65, 100
1, 19920, Note_on_c, 0, 63, 100
1, 20032, Note_off_c, 0, 63, 100
1, 20032, Note_on_c, 0, 60, 100
1, 20224, Note_off_c, 0, 60, 100
1, 20224, Note_on_c, 0, 65, 100
1, 20288, Note_off_c, 0, 65, 100
1, 20288, Note_on_c, 0, 70, 100
1, 20400, Note_off_c, 0, 70, 100
1, 20400, Note_on_c, 0, 72, 100
1, 20496, Note_off_c, 0, 72, 100
1, 20496, Note_on_c, 0, 71, 100
1, 20800, Note_off_c, 0, 71, 100
1, 20800, Note_on_c, 0, 67, 100
1, 20928, Note_off_c, 0, 67, 100
1, 20928, Note_on_c, 0, 70, 100
1, 20992, Note_off_c, 0, 70, 100
1, 20992, Note_on_c, 0, 69, 100
1, 21056, Note_off_c, 0, 69, 100
1, 21056, Note_on_c, 0, 68, 100
1, 21216, Note_off_c, 0, 68, 100
1, 21216, Note_on_c, 0, 58, 100
1, 21312, Note_off_c, 0, 58, 100
1, 21888, Note_on_c, 0, 63, 100
1, 21984, Note_off_c, 0, 63, 100
1, 21984, Note_on_c, 0, 66, 100
1, 22272, Note_off_c, 0, 66, 100
1, 22272, Note_on_c, 0, 69, 100
1, 22368, Note_off_c, 0, 69, 100
1, 22368, Note_on_c, 0, 66, 100
1, 22464, Note_off_c, 0, 66, 100
1, 22464, Note_on_c, 0, 62, 100
1, 22560, Note_off_c, 0, 62, 100
1, 22560, Note_on_c, 0, 61, 100
1, 22656, Note_off_c, 0, 61, 100
1, 22656, Note_on_c, 0, 64, 100
1, 22800, Note_off_c, 0, 64, 100
1, 22800, Note_on_c, 0, 58, 100
1, 22944, Note_off_c, 0, 58, 100
1, 22944, Note_on_c, 0, 61, 100
1, 23040, Note_off_c, 0, 61, 100
1, 23328, Note_on_c, 0, 58, 100
1, 23424, Note_off_c, 0, 58, 100
1, 23424, Note_on_c, 0, 54, 100
1, 23520, Note_off_c, 0, 54, 100
1, 23520, Note_on_c, 0, 56, 100
1, 23664, Note_off_c, 0, 56, 100
1, 23664, Note_on_c, 0, 58, 100
1, 23760, Note_off_c, 0, 58, 100
1, 23760, Note_on_c, 0, 59, 100
1, 23856, Note_off_c, 0, 59, 100
1, 23856, Note_on_c, 0, 61, 100
1, 23952, Note_off_c, 0, 61, 100
1, 23952, Note_on_c, 0, 63, 100
1, 24064, Note_off_c, 0, 63, 100
1, 24064, Note_on_c, 0, 66, 100
1, 24128, Note_off_c, 0, 66, 100
1, 24128, Note_on_c, 0, 68, 100
1, 24288, Note_off_c, 0, 68, 100
1, 24288, Note_on_c, 0, 70, 100
1, 24432, Note_off_c, 0, 70, 100
1, 24432, Note_on_c, 0, 71, 100
1, 24624, Note_off_c, 0, 71, 100
1, 24624, Note_on_c, 0, 73, 100
1, 24720, Note_off_c, 0, 73, 100
1, 24720, Note_on_c, 0, 72, 100
1, 24816, Note_off_c, 0, 72, 100
1, 24816, Note_on_c, 0, 70, 100
1, 24912, Note_off_c, 0, 70, 100
1, 24912, Note_on_c, 0, 68, 100
1, 25056, Note_off_c, 0, 68, 100
1, 25056, Note_on_c, 0, 70, 100
1, 25104, Note_off_c, 0, 70, 100
1, 25104, Note_on_c, 0, 72, 100
1, 25344, Note_off_c, 0, 72, 100
1, 25344, Note_on_c, 0, 70, 100
1, 25440, Note_off_c, 0, 70, 100
1, 25440, Note_on_c, 0, 72, 100
1, 25536, Note_off_c, 0, 72, 100
1, 25536, Note_on_c, 0, 70, 100
1, 25632, Note_off_c, 0, 70, 100
1, 25632, Note_on_c, 0, 68, 100
1, 25728, Note_off_c, 0, 68, 100
1, 25728, Note_on_c, 0, 67, 100
1, 25824, Note_off_c, 0, 67, 100
1, 25824, Note_on_c, 0, 65, 100
1, 25920, Note_off_c, 0, 65, 100
1, 25920, Note_on_c, 0, 63, 100
1, 26016, Note_off_c, 0, 63, 100
1, 26016, Note_on_c, 0, 62, 100
1, 26064, Note_off_c, 0, 62, 100
1, 26064, Note_on_c, 0, 67, 100
1, 26208, Note_off_c, 0, 67, 100
1, 26208, Note_on_c, 0, 65, 100
1, 26304, Note_off_c, 0, 65, 100
1, 26304, Note_on_c, 0, 62, 100
1, 26448, Note_off_c, 0, 62, 100
1, 26448, Note_on_c, 0, 60, 100
1, 26592, Note_off_c, 0, 60, 100
1, 26592, Note_on_c, 0, 63, 100
1, 26688, Note_off_c, 0, 63, 100
1, 26688, Note_on_c, 0, 58, 100
1, 26880, Note_off_c, 0, 58, 100
1, 26880, Note_on_c, 0, 57, 100
1, 27072, Note_off_c, 0, 57, 100
1, 27072, Note_on_c, 0, 60, 100
1, 27168, Note_off_c, 0, 60, 100
1, 27168, Note_on_c, 0, 65, 100
1, 28032, Note_off_c, 0, 65, 100
1, 28032, Note_on_c, 0, 63, 100
1, 28128, Note_off_c, 0, 63, 100
1, 28128, Note_on_c, 0, 65, 100
1, 28224, Note_off_c, 0, 65, 100
1, 28800, Note_on_c, 0, 60, 100
1, 28896, Note_off_c, 0, 60, 100
1, 28896, Note_on_c, 0, 62, 100
1, 28992, Note_off_c, 0, 62, 100
1, 28992, Note_on_c, 0, 63, 100
1, 29088, Note_off_c, 0, 63, 100
1, 29088, Note_on_c, 0, 64, 100
1, 29184, Note_off_c, 0, 64, 100
1, 29184, Note_on_c, 0, 65, 100
1, 29280, Note_off_c, 0, 65, 100
1, 29280, Note_on_c, 0, 64, 100
1, 29376, Note_off_c, 0, 64, 100
1, 29376, Note_on_c, 0, 66, 100
1, 29472, Note_off_c, 0, 66, 100
1, 29856, Note_on_c, 0, 56, 100
1, 29904, Note_off_c, 0, 56, 100
1, 29904, Note_on_c, 0, 62, 100
1, 30048, Note_off_c, 0, 62, 100
1, 30048, Note_on_c, 0, 59, 100
1, 30096, Note_off_c, 0, 59, 100
1, 30096, Note_on_c, 0, 54, 100
1, 30240, Note_off_c, 0, 54, 100
1, 30240, Note_on_c, 0, 57, 100
1, 30336, Note_off_c, 0, 57, 100
1, 30336, Note_on_c, 0, 56, 100
1, 30384, Note_off_c, 0, 56, 100
1, 30384, Note_on_c, 0, 58, 100
1, 30480, Note_off_c, 0, 58, 100
1, 30480, Note_on_c, 0, 59, 100
1, 30576, Note_off_c, 0, 59, 100
1, 30576, Note_on_c, 0, 62, 100
1, 30672, Note_off_c, 0, 62, 100
1, 30672, Note_on_c, 0, 61, 100
1, 30816, Note_off_c, 0, 61, 100
1, 30816, Note_on_c, 0, 63, 100
1, 30912, Note_off_c, 0, 63, 100
1, 30912, Note_on_c, 0, 63, 100
1, 31008, Note_off_c, 0, 63, 100
1, 31296, Note_on_c, 0, 62, 100
1, 31392, Note_off_c, 0, 62, 100
1, 31392, Note_on_c, 0, 61, 100
1, 31584, Note_off_c, 0, 61, 100
1, 31584, Note_on_c, 0, 64, 100
1, 31680, Note_off_c, 0, 64, 100
1, 31680, Note_on_c, 0, 60, 100
1, 31728, Note_off_c, 0, 60, 100
1, 31728, Note_on_c, 0, 58, 100
1, 31824, Note_off_c, 0, 58, 100
1, 31824, Note_on_c, 0, 57, 100
1, 31872, Note_off_c, 0, 57, 100
1, 31872, Note_on_c, 0, 56, 100
1, 32112, Note_off_c, 0, 56, 100
1, 32112, Note_on_c, 0, 60, 100
1, 32208, Note_off_c, 0, 60, 100
1, 32208, Note_on_c, 0, 65, 100
1, 32320, Note_off_c, 0, 65, 100
1, 32320, Note_on_c, 0, 64, 100
1, 32384, Note_off_c, 0, 64, 100
1, 32384, Note_on_c, 0, 66, 100
1, 32480, Note_off_c, 0, 66, 100
1, 32832, Note_on_c, 0, 67, 100
1, 32928, Note_off_c, 0, 67, 100
1, 32928, Note_on_c, 0, 66, 100
1, 33024, Note_off_c, 0, 66, 100
1, 33024, Note_on_c, 0, 63, 100
1, 33152, Note_off_c, 0, 63, 100
1, 33152, Note_on_c, 0, 62, 100
1, 33216, Note_off_c, 0, 62, 100
1, 33216, Note_on_c, 0, 66, 100
1, 33280, Note_off_c, 0, 66, 100
1, 33280, Note_on_c, 0, 69, 100
1, 33344, Note_off_c, 0, 69, 100
1, 33344, Note_on_c, 0, 68, 100
1, 33504, Note_off_c, 0, 68, 100
1, 33504, Note_on_c, 0, 62, 100
1, 33600, Note_off_c, 0, 62, 100
1, 33600, Note_on_c, 0, 61, 100
1, 33696, Note_off_c, 0, 61, 100
1, 33696, Note_on_c, 0, 64, 100
1, 33744, Note_off_c, 0, 64, 100
1, 33744, Note_on_c, 0, 68, 100
1, 33856, Note_off_c, 0, 68, 100
1, 33856, Note_on_c, 0, 64, 100
1, 33920, Note_off_c, 0, 64, 100
1, 33920, Note_on_c, 0, 67, 100
1, 34016, Note_off_c, 0, 67, 100
1, 34464, Note_on_c, 0, 70, 100
1, 34560, Note_off_c, 0, 70, 100
1, 34560, Note_on_c, 0, 68, 100
1, 34656, Note_off_c, 0, 68, 100
1, 34656, Note_on_c, 0, 67, 100
1, 34800, Note_off_c, 0, 67, 100
1, 34800, Note_on_c, 0, 63, 100
1, 34896, Note_off_c, 0, 63, 100
1, 34896, Note_on_c, 0, 62, 100
1, 34992, Note_off_c, 0, 62, 100
1, 34992, Note_on_c, 0, 61, 100
1, 35088, Note_off_c, 0, 61, 100
1, 35088, Note_on_c, 0, 64, 100
1, 35200, Note_off_c, 0, 64, 100
1, 35200, Note_on_c, 0, 68, 100
1, 35264, Note_off_c, 0, 68, 100
1, 35264, Note_on_c, 0, 64, 100
1, 35392, Note_off_c, 0, 64, 100
1, 35392, Note_on_c, 0, 63, 100
1, 35488, Note_off_c, 0, 63, 100
1, 35904, Note_on_c, 0, 62, 100
1, 36000, Note_off_c, 0, 62, 100
1, 36000, Note_on_c, 0, 61, 100
1, 36192, Note_off_c, 0, 61, 100
1, 36192, Note_on_c, 0, 63, 100
1, 36288, Note_off_c, 0, 63, 100
1, 36288, Note_on_c, 0, 60, 100
1, 36384, Note_off_c, 0, 60, 100
1, 36384, Note_on_c, 0, 58, 100
1, 36480, Note_off_c, 0, 58, 100
1, 36480, Note_on_c, 0, 58, 100
1, 36576, Note_off_c, 0, 58, 100
1, 36576, Note_on_c, 0, 57, 100
1, 36672, Note_off_c, 0, 57, 100
1, 36672, Note_on_c, 0, 56, 100
1, 36768, Note_off_c, 0, 56, 100
1, 36768, Note_on_c, 0, 57, 100
1, 36816, Note_off_c, 0, 57, 100
1, 36816, Note_on_c, 0, 58, 100
1, 36912, Note_off_c, 0, 58, 100
1, 37152, Note_on_c, 0, 58, 100
1, 37248, Note_off_c, 0, 58, 100
1, 37248, Note_on_c, 0, 57, 100
1, 37344, Note_off_c, 0, 57, 100
1, 37536, Note_on_c, 0, 58, 100
1, 37680, Note_off_c, 0, 58, 100
1, 37680, Note_on_c, 0, 56, 100
1, 37920, Note_off_c, 0, 56, 100
1, 37920, Note_on_c, 0, 60, 100
1, 38016, Note_off_c, 0, 60, 100
1, 38016, Note_on_c, 0, 59, 100
1, 38112, Note_off_c, 0, 59, 100
1, 38112, Note_on_c, 0, 55, 100
1, 38208, Note_off_c, 0, 55, 100
1, 38208, Note_on_c, 0, 62, 100
1, 38304, Note_off_c, 0, 62, 100
1, 38496, Note_on_c, 0, 62, 100
1, 38592, Note_off_c, 0, 62, 100
1, 38592, Note_on_c, 0, 62, 100
1, 38688, Note_off_c, 0, 62, 100
1, 38688, Note_on_c, 0, 57, 100
1, 38784, Note_off_c, 0, 57, 100
1, 38784, Note_on_c, 0, 58, 100
1, 38880, Note_off_c, 0, 58, 100
1, 38880, Note_on_c, 0, 62, 100
1, 38976, Note_off_c, 0, 62, 100
1, 38976, Note_on_c, 0, 61, 100
1, 39024, Note_off_c, 0, 61, 100
1, 39024, Note_on_c, 0, 63, 100
1, 39120, Note_off_c, 0, 63, 100
1, 39120, Note_on_c, 0, 59, 100
1, 39264, Note_off_c, 0, 59, 100
1, 39264, Note_on_c, 0, 56, 100
1, 39360, Note_off_c, 0, 56, 100
1, 39360, Note_on_c, 0, 58, 100
1, 39408, Note_off_c, 0, 58, 100
1, 39408, Note_on_c, 0, 57, 100
1, 39504, Note_off_c, 0, 57, 100
1, 39504, Note_on_c, 0, 56, 100
1, 39600, Note_off_c, 0, 56, 100
1, 39600, Note_on_c, 0, 57, 100
1, 39696, Note_off_c, 0, 57, 100
1, 39696, Note_on_c, 0, 59, 100
1, 39792, Note_off_c, 0, 59, 100
1, 39792, Note_on_c, 0, 67, 100
1, 39888, Note_off_c, 0, 67, 100
1, 39888, Note_on_c, 0, 62, 100
1, 40000, Note_off_c, 0, 62, 100
1, 40000, Note_on_c, 0, 59, 100
1, 40064, Note_off_c, 0, 59, 100
1, 40064, Note_on_c, 0, 64, 100
1, 40272, Note_off_c, 0, 64, 100
1, 40272, Note_on_c, 0, 68, 100
1, 40368, Note_off_c, 0, 68, 100
1, 40368, Note_on_c, 0, 70, 100
1, 40464, Note_off_c, 0, 70, 100
1, 40464, Note_on_c, 0, 71, 100
1, 40560, Note_off_c, 0, 71, 100
1, 40560, Note_on_c, 0, 74, 100
1, 40656, Note_off_c, 0, 74, 100
1, 40656, Note_on_c, 0, 72, 100
1, 40704, Note_off_c, 0, 72, 100
1, 40704, Note_on_c, 0, 67, 100
1, 40896, Note_off_c, 0, 67, 100
1, 40896, Note_on_c, 0, 64, 100
1, 41088, Note_off_c, 0, 64, 100
1, 41088, Note_on_c, 0, 54, 100
1, 41184, Note_off_c, 0, 54, 100
1, 41424, Note_on_c, 0, 63, 100
1, 41568, Note_off_c, 0, 63, 100
1, 41568, Note_on_c, 0, 64, 100
1, 41664, Note_off_c, 0, 64, 100
1, 41664, Note_on_c, 0, 66, 100
1, 41760, Note_off_c, 0, 66, 100
1, 41760, Note_on_c, 0, 63, 100
1, 41856, Note_off_c, 0, 63, 100
1, 41856, Note_on_c, 0, 62, 100
1, 41952, Note_off_c, 0, 62, 100
1, 41952, Note_on_c, 0, 66, 100
1, 42048, Note_off_c, 0, 66, 100
1, 42048, Note_on_c, 0, 69, 100
1, 42144, Note_off_c, 0, 69, 100
1, 42144, Note_on_c, 0, 72, 100
1, 42192, Note_off_c, 0, 72, 100
1, 42192, Note_on_c, 0, 61, 100
1, 42336, Note_off_c, 0, 61, 100
1, 42336, Note_on_c, 0, 64, 100
1, 42384, Note_off_c, 0, 64, 100
1, 42384, Note_on_c, 0, 69, 100
1, 42432, Note_off_c, 0, 69, 100
1, 42432, Note_on_c, 0, 61, 100
1, 42624, Note_off_c, 0, 61, 100
1, 42624, Note_on_c, 0, 58, 100
1, 42720, Note_off_c, 0, 58, 100
1, 42720, Note_on_c, 0, 57, 100
1, 42960, Note_off_c, 0, 57, 100
1, 42960, Note_on_c, 0, 67, 100
1, 43008, Note_off_c, 0, 67, 100
1, 43008, Note_on_c, 0, 64, 100
1, 43104, Note_off_c, 0, 64, 100
1, 43296, Note_on_c, 0, 75, 100
1, 43392, Note_off_c, 0, 75, 100
1, 43392, Note_on_c, 0, 70, 100
1, 43488, Note_off_c, 0, 70, 100
1, 43488, Note_on_c, 0, 65, 100
1, 43584, Note_off_c, 0, 65, 100
1, 43584, Note_on_c, 0, 66, 100
1, 43680, Note_off_c, 0, 66, 100
1, 43680, Note_on_c, 0, 69, 100
1, 43776, Note_off_c, 0, 69, 100
1, 43776, Note_on_c, 0, 71, 100
1, 43872, Note_off_c, 0, 71, 100
1, 43872, Note_on_c, 0, 74, 100
1, 43968, Note_off_c, 0, 74, 100
1, 43968, Note_on_c, 0, 75, 100
1, 44064, Note_off_c, 0, 75, 100
1, 44064, Note_on_c, 0, 72, 100
1, 44160, Note_off_c, 0, 72, 100
1, 44160, Note_on_c, 0, 70, 100
1, 44208, Note_off_c, 0, 70, 100
1, 44208, Note_on_c, 0, 66, 100
1, 44304, Note_off_c, 0, 66, 100
1, 44304, Note_on_c, 0, 70, 100
1, 44400, Note_off_c, 0, 70, 100
1, 44736, Note_on_c, 0, 69, 100
1, 44832, Note_off_c, 0, 69, 100
1, 44832, Note_on_c, 0, 65, 100
1, 44928, Note_off_c, 0, 65, 100
1, 44928, Note_on_c, 0, 63, 100
1, 44976, Note_off_c, 0, 63, 100
1, 44976, Note_on_c, 0, 60, 100
1, 45072, Note_off_c, 0, 60, 100
1, 45072, Note_on_c, 0, 67, 100
1, 45168, Note_off_c, 0, 67, 100
1, 45648, Note_on_c, 0, 62, 100
1, 45744, Note_off_c, 0, 62, 100
1, 45984, Note_on_c, 0, 65, 100
1, 46080, Note_off_c, 0, 65, 100
1, 46080, Note_on_c, 0, 66, 100
1, 46128, Note_off_c, 0, 66, 100
1, 46128, Note_on_c, 0, 63, 100
1, 46224, Note_off_c, 0, 63, 100
1, 46224, Note_on_c, 0, 58, 100
1, 46416, Note_off_c, 0, 58, 100
1, 46416, Note_on_c, 0, 66, 100
1, 46560, Note_off_c, 0, 66, 100
1, 46560, Note_on_c, 0, 69, 100
1, 46608, Note_off_c, 0, 69, 100
1, 46608, Note_on_c, 0, 65, 100
1, 46752, Note_off_c, 0, 65, 100
1, 46752, Note_on_c, 0, 64, 100
1, 46800, Note_off_c, 0, 64, 100
1, 46800, Note_on_c, 0, 66, 100
1, 47040, Note_off_c, 0, 66, 100
1, 47040, Note_on_c, 0, 68, 100
1, 47136, Note_off_c, 0, 68, 100
1, 47136, Note_on_c, 0, 64, 100
1, 47184, Note_off_c, 0, 64, 100
1, 47184, Note_on_c, 0, 65, 100
1, 47328, Note_off_c, 0, 65, 100
1, 47328, Note_on_c, 0, 64, 100
1, 47424, Note_off_c, 0, 64, 100
1, 47424, Note_on_c, 0, 66, 100
1, 47520, Note_off_c, 0, 66, 100
1, 47520, Note_on_c, 0, 67, 100
1, 47760, Note_off_c, 0, 67, 100
1, 47760, Note_on_c, 0, 64, 100
1, 48000, Note_off_c, 0, 64, 100
1, 48000, Note_on_c, 0, 65, 100
1, 48240, Note_off_c, 0, 65, 100
1, 48240, Note_on_c, 0, 64, 100
1, 48336, Note_off_c, 0, 64, 100
1, 48336, Note_on_c, 0, 68, 100
1, 48480, Note_off_c, 0, 68, 100
1, 48480, Note_on_c, 0, 67, 100
1, 48576, Note_off_c, 0, 67, 100
1, 48576, Note_on_c, 0, 63, 100
1, 48624, Note_off_c, 0, 63, 100
1, 48624, Note_on_c, 0, 62, 100
1, 48720, Note_off_c, 0, 62, 100
1, 48720, Note_on_c, 0, 65, 100
1, 48864, Note_off_c, 0, 65, 100
1, 48864, Note_on_c, 0, 67, 100
1, 49056, Note_off_c, 0, 67, 100
1, 49056, Note_on_c, 0, 72, 100
1, 49152, Note_off_c, 0, 72, 100
1, 49152, Note_on_c, 0, 70, 100
1, 49248, Note_off_c, 0, 70, 100
1, 49248, Note_on_c, 0, 67, 100
1, 49344, Note_off_c, 0, 67, 100
1, 49344, Note_on_c, 0, 62, 100
1, 49440, Note_off_c, 0, 62, 100
1, 49440, Note_on_c, 0, 60, 100
1, 49536, Note_off_c, 0, 60, 100
1, 49536, Note_on_c, 0, 67, 100
1, 49632, Note_off_c, 0, 67, 100
1, 50112, Note_on_c, 0, 72, 100
1, 50208, Note_off_c, 0, 72, 100
1, 50208, Note_on_c, 0, 74, 100
1, 50304, Note_off_c, 0, 74, 100
1, 50304, Note_on_c, 0, 75, 100
1, 50400, Note_off_c, 0, 75, 100
1, 50400, Note_on_c, 0, 76, 100
1, 50496, Note_off_c, 0, 76, 100
1, 50496, Note_on_c, 0, 77, 100
1, 50592, Note_off_c, 0, 77, 100
1, 50592, Note_on_c, 0, 76, 100
1, 50640, Note_off_c, 0, 76, 100
1, 50640, Note_on_c, 0, 73, 100
1, 50736, Note_off_c, 0, 73, 100
1, 50736, Note_on_c, 0, 71, 100
1, 50832, Note_off_c, 0, 71, 100
1, 50832, Note_on_c, 0, 75, 100
1, 50928, Note_off_c, 0, 75, 100
1, 51216, Note_on_c, 0, 74, 100
1, 51360, Note_off_c, 0, 74, 100
1, 51360, Note_on_c, 0, 69, 100
1, 51456, Note_off_c, 0, 69, 100
1, 51456, Note_on_c, 0, 70, 100
1, 51552, Note_off_c, 0, 70, 100
1, 51552, Note_on_c, 0, 74, 100
1, 51744, Note_off_c, 0, 74, 100
1, 51744, Note_on_c, 0, 71, 100
1, 51840, Note_off_c, 0, 71, 100
1, 51840, Note_on_c, 0, 70, 100
1, 51936, Note_off_c, 0, 70, 100
1, 51936, Note_on_c, 0, 69, 100
1, 52032, Note_off_c, 0, 69, 100
1, 52032, Note_on_c, 0, 68, 100
1, 52128, Note_off_c, 0, 68, 100
1, 52128, Note_on_c, 0, 70, 100
1, 52224, Note_off_c, 0, 70, 100
1, 52224, Note_on_c, 0, 71, 100
1, 52320, Note_off_c, 0, 71, 100
1, 52320, Note_on_c, 0, 70, 100
1, 52416, Note_off_c, 0, 70, 100
1, 52416, Note_on_c, 0, 67, 100
1, 52512, Note_off_c, 0, 67, 100
1, 52512, Note_on_c, 0, 63, 100
1, 52560, Note_off_c, 0, 63, 100
1, 52560, Note_on_c, 0, 60, 100
1, 52800, Note_off_c, 0, 60, 100
1, 52800, Note_on_c, 0, 69, 100
1, 52896, Note_off_c, 0, 69, 100
1, 52896, Note_on_c, 0, 65, 100
1, 52944, Note_off_c, 0, 65, 100
1, 52944, Note_on_c, 0, 62, 100
1, 53136, Note_off_c, 0, 62, 100
1, 53136, Note_on_c, 0, 60, 100
1, 53328, Note_off_c, 0, 60, 100
1, 53328, Note_on_c, 0, 67, 100
1, 53424, Note_off_c, 0, 67, 100
1, 53424, Note_on_c, 0, 72, 100
1, 53520, Note_off_c, 0, 72, 100
1, 53520, Note_on_c, 0, 70, 100
1, 53616, Note_off_c, 0, 70, 100
1, 54528, Note_on_c, 0, 72, 100
1, 54720, Note_off_c, 0, 72, 100
1, 54720, Note_on_c, 0, 70, 100
1, 54912, Note_off_c, 0, 70, 100
1, 54912, Note_on_c, 0, 71, 100
1, 55008, Note_off_c, 0, 71, 100
1, 55008, Note_on_c, 0, 75, 100
1, 55104, Note_off_c, 0, 75, 100
1, 55104, Note_on_c, 0, 70, 100
1, 55200, Note_off_c, 0, 70, 100
1, 55200, Note_on_c, 0, 69, 100
1, 55296, Note_off_c, 0, 69, 100
1, 55296, Note_on_c, 0, 68, 100
1, 55392, Note_off_c, 0, 68, 100
1, 55392, Note_on_c, 0, 70, 100
1, 55488, Note_off_c, 0, 70, 100
1, 55488, Note_on_c, 0, 71, 100
1, 55584, Note_off_c, 0, 71, 100
1, 55584, Note_on_c, 0, 70, 100
1, 55680, Note_off_c, 0, 70, 100
1, 55680, Note_on_c, 0, 69, 100
1, 55776, Note_off_c, 0, 69, 100
1, 55776, Note_on_c, 0, 66, 100
1, 55872, Note_off_c, 0, 66, 100
1, 55872, Note_on_c, 0, 63, 100
1, 56016, Note_off_c, 0, 63, 100
1, 56016, Note_on_c, 0, 66, 100
1, 56160, Note_off_c, 0, 66, 100
1, 56160, Note_on_c, 0, 68, 100
1, 56352, Note_off_c, 0, 68, 100
1, 56352, Note_on_c, 0, 65, 100
1, 56448, Note_off_c, 0, 65, 100
1, 56832, Note_on_c, 0, 63, 100
1, 57168, Note_off_c, 0, 63, 100
1, 57168, Note_on_c, 0, 65, 100
1, 57456, Note_off_c, 0, 65, 100
1, 57456, Note_on_c, 0, 63, 100
1, 57552, Note_off_c, 0, 63, 100
1, 57552, Note_on_c, 0, 62, 100
1, 57696, Note_off_c, 0, 62, 100
1, 57696, Note_on_c, 0, 63, 100
1, 57888, Note_off_c, 0, 63, 100
1, 57888, Note_on_c, 0, 63, 100
1, 57984, Note_off_c, 0, 63, 100
1, 57984, Note_on_c, 0, 61, 100
1, 58128, Note_off_c, 0, 61, 100
1, 58128, Note_on_c, 0, 62, 100
1, 58320, Note_off_c, 0, 62, 100
1, 58320, Note_on_c, 0, 63, 100
1, 58656, Note_off_c, 0, 63, 100
1, 58656, Note_on_c, 0, 64, 100
1, 58816, Note_off_c, 0, 64, 100
1, 58816, Note_on_c, 0, 64, 100
1, 58944, Note_off_c, 0, 64, 100
1, 58944, Note_on_c, 0, 65, 100
1, 59040, Note_off_c, 0, 65, 100
1, 59040, Note_on_c, 0, 67, 100
1, 59136, Note_off_c, 0, 67, 100
1, 59136, Note_on_c, 0, 76, 100
1, 59232, Note_off_c, 0, 76, 100
1, 59232, Note_on_c, 0, 70, 100
1, 59328, Note_off_c, 0, 70, 100
1, 59328, Note_on_c, 0, 65, 100
1, 59424, Note_off_c, 0, 65, 100
1, 59424, Note_on_c, 0, 69, 100
1, 59520, Note_off_c, 0, 69, 100
1, 59520, Note_on_c, 0, 66, 100
1, 59776, Note_off_c, 0, 66, 100
1, 59776, Note_on_c, 0, 74, 100
1, 59904, Note_off_c, 0, 74, 100
1, 59904, Note_on_c, 0, 71, 100
1, 60000, Note_off_c, 0, 71, 100
1, 60000, Note_on_c, 0, 66, 100
1, 60048, Note_off_c, 0, 66, 100
1, 60048, Note_on_c, 0, 69, 100
1, 60192, Note_off_c, 0, 69, 100
1, 60192, Note_on_c, 0, 68, 100
1, 60384, Note_off_c, 0, 68, 100
1, 60384, Note_on_c, 0, 63, 100
1, 60480, Note_off_c, 0, 63, 100
1, 60480, Note_on_c, 0, 62, 100
1, 60576, Note_off_c, 0, 62, 100
1, 60576, Note_on_c, 0, 68, 100
1, 60672, Note_off_c, 0, 68, 100
1, 60672, Note_on_c, 0, 67, 100
1, 60768, Note_off_c, 0, 67, 100
1, 60768, Note_on_c, 0, 62, 100
1, 60864, Note_off_c, 0, 62, 100
1, 60864, Note_on_c, 0, 59, 100
1, 60960, Note_off_c, 0, 59, 100
1, 60960, Note_on_c, 0, 54, 100
1, 61056, Note_off_c, 0, 54, 100
1, 61056, Note_on_c, 0, 60, 100
1, 61120, Note_off_c, 0, 60, 100
1, 61120, Note_on_c, 0, 63, 100
1, 61184, Note_off_c, 0, 63, 100
1, 61184, Note_on_c, 0, 58, 100
1, 61248, Note_off_c, 0, 58, 100
1, 61248, Note_on_c, 0, 53, 100
1, 61344, Note_off_c, 0, 53, 100
1, 61344, Note_on_c, 0, 55, 100
1, 61504, Note_off_c, 0, 55, 100
1, 61504, Note_on_c, 0, 53, 100
1, 61568, Note_off_c, 0, 53, 100
1, 61568, Note_on_c, 0, 51, 100
1, 61632, Note_off_c, 0, 51, 100
1, 61632, Note_on_c, 0, 51, 100
1, 61728, Note_off_c, 0, 51, 100
1, 63312, Note_on_c, 0, 53, 100
1, 63360, Note_off_c, 0, 53, 100
1, 63360, Note_on_c, 0, 55, 100
1, 63456, Note_off_c, 0, 55, 100
1, 63648, Note_on_c, 0, 60, 100
1, 63696, Note_off_c, 0, 60, 100
1, 63696, Note_on_c, 0, 58, 100
1, 63744, Note_off_c, 0, 58, 100
1, 63744, Note_on_c, 0, 55, 100
1, 63840, Note_off_c, 0, 55, 100
1, 63840, Note_on_c, 0, 53, 100
1, 63936, Note_off_c, 0, 53, 100
1, 63936, Note_on_c, 0, 50, 100
1, 64080, Note_off_c, 0, 50, 100
1, 64080, Note_on_c, 0, 58, 100
1, 64464, Note_off_c, 0, 58, 100
1, 64464, Note_on_c, 0, 55, 100
1, 64512, Note_off_c, 0, 55, 100
1, 64512, Note_on_c, 0, 53, 100
1, 64576, Note_off_c, 0, 53, 100
1, 64576, Note_on_c, 0, 60, 100
1, 64640, Note_off_c, 0, 60, 100
1, 64640, Note_on_c, 0, 59, 100
1, 64704, Note_off_c, 0, 59, 100
1, 64704, Note_on_c, 0, 55, 100
1, 64768, Note_off_c, 0, 55, 100
1, 64768, Note_on_c, 0, 53, 100
1, 64832, Note_off_c, 0, 53, 100
1, 64832, Note_on_c, 0, 55, 100
1, 64896, Note_off_c, 0, 55, 100
1, 64896, Note_on_c, 0, 62, 100
1, 64992, Note_off_c, 0, 62, 100
1, 64992, Note_on_c, 0, 65, 100
1, 65088, Note_off_c, 0, 65, 100
1, 65472, Note_on_c, 0, 63, 100
1, 65568, Note_off_c, 0, 63, 100
1, 65568, Note_on_c, 0, 62, 100
1, 65664, Note_off_c, 0, 62, 100
1, 65664, Note_on_c, 0, 61, 100
1, 65952, Note_off_c, 0, 61, 100
1, 65952, Note_on_c, 0, 63, 100
1, 66144, Note_off_c, 0, 63, 100
1, 66144, Note_on_c, 0, 69, 100
1, 66240, Note_off_c, 0, 69, 100
1, 66240, Note_on_c, 0, 66, 100
1, 66288, Note_off_c, 0, 66, 100
1, 66288, Note_on_c, 0, 63, 100
1, 66336, Note_off_c, 0, 63, 100
1, 66336, Note_on_c, 0, 59, 100
1, 66432, Note_off_c, 0, 59, 100
1, 66432, Note_on_c, 0, 63, 100
1, 66480, Note_off_c, 0, 63, 100
1, 66480, Note_on_c, 0, 66, 100
1, 66528, Note_off_c, 0, 66, 100
1, 66528, Note_on_c, 0, 69, 100
1, 66576, Note_off_c, 0, 69, 100
1, 66576, Note_on_c, 0, 71, 100
1, 66624, Note_off_c, 0, 71, 100
1, 66624, Note_on_c, 0, 73, 100
1, 66688, Note_off_c, 0, 73, 100
1, 66688, Note_on_c, 0, 76, 100
1, 66752, Note_off_c, 0, 76, 100
1, 66752, Note_on_c, 0, 80, 100
1, 66848, Note_off_c, 0, 80, 100
1, 67248, Note_on_c, 0, 72, 100
1, 67296, Note_off_c, 0, 72, 100
1, 67296, Note_on_c, 0, 71, 100
1, 67344, Note_off_c, 0, 71, 100
1, 67344, Note_on_c, 0, 68, 100
1, 67392, Note_off_c, 0, 68, 100
1, 67392, Note_on_c, 0, 64, 100
1, 67456, Note_off_c, 0, 64, 100
1, 67456, Note_on_c, 0, 66, 100
1, 67520, Note_off_c, 0, 66, 100
1, 67520, Note_on_c, 0, 68, 100
1, 67584, Note_off_c, 0, 68, 100
1, 67584, Note_on_c, 0, 73, 100
1, 67680, Note_off_c, 0, 73, 100
1, 67680, Note_on_c, 0, 68, 100
1, 67872, Note_off_c, 0, 68, 100
1, 67872, Note_on_c, 0, 72, 100
1, 67920, Note_off_c, 0, 72, 100
1, 67920, Note_on_c, 0, 71, 100
1, 67968, Note_off_c, 0, 71, 100
1, 67968, Note_on_c, 0, 68, 100
1, 68016, Note_off_c, 0, 68, 100
1, 68016, Note_on_c, 0, 66, 100
1, 68064, Note_off_c, 0, 66, 100
1, 68064, Note_on_c, 0, 64, 100
1, 68112, Note_off_c, 0, 64, 100
1, 68112, Note_on_c, 0, 59, 100
1, 68160, Note_off_c, 0, 59, 100
1, 68160, Note_on_c, 0, 64, 100
1, 68256, Note_off_c, 0, 64, 100
1, 68256, Note_on_c, 0, 66, 100
1, 68304, Note_off_c, 0, 66, 100
1, 68304, Note_on_c, 0, 68, 100
1, 68352, Note_off_c, 0, 68, 100
1, 68352, Note_on_c, 0, 69, 100
1, 68448, Note_off_c, 0, 69, 100
1, 68448, Note_on_c, 0, 65, 100
1, 68496, Note_off_c, 0, 65, 100
1, 68496, Note_on_c, 0, 63, 100
1, 68544, Note_off_c, 0, 63, 100
1, 68544, Note_on_c, 0, 62, 100
1, 68640, Note_off_c, 0, 62, 100
1, 68640, Note_on_c, 0, 64, 100
1, 68688, Note_off_c, 0, 64, 100
1, 68688, Note_on_c, 0, 65, 100
1, 68736, Note_off_c, 0, 65, 100
1, 68736, Note_on_c, 0, 66, 100
1, 68832, Note_off_c, 0, 66, 100
1, 68832, Note_on_c, 0, 62, 100
1, 68928, Note_off_c, 0, 62, 100
1, 68928, Note_on_c, 0, 59, 100
1, 68992, Note_off_c, 0, 59, 100
1, 68992, Note_on_c, 0, 60, 100
1, 69056, Note_off_c, 0, 60, 100
1, 69056, Note_on_c, 0, 62, 100
1, 69120, Note_off_c, 0, 62, 100
1, 69120, Note_on_c, 0, 58, 100
1, 69184, Note_off_c, 0, 58, 100
1, 69184, Note_on_c, 0, 56, 100
1, 69248, Note_off_c, 0, 56, 100
1, 69248, Note_on_c, 0, 54, 100
1, 69312, Note_off_c, 0, 54, 100
1, 69312, Note_on_c, 0, 53, 100
1, 69376, Note_off_c, 0, 53, 100
1, 69376, Note_on_c, 0, 55, 100
1, 69408, Note_off_c, 0, 55, 100
1, 69408, Note_on_c, 0, 60, 100
1, 69440, Note_off_c, 0, 60, 100
1, 69440, Note_on_c, 0, 64, 100
1, 69472, Note_off_c, 0, 64, 100
1, 69472, Note_on_c, 0, 66, 100
1, 69648, Note_off_c, 0, 66, 100
1, 69648, Note_on_c, 0, 62, 100
1, 69696, Note_off_c, 0, 62, 100
1, 69696, Note_on_c, 0, 61, 100
1, 69792, Note_off_c, 0, 61, 100
1, 69792, Note_on_c, 0, 64, 100
1, 69888, Note_off_c, 0, 64, 100
1, 69888, Note_on_c, 0, 69, 100
1, 69936, Note_off_c, 0, 69, 100
1, 69936, Note_on_c, 0, 66, 100
1, 70032, Note_off_c, 0, 66, 100
1, 70032, Note_on_c, 0, 61, 100
1, 70080, Note_off_c, 0, 61, 100
1, 70080, Note_on_c, 0, 58, 100
1, 70144, Note_off_c, 0, 58, 100
1, 70144, Note_on_c, 0, 53, 100
1, 70208, Note_off_c, 0, 53, 100
1, 70208, Note_on_c, 0, 60, 100
1, 70272, Note_off_c, 0, 60, 100
1, 70272, Note_on_c, 0, 62, 100
1, 70336, Note_off_c, 0, 62, 100
1, 70336, Note_on_c, 0, 58, 100
1, 70400, Note_off_c, 0, 58, 100
1, 70400, Note_on_c, 0, 55, 100
1, 70464, Note_off_c, 0, 55, 100
1, 70464, Note_on_c, 0, 57, 100
1, 70560, Note_off_c, 0, 57, 100
1, 70560, Note_on_c, 0, 55, 100
1, 70656, Note_off_c, 0, 55, 100
1, 70656, Note_on_c, 0, 62, 100
1, 70720, Note_off_c, 0, 62, 100
1, 70720, Note_on_c, 0, 67, 100
1, 70816, Note_off_c, 0, 67, 100
1, 70992, Note_on_c, 0, 62, 100
1, 71078, Note_off_c, 0, 62, 100
1, 71078, Note_on_c, 0, 61, 100
1, 71116, Note_off_c, 0, 61, 100
1, 71116, Note_on_c, 0, 63, 100
1, 71154, Note_off_c, 0, 63, 100
1, 71154, Note_on_c, 0, 66, 100
1, 71192, Note_off_c, 0, 66, 100
1, 71192, Note_on_c, 0, 69, 100
1, 71230, Note_off_c, 0, 69, 100
1, 71230, Note_on_c, 0, 71, 100
1, 71278, Note_off_c, 0, 71, 100
1, 71278, Note_on_c, 0, 73, 100
1, 71326, Note_off_c, 0, 73, 100
1, 71326, Note_on_c, 0, 76, 100
1, 71374, Note_off_c, 0, 76, 100
1, 71374, Note_on_c, 0, 79, 100
1, 71470, Note_off_c, 0, 79, 100
1, 72190, Note_on_c, 0, 75, 100
1, 72286, Note_off_c, 0, 75, 100
1, 72910, Note_on_c, 0, 73, 100
1, 73022, Note_off_c, 0, 73, 100
1, 73022, Note_on_c, 0, 75, 100
1, 73118, Note_off_c, 0, 75, 100
1, 73774, Note_on_c, 0, 73, 100
1, 73870, Note_off_c, 0, 73, 100
1, 73870, Note_on_c, 0, 71, 100
1, 73918, Note_off_c, 0, 71, 100
1, 73918, Note_on_c, 0, 72, 100
1, 74062, Note_off_c, 0, 72, 100
1, 74062, Note_on_c, 0, 75, 100
1, 74158, Note_off_c, 0, 75, 100
1, 74158, Note_on_c, 0, 70, 100
1, 74254, Note_off_c, 0, 70, 100
1, 74254, Note_on_c, 0, 69, 100
1, 74302, Note_off_c, 0, 69, 100
1, 74302, Note_on_c, 0, 71, 100
1, 74398, Note_off_c, 0, 71, 100
1, 74398, Note_on_c, 0, 74, 100
1, 74494, Note_off_c, 0, 74, 100
1, 74494, Note_on_c, 0, 69, 100
1, 74590, Note_off_c, 0, 69, 100
1, 74590, Note_on_c, 0, 72, 100
1, 74782, Note_off_c, 0, 72, 100
1, 74782, Note_on_c, 0, 72, 100
1, 74878, Note_off_c, 0, 72, 100
1, 74878, Note_on_c, 0, 71, 100
1, 74942, Note_off_c, 0, 71, 100
1, 74942, Note_on_c, 0, 67, 100
1, 75006, Note_off_c, 0, 67, 100
1, 75006, Note_on_c, 0, 63, 100
1, 75070, Note_off_c, 0, 63, 100
1, 75070, Note_on_c, 0, 59, 100
1, 75134, Note_off_c, 0, 59, 100
1, 75134, Note_on_c, 0, 69, 100
1, 75310, Note_off_c, 0, 69, 100
1, 75310, Note_on_c, 0, 66, 100
1, 75406, Note_off_c, 0, 66, 100
1, 75406, Note_on_c, 0, 62, 100
1, 75454, Note_off_c, 0, 62, 100
1, 75454, Note_on_c, 0, 64, 100
1, 75550, Note_off_c, 0, 64, 100
1, 75550, Note_on_c, 0, 66, 100
1, 75646, Note_off_c, 0, 66, 100
1, 75646, Note_on_c, 0, 68, 100
1, 75710, Note_off_c, 0, 68, 100
1, 75710, Note_on_c, 0, 71, 100
1, 75774, Note_off_c, 0, 71, 100
1, 75774, Note_on_c, 0, 74, 100
1, 75838, Note_off_c, 0, 74, 100
1, 75838, Note_on_c, 0, 72, 100
1, 75934, Note_off_c, 0, 72, 100
1, 75934, Note_on_c, 0, 70, 100
1, 76078, Note_off_c, 0, 70, 100
1, 76078, Note_on_c, 0, 68, 100
1, 76126, Note_off_c, 0, 68, 100
1, 76126, Note_on_c, 0, 66, 100
1, 76174, Note_off_c, 0, 66, 100
1, 76174, Note_on_c, 0, 63, 100
1, 76222, Note_off_c, 0, 63, 100
1, 76222, Note_on_c, 0, 62, 100
1, 76286, Note_off_c, 0, 62, 100
1, 76286, Note_on_c, 0, 60, 100
1, 76350, Note_off_c, 0, 60, 100
1, 76350, Note_on_c, 0, 53, 100
1, 76542, Note_off_c, 0, 53, 100
1, 77134, Note_on_c, 0, 72, 100
1, 77278, Note_off_c, 0, 72, 100
1, 77278, Note_on_c, 0, 70, 100
1, 77374, Note_off_c, 0, 70, 100
1, 77374, Note_on_c, 0, 68, 100
1, 77470, Note_off_c, 0, 68, 100
1, 77470, Note_on_c, 0, 63, 100
1, 77566, Note_off_c, 0, 63, 100
1, 77566, Note_on_c, 0, 69, 100
1, 77758, Note_off_c, 0, 69, 100
1, 77758, Note_on_c, 0, 70, 100
1, 77902, Note_off_c, 0, 70, 100
1, 77902, Note_on_c, 0, 67, 100
1, 78046, Note_off_c, 0, 67, 100
1, 78046, Note_on_c, 0, 68, 100
1, 78142, Note_off_c, 0, 68, 100
1, 78142, Note_on_c, 0, 71, 100
1, 78238, Note_off_c, 0, 71, 100
1, 78238, Note_on_c, 0, 73, 100
1, 78334, Note_off_c, 0, 73, 100
1, 78334, Note_on_c, 0, 70, 100
1, 78430, Note_off_c, 0, 70, 100
1, 78430, Note_on_c, 0, 69, 100
1, 78526, Note_off_c, 0, 69, 100
1, 78526, Note_on_c, 0, 68, 100
1, 78622, Note_off_c, 0, 68, 100
1, 78622, Note_on_c, 0, 70, 100
1, 78718, Note_off_c, 0, 70, 100
1, 78718, Note_on_c, 0, 69, 100
1, 78814, Note_off_c, 0, 69, 100
1, 78814, Note_on_c, 0, 66, 100
1, 78910, Note_off_c, 0, 66, 100
1, 78910, Note_on_c, 0, 63, 100
1, 79006, Note_off_c, 0, 63, 100
1, 79006, Note_on_c, 0, 59, 100
1, 79102, Note_off_c, 0, 59, 100
1, 79102, Note_on_c, 0, 66, 100
1, 79150, Note_off_c, 0, 66, 100
1, 79150, Note_on_c, 0, 69, 100
1, 79246, Note_off_c, 0, 69, 100
1, 79246, Note_on_c, 0, 67, 100
1, 79390, Note_off_c, 0, 67, 100
1, 79390, Note_on_c, 0, 62, 100
1, 79486, Note_off_c, 0, 62, 100
1, 79486, Note_on_c, 0, 61, 100
1, 79582, Note_off_c, 0, 61, 100
1, 79582, Note_on_c, 0, 64, 100
1, 79678, Note_off_c, 0, 64, 100
1, 79678, Note_on_c, 0, 65, 100
1, 79726, Note_off_c, 0, 65, 100
1, 79726, Note_on_c, 0, 66, 100
1, 79822, Note_off_c, 0, 66, 100
1, 79822, Note_on_c, 0, 61, 100
1, 79966, Note_off_c, 0, 61, 100
1, 79966, Note_on_c, 0, 56, 100
1, 80014, Note_off_c, 0, 56, 100
1, 80014, Note_on_c, 0, 60, 100
1, 80110, Note_off_c, 0, 60, 100
1, 80110, Note_on_c, 0, 63, 100
1, 80206, Note_off_c, 0, 63, 100
1, 80206, Note_on_c, 0, 58, 100
1, 80302, Note_off_c, 0, 58, 100
1, 80302, Note_on_c, 0, 54, 100
1, 80398, Note_off_c, 0, 54, 100
1, 80398, Note_on_c, 0, 55, 100
1, 80734, Note_off_c, 0, 55, 100
1, 80734, Note_on_c, 0, 54, 100
1, 80830, Note_off_c, 0, 54, 100
1, 80830, Note_on_c, 0, 55, 100
1, 80926, Note_off_c, 0, 55, 100
1, 80926, Note_on_c, 0, 58, 100
1, 81022, Note_off_c, 0, 58, 100
1, 81022, Note_on_c, 0, 62, 100
1, 81118, Note_off_c, 0, 62, 100
1, 81118, Note_on_c, 0, 65, 100
1, 81214, Note_off_c, 0, 65, 100
1, 81214, Note_on_c, 0, 62, 100
1, 81358, Note_off_c, 0, 62, 100
1, 81358, Note_on_c, 0, 63, 100
1, 81550, Note_off_c, 0, 63, 100
1, 81550, Note_on_c, 0, 67, 100
1, 81598, Note_off_c, 0, 67, 100
1, 81598, Note_on_c, 0, 70, 100
1, 81790, Note_off_c, 0, 70, 100
1, 81790, Note_on_c, 0, 71, 100
1, 81886, Note_off_c, 0, 71, 100
1, 81886, Note_on_c, 0, 73, 100
1, 81982, Note_off_c, 0, 73, 100
1, 81982, Note_on_c, 0, 75, 100
1, 82078, Note_off_c, 0, 75, 100
1, 82078, Note_on_c, 0, 76, 100
1, 82174, Note_off_c, 0, 76, 100
1, 82174, Note_on_c, 0, 72, 100
1, 82270, Note_off_c, 0, 72, 100
1, 82270, Note_on_c, 0, 70, 100
1, 82366, Note_off_c, 0, 70, 100
1, 82366, Note_on_c, 0, 67, 100
1, 82462, Note_off_c, 0, 67, 100
1, 82462, Note_on_c, 0, 62, 100
1, 82558, Note_off_c, 0, 62, 100
1, 82558, Note_on_c, 0, 67, 100
1, 82702, Note_off_c, 0, 67, 100
1, 82702, Note_on_c, 0, 64, 100
1, 82814, Note_off_c, 0, 64, 100
1, 82814, Note_on_c, 0, 67, 100
1, 82910, Note_off_c, 0, 67, 100
1, 84094, Note_on_c, 0, 72, 100
1, 84286, Note_off_c, 0, 72, 100
1, 84286, Note_on_c, 0, 70, 100
1, 84382, Note_off_c, 0, 70, 100
1, 84382, Note_on_c, 0, 67, 100
1, 84430, Note_off_c, 0, 67, 100
1, 84430, Note_on_c, 0, 70, 100
1, 84574, Note_off_c, 0, 70, 100
1, 84574, Note_on_c, 0, 65, 100
1, 84622, Note_off_c, 0, 65, 100
1, 84622, Note_on_c, 0, 70, 100
1, 84670, Note_off_c, 0, 70, 100
1, 84670, Note_on_c, 0, 75, 100
1, 84766, Note_off_c, 0, 75, 100
1, 84766, Note_on_c, 0, 74, 100
1, 84862, Note_off_c, 0, 74, 100
1, 84862, Note_on_c, 0, 70, 100
1, 84958, Note_off_c, 0, 70, 100
1, 84958, Note_on_c, 0, 69, 100
1, 85054, Note_off_c, 0, 69, 100
1, 85054, Note_on_c, 0, 66, 100
1, 85150, Note_off_c, 0, 66, 100
1, 85150, Note_on_c, 0, 65, 100
1, 85246, Note_off_c, 0, 65, 100
1, 85246, Note_on_c, 0, 63, 100
1, 85438, Note_off_c, 0, 63, 100
1, 85438, Note_on_c, 0, 62, 100
1, 85726, Note_off_c, 0, 62, 100
1, 85726, Note_on_c, 0, 74, 100
1, 85822, Note_off_c, 0, 74, 100
1, 85822, Note_on_c, 0, 70, 100
1, 85918, Note_off_c, 0, 70, 100
1, 85918, Note_on_c, 0, 70, 100
1, 86014, Note_off_c, 0, 70, 100
1, 86014, Note_on_c, 0, 68, 100
1, 86110, Note_off_c, 0, 68, 100
1, 86110, Note_on_c, 0, 70, 100
1, 86206, Note_off_c, 0, 70, 100
1, 86206, Note_on_c, 0, 71, 100
1, 86302, Note_off_c, 0, 71, 100
1, 86302, Note_on_c, 0, 68, 100
1, 86398, Note_off_c, 0, 68, 100
1, 86398, Note_on_c, 0, 67, 100
1, 86462, Note_off_c, 0, 67, 100
1, 86462, Note_on_c, 0, 65, 100
1, 86526, Note_off_c, 0, 65, 100
1, 86526, Note_on_c, 0, 66, 100
1, 86654, Note_off_c, 0, 66, 100
1, 86654, Note_on_c, 0, 72, 100
1, 86718, Note_off_c, 0, 72, 100
1, 86718, Note_on_c, 0, 73, 100
1, 86782, Note_off_c, 0, 73, 100
1, 86782, Note_on_c, 0, 71, 100
1, 86878, Note_off_c, 0, 71, 100
1, 86878, Note_on_c, 0, 66, 100
1, 86926, Note_off_c, 0, 66, 100
1, 86926, Note_on_c, 0, 69, 100
1, 87038, Note_off_c, 0, 69, 100
1, 87038, Note_on_c, 0, 66, 100
1, 87102, Note_off_c, 0, 66, 100
1, 87102, Note_on_c, 0, 62, 100
1, 87262, Note_off_c, 0, 62, 100
1, 87262, Note_on_c, 0, 64, 100
1, 87422, Note_off_c, 0, 64, 100
1, 87422, Note_on_c, 0, 67, 100
1, 87486, Note_off_c, 0, 67, 100
1, 87486, Note_on_c, 0, 65, 100
1, 87646, Note_off_c, 0, 65, 100
1, 87646, Note_on_c, 0, 61, 100
1, 87694, Note_off_c, 0, 61, 100
1, 87694, Note_on_c, 0, 58, 100
1, 87790, Note_off_c, 0, 58, 100
1, 87790, Note_on_c, 0, 54, 100
1, 87886, Note_off_c, 0, 54, 100
1, 87886, Note_on_c, 0, 60, 100
1, 87982, Note_off_c, 0, 60, 100
1, 87982, Note_on_c, 0, 62, 100
1, 88078, Note_off_c, 0, 62, 100
1, 88078, Note_on_c, 0, 58, 100
1, 88222, Note_off_c, 0, 58, 100
1, 88222, Note_on_c, 0, 53, 100
1, 88318, Note_off_c, 0, 53, 100
1, 88318, Note_on_c, 0, 55, 100
1, 88366, Note_off_c, 0, 55, 100
1, 88366, Note_on_c, 0, 57, 100
1, 88462, Note_off_c, 0, 57, 100
1, 88462, Note_on_c, 0, 59, 100
1, 88558, Note_off_c, 0, 59, 100
1, 88558, Note_on_c, 0, 61, 100
1, 88654, Note_off_c, 0, 61, 100
1, 88654, Note_on_c, 0, 63, 100
1, 88766, Note_off_c, 0, 63, 100
1, 88766, Note_on_c, 0, 70, 100
1, 88830, Note_off_c, 0, 70, 100
1, 88830, Note_on_c, 0, 68, 100
1, 88894, Note_off_c, 0, 68, 100
1, 88894, Note_on_c, 0, 70, 100
1, 88990, Note_off_c, 0, 70, 100
1, 88990, Note_on_c, 0, 71, 100
1, 89086, Note_off_c, 0, 71, 100
1, 89086, Note_on_c, 0, 73, 100
1, 89182, Note_off_c, 0, 73, 100
1, 89182, Note_on_c, 0, 75, 100
1, 89326, Note_off_c, 0, 75, 100
1, 89326, Note_on_c, 0, 75, 100
1, 89422, Note_off_c, 0, 75, 100
1, 89422, Note_on_c, 0, 78, 100
1, 89518, Note_off_c, 0, 78, 100
1, 89518, Note_on_c, 0, 78, 100
1, 89614, Note_off_c, 0, 78, 100
1, 89614, Note_on_c, 0, 75, 100
1, 89662, Note_off_c, 0, 75, 100
1, 89662, Note_on_c, 0, 76, 100
1, 89854, Note_off_c, 0, 76, 100
1, 89854, Note_on_c, 0, 76, 100
1, 89950, Note_off_c, 0, 76, 100
1, 91198, Note_on_c, 0, 72, 100
1, 91246, Note_off_c, 0, 72, 100
1, 91246, Note_on_c, 0, 75, 100
1, 91342, Note_off_c, 0, 75, 100
1, 91342, Note_on_c, 0, 79, 100
1, 91486, Note_off_c, 0, 79, 100
1, 91486, Note_on_c, 0, 77, 100
1, 91646, Note_off_c, 0, 77, 100
1, 91646, Note_on_c, 0, 77, 100
1, 91774, Note_off_c, 0, 77, 100
1, 91774, Note_on_c, 0, 75, 100
1, 91902, Note_off_c, 0, 75, 100
1, 91902, Note_on_c, 0, 74, 100
1, 92062, Note_off_c, 0, 74, 100
1, 92062, Note_on_c, 0, 69, 100
1, 92158, Note_off_c, 0, 69, 100
1, 92158, Note_on_c, 0, 70, 100
1, 92206, Note_off_c, 0, 70, 100
1, 92206, Note_on_c, 0, 74, 100
1, 92302, Note_off_c, 0, 74, 100
1, 92302, Note_on_c, 0, 75, 100
1, 92446, Note_off_c, 0, 75, 100
1, 92446, Note_on_c, 0, 78, 100
1, 92638, Note_off_c, 0, 78, 100
1, 92638, Note_on_c, 0, 80, 100
1, 92830, Note_off_c, 0, 80, 100
1, 92830, Note_on_c, 0, 78, 100
1, 92926, Note_off_c, 0, 78, 100
1, 92926, Note_on_c, 0, 76, 100
1, 93118, Note_off_c, 0, 76, 100
1, 93118, Note_on_c, 0, 80, 100
1, 93214, Note_off_c, 0, 80, 100
1, 93502, Note_on_c, 0, 80, 100
1, 93598, Note_off_c, 0, 80, 100
1, 93598, Note_on_c, 0, 81, 100
1, 93694, Note_off_c, 0, 81, 100
1, 93694, Note_on_c, 0, 80, 100
1, 93790, Note_off_c, 0, 80, 100
1, 93790, Note_on_c, 0, 79, 100
1, 93934, Note_off_c, 0, 79, 100
1, 93934, Note_on_c, 0, 78, 100
1, 94030, Note_off_c, 0, 78, 100
1, 94030, Note_on_c, 0, 75, 100
1, 94366, Note_off_c, 0, 75, 100
1, 94366, Note_on_c, 0, 74, 100
1, 94558, Note_off_c, 0, 74, 100
1, 94558, Note_on_c, 0, 69, 100
1, 94654, Note_off_c, 0, 69, 100
1, 94654, Note_on_c, 0, 66, 100
1, 94750, Note_off_c, 0, 66, 100
1, 94750, Note_on_c, 0, 74, 100
1, 94846, Note_off_c, 0, 74, 100
1, 94846, Note_on_c, 0, 73, 100
1, 94942, Note_off_c, 0, 73, 100
1, 94942, Note_on_c, 0, 75, 100
1, 95038, Note_off_c, 0, 75, 100
1, 95038, Note_on_c, 0, 71, 100
1, 95182, Note_off_c, 0, 71, 100
1, 95182, Note_on_c, 0, 66, 100
1, 95230, Note_off_c, 0, 66, 100
1, 95230, Note_on_c, 0, 68, 100
1, 95326, Note_off_c, 0, 68, 100
1, 95326, Note_on_c, 0, 70, 100
1, 95422, Note_off_c, 0, 70, 100
1, 95422, Note_on_c, 0, 71, 100
1, 95518, Note_off_c, 0, 71, 100
1, 95518, Note_on_c, 0, 73, 100
1, 95614, Note_off_c, 0, 73, 100
1, 95614, Note_on_c, 0, 72, 100
1, 95710, Note_off_c, 0, 72, 100
1, 95710, Note_on_c, 0, 70, 100
1, 95806, Note_off_c, 0, 70, 100
1, 95806, Note_on_c, 0, 67, 100
1, 95902, Note_off_c, 0, 67, 100
1, 95902, Note_on_c, 0, 70, 100
1, 95998, Note_off_c, 0, 70, 100
1, 95998, Note_on_c, 0, 69, 100
1, 96094, Note_off_c, 0, 69, 100
1, 96094, Note_on_c, 0, 65, 100
1, 96190, Note_off_c, 0, 65, 100
1, 96190, Note_on_c, 0, 61, 100
1, 96238, Note_off_c, 0, 61, 100
1, 96238, Note_on_c, 0, 62, 100
1, 96286, Note_off_c, 0, 62, 100
1, 96286, Note_on_c, 0, 60, 100
1, 96382, Note_off_c, 0, 60, 100
1, 96382, Note_on_c, 0, 67, 100
1, 96478, Note_off_c, 0, 67, 100
1, 96478, Note_on_c, 0, 70, 100
1, 96574, Note_off_c, 0, 70, 100
1, 96574, Note_on_c, 0, 69, 100
1, 96670, Note_off_c, 0, 69, 100
1, 96670, Note_on_c, 0, 66, 100
1, 96766, Note_off_c, 0, 66, 100
1, 96766, Note_on_c, 0, 63, 100
1, 96894, Note_off_c, 0, 63, 100
1, 96894, Note_on_c, 0, 59, 100
1, 96958, Note_off_c, 0, 59, 100
1, 96958, Note_on_c, 0, 68, 100
1, 97150, Note_off_c, 0, 68, 100
1, 97150, Note_on_c, 0, 62, 100
1, 97246, Note_off_c, 0, 62, 100
1, 97246, Note_on_c, 0, 58, 100
1, 97390, Note_off_c, 0, 58, 100
1, 97390, Note_on_c, 0, 60, 100
1, 97438, Note_off_c, 0, 60, 100
1, 97438, Note_on_c, 0, 61, 100
1, 97486, Note_off_c, 0, 61, 100
1, 97486, Note_on_c, 0, 63, 100
1, 97598, Note_off_c, 0, 63, 100
1, 97598, Note_on_c, 0, 58, 100
1, 97694, Note_off_c, 0, 58, 100
1, 98110, Note_on_c, 0, 58, 100
1, 98206, Note_off_c, 0, 58, 100
1, 98206, Note_on_c, 0, 55, 100
1, 98302, Note_off_c, 0, 55, 100
1, 98302, Note_on_c, 0, 53, 100
1, 98398, Note_off_c, 0, 53, 100
1, 98398, Note_on_c, 0, 58, 100
1, 98494, Note_off_c, 0, 58, 100
1, 98494, Note_on_c, 0, 57, 100
1, 98590, Note_off_c, 0, 57, 100
1, 98590, Note_on_c, 0, 54, 100
1, 98638, Note_off_c, 0, 54, 100
1, 98638, Note_on_c, 0, 58, 100
1, 98734, Note_off_c, 0, 58, 100
1, 98734, Note_on_c, 0, 63, 100
1, 98830, Note_off_c, 0, 63, 100
1, 98830, Note_on_c, 0, 56, 100
1, 99070, Note_off_c, 0, 56, 100
1, 99070, Note_on_c, 0, 61, 100
1, 99166, Note_off_c, 0, 61, 100
1, 99166, Note_on_c, 0, 58, 100
1, 99214, Note_off_c, 0, 58, 100
1, 99214, Note_on_c, 0, 55, 100
1, 99326, Note_off_c, 0, 55, 100
1, 99326, Note_on_c, 0, 56, 100
1, 99502, Note_off_c, 0, 56, 100
1, 99502, Note_on_c, 0, 58, 100
1, 99598, Note_off_c, 0, 58, 100
1, 99598, Note_on_c, 0, 59, 100
1, 99694, Note_off_c, 0, 59, 100
1, 99694, Note_on_c, 0, 61, 100
1, 99790, Note_off_c, 0, 61, 100
1, 99790, Note_on_c, 0, 63, 100
1, 99902, Note_off_c, 0, 63, 100
1, 99902, Note_on_c, 0, 66, 100
1, 99966, Note_off_c, 0, 66, 100
1, 99966, Note_on_c, 0, 68, 100
1, 100078, Note_off_c, 0, 68, 100
1, 100078, Note_on_c, 0, 70, 100
1, 100174, Note_off_c, 0, 70, 100
1, 100174, Note_on_c, 0, 71, 100
1, 100270, Note_off_c, 0, 71, 100
1, 100270, Note_on_c, 0, 73, 100
1, 100366, Note_off_c, 0, 73, 100
1, 100366, Note_on_c, 0, 72, 100
1, 100478, Note_off_c, 0, 72, 100
1, 100478, Note_on_c, 0, 67, 100
1, 100542, Note_off_c, 0, 67, 100
1, 100542, Note_on_c, 0, 64, 100
1, 100606, Note_off_c, 0, 64, 100
1, 100606, Note_on_c, 0, 62, 100
1, 100702, Note_off_c, 0, 62, 100
1, 100702, Note_on_c, 0, 65, 100
1, 100798, Note_off_c, 0, 65, 100
1, 101518, Note_on_c, 0, 75, 100
1, 101566, Note_off_c, 0, 75, 100
1, 101566, Note_on_c, 0, 78, 100
1, 101758, Note_off_c, 0, 78, 100
1, 101758, Note_on_c, 0, 73, 100
1, 101854, Note_off_c, 0, 73, 100
1, 101854, Note_on_c, 0, 71, 100
1, 102046, Note_off_c, 0, 71, 100
1, 102046, Note_on_c, 0, 66, 100
1, 102142, Note_off_c, 0, 66, 100
1, 102142, Note_on_c, 0, 64, 100
1, 102238, Note_off_c, 0, 64, 100
1, 102238, Note_on_c, 0, 62, 100
1, 102334, Note_off_c, 0, 62, 100
1, 102334, Note_on_c, 0, 70, 100
1, 102430, Note_off_c, 0, 70, 100
1, 102430, Note_on_c, 0, 74, 100
1, 102526, Note_off_c, 0, 74, 100
1, 102526, Note_on_c, 0, 75, 100
1, 102574, Note_off_c, 0, 75, 100
1, 102574, Note_on_c, 0, 76, 100
1, 102670, Note_off_c, 0, 76, 100
1, 102670, Note_on_c, 0, 77, 100
1, 102910, Note_off_c, 0, 77, 100
1, 102910, Note_on_c, 0, 74, 100
1, 103038, Note_off_c, 0, 74, 100
1, 103038, Note_on_c, 0, 72, 100
1, 103198, Note_off_c, 0, 72, 100
1, 103198, Note_on_c, 0, 69, 100
1, 103294, Note_off_c, 0, 69, 100
1, 103294, Note_on_c, 0, 64, 100
1, 103438, Note_off_c, 0, 64, 100
1, 103438, Note_on_c, 0, 68, 100
1, 103678, Note_off_c, 0, 68, 100
1, 103678, Note_on_c, 0, 76, 100
1, 103934, Note_off_c, 0, 76, 100
1, 103934, Note_on_c, 0, 74, 100
1, 104062, Note_off_c, 0, 74, 100
1, 104062, Note_on_c, 0, 76, 100
1, 104206, Note_off_c, 0, 76, 100
1, 104206, Note_on_c, 0, 71, 100
1, 104350, Note_off_c, 0, 71, 100
1, 104350, Note_on_c, 0, 68, 100
1, 104446, Note_off_c, 0, 68, 100
1, 104446, Note_on_c, 0, 64, 100
1, 104542, Note_off_c, 0, 64, 100
1, 104542, Note_on_c, 0, 69, 100
1, 104590, Note_off_c, 0, 69, 100
1, 104590, Note_on_c, 0, 70, 100
1, 104702, Note_off_c, 0, 70, 100
1, 104702, Note_on_c, 0, 73, 100
1, 104766, Note_off_c, 0, 73, 100
1, 104766, Note_on_c, 0, 75, 100
1, 104878, Note_off_c, 0, 75, 100
1, 104878, Note_on_c, 0, 72, 100
1, 104974, Note_off_c, 0, 72, 100
1, 104974, Note_on_c, 0, 71, 100
1, 105118, Note_off_c, 0, 71, 100
1, 105118, Note_on_c, 0, 68, 100
1, 105310, Note_off_c, 0, 68, 100
1, 105310, Note_on_c, 0, 62, 100
1, 105406, Note_off_c, 0, 62, 100
1, 105406, Note_on_c, 0, 66, 100
1, 105598, Note_off_c, 0, 66, 100
1, 105598, Note_on_c, 0, 68, 100
1, 105694, Note_off_c, 0, 68, 100
1, 105694, Note_on_c, 0, 67, 100
1, 105854, Note_off_c, 0, 67, 100
1, 105854, Note_on_c, 0, 64, 100
1, 105918, Note_off_c, 0, 64, 100
1, 105918, Note_on_c, 0, 70, 100
1, 105982, Note_off_c, 0, 70, 100
1, 105982, Note_on_c, 0, 69, 100
1, 106222, Note_off_c, 0, 69, 100
1, 106222, Note_on_c, 0, 70, 100
1, 106318, Note_off_c, 0, 70, 100
1, 106318, Note_on_c, 0, 64, 100
1, 106510, Note_off_c, 0, 64, 100
1, 106510, Note_on_c, 0, 72, 100
1, 106702, Note_off_c, 0, 72, 100
1, 106702, Note_on_c, 0, 75, 100
1, 106942, Note_off_c, 0, 75, 100
1, 106942, Note_on_c, 0, 71, 100
1, 107038, Note_off_c, 0, 71, 100
1, 107038, Note_on_c, 0, 68, 100
1, 107134, Note_off_c, 0, 68, 100
1, 107134, Note_on_c, 0, 64, 100
1, 107230, Note_off_c, 0, 64, 100
1, 107230, Note_on_c, 0, 66, 100
1, 107326, Note_off_c, 0, 66, 100
1, 107326, Note_on_c, 0, 68, 100
1, 107422, Note_off_c, 0, 68, 100
1, 107422, Note_on_c, 0, 61, 100
1, 107518, Note_off_c, 0, 61, 100
1, 107806, Note_on_c, 0, 62, 100
1, 107854, Note_off_c, 0, 62, 100
1, 107854, Note_on_c, 0, 64, 100
1, 107998, Note_off_c, 0, 64, 100
1, 107998, Note_on_c, 0, 69, 100
1, 108094, Note_off_c, 0, 69, 100
1, 108094, Note_on_c, 0, 62, 100
1, 108158, Note_off_c, 0, 62, 100
1, 108158, Note_on_c, 0, 61, 100
1, 108222, Note_off_c, 0, 61, 100
1, 108222, Note_on_c, 0, 63, 100
1, 108334, Note_off_c, 0, 63, 100
1, 108334, Note_on_c, 0, 66, 100
1, 108430, Note_off_c, 0, 66, 100
1, 108430, Note_on_c, 0, 68, 100
1, 108526, Note_off_c, 0, 68, 100
1, 108526, Note_on_c, 0, 70, 100
1, 108622, Note_off_c, 0, 70, 100
1, 108622, Note_on_c, 0, 71, 100
1, 108718, Note_off_c, 0, 71, 100
1, 108718, Note_on_c, 0, 73, 100
1, 108814, Note_off_c, 0, 73, 100
1, 108814, Note_on_c, 0, 75, 100
1, 108958, Note_off_c, 0, 75, 100
1, 108958, Note_on_c, 0, 77, 100
1, 109054, Note_off_c, 0, 77, 100
1, 109054, Note_on_c, 0, 73, 100
1, 109150, Note_off_c, 0, 73, 100
1, 109150, Note_on_c, 0, 72, 100
1, 109246, Note_off_c, 0, 72, 100
1, 109822, Note_on_c, 0, 70, 100
1, 109918, Note_off_c, 0, 70, 100
1, 109918, Note_on_c, 0, 66, 100
1, 110014, Note_off_c, 0, 66, 100
1, 110014, Note_on_c, 0, 63, 100
1, 110110, Note_off_c, 0, 63, 100
1, 110110, Note_on_c, 0, 58, 100
1, 110206, Note_off_c, 0, 58, 100
1, 110206, Note_on_c, 0, 57, 100
1, 110302, Note_off_c, 0, 57, 100
1, 110302, Note_on_c, 0, 53, 100
1, 110350, Note_off_c, 0, 53, 100
1, 110350, Note_on_c, 0, 55, 100
1, 110494, Note_off_c, 0, 55, 100
1, 110494, Note_on_c, 0, 55, 100
1, 110686, Note_off_c, 0, 55, 100
1, 110686, Note_on_c, 0, 62, 100
1, 110782, Note_off_c, 0, 62, 100
1, 110782, Note_on_c, 0, 56, 100
1, 110878, Note_off_c, 0, 56, 100
1, 110878, Note_on_c, 0, 62, 100
1, 110974, Note_off_c, 0, 62, 100
1, 110974, Note_on_c, 0, 58, 100
1, 111070, Note_off_c, 0, 58, 100
1, 111070, Note_on_c, 0, 57, 100
1, 111166, Note_off_c, 0, 57, 100
1, 111166, Note_on_c, 0, 56, 100
1, 111262, Note_off_c, 0, 56, 100
1, 111262, Note_on_c, 0, 57, 100
1, 111358, Note_off_c, 0, 57, 100
1, 111358, Note_on_c, 0, 62, 100
1, 111406, Note_off_c, 0, 62, 100
1, 111406, Note_on_c, 0, 67, 100
1, 111502, Note_off_c, 0, 67, 100
1, 111502, Note_on_c, 0, 62, 100
1, 111694, Note_off_c, 0, 62, 100
1, 111694, Note_on_c, 0, 59, 100
1, 111742, Note_off_c, 0, 59, 100
1, 111742, Note_on_c, 0, 63, 100
1, 111982, Note_off_c, 0, 63, 100
1, 111982, Note_on_c, 0, 65, 100
1, 112078, Note_off_c, 0, 65, 100
1, 112078, Note_on_c, 0, 70, 100
1, 112318, Note_off_c, 0, 70, 100
1, 112318, Note_on_c, 0, 67, 100
1, 112414, Note_off_c, 0, 67, 100
1, 112414, Note_on_c, 0, 70, 100
1, 112606, Note_off_c, 0, 70, 100
1, 112606, Note_on_c, 0, 71, 100
1, 112654, Note_off_c, 0, 71, 100
1, 112654, Note_on_c, 0, 74, 100
1, 112702, Note_off_c, 0, 74, 100
1, 112702, Note_on_c, 0, 76, 100
1, 112750, Note_off_c, 0, 76, 100
1, 112750, Note_on_c, 0, 75, 100
1, 112846, Note_off_c, 0, 75, 100
1, 112846, Note_on_c, 0, 76, 100
1, 112958, Note_off_c, 0, 76, 100
1, 112958, Note_on_c, 0, 77, 100
1, 113086, Note_off_c, 0, 77, 100
1, 113086, Note_on_c, 0, 72, 100
1, 113150, Note_off_c, 0, 72, 100
1, 113150, Note_on_c, 0, 71, 100
1, 113214, Note_off_c, 0, 71, 100
1, 113214, Note_on_c, 0, 70, 100
1, 113326, Note_off_c, 0, 70, 100
1, 113326, Note_on_c, 0, 65, 100
1, 113422, Note_off_c, 0, 65, 100
1, 113422, Note_on_c, 0, 63, 100
1, 113534, Note_off_c, 0, 63, 100
1, 113534, Note_on_c, 0, 60, 100
1, 113598, Note_off_c, 0, 60, 100
1, 113598, Note_on_c, 0, 67, 100
1, 113662, Note_off_c, 0, 67, 100
1, 113662, Note_on_c, 0, 65, 100
1, 113854, Note_off_c, 0, 65, 100
1, 113854, Note_on_c, 0, 62, 100
1, 113950, Note_off_c, 0, 62, 100
1, 113950, Note_on_c, 0, 57, 100
1, 113998, Note_off_c, 0, 57, 100
1, 113998, Note_on_c, 0, 60, 100
1, 114094, Note_off_c, 0, 60, 100
1, 114094, Note_on_c, 0, 63, 100
1, 114190, Note_off_c, 0, 63, 100
1, 114190, Note_on_c, 0, 58, 100
1, 114286, Note_off_c, 0, 58, 100
1, 114286, Note_on_c, 0, 53, 100
1, 114382, Note_off_c, 0, 53, 100
1, 114382, Note_on_c, 0, 57, 100
1, 114494, Note_off_c, 0, 57, 100
1, 114494, Note_on_c, 0, 55, 100
1, 114622, Note_off_c, 0, 55, 100
1, 114622, Note_on_c, 0, 65, 100
1, 114766, Note_off_c, 0, 65, 100
1, 114766, Note_on_c, 0, 62, 100
1, 114910, Note_off_c, 0, 62, 100
1, 114910, Note_on_c, 0, 64, 100
1, 114958, Note_off_c, 0, 64, 100
1, 114958, Note_on_c, 0, 66, 100
1, 115054, Note_off_c, 0, 66, 100
1, 115390, Note_on_c, 0, 65, 100
1, 115454, Note_off_c, 0, 65, 100
1, 115454, Note_on_c, 0, 64, 100
1, 115518, Note_off_c, 0, 64, 100
1, 115518, Note_on_c, 0, 63, 100
1, 115582, Note_off_c, 0, 63, 100
1, 115582, Note_on_c, 0, 61, 100
1, 115630, Note_off_c, 0, 61, 100
1, 115630, Note_on_c, 0, 60, 100
1, 115678, Note_off_c, 0, 60, 100
1, 115678, Note_on_c, 0, 58, 100
1, 115774, Note_off_c, 0, 58, 100
1, 115774, Note_on_c, 0, 55, 100
1, 115822, Note_off_c, 0, 55, 100
1, 115822, Note_on_c, 0, 56, 100
1, 115870, Note_off_c, 0, 56, 100
1, 115870, Note_on_c, 0, 58, 100
1, 115918, Note_off_c, 0, 58, 100
1, 115918, Note_on_c, 0, 62, 100
1, 116014, Note_off_c, 0, 62, 100
1, 116014, Note_on_c, 0, 65, 100
1, 116110, Note_off_c, 0, 65, 100
1, 116110, Note_on_c, 0, 61, 100
1, 116206, Note_off_c, 0, 61, 100
1, 116206, Note_on_c, 0, 63, 100
1, 116254, Note_off_c, 0, 63, 100
1, 116254, Note_on_c, 0, 65, 100
1, 116302, Note_off_c, 0, 65, 100
1, 116302, Note_on_c, 0, 68, 100
1, 116350, Note_off_c, 0, 68, 100
1, 116350, Note_on_c, 0, 71, 100
1, 116398, Note_off_c, 0, 71, 100
1, 116398, Note_on_c, 0, 73, 100
1, 116446, Note_off_c, 0, 73, 100
1, 116446, Note_on_c, 0, 77, 100
1, 116494, Note_off_c, 0, 77, 100
1, 116494, Note_on_c, 0, 75, 100
1, 116926, Note_off_c, 0, 75, 100
1, 116926, Note_on_c, 0, 73, 100
1, 116990, Note_off_c, 0, 73, 100
1, 116990, Note_on_c, 0, 71, 100
1, 117054, Note_off_c, 0, 71, 100
1, 117054, Note_on_c, 0, 68, 100
1, 117118, Note_off_c, 0, 68, 100
1, 117118, Note_on_c, 0, 64, 100
1, 117358, Note_off_c, 0, 64, 100
1, 117358, Note_on_c, 0, 68, 100
1, 117406, Note_off_c, 0, 68, 100
1, 117406, Note_on_c, 0, 66, 100
1, 117454, Note_off_c, 0, 66, 100
1, 117454, Note_on_c, 0, 63, 100
1, 117502, Note_off_c, 0, 63, 100
1, 117502, Note_on_c, 0, 62, 100
1, 117598, Note_off_c, 0, 62, 100
1, 117598, Note_on_c, 0, 61, 100
1, 117694, Note_off_c, 0, 61, 100
1, 117694, Note_on_c, 0, 64, 100
1, 117732, Note_off_c, 0, 64, 100
1, 117732, Note_on_c, 0, 66, 100
1, 117770, Note_off_c, 0, 66, 100
1, 117770, Note_on_c, 0, 69, 100
1, 117808, Note_off_c, 0, 69, 100
1, 117808, Note_on_c, 0, 71, 100
1, 117846, Note_off_c, 0, 71, 100
1, 117846, Note_on_c, 0, 73, 100
1, 117884, Note_off_c, 0, 73, 100
1, 117884, Note_on_c, 0, 75, 100
1, 118076, Note_off_c, 0, 75, 100
1, 118076, Note_on_c, 0, 72, 100
1, 118172, Note_off_c, 0, 72, 100
1, 118172, Note_on_c, 0, 72, 100
1, 118412, Note_off_c, 0, 72, 100
1, 118412, Note_on_c, 0, 70, 100
1, 118524, Note_off_c, 0, 70, 100
1, 118524, Note_on_c, 0, 67, 100
1, 118588, Note_off_c, 0, 67, 100
1, 118588, Note_on_c, 0, 61, 100
1, 118684, Note_off_c, 0, 61, 100
1, 118908, Note_on_c, 0, 69, 100
1, 118972, Note_off_c, 0, 69, 100
1, 118972, Note_on_c, 0, 66, 100
1, 119036, Note_off_c, 0, 66, 100
1, 119036, Note_on_c, 0, 61, 100
1, 119132, Note_off_c, 0, 61, 100
1, 119132, Note_on_c, 0, 59, 100
1, 119180, Note_off_c, 0, 59, 100
1, 119180, Note_on_c, 0, 64, 100
1, 119324, Note_off_c, 0, 64, 100
1, 119324, Note_on_c, 0, 66, 100
1, 119420, Note_off_c, 0, 66, 100
1, 119420, Note_on_c, 0, 63, 100
1, 119516, Note_off_c, 0, 63, 100
1, 119516, Note_on_c, 0, 65, 100
1, 119564, Note_off_c, 0, 65, 100
1, 119564, Note_on_c, 0, 66, 100
1, 119612, Note_off_c, 0, 66, 100
1, 119612, Note_on_c, 0, 62, 100
1, 119708, Note_off_c, 0, 62, 100
1, 119708, Note_on_c, 0, 59, 100
1, 119804, Note_off_c, 0, 59, 100
1, 119804, Note_on_c, 0, 60, 100
1, 119868, Note_off_c, 0, 60, 100
1, 119868, Note_on_c, 0, 62, 100
1, 119932, Note_off_c, 0, 62, 100
1, 119932, Note_on_c, 0, 58, 100
1, 119996, Note_off_c, 0, 58, 100
1, 119996, Note_on_c, 0, 54, 100
1, 120092, Note_off_c, 0, 54, 100
1, 120092, Note_on_c, 0, 55, 100
1, 120188, Note_off_c, 0, 55, 100
1, 120476, Note_on_c, 0, 55, 100
1, 120860, Note_off_c, 0, 55, 100
1, 120860, Note_on_c, 0, 58, 100
1, 120908, Note_off_c, 0, 58, 100
1, 120908, Note_on_c, 0, 61, 100
1, 121052, Note_off_c, 0, 61, 100
1, 121052, Note_on_c, 0, 63, 100
1, 121148, Note_off_c, 0, 63, 100
1, 121148, Note_on_c, 0, 66, 100
1, 121244, Note_off_c, 0, 66, 100
1, 121244, Note_on_c, 0, 62, 100
1, 121340, Note_off_c, 0, 62, 100
1, 121340, Note_on_c, 0, 61, 100
1, 121436, Note_off_c, 0, 61, 100
1, 121436, Note_on_c, 0, 63, 100
1, 121532, Note_off_c, 0, 63, 100
1, 121532, Note_on_c, 0, 66, 100
1, 121580, Note_off_c, 0, 66, 100
1, 121580, Note_on_c, 0, 68, 100
1, 121676, Note_off_c, 0, 68, 100
1, 121676, Note_on_c, 0, 71, 100
1, 121788, Note_off_c, 0, 71, 100
1, 121788, Note_on_c, 0, 73, 100
1, 121916, Note_off_c, 0, 73, 100
1, 121916, Note_on_c, 0, 75, 100
1, 122012, Note_off_c, 0, 75, 100
1, 122012, Note_on_c, 0, 76, 100
1, 122156, Note_off_c, 0, 76, 100
1, 122156, Note_on_c, 0, 80, 100
1, 122204, Note_off_c, 0, 80, 100
1, 122204, Note_on_c, 0, 81, 100
1, 122252, Note_off_c, 0, 81, 100
1, 122252, Note_on_c, 0, 79, 100
1, 122348, Note_off_c, 0, 79, 100
1, 122348, Note_on_c, 0, 78, 100
1, 122396, Note_off_c, 0, 78, 100
1, 122396, Note_on_c, 0, 77, 100
1, 122444, Note_off_c, 0, 77, 100
1, 122444, Note_on_c, 0, 77, 100
1, 122492, Note_off_c, 0, 77, 100
1, 122492, Note_on_c, 0, 75, 100
1, 122636, Note_off_c, 0, 75, 100
1, 122636, Note_on_c, 0, 74, 100
1, 122828, Note_off_c, 0, 74, 100
1, 122828, Note_on_c, 0, 68, 100
1, 122876, Note_off_c, 0, 68, 100
1, 122876, Note_on_c, 0, 70, 100
1, 122972, Note_off_c, 0, 70, 100
1, 122972, Note_on_c, 0, 74, 100
1, 123068, Note_off_c, 0, 74, 100
1, 123068, Note_on_c, 0, 72, 100
1, 123164, Note_off_c, 0, 72, 100
1, 123164, Note_on_c, 0, 71, 100
1, 123260, Note_off_c, 0, 71, 100
1, 123260, Note_on_c, 0, 70, 100
1, 123356, Note_off_c, 0, 70, 100
1, 123356, Note_on_c, 0, 69, 100
1, 123452, Note_off_c, 0, 69, 100
1, 123452, Note_on_c, 0, 68, 100
1, 123548, Note_off_c, 0, 68, 100
1, 123548, Note_on_c, 0, 70, 100
1, 123644, Note_off_c, 0, 70, 100
1, 123644, Note_on_c, 0, 69, 100
1, 123740, Note_off_c, 0, 69, 100
1, 124028, Note_on_c, 0, 64, 100
1, 124124, Note_off_c, 0, 64, 100
1, 124124, Note_on_c, 0, 60, 100
1, 124220, Note_off_c, 0, 60, 100
1, 124220, Note_on_c, 0, 62, 100
1, 124268, Note_off_c, 0, 62, 100
1, 124268, Note_on_c, 0, 64, 100
1, 124364, Note_off_c, 0, 64, 100
1, 124364, Note_on_c, 0, 67, 100
1, 124476, Note_off_c, 0, 67, 100
1, 124476, Note_on_c, 0, 69, 100
1, 124604, Note_off_c, 0, 69, 100
1, 124604, Note_on_c, 0, 71, 100
1, 124700, Note_off_c, 0, 71, 100
1, 124700, Note_on_c, 0, 75, 100
1, 124796, Note_off_c, 0, 75, 100
1, 125564, Note_on_c, 0, 70, 100
1, 125660, Note_off_c, 0, 70, 100
1, 125660, Note_on_c, 0, 69, 100
1, 125756, Note_off_c, 0, 69, 100
1, 125756, Note_on_c, 0, 68, 100
1, 125852, Note_off_c, 0, 68, 100
1, 126140, Note_on_c, 0, 65, 100
1, 126236, Note_off_c, 0, 65, 100
1, 126236, Note_on_c, 0, 66, 100
1, 126284, Note_off_c, 0, 66, 100
1, 126284, Note_on_c, 0, 61, 100
1, 126332, Note_off_c, 0, 61, 100
1, 126332, Note_on_c, 0, 62, 100
1, 126428, Note_off_c, 0, 62, 100
1, 126428, Note_on_c, 0, 59, 100
1, 126476, Note_off_c, 0, 59, 100
1, 126476, Note_on_c, 0, 67, 100
1, 126572, Note_off_c, 0, 67, 100
1, 126572, Note_on_c, 0, 66, 100
1, 126668, Note_off_c, 0, 66, 100
1, 126668, Note_on_c, 0, 64, 100
1, 126764, Note_off_c, 0, 64, 100
1, 126764, Note_on_c, 0, 65, 100
1, 126860, Note_off_c, 0, 65, 100
1, 126860, Note_on_c, 0, 66, 100
1, 126956, Note_off_c, 0, 66, 100
1, 126956, Note_on_c, 0, 63, 100
1, 127052, Note_off_c, 0, 63, 100
1, 127052, Note_on_c, 0, 62, 100
1, 127148, Note_off_c, 0, 62, 100
1, 127148, Note_on_c, 0, 66, 100
1, 127244, Note_off_c, 0, 66, 100
1, 127244, Note_on_c, 0, 69, 100
1, 127388, Note_off_c, 0, 69, 100
1, 127388, Note_on_c, 0, 61, 100
1, 127484, Note_off_c, 0, 61, 100
1, 127484, Note_on_c, 0, 59, 100
1, 127580, Note_off_c, 0, 59, 100
1, 127580, Note_on_c, 0, 60, 100
1, 127676, Note_off_c, 0, 60, 100
1, 127676, Note_on_c, 0, 63, 100
1, 127740, Note_off_c, 0, 63, 100
1, 127740, Note_on_c, 0, 58, 100
1, 127804, Note_off_c, 0, 58, 100
1, 127804, Note_on_c, 0, 53, 100
1, 127916, Note_off_c, 0, 53, 100
1, 127916, Note_on_c, 0, 58, 100
1, 128012, Note_off_c, 0, 58, 100
1, 128012, Note_on_c, 0, 57, 100
1, 128108, Note_off_c, 0, 57, 100
1, 128108, Note_on_c, 0, 58, 100
1, 128252, Note_off_c, 0, 58, 100
1, 128252, Note_on_c, 0, 60, 100
1, 128300, Note_off_c, 0, 60, 100
1, 128300, Note_on_c, 0, 65, 100
1, 128396, Note_off_c, 0, 65, 100
1, 128396, Note_on_c, 0, 63, 100
1, 128444, Note_off_c, 0, 63, 100
1, 128444, Note_on_c, 0, 67, 100
1, 128540, Note_off_c, 0, 67, 100
1, 128828, Note_on_c, 0, 70, 100
1, 129020, Note_off_c, 0, 70, 100
1, 129020, Note_on_c, 0, 65, 100
1, 129116, Note_off_c, 0, 65, 100
1, 129116, Note_on_c, 0, 63, 100
1, 129212, Note_off_c, 0, 63, 100
1, 129212, Note_on_c, 0, 60, 100
1, 129356, Note_off_c, 0, 60, 100
1, 129356, Note_on_c, 0, 67, 100
1, 129468, Note_off_c, 0, 67, 100
1, 129468, Note_on_c, 0, 65, 100
1, 129564, Note_off_c, 0, 65, 100
1, 129740, Note_on_c, 0, 60, 100
1, 129836, Note_off_c, 0, 60, 100
1, 129836, Note_on_c, 0, 63, 100
1, 129932, Note_off_c, 0, 63, 100
1, 129932, Note_on_c, 0, 58, 100
1, 130028, Note_off_c, 0, 58, 100
1, 130028, Note_on_c, 0, 55, 100
1, 130124, Note_off_c, 0, 55, 100
1, 130124, Note_on_c, 0, 57, 100
1, 130268, Note_off_c, 0, 57, 100
1, 130268, Note_on_c, 0, 65, 100
1, 130460, Note_off_c, 0, 65, 100
1, 130460, Note_on_c, 0, 63, 100
1, 130595, Note_off_c, 0, 63, 100
1, 130595, End_track
0, 0, End_of_file
