0, 0, Header, 1, 1, 192
1, 0, Start_track
1, 0, Title_t, "Melody"
1, 0, Tempo, 361445
1, 0, Key_signature, 1, "major"
1, 0, Time_signature, 4, 2, 24, 8
1, 528, Note_on_c, 0, 63, 100
1, 576, Note_off_c, 0, 63, 100
1, 576, Note_on_c, 0, 64, 100
1, 768, Note_off_c, 0, 64, 100
1, 768, Note_on_c, 0, 74, 100
1, 864, Note_off_c, 0, 74, 100
1, 1152, Note_on_c, 0, 65, 100
1, 1440, Note_off_c, 0, 65, 100
1, 1440, Note_on_c, 0, 63, 100
1, 1536, Note_off_c, 0, 63, 100
1, 1536, Note_on_c, 0, 62, 100
1, 1728, Note_off_c, 0, 62, 100
1, 1728, Note_on_c, 0, 64, 100
1, 1752, Note_off_c, 0, 64, 100
1, 1752, Note_on_c, 0, 66, 100
1, 1896, Note_off_c, 0, 66, 100
1, 1896, Note_on_c, 0, 69, 100
1, 2064, Note_off_c, 0, 69, 100
1, 2064, Note_on_c, 0, 66, 100
1, 2208, Note_off_c, 0, 66, 100
1, 2208, Note_on_c, 0, 65, 100
1, 2400, Note_off_c, 0, 65, 100
1, 2400, Note_on_c, 0, 64, 100
1, 2592, Note_off_c, 0, 64, 100
1, 2592, Note_on_c, 0, 65, 100
1, 2784, Note_off_c, 0, 65, 100
1, 2784, Note_on_c, 0, 64, 100
1, 3072, Note_off_c, 0, 64, 100
1, 3072, Note_on_c, 0, 60, 100
1, 3456, Note_off_c, 0, 60, 100
1, 3456, Note_on_c, 0, 69, 100
1, 3600, Note_off_c, 0, 69, 100
1, 3600, Note_on_c, 0, 72, 100
1, 3840, Note_off_c, 0, 72, 100
1, 3840, Note_on_c, 0, 65, 100
1, 4224, Note_off_c, 0, 65, 100
1, 4224, Note_on_c, 0, 62, 100
1, 4416, Note_off_c, 0, 62, 100
1, 4416, Note_on_c, 0, 57, 100
1, 4608, Note_off_c, 0, 57, 100
1, 4608, Note_on_c, 0, 60, 100
1, 4992, Note_off_c, 0, 60, 100
1, 5472, Note_on_c, 0, 60, 100
1, 5568, Note_off_c, 0, 60, 100
1, 5568, Note_on_c, 0, 69, 100
1, 5664, Note_off_c, 0, 69, 100
1, 5664, Note_on_c, 0, 72, 100
1, 5808, Note_off_c, 0, 72, 100
1, 5808, Note_on_c, 0, 74, 100
1, 5904, Note_off_c, 0, 74, 100
1, 5904, Note_on_c, 0, 70, 100
1, 5952, Note_off_c, 0, 70, 100
1, 5952, Note_on_c, 0, 66, 100
1, 6144, Note_off_c, 0, 66, 100
1, 6144, Note_on_c, 0, 62, 100
1, 6336, Note_off_c, 0, 62, 100
1, 6336, Note_on_c, 0, 71, 100
1, 6464, Note_off_c, 0, 71, 100
1, 6464, Note_on_c, 0, 66, 100
1, 6575, Note_off_c, 0, 66, 100
1, 6575, Note_on_c, 0, 62, 100
1, 6767, Note_off_c, 0, 62, 100
1, 6767, Note_on_c, 0, 70, 100
1, 6863, Note_off_c, 0, 70, 100
1, 6863, Note_on_c, 0, 66, 100
1, 6974, Note_off_c, 0, 66, 100
1, 6974, Note_on_c, 0, 62, 100
1, 7150, Note_off_c, 0, 62, 100
1, 7150, Note_on_c, 0, 69, 100
1, 7246, Note_off_c, 0, 69, 100
1, 7246, Note_on_c, 0, 66, 100
1, 7357, Note_off_c, 0, 66, 100
1, 7357, Note_on_c, 0, 62, 100
1, 7485, Note_off_c, 0, 62, 100
1, 7485, Note_on_c, 0, 71, 100
1, 7581, Note_off_c, 0, 71, 100
1, 7581, Note_on_c, 0, 66, 100
1, 7740, Note_off_c, 0, 66, 100
1, 7740, Note_on_c, 0, 73, 100
1, 7868, Note_off_c, 0, 73, 100
1, 7868, Note_on_c, 0, 67, 100
1, 7916, Note_off_c, 0, 67, 100
1, 7916, Note_on_c, 0, 69, 100
1, 8012, Note_off_c, 0, 69, 100
1, 8012, Note_on_c, 0, 66, 100
1, 8123, Note_off_c, 0, 66, 100
1, 8123, Note_on_c, 0, 62, 100
1, 8251, Note_off_c, 0, 62, 100
1, 8251, Note_on_c, 0, 70, 100
1, 8347, Note_off_c, 0, 70, 100
1, 8347, Note_on_c, 0, 66, 100
1, 8491, Note_off_c, 0, 66, 100
1, 8491, Note_on_c, 0, 62, 100
1, 8635, Note_off_c, 0, 62, 100
1, 8635, Note_on_c, 0, 70, 100
1, 8731, Note_off_c, 0, 70, 100
1, 8731, Note_on_c, 0, 65, 100
1, 8875, Note_off_c, 0, 65, 100
1, 8875, Note_on_c, 0, 62, 100
1, 9019, Note_off_c, 0, 62, 100
1, 9019, Note_on_c, 0, 68, 100
1, 9147, Note_off_c, 0, 68, 100
1, 9147, Note_on_c, 0, 65, 100
1, 9275, Note_off_c, 0, 65, 100
1, 9275, Note_on_c, 0, 64, 100
1, 9371, Note_off_c, 0, 64, 100
1, 9787, Note_on_c, 0, 64, 100
1, 9883, Note_off_c, 0, 64, 100
1, 9883, Note_on_c, 0, 67, 100
1, 10027, Note_off_c, 0, 67, 100
1, 10027, Note_on_c, 0, 71, 100
1, 10123, Note_off_c, 0, 71, 100
1, 10123, Note_on_c, 0, 74, 100
1, 10267, Note_off_c, 0, 74, 100
1, 10267, Note_on_c, 0, 70, 100
1, 10411, Note_off_c, 0, 70, 100
1, 10411, Note_on_c, 0, 66, 100
1, 10507, Note_off_c, 0, 66, 100
1, 10507, Note_on_c, 0, 62, 100
1, 10747, Note_off_c, 0, 62, 100
1, 10747, Note_on_c, 0, 66, 100
1, 10843, Note_off_c, 0, 66, 100
1, 11323, Note_on_c, 0, 64, 100
1, 11419, Note_off_c, 0, 64, 100
1, 11419, Note_on_c, 0, 65, 100
1, 11515, Note_off_c, 0, 65, 100
1, 11515, Note_on_c, 0, 67, 100
1, 11611, Note_off_c, 0, 67, 100
1, 11611, Note_on_c, 0, 71, 100
1, 11707, Note_off_c, 0, 71, 100
1, 11707, Note_on_c, 0, 70, 100
1, 11803, Note_off_c, 0, 70, 100
1, 11803, Note_on_c, 0, 67, 100
1, 11899, Note_off_c, 0, 67, 100
1, 11899, Note_on_c, 0, 68, 100
1, 11995, Note_off_c, 0, 68, 100
1, 11995, Note_on_c, 0, 70, 100
1, 12091, Note_off_c, 0, 70, 100
1, 12091, Note_on_c, 0, 71, 100
1, 12187, Note_off_c, 0, 71, 100
1, 12187, Note_on_c, 0, 72, 100
1, 12283, Note_off_c, 0, 72, 100
1, 12283, Note_on_c, 0, 74, 100
1, 12379, Note_off_c, 0, 74, 100
1, 12379, Note_on_c, 0, 83, 100
1, 12523, Note_off_c, 0, 83, 100
1, 12523, Note_on_c, 0, 76, 100
1, 12619, Note_off_c, 0, 76, 100
1, 12619, Note_on_c, 0, 81, 100
1, 12715, Note_off_c, 0, 81, 100
1, 12715, Note_on_c, 0, 79, 100
1, 12811, Note_off_c, 0, 79, 100
1, 12811, Note_on_c, 0, 76, 100
1, 12907, Note_off_c, 0, 76, 100
1, 12907, Note_on_c, 0, 72, 100
1, 13003, Note_off_c, 0, 72, 100
1, 13003, Note_on_c, 0, 69, 100
1, 13051, Note_off_c, 0, 69, 100
1, 13051, Note_on_c, 0, 67, 100
1, 13178, Note_off_c, 0, 67, 100
1, 13178, Note_on_c, 0, 64, 100
1, 13242, Note_off_c, 0, 64, 100
1, 13242, Note_on_c, 0, 66, 100
1, 13338, Note_off_c, 0, 66, 100
1, 13338, Note_on_c, 0, 69, 100
1, 13482, Note_off_c, 0, 69, 100
1, 13482, Note_on_c, 0, 77, 100
1, 13578, Note_off_c, 0, 77, 100
1, 13578, Note_on_c, 0, 75, 100
1, 13674, Note_off_c, 0, 75, 100
1, 13674, Note_on_c, 0, 74, 100
1, 13770, Note_off_c, 0, 74, 100
1, 13770, Note_on_c, 0, 72, 100
1, 13882, Note_off_c, 0, 72, 100
1, 13882, Note_on_c, 0, 71, 100
1, 14009, Note_off_c, 0, 71, 100
1, 14009, Note_on_c, 0, 62, 100
1, 14153, Note_off_c, 0, 62, 100
1, 14153, Note_on_c, 0, 62, 100
1, 14201, Note_off_c, 0, 62, 100
1, 14201, Note_on_c, 0, 64, 100
1, 14297, Note_off_c, 0, 64, 100
1, 15113, Note_on_c, 0, 71, 100
1, 15881, Note_off_c, 0, 71, 100
1, 15881, Note_on_c, 0, 72, 100
1, 15977, Note_off_c, 0, 72, 100
1, 15977, Note_on_c, 0, 71, 100
1, 16073, Note_off_c, 0, 71, 100
1, 16073, Note_on_c, 0, 69, 100
1, 16185, Note_off_c, 0, 69, 100
1, 16185, Note_on_c, 0, 71, 100
1, 16313, Note_off_c, 0, 71, 100
1, 16313, Note_on_c, 0, 71, 100
1, 16457, Note_off_c, 0, 71, 100
1, 16457, Note_on_c, 0, 69, 100
1, 16601, Note_off_c, 0, 69, 100
1, 16601, Note_on_c, 0, 69, 100
1, 16745, Note_off_c, 0, 69, 100
1, 16745, Note_on_c, 0, 65, 100
1, 16841, Note_off_c, 0, 65, 100
1, 16841, Note_on_c, 0, 64, 100
1, 17081, Note_off_c, 0, 64, 100
1, 17081, Note_on_c, 0, 57, 100
1, 17513, Note_off_c, 0, 57, 100
1, 17513, Note_on_c, 0, 60, 100
1, 17561, Note_off_c, 0, 60, 100
1, 17561, Note_on_c, 0, 64, 100
1, 17609, Note_off_c, 0, 64, 100
1, 17609, Note_on_c, 0, 67, 100
1, 17705, Note_off_c, 0, 67, 100
1, 17705, Note_on_c, 0, 66, 100
1, 17801, Note_off_c, 0, 66, 100
1, 17801, Note_on_c, 0, 69, 100
1, 17913, Note_off_c, 0, 69, 100
1, 17913, Note_on_c, 0, 72, 100
1, 17977, Note_off_c, 0, 72, 100
1, 17977, Note_on_c, 0, 77, 100
1, 18041, Note_off_c, 0, 77, 100
1, 18041, Note_on_c, 0, 75, 100
1, 18137, Note_off_c, 0, 75, 100
1, 18137, Note_on_c, 0, 77, 100
1, 18233, Note_off_c, 0, 77, 100
1, 18233, Note_on_c, 0, 75, 100
1, 18281, Note_off_c, 0, 75, 100
1, 18281, Note_on_c, 0, 72, 100
1, 18329, Note_off_c, 0, 72, 100
1, 18329, Note_on_c, 0, 75, 100
1, 18473, Note_off_c, 0, 75, 100
1, 18473, Note_on_c, 0, 74, 100
1, 18569, Note_off_c, 0, 74, 100
1, 18569, Note_on_c, 0, 71, 100
1, 18655, Note_off_c, 0, 71, 100
1, 18655, Note_on_c, 0, 66, 100
1, 18693, Note_off_c, 0, 66, 100
1, 18693, Note_on_c, 0, 69, 100
1, 18731, Note_off_c, 0, 69, 100
1, 18731, Note_on_c, 0, 66, 100
1, 18769, Note_off_c, 0, 66, 100
1, 18769, Note_on_c, 0, 62, 100
1, 18807, Note_off_c, 0, 62, 100
1, 18807, Note_on_c, 0, 66, 100
1, 18903, Note_off_c, 0, 66, 100
1, 18903, Note_on_c, 0, 71, 100
1, 19037, Note_off_c, 0, 71, 100
1, 19037, Note_on_c, 0, 66, 100
1, 19075, Note_off_c, 0, 66, 100
1, 19075, Note_on_c, 0, 68, 100
1, 19113, Note_off_c, 0, 68, 100
1, 19113, Note_on_c, 0, 66, 100
1, 19151, Note_off_c, 0, 66, 100
1, 19151, Note_on_c, 0, 62, 100
1, 19189, Note_off_c, 0, 62, 100
1, 19189, Note_on_c, 0, 66, 100
1, 19285, Note_off_c, 0, 66, 100
1, 19285, Note_on_c, 0, 70, 100
1, 19419, Note_off_c, 0, 70, 100
1, 19419, Note_on_c, 0, 66, 100
1, 19457, Note_off_c, 0, 66, 100
1, 19457, Note_on_c, 0, 69, 100
1, 19495, Note_off_c, 0, 69, 100
1, 19495, Note_on_c, 0, 66, 100
1, 19533, Note_off_c, 0, 66, 100
1, 19533, Note_on_c, 0, 62, 100
1, 19571, Note_off_c, 0, 62, 100
1, 19571, Note_on_c, 0, 66, 100
1, 19667, Note_off_c, 0, 66, 100
1, 19667, Note_on_c, 0, 69, 100
1, 19763, Note_off_c, 0, 69, 100
1, 19763, Note_on_c, 0, 66, 100
1, 19811, Note_off_c, 0, 66, 100
1, 19811, Note_on_c, 0, 69, 100
1, 19859, Note_off_c, 0, 69, 100
1, 19859, Note_on_c, 0, 66, 100
1, 19907, Note_off_c, 0, 66, 100
1, 19907, Note_on_c, 0, 62, 100
1, 19955, Note_off_c, 0, 62, 100
1, 19955, Note_on_c, 0, 66, 100
1, 20051, Note_off_c, 0, 66, 100
1, 20051, Note_on_c, 0, 71, 100
1, 20179, Note_off_c, 0, 71, 100
1, 20179, Note_on_c, 0, 66, 100
1, 20211, Note_off_c, 0, 66, 100
1, 20211, Note_on_c, 0, 70, 100
1, 20243, Note_off_c, 0, 70, 100
1, 20243, Note_on_c, 0, 66, 100
1, 20307, Note_off_c, 0, 66, 100
1, 20307, Note_on_c, 0, 62, 100
1, 20339, Note_off_c, 0, 62, 100
1, 20339, Note_on_c, 0, 66, 100
1, 20435, Note_off_c, 0, 66, 100
1, 20435, Note_on_c, 0, 70, 100
1, 20569, Note_off_c, 0, 70, 100
1, 20569, Note_on_c, 0, 66, 100
1, 20607, Note_off_c, 0, 66, 100
1, 20607, Note_on_c, 0, 68, 100
1, 20645, Note_off_c, 0, 68, 100
1, 20645, Note_on_c, 0, 66, 100
1, 20683, Note_off_c, 0, 66, 100
1, 20683, Note_on_c, 0, 62, 100
1, 20721, Note_off_c, 0, 62, 100
1, 20721, Note_on_c, 0, 65, 100
1, 20817, Note_off_c, 0, 65, 100
1, 20817, Note_on_c, 0, 70, 100
1, 20945, Note_off_c, 0, 70, 100
1, 20945, Note_on_c, 0, 65, 100
1, 20977, Note_off_c, 0, 65, 100
1, 20977, Note_on_c, 0, 66, 100
1, 21009, Note_off_c, 0, 66, 100
1, 21009, Note_on_c, 0, 65, 100
1, 21073, Note_off_c, 0, 65, 100
1, 21073, Note_on_c, 0, 62, 100
1, 21105, Note_off_c, 0, 62, 100
1, 21105, Note_on_c, 0, 65, 100
1, 21201, Note_off_c, 0, 65, 100
1, 21201, Note_on_c, 0, 68, 100
1, 21297, Note_off_c, 0, 68, 100
1, 21297, Note_on_c, 0, 65, 100
1, 21345, Note_off_c, 0, 65, 100
1, 21345, Note_on_c, 0, 68, 100
1, 21393, Note_off_c, 0, 68, 100
1, 21393, Note_on_c, 0, 65, 100
1, 21441, Note_off_c, 0, 65, 100
1, 21441, Note_on_c, 0, 62, 100
1, 21489, Note_off_c, 0, 62, 100
1, 21489, Note_on_c, 0, 64, 100
1, 21585, Note_off_c, 0, 64, 100
1, 21585, Note_on_c, 0, 67, 100
1, 21681, Note_off_c, 0, 67, 100
1, 21681, Note_on_c, 0, 64, 100
1, 21729, Note_off_c, 0, 64, 100
1, 21729, Note_on_c, 0, 65, 100
1, 21777, Note_off_c, 0, 65, 100
1, 21777, Note_on_c, 0, 64, 100
1, 21825, Note_off_c, 0, 64, 100
1, 21825, Note_on_c, 0, 60, 100
1, 21873, Note_off_c, 0, 60, 100
1, 21873, Note_on_c, 0, 63, 100
1, 21969, Note_off_c, 0, 63, 100
1, 21969, Note_on_c, 0, 65, 100
1, 22065, Note_off_c, 0, 65, 100
1, 22065, Note_on_c, 0, 63, 100
1, 22113, Note_off_c, 0, 63, 100
1, 22113, Note_on_c, 0, 65, 100
1, 22161, Note_off_c, 0, 65, 100
1, 22161, Note_on_c, 0, 63, 100
1, 22209, Note_off_c, 0, 63, 100
1, 22209, Note_on_c, 0, 60, 100
1, 22257, Note_off_c, 0, 60, 100
1, 22257, Note_on_c, 0, 62, 100
1, 22353, Note_off_c, 0, 62, 100
1, 22737, Note_on_c, 0, 67, 100
1, 22833, Note_off_c, 0, 67, 100
1, 22833, Note_on_c, 0, 69, 100
1, 22929, Note_off_c, 0, 69, 100
1, 22929, Note_on_c, 0, 72, 100
1, 23025, Note_off_c, 0, 72, 100
1, 23025, Note_on_c, 0, 75, 100
1, 23121, Note_off_c, 0, 75, 100
1, 23121, Note_on_c, 0, 81, 100
1, 23217, Note_off_c, 0, 81, 100
1, 23217, Note_on_c, 0, 79, 100
1, 23313, Note_off_c, 0, 79, 100
1, 23313, Note_on_c, 0, 75, 100
1, 23473, Note_off_c, 0, 75, 100
1, 23473, Note_on_c, 0, 74, 100
1, 23601, Note_off_c, 0, 74, 100
1, 23601, Note_on_c, 0, 71, 100
1, 23793, Note_off_c, 0, 71, 100
1, 24129, Note_on_c, 0, 77, 100
1, 24177, Note_off_c, 0, 77, 100
1, 24177, Note_on_c, 0, 76, 100
1, 24225, Note_off_c, 0, 76, 100
1, 24225, Note_on_c, 0, 74, 100
1, 24321, Note_off_c, 0, 74, 100
1, 24321, Note_on_c, 0, 73, 100
1, 24417, Note_off_c, 0, 73, 100
1, 24417, Note_on_c, 0, 72, 100
1, 24513, Note_off_c, 0, 72, 100
1, 24513, Note_on_c, 0, 70, 100
1, 24609, Note_off_c, 0, 70, 100
1, 24609, Note_on_c, 0, 69, 100
1, 24945, Note_off_c, 0, 69, 100
1, 24945, Note_on_c, 0, 60, 100
1, 25569, Note_off_c, 0, 60, 100
1, 25569, Note_on_c, 0, 64, 100
1, 25617, Note_off_c, 0, 64, 100
1, 25617, Note_on_c, 0, 67, 100
1, 25665, Note_off_c, 0, 67, 100
1, 25665, Note_on_c, 0, 71, 100
1, 25713, Note_off_c, 0, 71, 100
1, 25713, Note_on_c, 0, 74, 100
1, 25761, Note_off_c, 0, 74, 100
1, 25761, Note_on_c, 0, 71, 100
1, 25809, Note_off_c, 0, 71, 100
1, 25809, Note_on_c, 0, 74, 100
1, 25857, Note_off_c, 0, 74, 100
1, 25857, Note_on_c, 0, 71, 100
1, 25905, Note_off_c, 0, 71, 100
1, 25905, Note_on_c, 0, 74, 100
1, 25968, Note_off_c, 0, 74, 100
1, 25968, Note_on_c, 0, 71, 100
1, 26032, Note_off_c, 0, 71, 100
1, 26032, Note_on_c, 0, 74, 100
1, 26095, Note_off_c, 0, 74, 100
1, 26095, Note_on_c, 0, 71, 100
1, 26239, Note_off_c, 0, 71, 100
1, 26239, Note_on_c, 0, 67, 100
1, 26527, Note_off_c, 0, 67, 100
1, 26527, Note_on_c, 0, 67, 100
1, 26719, Note_off_c, 0, 67, 100
1, 27439, Note_on_c, 0, 76, 100
1, 28399, Note_off_c, 0, 76, 100
1, 28399, Note_on_c, 0, 74, 100
1, 28527, Note_off_c, 0, 74, 100
1, 28527, Note_on_c, 0, 69, 100
1, 28719, Note_off_c, 0, 69, 100
1, 29359, Note_on_c, 0, 74, 100
1, 29407, Note_off_c, 0, 74, 100
1, 29407, Note_on_c, 0, 77, 100
1, 29503, Note_off_c, 0, 77, 100
1, 29503, Note_on_c, 0, 81, 100
1, 29599, Note_off_c, 0, 81, 100
1, 29599, Note_on_c, 0, 76, 100
1, 29647, Note_off_c, 0, 76, 100
1, 29647, Note_on_c, 0, 77, 100
1, 29695, Note_off_c, 0, 77, 100
1, 29695, Note_on_c, 0, 76, 100
1, 29791, Note_off_c, 0, 76, 100
1, 29791, Note_on_c, 0, 72, 100
1, 29887, Note_off_c, 0, 72, 100
1, 29887, Note_on_c, 0, 69, 100
1, 29983, Note_off_c, 0, 69, 100
1, 29983, Note_on_c, 0, 64, 100
1, 30079, Note_off_c, 0, 64, 100
1, 30079, Note_on_c, 0, 60, 100
1, 30127, Note_off_c, 0, 60, 100
1, 30127, Note_on_c, 0, 64, 100
1, 30223, Note_off_c, 0, 64, 100
1, 30223, Note_on_c, 0, 69, 100
1, 30319, Note_off_c, 0, 69, 100
1, 30319, Note_on_c, 0, 66, 100
1, 30447, Note_off_c, 0, 66, 100
1, 30447, Note_on_c, 0, 62, 100
1, 30511, Note_off_c, 0, 62, 100
1, 30511, Note_on_c, 0, 64, 100
1, 30607, Note_off_c, 0, 64, 100
1, 30607, Note_on_c, 0, 69, 100
1, 30751, Note_off_c, 0, 69, 100
1, 30751, Note_on_c, 0, 66, 100
1, 30847, Note_off_c, 0, 66, 100
1, 30847, Note_on_c, 0, 62, 100
1, 31135, Note_off_c, 0, 62, 100
1, 31135, Note_on_c, 0, 69, 100
1, 31231, Note_off_c, 0, 69, 100
1, 31231, Note_on_c, 0, 66, 100
1, 31327, Note_off_c, 0, 66, 100
1, 31327, Note_on_c, 0, 60, 100
1, 31423, Note_off_c, 0, 60, 100
1, 31423, Note_on_c, 0, 64, 100
1, 31519, Note_off_c, 0, 64, 100
1, 31519, Note_on_c, 0, 69, 100
1, 31615, Note_off_c, 0, 69, 100
1, 31615, Note_on_c, 0, 60, 100
1, 31663, Note_off_c, 0, 60, 100
1, 31663, Note_on_c, 0, 64, 100
1, 31759, Note_off_c, 0, 64, 100
1, 31759, Note_on_c, 0, 69, 100
1, 31903, Note_off_c, 0, 69, 100
1, 31903, Note_on_c, 0, 66, 100
1, 31999, Note_off_c, 0, 66, 100
1, 31999, Note_on_c, 0, 62, 100
1, 32047, Note_off_c, 0, 62, 100
1, 32047, Note_on_c, 0, 60, 100
1, 32239, Note_off_c, 0, 60, 100
1, 32239, Note_on_c, 0, 64, 100
1, 32277, Note_off_c, 0, 64, 100
1, 32277, Note_on_c, 0, 69, 100
1, 32392, Note_off_c, 0, 69, 100
1, 32392, Note_on_c, 0, 60, 100
1, 32430, Note_off_c, 0, 60, 100
1, 32430, Note_on_c, 0, 64, 100
1, 32526, Note_off_c, 0, 64, 100
1, 32526, Note_on_c, 0, 66, 100
1, 32574, Note_off_c, 0, 66, 100
1, 32574, Note_on_c, 0, 69, 100
1, 32622, Note_off_c, 0, 69, 100
1, 32622, Note_on_c, 0, 66, 100
1, 32718, Note_off_c, 0, 66, 100
1, 33150, Note_on_c, 0, 62, 100
1, 33198, Note_off_c, 0, 62, 100
1, 33198, Note_on_c, 0, 64, 100
1, 33262, Note_off_c, 0, 64, 100
1, 33262, Note_on_c, 0, 65, 100
1, 33326, Note_off_c, 0, 65, 100
1, 33326, Note_on_c, 0, 68, 100
1, 33390, Note_off_c, 0, 68, 100
1, 33390, Note_on_c, 0, 67, 100
1, 33486, Note_off_c, 0, 67, 100
1, 33486, Note_on_c, 0, 65, 100
1, 33582, Note_off_c, 0, 65, 100
1, 33582, Note_on_c, 0, 64, 100
1, 33630, Note_off_c, 0, 64, 100
1, 33630, Note_on_c, 0, 65, 100
1, 33678, Note_off_c, 0, 65, 100
1, 33678, Note_on_c, 0, 64, 100
1, 33726, Note_off_c, 0, 64, 100
1, 33726, Note_on_c, 0, 62, 100
1, 33774, Note_off_c, 0, 62, 100
1, 33774, Note_on_c, 0, 60, 100
1, 34014, Note_off_c, 0, 60, 100
1, 34014, Note_on_c, 0, 64, 100
1, 34110, Note_off_c, 0, 64, 100
1, 34110, Note_on_c, 0, 67, 100
1, 34206, Note_off_c, 0, 67, 100
1, 34206, Note_on_c, 0, 71, 100
1, 34302, Note_off_c, 0, 71, 100
1, 34302, Note_on_c, 0, 74, 100
1, 34398, Note_off_c, 0, 74, 100
1, 34398, Note_on_c, 0, 71, 100
1, 34494, Note_off_c, 0, 71, 100
1, 34494, Note_on_c, 0, 74, 100
1, 34638, Note_off_c, 0, 74, 100
1, 34638, Note_on_c, 0, 71, 100
1, 34782, Note_off_c, 0, 71, 100
1, 34782, Note_on_c, 0, 71, 100
1, 34926, Note_off_c, 0, 71, 100
1, 34926, Note_on_c, 0, 71, 100
1, 35070, Note_off_c, 0, 71, 100
1, 35070, Note_on_c, 0, 71, 100
1, 35166, Note_off_c, 0, 71, 100
1, 35166, Note_on_c, 0, 69, 100
1, 35262, Note_off_c, 0, 69, 100
1, 35262, Note_on_c, 0, 71, 100
1, 35358, Note_off_c, 0, 71, 100
1, 35358, Note_on_c, 0, 69, 100
1, 35454, Note_off_c, 0, 69, 100
1, 35454, Note_on_c, 0, 66, 100
1, 35598, Note_off_c, 0, 66, 100
1, 35598, Note_on_c, 0, 62, 100
1, 35694, Note_off_c, 0, 62, 100
1, 35694, Note_on_c, 0, 66, 100
1, 35886, Note_off_c, 0, 66, 100
1, 36414, Note_on_c, 0, 63, 100
1, 36462, Note_off_c, 0, 63, 100
1, 36462, Note_on_c, 0, 64, 100
1, 36510, Note_off_c, 0, 64, 100
1, 36510, Note_on_c, 0, 67, 100
1, 36558, Note_off_c, 0, 67, 100
1, 36558, Note_on_c, 0, 65, 100
1, 36606, Note_off_c, 0, 65, 100
1, 36606, Note_on_c, 0, 64, 100
1, 36702, Note_off_c, 0, 64, 100
1, 36702, Note_on_c, 0, 65, 100
1, 36798, Note_off_c, 0, 65, 100
1, 36798, Note_on_c, 0, 67, 100
1, 36942, Note_off_c, 0, 67, 100
1, 36942, Note_on_c, 0, 68, 100
1, 37038, Note_off_c, 0, 68, 100
1, 37038, Note_on_c, 0, 69, 100
1, 37278, Note_off_c, 0, 69, 100
1, 37278, Note_on_c, 0, 72, 100
1, 37374, Note_off_c, 0, 72, 100
1, 37374, Note_on_c, 0, 69, 100
1, 37470, Note_off_c, 0, 69, 100
1, 37470, Note_on_c, 0, 67, 100
1, 37566, Note_off_c, 0, 67, 100
1, 37566, Note_on_c, 0, 64, 100
1, 37662, Note_off_c, 0, 64, 100
1, 37662, Note_on_c, 0, 60, 100
1, 37806, Note_off_c, 0, 60, 100
1, 37806, Note_on_c, 0, 60, 100
1, 37902, Note_off_c, 0, 60, 100
1, 37902, Note_on_c, 0, 62, 100
1, 37998, Note_off_c, 0, 62, 100
1, 37998, Note_on_c, 0, 64, 100
1, 38094, Note_off_c, 0, 64, 100
1, 38094, Note_on_c, 0, 67, 100
1, 38238, Note_off_c, 0, 67, 100
1, 38238, Note_on_c, 0, 71, 100
1, 38334, Note_off_c, 0, 71, 100
1, 38334, Note_on_c, 0, 67, 100
1, 38446, Note_off_c, 0, 67, 100
1, 38446, Note_on_c, 0, 66, 100
1, 38574, Note_off_c, 0, 66, 100
1, 38574, Note_on_c, 0, 62, 100
1, 38702, Note_off_c, 0, 62, 100
1, 38702, Note_on_c, 0, 62, 100
1, 38894, Note_off_c, 0, 62, 100
1, 39678, Note_on_c, 0, 75, 100
1, 39726, Note_off_c, 0, 75, 100
1, 39726, Note_on_c, 0, 76, 100
1, 39774, Note_off_c, 0, 76, 100
1, 39774, Note_on_c, 0, 77, 100
1, 39822, Note_off_c, 0, 77, 100
1, 39822, Note_on_c, 0, 79, 100
1, 39870, Note_off_c, 0, 79, 100
1, 39870, Note_on_c, 0, 83, 100
1, 39918, Note_off_c, 0, 83, 100
1, 39918, Note_on_c, 0, 79, 100
1, 40110, Note_off_c, 0, 79, 100
1, 40350, Note_on_c, 0, 79, 100
1, 40446, Note_off_c, 0, 79, 100
1, 40446, Note_on_c, 0, 72, 100
1, 40686, Note_off_c, 0, 72, 100
1, 40686, Note_on_c, 0, 72, 100
1, 40782, Note_off_c, 0, 72, 100
1, 41070, Note_on_c, 0, 67, 100
1, 41214, Note_off_c, 0, 67, 100
1, 41214, Note_on_c, 0, 60, 100
1, 41406, Note_off_c, 0, 60, 100
1, 41406, Note_on_c, 0, 60, 100
1, 41694, Note_off_c, 0, 60, 100
1, 42366, Note_on_c, 0, 72, 100
1, 42462, Note_off_c, 0, 72, 100
1, 42462, Note_on_c, 0, 75, 100
1, 42558, Note_off_c, 0, 75, 100
1, 42558, Note_on_c, 0, 77, 100
1, 42654, Note_off_c, 0, 77, 100
1, 42654, Note_on_c, 0, 78, 100
1, 42798, Note_off_c, 0, 78, 100
1, 42798, Note_on_c, 0, 86, 100
1, 42846, Note_off_c, 0, 86, 100
1, 42846, Note_on_c, 0, 87, 100
1, 42894, Note_off_c, 0, 87, 100
1, 42894, Note_on_c, 0, 73, 100
1, 42990, Note_off_c, 0, 73, 100
1, 42990, Note_on_c, 0, 73, 100
1, 43086, Note_off_c, 0, 73, 100
1, 43374, Note_on_c, 0, 83, 100
1, 43518, Note_off_c, 0, 83, 100
1, 43518, Note_on_c, 0, 78, 100
1, 43662, Note_off_c, 0, 78, 100
1, 43662, Note_on_c, 0, 74, 100
1, 43806, Note_off_c, 0, 74, 100
1, 43806, Note_on_c, 0, 82, 100
1, 43950, Note_off_c, 0, 82, 100
1, 43950, Note_on_c, 0, 82, 100
1, 44142, Note_off_c, 0, 82, 100
1, 44142, Note_on_c, 0, 81, 100
1, 44238, Note_off_c, 0, 81, 100
1, 44238, Note_on_c, 0, 78, 100
1, 44382, Note_off_c, 0, 78, 100
1, 44382, Note_on_c, 0, 74, 100
1, 44478, Note_off_c, 0, 74, 100
1, 44478, Note_on_c, 0, 70, 100
1, 44564, Note_off_c, 0, 70, 100
1, 44564, Note_on_c, 0, 69, 100
1, 44602, Note_off_c, 0, 69, 100
1, 44602, Note_on_c, 0, 70, 100
1, 44640, Note_off_c, 0, 70, 100
1, 44640, Note_on_c, 0, 69, 100
1, 44678, Note_off_c, 0, 69, 100
1, 44678, Note_on_c, 0, 66, 100
1, 44716, Note_off_c, 0, 66, 100
1, 44716, Note_on_c, 0, 62, 100
1, 44860, Note_off_c, 0, 62, 100
1, 44860, Note_on_c, 0, 66, 100
1, 44956, Note_off_c, 0, 66, 100
1, 44956, Note_on_c, 0, 69, 100
1, 45052, Note_off_c, 0, 69, 100
1, 45052, Note_on_c, 0, 70, 100
1, 45100, Note_off_c, 0, 70, 100
1, 45100, Note_on_c, 0, 71, 100
1, 45196, Note_off_c, 0, 71, 100
1, 45196, Note_on_c, 0, 74, 100
1, 45292, Note_off_c, 0, 74, 100
1, 45292, Note_on_c, 0, 76, 100
1, 45388, Note_off_c, 0, 76, 100
1, 45388, Note_on_c, 0, 77, 100
1, 45484, Note_off_c, 0, 77, 100
1, 45484, Note_on_c, 0, 77, 100
1, 45580, Note_off_c, 0, 77, 100
1, 45580, Note_on_c, 0, 76, 100
1, 45628, Note_off_c, 0, 76, 100
1, 45628, Note_on_c, 0, 74, 100
1, 45676, Note_off_c, 0, 74, 100
1, 45676, Note_on_c, 0, 72, 100
1, 45772, Note_off_c, 0, 72, 100
1, 45772, Note_on_c, 0, 71, 100
1, 45868, Note_off_c, 0, 71, 100
1, 45868, Note_on_c, 0, 70, 100
1, 46012, Note_off_c, 0, 70, 100
1, 46012, Note_on_c, 0, 67, 100
1, 46060, Note_off_c, 0, 67, 100
1, 46060, Note_on_c, 0, 69, 100
1, 46156, Note_off_c, 0, 69, 100
1, 46156, Note_on_c, 0, 67, 100
1, 46316, Note_off_c, 0, 67, 100
1, 46316, Note_on_c, 0, 60, 100
1, 46444, Note_off_c, 0, 60, 100
1, 46444, Note_on_c, 0, 64, 100
1, 46636, Note_off_c, 0, 64, 100
1, 46636, Note_on_c, 0, 60, 100
1, 46828, Note_off_c, 0, 60, 100
1, 46828, Note_on_c, 0, 63, 100
1, 46924, Note_off_c, 0, 63, 100
1, 46924, Note_on_c, 0, 65, 100
1, 46972, Note_off_c, 0, 65, 100
1, 46972, Note_on_c, 0, 63, 100
1, 47020, Note_off_c, 0, 63, 100
1, 47020, Note_on_c, 0, 60, 100
1, 47116, Note_off_c, 0, 60, 100
1, 47116, Note_on_c, 0, 62, 100
1, 47212, Note_off_c, 0, 62, 100
1, 47212, Note_on_c, 0, 63, 100
1, 47308, Note_off_c, 0, 63, 100
1, 47308, Note_on_c, 0, 65, 100
1, 47452, Note_off_c, 0, 65, 100
1, 47452, Note_on_c, 0, 67, 100
1, 47548, Note_off_c, 0, 67, 100
1, 47548, Note_on_c, 0, 75, 100
1, 47596, Note_off_c, 0, 75, 100
1, 47596, Note_on_c, 0, 74, 100
1, 47692, Note_off_c, 0, 74, 100
1, 47692, Note_on_c, 0, 72, 100
1, 47788, Note_off_c, 0, 72, 100
1, 47788, Note_on_c, 0, 71, 100
1, 47884, Note_off_c, 0, 71, 100
1, 47884, Note_on_c, 0, 70, 100
1, 47980, Note_off_c, 0, 70, 100
1, 47980, Note_on_c, 0, 69, 100
1, 48076, Note_off_c, 0, 69, 100
1, 48076, Note_on_c, 0, 67, 100
1, 48220, Note_off_c, 0, 67, 100
1, 48220, Note_on_c, 0, 65, 100
1, 48316, Note_off_c, 0, 65, 100
1, 48316, Note_on_c, 0, 64, 100
1, 48412, Note_off_c, 0, 64, 100
1, 48412, Note_on_c, 0, 63, 100
1, 48508, Note_off_c, 0, 63, 100
1, 48508, Note_on_c, 0, 62, 100
1, 48556, Note_off_c, 0, 62, 100
1, 48556, Note_on_c, 0, 61, 100
1, 48652, Note_off_c, 0, 61, 100
1, 48652, Note_on_c, 0, 65, 100
1, 48748, Note_off_c, 0, 65, 100
1, 48748, Note_on_c, 0, 63, 100
1, 48796, Note_off_c, 0, 63, 100
1, 48796, Note_on_c, 0, 65, 100
1, 48844, Note_off_c, 0, 65, 100
1, 48844, Note_on_c, 0, 63, 100
1, 48892, Note_off_c, 0, 63, 100
1, 48892, Note_on_c, 0, 61, 100
1, 48940, Note_off_c, 0, 61, 100
1, 48940, Note_on_c, 0, 63, 100
1, 49036, Note_off_c, 0, 63, 100
1, 49036, Note_on_c, 0, 65, 100
1, 49180, Note_off_c, 0, 65, 100
1, 49180, Note_on_c, 0, 64, 100
1, 49276, Note_off_c, 0, 64, 100
1, 49660, Note_on_c, 0, 57, 100
1, 49756, Note_off_c, 0, 57, 100
1, 49756, Note_on_c, 0, 60, 100
1, 49804, Note_off_c, 0, 60, 100
1, 49804, Note_on_c, 0, 64, 100
1, 49852, Note_off_c, 0, 64, 100
1, 49852, Note_on_c, 0, 67, 100
1, 49964, Note_off_c, 0, 67, 100
1, 49964, Note_on_c, 0, 66, 100
1, 50091, Note_off_c, 0, 66, 100
1, 50091, Note_on_c, 0, 69, 100
1, 50139, Note_off_c, 0, 69, 100
1, 50139, Note_on_c, 0, 72, 100
1, 50235, Note_off_c, 0, 72, 100
1, 50235, Note_on_c, 0, 74, 100
1, 50331, Note_off_c, 0, 74, 100
1, 50331, Note_on_c, 0, 75, 100
1, 50379, Note_off_c, 0, 75, 100
1, 50379, Note_on_c, 0, 78, 100
1, 50427, Note_off_c, 0, 78, 100
1, 50427, Note_on_c, 0, 75, 100
1, 50475, Note_off_c, 0, 75, 100
1, 50475, Note_on_c, 0, 72, 100
1, 50523, Note_off_c, 0, 72, 100
1, 50523, Note_on_c, 0, 74, 100
1, 50619, Note_off_c, 0, 74, 100
1, 50619, Note_on_c, 0, 71, 100
1, 50763, Note_off_c, 0, 71, 100
1, 50763, Note_on_c, 0, 65, 100
1, 50811, Note_off_c, 0, 65, 100
1, 50811, Note_on_c, 0, 66, 100
1, 51051, Note_off_c, 0, 66, 100
1, 51051, Note_on_c, 0, 62, 100
1, 51243, Note_off_c, 0, 62, 100
1, 51243, Note_on_c, 0, 62, 100
1, 51370, Note_off_c, 0, 62, 100
1, 51370, Note_on_c, 0, 66, 100
1, 51466, Note_off_c, 0, 66, 100
1, 52010, Note_on_c, 0, 76, 100
1, 52202, Note_off_c, 0, 76, 100
1, 52202, Note_on_c, 0, 72, 100
1, 52298, Note_off_c, 0, 72, 100
1, 52586, Note_on_c, 0, 68, 100
1, 52634, Note_off_c, 0, 68, 100
1, 52634, Note_on_c, 0, 69, 100
1, 52730, Note_off_c, 0, 69, 100
1, 52730, Note_on_c, 0, 64, 100
1, 52874, Note_off_c, 0, 64, 100
1, 52874, Note_on_c, 0, 69, 100
1, 53034, Note_off_c, 0, 69, 100
1, 53034, Note_on_c, 0, 74, 100
1, 53162, Note_off_c, 0, 74, 100
1, 53162, Note_on_c, 0, 74, 100
1, 53258, Note_off_c, 0, 74, 100
1, 53546, Note_on_c, 0, 76, 100
1, 53738, Note_off_c, 0, 76, 100
1, 54122, Note_on_c, 0, 68, 100
1, 54160, Note_off_c, 0, 68, 100
1, 54160, Note_on_c, 0, 69, 100
1, 54198, Note_off_c, 0, 69, 100
1, 54198, Note_on_c, 0, 71, 100
1, 54236, Note_off_c, 0, 71, 100
1, 54236, Note_on_c, 0, 69, 100
1, 54274, Note_off_c, 0, 69, 100
1, 54274, Note_on_c, 0, 64, 100
1, 54312, Note_off_c, 0, 64, 100
1, 54312, Note_on_c, 0, 69, 100
1, 54440, Note_off_c, 0, 69, 100
1, 54440, Note_on_c, 0, 74, 100
1, 54696, Note_off_c, 0, 74, 100
1, 54696, Note_on_c, 0, 70, 100
1, 54744, Note_off_c, 0, 70, 100
1, 54744, Note_on_c, 0, 71, 100
1, 54792, Note_off_c, 0, 71, 100
1, 54792, Note_on_c, 0, 70, 100
1, 54840, Note_off_c, 0, 70, 100
1, 54840, Note_on_c, 0, 66, 100
1, 54888, Note_off_c, 0, 66, 100
1, 54888, Note_on_c, 0, 70, 100
1, 55016, Note_off_c, 0, 70, 100
1, 55016, Note_on_c, 0, 72, 100
1, 55272, Note_off_c, 0, 72, 100
1, 55272, Note_on_c, 0, 70, 100
1, 55320, Note_off_c, 0, 70, 100
1, 55320, Note_on_c, 0, 71, 100
1, 55656, Note_off_c, 0, 71, 100
1, 55656, Note_on_c, 0, 69, 100
1, 55704, Note_off_c, 0, 69, 100
1, 55704, Note_on_c, 0, 67, 100
1, 55752, Note_off_c, 0, 67, 100
1, 55752, Note_on_c, 0, 66, 100
1, 56088, Note_off_c, 0, 66, 100
1, 56088, Note_on_c, 0, 70, 100
1, 56184, Note_off_c, 0, 70, 100
1, 56184, Note_on_c, 0, 69, 100
1, 56232, Note_off_c, 0, 69, 100
1, 56232, Note_on_c, 0, 67, 100
1, 56280, Note_off_c, 0, 67, 100
1, 56280, Note_on_c, 0, 66, 100
1, 56472, Note_off_c, 0, 66, 100
1, 56472, Note_on_c, 0, 70, 100
1, 56568, Note_off_c, 0, 70, 100
1, 56568, Note_on_c, 0, 69, 100
1, 56616, Note_off_c, 0, 69, 100
1, 56616, Note_on_c, 0, 67, 100
1, 56664, Note_off_c, 0, 67, 100
1, 56664, Note_on_c, 0, 66, 100
1, 56856, Note_off_c, 0, 66, 100
1, 56856, Note_on_c, 0, 71, 100
1, 56904, Note_off_c, 0, 71, 100
1, 56904, Note_on_c, 0, 69, 100
1, 56952, Note_off_c, 0, 69, 100
1, 56952, Note_on_c, 0, 67, 100
1, 57000, Note_off_c, 0, 67, 100
1, 57000, Note_on_c, 0, 66, 100
1, 57230, Note_off_c, 0, 66, 100
1, 57230, Note_on_c, 0, 71, 100
1, 57306, Note_off_c, 0, 71, 100
1, 57306, Note_on_c, 0, 69, 100
1, 57344, Note_off_c, 0, 69, 100
1, 57344, Note_on_c, 0, 67, 100
1, 57382, Note_off_c, 0, 67, 100
1, 57382, Note_on_c, 0, 66, 100
1, 57526, Note_off_c, 0, 66, 100
1, 57526, Note_on_c, 0, 70, 100
1, 57622, Note_off_c, 0, 70, 100
1, 57958, Note_on_c, 0, 68, 100
1, 58054, Note_off_c, 0, 68, 100
1, 58054, Note_on_c, 0, 72, 100
1, 58198, Note_off_c, 0, 72, 100
1, 58198, Note_on_c, 0, 74, 100
1, 58294, Note_off_c, 0, 74, 100
1, 58294, Note_on_c, 0, 77, 100
1, 58406, Note_off_c, 0, 77, 100
1, 58406, Note_on_c, 0, 76, 100
1, 58534, Note_off_c, 0, 76, 100
1, 58534, Note_on_c, 0, 76, 100
1, 58726, Note_off_c, 0, 76, 100
1, 58726, Note_on_c, 0, 72, 100
1, 58870, Note_off_c, 0, 72, 100
1, 58870, Note_on_c, 0, 67, 100
1, 59062, Note_off_c, 0, 67, 100
1, 59398, Note_on_c, 0, 74, 100
1, 59446, Note_off_c, 0, 74, 100
1, 59446, Note_on_c, 0, 75, 100
1, 59830, Note_off_c, 0, 75, 100
1, 59830, Note_on_c, 0, 72, 100
1, 59926, Note_off_c, 0, 72, 100
1, 59926, Note_on_c, 0, 75, 100
1, 60022, Note_off_c, 0, 75, 100
1, 60022, Note_on_c, 0, 75, 100
1, 60262, Note_off_c, 0, 75, 100
1, 60262, Note_on_c, 0, 74, 100
1, 60406, Note_off_c, 0, 74, 100
1, 60406, Note_on_c, 0, 66, 100
1, 60694, Note_off_c, 0, 66, 100
1, 60934, Note_on_c, 0, 74, 100
1, 61126, Note_off_c, 0, 74, 100
1, 61126, Note_on_c, 0, 74, 100
1, 61318, Note_off_c, 0, 74, 100
1, 61318, Note_on_c, 0, 64, 100
1, 61366, Note_off_c, 0, 64, 100
1, 61366, Note_on_c, 0, 65, 100
1, 61462, Note_off_c, 0, 65, 100
1, 61462, Note_on_c, 0, 73, 100
1, 61510, Note_off_c, 0, 73, 100
1, 61510, Note_on_c, 0, 74, 100
1, 61654, Note_off_c, 0, 74, 100
1, 61654, Note_on_c, 0, 74, 100
1, 61798, Note_off_c, 0, 74, 100
1, 61798, Note_on_c, 0, 72, 100
1, 61990, Note_off_c, 0, 72, 100
1, 61990, Note_on_c, 0, 63, 100
1, 62614, Note_off_c, 0, 63, 100
1, 62614, Note_on_c, 0, 60, 100
1, 62710, Note_off_c, 0, 60, 100
1, 62710, Note_on_c, 0, 62, 100
1, 62758, Note_off_c, 0, 62, 100
1, 62758, Note_on_c, 0, 63, 100
1, 62854, Note_off_c, 0, 63, 100
1, 62854, Note_on_c, 0, 65, 100
1, 62950, Note_off_c, 0, 65, 100
1, 62950, Note_on_c, 0, 62, 100
1, 64198, Note_off_c, 0, 62, 100
1, 64198, Note_on_c, 0, 60, 100
1, 64294, Note_off_c, 0, 60, 100
1, 64294, Note_on_c, 0, 62, 100
1, 64390, Note_off_c, 0, 62, 100
1, 64390, Note_on_c, 0, 69, 100
1, 64486, Note_off_c, 0, 69, 100
1, 64486, Note_on_c, 0, 72, 100
1, 64582, Note_off_c, 0, 72, 100
1, 64582, Note_on_c, 0, 74, 100
1, 64678, Note_off_c, 0, 74, 100
1, 64678, Note_on_c, 0, 81, 100
1, 64774, Note_off_c, 0, 81, 100
1, 64774, Note_on_c, 0, 74, 100
1, 64870, Note_off_c, 0, 74, 100
1, 64870, Note_on_c, 0, 72, 100
1, 64966, Note_off_c, 0, 72, 100
1, 64966, Note_on_c, 0, 69, 100
1, 65062, Note_off_c, 0, 69, 100
1, 65062, Note_on_c, 0, 62, 100
1, 65158, Note_off_c, 0, 62, 100
1, 65158, Note_on_c, 0, 60, 100
1, 65254, Note_off_c, 0, 60, 100
1, 65254, Note_on_c, 0, 62, 100
1, 65398, Note_off_c, 0, 62, 100
1, 65398, Note_on_c, 0, 66, 100
1, 65590, Note_off_c, 0, 66, 100
1, 66166, Note_on_c, 0, 72, 100
1, 66262, Note_off_c, 0, 72, 100
1, 66262, Note_on_c, 0, 74, 100
1, 66310, Note_off_c, 0, 74, 100
1, 66310, Note_on_c, 0, 77, 100
1, 66358, Note_off_c, 0, 77, 100
1, 66358, Note_on_c, 0, 81, 100
1, 66406, Note_off_c, 0, 81, 100
1, 66406, Note_on_c, 0, 78, 100
1, 66502, Note_off_c, 0, 78, 100
1, 66502, Note_on_c, 0, 82, 100
1, 67174, Note_off_c, 0, 82, 100
1, 67174, Note_on_c, 0, 78, 100
1, 67222, Note_off_c, 0, 78, 100
1, 67222, Note_on_c, 0, 79, 100
1, 67270, Note_off_c, 0, 79, 100
1, 67270, Note_on_c, 0, 78, 100
1, 67318, Note_off_c, 0, 78, 100
1, 67318, Note_on_c, 0, 74, 100
1, 67414, Note_off_c, 0, 74, 100
1, 67414, Note_on_c, 0, 78, 100
1, 67510, Note_off_c, 0, 78, 100
1, 67510, Note_on_c, 0, 78, 100
1, 67654, Note_off_c, 0, 78, 100
1, 67654, Note_on_c, 0, 78, 100
1, 67814, Note_off_c, 0, 78, 100
1, 67814, Note_on_c, 0, 74, 100
1, 67942, Note_off_c, 0, 74, 100
1, 67942, Note_on_c, 0, 70, 100
1, 68086, Note_off_c, 0, 70, 100
1, 68086, Note_on_c, 0, 70, 100
1, 68198, Note_off_c, 0, 70, 100
1, 68198, Note_on_c, 0, 66, 100
1, 68326, Note_off_c, 0, 66, 100
1, 68326, Note_on_c, 0, 62, 100
1, 68454, Note_off_c, 0, 62, 100
1, 68454, Note_on_c, 0, 62, 100
1, 68566, Note_off_c, 0, 62, 100
1, 68566, Note_on_c, 0, 58, 100
1, 68998, Note_off_c, 0, 58, 100
1, 68998, Note_on_c, 0, 72, 100
1, 69046, Note_off_c, 0, 72, 100
1, 69046, Note_on_c, 0, 66, 100
1, 69094, Note_off_c, 0, 66, 100
1, 69094, Note_on_c, 0, 70, 100
1, 69142, Note_off_c, 0, 70, 100
1, 69142, Note_on_c, 0, 74, 100
1, 69190, Note_off_c, 0, 74, 100
1, 69190, Note_on_c, 0, 70, 100
1, 69238, Note_off_c, 0, 70, 100
1, 69238, Note_on_c, 0, 74, 100
1, 69286, Note_off_c, 0, 74, 100
1, 69286, Note_on_c, 0, 70, 100
1, 69382, Note_off_c, 0, 70, 100
1, 69382, Note_on_c, 0, 74, 100
1, 69478, Note_off_c, 0, 74, 100
1, 69478, Note_on_c, 0, 70, 100
1, 69670, Note_off_c, 0, 70, 100
1, 69670, Note_on_c, 0, 66, 100
1, 69926, Note_off_c, 0, 66, 100
1, 69926, Note_on_c, 0, 65, 100
1, 70022, Note_off_c, 0, 65, 100
1, 70774, Note_on_c, 0, 67, 100
1, 70822, Note_off_c, 0, 67, 100
1, 70822, Note_on_c, 0, 68, 100
1, 70870, Note_off_c, 0, 68, 100
1, 70870, Note_on_c, 0, 69, 100
1, 70966, Note_off_c, 0, 69, 100
1, 70966, Note_on_c, 0, 71, 100
1, 71062, Note_off_c, 0, 71, 100
1, 71062, Note_on_c, 0, 72, 100
1, 71158, Note_off_c, 0, 72, 100
1, 71158, Note_on_c, 0, 74, 100
1, 71254, Note_off_c, 0, 74, 100
1, 71254, Note_on_c, 0, 76, 100
1, 71350, Note_off_c, 0, 76, 100
1, 71350, Note_on_c, 0, 79, 100
1, 71446, Note_off_c, 0, 79, 100
1, 71446, Note_on_c, 0, 75, 100
1, 71542, Note_off_c, 0, 75, 100
1, 71542, Note_on_c, 0, 79, 100
1, 71590, Note_off_c, 0, 79, 100
1, 71590, Note_on_c, 0, 81, 100
1, 71718, Note_off_c, 0, 81, 100
1, 71718, Note_on_c, 0, 79, 100
1, 71782, Note_off_c, 0, 79, 100
1, 71782, Note_on_c, 0, 80, 100
1, 71830, Note_off_c, 0, 80, 100
1, 71830, Note_on_c, 0, 79, 100
1, 71974, Note_off_c, 0, 79, 100
1, 71974, Note_on_c, 0, 75, 100
1, 72070, Note_off_c, 0, 75, 100
1, 72502, Note_on_c, 0, 73, 100
1, 72550, Note_off_c, 0, 73, 100
1, 72550, Note_on_c, 0, 74, 100
1, 72588, Note_off_c, 0, 74, 100
1, 72588, Note_on_c, 0, 76, 100
1, 72626, Note_off_c, 0, 76, 100
1, 72626, Note_on_c, 0, 77, 100
1, 72664, Note_off_c, 0, 77, 100
1, 72664, Note_on_c, 0, 79, 100
1, 72788, Note_off_c, 0, 79, 100
1, 72788, Note_on_c, 0, 78, 100
1, 72884, Note_off_c, 0, 78, 100
1, 72884, Note_on_c, 0, 77, 100
1, 72980, Note_off_c, 0, 77, 100
1, 72980, Note_on_c, 0, 76, 100
1, 73076, Note_off_c, 0, 76, 100
1, 73076, Note_on_c, 0, 75, 100
1, 73172, Note_off_c, 0, 75, 100
1, 73172, Note_on_c, 0, 74, 100
1, 73268, Note_off_c, 0, 74, 100
1, 73268, Note_on_c, 0, 73, 100
1, 73364, Note_off_c, 0, 73, 100
1, 73364, Note_on_c, 0, 72, 100
1, 73460, Note_off_c, 0, 72, 100
1, 73460, Note_on_c, 0, 71, 100
1, 73556, Note_off_c, 0, 71, 100
1, 73556, Note_on_c, 0, 70, 100
1, 73652, Note_off_c, 0, 70, 100
1, 73652, Note_on_c, 0, 67, 100
1, 73700, Note_off_c, 0, 67, 100
1, 73700, Note_on_c, 0, 68, 100
1, 73796, Note_off_c, 0, 68, 100
1, 73796, Note_on_c, 0, 69, 100
1, 74132, Note_off_c, 0, 69, 100
1, 74132, Note_on_c, 0, 67, 100
1, 74228, Note_off_c, 0, 67, 100
1, 74228, Note_on_c, 0, 64, 100
1, 74276, Note_off_c, 0, 64, 100
1, 74276, Note_on_c, 0, 60, 100
1, 75116, Note_off_c, 0, 60, 100
1, 75116, Note_on_c, 0, 61, 100
1, 75140, Note_off_c, 0, 61, 100
1, 75140, Note_on_c, 0, 62, 100
1, 75164, Note_off_c, 0, 62, 100
1, 75164, Note_on_c, 0, 63, 100
1, 75188, Note_off_c, 0, 63, 100
1, 75188, Note_on_c, 0, 64, 100
1, 75212, Note_off_c, 0, 64, 100
1, 75212, Note_on_c, 0, 67, 100
1, 75236, Note_off_c, 0, 67, 100
1, 75236, Note_on_c, 0, 66, 100
1, 75364, Note_off_c, 0, 66, 100
1, 75364, Note_on_c, 0, 67, 100
1, 75620, Note_off_c, 0, 67, 100
1, 75620, Note_on_c, 0, 67, 100
1, 75908, Note_off_c, 0, 67, 100
1, 75908, Note_on_c, 0, 67, 100
1, 76100, Note_off_c, 0, 67, 100
1, 76484, Note_on_c, 0, 72, 100
1, 76580, Note_off_c, 0, 72, 100
1, 76580, Note_on_c, 0, 76, 100
1, 76676, Note_off_c, 0, 76, 100
1, 76676, Note_on_c, 0, 81, 100
1, 76772, Note_off_c, 0, 81, 100
1, 76772, Note_on_c, 0, 76, 100
1, 76964, Note_off_c, 0, 76, 100
1, 76964, Note_on_c, 0, 76, 100
1, 77156, Note_off_c, 0, 76, 100
1, 77156, Note_on_c, 0, 76, 100
1, 77348, Note_off_c, 0, 76, 100
1, 77348, Note_on_c, 0, 76, 100
1, 77588, Note_off_c, 0, 76, 100
1, 77588, Note_on_c, 0, 77, 100
1, 77972, Note_off_c, 0, 77, 100
1, 77972, Note_on_c, 0, 76, 100
1, 78068, Note_off_c, 0, 76, 100
1, 78068, Note_on_c, 0, 74, 100
1, 78308, Note_off_c, 0, 74, 100
1, 78308, Note_on_c, 0, 76, 100
1, 78404, Note_off_c, 0, 76, 100
1, 78692, Note_on_c, 0, 69, 100
1, 79076, Note_off_c, 0, 69, 100
1, 79076, Note_on_c, 0, 67, 100
1, 79140, Note_off_c, 0, 67, 100
1, 79140, Note_on_c, 0, 72, 100
1, 79204, Note_off_c, 0, 72, 100
1, 79204, Note_on_c, 0, 76, 100
1, 79316, Note_off_c, 0, 76, 100
1, 79316, Note_on_c, 0, 79, 100
1, 79412, Note_off_c, 0, 79, 100
1, 79412, Note_on_c, 0, 78, 100
1, 79508, Note_off_c, 0, 78, 100
1, 79844, Note_on_c, 0, 78, 100
1, 79988, Note_off_c, 0, 78, 100
1, 79988, Note_on_c, 0, 74, 100
1, 80228, Note_off_c, 0, 74, 100
1, 80228, Note_on_c, 0, 66, 100
1, 80660, Note_off_c, 0, 66, 100
1, 80660, Note_on_c, 0, 62, 100
1, 80756, Note_off_c, 0, 62, 100
1, 80756, Note_on_c, 0, 66, 100
1, 80804, Note_off_c, 0, 66, 100
1, 80804, Note_on_c, 0, 70, 100
1, 80996, Note_off_c, 0, 70, 100
1, 80996, Note_on_c, 0, 70, 100
1, 81092, Note_off_c, 0, 70, 100
1, 81380, Note_on_c, 0, 66, 100
1, 81476, Note_off_c, 0, 66, 100
1, 81476, Note_on_c, 0, 62, 100
1, 81636, Note_off_c, 0, 62, 100
1, 81636, Note_on_c, 0, 62, 100
1, 82292, Note_off_c, 0, 62, 100
1, 82292, Note_on_c, 0, 65, 100
1, 82340, Note_off_c, 0, 65, 100
1, 82340, Note_on_c, 0, 70, 100
1, 82436, Note_off_c, 0, 70, 100
1, 82436, Note_on_c, 0, 70, 100
1, 82532, Note_off_c, 0, 70, 100
1, 82820, Note_on_c, 0, 60, 100
1, 82916, Note_off_c, 0, 60, 100
1, 82916, Note_on_c, 0, 69, 100
1, 83396, Note_off_c, 0, 69, 100
1, 83396, Note_on_c, 0, 72, 100
1, 83492, Note_off_c, 0, 72, 100
1, 83492, Note_on_c, 0, 76, 100
1, 83588, Note_off_c, 0, 76, 100
1, 83588, Note_on_c, 0, 81, 100
1, 83780, Note_off_c, 0, 81, 100
1, 83780, Note_on_c, 0, 79, 100
1, 83940, Note_off_c, 0, 79, 100
1, 83940, Note_on_c, 0, 71, 100
1, 84068, Note_off_c, 0, 71, 100
1, 84068, Note_on_c, 0, 66, 100
1, 84404, Note_off_c, 0, 66, 100
1, 84404, Note_on_c, 0, 62, 100
1, 84490, Note_off_c, 0, 62, 100
1, 84490, Note_on_c, 0, 66, 100
1, 84528, Note_off_c, 0, 66, 100
1, 84528, Note_on_c, 0, 69, 100
1, 84566, Note_off_c, 0, 69, 100
1, 84566, Note_on_c, 0, 66, 100
1, 84604, Note_off_c, 0, 66, 100
1, 84604, Note_on_c, 0, 62, 100
1, 84642, Note_off_c, 0, 62, 100
1, 84642, Note_on_c, 0, 66, 100
1, 84738, Note_off_c, 0, 66, 100
1, 84738, Note_on_c, 0, 71, 100
1, 84882, Note_off_c, 0, 71, 100
1, 84882, Note_on_c, 0, 74, 100
1, 84978, Note_off_c, 0, 74, 100
1, 84978, Note_on_c, 0, 76, 100
1, 85026, Note_off_c, 0, 76, 100
1, 85026, Note_on_c, 0, 77, 100
1, 85122, Note_off_c, 0, 77, 100
1, 85122, Note_on_c, 0, 76, 100
1, 85266, Note_off_c, 0, 76, 100
1, 85266, Note_on_c, 0, 75, 100
1, 85362, Note_off_c, 0, 75, 100
1, 85362, Note_on_c, 0, 74, 100
1, 85410, Note_off_c, 0, 74, 100
1, 85410, Note_on_c, 0, 72, 100
1, 85506, Note_off_c, 0, 72, 100
1, 85506, Note_on_c, 0, 71, 100
1, 85650, Note_off_c, 0, 71, 100
1, 85650, Note_on_c, 0, 70, 100
1, 85746, Note_off_c, 0, 70, 100
1, 85746, Note_on_c, 0, 67, 100
1, 85842, Note_off_c, 0, 67, 100
1, 85842, Note_on_c, 0, 68, 100
1, 85938, Note_off_c, 0, 68, 100
1, 85938, Note_on_c, 0, 65, 100
1, 86034, Note_off_c, 0, 65, 100
1, 86034, Note_on_c, 0, 58, 100
1, 86130, Note_off_c, 0, 58, 100
1, 86130, Note_on_c, 0, 55, 100
1, 86226, Note_off_c, 0, 55, 100
1, 86226, Note_on_c, 0, 60, 100
1, 86322, Note_off_c, 0, 60, 100
1, 86322, Note_on_c, 0, 64, 100
1, 86562, Note_off_c, 0, 64, 100
1, 86562, Note_on_c, 0, 67, 100
1, 86658, Note_off_c, 0, 67, 100
1, 86994, Note_on_c, 0, 64, 100
1, 87090, Note_off_c, 0, 64, 100
1, 87090, Note_on_c, 0, 67, 100
1, 87186, Note_off_c, 0, 67, 100
1, 87186, Note_on_c, 0, 66, 100
1, 87282, Note_off_c, 0, 66, 100
1, 87282, Note_on_c, 0, 63, 100
1, 87378, Note_off_c, 0, 63, 100
1, 87378, Note_on_c, 0, 62, 100
1, 87474, Note_off_c, 0, 62, 100
1, 87474, Note_on_c, 0, 60, 100
1, 87522, Note_off_c, 0, 60, 100
1, 87522, Note_on_c, 0, 59, 100
1, 87714, Note_off_c, 0, 59, 100
1, 87714, Note_on_c, 0, 62, 100
1, 87762, Note_off_c, 0, 62, 100
1, 87762, Note_on_c, 0, 64, 100
1, 87858, Note_off_c, 0, 64, 100
1, 87858, Note_on_c, 0, 66, 100
1, 88098, Note_off_c, 0, 66, 100
1, 88098, Note_on_c, 0, 64, 100
1, 88194, Note_off_c, 0, 64, 100
1, 88482, Note_on_c, 0, 59, 100
1, 88578, Note_off_c, 0, 59, 100
1, 88578, Note_on_c, 0, 62, 100
1, 88674, Note_off_c, 0, 62, 100
1, 88674, Note_on_c, 0, 64, 100
1, 88770, Note_off_c, 0, 64, 100
1, 88770, Note_on_c, 0, 66, 100
1, 89058, Note_off_c, 0, 66, 100
1, 89058, Note_on_c, 0, 64, 100
1, 89634, Note_off_c, 0, 64, 100
1, 89634, Note_on_c, 0, 62, 100
1, 89730, Note_off_c, 0, 62, 100
1, 90162, Note_on_c, 0, 57, 100
1, 90402, Note_off_c, 0, 57, 100
1, 90402, Note_on_c, 0, 62, 100
1, 90978, Note_off_c, 0, 62, 100
1, 90978, Note_on_c, 0, 64, 100
1, 91074, Note_off_c, 0, 64, 100
1, 91074, Note_on_c, 0, 62, 100
1, 91314, Note_off_c, 0, 62, 100
1, 91314, Note_on_c, 0, 58, 100
1, 91746, Note_off_c, 0, 58, 100
1, 91746, Note_on_c, 0, 62, 100
1, 91842, Note_off_c, 0, 62, 100
1, 91842, Note_on_c, 0, 64, 100
1, 92130, Note_off_c, 0, 64, 100
1, 92130, Note_on_c, 0, 66, 100
1, 92322, Note_off_c, 0, 66, 100
1, 92322, Note_on_c, 0, 62, 100
1, 92562, Note_off_c, 0, 62, 100
1, 92562, Note_on_c, 0, 69, 100
1, 92658, Note_off_c, 0, 69, 100
1, 92658, Note_on_c, 0, 62, 100
1, 92898, Note_off_c, 0, 62, 100
1, 92898, Note_on_c, 0, 66, 100
1, 93090, Note_off_c, 0, 66, 100
1, 93090, Note_on_c, 0, 62, 100
1, 93330, Note_off_c, 0, 62, 100
1, 93330, Note_on_c, 0, 70, 100
1, 93426, Note_off_c, 0, 70, 100
1, 93426, Note_on_c, 0, 62, 100
1, 93666, Note_off_c, 0, 62, 100
1, 93666, Note_on_c, 0, 66, 100
1, 93762, Note_off_c, 0, 66, 100
1, 94098, Note_on_c, 0, 62, 100
1, 94194, Note_off_c, 0, 62, 100
1, 94194, Note_on_c, 0, 64, 100
1, 94242, Note_off_c, 0, 64, 100
1, 94242, Note_on_c, 0, 66, 100
1, 94338, Note_off_c, 0, 66, 100
1, 94338, Note_on_c, 0, 69, 100
1, 94434, Note_off_c, 0, 69, 100
1, 94434, Note_on_c, 0, 66, 100
1, 94626, Note_off_c, 0, 66, 100
1, 94626, Note_on_c, 0, 66, 100
1, 94754, Note_off_c, 0, 66, 100
1, 94754, Note_on_c, 0, 69, 100
1, 94914, Note_off_c, 0, 69, 100
1, 94914, Note_on_c, 0, 69, 100
1, 95010, Note_off_c, 0, 69, 100
1, 95010, Note_on_c, 0, 65, 100
1, 95106, Note_off_c, 0, 65, 100
1, 95682, Note_on_c, 0, 67, 100
1, 95778, Note_off_c, 0, 67, 100
1, 95778, Note_on_c, 0, 69, 100
1, 95874, Note_off_c, 0, 69, 100
1, 95874, Note_on_c, 0, 72, 100
1, 95970, Note_off_c, 0, 72, 100
1, 95970, Note_on_c, 0, 75, 100
1, 96066, Note_off_c, 0, 75, 100
1, 96066, Note_on_c, 0, 79, 100
1, 96162, Note_off_c, 0, 79, 100
1, 96162, Note_on_c, 0, 84, 100
1, 96258, Note_off_c, 0, 84, 100
1, 96258, Note_on_c, 0, 87, 100
1, 96402, Note_off_c, 0, 87, 100
1, 96402, Note_on_c, 0, 84, 100
1, 96594, Note_off_c, 0, 84, 100
1, 96594, Note_on_c, 0, 79, 100
1, 96690, Note_off_c, 0, 79, 100
1, 96690, Note_on_c, 0, 75, 100
1, 96834, Note_off_c, 0, 75, 100
1, 96834, Note_on_c, 0, 74, 100
1, 96978, Note_off_c, 0, 74, 100
1, 96978, Note_on_c, 0, 71, 100
1, 97074, Note_off_c, 0, 71, 100
1, 97074, Note_on_c, 0, 66, 100
1, 97266, Note_off_c, 0, 66, 100
1, 97602, Note_on_c, 0, 62, 100
1, 97698, Note_off_c, 0, 62, 100
1, 97698, Note_on_c, 0, 65, 100
1, 97746, Note_off_c, 0, 65, 100
1, 97746, Note_on_c, 0, 70, 100
1, 97794, Note_off_c, 0, 70, 100
1, 97794, Note_on_c, 0, 65, 100
1, 97842, Note_off_c, 0, 65, 100
1, 97842, Note_on_c, 0, 62, 100
1, 97938, Note_off_c, 0, 62, 100
1, 97938, Note_on_c, 0, 65, 100
1, 98034, Note_off_c, 0, 65, 100
1, 98034, Note_on_c, 0, 71, 100
1, 98130, Note_off_c, 0, 71, 100
1, 98130, Note_on_c, 0, 74, 100
1, 98226, Note_off_c, 0, 74, 100
1, 98226, Note_on_c, 0, 77, 100
1, 98337, Note_off_c, 0, 77, 100
1, 98337, Note_on_c, 0, 76, 100
1, 98529, Note_off_c, 0, 76, 100
1, 98529, Note_on_c, 0, 67, 100
1, 98801, Note_off_c, 0, 67, 100
1, 98801, Note_on_c, 0, 60, 100
1, 98897, Note_off_c, 0, 60, 100
1, 98897, Note_on_c, 0, 64, 100
1, 98993, Note_off_c, 0, 64, 100
1, 98993, Note_on_c, 0, 67, 100
1, 99041, Note_off_c, 0, 67, 100
1, 99041, Note_on_c, 0, 66, 100
1, 99233, Note_off_c, 0, 66, 100
1, 99233, Note_on_c, 0, 66, 100
1, 99425, Note_off_c, 0, 66, 100
1, 99425, Note_on_c, 0, 69, 100
1, 99617, Note_off_c, 0, 69, 100
1, 99617, Note_on_c, 0, 69, 100
1, 99809, Note_off_c, 0, 69, 100
1, 99809, Note_on_c, 0, 69, 100
1, 99953, Note_off_c, 0, 69, 100
1, 99953, Note_on_c, 0, 67, 100
1, 100193, Note_off_c, 0, 67, 100
1, 100193, Note_on_c, 0, 67, 100
1, 100262, Note_off_c, 0, 67, 100
1, 100262, End_track
0, 0, End_of_file
