0, 0, Header, 1, 1, 192
1, 0, Start_track
1, 0, Title_t, "Melody"
1, 0, Tempo, 517241
1, 0, Key_signature, -3, "major"
1, 0, Time_signature, 4, 2, 24, 8
1, 432, Note_on_c, 0, 48, 100
1, 528, Note_off_c, 0, 48, 100
1, 528, Note_on_c, 0, 53, 100
1, 576, Note_off_c, 0, 53, 100
1, 576, Note_on_c, 0, 55, 100
1, 672, Note_off_c, 0, 55, 100
1, 672, Note_on_c, 0, 60, 100
1, 768, Note_off_c, 0, 60, 100
1, 768, Note_on_c, 0, 65, 100
1, 864, Note_off_c, 0, 65, 100
1, 864, Note_on_c, 0, 67, 100
1, 960, Note_off_c, 0, 67, 100
1, 960, Note_on_c, 0, 65, 100
1, 1024, Note_off_c, 0, 65, 100
1, 1024, Note_on_c, 0, 67, 100
1, 1088, Note_off_c, 0, 67, 100
1, 1088, Note_on_c, 0, 65, 100
1, 1152, Note_off_c, 0, 65, 100
1, 1152, Note_on_c, 0, 63, 100
1, 1248, Note_off_c, 0, 63, 100
1, 1248, Note_on_c, 0, 65, 100
1, 1344, Note_off_c, 0, 65, 100
1, 1344, Note_on_c, 0, 63, 100
1, 1440, Note_off_c, 0, 63, 100
1, 1440, Note_on_c, 0, 65, 100
1, 1488, Note_off_c, 0, 65, 100
1, 1488, Note_on_c, 0, 63, 100
1, 1536, Note_off_c, 0, 63, 100
1, 1536, Note_on_c, 0, 60, 100
1, 1632, Note_off_c, 0, 60, 100
1, 1632, Note_on_c, 0, 58, 100
1, 1728, Note_off_c, 0, 58, 100
1, 1728, Note_on_c, 0, 60, 100
1, 1792, Note_off_c, 0, 60, 100
1, 1792, Note_on_c, 0, 58, 100
1, 1856, Note_off_c, 0, 58, 100
1, 1856, Note_on_c, 0, 60, 100
1, 2016, Note_off_c, 0, 60, 100
1, 2016, Note_on_c, 0, 54, 100
1, 2112, Note_off_c, 0, 54, 100
1, 2112, Note_on_c, 0, 53, 100
1, 2208, Note_off_c, 0, 53, 100
1, 2208, Note_on_c, 0, 51, 100
1, 2368, Note_off_c, 0, 51, 100
1, 2368, Note_on_c, 0, 54, 100
1, 2432, Note_off_c, 0, 54, 100
1, 2432, Note_on_c, 0, 55, 100
1, 2496, Note_off_c, 0, 55, 100
1, 2496, Note_on_c, 0, 58, 100
1, 2880, Note_off_c, 0, 58, 100
1, 2880, Note_on_c, 0, 60, 100
1, 2928, Note_off_c, 0, 60, 100
1, 2928, Note_on_c, 0, 63, 100
1, 2976, Note_off_c, 0, 63, 100
1, 2976, Note_on_c, 0, 66, 100
1, 3024, Note_off_c, 0, 66, 100
1, 3024, Note_on_c, 0, 67, 100
1, 3120, Note_off_c, 0, 67, 100
1, 3360, Note_on_c, 0, 67, 100
1, 3408, Note_off_c, 0, 67, 100
1, 3408, Note_on_c, 0, 65, 100
1, 3504, Note_off_c, 0, 65, 100
1, 3504, Note_on_c, 0, 63, 100
1, 3552, Note_off_c, 0, 63, 100
1, 3552, Note_on_c, 0, 60, 100
1, 3648, Note_off_c, 0, 60, 100
1, 3648, Note_on_c, 0, 60, 100
1, 3936, Note_off_c, 0, 60, 100
1, 3936, Note_on_c, 0, 64, 100
1, 4032, Note_off_c, 0, 64, 100
1, 4032, Note_on_c, 0, 65, 100
1, 4272, Note_off_c, 0, 65, 100
1, 4272, Note_on_c, 0, 63, 100
1, 4320, Note_off_c, 0, 63, 100
1, 4320, Note_on_c, 0, 60, 100
1, 4416, Note_off_c, 0, 60, 100
1, 4416, Note_on_c, 0, 55, 100
1, 4464, Note_off_c, 0, 55, 100
1, 4464, Note_on_c, 0, 56, 100
1, 4560, Note_off_c, 0, 56, 100
1, 4560, Note_on_c, 0, 55, 100
1, 4800, Note_off_c, 0, 55, 100
1, 4800, Note_on_c, 0, 53, 100
1, 4896, Note_off_c, 0, 53, 100
1, 4896, Note_on_c, 0, 56, 100
1, 4992, Note_off_c, 0, 56, 100
1, 4992, Note_on_c, 0, 59, 100
1, 5088, Note_off_c, 0, 59, 100
1, 5088, Note_on_c, 0, 56, 100
1, 5136, Note_off_c, 0, 56, 100
1, 5136, Note_on_c, 0, 55, 100
1, 5184, Note_off_c, 0, 55, 100
1, 5184, Note_on_c, 0, 53, 100
1, 5280, Note_off_c, 0, 53, 100
1, 5280, Note_on_c, 0, 51, 100
1, 5328, Note_off_c, 0, 51, 100
1, 5328, Note_on_c, 0, 60, 100
1, 5376, Note_off_c, 0, 60, 100
1, 5376, Note_on_c, 0, 61, 100
1, 5424, Note_off_c, 0, 61, 100
1, 5424, Note_on_c, 0, 62, 100
1, 5664, Note_off_c, 0, 62, 100
1, 5664, Note_on_c, 0, 60, 100
1, 5712, Note_off_c, 0, 60, 100
1, 5712, Note_on_c, 0, 58, 100
1, 5760, Note_off_c, 0, 58, 100
1, 5760, Note_on_c, 0, 57, 100
1, 5904, Note_off_c, 0, 57, 100
1, 5904, Note_on_c, 0, 60, 100
1, 5952, Note_off_c, 0, 60, 100
1, 5952, Note_on_c, 0, 63, 100
1, 6096, Note_off_c, 0, 63, 100
1, 6096, Note_on_c, 0, 60, 100
1, 6144, Note_off_c, 0, 60, 100
1, 6144, Note_on_c, 0, 66, 100
1, 6192, Note_off_c, 0, 66, 100
1, 6192, Note_on_c, 0, 67, 100
1, 6336, Note_off_c, 0, 67, 100
1, 6336, Note_on_c, 0, 69, 100
1, 6528, Note_off_c, 0, 69, 100
1, 6720, Note_on_c, 0, 60, 100
1, 6816, Note_off_c, 0, 60, 100
1, 6816, Note_on_c, 0, 63, 100
1, 6912, Note_off_c, 0, 63, 100
1, 6912, Note_on_c, 0, 67, 100
1, 7040, Note_off_c, 0, 67, 100
1, 7040, Note_on_c, 0, 65, 100
1, 7104, Note_off_c, 0, 65, 100
1, 7104, Note_on_c, 0, 64, 100
1, 7152, Note_off_c, 0, 64, 100
1, 7152, Note_on_c, 0, 63, 100
1, 7200, Note_off_c, 0, 63, 100
1, 7200, Note_on_c, 0, 62, 100
1, 7248, Note_off_c, 0, 62, 100
1, 7248, Note_on_c, 0, 61, 100
1, 7411, Note_off_c, 0, 61, 100
1, 7411, Note_on_c, 0, 64, 100
1, 7449, Note_off_c, 0, 64, 100
1, 7449, Note_on_c, 0, 65, 100
1, 7487, Note_off_c, 0, 65, 100
1, 7487, Note_on_c, 0, 64, 100
1, 7535, Note_off_c, 0, 64, 100
1, 7535, Note_on_c, 0, 63, 100
1, 7631, Note_off_c, 0, 63, 100
1, 7794, Note_on_c, 0, 64, 100
1, 7832, Note_off_c, 0, 64, 100
1, 7832, Note_on_c, 0, 65, 100
1, 7870, Note_off_c, 0, 65, 100
1, 7870, Note_on_c, 0, 64, 100
1, 8062, Note_off_c, 0, 64, 100
1, 8062, Note_on_c, 0, 66, 100
1, 8126, Note_off_c, 0, 66, 100
1, 8126, Note_on_c, 0, 65, 100
1, 8190, Note_off_c, 0, 65, 100
1, 8190, Note_on_c, 0, 63, 100
1, 8254, Note_off_c, 0, 63, 100
1, 8254, Note_on_c, 0, 60, 100
1, 8398, Note_off_c, 0, 60, 100
1, 8398, Note_on_c, 0, 57, 100
1, 8446, Note_off_c, 0, 57, 100
1, 8446, Note_on_c, 0, 61, 100
1, 8542, Note_off_c, 0, 61, 100
1, 8542, Note_on_c, 0, 62, 100
1, 8782, Note_off_c, 0, 62, 100
1, 8782, Note_on_c, 0, 60, 100
1, 8868, Note_off_c, 0, 60, 100
1, 8868, Note_on_c, 0, 59, 100
1, 8906, Note_off_c, 0, 59, 100
1, 8906, Note_on_c, 0, 62, 100
1, 8944, Note_off_c, 0, 62, 100
1, 8944, Note_on_c, 0, 59, 100
1, 8982, Note_off_c, 0, 59, 100
1, 8982, Note_on_c, 0, 56, 100
1, 9068, Note_off_c, 0, 56, 100
1, 9068, Note_on_c, 0, 55, 100
1, 9164, Note_off_c, 0, 55, 100
1, 9164, Note_on_c, 0, 53, 100
1, 9260, Note_off_c, 0, 53, 100
1, 9260, Note_on_c, 0, 50, 100
1, 9356, Note_off_c, 0, 50, 100
1, 9356, Note_on_c, 0, 51, 100
1, 9468, Note_off_c, 0, 51, 100
1, 9468, Note_on_c, 0, 50, 100
1, 9564, Note_off_c, 0, 50, 100
1, 9788, Note_on_c, 0, 50, 100
1, 9812, Note_off_c, 0, 50, 100
1, 9812, Note_on_c, 0, 51, 100
1, 9860, Note_off_c, 0, 51, 100
1, 9860, Note_on_c, 0, 55, 100
1, 9884, Note_off_c, 0, 55, 100
1, 9884, Note_on_c, 0, 56, 100
1, 9908, Note_off_c, 0, 56, 100
1, 9908, Note_on_c, 0, 58, 100
1, 9932, Note_off_c, 0, 58, 100
1, 9932, Note_on_c, 0, 62, 100
1, 9980, Note_off_c, 0, 62, 100
1, 9980, Note_on_c, 0, 60, 100
1, 10028, Note_off_c, 0, 60, 100
1, 10028, Note_on_c, 0, 58, 100
1, 10076, Note_off_c, 0, 58, 100
1, 10076, Note_on_c, 0, 55, 100
1, 10124, Note_off_c, 0, 55, 100
1, 10124, Note_on_c, 0, 56, 100
1, 10172, Note_off_c, 0, 56, 100
1, 10172, Note_on_c, 0, 57, 100
1, 10268, Note_off_c, 0, 57, 100
1, 10268, Note_on_c, 0, 70, 100
1, 10364, Note_off_c, 0, 70, 100
1, 10364, Note_on_c, 0, 68, 100
1, 10381, Note_off_c, 0, 68, 100
1, 10381, Note_on_c, 0, 67, 100
1, 10398, Note_off_c, 0, 67, 100
1, 10398, Note_on_c, 0, 65, 100
1, 10415, Note_off_c, 0, 65, 100
1, 10415, Note_on_c, 0, 63, 100
1, 10449, Note_off_c, 0, 63, 100
1, 10449, Note_on_c, 0, 60, 100
1, 10466, Note_off_c, 0, 60, 100
1, 10466, Note_on_c, 0, 56, 100
1, 10518, Note_off_c, 0, 56, 100
1, 10518, Note_on_c, 0, 54, 100
1, 10535, Note_off_c, 0, 54, 100
1, 10535, Note_on_c, 0, 51, 100
1, 10600, Note_off_c, 0, 51, 100
1, 10600, Note_on_c, 0, 60, 100
1, 10648, Note_off_c, 0, 60, 100
1, 10648, Note_on_c, 0, 57, 100
1, 10696, Note_off_c, 0, 57, 100
1, 10696, Note_on_c, 0, 58, 100
1, 10744, Note_off_c, 0, 58, 100
1, 10744, Note_on_c, 0, 61, 100
1, 10776, Note_off_c, 0, 61, 100
1, 10776, Note_on_c, 0, 60, 100
1, 10808, Note_off_c, 0, 60, 100
1, 10808, Note_on_c, 0, 61, 100
1, 10840, Note_off_c, 0, 61, 100
1, 10840, Note_on_c, 0, 62, 100
1, 10904, Note_off_c, 0, 62, 100
1, 10904, Note_on_c, 0, 65, 100
1, 11128, Note_off_c, 0, 65, 100
1, 11128, Note_on_c, 0, 68, 100
1, 11192, Note_off_c, 0, 68, 100
1, 11192, Note_on_c, 0, 67, 100
1, 11256, Note_off_c, 0, 67, 100
1, 11256, Note_on_c, 0, 65, 100
1, 11320, Note_off_c, 0, 65, 100
1, 11320, Note_on_c, 0, 67, 100
1, 11448, Note_off_c, 0, 67, 100
1, 11448, Note_on_c, 0, 63, 100
1, 11512, Note_off_c, 0, 63, 100
1, 11512, Note_on_c, 0, 60, 100
1, 11704, Note_off_c, 0, 60, 100
1, 11704, Note_on_c, 0, 60, 100
1, 11992, Note_off_c, 0, 60, 100
1, 11992, Note_on_c, 0, 69, 100
1, 12040, Note_off_c, 0, 69, 100
1, 12040, Note_on_c, 0, 68, 100
1, 12136, Note_off_c, 0, 68, 100
1, 12136, Note_on_c, 0, 67, 100
1, 12184, Note_off_c, 0, 67, 100
1, 12184, Note_on_c, 0, 65, 100
1, 12280, Note_off_c, 0, 65, 100
1, 12280, Note_on_c, 0, 63, 100
1, 12328, Note_off_c, 0, 63, 100
1, 12328, Note_on_c, 0, 59, 100
1, 12376, Note_off_c, 0, 59, 100
1, 12376, Note_on_c, 0, 57, 100
1, 12424, Note_off_c, 0, 57, 100
1, 12424, Note_on_c, 0, 55, 100
1, 12616, Note_off_c, 0, 55, 100
1, 12616, Note_on_c, 0, 63, 100
1, 12760, Note_off_c, 0, 63, 100
1, 12760, Note_on_c, 0, 60, 100
1, 12856, Note_off_c, 0, 60, 100
1, 12856, Note_on_c, 0, 58, 100
1, 12952, Note_off_c, 0, 58, 100
1, 12952, Note_on_c, 0, 57, 100
1, 13144, Note_off_c, 0, 57, 100
1, 13144, Note_on_c, 0, 63, 100
1, 13240, Note_off_c, 0, 63, 100
1, 13240, Note_on_c, 0, 62, 100
1, 13336, Note_off_c, 0, 62, 100
1, 13336, Note_on_c, 0, 60, 100
1, 13496, Note_off_c, 0, 60, 100
1, 13496, Note_on_c, 0, 55, 100
1, 13624, Note_off_c, 0, 55, 100
1, 13624, Note_on_c, 0, 58, 100
1, 13752, Note_off_c, 0, 58, 100
1, 13752, Note_on_c, 0, 57, 100
1, 13912, Note_off_c, 0, 57, 100
1, 13912, Note_on_c, 0, 55, 100
1, 14008, Note_off_c, 0, 55, 100
1, 14008, Note_on_c, 0, 62, 100
1, 14040, Note_off_c, 0, 62, 100
1, 14040, Note_on_c, 0, 62, 100
1, 14072, Note_off_c, 0, 62, 100
1, 14072, Note_on_c, 0, 62, 100
1, 14104, Note_off_c, 0, 62, 100
1, 14104, Note_on_c, 0, 60, 100
1, 14168, Note_off_c, 0, 60, 100
1, 14168, Note_on_c, 0, 63, 100
1, 14264, Note_off_c, 0, 63, 100
1, 14264, Note_on_c, 0, 62, 100
1, 14392, Note_off_c, 0, 62, 100
1, 14392, Note_on_c, 0, 60, 100
1, 14520, Note_off_c, 0, 60, 100
1, 14520, Note_on_c, 0, 56, 100
1, 14632, Note_off_c, 0, 56, 100
1, 14632, Note_on_c, 0, 55, 100
1, 14728, Note_off_c, 0, 55, 100
1, 14728, Note_on_c, 0, 54, 100
1, 14824, Note_off_c, 0, 54, 100
1, 15406, Note_on_c, 0, 62, 100
1, 15433, Note_off_c, 0, 62, 100
1, 15433, Note_on_c, 0, 65, 100
1, 15460, Note_off_c, 0, 65, 100
1, 15460, Note_on_c, 0, 67, 100
1, 15487, Note_off_c, 0, 67, 100
1, 15487, Note_on_c, 0, 68, 100
1, 15514, Note_off_c, 0, 68, 100
1, 15514, Note_on_c, 0, 67, 100
1, 15541, Note_off_c, 0, 67, 100
1, 15541, Note_on_c, 0, 66, 100
1, 15573, Note_off_c, 0, 66, 100
1, 15573, Note_on_c, 0, 65, 100
1, 15605, Note_off_c, 0, 65, 100
1, 15605, Note_on_c, 0, 63, 100
1, 15637, Note_off_c, 0, 63, 100
1, 15637, Note_on_c, 0, 62, 100
1, 15733, Note_off_c, 0, 62, 100
1, 15733, Note_on_c, 0, 65, 100
1, 15781, Note_off_c, 0, 65, 100
1, 15781, Note_on_c, 0, 63, 100
1, 15829, Note_off_c, 0, 63, 100
1, 15829, Note_on_c, 0, 60, 100
1, 15925, Note_off_c, 0, 60, 100
1, 15925, Note_on_c, 0, 60, 100
1, 16021, Note_off_c, 0, 60, 100
1, 16021, Note_on_c, 0, 60, 100
1, 16144, Note_off_c, 0, 60, 100
1, 16144, Note_on_c, 0, 57, 100
1, 16171, Note_off_c, 0, 57, 100
1, 16171, Note_on_c, 0, 60, 100
1, 16198, Note_off_c, 0, 60, 100
1, 16198, Note_on_c, 0, 62, 100
1, 16225, Note_off_c, 0, 62, 100
1, 16225, Note_on_c, 0, 63, 100
1, 16252, Note_off_c, 0, 63, 100
1, 16252, Note_on_c, 0, 62, 100
1, 16279, Note_off_c, 0, 62, 100
1, 16279, Note_on_c, 0, 60, 100
1, 16306, Note_off_c, 0, 60, 100
1, 16306, Note_on_c, 0, 57, 100
1, 16450, Note_off_c, 0, 57, 100
1, 16450, Note_on_c, 0, 62, 100
1, 16498, Note_off_c, 0, 62, 100
1, 16498, Note_on_c, 0, 61, 100
1, 16546, Note_off_c, 0, 61, 100
1, 16546, Note_on_c, 0, 60, 100
1, 16594, Note_off_c, 0, 60, 100
1, 16594, Note_on_c, 0, 58, 100
1, 16690, Note_off_c, 0, 58, 100
1, 16690, Note_on_c, 0, 58, 100
1, 16978, Note_off_c, 0, 58, 100
1, 16978, Note_on_c, 0, 50, 100
1, 17026, Note_off_c, 0, 50, 100
1, 17026, Note_on_c, 0, 54, 100
1, 17074, Note_off_c, 0, 54, 100
1, 17074, Note_on_c, 0, 59, 100
1, 17138, Note_off_c, 0, 59, 100
1, 17138, Note_on_c, 0, 60, 100
1, 17202, Note_off_c, 0, 60, 100
1, 17202, Note_on_c, 0, 62, 100
1, 17266, Note_off_c, 0, 62, 100
1, 17266, Note_on_c, 0, 65, 100
1, 17362, Note_off_c, 0, 65, 100
1, 17362, Note_on_c, 0, 67, 100
1, 17410, Note_off_c, 0, 67, 100
1, 17410, Note_on_c, 0, 68, 100
1, 17506, Note_off_c, 0, 68, 100
1, 17506, Note_on_c, 0, 67, 100
1, 17554, Note_off_c, 0, 67, 100
1, 17554, Note_on_c, 0, 65, 100
1, 17602, Note_off_c, 0, 65, 100
1, 17602, Note_on_c, 0, 63, 100
1, 17650, Note_off_c, 0, 63, 100
1, 17650, Note_on_c, 0, 67, 100
1, 17746, Note_off_c, 0, 67, 100
1, 17746, Note_on_c, 0, 65, 100
1, 17794, Note_off_c, 0, 65, 100
1, 17794, Note_on_c, 0, 63, 100
1, 17890, Note_off_c, 0, 63, 100
1, 17890, Note_on_c, 0, 60, 100
1, 17938, Note_off_c, 0, 60, 100
1, 17938, Note_on_c, 0, 65, 100
1, 17986, Note_off_c, 0, 65, 100
1, 17986, Note_on_c, 0, 63, 100
1, 18082, Note_off_c, 0, 63, 100
1, 18082, Note_on_c, 0, 60, 100
1, 18130, Note_off_c, 0, 60, 100
1, 18130, Note_on_c, 0, 58, 100
1, 18178, Note_off_c, 0, 58, 100
1, 18178, Note_on_c, 0, 63, 100
1, 18274, Note_off_c, 0, 63, 100
1, 18274, Note_on_c, 0, 60, 100
1, 18322, Note_off_c, 0, 60, 100
1, 18322, Note_on_c, 0, 58, 100
1, 18370, Note_off_c, 0, 58, 100
1, 18370, Note_on_c, 0, 55, 100
1, 18466, Note_off_c, 0, 55, 100
1, 18466, Note_on_c, 0, 60, 100
1, 18514, Note_off_c, 0, 60, 100
1, 18514, Note_on_c, 0, 58, 100
1, 18562, Note_off_c, 0, 58, 100
1, 18562, Note_on_c, 0, 55, 100
1, 18610, Note_off_c, 0, 55, 100
1, 18610, Note_on_c, 0, 53, 100
1, 18674, Note_off_c, 0, 53, 100
1, 18674, Note_on_c, 0, 58, 100
1, 18738, Note_off_c, 0, 58, 100
1, 18738, Note_on_c, 0, 55, 100
1, 18802, Note_off_c, 0, 55, 100
1, 18802, Note_on_c, 0, 50, 100
1, 18898, Note_off_c, 0, 50, 100
1, 18898, Note_on_c, 0, 46, 100
1, 18946, Note_off_c, 0, 46, 100
1, 18946, Note_on_c, 0, 50, 100
1, 19042, Note_off_c, 0, 50, 100
1, 19042, Note_on_c, 0, 55, 100
1, 19090, Note_off_c, 0, 55, 100
1, 19090, Note_on_c, 0, 60, 100
1, 19138, Note_off_c, 0, 60, 100
1, 19138, Note_on_c, 0, 62, 100
1, 19262, Note_off_c, 0, 62, 100
1, 19262, Note_on_c, 0, 60, 100
1, 19300, Note_off_c, 0, 60, 100
1, 19300, Note_on_c, 0, 61, 100
1, 19338, Note_off_c, 0, 61, 100
1, 19338, Note_on_c, 0, 62, 100
1, 19376, Note_off_c, 0, 62, 100
1, 19376, Note_on_c, 0, 61, 100
1, 19408, Note_off_c, 0, 61, 100
1, 19408, Note_on_c, 0, 62, 100
1, 19472, Note_off_c, 0, 62, 100
1, 19472, Note_on_c, 0, 60, 100
1, 19504, Note_off_c, 0, 60, 100
1, 19504, Note_on_c, 0, 61, 100
1, 19536, Note_off_c, 0, 61, 100
1, 19536, Note_on_c, 0, 62, 100
1, 19616, Note_off_c, 0, 62, 100
1, 19616, Note_on_c, 0, 62, 100
1, 19712, Note_off_c, 0, 62, 100
1, 19712, Note_on_c, 0, 60, 100
1, 19781, Note_off_c, 0, 60, 100
1, 19781, Note_on_c, 0, 61, 100
1, 19802, Note_off_c, 0, 61, 100
1, 19802, Note_on_c, 0, 62, 100
1, 19866, Note_off_c, 0, 62, 100
1, 19866, Note_on_c, 0, 59, 100
1, 19887, Note_off_c, 0, 59, 100
1, 19887, Note_on_c, 0, 60, 100
1, 19908, Note_off_c, 0, 60, 100
1, 19908, Note_on_c, 0, 61, 100
1, 19929, Note_off_c, 0, 61, 100
1, 19929, Note_on_c, 0, 62, 100
1, 19998, Note_off_c, 0, 62, 100
1, 19998, Note_on_c, 0, 60, 100
1, 20046, Note_off_c, 0, 60, 100
1, 20046, Note_on_c, 0, 61, 100
1, 20094, Note_off_c, 0, 61, 100
1, 20094, Note_on_c, 0, 62, 100
1, 20142, Note_off_c, 0, 62, 100
1, 20142, Note_on_c, 0, 60, 100
1, 20218, Note_off_c, 0, 60, 100
1, 20218, Note_on_c, 0, 58, 100
1, 20256, Note_off_c, 0, 58, 100
1, 20256, Note_on_c, 0, 59, 100
1, 20294, Note_off_c, 0, 59, 100
1, 20294, Note_on_c, 0, 60, 100
1, 20364, Note_off_c, 0, 60, 100
1, 20364, Note_on_c, 0, 58, 100
1, 20396, Note_off_c, 0, 58, 100
1, 20396, Note_on_c, 0, 59, 100
1, 20428, Note_off_c, 0, 59, 100
1, 20428, Note_on_c, 0, 60, 100
1, 20492, Note_off_c, 0, 60, 100
1, 20492, Note_on_c, 0, 58, 100
1, 20684, Note_off_c, 0, 58, 100
1, 20908, Note_on_c, 0, 59, 100
1, 21052, Note_off_c, 0, 59, 100
1, 21052, Note_on_c, 0, 56, 100
1, 21164, Note_off_c, 0, 56, 100
1, 21164, Note_on_c, 0, 55, 100
1, 21292, Note_off_c, 0, 55, 100
1, 21292, Note_on_c, 0, 53, 100
1, 21388, Note_off_c, 0, 53, 100
1, 21388, Note_on_c, 0, 60, 100
1, 21436, Note_off_c, 0, 60, 100
1, 21436, Note_on_c, 0, 61, 100
1, 21484, Note_off_c, 0, 61, 100
1, 21484, Note_on_c, 0, 62, 100
1, 21548, Note_off_c, 0, 62, 100
1, 21548, Note_on_c, 0, 60, 100
1, 21580, Note_off_c, 0, 60, 100
1, 21580, Note_on_c, 0, 61, 100
1, 21612, Note_off_c, 0, 61, 100
1, 21612, Note_on_c, 0, 62, 100
1, 21644, Note_off_c, 0, 62, 100
1, 21644, Note_on_c, 0, 63, 100
1, 21676, Note_off_c, 0, 63, 100
1, 21676, Note_on_c, 0, 60, 100
1, 21708, Note_off_c, 0, 60, 100
1, 21708, Note_on_c, 0, 61, 100
1, 21740, Note_off_c, 0, 61, 100
1, 21740, Note_on_c, 0, 62, 100
1, 21804, Note_off_c, 0, 62, 100
1, 21804, Note_on_c, 0, 60, 100
1, 21836, Note_off_c, 0, 60, 100
1, 21836, Note_on_c, 0, 61, 100
1, 21868, Note_off_c, 0, 61, 100
1, 21868, Note_on_c, 0, 62, 100
1, 21916, Note_off_c, 0, 62, 100
1, 21916, Note_on_c, 0, 60, 100
1, 21964, Note_off_c, 0, 60, 100
1, 21964, Note_on_c, 0, 61, 100
1, 22012, Note_off_c, 0, 61, 100
1, 22012, Note_on_c, 0, 62, 100
1, 22060, Note_off_c, 0, 62, 100
1, 22060, Note_on_c, 0, 60, 100
1, 22156, Note_off_c, 0, 60, 100
1, 22636, Note_on_c, 0, 60, 100
1, 22684, Note_off_c, 0, 60, 100
1, 22684, Note_on_c, 0, 61, 100
1, 22732, Note_off_c, 0, 61, 100
1, 22732, Note_on_c, 0, 65, 100
1, 22780, Note_off_c, 0, 65, 100
1, 22780, Note_on_c, 0, 70, 100
1, 22876, Note_off_c, 0, 70, 100
1, 23164, Note_on_c, 0, 72, 100
1, 23260, Note_off_c, 0, 72, 100
1, 23260, Note_on_c, 0, 66, 100
1, 23356, Note_off_c, 0, 66, 100
1, 23356, Note_on_c, 0, 65, 100
1, 23404, Note_off_c, 0, 65, 100
1, 23404, Note_on_c, 0, 63, 100
1, 23596, Note_off_c, 0, 63, 100
1, 23596, Note_on_c, 0, 65, 100
1, 23724, Note_off_c, 0, 65, 100
1, 23724, Note_on_c, 0, 67, 100
1, 23812, Note_off_c, 0, 67, 100
1, 23812, Note_on_c, 0, 63, 100
1, 23932, Note_off_c, 0, 63, 100
1, 23932, Note_on_c, 0, 61, 100
1, 23956, Note_off_c, 0, 61, 100
1, 23956, Note_on_c, 0, 60, 100
1, 24124, Note_off_c, 0, 60, 100
1, 24124, Note_on_c, 0, 67, 100
1, 24220, Note_off_c, 0, 67, 100
1, 24220, Note_on_c, 0, 72, 100
1, 24316, Note_off_c, 0, 72, 100
1, 24316, Note_on_c, 0, 72, 100
1, 24364, Note_off_c, 0, 72, 100
1, 24364, Note_on_c, 0, 72, 100
1, 24460, Note_off_c, 0, 72, 100
1, 24460, Note_on_c, 0, 72, 100
1, 24652, Note_off_c, 0, 72, 100
1, 24652, Note_on_c, 0, 72, 100
1, 24892, Note_off_c, 0, 72, 100
1, 24892, Note_on_c, 0, 72, 100
1, 24940, Note_off_c, 0, 72, 100
1, 24940, Note_on_c, 0, 71, 100
1, 24978, Note_off_c, 0, 71, 100
1, 24978, Note_on_c, 0, 70, 100
1, 25016, Note_off_c, 0, 70, 100
1, 25016, Note_on_c, 0, 69, 100
1, 25054, Note_off_c, 0, 69, 100
1, 25054, Note_on_c, 0, 68, 100
1, 25092, Note_off_c, 0, 68, 100
1, 25092, Note_on_c, 0, 67, 100
1, 25188, Note_off_c, 0, 67, 100
1, 25418, Note_on_c, 0, 77, 100
1, 25450, Note_off_c, 0, 77, 100
1, 25450, Note_on_c, 0, 78, 100
1, 25482, Note_off_c, 0, 78, 100
1, 25482, Note_on_c, 0, 77, 100
1, 25610, Note_off_c, 0, 77, 100
1, 25610, Note_on_c, 0, 73, 100
1, 25658, Note_off_c, 0, 73, 100
1, 25658, Note_on_c, 0, 72, 100
1, 25706, Note_off_c, 0, 72, 100
1, 25706, Note_on_c, 0, 72, 100
1, 25850, Note_off_c, 0, 72, 100
1, 25850, Note_on_c, 0, 72, 100
1, 25994, Note_off_c, 0, 72, 100
1, 25994, Note_on_c, 0, 69, 100
1, 26090, Note_off_c, 0, 69, 100
1, 26090, Note_on_c, 0, 65, 100
1, 26138, Note_off_c, 0, 65, 100
1, 26138, Note_on_c, 0, 66, 100
1, 26186, Note_off_c, 0, 66, 100
1, 26186, Note_on_c, 0, 65, 100
1, 26282, Note_off_c, 0, 65, 100
1, 26282, Note_on_c, 0, 63, 100
1, 26506, Note_off_c, 0, 63, 100
1, 26506, Note_on_c, 0, 60, 100
1, 26538, Note_off_c, 0, 60, 100
1, 26538, Note_on_c, 0, 63, 100
1, 26570, Note_off_c, 0, 63, 100
1, 26570, Note_on_c, 0, 65, 100
1, 26602, Note_off_c, 0, 65, 100
1, 26602, Note_on_c, 0, 67, 100
1, 26634, Note_off_c, 0, 67, 100
1, 26634, Note_on_c, 0, 65, 100
1, 26666, Note_off_c, 0, 65, 100
1, 26666, Note_on_c, 0, 63, 100
1, 26693, Note_off_c, 0, 63, 100
1, 26693, Note_on_c, 0, 62, 100
1, 26720, Note_off_c, 0, 62, 100
1, 26720, Note_on_c, 0, 57, 100
1, 26774, Note_off_c, 0, 57, 100
1, 26774, Note_on_c, 0, 60, 100
1, 26801, Note_off_c, 0, 60, 100
1, 26801, Note_on_c, 0, 62, 100
1, 26999, Note_off_c, 0, 62, 100
1, 26999, Note_on_c, 0, 61, 100
1, 27071, Note_off_c, 0, 61, 100
1, 27071, Note_on_c, 0, 60, 100
1, 27095, Note_off_c, 0, 60, 100
1, 27095, Note_on_c, 0, 62, 100
1, 27143, Note_off_c, 0, 62, 100
1, 27143, Note_on_c, 0, 56, 100
1, 27167, Note_off_c, 0, 56, 100
1, 27167, Note_on_c, 0, 55, 100
1, 27191, Note_off_c, 0, 55, 100
1, 27191, Note_on_c, 0, 52, 100
1, 27215, Note_off_c, 0, 52, 100
1, 27215, Note_on_c, 0, 54, 100
1, 27239, Note_off_c, 0, 54, 100
1, 27239, Note_on_c, 0, 56, 100
1, 27287, Note_off_c, 0, 56, 100
1, 27287, Note_on_c, 0, 58, 100
1, 27431, Note_off_c, 0, 58, 100
1, 27431, Note_on_c, 0, 53, 100
1, 27458, Note_off_c, 0, 53, 100
1, 27458, Note_on_c, 0, 57, 100
1, 27485, Note_off_c, 0, 57, 100
1, 27485, Note_on_c, 0, 60, 100
1, 27512, Note_off_c, 0, 60, 100
1, 27512, Note_on_c, 0, 62, 100
1, 27539, Note_off_c, 0, 62, 100
1, 27539, Note_on_c, 0, 65, 100
1, 27566, Note_off_c, 0, 65, 100
1, 27566, Note_on_c, 0, 68, 100
1, 27662, Note_off_c, 0, 68, 100
1, 27812, Note_on_c, 0, 65, 100
1, 28004, Note_off_c, 0, 65, 100
1, 28004, Note_on_c, 0, 66, 100
1, 28042, Note_off_c, 0, 66, 100
1, 28042, Note_on_c, 0, 67, 100
1, 28080, Note_off_c, 0, 67, 100
1, 28080, Note_on_c, 0, 67, 100
1, 28195, Note_off_c, 0, 67, 100
1, 28195, Note_on_c, 0, 70, 100
1, 28291, Note_off_c, 0, 70, 100
1, 28291, Note_on_c, 0, 67, 100
1, 28451, Note_off_c, 0, 67, 100
1, 28451, Note_on_c, 0, 67, 100
1, 28579, Note_off_c, 0, 67, 100
1, 28579, Note_on_c, 0, 67, 100
1, 28707, Note_off_c, 0, 67, 100
1, 28707, Note_on_c, 0, 65, 100
1, 28771, Note_off_c, 0, 65, 100
1, 28771, Note_on_c, 0, 67, 100
1, 28819, Note_off_c, 0, 67, 100
1, 28819, Note_on_c, 0, 67, 100
1, 28867, Note_off_c, 0, 67, 100
1, 28867, Note_on_c, 0, 67, 100
1, 28915, Note_off_c, 0, 67, 100
1, 28915, Note_on_c, 0, 67, 100
1, 28963, Note_off_c, 0, 67, 100
1, 28963, Note_on_c, 0, 70, 100
1, 29001, Note_off_c, 0, 70, 100
1, 29001, Note_on_c, 0, 71, 100
1, 29116, Note_off_c, 0, 71, 100
1, 29116, Note_on_c, 0, 67, 100
1, 29250, Note_off_c, 0, 67, 100
1, 29250, Note_on_c, 0, 67, 100
1, 29384, Note_off_c, 0, 67, 100
1, 29384, Note_on_c, 0, 65, 100
1, 29422, Note_off_c, 0, 65, 100
1, 29422, Note_on_c, 0, 66, 100
1, 29498, Note_off_c, 0, 66, 100
1, 29498, Note_on_c, 0, 65, 100
1, 29536, Note_off_c, 0, 65, 100
1, 29536, Note_on_c, 0, 63, 100
1, 29600, Note_off_c, 0, 63, 100
1, 29600, Note_on_c, 0, 60, 100
1, 29664, Note_off_c, 0, 60, 100
1, 29664, Note_on_c, 0, 58, 100
1, 29728, Note_off_c, 0, 58, 100
1, 29728, Note_on_c, 0, 54, 100
1, 29766, Note_off_c, 0, 54, 100
1, 29766, Note_on_c, 0, 55, 100
1, 29804, Note_off_c, 0, 55, 100
1, 29804, Note_on_c, 0, 53, 100
1, 29880, Note_off_c, 0, 53, 100
1, 29880, Note_on_c, 0, 50, 100
1, 29918, Note_off_c, 0, 50, 100
1, 29918, Note_on_c, 0, 44, 100
1, 30046, Note_off_c, 0, 44, 100
1, 30046, Note_on_c, 0, 53, 100
1, 30110, Note_off_c, 0, 53, 100
1, 30110, Note_on_c, 0, 58, 100
1, 30174, Note_off_c, 0, 58, 100
1, 30174, Note_on_c, 0, 55, 100
1, 30238, Note_off_c, 0, 55, 100
1, 30238, Note_on_c, 0, 51, 100
1, 30302, Note_off_c, 0, 51, 100
1, 30302, Note_on_c, 0, 55, 100
1, 30366, Note_off_c, 0, 55, 100
1, 30366, Note_on_c, 0, 63, 100
1, 30430, Note_off_c, 0, 63, 100
1, 30430, Note_on_c, 0, 60, 100
1, 30570, Note_off_c, 0, 60, 100
1, 30570, Note_on_c, 0, 60, 100
1, 30608, Note_off_c, 0, 60, 100
1, 30608, Note_on_c, 0, 66, 100
1, 30646, Note_off_c, 0, 66, 100
1, 30646, Note_on_c, 0, 65, 100
1, 30684, Note_off_c, 0, 65, 100
1, 30684, Note_on_c, 0, 62, 100
1, 30780, Note_off_c, 0, 62, 100
1, 30780, Note_on_c, 0, 58, 100
1, 30828, Note_off_c, 0, 58, 100
1, 30828, Note_on_c, 0, 62, 100
1, 30876, Note_off_c, 0, 62, 100
1, 30876, Note_on_c, 0, 67, 100
1, 30900, Note_off_c, 0, 67, 100
1, 30900, Note_on_c, 0, 68, 100
1, 30972, Note_off_c, 0, 68, 100
1, 30972, Note_on_c, 0, 67, 100
1, 31044, Note_off_c, 0, 67, 100
1, 31044, Note_on_c, 0, 62, 100
1, 31068, Note_off_c, 0, 62, 100
1, 31068, Note_on_c, 0, 67, 100
1, 31260, Note_off_c, 0, 67, 100
1, 31260, Note_on_c, 0, 60, 100
1, 31388, Note_off_c, 0, 60, 100
1, 31388, Note_on_c, 0, 63, 100
1, 31516, Note_off_c, 0, 63, 100
1, 31516, Note_on_c, 0, 63, 100
1, 31692, Note_off_c, 0, 63, 100
1, 31692, Note_on_c, 0, 60, 100
1, 31740, Note_off_c, 0, 60, 100
1, 31740, Note_on_c, 0, 63, 100
1, 31788, Note_off_c, 0, 63, 100
1, 31788, Note_on_c, 0, 60, 100
1, 31836, Note_off_c, 0, 60, 100
1, 31836, Note_on_c, 0, 63, 100
1, 31980, Note_off_c, 0, 63, 100
1, 31980, Note_on_c, 0, 65, 100
1, 32044, Note_off_c, 0, 65, 100
1, 32044, Note_on_c, 0, 64, 100
1, 32060, Note_off_c, 0, 64, 100
1, 32060, Note_on_c, 0, 63, 100
1, 32076, Note_off_c, 0, 63, 100
1, 32076, Note_on_c, 0, 62, 100
1, 32108, Note_off_c, 0, 62, 100
1, 32108, Note_on_c, 0, 60, 100
1, 32124, Note_off_c, 0, 60, 100
1, 32124, Note_on_c, 0, 56, 100
1, 32172, Note_off_c, 0, 56, 100
1, 32172, Note_on_c, 0, 54, 100
1, 32204, Note_off_c, 0, 54, 100
1, 32204, Note_on_c, 0, 55, 100
1, 32364, Note_off_c, 0, 55, 100
1, 32364, Note_on_c, 0, 64, 100
1, 32388, Note_off_c, 0, 64, 100
1, 32388, Note_on_c, 0, 65, 100
1, 32460, Note_off_c, 0, 65, 100
1, 32460, Note_on_c, 0, 63, 100
1, 32556, Note_off_c, 0, 63, 100
1, 32556, Note_on_c, 0, 60, 100
1, 32652, Note_off_c, 0, 60, 100
1, 32652, Note_on_c, 0, 58, 100
1, 32748, Note_off_c, 0, 58, 100
1, 32748, Note_on_c, 0, 55, 100
1, 32796, Note_off_c, 0, 55, 100
1, 32796, Note_on_c, 0, 56, 100
1, 32823, Note_off_c, 0, 56, 100
1, 32823, Note_on_c, 0, 54, 100
1, 32960, Note_off_c, 0, 54, 100
1, 32960, Note_on_c, 0, 51, 100
1, 33025, Note_off_c, 0, 51, 100
1, 33025, Note_on_c, 0, 54, 100
1, 33063, Note_off_c, 0, 54, 100
1, 33063, Note_on_c, 0, 55, 100
1, 33139, Note_off_c, 0, 55, 100
1, 33139, Note_on_c, 0, 58, 100
1, 33177, Note_off_c, 0, 58, 100
1, 33177, Note_on_c, 0, 55, 100
1, 33321, Note_off_c, 0, 55, 100
1, 33321, Note_on_c, 0, 55, 100
1, 33465, Note_off_c, 0, 55, 100
1, 33465, Note_on_c, 0, 55, 100
1, 33513, Note_off_c, 0, 55, 100
1, 33513, Note_on_c, 0, 60, 100
1, 33609, Note_off_c, 0, 60, 100
1, 33609, Note_on_c, 0, 63, 100
1, 33657, Note_off_c, 0, 63, 100
1, 33657, Note_on_c, 0, 55, 100
1, 33705, Note_off_c, 0, 55, 100
1, 33705, Note_on_c, 0, 58, 100
1, 33753, Note_off_c, 0, 58, 100
1, 33753, Note_on_c, 0, 60, 100
1, 34060, Note_off_c, 0, 60, 100
1, 34060, Note_on_c, 0, 56, 100
1, 34098, Note_off_c, 0, 56, 100
1, 34098, Note_on_c, 0, 57, 100
1, 34194, Note_off_c, 0, 57, 100
1, 34472, Note_on_c, 0, 60, 100
1, 34520, Note_off_c, 0, 60, 100
1, 34520, Note_on_c, 0, 63, 100
1, 34856, Note_off_c, 0, 63, 100
1, 34856, Note_on_c, 0, 60, 100
1, 34904, Note_off_c, 0, 60, 100
1, 34904, Note_on_c, 0, 59, 100
1, 35048, Note_off_c, 0, 59, 100
1, 35048, Note_on_c, 0, 63, 100
1, 35096, Note_off_c, 0, 63, 100
1, 35096, Note_on_c, 0, 65, 100
1, 35192, Note_off_c, 0, 65, 100
1, 35192, Note_on_c, 0, 63, 100
1, 35240, Note_off_c, 0, 63, 100
1, 35240, Note_on_c, 0, 65, 100
1, 35288, Note_off_c, 0, 65, 100
1, 35288, Note_on_c, 0, 63, 100
1, 35384, Note_off_c, 0, 63, 100
1, 35384, Note_on_c, 0, 65, 100
1, 35432, Note_off_c, 0, 65, 100
1, 35432, Note_on_c, 0, 63, 100
1, 35480, Note_off_c, 0, 63, 100
1, 35480, Note_on_c, 0, 66, 100
1, 35528, Note_off_c, 0, 66, 100
1, 35528, Note_on_c, 0, 67, 100
1, 35704, Note_off_c, 0, 67, 100
1, 35704, Note_on_c, 0, 66, 100
1, 35736, Note_off_c, 0, 66, 100
1, 35736, Note_on_c, 0, 65, 100
1, 35768, Note_off_c, 0, 65, 100
1, 35768, Note_on_c, 0, 64, 100
1, 35800, Note_off_c, 0, 64, 100
1, 35800, Note_on_c, 0, 63, 100
1, 35902, Note_off_c, 0, 63, 100
1, 35902, Note_on_c, 0, 60, 100
1, 35940, Note_off_c, 0, 60, 100
1, 35940, Note_on_c, 0, 58, 100
1, 36016, Note_off_c, 0, 58, 100
1, 36016, Note_on_c, 0, 60, 100
1, 36304, Note_off_c, 0, 60, 100
1, 36515, Note_on_c, 0, 59, 100
1, 36553, Note_off_c, 0, 59, 100
1, 36553, Note_on_c, 0, 60, 100
1, 36591, Note_off_c, 0, 60, 100
1, 36591, Note_on_c, 0, 60, 100
1, 36629, Note_off_c, 0, 60, 100
1, 36629, Note_on_c, 0, 60, 100
1, 36693, Note_off_c, 0, 60, 100
1, 36693, Note_on_c, 0, 64, 100
1, 36757, Note_off_c, 0, 64, 100
1, 36757, Note_on_c, 0, 67, 100
1, 36853, Note_off_c, 0, 67, 100
1, 37013, Note_on_c, 0, 70, 100
1, 37205, Note_off_c, 0, 70, 100
1, 37205, Note_on_c, 0, 67, 100
1, 37333, Note_off_c, 0, 67, 100
1, 37333, Note_on_c, 0, 65, 100
1, 37397, Note_off_c, 0, 65, 100
1, 37397, Note_on_c, 0, 63, 100
1, 37493, Note_off_c, 0, 63, 100
1, 37493, Note_on_c, 0, 60, 100
1, 37589, Note_off_c, 0, 60, 100
1, 37589, Note_on_c, 0, 60, 100
1, 37637, Note_off_c, 0, 60, 100
1, 37637, Note_on_c, 0, 61, 100
1, 37685, Note_off_c, 0, 61, 100
1, 37685, Note_on_c, 0, 62, 100
1, 37877, Note_off_c, 0, 62, 100
1, 37877, Note_on_c, 0, 63, 100
1, 37925, Note_off_c, 0, 63, 100
1, 37925, Note_on_c, 0, 62, 100
1, 37973, Note_off_c, 0, 62, 100
1, 37973, Note_on_c, 0, 60, 100
1, 38069, Note_off_c, 0, 60, 100
1, 38069, Note_on_c, 0, 57, 100
1, 38165, Note_off_c, 0, 57, 100
1, 38165, Note_on_c, 0, 58, 100
1, 38293, Note_off_c, 0, 58, 100
1, 38293, Note_on_c, 0, 55, 100
1, 38389, Note_off_c, 0, 55, 100
1, 38645, Note_on_c, 0, 55, 100
1, 38693, Note_off_c, 0, 55, 100
1, 38693, Note_on_c, 0, 56, 100
1, 38741, Note_off_c, 0, 56, 100
1, 38741, Note_on_c, 0, 56, 100
1, 38817, Note_off_c, 0, 56, 100
1, 38817, Note_on_c, 0, 56, 100
1, 38855, Note_off_c, 0, 56, 100
1, 38855, Note_on_c, 0, 55, 100
1, 38893, Note_off_c, 0, 55, 100
1, 38893, Note_on_c, 0, 56, 100
1, 38931, Note_off_c, 0, 56, 100
1, 38931, Note_on_c, 0, 57, 100
1, 39123, Note_off_c, 0, 57, 100
1, 39123, Note_on_c, 0, 58, 100
1, 39315, Note_off_c, 0, 58, 100
1, 39315, Note_on_c, 0, 59, 100
1, 39379, Note_off_c, 0, 59, 100
1, 39379, Note_on_c, 0, 56, 100
1, 39411, Note_off_c, 0, 56, 100
1, 39411, Note_on_c, 0, 60, 100
1, 39443, Note_off_c, 0, 60, 100
1, 39443, Note_on_c, 0, 56, 100
1, 39475, Note_off_c, 0, 56, 100
1, 39475, Note_on_c, 0, 61, 100
1, 39555, Note_off_c, 0, 61, 100
1, 39555, Note_on_c, 0, 58, 100
1, 39603, Note_off_c, 0, 58, 100
1, 39603, Note_on_c, 0, 62, 100
1, 39651, Note_off_c, 0, 62, 100
1, 39651, Note_on_c, 0, 60, 100
1, 39699, Note_off_c, 0, 60, 100
1, 39699, Note_on_c, 0, 63, 100
1, 39747, Note_off_c, 0, 63, 100
1, 39747, Note_on_c, 0, 61, 100
1, 39795, Note_off_c, 0, 61, 100
1, 39795, Note_on_c, 0, 64, 100
1, 39843, Note_off_c, 0, 64, 100
1, 39843, Note_on_c, 0, 61, 100
1, 39891, Note_off_c, 0, 61, 100
1, 39891, Note_on_c, 0, 66, 100
1, 39939, Note_off_c, 0, 66, 100
1, 39939, Note_on_c, 0, 67, 100
1, 39987, Note_off_c, 0, 67, 100
1, 39987, Note_on_c, 0, 67, 100
1, 40035, Note_off_c, 0, 67, 100
1, 40035, Note_on_c, 0, 67, 100
1, 40227, Note_off_c, 0, 67, 100
1, 40227, Note_on_c, 0, 67, 100
1, 40275, Note_off_c, 0, 67, 100
1, 40275, Note_on_c, 0, 72, 100
1, 40371, Note_off_c, 0, 72, 100
1, 40371, Note_on_c, 0, 68, 100
1, 40419, Note_off_c, 0, 68, 100
1, 40419, Note_on_c, 0, 67, 100
1, 40515, Note_off_c, 0, 67, 100
1, 40697, Note_on_c, 0, 65, 100
1, 40735, Note_off_c, 0, 65, 100
1, 40735, Note_on_c, 0, 65, 100
1, 40773, Note_off_c, 0, 65, 100
1, 40773, Note_on_c, 0, 65, 100
1, 40945, Note_off_c, 0, 65, 100
1, 40945, Note_on_c, 0, 66, 100
1, 40993, Note_off_c, 0, 66, 100
1, 40993, Note_on_c, 0, 67, 100
1, 41041, Note_off_c, 0, 67, 100
1, 41041, Note_on_c, 0, 63, 100
1, 41185, Note_off_c, 0, 63, 100
1, 41185, Note_on_c, 0, 61, 100
1, 41233, Note_off_c, 0, 61, 100
1, 41233, Note_on_c, 0, 60, 100
1, 41425, Note_off_c, 0, 60, 100
1, 41425, Note_on_c, 0, 65, 100
1, 41521, Note_off_c, 0, 65, 100
1, 41521, Note_on_c, 0, 63, 100
1, 41569, Note_off_c, 0, 63, 100
1, 41569, Note_on_c, 0, 65, 100
1, 41617, Note_off_c, 0, 65, 100
1, 41617, Note_on_c, 0, 63, 100
1, 41713, Note_off_c, 0, 63, 100
1, 41713, Note_on_c, 0, 67, 100
1, 42673, Note_off_c, 0, 67, 100
1, 42673, Note_on_c, 0, 67, 100
1, 42721, Note_off_c, 0, 67, 100
1, 42721, Note_on_c, 0, 70, 100
1, 42790, Note_off_c, 0, 70, 100
1, 42790, Note_on_c, 0, 72, 100
1, 42854, Note_off_c, 0, 72, 100
1, 42854, Note_on_c, 0, 72, 100
1, 42917, Note_off_c, 0, 72, 100
1, 42917, Note_on_c, 0, 71, 100
1, 42938, Note_off_c, 0, 71, 100
1, 42938, Note_on_c, 0, 70, 100
1, 43007, Note_off_c, 0, 70, 100
1, 43007, Note_on_c, 0, 72, 100
1, 43103, Note_off_c, 0, 72, 100
1, 43103, Note_on_c, 0, 70, 100
1, 43151, Note_off_c, 0, 70, 100
1, 43151, Note_on_c, 0, 68, 100
1, 43199, Note_off_c, 0, 68, 100
1, 43199, Note_on_c, 0, 66, 100
1, 43295, Note_off_c, 0, 66, 100
1, 43535, Note_on_c, 0, 62, 100
1, 43631, Note_off_c, 0, 62, 100
1, 43631, Note_on_c, 0, 63, 100
1, 43727, Note_off_c, 0, 63, 100
1, 43727, Note_on_c, 0, 60, 100
1, 43823, Note_off_c, 0, 60, 100
1, 43823, Note_on_c, 0, 60, 100
1, 43871, Note_off_c, 0, 60, 100
1, 43871, Note_on_c, 0, 60, 100
1, 43919, Note_off_c, 0, 60, 100
1, 43919, Note_on_c, 0, 59, 100
1, 43967, Note_off_c, 0, 59, 100
1, 43967, Note_on_c, 0, 56, 100
1, 44015, Note_off_c, 0, 56, 100
1, 44015, Note_on_c, 0, 54, 100
1, 44207, Note_off_c, 0, 54, 100
1, 44207, Note_on_c, 0, 67, 100
1, 44255, Note_off_c, 0, 67, 100
1, 44255, Note_on_c, 0, 70, 100
1, 44303, Note_off_c, 0, 70, 100
1, 44303, Note_on_c, 0, 72, 100
1, 44399, Note_off_c, 0, 72, 100
1, 44399, Note_on_c, 0, 72, 100
1, 44447, Note_off_c, 0, 72, 100
1, 44447, Note_on_c, 0, 70, 100
1, 44519, Note_off_c, 0, 70, 100
1, 44519, Note_on_c, 0, 72, 100
1, 44615, Note_off_c, 0, 72, 100
1, 44615, Note_on_c, 0, 71, 100
1, 44639, Note_off_c, 0, 71, 100
1, 44639, Note_on_c, 0, 69, 100
1, 44663, Note_off_c, 0, 69, 100
1, 44663, Note_on_c, 0, 66, 100
1, 44687, Note_off_c, 0, 66, 100
1, 44687, Note_on_c, 0, 63, 100
1, 44783, Note_off_c, 0, 63, 100
1, 45023, Note_on_c, 0, 64, 100
1, 45071, Note_off_c, 0, 64, 100
1, 45071, Note_on_c, 0, 65, 100
1, 45263, Note_off_c, 0, 65, 100
1, 45263, Note_on_c, 0, 62, 100
1, 45391, Note_off_c, 0, 62, 100
1, 45391, Note_on_c, 0, 59, 100
1, 45455, Note_off_c, 0, 59, 100
1, 45455, Note_on_c, 0, 58, 100
1, 45503, Note_off_c, 0, 58, 100
1, 45503, Note_on_c, 0, 57, 100
1, 45599, Note_off_c, 0, 57, 100
1, 45839, Note_on_c, 0, 72, 100
1, 45921, Note_off_c, 0, 72, 100
1, 45921, Note_on_c, 0, 71, 100
1, 45948, Note_off_c, 0, 71, 100
1, 45948, Note_on_c, 0, 70, 100
1, 45975, Note_off_c, 0, 70, 100
1, 45975, Note_on_c, 0, 69, 100
1, 46002, Note_off_c, 0, 69, 100
1, 46002, Note_on_c, 0, 67, 100
1, 46173, Note_off_c, 0, 67, 100
1, 46173, Note_on_c, 0, 60, 100
1, 46221, Note_off_c, 0, 60, 100
1, 46221, Note_on_c, 0, 59, 100
1, 46269, Note_off_c, 0, 59, 100
1, 46269, Note_on_c, 0, 58, 100
1, 46317, Note_off_c, 0, 58, 100
1, 46317, Note_on_c, 0, 57, 100
1, 46461, Note_off_c, 0, 57, 100
1, 46461, Note_on_c, 0, 48, 100
1, 46557, Note_off_c, 0, 48, 100
1, 46557, Note_on_c, 0, 51, 100
1, 46605, Note_off_c, 0, 51, 100
1, 46605, Note_on_c, 0, 55, 100
1, 46749, Note_off_c, 0, 55, 100
1, 46749, Note_on_c, 0, 51, 100
1, 46845, Note_off_c, 0, 51, 100
1, 46845, Note_on_c, 0, 53, 100
1, 46941, Note_off_c, 0, 53, 100
1, 46941, Note_on_c, 0, 51, 100
1, 47133, Note_off_c, 0, 51, 100
1, 47133, Note_on_c, 0, 51, 100
1, 47181, Note_off_c, 0, 51, 100
1, 47181, Note_on_c, 0, 55, 100
1, 47325, Note_off_c, 0, 55, 100
1, 47325, Note_on_c, 0, 51, 100
1, 47373, Note_off_c, 0, 51, 100
1, 47373, Note_on_c, 0, 53, 100
1, 47501, Note_off_c, 0, 53, 100
1, 47501, Note_on_c, 0, 53, 100
1, 47613, Note_off_c, 0, 53, 100
1, 47613, Note_on_c, 0, 51, 100
1, 47709, Note_off_c, 0, 51, 100
1, 47709, Note_on_c, 0, 48, 100
1, 47821, Note_off_c, 0, 48, 100
1, 47821, Note_on_c, 0, 53, 100
1, 47949, Note_off_c, 0, 53, 100
1, 47949, Note_on_c, 0, 55, 100
1, 48045, Note_off_c, 0, 55, 100
1, 48045, Note_on_c, 0, 58, 100
1, 48189, Note_off_c, 0, 58, 100
1, 48189, Note_on_c, 0, 60, 100
1, 48285, Note_off_c, 0, 60, 100
1, 48285, Note_on_c, 0, 63, 100
1, 48429, Note_off_c, 0, 63, 100
1, 48429, Note_on_c, 0, 67, 100
1, 48477, Note_off_c, 0, 67, 100
1, 48477, Note_on_c, 0, 65, 100
1, 48525, Note_off_c, 0, 65, 100
1, 48525, Note_on_c, 0, 63, 100
1, 48621, Note_off_c, 0, 63, 100
1, 48621, Note_on_c, 0, 62, 100
1, 48765, Note_off_c, 0, 62, 100
1, 48765, Note_on_c, 0, 60, 100
1, 48861, Note_off_c, 0, 60, 100
1, 48861, Note_on_c, 0, 55, 100
1, 48909, Note_off_c, 0, 55, 100
1, 48909, Note_on_c, 0, 50, 100
1, 48973, Note_off_c, 0, 50, 100
1, 48973, Note_on_c, 0, 48, 100
1, 49037, Note_off_c, 0, 48, 100
1, 49037, Note_on_c, 0, 44, 100
1, 49101, Note_off_c, 0, 44, 100
1, 49101, Note_on_c, 0, 43, 100
1, 49253, Note_off_c, 0, 43, 100
1, 49253, End_track
0, 0, End_of_file
