0, 0, Header, 1, 1, 192
1, 0, Start_track
1, 0, Title_t, "Melody"
1, 0, Tempo, 566037
1, 0, Key_signature, -3, "major"
1, 0, Time_signature, 4, 2, 24, 8
1, 256, Note_on_c, 0, 62, 100
1, 383, Note_off_c, 0, 62, 100
1, 383, Note_on_c, 0, 62, 100
1, 575, Note_off_c, 0, 62, 100
1, 575, Note_on_c, 0, 63, 100
1, 767, Note_off_c, 0, 63, 100
1, 767, Note_on_c, 0, 56, 100
1, 815, Note_off_c, 0, 56, 100
1, 815, Note_on_c, 0, 57, 100
1, 1103, Note_off_c, 0, 57, 100
1, 1103, Note_on_c, 0, 55, 100
1, 1535, Note_off_c, 0, 55, 100
1, 1535, Note_on_c, 0, 55, 100
1, 1631, Note_off_c, 0, 55, 100
1, 1631, Note_on_c, 0, 57, 100
1, 1919, Note_off_c, 0, 57, 100
1, 1919, Note_on_c, 0, 55, 100
1, 1967, Note_off_c, 0, 55, 100
1, 1967, Note_on_c, 0, 57, 100
1, 2015, Note_off_c, 0, 57, 100
1, 2015, Note_on_c, 0, 55, 100
1, 2111, Note_off_c, 0, 55, 100
1, 2111, Note_on_c, 0, 57, 100
1, 2351, Note_off_c, 0, 57, 100
1, 2351, Note_on_c, 0, 57, 100
1, 2399, Note_off_c, 0, 57, 100
1, 2399, Note_on_c, 0, 55, 100
1, 2495, Note_off_c, 0, 55, 100
1, 2495, Note_on_c, 0, 62, 100
1, 2639, Note_off_c, 0, 62, 100
1, 2639, Note_on_c, 0, 57, 100
1, 2735, Note_off_c, 0, 57, 100
1, 3023, Note_on_c, 0, 57, 100
1, 3071, Note_off_c, 0, 57, 100
1, 3071, Note_on_c, 0, 55, 100
1, 3167, Note_off_c, 0, 55, 100
1, 3167, Note_on_c, 0, 57, 100
1, 3263, Note_off_c, 0, 57, 100
1, 3263, Note_on_c, 0, 60, 100
1, 3359, Note_off_c, 0, 60, 100
1, 3359, Note_on_c, 0, 62, 100
1, 3599, Note_off_c, 0, 62, 100
1, 3599, Note_on_c, 0, 68, 100
1, 3695, Note_off_c, 0, 68, 100
1, 3695, Note_on_c, 0, 67, 100
1, 3743, Note_off_c, 0, 67, 100
1, 3743, Note_on_c, 0, 68, 100
1, 3791, Note_off_c, 0, 68, 100
1, 3791, Note_on_c, 0, 66, 100
1, 3839, Note_off_c, 0, 66, 100
1, 3839, Note_on_c, 0, 65, 100
1, 3887, Note_off_c, 0, 65, 100
1, 3887, Note_on_c, 0, 64, 100
1, 3935, Note_off_c, 0, 64, 100
1, 3935, Note_on_c, 0, 63, 100
1, 3983, Note_off_c, 0, 63, 100
1, 3983, Note_on_c, 0, 65, 100
1, 4031, Note_off_c, 0, 65, 100
1, 4031, Note_on_c, 0, 62, 100
1, 4079, Note_off_c, 0, 62, 100
1, 4079, Note_on_c, 0, 61, 100
1, 4127, Note_off_c, 0, 61, 100
1, 4127, Note_on_c, 0, 60, 100
1, 4175, Note_off_c, 0, 60, 100
1, 4175, Note_on_c, 0, 58, 100
1, 4223, Note_off_c, 0, 58, 100
1, 4223, Note_on_c, 0, 57, 100
1, 4271, Note_off_c, 0, 57, 100
1, 4271, Note_on_c, 0, 55, 100
1, 4319, Note_off_c, 0, 55, 100
1, 4319, Note_on_c, 0, 53, 100
1, 4415, Note_off_c, 0, 53, 100
1, 4799, Note_on_c, 0, 74, 100
1, 4837, Note_off_c, 0, 74, 100
1, 4837, Note_on_c, 0, 72, 100
1, 4875, Note_off_c, 0, 72, 100
1, 4875, Note_on_c, 0, 70, 100
1, 4913, Note_off_c, 0, 70, 100
1, 4913, Note_on_c, 0, 71, 100
1, 4989, Note_off_c, 0, 71, 100
1, 4989, Note_on_c, 0, 68, 100
1, 5037, Note_off_c, 0, 68, 100
1, 5037, Note_on_c, 0, 70, 100
1, 5085, Note_off_c, 0, 70, 100
1, 5085, Note_on_c, 0, 68, 100
1, 5133, Note_off_c, 0, 68, 100
1, 5133, Note_on_c, 0, 66, 100
1, 5181, Note_off_c, 0, 66, 100
1, 5181, Note_on_c, 0, 65, 100
1, 5229, Note_off_c, 0, 65, 100
1, 5229, Note_on_c, 0, 67, 100
1, 5277, Note_off_c, 0, 67, 100
1, 5277, Note_on_c, 0, 64, 100
1, 5325, Note_off_c, 0, 64, 100
1, 5325, Note_on_c, 0, 65, 100
1, 5373, Note_off_c, 0, 65, 100
1, 5373, Note_on_c, 0, 66, 100
1, 5421, Note_off_c, 0, 66, 100
1, 5421, Note_on_c, 0, 65, 100
1, 5469, Note_off_c, 0, 65, 100
1, 5469, Note_on_c, 0, 62, 100
1, 5517, Note_off_c, 0, 62, 100
1, 5517, Note_on_c, 0, 65, 100
1, 5565, Note_off_c, 0, 65, 100
1, 5565, Note_on_c, 0, 63, 100
1, 5603, Note_off_c, 0, 63, 100
1, 5603, Note_on_c, 0, 61, 100
1, 5641, Note_off_c, 0, 61, 100
1, 5641, Note_on_c, 0, 60, 100
1, 5679, Note_off_c, 0, 60, 100
1, 5679, Note_on_c, 0, 58, 100
1, 5717, Note_off_c, 0, 58, 100
1, 5717, Note_on_c, 0, 56, 100
1, 5813, Note_off_c, 0, 56, 100
1, 6283, Note_on_c, 0, 75, 100
1, 6369, Note_off_c, 0, 75, 100
1, 6369, Note_on_c, 0, 77, 100
1, 6407, Note_off_c, 0, 77, 100
1, 6407, Note_on_c, 0, 81, 100
1, 6445, Note_off_c, 0, 81, 100
1, 6445, Note_on_c, 0, 79, 100
1, 6483, Note_off_c, 0, 79, 100
1, 6483, Note_on_c, 0, 73, 100
1, 6559, Note_off_c, 0, 73, 100
1, 6559, Note_on_c, 0, 71, 100
1, 6597, Note_off_c, 0, 71, 100
1, 6597, Note_on_c, 0, 69, 100
1, 6635, Note_off_c, 0, 69, 100
1, 6635, Note_on_c, 0, 71, 100
1, 6673, Note_off_c, 0, 71, 100
1, 6673, Note_on_c, 0, 68, 100
1, 6749, Note_off_c, 0, 68, 100
1, 6749, Note_on_c, 0, 67, 100
1, 6787, Note_off_c, 0, 67, 100
1, 6787, Note_on_c, 0, 66, 100
1, 6825, Note_off_c, 0, 66, 100
1, 6825, Note_on_c, 0, 65, 100
1, 6863, Note_off_c, 0, 65, 100
1, 6863, Note_on_c, 0, 69, 100
1, 6901, Note_off_c, 0, 69, 100
1, 6901, Note_on_c, 0, 65, 100
1, 6949, Note_off_c, 0, 65, 100
1, 6949, Note_on_c, 0, 63, 100
1, 6997, Note_off_c, 0, 63, 100
1, 6997, Note_on_c, 0, 63, 100
1, 7045, Note_off_c, 0, 63, 100
1, 7045, Note_on_c, 0, 66, 100
1, 7093, Note_off_c, 0, 66, 100
1, 7093, Note_on_c, 0, 64, 100
1, 7141, Note_off_c, 0, 64, 100
1, 7141, Note_on_c, 0, 61, 100
1, 7349, Note_off_c, 0, 61, 100
1, 7349, Note_on_c, 0, 68, 100
1, 7413, Note_off_c, 0, 68, 100
1, 7413, Note_on_c, 0, 66, 100
1, 7477, Note_off_c, 0, 66, 100
1, 7477, Note_on_c, 0, 66, 100
1, 7541, Note_off_c, 0, 66, 100
1, 7541, Note_on_c, 0, 63, 100
1, 7717, Note_off_c, 0, 63, 100
1, 7717, Note_on_c, 0, 71, 100
1, 7813, Note_off_c, 0, 71, 100
1, 7813, Note_on_c, 0, 81, 100
1, 7861, Note_off_c, 0, 81, 100
1, 7861, Note_on_c, 0, 83, 100
1, 7909, Note_off_c, 0, 83, 100
1, 7909, Note_on_c, 0, 82, 100
1, 8005, Note_off_c, 0, 82, 100
1, 8149, Note_on_c, 0, 70, 100
1, 8197, Note_off_c, 0, 70, 100
1, 8197, Note_on_c, 0, 71, 100
1, 8293, Note_off_c, 0, 71, 100
1, 8293, Note_on_c, 0, 70, 100
1, 8389, Note_off_c, 0, 70, 100
1, 8389, Note_on_c, 0, 69, 100
1, 8437, Note_off_c, 0, 69, 100
1, 8437, Note_on_c, 0, 70, 100
1, 8533, Note_off_c, 0, 70, 100
1, 8533, Note_on_c, 0, 67, 100
1, 8821, Note_off_c, 0, 67, 100
1, 8821, Note_on_c, 0, 65, 100
1, 8869, Note_off_c, 0, 65, 100
1, 8869, Note_on_c, 0, 67, 100
1, 8965, Note_off_c, 0, 67, 100
1, 9349, Note_on_c, 0, 57, 100
1, 9397, Note_off_c, 0, 57, 100
1, 9397, Note_on_c, 0, 60, 100
1, 9461, Note_off_c, 0, 60, 100
1, 9461, Note_on_c, 0, 57, 100
1, 9525, Note_off_c, 0, 57, 100
1, 9525, Note_on_c, 0, 60, 100
1, 9781, Note_off_c, 0, 60, 100
1, 9781, Note_on_c, 0, 63, 100
1, 9829, Note_off_c, 0, 63, 100
1, 9829, Note_on_c, 0, 65, 100
1, 9925, Note_off_c, 0, 65, 100
1, 9925, Note_on_c, 0, 65, 100
1, 10117, Note_off_c, 0, 65, 100
1, 10117, Note_on_c, 0, 63, 100
1, 10165, Note_off_c, 0, 63, 100
1, 10165, Note_on_c, 0, 60, 100
1, 10261, Note_off_c, 0, 60, 100
1, 10549, Note_on_c, 0, 66, 100
1, 10597, Note_off_c, 0, 66, 100
1, 10597, Note_on_c, 0, 65, 100
1, 10645, Note_off_c, 0, 65, 100
1, 10645, Note_on_c, 0, 65, 100
1, 10693, Note_off_c, 0, 65, 100
1, 10693, Note_on_c, 0, 63, 100
1, 10741, Note_off_c, 0, 63, 100
1, 10741, Note_on_c, 0, 60, 100
1, 10837, Note_off_c, 0, 60, 100
1, 11086, Note_on_c, 0, 69, 100
1, 11172, Note_off_c, 0, 69, 100
1, 11172, Note_on_c, 0, 71, 100
1, 11220, Note_off_c, 0, 71, 100
1, 11220, Note_on_c, 0, 69, 100
1, 11268, Note_off_c, 0, 69, 100
1, 11268, Note_on_c, 0, 66, 100
1, 11364, Note_off_c, 0, 66, 100
1, 11364, Note_on_c, 0, 67, 100
1, 11412, Note_off_c, 0, 67, 100
1, 11412, Note_on_c, 0, 66, 100
1, 11556, Note_off_c, 0, 66, 100
1, 11556, Note_on_c, 0, 65, 100
1, 11604, Note_off_c, 0, 65, 100
1, 11604, Note_on_c, 0, 64, 100
1, 11652, Note_off_c, 0, 64, 100
1, 11652, Note_on_c, 0, 67, 100
1, 11700, Note_off_c, 0, 67, 100
1, 11700, Note_on_c, 0, 65, 100
1, 11748, Note_off_c, 0, 65, 100
1, 11748, Note_on_c, 0, 64, 100
1, 11796, Note_off_c, 0, 64, 100
1, 11796, Note_on_c, 0, 66, 100
1, 11844, Note_off_c, 0, 66, 100
1, 11844, Note_on_c, 0, 69, 100
1, 11892, Note_off_c, 0, 69, 100
1, 11892, Note_on_c, 0, 70, 100
1, 11930, Note_off_c, 0, 70, 100
1, 11930, Note_on_c, 0, 71, 100
1, 11968, Note_off_c, 0, 71, 100
1, 11968, Note_on_c, 0, 72, 100
1, 12006, Note_off_c, 0, 72, 100
1, 12006, Note_on_c, 0, 74, 100
1, 12082, Note_off_c, 0, 74, 100
1, 12082, Note_on_c, 0, 72, 100
1, 12130, Note_off_c, 0, 72, 100
1, 12130, Note_on_c, 0, 68, 100
1, 12178, Note_off_c, 0, 68, 100
1, 12178, Note_on_c, 0, 69, 100
1, 12274, Note_off_c, 0, 69, 100
1, 12610, Note_on_c, 0, 74, 100
1, 12706, Note_off_c, 0, 74, 100
1, 12706, Note_on_c, 0, 72, 100
1, 12754, Note_off_c, 0, 72, 100
1, 12754, Note_on_c, 0, 70, 100
1, 12802, Note_off_c, 0, 70, 100
1, 12802, Note_on_c, 0, 71, 100
1, 12850, Note_off_c, 0, 71, 100
1, 12850, Note_on_c, 0, 68, 100
1, 12946, Note_off_c, 0, 68, 100
1, 12946, Note_on_c, 0, 70, 100
1, 12994, Note_off_c, 0, 70, 100
1, 12994, Note_on_c, 0, 68, 100
1, 13042, Note_off_c, 0, 68, 100
1, 13042, Note_on_c, 0, 66, 100
1, 13106, Note_off_c, 0, 66, 100
1, 13106, Note_on_c, 0, 65, 100
1, 13170, Note_off_c, 0, 65, 100
1, 13170, Note_on_c, 0, 58, 100
1, 13202, Note_off_c, 0, 58, 100
1, 13202, Note_on_c, 0, 57, 100
1, 13282, Note_off_c, 0, 57, 100
1, 13282, Note_on_c, 0, 64, 100
1, 13378, Note_off_c, 0, 64, 100
1, 13378, Note_on_c, 0, 67, 100
1, 13426, Note_off_c, 0, 67, 100
1, 13426, Note_on_c, 0, 65, 100
1, 13522, Note_off_c, 0, 65, 100
1, 13522, Note_on_c, 0, 63, 100
1, 13570, Note_off_c, 0, 63, 100
1, 13570, Note_on_c, 0, 66, 100
1, 13618, Note_off_c, 0, 66, 100
1, 13618, Note_on_c, 0, 62, 100
1, 13666, Note_off_c, 0, 62, 100
1, 13666, Note_on_c, 0, 61, 100
1, 13714, Note_off_c, 0, 61, 100
1, 13714, Note_on_c, 0, 59, 100
1, 13810, Note_off_c, 0, 59, 100
1, 14146, Note_on_c, 0, 70, 100
1, 14194, Note_off_c, 0, 70, 100
1, 14194, Note_on_c, 0, 74, 100
1, 14242, Note_off_c, 0, 74, 100
1, 14242, Note_on_c, 0, 70, 100
1, 14338, Note_off_c, 0, 70, 100
1, 14338, Note_on_c, 0, 68, 100
1, 14386, Note_off_c, 0, 68, 100
1, 14386, Note_on_c, 0, 71, 100
1, 14482, Note_off_c, 0, 71, 100
1, 14482, Note_on_c, 0, 69, 100
1, 14530, Note_off_c, 0, 69, 100
1, 14530, Note_on_c, 0, 66, 100
1, 14578, Note_off_c, 0, 66, 100
1, 14578, Note_on_c, 0, 69, 100
1, 14674, Note_off_c, 0, 69, 100
1, 14674, Note_on_c, 0, 67, 100
1, 14770, Note_off_c, 0, 67, 100
1, 14770, Note_on_c, 0, 64, 100
1, 14818, Note_off_c, 0, 64, 100
1, 14818, Note_on_c, 0, 67, 100
1, 14866, Note_off_c, 0, 67, 100
1, 14866, Note_on_c, 0, 65, 100
1, 14914, Note_off_c, 0, 65, 100
1, 14914, Note_on_c, 0, 61, 100
1, 14962, Note_off_c, 0, 61, 100
1, 14962, Note_on_c, 0, 58, 100
1, 15058, Note_off_c, 0, 58, 100
1, 15230, Note_on_c, 0, 68, 100
1, 15268, Note_off_c, 0, 68, 100
1, 15268, Note_on_c, 0, 67, 100
1, 15306, Note_off_c, 0, 67, 100
1, 15306, Note_on_c, 0, 66, 100
1, 15382, Note_off_c, 0, 66, 100
1, 15382, Note_on_c, 0, 68, 100
1, 15420, Note_off_c, 0, 68, 100
1, 15420, Note_on_c, 0, 64, 100
1, 15458, Note_off_c, 0, 64, 100
1, 15458, Note_on_c, 0, 66, 100
1, 15496, Note_off_c, 0, 66, 100
1, 15496, Note_on_c, 0, 63, 100
1, 15534, Note_off_c, 0, 63, 100
1, 15534, Note_on_c, 0, 68, 100
1, 15582, Note_off_c, 0, 68, 100
1, 15582, Note_on_c, 0, 67, 100
1, 15630, Note_off_c, 0, 67, 100
1, 15630, Note_on_c, 0, 69, 100
1, 15678, Note_off_c, 0, 69, 100
1, 15678, Note_on_c, 0, 68, 100
1, 15774, Note_off_c, 0, 68, 100
1, 15774, Note_on_c, 0, 70, 100
1, 15822, Note_off_c, 0, 70, 100
1, 15822, Note_on_c, 0, 71, 100
1, 15994, Note_off_c, 0, 71, 100
1, 15994, Note_on_c, 0, 68, 100
1, 16032, Note_off_c, 0, 68, 100
1, 16032, Note_on_c, 0, 67, 100
1, 16070, Note_off_c, 0, 67, 100
1, 16070, Note_on_c, 0, 66, 100
1, 16108, Note_off_c, 0, 66, 100
1, 16108, Note_on_c, 0, 71, 100
1, 16172, Note_off_c, 0, 71, 100
1, 16172, Note_on_c, 0, 63, 100
1, 16236, Note_off_c, 0, 63, 100
1, 16236, Note_on_c, 0, 66, 100
1, 16300, Note_off_c, 0, 66, 100
1, 16300, Note_on_c, 0, 63, 100
1, 16348, Note_off_c, 0, 63, 100
1, 16348, Note_on_c, 0, 69, 100
1, 16396, Note_off_c, 0, 69, 100
1, 16396, Note_on_c, 0, 68, 100
1, 16444, Note_off_c, 0, 68, 100
1, 16444, Note_on_c, 0, 69, 100
1, 16492, Note_off_c, 0, 69, 100
1, 16492, Note_on_c, 0, 70, 100
1, 16540, Note_off_c, 0, 70, 100
1, 16540, Note_on_c, 0, 73, 100
1, 16748, Note_off_c, 0, 73, 100
1, 16748, Note_on_c, 0, 72, 100
1, 16812, Note_off_c, 0, 72, 100
1, 16812, Note_on_c, 0, 71, 100
1, 16876, Note_off_c, 0, 71, 100
1, 16876, Note_on_c, 0, 68, 100
1, 16914, Note_off_c, 0, 68, 100
1, 16914, Note_on_c, 0, 70, 100
1, 16952, Note_off_c, 0, 70, 100
1, 16952, Note_on_c, 0, 75, 100
1, 17028, Note_off_c, 0, 75, 100
1, 17028, Note_on_c, 0, 79, 100
1, 17114, Note_off_c, 0, 79, 100
1, 17114, Note_on_c, 0, 83, 100
1, 17162, Note_off_c, 0, 83, 100
1, 17162, Note_on_c, 0, 88, 100
1, 17210, Note_off_c, 0, 88, 100
1, 17210, Note_on_c, 0, 84, 100
1, 17258, Note_off_c, 0, 84, 100
1, 17258, Note_on_c, 0, 88, 100
1, 17306, Note_off_c, 0, 88, 100
1, 17306, Note_on_c, 0, 86, 100
1, 17354, Note_off_c, 0, 86, 100
1, 17354, Note_on_c, 0, 82, 100
1, 17402, Note_off_c, 0, 82, 100
1, 17402, Note_on_c, 0, 83, 100
1, 17450, Note_off_c, 0, 83, 100
1, 17450, Note_on_c, 0, 72, 100
1, 17498, Note_off_c, 0, 72, 100
1, 17498, Note_on_c, 0, 74, 100
1, 17546, Note_off_c, 0, 74, 100
1, 17546, Note_on_c, 0, 71, 100
1, 17642, Note_off_c, 0, 71, 100
1, 17642, Note_on_c, 0, 70, 100
1, 17690, Note_off_c, 0, 70, 100
1, 17690, Note_on_c, 0, 71, 100
1, 17738, Note_off_c, 0, 71, 100
1, 17738, Note_on_c, 0, 68, 100
1, 17834, Note_off_c, 0, 68, 100
1, 17834, Note_on_c, 0, 67, 100
1, 17930, Note_off_c, 0, 67, 100
1, 17930, Note_on_c, 0, 66, 100
1, 18170, Note_off_c, 0, 66, 100
1, 18170, Note_on_c, 0, 68, 100
1, 18218, Note_off_c, 0, 68, 100
1, 18218, Note_on_c, 0, 67, 100
1, 18282, Note_off_c, 0, 67, 100
1, 18282, Note_on_c, 0, 66, 100
1, 18346, Note_off_c, 0, 66, 100
1, 18346, Note_on_c, 0, 70, 100
1, 18410, Note_off_c, 0, 70, 100
1, 18410, Note_on_c, 0, 65, 100
1, 18448, Note_off_c, 0, 65, 100
1, 18448, Note_on_c, 0, 63, 100
1, 18486, Note_off_c, 0, 63, 100
1, 18486, Note_on_c, 0, 62, 100
1, 18524, Note_off_c, 0, 62, 100
1, 18524, Note_on_c, 0, 67, 100
1, 18600, Note_off_c, 0, 67, 100
1, 18600, Note_on_c, 0, 65, 100
1, 18696, Note_off_c, 0, 65, 100
1, 18696, Note_on_c, 0, 66, 100
1, 18744, Note_off_c, 0, 66, 100
1, 18744, Note_on_c, 0, 67, 100
1, 18768, Note_off_c, 0, 67, 100
1, 18768, Note_on_c, 0, 68, 100
1, 18936, Note_off_c, 0, 68, 100
1, 18936, Note_on_c, 0, 68, 100
1, 18984, Note_off_c, 0, 68, 100
1, 18984, Note_on_c, 0, 67, 100
1, 19048, Note_off_c, 0, 67, 100
1, 19048, Note_on_c, 0, 66, 100
1, 19112, Note_off_c, 0, 66, 100
1, 19112, Note_on_c, 0, 71, 100
1, 19176, Note_off_c, 0, 71, 100
1, 19176, Note_on_c, 0, 65, 100
1, 19214, Note_off_c, 0, 65, 100
1, 19214, Note_on_c, 0, 66, 100
1, 19252, Note_off_c, 0, 66, 100
1, 19252, Note_on_c, 0, 64, 100
1, 19290, Note_off_c, 0, 64, 100
1, 19290, Note_on_c, 0, 66, 100
1, 19328, Note_off_c, 0, 66, 100
1, 19328, Note_on_c, 0, 68, 100
1, 19366, Note_off_c, 0, 68, 100
1, 19366, Note_on_c, 0, 70, 100
1, 19430, Note_off_c, 0, 70, 100
1, 19430, Note_on_c, 0, 68, 100
1, 19494, Note_off_c, 0, 68, 100
1, 19494, Note_on_c, 0, 71, 100
1, 19558, Note_off_c, 0, 71, 100
1, 19558, Note_on_c, 0, 68, 100
1, 19606, Note_off_c, 0, 68, 100
1, 19606, Note_on_c, 0, 70, 100
1, 19654, Note_off_c, 0, 70, 100
1, 19654, Note_on_c, 0, 68, 100
1, 19702, Note_off_c, 0, 68, 100
1, 19702, Note_on_c, 0, 70, 100
1, 19750, Note_off_c, 0, 70, 100
1, 19750, Note_on_c, 0, 71, 100
1, 19798, Note_off_c, 0, 71, 100
1, 19798, Note_on_c, 0, 70, 100
1, 19846, Note_off_c, 0, 70, 100
1, 19846, Note_on_c, 0, 71, 100
1, 19894, Note_off_c, 0, 71, 100
1, 19894, Note_on_c, 0, 67, 100
1, 19942, Note_off_c, 0, 67, 100
1, 19942, Note_on_c, 0, 66, 100
1, 19990, Note_off_c, 0, 66, 100
1, 19990, Note_on_c, 0, 70, 100
1, 20038, Note_off_c, 0, 70, 100
1, 20038, Note_on_c, 0, 63, 100
1, 20134, Note_off_c, 0, 63, 100
1, 20326, Note_on_c, 0, 60, 100
1, 20422, Note_off_c, 0, 60, 100
1, 20422, Note_on_c, 0, 62, 100
1, 20710, Note_off_c, 0, 62, 100
1, 20710, Note_on_c, 0, 60, 100
1, 20758, Note_off_c, 0, 60, 100
1, 20758, Note_on_c, 0, 61, 100
1, 20806, Note_off_c, 0, 61, 100
1, 20806, Note_on_c, 0, 60, 100
1, 20854, Note_off_c, 0, 60, 100
1, 20854, Note_on_c, 0, 57, 100
1, 20966, Note_off_c, 0, 57, 100
1, 20966, Note_on_c, 0, 60, 100
1, 21286, Note_off_c, 0, 60, 100
1, 21286, Note_on_c, 0, 57, 100
1, 21382, Note_off_c, 0, 57, 100
1, 21382, Note_on_c, 0, 55, 100
1, 21430, Note_off_c, 0, 55, 100
1, 21430, Note_on_c, 0, 57, 100
1, 21574, Note_off_c, 0, 57, 100
1, 21574, Note_on_c, 0, 60, 100
1, 21622, Note_off_c, 0, 60, 100
1, 21622, Note_on_c, 0, 57, 100
1, 21670, Note_off_c, 0, 57, 100
1, 21670, Note_on_c, 0, 61, 100
1, 21862, Note_off_c, 0, 61, 100
1, 21862, Note_on_c, 0, 65, 100
1, 21958, Note_off_c, 0, 65, 100
1, 21958, Note_on_c, 0, 67, 100
1, 22390, Note_off_c, 0, 67, 100
1, 22390, Note_on_c, 0, 64, 100
1, 22438, Note_off_c, 0, 64, 100
1, 22438, Note_on_c, 0, 67, 100
1, 22534, Note_off_c, 0, 67, 100
1, 22726, Note_on_c, 0, 66, 100
1, 22870, Note_off_c, 0, 66, 100
1, 22870, Note_on_c, 0, 67, 100
1, 22966, Note_off_c, 0, 67, 100
1, 22966, Note_on_c, 0, 65, 100
1, 23014, Note_off_c, 0, 65, 100
1, 23014, Note_on_c, 0, 66, 100
1, 23062, Note_off_c, 0, 66, 100
1, 23062, Note_on_c, 0, 67, 100
1, 23110, Note_off_c, 0, 67, 100
1, 23110, Note_on_c, 0, 66, 100
1, 23158, Note_off_c, 0, 66, 100
1, 23158, Note_on_c, 0, 64, 100
1, 23206, Note_off_c, 0, 64, 100
1, 23206, Note_on_c, 0, 65, 100
1, 23350, Note_off_c, 0, 65, 100
1, 23350, Note_on_c, 0, 62, 100
1, 23398, Note_off_c, 0, 62, 100
1, 23398, Note_on_c, 0, 63, 100
1, 23494, Note_off_c, 0, 63, 100
1, 23494, Note_on_c, 0, 60, 100
1, 23590, Note_off_c, 0, 60, 100
1, 23590, Note_on_c, 0, 60, 100
1, 23686, Note_off_c, 0, 60, 100
1, 23878, Note_on_c, 0, 66, 100
1, 23926, Note_off_c, 0, 66, 100
1, 23926, Note_on_c, 0, 67, 100
1, 24070, Note_off_c, 0, 67, 100
1, 24070, Note_on_c, 0, 66, 100
1, 24118, Note_off_c, 0, 66, 100
1, 24118, Note_on_c, 0, 67, 100
1, 24166, Note_off_c, 0, 67, 100
1, 24166, Note_on_c, 0, 65, 100
1, 24198, Note_off_c, 0, 65, 100
1, 24198, Note_on_c, 0, 67, 100
1, 24230, Note_off_c, 0, 67, 100
1, 24230, Note_on_c, 0, 65, 100
1, 24262, Note_off_c, 0, 65, 100
1, 24262, Note_on_c, 0, 63, 100
1, 24358, Note_off_c, 0, 63, 100
1, 24646, Note_on_c, 0, 66, 100
1, 24694, Note_off_c, 0, 66, 100
1, 24694, Note_on_c, 0, 67, 100
1, 24838, Note_off_c, 0, 67, 100
1, 24838, Note_on_c, 0, 66, 100
1, 24886, Note_off_c, 0, 66, 100
1, 24886, Note_on_c, 0, 63, 100
1, 24934, Note_off_c, 0, 63, 100
1, 24934, Note_on_c, 0, 65, 100
1, 25030, Note_off_c, 0, 65, 100
1, 25030, Note_on_c, 0, 63, 100
1, 25078, Note_off_c, 0, 63, 100
1, 25078, Note_on_c, 0, 62, 100
1, 25126, Note_off_c, 0, 62, 100
1, 25126, Note_on_c, 0, 63, 100
1, 25222, Note_off_c, 0, 63, 100
1, 25222, Note_on_c, 0, 60, 100
1, 25270, Note_off_c, 0, 60, 100
1, 25270, Note_on_c, 0, 55, 100
1, 25318, Note_off_c, 0, 55, 100
1, 25318, Note_on_c, 0, 58, 100
1, 25462, Note_off_c, 0, 58, 100
1, 25462, Note_on_c, 0, 60, 100
1, 25654, Note_off_c, 0, 60, 100
1, 25846, Note_on_c, 0, 52, 100
1, 25894, Note_off_c, 0, 52, 100
1, 25894, Note_on_c, 0, 58, 100
1, 25918, Note_off_c, 0, 58, 100
1, 25918, Note_on_c, 0, 60, 100
1, 25942, Note_off_c, 0, 60, 100
1, 25942, Note_on_c, 0, 64, 100
1, 25966, Note_off_c, 0, 64, 100
1, 25966, Note_on_c, 0, 67, 100
1, 25990, Note_off_c, 0, 67, 100
1, 25990, Note_on_c, 0, 70, 100
1, 26014, Note_off_c, 0, 70, 100
1, 26014, Note_on_c, 0, 72, 100
1, 26062, Note_off_c, 0, 72, 100
1, 26062, Note_on_c, 0, 70, 100
1, 26086, Note_off_c, 0, 70, 100
1, 26086, Note_on_c, 0, 69, 100
1, 26134, Note_off_c, 0, 69, 100
1, 26134, Note_on_c, 0, 89, 100
1, 26182, Note_off_c, 0, 89, 100
1, 26182, Note_on_c, 0, 90, 100
1, 26310, Note_off_c, 0, 90, 100
1, 26310, Note_on_c, 0, 48, 100
1, 26342, Note_off_c, 0, 48, 100
1, 26342, Note_on_c, 0, 55, 100
1, 26374, Note_off_c, 0, 55, 100
1, 26374, Note_on_c, 0, 58, 100
1, 26406, Note_off_c, 0, 58, 100
1, 26406, Note_on_c, 0, 60, 100
1, 26438, Note_off_c, 0, 60, 100
1, 26438, Note_on_c, 0, 63, 100
1, 26470, Note_off_c, 0, 63, 100
1, 26470, Note_on_c, 0, 65, 100
1, 26494, Note_off_c, 0, 65, 100
1, 26494, Note_on_c, 0, 69, 100
1, 26518, Note_off_c, 0, 69, 100
1, 26518, Note_on_c, 0, 72, 100
1, 26542, Note_off_c, 0, 72, 100
1, 26542, Note_on_c, 0, 74, 100
1, 26566, Note_off_c, 0, 74, 100
1, 26566, Note_on_c, 0, 70, 100
1, 26590, Note_off_c, 0, 70, 100
1, 26590, Note_on_c, 0, 72, 100
1, 26614, Note_off_c, 0, 72, 100
1, 26614, Note_on_c, 0, 74, 100
1, 26638, Note_off_c, 0, 74, 100
1, 26638, Note_on_c, 0, 82, 100
1, 26734, Note_off_c, 0, 82, 100
1, 26902, Note_on_c, 0, 53, 100
1, 26926, Note_off_c, 0, 53, 100
1, 26926, Note_on_c, 0, 58, 100
1, 26974, Note_off_c, 0, 58, 100
1, 26974, Note_on_c, 0, 50, 100
1, 26998, Note_off_c, 0, 50, 100
1, 26998, Note_on_c, 0, 48, 100
1, 27022, Note_off_c, 0, 48, 100
1, 27022, Note_on_c, 0, 70, 100
1, 27046, Note_off_c, 0, 70, 100
1, 27046, Note_on_c, 0, 73, 100
1, 27142, Note_off_c, 0, 73, 100
1, 27142, Note_on_c, 0, 63, 100
1, 27166, Note_off_c, 0, 63, 100
1, 27166, Note_on_c, 0, 70, 100
1, 27190, Note_off_c, 0, 70, 100
1, 27190, Note_on_c, 0, 63, 100
1, 27214, Note_off_c, 0, 63, 100
1, 27214, Note_on_c, 0, 70, 100
1, 27238, Note_off_c, 0, 70, 100
1, 27238, Note_on_c, 0, 82, 100
1, 27276, Note_off_c, 0, 82, 100
1, 27276, Note_on_c, 0, 86, 100
1, 27314, Note_off_c, 0, 86, 100
1, 27314, Note_on_c, 0, 90, 100
1, 27352, Note_off_c, 0, 90, 100
1, 27352, Note_on_c, 0, 89, 100
1, 27390, Note_off_c, 0, 89, 100
1, 27390, Note_on_c, 0, 85, 100
1, 27455, Note_off_c, 0, 85, 100
1, 27455, Note_on_c, 0, 53, 100
1, 27482, Note_off_c, 0, 53, 100
1, 27482, Note_on_c, 0, 48, 100
1, 27509, Note_off_c, 0, 48, 100
1, 27509, Note_on_c, 0, 55, 100
1, 27536, Note_off_c, 0, 55, 100
1, 27536, Note_on_c, 0, 57, 100
1, 27563, Note_off_c, 0, 57, 100
1, 27563, Note_on_c, 0, 60, 100
1, 27590, Note_off_c, 0, 60, 100
1, 27590, Note_on_c, 0, 69, 100
1, 27617, Note_off_c, 0, 69, 100
1, 27617, Note_on_c, 0, 65, 100
1, 27655, Note_off_c, 0, 65, 100
1, 27655, Note_on_c, 0, 63, 100
1, 27693, Note_off_c, 0, 63, 100
1, 27693, Note_on_c, 0, 57, 100
1, 27731, Note_off_c, 0, 57, 100
1, 27731, Note_on_c, 0, 74, 100
1, 27807, Note_off_c, 0, 74, 100
1, 27807, Note_on_c, 0, 73, 100
1, 27845, Note_off_c, 0, 73, 100
1, 27845, Note_on_c, 0, 70, 100
1, 27883, Note_off_c, 0, 70, 100
1, 27883, Note_on_c, 0, 73, 100
1, 27921, Note_off_c, 0, 73, 100
1, 27921, Note_on_c, 0, 71, 100
1, 27959, Note_off_c, 0, 71, 100
1, 27959, Note_on_c, 0, 69, 100
1, 27997, Note_off_c, 0, 69, 100
1, 27997, Note_on_c, 0, 75, 100
1, 28018, Note_off_c, 0, 75, 100
1, 28018, Note_on_c, 0, 71, 100
1, 28167, Note_off_c, 0, 71, 100
1, 28167, Note_on_c, 0, 48, 100
1, 28188, Note_off_c, 0, 48, 100
1, 28188, Note_on_c, 0, 53, 100
1, 28215, Note_off_c, 0, 53, 100
1, 28215, Note_on_c, 0, 57, 100
1, 28242, Note_off_c, 0, 57, 100
1, 28242, Note_on_c, 0, 56, 100
1, 28269, Note_off_c, 0, 56, 100
1, 28269, Note_on_c, 0, 55, 100
1, 28296, Note_off_c, 0, 55, 100
1, 28296, Note_on_c, 0, 57, 100
1, 28323, Note_off_c, 0, 57, 100
1, 28323, Note_on_c, 0, 62, 100
1, 28350, Note_off_c, 0, 62, 100
1, 28350, Note_on_c, 0, 59, 100
1, 28377, Note_off_c, 0, 59, 100
1, 28377, Note_on_c, 0, 58, 100
1, 28409, Note_off_c, 0, 58, 100
1, 28409, Note_on_c, 0, 63, 100
1, 28441, Note_off_c, 0, 63, 100
1, 28441, Note_on_c, 0, 70, 100
1, 28505, Note_off_c, 0, 70, 100
1, 28505, Note_on_c, 0, 70, 100
1, 28537, Note_off_c, 0, 70, 100
1, 28537, Note_on_c, 0, 70, 100
1, 28569, Note_off_c, 0, 70, 100
1, 28569, Note_on_c, 0, 71, 100
1, 28593, Note_off_c, 0, 71, 100
1, 28593, Note_on_c, 0, 72, 100
1, 28617, Note_off_c, 0, 72, 100
1, 28617, Note_on_c, 0, 70, 100
1, 28641, Note_off_c, 0, 70, 100
1, 28641, Note_on_c, 0, 72, 100
1, 28689, Note_off_c, 0, 72, 100
1, 28689, Note_on_c, 0, 71, 100
1, 28713, Note_off_c, 0, 71, 100
1, 28713, Note_on_c, 0, 69, 100
1, 28857, Note_off_c, 0, 69, 100
1, 28857, Note_on_c, 0, 64, 100
1, 28905, Note_off_c, 0, 64, 100
1, 28905, Note_on_c, 0, 68, 100
1, 28953, Note_off_c, 0, 68, 100
1, 28953, Note_on_c, 0, 76, 100
1, 29001, Note_off_c, 0, 76, 100
1, 29001, Note_on_c, 0, 80, 100
1, 29049, Note_off_c, 0, 80, 100
1, 29049, Note_on_c, 0, 81, 100
1, 29097, Note_off_c, 0, 81, 100
1, 29097, Note_on_c, 0, 82, 100
1, 29145, Note_off_c, 0, 82, 100
1, 29145, Note_on_c, 0, 83, 100
1, 29209, Note_off_c, 0, 83, 100
1, 29209, Note_on_c, 0, 85, 100
1, 29337, Note_off_c, 0, 85, 100
1, 29337, Note_on_c, 0, 70, 100
1, 29401, Note_off_c, 0, 70, 100
1, 29401, Note_on_c, 0, 73, 100
1, 29465, Note_off_c, 0, 73, 100
1, 29465, Note_on_c, 0, 72, 100
1, 29673, Note_off_c, 0, 72, 100
1, 29673, Note_on_c, 0, 70, 100
1, 29769, Note_off_c, 0, 70, 100
1, 29769, Note_on_c, 0, 71, 100
1, 29817, Note_off_c, 0, 71, 100
1, 29817, Note_on_c, 0, 68, 100
1, 30009, Note_off_c, 0, 68, 100
1, 30009, Note_on_c, 0, 67, 100
1, 30057, Note_off_c, 0, 67, 100
1, 30057, Note_on_c, 0, 65, 100
1, 30105, Note_off_c, 0, 65, 100
1, 30105, Note_on_c, 0, 67, 100
1, 30153, Note_off_c, 0, 67, 100
1, 30153, Note_on_c, 0, 66, 100
1, 30249, Note_off_c, 0, 66, 100
1, 30249, Note_on_c, 0, 67, 100
1, 30297, Note_off_c, 0, 67, 100
1, 30297, Note_on_c, 0, 66, 100
1, 30393, Note_off_c, 0, 66, 100
1, 30393, Note_on_c, 0, 67, 100
1, 30441, Note_off_c, 0, 67, 100
1, 30441, Note_on_c, 0, 66, 100
1, 30537, Note_off_c, 0, 66, 100
1, 30753, Note_on_c, 0, 65, 100
1, 30777, Note_off_c, 0, 65, 100
1, 30777, Note_on_c, 0, 67, 100
1, 30801, Note_off_c, 0, 67, 100
1, 30801, Note_on_c, 0, 66, 100
1, 30825, Note_off_c, 0, 66, 100
1, 30825, Note_on_c, 0, 70, 100
1, 30849, Note_off_c, 0, 70, 100
1, 30849, Note_on_c, 0, 71, 100
1, 30873, Note_off_c, 0, 71, 100
1, 30873, Note_on_c, 0, 67, 100
1, 30897, Note_off_c, 0, 67, 100
1, 30897, Note_on_c, 0, 71, 100
1, 30921, Note_off_c, 0, 71, 100
1, 30921, Note_on_c, 0, 67, 100
1, 30969, Note_off_c, 0, 67, 100
1, 30969, Note_on_c, 0, 67, 100
1, 30993, Note_off_c, 0, 67, 100
1, 30993, Note_on_c, 0, 65, 100
1, 31017, Note_off_c, 0, 65, 100
1, 31017, Note_on_c, 0, 64, 100
1, 31041, Note_off_c, 0, 64, 100
1, 31041, Note_on_c, 0, 63, 100
1, 31065, Note_off_c, 0, 63, 100
1, 31065, Note_on_c, 0, 61, 100
1, 31086, Note_off_c, 0, 61, 100
1, 31086, Note_on_c, 0, 60, 100
1, 31107, Note_off_c, 0, 60, 100
1, 31107, Note_on_c, 0, 58, 100
1, 31128, Note_off_c, 0, 58, 100
1, 31128, Note_on_c, 0, 56, 100
1, 31149, Note_off_c, 0, 56, 100
1, 31149, Note_on_c, 0, 54, 100
1, 31170, Note_off_c, 0, 54, 100
1, 31170, Note_on_c, 0, 53, 100
1, 31191, Note_off_c, 0, 53, 100
1, 31191, Note_on_c, 0, 52, 100
1, 31212, Note_off_c, 0, 52, 100
1, 31212, Note_on_c, 0, 50, 100
1, 31233, Note_off_c, 0, 50, 100
1, 31233, Note_on_c, 0, 51, 100
1, 31254, Note_off_c, 0, 51, 100
1, 31254, Note_on_c, 0, 53, 100
1, 31278, Note_off_c, 0, 53, 100
1, 31278, Note_on_c, 0, 57, 100
1, 31302, Note_off_c, 0, 57, 100
1, 31302, Note_on_c, 0, 61, 100
1, 31326, Note_off_c, 0, 61, 100
1, 31326, Note_on_c, 0, 60, 100
1, 31350, Note_off_c, 0, 60, 100
1, 31350, Note_on_c, 0, 59, 100
1, 31398, Note_off_c, 0, 59, 100
1, 31398, Note_on_c, 0, 69, 100
1, 31422, Note_off_c, 0, 69, 100
1, 31422, Note_on_c, 0, 66, 100
1, 31473, Note_off_c, 0, 66, 100
1, 31473, Note_on_c, 0, 54, 100
1, 31500, Note_off_c, 0, 54, 100
1, 31500, Note_on_c, 0, 57, 100
1, 31527, Note_off_c, 0, 57, 100
1, 31527, Note_on_c, 0, 62, 100
1, 31554, Note_off_c, 0, 62, 100
1, 31554, Note_on_c, 0, 63, 100
1, 31581, Note_off_c, 0, 63, 100
1, 31581, Note_on_c, 0, 65, 100
1, 31608, Note_off_c, 0, 65, 100
1, 31608, Note_on_c, 0, 65, 100
1, 31635, Note_off_c, 0, 65, 100
1, 31635, Note_on_c, 0, 61, 100
1, 31827, Note_off_c, 0, 61, 100
1, 31827, Note_on_c, 0, 69, 100
1, 31851, Note_off_c, 0, 69, 100
1, 31851, Note_on_c, 0, 66, 100
1, 31875, Note_off_c, 0, 66, 100
1, 31875, Note_on_c, 0, 69, 100
1, 31899, Note_off_c, 0, 69, 100
1, 31899, Note_on_c, 0, 71, 100
1, 31923, Note_off_c, 0, 71, 100
1, 31923, Note_on_c, 0, 70, 100
1, 31947, Note_off_c, 0, 70, 100
1, 31947, Note_on_c, 0, 68, 100
1, 31995, Note_off_c, 0, 68, 100
1, 31995, Note_on_c, 0, 65, 100
1, 32168, Note_off_c, 0, 65, 100
1, 32168, Note_on_c, 0, 66, 100
1, 32189, Note_off_c, 0, 66, 100
1, 32189, Note_on_c, 0, 68, 100
1, 32210, Note_off_c, 0, 68, 100
1, 32210, Note_on_c, 0, 70, 100
1, 32248, Note_off_c, 0, 70, 100
1, 32248, Note_on_c, 0, 63, 100
1, 32286, Note_off_c, 0, 63, 100
1, 32286, Note_on_c, 0, 65, 100
1, 32324, Note_off_c, 0, 65, 100
1, 32324, Note_on_c, 0, 69, 100
1, 32400, Note_off_c, 0, 69, 100
1, 32400, Note_on_c, 0, 67, 100
1, 32448, Note_off_c, 0, 67, 100
1, 32448, Note_on_c, 0, 64, 100
1, 32496, Note_off_c, 0, 64, 100
1, 32496, Note_on_c, 0, 63, 100
1, 32688, Note_off_c, 0, 63, 100
1, 32688, Note_on_c, 0, 62, 100
1, 32784, Note_off_c, 0, 62, 100
1, 32784, Note_on_c, 0, 62, 100
1, 32880, Note_off_c, 0, 62, 100
1, 32880, Note_on_c, 0, 63, 100
1, 32928, Note_off_c, 0, 63, 100
1, 32928, Note_on_c, 0, 55, 100
1, 33120, Note_off_c, 0, 55, 100
1, 33120, Note_on_c, 0, 62, 100
1, 33216, Note_off_c, 0, 62, 100
1, 33216, Note_on_c, 0, 62, 100
1, 33312, Note_off_c, 0, 62, 100
1, 33456, Note_on_c, 0, 58, 100
1, 33552, Note_off_c, 0, 58, 100
1, 33552, Note_on_c, 0, 60, 100
1, 33648, Note_off_c, 0, 60, 100
1, 33648, Note_on_c, 0, 72, 100
1, 33696, Note_off_c, 0, 72, 100
1, 33696, Note_on_c, 0, 60, 100
1, 33808, Note_off_c, 0, 60, 100
1, 33808, Note_on_c, 0, 60, 100
1, 33872, Note_off_c, 0, 60, 100
1, 33872, Note_on_c, 0, 60, 100
1, 33936, Note_off_c, 0, 60, 100
1, 33936, Note_on_c, 0, 60, 100
1, 34000, Note_off_c, 0, 60, 100
1, 34000, Note_on_c, 0, 60, 100
1, 34064, Note_off_c, 0, 60, 100
1, 34064, Note_on_c, 0, 60, 100
1, 34272, Note_off_c, 0, 60, 100
1, 34272, Note_on_c, 0, 60, 100
1, 34416, Note_off_c, 0, 60, 100
1, 34416, Note_on_c, 0, 62, 100
1, 34512, Note_off_c, 0, 62, 100
1, 34512, Note_on_c, 0, 63, 100
1, 34704, Note_off_c, 0, 63, 100
1, 34704, Note_on_c, 0, 65, 100
1, 34800, Note_off_c, 0, 65, 100
1, 34800, Note_on_c, 0, 67, 100
1, 34896, Note_off_c, 0, 67, 100
1, 34896, Note_on_c, 0, 66, 100
1, 34992, Note_off_c, 0, 66, 100
1, 34992, Note_on_c, 0, 65, 100
1, 35088, Note_off_c, 0, 65, 100
1, 35088, Note_on_c, 0, 63, 100
1, 35184, Note_off_c, 0, 63, 100
1, 35184, Note_on_c, 0, 60, 100
1, 35253, Note_off_c, 0, 60, 100
1, 35253, End_track
0, 0, End_of_file
