0, 0, Header, 1, 1, 192
1, 0, Start_track
1, 0, Title_t, "Melody"
1, 0, Tempo, 342857
1, 0, Key_signature, -1, "major"
1, 0, Time_signature, 4, 2, 24, 8
1, 192, Note_on_c, 0, 62, 100
1, 320, Note_off_c, 0, 62, 100
1, 320, Note_on_c, 0, 65, 100
1, 479, Note_off_c, 0, 65, 100
1, 479, Note_on_c, 0, 69, 100
1, 575, Note_off_c, 0, 69, 100
1, 575, Note_on_c, 0, 72, 100
1, 671, Note_off_c, 0, 72, 100
1, 671, Note_on_c, 0, 71, 100
1, 767, Note_off_c, 0, 71, 100
1, 767, Note_on_c, 0, 70, 100
1, 863, Note_off_c, 0, 70, 100
1, 863, Note_on_c, 0, 69, 100
1, 959, Note_off_c, 0, 69, 100
1, 959, Note_on_c, 0, 67, 100
1, 1055, Note_off_c, 0, 67, 100
1, 1055, Note_on_c, 0, 65, 100
1, 1151, Note_off_c, 0, 65, 100
1, 1151, Note_on_c, 0, 64, 100
1, 1247, Note_off_c, 0, 64, 100
1, 1247, Note_on_c, 0, 65, 100
1, 1439, Note_off_c, 0, 65, 100
1, 1439, Note_on_c, 0, 69, 100
1, 1535, Note_off_c, 0, 69, 100
1, 1535, Note_on_c, 0, 74, 100
1, 1631, Note_off_c, 0, 74, 100
1, 1631, Note_on_c, 0, 72, 100
1, 1727, Note_off_c, 0, 72, 100
1, 1727, Note_on_c, 0, 70, 100
1, 1823, Note_off_c, 0, 70, 100
1, 1823, Note_on_c, 0, 69, 100
1, 1919, Note_off_c, 0, 69, 100
1, 1919, Note_on_c, 0, 67, 100
1, 2015, Note_off_c, 0, 67, 100
1, 2015, Note_on_c, 0, 65, 100
1, 2063, Note_off_c, 0, 65, 100
1, 2063, Note_on_c, 0, 64, 100
1, 2207, Note_off_c, 0, 64, 100
1, 2207, Note_on_c, 0, 62, 100
1, 2303, Note_off_c, 0, 62, 100
1, 2303, Note_on_c, 0, 60, 100
1, 2399, Note_off_c, 0, 60, 100
1, 2399, Note_on_c, 0, 58, 100
1, 2495, Note_off_c, 0, 58, 100
1, 2495, Note_on_c, 0, 56, 100
1, 2591, Note_off_c, 0, 56, 100
1, 2591, Note_on_c, 0, 60, 100
1, 2783, Note_off_c, 0, 60, 100
1, 2783, Note_on_c, 0, 63, 100
1, 2879, Note_off_c, 0, 63, 100
1, 2879, Note_on_c, 0, 67, 100
1, 3023, Note_off_c, 0, 67, 100
1, 3023, Note_on_c, 0, 59, 100
1, 3167, Note_off_c, 0, 59, 100
1, 3167, Note_on_c, 0, 66, 100
1, 3263, Note_off_c, 0, 66, 100
1, 3263, Note_on_c, 0, 64, 100
1, 3359, Note_off_c, 0, 64, 100
1, 3359, Note_on_c, 0, 62, 100
1, 3455, Note_off_c, 0, 62, 100
1, 3455, Note_on_c, 0, 60, 100
1, 3551, Note_off_c, 0, 60, 100
1, 3551, Note_on_c, 0, 59, 100
1, 3647, Note_off_c, 0, 59, 100
1, 3647, Note_on_c, 0, 57, 100
1, 3743, Note_off_c, 0, 57, 100
1, 3743, Note_on_c, 0, 55, 100
1, 3839, Note_off_c, 0, 55, 100
1, 3839, Note_on_c, 0, 54, 100
1, 3935, Note_off_c, 0, 54, 100
1, 3935, Note_on_c, 0, 57, 100
1, 4031, Note_off_c, 0, 57, 100
1, 4031, Note_on_c, 0, 61, 100
1, 4127, Note_off_c, 0, 61, 100
1, 4127, Note_on_c, 0, 64, 100
1, 4223, Note_off_c, 0, 64, 100
1, 4223, Note_on_c, 0, 68, 100
1, 4319, Note_off_c, 0, 68, 100
1, 4319, Note_on_c, 0, 66, 100
1, 4415, Note_off_c, 0, 66, 100
1, 4415, Note_on_c, 0, 63, 100
1, 4479, Note_off_c, 0, 63, 100
1, 4479, Note_on_c, 0, 64, 100
1, 4543, Note_off_c, 0, 64, 100
1, 4543, Note_on_c, 0, 67, 100
1, 4607, Note_off_c, 0, 67, 100
1, 4607, Note_on_c, 0, 72, 100
1, 4799, Note_off_c, 0, 72, 100
1, 5375, Note_on_c, 0, 69, 100
1, 5471, Note_off_c, 0, 69, 100
1, 5471, Note_on_c, 0, 70, 100
1, 5519, Note_off_c, 0, 70, 100
1, 5519, Note_on_c, 0, 72, 100
1, 5663, Note_off_c, 0, 72, 100
1, 5663, Note_on_c, 0, 74, 100
1, 5759, Note_off_c, 0, 74, 100
1, 5759, Note_on_c, 0, 75, 100
1, 5951, Note_off_c, 0, 75, 100
1, 5951, Note_on_c, 0, 72, 100
1, 6143, Note_off_c, 0, 72, 100
1, 6143, Note_on_c, 0, 74, 100
1, 6239, Note_off_c, 0, 74, 100
1, 6239, Note_on_c, 0, 72, 100
1, 6335, Note_off_c, 0, 72, 100
1, 6335, Note_on_c, 0, 70, 100
1, 6431, Note_off_c, 0, 70, 100
1, 6431, Note_on_c, 0, 69, 100
1, 6527, Note_off_c, 0, 69, 100
1, 6527, Note_on_c, 0, 67, 100
1, 6623, Note_off_c, 0, 67, 100
1, 6623, Note_on_c, 0, 65, 100
1, 6719, Note_off_c, 0, 65, 100
1, 6719, Note_on_c, 0, 64, 100
1, 6815, Note_off_c, 0, 64, 100
1, 6815, Note_on_c, 0, 65, 100
1, 6911, Note_off_c, 0, 65, 100
1, 6911, Note_on_c, 0, 67, 100
1, 7007, Note_off_c, 0, 67, 100
1, 7007, Note_on_c, 0, 69, 100
1, 7103, Note_off_c, 0, 69, 100
1, 7103, Note_on_c, 0, 70, 100
1, 7199, Note_off_c, 0, 70, 100
1, 7199, Note_on_c, 0, 72, 100
1, 7295, Note_off_c, 0, 72, 100
1, 7295, Note_on_c, 0, 73, 100
1, 7391, Note_off_c, 0, 73, 100
1, 7391, Note_on_c, 0, 69, 100
1, 7487, Note_off_c, 0, 69, 100
1, 7487, Note_on_c, 0, 64, 100
1, 7583, Note_off_c, 0, 64, 100
1, 7583, Note_on_c, 0, 61, 100
1, 7871, Note_off_c, 0, 61, 100
1, 7871, Note_on_c, 0, 64, 100
1, 7967, Note_off_c, 0, 64, 100
1, 7967, Note_on_c, 0, 61, 100
1, 8063, Note_off_c, 0, 61, 100
1, 8063, Note_on_c, 0, 64, 100
1, 8159, Note_off_c, 0, 64, 100
1, 8159, Note_on_c, 0, 61, 100
1, 8255, Note_off_c, 0, 61, 100
1, 8255, Note_on_c, 0, 60, 100
1, 8639, Note_off_c, 0, 60, 100
1, 9215, Note_on_c, 0, 62, 100
1, 9311, Note_off_c, 0, 62, 100
1, 9311, Note_on_c, 0, 60, 100
1, 9407, Note_off_c, 0, 60, 100
1, 9407, Note_on_c, 0, 59, 100
1, 9503, Note_off_c, 0, 59, 100
1, 9503, Note_on_c, 0, 62, 100
1, 9599, Note_off_c, 0, 62, 100
1, 9599, Note_on_c, 0, 66, 100
1, 9695, Note_off_c, 0, 66, 100
1, 9695, Note_on_c, 0, 64, 100
1, 9791, Note_off_c, 0, 64, 100
1, 9791, Note_on_c, 0, 62, 100
1, 9887, Note_off_c, 0, 62, 100
1, 9887, Note_on_c, 0, 60, 100
1, 9983, Note_off_c, 0, 60, 100
1, 9983, Note_on_c, 0, 59, 100
1, 10079, Note_off_c, 0, 59, 100
1, 10079, Note_on_c, 0, 57, 100
1, 10175, Note_off_c, 0, 57, 100
1, 10175, Note_on_c, 0, 56, 100
1, 10271, Note_off_c, 0, 56, 100
1, 10271, Note_on_c, 0, 59, 100
1, 10367, Note_off_c, 0, 59, 100
1, 10367, Note_on_c, 0, 64, 100
1, 10463, Note_off_c, 0, 64, 100
1, 10463, Note_on_c, 0, 63, 100
1, 10559, Note_off_c, 0, 63, 100
1, 10559, Note_on_c, 0, 61, 100
1, 10655, Note_off_c, 0, 61, 100
1, 10655, Note_on_c, 0, 60, 100
1, 10751, Note_off_c, 0, 60, 100
1, 10751, Note_on_c, 0, 58, 100
1, 10847, Note_off_c, 0, 58, 100
1, 10847, Note_on_c, 0, 57, 100
1, 10943, Note_off_c, 0, 57, 100
1, 10943, Note_on_c, 0, 55, 100
1, 11039, Note_off_c, 0, 55, 100
1, 11039, Note_on_c, 0, 53, 100
1, 11135, Note_off_c, 0, 53, 100
1, 11135, Note_on_c, 0, 52, 100
1, 11199, Note_off_c, 0, 52, 100
1, 11199, Note_on_c, 0, 53, 100
1, 11263, Note_off_c, 0, 53, 100
1, 11263, Note_on_c, 0, 57, 100
1, 11327, Note_off_c, 0, 57, 100
1, 11327, Note_on_c, 0, 62, 100
1, 11423, Note_off_c, 0, 62, 100
1, 11423, Note_on_c, 0, 55, 100
1, 11471, Note_off_c, 0, 55, 100
1, 11471, Note_on_c, 0, 57, 100
1, 11519, Note_off_c, 0, 57, 100
1, 11519, Note_on_c, 0, 60, 100
1, 11583, Note_off_c, 0, 60, 100
1, 11583, Note_on_c, 0, 64, 100
1, 11647, Note_off_c, 0, 64, 100
1, 11647, Note_on_c, 0, 67, 100
1, 11711, Note_off_c, 0, 67, 100
1, 11711, Note_on_c, 0, 65, 100
1, 11807, Note_off_c, 0, 65, 100
1, 11807, Note_on_c, 0, 64, 100
1, 11903, Note_off_c, 0, 64, 100
1, 11903, Note_on_c, 0, 62, 100
1, 11951, Note_off_c, 0, 62, 100
1, 11951, Note_on_c, 0, 60, 100
1, 11999, Note_off_c, 0, 60, 100
1, 11999, Note_on_c, 0, 58, 100
1, 12047, Note_off_c, 0, 58, 100
1, 12047, Note_on_c, 0, 57, 100
1, 12159, Note_off_c, 0, 57, 100
1, 12159, Note_on_c, 0, 55, 100
1, 12223, Note_off_c, 0, 55, 100
1, 12223, Note_on_c, 0, 53, 100
1, 12287, Note_off_c, 0, 53, 100
1, 12287, Note_on_c, 0, 51, 100
1, 12505, Note_off_c, 0, 51, 100
1, 12505, End_track
0, 0, End_of_file
