0, 0, Header, 1, 1, 192
1, 0, Start_track
1, 0, Title_t, "Melody"
1, 0, Tempo, 222222
1, 0, Time_signature, 4, 2, 24, 8
1, 288, Note_on_c, 0, 67, 100
1, 576, Note_off_c, 0, 67, 100
1, 576, Note_on_c, 0, 67, 100
1, 912, Note_off_c, 0, 67, 100
1, 912, Note_on_c, 0, 67, 100
1, 1152, Note_off_c, 0, 67, 100
1, 1152, Note_on_c, 0, 67, 100
1, 1408, Note_off_c, 0, 67, 100
1, 1408, Note_on_c, 0, 67, 100
1, 1680, Note_off_c, 0, 67, 100
1, 1680, Note_on_c, 0, 65, 100
1, 1776, Note_off_c, 0, 65, 100
1, 1776, Note_on_c, 0, 63, 100
1, 1872, Note_off_c, 0, 63, 100
1, 1872, Note_on_c, 0, 60, 100
1, 2112, Note_off_c, 0, 60, 100
1, 2112, Note_on_c, 0, 63, 100
1, 2208, Note_off_c, 0, 63, 100
1, 2208, Note_on_c, 0, 61, 100
1, 2256, Note_off_c, 0, 61, 100
1, 2256, Note_on_c, 0, 62, 100
1, 2880, Note_off_c, 0, 62, 100
1, 2880, Note_on_c, 0, 60, 100
1, 2976, Note_off_c, 0, 60, 100
1, 2976, Note_on_c, 0, 58, 100
1, 3072, Note_off_c, 0, 58, 100
1, 3072, Note_on_c, 0, 55, 100
1, 3264, Note_off_c, 0, 55, 100
1, 3264, Note_on_c, 0, 58, 100
1, 3360, Note_off_c, 0, 58, 100
1, 3360, Note_on_c, 0, 55, 100
1, 3648, Note_off_c, 0, 55, 100
1, 3648, Note_on_c, 0, 53, 100
1, 3744, Note_off_c, 0, 53, 100
1, 3744, Note_on_c, 0, 50, 100
1, 3840, Note_off_c, 0, 50, 100
1, 3840, Note_on_c, 0, 53, 100
1, 4032, Note_off_c, 0, 53, 100
1, 4032, Note_on_c, 0, 55, 100
1, 4128, Note_off_c, 0, 55, 100
1, 4128, Note_on_c, 0, 58, 100
1, 4416, Note_off_c, 0, 58, 100
1, 5760, Note_on_c, 0, 51, 100
1, 5856, Note_off_c, 0, 51, 100
1, 5856, Note_on_c, 0, 53, 100
1, 5952, Note_off_c, 0, 53, 100
1, 5952, Note_on_c, 0, 56, 100
1, 6048, Note_off_c, 0, 56, 100
1, 6048, Note_on_c, 0, 59, 100
1, 6144, Note_off_c, 0, 59, 100
1, 6144, Note_on_c, 0, 53, 100
1, 6240, Note_off_c, 0, 53, 100
1, 6240, Note_on_c, 0, 56, 100
1, 6336, Note_off_c, 0, 56, 100
1, 6336, Note_on_c, 0, 59, 100
1, 6432, Note_off_c, 0, 59, 100
1, 6432, Note_on_c, 0, 63, 100
1, 6528, Note_off_c, 0, 63, 100
1, 6528, Note_on_c, 0, 59, 100
1, 6624, Note_off_c, 0, 59, 100
1, 6624, Note_on_c, 0, 63, 100
1, 6720, Note_off_c, 0, 63, 100
1, 6720, Note_on_c, 0, 65, 100
1, 6816, Note_off_c, 0, 65, 100
1, 6816, Note_on_c, 0, 68, 100
1, 6912, Note_off_c, 0, 68, 100
1, 6912, Note_on_c, 0, 63, 100
1, 7008, Note_off_c, 0, 63, 100
1, 7008, Note_on_c, 0, 65, 100
1, 7104, Note_off_c, 0, 65, 100
1, 7104, Note_on_c, 0, 68, 100
1, 7200, Note_off_c, 0, 68, 100
1, 7200, Note_on_c, 0, 71, 100
1, 7296, Note_off_c, 0, 71, 100
1, 7296, Note_on_c, 0, 75, 100
1, 7552, Note_off_c, 0, 75, 100
1, 7552, Note_on_c, 0, 73, 100
1, 7616, Note_off_c, 0, 73, 100
1, 7616, Note_on_c, 0, 71, 100
1, 7680, Note_off_c, 0, 71, 100
1, 7680, Note_on_c, 0, 70, 100
1, 7872, Note_off_c, 0, 70, 100
1, 7872, Note_on_c, 0, 68, 100
1, 8064, Note_off_c, 0, 68, 100
1, 8064, Note_on_c, 0, 63, 100
1, 8256, Note_off_c, 0, 63, 100
1, 8256, Note_on_c, 0, 65, 100
1, 8448, Note_off_c, 0, 65, 100
1, 8448, Note_on_c, 0, 67, 100
1, 8544, Note_off_c, 0, 67, 100
1, 8544, Note_on_c, 0, 70, 100
1, 8704, Note_off_c, 0, 70, 100
1, 8704, Note_on_c, 0, 70, 100
1, 8768, Note_off_c, 0, 70, 100
1, 8768, Note_on_c, 0, 72, 100
1, 8880, Note_off_c, 0, 72, 100
1, 8880, Note_on_c, 0, 67, 100
1, 9120, Note_off_c, 0, 67, 100
1, 9120, Note_on_c, 0, 63, 100
1, 9504, Note_off_c, 0, 63, 100
1, 9504, Note_on_c, 0, 58, 100
1, 9600, Note_off_c, 0, 58, 100
1, 9600, Note_on_c, 0, 65, 100
1, 9696, Note_off_c, 0, 65, 100
1, 9696, Note_on_c, 0, 61, 100
1, 9792, Note_off_c, 0, 61, 100
1, 9792, Note_on_c, 0, 58, 100
1, 9888, Note_off_c, 0, 58, 100
1, 9888, Note_on_c, 0, 53, 100
1, 9984, Note_off_c, 0, 53, 100
1, 9984, Note_on_c, 0, 56, 100
1, 10080, Note_off_c, 0, 56, 100
1, 10080, Note_on_c, 0, 54, 100
1, 10176, Note_off_c, 0, 54, 100
1, 10176, Note_on_c, 0, 55, 100
1, 10272, Note_off_c, 0, 55, 100
1, 10272, Note_on_c, 0, 63, 100
1, 10560, Note_off_c, 0, 63, 100
1, 11136, Note_on_c, 0, 75, 100
1, 11264, Note_off_c, 0, 75, 100
1, 11264, Note_on_c, 0, 76, 100
1, 11328, Note_off_c, 0, 76, 100
1, 11328, Note_on_c, 0, 77, 100
1, 11424, Note_off_c, 0, 77, 100
1, 11424, Note_on_c, 0, 76, 100
1, 11520, Note_off_c, 0, 76, 100
1, 11520, Note_on_c, 0, 75, 100
1, 11616, Note_off_c, 0, 75, 100
1, 11616, Note_on_c, 0, 70, 100
1, 11712, Note_off_c, 0, 70, 100
1, 11712, Note_on_c, 0, 67, 100
1, 11808, Note_off_c, 0, 67, 100
1, 11808, Note_on_c, 0, 63, 100
1, 11904, Note_off_c, 0, 63, 100
1, 11904, Note_on_c, 0, 68, 100
1, 12000, Note_off_c, 0, 68, 100
1, 12000, Note_on_c, 0, 70, 100
1, 12096, Note_off_c, 0, 70, 100
1, 12096, Note_on_c, 0, 66, 100
1, 12192, Note_off_c, 0, 66, 100
1, 12192, Note_on_c, 0, 67, 100
1, 12288, Note_off_c, 0, 67, 100
1, 12288, Note_on_c, 0, 63, 100
1, 12480, Note_off_c, 0, 63, 100
1, 12480, Note_on_c, 0, 65, 100
1, 13056, Note_off_c, 0, 65, 100
1, 13056, Note_on_c, 0, 65, 100
1, 13440, Note_off_c, 0, 65, 100
1, 13440, Note_on_c, 0, 65, 100
1, 13536, Note_off_c, 0, 65, 100
1, 13536, Note_on_c, 0, 70, 100
1, 13632, Note_off_c, 0, 70, 100
1, 13632, Note_on_c, 0, 67, 100
1, 13728, Note_off_c, 0, 67, 100
1, 13728, Note_on_c, 0, 65, 100
1, 13824, Note_off_c, 0, 65, 100
1, 13824, Note_on_c, 0, 63, 100
1, 13920, Note_off_c, 0, 63, 100
1, 13920, Note_on_c, 0, 65, 100
1, 14016, Note_off_c, 0, 65, 100
1, 14016, Note_on_c, 0, 67, 100
1, 14112, Note_off_c, 0, 67, 100
1, 14112, Note_on_c, 0, 63, 100
1, 14208, Note_off_c, 0, 63, 100
1, 14208, Note_on_c, 0, 65, 100
1, 14304, Note_off_c, 0, 65, 100
1, 14304, Note_on_c, 0, 64, 100
1, 14400, Note_off_c, 0, 64, 100
1, 14400, Note_on_c, 0, 63, 100
1, 14496, Note_off_c, 0, 63, 100
1, 14496, Note_on_c, 0, 67, 100
1, 14592, Note_off_c, 0, 67, 100
1, 14592, Note_on_c, 0, 65, 100
1, 14688, Note_off_c, 0, 65, 100
1, 14688, Note_on_c, 0, 62, 100
1, 14784, Note_off_c, 0, 62, 100
1, 14784, Note_on_c, 0, 58, 100
1, 14880, Note_off_c, 0, 58, 100
1, 14880, Note_on_c, 0, 55, 100
1, 14976, Note_off_c, 0, 55, 100
1, 14976, Note_on_c, 0, 63, 100
1, 15072, Note_off_c, 0, 63, 100
1, 15072, Note_on_c, 0, 65, 100
1, 15168, Note_off_c, 0, 65, 100
1, 15168, Note_on_c, 0, 62, 100
1, 15264, Note_off_c, 0, 62, 100
1, 15264, Note_on_c, 0, 60, 100
1, 15360, Note_off_c, 0, 60, 100
1, 15360, Note_on_c, 0, 58, 100
1, 15456, Note_off_c, 0, 58, 100
1, 15456, Note_on_c, 0, 60, 100
1, 15552, Note_off_c, 0, 60, 100
1, 15552, Note_on_c, 0, 62, 100
1, 15648, Note_off_c, 0, 62, 100
1, 15648, Note_on_c, 0, 58, 100
1, 15744, Note_off_c, 0, 58, 100
1, 15744, Note_on_c, 0, 60, 100
1, 15840, Note_off_c, 0, 60, 100
1, 15840, Note_on_c, 0, 58, 100
1, 15936, Note_off_c, 0, 58, 100
1, 15936, Note_on_c, 0, 55, 100
1, 16032, Note_off_c, 0, 55, 100
1, 16032, Note_on_c, 0, 53, 100
1, 16128, Note_off_c, 0, 53, 100
1, 16128, Note_on_c, 0, 58, 100
1, 16416, Note_off_c, 0, 58, 100
1, 17376, Note_on_c, 0, 51, 100
1, 17472, Note_off_c, 0, 51, 100
1, 17472, Note_on_c, 0, 53, 100
1, 17536, Note_off_c, 0, 53, 100
1, 17536, Note_on_c, 0, 56, 100
1, 17600, Note_off_c, 0, 56, 100
1, 17600, Note_on_c, 0, 59, 100
1, 17664, Note_off_c, 0, 59, 100
1, 17664, Note_on_c, 0, 53, 100
1, 17952, Note_off_c, 0, 53, 100
1, 17952, Note_on_c, 0, 53, 100
1, 18048, Note_off_c, 0, 53, 100
1, 18048, Note_on_c, 0, 56, 100
1, 18144, Note_off_c, 0, 56, 100
1, 18144, Note_on_c, 0, 59, 100
1, 18192, Note_off_c, 0, 59, 100
1, 18192, Note_on_c, 0, 63, 100
1, 18240, Note_off_c, 0, 63, 100
1, 18240, Note_on_c, 0, 56, 100
1, 18336, Note_off_c, 0, 56, 100
1, 18624, Note_on_c, 0, 56, 100
1, 18688, Note_off_c, 0, 56, 100
1, 18688, Note_on_c, 0, 59, 100
1, 18752, Note_off_c, 0, 59, 100
1, 18752, Note_on_c, 0, 63, 100
1, 18816, Note_off_c, 0, 63, 100
1, 18816, Note_on_c, 0, 64, 100
1, 18864, Note_off_c, 0, 64, 100
1, 18864, Note_on_c, 0, 59, 100
1, 19104, Note_off_c, 0, 59, 100
1, 19104, Note_on_c, 0, 59, 100
1, 19200, Note_off_c, 0, 59, 100
1, 19200, Note_on_c, 0, 63, 100
1, 19264, Note_off_c, 0, 63, 100
1, 19264, Note_on_c, 0, 65, 100
1, 19328, Note_off_c, 0, 65, 100
1, 19328, Note_on_c, 0, 68, 100
1, 19392, Note_off_c, 0, 68, 100
1, 19392, Note_on_c, 0, 63, 100
1, 19680, Note_off_c, 0, 63, 100
1, 19680, Note_on_c, 0, 63, 100
1, 19728, Note_off_c, 0, 63, 100
1, 19728, Note_on_c, 0, 65, 100
1, 19776, Note_off_c, 0, 65, 100
1, 19776, Note_on_c, 0, 68, 100
1, 19872, Note_off_c, 0, 68, 100
1, 19872, Note_on_c, 0, 71, 100
1, 19968, Note_off_c, 0, 71, 100
1, 19968, Note_on_c, 0, 65, 100
1, 20256, Note_off_c, 0, 65, 100
1, 20256, Note_on_c, 0, 65, 100
1, 20352, Note_off_c, 0, 65, 100
1, 20352, Note_on_c, 0, 68, 100
1, 20400, Note_off_c, 0, 68, 100
1, 20400, Note_on_c, 0, 71, 100
1, 20448, Note_off_c, 0, 71, 100
1, 20448, Note_on_c, 0, 75, 100
1, 20544, Note_off_c, 0, 75, 100
1, 21120, Note_on_c, 0, 75, 100
1, 21216, Note_off_c, 0, 75, 100
1, 21216, Note_on_c, 0, 73, 100
1, 21264, Note_off_c, 0, 73, 100
1, 21264, Note_on_c, 0, 71, 100
1, 21312, Note_off_c, 0, 71, 100
1, 21312, Note_on_c, 0, 70, 100
1, 21408, Note_off_c, 0, 70, 100
1, 21408, Note_on_c, 0, 69, 100
1, 21504, Note_off_c, 0, 69, 100
1, 21504, Note_on_c, 0, 68, 100
1, 21696, Note_off_c, 0, 68, 100
1, 21888, Note_on_c, 0, 66, 100
1, 21984, Note_off_c, 0, 66, 100
1, 21984, Note_on_c, 0, 67, 100
1, 22080, Note_off_c, 0, 67, 100
1, 22080, Note_on_c, 0, 68, 100
1, 22176, Note_off_c, 0, 68, 100
1, 22176, Note_on_c, 0, 66, 100
1, 22272, Note_off_c, 0, 66, 100
1, 22272, Note_on_c, 0, 67, 100
1, 22368, Note_off_c, 0, 67, 100
1, 22368, Note_on_c, 0, 66, 100
1, 22464, Note_off_c, 0, 66, 100
1, 22464, Note_on_c, 0, 65, 100
1, 22560, Note_off_c, 0, 65, 100
1, 22560, Note_on_c, 0, 64, 100
1, 22656, Note_off_c, 0, 64, 100
1, 22656, Note_on_c, 0, 63, 100
1, 22752, Note_off_c, 0, 63, 100
1, 22752, Note_on_c, 0, 65, 100
1, 22848, Note_off_c, 0, 65, 100
1, 22848, Note_on_c, 0, 67, 100
1, 22944, Note_off_c, 0, 67, 100
1, 22944, Note_on_c, 0, 63, 100
1, 23040, Note_off_c, 0, 63, 100
1, 23040, Note_on_c, 0, 65, 100
1, 23088, Note_off_c, 0, 65, 100
1, 23088, Note_on_c, 0, 64, 100
1, 23184, Note_off_c, 0, 64, 100
1, 23184, Note_on_c, 0, 63, 100
1, 23328, Note_off_c, 0, 63, 100
1, 23328, Note_on_c, 0, 67, 100
1, 23424, Note_off_c, 0, 67, 100
1, 23424, Note_on_c, 0, 65, 100
1, 23520, Note_off_c, 0, 65, 100
1, 23520, Note_on_c, 0, 62, 100
1, 23616, Note_off_c, 0, 62, 100
1, 23616, Note_on_c, 0, 58, 100
1, 23712, Note_off_c, 0, 58, 100
1, 23712, Note_on_c, 0, 56, 100
1, 23808, Note_off_c, 0, 56, 100
1, 23808, Note_on_c, 0, 65, 100
1, 23904, Note_off_c, 0, 65, 100
1, 23904, Note_on_c, 0, 67, 100
1, 24000, Note_off_c, 0, 67, 100
1, 24000, Note_on_c, 0, 68, 100
1, 24096, Note_off_c, 0, 68, 100
1, 24096, Note_on_c, 0, 70, 100
1, 24192, Note_off_c, 0, 70, 100
1, 24192, Note_on_c, 0, 67, 100
1, 24288, Note_off_c, 0, 67, 100
1, 24288, Note_on_c, 0, 70, 100
1, 24384, Note_off_c, 0, 70, 100
1, 24384, Note_on_c, 0, 68, 100
1, 24480, Note_off_c, 0, 68, 100
1, 24480, Note_on_c, 0, 64, 100
1, 24576, Note_off_c, 0, 64, 100
1, 24576, Note_on_c, 0, 67, 100
1, 24672, Note_off_c, 0, 67, 100
1, 24672, Note_on_c, 0, 66, 100
1, 24768, Note_off_c, 0, 66, 100
1, 24768, Note_on_c, 0, 65, 100
1, 24864, Note_off_c, 0, 65, 100
1, 24864, Note_on_c, 0, 64, 100
1, 24960, Note_off_c, 0, 64, 100
1, 24960, Note_on_c, 0, 63, 100
1, 25056, Note_off_c, 0, 63, 100
1, 25056, Note_on_c, 0, 60, 100
1, 25152, Note_off_c, 0, 60, 100
1, 25152, Note_on_c, 0, 58, 100
1, 25248, Note_off_c, 0, 58, 100
1, 25248, Note_on_c, 0, 56, 100
1, 25296, Note_off_c, 0, 56, 100
1, 25296, Note_on_c, 0, 60, 100
1, 25728, Note_off_c, 0, 60, 100
1, 25728, Note_on_c, 0, 60, 100
1, 26016, Note_off_c, 0, 60, 100
1, 26016, Note_on_c, 0, 67, 100
1, 26256, Note_off_c, 0, 67, 100
1, 26256, Note_on_c, 0, 65, 100
1, 26400, Note_off_c, 0, 65, 100
1, 26400, Note_on_c, 0, 63, 100
1, 26496, Note_off_c, 0, 63, 100
1, 26496, Note_on_c, 0, 62, 100
1, 26688, Note_off_c, 0, 62, 100
1, 26688, Note_on_c, 0, 60, 100
1, 26880, Note_off_c, 0, 60, 100
1, 28032, Note_on_c, 0, 51, 100
1, 28128, Note_off_c, 0, 51, 100
1, 28128, Note_on_c, 0, 53, 100
1, 28224, Note_off_c, 0, 53, 100
1, 28224, Note_on_c, 0, 56, 100
1, 28320, Note_off_c, 0, 56, 100
1, 28320, Note_on_c, 0, 59, 100
1, 28416, Note_off_c, 0, 59, 100
1, 28416, Note_on_c, 0, 55, 100
1, 28512, Note_off_c, 0, 55, 100
1, 28512, Note_on_c, 0, 56, 100
1, 28608, Note_off_c, 0, 56, 100
1, 28608, Note_on_c, 0, 59, 100
1, 28704, Note_off_c, 0, 59, 100
1, 28704, Note_on_c, 0, 63, 100
1, 28800, Note_off_c, 0, 63, 100
1, 28800, Note_on_c, 0, 67, 100
1, 28896, Note_off_c, 0, 67, 100
1, 28896, Note_on_c, 0, 63, 100
1, 28992, Note_off_c, 0, 63, 100
1, 28992, Note_on_c, 0, 65, 100
1, 29088, Note_off_c, 0, 65, 100
1, 29088, Note_on_c, 0, 67, 100
1, 29184, Note_off_c, 0, 67, 100
1, 29184, Note_on_c, 0, 68, 100
1, 29280, Note_off_c, 0, 68, 100
1, 29280, Note_on_c, 0, 70, 100
1, 29376, Note_off_c, 0, 70, 100
1, 29376, Note_on_c, 0, 71, 100
1, 29472, Note_off_c, 0, 71, 100
1, 29472, Note_on_c, 0, 73, 100
1, 29568, Note_off_c, 0, 73, 100
1, 29568, Note_on_c, 0, 75, 100
1, 29824, Note_off_c, 0, 75, 100
1, 29824, Note_on_c, 0, 73, 100
1, 29888, Note_off_c, 0, 73, 100
1, 29888, Note_on_c, 0, 71, 100
1, 29952, Note_off_c, 0, 71, 100
1, 29952, Note_on_c, 0, 70, 100
1, 30144, Note_off_c, 0, 70, 100
1, 30144, Note_on_c, 0, 70, 100
1, 30288, Note_off_c, 0, 70, 100
1, 30288, Note_on_c, 0, 70, 100
1, 30480, Note_off_c, 0, 70, 100
1, 30480, Note_on_c, 0, 75, 100
1, 30672, Note_off_c, 0, 75, 100
1, 30672, Note_on_c, 0, 68, 100
1, 30912, Note_off_c, 0, 68, 100
1, 30912, Note_on_c, 0, 72, 100
1, 31104, Note_off_c, 0, 72, 100
1, 31104, Note_on_c, 0, 67, 100
1, 31392, Note_off_c, 0, 67, 100
1, 31680, Note_on_c, 0, 68, 100
1, 31776, Note_off_c, 0, 68, 100
1, 31776, Note_on_c, 0, 70, 100
1, 31872, Note_off_c, 0, 70, 100
1, 31872, Note_on_c, 0, 67, 100
1, 31968, Note_off_c, 0, 67, 100
1, 31968, Note_on_c, 0, 66, 100
1, 32064, Note_off_c, 0, 66, 100
1, 32064, Note_on_c, 0, 65, 100
1, 32160, Note_off_c, 0, 65, 100
1, 32160, Note_on_c, 0, 64, 100
1, 32256, Note_off_c, 0, 64, 100
1, 32256, Note_on_c, 0, 63, 100
1, 32352, Note_off_c, 0, 63, 100
1, 32352, Note_on_c, 0, 65, 100
1, 32448, Note_off_c, 0, 65, 100
1, 32448, Note_on_c, 0, 67, 100
1, 32544, Note_off_c, 0, 67, 100
1, 32544, Note_on_c, 0, 63, 100
1, 32640, Note_off_c, 0, 63, 100
1, 32640, Note_on_c, 0, 65, 100
1, 32736, Note_off_c, 0, 65, 100
1, 32736, Note_on_c, 0, 64, 100
1, 32832, Note_off_c, 0, 64, 100
1, 32832, Note_on_c, 0, 63, 100
1, 32928, Note_off_c, 0, 63, 100
1, 32928, Note_on_c, 0, 67, 100
1, 33024, Note_off_c, 0, 67, 100
1, 33024, Note_on_c, 0, 65, 100
1, 33120, Note_off_c, 0, 65, 100
1, 33120, Note_on_c, 0, 61, 100
1, 33168, Note_off_c, 0, 61, 100
1, 33168, Note_on_c, 0, 59, 100
1, 33312, Note_off_c, 0, 59, 100
1, 33312, Note_on_c, 0, 56, 100
1, 33408, Note_off_c, 0, 56, 100
1, 33408, Note_on_c, 0, 63, 100
1, 33504, Note_off_c, 0, 63, 100
1, 33504, Note_on_c, 0, 61, 100
1, 33600, Note_off_c, 0, 61, 100
1, 33600, Note_on_c, 0, 59, 100
1, 33696, Note_off_c, 0, 59, 100
1, 33696, Note_on_c, 0, 55, 100
1, 33792, Note_off_c, 0, 55, 100
1, 33792, Note_on_c, 0, 56, 100
1, 34080, Note_off_c, 0, 56, 100
1, 34656, Note_on_c, 0, 47, 100
1, 34752, Note_off_c, 0, 47, 100
1, 34752, Note_on_c, 0, 51, 100
1, 34848, Note_off_c, 0, 51, 100
1, 34848, Note_on_c, 0, 59, 100
1, 34944, Note_off_c, 0, 59, 100
1, 34944, Note_on_c, 0, 49, 100
1, 35040, Note_off_c, 0, 49, 100
1, 35040, Note_on_c, 0, 50, 100
1, 35136, Note_off_c, 0, 50, 100
1, 35136, Note_on_c, 0, 53, 100
1, 35232, Note_off_c, 0, 53, 100
1, 35232, Note_on_c, 0, 52, 100
1, 35328, Note_off_c, 0, 52, 100
1, 35328, Note_on_c, 0, 51, 100
1, 35424, Note_off_c, 0, 51, 100
1, 35424, Note_on_c, 0, 55, 100
1, 35520, Note_off_c, 0, 55, 100
1, 35520, Note_on_c, 0, 59, 100
1, 35616, Note_off_c, 0, 59, 100
1, 35616, Note_on_c, 0, 62, 100
1, 35712, Note_off_c, 0, 62, 100
1, 35712, Note_on_c, 0, 63, 100
1, 35808, Note_off_c, 0, 63, 100
1, 35808, Note_on_c, 0, 62, 100
1, 35904, Note_off_c, 0, 62, 100
1, 35904, Note_on_c, 0, 58, 100
1, 36032, Note_off_c, 0, 58, 100
1, 36032, Note_on_c, 0, 56, 100
1, 36096, Note_off_c, 0, 56, 100
1, 36096, Note_on_c, 0, 63, 100
1, 36144, Note_off_c, 0, 63, 100
1, 36144, Note_on_c, 0, 65, 100
1, 36192, Note_off_c, 0, 65, 100
1, 36192, Note_on_c, 0, 63, 100
1, 36240, Note_off_c, 0, 63, 100
1, 36240, Note_on_c, 0, 60, 100
1, 36288, Note_off_c, 0, 60, 100
1, 36288, Note_on_c, 0, 56, 100
1, 36384, Note_off_c, 0, 56, 100
1, 36384, Note_on_c, 0, 53, 100
1, 36480, Note_off_c, 0, 53, 100
1, 36480, Note_on_c, 0, 58, 100
1, 36528, Note_off_c, 0, 58, 100
1, 36528, Note_on_c, 0, 59, 100
1, 36576, Note_off_c, 0, 59, 100
1, 36576, Note_on_c, 0, 58, 100
1, 36624, Note_off_c, 0, 58, 100
1, 36624, Note_on_c, 0, 55, 100
1, 36672, Note_off_c, 0, 55, 100
1, 36672, Note_on_c, 0, 56, 100
1, 36768, Note_off_c, 0, 56, 100
1, 36768, Note_on_c, 0, 58, 100
1, 36912, Note_off_c, 0, 58, 100
1, 36912, Note_on_c, 0, 60, 100
1, 37008, Note_off_c, 0, 60, 100
1, 37008, Note_on_c, 0, 63, 100
1, 37056, Note_off_c, 0, 63, 100
1, 37056, Note_on_c, 0, 65, 100
1, 37152, Note_off_c, 0, 65, 100
1, 37152, Note_on_c, 0, 67, 100
1, 37248, Note_off_c, 0, 67, 100
1, 37248, Note_on_c, 0, 70, 100
1, 37344, Note_off_c, 0, 70, 100
1, 37344, Note_on_c, 0, 67, 100
1, 37440, Note_off_c, 0, 67, 100
1, 37440, Note_on_c, 0, 68, 100
1, 37536, Note_off_c, 0, 68, 100
1, 37536, Note_on_c, 0, 70, 100
1, 37632, Note_off_c, 0, 70, 100
1, 37632, Note_on_c, 0, 67, 100
1, 37824, Note_off_c, 0, 67, 100
1, 37824, Note_on_c, 0, 63, 100
1, 38016, Note_off_c, 0, 63, 100
1, 38016, Note_on_c, 0, 60, 100
1, 38208, Note_off_c, 0, 60, 100
1, 38208, Note_on_c, 0, 63, 100
1, 38688, Note_off_c, 0, 63, 100
1, 39264, Note_on_c, 0, 46, 100
1, 39360, Note_off_c, 0, 46, 100
1, 39360, Note_on_c, 0, 50, 100
1, 39456, Note_off_c, 0, 50, 100
1, 39456, Note_on_c, 0, 53, 100
1, 39552, Note_off_c, 0, 53, 100
1, 39552, Note_on_c, 0, 52, 100
1, 39648, Note_off_c, 0, 52, 100
1, 39648, Note_on_c, 0, 50, 100
1, 39744, Note_off_c, 0, 50, 100
1, 39744, Note_on_c, 0, 51, 100
1, 39840, Note_off_c, 0, 51, 100
1, 39840, Note_on_c, 0, 53, 100
1, 39888, Note_off_c, 0, 53, 100
1, 39888, Note_on_c, 0, 55, 100
1, 40032, Note_off_c, 0, 55, 100
1, 40032, Note_on_c, 0, 58, 100
1, 40128, Note_off_c, 0, 58, 100
1, 40128, Note_on_c, 0, 57, 100
1, 40224, Note_off_c, 0, 57, 100
1, 40224, Note_on_c, 0, 55, 100
1, 40320, Note_off_c, 0, 55, 100
1, 40320, Note_on_c, 0, 56, 100
1, 40416, Note_off_c, 0, 56, 100
1, 40416, Note_on_c, 0, 55, 100
1, 40464, Note_off_c, 0, 55, 100
1, 40464, Note_on_c, 0, 54, 100
1, 40608, Note_off_c, 0, 54, 100
1, 40608, Note_on_c, 0, 56, 100
1, 40704, Note_off_c, 0, 56, 100
1, 40704, Note_on_c, 0, 55, 100
1, 40800, Note_off_c, 0, 55, 100
1, 40800, Note_on_c, 0, 54, 100
1, 40896, Note_off_c, 0, 54, 100
1, 40896, Note_on_c, 0, 53, 100
1, 40992, Note_off_c, 0, 53, 100
1, 40992, Note_on_c, 0, 52, 100
1, 41088, Note_off_c, 0, 52, 100
1, 41088, Note_on_c, 0, 51, 100
1, 41184, Note_off_c, 0, 51, 100
1, 41184, Note_on_c, 0, 53, 100
1, 41280, Note_off_c, 0, 53, 100
1, 41280, Note_on_c, 0, 55, 100
1, 41376, Note_off_c, 0, 55, 100
1, 41376, Note_on_c, 0, 58, 100
1, 41472, Note_off_c, 0, 58, 100
1, 41472, Note_on_c, 0, 57, 100
1, 41664, Note_off_c, 0, 57, 100
1, 41664, Note_on_c, 0, 58, 100
1, 41856, Note_off_c, 0, 58, 100
1, 41856, Note_on_c, 0, 60, 100
1, 41952, Note_off_c, 0, 60, 100
1, 41952, Note_on_c, 0, 62, 100
1, 42048, Note_off_c, 0, 62, 100
1, 42048, Note_on_c, 0, 63, 100
1, 42144, Note_off_c, 0, 63, 100
1, 42144, Note_on_c, 0, 64, 100
1, 42240, Note_off_c, 0, 64, 100
1, 42240, Note_on_c, 0, 65, 100
1, 42336, Note_off_c, 0, 65, 100
1, 42336, Note_on_c, 0, 64, 100
1, 42432, Note_off_c, 0, 64, 100
1, 42432, Note_on_c, 0, 63, 100
1, 42528, Note_off_c, 0, 63, 100
1, 42528, Note_on_c, 0, 67, 100
1, 42624, Note_off_c, 0, 67, 100
1, 42624, Note_on_c, 0, 66, 100
1, 42720, Note_off_c, 0, 66, 100
1, 42720, Note_on_c, 0, 61, 100
1, 42816, Note_off_c, 0, 61, 100
1, 42816, Note_on_c, 0, 58, 100
1, 42912, Note_off_c, 0, 58, 100
1, 42912, Note_on_c, 0, 56, 100
1, 43008, Note_off_c, 0, 56, 100
1, 43008, Note_on_c, 0, 63, 100
1, 43104, Note_off_c, 0, 63, 100
1, 43104, Note_on_c, 0, 61, 100
1, 43200, Note_off_c, 0, 61, 100
1, 43200, Note_on_c, 0, 56, 100
1, 43296, Note_off_c, 0, 56, 100
1, 43296, Note_on_c, 0, 53, 100
1, 43392, Note_off_c, 0, 53, 100
1, 43392, Note_on_c, 0, 58, 100
1, 43488, Note_off_c, 0, 58, 100
1, 43488, Note_on_c, 0, 54, 100
1, 43584, Note_off_c, 0, 54, 100
1, 43584, Note_on_c, 0, 53, 100
1, 43680, Note_off_c, 0, 53, 100
1, 43680, Note_on_c, 0, 52, 100
1, 43776, Note_off_c, 0, 52, 100
1, 43776, Note_on_c, 0, 51, 100
1, 43872, Note_off_c, 0, 51, 100
1, 43872, Note_on_c, 0, 53, 100
1, 43968, Note_off_c, 0, 53, 100
1, 43968, Note_on_c, 0, 54, 100
1, 44160, Note_off_c, 0, 54, 100
1, 44544, Note_on_c, 0, 56, 100
1, 44640, Note_off_c, 0, 56, 100
1, 44640, Note_on_c, 0, 58, 100
1, 44736, Note_off_c, 0, 58, 100
1, 44736, Note_on_c, 0, 59, 100
1, 44832, Note_off_c, 0, 59, 100
1, 45696, Note_on_c, 0, 46, 100
1, 45792, Note_off_c, 0, 46, 100
1, 45792, Note_on_c, 0, 51, 100
1, 45888, Note_off_c, 0, 51, 100
1, 45888, Note_on_c, 0, 55, 100
1, 45952, Note_off_c, 0, 55, 100
1, 45952, Note_on_c, 0, 58, 100
1, 46016, Note_off_c, 0, 58, 100
1, 46016, Note_on_c, 0, 58, 100
1, 46080, Note_off_c, 0, 58, 100
1, 46080, Note_on_c, 0, 61, 100
1, 46224, Note_off_c, 0, 61, 100
1, 46224, Note_on_c, 0, 56, 100
1, 46320, Note_off_c, 0, 56, 100
1, 46320, Note_on_c, 0, 53, 100
1, 46416, Note_off_c, 0, 53, 100
1, 46416, Note_on_c, 0, 51, 100
1, 46464, Note_off_c, 0, 51, 100
1, 46464, Note_on_c, 0, 53, 100
1, 46560, Note_off_c, 0, 53, 100
1, 46560, Note_on_c, 0, 55, 100
1, 46656, Note_off_c, 0, 55, 100
1, 46656, Note_on_c, 0, 58, 100
1, 46752, Note_off_c, 0, 58, 100
1, 47232, Note_on_c, 0, 51, 100
1, 47328, Note_off_c, 0, 51, 100
1, 47328, Note_on_c, 0, 53, 100
1, 47376, Note_off_c, 0, 53, 100
1, 47376, Note_on_c, 0, 55, 100
1, 47472, Note_off_c, 0, 55, 100
1, 47472, Note_on_c, 0, 58, 100
1, 47568, Note_off_c, 0, 58, 100
1, 47568, Note_on_c, 0, 53, 100
1, 47616, Note_off_c, 0, 53, 100
1, 47616, Note_on_c, 0, 55, 100
1, 47808, Note_off_c, 0, 55, 100
1, 47808, Note_on_c, 0, 56, 100
1, 47904, Note_off_c, 0, 56, 100
1, 47904, Note_on_c, 0, 58, 100
1, 48000, Note_off_c, 0, 58, 100
1, 48000, Note_on_c, 0, 55, 100
1, 48096, Note_off_c, 0, 55, 100
1, 48096, Note_on_c, 0, 58, 100
1, 48144, Note_off_c, 0, 58, 100
1, 48144, Note_on_c, 0, 63, 100
1, 48256, Note_off_c, 0, 63, 100
1, 48256, Note_on_c, 0, 65, 100
1, 48320, Note_off_c, 0, 65, 100
1, 48320, Note_on_c, 0, 67, 100
1, 48512, Note_off_c, 0, 67, 100
1, 48768, Note_on_c, 0, 67, 100
1, 48896, Note_off_c, 0, 67, 100
1, 48896, Note_on_c, 0, 68, 100
1, 49056, Note_off_c, 0, 68, 100
1, 49056, Note_on_c, 0, 72, 100
1, 49152, Note_off_c, 0, 72, 100
1, 49152, Note_on_c, 0, 75, 100
1, 49344, Note_off_c, 0, 75, 100
1, 49344, Note_on_c, 0, 79, 100
1, 50688, Note_off_c, 0, 79, 100
1, 50688, Note_on_c, 0, 75, 100
1, 50832, Note_off_c, 0, 75, 100
1, 50832, Note_on_c, 0, 75, 100
1, 50976, Note_off_c, 0, 75, 100
1, 50976, Note_on_c, 0, 72, 100
1, 51120, Note_off_c, 0, 72, 100
1, 51120, Note_on_c, 0, 72, 100
1, 51216, Note_off_c, 0, 72, 100
1, 51216, Note_on_c, 0, 67, 100
1, 51504, Note_off_c, 0, 67, 100
1, 51840, Note_on_c, 0, 67, 100
1, 51936, Note_off_c, 0, 67, 100
1, 51936, Note_on_c, 0, 69, 100
1, 52032, Note_off_c, 0, 69, 100
1, 52032, Note_on_c, 0, 72, 100
1, 52128, Note_off_c, 0, 72, 100
1, 52128, Note_on_c, 0, 75, 100
1, 52224, Note_off_c, 0, 75, 100
1, 52224, Note_on_c, 0, 79, 100
1, 52320, Note_off_c, 0, 79, 100
1, 52320, Note_on_c, 0, 81, 100
1, 52992, Note_off_c, 0, 81, 100
1, 52992, Note_on_c, 0, 79, 100
1, 53056, Note_off_c, 0, 79, 100
1, 53056, Note_on_c, 0, 71, 100
1, 53120, Note_off_c, 0, 71, 100
1, 53120, Note_on_c, 0, 75, 100
1, 53184, Note_off_c, 0, 75, 100
1, 53184, Note_on_c, 0, 70, 100
1, 53280, Note_off_c, 0, 70, 100
1, 53280, Note_on_c, 0, 67, 100
1, 53376, Note_off_c, 0, 67, 100
1, 53376, Note_on_c, 0, 69, 100
1, 53472, Note_off_c, 0, 69, 100
1, 53472, Note_on_c, 0, 65, 100
1, 53568, Note_off_c, 0, 65, 100
1, 53568, Note_on_c, 0, 62, 100
1, 53664, Note_off_c, 0, 62, 100
1, 53664, Note_on_c, 0, 58, 100
1, 53760, Note_off_c, 0, 58, 100
1, 53760, Note_on_c, 0, 63, 100
1, 53856, Note_off_c, 0, 63, 100
1, 53856, Note_on_c, 0, 62, 100
1, 53952, Note_off_c, 0, 62, 100
1, 53952, Note_on_c, 0, 58, 100
1, 54048, Note_off_c, 0, 58, 100
1, 54048, Note_on_c, 0, 55, 100
1, 54144, Note_off_c, 0, 55, 100
1, 54144, Note_on_c, 0, 63, 100
1, 54240, Note_off_c, 0, 63, 100
1, 54240, Note_on_c, 0, 61, 100
1, 54384, Note_off_c, 0, 61, 100
1, 54384, Note_on_c, 0, 59, 100
1, 54528, Note_off_c, 0, 59, 100
1, 54528, Note_on_c, 0, 58, 100
1, 54624, Note_off_c, 0, 58, 100
1, 54624, Note_on_c, 0, 55, 100
1, 54720, Note_off_c, 0, 55, 100
1, 54720, Note_on_c, 0, 56, 100
1, 54816, Note_off_c, 0, 56, 100
1, 54816, Note_on_c, 0, 58, 100
1, 54912, Note_off_c, 0, 58, 100
1, 54912, Note_on_c, 0, 59, 100
1, 55008, Note_off_c, 0, 59, 100
1, 55008, Note_on_c, 0, 61, 100
1, 55104, Note_off_c, 0, 61, 100
1, 55104, Note_on_c, 0, 63, 100
1, 55200, Note_off_c, 0, 63, 100
1, 55200, Note_on_c, 0, 65, 100
1, 55296, Note_off_c, 0, 65, 100
1, 55296, Note_on_c, 0, 66, 100
1, 55392, Note_off_c, 0, 66, 100
1, 55392, Note_on_c, 0, 68, 100
1, 55488, Note_off_c, 0, 68, 100
1, 55488, Note_on_c, 0, 70, 100
1, 55584, Note_off_c, 0, 70, 100
1, 55584, Note_on_c, 0, 71, 100
1, 55680, Note_off_c, 0, 71, 100
1, 55680, Note_on_c, 0, 73, 100
1, 55968, Note_off_c, 0, 73, 100
1, 56320, Note_on_c, 0, 73, 100
1, 56384, Note_off_c, 0, 73, 100
1, 56384, Note_on_c, 0, 73, 100
1, 56448, Note_off_c, 0, 73, 100
1, 56448, Note_on_c, 0, 70, 100
1, 56640, Note_off_c, 0, 70, 100
1, 56640, Note_on_c, 0, 73, 100
1, 56736, Note_off_c, 0, 73, 100
1, 56736, Note_on_c, 0, 66, 100
1, 56832, Note_off_c, 0, 66, 100
1, 56832, Note_on_c, 0, 58, 100
1, 57024, Note_off_c, 0, 58, 100
1, 57024, Note_on_c, 0, 73, 100
1, 57120, Note_off_c, 0, 73, 100
1, 57120, Note_on_c, 0, 73, 100
1, 57216, Note_off_c, 0, 73, 100
1, 57216, Note_on_c, 0, 70, 100
1, 57408, Note_off_c, 0, 70, 100
1, 57408, Note_on_c, 0, 73, 100
1, 57504, Note_off_c, 0, 73, 100
1, 57504, Note_on_c, 0, 73, 100
1, 57600, Note_off_c, 0, 73, 100
1, 57600, Note_on_c, 0, 67, 100
1, 57792, Note_off_c, 0, 67, 100
1, 57792, Note_on_c, 0, 73, 100
1, 57888, Note_off_c, 0, 73, 100
1, 57888, Note_on_c, 0, 73, 100
1, 57984, Note_off_c, 0, 73, 100
1, 57984, Note_on_c, 0, 67, 100
1, 58176, Note_off_c, 0, 67, 100
1, 58176, Note_on_c, 0, 73, 100
1, 58272, Note_off_c, 0, 73, 100
1, 58272, Note_on_c, 0, 73, 100
1, 58368, Note_off_c, 0, 73, 100
1, 58368, Note_on_c, 0, 67, 100
1, 58560, Note_off_c, 0, 67, 100
1, 58560, Note_on_c, 0, 73, 100
1, 58656, Note_off_c, 0, 73, 100
1, 58656, Note_on_c, 0, 73, 100
1, 58752, Note_off_c, 0, 73, 100
1, 58752, Note_on_c, 0, 67, 100
1, 58896, Note_off_c, 0, 67, 100
1, 58896, Note_on_c, 0, 73, 100
1, 59088, Note_off_c, 0, 73, 100
1, 59712, Note_on_c, 0, 73, 100
1, 59808, Note_off_c, 0, 73, 100
1, 59808, Note_on_c, 0, 73, 100
1, 59904, Note_off_c, 0, 73, 100
1, 59904, Note_on_c, 0, 70, 100
1, 60096, Note_off_c, 0, 70, 100
1, 60096, Note_on_c, 0, 73, 100
1, 60192, Note_off_c, 0, 73, 100
1, 60192, Note_on_c, 0, 73, 100
1, 60288, Note_off_c, 0, 73, 100
1, 60288, Note_on_c, 0, 70, 100
1, 60480, Note_off_c, 0, 70, 100
1, 60480, Note_on_c, 0, 72, 100
1, 60576, Note_off_c, 0, 72, 100
1, 60576, Note_on_c, 0, 72, 100
1, 60672, Note_off_c, 0, 72, 100
1, 60672, Note_on_c, 0, 68, 100
1, 60864, Note_off_c, 0, 68, 100
1, 60864, Note_on_c, 0, 72, 100
1, 60960, Note_off_c, 0, 72, 100
1, 60960, Note_on_c, 0, 72, 100
1, 61056, Note_off_c, 0, 72, 100
1, 61056, Note_on_c, 0, 68, 100
1, 61248, Note_off_c, 0, 68, 100
1, 61248, Note_on_c, 0, 72, 100
1, 61344, Note_off_c, 0, 72, 100
1, 61344, Note_on_c, 0, 72, 100
1, 61440, Note_off_c, 0, 72, 100
1, 61440, Note_on_c, 0, 68, 100
1, 61632, Note_off_c, 0, 68, 100
1, 61632, Note_on_c, 0, 72, 100
1, 61824, Note_off_c, 0, 72, 100
1, 61824, Note_on_c, 0, 79, 100
1, 62208, Note_off_c, 0, 79, 100
1, 62688, Note_on_c, 0, 44, 100
1, 62784, Note_off_c, 0, 44, 100
1, 62784, Note_on_c, 0, 51, 100
1, 62880, Note_off_c, 0, 51, 100
1, 62880, Note_on_c, 0, 58, 100
1, 62976, Note_off_c, 0, 58, 100
1, 62976, Note_on_c, 0, 49, 100
1, 63072, Note_off_c, 0, 49, 100
1, 63072, Note_on_c, 0, 50, 100
1, 63168, Note_off_c, 0, 50, 100
1, 63168, Note_on_c, 0, 53, 100
1, 63264, Note_off_c, 0, 53, 100
1, 63264, Note_on_c, 0, 52, 100
1, 63360, Note_off_c, 0, 52, 100
1, 63360, Note_on_c, 0, 51, 100
1, 63456, Note_off_c, 0, 51, 100
1, 63456, Note_on_c, 0, 55, 100
1, 63552, Note_off_c, 0, 55, 100
1, 63552, Note_on_c, 0, 58, 100
1, 63648, Note_off_c, 0, 58, 100
1, 63648, Note_on_c, 0, 58, 100
1, 63744, Note_off_c, 0, 58, 100
1, 63744, Note_on_c, 0, 55, 100
1, 63840, Note_off_c, 0, 55, 100
1, 63840, Note_on_c, 0, 56, 100
1, 63936, Note_off_c, 0, 56, 100
1, 63936, Note_on_c, 0, 59, 100
1, 64032, Note_off_c, 0, 59, 100
1, 64032, Note_on_c, 0, 63, 100
1, 64128, Note_off_c, 0, 63, 100
1, 64128, Note_on_c, 0, 58, 100
1, 64224, Note_off_c, 0, 58, 100
1, 64224, Note_on_c, 0, 59, 100
1, 64272, Note_off_c, 0, 59, 100
1, 64272, Note_on_c, 0, 63, 100
1, 64368, Note_off_c, 0, 63, 100
1, 64368, Note_on_c, 0, 65, 100
1, 64464, Note_off_c, 0, 65, 100
1, 64464, Note_on_c, 0, 67, 100
1, 64512, Note_off_c, 0, 67, 100
1, 64512, Note_on_c, 0, 70, 100
1, 64608, Note_off_c, 0, 70, 100
1, 64896, Note_on_c, 0, 70, 100
1, 64992, Note_off_c, 0, 70, 100
1, 64992, Note_on_c, 0, 67, 100
1, 65232, Note_off_c, 0, 67, 100
1, 65232, Note_on_c, 0, 67, 100
1, 65376, Note_off_c, 0, 67, 100
1, 65376, Note_on_c, 0, 63, 100
1, 65664, Note_off_c, 0, 63, 100
1, 65664, Note_on_c, 0, 63, 100
1, 65792, Note_off_c, 0, 63, 100
1, 65792, Note_on_c, 0, 59, 100
1, 66000, Note_off_c, 0, 59, 100
1, 66000, Note_on_c, 0, 59, 100
1, 66144, Note_off_c, 0, 59, 100
1, 66144, Note_on_c, 0, 58, 100
1, 66384, Note_off_c, 0, 58, 100
1, 66384, Note_on_c, 0, 58, 100
1, 66528, Note_off_c, 0, 58, 100
1, 66528, Note_on_c, 0, 55, 100
1, 66720, Note_off_c, 0, 55, 100
1, 67200, Note_on_c, 0, 70, 100
1, 67296, Note_off_c, 0, 70, 100
1, 67296, Note_on_c, 0, 69, 100
1, 67392, Note_off_c, 0, 69, 100
1, 67392, Note_on_c, 0, 68, 100
1, 67488, Note_off_c, 0, 68, 100
1, 67488, Note_on_c, 0, 67, 100
1, 67584, Note_off_c, 0, 67, 100
1, 67584, Note_on_c, 0, 65, 100
1, 67680, Note_off_c, 0, 65, 100
1, 67680, Note_on_c, 0, 70, 100
1, 67776, Note_off_c, 0, 70, 100
1, 67776, Note_on_c, 0, 67, 100
1, 67872, Note_off_c, 0, 67, 100
1, 67872, Note_on_c, 0, 68, 100
1, 67968, Note_off_c, 0, 68, 100
1, 67968, Note_on_c, 0, 72, 100
1, 68064, Note_off_c, 0, 72, 100
1, 68064, Note_on_c, 0, 75, 100
1, 68160, Note_off_c, 0, 75, 100
1, 68160, Note_on_c, 0, 79, 100
1, 68256, Note_off_c, 0, 79, 100
1, 68256, Note_on_c, 0, 80, 100
1, 68352, Note_off_c, 0, 80, 100
1, 68352, Note_on_c, 0, 79, 100
1, 68448, Note_off_c, 0, 79, 100
1, 68448, Note_on_c, 0, 75, 100
1, 68544, Note_off_c, 0, 75, 100
1, 68544, Note_on_c, 0, 72, 100
1, 68640, Note_off_c, 0, 72, 100
1, 68640, Note_on_c, 0, 68, 100
1, 68736, Note_off_c, 0, 68, 100
1, 68736, Note_on_c, 0, 67, 100
1, 68832, Note_off_c, 0, 67, 100
1, 68832, Note_on_c, 0, 65, 100
1, 68928, Note_off_c, 0, 65, 100
1, 68928, Note_on_c, 0, 64, 100
1, 69024, Note_off_c, 0, 64, 100
1, 69024, Note_on_c, 0, 65, 100
1, 69120, Note_off_c, 0, 65, 100
1, 69120, Note_on_c, 0, 70, 100
1, 69216, Note_off_c, 0, 70, 100
1, 69216, Note_on_c, 0, 67, 100
1, 69312, Note_off_c, 0, 67, 100
1, 69312, Note_on_c, 0, 68, 100
1, 69408, Note_off_c, 0, 68, 100
1, 69408, Note_on_c, 0, 66, 100
1, 69504, Note_off_c, 0, 66, 100
1, 69504, Note_on_c, 0, 67, 100
1, 69600, Note_off_c, 0, 67, 100
1, 69600, Note_on_c, 0, 66, 100
1, 69696, Note_off_c, 0, 66, 100
1, 69696, Note_on_c, 0, 65, 100
1, 69792, Note_off_c, 0, 65, 100
1, 69792, Note_on_c, 0, 64, 100
1, 69888, Note_off_c, 0, 64, 100
1, 69888, Note_on_c, 0, 63, 100
1, 69984, Note_off_c, 0, 63, 100
1, 69984, Note_on_c, 0, 65, 100
1, 70080, Note_off_c, 0, 65, 100
1, 70080, Note_on_c, 0, 67, 100
1, 70176, Note_off_c, 0, 67, 100
1, 70176, Note_on_c, 0, 70, 100
1, 70272, Note_off_c, 0, 70, 100
1, 70272, Note_on_c, 0, 68, 100
1, 70368, Note_off_c, 0, 68, 100
1, 70368, Note_on_c, 0, 64, 100
1, 70464, Note_off_c, 0, 64, 100
1, 70464, Note_on_c, 0, 67, 100
1, 70560, Note_off_c, 0, 67, 100
1, 70560, Note_on_c, 0, 66, 100
1, 70656, Note_off_c, 0, 66, 100
1, 70656, Note_on_c, 0, 65, 100
1, 70752, Note_off_c, 0, 65, 100
1, 70752, Note_on_c, 0, 64, 100
1, 70848, Note_off_c, 0, 64, 100
1, 70848, Note_on_c, 0, 63, 100
1, 70944, Note_off_c, 0, 63, 100
1, 71808, Note_on_c, 0, 67, 100
1, 71904, Note_off_c, 0, 67, 100
1, 71904, Note_on_c, 0, 67, 100
1, 72000, Note_off_c, 0, 67, 100
1, 72000, Note_on_c, 0, 67, 100
1, 72096, Note_off_c, 0, 67, 100
1, 72096, Note_on_c, 0, 72, 100
1, 72192, Note_off_c, 0, 72, 100
1, 72192, Note_on_c, 0, 68, 100
1, 72288, Note_off_c, 0, 68, 100
1, 72288, Note_on_c, 0, 65, 100
1, 72384, Note_off_c, 0, 65, 100
1, 72384, Note_on_c, 0, 67, 100
1, 72480, Note_off_c, 0, 67, 100
1, 72480, Note_on_c, 0, 67, 100
1, 72576, Note_off_c, 0, 67, 100
1, 72576, Note_on_c, 0, 67, 100
1, 72672, Note_off_c, 0, 67, 100
1, 72672, Note_on_c, 0, 72, 100
1, 72768, Note_off_c, 0, 72, 100
1, 72768, Note_on_c, 0, 68, 100
1, 72864, Note_off_c, 0, 68, 100
1, 72864, Note_on_c, 0, 65, 100
1, 72960, Note_off_c, 0, 65, 100
1, 72960, Note_on_c, 0, 67, 100
1, 73056, Note_off_c, 0, 67, 100
1, 73056, Note_on_c, 0, 67, 100
1, 73152, Note_off_c, 0, 67, 100
1, 73152, Note_on_c, 0, 67, 100
1, 73248, Note_off_c, 0, 67, 100
1, 73248, Note_on_c, 0, 72, 100
1, 73344, Note_off_c, 0, 72, 100
1, 73344, Note_on_c, 0, 68, 100
1, 73392, Note_off_c, 0, 68, 100
1, 73392, Note_on_c, 0, 65, 100
1, 73488, Note_off_c, 0, 65, 100
1, 73488, Note_on_c, 0, 67, 100
1, 73632, Note_off_c, 0, 67, 100
1, 73632, Note_on_c, 0, 67, 100
1, 73728, Note_off_c, 0, 67, 100
1, 73728, Note_on_c, 0, 67, 100
1, 73824, Note_off_c, 0, 67, 100
1, 73824, Note_on_c, 0, 72, 100
1, 73920, Note_off_c, 0, 72, 100
1, 73920, Note_on_c, 0, 68, 100
1, 74016, Note_off_c, 0, 68, 100
1, 74016, Note_on_c, 0, 65, 100
1, 74112, Note_off_c, 0, 65, 100
1, 74112, Note_on_c, 0, 67, 100
1, 74150, Note_off_c, 0, 67, 100
1, 74150, Note_on_c, 0, 67, 100
1, 74188, Note_off_c, 0, 67, 100
1, 74188, Note_on_c, 0, 67, 100
1, 74226, Note_off_c, 0, 67, 100
1, 74226, Note_on_c, 0, 72, 100
1, 74302, Note_off_c, 0, 72, 100
1, 74302, Note_on_c, 0, 68, 100
1, 74398, Note_off_c, 0, 68, 100
1, 74398, Note_on_c, 0, 65, 100
1, 74494, Note_off_c, 0, 65, 100
1, 74494, Note_on_c, 0, 67, 100
1, 74542, Note_off_c, 0, 67, 100
1, 74542, Note_on_c, 0, 67, 100
1, 74590, Note_off_c, 0, 67, 100
1, 74590, Note_on_c, 0, 67, 100
1, 74638, Note_off_c, 0, 67, 100
1, 74638, Note_on_c, 0, 72, 100
1, 74734, Note_off_c, 0, 72, 100
1, 74734, Note_on_c, 0, 68, 100
1, 74782, Note_off_c, 0, 68, 100
1, 74782, Note_on_c, 0, 65, 100
1, 74830, Note_off_c, 0, 65, 100
1, 74830, Note_on_c, 0, 67, 100
1, 74926, Note_off_c, 0, 67, 100
1, 74926, Note_on_c, 0, 67, 100
1, 74974, Note_off_c, 0, 67, 100
1, 74974, Note_on_c, 0, 67, 100
1, 75022, Note_off_c, 0, 67, 100
1, 75022, Note_on_c, 0, 72, 100
1, 75070, Note_off_c, 0, 72, 100
1, 75070, Note_on_c, 0, 68, 100
1, 75166, Note_off_c, 0, 68, 100
1, 75166, Note_on_c, 0, 65, 100
1, 75262, Note_off_c, 0, 65, 100
1, 75262, Note_on_c, 0, 67, 100
1, 75326, Note_off_c, 0, 67, 100
1, 75326, Note_on_c, 0, 67, 100
1, 75390, Note_off_c, 0, 67, 100
1, 75390, Note_on_c, 0, 67, 100
1, 75454, Note_off_c, 0, 67, 100
1, 75454, Note_on_c, 0, 72, 100
1, 75502, Note_off_c, 0, 72, 100
1, 75502, Note_on_c, 0, 68, 100
1, 75550, Note_off_c, 0, 68, 100
1, 75550, Note_on_c, 0, 65, 100
1, 75646, Note_off_c, 0, 65, 100
1, 75646, Note_on_c, 0, 67, 100
1, 75694, Note_off_c, 0, 67, 100
1, 75694, Note_on_c, 0, 67, 100
1, 75742, Note_off_c, 0, 67, 100
1, 75742, Note_on_c, 0, 67, 100
1, 75934, Note_off_c, 0, 67, 100
1, 76414, Note_on_c, 0, 67, 100
1, 76478, Note_off_c, 0, 67, 100
1, 76478, Note_on_c, 0, 67, 100
1, 76542, Note_off_c, 0, 67, 100
1, 76542, Note_on_c, 0, 67, 100
1, 76606, Note_off_c, 0, 67, 100
1, 76606, Note_on_c, 0, 72, 100
1, 76654, Note_off_c, 0, 72, 100
1, 76654, Note_on_c, 0, 69, 100
1, 76702, Note_off_c, 0, 69, 100
1, 76702, Note_on_c, 0, 65, 100
1, 76750, Note_off_c, 0, 65, 100
1, 76750, Note_on_c, 0, 67, 100
1, 76798, Note_off_c, 0, 67, 100
1, 76798, Note_on_c, 0, 67, 100
1, 76894, Note_off_c, 0, 67, 100
1, 76894, Note_on_c, 0, 67, 100
1, 76990, Note_off_c, 0, 67, 100
1, 76990, Note_on_c, 0, 72, 100
1, 77086, Note_off_c, 0, 72, 100
1, 77086, Note_on_c, 0, 69, 100
1, 77134, Note_off_c, 0, 69, 100
1, 77134, Note_on_c, 0, 65, 100
1, 77182, Note_off_c, 0, 65, 100
1, 77182, Note_on_c, 0, 67, 100
1, 77246, Note_off_c, 0, 67, 100
1, 77246, Note_on_c, 0, 67, 100
1, 77310, Note_off_c, 0, 67, 100
1, 77310, Note_on_c, 0, 67, 100
1, 77374, Note_off_c, 0, 67, 100
1, 77374, Note_on_c, 0, 72, 100
1, 77422, Note_off_c, 0, 72, 100
1, 77422, Note_on_c, 0, 69, 100
1, 77470, Note_off_c, 0, 69, 100
1, 77470, Note_on_c, 0, 65, 100
1, 77518, Note_off_c, 0, 65, 100
1, 77518, Note_on_c, 0, 67, 100
1, 77630, Note_off_c, 0, 67, 100
1, 77630, Note_on_c, 0, 67, 100
1, 77694, Note_off_c, 0, 67, 100
1, 77694, Note_on_c, 0, 67, 100
1, 77758, Note_off_c, 0, 67, 100
1, 77758, Note_on_c, 0, 72, 100
1, 77806, Note_off_c, 0, 72, 100
1, 77806, Note_on_c, 0, 69, 100
1, 77854, Note_off_c, 0, 69, 100
1, 77854, Note_on_c, 0, 65, 100
1, 77902, Note_off_c, 0, 65, 100
1, 77902, Note_on_c, 0, 67, 100
1, 78014, Note_off_c, 0, 67, 100
1, 78014, Note_on_c, 0, 67, 100
1, 78078, Note_off_c, 0, 67, 100
1, 78078, Note_on_c, 0, 67, 100
1, 78142, Note_off_c, 0, 67, 100
1, 78142, Note_on_c, 0, 72, 100
1, 78206, Note_off_c, 0, 72, 100
1, 78206, Note_on_c, 0, 69, 100
1, 78270, Note_off_c, 0, 69, 100
1, 78270, Note_on_c, 0, 65, 100
1, 78334, Note_off_c, 0, 65, 100
1, 78334, Note_on_c, 0, 67, 100
1, 78382, Note_off_c, 0, 67, 100
1, 78382, Note_on_c, 0, 67, 100
1, 78430, Note_off_c, 0, 67, 100
1, 78430, Note_on_c, 0, 67, 100
1, 78526, Note_off_c, 0, 67, 100
1, 78526, Note_on_c, 0, 72, 100
1, 78574, Note_off_c, 0, 72, 100
1, 78574, Note_on_c, 0, 69, 100
1, 78622, Note_off_c, 0, 69, 100
1, 78622, Note_on_c, 0, 65, 100
1, 78718, Note_off_c, 0, 65, 100
1, 78718, Note_on_c, 0, 67, 100
1, 78766, Note_off_c, 0, 67, 100
1, 78766, Note_on_c, 0, 67, 100
1, 78814, Note_off_c, 0, 67, 100
1, 78814, Note_on_c, 0, 67, 100
1, 79102, Note_off_c, 0, 67, 100
1, 79486, Note_on_c, 0, 68, 100
1, 79534, Note_off_c, 0, 68, 100
1, 79534, Note_on_c, 0, 68, 100
1, 79582, Note_off_c, 0, 68, 100
1, 79582, Note_on_c, 0, 68, 100
1, 79678, Note_off_c, 0, 68, 100
1, 79678, Note_on_c, 0, 73, 100
1, 79742, Note_off_c, 0, 73, 100
1, 79742, Note_on_c, 0, 70, 100
1, 79806, Note_off_c, 0, 70, 100
1, 79806, Note_on_c, 0, 66, 100
1, 79870, Note_off_c, 0, 66, 100
1, 79870, Note_on_c, 0, 68, 100
1, 79918, Note_off_c, 0, 68, 100
1, 79918, Note_on_c, 0, 68, 100
1, 79966, Note_off_c, 0, 68, 100
1, 79966, Note_on_c, 0, 68, 100
1, 80014, Note_off_c, 0, 68, 100
1, 80014, Note_on_c, 0, 73, 100
1, 80126, Note_off_c, 0, 73, 100
1, 80126, Note_on_c, 0, 70, 100
1, 80190, Note_off_c, 0, 70, 100
1, 80190, Note_on_c, 0, 66, 100
1, 80254, Note_off_c, 0, 66, 100
1, 80254, Note_on_c, 0, 68, 100
1, 80302, Note_off_c, 0, 68, 100
1, 80302, Note_on_c, 0, 68, 100
1, 80350, Note_off_c, 0, 68, 100
1, 80350, Note_on_c, 0, 68, 100
1, 80446, Note_off_c, 0, 68, 100
1, 80446, Note_on_c, 0, 73, 100
1, 80510, Note_off_c, 0, 73, 100
1, 80510, Note_on_c, 0, 70, 100
1, 80574, Note_off_c, 0, 70, 100
1, 80574, Note_on_c, 0, 66, 100
1, 80638, Note_off_c, 0, 66, 100
1, 80638, Note_on_c, 0, 68, 100
1, 80686, Note_off_c, 0, 68, 100
1, 80686, Note_on_c, 0, 68, 100
1, 80734, Note_off_c, 0, 68, 100
1, 80734, Note_on_c, 0, 68, 100
1, 80782, Note_off_c, 0, 68, 100
1, 80782, Note_on_c, 0, 73, 100
1, 80878, Note_off_c, 0, 73, 100
1, 80878, Note_on_c, 0, 70, 100
1, 80926, Note_off_c, 0, 70, 100
1, 80926, Note_on_c, 0, 66, 100
1, 81022, Note_off_c, 0, 66, 100
1, 81022, Note_on_c, 0, 68, 100
1, 81070, Note_off_c, 0, 68, 100
1, 81070, Note_on_c, 0, 68, 100
1, 81118, Note_off_c, 0, 68, 100
1, 81118, Note_on_c, 0, 68, 100
1, 81166, Note_off_c, 0, 68, 100
1, 81166, Note_on_c, 0, 73, 100
1, 81262, Note_off_c, 0, 73, 100
1, 81262, Note_on_c, 0, 70, 100
1, 81310, Note_off_c, 0, 70, 100
1, 81310, Note_on_c, 0, 66, 100
1, 81406, Note_off_c, 0, 66, 100
1, 81406, Note_on_c, 0, 68, 100
1, 81454, Note_off_c, 0, 68, 100
1, 81454, Note_on_c, 0, 68, 100
1, 81502, Note_off_c, 0, 68, 100
1, 81502, Note_on_c, 0, 68, 100
1, 81550, Note_off_c, 0, 68, 100
1, 81550, Note_on_c, 0, 73, 100
1, 81598, Note_off_c, 0, 73, 100
1, 81598, Note_on_c, 0, 70, 100
1, 81694, Note_off_c, 0, 70, 100
1, 81694, Note_on_c, 0, 66, 100
1, 81790, Note_off_c, 0, 66, 100
1, 81790, Note_on_c, 0, 68, 100
1, 82078, Note_off_c, 0, 68, 100
1, 82558, Note_on_c, 0, 66, 100
1, 82654, Note_off_c, 0, 66, 100
1, 82654, Note_on_c, 0, 67, 100
1, 82702, Note_off_c, 0, 67, 100
1, 82702, Note_on_c, 0, 68, 100
1, 82846, Note_off_c, 0, 68, 100
1, 82846, Note_on_c, 0, 66, 100
1, 82942, Note_off_c, 0, 66, 100
1, 82942, Note_on_c, 0, 67, 100
1, 83038, Note_off_c, 0, 67, 100
1, 83038, Note_on_c, 0, 66, 100
1, 83182, Note_off_c, 0, 66, 100
1, 83182, Note_on_c, 0, 65, 100
1, 83278, Note_off_c, 0, 65, 100
1, 83278, Note_on_c, 0, 64, 100
1, 83374, Note_off_c, 0, 64, 100
1, 83374, Note_on_c, 0, 63, 100
1, 83470, Note_off_c, 0, 63, 100
1, 83470, Note_on_c, 0, 65, 100
1, 83518, Note_off_c, 0, 65, 100
1, 83518, Note_on_c, 0, 67, 100
1, 83614, Note_off_c, 0, 67, 100
1, 83614, Note_on_c, 0, 63, 100
1, 83710, Note_off_c, 0, 63, 100
1, 83710, Note_on_c, 0, 65, 100
1, 83806, Note_off_c, 0, 65, 100
1, 83806, Note_on_c, 0, 64, 100
1, 83902, Note_off_c, 0, 64, 100
1, 83902, Note_on_c, 0, 63, 100
1, 83998, Note_off_c, 0, 63, 100
1, 83998, Note_on_c, 0, 67, 100
1, 84094, Note_off_c, 0, 67, 100
1, 84094, Note_on_c, 0, 65, 100
1, 84190, Note_off_c, 0, 65, 100
1, 84190, Note_on_c, 0, 61, 100
1, 84286, Note_off_c, 0, 61, 100
1, 84286, Note_on_c, 0, 58, 100
1, 84382, Note_off_c, 0, 58, 100
1, 84382, Note_on_c, 0, 56, 100
1, 84478, Note_off_c, 0, 56, 100
1, 84478, Note_on_c, 0, 62, 100
1, 84574, Note_off_c, 0, 62, 100
1, 84574, Note_on_c, 0, 61, 100
1, 84670, Note_off_c, 0, 61, 100
1, 84670, Note_on_c, 0, 56, 100
1, 84766, Note_off_c, 0, 56, 100
1, 84766, Note_on_c, 0, 53, 100
1, 84862, Note_off_c, 0, 53, 100
1, 84862, Note_on_c, 0, 57, 100
1, 84958, Note_off_c, 0, 57, 100
1, 84958, Note_on_c, 0, 53, 100
1, 85006, Note_off_c, 0, 53, 100
1, 85006, Note_on_c, 0, 49, 100
1, 85054, Note_off_c, 0, 49, 100
1, 85054, Note_on_c, 0, 53, 100
1, 85246, Note_off_c, 0, 53, 100
1, 85726, Note_on_c, 0, 44, 100
1, 85774, Note_off_c, 0, 44, 100
1, 85774, Note_on_c, 0, 51, 100
1, 85870, Note_off_c, 0, 51, 100
1, 85870, Note_on_c, 0, 55, 100
1, 85966, Note_off_c, 0, 55, 100
1, 85966, Note_on_c, 0, 46, 100
1, 86110, Note_off_c, 0, 46, 100
1, 86110, Note_on_c, 0, 53, 100
1, 86206, Note_off_c, 0, 53, 100
1, 86206, Note_on_c, 0, 56, 100
1, 86334, Note_off_c, 0, 56, 100
1, 86334, Note_on_c, 0, 58, 100
1, 86398, Note_off_c, 0, 58, 100
1, 86398, Note_on_c, 0, 58, 100
1, 86494, Note_off_c, 0, 58, 100
1, 86494, Note_on_c, 0, 53, 100
1, 86590, Note_off_c, 0, 53, 100
1, 86590, Note_on_c, 0, 56, 100
1, 86686, Note_off_c, 0, 56, 100
1, 86686, Note_on_c, 0, 58, 100
1, 86782, Note_off_c, 0, 58, 100
1, 86782, Note_on_c, 0, 58, 100
1, 86878, Note_off_c, 0, 58, 100
1, 86878, Note_on_c, 0, 58, 100
1, 86974, Note_off_c, 0, 58, 100
1, 86974, Note_on_c, 0, 65, 100
1, 87070, Note_off_c, 0, 65, 100
1, 87070, Note_on_c, 0, 70, 100
1, 87166, Note_off_c, 0, 70, 100
1, 87166, Note_on_c, 0, 70, 100
1, 87262, Note_off_c, 0, 70, 100
1, 87262, Note_on_c, 0, 72, 100
1, 87358, Note_off_c, 0, 72, 100
1, 87358, Note_on_c, 0, 68, 100
1, 87454, Note_off_c, 0, 68, 100
1, 87454, Note_on_c, 0, 72, 100
1, 87550, Note_off_c, 0, 72, 100
1, 87550, Note_on_c, 0, 70, 100
1, 87646, Note_off_c, 0, 70, 100
1, 87646, Note_on_c, 0, 72, 100
1, 87742, Note_off_c, 0, 72, 100
1, 87742, Note_on_c, 0, 79, 100
1, 88702, Note_off_c, 0, 79, 100
1, 88702, Note_on_c, 0, 75, 100
1, 88846, Note_off_c, 0, 75, 100
1, 88846, Note_on_c, 0, 72, 100
1, 89038, Note_off_c, 0, 72, 100
1, 89566, Note_on_c, 0, 67, 100
1, 89662, Note_off_c, 0, 67, 100
1, 89662, Note_on_c, 0, 70, 100
1, 89758, Note_off_c, 0, 70, 100
1, 89758, Note_on_c, 0, 72, 100
1, 89854, Note_off_c, 0, 72, 100
1, 89854, Note_on_c, 0, 75, 100
1, 89950, Note_off_c, 0, 75, 100
1, 89950, Note_on_c, 0, 77, 100
1, 90046, Note_off_c, 0, 77, 100
1, 90046, Note_on_c, 0, 75, 100
1, 90142, Note_off_c, 0, 75, 100
1, 90142, Note_on_c, 0, 72, 100
1, 90238, Note_off_c, 0, 72, 100
1, 90238, Note_on_c, 0, 70, 100
1, 90334, Note_off_c, 0, 70, 100
1, 90334, Note_on_c, 0, 75, 100
1, 90430, Note_off_c, 0, 75, 100
1, 90430, Note_on_c, 0, 72, 100
1, 90526, Note_off_c, 0, 72, 100
1, 90526, Note_on_c, 0, 70, 100
1, 90622, Note_off_c, 0, 70, 100
1, 90622, Note_on_c, 0, 66, 100
1, 90718, Note_off_c, 0, 66, 100
1, 90718, Note_on_c, 0, 65, 100
1, 90814, Note_off_c, 0, 65, 100
1, 90814, Note_on_c, 0, 63, 100
1, 90910, Note_off_c, 0, 63, 100
1, 90910, Note_on_c, 0, 60, 100
1, 91006, Note_off_c, 0, 60, 100
1, 91006, Note_on_c, 0, 65, 100
1, 91054, Note_off_c, 0, 65, 100
1, 91054, Note_on_c, 0, 60, 100
1, 91150, Note_off_c, 0, 60, 100
1, 91150, Note_on_c, 0, 63, 100
1, 91246, Note_off_c, 0, 63, 100
1, 91246, Note_on_c, 0, 65, 100
1, 91342, Note_off_c, 0, 65, 100
1, 91342, Note_on_c, 0, 66, 100
1, 91486, Note_off_c, 0, 66, 100
1, 91486, Note_on_c, 0, 68, 100
1, 91534, Note_off_c, 0, 68, 100
1, 91534, Note_on_c, 0, 70, 100
1, 91678, Note_off_c, 0, 70, 100
1, 91678, Note_on_c, 0, 75, 100
1, 91774, Note_off_c, 0, 75, 100
1, 91774, Note_on_c, 0, 72, 100
1, 92158, Note_off_c, 0, 72, 100
1, 92158, Note_on_c, 0, 70, 100
1, 92446, Note_off_c, 0, 70, 100
1, 92446, Note_on_c, 0, 66, 100
1, 92542, Note_off_c, 0, 66, 100
1, 92542, Note_on_c, 0, 65, 100
1, 92638, Note_off_c, 0, 65, 100
1, 92638, Note_on_c, 0, 63, 100
1, 92734, Note_off_c, 0, 63, 100
1, 92734, Note_on_c, 0, 62, 100
1, 92830, Note_off_c, 0, 62, 100
1, 92830, Note_on_c, 0, 63, 100
1, 92926, Note_off_c, 0, 63, 100
1, 92926, Note_on_c, 0, 68, 100
1, 93022, Note_off_c, 0, 68, 100
1, 93022, Note_on_c, 0, 66, 100
1, 93118, Note_off_c, 0, 66, 100
1, 93118, Note_on_c, 0, 62, 100
1, 93214, Note_off_c, 0, 62, 100
1, 93214, Note_on_c, 0, 58, 100
1, 93310, Note_off_c, 0, 58, 100
1, 93310, Note_on_c, 0, 65, 100
1, 93406, Note_off_c, 0, 65, 100
1, 93406, Note_on_c, 0, 63, 100
1, 93502, Note_off_c, 0, 63, 100
1, 93502, Note_on_c, 0, 58, 100
1, 93598, Note_off_c, 0, 58, 100
1, 93598, Note_on_c, 0, 54, 100
1, 93694, Note_off_c, 0, 54, 100
1, 93694, Note_on_c, 0, 53, 100
1, 93886, Note_off_c, 0, 53, 100
1, 93886, Note_on_c, 0, 51, 100
1, 93982, Note_off_c, 0, 51, 100
1, 93982, Note_on_c, 0, 53, 100
1, 94270, Note_off_c, 0, 53, 100
1, 95326, Note_on_c, 0, 46, 100
1, 95422, Note_off_c, 0, 46, 100
1, 95422, Note_on_c, 0, 51, 100
1, 95518, Note_off_c, 0, 51, 100
1, 95518, Note_on_c, 0, 55, 100
1, 95614, Note_off_c, 0, 55, 100
1, 95614, Note_on_c, 0, 49, 100
1, 95710, Note_off_c, 0, 49, 100
1, 95710, Note_on_c, 0, 53, 100
1, 95758, Note_off_c, 0, 53, 100
1, 95758, Note_on_c, 0, 56, 100
1, 95806, Note_off_c, 0, 56, 100
1, 95806, Note_on_c, 0, 61, 100
1, 95998, Note_off_c, 0, 61, 100
1, 95998, Note_on_c, 0, 58, 100
1, 96094, Note_off_c, 0, 58, 100
1, 96094, Note_on_c, 0, 70, 100
1, 96190, Note_off_c, 0, 70, 100
1, 96190, Note_on_c, 0, 67, 100
1, 96238, Note_off_c, 0, 67, 100
1, 96238, Note_on_c, 0, 70, 100
1, 96334, Note_off_c, 0, 70, 100
1, 96334, Note_on_c, 0, 61, 100
1, 96430, Note_off_c, 0, 61, 100
1, 96430, Note_on_c, 0, 65, 100
1, 96526, Note_off_c, 0, 65, 100
1, 96526, Note_on_c, 0, 68, 100
1, 96670, Note_off_c, 0, 68, 100
1, 96670, Note_on_c, 0, 73, 100
1, 96766, Note_off_c, 0, 73, 100
1, 96766, Note_on_c, 0, 70, 100
1, 96862, Note_off_c, 0, 70, 100
1, 96862, Note_on_c, 0, 67, 100
1, 96958, Note_off_c, 0, 67, 100
1, 96958, Note_on_c, 0, 63, 100
1, 97054, Note_off_c, 0, 63, 100
1, 97054, Note_on_c, 0, 58, 100
1, 97150, Note_off_c, 0, 58, 100
1, 97150, Note_on_c, 0, 65, 100
1, 97246, Note_off_c, 0, 65, 100
1, 97246, Note_on_c, 0, 64, 100
1, 97342, Note_off_c, 0, 64, 100
1, 97342, Note_on_c, 0, 63, 100
1, 97438, Note_off_c, 0, 63, 100
1, 97438, Note_on_c, 0, 67, 100
1, 97534, Note_off_c, 0, 67, 100
1, 97534, Note_on_c, 0, 63, 100
1, 97630, Note_off_c, 0, 63, 100
1, 97630, Note_on_c, 0, 65, 100
1, 97726, Note_off_c, 0, 65, 100
1, 97726, Note_on_c, 0, 68, 100
1, 97822, Note_off_c, 0, 68, 100
1, 97822, Note_on_c, 0, 72, 100
1, 97870, Note_off_c, 0, 72, 100
1, 97870, Note_on_c, 0, 77, 100
1, 99982, Note_off_c, 0, 77, 100
1, 99982, Note_on_c, 0, 75, 100
1, 100222, Note_off_c, 0, 75, 100
1, 100222, Note_on_c, 0, 72, 100
1, 100606, Note_off_c, 0, 72, 100
1, 101422, Note_on_c, 0, 63, 100
1, 101518, Note_off_c, 0, 63, 100
1, 101518, Note_on_c, 0, 65, 100
1, 101566, Note_off_c, 0, 65, 100
1, 101566, Note_on_c, 0, 68, 100
1, 101662, Note_off_c, 0, 68, 100
1, 101662, Note_on_c, 0, 71, 100
1, 101758, Note_off_c, 0, 71, 100
1, 101758, Note_on_c, 0, 79, 100
1, 102718, Note_off_c, 0, 79, 100
1, 102718, Note_on_c, 0, 75, 100
1, 102910, Note_off_c, 0, 75, 100
1, 102910, Note_on_c, 0, 71, 100
1, 103102, Note_off_c, 0, 71, 100
1, 103102, Note_on_c, 0, 70, 100
1, 103294, Note_off_c, 0, 70, 100
1, 103294, Note_on_c, 0, 68, 100
1, 103486, Note_off_c, 0, 68, 100
1, 103486, Note_on_c, 0, 70, 100
1, 103582, Note_off_c, 0, 70, 100
1, 103582, Note_on_c, 0, 67, 100
1, 103870, Note_off_c, 0, 67, 100
1, 104446, Note_on_c, 0, 70, 100
1, 104542, Note_off_c, 0, 70, 100
1, 104542, Note_on_c, 0, 70, 100
1, 104638, Note_off_c, 0, 70, 100
1, 104638, Note_on_c, 0, 72, 100
1, 104734, Note_off_c, 0, 72, 100
1, 104734, Note_on_c, 0, 70, 100
1, 104830, Note_off_c, 0, 70, 100
1, 104830, Note_on_c, 0, 68, 100
1, 104926, Note_off_c, 0, 68, 100
1, 104926, Note_on_c, 0, 65, 100
1, 105022, Note_off_c, 0, 65, 100
1, 105022, Note_on_c, 0, 65, 100
1, 105118, Note_off_c, 0, 65, 100
1, 105118, Note_on_c, 0, 68, 100
1, 105214, Note_off_c, 0, 68, 100
1, 105214, Note_on_c, 0, 70, 100
1, 105310, Note_off_c, 0, 70, 100
1, 105310, Note_on_c, 0, 70, 100
1, 105406, Note_off_c, 0, 70, 100
1, 105406, Note_on_c, 0, 70, 100
1, 105502, Note_off_c, 0, 70, 100
1, 105502, Note_on_c, 0, 70, 100
1, 105598, Note_off_c, 0, 70, 100
1, 105598, Note_on_c, 0, 72, 100
1, 105694, Note_off_c, 0, 72, 100
1, 105694, Note_on_c, 0, 70, 100
1, 105790, Note_off_c, 0, 70, 100
1, 105790, Note_on_c, 0, 72, 100
1, 105886, Note_off_c, 0, 72, 100
1, 105886, Note_on_c, 0, 72, 100
1, 105982, Note_off_c, 0, 72, 100
1, 105982, Note_on_c, 0, 70, 100
1, 106078, Note_off_c, 0, 70, 100
1, 106078, Note_on_c, 0, 69, 100
1, 106174, Note_off_c, 0, 69, 100
1, 106174, Note_on_c, 0, 68, 100
1, 106270, Note_off_c, 0, 68, 100
1, 106270, Note_on_c, 0, 70, 100
1, 106366, Note_off_c, 0, 70, 100
1, 106366, Note_on_c, 0, 67, 100
1, 106414, Note_off_c, 0, 67, 100
1, 106414, Note_on_c, 0, 66, 100
1, 106462, Note_off_c, 0, 66, 100
1, 106462, Note_on_c, 0, 67, 100
1, 106558, Note_off_c, 0, 67, 100
1, 106558, Note_on_c, 0, 68, 100
1, 106654, Note_off_c, 0, 68, 100
1, 106654, Note_on_c, 0, 66, 100
1, 106702, Note_off_c, 0, 66, 100
1, 106702, Note_on_c, 0, 67, 100
1, 106846, Note_off_c, 0, 67, 100
1, 106846, Note_on_c, 0, 66, 100
1, 106942, Note_off_c, 0, 66, 100
1, 106942, Note_on_c, 0, 65, 100
1, 107070, Note_off_c, 0, 65, 100
1, 107070, Note_on_c, 0, 64, 100
1, 107134, Note_off_c, 0, 64, 100
1, 107134, Note_on_c, 0, 63, 100
1, 107230, Note_off_c, 0, 63, 100
1, 107230, Note_on_c, 0, 65, 100
1, 107326, Note_off_c, 0, 65, 100
1, 107326, Note_on_c, 0, 66, 100
1, 107422, Note_off_c, 0, 66, 100
1, 107422, Note_on_c, 0, 68, 100
1, 107518, Note_off_c, 0, 68, 100
1, 107518, Note_on_c, 0, 65, 100
1, 107614, Note_off_c, 0, 65, 100
1, 107614, Note_on_c, 0, 66, 100
1, 107710, Note_off_c, 0, 66, 100
1, 107710, Note_on_c, 0, 70, 100
1, 107838, Note_off_c, 0, 70, 100
1, 107838, Note_on_c, 0, 74, 100
1, 107902, Note_off_c, 0, 74, 100
1, 107902, Note_on_c, 0, 77, 100
1, 108670, Note_off_c, 0, 77, 100
1, 108670, Note_on_c, 0, 74, 100
1, 109812, Note_off_c, 0, 74, 100
1, 109812, End_track
0, 0, End_of_file
