0, 0, Header, 1, 1, 192
1, 0, Start_track
1, 0, Title_t, "Melody"
1, 0, Tempo, 1176470
1, 0, Key_signature, -3, "major"
1, 0, Time_signature, 4, 2, 24, 8
1, 268, Note_on_c, 0, 66, 100
1, 306, Note_off_c, 0, 66, 100
1, 306, Note_on_c, 0, 67, 100
1, 344, Note_off_c, 0, 67, 100
1, 344, Note_on_c, 0, 69, 100
1, 382, Note_off_c, 0, 69, 100
1, 382, Note_on_c, 0, 72, 100
1, 430, Note_off_c, 0, 72, 100
1, 430, Note_on_c, 0, 67, 100
1, 478, Note_off_c, 0, 67, 100
1, 478, Note_on_c, 0, 71, 100
1, 526, Note_off_c, 0, 71, 100
1, 526, Note_on_c, 0, 72, 100
1, 574, Note_off_c, 0, 72, 100
1, 574, Note_on_c, 0, 70, 100
1, 670, Note_off_c, 0, 70, 100
1, 670, Note_on_c, 0, 67, 100
1, 766, Note_off_c, 0, 67, 100
1, 1064, Note_on_c, 0, 67, 100
1, 1106, Note_off_c, 0, 67, 100
1, 1106, Note_on_c, 0, 70, 100
1, 1127, Note_off_c, 0, 70, 100
1, 1127, Note_on_c, 0, 72, 100
1, 1148, Note_off_c, 0, 72, 100
1, 1148, Note_on_c, 0, 70, 100
1, 1212, Note_off_c, 0, 70, 100
1, 1212, Note_on_c, 0, 67, 100
1, 1276, Note_off_c, 0, 67, 100
1, 1276, Note_on_c, 0, 65, 100
1, 1436, Note_off_c, 0, 65, 100
1, 1436, Note_on_c, 0, 60, 100
1, 1532, Note_off_c, 0, 60, 100
1, 1532, Note_on_c, 0, 58, 100
1, 1628, Note_off_c, 0, 58, 100
1, 1628, Note_on_c, 0, 62, 100
1, 1916, Note_off_c, 0, 62, 100
1, 2540, Note_on_c, 0, 57, 100
1, 2588, Note_off_c, 0, 57, 100
1, 2588, Note_on_c, 0, 56, 100
1, 2636, Note_off_c, 0, 56, 100
1, 2636, Note_on_c, 0, 55, 100
1, 2684, Note_off_c, 0, 55, 100
1, 2684, Note_on_c, 0, 61, 100
1, 2780, Note_off_c, 0, 61, 100
1, 2780, Note_on_c, 0, 60, 100
1, 2876, Note_off_c, 0, 60, 100
1, 2876, Note_on_c, 0, 59, 100
1, 2991, Note_off_c, 0, 59, 100
1, 2991, Note_on_c, 0, 70, 100
1, 3029, Note_off_c, 0, 70, 100
1, 3029, Note_on_c, 0, 67, 100
1, 3067, Note_off_c, 0, 67, 100
1, 3067, Note_on_c, 0, 66, 100
1, 3115, Note_off_c, 0, 66, 100
1, 3115, Note_on_c, 0, 65, 100
1, 3595, Note_off_c, 0, 65, 100
1, 3979, Note_on_c, 0, 60, 100
1, 4027, Note_off_c, 0, 60, 100
1, 4027, Note_on_c, 0, 71, 100
1, 4075, Note_off_c, 0, 71, 100
1, 4075, Note_on_c, 0, 72, 100
1, 4123, Note_off_c, 0, 72, 100
1, 4123, Note_on_c, 0, 71, 100
1, 4171, Note_off_c, 0, 71, 100
1, 4171, Note_on_c, 0, 70, 100
1, 4507, Note_off_c, 0, 70, 100
1, 4507, Note_on_c, 0, 65, 100
1, 4555, Note_off_c, 0, 65, 100
1, 4555, Note_on_c, 0, 64, 100
1, 4603, Note_off_c, 0, 64, 100
1, 4603, Note_on_c, 0, 63, 100
1, 4891, Note_off_c, 0, 63, 100
1, 4891, Note_on_c, 0, 61, 100
1, 4939, Note_off_c, 0, 61, 100
1, 4939, Note_on_c, 0, 58, 100
1, 4987, Note_off_c, 0, 58, 100
1, 4987, Note_on_c, 0, 62, 100
1, 5019, Note_off_c, 0, 62, 100
1, 5019, Note_on_c, 0, 63, 100
1, 5115, Note_off_c, 0, 63, 100
1, 5115, Note_on_c, 0, 62, 100
1, 5147, Note_off_c, 0, 62, 100
1, 5147, Note_on_c, 0, 63, 100
1, 5275, Note_off_c, 0, 63, 100
1, 5275, Note_on_c, 0, 61, 100
1, 5323, Note_off_c, 0, 61, 100
1, 5323, Note_on_c, 0, 58, 100
1, 5371, Note_off_c, 0, 58, 100
1, 5371, Note_on_c, 0, 63, 100
1, 5419, Note_off_c, 0, 63, 100
1, 5419, Note_on_c, 0, 61, 100
1, 5467, Note_off_c, 0, 61, 100
1, 5467, Note_on_c, 0, 58, 100
1, 5755, Note_off_c, 0, 58, 100
1, 5995, Note_on_c, 0, 58, 100
1, 6091, Note_off_c, 0, 58, 100
1, 6091, Note_on_c, 0, 44, 100
1, 6187, Note_off_c, 0, 44, 100
1, 6187, Note_on_c, 0, 47, 100
1, 6235, Note_off_c, 0, 47, 100
1, 6235, Note_on_c, 0, 52, 100
1, 6331, Note_off_c, 0, 52, 100
1, 6331, Note_on_c, 0, 54, 100
1, 6427, Note_off_c, 0, 54, 100
1, 6427, Note_on_c, 0, 56, 100
1, 6561, Note_off_c, 0, 56, 100
1, 6561, Note_on_c, 0, 59, 100
1, 6676, Note_off_c, 0, 59, 100
1, 6676, Note_on_c, 0, 64, 100
1, 6791, Note_off_c, 0, 64, 100
1, 6791, Note_on_c, 0, 66, 100
1, 6829, Note_off_c, 0, 66, 100
1, 6829, Note_on_c, 0, 68, 100
1, 6867, Note_off_c, 0, 68, 100
1, 6867, Note_on_c, 0, 70, 100
1, 7251, Note_off_c, 0, 70, 100
1, 7577, Note_on_c, 0, 70, 100
1, 7609, Note_off_c, 0, 70, 100
1, 7609, Note_on_c, 0, 74, 100
1, 7641, Note_off_c, 0, 74, 100
1, 7641, Note_on_c, 0, 75, 100
1, 7673, Note_off_c, 0, 75, 100
1, 7673, Note_on_c, 0, 73, 100
1, 8345, Note_off_c, 0, 73, 100
1, 8345, Note_on_c, 0, 70, 100
1, 8441, Note_off_c, 0, 70, 100
1, 8441, Note_on_c, 0, 69, 100
1, 8537, Note_off_c, 0, 69, 100
1, 8537, Note_on_c, 0, 76, 100
1, 8585, Note_off_c, 0, 76, 100
1, 8585, Note_on_c, 0, 77, 100
1, 9113, Note_off_c, 0, 77, 100
1, 9113, Note_on_c, 0, 69, 100
1, 9209, Note_off_c, 0, 69, 100
1, 9209, Note_on_c, 0, 68, 100
1, 9497, Note_off_c, 0, 68, 100
1, 9929, Note_on_c, 0, 70, 100
1, 9977, Note_off_c, 0, 70, 100
1, 9977, Note_on_c, 0, 71, 100
1, 10025, Note_off_c, 0, 71, 100
1, 10025, Note_on_c, 0, 73, 100
1, 10265, Note_off_c, 0, 73, 100
1, 10265, Note_on_c, 0, 70, 100
1, 10361, Note_off_c, 0, 70, 100
1, 10361, Note_on_c, 0, 73, 100
1, 10457, Note_off_c, 0, 73, 100
1, 10457, Note_on_c, 0, 70, 100
1, 10570, Note_off_c, 0, 70, 100
1, 10570, Note_on_c, 0, 71, 100
1, 10604, Note_off_c, 0, 71, 100
1, 10604, Note_on_c, 0, 73, 100
1, 10673, Note_off_c, 0, 73, 100
1, 10673, Note_on_c, 0, 70, 100
1, 10707, Note_off_c, 0, 70, 100
1, 10707, Note_on_c, 0, 72, 100
1, 10724, Note_off_c, 0, 72, 100
1, 10724, Note_on_c, 0, 73, 100
1, 10741, Note_off_c, 0, 73, 100
1, 10741, Note_on_c, 0, 70, 100
1, 10805, Note_off_c, 0, 70, 100
1, 10805, Note_on_c, 0, 69, 100
1, 10826, Note_off_c, 0, 69, 100
1, 10826, Note_on_c, 0, 70, 100
1, 10890, Note_off_c, 0, 70, 100
1, 10890, Note_on_c, 0, 69, 100
1, 10911, Note_off_c, 0, 69, 100
1, 10911, Note_on_c, 0, 70, 100
1, 11354, Note_off_c, 0, 70, 100
1, 11354, Note_on_c, 0, 68, 100
1, 11392, Note_off_c, 0, 68, 100
1, 11392, Note_on_c, 0, 70, 100
1, 11430, Note_off_c, 0, 70, 100
1, 11430, Note_on_c, 0, 69, 100
1, 11506, Note_off_c, 0, 69, 100
1, 11506, Note_on_c, 0, 68, 100
1, 11554, Note_off_c, 0, 68, 100
1, 11554, Note_on_c, 0, 67, 100
1, 11602, Note_off_c, 0, 67, 100
1, 11602, Note_on_c, 0, 66, 100
1, 11650, Note_off_c, 0, 66, 100
1, 11650, Note_on_c, 0, 63, 100
1, 11986, Note_off_c, 0, 63, 100
1, 11986, Note_on_c, 0, 61, 100
1, 12146, Note_off_c, 0, 61, 100
1, 12146, Note_on_c, 0, 58, 100
1, 12210, Note_off_c, 0, 58, 100
1, 12210, Note_on_c, 0, 56, 100
1, 12274, Note_off_c, 0, 56, 100
1, 12274, Note_on_c, 0, 54, 100
1, 12322, Note_off_c, 0, 54, 100
1, 12322, Note_on_c, 0, 55, 100
1, 12418, Note_off_c, 0, 55, 100
1, 12418, Note_on_c, 0, 56, 100
1, 12562, Note_off_c, 0, 56, 100
1, 12562, Note_on_c, 0, 58, 100
1, 12946, Note_off_c, 0, 58, 100
1, 12946, Note_on_c, 0, 58, 100
1, 13042, Note_off_c, 0, 58, 100
1, 13042, Note_on_c, 0, 60, 100
1, 13170, Note_off_c, 0, 60, 100
1, 13170, Note_on_c, 0, 62, 100
1, 13330, Note_off_c, 0, 62, 100
1, 13330, Note_on_c, 0, 63, 100
1, 13522, Note_off_c, 0, 63, 100
1, 13522, Note_on_c, 0, 65, 100
1, 13810, Note_off_c, 0, 65, 100
1, 13810, Note_on_c, 0, 64, 100
1, 13858, Note_off_c, 0, 64, 100
1, 13858, Note_on_c, 0, 65, 100
1, 14530, Note_off_c, 0, 65, 100
1, 14530, Note_on_c, 0, 62, 100
1, 14578, Note_off_c, 0, 62, 100
1, 14578, Note_on_c, 0, 56, 100
1, 14674, Note_off_c, 0, 56, 100
1, 14674, Note_on_c, 0, 68, 100
1, 14962, Note_off_c, 0, 68, 100
1, 15346, Note_on_c, 0, 67, 100
1, 15410, Note_off_c, 0, 67, 100
1, 15410, Note_on_c, 0, 65, 100
1, 15452, Note_off_c, 0, 65, 100
1, 15452, Note_on_c, 0, 53, 100
1, 15494, Note_off_c, 0, 53, 100
1, 15494, Note_on_c, 0, 63, 100
1, 15515, Note_off_c, 0, 63, 100
1, 15515, Note_on_c, 0, 65, 100
1, 15824, Note_off_c, 0, 65, 100
1, 15824, Note_on_c, 0, 62, 100
1, 15984, Note_off_c, 0, 62, 100
1, 15984, Note_on_c, 0, 60, 100
1, 16048, Note_off_c, 0, 60, 100
1, 16048, Note_on_c, 0, 58, 100
1, 16112, Note_off_c, 0, 58, 100
1, 16112, Note_on_c, 0, 68, 100
1, 16160, Note_off_c, 0, 68, 100
1, 16160, Note_on_c, 0, 70, 100
1, 16832, Note_off_c, 0, 70, 100
1, 16832, Note_on_c, 0, 65, 100
1, 16928, Note_off_c, 0, 65, 100
1, 16928, Note_on_c, 0, 44, 100
1, 16976, Note_off_c, 0, 44, 100
1, 16976, Note_on_c, 0, 56, 100
1, 17024, Note_off_c, 0, 56, 100
1, 17024, Note_on_c, 0, 58, 100
1, 17168, Note_off_c, 0, 58, 100
1, 17168, Note_on_c, 0, 59, 100
1, 17264, Note_off_c, 0, 59, 100
1, 17264, Note_on_c, 0, 60, 100
1, 17360, Note_off_c, 0, 60, 100
1, 17360, Note_on_c, 0, 61, 100
1, 17504, Note_off_c, 0, 61, 100
1, 17504, Note_on_c, 0, 60, 100
1, 17552, Note_off_c, 0, 60, 100
1, 17552, Note_on_c, 0, 61, 100
1, 17600, Note_off_c, 0, 61, 100
1, 17600, Note_on_c, 0, 62, 100
1, 17696, Note_off_c, 0, 62, 100
1, 17696, Note_on_c, 0, 63, 100
1, 17792, Note_off_c, 0, 63, 100
1, 17792, Note_on_c, 0, 63, 100
1, 17840, Note_off_c, 0, 63, 100
1, 17840, Note_on_c, 0, 65, 100
1, 18108, Note_off_c, 0, 65, 100
1, 18108, Note_on_c, 0, 67, 100
1, 18184, Note_off_c, 0, 67, 100
1, 18184, Note_on_c, 0, 69, 100
1, 18286, Note_off_c, 0, 69, 100
1, 18286, Note_on_c, 0, 70, 100
1, 18350, Note_off_c, 0, 70, 100
1, 18350, Note_on_c, 0, 72, 100
1, 18414, Note_off_c, 0, 72, 100
1, 18414, Note_on_c, 0, 72, 100
1, 18462, Note_off_c, 0, 72, 100
1, 18462, Note_on_c, 0, 73, 100
1, 18654, Note_off_c, 0, 73, 100
1, 18654, Note_on_c, 0, 72, 100
1, 18702, Note_off_c, 0, 72, 100
1, 18702, Note_on_c, 0, 71, 100
1, 18750, Note_off_c, 0, 71, 100
1, 18750, Note_on_c, 0, 70, 100
1, 18894, Note_off_c, 0, 70, 100
1, 18894, Note_on_c, 0, 63, 100
1, 18966, Note_off_c, 0, 63, 100
1, 18966, Note_on_c, 0, 70, 100
1, 19028, Note_off_c, 0, 70, 100
1, 19028, Note_on_c, 0, 72, 100
1, 19066, Note_off_c, 0, 72, 100
1, 19066, Note_on_c, 0, 73, 100
1, 19104, Note_off_c, 0, 73, 100
1, 19104, Note_on_c, 0, 70, 100
1, 19142, Note_off_c, 0, 70, 100
1, 19142, Note_on_c, 0, 70, 100
1, 19180, Note_off_c, 0, 70, 100
1, 19180, Note_on_c, 0, 68, 100
1, 19228, Note_off_c, 0, 68, 100
1, 19228, Note_on_c, 0, 68, 100
1, 19276, Note_off_c, 0, 68, 100
1, 19276, Note_on_c, 0, 70, 100
1, 19324, Note_off_c, 0, 70, 100
1, 19324, Note_on_c, 0, 75, 100
1, 20236, Note_off_c, 0, 75, 100
1, 20236, Note_on_c, 0, 75, 100
1, 20332, Note_off_c, 0, 75, 100
1, 20332, Note_on_c, 0, 72, 100
1, 20428, Note_off_c, 0, 72, 100
1, 20428, Note_on_c, 0, 65, 100
1, 20476, Note_off_c, 0, 65, 100
1, 20476, Note_on_c, 0, 67, 100
1, 20620, Note_off_c, 0, 67, 100
1, 20620, Note_on_c, 0, 65, 100
1, 20668, Note_off_c, 0, 65, 100
1, 20668, Note_on_c, 0, 63, 100
1, 20716, Note_off_c, 0, 63, 100
1, 20716, Note_on_c, 0, 62, 100
1, 21090, Note_off_c, 0, 62, 100
1, 21090, End_track
0, 0, End_of_file
