0, 0, Header, 1, 1, 192
1, 0, Start_track
1, 0, Title_t, "Melody"
1, 0, Tempo, 335195
1, 0, Key_signature, -2, "major"
1, 0, Time_signature, 3, 2, 24, 8
1, 144, Note_on_c, 0, 67, 100
1, 239, Note_off_c, 0, 67, 100
1, 239, Note_on_c, 0, 69, 100
1, 1295, Note_off_c, 0, 69, 100
1, 1295, Note_on_c, 0, 66, 100
1, 1343, Note_off_c, 0, 66, 100
1, 1343, Note_on_c, 0, 69, 100
1, 1487, Note_off_c, 0, 69, 100
1, 1487, Note_on_c, 0, 67, 100
1, 1583, Note_off_c, 0, 67, 100
1, 2303, Note_on_c, 0, 68, 100
1, 2351, Note_off_c, 0, 68, 100
1, 2351, Note_on_c, 0, 69, 100
1, 3455, Note_off_c, 0, 69, 100
1, 3455, Note_on_c, 0, 69, 100
1, 3551, Note_off_c, 0, 69, 100
1, 3551, Note_on_c, 0, 66, 100
1, 3647, Note_off_c, 0, 66, 100
1, 3647, Note_on_c, 0, 69, 100
1, 3743, Note_off_c, 0, 69, 100
1, 3743, Note_on_c, 0, 67, 100
1, 4271, Note_off_c, 0, 67, 100
1, 4271, Note_on_c, 0, 63, 100
1, 4463, Note_off_c, 0, 63, 100
1, 4702, Note_on_c, 0, 62, 100
1, 4894, Note_off_c, 0, 62, 100
1, 4894, Note_on_c, 0, 66, 100
1, 5085, Note_off_c, 0, 66, 100
1, 5085, Note_on_c, 0, 70, 100
1, 5469, Note_off_c, 0, 70, 100
1, 5853, Note_on_c, 0, 68, 100
1, 5949, Note_off_c, 0, 68, 100
1, 5949, Note_on_c, 0, 69, 100
1, 6077, Note_off_c, 0, 69, 100
1, 6077, Note_on_c, 0, 67, 100
1, 6237, Note_off_c, 0, 67, 100
1, 6237, Note_on_c, 0, 64, 100
1, 6525, Note_off_c, 0, 64, 100
1, 7005, Note_on_c, 0, 69, 100
1, 7053, Note_off_c, 0, 69, 100
1, 7053, Note_on_c, 0, 70, 100
1, 7197, Note_off_c, 0, 70, 100
1, 7197, Note_on_c, 0, 68, 100
1, 7389, Note_off_c, 0, 68, 100
1, 7389, Note_on_c, 0, 63, 100
1, 7581, Note_off_c, 0, 63, 100
1, 7581, Note_on_c, 0, 65, 100
1, 7773, Note_off_c, 0, 65, 100
1, 7773, Note_on_c, 0, 70, 100
1, 7965, Note_off_c, 0, 70, 100
1, 7965, Note_on_c, 0, 68, 100
1, 8013, Note_off_c, 0, 68, 100
1, 8013, Note_on_c, 0, 69, 100
1, 8253, Note_off_c, 0, 69, 100
1, 8253, Note_on_c, 0, 67, 100
1, 8349, Note_off_c, 0, 67, 100
1, 8349, Note_on_c, 0, 64, 100
1, 8445, Note_off_c, 0, 64, 100
1, 8973, Note_on_c, 0, 70, 100
1, 9117, Note_off_c, 0, 70, 100
1, 9117, Note_on_c, 0, 69, 100
1, 9308, Note_off_c, 0, 69, 100
1, 9308, Note_on_c, 0, 69, 100
1, 9451, Note_off_c, 0, 69, 100
1, 9451, Note_on_c, 0, 69, 100
1, 9595, Note_off_c, 0, 69, 100
1, 9595, Note_on_c, 0, 69, 100
1, 9723, Note_off_c, 0, 69, 100
1, 9723, Note_on_c, 0, 69, 100
1, 9883, Note_off_c, 0, 69, 100
1, 9883, Note_on_c, 0, 69, 100
1, 10026, Note_off_c, 0, 69, 100
1, 10026, Note_on_c, 0, 69, 100
1, 10170, Note_off_c, 0, 69, 100
1, 10170, Note_on_c, 0, 69, 100
1, 10266, Note_off_c, 0, 69, 100
1, 10266, Note_on_c, 0, 67, 100
1, 10425, Note_off_c, 0, 67, 100
1, 10425, Note_on_c, 0, 69, 100
1, 10489, Note_off_c, 0, 69, 100
1, 10489, Note_on_c, 0, 67, 100
1, 10553, Note_off_c, 0, 67, 100
1, 10553, Note_on_c, 0, 64, 100
1, 10617, Note_off_c, 0, 64, 100
1, 10617, Note_on_c, 0, 62, 100
1, 10680, Note_off_c, 0, 62, 100
1, 10680, Note_on_c, 0, 59, 100
1, 10744, Note_off_c, 0, 59, 100
1, 10744, Note_on_c, 0, 57, 100
1, 10840, Note_off_c, 0, 57, 100
1, 10840, Note_on_c, 0, 55, 100
1, 10887, Note_off_c, 0, 55, 100
1, 10887, Note_on_c, 0, 52, 100
1, 10983, Note_off_c, 0, 52, 100
1, 11703, Note_on_c, 0, 57, 100
1, 11750, Note_off_c, 0, 57, 100
1, 11750, Note_on_c, 0, 59, 100
1, 11798, Note_off_c, 0, 59, 100
1, 11798, Note_on_c, 0, 62, 100
1, 11846, Note_off_c, 0, 62, 100
1, 11846, Note_on_c, 0, 64, 100
1, 11894, Note_off_c, 0, 64, 100
1, 11894, Note_on_c, 0, 67, 100
1, 11942, Note_off_c, 0, 67, 100
1, 11942, Note_on_c, 0, 69, 100
1, 11990, Note_off_c, 0, 69, 100
1, 11990, Note_on_c, 0, 71, 100
1, 12037, Note_off_c, 0, 71, 100
1, 12037, Note_on_c, 0, 74, 100
1, 12421, Note_off_c, 0, 74, 100
1, 12421, Note_on_c, 0, 69, 100
1, 12517, Note_off_c, 0, 69, 100
1, 12517, Note_on_c, 0, 65, 100
1, 12565, Note_off_c, 0, 65, 100
1, 12565, Note_on_c, 0, 64, 100
1, 12613, Note_off_c, 0, 64, 100
1, 12613, Note_on_c, 0, 62, 100
1, 12661, Note_off_c, 0, 62, 100
1, 12661, Note_on_c, 0, 59, 100
1, 12709, Note_off_c, 0, 59, 100
1, 12709, Note_on_c, 0, 57, 100
1, 12781, Note_off_c, 0, 57, 100
1, 12781, Note_on_c, 0, 54, 100
1, 12805, Note_off_c, 0, 54, 100
1, 12805, Note_on_c, 0, 52, 100
1, 12829, Note_off_c, 0, 52, 100
1, 12829, Note_on_c, 0, 50, 100
1, 12901, Note_off_c, 0, 50, 100
1, 12901, Note_on_c, 0, 52, 100
1, 12949, Note_off_c, 0, 52, 100
1, 12949, Note_on_c, 0, 55, 100
1, 12997, Note_off_c, 0, 55, 100
1, 12997, Note_on_c, 0, 59, 100
1, 13045, Note_off_c, 0, 59, 100
1, 13045, Note_on_c, 0, 64, 100
1, 13141, Note_off_c, 0, 64, 100
1, 13141, Note_on_c, 0, 69, 100
1, 13189, Note_off_c, 0, 69, 100
1, 13189, Note_on_c, 0, 66, 100
1, 13237, Note_off_c, 0, 66, 100
1, 13237, Note_on_c, 0, 67, 100
1, 13285, Note_off_c, 0, 67, 100
1, 13285, Note_on_c, 0, 69, 100
1, 13381, Note_off_c, 0, 69, 100
1, 13877, Note_on_c, 0, 71, 100
1, 13940, Note_off_c, 0, 71, 100
1, 13940, Note_on_c, 0, 71, 100
1, 14004, Note_off_c, 0, 71, 100
1, 14004, Note_on_c, 0, 69, 100
1, 14100, Note_off_c, 0, 69, 100
1, 14100, Note_on_c, 0, 71, 100
1, 14196, Note_off_c, 0, 71, 100
1, 14196, Note_on_c, 0, 71, 100
1, 14244, Note_off_c, 0, 71, 100
1, 14244, Note_on_c, 0, 69, 100
1, 14292, Note_off_c, 0, 69, 100
1, 14292, Note_on_c, 0, 71, 100
1, 14340, Note_off_c, 0, 71, 100
1, 14340, Note_on_c, 0, 69, 100
1, 14436, Note_off_c, 0, 69, 100
1, 14436, Note_on_c, 0, 67, 100
1, 14484, Note_off_c, 0, 67, 100
1, 14484, Note_on_c, 0, 65, 100
1, 14532, Note_off_c, 0, 65, 100
1, 14532, Note_on_c, 0, 63, 100
1, 14628, Note_off_c, 0, 63, 100
1, 14628, Note_on_c, 0, 69, 100
1, 14676, Note_off_c, 0, 69, 100
1, 14676, Note_on_c, 0, 67, 100
1, 14724, Note_off_c, 0, 67, 100
1, 14724, Note_on_c, 0, 65, 100
1, 14772, Note_off_c, 0, 65, 100
1, 14772, Note_on_c, 0, 63, 100
1, 14868, Note_off_c, 0, 63, 100
1, 14868, Note_on_c, 0, 59, 100
1, 14916, Note_off_c, 0, 59, 100
1, 14916, Note_on_c, 0, 57, 100
1, 15012, Note_off_c, 0, 57, 100
1, 15300, Note_on_c, 0, 71, 100
1, 15348, Note_off_c, 0, 71, 100
1, 15348, Note_on_c, 0, 69, 100
1, 15444, Note_off_c, 0, 69, 100
1, 15876, Note_on_c, 0, 69, 100
1, 15924, Note_off_c, 0, 69, 100
1, 15924, Note_on_c, 0, 71, 100
1, 16068, Note_off_c, 0, 71, 100
1, 16068, Note_on_c, 0, 69, 100
1, 16116, Note_off_c, 0, 69, 100
1, 16116, Note_on_c, 0, 71, 100
1, 16260, Note_off_c, 0, 71, 100
1, 16260, Note_on_c, 0, 69, 100
1, 16356, Note_off_c, 0, 69, 100
1, 16356, Note_on_c, 0, 71, 100
1, 16404, Note_off_c, 0, 71, 100
1, 16404, Note_on_c, 0, 69, 100
1, 16452, Note_off_c, 0, 69, 100
1, 16452, Note_on_c, 0, 67, 100
1, 16500, Note_off_c, 0, 67, 100
1, 16500, Note_on_c, 0, 65, 100
1, 16576, Note_off_c, 0, 65, 100
1, 16576, Note_on_c, 0, 63, 100
1, 16614, Note_off_c, 0, 63, 100
1, 16614, Note_on_c, 0, 68, 100
1, 16652, Note_off_c, 0, 68, 100
1, 16652, Note_on_c, 0, 69, 100
1, 16690, Note_off_c, 0, 69, 100
1, 16690, Note_on_c, 0, 67, 100
1, 16754, Note_off_c, 0, 67, 100
1, 16754, Note_on_c, 0, 65, 100
1, 16818, Note_off_c, 0, 65, 100
1, 16818, Note_on_c, 0, 63, 100
1, 16882, Note_off_c, 0, 63, 100
1, 16882, Note_on_c, 0, 59, 100
1, 16946, Note_off_c, 0, 59, 100
1, 16946, Note_on_c, 0, 57, 100
1, 17010, Note_off_c, 0, 57, 100
1, 17010, Note_on_c, 0, 59, 100
1, 17074, Note_off_c, 0, 59, 100
1, 17074, Note_on_c, 0, 57, 100
1, 17122, Note_off_c, 0, 57, 100
1, 17122, Note_on_c, 0, 55, 100
1, 17170, Note_off_c, 0, 55, 100
1, 17170, Note_on_c, 0, 53, 100
1, 17218, Note_off_c, 0, 53, 100
1, 17218, Note_on_c, 0, 51, 100
1, 17314, Note_off_c, 0, 51, 100
1, 17314, Note_on_c, 0, 59, 100
1, 17362, Note_off_c, 0, 59, 100
1, 17362, Note_on_c, 0, 57, 100
1, 17410, Note_off_c, 0, 57, 100
1, 17410, Note_on_c, 0, 55, 100
1, 17458, Note_off_c, 0, 55, 100
1, 17458, Note_on_c, 0, 53, 100
1, 17522, Note_off_c, 0, 53, 100
1, 17522, Note_on_c, 0, 51, 100
1, 17586, Note_off_c, 0, 51, 100
1, 17586, Note_on_c, 0, 57, 100
1, 17698, Note_off_c, 0, 57, 100
1, 17698, Note_on_c, 0, 55, 100
1, 17746, Note_off_c, 0, 55, 100
1, 17746, Note_on_c, 0, 53, 100
1, 17794, Note_off_c, 0, 53, 100
1, 17794, Note_on_c, 0, 51, 100
1, 17842, Note_off_c, 0, 51, 100
1, 17842, Note_on_c, 0, 48, 100
1, 17938, Note_off_c, 0, 48, 100
1, 17938, Note_on_c, 0, 47, 100
1, 18226, Note_off_c, 0, 47, 100
1, 18562, Note_on_c, 0, 50, 100
1, 18610, Note_off_c, 0, 50, 100
1, 18610, Note_on_c, 0, 51, 100
1, 18658, Note_off_c, 0, 51, 100
1, 18658, Note_on_c, 0, 54, 100
1, 18705, Note_off_c, 0, 54, 100
1, 18705, Note_on_c, 0, 55, 100
1, 18753, Note_off_c, 0, 55, 100
1, 18753, Note_on_c, 0, 58, 100
1, 18801, Note_off_c, 0, 58, 100
1, 18801, Note_on_c, 0, 62, 100
1, 18849, Note_off_c, 0, 62, 100
1, 18849, Note_on_c, 0, 67, 100
1, 18896, Note_off_c, 0, 67, 100
1, 18896, Note_on_c, 0, 69, 100
1, 18944, Note_off_c, 0, 69, 100
1, 18944, Note_on_c, 0, 71, 100
1, 18992, Note_off_c, 0, 71, 100
1, 18992, Note_on_c, 0, 74, 100
1, 19040, Note_off_c, 0, 74, 100
1, 19040, Note_on_c, 0, 72, 100
1, 19088, Note_off_c, 0, 72, 100
1, 19088, Note_on_c, 0, 71, 100
1, 19136, Note_off_c, 0, 71, 100
1, 19136, Note_on_c, 0, 70, 100
1, 19328, Note_off_c, 0, 70, 100
1, 19712, Note_on_c, 0, 67, 100
1, 19760, Note_off_c, 0, 67, 100
1, 19760, Note_on_c, 0, 69, 100
1, 19904, Note_off_c, 0, 69, 100
1, 19904, Note_on_c, 0, 73, 100
1, 20047, Note_off_c, 0, 73, 100
1, 20047, Note_on_c, 0, 75, 100
1, 20095, Note_off_c, 0, 75, 100
1, 20095, Note_on_c, 0, 76, 100
1, 20911, Note_off_c, 0, 76, 100
1, 20911, Note_on_c, 0, 77, 100
1, 21871, Note_off_c, 0, 77, 100
1, 21871, Note_on_c, 0, 76, 100
1, 22063, Note_off_c, 0, 76, 100
1, 22063, Note_on_c, 0, 71, 100
1, 22191, Note_off_c, 0, 71, 100
1, 22191, Note_on_c, 0, 67, 100
1, 22287, Note_off_c, 0, 67, 100
1, 23023, Note_on_c, 0, 69, 100
1, 23119, Note_off_c, 0, 69, 100
1, 23119, Note_on_c, 0, 67, 100
1, 23215, Note_off_c, 0, 67, 100
1, 23215, Note_on_c, 0, 65, 100
1, 23311, Note_off_c, 0, 65, 100
1, 23311, Note_on_c, 0, 69, 100
1, 23407, Note_off_c, 0, 69, 100
1, 23407, Note_on_c, 0, 64, 100
1, 23502, Note_off_c, 0, 64, 100
1, 23502, Note_on_c, 0, 67, 100
1, 23598, Note_off_c, 0, 67, 100
1, 23598, Note_on_c, 0, 71, 100
1, 23694, Note_off_c, 0, 71, 100
1, 23694, Note_on_c, 0, 74, 100
1, 23790, Note_off_c, 0, 74, 100
1, 23790, Note_on_c, 0, 71, 100
1, 23886, Note_off_c, 0, 71, 100
1, 23886, Note_on_c, 0, 67, 100
1, 23982, Note_off_c, 0, 67, 100
1, 23982, Note_on_c, 0, 64, 100
1, 24077, Note_off_c, 0, 64, 100
1, 24077, Note_on_c, 0, 69, 100
1, 24173, Note_off_c, 0, 69, 100
1, 24173, Note_on_c, 0, 67, 100
1, 24269, Note_off_c, 0, 67, 100
1, 24269, Note_on_c, 0, 64, 100
1, 24365, Note_off_c, 0, 64, 100
1, 24365, Note_on_c, 0, 69, 100
1, 24429, Note_off_c, 0, 69, 100
1, 24429, Note_on_c, 0, 71, 100
1, 24493, Note_off_c, 0, 71, 100
1, 24493, Note_on_c, 0, 69, 100
1, 24557, Note_off_c, 0, 69, 100
1, 24557, Note_on_c, 0, 66, 100
1, 24653, Note_off_c, 0, 66, 100
1, 24653, Note_on_c, 0, 62, 100
1, 24749, Note_off_c, 0, 62, 100
1, 24749, Note_on_c, 0, 59, 100
1, 24941, Note_off_c, 0, 59, 100
1, 24941, Note_on_c, 0, 57, 100
1, 25037, Note_off_c, 0, 57, 100
1, 25037, Note_on_c, 0, 57, 100
1, 25085, Note_off_c, 0, 57, 100
1, 25085, Note_on_c, 0, 54, 100
1, 25133, Note_off_c, 0, 54, 100
1, 25133, Note_on_c, 0, 52, 100
1, 25325, Note_off_c, 0, 52, 100
1, 25613, Note_on_c, 0, 69, 100
1, 25805, Note_off_c, 0, 69, 100
1, 25805, Note_on_c, 0, 67, 100
1, 25901, Note_off_c, 0, 67, 100
1, 25901, Note_on_c, 0, 65, 100
1, 25997, Note_off_c, 0, 65, 100
1, 25997, Note_on_c, 0, 65, 100
1, 26045, Note_off_c, 0, 65, 100
1, 26045, Note_on_c, 0, 67, 100
1, 26093, Note_off_c, 0, 67, 100
1, 26093, Note_on_c, 0, 69, 100
1, 26189, Note_off_c, 0, 69, 100
1, 26189, Note_on_c, 0, 72, 100
1, 26285, Note_off_c, 0, 72, 100
1, 26285, Note_on_c, 0, 71, 100
1, 26477, Note_off_c, 0, 71, 100
1, 26477, Note_on_c, 0, 69, 100
1, 26669, Note_off_c, 0, 69, 100
1, 26669, Note_on_c, 0, 67, 100
1, 26765, Note_off_c, 0, 67, 100
1, 26765, Note_on_c, 0, 64, 100
1, 26861, Note_off_c, 0, 64, 100
1, 27341, Note_on_c, 0, 70, 100
1, 27389, Note_off_c, 0, 70, 100
1, 27389, Note_on_c, 0, 71, 100
1, 27533, Note_off_c, 0, 71, 100
1, 27533, Note_on_c, 0, 69, 100
1, 27629, Note_off_c, 0, 69, 100
1, 27629, Note_on_c, 0, 70, 100
1, 27677, Note_off_c, 0, 70, 100
1, 27677, Note_on_c, 0, 71, 100
1, 27821, Note_off_c, 0, 71, 100
1, 27821, Note_on_c, 0, 69, 100
1, 27965, Note_off_c, 0, 69, 100
1, 27965, Note_on_c, 0, 59, 100
1, 28013, Note_off_c, 0, 59, 100
1, 28013, Note_on_c, 0, 71, 100
1, 28109, Note_off_c, 0, 71, 100
1, 28109, Note_on_c, 0, 70, 100
1, 28205, Note_off_c, 0, 70, 100
1, 28205, Note_on_c, 0, 71, 100
1, 28397, Note_off_c, 0, 71, 100
1, 28397, Note_on_c, 0, 69, 100
1, 28525, Note_off_c, 0, 69, 100
1, 28525, Note_on_c, 0, 71, 100
1, 28684, Note_off_c, 0, 71, 100
1, 28684, Note_on_c, 0, 69, 100
1, 28780, Note_off_c, 0, 69, 100
1, 28780, Note_on_c, 0, 71, 100
1, 29260, Note_off_c, 0, 71, 100
1, 29260, Note_on_c, 0, 75, 100
1, 29356, Note_off_c, 0, 75, 100
1, 29644, Note_on_c, 0, 70, 100
1, 29692, Note_off_c, 0, 70, 100
1, 29692, Note_on_c, 0, 71, 100
1, 29836, Note_off_c, 0, 71, 100
1, 29836, Note_on_c, 0, 69, 100
1, 29884, Note_off_c, 0, 69, 100
1, 29884, Note_on_c, 0, 71, 100
1, 30124, Note_off_c, 0, 71, 100
1, 30124, Note_on_c, 0, 69, 100
1, 30220, Note_off_c, 0, 69, 100
1, 30220, Note_on_c, 0, 71, 100
1, 30412, Note_off_c, 0, 71, 100
1, 30412, Note_on_c, 0, 69, 100
1, 30508, Note_off_c, 0, 69, 100
1, 30508, Note_on_c, 0, 71, 100
1, 30652, Note_off_c, 0, 71, 100
1, 30652, Note_on_c, 0, 69, 100
1, 30796, Note_off_c, 0, 69, 100
1, 30796, Note_on_c, 0, 71, 100
1, 30988, Note_off_c, 0, 71, 100
1, 30988, Note_on_c, 0, 69, 100
1, 31036, Note_off_c, 0, 69, 100
1, 31036, Note_on_c, 0, 71, 100
1, 31276, Note_off_c, 0, 71, 100
1, 31276, Note_on_c, 0, 65, 100
1, 31372, Note_off_c, 0, 65, 100
1, 31372, Note_on_c, 0, 74, 100
1, 31420, Note_off_c, 0, 74, 100
1, 31420, Note_on_c, 0, 77, 100
1, 31564, Note_off_c, 0, 77, 100
1, 31564, Note_on_c, 0, 79, 100
1, 31660, Note_off_c, 0, 79, 100
1, 31660, Note_on_c, 0, 77, 100
1, 31852, Note_off_c, 0, 77, 100
1, 32236, Note_on_c, 0, 74, 100
1, 32332, Note_off_c, 0, 74, 100
1, 32332, Note_on_c, 0, 76, 100
1, 32524, Note_off_c, 0, 76, 100
1, 32524, Note_on_c, 0, 74, 100
1, 32716, Note_off_c, 0, 74, 100
1, 32716, Note_on_c, 0, 70, 100
1, 33004, Note_off_c, 0, 70, 100
1, 33388, Note_on_c, 0, 75, 100
1, 33484, Note_off_c, 0, 75, 100
1, 33484, Note_on_c, 0, 76, 100
1, 33676, Note_off_c, 0, 76, 100
1, 33676, Note_on_c, 0, 73, 100
1, 33868, Note_off_c, 0, 73, 100
1, 33868, Note_on_c, 0, 67, 100
1, 33964, Note_off_c, 0, 67, 100
1, 34492, Note_on_c, 0, 74, 100
1, 34604, Note_off_c, 0, 74, 100
1, 34604, Note_on_c, 0, 77, 100
1, 34828, Note_off_c, 0, 77, 100
1, 34828, Note_on_c, 0, 75, 100
1, 35020, Note_off_c, 0, 75, 100
1, 35020, Note_on_c, 0, 73, 100
1, 35068, Note_off_c, 0, 73, 100
1, 35068, Note_on_c, 0, 72, 100
1, 35212, Note_off_c, 0, 72, 100
1, 35212, Note_on_c, 0, 70, 100
1, 35404, Note_off_c, 0, 70, 100
1, 35404, Note_on_c, 0, 68, 100
1, 35596, Note_off_c, 0, 68, 100
1, 35596, Note_on_c, 0, 65, 100
1, 35692, Note_off_c, 0, 65, 100
1, 35692, Note_on_c, 0, 69, 100
1, 35884, Note_off_c, 0, 69, 100
1, 35884, Note_on_c, 0, 67, 100
1, 35980, Note_off_c, 0, 67, 100
1, 35980, Note_on_c, 0, 64, 100
1, 36076, Note_off_c, 0, 64, 100
1, 36076, Note_on_c, 0, 62, 100
1, 36172, Note_off_c, 0, 62, 100
1, 36172, Note_on_c, 0, 59, 100
1, 36268, Note_off_c, 0, 59, 100
1, 36268, Note_on_c, 0, 57, 100
1, 36364, Note_off_c, 0, 57, 100
1, 36844, Note_on_c, 0, 67, 100
1, 37036, Note_off_c, 0, 67, 100
1, 37036, Note_on_c, 0, 67, 100
1, 37228, Note_off_c, 0, 67, 100
1, 37228, Note_on_c, 0, 67, 100
1, 37420, Note_off_c, 0, 67, 100
1, 37420, Note_on_c, 0, 67, 100
1, 37612, Note_off_c, 0, 67, 100
1, 37612, Note_on_c, 0, 64, 100
1, 37804, Note_off_c, 0, 64, 100
1, 37804, Note_on_c, 0, 69, 100
1, 37996, Note_off_c, 0, 69, 100
1, 37996, Note_on_c, 0, 62, 100
1, 38188, Note_off_c, 0, 62, 100
1, 38188, Note_on_c, 0, 62, 100
1, 38380, Note_off_c, 0, 62, 100
1, 38380, Note_on_c, 0, 62, 100
1, 38572, Note_off_c, 0, 62, 100
1, 38572, Note_on_c, 0, 62, 100
1, 38668, Note_off_c, 0, 62, 100
1, 38668, Note_on_c, 0, 64, 100
1, 38764, Note_off_c, 0, 64, 100
1, 38764, Note_on_c, 0, 62, 100
1, 38860, Note_off_c, 0, 62, 100
1, 39244, Note_on_c, 0, 66, 100
1, 39340, Note_off_c, 0, 66, 100
1, 39340, Note_on_c, 0, 67, 100
1, 39532, Note_off_c, 0, 67, 100
1, 39532, Note_on_c, 0, 67, 100
1, 39724, Note_off_c, 0, 67, 100
1, 39724, Note_on_c, 0, 67, 100
1, 39916, Note_off_c, 0, 67, 100
1, 39916, Note_on_c, 0, 64, 100
1, 40012, Note_off_c, 0, 64, 100
1, 40300, Note_on_c, 0, 62, 100
1, 40348, Note_off_c, 0, 62, 100
1, 40348, Note_on_c, 0, 64, 100
1, 40396, Note_off_c, 0, 64, 100
1, 40396, Note_on_c, 0, 62, 100
1, 40444, Note_off_c, 0, 62, 100
1, 40444, Note_on_c, 0, 64, 100
1, 40492, Note_off_c, 0, 64, 100
1, 40492, Note_on_c, 0, 62, 100
1, 40530, Note_off_c, 0, 62, 100
1, 40530, Note_on_c, 0, 64, 100
1, 40568, Note_off_c, 0, 64, 100
1, 40568, Note_on_c, 0, 62, 100
1, 40606, Note_off_c, 0, 62, 100
1, 40606, Note_on_c, 0, 64, 100
1, 40644, Note_off_c, 0, 64, 100
1, 40644, Note_on_c, 0, 62, 100
1, 40682, Note_off_c, 0, 62, 100
1, 40682, Note_on_c, 0, 64, 100
1, 40730, Note_off_c, 0, 64, 100
1, 40730, Note_on_c, 0, 62, 100
1, 40778, Note_off_c, 0, 62, 100
1, 40778, Note_on_c, 0, 64, 100
1, 40825, Note_off_c, 0, 64, 100
1, 40825, Note_on_c, 0, 62, 100
1, 40873, Note_off_c, 0, 62, 100
1, 40873, Note_on_c, 0, 64, 100
1, 40921, Note_off_c, 0, 64, 100
1, 40921, Note_on_c, 0, 62, 100
1, 40969, Note_off_c, 0, 62, 100
1, 40969, Note_on_c, 0, 64, 100
1, 41017, Note_off_c, 0, 64, 100
1, 41017, Note_on_c, 0, 62, 100
1, 41065, Note_off_c, 0, 62, 100
1, 41065, Note_on_c, 0, 64, 100
1, 41103, Note_off_c, 0, 64, 100
1, 41103, Note_on_c, 0, 62, 100
1, 41141, Note_off_c, 0, 62, 100
1, 41141, Note_on_c, 0, 64, 100
1, 41179, Note_off_c, 0, 64, 100
1, 41179, Note_on_c, 0, 62, 100
1, 41217, Note_off_c, 0, 62, 100
1, 41217, Note_on_c, 0, 64, 100
1, 41255, Note_off_c, 0, 64, 100
1, 41255, Note_on_c, 0, 62, 100
1, 41351, Note_off_c, 0, 62, 100
1, 41351, Note_on_c, 0, 64, 100
1, 41398, Note_off_c, 0, 64, 100
1, 41398, Note_on_c, 0, 59, 100
1, 41484, Note_off_c, 0, 59, 100
1, 41484, Note_on_c, 0, 65, 100
1, 41522, Note_off_c, 0, 65, 100
1, 41522, Note_on_c, 0, 63, 100
1, 41560, Note_off_c, 0, 63, 100
1, 41560, Note_on_c, 0, 65, 100
1, 41598, Note_off_c, 0, 65, 100
1, 41598, Note_on_c, 0, 63, 100
1, 41636, Note_off_c, 0, 63, 100
1, 41636, Note_on_c, 0, 65, 100
1, 41674, Note_off_c, 0, 65, 100
1, 41674, Note_on_c, 0, 63, 100
1, 41712, Note_off_c, 0, 63, 100
1, 41712, Note_on_c, 0, 65, 100
1, 41750, Note_off_c, 0, 65, 100
1, 41750, Note_on_c, 0, 63, 100
1, 41788, Note_off_c, 0, 63, 100
1, 41788, Note_on_c, 0, 65, 100
1, 41858, Note_off_c, 0, 65, 100
1, 41858, Note_on_c, 0, 63, 100
1, 41890, Note_off_c, 0, 63, 100
1, 41890, Note_on_c, 0, 65, 100
1, 41922, Note_off_c, 0, 65, 100
1, 41922, Note_on_c, 0, 63, 100
1, 41953, Note_off_c, 0, 63, 100
1, 41953, Note_on_c, 0, 65, 100
1, 41985, Note_off_c, 0, 65, 100
1, 41985, Note_on_c, 0, 63, 100
1, 42017, Note_off_c, 0, 63, 100
1, 42017, Note_on_c, 0, 65, 100
1, 42055, Note_off_c, 0, 65, 100
1, 42055, Note_on_c, 0, 63, 100
1, 42093, Note_off_c, 0, 63, 100
1, 42093, Note_on_c, 0, 65, 100
1, 42131, Note_off_c, 0, 65, 100
1, 42131, Note_on_c, 0, 63, 100
1, 42169, Note_off_c, 0, 63, 100
1, 42169, Note_on_c, 0, 65, 100
1, 42207, Note_off_c, 0, 65, 100
1, 42207, Note_on_c, 0, 63, 100
1, 42245, Note_off_c, 0, 63, 100
1, 42245, Note_on_c, 0, 65, 100
1, 42283, Note_off_c, 0, 65, 100
1, 42283, Note_on_c, 0, 63, 100
1, 42321, Note_off_c, 0, 63, 100
1, 42321, Note_on_c, 0, 65, 100
1, 42359, Note_off_c, 0, 65, 100
1, 42359, Note_on_c, 0, 63, 100
1, 42397, Note_off_c, 0, 63, 100
1, 42397, Note_on_c, 0, 65, 100
1, 42435, Note_off_c, 0, 65, 100
1, 42435, Note_on_c, 0, 63, 100
1, 42473, Note_off_c, 0, 63, 100
1, 42473, Note_on_c, 0, 65, 100
1, 42511, Note_off_c, 0, 65, 100
1, 42511, Note_on_c, 0, 63, 100
1, 42549, Note_off_c, 0, 63, 100
1, 42549, Note_on_c, 0, 65, 100
1, 42587, Note_off_c, 0, 65, 100
1, 42587, Note_on_c, 0, 63, 100
1, 42625, Note_off_c, 0, 63, 100
1, 42625, Note_on_c, 0, 65, 100
1, 42663, Note_off_c, 0, 65, 100
1, 42663, Note_on_c, 0, 63, 100
1, 42701, Note_off_c, 0, 63, 100
1, 42701, Note_on_c, 0, 65, 100
1, 42739, Note_off_c, 0, 65, 100
1, 42739, Note_on_c, 0, 63, 100
1, 42777, Note_off_c, 0, 63, 100
1, 42777, Note_on_c, 0, 65, 100
1, 42824, Note_off_c, 0, 65, 100
1, 42824, Note_on_c, 0, 63, 100
1, 42872, Note_off_c, 0, 63, 100
1, 42872, Note_on_c, 0, 65, 100
1, 42920, Note_off_c, 0, 65, 100
1, 42920, Note_on_c, 0, 63, 100
1, 42968, Note_off_c, 0, 63, 100
1, 42968, Note_on_c, 0, 65, 100
1, 43006, Note_off_c, 0, 65, 100
1, 43006, Note_on_c, 0, 63, 100
1, 43044, Note_off_c, 0, 63, 100
1, 43044, Note_on_c, 0, 65, 100
1, 43082, Note_off_c, 0, 65, 100
1, 43082, Note_on_c, 0, 63, 100
1, 43120, Note_off_c, 0, 63, 100
1, 43120, Note_on_c, 0, 65, 100
1, 43158, Note_off_c, 0, 65, 100
1, 43158, Note_on_c, 0, 63, 100
1, 43254, Note_off_c, 0, 63, 100
1, 43638, Note_on_c, 0, 59, 100
1, 43781, Note_off_c, 0, 59, 100
1, 43781, Note_on_c, 0, 65, 100
1, 43829, Note_off_c, 0, 65, 100
1, 43829, Note_on_c, 0, 63, 100
1, 43877, Note_off_c, 0, 63, 100
1, 43877, Note_on_c, 0, 65, 100
1, 43925, Note_off_c, 0, 65, 100
1, 43925, Note_on_c, 0, 63, 100
1, 43972, Note_off_c, 0, 63, 100
1, 43972, Note_on_c, 0, 65, 100
1, 44020, Note_off_c, 0, 65, 100
1, 44020, Note_on_c, 0, 63, 100
1, 44068, Note_off_c, 0, 63, 100
1, 44068, Note_on_c, 0, 65, 100
1, 44116, Note_off_c, 0, 65, 100
1, 44116, Note_on_c, 0, 63, 100
1, 44154, Note_off_c, 0, 63, 100
1, 44154, Note_on_c, 0, 65, 100
1, 44192, Note_off_c, 0, 65, 100
1, 44192, Note_on_c, 0, 63, 100
1, 44230, Note_off_c, 0, 63, 100
1, 44230, Note_on_c, 0, 65, 100
1, 44268, Note_off_c, 0, 65, 100
1, 44268, Note_on_c, 0, 63, 100
1, 44306, Note_off_c, 0, 63, 100
1, 44306, Note_on_c, 0, 65, 100
1, 44344, Note_off_c, 0, 65, 100
1, 44344, Note_on_c, 0, 63, 100
1, 44382, Note_off_c, 0, 63, 100
1, 44382, Note_on_c, 0, 65, 100
1, 44420, Note_off_c, 0, 65, 100
1, 44420, Note_on_c, 0, 63, 100
1, 44458, Note_off_c, 0, 63, 100
1, 44458, Note_on_c, 0, 65, 100
1, 44528, Note_off_c, 0, 65, 100
1, 44528, Note_on_c, 0, 63, 100
1, 44560, Note_off_c, 0, 63, 100
1, 44560, Note_on_c, 0, 65, 100
1, 44592, Note_off_c, 0, 65, 100
1, 44592, Note_on_c, 0, 63, 100
1, 44624, Note_off_c, 0, 63, 100
1, 44624, Note_on_c, 0, 65, 100
1, 44656, Note_off_c, 0, 65, 100
1, 44656, Note_on_c, 0, 63, 100
1, 44688, Note_off_c, 0, 63, 100
1, 44688, Note_on_c, 0, 65, 100
1, 44736, Note_off_c, 0, 65, 100
1, 44736, Note_on_c, 0, 63, 100
1, 44784, Note_off_c, 0, 63, 100
1, 44784, Note_on_c, 0, 65, 100
1, 44831, Note_off_c, 0, 65, 100
1, 44831, Note_on_c, 0, 63, 100
1, 44879, Note_off_c, 0, 63, 100
1, 44879, Note_on_c, 0, 65, 100
1, 44917, Note_off_c, 0, 65, 100
1, 44917, Note_on_c, 0, 63, 100
1, 44955, Note_off_c, 0, 63, 100
1, 44955, Note_on_c, 0, 65, 100
1, 44993, Note_off_c, 0, 65, 100
1, 44993, Note_on_c, 0, 63, 100
1, 45031, Note_off_c, 0, 63, 100
1, 45031, Note_on_c, 0, 65, 100
1, 45069, Note_off_c, 0, 65, 100
1, 45069, Note_on_c, 0, 63, 100
1, 45107, Note_off_c, 0, 63, 100
1, 45107, Note_on_c, 0, 65, 100
1, 45145, Note_off_c, 0, 65, 100
1, 45145, Note_on_c, 0, 63, 100
1, 45183, Note_off_c, 0, 63, 100
1, 45183, Note_on_c, 0, 65, 100
1, 45221, Note_off_c, 0, 65, 100
1, 45221, Note_on_c, 0, 63, 100
1, 45259, Note_off_c, 0, 63, 100
1, 45259, Note_on_c, 0, 65, 100
1, 45307, Note_off_c, 0, 65, 100
1, 45307, Note_on_c, 0, 63, 100
1, 45355, Note_off_c, 0, 63, 100
1, 45355, Note_on_c, 0, 65, 100
1, 45402, Note_off_c, 0, 65, 100
1, 45402, Note_on_c, 0, 63, 100
1, 45450, Note_off_c, 0, 63, 100
1, 45450, Note_on_c, 0, 65, 100
1, 45488, Note_off_c, 0, 65, 100
1, 45488, Note_on_c, 0, 63, 100
1, 45526, Note_off_c, 0, 63, 100
1, 45526, Note_on_c, 0, 65, 100
1, 45564, Note_off_c, 0, 65, 100
1, 45564, Note_on_c, 0, 63, 100
1, 45602, Note_off_c, 0, 63, 100
1, 45602, Note_on_c, 0, 65, 100
1, 45640, Note_off_c, 0, 65, 100
1, 45640, Note_on_c, 0, 63, 100
1, 45687, Note_off_c, 0, 63, 100
1, 45687, Note_on_c, 0, 65, 100
1, 45735, Note_off_c, 0, 65, 100
1, 45735, Note_on_c, 0, 63, 100
1, 45831, Note_off_c, 0, 63, 100
1, 46023, Note_on_c, 0, 70, 100
1, 46119, Note_off_c, 0, 70, 100
1, 46119, Note_on_c, 0, 72, 100
1, 47175, Note_off_c, 0, 72, 100
1, 47175, Note_on_c, 0, 72, 100
1, 47223, Note_off_c, 0, 72, 100
1, 47223, Note_on_c, 0, 73, 100
1, 47367, Note_off_c, 0, 73, 100
1, 47367, Note_on_c, 0, 67, 100
1, 47559, Note_off_c, 0, 67, 100
1, 47847, Note_on_c, 0, 71, 100
1, 47943, Note_off_c, 0, 71, 100
1, 47943, Note_on_c, 0, 73, 100
1, 48231, Note_off_c, 0, 73, 100
1, 48231, Note_on_c, 0, 74, 100
1, 48326, Note_off_c, 0, 74, 100
1, 48326, Note_on_c, 0, 75, 100
1, 48422, Note_off_c, 0, 75, 100
1, 48422, Note_on_c, 0, 72, 100
1, 48565, Note_off_c, 0, 72, 100
1, 48565, Note_on_c, 0, 70, 100
1, 48853, Note_off_c, 0, 70, 100
1, 48853, Note_on_c, 0, 68, 100
1, 48949, Note_off_c, 0, 68, 100
1, 48949, Note_on_c, 0, 67, 100
1, 49045, Note_off_c, 0, 67, 100
1, 49045, Note_on_c, 0, 63, 100
1, 49093, Note_off_c, 0, 63, 100
1, 49093, Note_on_c, 0, 67, 100
1, 49381, Note_off_c, 0, 67, 100
1, 49381, Note_on_c, 0, 64, 100
1, 49477, Note_off_c, 0, 64, 100
1, 49477, Note_on_c, 0, 69, 100
1, 49573, Note_off_c, 0, 69, 100
1, 49573, Note_on_c, 0, 64, 100
1, 49669, Note_off_c, 0, 64, 100
1, 49669, Note_on_c, 0, 71, 100
1, 49957, Note_off_c, 0, 71, 100
1, 49957, Note_on_c, 0, 69, 100
1, 50053, Note_off_c, 0, 69, 100
1, 50053, Note_on_c, 0, 67, 100
1, 50149, Note_off_c, 0, 67, 100
1, 50149, Note_on_c, 0, 64, 100
1, 50197, Note_off_c, 0, 64, 100
1, 50197, Note_on_c, 0, 62, 100
1, 50245, Note_off_c, 0, 62, 100
1, 50245, Note_on_c, 0, 64, 100
1, 50533, Note_off_c, 0, 64, 100
1, 50533, Note_on_c, 0, 69, 100
1, 50629, Note_off_c, 0, 69, 100
1, 50629, Note_on_c, 0, 65, 100
1, 50773, Note_off_c, 0, 65, 100
1, 50773, Note_on_c, 0, 75, 100
1, 50821, Note_off_c, 0, 75, 100
1, 50821, Note_on_c, 0, 77, 100
1, 51205, Note_off_c, 0, 77, 100
1, 51205, Note_on_c, 0, 64, 100
1, 51301, Note_off_c, 0, 64, 100
1, 51301, Note_on_c, 0, 65, 100
1, 51397, Note_off_c, 0, 65, 100
1, 51397, Note_on_c, 0, 57, 100
1, 51781, Note_off_c, 0, 57, 100
1, 51781, Note_on_c, 0, 67, 100
1, 51877, Note_off_c, 0, 67, 100
1, 51877, Note_on_c, 0, 71, 100
1, 51973, Note_off_c, 0, 71, 100
1, 51973, Note_on_c, 0, 64, 100
1, 52069, Note_off_c, 0, 64, 100
1, 52261, Note_on_c, 0, 69, 100
1, 52357, Note_off_c, 0, 69, 100
1, 52357, Note_on_c, 0, 66, 100
1, 52405, Note_off_c, 0, 66, 100
1, 52405, Note_on_c, 0, 62, 100
1, 52501, Note_off_c, 0, 62, 100
1, 52501, Note_on_c, 0, 59, 100
1, 52597, Note_off_c, 0, 59, 100
1, 52933, Note_on_c, 0, 71, 100
1, 53125, Note_off_c, 0, 71, 100
1, 53125, Note_on_c, 0, 71, 100
1, 53317, Note_off_c, 0, 71, 100
1, 53317, Note_on_c, 0, 71, 100
1, 53509, Note_off_c, 0, 71, 100
1, 53509, Note_on_c, 0, 70, 100
1, 53557, Note_off_c, 0, 70, 100
1, 53557, Note_on_c, 0, 71, 100
1, 53941, Note_off_c, 0, 71, 100
1, 53941, Note_on_c, 0, 69, 100
1, 53989, Note_off_c, 0, 69, 100
1, 53989, Note_on_c, 0, 67, 100
1, 54037, Note_off_c, 0, 67, 100
1, 54037, Note_on_c, 0, 64, 100
1, 54085, Note_off_c, 0, 64, 100
1, 54085, Note_on_c, 0, 62, 100
1, 54133, Note_off_c, 0, 62, 100
1, 54133, Note_on_c, 0, 59, 100
1, 54181, Note_off_c, 0, 59, 100
1, 54181, Note_on_c, 0, 57, 100
1, 54229, Note_off_c, 0, 57, 100
1, 54229, Note_on_c, 0, 55, 100
1, 54277, Note_off_c, 0, 55, 100
1, 54277, Note_on_c, 0, 52, 100
1, 54341, Note_off_c, 0, 52, 100
1, 54341, Note_on_c, 0, 50, 100
1, 54405, Note_off_c, 0, 50, 100
1, 54405, Note_on_c, 0, 47, 100
1, 54597, Note_off_c, 0, 47, 100
1, 54949, Note_on_c, 0, 70, 100
1, 54997, Note_off_c, 0, 70, 100
1, 54997, Note_on_c, 0, 71, 100
1, 55141, Note_off_c, 0, 71, 100
1, 55141, Note_on_c, 0, 69, 100
1, 55189, Note_off_c, 0, 69, 100
1, 55189, Note_on_c, 0, 71, 100
1, 55237, Note_off_c, 0, 71, 100
1, 55237, Note_on_c, 0, 69, 100
1, 55301, Note_off_c, 0, 69, 100
1, 55301, Note_on_c, 0, 67, 100
1, 55364, Note_off_c, 0, 67, 100
1, 55364, Note_on_c, 0, 65, 100
1, 55428, Note_off_c, 0, 65, 100
1, 55428, Note_on_c, 0, 63, 100
1, 55492, Note_off_c, 0, 63, 100
1, 55492, Note_on_c, 0, 59, 100
1, 55556, Note_off_c, 0, 59, 100
1, 55556, Note_on_c, 0, 57, 100
1, 55620, Note_off_c, 0, 57, 100
1, 55620, Note_on_c, 0, 55, 100
1, 55658, Note_off_c, 0, 55, 100
1, 55658, Note_on_c, 0, 53, 100
1, 55696, Note_off_c, 0, 53, 100
1, 55696, Note_on_c, 0, 51, 100
1, 55772, Note_off_c, 0, 51, 100
1, 55772, Note_on_c, 0, 53, 100
1, 55810, Note_off_c, 0, 53, 100
1, 55810, Note_on_c, 0, 55, 100
1, 55858, Note_off_c, 0, 55, 100
1, 55858, Note_on_c, 0, 57, 100
1, 55906, Note_off_c, 0, 57, 100
1, 55906, Note_on_c, 0, 59, 100
1, 55954, Note_off_c, 0, 59, 100
1, 55954, Note_on_c, 0, 63, 100
1, 56002, Note_off_c, 0, 63, 100
1, 56002, Note_on_c, 0, 65, 100
1, 56050, Note_off_c, 0, 65, 100
1, 56050, Note_on_c, 0, 67, 100
1, 56098, Note_off_c, 0, 67, 100
1, 56098, Note_on_c, 0, 69, 100
1, 56146, Note_off_c, 0, 69, 100
1, 56146, Note_on_c, 0, 71, 100
1, 56194, Note_off_c, 0, 71, 100
1, 56194, Note_on_c, 0, 69, 100
1, 56242, Note_off_c, 0, 69, 100
1, 56242, Note_on_c, 0, 67, 100
1, 56290, Note_off_c, 0, 67, 100
1, 56290, Note_on_c, 0, 65, 100
1, 56338, Note_off_c, 0, 65, 100
1, 56338, Note_on_c, 0, 63, 100
1, 56386, Note_off_c, 0, 63, 100
1, 56386, Note_on_c, 0, 65, 100
1, 56434, Note_off_c, 0, 65, 100
1, 56434, Note_on_c, 0, 67, 100
1, 56482, Note_off_c, 0, 67, 100
1, 56482, Note_on_c, 0, 69, 100
1, 56530, Note_off_c, 0, 69, 100
1, 56530, Note_on_c, 0, 71, 100
1, 56578, Note_off_c, 0, 71, 100
1, 56578, Note_on_c, 0, 75, 100
1, 56642, Note_off_c, 0, 75, 100
1, 56642, Note_on_c, 0, 73, 100
1, 56706, Note_off_c, 0, 73, 100
1, 56706, Note_on_c, 0, 71, 100
1, 56738, Note_off_c, 0, 71, 100
1, 56738, Note_on_c, 0, 70, 100
1, 56770, Note_off_c, 0, 70, 100
1, 56770, Note_on_c, 0, 69, 100
1, 56834, Note_off_c, 0, 69, 100
1, 56834, Note_on_c, 0, 67, 100
1, 56897, Note_off_c, 0, 67, 100
1, 56897, Note_on_c, 0, 65, 100
1, 56961, Note_off_c, 0, 65, 100
1, 56961, Note_on_c, 0, 63, 100
1, 57009, Note_off_c, 0, 63, 100
1, 57009, Note_on_c, 0, 59, 100
1, 57057, Note_off_c, 0, 59, 100
1, 57057, Note_on_c, 0, 57, 100
1, 57105, Note_off_c, 0, 57, 100
1, 57105, Note_on_c, 0, 55, 100
1, 57153, Note_off_c, 0, 55, 100
1, 57153, Note_on_c, 0, 53, 100
1, 57201, Note_off_c, 0, 53, 100
1, 57201, Note_on_c, 0, 51, 100
1, 57297, Note_off_c, 0, 51, 100
1, 57585, Note_on_c, 0, 51, 100
1, 57633, Note_off_c, 0, 51, 100
1, 57633, Note_on_c, 0, 53, 100
1, 57681, Note_off_c, 0, 53, 100
1, 57681, Note_on_c, 0, 55, 100
1, 57729, Note_off_c, 0, 55, 100
1, 57729, Note_on_c, 0, 59, 100
1, 57825, Note_off_c, 0, 59, 100
1, 57825, Note_on_c, 0, 65, 100
1, 57873, Note_off_c, 0, 65, 100
1, 57873, Note_on_c, 0, 67, 100
1, 57921, Note_off_c, 0, 67, 100
1, 57921, Note_on_c, 0, 69, 100
1, 57969, Note_off_c, 0, 69, 100
1, 57969, Note_on_c, 0, 75, 100
1, 58017, Note_off_c, 0, 75, 100
1, 58017, Note_on_c, 0, 73, 100
1, 58065, Note_off_c, 0, 73, 100
1, 58065, Note_on_c, 0, 71, 100
1, 58209, Note_off_c, 0, 71, 100
1, 58209, Note_on_c, 0, 77, 100
1, 58305, Note_off_c, 0, 77, 100
1, 58305, Note_on_c, 0, 75, 100
1, 58401, Note_off_c, 0, 75, 100
1, 58401, Note_on_c, 0, 71, 100
1, 58449, Note_off_c, 0, 71, 100
1, 58449, Note_on_c, 0, 70, 100
1, 58497, Note_off_c, 0, 70, 100
1, 58497, Note_on_c, 0, 69, 100
1, 58545, Note_off_c, 0, 69, 100
1, 58545, Note_on_c, 0, 67, 100
1, 58593, Note_off_c, 0, 67, 100
1, 58593, Note_on_c, 0, 65, 100
1, 58641, Note_off_c, 0, 65, 100
1, 58641, Note_on_c, 0, 63, 100
1, 58689, Note_off_c, 0, 63, 100
1, 58689, Note_on_c, 0, 69, 100
1, 58737, Note_off_c, 0, 69, 100
1, 58737, Note_on_c, 0, 65, 100
1, 58785, Note_off_c, 0, 65, 100
1, 58785, Note_on_c, 0, 63, 100
1, 58833, Note_off_c, 0, 63, 100
1, 58833, Note_on_c, 0, 59, 100
1, 58881, Note_off_c, 0, 59, 100
1, 58881, Note_on_c, 0, 57, 100
1, 58945, Note_off_c, 0, 57, 100
1, 58945, Note_on_c, 0, 55, 100
1, 59009, Note_off_c, 0, 55, 100
1, 59009, Note_on_c, 0, 51, 100
1, 59073, Note_off_c, 0, 51, 100
1, 59073, Note_on_c, 0, 59, 100
1, 59105, Note_off_c, 0, 59, 100
1, 59105, Note_on_c, 0, 57, 100
1, 59137, Note_off_c, 0, 57, 100
1, 59137, Note_on_c, 0, 55, 100
1, 59200, Note_off_c, 0, 55, 100
1, 59200, Note_on_c, 0, 51, 100
1, 59232, Note_off_c, 0, 51, 100
1, 59232, Note_on_c, 0, 59, 100
1, 59264, Note_off_c, 0, 59, 100
1, 59264, Note_on_c, 0, 57, 100
1, 59328, Note_off_c, 0, 57, 100
1, 59328, Note_on_c, 0, 55, 100
1, 59391, Note_off_c, 0, 55, 100
1, 59391, Note_on_c, 0, 51, 100
1, 59455, Note_off_c, 0, 51, 100
1, 59455, Note_on_c, 0, 48, 100
1, 59551, Note_off_c, 0, 48, 100
1, 59871, Note_on_c, 0, 46, 100
1, 59935, Note_off_c, 0, 46, 100
1, 59935, Note_on_c, 0, 52, 100
1, 59967, Note_off_c, 0, 52, 100
1, 59967, Note_on_c, 0, 53, 100
1, 59999, Note_off_c, 0, 53, 100
1, 59999, Note_on_c, 0, 55, 100
1, 60031, Note_off_c, 0, 55, 100
1, 60031, Note_on_c, 0, 57, 100
1, 60062, Note_off_c, 0, 57, 100
1, 60062, Note_on_c, 0, 58, 100
1, 60126, Note_off_c, 0, 58, 100
1, 60126, Note_on_c, 0, 60, 100
1, 60158, Note_off_c, 0, 60, 100
1, 60158, Note_on_c, 0, 64, 100
1, 60190, Note_off_c, 0, 64, 100
1, 60190, Note_on_c, 0, 67, 100
1, 60222, Note_off_c, 0, 67, 100
1, 60222, Note_on_c, 0, 69, 100
1, 60254, Note_off_c, 0, 69, 100
1, 60254, Note_on_c, 0, 74, 100
1, 60286, Note_off_c, 0, 74, 100
1, 60286, Note_on_c, 0, 73, 100
1, 60317, Note_off_c, 0, 73, 100
1, 60317, Note_on_c, 0, 72, 100
1, 60349, Note_off_c, 0, 72, 100
1, 60349, Note_on_c, 0, 71, 100
1, 60381, Note_off_c, 0, 71, 100
1, 60381, Note_on_c, 0, 70, 100
1, 60653, Note_off_c, 0, 70, 100
1, 60653, Note_on_c, 0, 69, 100
1, 60701, Note_off_c, 0, 69, 100
1, 60701, Note_on_c, 0, 68, 100
1, 60749, Note_off_c, 0, 68, 100
1, 60749, Note_on_c, 0, 67, 100
1, 60797, Note_off_c, 0, 67, 100
1, 60797, Note_on_c, 0, 65, 100
1, 60845, Note_off_c, 0, 65, 100
1, 60845, Note_on_c, 0, 64, 100
1, 60893, Note_off_c, 0, 64, 100
1, 60893, Note_on_c, 0, 62, 100
1, 60941, Note_off_c, 0, 62, 100
1, 60941, Note_on_c, 0, 60, 100
1, 60989, Note_off_c, 0, 60, 100
1, 60989, Note_on_c, 0, 57, 100
1, 61037, Note_off_c, 0, 57, 100
1, 61037, Note_on_c, 0, 52, 100
1, 61085, Note_off_c, 0, 52, 100
1, 61085, Note_on_c, 0, 50, 100
1, 61133, Note_off_c, 0, 50, 100
1, 61133, Note_on_c, 0, 48, 100
1, 61181, Note_off_c, 0, 48, 100
1, 61181, Note_on_c, 0, 45, 100
1, 61757, Note_off_c, 0, 45, 100
1, 62141, Note_on_c, 0, 44, 100
1, 63389, Note_off_c, 0, 44, 100
1, 63389, Note_on_c, 0, 57, 100
1, 63581, Note_off_c, 0, 57, 100
1, 63581, Note_on_c, 0, 59, 100
1, 63773, Note_off_c, 0, 59, 100
1, 63773, Note_on_c, 0, 62, 100
1, 63965, Note_off_c, 0, 62, 100
1, 63965, Note_on_c, 0, 64, 100
1, 64157, Note_off_c, 0, 64, 100
1, 64157, Note_on_c, 0, 69, 100
1, 64301, Note_off_c, 0, 69, 100
1, 64301, Note_on_c, 0, 61, 100
1, 64397, Note_off_c, 0, 61, 100
1, 64397, Note_on_c, 0, 67, 100
1, 64509, Note_off_c, 0, 67, 100
1, 64509, Note_on_c, 0, 69, 100
1, 64732, Note_off_c, 0, 69, 100
1, 64732, Note_on_c, 0, 69, 100
1, 64828, Note_off_c, 0, 69, 100
1, 65116, Note_on_c, 0, 67, 100
1, 65212, Note_off_c, 0, 67, 100
1, 65212, Note_on_c, 0, 69, 100
1, 65500, Note_off_c, 0, 69, 100
1, 65500, Note_on_c, 0, 64, 100
1, 65596, Note_off_c, 0, 64, 100
1, 65596, Note_on_c, 0, 69, 100
1, 65644, Note_off_c, 0, 69, 100
1, 65644, Note_on_c, 0, 69, 100
1, 65740, Note_off_c, 0, 69, 100
1, 65740, Note_on_c, 0, 64, 100
1, 65884, Note_off_c, 0, 64, 100
1, 65884, Note_on_c, 0, 69, 100
1, 65980, Note_off_c, 0, 69, 100
1, 66268, Note_on_c, 0, 68, 100
1, 66364, Note_off_c, 0, 68, 100
1, 66364, Note_on_c, 0, 69, 100
1, 66652, Note_off_c, 0, 69, 100
1, 66652, Note_on_c, 0, 64, 100
1, 66748, Note_off_c, 0, 64, 100
1, 66748, Note_on_c, 0, 69, 100
1, 66844, Note_off_c, 0, 69, 100
1, 66844, Note_on_c, 0, 64, 100
1, 66940, Note_off_c, 0, 64, 100
1, 66940, Note_on_c, 0, 69, 100
1, 67132, Note_off_c, 0, 69, 100
1, 67420, Note_on_c, 0, 68, 100
1, 67468, Note_off_c, 0, 68, 100
1, 67468, Note_on_c, 0, 69, 100
1, 67772, Note_off_c, 0, 69, 100
1, 67772, Note_on_c, 0, 64, 100
1, 67836, Note_off_c, 0, 64, 100
1, 67836, Note_on_c, 0, 69, 100
1, 67996, Note_off_c, 0, 69, 100
1, 67996, Note_on_c, 0, 64, 100
1, 68044, Note_off_c, 0, 64, 100
1, 68044, Note_on_c, 0, 69, 100
1, 68236, Note_off_c, 0, 69, 100
1, 68572, Note_on_c, 0, 68, 100
1, 68620, Note_off_c, 0, 68, 100
1, 68620, Note_on_c, 0, 69, 100
1, 69676, Note_off_c, 0, 69, 100
1, 69676, Note_on_c, 0, 63, 100
1, 69724, Note_off_c, 0, 63, 100
1, 69724, Note_on_c, 0, 65, 100
1, 69772, Note_off_c, 0, 65, 100
1, 69772, Note_on_c, 0, 67, 100
1, 69820, Note_off_c, 0, 67, 100
1, 69820, Note_on_c, 0, 69, 100
1, 69916, Note_off_c, 0, 69, 100
1, 70156, Note_on_c, 0, 55, 100
1, 70204, Note_off_c, 0, 55, 100
1, 70204, Note_on_c, 0, 56, 100
1, 70252, Note_off_c, 0, 56, 100
1, 70252, Note_on_c, 0, 57, 100
1, 70300, Note_off_c, 0, 57, 100
1, 70300, Note_on_c, 0, 59, 100
1, 70348, Note_off_c, 0, 59, 100
1, 70348, Note_on_c, 0, 63, 100
1, 70396, Note_off_c, 0, 63, 100
1, 70396, Note_on_c, 0, 67, 100
1, 70428, Note_off_c, 0, 67, 100
1, 70428, Note_on_c, 0, 69, 100
1, 70460, Note_off_c, 0, 69, 100
1, 70460, Note_on_c, 0, 71, 100
1, 70492, Note_off_c, 0, 71, 100
1, 70492, Note_on_c, 0, 73, 100
1, 70524, Note_off_c, 0, 73, 100
1, 70524, Note_on_c, 0, 74, 100
1, 70620, Note_off_c, 0, 74, 100
1, 70780, Note_on_c, 0, 53, 100
1, 70844, Note_off_c, 0, 53, 100
1, 70844, Note_on_c, 0, 55, 100
1, 70908, Note_off_c, 0, 55, 100
1, 70908, Note_on_c, 0, 57, 100
1, 70972, Note_off_c, 0, 57, 100
1, 70972, Note_on_c, 0, 60, 100
1, 71004, Note_off_c, 0, 60, 100
1, 71004, Note_on_c, 0, 63, 100
1, 71036, Note_off_c, 0, 63, 100
1, 71036, Note_on_c, 0, 65, 100
1, 71068, Note_off_c, 0, 65, 100
1, 71068, Note_on_c, 0, 67, 100
1, 71100, Note_off_c, 0, 67, 100
1, 71100, Note_on_c, 0, 69, 100
1, 71132, Note_off_c, 0, 69, 100
1, 71132, Note_on_c, 0, 70, 100
1, 71164, Note_off_c, 0, 70, 100
1, 71164, Note_on_c, 0, 71, 100
1, 71212, Note_off_c, 0, 71, 100
1, 71212, Note_on_c, 0, 74, 100
1, 71260, Note_off_c, 0, 74, 100
1, 71260, Note_on_c, 0, 75, 100
1, 71356, Note_off_c, 0, 75, 100
1, 71548, Note_on_c, 0, 51, 100
1, 71612, Note_off_c, 0, 51, 100
1, 71612, Note_on_c, 0, 55, 100
1, 71676, Note_off_c, 0, 55, 100
1, 71676, Note_on_c, 0, 57, 100
1, 71740, Note_off_c, 0, 57, 100
1, 71740, Note_on_c, 0, 60, 100
1, 71804, Note_off_c, 0, 60, 100
1, 71804, Note_on_c, 0, 67, 100
1, 71836, Note_off_c, 0, 67, 100
1, 71836, Note_on_c, 0, 69, 100
1, 71868, Note_off_c, 0, 69, 100
1, 71868, Note_on_c, 0, 71, 100
1, 71900, Note_off_c, 0, 71, 100
1, 71900, Note_on_c, 0, 75, 100
1, 71932, Note_off_c, 0, 75, 100
1, 71932, Note_on_c, 0, 77, 100
1, 72220, Note_off_c, 0, 77, 100
1, 72412, Note_on_c, 0, 50, 100
1, 72508, Note_off_c, 0, 50, 100
1, 72508, Note_on_c, 0, 58, 100
1, 72556, Note_off_c, 0, 58, 100
1, 72556, Note_on_c, 0, 69, 100
1, 72604, Note_off_c, 0, 69, 100
1, 72604, Note_on_c, 0, 71, 100
1, 72652, Note_off_c, 0, 71, 100
1, 72652, Note_on_c, 0, 75, 100
1, 72700, Note_off_c, 0, 75, 100
1, 72700, Note_on_c, 0, 77, 100
1, 72988, Note_off_c, 0, 77, 100
1, 72988, Note_on_c, 0, 65, 100
1, 73036, Note_off_c, 0, 65, 100
1, 73036, Note_on_c, 0, 61, 100
1, 73084, Note_off_c, 0, 61, 100
1, 73084, Note_on_c, 0, 60, 100
1, 73180, Note_off_c, 0, 60, 100
1, 73660, Note_on_c, 0, 75, 100
1, 73756, Note_off_c, 0, 75, 100
1, 73756, Note_on_c, 0, 76, 100
1, 74236, Note_off_c, 0, 76, 100
1, 74236, Note_on_c, 0, 75, 100
1, 74284, Note_off_c, 0, 75, 100
1, 74284, Note_on_c, 0, 76, 100
1, 74812, Note_off_c, 0, 76, 100
1, 74812, Note_on_c, 0, 75, 100
1, 74860, Note_off_c, 0, 75, 100
1, 74860, Note_on_c, 0, 76, 100
1, 75388, Note_off_c, 0, 76, 100
1, 75388, Note_on_c, 0, 76, 100
1, 75676, Note_off_c, 0, 76, 100
1, 75964, Note_on_c, 0, 76, 100
1, 76060, Note_off_c, 0, 76, 100
1, 76060, Note_on_c, 0, 77, 100
1, 76540, Note_off_c, 0, 77, 100
1, 76540, Note_on_c, 0, 76, 100
1, 76636, Note_off_c, 0, 76, 100
1, 76636, Note_on_c, 0, 77, 100
1, 77212, Note_off_c, 0, 77, 100
1, 77212, Note_on_c, 0, 79, 100
1, 77308, Note_off_c, 0, 79, 100
1, 77308, Note_on_c, 0, 71, 100
1, 77452, Note_off_c, 0, 71, 100
1, 77452, Note_on_c, 0, 77, 100
1, 77500, Note_off_c, 0, 77, 100
1, 77500, Note_on_c, 0, 79, 100
1, 77548, Note_off_c, 0, 79, 100
1, 77548, Note_on_c, 0, 71, 100
1, 77644, Note_off_c, 0, 71, 100
1, 78268, Note_on_c, 0, 76, 100
1, 78364, Note_off_c, 0, 76, 100
1, 78364, Note_on_c, 0, 77, 100
1, 78412, Note_off_c, 0, 77, 100
1, 78412, Note_on_c, 0, 79, 100
1, 78604, Note_off_c, 0, 79, 100
1, 78604, Note_on_c, 0, 79, 100
1, 79036, Note_off_c, 0, 79, 100
1, 79036, Note_on_c, 0, 76, 100
1, 79228, Note_off_c, 0, 76, 100
1, 79228, Note_on_c, 0, 79, 100
1, 79323, Note_off_c, 0, 79, 100
1, 79323, Note_on_c, 0, 71, 100
1, 79419, Note_off_c, 0, 71, 100
1, 79419, Note_on_c, 0, 74, 100
1, 79995, Note_off_c, 0, 74, 100
1, 79995, Note_on_c, 0, 73, 100
1, 80091, Note_off_c, 0, 73, 100
1, 80091, Note_on_c, 0, 74, 100
1, 80187, Note_off_c, 0, 74, 100
1, 80187, Note_on_c, 0, 73, 100
1, 80379, Note_off_c, 0, 73, 100
1, 80379, Note_on_c, 0, 71, 100
1, 80474, Note_off_c, 0, 71, 100
1, 80474, Note_on_c, 0, 72, 100
1, 80762, Note_off_c, 0, 72, 100
1, 81194, Note_on_c, 0, 71, 100
1, 81242, Note_off_c, 0, 71, 100
1, 81242, Note_on_c, 0, 72, 100
1, 81530, Note_off_c, 0, 72, 100
1, 81530, Note_on_c, 0, 71, 100
1, 81674, Note_off_c, 0, 71, 100
1, 81674, Note_on_c, 0, 72, 100
1, 81722, Note_off_c, 0, 72, 100
1, 81722, Note_on_c, 0, 71, 100
1, 81914, Note_off_c, 0, 71, 100
1, 82394, Note_on_c, 0, 69, 100
1, 82490, Note_off_c, 0, 69, 100
1, 82490, Note_on_c, 0, 71, 100
1, 82746, Note_off_c, 0, 71, 100
1, 82746, Note_on_c, 0, 69, 100
1, 82810, Note_off_c, 0, 69, 100
1, 82810, Note_on_c, 0, 71, 100
1, 82970, Note_off_c, 0, 71, 100
1, 82970, Note_on_c, 0, 48, 100
1, 83546, Note_off_c, 0, 48, 100
1, 83546, Note_on_c, 0, 50, 100
1, 83706, Note_off_c, 0, 50, 100
1, 83706, Note_on_c, 0, 50, 100
1, 83802, Note_off_c, 0, 50, 100
1, 84122, Note_on_c, 0, 69, 100
1, 84170, Note_off_c, 0, 69, 100
1, 84170, Note_on_c, 0, 71, 100
1, 84314, Note_off_c, 0, 71, 100
1, 84314, Note_on_c, 0, 71, 100
1, 84410, Note_off_c, 0, 71, 100
1, 84410, Note_on_c, 0, 71, 100
1, 84505, Note_off_c, 0, 71, 100
1, 84505, Note_on_c, 0, 71, 100
1, 84697, Note_off_c, 0, 71, 100
1, 84697, Note_on_c, 0, 71, 100
1, 84793, Note_off_c, 0, 71, 100
1, 84793, Note_on_c, 0, 71, 100
1, 84889, Note_off_c, 0, 71, 100
1, 84889, Note_on_c, 0, 71, 100
1, 85049, Note_off_c, 0, 71, 100
1, 85049, Note_on_c, 0, 71, 100
1, 85113, Note_off_c, 0, 71, 100
1, 85113, Note_on_c, 0, 71, 100
1, 85177, Note_off_c, 0, 71, 100
1, 85177, Note_on_c, 0, 71, 100
1, 85273, Note_off_c, 0, 71, 100
1, 85273, Note_on_c, 0, 71, 100
1, 85369, Note_off_c, 0, 71, 100
1, 85369, Note_on_c, 0, 71, 100
1, 85433, Note_off_c, 0, 71, 100
1, 85433, Note_on_c, 0, 71, 100
1, 85497, Note_off_c, 0, 71, 100
1, 85497, Note_on_c, 0, 71, 100
1, 85560, Note_off_c, 0, 71, 100
1, 85560, Note_on_c, 0, 71, 100
1, 85655, Note_off_c, 0, 71, 100
1, 85655, Note_on_c, 0, 71, 100
1, 85703, Note_off_c, 0, 71, 100
1, 85703, Note_on_c, 0, 71, 100
1, 85751, Note_off_c, 0, 71, 100
1, 85751, Note_on_c, 0, 71, 100
1, 85847, Note_off_c, 0, 71, 100
1, 85847, Note_on_c, 0, 71, 100
1, 85943, Note_off_c, 0, 71, 100
1, 85943, Note_on_c, 0, 71, 100
1, 86039, Note_off_c, 0, 71, 100
1, 86039, Note_on_c, 0, 71, 100
1, 86135, Note_off_c, 0, 71, 100
1, 86135, Note_on_c, 0, 71, 100
1, 86230, Note_off_c, 0, 71, 100
1, 86230, Note_on_c, 0, 71, 100
1, 86278, Note_off_c, 0, 71, 100
1, 86278, Note_on_c, 0, 71, 100
1, 86326, Note_off_c, 0, 71, 100
1, 86326, Note_on_c, 0, 75, 100
1, 86422, Note_off_c, 0, 75, 100
1, 86422, Note_on_c, 0, 69, 100
1, 86806, Note_off_c, 0, 69, 100
1, 87046, Note_on_c, 0, 70, 100
1, 87094, Note_off_c, 0, 70, 100
1, 87094, Note_on_c, 0, 71, 100
1, 87190, Note_off_c, 0, 71, 100
1, 87190, Note_on_c, 0, 71, 100
1, 87238, Note_off_c, 0, 71, 100
1, 87238, Note_on_c, 0, 71, 100
1, 87286, Note_off_c, 0, 71, 100
1, 87286, Note_on_c, 0, 71, 100
1, 87381, Note_off_c, 0, 71, 100
1, 87381, Note_on_c, 0, 71, 100
1, 87477, Note_off_c, 0, 71, 100
1, 87477, Note_on_c, 0, 70, 100
1, 87541, Note_off_c, 0, 70, 100
1, 87541, Note_on_c, 0, 76, 100
1, 87605, Note_off_c, 0, 76, 100
1, 87605, Note_on_c, 0, 77, 100
1, 88181, Note_off_c, 0, 77, 100
1, 88629, Note_on_c, 0, 75, 100
1, 88677, Note_off_c, 0, 75, 100
1, 88677, Note_on_c, 0, 76, 100
1, 88773, Note_off_c, 0, 76, 100
1, 88773, Note_on_c, 0, 45, 100
1, 88965, Note_off_c, 0, 45, 100
1, 89301, Note_on_c, 0, 68, 100
1, 89397, Note_off_c, 0, 68, 100
1, 89397, Note_on_c, 0, 69, 100
1, 89781, Note_off_c, 0, 69, 100
1, 89781, Note_on_c, 0, 68, 100
1, 89877, Note_off_c, 0, 68, 100
1, 89877, Note_on_c, 0, 70, 100
1, 89973, Note_off_c, 0, 70, 100
1, 89973, Note_on_c, 0, 68, 100
1, 90069, Note_off_c, 0, 68, 100
1, 90069, Note_on_c, 0, 65, 100
1, 90165, Note_off_c, 0, 65, 100
1, 90165, Note_on_c, 0, 63, 100
1, 90260, Note_off_c, 0, 63, 100
1, 90260, Note_on_c, 0, 68, 100
1, 90356, Note_off_c, 0, 68, 100
1, 90356, Note_on_c, 0, 65, 100
1, 90452, Note_off_c, 0, 65, 100
1, 90452, Note_on_c, 0, 63, 100
1, 90548, Note_off_c, 0, 63, 100
1, 90548, Note_on_c, 0, 60, 100
1, 90644, Note_off_c, 0, 60, 100
1, 90644, Note_on_c, 0, 58, 100
1, 90740, Note_off_c, 0, 58, 100
1, 90740, Note_on_c, 0, 56, 100
1, 91028, Note_off_c, 0, 56, 100
1, 91028, Note_on_c, 0, 69, 100
1, 91124, Note_off_c, 0, 69, 100
1, 91124, Note_on_c, 0, 67, 100
1, 91220, Note_off_c, 0, 67, 100
1, 91220, Note_on_c, 0, 64, 100
1, 91316, Note_off_c, 0, 64, 100
1, 91316, Note_on_c, 0, 59, 100
1, 91411, Note_off_c, 0, 59, 100
1, 91411, Note_on_c, 0, 55, 100
1, 91507, Note_off_c, 0, 55, 100
1, 91507, Note_on_c, 0, 57, 100
1, 91699, Note_off_c, 0, 57, 100
1, 92083, Note_on_c, 0, 70, 100
1, 92131, Note_off_c, 0, 70, 100
1, 92131, Note_on_c, 0, 71, 100
1, 92371, Note_off_c, 0, 71, 100
1, 92371, Note_on_c, 0, 69, 100
1, 92562, Note_off_c, 0, 69, 100
1, 92562, Note_on_c, 0, 68, 100
1, 92610, Note_off_c, 0, 68, 100
1, 92610, Note_on_c, 0, 69, 100
1, 92850, Note_off_c, 0, 69, 100
1, 92850, Note_on_c, 0, 67, 100
1, 92994, Note_off_c, 0, 67, 100
1, 92994, Note_on_c, 0, 67, 100
1, 93137, Note_off_c, 0, 67, 100
1, 93137, Note_on_c, 0, 64, 100
1, 93233, Note_off_c, 0, 64, 100
1, 93233, Note_on_c, 0, 67, 100
1, 93521, Note_off_c, 0, 67, 100
1, 93521, Note_on_c, 0, 64, 100
1, 93712, Note_off_c, 0, 64, 100
1, 93712, Note_on_c, 0, 64, 100
1, 94000, Note_off_c, 0, 64, 100
1, 94000, Note_on_c, 0, 62, 100
1, 94192, Note_off_c, 0, 62, 100
1, 94192, Note_on_c, 0, 67, 100
1, 94287, Note_off_c, 0, 67, 100
1, 94287, Note_on_c, 0, 62, 100
1, 94383, Note_off_c, 0, 62, 100
1, 94383, Note_on_c, 0, 64, 100
1, 94671, Note_off_c, 0, 64, 100
1, 94671, Note_on_c, 0, 62, 100
1, 94862, Note_off_c, 0, 62, 100
1, 94862, Note_on_c, 0, 61, 100
1, 94958, Note_off_c, 0, 61, 100
1, 94958, Note_on_c, 0, 62, 100
1, 95150, Note_off_c, 0, 62, 100
1, 95150, Note_on_c, 0, 59, 100
1, 95342, Note_off_c, 0, 59, 100
1, 95342, Note_on_c, 0, 59, 100
1, 95437, Note_off_c, 0, 59, 100
1, 95437, Note_on_c, 0, 57, 100
1, 95533, Note_off_c, 0, 57, 100
1, 95533, Note_on_c, 0, 59, 100
1, 95821, Note_off_c, 0, 59, 100
1, 95821, Note_on_c, 0, 57, 100
1, 96012, Note_off_c, 0, 57, 100
1, 96012, Note_on_c, 0, 56, 100
1, 96060, Note_off_c, 0, 56, 100
1, 96060, Note_on_c, 0, 57, 100
1, 96300, Note_off_c, 0, 57, 100
1, 96300, Note_on_c, 0, 55, 100
1, 96492, Note_off_c, 0, 55, 100
1, 96492, Note_on_c, 0, 55, 100
1, 96587, Note_off_c, 0, 55, 100
1, 96587, Note_on_c, 0, 52, 100
1, 96683, Note_off_c, 0, 52, 100
1, 96683, Note_on_c, 0, 50, 100
1, 96962, Note_off_c, 0, 50, 100
1, 96962, End_track
0, 0, End_of_file
