0, 0, Header, 1, 1, 192
1, 0, Start_track
1, 0, Title_t, "Melody"
1, 0, Tempo, 346820
1, 0, Time_signature, 3, 2, 24, 8
1, 480, Note_on_c, 0, 74, 100
1, 720, Note_off_c, 0, 74, 100
1, 720, Note_on_c, 0, 67, 100
1, 864, Note_off_c, 0, 67, 100
1, 864, Note_on_c, 0, 69, 100
1, 1632, Note_off_c, 0, 69, 100
1, 1632, Note_on_c, 0, 67, 100
1, 1728, Note_off_c, 0, 67, 100
1, 1728, Note_on_c, 0, 69, 100
1, 1792, Note_off_c, 0, 69, 100
1, 1792, Note_on_c, 0, 72, 100
1, 1856, Note_off_c, 0, 72, 100
1, 1856, Note_on_c, 0, 74, 100
1, 1967, Note_off_c, 0, 74, 100
1, 1967, Note_on_c, 0, 67, 100
1, 2063, Note_off_c, 0, 67, 100
1, 2063, Note_on_c, 0, 69, 100
1, 2351, Note_off_c, 0, 69, 100
1, 2975, Note_on_c, 0, 69, 100
1, 3071, Note_off_c, 0, 69, 100
1, 3071, Note_on_c, 0, 74, 100
1, 3119, Note_off_c, 0, 74, 100
1, 3119, Note_on_c, 0, 76, 100
1, 3215, Note_off_c, 0, 76, 100
1, 3215, Note_on_c, 0, 77, 100
1, 3359, Note_off_c, 0, 77, 100
1, 3359, Note_on_c, 0, 75, 100
1, 3455, Note_off_c, 0, 75, 100
1, 3455, Note_on_c, 0, 77, 100
1, 3551, Note_off_c, 0, 77, 100
1, 3551, Note_on_c, 0, 79, 100
1, 3647, Note_off_c, 0, 79, 100
1, 3647, Note_on_c, 0, 75, 100
1, 3743, Note_off_c, 0, 75, 100
1, 3743, Note_on_c, 0, 70, 100
1, 3983, Note_off_c, 0, 70, 100
1, 3983, Note_on_c, 0, 67, 100
1, 4031, Note_off_c, 0, 67, 100
1, 4031, Note_on_c, 0, 69, 100
1, 4159, Note_off_c, 0, 69, 100
1, 4159, Note_on_c, 0, 62, 100
1, 4319, Note_off_c, 0, 62, 100
1, 4319, Note_on_c, 0, 64, 100
1, 4479, Note_off_c, 0, 64, 100
1, 4479, Note_on_c, 0, 61, 100
1, 4543, Note_off_c, 0, 61, 100
1, 4543, Note_on_c, 0, 64, 100
1, 4607, Note_off_c, 0, 64, 100
1, 4607, Note_on_c, 0, 58, 100
1, 4735, Note_off_c, 0, 58, 100
1, 4735, Note_on_c, 0, 57, 100
1, 4927, Note_off_c, 0, 57, 100
1, 5279, Note_on_c, 0, 65, 100
1, 5327, Note_off_c, 0, 65, 100
1, 5327, Note_on_c, 0, 70, 100
1, 5375, Note_off_c, 0, 70, 100
1, 5375, Note_on_c, 0, 75, 100
1, 5471, Note_off_c, 0, 75, 100
1, 5471, Note_on_c, 0, 77, 100
1, 5711, Note_off_c, 0, 77, 100
1, 5711, Note_on_c, 0, 72, 100
1, 6095, Note_off_c, 0, 72, 100
1, 6095, Note_on_c, 0, 70, 100
1, 6191, Note_off_c, 0, 70, 100
1, 6911, Note_on_c, 0, 75, 100
1, 6959, Note_off_c, 0, 75, 100
1, 6959, Note_on_c, 0, 77, 100
1, 7055, Note_off_c, 0, 77, 100
1, 7055, Note_on_c, 0, 82, 100
1, 7151, Note_off_c, 0, 82, 100
1, 7583, Note_on_c, 0, 80, 100
1, 7631, Note_off_c, 0, 80, 100
1, 7631, Note_on_c, 0, 77, 100
1, 7775, Note_off_c, 0, 77, 100
1, 7775, Note_on_c, 0, 75, 100
1, 7823, Note_off_c, 0, 75, 100
1, 7823, Note_on_c, 0, 77, 100
1, 7967, Note_off_c, 0, 77, 100
1, 7967, Note_on_c, 0, 72, 100
1, 8207, Note_off_c, 0, 72, 100
1, 8207, Note_on_c, 0, 69, 100
1, 8255, Note_off_c, 0, 69, 100
1, 8255, Note_on_c, 0, 73, 100
1, 8303, Note_off_c, 0, 73, 100
1, 8303, Note_on_c, 0, 76, 100
1, 8351, Note_off_c, 0, 76, 100
1, 8351, Note_on_c, 0, 75, 100
1, 8399, Note_off_c, 0, 75, 100
1, 8399, Note_on_c, 0, 73, 100
1, 8447, Note_off_c, 0, 73, 100
1, 8447, Note_on_c, 0, 71, 100
1, 8511, Note_off_c, 0, 71, 100
1, 8511, Note_on_c, 0, 73, 100
1, 8575, Note_off_c, 0, 73, 100
1, 8575, Note_on_c, 0, 71, 100
1, 8639, Note_off_c, 0, 71, 100
1, 8639, Note_on_c, 0, 69, 100
1, 8687, Note_off_c, 0, 69, 100
1, 8687, Note_on_c, 0, 66, 100
1, 8735, Note_off_c, 0, 66, 100
1, 8735, Note_on_c, 0, 71, 100
1, 8783, Note_off_c, 0, 71, 100
1, 8783, Note_on_c, 0, 68, 100
1, 8831, Note_off_c, 0, 68, 100
1, 8831, Note_on_c, 0, 64, 100
1, 8895, Note_off_c, 0, 64, 100
1, 8895, Note_on_c, 0, 69, 100
1, 8959, Note_off_c, 0, 69, 100
1, 8959, Note_on_c, 0, 68, 100
1, 9023, Note_off_c, 0, 68, 100
1, 9023, Note_on_c, 0, 64, 100
1, 9167, Note_off_c, 0, 64, 100
1, 9167, Note_on_c, 0, 59, 100
1, 9215, Note_off_c, 0, 59, 100
1, 9215, Note_on_c, 0, 60, 100
1, 9263, Note_off_c, 0, 60, 100
1, 9263, Note_on_c, 0, 61, 100
1, 9311, Note_off_c, 0, 61, 100
1, 9311, Note_on_c, 0, 63, 100
1, 9359, Note_off_c, 0, 63, 100
1, 9359, Note_on_c, 0, 66, 100
1, 9407, Note_off_c, 0, 66, 100
1, 9407, Note_on_c, 0, 67, 100
1, 9445, Note_off_c, 0, 67, 100
1, 9445, Note_on_c, 0, 69, 100
1, 9483, Note_off_c, 0, 69, 100
1, 9483, Note_on_c, 0, 71, 100
1, 9521, Note_off_c, 0, 71, 100
1, 9521, Note_on_c, 0, 73, 100
1, 9559, Note_off_c, 0, 73, 100
1, 9559, Note_on_c, 0, 74, 100
1, 9885, Note_off_c, 0, 74, 100
1, 9885, Note_on_c, 0, 72, 100
1, 9933, Note_off_c, 0, 72, 100
1, 9933, Note_on_c, 0, 67, 100
1, 10028, Note_off_c, 0, 67, 100
1, 10028, Note_on_c, 0, 69, 100
1, 10508, Note_off_c, 0, 69, 100
1, 11084, Note_on_c, 0, 76, 100
1, 11132, Note_off_c, 0, 76, 100
1, 11132, Note_on_c, 0, 77, 100
1, 11228, Note_off_c, 0, 77, 100
1, 11228, Note_on_c, 0, 79, 100
1, 11324, Note_off_c, 0, 79, 100
1, 11324, Note_on_c, 0, 81, 100
1, 11420, Note_off_c, 0, 81, 100
1, 11420, Note_on_c, 0, 79, 100
1, 11515, Note_off_c, 0, 79, 100
1, 11515, Note_on_c, 0, 77, 100
1, 11611, Note_off_c, 0, 77, 100
1, 11611, Note_on_c, 0, 76, 100
1, 11707, Note_off_c, 0, 76, 100
1, 11707, Note_on_c, 0, 77, 100
1, 11803, Note_off_c, 0, 77, 100
1, 11803, Note_on_c, 0, 74, 100
1, 11937, Note_off_c, 0, 74, 100
1, 11937, Note_on_c, 0, 72, 100
1, 11975, Note_off_c, 0, 72, 100
1, 11975, Note_on_c, 0, 74, 100
1, 12013, Note_off_c, 0, 74, 100
1, 12013, Note_on_c, 0, 79, 100
1, 12051, Note_off_c, 0, 79, 100
1, 12051, Note_on_c, 0, 76, 100
1, 12089, Note_off_c, 0, 76, 100
1, 12089, Note_on_c, 0, 74, 100
1, 12137, Note_off_c, 0, 74, 100
1, 12137, Note_on_c, 0, 72, 100
1, 12185, Note_off_c, 0, 72, 100
1, 12185, Note_on_c, 0, 77, 100
1, 12233, Note_off_c, 0, 77, 100
1, 12233, Note_on_c, 0, 76, 100
1, 12281, Note_off_c, 0, 76, 100
1, 12281, Note_on_c, 0, 72, 100
1, 12305, Note_off_c, 0, 72, 100
1, 12305, Note_on_c, 0, 74, 100
1, 12353, Note_off_c, 0, 74, 100
1, 12353, Note_on_c, 0, 70, 100
1, 12377, Note_off_c, 0, 70, 100
1, 12377, Note_on_c, 0, 69, 100
1, 12401, Note_off_c, 0, 69, 100
1, 12401, Note_on_c, 0, 67, 100
1, 12449, Note_off_c, 0, 67, 100
1, 12449, Note_on_c, 0, 72, 100
1, 12473, Note_off_c, 0, 72, 100
1, 12473, Note_on_c, 0, 71, 100
1, 12537, Note_off_c, 0, 71, 100
1, 12537, Note_on_c, 0, 65, 100
1, 12600, Note_off_c, 0, 65, 100
1, 12600, Note_on_c, 0, 70, 100
1, 12760, Note_off_c, 0, 70, 100
1, 12760, Note_on_c, 0, 72, 100
1, 12856, Note_off_c, 0, 72, 100
1, 12856, Note_on_c, 0, 73, 100
1, 12904, Note_off_c, 0, 73, 100
1, 12904, Note_on_c, 0, 75, 100
1, 13000, Note_off_c, 0, 75, 100
1, 13000, Note_on_c, 0, 72, 100
1, 13096, Note_off_c, 0, 72, 100
1, 13096, Note_on_c, 0, 70, 100
1, 13192, Note_off_c, 0, 70, 100
1, 13192, Note_on_c, 0, 63, 100
1, 13240, Note_off_c, 0, 63, 100
1, 13240, Note_on_c, 0, 69, 100
1, 13367, Note_off_c, 0, 69, 100
1, 13367, Note_on_c, 0, 62, 100
1, 13479, Note_off_c, 0, 62, 100
1, 13479, Note_on_c, 0, 64, 100
1, 13655, Note_off_c, 0, 64, 100
1, 13655, Note_on_c, 0, 59, 100
1, 13719, Note_off_c, 0, 59, 100
1, 13719, Note_on_c, 0, 61, 100
1, 13751, Note_off_c, 0, 61, 100
1, 13751, Note_on_c, 0, 62, 100
1, 13783, Note_off_c, 0, 62, 100
1, 13783, Note_on_c, 0, 64, 100
1, 13814, Note_off_c, 0, 64, 100
1, 13814, Note_on_c, 0, 66, 100
1, 13862, Note_off_c, 0, 66, 100
1, 13862, Note_on_c, 0, 67, 100
1, 13910, Note_off_c, 0, 67, 100
1, 13910, Note_on_c, 0, 69, 100
1, 13958, Note_off_c, 0, 69, 100
1, 13958, Note_on_c, 0, 71, 100
1, 14006, Note_off_c, 0, 71, 100
1, 14006, Note_on_c, 0, 73, 100
1, 14102, Note_off_c, 0, 73, 100
1, 14726, Note_on_c, 0, 75, 100
1, 14774, Note_off_c, 0, 75, 100
1, 14774, Note_on_c, 0, 79, 100
1, 14870, Note_off_c, 0, 79, 100
1, 14870, Note_on_c, 0, 82, 100
1, 14966, Note_off_c, 0, 82, 100
1, 14966, Note_on_c, 0, 77, 100
1, 15062, Note_off_c, 0, 77, 100
1, 15062, Note_on_c, 0, 75, 100
1, 15158, Note_off_c, 0, 75, 100
1, 15158, Note_on_c, 0, 70, 100
1, 15254, Note_off_c, 0, 70, 100
1, 15254, Note_on_c, 0, 77, 100
1, 15350, Note_off_c, 0, 77, 100
1, 15350, Note_on_c, 0, 75, 100
1, 15446, Note_off_c, 0, 75, 100
1, 15446, Note_on_c, 0, 70, 100
1, 15542, Note_off_c, 0, 70, 100
1, 15542, Note_on_c, 0, 65, 100
1, 15606, Note_off_c, 0, 65, 100
1, 15606, Note_on_c, 0, 67, 100
1, 15669, Note_off_c, 0, 67, 100
1, 15669, Note_on_c, 0, 74, 100
1, 15733, Note_off_c, 0, 74, 100
1, 15733, Note_on_c, 0, 75, 100
1, 15848, Note_off_c, 0, 75, 100
1, 15848, Note_on_c, 0, 74, 100
1, 15886, Note_off_c, 0, 74, 100
1, 15886, Note_on_c, 0, 73, 100
1, 15924, Note_off_c, 0, 73, 100
1, 15924, Note_on_c, 0, 72, 100
1, 16020, Note_off_c, 0, 72, 100
1, 16020, Note_on_c, 0, 70, 100
1, 16212, Note_off_c, 0, 70, 100
1, 16212, Note_on_c, 0, 68, 100
1, 16308, Note_off_c, 0, 68, 100
1, 16308, Note_on_c, 0, 70, 100
1, 16404, Note_off_c, 0, 70, 100
1, 16404, Note_on_c, 0, 70, 100
1, 16500, Note_off_c, 0, 70, 100
1, 16500, Note_on_c, 0, 70, 100
1, 16596, Note_off_c, 0, 70, 100
1, 16596, Note_on_c, 0, 70, 100
1, 16788, Note_off_c, 0, 70, 100
1, 16788, Note_on_c, 0, 63, 100
1, 16836, Note_off_c, 0, 63, 100
1, 16836, Note_on_c, 0, 67, 100
1, 16884, Note_off_c, 0, 67, 100
1, 16884, Note_on_c, 0, 68, 100
1, 17028, Note_off_c, 0, 68, 100
1, 17028, Note_on_c, 0, 65, 100
1, 17652, Note_off_c, 0, 65, 100
1, 17652, Note_on_c, 0, 71, 100
1, 17716, Note_off_c, 0, 71, 100
1, 17716, Note_on_c, 0, 73, 100
1, 17780, Note_off_c, 0, 73, 100
1, 17780, Note_on_c, 0, 71, 100
1, 17892, Note_off_c, 0, 71, 100
1, 17892, Note_on_c, 0, 68, 100
1, 17988, Note_off_c, 0, 68, 100
1, 17988, Note_on_c, 0, 66, 100
1, 18372, Note_off_c, 0, 66, 100
1, 19092, Note_on_c, 0, 67, 100
1, 19140, Note_off_c, 0, 67, 100
1, 19140, Note_on_c, 0, 74, 100
1, 19252, Note_off_c, 0, 74, 100
1, 19252, Note_on_c, 0, 70, 100
1, 19380, Note_off_c, 0, 70, 100
1, 19380, Note_on_c, 0, 69, 100
1, 19475, Note_off_c, 0, 69, 100
1, 19475, Note_on_c, 0, 67, 100
1, 19571, Note_off_c, 0, 67, 100
1, 19571, Note_on_c, 0, 68, 100
1, 19619, Note_off_c, 0, 68, 100
1, 19619, Note_on_c, 0, 70, 100
1, 19667, Note_off_c, 0, 70, 100
1, 19667, Note_on_c, 0, 68, 100
1, 19811, Note_off_c, 0, 68, 100
1, 19811, Note_on_c, 0, 71, 100
1, 19906, Note_off_c, 0, 71, 100
1, 19906, Note_on_c, 0, 75, 100
1, 20018, Note_off_c, 0, 75, 100
1, 20018, Note_on_c, 0, 78, 100
1, 20114, Note_off_c, 0, 78, 100
1, 20434, Note_on_c, 0, 81, 100
1, 20530, Note_off_c, 0, 81, 100
1, 20530, Note_on_c, 0, 79, 100
1, 20818, Note_off_c, 0, 79, 100
1, 20818, Note_on_c, 0, 78, 100
1, 20866, Note_off_c, 0, 78, 100
1, 20866, Note_on_c, 0, 77, 100
1, 20914, Note_off_c, 0, 77, 100
1, 20914, Note_on_c, 0, 75, 100
1, 20978, Note_off_c, 0, 75, 100
1, 20978, Note_on_c, 0, 71, 100
1, 21042, Note_off_c, 0, 71, 100
1, 21042, Note_on_c, 0, 68, 100
1, 21138, Note_off_c, 0, 68, 100
1, 21394, Note_on_c, 0, 76, 100
1, 21442, Note_off_c, 0, 76, 100
1, 21442, Note_on_c, 0, 74, 100
1, 21490, Note_off_c, 0, 74, 100
1, 21490, Note_on_c, 0, 69, 100
1, 21758, Note_off_c, 0, 69, 100
1, 21758, Note_on_c, 0, 70, 100
1, 21796, Note_off_c, 0, 70, 100
1, 21796, Note_on_c, 0, 77, 100
1, 21834, Note_off_c, 0, 77, 100
1, 21834, Note_on_c, 0, 74, 100
1, 21872, Note_off_c, 0, 74, 100
1, 21872, Note_on_c, 0, 72, 100
1, 22016, Note_off_c, 0, 72, 100
1, 22016, Note_on_c, 0, 73, 100
1, 22064, Note_off_c, 0, 73, 100
1, 22064, Note_on_c, 0, 75, 100
1, 22256, Note_off_c, 0, 75, 100
1, 22256, Note_on_c, 0, 73, 100
1, 22304, Note_off_c, 0, 73, 100
1, 22304, Note_on_c, 0, 76, 100
1, 22351, Note_off_c, 0, 76, 100
1, 22351, Note_on_c, 0, 74, 100
1, 22399, Note_off_c, 0, 74, 100
1, 22399, Note_on_c, 0, 71, 100
1, 22447, Note_off_c, 0, 71, 100
1, 22447, Note_on_c, 0, 68, 100
1, 22715, Note_off_c, 0, 68, 100
1, 22715, Note_on_c, 0, 76, 100
1, 22753, Note_off_c, 0, 76, 100
1, 22753, Note_on_c, 0, 71, 100
1, 22791, Note_off_c, 0, 71, 100
1, 22791, Note_on_c, 0, 68, 100
1, 22829, Note_off_c, 0, 68, 100
1, 22829, Note_on_c, 0, 65, 100
1, 22924, Note_off_c, 0, 65, 100
1, 22924, Note_on_c, 0, 64, 100
1, 23164, Note_off_c, 0, 64, 100
1, 23164, Note_on_c, 0, 75, 100
1, 23260, Note_off_c, 0, 75, 100
1, 23260, Note_on_c, 0, 70, 100
1, 23355, Note_off_c, 0, 70, 100
1, 23355, Note_on_c, 0, 67, 100
1, 23498, Note_off_c, 0, 67, 100
1, 23498, Note_on_c, 0, 64, 100
1, 23546, Note_off_c, 0, 64, 100
1, 23546, Note_on_c, 0, 69, 100
1, 23594, Note_off_c, 0, 69, 100
1, 23594, Note_on_c, 0, 70, 100
1, 23690, Note_off_c, 0, 70, 100
1, 23690, Note_on_c, 0, 69, 100
1, 23786, Note_off_c, 0, 69, 100
1, 23786, Note_on_c, 0, 62, 100
1, 23978, Note_off_c, 0, 62, 100
1, 23978, Note_on_c, 0, 64, 100
1, 24208, Note_off_c, 0, 64, 100
1, 24208, Note_on_c, 0, 65, 100
1, 24246, Note_off_c, 0, 65, 100
1, 24246, Note_on_c, 0, 67, 100
1, 24284, Note_off_c, 0, 67, 100
1, 24284, Note_on_c, 0, 69, 100
1, 24322, Note_off_c, 0, 69, 100
1, 24322, Note_on_c, 0, 70, 100
1, 24648, Note_off_c, 0, 70, 100
1, 24648, Note_on_c, 0, 67, 100
1, 24744, Note_off_c, 0, 67, 100
1, 24744, Note_on_c, 0, 69, 100
1, 24840, Note_off_c, 0, 69, 100
1, 24840, Note_on_c, 0, 74, 100
1, 24936, Note_off_c, 0, 74, 100
1, 25960, Note_on_c, 0, 77, 100
1, 26024, Note_off_c, 0, 77, 100
1, 26024, Note_on_c, 0, 79, 100
1, 26088, Note_off_c, 0, 79, 100
1, 26088, Note_on_c, 0, 81, 100
1, 26184, Note_off_c, 0, 81, 100
1, 26184, Note_on_c, 0, 79, 100
1, 26232, Note_off_c, 0, 79, 100
1, 26232, Note_on_c, 0, 77, 100
1, 26280, Note_off_c, 0, 77, 100
1, 26280, Note_on_c, 0, 76, 100
1, 26328, Note_off_c, 0, 76, 100
1, 26328, Note_on_c, 0, 75, 100
1, 26376, Note_off_c, 0, 75, 100
1, 26376, Note_on_c, 0, 78, 100
1, 26424, Note_off_c, 0, 78, 100
1, 26424, Note_on_c, 0, 76, 100
1, 26472, Note_off_c, 0, 76, 100
1, 26472, Note_on_c, 0, 73, 100
1, 26499, Note_off_c, 0, 73, 100
1, 26499, Note_on_c, 0, 71, 100
1, 26553, Note_off_c, 0, 71, 100
1, 26553, Note_on_c, 0, 76, 100
1, 26607, Note_off_c, 0, 76, 100
1, 26607, Note_on_c, 0, 77, 100
1, 26661, Note_off_c, 0, 77, 100
1, 26661, Note_on_c, 0, 76, 100
1, 26693, Note_off_c, 0, 76, 100
1, 26693, Note_on_c, 0, 75, 100
1, 26724, Note_off_c, 0, 75, 100
1, 26724, Note_on_c, 0, 79, 100
1, 26788, Note_off_c, 0, 79, 100
1, 26788, Note_on_c, 0, 77, 100
1, 26819, Note_off_c, 0, 77, 100
1, 26819, Note_on_c, 0, 74, 100
1, 26851, Note_off_c, 0, 74, 100
1, 26851, Note_on_c, 0, 72, 100
1, 26915, Note_off_c, 0, 72, 100
1, 26915, Note_on_c, 0, 77, 100
1, 26979, Note_off_c, 0, 77, 100
1, 26979, Note_on_c, 0, 72, 100
1, 27043, Note_off_c, 0, 72, 100
1, 27043, Note_on_c, 0, 73, 100
1, 27091, Note_off_c, 0, 73, 100
1, 27091, Note_on_c, 0, 75, 100
1, 27139, Note_off_c, 0, 75, 100
1, 27139, Note_on_c, 0, 68, 100
1, 27187, Note_off_c, 0, 68, 100
1, 27187, Note_on_c, 0, 73, 100
1, 27283, Note_off_c, 0, 73, 100
1, 27283, Note_on_c, 0, 71, 100
1, 27331, Note_off_c, 0, 71, 100
1, 27331, Note_on_c, 0, 65, 100
1, 27427, Note_off_c, 0, 65, 100
1, 27427, Note_on_c, 0, 71, 100
1, 27475, Note_off_c, 0, 71, 100
1, 27475, Note_on_c, 0, 73, 100
1, 27523, Note_off_c, 0, 73, 100
1, 27523, Note_on_c, 0, 78, 100
1, 27571, Note_off_c, 0, 78, 100
1, 27571, Note_on_c, 0, 76, 100
1, 27763, Note_off_c, 0, 76, 100
1, 28147, Note_on_c, 0, 81, 100
1, 28195, Note_off_c, 0, 81, 100
1, 28195, Note_on_c, 0, 84, 100
1, 28323, Note_off_c, 0, 84, 100
1, 28323, Note_on_c, 0, 77, 100
1, 28515, Note_off_c, 0, 77, 100
1, 29251, Note_on_c, 0, 76, 100
1, 29347, Note_off_c, 0, 76, 100
1, 29347, Note_on_c, 0, 79, 100
1, 29395, Note_off_c, 0, 79, 100
1, 29395, Note_on_c, 0, 84, 100
1, 29491, Note_off_c, 0, 84, 100
1, 29491, Note_on_c, 0, 77, 100
1, 29779, Note_off_c, 0, 77, 100
1, 30163, Note_on_c, 0, 75, 100
1, 30211, Note_off_c, 0, 75, 100
1, 30211, Note_on_c, 0, 77, 100
1, 30259, Note_off_c, 0, 77, 100
1, 30259, Note_on_c, 0, 77, 100
1, 30307, Note_off_c, 0, 77, 100
1, 30307, Note_on_c, 0, 80, 100
1, 30355, Note_off_c, 0, 80, 100
1, 30355, Note_on_c, 0, 79, 100
1, 30403, Note_off_c, 0, 79, 100
1, 30403, Note_on_c, 0, 77, 100
1, 30451, Note_off_c, 0, 77, 100
1, 30451, Note_on_c, 0, 75, 100
1, 30547, Note_off_c, 0, 75, 100
1, 30547, Note_on_c, 0, 70, 100
1, 30595, Note_off_c, 0, 70, 100
1, 30595, Note_on_c, 0, 75, 100
1, 30643, Note_off_c, 0, 75, 100
1, 30643, Note_on_c, 0, 77, 100
1, 30691, Note_off_c, 0, 77, 100
1, 30691, Note_on_c, 0, 78, 100
1, 30739, Note_off_c, 0, 78, 100
1, 30739, Note_on_c, 0, 80, 100
1, 30787, Note_off_c, 0, 80, 100
1, 30787, Note_on_c, 0, 77, 100
1, 30835, Note_off_c, 0, 77, 100
1, 30835, Note_on_c, 0, 75, 100
1, 30883, Note_off_c, 0, 75, 100
1, 30883, Note_on_c, 0, 73, 100
1, 30931, Note_off_c, 0, 73, 100
1, 30931, Note_on_c, 0, 70, 100
1, 30979, Note_off_c, 0, 70, 100
1, 30979, Note_on_c, 0, 68, 100
1, 31027, Note_off_c, 0, 68, 100
1, 31027, Note_on_c, 0, 65, 100
1, 31075, Note_off_c, 0, 65, 100
1, 31075, Note_on_c, 0, 70, 100
1, 31267, Note_off_c, 0, 70, 100
1, 31651, Note_on_c, 0, 79, 100
1, 31699, Note_off_c, 0, 79, 100
1, 31699, Note_on_c, 0, 81, 100
1, 31747, Note_off_c, 0, 81, 100
1, 31747, Note_on_c, 0, 83, 100
1, 31795, Note_off_c, 0, 83, 100
1, 31795, Note_on_c, 0, 85, 100
1, 31843, Note_off_c, 0, 85, 100
1, 31843, Note_on_c, 0, 78, 100
1, 32131, Note_off_c, 0, 78, 100
1, 32534, Note_on_c, 0, 80, 100
1, 32572, Note_off_c, 0, 80, 100
1, 32572, Note_on_c, 0, 82, 100
1, 32610, Note_off_c, 0, 82, 100
1, 32610, Note_on_c, 0, 84, 100
1, 32658, Note_off_c, 0, 84, 100
1, 32658, Note_on_c, 0, 84, 100
1, 32706, Note_off_c, 0, 84, 100
1, 32706, Note_on_c, 0, 84, 100
1, 32754, Note_off_c, 0, 84, 100
1, 32754, Note_on_c, 0, 84, 100
1, 32802, Note_off_c, 0, 84, 100
1, 32802, Note_on_c, 0, 84, 100
1, 32840, Note_off_c, 0, 84, 100
1, 32840, Note_on_c, 0, 84, 100
1, 32878, Note_off_c, 0, 84, 100
1, 32878, Note_on_c, 0, 84, 100
1, 32916, Note_off_c, 0, 84, 100
1, 32916, Note_on_c, 0, 84, 100
1, 32992, Note_off_c, 0, 84, 100
1, 32992, Note_on_c, 0, 81, 100
1, 33184, Note_off_c, 0, 81, 100
1, 33568, Note_on_c, 0, 81, 100
1, 33616, Note_off_c, 0, 81, 100
1, 33616, Note_on_c, 0, 87, 100
1, 33712, Note_off_c, 0, 87, 100
1, 33712, Note_on_c, 0, 79, 100
1, 34000, Note_off_c, 0, 79, 100
1, 34240, Note_on_c, 0, 80, 100
1, 34288, Note_off_c, 0, 80, 100
1, 34288, Note_on_c, 0, 84, 100
1, 34400, Note_off_c, 0, 84, 100
1, 34400, Note_on_c, 0, 77, 100
1, 34624, Note_off_c, 0, 77, 100
1, 34624, Note_on_c, 0, 79, 100
1, 34672, Note_off_c, 0, 79, 100
1, 34672, Note_on_c, 0, 81, 100
1, 34720, Note_off_c, 0, 81, 100
1, 34720, Note_on_c, 0, 79, 100
1, 34768, Note_off_c, 0, 79, 100
1, 34768, Note_on_c, 0, 77, 100
1, 34816, Note_off_c, 0, 77, 100
1, 34816, Note_on_c, 0, 76, 100
1, 34864, Note_off_c, 0, 76, 100
1, 34864, Note_on_c, 0, 75, 100
1, 34912, Note_off_c, 0, 75, 100
1, 34912, Note_on_c, 0, 79, 100
1, 34960, Note_off_c, 0, 79, 100
1, 34960, Note_on_c, 0, 76, 100
1, 35008, Note_off_c, 0, 76, 100
1, 35008, Note_on_c, 0, 74, 100
1, 35056, Note_off_c, 0, 74, 100
1, 35056, Note_on_c, 0, 72, 100
1, 35104, Note_off_c, 0, 72, 100
1, 35104, Note_on_c, 0, 77, 100
1, 35142, Note_off_c, 0, 77, 100
1, 35142, Note_on_c, 0, 76, 100
1, 35180, Note_off_c, 0, 76, 100
1, 35180, Note_on_c, 0, 72, 100
1, 35218, Note_off_c, 0, 72, 100
1, 35218, Note_on_c, 0, 74, 100
1, 35256, Note_off_c, 0, 74, 100
1, 35256, Note_on_c, 0, 70, 100
1, 35294, Note_off_c, 0, 70, 100
1, 35294, Note_on_c, 0, 67, 100
1, 35358, Note_off_c, 0, 67, 100
1, 35358, Note_on_c, 0, 72, 100
1, 35422, Note_off_c, 0, 72, 100
1, 35422, Note_on_c, 0, 69, 100
1, 35486, Note_off_c, 0, 69, 100
1, 35486, Note_on_c, 0, 65, 100
1, 35534, Note_off_c, 0, 65, 100
1, 35534, Note_on_c, 0, 70, 100
1, 35582, Note_off_c, 0, 70, 100
1, 35582, Note_on_c, 0, 72, 100
1, 35630, Note_off_c, 0, 72, 100
1, 35630, Note_on_c, 0, 73, 100
1, 35678, Note_off_c, 0, 73, 100
1, 35678, Note_on_c, 0, 75, 100
1, 35726, Note_off_c, 0, 75, 100
1, 35726, Note_on_c, 0, 77, 100
1, 35822, Note_off_c, 0, 77, 100
1, 35822, Note_on_c, 0, 72, 100
1, 35966, Note_off_c, 0, 72, 100
1, 35966, Note_on_c, 0, 73, 100
1, 36014, Note_off_c, 0, 73, 100
1, 36014, Note_on_c, 0, 75, 100
1, 36062, Note_off_c, 0, 75, 100
1, 36062, Note_on_c, 0, 68, 100
1, 36110, Note_off_c, 0, 68, 100
1, 36110, Note_on_c, 0, 70, 100
1, 36158, Note_off_c, 0, 70, 100
1, 36158, Note_on_c, 0, 73, 100
1, 36206, Note_off_c, 0, 73, 100
1, 36206, Note_on_c, 0, 71, 100
1, 36254, Note_off_c, 0, 71, 100
1, 36254, Note_on_c, 0, 68, 100
1, 36330, Note_off_c, 0, 68, 100
1, 36330, Note_on_c, 0, 69, 100
1, 36368, Note_off_c, 0, 69, 100
1, 36368, Note_on_c, 0, 71, 100
1, 36406, Note_off_c, 0, 71, 100
1, 36406, Note_on_c, 0, 73, 100
1, 36444, Note_off_c, 0, 73, 100
1, 36444, Note_on_c, 0, 78, 100
1, 36508, Note_off_c, 0, 78, 100
1, 36508, Note_on_c, 0, 76, 100
1, 36572, Note_off_c, 0, 76, 100
1, 36572, Note_on_c, 0, 73, 100
1, 36636, Note_off_c, 0, 73, 100
1, 36636, Note_on_c, 0, 71, 100
1, 36684, Note_off_c, 0, 71, 100
1, 36684, Note_on_c, 0, 69, 100
1, 36732, Note_off_c, 0, 69, 100
1, 36732, Note_on_c, 0, 76, 100
1, 36828, Note_off_c, 0, 76, 100
1, 37468, Note_on_c, 0, 75, 100
1, 37532, Note_off_c, 0, 75, 100
1, 37532, Note_on_c, 0, 77, 100
1, 37596, Note_off_c, 0, 77, 100
1, 37596, Note_on_c, 0, 78, 100
1, 37643, Note_off_c, 0, 78, 100
1, 37643, Note_on_c, 0, 80, 100
1, 37691, Note_off_c, 0, 80, 100
1, 37691, Note_on_c, 0, 77, 100
1, 37739, Note_off_c, 0, 77, 100
1, 37739, Note_on_c, 0, 75, 100
1, 37787, Note_off_c, 0, 75, 100
1, 37787, Note_on_c, 0, 73, 100
1, 37851, Note_off_c, 0, 73, 100
1, 37851, Note_on_c, 0, 70, 100
1, 37914, Note_off_c, 0, 70, 100
1, 37914, Note_on_c, 0, 68, 100
1, 37978, Note_off_c, 0, 68, 100
1, 37978, Note_on_c, 0, 65, 100
1, 38016, Note_off_c, 0, 65, 100
1, 38016, Note_on_c, 0, 70, 100
1, 38054, Note_off_c, 0, 70, 100
1, 38054, Note_on_c, 0, 75, 100
1, 38092, Note_off_c, 0, 75, 100
1, 38092, Note_on_c, 0, 72, 100
1, 38130, Note_off_c, 0, 72, 100
1, 38130, Note_on_c, 0, 68, 100
1, 38264, Note_off_c, 0, 68, 100
1, 38264, Note_on_c, 0, 70, 100
1, 38312, Note_off_c, 0, 70, 100
1, 38312, Note_on_c, 0, 73, 100
1, 38360, Note_off_c, 0, 73, 100
1, 38360, Note_on_c, 0, 72, 100
1, 38424, Note_off_c, 0, 72, 100
1, 38424, Note_on_c, 0, 70, 100
1, 38487, Note_off_c, 0, 70, 100
1, 38487, Note_on_c, 0, 68, 100
1, 38551, Note_off_c, 0, 68, 100
1, 38551, Note_on_c, 0, 67, 100
1, 38599, Note_off_c, 0, 67, 100
1, 38599, Note_on_c, 0, 70, 100
1, 38647, Note_off_c, 0, 70, 100
1, 38647, Note_on_c, 0, 69, 100
1, 38695, Note_off_c, 0, 69, 100
1, 38695, Note_on_c, 0, 68, 100
1, 38743, Note_off_c, 0, 68, 100
1, 38743, Note_on_c, 0, 63, 100
1, 38790, Note_off_c, 0, 63, 100
1, 38790, Note_on_c, 0, 60, 100
1, 38838, Note_off_c, 0, 60, 100
1, 38838, Note_on_c, 0, 65, 100
1, 38886, Note_off_c, 0, 65, 100
1, 38886, Note_on_c, 0, 63, 100
1, 38934, Note_off_c, 0, 63, 100
1, 38934, Note_on_c, 0, 56, 100
1, 38982, Note_off_c, 0, 56, 100
1, 38982, Note_on_c, 0, 58, 100
1, 39030, Note_off_c, 0, 58, 100
1, 39030, Note_on_c, 0, 63, 100
1, 39077, Note_off_c, 0, 63, 100
1, 39077, Note_on_c, 0, 67, 100
1, 39125, Note_off_c, 0, 67, 100
1, 39125, Note_on_c, 0, 70, 100
1, 39173, Note_off_c, 0, 70, 100
1, 39173, Note_on_c, 0, 75, 100
1, 39221, Note_off_c, 0, 75, 100
1, 39221, Note_on_c, 0, 75, 100
1, 39269, Note_off_c, 0, 75, 100
1, 39269, Note_on_c, 0, 75, 100
1, 39317, Note_off_c, 0, 75, 100
1, 39317, Note_on_c, 0, 75, 100
1, 39364, Note_off_c, 0, 75, 100
1, 39364, Note_on_c, 0, 75, 100
1, 39412, Note_off_c, 0, 75, 100
1, 39412, Note_on_c, 0, 75, 100
1, 39460, Note_off_c, 0, 75, 100
1, 39460, Note_on_c, 0, 75, 100
1, 39556, Note_off_c, 0, 75, 100
1, 39556, Note_on_c, 0, 75, 100
1, 39604, Note_off_c, 0, 75, 100
1, 39604, Note_on_c, 0, 75, 100
1, 39651, Note_off_c, 0, 75, 100
1, 39651, Note_on_c, 0, 75, 100
1, 39699, Note_off_c, 0, 75, 100
1, 39699, Note_on_c, 0, 75, 100
1, 39737, Note_off_c, 0, 75, 100
1, 39737, Note_on_c, 0, 75, 100
1, 39775, Note_off_c, 0, 75, 100
1, 39775, Note_on_c, 0, 75, 100
1, 39813, Note_off_c, 0, 75, 100
1, 39813, Note_on_c, 0, 75, 100
1, 39851, Note_off_c, 0, 75, 100
1, 39851, Note_on_c, 0, 75, 100
1, 39889, Note_off_c, 0, 75, 100
1, 39889, Note_on_c, 0, 75, 100
1, 39953, Note_off_c, 0, 75, 100
1, 39953, Note_on_c, 0, 75, 100
1, 40017, Note_off_c, 0, 75, 100
1, 40017, Note_on_c, 0, 75, 100
1, 40081, Note_off_c, 0, 75, 100
1, 40081, Note_on_c, 0, 68, 100
1, 40177, Note_off_c, 0, 68, 100
1, 40897, Note_on_c, 0, 76, 100
1, 40945, Note_off_c, 0, 76, 100
1, 40945, Note_on_c, 0, 78, 100
1, 40993, Note_off_c, 0, 78, 100
1, 40993, Note_on_c, 0, 76, 100
1, 41041, Note_off_c, 0, 76, 100
1, 41041, Note_on_c, 0, 76, 100
1, 41105, Note_off_c, 0, 76, 100
1, 41105, Note_on_c, 0, 76, 100
1, 41169, Note_off_c, 0, 76, 100
1, 41169, Note_on_c, 0, 76, 100
1, 41233, Note_off_c, 0, 76, 100
1, 41233, Note_on_c, 0, 76, 100
1, 41281, Note_off_c, 0, 76, 100
1, 41281, Note_on_c, 0, 76, 100
1, 41329, Note_off_c, 0, 76, 100
1, 41329, Note_on_c, 0, 76, 100
1, 41424, Note_off_c, 0, 76, 100
1, 41424, Note_on_c, 0, 78, 100
1, 41472, Note_off_c, 0, 78, 100
1, 41472, Note_on_c, 0, 79, 100
1, 41520, Note_off_c, 0, 79, 100
1, 41520, Note_on_c, 0, 80, 100
1, 41616, Note_off_c, 0, 80, 100
1, 42000, Note_on_c, 0, 81, 100
1, 42048, Note_off_c, 0, 81, 100
1, 42048, Note_on_c, 0, 82, 100
1, 42096, Note_off_c, 0, 82, 100
1, 42096, Note_on_c, 0, 84, 100
1, 42192, Note_off_c, 0, 84, 100
1, 42576, Note_on_c, 0, 79, 100
1, 42672, Note_off_c, 0, 79, 100
1, 42672, Note_on_c, 0, 84, 100
1, 42704, Note_off_c, 0, 84, 100
1, 42704, Note_on_c, 0, 87, 100
1, 42736, Note_off_c, 0, 87, 100
1, 42736, Note_on_c, 0, 86, 100
1, 42832, Note_off_c, 0, 86, 100
1, 43296, Note_on_c, 0, 77, 100
1, 43344, Note_off_c, 0, 77, 100
1, 43344, Note_on_c, 0, 84, 100
1, 43440, Note_off_c, 0, 84, 100
1, 43440, Note_on_c, 0, 79, 100
1, 43728, Note_off_c, 0, 79, 100
1, 44112, Note_on_c, 0, 77, 100
1, 44160, Note_off_c, 0, 77, 100
1, 44160, Note_on_c, 0, 79, 100
1, 44208, Note_off_c, 0, 79, 100
1, 44208, Note_on_c, 0, 79, 100
1, 44255, Note_off_c, 0, 79, 100
1, 44255, Note_on_c, 0, 82, 100
1, 44303, Note_off_c, 0, 82, 100
1, 44303, Note_on_c, 0, 81, 100
1, 44367, Note_off_c, 0, 81, 100
1, 44367, Note_on_c, 0, 79, 100
1, 44431, Note_off_c, 0, 79, 100
1, 44431, Note_on_c, 0, 77, 100
1, 44495, Note_off_c, 0, 77, 100
1, 44495, Note_on_c, 0, 76, 100
1, 44533, Note_off_c, 0, 76, 100
1, 44533, Note_on_c, 0, 75, 100
1, 44571, Note_off_c, 0, 75, 100
1, 44571, Note_on_c, 0, 79, 100
1, 44647, Note_off_c, 0, 79, 100
1, 44647, Note_on_c, 0, 77, 100
1, 44685, Note_off_c, 0, 77, 100
1, 44685, Note_on_c, 0, 74, 100
1, 44733, Note_off_c, 0, 74, 100
1, 44733, Note_on_c, 0, 72, 100
1, 44781, Note_off_c, 0, 72, 100
1, 44781, Note_on_c, 0, 77, 100
1, 44828, Note_off_c, 0, 77, 100
1, 44828, Note_on_c, 0, 72, 100
1, 44876, Note_off_c, 0, 72, 100
1, 44876, Note_on_c, 0, 73, 100
1, 44914, Note_off_c, 0, 73, 100
1, 44914, Note_on_c, 0, 75, 100
1, 44952, Note_off_c, 0, 75, 100
1, 44952, Note_on_c, 0, 68, 100
1, 44990, Note_off_c, 0, 68, 100
1, 44990, Note_on_c, 0, 69, 100
1, 45028, Note_off_c, 0, 69, 100
1, 45028, Note_on_c, 0, 73, 100
1, 45114, Note_off_c, 0, 73, 100
1, 45114, Note_on_c, 0, 71, 100
1, 45162, Note_off_c, 0, 71, 100
1, 45162, Note_on_c, 0, 65, 100
1, 45210, Note_off_c, 0, 65, 100
1, 45210, Note_on_c, 0, 69, 100
1, 45258, Note_off_c, 0, 69, 100
1, 45258, Note_on_c, 0, 72, 100
1, 45296, Note_off_c, 0, 72, 100
1, 45296, Note_on_c, 0, 73, 100
1, 45334, Note_off_c, 0, 73, 100
1, 45334, Note_on_c, 0, 78, 100
1, 45372, Note_off_c, 0, 78, 100
1, 45372, Note_on_c, 0, 76, 100
1, 45410, Note_off_c, 0, 76, 100
1, 45410, Note_on_c, 0, 73, 100
1, 45448, Note_off_c, 0, 73, 100
1, 45448, Note_on_c, 0, 71, 100
1, 45512, Note_off_c, 0, 71, 100
1, 45512, Note_on_c, 0, 76, 100
1, 45576, Note_off_c, 0, 76, 100
1, 45576, Note_on_c, 0, 77, 100
1, 45640, Note_off_c, 0, 77, 100
1, 45640, Note_on_c, 0, 73, 100
1, 45672, Note_off_c, 0, 73, 100
1, 45672, Note_on_c, 0, 72, 100
1, 45704, Note_off_c, 0, 72, 100
1, 45704, Note_on_c, 0, 70, 100
1, 45768, Note_off_c, 0, 70, 100
1, 45768, Note_on_c, 0, 75, 100
1, 45800, Note_off_c, 0, 75, 100
1, 45800, Note_on_c, 0, 73, 100
1, 45832, Note_off_c, 0, 73, 100
1, 45832, Note_on_c, 0, 71, 100
1, 45880, Note_off_c, 0, 71, 100
1, 45880, Note_on_c, 0, 70, 100
1, 45928, Note_off_c, 0, 70, 100
1, 45928, Note_on_c, 0, 67, 100
1, 45975, Note_off_c, 0, 67, 100
1, 45975, Note_on_c, 0, 73, 100
1, 46071, Note_off_c, 0, 73, 100
1, 46626, Note_on_c, 0, 78, 100
1, 46653, Note_off_c, 0, 78, 100
1, 46653, Note_on_c, 0, 80, 100
1, 46680, Note_off_c, 0, 80, 100
1, 46680, Note_on_c, 0, 82, 100
1, 46762, Note_off_c, 0, 82, 100
1, 46762, Note_on_c, 0, 82, 100
1, 46837, Note_off_c, 0, 82, 100
1, 46837, Note_on_c, 0, 82, 100
1, 46885, Note_off_c, 0, 82, 100
1, 46885, Note_on_c, 0, 82, 100
1, 46933, Note_off_c, 0, 82, 100
1, 46933, Note_on_c, 0, 82, 100
1, 47029, Note_off_c, 0, 82, 100
1, 47029, Note_on_c, 0, 82, 100
1, 47077, Note_off_c, 0, 82, 100
1, 47077, Note_on_c, 0, 82, 100
1, 47236, Note_off_c, 0, 82, 100
1, 47236, Note_on_c, 0, 79, 100
1, 47300, Note_off_c, 0, 79, 100
1, 47300, Note_on_c, 0, 80, 100
1, 47364, Note_off_c, 0, 80, 100
1, 47364, Note_on_c, 0, 77, 100
1, 47556, Note_off_c, 0, 77, 100
1, 47556, Note_on_c, 0, 72, 100
1, 47684, Note_off_c, 0, 72, 100
1, 47684, Note_on_c, 0, 73, 100
1, 47748, Note_off_c, 0, 73, 100
1, 47748, Note_on_c, 0, 75, 100
1, 47796, Note_off_c, 0, 75, 100
1, 47796, Note_on_c, 0, 68, 100
1, 47844, Note_off_c, 0, 68, 100
1, 47844, Note_on_c, 0, 70, 100
1, 47892, Note_off_c, 0, 70, 100
1, 47892, Note_on_c, 0, 73, 100
1, 47940, Note_off_c, 0, 73, 100
1, 47940, Note_on_c, 0, 72, 100
1, 47987, Note_off_c, 0, 72, 100
1, 47987, Note_on_c, 0, 70, 100
1, 48035, Note_off_c, 0, 70, 100
1, 48035, Note_on_c, 0, 68, 100
1, 48083, Note_off_c, 0, 68, 100
1, 48083, Note_on_c, 0, 66, 100
1, 48131, Note_off_c, 0, 66, 100
1, 48131, Note_on_c, 0, 70, 100
1, 48195, Note_off_c, 0, 70, 100
1, 48195, Note_on_c, 0, 69, 100
1, 48258, Note_off_c, 0, 69, 100
1, 48258, Note_on_c, 0, 68, 100
1, 48322, Note_off_c, 0, 68, 100
1, 48322, Note_on_c, 0, 63, 100
1, 48370, Note_off_c, 0, 63, 100
1, 48370, Note_on_c, 0, 60, 100
1, 48418, Note_off_c, 0, 60, 100
1, 48418, Note_on_c, 0, 65, 100
1, 48466, Note_off_c, 0, 65, 100
1, 48466, Note_on_c, 0, 63, 100
1, 48514, Note_off_c, 0, 63, 100
1, 48514, Note_on_c, 0, 57, 100
1, 48552, Note_off_c, 0, 57, 100
1, 48552, Note_on_c, 0, 58, 100
1, 48590, Note_off_c, 0, 58, 100
1, 48590, Note_on_c, 0, 61, 100
1, 48628, Note_off_c, 0, 61, 100
1, 48628, Note_on_c, 0, 63, 100
1, 48666, Note_off_c, 0, 63, 100
1, 48666, Note_on_c, 0, 65, 100
1, 48752, Note_off_c, 0, 65, 100
1, 48752, Note_on_c, 0, 70, 100
1, 48848, Note_off_c, 0, 70, 100
1, 48848, Note_on_c, 0, 75, 100
1, 48960, Note_off_c, 0, 75, 100
1, 48960, Note_on_c, 0, 72, 100
1, 49136, Note_off_c, 0, 72, 100
1, 49136, Note_on_c, 0, 67, 100
1, 49232, Note_off_c, 0, 67, 100
1, 49232, Note_on_c, 0, 72, 100
1, 49328, Note_off_c, 0, 72, 100
1, 50000, Note_on_c, 0, 80, 100
1, 50096, Note_off_c, 0, 80, 100
1, 50096, Note_on_c, 0, 78, 100
1, 50144, Note_off_c, 0, 78, 100
1, 50144, Note_on_c, 0, 76, 100
1, 50336, Note_off_c, 0, 76, 100
1, 50336, Note_on_c, 0, 73, 100
1, 50480, Note_off_c, 0, 73, 100
1, 50480, Note_on_c, 0, 71, 100
1, 50528, Note_off_c, 0, 71, 100
1, 50528, Note_on_c, 0, 73, 100
1, 50576, Note_off_c, 0, 73, 100
1, 50576, Note_on_c, 0, 78, 100
1, 50624, Note_off_c, 0, 78, 100
1, 50624, Note_on_c, 0, 76, 100
1, 50662, Note_off_c, 0, 76, 100
1, 50662, Note_on_c, 0, 73, 100
1, 50700, Note_off_c, 0, 73, 100
1, 50700, Note_on_c, 0, 71, 100
1, 50738, Note_off_c, 0, 71, 100
1, 50738, Note_on_c, 0, 70, 100
1, 50776, Note_off_c, 0, 70, 100
1, 50776, Note_on_c, 0, 76, 100
1, 50872, Note_off_c, 0, 76, 100
1, 51198, Note_on_c, 0, 81, 100
1, 51294, Note_off_c, 0, 81, 100
1, 51294, Note_on_c, 0, 74, 100
1, 51390, Note_off_c, 0, 74, 100
1, 51678, Note_on_c, 0, 75, 100
1, 51774, Note_off_c, 0, 75, 100
1, 51774, Note_on_c, 0, 82, 100
1, 51870, Note_off_c, 0, 82, 100
1, 51870, Note_on_c, 0, 82, 100
1, 51918, Note_off_c, 0, 82, 100
1, 51918, Note_on_c, 0, 82, 100
1, 52014, Note_off_c, 0, 82, 100
1, 52446, Note_on_c, 0, 79, 100
1, 52494, Note_off_c, 0, 79, 100
1, 52494, Note_on_c, 0, 81, 100
1, 52638, Note_off_c, 0, 81, 100
1, 52638, Note_on_c, 0, 79, 100
1, 52830, Note_off_c, 0, 79, 100
1, 52830, Note_on_c, 0, 75, 100
1, 52878, Note_off_c, 0, 75, 100
1, 52878, Note_on_c, 0, 78, 100
1, 53022, Note_off_c, 0, 78, 100
1, 53022, Note_on_c, 0, 75, 100
1, 53118, Note_off_c, 0, 75, 100
1, 53118, Note_on_c, 0, 71, 100
1, 53262, Note_off_c, 0, 71, 100
1, 53262, Note_on_c, 0, 68, 100
1, 53310, Note_off_c, 0, 68, 100
1, 53310, Note_on_c, 0, 73, 100
1, 53454, Note_off_c, 0, 73, 100
1, 53454, Note_on_c, 0, 69, 100
1, 53502, Note_off_c, 0, 69, 100
1, 53502, Note_on_c, 0, 76, 100
1, 53598, Note_off_c, 0, 76, 100
1, 53598, Note_on_c, 0, 71, 100
1, 53694, Note_off_c, 0, 71, 100
1, 54078, Note_on_c, 0, 77, 100
1, 54174, Note_off_c, 0, 77, 100
1, 54174, Note_on_c, 0, 75, 100
1, 54270, Note_off_c, 0, 75, 100
1, 54270, Note_on_c, 0, 70, 100
1, 54414, Note_off_c, 0, 70, 100
1, 54414, Note_on_c, 0, 69, 100
1, 54462, Note_off_c, 0, 69, 100
1, 54462, Note_on_c, 0, 76, 100
1, 54558, Note_off_c, 0, 76, 100
1, 54558, Note_on_c, 0, 71, 100
1, 54654, Note_off_c, 0, 71, 100
1, 54654, Note_on_c, 0, 73, 100
1, 54750, Note_off_c, 0, 73, 100
1, 54750, Note_on_c, 0, 76, 100
1, 54846, Note_off_c, 0, 76, 100
1, 54846, Note_on_c, 0, 71, 100
1, 54942, Note_off_c, 0, 71, 100
1, 54942, Note_on_c, 0, 68, 100
1, 55134, Note_off_c, 0, 68, 100
1, 55134, Note_on_c, 0, 65, 100
1, 55230, Note_off_c, 0, 65, 100
1, 55230, Note_on_c, 0, 75, 100
1, 55326, Note_off_c, 0, 75, 100
1, 55326, Note_on_c, 0, 70, 100
1, 55422, Note_off_c, 0, 70, 100
1, 55422, Note_on_c, 0, 67, 100
1, 55566, Note_off_c, 0, 67, 100
1, 55566, Note_on_c, 0, 65, 100
1, 55614, Note_off_c, 0, 65, 100
1, 55614, Note_on_c, 0, 70, 100
1, 55758, Note_off_c, 0, 70, 100
1, 55758, Note_on_c, 0, 67, 100
1, 55806, Note_off_c, 0, 67, 100
1, 55806, Note_on_c, 0, 69, 100
1, 55950, Note_off_c, 0, 69, 100
1, 55950, Note_on_c, 0, 74, 100
1, 55998, Note_off_c, 0, 74, 100
1, 55998, Note_on_c, 0, 74, 100
1, 56094, Note_off_c, 0, 74, 100
1, 56094, Note_on_c, 0, 74, 100
1, 56190, Note_off_c, 0, 74, 100
1, 56190, Note_on_c, 0, 74, 100
1, 56238, Note_off_c, 0, 74, 100
1, 56238, Note_on_c, 0, 74, 100
1, 56334, Note_off_c, 0, 74, 100
1, 56334, Note_on_c, 0, 70, 100
1, 56382, Note_off_c, 0, 70, 100
1, 56382, Note_on_c, 0, 74, 100
1, 56574, Note_off_c, 0, 74, 100
1, 57150, Note_on_c, 0, 77, 100
1, 57198, Note_off_c, 0, 77, 100
1, 57198, Note_on_c, 0, 79, 100
1, 57246, Note_off_c, 0, 79, 100
1, 57246, Note_on_c, 0, 81, 100
1, 58014, Note_off_c, 0, 81, 100
1, 58014, Note_on_c, 0, 79, 100
1, 58110, Note_off_c, 0, 79, 100
1, 58110, Note_on_c, 0, 77, 100
1, 58174, Note_off_c, 0, 77, 100
1, 58174, Note_on_c, 0, 79, 100
1, 58237, Note_off_c, 0, 79, 100
1, 58237, Note_on_c, 0, 81, 100
1, 58429, Note_off_c, 0, 81, 100
1, 59133, Note_on_c, 0, 79, 100
1, 59196, Note_off_c, 0, 79, 100
1, 59196, Note_on_c, 0, 82, 100
1, 59260, Note_off_c, 0, 82, 100
1, 59260, Note_on_c, 0, 81, 100
1, 59308, Note_off_c, 0, 81, 100
1, 59308, Note_on_c, 0, 80, 100
1, 59356, Note_off_c, 0, 80, 100
1, 59356, Note_on_c, 0, 79, 100
1, 59404, Note_off_c, 0, 79, 100
1, 59404, Note_on_c, 0, 78, 100
1, 59516, Note_off_c, 0, 78, 100
1, 59516, Note_on_c, 0, 79, 100
1, 59548, Note_off_c, 0, 79, 100
1, 59548, Note_on_c, 0, 78, 100
1, 59580, Note_off_c, 0, 78, 100
1, 59580, Note_on_c, 0, 77, 100
1, 59612, Note_off_c, 0, 77, 100
1, 59612, Note_on_c, 0, 76, 100
1, 59644, Note_off_c, 0, 76, 100
1, 59644, Note_on_c, 0, 75, 100
1, 59692, Note_off_c, 0, 75, 100
1, 59692, Note_on_c, 0, 78, 100
1, 59740, Note_off_c, 0, 78, 100
1, 59740, Note_on_c, 0, 76, 100
1, 59788, Note_off_c, 0, 76, 100
1, 59788, Note_on_c, 0, 73, 100
1, 59874, Note_off_c, 0, 73, 100
1, 59874, Note_on_c, 0, 71, 100
1, 59912, Note_off_c, 0, 71, 100
1, 59912, Note_on_c, 0, 76, 100
1, 59950, Note_off_c, 0, 76, 100
1, 59950, Note_on_c, 0, 77, 100
1, 59988, Note_off_c, 0, 77, 100
1, 59988, Note_on_c, 0, 73, 100
1, 60026, Note_off_c, 0, 73, 100
1, 60026, Note_on_c, 0, 72, 100
1, 60090, Note_off_c, 0, 72, 100
1, 60090, Note_on_c, 0, 70, 100
1, 60154, Note_off_c, 0, 70, 100
1, 60154, Note_on_c, 0, 75, 100
1, 60218, Note_off_c, 0, 75, 100
1, 60218, Note_on_c, 0, 75, 100
1, 60282, Note_off_c, 0, 75, 100
1, 60282, Note_on_c, 0, 75, 100
1, 60345, Note_off_c, 0, 75, 100
1, 60345, Note_on_c, 0, 75, 100
1, 60409, Note_off_c, 0, 75, 100
1, 60409, Note_on_c, 0, 75, 100
1, 60601, Note_off_c, 0, 75, 100
1, 60601, Note_on_c, 0, 77, 100
1, 60697, Note_off_c, 0, 77, 100
1, 60697, Note_on_c, 0, 72, 100
1, 60889, Note_off_c, 0, 72, 100
1, 60889, Note_on_c, 0, 70, 100
1, 60985, Note_off_c, 0, 70, 100
1, 60985, Note_on_c, 0, 75, 100
1, 61081, Note_off_c, 0, 75, 100
1, 61081, Note_on_c, 0, 70, 100
1, 61177, Note_off_c, 0, 70, 100
1, 61177, Note_on_c, 0, 65, 100
1, 61273, Note_off_c, 0, 65, 100
1, 61273, Note_on_c, 0, 63, 100
1, 61321, Note_off_c, 0, 63, 100
1, 61321, Note_on_c, 0, 70, 100
1, 61513, Note_off_c, 0, 70, 100
1, 61513, Note_on_c, 0, 75, 100
1, 61705, Note_off_c, 0, 75, 100
1, 61705, Note_on_c, 0, 77, 100
1, 61897, Note_off_c, 0, 77, 100
1, 62665, Note_on_c, 0, 79, 100
1, 62713, Note_off_c, 0, 79, 100
1, 62713, Note_on_c, 0, 84, 100
1, 62841, Note_off_c, 0, 84, 100
1, 62841, Note_on_c, 0, 87, 100
1, 62937, Note_off_c, 0, 87, 100
1, 63625, Note_on_c, 0, 82, 100
1, 63673, Note_off_c, 0, 82, 100
1, 63673, Note_on_c, 0, 85, 100
1, 64393, Note_off_c, 0, 85, 100
1, 64393, Note_on_c, 0, 83, 100
1, 64441, Note_off_c, 0, 83, 100
1, 64441, Note_on_c, 0, 80, 100
1, 64729, Note_off_c, 0, 80, 100
1, 65161, Note_on_c, 0, 78, 100
1, 65209, Note_off_c, 0, 78, 100
1, 65209, Note_on_c, 0, 81, 100
1, 65305, Note_off_c, 0, 81, 100
1, 65305, Note_on_c, 0, 79, 100
1, 65353, Note_off_c, 0, 79, 100
1, 65353, Note_on_c, 0, 77, 100
1, 65439, Note_off_c, 0, 77, 100
1, 65439, Note_on_c, 0, 76, 100
1, 65477, Note_off_c, 0, 76, 100
1, 65477, Note_on_c, 0, 75, 100
1, 65515, Note_off_c, 0, 75, 100
1, 65515, Note_on_c, 0, 79, 100
1, 65553, Note_off_c, 0, 79, 100
1, 65553, Note_on_c, 0, 77, 100
1, 65591, Note_off_c, 0, 77, 100
1, 65591, Note_on_c, 0, 74, 100
1, 65639, Note_off_c, 0, 74, 100
1, 65639, Note_on_c, 0, 72, 100
1, 65687, Note_off_c, 0, 72, 100
1, 65687, Note_on_c, 0, 77, 100
1, 65735, Note_off_c, 0, 77, 100
1, 65735, Note_on_c, 0, 75, 100
1, 65783, Note_off_c, 0, 75, 100
1, 65783, Note_on_c, 0, 73, 100
1, 65831, Note_off_c, 0, 73, 100
1, 65831, Note_on_c, 0, 74, 100
1, 65975, Note_off_c, 0, 74, 100
1, 65975, Note_on_c, 0, 73, 100
1, 65999, Note_off_c, 0, 73, 100
1, 65999, Note_on_c, 0, 72, 100
1, 66047, Note_off_c, 0, 72, 100
1, 66047, Note_on_c, 0, 74, 100
1, 66095, Note_off_c, 0, 74, 100
1, 66095, Note_on_c, 0, 70, 100
1, 66143, Note_off_c, 0, 70, 100
1, 66143, Note_on_c, 0, 73, 100
1, 66167, Note_off_c, 0, 73, 100
1, 66167, Note_on_c, 0, 70, 100
1, 66215, Note_off_c, 0, 70, 100
1, 66215, Note_on_c, 0, 69, 100
1, 66263, Note_off_c, 0, 69, 100
1, 66263, Note_on_c, 0, 67, 100
1, 66359, Note_off_c, 0, 67, 100
1, 66359, Note_on_c, 0, 65, 100
1, 66407, Note_off_c, 0, 65, 100
1, 66407, Note_on_c, 0, 69, 100
1, 66455, Note_off_c, 0, 69, 100
1, 66455, Note_on_c, 0, 71, 100
1, 66503, Note_off_c, 0, 71, 100
1, 66503, Note_on_c, 0, 73, 100
1, 66551, Note_off_c, 0, 73, 100
1, 66551, Note_on_c, 0, 78, 100
1, 66599, Note_off_c, 0, 78, 100
1, 66599, Note_on_c, 0, 76, 100
1, 66647, Note_off_c, 0, 76, 100
1, 66647, Note_on_c, 0, 73, 100
1, 66695, Note_off_c, 0, 73, 100
1, 66695, Note_on_c, 0, 71, 100
1, 66743, Note_off_c, 0, 71, 100
1, 66743, Note_on_c, 0, 76, 100
1, 66791, Note_off_c, 0, 76, 100
1, 66791, Note_on_c, 0, 77, 100
1, 66839, Note_off_c, 0, 77, 100
1, 66839, Note_on_c, 0, 76, 100
1, 66887, Note_off_c, 0, 76, 100
1, 66887, Note_on_c, 0, 75, 100
1, 66935, Note_off_c, 0, 75, 100
1, 66935, Note_on_c, 0, 79, 100
1, 67031, Note_off_c, 0, 79, 100
1, 67549, Note_on_c, 0, 77, 100
1, 67587, Note_off_c, 0, 77, 100
1, 67587, Note_on_c, 0, 75, 100
1, 67625, Note_off_c, 0, 75, 100
1, 67625, Note_on_c, 0, 77, 100
1, 67663, Note_off_c, 0, 77, 100
1, 67663, Note_on_c, 0, 78, 100
1, 67749, Note_off_c, 0, 78, 100
1, 67749, Note_on_c, 0, 80, 100
1, 67797, Note_off_c, 0, 80, 100
1, 67797, Note_on_c, 0, 77, 100
1, 67845, Note_off_c, 0, 77, 100
1, 67845, Note_on_c, 0, 76, 100
1, 67893, Note_off_c, 0, 76, 100
1, 67893, Note_on_c, 0, 75, 100
1, 67941, Note_off_c, 0, 75, 100
1, 67941, Note_on_c, 0, 78, 100
1, 67989, Note_off_c, 0, 78, 100
1, 67989, Note_on_c, 0, 76, 100
1, 68037, Note_off_c, 0, 76, 100
1, 68037, Note_on_c, 0, 73, 100
1, 68085, Note_off_c, 0, 73, 100
1, 68085, Note_on_c, 0, 71, 100
1, 68133, Note_off_c, 0, 71, 100
1, 68133, Note_on_c, 0, 69, 100
1, 68181, Note_off_c, 0, 69, 100
1, 68181, Note_on_c, 0, 77, 100
1, 68229, Note_off_c, 0, 77, 100
1, 68229, Note_on_c, 0, 73, 100
1, 68277, Note_off_c, 0, 73, 100
1, 68277, Note_on_c, 0, 71, 100
1, 68325, Note_off_c, 0, 71, 100
1, 68325, Note_on_c, 0, 70, 100
1, 68373, Note_off_c, 0, 70, 100
1, 68373, Note_on_c, 0, 75, 100
1, 68469, Note_off_c, 0, 75, 100
1, 68469, Note_on_c, 0, 71, 100
1, 68507, Note_off_c, 0, 71, 100
1, 68507, Note_on_c, 0, 70, 100
1, 68583, Note_off_c, 0, 70, 100
1, 68583, Note_on_c, 0, 69, 100
1, 68621, Note_off_c, 0, 69, 100
1, 68621, Note_on_c, 0, 72, 100
1, 68659, Note_off_c, 0, 72, 100
1, 68659, Note_on_c, 0, 71, 100
1, 68707, Note_off_c, 0, 71, 100
1, 68707, Note_on_c, 0, 75, 100
1, 68755, Note_off_c, 0, 75, 100
1, 68755, Note_on_c, 0, 73, 100
1, 68803, Note_off_c, 0, 73, 100
1, 68803, Note_on_c, 0, 69, 100
1, 68851, Note_off_c, 0, 69, 100
1, 68851, Note_on_c, 0, 68, 100
1, 68899, Note_off_c, 0, 68, 100
1, 68899, Note_on_c, 0, 65, 100
1, 68947, Note_off_c, 0, 65, 100
1, 68947, Note_on_c, 0, 70, 100
1, 68995, Note_off_c, 0, 70, 100
1, 68995, Note_on_c, 0, 68, 100
1, 69043, Note_off_c, 0, 68, 100
1, 69043, Note_on_c, 0, 69, 100
1, 69139, Note_off_c, 0, 69, 100
1, 69667, Note_on_c, 0, 77, 100
1, 69715, Note_off_c, 0, 77, 100
1, 69715, Note_on_c, 0, 75, 100
1, 69763, Note_off_c, 0, 75, 100
1, 69763, Note_on_c, 0, 73, 100
1, 69811, Note_off_c, 0, 73, 100
1, 69811, Note_on_c, 0, 75, 100
1, 69859, Note_off_c, 0, 75, 100
1, 69859, Note_on_c, 0, 68, 100
1, 69907, Note_off_c, 0, 68, 100
1, 69907, Note_on_c, 0, 70, 100
1, 69955, Note_off_c, 0, 70, 100
1, 69955, Note_on_c, 0, 73, 100
1, 70003, Note_off_c, 0, 73, 100
1, 70003, Note_on_c, 0, 72, 100
1, 70035, Note_off_c, 0, 72, 100
1, 70035, Note_on_c, 0, 70, 100
1, 70099, Note_off_c, 0, 70, 100
1, 70099, Note_on_c, 0, 68, 100
1, 70131, Note_off_c, 0, 68, 100
1, 70131, Note_on_c, 0, 66, 100
1, 70163, Note_off_c, 0, 66, 100
1, 70163, Note_on_c, 0, 70, 100
1, 70243, Note_off_c, 0, 70, 100
1, 70243, Note_on_c, 0, 69, 100
1, 70291, Note_off_c, 0, 69, 100
1, 70291, Note_on_c, 0, 68, 100
1, 70339, Note_off_c, 0, 68, 100
1, 70339, Note_on_c, 0, 63, 100
1, 70387, Note_off_c, 0, 63, 100
1, 70387, Note_on_c, 0, 65, 100
1, 70435, Note_off_c, 0, 65, 100
1, 70435, Note_on_c, 0, 65, 100
1, 70483, Note_off_c, 0, 65, 100
1, 70483, Note_on_c, 0, 63, 100
1, 70531, Note_off_c, 0, 63, 100
1, 70531, Note_on_c, 0, 56, 100
1, 70579, Note_off_c, 0, 56, 100
1, 70579, Note_on_c, 0, 58, 100
1, 70809, Note_off_c, 0, 58, 100
1, 70809, Note_on_c, 0, 57, 100
1, 70847, Note_off_c, 0, 57, 100
1, 70847, Note_on_c, 0, 58, 100
1, 70885, Note_off_c, 0, 58, 100
1, 70885, Note_on_c, 0, 61, 100
1, 70923, Note_off_c, 0, 61, 100
1, 70923, Note_on_c, 0, 60, 100
1, 70961, Note_off_c, 0, 60, 100
1, 70961, Note_on_c, 0, 70, 100
1, 71025, Note_off_c, 0, 70, 100
1, 71025, Note_on_c, 0, 69, 100
1, 71089, Note_off_c, 0, 69, 100
1, 71089, Note_on_c, 0, 70, 100
1, 71473, Note_off_c, 0, 70, 100
1, 72017, Note_on_c, 0, 75, 100
1, 72113, Note_off_c, 0, 75, 100
1, 72113, Note_on_c, 0, 77, 100
1, 72151, Note_off_c, 0, 77, 100
1, 72151, Note_on_c, 0, 78, 100
1, 72227, Note_off_c, 0, 78, 100
1, 72227, Note_on_c, 0, 80, 100
1, 72265, Note_off_c, 0, 80, 100
1, 72265, Note_on_c, 0, 77, 100
1, 72303, Note_off_c, 0, 77, 100
1, 72303, Note_on_c, 0, 76, 100
1, 72367, Note_off_c, 0, 76, 100
1, 72367, Note_on_c, 0, 75, 100
1, 72431, Note_off_c, 0, 75, 100
1, 72431, Note_on_c, 0, 78, 100
1, 72495, Note_off_c, 0, 78, 100
1, 72495, Note_on_c, 0, 76, 100
1, 72522, Note_off_c, 0, 76, 100
1, 72522, Note_on_c, 0, 75, 100
1, 72549, Note_off_c, 0, 75, 100
1, 72549, Note_on_c, 0, 73, 100
1, 72603, Note_off_c, 0, 73, 100
1, 72603, Note_on_c, 0, 71, 100
1, 72657, Note_off_c, 0, 71, 100
1, 72657, Note_on_c, 0, 69, 100
1, 72684, Note_off_c, 0, 69, 100
1, 72684, Note_on_c, 0, 76, 100
1, 72732, Note_off_c, 0, 76, 100
1, 72732, Note_on_c, 0, 71, 100
1, 72780, Note_off_c, 0, 71, 100
1, 72780, Note_on_c, 0, 73, 100
1, 72828, Note_off_c, 0, 73, 100
1, 72828, Note_on_c, 0, 69, 100
1, 72876, Note_off_c, 0, 69, 100
1, 72876, Note_on_c, 0, 66, 100
1, 72924, Note_off_c, 0, 66, 100
1, 72924, Note_on_c, 0, 71, 100
1, 72972, Note_off_c, 0, 71, 100
1, 72972, Note_on_c, 0, 68, 100
1, 73020, Note_off_c, 0, 68, 100
1, 73020, Note_on_c, 0, 64, 100
1, 73068, Note_off_c, 0, 64, 100
1, 73068, Note_on_c, 0, 69, 100
1, 73212, Note_off_c, 0, 69, 100
1, 73212, Note_on_c, 0, 65, 100
1, 73260, Note_off_c, 0, 65, 100
1, 73260, Note_on_c, 0, 70, 100
1, 73388, Note_off_c, 0, 70, 100
1, 73388, Note_on_c, 0, 67, 100
1, 73452, Note_off_c, 0, 67, 100
1, 73452, Note_on_c, 0, 71, 100
1, 73548, Note_off_c, 0, 71, 100
1, 73548, Note_on_c, 0, 72, 100
1, 73644, Note_off_c, 0, 72, 100
1, 73644, Note_on_c, 0, 73, 100
1, 73788, Note_off_c, 0, 73, 100
1, 73788, Note_on_c, 0, 73, 100
1, 73932, Note_off_c, 0, 73, 100
1, 73932, Note_on_c, 0, 74, 100
1, 74364, Note_off_c, 0, 74, 100
1, 74364, Note_on_c, 0, 74, 100
1, 74412, Note_off_c, 0, 74, 100
1, 74412, Note_on_c, 0, 74, 100
1, 74556, Note_off_c, 0, 74, 100
1, 74556, Note_on_c, 0, 74, 100
1, 74604, Note_off_c, 0, 74, 100
1, 74604, Note_on_c, 0, 74, 100
1, 74748, Note_off_c, 0, 74, 100
1, 74748, Note_on_c, 0, 74, 100
1, 74796, Note_off_c, 0, 74, 100
1, 74796, Note_on_c, 0, 74, 100
1, 74940, Note_off_c, 0, 74, 100
1, 74940, Note_on_c, 0, 74, 100
1, 75036, Note_off_c, 0, 74, 100
1, 75900, Note_on_c, 0, 69, 100
1, 75996, Note_off_c, 0, 69, 100
1, 75996, Note_on_c, 0, 76, 100
1, 76092, Note_off_c, 0, 76, 100
1, 76092, Note_on_c, 0, 74, 100
1, 76236, Note_off_c, 0, 74, 100
1, 76236, Note_on_c, 0, 71, 100
1, 76332, Note_off_c, 0, 71, 100
1, 76332, Note_on_c, 0, 69, 100
1, 76427, Note_off_c, 0, 69, 100
1, 76427, Note_on_c, 0, 64, 100
1, 76475, Note_off_c, 0, 64, 100
1, 76475, Note_on_c, 0, 67, 100
1, 76523, Note_off_c, 0, 67, 100
1, 76523, Note_on_c, 0, 69, 100
1, 76619, Note_off_c, 0, 69, 100
1, 76619, Note_on_c, 0, 67, 100
1, 76715, Note_off_c, 0, 67, 100
1, 76715, Note_on_c, 0, 73, 100
1, 76811, Note_off_c, 0, 73, 100
1, 76811, Note_on_c, 0, 74, 100
1, 76907, Note_off_c, 0, 74, 100
1, 76907, Note_on_c, 0, 69, 100
1, 77099, Note_off_c, 0, 69, 100
1, 77099, Note_on_c, 0, 65, 100
1, 77147, Note_off_c, 0, 65, 100
1, 77147, Note_on_c, 0, 70, 100
1, 77291, Note_off_c, 0, 70, 100
1, 77291, Note_on_c, 0, 67, 100
1, 77578, Note_off_c, 0, 67, 100
1, 77578, Note_on_c, 0, 70, 100
1, 77674, Note_off_c, 0, 70, 100
1, 77674, Note_on_c, 0, 69, 100
1, 77770, Note_off_c, 0, 69, 100
1, 77770, Note_on_c, 0, 64, 100
1, 77818, Note_off_c, 0, 64, 100
1, 77818, Note_on_c, 0, 61, 100
1, 77962, Note_off_c, 0, 61, 100
1, 77962, Note_on_c, 0, 58, 100
1, 78058, Note_off_c, 0, 58, 100
1, 78058, Note_on_c, 0, 57, 100
1, 78250, Note_off_c, 0, 57, 100
1, 78922, Note_on_c, 0, 65, 100
1, 79018, Note_off_c, 0, 65, 100
1, 79018, Note_on_c, 0, 60, 100
1, 79114, Note_off_c, 0, 60, 100
1, 79114, Note_on_c, 0, 65, 100
1, 79210, Note_off_c, 0, 65, 100
1, 79210, Note_on_c, 0, 70, 100
1, 79305, Note_off_c, 0, 70, 100
1, 79305, Note_on_c, 0, 75, 100
1, 79401, Note_off_c, 0, 75, 100
1, 79401, Note_on_c, 0, 77, 100
1, 79593, Note_off_c, 0, 77, 100
1, 79593, Note_on_c, 0, 72, 100
1, 79689, Note_off_c, 0, 72, 100
1, 80313, Note_on_c, 0, 77, 100
1, 80456, Note_off_c, 0, 77, 100
1, 80456, Note_on_c, 0, 75, 100
1, 80552, Note_off_c, 0, 75, 100
1, 80552, Note_on_c, 0, 70, 100
1, 80648, Note_off_c, 0, 70, 100
1, 80648, Note_on_c, 0, 65, 100
1, 80744, Note_off_c, 0, 65, 100
1, 80744, Note_on_c, 0, 60, 100
1, 80840, Note_off_c, 0, 60, 100
1, 80840, Note_on_c, 0, 65, 100
1, 80936, Note_off_c, 0, 65, 100
1, 80936, Note_on_c, 0, 58, 100
1, 81031, Note_off_c, 0, 58, 100
1, 81031, Note_on_c, 0, 56, 100
1, 81127, Note_off_c, 0, 56, 100
1, 81127, Note_on_c, 0, 63, 100
1, 81271, Note_off_c, 0, 63, 100
1, 81271, Note_on_c, 0, 58, 100
1, 81319, Note_off_c, 0, 58, 100
1, 81319, Note_on_c, 0, 65, 100
1, 81415, Note_off_c, 0, 65, 100
1, 81415, Note_on_c, 0, 68, 100
1, 81511, Note_off_c, 0, 68, 100
1, 81511, Note_on_c, 0, 70, 100
1, 81895, Note_off_c, 0, 70, 100
1, 81895, Note_on_c, 0, 73, 100
1, 81991, Note_off_c, 0, 73, 100
1, 81991, Note_on_c, 0, 71, 100
1, 82087, Note_off_c, 0, 71, 100
1, 82087, Note_on_c, 0, 73, 100
1, 82182, Note_off_c, 0, 73, 100
1, 82182, Note_on_c, 0, 78, 100
1, 82278, Note_off_c, 0, 78, 100
1, 82278, Note_on_c, 0, 73, 100
1, 82374, Note_off_c, 0, 73, 100
1, 82374, Note_on_c, 0, 71, 100
1, 82470, Note_off_c, 0, 71, 100
1, 82470, Note_on_c, 0, 66, 100
1, 82614, Note_off_c, 0, 66, 100
1, 82614, Note_on_c, 0, 68, 100
1, 82662, Note_off_c, 0, 68, 100
1, 82662, Note_on_c, 0, 71, 100
1, 82854, Note_off_c, 0, 71, 100
1, 83526, Note_on_c, 0, 77, 100
1, 83574, Note_off_c, 0, 77, 100
1, 83574, Note_on_c, 0, 74, 100
1, 83622, Note_off_c, 0, 74, 100
1, 83622, Note_on_c, 0, 73, 100
1, 83670, Note_off_c, 0, 73, 100
1, 83670, Note_on_c, 0, 68, 100
1, 83717, Note_off_c, 0, 68, 100
1, 83717, Note_on_c, 0, 67, 100
1, 84005, Note_off_c, 0, 67, 100
1, 84005, Note_on_c, 0, 75, 100
1, 84101, Note_off_c, 0, 75, 100
1, 84101, Note_on_c, 0, 68, 100
1, 84197, Note_off_c, 0, 68, 100
1, 84197, Note_on_c, 0, 70, 100
1, 84293, Note_off_c, 0, 70, 100
1, 84677, Note_on_c, 0, 73, 100
1, 84725, Note_off_c, 0, 73, 100
1, 84725, Note_on_c, 0, 74, 100
1, 84869, Note_off_c, 0, 74, 100
1, 84869, Note_on_c, 0, 74, 100
1, 84965, Note_off_c, 0, 74, 100
1, 84965, Note_on_c, 0, 72, 100
1, 85109, Note_off_c, 0, 72, 100
1, 85109, Note_on_c, 0, 70, 100
1, 85157, Note_off_c, 0, 70, 100
1, 85157, Note_on_c, 0, 75, 100
1, 85253, Note_off_c, 0, 75, 100
1, 85253, Note_on_c, 0, 68, 100
1, 85349, Note_off_c, 0, 68, 100
1, 85349, Note_on_c, 0, 70, 100
1, 85445, Note_off_c, 0, 70, 100
1, 85925, Note_on_c, 0, 76, 100
1, 85973, Note_off_c, 0, 76, 100
1, 85973, Note_on_c, 0, 74, 100
1, 86068, Note_off_c, 0, 74, 100
1, 86068, Note_on_c, 0, 71, 100
1, 86164, Note_off_c, 0, 71, 100
1, 86164, Note_on_c, 0, 70, 100
1, 86211, Note_off_c, 0, 70, 100
1, 86211, Note_on_c, 0, 77, 100
1, 86307, Note_off_c, 0, 77, 100
1, 86307, Note_on_c, 0, 75, 100
1, 86355, Note_off_c, 0, 75, 100
1, 86355, Note_on_c, 0, 70, 100
1, 86451, Note_off_c, 0, 70, 100
1, 86451, Note_on_c, 0, 66, 100
1, 86499, Note_off_c, 0, 66, 100
1, 86499, Note_on_c, 0, 68, 100
1, 86643, Note_off_c, 0, 68, 100
1, 86643, Note_on_c, 0, 75, 100
1, 86691, Note_off_c, 0, 75, 100
1, 86691, Note_on_c, 0, 76, 100
1, 86755, Note_off_c, 0, 76, 100
1, 86755, Note_on_c, 0, 74, 100
1, 86819, Note_off_c, 0, 74, 100
1, 86819, Note_on_c, 0, 71, 100
1, 86883, Note_off_c, 0, 71, 100
1, 86883, Note_on_c, 0, 73, 100
1, 87027, Note_off_c, 0, 73, 100
1, 87027, Note_on_c, 0, 72, 100
1, 87075, Note_off_c, 0, 72, 100
1, 87075, Note_on_c, 0, 71, 100
1, 87123, Note_off_c, 0, 71, 100
1, 87123, Note_on_c, 0, 75, 100
1, 87170, Note_off_c, 0, 75, 100
1, 87170, Note_on_c, 0, 73, 100
1, 87218, Note_off_c, 0, 73, 100
1, 87218, Note_on_c, 0, 69, 100
1, 87266, Note_off_c, 0, 69, 100
1, 87266, Note_on_c, 0, 68, 100
1, 87314, Note_off_c, 0, 68, 100
1, 87314, Note_on_c, 0, 65, 100
1, 87361, Note_off_c, 0, 65, 100
1, 87361, Note_on_c, 0, 70, 100
1, 87409, Note_off_c, 0, 70, 100
1, 87409, Note_on_c, 0, 67, 100
1, 87457, Note_off_c, 0, 67, 100
1, 87457, Note_on_c, 0, 69, 100
1, 87649, Note_off_c, 0, 69, 100
1, 87649, Note_on_c, 0, 67, 100
1, 87841, Note_off_c, 0, 67, 100
1, 87841, Note_on_c, 0, 65, 100
1, 87889, Note_off_c, 0, 65, 100
1, 87889, Note_on_c, 0, 67, 100
1, 87936, Note_off_c, 0, 67, 100
1, 87936, Note_on_c, 0, 69, 100
1, 88032, Note_off_c, 0, 69, 100
1, 88032, Note_on_c, 0, 62, 100
1, 88128, Note_off_c, 0, 62, 100
1, 88128, Note_on_c, 0, 65, 100
1, 89056, Note_off_c, 0, 65, 100
1, 89056, Note_on_c, 0, 62, 100
1, 89120, Note_off_c, 0, 62, 100
1, 89120, Note_on_c, 0, 65, 100
1, 89248, Note_off_c, 0, 65, 100
1, 89248, Note_on_c, 0, 67, 100
1, 89312, Note_off_c, 0, 67, 100
1, 89312, Note_on_c, 0, 69, 100
1, 89376, Note_off_c, 0, 69, 100
1, 89376, Note_on_c, 0, 62, 100
1, 89472, Note_off_c, 0, 62, 100
1, 89472, Note_on_c, 0, 65, 100
1, 89664, Note_off_c, 0, 65, 100
1, 90336, Note_on_c, 0, 67, 100
1, 90384, Note_off_c, 0, 67, 100
1, 90384, Note_on_c, 0, 69, 100
1, 90480, Note_off_c, 0, 69, 100
1, 90480, Note_on_c, 0, 74, 100
1, 90960, Note_off_c, 0, 74, 100
1, 91488, Note_on_c, 0, 77, 100
1, 91632, Note_off_c, 0, 77, 100
1, 91632, Note_on_c, 0, 75, 100
1, 91824, Note_off_c, 0, 75, 100
1, 91824, Note_on_c, 0, 76, 100
1, 91936, Note_off_c, 0, 76, 100
1, 91936, Note_on_c, 0, 71, 100
1, 92000, Note_off_c, 0, 71, 100
1, 92000, Note_on_c, 0, 73, 100
1, 92064, Note_off_c, 0, 73, 100
1, 92064, Note_on_c, 0, 69, 100
1, 92640, Note_off_c, 0, 69, 100
1, 92640, Note_on_c, 0, 77, 100
1, 92736, Note_off_c, 0, 77, 100
1, 92736, Note_on_c, 0, 77, 100
1, 92832, Note_off_c, 0, 77, 100
1, 92832, Note_on_c, 0, 77, 100
1, 92928, Note_off_c, 0, 77, 100
1, 92928, Note_on_c, 0, 77, 100
1, 93024, Note_off_c, 0, 77, 100
1, 93695, Note_on_c, 0, 77, 100
1, 93743, Note_off_c, 0, 77, 100
1, 93743, Note_on_c, 0, 82, 100
1, 93935, Note_off_c, 0, 82, 100
1, 93935, Note_on_c, 0, 77, 100
1, 94127, Note_off_c, 0, 77, 100
1, 94127, Note_on_c, 0, 75, 100
1, 94223, Note_off_c, 0, 75, 100
1, 94223, Note_on_c, 0, 77, 100
1, 94367, Note_off_c, 0, 77, 100
1, 94367, Note_on_c, 0, 72, 100
1, 94511, Note_off_c, 0, 72, 100
1, 94511, Note_on_c, 0, 70, 100
1, 94655, Note_off_c, 0, 70, 100
1, 94655, Note_on_c, 0, 69, 100
1, 94703, Note_off_c, 0, 69, 100
1, 94703, Note_on_c, 0, 68, 100
1, 94751, Note_off_c, 0, 68, 100
1, 94751, Note_on_c, 0, 63, 100
1, 94799, Note_off_c, 0, 63, 100
1, 94799, Note_on_c, 0, 60, 100
1, 94846, Note_off_c, 0, 60, 100
1, 94846, Note_on_c, 0, 65, 100
1, 94894, Note_off_c, 0, 65, 100
1, 94894, Note_on_c, 0, 63, 100
1, 94990, Note_off_c, 0, 63, 100
1, 94990, Note_on_c, 0, 56, 100
1, 95038, Note_off_c, 0, 56, 100
1, 95038, Note_on_c, 0, 58, 100
1, 95086, Note_off_c, 0, 58, 100
1, 95086, Note_on_c, 0, 63, 100
1, 95134, Note_off_c, 0, 63, 100
1, 95134, Note_on_c, 0, 65, 100
1, 95182, Note_off_c, 0, 65, 100
1, 95182, Note_on_c, 0, 70, 100
1, 95277, Note_off_c, 0, 70, 100
1, 95277, Note_on_c, 0, 75, 100
1, 95661, Note_off_c, 0, 75, 100
1, 95996, Note_on_c, 0, 76, 100
1, 96092, Note_off_c, 0, 76, 100
1, 96092, Note_on_c, 0, 78, 100
1, 96130, Note_off_c, 0, 78, 100
1, 96130, Note_on_c, 0, 76, 100
1, 96168, Note_off_c, 0, 76, 100
1, 96168, Note_on_c, 0, 73, 100
1, 96206, Note_off_c, 0, 73, 100
1, 96206, Note_on_c, 0, 71, 100
1, 96282, Note_off_c, 0, 71, 100
1, 96282, Note_on_c, 0, 69, 100
1, 96330, Note_off_c, 0, 69, 100
1, 96330, Note_on_c, 0, 76, 100
1, 96377, Note_off_c, 0, 76, 100
1, 96377, Note_on_c, 0, 71, 100
1, 96425, Note_off_c, 0, 71, 100
1, 96425, Note_on_c, 0, 69, 100
1, 96473, Note_off_c, 0, 69, 100
1, 96473, Note_on_c, 0, 69, 100
1, 96521, Note_off_c, 0, 69, 100
1, 96521, Note_on_c, 0, 66, 100
1, 96568, Note_off_c, 0, 66, 100
1, 96568, Note_on_c, 0, 71, 100
1, 96616, Note_off_c, 0, 71, 100
1, 96616, Note_on_c, 0, 68, 100
1, 96664, Note_off_c, 0, 68, 100
1, 96664, Note_on_c, 0, 64, 100
1, 96696, Note_off_c, 0, 64, 100
1, 96696, Note_on_c, 0, 69, 100
1, 96760, Note_off_c, 0, 69, 100
1, 96760, Note_on_c, 0, 67, 100
1, 96824, Note_off_c, 0, 67, 100
1, 96824, Note_on_c, 0, 73, 100
1, 96856, Note_off_c, 0, 73, 100
1, 96856, Note_on_c, 0, 74, 100
1, 96952, Note_off_c, 0, 74, 100
1, 96952, Note_on_c, 0, 72, 100
1, 97048, Note_off_c, 0, 72, 100
1, 97048, Note_on_c, 0, 67, 100
1, 97112, Note_off_c, 0, 67, 100
1, 97112, Note_on_c, 0, 68, 100
1, 97176, Note_off_c, 0, 68, 100
1, 97176, Note_on_c, 0, 67, 100
1, 97240, Note_off_c, 0, 67, 100
1, 97240, Note_on_c, 0, 65, 100
1, 97304, Note_off_c, 0, 65, 100
1, 97304, Note_on_c, 0, 67, 100
1, 97368, Note_off_c, 0, 67, 100
1, 97368, Note_on_c, 0, 69, 100
1, 97432, Note_off_c, 0, 69, 100
1, 97432, Note_on_c, 0, 62, 100
1, 97528, Note_off_c, 0, 62, 100
1, 97528, Note_on_c, 0, 65, 100
1, 98393, Note_off_c, 0, 65, 100
1, 98393, End_track
0, 0, End_of_file
