0, 0, Header, 1, 1, 192
1, 0, Start_track
1, 0, Title_t, "Melody"
1, 0, Tempo, 348837
1, 0, Time_signature, 4, 2, 24, 8
1, 192, Note_on_c, 0, 68, 100
1, 288, Note_off_c, 0, 68, 100
1, 288, Note_on_c, 0, 70, 100
1, 384, Note_off_c, 0, 70, 100
1, 384, Note_on_c, 0, 72, 100
1, 480, Note_off_c, 0, 72, 100
1, 480, Note_on_c, 0, 74, 100
1, 720, Note_off_c, 0, 74, 100
1, 720, Note_on_c, 0, 72, 100
1, 864, Note_off_c, 0, 72, 100
1, 864, Note_on_c, 0, 70, 100
1, 960, Note_off_c, 0, 70, 100
1, 960, Note_on_c, 0, 67, 100
1, 1088, Note_off_c, 0, 67, 100
1, 1088, Note_on_c, 0, 65, 100
1, 1408, Note_off_c, 0, 65, 100
1, 1408, Note_on_c, 0, 63, 100
1, 1536, Note_off_c, 0, 63, 100
1, 1536, Note_on_c, 0, 67, 100
1, 1632, Note_off_c, 0, 67, 100
1, 1632, Note_on_c, 0, 70, 100
1, 1824, Note_off_c, 0, 70, 100
1, 1824, Note_on_c, 0, 68, 100
1, 1920, Note_off_c, 0, 68, 100
1, 1920, Note_on_c, 0, 65, 100
1, 2016, Note_off_c, 0, 65, 100
1, 2016, Note_on_c, 0, 61, 100
1, 2112, Note_off_c, 0, 61, 100
1, 2112, Note_on_c, 0, 54, 100
1, 2208, Note_off_c, 0, 54, 100
1, 2208, Note_on_c, 0, 56, 100
1, 2400, Note_off_c, 0, 56, 100
1, 2400, Note_on_c, 0, 58, 100
1, 2496, Note_off_c, 0, 58, 100
1, 2496, Note_on_c, 0, 62, 100
1, 2592, Note_off_c, 0, 62, 100
1, 2592, Note_on_c, 0, 66, 100
1, 2688, Note_off_c, 0, 66, 100
1, 2688, Note_on_c, 0, 68, 100
1, 2784, Note_off_c, 0, 68, 100
1, 2784, Note_on_c, 0, 70, 100
1, 2976, Note_off_c, 0, 70, 100
1, 2976, Note_on_c, 0, 70, 100
1, 3072, Note_off_c, 0, 70, 100
1, 3072, Note_on_c, 0, 67, 100
1, 3168, Note_off_c, 0, 67, 100
1, 3168, Note_on_c, 0, 79, 100
1, 3264, Note_off_c, 0, 79, 100
1, 3744, Note_on_c, 0, 77, 100
1, 3840, Note_off_c, 0, 77, 100
1, 3840, Note_on_c, 0, 79, 100
1, 3936, Note_off_c, 0, 79, 100
1, 3936, Note_on_c, 0, 82, 100
1, 4032, Note_off_c, 0, 82, 100
1, 4512, Note_on_c, 0, 75, 100
1, 4560, Note_off_c, 0, 75, 100
1, 4560, Note_on_c, 0, 77, 100
1, 4608, Note_off_c, 0, 77, 100
1, 4608, Note_on_c, 0, 77, 100
1, 4704, Note_off_c, 0, 77, 100
1, 4704, Note_on_c, 0, 77, 100
1, 4800, Note_off_c, 0, 77, 100
1, 4800, Note_on_c, 0, 77, 100
1, 4864, Note_off_c, 0, 77, 100
1, 4864, Note_on_c, 0, 77, 100
1, 4928, Note_off_c, 0, 77, 100
1, 4928, Note_on_c, 0, 76, 100
1, 4992, Note_off_c, 0, 76, 100
1, 4992, Note_on_c, 0, 75, 100
1, 5136, Note_off_c, 0, 75, 100
1, 5136, Note_on_c, 0, 77, 100
1, 5184, Note_off_c, 0, 77, 100
1, 5184, Note_on_c, 0, 78, 100
1, 5280, Note_off_c, 0, 78, 100
1, 5280, Note_on_c, 0, 80, 100
1, 5328, Note_off_c, 0, 80, 100
1, 5328, Note_on_c, 0, 77, 100
1, 5376, Note_off_c, 0, 77, 100
1, 5376, Note_on_c, 0, 75, 100
1, 5424, Note_off_c, 0, 75, 100
1, 5424, Note_on_c, 0, 73, 100
1, 5472, Note_off_c, 0, 73, 100
1, 5472, Note_on_c, 0, 70, 100
1, 5520, Note_off_c, 0, 70, 100
1, 5520, Note_on_c, 0, 68, 100
1, 5568, Note_off_c, 0, 68, 100
1, 5568, Note_on_c, 0, 65, 100
1, 5606, Note_off_c, 0, 65, 100
1, 5606, Note_on_c, 0, 66, 100
1, 5644, Note_off_c, 0, 66, 100
1, 5644, Note_on_c, 0, 70, 100
1, 5682, Note_off_c, 0, 70, 100
1, 5682, Note_on_c, 0, 69, 100
1, 5720, Note_off_c, 0, 69, 100
1, 5720, Note_on_c, 0, 68, 100
1, 5912, Note_off_c, 0, 68, 100
1, 6142, Note_on_c, 0, 70, 100
1, 6286, Note_off_c, 0, 70, 100
1, 6286, Note_on_c, 0, 70, 100
1, 6526, Note_off_c, 0, 70, 100
1, 6526, Note_on_c, 0, 70, 100
1, 6670, Note_off_c, 0, 70, 100
1, 6670, Note_on_c, 0, 75, 100
1, 6814, Note_off_c, 0, 75, 100
1, 6814, Note_on_c, 0, 72, 100
1, 7390, Note_off_c, 0, 72, 100
1, 7774, Note_on_c, 0, 63, 100
1, 7870, Note_off_c, 0, 63, 100
1, 7870, Note_on_c, 0, 68, 100
1, 7966, Note_off_c, 0, 68, 100
1, 7966, Note_on_c, 0, 70, 100
1, 8110, Note_off_c, 0, 70, 100
1, 8110, Note_on_c, 0, 71, 100
1, 8158, Note_off_c, 0, 71, 100
1, 8158, Note_on_c, 0, 73, 100
1, 8446, Note_off_c, 0, 73, 100
1, 8446, Note_on_c, 0, 68, 100
1, 8542, Note_off_c, 0, 68, 100
1, 8542, Note_on_c, 0, 70, 100
1, 8638, Note_off_c, 0, 70, 100
1, 8638, Note_on_c, 0, 68, 100
1, 8734, Note_off_c, 0, 68, 100
1, 8734, Note_on_c, 0, 65, 100
1, 8830, Note_off_c, 0, 65, 100
1, 8830, Note_on_c, 0, 63, 100
1, 8926, Note_off_c, 0, 63, 100
1, 8926, Note_on_c, 0, 60, 100
1, 9022, Note_off_c, 0, 60, 100
1, 9022, Note_on_c, 0, 65, 100
1, 9118, Note_off_c, 0, 65, 100
1, 9118, Note_on_c, 0, 63, 100
1, 9214, Note_off_c, 0, 63, 100
1, 9214, Note_on_c, 0, 60, 100
1, 9406, Note_off_c, 0, 60, 100
1, 9406, Note_on_c, 0, 65, 100
1, 9550, Note_off_c, 0, 65, 100
1, 9550, Note_on_c, 0, 58, 100
1, 9790, Note_off_c, 0, 58, 100
1, 9790, Note_on_c, 0, 63, 100
1, 9934, Note_off_c, 0, 63, 100
1, 9934, Note_on_c, 0, 65, 100
1, 10510, Note_off_c, 0, 65, 100
1, 10846, Note_on_c, 0, 66, 100
1, 10894, Note_off_c, 0, 66, 100
1, 10894, Note_on_c, 0, 69, 100
1, 11038, Note_off_c, 0, 69, 100
1, 11038, Note_on_c, 0, 73, 100
1, 11134, Note_off_c, 0, 73, 100
1, 11134, Note_on_c, 0, 71, 100
1, 11230, Note_off_c, 0, 71, 100
1, 11566, Note_on_c, 0, 74, 100
1, 11662, Note_off_c, 0, 74, 100
1, 11662, Note_on_c, 0, 78, 100
1, 11806, Note_off_c, 0, 78, 100
1, 11806, Note_on_c, 0, 81, 100
1, 11902, Note_off_c, 0, 81, 100
1, 11902, Note_on_c, 0, 80, 100
1, 11998, Note_off_c, 0, 80, 100
1, 12334, Note_on_c, 0, 78, 100
1, 12430, Note_off_c, 0, 78, 100
1, 12430, Note_on_c, 0, 81, 100
1, 12542, Note_off_c, 0, 81, 100
1, 12542, Note_on_c, 0, 84, 100
1, 12862, Note_off_c, 0, 84, 100
1, 12862, Note_on_c, 0, 82, 100
1, 12958, Note_off_c, 0, 82, 100
1, 12958, Note_on_c, 0, 79, 100
1, 13102, Note_off_c, 0, 79, 100
1, 13102, Note_on_c, 0, 77, 100
1, 13198, Note_off_c, 0, 77, 100
1, 13198, Note_on_c, 0, 75, 100
1, 13246, Note_off_c, 0, 75, 100
1, 13246, Note_on_c, 0, 72, 100
1, 13582, Note_off_c, 0, 72, 100
1, 13582, Note_on_c, 0, 75, 100
1, 13630, Note_off_c, 0, 75, 100
1, 13630, Note_on_c, 0, 77, 100
1, 13668, Note_off_c, 0, 77, 100
1, 13668, Note_on_c, 0, 78, 100
1, 13706, Note_off_c, 0, 78, 100
1, 13706, Note_on_c, 0, 82, 100
1, 13744, Note_off_c, 0, 82, 100
1, 13744, Note_on_c, 0, 80, 100
1, 13782, Note_off_c, 0, 80, 100
1, 13782, Note_on_c, 0, 77, 100
1, 13820, Note_off_c, 0, 77, 100
1, 13820, Note_on_c, 0, 76, 100
1, 13884, Note_off_c, 0, 76, 100
1, 13884, Note_on_c, 0, 75, 100
1, 13948, Note_off_c, 0, 75, 100
1, 13948, Note_on_c, 0, 78, 100
1, 14012, Note_off_c, 0, 78, 100
1, 14012, Note_on_c, 0, 76, 100
1, 14060, Note_off_c, 0, 76, 100
1, 14060, Note_on_c, 0, 73, 100
1, 14108, Note_off_c, 0, 73, 100
1, 14108, Note_on_c, 0, 71, 100
1, 14156, Note_off_c, 0, 71, 100
1, 14156, Note_on_c, 0, 69, 100
1, 14204, Note_off_c, 0, 69, 100
1, 14204, Note_on_c, 0, 76, 100
1, 14252, Note_off_c, 0, 76, 100
1, 14252, Note_on_c, 0, 71, 100
1, 14300, Note_off_c, 0, 71, 100
1, 14300, Note_on_c, 0, 73, 100
1, 14348, Note_off_c, 0, 73, 100
1, 14348, Note_on_c, 0, 69, 100
1, 14396, Note_off_c, 0, 69, 100
1, 14396, Note_on_c, 0, 66, 100
1, 14444, Note_off_c, 0, 66, 100
1, 14444, Note_on_c, 0, 70, 100
1, 14492, Note_off_c, 0, 70, 100
1, 14492, Note_on_c, 0, 68, 100
1, 14540, Note_off_c, 0, 68, 100
1, 14540, Note_on_c, 0, 69, 100
1, 14588, Note_off_c, 0, 69, 100
1, 14588, Note_on_c, 0, 68, 100
1, 14684, Note_off_c, 0, 68, 100
1, 14684, Note_on_c, 0, 64, 100
1, 14876, Note_off_c, 0, 64, 100
1, 14876, Note_on_c, 0, 62, 100
1, 14924, Note_off_c, 0, 62, 100
1, 14924, Note_on_c, 0, 64, 100
1, 15068, Note_off_c, 0, 64, 100
1, 15068, Note_on_c, 0, 62, 100
1, 15228, Note_off_c, 0, 62, 100
1, 15228, Note_on_c, 0, 61, 100
1, 15260, Note_off_c, 0, 61, 100
1, 15260, Note_on_c, 0, 62, 100
1, 15292, Note_off_c, 0, 62, 100
1, 15292, Note_on_c, 0, 63, 100
1, 15324, Note_off_c, 0, 63, 100
1, 15324, Note_on_c, 0, 65, 100
1, 15356, Note_off_c, 0, 65, 100
1, 15356, Note_on_c, 0, 67, 100
1, 15394, Note_off_c, 0, 67, 100
1, 15394, Note_on_c, 0, 68, 100
1, 15432, Note_off_c, 0, 68, 100
1, 15432, Note_on_c, 0, 70, 100
1, 15470, Note_off_c, 0, 70, 100
1, 15470, Note_on_c, 0, 72, 100
1, 15508, Note_off_c, 0, 72, 100
1, 15508, Note_on_c, 0, 74, 100
1, 15642, Note_off_c, 0, 74, 100
1, 15642, Note_on_c, 0, 81, 100
1, 15674, Note_off_c, 0, 81, 100
1, 15674, Note_on_c, 0, 79, 100
1, 15706, Note_off_c, 0, 79, 100
1, 15706, Note_on_c, 0, 77, 100
1, 15738, Note_off_c, 0, 77, 100
1, 15738, Note_on_c, 0, 74, 100
1, 15786, Note_off_c, 0, 74, 100
1, 15786, Note_on_c, 0, 72, 100
1, 15882, Note_off_c, 0, 72, 100
1, 16314, Note_on_c, 0, 77, 100
1, 16362, Note_off_c, 0, 77, 100
1, 16362, Note_on_c, 0, 81, 100
1, 16410, Note_off_c, 0, 81, 100
1, 16410, Note_on_c, 0, 81, 100
1, 16554, Note_off_c, 0, 81, 100
1, 16554, Note_on_c, 0, 79, 100
1, 16602, Note_off_c, 0, 79, 100
1, 16602, Note_on_c, 0, 77, 100
1, 16650, Note_off_c, 0, 77, 100
1, 16650, Note_on_c, 0, 76, 100
1, 16698, Note_off_c, 0, 76, 100
1, 16698, Note_on_c, 0, 75, 100
1, 16746, Note_off_c, 0, 75, 100
1, 16746, Note_on_c, 0, 68, 100
1, 16794, Note_off_c, 0, 68, 100
1, 16794, Note_on_c, 0, 75, 100
1, 16842, Note_off_c, 0, 75, 100
1, 16842, Note_on_c, 0, 77, 100
1, 16890, Note_off_c, 0, 77, 100
1, 16890, Note_on_c, 0, 78, 100
1, 16928, Note_off_c, 0, 78, 100
1, 16928, Note_on_c, 0, 82, 100
1, 16966, Note_off_c, 0, 82, 100
1, 16966, Note_on_c, 0, 80, 100
1, 17004, Note_off_c, 0, 80, 100
1, 17004, Note_on_c, 0, 77, 100
1, 17042, Note_off_c, 0, 77, 100
1, 17042, Note_on_c, 0, 75, 100
1, 17080, Note_off_c, 0, 75, 100
1, 17080, Note_on_c, 0, 73, 100
1, 17128, Note_off_c, 0, 73, 100
1, 17128, Note_on_c, 0, 70, 100
1, 17176, Note_off_c, 0, 70, 100
1, 17176, Note_on_c, 0, 68, 100
1, 17272, Note_off_c, 0, 68, 100
1, 17272, Note_on_c, 0, 71, 100
1, 17368, Note_off_c, 0, 71, 100
1, 17368, Note_on_c, 0, 73, 100
1, 17464, Note_off_c, 0, 73, 100
1, 17464, Note_on_c, 0, 71, 100
1, 17560, Note_off_c, 0, 71, 100
1, 17560, Note_on_c, 0, 68, 100
1, 17944, Note_off_c, 0, 68, 100
1, 18328, Note_on_c, 0, 76, 100
1, 18376, Note_off_c, 0, 76, 100
1, 18376, Note_on_c, 0, 81, 100
1, 18472, Note_off_c, 0, 81, 100
1, 18712, Note_on_c, 0, 76, 100
1, 18904, Note_off_c, 0, 76, 100
1, 18904, Note_on_c, 0, 74, 100
1, 19000, Note_off_c, 0, 74, 100
1, 19000, Note_on_c, 0, 71, 100
1, 19096, Note_off_c, 0, 71, 100
1, 19096, Note_on_c, 0, 74, 100
1, 19192, Note_off_c, 0, 74, 100
1, 19192, Note_on_c, 0, 69, 100
1, 19288, Note_off_c, 0, 69, 100
1, 19288, Note_on_c, 0, 64, 100
1, 19384, Note_off_c, 0, 64, 100
1, 19384, Note_on_c, 0, 71, 100
1, 19480, Note_off_c, 0, 71, 100
1, 19480, Note_on_c, 0, 69, 100
1, 19576, Note_off_c, 0, 69, 100
1, 19576, Note_on_c, 0, 67, 100
1, 19672, Note_off_c, 0, 67, 100
1, 19864, Note_on_c, 0, 77, 100
1, 19960, Note_off_c, 0, 77, 100
1, 19960, Note_on_c, 0, 82, 100
1, 20056, Note_off_c, 0, 82, 100
1, 20632, Note_on_c, 0, 77, 100
1, 20728, Note_off_c, 0, 77, 100
1, 20728, Note_on_c, 0, 80, 100
1, 20766, Note_off_c, 0, 80, 100
1, 20766, Note_on_c, 0, 82, 100
1, 20804, Note_off_c, 0, 82, 100
1, 20804, Note_on_c, 0, 82, 100
1, 20842, Note_off_c, 0, 82, 100
1, 20842, Note_on_c, 0, 82, 100
1, 20880, Note_off_c, 0, 82, 100
1, 20880, Note_on_c, 0, 82, 100
1, 20918, Note_off_c, 0, 82, 100
1, 20918, Note_on_c, 0, 82, 100
1, 20966, Note_off_c, 0, 82, 100
1, 20966, Note_on_c, 0, 82, 100
1, 21014, Note_off_c, 0, 82, 100
1, 21014, Note_on_c, 0, 82, 100
1, 21062, Note_off_c, 0, 82, 100
1, 21062, Note_on_c, 0, 82, 100
1, 21110, Note_off_c, 0, 82, 100
1, 21110, Note_on_c, 0, 82, 100
1, 21134, Note_off_c, 0, 82, 100
1, 21134, Note_on_c, 0, 83, 100
1, 21182, Note_off_c, 0, 83, 100
1, 21182, Note_on_c, 0, 82, 100
1, 21206, Note_off_c, 0, 82, 100
1, 21206, Note_on_c, 0, 82, 100
1, 21254, Note_off_c, 0, 82, 100
1, 21254, Note_on_c, 0, 82, 100
1, 21278, Note_off_c, 0, 82, 100
1, 21278, Note_on_c, 0, 82, 100
1, 21302, Note_off_c, 0, 82, 100
1, 21302, Note_on_c, 0, 82, 100
1, 21350, Note_off_c, 0, 82, 100
1, 21350, Note_on_c, 0, 82, 100
1, 21398, Note_off_c, 0, 82, 100
1, 21398, Note_on_c, 0, 82, 100
1, 21446, Note_off_c, 0, 82, 100
1, 21446, Note_on_c, 0, 82, 100
1, 21494, Note_off_c, 0, 82, 100
1, 21494, Note_on_c, 0, 82, 100
1, 21518, Note_off_c, 0, 82, 100
1, 21518, Note_on_c, 0, 82, 100
1, 21566, Note_off_c, 0, 82, 100
1, 21566, Note_on_c, 0, 82, 100
1, 21590, Note_off_c, 0, 82, 100
1, 21590, Note_on_c, 0, 82, 100
1, 21662, Note_off_c, 0, 82, 100
1, 21662, Note_on_c, 0, 82, 100
1, 21686, Note_off_c, 0, 82, 100
1, 21686, Note_on_c, 0, 82, 100
1, 21724, Note_off_c, 0, 82, 100
1, 21724, Note_on_c, 0, 82, 100
1, 21762, Note_off_c, 0, 82, 100
1, 21762, Note_on_c, 0, 82, 100
1, 21800, Note_off_c, 0, 82, 100
1, 21800, Note_on_c, 0, 82, 100
1, 21838, Note_off_c, 0, 82, 100
1, 21838, Note_on_c, 0, 82, 100
1, 21876, Note_off_c, 0, 82, 100
1, 21876, Note_on_c, 0, 82, 100
1, 21924, Note_off_c, 0, 82, 100
1, 21924, Note_on_c, 0, 82, 100
1, 21972, Note_off_c, 0, 82, 100
1, 21972, Note_on_c, 0, 82, 100
1, 22020, Note_off_c, 0, 82, 100
1, 22020, Note_on_c, 0, 82, 100
1, 22068, Note_off_c, 0, 82, 100
1, 22068, Note_on_c, 0, 82, 100
1, 22100, Note_off_c, 0, 82, 100
1, 22100, Note_on_c, 0, 83, 100
1, 22132, Note_off_c, 0, 83, 100
1, 22132, Note_on_c, 0, 82, 100
1, 22164, Note_off_c, 0, 82, 100
1, 22164, Note_on_c, 0, 83, 100
1, 22196, Note_off_c, 0, 83, 100
1, 22196, Note_on_c, 0, 82, 100
1, 22260, Note_off_c, 0, 82, 100
1, 22260, Note_on_c, 0, 81, 100
1, 22356, Note_off_c, 0, 81, 100
1, 22726, Note_on_c, 0, 83, 100
1, 22753, Note_off_c, 0, 83, 100
1, 22753, Note_on_c, 0, 84, 100
1, 22780, Note_off_c, 0, 84, 100
1, 22780, Note_on_c, 0, 85, 100
1, 22807, Note_off_c, 0, 85, 100
1, 22807, Note_on_c, 0, 86, 100
1, 23218, Note_off_c, 0, 86, 100
1, 23218, Note_on_c, 0, 85, 100
1, 23266, Note_off_c, 0, 85, 100
1, 23266, Note_on_c, 0, 83, 100
1, 23458, Note_off_c, 0, 83, 100
1, 23458, Note_on_c, 0, 84, 100
1, 23506, Note_off_c, 0, 84, 100
1, 23506, Note_on_c, 0, 85, 100
1, 23602, Note_off_c, 0, 85, 100
1, 24274, Note_on_c, 0, 76, 100
1, 24370, Note_off_c, 0, 76, 100
1, 24370, Note_on_c, 0, 81, 100
1, 24466, Note_off_c, 0, 81, 100
1, 24466, Note_on_c, 0, 83, 100
1, 24514, Note_off_c, 0, 83, 100
1, 24514, Note_on_c, 0, 85, 100
1, 24658, Note_off_c, 0, 85, 100
1, 24658, Note_on_c, 0, 83, 100
1, 24754, Note_off_c, 0, 83, 100
1, 24754, Note_on_c, 0, 81, 100
1, 24850, Note_off_c, 0, 81, 100
1, 24850, Note_on_c, 0, 78, 100
1, 25042, Note_off_c, 0, 78, 100
1, 25042, Note_on_c, 0, 80, 100
1, 25090, Note_off_c, 0, 80, 100
1, 25090, Note_on_c, 0, 78, 100
1, 25138, Note_off_c, 0, 78, 100
1, 25138, Note_on_c, 0, 80, 100
1, 25186, Note_off_c, 0, 80, 100
1, 25186, Note_on_c, 0, 78, 100
1, 25234, Note_off_c, 0, 78, 100
1, 25234, Note_on_c, 0, 80, 100
1, 25282, Note_off_c, 0, 80, 100
1, 25282, Note_on_c, 0, 78, 100
1, 25330, Note_off_c, 0, 78, 100
1, 25330, Note_on_c, 0, 80, 100
1, 25378, Note_off_c, 0, 80, 100
1, 25378, Note_on_c, 0, 78, 100
1, 25474, Note_off_c, 0, 78, 100
1, 25810, Note_on_c, 0, 77, 100
1, 25906, Note_off_c, 0, 77, 100
1, 25906, Note_on_c, 0, 81, 100
1, 26002, Note_off_c, 0, 81, 100
1, 26002, Note_on_c, 0, 84, 100
1, 26098, Note_off_c, 0, 84, 100
1, 26098, Note_on_c, 0, 79, 100
1, 26194, Note_off_c, 0, 79, 100
1, 26194, Note_on_c, 0, 81, 100
1, 26290, Note_off_c, 0, 81, 100
1, 26290, Note_on_c, 0, 77, 100
1, 26386, Note_off_c, 0, 77, 100
1, 26386, Note_on_c, 0, 74, 100
1, 26482, Note_off_c, 0, 74, 100
1, 26482, Note_on_c, 0, 72, 100
1, 26578, Note_off_c, 0, 72, 100
1, 26578, Note_on_c, 0, 77, 100
1, 26770, Note_off_c, 0, 77, 100
1, 26770, Note_on_c, 0, 77, 100
1, 26866, Note_off_c, 0, 77, 100
1, 26866, Note_on_c, 0, 75, 100
1, 26962, Note_off_c, 0, 75, 100
1, 26962, Note_on_c, 0, 68, 100
1, 27058, Note_off_c, 0, 68, 100
1, 27058, Note_on_c, 0, 70, 100
1, 27154, Note_off_c, 0, 70, 100
1, 27154, Note_on_c, 0, 68, 100
1, 27634, Note_off_c, 0, 68, 100
1, 27826, Note_on_c, 0, 75, 100
1, 27874, Note_off_c, 0, 75, 100
1, 27874, Note_on_c, 0, 77, 100
1, 27922, Note_off_c, 0, 77, 100
1, 27922, Note_on_c, 0, 79, 100
1, 27970, Note_off_c, 0, 79, 100
1, 27970, Note_on_c, 0, 80, 100
1, 28018, Note_off_c, 0, 80, 100
1, 28018, Note_on_c, 0, 77, 100
1, 28056, Note_off_c, 0, 77, 100
1, 28056, Note_on_c, 0, 76, 100
1, 28094, Note_off_c, 0, 76, 100
1, 28094, Note_on_c, 0, 75, 100
1, 28170, Note_off_c, 0, 75, 100
1, 28170, Note_on_c, 0, 79, 100
1, 28208, Note_off_c, 0, 79, 100
1, 28208, Note_on_c, 0, 76, 100
1, 28272, Note_off_c, 0, 76, 100
1, 28272, Note_on_c, 0, 74, 100
1, 28336, Note_off_c, 0, 74, 100
1, 28336, Note_on_c, 0, 72, 100
1, 28400, Note_off_c, 0, 72, 100
1, 28400, Note_on_c, 0, 70, 100
1, 28427, Note_off_c, 0, 70, 100
1, 28427, Note_on_c, 0, 77, 100
1, 28481, Note_off_c, 0, 77, 100
1, 28481, Note_on_c, 0, 72, 100
1, 28508, Note_off_c, 0, 72, 100
1, 28508, Note_on_c, 0, 74, 100
1, 28562, Note_off_c, 0, 74, 100
1, 28562, Note_on_c, 0, 70, 100
1, 28589, Note_off_c, 0, 70, 100
1, 28589, Note_on_c, 0, 67, 100
1, 28637, Note_off_c, 0, 67, 100
1, 28637, Note_on_c, 0, 72, 100
1, 28685, Note_off_c, 0, 72, 100
1, 28685, Note_on_c, 0, 69, 100
1, 28733, Note_off_c, 0, 69, 100
1, 28733, Note_on_c, 0, 65, 100
1, 28781, Note_off_c, 0, 65, 100
1, 28781, Note_on_c, 0, 70, 100
1, 28819, Note_off_c, 0, 70, 100
1, 28819, Note_on_c, 0, 69, 100
1, 28857, Note_off_c, 0, 69, 100
1, 28857, Note_on_c, 0, 68, 100
1, 28895, Note_off_c, 0, 68, 100
1, 28895, Note_on_c, 0, 70, 100
1, 28933, Note_off_c, 0, 70, 100
1, 28933, Note_on_c, 0, 71, 100
1, 28971, Note_off_c, 0, 71, 100
1, 28971, Note_on_c, 0, 74, 100
1, 29019, Note_off_c, 0, 74, 100
1, 29019, Note_on_c, 0, 73, 100
1, 29067, Note_off_c, 0, 73, 100
1, 29067, Note_on_c, 0, 71, 100
1, 29115, Note_off_c, 0, 71, 100
1, 29115, Note_on_c, 0, 64, 100
1, 29163, Note_off_c, 0, 64, 100
1, 29163, Note_on_c, 0, 69, 100
1, 29201, Note_off_c, 0, 69, 100
1, 29201, Note_on_c, 0, 71, 100
1, 29239, Note_off_c, 0, 71, 100
1, 29239, Note_on_c, 0, 73, 100
1, 29277, Note_off_c, 0, 73, 100
1, 29277, Note_on_c, 0, 69, 100
1, 29315, Note_off_c, 0, 69, 100
1, 29315, Note_on_c, 0, 66, 100
1, 29391, Note_off_c, 0, 66, 100
1, 29391, Note_on_c, 0, 71, 100
1, 29429, Note_off_c, 0, 71, 100
1, 29429, Note_on_c, 0, 68, 100
1, 29467, Note_off_c, 0, 68, 100
1, 29467, Note_on_c, 0, 65, 100
1, 29505, Note_off_c, 0, 65, 100
1, 29505, Note_on_c, 0, 70, 100
1, 29543, Note_off_c, 0, 70, 100
1, 29543, Note_on_c, 0, 69, 100
1, 29591, Note_off_c, 0, 69, 100
1, 29591, Note_on_c, 0, 67, 100
1, 29639, Note_off_c, 0, 67, 100
1, 29639, Note_on_c, 0, 64, 100
1, 29687, Note_off_c, 0, 64, 100
1, 29687, Note_on_c, 0, 63, 100
1, 29735, Note_off_c, 0, 63, 100
1, 29735, Note_on_c, 0, 65, 100
1, 29783, Note_off_c, 0, 65, 100
1, 29783, Note_on_c, 0, 63, 100
1, 29831, Note_off_c, 0, 63, 100
1, 29831, Note_on_c, 0, 60, 100
1, 29927, Note_off_c, 0, 60, 100
1, 29927, Note_on_c, 0, 63, 100
1, 30055, Note_off_c, 0, 63, 100
1, 30055, Note_on_c, 0, 65, 100
1, 30151, Note_off_c, 0, 65, 100
1, 30407, Note_on_c, 0, 75, 100
1, 30503, Note_off_c, 0, 75, 100
1, 30503, Note_on_c, 0, 77, 100
1, 30567, Note_off_c, 0, 77, 100
1, 30567, Note_on_c, 0, 82, 100
1, 30599, Note_off_c, 0, 82, 100
1, 30599, Note_on_c, 0, 80, 100
1, 30631, Note_off_c, 0, 80, 100
1, 30631, Note_on_c, 0, 77, 100
1, 30663, Note_off_c, 0, 77, 100
1, 30663, Note_on_c, 0, 76, 100
1, 30695, Note_off_c, 0, 76, 100
1, 30695, Note_on_c, 0, 75, 100
1, 30759, Note_off_c, 0, 75, 100
1, 30759, Note_on_c, 0, 79, 100
1, 30791, Note_off_c, 0, 79, 100
1, 30791, Note_on_c, 0, 77, 100
1, 30823, Note_off_c, 0, 77, 100
1, 30823, Note_on_c, 0, 75, 100
1, 30855, Note_off_c, 0, 75, 100
1, 30855, Note_on_c, 0, 73, 100
1, 30925, Note_off_c, 0, 73, 100
1, 30925, Note_on_c, 0, 71, 100
1, 30963, Note_off_c, 0, 71, 100
1, 30963, Note_on_c, 0, 70, 100
1, 31001, Note_off_c, 0, 70, 100
1, 31001, Note_on_c, 0, 76, 100
1, 31039, Note_off_c, 0, 76, 100
1, 31039, Note_on_c, 0, 71, 100
1, 31077, Note_off_c, 0, 71, 100
1, 31077, Note_on_c, 0, 73, 100
1, 31115, Note_off_c, 0, 73, 100
1, 31115, Note_on_c, 0, 69, 100
1, 31153, Note_off_c, 0, 69, 100
1, 31153, Note_on_c, 0, 67, 100
1, 31191, Note_off_c, 0, 67, 100
1, 31191, Note_on_c, 0, 65, 100
1, 31229, Note_off_c, 0, 65, 100
1, 31229, Note_on_c, 0, 71, 100
1, 31267, Note_off_c, 0, 71, 100
1, 31267, Note_on_c, 0, 68, 100
1, 31315, Note_off_c, 0, 68, 100
1, 31315, Note_on_c, 0, 66, 100
1, 31363, Note_off_c, 0, 66, 100
1, 31363, Note_on_c, 0, 70, 100
1, 31459, Note_off_c, 0, 70, 100
1, 32099, Note_on_c, 0, 77, 100
1, 32323, Note_off_c, 0, 77, 100
1, 32323, Note_on_c, 0, 77, 100
1, 32515, Note_off_c, 0, 77, 100
1, 32515, Note_on_c, 0, 77, 100
1, 32611, Note_off_c, 0, 77, 100
1, 32611, Note_on_c, 0, 74, 100
1, 32707, Note_off_c, 0, 74, 100
1, 32707, Note_on_c, 0, 75, 100
1, 32803, Note_off_c, 0, 75, 100
1, 32803, Note_on_c, 0, 72, 100
1, 32995, Note_off_c, 0, 72, 100
1, 32995, Note_on_c, 0, 68, 100
1, 33091, Note_off_c, 0, 68, 100
1, 33091, Note_on_c, 0, 70, 100
1, 33187, Note_off_c, 0, 70, 100
1, 33187, Note_on_c, 0, 68, 100
1, 33283, Note_off_c, 0, 68, 100
1, 33283, Note_on_c, 0, 70, 100
1, 33379, Note_off_c, 0, 70, 100
1, 33379, Note_on_c, 0, 68, 100
1, 33523, Note_off_c, 0, 68, 100
1, 33523, Note_on_c, 0, 70, 100
1, 33667, Note_off_c, 0, 70, 100
1, 33667, Note_on_c, 0, 66, 100
1, 33763, Note_off_c, 0, 66, 100
1, 33763, Note_on_c, 0, 61, 100
1, 33955, Note_off_c, 0, 61, 100
1, 33955, Note_on_c, 0, 54, 100
1, 34051, Note_off_c, 0, 54, 100
1, 34051, Note_on_c, 0, 56, 100
1, 34147, Note_off_c, 0, 56, 100
1, 34147, Note_on_c, 0, 58, 100
1, 34243, Note_off_c, 0, 58, 100
1, 34243, Note_on_c, 0, 61, 100
1, 34339, Note_off_c, 0, 61, 100
1, 34339, Note_on_c, 0, 63, 100
1, 34435, Note_off_c, 0, 63, 100
1, 34435, Note_on_c, 0, 66, 100
1, 34531, Note_off_c, 0, 66, 100
1, 34531, Note_on_c, 0, 70, 100
1, 35107, Note_off_c, 0, 70, 100
1, 35107, Note_on_c, 0, 67, 100
1, 35203, Note_off_c, 0, 67, 100
1, 35203, Note_on_c, 0, 65, 100
1, 35683, Note_off_c, 0, 65, 100
1, 36643, Note_on_c, 0, 75, 100
1, 36883, Note_off_c, 0, 75, 100
1, 36883, Note_on_c, 0, 82, 100
1, 36979, Note_off_c, 0, 82, 100
1, 36979, Note_on_c, 0, 82, 100
1, 37027, Note_off_c, 0, 82, 100
1, 37027, Note_on_c, 0, 80, 100
1, 37075, Note_off_c, 0, 80, 100
1, 37075, Note_on_c, 0, 78, 100
1, 37123, Note_off_c, 0, 78, 100
1, 37123, Note_on_c, 0, 77, 100
1, 37283, Note_off_c, 0, 77, 100
1, 37283, Note_on_c, 0, 75, 100
1, 37411, Note_off_c, 0, 75, 100
1, 37411, Note_on_c, 0, 77, 100
1, 37603, Note_off_c, 0, 77, 100
1, 37603, Note_on_c, 0, 73, 100
1, 37891, Note_off_c, 0, 73, 100
1, 37891, Note_on_c, 0, 70, 100
1, 38083, Note_off_c, 0, 70, 100
1, 38083, Note_on_c, 0, 68, 100
1, 38179, Note_off_c, 0, 68, 100
1, 38179, Note_on_c, 0, 65, 100
1, 38275, Note_off_c, 0, 65, 100
1, 38275, Note_on_c, 0, 63, 100
1, 38851, Note_off_c, 0, 63, 100
1, 39235, Note_on_c, 0, 66, 100
1, 39283, Note_off_c, 0, 66, 100
1, 39283, Note_on_c, 0, 68, 100
1, 39331, Note_off_c, 0, 68, 100
1, 39331, Note_on_c, 0, 69, 100
1, 39379, Note_off_c, 0, 69, 100
1, 39379, Note_on_c, 0, 74, 100
1, 39427, Note_off_c, 0, 74, 100
1, 39427, Note_on_c, 0, 73, 100
1, 39475, Note_off_c, 0, 73, 100
1, 39475, Note_on_c, 0, 78, 100
1, 39523, Note_off_c, 0, 78, 100
1, 39523, Note_on_c, 0, 75, 100
1, 39907, Note_off_c, 0, 75, 100
1, 39907, Note_on_c, 0, 71, 100
1, 39945, Note_off_c, 0, 71, 100
1, 39945, Note_on_c, 0, 73, 100
1, 39983, Note_off_c, 0, 73, 100
1, 39983, Note_on_c, 0, 74, 100
1, 40021, Note_off_c, 0, 74, 100
1, 40021, Note_on_c, 0, 73, 100
1, 40059, Note_off_c, 0, 73, 100
1, 40059, Note_on_c, 0, 71, 100
1, 40145, Note_off_c, 0, 71, 100
1, 40145, Note_on_c, 0, 64, 100
1, 40193, Note_off_c, 0, 64, 100
1, 40193, Note_on_c, 0, 69, 100
1, 40241, Note_off_c, 0, 69, 100
1, 40241, Note_on_c, 0, 71, 100
1, 40289, Note_off_c, 0, 71, 100
1, 40289, Note_on_c, 0, 73, 100
1, 40337, Note_off_c, 0, 73, 100
1, 40337, Note_on_c, 0, 69, 100
1, 40385, Note_off_c, 0, 69, 100
1, 40385, Note_on_c, 0, 66, 100
1, 40433, Note_off_c, 0, 66, 100
1, 40433, Note_on_c, 0, 65, 100
1, 40481, Note_off_c, 0, 65, 100
1, 40481, Note_on_c, 0, 70, 100
1, 40529, Note_off_c, 0, 70, 100
1, 40529, Note_on_c, 0, 72, 100
1, 40577, Note_off_c, 0, 72, 100
1, 40577, Note_on_c, 0, 74, 100
1, 40625, Note_off_c, 0, 74, 100
1, 40625, Note_on_c, 0, 79, 100
1, 40673, Note_off_c, 0, 79, 100
1, 40673, Note_on_c, 0, 77, 100
1, 40705, Note_off_c, 0, 77, 100
1, 40705, Note_on_c, 0, 74, 100
1, 40769, Note_off_c, 0, 74, 100
1, 40769, Note_on_c, 0, 72, 100
1, 40801, Note_off_c, 0, 72, 100
1, 40801, Note_on_c, 0, 70, 100
1, 40833, Note_off_c, 0, 70, 100
1, 40833, Note_on_c, 0, 76, 100
1, 40903, Note_off_c, 0, 76, 100
1, 40903, Note_on_c, 0, 72, 100
1, 40941, Note_off_c, 0, 72, 100
1, 40941, Note_on_c, 0, 74, 100
1, 40979, Note_off_c, 0, 74, 100
1, 40979, Note_on_c, 0, 70, 100
1, 41017, Note_off_c, 0, 70, 100
1, 41017, Note_on_c, 0, 67, 100
1, 41055, Note_off_c, 0, 67, 100
1, 41055, Note_on_c, 0, 72, 100
1, 41103, Note_off_c, 0, 72, 100
1, 41103, Note_on_c, 0, 71, 100
1, 41151, Note_off_c, 0, 71, 100
1, 41151, Note_on_c, 0, 65, 100
1, 41343, Note_off_c, 0, 65, 100
1, 42111, Note_on_c, 0, 75, 100
1, 42207, Note_off_c, 0, 75, 100
1, 42207, Note_on_c, 0, 78, 100
1, 42303, Note_off_c, 0, 78, 100
1, 42303, Note_on_c, 0, 80, 100
1, 42399, Note_off_c, 0, 80, 100
1, 42399, Note_on_c, 0, 77, 100
1, 42495, Note_off_c, 0, 77, 100
1, 42495, Note_on_c, 0, 75, 100
1, 42591, Note_off_c, 0, 75, 100
1, 42591, Note_on_c, 0, 76, 100
1, 42687, Note_off_c, 0, 76, 100
1, 42687, Note_on_c, 0, 71, 100
1, 42783, Note_off_c, 0, 71, 100
1, 42783, Note_on_c, 0, 73, 100
1, 42879, Note_off_c, 0, 73, 100
1, 42879, Note_on_c, 0, 71, 100
1, 42975, Note_off_c, 0, 71, 100
1, 42975, Note_on_c, 0, 68, 100
1, 43071, Note_off_c, 0, 68, 100
1, 43071, Note_on_c, 0, 66, 100
1, 43167, Note_off_c, 0, 66, 100
1, 43167, Note_on_c, 0, 63, 100
1, 43263, Note_off_c, 0, 63, 100
1, 43647, Note_on_c, 0, 72, 100
1, 43743, Note_off_c, 0, 72, 100
1, 43743, Note_on_c, 0, 82, 100
1, 43839, Note_off_c, 0, 82, 100
1, 44031, Note_on_c, 0, 79, 100
1, 44127, Note_off_c, 0, 79, 100
1, 44415, Note_on_c, 0, 77, 100
1, 44511, Note_off_c, 0, 77, 100
1, 44511, Note_on_c, 0, 75, 100
1, 44607, Note_off_c, 0, 75, 100
1, 44607, Note_on_c, 0, 72, 100
1, 44703, Note_off_c, 0, 72, 100
1, 44703, Note_on_c, 0, 70, 100
1, 44847, Note_off_c, 0, 70, 100
1, 44847, Note_on_c, 0, 69, 100
1, 44943, Note_off_c, 0, 69, 100
1, 44943, Note_on_c, 0, 70, 100
1, 45039, Note_off_c, 0, 70, 100
1, 45039, Note_on_c, 0, 73, 100
1, 45231, Note_off_c, 0, 73, 100
1, 45231, Note_on_c, 0, 78, 100
1, 45375, Note_off_c, 0, 78, 100
1, 45375, Note_on_c, 0, 80, 100
1, 45855, Note_off_c, 0, 80, 100
1, 46047, Note_on_c, 0, 83, 100
1, 46239, Note_off_c, 0, 83, 100
1, 46239, Note_on_c, 0, 80, 100
1, 46335, Note_off_c, 0, 80, 100
1, 46335, Note_on_c, 0, 78, 100
1, 46431, Note_off_c, 0, 78, 100
1, 46431, Note_on_c, 0, 76, 100
1, 46527, Note_off_c, 0, 76, 100
1, 46527, Note_on_c, 0, 80, 100
1, 46623, Note_off_c, 0, 80, 100
1, 46623, Note_on_c, 0, 82, 100
1, 46719, Note_off_c, 0, 82, 100
1, 47295, Note_on_c, 0, 77, 100
1, 47391, Note_off_c, 0, 77, 100
1, 47391, Note_on_c, 0, 75, 100
1, 47487, Note_off_c, 0, 75, 100
1, 47487, Note_on_c, 0, 70, 100
1, 47583, Note_off_c, 0, 70, 100
1, 47583, Note_on_c, 0, 80, 100
1, 47679, Note_off_c, 0, 80, 100
1, 47679, Note_on_c, 0, 77, 100
1, 47775, Note_off_c, 0, 77, 100
1, 47775, Note_on_c, 0, 75, 100
1, 47871, Note_off_c, 0, 75, 100
1, 47871, Note_on_c, 0, 70, 100
1, 47967, Note_off_c, 0, 70, 100
1, 47967, Note_on_c, 0, 77, 100
1, 48063, Note_off_c, 0, 77, 100
1, 48063, Note_on_c, 0, 75, 100
1, 48159, Note_off_c, 0, 75, 100
1, 48159, Note_on_c, 0, 70, 100
1, 48255, Note_off_c, 0, 70, 100
1, 48255, Note_on_c, 0, 65, 100
1, 48351, Note_off_c, 0, 65, 100
1, 48351, Note_on_c, 0, 75, 100
1, 48447, Note_off_c, 0, 75, 100
1, 48447, Note_on_c, 0, 70, 100
1, 48543, Note_off_c, 0, 70, 100
1, 48543, Note_on_c, 0, 65, 100
1, 48735, Note_off_c, 0, 65, 100
1, 48735, Note_on_c, 0, 70, 100
1, 48879, Note_off_c, 0, 70, 100
1, 48879, Note_on_c, 0, 65, 100
1, 48927, Note_off_c, 0, 65, 100
1, 48927, Note_on_c, 0, 63, 100
1, 49023, Note_off_c, 0, 63, 100
1, 49023, Note_on_c, 0, 58, 100
1, 49119, Note_off_c, 0, 58, 100
1, 49119, Note_on_c, 0, 65, 100
1, 49311, Note_off_c, 0, 65, 100
1, 49311, Note_on_c, 0, 63, 100
1, 49359, Note_off_c, 0, 63, 100
1, 49359, Note_on_c, 0, 65, 100
1, 49407, Note_off_c, 0, 65, 100
1, 49407, Note_on_c, 0, 68, 100
1, 49455, Note_off_c, 0, 68, 100
1, 49455, Note_on_c, 0, 70, 100
1, 49759, Note_off_c, 0, 70, 100
1, 49759, Note_on_c, 0, 68, 100
1, 49823, Note_off_c, 0, 68, 100
1, 49823, Note_on_c, 0, 64, 100
1, 49887, Note_off_c, 0, 64, 100
1, 49887, Note_on_c, 0, 67, 100
1, 49983, Note_off_c, 0, 67, 100
1, 49983, Note_on_c, 0, 68, 100
1, 50175, Note_off_c, 0, 68, 100
1, 50175, Note_on_c, 0, 65, 100
1, 51039, Note_off_c, 0, 65, 100
1, 51231, Note_on_c, 0, 75, 100
1, 51269, Note_off_c, 0, 75, 100
1, 51269, Note_on_c, 0, 77, 100
1, 51307, Note_off_c, 0, 77, 100
1, 51307, Note_on_c, 0, 78, 100
1, 51345, Note_off_c, 0, 78, 100
1, 51345, Note_on_c, 0, 80, 100
1, 51383, Note_off_c, 0, 80, 100
1, 51383, Note_on_c, 0, 77, 100
1, 51421, Note_off_c, 0, 77, 100
1, 51421, Note_on_c, 0, 75, 100
1, 51485, Note_off_c, 0, 75, 100
1, 51485, Note_on_c, 0, 73, 100
1, 51549, Note_off_c, 0, 73, 100
1, 51549, Note_on_c, 0, 70, 100
1, 51613, Note_off_c, 0, 70, 100
1, 51613, Note_on_c, 0, 68, 100
1, 51645, Note_off_c, 0, 68, 100
1, 51645, Note_on_c, 0, 65, 100
1, 51709, Note_off_c, 0, 65, 100
1, 51709, Note_on_c, 0, 70, 100
1, 51741, Note_off_c, 0, 70, 100
1, 51741, Note_on_c, 0, 75, 100
1, 51773, Note_off_c, 0, 75, 100
1, 51773, Note_on_c, 0, 73, 100
1, 51805, Note_off_c, 0, 73, 100
1, 51805, Note_on_c, 0, 70, 100
1, 51853, Note_off_c, 0, 70, 100
1, 51853, Note_on_c, 0, 68, 100
1, 51901, Note_off_c, 0, 68, 100
1, 51901, Note_on_c, 0, 73, 100
1, 51949, Note_off_c, 0, 73, 100
1, 51949, Note_on_c, 0, 70, 100
1, 52189, Note_off_c, 0, 70, 100
1, 52189, Note_on_c, 0, 69, 100
1, 52227, Note_off_c, 0, 69, 100
1, 52227, Note_on_c, 0, 70, 100
1, 52303, Note_off_c, 0, 70, 100
1, 52303, Note_on_c, 0, 68, 100
1, 52379, Note_off_c, 0, 68, 100
1, 52379, Note_on_c, 0, 65, 100
1, 52427, Note_off_c, 0, 65, 100
1, 52427, Note_on_c, 0, 63, 100
1, 52475, Note_off_c, 0, 63, 100
1, 52475, Note_on_c, 0, 61, 100
1, 52523, Note_off_c, 0, 61, 100
1, 52523, Note_on_c, 0, 58, 100
1, 52571, Note_off_c, 0, 58, 100
1, 52571, Note_on_c, 0, 56, 100
1, 52619, Note_off_c, 0, 56, 100
1, 52619, Note_on_c, 0, 58, 100
1, 52667, Note_off_c, 0, 58, 100
1, 52667, Note_on_c, 0, 56, 100
1, 52801, Note_off_c, 0, 56, 100
1, 52801, End_track
0, 0, End_of_file
