0, 0, Header, 1, 1, 192
1, 0, Start_track
1, 0, Title_t, "Melody"
1, 0, Tempo, 472440
1, 0, Key_signature, -1, "major"
1, 0, Time_signature, 4, 2, 24, 8
1, 384, Note_on_c, 0, 72, 100
1, 576, Note_off_c, 0, 72, 100
1, 576, Note_on_c, 0, 69, 100
1, 720, Note_off_c, 0, 69, 100
1, 720, Note_on_c, 0, 67, 100
1, 960, Note_off_c, 0, 67, 100
1, 960, Note_on_c, 0, 64, 100
1, 1104, Note_off_c, 0, 64, 100
1, 1104, Note_on_c, 0, 65, 100
1, 1152, Note_off_c, 0, 65, 100
1, 1152, Note_on_c, 0, 55, 100
1, 1344, Note_off_c, 0, 55, 100
1, 1344, Note_on_c, 0, 57, 100
1, 1536, Note_off_c, 0, 57, 100
1, 1920, Note_on_c, 0, 72, 100
1, 2064, Note_off_c, 0, 72, 100
1, 2064, Note_on_c, 0, 69, 100
1, 2208, Note_off_c, 0, 69, 100
1, 2208, Note_on_c, 0, 67, 100
1, 2688, Note_off_c, 0, 67, 100
1, 2688, Note_on_c, 0, 76, 100
1, 2880, Note_off_c, 0, 76, 100
1, 2880, Note_on_c, 0, 74, 100
1, 3008, Note_off_c, 0, 74, 100
1, 3008, Note_on_c, 0, 70, 100
1, 3456, Note_off_c, 0, 70, 100
1, 3456, Note_on_c, 0, 69, 100
1, 3648, Note_off_c, 0, 69, 100
1, 3648, Note_on_c, 0, 67, 100
1, 3776, Note_off_c, 0, 67, 100
1, 3776, Note_on_c, 0, 60, 100
1, 3968, Note_off_c, 0, 60, 100
1, 4272, Note_on_c, 0, 72, 100
1, 4320, Note_off_c, 0, 72, 100
1, 4320, Note_on_c, 0, 74, 100
1, 4368, Note_off_c, 0, 74, 100
1, 4368, Note_on_c, 0, 72, 100
1, 4512, Note_off_c, 0, 72, 100
1, 4512, Note_on_c, 0, 65, 100
1, 4656, Note_off_c, 0, 65, 100
1, 4656, Note_on_c, 0, 71, 100
1, 4704, Note_off_c, 0, 71, 100
1, 4704, Note_on_c, 0, 74, 100
1, 4800, Note_off_c, 0, 74, 100
1, 4800, Note_on_c, 0, 72, 100
1, 4896, Note_off_c, 0, 72, 100
1, 4896, Note_on_c, 0, 66, 100
1, 5040, Note_off_c, 0, 66, 100
1, 5040, Note_on_c, 0, 70, 100
1, 5088, Note_off_c, 0, 70, 100
1, 5088, Note_on_c, 0, 72, 100
1, 5136, Note_off_c, 0, 72, 100
1, 5136, Note_on_c, 0, 74, 100
1, 5184, Note_off_c, 0, 74, 100
1, 5184, Note_on_c, 0, 72, 100
1, 5280, Note_off_c, 0, 72, 100
1, 5280, Note_on_c, 0, 67, 100
1, 5472, Note_off_c, 0, 67, 100
1, 5472, Note_on_c, 0, 74, 100
1, 5568, Note_off_c, 0, 74, 100
1, 5568, Note_on_c, 0, 72, 100
1, 5712, Note_off_c, 0, 72, 100
1, 5712, Note_on_c, 0, 70, 100
1, 5760, Note_off_c, 0, 70, 100
1, 5760, Note_on_c, 0, 72, 100
1, 5952, Note_off_c, 0, 72, 100
1, 5952, Note_on_c, 0, 70, 100
1, 6096, Note_off_c, 0, 70, 100
1, 6096, Note_on_c, 0, 69, 100
1, 6240, Note_off_c, 0, 69, 100
1, 6240, Note_on_c, 0, 67, 100
1, 6336, Note_off_c, 0, 67, 100
1, 6336, Note_on_c, 0, 65, 100
1, 6432, Note_off_c, 0, 65, 100
1, 6432, Note_on_c, 0, 63, 100
1, 6720, Note_off_c, 0, 63, 100
1, 6720, Note_on_c, 0, 61, 100
1, 6816, Note_off_c, 0, 61, 100
1, 6816, Note_on_c, 0, 64, 100
1, 7104, Note_off_c, 0, 64, 100
1, 7552, Note_on_c, 0, 72, 100
1, 7616, Note_off_c, 0, 72, 100
1, 7616, Note_on_c, 0, 70, 100
1, 7680, Note_off_c, 0, 70, 100
1, 7680, Note_on_c, 0, 69, 100
1, 7968, Note_off_c, 0, 69, 100
1, 7968, Note_on_c, 0, 67, 100
1, 8016, Note_off_c, 0, 67, 100
1, 8016, Note_on_c, 0, 65, 100
1, 8064, Note_off_c, 0, 65, 100
1, 8064, Note_on_c, 0, 63, 100
1, 8256, Note_off_c, 0, 63, 100
1, 8256, Note_on_c, 0, 61, 100
1, 8352, Note_off_c, 0, 61, 100
1, 8352, Note_on_c, 0, 64, 100
1, 8640, Note_off_c, 0, 64, 100
1, 8640, Note_on_c, 0, 61, 100
1, 8736, Note_off_c, 0, 61, 100
1, 8736, Note_on_c, 0, 57, 100
1, 9120, Note_off_c, 0, 57, 100
1, 9120, Note_on_c, 0, 69, 100
1, 9216, Note_off_c, 0, 69, 100
1, 9216, Note_on_c, 0, 66, 100
1, 9312, Note_off_c, 0, 66, 100
1, 9312, Note_on_c, 0, 62, 100
1, 9504, Note_off_c, 0, 62, 100
1, 9744, Note_on_c, 0, 76, 100
1, 9792, Note_off_c, 0, 76, 100
1, 9792, Note_on_c, 0, 73, 100
1, 9888, Note_off_c, 0, 73, 100
1, 9888, Note_on_c, 0, 69, 100
1, 10272, Note_off_c, 0, 69, 100
1, 10272, Note_on_c, 0, 72, 100
1, 10320, Note_off_c, 0, 72, 100
1, 10320, Note_on_c, 0, 69, 100
1, 10368, Note_off_c, 0, 69, 100
1, 10368, Note_on_c, 0, 65, 100
1, 10560, Note_off_c, 0, 65, 100
1, 10560, Note_on_c, 0, 74, 100
1, 10624, Note_off_c, 0, 74, 100
1, 10624, Note_on_c, 0, 69, 100
1, 10688, Note_off_c, 0, 69, 100
1, 10688, Note_on_c, 0, 65, 100
1, 10880, Note_off_c, 0, 65, 100
1, 11136, Note_on_c, 0, 70, 100
1, 11184, Note_off_c, 0, 70, 100
1, 11184, Note_on_c, 0, 72, 100
1, 11232, Note_off_c, 0, 72, 100
1, 11232, Note_on_c, 0, 69, 100
1, 11280, Note_off_c, 0, 69, 100
1, 11280, Note_on_c, 0, 67, 100
1, 11328, Note_off_c, 0, 67, 100
1, 11328, Note_on_c, 0, 66, 100
1, 11376, Note_off_c, 0, 66, 100
1, 11376, Note_on_c, 0, 63, 100
1, 11424, Note_off_c, 0, 63, 100
1, 11424, Note_on_c, 0, 62, 100
1, 11472, Note_off_c, 0, 62, 100
1, 11472, Note_on_c, 0, 60, 100
1, 11520, Note_off_c, 0, 60, 100
1, 11520, Note_on_c, 0, 58, 100
1, 11616, Note_off_c, 0, 58, 100
1, 11616, Note_on_c, 0, 56, 100
1, 11664, Note_off_c, 0, 56, 100
1, 11664, Note_on_c, 0, 57, 100
1, 11712, Note_off_c, 0, 57, 100
1, 11712, Note_on_c, 0, 56, 100
1, 11760, Note_off_c, 0, 56, 100
1, 11760, Note_on_c, 0, 55, 100
1, 11808, Note_off_c, 0, 55, 100
1, 11808, Note_on_c, 0, 58, 100
1, 11856, Note_off_c, 0, 58, 100
1, 11856, Note_on_c, 0, 62, 100
1, 11904, Note_off_c, 0, 62, 100
1, 11904, Note_on_c, 0, 65, 100
1, 11942, Note_off_c, 0, 65, 100
1, 11942, Note_on_c, 0, 69, 100
1, 11980, Note_off_c, 0, 69, 100
1, 11980, Note_on_c, 0, 67, 100
1, 12018, Note_off_c, 0, 67, 100
1, 12018, Note_on_c, 0, 65, 100
1, 12056, Note_off_c, 0, 65, 100
1, 12056, Note_on_c, 0, 62, 100
1, 12094, Note_off_c, 0, 62, 100
1, 12094, Note_on_c, 0, 65, 100
1, 12142, Note_off_c, 0, 65, 100
1, 12142, Note_on_c, 0, 64, 100
1, 12238, Note_off_c, 0, 64, 100
1, 12238, Note_on_c, 0, 73, 100
1, 12286, Note_off_c, 0, 73, 100
1, 12286, Note_on_c, 0, 72, 100
1, 12382, Note_off_c, 0, 72, 100
1, 12382, Note_on_c, 0, 61, 100
1, 12430, Note_off_c, 0, 61, 100
1, 12430, Note_on_c, 0, 70, 100
1, 12526, Note_off_c, 0, 70, 100
1, 12526, Note_on_c, 0, 69, 100
1, 12574, Note_off_c, 0, 69, 100
1, 12574, Note_on_c, 0, 58, 100
1, 12622, Note_off_c, 0, 58, 100
1, 12622, Note_on_c, 0, 61, 100
1, 12670, Note_off_c, 0, 61, 100
1, 12670, Note_on_c, 0, 65, 100
1, 12766, Note_off_c, 0, 65, 100
1, 12766, Note_on_c, 0, 61, 100
1, 12862, Note_off_c, 0, 61, 100
1, 12862, Note_on_c, 0, 60, 100
1, 12958, Note_off_c, 0, 60, 100
1, 13310, Note_on_c, 0, 57, 100
1, 13374, Note_off_c, 0, 57, 100
1, 13374, Note_on_c, 0, 58, 100
1, 13438, Note_off_c, 0, 58, 100
1, 13438, Note_on_c, 0, 70, 100
1, 13726, Note_off_c, 0, 70, 100
1, 13726, Note_on_c, 0, 69, 100
1, 13870, Note_off_c, 0, 69, 100
1, 13870, Note_on_c, 0, 63, 100
1, 14110, Note_off_c, 0, 63, 100
1, 14110, Note_on_c, 0, 62, 100
1, 14206, Note_off_c, 0, 62, 100
1, 14206, Note_on_c, 0, 61, 100
1, 14302, Note_off_c, 0, 61, 100
1, 14302, Note_on_c, 0, 70, 100
1, 14446, Note_off_c, 0, 70, 100
1, 14446, Note_on_c, 0, 70, 100
1, 14470, Note_off_c, 0, 70, 100
1, 14470, Note_on_c, 0, 71, 100
1, 14494, Note_off_c, 0, 71, 100
1, 14494, Note_on_c, 0, 69, 100
1, 14518, Note_off_c, 0, 69, 100
1, 14518, Note_on_c, 0, 68, 100
1, 14566, Note_off_c, 0, 68, 100
1, 14566, Note_on_c, 0, 67, 100
1, 14638, Note_off_c, 0, 67, 100
1, 14638, Note_on_c, 0, 65, 100
1, 14734, Note_off_c, 0, 65, 100
1, 14734, Note_on_c, 0, 62, 100
1, 14854, Note_off_c, 0, 62, 100
1, 14854, Note_on_c, 0, 68, 100
1, 14878, Note_off_c, 0, 68, 100
1, 14878, Note_on_c, 0, 69, 100
1, 14902, Note_off_c, 0, 69, 100
1, 14902, Note_on_c, 0, 68, 100
1, 14926, Note_off_c, 0, 68, 100
1, 14926, Note_on_c, 0, 67, 100
1, 14950, Note_off_c, 0, 67, 100
1, 14950, Note_on_c, 0, 65, 100
1, 14974, Note_off_c, 0, 65, 100
1, 14974, Note_on_c, 0, 63, 100
1, 15070, Note_off_c, 0, 63, 100
1, 15070, Note_on_c, 0, 60, 100
1, 15230, Note_off_c, 0, 60, 100
1, 15230, Note_on_c, 0, 66, 100
1, 15294, Note_off_c, 0, 66, 100
1, 15294, Note_on_c, 0, 63, 100
1, 15358, Note_off_c, 0, 63, 100
1, 15358, Note_on_c, 0, 62, 100
1, 15454, Note_off_c, 0, 62, 100
1, 15454, Note_on_c, 0, 58, 100
1, 15550, Note_off_c, 0, 58, 100
1, 15550, Note_on_c, 0, 53, 100
1, 15646, Note_off_c, 0, 53, 100
1, 15646, Note_on_c, 0, 51, 100
1, 15886, Note_off_c, 0, 51, 100
1, 15886, Note_on_c, 0, 58, 100
1, 15982, Note_off_c, 0, 58, 100
1, 16222, Note_on_c, 0, 57, 100
1, 16318, Note_off_c, 0, 57, 100
1, 16318, Note_on_c, 0, 59, 100
1, 16356, Note_off_c, 0, 59, 100
1, 16356, Note_on_c, 0, 61, 100
1, 16394, Note_off_c, 0, 61, 100
1, 16394, Note_on_c, 0, 64, 100
1, 16432, Note_off_c, 0, 64, 100
1, 16432, Note_on_c, 0, 69, 100
1, 16508, Note_off_c, 0, 69, 100
1, 16508, Note_on_c, 0, 67, 100
1, 16556, Note_off_c, 0, 67, 100
1, 16556, Note_on_c, 0, 65, 100
1, 16604, Note_off_c, 0, 65, 100
1, 16604, Note_on_c, 0, 61, 100
1, 16652, Note_off_c, 0, 61, 100
1, 16652, Note_on_c, 0, 64, 100
1, 16700, Note_off_c, 0, 64, 100
1, 16700, Note_on_c, 0, 63, 100
1, 16748, Note_off_c, 0, 63, 100
1, 16748, Note_on_c, 0, 62, 100
1, 16796, Note_off_c, 0, 62, 100
1, 16796, Note_on_c, 0, 57, 100
1, 16844, Note_off_c, 0, 57, 100
1, 16844, Note_on_c, 0, 53, 100
1, 16892, Note_off_c, 0, 53, 100
1, 16892, Note_on_c, 0, 51, 100
1, 16940, Note_off_c, 0, 51, 100
1, 16940, Note_on_c, 0, 59, 100
1, 17036, Note_off_c, 0, 59, 100
1, 17036, Note_on_c, 0, 62, 100
1, 17084, Note_off_c, 0, 62, 100
1, 17084, Note_on_c, 0, 65, 100
1, 17180, Note_off_c, 0, 65, 100
1, 17180, Note_on_c, 0, 67, 100
1, 17276, Note_off_c, 0, 67, 100
1, 17276, Note_on_c, 0, 76, 100
1, 17372, Note_off_c, 0, 76, 100
1, 17372, Note_on_c, 0, 73, 100
1, 17468, Note_off_c, 0, 73, 100
1, 17468, Note_on_c, 0, 69, 100
1, 17564, Note_off_c, 0, 69, 100
1, 17564, Note_on_c, 0, 65, 100
1, 17660, Note_off_c, 0, 65, 100
1, 17660, Note_on_c, 0, 67, 100
1, 17756, Note_off_c, 0, 67, 100
1, 17756, Note_on_c, 0, 62, 100
1, 17852, Note_off_c, 0, 62, 100
1, 18236, Note_on_c, 0, 69, 100
1, 18300, Note_off_c, 0, 69, 100
1, 18300, Note_on_c, 0, 72, 100
1, 18364, Note_off_c, 0, 72, 100
1, 18364, Note_on_c, 0, 70, 100
1, 18428, Note_off_c, 0, 70, 100
1, 18428, Note_on_c, 0, 69, 100
1, 18524, Note_off_c, 0, 69, 100
1, 18524, Note_on_c, 0, 69, 100
1, 18620, Note_off_c, 0, 69, 100
1, 19148, Note_on_c, 0, 69, 100
1, 19260, Note_off_c, 0, 69, 100
1, 19260, Note_on_c, 0, 74, 100
1, 19388, Note_off_c, 0, 74, 100
1, 19388, Note_on_c, 0, 68, 100
1, 19436, Note_off_c, 0, 68, 100
1, 19436, Note_on_c, 0, 67, 100
1, 19532, Note_off_c, 0, 67, 100
1, 19532, Note_on_c, 0, 62, 100
1, 19580, Note_off_c, 0, 62, 100
1, 19580, Note_on_c, 0, 65, 100
1, 19676, Note_off_c, 0, 65, 100
1, 19676, Note_on_c, 0, 65, 100
1, 19772, Note_off_c, 0, 65, 100
1, 19772, Note_on_c, 0, 65, 100
1, 19820, Note_off_c, 0, 65, 100
1, 19820, Note_on_c, 0, 62, 100
1, 19916, Note_off_c, 0, 62, 100
1, 20156, Note_on_c, 0, 68, 100
1, 20204, Note_off_c, 0, 68, 100
1, 20204, Note_on_c, 0, 69, 100
1, 20252, Note_off_c, 0, 69, 100
1, 20252, Note_on_c, 0, 70, 100
1, 20300, Note_off_c, 0, 70, 100
1, 20300, Note_on_c, 0, 68, 100
1, 20348, Note_off_c, 0, 68, 100
1, 20348, Note_on_c, 0, 69, 100
1, 20412, Note_off_c, 0, 69, 100
1, 20412, Note_on_c, 0, 68, 100
1, 20476, Note_off_c, 0, 68, 100
1, 20476, Note_on_c, 0, 67, 100
1, 20540, Note_off_c, 0, 67, 100
1, 20540, Note_on_c, 0, 65, 100
1, 20578, Note_off_c, 0, 65, 100
1, 20578, Note_on_c, 0, 64, 100
1, 20616, Note_off_c, 0, 64, 100
1, 20616, Note_on_c, 0, 62, 100
1, 20654, Note_off_c, 0, 62, 100
1, 20654, Note_on_c, 0, 61, 100
1, 20730, Note_off_c, 0, 61, 100
1, 20730, Note_on_c, 0, 59, 100
1, 20768, Note_off_c, 0, 59, 100
1, 20768, Note_on_c, 0, 62, 100
1, 20806, Note_off_c, 0, 62, 100
1, 20806, Note_on_c, 0, 65, 100
1, 20844, Note_off_c, 0, 65, 100
1, 20844, Note_on_c, 0, 64, 100
1, 20882, Note_off_c, 0, 64, 100
1, 20882, Note_on_c, 0, 62, 100
1, 20944, Note_off_c, 0, 62, 100
1, 20944, Note_on_c, 0, 67, 100
1, 20992, Note_off_c, 0, 67, 100
1, 20992, Note_on_c, 0, 64, 100
1, 21040, Note_off_c, 0, 64, 100
1, 21040, Note_on_c, 0, 65, 100
1, 21064, Note_off_c, 0, 65, 100
1, 21064, Note_on_c, 0, 66, 100
1, 21088, Note_off_c, 0, 66, 100
1, 21088, Note_on_c, 0, 65, 100
1, 21112, Note_off_c, 0, 65, 100
1, 21112, Note_on_c, 0, 64, 100
1, 21160, Note_off_c, 0, 64, 100
1, 21160, Note_on_c, 0, 62, 100
1, 21208, Note_off_c, 0, 62, 100
1, 21208, Note_on_c, 0, 61, 100
1, 21256, Note_off_c, 0, 61, 100
1, 21256, Note_on_c, 0, 64, 100
1, 21304, Note_off_c, 0, 64, 100
1, 21304, Note_on_c, 0, 62, 100
1, 21352, Note_off_c, 0, 62, 100
1, 21352, Note_on_c, 0, 65, 100
1, 21400, Note_off_c, 0, 65, 100
1, 21400, Note_on_c, 0, 64, 100
1, 21496, Note_off_c, 0, 64, 100
1, 21496, Note_on_c, 0, 67, 100
1, 21544, Note_off_c, 0, 67, 100
1, 21544, Note_on_c, 0, 69, 100
1, 21592, Note_off_c, 0, 69, 100
1, 21592, Note_on_c, 0, 70, 100
1, 21640, Note_off_c, 0, 70, 100
1, 21640, Note_on_c, 0, 72, 100
1, 21688, Note_off_c, 0, 72, 100
1, 21688, Note_on_c, 0, 69, 100
1, 21736, Note_off_c, 0, 69, 100
1, 21736, Note_on_c, 0, 65, 100
1, 21784, Note_off_c, 0, 65, 100
1, 21784, Note_on_c, 0, 62, 100
1, 21832, Note_off_c, 0, 62, 100
1, 21832, Note_on_c, 0, 58, 100
1, 21880, Note_off_c, 0, 58, 100
1, 21880, Note_on_c, 0, 64, 100
1, 21976, Note_off_c, 0, 64, 100
1, 21976, Note_on_c, 0, 65, 100
1, 22072, Note_off_c, 0, 65, 100
1, 22072, Note_on_c, 0, 66, 100
1, 22168, Note_off_c, 0, 66, 100
1, 22168, Note_on_c, 0, 67, 100
1, 22264, Note_off_c, 0, 67, 100
1, 22264, Note_on_c, 0, 62, 100
1, 22360, Note_off_c, 0, 62, 100
1, 22360, Note_on_c, 0, 63, 100
1, 22520, Note_off_c, 0, 63, 100
1, 22520, Note_on_c, 0, 56, 100
1, 22584, Note_off_c, 0, 56, 100
1, 22584, Note_on_c, 0, 57, 100
1, 22648, Note_off_c, 0, 57, 100
1, 22648, Note_on_c, 0, 68, 100
1, 22696, Note_off_c, 0, 68, 100
1, 22696, Note_on_c, 0, 66, 100
1, 22744, Note_off_c, 0, 66, 100
1, 22744, Note_on_c, 0, 61, 100
1, 22792, Note_off_c, 0, 61, 100
1, 22792, Note_on_c, 0, 69, 100
1, 22872, Note_off_c, 0, 69, 100
1, 22872, Note_on_c, 0, 68, 100
1, 22936, Note_off_c, 0, 68, 100
1, 22936, Note_on_c, 0, 66, 100
1, 22968, Note_off_c, 0, 66, 100
1, 22968, Note_on_c, 0, 65, 100
1, 23000, Note_off_c, 0, 65, 100
1, 23000, Note_on_c, 0, 63, 100
1, 23032, Note_off_c, 0, 63, 100
1, 23032, Note_on_c, 0, 62, 100
1, 23128, Note_off_c, 0, 62, 100
1, 24088, Note_on_c, 0, 72, 100
1, 24136, Note_off_c, 0, 72, 100
1, 24136, Note_on_c, 0, 70, 100
1, 24184, Note_off_c, 0, 70, 100
1, 24184, Note_on_c, 0, 75, 100
1, 24232, Note_off_c, 0, 75, 100
1, 24232, Note_on_c, 0, 73, 100
1, 24280, Note_off_c, 0, 73, 100
1, 24280, Note_on_c, 0, 69, 100
1, 24328, Note_off_c, 0, 69, 100
1, 24328, Note_on_c, 0, 64, 100
1, 24376, Note_off_c, 0, 64, 100
1, 24376, Note_on_c, 0, 63, 100
1, 24424, Note_off_c, 0, 63, 100
1, 24424, Note_on_c, 0, 61, 100
1, 24472, Note_off_c, 0, 61, 100
1, 24472, Note_on_c, 0, 60, 100
1, 24520, Note_off_c, 0, 60, 100
1, 24520, Note_on_c, 0, 58, 100
1, 24568, Note_off_c, 0, 58, 100
1, 24568, Note_on_c, 0, 57, 100
1, 24664, Note_off_c, 0, 57, 100
1, 25864, Note_on_c, 0, 65, 100
1, 25950, Note_off_c, 0, 65, 100
1, 25950, Note_on_c, 0, 67, 100
1, 25988, Note_off_c, 0, 67, 100
1, 25988, Note_on_c, 0, 69, 100
1, 26026, Note_off_c, 0, 69, 100
1, 26026, Note_on_c, 0, 73, 100
1, 26064, Note_off_c, 0, 73, 100
1, 26064, Note_on_c, 0, 74, 100
1, 26150, Note_off_c, 0, 74, 100
1, 26150, Note_on_c, 0, 72, 100
1, 26294, Note_off_c, 0, 72, 100
1, 26294, Note_on_c, 0, 77, 100
1, 26486, Note_off_c, 0, 77, 100
1, 26486, Note_on_c, 0, 74, 100
1, 26582, Note_off_c, 0, 74, 100
1, 26582, Note_on_c, 0, 70, 100
1, 26716, Note_off_c, 0, 70, 100
1, 26716, Note_on_c, 0, 69, 100
1, 26754, Note_off_c, 0, 69, 100
1, 26754, Note_on_c, 0, 70, 100
1, 26792, Note_off_c, 0, 70, 100
1, 26792, Note_on_c, 0, 69, 100
1, 26830, Note_off_c, 0, 69, 100
1, 26830, Note_on_c, 0, 67, 100
1, 26868, Note_off_c, 0, 67, 100
1, 26868, Note_on_c, 0, 72, 100
1, 26964, Note_off_c, 0, 72, 100
1, 26964, Note_on_c, 0, 69, 100
1, 27108, Note_off_c, 0, 69, 100
1, 27108, Note_on_c, 0, 67, 100
1, 27204, Note_off_c, 0, 67, 100
1, 27204, Note_on_c, 0, 65, 100
1, 27252, Note_off_c, 0, 65, 100
1, 27252, Note_on_c, 0, 64, 100
1, 27348, Note_off_c, 0, 64, 100
1, 27348, Note_on_c, 0, 62, 100
1, 27444, Note_off_c, 0, 62, 100
1, 27444, Note_on_c, 0, 59, 100
1, 27540, Note_off_c, 0, 59, 100
1, 27540, Note_on_c, 0, 61, 100
1, 27588, Note_off_c, 0, 61, 100
1, 27588, Note_on_c, 0, 62, 100
1, 27684, Note_off_c, 0, 62, 100
1, 27684, Note_on_c, 0, 61, 100
1, 27780, Note_off_c, 0, 61, 100
1, 27780, Note_on_c, 0, 64, 100
1, 27828, Note_off_c, 0, 64, 100
1, 27828, Note_on_c, 0, 67, 100
1, 27924, Note_off_c, 0, 67, 100
1, 27924, Note_on_c, 0, 69, 100
1, 28084, Note_off_c, 0, 69, 100
1, 28084, Note_on_c, 0, 70, 100
1, 28212, Note_off_c, 0, 70, 100
1, 28212, Note_on_c, 0, 69, 100
1, 28356, Note_off_c, 0, 69, 100
1, 28356, Note_on_c, 0, 65, 100
1, 28452, Note_off_c, 0, 65, 100
1, 28980, Note_on_c, 0, 67, 100
1, 29028, Note_off_c, 0, 67, 100
1, 29028, Note_on_c, 0, 65, 100
1, 29076, Note_off_c, 0, 65, 100
1, 29076, Note_on_c, 0, 64, 100
1, 29124, Note_off_c, 0, 64, 100
1, 29124, Note_on_c, 0, 62, 100
1, 29172, Note_off_c, 0, 62, 100
1, 29172, Note_on_c, 0, 61, 100
1, 29268, Note_off_c, 0, 61, 100
1, 29268, Note_on_c, 0, 61, 100
1, 29316, Note_off_c, 0, 61, 100
1, 29316, Note_on_c, 0, 64, 100
1, 29412, Note_off_c, 0, 64, 100
1, 29412, Note_on_c, 0, 67, 100
1, 29508, Note_off_c, 0, 67, 100
1, 29508, Note_on_c, 0, 69, 100
1, 29604, Note_off_c, 0, 69, 100
1, 29604, Note_on_c, 0, 70, 100
1, 29700, Note_off_c, 0, 70, 100
1, 29700, Note_on_c, 0, 69, 100
1, 29796, Note_off_c, 0, 69, 100
1, 29796, Note_on_c, 0, 68, 100
1, 29892, Note_off_c, 0, 68, 100
1, 29892, Note_on_c, 0, 69, 100
1, 29940, Note_off_c, 0, 69, 100
1, 29940, Note_on_c, 0, 76, 100
1, 30036, Note_off_c, 0, 76, 100
1, 30036, Note_on_c, 0, 77, 100
1, 30180, Note_off_c, 0, 77, 100
1, 30180, Note_on_c, 0, 73, 100
1, 30276, Note_off_c, 0, 73, 100
1, 30276, Note_on_c, 0, 76, 100
1, 30372, Note_off_c, 0, 76, 100
1, 30372, Note_on_c, 0, 75, 100
1, 30468, Note_off_c, 0, 75, 100
1, 30468, Note_on_c, 0, 69, 100
1, 30564, Note_off_c, 0, 69, 100
1, 30564, Note_on_c, 0, 67, 100
1, 30660, Note_off_c, 0, 67, 100
1, 30660, Note_on_c, 0, 65, 100
1, 30708, Note_off_c, 0, 65, 100
1, 30708, Note_on_c, 0, 69, 100
1, 30900, Note_off_c, 0, 69, 100
1, 30900, Note_on_c, 0, 62, 100
1, 30996, Note_off_c, 0, 62, 100
1, 30996, Note_on_c, 0, 67, 100
1, 31092, Note_off_c, 0, 67, 100
1, 31540, Note_on_c, 0, 74, 100
1, 31604, Note_off_c, 0, 74, 100
1, 31604, Note_on_c, 0, 72, 100
1, 31668, Note_off_c, 0, 72, 100
1, 31668, Note_on_c, 0, 70, 100
1, 31706, Note_off_c, 0, 70, 100
1, 31706, Note_on_c, 0, 69, 100
1, 31744, Note_off_c, 0, 69, 100
1, 31744, Note_on_c, 0, 67, 100
1, 31782, Note_off_c, 0, 67, 100
1, 31782, Note_on_c, 0, 65, 100
1, 31820, Note_off_c, 0, 65, 100
1, 31820, Note_on_c, 0, 64, 100
1, 31858, Note_off_c, 0, 64, 100
1, 31858, Note_on_c, 0, 63, 100
1, 31934, Note_off_c, 0, 63, 100
1, 31934, Note_on_c, 0, 67, 100
1, 31972, Note_off_c, 0, 67, 100
1, 31972, Note_on_c, 0, 62, 100
1, 32010, Note_off_c, 0, 62, 100
1, 32010, Note_on_c, 0, 60, 100
1, 32086, Note_off_c, 0, 60, 100
1, 32086, Note_on_c, 0, 65, 100
1, 32124, Note_off_c, 0, 65, 100
1, 32124, Note_on_c, 0, 62, 100
1, 32162, Note_off_c, 0, 62, 100
1, 32162, Note_on_c, 0, 57, 100
1, 32200, Note_off_c, 0, 57, 100
1, 32200, Note_on_c, 0, 55, 100
1, 32276, Note_off_c, 0, 55, 100
1, 32276, Note_on_c, 0, 58, 100
1, 32314, Note_off_c, 0, 58, 100
1, 32314, Note_on_c, 0, 60, 100
1, 32352, Note_off_c, 0, 60, 100
1, 32352, Note_on_c, 0, 62, 100
1, 32390, Note_off_c, 0, 62, 100
1, 32390, Note_on_c, 0, 65, 100
1, 32428, Note_off_c, 0, 65, 100
1, 32428, Note_on_c, 0, 72, 100
1, 32524, Note_off_c, 0, 72, 100
1, 32524, Note_on_c, 0, 69, 100
1, 32620, Note_off_c, 0, 69, 100
1, 32620, Note_on_c, 0, 67, 100
1, 32668, Note_off_c, 0, 67, 100
1, 32668, Note_on_c, 0, 64, 100
1, 32716, Note_off_c, 0, 64, 100
1, 32716, Note_on_c, 0, 67, 100
1, 32764, Note_off_c, 0, 67, 100
1, 32764, Note_on_c, 0, 66, 100
1, 32812, Note_off_c, 0, 66, 100
1, 32812, Note_on_c, 0, 70, 100
1, 32850, Note_off_c, 0, 70, 100
1, 32850, Note_on_c, 0, 65, 100
1, 32888, Note_off_c, 0, 65, 100
1, 32888, Note_on_c, 0, 63, 100
1, 32926, Note_off_c, 0, 63, 100
1, 32926, Note_on_c, 0, 58, 100
1, 32964, Note_off_c, 0, 58, 100
1, 32964, Note_on_c, 0, 60, 100
1, 33002, Note_off_c, 0, 60, 100
1, 33002, Note_on_c, 0, 62, 100
1, 33050, Note_off_c, 0, 62, 100
1, 33050, Note_on_c, 0, 58, 100
1, 33098, Note_off_c, 0, 58, 100
1, 33098, Note_on_c, 0, 57, 100
1, 33146, Note_off_c, 0, 57, 100
1, 33146, Note_on_c, 0, 55, 100
1, 33194, Note_off_c, 0, 55, 100
1, 33194, Note_on_c, 0, 60, 100
1, 33242, Note_off_c, 0, 60, 100
1, 33242, Note_on_c, 0, 59, 100
1, 33290, Note_off_c, 0, 59, 100
1, 33290, Note_on_c, 0, 58, 100
1, 33338, Note_off_c, 0, 58, 100
1, 33338, Note_on_c, 0, 57, 100
1, 33386, Note_off_c, 0, 57, 100
1, 33386, Note_on_c, 0, 55, 100
1, 33434, Note_off_c, 0, 55, 100
1, 33434, Note_on_c, 0, 57, 100
1, 33482, Note_off_c, 0, 57, 100
1, 33482, Note_on_c, 0, 58, 100
1, 33530, Note_off_c, 0, 58, 100
1, 33530, Note_on_c, 0, 60, 100
1, 33578, Note_off_c, 0, 60, 100
1, 33578, Note_on_c, 0, 57, 100
1, 33642, Note_off_c, 0, 57, 100
1, 33642, Note_on_c, 0, 55, 100
1, 33706, Note_off_c, 0, 55, 100
1, 33706, Note_on_c, 0, 50, 100
1, 33770, Note_off_c, 0, 50, 100
1, 33770, Note_on_c, 0, 54, 100
1, 33962, Note_off_c, 0, 54, 100
1, 33962, Note_on_c, 0, 52, 100
1, 34058, Note_off_c, 0, 52, 100
1, 34058, Note_on_c, 0, 51, 100
1, 34106, Note_off_c, 0, 51, 100
1, 34106, Note_on_c, 0, 49, 100
1, 34202, Note_off_c, 0, 49, 100
1, 34202, Note_on_c, 0, 52, 100
1, 34250, Note_off_c, 0, 52, 100
1, 34250, Note_on_c, 0, 60, 100
1, 34298, Note_off_c, 0, 60, 100
1, 34298, Note_on_c, 0, 58, 100
1, 34394, Note_off_c, 0, 58, 100
1, 34634, Note_on_c, 0, 57, 100
1, 34682, Note_off_c, 0, 57, 100
1, 34682, Note_on_c, 0, 59, 100
1, 34730, Note_off_c, 0, 59, 100
1, 34730, Note_on_c, 0, 61, 100
1, 34778, Note_off_c, 0, 61, 100
1, 34778, Note_on_c, 0, 62, 100
1, 34826, Note_off_c, 0, 62, 100
1, 34826, Note_on_c, 0, 64, 100
1, 34874, Note_off_c, 0, 64, 100
1, 34874, Note_on_c, 0, 67, 100
1, 34922, Note_off_c, 0, 67, 100
1, 34922, Note_on_c, 0, 68, 100
1, 34986, Note_off_c, 0, 68, 100
1, 34986, Note_on_c, 0, 69, 100
1, 35050, Note_off_c, 0, 69, 100
1, 35050, Note_on_c, 0, 70, 100
1, 35114, Note_off_c, 0, 70, 100
1, 35114, Note_on_c, 0, 68, 100
1, 35141, Note_off_c, 0, 68, 100
1, 35141, Note_on_c, 0, 69, 100
1, 35195, Note_off_c, 0, 69, 100
1, 35195, Note_on_c, 0, 65, 100
1, 35222, Note_off_c, 0, 65, 100
1, 35222, Note_on_c, 0, 64, 100
1, 35276, Note_off_c, 0, 64, 100
1, 35276, Note_on_c, 0, 62, 100
1, 35303, Note_off_c, 0, 62, 100
1, 35303, Note_on_c, 0, 67, 100
1, 35399, Note_off_c, 0, 67, 100
1, 35591, Note_on_c, 0, 72, 100
1, 35639, Note_off_c, 0, 72, 100
1, 35639, Note_on_c, 0, 70, 100
1, 35687, Note_off_c, 0, 70, 100
1, 35687, Note_on_c, 0, 75, 100
1, 35735, Note_off_c, 0, 75, 100
1, 35735, Note_on_c, 0, 73, 100
1, 35783, Note_off_c, 0, 73, 100
1, 35783, Note_on_c, 0, 69, 100
1, 35831, Note_off_c, 0, 69, 100
1, 35831, Note_on_c, 0, 67, 100
1, 35879, Note_off_c, 0, 67, 100
1, 35879, Note_on_c, 0, 72, 100
1, 35975, Note_off_c, 0, 72, 100
1, 35975, Note_on_c, 0, 72, 100
1, 36023, Note_off_c, 0, 72, 100
1, 36023, Note_on_c, 0, 70, 100
1, 36071, Note_off_c, 0, 70, 100
1, 36071, Note_on_c, 0, 69, 100
1, 36119, Note_off_c, 0, 69, 100
1, 36119, Note_on_c, 0, 65, 100
1, 36167, Note_off_c, 0, 65, 100
1, 36167, Note_on_c, 0, 64, 100
1, 36263, Note_off_c, 0, 64, 100
1, 36263, Note_on_c, 0, 63, 100
1, 36301, Note_off_c, 0, 63, 100
1, 36301, Note_on_c, 0, 67, 100
1, 36339, Note_off_c, 0, 67, 100
1, 36339, Note_on_c, 0, 65, 100
1, 36377, Note_off_c, 0, 65, 100
1, 36377, Note_on_c, 0, 61, 100
1, 36415, Note_off_c, 0, 61, 100
1, 36415, Note_on_c, 0, 58, 100
1, 36453, Note_off_c, 0, 58, 100
1, 36453, Note_on_c, 0, 64, 100
1, 36501, Note_off_c, 0, 64, 100
1, 36501, Note_on_c, 0, 62, 100
1, 36549, Note_off_c, 0, 62, 100
1, 36549, Note_on_c, 0, 57, 100
1, 36597, Note_off_c, 0, 57, 100
1, 36597, Note_on_c, 0, 55, 100
1, 36645, Note_off_c, 0, 55, 100
1, 36645, Note_on_c, 0, 64, 100
1, 36669, Note_off_c, 0, 64, 100
1, 36669, Note_on_c, 0, 52, 100
1, 36693, Note_off_c, 0, 52, 100
1, 36693, Note_on_c, 0, 64, 100
1, 36789, Note_off_c, 0, 64, 100
1, 36789, Note_on_c, 0, 51, 100
1, 36837, Note_off_c, 0, 51, 100
1, 36837, Note_on_c, 0, 55, 100
1, 36858, Note_off_c, 0, 55, 100
1, 36858, Note_on_c, 0, 58, 100
1, 36900, Note_off_c, 0, 58, 100
1, 36900, Note_on_c, 0, 62, 100
1, 36921, Note_off_c, 0, 62, 100
1, 36921, Note_on_c, 0, 65, 100
1, 36942, Note_off_c, 0, 65, 100
1, 36942, Note_on_c, 0, 68, 100
1, 36963, Note_off_c, 0, 68, 100
1, 36963, Note_on_c, 0, 72, 100
1, 37005, Note_off_c, 0, 72, 100
1, 37005, Note_on_c, 0, 67, 100
1, 37218, Note_off_c, 0, 67, 100
1, 37218, Note_on_c, 0, 67, 100
1, 37266, Note_off_c, 0, 67, 100
1, 37266, Note_on_c, 0, 69, 100
1, 37314, Note_off_c, 0, 69, 100
1, 37314, Note_on_c, 0, 70, 100
1, 37362, Note_off_c, 0, 70, 100
1, 37362, Note_on_c, 0, 72, 100
1, 37410, Note_off_c, 0, 72, 100
1, 37410, Note_on_c, 0, 69, 100
1, 37448, Note_off_c, 0, 69, 100
1, 37448, Note_on_c, 0, 67, 100
1, 37486, Note_off_c, 0, 67, 100
1, 37486, Note_on_c, 0, 64, 100
1, 37562, Note_off_c, 0, 64, 100
1, 37562, Note_on_c, 0, 61, 100
1, 37600, Note_off_c, 0, 61, 100
1, 37600, Note_on_c, 0, 65, 100
1, 37648, Note_off_c, 0, 65, 100
1, 37648, Note_on_c, 0, 62, 100
1, 37744, Note_off_c, 0, 62, 100
1, 37744, Note_on_c, 0, 74, 100
1, 37840, Note_off_c, 0, 74, 100
1, 37840, Note_on_c, 0, 72, 100
1, 37888, Note_off_c, 0, 72, 100
1, 37888, Note_on_c, 0, 69, 100
1, 37936, Note_off_c, 0, 69, 100
1, 37936, Note_on_c, 0, 72, 100
1, 38022, Note_off_c, 0, 72, 100
1, 38022, Note_on_c, 0, 68, 100
1, 38060, Note_off_c, 0, 68, 100
1, 38060, Note_on_c, 0, 67, 100
1, 38098, Note_off_c, 0, 67, 100
1, 38098, Note_on_c, 0, 66, 100
1, 38136, Note_off_c, 0, 66, 100
1, 38136, Note_on_c, 0, 68, 100
1, 38212, Note_off_c, 0, 68, 100
1, 38212, Note_on_c, 0, 65, 100
1, 38250, Note_off_c, 0, 65, 100
1, 38250, Note_on_c, 0, 61, 100
1, 38288, Note_off_c, 0, 61, 100
1, 38288, Note_on_c, 0, 57, 100
1, 38364, Note_off_c, 0, 57, 100
1, 38364, Note_on_c, 0, 58, 100
1, 38412, Note_off_c, 0, 58, 100
1, 38412, Note_on_c, 0, 60, 100
1, 38460, Note_off_c, 0, 60, 100
1, 38460, Note_on_c, 0, 62, 100
1, 38556, Note_off_c, 0, 62, 100
1, 38556, Note_on_c, 0, 65, 100
1, 38604, Note_off_c, 0, 65, 100
1, 38604, Note_on_c, 0, 70, 100
1, 38652, Note_off_c, 0, 70, 100
1, 38652, Note_on_c, 0, 70, 100
1, 38748, Note_off_c, 0, 70, 100
1, 39180, Note_on_c, 0, 60, 100
1, 39228, Note_off_c, 0, 60, 100
1, 39228, Note_on_c, 0, 60, 100
1, 39276, Note_off_c, 0, 60, 100
1, 39276, Note_on_c, 0, 60, 100
1, 39324, Note_off_c, 0, 60, 100
1, 39324, Note_on_c, 0, 65, 100
1, 39420, Note_off_c, 0, 65, 100
1, 39420, Note_on_c, 0, 65, 100
1, 39516, Note_off_c, 0, 65, 100
1, 39516, Note_on_c, 0, 69, 100
1, 39612, Note_off_c, 0, 69, 100
1, 39612, Note_on_c, 0, 69, 100
1, 39708, Note_off_c, 0, 69, 100
1, 39708, Note_on_c, 0, 72, 100
1, 39804, Note_off_c, 0, 72, 100
1, 39804, Note_on_c, 0, 72, 100
1, 39900, Note_off_c, 0, 72, 100
1, 39900, Note_on_c, 0, 79, 100
1, 39996, Note_off_c, 0, 79, 100
1, 39996, Note_on_c, 0, 79, 100
1, 40044, Note_off_c, 0, 79, 100
1, 40044, Note_on_c, 0, 79, 100
1, 40092, Note_off_c, 0, 79, 100
1, 40092, Note_on_c, 0, 76, 100
1, 40188, Note_off_c, 0, 76, 100
1, 40188, Note_on_c, 0, 76, 100
1, 40284, Note_off_c, 0, 76, 100
1, 40284, Note_on_c, 0, 72, 100
1, 40380, Note_off_c, 0, 72, 100
1, 40380, Note_on_c, 0, 72, 100
1, 40476, Note_off_c, 0, 72, 100
1, 40476, Note_on_c, 0, 69, 100
1, 40572, Note_off_c, 0, 69, 100
1, 40572, Note_on_c, 0, 69, 100
1, 40668, Note_off_c, 0, 69, 100
1, 40668, Note_on_c, 0, 76, 100
1, 40716, Note_off_c, 0, 76, 100
1, 40716, Note_on_c, 0, 76, 100
1, 40764, Note_off_c, 0, 76, 100
1, 40764, Note_on_c, 0, 76, 100
1, 40812, Note_off_c, 0, 76, 100
1, 40812, Note_on_c, 0, 76, 100
1, 40860, Note_off_c, 0, 76, 100
1, 40860, Note_on_c, 0, 73, 100
1, 40956, Note_off_c, 0, 73, 100
1, 40956, Note_on_c, 0, 73, 100
1, 41052, Note_off_c, 0, 73, 100
1, 41052, Note_on_c, 0, 69, 100
1, 41148, Note_off_c, 0, 69, 100
1, 41148, Note_on_c, 0, 70, 100
1, 41244, Note_off_c, 0, 70, 100
1, 41244, Note_on_c, 0, 67, 100
1, 41340, Note_off_c, 0, 67, 100
1, 41340, Note_on_c, 0, 67, 100
1, 41436, Note_off_c, 0, 67, 100
1, 41436, Note_on_c, 0, 73, 100
1, 41484, Note_off_c, 0, 73, 100
1, 41484, Note_on_c, 0, 73, 100
1, 41532, Note_off_c, 0, 73, 100
1, 41532, Note_on_c, 0, 73, 100
1, 41580, Note_off_c, 0, 73, 100
1, 41580, Note_on_c, 0, 73, 100
1, 41628, Note_off_c, 0, 73, 100
1, 41628, Note_on_c, 0, 70, 100
1, 41724, Note_off_c, 0, 70, 100
1, 41724, Note_on_c, 0, 70, 100
1, 41820, Note_off_c, 0, 70, 100
1, 41820, Note_on_c, 0, 69, 100
1, 42012, Note_off_c, 0, 69, 100
1, 42012, Note_on_c, 0, 63, 100
1, 42060, Note_off_c, 0, 63, 100
1, 42060, Note_on_c, 0, 64, 100
1, 42108, Note_off_c, 0, 64, 100
1, 42108, Note_on_c, 0, 67, 100
1, 42156, Note_off_c, 0, 67, 100
1, 42156, Note_on_c, 0, 65, 100
1, 42204, Note_off_c, 0, 65, 100
1, 42204, Note_on_c, 0, 64, 100
1, 42252, Note_off_c, 0, 64, 100
1, 42252, Note_on_c, 0, 62, 100
1, 42300, Note_off_c, 0, 62, 100
1, 42300, Note_on_c, 0, 58, 100
1, 42348, Note_off_c, 0, 58, 100
1, 42348, Note_on_c, 0, 57, 100
1, 42396, Note_off_c, 0, 57, 100
1, 42396, Note_on_c, 0, 63, 100
1, 42444, Note_off_c, 0, 63, 100
1, 42444, Note_on_c, 0, 63, 100
1, 42492, Note_off_c, 0, 63, 100
1, 42492, Note_on_c, 0, 65, 100
1, 42540, Note_off_c, 0, 65, 100
1, 42540, Note_on_c, 0, 68, 100
1, 42612, Note_off_c, 0, 68, 100
1, 42612, Note_on_c, 0, 74, 100
1, 42732, Note_off_c, 0, 74, 100
1, 42732, Note_on_c, 0, 72, 100
1, 42756, Note_off_c, 0, 72, 100
1, 42756, Note_on_c, 0, 70, 100
1, 42780, Note_off_c, 0, 70, 100
1, 42780, Note_on_c, 0, 69, 100
1, 42828, Note_off_c, 0, 69, 100
1, 42828, Note_on_c, 0, 67, 100
1, 42876, Note_off_c, 0, 67, 100
1, 42876, Note_on_c, 0, 65, 100
1, 42924, Note_off_c, 0, 65, 100
1, 42924, Note_on_c, 0, 63, 100
1, 42972, Note_off_c, 0, 63, 100
1, 42972, Note_on_c, 0, 62, 100
1, 43068, Note_off_c, 0, 62, 100
1, 43068, Note_on_c, 0, 63, 100
1, 43164, Note_off_c, 0, 63, 100
1, 43308, Note_on_c, 0, 65, 100
1, 43404, Note_off_c, 0, 65, 100
1, 43404, Note_on_c, 0, 70, 100
1, 43500, Note_off_c, 0, 70, 100
1, 43500, Note_on_c, 0, 75, 100
1, 43596, Note_off_c, 0, 75, 100
1, 43596, Note_on_c, 0, 74, 100
1, 43692, Note_off_c, 0, 74, 100
1, 43692, Note_on_c, 0, 70, 100
1, 43788, Note_off_c, 0, 70, 100
1, 43788, Note_on_c, 0, 69, 100
1, 43884, Note_off_c, 0, 69, 100
1, 43884, Note_on_c, 0, 67, 100
1, 43980, Note_off_c, 0, 67, 100
1, 43980, Note_on_c, 0, 63, 100
1, 44076, Note_off_c, 0, 63, 100
1, 44076, Note_on_c, 0, 64, 100
1, 44124, Note_off_c, 0, 64, 100
1, 44124, Note_on_c, 0, 67, 100
1, 44316, Note_off_c, 0, 67, 100
1, 44316, Note_on_c, 0, 65, 100
1, 44444, Note_off_c, 0, 65, 100
1, 44444, Note_on_c, 0, 59, 100
1, 44540, Note_off_c, 0, 59, 100
1, 44748, Note_on_c, 0, 55, 100
1, 44796, Note_off_c, 0, 55, 100
1, 44796, Note_on_c, 0, 57, 100
1, 44844, Note_off_c, 0, 57, 100
1, 44844, Note_on_c, 0, 61, 100
1, 44940, Note_off_c, 0, 61, 100
1, 44940, Note_on_c, 0, 61, 100
1, 44988, Note_off_c, 0, 61, 100
1, 44988, Note_on_c, 0, 65, 100
1, 45036, Note_off_c, 0, 65, 100
1, 45036, Note_on_c, 0, 69, 100
1, 45084, Note_off_c, 0, 69, 100
1, 45084, Note_on_c, 0, 74, 100
1, 45132, Note_off_c, 0, 74, 100
1, 45132, Note_on_c, 0, 73, 100
1, 45180, Note_off_c, 0, 73, 100
1, 45180, Note_on_c, 0, 70, 100
1, 45228, Note_off_c, 0, 70, 100
1, 45228, Note_on_c, 0, 73, 100
1, 45276, Note_off_c, 0, 73, 100
1, 45276, Note_on_c, 0, 71, 100
1, 45340, Note_off_c, 0, 71, 100
1, 45340, Note_on_c, 0, 68, 100
1, 45404, Note_off_c, 0, 68, 100
1, 45404, Note_on_c, 0, 63, 100
1, 45468, Note_off_c, 0, 63, 100
1, 45468, Note_on_c, 0, 64, 100
1, 45500, Note_off_c, 0, 64, 100
1, 45500, Note_on_c, 0, 65, 100
1, 45532, Note_off_c, 0, 65, 100
1, 45532, Note_on_c, 0, 66, 100
1, 45564, Note_off_c, 0, 66, 100
1, 45564, Note_on_c, 0, 67, 100
1, 45628, Note_off_c, 0, 67, 100
1, 45628, Note_on_c, 0, 64, 100
1, 45660, Note_off_c, 0, 64, 100
1, 45660, Note_on_c, 0, 60, 100
1, 45698, Note_off_c, 0, 60, 100
1, 45698, Note_on_c, 0, 61, 100
1, 45736, Note_off_c, 0, 61, 100
1, 45736, Note_on_c, 0, 62, 100
1, 45774, Note_off_c, 0, 62, 100
1, 45774, Note_on_c, 0, 64, 100
1, 45812, Note_off_c, 0, 64, 100
1, 45812, Note_on_c, 0, 67, 100
1, 45898, Note_off_c, 0, 67, 100
1, 45898, Note_on_c, 0, 70, 100
1, 45946, Note_off_c, 0, 70, 100
1, 45946, Note_on_c, 0, 65, 100
1, 45994, Note_off_c, 0, 65, 100
1, 45994, Note_on_c, 0, 67, 100
1, 46042, Note_off_c, 0, 67, 100
1, 46042, Note_on_c, 0, 69, 100
1, 46378, Note_off_c, 0, 69, 100
1, 46378, Note_on_c, 0, 69, 100
1, 46762, Note_off_c, 0, 69, 100
1, 46762, Note_on_c, 0, 69, 100
1, 46906, Note_off_c, 0, 69, 100
1, 46906, Note_on_c, 0, 77, 100
1, 47002, Note_off_c, 0, 77, 100
1, 47002, Note_on_c, 0, 76, 100
1, 47146, Note_off_c, 0, 76, 100
1, 47146, Note_on_c, 0, 69, 100
1, 47338, Note_off_c, 0, 69, 100
1, 47722, Note_on_c, 0, 69, 100
1, 47866, Note_off_c, 0, 69, 100
1, 47866, Note_on_c, 0, 69, 100
1, 48026, Note_off_c, 0, 69, 100
1, 48026, Note_on_c, 0, 69, 100
1, 48090, Note_off_c, 0, 69, 100
1, 48090, Note_on_c, 0, 69, 100
1, 48154, Note_off_c, 0, 69, 100
1, 48154, Note_on_c, 0, 69, 100
1, 48250, Note_off_c, 0, 69, 100
1, 48250, Note_on_c, 0, 77, 100
1, 48346, Note_off_c, 0, 77, 100
1, 48346, Note_on_c, 0, 76, 100
1, 48442, Note_off_c, 0, 76, 100
1, 48442, Note_on_c, 0, 73, 100
1, 48634, Note_off_c, 0, 73, 100
1, 48634, Note_on_c, 0, 69, 100
1, 48682, Note_off_c, 0, 69, 100
1, 48682, Note_on_c, 0, 71, 100
1, 48730, Note_off_c, 0, 71, 100
1, 48730, Note_on_c, 0, 73, 100
1, 48768, Note_off_c, 0, 73, 100
1, 48768, Note_on_c, 0, 69, 100
1, 48806, Note_off_c, 0, 69, 100
1, 48806, Note_on_c, 0, 66, 100
1, 48844, Note_off_c, 0, 66, 100
1, 48844, Note_on_c, 0, 67, 100
1, 48882, Note_off_c, 0, 67, 100
1, 48882, Note_on_c, 0, 69, 100
1, 48920, Note_off_c, 0, 69, 100
1, 48920, Note_on_c, 0, 69, 100
1, 48968, Note_off_c, 0, 69, 100
1, 48968, Note_on_c, 0, 65, 100
1, 49016, Note_off_c, 0, 65, 100
1, 49016, Note_on_c, 0, 62, 100
1, 49112, Note_off_c, 0, 62, 100
1, 49496, Note_on_c, 0, 67, 100
1, 49544, Note_off_c, 0, 67, 100
1, 49544, Note_on_c, 0, 69, 100
1, 49592, Note_off_c, 0, 69, 100
1, 49592, Note_on_c, 0, 70, 100
1, 49640, Note_off_c, 0, 70, 100
1, 49640, Note_on_c, 0, 72, 100
1, 49688, Note_off_c, 0, 72, 100
1, 49688, Note_on_c, 0, 69, 100
1, 49832, Note_off_c, 0, 69, 100
1, 49832, Note_on_c, 0, 67, 100
1, 49928, Note_off_c, 0, 67, 100
1, 49928, Note_on_c, 0, 74, 100
1, 50024, Note_off_c, 0, 74, 100
1, 50024, Note_on_c, 0, 72, 100
1, 50072, Note_off_c, 0, 72, 100
1, 50072, Note_on_c, 0, 70, 100
1, 50120, Note_off_c, 0, 70, 100
1, 50120, Note_on_c, 0, 69, 100
1, 50168, Note_off_c, 0, 69, 100
1, 50168, Note_on_c, 0, 67, 100
1, 50216, Note_off_c, 0, 67, 100
1, 50216, Note_on_c, 0, 65, 100
1, 50264, Note_off_c, 0, 65, 100
1, 50264, Note_on_c, 0, 64, 100
1, 50302, Note_off_c, 0, 64, 100
1, 50302, Note_on_c, 0, 63, 100
1, 50340, Note_off_c, 0, 63, 100
1, 50340, Note_on_c, 0, 67, 100
1, 50378, Note_off_c, 0, 67, 100
1, 50378, Note_on_c, 0, 62, 100
1, 50416, Note_off_c, 0, 62, 100
1, 50416, Note_on_c, 0, 60, 100
1, 50454, Note_off_c, 0, 60, 100
1, 50454, Note_on_c, 0, 65, 100
1, 50502, Note_off_c, 0, 65, 100
1, 50502, Note_on_c, 0, 61, 100
1, 50550, Note_off_c, 0, 61, 100
1, 50550, Note_on_c, 0, 56, 100
1, 50598, Note_off_c, 0, 56, 100
1, 50598, Note_on_c, 0, 55, 100
1, 50646, Note_off_c, 0, 55, 100
1, 50646, Note_on_c, 0, 58, 100
1, 50774, Note_off_c, 0, 58, 100
1, 50774, Note_on_c, 0, 60, 100
1, 50886, Note_off_c, 0, 60, 100
1, 50886, Note_on_c, 0, 62, 100
1, 50982, Note_off_c, 0, 62, 100
1, 50982, Note_on_c, 0, 65, 100
1, 51094, Note_off_c, 0, 65, 100
1, 51094, Note_on_c, 0, 72, 100
1, 51366, Note_off_c, 0, 72, 100
1, 51366, Note_on_c, 0, 70, 100
1, 51462, Note_off_c, 0, 70, 100
1, 51462, Note_on_c, 0, 68, 100
1, 51558, Note_off_c, 0, 68, 100
1, 51558, Note_on_c, 0, 65, 100
1, 51654, Note_off_c, 0, 65, 100
1, 51654, Note_on_c, 0, 61, 100
1, 51702, Note_off_c, 0, 61, 100
1, 51702, Note_on_c, 0, 58, 100
1, 51750, Note_off_c, 0, 58, 100
1, 51750, Note_on_c, 0, 67, 100
1, 51846, Note_off_c, 0, 67, 100
1, 52134, Note_on_c, 0, 65, 100
1, 52230, Note_off_c, 0, 65, 100
1, 52230, Note_on_c, 0, 64, 100
1, 52326, Note_off_c, 0, 64, 100
1, 52326, Note_on_c, 0, 73, 100
1, 52374, Note_off_c, 0, 73, 100
1, 52374, Note_on_c, 0, 68, 100
1, 52406, Note_off_c, 0, 68, 100
1, 52406, Note_on_c, 0, 66, 100
1, 52438, Note_off_c, 0, 66, 100
1, 52438, Note_on_c, 0, 64, 100
1, 52470, Note_off_c, 0, 64, 100
1, 52470, Note_on_c, 0, 63, 100
1, 52534, Note_off_c, 0, 63, 100
1, 52534, Note_on_c, 0, 60, 100
1, 52566, Note_off_c, 0, 60, 100
1, 52566, Note_on_c, 0, 63, 100
1, 52710, Note_off_c, 0, 63, 100
1, 52710, Note_on_c, 0, 72, 100
1, 52806, Note_off_c, 0, 72, 100
1, 52806, Note_on_c, 0, 68, 100
1, 52854, Note_off_c, 0, 68, 100
1, 52854, Note_on_c, 0, 63, 100
1, 52950, Note_off_c, 0, 63, 100
1, 52950, Note_on_c, 0, 62, 100
1, 53142, Note_off_c, 0, 62, 100
1, 53142, Note_on_c, 0, 67, 100
1, 53190, Note_off_c, 0, 67, 100
1, 53190, Note_on_c, 0, 69, 100
1, 53238, Note_off_c, 0, 69, 100
1, 53238, Note_on_c, 0, 70, 100
1, 53286, Note_off_c, 0, 70, 100
1, 53286, Note_on_c, 0, 72, 100
1, 53334, Note_off_c, 0, 72, 100
1, 53334, Note_on_c, 0, 69, 100
1, 53382, Note_off_c, 0, 69, 100
1, 53382, Note_on_c, 0, 65, 100
1, 53430, Note_off_c, 0, 65, 100
1, 53430, Note_on_c, 0, 62, 100
1, 53478, Note_off_c, 0, 62, 100
1, 53478, Note_on_c, 0, 59, 100
1, 53526, Note_off_c, 0, 59, 100
1, 53526, Note_on_c, 0, 64, 100
1, 53574, Note_off_c, 0, 64, 100
1, 53574, Note_on_c, 0, 61, 100
1, 53622, Note_off_c, 0, 61, 100
1, 53622, Note_on_c, 0, 62, 100
1, 53670, Note_off_c, 0, 62, 100
1, 53670, Note_on_c, 0, 64, 100
1, 53718, Note_off_c, 0, 64, 100
1, 53718, Note_on_c, 0, 65, 100
1, 53766, Note_off_c, 0, 65, 100
1, 53766, Note_on_c, 0, 65, 100
1, 53814, Note_off_c, 0, 65, 100
1, 53814, Note_on_c, 0, 67, 100
1, 53862, Note_off_c, 0, 67, 100
1, 53862, Note_on_c, 0, 69, 100
1, 53910, Note_off_c, 0, 69, 100
1, 53910, Note_on_c, 0, 70, 100
1, 53958, Note_off_c, 0, 70, 100
1, 53958, Note_on_c, 0, 72, 100
1, 54054, Note_off_c, 0, 72, 100
1, 54054, Note_on_c, 0, 77, 100
1, 54390, Note_off_c, 0, 77, 100
1, 54390, Note_on_c, 0, 72, 100
1, 54582, Note_off_c, 0, 72, 100
1, 54582, Note_on_c, 0, 77, 100
1, 54678, Note_off_c, 0, 77, 100
1, 54678, Note_on_c, 0, 71, 100
1, 54742, Note_off_c, 0, 71, 100
1, 54742, Note_on_c, 0, 72, 100
1, 54806, Note_off_c, 0, 72, 100
1, 54806, Note_on_c, 0, 77, 100
1, 54966, Note_off_c, 0, 77, 100
1, 54966, Note_on_c, 0, 72, 100
1, 55062, Note_off_c, 0, 72, 100
1, 55062, Note_on_c, 0, 77, 100
1, 55190, Note_off_c, 0, 77, 100
1, 55190, Note_on_c, 0, 71, 100
1, 55222, Note_off_c, 0, 71, 100
1, 55222, Note_on_c, 0, 73, 100
1, 55350, Note_off_c, 0, 73, 100
1, 55350, Note_on_c, 0, 77, 100
1, 55446, Note_off_c, 0, 77, 100
1, 55446, Note_on_c, 0, 73, 100
1, 55542, Note_off_c, 0, 73, 100
1, 55542, Note_on_c, 0, 77, 100
1, 55734, Note_off_c, 0, 77, 100
1, 55734, Note_on_c, 0, 73, 100
1, 55830, Note_off_c, 0, 73, 100
1, 55830, Note_on_c, 0, 77, 100
1, 55974, Note_off_c, 0, 77, 100
1, 55974, Note_on_c, 0, 72, 100
1, 56022, Note_off_c, 0, 72, 100
1, 56022, Note_on_c, 0, 74, 100
1, 56118, Note_off_c, 0, 74, 100
1, 56118, Note_on_c, 0, 77, 100
1, 56214, Note_off_c, 0, 77, 100
1, 56214, Note_on_c, 0, 74, 100
1, 56310, Note_off_c, 0, 74, 100
1, 56310, Note_on_c, 0, 77, 100
1, 56454, Note_off_c, 0, 77, 100
1, 56454, Note_on_c, 0, 69, 100
1, 56502, Note_off_c, 0, 69, 100
1, 56502, Note_on_c, 0, 70, 100
1, 56550, Note_off_c, 0, 70, 100
1, 56550, Note_on_c, 0, 74, 100
1, 56598, Note_off_c, 0, 74, 100
1, 56598, Note_on_c, 0, 77, 100
1, 56718, Note_off_c, 0, 77, 100
1, 56718, Note_on_c, 0, 69, 100
1, 56742, Note_off_c, 0, 69, 100
1, 56742, Note_on_c, 0, 70, 100
1, 56766, Note_off_c, 0, 70, 100
1, 56766, Note_on_c, 0, 73, 100
1, 56790, Note_off_c, 0, 73, 100
1, 56790, Note_on_c, 0, 77, 100
1, 56982, Note_off_c, 0, 77, 100
1, 56982, Note_on_c, 0, 70, 100
1, 57030, Note_off_c, 0, 70, 100
1, 57030, Note_on_c, 0, 73, 100
1, 57126, Note_off_c, 0, 73, 100
1, 57126, Note_on_c, 0, 77, 100
1, 57238, Note_off_c, 0, 77, 100
1, 57238, Note_on_c, 0, 73, 100
1, 57366, Note_off_c, 0, 73, 100
1, 57366, Note_on_c, 0, 77, 100
1, 57462, Note_off_c, 0, 77, 100
1, 57654, Note_on_c, 0, 72, 100
1, 57750, Note_off_c, 0, 72, 100
1, 57750, Note_on_c, 0, 77, 100
1, 57846, Note_off_c, 0, 77, 100
1, 57846, Note_on_c, 0, 72, 100
1, 57894, Note_off_c, 0, 72, 100
1, 57894, Note_on_c, 0, 73, 100
1, 57942, Note_off_c, 0, 73, 100
1, 57942, Note_on_c, 0, 77, 100
1, 58038, Note_off_c, 0, 77, 100
1, 58038, Note_on_c, 0, 72, 100
1, 58134, Note_off_c, 0, 72, 100
1, 58134, Note_on_c, 0, 77, 100
1, 58230, Note_off_c, 0, 77, 100
1, 58230, Note_on_c, 0, 72, 100
1, 58326, Note_off_c, 0, 72, 100
1, 58326, Note_on_c, 0, 77, 100
1, 58518, Note_off_c, 0, 77, 100
1, 58518, Note_on_c, 0, 76, 100
1, 58566, Note_off_c, 0, 76, 100
1, 58566, Note_on_c, 0, 77, 100
1, 58614, Note_off_c, 0, 77, 100
1, 58614, Note_on_c, 0, 76, 100
1, 58662, Note_off_c, 0, 76, 100
1, 58662, Note_on_c, 0, 75, 100
1, 58710, Note_off_c, 0, 75, 100
1, 58710, Note_on_c, 0, 72, 100
1, 58806, Note_off_c, 0, 72, 100
1, 58806, Note_on_c, 0, 70, 100
1, 58950, Note_off_c, 0, 70, 100
1, 58950, Note_on_c, 0, 69, 100
1, 59046, Note_off_c, 0, 69, 100
1, 59046, Note_on_c, 0, 67, 100
1, 59142, Note_off_c, 0, 67, 100
1, 59142, Note_on_c, 0, 65, 100
1, 59238, Note_off_c, 0, 65, 100
1, 59238, Note_on_c, 0, 64, 100
1, 59286, Note_off_c, 0, 64, 100
1, 59286, Note_on_c, 0, 63, 100
1, 59414, Note_off_c, 0, 63, 100
1, 59414, Note_on_c, 0, 70, 100
1, 59542, Note_off_c, 0, 70, 100
1, 59542, Note_on_c, 0, 74, 100
1, 59670, Note_off_c, 0, 74, 100
1, 59670, Note_on_c, 0, 72, 100
1, 59798, Note_off_c, 0, 72, 100
1, 59798, Note_on_c, 0, 65, 100
1, 59990, Note_off_c, 0, 65, 100
1, 60246, Note_on_c, 0, 70, 100
1, 60294, Note_off_c, 0, 70, 100
1, 60294, Note_on_c, 0, 71, 100
1, 60390, Note_off_c, 0, 71, 100
1, 60390, Note_on_c, 0, 67, 100
1, 60438, Note_off_c, 0, 67, 100
1, 60438, Note_on_c, 0, 66, 100
1, 60534, Note_off_c, 0, 66, 100
1, 60534, Note_on_c, 0, 62, 100
1, 60582, Note_off_c, 0, 62, 100
1, 60582, Note_on_c, 0, 66, 100
1, 60630, Note_off_c, 0, 66, 100
1, 60630, Note_on_c, 0, 67, 100
1, 60678, Note_off_c, 0, 67, 100
1, 60678, Note_on_c, 0, 69, 100
1, 60726, Note_off_c, 0, 69, 100
1, 60726, Note_on_c, 0, 66, 100
1, 60774, Note_off_c, 0, 66, 100
1, 60774, Note_on_c, 0, 67, 100
1, 60822, Note_off_c, 0, 67, 100
1, 60822, Note_on_c, 0, 69, 100
1, 60860, Note_off_c, 0, 69, 100
1, 60860, Note_on_c, 0, 70, 100
1, 60898, Note_off_c, 0, 70, 100
1, 60898, Note_on_c, 0, 71, 100
1, 60936, Note_off_c, 0, 71, 100
1, 60936, Note_on_c, 0, 72, 100
1, 60974, Note_off_c, 0, 72, 100
1, 60974, Note_on_c, 0, 74, 100
1, 61012, Note_off_c, 0, 74, 100
1, 61012, Note_on_c, 0, 70, 100
1, 61060, Note_off_c, 0, 70, 100
1, 61060, Note_on_c, 0, 69, 100
1, 61108, Note_off_c, 0, 69, 100
1, 61108, Note_on_c, 0, 67, 100
1, 61156, Note_off_c, 0, 67, 100
1, 61156, Note_on_c, 0, 66, 100
1, 61204, Note_off_c, 0, 66, 100
1, 61204, Note_on_c, 0, 67, 100
1, 61252, Note_off_c, 0, 67, 100
1, 61252, Note_on_c, 0, 72, 100
1, 61300, Note_off_c, 0, 72, 100
1, 61300, Note_on_c, 0, 70, 100
1, 61348, Note_off_c, 0, 70, 100
1, 61348, Note_on_c, 0, 65, 100
1, 61396, Note_off_c, 0, 65, 100
1, 61396, Note_on_c, 0, 67, 100
1, 61428, Note_off_c, 0, 67, 100
1, 61428, Note_on_c, 0, 68, 100
1, 61460, Note_off_c, 0, 68, 100
1, 61460, Note_on_c, 0, 69, 100
1, 61492, Note_off_c, 0, 69, 100
1, 61492, Note_on_c, 0, 67, 100
1, 61556, Note_off_c, 0, 67, 100
1, 61556, Note_on_c, 0, 71, 100
1, 61588, Note_off_c, 0, 71, 100
1, 61588, Note_on_c, 0, 67, 100
1, 61636, Note_off_c, 0, 67, 100
1, 61636, Note_on_c, 0, 66, 100
1, 61732, Note_off_c, 0, 66, 100
1, 61732, Note_on_c, 0, 69, 100
1, 61780, Note_off_c, 0, 69, 100
1, 61780, Note_on_c, 0, 65, 100
1, 61828, Note_off_c, 0, 65, 100
1, 61828, Note_on_c, 0, 64, 100
1, 61876, Note_off_c, 0, 64, 100
1, 61876, Note_on_c, 0, 63, 100
1, 61924, Note_off_c, 0, 63, 100
1, 61924, Note_on_c, 0, 67, 100
1, 61972, Note_off_c, 0, 67, 100
1, 61972, Note_on_c, 0, 63, 100
1, 62020, Note_off_c, 0, 63, 100
1, 62020, Note_on_c, 0, 62, 100
1, 62068, Note_off_c, 0, 62, 100
1, 62068, Note_on_c, 0, 61, 100
1, 62116, Note_off_c, 0, 61, 100
1, 62116, Note_on_c, 0, 65, 100
1, 62164, Note_off_c, 0, 65, 100
1, 62164, Note_on_c, 0, 61, 100
1, 62212, Note_off_c, 0, 61, 100
1, 62212, Note_on_c, 0, 60, 100
1, 62260, Note_off_c, 0, 60, 100
1, 62260, Note_on_c, 0, 59, 100
1, 62308, Note_off_c, 0, 59, 100
1, 62308, Note_on_c, 0, 63, 100
1, 62356, Note_off_c, 0, 63, 100
1, 62356, Note_on_c, 0, 59, 100
1, 62404, Note_off_c, 0, 59, 100
1, 62404, Note_on_c, 0, 58, 100
1, 62452, Note_off_c, 0, 58, 100
1, 62452, Note_on_c, 0, 57, 100
1, 62500, Note_off_c, 0, 57, 100
1, 62500, Note_on_c, 0, 61, 100
1, 62548, Note_off_c, 0, 61, 100
1, 62548, Note_on_c, 0, 56, 100
1, 62596, Note_off_c, 0, 56, 100
1, 62596, Note_on_c, 0, 55, 100
1, 62692, Note_off_c, 0, 55, 100
1, 62692, Note_on_c, 0, 59, 100
1, 62740, Note_off_c, 0, 59, 100
1, 62740, Note_on_c, 0, 55, 100
1, 62788, Note_off_c, 0, 55, 100
1, 62788, Note_on_c, 0, 54, 100
1, 62836, Note_off_c, 0, 54, 100
1, 62836, Note_on_c, 0, 53, 100
1, 62884, Note_off_c, 0, 53, 100
1, 62884, Note_on_c, 0, 57, 100
1, 62932, Note_off_c, 0, 57, 100
1, 62932, Note_on_c, 0, 53, 100
1, 62980, Note_off_c, 0, 53, 100
1, 62980, Note_on_c, 0, 52, 100
1, 63028, Note_off_c, 0, 52, 100
1, 63028, Note_on_c, 0, 51, 100
1, 63124, Note_off_c, 0, 51, 100
1, 63316, Note_on_c, 0, 51, 100
1, 63364, Note_off_c, 0, 51, 100
1, 63364, Note_on_c, 0, 50, 100
1, 63412, Note_off_c, 0, 50, 100
1, 63412, Note_on_c, 0, 49, 100
1, 63460, Note_off_c, 0, 49, 100
1, 63460, Note_on_c, 0, 53, 100
1, 63508, Note_off_c, 0, 53, 100
1, 63508, Note_on_c, 0, 49, 100
1, 63556, Note_off_c, 0, 49, 100
1, 63556, Note_on_c, 0, 48, 100
1, 63604, Note_off_c, 0, 48, 100
1, 63604, Note_on_c, 0, 47, 100
1, 63652, Note_off_c, 0, 47, 100
1, 63652, Note_on_c, 0, 47, 100
1, 63700, Note_off_c, 0, 47, 100
1, 63700, Note_on_c, 0, 51, 100
1, 63748, Note_off_c, 0, 51, 100
1, 63748, Note_on_c, 0, 47, 100
1, 63796, Note_off_c, 0, 47, 100
1, 63796, Note_on_c, 0, 46, 100
1, 63844, Note_off_c, 0, 46, 100
1, 63844, Note_on_c, 0, 45, 100
1, 63956, Note_off_c, 0, 45, 100
1, 63956, Note_on_c, 0, 50, 100
1, 64020, Note_off_c, 0, 50, 100
1, 64020, Note_on_c, 0, 53, 100
1, 64084, Note_off_c, 0, 53, 100
1, 64084, Note_on_c, 0, 57, 100
1, 64148, Note_off_c, 0, 57, 100
1, 64148, Note_on_c, 0, 62, 100
1, 64212, Note_off_c, 0, 62, 100
1, 64212, Note_on_c, 0, 65, 100
1, 64276, Note_off_c, 0, 65, 100
1, 64276, Note_on_c, 0, 69, 100
1, 64340, Note_off_c, 0, 69, 100
1, 64340, Note_on_c, 0, 75, 100
1, 64404, Note_off_c, 0, 75, 100
1, 64404, Note_on_c, 0, 77, 100
1, 64708, Note_off_c, 0, 77, 100
1, 64708, Note_on_c, 0, 77, 100
1, 64756, Note_off_c, 0, 77, 100
1, 64756, Note_on_c, 0, 76, 100
1, 64804, Note_off_c, 0, 76, 100
1, 64804, Note_on_c, 0, 74, 100
1, 64900, Note_off_c, 0, 74, 100
1, 64900, Note_on_c, 0, 72, 100
1, 64996, Note_off_c, 0, 72, 100
1, 64996, Note_on_c, 0, 70, 100
1, 65044, Note_off_c, 0, 70, 100
1, 65044, Note_on_c, 0, 69, 100
1, 65140, Note_off_c, 0, 69, 100
1, 65140, Note_on_c, 0, 65, 100
1, 65236, Note_off_c, 0, 65, 100
1, 65236, Note_on_c, 0, 67, 100
1, 65332, Note_off_c, 0, 67, 100
1, 65572, Note_on_c, 0, 62, 100
1, 65620, Note_off_c, 0, 62, 100
1, 65620, Note_on_c, 0, 74, 100
1, 65716, Note_off_c, 0, 74, 100
1, 65716, Note_on_c, 0, 74, 100
1, 65812, Note_off_c, 0, 74, 100
1, 65812, Note_on_c, 0, 72, 100
1, 65956, Note_off_c, 0, 72, 100
1, 65956, Note_on_c, 0, 65, 100
1, 66196, Note_off_c, 0, 65, 100
1, 66196, Note_on_c, 0, 74, 100
1, 66292, Note_off_c, 0, 74, 100
1, 66292, Note_on_c, 0, 66, 100
1, 66580, Note_off_c, 0, 66, 100
1, 66580, Note_on_c, 0, 74, 100
1, 66724, Note_off_c, 0, 74, 100
1, 66724, Note_on_c, 0, 67, 100
1, 66964, Note_off_c, 0, 67, 100
1, 66964, Note_on_c, 0, 72, 100
1, 67012, Note_off_c, 0, 72, 100
1, 67012, Note_on_c, 0, 74, 100
1, 67108, Note_off_c, 0, 74, 100
1, 67108, Note_on_c, 0, 72, 100
1, 67156, Note_off_c, 0, 72, 100
1, 67156, Note_on_c, 0, 79, 100
1, 67348, Note_off_c, 0, 79, 100
1, 67348, Note_on_c, 0, 76, 100
1, 67492, Note_off_c, 0, 76, 100
1, 67492, Note_on_c, 0, 72, 100
1, 67847, Note_off_c, 0, 72, 100
1, 67847, Note_on_c, 0, 69, 100
1, 67885, Note_off_c, 0, 69, 100
1, 67885, Note_on_c, 0, 70, 100
1, 67923, Note_off_c, 0, 70, 100
1, 67923, Note_on_c, 0, 71, 100
1, 67971, Note_off_c, 0, 71, 100
1, 67971, Note_on_c, 0, 72, 100
1, 68115, Note_off_c, 0, 72, 100
1, 68115, Note_on_c, 0, 69, 100
1, 68163, Note_off_c, 0, 69, 100
1, 68163, Note_on_c, 0, 70, 100
1, 68259, Note_off_c, 0, 70, 100
1, 68259, Note_on_c, 0, 70, 100
1, 68307, Note_off_c, 0, 70, 100
1, 68307, Note_on_c, 0, 69, 100
1, 68403, Note_off_c, 0, 69, 100
1, 68403, Note_on_c, 0, 67, 100
1, 68643, Note_off_c, 0, 67, 100
1, 68643, Note_on_c, 0, 65, 100
1, 68835, Note_off_c, 0, 65, 100
1, 68835, Note_on_c, 0, 62, 100
1, 68883, Note_off_c, 0, 62, 100
1, 68883, Note_on_c, 0, 61, 100
1, 68979, Note_off_c, 0, 61, 100
1, 68979, Note_on_c, 0, 64, 100
1, 69075, Note_off_c, 0, 64, 100
1, 69075, Note_on_c, 0, 67, 100
1, 69171, Note_off_c, 0, 67, 100
1, 69171, Note_on_c, 0, 69, 100
1, 69267, Note_off_c, 0, 69, 100
1, 69267, Note_on_c, 0, 68, 100
1, 69363, Note_off_c, 0, 68, 100
1, 69363, Note_on_c, 0, 67, 100
1, 69555, Note_off_c, 0, 67, 100
1, 69555, Note_on_c, 0, 64, 100
1, 69651, Note_off_c, 0, 64, 100
1, 69651, Note_on_c, 0, 61, 100
1, 69747, Note_off_c, 0, 61, 100
1, 69747, Note_on_c, 0, 57, 100
1, 69843, Note_off_c, 0, 57, 100
1, 69843, Note_on_c, 0, 62, 100
1, 69891, Note_off_c, 0, 62, 100
1, 69891, Note_on_c, 0, 65, 100
1, 69939, Note_off_c, 0, 65, 100
1, 69939, Note_on_c, 0, 64, 100
1, 69987, Note_off_c, 0, 64, 100
1, 69987, Note_on_c, 0, 62, 100
1, 70035, Note_off_c, 0, 62, 100
1, 70035, Note_on_c, 0, 67, 100
1, 70131, Note_off_c, 0, 67, 100
1, 70131, Note_on_c, 0, 67, 100
1, 70227, Note_off_c, 0, 67, 100
1, 70227, Note_on_c, 0, 60, 100
1, 70275, Note_off_c, 0, 60, 100
1, 70275, Note_on_c, 0, 63, 100
1, 70323, Note_off_c, 0, 63, 100
1, 70323, Note_on_c, 0, 62, 100
1, 70419, Note_off_c, 0, 62, 100
1, 70419, Note_on_c, 0, 65, 100
1, 70467, Note_off_c, 0, 65, 100
1, 70467, Note_on_c, 0, 61, 100
1, 70515, Note_off_c, 0, 61, 100
1, 70515, Note_on_c, 0, 62, 100
1, 70563, Note_off_c, 0, 62, 100
1, 70563, Note_on_c, 0, 63, 100
1, 70611, Note_off_c, 0, 63, 100
1, 70611, Note_on_c, 0, 62, 100
1, 70659, Note_off_c, 0, 62, 100
1, 70659, Note_on_c, 0, 58, 100
1, 70707, Note_off_c, 0, 58, 100
1, 70707, Note_on_c, 0, 53, 100
1, 70755, Note_off_c, 0, 53, 100
1, 70755, Note_on_c, 0, 52, 100
1, 70803, Note_off_c, 0, 52, 100
1, 70803, Note_on_c, 0, 50, 100
1, 70879, Note_off_c, 0, 50, 100
1, 70879, Note_on_c, 0, 53, 100
1, 70917, Note_off_c, 0, 53, 100
1, 70917, Note_on_c, 0, 57, 100
1, 70955, Note_off_c, 0, 57, 100
1, 70955, Note_on_c, 0, 56, 100
1, 70993, Note_off_c, 0, 56, 100
1, 70993, Note_on_c, 0, 60, 100
1, 71017, Note_off_c, 0, 60, 100
1, 71017, Note_on_c, 0, 58, 100
1, 71065, Note_off_c, 0, 58, 100
1, 71065, Note_on_c, 0, 61, 100
1, 71113, Note_off_c, 0, 61, 100
1, 71113, Note_on_c, 0, 62, 100
1, 71137, Note_off_c, 0, 62, 100
1, 71137, Note_on_c, 0, 63, 100
1, 71161, Note_off_c, 0, 63, 100
1, 71161, Note_on_c, 0, 65, 100
1, 71185, Note_off_c, 0, 65, 100
1, 71185, Note_on_c, 0, 70, 100
1, 71281, Note_off_c, 0, 70, 100
1, 71473, Note_on_c, 0, 69, 100
1, 71617, Note_off_c, 0, 69, 100
1, 71617, Note_on_c, 0, 77, 100
1, 71713, Note_off_c, 0, 77, 100
1, 71713, Note_on_c, 0, 73, 100
1, 71761, Note_off_c, 0, 73, 100
1, 71761, Note_on_c, 0, 76, 100
1, 71857, Note_off_c, 0, 76, 100
1, 71857, Note_on_c, 0, 73, 100
1, 71905, Note_off_c, 0, 73, 100
1, 71905, Note_on_c, 0, 69, 100
1, 71953, Note_off_c, 0, 69, 100
1, 71953, Note_on_c, 0, 65, 100
1, 72017, Note_off_c, 0, 65, 100
1, 72017, Note_on_c, 0, 64, 100
1, 72081, Note_off_c, 0, 64, 100
1, 72081, Note_on_c, 0, 62, 100
1, 72177, Note_off_c, 0, 62, 100
1, 72337, Note_on_c, 0, 73, 100
1, 72567, Note_off_c, 0, 73, 100
1, 72567, Note_on_c, 0, 72, 100
1, 72605, Note_off_c, 0, 72, 100
1, 72605, Note_on_c, 0, 69, 100
1, 72643, Note_off_c, 0, 69, 100
1, 72643, Note_on_c, 0, 71, 100
1, 72681, Note_off_c, 0, 71, 100
1, 72681, Note_on_c, 0, 73, 100
1, 72767, Note_off_c, 0, 73, 100
1, 72767, Note_on_c, 0, 69, 100
1, 72815, Note_off_c, 0, 69, 100
1, 72815, Note_on_c, 0, 65, 100
1, 72863, Note_off_c, 0, 65, 100
1, 72863, Note_on_c, 0, 62, 100
1, 72959, Note_off_c, 0, 62, 100
1, 72959, Note_on_c, 0, 65, 100
1, 73007, Note_off_c, 0, 65, 100
1, 73007, Note_on_c, 0, 68, 100
1, 73055, Note_off_c, 0, 68, 100
1, 73055, Note_on_c, 0, 70, 100
1, 73103, Note_off_c, 0, 70, 100
1, 73103, Note_on_c, 0, 65, 100
1, 73151, Note_off_c, 0, 65, 100
1, 73151, Note_on_c, 0, 63, 100
1, 73199, Note_off_c, 0, 63, 100
1, 73199, Note_on_c, 0, 64, 100
1, 73247, Note_off_c, 0, 64, 100
1, 73247, Note_on_c, 0, 66, 100
1, 73295, Note_off_c, 0, 66, 100
1, 73295, Note_on_c, 0, 62, 100
1, 73333, Note_off_c, 0, 62, 100
1, 73333, Note_on_c, 0, 58, 100
1, 73371, Note_off_c, 0, 58, 100
1, 73371, Note_on_c, 0, 60, 100
1, 73409, Note_off_c, 0, 60, 100
1, 73409, Note_on_c, 0, 62, 100
1, 73447, Note_off_c, 0, 62, 100
1, 73447, Note_on_c, 0, 57, 100
1, 73485, Note_off_c, 0, 57, 100
1, 73485, Note_on_c, 0, 56, 100
1, 73509, Note_off_c, 0, 56, 100
1, 73509, Note_on_c, 0, 54, 100
1, 73533, Note_off_c, 0, 54, 100
1, 73533, Note_on_c, 0, 56, 100
1, 73605, Note_off_c, 0, 56, 100
1, 73605, Note_on_c, 0, 58, 100
1, 73653, Note_off_c, 0, 58, 100
1, 73653, Note_on_c, 0, 56, 100
1, 73677, Note_off_c, 0, 56, 100
1, 73677, Note_on_c, 0, 57, 100
1, 73773, Note_off_c, 0, 57, 100
1, 73773, Note_on_c, 0, 58, 100
1, 73869, Note_off_c, 0, 58, 100
1, 73869, Note_on_c, 0, 60, 100
1, 73965, Note_off_c, 0, 60, 100
1, 73965, Note_on_c, 0, 69, 100
1, 74157, Note_off_c, 0, 69, 100
1, 74157, Note_on_c, 0, 70, 100
1, 74253, Note_off_c, 0, 70, 100
1, 74253, Note_on_c, 0, 72, 100
1, 74349, Note_off_c, 0, 72, 100
1, 74349, Note_on_c, 0, 57, 100
1, 74541, Note_off_c, 0, 57, 100
1, 74541, Note_on_c, 0, 58, 100
1, 74637, Note_off_c, 0, 58, 100
1, 74637, Note_on_c, 0, 60, 100
1, 74829, Note_off_c, 0, 60, 100
1, 74829, Note_on_c, 0, 45, 100
1, 75021, Note_off_c, 0, 45, 100
1, 75021, Note_on_c, 0, 57, 100
1, 75117, Note_off_c, 0, 57, 100
1, 75117, Note_on_c, 0, 62, 100
1, 75213, Note_off_c, 0, 62, 100
1, 75213, Note_on_c, 0, 62, 100
1, 75277, Note_off_c, 0, 62, 100
1, 75277, Note_on_c, 0, 69, 100
1, 75405, Note_off_c, 0, 69, 100
1, 75405, Note_on_c, 0, 74, 100
1, 75501, Note_off_c, 0, 74, 100
1, 75789, Note_on_c, 0, 69, 100
1, 75853, Note_off_c, 0, 69, 100
1, 75853, Note_on_c, 0, 74, 100
1, 75917, Note_off_c, 0, 74, 100
1, 75917, Note_on_c, 0, 77, 100
1, 75981, Note_off_c, 0, 77, 100
1, 75981, Note_on_c, 0, 79, 100
1, 76173, Note_off_c, 0, 79, 100
1, 76173, Note_on_c, 0, 77, 100
1, 76365, Note_off_c, 0, 77, 100
1, 76365, Note_on_c, 0, 73, 100
1, 76461, Note_off_c, 0, 73, 100
1, 76461, Note_on_c, 0, 76, 100
1, 76557, Note_off_c, 0, 76, 100
1, 76557, Note_on_c, 0, 74, 100
1, 76749, Note_off_c, 0, 74, 100
1, 76749, Note_on_c, 0, 67, 100
1, 76845, Note_off_c, 0, 67, 100
1, 76845, Note_on_c, 0, 69, 100
1, 76941, Note_off_c, 0, 69, 100
1, 76941, Note_on_c, 0, 70, 100
1, 77037, Note_off_c, 0, 70, 100
1, 77037, Note_on_c, 0, 60, 100
1, 77229, Note_off_c, 0, 60, 100
1, 77229, Note_on_c, 0, 72, 100
1, 77421, Note_off_c, 0, 72, 100
1, 77421, Note_on_c, 0, 72, 100
1, 77517, Note_off_c, 0, 72, 100
1, 77709, Note_on_c, 0, 69, 100
1, 77773, Note_off_c, 0, 69, 100
1, 77773, Note_on_c, 0, 70, 100
1, 77837, Note_off_c, 0, 70, 100
1, 77837, Note_on_c, 0, 72, 100
1, 77901, Note_off_c, 0, 72, 100
1, 77901, Note_on_c, 0, 65, 100
1, 78093, Note_off_c, 0, 65, 100
1, 78093, Note_on_c, 0, 77, 100
1, 78285, Note_off_c, 0, 77, 100
1, 78285, Note_on_c, 0, 70, 100
1, 78381, Note_off_c, 0, 70, 100
1, 78381, Note_on_c, 0, 72, 100
1, 78477, Note_off_c, 0, 72, 100
1, 78477, Note_on_c, 0, 74, 100
1, 78573, Note_off_c, 0, 74, 100
1, 78573, Note_on_c, 0, 70, 100
1, 78669, Note_off_c, 0, 70, 100
1, 78957, Note_on_c, 0, 68, 100
1, 79005, Note_off_c, 0, 68, 100
1, 79005, Note_on_c, 0, 72, 100
1, 79053, Note_off_c, 0, 72, 100
1, 79053, Note_on_c, 0, 70, 100
1, 79149, Note_off_c, 0, 70, 100
1, 79149, Note_on_c, 0, 69, 100
1, 79293, Note_off_c, 0, 69, 100
1, 79293, Note_on_c, 0, 67, 100
1, 79341, Note_off_c, 0, 67, 100
1, 79341, Note_on_c, 0, 68, 100
1, 79437, Note_off_c, 0, 68, 100
1, 79437, Note_on_c, 0, 65, 100
1, 79533, Note_off_c, 0, 65, 100
1, 79533, Note_on_c, 0, 61, 100
1, 79629, Note_off_c, 0, 61, 100
1, 79629, Note_on_c, 0, 60, 100
1, 79725, Note_off_c, 0, 60, 100
1, 79725, Note_on_c, 0, 58, 100
1, 79821, Note_off_c, 0, 58, 100
1, 79821, Note_on_c, 0, 60, 100
1, 79885, Note_off_c, 0, 60, 100
1, 79885, Note_on_c, 0, 65, 100
1, 79949, Note_off_c, 0, 65, 100
1, 79949, Note_on_c, 0, 69, 100
1, 80013, Note_off_c, 0, 69, 100
1, 80013, Note_on_c, 0, 73, 100
1, 80077, Note_off_c, 0, 73, 100
1, 80077, Note_on_c, 0, 77, 100
1, 80253, Note_off_c, 0, 77, 100
1, 80253, Note_on_c, 0, 72, 100
1, 80349, Note_off_c, 0, 72, 100
1, 80349, Note_on_c, 0, 72, 100
1, 80397, Note_off_c, 0, 72, 100
1, 80397, Note_on_c, 0, 69, 100
1, 80671, Note_off_c, 0, 69, 100
1, 80671, Note_on_c, 0, 68, 100
1, 80698, Note_off_c, 0, 68, 100
1, 80698, Note_on_c, 0, 69, 100
1, 80725, Note_off_c, 0, 69, 100
1, 80725, Note_on_c, 0, 70, 100
1, 80752, Note_off_c, 0, 70, 100
1, 80752, Note_on_c, 0, 72, 100
1, 80779, Note_off_c, 0, 72, 100
1, 80779, Note_on_c, 0, 77, 100
1, 80875, Note_off_c, 0, 77, 100
1, 80875, Note_on_c, 0, 77, 100
1, 81019, Note_off_c, 0, 77, 100
1, 81019, Note_on_c, 0, 72, 100
1, 81115, Note_off_c, 0, 72, 100
1, 81115, Note_on_c, 0, 72, 100
1, 81163, Note_off_c, 0, 72, 100
1, 81163, Note_on_c, 0, 67, 100
1, 81211, Note_off_c, 0, 67, 100
1, 81211, Note_on_c, 0, 69, 100
1, 81307, Note_off_c, 0, 69, 100
1, 81307, Note_on_c, 0, 69, 100
1, 81355, Note_off_c, 0, 69, 100
1, 81355, Note_on_c, 0, 65, 100
1, 81547, Note_off_c, 0, 65, 100
1, 81547, Note_on_c, 0, 69, 100
1, 81675, Note_off_c, 0, 69, 100
1, 81675, Note_on_c, 0, 72, 100
1, 81739, Note_off_c, 0, 72, 100
1, 81739, Note_on_c, 0, 70, 100
1, 81931, Note_off_c, 0, 70, 100
1, 81931, Note_on_c, 0, 71, 100
1, 81995, Note_off_c, 0, 71, 100
1, 81995, Note_on_c, 0, 75, 100
1, 82059, Note_off_c, 0, 75, 100
1, 82059, Note_on_c, 0, 77, 100
1, 82123, Note_off_c, 0, 77, 100
1, 82123, Note_on_c, 0, 77, 100
1, 82315, Note_off_c, 0, 77, 100
1, 82315, Note_on_c, 0, 72, 100
1, 82379, Note_off_c, 0, 72, 100
1, 82379, Note_on_c, 0, 72, 100
1, 82443, Note_off_c, 0, 72, 100
1, 82443, Note_on_c, 0, 72, 100
1, 82507, Note_off_c, 0, 72, 100
1, 82507, Note_on_c, 0, 71, 100
1, 82571, Note_off_c, 0, 71, 100
1, 82571, Note_on_c, 0, 64, 100
1, 82635, Note_off_c, 0, 64, 100
1, 82635, Note_on_c, 0, 71, 100
1, 82699, Note_off_c, 0, 71, 100
1, 82699, Note_on_c, 0, 70, 100
1, 82795, Note_off_c, 0, 70, 100
1, 82795, Note_on_c, 0, 70, 100
1, 82891, Note_off_c, 0, 70, 100
1, 82891, Note_on_c, 0, 69, 100
1, 83053, Note_off_c, 0, 69, 100
1, 83053, End_track
0, 0, End_of_file
