0, 0, Header, 1, 1, 192
1, 0, Start_track
1, 0, Title_t, "Melody"
1, 0, Tempo, 454545
1, 0, Key_signature, -3, "major"
1, 0, Time_signature, 4, 2, 24, 8
1, 480, Note_on_c, 0, 57, 100
1, 528, Note_off_c, 0, 57, 100
1, 528, Note_on_c, 0, 55, 100
1, 576, Note_off_c, 0, 55, 100
1, 576, Note_on_c, 0, 60, 100
1, 652, Note_off_c, 0, 60, 100
1, 652, Note_on_c, 0, 57, 100
1, 690, Note_off_c, 0, 57, 100
1, 690, Note_on_c, 0, 53, 100
1, 728, Note_off_c, 0, 53, 100
1, 728, Note_on_c, 0, 55, 100
1, 814, Note_off_c, 0, 55, 100
1, 814, Note_on_c, 0, 51, 100
1, 862, Note_off_c, 0, 51, 100
1, 862, Note_on_c, 0, 50, 100
1, 910, Note_off_c, 0, 50, 100
1, 910, Note_on_c, 0, 48, 100
1, 958, Note_off_c, 0, 48, 100
1, 958, Note_on_c, 0, 53, 100
1, 1006, Note_off_c, 0, 53, 100
1, 1006, Note_on_c, 0, 50, 100
1, 1054, Note_off_c, 0, 50, 100
1, 1054, Note_on_c, 0, 51, 100
1, 1102, Note_off_c, 0, 51, 100
1, 1102, Note_on_c, 0, 53, 100
1, 1150, Note_off_c, 0, 53, 100
1, 1150, Note_on_c, 0, 55, 100
1, 1198, Note_off_c, 0, 55, 100
1, 1198, Note_on_c, 0, 58, 100
1, 1246, Note_off_c, 0, 58, 100
1, 1246, Note_on_c, 0, 57, 100
1, 1342, Note_off_c, 0, 57, 100
1, 1486, Note_on_c, 0, 61, 100
1, 1534, Note_off_c, 0, 61, 100
1, 1534, Note_on_c, 0, 65, 100
1, 1572, Note_off_c, 0, 65, 100
1, 1572, Note_on_c, 0, 61, 100
1, 1610, Note_off_c, 0, 61, 100
1, 1610, Note_on_c, 0, 58, 100
1, 1648, Note_off_c, 0, 58, 100
1, 1648, Note_on_c, 0, 53, 100
1, 1686, Note_off_c, 0, 53, 100
1, 1686, Note_on_c, 0, 63, 100
1, 1762, Note_off_c, 0, 63, 100
1, 1762, Note_on_c, 0, 60, 100
1, 1800, Note_off_c, 0, 60, 100
1, 1800, Note_on_c, 0, 56, 100
1, 1838, Note_off_c, 0, 56, 100
1, 1838, Note_on_c, 0, 53, 100
1, 1914, Note_off_c, 0, 53, 100
1, 1914, Note_on_c, 0, 58, 100
1, 1952, Note_off_c, 0, 58, 100
1, 1952, Note_on_c, 0, 53, 100
1, 1990, Note_off_c, 0, 53, 100
1, 1990, Note_on_c, 0, 49, 100
1, 2028, Note_off_c, 0, 49, 100
1, 2028, Note_on_c, 0, 53, 100
1, 2066, Note_off_c, 0, 53, 100
1, 2066, Note_on_c, 0, 51, 100
1, 2168, Note_off_c, 0, 51, 100
1, 2168, Note_on_c, 0, 46, 100
1, 2231, Note_off_c, 0, 46, 100
1, 2231, Note_on_c, 0, 44, 100
1, 2327, Note_off_c, 0, 44, 100
1, 3159, Note_on_c, 0, 74, 100
1, 3255, Note_off_c, 0, 74, 100
1, 3255, Note_on_c, 0, 75, 100
1, 3293, Note_off_c, 0, 75, 100
1, 3293, Note_on_c, 0, 74, 100
1, 3331, Note_off_c, 0, 74, 100
1, 3331, Note_on_c, 0, 70, 100
1, 3369, Note_off_c, 0, 70, 100
1, 3369, Note_on_c, 0, 65, 100
1, 3407, Note_off_c, 0, 65, 100
1, 3407, Note_on_c, 0, 66, 100
1, 3445, Note_off_c, 0, 66, 100
1, 3445, Note_on_c, 0, 65, 100
1, 3509, Note_off_c, 0, 65, 100
1, 3509, Note_on_c, 0, 62, 100
1, 3572, Note_off_c, 0, 62, 100
1, 3572, Note_on_c, 0, 58, 100
1, 3636, Note_off_c, 0, 58, 100
1, 3636, Note_on_c, 0, 63, 100
1, 5044, Note_off_c, 0, 63, 100
1, 5044, Note_on_c, 0, 63, 100
1, 5172, Note_off_c, 0, 63, 100
1, 5172, Note_on_c, 0, 63, 100
1, 5220, Note_off_c, 0, 63, 100
1, 5220, Note_on_c, 0, 63, 100
1, 5316, Note_off_c, 0, 63, 100
1, 5316, Note_on_c, 0, 63, 100
1, 5460, Note_off_c, 0, 63, 100
1, 5460, Note_on_c, 0, 63, 100
1, 5556, Note_off_c, 0, 63, 100
1, 5556, Note_on_c, 0, 63, 100
1, 5652, Note_off_c, 0, 63, 100
1, 6180, Note_on_c, 0, 74, 100
1, 6228, Note_off_c, 0, 74, 100
1, 6228, Note_on_c, 0, 72, 100
1, 6276, Note_off_c, 0, 72, 100
1, 6276, Note_on_c, 0, 70, 100
1, 6324, Note_off_c, 0, 70, 100
1, 6324, Note_on_c, 0, 68, 100
1, 6420, Note_off_c, 0, 68, 100
1, 6420, Note_on_c, 0, 72, 100
1, 6452, Note_off_c, 0, 72, 100
1, 6452, Note_on_c, 0, 70, 100
1, 6483, Note_off_c, 0, 70, 100
1, 6483, Note_on_c, 0, 68, 100
1, 6515, Note_off_c, 0, 68, 100
1, 6515, Note_on_c, 0, 66, 100
1, 6591, Note_off_c, 0, 66, 100
1, 6591, Note_on_c, 0, 70, 100
1, 6629, Note_off_c, 0, 70, 100
1, 6629, Note_on_c, 0, 68, 100
1, 6667, Note_off_c, 0, 68, 100
1, 6667, Note_on_c, 0, 66, 100
1, 6705, Note_off_c, 0, 66, 100
1, 6705, Note_on_c, 0, 65, 100
1, 6737, Note_off_c, 0, 65, 100
1, 6737, Note_on_c, 0, 64, 100
1, 6864, Note_off_c, 0, 64, 100
1, 6864, Note_on_c, 0, 72, 100
1, 8688, Note_off_c, 0, 72, 100
1, 9200, Note_on_c, 0, 70, 100
1, 9264, Note_off_c, 0, 70, 100
1, 9264, Note_on_c, 0, 68, 100
1, 9328, Note_off_c, 0, 68, 100
1, 9328, Note_on_c, 0, 66, 100
1, 9392, Note_off_c, 0, 66, 100
1, 9392, Note_on_c, 0, 65, 100
1, 9440, Note_off_c, 0, 65, 100
1, 9440, Note_on_c, 0, 63, 100
1, 9488, Note_off_c, 0, 63, 100
1, 9488, Note_on_c, 0, 62, 100
1, 9536, Note_off_c, 0, 62, 100
1, 9536, Note_on_c, 0, 65, 100
1, 9584, Note_off_c, 0, 65, 100
1, 9584, Note_on_c, 0, 63, 100
1, 9632, Note_off_c, 0, 63, 100
1, 9632, Note_on_c, 0, 62, 100
1, 9680, Note_off_c, 0, 62, 100
1, 9680, Note_on_c, 0, 58, 100
1, 9728, Note_off_c, 0, 58, 100
1, 9728, Note_on_c, 0, 53, 100
1, 9776, Note_off_c, 0, 53, 100
1, 9776, Note_on_c, 0, 54, 100
1, 9920, Note_off_c, 0, 54, 100
1, 9920, Note_on_c, 0, 63, 100
1, 11264, Note_off_c, 0, 63, 100
1, 12128, Note_on_c, 0, 53, 100
1, 12224, Note_off_c, 0, 53, 100
1, 12224, Note_on_c, 0, 60, 100
1, 12320, Note_off_c, 0, 60, 100
1, 12320, Note_on_c, 0, 62, 100
1, 12416, Note_off_c, 0, 62, 100
1, 12416, Note_on_c, 0, 63, 100
1, 12512, Note_off_c, 0, 63, 100
1, 12512, Note_on_c, 0, 65, 100
1, 12608, Note_off_c, 0, 65, 100
1, 12608, Note_on_c, 0, 61, 100
1, 12656, Note_off_c, 0, 61, 100
1, 12656, Note_on_c, 0, 62, 100
1, 12752, Note_off_c, 0, 62, 100
1, 12752, Note_on_c, 0, 60, 100
1, 12848, Note_off_c, 0, 60, 100
1, 13280, Note_on_c, 0, 53, 100
1, 13376, Note_off_c, 0, 53, 100
1, 13376, Note_on_c, 0, 60, 100
1, 13472, Note_off_c, 0, 60, 100
1, 13472, Note_on_c, 0, 62, 100
1, 13568, Note_off_c, 0, 62, 100
1, 13568, Note_on_c, 0, 63, 100
1, 13664, Note_off_c, 0, 63, 100
1, 13664, Note_on_c, 0, 65, 100
1, 13760, Note_off_c, 0, 65, 100
1, 13760, Note_on_c, 0, 61, 100
1, 13784, Note_off_c, 0, 61, 100
1, 13784, Note_on_c, 0, 62, 100
1, 13856, Note_off_c, 0, 62, 100
1, 13856, Note_on_c, 0, 60, 100
1, 13904, Note_off_c, 0, 60, 100
1, 13904, Note_on_c, 0, 61, 100
1, 14000, Note_off_c, 0, 61, 100
1, 15344, Note_on_c, 0, 60, 100
1, 15408, Note_off_c, 0, 60, 100
1, 15408, Note_on_c, 0, 62, 100
1, 15472, Note_off_c, 0, 62, 100
1, 15472, Note_on_c, 0, 63, 100
1, 15584, Note_off_c, 0, 63, 100
1, 15584, Note_on_c, 0, 65, 100
1, 15632, Note_off_c, 0, 65, 100
1, 15632, Note_on_c, 0, 61, 100
1, 15680, Note_off_c, 0, 61, 100
1, 15680, Note_on_c, 0, 62, 100
1, 15728, Note_off_c, 0, 62, 100
1, 15728, Note_on_c, 0, 67, 100
1, 15824, Note_off_c, 0, 67, 100
1, 16064, Note_on_c, 0, 53, 100
1, 16112, Note_off_c, 0, 53, 100
1, 16112, Note_on_c, 0, 60, 100
1, 16208, Note_off_c, 0, 60, 100
1, 16208, Note_on_c, 0, 62, 100
1, 16304, Note_off_c, 0, 62, 100
1, 16304, Note_on_c, 0, 63, 100
1, 16400, Note_off_c, 0, 63, 100
1, 16400, Note_on_c, 0, 65, 100
1, 16448, Note_off_c, 0, 65, 100
1, 16448, Note_on_c, 0, 61, 100
1, 16496, Note_off_c, 0, 61, 100
1, 16496, Note_on_c, 0, 62, 100
1, 16592, Note_off_c, 0, 62, 100
1, 16592, Note_on_c, 0, 60, 100
1, 16688, Note_off_c, 0, 60, 100
1, 16832, Note_on_c, 0, 53, 100
1, 16880, Note_off_c, 0, 53, 100
1, 16880, Note_on_c, 0, 60, 100
1, 16928, Note_off_c, 0, 60, 100
1, 16928, Note_on_c, 0, 62, 100
1, 16976, Note_off_c, 0, 62, 100
1, 16976, Note_on_c, 0, 63, 100
1, 17024, Note_off_c, 0, 63, 100
1, 17024, Note_on_c, 0, 65, 100
1, 17072, Note_off_c, 0, 65, 100
1, 17072, Note_on_c, 0, 61, 100
1, 17120, Note_off_c, 0, 61, 100
1, 17120, Note_on_c, 0, 62, 100
1, 17168, Note_off_c, 0, 62, 100
1, 17168, Note_on_c, 0, 65, 100
1, 17264, Note_off_c, 0, 65, 100
1, 17264, Note_on_c, 0, 70, 100
1, 17360, Note_off_c, 0, 70, 100
1, 17360, Note_on_c, 0, 69, 100
1, 17456, Note_off_c, 0, 69, 100
1, 17888, Note_on_c, 0, 53, 100
1, 17936, Note_off_c, 0, 53, 100
1, 17936, Note_on_c, 0, 60, 100
1, 17984, Note_off_c, 0, 60, 100
1, 17984, Note_on_c, 0, 62, 100
1, 18032, Note_off_c, 0, 62, 100
1, 18032, Note_on_c, 0, 63, 100
1, 18080, Note_off_c, 0, 63, 100
1, 18080, Note_on_c, 0, 65, 100
1, 18128, Note_off_c, 0, 65, 100
1, 18128, Note_on_c, 0, 61, 100
1, 18176, Note_off_c, 0, 61, 100
1, 18176, Note_on_c, 0, 62, 100
1, 18224, Note_off_c, 0, 62, 100
1, 18224, Note_on_c, 0, 60, 100
1, 18320, Note_off_c, 0, 60, 100
1, 18656, Note_on_c, 0, 70, 100
1, 18704, Note_off_c, 0, 70, 100
1, 18704, Note_on_c, 0, 69, 100
1, 18752, Note_off_c, 0, 69, 100
1, 18752, Note_on_c, 0, 65, 100
1, 18800, Note_off_c, 0, 65, 100
1, 18800, Note_on_c, 0, 67, 100
1, 18848, Note_off_c, 0, 67, 100
1, 18848, Note_on_c, 0, 63, 100
1, 18896, Note_off_c, 0, 63, 100
1, 18896, Note_on_c, 0, 62, 100
1, 18944, Note_off_c, 0, 62, 100
1, 18944, Note_on_c, 0, 60, 100
1, 18992, Note_off_c, 0, 60, 100
1, 18992, Note_on_c, 0, 65, 100
1, 19088, Note_off_c, 0, 65, 100
1, 19088, Note_on_c, 0, 67, 100
1, 19184, Note_off_c, 0, 67, 100
1, 19184, Note_on_c, 0, 62, 100
1, 19232, Note_off_c, 0, 62, 100
1, 19232, Note_on_c, 0, 63, 100
1, 19280, Note_off_c, 0, 63, 100
1, 19280, Note_on_c, 0, 60, 100
1, 19472, Note_off_c, 0, 60, 100
1, 19824, Note_on_c, 0, 68, 100
1, 19888, Note_off_c, 0, 68, 100
1, 19888, Note_on_c, 0, 73, 100
1, 19984, Note_off_c, 0, 73, 100
1, 20144, Note_on_c, 0, 70, 100
1, 20240, Note_off_c, 0, 70, 100
1, 20240, Note_on_c, 0, 66, 100
1, 20336, Note_off_c, 0, 66, 100
1, 20336, Note_on_c, 0, 63, 100
1, 20384, Note_off_c, 0, 63, 100
1, 20384, Note_on_c, 0, 68, 100
1, 20480, Note_off_c, 0, 68, 100
1, 20480, Note_on_c, 0, 65, 100
1, 20576, Note_off_c, 0, 65, 100
1, 20576, Note_on_c, 0, 61, 100
1, 20624, Note_off_c, 0, 61, 100
1, 20624, Note_on_c, 0, 58, 100
1, 20672, Note_off_c, 0, 58, 100
1, 20672, Note_on_c, 0, 63, 100
1, 20720, Note_off_c, 0, 63, 100
1, 20720, Note_on_c, 0, 60, 100
1, 20768, Note_off_c, 0, 60, 100
1, 20768, Note_on_c, 0, 56, 100
1, 20816, Note_off_c, 0, 56, 100
1, 20816, Note_on_c, 0, 51, 100
1, 20912, Note_off_c, 0, 51, 100
1, 21632, Note_on_c, 0, 67, 100
1, 21680, Note_off_c, 0, 67, 100
1, 21680, Note_on_c, 0, 68, 100
1, 21776, Note_off_c, 0, 68, 100
1, 21776, Note_on_c, 0, 73, 100
1, 21824, Note_off_c, 0, 73, 100
1, 21824, Note_on_c, 0, 70, 100
1, 21872, Note_off_c, 0, 70, 100
1, 21872, Note_on_c, 0, 66, 100
1, 21920, Note_off_c, 0, 66, 100
1, 21920, Note_on_c, 0, 65, 100
1, 21968, Note_off_c, 0, 65, 100
1, 21968, Note_on_c, 0, 64, 100
1, 22016, Note_off_c, 0, 64, 100
1, 22016, Note_on_c, 0, 63, 100
1, 22064, Note_off_c, 0, 63, 100
1, 22064, Note_on_c, 0, 65, 100
1, 22128, Note_off_c, 0, 65, 100
1, 22128, Note_on_c, 0, 66, 100
1, 22192, Note_off_c, 0, 66, 100
1, 22192, Note_on_c, 0, 68, 100
1, 22256, Note_off_c, 0, 68, 100
1, 22256, Note_on_c, 0, 65, 100
1, 22294, Note_off_c, 0, 65, 100
1, 22294, Note_on_c, 0, 64, 100
1, 22332, Note_off_c, 0, 64, 100
1, 22332, Note_on_c, 0, 63, 100
1, 22370, Note_off_c, 0, 63, 100
1, 22370, Note_on_c, 0, 68, 100
1, 22408, Note_off_c, 0, 68, 100
1, 22408, Note_on_c, 0, 66, 100
1, 22446, Note_off_c, 0, 66, 100
1, 22446, Note_on_c, 0, 61, 100
1, 22494, Note_off_c, 0, 61, 100
1, 22494, Note_on_c, 0, 58, 100
1, 22542, Note_off_c, 0, 58, 100
1, 22542, Note_on_c, 0, 56, 100
1, 22590, Note_off_c, 0, 56, 100
1, 22590, Note_on_c, 0, 63, 100
1, 22686, Note_off_c, 0, 63, 100
1, 22686, Note_on_c, 0, 61, 100
1, 22734, Note_off_c, 0, 61, 100
1, 22734, Note_on_c, 0, 58, 100
1, 22830, Note_off_c, 0, 58, 100
1, 22830, Note_on_c, 0, 56, 100
1, 22878, Note_off_c, 0, 56, 100
1, 22878, Note_on_c, 0, 54, 100
1, 22926, Note_off_c, 0, 54, 100
1, 22926, Note_on_c, 0, 49, 100
1, 22974, Note_off_c, 0, 49, 100
1, 22974, Note_on_c, 0, 54, 100
1, 23022, Note_off_c, 0, 54, 100
1, 23022, Note_on_c, 0, 50, 100
1, 23060, Note_off_c, 0, 50, 100
1, 23060, Note_on_c, 0, 51, 100
1, 23136, Note_off_c, 0, 51, 100
1, 23136, Note_on_c, 0, 46, 100
1, 23174, Note_off_c, 0, 46, 100
1, 23174, Note_on_c, 0, 44, 100
1, 23270, Note_off_c, 0, 44, 100
1, 24786, Note_on_c, 0, 70, 100
1, 24824, Note_off_c, 0, 70, 100
1, 24824, Note_on_c, 0, 69, 100
1, 24862, Note_off_c, 0, 69, 100
1, 24862, Note_on_c, 0, 65, 100
1, 24900, Note_off_c, 0, 65, 100
1, 24900, Note_on_c, 0, 67, 100
1, 25034, Note_off_c, 0, 67, 100
1, 25034, Note_on_c, 0, 70, 100
1, 25082, Note_off_c, 0, 70, 100
1, 25082, Note_on_c, 0, 69, 100
1, 25178, Note_off_c, 0, 69, 100
1, 25178, Note_on_c, 0, 65, 100
1, 25226, Note_off_c, 0, 65, 100
1, 25226, Note_on_c, 0, 67, 100
1, 25322, Note_off_c, 0, 67, 100
1, 25322, Note_on_c, 0, 70, 100
1, 25370, Note_off_c, 0, 70, 100
1, 25370, Note_on_c, 0, 69, 100
1, 25418, Note_off_c, 0, 69, 100
1, 25418, Note_on_c, 0, 65, 100
1, 25466, Note_off_c, 0, 65, 100
1, 25466, Note_on_c, 0, 67, 100
1, 25610, Note_off_c, 0, 67, 100
1, 25610, Note_on_c, 0, 70, 100
1, 25658, Note_off_c, 0, 70, 100
1, 25658, Note_on_c, 0, 69, 100
1, 25706, Note_off_c, 0, 69, 100
1, 25706, Note_on_c, 0, 65, 100
1, 25754, Note_off_c, 0, 65, 100
1, 25754, Note_on_c, 0, 67, 100
1, 25802, Note_off_c, 0, 67, 100
1, 25802, Note_on_c, 0, 70, 100
1, 25850, Note_off_c, 0, 70, 100
1, 25850, Note_on_c, 0, 69, 100
1, 25898, Note_off_c, 0, 69, 100
1, 25898, Note_on_c, 0, 65, 100
1, 25994, Note_off_c, 0, 65, 100
1, 25994, Note_on_c, 0, 67, 100
1, 26090, Note_off_c, 0, 67, 100
1, 26090, Note_on_c, 0, 65, 100
1, 26138, Note_off_c, 0, 65, 100
1, 26138, Note_on_c, 0, 67, 100
1, 26186, Note_off_c, 0, 67, 100
1, 26186, Note_on_c, 0, 70, 100
1, 26234, Note_off_c, 0, 70, 100
1, 26234, Note_on_c, 0, 69, 100
1, 26282, Note_off_c, 0, 69, 100
1, 26282, Note_on_c, 0, 65, 100
1, 26378, Note_off_c, 0, 65, 100
1, 26378, Note_on_c, 0, 67, 100
1, 26512, Note_off_c, 0, 67, 100
1, 26512, Note_on_c, 0, 65, 100
1, 26550, Note_off_c, 0, 65, 100
1, 26550, Note_on_c, 0, 67, 100
1, 26588, Note_off_c, 0, 67, 100
1, 26588, Note_on_c, 0, 70, 100
1, 26626, Note_off_c, 0, 70, 100
1, 26626, Note_on_c, 0, 69, 100
1, 26664, Note_off_c, 0, 69, 100
1, 26664, Note_on_c, 0, 65, 100
1, 26712, Note_off_c, 0, 65, 100
1, 26712, Note_on_c, 0, 67, 100
1, 26760, Note_off_c, 0, 67, 100
1, 26760, Note_on_c, 0, 66, 100
1, 26808, Note_off_c, 0, 66, 100
1, 26808, Note_on_c, 0, 65, 100
1, 26856, Note_off_c, 0, 65, 100
1, 26856, Note_on_c, 0, 64, 100
1, 26919, Note_off_c, 0, 64, 100
1, 26919, Note_on_c, 0, 63, 100
1, 26983, Note_off_c, 0, 63, 100
1, 26983, Note_on_c, 0, 65, 100
1, 27046, Note_off_c, 0, 65, 100
1, 27046, Note_on_c, 0, 67, 100
1, 27084, Note_off_c, 0, 67, 100
1, 27084, Note_on_c, 0, 70, 100
1, 27122, Note_off_c, 0, 70, 100
1, 27122, Note_on_c, 0, 69, 100
1, 27160, Note_off_c, 0, 69, 100
1, 27160, Note_on_c, 0, 65, 100
1, 27198, Note_off_c, 0, 65, 100
1, 27198, Note_on_c, 0, 67, 100
1, 27236, Note_off_c, 0, 67, 100
1, 27236, Note_on_c, 0, 64, 100
1, 27332, Note_off_c, 0, 64, 100
1, 27850, Note_on_c, 0, 70, 100
1, 27888, Note_off_c, 0, 70, 100
1, 27888, Note_on_c, 0, 72, 100
1, 27926, Note_off_c, 0, 72, 100
1, 27926, Note_on_c, 0, 76, 100
1, 27964, Note_off_c, 0, 76, 100
1, 27964, Note_on_c, 0, 77, 100
1, 28002, Note_off_c, 0, 77, 100
1, 28002, Note_on_c, 0, 76, 100
1, 28065, Note_off_c, 0, 76, 100
1, 28065, Note_on_c, 0, 70, 100
1, 28129, Note_off_c, 0, 70, 100
1, 28129, Note_on_c, 0, 67, 100
1, 28192, Note_off_c, 0, 67, 100
1, 28192, Note_on_c, 0, 69, 100
1, 28230, Note_off_c, 0, 69, 100
1, 28230, Note_on_c, 0, 66, 100
1, 28268, Note_off_c, 0, 66, 100
1, 28268, Note_on_c, 0, 65, 100
1, 28306, Note_off_c, 0, 65, 100
1, 28306, Note_on_c, 0, 64, 100
1, 28344, Note_off_c, 0, 64, 100
1, 28344, Note_on_c, 0, 63, 100
1, 28382, Note_off_c, 0, 63, 100
1, 28382, Note_on_c, 0, 65, 100
1, 28445, Note_off_c, 0, 65, 100
1, 28445, Note_on_c, 0, 66, 100
1, 28509, Note_off_c, 0, 66, 100
1, 28509, Note_on_c, 0, 68, 100
1, 28572, Note_off_c, 0, 68, 100
1, 28572, Note_on_c, 0, 65, 100
1, 28620, Note_off_c, 0, 65, 100
1, 28620, Note_on_c, 0, 64, 100
1, 28668, Note_off_c, 0, 64, 100
1, 28668, Note_on_c, 0, 63, 100
1, 28716, Note_off_c, 0, 63, 100
1, 28716, Note_on_c, 0, 67, 100
1, 28764, Note_off_c, 0, 67, 100
1, 28764, Note_on_c, 0, 66, 100
1, 28812, Note_off_c, 0, 66, 100
1, 28812, Note_on_c, 0, 61, 100
1, 28860, Note_off_c, 0, 61, 100
1, 28860, Note_on_c, 0, 58, 100
1, 28908, Note_off_c, 0, 58, 100
1, 28908, Note_on_c, 0, 56, 100
1, 28956, Note_off_c, 0, 56, 100
1, 28956, Note_on_c, 0, 63, 100
1, 28988, Note_off_c, 0, 63, 100
1, 28988, Note_on_c, 0, 61, 100
1, 29019, Note_off_c, 0, 61, 100
1, 29019, Note_on_c, 0, 58, 100
1, 29051, Note_off_c, 0, 58, 100
1, 29051, Note_on_c, 0, 56, 100
1, 29083, Note_off_c, 0, 56, 100
1, 29083, Note_on_c, 0, 63, 100
1, 29114, Note_off_c, 0, 63, 100
1, 29114, Note_on_c, 0, 61, 100
1, 29146, Note_off_c, 0, 61, 100
1, 29146, Note_on_c, 0, 58, 100
1, 29178, Note_off_c, 0, 58, 100
1, 29178, Note_on_c, 0, 56, 100
1, 29209, Note_off_c, 0, 56, 100
1, 29209, Note_on_c, 0, 63, 100
1, 29241, Note_off_c, 0, 63, 100
1, 29241, Note_on_c, 0, 61, 100
1, 29273, Note_off_c, 0, 61, 100
1, 29273, Note_on_c, 0, 58, 100
1, 29304, Note_off_c, 0, 58, 100
1, 29304, Note_on_c, 0, 56, 100
1, 29336, Note_off_c, 0, 56, 100
1, 29336, Note_on_c, 0, 63, 100
1, 29374, Note_off_c, 0, 63, 100
1, 29374, Note_on_c, 0, 61, 100
1, 29412, Note_off_c, 0, 61, 100
1, 29412, Note_on_c, 0, 58, 100
1, 29450, Note_off_c, 0, 58, 100
1, 29450, Note_on_c, 0, 56, 100
1, 29488, Note_off_c, 0, 56, 100
1, 29488, Note_on_c, 0, 63, 100
1, 29526, Note_off_c, 0, 63, 100
1, 29526, Note_on_c, 0, 61, 100
1, 29558, Note_off_c, 0, 61, 100
1, 29558, Note_on_c, 0, 58, 100
1, 29589, Note_off_c, 0, 58, 100
1, 29589, Note_on_c, 0, 56, 100
1, 29621, Note_off_c, 0, 56, 100
1, 29621, Note_on_c, 0, 63, 100
1, 29653, Note_off_c, 0, 63, 100
1, 29653, Note_on_c, 0, 61, 100
1, 29684, Note_off_c, 0, 61, 100
1, 29684, Note_on_c, 0, 58, 100
1, 29716, Note_off_c, 0, 58, 100
1, 29716, Note_on_c, 0, 56, 100
1, 29764, Note_off_c, 0, 56, 100
1, 29764, Note_on_c, 0, 63, 100
1, 29860, Note_off_c, 0, 63, 100
1, 30100, Note_on_c, 0, 63, 100
1, 30138, Note_off_c, 0, 63, 100
1, 30138, Note_on_c, 0, 62, 100
1, 30176, Note_off_c, 0, 62, 100
1, 30176, Note_on_c, 0, 59, 100
1, 30214, Note_off_c, 0, 59, 100
1, 30214, Note_on_c, 0, 56, 100
1, 30252, Note_off_c, 0, 56, 100
1, 30252, Note_on_c, 0, 63, 100
1, 30290, Note_off_c, 0, 63, 100
1, 30290, Note_on_c, 0, 62, 100
1, 30317, Note_off_c, 0, 62, 100
1, 30317, Note_on_c, 0, 59, 100
1, 30344, Note_off_c, 0, 59, 100
1, 30344, Note_on_c, 0, 56, 100
1, 30371, Note_off_c, 0, 56, 100
1, 30371, Note_on_c, 0, 63, 100
1, 30425, Note_off_c, 0, 63, 100
1, 30425, Note_on_c, 0, 62, 100
1, 30452, Note_off_c, 0, 62, 100
1, 30452, Note_on_c, 0, 59, 100
1, 30479, Note_off_c, 0, 59, 100
1, 30479, Note_on_c, 0, 56, 100
1, 30517, Note_off_c, 0, 56, 100
1, 30517, Note_on_c, 0, 63, 100
1, 30555, Note_off_c, 0, 63, 100
1, 30555, Note_on_c, 0, 62, 100
1, 30593, Note_off_c, 0, 62, 100
1, 30593, Note_on_c, 0, 59, 100
1, 30631, Note_off_c, 0, 59, 100
1, 30631, Note_on_c, 0, 56, 100
1, 30669, Note_off_c, 0, 56, 100
1, 30669, Note_on_c, 0, 63, 100
1, 30701, Note_off_c, 0, 63, 100
1, 30701, Note_on_c, 0, 62, 100
1, 30732, Note_off_c, 0, 62, 100
1, 30732, Note_on_c, 0, 59, 100
1, 30764, Note_off_c, 0, 59, 100
1, 30764, Note_on_c, 0, 56, 100
1, 30796, Note_off_c, 0, 56, 100
1, 30796, Note_on_c, 0, 63, 100
1, 30827, Note_off_c, 0, 63, 100
1, 30827, Note_on_c, 0, 62, 100
1, 30859, Note_off_c, 0, 62, 100
1, 30859, Note_on_c, 0, 59, 100
1, 30897, Note_off_c, 0, 59, 100
1, 30897, Note_on_c, 0, 56, 100
1, 30935, Note_off_c, 0, 56, 100
1, 30935, Note_on_c, 0, 63, 100
1, 30973, Note_off_c, 0, 63, 100
1, 30973, Note_on_c, 0, 61, 100
1, 31011, Note_off_c, 0, 61, 100
1, 31011, Note_on_c, 0, 58, 100
1, 31049, Note_off_c, 0, 58, 100
1, 31049, Note_on_c, 0, 56, 100
1, 31076, Note_off_c, 0, 56, 100
1, 31076, Note_on_c, 0, 63, 100
1, 31130, Note_off_c, 0, 63, 100
1, 31130, Note_on_c, 0, 61, 100
1, 31157, Note_off_c, 0, 61, 100
1, 31157, Note_on_c, 0, 58, 100
1, 31184, Note_off_c, 0, 58, 100
1, 31184, Note_on_c, 0, 56, 100
1, 31211, Note_off_c, 0, 56, 100
1, 31211, Note_on_c, 0, 63, 100
1, 31307, Note_off_c, 0, 63, 100
1, 31574, Note_on_c, 0, 63, 100
1, 31670, Note_off_c, 0, 63, 100
1, 31670, Note_on_c, 0, 65, 100
1, 31766, Note_off_c, 0, 65, 100
1, 31766, Note_on_c, 0, 65, 100
1, 31910, Note_off_c, 0, 65, 100
1, 31910, Note_on_c, 0, 67, 100
1, 32150, Note_off_c, 0, 67, 100
1, 32150, Note_on_c, 0, 67, 100
1, 32198, Note_off_c, 0, 67, 100
1, 32198, Note_on_c, 0, 69, 100
1, 32246, Note_off_c, 0, 69, 100
1, 32246, Note_on_c, 0, 67, 100
1, 32294, Note_off_c, 0, 67, 100
1, 32294, Note_on_c, 0, 65, 100
1, 32342, Note_off_c, 0, 65, 100
1, 32342, Note_on_c, 0, 70, 100
1, 32390, Note_off_c, 0, 70, 100
1, 32390, Note_on_c, 0, 68, 100
1, 32453, Note_off_c, 0, 68, 100
1, 32453, Note_on_c, 0, 66, 100
1, 32517, Note_off_c, 0, 66, 100
1, 32517, Note_on_c, 0, 71, 100
1, 32580, Note_off_c, 0, 71, 100
1, 32580, Note_on_c, 0, 69, 100
1, 32676, Note_off_c, 0, 69, 100
1, 32676, Note_on_c, 0, 67, 100
1, 32772, Note_off_c, 0, 67, 100
1, 33204, Note_on_c, 0, 73, 100
1, 33252, Note_off_c, 0, 73, 100
1, 33252, Note_on_c, 0, 71, 100
1, 33300, Note_off_c, 0, 71, 100
1, 33300, Note_on_c, 0, 70, 100
1, 33348, Note_off_c, 0, 70, 100
1, 33348, Note_on_c, 0, 69, 100
1, 33396, Note_off_c, 0, 69, 100
1, 33396, Note_on_c, 0, 68, 100
1, 33444, Note_off_c, 0, 68, 100
1, 33444, Note_on_c, 0, 67, 100
1, 33492, Note_off_c, 0, 67, 100
1, 33492, Note_on_c, 0, 66, 100
1, 33540, Note_off_c, 0, 66, 100
1, 33540, Note_on_c, 0, 65, 100
1, 33588, Note_off_c, 0, 65, 100
1, 33588, Note_on_c, 0, 64, 100
1, 33636, Note_off_c, 0, 64, 100
1, 33636, Note_on_c, 0, 63, 100
1, 33684, Note_off_c, 0, 63, 100
1, 33684, Note_on_c, 0, 67, 100
1, 33732, Note_off_c, 0, 67, 100
1, 33732, Note_on_c, 0, 63, 100
1, 33780, Note_off_c, 0, 63, 100
1, 33780, Note_on_c, 0, 62, 100
1, 33828, Note_off_c, 0, 62, 100
1, 33828, Note_on_c, 0, 61, 100
1, 33876, Note_off_c, 0, 61, 100
1, 33876, Note_on_c, 0, 64, 100
1, 33924, Note_off_c, 0, 64, 100
1, 33924, Note_on_c, 0, 63, 100
1, 33962, Note_off_c, 0, 63, 100
1, 33962, Note_on_c, 0, 62, 100
1, 34000, Note_off_c, 0, 62, 100
1, 34000, Note_on_c, 0, 65, 100
1, 34038, Note_off_c, 0, 65, 100
1, 34038, Note_on_c, 0, 64, 100
1, 34076, Note_off_c, 0, 64, 100
1, 34076, Note_on_c, 0, 63, 100
1, 34114, Note_off_c, 0, 63, 100
1, 34114, Note_on_c, 0, 66, 100
1, 34178, Note_off_c, 0, 66, 100
1, 34178, Note_on_c, 0, 65, 100
1, 34242, Note_off_c, 0, 65, 100
1, 34242, Note_on_c, 0, 64, 100
1, 34306, Note_off_c, 0, 64, 100
1, 34306, Note_on_c, 0, 65, 100
1, 34354, Note_off_c, 0, 65, 100
1, 34354, Note_on_c, 0, 64, 100
1, 34402, Note_off_c, 0, 64, 100
1, 34402, Note_on_c, 0, 65, 100
1, 34450, Note_off_c, 0, 65, 100
1, 34450, Note_on_c, 0, 66, 100
1, 34562, Note_off_c, 0, 66, 100
1, 34562, Note_on_c, 0, 66, 100
1, 34626, Note_off_c, 0, 66, 100
1, 34626, Note_on_c, 0, 67, 100
1, 34786, Note_off_c, 0, 67, 100
1, 34786, Note_on_c, 0, 67, 100
1, 34834, Note_off_c, 0, 67, 100
1, 34834, Note_on_c, 0, 68, 100
1, 34978, Note_off_c, 0, 68, 100
1, 34978, Note_on_c, 0, 68, 100
1, 35150, Note_off_c, 0, 68, 100
1, 35150, Note_on_c, 0, 69, 100
1, 35188, Note_off_c, 0, 69, 100
1, 35188, Note_on_c, 0, 68, 100
1, 35226, Note_off_c, 0, 68, 100
1, 35226, Note_on_c, 0, 69, 100
1, 35341, Note_off_c, 0, 69, 100
1, 35341, Note_on_c, 0, 70, 100
1, 35379, Note_off_c, 0, 70, 100
1, 35379, Note_on_c, 0, 69, 100
1, 35417, Note_off_c, 0, 69, 100
1, 35417, Note_on_c, 0, 70, 100
1, 35503, Note_off_c, 0, 70, 100
1, 35503, Note_on_c, 0, 71, 100
1, 35551, Note_off_c, 0, 71, 100
1, 35551, Note_on_c, 0, 70, 100
1, 35599, Note_off_c, 0, 70, 100
1, 35599, Note_on_c, 0, 71, 100
1, 35647, Note_off_c, 0, 71, 100
1, 35647, Note_on_c, 0, 72, 100
1, 35743, Note_off_c, 0, 72, 100
1, 36069, Note_on_c, 0, 71, 100
1, 36107, Note_off_c, 0, 71, 100
1, 36107, Note_on_c, 0, 72, 100
1, 36145, Note_off_c, 0, 72, 100
1, 36145, Note_on_c, 0, 79, 100
1, 36183, Note_off_c, 0, 79, 100
1, 36183, Note_on_c, 0, 80, 100
1, 36221, Note_off_c, 0, 80, 100
1, 36221, Note_on_c, 0, 79, 100
1, 36413, Note_off_c, 0, 79, 100
1, 36413, Note_on_c, 0, 70, 100
1, 36461, Note_off_c, 0, 70, 100
1, 36461, Note_on_c, 0, 66, 100
1, 36509, Note_off_c, 0, 66, 100
1, 36509, Note_on_c, 0, 65, 100
1, 36557, Note_off_c, 0, 65, 100
1, 36557, Note_on_c, 0, 64, 100
1, 36605, Note_off_c, 0, 64, 100
1, 36605, Note_on_c, 0, 63, 100
1, 36643, Note_off_c, 0, 63, 100
1, 36643, Note_on_c, 0, 65, 100
1, 36681, Note_off_c, 0, 65, 100
1, 36681, Note_on_c, 0, 66, 100
1, 36719, Note_off_c, 0, 66, 100
1, 36719, Note_on_c, 0, 68, 100
1, 36795, Note_off_c, 0, 68, 100
1, 36795, Note_on_c, 0, 65, 100
1, 36833, Note_off_c, 0, 65, 100
1, 36833, Note_on_c, 0, 64, 100
1, 36871, Note_off_c, 0, 64, 100
1, 36871, Note_on_c, 0, 63, 100
1, 36909, Note_off_c, 0, 63, 100
1, 36909, Note_on_c, 0, 67, 100
1, 36947, Note_off_c, 0, 67, 100
1, 36947, Note_on_c, 0, 66, 100
1, 36985, Note_off_c, 0, 66, 100
1, 36985, Note_on_c, 0, 61, 100
1, 37033, Note_off_c, 0, 61, 100
1, 37033, Note_on_c, 0, 58, 100
1, 37081, Note_off_c, 0, 58, 100
1, 37081, Note_on_c, 0, 56, 100
1, 37129, Note_off_c, 0, 56, 100
1, 37129, Note_on_c, 0, 63, 100
1, 37215, Note_off_c, 0, 63, 100
1, 37215, Note_on_c, 0, 61, 100
1, 37253, Note_off_c, 0, 61, 100
1, 37253, Note_on_c, 0, 58, 100
1, 37291, Note_off_c, 0, 58, 100
1, 37291, Note_on_c, 0, 49, 100
1, 37329, Note_off_c, 0, 49, 100
1, 37329, Note_on_c, 0, 57, 100
1, 37367, Note_off_c, 0, 57, 100
1, 37367, Note_on_c, 0, 52, 100
1, 37415, Note_off_c, 0, 52, 100
1, 37415, Note_on_c, 0, 46, 100
1, 37463, Note_off_c, 0, 46, 100
1, 37463, Note_on_c, 0, 53, 100
1, 37511, Note_off_c, 0, 53, 100
1, 37511, Note_on_c, 0, 45, 100
1, 37559, Note_off_c, 0, 45, 100
1, 37559, Note_on_c, 0, 46, 100
1, 37751, Note_off_c, 0, 46, 100
1, 37751, Note_on_c, 0, 45, 100
1, 37815, Note_off_c, 0, 45, 100
1, 37815, Note_on_c, 0, 46, 100
1, 37879, Note_off_c, 0, 46, 100
1, 37879, Note_on_c, 0, 48, 100
1, 37975, Note_off_c, 0, 48, 100
1, 38255, Note_on_c, 0, 74, 100
1, 38279, Note_off_c, 0, 74, 100
1, 38279, Note_on_c, 0, 73, 100
1, 38303, Note_off_c, 0, 73, 100
1, 38303, Note_on_c, 0, 72, 100
1, 38327, Note_off_c, 0, 72, 100
1, 38327, Note_on_c, 0, 71, 100
1, 38351, Note_off_c, 0, 71, 100
1, 38351, Note_on_c, 0, 70, 100
1, 38447, Note_off_c, 0, 70, 100
1, 38447, Note_on_c, 0, 73, 100
1, 38471, Note_off_c, 0, 73, 100
1, 38471, Note_on_c, 0, 71, 100
1, 38495, Note_off_c, 0, 71, 100
1, 38495, Note_on_c, 0, 70, 100
1, 38519, Note_off_c, 0, 70, 100
1, 38519, Note_on_c, 0, 68, 100
1, 38639, Note_off_c, 0, 68, 100
1, 38639, Note_on_c, 0, 69, 100
1, 38663, Note_off_c, 0, 69, 100
1, 38663, Note_on_c, 0, 68, 100
1, 38687, Note_off_c, 0, 68, 100
1, 38687, Note_on_c, 0, 67, 100
1, 38711, Note_off_c, 0, 67, 100
1, 38711, Note_on_c, 0, 66, 100
1, 38807, Note_off_c, 0, 66, 100
1, 38985, Note_on_c, 0, 46, 100
1, 39012, Note_off_c, 0, 46, 100
1, 39012, Note_on_c, 0, 48, 100
1, 39039, Note_off_c, 0, 48, 100
1, 39039, Note_on_c, 0, 50, 100
1, 39066, Note_off_c, 0, 50, 100
1, 39066, Note_on_c, 0, 51, 100
1, 39093, Note_off_c, 0, 51, 100
1, 39093, Note_on_c, 0, 49, 100
1, 39285, Note_off_c, 0, 49, 100
1, 39285, Note_on_c, 0, 49, 100
1, 39333, Note_off_c, 0, 49, 100
1, 39333, Note_on_c, 0, 51, 100
1, 39381, Note_off_c, 0, 51, 100
1, 39381, Note_on_c, 0, 54, 100
1, 39525, Note_off_c, 0, 54, 100
1, 39525, Note_on_c, 0, 54, 100
1, 39573, Note_off_c, 0, 54, 100
1, 39573, Note_on_c, 0, 56, 100
1, 39621, Note_off_c, 0, 56, 100
1, 39621, Note_on_c, 0, 57, 100
1, 39765, Note_off_c, 0, 57, 100
1, 39765, Note_on_c, 0, 52, 100
1, 39789, Note_off_c, 0, 52, 100
1, 39789, Note_on_c, 0, 54, 100
1, 39813, Note_off_c, 0, 54, 100
1, 39813, Note_on_c, 0, 56, 100
1, 39837, Note_off_c, 0, 56, 100
1, 39837, Note_on_c, 0, 57, 100
1, 39933, Note_off_c, 0, 57, 100
1, 40101, Note_on_c, 0, 70, 100
1, 40149, Note_off_c, 0, 70, 100
1, 40149, Note_on_c, 0, 69, 100
1, 40197, Note_off_c, 0, 69, 100
1, 40197, Note_on_c, 0, 68, 100
1, 40245, Note_off_c, 0, 68, 100
1, 40245, Note_on_c, 0, 67, 100
1, 40293, Note_off_c, 0, 67, 100
1, 40293, Note_on_c, 0, 66, 100
1, 40341, Note_off_c, 0, 66, 100
1, 40341, Note_on_c, 0, 65, 100
1, 40389, Note_off_c, 0, 65, 100
1, 40389, Note_on_c, 0, 64, 100
1, 40437, Note_off_c, 0, 64, 100
1, 40437, Note_on_c, 0, 63, 100
1, 40464, Note_off_c, 0, 63, 100
1, 40464, Note_on_c, 0, 67, 100
1, 40518, Note_off_c, 0, 67, 100
1, 40518, Note_on_c, 0, 69, 100
1, 40545, Note_off_c, 0, 69, 100
1, 40545, Note_on_c, 0, 67, 100
1, 40572, Note_off_c, 0, 67, 100
1, 40572, Note_on_c, 0, 69, 100
1, 40599, Note_off_c, 0, 69, 100
1, 40599, Note_on_c, 0, 66, 100
1, 40674, Note_off_c, 0, 66, 100
1, 40674, Note_on_c, 0, 61, 100
1, 40722, Note_off_c, 0, 61, 100
1, 40722, Note_on_c, 0, 58, 100
1, 40770, Note_off_c, 0, 58, 100
1, 40770, Note_on_c, 0, 56, 100
1, 40818, Note_off_c, 0, 56, 100
1, 40818, Note_on_c, 0, 64, 100
1, 40856, Note_off_c, 0, 64, 100
1, 40856, Note_on_c, 0, 61, 100
1, 40894, Note_off_c, 0, 61, 100
1, 40894, Note_on_c, 0, 57, 100
1, 40970, Note_off_c, 0, 57, 100
1, 40970, Note_on_c, 0, 59, 100
1, 41008, Note_off_c, 0, 59, 100
1, 41008, Note_on_c, 0, 54, 100
1, 41056, Note_off_c, 0, 54, 100
1, 41056, Note_on_c, 0, 53, 100
1, 41104, Note_off_c, 0, 53, 100
1, 41104, Note_on_c, 0, 52, 100
1, 41152, Note_off_c, 0, 52, 100
1, 41152, Note_on_c, 0, 51, 100
1, 41248, Note_off_c, 0, 51, 100
1, 41248, Note_on_c, 0, 59, 100
1, 41296, Note_off_c, 0, 59, 100
1, 41296, Note_on_c, 0, 61, 100
1, 41344, Note_off_c, 0, 61, 100
1, 41344, Note_on_c, 0, 63, 100
1, 41392, Note_off_c, 0, 63, 100
1, 41392, Note_on_c, 0, 61, 100
1, 41440, Note_off_c, 0, 61, 100
1, 41440, Note_on_c, 0, 57, 100
1, 41536, Note_off_c, 0, 57, 100
1, 41536, Note_on_c, 0, 59, 100
1, 41584, Note_off_c, 0, 59, 100
1, 41584, Note_on_c, 0, 61, 100
1, 41632, Note_off_c, 0, 61, 100
1, 41632, Note_on_c, 0, 66, 100
1, 41680, Note_off_c, 0, 66, 100
1, 41680, Note_on_c, 0, 68, 100
1, 41728, Note_off_c, 0, 68, 100
1, 41728, Note_on_c, 0, 73, 100
1, 41776, Note_off_c, 0, 73, 100
1, 41776, Note_on_c, 0, 72, 100
1, 41824, Note_off_c, 0, 72, 100
1, 41824, Note_on_c, 0, 70, 100
1, 41872, Note_off_c, 0, 70, 100
1, 41872, Note_on_c, 0, 68, 100
1, 41968, Note_off_c, 0, 68, 100
1, 42192, Note_on_c, 0, 73, 100
1, 42224, Note_off_c, 0, 73, 100
1, 42224, Note_on_c, 0, 71, 100
1, 42256, Note_off_c, 0, 71, 100
1, 42256, Note_on_c, 0, 69, 100
1, 42288, Note_off_c, 0, 69, 100
1, 42288, Note_on_c, 0, 68, 100
1, 42320, Note_off_c, 0, 68, 100
1, 42320, Note_on_c, 0, 73, 100
1, 42390, Note_off_c, 0, 73, 100
1, 42390, Note_on_c, 0, 71, 100
1, 42428, Note_off_c, 0, 71, 100
1, 42428, Note_on_c, 0, 69, 100
1, 42466, Note_off_c, 0, 69, 100
1, 42466, Note_on_c, 0, 68, 100
1, 42504, Note_off_c, 0, 68, 100
1, 42504, Note_on_c, 0, 73, 100
1, 42542, Note_off_c, 0, 73, 100
1, 42542, Note_on_c, 0, 71, 100
1, 42563, Note_off_c, 0, 71, 100
1, 42563, Note_on_c, 0, 69, 100
1, 42605, Note_off_c, 0, 69, 100
1, 42605, Note_on_c, 0, 68, 100
1, 42647, Note_off_c, 0, 68, 100
1, 42647, Note_on_c, 0, 73, 100
1, 42689, Note_off_c, 0, 73, 100
1, 42689, Note_on_c, 0, 71, 100
1, 42710, Note_off_c, 0, 71, 100
1, 42710, Note_on_c, 0, 69, 100
1, 42731, Note_off_c, 0, 69, 100
1, 42731, Note_on_c, 0, 68, 100
1, 42769, Note_off_c, 0, 68, 100
1, 42769, Note_on_c, 0, 73, 100
1, 42807, Note_off_c, 0, 73, 100
1, 42807, Note_on_c, 0, 71, 100
1, 42845, Note_off_c, 0, 71, 100
1, 42845, Note_on_c, 0, 69, 100
1, 42883, Note_off_c, 0, 69, 100
1, 42883, Note_on_c, 0, 68, 100
1, 42921, Note_off_c, 0, 68, 100
1, 42921, Note_on_c, 0, 73, 100
1, 42953, Note_off_c, 0, 73, 100
1, 42953, Note_on_c, 0, 71, 100
1, 42985, Note_off_c, 0, 71, 100
1, 42985, Note_on_c, 0, 69, 100
1, 43017, Note_off_c, 0, 69, 100
1, 43017, Note_on_c, 0, 68, 100
1, 43049, Note_off_c, 0, 68, 100
1, 43049, Note_on_c, 0, 73, 100
1, 43081, Note_off_c, 0, 73, 100
1, 43081, Note_on_c, 0, 71, 100
1, 43113, Note_off_c, 0, 71, 100
1, 43113, Note_on_c, 0, 69, 100
1, 43137, Note_off_c, 0, 69, 100
1, 43137, Note_on_c, 0, 68, 100
1, 43185, Note_off_c, 0, 68, 100
1, 43185, Note_on_c, 0, 73, 100
1, 43233, Note_off_c, 0, 73, 100
1, 43233, Note_on_c, 0, 71, 100
1, 43257, Note_off_c, 0, 71, 100
1, 43257, Note_on_c, 0, 69, 100
1, 43281, Note_off_c, 0, 69, 100
1, 43281, Note_on_c, 0, 68, 100
1, 43337, Note_off_c, 0, 68, 100
1, 43337, Note_on_c, 0, 73, 100
1, 43369, Note_off_c, 0, 73, 100
1, 43369, Note_on_c, 0, 71, 100
1, 43401, Note_off_c, 0, 71, 100
1, 43401, Note_on_c, 0, 69, 100
1, 43433, Note_off_c, 0, 69, 100
1, 43433, Note_on_c, 0, 68, 100
1, 43465, Note_off_c, 0, 68, 100
1, 43465, Note_on_c, 0, 67, 100
1, 43753, Note_off_c, 0, 67, 100
1, 43977, Note_on_c, 0, 67, 100
1, 44025, Note_off_c, 0, 67, 100
1, 44025, Note_on_c, 0, 77, 100
1, 44073, Note_off_c, 0, 77, 100
1, 44073, Note_on_c, 0, 79, 100
1, 44745, Note_off_c, 0, 79, 100
1, 44745, Note_on_c, 0, 74, 100
1, 44841, Note_off_c, 0, 74, 100
1, 44841, Note_on_c, 0, 71, 100
1, 44889, Note_off_c, 0, 71, 100
1, 44889, Note_on_c, 0, 67, 100
1, 44985, Note_off_c, 0, 67, 100
1, 45225, Note_on_c, 0, 63, 100
1, 45273, Note_off_c, 0, 63, 100
1, 45273, Note_on_c, 0, 69, 100
1, 45321, Note_off_c, 0, 69, 100
1, 45321, Note_on_c, 0, 71, 100
1, 45417, Note_off_c, 0, 71, 100
1, 45417, Note_on_c, 0, 75, 100
1, 45455, Note_off_c, 0, 75, 100
1, 45455, Note_on_c, 0, 77, 100
1, 45493, Note_off_c, 0, 77, 100
1, 45493, Note_on_c, 0, 75, 100
1, 45531, Note_off_c, 0, 75, 100
1, 45531, Note_on_c, 0, 71, 100
1, 45569, Note_off_c, 0, 71, 100
1, 45569, Note_on_c, 0, 69, 100
1, 45645, Note_off_c, 0, 69, 100
1, 45645, Note_on_c, 0, 75, 100
1, 45683, Note_off_c, 0, 75, 100
1, 45683, Note_on_c, 0, 71, 100
1, 45721, Note_off_c, 0, 71, 100
1, 45721, Note_on_c, 0, 68, 100
1, 45759, Note_off_c, 0, 68, 100
1, 45759, Note_on_c, 0, 69, 100
1, 45797, Note_off_c, 0, 69, 100
1, 45797, Note_on_c, 0, 65, 100
1, 45845, Note_off_c, 0, 65, 100
1, 45845, Note_on_c, 0, 62, 100
1, 45893, Note_off_c, 0, 62, 100
1, 45893, Note_on_c, 0, 58, 100
1, 45941, Note_off_c, 0, 58, 100
1, 45941, Note_on_c, 0, 63, 100
1, 45989, Note_off_c, 0, 63, 100
1, 45989, Note_on_c, 0, 67, 100
1, 46053, Note_off_c, 0, 67, 100
1, 46053, Note_on_c, 0, 71, 100
1, 46117, Note_off_c, 0, 71, 100
1, 46117, Note_on_c, 0, 75, 100
1, 46181, Note_off_c, 0, 75, 100
1, 46181, Note_on_c, 0, 79, 100
1, 46229, Note_off_c, 0, 79, 100
1, 46229, Note_on_c, 0, 81, 100
1, 46757, Note_off_c, 0, 81, 100
1, 46757, Note_on_c, 0, 79, 100
1, 46805, Note_off_c, 0, 79, 100
1, 46805, Note_on_c, 0, 74, 100
1, 46853, Note_off_c, 0, 74, 100
1, 46853, Note_on_c, 0, 70, 100
1, 46901, Note_off_c, 0, 70, 100
1, 46901, Note_on_c, 0, 67, 100
1, 46949, Note_off_c, 0, 67, 100
1, 46949, Note_on_c, 0, 69, 100
1, 46987, Note_off_c, 0, 69, 100
1, 46987, Note_on_c, 0, 65, 100
1, 47025, Note_off_c, 0, 65, 100
1, 47025, Note_on_c, 0, 62, 100
1, 47063, Note_off_c, 0, 62, 100
1, 47063, Note_on_c, 0, 58, 100
1, 47101, Note_off_c, 0, 58, 100
1, 47101, Note_on_c, 0, 63, 100
1, 47197, Note_off_c, 0, 63, 100
1, 47523, Note_on_c, 0, 79, 100
1, 47571, Note_off_c, 0, 79, 100
1, 47571, Note_on_c, 0, 81, 100
1, 47859, Note_off_c, 0, 81, 100
1, 47859, Note_on_c, 0, 70, 100
1, 47907, Note_off_c, 0, 70, 100
1, 47907, Note_on_c, 0, 75, 100
1, 48147, Note_off_c, 0, 75, 100
1, 48147, Note_on_c, 0, 47, 100
1, 48195, Note_off_c, 0, 47, 100
1, 48195, Note_on_c, 0, 51, 100
1, 48243, Note_off_c, 0, 51, 100
1, 48243, Note_on_c, 0, 58, 100
1, 48387, Note_off_c, 0, 58, 100
1, 48387, Note_on_c, 0, 53, 100
1, 48435, Note_off_c, 0, 53, 100
1, 48435, Note_on_c, 0, 52, 100
1, 48483, Note_off_c, 0, 52, 100
1, 48483, Note_on_c, 0, 51, 100
1, 48521, Note_off_c, 0, 51, 100
1, 48521, Note_on_c, 0, 55, 100
1, 48559, Note_off_c, 0, 55, 100
1, 48559, Note_on_c, 0, 59, 100
1, 48597, Note_off_c, 0, 59, 100
1, 48597, Note_on_c, 0, 61, 100
1, 48635, Note_off_c, 0, 61, 100
1, 48635, Note_on_c, 0, 63, 100
1, 48673, Note_off_c, 0, 63, 100
1, 48673, Note_on_c, 0, 61, 100
1, 48737, Note_off_c, 0, 61, 100
1, 48737, Note_on_c, 0, 57, 100
1, 48801, Note_off_c, 0, 57, 100
1, 48801, Note_on_c, 0, 53, 100
1, 48865, Note_off_c, 0, 53, 100
1, 48865, Note_on_c, 0, 59, 100
1, 48897, Note_off_c, 0, 59, 100
1, 48897, Note_on_c, 0, 63, 100
1, 48961, Note_off_c, 0, 63, 100
1, 48961, Note_on_c, 0, 67, 100
1, 48993, Note_off_c, 0, 67, 100
1, 48993, Note_on_c, 0, 71, 100
1, 49057, Note_off_c, 0, 71, 100
1, 49057, Note_on_c, 0, 67, 100
1, 49105, Note_off_c, 0, 67, 100
1, 49105, Note_on_c, 0, 66, 100
1, 49153, Note_off_c, 0, 66, 100
1, 49153, Note_on_c, 0, 68, 100
1, 49201, Note_off_c, 0, 68, 100
1, 49201, Note_on_c, 0, 71, 100
1, 49249, Note_off_c, 0, 71, 100
1, 49249, Note_on_c, 0, 73, 100
1, 49297, Note_off_c, 0, 73, 100
1, 49297, Note_on_c, 0, 74, 100
1, 49345, Note_off_c, 0, 74, 100
1, 49345, Note_on_c, 0, 75, 100
1, 49393, Note_off_c, 0, 75, 100
1, 49393, Note_on_c, 0, 73, 100
1, 49441, Note_off_c, 0, 73, 100
1, 49441, Note_on_c, 0, 71, 100
1, 49489, Note_off_c, 0, 71, 100
1, 49489, Note_on_c, 0, 70, 100
1, 49537, Note_off_c, 0, 70, 100
1, 49537, Note_on_c, 0, 69, 100
1, 49585, Note_off_c, 0, 69, 100
1, 49585, Note_on_c, 0, 68, 100
1, 49633, Note_off_c, 0, 68, 100
1, 49633, Note_on_c, 0, 67, 100
1, 49681, Note_off_c, 0, 67, 100
1, 49681, Note_on_c, 0, 67, 100
1, 49777, Note_off_c, 0, 67, 100
1, 49921, Note_on_c, 0, 67, 100
1, 49969, Note_off_c, 0, 67, 100
1, 49969, Note_on_c, 0, 67, 100
1, 50065, Note_off_c, 0, 67, 100
1, 50209, Note_on_c, 0, 67, 100
1, 50257, Note_off_c, 0, 67, 100
1, 50257, Note_on_c, 0, 67, 100
1, 50305, Note_off_c, 0, 67, 100
1, 50305, Note_on_c, 0, 67, 100
1, 50353, Note_off_c, 0, 67, 100
1, 50353, Note_on_c, 0, 67, 100
1, 50401, Note_off_c, 0, 67, 100
1, 50401, Note_on_c, 0, 67, 100
1, 52609, Note_off_c, 0, 67, 100
1, 52897, Note_on_c, 0, 67, 100
1, 52935, Note_off_c, 0, 67, 100
1, 52935, Note_on_c, 0, 68, 100
1, 52973, Note_off_c, 0, 68, 100
1, 52973, Note_on_c, 0, 73, 100
1, 53011, Note_off_c, 0, 73, 100
1, 53011, Note_on_c, 0, 74, 100
1, 53049, Note_off_c, 0, 74, 100
1, 53049, Note_on_c, 0, 67, 100
1, 53519, Note_off_c, 0, 67, 100
1, 53519, Note_on_c, 0, 62, 100
1, 53567, Note_off_c, 0, 62, 100
1, 53567, Note_on_c, 0, 67, 100
1, 53855, Note_off_c, 0, 67, 100
1, 53855, Note_on_c, 0, 67, 100
1, 53882, Note_off_c, 0, 67, 100
1, 53882, Note_on_c, 0, 60, 100
1, 53909, Note_off_c, 0, 60, 100
1, 53909, Note_on_c, 0, 62, 100
1, 53936, Note_off_c, 0, 62, 100
1, 53936, Note_on_c, 0, 64, 100
1, 53963, Note_off_c, 0, 64, 100
1, 53963, Note_on_c, 0, 67, 100
1, 53990, Note_off_c, 0, 67, 100
1, 53990, Note_on_c, 0, 64, 100
1, 54017, Note_off_c, 0, 64, 100
1, 54017, Note_on_c, 0, 63, 100
1, 54092, Note_off_c, 0, 63, 100
1, 54092, Note_on_c, 0, 67, 100
1, 54140, Note_off_c, 0, 67, 100
1, 54140, Note_on_c, 0, 65, 100
1, 54188, Note_off_c, 0, 65, 100
1, 54188, Note_on_c, 0, 65, 100
1, 54380, Note_off_c, 0, 65, 100
1, 54380, Note_on_c, 0, 67, 100
1, 54466, Note_off_c, 0, 67, 100
1, 54466, Note_on_c, 0, 67, 100
1, 54504, Note_off_c, 0, 67, 100
1, 54504, Note_on_c, 0, 68, 100
1, 54542, Note_off_c, 0, 68, 100
1, 54542, Note_on_c, 0, 67, 100
1, 54580, Note_off_c, 0, 67, 100
1, 54580, Note_on_c, 0, 67, 100
1, 54618, Note_off_c, 0, 67, 100
1, 54618, Note_on_c, 0, 67, 100
1, 54666, Note_off_c, 0, 67, 100
1, 54666, Note_on_c, 0, 66, 100
1, 54714, Note_off_c, 0, 66, 100
1, 54714, Note_on_c, 0, 67, 100
1, 54762, Note_off_c, 0, 67, 100
1, 54762, Note_on_c, 0, 75, 100
1, 54810, Note_off_c, 0, 75, 100
1, 54810, Note_on_c, 0, 70, 100
1, 54858, Note_off_c, 0, 70, 100
1, 54858, Note_on_c, 0, 68, 100
1, 54906, Note_off_c, 0, 68, 100
1, 54906, Note_on_c, 0, 67, 100
1, 55002, Note_off_c, 0, 67, 100
1, 55242, Note_on_c, 0, 67, 100
1, 55290, Note_off_c, 0, 67, 100
1, 55290, Note_on_c, 0, 70, 100
1, 55338, Note_off_c, 0, 70, 100
1, 55338, Note_on_c, 0, 67, 100
1, 55482, Note_off_c, 0, 67, 100
1, 55482, Note_on_c, 0, 67, 100
1, 55530, Note_off_c, 0, 67, 100
1, 55530, Note_on_c, 0, 67, 100
1, 55578, Note_off_c, 0, 67, 100
1, 55578, Note_on_c, 0, 66, 100
1, 55626, Note_off_c, 0, 66, 100
1, 55626, Note_on_c, 0, 65, 100
1, 55674, Note_off_c, 0, 65, 100
1, 55674, Note_on_c, 0, 64, 100
1, 55722, Note_off_c, 0, 64, 100
1, 55722, Note_on_c, 0, 63, 100
1, 55770, Note_off_c, 0, 63, 100
1, 55770, Note_on_c, 0, 66, 100
1, 55818, Note_off_c, 0, 66, 100
1, 55818, Note_on_c, 0, 70, 100
1, 55866, Note_off_c, 0, 70, 100
1, 55866, Note_on_c, 0, 75, 100
1, 55914, Note_off_c, 0, 75, 100
1, 55914, Note_on_c, 0, 77, 100
1, 55962, Note_off_c, 0, 77, 100
1, 55962, Note_on_c, 0, 75, 100
1, 56010, Note_off_c, 0, 75, 100
1, 56010, Note_on_c, 0, 70, 100
1, 56058, Note_off_c, 0, 70, 100
1, 56058, Note_on_c, 0, 67, 100
1, 56106, Note_off_c, 0, 67, 100
1, 56106, Note_on_c, 0, 69, 100
1, 56154, Note_off_c, 0, 69, 100
1, 56154, Note_on_c, 0, 65, 100
1, 56218, Note_off_c, 0, 65, 100
1, 56218, Note_on_c, 0, 60, 100
1, 56281, Note_off_c, 0, 60, 100
1, 56281, Note_on_c, 0, 58, 100
1, 56345, Note_off_c, 0, 58, 100
1, 56345, Note_on_c, 0, 63, 100
1, 56383, Note_off_c, 0, 63, 100
1, 56383, Note_on_c, 0, 61, 100
1, 56421, Note_off_c, 0, 61, 100
1, 56421, Note_on_c, 0, 58, 100
1, 56459, Note_off_c, 0, 58, 100
1, 56459, Note_on_c, 0, 54, 100
1, 56497, Note_off_c, 0, 54, 100
1, 56497, Note_on_c, 0, 57, 100
1, 56535, Note_off_c, 0, 57, 100
1, 56535, Note_on_c, 0, 53, 100
1, 56583, Note_off_c, 0, 53, 100
1, 56583, Note_on_c, 0, 49, 100
1, 56631, Note_off_c, 0, 49, 100
1, 56631, Note_on_c, 0, 53, 100
1, 56679, Note_off_c, 0, 53, 100
1, 56679, Note_on_c, 0, 51, 100
1, 56727, Note_off_c, 0, 51, 100
1, 56727, Note_on_c, 0, 51, 100
1, 56765, Note_off_c, 0, 51, 100
1, 56765, Note_on_c, 0, 46, 100
1, 56841, Note_off_c, 0, 46, 100
1, 56841, Note_on_c, 0, 45, 100
1, 56879, Note_off_c, 0, 45, 100
1, 56879, Note_on_c, 0, 45, 100
1, 56989, Note_off_c, 0, 45, 100
1, 56989, Note_on_c, 0, 57, 100
1, 57061, Note_off_c, 0, 57, 100
1, 57061, Note_on_c, 0, 53, 100
1, 57085, Note_off_c, 0, 53, 100
1, 57085, Note_on_c, 0, 55, 100
1, 57181, Note_off_c, 0, 55, 100
1, 57493, Note_on_c, 0, 67, 100
1, 57541, Note_off_c, 0, 67, 100
1, 57541, Note_on_c, 0, 70, 100
1, 57589, Note_off_c, 0, 70, 100
1, 57589, Note_on_c, 0, 69, 100
1, 57637, Note_off_c, 0, 69, 100
1, 57637, Note_on_c, 0, 67, 100
1, 57685, Note_off_c, 0, 67, 100
1, 57685, Note_on_c, 0, 67, 100
1, 57723, Note_off_c, 0, 67, 100
1, 57723, Note_on_c, 0, 67, 100
1, 57761, Note_off_c, 0, 67, 100
1, 57761, Note_on_c, 0, 66, 100
1, 57799, Note_off_c, 0, 66, 100
1, 57799, Note_on_c, 0, 67, 100
1, 57837, Note_off_c, 0, 67, 100
1, 57837, Note_on_c, 0, 67, 100
1, 57875, Note_off_c, 0, 67, 100
1, 57875, Note_on_c, 0, 66, 100
1, 57923, Note_off_c, 0, 66, 100
1, 57923, Note_on_c, 0, 65, 100
1, 57971, Note_off_c, 0, 65, 100
1, 57971, Note_on_c, 0, 64, 100
1, 58019, Note_off_c, 0, 64, 100
1, 58019, Note_on_c, 0, 63, 100
1, 58067, Note_off_c, 0, 63, 100
1, 58067, Note_on_c, 0, 65, 100
1, 58131, Note_off_c, 0, 65, 100
1, 58131, Note_on_c, 0, 66, 100
1, 58194, Note_off_c, 0, 66, 100
1, 58194, Note_on_c, 0, 64, 100
1, 58258, Note_off_c, 0, 64, 100
1, 58258, Note_on_c, 0, 65, 100
1, 58282, Note_off_c, 0, 65, 100
1, 58282, Note_on_c, 0, 64, 100
1, 58330, Note_off_c, 0, 64, 100
1, 58330, Note_on_c, 0, 63, 100
1, 58378, Note_off_c, 0, 63, 100
1, 58378, Note_on_c, 0, 67, 100
1, 58426, Note_off_c, 0, 67, 100
1, 58426, Note_on_c, 0, 66, 100
1, 58488, Note_off_c, 0, 66, 100
1, 58488, Note_on_c, 0, 61, 100
1, 58526, Note_off_c, 0, 61, 100
1, 58526, Note_on_c, 0, 58, 100
1, 58564, Note_off_c, 0, 58, 100
1, 58564, Note_on_c, 0, 56, 100
1, 58602, Note_off_c, 0, 56, 100
1, 58602, Note_on_c, 0, 62, 100
1, 58640, Note_off_c, 0, 62, 100
1, 58640, Note_on_c, 0, 61, 100
1, 58688, Note_off_c, 0, 61, 100
1, 58688, Note_on_c, 0, 58, 100
1, 58736, Note_off_c, 0, 58, 100
1, 58736, Note_on_c, 0, 53, 100
1, 58784, Note_off_c, 0, 53, 100
1, 58784, Note_on_c, 0, 56, 100
1, 58832, Note_off_c, 0, 56, 100
1, 58832, Note_on_c, 0, 60, 100
1, 58928, Note_off_c, 0, 60, 100
1, 58928, Note_on_c, 0, 65, 100
1, 59024, Note_off_c, 0, 65, 100
1, 59216, Note_on_c, 0, 67, 100
1, 59264, Note_off_c, 0, 67, 100
1, 59264, Note_on_c, 0, 67, 100
1, 59312, Note_off_c, 0, 67, 100
1, 59312, Note_on_c, 0, 72, 100
1, 59408, Note_off_c, 0, 72, 100
1, 59648, Note_on_c, 0, 58, 100
1, 59696, Note_off_c, 0, 58, 100
1, 59696, Note_on_c, 0, 65, 100
1, 59744, Note_off_c, 0, 65, 100
1, 59744, Note_on_c, 0, 70, 100
1, 59840, Note_off_c, 0, 70, 100
1, 59840, Note_on_c, 0, 60, 100
1, 59888, Note_off_c, 0, 60, 100
1, 59888, Note_on_c, 0, 67, 100
1, 59936, Note_off_c, 0, 67, 100
1, 59936, Note_on_c, 0, 60, 100
1, 60032, Note_off_c, 0, 60, 100
1, 60176, Note_on_c, 0, 58, 100
1, 60214, Note_off_c, 0, 58, 100
1, 60214, Note_on_c, 0, 65, 100
1, 60252, Note_off_c, 0, 65, 100
1, 60252, Note_on_c, 0, 70, 100
1, 60328, Note_off_c, 0, 70, 100
1, 60328, Note_on_c, 0, 60, 100
1, 60366, Note_off_c, 0, 60, 100
1, 60366, Note_on_c, 0, 67, 100
1, 60462, Note_off_c, 0, 67, 100
1, 60462, Note_on_c, 0, 72, 100
1, 60606, Note_off_c, 0, 72, 100
1, 60606, Note_on_c, 0, 61, 100
1, 60654, Note_off_c, 0, 61, 100
1, 60654, Note_on_c, 0, 67, 100
1, 60702, Note_off_c, 0, 67, 100
1, 60702, Note_on_c, 0, 73, 100
1, 60798, Note_off_c, 0, 73, 100
1, 60942, Note_on_c, 0, 63, 100
1, 61006, Note_off_c, 0, 63, 100
1, 61006, Note_on_c, 0, 68, 100
1, 61070, Note_off_c, 0, 68, 100
1, 61070, Note_on_c, 0, 75, 100
1, 61166, Note_off_c, 0, 75, 100
1, 61358, Note_on_c, 0, 63, 100
1, 61422, Note_off_c, 0, 63, 100
1, 61422, Note_on_c, 0, 65, 100
1, 61454, Note_off_c, 0, 65, 100
1, 61454, Note_on_c, 0, 70, 100
1, 61486, Note_off_c, 0, 70, 100
1, 61486, Note_on_c, 0, 63, 100
1, 61518, Note_off_c, 0, 63, 100
1, 61518, Note_on_c, 0, 65, 100
1, 61566, Note_off_c, 0, 65, 100
1, 61566, Note_on_c, 0, 68, 100
1, 61614, Note_off_c, 0, 68, 100
1, 61614, Note_on_c, 0, 71, 100
1, 61662, Note_off_c, 0, 71, 100
1, 61662, Note_on_c, 0, 74, 100
1, 61710, Note_off_c, 0, 74, 100
1, 61710, Note_on_c, 0, 76, 100
1, 61758, Note_off_c, 0, 76, 100
1, 61758, Note_on_c, 0, 77, 100
1, 62430, Note_off_c, 0, 77, 100
1, 62430, Note_on_c, 0, 75, 100
1, 62542, Note_off_c, 0, 75, 100
1, 62542, Note_on_c, 0, 70, 100
1, 62638, Note_off_c, 0, 70, 100
1, 62862, Note_on_c, 0, 75, 100
1, 62910, Note_off_c, 0, 75, 100
1, 62910, Note_on_c, 0, 77, 100
1, 63054, Note_off_c, 0, 77, 100
1, 63054, Note_on_c, 0, 75, 100
1, 63102, Note_off_c, 0, 75, 100
1, 63102, Note_on_c, 0, 71, 100
1, 63150, Note_off_c, 0, 71, 100
1, 63150, Note_on_c, 0, 69, 100
1, 63198, Note_off_c, 0, 69, 100
1, 63198, Note_on_c, 0, 65, 100
1, 63246, Note_off_c, 0, 65, 100
1, 63246, Note_on_c, 0, 61, 100
1, 63284, Note_off_c, 0, 61, 100
1, 63284, Note_on_c, 0, 60, 100
1, 63322, Note_off_c, 0, 60, 100
1, 63322, Note_on_c, 0, 70, 100
1, 63360, Note_off_c, 0, 70, 100
1, 63360, Note_on_c, 0, 65, 100
1, 63580, Note_off_c, 0, 65, 100
1, 63580, Note_on_c, 0, 75, 100
1, 63628, Note_off_c, 0, 75, 100
1, 63628, Note_on_c, 0, 77, 100
1, 63724, Note_off_c, 0, 77, 100
1, 63724, Note_on_c, 0, 76, 100
1, 63820, Note_off_c, 0, 76, 100
1, 63820, Note_on_c, 0, 75, 100
1, 63858, Note_off_c, 0, 75, 100
1, 63858, Note_on_c, 0, 70, 100
1, 63896, Note_off_c, 0, 70, 100
1, 63896, Note_on_c, 0, 66, 100
1, 63934, Note_off_c, 0, 66, 100
1, 63934, Note_on_c, 0, 65, 100
1, 63972, Note_off_c, 0, 65, 100
1, 63972, Note_on_c, 0, 69, 100
1, 64010, Note_off_c, 0, 69, 100
1, 64010, Note_on_c, 0, 66, 100
1, 64074, Note_off_c, 0, 66, 100
1, 64074, Note_on_c, 0, 65, 100
1, 64138, Note_off_c, 0, 65, 100
1, 64138, Note_on_c, 0, 64, 100
1, 64202, Note_off_c, 0, 64, 100
1, 64202, Note_on_c, 0, 63, 100
1, 64240, Note_off_c, 0, 63, 100
1, 64240, Note_on_c, 0, 65, 100
1, 64278, Note_off_c, 0, 65, 100
1, 64278, Note_on_c, 0, 66, 100
1, 64316, Note_off_c, 0, 66, 100
1, 64316, Note_on_c, 0, 68, 100
1, 64354, Note_off_c, 0, 68, 100
1, 64354, Note_on_c, 0, 65, 100
1, 64392, Note_off_c, 0, 65, 100
1, 64392, Note_on_c, 0, 64, 100
1, 64440, Note_off_c, 0, 64, 100
1, 64440, Note_on_c, 0, 63, 100
1, 64488, Note_off_c, 0, 63, 100
1, 64488, Note_on_c, 0, 67, 100
1, 64584, Note_off_c, 0, 67, 100
1, 64584, Note_on_c, 0, 66, 100
1, 64632, Note_off_c, 0, 66, 100
1, 64632, Note_on_c, 0, 61, 100
1, 64680, Note_off_c, 0, 61, 100
1, 64680, Note_on_c, 0, 58, 100
1, 64728, Note_off_c, 0, 58, 100
1, 64728, Note_on_c, 0, 56, 100
1, 64776, Note_off_c, 0, 56, 100
1, 64776, Note_on_c, 0, 63, 100
1, 64814, Note_off_c, 0, 63, 100
1, 64814, Note_on_c, 0, 61, 100
1, 64852, Note_off_c, 0, 61, 100
1, 64852, Note_on_c, 0, 58, 100
1, 64890, Note_off_c, 0, 58, 100
1, 64890, Note_on_c, 0, 53, 100
1, 64928, Note_off_c, 0, 53, 100
1, 64928, Note_on_c, 0, 57, 100
1, 64966, Note_off_c, 0, 57, 100
1, 64966, Note_on_c, 0, 60, 100
1, 65030, Note_off_c, 0, 60, 100
1, 65030, Note_on_c, 0, 65, 100
1, 65094, Note_off_c, 0, 65, 100
1, 65094, Note_on_c, 0, 69, 100
1, 65158, Note_off_c, 0, 69, 100
1, 65158, Note_on_c, 0, 72, 100
1, 65206, Note_off_c, 0, 72, 100
1, 65206, Note_on_c, 0, 73, 100
1, 65254, Note_off_c, 0, 73, 100
1, 65254, Note_on_c, 0, 73, 100
1, 65446, Note_off_c, 0, 73, 100
1, 65446, Note_on_c, 0, 71, 100
1, 65494, Note_off_c, 0, 71, 100
1, 65494, Note_on_c, 0, 68, 100
1, 65686, Note_off_c, 0, 68, 100
1, 65878, Note_on_c, 0, 72, 100
1, 65926, Note_off_c, 0, 72, 100
1, 65926, Note_on_c, 0, 74, 100
1, 66022, Note_off_c, 0, 74, 100
1, 66022, Note_on_c, 0, 69, 100
1, 66118, Note_off_c, 0, 69, 100
1, 66118, Note_on_c, 0, 68, 100
1, 66166, Note_off_c, 0, 68, 100
1, 66166, Note_on_c, 0, 67, 100
1, 66214, Note_off_c, 0, 67, 100
1, 66214, Note_on_c, 0, 66, 100
1, 66262, Note_off_c, 0, 66, 100
1, 66262, Note_on_c, 0, 68, 100
1, 66310, Note_off_c, 0, 68, 100
1, 66310, Note_on_c, 0, 67, 100
1, 66358, Note_off_c, 0, 67, 100
1, 66358, Note_on_c, 0, 66, 100
1, 66406, Note_off_c, 0, 66, 100
1, 66406, Note_on_c, 0, 65, 100
1, 66454, Note_off_c, 0, 65, 100
1, 66454, Note_on_c, 0, 64, 100
1, 66502, Note_off_c, 0, 64, 100
1, 66502, Note_on_c, 0, 63, 100
1, 66550, Note_off_c, 0, 63, 100
1, 66550, Note_on_c, 0, 65, 100
1, 66598, Note_off_c, 0, 65, 100
1, 66598, Note_on_c, 0, 66, 100
1, 66646, Note_off_c, 0, 66, 100
1, 66646, Note_on_c, 0, 64, 100
1, 66694, Note_off_c, 0, 64, 100
1, 66694, Note_on_c, 0, 65, 100
1, 66732, Note_off_c, 0, 65, 100
1, 66732, Note_on_c, 0, 64, 100
1, 66770, Note_off_c, 0, 64, 100
1, 66770, Note_on_c, 0, 63, 100
1, 66808, Note_off_c, 0, 63, 100
1, 66808, Note_on_c, 0, 67, 100
1, 66846, Note_off_c, 0, 67, 100
1, 66846, Note_on_c, 0, 66, 100
1, 66884, Note_off_c, 0, 66, 100
1, 66884, Note_on_c, 0, 61, 100
1, 66932, Note_off_c, 0, 61, 100
1, 66932, Note_on_c, 0, 58, 100
1, 66980, Note_off_c, 0, 58, 100
1, 66980, Note_on_c, 0, 56, 100
1, 67028, Note_off_c, 0, 56, 100
1, 67028, Note_on_c, 0, 63, 100
1, 67076, Note_off_c, 0, 63, 100
1, 67076, Note_on_c, 0, 61, 100
1, 67124, Note_off_c, 0, 61, 100
1, 67124, Note_on_c, 0, 58, 100
1, 67172, Note_off_c, 0, 58, 100
1, 67172, Note_on_c, 0, 54, 100
1, 67220, Note_off_c, 0, 54, 100
1, 67220, Note_on_c, 0, 56, 100
1, 67268, Note_off_c, 0, 56, 100
1, 67268, Note_on_c, 0, 55, 100
1, 67332, Note_off_c, 0, 55, 100
1, 67332, Note_on_c, 0, 54, 100
1, 67396, Note_off_c, 0, 54, 100
1, 67396, Note_on_c, 0, 56, 100
1, 67460, Note_off_c, 0, 56, 100
1, 67460, Note_on_c, 0, 55, 100
1, 67508, Note_off_c, 0, 55, 100
1, 67508, Note_on_c, 0, 58, 100
1, 67556, Note_off_c, 0, 58, 100
1, 67556, Note_on_c, 0, 61, 100
1, 67652, Note_off_c, 0, 61, 100
1, 67892, Note_on_c, 0, 68, 100
1, 67940, Note_off_c, 0, 68, 100
1, 67940, Note_on_c, 0, 68, 100
1, 67988, Note_off_c, 0, 68, 100
1, 67988, Note_on_c, 0, 68, 100
1, 68036, Note_off_c, 0, 68, 100
1, 68036, Note_on_c, 0, 53, 100
1, 68084, Note_off_c, 0, 53, 100
1, 68084, Note_on_c, 0, 68, 100
1, 68180, Note_off_c, 0, 68, 100
1, 68180, Note_on_c, 0, 67, 100
1, 68228, Note_off_c, 0, 67, 100
1, 68228, Note_on_c, 0, 68, 100
1, 68324, Note_off_c, 0, 68, 100
1, 68324, Note_on_c, 0, 68, 100
1, 68420, Note_off_c, 0, 68, 100
1, 68420, Note_on_c, 0, 68, 100
1, 68468, Note_off_c, 0, 68, 100
1, 68468, Note_on_c, 0, 65, 100
1, 68564, Note_off_c, 0, 65, 100
1, 68564, Note_on_c, 0, 65, 100
1, 68676, Note_off_c, 0, 65, 100
1, 68676, Note_on_c, 0, 63, 100
1, 68740, Note_off_c, 0, 63, 100
1, 68740, Note_on_c, 0, 65, 100
1, 68900, Note_off_c, 0, 65, 100
1, 68900, Note_on_c, 0, 63, 100
1, 68948, Note_off_c, 0, 63, 100
1, 68948, Note_on_c, 0, 58, 100
1, 69140, Note_off_c, 0, 58, 100
1, 69428, Note_on_c, 0, 70, 100
1, 69476, Note_off_c, 0, 70, 100
1, 69476, Note_on_c, 0, 68, 100
1, 69524, Note_off_c, 0, 68, 100
1, 69524, Note_on_c, 0, 73, 100
1, 69572, Note_off_c, 0, 73, 100
1, 69572, Note_on_c, 0, 70, 100
1, 69620, Note_off_c, 0, 70, 100
1, 69620, Note_on_c, 0, 66, 100
1, 69668, Note_off_c, 0, 66, 100
1, 69668, Note_on_c, 0, 65, 100
1, 69716, Note_off_c, 0, 65, 100
1, 69716, Note_on_c, 0, 64, 100
1, 69764, Note_off_c, 0, 64, 100
1, 69764, Note_on_c, 0, 63, 100
1, 69812, Note_off_c, 0, 63, 100
1, 69812, Note_on_c, 0, 65, 100
1, 69860, Note_off_c, 0, 65, 100
1, 69860, Note_on_c, 0, 66, 100
1, 69908, Note_off_c, 0, 66, 100
1, 69908, Note_on_c, 0, 68, 100
1, 69956, Note_off_c, 0, 68, 100
1, 69956, Note_on_c, 0, 65, 100
1, 69994, Note_off_c, 0, 65, 100
1, 69994, Note_on_c, 0, 64, 100
1, 70032, Note_off_c, 0, 64, 100
1, 70032, Note_on_c, 0, 63, 100
1, 70070, Note_off_c, 0, 63, 100
1, 70070, Note_on_c, 0, 67, 100
1, 70108, Note_off_c, 0, 67, 100
1, 70108, Note_on_c, 0, 66, 100
1, 70146, Note_off_c, 0, 66, 100
1, 70146, Note_on_c, 0, 61, 100
1, 70194, Note_off_c, 0, 61, 100
1, 70194, Note_on_c, 0, 58, 100
1, 70242, Note_off_c, 0, 58, 100
1, 70242, Note_on_c, 0, 56, 100
1, 70290, Note_off_c, 0, 56, 100
1, 70290, Note_on_c, 0, 63, 100
1, 70338, Note_off_c, 0, 63, 100
1, 70338, Note_on_c, 0, 61, 100
1, 70386, Note_off_c, 0, 61, 100
1, 70386, Note_on_c, 0, 56, 100
1, 70482, Note_off_c, 0, 56, 100
1, 70482, Note_on_c, 0, 58, 100
1, 70530, Note_off_c, 0, 58, 100
1, 70530, Note_on_c, 0, 54, 100
1, 70578, Note_off_c, 0, 54, 100
1, 70578, Note_on_c, 0, 49, 100
1, 70626, Note_off_c, 0, 49, 100
1, 70626, Note_on_c, 0, 54, 100
1, 70674, Note_off_c, 0, 54, 100
1, 70674, Note_on_c, 0, 51, 100
1, 70786, Note_off_c, 0, 51, 100
1, 70786, Note_on_c, 0, 46, 100
1, 70850, Note_off_c, 0, 46, 100
1, 70850, Note_on_c, 0, 44, 100
1, 71042, Note_off_c, 0, 44, 100
1, 71298, Note_on_c, 0, 45, 100
1, 71362, Note_off_c, 0, 45, 100
1, 71362, Note_on_c, 0, 51, 100
1, 71458, Note_off_c, 0, 51, 100
1, 71778, Note_on_c, 0, 48, 100
1, 71826, Note_off_c, 0, 48, 100
1, 71826, Note_on_c, 0, 53, 100
1, 71922, Note_off_c, 0, 53, 100
1, 72066, Note_on_c, 0, 44, 100
1, 72114, Note_off_c, 0, 44, 100
1, 72114, Note_on_c, 0, 51, 100
1, 72258, Note_off_c, 0, 51, 100
1, 72258, Note_on_c, 0, 46, 100
1, 72306, Note_off_c, 0, 46, 100
1, 72306, Note_on_c, 0, 53, 100
1, 72402, Note_off_c, 0, 53, 100
1, 72402, Note_on_c, 0, 48, 100
1, 72498, Note_off_c, 0, 48, 100
1, 72498, Note_on_c, 0, 55, 100
1, 72706, Note_off_c, 0, 55, 100
1, 72706, Note_on_c, 0, 44, 100
1, 72770, Note_off_c, 0, 44, 100
1, 72770, Note_on_c, 0, 51, 100
1, 72978, Note_off_c, 0, 51, 100
1, 72978, Note_on_c, 0, 45, 100
1, 73026, Note_off_c, 0, 45, 100
1, 73026, Note_on_c, 0, 51, 100
1, 73122, Note_off_c, 0, 51, 100
1, 73122, Note_on_c, 0, 46, 100
1, 73170, Note_off_c, 0, 46, 100
1, 73170, Note_on_c, 0, 53, 100
1, 73266, Note_off_c, 0, 53, 100
1, 73266, Note_on_c, 0, 48, 100
1, 73314, Note_off_c, 0, 48, 100
1, 73314, Note_on_c, 0, 55, 100
1, 73362, Note_off_c, 0, 55, 100
1, 73362, Note_on_c, 0, 50, 100
1, 73410, Note_off_c, 0, 50, 100
1, 73410, Note_on_c, 0, 57, 100
1, 73506, Note_off_c, 0, 57, 100
1, 73506, Note_on_c, 0, 52, 100
1, 73554, Note_off_c, 0, 52, 100
1, 73554, Note_on_c, 0, 59, 100
1, 73602, Note_off_c, 0, 59, 100
1, 73602, Note_on_c, 0, 54, 100
1, 73698, Note_off_c, 0, 54, 100
1, 73698, Note_on_c, 0, 61, 100
1, 73746, Note_off_c, 0, 61, 100
1, 73746, Note_on_c, 0, 56, 100
1, 73842, Note_off_c, 0, 56, 100
1, 73842, Note_on_c, 0, 63, 100
1, 73890, Note_off_c, 0, 63, 100
1, 73890, Note_on_c, 0, 58, 100
1, 73938, Note_off_c, 0, 58, 100
1, 73938, Note_on_c, 0, 60, 100
1, 73986, Note_off_c, 0, 60, 100
1, 73986, Note_on_c, 0, 65, 100
1, 74082, Note_off_c, 0, 65, 100
1, 74082, Note_on_c, 0, 61, 100
1, 74130, Note_off_c, 0, 61, 100
1, 74130, Note_on_c, 0, 67, 100
1, 74226, Note_off_c, 0, 67, 100
1, 74226, Note_on_c, 0, 64, 100
1, 74274, Note_off_c, 0, 64, 100
1, 74274, Note_on_c, 0, 69, 100
1, 74322, Note_off_c, 0, 69, 100
1, 74322, Note_on_c, 0, 66, 100
1, 74418, Note_off_c, 0, 66, 100
1, 74418, Note_on_c, 0, 71, 100
1, 74466, Note_off_c, 0, 71, 100
1, 74466, Note_on_c, 0, 68, 100
1, 74514, Note_off_c, 0, 68, 100
1, 74514, Note_on_c, 0, 73, 100
1, 74610, Note_off_c, 0, 73, 100
1, 74802, Note_on_c, 0, 44, 100
1, 74850, Note_off_c, 0, 44, 100
1, 74850, Note_on_c, 0, 51, 100
1, 74898, Note_off_c, 0, 51, 100
1, 74898, Note_on_c, 0, 49, 100
1, 74994, Note_off_c, 0, 49, 100
1, 74994, Note_on_c, 0, 54, 100
1, 75042, Note_off_c, 0, 54, 100
1, 75042, Note_on_c, 0, 50, 100
1, 75090, Note_off_c, 0, 50, 100
1, 75090, Note_on_c, 0, 59, 100
1, 75138, Note_off_c, 0, 59, 100
1, 75138, Note_on_c, 0, 51, 100
1, 75234, Note_off_c, 0, 51, 100
1, 75234, Note_on_c, 0, 59, 100
1, 75282, Note_off_c, 0, 59, 100
1, 75282, Note_on_c, 0, 50, 100
1, 75330, Note_off_c, 0, 50, 100
1, 75330, Note_on_c, 0, 55, 100
1, 75394, Note_off_c, 0, 55, 100
1, 75394, Note_on_c, 0, 48, 100
1, 75458, Note_off_c, 0, 48, 100
1, 75458, Note_on_c, 0, 53, 100
1, 75554, Note_off_c, 0, 53, 100
1, 75714, Note_on_c, 0, 44, 100
1, 75778, Note_off_c, 0, 44, 100
1, 75778, Note_on_c, 0, 51, 100
1, 75842, Note_off_c, 0, 51, 100
1, 75842, Note_on_c, 0, 49, 100
1, 75906, Note_off_c, 0, 49, 100
1, 75906, Note_on_c, 0, 54, 100
1, 75970, Note_off_c, 0, 54, 100
1, 75970, Note_on_c, 0, 52, 100
1, 76034, Note_off_c, 0, 52, 100
1, 76034, Note_on_c, 0, 59, 100
1, 76098, Note_off_c, 0, 59, 100
1, 76098, Note_on_c, 0, 54, 100
1, 76162, Note_off_c, 0, 54, 100
1, 76162, Note_on_c, 0, 61, 100
1, 76226, Note_off_c, 0, 61, 100
1, 76226, Note_on_c, 0, 56, 100
1, 76290, Note_off_c, 0, 56, 100
1, 76290, Note_on_c, 0, 61, 100
1, 76386, Note_off_c, 0, 61, 100
1, 76386, Note_on_c, 0, 59, 100
1, 76434, Note_off_c, 0, 59, 100
1, 76434, Note_on_c, 0, 63, 100
1, 76482, Note_off_c, 0, 63, 100
1, 76482, Note_on_c, 0, 61, 100
1, 76578, Note_off_c, 0, 61, 100
1, 76578, Note_on_c, 0, 66, 100
1, 76626, Note_off_c, 0, 66, 100
1, 76626, Note_on_c, 0, 67, 100
1, 76866, Note_off_c, 0, 67, 100
1, 76866, Note_on_c, 0, 61, 100
1, 76904, Note_off_c, 0, 61, 100
1, 76904, Note_on_c, 0, 63, 100
1, 76942, Note_off_c, 0, 63, 100
1, 76942, Note_on_c, 0, 66, 100
1, 76980, Note_off_c, 0, 66, 100
1, 76980, Note_on_c, 0, 68, 100
1, 77018, Note_off_c, 0, 68, 100
1, 77018, Note_on_c, 0, 63, 100
1, 77104, Note_off_c, 0, 63, 100
1, 77104, Note_on_c, 0, 66, 100
1, 77152, Note_off_c, 0, 66, 100
1, 77152, Note_on_c, 0, 68, 100
1, 77200, Note_off_c, 0, 68, 100
1, 77200, Note_on_c, 0, 71, 100
1, 77248, Note_off_c, 0, 71, 100
1, 77248, Note_on_c, 0, 75, 100
1, 77344, Note_off_c, 0, 75, 100
1, 77504, Note_on_c, 0, 75, 100
1, 77600, Note_off_c, 0, 75, 100
1, 77872, Note_on_c, 0, 61, 100
1, 77920, Note_off_c, 0, 61, 100
1, 77920, Note_on_c, 0, 59, 100
1, 77968, Note_off_c, 0, 59, 100
1, 77968, Note_on_c, 0, 61, 100
1, 78080, Note_off_c, 0, 61, 100
1, 78080, Note_on_c, 0, 75, 100
1, 78176, Note_off_c, 0, 75, 100
1, 78352, Note_on_c, 0, 75, 100
1, 78544, Note_off_c, 0, 75, 100
1, 78544, Note_on_c, 0, 57, 100
1, 78592, Note_off_c, 0, 57, 100
1, 78592, Note_on_c, 0, 69, 100
1, 78784, Note_off_c, 0, 69, 100
1, 78784, Note_on_c, 0, 75, 100
1, 79024, Note_off_c, 0, 75, 100
1, 79024, Note_on_c, 0, 75, 100
1, 79120, Note_off_c, 0, 75, 100
1, 79120, Note_on_c, 0, 75, 100
1, 79312, Note_off_c, 0, 75, 100
1, 79312, Note_on_c, 0, 57, 100
1, 79360, Note_off_c, 0, 57, 100
1, 79360, Note_on_c, 0, 70, 100
1, 79552, Note_off_c, 0, 70, 100
1, 79552, Note_on_c, 0, 45, 100
1, 79600, Note_off_c, 0, 45, 100
1, 79600, Note_on_c, 0, 51, 100
1, 79648, Note_off_c, 0, 51, 100
1, 79648, Note_on_c, 0, 57, 100
1, 79696, Note_off_c, 0, 57, 100
1, 79696, Note_on_c, 0, 49, 100
1, 79744, Note_off_c, 0, 49, 100
1, 79744, Note_on_c, 0, 50, 100
1, 79792, Note_off_c, 0, 50, 100
1, 79792, Note_on_c, 0, 53, 100
1, 79840, Note_off_c, 0, 53, 100
1, 79840, Note_on_c, 0, 52, 100
1, 79888, Note_off_c, 0, 52, 100
1, 79888, Note_on_c, 0, 51, 100
1, 79936, Note_off_c, 0, 51, 100
1, 79936, Note_on_c, 0, 55, 100
1, 79984, Note_off_c, 0, 55, 100
1, 79984, Note_on_c, 0, 58, 100
1, 80032, Note_off_c, 0, 58, 100
1, 80032, Note_on_c, 0, 61, 100
1, 80080, Note_off_c, 0, 61, 100
1, 80080, Note_on_c, 0, 63, 100
1, 80128, Note_off_c, 0, 63, 100
1, 80128, Note_on_c, 0, 65, 100
1, 80176, Note_off_c, 0, 65, 100
1, 80176, Note_on_c, 0, 67, 100
1, 80224, Note_off_c, 0, 67, 100
1, 80224, Note_on_c, 0, 71, 100
1, 80272, Note_off_c, 0, 71, 100
1, 80272, Note_on_c, 0, 75, 100
1, 80512, Note_off_c, 0, 75, 100
1, 80512, Note_on_c, 0, 45, 100
1, 80640, Note_off_c, 0, 45, 100
1, 80640, Note_on_c, 0, 75, 100
1, 80848, Note_off_c, 0, 75, 100
1, 80848, Note_on_c, 0, 45, 100
1, 80896, Note_off_c, 0, 45, 100
1, 80896, Note_on_c, 0, 75, 100
1, 81088, Note_off_c, 0, 75, 100
1, 81088, Note_on_c, 0, 75, 100
1, 81184, Note_off_c, 0, 75, 100
1, 81184, Note_on_c, 0, 45, 100
1, 81424, Note_off_c, 0, 45, 100
1, 81424, Note_on_c, 0, 49, 100
1, 81472, Note_off_c, 0, 49, 100
1, 81472, Note_on_c, 0, 50, 100
1, 81520, Note_off_c, 0, 50, 100
1, 81520, Note_on_c, 0, 53, 100
1, 81568, Note_off_c, 0, 53, 100
1, 81568, Note_on_c, 0, 52, 100
1, 81616, Note_off_c, 0, 52, 100
1, 81616, Note_on_c, 0, 51, 100
1, 81664, Note_off_c, 0, 51, 100
1, 81664, Note_on_c, 0, 53, 100
1, 81728, Note_off_c, 0, 53, 100
1, 81728, Note_on_c, 0, 55, 100
1, 81792, Note_off_c, 0, 55, 100
1, 81792, Note_on_c, 0, 58, 100
1, 81856, Note_off_c, 0, 58, 100
1, 81856, Note_on_c, 0, 57, 100
1, 81894, Note_off_c, 0, 57, 100
1, 81894, Note_on_c, 0, 53, 100
1, 81932, Note_off_c, 0, 53, 100
1, 81932, Note_on_c, 0, 58, 100
1, 81970, Note_off_c, 0, 58, 100
1, 81970, Note_on_c, 0, 55, 100
1, 82008, Note_off_c, 0, 55, 100
1, 82008, Note_on_c, 0, 60, 100
1, 82084, Note_off_c, 0, 60, 100
1, 82084, Note_on_c, 0, 62, 100
1, 82122, Note_off_c, 0, 62, 100
1, 82122, Note_on_c, 0, 63, 100
1, 82160, Note_off_c, 0, 63, 100
1, 82160, Note_on_c, 0, 65, 100
1, 82198, Note_off_c, 0, 65, 100
1, 82198, Note_on_c, 0, 67, 100
1, 82284, Note_off_c, 0, 67, 100
1, 82284, Note_on_c, 0, 70, 100
1, 82332, Note_off_c, 0, 70, 100
1, 82332, Note_on_c, 0, 69, 100
1, 82492, Note_off_c, 0, 69, 100
1, 82492, Note_on_c, 0, 75, 100
1, 82620, Note_off_c, 0, 75, 100
1, 82620, Note_on_c, 0, 45, 100
1, 82716, Note_off_c, 0, 45, 100
1, 82716, Note_on_c, 0, 51, 100
1, 82812, Note_off_c, 0, 51, 100
1, 82812, Note_on_c, 0, 55, 100
1, 82908, Note_off_c, 0, 55, 100
1, 82908, Note_on_c, 0, 59, 100
1, 83052, Note_off_c, 0, 59, 100
1, 83052, Note_on_c, 0, 63, 100
1, 83148, Note_off_c, 0, 63, 100
1, 83148, Note_on_c, 0, 67, 100
1, 83244, Note_off_c, 0, 67, 100
1, 83244, Note_on_c, 0, 71, 100
1, 83340, Note_off_c, 0, 71, 100
1, 83340, Note_on_c, 0, 75, 100
1, 83388, Note_off_c, 0, 75, 100
1, 83388, Note_on_c, 0, 75, 100
1, 83497, Note_off_c, 0, 75, 100
1, 83497, End_track
0, 0, End_of_file
