0, 0, Header, 1, 1, 192
1, 0, Start_track
1, 0, Title_t, "Melody"
1, 0, Tempo, 372670
1, 0, Key_signature, -2, "major"
1, 0, Time_signature, 4, 2, 24, 8
1, 96, Note_on_c, 0, 63, 100
1, 256, Note_off_c, 0, 63, 100
1, 256, Note_on_c, 0, 68, 100
1, 320, Note_off_c, 0, 68, 100
1, 320, Note_on_c, 0, 70, 100
1, 384, Note_off_c, 0, 70, 100
1, 384, Note_on_c, 0, 73, 100
1, 432, Note_off_c, 0, 73, 100
1, 432, Note_on_c, 0, 75, 100
1, 624, Note_off_c, 0, 75, 100
1, 624, Note_on_c, 0, 71, 100
1, 672, Note_off_c, 0, 71, 100
1, 672, Note_on_c, 0, 73, 100
1, 720, Note_off_c, 0, 73, 100
1, 720, Note_on_c, 0, 70, 100
1, 864, Note_off_c, 0, 70, 100
1, 864, Note_on_c, 0, 68, 100
1, 960, Note_off_c, 0, 68, 100
1, 1632, Note_on_c, 0, 63, 100
1, 1824, Note_off_c, 0, 63, 100
1, 1824, Note_on_c, 0, 67, 100
1, 1872, Note_off_c, 0, 67, 100
1, 1872, Note_on_c, 0, 70, 100
1, 1968, Note_off_c, 0, 70, 100
1, 1968, Note_on_c, 0, 74, 100
1, 2016, Note_off_c, 0, 74, 100
1, 2016, Note_on_c, 0, 75, 100
1, 2208, Note_off_c, 0, 75, 100
1, 2208, Note_on_c, 0, 73, 100
1, 2304, Note_off_c, 0, 73, 100
1, 2304, Note_on_c, 0, 70, 100
1, 2400, Note_off_c, 0, 70, 100
1, 2400, Note_on_c, 0, 68, 100
1, 2544, Note_off_c, 0, 68, 100
1, 2544, Note_on_c, 0, 65, 100
1, 2640, Note_off_c, 0, 65, 100
1, 2640, Note_on_c, 0, 63, 100
1, 2784, Note_off_c, 0, 63, 100
1, 2784, Note_on_c, 0, 61, 100
1, 2944, Note_off_c, 0, 61, 100
1, 2944, Note_on_c, 0, 58, 100
1, 3040, Note_off_c, 0, 58, 100
1, 3648, Note_on_c, 0, 69, 100
1, 3712, Note_off_c, 0, 69, 100
1, 3712, Note_on_c, 0, 67, 100
1, 3776, Note_off_c, 0, 67, 100
1, 3776, Note_on_c, 0, 65, 100
1, 3840, Note_off_c, 0, 65, 100
1, 3840, Note_on_c, 0, 63, 100
1, 3888, Note_off_c, 0, 63, 100
1, 3888, Note_on_c, 0, 62, 100
1, 3984, Note_off_c, 0, 62, 100
1, 4416, Note_on_c, 0, 68, 100
1, 4464, Note_off_c, 0, 68, 100
1, 4464, Note_on_c, 0, 67, 100
1, 4512, Note_off_c, 0, 67, 100
1, 4512, Note_on_c, 0, 66, 100
1, 4560, Note_off_c, 0, 66, 100
1, 4560, Note_on_c, 0, 68, 100
1, 4646, Note_off_c, 0, 68, 100
1, 4646, Note_on_c, 0, 67, 100
1, 4684, Note_off_c, 0, 67, 100
1, 4684, Note_on_c, 0, 66, 100
1, 4722, Note_off_c, 0, 66, 100
1, 4722, Note_on_c, 0, 65, 100
1, 4760, Note_off_c, 0, 65, 100
1, 4760, Note_on_c, 0, 64, 100
1, 4798, Note_off_c, 0, 64, 100
1, 4798, Note_on_c, 0, 63, 100
1, 4846, Note_off_c, 0, 63, 100
1, 4846, Note_on_c, 0, 65, 100
1, 4894, Note_off_c, 0, 65, 100
1, 4894, Note_on_c, 0, 66, 100
1, 4942, Note_off_c, 0, 66, 100
1, 4942, Note_on_c, 0, 64, 100
1, 4990, Note_off_c, 0, 64, 100
1, 4990, Note_on_c, 0, 65, 100
1, 5054, Note_off_c, 0, 65, 100
1, 5054, Note_on_c, 0, 64, 100
1, 5118, Note_off_c, 0, 64, 100
1, 5118, Note_on_c, 0, 63, 100
1, 5182, Note_off_c, 0, 63, 100
1, 5182, Note_on_c, 0, 67, 100
1, 5230, Note_off_c, 0, 67, 100
1, 5230, Note_on_c, 0, 65, 100
1, 5278, Note_off_c, 0, 65, 100
1, 5278, Note_on_c, 0, 63, 100
1, 5326, Note_off_c, 0, 63, 100
1, 5326, Note_on_c, 0, 62, 100
1, 5374, Note_off_c, 0, 62, 100
1, 5374, Note_on_c, 0, 60, 100
1, 5422, Note_off_c, 0, 60, 100
1, 5422, Note_on_c, 0, 58, 100
1, 5470, Note_off_c, 0, 58, 100
1, 5470, Note_on_c, 0, 54, 100
1, 5518, Note_off_c, 0, 54, 100
1, 5518, Note_on_c, 0, 53, 100
1, 5566, Note_off_c, 0, 53, 100
1, 5566, Note_on_c, 0, 51, 100
1, 5598, Note_off_c, 0, 51, 100
1, 5598, Note_on_c, 0, 50, 100
1, 5662, Note_off_c, 0, 50, 100
1, 5662, Note_on_c, 0, 53, 100
1, 5694, Note_off_c, 0, 53, 100
1, 5694, Note_on_c, 0, 57, 100
1, 5758, Note_off_c, 0, 57, 100
1, 5758, Note_on_c, 0, 58, 100
1, 5950, Note_off_c, 0, 58, 100
1, 6766, Note_on_c, 0, 62, 100
1, 6814, Note_off_c, 0, 62, 100
1, 6814, Note_on_c, 0, 63, 100
1, 6862, Note_off_c, 0, 63, 100
1, 6862, Note_on_c, 0, 69, 100
1, 6910, Note_off_c, 0, 69, 100
1, 6910, Note_on_c, 0, 70, 100
1, 7102, Note_off_c, 0, 70, 100
1, 7102, Note_on_c, 0, 58, 100
1, 7230, Note_off_c, 0, 58, 100
1, 7230, Note_on_c, 0, 66, 100
1, 7294, Note_off_c, 0, 66, 100
1, 7294, Note_on_c, 0, 67, 100
1, 7582, Note_off_c, 0, 67, 100
1, 7582, Note_on_c, 0, 62, 100
1, 7678, Note_off_c, 0, 62, 100
1, 7678, Note_on_c, 0, 65, 100
1, 7726, Note_off_c, 0, 65, 100
1, 7726, Note_on_c, 0, 66, 100
1, 7774, Note_off_c, 0, 66, 100
1, 7774, Note_on_c, 0, 65, 100
1, 7822, Note_off_c, 0, 65, 100
1, 7822, Note_on_c, 0, 63, 100
1, 7870, Note_off_c, 0, 63, 100
1, 7870, Note_on_c, 0, 58, 100
1, 7966, Note_off_c, 0, 58, 100
1, 7966, Note_on_c, 0, 55, 100
1, 8062, Note_off_c, 0, 55, 100
1, 8062, Note_on_c, 0, 62, 100
1, 8158, Note_off_c, 0, 62, 100
1, 8158, Note_on_c, 0, 61, 100
1, 8254, Note_off_c, 0, 61, 100
1, 8254, Note_on_c, 0, 57, 100
1, 8350, Note_off_c, 0, 57, 100
1, 8350, Note_on_c, 0, 55, 100
1, 8446, Note_off_c, 0, 55, 100
1, 8446, Note_on_c, 0, 58, 100
1, 8542, Note_off_c, 0, 58, 100
1, 8542, Note_on_c, 0, 60, 100
1, 8638, Note_off_c, 0, 60, 100
1, 8638, Note_on_c, 0, 62, 100
1, 8734, Note_off_c, 0, 62, 100
1, 8734, Note_on_c, 0, 65, 100
1, 8830, Note_off_c, 0, 65, 100
1, 8830, Note_on_c, 0, 61, 100
1, 8926, Note_off_c, 0, 61, 100
1, 8926, Note_on_c, 0, 63, 100
1, 9022, Note_off_c, 0, 63, 100
1, 9022, Note_on_c, 0, 65, 100
1, 9118, Note_off_c, 0, 65, 100
1, 9118, Note_on_c, 0, 68, 100
1, 9214, Note_off_c, 0, 68, 100
1, 9214, Note_on_c, 0, 66, 100
1, 9310, Note_off_c, 0, 66, 100
1, 9310, Note_on_c, 0, 68, 100
1, 9406, Note_off_c, 0, 68, 100
1, 9406, Note_on_c, 0, 70, 100
1, 9502, Note_off_c, 0, 70, 100
1, 9502, Note_on_c, 0, 73, 100
1, 9598, Note_off_c, 0, 73, 100
1, 9598, Note_on_c, 0, 71, 100
1, 9694, Note_off_c, 0, 71, 100
1, 9694, Note_on_c, 0, 69, 100
1, 9790, Note_off_c, 0, 69, 100
1, 9790, Note_on_c, 0, 68, 100
1, 9886, Note_off_c, 0, 68, 100
1, 9886, Note_on_c, 0, 66, 100
1, 9982, Note_off_c, 0, 66, 100
1, 9982, Note_on_c, 0, 65, 100
1, 10078, Note_off_c, 0, 65, 100
1, 10078, Note_on_c, 0, 67, 100
1, 10174, Note_off_c, 0, 67, 100
1, 10174, Note_on_c, 0, 68, 100
1, 10366, Note_off_c, 0, 68, 100
1, 10366, Note_on_c, 0, 70, 100
1, 10462, Note_off_c, 0, 70, 100
1, 10462, Note_on_c, 0, 66, 100
1, 10558, Note_off_c, 0, 66, 100
1, 10558, Note_on_c, 0, 62, 100
1, 10750, Note_off_c, 0, 62, 100
1, 10750, Note_on_c, 0, 63, 100
1, 10942, Note_off_c, 0, 63, 100
1, 11998, Note_on_c, 0, 65, 100
1, 12094, Note_off_c, 0, 65, 100
1, 12094, Note_on_c, 0, 69, 100
1, 12190, Note_off_c, 0, 69, 100
1, 12190, Note_on_c, 0, 74, 100
1, 12286, Note_off_c, 0, 74, 100
1, 12286, Note_on_c, 0, 70, 100
1, 12382, Note_off_c, 0, 70, 100
1, 12382, Note_on_c, 0, 65, 100
1, 12478, Note_off_c, 0, 65, 100
1, 12478, Note_on_c, 0, 62, 100
1, 12622, Note_off_c, 0, 62, 100
1, 12622, Note_on_c, 0, 63, 100
1, 12766, Note_off_c, 0, 63, 100
1, 12766, Note_on_c, 0, 62, 100
1, 12862, Note_off_c, 0, 62, 100
1, 12862, Note_on_c, 0, 58, 100
1, 13054, Note_off_c, 0, 58, 100
1, 13054, Note_on_c, 0, 56, 100
1, 13102, Note_off_c, 0, 56, 100
1, 13102, Note_on_c, 0, 57, 100
1, 13198, Note_off_c, 0, 57, 100
1, 13582, Note_on_c, 0, 53, 100
1, 13630, Note_off_c, 0, 53, 100
1, 13630, Note_on_c, 0, 54, 100
1, 13678, Note_off_c, 0, 54, 100
1, 13678, Note_on_c, 0, 56, 100
1, 13726, Note_off_c, 0, 56, 100
1, 13726, Note_on_c, 0, 62, 100
1, 13774, Note_off_c, 0, 62, 100
1, 13774, Note_on_c, 0, 63, 100
1, 13870, Note_off_c, 0, 63, 100
1, 13870, Note_on_c, 0, 66, 100
1, 13966, Note_off_c, 0, 66, 100
1, 13966, Note_on_c, 0, 69, 100
1, 14062, Note_off_c, 0, 69, 100
1, 14062, Note_on_c, 0, 74, 100
1, 14158, Note_off_c, 0, 74, 100
1, 14158, Note_on_c, 0, 77, 100
1, 14254, Note_off_c, 0, 77, 100
1, 14254, Note_on_c, 0, 75, 100
1, 14350, Note_off_c, 0, 75, 100
1, 14350, Note_on_c, 0, 77, 100
1, 14398, Note_off_c, 0, 77, 100
1, 14398, Note_on_c, 0, 75, 100
1, 14446, Note_off_c, 0, 75, 100
1, 14446, Note_on_c, 0, 74, 100
1, 14542, Note_off_c, 0, 74, 100
1, 14542, Note_on_c, 0, 72, 100
1, 14638, Note_off_c, 0, 72, 100
1, 14638, Note_on_c, 0, 71, 100
1, 14734, Note_off_c, 0, 71, 100
1, 14734, Note_on_c, 0, 67, 100
1, 14782, Note_off_c, 0, 67, 100
1, 14782, Note_on_c, 0, 69, 100
1, 14878, Note_off_c, 0, 69, 100
1, 14878, Note_on_c, 0, 65, 100
1, 14974, Note_off_c, 0, 65, 100
1, 14974, Note_on_c, 0, 62, 100
1, 15070, Note_off_c, 0, 62, 100
1, 15070, Note_on_c, 0, 60, 100
1, 15166, Note_off_c, 0, 60, 100
1, 15166, Note_on_c, 0, 59, 100
1, 15358, Note_off_c, 0, 59, 100
1, 15358, Note_on_c, 0, 56, 100
1, 15406, Note_off_c, 0, 56, 100
1, 15406, Note_on_c, 0, 57, 100
1, 15502, Note_off_c, 0, 57, 100
1, 15502, Note_on_c, 0, 53, 100
1, 15550, Note_off_c, 0, 53, 100
1, 15550, Note_on_c, 0, 50, 100
1, 15646, Note_off_c, 0, 50, 100
1, 15646, Note_on_c, 0, 48, 100
1, 15742, Note_off_c, 0, 48, 100
1, 15742, Note_on_c, 0, 47, 100
1, 15934, Note_off_c, 0, 47, 100
1, 15934, Note_on_c, 0, 55, 100
1, 16078, Note_off_c, 0, 55, 100
1, 16078, Note_on_c, 0, 52, 100
1, 16270, Note_off_c, 0, 52, 100
1, 17086, Note_on_c, 0, 64, 100
1, 17134, Note_off_c, 0, 64, 100
1, 17134, Note_on_c, 0, 65, 100
1, 17182, Note_off_c, 0, 65, 100
1, 17182, Note_on_c, 0, 67, 100
1, 17230, Note_off_c, 0, 67, 100
1, 17230, Note_on_c, 0, 64, 100
1, 17278, Note_off_c, 0, 64, 100
1, 17278, Note_on_c, 0, 57, 100
1, 17326, Note_off_c, 0, 57, 100
1, 17326, Note_on_c, 0, 60, 100
1, 17374, Note_off_c, 0, 60, 100
1, 17374, Note_on_c, 0, 64, 100
1, 17422, Note_off_c, 0, 64, 100
1, 17422, Note_on_c, 0, 67, 100
1, 17470, Note_off_c, 0, 67, 100
1, 17470, Note_on_c, 0, 69, 100
1, 17508, Note_off_c, 0, 69, 100
1, 17508, Note_on_c, 0, 70, 100
1, 17546, Note_off_c, 0, 70, 100
1, 17546, Note_on_c, 0, 74, 100
1, 17584, Note_off_c, 0, 74, 100
1, 17584, Note_on_c, 0, 72, 100
1, 17622, Note_off_c, 0, 72, 100
1, 17622, Note_on_c, 0, 70, 100
1, 17660, Note_off_c, 0, 70, 100
1, 17660, Note_on_c, 0, 69, 100
1, 17708, Note_off_c, 0, 69, 100
1, 17708, Note_on_c, 0, 67, 100
1, 17756, Note_off_c, 0, 67, 100
1, 17756, Note_on_c, 0, 65, 100
1, 17804, Note_off_c, 0, 65, 100
1, 17804, Note_on_c, 0, 64, 100
1, 17852, Note_off_c, 0, 64, 100
1, 17852, Note_on_c, 0, 63, 100
1, 17894, Note_off_c, 0, 63, 100
1, 17894, Note_on_c, 0, 65, 100
1, 17936, Note_off_c, 0, 65, 100
1, 17936, Note_on_c, 0, 67, 100
1, 17978, Note_off_c, 0, 67, 100
1, 17978, Note_on_c, 0, 63, 100
1, 17999, Note_off_c, 0, 63, 100
1, 17999, Note_on_c, 0, 64, 100
1, 18020, Note_off_c, 0, 64, 100
1, 18020, Note_on_c, 0, 65, 100
1, 18041, Note_off_c, 0, 65, 100
1, 18041, Note_on_c, 0, 64, 100
1, 18105, Note_off_c, 0, 64, 100
1, 18105, Note_on_c, 0, 63, 100
1, 18169, Note_off_c, 0, 63, 100
1, 18169, Note_on_c, 0, 67, 100
1, 18233, Note_off_c, 0, 67, 100
1, 18233, Note_on_c, 0, 65, 100
1, 18271, Note_off_c, 0, 65, 100
1, 18271, Note_on_c, 0, 63, 100
1, 18309, Note_off_c, 0, 63, 100
1, 18309, Note_on_c, 0, 58, 100
1, 18347, Note_off_c, 0, 58, 100
1, 18347, Note_on_c, 0, 55, 100
1, 18385, Note_off_c, 0, 55, 100
1, 18385, Note_on_c, 0, 60, 100
1, 18481, Note_off_c, 0, 60, 100
1, 18711, Note_on_c, 0, 62, 100
1, 18807, Note_off_c, 0, 62, 100
1, 18807, Note_on_c, 0, 63, 100
1, 18903, Note_off_c, 0, 63, 100
1, 18903, Note_on_c, 0, 65, 100
1, 18999, Note_off_c, 0, 65, 100
1, 18999, Note_on_c, 0, 65, 100
1, 19037, Note_off_c, 0, 65, 100
1, 19037, Note_on_c, 0, 66, 100
1, 19075, Note_off_c, 0, 66, 100
1, 19075, Note_on_c, 0, 67, 100
1, 19113, Note_off_c, 0, 67, 100
1, 19113, Note_on_c, 0, 66, 100
1, 19151, Note_off_c, 0, 66, 100
1, 19151, Note_on_c, 0, 65, 100
1, 19285, Note_off_c, 0, 65, 100
1, 19285, Note_on_c, 0, 70, 100
1, 19381, Note_off_c, 0, 70, 100
1, 19765, Note_on_c, 0, 65, 100
1, 19829, Note_off_c, 0, 65, 100
1, 19829, Note_on_c, 0, 62, 100
1, 19893, Note_off_c, 0, 62, 100
1, 19893, Note_on_c, 0, 63, 100
1, 20149, Note_off_c, 0, 63, 100
1, 20149, Note_on_c, 0, 68, 100
1, 20197, Note_off_c, 0, 68, 100
1, 20197, Note_on_c, 0, 67, 100
1, 20245, Note_off_c, 0, 67, 100
1, 20245, Note_on_c, 0, 66, 100
1, 20341, Note_off_c, 0, 66, 100
1, 20533, Note_on_c, 0, 64, 100
1, 20597, Note_off_c, 0, 64, 100
1, 20597, Note_on_c, 0, 65, 100
1, 20661, Note_off_c, 0, 65, 100
1, 20661, Note_on_c, 0, 66, 100
1, 20757, Note_off_c, 0, 66, 100
1, 20917, Note_on_c, 0, 64, 100
1, 20981, Note_off_c, 0, 64, 100
1, 20981, Note_on_c, 0, 65, 100
1, 21013, Note_off_c, 0, 65, 100
1, 21013, Note_on_c, 0, 66, 100
1, 21045, Note_off_c, 0, 66, 100
1, 21045, Note_on_c, 0, 64, 100
1, 21077, Note_off_c, 0, 64, 100
1, 21077, Note_on_c, 0, 65, 100
1, 21157, Note_off_c, 0, 65, 100
1, 21157, Note_on_c, 0, 64, 100
1, 21205, Note_off_c, 0, 64, 100
1, 21205, Note_on_c, 0, 63, 100
1, 21253, Note_off_c, 0, 63, 100
1, 21253, Note_on_c, 0, 67, 100
1, 21301, Note_off_c, 0, 67, 100
1, 21301, Note_on_c, 0, 65, 100
1, 21349, Note_off_c, 0, 65, 100
1, 21349, Note_on_c, 0, 62, 100
1, 21397, Note_off_c, 0, 62, 100
1, 21397, Note_on_c, 0, 59, 100
1, 21445, Note_off_c, 0, 59, 100
1, 21445, Note_on_c, 0, 63, 100
1, 21557, Note_off_c, 0, 63, 100
1, 21557, Note_on_c, 0, 62, 100
1, 21621, Note_off_c, 0, 62, 100
1, 21621, Note_on_c, 0, 55, 100
1, 21685, Note_off_c, 0, 55, 100
1, 21685, Note_on_c, 0, 60, 100
1, 21733, Note_off_c, 0, 60, 100
1, 21733, Note_on_c, 0, 62, 100
1, 21781, Note_off_c, 0, 62, 100
1, 21781, Note_on_c, 0, 63, 100
1, 21829, Note_off_c, 0, 63, 100
1, 21829, Note_on_c, 0, 64, 100
1, 21877, Note_off_c, 0, 64, 100
1, 21877, Note_on_c, 0, 65, 100
1, 21925, Note_off_c, 0, 65, 100
1, 21925, Note_on_c, 0, 64, 100
1, 21973, Note_off_c, 0, 64, 100
1, 21973, Note_on_c, 0, 63, 100
1, 22021, Note_off_c, 0, 63, 100
1, 22021, Note_on_c, 0, 67, 100
1, 22069, Note_off_c, 0, 67, 100
1, 22069, Note_on_c, 0, 65, 100
1, 22117, Note_off_c, 0, 65, 100
1, 22117, Note_on_c, 0, 63, 100
1, 22165, Note_off_c, 0, 63, 100
1, 22165, Note_on_c, 0, 62, 100
1, 22213, Note_off_c, 0, 62, 100
1, 22213, Note_on_c, 0, 60, 100
1, 22261, Note_off_c, 0, 60, 100
1, 22261, Note_on_c, 0, 57, 100
1, 22309, Note_off_c, 0, 57, 100
1, 22309, Note_on_c, 0, 60, 100
1, 22357, Note_off_c, 0, 60, 100
1, 22357, Note_on_c, 0, 62, 100
1, 22405, Note_off_c, 0, 62, 100
1, 22405, Note_on_c, 0, 65, 100
1, 22453, Note_off_c, 0, 65, 100
1, 22453, Note_on_c, 0, 70, 100
1, 22597, Note_off_c, 0, 70, 100
1, 22597, Note_on_c, 0, 65, 100
1, 22645, Note_off_c, 0, 65, 100
1, 22645, Note_on_c, 0, 68, 100
1, 22693, Note_off_c, 0, 68, 100
1, 22693, Note_on_c, 0, 67, 100
1, 22741, Note_off_c, 0, 67, 100
1, 22741, Note_on_c, 0, 62, 100
1, 23029, Note_off_c, 0, 62, 100
1, 23029, Note_on_c, 0, 63, 100
1, 23125, Note_off_c, 0, 63, 100
1, 23125, Note_on_c, 0, 70, 100
1, 23221, Note_off_c, 0, 70, 100
1, 23221, Note_on_c, 0, 70, 100
1, 23365, Note_off_c, 0, 70, 100
1, 23365, Note_on_c, 0, 64, 100
1, 23461, Note_off_c, 0, 64, 100
1, 23461, Note_on_c, 0, 70, 100
1, 23605, Note_off_c, 0, 70, 100
1, 23605, Note_on_c, 0, 70, 100
1, 23797, Note_off_c, 0, 70, 100
1, 23797, Note_on_c, 0, 65, 100
1, 23893, Note_off_c, 0, 65, 100
1, 23893, Note_on_c, 0, 70, 100
1, 23989, Note_off_c, 0, 70, 100
1, 23989, Note_on_c, 0, 70, 100
1, 24181, Note_off_c, 0, 70, 100
1, 25141, Note_on_c, 0, 65, 100
1, 25205, Note_off_c, 0, 65, 100
1, 25205, Note_on_c, 0, 67, 100
1, 25269, Note_off_c, 0, 67, 100
1, 25269, Note_on_c, 0, 70, 100
1, 25333, Note_off_c, 0, 70, 100
1, 25333, Note_on_c, 0, 72, 100
1, 25381, Note_off_c, 0, 72, 100
1, 25381, Note_on_c, 0, 75, 100
1, 25525, Note_off_c, 0, 75, 100
1, 25525, Note_on_c, 0, 72, 100
1, 25573, Note_off_c, 0, 72, 100
1, 25573, Note_on_c, 0, 73, 100
1, 25669, Note_off_c, 0, 73, 100
1, 25669, Note_on_c, 0, 70, 100
1, 25861, Note_off_c, 0, 70, 100
1, 26293, Note_on_c, 0, 63, 100
1, 26357, Note_off_c, 0, 63, 100
1, 26357, Note_on_c, 0, 65, 100
1, 26421, Note_off_c, 0, 65, 100
1, 26421, Note_on_c, 0, 68, 100
1, 26533, Note_off_c, 0, 68, 100
1, 26533, Note_on_c, 0, 72, 100
1, 26581, Note_off_c, 0, 72, 100
1, 26581, Note_on_c, 0, 73, 100
1, 26677, Note_off_c, 0, 73, 100
1, 26677, Note_on_c, 0, 70, 100
1, 26805, Note_off_c, 0, 70, 100
1, 26805, Note_on_c, 0, 66, 100
1, 26965, Note_off_c, 0, 66, 100
1, 26965, Note_on_c, 0, 63, 100
1, 27157, Note_off_c, 0, 63, 100
1, 27157, Note_on_c, 0, 66, 100
1, 27253, Note_off_c, 0, 66, 100
1, 27253, Note_on_c, 0, 65, 100
1, 27349, Note_off_c, 0, 65, 100
1, 27349, Note_on_c, 0, 62, 100
1, 27445, Note_off_c, 0, 62, 100
1, 27445, Note_on_c, 0, 59, 100
1, 27637, Note_off_c, 0, 59, 100
1, 27637, Note_on_c, 0, 60, 100
1, 27733, Note_off_c, 0, 60, 100
1, 27733, Note_on_c, 0, 62, 100
1, 27829, Note_off_c, 0, 62, 100
1, 27829, Note_on_c, 0, 63, 100
1, 27925, Note_off_c, 0, 63, 100
1, 27925, Note_on_c, 0, 64, 100
1, 28021, Note_off_c, 0, 64, 100
1, 28021, Note_on_c, 0, 65, 100
1, 28117, Note_off_c, 0, 65, 100
1, 28117, Note_on_c, 0, 61, 100
1, 28213, Note_off_c, 0, 61, 100
1, 28213, Note_on_c, 0, 57, 100
1, 28357, Note_off_c, 0, 57, 100
1, 28357, Note_on_c, 0, 58, 100
1, 28501, Note_off_c, 0, 58, 100
1, 28501, Note_on_c, 0, 60, 100
1, 28597, Note_off_c, 0, 60, 100
1, 28597, Note_on_c, 0, 62, 100
1, 28693, Note_off_c, 0, 62, 100
1, 28693, Note_on_c, 0, 65, 100
1, 28789, Note_off_c, 0, 65, 100
1, 28789, Note_on_c, 0, 70, 100
1, 28981, Note_off_c, 0, 70, 100
1, 28981, Note_on_c, 0, 68, 100
1, 29077, Note_off_c, 0, 68, 100
1, 29077, Note_on_c, 0, 70, 100
1, 29173, Note_off_c, 0, 70, 100
1, 29173, Note_on_c, 0, 64, 100
1, 29221, Note_off_c, 0, 64, 100
1, 29221, Note_on_c, 0, 67, 100
1, 29317, Note_off_c, 0, 67, 100
1, 29317, Note_on_c, 0, 63, 100
1, 29461, Note_off_c, 0, 63, 100
1, 29461, Note_on_c, 0, 60, 100
1, 29557, Note_off_c, 0, 60, 100
1, 29557, Note_on_c, 0, 60, 100
1, 29633, Note_off_c, 0, 60, 100
1, 29633, Note_on_c, 0, 61, 100
1, 29671, Note_off_c, 0, 61, 100
1, 29671, Note_on_c, 0, 62, 100
1, 29709, Note_off_c, 0, 62, 100
1, 29709, Note_on_c, 0, 61, 100
1, 29747, Note_off_c, 0, 61, 100
1, 29747, Note_on_c, 0, 60, 100
1, 29843, Note_off_c, 0, 60, 100
1, 29843, Note_on_c, 0, 55, 100
1, 29939, Note_off_c, 0, 55, 100
1, 29939, Note_on_c, 0, 60, 100
1, 29987, Note_off_c, 0, 60, 100
1, 29987, Note_on_c, 0, 62, 100
1, 30083, Note_off_c, 0, 62, 100
1, 30083, Note_on_c, 0, 65, 100
1, 30275, Note_off_c, 0, 65, 100
1, 31283, Note_on_c, 0, 68, 100
1, 31331, Note_off_c, 0, 68, 100
1, 31331, Note_on_c, 0, 67, 100
1, 31379, Note_off_c, 0, 67, 100
1, 31379, Note_on_c, 0, 68, 100
1, 31475, Note_off_c, 0, 68, 100
1, 31475, Note_on_c, 0, 67, 100
1, 31571, Note_off_c, 0, 67, 100
1, 31571, Note_on_c, 0, 68, 100
1, 31667, Note_off_c, 0, 68, 100
1, 31667, Note_on_c, 0, 67, 100
1, 31763, Note_off_c, 0, 67, 100
1, 31763, Note_on_c, 0, 68, 100
1, 31811, Note_off_c, 0, 68, 100
1, 31811, Note_on_c, 0, 67, 100
1, 31955, Note_off_c, 0, 67, 100
1, 31955, Note_on_c, 0, 62, 100
1, 32051, Note_off_c, 0, 62, 100
1, 32051, Note_on_c, 0, 65, 100
1, 32243, Note_off_c, 0, 65, 100
1, 32819, Note_on_c, 0, 67, 100
1, 32883, Note_off_c, 0, 67, 100
1, 32883, Note_on_c, 0, 68, 100
1, 33395, Note_off_c, 0, 68, 100
1, 33395, Note_on_c, 0, 66, 100
1, 33491, Note_off_c, 0, 66, 100
1, 33491, Note_on_c, 0, 61, 100
1, 33683, Note_off_c, 0, 61, 100
1, 33683, Note_on_c, 0, 63, 100
1, 34163, Note_off_c, 0, 63, 100
1, 34163, Note_on_c, 0, 68, 100
1, 34201, Note_off_c, 0, 68, 100
1, 34201, Note_on_c, 0, 67, 100
1, 34239, Note_off_c, 0, 67, 100
1, 34239, Note_on_c, 0, 66, 100
1, 34277, Note_off_c, 0, 66, 100
1, 34277, Note_on_c, 0, 68, 100
1, 34353, Note_off_c, 0, 68, 100
1, 34353, Note_on_c, 0, 67, 100
1, 34401, Note_off_c, 0, 67, 100
1, 34401, Note_on_c, 0, 66, 100
1, 34449, Note_off_c, 0, 66, 100
1, 34449, Note_on_c, 0, 65, 100
1, 34497, Note_off_c, 0, 65, 100
1, 34497, Note_on_c, 0, 64, 100
1, 34545, Note_off_c, 0, 64, 100
1, 34545, Note_on_c, 0, 63, 100
1, 34593, Note_off_c, 0, 63, 100
1, 34593, Note_on_c, 0, 65, 100
1, 34641, Note_off_c, 0, 65, 100
1, 34641, Note_on_c, 0, 66, 100
1, 34689, Note_off_c, 0, 66, 100
1, 34689, Note_on_c, 0, 64, 100
1, 34737, Note_off_c, 0, 64, 100
1, 34737, Note_on_c, 0, 65, 100
1, 34785, Note_off_c, 0, 65, 100
1, 34785, Note_on_c, 0, 64, 100
1, 34833, Note_off_c, 0, 64, 100
1, 34833, Note_on_c, 0, 63, 100
1, 34881, Note_off_c, 0, 63, 100
1, 34881, Note_on_c, 0, 67, 100
1, 34929, Note_off_c, 0, 67, 100
1, 34929, Note_on_c, 0, 65, 100
1, 34993, Note_off_c, 0, 65, 100
1, 34993, Note_on_c, 0, 62, 100
1, 35057, Note_off_c, 0, 62, 100
1, 35057, Note_on_c, 0, 55, 100
1, 35121, Note_off_c, 0, 55, 100
1, 35121, Note_on_c, 0, 63, 100
1, 35169, Note_off_c, 0, 63, 100
1, 35169, Note_on_c, 0, 61, 100
1, 35217, Note_off_c, 0, 61, 100
1, 35217, Note_on_c, 0, 58, 100
1, 35265, Note_off_c, 0, 58, 100
1, 35265, Note_on_c, 0, 57, 100
1, 35313, Note_off_c, 0, 57, 100
1, 35313, Note_on_c, 0, 56, 100
1, 35361, Note_off_c, 0, 56, 100
1, 35361, Note_on_c, 0, 58, 100
1, 35409, Note_off_c, 0, 58, 100
1, 35409, Note_on_c, 0, 61, 100
1, 35457, Note_off_c, 0, 61, 100
1, 35457, Note_on_c, 0, 63, 100
1, 35505, Note_off_c, 0, 63, 100
1, 35505, Note_on_c, 0, 65, 100
1, 35553, Note_off_c, 0, 65, 100
1, 35553, Note_on_c, 0, 68, 100
1, 35601, Note_off_c, 0, 68, 100
1, 35601, Note_on_c, 0, 70, 100
1, 35649, Note_off_c, 0, 70, 100
1, 35649, Note_on_c, 0, 73, 100
1, 35697, Note_off_c, 0, 73, 100
1, 35697, Note_on_c, 0, 70, 100
1, 35793, Note_off_c, 0, 70, 100
1, 35793, Note_on_c, 0, 73, 100
1, 35889, Note_off_c, 0, 73, 100
1, 35889, Note_on_c, 0, 68, 100
1, 35985, Note_off_c, 0, 68, 100
1, 35985, Note_on_c, 0, 73, 100
1, 36081, Note_off_c, 0, 73, 100
1, 36081, Note_on_c, 0, 66, 100
1, 36177, Note_off_c, 0, 66, 100
1, 36177, Note_on_c, 0, 73, 100
1, 36273, Note_off_c, 0, 73, 100
1, 36273, Note_on_c, 0, 65, 100
1, 36369, Note_off_c, 0, 65, 100
1, 36369, Note_on_c, 0, 73, 100
1, 36465, Note_off_c, 0, 73, 100
1, 36465, Note_on_c, 0, 64, 100
1, 36561, Note_off_c, 0, 64, 100
1, 36561, Note_on_c, 0, 73, 100
1, 36657, Note_off_c, 0, 73, 100
1, 36657, Note_on_c, 0, 63, 100
1, 36753, Note_off_c, 0, 63, 100
1, 36753, Note_on_c, 0, 73, 100
1, 36849, Note_off_c, 0, 73, 100
1, 36849, Note_on_c, 0, 62, 100
1, 36945, Note_off_c, 0, 62, 100
1, 36945, Note_on_c, 0, 70, 100
1, 37041, Note_off_c, 0, 70, 100
1, 37041, Note_on_c, 0, 70, 100
1, 37137, Note_off_c, 0, 70, 100
1, 37521, Note_on_c, 0, 70, 100
1, 37617, Note_off_c, 0, 70, 100
1, 37617, Note_on_c, 0, 72, 100
1, 37665, Note_off_c, 0, 72, 100
1, 37665, Note_on_c, 0, 74, 100
1, 37713, Note_off_c, 0, 74, 100
1, 37713, Note_on_c, 0, 73, 100
1, 37809, Note_off_c, 0, 73, 100
1, 37809, Note_on_c, 0, 77, 100
1, 38001, Note_off_c, 0, 77, 100
1, 38001, Note_on_c, 0, 72, 100
1, 38097, Note_off_c, 0, 72, 100
1, 38097, Note_on_c, 0, 77, 100
1, 38385, Note_off_c, 0, 77, 100
1, 38385, Note_on_c, 0, 70, 100
1, 38529, Note_off_c, 0, 70, 100
1, 38529, Note_on_c, 0, 77, 100
1, 38769, Note_off_c, 0, 77, 100
1, 38769, Note_on_c, 0, 69, 100
1, 38865, Note_off_c, 0, 69, 100
1, 38865, Note_on_c, 0, 73, 100
1, 38913, Note_off_c, 0, 73, 100
1, 38913, Note_on_c, 0, 77, 100
1, 39009, Note_off_c, 0, 77, 100
1, 39297, Note_on_c, 0, 70, 100
1, 39345, Note_off_c, 0, 70, 100
1, 39345, Note_on_c, 0, 73, 100
1, 39441, Note_off_c, 0, 73, 100
1, 39441, Note_on_c, 0, 76, 100
1, 40113, Note_off_c, 0, 76, 100
1, 40113, Note_on_c, 0, 73, 100
1, 40209, Note_off_c, 0, 73, 100
1, 40209, Note_on_c, 0, 76, 100
1, 40305, Note_off_c, 0, 76, 100
1, 40305, Note_on_c, 0, 73, 100
1, 40401, Note_off_c, 0, 73, 100
1, 40401, Note_on_c, 0, 69, 100
1, 40497, Note_off_c, 0, 69, 100
1, 40497, Note_on_c, 0, 65, 100
1, 40593, Note_off_c, 0, 65, 100
1, 40881, Note_on_c, 0, 70, 100
1, 40929, Note_off_c, 0, 70, 100
1, 40929, Note_on_c, 0, 72, 100
1, 40977, Note_off_c, 0, 72, 100
1, 40977, Note_on_c, 0, 75, 100
1, 41073, Note_off_c, 0, 75, 100
1, 41073, Note_on_c, 0, 72, 100
1, 41169, Note_off_c, 0, 72, 100
1, 41169, Note_on_c, 0, 68, 100
1, 41265, Note_off_c, 0, 68, 100
1, 41265, Note_on_c, 0, 64, 100
1, 41361, Note_off_c, 0, 64, 100
1, 41361, Note_on_c, 0, 63, 100
1, 41457, Note_off_c, 0, 63, 100
1, 41457, Note_on_c, 0, 61, 100
1, 41553, Note_off_c, 0, 61, 100
1, 41553, Note_on_c, 0, 63, 100
1, 41649, Note_off_c, 0, 63, 100
1, 41649, Note_on_c, 0, 64, 100
1, 41793, Note_off_c, 0, 64, 100
1, 41793, Note_on_c, 0, 66, 100
1, 41841, Note_off_c, 0, 66, 100
1, 41841, Note_on_c, 0, 68, 100
1, 41937, Note_off_c, 0, 68, 100
1, 41937, Note_on_c, 0, 72, 100
1, 42033, Note_off_c, 0, 72, 100
1, 42033, Note_on_c, 0, 75, 100
1, 42129, Note_off_c, 0, 75, 100
1, 42129, Note_on_c, 0, 73, 100
1, 42225, Note_off_c, 0, 73, 100
1, 42225, Note_on_c, 0, 72, 100
1, 42321, Note_off_c, 0, 72, 100
1, 42321, Note_on_c, 0, 70, 100
1, 42417, Note_off_c, 0, 70, 100
1, 42417, Note_on_c, 0, 69, 100
1, 42513, Note_off_c, 0, 69, 100
1, 42513, Note_on_c, 0, 72, 100
1, 42609, Note_off_c, 0, 72, 100
1, 42609, Note_on_c, 0, 68, 100
1, 42705, Note_off_c, 0, 68, 100
1, 42705, Note_on_c, 0, 67, 100
1, 42801, Note_off_c, 0, 67, 100
1, 42801, Note_on_c, 0, 66, 100
1, 42897, Note_off_c, 0, 66, 100
1, 42897, Note_on_c, 0, 68, 100
1, 42993, Note_off_c, 0, 68, 100
1, 42993, Note_on_c, 0, 65, 100
1, 43089, Note_off_c, 0, 65, 100
1, 43089, Note_on_c, 0, 63, 100
1, 43185, Note_off_c, 0, 63, 100
1, 43185, Note_on_c, 0, 58, 100
1, 43281, Note_off_c, 0, 58, 100
1, 43281, Note_on_c, 0, 55, 100
1, 43377, Note_off_c, 0, 55, 100
1, 43377, Note_on_c, 0, 60, 100
1, 43425, Note_off_c, 0, 60, 100
1, 43425, Note_on_c, 0, 61, 100
1, 43473, Note_off_c, 0, 61, 100
1, 43473, Note_on_c, 0, 62, 100
1, 43569, Note_off_c, 0, 62, 100
1, 43569, Note_on_c, 0, 67, 100
1, 43697, Note_off_c, 0, 67, 100
1, 43697, Note_on_c, 0, 70, 100
1, 43889, Note_off_c, 0, 70, 100
1, 44241, Note_on_c, 0, 70, 100
1, 44385, Note_off_c, 0, 70, 100
1, 44385, Note_on_c, 0, 70, 100
1, 44481, Note_off_c, 0, 70, 100
1, 44481, Note_on_c, 0, 70, 100
1, 44567, Note_off_c, 0, 70, 100
1, 44567, Note_on_c, 0, 71, 100
1, 44605, Note_off_c, 0, 71, 100
1, 44605, Note_on_c, 0, 72, 100
1, 44643, Note_off_c, 0, 72, 100
1, 44643, Note_on_c, 0, 73, 100
1, 44681, Note_off_c, 0, 73, 100
1, 44681, Note_on_c, 0, 74, 100
1, 44719, Note_off_c, 0, 74, 100
1, 44719, Note_on_c, 0, 70, 100
1, 44815, Note_off_c, 0, 70, 100
1, 44815, Note_on_c, 0, 68, 100
1, 44911, Note_off_c, 0, 68, 100
1, 44911, Note_on_c, 0, 65, 100
1, 44959, Note_off_c, 0, 65, 100
1, 44959, Note_on_c, 0, 63, 100
1, 45055, Note_off_c, 0, 63, 100
1, 45055, Note_on_c, 0, 61, 100
1, 45103, Note_off_c, 0, 61, 100
1, 45103, Note_on_c, 0, 58, 100
1, 45199, Note_off_c, 0, 58, 100
1, 45199, Note_on_c, 0, 57, 100
1, 45295, Note_off_c, 0, 57, 100
1, 45679, Note_on_c, 0, 72, 100
1, 45727, Note_off_c, 0, 72, 100
1, 45727, Note_on_c, 0, 73, 100
1, 45775, Note_off_c, 0, 73, 100
1, 45775, Note_on_c, 0, 72, 100
1, 45823, Note_off_c, 0, 72, 100
1, 45823, Note_on_c, 0, 70, 100
1, 45871, Note_off_c, 0, 70, 100
1, 45871, Note_on_c, 0, 68, 100
1, 45967, Note_off_c, 0, 68, 100
1, 45967, Note_on_c, 0, 65, 100
1, 46063, Note_off_c, 0, 65, 100
1, 46063, Note_on_c, 0, 72, 100
1, 46084, Note_off_c, 0, 72, 100
1, 46084, Note_on_c, 0, 73, 100
1, 46105, Note_off_c, 0, 73, 100
1, 46105, Note_on_c, 0, 74, 100
1, 46147, Note_off_c, 0, 74, 100
1, 46147, Note_on_c, 0, 73, 100
1, 46168, Note_off_c, 0, 73, 100
1, 46168, Note_on_c, 0, 70, 100
1, 46232, Note_off_c, 0, 70, 100
1, 46232, Note_on_c, 0, 68, 100
1, 46301, Note_off_c, 0, 68, 100
1, 46301, Note_on_c, 0, 69, 100
1, 46349, Note_off_c, 0, 69, 100
1, 46349, Note_on_c, 0, 68, 100
1, 46397, Note_off_c, 0, 68, 100
1, 46397, Note_on_c, 0, 65, 100
1, 46445, Note_off_c, 0, 65, 100
1, 46445, Note_on_c, 0, 73, 100
1, 46493, Note_off_c, 0, 73, 100
1, 46493, Note_on_c, 0, 74, 100
1, 46541, Note_off_c, 0, 74, 100
1, 46541, Note_on_c, 0, 73, 100
1, 46589, Note_off_c, 0, 73, 100
1, 46589, Note_on_c, 0, 70, 100
1, 46637, Note_off_c, 0, 70, 100
1, 46637, Note_on_c, 0, 68, 100
1, 46685, Note_off_c, 0, 68, 100
1, 46685, Note_on_c, 0, 70, 100
1, 46733, Note_off_c, 0, 70, 100
1, 46733, Note_on_c, 0, 68, 100
1, 46781, Note_off_c, 0, 68, 100
1, 46781, Note_on_c, 0, 65, 100
1, 46829, Note_off_c, 0, 65, 100
1, 46829, Note_on_c, 0, 73, 100
1, 46867, Note_off_c, 0, 73, 100
1, 46867, Note_on_c, 0, 74, 100
1, 46905, Note_off_c, 0, 74, 100
1, 46905, Note_on_c, 0, 73, 100
1, 46943, Note_off_c, 0, 73, 100
1, 46943, Note_on_c, 0, 70, 100
1, 46981, Note_off_c, 0, 70, 100
1, 46981, Note_on_c, 0, 68, 100
1, 47115, Note_off_c, 0, 68, 100
1, 47115, Note_on_c, 0, 70, 100
1, 47211, Note_off_c, 0, 70, 100
1, 47211, Note_on_c, 0, 73, 100
1, 47307, Note_off_c, 0, 73, 100
1, 47307, Note_on_c, 0, 75, 100
1, 47403, Note_off_c, 0, 75, 100
1, 47403, Note_on_c, 0, 74, 100
1, 47441, Note_off_c, 0, 74, 100
1, 47441, Note_on_c, 0, 75, 100
1, 47517, Note_off_c, 0, 75, 100
1, 47517, Note_on_c, 0, 74, 100
1, 47555, Note_off_c, 0, 74, 100
1, 47555, Note_on_c, 0, 75, 100
1, 47785, Note_off_c, 0, 75, 100
1, 47785, Note_on_c, 0, 73, 100
1, 47881, Note_off_c, 0, 73, 100
1, 47881, Note_on_c, 0, 70, 100
1, 47977, Note_off_c, 0, 70, 100
1, 47977, Note_on_c, 0, 68, 100
1, 48073, Note_off_c, 0, 68, 100
1, 48073, Note_on_c, 0, 65, 100
1, 48169, Note_off_c, 0, 65, 100
1, 48169, Note_on_c, 0, 63, 100
1, 48265, Note_off_c, 0, 63, 100
1, 48265, Note_on_c, 0, 55, 100
1, 48361, Note_off_c, 0, 55, 100
1, 48361, Note_on_c, 0, 60, 100
1, 48409, Note_off_c, 0, 60, 100
1, 48409, Note_on_c, 0, 62, 100
1, 48505, Note_off_c, 0, 62, 100
1, 48505, Note_on_c, 0, 65, 100
1, 48553, Note_off_c, 0, 65, 100
1, 48553, Note_on_c, 0, 67, 100
1, 48681, Note_off_c, 0, 67, 100
1, 48681, Note_on_c, 0, 70, 100
1, 48873, Note_off_c, 0, 70, 100
1, 49513, Note_on_c, 0, 70, 100
1, 49609, Note_off_c, 0, 70, 100
1, 49609, Note_on_c, 0, 65, 100
1, 49705, Note_off_c, 0, 65, 100
1, 49705, Note_on_c, 0, 69, 100
1, 49801, Note_off_c, 0, 69, 100
1, 49801, Note_on_c, 0, 74, 100
1, 49945, Note_off_c, 0, 74, 100
1, 49945, Note_on_c, 0, 70, 100
1, 50041, Note_off_c, 0, 70, 100
1, 50041, Note_on_c, 0, 65, 100
1, 50089, Note_off_c, 0, 65, 100
1, 50089, Note_on_c, 0, 62, 100
1, 50185, Note_off_c, 0, 62, 100
1, 50185, Note_on_c, 0, 55, 100
1, 50281, Note_off_c, 0, 55, 100
1, 50281, Note_on_c, 0, 63, 100
1, 50377, Note_off_c, 0, 63, 100
1, 50377, Note_on_c, 0, 61, 100
1, 50473, Note_off_c, 0, 61, 100
1, 50473, Note_on_c, 0, 59, 100
1, 50665, Note_off_c, 0, 59, 100
1, 50665, Note_on_c, 0, 60, 100
1, 50761, Note_off_c, 0, 60, 100
1, 50761, Note_on_c, 0, 62, 100
1, 50857, Note_off_c, 0, 62, 100
1, 50857, Note_on_c, 0, 63, 100
1, 51049, Note_off_c, 0, 63, 100
1, 51049, Note_on_c, 0, 64, 100
1, 51145, Note_off_c, 0, 64, 100
1, 51145, Note_on_c, 0, 66, 100
1, 51241, Note_off_c, 0, 66, 100
1, 51241, Note_on_c, 0, 68, 100
1, 51433, Note_off_c, 0, 68, 100
1, 51433, Note_on_c, 0, 69, 100
1, 51529, Note_off_c, 0, 69, 100
1, 51529, Note_on_c, 0, 71, 100
1, 51625, Note_off_c, 0, 71, 100
1, 51625, Note_on_c, 0, 73, 100
1, 51817, Note_off_c, 0, 73, 100
1, 51817, Note_on_c, 0, 62, 100
1, 51865, Note_off_c, 0, 62, 100
1, 51865, Note_on_c, 0, 64, 100
1, 51961, Note_off_c, 0, 64, 100
1, 51961, Note_on_c, 0, 66, 100
1, 52201, Note_off_c, 0, 66, 100
1, 52201, Note_on_c, 0, 67, 100
1, 52297, Note_off_c, 0, 67, 100
1, 52297, Note_on_c, 0, 69, 100
1, 52393, Note_off_c, 0, 69, 100
1, 52393, Note_on_c, 0, 71, 100
1, 52489, Note_off_c, 0, 71, 100
1, 52489, Note_on_c, 0, 70, 100
1, 52681, Note_off_c, 0, 70, 100
1, 52681, Note_on_c, 0, 65, 100
1, 52777, Note_off_c, 0, 65, 100
1, 52777, Note_on_c, 0, 69, 100
1, 52921, Note_off_c, 0, 69, 100
1, 52921, Note_on_c, 0, 70, 100
1, 52969, Note_off_c, 0, 70, 100
1, 52969, Note_on_c, 0, 69, 100
1, 53017, Note_off_c, 0, 69, 100
1, 53017, Note_on_c, 0, 68, 100
1, 53113, Note_off_c, 0, 68, 100
1, 56233, Note_on_c, 0, 68, 100
1, 56281, Note_off_c, 0, 68, 100
1, 56281, Note_on_c, 0, 67, 100
1, 56329, Note_off_c, 0, 67, 100
1, 56329, Note_on_c, 0, 66, 100
1, 56377, Note_off_c, 0, 66, 100
1, 56377, Note_on_c, 0, 68, 100
1, 56425, Note_off_c, 0, 68, 100
1, 56425, Note_on_c, 0, 67, 100
1, 56473, Note_off_c, 0, 67, 100
1, 56473, Note_on_c, 0, 66, 100
1, 56521, Note_off_c, 0, 66, 100
1, 56521, Note_on_c, 0, 65, 100
1, 56569, Note_off_c, 0, 65, 100
1, 56569, Note_on_c, 0, 64, 100
1, 56617, Note_off_c, 0, 64, 100
1, 56617, Note_on_c, 0, 63, 100
1, 56655, Note_off_c, 0, 63, 100
1, 56655, Note_on_c, 0, 65, 100
1, 56693, Note_off_c, 0, 65, 100
1, 56693, Note_on_c, 0, 66, 100
1, 56731, Note_off_c, 0, 66, 100
1, 56731, Note_on_c, 0, 64, 100
1, 56807, Note_off_c, 0, 64, 100
1, 56807, Note_on_c, 0, 65, 100
1, 56845, Note_off_c, 0, 65, 100
1, 56845, Note_on_c, 0, 64, 100
1, 56883, Note_off_c, 0, 64, 100
1, 56883, Note_on_c, 0, 63, 100
1, 56921, Note_off_c, 0, 63, 100
1, 56921, Note_on_c, 0, 67, 100
1, 56997, Note_off_c, 0, 67, 100
1, 56997, Note_on_c, 0, 65, 100
1, 57045, Note_off_c, 0, 65, 100
1, 57045, Note_on_c, 0, 63, 100
1, 57093, Note_off_c, 0, 63, 100
1, 57093, Note_on_c, 0, 65, 100
1, 57141, Note_off_c, 0, 65, 100
1, 57141, Note_on_c, 0, 55, 100
1, 57189, Note_off_c, 0, 55, 100
1, 57189, Note_on_c, 0, 60, 100
1, 57237, Note_off_c, 0, 60, 100
1, 57237, Note_on_c, 0, 57, 100
1, 57285, Note_off_c, 0, 57, 100
1, 57285, Note_on_c, 0, 59, 100
1, 57333, Note_off_c, 0, 59, 100
1, 57333, Note_on_c, 0, 61, 100
1, 57413, Note_off_c, 0, 61, 100
1, 57413, Note_on_c, 0, 60, 100
1, 57445, Note_off_c, 0, 60, 100
1, 57445, Note_on_c, 0, 56, 100
1, 57477, Note_off_c, 0, 56, 100
1, 57477, Note_on_c, 0, 53, 100
1, 57541, Note_off_c, 0, 53, 100
1, 57541, Note_on_c, 0, 52, 100
1, 57573, Note_off_c, 0, 52, 100
1, 57573, Note_on_c, 0, 51, 100
1, 57621, Note_off_c, 0, 51, 100
1, 57621, Note_on_c, 0, 52, 100
1, 57669, Note_off_c, 0, 52, 100
1, 57669, Note_on_c, 0, 55, 100
1, 57717, Note_off_c, 0, 55, 100
1, 57717, Note_on_c, 0, 58, 100
1, 57803, Note_off_c, 0, 58, 100
1, 57803, Note_on_c, 0, 60, 100
1, 57841, Note_off_c, 0, 60, 100
1, 57841, Note_on_c, 0, 62, 100
1, 57879, Note_off_c, 0, 62, 100
1, 57879, Note_on_c, 0, 65, 100
1, 57917, Note_off_c, 0, 65, 100
1, 57917, Note_on_c, 0, 70, 100
1, 57993, Note_off_c, 0, 70, 100
1, 57993, Note_on_c, 0, 65, 100
1, 58031, Note_off_c, 0, 65, 100
1, 58031, Note_on_c, 0, 62, 100
1, 58069, Note_off_c, 0, 62, 100
1, 58069, Note_on_c, 0, 58, 100
1, 58107, Note_off_c, 0, 58, 100
1, 58107, Note_on_c, 0, 63, 100
1, 58177, Note_off_c, 0, 63, 100
1, 58177, Note_on_c, 0, 62, 100
1, 58241, Note_off_c, 0, 62, 100
1, 58241, Note_on_c, 0, 55, 100
1, 58273, Note_off_c, 0, 55, 100
1, 58273, Note_on_c, 0, 56, 100
1, 58305, Note_off_c, 0, 56, 100
1, 58305, Note_on_c, 0, 60, 100
1, 58337, Note_off_c, 0, 60, 100
1, 58337, Note_on_c, 0, 62, 100
1, 58385, Note_off_c, 0, 62, 100
1, 58385, Note_on_c, 0, 63, 100
1, 58433, Note_off_c, 0, 63, 100
1, 58433, Note_on_c, 0, 64, 100
1, 58481, Note_off_c, 0, 64, 100
1, 58481, Note_on_c, 0, 65, 100
1, 58529, Note_off_c, 0, 65, 100
1, 58529, Note_on_c, 0, 64, 100
1, 58593, Note_off_c, 0, 64, 100
1, 58593, Note_on_c, 0, 63, 100
1, 58657, Note_off_c, 0, 63, 100
1, 58657, Note_on_c, 0, 67, 100
1, 58721, Note_off_c, 0, 67, 100
1, 58721, Note_on_c, 0, 65, 100
1, 58753, Note_off_c, 0, 65, 100
1, 58753, Note_on_c, 0, 62, 100
1, 58785, Note_off_c, 0, 62, 100
1, 58785, Note_on_c, 0, 58, 100
1, 58849, Note_off_c, 0, 58, 100
1, 58849, Note_on_c, 0, 56, 100
1, 58881, Note_off_c, 0, 56, 100
1, 58881, Note_on_c, 0, 62, 100
1, 58913, Note_off_c, 0, 62, 100
1, 58913, Note_on_c, 0, 61, 100
1, 59009, Note_off_c, 0, 61, 100
1, 59009, Note_on_c, 0, 57, 100
1, 59057, Note_off_c, 0, 57, 100
1, 59057, Note_on_c, 0, 58, 100
1, 59249, Note_off_c, 0, 58, 100
1, 62177, Note_on_c, 0, 45, 100
1, 62273, Note_off_c, 0, 45, 100
1, 62273, Note_on_c, 0, 51, 100
1, 62369, Note_off_c, 0, 51, 100
1, 62369, Note_on_c, 0, 50, 100
1, 62465, Note_off_c, 0, 50, 100
1, 62465, Note_on_c, 0, 55, 100
1, 62561, Note_off_c, 0, 55, 100
1, 62561, Note_on_c, 0, 57, 100
1, 62657, Note_off_c, 0, 57, 100
1, 62657, Note_on_c, 0, 63, 100
1, 62753, Note_off_c, 0, 63, 100
1, 62753, Note_on_c, 0, 62, 100
1, 62849, Note_off_c, 0, 62, 100
1, 62849, Note_on_c, 0, 70, 100
1, 62945, Note_off_c, 0, 70, 100
1, 62945, Note_on_c, 0, 69, 100
1, 63041, Note_off_c, 0, 69, 100
1, 63041, Note_on_c, 0, 70, 100
1, 63137, Note_off_c, 0, 70, 100
1, 63137, Note_on_c, 0, 69, 100
1, 63233, Note_off_c, 0, 69, 100
1, 63233, Note_on_c, 0, 67, 100
1, 63329, Note_off_c, 0, 67, 100
1, 63329, Note_on_c, 0, 66, 100
1, 63425, Note_off_c, 0, 66, 100
1, 63425, Note_on_c, 0, 63, 100
1, 63521, Note_off_c, 0, 63, 100
1, 63521, Note_on_c, 0, 62, 100
1, 63617, Note_off_c, 0, 62, 100
1, 63617, Note_on_c, 0, 60, 100
1, 63713, Note_off_c, 0, 60, 100
1, 63713, Note_on_c, 0, 59, 100
1, 63809, Note_off_c, 0, 59, 100
1, 63809, Note_on_c, 0, 62, 100
1, 63905, Note_off_c, 0, 62, 100
1, 63905, Note_on_c, 0, 65, 100
1, 64001, Note_off_c, 0, 65, 100
1, 64001, Note_on_c, 0, 67, 100
1, 64097, Note_off_c, 0, 67, 100
1, 64097, Note_on_c, 0, 70, 100
1, 64193, Note_off_c, 0, 70, 100
1, 64193, Note_on_c, 0, 68, 100
1, 64289, Note_off_c, 0, 68, 100
1, 64289, Note_on_c, 0, 75, 100
1, 64481, Note_off_c, 0, 75, 100
1, 64481, Note_on_c, 0, 71, 100
1, 64673, Note_off_c, 0, 71, 100
1, 64673, Note_on_c, 0, 70, 100
1, 64721, Note_off_c, 0, 70, 100
1, 64721, Note_on_c, 0, 71, 100
1, 64769, Note_off_c, 0, 71, 100
1, 64769, Note_on_c, 0, 70, 100
1, 64817, Note_off_c, 0, 70, 100
1, 64817, Note_on_c, 0, 68, 100
1, 64865, Note_off_c, 0, 68, 100
1, 64865, Note_on_c, 0, 64, 100
1, 64961, Note_off_c, 0, 64, 100
1, 64961, Note_on_c, 0, 59, 100
1, 65057, Note_off_c, 0, 59, 100
1, 65057, Note_on_c, 0, 58, 100
1, 65153, Note_off_c, 0, 58, 100
1, 65153, Note_on_c, 0, 56, 100
1, 65249, Note_off_c, 0, 56, 100
1, 65249, Note_on_c, 0, 55, 100
1, 65345, Note_off_c, 0, 55, 100
1, 68225, Note_on_c, 0, 68, 100
1, 68273, Note_off_c, 0, 68, 100
1, 68273, Note_on_c, 0, 67, 100
1, 68321, Note_off_c, 0, 67, 100
1, 68321, Note_on_c, 0, 65, 100
1, 68369, Note_off_c, 0, 65, 100
1, 68369, Note_on_c, 0, 63, 100
1, 68417, Note_off_c, 0, 63, 100
1, 68417, Note_on_c, 0, 62, 100
1, 68465, Note_off_c, 0, 62, 100
1, 68465, Note_on_c, 0, 61, 100
1, 68545, Note_off_c, 0, 61, 100
1, 68545, Note_on_c, 0, 56, 100
1, 68609, Note_off_c, 0, 56, 100
1, 68609, Note_on_c, 0, 55, 100
1, 68641, Note_off_c, 0, 55, 100
1, 68641, Note_on_c, 0, 54, 100
1, 68673, Note_off_c, 0, 54, 100
1, 68673, Note_on_c, 0, 51, 100
1, 68705, Note_off_c, 0, 51, 100
1, 68705, Note_on_c, 0, 50, 100
1, 68753, Note_off_c, 0, 50, 100
1, 68753, Note_on_c, 0, 49, 100
1, 69089, Note_off_c, 0, 49, 100
1, 69089, Note_on_c, 0, 68, 100
1, 69137, Note_off_c, 0, 68, 100
1, 69137, Note_on_c, 0, 67, 100
1, 69185, Note_off_c, 0, 67, 100
1, 69185, Note_on_c, 0, 66, 100
1, 69233, Note_off_c, 0, 66, 100
1, 69233, Note_on_c, 0, 68, 100
1, 69281, Note_off_c, 0, 68, 100
1, 69281, Note_on_c, 0, 67, 100
1, 69329, Note_off_c, 0, 67, 100
1, 69329, Note_on_c, 0, 66, 100
1, 69377, Note_off_c, 0, 66, 100
1, 69377, Note_on_c, 0, 65, 100
1, 69425, Note_off_c, 0, 65, 100
1, 69425, Note_on_c, 0, 64, 100
1, 69473, Note_off_c, 0, 64, 100
1, 69473, Note_on_c, 0, 63, 100
1, 69521, Note_off_c, 0, 63, 100
1, 69521, Note_on_c, 0, 65, 100
1, 69569, Note_off_c, 0, 65, 100
1, 69569, Note_on_c, 0, 66, 100
1, 69617, Note_off_c, 0, 66, 100
1, 69617, Note_on_c, 0, 64, 100
1, 69665, Note_off_c, 0, 64, 100
1, 69665, Note_on_c, 0, 65, 100
1, 69697, Note_off_c, 0, 65, 100
1, 69697, Note_on_c, 0, 64, 100
1, 69729, Note_off_c, 0, 64, 100
1, 69729, Note_on_c, 0, 65, 100
1, 69761, Note_off_c, 0, 65, 100
1, 69761, Note_on_c, 0, 63, 100
1, 69793, Note_off_c, 0, 63, 100
1, 69793, Note_on_c, 0, 67, 100
1, 69857, Note_off_c, 0, 67, 100
1, 69857, Note_on_c, 0, 65, 100
1, 69905, Note_off_c, 0, 65, 100
1, 69905, Note_on_c, 0, 61, 100
1, 69953, Note_off_c, 0, 61, 100
1, 69953, Note_on_c, 0, 58, 100
1, 70001, Note_off_c, 0, 58, 100
1, 70001, Note_on_c, 0, 56, 100
1, 70049, Note_off_c, 0, 56, 100
1, 70049, Note_on_c, 0, 63, 100
1, 70097, Note_off_c, 0, 63, 100
1, 70097, Note_on_c, 0, 61, 100
1, 70145, Note_off_c, 0, 61, 100
1, 70145, Note_on_c, 0, 58, 100
1, 70193, Note_off_c, 0, 58, 100
1, 70193, Note_on_c, 0, 54, 100
1, 70241, Note_off_c, 0, 54, 100
1, 70241, Note_on_c, 0, 58, 100
1, 70289, Note_off_c, 0, 58, 100
1, 70289, Note_on_c, 0, 54, 100
1, 70337, Note_off_c, 0, 54, 100
1, 70337, Note_on_c, 0, 53, 100
1, 70385, Note_off_c, 0, 53, 100
1, 70385, Note_on_c, 0, 52, 100
1, 70433, Note_off_c, 0, 52, 100
1, 70433, Note_on_c, 0, 51, 100
1, 70481, Note_off_c, 0, 51, 100
1, 70481, Note_on_c, 0, 55, 100
1, 70529, Note_off_c, 0, 55, 100
1, 70529, Note_on_c, 0, 57, 100
1, 70577, Note_off_c, 0, 57, 100
1, 70577, Note_on_c, 0, 61, 100
1, 70625, Note_off_c, 0, 61, 100
1, 70625, Note_on_c, 0, 63, 100
1, 70673, Note_off_c, 0, 63, 100
1, 70673, Note_on_c, 0, 61, 100
1, 70721, Note_off_c, 0, 61, 100
1, 70721, Note_on_c, 0, 58, 100
1, 70769, Note_off_c, 0, 58, 100
1, 70769, Note_on_c, 0, 55, 100
1, 70817, Note_off_c, 0, 55, 100
1, 70817, Note_on_c, 0, 60, 100
1, 70855, Note_off_c, 0, 60, 100
1, 70855, Note_on_c, 0, 62, 100
1, 70893, Note_off_c, 0, 62, 100
1, 70893, Note_on_c, 0, 63, 100
1, 70931, Note_off_c, 0, 63, 100
1, 70931, Note_on_c, 0, 60, 100
1, 70969, Note_off_c, 0, 60, 100
1, 70969, Note_on_c, 0, 63, 100
1, 71007, Note_off_c, 0, 63, 100
1, 71007, Note_on_c, 0, 65, 100
1, 71055, Note_off_c, 0, 65, 100
1, 71055, Note_on_c, 0, 64, 100
1, 71103, Note_off_c, 0, 64, 100
1, 71103, Note_on_c, 0, 63, 100
1, 71151, Note_off_c, 0, 63, 100
1, 71151, Note_on_c, 0, 67, 100
1, 71199, Note_off_c, 0, 67, 100
1, 71199, Note_on_c, 0, 65, 100
1, 71263, Note_off_c, 0, 65, 100
1, 71263, Note_on_c, 0, 61, 100
1, 71327, Note_off_c, 0, 61, 100
1, 71327, Note_on_c, 0, 53, 100
1, 71391, Note_off_c, 0, 53, 100
1, 71391, Note_on_c, 0, 58, 100
1, 71501, Note_off_c, 0, 58, 100
1, 71501, End_track
0, 0, End_of_file
