0, 0, Header, 1, 1, 192
1, 0, Start_track
1, 0, Title_t, "Melody"
1, 0, Tempo, 357142
1, 0, Key_signature, -3, "major"
1, 0, Time_signature, 4, 2, 24, 8
1, 96, Note_on_c, 0, 58, 100
1, 288, Note_off_c, 0, 58, 100
1, 288, Note_on_c, 0, 58, 100
1, 384, Note_off_c, 0, 58, 100
1, 384, Note_on_c, 0, 63, 100
1, 480, Note_off_c, 0, 63, 100
1, 480, Note_on_c, 0, 65, 100
1, 576, Note_off_c, 0, 65, 100
1, 576, Note_on_c, 0, 62, 100
1, 672, Note_off_c, 0, 62, 100
1, 672, Note_on_c, 0, 63, 100
1, 720, Note_off_c, 0, 63, 100
1, 720, Note_on_c, 0, 65, 100
1, 864, Note_off_c, 0, 65, 100
1, 864, Note_on_c, 0, 62, 100
1, 960, Note_off_c, 0, 62, 100
1, 960, Note_on_c, 0, 65, 100
1, 1104, Note_off_c, 0, 65, 100
1, 1104, Note_on_c, 0, 62, 100
1, 1152, Note_off_c, 0, 62, 100
1, 1152, Note_on_c, 0, 64, 100
1, 1280, Note_off_c, 0, 64, 100
1, 1280, Note_on_c, 0, 61, 100
1, 1344, Note_off_c, 0, 61, 100
1, 1344, Note_on_c, 0, 64, 100
1, 1488, Note_off_c, 0, 64, 100
1, 1488, Note_on_c, 0, 61, 100
1, 1536, Note_off_c, 0, 61, 100
1, 1536, Note_on_c, 0, 63, 100
1, 1872, Note_off_c, 0, 63, 100
1, 1872, Note_on_c, 0, 60, 100
1, 1968, Note_off_c, 0, 60, 100
1, 1968, Note_on_c, 0, 67, 100
1, 2064, Note_off_c, 0, 67, 100
1, 2064, Note_on_c, 0, 65, 100
1, 2160, Note_off_c, 0, 65, 100
1, 2160, Note_on_c, 0, 63, 100
1, 2256, Note_off_c, 0, 63, 100
1, 2256, Note_on_c, 0, 60, 100
1, 2304, Note_off_c, 0, 60, 100
1, 2304, Note_on_c, 0, 56, 100
1, 2400, Note_off_c, 0, 56, 100
1, 2400, Note_on_c, 0, 60, 100
1, 2496, Note_off_c, 0, 60, 100
1, 2496, Note_on_c, 0, 63, 100
1, 2592, Note_off_c, 0, 63, 100
1, 2592, Note_on_c, 0, 67, 100
1, 2736, Note_off_c, 0, 67, 100
1, 2736, Note_on_c, 0, 66, 100
1, 2832, Note_off_c, 0, 66, 100
1, 2832, Note_on_c, 0, 62, 100
1, 2928, Note_off_c, 0, 62, 100
1, 2928, Note_on_c, 0, 58, 100
1, 3024, Note_off_c, 0, 58, 100
1, 3024, Note_on_c, 0, 57, 100
1, 3120, Note_off_c, 0, 57, 100
1, 3120, Note_on_c, 0, 56, 100
1, 3216, Note_off_c, 0, 56, 100
1, 3216, Note_on_c, 0, 60, 100
1, 3264, Note_off_c, 0, 60, 100
1, 3264, Note_on_c, 0, 59, 100
1, 3360, Note_off_c, 0, 59, 100
1, 3360, Note_on_c, 0, 57, 100
1, 3456, Note_off_c, 0, 57, 100
1, 3456, Note_on_c, 0, 58, 100
1, 3600, Note_off_c, 0, 58, 100
1, 3600, Note_on_c, 0, 51, 100
1, 3792, Note_off_c, 0, 51, 100
1, 3792, Note_on_c, 0, 51, 100
1, 3888, Note_off_c, 0, 51, 100
1, 4646, Note_on_c, 0, 55, 100
1, 4722, Note_off_c, 0, 55, 100
1, 4722, Note_on_c, 0, 56, 100
1, 4760, Note_off_c, 0, 56, 100
1, 4760, Note_on_c, 0, 55, 100
1, 4942, Note_off_c, 0, 55, 100
1, 4942, Note_on_c, 0, 55, 100
1, 4990, Note_off_c, 0, 55, 100
1, 4990, Note_on_c, 0, 56, 100
1, 5086, Note_off_c, 0, 56, 100
1, 5086, Note_on_c, 0, 54, 100
1, 5182, Note_off_c, 0, 54, 100
1, 5566, Note_on_c, 0, 54, 100
1, 5662, Note_off_c, 0, 54, 100
1, 5662, Note_on_c, 0, 55, 100
1, 5710, Note_off_c, 0, 55, 100
1, 5710, Note_on_c, 0, 61, 100
1, 5758, Note_off_c, 0, 61, 100
1, 5758, Note_on_c, 0, 58, 100
1, 5950, Note_off_c, 0, 58, 100
1, 5950, Note_on_c, 0, 61, 100
1, 6046, Note_off_c, 0, 61, 100
1, 6046, Note_on_c, 0, 59, 100
1, 6142, Note_off_c, 0, 59, 100
1, 6142, Note_on_c, 0, 60, 100
1, 6334, Note_off_c, 0, 60, 100
1, 6334, Note_on_c, 0, 61, 100
1, 6430, Note_off_c, 0, 61, 100
1, 6430, Note_on_c, 0, 62, 100
1, 6526, Note_off_c, 0, 62, 100
1, 6526, Note_on_c, 0, 63, 100
1, 6622, Note_off_c, 0, 63, 100
1, 6622, Note_on_c, 0, 65, 100
1, 6718, Note_off_c, 0, 65, 100
1, 6718, Note_on_c, 0, 60, 100
1, 6814, Note_off_c, 0, 60, 100
1, 6814, Note_on_c, 0, 61, 100
1, 6910, Note_off_c, 0, 61, 100
1, 6910, Note_on_c, 0, 63, 100
1, 7006, Note_off_c, 0, 63, 100
1, 7006, Note_on_c, 0, 65, 100
1, 7150, Note_off_c, 0, 65, 100
1, 7150, Note_on_c, 0, 60, 100
1, 7246, Note_off_c, 0, 60, 100
1, 7246, Note_on_c, 0, 61, 100
1, 7294, Note_off_c, 0, 61, 100
1, 7294, Note_on_c, 0, 63, 100
1, 7390, Note_off_c, 0, 63, 100
1, 7390, Note_on_c, 0, 65, 100
1, 7534, Note_off_c, 0, 65, 100
1, 7534, Note_on_c, 0, 60, 100
1, 7630, Note_off_c, 0, 60, 100
1, 7630, Note_on_c, 0, 61, 100
1, 7678, Note_off_c, 0, 61, 100
1, 7678, Note_on_c, 0, 63, 100
1, 7806, Note_off_c, 0, 63, 100
1, 7806, Note_on_c, 0, 65, 100
1, 7918, Note_off_c, 0, 65, 100
1, 7918, Note_on_c, 0, 63, 100
1, 8014, Note_off_c, 0, 63, 100
1, 8014, Note_on_c, 0, 65, 100
1, 8302, Note_off_c, 0, 65, 100
1, 9214, Note_on_c, 0, 66, 100
1, 9310, Note_off_c, 0, 66, 100
1, 9310, Note_on_c, 0, 65, 100
1, 9406, Note_off_c, 0, 65, 100
1, 9406, Note_on_c, 0, 63, 100
1, 9502, Note_off_c, 0, 63, 100
1, 9502, Note_on_c, 0, 65, 100
1, 9790, Note_off_c, 0, 65, 100
1, 10030, Note_on_c, 0, 62, 100
1, 10126, Note_off_c, 0, 62, 100
1, 10366, Note_on_c, 0, 58, 100
1, 10462, Note_off_c, 0, 58, 100
1, 10462, Note_on_c, 0, 60, 100
1, 10558, Note_off_c, 0, 60, 100
1, 10558, Note_on_c, 0, 61, 100
1, 10654, Note_off_c, 0, 61, 100
1, 10654, Note_on_c, 0, 63, 100
1, 10798, Note_off_c, 0, 63, 100
1, 10798, Note_on_c, 0, 59, 100
1, 10894, Note_off_c, 0, 59, 100
1, 10894, Note_on_c, 0, 60, 100
1, 10942, Note_off_c, 0, 60, 100
1, 10942, Note_on_c, 0, 55, 100
1, 11038, Note_off_c, 0, 55, 100
1, 11038, Note_on_c, 0, 58, 100
1, 11278, Note_off_c, 0, 58, 100
1, 11278, Note_on_c, 0, 56, 100
1, 11326, Note_off_c, 0, 56, 100
1, 11326, Note_on_c, 0, 57, 100
1, 11518, Note_off_c, 0, 57, 100
1, 11518, Note_on_c, 0, 60, 100
1, 11614, Note_off_c, 0, 60, 100
1, 11614, Note_on_c, 0, 57, 100
1, 11950, Note_off_c, 0, 57, 100
1, 11950, Note_on_c, 0, 60, 100
1, 12046, Note_off_c, 0, 60, 100
1, 12046, Note_on_c, 0, 63, 100
1, 12286, Note_off_c, 0, 63, 100
1, 12286, Note_on_c, 0, 60, 100
1, 12382, Note_off_c, 0, 60, 100
1, 12382, Note_on_c, 0, 53, 100
1, 12622, Note_off_c, 0, 53, 100
1, 12622, Note_on_c, 0, 53, 100
1, 12718, Note_off_c, 0, 53, 100
1, 13438, Note_on_c, 0, 50, 100
1, 13582, Note_off_c, 0, 50, 100
1, 13582, Note_on_c, 0, 51, 100
1, 13726, Note_off_c, 0, 51, 100
1, 13726, Note_on_c, 0, 55, 100
1, 13822, Note_off_c, 0, 55, 100
1, 13822, Note_on_c, 0, 60, 100
1, 13918, Note_off_c, 0, 60, 100
1, 13918, Note_on_c, 0, 57, 100
1, 14014, Note_off_c, 0, 57, 100
1, 14542, Note_on_c, 0, 60, 100
1, 14590, Note_off_c, 0, 60, 100
1, 14590, Note_on_c, 0, 56, 100
1, 14686, Note_off_c, 0, 56, 100
1, 14686, Note_on_c, 0, 60, 100
1, 14830, Note_off_c, 0, 60, 100
1, 14830, Note_on_c, 0, 63, 100
1, 14926, Note_off_c, 0, 63, 100
1, 14926, Note_on_c, 0, 66, 100
1, 14974, Note_off_c, 0, 66, 100
1, 14974, Note_on_c, 0, 67, 100
1, 15070, Note_off_c, 0, 67, 100
1, 15070, Note_on_c, 0, 68, 100
1, 15166, Note_off_c, 0, 68, 100
1, 15694, Note_on_c, 0, 66, 100
1, 15886, Note_off_c, 0, 66, 100
1, 15886, Note_on_c, 0, 70, 100
1, 15982, Note_off_c, 0, 70, 100
1, 15982, Note_on_c, 0, 75, 100
1, 16078, Note_off_c, 0, 75, 100
1, 16078, Note_on_c, 0, 74, 100
1, 16174, Note_off_c, 0, 74, 100
1, 16174, Note_on_c, 0, 77, 100
1, 16270, Note_off_c, 0, 77, 100
1, 16270, Note_on_c, 0, 75, 100
1, 16414, Note_off_c, 0, 75, 100
1, 16414, Note_on_c, 0, 70, 100
1, 16558, Note_off_c, 0, 70, 100
1, 16558, Note_on_c, 0, 68, 100
1, 16702, Note_off_c, 0, 68, 100
1, 16702, Note_on_c, 0, 72, 100
1, 16894, Note_off_c, 0, 72, 100
1, 16894, Note_on_c, 0, 70, 100
1, 17230, Note_off_c, 0, 70, 100
1, 17230, Note_on_c, 0, 67, 100
1, 17326, Note_off_c, 0, 67, 100
1, 17326, Note_on_c, 0, 63, 100
1, 17422, Note_off_c, 0, 63, 100
1, 17422, Note_on_c, 0, 61, 100
1, 17566, Note_off_c, 0, 61, 100
1, 17566, Note_on_c, 0, 61, 100
1, 17854, Note_off_c, 0, 61, 100
1, 17854, Note_on_c, 0, 65, 100
1, 17950, Note_off_c, 0, 65, 100
1, 17950, Note_on_c, 0, 68, 100
1, 18094, Note_off_c, 0, 68, 100
1, 18094, Note_on_c, 0, 67, 100
1, 18190, Note_off_c, 0, 67, 100
1, 18190, Note_on_c, 0, 63, 100
1, 18238, Note_off_c, 0, 63, 100
1, 18238, Note_on_c, 0, 65, 100
1, 18382, Note_off_c, 0, 65, 100
1, 18382, Note_on_c, 0, 60, 100
1, 18430, Note_off_c, 0, 60, 100
1, 18430, Note_on_c, 0, 63, 100
1, 18766, Note_off_c, 0, 63, 100
1, 18766, Note_on_c, 0, 60, 100
1, 18814, Note_off_c, 0, 60, 100
1, 18814, Note_on_c, 0, 65, 100
1, 18958, Note_off_c, 0, 65, 100
1, 18958, Note_on_c, 0, 63, 100
1, 19054, Note_off_c, 0, 63, 100
1, 20110, Note_on_c, 0, 56, 100
1, 20206, Note_off_c, 0, 56, 100
1, 20206, Note_on_c, 0, 60, 100
1, 20302, Note_off_c, 0, 60, 100
1, 20302, Note_on_c, 0, 63, 100
1, 20414, Note_off_c, 0, 63, 100
1, 20414, Note_on_c, 0, 65, 100
1, 20542, Note_off_c, 0, 65, 100
1, 20542, Note_on_c, 0, 63, 100
1, 20686, Note_off_c, 0, 63, 100
1, 20686, Note_on_c, 0, 66, 100
1, 20830, Note_off_c, 0, 66, 100
1, 20830, Note_on_c, 0, 63, 100
1, 20926, Note_off_c, 0, 63, 100
1, 20926, Note_on_c, 0, 63, 100
1, 21214, Note_off_c, 0, 63, 100
1, 21758, Note_on_c, 0, 63, 100
1, 21822, Note_off_c, 0, 63, 100
1, 21822, Note_on_c, 0, 67, 100
1, 21886, Note_off_c, 0, 67, 100
1, 21886, Note_on_c, 0, 72, 100
1, 22030, Note_off_c, 0, 72, 100
1, 22030, Note_on_c, 0, 75, 100
1, 22174, Note_off_c, 0, 75, 100
1, 22174, Note_on_c, 0, 72, 100
1, 22366, Note_off_c, 0, 72, 100
1, 22366, Note_on_c, 0, 66, 100
1, 22654, Note_off_c, 0, 66, 100
1, 22654, Note_on_c, 0, 63, 100
1, 22846, Note_off_c, 0, 63, 100
1, 22846, Note_on_c, 0, 60, 100
1, 22974, Note_off_c, 0, 60, 100
1, 22974, Note_on_c, 0, 63, 100
1, 23086, Note_off_c, 0, 63, 100
1, 23086, Note_on_c, 0, 67, 100
1, 23182, Note_off_c, 0, 67, 100
1, 23182, Note_on_c, 0, 72, 100
1, 23278, Note_off_c, 0, 72, 100
1, 23278, Note_on_c, 0, 67, 100
1, 23374, Note_off_c, 0, 67, 100
1, 23374, Note_on_c, 0, 65, 100
1, 23470, Note_off_c, 0, 65, 100
1, 23470, Note_on_c, 0, 63, 100
1, 23566, Note_off_c, 0, 63, 100
1, 23566, Note_on_c, 0, 60, 100
1, 23678, Note_off_c, 0, 60, 100
1, 23678, Note_on_c, 0, 63, 100
1, 23742, Note_off_c, 0, 63, 100
1, 23742, Note_on_c, 0, 66, 100
1, 23806, Note_off_c, 0, 66, 100
1, 23806, Note_on_c, 0, 67, 100
1, 23902, Note_off_c, 0, 67, 100
1, 23902, Note_on_c, 0, 66, 100
1, 23998, Note_off_c, 0, 66, 100
1, 23998, Note_on_c, 0, 67, 100
1, 24190, Note_off_c, 0, 67, 100
1, 24190, Note_on_c, 0, 63, 100
1, 24286, Note_off_c, 0, 63, 100
1, 24286, Note_on_c, 0, 58, 100
1, 24430, Note_off_c, 0, 58, 100
1, 24430, Note_on_c, 0, 55, 100
1, 24526, Note_off_c, 0, 55, 100
1, 24526, Note_on_c, 0, 56, 100
1, 24574, Note_off_c, 0, 56, 100
1, 24574, Note_on_c, 0, 58, 100
1, 24670, Note_off_c, 0, 58, 100
1, 24670, Note_on_c, 0, 63, 100
1, 25054, Note_off_c, 0, 63, 100
1, 25054, Note_on_c, 0, 67, 100
1, 25150, Note_off_c, 0, 67, 100
1, 25150, Note_on_c, 0, 72, 100
1, 25438, Note_off_c, 0, 72, 100
1, 25438, Note_on_c, 0, 67, 100
1, 25534, Note_off_c, 0, 67, 100
1, 25534, Note_on_c, 0, 72, 100
1, 25726, Note_off_c, 0, 72, 100
1, 25726, Note_on_c, 0, 75, 100
1, 25966, Note_off_c, 0, 75, 100
1, 25966, Note_on_c, 0, 72, 100
1, 26110, Note_off_c, 0, 72, 100
1, 26110, Note_on_c, 0, 75, 100
1, 26446, Note_off_c, 0, 75, 100
1, 26446, Note_on_c, 0, 72, 100
1, 26542, Note_off_c, 0, 72, 100
1, 26542, Note_on_c, 0, 67, 100
1, 26638, Note_off_c, 0, 67, 100
1, 26638, Note_on_c, 0, 63, 100
1, 26734, Note_off_c, 0, 63, 100
1, 27310, Note_on_c, 0, 67, 100
1, 27406, Note_off_c, 0, 67, 100
1, 27406, Note_on_c, 0, 70, 100
1, 27502, Note_off_c, 0, 70, 100
1, 27502, Note_on_c, 0, 67, 100
1, 27598, Note_off_c, 0, 67, 100
1, 27598, Note_on_c, 0, 65, 100
1, 27694, Note_off_c, 0, 65, 100
1, 27694, Note_on_c, 0, 63, 100
1, 27742, Note_off_c, 0, 63, 100
1, 27742, Note_on_c, 0, 65, 100
1, 27790, Note_off_c, 0, 65, 100
1, 27790, Note_on_c, 0, 63, 100
1, 27838, Note_off_c, 0, 63, 100
1, 27838, Note_on_c, 0, 62, 100
1, 27934, Note_off_c, 0, 62, 100
1, 27934, Note_on_c, 0, 65, 100
1, 28030, Note_off_c, 0, 65, 100
1, 28030, Note_on_c, 0, 63, 100
1, 28222, Note_off_c, 0, 63, 100
1, 28222, Note_on_c, 0, 58, 100
1, 28350, Note_off_c, 0, 58, 100
1, 28350, Note_on_c, 0, 58, 100
1, 28510, Note_off_c, 0, 58, 100
1, 28510, Note_on_c, 0, 58, 100
1, 28606, Note_off_c, 0, 58, 100
1, 29566, Note_on_c, 0, 70, 100
1, 29662, Note_off_c, 0, 70, 100
1, 29662, Note_on_c, 0, 72, 100
1, 29710, Note_off_c, 0, 72, 100
1, 29710, Note_on_c, 0, 70, 100
1, 29758, Note_off_c, 0, 70, 100
1, 29758, Note_on_c, 0, 68, 100
1, 29854, Note_off_c, 0, 68, 100
1, 30382, Note_on_c, 0, 67, 100
1, 30526, Note_off_c, 0, 67, 100
1, 30526, Note_on_c, 0, 70, 100
1, 30622, Note_off_c, 0, 70, 100
1, 30622, Note_on_c, 0, 71, 100
1, 30766, Note_off_c, 0, 71, 100
1, 30766, Note_on_c, 0, 72, 100
1, 30862, Note_off_c, 0, 72, 100
1, 30862, Note_on_c, 0, 73, 100
1, 30910, Note_off_c, 0, 73, 100
1, 30910, Note_on_c, 0, 74, 100
1, 31006, Note_off_c, 0, 74, 100
1, 31006, Note_on_c, 0, 75, 100
1, 31150, Note_off_c, 0, 75, 100
1, 31150, Note_on_c, 0, 77, 100
1, 31246, Note_off_c, 0, 77, 100
1, 31246, Note_on_c, 0, 75, 100
1, 31342, Note_off_c, 0, 75, 100
1, 31342, Note_on_c, 0, 74, 100
1, 31438, Note_off_c, 0, 74, 100
1, 31438, Note_on_c, 0, 77, 100
1, 31486, Note_off_c, 0, 77, 100
1, 31486, Note_on_c, 0, 75, 100
1, 31582, Note_off_c, 0, 75, 100
1, 31822, Note_on_c, 0, 72, 100
1, 31870, Note_off_c, 0, 72, 100
1, 31870, Note_on_c, 0, 75, 100
1, 31966, Note_off_c, 0, 75, 100
1, 31966, Note_on_c, 0, 77, 100
1, 32014, Note_off_c, 0, 77, 100
1, 32014, Note_on_c, 0, 75, 100
1, 32110, Note_off_c, 0, 75, 100
1, 32110, Note_on_c, 0, 72, 100
1, 32206, Note_off_c, 0, 72, 100
1, 32206, Note_on_c, 0, 75, 100
1, 32302, Note_off_c, 0, 75, 100
1, 32302, Note_on_c, 0, 77, 100
1, 32398, Note_off_c, 0, 77, 100
1, 32398, Note_on_c, 0, 75, 100
1, 32542, Note_off_c, 0, 75, 100
1, 32542, Note_on_c, 0, 75, 100
1, 32830, Note_off_c, 0, 75, 100
1, 33310, Note_on_c, 0, 71, 100
1, 33406, Note_off_c, 0, 71, 100
1, 33406, Note_on_c, 0, 82, 100
1, 33550, Note_off_c, 0, 82, 100
1, 33550, Note_on_c, 0, 80, 100
1, 33646, Note_off_c, 0, 80, 100
1, 34558, Note_on_c, 0, 79, 100
1, 34750, Note_off_c, 0, 79, 100
1, 34750, Note_on_c, 0, 84, 100
1, 34878, Note_off_c, 0, 84, 100
1, 34878, Note_on_c, 0, 86, 100
1, 34974, Note_off_c, 0, 86, 100
1, 35422, Note_on_c, 0, 79, 100
1, 35518, Note_off_c, 0, 79, 100
1, 35518, Note_on_c, 0, 85, 100
1, 35646, Note_off_c, 0, 85, 100
1, 35646, Note_on_c, 0, 86, 100
1, 35758, Note_off_c, 0, 86, 100
1, 35758, Note_on_c, 0, 84, 100
1, 36478, Note_off_c, 0, 84, 100
1, 36478, Note_on_c, 0, 79, 100
1, 36574, Note_off_c, 0, 79, 100
1, 36574, Note_on_c, 0, 80, 100
1, 36622, Note_off_c, 0, 80, 100
1, 36622, Note_on_c, 0, 79, 100
1, 36670, Note_off_c, 0, 79, 100
1, 36670, Note_on_c, 0, 75, 100
1, 36766, Note_off_c, 0, 75, 100
1, 36766, Note_on_c, 0, 79, 100
1, 36862, Note_off_c, 0, 79, 100
1, 36862, Note_on_c, 0, 77, 100
1, 36958, Note_off_c, 0, 77, 100
1, 36958, Note_on_c, 0, 79, 100
1, 37006, Note_off_c, 0, 79, 100
1, 37006, Note_on_c, 0, 77, 100
1, 37054, Note_off_c, 0, 77, 100
1, 37054, Note_on_c, 0, 72, 100
1, 37150, Note_off_c, 0, 72, 100
1, 37150, Note_on_c, 0, 75, 100
1, 37246, Note_off_c, 0, 75, 100
1, 37246, Note_on_c, 0, 74, 100
1, 37390, Note_off_c, 0, 74, 100
1, 37390, Note_on_c, 0, 70, 100
1, 37534, Note_off_c, 0, 70, 100
1, 37534, Note_on_c, 0, 70, 100
1, 37726, Note_off_c, 0, 70, 100
1, 38014, Note_on_c, 0, 74, 100
1, 38110, Note_off_c, 0, 74, 100
1, 38398, Note_on_c, 0, 77, 100
1, 38494, Note_off_c, 0, 77, 100
1, 38494, Note_on_c, 0, 75, 100
1, 38590, Note_off_c, 0, 75, 100
1, 39118, Note_on_c, 0, 69, 100
1, 39166, Note_off_c, 0, 69, 100
1, 39166, Note_on_c, 0, 72, 100
1, 39262, Note_off_c, 0, 72, 100
1, 39262, Note_on_c, 0, 75, 100
1, 39358, Note_off_c, 0, 75, 100
1, 39358, Note_on_c, 0, 79, 100
1, 39550, Note_off_c, 0, 79, 100
1, 39550, Note_on_c, 0, 75, 100
1, 39646, Note_off_c, 0, 75, 100
1, 39646, Note_on_c, 0, 70, 100
1, 39742, Note_off_c, 0, 70, 100
1, 39934, Note_on_c, 0, 68, 100
1, 40030, Note_off_c, 0, 68, 100
1, 40030, Note_on_c, 0, 66, 100
1, 40126, Note_off_c, 0, 66, 100
1, 40126, Note_on_c, 0, 67, 100
1, 40254, Note_off_c, 0, 67, 100
1, 40254, Note_on_c, 0, 70, 100
1, 40542, Note_off_c, 0, 70, 100
1, 41470, Note_on_c, 0, 79, 100
1, 41518, Note_off_c, 0, 79, 100
1, 41518, Note_on_c, 0, 80, 100
1, 41566, Note_off_c, 0, 80, 100
1, 41566, Note_on_c, 0, 81, 100
1, 41614, Note_off_c, 0, 81, 100
1, 41614, Note_on_c, 0, 82, 100
1, 41710, Note_off_c, 0, 82, 100
1, 41710, Note_on_c, 0, 83, 100
1, 41758, Note_off_c, 0, 83, 100
1, 41758, Note_on_c, 0, 84, 100
1, 41806, Note_off_c, 0, 84, 100
1, 41806, Note_on_c, 0, 85, 100
1, 41854, Note_off_c, 0, 85, 100
1, 41854, Note_on_c, 0, 86, 100
1, 41892, Note_off_c, 0, 86, 100
1, 41892, Note_on_c, 0, 87, 100
1, 41930, Note_off_c, 0, 87, 100
1, 41930, Note_on_c, 0, 86, 100
1, 42006, Note_off_c, 0, 86, 100
1, 42006, Note_on_c, 0, 85, 100
1, 42044, Note_off_c, 0, 85, 100
1, 42044, Note_on_c, 0, 84, 100
1, 42140, Note_off_c, 0, 84, 100
1, 42620, Note_on_c, 0, 82, 100
1, 42812, Note_off_c, 0, 82, 100
1, 42812, Note_on_c, 0, 79, 100
1, 42908, Note_off_c, 0, 79, 100
1, 42908, Note_on_c, 0, 82, 100
1, 43004, Note_off_c, 0, 82, 100
1, 43004, Note_on_c, 0, 80, 100
1, 43148, Note_off_c, 0, 80, 100
1, 43148, Note_on_c, 0, 75, 100
1, 43388, Note_off_c, 0, 75, 100
1, 43388, Note_on_c, 0, 77, 100
1, 43532, Note_off_c, 0, 77, 100
1, 43532, Note_on_c, 0, 73, 100
1, 43724, Note_off_c, 0, 73, 100
1, 43724, Note_on_c, 0, 75, 100
1, 43916, Note_off_c, 0, 75, 100
1, 43916, Note_on_c, 0, 72, 100
1, 44156, Note_off_c, 0, 72, 100
1, 44156, Note_on_c, 0, 73, 100
1, 44348, Note_off_c, 0, 73, 100
1, 44348, Note_on_c, 0, 74, 100
1, 44540, Note_off_c, 0, 74, 100
1, 44540, Note_on_c, 0, 75, 100
1, 44876, Note_off_c, 0, 75, 100
1, 44876, Note_on_c, 0, 72, 100
1, 44924, Note_off_c, 0, 72, 100
1, 44924, Note_on_c, 0, 77, 100
1, 45020, Note_off_c, 0, 77, 100
1, 45020, Note_on_c, 0, 75, 100
1, 45116, Note_off_c, 0, 75, 100
1, 45692, Note_on_c, 0, 71, 100
1, 45820, Note_off_c, 0, 71, 100
1, 45820, Note_on_c, 0, 70, 100
1, 45916, Note_off_c, 0, 70, 100
1, 46508, Note_on_c, 0, 66, 100
1, 46604, Note_off_c, 0, 66, 100
1, 46604, Note_on_c, 0, 67, 100
1, 46652, Note_off_c, 0, 67, 100
1, 46652, Note_on_c, 0, 68, 100
1, 46940, Note_off_c, 0, 68, 100
1, 46940, Note_on_c, 0, 66, 100
1, 47084, Note_off_c, 0, 66, 100
1, 47084, Note_on_c, 0, 67, 100
1, 47180, Note_off_c, 0, 67, 100
1, 47180, Note_on_c, 0, 70, 100
1, 47276, Note_off_c, 0, 70, 100
1, 47276, Note_on_c, 0, 74, 100
1, 47372, Note_off_c, 0, 74, 100
1, 47372, Note_on_c, 0, 77, 100
1, 47420, Note_off_c, 0, 77, 100
1, 47420, Note_on_c, 0, 76, 100
1, 47516, Note_off_c, 0, 76, 100
1, 47516, Note_on_c, 0, 74, 100
1, 47612, Note_off_c, 0, 74, 100
1, 47612, Note_on_c, 0, 75, 100
1, 47756, Note_off_c, 0, 75, 100
1, 47756, Note_on_c, 0, 72, 100
1, 47852, Note_off_c, 0, 72, 100
1, 47996, Note_on_c, 0, 69, 100
1, 48188, Note_off_c, 0, 69, 100
1, 48188, Note_on_c, 0, 75, 100
1, 48316, Note_off_c, 0, 75, 100
1, 48316, Note_on_c, 0, 79, 100
1, 48428, Note_off_c, 0, 79, 100
1, 48428, Note_on_c, 0, 78, 100
1, 48524, Note_off_c, 0, 78, 100
1, 48524, Note_on_c, 0, 74, 100
1, 48620, Note_off_c, 0, 74, 100
1, 48620, Note_on_c, 0, 70, 100
1, 48716, Note_off_c, 0, 70, 100
1, 48716, Note_on_c, 0, 69, 100
1, 48764, Note_off_c, 0, 69, 100
1, 48764, Note_on_c, 0, 68, 100
1, 48860, Note_off_c, 0, 68, 100
1, 48860, Note_on_c, 0, 72, 100
1, 48956, Note_off_c, 0, 72, 100
1, 48956, Note_on_c, 0, 71, 100
1, 49100, Note_off_c, 0, 71, 100
1, 49100, Note_on_c, 0, 65, 100
1, 49148, Note_off_c, 0, 65, 100
1, 49148, Note_on_c, 0, 70, 100
1, 49244, Note_off_c, 0, 70, 100
1, 49436, Note_on_c, 0, 70, 100
1, 49532, Note_off_c, 0, 70, 100
1, 49532, Note_on_c, 0, 75, 100
1, 49628, Note_off_c, 0, 75, 100
1, 49628, Note_on_c, 0, 70, 100
1, 49820, Note_off_c, 0, 70, 100
1, 49820, Note_on_c, 0, 75, 100
1, 50012, Note_off_c, 0, 75, 100
1, 50012, Note_on_c, 0, 75, 100
1, 50108, Note_off_c, 0, 75, 100
1, 50108, Note_on_c, 0, 78, 100
1, 50204, Note_off_c, 0, 78, 100
1, 50204, Note_on_c, 0, 79, 100
1, 50300, Note_off_c, 0, 79, 100
1, 50300, Note_on_c, 0, 75, 100
1, 50396, Note_off_c, 0, 75, 100
1, 50396, Note_on_c, 0, 77, 100
1, 50588, Note_off_c, 0, 77, 100
1, 50588, Note_on_c, 0, 75, 100
1, 50876, Note_off_c, 0, 75, 100
1, 51452, Note_on_c, 0, 87, 100
1, 51548, Note_off_c, 0, 87, 100
1, 52220, Note_on_c, 0, 87, 100
1, 52412, Note_off_c, 0, 87, 100
1, 52412, Note_on_c, 0, 85, 100
1, 52508, Note_off_c, 0, 85, 100
1, 52508, Note_on_c, 0, 84, 100
1, 52652, Note_off_c, 0, 84, 100
1, 52652, Note_on_c, 0, 82, 100
1, 52748, Note_off_c, 0, 82, 100
1, 52748, Note_on_c, 0, 84, 100
1, 52940, Note_off_c, 0, 84, 100
1, 52940, Note_on_c, 0, 82, 100
1, 53180, Note_off_c, 0, 82, 100
1, 53180, Note_on_c, 0, 80, 100
1, 53276, Note_off_c, 0, 80, 100
1, 53276, Note_on_c, 0, 78, 100
1, 53372, Note_off_c, 0, 78, 100
1, 53372, Note_on_c, 0, 75, 100
1, 53516, Note_off_c, 0, 75, 100
1, 53516, Note_on_c, 0, 77, 100
1, 53660, Note_off_c, 0, 77, 100
1, 53660, Note_on_c, 0, 75, 100
1, 53948, Note_off_c, 0, 75, 100
1, 54524, Note_on_c, 0, 78, 100
1, 54572, Note_off_c, 0, 78, 100
1, 54572, Note_on_c, 0, 79, 100
1, 54620, Note_off_c, 0, 79, 100
1, 54620, Note_on_c, 0, 78, 100
1, 54668, Note_off_c, 0, 78, 100
1, 54668, Note_on_c, 0, 75, 100
1, 54754, Note_off_c, 0, 75, 100
1, 54754, Note_on_c, 0, 77, 100
1, 54792, Note_off_c, 0, 77, 100
1, 54792, Note_on_c, 0, 79, 100
1, 54830, Note_off_c, 0, 79, 100
1, 54830, Note_on_c, 0, 77, 100
1, 54868, Note_off_c, 0, 77, 100
1, 54868, Note_on_c, 0, 73, 100
1, 54906, Note_off_c, 0, 73, 100
1, 54906, Note_on_c, 0, 75, 100
1, 55050, Note_off_c, 0, 75, 100
1, 55050, Note_on_c, 0, 75, 100
1, 55098, Note_off_c, 0, 75, 100
1, 55098, Note_on_c, 0, 77, 100
1, 55194, Note_off_c, 0, 77, 100
1, 55578, Note_on_c, 0, 75, 100
1, 55674, Note_off_c, 0, 75, 100
1, 55674, Note_on_c, 0, 78, 100
1, 55722, Note_off_c, 0, 78, 100
1, 55722, Note_on_c, 0, 79, 100
1, 55770, Note_off_c, 0, 79, 100
1, 55770, Note_on_c, 0, 77, 100
1, 55818, Note_off_c, 0, 77, 100
1, 55818, Note_on_c, 0, 75, 100
1, 55866, Note_off_c, 0, 75, 100
1, 55866, Note_on_c, 0, 77, 100
1, 55994, Note_off_c, 0, 77, 100
1, 55994, Note_on_c, 0, 75, 100
1, 56250, Note_off_c, 0, 75, 100
1, 56250, Note_on_c, 0, 77, 100
1, 56346, Note_off_c, 0, 77, 100
1, 56730, Note_on_c, 0, 75, 100
1, 56826, Note_off_c, 0, 75, 100
1, 56826, Note_on_c, 0, 78, 100
1, 57018, Note_off_c, 0, 78, 100
1, 57018, Note_on_c, 0, 75, 100
1, 57162, Note_off_c, 0, 75, 100
1, 57162, Note_on_c, 0, 73, 100
1, 57210, Note_off_c, 0, 73, 100
1, 57210, Note_on_c, 0, 75, 100
1, 57498, Note_off_c, 0, 75, 100
1, 57786, Note_on_c, 0, 81, 100
1, 57882, Note_off_c, 0, 81, 100
1, 57882, Note_on_c, 0, 80, 100
1, 57978, Note_off_c, 0, 80, 100
1, 57978, Note_on_c, 0, 78, 100
1, 58074, Note_off_c, 0, 78, 100
1, 58074, Note_on_c, 0, 75, 100
1, 58170, Note_off_c, 0, 75, 100
1, 59130, Note_on_c, 0, 81, 100
1, 59274, Note_off_c, 0, 81, 100
1, 59274, Note_on_c, 0, 80, 100
1, 59322, Note_off_c, 0, 80, 100
1, 59322, Note_on_c, 0, 78, 100
1, 59450, Note_off_c, 0, 78, 100
1, 59450, Note_on_c, 0, 75, 100
1, 59706, Note_off_c, 0, 75, 100
1, 59706, Note_on_c, 0, 72, 100
1, 59898, Note_off_c, 0, 72, 100
1, 59898, Note_on_c, 0, 79, 100
1, 59994, Note_off_c, 0, 79, 100
1, 59994, Note_on_c, 0, 84, 100
1, 60138, Note_off_c, 0, 84, 100
1, 60138, Note_on_c, 0, 79, 100
1, 60234, Note_off_c, 0, 79, 100
1, 60234, Note_on_c, 0, 77, 100
1, 60320, Note_off_c, 0, 77, 100
1, 60320, Note_on_c, 0, 75, 100
1, 60396, Note_off_c, 0, 75, 100
1, 60396, Note_on_c, 0, 77, 100
1, 60434, Note_off_c, 0, 77, 100
1, 60434, Note_on_c, 0, 75, 100
1, 60472, Note_off_c, 0, 75, 100
1, 60472, Note_on_c, 0, 72, 100
1, 60568, Note_off_c, 0, 72, 100
1, 60568, Note_on_c, 0, 75, 100
1, 60856, Note_off_c, 0, 75, 100
1, 60856, Note_on_c, 0, 72, 100
1, 60952, Note_off_c, 0, 72, 100
1, 60952, Note_on_c, 0, 79, 100
1, 61048, Note_off_c, 0, 79, 100
1, 61048, Note_on_c, 0, 84, 100
1, 61144, Note_off_c, 0, 84, 100
1, 61144, Note_on_c, 0, 87, 100
1, 61240, Note_off_c, 0, 87, 100
1, 62104, Note_on_c, 0, 91, 100
1, 62200, Note_off_c, 0, 91, 100
1, 62584, Note_on_c, 0, 91, 100
1, 62920, Note_off_c, 0, 91, 100
1, 62920, Note_on_c, 0, 91, 100
1, 63016, Note_off_c, 0, 91, 100
1, 63736, Note_on_c, 0, 87, 100
1, 63832, Note_off_c, 0, 87, 100
1, 64504, Note_on_c, 0, 85, 100
1, 64632, Note_off_c, 0, 85, 100
1, 64632, Note_on_c, 0, 83, 100
1, 64696, Note_off_c, 0, 83, 100
1, 64696, Note_on_c, 0, 82, 100
1, 64792, Note_off_c, 0, 82, 100
1, 65272, Note_on_c, 0, 80, 100
1, 65368, Note_off_c, 0, 80, 100
1, 65368, Note_on_c, 0, 81, 100
1, 65416, Note_off_c, 0, 81, 100
1, 65416, Note_on_c, 0, 80, 100
1, 65464, Note_off_c, 0, 80, 100
1, 65464, Note_on_c, 0, 78, 100
1, 65560, Note_off_c, 0, 78, 100
1, 65560, Note_on_c, 0, 79, 100
1, 65656, Note_off_c, 0, 79, 100
1, 65656, Note_on_c, 0, 80, 100
1, 65752, Note_off_c, 0, 80, 100
1, 65752, Note_on_c, 0, 78, 100
1, 65848, Note_off_c, 0, 78, 100
1, 65848, Note_on_c, 0, 79, 100
1, 65944, Note_off_c, 0, 79, 100
1, 65944, Note_on_c, 0, 75, 100
1, 66040, Note_off_c, 0, 75, 100
1, 66040, Note_on_c, 0, 77, 100
1, 66136, Note_off_c, 0, 77, 100
1, 66136, Note_on_c, 0, 79, 100
1, 66184, Note_off_c, 0, 79, 100
1, 66184, Note_on_c, 0, 77, 100
1, 66232, Note_off_c, 0, 77, 100
1, 66232, Note_on_c, 0, 73, 100
1, 66328, Note_off_c, 0, 73, 100
1, 66328, Note_on_c, 0, 77, 100
1, 66424, Note_off_c, 0, 77, 100
1, 66424, Note_on_c, 0, 76, 100
1, 66568, Note_off_c, 0, 76, 100
1, 66568, Note_on_c, 0, 72, 100
1, 66616, Note_off_c, 0, 72, 100
1, 66616, Note_on_c, 0, 75, 100
1, 66712, Note_off_c, 0, 75, 100
1, 66712, Note_on_c, 0, 74, 100
1, 66808, Note_off_c, 0, 74, 100
1, 66808, Note_on_c, 0, 73, 100
1, 67048, Note_off_c, 0, 73, 100
1, 67048, Note_on_c, 0, 65, 100
1, 67192, Note_off_c, 0, 65, 100
1, 67192, Note_on_c, 0, 68, 100
1, 67432, Note_off_c, 0, 68, 100
1, 67432, Note_on_c, 0, 72, 100
1, 67576, Note_off_c, 0, 72, 100
1, 67576, Note_on_c, 0, 75, 100
1, 67912, Note_off_c, 0, 75, 100
1, 67912, Note_on_c, 0, 72, 100
1, 68008, Note_off_c, 0, 72, 100
1, 68008, Note_on_c, 0, 67, 100
1, 68104, Note_off_c, 0, 67, 100
1, 68104, Note_on_c, 0, 65, 100
1, 68200, Note_off_c, 0, 65, 100
1, 68872, Note_on_c, 0, 63, 100
1, 68920, Note_off_c, 0, 63, 100
1, 68920, Note_on_c, 0, 60, 100
1, 69016, Note_off_c, 0, 60, 100
1, 69016, Note_on_c, 0, 67, 100
1, 69112, Note_off_c, 0, 67, 100
1, 69112, Note_on_c, 0, 70, 100
1, 69208, Note_off_c, 0, 70, 100
1, 69640, Note_on_c, 0, 67, 100
1, 69736, Note_off_c, 0, 67, 100
1, 69736, Note_on_c, 0, 68, 100
1, 69832, Note_off_c, 0, 68, 100
1, 69832, Note_on_c, 0, 63, 100
1, 70120, Note_off_c, 0, 63, 100
1, 70744, Note_on_c, 0, 66, 100
1, 70840, Note_off_c, 0, 66, 100
1, 70840, Note_on_c, 0, 67, 100
1, 70936, Note_off_c, 0, 67, 100
1, 70936, Note_on_c, 0, 70, 100
1, 70984, Note_off_c, 0, 70, 100
1, 70984, Note_on_c, 0, 74, 100
1, 71032, Note_off_c, 0, 74, 100
1, 71032, Note_on_c, 0, 77, 100
1, 71128, Note_off_c, 0, 77, 100
1, 71368, Note_on_c, 0, 70, 100
1, 71464, Note_off_c, 0, 70, 100
1, 71464, Note_on_c, 0, 74, 100
1, 71608, Note_off_c, 0, 74, 100
1, 71608, Note_on_c, 0, 77, 100
1, 71656, Note_off_c, 0, 77, 100
1, 71656, Note_on_c, 0, 79, 100
1, 71704, Note_off_c, 0, 79, 100
1, 71704, Note_on_c, 0, 77, 100
1, 71752, Note_off_c, 0, 77, 100
1, 71752, Note_on_c, 0, 74, 100
1, 71800, Note_off_c, 0, 74, 100
1, 71800, Note_on_c, 0, 76, 100
1, 71928, Note_off_c, 0, 76, 100
1, 71928, Note_on_c, 0, 72, 100
1, 72024, Note_off_c, 0, 72, 100
1, 72280, Note_on_c, 0, 75, 100
1, 72328, Note_off_c, 0, 75, 100
1, 72328, Note_on_c, 0, 72, 100
1, 72424, Note_off_c, 0, 72, 100
1, 72424, Note_on_c, 0, 79, 100
1, 72472, Note_off_c, 0, 79, 100
1, 72472, Note_on_c, 0, 84, 100
1, 72568, Note_off_c, 0, 84, 100
1, 72568, Note_on_c, 0, 79, 100
1, 72760, Note_off_c, 0, 79, 100
1, 72760, Note_on_c, 0, 72, 100
1, 72952, Note_off_c, 0, 72, 100
1, 72952, Note_on_c, 0, 75, 100
1, 73144, Note_off_c, 0, 75, 100
1, 73144, Note_on_c, 0, 72, 100
1, 73336, Note_off_c, 0, 72, 100
1, 73336, Note_on_c, 0, 79, 100
1, 73432, Note_off_c, 0, 79, 100
1, 73432, Note_on_c, 0, 82, 100
1, 73576, Note_off_c, 0, 82, 100
1, 73576, Note_on_c, 0, 79, 100
1, 73672, Note_off_c, 0, 79, 100
1, 73672, Note_on_c, 0, 77, 100
1, 73720, Note_off_c, 0, 77, 100
1, 73720, Note_on_c, 0, 75, 100
1, 73816, Note_off_c, 0, 75, 100
1, 73816, Note_on_c, 0, 70, 100
1, 73912, Note_off_c, 0, 70, 100
1, 74104, Note_on_c, 0, 75, 100
1, 74168, Note_off_c, 0, 75, 100
1, 74168, Note_on_c, 0, 77, 100
1, 74232, Note_off_c, 0, 77, 100
1, 74232, Note_on_c, 0, 75, 100
1, 74296, Note_off_c, 0, 75, 100
1, 74296, Note_on_c, 0, 74, 100
1, 74392, Note_off_c, 0, 74, 100
1, 74392, Note_on_c, 0, 77, 100
1, 74440, Note_off_c, 0, 77, 100
1, 74440, Note_on_c, 0, 75, 100
1, 74584, Note_off_c, 0, 75, 100
1, 74584, Note_on_c, 0, 66, 100
1, 74776, Note_off_c, 0, 66, 100
1, 74776, Note_on_c, 0, 70, 100
1, 74872, Note_off_c, 0, 70, 100
1, 74872, Note_on_c, 0, 74, 100
1, 74968, Note_off_c, 0, 74, 100
1, 74968, Note_on_c, 0, 77, 100
1, 75064, Note_off_c, 0, 77, 100
1, 75064, Note_on_c, 0, 76, 100
1, 75192, Note_off_c, 0, 76, 100
1, 75192, Note_on_c, 0, 74, 100
1, 75256, Note_off_c, 0, 74, 100
1, 75256, Note_on_c, 0, 75, 100
1, 75352, Note_off_c, 0, 75, 100
1, 75832, Note_on_c, 0, 69, 100
1, 75908, Note_off_c, 0, 69, 100
1, 75908, Note_on_c, 0, 74, 100
1, 75946, Note_off_c, 0, 74, 100
1, 75946, Note_on_c, 0, 75, 100
1, 75984, Note_off_c, 0, 75, 100
1, 75984, Note_on_c, 0, 79, 100
1, 76022, Note_off_c, 0, 79, 100
1, 76022, Note_on_c, 0, 78, 100
1, 76118, Note_off_c, 0, 78, 100
1, 76118, Note_on_c, 0, 74, 100
1, 76214, Note_off_c, 0, 74, 100
1, 76790, Note_on_c, 0, 77, 100
1, 76838, Note_off_c, 0, 77, 100
1, 76838, Note_on_c, 0, 79, 100
1, 76886, Note_off_c, 0, 79, 100
1, 76886, Note_on_c, 0, 77, 100
1, 76934, Note_off_c, 0, 77, 100
1, 76934, Note_on_c, 0, 74, 100
1, 76982, Note_off_c, 0, 74, 100
1, 76982, Note_on_c, 0, 76, 100
1, 77030, Note_off_c, 0, 76, 100
1, 77030, Note_on_c, 0, 79, 100
1, 77078, Note_off_c, 0, 79, 100
1, 77078, Note_on_c, 0, 76, 100
1, 77126, Note_off_c, 0, 76, 100
1, 77126, Note_on_c, 0, 74, 100
1, 77222, Note_off_c, 0, 74, 100
1, 77222, Note_on_c, 0, 75, 100
1, 77318, Note_off_c, 0, 75, 100
1, 77318, Note_on_c, 0, 70, 100
1, 77414, Note_off_c, 0, 70, 100
1, 77414, Note_on_c, 0, 67, 100
1, 77510, Note_off_c, 0, 67, 100
1, 77510, Note_on_c, 0, 68, 100
1, 77558, Note_off_c, 0, 68, 100
1, 77558, Note_on_c, 0, 70, 100
1, 77654, Note_off_c, 0, 70, 100
1, 78038, Note_on_c, 0, 75, 100
1, 78134, Note_off_c, 0, 75, 100
1, 78134, Note_on_c, 0, 79, 100
1, 78262, Note_off_c, 0, 79, 100
1, 78262, Note_on_c, 0, 82, 100
1, 78358, Note_off_c, 0, 82, 100
1, 79094, Note_on_c, 0, 85, 100
1, 79286, Note_off_c, 0, 85, 100
1, 79286, Note_on_c, 0, 84, 100
1, 79382, Note_off_c, 0, 84, 100
1, 79382, Note_on_c, 0, 83, 100
1, 79478, Note_off_c, 0, 83, 100
1, 79478, Note_on_c, 0, 81, 100
1, 79574, Note_off_c, 0, 81, 100
1, 80630, Note_on_c, 0, 84, 100
1, 80918, Note_off_c, 0, 84, 100
1, 80918, Note_on_c, 0, 82, 100
1, 81014, Note_off_c, 0, 82, 100
1, 81014, Note_on_c, 0, 80, 100
1, 81158, Note_off_c, 0, 80, 100
1, 81158, Note_on_c, 0, 82, 100
1, 81302, Note_off_c, 0, 82, 100
1, 81302, Note_on_c, 0, 80, 100
1, 81590, Note_off_c, 0, 80, 100
1, 81590, Note_on_c, 0, 78, 100
1, 81686, Note_off_c, 0, 78, 100
1, 81686, Note_on_c, 0, 77, 100
1, 81782, Note_off_c, 0, 77, 100
1, 81782, Note_on_c, 0, 75, 100
1, 81878, Note_off_c, 0, 75, 100
1, 81878, Note_on_c, 0, 77, 100
1, 81974, Note_off_c, 0, 77, 100
1, 81974, Note_on_c, 0, 75, 100
1, 82070, Note_off_c, 0, 75, 100
1, 82070, Note_on_c, 0, 77, 100
1, 82358, Note_off_c, 0, 77, 100
1, 83030, Note_on_c, 0, 75, 100
1, 83126, Note_off_c, 0, 75, 100
1, 83126, Note_on_c, 0, 79, 100
1, 83222, Note_off_c, 0, 79, 100
1, 83702, Note_on_c, 0, 82, 100
1, 83990, Note_off_c, 0, 82, 100
1, 83990, Note_on_c, 0, 79, 100
1, 84086, Note_off_c, 0, 79, 100
1, 84086, Note_on_c, 0, 82, 100
1, 84214, Note_off_c, 0, 82, 100
1, 84214, Note_on_c, 0, 86, 100
1, 84502, Note_off_c, 0, 86, 100
1, 85046, Note_on_c, 0, 84, 100
1, 85238, Note_off_c, 0, 84, 100
1, 85238, Note_on_c, 0, 87, 100
1, 85334, Note_off_c, 0, 87, 100
1, 85334, Note_on_c, 0, 85, 100
1, 85382, Note_off_c, 0, 85, 100
1, 85382, Note_on_c, 0, 84, 100
1, 85430, Note_off_c, 0, 84, 100
1, 85430, Note_on_c, 0, 83, 100
1, 85526, Note_off_c, 0, 83, 100
1, 85526, Note_on_c, 0, 86, 100
1, 85622, Note_off_c, 0, 86, 100
1, 85622, Note_on_c, 0, 84, 100
1, 85718, Note_off_c, 0, 84, 100
1, 85718, Note_on_c, 0, 79, 100
1, 85862, Note_off_c, 0, 79, 100
1, 85862, Note_on_c, 0, 77, 100
1, 85958, Note_off_c, 0, 77, 100
1, 85958, Note_on_c, 0, 75, 100
1, 86006, Note_off_c, 0, 75, 100
1, 86006, Note_on_c, 0, 79, 100
1, 86198, Note_off_c, 0, 79, 100
1, 86198, Note_on_c, 0, 72, 100
1, 86342, Note_off_c, 0, 72, 100
1, 86342, Note_on_c, 0, 75, 100
1, 86454, Note_off_c, 0, 75, 100
1, 86454, Note_on_c, 0, 74, 100
1, 86582, Note_off_c, 0, 74, 100
1, 86582, Note_on_c, 0, 70, 100
1, 86870, Note_off_c, 0, 70, 100
1, 87158, Note_on_c, 0, 72, 100
1, 87302, Note_off_c, 0, 72, 100
1, 87302, Note_on_c, 0, 77, 100
1, 87446, Note_off_c, 0, 77, 100
1, 87446, Note_on_c, 0, 75, 100
1, 87542, Note_off_c, 0, 75, 100
1, 87542, Note_on_c, 0, 79, 100
1, 87686, Note_off_c, 0, 79, 100
1, 87686, Note_on_c, 0, 72, 100
1, 87782, Note_off_c, 0, 72, 100
1, 88214, Note_on_c, 0, 75, 100
1, 88310, Note_off_c, 0, 75, 100
1, 88310, Note_on_c, 0, 78, 100
1, 88406, Note_off_c, 0, 78, 100
1, 88406, Note_on_c, 0, 79, 100
1, 88502, Note_off_c, 0, 79, 100
1, 88502, Note_on_c, 0, 80, 100
1, 88598, Note_off_c, 0, 80, 100
1, 88598, Note_on_c, 0, 81, 100
1, 88694, Note_off_c, 0, 81, 100
1, 88694, Note_on_c, 0, 82, 100
1, 88790, Note_off_c, 0, 82, 100
1, 88790, Note_on_c, 0, 75, 100
1, 88886, Note_off_c, 0, 75, 100
1, 88886, Note_on_c, 0, 78, 100
1, 88982, Note_off_c, 0, 78, 100
1, 88982, Note_on_c, 0, 79, 100
1, 89078, Note_off_c, 0, 79, 100
1, 89078, Note_on_c, 0, 75, 100
1, 89174, Note_off_c, 0, 75, 100
1, 89174, Note_on_c, 0, 77, 100
1, 89222, Note_off_c, 0, 77, 100
1, 89222, Note_on_c, 0, 75, 100
1, 89270, Note_off_c, 0, 75, 100
1, 89270, Note_on_c, 0, 73, 100
1, 89414, Note_off_c, 0, 73, 100
1, 89414, Note_on_c, 0, 70, 100
1, 89462, Note_off_c, 0, 70, 100
1, 89462, Note_on_c, 0, 73, 100
1, 89606, Note_off_c, 0, 73, 100
1, 89606, Note_on_c, 0, 75, 100
1, 89894, Note_off_c, 0, 75, 100
1, 90518, Note_on_c, 0, 70, 100
1, 90614, Note_off_c, 0, 70, 100
1, 90614, Note_on_c, 0, 73, 100
1, 90758, Note_off_c, 0, 73, 100
1, 90758, Note_on_c, 0, 77, 100
1, 90950, Note_off_c, 0, 77, 100
1, 90950, Note_on_c, 0, 72, 100
1, 91094, Note_off_c, 0, 72, 100
1, 91094, Note_on_c, 0, 75, 100
1, 91382, Note_off_c, 0, 75, 100
1, 91382, Note_on_c, 0, 73, 100
1, 91574, Note_off_c, 0, 73, 100
1, 91574, Note_on_c, 0, 65, 100
1, 91766, Note_off_c, 0, 65, 100
1, 91766, Note_on_c, 0, 68, 100
1, 91958, Note_off_c, 0, 68, 100
1, 91958, Note_on_c, 0, 72, 100
1, 92150, Note_off_c, 0, 72, 100
1, 92150, Note_on_c, 0, 75, 100
1, 92438, Note_off_c, 0, 75, 100
1, 93014, Note_on_c, 0, 68, 100
1, 93110, Note_off_c, 0, 68, 100
1, 93110, Note_on_c, 0, 72, 100
1, 93206, Note_off_c, 0, 72, 100
1, 93206, Note_on_c, 0, 75, 100
1, 93302, Note_off_c, 0, 75, 100
1, 93302, Note_on_c, 0, 77, 100
1, 93398, Note_off_c, 0, 77, 100
1, 93398, Note_on_c, 0, 75, 100
1, 93494, Note_off_c, 0, 75, 100
1, 93494, Note_on_c, 0, 72, 100
1, 93686, Note_off_c, 0, 72, 100
1, 93686, Note_on_c, 0, 75, 100
1, 93974, Note_off_c, 0, 75, 100
1, 94742, Note_on_c, 0, 68, 100
1, 94838, Note_off_c, 0, 68, 100
1, 94838, Note_on_c, 0, 71, 100
1, 94982, Note_off_c, 0, 71, 100
1, 94982, Note_on_c, 0, 75, 100
1, 95078, Note_off_c, 0, 75, 100
1, 95510, Note_on_c, 0, 67, 100
1, 95606, Note_off_c, 0, 67, 100
1, 95606, Note_on_c, 0, 70, 100
1, 95750, Note_off_c, 0, 70, 100
1, 95750, Note_on_c, 0, 74, 100
1, 95798, Note_off_c, 0, 74, 100
1, 95798, Note_on_c, 0, 77, 100
1, 95942, Note_off_c, 0, 77, 100
1, 95942, Note_on_c, 0, 74, 100
1, 96086, Note_off_c, 0, 74, 100
1, 96086, Note_on_c, 0, 77, 100
1, 96278, Note_off_c, 0, 77, 100
1, 96278, Note_on_c, 0, 79, 100
1, 96326, Note_off_c, 0, 79, 100
1, 96326, Note_on_c, 0, 77, 100
1, 96374, Note_off_c, 0, 77, 100
1, 96374, Note_on_c, 0, 76, 100
1, 96470, Note_off_c, 0, 76, 100
1, 96470, Note_on_c, 0, 72, 100
1, 96566, Note_off_c, 0, 72, 100
1, 96566, Note_on_c, 0, 75, 100
1, 96758, Note_off_c, 0, 75, 100
1, 96758, Note_on_c, 0, 78, 100
1, 96854, Note_off_c, 0, 78, 100
1, 96854, Note_on_c, 0, 79, 100
1, 97430, Note_off_c, 0, 79, 100
1, 97430, Note_on_c, 0, 75, 100
1, 97526, Note_off_c, 0, 75, 100
1, 97526, Note_on_c, 0, 78, 100
1, 97622, Note_off_c, 0, 78, 100
1, 97622, Note_on_c, 0, 79, 100
1, 97718, Note_off_c, 0, 79, 100
1, 97718, Note_on_c, 0, 80, 100
1, 97846, Note_off_c, 0, 80, 100
1, 97846, Note_on_c, 0, 79, 100
1, 97910, Note_off_c, 0, 79, 100
1, 97910, Note_on_c, 0, 75, 100
1, 98006, Note_off_c, 0, 75, 100
1, 98006, Note_on_c, 0, 79, 100
1, 98054, Note_off_c, 0, 79, 100
1, 98054, Note_on_c, 0, 75, 100
1, 98102, Note_off_c, 0, 75, 100
1, 98102, Note_on_c, 0, 73, 100
1, 98198, Note_off_c, 0, 73, 100
1, 98198, Note_on_c, 0, 75, 100
1, 98300, Note_off_c, 0, 75, 100
1, 98300, End_track
0, 0, End_of_file
