0, 0, Header, 1, 1, 192
1, 0, Start_track
1, 0, Title_t, "Melody"
1, 0, Tempo, 342857
1, 0, Key_signature, -1, "minor"
1, 0, Time_signature, 3, 2, 24, 8
1, 383, Note_on_c, 0, 60, 100
1, 511, Note_off_c, 0, 60, 100
1, 511, Note_on_c, 0, 62, 100
1, 575, Note_off_c, 0, 62, 100
1, 575, Note_on_c, 0, 65, 100
1, 671, Note_off_c, 0, 65, 100
1, 671, Note_on_c, 0, 67, 100
1, 766, Note_off_c, 0, 67, 100
1, 766, Note_on_c, 0, 68, 100
1, 958, Note_off_c, 0, 68, 100
1, 958, Note_on_c, 0, 65, 100
1, 1102, Note_off_c, 0, 65, 100
1, 1102, Note_on_c, 0, 65, 100
1, 1198, Note_off_c, 0, 65, 100
1, 1917, Note_on_c, 0, 62, 100
1, 2061, Note_off_c, 0, 62, 100
1, 2061, Note_on_c, 0, 60, 100
1, 2109, Note_off_c, 0, 60, 100
1, 2109, Note_on_c, 0, 65, 100
1, 2253, Note_off_c, 0, 65, 100
1, 2253, Note_on_c, 0, 65, 100
1, 2349, Note_off_c, 0, 65, 100
1, 2637, Note_on_c, 0, 63, 100
1, 2685, Note_off_c, 0, 63, 100
1, 2685, Note_on_c, 0, 60, 100
1, 2829, Note_off_c, 0, 60, 100
1, 2829, Note_on_c, 0, 62, 100
1, 2925, Note_off_c, 0, 62, 100
1, 2925, Note_on_c, 0, 65, 100
1, 3020, Note_off_c, 0, 65, 100
1, 3020, Note_on_c, 0, 67, 100
1, 3068, Note_off_c, 0, 67, 100
1, 3068, Note_on_c, 0, 67, 100
1, 3164, Note_off_c, 0, 67, 100
1, 3164, Note_on_c, 0, 68, 100
1, 3260, Note_off_c, 0, 68, 100
1, 3260, Note_on_c, 0, 65, 100
1, 3404, Note_off_c, 0, 65, 100
1, 3404, Note_on_c, 0, 65, 100
1, 3500, Note_off_c, 0, 65, 100
1, 4028, Note_on_c, 0, 74, 100
1, 4220, Note_off_c, 0, 74, 100
1, 4220, Note_on_c, 0, 72, 100
1, 4412, Note_off_c, 0, 72, 100
1, 4412, Note_on_c, 0, 65, 100
1, 4507, Note_off_c, 0, 65, 100
1, 4507, Note_on_c, 0, 65, 100
1, 4747, Note_off_c, 0, 65, 100
1, 4747, Note_on_c, 0, 63, 100
1, 4771, Note_off_c, 0, 63, 100
1, 4771, Note_on_c, 0, 62, 100
1, 4795, Note_off_c, 0, 62, 100
1, 4795, Note_on_c, 0, 60, 100
1, 4939, Note_off_c, 0, 60, 100
1, 4939, Note_on_c, 0, 62, 100
1, 4987, Note_off_c, 0, 62, 100
1, 4987, Note_on_c, 0, 65, 100
1, 5082, Note_off_c, 0, 65, 100
1, 5082, Note_on_c, 0, 67, 100
1, 5178, Note_off_c, 0, 67, 100
1, 5178, Note_on_c, 0, 68, 100
1, 5274, Note_off_c, 0, 68, 100
1, 5274, Note_on_c, 0, 70, 100
1, 5370, Note_off_c, 0, 70, 100
1, 5370, Note_on_c, 0, 71, 100
1, 5562, Note_off_c, 0, 71, 100
1, 5562, Note_on_c, 0, 70, 100
1, 5898, Note_off_c, 0, 70, 100
1, 5898, Note_on_c, 0, 68, 100
1, 6138, Note_off_c, 0, 68, 100
1, 6138, Note_on_c, 0, 65, 100
1, 6426, Note_off_c, 0, 65, 100
1, 6426, Note_on_c, 0, 68, 100
1, 6522, Note_off_c, 0, 68, 100
1, 6522, Note_on_c, 0, 70, 100
1, 6570, Note_off_c, 0, 70, 100
1, 6570, Note_on_c, 0, 71, 100
1, 6666, Note_off_c, 0, 71, 100
1, 6666, Note_on_c, 0, 70, 100
1, 6969, Note_off_c, 0, 70, 100
1, 6969, Note_on_c, 0, 71, 100
1, 7033, Note_off_c, 0, 71, 100
1, 7033, Note_on_c, 0, 67, 100
1, 7097, Note_off_c, 0, 67, 100
1, 7097, Note_on_c, 0, 68, 100
1, 7193, Note_off_c, 0, 68, 100
1, 7193, Note_on_c, 0, 65, 100
1, 7289, Note_off_c, 0, 65, 100
1, 7289, Note_on_c, 0, 62, 100
1, 7417, Note_off_c, 0, 62, 100
1, 7417, Note_on_c, 0, 60, 100
1, 7481, Note_off_c, 0, 60, 100
1, 7481, Note_on_c, 0, 65, 100
1, 7625, Note_off_c, 0, 65, 100
1, 7625, Note_on_c, 0, 68, 100
1, 7817, Note_off_c, 0, 68, 100
1, 7817, Note_on_c, 0, 68, 100
1, 7961, Note_off_c, 0, 68, 100
1, 7961, Note_on_c, 0, 69, 100
1, 8057, Note_off_c, 0, 69, 100
1, 8632, Note_on_c, 0, 62, 100
1, 8728, Note_off_c, 0, 62, 100
1, 8728, Note_on_c, 0, 60, 100
1, 8776, Note_off_c, 0, 60, 100
1, 8776, Note_on_c, 0, 65, 100
1, 8920, Note_off_c, 0, 65, 100
1, 8920, Note_on_c, 0, 65, 100
1, 9016, Note_off_c, 0, 65, 100
1, 9544, Note_on_c, 0, 58, 100
1, 9640, Note_off_c, 0, 58, 100
1, 9640, Note_on_c, 0, 61, 100
1, 9736, Note_off_c, 0, 61, 100
1, 9736, Note_on_c, 0, 62, 100
1, 9784, Note_off_c, 0, 62, 100
1, 9784, Note_on_c, 0, 63, 100
1, 9976, Note_off_c, 0, 63, 100
1, 9976, Note_on_c, 0, 64, 100
1, 10023, Note_off_c, 0, 64, 100
1, 10023, Note_on_c, 0, 65, 100
1, 10167, Note_off_c, 0, 65, 100
1, 10167, Note_on_c, 0, 68, 100
1, 10263, Note_off_c, 0, 68, 100
1, 10263, Note_on_c, 0, 67, 100
1, 10358, Note_off_c, 0, 67, 100
1, 10358, Note_on_c, 0, 65, 100
1, 10406, Note_off_c, 0, 65, 100
1, 10406, Note_on_c, 0, 70, 100
1, 10502, Note_off_c, 0, 70, 100
1, 10502, Note_on_c, 0, 69, 100
1, 10597, Note_off_c, 0, 69, 100
1, 10597, Note_on_c, 0, 68, 100
1, 10693, Note_off_c, 0, 68, 100
1, 10693, Note_on_c, 0, 72, 100
1, 10741, Note_off_c, 0, 72, 100
1, 10741, Note_on_c, 0, 67, 100
1, 10837, Note_off_c, 0, 67, 100
1, 10837, Note_on_c, 0, 65, 100
1, 10932, Note_off_c, 0, 65, 100
1, 10932, Note_on_c, 0, 66, 100
1, 11028, Note_off_c, 0, 66, 100
1, 11028, Note_on_c, 0, 69, 100
1, 11220, Note_off_c, 0, 69, 100
1, 11220, Note_on_c, 0, 61, 100
1, 11364, Note_off_c, 0, 61, 100
1, 11364, Note_on_c, 0, 67, 100
1, 11460, Note_off_c, 0, 67, 100
1, 11460, Note_on_c, 0, 65, 100
1, 11508, Note_off_c, 0, 65, 100
1, 11508, Note_on_c, 0, 66, 100
1, 11604, Note_off_c, 0, 66, 100
1, 11604, Note_on_c, 0, 64, 100
1, 11700, Note_off_c, 0, 64, 100
1, 11700, Note_on_c, 0, 63, 100
1, 11892, Note_off_c, 0, 63, 100
1, 11892, Note_on_c, 0, 62, 100
1, 11988, Note_off_c, 0, 62, 100
1, 11988, Note_on_c, 0, 58, 100
1, 12035, Note_off_c, 0, 58, 100
1, 12035, Note_on_c, 0, 59, 100
1, 12083, Note_off_c, 0, 59, 100
1, 12083, Note_on_c, 0, 61, 100
1, 12275, Note_off_c, 0, 61, 100
1, 12275, Note_on_c, 0, 68, 100
1, 12419, Note_off_c, 0, 68, 100
1, 12419, Note_on_c, 0, 66, 100
1, 12467, Note_off_c, 0, 66, 100
1, 12467, Note_on_c, 0, 61, 100
1, 12659, Note_off_c, 0, 61, 100
1, 12659, Note_on_c, 0, 58, 100
1, 12697, Note_off_c, 0, 58, 100
1, 12697, Note_on_c, 0, 65, 100
1, 12812, Note_off_c, 0, 65, 100
1, 12812, Note_on_c, 0, 64, 100
1, 12850, Note_off_c, 0, 64, 100
1, 12850, Note_on_c, 0, 63, 100
1, 12977, Note_off_c, 0, 63, 100
1, 12977, Note_on_c, 0, 60, 100
1, 13041, Note_off_c, 0, 60, 100
1, 13041, Note_on_c, 0, 61, 100
1, 13185, Note_off_c, 0, 61, 100
1, 13185, Note_on_c, 0, 59, 100
1, 13233, Note_off_c, 0, 59, 100
1, 13233, Note_on_c, 0, 58, 100
1, 13281, Note_off_c, 0, 58, 100
1, 13281, Note_on_c, 0, 60, 100
1, 13377, Note_off_c, 0, 60, 100
1, 13377, Note_on_c, 0, 66, 100
1, 13425, Note_off_c, 0, 66, 100
1, 13425, Note_on_c, 0, 67, 100
1, 13521, Note_off_c, 0, 67, 100
1, 13521, Note_on_c, 0, 67, 100
1, 13569, Note_off_c, 0, 67, 100
1, 13569, Note_on_c, 0, 65, 100
1, 13617, Note_off_c, 0, 65, 100
1, 13617, Note_on_c, 0, 60, 100
1, 13761, Note_off_c, 0, 60, 100
1, 13761, Note_on_c, 0, 57, 100
1, 13809, Note_off_c, 0, 57, 100
1, 13809, Note_on_c, 0, 63, 100
1, 13905, Note_off_c, 0, 63, 100
1, 13905, Note_on_c, 0, 64, 100
1, 14001, Note_off_c, 0, 64, 100
1, 14001, Note_on_c, 0, 62, 100
1, 14097, Note_off_c, 0, 62, 100
1, 14097, Note_on_c, 0, 62, 100
1, 14193, Note_off_c, 0, 62, 100
1, 14529, Note_on_c, 0, 66, 100
1, 14553, Note_off_c, 0, 66, 100
1, 14553, Note_on_c, 0, 70, 100
1, 14721, Note_off_c, 0, 70, 100
1, 14721, Note_on_c, 0, 67, 100
1, 14769, Note_off_c, 0, 67, 100
1, 14769, Note_on_c, 0, 68, 100
1, 14865, Note_off_c, 0, 68, 100
1, 14865, Note_on_c, 0, 70, 100
1, 14961, Note_off_c, 0, 70, 100
1, 14961, Note_on_c, 0, 72, 100
1, 15057, Note_off_c, 0, 72, 100
1, 15057, Note_on_c, 0, 74, 100
1, 15201, Note_off_c, 0, 74, 100
1, 15201, Note_on_c, 0, 75, 100
1, 15297, Note_off_c, 0, 75, 100
1, 15297, Note_on_c, 0, 78, 100
1, 15393, Note_off_c, 0, 78, 100
1, 15393, Note_on_c, 0, 77, 100
1, 15489, Note_off_c, 0, 77, 100
1, 15489, Note_on_c, 0, 75, 100
1, 15601, Note_off_c, 0, 75, 100
1, 15601, Note_on_c, 0, 74, 100
1, 15664, Note_off_c, 0, 74, 100
1, 15664, Note_on_c, 0, 77, 100
1, 15792, Note_off_c, 0, 77, 100
1, 15792, Note_on_c, 0, 76, 100
1, 15855, Note_off_c, 0, 76, 100
1, 15855, Note_on_c, 0, 74, 100
1, 15967, Note_off_c, 0, 74, 100
1, 15967, Note_on_c, 0, 74, 100
1, 16063, Note_off_c, 0, 74, 100
1, 16063, Note_on_c, 0, 68, 100
1, 16111, Note_off_c, 0, 68, 100
1, 16111, Note_on_c, 0, 65, 100
1, 16207, Note_off_c, 0, 65, 100
1, 16207, Note_on_c, 0, 62, 100
1, 16495, Note_off_c, 0, 62, 100
1, 16495, Note_on_c, 0, 60, 100
1, 16591, Note_off_c, 0, 60, 100
1, 16591, Note_on_c, 0, 57, 100
1, 16687, Note_off_c, 0, 57, 100
1, 16687, Note_on_c, 0, 58, 100
1, 16783, Note_off_c, 0, 58, 100
1, 16783, Note_on_c, 0, 55, 100
1, 16879, Note_off_c, 0, 55, 100
1, 16879, Note_on_c, 0, 53, 100
1, 16975, Note_off_c, 0, 53, 100
1, 16975, Note_on_c, 0, 53, 100
1, 17071, Note_off_c, 0, 53, 100
1, 17263, Note_on_c, 0, 57, 100
1, 17455, Note_off_c, 0, 57, 100
1, 17455, Note_on_c, 0, 60, 100
1, 17599, Note_off_c, 0, 60, 100
1, 17599, Note_on_c, 0, 60, 100
1, 17839, Note_off_c, 0, 60, 100
1, 17839, Note_on_c, 0, 62, 100
1, 18031, Note_off_c, 0, 62, 100
1, 18031, Note_on_c, 0, 65, 100
1, 18175, Note_off_c, 0, 65, 100
1, 18175, Note_on_c, 0, 65, 100
1, 18271, Note_off_c, 0, 65, 100
1, 18415, Note_on_c, 0, 69, 100
1, 18607, Note_off_c, 0, 69, 100
1, 18607, Note_on_c, 0, 71, 100
1, 18655, Note_off_c, 0, 71, 100
1, 18655, Note_on_c, 0, 72, 100
1, 18750, Note_off_c, 0, 72, 100
1, 18750, Note_on_c, 0, 72, 100
1, 18990, Note_off_c, 0, 72, 100
1, 18990, Note_on_c, 0, 72, 100
1, 19028, Note_off_c, 0, 72, 100
1, 19028, Note_on_c, 0, 74, 100
1, 19104, Note_off_c, 0, 74, 100
1, 19104, Note_on_c, 0, 74, 100
1, 19180, Note_off_c, 0, 74, 100
1, 19180, Note_on_c, 0, 75, 100
1, 19372, Note_off_c, 0, 75, 100
1, 19372, Note_on_c, 0, 74, 100
1, 19564, Note_off_c, 0, 74, 100
1, 19564, Note_on_c, 0, 72, 100
1, 19756, Note_off_c, 0, 72, 100
1, 19756, Note_on_c, 0, 68, 100
1, 19804, Note_off_c, 0, 68, 100
1, 19804, Note_on_c, 0, 69, 100
1, 19851, Note_off_c, 0, 69, 100
1, 19851, Note_on_c, 0, 70, 100
1, 19947, Note_off_c, 0, 70, 100
1, 19947, Note_on_c, 0, 69, 100
1, 20091, Note_off_c, 0, 69, 100
1, 20091, Note_on_c, 0, 65, 100
1, 20139, Note_off_c, 0, 65, 100
1, 20139, Note_on_c, 0, 60, 100
1, 20235, Note_off_c, 0, 60, 100
1, 20235, Note_on_c, 0, 55, 100
1, 20331, Note_off_c, 0, 55, 100
1, 20331, Note_on_c, 0, 58, 100
1, 20427, Note_off_c, 0, 58, 100
1, 20427, Note_on_c, 0, 60, 100
1, 20523, Note_off_c, 0, 60, 100
1, 20523, Note_on_c, 0, 57, 100
1, 20667, Note_off_c, 0, 57, 100
1, 20667, Note_on_c, 0, 60, 100
1, 20715, Note_off_c, 0, 60, 100
1, 20715, Note_on_c, 0, 64, 100
1, 20811, Note_off_c, 0, 64, 100
1, 20811, Note_on_c, 0, 67, 100
1, 20907, Note_off_c, 0, 67, 100
1, 20907, Note_on_c, 0, 64, 100
1, 20971, Note_off_c, 0, 64, 100
1, 20971, Note_on_c, 0, 65, 100
1, 21035, Note_off_c, 0, 65, 100
1, 21035, Note_on_c, 0, 69, 100
1, 21099, Note_off_c, 0, 69, 100
1, 21099, Note_on_c, 0, 72, 100
1, 21131, Note_off_c, 0, 72, 100
1, 21131, Note_on_c, 0, 76, 100
1, 21259, Note_off_c, 0, 76, 100
1, 21259, Note_on_c, 0, 78, 100
1, 21339, Note_off_c, 0, 78, 100
1, 21339, Note_on_c, 0, 79, 100
1, 21435, Note_off_c, 0, 79, 100
1, 21435, Note_on_c, 0, 78, 100
1, 21531, Note_off_c, 0, 78, 100
1, 21531, Note_on_c, 0, 77, 100
1, 21626, Note_off_c, 0, 77, 100
1, 21626, Note_on_c, 0, 76, 100
1, 21722, Note_off_c, 0, 76, 100
1, 21722, Note_on_c, 0, 74, 100
1, 21818, Note_off_c, 0, 74, 100
1, 21818, Note_on_c, 0, 72, 100
1, 21841, Note_off_c, 0, 72, 100
1, 21841, Note_on_c, 0, 73, 100
1, 21865, Note_off_c, 0, 73, 100
1, 21865, Note_on_c, 0, 72, 100
1, 21961, Note_off_c, 0, 72, 100
1, 21961, Note_on_c, 0, 70, 100
1, 22057, Note_off_c, 0, 70, 100
1, 22057, Note_on_c, 0, 71, 100
1, 22105, Note_off_c, 0, 71, 100
1, 22105, Note_on_c, 0, 70, 100
1, 22152, Note_off_c, 0, 70, 100
1, 22152, Note_on_c, 0, 69, 100
1, 22286, Note_off_c, 0, 69, 100
1, 22286, Note_on_c, 0, 67, 100
1, 22324, Note_off_c, 0, 67, 100
1, 22324, Note_on_c, 0, 69, 100
1, 22362, Note_off_c, 0, 69, 100
1, 22362, Note_on_c, 0, 67, 100
1, 22400, Note_off_c, 0, 67, 100
1, 22400, Note_on_c, 0, 66, 100
1, 22438, Note_off_c, 0, 66, 100
1, 22438, Note_on_c, 0, 66, 100
1, 22486, Note_off_c, 0, 66, 100
1, 22486, Note_on_c, 0, 65, 100
1, 22582, Note_off_c, 0, 65, 100
1, 22582, Note_on_c, 0, 64, 100
1, 22630, Note_off_c, 0, 64, 100
1, 22630, Note_on_c, 0, 63, 100
1, 22726, Note_off_c, 0, 63, 100
1, 23014, Note_on_c, 0, 59, 100
1, 23062, Note_off_c, 0, 59, 100
1, 23062, Note_on_c, 0, 62, 100
1, 23238, Note_off_c, 0, 62, 100
1, 23238, Note_on_c, 0, 60, 100
1, 23269, Note_off_c, 0, 60, 100
1, 23269, Note_on_c, 0, 62, 100
1, 23301, Note_off_c, 0, 62, 100
1, 23301, Note_on_c, 0, 60, 100
1, 23333, Note_off_c, 0, 60, 100
1, 23333, Note_on_c, 0, 57, 100
1, 23397, Note_off_c, 0, 57, 100
1, 23397, Note_on_c, 0, 54, 100
1, 23541, Note_off_c, 0, 54, 100
1, 23541, Note_on_c, 0, 53, 100
1, 23733, Note_off_c, 0, 53, 100
1, 23733, Note_on_c, 0, 51, 100
1, 23781, Note_off_c, 0, 51, 100
1, 23781, Note_on_c, 0, 50, 100
1, 23973, Note_off_c, 0, 50, 100
1, 23973, Note_on_c, 0, 58, 100
1, 24165, Note_off_c, 0, 58, 100
1, 24549, Note_on_c, 0, 58, 100
1, 24645, Note_off_c, 0, 58, 100
1, 24645, Note_on_c, 0, 62, 100
1, 24741, Note_off_c, 0, 62, 100
1, 24741, Note_on_c, 0, 57, 100
1, 24837, Note_off_c, 0, 57, 100
1, 24837, Note_on_c, 0, 60, 100
1, 24971, Note_off_c, 0, 60, 100
1, 24971, Note_on_c, 0, 63, 100
1, 25047, Note_off_c, 0, 63, 100
1, 25047, Note_on_c, 0, 64, 100
1, 25085, Note_off_c, 0, 64, 100
1, 25085, Note_on_c, 0, 66, 100
1, 25171, Note_off_c, 0, 66, 100
1, 25171, Note_on_c, 0, 65, 100
1, 25267, Note_off_c, 0, 65, 100
1, 25267, Note_on_c, 0, 63, 100
1, 25315, Note_off_c, 0, 63, 100
1, 25315, Note_on_c, 0, 62, 100
1, 25459, Note_off_c, 0, 62, 100
1, 25459, Note_on_c, 0, 65, 100
1, 25507, Note_off_c, 0, 65, 100
1, 25507, Note_on_c, 0, 70, 100
1, 25651, Note_off_c, 0, 70, 100
1, 25651, Note_on_c, 0, 70, 100
1, 25891, Note_off_c, 0, 70, 100
1, 25891, Note_on_c, 0, 68, 100
1, 26083, Note_off_c, 0, 68, 100
1, 26083, Note_on_c, 0, 65, 100
1, 26179, Note_off_c, 0, 65, 100
1, 26179, Note_on_c, 0, 65, 100
1, 26275, Note_off_c, 0, 65, 100
1, 26275, Note_on_c, 0, 68, 100
1, 26313, Note_off_c, 0, 68, 100
1, 26313, Note_on_c, 0, 72, 100
1, 26389, Note_off_c, 0, 72, 100
1, 26389, Note_on_c, 0, 75, 100
1, 26427, Note_off_c, 0, 75, 100
1, 26427, Note_on_c, 0, 76, 100
1, 26465, Note_off_c, 0, 76, 100
1, 26465, Note_on_c, 0, 72, 100
1, 26489, Note_off_c, 0, 72, 100
1, 26489, Note_on_c, 0, 71, 100
1, 26513, Note_off_c, 0, 71, 100
1, 26513, Note_on_c, 0, 70, 100
1, 26537, Note_off_c, 0, 70, 100
1, 26537, Note_on_c, 0, 69, 100
1, 26585, Note_off_c, 0, 69, 100
1, 26585, Note_on_c, 0, 68, 100
1, 26633, Note_off_c, 0, 68, 100
1, 26633, Note_on_c, 0, 65, 100
1, 26753, Note_off_c, 0, 65, 100
1, 26753, Note_on_c, 0, 70, 100
1, 26887, Note_off_c, 0, 70, 100
1, 26887, Note_on_c, 0, 69, 100
1, 26963, Note_off_c, 0, 69, 100
1, 26963, Note_on_c, 0, 67, 100
1, 27001, Note_off_c, 0, 67, 100
1, 27001, Note_on_c, 0, 68, 100
1, 27135, Note_off_c, 0, 68, 100
1, 27135, Note_on_c, 0, 65, 100
1, 27231, Note_off_c, 0, 65, 100
1, 27231, Note_on_c, 0, 61, 100
1, 27359, Note_off_c, 0, 61, 100
1, 27359, Note_on_c, 0, 58, 100
1, 27422, Note_off_c, 0, 58, 100
1, 27422, Note_on_c, 0, 60, 100
1, 27566, Note_off_c, 0, 60, 100
1, 27566, Note_on_c, 0, 58, 100
1, 27614, Note_off_c, 0, 58, 100
1, 27614, Note_on_c, 0, 57, 100
1, 27806, Note_off_c, 0, 57, 100
1, 27806, Note_on_c, 0, 65, 100
1, 27998, Note_off_c, 0, 65, 100
1, 28190, Note_on_c, 0, 58, 100
1, 28334, Note_off_c, 0, 58, 100
1, 28334, Note_on_c, 0, 62, 100
1, 28478, Note_off_c, 0, 62, 100
1, 28478, Note_on_c, 0, 65, 100
1, 28574, Note_off_c, 0, 65, 100
1, 28574, Note_on_c, 0, 70, 100
1, 28670, Note_off_c, 0, 70, 100
1, 28670, Note_on_c, 0, 69, 100
1, 28766, Note_off_c, 0, 69, 100
1, 28766, Note_on_c, 0, 72, 100
1, 28862, Note_off_c, 0, 72, 100
1, 28862, Note_on_c, 0, 70, 100
1, 28910, Note_off_c, 0, 70, 100
1, 28910, Note_on_c, 0, 69, 100
1, 29054, Note_off_c, 0, 69, 100
1, 29054, Note_on_c, 0, 67, 100
1, 29150, Note_off_c, 0, 67, 100
1, 29150, Note_on_c, 0, 65, 100
1, 29246, Note_off_c, 0, 65, 100
1, 29246, Note_on_c, 0, 63, 100
1, 29294, Note_off_c, 0, 63, 100
1, 29294, Note_on_c, 0, 62, 100
1, 29438, Note_off_c, 0, 62, 100
1, 29438, Note_on_c, 0, 60, 100
1, 29486, Note_off_c, 0, 60, 100
1, 29486, Note_on_c, 0, 61, 100
1, 29630, Note_off_c, 0, 61, 100
1, 29630, Note_on_c, 0, 57, 100
1, 29726, Note_off_c, 0, 57, 100
1, 29726, Note_on_c, 0, 69, 100
1, 29822, Note_off_c, 0, 69, 100
1, 30206, Note_on_c, 0, 67, 100
1, 30238, Note_off_c, 0, 67, 100
1, 30238, Note_on_c, 0, 69, 100
1, 30269, Note_off_c, 0, 69, 100
1, 30269, Note_on_c, 0, 70, 100
1, 30301, Note_off_c, 0, 70, 100
1, 30301, Note_on_c, 0, 69, 100
1, 30349, Note_off_c, 0, 69, 100
1, 30349, Note_on_c, 0, 67, 100
1, 30373, Note_off_c, 0, 67, 100
1, 30373, Note_on_c, 0, 63, 100
1, 30397, Note_off_c, 0, 63, 100
1, 30397, Note_on_c, 0, 60, 100
1, 30421, Note_off_c, 0, 60, 100
1, 30421, Note_on_c, 0, 58, 100
1, 30445, Note_off_c, 0, 58, 100
1, 30445, Note_on_c, 0, 57, 100
1, 30469, Note_off_c, 0, 57, 100
1, 30469, Note_on_c, 0, 55, 100
1, 30493, Note_off_c, 0, 55, 100
1, 30493, Note_on_c, 0, 62, 100
1, 30589, Note_off_c, 0, 62, 100
1, 30589, Note_on_c, 0, 60, 100
1, 30637, Note_off_c, 0, 60, 100
1, 30637, Note_on_c, 0, 61, 100
1, 30877, Note_off_c, 0, 61, 100
1, 30877, Note_on_c, 0, 60, 100
1, 31069, Note_off_c, 0, 60, 100
1, 31069, Note_on_c, 0, 72, 100
1, 31453, Note_off_c, 0, 72, 100
1, 31453, Note_on_c, 0, 75, 100
1, 31581, Note_off_c, 0, 75, 100
1, 31581, Note_on_c, 0, 73, 100
1, 31645, Note_off_c, 0, 73, 100
1, 31645, Note_on_c, 0, 72, 100
1, 31741, Note_off_c, 0, 72, 100
1, 31741, Note_on_c, 0, 74, 100
1, 32029, Note_off_c, 0, 74, 100
1, 32029, Note_on_c, 0, 72, 100
1, 32125, Note_off_c, 0, 72, 100
1, 32125, Note_on_c, 0, 74, 100
1, 32221, Note_off_c, 0, 74, 100
1, 32221, Note_on_c, 0, 71, 100
1, 32413, Note_off_c, 0, 71, 100
1, 32413, Note_on_c, 0, 69, 100
1, 32797, Note_off_c, 0, 69, 100
1, 32797, Note_on_c, 0, 68, 100
1, 32989, Note_off_c, 0, 68, 100
1, 32989, Note_on_c, 0, 70, 100
1, 33037, Note_off_c, 0, 70, 100
1, 33037, Note_on_c, 0, 72, 100
1, 33085, Note_off_c, 0, 72, 100
1, 33085, Note_on_c, 0, 75, 100
1, 33181, Note_off_c, 0, 75, 100
1, 33181, Note_on_c, 0, 72, 100
1, 33219, Note_off_c, 0, 72, 100
1, 33219, Note_on_c, 0, 71, 100
1, 33257, Note_off_c, 0, 71, 100
1, 33257, Note_on_c, 0, 70, 100
1, 33333, Note_off_c, 0, 70, 100
1, 33333, Note_on_c, 0, 69, 100
1, 33371, Note_off_c, 0, 69, 100
1, 33371, Note_on_c, 0, 70, 100
1, 33403, Note_off_c, 0, 70, 100
1, 33403, Note_on_c, 0, 68, 100
1, 33531, Note_off_c, 0, 68, 100
1, 33531, Note_on_c, 0, 66, 100
1, 33563, Note_off_c, 0, 66, 100
1, 33563, Note_on_c, 0, 63, 100
1, 33659, Note_off_c, 0, 63, 100
1, 33659, Note_on_c, 0, 58, 100
1, 33755, Note_off_c, 0, 58, 100
1, 33755, Note_on_c, 0, 61, 100
1, 33851, Note_off_c, 0, 61, 100
1, 33851, Note_on_c, 0, 59, 100
1, 33947, Note_off_c, 0, 59, 100
1, 33947, Note_on_c, 0, 60, 100
1, 34043, Note_off_c, 0, 60, 100
1, 34043, Note_on_c, 0, 66, 100
1, 34091, Note_off_c, 0, 66, 100
1, 34091, Note_on_c, 0, 65, 100
1, 34139, Note_off_c, 0, 65, 100
1, 34139, Note_on_c, 0, 67, 100
1, 34331, Note_off_c, 0, 67, 100
1, 34331, Note_on_c, 0, 71, 100
1, 34427, Note_off_c, 0, 71, 100
1, 34427, Note_on_c, 0, 71, 100
1, 34523, Note_off_c, 0, 71, 100
1, 34523, Note_on_c, 0, 67, 100
1, 34715, Note_off_c, 0, 67, 100
1, 34715, Note_on_c, 0, 66, 100
1, 34907, Note_off_c, 0, 66, 100
1, 34907, Note_on_c, 0, 70, 100
1, 35003, Note_off_c, 0, 70, 100
1, 35003, Note_on_c, 0, 70, 100
1, 35099, Note_off_c, 0, 70, 100
1, 35099, Note_on_c, 0, 66, 100
1, 35291, Note_off_c, 0, 66, 100
1, 35291, Note_on_c, 0, 65, 100
1, 35419, Note_off_c, 0, 65, 100
1, 35419, Note_on_c, 0, 65, 100
1, 35627, Note_off_c, 0, 65, 100
1, 35627, Note_on_c, 0, 67, 100
1, 35675, Note_off_c, 0, 67, 100
1, 35675, Note_on_c, 0, 69, 100
1, 35867, Note_off_c, 0, 69, 100
1, 35867, Note_on_c, 0, 65, 100
1, 36059, Note_off_c, 0, 65, 100
1, 36251, Note_on_c, 0, 70, 100
1, 36315, Note_off_c, 0, 70, 100
1, 36315, Note_on_c, 0, 69, 100
1, 36379, Note_off_c, 0, 69, 100
1, 36379, Note_on_c, 0, 65, 100
1, 36443, Note_off_c, 0, 65, 100
1, 36443, Note_on_c, 0, 65, 100
1, 36571, Note_off_c, 0, 65, 100
1, 36571, Note_on_c, 0, 65, 100
1, 36667, Note_off_c, 0, 65, 100
1, 36923, Note_on_c, 0, 65, 100
1, 37019, Note_off_c, 0, 65, 100
1, 37019, Note_on_c, 0, 69, 100
1, 37115, Note_off_c, 0, 69, 100
1, 37115, Note_on_c, 0, 65, 100
1, 37211, Note_off_c, 0, 65, 100
1, 37211, Note_on_c, 0, 70, 100
1, 37326, Note_off_c, 0, 70, 100
1, 37326, Note_on_c, 0, 65, 100
1, 37364, Note_off_c, 0, 65, 100
1, 37364, Note_on_c, 0, 68, 100
1, 37402, Note_off_c, 0, 68, 100
1, 37402, Note_on_c, 0, 71, 100
1, 37530, Note_off_c, 0, 71, 100
1, 37530, Note_on_c, 0, 70, 100
1, 37594, Note_off_c, 0, 70, 100
1, 37594, Note_on_c, 0, 72, 100
1, 37690, Note_off_c, 0, 72, 100
1, 37690, Note_on_c, 0, 72, 100
1, 37738, Note_off_c, 0, 72, 100
1, 37738, Note_on_c, 0, 75, 100
1, 38266, Note_off_c, 0, 75, 100
1, 38266, Note_on_c, 0, 75, 100
1, 38362, Note_off_c, 0, 75, 100
1, 38362, Note_on_c, 0, 78, 100
1, 38458, Note_off_c, 0, 78, 100
1, 38458, Note_on_c, 0, 79, 100
1, 38553, Note_off_c, 0, 79, 100
1, 38553, Note_on_c, 0, 79, 100
1, 38601, Note_off_c, 0, 79, 100
1, 38601, Note_on_c, 0, 77, 100
1, 38745, Note_off_c, 0, 77, 100
1, 38745, Note_on_c, 0, 74, 100
1, 38841, Note_off_c, 0, 74, 100
1, 38841, Note_on_c, 0, 75, 100
1, 38937, Note_off_c, 0, 75, 100
1, 38937, Note_on_c, 0, 74, 100
1, 39129, Note_off_c, 0, 74, 100
1, 39129, Note_on_c, 0, 72, 100
1, 39321, Note_off_c, 0, 72, 100
1, 39321, Note_on_c, 0, 69, 100
1, 39385, Note_off_c, 0, 69, 100
1, 39385, Note_on_c, 0, 70, 100
1, 39513, Note_off_c, 0, 70, 100
1, 39513, Note_on_c, 0, 69, 100
1, 39609, Note_off_c, 0, 69, 100
1, 39609, Note_on_c, 0, 65, 100
1, 39704, Note_off_c, 0, 65, 100
1, 39704, Note_on_c, 0, 60, 100
1, 39848, Note_off_c, 0, 60, 100
1, 39848, Note_on_c, 0, 57, 100
1, 39943, Note_off_c, 0, 57, 100
1, 39943, Note_on_c, 0, 58, 100
1, 40039, Note_off_c, 0, 58, 100
1, 40039, Note_on_c, 0, 60, 100
1, 40087, Note_off_c, 0, 60, 100
1, 40087, Note_on_c, 0, 57, 100
1, 40279, Note_off_c, 0, 57, 100
1, 40663, Note_on_c, 0, 62, 100
1, 40759, Note_off_c, 0, 62, 100
1, 40759, Note_on_c, 0, 59, 100
1, 40854, Note_off_c, 0, 59, 100
1, 40854, Note_on_c, 0, 60, 100
1, 40998, Note_off_c, 0, 60, 100
1, 40998, Note_on_c, 0, 65, 100
1, 41142, Note_off_c, 0, 65, 100
1, 41142, Note_on_c, 0, 57, 100
1, 41238, Note_off_c, 0, 57, 100
1, 41238, Note_on_c, 0, 66, 100
1, 41382, Note_off_c, 0, 66, 100
1, 41382, Note_on_c, 0, 63, 100
1, 41430, Note_off_c, 0, 63, 100
1, 41430, Note_on_c, 0, 68, 100
1, 41526, Note_off_c, 0, 68, 100
1, 41526, Note_on_c, 0, 67, 100
1, 41622, Note_off_c, 0, 67, 100
1, 41622, Note_on_c, 0, 71, 100
1, 41718, Note_off_c, 0, 71, 100
1, 41718, Note_on_c, 0, 69, 100
1, 41814, Note_off_c, 0, 69, 100
1, 41814, Note_on_c, 0, 74, 100
1, 41942, Note_off_c, 0, 74, 100
1, 41942, Note_on_c, 0, 72, 100
1, 42006, Note_off_c, 0, 72, 100
1, 42006, Note_on_c, 0, 77, 100
1, 42134, Note_off_c, 0, 77, 100
1, 42134, Note_on_c, 0, 75, 100
1, 42198, Note_off_c, 0, 75, 100
1, 42198, Note_on_c, 0, 72, 100
1, 42262, Note_off_c, 0, 72, 100
1, 42262, Note_on_c, 0, 73, 100
1, 42326, Note_off_c, 0, 73, 100
1, 42326, Note_on_c, 0, 74, 100
1, 42390, Note_off_c, 0, 74, 100
1, 42390, Note_on_c, 0, 75, 100
1, 42582, Note_off_c, 0, 75, 100
1, 42582, Note_on_c, 0, 77, 100
1, 42697, Note_off_c, 0, 77, 100
1, 42697, Note_on_c, 0, 77, 100
1, 42735, Note_off_c, 0, 77, 100
1, 42735, Note_on_c, 0, 70, 100
1, 42927, Note_off_c, 0, 70, 100
1, 43157, Note_on_c, 0, 68, 100
1, 43233, Note_off_c, 0, 68, 100
1, 43233, Note_on_c, 0, 70, 100
1, 43271, Note_off_c, 0, 70, 100
1, 43271, Note_on_c, 0, 68, 100
1, 43309, Note_off_c, 0, 68, 100
1, 43309, Note_on_c, 0, 65, 100
1, 43347, Note_off_c, 0, 65, 100
1, 43347, Note_on_c, 0, 63, 100
1, 43539, Note_off_c, 0, 63, 100
1, 43539, Note_on_c, 0, 58, 100
1, 43635, Note_off_c, 0, 58, 100
1, 43635, Note_on_c, 0, 61, 100
1, 43730, Note_off_c, 0, 61, 100
1, 43730, Note_on_c, 0, 62, 100
1, 43778, Note_off_c, 0, 62, 100
1, 43778, Note_on_c, 0, 65, 100
1, 43826, Note_off_c, 0, 65, 100
1, 43826, Note_on_c, 0, 67, 100
1, 43922, Note_off_c, 0, 67, 100
1, 43922, Note_on_c, 0, 68, 100
1, 44066, Note_off_c, 0, 68, 100
1, 44066, Note_on_c, 0, 58, 100
1, 44306, Note_off_c, 0, 58, 100
1, 44306, Note_on_c, 0, 67, 100
1, 44498, Note_off_c, 0, 67, 100
1, 44498, Note_on_c, 0, 65, 100
1, 44594, Note_off_c, 0, 65, 100
1, 44594, Note_on_c, 0, 65, 100
1, 44690, Note_off_c, 0, 65, 100
1, 44690, Note_on_c, 0, 70, 100
1, 44738, Note_off_c, 0, 70, 100
1, 44738, Note_on_c, 0, 72, 100
1, 44786, Note_off_c, 0, 72, 100
1, 44786, Note_on_c, 0, 75, 100
1, 44881, Note_off_c, 0, 75, 100
1, 44881, Note_on_c, 0, 72, 100
1, 44977, Note_off_c, 0, 72, 100
1, 44977, Note_on_c, 0, 70, 100
1, 45025, Note_off_c, 0, 70, 100
1, 45025, Note_on_c, 0, 68, 100
1, 45073, Note_off_c, 0, 68, 100
1, 45073, Note_on_c, 0, 65, 100
1, 45201, Note_off_c, 0, 65, 100
1, 45201, Note_on_c, 0, 63, 100
1, 45313, Note_off_c, 0, 63, 100
1, 45313, Note_on_c, 0, 60, 100
1, 45457, Note_off_c, 0, 60, 100
1, 45457, Note_on_c, 0, 58, 100
1, 45553, Note_off_c, 0, 58, 100
1, 45553, Note_on_c, 0, 60, 100
1, 45649, Note_off_c, 0, 60, 100
1, 45649, Note_on_c, 0, 57, 100
1, 45777, Note_off_c, 0, 57, 100
1, 45777, Note_on_c, 0, 60, 100
1, 45841, Note_off_c, 0, 60, 100
1, 45841, Note_on_c, 0, 67, 100
1, 45937, Note_off_c, 0, 67, 100
1, 45937, Note_on_c, 0, 65, 100
1, 46032, Note_off_c, 0, 65, 100
1, 46032, Note_on_c, 0, 64, 100
1, 46080, Note_off_c, 0, 64, 100
1, 46080, Note_on_c, 0, 65, 100
1, 46128, Note_off_c, 0, 65, 100
1, 46128, Note_on_c, 0, 69, 100
1, 46176, Note_off_c, 0, 69, 100
1, 46176, Note_on_c, 0, 72, 100
1, 46224, Note_off_c, 0, 72, 100
1, 46224, Note_on_c, 0, 75, 100
1, 46262, Note_off_c, 0, 75, 100
1, 46262, Note_on_c, 0, 77, 100
1, 46338, Note_off_c, 0, 77, 100
1, 46338, Note_on_c, 0, 77, 100
1, 46558, Note_off_c, 0, 77, 100
1, 46558, Note_on_c, 0, 77, 100
1, 46654, Note_off_c, 0, 77, 100
1, 46913, Note_on_c, 0, 74, 100
1, 46951, Note_off_c, 0, 74, 100
1, 46951, Note_on_c, 0, 72, 100
1, 46989, Note_off_c, 0, 72, 100
1, 46989, Note_on_c, 0, 70, 100
1, 47037, Note_off_c, 0, 70, 100
1, 47037, Note_on_c, 0, 69, 100
1, 47085, Note_off_c, 0, 69, 100
1, 47085, Note_on_c, 0, 67, 100
1, 47132, Note_off_c, 0, 67, 100
1, 47132, Note_on_c, 0, 66, 100
1, 47180, Note_off_c, 0, 66, 100
1, 47180, Note_on_c, 0, 65, 100
1, 47228, Note_off_c, 0, 65, 100
1, 47228, Note_on_c, 0, 64, 100
1, 47276, Note_off_c, 0, 64, 100
1, 47276, Note_on_c, 0, 63, 100
1, 47324, Note_off_c, 0, 63, 100
1, 47324, Note_on_c, 0, 58, 100
1, 47372, Note_off_c, 0, 58, 100
1, 47372, Note_on_c, 0, 61, 100
1, 47410, Note_off_c, 0, 61, 100
1, 47410, Note_on_c, 0, 53, 100
1, 47448, Note_off_c, 0, 53, 100
1, 47448, Note_on_c, 0, 55, 100
1, 47486, Note_off_c, 0, 55, 100
1, 47486, Note_on_c, 0, 57, 100
1, 47524, Note_off_c, 0, 57, 100
1, 47524, Note_on_c, 0, 55, 100
1, 47562, Note_off_c, 0, 55, 100
1, 47562, Note_on_c, 0, 57, 100
1, 47600, Note_off_c, 0, 57, 100
1, 47600, Note_on_c, 0, 60, 100
1, 47638, Note_off_c, 0, 60, 100
1, 47638, Note_on_c, 0, 58, 100
1, 47676, Note_off_c, 0, 58, 100
1, 47676, Note_on_c, 0, 57, 100
1, 47714, Note_off_c, 0, 57, 100
1, 47714, Note_on_c, 0, 58, 100
1, 47752, Note_off_c, 0, 58, 100
1, 47752, Note_on_c, 0, 62, 100
1, 47800, Note_off_c, 0, 62, 100
1, 47800, Note_on_c, 0, 65, 100
1, 47848, Note_off_c, 0, 65, 100
1, 47848, Note_on_c, 0, 67, 100
1, 47896, Note_off_c, 0, 67, 100
1, 47896, Note_on_c, 0, 68, 100
1, 47944, Note_off_c, 0, 68, 100
1, 47944, Note_on_c, 0, 69, 100
1, 48040, Note_off_c, 0, 69, 100
1, 48040, Note_on_c, 0, 70, 100
1, 48088, Note_off_c, 0, 70, 100
1, 48088, Note_on_c, 0, 72, 100
1, 48136, Note_off_c, 0, 72, 100
1, 48136, Note_on_c, 0, 69, 100
1, 48184, Note_off_c, 0, 69, 100
1, 48184, Note_on_c, 0, 71, 100
1, 48328, Note_off_c, 0, 71, 100
1, 48328, Note_on_c, 0, 67, 100
1, 48376, Note_off_c, 0, 67, 100
1, 48376, Note_on_c, 0, 64, 100
1, 48424, Note_off_c, 0, 64, 100
1, 48424, Note_on_c, 0, 59, 100
1, 48472, Note_off_c, 0, 59, 100
1, 48472, Note_on_c, 0, 62, 100
1, 48712, Note_off_c, 0, 62, 100
1, 48712, Note_on_c, 0, 61, 100
1, 48760, Note_off_c, 0, 61, 100
1, 48760, Note_on_c, 0, 62, 100
1, 48808, Note_off_c, 0, 62, 100
1, 48808, Note_on_c, 0, 64, 100
1, 48855, Note_off_c, 0, 64, 100
1, 48855, Note_on_c, 0, 66, 100
1, 48903, Note_off_c, 0, 66, 100
1, 48903, Note_on_c, 0, 67, 100
1, 48941, Note_off_c, 0, 67, 100
1, 48941, Note_on_c, 0, 66, 100
1, 48979, Note_off_c, 0, 66, 100
1, 48979, Note_on_c, 0, 64, 100
1, 49017, Note_off_c, 0, 64, 100
1, 49017, Note_on_c, 0, 62, 100
1, 49055, Note_off_c, 0, 62, 100
1, 49055, Note_on_c, 0, 61, 100
1, 49093, Note_off_c, 0, 61, 100
1, 49093, Note_on_c, 0, 60, 100
1, 49189, Note_off_c, 0, 60, 100
1, 49189, Note_on_c, 0, 60, 100
1, 49285, Note_off_c, 0, 60, 100
1, 49285, Note_on_c, 0, 62, 100
1, 49349, Note_off_c, 0, 62, 100
1, 49349, Note_on_c, 0, 63, 100
1, 49380, Note_off_c, 0, 63, 100
1, 49380, Note_on_c, 0, 60, 100
1, 49412, Note_off_c, 0, 60, 100
1, 49412, Note_on_c, 0, 61, 100
1, 49444, Note_off_c, 0, 61, 100
1, 49444, Note_on_c, 0, 62, 100
1, 49476, Note_off_c, 0, 62, 100
1, 49476, Note_on_c, 0, 65, 100
1, 49514, Note_off_c, 0, 65, 100
1, 49514, Note_on_c, 0, 65, 100
1, 49552, Note_off_c, 0, 65, 100
1, 49552, Note_on_c, 0, 66, 100
1, 49590, Note_off_c, 0, 66, 100
1, 49590, Note_on_c, 0, 67, 100
1, 49628, Note_off_c, 0, 67, 100
1, 49628, Note_on_c, 0, 68, 100
1, 49762, Note_off_c, 0, 68, 100
1, 49762, Note_on_c, 0, 65, 100
1, 49810, Note_off_c, 0, 65, 100
1, 49810, Note_on_c, 0, 66, 100
1, 49858, Note_off_c, 0, 66, 100
1, 49858, Note_on_c, 0, 68, 100
1, 49906, Note_off_c, 0, 68, 100
1, 49906, Note_on_c, 0, 70, 100
1, 49954, Note_off_c, 0, 70, 100
1, 49954, Note_on_c, 0, 66, 100
1, 50050, Note_off_c, 0, 66, 100
1, 50050, Note_on_c, 0, 61, 100
1, 50146, Note_off_c, 0, 61, 100
1, 50386, Note_on_c, 0, 63, 100
1, 50434, Note_off_c, 0, 63, 100
1, 50434, Note_on_c, 0, 64, 100
1, 50498, Note_off_c, 0, 64, 100
1, 50498, Note_on_c, 0, 63, 100
1, 50561, Note_off_c, 0, 63, 100
1, 50561, Note_on_c, 0, 62, 100
1, 50625, Note_off_c, 0, 62, 100
1, 50625, Note_on_c, 0, 61, 100
1, 50673, Note_off_c, 0, 61, 100
1, 50673, Note_on_c, 0, 62, 100
1, 50721, Note_off_c, 0, 62, 100
1, 50721, Note_on_c, 0, 64, 100
1, 50769, Note_off_c, 0, 64, 100
1, 50769, Note_on_c, 0, 63, 100
1, 50817, Note_off_c, 0, 63, 100
1, 50817, Note_on_c, 0, 62, 100
1, 50865, Note_off_c, 0, 62, 100
1, 50865, Note_on_c, 0, 55, 100
1, 50913, Note_off_c, 0, 55, 100
1, 50913, Note_on_c, 0, 57, 100
1, 50961, Note_off_c, 0, 57, 100
1, 50961, Note_on_c, 0, 60, 100
1, 51009, Note_off_c, 0, 60, 100
1, 51009, Note_on_c, 0, 59, 100
1, 51057, Note_off_c, 0, 59, 100
1, 51057, Note_on_c, 0, 60, 100
1, 51105, Note_off_c, 0, 60, 100
1, 51105, Note_on_c, 0, 62, 100
1, 51153, Note_off_c, 0, 62, 100
1, 51153, Note_on_c, 0, 64, 100
1, 51201, Note_off_c, 0, 64, 100
1, 51201, Note_on_c, 0, 65, 100
1, 51249, Note_off_c, 0, 65, 100
1, 51249, Note_on_c, 0, 67, 100
1, 51297, Note_off_c, 0, 67, 100
1, 51297, Note_on_c, 0, 68, 100
1, 51345, Note_off_c, 0, 68, 100
1, 51345, Note_on_c, 0, 69, 100
1, 51393, Note_off_c, 0, 69, 100
1, 51393, Note_on_c, 0, 73, 100
1, 51537, Note_off_c, 0, 73, 100
1, 51537, Note_on_c, 0, 70, 100
1, 51777, Note_off_c, 0, 70, 100
1, 51777, Note_on_c, 0, 73, 100
1, 51905, Note_off_c, 0, 73, 100
1, 51905, Note_on_c, 0, 70, 100
1, 51969, Note_off_c, 0, 70, 100
1, 51969, Note_on_c, 0, 77, 100
1, 52113, Note_off_c, 0, 77, 100
1, 52113, Note_on_c, 0, 73, 100
1, 52353, Note_off_c, 0, 73, 100
1, 52353, Note_on_c, 0, 73, 100
1, 52545, Note_off_c, 0, 73, 100
1, 52545, Note_on_c, 0, 74, 100
1, 52689, Note_off_c, 0, 74, 100
1, 52689, Note_on_c, 0, 71, 100
1, 52929, Note_off_c, 0, 71, 100
1, 52929, Note_on_c, 0, 72, 100
1, 53025, Note_off_c, 0, 72, 100
1, 53025, Note_on_c, 0, 70, 100
1, 53121, Note_off_c, 0, 70, 100
1, 53121, Note_on_c, 0, 71, 100
1, 53265, Note_off_c, 0, 71, 100
1, 53265, Note_on_c, 0, 67, 100
1, 53313, Note_off_c, 0, 67, 100
1, 53313, Note_on_c, 0, 70, 100
1, 53409, Note_off_c, 0, 70, 100
1, 53409, Note_on_c, 0, 67, 100
1, 53505, Note_off_c, 0, 67, 100
1, 53505, Note_on_c, 0, 64, 100
1, 53601, Note_off_c, 0, 64, 100
1, 53601, Note_on_c, 0, 59, 100
1, 53697, Note_off_c, 0, 59, 100
1, 53697, Note_on_c, 0, 65, 100
1, 53889, Note_off_c, 0, 65, 100
1, 53889, Note_on_c, 0, 72, 100
1, 54273, Note_off_c, 0, 72, 100
1, 54273, Note_on_c, 0, 72, 100
1, 54753, Note_off_c, 0, 72, 100
1, 54753, Note_on_c, 0, 70, 100
1, 54801, Note_off_c, 0, 70, 100
1, 54801, Note_on_c, 0, 72, 100
1, 55041, Note_off_c, 0, 72, 100
1, 55041, Note_on_c, 0, 70, 100
1, 55105, Note_off_c, 0, 70, 100
1, 55105, Note_on_c, 0, 72, 100
1, 55168, Note_off_c, 0, 72, 100
1, 55168, Note_on_c, 0, 71, 100
1, 55232, Note_off_c, 0, 71, 100
1, 55232, Note_on_c, 0, 70, 100
1, 55280, Note_off_c, 0, 70, 100
1, 55280, Note_on_c, 0, 69, 100
1, 55328, Note_off_c, 0, 69, 100
1, 55328, Note_on_c, 0, 68, 100
1, 55376, Note_off_c, 0, 68, 100
1, 55376, Note_on_c, 0, 65, 100
1, 55520, Note_off_c, 0, 65, 100
1, 55520, Note_on_c, 0, 60, 100
1, 55616, Note_off_c, 0, 60, 100
1, 55616, Note_on_c, 0, 63, 100
1, 55760, Note_off_c, 0, 63, 100
1, 55760, Note_on_c, 0, 60, 100
1, 55808, Note_off_c, 0, 60, 100
1, 55808, Note_on_c, 0, 64, 100
1, 55904, Note_off_c, 0, 64, 100
1, 55904, Note_on_c, 0, 60, 100
1, 56000, Note_off_c, 0, 60, 100
1, 56000, Note_on_c, 0, 65, 100
1, 56144, Note_off_c, 0, 65, 100
1, 56144, Note_on_c, 0, 65, 100
1, 56240, Note_off_c, 0, 65, 100
1, 56384, Note_on_c, 0, 69, 100
1, 56480, Note_off_c, 0, 69, 100
1, 56768, Note_on_c, 0, 60, 100
1, 56864, Note_off_c, 0, 60, 100
1, 56864, Note_on_c, 0, 59, 100
1, 56960, Note_off_c, 0, 59, 100
1, 56960, Note_on_c, 0, 62, 100
1, 57104, Note_off_c, 0, 62, 100
1, 57104, Note_on_c, 0, 60, 100
1, 57152, Note_off_c, 0, 60, 100
1, 57152, Note_on_c, 0, 65, 100
1, 57344, Note_off_c, 0, 65, 100
1, 57344, Note_on_c, 0, 65, 100
1, 57488, Note_off_c, 0, 65, 100
1, 57488, Note_on_c, 0, 69, 100
1, 57584, Note_off_c, 0, 69, 100
1, 57920, Note_on_c, 0, 60, 100
1, 58016, Note_off_c, 0, 60, 100
1, 58016, Note_on_c, 0, 58, 100
1, 58064, Note_off_c, 0, 58, 100
1, 58064, Note_on_c, 0, 62, 100
1, 58208, Note_off_c, 0, 62, 100
1, 58208, Note_on_c, 0, 60, 100
1, 58304, Note_off_c, 0, 60, 100
1, 58304, Note_on_c, 0, 65, 100
1, 58496, Note_off_c, 0, 65, 100
1, 58496, Note_on_c, 0, 69, 100
1, 58688, Note_off_c, 0, 69, 100
1, 58688, Note_on_c, 0, 65, 100
1, 58816, Note_off_c, 0, 65, 100
1, 58816, Note_on_c, 0, 66, 100
1, 59072, Note_off_c, 0, 66, 100
1, 59072, Note_on_c, 0, 70, 100
1, 59168, Note_off_c, 0, 70, 100
1, 59168, Note_on_c, 0, 70, 100
1, 59264, Note_off_c, 0, 70, 100
1, 59264, Note_on_c, 0, 66, 100
1, 59456, Note_off_c, 0, 66, 100
1, 59456, Note_on_c, 0, 65, 100
1, 59552, Note_off_c, 0, 65, 100
1, 59552, Note_on_c, 0, 65, 100
1, 59600, Note_off_c, 0, 65, 100
1, 59600, Note_on_c, 0, 62, 100
1, 59648, Note_off_c, 0, 62, 100
1, 59648, Note_on_c, 0, 65, 100
1, 59792, Note_off_c, 0, 65, 100
1, 59792, Note_on_c, 0, 69, 100
1, 59888, Note_off_c, 0, 69, 100
1, 60176, Note_on_c, 0, 65, 100
1, 60368, Note_off_c, 0, 65, 100
1, 60368, Note_on_c, 0, 69, 100
1, 60464, Note_off_c, 0, 69, 100
1, 60464, Note_on_c, 0, 65, 100
1, 60560, Note_off_c, 0, 65, 100
1, 60560, Note_on_c, 0, 70, 100
1, 60752, Note_off_c, 0, 70, 100
1, 60752, Note_on_c, 0, 74, 100
1, 60896, Note_off_c, 0, 74, 100
1, 60896, Note_on_c, 0, 74, 100
1, 60944, Note_off_c, 0, 74, 100
1, 60944, Note_on_c, 0, 70, 100
1, 61088, Note_off_c, 0, 70, 100
1, 61088, Note_on_c, 0, 71, 100
1, 61328, Note_off_c, 0, 71, 100
1, 61328, Note_on_c, 0, 75, 100
1, 61472, Note_off_c, 0, 75, 100
1, 61472, Note_on_c, 0, 75, 100
1, 61520, Note_off_c, 0, 75, 100
1, 61520, Note_on_c, 0, 71, 100
1, 61664, Note_off_c, 0, 71, 100
1, 61664, Note_on_c, 0, 65, 100
1, 61760, Note_off_c, 0, 65, 100
1, 61760, Note_on_c, 0, 70, 100
1, 61952, Note_off_c, 0, 70, 100
1, 61952, Note_on_c, 0, 72, 100
1, 62016, Note_off_c, 0, 72, 100
1, 62016, Note_on_c, 0, 74, 100
1, 62079, Note_off_c, 0, 74, 100
1, 62079, Note_on_c, 0, 70, 100
1, 62219, Note_off_c, 0, 70, 100
1, 62219, Note_on_c, 0, 73, 100
1, 62257, Note_off_c, 0, 73, 100
1, 62257, Note_on_c, 0, 70, 100
1, 62295, Note_off_c, 0, 70, 100
1, 62295, Note_on_c, 0, 68, 100
1, 62429, Note_off_c, 0, 68, 100
1, 62429, Note_on_c, 0, 65, 100
1, 62477, Note_off_c, 0, 65, 100
1, 62477, Note_on_c, 0, 63, 100
1, 62621, Note_off_c, 0, 63, 100
1, 62621, Note_on_c, 0, 60, 100
1, 62669, Note_off_c, 0, 60, 100
1, 62669, Note_on_c, 0, 64, 100
1, 62813, Note_off_c, 0, 64, 100
1, 62813, Note_on_c, 0, 60, 100
1, 62909, Note_off_c, 0, 60, 100
1, 62909, Note_on_c, 0, 65, 100
1, 63053, Note_off_c, 0, 65, 100
1, 63053, Note_on_c, 0, 69, 100
1, 63197, Note_off_c, 0, 69, 100
1, 63197, Note_on_c, 0, 65, 100
1, 63245, Note_off_c, 0, 65, 100
1, 63245, Note_on_c, 0, 66, 100
1, 63389, Note_off_c, 0, 66, 100
1, 63389, Note_on_c, 0, 68, 100
1, 63485, Note_off_c, 0, 68, 100
1, 63485, Note_on_c, 0, 70, 100
1, 63581, Note_off_c, 0, 70, 100
1, 63581, Note_on_c, 0, 66, 100
1, 63629, Note_off_c, 0, 66, 100
1, 63629, Note_on_c, 0, 66, 100
1, 63677, Note_off_c, 0, 66, 100
1, 63677, Note_on_c, 0, 63, 100
1, 63773, Note_off_c, 0, 63, 100
1, 63773, Note_on_c, 0, 62, 100
1, 63869, Note_off_c, 0, 62, 100
1, 63869, Note_on_c, 0, 61, 100
1, 63917, Note_off_c, 0, 61, 100
1, 63917, Note_on_c, 0, 57, 100
1, 64013, Note_off_c, 0, 57, 100
1, 64013, Note_on_c, 0, 57, 100
1, 64157, Note_off_c, 0, 57, 100
1, 64157, Note_on_c, 0, 61, 100
1, 64253, Note_off_c, 0, 61, 100
1, 64253, Note_on_c, 0, 58, 100
1, 64349, Note_off_c, 0, 58, 100
1, 64349, Note_on_c, 0, 59, 100
1, 64397, Note_off_c, 0, 59, 100
1, 64397, Note_on_c, 0, 60, 100
1, 64493, Note_off_c, 0, 60, 100
1, 64829, Note_on_c, 0, 65, 100
1, 65021, Note_off_c, 0, 65, 100
1, 65021, Note_on_c, 0, 67, 100
1, 65213, Note_off_c, 0, 67, 100
1, 65213, Note_on_c, 0, 70, 100
1, 65405, Note_off_c, 0, 70, 100
1, 65405, Note_on_c, 0, 68, 100
1, 65453, Note_off_c, 0, 68, 100
1, 65453, Note_on_c, 0, 70, 100
1, 65501, Note_off_c, 0, 70, 100
1, 65501, Note_on_c, 0, 68, 100
1, 65549, Note_off_c, 0, 68, 100
1, 65549, Note_on_c, 0, 65, 100
1, 65597, Note_off_c, 0, 65, 100
1, 65597, Note_on_c, 0, 63, 100
1, 65741, Note_off_c, 0, 63, 100
1, 65741, Note_on_c, 0, 58, 100
1, 65789, Note_off_c, 0, 58, 100
1, 65789, Note_on_c, 0, 62, 100
1, 65917, Note_off_c, 0, 62, 100
1, 65917, Note_on_c, 0, 65, 100
1, 65981, Note_off_c, 0, 65, 100
1, 65981, Note_on_c, 0, 70, 100
1, 66173, Note_off_c, 0, 70, 100
1, 66173, Note_on_c, 0, 68, 100
1, 66221, Note_off_c, 0, 68, 100
1, 66221, Note_on_c, 0, 70, 100
1, 66365, Note_off_c, 0, 70, 100
1, 66365, Note_on_c, 0, 69, 100
1, 66461, Note_off_c, 0, 69, 100
1, 66461, Note_on_c, 0, 70, 100
1, 66557, Note_off_c, 0, 70, 100
1, 66557, Note_on_c, 0, 70, 100
1, 66605, Note_off_c, 0, 70, 100
1, 66605, Note_on_c, 0, 71, 100
1, 66701, Note_off_c, 0, 71, 100
1, 66701, Note_on_c, 0, 67, 100
1, 66749, Note_off_c, 0, 67, 100
1, 66749, Note_on_c, 0, 64, 100
1, 66893, Note_off_c, 0, 64, 100
1, 66893, Note_on_c, 0, 59, 100
1, 66941, Note_off_c, 0, 59, 100
1, 66941, Note_on_c, 0, 62, 100
1, 67037, Note_off_c, 0, 62, 100
1, 67037, Note_on_c, 0, 59, 100
1, 67133, Note_off_c, 0, 59, 100
1, 67133, Note_on_c, 0, 61, 100
1, 67325, Note_off_c, 0, 61, 100
1, 67325, Note_on_c, 0, 70, 100
1, 67421, Note_off_c, 0, 70, 100
1, 67421, Note_on_c, 0, 69, 100
1, 67517, Note_off_c, 0, 69, 100
1, 67517, Note_on_c, 0, 68, 100
1, 67613, Note_off_c, 0, 68, 100
1, 67613, Note_on_c, 0, 66, 100
1, 67709, Note_off_c, 0, 66, 100
1, 67709, Note_on_c, 0, 61, 100
1, 67805, Note_off_c, 0, 61, 100
1, 67805, Note_on_c, 0, 58, 100
1, 67901, Note_off_c, 0, 58, 100
1, 67901, Note_on_c, 0, 65, 100
1, 67949, Note_off_c, 0, 65, 100
1, 67949, Note_on_c, 0, 67, 100
1, 67997, Note_off_c, 0, 67, 100
1, 67997, Note_on_c, 0, 68, 100
1, 68045, Note_off_c, 0, 68, 100
1, 68045, Note_on_c, 0, 65, 100
1, 68093, Note_off_c, 0, 65, 100
1, 68093, Note_on_c, 0, 66, 100
1, 68189, Note_off_c, 0, 66, 100
1, 68189, Note_on_c, 0, 63, 100
1, 68285, Note_off_c, 0, 63, 100
1, 68573, Note_on_c, 0, 61, 100
1, 68621, Note_off_c, 0, 61, 100
1, 68621, Note_on_c, 0, 63, 100
1, 68669, Note_off_c, 0, 63, 100
1, 68669, Note_on_c, 0, 64, 100
1, 68765, Note_off_c, 0, 64, 100
1, 68765, Note_on_c, 0, 62, 100
1, 68861, Note_off_c, 0, 62, 100
1, 68861, Note_on_c, 0, 61, 100
1, 68909, Note_off_c, 0, 61, 100
1, 68909, Note_on_c, 0, 62, 100
1, 68957, Note_off_c, 0, 62, 100
1, 68957, Note_on_c, 0, 64, 100
1, 69053, Note_off_c, 0, 64, 100
1, 69053, Note_on_c, 0, 62, 100
1, 69181, Note_off_c, 0, 62, 100
1, 69181, Note_on_c, 0, 57, 100
1, 69245, Note_off_c, 0, 57, 100
1, 69245, Note_on_c, 0, 60, 100
1, 69341, Note_off_c, 0, 60, 100
1, 69341, Note_on_c, 0, 62, 100
1, 69373, Note_off_c, 0, 62, 100
1, 69373, Note_on_c, 0, 60, 100
1, 69405, Note_off_c, 0, 60, 100
1, 69405, Note_on_c, 0, 57, 100
1, 69533, Note_off_c, 0, 57, 100
1, 69533, Note_on_c, 0, 58, 100
1, 69629, Note_off_c, 0, 58, 100
1, 69629, Note_on_c, 0, 59, 100
1, 69725, Note_off_c, 0, 59, 100
1, 69725, Note_on_c, 0, 67, 100
1, 69821, Note_off_c, 0, 67, 100
1, 69821, Note_on_c, 0, 69, 100
1, 69869, Note_off_c, 0, 69, 100
1, 69869, Note_on_c, 0, 70, 100
1, 69917, Note_off_c, 0, 70, 100
1, 69917, Note_on_c, 0, 72, 100
1, 69965, Note_off_c, 0, 72, 100
1, 69965, Note_on_c, 0, 73, 100
1, 70013, Note_off_c, 0, 73, 100
1, 70013, Note_on_c, 0, 74, 100
1, 70109, Note_off_c, 0, 74, 100
1, 70109, Note_on_c, 0, 71, 100
1, 70205, Note_off_c, 0, 71, 100
1, 70205, Note_on_c, 0, 72, 100
1, 70349, Note_off_c, 0, 72, 100
1, 70349, Note_on_c, 0, 74, 100
1, 70397, Note_off_c, 0, 74, 100
1, 70397, Note_on_c, 0, 71, 100
1, 70589, Note_off_c, 0, 71, 100
1, 70589, Note_on_c, 0, 67, 100
1, 70781, Note_off_c, 0, 67, 100
1, 70781, Note_on_c, 0, 66, 100
1, 70829, Note_off_c, 0, 66, 100
1, 70829, Note_on_c, 0, 67, 100
1, 70925, Note_off_c, 0, 67, 100
1, 71069, Note_on_c, 0, 70, 100
1, 71117, Note_off_c, 0, 70, 100
1, 71117, Note_on_c, 0, 69, 100
1, 71165, Note_off_c, 0, 69, 100
1, 71165, Note_on_c, 0, 67, 100
1, 71203, Note_off_c, 0, 67, 100
1, 71203, Note_on_c, 0, 66, 100
1, 71279, Note_off_c, 0, 66, 100
1, 71279, Note_on_c, 0, 61, 100
1, 71317, Note_off_c, 0, 61, 100
1, 71317, Note_on_c, 0, 62, 100
1, 71355, Note_off_c, 0, 62, 100
1, 71355, Note_on_c, 0, 58, 100
1, 71451, Note_off_c, 0, 58, 100
1, 71451, Note_on_c, 0, 54, 100
1, 71547, Note_off_c, 0, 54, 100
1, 71547, Note_on_c, 0, 55, 100
1, 71643, Note_off_c, 0, 55, 100
1, 71643, Note_on_c, 0, 58, 100
1, 71739, Note_off_c, 0, 58, 100
1, 71739, Note_on_c, 0, 62, 100
1, 71835, Note_off_c, 0, 62, 100
1, 71835, Note_on_c, 0, 65, 100
1, 71931, Note_off_c, 0, 65, 100
1, 71931, Note_on_c, 0, 64, 100
1, 72059, Note_off_c, 0, 64, 100
1, 72059, Note_on_c, 0, 60, 100
1, 72123, Note_off_c, 0, 60, 100
1, 72123, Note_on_c, 0, 65, 100
1, 72315, Note_off_c, 0, 65, 100
1, 72315, Note_on_c, 0, 72, 100
1, 72747, Note_off_c, 0, 72, 100
1, 72747, Note_on_c, 0, 70, 100
1, 72794, Note_off_c, 0, 70, 100
1, 72794, Note_on_c, 0, 69, 100
1, 72842, Note_off_c, 0, 69, 100
1, 72842, Note_on_c, 0, 65, 100
1, 73226, Note_off_c, 0, 65, 100
1, 73466, Note_on_c, 0, 72, 100
1, 73850, Note_off_c, 0, 72, 100
1, 73850, Note_on_c, 0, 71, 100
1, 73946, Note_off_c, 0, 71, 100
1, 73946, Note_on_c, 0, 68, 100
1, 74042, Note_off_c, 0, 68, 100
1, 74042, Note_on_c, 0, 65, 100
1, 74330, Note_off_c, 0, 65, 100
1, 74330, Note_on_c, 0, 63, 100
1, 74426, Note_off_c, 0, 63, 100
1, 74666, Note_on_c, 0, 72, 100
1, 74954, Note_off_c, 0, 72, 100
1, 74954, Note_on_c, 0, 75, 100
1, 75194, Note_off_c, 0, 75, 100
1, 75194, Note_on_c, 0, 77, 100
1, 75386, Note_off_c, 0, 77, 100
1, 75386, Note_on_c, 0, 75, 100
1, 75578, Note_off_c, 0, 75, 100
1, 75578, Note_on_c, 0, 70, 100
1, 75674, Note_off_c, 0, 70, 100
1, 75674, Note_on_c, 0, 72, 100
1, 75818, Note_off_c, 0, 72, 100
1, 75818, Note_on_c, 0, 71, 100
1, 75865, Note_off_c, 0, 71, 100
1, 75865, Note_on_c, 0, 69, 100
1, 75913, Note_off_c, 0, 69, 100
1, 75913, Note_on_c, 0, 68, 100
1, 75961, Note_off_c, 0, 68, 100
1, 75961, Note_on_c, 0, 65, 100
1, 76153, Note_off_c, 0, 65, 100
1, 76393, Note_on_c, 0, 67, 100
1, 76440, Note_off_c, 0, 67, 100
1, 76440, Note_on_c, 0, 69, 100
1, 76536, Note_off_c, 0, 69, 100
1, 76536, Note_on_c, 0, 70, 100
1, 76728, Note_off_c, 0, 70, 100
1, 76728, Note_on_c, 0, 71, 100
1, 76824, Note_off_c, 0, 71, 100
1, 76824, Note_on_c, 0, 72, 100
1, 77112, Note_off_c, 0, 72, 100
1, 77112, Note_on_c, 0, 75, 100
1, 77304, Note_off_c, 0, 75, 100
1, 77304, Note_on_c, 0, 77, 100
1, 77400, Note_off_c, 0, 77, 100
1, 77400, Note_on_c, 0, 77, 100
1, 77448, Note_off_c, 0, 77, 100
1, 77448, Note_on_c, 0, 75, 100
1, 77640, Note_off_c, 0, 75, 100
1, 77640, Note_on_c, 0, 72, 100
1, 77880, Note_off_c, 0, 72, 100
1, 77880, Note_on_c, 0, 71, 100
1, 77928, Note_off_c, 0, 71, 100
1, 77928, Note_on_c, 0, 70, 100
1, 77975, Note_off_c, 0, 70, 100
1, 77975, Note_on_c, 0, 68, 100
1, 78023, Note_off_c, 0, 68, 100
1, 78023, Note_on_c, 0, 65, 100
1, 78215, Note_off_c, 0, 65, 100
1, 78599, Note_on_c, 0, 68, 100
1, 78647, Note_off_c, 0, 68, 100
1, 78647, Note_on_c, 0, 70, 100
1, 78791, Note_off_c, 0, 70, 100
1, 78791, Note_on_c, 0, 74, 100
1, 78935, Note_off_c, 0, 74, 100
1, 78935, Note_on_c, 0, 77, 100
1, 79031, Note_off_c, 0, 77, 100
1, 79031, Note_on_c, 0, 67, 100
1, 79175, Note_off_c, 0, 67, 100
1, 79175, Note_on_c, 0, 80, 100
1, 79351, Note_off_c, 0, 80, 100
1, 79351, Note_on_c, 0, 79, 100
1, 79382, Note_off_c, 0, 79, 100
1, 79382, Note_on_c, 0, 78, 100
1, 79414, Note_off_c, 0, 78, 100
1, 79414, Note_on_c, 0, 77, 100
1, 79478, Note_off_c, 0, 77, 100
1, 79478, Note_on_c, 0, 74, 100
1, 79542, Note_off_c, 0, 74, 100
1, 79542, Note_on_c, 0, 75, 100
1, 79606, Note_off_c, 0, 75, 100
1, 79606, Note_on_c, 0, 74, 100
1, 79654, Note_off_c, 0, 74, 100
1, 79654, Note_on_c, 0, 72, 100
1, 79701, Note_off_c, 0, 72, 100
1, 79701, Note_on_c, 0, 70, 100
1, 79749, Note_off_c, 0, 70, 100
1, 79749, Note_on_c, 0, 68, 100
1, 79892, Note_off_c, 0, 68, 100
1, 79892, Note_on_c, 0, 67, 100
1, 79940, Note_off_c, 0, 67, 100
1, 79940, Note_on_c, 0, 65, 100
1, 79988, Note_off_c, 0, 65, 100
1, 79988, Note_on_c, 0, 63, 100
1, 80084, Note_off_c, 0, 63, 100
1, 80084, Note_on_c, 0, 64, 100
1, 80132, Note_off_c, 0, 64, 100
1, 80132, Note_on_c, 0, 62, 100
1, 80156, Note_off_c, 0, 62, 100
1, 80156, Note_on_c, 0, 61, 100
1, 80180, Note_off_c, 0, 61, 100
1, 80180, Note_on_c, 0, 60, 100
1, 80228, Note_off_c, 0, 60, 100
1, 80228, Note_on_c, 0, 58, 100
1, 80275, Note_off_c, 0, 58, 100
1, 80275, Note_on_c, 0, 56, 100
1, 80371, Note_off_c, 0, 56, 100
1, 80371, Note_on_c, 0, 56, 100
1, 80467, Note_off_c, 0, 56, 100
1, 80899, Note_on_c, 0, 60, 100
1, 81091, Note_off_c, 0, 60, 100
1, 81091, Note_on_c, 0, 62, 100
1, 81235, Note_off_c, 0, 62, 100
1, 81235, Note_on_c, 0, 60, 100
1, 81331, Note_off_c, 0, 60, 100
1, 81331, Note_on_c, 0, 65, 100
1, 81475, Note_off_c, 0, 65, 100
1, 81475, Note_on_c, 0, 72, 100
1, 81715, Note_off_c, 0, 72, 100
1, 81715, Note_on_c, 0, 75, 100
1, 81811, Note_off_c, 0, 75, 100
1, 81811, Note_on_c, 0, 77, 100
1, 82099, Note_off_c, 0, 77, 100
1, 82099, Note_on_c, 0, 75, 100
1, 82291, Note_off_c, 0, 75, 100
1, 82291, Note_on_c, 0, 72, 100
1, 82483, Note_off_c, 0, 72, 100
1, 82483, Note_on_c, 0, 68, 100
1, 82531, Note_off_c, 0, 68, 100
1, 82531, Note_on_c, 0, 70, 100
1, 82674, Note_off_c, 0, 70, 100
1, 82674, Note_on_c, 0, 68, 100
1, 82769, Note_off_c, 0, 68, 100
1, 82769, Note_on_c, 0, 72, 100
1, 82817, Note_off_c, 0, 72, 100
1, 82817, Note_on_c, 0, 68, 100
1, 82865, Note_off_c, 0, 68, 100
1, 82865, Note_on_c, 0, 67, 100
1, 82903, Note_off_c, 0, 67, 100
1, 82903, Note_on_c, 0, 65, 100
1, 83018, Note_off_c, 0, 65, 100
1, 83018, Note_on_c, 0, 63, 100
1, 83056, Note_off_c, 0, 63, 100
1, 83056, Note_on_c, 0, 60, 100
1, 83152, Note_off_c, 0, 60, 100
1, 83152, Note_on_c, 0, 56, 100
1, 83248, Note_off_c, 0, 56, 100
1, 83248, Note_on_c, 0, 58, 100
1, 83343, Note_off_c, 0, 58, 100
1, 83343, Note_on_c, 0, 60, 100
1, 83391, Note_off_c, 0, 60, 100
1, 83391, Note_on_c, 0, 57, 100
1, 83583, Note_off_c, 0, 57, 100
1, 83583, Note_on_c, 0, 60, 100
1, 83631, Note_off_c, 0, 60, 100
1, 83631, Note_on_c, 0, 65, 100
1, 83823, Note_off_c, 0, 65, 100
1, 83823, Note_on_c, 0, 70, 100
1, 84015, Note_off_c, 0, 70, 100
1, 84015, Note_on_c, 0, 69, 100
1, 84063, Note_off_c, 0, 69, 100
1, 84063, Note_on_c, 0, 70, 100
1, 84159, Note_off_c, 0, 70, 100
1, 84303, Note_on_c, 0, 69, 100
1, 84351, Note_off_c, 0, 69, 100
1, 84351, Note_on_c, 0, 70, 100
1, 84399, Note_off_c, 0, 70, 100
1, 84399, Note_on_c, 0, 72, 100
1, 84437, Note_off_c, 0, 72, 100
1, 84437, Note_on_c, 0, 70, 100
1, 84475, Note_off_c, 0, 70, 100
1, 84475, Note_on_c, 0, 69, 100
1, 84513, Note_off_c, 0, 69, 100
1, 84513, Note_on_c, 0, 67, 100
1, 84551, Note_off_c, 0, 67, 100
1, 84551, Note_on_c, 0, 65, 100
1, 84627, Note_off_c, 0, 65, 100
1, 84627, Note_on_c, 0, 63, 100
1, 84665, Note_off_c, 0, 63, 100
1, 84665, Note_on_c, 0, 58, 100
1, 84703, Note_off_c, 0, 58, 100
1, 84703, Note_on_c, 0, 62, 100
1, 84741, Note_off_c, 0, 62, 100
1, 84741, Note_on_c, 0, 58, 100
1, 84779, Note_off_c, 0, 58, 100
1, 84779, Note_on_c, 0, 62, 100
1, 84875, Note_off_c, 0, 62, 100
1, 84875, Note_on_c, 0, 60, 100
1, 84971, Note_off_c, 0, 60, 100
1, 84971, Note_on_c, 0, 61, 100
1, 85053, Note_off_c, 0, 61, 100
1, 85053, Note_on_c, 0, 64, 100
1, 85080, Note_off_c, 0, 64, 100
1, 85080, Note_on_c, 0, 63, 100
1, 85107, Note_off_c, 0, 63, 100
1, 85107, Note_on_c, 0, 68, 100
1, 85134, Note_off_c, 0, 68, 100
1, 85134, Note_on_c, 0, 69, 100
1, 85161, Note_off_c, 0, 69, 100
1, 85161, Note_on_c, 0, 72, 100
1, 85257, Note_off_c, 0, 72, 100
1, 85257, Note_on_c, 0, 70, 100
1, 85305, Note_off_c, 0, 70, 100
1, 85305, Note_on_c, 0, 72, 100
1, 85449, Note_off_c, 0, 72, 100
1, 85449, Note_on_c, 0, 70, 100
1, 85497, Note_off_c, 0, 70, 100
1, 85497, Note_on_c, 0, 72, 100
1, 85545, Note_off_c, 0, 72, 100
1, 85545, Note_on_c, 0, 69, 100
1, 85737, Note_off_c, 0, 69, 100
1, 86025, Note_on_c, 0, 68, 100
1, 86073, Note_off_c, 0, 68, 100
1, 86073, Note_on_c, 0, 67, 100
1, 86121, Note_off_c, 0, 67, 100
1, 86121, Note_on_c, 0, 66, 100
1, 86216, Note_off_c, 0, 66, 100
1, 86216, Note_on_c, 0, 70, 100
1, 86312, Note_off_c, 0, 70, 100
1, 86312, Note_on_c, 0, 70, 100
1, 86336, Note_off_c, 0, 70, 100
1, 86336, Note_on_c, 0, 65, 100
1, 86408, Note_off_c, 0, 65, 100
1, 86408, Note_on_c, 0, 64, 100
1, 86480, Note_off_c, 0, 64, 100
1, 86480, Note_on_c, 0, 63, 100
1, 86600, Note_off_c, 0, 63, 100
1, 86600, Note_on_c, 0, 63, 100
1, 86648, Note_off_c, 0, 63, 100
1, 86648, Note_on_c, 0, 58, 100
1, 86696, Note_off_c, 0, 58, 100
1, 86696, Note_on_c, 0, 61, 100
1, 86824, Note_off_c, 0, 61, 100
1, 86824, Note_on_c, 0, 59, 100
1, 86888, Note_off_c, 0, 59, 100
1, 86888, Note_on_c, 0, 60, 100
1, 86984, Note_off_c, 0, 60, 100
1, 86984, Note_on_c, 0, 66, 100
1, 87080, Note_off_c, 0, 66, 100
1, 87080, Note_on_c, 0, 67, 100
1, 87176, Note_off_c, 0, 67, 100
1, 87176, Note_on_c, 0, 67, 100
1, 87224, Note_off_c, 0, 67, 100
1, 87224, Note_on_c, 0, 65, 100
1, 87272, Note_off_c, 0, 65, 100
1, 87272, Note_on_c, 0, 60, 100
1, 87367, Note_off_c, 0, 60, 100
1, 87367, Note_on_c, 0, 57, 100
1, 87463, Note_off_c, 0, 57, 100
1, 87463, Note_on_c, 0, 64, 100
1, 87559, Note_off_c, 0, 64, 100
1, 87559, Note_on_c, 0, 63, 100
1, 87607, Note_off_c, 0, 63, 100
1, 87607, Note_on_c, 0, 62, 100
1, 87847, Note_off_c, 0, 62, 100
1, 87847, Note_on_c, 0, 68, 100
1, 87911, Note_off_c, 0, 68, 100
1, 87911, Note_on_c, 0, 67, 100
1, 87975, Note_off_c, 0, 67, 100
1, 87975, Note_on_c, 0, 68, 100
1, 88087, Note_off_c, 0, 68, 100
1, 88087, Note_on_c, 0, 70, 100
1, 88183, Note_off_c, 0, 70, 100
1, 88183, Note_on_c, 0, 70, 100
1, 88231, Note_off_c, 0, 70, 100
1, 88231, Note_on_c, 0, 72, 100
1, 88327, Note_off_c, 0, 72, 100
1, 88327, Note_on_c, 0, 75, 100
1, 88375, Note_off_c, 0, 75, 100
1, 88375, Note_on_c, 0, 73, 100
1, 88499, Note_off_c, 0, 73, 100
1, 88499, Note_on_c, 0, 75, 100
1, 88537, Note_off_c, 0, 75, 100
1, 88537, Note_on_c, 0, 73, 100
1, 88575, Note_off_c, 0, 73, 100
1, 88575, Note_on_c, 0, 72, 100
1, 88709, Note_off_c, 0, 72, 100
1, 88709, Note_on_c, 0, 68, 100
1, 88997, Note_off_c, 0, 68, 100
1, 89285, Note_on_c, 0, 66, 100
1, 89381, Note_off_c, 0, 66, 100
1, 89381, Note_on_c, 0, 67, 100
1, 89477, Note_off_c, 0, 67, 100
1, 89477, Note_on_c, 0, 62, 100
1, 89573, Note_off_c, 0, 62, 100
1, 89573, Note_on_c, 0, 71, 100
1, 89668, Note_off_c, 0, 71, 100
1, 89668, Note_on_c, 0, 67, 100
1, 89764, Note_off_c, 0, 67, 100
1, 89764, Note_on_c, 0, 66, 100
1, 89860, Note_off_c, 0, 66, 100
1, 89860, Note_on_c, 0, 69, 100
1, 89956, Note_off_c, 0, 69, 100
1, 89956, Note_on_c, 0, 67, 100
1, 90052, Note_off_c, 0, 67, 100
1, 90052, Note_on_c, 0, 65, 100
1, 90148, Note_off_c, 0, 65, 100
1, 90148, Note_on_c, 0, 64, 100
1, 90292, Note_off_c, 0, 64, 100
1, 90292, Note_on_c, 0, 60, 100
1, 90340, Note_off_c, 0, 60, 100
1, 90340, Note_on_c, 0, 62, 100
1, 90436, Note_off_c, 0, 62, 100
1, 90436, Note_on_c, 0, 60, 100
1, 90532, Note_off_c, 0, 60, 100
1, 90532, Note_on_c, 0, 65, 100
1, 90628, Note_off_c, 0, 65, 100
1, 90628, Note_on_c, 0, 65, 100
1, 90724, Note_off_c, 0, 65, 100
1, 90724, Note_on_c, 0, 60, 100
1, 90916, Note_off_c, 0, 60, 100
1, 90916, Note_on_c, 0, 68, 100
1, 91108, Note_off_c, 0, 68, 100
1, 91108, Note_on_c, 0, 65, 100
1, 91252, Note_off_c, 0, 65, 100
1, 91252, Note_on_c, 0, 65, 100
1, 91348, Note_off_c, 0, 65, 100
1, 91492, Note_on_c, 0, 63, 100
1, 91684, Note_off_c, 0, 63, 100
1, 91684, Note_on_c, 0, 60, 100
1, 91828, Note_off_c, 0, 60, 100
1, 91828, Note_on_c, 0, 60, 100
1, 91924, Note_off_c, 0, 60, 100
1, 92068, Note_on_c, 0, 63, 100
1, 92212, Note_off_c, 0, 63, 100
1, 92212, Note_on_c, 0, 60, 100
1, 92356, Note_off_c, 0, 60, 100
1, 92356, Note_on_c, 0, 60, 100
1, 92452, Note_off_c, 0, 60, 100
1, 92452, Note_on_c, 0, 58, 100
1, 92644, Note_off_c, 0, 58, 100
1, 92644, Note_on_c, 0, 56, 100
1, 92692, Note_off_c, 0, 56, 100
1, 92692, Note_on_c, 0, 57, 100
1, 92788, Note_off_c, 0, 57, 100
1, 92788, Note_on_c, 0, 53, 100
1, 92975, Note_off_c, 0, 53, 100
1, 92975, End_track
0, 0, End_of_file
