0, 0, Header, 1, 1, 192
1, 0, Start_track
1, 0, Title_t, "Melody"
1, 0, Tempo, 983606
1, 0, Key_signature, -3, "major"
1, 0, Time_signature, 4, 2, 24, 8
1, 48, Note_on_c, 0, 62, 100
1, 96, Note_off_c, 0, 62, 100
1, 96, Note_on_c, 0, 63, 100
1, 240, Note_off_c, 0, 63, 100
1, 240, Note_on_c, 0, 64, 100
1, 288, Note_off_c, 0, 64, 100
1, 288, Note_on_c, 0, 60, 100
1, 336, Note_off_c, 0, 60, 100
1, 336, Note_on_c, 0, 65, 100
1, 480, Note_off_c, 0, 65, 100
1, 480, Note_on_c, 0, 63, 100
1, 576, Note_off_c, 0, 63, 100
1, 576, Note_on_c, 0, 60, 100
1, 883, Note_off_c, 0, 60, 100
1, 883, Note_on_c, 0, 55, 100
1, 921, Note_off_c, 0, 55, 100
1, 921, Note_on_c, 0, 56, 100
1, 959, Note_off_c, 0, 56, 100
1, 959, Note_on_c, 0, 53, 100
1, 1247, Note_off_c, 0, 53, 100
1, 1611, Note_on_c, 0, 56, 100
1, 1649, Note_off_c, 0, 56, 100
1, 1649, Note_on_c, 0, 60, 100
1, 1687, Note_off_c, 0, 60, 100
1, 1687, Note_on_c, 0, 63, 100
1, 1869, Note_off_c, 0, 63, 100
1, 1869, Note_on_c, 0, 63, 100
1, 1917, Note_off_c, 0, 63, 100
1, 1917, Note_on_c, 0, 65, 100
1, 1965, Note_off_c, 0, 65, 100
1, 1965, Note_on_c, 0, 67, 100
1, 2013, Note_off_c, 0, 67, 100
1, 2013, Note_on_c, 0, 65, 100
1, 2061, Note_off_c, 0, 65, 100
1, 2061, Note_on_c, 0, 67, 100
1, 2445, Note_off_c, 0, 67, 100
1, 2445, Note_on_c, 0, 66, 100
1, 2557, Note_off_c, 0, 66, 100
1, 2557, Note_on_c, 0, 65, 100
1, 2781, Note_off_c, 0, 65, 100
1, 2781, Note_on_c, 0, 63, 100
1, 2829, Note_off_c, 0, 63, 100
1, 2829, Note_on_c, 0, 59, 100
1, 2877, Note_off_c, 0, 59, 100
1, 2877, Note_on_c, 0, 56, 100
1, 2941, Note_off_c, 0, 56, 100
1, 2941, Note_on_c, 0, 55, 100
1, 3005, Note_off_c, 0, 55, 100
1, 3005, Note_on_c, 0, 53, 100
1, 3197, Note_off_c, 0, 53, 100
1, 3418, Note_on_c, 0, 54, 100
1, 3435, Note_off_c, 0, 54, 100
1, 3435, Note_on_c, 0, 55, 100
1, 3452, Note_off_c, 0, 55, 100
1, 3452, Note_on_c, 0, 58, 100
1, 3500, Note_off_c, 0, 58, 100
1, 3500, Note_on_c, 0, 60, 100
1, 3548, Note_off_c, 0, 60, 100
1, 3548, Note_on_c, 0, 58, 100
1, 3596, Note_off_c, 0, 58, 100
1, 3596, Note_on_c, 0, 63, 100
1, 3644, Note_off_c, 0, 63, 100
1, 3644, Note_on_c, 0, 63, 100
1, 3932, Note_off_c, 0, 63, 100
1, 4220, Note_on_c, 0, 62, 100
1, 4316, Note_off_c, 0, 62, 100
1, 4316, Note_on_c, 0, 67, 100
1, 4412, Note_off_c, 0, 67, 100
1, 4412, Note_on_c, 0, 62, 100
1, 4460, Note_off_c, 0, 62, 100
1, 4460, Note_on_c, 0, 58, 100
1, 4508, Note_off_c, 0, 58, 100
1, 4508, Note_on_c, 0, 55, 100
1, 4668, Note_off_c, 0, 55, 100
1, 4668, Note_on_c, 0, 61, 100
1, 4764, Note_off_c, 0, 61, 100
1, 5036, Note_on_c, 0, 60, 100
1, 5084, Note_off_c, 0, 60, 100
1, 5084, Note_on_c, 0, 63, 100
1, 5132, Note_off_c, 0, 63, 100
1, 5132, Note_on_c, 0, 60, 100
1, 5180, Note_off_c, 0, 60, 100
1, 5180, Note_on_c, 0, 56, 100
1, 5276, Note_off_c, 0, 56, 100
1, 5276, Note_on_c, 0, 58, 100
1, 5393, Note_off_c, 0, 58, 100
1, 5393, Note_on_c, 0, 55, 100
1, 5435, Note_off_c, 0, 55, 100
1, 5435, Note_on_c, 0, 56, 100
1, 5520, Note_off_c, 0, 56, 100
1, 5520, Note_on_c, 0, 55, 100
1, 5541, Note_off_c, 0, 55, 100
1, 5541, Note_on_c, 0, 54, 100
1, 5562, Note_off_c, 0, 54, 100
1, 5562, Note_on_c, 0, 53, 100
1, 5946, Note_off_c, 0, 53, 100
1, 6186, Note_on_c, 0, 55, 100
1, 6234, Note_off_c, 0, 55, 100
1, 6234, Note_on_c, 0, 53, 100
1, 6282, Note_off_c, 0, 53, 100
1, 6282, Note_on_c, 0, 52, 100
1, 6330, Note_off_c, 0, 52, 100
1, 6330, Note_on_c, 0, 53, 100
1, 6378, Note_off_c, 0, 53, 100
1, 6378, Note_on_c, 0, 58, 100
1, 6426, Note_off_c, 0, 58, 100
1, 6426, Note_on_c, 0, 56, 100
1, 6474, Note_off_c, 0, 56, 100
1, 6474, Note_on_c, 0, 58, 100
1, 6762, Note_off_c, 0, 58, 100
1, 7136, Note_on_c, 0, 51, 100
1, 7174, Note_off_c, 0, 51, 100
1, 7174, Note_on_c, 0, 50, 100
1, 7250, Note_off_c, 0, 50, 100
1, 7250, Note_on_c, 0, 58, 100
1, 7288, Note_off_c, 0, 58, 100
1, 7288, Note_on_c, 0, 56, 100
1, 7480, Note_off_c, 0, 56, 100
1, 7480, Note_on_c, 0, 62, 100
1, 7504, Note_off_c, 0, 62, 100
1, 7504, Note_on_c, 0, 61, 100
1, 7528, Note_off_c, 0, 61, 100
1, 7528, Note_on_c, 0, 59, 100
1, 7552, Note_off_c, 0, 59, 100
1, 7552, Note_on_c, 0, 58, 100
1, 7624, Note_off_c, 0, 58, 100
1, 7624, Note_on_c, 0, 56, 100
1, 7648, Note_off_c, 0, 56, 100
1, 7648, Note_on_c, 0, 54, 100
1, 7710, Note_off_c, 0, 54, 100
1, 7710, Note_on_c, 0, 56, 100
1, 7748, Note_off_c, 0, 56, 100
1, 7748, Note_on_c, 0, 58, 100
1, 7786, Note_off_c, 0, 58, 100
1, 7786, Note_on_c, 0, 56, 100
1, 7824, Note_off_c, 0, 56, 100
1, 7824, Note_on_c, 0, 61, 100
1, 8054, Note_off_c, 0, 61, 100
1, 8054, Note_on_c, 0, 58, 100
1, 8086, Note_off_c, 0, 58, 100
1, 8086, Note_on_c, 0, 55, 100
1, 8118, Note_off_c, 0, 55, 100
1, 8118, Note_on_c, 0, 57, 100
1, 8150, Note_off_c, 0, 57, 100
1, 8150, Note_on_c, 0, 60, 100
1, 8182, Note_off_c, 0, 60, 100
1, 8182, Note_on_c, 0, 55, 100
1, 8214, Note_off_c, 0, 55, 100
1, 8214, Note_on_c, 0, 58, 100
1, 8246, Note_off_c, 0, 58, 100
1, 8246, Note_on_c, 0, 60, 100
1, 8342, Note_off_c, 0, 60, 100
1, 8822, Note_on_c, 0, 58, 100
1, 8870, Note_off_c, 0, 58, 100
1, 8870, Note_on_c, 0, 60, 100
1, 8918, Note_off_c, 0, 60, 100
1, 8918, Note_on_c, 0, 58, 100
1, 9014, Note_off_c, 0, 58, 100
1, 9014, Note_on_c, 0, 58, 100
1, 9110, Note_off_c, 0, 58, 100
1, 9110, Note_on_c, 0, 63, 100
1, 9158, Note_off_c, 0, 63, 100
1, 9158, Note_on_c, 0, 65, 100
1, 9206, Note_off_c, 0, 65, 100
1, 9206, Note_on_c, 0, 61, 100
1, 9254, Note_off_c, 0, 61, 100
1, 9254, Note_on_c, 0, 62, 100
1, 9302, Note_off_c, 0, 62, 100
1, 9302, Note_on_c, 0, 58, 100
1, 9494, Note_off_c, 0, 58, 100
1, 9494, Note_on_c, 0, 60, 100
1, 9526, Note_off_c, 0, 60, 100
1, 9526, Note_on_c, 0, 63, 100
1, 9558, Note_off_c, 0, 63, 100
1, 9558, Note_on_c, 0, 65, 100
1, 9590, Note_off_c, 0, 65, 100
1, 9590, Note_on_c, 0, 63, 100
1, 9638, Note_off_c, 0, 63, 100
1, 9638, Note_on_c, 0, 65, 100
1, 9686, Note_off_c, 0, 65, 100
1, 9686, Note_on_c, 0, 67, 100
1, 9878, Note_off_c, 0, 67, 100
1, 9878, Note_on_c, 0, 65, 100
1, 9910, Note_off_c, 0, 65, 100
1, 9910, Note_on_c, 0, 63, 100
1, 9942, Note_off_c, 0, 63, 100
1, 9942, Note_on_c, 0, 60, 100
1, 10038, Note_off_c, 0, 60, 100
1, 10358, Note_on_c, 0, 62, 100
1, 10406, Note_off_c, 0, 62, 100
1, 10406, Note_on_c, 0, 66, 100
1, 10454, Note_off_c, 0, 66, 100
1, 10454, Note_on_c, 0, 67, 100
1, 10550, Note_off_c, 0, 67, 100
1, 10550, Note_on_c, 0, 62, 100
1, 10598, Note_off_c, 0, 62, 100
1, 10598, Note_on_c, 0, 58, 100
1, 10646, Note_off_c, 0, 58, 100
1, 10646, Note_on_c, 0, 61, 100
1, 10806, Note_off_c, 0, 61, 100
1, 10806, Note_on_c, 0, 67, 100
1, 10870, Note_off_c, 0, 67, 100
1, 10870, Note_on_c, 0, 61, 100
1, 10966, Note_off_c, 0, 61, 100
1, 11222, Note_on_c, 0, 58, 100
1, 11318, Note_off_c, 0, 58, 100
1, 11318, Note_on_c, 0, 58, 100
1, 11462, Note_off_c, 0, 58, 100
1, 11462, Note_on_c, 0, 59, 100
1, 11486, Note_off_c, 0, 59, 100
1, 11486, Note_on_c, 0, 60, 100
1, 11510, Note_off_c, 0, 60, 100
1, 11510, Note_on_c, 0, 65, 100
1, 11606, Note_off_c, 0, 65, 100
1, 11606, Note_on_c, 0, 59, 100
1, 11702, Note_off_c, 0, 59, 100
1, 11702, Note_on_c, 0, 57, 100
1, 11750, Note_off_c, 0, 57, 100
1, 11750, Note_on_c, 0, 58, 100
1, 12038, Note_off_c, 0, 58, 100
1, 12326, Note_on_c, 0, 62, 100
1, 12374, Note_off_c, 0, 62, 100
1, 12374, Note_on_c, 0, 63, 100
1, 12422, Note_off_c, 0, 63, 100
1, 12422, Note_on_c, 0, 64, 100
1, 12470, Note_off_c, 0, 64, 100
1, 12470, Note_on_c, 0, 63, 100
1, 12518, Note_off_c, 0, 63, 100
1, 12518, Note_on_c, 0, 65, 100
1, 12758, Note_off_c, 0, 65, 100
1, 12758, Note_on_c, 0, 63, 100
1, 12854, Note_off_c, 0, 63, 100
1, 12854, Note_on_c, 0, 60, 100
1, 13142, Note_off_c, 0, 60, 100
1, 13142, Note_on_c, 0, 55, 100
1, 13190, Note_off_c, 0, 55, 100
1, 13190, Note_on_c, 0, 56, 100
1, 13238, Note_off_c, 0, 56, 100
1, 13238, Note_on_c, 0, 53, 100
1, 13526, Note_off_c, 0, 53, 100
1, 13862, Note_on_c, 0, 56, 100
1, 13910, Note_off_c, 0, 56, 100
1, 13910, Note_on_c, 0, 60, 100
1, 13958, Note_off_c, 0, 60, 100
1, 13958, Note_on_c, 0, 63, 100
1, 14150, Note_off_c, 0, 63, 100
1, 14150, Note_on_c, 0, 60, 100
1, 14198, Note_off_c, 0, 60, 100
1, 14198, Note_on_c, 0, 68, 100
1, 14246, Note_off_c, 0, 68, 100
1, 14246, Note_on_c, 0, 70, 100
1, 14294, Note_off_c, 0, 70, 100
1, 14294, Note_on_c, 0, 68, 100
1, 14342, Note_off_c, 0, 68, 100
1, 14342, Note_on_c, 0, 70, 100
1, 14534, Note_off_c, 0, 70, 100
1, 14534, Note_on_c, 0, 68, 100
1, 14558, Note_off_c, 0, 68, 100
1, 14558, Note_on_c, 0, 70, 100
1, 14582, Note_off_c, 0, 70, 100
1, 14582, Note_on_c, 0, 68, 100
1, 14594, Note_off_c, 0, 68, 100
1, 14594, Note_on_c, 0, 66, 100
1, 14632, Note_off_c, 0, 66, 100
1, 14632, Note_on_c, 0, 68, 100
1, 14760, Note_off_c, 0, 68, 100
1, 14760, Note_on_c, 0, 66, 100
1, 14772, Note_off_c, 0, 66, 100
1, 14772, Note_on_c, 0, 63, 100
1, 14820, Note_off_c, 0, 63, 100
1, 14820, Note_on_c, 0, 61, 100
1, 14868, Note_off_c, 0, 61, 100
1, 14868, Note_on_c, 0, 63, 100
1, 14964, Note_off_c, 0, 63, 100
1, 15300, Note_on_c, 0, 56, 100
1, 15348, Note_off_c, 0, 56, 100
1, 15348, Note_on_c, 0, 60, 100
1, 15372, Note_off_c, 0, 60, 100
1, 15372, Note_on_c, 0, 63, 100
1, 15420, Note_off_c, 0, 63, 100
1, 15420, Note_on_c, 0, 66, 100
1, 15444, Note_off_c, 0, 66, 100
1, 15444, Note_on_c, 0, 63, 100
1, 15468, Note_off_c, 0, 63, 100
1, 15468, Note_on_c, 0, 68, 100
1, 15516, Note_off_c, 0, 68, 100
1, 15516, Note_on_c, 0, 66, 100
1, 15540, Note_off_c, 0, 66, 100
1, 15540, Note_on_c, 0, 63, 100
1, 15578, Note_off_c, 0, 63, 100
1, 15578, Note_on_c, 0, 62, 100
1, 15616, Note_off_c, 0, 62, 100
1, 15616, Note_on_c, 0, 65, 100
1, 15654, Note_off_c, 0, 65, 100
1, 15654, Note_on_c, 0, 67, 100
1, 15692, Note_off_c, 0, 67, 100
1, 15692, Note_on_c, 0, 70, 100
1, 16076, Note_off_c, 0, 70, 100
1, 16242, Note_on_c, 0, 67, 100
1, 16274, Note_off_c, 0, 67, 100
1, 16274, Note_on_c, 0, 70, 100
1, 16450, Note_off_c, 0, 70, 100
1, 16450, Note_on_c, 0, 67, 100
1, 16474, Note_off_c, 0, 67, 100
1, 16474, Note_on_c, 0, 70, 100
1, 16498, Note_off_c, 0, 70, 100
1, 16498, Note_on_c, 0, 74, 100
1, 16562, Note_off_c, 0, 74, 100
1, 16562, Note_on_c, 0, 74, 100
1, 16626, Note_off_c, 0, 74, 100
1, 16626, Note_on_c, 0, 67, 100
1, 16722, Note_off_c, 0, 67, 100
1, 16722, Note_on_c, 0, 70, 100
1, 16754, Note_off_c, 0, 70, 100
1, 16754, Note_on_c, 0, 72, 100
1, 16786, Note_off_c, 0, 72, 100
1, 16786, Note_on_c, 0, 70, 100
1, 16818, Note_off_c, 0, 70, 100
1, 16818, Note_on_c, 0, 72, 100
1, 16850, Note_off_c, 0, 72, 100
1, 16850, Note_on_c, 0, 73, 100
1, 17074, Note_off_c, 0, 73, 100
1, 17074, Note_on_c, 0, 72, 100
1, 17554, Note_off_c, 0, 72, 100
1, 17554, Note_on_c, 0, 75, 100
1, 17602, Note_off_c, 0, 75, 100
1, 17602, Note_on_c, 0, 72, 100
1, 17674, Note_off_c, 0, 72, 100
1, 17674, Note_on_c, 0, 68, 100
1, 17722, Note_off_c, 0, 68, 100
1, 17722, Note_on_c, 0, 70, 100
1, 17794, Note_off_c, 0, 70, 100
1, 17794, Note_on_c, 0, 67, 100
1, 17818, Note_off_c, 0, 67, 100
1, 17818, Note_on_c, 0, 68, 100
1, 17842, Note_off_c, 0, 68, 100
1, 17842, Note_on_c, 0, 65, 100
1, 18130, Note_off_c, 0, 65, 100
1, 18383, Note_on_c, 0, 67, 100
1, 18400, Note_off_c, 0, 67, 100
1, 18400, Note_on_c, 0, 65, 100
1, 18417, Note_off_c, 0, 65, 100
1, 18417, Note_on_c, 0, 64, 100
1, 18513, Note_off_c, 0, 64, 100
1, 18513, Note_on_c, 0, 67, 100
1, 18545, Note_off_c, 0, 67, 100
1, 18545, Note_on_c, 0, 65, 100
1, 18577, Note_off_c, 0, 65, 100
1, 18577, Note_on_c, 0, 64, 100
1, 18609, Note_off_c, 0, 64, 100
1, 18609, Note_on_c, 0, 65, 100
1, 18737, Note_off_c, 0, 65, 100
1, 18737, Note_on_c, 0, 68, 100
1, 18769, Note_off_c, 0, 68, 100
1, 18769, Note_on_c, 0, 70, 100
1, 18897, Note_off_c, 0, 70, 100
1, 18897, Note_on_c, 0, 69, 100
1, 18945, Note_off_c, 0, 69, 100
1, 18945, Note_on_c, 0, 63, 100
1, 18993, Note_off_c, 0, 63, 100
1, 18993, Note_on_c, 0, 68, 100
1, 19185, Note_off_c, 0, 68, 100
1, 19633, Note_on_c, 0, 70, 100
1, 19697, Note_off_c, 0, 70, 100
1, 19697, Note_on_c, 0, 68, 100
1, 19857, Note_off_c, 0, 68, 100
1, 19857, Note_on_c, 0, 73, 100
1, 19905, Note_off_c, 0, 73, 100
1, 19905, Note_on_c, 0, 70, 100
1, 19985, Note_off_c, 0, 70, 100
1, 19985, Note_on_c, 0, 68, 100
1, 20017, Note_off_c, 0, 68, 100
1, 20017, Note_on_c, 0, 66, 100
1, 20049, Note_off_c, 0, 66, 100
1, 20049, Note_on_c, 0, 63, 100
1, 20081, Note_off_c, 0, 63, 100
1, 20081, Note_on_c, 0, 58, 100
1, 20113, Note_off_c, 0, 58, 100
1, 20113, Note_on_c, 0, 56, 100
1, 20145, Note_off_c, 0, 56, 100
1, 20145, Note_on_c, 0, 55, 100
1, 20433, Note_off_c, 0, 55, 100
1, 20433, Note_on_c, 0, 58, 100
1, 20529, Note_off_c, 0, 58, 100
1, 20529, Note_on_c, 0, 63, 100
1, 20853, Note_off_c, 0, 63, 100
1, 20853, Note_on_c, 0, 67, 100
1, 20867, Note_off_c, 0, 67, 100
1, 20867, Note_on_c, 0, 68, 100
1, 20881, Note_off_c, 0, 68, 100
1, 20881, Note_on_c, 0, 70, 100
1, 20895, Note_off_c, 0, 70, 100
1, 20895, Note_on_c, 0, 74, 100
1, 20909, Note_off_c, 0, 74, 100
1, 20909, Note_on_c, 0, 77, 100
1, 20957, Note_off_c, 0, 77, 100
1, 20957, Note_on_c, 0, 74, 100
1, 21149, Note_off_c, 0, 74, 100
1, 21380, Note_on_c, 0, 71, 100
1, 21397, Note_off_c, 0, 71, 100
1, 21397, Note_on_c, 0, 73, 100
1, 21414, Note_off_c, 0, 73, 100
1, 21414, Note_on_c, 0, 72, 100
1, 21466, Note_off_c, 0, 72, 100
1, 21466, Note_on_c, 0, 72, 100
1, 21675, Note_off_c, 0, 72, 100
1, 21675, Note_on_c, 0, 75, 100
1, 21771, Note_off_c, 0, 75, 100
1, 22097, Note_on_c, 0, 72, 100
1, 22135, Note_off_c, 0, 72, 100
1, 22135, Note_on_c, 0, 68, 100
1, 22173, Note_off_c, 0, 68, 100
1, 22173, Note_on_c, 0, 70, 100
1, 22211, Note_off_c, 0, 70, 100
1, 22211, Note_on_c, 0, 67, 100
1, 22249, Note_off_c, 0, 67, 100
1, 22249, Note_on_c, 0, 68, 100
1, 22441, Note_off_c, 0, 68, 100
1, 22633, Note_on_c, 0, 67, 100
1, 22681, Note_off_c, 0, 67, 100
1, 22681, Note_on_c, 0, 69, 100
1, 22729, Note_off_c, 0, 69, 100
1, 22729, Note_on_c, 0, 70, 100
1, 22863, Note_off_c, 0, 70, 100
1, 22863, Note_on_c, 0, 66, 100
1, 22901, Note_off_c, 0, 66, 100
1, 22901, Note_on_c, 0, 67, 100
1, 22939, Note_off_c, 0, 67, 100
1, 22939, Note_on_c, 0, 68, 100
1, 22977, Note_off_c, 0, 68, 100
1, 22977, Note_on_c, 0, 67, 100
1, 23044, Note_off_c, 0, 67, 100
1, 23044, Note_on_c, 0, 63, 100
1, 23058, Note_off_c, 0, 63, 100
1, 23058, Note_on_c, 0, 58, 100
1, 23072, Note_off_c, 0, 58, 100
1, 23072, Note_on_c, 0, 56, 100
1, 23160, Note_off_c, 0, 56, 100
1, 23160, Note_on_c, 0, 58, 100
1, 23174, Note_off_c, 0, 58, 100
1, 23174, Note_on_c, 0, 56, 100
1, 23188, Note_off_c, 0, 56, 100
1, 23188, Note_on_c, 0, 54, 100
1, 23202, Note_off_c, 0, 54, 100
1, 23202, Note_on_c, 0, 55, 100
1, 23308, Note_off_c, 0, 55, 100
1, 23308, Note_on_c, 0, 55, 100
1, 23329, Note_off_c, 0, 55, 100
1, 23329, Note_on_c, 0, 57, 100
1, 23350, Note_off_c, 0, 57, 100
1, 23350, Note_on_c, 0, 63, 100
1, 23371, Note_off_c, 0, 63, 100
1, 23371, Note_on_c, 0, 58, 100
1, 23392, Note_off_c, 0, 58, 100
1, 23392, Note_on_c, 0, 61, 100
1, 23440, Note_off_c, 0, 61, 100
1, 23440, Note_on_c, 0, 63, 100
1, 23728, Note_off_c, 0, 63, 100
1, 23728, Note_on_c, 0, 58, 100
1, 23776, Note_off_c, 0, 58, 100
1, 23776, Note_on_c, 0, 56, 100
1, 23824, Note_off_c, 0, 56, 100
1, 23824, Note_on_c, 0, 63, 100
1, 24112, Note_off_c, 0, 63, 100
1, 24112, Note_on_c, 0, 55, 100
1, 24224, Note_off_c, 0, 55, 100
1, 24224, Note_on_c, 0, 55, 100
1, 24245, Note_off_c, 0, 55, 100
1, 24245, Note_on_c, 0, 56, 100
1, 24266, Note_off_c, 0, 56, 100
1, 24266, Note_on_c, 0, 58, 100
1, 24287, Note_off_c, 0, 58, 100
1, 24287, Note_on_c, 0, 54, 100
1, 24308, Note_off_c, 0, 54, 100
1, 24308, Note_on_c, 0, 55, 100
1, 24329, Note_off_c, 0, 55, 100
1, 24329, Note_on_c, 0, 57, 100
1, 24350, Note_off_c, 0, 57, 100
1, 24350, Note_on_c, 0, 61, 100
1, 24371, Note_off_c, 0, 61, 100
1, 24371, Note_on_c, 0, 65, 100
1, 24392, Note_off_c, 0, 65, 100
1, 24392, Note_on_c, 0, 64, 100
1, 24413, Note_off_c, 0, 64, 100
1, 24413, Note_on_c, 0, 62, 100
1, 24434, Note_off_c, 0, 62, 100
1, 24434, Note_on_c, 0, 63, 100
1, 24476, Note_off_c, 0, 63, 100
1, 24476, Note_on_c, 0, 61, 100
1, 24497, Note_off_c, 0, 61, 100
1, 24497, Note_on_c, 0, 63, 100
1, 24518, Note_off_c, 0, 63, 100
1, 24518, Note_on_c, 0, 62, 100
1, 24539, Note_off_c, 0, 62, 100
1, 24539, Note_on_c, 0, 61, 100
1, 24556, Note_off_c, 0, 61, 100
1, 24556, Note_on_c, 0, 62, 100
1, 24573, Note_off_c, 0, 62, 100
1, 24573, Note_on_c, 0, 65, 100
1, 24590, Note_off_c, 0, 65, 100
1, 24590, Note_on_c, 0, 68, 100
1, 24607, Note_off_c, 0, 68, 100
1, 24607, Note_on_c, 0, 72, 100
1, 24624, Note_off_c, 0, 72, 100
1, 24624, Note_on_c, 0, 70, 100
1, 24641, Note_off_c, 0, 70, 100
1, 24641, Note_on_c, 0, 71, 100
1, 24675, Note_off_c, 0, 71, 100
1, 24675, Note_on_c, 0, 67, 100
1, 24692, Note_off_c, 0, 67, 100
1, 24692, Note_on_c, 0, 63, 100
1, 24709, Note_off_c, 0, 63, 100
1, 24709, Note_on_c, 0, 62, 100
1, 24726, Note_off_c, 0, 62, 100
1, 24726, Note_on_c, 0, 61, 100
1, 24758, Note_off_c, 0, 61, 100
1, 24758, Note_on_c, 0, 65, 100
1, 24790, Note_off_c, 0, 65, 100
1, 24790, Note_on_c, 0, 64, 100
1, 24822, Note_off_c, 0, 64, 100
1, 24822, Note_on_c, 0, 60, 100
1, 24854, Note_off_c, 0, 60, 100
1, 24854, Note_on_c, 0, 63, 100
1, 25046, Note_off_c, 0, 63, 100
1, 25254, Note_on_c, 0, 63, 100
1, 25302, Note_off_c, 0, 63, 100
1, 25302, Note_on_c, 0, 65, 100
1, 25446, Note_off_c, 0, 65, 100
1, 25446, Note_on_c, 0, 66, 100
1, 25494, Note_off_c, 0, 66, 100
1, 25494, Note_on_c, 0, 65, 100
1, 25542, Note_off_c, 0, 65, 100
1, 25542, Note_on_c, 0, 63, 100
1, 25686, Note_off_c, 0, 63, 100
1, 25686, Note_on_c, 0, 63, 100
1, 25724, Note_off_c, 0, 63, 100
1, 25724, Note_on_c, 0, 68, 100
1, 25762, Note_off_c, 0, 68, 100
1, 25762, Note_on_c, 0, 70, 100
1, 25800, Note_off_c, 0, 70, 100
1, 25800, Note_on_c, 0, 71, 100
1, 25838, Note_off_c, 0, 71, 100
1, 25838, Note_on_c, 0, 72, 100
1, 25972, Note_off_c, 0, 72, 100
1, 25972, Note_on_c, 0, 68, 100
1, 26020, Note_off_c, 0, 68, 100
1, 26020, Note_on_c, 0, 63, 100
1, 26068, Note_off_c, 0, 63, 100
1, 26068, Note_on_c, 0, 70, 100
1, 26164, Note_off_c, 0, 70, 100
1, 26164, Note_on_c, 0, 68, 100
1, 26212, Note_off_c, 0, 68, 100
1, 26212, Note_on_c, 0, 68, 100
1, 26380, Note_off_c, 0, 68, 100
1, 26380, Note_on_c, 0, 71, 100
1, 26404, Note_off_c, 0, 71, 100
1, 26404, Note_on_c, 0, 70, 100
1, 26428, Note_off_c, 0, 70, 100
1, 26428, Note_on_c, 0, 68, 100
1, 26524, Note_off_c, 0, 68, 100
1, 26740, Note_on_c, 0, 71, 100
1, 26772, Note_off_c, 0, 71, 100
1, 26772, Note_on_c, 0, 70, 100
1, 26804, Note_off_c, 0, 70, 100
1, 26804, Note_on_c, 0, 68, 100
1, 26836, Note_off_c, 0, 68, 100
1, 26836, Note_on_c, 0, 75, 100
1, 27124, Note_off_c, 0, 75, 100
1, 27316, Note_on_c, 0, 73, 100
1, 27412, Note_off_c, 0, 73, 100
1, 27412, Note_on_c, 0, 71, 100
1, 27436, Note_off_c, 0, 71, 100
1, 27436, Note_on_c, 0, 73, 100
1, 27556, Note_off_c, 0, 73, 100
1, 27556, Note_on_c, 0, 70, 100
1, 27580, Note_off_c, 0, 70, 100
1, 27580, Note_on_c, 0, 72, 100
1, 27604, Note_off_c, 0, 72, 100
1, 27604, Note_on_c, 0, 70, 100
1, 27618, Note_off_c, 0, 70, 100
1, 27618, Note_on_c, 0, 68, 100
1, 27677, Note_off_c, 0, 68, 100
1, 27677, Note_on_c, 0, 70, 100
1, 27780, Note_off_c, 0, 70, 100
1, 27780, Note_on_c, 0, 68, 100
1, 27794, Note_off_c, 0, 68, 100
1, 27794, Note_on_c, 0, 70, 100
1, 27842, Note_off_c, 0, 70, 100
1, 27842, Note_on_c, 0, 66, 100
1, 27890, Note_off_c, 0, 66, 100
1, 27890, Note_on_c, 0, 67, 100
1, 28178, Note_off_c, 0, 67, 100
1, 28370, Note_on_c, 0, 58, 100
1, 28397, Note_off_c, 0, 58, 100
1, 28397, Note_on_c, 0, 60, 100
1, 28424, Note_off_c, 0, 60, 100
1, 28424, Note_on_c, 0, 63, 100
1, 28478, Note_off_c, 0, 63, 100
1, 28478, Note_on_c, 0, 65, 100
1, 28505, Note_off_c, 0, 65, 100
1, 28505, Note_on_c, 0, 67, 100
1, 28559, Note_off_c, 0, 67, 100
1, 28559, Note_on_c, 0, 70, 100
1, 28607, Note_off_c, 0, 70, 100
1, 28607, Note_on_c, 0, 74, 100
1, 28655, Note_off_c, 0, 74, 100
1, 28655, Note_on_c, 0, 70, 100
1, 28703, Note_off_c, 0, 70, 100
1, 28703, Note_on_c, 0, 74, 100
1, 28799, Note_off_c, 0, 74, 100
1, 29063, Note_on_c, 0, 65, 100
1, 29087, Note_off_c, 0, 65, 100
1, 29087, Note_on_c, 0, 67, 100
1, 29111, Note_off_c, 0, 67, 100
1, 29111, Note_on_c, 0, 70, 100
1, 29135, Note_off_c, 0, 70, 100
1, 29135, Note_on_c, 0, 72, 100
1, 29183, Note_off_c, 0, 72, 100
1, 29183, Note_on_c, 0, 70, 100
1, 29231, Note_off_c, 0, 70, 100
1, 29231, Note_on_c, 0, 72, 100
1, 29279, Note_off_c, 0, 72, 100
1, 29279, Note_on_c, 0, 73, 100
1, 29327, Note_off_c, 0, 73, 100
1, 29327, Note_on_c, 0, 72, 100
1, 29391, Note_off_c, 0, 72, 100
1, 29391, Note_on_c, 0, 65, 100
1, 29455, Note_off_c, 0, 65, 100
1, 29455, Note_on_c, 0, 65, 100
1, 29551, Note_off_c, 0, 65, 100
1, 29855, Note_on_c, 0, 60, 100
1, 29903, Note_off_c, 0, 60, 100
1, 29903, Note_on_c, 0, 64, 100
1, 29999, Note_off_c, 0, 64, 100
1, 29999, Note_on_c, 0, 72, 100
1, 30239, Note_off_c, 0, 72, 100
1, 30239, Note_on_c, 0, 60, 100
1, 30287, Note_off_c, 0, 60, 100
1, 30287, Note_on_c, 0, 67, 100
1, 30314, Note_off_c, 0, 67, 100
1, 30314, Note_on_c, 0, 68, 100
1, 30341, Note_off_c, 0, 68, 100
1, 30341, Note_on_c, 0, 67, 100
1, 30368, Note_off_c, 0, 67, 100
1, 30368, Note_on_c, 0, 65, 100
1, 30395, Note_off_c, 0, 65, 100
1, 30395, Note_on_c, 0, 67, 100
1, 30491, Note_off_c, 0, 67, 100
1, 30765, Note_on_c, 0, 60, 100
1, 30813, Note_off_c, 0, 60, 100
1, 30813, Note_on_c, 0, 62, 100
1, 30976, Note_off_c, 0, 62, 100
1, 30976, Note_on_c, 0, 58, 100
1, 31014, Note_off_c, 0, 58, 100
1, 31014, Note_on_c, 0, 62, 100
1, 31052, Note_off_c, 0, 62, 100
1, 31052, Note_on_c, 0, 61, 100
1, 31100, Note_off_c, 0, 61, 100
1, 31100, Note_on_c, 0, 62, 100
1, 31148, Note_off_c, 0, 62, 100
1, 31148, Note_on_c, 0, 65, 100
1, 31244, Note_off_c, 0, 65, 100
1, 31388, Note_on_c, 0, 58, 100
1, 31460, Note_off_c, 0, 58, 100
1, 31460, Note_on_c, 0, 60, 100
1, 31508, Note_off_c, 0, 60, 100
1, 31508, Note_on_c, 0, 63, 100
1, 31556, Note_off_c, 0, 63, 100
1, 31556, Note_on_c, 0, 67, 100
1, 31604, Note_off_c, 0, 67, 100
1, 31604, Note_on_c, 0, 70, 100
1, 31692, Note_off_c, 0, 70, 100
1, 31692, Note_on_c, 0, 68, 100
1, 31756, Note_off_c, 0, 68, 100
1, 31756, Note_on_c, 0, 60, 100
1, 31820, Note_off_c, 0, 60, 100
1, 31820, Note_on_c, 0, 60, 100
1, 31940, Note_off_c, 0, 60, 100
1, 31940, Note_on_c, 0, 67, 100
1, 31964, Note_off_c, 0, 67, 100
1, 31964, Note_on_c, 0, 68, 100
1, 31988, Note_off_c, 0, 68, 100
1, 31988, Note_on_c, 0, 67, 100
1, 32036, Note_off_c, 0, 67, 100
1, 32036, Note_on_c, 0, 66, 100
1, 32156, Note_off_c, 0, 66, 100
1, 32156, Note_on_c, 0, 62, 100
1, 32180, Note_off_c, 0, 62, 100
1, 32180, Note_on_c, 0, 58, 100
1, 32204, Note_off_c, 0, 58, 100
1, 32204, Note_on_c, 0, 56, 100
1, 32268, Note_off_c, 0, 56, 100
1, 32268, Note_on_c, 0, 58, 100
1, 32364, Note_off_c, 0, 58, 100
1, 32694, Note_on_c, 0, 58, 100
1, 32715, Note_off_c, 0, 58, 100
1, 32715, Note_on_c, 0, 60, 100
1, 32736, Note_off_c, 0, 60, 100
1, 32736, Note_on_c, 0, 62, 100
1, 32757, Note_off_c, 0, 62, 100
1, 32757, Note_on_c, 0, 65, 100
1, 32778, Note_off_c, 0, 65, 100
1, 32778, Note_on_c, 0, 62, 100
1, 32791, Note_off_c, 0, 62, 100
1, 32791, Note_on_c, 0, 63, 100
1, 32804, Note_off_c, 0, 63, 100
1, 32804, Note_on_c, 0, 62, 100
1, 32817, Note_off_c, 0, 62, 100
1, 32817, Note_on_c, 0, 67, 100
1, 32844, Note_off_c, 0, 67, 100
1, 32844, Note_on_c, 0, 68, 100
1, 32857, Note_off_c, 0, 68, 100
1, 32857, Note_on_c, 0, 70, 100
1, 32884, Note_off_c, 0, 70, 100
1, 32884, Note_on_c, 0, 66, 100
1, 32911, Note_off_c, 0, 66, 100
1, 32911, Note_on_c, 0, 67, 100
1, 32924, Note_off_c, 0, 67, 100
1, 32924, Note_on_c, 0, 68, 100
1, 32937, Note_off_c, 0, 68, 100
1, 32937, Note_on_c, 0, 70, 100
1, 32964, Note_off_c, 0, 70, 100
1, 32964, Note_on_c, 0, 74, 100
1, 32988, Note_off_c, 0, 74, 100
1, 32988, Note_on_c, 0, 72, 100
1, 33012, Note_off_c, 0, 72, 100
1, 33012, Note_on_c, 0, 74, 100
1, 33036, Note_off_c, 0, 74, 100
1, 33036, Note_on_c, 0, 72, 100
1, 33060, Note_off_c, 0, 72, 100
1, 33060, Note_on_c, 0, 70, 100
1, 33084, Note_off_c, 0, 70, 100
1, 33084, Note_on_c, 0, 67, 100
1, 33108, Note_off_c, 0, 67, 100
1, 33108, Note_on_c, 0, 62, 100
1, 33132, Note_off_c, 0, 62, 100
1, 33132, Note_on_c, 0, 58, 100
1, 33156, Note_off_c, 0, 58, 100
1, 33156, Note_on_c, 0, 65, 100
1, 33204, Note_off_c, 0, 65, 100
1, 33204, Note_on_c, 0, 70, 100
1, 33252, Note_off_c, 0, 70, 100
1, 33252, Note_on_c, 0, 65, 100
1, 33348, Note_off_c, 0, 65, 100
1, 33644, Note_on_c, 0, 67, 100
1, 33661, Note_off_c, 0, 67, 100
1, 33661, Note_on_c, 0, 68, 100
1, 33678, Note_off_c, 0, 68, 100
1, 33678, Note_on_c, 0, 65, 100
1, 33695, Note_off_c, 0, 65, 100
1, 33695, Note_on_c, 0, 63, 100
1, 33712, Note_off_c, 0, 63, 100
1, 33712, Note_on_c, 0, 64, 100
1, 33729, Note_off_c, 0, 64, 100
1, 33729, Note_on_c, 0, 67, 100
1, 33746, Note_off_c, 0, 67, 100
1, 33746, Note_on_c, 0, 70, 100
1, 33763, Note_off_c, 0, 70, 100
1, 33763, Note_on_c, 0, 73, 100
1, 33780, Note_off_c, 0, 73, 100
1, 33780, Note_on_c, 0, 72, 100
1, 33797, Note_off_c, 0, 72, 100
1, 33797, Note_on_c, 0, 71, 100
1, 33814, Note_off_c, 0, 71, 100
1, 33814, Note_on_c, 0, 72, 100
1, 33831, Note_off_c, 0, 72, 100
1, 33831, Note_on_c, 0, 74, 100
1, 33848, Note_off_c, 0, 74, 100
1, 33848, Note_on_c, 0, 79, 100
1, 33865, Note_off_c, 0, 79, 100
1, 33865, Note_on_c, 0, 76, 100
1, 33882, Note_off_c, 0, 76, 100
1, 33882, Note_on_c, 0, 77, 100
1, 33978, Note_off_c, 0, 77, 100
1, 34172, Note_on_c, 0, 84, 100
1, 34396, Note_off_c, 0, 84, 100
1, 34396, Note_on_c, 0, 79, 100
1, 34492, Note_off_c, 0, 79, 100
1, 34492, Note_on_c, 0, 77, 100
1, 34540, Note_off_c, 0, 77, 100
1, 34540, Note_on_c, 0, 77, 100
1, 34636, Note_off_c, 0, 77, 100
1, 34636, Note_on_c, 0, 75, 100
1, 34812, Note_off_c, 0, 75, 100
1, 34812, Note_on_c, 0, 74, 100
1, 34833, Note_off_c, 0, 74, 100
1, 34833, Note_on_c, 0, 76, 100
1, 34854, Note_off_c, 0, 76, 100
1, 34854, Note_on_c, 0, 74, 100
1, 34875, Note_off_c, 0, 74, 100
1, 34875, Note_on_c, 0, 72, 100
1, 34923, Note_off_c, 0, 72, 100
1, 34923, Note_on_c, 0, 74, 100
1, 35019, Note_off_c, 0, 74, 100
1, 35019, Note_on_c, 0, 79, 100
1, 35067, Note_off_c, 0, 79, 100
1, 35067, Note_on_c, 0, 73, 100
1, 35088, Note_off_c, 0, 73, 100
1, 35088, Note_on_c, 0, 74, 100
1, 35237, Note_off_c, 0, 74, 100
1, 35237, Note_on_c, 0, 72, 100
1, 35258, Note_off_c, 0, 72, 100
1, 35258, Note_on_c, 0, 74, 100
1, 35322, Note_off_c, 0, 74, 100
1, 35322, Note_on_c, 0, 72, 100
1, 35386, Note_off_c, 0, 72, 100
1, 35386, Note_on_c, 0, 75, 100
1, 35526, Note_off_c, 0, 75, 100
1, 35526, Note_on_c, 0, 72, 100
1, 35564, Note_off_c, 0, 72, 100
1, 35564, Note_on_c, 0, 68, 100
1, 35602, Note_off_c, 0, 68, 100
1, 35602, Note_on_c, 0, 65, 100
1, 35698, Note_off_c, 0, 65, 100
1, 35896, Note_on_c, 0, 73, 100
1, 36120, Note_off_c, 0, 73, 100
1, 36120, Note_on_c, 0, 74, 100
1, 36216, Note_off_c, 0, 74, 100
1, 36216, Note_on_c, 0, 72, 100
1, 36504, Note_off_c, 0, 72, 100
1, 36504, Note_on_c, 0, 68, 100
1, 36552, Note_off_c, 0, 68, 100
1, 36552, Note_on_c, 0, 67, 100
1, 36654, Note_off_c, 0, 67, 100
1, 36654, Note_on_c, 0, 70, 100
1, 36681, Note_off_c, 0, 70, 100
1, 36681, Note_on_c, 0, 72, 100
1, 36708, Note_off_c, 0, 72, 100
1, 36708, Note_on_c, 0, 70, 100
1, 36735, Note_off_c, 0, 70, 100
1, 36735, Note_on_c, 0, 68, 100
1, 36762, Note_off_c, 0, 68, 100
1, 36762, Note_on_c, 0, 70, 100
1, 36789, Note_off_c, 0, 70, 100
1, 36789, Note_on_c, 0, 66, 100
1, 36813, Note_off_c, 0, 66, 100
1, 36813, Note_on_c, 0, 62, 100
1, 36837, Note_off_c, 0, 62, 100
1, 36837, Note_on_c, 0, 58, 100
1, 36861, Note_off_c, 0, 58, 100
1, 36861, Note_on_c, 0, 56, 100
1, 36885, Note_off_c, 0, 56, 100
1, 36885, Note_on_c, 0, 60, 100
1, 36933, Note_off_c, 0, 60, 100
1, 36933, Note_on_c, 0, 55, 100
1, 36957, Note_off_c, 0, 55, 100
1, 36957, Note_on_c, 0, 58, 100
1, 36981, Note_off_c, 0, 58, 100
1, 36981, Note_on_c, 0, 56, 100
1, 37077, Note_off_c, 0, 56, 100
1, 37249, Note_on_c, 0, 60, 100
1, 37287, Note_off_c, 0, 60, 100
1, 37287, Note_on_c, 0, 63, 100
1, 37325, Note_off_c, 0, 63, 100
1, 37325, Note_on_c, 0, 68, 100
1, 37466, Note_off_c, 0, 68, 100
1, 37466, Note_on_c, 0, 72, 100
1, 37480, Note_off_c, 0, 72, 100
1, 37480, Note_on_c, 0, 73, 100
1, 37494, Note_off_c, 0, 73, 100
1, 37494, Note_on_c, 0, 72, 100
1, 37508, Note_off_c, 0, 72, 100
1, 37508, Note_on_c, 0, 68, 100
1, 37537, Note_off_c, 0, 68, 100
1, 37537, Note_on_c, 0, 70, 100
1, 37551, Note_off_c, 0, 70, 100
1, 37551, Note_on_c, 0, 72, 100
1, 37599, Note_off_c, 0, 72, 100
1, 37599, Note_on_c, 0, 68, 100
1, 37647, Note_off_c, 0, 68, 100
1, 37647, Note_on_c, 0, 63, 100
1, 37743, Note_off_c, 0, 63, 100
1, 38165, Note_on_c, 0, 63, 100
1, 38203, Note_off_c, 0, 63, 100
1, 38203, Note_on_c, 0, 68, 100
1, 38241, Note_off_c, 0, 68, 100
1, 38241, Note_on_c, 0, 70, 100
1, 38279, Note_off_c, 0, 70, 100
1, 38279, Note_on_c, 0, 70, 100
1, 38317, Note_off_c, 0, 70, 100
1, 38317, Note_on_c, 0, 68, 100
1, 38365, Note_off_c, 0, 68, 100
1, 38365, Note_on_c, 0, 70, 100
1, 38413, Note_off_c, 0, 70, 100
1, 38413, Note_on_c, 0, 72, 100
1, 38461, Note_off_c, 0, 72, 100
1, 38461, Note_on_c, 0, 75, 100
1, 38749, Note_off_c, 0, 75, 100
1, 38749, Note_on_c, 0, 63, 100
1, 38797, Note_off_c, 0, 63, 100
1, 38797, Note_on_c, 0, 68, 100
1, 38931, Note_off_c, 0, 68, 100
1, 38931, Note_on_c, 0, 63, 100
1, 38969, Note_off_c, 0, 63, 100
1, 38969, Note_on_c, 0, 68, 100
1, 39007, Note_off_c, 0, 68, 100
1, 39007, Note_on_c, 0, 70, 100
1, 39045, Note_off_c, 0, 70, 100
1, 39045, Note_on_c, 0, 70, 100
1, 39100, Note_off_c, 0, 70, 100
1, 39100, Note_on_c, 0, 72, 100
1, 39117, Note_off_c, 0, 72, 100
1, 39117, Note_on_c, 0, 70, 100
1, 39134, Note_off_c, 0, 70, 100
1, 39134, Note_on_c, 0, 68, 100
1, 39168, Note_off_c, 0, 68, 100
1, 39168, Note_on_c, 0, 70, 100
1, 39237, Note_off_c, 0, 70, 100
1, 39237, Note_on_c, 0, 72, 100
1, 39254, Note_off_c, 0, 72, 100
1, 39254, Note_on_c, 0, 70, 100
1, 39271, Note_off_c, 0, 70, 100
1, 39271, Note_on_c, 0, 68, 100
1, 39463, Note_off_c, 0, 68, 100
1, 39463, Note_on_c, 0, 68, 100
1, 39511, Note_off_c, 0, 68, 100
1, 39511, Note_on_c, 0, 71, 100
1, 39559, Note_off_c, 0, 71, 100
1, 39559, Note_on_c, 0, 75, 100
1, 39703, Note_off_c, 0, 75, 100
1, 39703, Note_on_c, 0, 73, 100
1, 39727, Note_off_c, 0, 73, 100
1, 39727, Note_on_c, 0, 72, 100
1, 39751, Note_off_c, 0, 72, 100
1, 39751, Note_on_c, 0, 71, 100
1, 39775, Note_off_c, 0, 71, 100
1, 39775, Note_on_c, 0, 70, 100
1, 39871, Note_off_c, 0, 70, 100
1, 40327, Note_on_c, 0, 67, 100
1, 40359, Note_off_c, 0, 67, 100
1, 40359, Note_on_c, 0, 70, 100
1, 40391, Note_off_c, 0, 70, 100
1, 40391, Note_on_c, 0, 72, 100
1, 40423, Note_off_c, 0, 72, 100
1, 40423, Note_on_c, 0, 67, 100
1, 40471, Note_off_c, 0, 67, 100
1, 40471, Note_on_c, 0, 70, 100
1, 40615, Note_off_c, 0, 70, 100
1, 40615, Note_on_c, 0, 67, 100
1, 40679, Note_off_c, 0, 67, 100
1, 40679, Note_on_c, 0, 65, 100
1, 40743, Note_off_c, 0, 65, 100
1, 40743, Note_on_c, 0, 70, 100
1, 41047, Note_off_c, 0, 70, 100
1, 41047, Note_on_c, 0, 62, 100
1, 41095, Note_off_c, 0, 62, 100
1, 41095, Note_on_c, 0, 63, 100
1, 41255, Note_off_c, 0, 63, 100
1, 41255, Note_on_c, 0, 62, 100
1, 41287, Note_off_c, 0, 62, 100
1, 41287, Note_on_c, 0, 64, 100
1, 41319, Note_off_c, 0, 64, 100
1, 41319, Note_on_c, 0, 65, 100
1, 41351, Note_off_c, 0, 65, 100
1, 41351, Note_on_c, 0, 63, 100
1, 41383, Note_off_c, 0, 63, 100
1, 41383, Note_on_c, 0, 64, 100
1, 41479, Note_off_c, 0, 64, 100
1, 41805, Note_on_c, 0, 65, 100
1, 41843, Note_off_c, 0, 65, 100
1, 41843, Note_on_c, 0, 68, 100
1, 41881, Note_off_c, 0, 68, 100
1, 41881, Note_on_c, 0, 71, 100
1, 41919, Note_off_c, 0, 71, 100
1, 41919, Note_on_c, 0, 72, 100
1, 41957, Note_off_c, 0, 72, 100
1, 41957, Note_on_c, 0, 70, 100
1, 42197, Note_off_c, 0, 70, 100
1, 42197, Note_on_c, 0, 67, 100
1, 42245, Note_off_c, 0, 67, 100
1, 42245, Note_on_c, 0, 64, 100
1, 42293, Note_off_c, 0, 64, 100
1, 42293, Note_on_c, 0, 61, 100
1, 42389, Note_off_c, 0, 61, 100
1, 42629, Note_on_c, 0, 60, 100
1, 42677, Note_off_c, 0, 60, 100
1, 42677, Note_on_c, 0, 62, 100
1, 42759, Note_off_c, 0, 62, 100
1, 42759, Note_on_c, 0, 67, 100
1, 42776, Note_off_c, 0, 67, 100
1, 42776, Note_on_c, 0, 68, 100
1, 42793, Note_off_c, 0, 68, 100
1, 42793, Note_on_c, 0, 67, 100
1, 42810, Note_off_c, 0, 67, 100
1, 42810, Note_on_c, 0, 65, 100
1, 42862, Note_off_c, 0, 65, 100
1, 42862, Note_on_c, 0, 64, 100
1, 42896, Note_off_c, 0, 64, 100
1, 42896, Note_on_c, 0, 67, 100
1, 42961, Note_off_c, 0, 67, 100
1, 42961, Note_on_c, 0, 64, 100
1, 43009, Note_off_c, 0, 64, 100
1, 43009, Note_on_c, 0, 65, 100
1, 43057, Note_off_c, 0, 65, 100
1, 43057, Note_on_c, 0, 67, 100
1, 43105, Note_off_c, 0, 67, 100
1, 43105, Note_on_c, 0, 65, 100
1, 43153, Note_off_c, 0, 65, 100
1, 43153, Note_on_c, 0, 68, 100
1, 43201, Note_off_c, 0, 68, 100
1, 43201, Note_on_c, 0, 70, 100
1, 43441, Note_off_c, 0, 70, 100
1, 43441, Note_on_c, 0, 69, 100
1, 43537, Note_off_c, 0, 69, 100
1, 43969, Note_on_c, 0, 68, 100
1, 44001, Note_off_c, 0, 68, 100
1, 44001, Note_on_c, 0, 67, 100
1, 44033, Note_off_c, 0, 67, 100
1, 44033, Note_on_c, 0, 65, 100
1, 44161, Note_off_c, 0, 65, 100
1, 44161, Note_on_c, 0, 66, 100
1, 44193, Note_off_c, 0, 66, 100
1, 44193, Note_on_c, 0, 65, 100
1, 44225, Note_off_c, 0, 65, 100
1, 44225, Note_on_c, 0, 63, 100
1, 44281, Note_off_c, 0, 63, 100
1, 44281, Note_on_c, 0, 61, 100
1, 44305, Note_off_c, 0, 61, 100
1, 44305, Note_on_c, 0, 63, 100
1, 44317, Note_off_c, 0, 63, 100
1, 44317, Note_on_c, 0, 61, 100
1, 44329, Note_off_c, 0, 61, 100
1, 44329, Note_on_c, 0, 60, 100
1, 44341, Note_off_c, 0, 60, 100
1, 44341, Note_on_c, 0, 58, 100
1, 44365, Note_off_c, 0, 58, 100
1, 44365, Note_on_c, 0, 57, 100
1, 44389, Note_off_c, 0, 57, 100
1, 44389, Note_on_c, 0, 56, 100
1, 44413, Note_off_c, 0, 56, 100
1, 44413, Note_on_c, 0, 60, 100
1, 44437, Note_off_c, 0, 60, 100
1, 44437, Note_on_c, 0, 55, 100
1, 44449, Note_off_c, 0, 55, 100
1, 44449, Note_on_c, 0, 53, 100
1, 44476, Note_off_c, 0, 53, 100
1, 44476, Note_on_c, 0, 58, 100
1, 44503, Note_off_c, 0, 58, 100
1, 44503, Note_on_c, 0, 55, 100
1, 44530, Note_off_c, 0, 55, 100
1, 44530, Note_on_c, 0, 56, 100
1, 44557, Note_off_c, 0, 56, 100
1, 44557, Note_on_c, 0, 58, 100
1, 44584, Note_off_c, 0, 58, 100
1, 44584, Note_on_c, 0, 61, 100
1, 44611, Note_off_c, 0, 61, 100
1, 44611, Note_on_c, 0, 59, 100
1, 44638, Note_off_c, 0, 59, 100
1, 44638, Note_on_c, 0, 58, 100
1, 44662, Note_off_c, 0, 58, 100
1, 44662, Note_on_c, 0, 56, 100
1, 44686, Note_off_c, 0, 56, 100
1, 44686, Note_on_c, 0, 55, 100
1, 44710, Note_off_c, 0, 55, 100
1, 44710, Note_on_c, 0, 60, 100
1, 44734, Note_off_c, 0, 60, 100
1, 44734, Note_on_c, 0, 53, 100
1, 44782, Note_off_c, 0, 53, 100
1, 44782, Note_on_c, 0, 60, 100
1, 44806, Note_off_c, 0, 60, 100
1, 44806, Note_on_c, 0, 51, 100
1, 44902, Note_off_c, 0, 51, 100
1, 45190, Note_on_c, 0, 58, 100
1, 45230, Note_off_c, 0, 58, 100
1, 45230, Note_on_c, 0, 56, 100
1, 45246, Note_off_c, 0, 56, 100
1, 45246, Note_on_c, 0, 60, 100
1, 45262, Note_off_c, 0, 60, 100
1, 45262, Note_on_c, 0, 63, 100
1, 45278, Note_off_c, 0, 63, 100
1, 45278, Note_on_c, 0, 65, 100
1, 45326, Note_off_c, 0, 65, 100
1, 45326, Note_on_c, 0, 63, 100
1, 45342, Note_off_c, 0, 63, 100
1, 45342, Note_on_c, 0, 67, 100
1, 45358, Note_off_c, 0, 67, 100
1, 45358, Note_on_c, 0, 70, 100
1, 45374, Note_off_c, 0, 70, 100
1, 45374, Note_on_c, 0, 74, 100
1, 45390, Note_off_c, 0, 74, 100
1, 45390, Note_on_c, 0, 70, 100
1, 45550, Note_off_c, 0, 70, 100
1, 45550, Note_on_c, 0, 70, 100
1, 45598, Note_off_c, 0, 70, 100
1, 45598, Note_on_c, 0, 74, 100
1, 45646, Note_off_c, 0, 74, 100
1, 45646, Note_on_c, 0, 77, 100
1, 45982, Note_off_c, 0, 77, 100
1, 45982, Note_on_c, 0, 79, 100
1, 46030, Note_off_c, 0, 79, 100
1, 46030, Note_on_c, 0, 80, 100
1, 46174, Note_off_c, 0, 80, 100
1, 46174, Note_on_c, 0, 79, 100
1, 46238, Note_off_c, 0, 79, 100
1, 46238, Note_on_c, 0, 75, 100
1, 46302, Note_off_c, 0, 75, 100
1, 46302, Note_on_c, 0, 75, 100
1, 46398, Note_off_c, 0, 75, 100
1, 46750, Note_on_c, 0, 84, 100
1, 46846, Note_off_c, 0, 84, 100
1, 47086, Note_on_c, 0, 82, 100
1, 47326, Note_off_c, 0, 82, 100
1, 47326, Note_on_c, 0, 80, 100
1, 47374, Note_off_c, 0, 80, 100
1, 47374, Note_on_c, 0, 77, 100
1, 47422, Note_off_c, 0, 77, 100
1, 47422, Note_on_c, 0, 78, 100
1, 47518, Note_off_c, 0, 78, 100
1, 47518, Note_on_c, 0, 75, 100
1, 47566, Note_off_c, 0, 75, 100
1, 47566, Note_on_c, 0, 72, 100
1, 47614, Note_off_c, 0, 72, 100
1, 47614, Note_on_c, 0, 73, 100
1, 47842, Note_off_c, 0, 73, 100
1, 47842, Note_on_c, 0, 70, 100
1, 47856, Note_off_c, 0, 70, 100
1, 47856, Note_on_c, 0, 72, 100
1, 47870, Note_off_c, 0, 72, 100
1, 47870, Note_on_c, 0, 70, 100
1, 47884, Note_off_c, 0, 70, 100
1, 47884, Note_on_c, 0, 68, 100
1, 47920, Note_off_c, 0, 68, 100
1, 47920, Note_on_c, 0, 66, 100
1, 47941, Note_off_c, 0, 66, 100
1, 47941, Note_on_c, 0, 67, 100
1, 48004, Note_off_c, 0, 67, 100
1, 48004, Note_on_c, 0, 62, 100
1, 48025, Note_off_c, 0, 62, 100
1, 48025, Note_on_c, 0, 58, 100
1, 48046, Note_off_c, 0, 58, 100
1, 48046, Note_on_c, 0, 56, 100
1, 48067, Note_off_c, 0, 56, 100
1, 48067, Note_on_c, 0, 58, 100
1, 48088, Note_off_c, 0, 58, 100
1, 48088, Note_on_c, 0, 54, 100
1, 48136, Note_off_c, 0, 54, 100
1, 48136, Note_on_c, 0, 55, 100
1, 48184, Note_off_c, 0, 55, 100
1, 48184, Note_on_c, 0, 63, 100
1, 48280, Note_off_c, 0, 63, 100
1, 48568, Note_on_c, 0, 58, 100
1, 48616, Note_off_c, 0, 58, 100
1, 48616, Note_on_c, 0, 63, 100
1, 48696, Note_off_c, 0, 63, 100
1, 48696, Note_on_c, 0, 61, 100
1, 48728, Note_off_c, 0, 61, 100
1, 48728, Note_on_c, 0, 63, 100
1, 48792, Note_off_c, 0, 63, 100
1, 48792, Note_on_c, 0, 58, 100
1, 48824, Note_off_c, 0, 58, 100
1, 48824, Note_on_c, 0, 61, 100
1, 48856, Note_off_c, 0, 61, 100
1, 48856, Note_on_c, 0, 63, 100
1, 48952, Note_off_c, 0, 63, 100
1, 48952, Note_on_c, 0, 61, 100
1, 49000, Note_off_c, 0, 61, 100
1, 49000, Note_on_c, 0, 63, 100
1, 49048, Note_off_c, 0, 63, 100
1, 49048, Note_on_c, 0, 58, 100
1, 49069, Note_off_c, 0, 58, 100
1, 49069, Note_on_c, 0, 61, 100
1, 49090, Note_off_c, 0, 61, 100
1, 49090, Note_on_c, 0, 63, 100
1, 49153, Note_off_c, 0, 63, 100
1, 49153, Note_on_c, 0, 72, 100
1, 49174, Note_off_c, 0, 72, 100
1, 49174, Note_on_c, 0, 70, 100
1, 49195, Note_off_c, 0, 70, 100
1, 49195, Note_on_c, 0, 71, 100
1, 49216, Note_off_c, 0, 71, 100
1, 49216, Note_on_c, 0, 72, 100
1, 49275, Note_off_c, 0, 72, 100
1, 49275, Note_on_c, 0, 70, 100
1, 49313, Note_off_c, 0, 70, 100
1, 49313, Note_on_c, 0, 72, 100
1, 49351, Note_off_c, 0, 72, 100
1, 49351, Note_on_c, 0, 68, 100
1, 49389, Note_off_c, 0, 68, 100
1, 49389, Note_on_c, 0, 63, 100
1, 49427, Note_off_c, 0, 63, 100
1, 49427, Note_on_c, 0, 63, 100
1, 49536, Note_off_c, 0, 63, 100
1, 49536, End_track
0, 0, End_of_file
