0, 0, Header, 1, 1, 192
1, 0, Start_track
1, 0, Title_t, "Melody"
1, 0, Tempo, 419580
1, 0, Key_signature, 1, "major"
1, 0, Time_signature, 2, 1, 24, 8
1, 0, Note_on_c, 0, 66, 100
1, 96, Note_off_c, 0, 66, 100
1, 96, Note_on_c, 0, 67, 100
1, 192, Note_off_c, 0, 67, 100
1, 192, Note_on_c, 0, 71, 100
1, 288, Note_off_c, 0, 71, 100
1, 288, Note_on_c, 0, 74, 100
1, 384, Note_off_c, 0, 74, 100
1, 384, Note_on_c, 0, 78, 100
1, 480, Note_off_c, 0, 78, 100
1, 480, Note_on_c, 0, 79, 100
1, 576, Note_off_c, 0, 79, 100
1, 576, Note_on_c, 0, 78, 100
1, 672, Note_off_c, 0, 78, 100
1, 672, Note_on_c, 0, 76, 100
1, 768, Note_off_c, 0, 76, 100
1, 768, Note_on_c, 0, 74, 100
1, 844, Note_off_c, 0, 74, 100
1, 844, Note_on_c, 0, 71, 100
1, 920, Note_off_c, 0, 71, 100
1, 920, Note_on_c, 0, 72, 100
1, 996, Note_off_c, 0, 72, 100
1, 996, Note_on_c, 0, 74, 100
1, 1072, Note_off_c, 0, 74, 100
1, 1072, Note_on_c, 0, 72, 100
1, 1148, Note_off_c, 0, 72, 100
1, 1148, Note_on_c, 0, 71, 100
1, 1244, Note_off_c, 0, 71, 100
1, 1244, Note_on_c, 0, 69, 100
1, 1340, Note_off_c, 0, 69, 100
1, 1340, Note_on_c, 0, 68, 100
1, 1436, Note_off_c, 0, 68, 100
1, 1436, Note_on_c, 0, 66, 100
1, 1532, Note_off_c, 0, 66, 100
1, 1532, Note_on_c, 0, 67, 100
1, 1628, Note_off_c, 0, 67, 100
1, 1628, Note_on_c, 0, 64, 100
1, 1724, Note_off_c, 0, 64, 100
1, 1724, Note_on_c, 0, 59, 100
1, 1820, Note_off_c, 0, 59, 100
1, 1820, Note_on_c, 0, 58, 100
1, 1916, Note_off_c, 0, 58, 100
1, 1916, Note_on_c, 0, 62, 100
1, 2012, Note_off_c, 0, 62, 100
1, 2012, Note_on_c, 0, 58, 100
1, 2108, Note_off_c, 0, 58, 100
1, 2108, Note_on_c, 0, 59, 100
1, 2204, Note_off_c, 0, 59, 100
1, 2204, Note_on_c, 0, 55, 100
1, 2300, Note_off_c, 0, 55, 100
1, 2300, Note_on_c, 0, 57, 100
1, 2492, Note_off_c, 0, 57, 100
1, 2492, Note_on_c, 0, 55, 100
1, 2588, Note_off_c, 0, 55, 100
1, 3452, Note_on_c, 0, 69, 100
1, 3548, Note_off_c, 0, 69, 100
1, 3548, Note_on_c, 0, 70, 100
1, 3740, Note_off_c, 0, 70, 100
1, 3740, Note_on_c, 0, 69, 100
1, 3836, Note_off_c, 0, 69, 100
1, 3836, Note_on_c, 0, 67, 100
1, 4028, Note_off_c, 0, 67, 100
1, 4028, Note_on_c, 0, 62, 100
1, 4220, Note_off_c, 0, 62, 100
1, 4220, Note_on_c, 0, 62, 100
1, 4316, Note_off_c, 0, 62, 100
1, 4988, Note_on_c, 0, 63, 100
1, 5084, Note_off_c, 0, 63, 100
1, 5084, Note_on_c, 0, 64, 100
1, 5276, Note_off_c, 0, 64, 100
1, 5276, Note_on_c, 0, 63, 100
1, 5372, Note_off_c, 0, 63, 100
1, 5372, Note_on_c, 0, 66, 100
1, 5564, Note_off_c, 0, 66, 100
1, 5564, Note_on_c, 0, 69, 100
1, 5660, Note_off_c, 0, 69, 100
1, 5660, Note_on_c, 0, 66, 100
1, 5756, Note_off_c, 0, 66, 100
1, 5756, Note_on_c, 0, 67, 100
1, 5852, Note_off_c, 0, 67, 100
1, 5852, Note_on_c, 0, 69, 100
1, 5948, Note_off_c, 0, 69, 100
1, 5948, Note_on_c, 0, 70, 100
1, 6044, Note_off_c, 0, 70, 100
1, 6044, Note_on_c, 0, 72, 100
1, 6140, Note_off_c, 0, 72, 100
1, 6140, Note_on_c, 0, 74, 100
1, 6268, Note_off_c, 0, 74, 100
1, 6268, Note_on_c, 0, 68, 100
1, 6396, Note_off_c, 0, 68, 100
1, 6396, Note_on_c, 0, 69, 100
1, 6524, Note_off_c, 0, 69, 100
1, 6524, Note_on_c, 0, 72, 100
1, 6620, Note_off_c, 0, 72, 100
1, 6620, Note_on_c, 0, 70, 100
1, 6716, Note_off_c, 0, 70, 100
1, 6716, Note_on_c, 0, 67, 100
1, 6812, Note_off_c, 0, 67, 100
1, 7388, Note_on_c, 0, 63, 100
1, 7484, Note_off_c, 0, 63, 100
1, 7484, Note_on_c, 0, 64, 100
1, 7580, Note_off_c, 0, 64, 100
1, 7580, Note_on_c, 0, 67, 100
1, 7676, Note_off_c, 0, 67, 100
1, 7676, Note_on_c, 0, 64, 100
1, 7772, Note_off_c, 0, 64, 100
1, 7772, Note_on_c, 0, 65, 100
1, 7868, Note_off_c, 0, 65, 100
1, 7868, Note_on_c, 0, 66, 100
1, 7964, Note_off_c, 0, 66, 100
1, 7964, Note_on_c, 0, 69, 100
1, 8060, Note_off_c, 0, 69, 100
1, 8060, Note_on_c, 0, 72, 100
1, 8156, Note_off_c, 0, 72, 100
1, 8828, Note_on_c, 0, 77, 100
1, 8924, Note_off_c, 0, 77, 100
1, 8924, Note_on_c, 0, 76, 100
1, 9020, Note_off_c, 0, 76, 100
1, 9020, Note_on_c, 0, 75, 100
1, 9116, Note_off_c, 0, 75, 100
1, 9116, Note_on_c, 0, 74, 100
1, 9212, Note_off_c, 0, 74, 100
1, 9212, Note_on_c, 0, 72, 100
1, 9288, Note_off_c, 0, 72, 100
1, 9288, Note_on_c, 0, 71, 100
1, 9364, Note_off_c, 0, 71, 100
1, 9364, Note_on_c, 0, 69, 100
1, 9440, Note_off_c, 0, 69, 100
1, 9440, Note_on_c, 0, 68, 100
1, 9516, Note_off_c, 0, 68, 100
1, 9516, Note_on_c, 0, 65, 100
1, 9592, Note_off_c, 0, 65, 100
1, 9592, Note_on_c, 0, 64, 100
1, 9745, Note_off_c, 0, 64, 100
1, 9745, Note_on_c, 0, 62, 100
1, 9821, Note_off_c, 0, 62, 100
1, 9821, Note_on_c, 0, 61, 100
1, 9897, Note_off_c, 0, 61, 100
1, 9897, Note_on_c, 0, 59, 100
1, 9973, Note_off_c, 0, 59, 100
1, 9973, Note_on_c, 0, 60, 100
1, 10069, Note_off_c, 0, 60, 100
1, 10069, Note_on_c, 0, 62, 100
1, 10165, Note_off_c, 0, 62, 100
1, 10165, Note_on_c, 0, 63, 100
1, 10261, Note_off_c, 0, 63, 100
1, 10261, Note_on_c, 0, 64, 100
1, 10357, Note_off_c, 0, 64, 100
1, 10357, Note_on_c, 0, 67, 100
1, 10453, Note_off_c, 0, 67, 100
1, 10453, Note_on_c, 0, 64, 100
1, 10549, Note_off_c, 0, 64, 100
1, 10549, Note_on_c, 0, 65, 100
1, 10645, Note_off_c, 0, 65, 100
1, 10645, Note_on_c, 0, 66, 100
1, 10741, Note_off_c, 0, 66, 100
1, 10741, Note_on_c, 0, 69, 100
1, 10933, Note_off_c, 0, 69, 100
1, 10933, Note_on_c, 0, 77, 100
1, 11029, Note_off_c, 0, 77, 100
1, 11029, Note_on_c, 0, 76, 100
1, 11125, Note_off_c, 0, 76, 100
1, 11125, Note_on_c, 0, 75, 100
1, 11253, Note_off_c, 0, 75, 100
1, 11253, Note_on_c, 0, 72, 100
1, 11381, Note_off_c, 0, 72, 100
1, 11381, Note_on_c, 0, 73, 100
1, 11509, Note_off_c, 0, 73, 100
1, 11509, Note_on_c, 0, 76, 100
1, 11573, Note_off_c, 0, 76, 100
1, 11573, Note_on_c, 0, 74, 100
1, 11701, Note_off_c, 0, 74, 100
1, 11701, Note_on_c, 0, 71, 100
1, 11765, Note_off_c, 0, 71, 100
1, 11765, Note_on_c, 0, 72, 100
1, 11829, Note_off_c, 0, 72, 100
1, 11829, Note_on_c, 0, 74, 100
1, 11893, Note_off_c, 0, 74, 100
1, 11893, Note_on_c, 0, 72, 100
1, 11969, Note_off_c, 0, 72, 100
1, 11969, Note_on_c, 0, 71, 100
1, 12122, Note_off_c, 0, 71, 100
1, 12122, Note_on_c, 0, 69, 100
1, 12198, Note_off_c, 0, 69, 100
1, 12198, Note_on_c, 0, 68, 100
1, 12274, Note_off_c, 0, 68, 100
1, 12274, Note_on_c, 0, 66, 100
1, 12350, Note_off_c, 0, 66, 100
1, 12350, Note_on_c, 0, 67, 100
1, 12426, Note_off_c, 0, 67, 100
1, 12426, Note_on_c, 0, 69, 100
1, 12502, Note_off_c, 0, 69, 100
1, 12502, Note_on_c, 0, 71, 100
1, 12655, Note_off_c, 0, 71, 100
1, 12655, Note_on_c, 0, 72, 100
1, 12719, Note_off_c, 0, 72, 100
1, 12719, Note_on_c, 0, 74, 100
1, 12783, Note_off_c, 0, 74, 100
1, 12783, Note_on_c, 0, 76, 100
1, 12975, Note_off_c, 0, 76, 100
1, 12975, Note_on_c, 0, 79, 100
1, 13039, Note_off_c, 0, 79, 100
1, 13039, Note_on_c, 0, 81, 100
1, 13135, Note_off_c, 0, 81, 100
1, 13135, Note_on_c, 0, 78, 100
1, 13231, Note_off_c, 0, 78, 100
1, 13231, Note_on_c, 0, 79, 100
1, 13327, Note_off_c, 0, 79, 100
1, 13327, Note_on_c, 0, 76, 100
1, 13423, Note_off_c, 0, 76, 100
1, 13423, Note_on_c, 0, 77, 100
1, 13551, Note_off_c, 0, 77, 100
1, 13551, Note_on_c, 0, 74, 100
1, 13679, Note_off_c, 0, 74, 100
1, 13679, Note_on_c, 0, 75, 100
1, 13807, Note_off_c, 0, 75, 100
1, 13807, Note_on_c, 0, 71, 100
1, 13999, Note_off_c, 0, 71, 100
1, 13999, Note_on_c, 0, 74, 100
1, 14095, Note_off_c, 0, 74, 100
1, 14095, Note_on_c, 0, 71, 100
1, 14191, Note_off_c, 0, 71, 100
1, 14191, Note_on_c, 0, 72, 100
1, 14287, Note_off_c, 0, 72, 100
1, 14287, Note_on_c, 0, 70, 100
1, 14383, Note_off_c, 0, 70, 100
1, 14383, Note_on_c, 0, 69, 100
1, 14479, Note_off_c, 0, 69, 100
1, 14479, Note_on_c, 0, 67, 100
1, 14623, Note_off_c, 0, 67, 100
1, 14623, Note_on_c, 0, 65, 100
1, 14719, Note_off_c, 0, 65, 100
1, 14719, Note_on_c, 0, 64, 100
1, 14815, Note_off_c, 0, 64, 100
1, 14815, Note_on_c, 0, 63, 100
1, 14863, Note_off_c, 0, 63, 100
1, 14863, Note_on_c, 0, 65, 100
1, 14911, Note_off_c, 0, 65, 100
1, 14911, Note_on_c, 0, 63, 100
1, 14959, Note_off_c, 0, 63, 100
1, 14959, Note_on_c, 0, 62, 100
1, 15055, Note_off_c, 0, 62, 100
1, 15055, Note_on_c, 0, 60, 100
1, 15151, Note_off_c, 0, 60, 100
1, 15151, Note_on_c, 0, 59, 100
1, 15247, Note_off_c, 0, 59, 100
1, 15247, Note_on_c, 0, 57, 100
1, 15343, Note_off_c, 0, 57, 100
1, 15343, Note_on_c, 0, 58, 100
1, 15439, Note_off_c, 0, 58, 100
1, 15439, Note_on_c, 0, 60, 100
1, 15535, Note_off_c, 0, 60, 100
1, 15535, Note_on_c, 0, 62, 100
1, 15631, Note_off_c, 0, 62, 100
1, 15631, Note_on_c, 0, 63, 100
1, 15727, Note_off_c, 0, 63, 100
1, 15727, Note_on_c, 0, 65, 100
1, 15823, Note_off_c, 0, 65, 100
1, 15823, Note_on_c, 0, 65, 100
1, 15919, Note_off_c, 0, 65, 100
1, 15919, Note_on_c, 0, 62, 100
1, 16015, Note_off_c, 0, 62, 100
1, 16175, Note_on_c, 0, 60, 100
1, 16303, Note_off_c, 0, 60, 100
1, 16303, Note_on_c, 0, 62, 100
1, 16367, Note_off_c, 0, 62, 100
1, 16367, Note_on_c, 0, 63, 100
1, 16431, Note_off_c, 0, 63, 100
1, 16431, Note_on_c, 0, 65, 100
1, 16495, Note_off_c, 0, 65, 100
1, 16495, Note_on_c, 0, 67, 100
1, 16591, Note_off_c, 0, 67, 100
1, 16591, Note_on_c, 0, 63, 100
1, 16687, Note_off_c, 0, 63, 100
1, 16687, Note_on_c, 0, 62, 100
1, 16783, Note_off_c, 0, 62, 100
1, 16783, Note_on_c, 0, 60, 100
1, 16879, Note_off_c, 0, 60, 100
1, 16879, Note_on_c, 0, 61, 100
1, 17007, Note_off_c, 0, 61, 100
1, 17007, Note_on_c, 0, 62, 100
1, 17135, Note_off_c, 0, 62, 100
1, 17135, Note_on_c, 0, 69, 100
1, 17263, Note_off_c, 0, 69, 100
1, 17263, Note_on_c, 0, 67, 100
1, 17339, Note_off_c, 0, 67, 100
1, 17339, Note_on_c, 0, 65, 100
1, 17415, Note_off_c, 0, 65, 100
1, 17415, Note_on_c, 0, 64, 100
1, 17491, Note_off_c, 0, 64, 100
1, 17491, Note_on_c, 0, 63, 100
1, 17567, Note_off_c, 0, 63, 100
1, 17567, Note_on_c, 0, 65, 100
1, 17739, Note_off_c, 0, 65, 100
1, 17739, Note_on_c, 0, 62, 100
1, 17835, Note_off_c, 0, 62, 100
1, 17835, Note_on_c, 0, 58, 100
1, 17931, Note_off_c, 0, 58, 100
1, 18987, Note_on_c, 0, 74, 100
1, 19179, Note_off_c, 0, 74, 100
1, 19179, Note_on_c, 0, 73, 100
1, 19255, Note_off_c, 0, 73, 100
1, 19255, Note_on_c, 0, 72, 100
1, 19331, Note_off_c, 0, 72, 100
1, 19331, Note_on_c, 0, 63, 100
1, 19407, Note_off_c, 0, 63, 100
1, 19407, Note_on_c, 0, 64, 100
1, 19503, Note_off_c, 0, 64, 100
1, 19656, Note_on_c, 0, 71, 100
1, 19752, Note_off_c, 0, 71, 100
1, 19752, Note_on_c, 0, 69, 100
1, 19848, Note_off_c, 0, 69, 100
1, 19848, Note_on_c, 0, 67, 100
1, 19944, Note_off_c, 0, 67, 100
1, 19944, Note_on_c, 0, 64, 100
1, 20020, Note_off_c, 0, 64, 100
1, 20020, Note_on_c, 0, 66, 100
1, 20173, Note_off_c, 0, 66, 100
1, 20173, Note_on_c, 0, 77, 100
1, 20249, Note_off_c, 0, 77, 100
1, 20249, Note_on_c, 0, 76, 100
1, 20325, Note_off_c, 0, 76, 100
1, 20325, Note_on_c, 0, 75, 100
1, 20421, Note_off_c, 0, 75, 100
1, 20805, Note_on_c, 0, 72, 100
1, 20901, Note_off_c, 0, 72, 100
1, 20901, Note_on_c, 0, 73, 100
1, 20997, Note_off_c, 0, 73, 100
1, 20997, Note_on_c, 0, 76, 100
1, 21093, Note_off_c, 0, 76, 100
1, 21093, Note_on_c, 0, 74, 100
1, 21189, Note_off_c, 0, 74, 100
1, 21189, Note_on_c, 0, 71, 100
1, 21285, Note_off_c, 0, 71, 100
1, 21285, Note_on_c, 0, 72, 100
1, 21381, Note_off_c, 0, 72, 100
1, 21381, Note_on_c, 0, 70, 100
1, 21477, Note_off_c, 0, 70, 100
1, 21477, Note_on_c, 0, 71, 100
1, 21573, Note_off_c, 0, 71, 100
1, 21861, Note_on_c, 0, 62, 100
1, 21957, Note_off_c, 0, 62, 100
1, 21957, Note_on_c, 0, 64, 100
1, 22053, Note_off_c, 0, 64, 100
1, 22053, Note_on_c, 0, 66, 100
1, 22149, Note_off_c, 0, 66, 100
1, 22149, Note_on_c, 0, 69, 100
1, 22245, Note_off_c, 0, 69, 100
1, 22245, Note_on_c, 0, 67, 100
1, 22321, Note_off_c, 0, 67, 100
1, 22321, Note_on_c, 0, 66, 100
1, 22474, Note_off_c, 0, 66, 100
1, 22474, Note_on_c, 0, 66, 100
1, 22550, Note_off_c, 0, 66, 100
1, 22550, Note_on_c, 0, 64, 100
1, 22626, Note_off_c, 0, 64, 100
1, 22626, Note_on_c, 0, 63, 100
1, 22722, Note_off_c, 0, 63, 100
1, 23058, Note_on_c, 0, 72, 100
1, 23106, Note_off_c, 0, 72, 100
1, 23106, Note_on_c, 0, 74, 100
1, 23202, Note_off_c, 0, 74, 100
1, 23202, Note_on_c, 0, 72, 100
1, 23250, Note_off_c, 0, 72, 100
1, 23250, Note_on_c, 0, 71, 100
1, 23346, Note_off_c, 0, 71, 100
1, 23346, Note_on_c, 0, 69, 100
1, 23394, Note_off_c, 0, 69, 100
1, 23394, Note_on_c, 0, 67, 100
1, 23490, Note_off_c, 0, 67, 100
1, 23490, Note_on_c, 0, 66, 100
1, 23586, Note_off_c, 0, 66, 100
1, 23586, Note_on_c, 0, 64, 100
1, 23682, Note_off_c, 0, 64, 100
1, 23682, Note_on_c, 0, 63, 100
1, 23854, Note_off_c, 0, 63, 100
1, 23854, Note_on_c, 0, 66, 100
1, 23930, Note_off_c, 0, 66, 100
1, 23930, Note_on_c, 0, 63, 100
1, 24006, Note_off_c, 0, 63, 100
1, 24006, Note_on_c, 0, 64, 100
1, 24082, Note_off_c, 0, 64, 100
1, 24082, Note_on_c, 0, 66, 100
1, 24158, Note_off_c, 0, 66, 100
1, 24158, Note_on_c, 0, 68, 100
1, 24350, Note_off_c, 0, 68, 100
1, 24350, Note_on_c, 0, 71, 100
1, 24542, Note_off_c, 0, 71, 100
1, 24542, Note_on_c, 0, 63, 100
1, 24618, Note_off_c, 0, 63, 100
1, 24618, Note_on_c, 0, 64, 100
1, 24771, Note_off_c, 0, 64, 100
1, 24771, Note_on_c, 0, 67, 100
1, 24847, Note_off_c, 0, 67, 100
1, 24847, Note_on_c, 0, 64, 100
1, 24923, Note_off_c, 0, 64, 100
1, 24923, Note_on_c, 0, 66, 100
1, 25019, Note_off_c, 0, 66, 100
1, 25537, Note_on_c, 0, 62, 100
1, 25613, Note_off_c, 0, 62, 100
1, 25613, Note_on_c, 0, 64, 100
1, 25689, Note_off_c, 0, 64, 100
1, 25689, Note_on_c, 0, 66, 100
1, 25842, Note_off_c, 0, 66, 100
1, 25842, Note_on_c, 0, 67, 100
1, 25918, Note_off_c, 0, 67, 100
1, 25918, Note_on_c, 0, 69, 100
1, 25994, Note_off_c, 0, 69, 100
1, 25994, Note_on_c, 0, 66, 100
1, 26070, Note_off_c, 0, 66, 100
1, 26070, Note_on_c, 0, 67, 100
1, 26166, Note_off_c, 0, 67, 100
1, 26166, Note_on_c, 0, 69, 100
1, 26262, Note_off_c, 0, 69, 100
1, 26262, Note_on_c, 0, 71, 100
1, 26358, Note_off_c, 0, 71, 100
1, 26358, Note_on_c, 0, 72, 100
1, 26454, Note_off_c, 0, 72, 100
1, 26454, Note_on_c, 0, 74, 100
1, 26550, Note_off_c, 0, 74, 100
1, 26550, Note_on_c, 0, 76, 100
1, 26646, Note_off_c, 0, 76, 100
1, 26646, Note_on_c, 0, 78, 100
1, 26742, Note_off_c, 0, 78, 100
1, 26742, Note_on_c, 0, 79, 100
1, 26838, Note_off_c, 0, 79, 100
1, 26838, Note_on_c, 0, 81, 100
1, 27030, Note_off_c, 0, 81, 100
1, 27030, Note_on_c, 0, 78, 100
1, 27126, Note_off_c, 0, 78, 100
1, 28086, Note_on_c, 0, 79, 100
1, 28182, Note_off_c, 0, 79, 100
1, 28182, Note_on_c, 0, 80, 100
1, 28278, Note_off_c, 0, 80, 100
1, 28278, Note_on_c, 0, 81, 100
1, 28566, Note_off_c, 0, 81, 100
1, 28854, Note_on_c, 0, 79, 100
1, 28950, Note_off_c, 0, 79, 100
1, 28950, Note_on_c, 0, 74, 100
1, 29046, Note_off_c, 0, 74, 100
1, 29046, Note_on_c, 0, 73, 100
1, 29142, Note_off_c, 0, 73, 100
1, 29142, Note_on_c, 0, 72, 100
1, 29238, Note_off_c, 0, 72, 100
1, 29238, Note_on_c, 0, 71, 100
1, 29334, Note_off_c, 0, 71, 100
1, 29334, Note_on_c, 0, 70, 100
1, 29430, Note_off_c, 0, 70, 100
1, 29430, Note_on_c, 0, 69, 100
1, 29526, Note_off_c, 0, 69, 100
1, 29526, Note_on_c, 0, 67, 100
1, 29654, Note_off_c, 0, 67, 100
1, 29654, Note_on_c, 0, 66, 100
1, 29782, Note_off_c, 0, 66, 100
1, 29782, Note_on_c, 0, 69, 100
1, 29910, Note_off_c, 0, 69, 100
1, 29910, Note_on_c, 0, 66, 100
1, 29974, Note_off_c, 0, 66, 100
1, 29974, Note_on_c, 0, 67, 100
1, 30038, Note_off_c, 0, 67, 100
1, 30038, Note_on_c, 0, 62, 100
1, 30166, Note_off_c, 0, 62, 100
1, 30166, Note_on_c, 0, 60, 100
1, 30230, Note_off_c, 0, 60, 100
1, 30230, Note_on_c, 0, 59, 100
1, 30294, Note_off_c, 0, 59, 100
1, 30294, Note_on_c, 0, 58, 100
1, 30390, Note_off_c, 0, 58, 100
1, 30390, Note_on_c, 0, 54, 100
1, 30486, Note_off_c, 0, 54, 100
1, 30486, Note_on_c, 0, 57, 100
1, 30582, Note_off_c, 0, 57, 100
1, 30582, Note_on_c, 0, 54, 100
1, 30678, Note_off_c, 0, 54, 100
1, 30678, Note_on_c, 0, 55, 100
1, 30774, Note_off_c, 0, 55, 100
1, 30774, Note_on_c, 0, 57, 100
1, 30870, Note_off_c, 0, 57, 100
1, 30870, Note_on_c, 0, 58, 100
1, 30966, Note_off_c, 0, 58, 100
1, 30966, Note_on_c, 0, 60, 100
1, 31062, Note_off_c, 0, 60, 100
1, 31062, Note_on_c, 0, 62, 100
1, 31158, Note_off_c, 0, 62, 100
1, 31158, Note_on_c, 0, 64, 100
1, 31254, Note_off_c, 0, 64, 100
1, 31254, Note_on_c, 0, 69, 100
1, 31350, Note_off_c, 0, 69, 100
1, 31350, Note_on_c, 0, 68, 100
1, 31446, Note_off_c, 0, 68, 100
1, 31446, Note_on_c, 0, 67, 100
1, 31574, Note_off_c, 0, 67, 100
1, 31574, Note_on_c, 0, 63, 100
1, 31702, Note_off_c, 0, 63, 100
1, 31702, Note_on_c, 0, 60, 100
1, 31830, Note_off_c, 0, 60, 100
1, 31830, Note_on_c, 0, 62, 100
1, 32022, Note_off_c, 0, 62, 100
1, 32022, Note_on_c, 0, 60, 100
1, 32214, Note_off_c, 0, 60, 100
1, 32214, Note_on_c, 0, 62, 100
1, 32406, Note_off_c, 0, 62, 100
1, 32406, Note_on_c, 0, 60, 100
1, 32598, Note_off_c, 0, 60, 100
1, 32598, Note_on_c, 0, 62, 100
1, 32790, Note_off_c, 0, 62, 100
1, 32790, Note_on_c, 0, 60, 100
1, 32982, Note_off_c, 0, 60, 100
1, 32982, Note_on_c, 0, 62, 100
1, 33174, Note_off_c, 0, 62, 100
1, 33174, Note_on_c, 0, 59, 100
1, 33270, Note_off_c, 0, 59, 100
1, 34134, Note_on_c, 0, 71, 100
1, 34230, Note_off_c, 0, 71, 100
1, 34230, Note_on_c, 0, 72, 100
1, 34326, Note_off_c, 0, 72, 100
1, 34326, Note_on_c, 0, 68, 100
1, 34422, Note_off_c, 0, 68, 100
1, 34422, Note_on_c, 0, 71, 100
1, 34518, Note_off_c, 0, 71, 100
1, 34518, Note_on_c, 0, 69, 100
1, 34710, Note_off_c, 0, 69, 100
1, 34710, Note_on_c, 0, 69, 100
1, 34902, Note_off_c, 0, 69, 100
1, 34902, Note_on_c, 0, 69, 100
1, 35094, Note_off_c, 0, 69, 100
1, 35094, Note_on_c, 0, 69, 100
1, 35286, Note_off_c, 0, 69, 100
1, 35286, Note_on_c, 0, 69, 100
1, 35362, Note_off_c, 0, 69, 100
1, 35362, Note_on_c, 0, 71, 100
1, 35438, Note_off_c, 0, 71, 100
1, 35438, Note_on_c, 0, 72, 100
1, 35591, Note_off_c, 0, 72, 100
1, 35591, Note_on_c, 0, 74, 100
1, 35667, Note_off_c, 0, 74, 100
1, 35667, Note_on_c, 0, 75, 100
1, 35731, Note_off_c, 0, 75, 100
1, 35731, Note_on_c, 0, 77, 100
1, 35795, Note_off_c, 0, 77, 100
1, 35795, Note_on_c, 0, 75, 100
1, 35859, Note_off_c, 0, 75, 100
1, 35859, Note_on_c, 0, 74, 100
1, 35987, Note_off_c, 0, 74, 100
1, 35987, Note_on_c, 0, 72, 100
1, 36051, Note_off_c, 0, 72, 100
1, 36051, Note_on_c, 0, 73, 100
1, 36243, Note_off_c, 0, 73, 100
1, 36243, Note_on_c, 0, 74, 100
1, 36339, Note_off_c, 0, 74, 100
1, 37299, Note_on_c, 0, 73, 100
1, 37395, Note_off_c, 0, 73, 100
1, 37395, Note_on_c, 0, 74, 100
1, 37683, Note_off_c, 0, 74, 100
1, 38047, Note_on_c, 0, 73, 100
1, 38123, Note_off_c, 0, 73, 100
1, 38123, Note_on_c, 0, 74, 100
1, 38199, Note_off_c, 0, 74, 100
1, 38199, Note_on_c, 0, 78, 100
1, 38275, Note_off_c, 0, 78, 100
1, 38275, Note_on_c, 0, 76, 100
1, 38351, Note_off_c, 0, 76, 100
1, 38351, Note_on_c, 0, 76, 100
1, 38447, Note_off_c, 0, 76, 100
1, 38447, Note_on_c, 0, 73, 100
1, 38543, Note_off_c, 0, 73, 100
1, 38543, Note_on_c, 0, 74, 100
1, 38639, Note_off_c, 0, 74, 100
1, 38639, Note_on_c, 0, 78, 100
1, 38735, Note_off_c, 0, 78, 100
1, 38735, Note_on_c, 0, 76, 100
1, 38831, Note_off_c, 0, 76, 100
1, 38831, Note_on_c, 0, 73, 100
1, 38927, Note_off_c, 0, 73, 100
1, 38927, Note_on_c, 0, 74, 100
1, 39023, Note_off_c, 0, 74, 100
1, 39023, Note_on_c, 0, 78, 100
1, 39119, Note_off_c, 0, 78, 100
1, 39119, Note_on_c, 0, 76, 100
1, 39215, Note_off_c, 0, 76, 100
1, 39215, Note_on_c, 0, 72, 100
1, 39311, Note_off_c, 0, 72, 100
1, 39311, Note_on_c, 0, 74, 100
1, 39407, Note_off_c, 0, 74, 100
1, 39407, Note_on_c, 0, 78, 100
1, 39503, Note_off_c, 0, 78, 100
1, 39503, Note_on_c, 0, 76, 100
1, 39579, Note_off_c, 0, 76, 100
1, 39579, Note_on_c, 0, 74, 100
1, 39655, Note_off_c, 0, 74, 100
1, 39655, Note_on_c, 0, 73, 100
1, 39731, Note_off_c, 0, 73, 100
1, 39731, Note_on_c, 0, 72, 100
1, 39807, Note_off_c, 0, 72, 100
1, 39807, Note_on_c, 0, 71, 100
1, 39883, Note_off_c, 0, 71, 100
1, 39883, Note_on_c, 0, 70, 100
1, 39979, Note_off_c, 0, 70, 100
1, 39979, Note_on_c, 0, 69, 100
1, 40075, Note_off_c, 0, 69, 100
1, 40075, Note_on_c, 0, 67, 100
1, 40171, Note_off_c, 0, 67, 100
1, 40171, Note_on_c, 0, 66, 100
1, 40267, Note_off_c, 0, 66, 100
1, 40267, Note_on_c, 0, 69, 100
1, 40363, Note_off_c, 0, 69, 100
1, 40363, Note_on_c, 0, 66, 100
1, 40459, Note_off_c, 0, 66, 100
1, 40459, Note_on_c, 0, 67, 100
1, 40555, Note_off_c, 0, 67, 100
1, 40555, Note_on_c, 0, 69, 100
1, 40651, Note_off_c, 0, 69, 100
1, 40651, Note_on_c, 0, 70, 100
1, 40747, Note_off_c, 0, 70, 100
1, 40747, Note_on_c, 0, 72, 100
1, 40843, Note_off_c, 0, 72, 100
1, 40843, Note_on_c, 0, 74, 100
1, 40939, Note_off_c, 0, 74, 100
1, 40939, Note_on_c, 0, 76, 100
1, 41035, Note_off_c, 0, 76, 100
1, 41035, Note_on_c, 0, 81, 100
1, 41227, Note_off_c, 0, 81, 100
1, 41227, Note_on_c, 0, 81, 100
1, 41323, Note_off_c, 0, 81, 100
1, 41323, Note_on_c, 0, 79, 100
1, 41547, Note_off_c, 0, 79, 100
1, 41547, Note_on_c, 0, 79, 100
1, 41675, Note_off_c, 0, 79, 100
1, 41675, Note_on_c, 0, 76, 100
1, 41803, Note_off_c, 0, 76, 100
1, 41803, Note_on_c, 0, 76, 100
1, 41995, Note_off_c, 0, 76, 100
1, 41995, Note_on_c, 0, 74, 100
1, 42091, Note_off_c, 0, 74, 100
1, 42091, Note_on_c, 0, 74, 100
1, 42187, Note_off_c, 0, 74, 100
1, 42187, Note_on_c, 0, 70, 100
1, 42379, Note_off_c, 0, 70, 100
1, 42379, Note_on_c, 0, 70, 100
1, 42571, Note_off_c, 0, 70, 100
1, 42571, Note_on_c, 0, 69, 100
1, 42763, Note_off_c, 0, 69, 100
1, 42763, Note_on_c, 0, 69, 100
1, 42859, Note_off_c, 0, 69, 100
1, 42859, Note_on_c, 0, 67, 100
1, 43051, Note_off_c, 0, 67, 100
1, 43051, Note_on_c, 0, 67, 100
1, 43147, Note_off_c, 0, 67, 100
1, 43147, Note_on_c, 0, 64, 100
1, 43339, Note_off_c, 0, 64, 100
1, 43339, Note_on_c, 0, 64, 100
1, 43435, Note_off_c, 0, 64, 100
1, 43435, Note_on_c, 0, 62, 100
1, 43531, Note_off_c, 0, 62, 100
1, 43531, Note_on_c, 0, 62, 100
1, 43723, Note_off_c, 0, 62, 100
1, 43723, Note_on_c, 0, 58, 100
1, 43915, Note_off_c, 0, 58, 100
1, 43915, Note_on_c, 0, 58, 100
1, 44011, Note_off_c, 0, 58, 100
1, 44011, Note_on_c, 0, 57, 100
1, 44107, Note_off_c, 0, 57, 100
1, 44107, Note_on_c, 0, 57, 100
1, 44299, Note_off_c, 0, 57, 100
1, 44299, Note_on_c, 0, 60, 100
1, 44395, Note_off_c, 0, 60, 100
1, 44875, Note_on_c, 0, 63, 100
1, 44971, Note_off_c, 0, 63, 100
1, 44971, Note_on_c, 0, 65, 100
1, 45067, Note_off_c, 0, 65, 100
1, 45067, Note_on_c, 0, 63, 100
1, 45163, Note_off_c, 0, 63, 100
1, 45163, Note_on_c, 0, 62, 100
1, 45259, Note_off_c, 0, 62, 100
1, 45259, Note_on_c, 0, 60, 100
1, 45355, Note_off_c, 0, 60, 100
1, 45355, Note_on_c, 0, 59, 100
1, 45451, Note_off_c, 0, 59, 100
1, 45931, Note_on_c, 0, 69, 100
1, 46123, Note_off_c, 0, 69, 100
1, 46411, Note_on_c, 0, 67, 100
1, 46507, Note_off_c, 0, 67, 100
1, 46507, Note_on_c, 0, 68, 100
1, 46603, Note_off_c, 0, 68, 100
1, 46603, Note_on_c, 0, 71, 100
1, 46699, Note_off_c, 0, 71, 100
1, 46699, Note_on_c, 0, 74, 100
1, 46795, Note_off_c, 0, 74, 100
1, 46795, Note_on_c, 0, 77, 100
1, 46871, Note_off_c, 0, 77, 100
1, 46871, Note_on_c, 0, 77, 100
1, 46947, Note_off_c, 0, 77, 100
1, 46947, Note_on_c, 0, 76, 100
1, 47023, Note_off_c, 0, 76, 100
1, 47023, Note_on_c, 0, 74, 100
1, 47176, Note_off_c, 0, 74, 100
1, 47176, Note_on_c, 0, 73, 100
1, 47272, Note_off_c, 0, 73, 100
1, 47272, Note_on_c, 0, 72, 100
1, 47368, Note_off_c, 0, 72, 100
1, 47368, Note_on_c, 0, 62, 100
1, 47464, Note_off_c, 0, 62, 100
1, 47464, Note_on_c, 0, 64, 100
1, 47560, Note_off_c, 0, 64, 100
1, 47560, Note_on_c, 0, 67, 100
1, 47636, Note_off_c, 0, 67, 100
1, 47636, Note_on_c, 0, 71, 100
1, 47712, Note_off_c, 0, 71, 100
1, 47712, Note_on_c, 0, 69, 100
1, 47788, Note_off_c, 0, 69, 100
1, 47788, Note_on_c, 0, 67, 100
1, 47941, Note_off_c, 0, 67, 100
1, 47941, Note_on_c, 0, 64, 100
1, 48005, Note_off_c, 0, 64, 100
1, 48005, Note_on_c, 0, 66, 100
1, 48133, Note_off_c, 0, 66, 100
1, 48133, Note_on_c, 0, 69, 100
1, 48197, Note_off_c, 0, 69, 100
1, 48197, Note_on_c, 0, 72, 100
1, 48325, Note_off_c, 0, 72, 100
1, 48325, Note_on_c, 0, 74, 100
1, 48389, Note_off_c, 0, 74, 100
1, 48389, Note_on_c, 0, 77, 100
1, 48453, Note_off_c, 0, 77, 100
1, 48453, Note_on_c, 0, 76, 100
1, 48517, Note_off_c, 0, 76, 100
1, 48517, Note_on_c, 0, 75, 100
1, 48581, Note_off_c, 0, 75, 100
1, 48581, Note_on_c, 0, 74, 100
1, 48645, Note_off_c, 0, 74, 100
1, 48645, Note_on_c, 0, 72, 100
1, 48709, Note_off_c, 0, 72, 100
1, 48709, Note_on_c, 0, 73, 100
1, 48805, Note_off_c, 0, 73, 100
1, 48805, Note_on_c, 0, 76, 100
1, 48901, Note_off_c, 0, 76, 100
1, 48901, Note_on_c, 0, 74, 100
1, 48997, Note_off_c, 0, 74, 100
1, 48997, Note_on_c, 0, 72, 100
1, 49093, Note_off_c, 0, 72, 100
1, 49093, Note_on_c, 0, 71, 100
1, 49189, Note_off_c, 0, 71, 100
1, 49189, Note_on_c, 0, 69, 100
1, 49285, Note_off_c, 0, 69, 100
1, 49285, Note_on_c, 0, 68, 100
1, 49381, Note_off_c, 0, 68, 100
1, 49381, Note_on_c, 0, 65, 100
1, 49553, Note_off_c, 0, 65, 100
1, 49553, Note_on_c, 0, 67, 100
1, 49629, Note_off_c, 0, 67, 100
1, 49629, Note_on_c, 0, 69, 100
1, 49705, Note_off_c, 0, 69, 100
1, 49705, Note_on_c, 0, 71, 100
1, 49781, Note_off_c, 0, 71, 100
1, 49781, Note_on_c, 0, 72, 100
1, 49857, Note_off_c, 0, 72, 100
1, 49857, Note_on_c, 0, 74, 100
1, 49953, Note_off_c, 0, 74, 100
1, 49953, Note_on_c, 0, 71, 100
1, 50049, Note_off_c, 0, 71, 100
1, 50049, Note_on_c, 0, 73, 100
1, 50241, Note_off_c, 0, 73, 100
1, 50241, Note_on_c, 0, 71, 100
1, 50295, Note_off_c, 0, 71, 100
1, 50295, Note_on_c, 0, 72, 100
1, 50349, Note_off_c, 0, 72, 100
1, 50349, Note_on_c, 0, 70, 100
1, 50458, Note_off_c, 0, 70, 100
1, 50458, Note_on_c, 0, 69, 100
1, 50567, Note_off_c, 0, 69, 100
1, 50567, Note_on_c, 0, 67, 100
1, 50621, Note_off_c, 0, 67, 100
1, 50621, Note_on_c, 0, 65, 100
1, 50717, Note_off_c, 0, 65, 100
1, 50717, Note_on_c, 0, 64, 100
1, 50813, Note_off_c, 0, 64, 100
1, 50813, Note_on_c, 0, 63, 100
1, 50909, Note_off_c, 0, 63, 100
1, 50909, Note_on_c, 0, 65, 100
1, 51005, Note_off_c, 0, 65, 100
1, 51005, Note_on_c, 0, 62, 100
1, 51101, Note_off_c, 0, 62, 100
1, 51101, Note_on_c, 0, 60, 100
1, 51197, Note_off_c, 0, 60, 100
1, 51197, Note_on_c, 0, 59, 100
1, 51293, Note_off_c, 0, 59, 100
1, 51293, Note_on_c, 0, 57, 100
1, 51389, Note_off_c, 0, 57, 100
1, 51389, Note_on_c, 0, 58, 100
1, 51485, Note_off_c, 0, 58, 100
1, 51485, Note_on_c, 0, 60, 100
1, 51581, Note_off_c, 0, 60, 100
1, 51581, Note_on_c, 0, 62, 100
1, 51677, Note_off_c, 0, 62, 100
1, 51677, Note_on_c, 0, 65, 100
1, 51773, Note_off_c, 0, 65, 100
1, 51773, Note_on_c, 0, 61, 100
1, 51869, Note_off_c, 0, 61, 100
1, 51869, Note_on_c, 0, 62, 100
1, 51965, Note_off_c, 0, 62, 100
1, 51965, Note_on_c, 0, 63, 100
1, 52061, Note_off_c, 0, 63, 100
1, 52061, Note_on_c, 0, 64, 100
1, 52157, Note_off_c, 0, 64, 100
1, 52157, Note_on_c, 0, 67, 100
1, 52253, Note_off_c, 0, 67, 100
1, 52253, Note_on_c, 0, 64, 100
1, 52349, Note_off_c, 0, 64, 100
1, 52349, Note_on_c, 0, 65, 100
1, 52445, Note_off_c, 0, 65, 100
1, 52445, Note_on_c, 0, 63, 100
1, 52541, Note_off_c, 0, 63, 100
1, 52541, Note_on_c, 0, 62, 100
1, 52637, Note_off_c, 0, 62, 100
1, 52637, Note_on_c, 0, 60, 100
1, 52733, Note_off_c, 0, 60, 100
1, 52733, Note_on_c, 0, 58, 100
1, 52829, Note_off_c, 0, 58, 100
1, 52829, Note_on_c, 0, 59, 100
1, 52925, Note_off_c, 0, 59, 100
1, 52925, Note_on_c, 0, 65, 100
1, 53021, Note_off_c, 0, 65, 100
1, 53021, Note_on_c, 0, 68, 100
1, 53117, Note_off_c, 0, 68, 100
1, 53117, Note_on_c, 0, 65, 100
1, 53213, Note_off_c, 0, 65, 100
1, 53213, Note_on_c, 0, 66, 100
1, 53309, Note_off_c, 0, 66, 100
1, 53309, Note_on_c, 0, 67, 100
1, 53405, Note_off_c, 0, 67, 100
1, 53405, Note_on_c, 0, 63, 100
1, 53501, Note_off_c, 0, 63, 100
1, 53501, Note_on_c, 0, 60, 100
1, 53597, Note_off_c, 0, 60, 100
1, 53597, Note_on_c, 0, 58, 100
1, 53693, Note_off_c, 0, 58, 100
1, 53693, Note_on_c, 0, 57, 100
1, 53789, Note_off_c, 0, 57, 100
1, 53789, Note_on_c, 0, 60, 100
1, 53885, Note_off_c, 0, 60, 100
1, 53885, Note_on_c, 0, 63, 100
1, 53981, Note_off_c, 0, 63, 100
1, 53981, Note_on_c, 0, 66, 100
1, 54077, Note_off_c, 0, 66, 100
1, 54077, Note_on_c, 0, 63, 100
1, 54173, Note_off_c, 0, 63, 100
1, 54173, Note_on_c, 0, 64, 100
1, 54269, Note_off_c, 0, 64, 100
1, 54269, Note_on_c, 0, 65, 100
1, 54365, Note_off_c, 0, 65, 100
1, 54365, Note_on_c, 0, 63, 100
1, 54461, Note_off_c, 0, 63, 100
1, 54461, Note_on_c, 0, 62, 100
1, 54557, Note_off_c, 0, 62, 100
1, 54557, Note_on_c, 0, 60, 100
1, 54653, Note_off_c, 0, 60, 100
1, 54653, Note_on_c, 0, 59, 100
1, 54749, Note_off_c, 0, 59, 100
1, 54749, Note_on_c, 0, 57, 100
1, 54845, Note_off_c, 0, 57, 100
1, 54845, Note_on_c, 0, 58, 100
1, 54973, Note_off_c, 0, 58, 100
1, 54973, Note_on_c, 0, 53, 100
1, 55069, Note_off_c, 0, 53, 100
1, 55709, Note_on_c, 0, 74, 100
1, 55805, Note_off_c, 0, 74, 100
1, 55805, Note_on_c, 0, 73, 100
1, 55901, Note_off_c, 0, 73, 100
1, 55901, Note_on_c, 0, 72, 100
1, 55997, Note_off_c, 0, 72, 100
1, 55997, Note_on_c, 0, 70, 100
1, 56061, Note_off_c, 0, 70, 100
1, 56061, Note_on_c, 0, 69, 100
1, 56125, Note_off_c, 0, 69, 100
1, 56125, Note_on_c, 0, 67, 100
1, 56189, Note_off_c, 0, 67, 100
1, 56189, Note_on_c, 0, 66, 100
1, 56317, Note_off_c, 0, 66, 100
1, 56317, Note_on_c, 0, 69, 100
1, 56429, Note_off_c, 0, 69, 100
1, 56429, Note_on_c, 0, 72, 100
1, 56525, Note_off_c, 0, 72, 100
1, 56525, Note_on_c, 0, 74, 100
1, 56621, Note_off_c, 0, 74, 100
1, 56621, Note_on_c, 0, 77, 100
1, 56669, Note_off_c, 0, 77, 100
1, 56669, Note_on_c, 0, 76, 100
1, 56717, Note_off_c, 0, 76, 100
1, 56717, Note_on_c, 0, 75, 100
1, 56765, Note_off_c, 0, 75, 100
1, 56765, Note_on_c, 0, 74, 100
1, 56861, Note_off_c, 0, 74, 100
1, 56861, Note_on_c, 0, 70, 100
1, 56957, Note_off_c, 0, 70, 100
1, 56957, Note_on_c, 0, 66, 100
1, 57053, Note_off_c, 0, 66, 100
1, 57053, Note_on_c, 0, 63, 100
1, 57149, Note_off_c, 0, 63, 100
1, 57149, Note_on_c, 0, 68, 100
1, 57245, Note_off_c, 0, 68, 100
1, 57245, Note_on_c, 0, 66, 100
1, 57341, Note_off_c, 0, 66, 100
1, 57341, Note_on_c, 0, 67, 100
1, 57437, Note_off_c, 0, 67, 100
1, 57437, Note_on_c, 0, 69, 100
1, 57533, Note_off_c, 0, 69, 100
1, 57533, Note_on_c, 0, 71, 100
1, 57629, Note_off_c, 0, 71, 100
1, 57629, Note_on_c, 0, 72, 100
1, 57725, Note_off_c, 0, 72, 100
1, 57725, Note_on_c, 0, 74, 100
1, 57821, Note_off_c, 0, 74, 100
1, 57821, Note_on_c, 0, 76, 100
1, 57917, Note_off_c, 0, 76, 100
1, 57917, Note_on_c, 0, 78, 100
1, 58013, Note_off_c, 0, 78, 100
1, 59517, Note_on_c, 0, 81, 100
1, 59581, Note_off_c, 0, 81, 100
1, 59581, Note_on_c, 0, 82, 100
1, 59645, Note_off_c, 0, 82, 100
1, 59645, Note_on_c, 0, 81, 100
1, 59709, Note_off_c, 0, 81, 100
1, 59709, Note_on_c, 0, 79, 100
1, 59773, Note_off_c, 0, 79, 100
1, 59773, Note_on_c, 0, 77, 100
1, 59837, Note_off_c, 0, 77, 100
1, 59837, Note_on_c, 0, 78, 100
1, 59965, Note_off_c, 0, 78, 100
1, 59965, Note_on_c, 0, 76, 100
1, 60093, Note_off_c, 0, 76, 100
1, 60093, Note_on_c, 0, 73, 100
1, 60221, Note_off_c, 0, 73, 100
1, 60221, Note_on_c, 0, 74, 100
1, 60285, Note_off_c, 0, 74, 100
1, 60285, Note_on_c, 0, 75, 100
1, 60349, Note_off_c, 0, 75, 100
1, 60349, Note_on_c, 0, 72, 100
1, 60413, Note_off_c, 0, 72, 100
1, 60413, Note_on_c, 0, 71, 100
1, 60541, Note_off_c, 0, 71, 100
1, 60541, Note_on_c, 0, 69, 100
1, 60605, Note_off_c, 0, 69, 100
1, 60605, Note_on_c, 0, 68, 100
1, 60701, Note_off_c, 0, 68, 100
1, 60701, Note_on_c, 0, 69, 100
1, 60797, Note_off_c, 0, 69, 100
1, 60797, Note_on_c, 0, 68, 100
1, 60893, Note_off_c, 0, 68, 100
1, 60893, Note_on_c, 0, 66, 100
1, 60989, Note_off_c, 0, 66, 100
1, 60989, Note_on_c, 0, 63, 100
1, 61053, Note_off_c, 0, 63, 100
1, 61053, Note_on_c, 0, 64, 100
1, 61117, Note_off_c, 0, 64, 100
1, 61117, Note_on_c, 0, 66, 100
1, 61181, Note_off_c, 0, 66, 100
1, 61181, Note_on_c, 0, 67, 100
1, 61245, Note_off_c, 0, 67, 100
1, 61245, Note_on_c, 0, 69, 100
1, 61309, Note_off_c, 0, 69, 100
1, 61309, Note_on_c, 0, 68, 100
1, 61373, Note_off_c, 0, 68, 100
1, 61373, Note_on_c, 0, 72, 100
1, 61526, Note_off_c, 0, 72, 100
1, 61526, Note_on_c, 0, 62, 100
1, 61602, Note_off_c, 0, 62, 100
1, 61602, Note_on_c, 0, 64, 100
1, 61678, Note_off_c, 0, 64, 100
1, 61678, Note_on_c, 0, 67, 100
1, 61754, Note_off_c, 0, 67, 100
1, 61754, Note_on_c, 0, 66, 100
1, 61850, Note_off_c, 0, 66, 100
1, 61850, Note_on_c, 0, 64, 100
1, 61946, Note_off_c, 0, 64, 100
1, 61946, Note_on_c, 0, 63, 100
1, 62042, Note_off_c, 0, 63, 100
1, 62042, Note_on_c, 0, 61, 100
1, 62138, Note_off_c, 0, 61, 100
1, 62138, Note_on_c, 0, 62, 100
1, 62282, Note_off_c, 0, 62, 100
1, 62282, Note_on_c, 0, 71, 100
1, 62426, Note_off_c, 0, 71, 100
1, 62426, Note_on_c, 0, 62, 100
1, 62474, Note_off_c, 0, 62, 100
1, 62474, Note_on_c, 0, 63, 100
1, 62522, Note_off_c, 0, 63, 100
1, 62522, Note_on_c, 0, 64, 100
1, 62714, Note_off_c, 0, 64, 100
1, 62714, Note_on_c, 0, 72, 100
1, 62906, Note_off_c, 0, 72, 100
1, 62906, Note_on_c, 0, 65, 100
1, 63034, Note_off_c, 0, 65, 100
1, 63034, Note_on_c, 0, 66, 100
1, 63162, Note_off_c, 0, 66, 100
1, 63162, Note_on_c, 0, 74, 100
1, 63258, Note_off_c, 0, 74, 100
1, 64058, Note_on_c, 0, 73, 100
1, 64154, Note_off_c, 0, 73, 100
1, 64154, Note_on_c, 0, 74, 100
1, 64250, Note_off_c, 0, 74, 100
1, 64250, Note_on_c, 0, 76, 100
1, 64346, Note_off_c, 0, 76, 100
1, 64346, Note_on_c, 0, 73, 100
1, 64442, Note_off_c, 0, 73, 100
1, 64442, Note_on_c, 0, 74, 100
1, 64595, Note_off_c, 0, 74, 100
1, 64595, Note_on_c, 0, 73, 100
1, 64671, Note_off_c, 0, 73, 100
1, 64671, Note_on_c, 0, 72, 100
1, 64747, Note_off_c, 0, 72, 100
1, 64747, Note_on_c, 0, 71, 100
1, 64823, Note_off_c, 0, 71, 100
1, 64823, Note_on_c, 0, 70, 100
1, 64951, Note_off_c, 0, 70, 100
1, 64951, Note_on_c, 0, 69, 100
1, 65079, Note_off_c, 0, 69, 100
1, 65079, Note_on_c, 0, 67, 100
1, 65207, Note_off_c, 0, 67, 100
1, 65207, Note_on_c, 0, 66, 100
1, 65283, Note_off_c, 0, 66, 100
1, 65283, Note_on_c, 0, 69, 100
1, 65359, Note_off_c, 0, 69, 100
1, 65359, Note_on_c, 0, 66, 100
1, 65435, Note_off_c, 0, 66, 100
1, 65435, Note_on_c, 0, 67, 100
1, 65511, Note_off_c, 0, 67, 100
1, 65511, Note_on_c, 0, 62, 100
1, 65587, Note_off_c, 0, 62, 100
1, 65587, Note_on_c, 0, 58, 100
1, 65683, Note_off_c, 0, 58, 100
1, 65683, Note_on_c, 0, 55, 100
1, 65779, Note_off_c, 0, 55, 100
1, 65779, Note_on_c, 0, 60, 100
1, 65971, Note_off_c, 0, 60, 100
1, 65971, Note_on_c, 0, 58, 100
1, 66099, Note_off_c, 0, 58, 100
1, 66099, Note_on_c, 0, 60, 100
1, 66227, Note_off_c, 0, 60, 100
1, 66227, Note_on_c, 0, 62, 100
1, 66355, Note_off_c, 0, 62, 100
1, 66355, Note_on_c, 0, 69, 100
1, 66431, Note_off_c, 0, 69, 100
1, 66431, Note_on_c, 0, 70, 100
1, 66507, Note_off_c, 0, 70, 100
1, 66507, Note_on_c, 0, 69, 100
1, 66583, Note_off_c, 0, 69, 100
1, 66583, Note_on_c, 0, 67, 100
1, 66659, Note_off_c, 0, 67, 100
1, 66659, Note_on_c, 0, 64, 100
1, 66735, Note_off_c, 0, 64, 100
1, 66735, Note_on_c, 0, 69, 100
1, 66799, Note_off_c, 0, 69, 100
1, 66799, Note_on_c, 0, 70, 100
1, 66863, Note_off_c, 0, 70, 100
1, 66863, Note_on_c, 0, 69, 100
1, 66927, Note_off_c, 0, 69, 100
1, 66927, Note_on_c, 0, 67, 100
1, 67055, Note_off_c, 0, 67, 100
1, 67055, Note_on_c, 0, 64, 100
1, 67119, Note_off_c, 0, 64, 100
1, 67119, Note_on_c, 0, 70, 100
1, 67215, Note_off_c, 0, 70, 100
1, 67215, Note_on_c, 0, 69, 100
1, 67311, Note_off_c, 0, 69, 100
1, 67311, Note_on_c, 0, 67, 100
1, 67407, Note_off_c, 0, 67, 100
1, 67407, Note_on_c, 0, 64, 100
1, 67503, Note_off_c, 0, 64, 100
1, 67503, Note_on_c, 0, 69, 100
1, 67567, Note_off_c, 0, 69, 100
1, 67567, Note_on_c, 0, 70, 100
1, 67631, Note_off_c, 0, 70, 100
1, 67631, Note_on_c, 0, 69, 100
1, 67695, Note_off_c, 0, 69, 100
1, 67695, Note_on_c, 0, 67, 100
1, 67823, Note_off_c, 0, 67, 100
1, 67823, Note_on_c, 0, 64, 100
1, 67951, Note_off_c, 0, 64, 100
1, 67951, Note_on_c, 0, 69, 100
1, 68015, Note_off_c, 0, 69, 100
1, 68015, Note_on_c, 0, 70, 100
1, 68079, Note_off_c, 0, 70, 100
1, 68079, Note_on_c, 0, 69, 100
1, 68143, Note_off_c, 0, 69, 100
1, 68143, Note_on_c, 0, 67, 100
1, 68271, Note_off_c, 0, 67, 100
1, 68271, Note_on_c, 0, 64, 100
1, 68319, Note_off_c, 0, 64, 100
1, 68319, Note_on_c, 0, 69, 100
1, 68367, Note_off_c, 0, 69, 100
1, 68367, Note_on_c, 0, 70, 100
1, 68415, Note_off_c, 0, 70, 100
1, 68415, Note_on_c, 0, 69, 100
1, 68511, Note_off_c, 0, 69, 100
1, 68511, Note_on_c, 0, 67, 100
1, 68607, Note_off_c, 0, 67, 100
1, 68607, Note_on_c, 0, 63, 100
1, 68847, Note_off_c, 0, 63, 100
1, 68847, Note_on_c, 0, 58, 100
1, 68943, Note_off_c, 0, 58, 100
1, 68943, Note_on_c, 0, 60, 100
1, 69039, Note_off_c, 0, 60, 100
1, 69039, Note_on_c, 0, 62, 100
1, 69135, Note_off_c, 0, 62, 100
1, 69135, Note_on_c, 0, 63, 100
1, 69231, Note_off_c, 0, 63, 100
1, 69231, Note_on_c, 0, 65, 100
1, 69327, Note_off_c, 0, 65, 100
1, 69327, Note_on_c, 0, 67, 100
1, 69423, Note_off_c, 0, 67, 100
1, 69423, Note_on_c, 0, 65, 100
1, 69519, Note_off_c, 0, 65, 100
1, 69519, Note_on_c, 0, 66, 100
1, 69615, Note_off_c, 0, 66, 100
1, 70287, Note_on_c, 0, 62, 100
1, 70383, Note_off_c, 0, 62, 100
1, 70383, Note_on_c, 0, 64, 100
1, 70479, Note_off_c, 0, 64, 100
1, 70479, Note_on_c, 0, 65, 100
1, 70575, Note_off_c, 0, 65, 100
1, 70575, Note_on_c, 0, 67, 100
1, 70629, Note_off_c, 0, 67, 100
1, 70629, Note_on_c, 0, 68, 100
1, 70738, Note_off_c, 0, 68, 100
1, 70738, Note_on_c, 0, 70, 100
1, 70792, Note_off_c, 0, 70, 100
1, 70792, Note_on_c, 0, 71, 100
1, 70901, Note_off_c, 0, 71, 100
1, 70901, Note_on_c, 0, 72, 100
1, 70955, Note_off_c, 0, 72, 100
1, 70955, Note_on_c, 0, 74, 100
1, 71051, Note_off_c, 0, 74, 100
1, 71051, Note_on_c, 0, 76, 100
1, 71147, Note_off_c, 0, 76, 100
1, 71147, Note_on_c, 0, 77, 100
1, 71243, Note_off_c, 0, 77, 100
1, 71243, Note_on_c, 0, 75, 100
1, 71339, Note_off_c, 0, 75, 100
1, 71339, Note_on_c, 0, 76, 100
1, 71531, Note_off_c, 0, 76, 100
1, 71531, Note_on_c, 0, 69, 100
1, 71723, Note_off_c, 0, 69, 100
1, 71723, Note_on_c, 0, 69, 100
1, 71819, Note_off_c, 0, 69, 100
1, 72107, Note_on_c, 0, 75, 100
1, 72299, Note_off_c, 0, 75, 100
1, 72299, Note_on_c, 0, 68, 100
1, 72491, Note_off_c, 0, 68, 100
1, 72491, Note_on_c, 0, 68, 100
1, 72587, Note_off_c, 0, 68, 100
1, 73067, Note_on_c, 0, 62, 100
1, 73163, Note_off_c, 0, 62, 100
1, 73163, Note_on_c, 0, 64, 100
1, 73259, Note_off_c, 0, 64, 100
1, 73259, Note_on_c, 0, 66, 100
1, 73355, Note_off_c, 0, 66, 100
1, 73355, Note_on_c, 0, 67, 100
1, 73451, Note_off_c, 0, 67, 100
1, 73451, Note_on_c, 0, 69, 100
1, 73547, Note_off_c, 0, 69, 100
1, 73547, Note_on_c, 0, 66, 100
1, 73643, Note_off_c, 0, 66, 100
1, 73643, Note_on_c, 0, 67, 100
1, 73739, Note_off_c, 0, 67, 100
1, 73739, Note_on_c, 0, 69, 100
1, 73835, Note_off_c, 0, 69, 100
1, 73835, Note_on_c, 0, 71, 100
1, 73931, Note_off_c, 0, 71, 100
1, 73931, Note_on_c, 0, 72, 100
1, 74027, Note_off_c, 0, 72, 100
1, 74027, Note_on_c, 0, 74, 100
1, 74123, Note_off_c, 0, 74, 100
1, 74123, Note_on_c, 0, 72, 100
1, 74219, Note_off_c, 0, 72, 100
1, 74219, Note_on_c, 0, 71, 100
1, 74315, Note_off_c, 0, 71, 100
1, 74315, Note_on_c, 0, 69, 100
1, 74411, Note_off_c, 0, 69, 100
1, 74411, Note_on_c, 0, 67, 100
1, 74603, Note_off_c, 0, 67, 100
1, 74603, Note_on_c, 0, 67, 100
1, 74658, Note_off_c, 0, 67, 100
1, 74658, End_track
0, 0, End_of_file
