0, 0, Header, 1, 1, 192
1, 0, Start_track
1, 0, Title_t, "Melody"
1, 0, Tempo, 428571
1, 0, Key_signature, -3, "major"
1, 0, Time_signature, 4, 2, 24, 8
1, 115, Note_on_c, 0, 73, 100
1, 153, Note_off_c, 0, 73, 100
1, 153, Note_on_c, 0, 74, 100
1, 287, Note_off_c, 0, 74, 100
1, 287, Note_on_c, 0, 73, 100
1, 335, Note_off_c, 0, 73, 100
1, 335, Note_on_c, 0, 74, 100
1, 421, Note_off_c, 0, 74, 100
1, 421, Note_on_c, 0, 73, 100
1, 459, Note_off_c, 0, 73, 100
1, 459, Note_on_c, 0, 74, 100
1, 535, Note_off_c, 0, 74, 100
1, 535, Note_on_c, 0, 73, 100
1, 573, Note_off_c, 0, 73, 100
1, 573, Note_on_c, 0, 74, 100
1, 669, Note_off_c, 0, 74, 100
1, 669, Note_on_c, 0, 72, 100
1, 717, Note_off_c, 0, 72, 100
1, 717, Note_on_c, 0, 74, 100
1, 813, Note_off_c, 0, 74, 100
1, 813, Note_on_c, 0, 74, 100
1, 909, Note_off_c, 0, 74, 100
1, 909, Note_on_c, 0, 77, 100
1, 1005, Note_off_c, 0, 77, 100
1, 1005, Note_on_c, 0, 75, 100
1, 1101, Note_off_c, 0, 75, 100
1, 1101, Note_on_c, 0, 72, 100
1, 1293, Note_off_c, 0, 72, 100
1, 1293, Note_on_c, 0, 67, 100
1, 1341, Note_off_c, 0, 67, 100
1, 1341, Note_on_c, 0, 63, 100
1, 1437, Note_off_c, 0, 63, 100
1, 1437, Note_on_c, 0, 60, 100
1, 1533, Note_off_c, 0, 60, 100
1, 1533, Note_on_c, 0, 65, 100
1, 1629, Note_off_c, 0, 65, 100
1, 1821, Note_on_c, 0, 67, 100
1, 1917, Note_off_c, 0, 67, 100
1, 1917, Note_on_c, 0, 68, 100
1, 2013, Note_off_c, 0, 68, 100
1, 2013, Note_on_c, 0, 69, 100
1, 2109, Note_off_c, 0, 69, 100
1, 2109, Note_on_c, 0, 72, 100
1, 2147, Note_off_c, 0, 72, 100
1, 2147, Note_on_c, 0, 74, 100
1, 2185, Note_off_c, 0, 74, 100
1, 2185, Note_on_c, 0, 72, 100
1, 2261, Note_off_c, 0, 72, 100
1, 2261, Note_on_c, 0, 69, 100
1, 2299, Note_off_c, 0, 69, 100
1, 2299, Note_on_c, 0, 70, 100
1, 2395, Note_off_c, 0, 70, 100
1, 2395, Note_on_c, 0, 58, 100
1, 2491, Note_off_c, 0, 58, 100
1, 2491, Note_on_c, 0, 63, 100
1, 2587, Note_off_c, 0, 63, 100
1, 2587, Note_on_c, 0, 68, 100
1, 2683, Note_off_c, 0, 68, 100
1, 2683, Note_on_c, 0, 67, 100
1, 2779, Note_off_c, 0, 67, 100
1, 2779, Note_on_c, 0, 63, 100
1, 2875, Note_off_c, 0, 63, 100
1, 2875, Note_on_c, 0, 60, 100
1, 2971, Note_off_c, 0, 60, 100
1, 2971, Note_on_c, 0, 56, 100
1, 3067, Note_off_c, 0, 56, 100
1, 3067, Note_on_c, 0, 62, 100
1, 3259, Note_off_c, 0, 62, 100
1, 3259, Note_on_c, 0, 60, 100
1, 3323, Note_off_c, 0, 60, 100
1, 3323, Note_on_c, 0, 62, 100
1, 3387, Note_off_c, 0, 62, 100
1, 3387, Note_on_c, 0, 59, 100
1, 3499, Note_off_c, 0, 59, 100
1, 3499, Note_on_c, 0, 63, 100
1, 3547, Note_off_c, 0, 63, 100
1, 3547, Note_on_c, 0, 65, 100
1, 3595, Note_off_c, 0, 65, 100
1, 3595, Note_on_c, 0, 68, 100
1, 3643, Note_off_c, 0, 68, 100
1, 3643, Note_on_c, 0, 67, 100
1, 4123, Note_off_c, 0, 67, 100
1, 4123, Note_on_c, 0, 73, 100
1, 4171, Note_off_c, 0, 73, 100
1, 4171, Note_on_c, 0, 74, 100
1, 4283, Note_off_c, 0, 74, 100
1, 4283, Note_on_c, 0, 72, 100
1, 4347, Note_off_c, 0, 72, 100
1, 4347, Note_on_c, 0, 67, 100
1, 4411, Note_off_c, 0, 67, 100
1, 4411, Note_on_c, 0, 63, 100
1, 4507, Note_off_c, 0, 63, 100
1, 4507, Note_on_c, 0, 62, 100
1, 4555, Note_off_c, 0, 62, 100
1, 4555, Note_on_c, 0, 66, 100
1, 4699, Note_off_c, 0, 66, 100
1, 4699, Note_on_c, 0, 70, 100
1, 4795, Note_off_c, 0, 70, 100
1, 4795, Note_on_c, 0, 65, 100
1, 4891, Note_off_c, 0, 65, 100
1, 4891, Note_on_c, 0, 63, 100
1, 4987, Note_off_c, 0, 63, 100
1, 4987, Note_on_c, 0, 68, 100
1, 5131, Note_off_c, 0, 68, 100
1, 5131, Note_on_c, 0, 66, 100
1, 5419, Note_off_c, 0, 66, 100
1, 6139, Note_on_c, 0, 79, 100
1, 6235, Note_off_c, 0, 79, 100
1, 6235, Note_on_c, 0, 79, 100
1, 6283, Note_off_c, 0, 79, 100
1, 6283, Note_on_c, 0, 80, 100
1, 6331, Note_off_c, 0, 80, 100
1, 6331, Note_on_c, 0, 79, 100
1, 6427, Note_off_c, 0, 79, 100
1, 6427, Note_on_c, 0, 67, 100
1, 6475, Note_off_c, 0, 67, 100
1, 6475, Note_on_c, 0, 69, 100
1, 6523, Note_off_c, 0, 69, 100
1, 6523, Note_on_c, 0, 71, 100
1, 6619, Note_off_c, 0, 71, 100
1, 6619, Note_on_c, 0, 71, 100
1, 6667, Note_off_c, 0, 71, 100
1, 6667, Note_on_c, 0, 72, 100
1, 6715, Note_off_c, 0, 72, 100
1, 6715, Note_on_c, 0, 71, 100
1, 6763, Note_off_c, 0, 71, 100
1, 6763, Note_on_c, 0, 69, 100
1, 6811, Note_off_c, 0, 69, 100
1, 6811, Note_on_c, 0, 67, 100
1, 6907, Note_off_c, 0, 67, 100
1, 7195, Note_on_c, 0, 79, 100
1, 7291, Note_off_c, 0, 79, 100
1, 7291, Note_on_c, 0, 74, 100
1, 7387, Note_off_c, 0, 74, 100
1, 7387, Note_on_c, 0, 77, 100
1, 7483, Note_off_c, 0, 77, 100
1, 7483, Note_on_c, 0, 75, 100
1, 7579, Note_off_c, 0, 75, 100
1, 7579, Note_on_c, 0, 67, 100
1, 7675, Note_off_c, 0, 67, 100
1, 7675, Note_on_c, 0, 70, 100
1, 7771, Note_off_c, 0, 70, 100
1, 7771, Note_on_c, 0, 68, 100
1, 7867, Note_off_c, 0, 68, 100
1, 7867, Note_on_c, 0, 63, 100
1, 7963, Note_off_c, 0, 63, 100
1, 7963, Note_on_c, 0, 60, 100
1, 8059, Note_off_c, 0, 60, 100
1, 8059, Note_on_c, 0, 59, 100
1, 8155, Note_off_c, 0, 59, 100
1, 8155, Note_on_c, 0, 67, 100
1, 8251, Note_off_c, 0, 67, 100
1, 8251, Note_on_c, 0, 62, 100
1, 8347, Note_off_c, 0, 62, 100
1, 8347, Note_on_c, 0, 58, 100
1, 8443, Note_off_c, 0, 58, 100
1, 8443, Note_on_c, 0, 65, 100
1, 8539, Note_off_c, 0, 65, 100
1, 8539, Note_on_c, 0, 62, 100
1, 8635, Note_off_c, 0, 62, 100
1, 8635, Note_on_c, 0, 63, 100
1, 8699, Note_off_c, 0, 63, 100
1, 8699, Note_on_c, 0, 67, 100
1, 8763, Note_off_c, 0, 67, 100
1, 8763, Note_on_c, 0, 70, 100
1, 8875, Note_off_c, 0, 70, 100
1, 8875, Note_on_c, 0, 74, 100
1, 8971, Note_off_c, 0, 74, 100
1, 8971, Note_on_c, 0, 77, 100
1, 9019, Note_off_c, 0, 77, 100
1, 9019, Note_on_c, 0, 75, 100
1, 9115, Note_off_c, 0, 75, 100
1, 9115, Note_on_c, 0, 73, 100
1, 9211, Note_off_c, 0, 73, 100
1, 9211, Note_on_c, 0, 74, 100
1, 9403, Note_off_c, 0, 74, 100
1, 9403, Note_on_c, 0, 72, 100
1, 9451, Note_off_c, 0, 72, 100
1, 9451, Note_on_c, 0, 74, 100
1, 9547, Note_off_c, 0, 74, 100
1, 9547, Note_on_c, 0, 71, 100
1, 9691, Note_off_c, 0, 71, 100
1, 9691, Note_on_c, 0, 62, 100
1, 9787, Note_off_c, 0, 62, 100
1, 9787, Note_on_c, 0, 65, 100
1, 9883, Note_off_c, 0, 65, 100
1, 9883, Note_on_c, 0, 70, 100
1, 9979, Note_off_c, 0, 70, 100
1, 9979, Note_on_c, 0, 67, 100
1, 10171, Note_off_c, 0, 67, 100
1, 10171, Note_on_c, 0, 65, 100
1, 10235, Note_off_c, 0, 65, 100
1, 10235, Note_on_c, 0, 67, 100
1, 10299, Note_off_c, 0, 67, 100
1, 10299, Note_on_c, 0, 63, 100
1, 10459, Note_off_c, 0, 63, 100
1, 10459, Note_on_c, 0, 59, 100
1, 10555, Note_off_c, 0, 59, 100
1, 10555, Note_on_c, 0, 62, 100
1, 10651, Note_off_c, 0, 62, 100
1, 10651, Note_on_c, 0, 60, 100
1, 10747, Note_off_c, 0, 60, 100
1, 10747, Note_on_c, 0, 66, 100
1, 10843, Note_off_c, 0, 66, 100
1, 10843, Note_on_c, 0, 63, 100
1, 10891, Note_off_c, 0, 63, 100
1, 10891, Note_on_c, 0, 56, 100
1, 10939, Note_off_c, 0, 56, 100
1, 10939, Note_on_c, 0, 58, 100
1, 11035, Note_off_c, 0, 58, 100
1, 11035, Note_on_c, 0, 60, 100
1, 11131, Note_off_c, 0, 60, 100
1, 11131, Note_on_c, 0, 63, 100
1, 11227, Note_off_c, 0, 63, 100
1, 11227, Note_on_c, 0, 65, 100
1, 11323, Note_off_c, 0, 65, 100
1, 11323, Note_on_c, 0, 70, 100
1, 11419, Note_off_c, 0, 70, 100
1, 11419, Note_on_c, 0, 66, 100
1, 11515, Note_off_c, 0, 66, 100
1, 11515, Note_on_c, 0, 68, 100
1, 11707, Note_off_c, 0, 68, 100
1, 12187, Note_on_c, 0, 80, 100
1, 12283, Note_off_c, 0, 80, 100
1, 12283, Note_on_c, 0, 79, 100
1, 12379, Note_off_c, 0, 79, 100
1, 12379, Note_on_c, 0, 80, 100
1, 12475, Note_off_c, 0, 80, 100
1, 12475, Note_on_c, 0, 79, 100
1, 12571, Note_off_c, 0, 79, 100
1, 12571, Note_on_c, 0, 77, 100
1, 12667, Note_off_c, 0, 77, 100
1, 12667, Note_on_c, 0, 76, 100
1, 12763, Note_off_c, 0, 76, 100
1, 12763, Note_on_c, 0, 74, 100
1, 12859, Note_off_c, 0, 74, 100
1, 12859, Note_on_c, 0, 72, 100
1, 12955, Note_off_c, 0, 72, 100
1, 12955, Note_on_c, 0, 70, 100
1, 13051, Note_off_c, 0, 70, 100
1, 13051, Note_on_c, 0, 67, 100
1, 13115, Note_off_c, 0, 67, 100
1, 13115, Note_on_c, 0, 69, 100
1, 13179, Note_off_c, 0, 69, 100
1, 13179, Note_on_c, 0, 60, 100
1, 13243, Note_off_c, 0, 60, 100
1, 13243, Note_on_c, 0, 63, 100
1, 13339, Note_off_c, 0, 63, 100
1, 13339, Note_on_c, 0, 67, 100
1, 13435, Note_off_c, 0, 67, 100
1, 13435, Note_on_c, 0, 65, 100
1, 13531, Note_off_c, 0, 65, 100
1, 13531, Note_on_c, 0, 58, 100
1, 13627, Note_off_c, 0, 58, 100
1, 13627, Note_on_c, 0, 62, 100
1, 13691, Note_off_c, 0, 62, 100
1, 13691, Note_on_c, 0, 65, 100
1, 13755, Note_off_c, 0, 65, 100
1, 13755, Note_on_c, 0, 68, 100
1, 13867, Note_off_c, 0, 68, 100
1, 13867, Note_on_c, 0, 71, 100
1, 13963, Note_off_c, 0, 71, 100
1, 13963, Note_on_c, 0, 70, 100
1, 14059, Note_off_c, 0, 70, 100
1, 14059, Note_on_c, 0, 63, 100
1, 14347, Note_off_c, 0, 63, 100
1, 14347, Note_on_c, 0, 70, 100
1, 14395, Note_off_c, 0, 70, 100
1, 14395, Note_on_c, 0, 68, 100
1, 14491, Note_off_c, 0, 68, 100
1, 14491, Note_on_c, 0, 66, 100
1, 14587, Note_off_c, 0, 66, 100
1, 14587, Note_on_c, 0, 65, 100
1, 14683, Note_off_c, 0, 65, 100
1, 14683, Note_on_c, 0, 56, 100
1, 14779, Note_off_c, 0, 56, 100
1, 14779, Note_on_c, 0, 63, 100
1, 14843, Note_off_c, 0, 63, 100
1, 14843, Note_on_c, 0, 60, 100
1, 14907, Note_off_c, 0, 60, 100
1, 14907, Note_on_c, 0, 61, 100
1, 15195, Note_off_c, 0, 61, 100
1, 15355, Note_on_c, 0, 65, 100
1, 15393, Note_off_c, 0, 65, 100
1, 15393, Note_on_c, 0, 67, 100
1, 15431, Note_off_c, 0, 67, 100
1, 15431, Note_on_c, 0, 69, 100
1, 15469, Note_off_c, 0, 69, 100
1, 15469, Note_on_c, 0, 70, 100
1, 15507, Note_off_c, 0, 70, 100
1, 15507, Note_on_c, 0, 72, 100
1, 15545, Note_off_c, 0, 72, 100
1, 15545, Note_on_c, 0, 69, 100
1, 15609, Note_off_c, 0, 69, 100
1, 15609, Note_on_c, 0, 67, 100
1, 15673, Note_off_c, 0, 67, 100
1, 15673, Note_on_c, 0, 65, 100
1, 15737, Note_off_c, 0, 65, 100
1, 15737, Note_on_c, 0, 68, 100
1, 15775, Note_off_c, 0, 68, 100
1, 15775, Note_on_c, 0, 70, 100
1, 15813, Note_off_c, 0, 70, 100
1, 15813, Note_on_c, 0, 68, 100
1, 15851, Note_off_c, 0, 68, 100
1, 15851, Note_on_c, 0, 67, 100
1, 15889, Note_off_c, 0, 67, 100
1, 15889, Note_on_c, 0, 64, 100
1, 15927, Note_off_c, 0, 64, 100
1, 15927, Note_on_c, 0, 65, 100
1, 16023, Note_off_c, 0, 65, 100
1, 16023, Note_on_c, 0, 70, 100
1, 16119, Note_off_c, 0, 70, 100
1, 16119, Note_on_c, 0, 63, 100
1, 16167, Note_off_c, 0, 63, 100
1, 16167, Note_on_c, 0, 65, 100
1, 16215, Note_off_c, 0, 65, 100
1, 16215, Note_on_c, 0, 67, 100
1, 16263, Note_off_c, 0, 67, 100
1, 16263, Note_on_c, 0, 68, 100
1, 16311, Note_off_c, 0, 68, 100
1, 16311, Note_on_c, 0, 70, 100
1, 16349, Note_off_c, 0, 70, 100
1, 16349, Note_on_c, 0, 67, 100
1, 16387, Note_off_c, 0, 67, 100
1, 16387, Note_on_c, 0, 65, 100
1, 16425, Note_off_c, 0, 65, 100
1, 16425, Note_on_c, 0, 63, 100
1, 16463, Note_off_c, 0, 63, 100
1, 16463, Note_on_c, 0, 68, 100
1, 16501, Note_off_c, 0, 68, 100
1, 16501, Note_on_c, 0, 70, 100
1, 16549, Note_off_c, 0, 70, 100
1, 16549, Note_on_c, 0, 68, 100
1, 16597, Note_off_c, 0, 68, 100
1, 16597, Note_on_c, 0, 65, 100
1, 16645, Note_off_c, 0, 65, 100
1, 16645, Note_on_c, 0, 66, 100
1, 16693, Note_off_c, 0, 66, 100
1, 16693, Note_on_c, 0, 65, 100
1, 16789, Note_off_c, 0, 65, 100
1, 16789, Note_on_c, 0, 60, 100
1, 16981, Note_off_c, 0, 60, 100
1, 16981, Note_on_c, 0, 63, 100
1, 17029, Note_off_c, 0, 63, 100
1, 17029, Note_on_c, 0, 59, 100
1, 17077, Note_off_c, 0, 59, 100
1, 17077, Note_on_c, 0, 62, 100
1, 17109, Note_off_c, 0, 62, 100
1, 17109, Note_on_c, 0, 65, 100
1, 17141, Note_off_c, 0, 65, 100
1, 17141, Note_on_c, 0, 64, 100
1, 17173, Note_off_c, 0, 64, 100
1, 17173, Note_on_c, 0, 65, 100
1, 17205, Note_off_c, 0, 65, 100
1, 17205, Note_on_c, 0, 67, 100
1, 17237, Note_off_c, 0, 67, 100
1, 17237, Note_on_c, 0, 70, 100
1, 17269, Note_off_c, 0, 70, 100
1, 17269, Note_on_c, 0, 73, 100
1, 17317, Note_off_c, 0, 73, 100
1, 17317, Note_on_c, 0, 74, 100
1, 17365, Note_off_c, 0, 74, 100
1, 17365, Note_on_c, 0, 73, 100
1, 17413, Note_off_c, 0, 73, 100
1, 17413, Note_on_c, 0, 71, 100
1, 17605, Note_off_c, 0, 71, 100
1, 17605, Note_on_c, 0, 68, 100
1, 17653, Note_off_c, 0, 68, 100
1, 17653, Note_on_c, 0, 70, 100
1, 17749, Note_off_c, 0, 70, 100
1, 17749, Note_on_c, 0, 68, 100
1, 17797, Note_off_c, 0, 68, 100
1, 17797, Note_on_c, 0, 65, 100
1, 17845, Note_off_c, 0, 65, 100
1, 17845, Note_on_c, 0, 66, 100
1, 17893, Note_off_c, 0, 66, 100
1, 17893, Note_on_c, 0, 59, 100
1, 17989, Note_off_c, 0, 59, 100
1, 18325, Note_on_c, 0, 74, 100
1, 18421, Note_off_c, 0, 74, 100
1, 18421, Note_on_c, 0, 79, 100
1, 18517, Note_off_c, 0, 79, 100
1, 18517, Note_on_c, 0, 80, 100
1, 19093, Note_off_c, 0, 80, 100
1, 19093, Note_on_c, 0, 79, 100
1, 19189, Note_off_c, 0, 79, 100
1, 19189, Note_on_c, 0, 83, 100
1, 19237, Note_off_c, 0, 83, 100
1, 19237, Note_on_c, 0, 84, 100
1, 19333, Note_off_c, 0, 84, 100
1, 19333, Note_on_c, 0, 77, 100
1, 19429, Note_off_c, 0, 77, 100
1, 19861, Note_on_c, 0, 75, 100
1, 19957, Note_off_c, 0, 75, 100
1, 19957, Note_on_c, 0, 72, 100
1, 20053, Note_off_c, 0, 72, 100
1, 20053, Note_on_c, 0, 67, 100
1, 20149, Note_off_c, 0, 67, 100
1, 20149, Note_on_c, 0, 66, 100
1, 20245, Note_off_c, 0, 66, 100
1, 20245, Note_on_c, 0, 65, 100
1, 20341, Note_off_c, 0, 65, 100
1, 20341, Note_on_c, 0, 63, 100
1, 20405, Note_off_c, 0, 63, 100
1, 20405, Note_on_c, 0, 65, 100
1, 20469, Note_off_c, 0, 65, 100
1, 20469, Note_on_c, 0, 63, 100
1, 20533, Note_off_c, 0, 63, 100
1, 20533, Note_on_c, 0, 60, 100
1, 20661, Note_off_c, 0, 60, 100
1, 20661, Note_on_c, 0, 63, 100
1, 20757, Note_off_c, 0, 63, 100
1, 21301, Note_on_c, 0, 79, 100
1, 21397, Note_off_c, 0, 79, 100
1, 21397, Note_on_c, 0, 84, 100
1, 21493, Note_off_c, 0, 84, 100
1, 21493, Note_on_c, 0, 78, 100
1, 21685, Note_off_c, 0, 78, 100
1, 21685, Note_on_c, 0, 77, 100
1, 21781, Note_off_c, 0, 77, 100
1, 21781, Note_on_c, 0, 75, 100
1, 21877, Note_off_c, 0, 75, 100
1, 21877, Note_on_c, 0, 77, 100
1, 21973, Note_off_c, 0, 77, 100
1, 21973, Note_on_c, 0, 75, 100
1, 22069, Note_off_c, 0, 75, 100
1, 22069, Note_on_c, 0, 72, 100
1, 22165, Note_off_c, 0, 72, 100
1, 22165, Note_on_c, 0, 67, 100
1, 22261, Note_off_c, 0, 67, 100
1, 22261, Note_on_c, 0, 66, 100
1, 22357, Note_off_c, 0, 66, 100
1, 22357, Note_on_c, 0, 65, 100
1, 22453, Note_off_c, 0, 65, 100
1, 22453, Note_on_c, 0, 63, 100
1, 22549, Note_off_c, 0, 63, 100
1, 22549, Note_on_c, 0, 60, 100
1, 22645, Note_off_c, 0, 60, 100
1, 22645, Note_on_c, 0, 63, 100
1, 22741, Note_off_c, 0, 63, 100
1, 22741, Note_on_c, 0, 65, 100
1, 22837, Note_off_c, 0, 65, 100
1, 22837, Note_on_c, 0, 67, 100
1, 22965, Note_off_c, 0, 67, 100
1, 22965, Note_on_c, 0, 63, 100
1, 23029, Note_off_c, 0, 63, 100
1, 23029, Note_on_c, 0, 64, 100
1, 23125, Note_off_c, 0, 64, 100
1, 23125, Note_on_c, 0, 68, 100
1, 23413, Note_off_c, 0, 68, 100
1, 23413, Note_on_c, 0, 66, 100
1, 23509, Note_off_c, 0, 66, 100
1, 23509, Note_on_c, 0, 70, 100
1, 23605, Note_off_c, 0, 70, 100
1, 23605, Note_on_c, 0, 65, 100
1, 23701, Note_off_c, 0, 65, 100
1, 23701, Note_on_c, 0, 60, 100
1, 23797, Note_off_c, 0, 60, 100
1, 23797, Note_on_c, 0, 68, 100
1, 23893, Note_off_c, 0, 68, 100
1, 24661, Note_on_c, 0, 67, 100
1, 24709, Note_off_c, 0, 67, 100
1, 24709, Note_on_c, 0, 69, 100
1, 24757, Note_off_c, 0, 69, 100
1, 24757, Note_on_c, 0, 71, 100
1, 24795, Note_off_c, 0, 71, 100
1, 24795, Note_on_c, 0, 72, 100
1, 24833, Note_off_c, 0, 72, 100
1, 24833, Note_on_c, 0, 74, 100
1, 24871, Note_off_c, 0, 74, 100
1, 24871, Note_on_c, 0, 71, 100
1, 24909, Note_off_c, 0, 71, 100
1, 24909, Note_on_c, 0, 72, 100
1, 24995, Note_off_c, 0, 72, 100
1, 24995, Note_on_c, 0, 74, 100
1, 25043, Note_off_c, 0, 74, 100
1, 25043, Note_on_c, 0, 75, 100
1, 25091, Note_off_c, 0, 75, 100
1, 25091, Note_on_c, 0, 77, 100
1, 25139, Note_off_c, 0, 77, 100
1, 25139, Note_on_c, 0, 79, 100
1, 25187, Note_off_c, 0, 79, 100
1, 25187, Note_on_c, 0, 75, 100
1, 25235, Note_off_c, 0, 75, 100
1, 25235, Note_on_c, 0, 74, 100
1, 25283, Note_off_c, 0, 74, 100
1, 25283, Note_on_c, 0, 72, 100
1, 25331, Note_off_c, 0, 72, 100
1, 25331, Note_on_c, 0, 77, 100
1, 25379, Note_off_c, 0, 77, 100
1, 25379, Note_on_c, 0, 74, 100
1, 25427, Note_off_c, 0, 74, 100
1, 25427, Note_on_c, 0, 75, 100
1, 25475, Note_off_c, 0, 75, 100
1, 25475, Note_on_c, 0, 71, 100
1, 25571, Note_off_c, 0, 71, 100
1, 25571, Note_on_c, 0, 74, 100
1, 25619, Note_off_c, 0, 74, 100
1, 25619, Note_on_c, 0, 73, 100
1, 25667, Note_off_c, 0, 73, 100
1, 25667, Note_on_c, 0, 71, 100
1, 25715, Note_off_c, 0, 71, 100
1, 25715, Note_on_c, 0, 72, 100
1, 25763, Note_off_c, 0, 72, 100
1, 25763, Note_on_c, 0, 67, 100
1, 25811, Note_off_c, 0, 67, 100
1, 25811, Note_on_c, 0, 65, 100
1, 25859, Note_off_c, 0, 65, 100
1, 25859, Note_on_c, 0, 64, 100
1, 25907, Note_off_c, 0, 64, 100
1, 25907, Note_on_c, 0, 63, 100
1, 25939, Note_off_c, 0, 63, 100
1, 25939, Note_on_c, 0, 67, 100
1, 26003, Note_off_c, 0, 67, 100
1, 26003, Note_on_c, 0, 62, 100
1, 26035, Note_off_c, 0, 62, 100
1, 26035, Note_on_c, 0, 60, 100
1, 26099, Note_off_c, 0, 60, 100
1, 26099, Note_on_c, 0, 62, 100
1, 26147, Note_off_c, 0, 62, 100
1, 26147, Note_on_c, 0, 63, 100
1, 26195, Note_off_c, 0, 63, 100
1, 26195, Note_on_c, 0, 65, 100
1, 26243, Note_off_c, 0, 65, 100
1, 26243, Note_on_c, 0, 67, 100
1, 26291, Note_off_c, 0, 67, 100
1, 26291, Note_on_c, 0, 64, 100
1, 26355, Note_off_c, 0, 64, 100
1, 26355, Note_on_c, 0, 65, 100
1, 26419, Note_off_c, 0, 65, 100
1, 26419, Note_on_c, 0, 67, 100
1, 26483, Note_off_c, 0, 67, 100
1, 26483, Note_on_c, 0, 68, 100
1, 26531, Note_off_c, 0, 68, 100
1, 26531, Note_on_c, 0, 70, 100
1, 26579, Note_off_c, 0, 70, 100
1, 26579, Note_on_c, 0, 72, 100
1, 26627, Note_off_c, 0, 72, 100
1, 26627, Note_on_c, 0, 71, 100
1, 26675, Note_off_c, 0, 71, 100
1, 26675, Note_on_c, 0, 70, 100
1, 26723, Note_off_c, 0, 70, 100
1, 26723, Note_on_c, 0, 68, 100
1, 26771, Note_off_c, 0, 68, 100
1, 26771, Note_on_c, 0, 67, 100
1, 26819, Note_off_c, 0, 67, 100
1, 26819, Note_on_c, 0, 65, 100
1, 26867, Note_off_c, 0, 65, 100
1, 26867, Note_on_c, 0, 63, 100
1, 26915, Note_off_c, 0, 63, 100
1, 26915, Note_on_c, 0, 58, 100
1, 26963, Note_off_c, 0, 58, 100
1, 26963, Note_on_c, 0, 60, 100
1, 27011, Note_off_c, 0, 60, 100
1, 27011, Note_on_c, 0, 62, 100
1, 27059, Note_off_c, 0, 62, 100
1, 27059, Note_on_c, 0, 63, 100
1, 27107, Note_off_c, 0, 63, 100
1, 27107, Note_on_c, 0, 65, 100
1, 27155, Note_off_c, 0, 65, 100
1, 27155, Note_on_c, 0, 67, 100
1, 27203, Note_off_c, 0, 67, 100
1, 27203, Note_on_c, 0, 68, 100
1, 27251, Note_off_c, 0, 68, 100
1, 27251, Note_on_c, 0, 70, 100
1, 27289, Note_off_c, 0, 70, 100
1, 27289, Note_on_c, 0, 58, 100
1, 27327, Note_off_c, 0, 58, 100
1, 27327, Note_on_c, 0, 60, 100
1, 27365, Note_off_c, 0, 60, 100
1, 27365, Note_on_c, 0, 62, 100
1, 27403, Note_off_c, 0, 62, 100
1, 27403, Note_on_c, 0, 63, 100
1, 27441, Note_off_c, 0, 63, 100
1, 27441, Note_on_c, 0, 65, 100
1, 27489, Note_off_c, 0, 65, 100
1, 27489, Note_on_c, 0, 67, 100
1, 27537, Note_off_c, 0, 67, 100
1, 27537, Note_on_c, 0, 68, 100
1, 27585, Note_off_c, 0, 68, 100
1, 27585, Note_on_c, 0, 70, 100
1, 27633, Note_off_c, 0, 70, 100
1, 27633, Note_on_c, 0, 67, 100
1, 27681, Note_off_c, 0, 67, 100
1, 27681, Note_on_c, 0, 68, 100
1, 27729, Note_off_c, 0, 68, 100
1, 27729, Note_on_c, 0, 65, 100
1, 27777, Note_off_c, 0, 65, 100
1, 27777, Note_on_c, 0, 67, 100
1, 27863, Note_off_c, 0, 67, 100
1, 27863, Note_on_c, 0, 63, 100
1, 27901, Note_off_c, 0, 63, 100
1, 27901, Note_on_c, 0, 65, 100
1, 27939, Note_off_c, 0, 65, 100
1, 27939, Note_on_c, 0, 62, 100
1, 27977, Note_off_c, 0, 62, 100
1, 27977, Note_on_c, 0, 63, 100
1, 28015, Note_off_c, 0, 63, 100
1, 28015, Note_on_c, 0, 60, 100
1, 28079, Note_off_c, 0, 60, 100
1, 28079, Note_on_c, 0, 62, 100
1, 28143, Note_off_c, 0, 62, 100
1, 28143, Note_on_c, 0, 59, 100
1, 28207, Note_off_c, 0, 59, 100
1, 28207, Note_on_c, 0, 59, 100
1, 28437, Note_off_c, 0, 59, 100
1, 28437, Note_on_c, 0, 68, 100
1, 28475, Note_off_c, 0, 68, 100
1, 28475, Note_on_c, 0, 65, 100
1, 28513, Note_off_c, 0, 65, 100
1, 28513, Note_on_c, 0, 66, 100
1, 28551, Note_off_c, 0, 66, 100
1, 28551, Note_on_c, 0, 67, 100
1, 28621, Note_off_c, 0, 67, 100
1, 28621, Note_on_c, 0, 69, 100
1, 28653, Note_off_c, 0, 69, 100
1, 28653, Note_on_c, 0, 71, 100
1, 28685, Note_off_c, 0, 71, 100
1, 28685, Note_on_c, 0, 72, 100
1, 28717, Note_off_c, 0, 72, 100
1, 28717, Note_on_c, 0, 73, 100
1, 28749, Note_off_c, 0, 73, 100
1, 28749, Note_on_c, 0, 74, 100
1, 28819, Note_off_c, 0, 74, 100
1, 28819, Note_on_c, 0, 71, 100
1, 28857, Note_off_c, 0, 71, 100
1, 28857, Note_on_c, 0, 72, 100
1, 28895, Note_off_c, 0, 72, 100
1, 28895, Note_on_c, 0, 74, 100
1, 28933, Note_off_c, 0, 74, 100
1, 28933, Note_on_c, 0, 75, 100
1, 29019, Note_off_c, 0, 75, 100
1, 29019, Note_on_c, 0, 72, 100
1, 29067, Note_off_c, 0, 72, 100
1, 29067, Note_on_c, 0, 68, 100
1, 29115, Note_off_c, 0, 68, 100
1, 29115, Note_on_c, 0, 67, 100
1, 29163, Note_off_c, 0, 67, 100
1, 29163, Note_on_c, 0, 66, 100
1, 29259, Note_off_c, 0, 66, 100
1, 29259, Note_on_c, 0, 65, 100
1, 29355, Note_off_c, 0, 65, 100
1, 29355, Note_on_c, 0, 70, 100
1, 29403, Note_off_c, 0, 70, 100
1, 29403, Note_on_c, 0, 65, 100
1, 29451, Note_off_c, 0, 65, 100
1, 29451, Note_on_c, 0, 64, 100
1, 29499, Note_off_c, 0, 64, 100
1, 29499, Note_on_c, 0, 63, 100
1, 29585, Note_off_c, 0, 63, 100
1, 29585, Note_on_c, 0, 60, 100
1, 29623, Note_off_c, 0, 60, 100
1, 29623, Note_on_c, 0, 58, 100
1, 29661, Note_off_c, 0, 58, 100
1, 29661, Note_on_c, 0, 68, 100
1, 29757, Note_off_c, 0, 68, 100
1, 30265, Note_on_c, 0, 79, 100
1, 30313, Note_off_c, 0, 79, 100
1, 30313, Note_on_c, 0, 80, 100
1, 30505, Note_off_c, 0, 80, 100
1, 30793, Note_on_c, 0, 79, 100
1, 30889, Note_off_c, 0, 79, 100
1, 30889, Note_on_c, 0, 85, 100
1, 30937, Note_off_c, 0, 85, 100
1, 30937, Note_on_c, 0, 87, 100
1, 31273, Note_off_c, 0, 87, 100
1, 31273, Note_on_c, 0, 87, 100
1, 31369, Note_off_c, 0, 87, 100
1, 31369, Note_on_c, 0, 86, 100
1, 31465, Note_off_c, 0, 86, 100
1, 31465, Note_on_c, 0, 84, 100
1, 31609, Note_off_c, 0, 84, 100
1, 31609, Note_on_c, 0, 79, 100
1, 31801, Note_off_c, 0, 79, 100
1, 32041, Note_on_c, 0, 79, 100
1, 32137, Note_off_c, 0, 79, 100
1, 32137, Note_on_c, 0, 78, 100
1, 32233, Note_off_c, 0, 78, 100
1, 32233, Note_on_c, 0, 77, 100
1, 32329, Note_off_c, 0, 77, 100
1, 32329, Note_on_c, 0, 75, 100
1, 32425, Note_off_c, 0, 75, 100
1, 32425, Note_on_c, 0, 72, 100
1, 32521, Note_off_c, 0, 72, 100
1, 32521, Note_on_c, 0, 73, 100
1, 32617, Note_off_c, 0, 73, 100
1, 32617, Note_on_c, 0, 74, 100
1, 32713, Note_off_c, 0, 74, 100
1, 32713, Note_on_c, 0, 73, 100
1, 32809, Note_off_c, 0, 73, 100
1, 32809, Note_on_c, 0, 74, 100
1, 32857, Note_off_c, 0, 74, 100
1, 32857, Note_on_c, 0, 72, 100
1, 32905, Note_off_c, 0, 72, 100
1, 32905, Note_on_c, 0, 71, 100
1, 33001, Note_off_c, 0, 71, 100
1, 33001, Note_on_c, 0, 70, 100
1, 33129, Note_off_c, 0, 70, 100
1, 33129, Note_on_c, 0, 58, 100
1, 33193, Note_off_c, 0, 58, 100
1, 33193, Note_on_c, 0, 63, 100
1, 33321, Note_off_c, 0, 63, 100
1, 33321, Note_on_c, 0, 68, 100
1, 33385, Note_off_c, 0, 68, 100
1, 33385, Note_on_c, 0, 70, 100
1, 33433, Note_off_c, 0, 70, 100
1, 33433, Note_on_c, 0, 68, 100
1, 33481, Note_off_c, 0, 68, 100
1, 33481, Note_on_c, 0, 66, 100
1, 33577, Note_off_c, 0, 66, 100
1, 33577, Note_on_c, 0, 67, 100
1, 33705, Note_off_c, 0, 67, 100
1, 33705, Note_on_c, 0, 57, 100
1, 33769, Note_off_c, 0, 57, 100
1, 33769, Note_on_c, 0, 62, 100
1, 33865, Note_off_c, 0, 62, 100
1, 33865, Note_on_c, 0, 65, 100
1, 33961, Note_off_c, 0, 65, 100
1, 33961, Note_on_c, 0, 70, 100
1, 34009, Note_off_c, 0, 70, 100
1, 34009, Note_on_c, 0, 68, 100
1, 34057, Note_off_c, 0, 68, 100
1, 34057, Note_on_c, 0, 65, 100
1, 34105, Note_off_c, 0, 65, 100
1, 34105, Note_on_c, 0, 63, 100
1, 34153, Note_off_c, 0, 63, 100
1, 34153, Note_on_c, 0, 62, 100
1, 34249, Note_off_c, 0, 62, 100
1, 34249, Note_on_c, 0, 55, 100
1, 34345, Note_off_c, 0, 55, 100
1, 34345, Note_on_c, 0, 59, 100
1, 34473, Note_off_c, 0, 59, 100
1, 34473, Note_on_c, 0, 62, 100
1, 34537, Note_off_c, 0, 62, 100
1, 34537, Note_on_c, 0, 63, 100
1, 34575, Note_off_c, 0, 63, 100
1, 34575, Note_on_c, 0, 65, 100
1, 34613, Note_off_c, 0, 65, 100
1, 34613, Note_on_c, 0, 63, 100
1, 34651, Note_off_c, 0, 63, 100
1, 34651, Note_on_c, 0, 62, 100
1, 34689, Note_off_c, 0, 62, 100
1, 34689, Note_on_c, 0, 59, 100
1, 34727, Note_off_c, 0, 59, 100
1, 34727, Note_on_c, 0, 60, 100
1, 34823, Note_off_c, 0, 60, 100
1, 34823, Note_on_c, 0, 62, 100
1, 34919, Note_off_c, 0, 62, 100
1, 34919, Note_on_c, 0, 63, 100
1, 35015, Note_off_c, 0, 63, 100
1, 35015, Note_on_c, 0, 65, 100
1, 35111, Note_off_c, 0, 65, 100
1, 35111, Note_on_c, 0, 67, 100
1, 35207, Note_off_c, 0, 67, 100
1, 35207, Note_on_c, 0, 68, 100
1, 35303, Note_off_c, 0, 68, 100
1, 35303, Note_on_c, 0, 69, 100
1, 35351, Note_off_c, 0, 69, 100
1, 35351, Note_on_c, 0, 70, 100
1, 35495, Note_off_c, 0, 70, 100
1, 35495, Note_on_c, 0, 66, 100
1, 35543, Note_off_c, 0, 66, 100
1, 35543, Note_on_c, 0, 65, 100
1, 35591, Note_off_c, 0, 65, 100
1, 35591, Note_on_c, 0, 63, 100
1, 35687, Note_off_c, 0, 63, 100
1, 35687, Note_on_c, 0, 68, 100
1, 35815, Note_off_c, 0, 68, 100
1, 35815, Note_on_c, 0, 66, 100
1, 36103, Note_off_c, 0, 66, 100
1, 36935, Note_on_c, 0, 67, 100
1, 36983, Note_off_c, 0, 67, 100
1, 36983, Note_on_c, 0, 69, 100
1, 37031, Note_off_c, 0, 69, 100
1, 37031, Note_on_c, 0, 71, 100
1, 37079, Note_off_c, 0, 71, 100
1, 37079, Note_on_c, 0, 72, 100
1, 37127, Note_off_c, 0, 72, 100
1, 37127, Note_on_c, 0, 74, 100
1, 37175, Note_off_c, 0, 74, 100
1, 37175, Note_on_c, 0, 73, 100
1, 37223, Note_off_c, 0, 73, 100
1, 37223, Note_on_c, 0, 72, 100
1, 37271, Note_off_c, 0, 72, 100
1, 37271, Note_on_c, 0, 69, 100
1, 37319, Note_off_c, 0, 69, 100
1, 37319, Note_on_c, 0, 70, 100
1, 37559, Note_off_c, 0, 70, 100
1, 37559, Note_on_c, 0, 68, 100
1, 37607, Note_off_c, 0, 68, 100
1, 37607, Note_on_c, 0, 69, 100
1, 37645, Note_off_c, 0, 69, 100
1, 37645, Note_on_c, 0, 67, 100
1, 37683, Note_off_c, 0, 67, 100
1, 37683, Note_on_c, 0, 66, 100
1, 37721, Note_off_c, 0, 66, 100
1, 37721, Note_on_c, 0, 64, 100
1, 37759, Note_off_c, 0, 64, 100
1, 37759, Note_on_c, 0, 65, 100
1, 37829, Note_off_c, 0, 65, 100
1, 37829, Note_on_c, 0, 67, 100
1, 37893, Note_off_c, 0, 67, 100
1, 37893, Note_on_c, 0, 68, 100
1, 37925, Note_off_c, 0, 68, 100
1, 37925, Note_on_c, 0, 70, 100
1, 37957, Note_off_c, 0, 70, 100
1, 37957, Note_on_c, 0, 72, 100
1, 37989, Note_off_c, 0, 72, 100
1, 37989, Note_on_c, 0, 71, 100
1, 38037, Note_off_c, 0, 71, 100
1, 38037, Note_on_c, 0, 70, 100
1, 38085, Note_off_c, 0, 70, 100
1, 38085, Note_on_c, 0, 68, 100
1, 38133, Note_off_c, 0, 68, 100
1, 38133, Note_on_c, 0, 67, 100
1, 38219, Note_off_c, 0, 67, 100
1, 38219, Note_on_c, 0, 65, 100
1, 38257, Note_off_c, 0, 65, 100
1, 38257, Note_on_c, 0, 64, 100
1, 38295, Note_off_c, 0, 64, 100
1, 38295, Note_on_c, 0, 62, 100
1, 38333, Note_off_c, 0, 62, 100
1, 38333, Note_on_c, 0, 63, 100
1, 38371, Note_off_c, 0, 63, 100
1, 38371, Note_on_c, 0, 65, 100
1, 38419, Note_off_c, 0, 65, 100
1, 38419, Note_on_c, 0, 66, 100
1, 38467, Note_off_c, 0, 66, 100
1, 38467, Note_on_c, 0, 68, 100
1, 38515, Note_off_c, 0, 68, 100
1, 38515, Note_on_c, 0, 70, 100
1, 38563, Note_off_c, 0, 70, 100
1, 38563, Note_on_c, 0, 72, 100
1, 38611, Note_off_c, 0, 72, 100
1, 38611, Note_on_c, 0, 73, 100
1, 38659, Note_off_c, 0, 73, 100
1, 38659, Note_on_c, 0, 75, 100
1, 38707, Note_off_c, 0, 75, 100
1, 38707, Note_on_c, 0, 76, 100
1, 38755, Note_off_c, 0, 76, 100
1, 38755, Note_on_c, 0, 78, 100
1, 38819, Note_off_c, 0, 78, 100
1, 38819, Note_on_c, 0, 75, 100
1, 38883, Note_off_c, 0, 75, 100
1, 38883, Note_on_c, 0, 73, 100
1, 38947, Note_off_c, 0, 73, 100
1, 38947, Note_on_c, 0, 72, 100
1, 38985, Note_off_c, 0, 72, 100
1, 38985, Note_on_c, 0, 70, 100
1, 39023, Note_off_c, 0, 70, 100
1, 39023, Note_on_c, 0, 68, 100
1, 39061, Note_off_c, 0, 68, 100
1, 39061, Note_on_c, 0, 66, 100
1, 39137, Note_off_c, 0, 66, 100
1, 39137, Note_on_c, 0, 65, 100
1, 39169, Note_off_c, 0, 65, 100
1, 39169, Note_on_c, 0, 60, 100
1, 39201, Note_off_c, 0, 60, 100
1, 39201, Note_on_c, 0, 63, 100
1, 39265, Note_off_c, 0, 63, 100
1, 39265, Note_on_c, 0, 58, 100
1, 39297, Note_off_c, 0, 58, 100
1, 39297, Note_on_c, 0, 61, 100
1, 39329, Note_off_c, 0, 61, 100
1, 39329, Note_on_c, 0, 63, 100
1, 39377, Note_off_c, 0, 63, 100
1, 39377, Note_on_c, 0, 65, 100
1, 39425, Note_off_c, 0, 65, 100
1, 39425, Note_on_c, 0, 68, 100
1, 39473, Note_off_c, 0, 68, 100
1, 39473, Note_on_c, 0, 72, 100
1, 39521, Note_off_c, 0, 72, 100
1, 39521, Note_on_c, 0, 73, 100
1, 39665, Note_off_c, 0, 73, 100
1, 39665, Note_on_c, 0, 68, 100
1, 39713, Note_off_c, 0, 68, 100
1, 39713, Note_on_c, 0, 65, 100
1, 39905, Note_off_c, 0, 65, 100
1, 39905, Note_on_c, 0, 69, 100
1, 40001, Note_off_c, 0, 69, 100
1, 40001, Note_on_c, 0, 69, 100
1, 40097, Note_off_c, 0, 69, 100
1, 40097, Note_on_c, 0, 72, 100
1, 40241, Note_off_c, 0, 72, 100
1, 40241, Note_on_c, 0, 69, 100
1, 40289, Note_off_c, 0, 69, 100
1, 40289, Note_on_c, 0, 70, 100
1, 40337, Note_off_c, 0, 70, 100
1, 40337, Note_on_c, 0, 69, 100
1, 40385, Note_off_c, 0, 69, 100
1, 40385, Note_on_c, 0, 68, 100
1, 40433, Note_off_c, 0, 68, 100
1, 40433, Note_on_c, 0, 70, 100
1, 40481, Note_off_c, 0, 70, 100
1, 40481, Note_on_c, 0, 67, 100
1, 40529, Note_off_c, 0, 67, 100
1, 40529, Note_on_c, 0, 65, 100
1, 40577, Note_off_c, 0, 65, 100
1, 40577, Note_on_c, 0, 64, 100
1, 40625, Note_off_c, 0, 64, 100
1, 40625, Note_on_c, 0, 62, 100
1, 40673, Note_off_c, 0, 62, 100
1, 40673, Note_on_c, 0, 63, 100
1, 40721, Note_off_c, 0, 63, 100
1, 40721, Note_on_c, 0, 65, 100
1, 40769, Note_off_c, 0, 65, 100
1, 40769, Note_on_c, 0, 66, 100
1, 40817, Note_off_c, 0, 66, 100
1, 40817, Note_on_c, 0, 68, 100
1, 40865, Note_off_c, 0, 68, 100
1, 40865, Note_on_c, 0, 70, 100
1, 40903, Note_off_c, 0, 70, 100
1, 40903, Note_on_c, 0, 72, 100
1, 40941, Note_off_c, 0, 72, 100
1, 40941, Note_on_c, 0, 73, 100
1, 40979, Note_off_c, 0, 73, 100
1, 40979, Note_on_c, 0, 71, 100
1, 41017, Note_off_c, 0, 71, 100
1, 41017, Note_on_c, 0, 72, 100
1, 41055, Note_off_c, 0, 72, 100
1, 41055, Note_on_c, 0, 70, 100
1, 41103, Note_off_c, 0, 70, 100
1, 41103, Note_on_c, 0, 69, 100
1, 41151, Note_off_c, 0, 69, 100
1, 41151, Note_on_c, 0, 67, 100
1, 41199, Note_off_c, 0, 67, 100
1, 41199, Note_on_c, 0, 68, 100
1, 41279, Note_off_c, 0, 68, 100
1, 41279, Note_on_c, 0, 66, 100
1, 41343, Note_off_c, 0, 66, 100
1, 41343, Note_on_c, 0, 63, 100
1, 41375, Note_off_c, 0, 63, 100
1, 41375, Note_on_c, 0, 64, 100
1, 41407, Note_off_c, 0, 64, 100
1, 41407, Note_on_c, 0, 65, 100
1, 41439, Note_off_c, 0, 65, 100
1, 41439, Note_on_c, 0, 61, 100
1, 41535, Note_off_c, 0, 61, 100
1, 41871, Note_on_c, 0, 73, 100
1, 41919, Note_off_c, 0, 73, 100
1, 41919, Note_on_c, 0, 72, 100
1, 41967, Note_off_c, 0, 72, 100
1, 41967, Note_on_c, 0, 71, 100
1, 42015, Note_off_c, 0, 71, 100
1, 42015, Note_on_c, 0, 68, 100
1, 42063, Note_off_c, 0, 68, 100
1, 42063, Note_on_c, 0, 73, 100
1, 42111, Note_off_c, 0, 73, 100
1, 42111, Note_on_c, 0, 69, 100
1, 42159, Note_off_c, 0, 69, 100
1, 42159, Note_on_c, 0, 70, 100
1, 42207, Note_off_c, 0, 70, 100
1, 42207, Note_on_c, 0, 66, 100
1, 42239, Note_off_c, 0, 66, 100
1, 42239, Note_on_c, 0, 67, 100
1, 42271, Note_off_c, 0, 67, 100
1, 42271, Note_on_c, 0, 68, 100
1, 42335, Note_off_c, 0, 68, 100
1, 42335, Note_on_c, 0, 65, 100
1, 42367, Note_off_c, 0, 65, 100
1, 42367, Note_on_c, 0, 66, 100
1, 42543, Note_off_c, 0, 66, 100
1, 42543, Note_on_c, 0, 64, 100
1, 42639, Note_off_c, 0, 64, 100
1, 42639, Note_on_c, 0, 62, 100
1, 42687, Note_off_c, 0, 62, 100
1, 42687, Note_on_c, 0, 63, 100
1, 42783, Note_off_c, 0, 63, 100
1, 43167, Note_on_c, 0, 73, 100
1, 43215, Note_off_c, 0, 73, 100
1, 43215, Note_on_c, 0, 74, 100
1, 43359, Note_off_c, 0, 74, 100
1, 43359, Note_on_c, 0, 73, 100
1, 43407, Note_off_c, 0, 73, 100
1, 43407, Note_on_c, 0, 74, 100
1, 43551, Note_off_c, 0, 74, 100
1, 43551, Note_on_c, 0, 73, 100
1, 43599, Note_off_c, 0, 73, 100
1, 43599, Note_on_c, 0, 74, 100
1, 43743, Note_off_c, 0, 74, 100
1, 43743, Note_on_c, 0, 73, 100
1, 43791, Note_off_c, 0, 73, 100
1, 43791, Note_on_c, 0, 74, 100
1, 43935, Note_off_c, 0, 74, 100
1, 43935, Note_on_c, 0, 73, 100
1, 43959, Note_off_c, 0, 73, 100
1, 43959, Note_on_c, 0, 74, 100
1, 44103, Note_off_c, 0, 74, 100
1, 44103, Note_on_c, 0, 74, 100
1, 44175, Note_off_c, 0, 74, 100
1, 44175, Note_on_c, 0, 75, 100
1, 44223, Note_off_c, 0, 75, 100
1, 44223, Note_on_c, 0, 72, 100
1, 44271, Note_off_c, 0, 72, 100
1, 44271, Note_on_c, 0, 72, 100
1, 44463, Note_off_c, 0, 72, 100
1, 44703, Note_on_c, 0, 73, 100
1, 44751, Note_off_c, 0, 73, 100
1, 44751, Note_on_c, 0, 74, 100
1, 44895, Note_off_c, 0, 74, 100
1, 44895, Note_on_c, 0, 73, 100
1, 44943, Note_off_c, 0, 73, 100
1, 44943, Note_on_c, 0, 74, 100
1, 45087, Note_off_c, 0, 74, 100
1, 45087, Note_on_c, 0, 73, 100
1, 45135, Note_off_c, 0, 73, 100
1, 45135, Note_on_c, 0, 74, 100
1, 45279, Note_off_c, 0, 74, 100
1, 45279, Note_on_c, 0, 74, 100
1, 45317, Note_off_c, 0, 74, 100
1, 45317, Note_on_c, 0, 77, 100
1, 45355, Note_off_c, 0, 77, 100
1, 45355, Note_on_c, 0, 75, 100
1, 45431, Note_off_c, 0, 75, 100
1, 45431, Note_on_c, 0, 72, 100
1, 45469, Note_off_c, 0, 72, 100
1, 45469, Note_on_c, 0, 75, 100
1, 45533, Note_off_c, 0, 75, 100
1, 45533, Note_on_c, 0, 74, 100
1, 45597, Note_off_c, 0, 74, 100
1, 45597, Note_on_c, 0, 70, 100
1, 45693, Note_off_c, 0, 70, 100
1, 45853, Note_on_c, 0, 73, 100
1, 45891, Note_off_c, 0, 73, 100
1, 45891, Note_on_c, 0, 74, 100
1, 45929, Note_off_c, 0, 74, 100
1, 45929, Note_on_c, 0, 72, 100
1, 45967, Note_off_c, 0, 72, 100
1, 45967, Note_on_c, 0, 70, 100
1, 46005, Note_off_c, 0, 70, 100
1, 46005, Note_on_c, 0, 71, 100
1, 46139, Note_off_c, 0, 71, 100
1, 46139, Note_on_c, 0, 63, 100
1, 46187, Note_off_c, 0, 63, 100
1, 46187, Note_on_c, 0, 65, 100
1, 46273, Note_off_c, 0, 65, 100
1, 46273, Note_on_c, 0, 68, 100
1, 46311, Note_off_c, 0, 68, 100
1, 46311, Note_on_c, 0, 65, 100
1, 46349, Note_off_c, 0, 65, 100
1, 46349, Note_on_c, 0, 66, 100
1, 46387, Note_off_c, 0, 66, 100
1, 46387, Note_on_c, 0, 67, 100
1, 46473, Note_off_c, 0, 67, 100
1, 46473, Note_on_c, 0, 64, 100
1, 46521, Note_off_c, 0, 64, 100
1, 46521, Note_on_c, 0, 65, 100
1, 46569, Note_off_c, 0, 65, 100
1, 46569, Note_on_c, 0, 62, 100
1, 46617, Note_off_c, 0, 62, 100
1, 46617, Note_on_c, 0, 63, 100
1, 46649, Note_off_c, 0, 63, 100
1, 46649, Note_on_c, 0, 65, 100
1, 46681, Note_off_c, 0, 65, 100
1, 46681, Note_on_c, 0, 67, 100
1, 46713, Note_off_c, 0, 67, 100
1, 46713, Note_on_c, 0, 69, 100
1, 46745, Note_off_c, 0, 69, 100
1, 46745, Note_on_c, 0, 71, 100
1, 46809, Note_off_c, 0, 71, 100
1, 46809, Note_on_c, 0, 72, 100
1, 46833, Note_off_c, 0, 72, 100
1, 46833, Note_on_c, 0, 73, 100
1, 46881, Note_off_c, 0, 73, 100
1, 46881, Note_on_c, 0, 74, 100
1, 46929, Note_off_c, 0, 74, 100
1, 46929, Note_on_c, 0, 71, 100
1, 46953, Note_off_c, 0, 71, 100
1, 46953, Note_on_c, 0, 72, 100
1, 47001, Note_off_c, 0, 72, 100
1, 47001, Note_on_c, 0, 67, 100
1, 47097, Note_off_c, 0, 67, 100
1, 47577, Note_on_c, 0, 82, 100
1, 47769, Note_off_c, 0, 82, 100
1, 47769, Note_on_c, 0, 78, 100
1, 47865, Note_off_c, 0, 78, 100
1, 47865, Note_on_c, 0, 77, 100
1, 48009, Note_off_c, 0, 77, 100
1, 48009, Note_on_c, 0, 75, 100
1, 48105, Note_off_c, 0, 75, 100
1, 48105, Note_on_c, 0, 70, 100
1, 48201, Note_off_c, 0, 70, 100
1, 48201, Note_on_c, 0, 68, 100
1, 48297, Note_off_c, 0, 68, 100
1, 48297, Note_on_c, 0, 63, 100
1, 48345, Note_off_c, 0, 63, 100
1, 48345, Note_on_c, 0, 66, 100
1, 48441, Note_off_c, 0, 66, 100
1, 48441, Note_on_c, 0, 70, 100
1, 48537, Note_off_c, 0, 70, 100
1, 48537, Note_on_c, 0, 65, 100
1, 48681, Note_off_c, 0, 65, 100
1, 48681, Note_on_c, 0, 63, 100
1, 48729, Note_off_c, 0, 63, 100
1, 48729, Note_on_c, 0, 68, 100
1, 48825, Note_off_c, 0, 68, 100
1, 48825, Note_on_c, 0, 66, 100
1, 48921, Note_off_c, 0, 66, 100
1, 48921, Note_on_c, 0, 63, 100
1, 48985, Note_off_c, 0, 63, 100
1, 48985, Note_on_c, 0, 60, 100
1, 49049, Note_off_c, 0, 60, 100
1, 49049, Note_on_c, 0, 62, 100
1, 49153, Note_off_c, 0, 62, 100
1, 49153, End_track
0, 0, End_of_file
