0, 0, Header, 1, 1, 192
1, 0, Start_track
1, 0, Title_t, "Melody"
1, 0, Tempo, 983606
1, 0, Key_signature, -3, "major"
1, 0, Time_signature, 4, 2, 24, 8
1, 432, Note_on_c, 0, 58, 100
1, 480, Note_off_c, 0, 58, 100
1, 480, Note_on_c, 0, 70, 100
1, 640, Note_off_c, 0, 70, 100
1, 640, Note_on_c, 0, 58, 100
1, 704, Note_off_c, 0, 58, 100
1, 704, Note_on_c, 0, 70, 100
1, 816, Note_off_c, 0, 70, 100
1, 816, Note_on_c, 0, 68, 100
1, 864, Note_off_c, 0, 68, 100
1, 864, Note_on_c, 0, 72, 100
1, 912, Note_off_c, 0, 72, 100
1, 912, Note_on_c, 0, 68, 100
1, 960, Note_off_c, 0, 68, 100
1, 960, Note_on_c, 0, 68, 100
1, 1056, Note_off_c, 0, 68, 100
1, 1376, Note_on_c, 0, 70, 100
1, 1408, Note_off_c, 0, 70, 100
1, 1408, Note_on_c, 0, 72, 100
1, 1440, Note_off_c, 0, 72, 100
1, 1440, Note_on_c, 0, 70, 100
1, 1472, Note_off_c, 0, 70, 100
1, 1472, Note_on_c, 0, 68, 100
1, 1504, Note_off_c, 0, 68, 100
1, 1504, Note_on_c, 0, 72, 100
1, 1599, Note_off_c, 0, 72, 100
1, 1803, Note_on_c, 0, 63, 100
1, 1841, Note_off_c, 0, 63, 100
1, 1841, Note_on_c, 0, 68, 100
1, 1879, Note_off_c, 0, 68, 100
1, 1879, Note_on_c, 0, 72, 100
1, 1917, Note_off_c, 0, 72, 100
1, 1917, Note_on_c, 0, 68, 100
1, 2037, Note_off_c, 0, 68, 100
1, 2037, Note_on_c, 0, 63, 100
1, 2061, Note_off_c, 0, 63, 100
1, 2061, Note_on_c, 0, 63, 100
1, 2085, Note_off_c, 0, 63, 100
1, 2085, Note_on_c, 0, 68, 100
1, 2147, Note_off_c, 0, 68, 100
1, 2147, Note_on_c, 0, 68, 100
1, 2185, Note_off_c, 0, 68, 100
1, 2185, Note_on_c, 0, 68, 100
1, 2223, Note_off_c, 0, 68, 100
1, 2223, Note_on_c, 0, 70, 100
1, 2261, Note_off_c, 0, 70, 100
1, 2261, Note_on_c, 0, 72, 100
1, 2395, Note_off_c, 0, 72, 100
1, 2395, Note_on_c, 0, 63, 100
1, 2523, Note_off_c, 0, 63, 100
1, 2523, Note_on_c, 0, 63, 100
1, 2555, Note_off_c, 0, 63, 100
1, 2555, Note_on_c, 0, 68, 100
1, 2587, Note_off_c, 0, 68, 100
1, 2587, Note_on_c, 0, 68, 100
1, 2619, Note_off_c, 0, 68, 100
1, 2619, Note_on_c, 0, 68, 100
1, 2651, Note_off_c, 0, 68, 100
1, 2651, Note_on_c, 0, 70, 100
1, 2707, Note_off_c, 0, 70, 100
1, 2707, Note_on_c, 0, 71, 100
1, 2827, Note_off_c, 0, 71, 100
1, 2827, Note_on_c, 0, 70, 100
1, 2851, Note_off_c, 0, 70, 100
1, 2851, Note_on_c, 0, 68, 100
1, 2907, Note_off_c, 0, 68, 100
1, 2907, Note_on_c, 0, 70, 100
1, 2971, Note_off_c, 0, 70, 100
1, 2971, Note_on_c, 0, 72, 100
1, 3003, Note_off_c, 0, 72, 100
1, 3003, Note_on_c, 0, 70, 100
1, 3035, Note_off_c, 0, 70, 100
1, 3035, Note_on_c, 0, 68, 100
1, 3131, Note_off_c, 0, 68, 100
1, 3258, Note_on_c, 0, 68, 100
1, 3290, Note_off_c, 0, 68, 100
1, 3290, Note_on_c, 0, 70, 100
1, 3322, Note_off_c, 0, 70, 100
1, 3322, Note_on_c, 0, 73, 100
1, 3354, Note_off_c, 0, 73, 100
1, 3354, Note_on_c, 0, 70, 100
1, 3450, Note_off_c, 0, 70, 100
1, 3450, Note_on_c, 0, 68, 100
1, 3488, Note_off_c, 0, 68, 100
1, 3488, Note_on_c, 0, 66, 100
1, 3526, Note_off_c, 0, 66, 100
1, 3526, Note_on_c, 0, 63, 100
1, 3564, Note_off_c, 0, 63, 100
1, 3564, Note_on_c, 0, 58, 100
1, 3602, Note_off_c, 0, 58, 100
1, 3602, Note_on_c, 0, 56, 100
1, 3640, Note_off_c, 0, 56, 100
1, 3640, Note_on_c, 0, 63, 100
1, 3784, Note_off_c, 0, 63, 100
1, 3784, Note_on_c, 0, 56, 100
1, 3832, Note_off_c, 0, 56, 100
1, 3832, Note_on_c, 0, 63, 100
1, 3880, Note_off_c, 0, 63, 100
1, 3880, Note_on_c, 0, 55, 100
1, 4168, Note_off_c, 0, 55, 100
1, 4484, Note_on_c, 0, 58, 100
1, 4503, Note_off_c, 0, 58, 100
1, 4503, Note_on_c, 0, 60, 100
1, 4522, Note_off_c, 0, 60, 100
1, 4522, Note_on_c, 0, 62, 100
1, 4541, Note_off_c, 0, 62, 100
1, 4541, Note_on_c, 0, 65, 100
1, 4560, Note_off_c, 0, 65, 100
1, 4560, Note_on_c, 0, 62, 100
1, 4579, Note_off_c, 0, 62, 100
1, 4579, Note_on_c, 0, 63, 100
1, 4598, Note_off_c, 0, 63, 100
1, 4598, Note_on_c, 0, 67, 100
1, 4742, Note_off_c, 0, 67, 100
1, 4742, Note_on_c, 0, 66, 100
1, 4766, Note_off_c, 0, 66, 100
1, 4766, Note_on_c, 0, 68, 100
1, 4790, Note_off_c, 0, 68, 100
1, 4790, Note_on_c, 0, 67, 100
1, 4814, Note_off_c, 0, 67, 100
1, 4814, Note_on_c, 0, 66, 100
1, 4838, Note_off_c, 0, 66, 100
1, 4838, Note_on_c, 0, 67, 100
1, 4862, Note_off_c, 0, 67, 100
1, 4862, Note_on_c, 0, 74, 100
1, 4886, Note_off_c, 0, 74, 100
1, 4886, Note_on_c, 0, 67, 100
1, 5030, Note_off_c, 0, 67, 100
1, 5030, Note_on_c, 0, 68, 100
1, 5042, Note_off_c, 0, 68, 100
1, 5042, Note_on_c, 0, 67, 100
1, 5054, Note_off_c, 0, 67, 100
1, 5054, Note_on_c, 0, 65, 100
1, 5066, Note_off_c, 0, 65, 100
1, 5066, Note_on_c, 0, 64, 100
1, 5078, Note_off_c, 0, 64, 100
1, 5078, Note_on_c, 0, 67, 100
1, 5090, Note_off_c, 0, 67, 100
1, 5090, Note_on_c, 0, 70, 100
1, 5102, Note_off_c, 0, 70, 100
1, 5102, Note_on_c, 0, 73, 100
1, 5114, Note_off_c, 0, 73, 100
1, 5114, Note_on_c, 0, 72, 100
1, 5138, Note_off_c, 0, 72, 100
1, 5138, Note_on_c, 0, 71, 100
1, 5150, Note_off_c, 0, 71, 100
1, 5150, Note_on_c, 0, 72, 100
1, 5162, Note_off_c, 0, 72, 100
1, 5162, Note_on_c, 0, 78, 100
1, 5174, Note_off_c, 0, 78, 100
1, 5174, Note_on_c, 0, 77, 100
1, 5222, Note_off_c, 0, 77, 100
1, 5222, Note_on_c, 0, 76, 100
1, 5318, Note_off_c, 0, 76, 100
1, 5510, Note_on_c, 0, 65, 100
1, 5606, Note_off_c, 0, 65, 100
1, 5606, Note_on_c, 0, 65, 100
1, 5654, Note_off_c, 0, 65, 100
1, 5654, Note_on_c, 0, 68, 100
1, 5702, Note_off_c, 0, 68, 100
1, 5702, Note_on_c, 0, 72, 100
1, 5798, Note_off_c, 0, 72, 100
1, 5798, Note_on_c, 0, 67, 100
1, 5846, Note_off_c, 0, 67, 100
1, 5846, Note_on_c, 0, 70, 100
1, 6086, Note_off_c, 0, 70, 100
1, 6086, Note_on_c, 0, 67, 100
1, 6134, Note_off_c, 0, 67, 100
1, 6134, Note_on_c, 0, 68, 100
1, 6182, Note_off_c, 0, 68, 100
1, 6182, Note_on_c, 0, 65, 100
1, 6230, Note_off_c, 0, 65, 100
1, 6230, Note_on_c, 0, 65, 100
1, 6326, Note_off_c, 0, 65, 100
1, 6590, Note_on_c, 0, 59, 100
1, 6614, Note_off_c, 0, 59, 100
1, 6614, Note_on_c, 0, 60, 100
1, 6662, Note_off_c, 0, 60, 100
1, 6662, Note_on_c, 0, 62, 100
1, 6686, Note_off_c, 0, 62, 100
1, 6686, Note_on_c, 0, 60, 100
1, 6710, Note_off_c, 0, 60, 100
1, 6710, Note_on_c, 0, 59, 100
1, 6734, Note_off_c, 0, 59, 100
1, 6734, Note_on_c, 0, 60, 100
1, 6830, Note_off_c, 0, 60, 100
1, 6830, Note_on_c, 0, 59, 100
1, 6854, Note_off_c, 0, 59, 100
1, 6854, Note_on_c, 0, 60, 100
1, 6878, Note_off_c, 0, 60, 100
1, 6878, Note_on_c, 0, 67, 100
1, 6902, Note_off_c, 0, 67, 100
1, 6902, Note_on_c, 0, 65, 100
1, 6950, Note_off_c, 0, 65, 100
1, 6950, Note_on_c, 0, 64, 100
1, 6998, Note_off_c, 0, 64, 100
1, 6998, Note_on_c, 0, 65, 100
1, 7046, Note_off_c, 0, 65, 100
1, 7046, Note_on_c, 0, 69, 100
1, 7070, Note_off_c, 0, 69, 100
1, 7070, Note_on_c, 0, 70, 100
1, 7286, Note_off_c, 0, 70, 100
1, 7286, Note_on_c, 0, 69, 100
1, 7382, Note_off_c, 0, 69, 100
1, 7382, Note_on_c, 0, 68, 100
1, 7574, Note_off_c, 0, 68, 100
1, 7910, Note_on_c, 0, 66, 100
1, 7958, Note_off_c, 0, 66, 100
1, 7958, Note_on_c, 0, 65, 100
1, 8102, Note_off_c, 0, 65, 100
1, 8102, Note_on_c, 0, 66, 100
1, 8150, Note_off_c, 0, 66, 100
1, 8150, Note_on_c, 0, 65, 100
1, 8198, Note_off_c, 0, 65, 100
1, 8198, Note_on_c, 0, 63, 100
1, 8246, Note_off_c, 0, 63, 100
1, 8246, Note_on_c, 0, 70, 100
1, 8294, Note_off_c, 0, 70, 100
1, 8294, Note_on_c, 0, 72, 100
1, 8342, Note_off_c, 0, 72, 100
1, 8342, Note_on_c, 0, 70, 100
1, 8390, Note_off_c, 0, 70, 100
1, 8390, Note_on_c, 0, 68, 100
1, 8438, Note_off_c, 0, 68, 100
1, 8438, Note_on_c, 0, 70, 100
1, 8476, Note_off_c, 0, 70, 100
1, 8476, Note_on_c, 0, 68, 100
1, 8514, Note_off_c, 0, 68, 100
1, 8514, Note_on_c, 0, 70, 100
1, 8552, Note_off_c, 0, 70, 100
1, 8552, Note_on_c, 0, 66, 100
1, 8590, Note_off_c, 0, 66, 100
1, 8590, Note_on_c, 0, 67, 100
1, 8782, Note_off_c, 0, 67, 100
1, 9060, Note_on_c, 0, 70, 100
1, 9108, Note_off_c, 0, 70, 100
1, 9108, Note_on_c, 0, 72, 100
1, 9156, Note_off_c, 0, 72, 100
1, 9156, Note_on_c, 0, 74, 100
1, 9252, Note_off_c, 0, 74, 100
1, 9252, Note_on_c, 0, 70, 100
1, 9276, Note_off_c, 0, 70, 100
1, 9276, Note_on_c, 0, 72, 100
1, 9300, Note_off_c, 0, 72, 100
1, 9300, Note_on_c, 0, 74, 100
1, 9324, Note_off_c, 0, 74, 100
1, 9324, Note_on_c, 0, 77, 100
1, 9348, Note_off_c, 0, 77, 100
1, 9348, Note_on_c, 0, 74, 100
1, 9684, Note_off_c, 0, 74, 100
1, 9684, Note_on_c, 0, 84, 100
1, 9876, Note_off_c, 0, 84, 100
1, 9876, Note_on_c, 0, 78, 100
1, 9924, Note_off_c, 0, 78, 100
1, 9924, Note_on_c, 0, 79, 100
1, 10116, Note_off_c, 0, 79, 100
1, 10116, Note_on_c, 0, 78, 100
1, 10212, Note_off_c, 0, 78, 100
1, 10212, Note_on_c, 0, 77, 100
1, 10260, Note_off_c, 0, 77, 100
1, 10260, Note_on_c, 0, 77, 100
1, 10356, Note_off_c, 0, 77, 100
1, 10356, Note_on_c, 0, 75, 100
1, 10404, Note_off_c, 0, 75, 100
1, 10404, Note_on_c, 0, 72, 100
1, 10596, Note_off_c, 0, 72, 100
1, 10596, Note_on_c, 0, 66, 100
1, 10620, Note_off_c, 0, 66, 100
1, 10620, Note_on_c, 0, 65, 100
1, 10644, Note_off_c, 0, 65, 100
1, 10644, Note_on_c, 0, 63, 100
1, 10668, Note_off_c, 0, 63, 100
1, 10668, Note_on_c, 0, 60, 100
1, 10692, Note_off_c, 0, 60, 100
1, 10692, Note_on_c, 0, 63, 100
1, 10872, Note_off_c, 0, 63, 100
1, 10872, Note_on_c, 0, 58, 100
1, 10886, Note_off_c, 0, 58, 100
1, 10886, Note_on_c, 0, 60, 100
1, 10900, Note_off_c, 0, 60, 100
1, 10900, Note_on_c, 0, 62, 100
1, 10914, Note_off_c, 0, 62, 100
1, 10914, Note_on_c, 0, 58, 100
1, 10928, Note_off_c, 0, 58, 100
1, 10928, Note_on_c, 0, 63, 100
1, 10952, Note_off_c, 0, 63, 100
1, 10952, Note_on_c, 0, 65, 100
1, 10976, Note_off_c, 0, 65, 100
1, 10976, Note_on_c, 0, 70, 100
1, 11000, Note_off_c, 0, 70, 100
1, 11000, Note_on_c, 0, 65, 100
1, 11196, Note_off_c, 0, 65, 100
1, 11196, Note_on_c, 0, 70, 100
1, 11234, Note_off_c, 0, 70, 100
1, 11234, Note_on_c, 0, 68, 100
1, 11272, Note_off_c, 0, 68, 100
1, 11272, Note_on_c, 0, 73, 100
1, 11310, Note_off_c, 0, 73, 100
1, 11310, Note_on_c, 0, 69, 100
1, 11348, Note_off_c, 0, 69, 100
1, 11348, Note_on_c, 0, 70, 100
1, 11424, Note_off_c, 0, 70, 100
1, 11424, Note_on_c, 0, 66, 100
1, 11462, Note_off_c, 0, 66, 100
1, 11462, Note_on_c, 0, 62, 100
1, 11500, Note_off_c, 0, 62, 100
1, 11500, Note_on_c, 0, 58, 100
1, 11548, Note_off_c, 0, 58, 100
1, 11548, Note_on_c, 0, 65, 100
1, 11596, Note_off_c, 0, 65, 100
1, 11596, Note_on_c, 0, 63, 100
1, 11644, Note_off_c, 0, 63, 100
1, 11644, Note_on_c, 0, 63, 100
1, 11740, Note_off_c, 0, 63, 100
1, 11999, Note_on_c, 0, 60, 100
1, 12018, Note_off_c, 0, 60, 100
1, 12018, Note_on_c, 0, 63, 100
1, 12037, Note_off_c, 0, 63, 100
1, 12037, Note_on_c, 0, 67, 100
1, 12056, Note_off_c, 0, 67, 100
1, 12056, Note_on_c, 0, 72, 100
1, 12075, Note_off_c, 0, 72, 100
1, 12075, Note_on_c, 0, 70, 100
1, 12123, Note_off_c, 0, 70, 100
1, 12123, Note_on_c, 0, 70, 100
1, 12171, Note_off_c, 0, 70, 100
1, 12171, Note_on_c, 0, 73, 100
1, 12267, Note_off_c, 0, 73, 100
1, 12267, Note_on_c, 0, 70, 100
1, 12309, Note_off_c, 0, 70, 100
1, 12309, Note_on_c, 0, 68, 100
1, 12351, Note_off_c, 0, 68, 100
1, 12351, Note_on_c, 0, 66, 100
1, 12372, Note_off_c, 0, 66, 100
1, 12372, Note_on_c, 0, 68, 100
1, 12414, Note_off_c, 0, 68, 100
1, 12414, Note_on_c, 0, 66, 100
1, 12435, Note_off_c, 0, 66, 100
1, 12435, Note_on_c, 0, 68, 100
1, 12768, Note_off_c, 0, 68, 100
1, 12768, Note_on_c, 0, 69, 100
1, 12816, Note_off_c, 0, 69, 100
1, 12816, Note_on_c, 0, 68, 100
1, 12840, Note_off_c, 0, 68, 100
1, 12840, Note_on_c, 0, 66, 100
1, 12888, Note_off_c, 0, 66, 100
1, 12888, Note_on_c, 0, 63, 100
1, 12936, Note_off_c, 0, 63, 100
1, 12936, Note_on_c, 0, 61, 100
1, 12984, Note_off_c, 0, 61, 100
1, 12984, Note_on_c, 0, 63, 100
1, 13032, Note_off_c, 0, 63, 100
1, 13032, Note_on_c, 0, 61, 100
1, 13056, Note_off_c, 0, 61, 100
1, 13056, Note_on_c, 0, 63, 100
1, 13200, Note_off_c, 0, 63, 100
1, 13200, Note_on_c, 0, 61, 100
1, 13224, Note_off_c, 0, 61, 100
1, 13224, Note_on_c, 0, 63, 100
1, 13320, Note_off_c, 0, 63, 100
1, 13320, Note_on_c, 0, 67, 100
1, 13416, Note_off_c, 0, 67, 100
1, 13864, Note_on_c, 0, 58, 100
1, 13928, Note_off_c, 0, 58, 100
1, 13928, Note_on_c, 0, 51, 100
1, 14088, Note_off_c, 0, 51, 100
1, 14088, Note_on_c, 0, 54, 100
1, 14184, Note_off_c, 0, 54, 100
1, 14184, Note_on_c, 0, 56, 100
1, 14248, Note_off_c, 0, 56, 100
1, 14248, Note_on_c, 0, 54, 100
1, 14280, Note_off_c, 0, 54, 100
1, 14280, Note_on_c, 0, 56, 100
1, 14344, Note_off_c, 0, 56, 100
1, 14344, Note_on_c, 0, 54, 100
1, 14376, Note_off_c, 0, 54, 100
1, 14376, Note_on_c, 0, 56, 100
1, 14472, Note_off_c, 0, 56, 100
1, 14472, Note_on_c, 0, 58, 100
1, 14520, Note_off_c, 0, 58, 100
1, 14520, Note_on_c, 0, 56, 100
1, 14568, Note_off_c, 0, 56, 100
1, 14568, Note_on_c, 0, 53, 100
1, 14600, Note_off_c, 0, 53, 100
1, 14600, Note_on_c, 0, 55, 100
1, 14728, Note_off_c, 0, 55, 100
1, 14728, Note_on_c, 0, 58, 100
1, 14760, Note_off_c, 0, 58, 100
1, 14760, Note_on_c, 0, 63, 100
1, 14856, Note_off_c, 0, 63, 100
1, 14856, Note_on_c, 0, 61, 100
1, 14952, Note_off_c, 0, 61, 100
1, 15384, Note_on_c, 0, 63, 100
1, 15432, Note_off_c, 0, 63, 100
1, 15432, Note_on_c, 0, 66, 100
1, 15528, Note_off_c, 0, 66, 100
1, 15528, Note_on_c, 0, 63, 100
1, 15624, Note_off_c, 0, 63, 100
1, 15624, Note_on_c, 0, 66, 100
1, 15848, Note_off_c, 0, 66, 100
1, 15848, Note_on_c, 0, 63, 100
1, 15880, Note_off_c, 0, 63, 100
1, 15880, Note_on_c, 0, 58, 100
1, 15912, Note_off_c, 0, 58, 100
1, 15912, Note_on_c, 0, 61, 100
1, 15944, Note_off_c, 0, 61, 100
1, 15944, Note_on_c, 0, 63, 100
1, 16008, Note_off_c, 0, 63, 100
1, 16008, Note_on_c, 0, 63, 100
1, 16040, Note_off_c, 0, 63, 100
1, 16040, Note_on_c, 0, 66, 100
1, 16072, Note_off_c, 0, 66, 100
1, 16072, Note_on_c, 0, 60, 100
1, 16104, Note_off_c, 0, 60, 100
1, 16104, Note_on_c, 0, 61, 100
1, 16128, Note_off_c, 0, 61, 100
1, 16128, Note_on_c, 0, 63, 100
1, 16176, Note_off_c, 0, 63, 100
1, 16176, Note_on_c, 0, 61, 100
1, 16200, Note_off_c, 0, 61, 100
1, 16200, Note_on_c, 0, 63, 100
1, 16272, Note_off_c, 0, 63, 100
1, 16272, Note_on_c, 0, 61, 100
1, 16296, Note_off_c, 0, 61, 100
1, 16296, Note_on_c, 0, 63, 100
1, 16392, Note_off_c, 0, 63, 100
1, 16392, Note_on_c, 0, 72, 100
1, 16440, Note_off_c, 0, 72, 100
1, 16440, Note_on_c, 0, 70, 100
1, 16536, Note_off_c, 0, 70, 100
1, 17064, Note_on_c, 0, 63, 100
1, 17256, Note_off_c, 0, 63, 100
1, 17256, Note_on_c, 0, 63, 100
1, 17273, Note_off_c, 0, 63, 100
1, 17273, Note_on_c, 0, 64, 100
1, 17290, Note_off_c, 0, 64, 100
1, 17290, Note_on_c, 0, 63, 100
1, 17307, Note_off_c, 0, 63, 100
1, 17307, Note_on_c, 0, 60, 100
1, 17324, Note_off_c, 0, 60, 100
1, 17324, Note_on_c, 0, 63, 100
1, 17341, Note_off_c, 0, 63, 100
1, 17341, Note_on_c, 0, 66, 100
1, 17375, Note_off_c, 0, 66, 100
1, 17375, Note_on_c, 0, 68, 100
1, 17392, Note_off_c, 0, 68, 100
1, 17392, Note_on_c, 0, 70, 100
1, 17426, Note_off_c, 0, 70, 100
1, 17426, Note_on_c, 0, 66, 100
1, 17443, Note_off_c, 0, 66, 100
1, 17443, Note_on_c, 0, 63, 100
1, 17475, Note_off_c, 0, 63, 100
1, 17475, Note_on_c, 0, 60, 100
1, 17491, Note_off_c, 0, 60, 100
1, 17491, Note_on_c, 0, 68, 100
1, 17507, Note_off_c, 0, 68, 100
1, 17507, Note_on_c, 0, 72, 100
1, 17523, Note_off_c, 0, 72, 100
1, 17523, Note_on_c, 0, 70, 100
1, 17539, Note_off_c, 0, 70, 100
1, 17539, Note_on_c, 0, 66, 100
1, 17571, Note_off_c, 0, 66, 100
1, 17571, Note_on_c, 0, 68, 100
1, 17619, Note_off_c, 0, 68, 100
1, 17619, Note_on_c, 0, 70, 100
1, 17635, Note_off_c, 0, 70, 100
1, 17635, Note_on_c, 0, 68, 100
1, 17659, Note_off_c, 0, 68, 100
1, 17659, Note_on_c, 0, 66, 100
1, 17683, Note_off_c, 0, 66, 100
1, 17683, Note_on_c, 0, 67, 100
1, 17755, Note_off_c, 0, 67, 100
1, 17755, Note_on_c, 0, 63, 100
1, 17779, Note_off_c, 0, 63, 100
1, 17779, Note_on_c, 0, 58, 100
1, 17875, Note_off_c, 0, 58, 100
1, 18019, Note_on_c, 0, 63, 100
1, 18038, Note_off_c, 0, 63, 100
1, 18038, Note_on_c, 0, 64, 100
1, 18057, Note_off_c, 0, 64, 100
1, 18057, Note_on_c, 0, 63, 100
1, 18076, Note_off_c, 0, 63, 100
1, 18076, Note_on_c, 0, 58, 100
1, 18095, Note_off_c, 0, 58, 100
1, 18095, Note_on_c, 0, 60, 100
1, 18114, Note_off_c, 0, 60, 100
1, 18114, Note_on_c, 0, 62, 100
1, 18133, Note_off_c, 0, 62, 100
1, 18133, Note_on_c, 0, 60, 100
1, 18152, Note_off_c, 0, 60, 100
1, 18152, Note_on_c, 0, 58, 100
1, 18171, Note_off_c, 0, 58, 100
1, 18171, Note_on_c, 0, 63, 100
1, 18190, Note_off_c, 0, 63, 100
1, 18190, Note_on_c, 0, 64, 100
1, 18209, Note_off_c, 0, 64, 100
1, 18209, Note_on_c, 0, 63, 100
1, 18226, Note_off_c, 0, 63, 100
1, 18226, Note_on_c, 0, 58, 100
1, 18243, Note_off_c, 0, 58, 100
1, 18243, Note_on_c, 0, 60, 100
1, 18260, Note_off_c, 0, 60, 100
1, 18260, Note_on_c, 0, 63, 100
1, 18277, Note_off_c, 0, 63, 100
1, 18277, Note_on_c, 0, 60, 100
1, 18294, Note_off_c, 0, 60, 100
1, 18294, Note_on_c, 0, 58, 100
1, 18311, Note_off_c, 0, 58, 100
1, 18311, Note_on_c, 0, 63, 100
1, 18328, Note_off_c, 0, 63, 100
1, 18328, Note_on_c, 0, 64, 100
1, 18362, Note_off_c, 0, 64, 100
1, 18362, Note_on_c, 0, 60, 100
1, 18396, Note_off_c, 0, 60, 100
1, 18396, Note_on_c, 0, 63, 100
1, 18417, Note_off_c, 0, 63, 100
1, 18417, Note_on_c, 0, 64, 100
1, 18438, Note_off_c, 0, 64, 100
1, 18438, Note_on_c, 0, 63, 100
1, 18459, Note_off_c, 0, 63, 100
1, 18459, Note_on_c, 0, 60, 100
1, 18480, Note_off_c, 0, 60, 100
1, 18480, Note_on_c, 0, 63, 100
1, 18501, Note_off_c, 0, 63, 100
1, 18501, Note_on_c, 0, 65, 100
1, 18522, Note_off_c, 0, 65, 100
1, 18522, Note_on_c, 0, 63, 100
1, 18543, Note_off_c, 0, 63, 100
1, 18543, Note_on_c, 0, 64, 100
1, 18564, Note_off_c, 0, 64, 100
1, 18564, Note_on_c, 0, 63, 100
1, 18585, Note_off_c, 0, 63, 100
1, 18585, Note_on_c, 0, 60, 100
1, 18619, Note_off_c, 0, 60, 100
1, 18619, Note_on_c, 0, 63, 100
1, 18636, Note_off_c, 0, 63, 100
1, 18636, Note_on_c, 0, 66, 100
1, 18653, Note_off_c, 0, 66, 100
1, 18653, Note_on_c, 0, 63, 100
1, 18687, Note_off_c, 0, 63, 100
1, 18687, Note_on_c, 0, 64, 100
1, 18704, Note_off_c, 0, 64, 100
1, 18704, Note_on_c, 0, 63, 100
1, 18721, Note_off_c, 0, 63, 100
1, 18721, Note_on_c, 0, 60, 100
1, 18738, Note_off_c, 0, 60, 100
1, 18738, Note_on_c, 0, 63, 100
1, 18755, Note_off_c, 0, 63, 100
1, 18755, Note_on_c, 0, 65, 100
1, 18793, Note_off_c, 0, 65, 100
1, 18793, Note_on_c, 0, 63, 100
1, 18835, Note_off_c, 0, 63, 100
1, 18835, Note_on_c, 0, 64, 100
1, 18856, Note_off_c, 0, 64, 100
1, 18856, Note_on_c, 0, 63, 100
1, 18877, Note_off_c, 0, 63, 100
1, 18877, Note_on_c, 0, 60, 100
1, 18898, Note_off_c, 0, 60, 100
1, 18898, Note_on_c, 0, 63, 100
1, 18919, Note_off_c, 0, 63, 100
1, 18919, Note_on_c, 0, 66, 100
1, 18940, Note_off_c, 0, 66, 100
1, 18940, Note_on_c, 0, 68, 100
1, 18961, Note_off_c, 0, 68, 100
1, 18961, Note_on_c, 0, 72, 100
1, 18978, Note_off_c, 0, 72, 100
1, 18978, Note_on_c, 0, 68, 100
1, 18995, Note_off_c, 0, 68, 100
1, 18995, Note_on_c, 0, 66, 100
1, 19012, Note_off_c, 0, 66, 100
1, 19012, Note_on_c, 0, 68, 100
1, 19046, Note_off_c, 0, 68, 100
1, 19046, Note_on_c, 0, 72, 100
1, 19063, Note_off_c, 0, 72, 100
1, 19063, Note_on_c, 0, 68, 100
1, 19080, Note_off_c, 0, 68, 100
1, 19080, Note_on_c, 0, 66, 100
1, 19097, Note_off_c, 0, 66, 100
1, 19097, Note_on_c, 0, 68, 100
1, 19131, Note_off_c, 0, 68, 100
1, 19131, Note_on_c, 0, 72, 100
1, 19148, Note_off_c, 0, 72, 100
1, 19148, Note_on_c, 0, 68, 100
1, 19165, Note_off_c, 0, 68, 100
1, 19165, Note_on_c, 0, 66, 100
1, 19199, Note_off_c, 0, 66, 100
1, 19199, Note_on_c, 0, 68, 100
1, 19216, Note_off_c, 0, 68, 100
1, 19216, Note_on_c, 0, 72, 100
1, 19233, Note_off_c, 0, 72, 100
1, 19233, Note_on_c, 0, 68, 100
1, 19250, Note_off_c, 0, 68, 100
1, 19250, Note_on_c, 0, 66, 100
1, 19267, Note_off_c, 0, 66, 100
1, 19267, Note_on_c, 0, 67, 100
1, 19319, Note_off_c, 0, 67, 100
1, 19319, Note_on_c, 0, 75, 100
1, 19415, Note_off_c, 0, 75, 100
1, 20104, Note_on_c, 0, 77, 100
1, 20200, Note_off_c, 0, 77, 100
1, 20456, Note_on_c, 0, 87, 100
1, 20584, Note_off_c, 0, 87, 100
1, 20584, Note_on_c, 0, 87, 100
1, 20680, Note_off_c, 0, 87, 100
1, 21016, Note_on_c, 0, 80, 100
1, 21256, Note_off_c, 0, 80, 100
1, 21256, Note_on_c, 0, 78, 100
1, 21277, Note_off_c, 0, 78, 100
1, 21277, Note_on_c, 0, 77, 100
1, 21319, Note_off_c, 0, 77, 100
1, 21319, Note_on_c, 0, 75, 100
1, 21361, Note_off_c, 0, 75, 100
1, 21361, Note_on_c, 0, 77, 100
1, 21382, Note_off_c, 0, 77, 100
1, 21382, Note_on_c, 0, 78, 100
1, 21403, Note_off_c, 0, 78, 100
1, 21403, Note_on_c, 0, 77, 100
1, 21424, Note_off_c, 0, 77, 100
1, 21424, Note_on_c, 0, 75, 100
1, 21520, Note_off_c, 0, 75, 100
1, 21781, Note_on_c, 0, 73, 100
1, 21829, Note_off_c, 0, 73, 100
1, 21829, Note_on_c, 0, 72, 100
1, 21877, Note_off_c, 0, 72, 100
1, 21877, Note_on_c, 0, 71, 100
1, 21925, Note_off_c, 0, 71, 100
1, 21925, Note_on_c, 0, 70, 100
1, 22117, Note_off_c, 0, 70, 100
1, 22117, Note_on_c, 0, 68, 100
1, 22165, Note_off_c, 0, 68, 100
1, 22165, Note_on_c, 0, 66, 100
1, 22213, Note_off_c, 0, 66, 100
1, 22213, Note_on_c, 0, 63, 100
1, 22309, Note_off_c, 0, 63, 100
1, 22679, Note_on_c, 0, 66, 100
1, 22706, Note_off_c, 0, 66, 100
1, 22706, Note_on_c, 0, 67, 100
1, 22733, Note_off_c, 0, 67, 100
1, 22733, Note_on_c, 0, 70, 100
1, 22760, Note_off_c, 0, 70, 100
1, 22760, Note_on_c, 0, 72, 100
1, 22787, Note_off_c, 0, 72, 100
1, 22787, Note_on_c, 0, 70, 100
1, 22835, Note_off_c, 0, 70, 100
1, 22835, Note_on_c, 0, 75, 100
1, 22883, Note_off_c, 0, 75, 100
1, 22883, Note_on_c, 0, 63, 100
1, 23027, Note_off_c, 0, 63, 100
1, 23027, Note_on_c, 0, 63, 100
1, 23075, Note_off_c, 0, 63, 100
1, 23075, Note_on_c, 0, 66, 100
1, 23171, Note_off_c, 0, 66, 100
1, 23171, Note_on_c, 0, 68, 100
1, 23219, Note_off_c, 0, 68, 100
1, 23219, Note_on_c, 0, 66, 100
1, 23267, Note_off_c, 0, 66, 100
1, 23267, Note_on_c, 0, 68, 100
1, 23459, Note_off_c, 0, 68, 100
1, 23459, Note_on_c, 0, 66, 100
1, 23483, Note_off_c, 0, 66, 100
1, 23483, Note_on_c, 0, 65, 100
1, 23507, Note_off_c, 0, 65, 100
1, 23507, Note_on_c, 0, 64, 100
1, 23531, Note_off_c, 0, 64, 100
1, 23531, Note_on_c, 0, 63, 100
1, 23651, Note_off_c, 0, 63, 100
1, 23651, Note_on_c, 0, 70, 100
1, 23675, Note_off_c, 0, 70, 100
1, 23675, Note_on_c, 0, 68, 100
1, 23699, Note_off_c, 0, 68, 100
1, 23699, Note_on_c, 0, 70, 100
1, 23723, Note_off_c, 0, 70, 100
1, 23723, Note_on_c, 0, 68, 100
1, 23747, Note_off_c, 0, 68, 100
1, 23747, Note_on_c, 0, 66, 100
1, 23771, Note_off_c, 0, 66, 100
1, 23771, Note_on_c, 0, 67, 100
1, 23795, Note_off_c, 0, 67, 100
1, 23795, Note_on_c, 0, 68, 100
1, 23819, Note_off_c, 0, 68, 100
1, 23819, Note_on_c, 0, 66, 100
1, 23843, Note_off_c, 0, 66, 100
1, 23843, Note_on_c, 0, 67, 100
1, 23867, Note_off_c, 0, 67, 100
1, 23867, Note_on_c, 0, 63, 100
1, 23891, Note_off_c, 0, 63, 100
1, 23891, Note_on_c, 0, 58, 100
1, 23915, Note_off_c, 0, 58, 100
1, 23915, Note_on_c, 0, 57, 100
1, 23939, Note_off_c, 0, 57, 100
1, 23939, Note_on_c, 0, 56, 100
1, 23971, Note_off_c, 0, 56, 100
1, 23971, Note_on_c, 0, 60, 100
1, 24003, Note_off_c, 0, 60, 100
1, 24003, Note_on_c, 0, 59, 100
1, 24035, Note_off_c, 0, 59, 100
1, 24035, Note_on_c, 0, 58, 100
1, 24067, Note_off_c, 0, 58, 100
1, 24067, Note_on_c, 0, 51, 100
1, 24163, Note_off_c, 0, 51, 100
1, 24467, Note_on_c, 0, 56, 100
1, 24515, Note_off_c, 0, 56, 100
1, 24515, Note_on_c, 0, 58, 100
1, 24563, Note_off_c, 0, 58, 100
1, 24563, Note_on_c, 0, 60, 100
1, 24611, Note_off_c, 0, 60, 100
1, 24611, Note_on_c, 0, 63, 100
1, 24659, Note_off_c, 0, 63, 100
1, 24659, Note_on_c, 0, 63, 100
1, 24707, Note_off_c, 0, 63, 100
1, 24707, Note_on_c, 0, 63, 100
1, 24803, Note_off_c, 0, 63, 100
1, 24803, Note_on_c, 0, 65, 100
1, 24899, Note_off_c, 0, 65, 100
1, 25059, Note_on_c, 0, 66, 100
1, 25112, Note_off_c, 0, 66, 100
1, 25112, Note_on_c, 0, 68, 100
1, 25133, Note_off_c, 0, 68, 100
1, 25133, Note_on_c, 0, 67, 100
1, 25154, Note_off_c, 0, 67, 100
1, 25154, Note_on_c, 0, 69, 100
1, 25175, Note_off_c, 0, 69, 100
1, 25175, Note_on_c, 0, 70, 100
1, 25196, Note_off_c, 0, 70, 100
1, 25196, Note_on_c, 0, 66, 100
1, 25217, Note_off_c, 0, 66, 100
1, 25217, Note_on_c, 0, 67, 100
1, 25259, Note_off_c, 0, 67, 100
1, 25259, Note_on_c, 0, 70, 100
1, 25280, Note_off_c, 0, 70, 100
1, 25280, Note_on_c, 0, 73, 100
1, 25304, Note_off_c, 0, 73, 100
1, 25304, Note_on_c, 0, 70, 100
1, 25328, Note_off_c, 0, 70, 100
1, 25328, Note_on_c, 0, 72, 100
1, 25352, Note_off_c, 0, 72, 100
1, 25352, Note_on_c, 0, 73, 100
1, 25376, Note_off_c, 0, 73, 100
1, 25376, Note_on_c, 0, 70, 100
1, 25424, Note_off_c, 0, 70, 100
1, 25424, Note_on_c, 0, 68, 100
1, 25448, Note_off_c, 0, 68, 100
1, 25448, Note_on_c, 0, 70, 100
1, 25472, Note_off_c, 0, 70, 100
1, 25472, Note_on_c, 0, 68, 100
1, 25496, Note_off_c, 0, 68, 100
1, 25496, Note_on_c, 0, 66, 100
1, 25520, Note_off_c, 0, 66, 100
1, 25520, Note_on_c, 0, 68, 100
1, 25568, Note_off_c, 0, 68, 100
1, 25568, Note_on_c, 0, 66, 100
1, 25592, Note_off_c, 0, 66, 100
1, 25592, Note_on_c, 0, 63, 100
1, 25616, Note_off_c, 0, 63, 100
1, 25616, Note_on_c, 0, 61, 100
1, 25640, Note_off_c, 0, 61, 100
1, 25640, Note_on_c, 0, 63, 100
1, 25712, Note_off_c, 0, 63, 100
1, 25712, Note_on_c, 0, 61, 100
1, 25760, Note_off_c, 0, 61, 100
1, 25760, Note_on_c, 0, 63, 100
1, 25856, Note_off_c, 0, 63, 100
1, 25856, Note_on_c, 0, 58, 100
1, 25880, Note_off_c, 0, 58, 100
1, 25880, Note_on_c, 0, 56, 100
1, 25904, Note_off_c, 0, 56, 100
1, 25904, Note_on_c, 0, 58, 100
1, 25928, Note_off_c, 0, 58, 100
1, 25928, Note_on_c, 0, 56, 100
1, 25952, Note_off_c, 0, 56, 100
1, 25952, Note_on_c, 0, 54, 100
1, 25976, Note_off_c, 0, 54, 100
1, 25976, Note_on_c, 0, 51, 100
1, 26240, Note_off_c, 0, 51, 100
1, 26240, Note_on_c, 0, 54, 100
1, 26304, Note_off_c, 0, 54, 100
1, 26304, Note_on_c, 0, 56, 100
1, 26400, Note_off_c, 0, 56, 100
1, 26720, Note_on_c, 0, 63, 100
1, 26816, Note_off_c, 0, 63, 100
1, 26816, Note_on_c, 0, 61, 100
1, 26912, Note_off_c, 0, 61, 100
1, 26912, Note_on_c, 0, 63, 100
1, 27056, Note_off_c, 0, 63, 100
1, 27056, Note_on_c, 0, 58, 100
1, 27104, Note_off_c, 0, 58, 100
1, 27104, Note_on_c, 0, 61, 100
1, 27152, Note_off_c, 0, 61, 100
1, 27152, Note_on_c, 0, 63, 100
1, 27200, Note_off_c, 0, 63, 100
1, 27200, Note_on_c, 0, 58, 100
1, 27224, Note_off_c, 0, 58, 100
1, 27224, Note_on_c, 0, 61, 100
1, 27248, Note_off_c, 0, 61, 100
1, 27248, Note_on_c, 0, 63, 100
1, 27320, Note_off_c, 0, 63, 100
1, 27320, Note_on_c, 0, 61, 100
1, 27344, Note_off_c, 0, 61, 100
1, 27344, Note_on_c, 0, 63, 100
1, 27392, Note_off_c, 0, 63, 100
1, 27392, Note_on_c, 0, 61, 100
1, 27488, Note_off_c, 0, 61, 100
1, 27488, Note_on_c, 0, 63, 100
1, 27693, Note_off_c, 0, 63, 100
1, 27693, Note_on_c, 0, 56, 100
1, 27720, Note_off_c, 0, 56, 100
1, 27720, Note_on_c, 0, 60, 100
1, 27747, Note_off_c, 0, 60, 100
1, 27747, Note_on_c, 0, 63, 100
1, 27822, Note_off_c, 0, 63, 100
1, 27822, Note_on_c, 0, 60, 100
1, 27870, Note_off_c, 0, 60, 100
1, 27870, Note_on_c, 0, 63, 100
1, 27966, Note_off_c, 0, 63, 100
1, 28302, Note_on_c, 0, 60, 100
1, 28367, Note_off_c, 0, 60, 100
1, 28367, Note_on_c, 0, 63, 100
1, 28384, Note_off_c, 0, 63, 100
1, 28384, Note_on_c, 0, 64, 100
1, 28401, Note_off_c, 0, 64, 100
1, 28401, Note_on_c, 0, 63, 100
1, 28418, Note_off_c, 0, 63, 100
1, 28418, Note_on_c, 0, 60, 100
1, 28452, Note_off_c, 0, 60, 100
1, 28452, Note_on_c, 0, 63, 100
1, 28469, Note_off_c, 0, 63, 100
1, 28469, Note_on_c, 0, 67, 100
1, 28503, Note_off_c, 0, 67, 100
1, 28503, Note_on_c, 0, 70, 100
1, 28520, Note_off_c, 0, 70, 100
1, 28520, Note_on_c, 0, 67, 100
1, 28537, Note_off_c, 0, 67, 100
1, 28537, Note_on_c, 0, 60, 100
1, 28633, Note_off_c, 0, 60, 100
1, 28633, Note_on_c, 0, 63, 100
1, 28729, Note_off_c, 0, 63, 100
1, 28965, Note_on_c, 0, 63, 100
1, 28979, Note_off_c, 0, 63, 100
1, 28979, Note_on_c, 0, 64, 100
1, 28993, Note_off_c, 0, 64, 100
1, 28993, Note_on_c, 0, 63, 100
1, 29007, Note_off_c, 0, 63, 100
1, 29007, Note_on_c, 0, 60, 100
1, 29036, Note_off_c, 0, 60, 100
1, 29036, Note_on_c, 0, 63, 100
1, 29050, Note_off_c, 0, 63, 100
1, 29050, Note_on_c, 0, 66, 100
1, 29094, Note_off_c, 0, 66, 100
1, 29094, Note_on_c, 0, 63, 100
1, 29108, Note_off_c, 0, 63, 100
1, 29108, Note_on_c, 0, 68, 100
1, 29137, Note_off_c, 0, 68, 100
1, 29137, Note_on_c, 0, 66, 100
1, 29151, Note_off_c, 0, 66, 100
1, 29151, Note_on_c, 0, 68, 100
1, 29180, Note_off_c, 0, 68, 100
1, 29180, Note_on_c, 0, 66, 100
1, 29194, Note_off_c, 0, 66, 100
1, 29194, Note_on_c, 0, 68, 100
1, 29267, Note_off_c, 0, 68, 100
1, 29267, Note_on_c, 0, 66, 100
1, 29281, Note_off_c, 0, 66, 100
1, 29281, Note_on_c, 0, 68, 100
1, 29295, Note_off_c, 0, 68, 100
1, 29295, Note_on_c, 0, 70, 100
1, 29343, Note_off_c, 0, 70, 100
1, 29343, Note_on_c, 0, 66, 100
1, 29563, Note_off_c, 0, 66, 100
1, 29563, Note_on_c, 0, 66, 100
1, 29601, Note_off_c, 0, 66, 100
1, 29601, Note_on_c, 0, 65, 100
1, 29639, Note_off_c, 0, 65, 100
1, 29639, Note_on_c, 0, 66, 100
1, 29677, Note_off_c, 0, 66, 100
1, 29677, Note_on_c, 0, 63, 100
1, 29715, Note_off_c, 0, 63, 100
1, 29715, Note_on_c, 0, 62, 100
1, 29753, Note_off_c, 0, 62, 100
1, 29753, Note_on_c, 0, 61, 100
1, 29791, Note_off_c, 0, 61, 100
1, 29791, Note_on_c, 0, 58, 100
1, 29829, Note_off_c, 0, 58, 100
1, 29829, Note_on_c, 0, 56, 100
1, 30011, Note_off_c, 0, 56, 100
1, 30011, Note_on_c, 0, 58, 100
1, 30059, Note_off_c, 0, 58, 100
1, 30059, Note_on_c, 0, 56, 100
1, 30071, Note_off_c, 0, 56, 100
1, 30071, Note_on_c, 0, 55, 100
1, 30107, Note_off_c, 0, 55, 100
1, 30107, Note_on_c, 0, 58, 100
1, 30131, Note_off_c, 0, 58, 100
1, 30131, Note_on_c, 0, 63, 100
1, 30155, Note_off_c, 0, 63, 100
1, 30155, Note_on_c, 0, 58, 100
1, 30179, Note_off_c, 0, 58, 100
1, 30179, Note_on_c, 0, 61, 100
1, 30203, Note_off_c, 0, 61, 100
1, 30203, Note_on_c, 0, 65, 100
1, 30215, Note_off_c, 0, 65, 100
1, 30215, Note_on_c, 0, 64, 100
1, 30239, Note_off_c, 0, 64, 100
1, 30239, Note_on_c, 0, 62, 100
1, 30251, Note_off_c, 0, 62, 100
1, 30251, Note_on_c, 0, 63, 100
1, 30347, Note_off_c, 0, 63, 100
1, 30491, Note_on_c, 0, 58, 100
1, 30515, Note_off_c, 0, 58, 100
1, 30515, Note_on_c, 0, 60, 100
1, 30539, Note_off_c, 0, 60, 100
1, 30539, Note_on_c, 0, 63, 100
1, 30563, Note_off_c, 0, 63, 100
1, 30563, Note_on_c, 0, 66, 100
1, 30587, Note_off_c, 0, 66, 100
1, 30587, Note_on_c, 0, 67, 100
1, 30611, Note_off_c, 0, 67, 100
1, 30611, Note_on_c, 0, 73, 100
1, 30662, Note_off_c, 0, 73, 100
1, 30662, Note_on_c, 0, 72, 100
1, 30689, Note_off_c, 0, 72, 100
1, 30689, Note_on_c, 0, 73, 100
1, 30716, Note_off_c, 0, 73, 100
1, 30716, Note_on_c, 0, 72, 100
1, 30743, Note_off_c, 0, 72, 100
1, 30743, Note_on_c, 0, 70, 100
1, 30770, Note_off_c, 0, 70, 100
1, 30770, Note_on_c, 0, 69, 100
1, 30797, Note_off_c, 0, 69, 100
1, 30797, Note_on_c, 0, 68, 100
1, 30872, Note_off_c, 0, 68, 100
1, 30872, Note_on_c, 0, 70, 100
1, 30896, Note_off_c, 0, 70, 100
1, 30896, Note_on_c, 0, 68, 100
1, 30920, Note_off_c, 0, 68, 100
1, 30920, Note_on_c, 0, 66, 100
1, 30944, Note_off_c, 0, 66, 100
1, 30944, Note_on_c, 0, 63, 100
1, 30968, Note_off_c, 0, 63, 100
1, 30968, Note_on_c, 0, 58, 100
1, 30992, Note_off_c, 0, 58, 100
1, 30992, Note_on_c, 0, 57, 100
1, 31016, Note_off_c, 0, 57, 100
1, 31016, Note_on_c, 0, 56, 100
1, 31112, Note_off_c, 0, 56, 100
1, 31112, Note_on_c, 0, 61, 100
1, 31136, Note_off_c, 0, 61, 100
1, 31136, Note_on_c, 0, 59, 100
1, 31160, Note_off_c, 0, 59, 100
1, 31160, Note_on_c, 0, 61, 100
1, 31184, Note_off_c, 0, 61, 100
1, 31184, Note_on_c, 0, 59, 100
1, 31208, Note_off_c, 0, 59, 100
1, 31208, Note_on_c, 0, 58, 100
1, 31240, Note_off_c, 0, 58, 100
1, 31240, Note_on_c, 0, 56, 100
1, 31272, Note_off_c, 0, 56, 100
1, 31272, Note_on_c, 0, 55, 100
1, 31336, Note_off_c, 0, 55, 100
1, 31336, Note_on_c, 0, 55, 100
1, 31368, Note_off_c, 0, 55, 100
1, 31368, Note_on_c, 0, 60, 100
1, 31400, Note_off_c, 0, 60, 100
1, 31400, Note_on_c, 0, 58, 100
1, 31438, Note_off_c, 0, 58, 100
1, 31438, Note_on_c, 0, 63, 100
1, 31514, Note_off_c, 0, 63, 100
1, 31514, Note_on_c, 0, 61, 100
1, 31552, Note_off_c, 0, 61, 100
1, 31552, Note_on_c, 0, 63, 100
1, 31590, Note_off_c, 0, 63, 100
1, 31590, Note_on_c, 0, 59, 100
1, 31614, Note_off_c, 0, 59, 100
1, 31614, Note_on_c, 0, 61, 100
1, 31638, Note_off_c, 0, 61, 100
1, 31638, Note_on_c, 0, 63, 100
1, 31686, Note_off_c, 0, 63, 100
1, 31686, Note_on_c, 0, 58, 100
1, 31710, Note_off_c, 0, 58, 100
1, 31710, Note_on_c, 0, 61, 100
1, 31734, Note_off_c, 0, 61, 100
1, 31734, Note_on_c, 0, 63, 100
1, 31926, Note_off_c, 0, 63, 100
1, 31926, Note_on_c, 0, 63, 100
1, 31974, Note_off_c, 0, 63, 100
1, 31974, Note_on_c, 0, 66, 100
1, 31998, Note_off_c, 0, 66, 100
1, 31998, Note_on_c, 0, 68, 100
1, 32046, Note_off_c, 0, 68, 100
1, 32046, Note_on_c, 0, 63, 100
1, 32070, Note_off_c, 0, 63, 100
1, 32070, Note_on_c, 0, 66, 100
1, 32094, Note_off_c, 0, 66, 100
1, 32094, Note_on_c, 0, 68, 100
1, 32166, Note_off_c, 0, 68, 100
1, 32166, Note_on_c, 0, 70, 100
1, 32185, Note_off_c, 0, 70, 100
1, 32185, Note_on_c, 0, 68, 100
1, 32204, Note_off_c, 0, 68, 100
1, 32204, Note_on_c, 0, 66, 100
1, 32223, Note_off_c, 0, 66, 100
1, 32223, Note_on_c, 0, 68, 100
1, 32280, Note_off_c, 0, 68, 100
1, 32280, Note_on_c, 0, 70, 100
1, 32299, Note_off_c, 0, 70, 100
1, 32299, Note_on_c, 0, 68, 100
1, 32318, Note_off_c, 0, 68, 100
1, 32318, Note_on_c, 0, 66, 100
1, 32337, Note_off_c, 0, 66, 100
1, 32337, Note_on_c, 0, 68, 100
1, 32428, Note_off_c, 0, 68, 100
1, 32428, Note_on_c, 0, 70, 100
1, 32452, Note_off_c, 0, 70, 100
1, 32452, Note_on_c, 0, 68, 100
1, 32476, Note_off_c, 0, 68, 100
1, 32476, Note_on_c, 0, 66, 100
1, 32500, Note_off_c, 0, 66, 100
1, 32500, Note_on_c, 0, 63, 100
1, 32565, Note_off_c, 0, 63, 100
1, 32565, Note_on_c, 0, 63, 100
1, 32582, Note_off_c, 0, 63, 100
1, 32582, Note_on_c, 0, 66, 100
1, 32599, Note_off_c, 0, 66, 100
1, 32599, Note_on_c, 0, 68, 100
1, 32616, Note_off_c, 0, 68, 100
1, 32616, Note_on_c, 0, 70, 100
1, 32633, Note_off_c, 0, 70, 100
1, 32633, Note_on_c, 0, 68, 100
1, 32650, Note_off_c, 0, 68, 100
1, 32650, Note_on_c, 0, 66, 100
1, 32667, Note_off_c, 0, 66, 100
1, 32667, Note_on_c, 0, 63, 100
1, 32701, Note_off_c, 0, 63, 100
1, 32701, Note_on_c, 0, 66, 100
1, 32718, Note_off_c, 0, 66, 100
1, 32718, Note_on_c, 0, 68, 100
1, 32735, Note_off_c, 0, 68, 100
1, 32735, Note_on_c, 0, 70, 100
1, 32752, Note_off_c, 0, 70, 100
1, 32752, Note_on_c, 0, 68, 100
1, 32769, Note_off_c, 0, 68, 100
1, 32769, Note_on_c, 0, 66, 100
1, 32786, Note_off_c, 0, 66, 100
1, 32786, Note_on_c, 0, 63, 100
1, 32820, Note_off_c, 0, 63, 100
1, 32820, Note_on_c, 0, 66, 100
1, 32837, Note_off_c, 0, 66, 100
1, 32837, Note_on_c, 0, 68, 100
1, 32854, Note_off_c, 0, 68, 100
1, 32854, Note_on_c, 0, 70, 100
1, 32871, Note_off_c, 0, 70, 100
1, 32871, Note_on_c, 0, 68, 100
1, 32888, Note_off_c, 0, 68, 100
1, 32888, Note_on_c, 0, 66, 100
1, 32984, Note_off_c, 0, 66, 100
1, 33114, Note_on_c, 0, 63, 100
1, 33135, Note_off_c, 0, 63, 100
1, 33135, Note_on_c, 0, 67, 100
1, 33241, Note_off_c, 0, 67, 100
1, 33241, Note_on_c, 0, 63, 100
1, 33262, Note_off_c, 0, 63, 100
1, 33262, Note_on_c, 0, 61, 100
1, 33283, Note_off_c, 0, 61, 100
1, 33283, Note_on_c, 0, 63, 100
1, 33304, Note_off_c, 0, 63, 100
1, 33304, Note_on_c, 0, 67, 100
1, 33321, Note_off_c, 0, 67, 100
1, 33321, Note_on_c, 0, 68, 100
1, 33460, Note_off_c, 0, 68, 100
1, 33460, Note_on_c, 0, 63, 100
1, 33477, Note_off_c, 0, 63, 100
1, 33477, Note_on_c, 0, 61, 100
1, 33494, Note_off_c, 0, 61, 100
1, 33494, Note_on_c, 0, 63, 100
1, 33518, Note_off_c, 0, 63, 100
1, 33518, Note_on_c, 0, 67, 100
1, 33542, Note_off_c, 0, 67, 100
1, 33542, Note_on_c, 0, 68, 100
1, 33566, Note_off_c, 0, 68, 100
1, 33566, Note_on_c, 0, 67, 100
1, 33590, Note_off_c, 0, 67, 100
1, 33590, Note_on_c, 0, 63, 100
1, 33614, Note_off_c, 0, 63, 100
1, 33614, Note_on_c, 0, 61, 100
1, 33700, Note_off_c, 0, 61, 100
1, 33700, Note_on_c, 0, 63, 100
1, 33714, Note_off_c, 0, 63, 100
1, 33714, Note_on_c, 0, 61, 100
1, 33728, Note_off_c, 0, 61, 100
1, 33728, Note_on_c, 0, 63, 100
1, 33757, Note_off_c, 0, 63, 100
1, 33757, Note_on_c, 0, 67, 100
1, 33771, Note_off_c, 0, 67, 100
1, 33771, Note_on_c, 0, 68, 100
1, 33785, Note_off_c, 0, 68, 100
1, 33785, Note_on_c, 0, 67, 100
1, 33799, Note_off_c, 0, 67, 100
1, 33799, Note_on_c, 0, 63, 100
1, 33813, Note_off_c, 0, 63, 100
1, 33813, Note_on_c, 0, 61, 100
1, 33827, Note_off_c, 0, 61, 100
1, 33827, Note_on_c, 0, 60, 100
1, 33841, Note_off_c, 0, 60, 100
1, 33841, Note_on_c, 0, 55, 100
1, 33855, Note_off_c, 0, 55, 100
1, 33855, Note_on_c, 0, 53, 100
1, 33869, Note_off_c, 0, 53, 100
1, 33869, Note_on_c, 0, 51, 100
1, 33917, Note_off_c, 0, 51, 100
1, 33917, Note_on_c, 0, 49, 100
1, 33965, Note_off_c, 0, 49, 100
1, 33965, Note_on_c, 0, 51, 100
1, 34137, Note_off_c, 0, 51, 100
1, 34137, Note_on_c, 0, 58, 100
1, 34213, Note_off_c, 0, 58, 100
1, 34213, Note_on_c, 0, 63, 100
1, 34289, Note_off_c, 0, 63, 100
1, 34289, Note_on_c, 0, 66, 100
1, 34327, Note_off_c, 0, 66, 100
1, 34327, Note_on_c, 0, 67, 100
1, 34403, Note_off_c, 0, 67, 100
1, 34403, Note_on_c, 0, 70, 100
1, 34441, Note_off_c, 0, 70, 100
1, 34441, Note_on_c, 0, 75, 100
1, 34537, Note_off_c, 0, 75, 100
1, 35017, Note_on_c, 0, 79, 100
1, 35209, Note_off_c, 0, 79, 100
1, 35209, Note_on_c, 0, 75, 100
1, 35263, Note_off_c, 0, 75, 100
1, 35263, Note_on_c, 0, 73, 100
1, 35290, Note_off_c, 0, 73, 100
1, 35290, Note_on_c, 0, 75, 100
1, 35372, Note_off_c, 0, 75, 100
1, 35372, Note_on_c, 0, 78, 100
1, 35447, Note_off_c, 0, 78, 100
1, 35447, Note_on_c, 0, 75, 100
1, 35543, Note_off_c, 0, 75, 100
1, 35927, Note_on_c, 0, 71, 100
1, 35975, Note_off_c, 0, 71, 100
1, 35975, Note_on_c, 0, 73, 100
1, 35994, Note_off_c, 0, 73, 100
1, 35994, Note_on_c, 0, 72, 100
1, 36013, Note_off_c, 0, 72, 100
1, 36013, Note_on_c, 0, 73, 100
1, 36032, Note_off_c, 0, 73, 100
1, 36032, Note_on_c, 0, 72, 100
1, 36070, Note_off_c, 0, 72, 100
1, 36070, Note_on_c, 0, 70, 100
1, 36108, Note_off_c, 0, 70, 100
1, 36108, Note_on_c, 0, 72, 100
1, 36127, Note_off_c, 0, 72, 100
1, 36127, Note_on_c, 0, 70, 100
1, 36146, Note_off_c, 0, 70, 100
1, 36146, Note_on_c, 0, 68, 100
1, 36189, Note_off_c, 0, 68, 100
1, 36189, Note_on_c, 0, 67, 100
1, 36237, Note_off_c, 0, 67, 100
1, 36237, Note_on_c, 0, 63, 100
1, 36309, Note_off_c, 0, 63, 100
1, 36309, Note_on_c, 0, 60, 100
1, 36333, Note_off_c, 0, 60, 100
1, 36333, Note_on_c, 0, 63, 100
1, 36453, Note_off_c, 0, 63, 100
1, 36453, Note_on_c, 0, 61, 100
1, 36477, Note_off_c, 0, 61, 100
1, 36477, Note_on_c, 0, 63, 100
1, 36501, Note_off_c, 0, 63, 100
1, 36501, Note_on_c, 0, 61, 100
1, 36525, Note_off_c, 0, 61, 100
1, 36525, Note_on_c, 0, 58, 100
1, 36549, Note_off_c, 0, 58, 100
1, 36549, Note_on_c, 0, 56, 100
1, 36645, Note_off_c, 0, 56, 100
1, 36645, Note_on_c, 0, 54, 100
1, 36693, Note_off_c, 0, 54, 100
1, 36693, Note_on_c, 0, 51, 100
1, 36885, Note_off_c, 0, 51, 100
1, 36885, Note_on_c, 0, 58, 100
1, 37077, Note_off_c, 0, 58, 100
1, 37077, Note_on_c, 0, 58, 100
1, 37125, Note_off_c, 0, 58, 100
1, 37125, Note_on_c, 0, 60, 100
1, 37149, Note_off_c, 0, 60, 100
1, 37149, Note_on_c, 0, 63, 100
1, 37173, Note_off_c, 0, 63, 100
1, 37173, Note_on_c, 0, 66, 100
1, 37221, Note_off_c, 0, 66, 100
1, 37221, Note_on_c, 0, 68, 100
1, 37245, Note_off_c, 0, 68, 100
1, 37245, Note_on_c, 0, 70, 100
1, 37269, Note_off_c, 0, 70, 100
1, 37269, Note_on_c, 0, 68, 100
1, 37293, Note_off_c, 0, 68, 100
1, 37293, Note_on_c, 0, 66, 100
1, 37393, Note_off_c, 0, 66, 100
1, 37393, Note_on_c, 0, 63, 100
1, 37431, Note_off_c, 0, 63, 100
1, 37431, Note_on_c, 0, 60, 100
1, 37469, Note_off_c, 0, 60, 100
1, 37469, Note_on_c, 0, 63, 100
1, 37584, Note_off_c, 0, 63, 100
1, 37584, Note_on_c, 0, 63, 100
1, 37622, Note_off_c, 0, 63, 100
1, 37622, Note_on_c, 0, 64, 100
1, 37660, Note_off_c, 0, 64, 100
1, 37660, Note_on_c, 0, 67, 100
1, 37698, Note_off_c, 0, 67, 100
1, 37698, Note_on_c, 0, 68, 100
1, 37746, Note_off_c, 0, 68, 100
1, 37746, Note_on_c, 0, 70, 100
1, 37794, Note_off_c, 0, 70, 100
1, 37794, Note_on_c, 0, 70, 100
1, 37842, Note_off_c, 0, 70, 100
1, 37842, Note_on_c, 0, 68, 100
1, 37890, Note_off_c, 0, 68, 100
1, 37890, Note_on_c, 0, 70, 100
1, 37986, Note_off_c, 0, 70, 100
1, 38466, Note_on_c, 0, 68, 100
1, 38514, Note_off_c, 0, 68, 100
1, 38514, Note_on_c, 0, 63, 100
1, 38610, Note_off_c, 0, 63, 100
1, 38730, Note_on_c, 0, 63, 100
1, 38802, Note_off_c, 0, 63, 100
1, 38802, Note_on_c, 0, 60, 100
1, 38826, Note_off_c, 0, 60, 100
1, 38826, Note_on_c, 0, 63, 100
1, 38850, Note_off_c, 0, 63, 100
1, 38850, Note_on_c, 0, 66, 100
1, 38882, Note_off_c, 0, 66, 100
1, 38882, Note_on_c, 0, 68, 100
1, 38946, Note_off_c, 0, 68, 100
1, 38946, Note_on_c, 0, 70, 100
1, 38978, Note_off_c, 0, 70, 100
1, 38978, Note_on_c, 0, 63, 100
1, 39010, Note_off_c, 0, 63, 100
1, 39010, Note_on_c, 0, 60, 100
1, 39090, Note_off_c, 0, 60, 100
1, 39090, Note_on_c, 0, 63, 100
1, 39138, Note_off_c, 0, 63, 100
1, 39138, Note_on_c, 0, 67, 100
1, 39186, Note_off_c, 0, 67, 100
1, 39186, Note_on_c, 0, 65, 100
1, 39234, Note_off_c, 0, 65, 100
1, 39234, Note_on_c, 0, 63, 100
1, 39268, Note_off_c, 0, 63, 100
1, 39268, Note_on_c, 0, 61, 100
1, 39302, Note_off_c, 0, 61, 100
1, 39302, Note_on_c, 0, 58, 100
1, 39389, Note_off_c, 0, 58, 100
1, 39389, Note_on_c, 0, 58, 100
1, 39406, Note_off_c, 0, 58, 100
1, 39406, Note_on_c, 0, 61, 100
1, 39435, Note_off_c, 0, 61, 100
1, 39435, Note_on_c, 0, 63, 100
1, 39507, Note_off_c, 0, 63, 100
1, 39507, Note_on_c, 0, 61, 100
1, 39531, Note_off_c, 0, 61, 100
1, 39531, Note_on_c, 0, 63, 100
1, 39591, Note_off_c, 0, 63, 100
1, 39591, Note_on_c, 0, 58, 100
1, 39603, Note_off_c, 0, 58, 100
1, 39603, Note_on_c, 0, 61, 100
1, 39615, Note_off_c, 0, 61, 100
1, 39615, Note_on_c, 0, 63, 100
1, 39663, Note_off_c, 0, 63, 100
1, 39663, Note_on_c, 0, 58, 100
1, 39711, Note_off_c, 0, 58, 100
1, 39711, Note_on_c, 0, 61, 100
1, 39759, Note_off_c, 0, 61, 100
1, 39759, Note_on_c, 0, 63, 100
1, 39999, Note_off_c, 0, 63, 100
1, 39999, Note_on_c, 0, 66, 100
1, 40047, Note_off_c, 0, 66, 100
1, 40047, Note_on_c, 0, 68, 100
1, 40143, Note_off_c, 0, 68, 100
1, 40647, Note_on_c, 0, 66, 100
1, 40671, Note_off_c, 0, 66, 100
1, 40671, Note_on_c, 0, 67, 100
1, 40695, Note_off_c, 0, 67, 100
1, 40695, Note_on_c, 0, 70, 100
1, 40719, Note_off_c, 0, 70, 100
1, 40719, Note_on_c, 0, 72, 100
1, 40743, Note_off_c, 0, 72, 100
1, 40743, Note_on_c, 0, 70, 100
1, 40767, Note_off_c, 0, 70, 100
1, 40767, Note_on_c, 0, 73, 100
1, 40815, Note_off_c, 0, 73, 100
1, 40815, Note_on_c, 0, 72, 100
1, 40863, Note_off_c, 0, 72, 100
1, 40863, Note_on_c, 0, 70, 100
1, 40959, Note_off_c, 0, 70, 100
1, 41151, Note_on_c, 0, 75, 100
1, 41175, Note_off_c, 0, 75, 100
1, 41175, Note_on_c, 0, 75, 100
1, 41223, Note_off_c, 0, 75, 100
1, 41223, Note_on_c, 0, 73, 100
1, 41247, Note_off_c, 0, 73, 100
1, 41247, Note_on_c, 0, 75, 100
1, 41295, Note_off_c, 0, 75, 100
1, 41295, Note_on_c, 0, 78, 100
1, 41319, Note_off_c, 0, 78, 100
1, 41319, Note_on_c, 0, 75, 100
1, 41391, Note_off_c, 0, 75, 100
1, 41391, Note_on_c, 0, 73, 100
1, 41439, Note_off_c, 0, 73, 100
1, 41439, Note_on_c, 0, 75, 100
1, 41487, Note_off_c, 0, 75, 100
1, 41487, Note_on_c, 0, 73, 100
1, 41583, Note_off_c, 0, 73, 100
1, 41727, Note_on_c, 0, 80, 100
1, 41823, Note_off_c, 0, 80, 100
1, 41823, Note_on_c, 0, 78, 100
1, 41919, Note_off_c, 0, 78, 100
1, 41919, Note_on_c, 0, 75, 100
1, 42015, Note_off_c, 0, 75, 100
1, 42015, Note_on_c, 0, 73, 100
1, 42063, Note_off_c, 0, 73, 100
1, 42063, Note_on_c, 0, 70, 100
1, 42111, Note_off_c, 0, 70, 100
1, 42111, Note_on_c, 0, 69, 100
1, 42135, Note_off_c, 0, 69, 100
1, 42135, Note_on_c, 0, 70, 100
1, 42159, Note_off_c, 0, 70, 100
1, 42159, Note_on_c, 0, 69, 100
1, 42183, Note_off_c, 0, 69, 100
1, 42183, Note_on_c, 0, 63, 100
1, 42207, Note_off_c, 0, 63, 100
1, 42207, Note_on_c, 0, 68, 100
1, 42255, Note_off_c, 0, 68, 100
1, 42255, Note_on_c, 0, 70, 100
1, 42303, Note_off_c, 0, 70, 100
1, 42303, Note_on_c, 0, 66, 100
1, 42327, Note_off_c, 0, 66, 100
1, 42327, Note_on_c, 0, 67, 100
1, 42399, Note_off_c, 0, 67, 100
1, 42399, Note_on_c, 0, 63, 100
1, 42471, Note_off_c, 0, 63, 100
1, 42471, Note_on_c, 0, 61, 100
1, 42591, Note_off_c, 0, 61, 100
1, 42591, Note_on_c, 0, 63, 100
1, 42639, Note_off_c, 0, 63, 100
1, 42639, Note_on_c, 0, 58, 100
1, 42663, Note_off_c, 0, 58, 100
1, 42663, Note_on_c, 0, 61, 100
1, 42735, Note_off_c, 0, 61, 100
1, 42735, Note_on_c, 0, 63, 100
1, 42783, Note_off_c, 0, 63, 100
1, 42783, Note_on_c, 0, 66, 100
1, 42831, Note_off_c, 0, 66, 100
1, 42831, Note_on_c, 0, 68, 100
1, 42985, Note_off_c, 0, 68, 100
1, 42985, Note_on_c, 0, 66, 100
1, 43006, Note_off_c, 0, 66, 100
1, 43006, Note_on_c, 0, 63, 100
1, 43027, Note_off_c, 0, 63, 100
1, 43027, Note_on_c, 0, 58, 100
1, 43048, Note_off_c, 0, 58, 100
1, 43048, Note_on_c, 0, 61, 100
1, 43069, Note_off_c, 0, 61, 100
1, 43069, Note_on_c, 0, 63, 100
1, 43165, Note_off_c, 0, 63, 100
1, 43313, Note_on_c, 0, 58, 100
1, 43330, Note_off_c, 0, 58, 100
1, 43330, Note_on_c, 0, 57, 100
1, 43347, Note_off_c, 0, 57, 100
1, 43347, Note_on_c, 0, 55, 100
1, 43364, Note_off_c, 0, 55, 100
1, 43364, Note_on_c, 0, 56, 100
1, 43381, Note_off_c, 0, 56, 100
1, 43381, Note_on_c, 0, 60, 100
1, 43415, Note_off_c, 0, 60, 100
1, 43415, Note_on_c, 0, 63, 100
1, 43432, Note_off_c, 0, 63, 100
1, 43432, Note_on_c, 0, 66, 100
1, 43449, Note_off_c, 0, 66, 100
1, 43449, Note_on_c, 0, 65, 100
1, 43545, Note_off_c, 0, 65, 100
1, 43689, Note_on_c, 0, 63, 100
1, 43713, Note_off_c, 0, 63, 100
1, 43713, Note_on_c, 0, 60, 100
1, 43737, Note_off_c, 0, 60, 100
1, 43737, Note_on_c, 0, 63, 100
1, 43761, Note_off_c, 0, 63, 100
1, 43761, Note_on_c, 0, 66, 100
1, 43785, Note_off_c, 0, 66, 100
1, 43785, Note_on_c, 0, 67, 100
1, 43833, Note_off_c, 0, 67, 100
1, 43833, Note_on_c, 0, 63, 100
1, 43929, Note_off_c, 0, 63, 100
1, 44409, Note_on_c, 0, 68, 100
1, 44457, Note_off_c, 0, 68, 100
1, 44457, Note_on_c, 0, 63, 100
1, 44473, Note_off_c, 0, 63, 100
1, 44473, Note_on_c, 0, 68, 100
1, 44489, Note_off_c, 0, 68, 100
1, 44489, Note_on_c, 0, 72, 100
1, 44521, Note_off_c, 0, 72, 100
1, 44521, Note_on_c, 0, 73, 100
1, 44537, Note_off_c, 0, 73, 100
1, 44537, Note_on_c, 0, 72, 100
1, 44553, Note_off_c, 0, 72, 100
1, 44553, Note_on_c, 0, 68, 100
1, 44569, Note_off_c, 0, 68, 100
1, 44569, Note_on_c, 0, 70, 100
1, 44585, Note_off_c, 0, 70, 100
1, 44585, Note_on_c, 0, 72, 100
1, 44601, Note_off_c, 0, 72, 100
1, 44601, Note_on_c, 0, 70, 100
1, 44639, Note_off_c, 0, 70, 100
1, 44639, Note_on_c, 0, 67, 100
1, 44677, Note_off_c, 0, 67, 100
1, 44677, Note_on_c, 0, 68, 100
1, 44715, Note_off_c, 0, 68, 100
1, 44715, Note_on_c, 0, 66, 100
1, 44753, Note_off_c, 0, 66, 100
1, 44753, Note_on_c, 0, 63, 100
1, 44849, Note_off_c, 0, 63, 100
1, 45031, Note_on_c, 0, 70, 100
1, 45079, Note_off_c, 0, 70, 100
1, 45079, Note_on_c, 0, 72, 100
1, 45127, Note_off_c, 0, 72, 100
1, 45127, Note_on_c, 0, 75, 100
1, 45319, Note_off_c, 0, 75, 100
1, 45319, Note_on_c, 0, 70, 100
1, 45367, Note_off_c, 0, 70, 100
1, 45367, Note_on_c, 0, 72, 100
1, 45394, Note_off_c, 0, 72, 100
1, 45394, Note_on_c, 0, 70, 100
1, 45421, Note_off_c, 0, 70, 100
1, 45421, Note_on_c, 0, 69, 100
1, 45448, Note_off_c, 0, 69, 100
1, 45448, Note_on_c, 0, 72, 100
1, 45475, Note_off_c, 0, 72, 100
1, 45475, Note_on_c, 0, 70, 100
1, 45502, Note_off_c, 0, 70, 100
1, 45502, Note_on_c, 0, 67, 100
1, 45529, Note_off_c, 0, 67, 100
1, 45529, Note_on_c, 0, 63, 100
1, 45643, Note_off_c, 0, 63, 100
1, 45643, Note_on_c, 0, 70, 100
1, 45660, Note_off_c, 0, 70, 100
1, 45660, Note_on_c, 0, 72, 100
1, 45677, Note_off_c, 0, 72, 100
1, 45677, Note_on_c, 0, 70, 100
1, 45694, Note_off_c, 0, 70, 100
1, 45694, Note_on_c, 0, 69, 100
1, 45711, Note_off_c, 0, 69, 100
1, 45711, Note_on_c, 0, 72, 100
1, 45728, Note_off_c, 0, 72, 100
1, 45728, Note_on_c, 0, 73, 100
1, 45745, Note_off_c, 0, 73, 100
1, 45745, Note_on_c, 0, 72, 100
1, 45793, Note_off_c, 0, 72, 100
1, 45793, Note_on_c, 0, 69, 100
1, 45841, Note_off_c, 0, 69, 100
1, 45841, Note_on_c, 0, 70, 100
1, 45958, Note_off_c, 0, 70, 100
1, 45958, Note_on_c, 0, 70, 100
1, 45979, Note_off_c, 0, 70, 100
1, 45979, Note_on_c, 0, 72, 100
1, 46000, Note_off_c, 0, 72, 100
1, 46000, Note_on_c, 0, 70, 100
1, 46021, Note_off_c, 0, 70, 100
1, 46021, Note_on_c, 0, 68, 100
1, 46042, Note_off_c, 0, 68, 100
1, 46042, Note_on_c, 0, 72, 100
1, 46063, Note_off_c, 0, 72, 100
1, 46063, Note_on_c, 0, 70, 100
1, 46084, Note_off_c, 0, 70, 100
1, 46084, Note_on_c, 0, 68, 100
1, 46105, Note_off_c, 0, 68, 100
1, 46105, Note_on_c, 0, 66, 100
1, 46203, Note_off_c, 0, 66, 100
1, 46203, Note_on_c, 0, 70, 100
1, 46222, Note_off_c, 0, 70, 100
1, 46222, Note_on_c, 0, 72, 100
1, 46241, Note_off_c, 0, 72, 100
1, 46241, Note_on_c, 0, 70, 100
1, 46260, Note_off_c, 0, 70, 100
1, 46260, Note_on_c, 0, 68, 100
1, 46279, Note_off_c, 0, 68, 100
1, 46279, Note_on_c, 0, 72, 100
1, 46298, Note_off_c, 0, 72, 100
1, 46298, Note_on_c, 0, 73, 100
1, 46317, Note_off_c, 0, 73, 100
1, 46317, Note_on_c, 0, 72, 100
1, 46365, Note_off_c, 0, 72, 100
1, 46365, Note_on_c, 0, 70, 100
1, 46413, Note_off_c, 0, 70, 100
1, 46413, Note_on_c, 0, 73, 100
1, 46509, Note_off_c, 0, 73, 100
1, 46509, Note_on_c, 0, 70, 100
1, 46533, Note_off_c, 0, 70, 100
1, 46533, Note_on_c, 0, 72, 100
1, 46557, Note_off_c, 0, 72, 100
1, 46557, Note_on_c, 0, 70, 100
1, 46581, Note_off_c, 0, 70, 100
1, 46581, Note_on_c, 0, 68, 100
1, 46605, Note_off_c, 0, 68, 100
1, 46605, Note_on_c, 0, 72, 100
1, 46629, Note_off_c, 0, 72, 100
1, 46629, Note_on_c, 0, 70, 100
1, 46653, Note_off_c, 0, 70, 100
1, 46653, Note_on_c, 0, 68, 100
1, 46677, Note_off_c, 0, 68, 100
1, 46677, Note_on_c, 0, 66, 100
1, 46773, Note_off_c, 0, 66, 100
1, 46773, Note_on_c, 0, 70, 100
1, 46797, Note_off_c, 0, 70, 100
1, 46797, Note_on_c, 0, 72, 100
1, 46821, Note_off_c, 0, 72, 100
1, 46821, Note_on_c, 0, 70, 100
1, 46845, Note_off_c, 0, 70, 100
1, 46845, Note_on_c, 0, 69, 100
1, 46869, Note_off_c, 0, 69, 100
1, 46869, Note_on_c, 0, 70, 100
1, 46893, Note_off_c, 0, 70, 100
1, 46893, Note_on_c, 0, 72, 100
1, 46914, Note_off_c, 0, 72, 100
1, 46914, Note_on_c, 0, 69, 100
1, 46935, Note_off_c, 0, 69, 100
1, 46935, Note_on_c, 0, 70, 100
1, 46956, Note_off_c, 0, 70, 100
1, 46956, Note_on_c, 0, 72, 100
1, 46977, Note_off_c, 0, 72, 100
1, 46977, Note_on_c, 0, 70, 100
1, 47040, Note_off_c, 0, 70, 100
1, 47040, Note_on_c, 0, 72, 100
1, 47061, Note_off_c, 0, 72, 100
1, 47061, Note_on_c, 0, 70, 100
1, 47082, Note_off_c, 0, 70, 100
1, 47082, Note_on_c, 0, 72, 100
1, 47109, Note_off_c, 0, 72, 100
1, 47109, Note_on_c, 0, 70, 100
1, 47136, Note_off_c, 0, 70, 100
1, 47136, Note_on_c, 0, 69, 100
1, 47163, Note_off_c, 0, 69, 100
1, 47163, Note_on_c, 0, 70, 100
1, 47190, Note_off_c, 0, 70, 100
1, 47190, Note_on_c, 0, 75, 100
1, 47217, Note_off_c, 0, 75, 100
1, 47217, Note_on_c, 0, 70, 100
1, 47271, Note_off_c, 0, 70, 100
1, 47271, Note_on_c, 0, 69, 100
1, 47292, Note_off_c, 0, 69, 100
1, 47292, Note_on_c, 0, 70, 100
1, 47334, Note_off_c, 0, 70, 100
1, 47334, Note_on_c, 0, 72, 100
1, 47355, Note_off_c, 0, 72, 100
1, 47355, Note_on_c, 0, 70, 100
1, 47397, Note_off_c, 0, 70, 100
1, 47397, Note_on_c, 0, 72, 100
1, 47418, Note_off_c, 0, 72, 100
1, 47418, Note_on_c, 0, 70, 100
1, 47439, Note_off_c, 0, 70, 100
1, 47439, Note_on_c, 0, 66, 100
1, 47460, Note_off_c, 0, 66, 100
1, 47460, Note_on_c, 0, 68, 100
1, 47508, Note_off_c, 0, 68, 100
1, 47508, Note_on_c, 0, 66, 100
1, 47556, Note_off_c, 0, 66, 100
1, 47556, Note_on_c, 0, 68, 100
1, 47604, Note_off_c, 0, 68, 100
1, 47604, Note_on_c, 0, 66, 100
1, 47652, Note_off_c, 0, 66, 100
1, 47652, Note_on_c, 0, 68, 100
1, 47700, Note_off_c, 0, 68, 100
1, 47700, Note_on_c, 0, 66, 100
1, 47748, Note_off_c, 0, 66, 100
1, 47748, Note_on_c, 0, 70, 100
1, 47796, Note_off_c, 0, 70, 100
1, 47796, Note_on_c, 0, 63, 100
1, 47892, Note_off_c, 0, 63, 100
1, 48090, Note_on_c, 0, 63, 100
1, 48117, Note_off_c, 0, 63, 100
1, 48117, Note_on_c, 0, 65, 100
1, 48144, Note_off_c, 0, 65, 100
1, 48144, Note_on_c, 0, 67, 100
1, 48198, Note_off_c, 0, 67, 100
1, 48198, Note_on_c, 0, 63, 100
1, 48263, Note_off_c, 0, 63, 100
1, 48263, Note_on_c, 0, 63, 100
1, 48378, Note_off_c, 0, 63, 100
1, 48378, Note_on_c, 0, 63, 100
1, 48474, Note_off_c, 0, 63, 100
1, 48848, Note_on_c, 0, 62, 100
1, 48896, Note_off_c, 0, 62, 100
1, 48896, Note_on_c, 0, 63, 100
1, 48944, Note_off_c, 0, 63, 100
1, 48944, Note_on_c, 0, 63, 100
1, 48992, Note_off_c, 0, 63, 100
1, 48992, Note_on_c, 0, 63, 100
1, 49184, Note_off_c, 0, 63, 100
1, 49184, Note_on_c, 0, 63, 100
1, 49248, Note_off_c, 0, 63, 100
1, 49248, Note_on_c, 0, 63, 100
1, 49312, Note_off_c, 0, 63, 100
1, 49312, Note_on_c, 0, 63, 100
1, 49520, Note_off_c, 0, 63, 100
1, 49520, Note_on_c, 0, 63, 100
1, 49568, Note_off_c, 0, 63, 100
1, 49568, Note_on_c, 0, 63, 100
1, 49616, Note_off_c, 0, 63, 100
1, 49616, Note_on_c, 0, 63, 100
1, 49664, Note_off_c, 0, 63, 100
1, 49664, Note_on_c, 0, 63, 100
1, 49712, Note_off_c, 0, 63, 100
1, 49712, Note_on_c, 0, 66, 100
1, 49760, Note_off_c, 0, 66, 100
1, 49760, Note_on_c, 0, 63, 100
1, 49808, Note_off_c, 0, 63, 100
1, 49808, Note_on_c, 0, 61, 100
1, 49856, Note_off_c, 0, 61, 100
1, 49856, Note_on_c, 0, 63, 100
1, 49904, Note_off_c, 0, 63, 100
1, 49904, Note_on_c, 0, 58, 100
1, 50000, Note_off_c, 0, 58, 100
1, 50336, Note_on_c, 0, 58, 100
1, 50355, Note_off_c, 0, 58, 100
1, 50355, Note_on_c, 0, 59, 100
1, 50374, Note_off_c, 0, 59, 100
1, 50374, Note_on_c, 0, 61, 100
1, 50393, Note_off_c, 0, 61, 100
1, 50393, Note_on_c, 0, 63, 100
1, 50431, Note_off_c, 0, 63, 100
1, 50431, Note_on_c, 0, 66, 100
1, 50469, Note_off_c, 0, 66, 100
1, 50469, Note_on_c, 0, 63, 100
1, 50507, Note_off_c, 0, 63, 100
1, 50507, Note_on_c, 0, 61, 100
1, 50622, Note_off_c, 0, 61, 100
1, 50622, Note_on_c, 0, 61, 100
1, 50654, Note_off_c, 0, 61, 100
1, 50654, Note_on_c, 0, 63, 100
1, 50686, Note_off_c, 0, 63, 100
1, 50686, Note_on_c, 0, 66, 100
1, 50718, Note_off_c, 0, 66, 100
1, 50718, Note_on_c, 0, 68, 100
1, 50750, Note_off_c, 0, 68, 100
1, 50750, Note_on_c, 0, 66, 100
1, 50782, Note_off_c, 0, 66, 100
1, 50782, Note_on_c, 0, 63, 100
1, 50814, Note_off_c, 0, 63, 100
1, 50814, Note_on_c, 0, 58, 100
1, 50846, Note_off_c, 0, 58, 100
1, 50846, Note_on_c, 0, 61, 100
1, 50878, Note_off_c, 0, 61, 100
1, 50878, Note_on_c, 0, 63, 100
1, 50910, Note_off_c, 0, 63, 100
1, 50910, Note_on_c, 0, 61, 100
1, 50942, Note_off_c, 0, 61, 100
1, 50942, Note_on_c, 0, 63, 100
1, 50974, Note_off_c, 0, 63, 100
1, 50974, Note_on_c, 0, 61, 100
1, 51006, Note_off_c, 0, 61, 100
1, 51006, Note_on_c, 0, 63, 100
1, 51038, Note_off_c, 0, 63, 100
1, 51038, Note_on_c, 0, 66, 100
1, 51070, Note_off_c, 0, 66, 100
1, 51070, Note_on_c, 0, 68, 100
1, 51102, Note_off_c, 0, 68, 100
1, 51102, Note_on_c, 0, 70, 100
1, 51134, Note_off_c, 0, 70, 100
1, 51134, Note_on_c, 0, 68, 100
1, 51166, Note_off_c, 0, 68, 100
1, 51166, Note_on_c, 0, 70, 100
1, 51198, Note_off_c, 0, 70, 100
1, 51198, Note_on_c, 0, 68, 100
1, 51230, Note_off_c, 0, 68, 100
1, 51230, Note_on_c, 0, 66, 100
1, 51262, Note_off_c, 0, 66, 100
1, 51262, Note_on_c, 0, 63, 100
1, 51294, Note_off_c, 0, 63, 100
1, 51294, Note_on_c, 0, 61, 100
1, 51326, Note_off_c, 0, 61, 100
1, 51326, Note_on_c, 0, 63, 100
1, 51358, Note_off_c, 0, 63, 100
1, 51358, Note_on_c, 0, 61, 100
1, 51390, Note_off_c, 0, 61, 100
1, 51390, Note_on_c, 0, 63, 100
1, 51422, Note_off_c, 0, 63, 100
1, 51422, Note_on_c, 0, 66, 100
1, 51454, Note_off_c, 0, 66, 100
1, 51454, Note_on_c, 0, 68, 100
1, 51486, Note_off_c, 0, 68, 100
1, 51486, Note_on_c, 0, 70, 100
1, 51518, Note_off_c, 0, 70, 100
1, 51518, Note_on_c, 0, 68, 100
1, 51550, Note_off_c, 0, 68, 100
1, 51550, Note_on_c, 0, 70, 100
1, 51582, Note_off_c, 0, 70, 100
1, 51582, Note_on_c, 0, 68, 100
1, 51614, Note_off_c, 0, 68, 100
1, 51614, Note_on_c, 0, 66, 100
1, 51646, Note_off_c, 0, 66, 100
1, 51646, Note_on_c, 0, 63, 100
1, 51678, Note_off_c, 0, 63, 100
1, 51678, Note_on_c, 0, 61, 100
1, 51702, Note_off_c, 0, 61, 100
1, 51702, Note_on_c, 0, 63, 100
1, 51726, Note_off_c, 0, 63, 100
1, 51726, Note_on_c, 0, 61, 100
1, 51750, Note_off_c, 0, 61, 100
1, 51750, Note_on_c, 0, 63, 100
1, 51798, Note_off_c, 0, 63, 100
1, 51798, Note_on_c, 0, 61, 100
1, 51822, Note_off_c, 0, 61, 100
1, 51822, Note_on_c, 0, 63, 100
1, 51846, Note_off_c, 0, 63, 100
1, 51846, Note_on_c, 0, 66, 100
1, 51894, Note_off_c, 0, 66, 100
1, 51894, Note_on_c, 0, 63, 100
1, 51918, Note_off_c, 0, 63, 100
1, 51918, Note_on_c, 0, 66, 100
1, 51966, Note_off_c, 0, 66, 100
1, 51966, Note_on_c, 0, 68, 100
1, 51990, Note_off_c, 0, 68, 100
1, 51990, Note_on_c, 0, 66, 100
1, 52014, Note_off_c, 0, 66, 100
1, 52014, Note_on_c, 0, 63, 100
1, 52062, Note_off_c, 0, 63, 100
1, 52062, Note_on_c, 0, 61, 100
1, 52086, Note_off_c, 0, 61, 100
1, 52086, Note_on_c, 0, 63, 100
1, 52110, Note_off_c, 0, 63, 100
1, 52110, Note_on_c, 0, 61, 100
1, 52134, Note_off_c, 0, 61, 100
1, 52134, Note_on_c, 0, 63, 100
1, 52182, Note_off_c, 0, 63, 100
1, 52182, Note_on_c, 0, 61, 100
1, 52206, Note_off_c, 0, 61, 100
1, 52206, Note_on_c, 0, 63, 100
1, 52230, Note_off_c, 0, 63, 100
1, 52230, Note_on_c, 0, 66, 100
1, 52254, Note_off_c, 0, 66, 100
1, 52254, Note_on_c, 0, 63, 100
1, 52302, Note_off_c, 0, 63, 100
1, 52302, Note_on_c, 0, 66, 100
1, 52350, Note_off_c, 0, 66, 100
1, 52350, Note_on_c, 0, 68, 100
1, 52484, Note_off_c, 0, 68, 100
1, 52484, Note_on_c, 0, 63, 100
1, 52522, Note_off_c, 0, 63, 100
1, 52522, Note_on_c, 0, 66, 100
1, 52560, Note_off_c, 0, 66, 100
1, 52560, Note_on_c, 0, 63, 100
1, 52598, Note_off_c, 0, 63, 100
1, 52598, Note_on_c, 0, 66, 100
1, 52636, Note_off_c, 0, 66, 100
1, 52636, Note_on_c, 0, 68, 100
1, 52660, Note_off_c, 0, 68, 100
1, 52660, Note_on_c, 0, 66, 100
1, 52684, Note_off_c, 0, 66, 100
1, 52684, Note_on_c, 0, 68, 100
1, 52732, Note_off_c, 0, 68, 100
1, 52732, Note_on_c, 0, 69, 100
1, 52756, Note_off_c, 0, 69, 100
1, 52756, Note_on_c, 0, 66, 100
1, 52780, Note_off_c, 0, 66, 100
1, 52780, Note_on_c, 0, 69, 100
1, 52804, Note_off_c, 0, 69, 100
1, 52804, Note_on_c, 0, 68, 100
1, 52828, Note_off_c, 0, 68, 100
1, 52828, Note_on_c, 0, 70, 100
1, 53116, Note_off_c, 0, 70, 100
1, 53356, Note_on_c, 0, 68, 100
1, 53404, Note_off_c, 0, 68, 100
1, 53404, Note_on_c, 0, 70, 100
1, 53740, Note_off_c, 0, 70, 100
1, 53740, Note_on_c, 0, 68, 100
1, 53788, Note_off_c, 0, 68, 100
1, 53788, Note_on_c, 0, 70, 100
1, 54148, Note_off_c, 0, 70, 100
1, 54148, Note_on_c, 0, 69, 100
1, 54172, Note_off_c, 0, 69, 100
1, 54172, Note_on_c, 0, 68, 100
1, 54268, Note_off_c, 0, 68, 100
1, 54268, Note_on_c, 0, 66, 100
1, 54316, Note_off_c, 0, 66, 100
1, 54316, Note_on_c, 0, 63, 100
1, 54388, Note_off_c, 0, 63, 100
1, 54388, Note_on_c, 0, 61, 100
1, 54412, Note_off_c, 0, 61, 100
1, 54412, Note_on_c, 0, 58, 100
1, 54460, Note_off_c, 0, 58, 100
1, 54460, Note_on_c, 0, 56, 100
1, 54484, Note_off_c, 0, 56, 100
1, 54484, Note_on_c, 0, 54, 100
1, 54532, Note_off_c, 0, 54, 100
1, 54532, Note_on_c, 0, 51, 100
1, 54892, Note_off_c, 0, 51, 100
1, 54892, Note_on_c, 0, 53, 100
1, 54940, Note_off_c, 0, 53, 100
1, 54940, Note_on_c, 0, 55, 100
1, 54988, Note_off_c, 0, 55, 100
1, 54988, Note_on_c, 0, 58, 100
1, 55036, Note_off_c, 0, 58, 100
1, 55036, Note_on_c, 0, 63, 100
1, 55084, Note_off_c, 0, 63, 100
1, 55084, Note_on_c, 0, 58, 100
1, 55132, Note_off_c, 0, 58, 100
1, 55132, Note_on_c, 0, 61, 100
1, 55196, Note_off_c, 0, 61, 100
1, 55196, Note_on_c, 0, 63, 100
1, 55612, Note_off_c, 0, 63, 100
1, 55612, Note_on_c, 0, 58, 100
1, 55660, Note_off_c, 0, 58, 100
1, 55660, Note_on_c, 0, 56, 100
1, 55708, Note_off_c, 0, 56, 100
1, 55708, Note_on_c, 0, 54, 100
1, 55784, Note_off_c, 0, 54, 100
1, 55784, Note_on_c, 0, 51, 100
1, 55822, Note_off_c, 0, 51, 100
1, 55822, Note_on_c, 0, 51, 100
1, 55860, Note_off_c, 0, 51, 100
1, 55860, Note_on_c, 0, 49, 100
1, 55898, Note_off_c, 0, 49, 100
1, 55898, Note_on_c, 0, 51, 100
1, 56147, Note_off_c, 0, 51, 100
1, 56147, End_track
0, 0, End_of_file
