0, 0, Header, 1, 1, 192
1, 0, Start_track
1, 0, Title_t, "Melody"
1, 0, Tempo, 338983
1, 0, Key_signature, -2, "major"
1, 0, Time_signature, 4, 2, 24, 8
1, 192, Note_on_c, 0, 53, 100
1, 256, Note_off_c, 0, 53, 100
1, 256, Note_on_c, 0, 58, 100
1, 320, Note_off_c, 0, 58, 100
1, 320, Note_on_c, 0, 62, 100
1, 384, Note_off_c, 0, 62, 100
1, 384, Note_on_c, 0, 65, 100
1, 480, Note_off_c, 0, 65, 100
1, 480, Note_on_c, 0, 62, 100
1, 576, Note_off_c, 0, 62, 100
1, 576, Note_on_c, 0, 60, 100
1, 672, Note_off_c, 0, 60, 100
1, 672, Note_on_c, 0, 58, 100
1, 768, Note_off_c, 0, 58, 100
1, 768, Note_on_c, 0, 55, 100
1, 864, Note_off_c, 0, 55, 100
1, 864, Note_on_c, 0, 58, 100
1, 960, Note_off_c, 0, 58, 100
1, 960, Note_on_c, 0, 60, 100
1, 1056, Note_off_c, 0, 60, 100
1, 1056, Note_on_c, 0, 62, 100
1, 1152, Note_off_c, 0, 62, 100
1, 1152, Note_on_c, 0, 65, 100
1, 1248, Note_off_c, 0, 65, 100
1, 1248, Note_on_c, 0, 63, 100
1, 1344, Note_off_c, 0, 63, 100
1, 1344, Note_on_c, 0, 64, 100
1, 1440, Note_off_c, 0, 64, 100
1, 1440, Note_on_c, 0, 62, 100
1, 1536, Note_off_c, 0, 62, 100
1, 1536, Note_on_c, 0, 63, 100
1, 1632, Note_off_c, 0, 63, 100
1, 1632, Note_on_c, 0, 60, 100
1, 1728, Note_off_c, 0, 60, 100
1, 1728, Note_on_c, 0, 55, 100
1, 1872, Note_off_c, 0, 55, 100
1, 1872, Note_on_c, 0, 53, 100
1, 1920, Note_off_c, 0, 53, 100
1, 1920, Note_on_c, 0, 62, 100
1, 2048, Note_off_c, 0, 62, 100
1, 2048, Note_on_c, 0, 58, 100
1, 2112, Note_off_c, 0, 58, 100
1, 2112, Note_on_c, 0, 61, 100
1, 2208, Note_off_c, 0, 61, 100
1, 2208, Note_on_c, 0, 58, 100
1, 2256, Note_off_c, 0, 58, 100
1, 2256, Note_on_c, 0, 60, 100
1, 2400, Note_off_c, 0, 60, 100
1, 2400, Note_on_c, 0, 58, 100
1, 2448, Note_off_c, 0, 58, 100
1, 2448, Note_on_c, 0, 55, 100
1, 2560, Note_off_c, 0, 55, 100
1, 2560, Note_on_c, 0, 56, 100
1, 2624, Note_off_c, 0, 56, 100
1, 2624, Note_on_c, 0, 57, 100
1, 2752, Note_off_c, 0, 57, 100
1, 2752, Note_on_c, 0, 56, 100
1, 2816, Note_off_c, 0, 56, 100
1, 2816, Note_on_c, 0, 55, 100
1, 2976, Note_off_c, 0, 55, 100
1, 2976, Note_on_c, 0, 55, 100
1, 3024, Note_off_c, 0, 55, 100
1, 3024, Note_on_c, 0, 54, 100
1, 3072, Note_off_c, 0, 54, 100
1, 3072, Note_on_c, 0, 53, 100
1, 3264, Note_off_c, 0, 53, 100
1, 3264, Note_on_c, 0, 65, 100
1, 3312, Note_off_c, 0, 65, 100
1, 3312, Note_on_c, 0, 67, 100
1, 3360, Note_off_c, 0, 67, 100
1, 3360, Note_on_c, 0, 65, 100
1, 3408, Note_off_c, 0, 65, 100
1, 3408, Note_on_c, 0, 63, 100
1, 3456, Note_off_c, 0, 63, 100
1, 3456, Note_on_c, 0, 62, 100
1, 3552, Note_off_c, 0, 62, 100
1, 4032, Note_on_c, 0, 65, 100
1, 4080, Note_off_c, 0, 65, 100
1, 4080, Note_on_c, 0, 67, 100
1, 4128, Note_off_c, 0, 67, 100
1, 4128, Note_on_c, 0, 65, 100
1, 4176, Note_off_c, 0, 65, 100
1, 4176, Note_on_c, 0, 63, 100
1, 4224, Note_off_c, 0, 63, 100
1, 4224, Note_on_c, 0, 64, 100
1, 4320, Note_off_c, 0, 64, 100
1, 4320, Note_on_c, 0, 59, 100
1, 4416, Note_off_c, 0, 59, 100
1, 4416, Note_on_c, 0, 56, 100
1, 4512, Note_off_c, 0, 56, 100
1, 4512, Note_on_c, 0, 57, 100
1, 4608, Note_off_c, 0, 57, 100
1, 4608, Note_on_c, 0, 58, 100
1, 4736, Note_off_c, 0, 58, 100
1, 4736, Note_on_c, 0, 54, 100
1, 4800, Note_off_c, 0, 54, 100
1, 4800, Note_on_c, 0, 55, 100
1, 4928, Note_off_c, 0, 55, 100
1, 4928, Note_on_c, 0, 58, 100
1, 4992, Note_off_c, 0, 58, 100
1, 4992, Note_on_c, 0, 60, 100
1, 5088, Note_off_c, 0, 60, 100
1, 5088, Note_on_c, 0, 61, 100
1, 5184, Note_off_c, 0, 61, 100
1, 5184, Note_on_c, 0, 62, 100
1, 5312, Note_off_c, 0, 62, 100
1, 5312, Note_on_c, 0, 61, 100
1, 5376, Note_off_c, 0, 61, 100
1, 5376, Note_on_c, 0, 60, 100
1, 5472, Note_off_c, 0, 60, 100
1, 5472, Note_on_c, 0, 58, 100
1, 5568, Note_off_c, 0, 58, 100
1, 5568, Note_on_c, 0, 57, 100
1, 5664, Note_off_c, 0, 57, 100
1, 5664, Note_on_c, 0, 55, 100
1, 5760, Note_off_c, 0, 55, 100
1, 5760, Note_on_c, 0, 53, 100
1, 5952, Note_off_c, 0, 53, 100
1, 5952, Note_on_c, 0, 51, 100
1, 6144, Note_off_c, 0, 51, 100
1, 6144, Note_on_c, 0, 50, 100
1, 6240, Note_off_c, 0, 50, 100
1, 6240, Note_on_c, 0, 53, 100
1, 6336, Note_off_c, 0, 53, 100
1, 6336, Note_on_c, 0, 55, 100
1, 6464, Note_off_c, 0, 55, 100
1, 6464, Note_on_c, 0, 58, 100
1, 6527, Note_off_c, 0, 58, 100
1, 6527, Note_on_c, 0, 58, 100
1, 6623, Note_off_c, 0, 58, 100
1, 6623, Note_on_c, 0, 53, 100
1, 6719, Note_off_c, 0, 53, 100
1, 7103, Note_on_c, 0, 58, 100
1, 7199, Note_off_c, 0, 58, 100
1, 7199, Note_on_c, 0, 58, 100
1, 7247, Note_off_c, 0, 58, 100
1, 7247, Note_on_c, 0, 59, 100
1, 7391, Note_off_c, 0, 59, 100
1, 7391, Note_on_c, 0, 62, 100
1, 7487, Note_off_c, 0, 62, 100
1, 7487, Note_on_c, 0, 65, 100
1, 7583, Note_off_c, 0, 65, 100
1, 7583, Note_on_c, 0, 59, 100
1, 7679, Note_off_c, 0, 59, 100
1, 7679, Note_on_c, 0, 60, 100
1, 7775, Note_off_c, 0, 60, 100
1, 7775, Note_on_c, 0, 63, 100
1, 7871, Note_off_c, 0, 63, 100
1, 7871, Note_on_c, 0, 67, 100
1, 7967, Note_off_c, 0, 67, 100
1, 7967, Note_on_c, 0, 63, 100
1, 8063, Note_off_c, 0, 63, 100
1, 8063, Note_on_c, 0, 65, 100
1, 8111, Note_off_c, 0, 65, 100
1, 8111, Note_on_c, 0, 66, 100
1, 8207, Note_off_c, 0, 66, 100
1, 8207, Note_on_c, 0, 63, 100
1, 8255, Note_off_c, 0, 63, 100
1, 8255, Note_on_c, 0, 65, 100
1, 8351, Note_off_c, 0, 65, 100
1, 8351, Note_on_c, 0, 62, 100
1, 8447, Note_off_c, 0, 62, 100
1, 8447, Note_on_c, 0, 63, 100
1, 8543, Note_off_c, 0, 63, 100
1, 8543, Note_on_c, 0, 60, 100
1, 8639, Note_off_c, 0, 60, 100
1, 8639, Note_on_c, 0, 55, 100
1, 8735, Note_off_c, 0, 55, 100
1, 8735, Note_on_c, 0, 53, 100
1, 8831, Note_off_c, 0, 53, 100
1, 8831, Note_on_c, 0, 61, 100
1, 8869, Note_off_c, 0, 61, 100
1, 8869, Note_on_c, 0, 62, 100
1, 8907, Note_off_c, 0, 62, 100
1, 8907, Note_on_c, 0, 63, 100
1, 8945, Note_off_c, 0, 63, 100
1, 8945, Note_on_c, 0, 62, 100
1, 8983, Note_off_c, 0, 62, 100
1, 8983, Note_on_c, 0, 60, 100
1, 9021, Note_off_c, 0, 60, 100
1, 9021, Note_on_c, 0, 61, 100
1, 9117, Note_off_c, 0, 61, 100
1, 9117, Note_on_c, 0, 55, 100
1, 9213, Note_off_c, 0, 55, 100
1, 9213, Note_on_c, 0, 59, 100
1, 9277, Note_off_c, 0, 59, 100
1, 9277, Note_on_c, 0, 60, 100
1, 9341, Note_off_c, 0, 60, 100
1, 9341, Note_on_c, 0, 58, 100
1, 9405, Note_off_c, 0, 58, 100
1, 9405, Note_on_c, 0, 55, 100
1, 9501, Note_off_c, 0, 55, 100
1, 9789, Note_on_c, 0, 59, 100
1, 9917, Note_off_c, 0, 59, 100
1, 9917, Note_on_c, 0, 60, 100
1, 10125, Note_off_c, 0, 60, 100
1, 10125, Note_on_c, 0, 55, 100
1, 10365, Note_off_c, 0, 55, 100
1, 10365, Note_on_c, 0, 59, 100
1, 10461, Note_off_c, 0, 59, 100
1, 10461, Note_on_c, 0, 55, 100
1, 10557, Note_off_c, 0, 55, 100
1, 10557, Note_on_c, 0, 52, 100
1, 10653, Note_off_c, 0, 52, 100
1, 10653, Note_on_c, 0, 50, 100
1, 10749, Note_off_c, 0, 50, 100
1, 10749, Note_on_c, 0, 51, 100
1, 10941, Note_off_c, 0, 51, 100
1, 10941, Note_on_c, 0, 50, 100
1, 11005, Note_off_c, 0, 50, 100
1, 11005, Note_on_c, 0, 53, 100
1, 11069, Note_off_c, 0, 53, 100
1, 11069, Note_on_c, 0, 55, 100
1, 11133, Note_off_c, 0, 55, 100
1, 11133, Note_on_c, 0, 62, 100
1, 11277, Note_off_c, 0, 62, 100
1, 11277, Note_on_c, 0, 61, 100
1, 11325, Note_off_c, 0, 61, 100
1, 11325, Note_on_c, 0, 60, 100
1, 11453, Note_off_c, 0, 60, 100
1, 11453, Note_on_c, 0, 58, 100
1, 11517, Note_off_c, 0, 58, 100
1, 11517, Note_on_c, 0, 57, 100
1, 11613, Note_off_c, 0, 57, 100
1, 12285, Note_on_c, 0, 67, 100
1, 12323, Note_off_c, 0, 67, 100
1, 12323, Note_on_c, 0, 70, 100
1, 12361, Note_off_c, 0, 70, 100
1, 12361, Note_on_c, 0, 67, 100
1, 12437, Note_off_c, 0, 67, 100
1, 12437, Note_on_c, 0, 65, 100
1, 12571, Note_off_c, 0, 65, 100
1, 12571, Note_on_c, 0, 63, 100
1, 12667, Note_off_c, 0, 63, 100
1, 12667, Note_on_c, 0, 62, 100
1, 12763, Note_off_c, 0, 62, 100
1, 12763, Note_on_c, 0, 61, 100
1, 12859, Note_off_c, 0, 61, 100
1, 12859, Note_on_c, 0, 60, 100
1, 12955, Note_off_c, 0, 60, 100
1, 12955, Note_on_c, 0, 59, 100
1, 13051, Note_off_c, 0, 59, 100
1, 13051, Note_on_c, 0, 58, 100
1, 13147, Note_off_c, 0, 58, 100
1, 13147, Note_on_c, 0, 55, 100
1, 13243, Note_off_c, 0, 55, 100
1, 13243, Note_on_c, 0, 51, 100
1, 13339, Note_off_c, 0, 51, 100
1, 13339, Note_on_c, 0, 48, 100
1, 13435, Note_off_c, 0, 48, 100
1, 13435, Note_on_c, 0, 50, 100
1, 13531, Note_off_c, 0, 50, 100
1, 13531, Note_on_c, 0, 53, 100
1, 13627, Note_off_c, 0, 53, 100
1, 13627, Note_on_c, 0, 55, 100
1, 13755, Note_off_c, 0, 55, 100
1, 13755, Note_on_c, 0, 58, 100
1, 13819, Note_off_c, 0, 58, 100
1, 13819, Note_on_c, 0, 57, 100
1, 13915, Note_off_c, 0, 57, 100
1, 13915, Note_on_c, 0, 55, 100
1, 14011, Note_off_c, 0, 55, 100
1, 14011, Note_on_c, 0, 52, 100
1, 14107, Note_off_c, 0, 52, 100
1, 14107, Note_on_c, 0, 53, 100
1, 14203, Note_off_c, 0, 53, 100
1, 14203, Note_on_c, 0, 54, 100
1, 14347, Note_off_c, 0, 54, 100
1, 14347, Note_on_c, 0, 64, 100
1, 14587, Note_off_c, 0, 64, 100
1, 14587, Note_on_c, 0, 62, 100
1, 14683, Note_off_c, 0, 62, 100
1, 15259, Note_on_c, 0, 64, 100
1, 15547, Note_off_c, 0, 64, 100
1, 15547, Note_on_c, 0, 62, 100
1, 15595, Note_off_c, 0, 62, 100
1, 15595, Note_on_c, 0, 64, 100
1, 15643, Note_off_c, 0, 64, 100
1, 15643, Note_on_c, 0, 62, 100
1, 15691, Note_off_c, 0, 62, 100
1, 15691, Note_on_c, 0, 60, 100
1, 15739, Note_off_c, 0, 60, 100
1, 15739, Note_on_c, 0, 59, 100
1, 15931, Note_off_c, 0, 59, 100
1, 15931, Note_on_c, 0, 69, 100
1, 15969, Note_off_c, 0, 69, 100
1, 15969, Note_on_c, 0, 70, 100
1, 16007, Note_off_c, 0, 70, 100
1, 16007, Note_on_c, 0, 69, 100
1, 16045, Note_off_c, 0, 69, 100
1, 16045, Note_on_c, 0, 67, 100
1, 16083, Note_off_c, 0, 67, 100
1, 16083, Note_on_c, 0, 65, 100
1, 16217, Note_off_c, 0, 65, 100
1, 16217, Note_on_c, 0, 64, 100
1, 16313, Note_off_c, 0, 64, 100
1, 16313, Note_on_c, 0, 62, 100
1, 16409, Note_off_c, 0, 62, 100
1, 16409, Note_on_c, 0, 60, 100
1, 16505, Note_off_c, 0, 60, 100
1, 16505, Note_on_c, 0, 59, 100
1, 16633, Note_off_c, 0, 59, 100
1, 16633, Note_on_c, 0, 55, 100
1, 16793, Note_off_c, 0, 55, 100
1, 16793, Note_on_c, 0, 57, 100
1, 16889, Note_off_c, 0, 57, 100
1, 16889, Note_on_c, 0, 58, 100
1, 16985, Note_off_c, 0, 58, 100
1, 16985, Note_on_c, 0, 57, 100
1, 17017, Note_off_c, 0, 57, 100
1, 17017, Note_on_c, 0, 55, 100
1, 17049, Note_off_c, 0, 55, 100
1, 17049, Note_on_c, 0, 54, 100
1, 17177, Note_off_c, 0, 54, 100
1, 17177, Note_on_c, 0, 57, 100
1, 17273, Note_off_c, 0, 57, 100
1, 17273, Note_on_c, 0, 55, 100
1, 17369, Note_off_c, 0, 55, 100
1, 17753, Note_on_c, 0, 54, 100
1, 17801, Note_off_c, 0, 54, 100
1, 17801, Note_on_c, 0, 58, 100
1, 17849, Note_off_c, 0, 58, 100
1, 17849, Note_on_c, 0, 62, 100
1, 17945, Note_off_c, 0, 62, 100
1, 17945, Note_on_c, 0, 67, 100
1, 18041, Note_off_c, 0, 67, 100
1, 18041, Note_on_c, 0, 66, 100
1, 18073, Note_off_c, 0, 66, 100
1, 18073, Note_on_c, 0, 67, 100
1, 18105, Note_off_c, 0, 67, 100
1, 18105, Note_on_c, 0, 66, 100
1, 18137, Note_off_c, 0, 66, 100
1, 18137, Note_on_c, 0, 62, 100
1, 18201, Note_off_c, 0, 62, 100
1, 18201, Note_on_c, 0, 65, 100
1, 18329, Note_off_c, 0, 65, 100
1, 18329, Note_on_c, 0, 63, 100
1, 18425, Note_off_c, 0, 63, 100
1, 18425, Note_on_c, 0, 64, 100
1, 18569, Note_off_c, 0, 64, 100
1, 18569, Note_on_c, 0, 62, 100
1, 18617, Note_off_c, 0, 62, 100
1, 18617, Note_on_c, 0, 63, 100
1, 18713, Note_off_c, 0, 63, 100
1, 18713, Note_on_c, 0, 60, 100
1, 18809, Note_off_c, 0, 60, 100
1, 18809, Note_on_c, 0, 62, 100
1, 18873, Note_off_c, 0, 62, 100
1, 18873, Note_on_c, 0, 63, 100
1, 18937, Note_off_c, 0, 63, 100
1, 18937, Note_on_c, 0, 62, 100
1, 19001, Note_off_c, 0, 62, 100
1, 19001, Note_on_c, 0, 61, 100
1, 19481, Note_off_c, 0, 61, 100
1, 19481, Note_on_c, 0, 62, 100
1, 19577, Note_off_c, 0, 62, 100
1, 19577, Note_on_c, 0, 63, 100
1, 19625, Note_off_c, 0, 63, 100
1, 19625, Note_on_c, 0, 62, 100
1, 19673, Note_off_c, 0, 62, 100
1, 19673, Note_on_c, 0, 60, 100
1, 19721, Note_off_c, 0, 60, 100
1, 19721, Note_on_c, 0, 57, 100
1, 19769, Note_off_c, 0, 57, 100
1, 19769, Note_on_c, 0, 55, 100
1, 19817, Note_off_c, 0, 55, 100
1, 19817, Note_on_c, 0, 54, 100
1, 19865, Note_off_c, 0, 54, 100
1, 19865, Note_on_c, 0, 52, 100
1, 19961, Note_off_c, 0, 52, 100
1, 19961, Note_on_c, 0, 60, 100
1, 20153, Note_off_c, 0, 60, 100
1, 20153, Note_on_c, 0, 55, 100
1, 20345, Note_off_c, 0, 55, 100
1, 20633, Note_on_c, 0, 55, 100
1, 20729, Note_off_c, 0, 55, 100
1, 20729, Note_on_c, 0, 58, 100
1, 20777, Note_off_c, 0, 58, 100
1, 20777, Note_on_c, 0, 55, 100
1, 20825, Note_off_c, 0, 55, 100
1, 20825, Note_on_c, 0, 51, 100
1, 21017, Note_off_c, 0, 51, 100
1, 21017, Note_on_c, 0, 56, 100
1, 21065, Note_off_c, 0, 56, 100
1, 21065, Note_on_c, 0, 57, 100
1, 21151, Note_off_c, 0, 57, 100
1, 21151, Note_on_c, 0, 55, 100
1, 21189, Note_off_c, 0, 55, 100
1, 21189, Note_on_c, 0, 53, 100
1, 21227, Note_off_c, 0, 53, 100
1, 21227, Note_on_c, 0, 51, 100
1, 21265, Note_off_c, 0, 51, 100
1, 21265, Note_on_c, 0, 50, 100
1, 21351, Note_off_c, 0, 50, 100
1, 21351, Note_on_c, 0, 55, 100
1, 21399, Note_off_c, 0, 55, 100
1, 21399, Note_on_c, 0, 53, 100
1, 21447, Note_off_c, 0, 53, 100
1, 21447, Note_on_c, 0, 51, 100
1, 21495, Note_off_c, 0, 51, 100
1, 21495, Note_on_c, 0, 50, 100
1, 21543, Note_off_c, 0, 50, 100
1, 21543, Note_on_c, 0, 48, 100
1, 21639, Note_off_c, 0, 48, 100
1, 21639, Note_on_c, 0, 53, 100
1, 21687, Note_off_c, 0, 53, 100
1, 21687, Note_on_c, 0, 51, 100
1, 21725, Note_off_c, 0, 51, 100
1, 21725, Note_on_c, 0, 50, 100
1, 21763, Note_off_c, 0, 50, 100
1, 21763, Note_on_c, 0, 48, 100
1, 21801, Note_off_c, 0, 48, 100
1, 21801, Note_on_c, 0, 46, 100
1, 21897, Note_off_c, 0, 46, 100
1, 22357, Note_on_c, 0, 46, 100
1, 22453, Note_off_c, 0, 46, 100
1, 22453, Note_on_c, 0, 47, 100
1, 22597, Note_off_c, 0, 47, 100
1, 22597, Note_on_c, 0, 58, 100
1, 22645, Note_off_c, 0, 58, 100
1, 22645, Note_on_c, 0, 59, 100
1, 22741, Note_off_c, 0, 59, 100
1, 22741, Note_on_c, 0, 53, 100
1, 22789, Note_off_c, 0, 53, 100
1, 22789, Note_on_c, 0, 56, 100
1, 22933, Note_off_c, 0, 56, 100
1, 22933, Note_on_c, 0, 53, 100
1, 22981, Note_off_c, 0, 53, 100
1, 22981, Note_on_c, 0, 48, 100
1, 23125, Note_off_c, 0, 48, 100
1, 23125, Note_on_c, 0, 51, 100
1, 23221, Note_off_c, 0, 51, 100
1, 23221, Note_on_c, 0, 55, 100
1, 23317, Note_off_c, 0, 55, 100
1, 23317, Note_on_c, 0, 57, 100
1, 23413, Note_off_c, 0, 57, 100
1, 23413, Note_on_c, 0, 62, 100
1, 23509, Note_off_c, 0, 62, 100
1, 23509, Note_on_c, 0, 63, 100
1, 23557, Note_off_c, 0, 63, 100
1, 23557, Note_on_c, 0, 62, 100
1, 23605, Note_off_c, 0, 62, 100
1, 23605, Note_on_c, 0, 60, 100
1, 23701, Note_off_c, 0, 60, 100
1, 23701, Note_on_c, 0, 58, 100
1, 23797, Note_off_c, 0, 58, 100
1, 23797, Note_on_c, 0, 57, 100
1, 23893, Note_off_c, 0, 57, 100
1, 24085, Note_on_c, 0, 63, 100
1, 24245, Note_off_c, 0, 63, 100
1, 24245, Note_on_c, 0, 65, 100
1, 24373, Note_off_c, 0, 65, 100
1, 24373, Note_on_c, 0, 70, 100
1, 24469, Note_off_c, 0, 70, 100
1, 24469, Note_on_c, 0, 65, 100
1, 24565, Note_off_c, 0, 65, 100
1, 24565, Note_on_c, 0, 64, 100
1, 24661, Note_off_c, 0, 64, 100
1, 24661, Note_on_c, 0, 61, 100
1, 24757, Note_off_c, 0, 61, 100
1, 24757, Note_on_c, 0, 63, 100
1, 24901, Note_off_c, 0, 63, 100
1, 24901, Note_on_c, 0, 61, 100
1, 24949, Note_off_c, 0, 61, 100
1, 24949, Note_on_c, 0, 62, 100
1, 25045, Note_off_c, 0, 62, 100
1, 25045, Note_on_c, 0, 58, 100
1, 25141, Note_off_c, 0, 58, 100
1, 25141, Note_on_c, 0, 55, 100
1, 25237, Note_off_c, 0, 55, 100
1, 25237, Note_on_c, 0, 57, 100
1, 25333, Note_off_c, 0, 57, 100
1, 25333, Note_on_c, 0, 58, 100
1, 25429, Note_off_c, 0, 58, 100
1, 25429, Note_on_c, 0, 53, 100
1, 25525, Note_off_c, 0, 53, 100
1, 26293, Note_on_c, 0, 63, 100
1, 26341, Note_off_c, 0, 63, 100
1, 26341, Note_on_c, 0, 65, 100
1, 26485, Note_off_c, 0, 65, 100
1, 26485, Note_on_c, 0, 65, 100
1, 26581, Note_off_c, 0, 65, 100
1, 26581, Note_on_c, 0, 65, 100
1, 26741, Note_off_c, 0, 65, 100
1, 26741, Note_on_c, 0, 65, 100
1, 26869, Note_off_c, 0, 65, 100
1, 26869, Note_on_c, 0, 64, 100
1, 26917, Note_off_c, 0, 64, 100
1, 26917, Note_on_c, 0, 65, 100
1, 27013, Note_off_c, 0, 65, 100
1, 27013, Note_on_c, 0, 65, 100
1, 27061, Note_off_c, 0, 65, 100
1, 27061, Note_on_c, 0, 63, 100
1, 27253, Note_off_c, 0, 63, 100
1, 27253, Note_on_c, 0, 71, 100
1, 27381, Note_off_c, 0, 71, 100
1, 27381, Note_on_c, 0, 74, 100
1, 27781, Note_off_c, 0, 74, 100
1, 27781, Note_on_c, 0, 73, 100
1, 27829, Note_off_c, 0, 73, 100
1, 27829, Note_on_c, 0, 72, 100
1, 27867, Note_off_c, 0, 72, 100
1, 27867, Note_on_c, 0, 70, 100
1, 27905, Note_off_c, 0, 70, 100
1, 27905, Note_on_c, 0, 67, 100
1, 27943, Note_off_c, 0, 67, 100
1, 27943, Note_on_c, 0, 65, 100
1, 27981, Note_off_c, 0, 65, 100
1, 27981, Note_on_c, 0, 63, 100
1, 28019, Note_off_c, 0, 63, 100
1, 28019, Note_on_c, 0, 62, 100
1, 28115, Note_off_c, 0, 62, 100
1, 28595, Note_on_c, 0, 72, 100
1, 28691, Note_off_c, 0, 72, 100
1, 28691, Note_on_c, 0, 70, 100
1, 28787, Note_off_c, 0, 70, 100
1, 28787, Note_on_c, 0, 71, 100
1, 28915, Note_off_c, 0, 71, 100
1, 28915, Note_on_c, 0, 67, 100
1, 28979, Note_off_c, 0, 67, 100
1, 28979, Note_on_c, 0, 63, 100
1, 29043, Note_off_c, 0, 63, 100
1, 29043, Note_on_c, 0, 64, 100
1, 29107, Note_off_c, 0, 64, 100
1, 29107, Note_on_c, 0, 61, 100
1, 29171, Note_off_c, 0, 61, 100
1, 29171, Note_on_c, 0, 60, 100
1, 29315, Note_off_c, 0, 60, 100
1, 29315, Note_on_c, 0, 55, 100
1, 29363, Note_off_c, 0, 55, 100
1, 29363, Note_on_c, 0, 58, 100
1, 29459, Note_off_c, 0, 58, 100
1, 29459, Note_on_c, 0, 60, 100
1, 29555, Note_off_c, 0, 60, 100
1, 29555, Note_on_c, 0, 63, 100
1, 29651, Note_off_c, 0, 63, 100
1, 29651, Note_on_c, 0, 65, 100
1, 29699, Note_off_c, 0, 65, 100
1, 29699, Note_on_c, 0, 67, 100
1, 29843, Note_off_c, 0, 67, 100
1, 29843, Note_on_c, 0, 70, 100
1, 29939, Note_off_c, 0, 70, 100
1, 29939, Note_on_c, 0, 69, 100
1, 30035, Note_off_c, 0, 69, 100
1, 30035, Note_on_c, 0, 65, 100
1, 30179, Note_off_c, 0, 65, 100
1, 30179, Note_on_c, 0, 69, 100
1, 30227, Note_off_c, 0, 69, 100
1, 30227, Note_on_c, 0, 67, 100
1, 30275, Note_off_c, 0, 67, 100
1, 30275, Note_on_c, 0, 63, 100
1, 30419, Note_off_c, 0, 63, 100
1, 30419, Note_on_c, 0, 67, 100
1, 30467, Note_off_c, 0, 67, 100
1, 30467, Note_on_c, 0, 63, 100
1, 30515, Note_off_c, 0, 63, 100
1, 30515, Note_on_c, 0, 62, 100
1, 30611, Note_off_c, 0, 62, 100
1, 30937, Note_on_c, 0, 65, 100
1, 30975, Note_off_c, 0, 65, 100
1, 30975, Note_on_c, 0, 67, 100
1, 31013, Note_off_c, 0, 67, 100
1, 31013, Note_on_c, 0, 65, 100
1, 31051, Note_off_c, 0, 65, 100
1, 31051, Note_on_c, 0, 63, 100
1, 31089, Note_off_c, 0, 63, 100
1, 31089, Note_on_c, 0, 62, 100
1, 31217, Note_off_c, 0, 62, 100
1, 31217, Note_on_c, 0, 61, 100
1, 31281, Note_off_c, 0, 61, 100
1, 31281, Note_on_c, 0, 60, 100
1, 31377, Note_off_c, 0, 60, 100
1, 31377, Note_on_c, 0, 59, 100
1, 31473, Note_off_c, 0, 59, 100
1, 31473, Note_on_c, 0, 58, 100
1, 31665, Note_off_c, 0, 58, 100
1, 31665, Note_on_c, 0, 53, 100
1, 31761, Note_off_c, 0, 53, 100
1, 31761, Note_on_c, 0, 58, 100
1, 31857, Note_off_c, 0, 58, 100
1, 31857, Note_on_c, 0, 59, 100
1, 31953, Note_off_c, 0, 59, 100
1, 31953, Note_on_c, 0, 62, 100
1, 32049, Note_off_c, 0, 62, 100
1, 32049, Note_on_c, 0, 65, 100
1, 32145, Note_off_c, 0, 65, 100
1, 32145, Note_on_c, 0, 59, 100
1, 32241, Note_off_c, 0, 59, 100
1, 32241, Note_on_c, 0, 60, 100
1, 32337, Note_off_c, 0, 60, 100
1, 32337, Note_on_c, 0, 63, 100
1, 32433, Note_off_c, 0, 63, 100
1, 32433, Note_on_c, 0, 67, 100
1, 32529, Note_off_c, 0, 67, 100
1, 32529, Note_on_c, 0, 64, 100
1, 32625, Note_off_c, 0, 64, 100
1, 32625, Note_on_c, 0, 65, 100
1, 32721, Note_off_c, 0, 65, 100
1, 32721, Note_on_c, 0, 62, 100
1, 32817, Note_off_c, 0, 62, 100
1, 32817, Note_on_c, 0, 63, 100
1, 32913, Note_off_c, 0, 63, 100
1, 32913, Note_on_c, 0, 60, 100
1, 33009, Note_off_c, 0, 60, 100
1, 33009, Note_on_c, 0, 62, 100
1, 33105, Note_off_c, 0, 62, 100
1, 33105, Note_on_c, 0, 60, 100
1, 33201, Note_off_c, 0, 60, 100
1, 33585, Note_on_c, 0, 65, 100
1, 33633, Note_off_c, 0, 65, 100
1, 33633, Note_on_c, 0, 64, 100
1, 33681, Note_off_c, 0, 64, 100
1, 33681, Note_on_c, 0, 65, 100
1, 33777, Note_off_c, 0, 65, 100
1, 33777, Note_on_c, 0, 70, 100
1, 33873, Note_off_c, 0, 70, 100
1, 33873, Note_on_c, 0, 62, 100
1, 33921, Note_off_c, 0, 62, 100
1, 33921, Note_on_c, 0, 61, 100
1, 33969, Note_off_c, 0, 61, 100
1, 33969, Note_on_c, 0, 62, 100
1, 34065, Note_off_c, 0, 62, 100
1, 34065, Note_on_c, 0, 65, 100
1, 34161, Note_off_c, 0, 65, 100
1, 34161, Note_on_c, 0, 58, 100
1, 34225, Note_off_c, 0, 58, 100
1, 34225, Note_on_c, 0, 57, 100
1, 34289, Note_off_c, 0, 57, 100
1, 34289, Note_on_c, 0, 58, 100
1, 34353, Note_off_c, 0, 58, 100
1, 34353, Note_on_c, 0, 62, 100
1, 34449, Note_off_c, 0, 62, 100
1, 34449, Note_on_c, 0, 55, 100
1, 34497, Note_off_c, 0, 55, 100
1, 34497, Note_on_c, 0, 54, 100
1, 34545, Note_off_c, 0, 54, 100
1, 34545, Note_on_c, 0, 55, 100
1, 34641, Note_off_c, 0, 55, 100
1, 34641, Note_on_c, 0, 60, 100
1, 34689, Note_off_c, 0, 60, 100
1, 34689, Note_on_c, 0, 60, 100
1, 34785, Note_off_c, 0, 60, 100
1, 34929, Note_on_c, 0, 55, 100
1, 35025, Note_off_c, 0, 55, 100
1, 35025, Note_on_c, 0, 55, 100
1, 35409, Note_off_c, 0, 55, 100
1, 35409, Note_on_c, 0, 53, 100
1, 35505, Note_off_c, 0, 53, 100
1, 35505, Note_on_c, 0, 51, 100
1, 35697, Note_off_c, 0, 51, 100
1, 35697, Note_on_c, 0, 51, 100
1, 35793, Note_off_c, 0, 51, 100
1, 36273, Note_on_c, 0, 65, 100
1, 36321, Note_off_c, 0, 65, 100
1, 36321, Note_on_c, 0, 66, 100
1, 36369, Note_off_c, 0, 66, 100
1, 36369, Note_on_c, 0, 65, 100
1, 36417, Note_off_c, 0, 65, 100
1, 36417, Note_on_c, 0, 62, 100
1, 36465, Note_off_c, 0, 62, 100
1, 36465, Note_on_c, 0, 63, 100
1, 36609, Note_off_c, 0, 63, 100
1, 36609, Note_on_c, 0, 60, 100
1, 36657, Note_off_c, 0, 60, 100
1, 36657, Note_on_c, 0, 55, 100
1, 36753, Note_off_c, 0, 55, 100
1, 36753, Note_on_c, 0, 57, 100
1, 36849, Note_off_c, 0, 57, 100
1, 36849, Note_on_c, 0, 61, 100
1, 36945, Note_off_c, 0, 61, 100
1, 36945, Note_on_c, 0, 62, 100
1, 37041, Note_off_c, 0, 62, 100
1, 37041, Note_on_c, 0, 63, 100
1, 37137, Note_off_c, 0, 63, 100
1, 37137, Note_on_c, 0, 62, 100
1, 37233, Note_off_c, 0, 62, 100
1, 37233, Note_on_c, 0, 61, 100
1, 37361, Note_off_c, 0, 61, 100
1, 37361, Note_on_c, 0, 67, 100
1, 37425, Note_off_c, 0, 67, 100
1, 37425, Note_on_c, 0, 65, 100
1, 37521, Note_off_c, 0, 65, 100
1, 37521, Note_on_c, 0, 64, 100
1, 37617, Note_off_c, 0, 64, 100
1, 37617, Note_on_c, 0, 65, 100
1, 37761, Note_off_c, 0, 65, 100
1, 37761, Note_on_c, 0, 55, 100
1, 37809, Note_off_c, 0, 55, 100
1, 37809, Note_on_c, 0, 62, 100
1, 37905, Note_off_c, 0, 62, 100
1, 37905, Note_on_c, 0, 65, 100
1, 38001, Note_off_c, 0, 65, 100
1, 38001, Note_on_c, 0, 67, 100
1, 38097, Note_off_c, 0, 67, 100
1, 38097, Note_on_c, 0, 70, 100
1, 38193, Note_off_c, 0, 70, 100
1, 38193, Note_on_c, 0, 69, 100
1, 38321, Note_off_c, 0, 69, 100
1, 38321, Note_on_c, 0, 67, 100
1, 38385, Note_off_c, 0, 67, 100
1, 38385, Note_on_c, 0, 66, 100
1, 38481, Note_off_c, 0, 66, 100
1, 38865, Note_on_c, 0, 57, 100
1, 38961, Note_off_c, 0, 57, 100
1, 38961, Note_on_c, 0, 62, 100
1, 39009, Note_off_c, 0, 62, 100
1, 39009, Note_on_c, 0, 64, 100
1, 39057, Note_off_c, 0, 64, 100
1, 39057, Note_on_c, 0, 62, 100
1, 39153, Note_off_c, 0, 62, 100
1, 39153, Note_on_c, 0, 60, 100
1, 39281, Note_off_c, 0, 60, 100
1, 39281, Note_on_c, 0, 59, 100
1, 39345, Note_off_c, 0, 59, 100
1, 39345, Note_on_c, 0, 57, 100
1, 39441, Note_off_c, 0, 57, 100
1, 39441, Note_on_c, 0, 59, 100
1, 39489, Note_off_c, 0, 59, 100
1, 39489, Note_on_c, 0, 60, 100
1, 39585, Note_off_c, 0, 60, 100
1, 39585, Note_on_c, 0, 62, 100
1, 39633, Note_off_c, 0, 62, 100
1, 39633, Note_on_c, 0, 64, 100
1, 39681, Note_off_c, 0, 64, 100
1, 39681, Note_on_c, 0, 69, 100
1, 39729, Note_off_c, 0, 69, 100
1, 39729, Note_on_c, 0, 71, 100
1, 39825, Note_off_c, 0, 71, 100
1, 39825, Note_on_c, 0, 74, 100
1, 40065, Note_off_c, 0, 74, 100
1, 40065, Note_on_c, 0, 72, 100
1, 40113, Note_off_c, 0, 72, 100
1, 40113, Note_on_c, 0, 74, 100
1, 40161, Note_off_c, 0, 74, 100
1, 40161, Note_on_c, 0, 71, 100
1, 40257, Note_off_c, 0, 71, 100
1, 40257, Note_on_c, 0, 68, 100
1, 40305, Note_off_c, 0, 68, 100
1, 40305, Note_on_c, 0, 71, 100
1, 40401, Note_off_c, 0, 71, 100
1, 40401, Note_on_c, 0, 65, 100
1, 40497, Note_off_c, 0, 65, 100
1, 40497, Note_on_c, 0, 64, 100
1, 40529, Note_off_c, 0, 64, 100
1, 40529, Note_on_c, 0, 65, 100
1, 40561, Note_off_c, 0, 65, 100
1, 40561, Note_on_c, 0, 64, 100
1, 40593, Note_off_c, 0, 64, 100
1, 40593, Note_on_c, 0, 62, 100
1, 40657, Note_off_c, 0, 62, 100
1, 40657, Note_on_c, 0, 61, 100
1, 40753, Note_off_c, 0, 61, 100
1, 41169, Note_on_c, 0, 70, 100
1, 41217, Note_off_c, 0, 70, 100
1, 41217, Note_on_c, 0, 67, 100
1, 41265, Note_off_c, 0, 67, 100
1, 41265, Note_on_c, 0, 65, 100
1, 41361, Note_off_c, 0, 65, 100
1, 41361, Note_on_c, 0, 64, 100
1, 41457, Note_off_c, 0, 64, 100
1, 41457, Note_on_c, 0, 62, 100
1, 41553, Note_off_c, 0, 62, 100
1, 41553, Note_on_c, 0, 61, 100
1, 41649, Note_off_c, 0, 61, 100
1, 41649, Note_on_c, 0, 60, 100
1, 41745, Note_off_c, 0, 60, 100
1, 41745, Note_on_c, 0, 59, 100
1, 41841, Note_off_c, 0, 59, 100
1, 41841, Note_on_c, 0, 58, 100
1, 42033, Note_off_c, 0, 58, 100
1, 42033, Note_on_c, 0, 57, 100
1, 42225, Note_off_c, 0, 57, 100
1, 42225, Note_on_c, 0, 55, 100
1, 42321, Note_off_c, 0, 55, 100
1, 42321, Note_on_c, 0, 53, 100
1, 42417, Note_off_c, 0, 53, 100
1, 42417, Note_on_c, 0, 50, 100
1, 42513, Note_off_c, 0, 50, 100
1, 42513, Note_on_c, 0, 51, 100
1, 42609, Note_off_c, 0, 51, 100
1, 42609, Note_on_c, 0, 52, 100
1, 42737, Note_off_c, 0, 52, 100
1, 42737, Note_on_c, 0, 55, 100
1, 42801, Note_off_c, 0, 55, 100
1, 42801, Note_on_c, 0, 58, 100
1, 42897, Note_off_c, 0, 58, 100
1, 42897, Note_on_c, 0, 61, 100
1, 42993, Note_off_c, 0, 61, 100
1, 42993, Note_on_c, 0, 62, 100
1, 43031, Note_off_c, 0, 62, 100
1, 43031, Note_on_c, 0, 64, 100
1, 43069, Note_off_c, 0, 64, 100
1, 43069, Note_on_c, 0, 62, 100
1, 43107, Note_off_c, 0, 62, 100
1, 43107, Note_on_c, 0, 61, 100
1, 43183, Note_off_c, 0, 61, 100
1, 43183, Note_on_c, 0, 60, 100
1, 43279, Note_off_c, 0, 60, 100
1, 43279, Note_on_c, 0, 58, 100
1, 43375, Note_off_c, 0, 58, 100
1, 43375, Note_on_c, 0, 57, 100
1, 43471, Note_off_c, 0, 57, 100
1, 43759, Note_on_c, 0, 66, 100
1, 43823, Note_off_c, 0, 66, 100
1, 43823, Note_on_c, 0, 69, 100
1, 43887, Note_off_c, 0, 69, 100
1, 43887, Note_on_c, 0, 66, 100
1, 43951, Note_off_c, 0, 66, 100
1, 43951, Note_on_c, 0, 65, 100
1, 44047, Note_off_c, 0, 65, 100
1, 44047, Note_on_c, 0, 64, 100
1, 44143, Note_off_c, 0, 64, 100
1, 44143, Note_on_c, 0, 63, 100
1, 44239, Note_off_c, 0, 63, 100
1, 44239, Note_on_c, 0, 55, 100
1, 44335, Note_off_c, 0, 55, 100
1, 44335, Note_on_c, 0, 60, 100
1, 44383, Note_off_c, 0, 60, 100
1, 44383, Note_on_c, 0, 63, 100
1, 44431, Note_off_c, 0, 63, 100
1, 44431, Note_on_c, 0, 67, 100
1, 44479, Note_off_c, 0, 67, 100
1, 44479, Note_on_c, 0, 69, 100
1, 44527, Note_off_c, 0, 69, 100
1, 44527, Note_on_c, 0, 76, 100
1, 44575, Note_off_c, 0, 76, 100
1, 44575, Note_on_c, 0, 77, 100
1, 44623, Note_off_c, 0, 77, 100
1, 44623, Note_on_c, 0, 75, 100
1, 44719, Note_off_c, 0, 75, 100
1, 45295, Note_on_c, 0, 65, 100
1, 45333, Note_off_c, 0, 65, 100
1, 45333, Note_on_c, 0, 66, 100
1, 45371, Note_off_c, 0, 66, 100
1, 45371, Note_on_c, 0, 65, 100
1, 45447, Note_off_c, 0, 65, 100
1, 45447, Note_on_c, 0, 63, 100
1, 45549, Note_off_c, 0, 63, 100
1, 45549, Note_on_c, 0, 71, 100
1, 45613, Note_off_c, 0, 71, 100
1, 45613, Note_on_c, 0, 74, 100
1, 45677, Note_off_c, 0, 74, 100
1, 45677, Note_on_c, 0, 72, 100
1, 45773, Note_off_c, 0, 72, 100
1, 46253, Note_on_c, 0, 65, 100
1, 46301, Note_off_c, 0, 65, 100
1, 46301, Note_on_c, 0, 67, 100
1, 46349, Note_off_c, 0, 67, 100
1, 46349, Note_on_c, 0, 65, 100
1, 46397, Note_off_c, 0, 65, 100
1, 46397, Note_on_c, 0, 63, 100
1, 46445, Note_off_c, 0, 63, 100
1, 46445, Note_on_c, 0, 62, 100
1, 46541, Note_off_c, 0, 62, 100
1, 46541, Note_on_c, 0, 57, 100
1, 46637, Note_off_c, 0, 57, 100
1, 46637, Note_on_c, 0, 62, 100
1, 46685, Note_off_c, 0, 62, 100
1, 46685, Note_on_c, 0, 66, 100
1, 46733, Note_off_c, 0, 66, 100
1, 46733, Note_on_c, 0, 69, 100
1, 46781, Note_off_c, 0, 69, 100
1, 46781, Note_on_c, 0, 70, 100
1, 46829, Note_off_c, 0, 70, 100
1, 46829, Note_on_c, 0, 72, 100
1, 46893, Note_off_c, 0, 72, 100
1, 46893, Note_on_c, 0, 69, 100
1, 46957, Note_off_c, 0, 69, 100
1, 46957, Note_on_c, 0, 66, 100
1, 47021, Note_off_c, 0, 66, 100
1, 47021, Note_on_c, 0, 64, 100
1, 47069, Note_off_c, 0, 64, 100
1, 47069, Note_on_c, 0, 63, 100
1, 47117, Note_off_c, 0, 63, 100
1, 47117, Note_on_c, 0, 62, 100
1, 47165, Note_off_c, 0, 62, 100
1, 47165, Note_on_c, 0, 61, 100
1, 47309, Note_off_c, 0, 61, 100
1, 47309, Note_on_c, 0, 72, 100
1, 47341, Note_off_c, 0, 72, 100
1, 47341, Note_on_c, 0, 71, 100
1, 47373, Note_off_c, 0, 71, 100
1, 47373, Note_on_c, 0, 68, 100
1, 47469, Note_off_c, 0, 68, 100
1, 47469, Note_on_c, 0, 69, 100
1, 47533, Note_off_c, 0, 69, 100
1, 47533, Note_on_c, 0, 70, 100
1, 47693, Note_off_c, 0, 70, 100
1, 47693, Note_on_c, 0, 54, 100
1, 47789, Note_off_c, 0, 54, 100
1, 47789, Note_on_c, 0, 55, 100
1, 47885, Note_off_c, 0, 55, 100
1, 47885, Note_on_c, 0, 57, 100
1, 47981, Note_off_c, 0, 57, 100
1, 47981, Note_on_c, 0, 60, 100
1, 48077, Note_off_c, 0, 60, 100
1, 48077, Note_on_c, 0, 62, 100
1, 48173, Note_off_c, 0, 62, 100
1, 48173, Note_on_c, 0, 63, 100
1, 48269, Note_off_c, 0, 63, 100
1, 48269, Note_on_c, 0, 65, 100
1, 48365, Note_off_c, 0, 65, 100
1, 48365, Note_on_c, 0, 66, 100
1, 48493, Note_off_c, 0, 66, 100
1, 48493, Note_on_c, 0, 63, 100
1, 48589, Note_off_c, 0, 63, 100
1, 48845, Note_on_c, 0, 63, 100
1, 48941, Note_off_c, 0, 63, 100
1, 48941, Note_on_c, 0, 65, 100
1, 49325, Note_off_c, 0, 65, 100
1, 49325, Note_on_c, 0, 70, 100
1, 49421, Note_off_c, 0, 70, 100
1, 49421, Note_on_c, 0, 71, 100
1, 49517, Note_off_c, 0, 71, 100
1, 49517, Note_on_c, 0, 64, 100
1, 49613, Note_off_c, 0, 64, 100
1, 49613, Note_on_c, 0, 63, 100
1, 49709, Note_off_c, 0, 63, 100
1, 49709, Note_on_c, 0, 61, 100
1, 49805, Note_off_c, 0, 61, 100
1, 49805, Note_on_c, 0, 58, 100
1, 50093, Note_off_c, 0, 58, 100
1, 50093, Note_on_c, 0, 55, 100
1, 50189, Note_off_c, 0, 55, 100
1, 50189, Note_on_c, 0, 58, 100
1, 50285, Note_off_c, 0, 58, 100
1, 50285, Note_on_c, 0, 61, 100
1, 50381, Note_off_c, 0, 61, 100
1, 50381, Note_on_c, 0, 62, 100
1, 50477, Note_off_c, 0, 62, 100
1, 50477, Note_on_c, 0, 63, 100
1, 50573, Note_off_c, 0, 63, 100
1, 50573, Note_on_c, 0, 61, 100
1, 50669, Note_off_c, 0, 61, 100
1, 50669, Note_on_c, 0, 62, 100
1, 50744, Note_off_c, 0, 62, 100
1, 50744, End_track
0, 0, End_of_file
