0, 0, Header, 1, 1, 192
1, 0, Start_track
1, 0, Title_t, "Melody"
1, 0, Tempo, 895522
1, 0, Key_signature, -4, "major"
1, 0, Time_signature, 4, 2, 24, 8
1, 614, Note_on_c, 0, 53, 100
1, 652, Note_off_c, 0, 53, 100
1, 652, Note_on_c, 0, 54, 100
1, 690, Note_off_c, 0, 54, 100
1, 690, Note_on_c, 0, 53, 100
1, 728, Note_off_c, 0, 53, 100
1, 728, Note_on_c, 0, 51, 100
1, 766, Note_off_c, 0, 51, 100
1, 766, Note_on_c, 0, 53, 100
1, 1226, Note_off_c, 0, 53, 100
1, 1226, Note_on_c, 0, 54, 100
1, 1264, Note_off_c, 0, 54, 100
1, 1264, Note_on_c, 0, 55, 100
1, 1302, Note_off_c, 0, 55, 100
1, 1302, Note_on_c, 0, 56, 100
1, 1412, Note_off_c, 0, 56, 100
1, 1412, Note_on_c, 0, 60, 100
1, 1460, Note_off_c, 0, 60, 100
1, 1460, Note_on_c, 0, 63, 100
1, 1508, Note_off_c, 0, 63, 100
1, 1508, Note_on_c, 0, 64, 100
1, 1532, Note_off_c, 0, 64, 100
1, 1532, Note_on_c, 0, 65, 100
1, 1628, Note_off_c, 0, 65, 100
1, 1628, Note_on_c, 0, 68, 100
1, 1676, Note_off_c, 0, 68, 100
1, 1676, Note_on_c, 0, 65, 100
1, 1964, Note_off_c, 0, 65, 100
1, 1964, Note_on_c, 0, 64, 100
1, 2012, Note_off_c, 0, 64, 100
1, 2012, Note_on_c, 0, 61, 100
1, 2060, Note_off_c, 0, 61, 100
1, 2060, Note_on_c, 0, 62, 100
1, 2156, Note_off_c, 0, 62, 100
1, 2156, Note_on_c, 0, 63, 100
1, 2252, Note_off_c, 0, 63, 100
1, 2252, Note_on_c, 0, 62, 100
1, 2300, Note_off_c, 0, 62, 100
1, 2300, Note_on_c, 0, 60, 100
1, 2396, Note_off_c, 0, 60, 100
1, 2396, Note_on_c, 0, 55, 100
1, 2780, Note_off_c, 0, 55, 100
1, 2780, Note_on_c, 0, 51, 100
1, 2828, Note_off_c, 0, 51, 100
1, 2828, Note_on_c, 0, 52, 100
1, 2876, Note_off_c, 0, 52, 100
1, 2876, Note_on_c, 0, 53, 100
1, 2924, Note_off_c, 0, 53, 100
1, 2924, Note_on_c, 0, 56, 100
1, 2972, Note_off_c, 0, 56, 100
1, 2972, Note_on_c, 0, 60, 100
1, 3020, Note_off_c, 0, 60, 100
1, 3020, Note_on_c, 0, 61, 100
1, 3068, Note_off_c, 0, 61, 100
1, 3068, Note_on_c, 0, 63, 100
1, 3164, Note_off_c, 0, 63, 100
1, 3164, Note_on_c, 0, 60, 100
1, 3212, Note_off_c, 0, 60, 100
1, 3212, Note_on_c, 0, 63, 100
1, 3260, Note_off_c, 0, 63, 100
1, 3260, Note_on_c, 0, 60, 100
1, 3308, Note_off_c, 0, 60, 100
1, 3308, Note_on_c, 0, 61, 100
1, 3356, Note_off_c, 0, 61, 100
1, 3356, Note_on_c, 0, 62, 100
1, 3404, Note_off_c, 0, 62, 100
1, 3404, Note_on_c, 0, 53, 100
1, 3452, Note_off_c, 0, 53, 100
1, 3452, Note_on_c, 0, 52, 100
1, 3548, Note_off_c, 0, 52, 100
1, 3548, Note_on_c, 0, 61, 100
1, 3644, Note_off_c, 0, 61, 100
1, 3644, Note_on_c, 0, 60, 100
1, 3740, Note_off_c, 0, 60, 100
1, 3740, Note_on_c, 0, 65, 100
1, 3788, Note_off_c, 0, 65, 100
1, 3788, Note_on_c, 0, 54, 100
1, 3836, Note_off_c, 0, 54, 100
1, 3836, Note_on_c, 0, 53, 100
1, 4124, Note_off_c, 0, 53, 100
1, 4316, Note_on_c, 0, 55, 100
1, 4364, Note_off_c, 0, 55, 100
1, 4364, Note_on_c, 0, 56, 100
1, 4412, Note_off_c, 0, 56, 100
1, 4412, Note_on_c, 0, 58, 100
1, 4460, Note_off_c, 0, 58, 100
1, 4460, Note_on_c, 0, 60, 100
1, 4508, Note_off_c, 0, 60, 100
1, 4508, Note_on_c, 0, 66, 100
1, 4556, Note_off_c, 0, 66, 100
1, 4556, Note_on_c, 0, 65, 100
1, 4604, Note_off_c, 0, 65, 100
1, 4604, Note_on_c, 0, 63, 100
1, 4700, Note_off_c, 0, 63, 100
1, 4700, Note_on_c, 0, 60, 100
1, 4748, Note_off_c, 0, 60, 100
1, 4748, Note_on_c, 0, 61, 100
1, 4796, Note_off_c, 0, 61, 100
1, 4796, Note_on_c, 0, 63, 100
1, 4868, Note_off_c, 0, 63, 100
1, 4868, Note_on_c, 0, 60, 100
1, 4892, Note_off_c, 0, 60, 100
1, 4892, Note_on_c, 0, 62, 100
1, 4916, Note_off_c, 0, 62, 100
1, 4916, Note_on_c, 0, 63, 100
1, 4964, Note_off_c, 0, 63, 100
1, 4964, Note_on_c, 0, 60, 100
1, 5103, Note_off_c, 0, 60, 100
1, 5103, Note_on_c, 0, 61, 100
1, 5141, Note_off_c, 0, 61, 100
1, 5141, Note_on_c, 0, 62, 100
1, 5179, Note_off_c, 0, 62, 100
1, 5179, Note_on_c, 0, 63, 100
1, 5332, Note_off_c, 0, 63, 100
1, 5332, Note_on_c, 0, 55, 100
1, 5620, Note_off_c, 0, 55, 100
1, 5850, Note_on_c, 0, 51, 100
1, 5898, Note_off_c, 0, 51, 100
1, 5898, Note_on_c, 0, 53, 100
1, 5946, Note_off_c, 0, 53, 100
1, 5946, Note_on_c, 0, 48, 100
1, 5994, Note_off_c, 0, 48, 100
1, 5994, Note_on_c, 0, 51, 100
1, 6042, Note_off_c, 0, 51, 100
1, 6042, Note_on_c, 0, 53, 100
1, 6090, Note_off_c, 0, 53, 100
1, 6090, Note_on_c, 0, 52, 100
1, 6114, Note_off_c, 0, 52, 100
1, 6114, Note_on_c, 0, 53, 100
1, 6138, Note_off_c, 0, 53, 100
1, 6138, Note_on_c, 0, 54, 100
1, 6539, Note_off_c, 0, 54, 100
1, 6539, Note_on_c, 0, 50, 100
1, 6573, Note_off_c, 0, 50, 100
1, 6573, Note_on_c, 0, 51, 100
1, 6590, Note_off_c, 0, 51, 100
1, 6590, Note_on_c, 0, 52, 100
1, 6607, Note_off_c, 0, 52, 100
1, 6607, Note_on_c, 0, 54, 100
1, 6624, Note_off_c, 0, 54, 100
1, 6624, Note_on_c, 0, 55, 100
1, 6641, Note_off_c, 0, 55, 100
1, 6641, Note_on_c, 0, 56, 100
1, 6675, Note_off_c, 0, 56, 100
1, 6675, Note_on_c, 0, 60, 100
1, 6692, Note_off_c, 0, 60, 100
1, 6692, Note_on_c, 0, 65, 100
1, 6757, Note_off_c, 0, 65, 100
1, 6757, Note_on_c, 0, 63, 100
1, 6805, Note_off_c, 0, 63, 100
1, 6805, Note_on_c, 0, 60, 100
1, 6853, Note_off_c, 0, 60, 100
1, 6853, Note_on_c, 0, 57, 100
1, 6901, Note_off_c, 0, 57, 100
1, 6901, Note_on_c, 0, 58, 100
1, 6997, Note_off_c, 0, 58, 100
1, 6997, Note_on_c, 0, 53, 100
1, 7093, Note_off_c, 0, 53, 100
1, 7093, Note_on_c, 0, 56, 100
1, 7165, Note_off_c, 0, 56, 100
1, 7165, Note_on_c, 0, 65, 100
1, 7213, Note_off_c, 0, 65, 100
1, 7213, Note_on_c, 0, 61, 100
1, 7237, Note_off_c, 0, 61, 100
1, 7237, Note_on_c, 0, 58, 100
1, 7261, Note_off_c, 0, 58, 100
1, 7261, Note_on_c, 0, 57, 100
1, 7285, Note_off_c, 0, 57, 100
1, 7285, Note_on_c, 0, 56, 100
1, 7525, Note_off_c, 0, 56, 100
1, 7525, Note_on_c, 0, 58, 100
1, 7573, Note_off_c, 0, 58, 100
1, 7573, Note_on_c, 0, 60, 100
1, 7597, Note_off_c, 0, 60, 100
1, 7597, Note_on_c, 0, 61, 100
1, 7621, Note_off_c, 0, 61, 100
1, 7621, Note_on_c, 0, 63, 100
1, 7645, Note_off_c, 0, 63, 100
1, 7645, Note_on_c, 0, 65, 100
1, 7669, Note_off_c, 0, 65, 100
1, 7669, Note_on_c, 0, 66, 100
1, 7707, Note_off_c, 0, 66, 100
1, 7707, Note_on_c, 0, 61, 100
1, 7745, Note_off_c, 0, 61, 100
1, 7745, Note_on_c, 0, 58, 100
1, 7783, Note_off_c, 0, 58, 100
1, 7783, Note_on_c, 0, 54, 100
1, 7821, Note_off_c, 0, 54, 100
1, 7821, Note_on_c, 0, 53, 100
1, 7859, Note_off_c, 0, 53, 100
1, 7859, Note_on_c, 0, 56, 100
1, 7891, Note_off_c, 0, 56, 100
1, 7891, Note_on_c, 0, 60, 100
1, 7923, Note_off_c, 0, 60, 100
1, 7923, Note_on_c, 0, 65, 100
1, 7955, Note_off_c, 0, 65, 100
1, 7955, Note_on_c, 0, 63, 100
1, 8019, Note_off_c, 0, 63, 100
1, 8019, Note_on_c, 0, 65, 100
1, 8051, Note_off_c, 0, 65, 100
1, 8051, Note_on_c, 0, 62, 100
1, 8123, Note_off_c, 0, 62, 100
1, 8123, Note_on_c, 0, 56, 100
1, 8147, Note_off_c, 0, 56, 100
1, 8147, Note_on_c, 0, 64, 100
1, 8171, Note_off_c, 0, 64, 100
1, 8171, Note_on_c, 0, 62, 100
1, 8195, Note_off_c, 0, 62, 100
1, 8195, Note_on_c, 0, 63, 100
1, 8219, Note_off_c, 0, 63, 100
1, 8219, Note_on_c, 0, 60, 100
1, 8264, Note_off_c, 0, 60, 100
1, 8264, Note_on_c, 0, 58, 100
1, 8306, Note_off_c, 0, 58, 100
1, 8306, Note_on_c, 0, 56, 100
1, 8327, Note_off_c, 0, 56, 100
1, 8327, Note_on_c, 0, 55, 100
1, 8369, Note_off_c, 0, 55, 100
1, 8369, Note_on_c, 0, 63, 100
1, 8390, Note_off_c, 0, 63, 100
1, 8390, Note_on_c, 0, 60, 100
1, 8411, Note_off_c, 0, 60, 100
1, 8411, Note_on_c, 0, 55, 100
1, 8603, Note_off_c, 0, 55, 100
1, 8912, Note_on_c, 0, 68, 100
1, 8960, Note_off_c, 0, 68, 100
1, 8960, Note_on_c, 0, 67, 100
1, 9008, Note_off_c, 0, 67, 100
1, 9008, Note_on_c, 0, 65, 100
1, 9056, Note_off_c, 0, 65, 100
1, 9056, Note_on_c, 0, 63, 100
1, 9104, Note_off_c, 0, 63, 100
1, 9104, Note_on_c, 0, 61, 100
1, 9152, Note_off_c, 0, 61, 100
1, 9152, Note_on_c, 0, 60, 100
1, 9200, Note_off_c, 0, 60, 100
1, 9200, Note_on_c, 0, 58, 100
1, 9238, Note_off_c, 0, 58, 100
1, 9238, Note_on_c, 0, 56, 100
1, 9276, Note_off_c, 0, 56, 100
1, 9276, Note_on_c, 0, 55, 100
1, 9314, Note_off_c, 0, 55, 100
1, 9314, Note_on_c, 0, 56, 100
1, 9352, Note_off_c, 0, 56, 100
1, 9352, Note_on_c, 0, 55, 100
1, 9422, Note_off_c, 0, 55, 100
1, 9422, Note_on_c, 0, 59, 100
1, 9454, Note_off_c, 0, 59, 100
1, 9454, Note_on_c, 0, 62, 100
1, 9486, Note_off_c, 0, 62, 100
1, 9486, Note_on_c, 0, 67, 100
1, 9518, Note_off_c, 0, 67, 100
1, 9518, Note_on_c, 0, 65, 100
1, 9550, Note_off_c, 0, 65, 100
1, 9550, Note_on_c, 0, 63, 100
1, 9582, Note_off_c, 0, 63, 100
1, 9582, Note_on_c, 0, 64, 100
1, 9678, Note_off_c, 0, 64, 100
1, 9678, Note_on_c, 0, 58, 100
1, 9702, Note_off_c, 0, 58, 100
1, 9702, Note_on_c, 0, 61, 100
1, 9726, Note_off_c, 0, 61, 100
1, 9726, Note_on_c, 0, 60, 100
1, 9750, Note_off_c, 0, 60, 100
1, 9750, Note_on_c, 0, 58, 100
1, 9774, Note_off_c, 0, 58, 100
1, 9774, Note_on_c, 0, 57, 100
1, 9822, Note_off_c, 0, 57, 100
1, 9822, Note_on_c, 0, 60, 100
1, 9846, Note_off_c, 0, 60, 100
1, 9846, Note_on_c, 0, 61, 100
1, 9870, Note_off_c, 0, 61, 100
1, 9870, Note_on_c, 0, 63, 100
1, 9894, Note_off_c, 0, 63, 100
1, 9894, Note_on_c, 0, 65, 100
1, 9918, Note_off_c, 0, 65, 100
1, 9918, Note_on_c, 0, 66, 100
1, 9942, Note_off_c, 0, 66, 100
1, 9942, Note_on_c, 0, 65, 100
1, 9966, Note_off_c, 0, 65, 100
1, 9966, Note_on_c, 0, 63, 100
1, 9993, Note_off_c, 0, 63, 100
1, 9993, Note_on_c, 0, 62, 100
1, 10020, Note_off_c, 0, 62, 100
1, 10020, Note_on_c, 0, 56, 100
1, 10047, Note_off_c, 0, 56, 100
1, 10047, Note_on_c, 0, 61, 100
1, 10074, Note_off_c, 0, 61, 100
1, 10074, Note_on_c, 0, 60, 100
1, 10101, Note_off_c, 0, 60, 100
1, 10101, Note_on_c, 0, 56, 100
1, 10128, Note_off_c, 0, 56, 100
1, 10128, Note_on_c, 0, 53, 100
1, 10155, Note_off_c, 0, 53, 100
1, 10155, Note_on_c, 0, 58, 100
1, 10237, Note_off_c, 0, 58, 100
1, 10237, Note_on_c, 0, 55, 100
1, 10264, Note_off_c, 0, 55, 100
1, 10264, Note_on_c, 0, 56, 100
1, 10291, Note_off_c, 0, 56, 100
1, 10291, Note_on_c, 0, 51, 100
1, 10318, Note_off_c, 0, 51, 100
1, 10318, Note_on_c, 0, 52, 100
1, 10537, Note_off_c, 0, 52, 100
1, 10537, Note_on_c, 0, 54, 100
1, 10585, Note_off_c, 0, 54, 100
1, 10585, Note_on_c, 0, 55, 100
1, 10633, Note_off_c, 0, 55, 100
1, 10633, Note_on_c, 0, 52, 100
1, 10681, Note_off_c, 0, 52, 100
1, 10681, Note_on_c, 0, 53, 100
1, 10729, Note_off_c, 0, 53, 100
1, 10729, Note_on_c, 0, 55, 100
1, 10777, Note_off_c, 0, 55, 100
1, 10777, Note_on_c, 0, 56, 100
1, 10825, Note_off_c, 0, 56, 100
1, 10825, Note_on_c, 0, 58, 100
1, 10873, Note_off_c, 0, 58, 100
1, 10873, Note_on_c, 0, 60, 100
1, 10921, Note_off_c, 0, 60, 100
1, 10921, Note_on_c, 0, 61, 100
1, 10969, Note_off_c, 0, 61, 100
1, 10969, Note_on_c, 0, 63, 100
1, 11017, Note_off_c, 0, 63, 100
1, 11017, Note_on_c, 0, 60, 100
1, 11065, Note_off_c, 0, 60, 100
1, 11065, Note_on_c, 0, 61, 100
1, 11113, Note_off_c, 0, 61, 100
1, 11113, Note_on_c, 0, 63, 100
1, 11353, Note_off_c, 0, 63, 100
1, 11353, Note_on_c, 0, 63, 100
1, 11449, Note_off_c, 0, 63, 100
1, 11449, Note_on_c, 0, 60, 100
1, 11497, Note_off_c, 0, 60, 100
1, 11497, Note_on_c, 0, 58, 100
1, 11545, Note_off_c, 0, 58, 100
1, 11545, Note_on_c, 0, 56, 100
1, 11593, Note_off_c, 0, 56, 100
1, 11593, Note_on_c, 0, 55, 100
1, 11641, Note_off_c, 0, 55, 100
1, 11641, Note_on_c, 0, 56, 100
1, 11977, Note_off_c, 0, 56, 100
1, 11977, Note_on_c, 0, 63, 100
1, 12025, Note_off_c, 0, 63, 100
1, 12025, Note_on_c, 0, 60, 100
1, 12073, Note_off_c, 0, 60, 100
1, 12073, Note_on_c, 0, 67, 100
1, 12121, Note_off_c, 0, 67, 100
1, 12121, Note_on_c, 0, 65, 100
1, 12169, Note_off_c, 0, 65, 100
1, 12169, Note_on_c, 0, 63, 100
1, 12193, Note_off_c, 0, 63, 100
1, 12193, Note_on_c, 0, 64, 100
1, 12217, Note_off_c, 0, 64, 100
1, 12217, Note_on_c, 0, 63, 100
1, 12241, Note_off_c, 0, 63, 100
1, 12241, Note_on_c, 0, 61, 100
1, 12265, Note_off_c, 0, 61, 100
1, 12265, Note_on_c, 0, 60, 100
1, 12361, Note_off_c, 0, 60, 100
1, 12361, Note_on_c, 0, 51, 100
1, 12409, Note_off_c, 0, 51, 100
1, 12409, Note_on_c, 0, 53, 100
1, 12457, Note_off_c, 0, 53, 100
1, 12457, Note_on_c, 0, 48, 100
1, 12505, Note_off_c, 0, 48, 100
1, 12505, Note_on_c, 0, 50, 100
1, 12553, Note_off_c, 0, 50, 100
1, 12553, Note_on_c, 0, 51, 100
1, 12601, Note_off_c, 0, 51, 100
1, 12601, Note_on_c, 0, 53, 100
1, 12649, Note_off_c, 0, 53, 100
1, 12649, Note_on_c, 0, 55, 100
1, 12745, Note_off_c, 0, 55, 100
1, 12745, Note_on_c, 0, 55, 100
1, 12793, Note_off_c, 0, 55, 100
1, 12793, Note_on_c, 0, 53, 100
1, 12841, Note_off_c, 0, 53, 100
1, 12841, Note_on_c, 0, 54, 100
1, 12895, Note_off_c, 0, 54, 100
1, 12895, Note_on_c, 0, 63, 100
1, 12922, Note_off_c, 0, 63, 100
1, 12922, Note_on_c, 0, 62, 100
1, 12949, Note_off_c, 0, 62, 100
1, 12949, Note_on_c, 0, 63, 100
1, 12976, Note_off_c, 0, 63, 100
1, 12976, Note_on_c, 0, 62, 100
1, 13003, Note_off_c, 0, 62, 100
1, 13003, Note_on_c, 0, 60, 100
1, 13030, Note_off_c, 0, 60, 100
1, 13030, Note_on_c, 0, 59, 100
1, 13222, Note_off_c, 0, 59, 100
1, 13222, Note_on_c, 0, 50, 100
1, 13276, Note_off_c, 0, 50, 100
1, 13276, Note_on_c, 0, 49, 100
1, 13303, Note_off_c, 0, 49, 100
1, 13303, Note_on_c, 0, 48, 100
1, 13330, Note_off_c, 0, 48, 100
1, 13330, Note_on_c, 0, 47, 100
1, 13384, Note_off_c, 0, 47, 100
1, 13384, Note_on_c, 0, 52, 100
1, 13651, Note_off_c, 0, 52, 100
1, 13651, Note_on_c, 0, 51, 100
1, 13675, Note_off_c, 0, 51, 100
1, 13675, Note_on_c, 0, 49, 100
1, 13699, Note_off_c, 0, 49, 100
1, 13699, Note_on_c, 0, 48, 100
1, 13723, Note_off_c, 0, 48, 100
1, 13723, Note_on_c, 0, 47, 100
1, 13891, Note_off_c, 0, 47, 100
1, 13891, Note_on_c, 0, 57, 100
1, 13987, Note_off_c, 0, 57, 100
1, 13987, Note_on_c, 0, 55, 100
1, 14006, Note_off_c, 0, 55, 100
1, 14006, Note_on_c, 0, 56, 100
1, 14025, Note_off_c, 0, 56, 100
1, 14025, Note_on_c, 0, 55, 100
1, 14044, Note_off_c, 0, 55, 100
1, 14044, Note_on_c, 0, 53, 100
1, 14082, Note_off_c, 0, 53, 100
1, 14082, Note_on_c, 0, 55, 100
1, 14101, Note_off_c, 0, 55, 100
1, 14101, Note_on_c, 0, 56, 100
1, 14120, Note_off_c, 0, 56, 100
1, 14120, Note_on_c, 0, 55, 100
1, 14139, Note_off_c, 0, 55, 100
1, 14139, Note_on_c, 0, 52, 100
1, 14177, Note_off_c, 0, 52, 100
1, 14177, Note_on_c, 0, 54, 100
1, 14225, Note_off_c, 0, 54, 100
1, 14225, Note_on_c, 0, 51, 100
1, 14273, Note_off_c, 0, 51, 100
1, 14273, Note_on_c, 0, 52, 100
1, 14321, Note_off_c, 0, 52, 100
1, 14321, Note_on_c, 0, 51, 100
1, 14393, Note_off_c, 0, 51, 100
1, 14393, Note_on_c, 0, 55, 100
1, 14417, Note_off_c, 0, 55, 100
1, 14417, Note_on_c, 0, 56, 100
1, 14441, Note_off_c, 0, 56, 100
1, 14441, Note_on_c, 0, 57, 100
1, 14465, Note_off_c, 0, 57, 100
1, 14465, Note_on_c, 0, 58, 100
1, 14489, Note_off_c, 0, 58, 100
1, 14489, Note_on_c, 0, 59, 100
1, 14513, Note_off_c, 0, 59, 100
1, 14513, Note_on_c, 0, 64, 100
1, 14578, Note_off_c, 0, 64, 100
1, 14578, Note_on_c, 0, 62, 100
1, 14612, Note_off_c, 0, 62, 100
1, 14612, Note_on_c, 0, 61, 100
1, 14629, Note_off_c, 0, 61, 100
1, 14629, Note_on_c, 0, 60, 100
1, 14646, Note_off_c, 0, 60, 100
1, 14646, Note_on_c, 0, 59, 100
1, 14663, Note_off_c, 0, 59, 100
1, 14663, Note_on_c, 0, 58, 100
1, 14697, Note_off_c, 0, 58, 100
1, 14697, Note_on_c, 0, 50, 100
1, 14731, Note_off_c, 0, 50, 100
1, 14731, Note_on_c, 0, 52, 100
1, 14748, Note_off_c, 0, 52, 100
1, 14748, Note_on_c, 0, 53, 100
1, 15060, Note_off_c, 0, 53, 100
1, 15060, Note_on_c, 0, 56, 100
1, 15084, Note_off_c, 0, 56, 100
1, 15084, Note_on_c, 0, 58, 100
1, 15108, Note_off_c, 0, 58, 100
1, 15108, Note_on_c, 0, 61, 100
1, 15152, Note_off_c, 0, 61, 100
1, 15152, Note_on_c, 0, 64, 100
1, 15172, Note_off_c, 0, 64, 100
1, 15172, Note_on_c, 0, 65, 100
1, 15182, Note_off_c, 0, 65, 100
1, 15182, Note_on_c, 0, 64, 100
1, 15212, Note_off_c, 0, 64, 100
1, 15212, Note_on_c, 0, 62, 100
1, 15242, Note_off_c, 0, 62, 100
1, 15242, Note_on_c, 0, 64, 100
1, 15292, Note_off_c, 0, 64, 100
1, 15292, Note_on_c, 0, 62, 100
1, 15302, Note_off_c, 0, 62, 100
1, 15302, Note_on_c, 0, 63, 100
1, 15312, Note_off_c, 0, 63, 100
1, 15312, Note_on_c, 0, 62, 100
1, 15322, Note_off_c, 0, 62, 100
1, 15322, Note_on_c, 0, 60, 100
1, 15386, Note_off_c, 0, 60, 100
1, 15386, Note_on_c, 0, 59, 100
1, 15450, Note_off_c, 0, 59, 100
1, 15450, Note_on_c, 0, 57, 100
1, 15514, Note_off_c, 0, 57, 100
1, 15514, Note_on_c, 0, 52, 100
1, 15610, Note_off_c, 0, 52, 100
1, 15610, Note_on_c, 0, 52, 100
1, 15706, Note_off_c, 0, 52, 100
1, 15706, Note_on_c, 0, 51, 100
1, 15754, Note_off_c, 0, 51, 100
1, 15754, Note_on_c, 0, 56, 100
1, 15802, Note_off_c, 0, 56, 100
1, 15802, Note_on_c, 0, 60, 100
1, 15850, Note_off_c, 0, 60, 100
1, 15850, Note_on_c, 0, 61, 100
1, 15898, Note_off_c, 0, 61, 100
1, 15898, Note_on_c, 0, 62, 100
1, 15936, Note_off_c, 0, 62, 100
1, 15936, Note_on_c, 0, 63, 100
1, 15974, Note_off_c, 0, 63, 100
1, 15974, Note_on_c, 0, 60, 100
1, 16012, Note_off_c, 0, 60, 100
1, 16012, Note_on_c, 0, 56, 100
1, 16088, Note_off_c, 0, 56, 100
1, 16088, Note_on_c, 0, 54, 100
1, 16136, Note_off_c, 0, 54, 100
1, 16136, Note_on_c, 0, 55, 100
1, 16280, Note_off_c, 0, 55, 100
1, 16280, Note_on_c, 0, 59, 100
1, 16328, Note_off_c, 0, 59, 100
1, 16328, Note_on_c, 0, 62, 100
1, 16376, Note_off_c, 0, 62, 100
1, 16376, Note_on_c, 0, 64, 100
1, 16424, Note_off_c, 0, 64, 100
1, 16424, Note_on_c, 0, 66, 100
1, 16493, Note_off_c, 0, 66, 100
1, 16493, Note_on_c, 0, 67, 100
1, 16535, Note_off_c, 0, 67, 100
1, 16535, Note_on_c, 0, 69, 100
1, 16577, Note_off_c, 0, 69, 100
1, 16577, Note_on_c, 0, 67, 100
1, 16598, Note_off_c, 0, 67, 100
1, 16598, Note_on_c, 0, 69, 100
1, 16619, Note_off_c, 0, 69, 100
1, 16619, Note_on_c, 0, 67, 100
1, 16640, Note_off_c, 0, 67, 100
1, 16640, Note_on_c, 0, 66, 100
1, 16661, Note_off_c, 0, 66, 100
1, 16661, Note_on_c, 0, 65, 100
1, 16709, Note_off_c, 0, 65, 100
1, 16709, Note_on_c, 0, 61, 100
1, 16757, Note_off_c, 0, 61, 100
1, 16757, Note_on_c, 0, 58, 100
1, 16805, Note_off_c, 0, 58, 100
1, 16805, Note_on_c, 0, 65, 100
1, 16853, Note_off_c, 0, 65, 100
1, 16853, Note_on_c, 0, 64, 100
1, 16877, Note_off_c, 0, 64, 100
1, 16877, Note_on_c, 0, 65, 100
1, 16901, Note_off_c, 0, 65, 100
1, 16901, Note_on_c, 0, 64, 100
1, 16925, Note_off_c, 0, 64, 100
1, 16925, Note_on_c, 0, 62, 100
1, 16949, Note_off_c, 0, 62, 100
1, 16949, Note_on_c, 0, 60, 100
1, 17021, Note_off_c, 0, 60, 100
1, 17021, Note_on_c, 0, 59, 100
1, 17045, Note_off_c, 0, 59, 100
1, 17045, Note_on_c, 0, 57, 100
1, 17102, Note_off_c, 0, 57, 100
1, 17102, Note_on_c, 0, 52, 100
1, 17140, Note_off_c, 0, 52, 100
1, 17140, Note_on_c, 0, 54, 100
1, 17159, Note_off_c, 0, 54, 100
1, 17159, Note_on_c, 0, 57, 100
1, 17178, Note_off_c, 0, 57, 100
1, 17178, Note_on_c, 0, 54, 100
1, 17197, Note_off_c, 0, 54, 100
1, 17197, Note_on_c, 0, 52, 100
1, 17216, Note_off_c, 0, 52, 100
1, 17216, Note_on_c, 0, 57, 100
1, 17235, Note_off_c, 0, 57, 100
1, 17235, Note_on_c, 0, 55, 100
1, 17307, Note_off_c, 0, 55, 100
1, 17307, Note_on_c, 0, 52, 100
1, 17331, Note_off_c, 0, 52, 100
1, 17331, Note_on_c, 0, 54, 100
1, 17379, Note_off_c, 0, 54, 100
1, 17379, Note_on_c, 0, 61, 100
1, 17403, Note_off_c, 0, 61, 100
1, 17403, Note_on_c, 0, 62, 100
1, 17523, Note_off_c, 0, 62, 100
1, 17523, Note_on_c, 0, 60, 100
1, 17547, Note_off_c, 0, 60, 100
1, 17547, Note_on_c, 0, 62, 100
1, 17571, Note_off_c, 0, 62, 100
1, 17571, Note_on_c, 0, 58, 100
1, 17595, Note_off_c, 0, 58, 100
1, 17595, Note_on_c, 0, 59, 100
1, 17859, Note_off_c, 0, 59, 100
1, 17859, Note_on_c, 0, 62, 100
1, 17907, Note_off_c, 0, 62, 100
1, 17907, Note_on_c, 0, 64, 100
1, 17955, Note_off_c, 0, 64, 100
1, 17955, Note_on_c, 0, 66, 100
1, 17979, Note_off_c, 0, 66, 100
1, 17979, Note_on_c, 0, 67, 100
1, 18003, Note_off_c, 0, 67, 100
1, 18003, Note_on_c, 0, 66, 100
1, 18051, Note_off_c, 0, 66, 100
1, 18051, Note_on_c, 0, 63, 100
1, 18099, Note_off_c, 0, 63, 100
1, 18099, Note_on_c, 0, 55, 100
1, 18147, Note_off_c, 0, 55, 100
1, 18147, Note_on_c, 0, 57, 100
1, 18195, Note_off_c, 0, 57, 100
1, 18195, Note_on_c, 0, 60, 100
1, 18243, Note_off_c, 0, 60, 100
1, 18243, Note_on_c, 0, 62, 100
1, 18291, Note_off_c, 0, 62, 100
1, 18291, Note_on_c, 0, 63, 100
1, 18339, Note_off_c, 0, 63, 100
1, 18339, Note_on_c, 0, 64, 100
1, 18387, Note_off_c, 0, 64, 100
1, 18387, Note_on_c, 0, 65, 100
1, 18435, Note_off_c, 0, 65, 100
1, 18435, Note_on_c, 0, 61, 100
1, 18483, Note_off_c, 0, 61, 100
1, 18483, Note_on_c, 0, 53, 100
1, 18531, Note_off_c, 0, 53, 100
1, 18531, Note_on_c, 0, 55, 100
1, 18579, Note_off_c, 0, 55, 100
1, 18579, Note_on_c, 0, 56, 100
1, 18611, Note_off_c, 0, 56, 100
1, 18611, Note_on_c, 0, 58, 100
1, 18707, Note_off_c, 0, 58, 100
1, 18707, Note_on_c, 0, 60, 100
1, 18739, Note_off_c, 0, 60, 100
1, 18739, Note_on_c, 0, 61, 100
1, 18809, Note_off_c, 0, 61, 100
1, 18809, Note_on_c, 0, 63, 100
1, 18847, Note_off_c, 0, 63, 100
1, 18847, Note_on_c, 0, 61, 100
1, 18885, Note_off_c, 0, 61, 100
1, 18885, Note_on_c, 0, 63, 100
1, 18923, Note_off_c, 0, 63, 100
1, 18923, Note_on_c, 0, 63, 100
1, 18961, Note_off_c, 0, 63, 100
1, 18961, Note_on_c, 0, 64, 100
1, 19025, Note_off_c, 0, 64, 100
1, 19025, Note_on_c, 0, 60, 100
1, 19057, Note_off_c, 0, 60, 100
1, 19057, Note_on_c, 0, 64, 100
1, 19089, Note_off_c, 0, 64, 100
1, 19089, Note_on_c, 0, 65, 100
1, 19121, Note_off_c, 0, 65, 100
1, 19121, Note_on_c, 0, 60, 100
1, 19153, Note_off_c, 0, 60, 100
1, 19153, Note_on_c, 0, 58, 100
1, 19345, Note_off_c, 0, 58, 100
1, 19652, Note_on_c, 0, 51, 100
1, 19690, Note_off_c, 0, 51, 100
1, 19690, Note_on_c, 0, 52, 100
1, 19728, Note_off_c, 0, 52, 100
1, 19728, Note_on_c, 0, 56, 100
1, 19766, Note_off_c, 0, 56, 100
1, 19766, Note_on_c, 0, 58, 100
1, 19804, Note_off_c, 0, 58, 100
1, 19804, Note_on_c, 0, 60, 100
1, 19842, Note_off_c, 0, 60, 100
1, 19842, Note_on_c, 0, 61, 100
1, 19880, Note_off_c, 0, 61, 100
1, 19880, Note_on_c, 0, 63, 100
1, 19966, Note_off_c, 0, 63, 100
1, 19966, Note_on_c, 0, 65, 100
1, 19990, Note_off_c, 0, 65, 100
1, 19990, Note_on_c, 0, 66, 100
1, 20014, Note_off_c, 0, 66, 100
1, 20014, Note_on_c, 0, 68, 100
1, 20038, Note_off_c, 0, 68, 100
1, 20038, Note_on_c, 0, 66, 100
1, 20062, Note_off_c, 0, 66, 100
1, 20062, Note_on_c, 0, 63, 100
1, 20086, Note_off_c, 0, 63, 100
1, 20086, Note_on_c, 0, 65, 100
1, 20158, Note_off_c, 0, 65, 100
1, 20158, Note_on_c, 0, 60, 100
1, 20356, Note_off_c, 0, 60, 100
1, 20356, Note_on_c, 0, 65, 100
1, 20383, Note_off_c, 0, 65, 100
1, 20383, Note_on_c, 0, 64, 100
1, 20410, Note_off_c, 0, 64, 100
1, 20410, Note_on_c, 0, 65, 100
1, 20437, Note_off_c, 0, 65, 100
1, 20437, Note_on_c, 0, 64, 100
1, 20464, Note_off_c, 0, 64, 100
1, 20464, Note_on_c, 0, 62, 100
1, 20491, Note_off_c, 0, 62, 100
1, 20491, Note_on_c, 0, 63, 100
1, 20539, Note_off_c, 0, 63, 100
1, 20539, Note_on_c, 0, 61, 100
1, 20587, Note_off_c, 0, 61, 100
1, 20587, Note_on_c, 0, 55, 100
1, 20635, Note_off_c, 0, 55, 100
1, 20635, Note_on_c, 0, 59, 100
1, 20683, Note_off_c, 0, 59, 100
1, 20683, Note_on_c, 0, 60, 100
1, 20779, Note_off_c, 0, 60, 100
1, 20779, Note_on_c, 0, 63, 100
1, 20875, Note_off_c, 0, 63, 100
1, 20875, Note_on_c, 0, 55, 100
1, 20907, Note_off_c, 0, 55, 100
1, 20907, Note_on_c, 0, 54, 100
1, 20939, Note_off_c, 0, 54, 100
1, 20939, Note_on_c, 0, 51, 100
1, 20971, Note_off_c, 0, 51, 100
1, 20971, Note_on_c, 0, 53, 100
1, 21035, Note_off_c, 0, 53, 100
1, 21035, Note_on_c, 0, 55, 100
1, 21131, Note_off_c, 0, 55, 100
1, 21131, Note_on_c, 0, 51, 100
1, 21227, Note_off_c, 0, 51, 100
1, 21515, Note_on_c, 0, 51, 100
1, 21547, Note_off_c, 0, 51, 100
1, 21547, Note_on_c, 0, 52, 100
1, 21579, Note_off_c, 0, 52, 100
1, 21579, Note_on_c, 0, 56, 100
1, 21611, Note_off_c, 0, 56, 100
1, 21611, Note_on_c, 0, 60, 100
1, 21643, Note_off_c, 0, 60, 100
1, 21643, Note_on_c, 0, 63, 100
1, 21667, Note_off_c, 0, 63, 100
1, 21667, Note_on_c, 0, 62, 100
1, 21715, Note_off_c, 0, 62, 100
1, 21715, Note_on_c, 0, 55, 100
1, 21739, Note_off_c, 0, 55, 100
1, 21739, Note_on_c, 0, 59, 100
1, 21763, Note_off_c, 0, 59, 100
1, 21763, Note_on_c, 0, 62, 100
1, 21787, Note_off_c, 0, 62, 100
1, 21787, Note_on_c, 0, 67, 100
1, 21811, Note_off_c, 0, 67, 100
1, 21811, Note_on_c, 0, 65, 100
1, 21835, Note_off_c, 0, 65, 100
1, 21835, Note_on_c, 0, 64, 100
1, 21883, Note_off_c, 0, 64, 100
1, 21883, Note_on_c, 0, 57, 100
1, 21931, Note_off_c, 0, 57, 100
1, 21931, Note_on_c, 0, 58, 100
1, 21979, Note_off_c, 0, 58, 100
1, 21979, Note_on_c, 0, 61, 100
1, 22027, Note_off_c, 0, 61, 100
1, 22027, Note_on_c, 0, 60, 100
1, 22091, Note_off_c, 0, 60, 100
1, 22091, Note_on_c, 0, 58, 100
1, 22123, Note_off_c, 0, 58, 100
1, 22123, Note_on_c, 0, 57, 100
1, 22155, Note_off_c, 0, 57, 100
1, 22155, Note_on_c, 0, 54, 100
1, 22187, Note_off_c, 0, 54, 100
1, 22187, Note_on_c, 0, 53, 100
1, 22219, Note_off_c, 0, 53, 100
1, 22219, Note_on_c, 0, 51, 100
1, 22267, Note_off_c, 0, 51, 100
1, 22267, Note_on_c, 0, 50, 100
1, 22363, Note_off_c, 0, 50, 100
1, 22363, Note_on_c, 0, 55, 100
1, 22411, Note_off_c, 0, 55, 100
1, 22411, Note_on_c, 0, 57, 100
1, 22445, Note_off_c, 0, 57, 100
1, 22445, Note_on_c, 0, 58, 100
1, 22567, Note_off_c, 0, 58, 100
1, 22567, Note_on_c, 0, 56, 100
1, 22584, Note_off_c, 0, 56, 100
1, 22584, Note_on_c, 0, 58, 100
1, 22601, Note_off_c, 0, 58, 100
1, 22601, Note_on_c, 0, 56, 100
1, 22639, Note_off_c, 0, 56, 100
1, 22639, Note_on_c, 0, 54, 100
1, 22677, Note_off_c, 0, 54, 100
1, 22677, Note_on_c, 0, 52, 100
1, 22715, Note_off_c, 0, 52, 100
1, 22715, Note_on_c, 0, 51, 100
1, 22935, Note_off_c, 0, 51, 100
1, 22935, Note_on_c, 0, 55, 100
1, 23031, Note_off_c, 0, 55, 100
1, 23031, Note_on_c, 0, 52, 100
1, 23079, Note_off_c, 0, 52, 100
1, 23079, Note_on_c, 0, 53, 100
1, 23127, Note_off_c, 0, 53, 100
1, 23127, Note_on_c, 0, 55, 100
1, 23175, Note_off_c, 0, 55, 100
1, 23175, Note_on_c, 0, 56, 100
1, 23223, Note_off_c, 0, 56, 100
1, 23223, Note_on_c, 0, 58, 100
1, 23271, Note_off_c, 0, 58, 100
1, 23271, Note_on_c, 0, 55, 100
1, 23319, Note_off_c, 0, 55, 100
1, 23319, Note_on_c, 0, 56, 100
1, 23367, Note_off_c, 0, 56, 100
1, 23367, Note_on_c, 0, 58, 100
1, 23415, Note_off_c, 0, 58, 100
1, 23415, Note_on_c, 0, 60, 100
1, 23463, Note_off_c, 0, 60, 100
1, 23463, Note_on_c, 0, 61, 100
1, 23511, Note_off_c, 0, 61, 100
1, 23511, Note_on_c, 0, 63, 100
1, 23559, Note_off_c, 0, 63, 100
1, 23559, Note_on_c, 0, 60, 100
1, 23703, Note_off_c, 0, 60, 100
1, 23703, Note_on_c, 0, 63, 100
1, 23751, Note_off_c, 0, 63, 100
1, 23751, Note_on_c, 0, 58, 100
1, 23847, Note_off_c, 0, 58, 100
1, 23847, Note_on_c, 0, 56, 100
1, 24231, Note_off_c, 0, 56, 100
1, 24231, Note_on_c, 0, 61, 100
1, 24279, Note_off_c, 0, 61, 100
1, 24279, Note_on_c, 0, 63, 100
1, 24375, Note_off_c, 0, 63, 100
1, 24375, Note_on_c, 0, 60, 100
1, 24423, Note_off_c, 0, 60, 100
1, 24423, Note_on_c, 0, 58, 100
1, 24471, Note_off_c, 0, 58, 100
1, 24471, Note_on_c, 0, 56, 100
1, 24519, Note_off_c, 0, 56, 100
1, 24519, Note_on_c, 0, 55, 100
1, 24567, Note_off_c, 0, 55, 100
1, 24567, Note_on_c, 0, 57, 100
1, 24615, Note_off_c, 0, 57, 100
1, 24615, Note_on_c, 0, 60, 100
1, 24663, Note_off_c, 0, 60, 100
1, 24663, Note_on_c, 0, 62, 100
1, 24711, Note_off_c, 0, 62, 100
1, 24711, Note_on_c, 0, 60, 100
1, 24775, Note_off_c, 0, 60, 100
1, 24775, Note_on_c, 0, 62, 100
1, 24807, Note_off_c, 0, 62, 100
1, 24807, Note_on_c, 0, 63, 100
1, 24839, Note_off_c, 0, 63, 100
1, 24839, Note_on_c, 0, 63, 100
1, 24871, Note_off_c, 0, 63, 100
1, 24871, Note_on_c, 0, 66, 100
1, 24903, Note_off_c, 0, 66, 100
1, 24903, Note_on_c, 0, 65, 100
1, 24927, Note_off_c, 0, 65, 100
1, 24927, Note_on_c, 0, 66, 100
1, 24951, Note_off_c, 0, 66, 100
1, 24951, Note_on_c, 0, 65, 100
1, 24975, Note_off_c, 0, 65, 100
1, 24975, Note_on_c, 0, 60, 100
1, 25023, Note_off_c, 0, 60, 100
1, 25023, Note_on_c, 0, 63, 100
1, 25071, Note_off_c, 0, 63, 100
1, 25071, Note_on_c, 0, 62, 100
1, 25095, Note_off_c, 0, 62, 100
1, 25095, Note_on_c, 0, 61, 100
1, 25191, Note_off_c, 0, 61, 100
1, 25383, Note_on_c, 0, 56, 100
1, 25407, Note_off_c, 0, 56, 100
1, 25407, Note_on_c, 0, 57, 100
1, 25431, Note_off_c, 0, 57, 100
1, 25431, Note_on_c, 0, 58, 100
1, 25455, Note_off_c, 0, 58, 100
1, 25455, Note_on_c, 0, 59, 100
1, 25585, Note_off_c, 0, 59, 100
1, 25585, Note_on_c, 0, 62, 100
1, 25606, Note_off_c, 0, 62, 100
1, 25606, Note_on_c, 0, 64, 100
1, 25627, Note_off_c, 0, 64, 100
1, 25627, Note_on_c, 0, 67, 100
1, 25648, Note_off_c, 0, 67, 100
1, 25648, Note_on_c, 0, 71, 100
1, 25669, Note_off_c, 0, 71, 100
1, 25669, Note_on_c, 0, 74, 100
1, 25813, Note_off_c, 0, 74, 100
1, 25813, Note_on_c, 0, 67, 100
1, 25837, Note_off_c, 0, 67, 100
1, 25837, Note_on_c, 0, 68, 100
1, 25885, Note_off_c, 0, 68, 100
1, 25885, Note_on_c, 0, 70, 100
1, 25909, Note_off_c, 0, 70, 100
1, 25909, Note_on_c, 0, 67, 100
1, 25933, Note_off_c, 0, 67, 100
1, 25933, Note_on_c, 0, 66, 100
1, 25957, Note_off_c, 0, 66, 100
1, 25957, Note_on_c, 0, 65, 100
1, 25981, Note_off_c, 0, 65, 100
1, 25981, Note_on_c, 0, 63, 100
1, 26005, Note_off_c, 0, 63, 100
1, 26005, Note_on_c, 0, 61, 100
1, 26029, Note_off_c, 0, 61, 100
1, 26029, Note_on_c, 0, 58, 100
1, 26053, Note_off_c, 0, 58, 100
1, 26053, Note_on_c, 0, 64, 100
1, 26101, Note_off_c, 0, 64, 100
1, 26101, Note_on_c, 0, 60, 100
1, 26149, Note_off_c, 0, 60, 100
1, 26149, Note_on_c, 0, 57, 100
1, 26341, Note_off_c, 0, 57, 100
1, 26341, Note_on_c, 0, 65, 100
1, 26389, Note_off_c, 0, 65, 100
1, 26389, Note_on_c, 0, 64, 100
1, 26437, Note_off_c, 0, 64, 100
1, 26437, Note_on_c, 0, 63, 100
1, 26501, Note_off_c, 0, 63, 100
1, 26501, Note_on_c, 0, 60, 100
1, 26533, Note_off_c, 0, 60, 100
1, 26533, Note_on_c, 0, 56, 100
1, 26565, Note_off_c, 0, 56, 100
1, 26565, Note_on_c, 0, 54, 100
1, 26597, Note_off_c, 0, 54, 100
1, 26597, Note_on_c, 0, 52, 100
1, 26629, Note_off_c, 0, 52, 100
1, 26629, Note_on_c, 0, 51, 100
1, 26701, Note_off_c, 0, 51, 100
1, 26701, Note_on_c, 0, 59, 100
1, 26749, Note_off_c, 0, 59, 100
1, 26749, Note_on_c, 0, 60, 100
1, 26773, Note_off_c, 0, 60, 100
1, 26773, Note_on_c, 0, 58, 100
1, 26797, Note_off_c, 0, 58, 100
1, 26797, Note_on_c, 0, 56, 100
1, 26821, Note_off_c, 0, 56, 100
1, 26821, Note_on_c, 0, 55, 100
1, 26869, Note_off_c, 0, 55, 100
1, 26869, Note_on_c, 0, 50, 100
1, 26917, Note_off_c, 0, 50, 100
1, 26917, Note_on_c, 0, 52, 100
1, 26965, Note_off_c, 0, 52, 100
1, 26965, Note_on_c, 0, 53, 100
1, 27013, Note_off_c, 0, 53, 100
1, 27013, Note_on_c, 0, 54, 100
1, 27061, Note_off_c, 0, 54, 100
1, 27061, Note_on_c, 0, 50, 100
1, 27109, Note_off_c, 0, 50, 100
1, 27109, Note_on_c, 0, 52, 100
1, 27157, Note_off_c, 0, 52, 100
1, 27157, Note_on_c, 0, 53, 100
1, 27397, Note_off_c, 0, 53, 100
1, 27397, Note_on_c, 0, 56, 100
1, 27418, Note_off_c, 0, 56, 100
1, 27418, Note_on_c, 0, 59, 100
1, 27439, Note_off_c, 0, 59, 100
1, 27439, Note_on_c, 0, 62, 100
1, 27460, Note_off_c, 0, 62, 100
1, 27460, Note_on_c, 0, 65, 100
1, 27481, Note_off_c, 0, 65, 100
1, 27481, Note_on_c, 0, 64, 100
1, 27502, Note_off_c, 0, 64, 100
1, 27502, Note_on_c, 0, 62, 100
1, 27523, Note_off_c, 0, 62, 100
1, 27523, Note_on_c, 0, 60, 100
1, 27544, Note_off_c, 0, 60, 100
1, 27544, Note_on_c, 0, 58, 100
1, 27565, Note_off_c, 0, 58, 100
1, 27565, Note_on_c, 0, 56, 100
1, 27586, Note_off_c, 0, 56, 100
1, 27586, Note_on_c, 0, 57, 100
1, 27778, Note_off_c, 0, 57, 100
1, 27778, Note_on_c, 0, 52, 100
1, 27826, Note_off_c, 0, 52, 100
1, 27826, Note_on_c, 0, 56, 100
1, 27874, Note_off_c, 0, 56, 100
1, 27874, Note_on_c, 0, 60, 100
1, 27922, Note_off_c, 0, 60, 100
1, 27922, Note_on_c, 0, 63, 100
1, 27970, Note_off_c, 0, 63, 100
1, 27970, Note_on_c, 0, 61, 100
1, 27991, Note_off_c, 0, 61, 100
1, 27991, Note_on_c, 0, 62, 100
1, 28012, Note_off_c, 0, 62, 100
1, 28012, Note_on_c, 0, 60, 100
1, 28054, Note_off_c, 0, 60, 100
1, 28054, Note_on_c, 0, 62, 100
1, 28075, Note_off_c, 0, 62, 100
1, 28075, Note_on_c, 0, 63, 100
1, 28117, Note_off_c, 0, 63, 100
1, 28117, Note_on_c, 0, 62, 100
1, 28138, Note_off_c, 0, 62, 100
1, 28138, Note_on_c, 0, 63, 100
1, 28159, Note_off_c, 0, 63, 100
1, 28159, Note_on_c, 0, 62, 100
1, 28207, Note_off_c, 0, 62, 100
1, 28207, Note_on_c, 0, 60, 100
1, 28255, Note_off_c, 0, 60, 100
1, 28255, Note_on_c, 0, 56, 100
1, 28303, Note_off_c, 0, 56, 100
1, 28303, Note_on_c, 0, 54, 100
1, 28351, Note_off_c, 0, 54, 100
1, 28351, Note_on_c, 0, 55, 100
1, 28581, Note_off_c, 0, 55, 100
1, 28581, Note_on_c, 0, 59, 100
1, 28619, Note_off_c, 0, 59, 100
1, 28619, Note_on_c, 0, 62, 100
1, 28657, Note_off_c, 0, 62, 100
1, 28657, Note_on_c, 0, 66, 100
1, 28695, Note_off_c, 0, 66, 100
1, 28695, Note_on_c, 0, 69, 100
1, 28803, Note_off_c, 0, 69, 100
1, 28803, Note_on_c, 0, 66, 100
1, 28820, Note_off_c, 0, 66, 100
1, 28820, Note_on_c, 0, 62, 100
1, 28854, Note_off_c, 0, 62, 100
1, 28854, Note_on_c, 0, 58, 100
1, 28888, Note_off_c, 0, 58, 100
1, 28888, Note_on_c, 0, 67, 100
1, 28905, Note_off_c, 0, 67, 100
1, 28905, Note_on_c, 0, 68, 100
1, 28986, Note_off_c, 0, 68, 100
1, 28986, Note_on_c, 0, 65, 100
1, 29018, Note_off_c, 0, 65, 100
1, 29018, Note_on_c, 0, 61, 100
1, 29050, Note_off_c, 0, 61, 100
1, 29050, Note_on_c, 0, 58, 100
1, 29082, Note_off_c, 0, 58, 100
1, 29082, Note_on_c, 0, 67, 100
1, 29162, Note_off_c, 0, 67, 100
1, 29162, Note_on_c, 0, 65, 100
1, 29210, Note_off_c, 0, 65, 100
1, 29210, Note_on_c, 0, 60, 100
1, 29258, Note_off_c, 0, 60, 100
1, 29258, Note_on_c, 0, 57, 100
1, 29358, Note_off_c, 0, 57, 100
1, 29358, Note_on_c, 0, 57, 100
1, 29375, Note_off_c, 0, 57, 100
1, 29375, Note_on_c, 0, 59, 100
1, 29392, Note_off_c, 0, 59, 100
1, 29392, Note_on_c, 0, 60, 100
1, 29426, Note_off_c, 0, 60, 100
1, 29426, Note_on_c, 0, 62, 100
1, 29443, Note_off_c, 0, 62, 100
1, 29443, Note_on_c, 0, 64, 100
1, 29460, Note_off_c, 0, 64, 100
1, 29460, Note_on_c, 0, 65, 100
1, 29477, Note_off_c, 0, 65, 100
1, 29477, Note_on_c, 0, 66, 100
1, 29494, Note_off_c, 0, 66, 100
1, 29494, Note_on_c, 0, 67, 100
1, 29542, Note_off_c, 0, 67, 100
1, 29542, Note_on_c, 0, 64, 100
1, 29590, Note_off_c, 0, 64, 100
1, 29590, Note_on_c, 0, 60, 100
1, 29614, Note_off_c, 0, 60, 100
1, 29614, Note_on_c, 0, 57, 100
1, 29638, Note_off_c, 0, 57, 100
1, 29638, Note_on_c, 0, 64, 100
1, 29662, Note_off_c, 0, 64, 100
1, 29662, Note_on_c, 0, 65, 100
1, 29686, Note_off_c, 0, 65, 100
1, 29686, Note_on_c, 0, 66, 100
1, 29703, Note_off_c, 0, 66, 100
1, 29703, Note_on_c, 0, 64, 100
1, 29720, Note_off_c, 0, 64, 100
1, 29720, Note_on_c, 0, 63, 100
1, 29737, Note_off_c, 0, 63, 100
1, 29737, Note_on_c, 0, 57, 100
1, 29771, Note_off_c, 0, 57, 100
1, 29771, Note_on_c, 0, 62, 100
1, 29840, Note_off_c, 0, 62, 100
1, 29840, Note_on_c, 0, 60, 100
1, 29857, Note_off_c, 0, 60, 100
1, 29857, Note_on_c, 0, 62, 100
1, 29874, Note_off_c, 0, 62, 100
1, 29874, Note_on_c, 0, 59, 100
1, 30066, Note_off_c, 0, 59, 100
1, 30066, Note_on_c, 0, 62, 100
1, 30114, Note_off_c, 0, 62, 100
1, 30114, Note_on_c, 0, 65, 100
1, 30162, Note_off_c, 0, 65, 100
1, 30162, Note_on_c, 0, 67, 100
1, 30210, Note_off_c, 0, 67, 100
1, 30210, Note_on_c, 0, 68, 100
1, 30258, Note_off_c, 0, 68, 100
1, 30258, Note_on_c, 0, 67, 100
1, 30322, Note_off_c, 0, 67, 100
1, 30322, Note_on_c, 0, 63, 100
1, 30354, Note_off_c, 0, 63, 100
1, 30354, Note_on_c, 0, 55, 100
1, 30386, Note_off_c, 0, 55, 100
1, 30386, Note_on_c, 0, 57, 100
1, 30418, Note_off_c, 0, 57, 100
1, 30418, Note_on_c, 0, 58, 100
1, 30450, Note_off_c, 0, 58, 100
1, 30450, Note_on_c, 0, 60, 100
1, 30463, Note_off_c, 0, 60, 100
1, 30463, Note_on_c, 0, 62, 100
1, 30476, Note_off_c, 0, 62, 100
1, 30476, Note_on_c, 0, 64, 100
1, 30489, Note_off_c, 0, 64, 100
1, 30489, Note_on_c, 0, 66, 100
1, 30502, Note_off_c, 0, 66, 100
1, 30502, Note_on_c, 0, 68, 100
1, 30515, Note_off_c, 0, 68, 100
1, 30515, Note_on_c, 0, 70, 100
1, 30528, Note_off_c, 0, 70, 100
1, 30528, Note_on_c, 0, 72, 100
1, 30596, Note_off_c, 0, 72, 100
1, 30596, Note_on_c, 0, 69, 100
1, 30623, Note_off_c, 0, 69, 100
1, 30623, Note_on_c, 0, 70, 100
1, 30732, Note_off_c, 0, 70, 100
1, 30732, Note_on_c, 0, 53, 100
1, 30780, Note_off_c, 0, 53, 100
1, 30780, Note_on_c, 0, 58, 100
1, 30828, Note_off_c, 0, 58, 100
1, 30828, Note_on_c, 0, 60, 100
1, 30876, Note_off_c, 0, 60, 100
1, 30876, Note_on_c, 0, 61, 100
1, 30924, Note_off_c, 0, 61, 100
1, 30924, Note_on_c, 0, 63, 100
1, 30972, Note_off_c, 0, 63, 100
1, 30972, Note_on_c, 0, 65, 100
1, 30996, Note_off_c, 0, 65, 100
1, 30996, Note_on_c, 0, 66, 100
1, 31068, Note_off_c, 0, 66, 100
1, 31068, Note_on_c, 0, 63, 100
1, 31092, Note_off_c, 0, 63, 100
1, 31092, Note_on_c, 0, 61, 100
1, 31140, Note_off_c, 0, 61, 100
1, 31140, Note_on_c, 0, 60, 100
1, 31164, Note_off_c, 0, 60, 100
1, 31164, Note_on_c, 0, 58, 100
1, 31188, Note_off_c, 0, 58, 100
1, 31188, Note_on_c, 0, 57, 100
1, 31260, Note_off_c, 0, 57, 100
1, 31260, Note_on_c, 0, 65, 100
1, 31356, Note_off_c, 0, 65, 100
1, 31356, Note_on_c, 0, 63, 100
1, 31404, Note_off_c, 0, 63, 100
1, 31404, Note_on_c, 0, 61, 100
1, 31468, Note_off_c, 0, 61, 100
1, 31468, Note_on_c, 0, 58, 100
1, 31564, Note_off_c, 0, 58, 100
1, 31836, Note_on_c, 0, 51, 100
1, 31884, Note_off_c, 0, 51, 100
1, 31884, Note_on_c, 0, 53, 100
1, 32028, Note_off_c, 0, 53, 100
1, 32028, Note_on_c, 0, 56, 100
1, 32076, Note_off_c, 0, 56, 100
1, 32076, Note_on_c, 0, 60, 100
1, 32124, Note_off_c, 0, 60, 100
1, 32124, Note_on_c, 0, 63, 100
1, 32204, Note_off_c, 0, 63, 100
1, 32204, Note_on_c, 0, 66, 100
1, 32236, Note_off_c, 0, 66, 100
1, 32236, Note_on_c, 0, 64, 100
1, 32268, Note_off_c, 0, 64, 100
1, 32268, Note_on_c, 0, 56, 100
1, 32300, Note_off_c, 0, 56, 100
1, 32300, Note_on_c, 0, 59, 100
1, 32332, Note_off_c, 0, 59, 100
1, 32332, Note_on_c, 0, 63, 100
1, 32364, Note_off_c, 0, 63, 100
1, 32364, Note_on_c, 0, 61, 100
1, 32380, Note_off_c, 0, 61, 100
1, 32380, Note_on_c, 0, 64, 100
1, 32396, Note_off_c, 0, 64, 100
1, 32396, Note_on_c, 0, 63, 100
1, 32412, Note_off_c, 0, 63, 100
1, 32412, Note_on_c, 0, 55, 100
1, 32444, Note_off_c, 0, 55, 100
1, 32444, Note_on_c, 0, 58, 100
1, 32460, Note_off_c, 0, 58, 100
1, 32460, Note_on_c, 0, 62, 100
1, 32492, Note_off_c, 0, 62, 100
1, 32492, Note_on_c, 0, 61, 100
1, 32508, Note_off_c, 0, 61, 100
1, 32508, Note_on_c, 0, 64, 100
1, 32524, Note_off_c, 0, 64, 100
1, 32524, Note_on_c, 0, 62, 100
1, 32540, Note_off_c, 0, 62, 100
1, 32540, Note_on_c, 0, 54, 100
1, 32577, Note_off_c, 0, 54, 100
1, 32577, Note_on_c, 0, 57, 100
1, 32598, Note_off_c, 0, 57, 100
1, 32598, Note_on_c, 0, 61, 100
1, 32619, Note_off_c, 0, 61, 100
1, 32619, Note_on_c, 0, 58, 100
1, 32640, Note_off_c, 0, 58, 100
1, 32640, Note_on_c, 0, 63, 100
1, 32661, Note_off_c, 0, 63, 100
1, 32661, Note_on_c, 0, 61, 100
1, 32682, Note_off_c, 0, 61, 100
1, 32682, Note_on_c, 0, 53, 100
1, 32724, Note_off_c, 0, 53, 100
1, 32724, Note_on_c, 0, 56, 100
1, 32745, Note_off_c, 0, 56, 100
1, 32745, Note_on_c, 0, 60, 100
1, 32772, Note_off_c, 0, 60, 100
1, 32772, Note_on_c, 0, 61, 100
1, 32799, Note_off_c, 0, 61, 100
1, 32799, Note_on_c, 0, 62, 100
1, 32826, Note_off_c, 0, 62, 100
1, 32826, Note_on_c, 0, 63, 100
1, 32853, Note_off_c, 0, 63, 100
1, 32853, Note_on_c, 0, 59, 100
1, 32880, Note_off_c, 0, 59, 100
1, 32880, Note_on_c, 0, 60, 100
1, 32907, Note_off_c, 0, 60, 100
1, 32907, Note_on_c, 0, 55, 100
1, 33099, Note_off_c, 0, 55, 100
1, 33350, Note_on_c, 0, 66, 100
1, 33382, Note_off_c, 0, 66, 100
1, 33382, Note_on_c, 0, 67, 100
1, 33414, Note_off_c, 0, 67, 100
1, 33414, Note_on_c, 0, 63, 100
1, 33478, Note_off_c, 0, 63, 100
1, 33478, Note_on_c, 0, 65, 100
1, 33510, Note_off_c, 0, 65, 100
1, 33510, Note_on_c, 0, 66, 100
1, 33534, Note_off_c, 0, 66, 100
1, 33534, Note_on_c, 0, 67, 100
1, 33558, Note_off_c, 0, 67, 100
1, 33558, Note_on_c, 0, 66, 100
1, 33582, Note_off_c, 0, 66, 100
1, 33582, Note_on_c, 0, 63, 100
1, 33630, Note_off_c, 0, 63, 100
1, 33630, Note_on_c, 0, 65, 100
1, 33678, Note_off_c, 0, 65, 100
1, 33678, Note_on_c, 0, 63, 100
1, 33702, Note_off_c, 0, 63, 100
1, 33702, Note_on_c, 0, 60, 100
1, 33766, Note_off_c, 0, 60, 100
1, 33766, Note_on_c, 0, 56, 100
1, 33798, Note_off_c, 0, 56, 100
1, 33798, Note_on_c, 0, 53, 100
1, 33830, Note_off_c, 0, 53, 100
1, 33830, Note_on_c, 0, 54, 100
1, 33862, Note_off_c, 0, 54, 100
1, 33862, Note_on_c, 0, 56, 100
1, 33918, Note_off_c, 0, 56, 100
1, 33918, Note_on_c, 0, 59, 100
1, 33942, Note_off_c, 0, 59, 100
1, 33942, Note_on_c, 0, 62, 100
1, 33966, Note_off_c, 0, 62, 100
1, 33966, Note_on_c, 0, 67, 100
1, 34014, Note_off_c, 0, 67, 100
1, 34014, Note_on_c, 0, 65, 100
1, 34038, Note_off_c, 0, 65, 100
1, 34038, Note_on_c, 0, 62, 100
1, 34062, Note_off_c, 0, 62, 100
1, 34062, Note_on_c, 0, 63, 100
1, 34086, Note_off_c, 0, 63, 100
1, 34086, Note_on_c, 0, 64, 100
1, 34162, Note_off_c, 0, 64, 100
1, 34162, Note_on_c, 0, 57, 100
1, 34200, Note_off_c, 0, 57, 100
1, 34200, Note_on_c, 0, 58, 100
1, 34238, Note_off_c, 0, 58, 100
1, 34238, Note_on_c, 0, 61, 100
1, 34276, Note_off_c, 0, 61, 100
1, 34276, Note_on_c, 0, 60, 100
1, 34300, Note_off_c, 0, 60, 100
1, 34300, Note_on_c, 0, 58, 100
1, 34324, Note_off_c, 0, 58, 100
1, 34324, Note_on_c, 0, 57, 100
1, 34372, Note_off_c, 0, 57, 100
1, 34372, Note_on_c, 0, 60, 100
1, 34396, Note_off_c, 0, 60, 100
1, 34396, Note_on_c, 0, 61, 100
1, 34420, Note_off_c, 0, 61, 100
1, 34420, Note_on_c, 0, 63, 100
1, 34444, Note_off_c, 0, 63, 100
1, 34444, Note_on_c, 0, 65, 100
1, 34468, Note_off_c, 0, 65, 100
1, 34468, Note_on_c, 0, 64, 100
1, 34516, Note_off_c, 0, 64, 100
1, 34516, Note_on_c, 0, 63, 100
1, 34564, Note_off_c, 0, 63, 100
1, 34564, Note_on_c, 0, 62, 100
1, 34729, Note_off_c, 0, 62, 100
1, 34729, Note_on_c, 0, 68, 100
1, 34763, Note_off_c, 0, 68, 100
1, 34763, Note_on_c, 0, 70, 100
1, 34815, Note_off_c, 0, 70, 100
1, 34815, Note_on_c, 0, 68, 100
1, 34832, Note_off_c, 0, 68, 100
1, 34832, Note_on_c, 0, 70, 100
1, 34849, Note_off_c, 0, 70, 100
1, 34849, Note_on_c, 0, 68, 100
1, 34863, Note_off_c, 0, 68, 100
1, 34863, Note_on_c, 0, 64, 100
1, 34922, Note_off_c, 0, 64, 100
1, 34922, Note_on_c, 0, 56, 100
1, 34936, Note_off_c, 0, 56, 100
1, 34936, Note_on_c, 0, 57, 100
1, 34950, Note_off_c, 0, 57, 100
1, 34950, Note_on_c, 0, 58, 100
1, 34994, Note_off_c, 0, 58, 100
1, 34994, Note_on_c, 0, 56, 100
1, 35008, Note_off_c, 0, 56, 100
1, 35008, Note_on_c, 0, 58, 100
1, 35022, Note_off_c, 0, 58, 100
1, 35022, Note_on_c, 0, 56, 100
1, 35060, Note_off_c, 0, 56, 100
1, 35060, Note_on_c, 0, 52, 100
1, 35132, Note_off_c, 0, 52, 100
1, 35132, Note_on_c, 0, 54, 100
1, 35156, Note_off_c, 0, 54, 100
1, 35156, Note_on_c, 0, 55, 100
1, 35180, Note_off_c, 0, 55, 100
1, 35180, Note_on_c, 0, 56, 100
1, 35204, Note_off_c, 0, 56, 100
1, 35204, Note_on_c, 0, 52, 100
1, 35228, Note_off_c, 0, 52, 100
1, 35228, Note_on_c, 0, 53, 100
1, 35372, Note_off_c, 0, 53, 100
1, 35372, Note_on_c, 0, 55, 100
1, 35420, Note_off_c, 0, 55, 100
1, 35420, Note_on_c, 0, 58, 100
1, 35468, Note_off_c, 0, 58, 100
1, 35468, Note_on_c, 0, 56, 100
1, 35516, Note_off_c, 0, 56, 100
1, 35516, Note_on_c, 0, 55, 100
1, 35564, Note_off_c, 0, 55, 100
1, 35564, Note_on_c, 0, 56, 100
1, 35612, Note_off_c, 0, 56, 100
1, 35612, Note_on_c, 0, 58, 100
1, 35650, Note_off_c, 0, 58, 100
1, 35650, Note_on_c, 0, 60, 100
1, 35688, Note_off_c, 0, 60, 100
1, 35688, Note_on_c, 0, 61, 100
1, 35726, Note_off_c, 0, 61, 100
1, 35726, Note_on_c, 0, 62, 100
1, 35764, Note_off_c, 0, 62, 100
1, 35764, Note_on_c, 0, 63, 100
1, 35802, Note_off_c, 0, 63, 100
1, 35802, Note_on_c, 0, 60, 100
1, 36015, Note_off_c, 0, 60, 100
1, 36015, Note_on_c, 0, 63, 100
1, 36036, Note_off_c, 0, 63, 100
1, 36036, Note_on_c, 0, 60, 100
1, 36057, Note_off_c, 0, 60, 100
1, 36057, Note_on_c, 0, 61, 100
1, 36078, Note_off_c, 0, 61, 100
1, 36078, Note_on_c, 0, 62, 100
1, 36099, Note_off_c, 0, 62, 100
1, 36099, Note_on_c, 0, 63, 100
1, 36120, Note_off_c, 0, 63, 100
1, 36120, Note_on_c, 0, 62, 100
1, 36141, Note_off_c, 0, 62, 100
1, 36141, Note_on_c, 0, 64, 100
1, 36162, Note_off_c, 0, 64, 100
1, 36162, Note_on_c, 0, 61, 100
1, 36183, Note_off_c, 0, 61, 100
1, 36183, Note_on_c, 0, 58, 100
1, 36215, Note_off_c, 0, 58, 100
1, 36215, Note_on_c, 0, 55, 100
1, 36247, Note_off_c, 0, 55, 100
1, 36247, Note_on_c, 0, 52, 100
1, 36279, Note_off_c, 0, 52, 100
1, 36279, Note_on_c, 0, 53, 100
1, 36311, Note_off_c, 0, 53, 100
1, 36311, Note_on_c, 0, 51, 100
1, 36343, Note_off_c, 0, 51, 100
1, 36343, Note_on_c, 0, 52, 100
1, 36399, Note_off_c, 0, 52, 100
1, 36399, Note_on_c, 0, 58, 100
1, 36423, Note_off_c, 0, 58, 100
1, 36423, Note_on_c, 0, 60, 100
1, 36447, Note_off_c, 0, 60, 100
1, 36447, Note_on_c, 0, 61, 100
1, 36495, Note_off_c, 0, 61, 100
1, 36495, Note_on_c, 0, 58, 100
1, 36519, Note_off_c, 0, 58, 100
1, 36519, Note_on_c, 0, 55, 100
1, 36543, Note_off_c, 0, 55, 100
1, 36543, Note_on_c, 0, 58, 100
1, 36567, Note_off_c, 0, 58, 100
1, 36567, Note_on_c, 0, 60, 100
1, 36591, Note_off_c, 0, 60, 100
1, 36591, Note_on_c, 0, 61, 100
1, 36615, Note_off_c, 0, 61, 100
1, 36615, Note_on_c, 0, 62, 100
1, 36639, Note_off_c, 0, 62, 100
1, 36639, Note_on_c, 0, 63, 100
1, 36711, Note_off_c, 0, 63, 100
1, 36711, Note_on_c, 0, 60, 100
1, 36835, Note_off_c, 0, 60, 100
1, 36835, Note_on_c, 0, 53, 100
1, 36873, Note_off_c, 0, 53, 100
1, 36873, Note_on_c, 0, 52, 100
1, 36911, Note_off_c, 0, 52, 100
1, 36911, Note_on_c, 0, 51, 100
1, 36949, Note_off_c, 0, 51, 100
1, 36949, Note_on_c, 0, 53, 100
1, 36997, Note_off_c, 0, 53, 100
1, 36997, Note_on_c, 0, 51, 100
1, 37045, Note_off_c, 0, 51, 100
1, 37045, Note_on_c, 0, 53, 100
1, 37093, Note_off_c, 0, 53, 100
1, 37093, Note_on_c, 0, 58, 100
1, 37141, Note_off_c, 0, 58, 100
1, 37141, Note_on_c, 0, 53, 100
1, 37173, Note_off_c, 0, 53, 100
1, 37173, Note_on_c, 0, 51, 100
1, 37205, Note_off_c, 0, 51, 100
1, 37205, Note_on_c, 0, 53, 100
1, 37237, Note_off_c, 0, 53, 100
1, 37237, Note_on_c, 0, 58, 100
1, 37269, Note_off_c, 0, 58, 100
1, 37269, Note_on_c, 0, 53, 100
1, 38023, Note_off_c, 0, 53, 100
1, 38023, End_track
0, 0, End_of_file
