0, 0, Header, 1, 1, 192
1, 0, Start_track
1, 0, Title_t, "Melody"
1, 0, Tempo, 416666
1, 0, Key_signature, 1, "major"
1, 0, Time_signature, 4, 2, 24, 8
1, 288, Note_on_c, 0, 80, 100
1, 336, Note_off_c, 0, 80, 100
1, 336, Note_on_c, 0, 81, 100
1, 384, Note_off_c, 0, 81, 100
1, 384, Note_on_c, 0, 83, 100
1, 422, Note_off_c, 0, 83, 100
1, 422, Note_on_c, 0, 84, 100
1, 460, Note_off_c, 0, 84, 100
1, 460, Note_on_c, 0, 82, 100
1, 498, Note_off_c, 0, 82, 100
1, 498, Note_on_c, 0, 80, 100
1, 574, Note_off_c, 0, 80, 100
1, 574, Note_on_c, 0, 79, 100
1, 670, Note_off_c, 0, 79, 100
1, 670, Note_on_c, 0, 77, 100
1, 718, Note_off_c, 0, 77, 100
1, 718, Note_on_c, 0, 75, 100
1, 766, Note_off_c, 0, 75, 100
1, 766, Note_on_c, 0, 77, 100
1, 830, Note_off_c, 0, 77, 100
1, 830, Note_on_c, 0, 79, 100
1, 894, Note_off_c, 0, 79, 100
1, 894, Note_on_c, 0, 75, 100
1, 958, Note_off_c, 0, 75, 100
1, 958, Note_on_c, 0, 77, 100
1, 1246, Note_off_c, 0, 77, 100
1, 1246, Note_on_c, 0, 75, 100
1, 1294, Note_off_c, 0, 75, 100
1, 1294, Note_on_c, 0, 74, 100
1, 1342, Note_off_c, 0, 74, 100
1, 1342, Note_on_c, 0, 72, 100
1, 1438, Note_off_c, 0, 72, 100
1, 1438, Note_on_c, 0, 70, 100
1, 1534, Note_off_c, 0, 70, 100
1, 1534, Note_on_c, 0, 72, 100
1, 1630, Note_off_c, 0, 72, 100
1, 1630, Note_on_c, 0, 74, 100
1, 1822, Note_off_c, 0, 74, 100
1, 1822, Note_on_c, 0, 72, 100
1, 1918, Note_off_c, 0, 72, 100
1, 1918, Note_on_c, 0, 70, 100
1, 2446, Note_off_c, 0, 70, 100
1, 2446, Note_on_c, 0, 69, 100
1, 2542, Note_off_c, 0, 69, 100
1, 2542, Note_on_c, 0, 70, 100
1, 2638, Note_off_c, 0, 70, 100
1, 2638, Note_on_c, 0, 72, 100
1, 2830, Note_off_c, 0, 72, 100
1, 2830, Note_on_c, 0, 70, 100
1, 3070, Note_off_c, 0, 70, 100
1, 3070, Note_on_c, 0, 69, 100
1, 3710, Note_off_c, 0, 69, 100
1, 3710, Note_on_c, 0, 67, 100
1, 3773, Note_off_c, 0, 67, 100
1, 3773, Note_on_c, 0, 69, 100
1, 3885, Note_off_c, 0, 69, 100
1, 3885, Note_on_c, 0, 69, 100
1, 3981, Note_off_c, 0, 69, 100
1, 3981, Note_on_c, 0, 70, 100
1, 4125, Note_off_c, 0, 70, 100
1, 4125, Note_on_c, 0, 69, 100
1, 4285, Note_off_c, 0, 69, 100
1, 4285, Note_on_c, 0, 67, 100
1, 4557, Note_off_c, 0, 67, 100
1, 4557, Note_on_c, 0, 66, 100
1, 4669, Note_off_c, 0, 66, 100
1, 4669, Note_on_c, 0, 67, 100
1, 4797, Note_off_c, 0, 67, 100
1, 4797, Note_on_c, 0, 67, 100
1, 4861, Note_off_c, 0, 67, 100
1, 4861, Note_on_c, 0, 68, 100
1, 5037, Note_off_c, 0, 68, 100
1, 5037, Note_on_c, 0, 67, 100
1, 5133, Note_off_c, 0, 67, 100
1, 5133, Note_on_c, 0, 66, 100
1, 5181, Note_off_c, 0, 66, 100
1, 5181, Note_on_c, 0, 65, 100
1, 5821, Note_off_c, 0, 65, 100
1, 5821, Note_on_c, 0, 64, 100
1, 6109, Note_off_c, 0, 64, 100
1, 8253, Note_on_c, 0, 64, 100
1, 8349, Note_off_c, 0, 64, 100
1, 8349, Note_on_c, 0, 65, 100
1, 8445, Note_off_c, 0, 65, 100
1, 8445, Note_on_c, 0, 66, 100
1, 9309, Note_off_c, 0, 66, 100
1, 9309, Note_on_c, 0, 64, 100
1, 9405, Note_off_c, 0, 64, 100
1, 9405, Note_on_c, 0, 66, 100
1, 9469, Note_off_c, 0, 66, 100
1, 9469, Note_on_c, 0, 67, 100
1, 9533, Note_off_c, 0, 67, 100
1, 9533, Note_on_c, 0, 69, 100
1, 9597, Note_off_c, 0, 69, 100
1, 9597, Note_on_c, 0, 66, 100
1, 9661, Note_off_c, 0, 66, 100
1, 9661, Note_on_c, 0, 67, 100
1, 9725, Note_off_c, 0, 67, 100
1, 9725, Note_on_c, 0, 66, 100
1, 10653, Note_off_c, 0, 66, 100
1, 10653, Note_on_c, 0, 64, 100
1, 10749, Note_off_c, 0, 64, 100
1, 10749, Note_on_c, 0, 66, 100
1, 10813, Note_off_c, 0, 66, 100
1, 10813, Note_on_c, 0, 67, 100
1, 10845, Note_off_c, 0, 67, 100
1, 10845, Note_on_c, 0, 69, 100
1, 10877, Note_off_c, 0, 69, 100
1, 10877, Note_on_c, 0, 67, 100
1, 10909, Note_off_c, 0, 67, 100
1, 10909, Note_on_c, 0, 66, 100
1, 10989, Note_off_c, 0, 66, 100
1, 10989, Note_on_c, 0, 67, 100
1, 11085, Note_off_c, 0, 67, 100
1, 11085, Note_on_c, 0, 69, 100
1, 11197, Note_off_c, 0, 69, 100
1, 11197, Note_on_c, 0, 66, 100
1, 11517, Note_off_c, 0, 66, 100
1, 11517, Note_on_c, 0, 66, 100
1, 11565, Note_off_c, 0, 66, 100
1, 11565, Note_on_c, 0, 71, 100
1, 11661, Note_off_c, 0, 71, 100
1, 11805, Note_on_c, 0, 65, 100
1, 11853, Note_off_c, 0, 65, 100
1, 11853, Note_on_c, 0, 70, 100
1, 11901, Note_off_c, 0, 70, 100
1, 11901, Note_on_c, 0, 63, 100
1, 11939, Note_off_c, 0, 63, 100
1, 11939, Note_on_c, 0, 64, 100
1, 11977, Note_off_c, 0, 64, 100
1, 11977, Note_on_c, 0, 63, 100
1, 12015, Note_off_c, 0, 63, 100
1, 12015, Note_on_c, 0, 64, 100
1, 12053, Note_off_c, 0, 64, 100
1, 12053, Note_on_c, 0, 63, 100
1, 12091, Note_off_c, 0, 63, 100
1, 12091, Note_on_c, 0, 64, 100
1, 12129, Note_off_c, 0, 64, 100
1, 12129, Note_on_c, 0, 63, 100
1, 12167, Note_off_c, 0, 63, 100
1, 12167, Note_on_c, 0, 64, 100
1, 12205, Note_off_c, 0, 64, 100
1, 12205, Note_on_c, 0, 63, 100
1, 12243, Note_off_c, 0, 63, 100
1, 12243, Note_on_c, 0, 70, 100
1, 12281, Note_off_c, 0, 70, 100
1, 12281, Note_on_c, 0, 62, 100
1, 12319, Note_off_c, 0, 62, 100
1, 12319, Note_on_c, 0, 61, 100
1, 12357, Note_off_c, 0, 61, 100
1, 12357, Note_on_c, 0, 62, 100
1, 12395, Note_off_c, 0, 62, 100
1, 12395, Note_on_c, 0, 61, 100
1, 12433, Note_off_c, 0, 61, 100
1, 12433, Note_on_c, 0, 59, 100
1, 12471, Note_off_c, 0, 59, 100
1, 12471, Note_on_c, 0, 60, 100
1, 12567, Note_off_c, 0, 60, 100
1, 13111, Note_on_c, 0, 59, 100
1, 13239, Note_off_c, 0, 59, 100
1, 13239, Note_on_c, 0, 60, 100
1, 13303, Note_off_c, 0, 60, 100
1, 13303, Note_on_c, 0, 62, 100
1, 13367, Note_off_c, 0, 62, 100
1, 13367, Note_on_c, 0, 70, 100
1, 13431, Note_off_c, 0, 70, 100
1, 13431, Note_on_c, 0, 64, 100
1, 13623, Note_off_c, 0, 64, 100
1, 13623, Note_on_c, 0, 66, 100
1, 13719, Note_off_c, 0, 66, 100
1, 13719, Note_on_c, 0, 71, 100
1, 13815, Note_off_c, 0, 71, 100
1, 13815, Note_on_c, 0, 67, 100
1, 14007, Note_off_c, 0, 67, 100
1, 14007, Note_on_c, 0, 69, 100
1, 14199, Note_off_c, 0, 69, 100
1, 14199, Note_on_c, 0, 71, 100
1, 14455, Note_off_c, 0, 71, 100
1, 14455, Note_on_c, 0, 69, 100
1, 14647, Note_off_c, 0, 69, 100
1, 14647, Note_on_c, 0, 67, 100
1, 14839, Note_off_c, 0, 67, 100
1, 17367, Note_on_c, 0, 80, 100
1, 17415, Note_off_c, 0, 80, 100
1, 17415, Note_on_c, 0, 81, 100
1, 17511, Note_off_c, 0, 81, 100
1, 17511, Note_on_c, 0, 84, 100
1, 17607, Note_off_c, 0, 84, 100
1, 17607, Note_on_c, 0, 82, 100
1, 17703, Note_off_c, 0, 82, 100
1, 17703, Note_on_c, 0, 80, 100
1, 18471, Note_off_c, 0, 80, 100
1, 18471, Note_on_c, 0, 80, 100
1, 18807, Note_off_c, 0, 80, 100
1, 18807, Note_on_c, 0, 68, 100
1, 19287, Note_off_c, 0, 68, 100
1, 19287, Note_on_c, 0, 83, 100
1, 19383, Note_off_c, 0, 83, 100
1, 19383, Note_on_c, 0, 84, 100
1, 19421, Note_off_c, 0, 84, 100
1, 19421, Note_on_c, 0, 85, 100
1, 19459, Note_off_c, 0, 85, 100
1, 19459, Note_on_c, 0, 84, 100
1, 19535, Note_off_c, 0, 84, 100
1, 19535, Note_on_c, 0, 88, 100
1, 19573, Note_off_c, 0, 88, 100
1, 19573, Note_on_c, 0, 87, 100
1, 19621, Note_off_c, 0, 87, 100
1, 19621, Note_on_c, 0, 86, 100
1, 19669, Note_off_c, 0, 86, 100
1, 19669, Note_on_c, 0, 82, 100
1, 19765, Note_off_c, 0, 82, 100
1, 25045, Note_on_c, 0, 57, 100
1, 25141, Note_off_c, 0, 57, 100
1, 25141, Note_on_c, 0, 60, 100
1, 25237, Note_off_c, 0, 60, 100
1, 25237, Note_on_c, 0, 62, 100
1, 25333, Note_off_c, 0, 62, 100
1, 25333, Note_on_c, 0, 64, 100
1, 25381, Note_off_c, 0, 64, 100
1, 25381, Note_on_c, 0, 66, 100
1, 25477, Note_off_c, 0, 66, 100
1, 25477, Note_on_c, 0, 65, 100
1, 25621, Note_off_c, 0, 65, 100
1, 25621, Note_on_c, 0, 67, 100
1, 25765, Note_off_c, 0, 67, 100
1, 25765, Note_on_c, 0, 68, 100
1, 25861, Note_off_c, 0, 68, 100
1, 25861, Note_on_c, 0, 70, 100
1, 25909, Note_off_c, 0, 70, 100
1, 25909, Note_on_c, 0, 72, 100
1, 26005, Note_off_c, 0, 72, 100
1, 26005, Note_on_c, 0, 74, 100
1, 26101, Note_off_c, 0, 74, 100
1, 26101, Note_on_c, 0, 75, 100
1, 26197, Note_off_c, 0, 75, 100
1, 26197, Note_on_c, 0, 73, 100
1, 26773, Note_off_c, 0, 73, 100
1, 26773, Note_on_c, 0, 72, 100
1, 26869, Note_off_c, 0, 72, 100
1, 26869, Note_on_c, 0, 70, 100
1, 26933, Note_off_c, 0, 70, 100
1, 26933, Note_on_c, 0, 72, 100
1, 26997, Note_off_c, 0, 72, 100
1, 26997, Note_on_c, 0, 77, 100
1, 27061, Note_off_c, 0, 77, 100
1, 27061, Note_on_c, 0, 75, 100
1, 27157, Note_off_c, 0, 75, 100
1, 27157, Note_on_c, 0, 73, 100
1, 27253, Note_off_c, 0, 73, 100
1, 27253, Note_on_c, 0, 72, 100
1, 27349, Note_off_c, 0, 72, 100
1, 27349, Note_on_c, 0, 70, 100
1, 27445, Note_off_c, 0, 70, 100
1, 27445, Note_on_c, 0, 72, 100
1, 27541, Note_off_c, 0, 72, 100
1, 27541, Note_on_c, 0, 72, 100
1, 27781, Note_off_c, 0, 72, 100
1, 27781, Note_on_c, 0, 72, 100
1, 28117, Note_off_c, 0, 72, 100
1, 28117, Note_on_c, 0, 71, 100
1, 28165, Note_off_c, 0, 71, 100
1, 28165, Note_on_c, 0, 72, 100
1, 28277, Note_off_c, 0, 72, 100
1, 28277, Note_on_c, 0, 70, 100
1, 28341, Note_off_c, 0, 70, 100
1, 28341, Note_on_c, 0, 68, 100
1, 28405, Note_off_c, 0, 68, 100
1, 28405, Note_on_c, 0, 67, 100
1, 28501, Note_off_c, 0, 67, 100
1, 28501, Note_on_c, 0, 68, 100
1, 28597, Note_off_c, 0, 68, 100
1, 28597, Note_on_c, 0, 70, 100
1, 28789, Note_off_c, 0, 70, 100
1, 28789, Note_on_c, 0, 70, 100
1, 29077, Note_off_c, 0, 70, 100
1, 29077, Note_on_c, 0, 73, 100
1, 29125, Note_off_c, 0, 73, 100
1, 29125, Note_on_c, 0, 70, 100
1, 29269, Note_off_c, 0, 70, 100
1, 29269, Note_on_c, 0, 68, 100
1, 29317, Note_off_c, 0, 68, 100
1, 29317, Note_on_c, 0, 67, 100
1, 29429, Note_off_c, 0, 67, 100
1, 29429, Note_on_c, 0, 66, 100
1, 29493, Note_off_c, 0, 66, 100
1, 29493, Note_on_c, 0, 67, 100
1, 29653, Note_off_c, 0, 67, 100
1, 29653, Note_on_c, 0, 68, 100
1, 29845, Note_off_c, 0, 68, 100
1, 29845, Note_on_c, 0, 69, 100
1, 30005, Note_off_c, 0, 69, 100
1, 30005, Note_on_c, 0, 71, 100
1, 30197, Note_off_c, 0, 71, 100
1, 30197, Note_on_c, 0, 69, 100
1, 30261, Note_off_c, 0, 69, 100
1, 30261, Note_on_c, 0, 68, 100
1, 30325, Note_off_c, 0, 68, 100
1, 30325, Note_on_c, 0, 69, 100
1, 30421, Note_off_c, 0, 69, 100
1, 30421, Note_on_c, 0, 71, 100
1, 30517, Note_off_c, 0, 71, 100
1, 30517, Note_on_c, 0, 72, 100
1, 30581, Note_off_c, 0, 72, 100
1, 30581, Note_on_c, 0, 74, 100
1, 30645, Note_off_c, 0, 74, 100
1, 30645, Note_on_c, 0, 72, 100
1, 30709, Note_off_c, 0, 72, 100
1, 30709, Note_on_c, 0, 70, 100
1, 30773, Note_off_c, 0, 70, 100
1, 30773, Note_on_c, 0, 72, 100
1, 30837, Note_off_c, 0, 72, 100
1, 30837, Note_on_c, 0, 76, 100
1, 30901, Note_off_c, 0, 76, 100
1, 30901, Note_on_c, 0, 78, 100
1, 30997, Note_off_c, 0, 78, 100
1, 30997, Note_on_c, 0, 76, 100
1, 31045, Note_off_c, 0, 76, 100
1, 31045, Note_on_c, 0, 77, 100
1, 31093, Note_off_c, 0, 77, 100
1, 31093, Note_on_c, 0, 75, 100
1, 31189, Note_off_c, 0, 75, 100
1, 31189, Note_on_c, 0, 73, 100
1, 31381, Note_off_c, 0, 73, 100
1, 31381, Note_on_c, 0, 74, 100
1, 31477, Note_off_c, 0, 74, 100
1, 31477, Note_on_c, 0, 72, 100
1, 31573, Note_off_c, 0, 72, 100
1, 31573, Note_on_c, 0, 70, 100
1, 31909, Note_off_c, 0, 70, 100
1, 31909, Note_on_c, 0, 68, 100
1, 32005, Note_off_c, 0, 68, 100
1, 32005, Note_on_c, 0, 66, 100
1, 32101, Note_off_c, 0, 66, 100
1, 32101, Note_on_c, 0, 64, 100
1, 32149, Note_off_c, 0, 64, 100
1, 32149, Note_on_c, 0, 66, 100
1, 32197, Note_off_c, 0, 66, 100
1, 32197, Note_on_c, 0, 67, 100
1, 32437, Note_off_c, 0, 67, 100
1, 32437, Note_on_c, 0, 65, 100
1, 32533, Note_off_c, 0, 65, 100
1, 32533, Note_on_c, 0, 63, 100
1, 32773, Note_off_c, 0, 63, 100
1, 32773, Note_on_c, 0, 65, 100
1, 32885, Note_off_c, 0, 65, 100
1, 32885, Note_on_c, 0, 63, 100
1, 32949, Note_off_c, 0, 63, 100
1, 32949, Note_on_c, 0, 61, 100
1, 33237, Note_off_c, 0, 61, 100
1, 36901, Note_on_c, 0, 59, 100
1, 36925, Note_off_c, 0, 59, 100
1, 36925, Note_on_c, 0, 60, 100
1, 36949, Note_off_c, 0, 60, 100
1, 36949, Note_on_c, 0, 63, 100
1, 36973, Note_off_c, 0, 63, 100
1, 36973, Note_on_c, 0, 65, 100
1, 36997, Note_off_c, 0, 65, 100
1, 36997, Note_on_c, 0, 64, 100
1, 37021, Note_off_c, 0, 64, 100
1, 37021, Note_on_c, 0, 63, 100
1, 37045, Note_off_c, 0, 63, 100
1, 37045, Note_on_c, 0, 62, 100
1, 37069, Note_off_c, 0, 62, 100
1, 37069, Note_on_c, 0, 63, 100
1, 37117, Note_off_c, 0, 63, 100
1, 37117, Note_on_c, 0, 64, 100
1, 37165, Note_off_c, 0, 64, 100
1, 37165, Note_on_c, 0, 67, 100
1, 37189, Note_off_c, 0, 67, 100
1, 37189, Note_on_c, 0, 68, 100
1, 37213, Note_off_c, 0, 68, 100
1, 37213, Note_on_c, 0, 70, 100
1, 37237, Note_off_c, 0, 70, 100
1, 37237, Note_on_c, 0, 73, 100
1, 37256, Note_off_c, 0, 73, 100
1, 37256, Note_on_c, 0, 76, 100
1, 37275, Note_off_c, 0, 76, 100
1, 37275, Note_on_c, 0, 77, 100
1, 37294, Note_off_c, 0, 77, 100
1, 37294, Note_on_c, 0, 79, 100
1, 37313, Note_off_c, 0, 79, 100
1, 37313, Note_on_c, 0, 82, 100
1, 37332, Note_off_c, 0, 82, 100
1, 37332, Note_on_c, 0, 86, 100
1, 37351, Note_off_c, 0, 86, 100
1, 37351, Note_on_c, 0, 85, 100
1, 37370, Note_off_c, 0, 85, 100
1, 37370, Note_on_c, 0, 83, 100
1, 37389, Note_off_c, 0, 83, 100
1, 37389, Note_on_c, 0, 82, 100
1, 37427, Note_off_c, 0, 82, 100
1, 37427, Note_on_c, 0, 83, 100
1, 37523, Note_off_c, 0, 83, 100
1, 37523, Note_on_c, 0, 81, 100
1, 37571, Note_off_c, 0, 81, 100
1, 37571, Note_on_c, 0, 84, 100
1, 37619, Note_off_c, 0, 84, 100
1, 37619, Note_on_c, 0, 83, 100
1, 37667, Note_off_c, 0, 83, 100
1, 37667, Note_on_c, 0, 82, 100
1, 37715, Note_off_c, 0, 82, 100
1, 37715, Note_on_c, 0, 80, 100
1, 37763, Note_off_c, 0, 80, 100
1, 37763, Note_on_c, 0, 81, 100
1, 37859, Note_off_c, 0, 81, 100
1, 38675, Note_on_c, 0, 58, 100
1, 38771, Note_off_c, 0, 58, 100
1, 38771, Note_on_c, 0, 60, 100
1, 38867, Note_off_c, 0, 60, 100
1, 38867, Note_on_c, 0, 62, 100
1, 39107, Note_off_c, 0, 62, 100
1, 39107, Note_on_c, 0, 61, 100
1, 39203, Note_off_c, 0, 61, 100
1, 39203, Note_on_c, 0, 63, 100
1, 39251, Note_off_c, 0, 63, 100
1, 39251, Note_on_c, 0, 65, 100
1, 39411, Note_off_c, 0, 65, 100
1, 39411, Note_on_c, 0, 66, 100
1, 39475, Note_off_c, 0, 66, 100
1, 39475, Note_on_c, 0, 68, 100
1, 39539, Note_off_c, 0, 68, 100
1, 39539, Note_on_c, 0, 70, 100
1, 39635, Note_off_c, 0, 70, 100
1, 39635, Note_on_c, 0, 68, 100
1, 39683, Note_off_c, 0, 68, 100
1, 39683, Note_on_c, 0, 69, 100
1, 39731, Note_off_c, 0, 69, 100
1, 39731, Note_on_c, 0, 71, 100
1, 39795, Note_off_c, 0, 71, 100
1, 39795, Note_on_c, 0, 73, 100
1, 39859, Note_off_c, 0, 73, 100
1, 39859, Note_on_c, 0, 72, 100
1, 39923, Note_off_c, 0, 72, 100
1, 39923, Note_on_c, 0, 69, 100
1, 39987, Note_off_c, 0, 69, 100
1, 39987, Note_on_c, 0, 72, 100
1, 40051, Note_off_c, 0, 72, 100
1, 40051, Note_on_c, 0, 74, 100
1, 40115, Note_off_c, 0, 74, 100
1, 40115, Note_on_c, 0, 76, 100
1, 40163, Note_off_c, 0, 76, 100
1, 40163, Note_on_c, 0, 79, 100
1, 40211, Note_off_c, 0, 79, 100
1, 40211, Note_on_c, 0, 76, 100
1, 40307, Note_off_c, 0, 76, 100
1, 40307, Note_on_c, 0, 77, 100
1, 40355, Note_off_c, 0, 77, 100
1, 40355, Note_on_c, 0, 79, 100
1, 40403, Note_off_c, 0, 79, 100
1, 40403, Note_on_c, 0, 80, 100
1, 40499, Note_off_c, 0, 80, 100
1, 40499, Note_on_c, 0, 82, 100
1, 40595, Note_off_c, 0, 82, 100
1, 40595, Note_on_c, 0, 83, 100
1, 40643, Note_off_c, 0, 83, 100
1, 40643, Note_on_c, 0, 84, 100
1, 40691, Note_off_c, 0, 84, 100
1, 40691, Note_on_c, 0, 82, 100
1, 40755, Note_off_c, 0, 82, 100
1, 40755, Note_on_c, 0, 80, 100
1, 40819, Note_off_c, 0, 80, 100
1, 40819, Note_on_c, 0, 82, 100
1, 40883, Note_off_c, 0, 82, 100
1, 40883, Note_on_c, 0, 79, 100
1, 41267, Note_off_c, 0, 79, 100
1, 41267, Note_on_c, 0, 77, 100
1, 41363, Note_off_c, 0, 77, 100
1, 41363, Note_on_c, 0, 75, 100
1, 41459, Note_off_c, 0, 75, 100
1, 41459, Note_on_c, 0, 78, 100
1, 41523, Note_off_c, 0, 78, 100
1, 41523, Note_on_c, 0, 80, 100
1, 41587, Note_off_c, 0, 80, 100
1, 41587, Note_on_c, 0, 82, 100
1, 41689, Note_off_c, 0, 82, 100
1, 41689, Note_on_c, 0, 78, 100
1, 41727, Note_off_c, 0, 78, 100
1, 41727, Note_on_c, 0, 79, 100
1, 41765, Note_off_c, 0, 79, 100
1, 41765, Note_on_c, 0, 80, 100
1, 41803, Note_off_c, 0, 80, 100
1, 41803, Note_on_c, 0, 77, 100
1, 41841, Note_off_c, 0, 77, 100
1, 41841, Note_on_c, 0, 75, 100
1, 41937, Note_off_c, 0, 75, 100
1, 41937, Note_on_c, 0, 70, 100
1, 42033, Note_off_c, 0, 70, 100
1, 42033, Note_on_c, 0, 72, 100
1, 42097, Note_off_c, 0, 72, 100
1, 42097, Note_on_c, 0, 74, 100
1, 42161, Note_off_c, 0, 74, 100
1, 42161, Note_on_c, 0, 75, 100
1, 42225, Note_off_c, 0, 75, 100
1, 42225, Note_on_c, 0, 77, 100
1, 42321, Note_off_c, 0, 77, 100
1, 42321, Note_on_c, 0, 73, 100
1, 42513, Note_off_c, 0, 73, 100
1, 42513, Note_on_c, 0, 70, 100
1, 42561, Note_off_c, 0, 70, 100
1, 42561, Note_on_c, 0, 64, 100
1, 42609, Note_off_c, 0, 64, 100
1, 42609, Note_on_c, 0, 65, 100
1, 42705, Note_off_c, 0, 65, 100
1, 42705, Note_on_c, 0, 74, 100
1, 42849, Note_off_c, 0, 74, 100
1, 42849, Note_on_c, 0, 72, 100
1, 42945, Note_off_c, 0, 72, 100
1, 42945, Note_on_c, 0, 81, 100
1, 43057, Note_off_c, 0, 81, 100
1, 43057, Note_on_c, 0, 80, 100
1, 43185, Note_off_c, 0, 80, 100
1, 43185, Note_on_c, 0, 75, 100
1, 43281, Note_off_c, 0, 75, 100
1, 43281, Note_on_c, 0, 71, 100
1, 43329, Note_off_c, 0, 71, 100
1, 43329, Note_on_c, 0, 74, 100
1, 43377, Note_off_c, 0, 74, 100
1, 43377, Note_on_c, 0, 76, 100
1, 43441, Note_off_c, 0, 76, 100
1, 43441, Note_on_c, 0, 79, 100
1, 43505, Note_off_c, 0, 79, 100
1, 43505, Note_on_c, 0, 78, 100
1, 43569, Note_off_c, 0, 78, 100
1, 43569, Note_on_c, 0, 76, 100
1, 43633, Note_off_c, 0, 76, 100
1, 43633, Note_on_c, 0, 77, 100
1, 43697, Note_off_c, 0, 77, 100
1, 43697, Note_on_c, 0, 74, 100
1, 43761, Note_off_c, 0, 74, 100
1, 43761, Note_on_c, 0, 70, 100
1, 43825, Note_off_c, 0, 70, 100
1, 43825, Note_on_c, 0, 66, 100
1, 43889, Note_off_c, 0, 66, 100
1, 43889, Note_on_c, 0, 63, 100
1, 43953, Note_off_c, 0, 63, 100
1, 43953, Note_on_c, 0, 62, 100
1, 44017, Note_off_c, 0, 62, 100
1, 44017, Note_on_c, 0, 61, 100
1, 44081, Note_off_c, 0, 61, 100
1, 44081, Note_on_c, 0, 64, 100
1, 44145, Note_off_c, 0, 64, 100
1, 44145, Note_on_c, 0, 65, 100
1, 44289, Note_off_c, 0, 65, 100
1, 44289, Note_on_c, 0, 64, 100
1, 44337, Note_off_c, 0, 64, 100
1, 44337, Note_on_c, 0, 65, 100
1, 44375, Note_off_c, 0, 65, 100
1, 44375, Note_on_c, 0, 64, 100
1, 44413, Note_off_c, 0, 64, 100
1, 44413, Note_on_c, 0, 65, 100
1, 44489, Note_off_c, 0, 65, 100
1, 44489, Note_on_c, 0, 67, 100
1, 44527, Note_off_c, 0, 67, 100
1, 44527, Note_on_c, 0, 66, 100
1, 44559, Note_off_c, 0, 66, 100
1, 44559, Note_on_c, 0, 66, 100
1, 44623, Note_off_c, 0, 66, 100
1, 44623, Note_on_c, 0, 67, 100
1, 44655, Note_off_c, 0, 67, 100
1, 44655, Note_on_c, 0, 67, 100
1, 44687, Note_off_c, 0, 67, 100
1, 44687, Note_on_c, 0, 69, 100
1, 44751, Note_off_c, 0, 69, 100
1, 44751, Note_on_c, 0, 69, 100
1, 44783, Note_off_c, 0, 69, 100
1, 44783, Note_on_c, 0, 71, 100
1, 44815, Note_off_c, 0, 71, 100
1, 44815, Note_on_c, 0, 70, 100
1, 44847, Note_off_c, 0, 70, 100
1, 44847, Note_on_c, 0, 70, 100
1, 44879, Note_off_c, 0, 70, 100
1, 44879, Note_on_c, 0, 69, 100
1, 44911, Note_off_c, 0, 69, 100
1, 44911, Note_on_c, 0, 68, 100
1, 44949, Note_off_c, 0, 68, 100
1, 44949, Note_on_c, 0, 69, 100
1, 44987, Note_off_c, 0, 69, 100
1, 44987, Note_on_c, 0, 68, 100
1, 45025, Note_off_c, 0, 68, 100
1, 45025, Note_on_c, 0, 69, 100
1, 45063, Note_off_c, 0, 69, 100
1, 45063, Note_on_c, 0, 67, 100
1, 45101, Note_off_c, 0, 67, 100
1, 45101, Note_on_c, 0, 66, 100
1, 45197, Note_off_c, 0, 66, 100
1, 47645, Note_on_c, 0, 62, 100
1, 47693, Note_off_c, 0, 62, 100
1, 47693, Note_on_c, 0, 64, 100
1, 47741, Note_off_c, 0, 64, 100
1, 47741, Note_on_c, 0, 70, 100
1, 47789, Note_off_c, 0, 70, 100
1, 47789, Note_on_c, 0, 64, 100
1, 47837, Note_off_c, 0, 64, 100
1, 47837, Note_on_c, 0, 66, 100
1, 47885, Note_off_c, 0, 66, 100
1, 47885, Note_on_c, 0, 69, 100
1, 47933, Note_off_c, 0, 69, 100
1, 47933, Note_on_c, 0, 76, 100
1, 47981, Note_off_c, 0, 76, 100
1, 47981, Note_on_c, 0, 70, 100
1, 48077, Note_off_c, 0, 70, 100
1, 48077, Note_on_c, 0, 69, 100
1, 48173, Note_off_c, 0, 69, 100
1, 48413, Note_on_c, 0, 59, 100
1, 48461, Note_off_c, 0, 59, 100
1, 48461, Note_on_c, 0, 64, 100
1, 48509, Note_off_c, 0, 64, 100
1, 48509, Note_on_c, 0, 70, 100
1, 48557, Note_off_c, 0, 70, 100
1, 48557, Note_on_c, 0, 76, 100
1, 48595, Note_off_c, 0, 76, 100
1, 48595, Note_on_c, 0, 66, 100
1, 48633, Note_off_c, 0, 66, 100
1, 48633, Note_on_c, 0, 70, 100
1, 48671, Note_off_c, 0, 70, 100
1, 48671, Note_on_c, 0, 76, 100
1, 48709, Note_off_c, 0, 76, 100
1, 48709, Note_on_c, 0, 70, 100
1, 48901, Note_off_c, 0, 70, 100
1, 49179, Note_on_c, 0, 59, 100
1, 49227, Note_off_c, 0, 59, 100
1, 49227, Note_on_c, 0, 64, 100
1, 49275, Note_off_c, 0, 64, 100
1, 49275, Note_on_c, 0, 71, 100
1, 49323, Note_off_c, 0, 71, 100
1, 49323, Note_on_c, 0, 70, 100
1, 49419, Note_off_c, 0, 70, 100
1, 49419, Note_on_c, 0, 63, 100
1, 49515, Note_off_c, 0, 63, 100
1, 49515, Note_on_c, 0, 68, 100
1, 49642, Note_off_c, 0, 68, 100
1, 49642, Note_on_c, 0, 75, 100
1, 49706, Note_off_c, 0, 75, 100
1, 49706, Note_on_c, 0, 70, 100
1, 49898, Note_off_c, 0, 70, 100
1, 51338, Note_on_c, 0, 79, 100
1, 51386, Note_off_c, 0, 79, 100
1, 51386, Note_on_c, 0, 77, 100
1, 51434, Note_off_c, 0, 77, 100
1, 51434, Note_on_c, 0, 78, 100
1, 51530, Note_off_c, 0, 78, 100
1, 51530, Note_on_c, 0, 79, 100
1, 51626, Note_off_c, 0, 79, 100
1, 51626, Note_on_c, 0, 84, 100
1, 51674, Note_off_c, 0, 84, 100
1, 51674, Note_on_c, 0, 82, 100
1, 51770, Note_off_c, 0, 82, 100
1, 51770, Note_on_c, 0, 75, 100
1, 52106, Note_off_c, 0, 75, 100
1, 52106, Note_on_c, 0, 72, 100
1, 52202, Note_off_c, 0, 72, 100
1, 52202, Note_on_c, 0, 74, 100
1, 52250, Note_off_c, 0, 74, 100
1, 52250, Note_on_c, 0, 75, 100
1, 52298, Note_off_c, 0, 75, 100
1, 52298, Note_on_c, 0, 76, 100
1, 52346, Note_off_c, 0, 76, 100
1, 52346, Note_on_c, 0, 77, 100
1, 52442, Note_off_c, 0, 77, 100
1, 52442, Note_on_c, 0, 78, 100
1, 52490, Note_off_c, 0, 78, 100
1, 52490, Note_on_c, 0, 77, 100
1, 52538, Note_off_c, 0, 77, 100
1, 52538, Note_on_c, 0, 76, 100
1, 52634, Note_off_c, 0, 76, 100
1, 52634, Note_on_c, 0, 75, 100
1, 52682, Note_off_c, 0, 75, 100
1, 52682, Note_on_c, 0, 74, 100
1, 52730, Note_off_c, 0, 74, 100
1, 52730, Note_on_c, 0, 73, 100
1, 52842, Note_off_c, 0, 73, 100
1, 52842, Note_on_c, 0, 72, 100
1, 52906, Note_off_c, 0, 72, 100
1, 52906, Note_on_c, 0, 70, 100
1, 52970, Note_off_c, 0, 70, 100
1, 52970, Note_on_c, 0, 69, 100
1, 53034, Note_off_c, 0, 69, 100
1, 53034, Note_on_c, 0, 70, 100
1, 53098, Note_off_c, 0, 70, 100
1, 53098, Note_on_c, 0, 71, 100
1, 53162, Note_off_c, 0, 71, 100
1, 53162, Note_on_c, 0, 72, 100
1, 53258, Note_off_c, 0, 72, 100
1, 53258, Note_on_c, 0, 73, 100
1, 53306, Note_off_c, 0, 73, 100
1, 53306, Note_on_c, 0, 74, 100
1, 53418, Note_off_c, 0, 74, 100
1, 53418, Note_on_c, 0, 73, 100
1, 53450, Note_off_c, 0, 73, 100
1, 53450, Note_on_c, 0, 74, 100
1, 53482, Note_off_c, 0, 74, 100
1, 53482, Note_on_c, 0, 73, 100
1, 53514, Note_off_c, 0, 73, 100
1, 53514, Note_on_c, 0, 72, 100
1, 53546, Note_off_c, 0, 72, 100
1, 53546, Note_on_c, 0, 71, 100
1, 53594, Note_off_c, 0, 71, 100
1, 53594, Note_on_c, 0, 70, 100
1, 53642, Note_off_c, 0, 70, 100
1, 53642, Note_on_c, 0, 67, 100
1, 53690, Note_off_c, 0, 67, 100
1, 53690, Note_on_c, 0, 66, 100
1, 53738, Note_off_c, 0, 66, 100
1, 53738, Note_on_c, 0, 67, 100
1, 53762, Note_off_c, 0, 67, 100
1, 53762, Note_on_c, 0, 68, 100
1, 53810, Note_off_c, 0, 68, 100
1, 53810, Note_on_c, 0, 67, 100
1, 53906, Note_off_c, 0, 67, 100
1, 53906, Note_on_c, 0, 66, 100
1, 53930, Note_off_c, 0, 66, 100
1, 53930, Note_on_c, 0, 65, 100
1, 53968, Note_off_c, 0, 65, 100
1, 53968, Note_on_c, 0, 64, 100
1, 54006, Note_off_c, 0, 64, 100
1, 54006, Note_on_c, 0, 63, 100
1, 54044, Note_off_c, 0, 63, 100
1, 54044, Note_on_c, 0, 64, 100
1, 54082, Note_off_c, 0, 64, 100
1, 54082, Note_on_c, 0, 65, 100
1, 54120, Note_off_c, 0, 65, 100
1, 54120, Note_on_c, 0, 66, 100
1, 54158, Note_off_c, 0, 66, 100
1, 54158, Note_on_c, 0, 65, 100
1, 54196, Note_off_c, 0, 65, 100
1, 54196, Note_on_c, 0, 66, 100
1, 54234, Note_off_c, 0, 66, 100
1, 54234, Note_on_c, 0, 65, 100
1, 54272, Note_off_c, 0, 65, 100
1, 54272, Note_on_c, 0, 64, 100
1, 54310, Note_off_c, 0, 64, 100
1, 54310, Note_on_c, 0, 63, 100
1, 54358, Note_off_c, 0, 63, 100
1, 54358, Note_on_c, 0, 61, 100
1, 54406, Note_off_c, 0, 61, 100
1, 54406, Note_on_c, 0, 62, 100
1, 54454, Note_off_c, 0, 62, 100
1, 54454, Note_on_c, 0, 64, 100
1, 54550, Note_off_c, 0, 64, 100
1, 54550, Note_on_c, 0, 62, 100
1, 54598, Note_off_c, 0, 62, 100
1, 54598, Note_on_c, 0, 65, 100
1, 54694, Note_off_c, 0, 65, 100
1, 54694, Note_on_c, 0, 64, 100
1, 54732, Note_off_c, 0, 64, 100
1, 54732, Note_on_c, 0, 67, 100
1, 54808, Note_off_c, 0, 67, 100
1, 54808, Note_on_c, 0, 65, 100
1, 54846, Note_off_c, 0, 65, 100
1, 54846, Note_on_c, 0, 66, 100
1, 54922, Note_off_c, 0, 66, 100
1, 54922, Note_on_c, 0, 69, 100
1, 54960, Note_off_c, 0, 69, 100
1, 54960, Note_on_c, 0, 66, 100
1, 54998, Note_off_c, 0, 66, 100
1, 54998, Note_on_c, 0, 67, 100
1, 55036, Note_off_c, 0, 67, 100
1, 55036, Note_on_c, 0, 70, 100
1, 55122, Note_off_c, 0, 70, 100
1, 55122, Note_on_c, 0, 68, 100
1, 55170, Note_off_c, 0, 68, 100
1, 55170, Note_on_c, 0, 69, 100
1, 55218, Note_off_c, 0, 69, 100
1, 55218, Note_on_c, 0, 72, 100
1, 55266, Note_off_c, 0, 72, 100
1, 55266, Note_on_c, 0, 77, 100
1, 55314, Note_off_c, 0, 77, 100
1, 55314, Note_on_c, 0, 71, 100
1, 55362, Note_off_c, 0, 71, 100
1, 55362, Note_on_c, 0, 72, 100
1, 55410, Note_off_c, 0, 72, 100
1, 55410, Note_on_c, 0, 74, 100
1, 55458, Note_off_c, 0, 74, 100
1, 55458, Note_on_c, 0, 75, 100
1, 55506, Note_off_c, 0, 75, 100
1, 55506, Note_on_c, 0, 72, 100
1, 55554, Note_off_c, 0, 72, 100
1, 55554, Note_on_c, 0, 74, 100
1, 55602, Note_off_c, 0, 74, 100
1, 55602, Note_on_c, 0, 77, 100
1, 55650, Note_off_c, 0, 77, 100
1, 55650, Note_on_c, 0, 76, 100
1, 55714, Note_off_c, 0, 76, 100
1, 55714, Note_on_c, 0, 74, 100
1, 55778, Note_off_c, 0, 74, 100
1, 55778, Note_on_c, 0, 75, 100
1, 55842, Note_off_c, 0, 75, 100
1, 55842, Note_on_c, 0, 74, 100
1, 55918, Note_off_c, 0, 74, 100
1, 55918, Note_on_c, 0, 73, 100
1, 55956, Note_off_c, 0, 73, 100
1, 55956, Note_on_c, 0, 71, 100
1, 55994, Note_off_c, 0, 71, 100
1, 55994, Note_on_c, 0, 75, 100
1, 56070, Note_off_c, 0, 75, 100
1, 56070, Note_on_c, 0, 77, 100
1, 56108, Note_off_c, 0, 77, 100
1, 56108, Note_on_c, 0, 79, 100
1, 56184, Note_off_c, 0, 79, 100
1, 56184, Note_on_c, 0, 75, 100
1, 56222, Note_off_c, 0, 75, 100
1, 56222, Note_on_c, 0, 77, 100
1, 56286, Note_off_c, 0, 77, 100
1, 56286, Note_on_c, 0, 78, 100
1, 56350, Note_off_c, 0, 78, 100
1, 56350, Note_on_c, 0, 79, 100
1, 56462, Note_off_c, 0, 79, 100
1, 56462, Note_on_c, 0, 82, 100
1, 56510, Note_off_c, 0, 82, 100
1, 56510, Note_on_c, 0, 78, 100
1, 56558, Note_off_c, 0, 78, 100
1, 56558, Note_on_c, 0, 79, 100
1, 56654, Note_off_c, 0, 79, 100
1, 56654, Note_on_c, 0, 80, 100
1, 56702, Note_off_c, 0, 80, 100
1, 56702, Note_on_c, 0, 82, 100
1, 56750, Note_off_c, 0, 82, 100
1, 56750, Note_on_c, 0, 84, 100
1, 56846, Note_off_c, 0, 84, 100
1, 56846, Note_on_c, 0, 82, 100
1, 56894, Note_off_c, 0, 82, 100
1, 56894, Note_on_c, 0, 84, 100
1, 56942, Note_off_c, 0, 84, 100
1, 56942, Note_on_c, 0, 85, 100
1, 56990, Note_off_c, 0, 85, 100
1, 56990, Note_on_c, 0, 84, 100
1, 57038, Note_off_c, 0, 84, 100
1, 57038, Note_on_c, 0, 82, 100
1, 57134, Note_off_c, 0, 82, 100
1, 57134, Note_on_c, 0, 84, 100
1, 57246, Note_off_c, 0, 84, 100
1, 57246, Note_on_c, 0, 82, 100
1, 57310, Note_off_c, 0, 82, 100
1, 57310, Note_on_c, 0, 84, 100
1, 57438, Note_off_c, 0, 84, 100
1, 57438, Note_on_c, 0, 85, 100
1, 57502, Note_off_c, 0, 85, 100
1, 57502, Note_on_c, 0, 84, 100
1, 57566, Note_off_c, 0, 84, 100
1, 57566, Note_on_c, 0, 82, 100
1, 57614, Note_off_c, 0, 82, 100
1, 57614, Note_on_c, 0, 84, 100
1, 57710, Note_off_c, 0, 84, 100
1, 57710, Note_on_c, 0, 82, 100
1, 57758, Note_off_c, 0, 82, 100
1, 57758, Note_on_c, 0, 84, 100
1, 57854, Note_off_c, 0, 84, 100
1, 57854, Note_on_c, 0, 82, 100
1, 57902, Note_off_c, 0, 82, 100
1, 57902, Note_on_c, 0, 84, 100
1, 57998, Note_off_c, 0, 84, 100
1, 57998, Note_on_c, 0, 84, 100
1, 58046, Note_off_c, 0, 84, 100
1, 58046, Note_on_c, 0, 85, 100
1, 58094, Note_off_c, 0, 85, 100
1, 58094, Note_on_c, 0, 84, 100
1, 58190, Note_off_c, 0, 84, 100
1, 58190, Note_on_c, 0, 82, 100
1, 58286, Note_off_c, 0, 82, 100
1, 58286, Note_on_c, 0, 84, 100
1, 58334, Note_off_c, 0, 84, 100
1, 58334, Note_on_c, 0, 80, 100
1, 58430, Note_off_c, 0, 80, 100
1, 58430, Note_on_c, 0, 84, 100
1, 58478, Note_off_c, 0, 84, 100
1, 58478, Note_on_c, 0, 81, 100
1, 58526, Note_off_c, 0, 81, 100
1, 58526, Note_on_c, 0, 82, 100
1, 59166, Note_off_c, 0, 82, 100
1, 59166, Note_on_c, 0, 77, 100
1, 59230, Note_off_c, 0, 77, 100
1, 59230, Note_on_c, 0, 78, 100
1, 59294, Note_off_c, 0, 78, 100
1, 59294, Note_on_c, 0, 73, 100
1, 59342, Note_off_c, 0, 73, 100
1, 59342, Note_on_c, 0, 74, 100
1, 59390, Note_off_c, 0, 74, 100
1, 59390, Note_on_c, 0, 75, 100
1, 59438, Note_off_c, 0, 75, 100
1, 59438, Note_on_c, 0, 70, 100
1, 59486, Note_off_c, 0, 70, 100
1, 59486, Note_on_c, 0, 65, 100
1, 59524, Note_off_c, 0, 65, 100
1, 59524, Note_on_c, 0, 62, 100
1, 59562, Note_off_c, 0, 62, 100
1, 59562, Note_on_c, 0, 65, 100
1, 59600, Note_off_c, 0, 65, 100
1, 59600, Note_on_c, 0, 70, 100
1, 59638, Note_off_c, 0, 70, 100
1, 59638, Note_on_c, 0, 65, 100
1, 59676, Note_off_c, 0, 65, 100
1, 59676, Note_on_c, 0, 66, 100
1, 59772, Note_off_c, 0, 66, 100
1, 59772, Note_on_c, 0, 70, 100
1, 59804, Note_off_c, 0, 70, 100
1, 59804, Note_on_c, 0, 75, 100
1, 59836, Note_off_c, 0, 75, 100
1, 59836, Note_on_c, 0, 76, 100
1, 60132, Note_off_c, 0, 76, 100
1, 60132, Note_on_c, 0, 74, 100
1, 60180, Note_off_c, 0, 74, 100
1, 60180, Note_on_c, 0, 71, 100
1, 60204, Note_off_c, 0, 71, 100
1, 60204, Note_on_c, 0, 66, 100
1, 60228, Note_off_c, 0, 66, 100
1, 60228, Note_on_c, 0, 62, 100
1, 60252, Note_off_c, 0, 62, 100
1, 60252, Note_on_c, 0, 64, 100
1, 60444, Note_off_c, 0, 64, 100
1, 62652, Note_on_c, 0, 64, 100
1, 62748, Note_off_c, 0, 64, 100
1, 62748, Note_on_c, 0, 69, 100
1, 62796, Note_off_c, 0, 69, 100
1, 62796, Note_on_c, 0, 69, 100
1, 62844, Note_off_c, 0, 69, 100
1, 62844, Note_on_c, 0, 71, 100
1, 62940, Note_off_c, 0, 71, 100
1, 63420, Note_on_c, 0, 63, 100
1, 63516, Note_off_c, 0, 63, 100
1, 63516, Note_on_c, 0, 68, 100
1, 63564, Note_off_c, 0, 68, 100
1, 63564, Note_on_c, 0, 68, 100
1, 63612, Note_off_c, 0, 68, 100
1, 63612, Note_on_c, 0, 70, 100
1, 63708, Note_off_c, 0, 70, 100
1, 64188, Note_on_c, 0, 69, 100
1, 64236, Note_off_c, 0, 69, 100
1, 64236, Note_on_c, 0, 69, 100
1, 64332, Note_off_c, 0, 69, 100
1, 64332, Note_on_c, 0, 74, 100
1, 64428, Note_off_c, 0, 74, 100
1, 64428, Note_on_c, 0, 74, 100
1, 64476, Note_off_c, 0, 74, 100
1, 64476, Note_on_c, 0, 76, 100
1, 64572, Note_off_c, 0, 76, 100
1, 64956, Note_on_c, 0, 72, 100
1, 65004, Note_off_c, 0, 72, 100
1, 65004, Note_on_c, 0, 72, 100
1, 65100, Note_off_c, 0, 72, 100
1, 65100, Note_on_c, 0, 77, 100
1, 65196, Note_off_c, 0, 77, 100
1, 65196, Note_on_c, 0, 77, 100
1, 65244, Note_off_c, 0, 77, 100
1, 65244, Note_on_c, 0, 79, 100
1, 65436, Note_off_c, 0, 79, 100
1, 65772, Note_on_c, 0, 80, 100
1, 65916, Note_off_c, 0, 80, 100
1, 65916, Note_on_c, 0, 80, 100
1, 65964, Note_off_c, 0, 80, 100
1, 65964, Note_on_c, 0, 78, 100
1, 66204, Note_off_c, 0, 78, 100
1, 66204, Note_on_c, 0, 76, 100
1, 66300, Note_off_c, 0, 76, 100
1, 66300, Note_on_c, 0, 76, 100
1, 66348, Note_off_c, 0, 76, 100
1, 66348, Note_on_c, 0, 72, 100
1, 66652, Note_off_c, 0, 72, 100
1, 66652, Note_on_c, 0, 74, 100
1, 66716, Note_off_c, 0, 74, 100
1, 66716, Note_on_c, 0, 75, 100
1, 66780, Note_off_c, 0, 75, 100
1, 66780, Note_on_c, 0, 73, 100
1, 66812, Note_off_c, 0, 73, 100
1, 66812, Note_on_c, 0, 74, 100
1, 66844, Note_off_c, 0, 74, 100
1, 66844, Note_on_c, 0, 70, 100
1, 66876, Note_off_c, 0, 70, 100
1, 66876, Note_on_c, 0, 66, 100
1, 66940, Note_off_c, 0, 66, 100
1, 66940, Note_on_c, 0, 62, 100
1, 66972, Note_off_c, 0, 62, 100
1, 66972, Note_on_c, 0, 69, 100
1, 67020, Note_off_c, 0, 69, 100
1, 67020, Note_on_c, 0, 64, 100
1, 67068, Note_off_c, 0, 64, 100
1, 67068, Note_on_c, 0, 63, 100
1, 67116, Note_off_c, 0, 63, 100
1, 67116, Note_on_c, 0, 65, 100
1, 67308, Note_off_c, 0, 65, 100
1, 67816, Note_on_c, 0, 58, 100
1, 67854, Note_off_c, 0, 58, 100
1, 67854, Note_on_c, 0, 62, 100
1, 67892, Note_off_c, 0, 62, 100
1, 67892, Note_on_c, 0, 66, 100
1, 67962, Note_off_c, 0, 66, 100
1, 67962, Note_on_c, 0, 65, 100
1, 67994, Note_off_c, 0, 65, 100
1, 67994, Note_on_c, 0, 64, 100
1, 68026, Note_off_c, 0, 64, 100
1, 68026, Note_on_c, 0, 63, 100
1, 68058, Note_off_c, 0, 63, 100
1, 68058, Note_on_c, 0, 67, 100
1, 68090, Note_off_c, 0, 67, 100
1, 68090, Note_on_c, 0, 65, 100
1, 68122, Note_off_c, 0, 65, 100
1, 68122, Note_on_c, 0, 63, 100
1, 68154, Note_off_c, 0, 63, 100
1, 68154, Note_on_c, 0, 65, 100
1, 68186, Note_off_c, 0, 65, 100
1, 68186, Note_on_c, 0, 68, 100
1, 68218, Note_off_c, 0, 68, 100
1, 68218, Note_on_c, 0, 67, 100
1, 68250, Note_off_c, 0, 67, 100
1, 68250, Note_on_c, 0, 70, 100
1, 68282, Note_off_c, 0, 70, 100
1, 68282, Note_on_c, 0, 73, 100
1, 68314, Note_off_c, 0, 73, 100
1, 68314, Note_on_c, 0, 74, 100
1, 68346, Note_off_c, 0, 74, 100
1, 68346, Note_on_c, 0, 76, 100
1, 68378, Note_off_c, 0, 76, 100
1, 68378, Note_on_c, 0, 77, 100
1, 68442, Note_off_c, 0, 77, 100
1, 68442, Note_on_c, 0, 74, 100
1, 68474, Note_off_c, 0, 74, 100
1, 68474, Note_on_c, 0, 75, 100
1, 68506, Note_off_c, 0, 75, 100
1, 68506, Note_on_c, 0, 77, 100
1, 68554, Note_off_c, 0, 77, 100
1, 68554, Note_on_c, 0, 78, 100
1, 68602, Note_off_c, 0, 78, 100
1, 68602, Note_on_c, 0, 80, 100
1, 68650, Note_off_c, 0, 80, 100
1, 68650, Note_on_c, 0, 82, 100
1, 68698, Note_off_c, 0, 82, 100
1, 68698, Note_on_c, 0, 84, 100
1, 68762, Note_off_c, 0, 84, 100
1, 68762, Note_on_c, 0, 83, 100
1, 68826, Note_off_c, 0, 83, 100
1, 68826, Note_on_c, 0, 82, 100
1, 68890, Note_off_c, 0, 82, 100
1, 68890, Note_on_c, 0, 81, 100
1, 68938, Note_off_c, 0, 81, 100
1, 68938, Note_on_c, 0, 78, 100
1, 68986, Note_off_c, 0, 78, 100
1, 68986, Note_on_c, 0, 74, 100
1, 69034, Note_off_c, 0, 74, 100
1, 69034, Note_on_c, 0, 76, 100
1, 69082, Note_off_c, 0, 76, 100
1, 69082, Note_on_c, 0, 81, 100
1, 69178, Note_off_c, 0, 81, 100
1, 69178, Note_on_c, 0, 76, 100
1, 69226, Note_off_c, 0, 76, 100
1, 69226, Note_on_c, 0, 81, 100
1, 69274, Note_off_c, 0, 81, 100
1, 69274, Note_on_c, 0, 80, 100
1, 69322, Note_off_c, 0, 80, 100
1, 69322, Note_on_c, 0, 79, 100
1, 69370, Note_off_c, 0, 79, 100
1, 69370, Note_on_c, 0, 78, 100
1, 69418, Note_off_c, 0, 78, 100
1, 69418, Note_on_c, 0, 73, 100
1, 69466, Note_off_c, 0, 73, 100
1, 69466, Note_on_c, 0, 76, 100
1, 69514, Note_off_c, 0, 76, 100
1, 69514, Note_on_c, 0, 77, 100
1, 69562, Note_off_c, 0, 77, 100
1, 69562, Note_on_c, 0, 79, 100
1, 69610, Note_off_c, 0, 79, 100
1, 69610, Note_on_c, 0, 76, 100
1, 69658, Note_off_c, 0, 76, 100
1, 69658, Note_on_c, 0, 78, 100
1, 69706, Note_off_c, 0, 78, 100
1, 69706, Note_on_c, 0, 74, 100
1, 69754, Note_off_c, 0, 74, 100
1, 69754, Note_on_c, 0, 70, 100
1, 69850, Note_off_c, 0, 70, 100
1, 69850, Note_on_c, 0, 75, 100
1, 69898, Note_off_c, 0, 75, 100
1, 69898, Note_on_c, 0, 70, 100
1, 69946, Note_off_c, 0, 70, 100
1, 69946, Note_on_c, 0, 66, 100
1, 69994, Note_off_c, 0, 66, 100
1, 69994, Note_on_c, 0, 60, 100
1, 70042, Note_off_c, 0, 60, 100
1, 70042, Note_on_c, 0, 70, 100
1, 70090, Note_off_c, 0, 70, 100
1, 70090, Note_on_c, 0, 77, 100
1, 70186, Note_off_c, 0, 77, 100
1, 70186, Note_on_c, 0, 78, 100
1, 70378, Note_off_c, 0, 78, 100
1, 70378, Note_on_c, 0, 82, 100
1, 70474, Note_off_c, 0, 82, 100
1, 70474, Note_on_c, 0, 78, 100
1, 70522, Note_off_c, 0, 78, 100
1, 70522, Note_on_c, 0, 82, 100
1, 70618, Note_off_c, 0, 82, 100
1, 70618, Note_on_c, 0, 83, 100
1, 70656, Note_off_c, 0, 83, 100
1, 70656, Note_on_c, 0, 82, 100
1, 70694, Note_off_c, 0, 82, 100
1, 70694, Note_on_c, 0, 83, 100
1, 70770, Note_off_c, 0, 83, 100
1, 70770, Note_on_c, 0, 79, 100
1, 70808, Note_off_c, 0, 79, 100
1, 70808, Note_on_c, 0, 77, 100
1, 70840, Note_off_c, 0, 77, 100
1, 70840, Note_on_c, 0, 85, 100
1, 70872, Note_off_c, 0, 85, 100
1, 70872, Note_on_c, 0, 84, 100
1, 70904, Note_off_c, 0, 84, 100
1, 70904, Note_on_c, 0, 85, 100
1, 70936, Note_off_c, 0, 85, 100
1, 70936, Note_on_c, 0, 82, 100
1, 70968, Note_off_c, 0, 82, 100
1, 70968, Note_on_c, 0, 84, 100
1, 71000, Note_off_c, 0, 84, 100
1, 71000, Note_on_c, 0, 86, 100
1, 71096, Note_off_c, 0, 86, 100
1, 71832, Note_on_c, 0, 81, 100
1, 71864, Note_off_c, 0, 81, 100
1, 71864, Note_on_c, 0, 82, 100
1, 71896, Note_off_c, 0, 82, 100
1, 71896, Note_on_c, 0, 84, 100
1, 71928, Note_off_c, 0, 84, 100
1, 71928, Note_on_c, 0, 86, 100
1, 71960, Note_off_c, 0, 86, 100
1, 71960, Note_on_c, 0, 85, 100
1, 71984, Note_off_c, 0, 85, 100
1, 71984, Note_on_c, 0, 84, 100
1, 72008, Note_off_c, 0, 84, 100
1, 72008, Note_on_c, 0, 82, 100
1, 72056, Note_off_c, 0, 82, 100
1, 72056, Note_on_c, 0, 83, 100
1, 72440, Note_off_c, 0, 83, 100
1, 72440, Note_on_c, 0, 84, 100
1, 72488, Note_off_c, 0, 84, 100
1, 72488, Note_on_c, 0, 83, 100
1, 72536, Note_off_c, 0, 83, 100
1, 72536, Note_on_c, 0, 82, 100
1, 72600, Note_off_c, 0, 82, 100
1, 72600, Note_on_c, 0, 85, 100
1, 72664, Note_off_c, 0, 85, 100
1, 72664, Note_on_c, 0, 82, 100
1, 72728, Note_off_c, 0, 82, 100
1, 72728, Note_on_c, 0, 83, 100
1, 72747, Note_off_c, 0, 83, 100
1, 72747, Note_on_c, 0, 84, 100
1, 72785, Note_off_c, 0, 84, 100
1, 72785, Note_on_c, 0, 85, 100
1, 72842, Note_off_c, 0, 85, 100
1, 72842, Note_on_c, 0, 83, 100
1, 72899, Note_off_c, 0, 83, 100
1, 72899, Note_on_c, 0, 86, 100
1, 72918, Note_off_c, 0, 86, 100
1, 72918, Note_on_c, 0, 85, 100
1, 73062, Note_off_c, 0, 85, 100
1, 73062, Note_on_c, 0, 82, 100
1, 73142, Note_off_c, 0, 82, 100
1, 73142, Note_on_c, 0, 83, 100
1, 73206, Note_off_c, 0, 83, 100
1, 73206, Note_on_c, 0, 84, 100
1, 73238, Note_off_c, 0, 84, 100
1, 73238, Note_on_c, 0, 83, 100
1, 73270, Note_off_c, 0, 83, 100
1, 73270, Note_on_c, 0, 85, 100
1, 73344, Note_off_c, 0, 85, 100
1, 73344, Note_on_c, 0, 83, 100
1, 73386, Note_off_c, 0, 83, 100
1, 73386, Note_on_c, 0, 79, 100
1, 73428, Note_off_c, 0, 79, 100
1, 73428, Note_on_c, 0, 80, 100
1, 73449, Note_off_c, 0, 80, 100
1, 73449, Note_on_c, 0, 81, 100
1, 73470, Note_off_c, 0, 81, 100
1, 73470, Note_on_c, 0, 83, 100
1, 73491, Note_off_c, 0, 83, 100
1, 73491, Note_on_c, 0, 85, 100
1, 73555, Note_off_c, 0, 85, 100
1, 73555, Note_on_c, 0, 86, 100
1, 73587, Note_off_c, 0, 86, 100
1, 73587, Note_on_c, 0, 85, 100
1, 73619, Note_off_c, 0, 85, 100
1, 73619, Note_on_c, 0, 83, 100
1, 73651, Note_off_c, 0, 83, 100
1, 73651, Note_on_c, 0, 84, 100
1, 73683, Note_off_c, 0, 84, 100
1, 73683, Note_on_c, 0, 83, 100
1, 73737, Note_off_c, 0, 83, 100
1, 73737, Note_on_c, 0, 85, 100
1, 73764, Note_off_c, 0, 85, 100
1, 73764, Note_on_c, 0, 86, 100
1, 73791, Note_off_c, 0, 86, 100
1, 73791, Note_on_c, 0, 82, 100
1, 73818, Note_off_c, 0, 82, 100
1, 73818, Note_on_c, 0, 85, 100
1, 73845, Note_off_c, 0, 85, 100
1, 73845, Note_on_c, 0, 84, 100
1, 73872, Note_off_c, 0, 84, 100
1, 73872, Note_on_c, 0, 85, 100
1, 73910, Note_off_c, 0, 85, 100
1, 73910, Note_on_c, 0, 84, 100
1, 73948, Note_off_c, 0, 84, 100
1, 73948, Note_on_c, 0, 85, 100
1, 74024, Note_off_c, 0, 85, 100
1, 74024, Note_on_c, 0, 82, 100
1, 74062, Note_off_c, 0, 82, 100
1, 74062, Note_on_c, 0, 81, 100
1, 74126, Note_off_c, 0, 81, 100
1, 74126, Note_on_c, 0, 85, 100
1, 74190, Note_off_c, 0, 85, 100
1, 74190, Note_on_c, 0, 84, 100
1, 74254, Note_off_c, 0, 84, 100
1, 74254, Note_on_c, 0, 83, 100
1, 74302, Note_off_c, 0, 83, 100
1, 74302, Note_on_c, 0, 84, 100
1, 74326, Note_off_c, 0, 84, 100
1, 74326, Note_on_c, 0, 85, 100
1, 74350, Note_off_c, 0, 85, 100
1, 74350, Note_on_c, 0, 86, 100
1, 74398, Note_off_c, 0, 86, 100
1, 74398, Note_on_c, 0, 85, 100
1, 74422, Note_off_c, 0, 85, 100
1, 74422, Note_on_c, 0, 83, 100
1, 74446, Note_off_c, 0, 83, 100
1, 74446, Note_on_c, 0, 84, 100
1, 74542, Note_off_c, 0, 84, 100
1, 74542, Note_on_c, 0, 85, 100
1, 74574, Note_off_c, 0, 85, 100
1, 74574, Note_on_c, 0, 86, 100
1, 74606, Note_off_c, 0, 86, 100
1, 74606, Note_on_c, 0, 87, 100
1, 74665, Note_off_c, 0, 87, 100
1, 74665, Note_on_c, 0, 86, 100
1, 74692, Note_off_c, 0, 86, 100
1, 74692, Note_on_c, 0, 85, 100
1, 74719, Note_off_c, 0, 85, 100
1, 74719, Note_on_c, 0, 84, 100
1, 74801, Note_off_c, 0, 84, 100
1, 74801, Note_on_c, 0, 85, 100
1, 74828, Note_off_c, 0, 85, 100
1, 74828, Note_on_c, 0, 86, 100
1, 74852, Note_off_c, 0, 86, 100
1, 74852, Note_on_c, 0, 87, 100
1, 74876, Note_off_c, 0, 87, 100
1, 74876, Note_on_c, 0, 88, 100
1, 74948, Note_off_c, 0, 88, 100
1, 74948, Note_on_c, 0, 86, 100
1, 74996, Note_off_c, 0, 86, 100
1, 74996, Note_on_c, 0, 87, 100
1, 75052, Note_off_c, 0, 87, 100
1, 75052, Note_on_c, 0, 89, 100
1, 75148, Note_off_c, 0, 89, 100
1, 75148, Note_on_c, 0, 90, 100
1, 75180, Note_off_c, 0, 90, 100
1, 75180, Note_on_c, 0, 93, 100
1, 75212, Note_off_c, 0, 93, 100
1, 75212, Note_on_c, 0, 89, 100
1, 75404, Note_off_c, 0, 89, 100
1, 75404, Note_on_c, 0, 92, 100
1, 75980, Note_off_c, 0, 92, 100
1, 75980, Note_on_c, 0, 91, 100
1, 76076, Note_off_c, 0, 91, 100
1, 76076, Note_on_c, 0, 89, 100
1, 76172, Note_off_c, 0, 89, 100
1, 76172, Note_on_c, 0, 83, 100
1, 76268, Note_off_c, 0, 83, 100
1, 76268, Note_on_c, 0, 81, 100
1, 76316, Note_off_c, 0, 81, 100
1, 76316, Note_on_c, 0, 81, 100
1, 76364, Note_off_c, 0, 81, 100
1, 76364, Note_on_c, 0, 82, 100
1, 76418, Note_off_c, 0, 82, 100
1, 76418, Note_on_c, 0, 81, 100
1, 76445, Note_off_c, 0, 81, 100
1, 76445, Note_on_c, 0, 82, 100
1, 76472, Note_off_c, 0, 82, 100
1, 76472, Note_on_c, 0, 81, 100
1, 76499, Note_off_c, 0, 81, 100
1, 76499, Note_on_c, 0, 82, 100
1, 76526, Note_off_c, 0, 82, 100
1, 76526, Note_on_c, 0, 80, 100
1, 76553, Note_off_c, 0, 80, 100
1, 76553, Note_on_c, 0, 79, 100
1, 76601, Note_off_c, 0, 79, 100
1, 76601, Note_on_c, 0, 78, 100
1, 76649, Note_off_c, 0, 78, 100
1, 76649, Note_on_c, 0, 77, 100
1, 76697, Note_off_c, 0, 77, 100
1, 76697, Note_on_c, 0, 76, 100
1, 76745, Note_off_c, 0, 76, 100
1, 76745, Note_on_c, 0, 75, 100
1, 76793, Note_off_c, 0, 75, 100
1, 76793, Note_on_c, 0, 74, 100
1, 76841, Note_off_c, 0, 74, 100
1, 76841, Note_on_c, 0, 73, 100
1, 76889, Note_off_c, 0, 73, 100
1, 76889, Note_on_c, 0, 72, 100
1, 76937, Note_off_c, 0, 72, 100
1, 76937, Note_on_c, 0, 71, 100
1, 76985, Note_off_c, 0, 71, 100
1, 76985, Note_on_c, 0, 70, 100
1, 77033, Note_off_c, 0, 70, 100
1, 77033, Note_on_c, 0, 69, 100
1, 77081, Note_off_c, 0, 69, 100
1, 77081, Note_on_c, 0, 68, 100
1, 77129, Note_off_c, 0, 68, 100
1, 77129, Note_on_c, 0, 67, 100
1, 77177, Note_off_c, 0, 67, 100
1, 77177, Note_on_c, 0, 66, 100
1, 77225, Note_off_c, 0, 66, 100
1, 77225, Note_on_c, 0, 65, 100
1, 77273, Note_off_c, 0, 65, 100
1, 77273, Note_on_c, 0, 64, 100
1, 77321, Note_off_c, 0, 64, 100
1, 77321, Note_on_c, 0, 63, 100
1, 77369, Note_off_c, 0, 63, 100
1, 77369, Note_on_c, 0, 67, 100
1, 77417, Note_off_c, 0, 67, 100
1, 77417, Note_on_c, 0, 62, 100
1, 77465, Note_off_c, 0, 62, 100
1, 77465, Note_on_c, 0, 67, 100
1, 77513, Note_off_c, 0, 67, 100
1, 77513, Note_on_c, 0, 62, 100
1, 77551, Note_off_c, 0, 62, 100
1, 77551, Note_on_c, 0, 67, 100
1, 77589, Note_off_c, 0, 67, 100
1, 77589, Note_on_c, 0, 62, 100
1, 77627, Note_off_c, 0, 62, 100
1, 77627, Note_on_c, 0, 67, 100
1, 77665, Note_off_c, 0, 67, 100
1, 77665, Note_on_c, 0, 62, 100
1, 77703, Note_off_c, 0, 62, 100
1, 77703, Note_on_c, 0, 67, 100
1, 77751, Note_off_c, 0, 67, 100
1, 77751, Note_on_c, 0, 62, 100
1, 77799, Note_off_c, 0, 62, 100
1, 77799, Note_on_c, 0, 67, 100
1, 77847, Note_off_c, 0, 67, 100
1, 77847, Note_on_c, 0, 62, 100
1, 77895, Note_off_c, 0, 62, 100
1, 77895, Note_on_c, 0, 67, 100
1, 77959, Note_off_c, 0, 67, 100
1, 77959, Note_on_c, 0, 62, 100
1, 78023, Note_off_c, 0, 62, 100
1, 78023, Note_on_c, 0, 67, 100
1, 78087, Note_off_c, 0, 67, 100
1, 78087, Note_on_c, 0, 66, 100
1, 78183, Note_off_c, 0, 66, 100
1, 78183, Note_on_c, 0, 67, 100
1, 78231, Note_off_c, 0, 67, 100
1, 78231, Note_on_c, 0, 69, 100
1, 78327, Note_off_c, 0, 69, 100
1, 81043, Note_on_c, 0, 63, 100
1, 81081, Note_off_c, 0, 63, 100
1, 81081, Note_on_c, 0, 64, 100
1, 81119, Note_off_c, 0, 64, 100
1, 81119, Note_on_c, 0, 67, 100
1, 81157, Note_off_c, 0, 67, 100
1, 81157, Note_on_c, 0, 66, 100
1, 81253, Note_off_c, 0, 66, 100
1, 81637, Note_on_c, 0, 66, 100
1, 81685, Note_off_c, 0, 66, 100
1, 81685, Note_on_c, 0, 67, 100
1, 81733, Note_off_c, 0, 67, 100
1, 81733, Note_on_c, 0, 69, 100
1, 81829, Note_off_c, 0, 69, 100
1, 81829, Note_on_c, 0, 74, 100
1, 81877, Note_off_c, 0, 74, 100
1, 81877, Note_on_c, 0, 72, 100
1, 81925, Note_off_c, 0, 72, 100
1, 81925, Note_on_c, 0, 69, 100
1, 82117, Note_off_c, 0, 69, 100
1, 82117, Note_on_c, 0, 69, 100
1, 82213, Note_off_c, 0, 69, 100
1, 82549, Note_on_c, 0, 69, 100
1, 82597, Note_off_c, 0, 69, 100
1, 82597, Note_on_c, 0, 69, 100
1, 82645, Note_off_c, 0, 69, 100
1, 82645, Note_on_c, 0, 69, 100
1, 82693, Note_off_c, 0, 69, 100
1, 82693, Note_on_c, 0, 69, 100
1, 82741, Note_off_c, 0, 69, 100
1, 82741, Note_on_c, 0, 69, 100
1, 82837, Note_off_c, 0, 69, 100
1, 82837, Note_on_c, 0, 69, 100
1, 82933, Note_off_c, 0, 69, 100
1, 82933, Note_on_c, 0, 69, 100
1, 82981, Note_off_c, 0, 69, 100
1, 82981, Note_on_c, 0, 69, 100
1, 83077, Note_off_c, 0, 69, 100
1, 83077, Note_on_c, 0, 69, 100
1, 83125, Note_off_c, 0, 69, 100
1, 83125, Note_on_c, 0, 81, 100
1, 83221, Note_off_c, 0, 81, 100
1, 83221, Note_on_c, 0, 80, 100
1, 83317, Note_off_c, 0, 80, 100
1, 84133, Note_on_c, 0, 69, 100
1, 84165, Note_off_c, 0, 69, 100
1, 84165, Note_on_c, 0, 68, 100
1, 84197, Note_off_c, 0, 68, 100
1, 84197, Note_on_c, 0, 67, 100
1, 84229, Note_off_c, 0, 67, 100
1, 84229, Note_on_c, 0, 66, 100
1, 84949, Note_off_c, 0, 66, 100
1, 84949, Note_on_c, 0, 64, 100
1, 84997, Note_off_c, 0, 64, 100
1, 84997, Note_on_c, 0, 66, 100
1, 85035, Note_off_c, 0, 66, 100
1, 85035, Note_on_c, 0, 67, 100
1, 85073, Note_off_c, 0, 67, 100
1, 85073, Note_on_c, 0, 69, 100
1, 85111, Note_off_c, 0, 69, 100
1, 85111, Note_on_c, 0, 67, 100
1, 85149, Note_off_c, 0, 67, 100
1, 85149, Note_on_c, 0, 66, 100
1, 85187, Note_off_c, 0, 66, 100
1, 85187, Note_on_c, 0, 67, 100
1, 85667, Note_off_c, 0, 67, 100
1, 85667, Note_on_c, 0, 66, 100
1, 85715, Note_off_c, 0, 66, 100
1, 85715, Note_on_c, 0, 67, 100
1, 85763, Note_off_c, 0, 67, 100
1, 85763, Note_on_c, 0, 69, 100
1, 85811, Note_off_c, 0, 69, 100
1, 85811, Note_on_c, 0, 71, 100
1, 85859, Note_off_c, 0, 71, 100
1, 85859, Note_on_c, 0, 69, 100
1, 85907, Note_off_c, 0, 69, 100
1, 85907, Note_on_c, 0, 67, 100
1, 85955, Note_off_c, 0, 67, 100
1, 85955, Note_on_c, 0, 69, 100
1, 86281, Note_off_c, 0, 69, 100
1, 86281, End_track
0, 0, End_of_file
