0, 0, Header, 1, 1, 192
1, 0, Start_track
1, 0, Title_t, "Melody"
1, 0, Tempo, 231660
1, 0, Key_signature, 6, "major"
1, 0, Time_signature, 4, 2, 24, 8
1, 144, Note_on_c, 0, 81, 100
1, 192, Note_off_c, 0, 81, 100
1, 192, Note_on_c, 0, 78, 100
1, 256, Note_off_c, 0, 78, 100
1, 256, Note_on_c, 0, 81, 100
1, 320, Note_off_c, 0, 81, 100
1, 320, Note_on_c, 0, 78, 100
1, 384, Note_off_c, 0, 78, 100
1, 384, Note_on_c, 0, 82, 100
1, 422, Note_off_c, 0, 82, 100
1, 422, Note_on_c, 0, 84, 100
1, 460, Note_off_c, 0, 84, 100
1, 460, Note_on_c, 0, 85, 100
1, 536, Note_off_c, 0, 85, 100
1, 536, Note_on_c, 0, 87, 100
1, 574, Note_off_c, 0, 87, 100
1, 574, Note_on_c, 0, 89, 100
1, 622, Note_off_c, 0, 89, 100
1, 622, Note_on_c, 0, 86, 100
1, 766, Note_off_c, 0, 86, 100
1, 766, Note_on_c, 0, 90, 100
1, 3166, Note_off_c, 0, 90, 100
1, 3166, Note_on_c, 0, 82, 100
1, 3214, Note_off_c, 0, 82, 100
1, 3214, Note_on_c, 0, 83, 100
1, 3310, Note_off_c, 0, 83, 100
1, 3310, Note_on_c, 0, 84, 100
1, 3358, Note_off_c, 0, 84, 100
1, 3358, Note_on_c, 0, 79, 100
1, 3406, Note_off_c, 0, 79, 100
1, 3406, Note_on_c, 0, 85, 100
1, 3502, Note_off_c, 0, 85, 100
1, 3502, Note_on_c, 0, 84, 100
1, 3550, Note_off_c, 0, 84, 100
1, 3550, Note_on_c, 0, 83, 100
1, 3598, Note_off_c, 0, 83, 100
1, 3598, Note_on_c, 0, 80, 100
1, 3694, Note_off_c, 0, 80, 100
1, 3694, Note_on_c, 0, 80, 100
1, 3742, Note_off_c, 0, 80, 100
1, 3742, Note_on_c, 0, 81, 100
1, 3790, Note_off_c, 0, 81, 100
1, 3790, Note_on_c, 0, 80, 100
1, 3838, Note_off_c, 0, 80, 100
1, 3838, Note_on_c, 0, 77, 100
1, 3886, Note_off_c, 0, 77, 100
1, 3886, Note_on_c, 0, 74, 100
1, 3934, Note_off_c, 0, 74, 100
1, 3934, Note_on_c, 0, 76, 100
1, 3982, Note_off_c, 0, 76, 100
1, 3982, Note_on_c, 0, 68, 100
1, 4030, Note_off_c, 0, 68, 100
1, 4030, Note_on_c, 0, 74, 100
1, 4078, Note_off_c, 0, 74, 100
1, 4078, Note_on_c, 0, 73, 100
1, 4126, Note_off_c, 0, 73, 100
1, 4126, Note_on_c, 0, 77, 100
1, 4174, Note_off_c, 0, 77, 100
1, 4174, Note_on_c, 0, 70, 100
1, 4222, Note_off_c, 0, 70, 100
1, 4222, Note_on_c, 0, 67, 100
1, 4318, Note_off_c, 0, 67, 100
1, 4318, Note_on_c, 0, 69, 100
1, 4414, Note_off_c, 0, 69, 100
1, 4414, Note_on_c, 0, 61, 100
1, 4510, Note_off_c, 0, 61, 100
1, 4510, Note_on_c, 0, 60, 100
1, 4558, Note_off_c, 0, 60, 100
1, 4558, Note_on_c, 0, 59, 100
1, 5470, Note_off_c, 0, 59, 100
1, 5470, Note_on_c, 0, 70, 100
1, 5566, Note_off_c, 0, 70, 100
1, 5566, Note_on_c, 0, 64, 100
1, 5662, Note_off_c, 0, 64, 100
1, 5662, Note_on_c, 0, 66, 100
1, 5758, Note_off_c, 0, 66, 100
1, 5758, Note_on_c, 0, 67, 100
1, 5854, Note_off_c, 0, 67, 100
1, 5854, Note_on_c, 0, 69, 100
1, 5950, Note_off_c, 0, 69, 100
1, 5950, Note_on_c, 0, 66, 100
1, 6046, Note_off_c, 0, 66, 100
1, 6046, Note_on_c, 0, 66, 100
1, 6142, Note_off_c, 0, 66, 100
1, 6142, Note_on_c, 0, 62, 100
1, 6238, Note_off_c, 0, 62, 100
1, 6238, Note_on_c, 0, 66, 100
1, 6286, Note_off_c, 0, 66, 100
1, 6286, Note_on_c, 0, 64, 100
1, 6398, Note_off_c, 0, 64, 100
1, 6398, Note_on_c, 0, 66, 100
1, 6462, Note_off_c, 0, 66, 100
1, 6462, Note_on_c, 0, 69, 100
1, 6574, Note_off_c, 0, 69, 100
1, 6574, Note_on_c, 0, 71, 100
1, 6670, Note_off_c, 0, 71, 100
1, 6670, Note_on_c, 0, 73, 100
1, 6862, Note_off_c, 0, 73, 100
1, 6862, Note_on_c, 0, 70, 100
1, 7054, Note_off_c, 0, 70, 100
1, 12286, Note_on_c, 0, 70, 100
1, 12382, Note_off_c, 0, 70, 100
1, 12382, Note_on_c, 0, 69, 100
1, 12478, Note_off_c, 0, 69, 100
1, 12478, Note_on_c, 0, 77, 100
1, 12542, Note_off_c, 0, 77, 100
1, 12542, Note_on_c, 0, 76, 100
1, 12606, Note_off_c, 0, 76, 100
1, 12606, Note_on_c, 0, 75, 100
1, 12718, Note_off_c, 0, 75, 100
1, 12718, Note_on_c, 0, 77, 100
1, 12814, Note_off_c, 0, 77, 100
1, 12814, Note_on_c, 0, 77, 100
1, 12910, Note_off_c, 0, 77, 100
1, 12910, Note_on_c, 0, 79, 100
1, 13006, Note_off_c, 0, 79, 100
1, 13006, Note_on_c, 0, 81, 100
1, 13054, Note_off_c, 0, 81, 100
1, 13054, Note_on_c, 0, 70, 100
1, 13150, Note_off_c, 0, 70, 100
1, 13150, Note_on_c, 0, 77, 100
1, 13246, Note_off_c, 0, 77, 100
1, 13246, Note_on_c, 0, 79, 100
1, 13294, Note_off_c, 0, 79, 100
1, 13294, Note_on_c, 0, 81, 100
1, 13390, Note_off_c, 0, 81, 100
1, 13390, Note_on_c, 0, 78, 100
1, 13438, Note_off_c, 0, 78, 100
1, 13438, Note_on_c, 0, 77, 100
1, 13534, Note_off_c, 0, 77, 100
1, 13534, Note_on_c, 0, 75, 100
1, 13630, Note_off_c, 0, 75, 100
1, 13630, Note_on_c, 0, 74, 100
1, 13822, Note_off_c, 0, 74, 100
1, 13822, Note_on_c, 0, 68, 100
1, 13918, Note_off_c, 0, 68, 100
1, 13918, Note_on_c, 0, 66, 100
1, 14014, Note_off_c, 0, 66, 100
1, 14014, Note_on_c, 0, 62, 100
1, 14078, Note_off_c, 0, 62, 100
1, 14078, Note_on_c, 0, 69, 100
1, 14142, Note_off_c, 0, 69, 100
1, 14142, Note_on_c, 0, 74, 100
1, 14206, Note_off_c, 0, 74, 100
1, 14206, Note_on_c, 0, 73, 100
1, 14302, Note_off_c, 0, 73, 100
1, 14302, Note_on_c, 0, 70, 100
1, 14350, Note_off_c, 0, 70, 100
1, 14350, Note_on_c, 0, 67, 100
1, 14398, Note_off_c, 0, 67, 100
1, 14398, Note_on_c, 0, 69, 100
1, 14494, Note_off_c, 0, 69, 100
1, 14494, Note_on_c, 0, 66, 100
1, 14590, Note_off_c, 0, 66, 100
1, 14590, Note_on_c, 0, 61, 100
1, 14686, Note_off_c, 0, 61, 100
1, 14686, Note_on_c, 0, 66, 100
1, 14782, Note_off_c, 0, 66, 100
1, 14782, Note_on_c, 0, 63, 100
1, 14830, Note_off_c, 0, 63, 100
1, 14830, Note_on_c, 0, 66, 100
1, 14878, Note_off_c, 0, 66, 100
1, 14878, Note_on_c, 0, 68, 100
1, 14974, Note_off_c, 0, 68, 100
1, 14974, Note_on_c, 0, 69, 100
1, 15070, Note_off_c, 0, 69, 100
1, 15070, Note_on_c, 0, 75, 100
1, 15166, Note_off_c, 0, 75, 100
1, 15166, Note_on_c, 0, 73, 100
1, 15230, Note_off_c, 0, 73, 100
1, 15230, Note_on_c, 0, 69, 100
1, 15294, Note_off_c, 0, 69, 100
1, 15294, Note_on_c, 0, 66, 100
1, 15358, Note_off_c, 0, 66, 100
1, 15358, Note_on_c, 0, 70, 100
1, 15454, Note_off_c, 0, 70, 100
1, 15454, Note_on_c, 0, 72, 100
1, 15550, Note_off_c, 0, 72, 100
1, 15550, Note_on_c, 0, 74, 100
1, 15598, Note_off_c, 0, 74, 100
1, 15598, Note_on_c, 0, 79, 100
1, 15694, Note_off_c, 0, 79, 100
1, 15694, Note_on_c, 0, 72, 100
1, 15806, Note_off_c, 0, 72, 100
1, 15806, Note_on_c, 0, 77, 100
1, 15870, Note_off_c, 0, 77, 100
1, 15870, Note_on_c, 0, 79, 100
1, 15998, Note_off_c, 0, 79, 100
1, 15998, Note_on_c, 0, 82, 100
1, 16126, Note_off_c, 0, 82, 100
1, 16126, Note_on_c, 0, 84, 100
1, 16222, Note_off_c, 0, 84, 100
1, 16222, Note_on_c, 0, 85, 100
1, 16318, Note_off_c, 0, 85, 100
1, 16318, Note_on_c, 0, 82, 100
1, 16414, Note_off_c, 0, 82, 100
1, 16414, Note_on_c, 0, 84, 100
1, 17470, Note_off_c, 0, 84, 100
1, 17470, Note_on_c, 0, 85, 100
1, 17534, Note_off_c, 0, 85, 100
1, 17534, Note_on_c, 0, 84, 100
1, 17598, Note_off_c, 0, 84, 100
1, 17598, Note_on_c, 0, 83, 100
1, 17662, Note_off_c, 0, 83, 100
1, 17662, Note_on_c, 0, 82, 100
1, 18142, Note_off_c, 0, 82, 100
1, 18142, Note_on_c, 0, 70, 100
1, 18238, Note_off_c, 0, 70, 100
1, 18238, Note_on_c, 0, 82, 100
1, 18430, Note_off_c, 0, 82, 100
1, 18430, Note_on_c, 0, 82, 100
1, 18622, Note_off_c, 0, 82, 100
1, 18622, Note_on_c, 0, 82, 100
1, 18766, Note_off_c, 0, 82, 100
1, 18766, Note_on_c, 0, 82, 100
1, 18910, Note_off_c, 0, 82, 100
1, 18910, Note_on_c, 0, 81, 100
1, 19006, Note_off_c, 0, 81, 100
1, 19006, Note_on_c, 0, 82, 100
1, 19102, Note_off_c, 0, 82, 100
1, 19102, Note_on_c, 0, 81, 100
1, 19198, Note_off_c, 0, 81, 100
1, 19198, Note_on_c, 0, 82, 100
1, 19294, Note_off_c, 0, 82, 100
1, 19294, Note_on_c, 0, 84, 100
1, 19390, Note_off_c, 0, 84, 100
1, 19390, Note_on_c, 0, 81, 100
1, 19774, Note_off_c, 0, 81, 100
1, 19774, Note_on_c, 0, 85, 100
1, 19838, Note_off_c, 0, 85, 100
1, 19838, Note_on_c, 0, 81, 100
1, 19902, Note_off_c, 0, 81, 100
1, 19902, Note_on_c, 0, 78, 100
1, 19966, Note_off_c, 0, 78, 100
1, 19966, Note_on_c, 0, 79, 100
1, 20062, Note_off_c, 0, 79, 100
1, 20062, Note_on_c, 0, 81, 100
1, 20158, Note_off_c, 0, 81, 100
1, 20158, Note_on_c, 0, 78, 100
1, 20254, Note_off_c, 0, 78, 100
1, 20254, Note_on_c, 0, 73, 100
1, 20302, Note_off_c, 0, 73, 100
1, 20302, Note_on_c, 0, 71, 100
1, 20446, Note_off_c, 0, 71, 100
1, 20446, Note_on_c, 0, 69, 100
1, 20542, Note_off_c, 0, 69, 100
1, 20542, Note_on_c, 0, 76, 100
1, 20734, Note_off_c, 0, 76, 100
1, 20734, Note_on_c, 0, 80, 100
1, 20830, Note_off_c, 0, 80, 100
1, 20830, Note_on_c, 0, 78, 100
1, 21070, Note_off_c, 0, 78, 100
1, 21070, Note_on_c, 0, 76, 100
1, 21166, Note_off_c, 0, 76, 100
1, 21166, Note_on_c, 0, 77, 100
1, 21262, Note_off_c, 0, 77, 100
1, 21262, Note_on_c, 0, 74, 100
1, 21406, Note_off_c, 0, 74, 100
1, 21406, Note_on_c, 0, 69, 100
1, 21502, Note_off_c, 0, 69, 100
1, 21502, Note_on_c, 0, 67, 100
1, 21646, Note_off_c, 0, 67, 100
1, 21646, Note_on_c, 0, 75, 100
1, 21694, Note_off_c, 0, 75, 100
1, 21694, Note_on_c, 0, 72, 100
1, 21790, Note_off_c, 0, 72, 100
1, 21790, Note_on_c, 0, 74, 100
1, 21886, Note_off_c, 0, 74, 100
1, 21886, Note_on_c, 0, 70, 100
1, 21982, Note_off_c, 0, 70, 100
1, 21982, Note_on_c, 0, 66, 100
1, 22078, Note_off_c, 0, 66, 100
1, 22078, Note_on_c, 0, 62, 100
1, 22126, Note_off_c, 0, 62, 100
1, 22126, Note_on_c, 0, 69, 100
1, 22174, Note_off_c, 0, 69, 100
1, 22174, Note_on_c, 0, 74, 100
1, 22270, Note_off_c, 0, 74, 100
1, 22270, Note_on_c, 0, 72, 100
1, 22318, Note_off_c, 0, 72, 100
1, 22318, Note_on_c, 0, 70, 100
1, 22366, Note_off_c, 0, 70, 100
1, 22366, Note_on_c, 0, 69, 100
1, 22414, Note_off_c, 0, 69, 100
1, 22414, Note_on_c, 0, 66, 100
1, 22462, Note_off_c, 0, 66, 100
1, 22462, Note_on_c, 0, 60, 100
1, 22526, Note_off_c, 0, 60, 100
1, 22526, Note_on_c, 0, 66, 100
1, 22590, Note_off_c, 0, 66, 100
1, 22590, Note_on_c, 0, 60, 100
1, 22654, Note_off_c, 0, 60, 100
1, 22654, Note_on_c, 0, 58, 100
1, 22718, Note_off_c, 0, 58, 100
1, 22718, Note_on_c, 0, 59, 100
1, 22782, Note_off_c, 0, 59, 100
1, 22782, Note_on_c, 0, 71, 100
1, 22846, Note_off_c, 0, 71, 100
1, 22846, Note_on_c, 0, 72, 100
1, 22894, Note_off_c, 0, 72, 100
1, 22894, Note_on_c, 0, 77, 100
1, 22942, Note_off_c, 0, 77, 100
1, 22942, Note_on_c, 0, 78, 100
1, 22990, Note_off_c, 0, 78, 100
1, 22990, Note_on_c, 0, 81, 100
1, 23070, Note_off_c, 0, 81, 100
1, 23070, Note_on_c, 0, 70, 100
1, 23102, Note_off_c, 0, 70, 100
1, 23102, Note_on_c, 0, 75, 100
1, 23134, Note_off_c, 0, 75, 100
1, 23134, Note_on_c, 0, 72, 100
1, 23166, Note_off_c, 0, 72, 100
1, 23166, Note_on_c, 0, 68, 100
1, 23198, Note_off_c, 0, 68, 100
1, 23198, Note_on_c, 0, 69, 100
1, 23230, Note_off_c, 0, 69, 100
1, 23230, Note_on_c, 0, 65, 100
1, 23294, Note_off_c, 0, 65, 100
1, 23294, Note_on_c, 0, 71, 100
1, 23358, Note_off_c, 0, 71, 100
1, 23358, Note_on_c, 0, 72, 100
1, 23422, Note_off_c, 0, 72, 100
1, 23422, Note_on_c, 0, 75, 100
1, 23460, Note_off_c, 0, 75, 100
1, 23460, Note_on_c, 0, 78, 100
1, 23498, Note_off_c, 0, 78, 100
1, 23498, Note_on_c, 0, 79, 100
1, 23536, Note_off_c, 0, 79, 100
1, 23536, Note_on_c, 0, 78, 100
1, 23574, Note_off_c, 0, 78, 100
1, 23574, Note_on_c, 0, 77, 100
1, 23612, Note_off_c, 0, 77, 100
1, 23612, Note_on_c, 0, 79, 100
1, 23660, Note_off_c, 0, 79, 100
1, 23660, Note_on_c, 0, 84, 100
1, 23708, Note_off_c, 0, 84, 100
1, 23708, Note_on_c, 0, 85, 100
1, 23756, Note_off_c, 0, 85, 100
1, 23756, Note_on_c, 0, 86, 100
1, 23804, Note_off_c, 0, 86, 100
1, 23804, Note_on_c, 0, 73, 100
1, 23900, Note_off_c, 0, 73, 100
1, 29516, Note_on_c, 0, 72, 100
1, 29564, Note_off_c, 0, 72, 100
1, 29564, Note_on_c, 0, 74, 100
1, 29612, Note_off_c, 0, 74, 100
1, 29612, Note_on_c, 0, 75, 100
1, 29660, Note_off_c, 0, 75, 100
1, 29660, Note_on_c, 0, 76, 100
1, 29708, Note_off_c, 0, 76, 100
1, 29708, Note_on_c, 0, 75, 100
1, 29756, Note_off_c, 0, 75, 100
1, 29756, Note_on_c, 0, 74, 100
1, 29804, Note_off_c, 0, 74, 100
1, 29804, Note_on_c, 0, 72, 100
1, 29852, Note_off_c, 0, 72, 100
1, 29852, Note_on_c, 0, 70, 100
1, 29900, Note_off_c, 0, 70, 100
1, 29900, Note_on_c, 0, 73, 100
1, 29948, Note_off_c, 0, 73, 100
1, 29948, Note_on_c, 0, 75, 100
1, 29996, Note_off_c, 0, 75, 100
1, 29996, Note_on_c, 0, 76, 100
1, 30092, Note_off_c, 0, 76, 100
1, 30092, Note_on_c, 0, 74, 100
1, 30140, Note_off_c, 0, 74, 100
1, 30140, Note_on_c, 0, 71, 100
1, 30204, Note_off_c, 0, 71, 100
1, 30204, Note_on_c, 0, 70, 100
1, 30268, Note_off_c, 0, 70, 100
1, 30268, Note_on_c, 0, 73, 100
1, 30332, Note_off_c, 0, 73, 100
1, 30332, Note_on_c, 0, 76, 100
1, 30396, Note_off_c, 0, 76, 100
1, 30396, Note_on_c, 0, 75, 100
1, 30460, Note_off_c, 0, 75, 100
1, 30460, Note_on_c, 0, 74, 100
1, 30524, Note_off_c, 0, 74, 100
1, 30524, Note_on_c, 0, 73, 100
1, 30588, Note_off_c, 0, 73, 100
1, 30588, Note_on_c, 0, 70, 100
1, 30652, Note_off_c, 0, 70, 100
1, 30652, Note_on_c, 0, 61, 100
1, 30716, Note_off_c, 0, 61, 100
1, 30716, Note_on_c, 0, 62, 100
1, 30764, Note_off_c, 0, 62, 100
1, 30764, Note_on_c, 0, 63, 100
1, 30812, Note_off_c, 0, 63, 100
1, 30812, Note_on_c, 0, 64, 100
1, 30860, Note_off_c, 0, 64, 100
1, 30860, Note_on_c, 0, 62, 100
1, 30956, Note_off_c, 0, 62, 100
1, 30956, Note_on_c, 0, 70, 100
1, 31004, Note_off_c, 0, 70, 100
1, 31004, Note_on_c, 0, 60, 100
1, 31052, Note_off_c, 0, 60, 100
1, 31052, Note_on_c, 0, 61, 100
1, 31164, Note_off_c, 0, 61, 100
1, 31164, Note_on_c, 0, 64, 100
1, 31228, Note_off_c, 0, 64, 100
1, 31228, Note_on_c, 0, 63, 100
1, 31292, Note_off_c, 0, 63, 100
1, 31292, Note_on_c, 0, 61, 100
1, 31388, Note_off_c, 0, 61, 100
1, 31388, Note_on_c, 0, 60, 100
1, 31436, Note_off_c, 0, 60, 100
1, 31436, Note_on_c, 0, 65, 100
1, 31484, Note_off_c, 0, 65, 100
1, 31484, Note_on_c, 0, 70, 100
1, 31532, Note_off_c, 0, 70, 100
1, 31532, Note_on_c, 0, 73, 100
1, 31580, Note_off_c, 0, 73, 100
1, 31580, Note_on_c, 0, 75, 100
1, 31628, Note_off_c, 0, 75, 100
1, 31628, Note_on_c, 0, 76, 100
1, 31676, Note_off_c, 0, 76, 100
1, 31676, Note_on_c, 0, 74, 100
1, 31724, Note_off_c, 0, 74, 100
1, 31724, Note_on_c, 0, 72, 100
1, 31772, Note_off_c, 0, 72, 100
1, 31772, Note_on_c, 0, 73, 100
1, 31820, Note_off_c, 0, 73, 100
1, 31820, Note_on_c, 0, 69, 100
1, 31868, Note_off_c, 0, 69, 100
1, 31868, Note_on_c, 0, 67, 100
1, 31964, Note_off_c, 0, 67, 100
1, 31964, Note_on_c, 0, 72, 100
1, 32060, Note_off_c, 0, 72, 100
1, 32060, Note_on_c, 0, 74, 100
1, 32098, Note_off_c, 0, 74, 100
1, 32098, Note_on_c, 0, 73, 100
1, 32136, Note_off_c, 0, 73, 100
1, 32136, Note_on_c, 0, 69, 100
1, 32212, Note_off_c, 0, 69, 100
1, 32212, Note_on_c, 0, 70, 100
1, 32250, Note_off_c, 0, 70, 100
1, 32250, Note_on_c, 0, 72, 100
1, 32346, Note_off_c, 0, 72, 100
1, 32346, Note_on_c, 0, 73, 100
1, 32394, Note_off_c, 0, 73, 100
1, 32394, Note_on_c, 0, 74, 100
1, 32538, Note_off_c, 0, 74, 100
1, 32538, Note_on_c, 0, 69, 100
1, 32586, Note_off_c, 0, 69, 100
1, 32586, Note_on_c, 0, 70, 100
1, 32634, Note_off_c, 0, 70, 100
1, 32634, Note_on_c, 0, 73, 100
1, 32672, Note_off_c, 0, 73, 100
1, 32672, Note_on_c, 0, 74, 100
1, 32710, Note_off_c, 0, 74, 100
1, 32710, Note_on_c, 0, 77, 100
1, 32786, Note_off_c, 0, 77, 100
1, 32786, Note_on_c, 0, 75, 100
1, 32824, Note_off_c, 0, 75, 100
1, 32824, Note_on_c, 0, 76, 100
1, 32872, Note_off_c, 0, 76, 100
1, 32872, Note_on_c, 0, 74, 100
1, 32920, Note_off_c, 0, 74, 100
1, 32920, Note_on_c, 0, 72, 100
1, 32968, Note_off_c, 0, 72, 100
1, 32968, Note_on_c, 0, 70, 100
1, 33016, Note_off_c, 0, 70, 100
1, 33016, Note_on_c, 0, 68, 100
1, 33080, Note_off_c, 0, 68, 100
1, 33080, Note_on_c, 0, 72, 100
1, 33144, Note_off_c, 0, 72, 100
1, 33144, Note_on_c, 0, 73, 100
1, 33208, Note_off_c, 0, 73, 100
1, 33208, Note_on_c, 0, 75, 100
1, 33246, Note_off_c, 0, 75, 100
1, 33246, Note_on_c, 0, 74, 100
1, 33284, Note_off_c, 0, 74, 100
1, 33284, Note_on_c, 0, 76, 100
1, 33360, Note_off_c, 0, 76, 100
1, 33360, Note_on_c, 0, 70, 100
1, 33398, Note_off_c, 0, 70, 100
1, 33398, Note_on_c, 0, 68, 100
1, 33430, Note_off_c, 0, 68, 100
1, 33430, Note_on_c, 0, 69, 100
1, 33462, Note_off_c, 0, 69, 100
1, 33462, Note_on_c, 0, 70, 100
1, 33526, Note_off_c, 0, 70, 100
1, 33526, Note_on_c, 0, 71, 100
1, 33590, Note_off_c, 0, 71, 100
1, 33590, Note_on_c, 0, 72, 100
1, 33654, Note_off_c, 0, 72, 100
1, 33654, Note_on_c, 0, 73, 100
1, 33718, Note_off_c, 0, 73, 100
1, 33718, Note_on_c, 0, 72, 100
1, 33782, Note_off_c, 0, 72, 100
1, 33782, Note_on_c, 0, 70, 100
1, 33910, Note_off_c, 0, 70, 100
1, 33910, Note_on_c, 0, 67, 100
1, 33974, Note_off_c, 0, 67, 100
1, 33974, Note_on_c, 0, 68, 100
1, 34038, Note_off_c, 0, 68, 100
1, 34038, Note_on_c, 0, 69, 100
1, 34102, Note_off_c, 0, 69, 100
1, 34102, Note_on_c, 0, 70, 100
1, 34166, Note_off_c, 0, 70, 100
1, 34166, Note_on_c, 0, 71, 100
1, 34214, Note_off_c, 0, 71, 100
1, 34214, Note_on_c, 0, 68, 100
1, 34310, Note_off_c, 0, 68, 100
1, 34310, Note_on_c, 0, 66, 100
1, 34422, Note_off_c, 0, 66, 100
1, 34422, Note_on_c, 0, 65, 100
1, 34486, Note_off_c, 0, 65, 100
1, 34486, Note_on_c, 0, 66, 100
1, 34550, Note_off_c, 0, 66, 100
1, 34550, Note_on_c, 0, 67, 100
1, 34646, Note_off_c, 0, 67, 100
1, 34646, Note_on_c, 0, 66, 100
1, 34694, Note_off_c, 0, 66, 100
1, 34694, Note_on_c, 0, 64, 100
1, 34790, Note_off_c, 0, 64, 100
1, 34790, Note_on_c, 0, 65, 100
1, 34838, Note_off_c, 0, 65, 100
1, 34838, Note_on_c, 0, 62, 100
1, 34934, Note_off_c, 0, 62, 100
1, 34934, Note_on_c, 0, 60, 100
1, 34982, Note_off_c, 0, 60, 100
1, 34982, Note_on_c, 0, 61, 100
1, 35462, Note_off_c, 0, 61, 100
1, 35462, Note_on_c, 0, 62, 100
1, 35558, Note_off_c, 0, 62, 100
1, 35558, Note_on_c, 0, 66, 100
1, 35654, Note_off_c, 0, 66, 100
1, 35654, Note_on_c, 0, 64, 100
1, 35702, Note_off_c, 0, 64, 100
1, 35702, Note_on_c, 0, 63, 100
1, 35798, Note_off_c, 0, 63, 100
1, 35798, Note_on_c, 0, 65, 100
1, 35894, Note_off_c, 0, 65, 100
1, 35894, Note_on_c, 0, 64, 100
1, 35990, Note_off_c, 0, 64, 100
1, 35990, Note_on_c, 0, 62, 100
1, 36038, Note_off_c, 0, 62, 100
1, 36038, Note_on_c, 0, 63, 100
1, 36086, Note_off_c, 0, 63, 100
1, 36086, Note_on_c, 0, 62, 100
1, 36278, Note_off_c, 0, 62, 100
1, 36278, Note_on_c, 0, 61, 100
1, 36374, Note_off_c, 0, 61, 100
1, 36374, Note_on_c, 0, 65, 100
1, 36470, Note_off_c, 0, 65, 100
1, 36470, Note_on_c, 0, 62, 100
1, 36566, Note_off_c, 0, 62, 100
1, 36566, Note_on_c, 0, 65, 100
1, 36662, Note_off_c, 0, 65, 100
1, 36662, Note_on_c, 0, 69, 100
1, 36758, Note_off_c, 0, 69, 100
1, 36758, Note_on_c, 0, 73, 100
1, 36806, Note_off_c, 0, 73, 100
1, 36806, Note_on_c, 0, 76, 100
1, 36950, Note_off_c, 0, 76, 100
1, 36950, Note_on_c, 0, 70, 100
1, 37046, Note_off_c, 0, 70, 100
1, 40310, Note_on_c, 0, 57, 100
1, 40406, Note_off_c, 0, 57, 100
1, 40406, Note_on_c, 0, 63, 100
1, 40502, Note_off_c, 0, 63, 100
1, 40502, Note_on_c, 0, 65, 100
1, 40598, Note_off_c, 0, 65, 100
1, 40598, Note_on_c, 0, 70, 100
1, 40694, Note_off_c, 0, 70, 100
1, 40694, Note_on_c, 0, 75, 100
1, 40790, Note_off_c, 0, 75, 100
1, 40790, Note_on_c, 0, 77, 100
1, 40886, Note_off_c, 0, 77, 100
1, 40886, Note_on_c, 0, 79, 100
1, 40982, Note_off_c, 0, 79, 100
1, 40982, Note_on_c, 0, 82, 100
1, 41078, Note_off_c, 0, 82, 100
1, 41078, Note_on_c, 0, 84, 100
1, 41174, Note_off_c, 0, 84, 100
1, 42102, Note_on_c, 0, 82, 100
1, 42166, Note_off_c, 0, 82, 100
1, 42166, Note_on_c, 0, 84, 100
1, 42294, Note_off_c, 0, 84, 100
1, 42294, Note_on_c, 0, 83, 100
1, 42358, Note_off_c, 0, 83, 100
1, 42358, Note_on_c, 0, 84, 100
1, 42470, Note_off_c, 0, 84, 100
1, 42470, Note_on_c, 0, 82, 100
1, 42566, Note_off_c, 0, 82, 100
1, 42566, Note_on_c, 0, 79, 100
1, 42614, Note_off_c, 0, 79, 100
1, 42614, Note_on_c, 0, 77, 100
1, 42710, Note_off_c, 0, 77, 100
1, 42710, Note_on_c, 0, 72, 100
1, 42902, Note_off_c, 0, 72, 100
1, 42902, Note_on_c, 0, 75, 100
1, 43062, Note_off_c, 0, 75, 100
1, 43062, Note_on_c, 0, 78, 100
1, 43126, Note_off_c, 0, 78, 100
1, 43126, Note_on_c, 0, 79, 100
1, 43254, Note_off_c, 0, 79, 100
1, 43254, Note_on_c, 0, 75, 100
1, 43318, Note_off_c, 0, 75, 100
1, 43318, Note_on_c, 0, 77, 100
1, 43430, Note_off_c, 0, 77, 100
1, 43430, Note_on_c, 0, 75, 100
1, 43526, Note_off_c, 0, 75, 100
1, 43526, Note_on_c, 0, 72, 100
1, 43638, Note_off_c, 0, 72, 100
1, 43638, Note_on_c, 0, 70, 100
1, 43702, Note_off_c, 0, 70, 100
1, 43702, Note_on_c, 0, 75, 100
1, 43830, Note_off_c, 0, 75, 100
1, 43830, Note_on_c, 0, 70, 100
1, 43894, Note_off_c, 0, 70, 100
1, 43894, Note_on_c, 0, 65, 100
1, 44006, Note_off_c, 0, 65, 100
1, 44006, Note_on_c, 0, 63, 100
1, 44102, Note_off_c, 0, 63, 100
1, 44102, Note_on_c, 0, 68, 100
1, 44246, Note_off_c, 0, 68, 100
1, 44246, Note_on_c, 0, 70, 100
1, 44294, Note_off_c, 0, 70, 100
1, 44294, Note_on_c, 0, 71, 100
1, 44438, Note_off_c, 0, 71, 100
1, 44438, Note_on_c, 0, 73, 100
1, 44598, Note_off_c, 0, 73, 100
1, 44598, Note_on_c, 0, 70, 100
1, 44726, Note_off_c, 0, 70, 100
1, 44726, Note_on_c, 0, 66, 100
1, 44822, Note_off_c, 0, 66, 100
1, 44822, Note_on_c, 0, 61, 100
1, 44918, Note_off_c, 0, 61, 100
1, 44918, Note_on_c, 0, 65, 100
1, 44966, Note_off_c, 0, 65, 100
1, 44966, Note_on_c, 0, 64, 100
1, 45062, Note_off_c, 0, 64, 100
1, 45062, Note_on_c, 0, 63, 100
1, 45158, Note_off_c, 0, 63, 100
1, 45158, Note_on_c, 0, 66, 100
1, 45254, Note_off_c, 0, 66, 100
1, 45254, Note_on_c, 0, 62, 100
1, 45398, Note_off_c, 0, 62, 100
1, 45398, Note_on_c, 0, 65, 100
1, 45446, Note_off_c, 0, 65, 100
1, 45446, Note_on_c, 0, 68, 100
1, 45590, Note_off_c, 0, 68, 100
1, 45590, Note_on_c, 0, 69, 100
1, 45638, Note_off_c, 0, 69, 100
1, 45638, Note_on_c, 0, 71, 100
1, 45878, Note_off_c, 0, 71, 100
1, 45878, Note_on_c, 0, 69, 100
1, 46070, Note_off_c, 0, 69, 100
1, 46070, Note_on_c, 0, 70, 100
1, 46262, Note_off_c, 0, 70, 100
1, 46262, Note_on_c, 0, 68, 100
1, 46358, Note_off_c, 0, 68, 100
1, 46358, Note_on_c, 0, 69, 100
1, 46518, Note_off_c, 0, 69, 100
1, 46518, Note_on_c, 0, 66, 100
1, 46582, Note_off_c, 0, 66, 100
1, 46582, Note_on_c, 0, 61, 100
1, 46710, Note_off_c, 0, 61, 100
1, 46710, Note_on_c, 0, 66, 100
1, 46838, Note_off_c, 0, 66, 100
1, 46838, Note_on_c, 0, 64, 100
1, 47174, Note_off_c, 0, 64, 100
1, 47174, Note_on_c, 0, 64, 100
1, 47366, Note_off_c, 0, 64, 100
1, 52502, Note_on_c, 0, 61, 100
1, 52598, Note_off_c, 0, 61, 100
1, 52598, Note_on_c, 0, 62, 100
1, 52694, Note_off_c, 0, 62, 100
1, 52694, Note_on_c, 0, 66, 100
1, 52838, Note_off_c, 0, 66, 100
1, 52838, Note_on_c, 0, 65, 100
1, 52934, Note_off_c, 0, 65, 100
1, 52934, Note_on_c, 0, 64, 100
1, 52982, Note_off_c, 0, 64, 100
1, 52982, Note_on_c, 0, 63, 100
1, 53078, Note_off_c, 0, 63, 100
1, 53078, Note_on_c, 0, 67, 100
1, 53174, Note_off_c, 0, 67, 100
1, 53174, Note_on_c, 0, 62, 100
1, 53270, Note_off_c, 0, 62, 100
1, 53270, Note_on_c, 0, 65, 100
1, 53366, Note_off_c, 0, 65, 100
1, 53366, Note_on_c, 0, 68, 100
1, 53494, Note_off_c, 0, 68, 100
1, 53494, Note_on_c, 0, 69, 100
1, 53846, Note_off_c, 0, 69, 100
1, 53846, Note_on_c, 0, 68, 100
1, 53942, Note_off_c, 0, 68, 100
1, 53942, Note_on_c, 0, 69, 100
1, 54038, Note_off_c, 0, 69, 100
1, 54038, Note_on_c, 0, 68, 100
1, 54134, Note_off_c, 0, 68, 100
1, 54134, Note_on_c, 0, 67, 100
1, 54182, Note_off_c, 0, 67, 100
1, 54182, Note_on_c, 0, 66, 100
1, 54278, Note_off_c, 0, 66, 100
1, 54278, Note_on_c, 0, 65, 100
1, 54422, Note_off_c, 0, 65, 100
1, 54422, Note_on_c, 0, 64, 100
1, 54518, Note_off_c, 0, 64, 100
1, 54518, Note_on_c, 0, 63, 100
1, 54614, Note_off_c, 0, 63, 100
1, 54614, Note_on_c, 0, 66, 100
1, 54710, Note_off_c, 0, 66, 100
1, 54710, Note_on_c, 0, 62, 100
1, 54806, Note_off_c, 0, 62, 100
1, 54806, Note_on_c, 0, 65, 100
1, 54902, Note_off_c, 0, 65, 100
1, 54902, Note_on_c, 0, 69, 100
1, 55094, Note_off_c, 0, 69, 100
1, 55094, Note_on_c, 0, 72, 100
1, 55238, Note_off_c, 0, 72, 100
1, 55238, Note_on_c, 0, 74, 100
1, 55286, Note_off_c, 0, 74, 100
1, 55286, Note_on_c, 0, 76, 100
1, 55430, Note_off_c, 0, 76, 100
1, 55430, Note_on_c, 0, 72, 100
1, 55478, Note_off_c, 0, 72, 100
1, 55478, Note_on_c, 0, 74, 100
1, 55574, Note_off_c, 0, 74, 100
1, 55574, Note_on_c, 0, 68, 100
1, 55670, Note_off_c, 0, 68, 100
1, 55670, Note_on_c, 0, 65, 100
1, 55862, Note_off_c, 0, 65, 100
1, 55862, Note_on_c, 0, 70, 100
1, 56054, Note_off_c, 0, 70, 100
1, 56054, Note_on_c, 0, 65, 100
1, 56150, Note_off_c, 0, 65, 100
1, 56150, Note_on_c, 0, 70, 100
1, 56246, Note_off_c, 0, 70, 100
1, 56246, Note_on_c, 0, 68, 100
1, 56342, Note_off_c, 0, 68, 100
1, 56342, Note_on_c, 0, 68, 100
1, 56438, Note_off_c, 0, 68, 100
1, 56438, Note_on_c, 0, 67, 100
1, 56534, Note_off_c, 0, 67, 100
1, 56534, Note_on_c, 0, 66, 100
1, 56630, Note_off_c, 0, 66, 100
1, 56630, Note_on_c, 0, 65, 100
1, 56726, Note_off_c, 0, 65, 100
1, 56726, Note_on_c, 0, 64, 100
1, 56774, Note_off_c, 0, 64, 100
1, 56774, Note_on_c, 0, 63, 100
1, 56870, Note_off_c, 0, 63, 100
1, 56870, Note_on_c, 0, 66, 100
1, 56966, Note_off_c, 0, 66, 100
1, 56966, Note_on_c, 0, 64, 100
1, 57078, Note_off_c, 0, 64, 100
1, 57078, Note_on_c, 0, 62, 100
1, 57142, Note_off_c, 0, 62, 100
1, 57142, Note_on_c, 0, 63, 100
1, 57254, Note_off_c, 0, 63, 100
1, 57254, Note_on_c, 0, 61, 100
1, 57302, Note_off_c, 0, 61, 100
1, 57302, Note_on_c, 0, 62, 100
1, 57462, Note_off_c, 0, 62, 100
1, 57462, Note_on_c, 0, 61, 100
1, 57526, Note_off_c, 0, 61, 100
1, 57526, Note_on_c, 0, 62, 100
1, 57686, Note_off_c, 0, 62, 100
1, 57686, Note_on_c, 0, 64, 100
1, 57878, Note_off_c, 0, 64, 100
1, 58502, Note_on_c, 0, 67, 100
1, 58614, Note_off_c, 0, 67, 100
1, 58614, Note_on_c, 0, 68, 100
1, 58886, Note_off_c, 0, 68, 100
1, 58886, Note_on_c, 0, 70, 100
1, 59078, Note_off_c, 0, 70, 100
1, 59078, Note_on_c, 0, 65, 100
1, 59222, Note_off_c, 0, 65, 100
1, 59222, Note_on_c, 0, 70, 100
1, 59318, Note_off_c, 0, 70, 100
1, 59318, Note_on_c, 0, 68, 100
1, 59414, Note_off_c, 0, 68, 100
1, 59414, Note_on_c, 0, 66, 100
1, 59606, Note_off_c, 0, 66, 100
1, 59606, Note_on_c, 0, 66, 100
1, 59702, Note_off_c, 0, 66, 100
1, 59702, Note_on_c, 0, 65, 100
1, 59798, Note_off_c, 0, 65, 100
1, 60038, Note_on_c, 0, 69, 100
1, 60134, Note_off_c, 0, 69, 100
1, 60374, Note_on_c, 0, 70, 100
1, 60470, Note_off_c, 0, 70, 100
1, 60470, Note_on_c, 0, 68, 100
1, 60566, Note_off_c, 0, 68, 100
1, 61526, Note_on_c, 0, 78, 100
1, 61718, Note_off_c, 0, 78, 100
1, 61718, Note_on_c, 0, 78, 100
1, 61814, Note_off_c, 0, 78, 100
1, 61814, Note_on_c, 0, 81, 100
1, 61910, Note_off_c, 0, 81, 100
1, 61910, Note_on_c, 0, 78, 100
1, 62006, Note_off_c, 0, 78, 100
1, 62006, Note_on_c, 0, 78, 100
1, 62102, Note_off_c, 0, 78, 100
1, 62102, Note_on_c, 0, 74, 100
1, 62262, Note_off_c, 0, 74, 100
1, 62262, Note_on_c, 0, 71, 100
1, 62326, Note_off_c, 0, 71, 100
1, 62326, Note_on_c, 0, 76, 100
1, 62390, Note_off_c, 0, 76, 100
1, 62390, Note_on_c, 0, 77, 100
1, 62486, Note_off_c, 0, 77, 100
1, 62486, Note_on_c, 0, 78, 100
1, 62582, Note_off_c, 0, 78, 100
1, 62582, Note_on_c, 0, 76, 100
1, 62870, Note_off_c, 0, 76, 100
1, 63030, Note_on_c, 0, 74, 100
1, 63094, Note_off_c, 0, 74, 100
1, 63094, Note_on_c, 0, 75, 100
1, 63158, Note_off_c, 0, 75, 100
1, 63158, Note_on_c, 0, 74, 100
1, 63254, Note_off_c, 0, 74, 100
1, 63254, Note_on_c, 0, 73, 100
1, 63350, Note_off_c, 0, 73, 100
1, 63350, Note_on_c, 0, 70, 100
1, 63478, Note_off_c, 0, 70, 100
1, 63478, Note_on_c, 0, 72, 100
1, 63638, Note_off_c, 0, 72, 100
1, 63638, Note_on_c, 0, 75, 100
1, 63734, Note_off_c, 0, 75, 100
1, 63734, Note_on_c, 0, 73, 100
1, 63830, Note_off_c, 0, 73, 100
1, 63830, Note_on_c, 0, 74, 100
1, 63974, Note_off_c, 0, 74, 100
1, 63974, Note_on_c, 0, 70, 100
1, 64070, Note_off_c, 0, 70, 100
1, 64070, Note_on_c, 0, 66, 100
1, 64262, Note_off_c, 0, 66, 100
1, 64262, Note_on_c, 0, 69, 100
1, 64406, Note_off_c, 0, 69, 100
1, 64406, Note_on_c, 0, 65, 100
1, 64550, Note_off_c, 0, 65, 100
1, 64550, Note_on_c, 0, 70, 100
1, 64646, Note_off_c, 0, 70, 100
1, 64646, Note_on_c, 0, 69, 100
1, 64694, Note_off_c, 0, 69, 100
1, 64694, Note_on_c, 0, 66, 100
1, 64790, Note_off_c, 0, 66, 100
1, 64790, Note_on_c, 0, 62, 100
1, 64886, Note_off_c, 0, 62, 100
1, 64886, Note_on_c, 0, 65, 100
1, 64982, Note_off_c, 0, 65, 100
1, 64982, Note_on_c, 0, 64, 100
1, 65078, Note_off_c, 0, 64, 100
1, 65078, Note_on_c, 0, 66, 100
1, 65174, Note_off_c, 0, 66, 100
1, 65174, Note_on_c, 0, 69, 100
1, 65334, Note_off_c, 0, 69, 100
1, 65334, Note_on_c, 0, 71, 100
1, 65398, Note_off_c, 0, 71, 100
1, 65398, Note_on_c, 0, 73, 100
1, 65510, Note_off_c, 0, 73, 100
1, 65510, Note_on_c, 0, 76, 100
1, 65606, Note_off_c, 0, 76, 100
1, 65606, Note_on_c, 0, 77, 100
1, 65750, Note_off_c, 0, 77, 100
1, 65750, Note_on_c, 0, 78, 100
1, 65942, Note_off_c, 0, 78, 100
1, 65942, Note_on_c, 0, 77, 100
1, 66086, Note_off_c, 0, 77, 100
1, 66086, Note_on_c, 0, 76, 100
1, 66182, Note_off_c, 0, 76, 100
1, 66182, Note_on_c, 0, 75, 100
1, 66374, Note_off_c, 0, 75, 100
1, 66374, Note_on_c, 0, 73, 100
1, 66470, Note_off_c, 0, 73, 100
1, 66470, Note_on_c, 0, 71, 100
1, 66566, Note_off_c, 0, 71, 100
1, 66566, Note_on_c, 0, 70, 100
1, 66758, Note_off_c, 0, 70, 100
1, 66758, Note_on_c, 0, 69, 100
1, 66854, Note_off_c, 0, 69, 100
1, 66854, Note_on_c, 0, 68, 100
1, 66950, Note_off_c, 0, 68, 100
1, 66950, Note_on_c, 0, 67, 100
1, 67094, Note_off_c, 0, 67, 100
1, 67094, Note_on_c, 0, 66, 100
1, 67190, Note_off_c, 0, 66, 100
1, 67190, Note_on_c, 0, 65, 100
1, 67286, Note_off_c, 0, 65, 100
1, 67286, Note_on_c, 0, 65, 100
1, 67382, Note_off_c, 0, 65, 100
1, 67382, Note_on_c, 0, 64, 100
1, 67766, Note_off_c, 0, 64, 100
1, 67766, Note_on_c, 0, 63, 100
1, 68054, Note_off_c, 0, 63, 100
1, 68054, Note_on_c, 0, 63, 100
1, 68102, Note_off_c, 0, 63, 100
1, 68102, Note_on_c, 0, 61, 100
1, 68150, Note_off_c, 0, 61, 100
1, 68150, Note_on_c, 0, 63, 100
1, 68342, Note_off_c, 0, 63, 100
1, 68342, Note_on_c, 0, 59, 100
1, 68470, Note_off_c, 0, 59, 100
1, 68470, Note_on_c, 0, 58, 100
1, 68630, Note_off_c, 0, 58, 100
1, 68630, Note_on_c, 0, 56, 100
1, 68822, Note_off_c, 0, 56, 100
1, 68822, Note_on_c, 0, 58, 100
1, 69014, Note_off_c, 0, 58, 100
1, 69014, Note_on_c, 0, 60, 100
1, 69206, Note_off_c, 0, 60, 100
1, 69206, Note_on_c, 0, 61, 100
1, 69398, Note_off_c, 0, 61, 100
1, 78230, Note_on_c, 0, 60, 100
1, 78326, Note_off_c, 0, 60, 100
1, 78518, Note_on_c, 0, 62, 100
1, 78614, Note_off_c, 0, 62, 100
1, 78614, Note_on_c, 0, 62, 100
1, 78662, Note_off_c, 0, 62, 100
1, 78662, Note_on_c, 0, 63, 100
1, 78902, Note_off_c, 0, 63, 100
1, 78902, Note_on_c, 0, 65, 100
1, 79094, Note_off_c, 0, 65, 100
1, 79094, Note_on_c, 0, 65, 100
1, 79350, Note_off_c, 0, 65, 100
1, 79350, Note_on_c, 0, 65, 100
1, 79670, Note_off_c, 0, 65, 100
1, 79670, Note_on_c, 0, 65, 100
1, 79862, Note_off_c, 0, 65, 100
1, 79862, Note_on_c, 0, 64, 100
1, 79910, Note_off_c, 0, 64, 100
1, 79910, Note_on_c, 0, 65, 100
1, 79958, Note_off_c, 0, 65, 100
1, 79958, Note_on_c, 0, 66, 100
1, 80054, Note_off_c, 0, 66, 100
1, 80054, Note_on_c, 0, 65, 100
1, 80150, Note_off_c, 0, 65, 100
1, 80150, Note_on_c, 0, 62, 100
1, 80246, Note_off_c, 0, 62, 100
1, 80246, Note_on_c, 0, 65, 100
1, 80342, Note_off_c, 0, 65, 100
1, 80342, Note_on_c, 0, 67, 100
1, 80438, Note_off_c, 0, 67, 100
1, 80438, Note_on_c, 0, 69, 100
1, 80534, Note_off_c, 0, 69, 100
1, 80534, Note_on_c, 0, 68, 100
1, 80630, Note_off_c, 0, 68, 100
1, 80630, Note_on_c, 0, 67, 100
1, 80726, Note_off_c, 0, 67, 100
1, 80726, Note_on_c, 0, 66, 100
1, 80822, Note_off_c, 0, 66, 100
1, 80822, Note_on_c, 0, 65, 100
1, 80918, Note_off_c, 0, 65, 100
1, 80918, Note_on_c, 0, 64, 100
1, 81014, Note_off_c, 0, 64, 100
1, 81014, Note_on_c, 0, 63, 100
1, 81110, Note_off_c, 0, 63, 100
1, 81110, Note_on_c, 0, 67, 100
1, 81206, Note_off_c, 0, 67, 100
1, 81206, Note_on_c, 0, 64, 100
1, 81302, Note_off_c, 0, 64, 100
1, 81302, Note_on_c, 0, 65, 100
1, 81398, Note_off_c, 0, 65, 100
1, 81398, Note_on_c, 0, 67, 100
1, 81494, Note_off_c, 0, 67, 100
1, 81494, Note_on_c, 0, 69, 100
1, 81590, Note_off_c, 0, 69, 100
1, 81590, Note_on_c, 0, 72, 100
1, 81686, Note_off_c, 0, 72, 100
1, 81686, Note_on_c, 0, 74, 100
1, 81782, Note_off_c, 0, 74, 100
1, 81782, Note_on_c, 0, 75, 100
1, 81878, Note_off_c, 0, 75, 100
1, 81878, Note_on_c, 0, 73, 100
1, 81974, Note_off_c, 0, 73, 100
1, 81974, Note_on_c, 0, 74, 100
1, 82102, Note_off_c, 0, 74, 100
1, 82102, Note_on_c, 0, 70, 100
1, 82166, Note_off_c, 0, 70, 100
1, 82166, Note_on_c, 0, 66, 100
1, 82262, Note_off_c, 0, 66, 100
1, 82262, Note_on_c, 0, 62, 100
1, 82358, Note_off_c, 0, 62, 100
1, 82358, Note_on_c, 0, 69, 100
1, 82550, Note_off_c, 0, 69, 100
1, 82550, Note_on_c, 0, 65, 100
1, 82646, Note_off_c, 0, 65, 100
1, 82646, Note_on_c, 0, 69, 100
1, 82742, Note_off_c, 0, 69, 100
1, 82742, Note_on_c, 0, 68, 100
1, 82838, Note_off_c, 0, 68, 100
1, 82838, Note_on_c, 0, 67, 100
1, 82886, Note_off_c, 0, 67, 100
1, 82886, Note_on_c, 0, 66, 100
1, 82998, Note_off_c, 0, 66, 100
1, 82998, Note_on_c, 0, 62, 100
1, 83062, Note_off_c, 0, 62, 100
1, 83062, Note_on_c, 0, 65, 100
1, 83126, Note_off_c, 0, 65, 100
1, 83126, Note_on_c, 0, 64, 100
1, 83222, Note_off_c, 0, 64, 100
1, 83222, Note_on_c, 0, 66, 100
1, 83318, Note_off_c, 0, 66, 100
1, 83318, Note_on_c, 0, 67, 100
1, 83414, Note_off_c, 0, 67, 100
1, 83414, Note_on_c, 0, 69, 100
1, 83510, Note_off_c, 0, 69, 100
1, 83510, Note_on_c, 0, 73, 100
1, 83606, Note_off_c, 0, 73, 100
1, 83606, Note_on_c, 0, 72, 100
1, 83702, Note_off_c, 0, 72, 100
1, 83702, Note_on_c, 0, 70, 100
1, 83798, Note_off_c, 0, 70, 100
1, 84278, Note_on_c, 0, 77, 100
1, 84374, Note_off_c, 0, 77, 100
1, 84374, Note_on_c, 0, 74, 100
1, 84470, Note_off_c, 0, 74, 100
1, 84998, Note_on_c, 0, 75, 100
1, 85190, Note_off_c, 0, 75, 100
1, 85190, Note_on_c, 0, 72, 100
1, 85286, Note_off_c, 0, 72, 100
1, 85766, Note_on_c, 0, 76, 100
1, 85814, Note_off_c, 0, 76, 100
1, 85814, Note_on_c, 0, 79, 100
1, 86102, Note_off_c, 0, 79, 100
1, 86102, Note_on_c, 0, 76, 100
1, 86582, Note_off_c, 0, 76, 100
1, 86582, Note_on_c, 0, 74, 100
1, 86774, Note_off_c, 0, 74, 100
1, 86774, Note_on_c, 0, 70, 100
1, 86870, Note_off_c, 0, 70, 100
1, 87350, Note_on_c, 0, 78, 100
1, 87638, Note_off_c, 0, 78, 100
1, 87638, Note_on_c, 0, 75, 100
1, 88022, Note_off_c, 0, 75, 100
1, 88310, Note_on_c, 0, 66, 100
1, 88358, Note_off_c, 0, 66, 100
1, 88358, Note_on_c, 0, 68, 100
1, 88646, Note_off_c, 0, 68, 100
1, 88646, Note_on_c, 0, 66, 100
1, 88694, Note_off_c, 0, 66, 100
1, 88694, Note_on_c, 0, 65, 100
1, 88886, Note_off_c, 0, 65, 100
1, 88886, Note_on_c, 0, 81, 100
1, 89174, Note_off_c, 0, 81, 100
1, 89174, Note_on_c, 0, 80, 100
1, 89270, Note_off_c, 0, 80, 100
1, 89270, Note_on_c, 0, 79, 100
1, 89318, Note_off_c, 0, 79, 100
1, 89318, Note_on_c, 0, 78, 100
1, 89654, Note_off_c, 0, 78, 100
1, 89654, Note_on_c, 0, 79, 100
1, 89846, Note_off_c, 0, 79, 100
1, 89846, Note_on_c, 0, 76, 100
1, 89974, Note_off_c, 0, 76, 100
1, 89974, Note_on_c, 0, 79, 100
1, 90038, Note_off_c, 0, 79, 100
1, 90038, Note_on_c, 0, 78, 100
1, 90230, Note_off_c, 0, 78, 100
1, 90230, Note_on_c, 0, 75, 100
1, 90326, Note_off_c, 0, 75, 100
1, 90326, Note_on_c, 0, 78, 100
1, 90422, Note_off_c, 0, 78, 100
1, 90422, Note_on_c, 0, 77, 100
1, 90566, Note_off_c, 0, 77, 100
1, 90566, Note_on_c, 0, 74, 100
1, 90710, Note_off_c, 0, 74, 100
1, 90710, Note_on_c, 0, 77, 100
1, 90758, Note_off_c, 0, 77, 100
1, 90758, Note_on_c, 0, 76, 100
1, 90998, Note_off_c, 0, 76, 100
1, 90998, Note_on_c, 0, 73, 100
1, 91190, Note_off_c, 0, 73, 100
1, 91190, Note_on_c, 0, 75, 100
1, 91446, Note_off_c, 0, 75, 100
1, 91446, Note_on_c, 0, 75, 100
1, 91574, Note_off_c, 0, 75, 100
1, 91574, Note_on_c, 0, 75, 100
1, 91718, Note_off_c, 0, 75, 100
1, 91718, Note_on_c, 0, 75, 100
1, 91862, Note_off_c, 0, 75, 100
1, 91862, Note_on_c, 0, 75, 100
1, 91958, Note_off_c, 0, 75, 100
1, 91958, Note_on_c, 0, 75, 100
1, 92054, Note_off_c, 0, 75, 100
1, 92054, Note_on_c, 0, 73, 100
1, 92150, Note_off_c, 0, 73, 100
1, 92150, Note_on_c, 0, 75, 100
1, 92188, Note_off_c, 0, 75, 100
1, 92188, Note_on_c, 0, 78, 100
1, 92264, Note_off_c, 0, 78, 100
1, 92264, Note_on_c, 0, 76, 100
1, 92302, Note_off_c, 0, 76, 100
1, 92302, Note_on_c, 0, 74, 100
1, 92340, Note_off_c, 0, 74, 100
1, 92340, Note_on_c, 0, 70, 100
1, 92404, Note_off_c, 0, 70, 100
1, 92404, Note_on_c, 0, 68, 100
1, 92468, Note_off_c, 0, 68, 100
1, 92468, Note_on_c, 0, 70, 100
1, 92532, Note_off_c, 0, 70, 100
1, 92532, Note_on_c, 0, 72, 100
1, 92570, Note_off_c, 0, 72, 100
1, 92570, Note_on_c, 0, 73, 100
1, 92608, Note_off_c, 0, 73, 100
1, 92608, Note_on_c, 0, 75, 100
1, 92646, Note_off_c, 0, 75, 100
1, 92646, Note_on_c, 0, 73, 100
1, 92770, Note_off_c, 0, 73, 100
1, 92770, Note_on_c, 0, 70, 100
1, 92866, Note_off_c, 0, 70, 100
1, 92866, Note_on_c, 0, 62, 100
1, 92962, Note_off_c, 0, 62, 100
1, 92962, Note_on_c, 0, 66, 100
1, 93010, Note_off_c, 0, 66, 100
1, 93010, Note_on_c, 0, 69, 100
1, 93058, Note_off_c, 0, 69, 100
1, 93058, Note_on_c, 0, 74, 100
1, 93106, Note_off_c, 0, 74, 100
1, 93106, Note_on_c, 0, 73, 100
1, 93170, Note_off_c, 0, 73, 100
1, 93170, Note_on_c, 0, 70, 100
1, 93234, Note_off_c, 0, 70, 100
1, 93234, Note_on_c, 0, 67, 100
1, 93298, Note_off_c, 0, 67, 100
1, 93298, Note_on_c, 0, 69, 100
1, 93362, Note_off_c, 0, 69, 100
1, 93362, Note_on_c, 0, 61, 100
1, 93426, Note_off_c, 0, 61, 100
1, 93426, Note_on_c, 0, 65, 100
1, 93490, Note_off_c, 0, 65, 100
1, 93490, Note_on_c, 0, 60, 100
1, 93538, Note_off_c, 0, 60, 100
1, 93538, Note_on_c, 0, 58, 100
1, 93682, Note_off_c, 0, 58, 100
1, 93682, Note_on_c, 0, 70, 100
1, 93746, Note_off_c, 0, 70, 100
1, 93746, Note_on_c, 0, 64, 100
1, 93810, Note_off_c, 0, 64, 100
1, 93810, Note_on_c, 0, 65, 100
1, 93874, Note_off_c, 0, 65, 100
1, 93874, Note_on_c, 0, 66, 100
1, 93922, Note_off_c, 0, 66, 100
1, 93922, Note_on_c, 0, 69, 100
1, 93970, Note_off_c, 0, 69, 100
1, 93970, Note_on_c, 0, 70, 100
1, 94018, Note_off_c, 0, 70, 100
1, 94018, Note_on_c, 0, 75, 100
1, 94066, Note_off_c, 0, 75, 100
1, 94066, Note_on_c, 0, 72, 100
1, 94130, Note_off_c, 0, 72, 100
1, 94130, Note_on_c, 0, 70, 100
1, 94194, Note_off_c, 0, 70, 100
1, 94194, Note_on_c, 0, 67, 100
1, 94258, Note_off_c, 0, 67, 100
1, 94258, Note_on_c, 0, 68, 100
1, 94296, Note_off_c, 0, 68, 100
1, 94296, Note_on_c, 0, 70, 100
1, 94372, Note_off_c, 0, 70, 100
1, 94372, Note_on_c, 0, 72, 100
1, 94410, Note_off_c, 0, 72, 100
1, 94410, Note_on_c, 0, 75, 100
1, 94448, Note_off_c, 0, 75, 100
1, 94448, Note_on_c, 0, 79, 100
1, 94496, Note_off_c, 0, 79, 100
1, 94496, Note_on_c, 0, 82, 100
1, 94544, Note_off_c, 0, 82, 100
1, 94544, Note_on_c, 0, 84, 100
1, 94592, Note_off_c, 0, 84, 100
1, 94592, Note_on_c, 0, 87, 100
1, 94640, Note_off_c, 0, 87, 100
1, 94640, Note_on_c, 0, 85, 100
1, 94704, Note_off_c, 0, 85, 100
1, 94704, Note_on_c, 0, 83, 100
1, 94768, Note_off_c, 0, 83, 100
1, 94768, Note_on_c, 0, 82, 100
1, 94880, Note_off_c, 0, 82, 100
1, 94880, Note_on_c, 0, 73, 100
1, 94976, Note_off_c, 0, 73, 100
1, 94976, Note_on_c, 0, 82, 100
1, 95024, Note_off_c, 0, 82, 100
1, 95024, Note_on_c, 0, 83, 100
1, 95088, Note_off_c, 0, 83, 100
1, 95088, Note_on_c, 0, 74, 100
1, 95152, Note_off_c, 0, 74, 100
1, 95152, Note_on_c, 0, 73, 100
1, 95216, Note_off_c, 0, 73, 100
1, 95216, Note_on_c, 0, 74, 100
1, 95312, Note_off_c, 0, 74, 100
1, 95312, Note_on_c, 0, 83, 100
1, 95408, Note_off_c, 0, 83, 100
1, 95408, Note_on_c, 0, 77, 100
1, 95504, Note_off_c, 0, 77, 100
1, 95504, Note_on_c, 0, 72, 100
1, 95600, Note_off_c, 0, 72, 100
1, 101888, Note_on_c, 0, 85, 100
1, 101936, Note_off_c, 0, 85, 100
1, 101936, Note_on_c, 0, 87, 100
1, 102064, Note_off_c, 0, 87, 100
1, 102064, Note_on_c, 0, 88, 100
1, 102320, Note_off_c, 0, 88, 100
1, 102320, Note_on_c, 0, 91, 100
1, 102512, Note_off_c, 0, 91, 100
1, 102512, Note_on_c, 0, 88, 100
1, 102608, Note_off_c, 0, 88, 100
1, 103136, Note_on_c, 0, 86, 100
1, 103184, Note_off_c, 0, 86, 100
1, 103184, Note_on_c, 0, 88, 100
1, 103280, Note_off_c, 0, 88, 100
1, 103280, Note_on_c, 0, 88, 100
1, 103664, Note_off_c, 0, 88, 100
1, 103664, Note_on_c, 0, 91, 100
1, 103760, Note_off_c, 0, 91, 100
1, 104528, Note_on_c, 0, 83, 100
1, 104672, Note_off_c, 0, 83, 100
1, 104672, Note_on_c, 0, 87, 100
1, 104768, Note_off_c, 0, 87, 100
1, 104768, Note_on_c, 0, 88, 100
1, 105456, Note_off_c, 0, 88, 100
1, 105456, Note_on_c, 0, 91, 100
1, 105520, Note_off_c, 0, 91, 100
1, 105520, Note_on_c, 0, 90, 100
1, 105584, Note_off_c, 0, 90, 100
1, 105584, Note_on_c, 0, 91, 100
1, 105680, Note_off_c, 0, 91, 100
1, 105680, Note_on_c, 0, 88, 100
1, 105776, Note_off_c, 0, 88, 100
1, 105776, Note_on_c, 0, 87, 100
1, 105840, Note_off_c, 0, 87, 100
1, 105840, Note_on_c, 0, 86, 100
1, 105904, Note_off_c, 0, 86, 100
1, 105904, Note_on_c, 0, 85, 100
1, 106016, Note_off_c, 0, 85, 100
1, 106016, Note_on_c, 0, 81, 100
1, 106064, Note_off_c, 0, 81, 100
1, 106064, Note_on_c, 0, 83, 100
1, 106160, Note_off_c, 0, 83, 100
1, 106160, Note_on_c, 0, 86, 100
1, 106256, Note_off_c, 0, 86, 100
1, 106256, Note_on_c, 0, 87, 100
1, 106304, Note_off_c, 0, 87, 100
1, 106304, Note_on_c, 0, 89, 100
1, 106352, Note_off_c, 0, 89, 100
1, 106352, Note_on_c, 0, 91, 100
1, 106400, Note_off_c, 0, 91, 100
1, 106400, Note_on_c, 0, 90, 100
1, 106448, Note_off_c, 0, 90, 100
1, 106448, Note_on_c, 0, 91, 100
1, 106544, Note_off_c, 0, 91, 100
1, 106544, Note_on_c, 0, 90, 100
1, 107648, Note_off_c, 0, 90, 100
1, 107648, Note_on_c, 0, 89, 100
1, 107696, Note_off_c, 0, 89, 100
1, 107696, Note_on_c, 0, 88, 100
1, 107792, Note_off_c, 0, 88, 100
1, 107792, Note_on_c, 0, 84, 100
1, 107888, Note_off_c, 0, 84, 100
1, 107888, Note_on_c, 0, 85, 100
1, 108080, Note_off_c, 0, 85, 100
1, 109184, Note_on_c, 0, 81, 100
1, 109376, Note_off_c, 0, 81, 100
1, 109376, Note_on_c, 0, 81, 100
1, 109520, Note_off_c, 0, 81, 100
1, 109520, Note_on_c, 0, 78, 100
1, 109616, Note_off_c, 0, 78, 100
1, 109616, Note_on_c, 0, 81, 100
1, 109712, Note_off_c, 0, 81, 100
1, 109712, Note_on_c, 0, 84, 100
1, 109808, Note_off_c, 0, 84, 100
1, 109808, Note_on_c, 0, 83, 100
1, 109904, Note_off_c, 0, 83, 100
1, 109904, Note_on_c, 0, 82, 100
1, 110000, Note_off_c, 0, 82, 100
1, 110000, Note_on_c, 0, 81, 100
1, 110096, Note_off_c, 0, 81, 100
1, 110096, Note_on_c, 0, 78, 100
1, 110192, Note_off_c, 0, 78, 100
1, 110192, Note_on_c, 0, 74, 100
1, 110268, Note_off_c, 0, 74, 100
1, 110268, Note_on_c, 0, 75, 100
1, 110306, Note_off_c, 0, 75, 100
1, 110306, Note_on_c, 0, 78, 100
1, 110344, Note_off_c, 0, 78, 100
1, 110344, Note_on_c, 0, 81, 100
1, 110446, Note_off_c, 0, 81, 100
1, 110446, Note_on_c, 0, 79, 100
1, 110510, Note_off_c, 0, 79, 100
1, 110510, Note_on_c, 0, 78, 100
1, 110622, Note_off_c, 0, 78, 100
1, 110622, Note_on_c, 0, 81, 100
1, 110718, Note_off_c, 0, 81, 100
1, 110718, Note_on_c, 0, 80, 100
1, 110766, Note_off_c, 0, 80, 100
1, 110766, Note_on_c, 0, 78, 100
1, 110862, Note_off_c, 0, 78, 100
1, 110862, Note_on_c, 0, 73, 100
1, 111022, Note_off_c, 0, 73, 100
1, 111022, Note_on_c, 0, 71, 100
1, 111086, Note_off_c, 0, 71, 100
1, 111086, Note_on_c, 0, 76, 100
1, 111246, Note_off_c, 0, 76, 100
1, 111246, Note_on_c, 0, 77, 100
1, 111294, Note_off_c, 0, 77, 100
1, 111294, Note_on_c, 0, 79, 100
1, 111438, Note_off_c, 0, 79, 100
1, 111438, Note_on_c, 0, 78, 100
1, 111534, Note_off_c, 0, 78, 100
1, 111534, Note_on_c, 0, 77, 100
1, 111630, Note_off_c, 0, 77, 100
1, 111630, Note_on_c, 0, 76, 100
1, 111726, Note_off_c, 0, 76, 100
1, 111726, Note_on_c, 0, 75, 100
1, 111822, Note_off_c, 0, 75, 100
1, 111822, Note_on_c, 0, 79, 100
1, 111918, Note_off_c, 0, 79, 100
1, 111918, Note_on_c, 0, 77, 100
1, 112014, Note_off_c, 0, 77, 100
1, 112014, Note_on_c, 0, 74, 100
1, 112110, Note_off_c, 0, 74, 100
1, 112110, Note_on_c, 0, 70, 100
1, 112206, Note_off_c, 0, 70, 100
1, 112206, Note_on_c, 0, 67, 100
1, 112302, Note_off_c, 0, 67, 100
1, 112302, Note_on_c, 0, 75, 100
1, 112398, Note_off_c, 0, 75, 100
1, 112398, Note_on_c, 0, 73, 100
1, 112494, Note_off_c, 0, 73, 100
1, 112494, Note_on_c, 0, 69, 100
1, 112590, Note_off_c, 0, 69, 100
1, 112590, Note_on_c, 0, 66, 100
1, 112638, Note_off_c, 0, 66, 100
1, 112638, Note_on_c, 0, 70, 100
1, 112750, Note_off_c, 0, 70, 100
1, 112750, Note_on_c, 0, 61, 100
1, 112814, Note_off_c, 0, 61, 100
1, 112814, Note_on_c, 0, 66, 100
1, 112974, Note_off_c, 0, 66, 100
1, 112974, Note_on_c, 0, 70, 100
1, 113070, Note_off_c, 0, 70, 100
1, 113070, Note_on_c, 0, 68, 100
1, 113166, Note_off_c, 0, 68, 100
1, 113166, Note_on_c, 0, 67, 100
1, 113262, Note_off_c, 0, 67, 100
1, 113262, Note_on_c, 0, 66, 100
1, 113454, Note_off_c, 0, 66, 100
1, 113454, Note_on_c, 0, 65, 100
1, 113550, Note_off_c, 0, 65, 100
1, 113550, Note_on_c, 0, 65, 100
1, 113742, Note_off_c, 0, 65, 100
1, 113742, Note_on_c, 0, 65, 100
1, 113838, Note_off_c, 0, 65, 100
1, 113838, Note_on_c, 0, 65, 100
1, 113982, Note_off_c, 0, 65, 100
1, 113982, Note_on_c, 0, 65, 100
1, 114126, Note_off_c, 0, 65, 100
1, 114126, Note_on_c, 0, 65, 100
1, 114222, Note_off_c, 0, 65, 100
1, 114222, Note_on_c, 0, 65, 100
1, 114333, Note_off_c, 0, 65, 100
1, 114333, End_track
0, 0, End_of_file
