0, 0, Header, 1, 1, 192
1, 0, Start_track
1, 0, Title_t, "Melody"
1, 0, Tempo, 229885
1, 0, Key_signature, -3, "major"
1, 0, Time_signature, 4, 2, 24, 8
1, 384, Note_on_c, 0, 71, 100
1, 576, Note_off_c, 0, 71, 100
1, 576, Note_on_c, 0, 78, 100
1, 672, Note_off_c, 0, 78, 100
1, 672, Note_on_c, 0, 75, 100
1, 864, Note_off_c, 0, 75, 100
1, 864, Note_on_c, 0, 71, 100
1, 3264, Note_off_c, 0, 71, 100
1, 3264, Note_on_c, 0, 66, 100
1, 3360, Note_off_c, 0, 66, 100
1, 3360, Note_on_c, 0, 70, 100
1, 3504, Note_off_c, 0, 70, 100
1, 3504, Note_on_c, 0, 65, 100
1, 3600, Note_off_c, 0, 65, 100
1, 3600, Note_on_c, 0, 66, 100
1, 3712, Note_off_c, 0, 66, 100
1, 3712, Note_on_c, 0, 71, 100
1, 3776, Note_off_c, 0, 71, 100
1, 3776, Note_on_c, 0, 72, 100
1, 3840, Note_off_c, 0, 72, 100
1, 3840, Note_on_c, 0, 75, 100
1, 3936, Note_off_c, 0, 75, 100
1, 3936, Note_on_c, 0, 77, 100
1, 4032, Note_off_c, 0, 77, 100
1, 4032, Note_on_c, 0, 78, 100
1, 4160, Note_off_c, 0, 78, 100
1, 4160, Note_on_c, 0, 75, 100
1, 4224, Note_off_c, 0, 75, 100
1, 4224, Note_on_c, 0, 77, 100
1, 4320, Note_off_c, 0, 77, 100
1, 4320, Note_on_c, 0, 75, 100
1, 4416, Note_off_c, 0, 75, 100
1, 4416, Note_on_c, 0, 72, 100
1, 4512, Note_off_c, 0, 72, 100
1, 4512, Note_on_c, 0, 71, 100
1, 4608, Note_off_c, 0, 71, 100
1, 4608, Note_on_c, 0, 75, 100
1, 4704, Note_off_c, 0, 75, 100
1, 4704, Note_on_c, 0, 71, 100
1, 4800, Note_off_c, 0, 71, 100
1, 4800, Note_on_c, 0, 66, 100
1, 4896, Note_off_c, 0, 66, 100
1, 4896, Note_on_c, 0, 63, 100
1, 4944, Note_off_c, 0, 63, 100
1, 4944, Note_on_c, 0, 62, 100
1, 4992, Note_off_c, 0, 62, 100
1, 4992, Note_on_c, 0, 67, 100
1, 5088, Note_off_c, 0, 67, 100
1, 5088, Note_on_c, 0, 71, 100
1, 5184, Note_off_c, 0, 71, 100
1, 5184, Note_on_c, 0, 75, 100
1, 5328, Note_off_c, 0, 75, 100
1, 5328, Note_on_c, 0, 71, 100
1, 6336, Note_off_c, 0, 71, 100
1, 6336, Note_on_c, 0, 68, 100
1, 6432, Note_off_c, 0, 68, 100
1, 6432, Note_on_c, 0, 71, 100
1, 6528, Note_off_c, 0, 71, 100
1, 6528, Note_on_c, 0, 68, 100
1, 6624, Note_off_c, 0, 68, 100
1, 6624, Note_on_c, 0, 66, 100
1, 6720, Note_off_c, 0, 66, 100
1, 6720, Note_on_c, 0, 63, 100
1, 6816, Note_off_c, 0, 63, 100
1, 6816, Note_on_c, 0, 66, 100
1, 6912, Note_off_c, 0, 66, 100
1, 6912, Note_on_c, 0, 68, 100
1, 7008, Note_off_c, 0, 68, 100
1, 7008, Note_on_c, 0, 71, 100
1, 7104, Note_off_c, 0, 71, 100
1, 7104, Note_on_c, 0, 73, 100
1, 7232, Note_off_c, 0, 73, 100
1, 7232, Note_on_c, 0, 75, 100
1, 7296, Note_off_c, 0, 75, 100
1, 7296, Note_on_c, 0, 78, 100
1, 7392, Note_off_c, 0, 78, 100
1, 7392, Note_on_c, 0, 73, 100
1, 7488, Note_off_c, 0, 73, 100
1, 7488, Note_on_c, 0, 75, 100
1, 7584, Note_off_c, 0, 75, 100
1, 7584, Note_on_c, 0, 78, 100
1, 7680, Note_off_c, 0, 78, 100
1, 7680, Note_on_c, 0, 75, 100
1, 7872, Note_off_c, 0, 75, 100
1, 7872, Note_on_c, 0, 72, 100
1, 8064, Note_off_c, 0, 72, 100
1, 8064, Note_on_c, 0, 71, 100
1, 8256, Note_off_c, 0, 71, 100
1, 8256, Note_on_c, 0, 68, 100
1, 8384, Note_off_c, 0, 68, 100
1, 8384, Note_on_c, 0, 66, 100
1, 8736, Note_off_c, 0, 66, 100
1, 8736, Note_on_c, 0, 72, 100
1, 8832, Note_off_c, 0, 72, 100
1, 8832, Note_on_c, 0, 68, 100
1, 9024, Note_off_c, 0, 68, 100
1, 9024, Note_on_c, 0, 71, 100
1, 9168, Note_off_c, 0, 71, 100
1, 9168, Note_on_c, 0, 67, 100
1, 9600, Note_off_c, 0, 67, 100
1, 9600, Note_on_c, 0, 66, 100
1, 9696, Note_off_c, 0, 66, 100
1, 9696, Note_on_c, 0, 65, 100
1, 9792, Note_off_c, 0, 65, 100
1, 9792, Note_on_c, 0, 64, 100
1, 9840, Note_off_c, 0, 64, 100
1, 9840, Note_on_c, 0, 63, 100
1, 9936, Note_off_c, 0, 63, 100
1, 9936, Note_on_c, 0, 65, 100
1, 9984, Note_off_c, 0, 65, 100
1, 9984, Note_on_c, 0, 63, 100
1, 10080, Note_off_c, 0, 63, 100
1, 10080, Note_on_c, 0, 65, 100
1, 10176, Note_off_c, 0, 65, 100
1, 10176, Note_on_c, 0, 67, 100
1, 10272, Note_off_c, 0, 67, 100
1, 10272, Note_on_c, 0, 63, 100
1, 10368, Note_off_c, 0, 63, 100
1, 10368, Note_on_c, 0, 65, 100
1, 10608, Note_off_c, 0, 65, 100
1, 10608, Note_on_c, 0, 60, 100
1, 10752, Note_off_c, 0, 60, 100
1, 10752, Note_on_c, 0, 63, 100
1, 10992, Note_off_c, 0, 63, 100
1, 10992, Note_on_c, 0, 58, 100
1, 11136, Note_off_c, 0, 58, 100
1, 11136, Note_on_c, 0, 60, 100
1, 11424, Note_off_c, 0, 60, 100
1, 11424, Note_on_c, 0, 61, 100
1, 11904, Note_off_c, 0, 61, 100
1, 14160, Note_on_c, 0, 67, 100
1, 14304, Note_off_c, 0, 67, 100
1, 14304, Note_on_c, 0, 70, 100
1, 14400, Note_off_c, 0, 70, 100
1, 14400, Note_on_c, 0, 68, 100
1, 14544, Note_off_c, 0, 68, 100
1, 14544, Note_on_c, 0, 67, 100
1, 14976, Note_off_c, 0, 67, 100
1, 14976, Note_on_c, 0, 65, 100
1, 15072, Note_off_c, 0, 65, 100
1, 15072, Note_on_c, 0, 64, 100
1, 15168, Note_off_c, 0, 64, 100
1, 15168, Note_on_c, 0, 65, 100
1, 15264, Note_off_c, 0, 65, 100
1, 15264, Note_on_c, 0, 67, 100
1, 15360, Note_off_c, 0, 67, 100
1, 15360, Note_on_c, 0, 68, 100
1, 15488, Note_off_c, 0, 68, 100
1, 15488, Note_on_c, 0, 70, 100
1, 15552, Note_off_c, 0, 70, 100
1, 15552, Note_on_c, 0, 72, 100
1, 15648, Note_off_c, 0, 72, 100
1, 15648, Note_on_c, 0, 74, 100
1, 15744, Note_off_c, 0, 74, 100
1, 15744, Note_on_c, 0, 77, 100
1, 15840, Note_off_c, 0, 77, 100
1, 15840, Note_on_c, 0, 76, 100
1, 15936, Note_off_c, 0, 76, 100
1, 15936, Note_on_c, 0, 77, 100
1, 16032, Note_off_c, 0, 77, 100
1, 16032, Note_on_c, 0, 79, 100
1, 16128, Note_off_c, 0, 79, 100
1, 16128, Note_on_c, 0, 80, 100
1, 16224, Note_off_c, 0, 80, 100
1, 16224, Note_on_c, 0, 79, 100
1, 16320, Note_off_c, 0, 79, 100
1, 16320, Note_on_c, 0, 78, 100
1, 16416, Note_off_c, 0, 78, 100
1, 16416, Note_on_c, 0, 76, 100
1, 16464, Note_off_c, 0, 76, 100
1, 16464, Note_on_c, 0, 77, 100
1, 16608, Note_off_c, 0, 77, 100
1, 16608, Note_on_c, 0, 76, 100
1, 16704, Note_off_c, 0, 76, 100
1, 16704, Note_on_c, 0, 75, 100
1, 16800, Note_off_c, 0, 75, 100
1, 16800, Note_on_c, 0, 78, 100
1, 16896, Note_off_c, 0, 78, 100
1, 16896, Note_on_c, 0, 74, 100
1, 16992, Note_off_c, 0, 74, 100
1, 16992, Note_on_c, 0, 75, 100
1, 17088, Note_off_c, 0, 75, 100
1, 17088, Note_on_c, 0, 74, 100
1, 17184, Note_off_c, 0, 74, 100
1, 17184, Note_on_c, 0, 75, 100
1, 17280, Note_off_c, 0, 75, 100
1, 17280, Note_on_c, 0, 74, 100
1, 17376, Note_off_c, 0, 74, 100
1, 17376, Note_on_c, 0, 75, 100
1, 17472, Note_off_c, 0, 75, 100
1, 17472, Note_on_c, 0, 73, 100
1, 17568, Note_off_c, 0, 73, 100
1, 17568, Note_on_c, 0, 75, 100
1, 17664, Note_off_c, 0, 75, 100
1, 17664, Note_on_c, 0, 73, 100
1, 18000, Note_off_c, 0, 73, 100
1, 18000, Note_on_c, 0, 71, 100
1, 18048, Note_off_c, 0, 71, 100
1, 18048, Note_on_c, 0, 73, 100
1, 18144, Note_off_c, 0, 73, 100
1, 18144, Note_on_c, 0, 71, 100
1, 18192, Note_off_c, 0, 71, 100
1, 18192, Note_on_c, 0, 73, 100
1, 18336, Note_off_c, 0, 73, 100
1, 18336, Note_on_c, 0, 75, 100
1, 18432, Note_off_c, 0, 75, 100
1, 18432, Note_on_c, 0, 77, 100
1, 18528, Note_off_c, 0, 77, 100
1, 18528, Note_on_c, 0, 75, 100
1, 18624, Note_off_c, 0, 75, 100
1, 18624, Note_on_c, 0, 73, 100
1, 18720, Note_off_c, 0, 73, 100
1, 18720, Note_on_c, 0, 71, 100
1, 18816, Note_off_c, 0, 71, 100
1, 18816, Note_on_c, 0, 69, 100
1, 18960, Note_off_c, 0, 69, 100
1, 18960, Note_on_c, 0, 66, 100
1, 19152, Note_off_c, 0, 66, 100
1, 19152, Note_on_c, 0, 69, 100
1, 19344, Note_off_c, 0, 69, 100
1, 19344, Note_on_c, 0, 71, 100
1, 19584, Note_off_c, 0, 71, 100
1, 19584, Note_on_c, 0, 73, 100
1, 19776, Note_off_c, 0, 73, 100
1, 19776, Note_on_c, 0, 71, 100
1, 19872, Note_off_c, 0, 71, 100
1, 19872, Note_on_c, 0, 69, 100
1, 20304, Note_off_c, 0, 69, 100
1, 20304, Note_on_c, 0, 66, 100
1, 20352, Note_off_c, 0, 66, 100
1, 20352, Note_on_c, 0, 69, 100
1, 20448, Note_off_c, 0, 69, 100
1, 20448, Note_on_c, 0, 69, 100
1, 20544, Note_off_c, 0, 69, 100
1, 20544, Note_on_c, 0, 66, 100
1, 20672, Note_off_c, 0, 66, 100
1, 20672, Note_on_c, 0, 61, 100
1, 20736, Note_off_c, 0, 61, 100
1, 20736, Note_on_c, 0, 63, 100
1, 20928, Note_off_c, 0, 63, 100
1, 20928, Note_on_c, 0, 63, 100
1, 21120, Note_off_c, 0, 63, 100
1, 21120, Note_on_c, 0, 63, 100
1, 21216, Note_off_c, 0, 63, 100
1, 24720, Note_on_c, 0, 67, 100
1, 24864, Note_off_c, 0, 67, 100
1, 24864, Note_on_c, 0, 70, 100
1, 24912, Note_off_c, 0, 70, 100
1, 24912, Note_on_c, 0, 72, 100
1, 25056, Note_off_c, 0, 72, 100
1, 25056, Note_on_c, 0, 75, 100
1, 25104, Note_off_c, 0, 75, 100
1, 25104, Note_on_c, 0, 77, 100
1, 25248, Note_off_c, 0, 77, 100
1, 25248, Note_on_c, 0, 75, 100
1, 25632, Note_off_c, 0, 75, 100
1, 26256, Note_on_c, 0, 75, 100
1, 26400, Note_off_c, 0, 75, 100
1, 26400, Note_on_c, 0, 77, 100
1, 26496, Note_off_c, 0, 77, 100
1, 26496, Note_on_c, 0, 79, 100
1, 26592, Note_off_c, 0, 79, 100
1, 26592, Note_on_c, 0, 82, 100
1, 26688, Note_off_c, 0, 82, 100
1, 26688, Note_on_c, 0, 84, 100
1, 26816, Note_off_c, 0, 84, 100
1, 26816, Note_on_c, 0, 85, 100
1, 27008, Note_off_c, 0, 85, 100
1, 29664, Note_on_c, 0, 79, 100
1, 29760, Note_off_c, 0, 79, 100
1, 29760, Note_on_c, 0, 82, 100
1, 29856, Note_off_c, 0, 82, 100
1, 29856, Note_on_c, 0, 84, 100
1, 29952, Note_off_c, 0, 84, 100
1, 29952, Note_on_c, 0, 85, 100
1, 30048, Note_off_c, 0, 85, 100
1, 30048, Note_on_c, 0, 84, 100
1, 30144, Note_off_c, 0, 84, 100
1, 30144, Note_on_c, 0, 85, 100
1, 30240, Note_off_c, 0, 85, 100
1, 30240, Note_on_c, 0, 84, 100
1, 30336, Note_off_c, 0, 84, 100
1, 30336, Note_on_c, 0, 85, 100
1, 30432, Note_off_c, 0, 85, 100
1, 30432, Note_on_c, 0, 84, 100
1, 30528, Note_off_c, 0, 84, 100
1, 30528, Note_on_c, 0, 82, 100
1, 30672, Note_off_c, 0, 82, 100
1, 30672, Note_on_c, 0, 80, 100
1, 30784, Note_off_c, 0, 80, 100
1, 30784, Note_on_c, 0, 79, 100
1, 30848, Note_off_c, 0, 79, 100
1, 30848, Note_on_c, 0, 80, 100
1, 30976, Note_off_c, 0, 80, 100
1, 30976, Note_on_c, 0, 79, 100
1, 31040, Note_off_c, 0, 79, 100
1, 31040, Note_on_c, 0, 80, 100
1, 31200, Note_off_c, 0, 80, 100
1, 31200, Note_on_c, 0, 79, 100
1, 31296, Note_off_c, 0, 79, 100
1, 31296, Note_on_c, 0, 78, 100
1, 31392, Note_off_c, 0, 78, 100
1, 31392, Note_on_c, 0, 75, 100
1, 31488, Note_off_c, 0, 75, 100
1, 31488, Note_on_c, 0, 78, 100
1, 31632, Note_off_c, 0, 78, 100
1, 31632, Note_on_c, 0, 77, 100
1, 31680, Note_off_c, 0, 77, 100
1, 31680, Note_on_c, 0, 78, 100
1, 31824, Note_off_c, 0, 78, 100
1, 31824, Note_on_c, 0, 77, 100
1, 31872, Note_off_c, 0, 77, 100
1, 31872, Note_on_c, 0, 75, 100
1, 32064, Note_off_c, 0, 75, 100
1, 32064, Note_on_c, 0, 73, 100
1, 32256, Note_off_c, 0, 73, 100
1, 32256, Note_on_c, 0, 73, 100
1, 32384, Note_off_c, 0, 73, 100
1, 32384, Note_on_c, 0, 72, 100
1, 32448, Note_off_c, 0, 72, 100
1, 32448, Note_on_c, 0, 70, 100
1, 32544, Note_off_c, 0, 70, 100
1, 32544, Note_on_c, 0, 67, 100
1, 32640, Note_off_c, 0, 67, 100
1, 32640, Note_on_c, 0, 65, 100
1, 32928, Note_off_c, 0, 65, 100
1, 32928, Note_on_c, 0, 66, 100
1, 33744, Note_off_c, 0, 66, 100
1, 33744, Note_on_c, 0, 65, 100
1, 33888, Note_off_c, 0, 65, 100
1, 33888, Note_on_c, 0, 64, 100
1, 33984, Note_off_c, 0, 64, 100
1, 33984, Note_on_c, 0, 63, 100
1, 34112, Note_off_c, 0, 63, 100
1, 34112, Note_on_c, 0, 65, 100
1, 34224, Note_off_c, 0, 65, 100
1, 34224, Note_on_c, 0, 63, 100
1, 34320, Note_off_c, 0, 63, 100
1, 34320, Note_on_c, 0, 65, 100
1, 34368, Note_off_c, 0, 65, 100
1, 34368, Note_on_c, 0, 67, 100
1, 34464, Note_off_c, 0, 67, 100
1, 34464, Note_on_c, 0, 63, 100
1, 34560, Note_off_c, 0, 63, 100
1, 34560, Note_on_c, 0, 66, 100
1, 34656, Note_off_c, 0, 66, 100
1, 34656, Note_on_c, 0, 65, 100
1, 34752, Note_off_c, 0, 65, 100
1, 34752, Note_on_c, 0, 60, 100
1, 34896, Note_off_c, 0, 60, 100
1, 34896, Note_on_c, 0, 63, 100
1, 35088, Note_off_c, 0, 63, 100
1, 35088, Note_on_c, 0, 65, 100
1, 35328, Note_off_c, 0, 65, 100
1, 35328, Note_on_c, 0, 66, 100
1, 35424, Note_off_c, 0, 66, 100
1, 35424, Note_on_c, 0, 67, 100
1, 35520, Note_off_c, 0, 67, 100
1, 35520, Note_on_c, 0, 70, 100
1, 35712, Note_off_c, 0, 70, 100
1, 35712, Note_on_c, 0, 72, 100
1, 35856, Note_off_c, 0, 72, 100
1, 35856, Note_on_c, 0, 74, 100
1, 35904, Note_off_c, 0, 74, 100
1, 35904, Note_on_c, 0, 75, 100
1, 36096, Note_off_c, 0, 75, 100
1, 36096, Note_on_c, 0, 73, 100
1, 36288, Note_off_c, 0, 73, 100
1, 37728, Note_on_c, 0, 61, 100
1, 37824, Note_off_c, 0, 61, 100
1, 37824, Note_on_c, 0, 63, 100
1, 37920, Note_off_c, 0, 63, 100
1, 37920, Note_on_c, 0, 67, 100
1, 38016, Note_off_c, 0, 67, 100
1, 38016, Note_on_c, 0, 64, 100
1, 38112, Note_off_c, 0, 64, 100
1, 38112, Note_on_c, 0, 66, 100
1, 38208, Note_off_c, 0, 66, 100
1, 38208, Note_on_c, 0, 68, 100
1, 38336, Note_off_c, 0, 68, 100
1, 38336, Note_on_c, 0, 70, 100
1, 38400, Note_off_c, 0, 70, 100
1, 38400, Note_on_c, 0, 72, 100
1, 38528, Note_off_c, 0, 72, 100
1, 38528, Note_on_c, 0, 74, 100
1, 38592, Note_off_c, 0, 74, 100
1, 38592, Note_on_c, 0, 75, 100
1, 38688, Note_off_c, 0, 75, 100
1, 38688, Note_on_c, 0, 73, 100
1, 38832, Note_off_c, 0, 73, 100
1, 38832, Note_on_c, 0, 72, 100
1, 38928, Note_off_c, 0, 72, 100
1, 38928, Note_on_c, 0, 73, 100
1, 38976, Note_off_c, 0, 73, 100
1, 38976, Note_on_c, 0, 77, 100
1, 39120, Note_off_c, 0, 77, 100
1, 39120, Note_on_c, 0, 79, 100
1, 39168, Note_off_c, 0, 79, 100
1, 39168, Note_on_c, 0, 82, 100
1, 39264, Note_off_c, 0, 82, 100
1, 39264, Note_on_c, 0, 79, 100
1, 39360, Note_off_c, 0, 79, 100
1, 39360, Note_on_c, 0, 80, 100
1, 39456, Note_off_c, 0, 80, 100
1, 39456, Note_on_c, 0, 80, 100
1, 39552, Note_off_c, 0, 80, 100
1, 39552, Note_on_c, 0, 79, 100
1, 39648, Note_off_c, 0, 79, 100
1, 39648, Note_on_c, 0, 78, 100
1, 39744, Note_off_c, 0, 78, 100
1, 39744, Note_on_c, 0, 77, 100
1, 39792, Note_off_c, 0, 77, 100
1, 39792, Note_on_c, 0, 76, 100
1, 39888, Note_off_c, 0, 76, 100
1, 39888, Note_on_c, 0, 75, 100
1, 40032, Note_off_c, 0, 75, 100
1, 40032, Note_on_c, 0, 79, 100
1, 40128, Note_off_c, 0, 79, 100
1, 40128, Note_on_c, 0, 76, 100
1, 40224, Note_off_c, 0, 76, 100
1, 40224, Note_on_c, 0, 74, 100
1, 40320, Note_off_c, 0, 74, 100
1, 40320, Note_on_c, 0, 75, 100
1, 40416, Note_off_c, 0, 75, 100
1, 40416, Note_on_c, 0, 72, 100
1, 40512, Note_off_c, 0, 72, 100
1, 40512, Note_on_c, 0, 73, 100
1, 40560, Note_off_c, 0, 73, 100
1, 40560, Note_on_c, 0, 74, 100
1, 40656, Note_off_c, 0, 74, 100
1, 40656, Note_on_c, 0, 70, 100
1, 41040, Note_off_c, 0, 70, 100
1, 41040, Note_on_c, 0, 67, 100
1, 41088, Note_off_c, 0, 67, 100
1, 41088, Note_on_c, 0, 68, 100
1, 41184, Note_off_c, 0, 68, 100
1, 41184, Note_on_c, 0, 68, 100
1, 41280, Note_off_c, 0, 68, 100
1, 41280, Note_on_c, 0, 67, 100
1, 41376, Note_off_c, 0, 67, 100
1, 41376, Note_on_c, 0, 66, 100
1, 41472, Note_off_c, 0, 66, 100
1, 41472, Note_on_c, 0, 65, 100
1, 41568, Note_off_c, 0, 65, 100
1, 41568, Note_on_c, 0, 64, 100
1, 41616, Note_off_c, 0, 64, 100
1, 41616, Note_on_c, 0, 63, 100
1, 41760, Note_off_c, 0, 63, 100
1, 41760, Note_on_c, 0, 67, 100
1, 41808, Note_off_c, 0, 67, 100
1, 41808, Note_on_c, 0, 64, 100
1, 41904, Note_off_c, 0, 64, 100
1, 41904, Note_on_c, 0, 65, 100
1, 42000, Note_off_c, 0, 65, 100
1, 42000, Note_on_c, 0, 68, 100
1, 42144, Note_off_c, 0, 68, 100
1, 42144, Note_on_c, 0, 69, 100
1, 42192, Note_off_c, 0, 69, 100
1, 42192, Note_on_c, 0, 75, 100
1, 42336, Note_off_c, 0, 75, 100
1, 42336, Note_on_c, 0, 72, 100
1, 42432, Note_off_c, 0, 72, 100
1, 42432, Note_on_c, 0, 69, 100
1, 42528, Note_off_c, 0, 69, 100
1, 42528, Note_on_c, 0, 65, 100
1, 42624, Note_off_c, 0, 65, 100
1, 42624, Note_on_c, 0, 71, 100
1, 42672, Note_off_c, 0, 71, 100
1, 42672, Note_on_c, 0, 73, 100
1, 42768, Note_off_c, 0, 73, 100
1, 42768, Note_on_c, 0, 75, 100
1, 42880, Note_off_c, 0, 75, 100
1, 42880, Note_on_c, 0, 79, 100
1, 43008, Note_off_c, 0, 79, 100
1, 43008, Note_on_c, 0, 73, 100
1, 43104, Note_off_c, 0, 73, 100
1, 43104, Note_on_c, 0, 77, 100
1, 43152, Note_off_c, 0, 77, 100
1, 43152, Note_on_c, 0, 80, 100
1, 43296, Note_off_c, 0, 80, 100
1, 43296, Note_on_c, 0, 83, 100
1, 43392, Note_off_c, 0, 83, 100
1, 43392, Note_on_c, 0, 81, 100
1, 43488, Note_off_c, 0, 81, 100
1, 43488, Note_on_c, 0, 78, 100
1, 43584, Note_off_c, 0, 78, 100
1, 43584, Note_on_c, 0, 77, 100
1, 43680, Note_off_c, 0, 77, 100
1, 43680, Note_on_c, 0, 76, 100
1, 43776, Note_off_c, 0, 76, 100
1, 43776, Note_on_c, 0, 75, 100
1, 43872, Note_off_c, 0, 75, 100
1, 43872, Note_on_c, 0, 77, 100
1, 43968, Note_off_c, 0, 77, 100
1, 43968, Note_on_c, 0, 73, 100
1, 44064, Note_off_c, 0, 73, 100
1, 44064, Note_on_c, 0, 75, 100
1, 44160, Note_off_c, 0, 75, 100
1, 44160, Note_on_c, 0, 70, 100
1, 44256, Note_off_c, 0, 70, 100
1, 44256, Note_on_c, 0, 73, 100
1, 44352, Note_off_c, 0, 73, 100
1, 44352, Note_on_c, 0, 69, 100
1, 44448, Note_off_c, 0, 69, 100
1, 44448, Note_on_c, 0, 71, 100
1, 44544, Note_off_c, 0, 71, 100
1, 44544, Note_on_c, 0, 66, 100
1, 44640, Note_off_c, 0, 66, 100
1, 44640, Note_on_c, 0, 69, 100
1, 44736, Note_off_c, 0, 69, 100
1, 44736, Note_on_c, 0, 63, 100
1, 44784, Note_off_c, 0, 63, 100
1, 44784, Note_on_c, 0, 66, 100
1, 44880, Note_off_c, 0, 66, 100
1, 44880, Note_on_c, 0, 61, 100
1, 44928, Note_off_c, 0, 61, 100
1, 44928, Note_on_c, 0, 63, 100
1, 45120, Note_off_c, 0, 63, 100
1, 45120, Note_on_c, 0, 58, 100
1, 45248, Note_off_c, 0, 58, 100
1, 45248, Note_on_c, 0, 63, 100
1, 46336, Note_off_c, 0, 63, 100
1, 46336, Note_on_c, 0, 59, 100
1, 46400, Note_off_c, 0, 59, 100
1, 46400, Note_on_c, 0, 63, 100
1, 46464, Note_off_c, 0, 63, 100
1, 46464, Note_on_c, 0, 64, 100
1, 46512, Note_off_c, 0, 64, 100
1, 46512, Note_on_c, 0, 64, 100
1, 46608, Note_off_c, 0, 64, 100
1, 46608, Note_on_c, 0, 71, 100
1, 46656, Note_off_c, 0, 71, 100
1, 46656, Note_on_c, 0, 75, 100
1, 46771, Note_off_c, 0, 75, 100
1, 46771, Note_on_c, 0, 77, 100
1, 46809, Note_off_c, 0, 77, 100
1, 46809, Note_on_c, 0, 82, 100
1, 46847, Note_off_c, 0, 82, 100
1, 46847, Note_on_c, 0, 77, 100
1, 46943, Note_off_c, 0, 77, 100
1, 46943, Note_on_c, 0, 77, 100
1, 46991, Note_off_c, 0, 77, 100
1, 46991, Note_on_c, 0, 75, 100
1, 47039, Note_off_c, 0, 75, 100
1, 47039, Note_on_c, 0, 70, 100
1, 47103, Note_off_c, 0, 70, 100
1, 47103, Note_on_c, 0, 71, 100
1, 47167, Note_off_c, 0, 71, 100
1, 47167, Note_on_c, 0, 65, 100
1, 47231, Note_off_c, 0, 65, 100
1, 47231, Note_on_c, 0, 63, 100
1, 47327, Note_off_c, 0, 63, 100
1, 48767, Note_on_c, 0, 59, 100
1, 48815, Note_off_c, 0, 59, 100
1, 48815, Note_on_c, 0, 64, 100
1, 48863, Note_off_c, 0, 64, 100
1, 48863, Note_on_c, 0, 62, 100
1, 48959, Note_off_c, 0, 62, 100
1, 48959, Note_on_c, 0, 65, 100
1, 49007, Note_off_c, 0, 65, 100
1, 49007, Note_on_c, 0, 63, 100
1, 49055, Note_off_c, 0, 63, 100
1, 49055, Note_on_c, 0, 77, 100
1, 49103, Note_off_c, 0, 77, 100
1, 49103, Note_on_c, 0, 75, 100
1, 49151, Note_off_c, 0, 75, 100
1, 49151, Note_on_c, 0, 77, 100
1, 49189, Note_off_c, 0, 77, 100
1, 49189, Note_on_c, 0, 82, 100
1, 49227, Note_off_c, 0, 82, 100
1, 49227, Note_on_c, 0, 84, 100
1, 49265, Note_off_c, 0, 84, 100
1, 49265, Note_on_c, 0, 77, 100
1, 49341, Note_off_c, 0, 77, 100
1, 49341, Note_on_c, 0, 75, 100
1, 49389, Note_off_c, 0, 75, 100
1, 49389, Note_on_c, 0, 77, 100
1, 49437, Note_off_c, 0, 77, 100
1, 49437, Note_on_c, 0, 70, 100
1, 49485, Note_off_c, 0, 70, 100
1, 49485, Note_on_c, 0, 65, 100
1, 49533, Note_off_c, 0, 65, 100
1, 49533, Note_on_c, 0, 63, 100
1, 49629, Note_off_c, 0, 63, 100
1, 50781, Note_on_c, 0, 59, 100
1, 50877, Note_off_c, 0, 59, 100
1, 50877, Note_on_c, 0, 63, 100
1, 50973, Note_off_c, 0, 63, 100
1, 50973, Note_on_c, 0, 65, 100
1, 51021, Note_off_c, 0, 65, 100
1, 51021, Note_on_c, 0, 70, 100
1, 51069, Note_off_c, 0, 70, 100
1, 51069, Note_on_c, 0, 75, 100
1, 51101, Note_off_c, 0, 75, 100
1, 51101, Note_on_c, 0, 76, 100
1, 51133, Note_off_c, 0, 76, 100
1, 51133, Note_on_c, 0, 75, 100
1, 51197, Note_off_c, 0, 75, 100
1, 51197, Note_on_c, 0, 77, 100
1, 51229, Note_off_c, 0, 77, 100
1, 51229, Note_on_c, 0, 82, 100
1, 51261, Note_off_c, 0, 82, 100
1, 51261, Note_on_c, 0, 85, 100
1, 51309, Note_off_c, 0, 85, 100
1, 51309, Note_on_c, 0, 84, 100
1, 51357, Note_off_c, 0, 84, 100
1, 51357, Note_on_c, 0, 82, 100
1, 51453, Note_off_c, 0, 82, 100
1, 51453, Note_on_c, 0, 87, 100
1, 51549, Note_off_c, 0, 87, 100
1, 51549, Note_on_c, 0, 86, 100
1, 51645, Note_off_c, 0, 86, 100
1, 51645, Note_on_c, 0, 75, 100
1, 51677, Note_off_c, 0, 75, 100
1, 51677, Note_on_c, 0, 77, 100
1, 51741, Note_off_c, 0, 77, 100
1, 51741, Note_on_c, 0, 82, 100
1, 51773, Note_off_c, 0, 82, 100
1, 51773, Note_on_c, 0, 77, 100
1, 51837, Note_off_c, 0, 77, 100
1, 51837, Note_on_c, 0, 75, 100
1, 51981, Note_off_c, 0, 75, 100
1, 51981, Note_on_c, 0, 77, 100
1, 52029, Note_off_c, 0, 77, 100
1, 52029, Note_on_c, 0, 75, 100
1, 52125, Note_off_c, 0, 75, 100
1, 52125, Note_on_c, 0, 70, 100
1, 52173, Note_off_c, 0, 70, 100
1, 52173, Note_on_c, 0, 65, 100
1, 52269, Note_off_c, 0, 65, 100
1, 52269, Note_on_c, 0, 58, 100
1, 52365, Note_off_c, 0, 58, 100
1, 54141, Note_on_c, 0, 82, 100
1, 54237, Note_off_c, 0, 82, 100
1, 54237, Note_on_c, 0, 82, 100
1, 54333, Note_off_c, 0, 82, 100
1, 54333, Note_on_c, 0, 83, 100
1, 54429, Note_off_c, 0, 83, 100
1, 54429, Note_on_c, 0, 82, 100
1, 54525, Note_off_c, 0, 82, 100
1, 54525, Note_on_c, 0, 81, 100
1, 54621, Note_off_c, 0, 81, 100
1, 54621, Note_on_c, 0, 83, 100
1, 54717, Note_off_c, 0, 83, 100
1, 54717, Note_on_c, 0, 85, 100
1, 54861, Note_off_c, 0, 85, 100
1, 54861, Note_on_c, 0, 78, 100
1, 54909, Note_off_c, 0, 78, 100
1, 54909, Note_on_c, 0, 81, 100
1, 55005, Note_off_c, 0, 81, 100
1, 55005, Note_on_c, 0, 78, 100
1, 55101, Note_off_c, 0, 78, 100
1, 55101, Note_on_c, 0, 73, 100
1, 55293, Note_off_c, 0, 73, 100
1, 55293, Note_on_c, 0, 75, 100
1, 55421, Note_off_c, 0, 75, 100
1, 55421, Note_on_c, 0, 77, 100
1, 55485, Note_off_c, 0, 77, 100
1, 55485, Note_on_c, 0, 79, 100
1, 55613, Note_off_c, 0, 79, 100
1, 55613, Note_on_c, 0, 78, 100
1, 55677, Note_off_c, 0, 78, 100
1, 55677, Note_on_c, 0, 77, 100
1, 55773, Note_off_c, 0, 77, 100
1, 55773, Note_on_c, 0, 76, 100
1, 55869, Note_off_c, 0, 76, 100
1, 55869, Note_on_c, 0, 75, 100
1, 55965, Note_off_c, 0, 75, 100
1, 55965, Note_on_c, 0, 79, 100
1, 56061, Note_off_c, 0, 79, 100
1, 56061, Note_on_c, 0, 74, 100
1, 56157, Note_off_c, 0, 74, 100
1, 56157, Note_on_c, 0, 75, 100
1, 56205, Note_off_c, 0, 75, 100
1, 56205, Note_on_c, 0, 77, 100
1, 56349, Note_off_c, 0, 77, 100
1, 56349, Note_on_c, 0, 74, 100
1, 56445, Note_off_c, 0, 74, 100
1, 56445, Note_on_c, 0, 75, 100
1, 56541, Note_off_c, 0, 75, 100
1, 56541, Note_on_c, 0, 73, 100
1, 56637, Note_off_c, 0, 73, 100
1, 56637, Note_on_c, 0, 70, 100
1, 56733, Note_off_c, 0, 70, 100
1, 56733, Note_on_c, 0, 69, 100
1, 56829, Note_off_c, 0, 69, 100
1, 56829, Note_on_c, 0, 70, 100
1, 56925, Note_off_c, 0, 70, 100
1, 56925, Note_on_c, 0, 66, 100
1, 57021, Note_off_c, 0, 66, 100
1, 57021, Note_on_c, 0, 65, 100
1, 57117, Note_off_c, 0, 65, 100
1, 57117, Note_on_c, 0, 64, 100
1, 57213, Note_off_c, 0, 64, 100
1, 57213, Note_on_c, 0, 63, 100
1, 57309, Note_off_c, 0, 63, 100
1, 57309, Note_on_c, 0, 65, 100
1, 57453, Note_off_c, 0, 65, 100
1, 57453, Note_on_c, 0, 67, 100
1, 57549, Note_off_c, 0, 67, 100
1, 57549, Note_on_c, 0, 70, 100
1, 57597, Note_off_c, 0, 70, 100
1, 57597, Note_on_c, 0, 72, 100
1, 57741, Note_off_c, 0, 72, 100
1, 57741, Note_on_c, 0, 74, 100
1, 57789, Note_off_c, 0, 74, 100
1, 57789, Note_on_c, 0, 77, 100
1, 57933, Note_off_c, 0, 77, 100
1, 57933, Note_on_c, 0, 74, 100
1, 57981, Note_off_c, 0, 74, 100
1, 57981, Note_on_c, 0, 75, 100
1, 58109, Note_off_c, 0, 75, 100
1, 58109, Note_on_c, 0, 72, 100
1, 58173, Note_off_c, 0, 72, 100
1, 58173, Note_on_c, 0, 70, 100
1, 58269, Note_off_c, 0, 70, 100
1, 58269, Note_on_c, 0, 66, 100
1, 58365, Note_off_c, 0, 66, 100
1, 58365, Note_on_c, 0, 70, 100
1, 58493, Note_off_c, 0, 70, 100
1, 58493, Note_on_c, 0, 66, 100
1, 58557, Note_off_c, 0, 66, 100
1, 58557, Note_on_c, 0, 65, 100
1, 58653, Note_off_c, 0, 65, 100
1, 58653, Note_on_c, 0, 64, 100
1, 58749, Note_off_c, 0, 64, 100
1, 58749, Note_on_c, 0, 63, 100
1, 58845, Note_off_c, 0, 63, 100
1, 58845, Note_on_c, 0, 65, 100
1, 58941, Note_off_c, 0, 65, 100
1, 58941, Note_on_c, 0, 67, 100
1, 59037, Note_off_c, 0, 67, 100
1, 59037, Note_on_c, 0, 70, 100
1, 59133, Note_off_c, 0, 70, 100
1, 59133, Note_on_c, 0, 72, 100
1, 59277, Note_off_c, 0, 72, 100
1, 59277, Note_on_c, 0, 75, 100
1, 59517, Note_off_c, 0, 75, 100
1, 59517, Note_on_c, 0, 70, 100
1, 59709, Note_off_c, 0, 70, 100
1, 59709, Note_on_c, 0, 62, 100
1, 59901, Note_off_c, 0, 62, 100
1, 59901, Note_on_c, 0, 64, 100
1, 59997, Note_off_c, 0, 64, 100
1, 59997, Note_on_c, 0, 66, 100
1, 60093, Note_off_c, 0, 66, 100
1, 60093, Note_on_c, 0, 67, 100
1, 60189, Note_off_c, 0, 67, 100
1, 60189, Note_on_c, 0, 72, 100
1, 60477, Note_off_c, 0, 72, 100
1, 60477, Note_on_c, 0, 70, 100
1, 60573, Note_off_c, 0, 70, 100
1, 61821, Note_on_c, 0, 70, 100
1, 61917, Note_off_c, 0, 70, 100
1, 61917, Note_on_c, 0, 67, 100
1, 62013, Note_off_c, 0, 67, 100
1, 62013, Note_on_c, 0, 70, 100
1, 62141, Note_off_c, 0, 70, 100
1, 62141, Note_on_c, 0, 67, 100
1, 62205, Note_off_c, 0, 67, 100
1, 62205, Note_on_c, 0, 68, 100
1, 62493, Note_off_c, 0, 68, 100
1, 62493, Note_on_c, 0, 66, 100
1, 62877, Note_off_c, 0, 66, 100
1, 63309, Note_on_c, 0, 68, 100
1, 63405, Note_off_c, 0, 68, 100
1, 63405, Note_on_c, 0, 66, 100
1, 63501, Note_off_c, 0, 66, 100
1, 63501, Note_on_c, 0, 68, 100
1, 63613, Note_off_c, 0, 68, 100
1, 63613, Note_on_c, 0, 65, 100
1, 63741, Note_off_c, 0, 65, 100
1, 63741, Note_on_c, 0, 66, 100
1, 63933, Note_off_c, 0, 66, 100
1, 63933, Note_on_c, 0, 67, 100
1, 64029, Note_off_c, 0, 67, 100
1, 64029, Note_on_c, 0, 66, 100
1, 64125, Note_off_c, 0, 66, 100
1, 64125, Note_on_c, 0, 65, 100
1, 64189, Note_off_c, 0, 65, 100
1, 64189, Note_on_c, 0, 64, 100
1, 64253, Note_off_c, 0, 64, 100
1, 64253, Note_on_c, 0, 65, 100
1, 64365, Note_off_c, 0, 65, 100
1, 64365, Note_on_c, 0, 65, 100
1, 64461, Note_off_c, 0, 65, 100
1, 64461, Note_on_c, 0, 64, 100
1, 64509, Note_off_c, 0, 64, 100
1, 64509, Note_on_c, 0, 65, 100
1, 64797, Note_off_c, 0, 65, 100
1, 64797, Note_on_c, 0, 63, 100
1, 64989, Note_off_c, 0, 63, 100
1, 64989, Note_on_c, 0, 64, 100
1, 65181, Note_off_c, 0, 64, 100
1, 65181, Note_on_c, 0, 62, 100
1, 65277, Note_off_c, 0, 62, 100
1, 65277, Note_on_c, 0, 63, 100
1, 65469, Note_off_c, 0, 63, 100
1, 65469, Note_on_c, 0, 62, 100
1, 65517, Note_off_c, 0, 62, 100
1, 65517, Note_on_c, 0, 63, 100
1, 65613, Note_off_c, 0, 63, 100
1, 65613, Note_on_c, 0, 61, 100
1, 65949, Note_off_c, 0, 61, 100
1, 65949, Note_on_c, 0, 63, 100
1, 66045, Note_off_c, 0, 63, 100
1, 66045, Note_on_c, 0, 61, 100
1, 66333, Note_off_c, 0, 61, 100
1, 66333, Note_on_c, 0, 60, 100
1, 66429, Note_off_c, 0, 60, 100
1, 66429, Note_on_c, 0, 59, 100
1, 66813, Note_off_c, 0, 59, 100
1, 66813, Note_on_c, 0, 59, 100
1, 66957, Note_off_c, 0, 59, 100
1, 66957, Note_on_c, 0, 61, 100
1, 67197, Note_off_c, 0, 61, 100
1, 67197, Note_on_c, 0, 63, 100
1, 67389, Note_off_c, 0, 63, 100
1, 67389, Note_on_c, 0, 64, 100
1, 67581, Note_off_c, 0, 64, 100
1, 67581, Note_on_c, 0, 66, 100
1, 67773, Note_off_c, 0, 66, 100
1, 67773, Note_on_c, 0, 68, 100
1, 67917, Note_off_c, 0, 68, 100
1, 67917, Note_on_c, 0, 69, 100
1, 68109, Note_off_c, 0, 69, 100
1, 68109, Note_on_c, 0, 71, 100
1, 68253, Note_off_c, 0, 71, 100
1, 68253, Note_on_c, 0, 73, 100
1, 68349, Note_off_c, 0, 73, 100
1, 68349, Note_on_c, 0, 71, 100
1, 68541, Note_off_c, 0, 71, 100
1, 68541, Note_on_c, 0, 69, 100
1, 68685, Note_off_c, 0, 69, 100
1, 68685, Note_on_c, 0, 68, 100
1, 68877, Note_off_c, 0, 68, 100
1, 68877, Note_on_c, 0, 80, 100
1, 68973, Note_off_c, 0, 80, 100
1, 72669, Note_on_c, 0, 79, 100
1, 72765, Note_off_c, 0, 79, 100
1, 72765, Note_on_c, 0, 82, 100
1, 72861, Note_off_c, 0, 82, 100
1, 72861, Note_on_c, 0, 86, 100
1, 72957, Note_off_c, 0, 86, 100
1, 72957, Note_on_c, 0, 87, 100
1, 73053, Note_off_c, 0, 87, 100
1, 73485, Note_on_c, 0, 82, 100
1, 73629, Note_off_c, 0, 82, 100
1, 73629, Note_on_c, 0, 84, 100
1, 73725, Note_off_c, 0, 84, 100
1, 74205, Note_on_c, 0, 79, 100
1, 74301, Note_off_c, 0, 79, 100
1, 74301, Note_on_c, 0, 82, 100
1, 74397, Note_off_c, 0, 82, 100
1, 74397, Note_on_c, 0, 86, 100
1, 74493, Note_off_c, 0, 86, 100
1, 74493, Note_on_c, 0, 87, 100
1, 74589, Note_off_c, 0, 87, 100
1, 74589, Note_on_c, 0, 87, 100
1, 74685, Note_off_c, 0, 87, 100
1, 74685, Note_on_c, 0, 87, 100
1, 74813, Note_off_c, 0, 87, 100
1, 74813, Note_on_c, 0, 87, 100
1, 74941, Note_off_c, 0, 87, 100
1, 74941, Note_on_c, 0, 87, 100
1, 75069, Note_off_c, 0, 87, 100
1, 75069, Note_on_c, 0, 86, 100
1, 75165, Note_off_c, 0, 86, 100
1, 75165, Note_on_c, 0, 82, 100
1, 75261, Note_off_c, 0, 82, 100
1, 75261, Note_on_c, 0, 70, 100
1, 75357, Note_off_c, 0, 70, 100
1, 75645, Note_on_c, 0, 78, 100
1, 75773, Note_off_c, 0, 78, 100
1, 75773, Note_on_c, 0, 79, 100
1, 75885, Note_off_c, 0, 79, 100
1, 75885, Note_on_c, 0, 82, 100
1, 75981, Note_off_c, 0, 82, 100
1, 75981, Note_on_c, 0, 85, 100
1, 76125, Note_off_c, 0, 85, 100
1, 76125, Note_on_c, 0, 87, 100
1, 76221, Note_off_c, 0, 87, 100
1, 76653, Note_on_c, 0, 86, 100
1, 76701, Note_off_c, 0, 86, 100
1, 76701, Note_on_c, 0, 85, 100
1, 76797, Note_off_c, 0, 85, 100
1, 76797, Note_on_c, 0, 82, 100
1, 76893, Note_off_c, 0, 82, 100
1, 77181, Note_on_c, 0, 82, 100
1, 77373, Note_off_c, 0, 82, 100
1, 77373, Note_on_c, 0, 78, 100
1, 77469, Note_off_c, 0, 78, 100
1, 77469, Note_on_c, 0, 82, 100
1, 77565, Note_off_c, 0, 82, 100
1, 77565, Note_on_c, 0, 79, 100
1, 77661, Note_off_c, 0, 79, 100
1, 77661, Note_on_c, 0, 82, 100
1, 77757, Note_off_c, 0, 82, 100
1, 78189, Note_on_c, 0, 85, 100
1, 78237, Note_off_c, 0, 85, 100
1, 78237, Note_on_c, 0, 87, 100
1, 78285, Note_off_c, 0, 87, 100
1, 78285, Note_on_c, 0, 88, 100
1, 78477, Note_off_c, 0, 88, 100
1, 78477, Note_on_c, 0, 89, 100
1, 79485, Note_off_c, 0, 89, 100
1, 79485, Note_on_c, 0, 90, 100
1, 79581, Note_off_c, 0, 90, 100
1, 79581, Note_on_c, 0, 89, 100
1, 79677, Note_off_c, 0, 89, 100
1, 79677, Note_on_c, 0, 90, 100
1, 79821, Note_off_c, 0, 90, 100
1, 79821, Note_on_c, 0, 83, 100
1, 79869, Note_off_c, 0, 83, 100
1, 79869, Note_on_c, 0, 82, 100
1, 80205, Note_off_c, 0, 82, 100
1, 80205, Note_on_c, 0, 80, 100
1, 80253, Note_off_c, 0, 80, 100
1, 80253, Note_on_c, 0, 81, 100
1, 80349, Note_off_c, 0, 81, 100
1, 80349, Note_on_c, 0, 72, 100
1, 80445, Note_off_c, 0, 72, 100
1, 80445, Note_on_c, 0, 78, 100
1, 80541, Note_off_c, 0, 78, 100
1, 80541, Note_on_c, 0, 81, 100
1, 80637, Note_off_c, 0, 81, 100
1, 80637, Note_on_c, 0, 80, 100
1, 80733, Note_off_c, 0, 80, 100
1, 80733, Note_on_c, 0, 79, 100
1, 80781, Note_off_c, 0, 79, 100
1, 80781, Note_on_c, 0, 78, 100
1, 80925, Note_off_c, 0, 78, 100
1, 80925, Note_on_c, 0, 72, 100
1, 81021, Note_off_c, 0, 72, 100
1, 81021, Note_on_c, 0, 77, 100
1, 81117, Note_off_c, 0, 77, 100
1, 81117, Note_on_c, 0, 76, 100
1, 81213, Note_off_c, 0, 76, 100
1, 81213, Note_on_c, 0, 75, 100
1, 81309, Note_off_c, 0, 75, 100
1, 81309, Note_on_c, 0, 79, 100
1, 81405, Note_off_c, 0, 79, 100
1, 81405, Note_on_c, 0, 75, 100
1, 81501, Note_off_c, 0, 75, 100
1, 81501, Note_on_c, 0, 77, 100
1, 81597, Note_off_c, 0, 77, 100
1, 81597, Note_on_c, 0, 78, 100
1, 81693, Note_off_c, 0, 78, 100
1, 81693, Note_on_c, 0, 75, 100
1, 81741, Note_off_c, 0, 75, 100
1, 81741, Note_on_c, 0, 76, 100
1, 81885, Note_off_c, 0, 76, 100
1, 81885, Note_on_c, 0, 73, 100
1, 81981, Note_off_c, 0, 73, 100
1, 81981, Note_on_c, 0, 70, 100
1, 82125, Note_off_c, 0, 70, 100
1, 82125, Note_on_c, 0, 66, 100
1, 82173, Note_off_c, 0, 66, 100
1, 82173, Note_on_c, 0, 69, 100
1, 82269, Note_off_c, 0, 69, 100
1, 82269, Note_on_c, 0, 75, 100
1, 82365, Note_off_c, 0, 75, 100
1, 82365, Note_on_c, 0, 73, 100
1, 82461, Note_off_c, 0, 73, 100
1, 82461, Note_on_c, 0, 70, 100
1, 82557, Note_off_c, 0, 70, 100
1, 82557, Note_on_c, 0, 71, 100
1, 82653, Note_off_c, 0, 71, 100
1, 82653, Note_on_c, 0, 68, 100
1, 82749, Note_off_c, 0, 68, 100
1, 82749, Note_on_c, 0, 67, 100
1, 82845, Note_off_c, 0, 67, 100
1, 82845, Note_on_c, 0, 66, 100
1, 82941, Note_off_c, 0, 66, 100
1, 82941, Note_on_c, 0, 65, 100
1, 83085, Note_off_c, 0, 65, 100
1, 83085, Note_on_c, 0, 64, 100
1, 83133, Note_off_c, 0, 64, 100
1, 83133, Note_on_c, 0, 63, 100
1, 83229, Note_off_c, 0, 63, 100
1, 83229, Note_on_c, 0, 65, 100
1, 83325, Note_off_c, 0, 65, 100
1, 83325, Note_on_c, 0, 63, 100
1, 83421, Note_off_c, 0, 63, 100
1, 83421, Note_on_c, 0, 65, 100
1, 83517, Note_off_c, 0, 65, 100
1, 83517, Note_on_c, 0, 70, 100
1, 83565, Note_off_c, 0, 70, 100
1, 83565, Note_on_c, 0, 72, 100
1, 83661, Note_off_c, 0, 72, 100
1, 83661, Note_on_c, 0, 70, 100
1, 83773, Note_off_c, 0, 70, 100
1, 83773, Note_on_c, 0, 72, 100
1, 83837, Note_off_c, 0, 72, 100
1, 83837, Note_on_c, 0, 75, 100
1, 83949, Note_off_c, 0, 75, 100
1, 83949, Note_on_c, 0, 70, 100
1, 84045, Note_off_c, 0, 70, 100
1, 84045, Note_on_c, 0, 77, 100
1, 84141, Note_off_c, 0, 77, 100
1, 84141, Note_on_c, 0, 70, 100
1, 84237, Note_off_c, 0, 70, 100
1, 84237, Note_on_c, 0, 75, 100
1, 84381, Note_off_c, 0, 75, 100
1, 84381, Note_on_c, 0, 79, 100
1, 84573, Note_off_c, 0, 79, 100
1, 84573, Note_on_c, 0, 75, 100
1, 84669, Note_off_c, 0, 75, 100
1, 84669, Note_on_c, 0, 82, 100
1, 84765, Note_off_c, 0, 82, 100
1, 84765, Note_on_c, 0, 72, 100
1, 84861, Note_off_c, 0, 72, 100
1, 84861, Note_on_c, 0, 67, 100
1, 84909, Note_off_c, 0, 67, 100
1, 84909, Note_on_c, 0, 70, 100
1, 85005, Note_off_c, 0, 70, 100
1, 85005, Note_on_c, 0, 63, 100
1, 85101, Note_off_c, 0, 63, 100
1, 85101, Note_on_c, 0, 70, 100
1, 85197, Note_off_c, 0, 70, 100
1, 85197, Note_on_c, 0, 61, 100
1, 85293, Note_off_c, 0, 61, 100
1, 85293, Note_on_c, 0, 70, 100
1, 85389, Note_off_c, 0, 70, 100
1, 85389, Note_on_c, 0, 63, 100
1, 85485, Note_off_c, 0, 63, 100
1, 85485, Note_on_c, 0, 70, 100
1, 85581, Note_off_c, 0, 70, 100
1, 85581, Note_on_c, 0, 70, 100
1, 85677, Note_off_c, 0, 70, 100
1, 86061, Note_on_c, 0, 63, 100
1, 86157, Note_off_c, 0, 63, 100
1, 86157, Note_on_c, 0, 70, 100
1, 86205, Note_off_c, 0, 70, 100
1, 86205, Note_on_c, 0, 61, 100
1, 86301, Note_off_c, 0, 61, 100
1, 86301, Note_on_c, 0, 70, 100
1, 86397, Note_off_c, 0, 70, 100
1, 86397, Note_on_c, 0, 63, 100
1, 86493, Note_off_c, 0, 63, 100
1, 86493, Note_on_c, 0, 70, 100
1, 86589, Note_off_c, 0, 70, 100
1, 86589, Note_on_c, 0, 70, 100
1, 86685, Note_off_c, 0, 70, 100
1, 86685, Note_on_c, 0, 70, 100
1, 86781, Note_off_c, 0, 70, 100
1, 86781, Note_on_c, 0, 63, 100
1, 86877, Note_off_c, 0, 63, 100
1, 86877, Note_on_c, 0, 70, 100
1, 86973, Note_off_c, 0, 70, 100
1, 86973, Note_on_c, 0, 63, 100
1, 87069, Note_off_c, 0, 63, 100
1, 87069, Note_on_c, 0, 70, 100
1, 87165, Note_off_c, 0, 70, 100
1, 87165, Note_on_c, 0, 64, 100
1, 87261, Note_off_c, 0, 64, 100
1, 88077, Note_on_c, 0, 58, 100
1, 88189, Note_off_c, 0, 58, 100
1, 88189, Note_on_c, 0, 61, 100
1, 88253, Note_off_c, 0, 61, 100
1, 88253, Note_on_c, 0, 63, 100
1, 88317, Note_off_c, 0, 63, 100
1, 88317, Note_on_c, 0, 66, 100
1, 88381, Note_off_c, 0, 66, 100
1, 88381, Note_on_c, 0, 64, 100
1, 88445, Note_off_c, 0, 64, 100
1, 88445, Note_on_c, 0, 65, 100
1, 88509, Note_off_c, 0, 65, 100
1, 88509, Note_on_c, 0, 68, 100
1, 88605, Note_off_c, 0, 68, 100
1, 88605, Note_on_c, 0, 72, 100
1, 88653, Note_off_c, 0, 72, 100
1, 88653, Note_on_c, 0, 74, 100
1, 88701, Note_off_c, 0, 74, 100
1, 88701, Note_on_c, 0, 77, 100
1, 88749, Note_off_c, 0, 77, 100
1, 88749, Note_on_c, 0, 78, 100
1, 88797, Note_off_c, 0, 78, 100
1, 88797, Note_on_c, 0, 76, 100
1, 88845, Note_off_c, 0, 76, 100
1, 88845, Note_on_c, 0, 77, 100
1, 88893, Note_off_c, 0, 77, 100
1, 88893, Note_on_c, 0, 79, 100
1, 88957, Note_off_c, 0, 79, 100
1, 88957, Note_on_c, 0, 77, 100
1, 89021, Note_off_c, 0, 77, 100
1, 89021, Note_on_c, 0, 75, 100
1, 89085, Note_off_c, 0, 75, 100
1, 89085, Note_on_c, 0, 72, 100
1, 89133, Note_off_c, 0, 72, 100
1, 89133, Note_on_c, 0, 69, 100
1, 89181, Note_off_c, 0, 69, 100
1, 89181, Note_on_c, 0, 65, 100
1, 89229, Note_off_c, 0, 65, 100
1, 89229, Note_on_c, 0, 66, 100
1, 89277, Note_off_c, 0, 66, 100
1, 89277, Note_on_c, 0, 67, 100
1, 89325, Note_off_c, 0, 67, 100
1, 89325, Note_on_c, 0, 71, 100
1, 89373, Note_off_c, 0, 71, 100
1, 89373, Note_on_c, 0, 74, 100
1, 89421, Note_off_c, 0, 74, 100
1, 89421, Note_on_c, 0, 73, 100
1, 89469, Note_off_c, 0, 73, 100
1, 89469, Note_on_c, 0, 74, 100
1, 89533, Note_off_c, 0, 74, 100
1, 89533, Note_on_c, 0, 70, 100
1, 89597, Note_off_c, 0, 70, 100
1, 89597, Note_on_c, 0, 61, 100
1, 89661, Note_off_c, 0, 61, 100
1, 89661, Note_on_c, 0, 62, 100
1, 89757, Note_off_c, 0, 62, 100
1, 89757, Note_on_c, 0, 65, 100
1, 89805, Note_off_c, 0, 65, 100
1, 89805, Note_on_c, 0, 64, 100
1, 89853, Note_off_c, 0, 64, 100
1, 89853, Note_on_c, 0, 65, 100
1, 89949, Note_off_c, 0, 65, 100
1, 89949, Note_on_c, 0, 67, 100
1, 89997, Note_off_c, 0, 67, 100
1, 89997, Note_on_c, 0, 69, 100
1, 90045, Note_off_c, 0, 69, 100
1, 90045, Note_on_c, 0, 70, 100
1, 90083, Note_off_c, 0, 70, 100
1, 90083, Note_on_c, 0, 73, 100
1, 90121, Note_off_c, 0, 73, 100
1, 90121, Note_on_c, 0, 74, 100
1, 90159, Note_off_c, 0, 74, 100
1, 90159, Note_on_c, 0, 75, 100
1, 90197, Note_off_c, 0, 75, 100
1, 90197, Note_on_c, 0, 73, 100
1, 90273, Note_off_c, 0, 73, 100
1, 90273, Note_on_c, 0, 76, 100
1, 90311, Note_off_c, 0, 76, 100
1, 90311, Note_on_c, 0, 74, 100
1, 90349, Note_off_c, 0, 74, 100
1, 90349, Note_on_c, 0, 78, 100
1, 90425, Note_off_c, 0, 78, 100
1, 90425, Note_on_c, 0, 79, 100
1, 90521, Note_off_c, 0, 79, 100
1, 90521, Note_on_c, 0, 80, 100
1, 90617, Note_off_c, 0, 80, 100
1, 90617, Note_on_c, 0, 82, 100
1, 90665, Note_off_c, 0, 82, 100
1, 90665, Note_on_c, 0, 83, 100
1, 90713, Note_off_c, 0, 83, 100
1, 90713, Note_on_c, 0, 84, 100
1, 90761, Note_off_c, 0, 84, 100
1, 90761, Note_on_c, 0, 83, 100
1, 90905, Note_off_c, 0, 83, 100
1, 90905, Note_on_c, 0, 75, 100
1, 91001, Note_off_c, 0, 75, 100
1, 91001, Note_on_c, 0, 77, 100
1, 91065, Note_off_c, 0, 77, 100
1, 91065, Note_on_c, 0, 72, 100
1, 91129, Note_off_c, 0, 72, 100
1, 91129, Note_on_c, 0, 67, 100
1, 91193, Note_off_c, 0, 67, 100
1, 91193, Note_on_c, 0, 63, 100
1, 91289, Note_off_c, 0, 63, 100
1, 91289, Note_on_c, 0, 60, 100
1, 91385, Note_off_c, 0, 60, 100
1, 92681, Note_on_c, 0, 72, 100
1, 92729, Note_off_c, 0, 72, 100
1, 92729, Note_on_c, 0, 74, 100
1, 92793, Note_off_c, 0, 74, 100
1, 92793, Note_on_c, 0, 73, 100
1, 92857, Note_off_c, 0, 73, 100
1, 92857, Note_on_c, 0, 76, 100
1, 92921, Note_off_c, 0, 76, 100
1, 92921, Note_on_c, 0, 73, 100
1, 92959, Note_off_c, 0, 73, 100
1, 92959, Note_on_c, 0, 70, 100
1, 92997, Note_off_c, 0, 70, 100
1, 92997, Note_on_c, 0, 72, 100
1, 93073, Note_off_c, 0, 72, 100
1, 93073, Note_on_c, 0, 74, 100
1, 93111, Note_off_c, 0, 74, 100
1, 93111, Note_on_c, 0, 73, 100
1, 93175, Note_off_c, 0, 73, 100
1, 93175, Note_on_c, 0, 76, 100
1, 93239, Note_off_c, 0, 76, 100
1, 93239, Note_on_c, 0, 73, 100
1, 93303, Note_off_c, 0, 73, 100
1, 93303, Note_on_c, 0, 76, 100
1, 93351, Note_off_c, 0, 76, 100
1, 93351, Note_on_c, 0, 72, 100
1, 93399, Note_off_c, 0, 72, 100
1, 93399, Note_on_c, 0, 76, 100
1, 93447, Note_off_c, 0, 76, 100
1, 93447, Note_on_c, 0, 75, 100
1, 93495, Note_off_c, 0, 75, 100
1, 93495, Note_on_c, 0, 74, 100
1, 93527, Note_off_c, 0, 74, 100
1, 93527, Note_on_c, 0, 76, 100
1, 93559, Note_off_c, 0, 76, 100
1, 93559, Note_on_c, 0, 75, 100
1, 93591, Note_off_c, 0, 75, 100
1, 93591, Note_on_c, 0, 74, 100
1, 93655, Note_off_c, 0, 74, 100
1, 93655, Note_on_c, 0, 76, 100
1, 93735, Note_off_c, 0, 76, 100
1, 93735, Note_on_c, 0, 77, 100
1, 93831, Note_off_c, 0, 77, 100
1, 93831, Note_on_c, 0, 77, 100
1, 93943, Note_off_c, 0, 77, 100
1, 93943, Note_on_c, 0, 79, 100
1, 94007, Note_off_c, 0, 79, 100
1, 94007, Note_on_c, 0, 80, 100
1, 94071, Note_off_c, 0, 80, 100
1, 94071, Note_on_c, 0, 81, 100
1, 94109, Note_off_c, 0, 81, 100
1, 94109, Note_on_c, 0, 82, 100
1, 94147, Note_off_c, 0, 82, 100
1, 94147, Note_on_c, 0, 81, 100
1, 94185, Note_off_c, 0, 81, 100
1, 94185, Note_on_c, 0, 82, 100
1, 94223, Note_off_c, 0, 82, 100
1, 94223, Note_on_c, 0, 79, 100
1, 94309, Note_off_c, 0, 79, 100
1, 94309, Note_on_c, 0, 83, 100
1, 94357, Note_off_c, 0, 83, 100
1, 94357, Note_on_c, 0, 85, 100
1, 94405, Note_off_c, 0, 85, 100
1, 94405, Note_on_c, 0, 86, 100
1, 94453, Note_off_c, 0, 86, 100
1, 94453, Note_on_c, 0, 87, 100
1, 94501, Note_off_c, 0, 87, 100
1, 94501, Note_on_c, 0, 86, 100
1, 94597, Note_off_c, 0, 86, 100
1, 94597, Note_on_c, 0, 85, 100
1, 94709, Note_off_c, 0, 85, 100
1, 94709, Note_on_c, 0, 84, 100
1, 94773, Note_off_c, 0, 84, 100
1, 94773, Note_on_c, 0, 83, 100
1, 94837, Note_off_c, 0, 83, 100
1, 94837, Note_on_c, 0, 82, 100
1, 94965, Note_off_c, 0, 82, 100
1, 94965, Note_on_c, 0, 81, 100
1, 95077, Note_off_c, 0, 81, 100
1, 95077, Note_on_c, 0, 80, 100
1, 95173, Note_off_c, 0, 80, 100
1, 95173, Note_on_c, 0, 77, 100
1, 95221, Note_off_c, 0, 77, 100
1, 95221, Note_on_c, 0, 79, 100
1, 95269, Note_off_c, 0, 79, 100
1, 95269, Note_on_c, 0, 77, 100
1, 95317, Note_off_c, 0, 77, 100
1, 95317, Note_on_c, 0, 78, 100
1, 95365, Note_off_c, 0, 78, 100
1, 95365, Note_on_c, 0, 76, 100
1, 95413, Note_off_c, 0, 76, 100
1, 95413, Note_on_c, 0, 77, 100
1, 95477, Note_off_c, 0, 77, 100
1, 95477, Note_on_c, 0, 74, 100
1, 95541, Note_off_c, 0, 74, 100
1, 95541, Note_on_c, 0, 73, 100
1, 95605, Note_off_c, 0, 73, 100
1, 95605, Note_on_c, 0, 72, 100
1, 95669, Note_off_c, 0, 72, 100
1, 95669, Note_on_c, 0, 70, 100
1, 95797, Note_off_c, 0, 70, 100
1, 95797, Note_on_c, 0, 68, 100
1, 95893, Note_off_c, 0, 68, 100
1, 97973, Note_on_c, 0, 79, 100
1, 98101, Note_off_c, 0, 79, 100
1, 98101, Note_on_c, 0, 80, 100
1, 98245, Note_off_c, 0, 80, 100
1, 98245, Note_on_c, 0, 79, 100
1, 98581, Note_off_c, 0, 79, 100
1, 98581, Note_on_c, 0, 80, 100
1, 98677, Note_off_c, 0, 80, 100
1, 98677, Note_on_c, 0, 79, 100
1, 98773, Note_off_c, 0, 79, 100
1, 98773, Note_on_c, 0, 80, 100
1, 98869, Note_off_c, 0, 80, 100
1, 98869, Note_on_c, 0, 79, 100
1, 98965, Note_off_c, 0, 79, 100
1, 98965, Note_on_c, 0, 78, 100
1, 99061, Note_off_c, 0, 78, 100
1, 99061, Note_on_c, 0, 79, 100
1, 99157, Note_off_c, 0, 79, 100
1, 99157, Note_on_c, 0, 80, 100
1, 99253, Note_off_c, 0, 80, 100
1, 99253, Note_on_c, 0, 79, 100
1, 99349, Note_off_c, 0, 79, 100
1, 99349, Note_on_c, 0, 78, 100
1, 99445, Note_off_c, 0, 78, 100
1, 99445, Note_on_c, 0, 79, 100
1, 99541, Note_off_c, 0, 79, 100
1, 99541, Note_on_c, 0, 80, 100
1, 99637, Note_off_c, 0, 80, 100
1, 99637, Note_on_c, 0, 79, 100
1, 99733, Note_off_c, 0, 79, 100
1, 99733, Note_on_c, 0, 78, 100
1, 99829, Note_off_c, 0, 78, 100
1, 99829, Note_on_c, 0, 79, 100
1, 99925, Note_off_c, 0, 79, 100
1, 99925, Note_on_c, 0, 80, 100
1, 100021, Note_off_c, 0, 80, 100
1, 100021, Note_on_c, 0, 79, 100
1, 100117, Note_off_c, 0, 79, 100
1, 100117, Note_on_c, 0, 78, 100
1, 100213, Note_off_c, 0, 78, 100
1, 100213, Note_on_c, 0, 79, 100
1, 100309, Note_off_c, 0, 79, 100
1, 100309, Note_on_c, 0, 80, 100
1, 100405, Note_off_c, 0, 80, 100
1, 100405, Note_on_c, 0, 79, 100
1, 100469, Note_off_c, 0, 79, 100
1, 100469, Note_on_c, 0, 78, 100
1, 100533, Note_off_c, 0, 78, 100
1, 100533, Note_on_c, 0, 79, 100
1, 100629, Note_off_c, 0, 79, 100
1, 100933, Note_on_c, 0, 80, 100
1, 101029, Note_off_c, 0, 80, 100
1, 101269, Note_on_c, 0, 79, 100
1, 101365, Note_off_c, 0, 79, 100
1, 101749, Note_on_c, 0, 78, 100
1, 101877, Note_off_c, 0, 78, 100
1, 101877, Note_on_c, 0, 79, 100
1, 101941, Note_off_c, 0, 79, 100
1, 101941, Note_on_c, 0, 80, 100
1, 102037, Note_off_c, 0, 80, 100
1, 102037, Note_on_c, 0, 79, 100
1, 102133, Note_off_c, 0, 79, 100
1, 102133, Note_on_c, 0, 78, 100
1, 102229, Note_off_c, 0, 78, 100
1, 102469, Note_on_c, 0, 79, 100
1, 102565, Note_off_c, 0, 79, 100
1, 102853, Note_on_c, 0, 79, 100
1, 102949, Note_off_c, 0, 79, 100
1, 103189, Note_on_c, 0, 78, 100
1, 103333, Note_off_c, 0, 78, 100
1, 103333, Note_on_c, 0, 79, 100
1, 103429, Note_off_c, 0, 79, 100
1, 103429, Note_on_c, 0, 80, 100
1, 103573, Note_off_c, 0, 80, 100
1, 103573, Note_on_c, 0, 79, 100
1, 103669, Note_off_c, 0, 79, 100
1, 103669, Note_on_c, 0, 78, 100
1, 103765, Note_off_c, 0, 78, 100
1, 103765, Note_on_c, 0, 79, 100
1, 103861, Note_off_c, 0, 79, 100
1, 103861, Note_on_c, 0, 80, 100
1, 103957, Note_off_c, 0, 80, 100
1, 103957, Note_on_c, 0, 79, 100
1, 104053, Note_off_c, 0, 79, 100
1, 104053, Note_on_c, 0, 78, 100
1, 104101, Note_off_c, 0, 78, 100
1, 104101, Note_on_c, 0, 79, 100
1, 104197, Note_off_c, 0, 79, 100
1, 104197, Note_on_c, 0, 73, 100
1, 104341, Note_off_c, 0, 73, 100
1, 104341, Note_on_c, 0, 72, 100
1, 104437, Note_off_c, 0, 72, 100
1, 104437, Note_on_c, 0, 71, 100
1, 104629, Note_off_c, 0, 71, 100
1, 104629, Note_on_c, 0, 68, 100
1, 104725, Note_off_c, 0, 68, 100
1, 104725, Note_on_c, 0, 67, 100
1, 104821, Note_off_c, 0, 67, 100
1, 104821, Note_on_c, 0, 66, 100
1, 105157, Note_off_c, 0, 66, 100
1, 105157, Note_on_c, 0, 70, 100
1, 105205, Note_off_c, 0, 70, 100
1, 105205, Note_on_c, 0, 61, 100
1, 105301, Note_off_c, 0, 61, 100
1, 105301, Note_on_c, 0, 70, 100
1, 105397, Note_off_c, 0, 70, 100
1, 105397, Note_on_c, 0, 60, 100
1, 105541, Note_off_c, 0, 60, 100
1, 105541, Note_on_c, 0, 59, 100
1, 105637, Note_off_c, 0, 59, 100
1, 106501, Note_on_c, 0, 69, 100
1, 106549, Note_off_c, 0, 69, 100
1, 106549, Note_on_c, 0, 75, 100
1, 106645, Note_off_c, 0, 75, 100
1, 106645, Note_on_c, 0, 70, 100
1, 106741, Note_off_c, 0, 70, 100
1, 106741, Note_on_c, 0, 61, 100
1, 106933, Note_off_c, 0, 61, 100
1, 106933, Note_on_c, 0, 68, 100
1, 107061, Note_off_c, 0, 68, 100
1, 107061, Note_on_c, 0, 70, 100
1, 107125, Note_off_c, 0, 70, 100
1, 107125, Note_on_c, 0, 72, 100
1, 107269, Note_off_c, 0, 72, 100
1, 107269, Note_on_c, 0, 75, 100
1, 107413, Note_off_c, 0, 75, 100
1, 107413, Note_on_c, 0, 74, 100
1, 107509, Note_off_c, 0, 74, 100
1, 107509, Note_on_c, 0, 72, 100
1, 107557, Note_off_c, 0, 72, 100
1, 107557, Note_on_c, 0, 73, 100
1, 107653, Note_off_c, 0, 73, 100
1, 107653, Note_on_c, 0, 77, 100
1, 107797, Note_off_c, 0, 77, 100
1, 107797, Note_on_c, 0, 79, 100
1, 107893, Note_off_c, 0, 79, 100
1, 107893, Note_on_c, 0, 80, 100
1, 107989, Note_off_c, 0, 80, 100
1, 107989, Note_on_c, 0, 82, 100
1, 108133, Note_off_c, 0, 82, 100
1, 108133, Note_on_c, 0, 80, 100
1, 108229, Note_off_c, 0, 80, 100
1, 108229, Note_on_c, 0, 79, 100
1, 108325, Note_off_c, 0, 79, 100
1, 108325, Note_on_c, 0, 78, 100
1, 108421, Note_off_c, 0, 78, 100
1, 108421, Note_on_c, 0, 77, 100
1, 108517, Note_off_c, 0, 77, 100
1, 108517, Note_on_c, 0, 76, 100
1, 108613, Note_off_c, 0, 76, 100
1, 108613, Note_on_c, 0, 75, 100
1, 108709, Note_off_c, 0, 75, 100
1, 108709, Note_on_c, 0, 79, 100
1, 108805, Note_off_c, 0, 79, 100
1, 108805, Note_on_c, 0, 74, 100
1, 108853, Note_off_c, 0, 74, 100
1, 108853, Note_on_c, 0, 77, 100
1, 109045, Note_off_c, 0, 77, 100
1, 109045, Note_on_c, 0, 75, 100
1, 109141, Note_off_c, 0, 75, 100
1, 109141, Note_on_c, 0, 73, 100
1, 109237, Note_off_c, 0, 73, 100
1, 109237, Note_on_c, 0, 70, 100
1, 109429, Note_off_c, 0, 70, 100
1, 109429, Note_on_c, 0, 73, 100
1, 109525, Note_off_c, 0, 73, 100
1, 109525, Note_on_c, 0, 74, 100
1, 109621, Note_off_c, 0, 74, 100
1, 109621, Note_on_c, 0, 71, 100
1, 109717, Note_off_c, 0, 71, 100
1, 109717, Note_on_c, 0, 69, 100
1, 109813, Note_off_c, 0, 69, 100
1, 109813, Note_on_c, 0, 70, 100
1, 110101, Note_off_c, 0, 70, 100
1, 110389, Note_on_c, 0, 77, 100
1, 110533, Note_off_c, 0, 77, 100
1, 110533, Note_on_c, 0, 75, 100
1, 110821, Note_off_c, 0, 75, 100
1, 111109, Note_on_c, 0, 75, 100
1, 111205, Note_off_c, 0, 75, 100
1, 111205, Note_on_c, 0, 83, 100
1, 111301, Note_off_c, 0, 83, 100
1, 111301, Note_on_c, 0, 82, 100
1, 111685, Note_off_c, 0, 82, 100
1, 111877, Note_on_c, 0, 76, 100
1, 112117, Note_off_c, 0, 76, 100
1, 112117, Note_on_c, 0, 77, 100
1, 112309, Note_off_c, 0, 77, 100
1, 112309, Note_on_c, 0, 70, 100
1, 112405, Note_off_c, 0, 70, 100
1, 112645, Note_on_c, 0, 76, 100
1, 112789, Note_off_c, 0, 76, 100
1, 112789, Note_on_c, 0, 79, 100
1, 112981, Note_off_c, 0, 79, 100
1, 113413, Note_on_c, 0, 72, 100
1, 113557, Note_off_c, 0, 72, 100
1, 113557, Note_on_c, 0, 84, 100
1, 113749, Note_off_c, 0, 84, 100
1, 114229, Note_on_c, 0, 81, 100
1, 114325, Note_off_c, 0, 81, 100
1, 114325, Note_on_c, 0, 77, 100
1, 114421, Note_off_c, 0, 77, 100
1, 114421, Note_on_c, 0, 72, 100
1, 114517, Note_off_c, 0, 72, 100
1, 114757, Note_on_c, 0, 75, 100
1, 114901, Note_off_c, 0, 75, 100
1, 114901, Note_on_c, 0, 70, 100
1, 114997, Note_off_c, 0, 70, 100
1, 114997, Note_on_c, 0, 60, 100
1, 115093, Note_off_c, 0, 60, 100
1, 115093, Note_on_c, 0, 63, 100
1, 115237, Note_off_c, 0, 63, 100
1, 115237, Note_on_c, 0, 59, 100
1, 115333, Note_off_c, 0, 59, 100
1, 115573, Note_on_c, 0, 59, 100
1, 115669, Note_off_c, 0, 59, 100
1, 115669, Note_on_c, 0, 63, 100
1, 115765, Note_off_c, 0, 63, 100
1, 115765, Note_on_c, 0, 74, 100
1, 115813, Note_off_c, 0, 74, 100
1, 115813, Note_on_c, 0, 76, 100
1, 115861, Note_off_c, 0, 76, 100
1, 115861, Note_on_c, 0, 75, 100
1, 115957, Note_off_c, 0, 75, 100
1, 115957, Note_on_c, 0, 84, 100
1, 116021, Note_off_c, 0, 84, 100
1, 116021, Note_on_c, 0, 83, 100
1, 116085, Note_off_c, 0, 83, 100
1, 116085, Note_on_c, 0, 85, 100
1, 116149, Note_off_c, 0, 85, 100
1, 116149, Note_on_c, 0, 82, 100
1, 116341, Note_off_c, 0, 82, 100
1, 116869, Note_on_c, 0, 59, 100
1, 116917, Note_off_c, 0, 59, 100
1, 116917, Note_on_c, 0, 62, 100
1, 116965, Note_off_c, 0, 62, 100
1, 116965, Note_on_c, 0, 59, 100
1, 117061, Note_off_c, 0, 59, 100
1, 117061, Note_on_c, 0, 65, 100
1, 117109, Note_off_c, 0, 65, 100
1, 117109, Note_on_c, 0, 62, 100
1, 117173, Note_off_c, 0, 62, 100
1, 117173, Note_on_c, 0, 63, 100
1, 117237, Note_off_c, 0, 63, 100
1, 117237, Note_on_c, 0, 65, 100
1, 117301, Note_off_c, 0, 65, 100
1, 117301, Note_on_c, 0, 63, 100
1, 117397, Note_off_c, 0, 63, 100
1, 117397, Note_on_c, 0, 77, 100
1, 117493, Note_off_c, 0, 77, 100
1, 117493, Note_on_c, 0, 70, 100
1, 117589, Note_off_c, 0, 70, 100
1, 117589, Note_on_c, 0, 74, 100
1, 117685, Note_off_c, 0, 74, 100
1, 117685, Note_on_c, 0, 77, 100
1, 117749, Note_off_c, 0, 77, 100
1, 117749, Note_on_c, 0, 82, 100
1, 117813, Note_off_c, 0, 82, 100
1, 117813, Note_on_c, 0, 83, 100
1, 117925, Note_off_c, 0, 83, 100
1, 117925, Note_on_c, 0, 82, 100
1, 118021, Note_off_c, 0, 82, 100
1, 118021, Note_on_c, 0, 83, 100
1, 118069, Note_off_c, 0, 83, 100
1, 118069, Note_on_c, 0, 85, 100
1, 118165, Note_off_c, 0, 85, 100
1, 118165, Note_on_c, 0, 85, 100
1, 118261, Note_off_c, 0, 85, 100
1, 118261, Note_on_c, 0, 82, 100
1, 118325, Note_off_c, 0, 82, 100
1, 118325, Note_on_c, 0, 85, 100
1, 118389, Note_off_c, 0, 85, 100
1, 118389, Note_on_c, 0, 82, 100
1, 118453, Note_off_c, 0, 82, 100
1, 118453, Note_on_c, 0, 85, 100
1, 118549, Note_off_c, 0, 85, 100
1, 118549, Note_on_c, 0, 83, 100
1, 118597, Note_off_c, 0, 83, 100
1, 118597, Note_on_c, 0, 82, 100
1, 118789, Note_off_c, 0, 82, 100
1, 118789, Note_on_c, 0, 78, 100
1, 118885, Note_off_c, 0, 78, 100
1, 118885, Note_on_c, 0, 58, 100
1, 118981, Note_off_c, 0, 58, 100
1, 118981, Note_on_c, 0, 59, 100
1, 120085, Note_off_c, 0, 59, 100
1, 120085, Note_on_c, 0, 71, 100
1, 120181, Note_off_c, 0, 71, 100
1, 120181, Note_on_c, 0, 59, 100
1, 120277, Note_off_c, 0, 59, 100
1, 120277, Note_on_c, 0, 66, 100
1, 120325, Note_off_c, 0, 66, 100
1, 120325, Note_on_c, 0, 67, 100
1, 120517, Note_off_c, 0, 67, 100
1, 120517, Note_on_c, 0, 65, 100
1, 120661, Note_off_c, 0, 65, 100
1, 120661, Note_on_c, 0, 64, 100
1, 120709, Note_off_c, 0, 64, 100
1, 120709, Note_on_c, 0, 63, 100
1, 120853, Note_off_c, 0, 63, 100
1, 120853, Note_on_c, 0, 67, 100
1, 120949, Note_off_c, 0, 67, 100
1, 120949, Note_on_c, 0, 62, 100
1, 121045, Note_off_c, 0, 62, 100
1, 121045, Note_on_c, 0, 65, 100
1, 121141, Note_off_c, 0, 65, 100
1, 121141, Note_on_c, 0, 68, 100
1, 121237, Note_off_c, 0, 68, 100
1, 121237, Note_on_c, 0, 70, 100
1, 121333, Note_off_c, 0, 70, 100
1, 121333, Note_on_c, 0, 71, 100
1, 121461, Note_off_c, 0, 71, 100
1, 121461, Note_on_c, 0, 75, 100
1, 121525, Note_off_c, 0, 75, 100
1, 121525, Note_on_c, 0, 77, 100
1, 121653, Note_off_c, 0, 77, 100
1, 121653, Note_on_c, 0, 75, 100
1, 121717, Note_off_c, 0, 75, 100
1, 121717, Note_on_c, 0, 77, 100
1, 121845, Note_off_c, 0, 77, 100
1, 121845, Note_on_c, 0, 75, 100
1, 121909, Note_off_c, 0, 75, 100
1, 121909, Note_on_c, 0, 77, 100
1, 122101, Note_off_c, 0, 77, 100
1, 122101, Note_on_c, 0, 75, 100
1, 122197, Note_off_c, 0, 75, 100
1, 122197, Note_on_c, 0, 77, 100
1, 122293, Note_off_c, 0, 77, 100
1, 122293, Note_on_c, 0, 75, 100
1, 122389, Note_off_c, 0, 75, 100
1, 122389, Note_on_c, 0, 77, 100
1, 122485, Note_off_c, 0, 77, 100
1, 122485, Note_on_c, 0, 75, 100
1, 122581, Note_off_c, 0, 75, 100
1, 122581, Note_on_c, 0, 77, 100
1, 122677, Note_off_c, 0, 77, 100
1, 122677, Note_on_c, 0, 75, 100
1, 122773, Note_off_c, 0, 75, 100
1, 122773, Note_on_c, 0, 77, 100
1, 122869, Note_off_c, 0, 77, 100
1, 122869, Note_on_c, 0, 75, 100
1, 122965, Note_off_c, 0, 75, 100
1, 122965, Note_on_c, 0, 77, 100
1, 123061, Note_off_c, 0, 77, 100
1, 123061, Note_on_c, 0, 75, 100
1, 123157, Note_off_c, 0, 75, 100
1, 123157, Note_on_c, 0, 77, 100
1, 123253, Note_off_c, 0, 77, 100
1, 123253, Note_on_c, 0, 75, 100
1, 123349, Note_off_c, 0, 75, 100
1, 123349, Note_on_c, 0, 77, 100
1, 123445, Note_off_c, 0, 77, 100
1, 123445, Note_on_c, 0, 75, 100
1, 123541, Note_off_c, 0, 75, 100
1, 123541, Note_on_c, 0, 77, 100
1, 123637, Note_off_c, 0, 77, 100
1, 123637, Note_on_c, 0, 75, 100
1, 123733, Note_off_c, 0, 75, 100
1, 123733, Note_on_c, 0, 77, 100
1, 123829, Note_off_c, 0, 77, 100
1, 123829, Note_on_c, 0, 75, 100
1, 123925, Note_off_c, 0, 75, 100
1, 123925, Note_on_c, 0, 77, 100
1, 124021, Note_off_c, 0, 77, 100
1, 124021, Note_on_c, 0, 75, 100
1, 124069, Note_off_c, 0, 75, 100
1, 124069, Note_on_c, 0, 77, 100
1, 124165, Note_off_c, 0, 77, 100
1, 124165, Note_on_c, 0, 75, 100
1, 124261, Note_off_c, 0, 75, 100
1, 124261, Note_on_c, 0, 77, 100
1, 124357, Note_off_c, 0, 77, 100
1, 124357, Note_on_c, 0, 75, 100
1, 124469, Note_off_c, 0, 75, 100
1, 124469, Note_on_c, 0, 77, 100
1, 124597, Note_off_c, 0, 77, 100
1, 124597, Note_on_c, 0, 75, 100
1, 124693, Note_off_c, 0, 75, 100
1, 124693, Note_on_c, 0, 77, 100
1, 124789, Note_off_c, 0, 77, 100
1, 124789, Note_on_c, 0, 75, 100
1, 124933, Note_off_c, 0, 75, 100
1, 124933, Note_on_c, 0, 71, 100
1, 125029, Note_off_c, 0, 71, 100
1, 128005, Note_on_c, 0, 68, 100
1, 128149, Note_off_c, 0, 68, 100
1, 128149, Note_on_c, 0, 67, 100
1, 128245, Note_off_c, 0, 67, 100
1, 128245, Note_on_c, 0, 68, 100
1, 128341, Note_off_c, 0, 68, 100
1, 128341, Note_on_c, 0, 70, 100
1, 128533, Note_off_c, 0, 70, 100
1, 128533, Note_on_c, 0, 75, 100
1, 128725, Note_off_c, 0, 75, 100
1, 128725, Note_on_c, 0, 75, 100
1, 128917, Note_off_c, 0, 75, 100
1, 128917, Note_on_c, 0, 75, 100
1, 129013, Note_off_c, 0, 75, 100
1, 129013, Note_on_c, 0, 75, 100
1, 129205, Note_off_c, 0, 75, 100
1, 129205, Note_on_c, 0, 75, 100
1, 129349, Note_off_c, 0, 75, 100
1, 129349, Note_on_c, 0, 75, 100
1, 129461, Note_off_c, 0, 75, 100
1, 129461, Note_on_c, 0, 75, 100
1, 129589, Note_off_c, 0, 75, 100
1, 129589, Note_on_c, 0, 75, 100
1, 129717, Note_off_c, 0, 75, 100
1, 129717, Note_on_c, 0, 75, 100
1, 129781, Note_off_c, 0, 75, 100
1, 129781, Note_on_c, 0, 75, 100
1, 129877, Note_off_c, 0, 75, 100
1, 129877, Note_on_c, 0, 77, 100
1, 129973, Note_off_c, 0, 77, 100
1, 129973, Note_on_c, 0, 75, 100
1, 130165, Note_off_c, 0, 75, 100
1, 130165, Note_on_c, 0, 71, 100
1, 130357, Note_off_c, 0, 71, 100
1, 131413, Note_on_c, 0, 58, 100
1, 131509, Note_off_c, 0, 58, 100
1, 131509, Note_on_c, 0, 63, 100
1, 131605, Note_off_c, 0, 63, 100
1, 131605, Note_on_c, 0, 65, 100
1, 131701, Note_off_c, 0, 65, 100
1, 131701, Note_on_c, 0, 66, 100
1, 131957, Note_off_c, 0, 66, 100
1, 131957, Note_on_c, 0, 64, 100
1, 132021, Note_off_c, 0, 64, 100
1, 132021, Note_on_c, 0, 66, 100
1, 132085, Note_off_c, 0, 66, 100
1, 132085, Note_on_c, 0, 65, 100
1, 132213, Note_off_c, 0, 65, 100
1, 132213, Note_on_c, 0, 64, 100
1, 132277, Note_off_c, 0, 64, 100
1, 132277, Note_on_c, 0, 63, 100
1, 132373, Note_off_c, 0, 63, 100
1, 132373, Note_on_c, 0, 66, 100
1, 132469, Note_off_c, 0, 66, 100
1, 132469, Note_on_c, 0, 61, 100
1, 132565, Note_off_c, 0, 61, 100
1, 132565, Note_on_c, 0, 65, 100
1, 132613, Note_off_c, 0, 65, 100
1, 132613, Note_on_c, 0, 68, 100
1, 132757, Note_off_c, 0, 68, 100
1, 132757, Note_on_c, 0, 69, 100
1, 132853, Note_off_c, 0, 69, 100
1, 132853, Note_on_c, 0, 71, 100
1, 132949, Note_off_c, 0, 71, 100
1, 132949, Note_on_c, 0, 73, 100
1, 133045, Note_off_c, 0, 73, 100
1, 133045, Note_on_c, 0, 75, 100
1, 133141, Note_off_c, 0, 75, 100
1, 133141, Note_on_c, 0, 78, 100
1, 133237, Note_off_c, 0, 78, 100
1, 133237, Note_on_c, 0, 77, 100
1, 133333, Note_off_c, 0, 77, 100
1, 133333, Note_on_c, 0, 76, 100
1, 133381, Note_off_c, 0, 76, 100
1, 133381, Note_on_c, 0, 75, 100
1, 133525, Note_off_c, 0, 75, 100
1, 133525, Note_on_c, 0, 71, 100
1, 133573, Note_off_c, 0, 71, 100
1, 133573, Note_on_c, 0, 76, 100
1, 133717, Note_off_c, 0, 76, 100
1, 133717, Note_on_c, 0, 74, 100
1, 133813, Note_off_c, 0, 74, 100
1, 133813, Note_on_c, 0, 75, 100
1, 133909, Note_off_c, 0, 75, 100
1, 133909, Note_on_c, 0, 74, 100
1, 134005, Note_off_c, 0, 74, 100
1, 134005, Note_on_c, 0, 73, 100
1, 134101, Note_off_c, 0, 73, 100
1, 134101, Note_on_c, 0, 73, 100
1, 134197, Note_off_c, 0, 73, 100
1, 134197, Note_on_c, 0, 71, 100
1, 134293, Note_off_c, 0, 71, 100
1, 134293, Note_on_c, 0, 69, 100
1, 134389, Note_off_c, 0, 69, 100
1, 134389, Note_on_c, 0, 70, 100
1, 134517, Note_off_c, 0, 70, 100
1, 134517, Note_on_c, 0, 73, 100
1, 134581, Note_off_c, 0, 73, 100
1, 134581, Note_on_c, 0, 75, 100
1, 134677, Note_off_c, 0, 75, 100
1, 134677, Note_on_c, 0, 77, 100
1, 134773, Note_off_c, 0, 77, 100
1, 134773, Note_on_c, 0, 79, 100
1, 134869, Note_off_c, 0, 79, 100
1, 134869, Note_on_c, 0, 82, 100
1, 134965, Note_off_c, 0, 82, 100
1, 134965, Note_on_c, 0, 84, 100
1, 135109, Note_off_c, 0, 84, 100
1, 135109, Note_on_c, 0, 82, 100
1, 135493, Note_off_c, 0, 82, 100
1, 135493, Note_on_c, 0, 79, 100
1, 135637, Note_off_c, 0, 79, 100
1, 135637, Note_on_c, 0, 77, 100
1, 135733, Note_off_c, 0, 77, 100
1, 135733, Note_on_c, 0, 74, 100
1, 135829, Note_off_c, 0, 74, 100
1, 135829, Note_on_c, 0, 71, 100
1, 135877, Note_off_c, 0, 71, 100
1, 135877, Note_on_c, 0, 76, 100
1, 136021, Note_off_c, 0, 76, 100
1, 136021, Note_on_c, 0, 78, 100
1, 136117, Note_off_c, 0, 78, 100
1, 136117, Note_on_c, 0, 79, 100
1, 136213, Note_off_c, 0, 79, 100
1, 136213, Note_on_c, 0, 81, 100
1, 136309, Note_off_c, 0, 81, 100
1, 136309, Note_on_c, 0, 78, 100
1, 136405, Note_off_c, 0, 78, 100
1, 136405, Note_on_c, 0, 73, 100
1, 136501, Note_off_c, 0, 73, 100
1, 136501, Note_on_c, 0, 71, 100
1, 136597, Note_off_c, 0, 71, 100
1, 136597, Note_on_c, 0, 69, 100
1, 136693, Note_off_c, 0, 69, 100
1, 136693, Note_on_c, 0, 76, 100
1, 136789, Note_off_c, 0, 76, 100
1, 136789, Note_on_c, 0, 78, 100
1, 136837, Note_off_c, 0, 78, 100
1, 136837, Note_on_c, 0, 73, 100
1, 136981, Note_off_c, 0, 73, 100
1, 136981, Note_on_c, 0, 76, 100
1, 137077, Note_off_c, 0, 76, 100
1, 137077, Note_on_c, 0, 75, 100
1, 137173, Note_off_c, 0, 75, 100
1, 137173, Note_on_c, 0, 71, 100
1, 137269, Note_off_c, 0, 71, 100
1, 137269, Note_on_c, 0, 66, 100
1, 137317, Note_off_c, 0, 66, 100
1, 137317, Note_on_c, 0, 63, 100
1, 137413, Note_off_c, 0, 63, 100
1, 137413, Note_on_c, 0, 68, 100
1, 137557, Note_off_c, 0, 68, 100
1, 137557, Note_on_c, 0, 70, 100
1, 137605, Note_off_c, 0, 70, 100
1, 137605, Note_on_c, 0, 72, 100
1, 137749, Note_off_c, 0, 72, 100
1, 137749, Note_on_c, 0, 74, 100
1, 137845, Note_off_c, 0, 74, 100
1, 137845, Note_on_c, 0, 70, 100
1, 137941, Note_off_c, 0, 70, 100
1, 137941, Note_on_c, 0, 67, 100
1, 138037, Note_off_c, 0, 67, 100
1, 138037, Note_on_c, 0, 62, 100
1, 138133, Note_off_c, 0, 62, 100
1, 138133, Note_on_c, 0, 60, 100
1, 138229, Note_off_c, 0, 60, 100
1, 138229, Note_on_c, 0, 67, 100
1, 138325, Note_off_c, 0, 67, 100
1, 138325, Note_on_c, 0, 64, 100
1, 138373, Note_off_c, 0, 64, 100
1, 138373, Note_on_c, 0, 63, 100
1, 138517, Note_off_c, 0, 63, 100
1, 138517, Note_on_c, 0, 67, 100
1, 138613, Note_off_c, 0, 67, 100
1, 138613, Note_on_c, 0, 62, 100
1, 138709, Note_off_c, 0, 62, 100
1, 138709, Note_on_c, 0, 65, 100
1, 138757, Note_off_c, 0, 65, 100
1, 138757, Note_on_c, 0, 67, 100
1, 138901, Note_off_c, 0, 67, 100
1, 138901, Note_on_c, 0, 70, 100
1, 138997, Note_off_c, 0, 70, 100
1, 138997, Note_on_c, 0, 60, 100
1, 139237, Note_off_c, 0, 60, 100
1, 139237, Note_on_c, 0, 63, 100
1, 139333, Note_off_c, 0, 63, 100
1, 139333, Note_on_c, 0, 61, 100
1, 139621, Note_off_c, 0, 61, 100
1, 139621, Note_on_c, 0, 65, 100
1, 139717, Note_off_c, 0, 65, 100
1, 139717, Note_on_c, 0, 63, 100
1, 139957, Note_off_c, 0, 63, 100
1, 139957, Note_on_c, 0, 67, 100
1, 140053, Note_off_c, 0, 67, 100
1, 140053, Note_on_c, 0, 66, 100
1, 140437, Note_off_c, 0, 66, 100
1, 140437, Note_on_c, 0, 71, 100
1, 140485, Note_off_c, 0, 71, 100
1, 140485, Note_on_c, 0, 67, 100
1, 140677, Note_off_c, 0, 67, 100
1, 140677, Note_on_c, 0, 60, 100
1, 140917, Note_off_c, 0, 60, 100
1, 140917, Note_on_c, 0, 66, 100
1, 141205, Note_off_c, 0, 66, 100
1, 141205, Note_on_c, 0, 65, 100
1, 141589, Note_off_c, 0, 65, 100
1, 141589, Note_on_c, 0, 63, 100
1, 141685, Note_off_c, 0, 63, 100
1, 141685, Note_on_c, 0, 65, 100
1, 141781, Note_off_c, 0, 65, 100
1, 141781, Note_on_c, 0, 65, 100
1, 141877, Note_off_c, 0, 65, 100
1, 141877, Note_on_c, 0, 63, 100
1, 141973, Note_off_c, 0, 63, 100
1, 141973, Note_on_c, 0, 65, 100
1, 142069, Note_off_c, 0, 65, 100
1, 142069, Note_on_c, 0, 63, 100
1, 142117, Note_off_c, 0, 63, 100
1, 142117, Note_on_c, 0, 63, 100
1, 142213, Note_off_c, 0, 63, 100
1, 142213, Note_on_c, 0, 63, 100
1, 142357, Note_off_c, 0, 63, 100
1, 142357, Note_on_c, 0, 65, 100
1, 142501, Note_off_c, 0, 65, 100
1, 142501, Note_on_c, 0, 65, 100
1, 142597, Note_off_c, 0, 65, 100
1, 142597, Note_on_c, 0, 63, 100
1, 142693, Note_off_c, 0, 63, 100
1, 143413, Note_on_c, 0, 67, 100
1, 143557, Note_off_c, 0, 67, 100
1, 143557, Note_on_c, 0, 66, 100
1, 143605, Note_off_c, 0, 66, 100
1, 143605, Note_on_c, 0, 67, 100
1, 143797, Note_off_c, 0, 67, 100
1, 143797, Note_on_c, 0, 72, 100
1, 143989, Note_off_c, 0, 72, 100
1, 143989, Note_on_c, 0, 64, 100
1, 144085, Note_off_c, 0, 64, 100
1, 144085, Note_on_c, 0, 65, 100
1, 144133, Note_off_c, 0, 65, 100
1, 144133, Note_on_c, 0, 66, 100
1, 144277, Note_off_c, 0, 66, 100
1, 144277, Note_on_c, 0, 65, 100
1, 144661, Note_off_c, 0, 65, 100
1, 144661, Note_on_c, 0, 63, 100
1, 144757, Note_off_c, 0, 63, 100
1, 144757, Note_on_c, 0, 65, 100
1, 144949, Note_off_c, 0, 65, 100
1, 144949, Note_on_c, 0, 63, 100
1, 145045, Note_off_c, 0, 63, 100
1, 146293, Note_on_c, 0, 68, 100
1, 146389, Note_off_c, 0, 68, 100
1, 146389, Note_on_c, 0, 67, 100
1, 146485, Note_off_c, 0, 67, 100
1, 146485, Note_on_c, 0, 66, 100
1, 146581, Note_off_c, 0, 66, 100
1, 146581, Note_on_c, 0, 67, 100
1, 146677, Note_off_c, 0, 67, 100
1, 146677, Note_on_c, 0, 72, 100
1, 147253, Note_off_c, 0, 72, 100
1, 147253, Note_on_c, 0, 68, 100
1, 147317, Note_off_c, 0, 68, 100
1, 147317, Note_on_c, 0, 65, 100
1, 147381, Note_off_c, 0, 65, 100
1, 147381, Note_on_c, 0, 66, 100
1, 147445, Note_off_c, 0, 66, 100
1, 147445, Note_on_c, 0, 65, 100
1, 147637, Note_off_c, 0, 65, 100
1, 147637, Note_on_c, 0, 64, 100
1, 147733, Note_off_c, 0, 64, 100
1, 147733, Note_on_c, 0, 63, 100
1, 147829, Note_off_c, 0, 63, 100
1, 147829, Note_on_c, 0, 65, 100
1, 147973, Note_off_c, 0, 65, 100
1, 147973, Note_on_c, 0, 63, 100
1, 148021, Note_off_c, 0, 63, 100
1, 148021, Note_on_c, 0, 65, 100
1, 148149, Note_off_c, 0, 65, 100
1, 148149, Note_on_c, 0, 66, 100
1, 148213, Note_off_c, 0, 66, 100
1, 148213, Note_on_c, 0, 67, 100
1, 148309, Note_off_c, 0, 67, 100
1, 148309, Note_on_c, 0, 70, 100
1, 148405, Note_off_c, 0, 70, 100
1, 148405, Note_on_c, 0, 71, 100
1, 148501, Note_off_c, 0, 71, 100
1, 148501, Note_on_c, 0, 72, 100
1, 148741, Note_off_c, 0, 72, 100
1, 148741, Note_on_c, 0, 75, 100
1, 148885, Note_off_c, 0, 75, 100
1, 148885, Note_on_c, 0, 77, 100
1, 149125, Note_off_c, 0, 77, 100
1, 149125, Note_on_c, 0, 75, 100
1, 149317, Note_off_c, 0, 75, 100
1, 149317, Note_on_c, 0, 72, 100
1, 149461, Note_off_c, 0, 72, 100
1, 149461, Note_on_c, 0, 63, 100
1, 149557, Note_off_c, 0, 63, 100
1, 149557, Note_on_c, 0, 65, 100
1, 149605, Note_off_c, 0, 65, 100
1, 149605, Note_on_c, 0, 66, 100
1, 149701, Note_off_c, 0, 66, 100
1, 149701, Note_on_c, 0, 65, 100
1, 149941, Note_off_c, 0, 65, 100
1, 149941, Note_on_c, 0, 64, 100
1, 150005, Note_off_c, 0, 64, 100
1, 150005, Note_on_c, 0, 65, 100
1, 150069, Note_off_c, 0, 65, 100
1, 150069, Note_on_c, 0, 63, 100
1, 150133, Note_off_c, 0, 63, 100
1, 150133, Note_on_c, 0, 65, 100
1, 150325, Note_off_c, 0, 65, 100
1, 150325, Note_on_c, 0, 63, 100
1, 150421, Note_off_c, 0, 63, 100
1, 150421, Note_on_c, 0, 64, 100
1, 150469, Note_off_c, 0, 64, 100
1, 150469, Note_on_c, 0, 63, 100
1, 150517, Note_off_c, 0, 63, 100
1, 150517, Note_on_c, 0, 65, 100
1, 150805, Note_off_c, 0, 65, 100
1, 150805, Note_on_c, 0, 63, 100
1, 150901, Note_off_c, 0, 63, 100
1, 150901, Note_on_c, 0, 65, 100
1, 150997, Note_off_c, 0, 65, 100
1, 150997, Note_on_c, 0, 66, 100
1, 151093, Note_off_c, 0, 66, 100
1, 151093, Note_on_c, 0, 60, 100
1, 151285, Note_off_c, 0, 60, 100
1, 151285, Note_on_c, 0, 63, 100
1, 151573, Note_off_c, 0, 63, 100
1, 152437, Note_on_c, 0, 68, 100
1, 152533, Note_off_c, 0, 68, 100
1, 152533, Note_on_c, 0, 67, 100
1, 152581, Note_off_c, 0, 67, 100
1, 152581, Note_on_c, 0, 66, 100
1, 152725, Note_off_c, 0, 66, 100
1, 152725, Note_on_c, 0, 67, 100
1, 152773, Note_off_c, 0, 67, 100
1, 152773, Note_on_c, 0, 72, 100
1, 152965, Note_off_c, 0, 72, 100
1, 152965, Note_on_c, 0, 72, 100
1, 153157, Note_off_c, 0, 72, 100
1, 153157, Note_on_c, 0, 64, 100
1, 153205, Note_off_c, 0, 64, 100
1, 153205, Note_on_c, 0, 66, 100
1, 153493, Note_off_c, 0, 66, 100
1, 153493, Note_on_c, 0, 65, 100
1, 153877, Note_off_c, 0, 65, 100
1, 153877, Note_on_c, 0, 63, 100
1, 153973, Note_off_c, 0, 63, 100
1, 153973, Note_on_c, 0, 65, 100
1, 154069, Note_off_c, 0, 65, 100
1, 154069, Note_on_c, 0, 65, 100
1, 154165, Note_off_c, 0, 65, 100
1, 154165, Note_on_c, 0, 63, 100
1, 154261, Note_off_c, 0, 63, 100
1, 154261, Note_on_c, 0, 65, 100
1, 154357, Note_off_c, 0, 65, 100
1, 154357, Note_on_c, 0, 72, 100
1, 154549, Note_off_c, 0, 72, 100
1, 154549, Note_on_c, 0, 72, 100
1, 154741, Note_off_c, 0, 72, 100
1, 154741, Note_on_c, 0, 65, 100
1, 154837, Note_off_c, 0, 65, 100
1, 154837, Note_on_c, 0, 66, 100
1, 154933, Note_off_c, 0, 66, 100
1, 154933, Note_on_c, 0, 63, 100
1, 155061, Note_off_c, 0, 63, 100
1, 155061, Note_on_c, 0, 64, 100
1, 155413, Note_off_c, 0, 64, 100
1, 155413, Note_on_c, 0, 63, 100
1, 155461, Note_off_c, 0, 63, 100
1, 155461, Note_on_c, 0, 60, 100
1, 155557, Note_off_c, 0, 60, 100
1, 155557, Note_on_c, 0, 62, 100
1, 155605, Note_off_c, 0, 62, 100
1, 155605, Note_on_c, 0, 65, 100
1, 155893, Note_off_c, 0, 65, 100
1, 155893, Note_on_c, 0, 63, 100
1, 156229, Note_off_c, 0, 63, 100
1, 156229, Note_on_c, 0, 60, 100
1, 156373, Note_off_c, 0, 60, 100
1, 156373, Note_on_c, 0, 63, 100
1, 156469, Note_off_c, 0, 63, 100
1, 158581, Note_on_c, 0, 61, 100
1, 158677, Note_off_c, 0, 61, 100
1, 158677, Note_on_c, 0, 63, 100
1, 158773, Note_off_c, 0, 63, 100
1, 158773, Note_on_c, 0, 65, 100
1, 158869, Note_off_c, 0, 65, 100
1, 158869, Note_on_c, 0, 67, 100
1, 159061, Note_off_c, 0, 67, 100
1, 159349, Note_on_c, 0, 67, 100
1, 159445, Note_off_c, 0, 67, 100
1, 159445, Note_on_c, 0, 68, 100
1, 159541, Note_off_c, 0, 68, 100
1, 159541, Note_on_c, 0, 70, 100
1, 159637, Note_off_c, 0, 70, 100
1, 159637, Note_on_c, 0, 72, 100
1, 159733, Note_off_c, 0, 72, 100
1, 160117, Note_on_c, 0, 72, 100
1, 160213, Note_off_c, 0, 72, 100
1, 160213, Note_on_c, 0, 73, 100
1, 160261, Note_off_c, 0, 73, 100
1, 160261, Note_on_c, 0, 75, 100
1, 160405, Note_off_c, 0, 75, 100
1, 160405, Note_on_c, 0, 76, 100
1, 160597, Note_off_c, 0, 76, 100
1, 160885, Note_on_c, 0, 76, 100
1, 160981, Note_off_c, 0, 76, 100
1, 160981, Note_on_c, 0, 77, 100
1, 161077, Note_off_c, 0, 77, 100
1, 161077, Note_on_c, 0, 78, 100
1, 161205, Note_off_c, 0, 78, 100
1, 161205, Note_on_c, 0, 80, 100
1, 161301, Note_off_c, 0, 80, 100
1, 161605, Note_on_c, 0, 79, 100
1, 161749, Note_off_c, 0, 79, 100
1, 161749, Note_on_c, 0, 80, 100
1, 161845, Note_off_c, 0, 80, 100
1, 161845, Note_on_c, 0, 82, 100
1, 161941, Note_off_c, 0, 82, 100
1, 161941, Note_on_c, 0, 84, 100
1, 162325, Note_off_c, 0, 84, 100
1, 162325, Note_on_c, 0, 83, 100
1, 162373, Note_off_c, 0, 83, 100
1, 162373, Note_on_c, 0, 80, 100
1, 162421, Note_off_c, 0, 80, 100
1, 162421, Note_on_c, 0, 79, 100
1, 162709, Note_off_c, 0, 79, 100
1, 162709, Note_on_c, 0, 77, 100
1, 162805, Note_off_c, 0, 77, 100
1, 162805, Note_on_c, 0, 76, 100
1, 163093, Note_off_c, 0, 76, 100
1, 163093, Note_on_c, 0, 73, 100
1, 163189, Note_off_c, 0, 73, 100
1, 163189, Note_on_c, 0, 70, 100
1, 163477, Note_off_c, 0, 70, 100
1, 163477, Note_on_c, 0, 68, 100
1, 163573, Note_off_c, 0, 68, 100
1, 163573, Note_on_c, 0, 67, 100
1, 163861, Note_off_c, 0, 67, 100
1, 163861, Note_on_c, 0, 66, 100
1, 163957, Note_off_c, 0, 66, 100
1, 163957, Note_on_c, 0, 65, 100
1, 164245, Note_off_c, 0, 65, 100
1, 164245, Note_on_c, 0, 64, 100
1, 164341, Note_off_c, 0, 64, 100
1, 164341, Note_on_c, 0, 63, 100
1, 164597, Note_off_c, 0, 63, 100
1, 164597, Note_on_c, 0, 62, 100
1, 164661, Note_off_c, 0, 62, 100
1, 164661, Note_on_c, 0, 61, 100
1, 164725, Note_off_c, 0, 61, 100
1, 164725, Note_on_c, 0, 60, 100
1, 164789, Note_off_c, 0, 60, 100
1, 164789, Note_on_c, 0, 59, 100
1, 165157, Note_off_c, 0, 59, 100
1, 165157, Note_on_c, 0, 72, 100
1, 165493, Note_off_c, 0, 72, 100
1, 165493, Note_on_c, 0, 64, 100
1, 165589, Note_off_c, 0, 64, 100
1, 165589, Note_on_c, 0, 66, 100
1, 165781, Note_off_c, 0, 66, 100
1, 165781, Note_on_c, 0, 65, 100
1, 166213, Note_off_c, 0, 65, 100
1, 166213, Note_on_c, 0, 63, 100
1, 166261, Note_off_c, 0, 63, 100
1, 166261, Note_on_c, 0, 65, 100
1, 166357, Note_off_c, 0, 65, 100
1, 166357, Note_on_c, 0, 65, 100
1, 166453, Note_off_c, 0, 65, 100
1, 166453, Note_on_c, 0, 63, 100
1, 166645, Note_off_c, 0, 63, 100
1, 166645, Note_on_c, 0, 72, 100
1, 166837, Note_off_c, 0, 72, 100
1, 166837, Note_on_c, 0, 72, 100
1, 167029, Note_off_c, 0, 72, 100
1, 167029, Note_on_c, 0, 65, 100
1, 167365, Note_off_c, 0, 65, 100
1, 167365, Note_on_c, 0, 63, 100
1, 167749, Note_off_c, 0, 63, 100
1, 167749, Note_on_c, 0, 60, 100
1, 167893, Note_off_c, 0, 60, 100
1, 167893, Note_on_c, 0, 63, 100
1, 167989, Note_off_c, 0, 63, 100
1, 167989, Note_on_c, 0, 65, 100
1, 168117, Note_off_c, 0, 65, 100
1, 168117, Note_on_c, 0, 63, 100
1, 168373, Note_off_c, 0, 63, 100
1, 168373, Note_on_c, 0, 66, 100
1, 168565, Note_off_c, 0, 66, 100
1, 168565, Note_on_c, 0, 65, 100
1, 168709, Note_off_c, 0, 65, 100
1, 168709, Note_on_c, 0, 63, 100
1, 169189, Note_off_c, 0, 63, 100
1, 171253, Note_on_c, 0, 63, 100
1, 171349, Note_off_c, 0, 63, 100
1, 171349, Note_on_c, 0, 65, 100
1, 171445, Note_off_c, 0, 65, 100
1, 171445, Note_on_c, 0, 66, 100
1, 171589, Note_off_c, 0, 66, 100
1, 171589, Note_on_c, 0, 65, 100
1, 171637, Note_off_c, 0, 65, 100
1, 171637, Note_on_c, 0, 63, 100
1, 172469, Note_off_c, 0, 63, 100
1, 172469, Note_on_c, 0, 60, 100
1, 172597, Note_off_c, 0, 60, 100
1, 172597, Note_on_c, 0, 63, 100
1, 172741, Note_off_c, 0, 63, 100
1, 172741, Note_on_c, 0, 65, 100
1, 172885, Note_off_c, 0, 65, 100
1, 172885, Note_on_c, 0, 66, 100
1, 173077, Note_off_c, 0, 66, 100
1, 173077, Note_on_c, 0, 65, 100
1, 173173, Note_off_c, 0, 65, 100
1, 173173, Note_on_c, 0, 63, 100
1, 173653, Note_off_c, 0, 63, 100
1, 174085, Note_on_c, 0, 67, 100
1, 174389, Note_off_c, 0, 67, 100
1, 174389, Note_on_c, 0, 68, 100
1, 174453, Note_off_c, 0, 68, 100
1, 174453, Note_on_c, 0, 70, 100
1, 174517, Note_off_c, 0, 70, 100
1, 174517, Note_on_c, 0, 71, 100
1, 174613, Note_off_c, 0, 71, 100
1, 174613, Note_on_c, 0, 72, 100
1, 175285, Note_off_c, 0, 72, 100
1, 175285, Note_on_c, 0, 71, 100
1, 175957, Note_off_c, 0, 71, 100
1, 175957, Note_on_c, 0, 70, 100
1, 176437, Note_off_c, 0, 70, 100
1, 176437, Note_on_c, 0, 69, 100
1, 176629, Note_off_c, 0, 69, 100
1, 176629, Note_on_c, 0, 68, 100
1, 176725, Note_off_c, 0, 68, 100
1, 176725, Note_on_c, 0, 67, 100
1, 176821, Note_off_c, 0, 67, 100
1, 176821, Note_on_c, 0, 66, 100
1, 176917, Note_off_c, 0, 66, 100
1, 176917, Note_on_c, 0, 65, 100
1, 177013, Note_off_c, 0, 65, 100
1, 177013, Note_on_c, 0, 64, 100
1, 177061, Note_off_c, 0, 64, 100
1, 177061, Note_on_c, 0, 63, 100
1, 177157, Note_off_c, 0, 63, 100
1, 177157, Note_on_c, 0, 62, 100
1, 177204, Note_off_c, 0, 62, 100
1, 177204, End_track
0, 0, End_of_file
