0, 0, Header, 1, 1, 192
1, 0, Start_track
1, 0, Title_t, "Melody"
1, 0, Tempo, 397350
1, 0, Key_signature, -3, "major"
1, 0, Time_signature, 4, 2, 24, 8
1, 192, Note_on_c, 0, 56, 100
1, 224, Note_off_c, 0, 56, 100
1, 224, Note_on_c, 0, 58, 100
1, 256, Note_off_c, 0, 58, 100
1, 256, Note_on_c, 0, 62, 100
1, 288, Note_off_c, 0, 62, 100
1, 288, Note_on_c, 0, 63, 100
1, 320, Note_off_c, 0, 63, 100
1, 320, Note_on_c, 0, 68, 100
1, 352, Note_off_c, 0, 68, 100
1, 352, Note_on_c, 0, 66, 100
1, 384, Note_off_c, 0, 66, 100
1, 384, Note_on_c, 0, 61, 100
1, 422, Note_off_c, 0, 61, 100
1, 422, Note_on_c, 0, 66, 100
1, 460, Note_off_c, 0, 66, 100
1, 460, Note_on_c, 0, 63, 100
1, 498, Note_off_c, 0, 63, 100
1, 498, Note_on_c, 0, 59, 100
1, 536, Note_off_c, 0, 59, 100
1, 536, Note_on_c, 0, 55, 100
1, 574, Note_off_c, 0, 55, 100
1, 574, Note_on_c, 0, 51, 100
1, 622, Note_off_c, 0, 51, 100
1, 622, Note_on_c, 0, 56, 100
1, 670, Note_off_c, 0, 56, 100
1, 670, Note_on_c, 0, 57, 100
1, 694, Note_off_c, 0, 57, 100
1, 694, Note_on_c, 0, 59, 100
1, 718, Note_off_c, 0, 59, 100
1, 718, Note_on_c, 0, 58, 100
1, 742, Note_off_c, 0, 58, 100
1, 742, Note_on_c, 0, 60, 100
1, 766, Note_off_c, 0, 60, 100
1, 766, Note_on_c, 0, 58, 100
1, 862, Note_off_c, 0, 58, 100
1, 1390, Note_on_c, 0, 67, 100
1, 1438, Note_off_c, 0, 67, 100
1, 1438, Note_on_c, 0, 69, 100
1, 1486, Note_off_c, 0, 69, 100
1, 1486, Note_on_c, 0, 72, 100
1, 1534, Note_off_c, 0, 72, 100
1, 1534, Note_on_c, 0, 69, 100
1, 1582, Note_off_c, 0, 69, 100
1, 1582, Note_on_c, 0, 70, 100
1, 1630, Note_off_c, 0, 70, 100
1, 1630, Note_on_c, 0, 60, 100
1, 1678, Note_off_c, 0, 60, 100
1, 1678, Note_on_c, 0, 58, 100
1, 1726, Note_off_c, 0, 58, 100
1, 1726, Note_on_c, 0, 62, 100
1, 1764, Note_off_c, 0, 62, 100
1, 1764, Note_on_c, 0, 67, 100
1, 1802, Note_off_c, 0, 67, 100
1, 1802, Note_on_c, 0, 66, 100
1, 1840, Note_off_c, 0, 66, 100
1, 1840, Note_on_c, 0, 65, 100
1, 1878, Note_off_c, 0, 65, 100
1, 1878, Note_on_c, 0, 64, 100
1, 1916, Note_off_c, 0, 64, 100
1, 1916, Note_on_c, 0, 63, 100
1, 1964, Note_off_c, 0, 63, 100
1, 1964, Note_on_c, 0, 58, 100
1, 2012, Note_off_c, 0, 58, 100
1, 2012, Note_on_c, 0, 61, 100
1, 2060, Note_off_c, 0, 61, 100
1, 2060, Note_on_c, 0, 62, 100
1, 2108, Note_off_c, 0, 62, 100
1, 2108, Note_on_c, 0, 58, 100
1, 2156, Note_off_c, 0, 58, 100
1, 2156, Note_on_c, 0, 53, 100
1, 2204, Note_off_c, 0, 53, 100
1, 2204, Note_on_c, 0, 50, 100
1, 2252, Note_off_c, 0, 50, 100
1, 2252, Note_on_c, 0, 48, 100
1, 2300, Note_off_c, 0, 48, 100
1, 2300, Note_on_c, 0, 55, 100
1, 2348, Note_off_c, 0, 55, 100
1, 2348, Note_on_c, 0, 52, 100
1, 2396, Note_off_c, 0, 52, 100
1, 2396, Note_on_c, 0, 53, 100
1, 2444, Note_off_c, 0, 53, 100
1, 2444, Note_on_c, 0, 55, 100
1, 2492, Note_off_c, 0, 55, 100
1, 2492, Note_on_c, 0, 56, 100
1, 2540, Note_off_c, 0, 56, 100
1, 2540, Note_on_c, 0, 59, 100
1, 2588, Note_off_c, 0, 59, 100
1, 2588, Note_on_c, 0, 61, 100
1, 2636, Note_off_c, 0, 61, 100
1, 2636, Note_on_c, 0, 64, 100
1, 2684, Note_off_c, 0, 64, 100
1, 2684, Note_on_c, 0, 68, 100
1, 2732, Note_off_c, 0, 68, 100
1, 2732, Note_on_c, 0, 71, 100
1, 2780, Note_off_c, 0, 71, 100
1, 2780, Note_on_c, 0, 66, 100
1, 2828, Note_off_c, 0, 66, 100
1, 2828, Note_on_c, 0, 61, 100
1, 2876, Note_off_c, 0, 61, 100
1, 2876, Note_on_c, 0, 64, 100
1, 2924, Note_off_c, 0, 64, 100
1, 2924, Note_on_c, 0, 59, 100
1, 2972, Note_off_c, 0, 59, 100
1, 2972, Note_on_c, 0, 54, 100
1, 3068, Note_off_c, 0, 54, 100
1, 3068, Note_on_c, 0, 56, 100
1, 3116, Note_off_c, 0, 56, 100
1, 3116, Note_on_c, 0, 56, 100
1, 3164, Note_off_c, 0, 56, 100
1, 3164, Note_on_c, 0, 56, 100
1, 3212, Note_off_c, 0, 56, 100
1, 3212, Note_on_c, 0, 56, 100
1, 3308, Note_off_c, 0, 56, 100
1, 3308, Note_on_c, 0, 56, 100
1, 3356, Note_off_c, 0, 56, 100
1, 3356, Note_on_c, 0, 56, 100
1, 3404, Note_off_c, 0, 56, 100
1, 3404, Note_on_c, 0, 56, 100
1, 3500, Note_off_c, 0, 56, 100
1, 3500, Note_on_c, 0, 55, 100
1, 3548, Note_off_c, 0, 55, 100
1, 3548, Note_on_c, 0, 54, 100
1, 3596, Note_off_c, 0, 54, 100
1, 3596, Note_on_c, 0, 53, 100
1, 3788, Note_off_c, 0, 53, 100
1, 3788, Note_on_c, 0, 52, 100
1, 3836, Note_off_c, 0, 52, 100
1, 3836, Note_on_c, 0, 51, 100
1, 3932, Note_off_c, 0, 51, 100
1, 3932, Note_on_c, 0, 51, 100
1, 3980, Note_off_c, 0, 51, 100
1, 3980, Note_on_c, 0, 51, 100
1, 4028, Note_off_c, 0, 51, 100
1, 4028, Note_on_c, 0, 51, 100
1, 4092, Note_off_c, 0, 51, 100
1, 4092, Note_on_c, 0, 51, 100
1, 4156, Note_off_c, 0, 51, 100
1, 4156, Note_on_c, 0, 51, 100
1, 4220, Note_off_c, 0, 51, 100
1, 4220, Note_on_c, 0, 51, 100
1, 4296, Note_off_c, 0, 51, 100
1, 4296, Note_on_c, 0, 50, 100
1, 4334, Note_off_c, 0, 50, 100
1, 4334, Note_on_c, 0, 49, 100
1, 4372, Note_off_c, 0, 49, 100
1, 4372, Note_on_c, 0, 48, 100
1, 4564, Note_off_c, 0, 48, 100
1, 5600, Note_on_c, 0, 62, 100
1, 5638, Note_off_c, 0, 62, 100
1, 5638, Note_on_c, 0, 64, 100
1, 5676, Note_off_c, 0, 64, 100
1, 5676, Note_on_c, 0, 66, 100
1, 5714, Note_off_c, 0, 66, 100
1, 5714, Note_on_c, 0, 62, 100
1, 5752, Note_off_c, 0, 62, 100
1, 5752, Note_on_c, 0, 64, 100
1, 5800, Note_off_c, 0, 64, 100
1, 5800, Note_on_c, 0, 58, 100
1, 5848, Note_off_c, 0, 58, 100
1, 5848, Note_on_c, 0, 54, 100
1, 5944, Note_off_c, 0, 54, 100
1, 5944, Note_on_c, 0, 57, 100
1, 5992, Note_off_c, 0, 57, 100
1, 5992, Note_on_c, 0, 62, 100
1, 6040, Note_off_c, 0, 62, 100
1, 6040, Note_on_c, 0, 59, 100
1, 6088, Note_off_c, 0, 59, 100
1, 6088, Note_on_c, 0, 57, 100
1, 6136, Note_off_c, 0, 57, 100
1, 6136, Note_on_c, 0, 58, 100
1, 6184, Note_off_c, 0, 58, 100
1, 6184, Note_on_c, 0, 61, 100
1, 6232, Note_off_c, 0, 61, 100
1, 6232, Note_on_c, 0, 62, 100
1, 6280, Note_off_c, 0, 62, 100
1, 6280, Note_on_c, 0, 63, 100
1, 6328, Note_off_c, 0, 63, 100
1, 6328, Note_on_c, 0, 61, 100
1, 6392, Note_off_c, 0, 61, 100
1, 6392, Note_on_c, 0, 60, 100
1, 6456, Note_off_c, 0, 60, 100
1, 6456, Note_on_c, 0, 61, 100
1, 6520, Note_off_c, 0, 61, 100
1, 6520, Note_on_c, 0, 65, 100
1, 6552, Note_off_c, 0, 65, 100
1, 6552, Note_on_c, 0, 68, 100
1, 6584, Note_off_c, 0, 68, 100
1, 6584, Note_on_c, 0, 72, 100
1, 6648, Note_off_c, 0, 72, 100
1, 6648, Note_on_c, 0, 68, 100
1, 6680, Note_off_c, 0, 68, 100
1, 6680, Note_on_c, 0, 71, 100
1, 6904, Note_off_c, 0, 71, 100
1, 6904, Note_on_c, 0, 69, 100
1, 6942, Note_off_c, 0, 69, 100
1, 6942, Note_on_c, 0, 70, 100
1, 6980, Note_off_c, 0, 70, 100
1, 6980, Note_on_c, 0, 67, 100
1, 7018, Note_off_c, 0, 67, 100
1, 7018, Note_on_c, 0, 68, 100
1, 7056, Note_off_c, 0, 68, 100
1, 7056, Note_on_c, 0, 68, 100
1, 7094, Note_off_c, 0, 68, 100
1, 7094, Note_on_c, 0, 67, 100
1, 7142, Note_off_c, 0, 67, 100
1, 7142, Note_on_c, 0, 65, 100
1, 7190, Note_off_c, 0, 65, 100
1, 7190, Note_on_c, 0, 63, 100
1, 7238, Note_off_c, 0, 63, 100
1, 7238, Note_on_c, 0, 58, 100
1, 7286, Note_off_c, 0, 58, 100
1, 7286, Note_on_c, 0, 55, 100
1, 7334, Note_off_c, 0, 55, 100
1, 7334, Note_on_c, 0, 56, 100
1, 7382, Note_off_c, 0, 56, 100
1, 7382, Note_on_c, 0, 58, 100
1, 7430, Note_off_c, 0, 58, 100
1, 7430, Note_on_c, 0, 59, 100
1, 7478, Note_off_c, 0, 59, 100
1, 7478, Note_on_c, 0, 63, 100
1, 7526, Note_off_c, 0, 63, 100
1, 7526, Note_on_c, 0, 65, 100
1, 7574, Note_off_c, 0, 65, 100
1, 7574, Note_on_c, 0, 67, 100
1, 7622, Note_off_c, 0, 67, 100
1, 7622, Note_on_c, 0, 70, 100
1, 7670, Note_off_c, 0, 70, 100
1, 7670, Note_on_c, 0, 72, 100
1, 7697, Note_off_c, 0, 72, 100
1, 7697, Note_on_c, 0, 73, 100
1, 7806, Note_off_c, 0, 73, 100
1, 7806, Note_on_c, 0, 72, 100
1, 7833, Note_off_c, 0, 72, 100
1, 7833, Note_on_c, 0, 71, 100
1, 7860, Note_off_c, 0, 71, 100
1, 7860, Note_on_c, 0, 69, 100
1, 7892, Note_off_c, 0, 69, 100
1, 7892, Note_on_c, 0, 70, 100
1, 7956, Note_off_c, 0, 70, 100
1, 7956, Note_on_c, 0, 66, 100
1, 7988, Note_off_c, 0, 66, 100
1, 7988, Note_on_c, 0, 65, 100
1, 8052, Note_off_c, 0, 65, 100
1, 8052, Note_on_c, 0, 64, 100
1, 8090, Note_off_c, 0, 64, 100
1, 8090, Note_on_c, 0, 63, 100
1, 8128, Note_off_c, 0, 63, 100
1, 8128, Note_on_c, 0, 61, 100
1, 8166, Note_off_c, 0, 61, 100
1, 8166, Note_on_c, 0, 59, 100
1, 8204, Note_off_c, 0, 59, 100
1, 8204, Note_on_c, 0, 57, 100
1, 8242, Note_off_c, 0, 57, 100
1, 8242, Note_on_c, 0, 58, 100
1, 8290, Note_off_c, 0, 58, 100
1, 8290, Note_on_c, 0, 54, 100
1, 8338, Note_off_c, 0, 54, 100
1, 8338, Note_on_c, 0, 53, 100
1, 8386, Note_off_c, 0, 53, 100
1, 8386, Note_on_c, 0, 52, 100
1, 8434, Note_off_c, 0, 52, 100
1, 8434, Note_on_c, 0, 51, 100
1, 8482, Note_off_c, 0, 51, 100
1, 8482, Note_on_c, 0, 54, 100
1, 8506, Note_off_c, 0, 54, 100
1, 8506, Note_on_c, 0, 55, 100
1, 8530, Note_off_c, 0, 55, 100
1, 8530, Note_on_c, 0, 58, 100
1, 8554, Note_off_c, 0, 58, 100
1, 8554, Note_on_c, 0, 62, 100
1, 8578, Note_off_c, 0, 62, 100
1, 8578, Note_on_c, 0, 65, 100
1, 8602, Note_off_c, 0, 65, 100
1, 8602, Note_on_c, 0, 67, 100
1, 8626, Note_off_c, 0, 67, 100
1, 8626, Note_on_c, 0, 65, 100
1, 8650, Note_off_c, 0, 65, 100
1, 8650, Note_on_c, 0, 62, 100
1, 8674, Note_off_c, 0, 62, 100
1, 8674, Note_on_c, 0, 58, 100
1, 8746, Note_off_c, 0, 58, 100
1, 8746, Note_on_c, 0, 55, 100
1, 8770, Note_off_c, 0, 55, 100
1, 8770, Note_on_c, 0, 63, 100
1, 8882, Note_off_c, 0, 63, 100
1, 8882, Note_on_c, 0, 63, 100
1, 8946, Note_off_c, 0, 63, 100
1, 8946, Note_on_c, 0, 62, 100
1, 9010, Note_off_c, 0, 62, 100
1, 9010, Note_on_c, 0, 62, 100
1, 9106, Note_off_c, 0, 62, 100
1, 9106, Note_on_c, 0, 58, 100
1, 9202, Note_off_c, 0, 58, 100
1, 9202, Note_on_c, 0, 62, 100
1, 9250, Note_off_c, 0, 62, 100
1, 9250, Note_on_c, 0, 65, 100
1, 9298, Note_off_c, 0, 65, 100
1, 9298, Note_on_c, 0, 67, 100
1, 9346, Note_off_c, 0, 67, 100
1, 9346, Note_on_c, 0, 69, 100
1, 9394, Note_off_c, 0, 69, 100
1, 9394, Note_on_c, 0, 65, 100
1, 9442, Note_off_c, 0, 65, 100
1, 9442, Note_on_c, 0, 62, 100
1, 9490, Note_off_c, 0, 62, 100
1, 9490, Note_on_c, 0, 58, 100
1, 9538, Note_off_c, 0, 58, 100
1, 9538, Note_on_c, 0, 64, 100
1, 9618, Note_off_c, 0, 64, 100
1, 9618, Note_on_c, 0, 62, 100
1, 9650, Note_off_c, 0, 62, 100
1, 9650, Note_on_c, 0, 63, 100
1, 9714, Note_off_c, 0, 63, 100
1, 9714, Note_on_c, 0, 61, 100
1, 9746, Note_off_c, 0, 61, 100
1, 9746, Note_on_c, 0, 62, 100
1, 9826, Note_off_c, 0, 62, 100
1, 9826, Note_on_c, 0, 59, 100
1, 9874, Note_off_c, 0, 59, 100
1, 9874, Note_on_c, 0, 55, 100
1, 9922, Note_off_c, 0, 55, 100
1, 9922, Note_on_c, 0, 50, 100
1, 9970, Note_off_c, 0, 50, 100
1, 9970, Note_on_c, 0, 53, 100
1, 10018, Note_off_c, 0, 53, 100
1, 10018, Note_on_c, 0, 52, 100
1, 10066, Note_off_c, 0, 52, 100
1, 10066, Note_on_c, 0, 51, 100
1, 10114, Note_off_c, 0, 51, 100
1, 10114, Note_on_c, 0, 53, 100
1, 10162, Note_off_c, 0, 53, 100
1, 10162, Note_on_c, 0, 55, 100
1, 10194, Note_off_c, 0, 55, 100
1, 10194, Note_on_c, 0, 58, 100
1, 10226, Note_off_c, 0, 58, 100
1, 10226, Note_on_c, 0, 62, 100
1, 10258, Note_off_c, 0, 62, 100
1, 10258, Note_on_c, 0, 65, 100
1, 10322, Note_off_c, 0, 65, 100
1, 10322, Note_on_c, 0, 62, 100
1, 10354, Note_off_c, 0, 62, 100
1, 10354, Note_on_c, 0, 63, 100
1, 10418, Note_off_c, 0, 63, 100
1, 10418, Note_on_c, 0, 65, 100
1, 10482, Note_off_c, 0, 65, 100
1, 10482, Note_on_c, 0, 67, 100
1, 10610, Note_off_c, 0, 67, 100
1, 10610, Note_on_c, 0, 71, 100
1, 10674, Note_off_c, 0, 71, 100
1, 10674, Note_on_c, 0, 74, 100
1, 10738, Note_off_c, 0, 74, 100
1, 10738, Note_on_c, 0, 75, 100
1, 10834, Note_off_c, 0, 75, 100
1, 10834, Note_on_c, 0, 71, 100
1, 10882, Note_off_c, 0, 71, 100
1, 10882, Note_on_c, 0, 75, 100
1, 10978, Note_off_c, 0, 75, 100
1, 10978, Note_on_c, 0, 73, 100
1, 11170, Note_off_c, 0, 73, 100
1, 12226, Note_on_c, 0, 68, 100
1, 12322, Note_off_c, 0, 68, 100
1, 12322, Note_on_c, 0, 71, 100
1, 12370, Note_off_c, 0, 71, 100
1, 12370, Note_on_c, 0, 73, 100
1, 12418, Note_off_c, 0, 73, 100
1, 12418, Note_on_c, 0, 70, 100
1, 12610, Note_off_c, 0, 70, 100
1, 12946, Note_on_c, 0, 63, 100
1, 13042, Note_off_c, 0, 63, 100
1, 13042, Note_on_c, 0, 69, 100
1, 13138, Note_off_c, 0, 69, 100
1, 13138, Note_on_c, 0, 72, 100
1, 13234, Note_off_c, 0, 72, 100
1, 13234, Note_on_c, 0, 70, 100
1, 13330, Note_off_c, 0, 70, 100
1, 13330, Note_on_c, 0, 67, 100
1, 13474, Note_off_c, 0, 67, 100
1, 13474, Note_on_c, 0, 63, 100
1, 13666, Note_off_c, 0, 63, 100
1, 13666, Note_on_c, 0, 58, 100
1, 13762, Note_off_c, 0, 58, 100
1, 13762, Note_on_c, 0, 69, 100
1, 13810, Note_off_c, 0, 69, 100
1, 13810, Note_on_c, 0, 70, 100
1, 13858, Note_off_c, 0, 70, 100
1, 13858, Note_on_c, 0, 69, 100
1, 13954, Note_off_c, 0, 69, 100
1, 13954, Note_on_c, 0, 72, 100
1, 14066, Note_off_c, 0, 72, 100
1, 14066, Note_on_c, 0, 70, 100
1, 14194, Note_off_c, 0, 70, 100
1, 14194, Note_on_c, 0, 67, 100
1, 14290, Note_off_c, 0, 67, 100
1, 14290, Note_on_c, 0, 65, 100
1, 14338, Note_off_c, 0, 65, 100
1, 14338, Note_on_c, 0, 67, 100
1, 14386, Note_off_c, 0, 67, 100
1, 14386, Note_on_c, 0, 66, 100
1, 14434, Note_off_c, 0, 66, 100
1, 14434, Note_on_c, 0, 63, 100
1, 14482, Note_off_c, 0, 63, 100
1, 14482, Note_on_c, 0, 58, 100
1, 14578, Note_off_c, 0, 58, 100
1, 14578, Note_on_c, 0, 65, 100
1, 14770, Note_off_c, 0, 65, 100
1, 14770, Note_on_c, 0, 65, 100
1, 15058, Note_off_c, 0, 65, 100
1, 15250, Note_on_c, 0, 55, 100
1, 15298, Note_off_c, 0, 55, 100
1, 15298, Note_on_c, 0, 58, 100
1, 15346, Note_off_c, 0, 58, 100
1, 15346, Note_on_c, 0, 62, 100
1, 15384, Note_off_c, 0, 62, 100
1, 15384, Note_on_c, 0, 64, 100
1, 15422, Note_off_c, 0, 64, 100
1, 15422, Note_on_c, 0, 65, 100
1, 15460, Note_off_c, 0, 65, 100
1, 15460, Note_on_c, 0, 67, 100
1, 15498, Note_off_c, 0, 67, 100
1, 15498, Note_on_c, 0, 68, 100
1, 15536, Note_off_c, 0, 68, 100
1, 15536, Note_on_c, 0, 66, 100
1, 15600, Note_off_c, 0, 66, 100
1, 15600, Note_on_c, 0, 62, 100
1, 15632, Note_off_c, 0, 62, 100
1, 15632, Note_on_c, 0, 65, 100
1, 15664, Note_off_c, 0, 65, 100
1, 15664, Note_on_c, 0, 64, 100
1, 15696, Note_off_c, 0, 64, 100
1, 15696, Note_on_c, 0, 63, 100
1, 15728, Note_off_c, 0, 63, 100
1, 15728, Note_on_c, 0, 67, 100
1, 15776, Note_off_c, 0, 67, 100
1, 15776, Note_on_c, 0, 62, 100
1, 15824, Note_off_c, 0, 62, 100
1, 15824, Note_on_c, 0, 61, 100
1, 15872, Note_off_c, 0, 61, 100
1, 15872, Note_on_c, 0, 58, 100
1, 15920, Note_off_c, 0, 58, 100
1, 15920, Note_on_c, 0, 59, 100
1, 15968, Note_off_c, 0, 59, 100
1, 15968, Note_on_c, 0, 56, 100
1, 16016, Note_off_c, 0, 56, 100
1, 16016, Note_on_c, 0, 54, 100
1, 16064, Note_off_c, 0, 54, 100
1, 16064, Note_on_c, 0, 53, 100
1, 16112, Note_off_c, 0, 53, 100
1, 16112, Note_on_c, 0, 51, 100
1, 16208, Note_off_c, 0, 51, 100
1, 16208, Note_on_c, 0, 55, 100
1, 16256, Note_off_c, 0, 55, 100
1, 16256, Note_on_c, 0, 58, 100
1, 16304, Note_off_c, 0, 58, 100
1, 16304, Note_on_c, 0, 63, 100
1, 16368, Note_off_c, 0, 63, 100
1, 16368, Note_on_c, 0, 65, 100
1, 16432, Note_off_c, 0, 65, 100
1, 16432, Note_on_c, 0, 67, 100
1, 16534, Note_off_c, 0, 67, 100
1, 16534, Note_on_c, 0, 70, 100
1, 16572, Note_off_c, 0, 70, 100
1, 16572, Note_on_c, 0, 65, 100
1, 16610, Note_off_c, 0, 65, 100
1, 16610, Note_on_c, 0, 61, 100
1, 16648, Note_off_c, 0, 61, 100
1, 16648, Note_on_c, 0, 58, 100
1, 16734, Note_off_c, 0, 58, 100
1, 16734, Note_on_c, 0, 63, 100
1, 16782, Note_off_c, 0, 63, 100
1, 16782, Note_on_c, 0, 65, 100
1, 16830, Note_off_c, 0, 65, 100
1, 16830, Note_on_c, 0, 67, 100
1, 16878, Note_off_c, 0, 67, 100
1, 16878, Note_on_c, 0, 63, 100
1, 16926, Note_off_c, 0, 63, 100
1, 16926, Note_on_c, 0, 65, 100
1, 16974, Note_off_c, 0, 65, 100
1, 16974, Note_on_c, 0, 60, 100
1, 17022, Note_off_c, 0, 60, 100
1, 17022, Note_on_c, 0, 58, 100
1, 17118, Note_off_c, 0, 58, 100
1, 17118, Note_on_c, 0, 63, 100
1, 17166, Note_off_c, 0, 63, 100
1, 17166, Note_on_c, 0, 65, 100
1, 17214, Note_off_c, 0, 65, 100
1, 17214, Note_on_c, 0, 60, 100
1, 17262, Note_off_c, 0, 60, 100
1, 17262, Note_on_c, 0, 63, 100
1, 17310, Note_off_c, 0, 63, 100
1, 17310, Note_on_c, 0, 59, 100
1, 17358, Note_off_c, 0, 59, 100
1, 17358, Note_on_c, 0, 53, 100
1, 17406, Note_off_c, 0, 53, 100
1, 17406, Note_on_c, 0, 51, 100
1, 17454, Note_off_c, 0, 51, 100
1, 17454, Note_on_c, 0, 58, 100
1, 17502, Note_off_c, 0, 58, 100
1, 17502, Note_on_c, 0, 53, 100
1, 17550, Note_off_c, 0, 53, 100
1, 17550, Note_on_c, 0, 48, 100
1, 17598, Note_off_c, 0, 48, 100
1, 17598, Note_on_c, 0, 51, 100
1, 17646, Note_off_c, 0, 51, 100
1, 17646, Note_on_c, 0, 49, 100
1, 17742, Note_off_c, 0, 49, 100
1, 18298, Note_on_c, 0, 49, 100
1, 18336, Note_off_c, 0, 49, 100
1, 18336, Note_on_c, 0, 51, 100
1, 18374, Note_off_c, 0, 51, 100
1, 18374, Note_on_c, 0, 53, 100
1, 18412, Note_off_c, 0, 53, 100
1, 18412, Note_on_c, 0, 49, 100
1, 18508, Note_off_c, 0, 49, 100
1, 18508, Note_on_c, 0, 54, 100
1, 18556, Note_off_c, 0, 54, 100
1, 18556, Note_on_c, 0, 57, 100
1, 18604, Note_off_c, 0, 57, 100
1, 18604, Note_on_c, 0, 58, 100
1, 18642, Note_off_c, 0, 58, 100
1, 18642, Note_on_c, 0, 52, 100
1, 18680, Note_off_c, 0, 52, 100
1, 18680, Note_on_c, 0, 55, 100
1, 18718, Note_off_c, 0, 55, 100
1, 18718, Note_on_c, 0, 57, 100
1, 18794, Note_off_c, 0, 57, 100
1, 18794, Note_on_c, 0, 59, 100
1, 18821, Note_off_c, 0, 59, 100
1, 18821, Note_on_c, 0, 64, 100
1, 18875, Note_off_c, 0, 64, 100
1, 18875, Note_on_c, 0, 66, 100
1, 18902, Note_off_c, 0, 66, 100
1, 18902, Note_on_c, 0, 69, 100
1, 18956, Note_off_c, 0, 69, 100
1, 18956, Note_on_c, 0, 71, 100
1, 18983, Note_off_c, 0, 71, 100
1, 18983, Note_on_c, 0, 73, 100
1, 19031, Note_off_c, 0, 73, 100
1, 19031, Note_on_c, 0, 71, 100
1, 19079, Note_off_c, 0, 71, 100
1, 19079, Note_on_c, 0, 64, 100
1, 19127, Note_off_c, 0, 64, 100
1, 19127, Note_on_c, 0, 59, 100
1, 19175, Note_off_c, 0, 59, 100
1, 19175, Note_on_c, 0, 63, 100
1, 19271, Note_off_c, 0, 63, 100
1, 19271, Note_on_c, 0, 70, 100
1, 19367, Note_off_c, 0, 70, 100
1, 19367, Note_on_c, 0, 58, 100
1, 19463, Note_off_c, 0, 58, 100
1, 19463, Note_on_c, 0, 46, 100
1, 19607, Note_off_c, 0, 46, 100
1, 19607, Note_on_c, 0, 63, 100
1, 19703, Note_off_c, 0, 63, 100
1, 19703, Note_on_c, 0, 58, 100
1, 19751, Note_off_c, 0, 58, 100
1, 19751, Note_on_c, 0, 63, 100
1, 19847, Note_off_c, 0, 63, 100
1, 19847, Note_on_c, 0, 70, 100
1, 19943, Note_off_c, 0, 70, 100
1, 19943, Note_on_c, 0, 70, 100
1, 19991, Note_off_c, 0, 70, 100
1, 19991, Note_on_c, 0, 71, 100
1, 20087, Note_off_c, 0, 71, 100
1, 20087, Note_on_c, 0, 70, 100
1, 20183, Note_off_c, 0, 70, 100
1, 20183, Note_on_c, 0, 63, 100
1, 20279, Note_off_c, 0, 63, 100
1, 20279, Note_on_c, 0, 59, 100
1, 20327, Note_off_c, 0, 59, 100
1, 20327, Note_on_c, 0, 58, 100
1, 20423, Note_off_c, 0, 58, 100
1, 20423, Note_on_c, 0, 51, 100
1, 20567, Note_off_c, 0, 51, 100
1, 20567, Note_on_c, 0, 47, 100
1, 20711, Note_off_c, 0, 47, 100
1, 20711, Note_on_c, 0, 46, 100
1, 20903, Note_off_c, 0, 46, 100
1, 21479, Note_on_c, 0, 49, 100
1, 21511, Note_off_c, 0, 49, 100
1, 21511, Note_on_c, 0, 50, 100
1, 21543, Note_off_c, 0, 50, 100
1, 21543, Note_on_c, 0, 52, 100
1, 21575, Note_off_c, 0, 52, 100
1, 21575, Note_on_c, 0, 54, 100
1, 21607, Note_off_c, 0, 54, 100
1, 21607, Note_on_c, 0, 57, 100
1, 21639, Note_off_c, 0, 57, 100
1, 21639, Note_on_c, 0, 62, 100
1, 21671, Note_off_c, 0, 62, 100
1, 21671, Note_on_c, 0, 66, 100
1, 21709, Note_off_c, 0, 66, 100
1, 21709, Note_on_c, 0, 70, 100
1, 21747, Note_off_c, 0, 70, 100
1, 21747, Note_on_c, 0, 72, 100
1, 21785, Note_off_c, 0, 72, 100
1, 21785, Note_on_c, 0, 74, 100
1, 21977, Note_off_c, 0, 74, 100
1, 22341, Note_on_c, 0, 57, 100
1, 22437, Note_off_c, 0, 57, 100
1, 22437, Note_on_c, 0, 58, 100
1, 22491, Note_off_c, 0, 58, 100
1, 22491, Note_on_c, 0, 63, 100
1, 22545, Note_off_c, 0, 63, 100
1, 22545, Note_on_c, 0, 65, 100
1, 22572, Note_off_c, 0, 65, 100
1, 22572, Note_on_c, 0, 67, 100
1, 22599, Note_off_c, 0, 67, 100
1, 22599, Note_on_c, 0, 70, 100
1, 22674, Note_off_c, 0, 70, 100
1, 22674, Note_on_c, 0, 69, 100
1, 22722, Note_off_c, 0, 69, 100
1, 22722, Note_on_c, 0, 66, 100
1, 22770, Note_off_c, 0, 66, 100
1, 22770, Note_on_c, 0, 62, 100
1, 22866, Note_off_c, 0, 62, 100
1, 23106, Note_on_c, 0, 56, 100
1, 23154, Note_off_c, 0, 56, 100
1, 23154, Note_on_c, 0, 58, 100
1, 23202, Note_off_c, 0, 58, 100
1, 23202, Note_on_c, 0, 61, 100
1, 23250, Note_off_c, 0, 61, 100
1, 23250, Note_on_c, 0, 65, 100
1, 23298, Note_off_c, 0, 65, 100
1, 23298, Note_on_c, 0, 68, 100
1, 23394, Note_off_c, 0, 68, 100
1, 23394, Note_on_c, 0, 67, 100
1, 23458, Note_off_c, 0, 67, 100
1, 23458, Note_on_c, 0, 64, 100
1, 23522, Note_off_c, 0, 64, 100
1, 23522, Note_on_c, 0, 60, 100
1, 23618, Note_off_c, 0, 60, 100
1, 23842, Note_on_c, 0, 47, 100
1, 23906, Note_off_c, 0, 47, 100
1, 23906, Note_on_c, 0, 51, 100
1, 23970, Note_off_c, 0, 51, 100
1, 23970, Note_on_c, 0, 54, 100
1, 24002, Note_off_c, 0, 54, 100
1, 24002, Note_on_c, 0, 51, 100
1, 24034, Note_off_c, 0, 51, 100
1, 24034, Note_on_c, 0, 54, 100
1, 24066, Note_off_c, 0, 54, 100
1, 24066, Note_on_c, 0, 59, 100
1, 24098, Note_off_c, 0, 59, 100
1, 24098, Note_on_c, 0, 63, 100
1, 24162, Note_off_c, 0, 63, 100
1, 24162, Note_on_c, 0, 66, 100
1, 24200, Note_off_c, 0, 66, 100
1, 24200, Note_on_c, 0, 61, 100
1, 24238, Note_off_c, 0, 61, 100
1, 24238, Note_on_c, 0, 59, 100
1, 24276, Note_off_c, 0, 59, 100
1, 24276, Note_on_c, 0, 57, 100
1, 24352, Note_off_c, 0, 57, 100
1, 24352, Note_on_c, 0, 64, 100
1, 24390, Note_off_c, 0, 64, 100
1, 24390, Note_on_c, 0, 63, 100
1, 24428, Note_off_c, 0, 63, 100
1, 24428, Note_on_c, 0, 64, 100
1, 24466, Note_off_c, 0, 64, 100
1, 24466, Note_on_c, 0, 63, 100
1, 24504, Note_off_c, 0, 63, 100
1, 24504, Note_on_c, 0, 61, 100
1, 24590, Note_off_c, 0, 61, 100
1, 24590, Note_on_c, 0, 58, 100
1, 24638, Note_off_c, 0, 58, 100
1, 24638, Note_on_c, 0, 59, 100
1, 24734, Note_off_c, 0, 59, 100
1, 24926, Note_on_c, 0, 56, 100
1, 24974, Note_off_c, 0, 56, 100
1, 24974, Note_on_c, 0, 56, 100
1, 25022, Note_off_c, 0, 56, 100
1, 25022, Note_on_c, 0, 56, 100
1, 25070, Note_off_c, 0, 56, 100
1, 25070, Note_on_c, 0, 56, 100
1, 25118, Note_off_c, 0, 56, 100
1, 25118, Note_on_c, 0, 56, 100
1, 25214, Note_off_c, 0, 56, 100
1, 25214, Note_on_c, 0, 59, 100
1, 25310, Note_off_c, 0, 59, 100
1, 25310, Note_on_c, 0, 58, 100
1, 25406, Note_off_c, 0, 58, 100
1, 25694, Note_on_c, 0, 60, 100
1, 25742, Note_off_c, 0, 60, 100
1, 25742, Note_on_c, 0, 62, 100
1, 25790, Note_off_c, 0, 62, 100
1, 25790, Note_on_c, 0, 65, 100
1, 25838, Note_off_c, 0, 65, 100
1, 25838, Note_on_c, 0, 62, 100
1, 25886, Note_off_c, 0, 62, 100
1, 25886, Note_on_c, 0, 63, 100
1, 25950, Note_off_c, 0, 63, 100
1, 25950, Note_on_c, 0, 65, 100
1, 26014, Note_off_c, 0, 65, 100
1, 26014, Note_on_c, 0, 67, 100
1, 26078, Note_off_c, 0, 67, 100
1, 26078, Note_on_c, 0, 70, 100
1, 26126, Note_off_c, 0, 70, 100
1, 26126, Note_on_c, 0, 65, 100
1, 26174, Note_off_c, 0, 65, 100
1, 26174, Note_on_c, 0, 62, 100
1, 26222, Note_off_c, 0, 62, 100
1, 26222, Note_on_c, 0, 58, 100
1, 26270, Note_off_c, 0, 58, 100
1, 26270, Note_on_c, 0, 63, 100
1, 26334, Note_off_c, 0, 63, 100
1, 26334, Note_on_c, 0, 67, 100
1, 26398, Note_off_c, 0, 67, 100
1, 26398, Note_on_c, 0, 66, 100
1, 26462, Note_off_c, 0, 66, 100
1, 26462, Note_on_c, 0, 65, 100
1, 26526, Note_off_c, 0, 65, 100
1, 26526, Note_on_c, 0, 64, 100
1, 26558, Note_off_c, 0, 64, 100
1, 26558, Note_on_c, 0, 63, 100
1, 26590, Note_off_c, 0, 63, 100
1, 26590, Note_on_c, 0, 56, 100
1, 26622, Note_off_c, 0, 56, 100
1, 26622, Note_on_c, 0, 58, 100
1, 26654, Note_off_c, 0, 58, 100
1, 26654, Note_on_c, 0, 62, 100
1, 26692, Note_off_c, 0, 62, 100
1, 26692, Note_on_c, 0, 61, 100
1, 26730, Note_off_c, 0, 61, 100
1, 26730, Note_on_c, 0, 60, 100
1, 26768, Note_off_c, 0, 60, 100
1, 26768, Note_on_c, 0, 58, 100
1, 26806, Note_off_c, 0, 58, 100
1, 26806, Note_on_c, 0, 59, 100
1, 26892, Note_off_c, 0, 59, 100
1, 26892, Note_on_c, 0, 68, 100
1, 26988, Note_off_c, 0, 68, 100
1, 26988, Note_on_c, 0, 67, 100
1, 27180, Note_off_c, 0, 67, 100
1, 27180, Note_on_c, 0, 66, 100
1, 27292, Note_off_c, 0, 66, 100
1, 27292, Note_on_c, 0, 65, 100
1, 27468, Note_off_c, 0, 65, 100
1, 27468, Note_on_c, 0, 65, 100
1, 27564, Note_off_c, 0, 65, 100
1, 27564, Note_on_c, 0, 63, 100
1, 27660, Note_off_c, 0, 63, 100
1, 27660, Note_on_c, 0, 62, 100
1, 27756, Note_off_c, 0, 62, 100
1, 27756, Note_on_c, 0, 61, 100
1, 27852, Note_off_c, 0, 61, 100
1, 27852, Note_on_c, 0, 60, 100
1, 27948, Note_off_c, 0, 60, 100
1, 27948, Note_on_c, 0, 59, 100
1, 28092, Note_off_c, 0, 59, 100
1, 28092, Note_on_c, 0, 56, 100
1, 28188, Note_off_c, 0, 56, 100
1, 28188, Note_on_c, 0, 55, 100
1, 28316, Note_off_c, 0, 55, 100
1, 28316, Note_on_c, 0, 54, 100
1, 28380, Note_off_c, 0, 54, 100
1, 28380, Note_on_c, 0, 53, 100
1, 28524, Note_off_c, 0, 53, 100
1, 28524, Note_on_c, 0, 58, 100
1, 28620, Note_off_c, 0, 58, 100
1, 28620, Note_on_c, 0, 59, 100
1, 28716, Note_off_c, 0, 59, 100
1, 28716, Note_on_c, 0, 65, 100
1, 28828, Note_off_c, 0, 65, 100
1, 28828, Note_on_c, 0, 70, 100
1, 28892, Note_off_c, 0, 70, 100
1, 28892, Note_on_c, 0, 65, 100
1, 28956, Note_off_c, 0, 65, 100
1, 28956, Note_on_c, 0, 67, 100
1, 29020, Note_off_c, 0, 67, 100
1, 29020, Note_on_c, 0, 60, 100
1, 29084, Note_off_c, 0, 60, 100
1, 29084, Note_on_c, 0, 65, 100
1, 29196, Note_off_c, 0, 65, 100
1, 29196, Note_on_c, 0, 55, 100
1, 29244, Note_off_c, 0, 55, 100
1, 29244, Note_on_c, 0, 58, 100
1, 29292, Note_off_c, 0, 58, 100
1, 29292, Note_on_c, 0, 60, 100
1, 29388, Note_off_c, 0, 60, 100
1, 29388, Note_on_c, 0, 65, 100
1, 29484, Note_off_c, 0, 65, 100
1, 29484, Note_on_c, 0, 58, 100
1, 29532, Note_off_c, 0, 58, 100
1, 29532, Note_on_c, 0, 63, 100
1, 29628, Note_off_c, 0, 63, 100
1, 29628, Note_on_c, 0, 58, 100
1, 29676, Note_off_c, 0, 58, 100
1, 29676, Note_on_c, 0, 53, 100
1, 29724, Note_off_c, 0, 53, 100
1, 29724, Note_on_c, 0, 48, 100
1, 29788, Note_off_c, 0, 48, 100
1, 29788, Note_on_c, 0, 51, 100
1, 29852, Note_off_c, 0, 51, 100
1, 29852, Note_on_c, 0, 46, 100
1, 30044, Note_off_c, 0, 46, 100
1, 31404, Note_on_c, 0, 63, 100
1, 31548, Note_off_c, 0, 63, 100
1, 31548, Note_on_c, 0, 63, 100
1, 31644, Note_off_c, 0, 63, 100
1, 31644, Note_on_c, 0, 63, 100
1, 31772, Note_off_c, 0, 63, 100
1, 31772, Note_on_c, 0, 63, 100
1, 31836, Note_off_c, 0, 63, 100
1, 31836, Note_on_c, 0, 63, 100
1, 32028, Note_off_c, 0, 63, 100
1, 32028, Note_on_c, 0, 62, 100
1, 32052, Note_off_c, 0, 62, 100
1, 32052, Note_on_c, 0, 63, 100
1, 32196, Note_off_c, 0, 63, 100
1, 32196, Note_on_c, 0, 63, 100
1, 32316, Note_off_c, 0, 63, 100
1, 32316, Note_on_c, 0, 66, 100
1, 32412, Note_off_c, 0, 66, 100
1, 32412, Note_on_c, 0, 64, 100
1, 32540, Note_off_c, 0, 64, 100
1, 32540, Note_on_c, 0, 62, 100
1, 32604, Note_off_c, 0, 62, 100
1, 32604, Note_on_c, 0, 63, 100
1, 32911, Note_off_c, 0, 63, 100
1, 32911, Note_on_c, 0, 61, 100
1, 32949, Note_off_c, 0, 61, 100
1, 32949, Note_on_c, 0, 62, 100
1, 33083, Note_off_c, 0, 62, 100
1, 33083, Note_on_c, 0, 62, 100
1, 33179, Note_off_c, 0, 62, 100
1, 33179, Note_on_c, 0, 62, 100
1, 33275, Note_off_c, 0, 62, 100
1, 33275, Note_on_c, 0, 62, 100
1, 33371, Note_off_c, 0, 62, 100
1, 33371, Note_on_c, 0, 62, 100
1, 33467, Note_off_c, 0, 62, 100
1, 33467, Note_on_c, 0, 65, 100
1, 33563, Note_off_c, 0, 65, 100
1, 33563, Note_on_c, 0, 63, 100
1, 33659, Note_off_c, 0, 63, 100
1, 33659, Note_on_c, 0, 62, 100
1, 33947, Note_off_c, 0, 62, 100
1, 34475, Note_on_c, 0, 60, 100
1, 34523, Note_off_c, 0, 60, 100
1, 34523, Note_on_c, 0, 61, 100
1, 34619, Note_off_c, 0, 61, 100
1, 34619, Note_on_c, 0, 61, 100
1, 34715, Note_off_c, 0, 61, 100
1, 34715, Note_on_c, 0, 61, 100
1, 34811, Note_off_c, 0, 61, 100
1, 34811, Note_on_c, 0, 61, 100
1, 34907, Note_off_c, 0, 61, 100
1, 34907, Note_on_c, 0, 61, 100
1, 35003, Note_off_c, 0, 61, 100
1, 35003, Note_on_c, 0, 66, 100
1, 35099, Note_off_c, 0, 66, 100
1, 35099, Note_on_c, 0, 64, 100
1, 35195, Note_off_c, 0, 64, 100
1, 35195, Note_on_c, 0, 63, 100
1, 35435, Note_off_c, 0, 63, 100
1, 35435, Note_on_c, 0, 61, 100
1, 35627, Note_off_c, 0, 61, 100
1, 35627, Note_on_c, 0, 59, 100
1, 35819, Note_off_c, 0, 59, 100
1, 35819, Note_on_c, 0, 56, 100
1, 36011, Note_off_c, 0, 56, 100
1, 36011, Note_on_c, 0, 54, 100
1, 36203, Note_off_c, 0, 54, 100
1, 37499, Note_on_c, 0, 69, 100
1, 37595, Note_off_c, 0, 69, 100
1, 37595, Note_on_c, 0, 74, 100
1, 37787, Note_off_c, 0, 74, 100
1, 38267, Note_on_c, 0, 70, 100
1, 38363, Note_off_c, 0, 70, 100
1, 38363, Note_on_c, 0, 74, 100
1, 38411, Note_off_c, 0, 74, 100
1, 38411, Note_on_c, 0, 75, 100
1, 38603, Note_off_c, 0, 75, 100
1, 38987, Note_on_c, 0, 68, 100
1, 39083, Note_off_c, 0, 68, 100
1, 39083, Note_on_c, 0, 71, 100
1, 39275, Note_off_c, 0, 71, 100
1, 39275, Note_on_c, 0, 79, 100
1, 39659, Note_off_c, 0, 79, 100
1, 39659, Note_on_c, 0, 68, 100
1, 39803, Note_off_c, 0, 68, 100
1, 39803, Note_on_c, 0, 79, 100
1, 39851, Note_off_c, 0, 79, 100
1, 39851, Note_on_c, 0, 80, 100
1, 39995, Note_off_c, 0, 80, 100
1, 39995, Note_on_c, 0, 79, 100
1, 40235, Note_off_c, 0, 79, 100
1, 40235, Note_on_c, 0, 76, 100
1, 40283, Note_off_c, 0, 76, 100
1, 40283, Note_on_c, 0, 77, 100
1, 40475, Note_off_c, 0, 77, 100
1, 40475, Note_on_c, 0, 75, 100
1, 40619, Note_off_c, 0, 75, 100
1, 40619, Note_on_c, 0, 74, 100
1, 40811, Note_off_c, 0, 74, 100
1, 40811, Note_on_c, 0, 72, 100
1, 40955, Note_off_c, 0, 72, 100
1, 40955, Note_on_c, 0, 67, 100
1, 41147, Note_off_c, 0, 67, 100
1, 41147, Note_on_c, 0, 63, 100
1, 41195, Note_off_c, 0, 63, 100
1, 41195, Note_on_c, 0, 65, 100
1, 41339, Note_off_c, 0, 65, 100
1, 41339, Note_on_c, 0, 63, 100
1, 41531, Note_off_c, 0, 63, 100
1, 41531, Note_on_c, 0, 62, 100
1, 41723, Note_off_c, 0, 62, 100
1, 41723, Note_on_c, 0, 60, 100
1, 41963, Note_off_c, 0, 60, 100
1, 41963, Note_on_c, 0, 55, 100
1, 42011, Note_off_c, 0, 55, 100
1, 42011, Note_on_c, 0, 51, 100
1, 42155, Note_off_c, 0, 51, 100
1, 42155, Note_on_c, 0, 53, 100
1, 42251, Note_off_c, 0, 53, 100
1, 43067, Note_on_c, 0, 46, 100
1, 43099, Note_off_c, 0, 46, 100
1, 43099, Note_on_c, 0, 53, 100
1, 43131, Note_off_c, 0, 53, 100
1, 43131, Note_on_c, 0, 58, 100
1, 43201, Note_off_c, 0, 58, 100
1, 43201, Note_on_c, 0, 65, 100
1, 43239, Note_off_c, 0, 65, 100
1, 43239, Note_on_c, 0, 67, 100
1, 43277, Note_off_c, 0, 67, 100
1, 43277, Note_on_c, 0, 72, 100
1, 43315, Note_off_c, 0, 72, 100
1, 43315, Note_on_c, 0, 73, 100
1, 43353, Note_off_c, 0, 73, 100
1, 43353, Note_on_c, 0, 72, 100
1, 43385, Note_off_c, 0, 72, 100
1, 43385, Note_on_c, 0, 70, 100
1, 43417, Note_off_c, 0, 70, 100
1, 43417, Note_on_c, 0, 72, 100
1, 43449, Note_off_c, 0, 72, 100
1, 43449, Note_on_c, 0, 70, 100
1, 43513, Note_off_c, 0, 70, 100
1, 43513, Note_on_c, 0, 70, 100
1, 43545, Note_off_c, 0, 70, 100
1, 43545, Note_on_c, 0, 64, 100
1, 43641, Note_off_c, 0, 64, 100
1, 43641, Note_on_c, 0, 57, 100
1, 43737, Note_off_c, 0, 57, 100
1, 43737, Note_on_c, 0, 56, 100
1, 43833, Note_off_c, 0, 56, 100
1, 44169, Note_on_c, 0, 58, 100
1, 44217, Note_off_c, 0, 58, 100
1, 44217, Note_on_c, 0, 65, 100
1, 44313, Note_off_c, 0, 65, 100
1, 44313, Note_on_c, 0, 70, 100
1, 44361, Note_off_c, 0, 70, 100
1, 44361, Note_on_c, 0, 65, 100
1, 44409, Note_off_c, 0, 65, 100
1, 44409, Note_on_c, 0, 58, 100
1, 44457, Note_off_c, 0, 58, 100
1, 44457, Note_on_c, 0, 58, 100
1, 44505, Note_off_c, 0, 58, 100
1, 44505, Note_on_c, 0, 63, 100
1, 44601, Note_off_c, 0, 63, 100
1, 44601, Note_on_c, 0, 68, 100
1, 44697, Note_off_c, 0, 68, 100
1, 44697, Note_on_c, 0, 72, 100
1, 44716, Note_off_c, 0, 72, 100
1, 44716, Note_on_c, 0, 73, 100
1, 44869, Note_off_c, 0, 73, 100
1, 44869, Note_on_c, 0, 71, 100
1, 44888, Note_off_c, 0, 71, 100
1, 44888, Note_on_c, 0, 70, 100
1, 44936, Note_off_c, 0, 70, 100
1, 44936, Note_on_c, 0, 66, 100
1, 44984, Note_off_c, 0, 66, 100
1, 44984, Note_on_c, 0, 65, 100
1, 45032, Note_off_c, 0, 65, 100
1, 45032, Note_on_c, 0, 64, 100
1, 45080, Note_off_c, 0, 64, 100
1, 45080, Note_on_c, 0, 63, 100
1, 45128, Note_off_c, 0, 63, 100
1, 45128, Note_on_c, 0, 58, 100
1, 45176, Note_off_c, 0, 58, 100
1, 45176, Note_on_c, 0, 58, 100
1, 45224, Note_off_c, 0, 58, 100
1, 45224, Note_on_c, 0, 54, 100
1, 45272, Note_off_c, 0, 54, 100
1, 45272, Note_on_c, 0, 53, 100
1, 45336, Note_off_c, 0, 53, 100
1, 45336, Note_on_c, 0, 52, 100
1, 45400, Note_off_c, 0, 52, 100
1, 45400, Note_on_c, 0, 51, 100
1, 45464, Note_off_c, 0, 51, 100
1, 45464, Note_on_c, 0, 55, 100
1, 45491, Note_off_c, 0, 55, 100
1, 45491, Note_on_c, 0, 51, 100
1, 45545, Note_off_c, 0, 51, 100
1, 45545, Note_on_c, 0, 53, 100
1, 45572, Note_off_c, 0, 53, 100
1, 45572, Note_on_c, 0, 55, 100
1, 45599, Note_off_c, 0, 55, 100
1, 45599, Note_on_c, 0, 58, 100
1, 45626, Note_off_c, 0, 58, 100
1, 45626, Note_on_c, 0, 62, 100
1, 45653, Note_off_c, 0, 62, 100
1, 45653, Note_on_c, 0, 65, 100
1, 45701, Note_off_c, 0, 65, 100
1, 45701, Note_on_c, 0, 67, 100
1, 45749, Note_off_c, 0, 67, 100
1, 45749, Note_on_c, 0, 62, 100
1, 45797, Note_off_c, 0, 62, 100
1, 45797, Note_on_c, 0, 58, 100
1, 45845, Note_off_c, 0, 58, 100
1, 45845, Note_on_c, 0, 63, 100
1, 45893, Note_off_c, 0, 63, 100
1, 45893, Note_on_c, 0, 65, 100
1, 45941, Note_off_c, 0, 65, 100
1, 45941, Note_on_c, 0, 67, 100
1, 45989, Note_off_c, 0, 67, 100
1, 45989, Note_on_c, 0, 70, 100
1, 46037, Note_off_c, 0, 70, 100
1, 46037, Note_on_c, 0, 69, 100
1, 46085, Note_off_c, 0, 69, 100
1, 46085, Note_on_c, 0, 68, 100
1, 46229, Note_off_c, 0, 68, 100
1, 46229, Note_on_c, 0, 69, 100
1, 46261, Note_off_c, 0, 69, 100
1, 46261, Note_on_c, 0, 66, 100
1, 46293, Note_off_c, 0, 66, 100
1, 46293, Note_on_c, 0, 60, 100
1, 46389, Note_off_c, 0, 60, 100
1, 46389, Note_on_c, 0, 63, 100
1, 46421, Note_off_c, 0, 63, 100
1, 46421, Note_on_c, 0, 66, 100
1, 46549, Note_off_c, 0, 66, 100
1, 46549, Note_on_c, 0, 63, 100
1, 46613, Note_off_c, 0, 63, 100
1, 46613, Note_on_c, 0, 65, 100
1, 46757, Note_off_c, 0, 65, 100
1, 46757, Note_on_c, 0, 62, 100
1, 46805, Note_off_c, 0, 62, 100
1, 46805, Note_on_c, 0, 63, 100
1, 46869, Note_off_c, 0, 63, 100
1, 46869, Note_on_c, 0, 65, 100
1, 46933, Note_off_c, 0, 65, 100
1, 46933, Note_on_c, 0, 67, 100
1, 46997, Note_off_c, 0, 67, 100
1, 46997, Note_on_c, 0, 70, 100
1, 47021, Note_off_c, 0, 70, 100
1, 47021, Note_on_c, 0, 65, 100
1, 47045, Note_off_c, 0, 65, 100
1, 47045, Note_on_c, 0, 62, 100
1, 47093, Note_off_c, 0, 62, 100
1, 47093, Note_on_c, 0, 70, 100
1, 47165, Note_off_c, 0, 70, 100
1, 47165, Note_on_c, 0, 62, 100
1, 47189, Note_off_c, 0, 62, 100
1, 47189, Note_on_c, 0, 64, 100
1, 47237, Note_off_c, 0, 64, 100
1, 47237, Note_on_c, 0, 59, 100
1, 47285, Note_off_c, 0, 59, 100
1, 47285, Note_on_c, 0, 54, 100
1, 47333, Note_off_c, 0, 54, 100
1, 47333, Note_on_c, 0, 61, 100
1, 47381, Note_off_c, 0, 61, 100
1, 47381, Note_on_c, 0, 59, 100
1, 47477, Note_off_c, 0, 59, 100
1, 47861, Note_on_c, 0, 71, 100
1, 47909, Note_off_c, 0, 71, 100
1, 47909, Note_on_c, 0, 67, 100
1, 47957, Note_off_c, 0, 67, 100
1, 47957, Note_on_c, 0, 69, 100
1, 48005, Note_off_c, 0, 69, 100
1, 48005, Note_on_c, 0, 66, 100
1, 48053, Note_off_c, 0, 66, 100
1, 48053, Note_on_c, 0, 61, 100
1, 48101, Note_off_c, 0, 61, 100
1, 48101, Note_on_c, 0, 59, 100
1, 48149, Note_off_c, 0, 59, 100
1, 48149, Note_on_c, 0, 64, 100
1, 48197, Note_off_c, 0, 64, 100
1, 48197, Note_on_c, 0, 71, 100
1, 48245, Note_off_c, 0, 71, 100
1, 48245, Note_on_c, 0, 66, 100
1, 48293, Note_off_c, 0, 66, 100
1, 48293, Note_on_c, 0, 64, 100
1, 48341, Note_off_c, 0, 64, 100
1, 48341, Note_on_c, 0, 56, 100
1, 48389, Note_off_c, 0, 56, 100
1, 48389, Note_on_c, 0, 58, 100
1, 48437, Note_off_c, 0, 58, 100
1, 48437, Note_on_c, 0, 60, 100
1, 48485, Note_off_c, 0, 60, 100
1, 48485, Note_on_c, 0, 63, 100
1, 48533, Note_off_c, 0, 63, 100
1, 48533, Note_on_c, 0, 67, 100
1, 48571, Note_off_c, 0, 67, 100
1, 48571, Note_on_c, 0, 66, 100
1, 48609, Note_off_c, 0, 66, 100
1, 48609, Note_on_c, 0, 65, 100
1, 48647, Note_off_c, 0, 65, 100
1, 48647, Note_on_c, 0, 64, 100
1, 48685, Note_off_c, 0, 64, 100
1, 48685, Note_on_c, 0, 63, 100
1, 48723, Note_off_c, 0, 63, 100
1, 48723, Note_on_c, 0, 59, 100
1, 48787, Note_off_c, 0, 59, 100
1, 48787, Note_on_c, 0, 62, 100
1, 48851, Note_off_c, 0, 62, 100
1, 48851, Note_on_c, 0, 63, 100
1, 48915, Note_off_c, 0, 63, 100
1, 48915, Note_on_c, 0, 65, 100
1, 49011, Note_off_c, 0, 65, 100
1, 49011, Note_on_c, 0, 61, 100
1, 49059, Note_off_c, 0, 61, 100
1, 49059, Note_on_c, 0, 63, 100
1, 49107, Note_off_c, 0, 63, 100
1, 49107, Note_on_c, 0, 58, 100
1, 49155, Note_off_c, 0, 58, 100
1, 49155, Note_on_c, 0, 54, 100
1, 49203, Note_off_c, 0, 54, 100
1, 49203, Note_on_c, 0, 50, 100
1, 49251, Note_off_c, 0, 50, 100
1, 49251, Note_on_c, 0, 56, 100
1, 49299, Note_off_c, 0, 56, 100
1, 49299, Note_on_c, 0, 58, 100
1, 49347, Note_off_c, 0, 58, 100
1, 49347, Note_on_c, 0, 60, 100
1, 49395, Note_off_c, 0, 60, 100
1, 49395, Note_on_c, 0, 61, 100
1, 49443, Note_off_c, 0, 61, 100
1, 49443, Note_on_c, 0, 66, 100
1, 49539, Note_off_c, 0, 66, 100
1, 49539, Note_on_c, 0, 61, 100
1, 49587, Note_off_c, 0, 61, 100
1, 49587, Note_on_c, 0, 67, 100
1, 49635, Note_off_c, 0, 67, 100
1, 49635, Note_on_c, 0, 68, 100
1, 49683, Note_off_c, 0, 68, 100
1, 49683, Note_on_c, 0, 61, 100
1, 49731, Note_off_c, 0, 61, 100
1, 49731, Note_on_c, 0, 68, 100
1, 49779, Note_off_c, 0, 68, 100
1, 49779, Note_on_c, 0, 71, 100
1, 49875, Note_off_c, 0, 71, 100
1, 49875, Note_on_c, 0, 73, 100
1, 49971, Note_off_c, 0, 73, 100
1, 49971, Note_on_c, 0, 74, 100
1, 50067, Note_off_c, 0, 74, 100
1, 50067, Note_on_c, 0, 70, 100
1, 50259, Note_off_c, 0, 70, 100
1, 50259, Note_on_c, 0, 67, 100
1, 50451, Note_off_c, 0, 67, 100
1, 50451, Note_on_c, 0, 65, 100
1, 50595, Note_off_c, 0, 65, 100
1, 50595, Note_on_c, 0, 63, 100
1, 50691, Note_off_c, 0, 63, 100
1, 51475, Note_on_c, 0, 68, 100
1, 51507, Note_off_c, 0, 68, 100
1, 51507, Note_on_c, 0, 69, 100
1, 51539, Note_off_c, 0, 69, 100
1, 51539, Note_on_c, 0, 72, 100
1, 51571, Note_off_c, 0, 72, 100
1, 51571, Note_on_c, 0, 73, 100
1, 51603, Note_off_c, 0, 73, 100
1, 51603, Note_on_c, 0, 66, 100
1, 51635, Note_off_c, 0, 66, 100
1, 51635, Note_on_c, 0, 71, 100
1, 51667, Note_off_c, 0, 71, 100
1, 51667, Note_on_c, 0, 72, 100
1, 51699, Note_off_c, 0, 72, 100
1, 51699, Note_on_c, 0, 68, 100
1, 51731, Note_off_c, 0, 68, 100
1, 51731, Note_on_c, 0, 71, 100
1, 51795, Note_off_c, 0, 71, 100
1, 51795, Note_on_c, 0, 69, 100
1, 51819, Note_off_c, 0, 69, 100
1, 51819, Note_on_c, 0, 68, 100
1, 51843, Note_off_c, 0, 68, 100
1, 51843, Note_on_c, 0, 64, 100
1, 51867, Note_off_c, 0, 64, 100
1, 51867, Note_on_c, 0, 65, 100
1, 51891, Note_off_c, 0, 65, 100
1, 51891, Note_on_c, 0, 66, 100
1, 51939, Note_off_c, 0, 66, 100
1, 51939, Note_on_c, 0, 61, 100
1, 51987, Note_off_c, 0, 61, 100
1, 51987, Note_on_c, 0, 64, 100
1, 52035, Note_off_c, 0, 64, 100
1, 52035, Note_on_c, 0, 63, 100
1, 52255, Note_off_c, 0, 63, 100
1, 52255, Note_on_c, 0, 58, 100
1, 52293, Note_off_c, 0, 58, 100
1, 52293, Note_on_c, 0, 61, 100
1, 52331, Note_off_c, 0, 61, 100
1, 52331, Note_on_c, 0, 62, 100
1, 52369, Note_off_c, 0, 62, 100
1, 52369, Note_on_c, 0, 65, 100
1, 52417, Note_off_c, 0, 65, 100
1, 52417, Note_on_c, 0, 62, 100
1, 52465, Note_off_c, 0, 62, 100
1, 52465, Note_on_c, 0, 63, 100
1, 52513, Note_off_c, 0, 63, 100
1, 52513, Note_on_c, 0, 59, 100
1, 52705, Note_off_c, 0, 59, 100
1, 52705, Note_on_c, 0, 56, 100
1, 52849, Note_off_c, 0, 56, 100
1, 52849, Note_on_c, 0, 55, 100
1, 52897, Note_off_c, 0, 55, 100
1, 52897, Note_on_c, 0, 54, 100
1, 52945, Note_off_c, 0, 54, 100
1, 52945, Note_on_c, 0, 53, 100
1, 53041, Note_off_c, 0, 53, 100
1, 53041, Note_on_c, 0, 51, 100
1, 53089, Note_off_c, 0, 51, 100
1, 53089, Note_on_c, 0, 51, 100
1, 53185, Note_off_c, 0, 51, 100
1, 53185, Note_on_c, 0, 53, 100
1, 53281, Note_off_c, 0, 53, 100
1, 53281, Note_on_c, 0, 53, 100
1, 53329, Note_off_c, 0, 53, 100
1, 53329, Note_on_c, 0, 55, 100
1, 53425, Note_off_c, 0, 55, 100
1, 53425, Note_on_c, 0, 55, 100
1, 53521, Note_off_c, 0, 55, 100
1, 53521, Note_on_c, 0, 58, 100
1, 53617, Note_off_c, 0, 58, 100
1, 53617, Note_on_c, 0, 58, 100
1, 53665, Note_off_c, 0, 58, 100
1, 53665, Note_on_c, 0, 60, 100
1, 53809, Note_off_c, 0, 60, 100
1, 53809, Note_on_c, 0, 60, 100
1, 53857, Note_off_c, 0, 60, 100
1, 53857, Note_on_c, 0, 63, 100
1, 54001, Note_off_c, 0, 63, 100
1, 54001, Note_on_c, 0, 63, 100
1, 54097, Note_off_c, 0, 63, 100
1, 54097, Note_on_c, 0, 65, 100
1, 54193, Note_off_c, 0, 65, 100
1, 54193, Note_on_c, 0, 65, 100
1, 54289, Note_off_c, 0, 65, 100
1, 54289, Note_on_c, 0, 67, 100
1, 54385, Note_off_c, 0, 67, 100
1, 54385, Note_on_c, 0, 67, 100
1, 54673, Note_off_c, 0, 67, 100
1, 54673, Note_on_c, 0, 65, 100
1, 54769, Note_off_c, 0, 65, 100
1, 54769, Note_on_c, 0, 61, 100
1, 54817, Note_off_c, 0, 61, 100
1, 54817, Note_on_c, 0, 58, 100
1, 54913, Note_off_c, 0, 58, 100
1, 56081, Note_on_c, 0, 67, 100
1, 56145, Note_off_c, 0, 67, 100
1, 56145, Note_on_c, 0, 70, 100
1, 56209, Note_off_c, 0, 70, 100
1, 56209, Note_on_c, 0, 63, 100
1, 56305, Note_off_c, 0, 63, 100
1, 56977, Note_on_c, 0, 67, 100
1, 57025, Note_off_c, 0, 67, 100
1, 57025, Note_on_c, 0, 70, 100
1, 57073, Note_off_c, 0, 70, 100
1, 57073, Note_on_c, 0, 73, 100
1, 57169, Note_off_c, 0, 73, 100
1, 57745, Note_on_c, 0, 67, 100
1, 57809, Note_off_c, 0, 67, 100
1, 57809, Note_on_c, 0, 70, 100
1, 57873, Note_off_c, 0, 70, 100
1, 57873, Note_on_c, 0, 63, 100
1, 57969, Note_off_c, 0, 63, 100
1, 58417, Note_on_c, 0, 67, 100
1, 58465, Note_off_c, 0, 67, 100
1, 58465, Note_on_c, 0, 68, 100
1, 58513, Note_off_c, 0, 68, 100
1, 58513, Note_on_c, 0, 74, 100
1, 58705, Note_off_c, 0, 74, 100
1, 59185, Note_on_c, 0, 71, 100
1, 59233, Note_off_c, 0, 71, 100
1, 59233, Note_on_c, 0, 74, 100
1, 59377, Note_off_c, 0, 74, 100
1, 59377, Note_on_c, 0, 73, 100
1, 59473, Note_off_c, 0, 73, 100
1, 59729, Note_on_c, 0, 71, 100
1, 59793, Note_off_c, 0, 71, 100
1, 59793, Note_on_c, 0, 74, 100
1, 59857, Note_off_c, 0, 74, 100
1, 59857, Note_on_c, 0, 75, 100
1, 60049, Note_off_c, 0, 75, 100
1, 60529, Note_on_c, 0, 67, 100
1, 60577, Note_off_c, 0, 67, 100
1, 60577, Note_on_c, 0, 68, 100
1, 60625, Note_off_c, 0, 68, 100
1, 60625, Note_on_c, 0, 71, 100
1, 60721, Note_off_c, 0, 71, 100
1, 60721, Note_on_c, 0, 79, 100
1, 60913, Note_off_c, 0, 79, 100
1, 61239, Note_on_c, 0, 68, 100
1, 61277, Note_off_c, 0, 68, 100
1, 61277, Note_on_c, 0, 69, 100
1, 61353, Note_off_c, 0, 69, 100
1, 61353, Note_on_c, 0, 79, 100
1, 61391, Note_off_c, 0, 79, 100
1, 61391, Note_on_c, 0, 81, 100
1, 61871, Note_off_c, 0, 81, 100
1, 61871, Note_on_c, 0, 76, 100
1, 61967, Note_off_c, 0, 76, 100
1, 61967, Note_on_c, 0, 83, 100
1, 62111, Note_off_c, 0, 83, 100
1, 62111, Note_on_c, 0, 80, 100
1, 62223, Note_off_c, 0, 80, 100
1, 62223, Note_on_c, 0, 79, 100
1, 62447, Note_off_c, 0, 79, 100
1, 62447, Note_on_c, 0, 76, 100
1, 62495, Note_off_c, 0, 76, 100
1, 62495, Note_on_c, 0, 75, 100
1, 62639, Note_off_c, 0, 75, 100
1, 62639, Note_on_c, 0, 73, 100
1, 62687, Note_off_c, 0, 73, 100
1, 62687, Note_on_c, 0, 70, 100
1, 62783, Note_off_c, 0, 70, 100
1, 62783, Note_on_c, 0, 67, 100
1, 62879, Note_off_c, 0, 67, 100
1, 62879, Note_on_c, 0, 65, 100
1, 62927, Note_off_c, 0, 65, 100
1, 62927, Note_on_c, 0, 66, 100
1, 63023, Note_off_c, 0, 66, 100
1, 63023, Note_on_c, 0, 65, 100
1, 63071, Note_off_c, 0, 65, 100
1, 63071, Note_on_c, 0, 62, 100
1, 63119, Note_off_c, 0, 62, 100
1, 63119, Note_on_c, 0, 60, 100
1, 63167, Note_off_c, 0, 60, 100
1, 63167, Note_on_c, 0, 58, 100
1, 63215, Note_off_c, 0, 58, 100
1, 63215, Note_on_c, 0, 55, 100
1, 63263, Note_off_c, 0, 55, 100
1, 63263, Note_on_c, 0, 53, 100
1, 63311, Note_off_c, 0, 53, 100
1, 63311, Note_on_c, 0, 50, 100
1, 63375, Note_off_c, 0, 50, 100
1, 63375, Note_on_c, 0, 53, 100
1, 63439, Note_off_c, 0, 53, 100
1, 63439, Note_on_c, 0, 48, 100
1, 63503, Note_off_c, 0, 48, 100
1, 63503, Note_on_c, 0, 50, 100
1, 63551, Note_off_c, 0, 50, 100
1, 63551, Note_on_c, 0, 46, 100
1, 63599, Note_off_c, 0, 46, 100
1, 63599, Note_on_c, 0, 45, 100
1, 63695, Note_off_c, 0, 45, 100
1, 63695, Note_on_c, 0, 47, 100
1, 63839, Note_off_c, 0, 47, 100
1, 63839, Note_on_c, 0, 49, 100
1, 63887, Note_off_c, 0, 49, 100
1, 63887, Note_on_c, 0, 52, 100
1, 63935, Note_off_c, 0, 52, 100
1, 63935, Note_on_c, 0, 55, 100
1, 63983, Note_off_c, 0, 55, 100
1, 63983, Note_on_c, 0, 51, 100
1, 64079, Note_off_c, 0, 51, 100
1, 64079, Note_on_c, 0, 56, 100
1, 64175, Note_off_c, 0, 56, 100
1, 64175, Note_on_c, 0, 59, 100
1, 64223, Note_off_c, 0, 59, 100
1, 64223, Note_on_c, 0, 63, 100
1, 64271, Note_off_c, 0, 63, 100
1, 64271, Note_on_c, 0, 61, 100
1, 64347, Note_off_c, 0, 61, 100
1, 64347, Note_on_c, 0, 57, 100
1, 64385, Note_off_c, 0, 57, 100
1, 64385, Note_on_c, 0, 53, 100
1, 64423, Note_off_c, 0, 53, 100
1, 64423, Note_on_c, 0, 59, 100
1, 64461, Note_off_c, 0, 59, 100
1, 64461, Note_on_c, 0, 61, 100
1, 64509, Note_off_c, 0, 61, 100
1, 64509, Note_on_c, 0, 63, 100
1, 64557, Note_off_c, 0, 63, 100
1, 64557, Note_on_c, 0, 67, 100
1, 64605, Note_off_c, 0, 67, 100
1, 64605, Note_on_c, 0, 68, 100
1, 64701, Note_off_c, 0, 68, 100
1, 64701, Note_on_c, 0, 61, 100
1, 64749, Note_off_c, 0, 61, 100
1, 64749, Note_on_c, 0, 68, 100
1, 64797, Note_off_c, 0, 68, 100
1, 64797, Note_on_c, 0, 71, 100
1, 64845, Note_off_c, 0, 71, 100
1, 64845, Note_on_c, 0, 69, 100
1, 64893, Note_off_c, 0, 69, 100
1, 64893, Note_on_c, 0, 66, 100
1, 64941, Note_off_c, 0, 66, 100
1, 64941, Note_on_c, 0, 65, 100
1, 64989, Note_off_c, 0, 65, 100
1, 64989, Note_on_c, 0, 64, 100
1, 65037, Note_off_c, 0, 64, 100
1, 65037, Note_on_c, 0, 63, 100
1, 65085, Note_off_c, 0, 63, 100
1, 65085, Note_on_c, 0, 58, 100
1, 65133, Note_off_c, 0, 58, 100
1, 65133, Note_on_c, 0, 61, 100
1, 65181, Note_off_c, 0, 61, 100
1, 65181, Note_on_c, 0, 65, 100
1, 65229, Note_off_c, 0, 65, 100
1, 65229, Note_on_c, 0, 63, 100
1, 65293, Note_off_c, 0, 63, 100
1, 65293, Note_on_c, 0, 65, 100
1, 65357, Note_off_c, 0, 65, 100
1, 65357, Note_on_c, 0, 67, 100
1, 65421, Note_off_c, 0, 67, 100
1, 65421, Note_on_c, 0, 70, 100
1, 65565, Note_off_c, 0, 70, 100
1, 65565, Note_on_c, 0, 58, 100
1, 65613, Note_off_c, 0, 58, 100
1, 65613, Note_on_c, 0, 60, 100
1, 65677, Note_off_c, 0, 60, 100
1, 65677, Note_on_c, 0, 62, 100
1, 65741, Note_off_c, 0, 62, 100
1, 65741, Note_on_c, 0, 63, 100
1, 65805, Note_off_c, 0, 63, 100
1, 65805, Note_on_c, 0, 65, 100
1, 66061, Note_off_c, 0, 65, 100
1, 66061, Note_on_c, 0, 55, 100
1, 66125, Note_off_c, 0, 55, 100
1, 66125, Note_on_c, 0, 57, 100
1, 66189, Note_off_c, 0, 57, 100
1, 66189, Note_on_c, 0, 58, 100
1, 66237, Note_off_c, 0, 58, 100
1, 66237, Note_on_c, 0, 60, 100
1, 66429, Note_off_c, 0, 60, 100
1, 66429, Note_on_c, 0, 51, 100
1, 66477, Note_off_c, 0, 51, 100
1, 66477, Note_on_c, 0, 53, 100
1, 66525, Note_off_c, 0, 53, 100
1, 66525, Note_on_c, 0, 55, 100
1, 66717, Note_off_c, 0, 55, 100
1, 67005, Note_on_c, 0, 50, 100
1, 67053, Note_off_c, 0, 50, 100
1, 67053, Note_on_c, 0, 51, 100
1, 67101, Note_off_c, 0, 51, 100
1, 67101, Note_on_c, 0, 55, 100
1, 67149, Note_off_c, 0, 55, 100
1, 67149, Note_on_c, 0, 49, 100
1, 67197, Note_off_c, 0, 49, 100
1, 67197, Note_on_c, 0, 53, 100
1, 67245, Note_off_c, 0, 53, 100
1, 67245, Note_on_c, 0, 52, 100
1, 67293, Note_off_c, 0, 52, 100
1, 67293, Note_on_c, 0, 51, 100
1, 67341, Note_off_c, 0, 51, 100
1, 67341, Note_on_c, 0, 55, 100
1, 67379, Note_off_c, 0, 55, 100
1, 67379, Note_on_c, 0, 49, 100
1, 67417, Note_off_c, 0, 49, 100
1, 67417, Note_on_c, 0, 53, 100
1, 67455, Note_off_c, 0, 53, 100
1, 67455, Note_on_c, 0, 56, 100
1, 67493, Note_off_c, 0, 56, 100
1, 67493, Note_on_c, 0, 59, 100
1, 67531, Note_off_c, 0, 59, 100
1, 67531, Note_on_c, 0, 63, 100
1, 67579, Note_off_c, 0, 63, 100
1, 67579, Note_on_c, 0, 65, 100
1, 67627, Note_off_c, 0, 65, 100
1, 67627, Note_on_c, 0, 68, 100
1, 67675, Note_off_c, 0, 68, 100
1, 67675, Note_on_c, 0, 71, 100
1, 67723, Note_off_c, 0, 71, 100
1, 67723, Note_on_c, 0, 69, 100
1, 67761, Note_off_c, 0, 69, 100
1, 67761, Note_on_c, 0, 66, 100
1, 67799, Note_off_c, 0, 66, 100
1, 67799, Note_on_c, 0, 61, 100
1, 67875, Note_off_c, 0, 61, 100
1, 67875, Note_on_c, 0, 59, 100
1, 67913, Note_off_c, 0, 59, 100
1, 67913, Note_on_c, 0, 64, 100
1, 67951, Note_off_c, 0, 64, 100
1, 67951, Note_on_c, 0, 62, 100
1, 67989, Note_off_c, 0, 62, 100
1, 67989, Note_on_c, 0, 63, 100
1, 68027, Note_off_c, 0, 63, 100
1, 68027, Note_on_c, 0, 61, 100
1, 68065, Note_off_c, 0, 61, 100
1, 68065, Note_on_c, 0, 62, 100
1, 68141, Note_off_c, 0, 62, 100
1, 68141, Note_on_c, 0, 59, 100
1, 68179, Note_off_c, 0, 59, 100
1, 68179, Note_on_c, 0, 54, 100
1, 68217, Note_off_c, 0, 54, 100
1, 68217, Note_on_c, 0, 50, 100
1, 68255, Note_off_c, 0, 50, 100
1, 68255, Note_on_c, 0, 55, 100
1, 68351, Note_off_c, 0, 55, 100
1, 68581, Note_on_c, 0, 57, 100
1, 68677, Note_off_c, 0, 57, 100
1, 68677, Note_on_c, 0, 63, 100
1, 68965, Note_off_c, 0, 63, 100
1, 68965, Note_on_c, 0, 65, 100
1, 69061, Note_off_c, 0, 65, 100
1, 69061, Note_on_c, 0, 66, 100
1, 69157, Note_off_c, 0, 66, 100
1, 69157, Note_on_c, 0, 68, 100
1, 69253, Note_off_c, 0, 68, 100
1, 69253, Note_on_c, 0, 65, 100
1, 69349, Note_off_c, 0, 65, 100
1, 69349, Note_on_c, 0, 66, 100
1, 69445, Note_off_c, 0, 66, 100
1, 69445, Note_on_c, 0, 63, 100
1, 69573, Note_off_c, 0, 63, 100
1, 69573, Note_on_c, 0, 59, 100
1, 69637, Note_off_c, 0, 59, 100
1, 69637, Note_on_c, 0, 58, 100
1, 69733, Note_off_c, 0, 58, 100
1, 69733, Note_on_c, 0, 56, 100
1, 69829, Note_off_c, 0, 56, 100
1, 69829, Note_on_c, 0, 55, 100
1, 69925, Note_off_c, 0, 55, 100
1, 69925, Note_on_c, 0, 58, 100
1, 70021, Note_off_c, 0, 58, 100
1, 70021, Note_on_c, 0, 62, 100
1, 70117, Note_off_c, 0, 62, 100
1, 70117, Note_on_c, 0, 65, 100
1, 70213, Note_off_c, 0, 65, 100
1, 70213, Note_on_c, 0, 63, 100
1, 70309, Note_off_c, 0, 63, 100
1, 70309, Note_on_c, 0, 65, 100
1, 70405, Note_off_c, 0, 65, 100
1, 70405, Note_on_c, 0, 67, 100
1, 70520, Note_off_c, 0, 67, 100
1, 70520, Note_on_c, 0, 70, 100
1, 70558, Note_off_c, 0, 70, 100
1, 70558, Note_on_c, 0, 71, 100
1, 70596, Note_off_c, 0, 71, 100
1, 70596, Note_on_c, 0, 73, 100
1, 70692, Note_off_c, 0, 73, 100
1, 70692, Note_on_c, 0, 74, 100
1, 70980, Note_off_c, 0, 74, 100
1, 71220, Note_on_c, 0, 72, 100
1, 71268, Note_off_c, 0, 72, 100
1, 71268, Note_on_c, 0, 71, 100
1, 71316, Note_off_c, 0, 71, 100
1, 71316, Note_on_c, 0, 70, 100
1, 71460, Note_off_c, 0, 70, 100
1, 71460, Note_on_c, 0, 70, 100
1, 71556, Note_off_c, 0, 70, 100
1, 71556, Note_on_c, 0, 75, 100
1, 71652, Note_off_c, 0, 75, 100
1, 71652, Note_on_c, 0, 75, 100
1, 71748, Note_off_c, 0, 75, 100
1, 71748, Note_on_c, 0, 74, 100
1, 71844, Note_off_c, 0, 74, 100
1, 71844, Note_on_c, 0, 74, 100
1, 71892, Note_off_c, 0, 74, 100
1, 71892, Note_on_c, 0, 73, 100
1, 72036, Note_off_c, 0, 73, 100
1, 72036, Note_on_c, 0, 73, 100
1, 72132, Note_off_c, 0, 73, 100
1, 72132, Note_on_c, 0, 72, 100
1, 72228, Note_off_c, 0, 72, 100
1, 72228, Note_on_c, 0, 72, 100
1, 72324, Note_off_c, 0, 72, 100
1, 72324, Note_on_c, 0, 71, 100
1, 72420, Note_off_c, 0, 71, 100
1, 72420, Note_on_c, 0, 71, 100
1, 72516, Note_off_c, 0, 71, 100
1, 72516, Note_on_c, 0, 70, 100
1, 72612, Note_off_c, 0, 70, 100
1, 72612, Note_on_c, 0, 70, 100
1, 72708, Note_off_c, 0, 70, 100
1, 72708, Note_on_c, 0, 68, 100
1, 72804, Note_off_c, 0, 68, 100
1, 72804, Note_on_c, 0, 68, 100
1, 72852, Note_off_c, 0, 68, 100
1, 72852, Note_on_c, 0, 66, 100
1, 72996, Note_off_c, 0, 66, 100
1, 72996, Note_on_c, 0, 66, 100
1, 73092, Note_off_c, 0, 66, 100
1, 73092, Note_on_c, 0, 63, 100
1, 73156, Note_off_c, 0, 63, 100
1, 73156, Note_on_c, 0, 61, 100
1, 73220, Note_off_c, 0, 61, 100
1, 73220, Note_on_c, 0, 59, 100
1, 73284, Note_off_c, 0, 59, 100
1, 73284, Note_on_c, 0, 64, 100
1, 73380, Note_off_c, 0, 64, 100
1, 73380, Note_on_c, 0, 64, 100
1, 73476, Note_off_c, 0, 64, 100
1, 73476, Note_on_c, 0, 61, 100
1, 73524, Note_off_c, 0, 61, 100
1, 73524, Note_on_c, 0, 59, 100
1, 73620, Note_off_c, 0, 59, 100
1, 73764, Note_on_c, 0, 59, 100
1, 73812, Note_off_c, 0, 59, 100
1, 73812, Note_on_c, 0, 56, 100
1, 74004, Note_off_c, 0, 56, 100
1, 74004, Note_on_c, 0, 54, 100
1, 74244, Note_off_c, 0, 54, 100
1, 74244, Note_on_c, 0, 52, 100
1, 74340, Note_off_c, 0, 52, 100
1, 74340, Note_on_c, 0, 51, 100
1, 74633, Note_off_c, 0, 51, 100
1, 74633, End_track
0, 0, End_of_file
