0, 0, Header, 1, 1, 192
1, 0, Start_track
1, 0, Title_t, "Melody"
1, 0, Tempo, 983606
1, 0, Key_signature, -2, "minor"
1, 0, Time_signature, 4, 2, 24, 8
1, 144, Note_on_c, 0, 53, 100
1, 168, Note_off_c, 0, 53, 100
1, 168, Note_on_c, 0, 55, 100
1, 192, Note_off_c, 0, 55, 100
1, 192, Note_on_c, 0, 58, 100
1, 230, Note_off_c, 0, 58, 100
1, 230, Note_on_c, 0, 60, 100
1, 268, Note_off_c, 0, 60, 100
1, 268, Note_on_c, 0, 60, 100
1, 306, Note_off_c, 0, 60, 100
1, 306, Note_on_c, 0, 61, 100
1, 344, Note_off_c, 0, 61, 100
1, 344, Note_on_c, 0, 58, 100
1, 382, Note_off_c, 0, 58, 100
1, 382, Note_on_c, 0, 60, 100
1, 430, Note_off_c, 0, 60, 100
1, 430, Note_on_c, 0, 58, 100
1, 1070, Note_off_c, 0, 58, 100
1, 1070, Note_on_c, 0, 65, 100
1, 1086, Note_off_c, 0, 65, 100
1, 1086, Note_on_c, 0, 66, 100
1, 1102, Note_off_c, 0, 66, 100
1, 1102, Note_on_c, 0, 67, 100
1, 1134, Note_off_c, 0, 67, 100
1, 1134, Note_on_c, 0, 70, 100
1, 1188, Note_off_c, 0, 70, 100
1, 1188, Note_on_c, 0, 72, 100
1, 1226, Note_off_c, 0, 72, 100
1, 1226, Note_on_c, 0, 73, 100
1, 1264, Note_off_c, 0, 73, 100
1, 1264, Note_on_c, 0, 72, 100
1, 1302, Note_off_c, 0, 72, 100
1, 1302, Note_on_c, 0, 70, 100
1, 1340, Note_off_c, 0, 70, 100
1, 1340, Note_on_c, 0, 68, 100
1, 1378, Note_off_c, 0, 68, 100
1, 1378, Note_on_c, 0, 65, 100
1, 1416, Note_off_c, 0, 65, 100
1, 1416, Note_on_c, 0, 64, 100
1, 1454, Note_off_c, 0, 64, 100
1, 1454, Note_on_c, 0, 63, 100
1, 1492, Note_off_c, 0, 63, 100
1, 1492, Note_on_c, 0, 65, 100
1, 1530, Note_off_c, 0, 65, 100
1, 1530, Note_on_c, 0, 61, 100
1, 1554, Note_off_c, 0, 61, 100
1, 1554, Note_on_c, 0, 62, 100
1, 1578, Note_off_c, 0, 62, 100
1, 1578, Note_on_c, 0, 61, 100
1, 1602, Note_off_c, 0, 61, 100
1, 1602, Note_on_c, 0, 62, 100
1, 1722, Note_off_c, 0, 62, 100
1, 1722, Note_on_c, 0, 61, 100
1, 1754, Note_off_c, 0, 61, 100
1, 1754, Note_on_c, 0, 60, 100
1, 1818, Note_off_c, 0, 60, 100
1, 1818, Note_on_c, 0, 60, 100
1, 1850, Note_off_c, 0, 60, 100
1, 1850, Note_on_c, 0, 58, 100
1, 2058, Note_off_c, 0, 58, 100
1, 2058, Note_on_c, 0, 53, 100
1, 2106, Note_off_c, 0, 53, 100
1, 2106, Note_on_c, 0, 55, 100
1, 2202, Note_off_c, 0, 55, 100
1, 2202, Note_on_c, 0, 53, 100
1, 2490, Note_off_c, 0, 53, 100
1, 3296, Note_on_c, 0, 58, 100
1, 3334, Note_off_c, 0, 58, 100
1, 3334, Note_on_c, 0, 59, 100
1, 3372, Note_off_c, 0, 59, 100
1, 3372, Note_on_c, 0, 56, 100
1, 3410, Note_off_c, 0, 56, 100
1, 3410, Note_on_c, 0, 58, 100
1, 3480, Note_off_c, 0, 58, 100
1, 3480, Note_on_c, 0, 58, 100
1, 3544, Note_off_c, 0, 58, 100
1, 3544, Note_on_c, 0, 56, 100
1, 3576, Note_off_c, 0, 56, 100
1, 3576, Note_on_c, 0, 63, 100
1, 3608, Note_off_c, 0, 63, 100
1, 3608, Note_on_c, 0, 64, 100
1, 3678, Note_off_c, 0, 64, 100
1, 3678, Note_on_c, 0, 61, 100
1, 3716, Note_off_c, 0, 61, 100
1, 3716, Note_on_c, 0, 63, 100
1, 3754, Note_off_c, 0, 63, 100
1, 3754, Note_on_c, 0, 61, 100
1, 3792, Note_off_c, 0, 61, 100
1, 3792, Note_on_c, 0, 58, 100
1, 3854, Note_off_c, 0, 58, 100
1, 3854, Note_on_c, 0, 62, 100
1, 3878, Note_off_c, 0, 62, 100
1, 3878, Note_on_c, 0, 63, 100
1, 3902, Note_off_c, 0, 63, 100
1, 3902, Note_on_c, 0, 64, 100
1, 3926, Note_off_c, 0, 64, 100
1, 3926, Note_on_c, 0, 61, 100
1, 3950, Note_off_c, 0, 61, 100
1, 3950, Note_on_c, 0, 63, 100
1, 3974, Note_off_c, 0, 63, 100
1, 3974, Note_on_c, 0, 61, 100
1, 3998, Note_off_c, 0, 61, 100
1, 3998, Note_on_c, 0, 58, 100
1, 4022, Note_off_c, 0, 58, 100
1, 4022, Note_on_c, 0, 64, 100
1, 4060, Note_off_c, 0, 64, 100
1, 4060, Note_on_c, 0, 61, 100
1, 4098, Note_off_c, 0, 61, 100
1, 4098, Note_on_c, 0, 63, 100
1, 4136, Note_off_c, 0, 63, 100
1, 4136, Note_on_c, 0, 61, 100
1, 4174, Note_off_c, 0, 61, 100
1, 4174, Note_on_c, 0, 58, 100
1, 4212, Note_off_c, 0, 58, 100
1, 4212, Note_on_c, 0, 58, 100
1, 4244, Note_off_c, 0, 58, 100
1, 4244, Note_on_c, 0, 59, 100
1, 4276, Note_off_c, 0, 59, 100
1, 4276, Note_on_c, 0, 60, 100
1, 4308, Note_off_c, 0, 60, 100
1, 4308, Note_on_c, 0, 61, 100
1, 4340, Note_off_c, 0, 61, 100
1, 4340, Note_on_c, 0, 58, 100
1, 4532, Note_off_c, 0, 58, 100
1, 4735, Note_on_c, 0, 58, 100
1, 4752, Note_off_c, 0, 58, 100
1, 4752, Note_on_c, 0, 58, 100
1, 4769, Note_off_c, 0, 58, 100
1, 4769, Note_on_c, 0, 58, 100
1, 4786, Note_off_c, 0, 58, 100
1, 4786, Note_on_c, 0, 58, 100
1, 4818, Note_off_c, 0, 58, 100
1, 4818, Note_on_c, 0, 58, 100
1, 4850, Note_off_c, 0, 58, 100
1, 4850, Note_on_c, 0, 61, 100
1, 4882, Note_off_c, 0, 61, 100
1, 4882, Note_on_c, 0, 62, 100
1, 4914, Note_off_c, 0, 62, 100
1, 4914, Note_on_c, 0, 65, 100
1, 4946, Note_off_c, 0, 65, 100
1, 4946, Note_on_c, 0, 67, 100
1, 4978, Note_off_c, 0, 67, 100
1, 4978, Note_on_c, 0, 70, 100
1, 5026, Note_off_c, 0, 70, 100
1, 5026, Note_on_c, 0, 70, 100
1, 5458, Note_off_c, 0, 70, 100
1, 5458, Note_on_c, 0, 66, 100
1, 5506, Note_off_c, 0, 66, 100
1, 5506, Note_on_c, 0, 67, 100
1, 5554, Note_off_c, 0, 67, 100
1, 5554, Note_on_c, 0, 65, 100
1, 6168, Note_off_c, 0, 65, 100
1, 6168, Note_on_c, 0, 65, 100
1, 6206, Note_off_c, 0, 65, 100
1, 6206, Note_on_c, 0, 68, 100
1, 6244, Note_off_c, 0, 68, 100
1, 6244, Note_on_c, 0, 70, 100
1, 6282, Note_off_c, 0, 70, 100
1, 6282, Note_on_c, 0, 71, 100
1, 6320, Note_off_c, 0, 71, 100
1, 6320, Note_on_c, 0, 73, 100
1, 6337, Note_off_c, 0, 73, 100
1, 6337, Note_on_c, 0, 74, 100
1, 6354, Note_off_c, 0, 74, 100
1, 6354, Note_on_c, 0, 75, 100
1, 6406, Note_off_c, 0, 75, 100
1, 6406, Note_on_c, 0, 70, 100
1, 6423, Note_off_c, 0, 70, 100
1, 6423, Note_on_c, 0, 71, 100
1, 6440, Note_off_c, 0, 71, 100
1, 6440, Note_on_c, 0, 70, 100
1, 6457, Note_off_c, 0, 70, 100
1, 6457, Note_on_c, 0, 71, 100
1, 6474, Note_off_c, 0, 71, 100
1, 6474, Note_on_c, 0, 70, 100
1, 6491, Note_off_c, 0, 70, 100
1, 6491, Note_on_c, 0, 68, 100
1, 6508, Note_off_c, 0, 68, 100
1, 6508, Note_on_c, 0, 70, 100
1, 6535, Note_off_c, 0, 70, 100
1, 6535, Note_on_c, 0, 68, 100
1, 6562, Note_off_c, 0, 68, 100
1, 6562, Note_on_c, 0, 63, 100
1, 6589, Note_off_c, 0, 63, 100
1, 6589, Note_on_c, 0, 65, 100
1, 6616, Note_off_c, 0, 65, 100
1, 6616, Note_on_c, 0, 64, 100
1, 6643, Note_off_c, 0, 64, 100
1, 6643, Note_on_c, 0, 65, 100
1, 6670, Note_off_c, 0, 65, 100
1, 6670, Note_on_c, 0, 63, 100
1, 6697, Note_off_c, 0, 63, 100
1, 6697, Note_on_c, 0, 63, 100
1, 6793, Note_off_c, 0, 63, 100
1, 6793, Note_on_c, 0, 61, 100
1, 6841, Note_off_c, 0, 61, 100
1, 6841, Note_on_c, 0, 58, 100
1, 6937, Note_off_c, 0, 58, 100
1, 6937, Note_on_c, 0, 56, 100
1, 6985, Note_off_c, 0, 56, 100
1, 6985, Note_on_c, 0, 53, 100
1, 7081, Note_off_c, 0, 53, 100
1, 7273, Note_on_c, 0, 53, 100
1, 7321, Note_off_c, 0, 53, 100
1, 7321, Note_on_c, 0, 52, 100
1, 7369, Note_off_c, 0, 52, 100
1, 7369, Note_on_c, 0, 51, 100
1, 7721, Note_off_c, 0, 51, 100
1, 7721, Note_on_c, 0, 49, 100
1, 7849, Note_off_c, 0, 49, 100
1, 7849, Note_on_c, 0, 50, 100
1, 8041, Note_off_c, 0, 50, 100
1, 9461, Note_on_c, 0, 55, 100
1, 9499, Note_off_c, 0, 55, 100
1, 9499, Note_on_c, 0, 58, 100
1, 9537, Note_off_c, 0, 58, 100
1, 9537, Note_on_c, 0, 60, 100
1, 9592, Note_off_c, 0, 60, 100
1, 9592, Note_on_c, 0, 61, 100
1, 9626, Note_off_c, 0, 61, 100
1, 9626, Note_on_c, 0, 58, 100
1, 9678, Note_off_c, 0, 58, 100
1, 9678, Note_on_c, 0, 60, 100
1, 9712, Note_off_c, 0, 60, 100
1, 9712, Note_on_c, 0, 61, 100
1, 9729, Note_off_c, 0, 61, 100
1, 9729, Note_on_c, 0, 62, 100
1, 9746, Note_off_c, 0, 62, 100
1, 9746, Note_on_c, 0, 64, 100
1, 9763, Note_off_c, 0, 64, 100
1, 9763, Note_on_c, 0, 65, 100
1, 9795, Note_off_c, 0, 65, 100
1, 9795, Note_on_c, 0, 61, 100
1, 9827, Note_off_c, 0, 61, 100
1, 9827, Note_on_c, 0, 63, 100
1, 9859, Note_off_c, 0, 63, 100
1, 9859, Note_on_c, 0, 61, 100
1, 9891, Note_off_c, 0, 61, 100
1, 9891, Note_on_c, 0, 58, 100
1, 9923, Note_off_c, 0, 58, 100
1, 9923, Note_on_c, 0, 56, 100
1, 9955, Note_off_c, 0, 56, 100
1, 9955, Note_on_c, 0, 58, 100
1, 9993, Note_off_c, 0, 58, 100
1, 9993, Note_on_c, 0, 56, 100
1, 10031, Note_off_c, 0, 56, 100
1, 10031, Note_on_c, 0, 53, 100
1, 10069, Note_off_c, 0, 53, 100
1, 10069, Note_on_c, 0, 52, 100
1, 10107, Note_off_c, 0, 52, 100
1, 10107, Note_on_c, 0, 50, 100
1, 10145, Note_off_c, 0, 50, 100
1, 10145, Note_on_c, 0, 51, 100
1, 10241, Note_off_c, 0, 51, 100
1, 10241, Note_on_c, 0, 51, 100
1, 10433, Note_off_c, 0, 51, 100
1, 10913, Note_on_c, 0, 66, 100
1, 10945, Note_off_c, 0, 66, 100
1, 10945, Note_on_c, 0, 65, 100
1, 10977, Note_off_c, 0, 65, 100
1, 10977, Note_on_c, 0, 66, 100
1, 11009, Note_off_c, 0, 66, 100
1, 11009, Note_on_c, 0, 67, 100
1, 11041, Note_off_c, 0, 67, 100
1, 11041, Note_on_c, 0, 68, 100
1, 11361, Note_off_c, 0, 68, 100
1, 11361, Note_on_c, 0, 62, 100
1, 11393, Note_off_c, 0, 62, 100
1, 11393, Note_on_c, 0, 64, 100
1, 11425, Note_off_c, 0, 64, 100
1, 11425, Note_on_c, 0, 63, 100
1, 11457, Note_off_c, 0, 63, 100
1, 11457, Note_on_c, 0, 61, 100
1, 11489, Note_off_c, 0, 61, 100
1, 11489, Note_on_c, 0, 63, 100
1, 11537, Note_off_c, 0, 63, 100
1, 11537, Note_on_c, 0, 65, 100
1, 11585, Note_off_c, 0, 65, 100
1, 11585, Note_on_c, 0, 61, 100
1, 11609, Note_off_c, 0, 61, 100
1, 11609, Note_on_c, 0, 62, 100
1, 11633, Note_off_c, 0, 62, 100
1, 11633, Note_on_c, 0, 61, 100
1, 11657, Note_off_c, 0, 61, 100
1, 11657, Note_on_c, 0, 62, 100
1, 11719, Note_off_c, 0, 62, 100
1, 11719, Note_on_c, 0, 60, 100
1, 11795, Note_off_c, 0, 60, 100
1, 11795, Note_on_c, 0, 60, 100
1, 11833, Note_off_c, 0, 60, 100
1, 11833, Note_on_c, 0, 58, 100
1, 11929, Note_off_c, 0, 58, 100
1, 12279, Note_on_c, 0, 75, 100
1, 12303, Note_off_c, 0, 75, 100
1, 12303, Note_on_c, 0, 70, 100
1, 12327, Note_off_c, 0, 70, 100
1, 12327, Note_on_c, 0, 71, 100
1, 12351, Note_off_c, 0, 71, 100
1, 12351, Note_on_c, 0, 70, 100
1, 12375, Note_off_c, 0, 70, 100
1, 12375, Note_on_c, 0, 71, 100
1, 12423, Note_off_c, 0, 71, 100
1, 12423, Note_on_c, 0, 68, 100
1, 12447, Note_off_c, 0, 68, 100
1, 12447, Note_on_c, 0, 70, 100
1, 12495, Note_off_c, 0, 70, 100
1, 12495, Note_on_c, 0, 70, 100
1, 12543, Note_off_c, 0, 70, 100
1, 12543, Note_on_c, 0, 70, 100
1, 12639, Note_off_c, 0, 70, 100
1, 12639, Note_on_c, 0, 68, 100
1, 12677, Note_off_c, 0, 68, 100
1, 12677, Note_on_c, 0, 66, 100
1, 12715, Note_off_c, 0, 66, 100
1, 12715, Note_on_c, 0, 67, 100
1, 12753, Note_off_c, 0, 67, 100
1, 12753, Note_on_c, 0, 70, 100
1, 12791, Note_off_c, 0, 70, 100
1, 12791, Note_on_c, 0, 60, 100
1, 12829, Note_off_c, 0, 60, 100
1, 12829, Note_on_c, 0, 63, 100
1, 12925, Note_off_c, 0, 63, 100
1, 12925, Note_on_c, 0, 63, 100
1, 13141, Note_off_c, 0, 63, 100
1, 13141, Note_on_c, 0, 63, 100
1, 13165, Note_off_c, 0, 63, 100
1, 13165, Note_on_c, 0, 63, 100
1, 13189, Note_off_c, 0, 63, 100
1, 13189, Note_on_c, 0, 67, 100
1, 13213, Note_off_c, 0, 67, 100
1, 13213, Note_on_c, 0, 66, 100
1, 13237, Note_off_c, 0, 66, 100
1, 13237, Note_on_c, 0, 67, 100
1, 13261, Note_off_c, 0, 67, 100
1, 13261, Note_on_c, 0, 70, 100
1, 13309, Note_off_c, 0, 70, 100
1, 13309, Note_on_c, 0, 72, 100
1, 13357, Note_off_c, 0, 72, 100
1, 13357, Note_on_c, 0, 71, 100
1, 13381, Note_off_c, 0, 71, 100
1, 13381, Note_on_c, 0, 73, 100
1, 13405, Note_off_c, 0, 73, 100
1, 13405, Note_on_c, 0, 70, 100
1, 13429, Note_off_c, 0, 70, 100
1, 13429, Note_on_c, 0, 65, 100
1, 13453, Note_off_c, 0, 65, 100
1, 13453, Note_on_c, 0, 64, 100
1, 13477, Note_off_c, 0, 64, 100
1, 13477, Note_on_c, 0, 63, 100
1, 13525, Note_off_c, 0, 63, 100
1, 13525, Note_on_c, 0, 63, 100
1, 13645, Note_off_c, 0, 63, 100
1, 13645, Note_on_c, 0, 61, 100
1, 13669, Note_off_c, 0, 61, 100
1, 13669, Note_on_c, 0, 63, 100
1, 13693, Note_off_c, 0, 63, 100
1, 13693, Note_on_c, 0, 61, 100
1, 13717, Note_off_c, 0, 61, 100
1, 13717, Note_on_c, 0, 58, 100
1, 13765, Note_off_c, 0, 58, 100
1, 13765, Note_on_c, 0, 56, 100
1, 13789, Note_off_c, 0, 56, 100
1, 13789, Note_on_c, 0, 58, 100
1, 13981, Note_off_c, 0, 58, 100
1, 13981, Note_on_c, 0, 61, 100
1, 14019, Note_off_c, 0, 61, 100
1, 14019, Note_on_c, 0, 62, 100
1, 14057, Note_off_c, 0, 62, 100
1, 14057, Note_on_c, 0, 65, 100
1, 14095, Note_off_c, 0, 65, 100
1, 14095, Note_on_c, 0, 67, 100
1, 14133, Note_off_c, 0, 67, 100
1, 14133, Note_on_c, 0, 65, 100
1, 14651, Note_off_c, 0, 65, 100
1, 14651, Note_on_c, 0, 66, 100
1, 14683, Note_off_c, 0, 66, 100
1, 14683, Note_on_c, 0, 67, 100
1, 14715, Note_off_c, 0, 67, 100
1, 14715, Note_on_c, 0, 65, 100
1, 14747, Note_off_c, 0, 65, 100
1, 14747, Note_on_c, 0, 63, 100
1, 14795, Note_off_c, 0, 63, 100
1, 14795, Note_on_c, 0, 65, 100
1, 14843, Note_off_c, 0, 65, 100
1, 14843, Note_on_c, 0, 62, 100
1, 15227, Note_off_c, 0, 62, 100
1, 15611, Note_on_c, 0, 58, 100
1, 15707, Note_off_c, 0, 58, 100
1, 15707, Note_on_c, 0, 63, 100
1, 15731, Note_off_c, 0, 63, 100
1, 15731, Note_on_c, 0, 64, 100
1, 15755, Note_off_c, 0, 64, 100
1, 15755, Note_on_c, 0, 61, 100
1, 15779, Note_off_c, 0, 61, 100
1, 15779, Note_on_c, 0, 63, 100
1, 15827, Note_off_c, 0, 63, 100
1, 15827, Note_on_c, 0, 61, 100
1, 15875, Note_off_c, 0, 61, 100
1, 15875, Note_on_c, 0, 56, 100
1, 15947, Note_off_c, 0, 56, 100
1, 15947, Note_on_c, 0, 58, 100
1, 15995, Note_off_c, 0, 58, 100
1, 15995, Note_on_c, 0, 56, 100
1, 16283, Note_off_c, 0, 56, 100
1, 16283, Note_on_c, 0, 54, 100
1, 16300, Note_off_c, 0, 54, 100
1, 16300, Note_on_c, 0, 55, 100
1, 16334, Note_off_c, 0, 55, 100
1, 16334, Note_on_c, 0, 58, 100
1, 16386, Note_off_c, 0, 58, 100
1, 16386, Note_on_c, 0, 60, 100
1, 16420, Note_off_c, 0, 60, 100
1, 16420, Note_on_c, 0, 60, 100
1, 16437, Note_off_c, 0, 60, 100
1, 16437, Note_on_c, 0, 61, 100
1, 16454, Note_off_c, 0, 61, 100
1, 16454, Note_on_c, 0, 58, 100
1, 16519, Note_off_c, 0, 58, 100
1, 16519, Note_on_c, 0, 56, 100
1, 16567, Note_off_c, 0, 56, 100
1, 16567, Note_on_c, 0, 53, 100
1, 16615, Note_off_c, 0, 53, 100
1, 16615, Note_on_c, 0, 52, 100
1, 16663, Note_off_c, 0, 52, 100
1, 16663, Note_on_c, 0, 51, 100
1, 16951, Note_off_c, 0, 51, 100
1, 16951, Note_on_c, 0, 53, 100
1, 16999, Note_off_c, 0, 53, 100
1, 16999, Note_on_c, 0, 49, 100
1, 17047, Note_off_c, 0, 49, 100
1, 17047, Note_on_c, 0, 50, 100
1, 17239, Note_off_c, 0, 50, 100
1, 18727, Note_on_c, 0, 72, 100
1, 18775, Note_off_c, 0, 72, 100
1, 18775, Note_on_c, 0, 70, 100
1, 18799, Note_off_c, 0, 70, 100
1, 18799, Note_on_c, 0, 72, 100
1, 18847, Note_off_c, 0, 72, 100
1, 18847, Note_on_c, 0, 70, 100
1, 18871, Note_off_c, 0, 70, 100
1, 18871, Note_on_c, 0, 68, 100
1, 18919, Note_off_c, 0, 68, 100
1, 18919, Note_on_c, 0, 65, 100
1, 18943, Note_off_c, 0, 65, 100
1, 18943, Note_on_c, 0, 68, 100
1, 18967, Note_off_c, 0, 68, 100
1, 18967, Note_on_c, 0, 65, 100
1, 18999, Note_off_c, 0, 65, 100
1, 18999, Note_on_c, 0, 63, 100
1, 19015, Note_off_c, 0, 63, 100
1, 19015, Note_on_c, 0, 65, 100
1, 19031, Note_off_c, 0, 65, 100
1, 19031, Note_on_c, 0, 63, 100
1, 19047, Note_off_c, 0, 63, 100
1, 19047, Note_on_c, 0, 60, 100
1, 19079, Note_off_c, 0, 60, 100
1, 19079, Note_on_c, 0, 63, 100
1, 19127, Note_off_c, 0, 63, 100
1, 19127, Note_on_c, 0, 61, 100
1, 19143, Note_off_c, 0, 61, 100
1, 19143, Note_on_c, 0, 63, 100
1, 19159, Note_off_c, 0, 63, 100
1, 19159, Note_on_c, 0, 61, 100
1, 19176, Note_off_c, 0, 61, 100
1, 19176, Note_on_c, 0, 58, 100
1, 19210, Note_off_c, 0, 58, 100
1, 19210, Note_on_c, 0, 60, 100
1, 19227, Note_off_c, 0, 60, 100
1, 19227, Note_on_c, 0, 62, 100
1, 19244, Note_off_c, 0, 62, 100
1, 19244, Note_on_c, 0, 61, 100
1, 19261, Note_off_c, 0, 61, 100
1, 19261, Note_on_c, 0, 58, 100
1, 19295, Note_off_c, 0, 58, 100
1, 19295, Note_on_c, 0, 56, 100
1, 19329, Note_off_c, 0, 56, 100
1, 19329, Note_on_c, 0, 53, 100
1, 19346, Note_off_c, 0, 53, 100
1, 19346, Note_on_c, 0, 52, 100
1, 19378, Note_off_c, 0, 52, 100
1, 19378, Note_on_c, 0, 53, 100
1, 19410, Note_off_c, 0, 53, 100
1, 19410, Note_on_c, 0, 49, 100
1, 19442, Note_off_c, 0, 49, 100
1, 19442, Note_on_c, 0, 50, 100
1, 19474, Note_off_c, 0, 50, 100
1, 19474, Note_on_c, 0, 46, 100
1, 19538, Note_off_c, 0, 46, 100
1, 19538, Note_on_c, 0, 44, 100
1, 19586, Note_off_c, 0, 44, 100
1, 19586, Note_on_c, 0, 51, 100
1, 19634, Note_off_c, 0, 51, 100
1, 19634, Note_on_c, 0, 60, 100
1, 19682, Note_off_c, 0, 60, 100
1, 19682, Note_on_c, 0, 55, 100
1, 19954, Note_off_c, 0, 55, 100
1, 19954, Note_on_c, 0, 44, 100
1, 19986, Note_off_c, 0, 44, 100
1, 19986, Note_on_c, 0, 50, 100
1, 20018, Note_off_c, 0, 50, 100
1, 20018, Note_on_c, 0, 53, 100
1, 20050, Note_off_c, 0, 53, 100
1, 20050, Note_on_c, 0, 60, 100
1, 20082, Note_off_c, 0, 60, 100
1, 20082, Note_on_c, 0, 55, 100
1, 20114, Note_off_c, 0, 55, 100
1, 20114, Note_on_c, 0, 55, 100
1, 20141, Note_off_c, 0, 55, 100
1, 20141, Note_on_c, 0, 56, 100
1, 20168, Note_off_c, 0, 56, 100
1, 20168, Note_on_c, 0, 60, 100
1, 20195, Note_off_c, 0, 60, 100
1, 20195, Note_on_c, 0, 63, 100
1, 20222, Note_off_c, 0, 63, 100
1, 20222, Note_on_c, 0, 65, 100
1, 20249, Note_off_c, 0, 65, 100
1, 20249, Note_on_c, 0, 66, 100
1, 20276, Note_off_c, 0, 66, 100
1, 20276, Note_on_c, 0, 67, 100
1, 20303, Note_off_c, 0, 67, 100
1, 20303, Note_on_c, 0, 65, 100
1, 20324, Note_off_c, 0, 65, 100
1, 20324, Note_on_c, 0, 63, 100
1, 20345, Note_off_c, 0, 63, 100
1, 20345, Note_on_c, 0, 62, 100
1, 20387, Note_off_c, 0, 62, 100
1, 20387, Note_on_c, 0, 65, 100
1, 20429, Note_off_c, 0, 65, 100
1, 20429, Note_on_c, 0, 72, 100
1, 20471, Note_off_c, 0, 72, 100
1, 20471, Note_on_c, 0, 67, 100
1, 20492, Note_off_c, 0, 67, 100
1, 20492, Note_on_c, 0, 70, 100
1, 20540, Note_off_c, 0, 70, 100
1, 20540, Note_on_c, 0, 74, 100
1, 20588, Note_off_c, 0, 74, 100
1, 20588, Note_on_c, 0, 75, 100
1, 20636, Note_off_c, 0, 75, 100
1, 20636, Note_on_c, 0, 74, 100
1, 20732, Note_off_c, 0, 74, 100
1, 20732, Note_on_c, 0, 67, 100
1, 20756, Note_off_c, 0, 67, 100
1, 20756, Note_on_c, 0, 67, 100
1, 20780, Note_off_c, 0, 67, 100
1, 20780, Note_on_c, 0, 68, 100
1, 20804, Note_off_c, 0, 68, 100
1, 20804, Note_on_c, 0, 70, 100
1, 20828, Note_off_c, 0, 70, 100
1, 20828, Note_on_c, 0, 71, 100
1, 20876, Note_off_c, 0, 71, 100
1, 20876, Note_on_c, 0, 74, 100
1, 20924, Note_off_c, 0, 74, 100
1, 20924, Note_on_c, 0, 73, 100
1, 20972, Note_off_c, 0, 73, 100
1, 20972, Note_on_c, 0, 74, 100
1, 21085, Note_off_c, 0, 74, 100
1, 21085, Note_on_c, 0, 72, 100
1, 21102, Note_off_c, 0, 72, 100
1, 21102, Note_on_c, 0, 71, 100
1, 21119, Note_off_c, 0, 71, 100
1, 21119, Note_on_c, 0, 68, 100
1, 21153, Note_off_c, 0, 68, 100
1, 21153, Note_on_c, 0, 67, 100
1, 21170, Note_off_c, 0, 67, 100
1, 21170, Note_on_c, 0, 65, 100
1, 21187, Note_off_c, 0, 65, 100
1, 21187, Note_on_c, 0, 64, 100
1, 21204, Note_off_c, 0, 64, 100
1, 21204, Note_on_c, 0, 63, 100
1, 21221, Note_off_c, 0, 63, 100
1, 21221, Note_on_c, 0, 62, 100
1, 21238, Note_off_c, 0, 62, 100
1, 21238, Note_on_c, 0, 61, 100
1, 21255, Note_off_c, 0, 61, 100
1, 21255, Note_on_c, 0, 58, 100
1, 21303, Note_off_c, 0, 58, 100
1, 21303, Note_on_c, 0, 58, 100
1, 21351, Note_off_c, 0, 58, 100
1, 21351, Note_on_c, 0, 57, 100
1, 21399, Note_off_c, 0, 57, 100
1, 21399, Note_on_c, 0, 53, 100
1, 21447, Note_off_c, 0, 53, 100
1, 21447, Note_on_c, 0, 56, 100
1, 21485, Note_off_c, 0, 56, 100
1, 21485, Note_on_c, 0, 58, 100
1, 21523, Note_off_c, 0, 58, 100
1, 21523, Note_on_c, 0, 56, 100
1, 21561, Note_off_c, 0, 56, 100
1, 21561, Note_on_c, 0, 60, 100
1, 21599, Note_off_c, 0, 60, 100
1, 21599, Note_on_c, 0, 61, 100
1, 21637, Note_off_c, 0, 61, 100
1, 21637, Note_on_c, 0, 63, 100
1, 21685, Note_off_c, 0, 63, 100
1, 21685, Note_on_c, 0, 65, 100
1, 21733, Note_off_c, 0, 65, 100
1, 21733, Note_on_c, 0, 65, 100
1, 21893, Note_off_c, 0, 65, 100
1, 21893, Note_on_c, 0, 63, 100
1, 21914, Note_off_c, 0, 63, 100
1, 21914, Note_on_c, 0, 64, 100
1, 21935, Note_off_c, 0, 64, 100
1, 21935, Note_on_c, 0, 63, 100
1, 21956, Note_off_c, 0, 63, 100
1, 21956, Note_on_c, 0, 61, 100
1, 21977, Note_off_c, 0, 61, 100
1, 21977, Note_on_c, 0, 60, 100
1, 21998, Note_off_c, 0, 60, 100
1, 21998, Note_on_c, 0, 63, 100
1, 22046, Note_off_c, 0, 63, 100
1, 22046, Note_on_c, 0, 61, 100
1, 22073, Note_off_c, 0, 61, 100
1, 22073, Note_on_c, 0, 58, 100
1, 22127, Note_off_c, 0, 58, 100
1, 22127, Note_on_c, 0, 60, 100
1, 22154, Note_off_c, 0, 60, 100
1, 22154, Note_on_c, 0, 61, 100
1, 22181, Note_off_c, 0, 61, 100
1, 22181, Note_on_c, 0, 58, 100
1, 22448, Note_off_c, 0, 58, 100
1, 22448, Note_on_c, 0, 76, 100
1, 22472, Note_off_c, 0, 76, 100
1, 22472, Note_on_c, 0, 77, 100
1, 22496, Note_off_c, 0, 77, 100
1, 22496, Note_on_c, 0, 78, 100
1, 22520, Note_off_c, 0, 78, 100
1, 22520, Note_on_c, 0, 80, 100
1, 22609, Note_off_c, 0, 80, 100
1, 22609, Note_on_c, 0, 73, 100
1, 22617, Note_off_c, 0, 73, 100
1, 22617, Note_on_c, 0, 75, 100
1, 22625, Note_off_c, 0, 75, 100
1, 22625, Note_on_c, 0, 76, 100
1, 22633, Note_off_c, 0, 76, 100
1, 22633, Note_on_c, 0, 77, 100
1, 22667, Note_off_c, 0, 77, 100
1, 22667, Note_on_c, 0, 76, 100
1, 22675, Note_off_c, 0, 76, 100
1, 22675, Note_on_c, 0, 75, 100
1, 22709, Note_off_c, 0, 75, 100
1, 22709, Note_on_c, 0, 73, 100
1, 22726, Note_off_c, 0, 73, 100
1, 22726, Note_on_c, 0, 75, 100
1, 22769, Note_off_c, 0, 75, 100
1, 22769, Note_on_c, 0, 71, 100
1, 22777, Note_off_c, 0, 71, 100
1, 22777, Note_on_c, 0, 73, 100
1, 22825, Note_off_c, 0, 73, 100
1, 22825, Note_on_c, 0, 70, 100
1, 22873, Note_off_c, 0, 70, 100
1, 22873, Note_on_c, 0, 69, 100
1, 22921, Note_off_c, 0, 69, 100
1, 22921, Note_on_c, 0, 68, 100
1, 23023, Note_off_c, 0, 68, 100
1, 23023, Note_on_c, 0, 61, 100
1, 23050, Note_off_c, 0, 61, 100
1, 23050, Note_on_c, 0, 62, 100
1, 23077, Note_off_c, 0, 62, 100
1, 23077, Note_on_c, 0, 65, 100
1, 23104, Note_off_c, 0, 65, 100
1, 23104, Note_on_c, 0, 67, 100
1, 23131, Note_off_c, 0, 67, 100
1, 23131, Note_on_c, 0, 70, 100
1, 23158, Note_off_c, 0, 70, 100
1, 23158, Note_on_c, 0, 67, 100
1, 23172, Note_off_c, 0, 67, 100
1, 23172, Note_on_c, 0, 70, 100
1, 23201, Note_off_c, 0, 70, 100
1, 23201, Note_on_c, 0, 74, 100
1, 23245, Note_off_c, 0, 74, 100
1, 23245, Note_on_c, 0, 67, 100
1, 23274, Note_off_c, 0, 67, 100
1, 23274, Note_on_c, 0, 72, 100
1, 23303, Note_off_c, 0, 72, 100
1, 23303, Note_on_c, 0, 72, 100
1, 23332, Note_off_c, 0, 72, 100
1, 23332, Note_on_c, 0, 70, 100
1, 23346, Note_off_c, 0, 70, 100
1, 23346, Note_on_c, 0, 68, 100
1, 23378, Note_off_c, 0, 68, 100
1, 23378, Note_on_c, 0, 63, 100
1, 23410, Note_off_c, 0, 63, 100
1, 23410, Note_on_c, 0, 60, 100
1, 23442, Note_off_c, 0, 60, 100
1, 23442, Note_on_c, 0, 63, 100
1, 23474, Note_off_c, 0, 63, 100
1, 23474, Note_on_c, 0, 67, 100
1, 23506, Note_off_c, 0, 67, 100
1, 23506, Note_on_c, 0, 65, 100
1, 23538, Note_off_c, 0, 65, 100
1, 23538, Note_on_c, 0, 63, 100
1, 23730, Note_off_c, 0, 63, 100
1, 23730, Note_on_c, 0, 61, 100
1, 23754, Note_off_c, 0, 61, 100
1, 23754, Note_on_c, 0, 63, 100
1, 23778, Note_off_c, 0, 63, 100
1, 23778, Note_on_c, 0, 67, 100
1, 23802, Note_off_c, 0, 67, 100
1, 23802, Note_on_c, 0, 71, 100
1, 23826, Note_off_c, 0, 71, 100
1, 23826, Note_on_c, 0, 75, 100
1, 24018, Note_off_c, 0, 75, 100
1, 24018, Note_on_c, 0, 74, 100
1, 24162, Note_off_c, 0, 74, 100
1, 24162, Note_on_c, 0, 74, 100
1, 24186, Note_off_c, 0, 74, 100
1, 24186, Note_on_c, 0, 75, 100
1, 24210, Note_off_c, 0, 75, 100
1, 24210, Note_on_c, 0, 76, 100
1, 24234, Note_off_c, 0, 76, 100
1, 24234, Note_on_c, 0, 77, 100
1, 24282, Note_off_c, 0, 77, 100
1, 24282, Note_on_c, 0, 67, 100
1, 24306, Note_off_c, 0, 67, 100
1, 24306, Note_on_c, 0, 75, 100
1, 24338, Note_off_c, 0, 75, 100
1, 24338, Note_on_c, 0, 63, 100
1, 24354, Note_off_c, 0, 63, 100
1, 24354, Note_on_c, 0, 66, 100
1, 24370, Note_off_c, 0, 66, 100
1, 24370, Note_on_c, 0, 70, 100
1, 24386, Note_off_c, 0, 70, 100
1, 24386, Note_on_c, 0, 71, 100
1, 24482, Note_off_c, 0, 71, 100
1, 24482, Note_on_c, 0, 67, 100
1, 24498, Note_off_c, 0, 67, 100
1, 24498, Note_on_c, 0, 68, 100
1, 24515, Note_off_c, 0, 68, 100
1, 24515, Note_on_c, 0, 71, 100
1, 24532, Note_off_c, 0, 71, 100
1, 24532, Note_on_c, 0, 74, 100
1, 24549, Note_off_c, 0, 74, 100
1, 24549, Note_on_c, 0, 72, 100
1, 24566, Note_off_c, 0, 72, 100
1, 24566, Note_on_c, 0, 71, 100
1, 24583, Note_off_c, 0, 71, 100
1, 24583, Note_on_c, 0, 68, 100
1, 24600, Note_off_c, 0, 68, 100
1, 24600, Note_on_c, 0, 67, 100
1, 24617, Note_off_c, 0, 67, 100
1, 24617, Note_on_c, 0, 66, 100
1, 24634, Note_off_c, 0, 66, 100
1, 24634, Note_on_c, 0, 64, 100
1, 24651, Note_off_c, 0, 64, 100
1, 24651, Note_on_c, 0, 63, 100
1, 24668, Note_off_c, 0, 63, 100
1, 24668, Note_on_c, 0, 62, 100
1, 24685, Note_off_c, 0, 62, 100
1, 24685, Note_on_c, 0, 60, 100
1, 24737, Note_off_c, 0, 60, 100
1, 24737, Note_on_c, 0, 62, 100
1, 24771, Note_off_c, 0, 62, 100
1, 24771, Note_on_c, 0, 65, 100
1, 24823, Note_off_c, 0, 65, 100
1, 24823, Note_on_c, 0, 62, 100
1, 24840, Note_off_c, 0, 62, 100
1, 24840, Note_on_c, 0, 63, 100
1, 24857, Note_off_c, 0, 63, 100
1, 24857, Note_on_c, 0, 62, 100
1, 24912, Note_off_c, 0, 62, 100
1, 24912, Note_on_c, 0, 60, 100
1, 24950, Note_off_c, 0, 60, 100
1, 24950, Note_on_c, 0, 62, 100
1, 24988, Note_off_c, 0, 62, 100
1, 24988, Note_on_c, 0, 58, 100
1, 25026, Note_off_c, 0, 58, 100
1, 25026, Note_on_c, 0, 55, 100
1, 25064, Note_off_c, 0, 55, 100
1, 25064, Note_on_c, 0, 56, 100
1, 25091, Note_off_c, 0, 56, 100
1, 25091, Note_on_c, 0, 58, 100
1, 25118, Note_off_c, 0, 58, 100
1, 25118, Note_on_c, 0, 55, 100
1, 25145, Note_off_c, 0, 55, 100
1, 25145, Note_on_c, 0, 58, 100
1, 25172, Note_off_c, 0, 58, 100
1, 25172, Note_on_c, 0, 51, 100
1, 25226, Note_off_c, 0, 51, 100
1, 25226, Note_on_c, 0, 53, 100
1, 25253, Note_off_c, 0, 53, 100
1, 25253, Note_on_c, 0, 54, 100
1, 25301, Note_off_c, 0, 54, 100
1, 25301, Note_on_c, 0, 55, 100
1, 25349, Note_off_c, 0, 55, 100
1, 25349, Note_on_c, 0, 50, 100
1, 25397, Note_off_c, 0, 50, 100
1, 25397, Note_on_c, 0, 53, 100
1, 25589, Note_off_c, 0, 53, 100
1, 25589, Note_on_c, 0, 53, 100
1, 25637, Note_off_c, 0, 53, 100
1, 25637, Note_on_c, 0, 56, 100
1, 25675, Note_off_c, 0, 56, 100
1, 25675, Note_on_c, 0, 58, 100
1, 25713, Note_off_c, 0, 58, 100
1, 25713, Note_on_c, 0, 60, 100
1, 25751, Note_off_c, 0, 60, 100
1, 25751, Note_on_c, 0, 63, 100
1, 25789, Note_off_c, 0, 63, 100
1, 25789, Note_on_c, 0, 65, 100
1, 25844, Note_off_c, 0, 65, 100
1, 25844, Note_on_c, 0, 66, 100
1, 25861, Note_off_c, 0, 66, 100
1, 25861, Note_on_c, 0, 67, 100
1, 25878, Note_off_c, 0, 67, 100
1, 25878, Note_on_c, 0, 63, 100
1, 25912, Note_off_c, 0, 63, 100
1, 25912, Note_on_c, 0, 60, 100
1, 25964, Note_off_c, 0, 60, 100
1, 25964, Note_on_c, 0, 67, 100
1, 25998, Note_off_c, 0, 67, 100
1, 25998, Note_on_c, 0, 62, 100
1, 26015, Note_off_c, 0, 62, 100
1, 26015, Note_on_c, 0, 65, 100
1, 26053, Note_off_c, 0, 65, 100
1, 26053, Note_on_c, 0, 61, 100
1, 26091, Note_off_c, 0, 61, 100
1, 26091, Note_on_c, 0, 65, 100
1, 26129, Note_off_c, 0, 65, 100
1, 26129, Note_on_c, 0, 60, 100
1, 26167, Note_off_c, 0, 60, 100
1, 26167, Note_on_c, 0, 64, 100
1, 26205, Note_off_c, 0, 64, 100
1, 26205, Note_on_c, 0, 58, 100
1, 26232, Note_off_c, 0, 58, 100
1, 26232, Note_on_c, 0, 63, 100
1, 26259, Note_off_c, 0, 63, 100
1, 26259, Note_on_c, 0, 58, 100
1, 26286, Note_off_c, 0, 58, 100
1, 26286, Note_on_c, 0, 62, 100
1, 26313, Note_off_c, 0, 62, 100
1, 26313, Note_on_c, 0, 58, 100
1, 26340, Note_off_c, 0, 58, 100
1, 26340, Note_on_c, 0, 61, 100
1, 26367, Note_off_c, 0, 61, 100
1, 26367, Note_on_c, 0, 58, 100
1, 26394, Note_off_c, 0, 58, 100
1, 26394, Note_on_c, 0, 59, 100
1, 26448, Note_off_c, 0, 59, 100
1, 26448, Note_on_c, 0, 58, 100
1, 26475, Note_off_c, 0, 58, 100
1, 26475, Note_on_c, 0, 53, 100
1, 26502, Note_off_c, 0, 53, 100
1, 26502, Note_on_c, 0, 57, 100
1, 26529, Note_off_c, 0, 57, 100
1, 26529, Note_on_c, 0, 54, 100
1, 26556, Note_off_c, 0, 54, 100
1, 26556, Note_on_c, 0, 56, 100
1, 26583, Note_off_c, 0, 56, 100
1, 26583, Note_on_c, 0, 55, 100
1, 26640, Note_off_c, 0, 55, 100
1, 26640, Note_on_c, 0, 53, 100
1, 26659, Note_off_c, 0, 53, 100
1, 26659, Note_on_c, 0, 54, 100
1, 26678, Note_off_c, 0, 54, 100
1, 26678, Note_on_c, 0, 51, 100
1, 26697, Note_off_c, 0, 51, 100
1, 26697, Note_on_c, 0, 53, 100
1, 26735, Note_off_c, 0, 53, 100
1, 26735, Note_on_c, 0, 51, 100
1, 26754, Note_off_c, 0, 51, 100
1, 26754, Note_on_c, 0, 52, 100
1, 26825, Note_off_c, 0, 52, 100
1, 26825, Note_on_c, 0, 50, 100
1, 26842, Note_off_c, 0, 50, 100
1, 26842, Note_on_c, 0, 49, 100
1, 26911, Note_off_c, 0, 49, 100
1, 26911, Note_on_c, 0, 48, 100
1, 26928, Note_off_c, 0, 48, 100
1, 26928, Note_on_c, 0, 50, 100
1, 26945, Note_off_c, 0, 50, 100
1, 26945, Note_on_c, 0, 51, 100
1, 26962, Note_off_c, 0, 51, 100
1, 26962, Note_on_c, 0, 53, 100
1, 26973, Note_off_c, 0, 53, 100
1, 26973, Note_on_c, 0, 50, 100
1, 26984, Note_off_c, 0, 50, 100
1, 26984, Note_on_c, 0, 51, 100
1, 27006, Note_off_c, 0, 51, 100
1, 27006, Note_on_c, 0, 52, 100
1, 27017, Note_off_c, 0, 52, 100
1, 27017, Note_on_c, 0, 54, 100
1, 27028, Note_off_c, 0, 54, 100
1, 27028, Note_on_c, 0, 55, 100
1, 27039, Note_off_c, 0, 55, 100
1, 27039, Note_on_c, 0, 53, 100
1, 27061, Note_off_c, 0, 53, 100
1, 27061, Note_on_c, 0, 56, 100
1, 27083, Note_off_c, 0, 56, 100
1, 27083, Note_on_c, 0, 58, 100
1, 27105, Note_off_c, 0, 58, 100
1, 27105, Note_on_c, 0, 60, 100
1, 27116, Note_off_c, 0, 60, 100
1, 27116, Note_on_c, 0, 61, 100
1, 27138, Note_off_c, 0, 61, 100
1, 27138, Note_on_c, 0, 63, 100
1, 27149, Note_off_c, 0, 63, 100
1, 27149, Note_on_c, 0, 65, 100
1, 27176, Note_off_c, 0, 65, 100
1, 27176, Note_on_c, 0, 61, 100
1, 27203, Note_off_c, 0, 61, 100
1, 27203, Note_on_c, 0, 60, 100
1, 27230, Note_off_c, 0, 60, 100
1, 27230, Note_on_c, 0, 63, 100
1, 27257, Note_off_c, 0, 63, 100
1, 27257, Note_on_c, 0, 62, 100
1, 27311, Note_off_c, 0, 62, 100
1, 27311, Note_on_c, 0, 68, 100
1, 27338, Note_off_c, 0, 68, 100
1, 27338, Note_on_c, 0, 70, 100
1, 27362, Note_off_c, 0, 70, 100
1, 27362, Note_on_c, 0, 72, 100
1, 27410, Note_off_c, 0, 72, 100
1, 27410, Note_on_c, 0, 68, 100
1, 27434, Note_off_c, 0, 68, 100
1, 27434, Note_on_c, 0, 71, 100
1, 27458, Note_off_c, 0, 71, 100
1, 27458, Note_on_c, 0, 65, 100
1, 27482, Note_off_c, 0, 65, 100
1, 27482, Note_on_c, 0, 64, 100
1, 27506, Note_off_c, 0, 64, 100
1, 27506, Note_on_c, 0, 63, 100
1, 27530, Note_off_c, 0, 63, 100
1, 27530, Note_on_c, 0, 67, 100
1, 27626, Note_off_c, 0, 67, 100
1, 27626, Note_on_c, 0, 65, 100
1, 27798, Note_off_c, 0, 65, 100
1, 27798, Note_on_c, 0, 65, 100
1, 27836, Note_off_c, 0, 65, 100
1, 27836, Note_on_c, 0, 68, 100
1, 27874, Note_off_c, 0, 68, 100
1, 27874, Note_on_c, 0, 70, 100
1, 27960, Note_off_c, 0, 70, 100
1, 27960, Note_on_c, 0, 68, 100
1, 28008, Note_off_c, 0, 68, 100
1, 28008, Note_on_c, 0, 70, 100
1, 28530, Note_off_c, 0, 70, 100
1, 28530, Note_on_c, 0, 65, 100
1, 28551, Note_off_c, 0, 65, 100
1, 28551, Note_on_c, 0, 68, 100
1, 28593, Note_off_c, 0, 68, 100
1, 28593, Note_on_c, 0, 70, 100
1, 28635, Note_off_c, 0, 70, 100
1, 28635, Note_on_c, 0, 70, 100
1, 28656, Note_off_c, 0, 70, 100
1, 28656, Note_on_c, 0, 71, 100
1, 28677, Note_off_c, 0, 71, 100
1, 28677, Note_on_c, 0, 75, 100
1, 28719, Note_off_c, 0, 75, 100
1, 28719, Note_on_c, 0, 70, 100
1, 28740, Note_off_c, 0, 70, 100
1, 28740, Note_on_c, 0, 71, 100
1, 28761, Note_off_c, 0, 71, 100
1, 28761, Note_on_c, 0, 70, 100
1, 28782, Note_off_c, 0, 70, 100
1, 28782, Note_on_c, 0, 71, 100
1, 28803, Note_off_c, 0, 71, 100
1, 28803, Note_on_c, 0, 68, 100
1, 28845, Note_off_c, 0, 68, 100
1, 28845, Note_on_c, 0, 70, 100
1, 28866, Note_off_c, 0, 70, 100
1, 28866, Note_on_c, 0, 68, 100
1, 28900, Note_off_c, 0, 68, 100
1, 28900, Note_on_c, 0, 63, 100
1, 28917, Note_off_c, 0, 63, 100
1, 28917, Note_on_c, 0, 64, 100
1, 28934, Note_off_c, 0, 64, 100
1, 28934, Note_on_c, 0, 65, 100
1, 28951, Note_off_c, 0, 65, 100
1, 28951, Note_on_c, 0, 63, 100
1, 28985, Note_off_c, 0, 63, 100
1, 28985, Note_on_c, 0, 61, 100
1, 29002, Note_off_c, 0, 61, 100
1, 29002, Note_on_c, 0, 63, 100
1, 29036, Note_off_c, 0, 63, 100
1, 29036, Note_on_c, 0, 61, 100
1, 29245, Note_off_c, 0, 61, 100
1, 29245, Note_on_c, 0, 46, 100
1, 29293, Note_off_c, 0, 46, 100
1, 29293, Note_on_c, 0, 58, 100
1, 29341, Note_off_c, 0, 58, 100
1, 29341, Note_on_c, 0, 59, 100
1, 29389, Note_off_c, 0, 59, 100
1, 29389, Note_on_c, 0, 60, 100
1, 29533, Note_off_c, 0, 60, 100
1, 29533, Note_on_c, 0, 47, 100
1, 29581, Note_off_c, 0, 47, 100
1, 29581, Note_on_c, 0, 56, 100
1, 29629, Note_off_c, 0, 56, 100
1, 29629, Note_on_c, 0, 58, 100
1, 29667, Note_off_c, 0, 58, 100
1, 29667, Note_on_c, 0, 56, 100
1, 29705, Note_off_c, 0, 56, 100
1, 29705, Note_on_c, 0, 58, 100
1, 29743, Note_off_c, 0, 58, 100
1, 29743, Note_on_c, 0, 60, 100
1, 29781, Note_off_c, 0, 60, 100
1, 29781, Note_on_c, 0, 61, 100
1, 29819, Note_off_c, 0, 61, 100
1, 29819, Note_on_c, 0, 58, 100
1, 29843, Note_off_c, 0, 58, 100
1, 29843, Note_on_c, 0, 63, 100
1, 29867, Note_off_c, 0, 63, 100
1, 29867, Note_on_c, 0, 59, 100
1, 29891, Note_off_c, 0, 59, 100
1, 29891, Note_on_c, 0, 64, 100
1, 29939, Note_off_c, 0, 64, 100
1, 29939, Note_on_c, 0, 60, 100
1, 29963, Note_off_c, 0, 60, 100
1, 29963, Note_on_c, 0, 65, 100
1, 30011, Note_off_c, 0, 65, 100
1, 30011, Note_on_c, 0, 60, 100
1, 30035, Note_off_c, 0, 60, 100
1, 30035, Note_on_c, 0, 67, 100
1, 30059, Note_off_c, 0, 67, 100
1, 30059, Note_on_c, 0, 68, 100
1, 30083, Note_off_c, 0, 68, 100
1, 30083, Note_on_c, 0, 67, 100
1, 30107, Note_off_c, 0, 67, 100
1, 30107, Note_on_c, 0, 60, 100
1, 30131, Note_off_c, 0, 60, 100
1, 30131, Note_on_c, 0, 70, 100
1, 30155, Note_off_c, 0, 70, 100
1, 30155, Note_on_c, 0, 67, 100
1, 30179, Note_off_c, 0, 67, 100
1, 30179, Note_on_c, 0, 71, 100
1, 30203, Note_off_c, 0, 71, 100
1, 30203, Note_on_c, 0, 67, 100
1, 30220, Note_off_c, 0, 67, 100
1, 30220, Note_on_c, 0, 73, 100
1, 30237, Note_off_c, 0, 73, 100
1, 30237, Note_on_c, 0, 72, 100
1, 30254, Note_off_c, 0, 72, 100
1, 30254, Note_on_c, 0, 73, 100
1, 30271, Note_off_c, 0, 73, 100
1, 30271, Note_on_c, 0, 77, 100
1, 30288, Note_off_c, 0, 77, 100
1, 30288, Note_on_c, 0, 73, 100
1, 30305, Note_off_c, 0, 73, 100
1, 30305, Note_on_c, 0, 75, 100
1, 30339, Note_off_c, 0, 75, 100
1, 30339, Note_on_c, 0, 74, 100
1, 30373, Note_off_c, 0, 74, 100
1, 30373, Note_on_c, 0, 77, 100
1, 30390, Note_off_c, 0, 77, 100
1, 30390, Note_on_c, 0, 78, 100
1, 30411, Note_off_c, 0, 78, 100
1, 30411, Note_on_c, 0, 79, 100
1, 30432, Note_off_c, 0, 79, 100
1, 30432, Note_on_c, 0, 77, 100
1, 30453, Note_off_c, 0, 77, 100
1, 30453, Note_on_c, 0, 76, 100
1, 30474, Note_off_c, 0, 76, 100
1, 30474, Note_on_c, 0, 77, 100
1, 30495, Note_off_c, 0, 77, 100
1, 30495, Note_on_c, 0, 79, 100
1, 30516, Note_off_c, 0, 79, 100
1, 30516, Note_on_c, 0, 80, 100
1, 30537, Note_off_c, 0, 80, 100
1, 30537, Note_on_c, 0, 79, 100
1, 30558, Note_off_c, 0, 79, 100
1, 30558, Note_on_c, 0, 82, 100
1, 30579, Note_off_c, 0, 82, 100
1, 30579, Note_on_c, 0, 85, 100
1, 30603, Note_off_c, 0, 85, 100
1, 30603, Note_on_c, 0, 84, 100
1, 30627, Note_off_c, 0, 84, 100
1, 30627, Note_on_c, 0, 87, 100
1, 30651, Note_off_c, 0, 87, 100
1, 30651, Note_on_c, 0, 87, 100
1, 30675, Note_off_c, 0, 87, 100
1, 30675, Note_on_c, 0, 88, 100
1, 30699, Note_off_c, 0, 88, 100
1, 30699, Note_on_c, 0, 89, 100
1, 30771, Note_off_c, 0, 89, 100
1, 30771, Note_on_c, 0, 88, 100
1, 30819, Note_off_c, 0, 88, 100
1, 30819, Note_on_c, 0, 89, 100
1, 31411, Note_off_c, 0, 89, 100
1, 31411, Note_on_c, 0, 86, 100
1, 31443, Note_off_c, 0, 86, 100
1, 31443, Note_on_c, 0, 87, 100
1, 31475, Note_off_c, 0, 87, 100
1, 31475, Note_on_c, 0, 84, 100
1, 31507, Note_off_c, 0, 84, 100
1, 31507, Note_on_c, 0, 88, 100
1, 31558, Note_off_c, 0, 88, 100
1, 31558, Note_on_c, 0, 84, 100
1, 31577, Note_off_c, 0, 84, 100
1, 31577, Note_on_c, 0, 85, 100
1, 31615, Note_off_c, 0, 85, 100
1, 31615, Note_on_c, 0, 83, 100
1, 31634, Note_off_c, 0, 83, 100
1, 31634, Note_on_c, 0, 81, 100
1, 31653, Note_off_c, 0, 81, 100
1, 31653, Note_on_c, 0, 80, 100
1, 31672, Note_off_c, 0, 80, 100
1, 31672, Note_on_c, 0, 78, 100
1, 31691, Note_off_c, 0, 78, 100
1, 31691, Note_on_c, 0, 77, 100
1, 31710, Note_off_c, 0, 77, 100
1, 31710, Note_on_c, 0, 75, 100
1, 31801, Note_off_c, 0, 75, 100
1, 31801, Note_on_c, 0, 74, 100
1, 31813, Note_off_c, 0, 74, 100
1, 31813, Note_on_c, 0, 76, 100
1, 31837, Note_off_c, 0, 76, 100
1, 31837, Note_on_c, 0, 77, 100
1, 31873, Note_off_c, 0, 77, 100
1, 31873, Note_on_c, 0, 76, 100
1, 31885, Note_off_c, 0, 76, 100
1, 31885, Note_on_c, 0, 74, 100
1, 31897, Note_off_c, 0, 74, 100
1, 31897, Note_on_c, 0, 72, 100
1, 31909, Note_off_c, 0, 72, 100
1, 31909, Note_on_c, 0, 70, 100
1, 31921, Note_off_c, 0, 70, 100
1, 31921, Note_on_c, 0, 72, 100
1, 31934, Note_off_c, 0, 72, 100
1, 31934, Note_on_c, 0, 73, 100
1, 31947, Note_off_c, 0, 73, 100
1, 31947, Note_on_c, 0, 74, 100
1, 31960, Note_off_c, 0, 74, 100
1, 31960, Note_on_c, 0, 75, 100
1, 32014, Note_off_c, 0, 75, 100
1, 32014, Note_on_c, 0, 72, 100
1, 32027, Note_off_c, 0, 72, 100
1, 32027, Note_on_c, 0, 71, 100
1, 32040, Note_off_c, 0, 71, 100
1, 32040, Note_on_c, 0, 72, 100
1, 32053, Note_off_c, 0, 72, 100
1, 32053, Note_on_c, 0, 73, 100
1, 32094, Note_off_c, 0, 73, 100
1, 32094, Note_on_c, 0, 63, 100
1, 32107, Note_off_c, 0, 63, 100
1, 32107, Note_on_c, 0, 69, 100
1, 32131, Note_off_c, 0, 69, 100
1, 32131, Note_on_c, 0, 70, 100
1, 32155, Note_off_c, 0, 70, 100
1, 32155, Note_on_c, 0, 71, 100
1, 32203, Note_off_c, 0, 71, 100
1, 32203, Note_on_c, 0, 67, 100
1, 32227, Note_off_c, 0, 67, 100
1, 32227, Note_on_c, 0, 66, 100
1, 32251, Note_off_c, 0, 66, 100
1, 32251, Note_on_c, 0, 68, 100
1, 32337, Note_off_c, 0, 68, 100
1, 32337, Note_on_c, 0, 66, 100
1, 32375, Note_off_c, 0, 66, 100
1, 32375, Note_on_c, 0, 63, 100
1, 32413, Note_off_c, 0, 63, 100
1, 32413, Note_on_c, 0, 61, 100
1, 32451, Note_off_c, 0, 61, 100
1, 32451, Note_on_c, 0, 58, 100
1, 32609, Note_off_c, 0, 58, 100
1, 32609, Note_on_c, 0, 72, 100
1, 32633, Note_off_c, 0, 72, 100
1, 32633, Note_on_c, 0, 70, 100
1, 32657, Note_off_c, 0, 70, 100
1, 32657, Note_on_c, 0, 67, 100
1, 32681, Note_off_c, 0, 67, 100
1, 32681, Note_on_c, 0, 65, 100
1, 32702, Note_off_c, 0, 65, 100
1, 32702, Note_on_c, 0, 70, 100
1, 32723, Note_off_c, 0, 70, 100
1, 32723, Note_on_c, 0, 67, 100
1, 32744, Note_off_c, 0, 67, 100
1, 32744, Note_on_c, 0, 65, 100
1, 32765, Note_off_c, 0, 65, 100
1, 32765, Note_on_c, 0, 63, 100
1, 32786, Note_off_c, 0, 63, 100
1, 32786, Note_on_c, 0, 70, 100
1, 32807, Note_off_c, 0, 70, 100
1, 32807, Note_on_c, 0, 67, 100
1, 32828, Note_off_c, 0, 67, 100
1, 32828, Note_on_c, 0, 65, 100
1, 32849, Note_off_c, 0, 65, 100
1, 32849, Note_on_c, 0, 63, 100
1, 32894, Note_off_c, 0, 63, 100
1, 32894, Note_on_c, 0, 65, 100
1, 32918, Note_off_c, 0, 65, 100
1, 32918, Note_on_c, 0, 63, 100
1, 32942, Note_off_c, 0, 63, 100
1, 32942, Note_on_c, 0, 61, 100
1, 32966, Note_off_c, 0, 61, 100
1, 32966, Note_on_c, 0, 58, 100
1, 32990, Note_off_c, 0, 58, 100
1, 32990, Note_on_c, 0, 61, 100
1, 33014, Note_off_c, 0, 61, 100
1, 33014, Note_on_c, 0, 62, 100
1, 33038, Note_off_c, 0, 62, 100
1, 33038, Note_on_c, 0, 65, 100
1, 33062, Note_off_c, 0, 65, 100
1, 33062, Note_on_c, 0, 62, 100
1, 33071, Note_off_c, 0, 62, 100
1, 33071, Note_on_c, 0, 63, 100
1, 33080, Note_off_c, 0, 63, 100
1, 33080, Note_on_c, 0, 64, 100
1, 33089, Note_off_c, 0, 64, 100
1, 33089, Note_on_c, 0, 63, 100
1, 33098, Note_off_c, 0, 63, 100
1, 33098, Note_on_c, 0, 62, 100
1, 33107, Note_off_c, 0, 62, 100
1, 33107, Note_on_c, 0, 61, 100
1, 33126, Note_off_c, 0, 61, 100
1, 33126, Note_on_c, 0, 60, 100
1, 33174, Note_off_c, 0, 60, 100
1, 33174, Note_on_c, 0, 60, 100
1, 33183, Note_off_c, 0, 60, 100
1, 33183, Note_on_c, 0, 63, 100
1, 33192, Note_off_c, 0, 63, 100
1, 33192, Note_on_c, 0, 60, 100
1, 33211, Note_off_c, 0, 60, 100
1, 33211, Note_on_c, 0, 58, 100
1, 33239, Note_off_c, 0, 58, 100
1, 33239, Note_on_c, 0, 55, 100
1, 33248, Note_off_c, 0, 55, 100
1, 33248, Note_on_c, 0, 53, 100
1, 33286, Note_off_c, 0, 53, 100
1, 33286, Note_on_c, 0, 58, 100
1, 33324, Note_off_c, 0, 58, 100
1, 33324, Note_on_c, 0, 56, 100
1, 33362, Note_off_c, 0, 56, 100
1, 33362, Note_on_c, 0, 53, 100
1, 33438, Note_off_c, 0, 53, 100
1, 33438, Note_on_c, 0, 48, 100
1, 33486, Note_off_c, 0, 48, 100
1, 33486, Note_on_c, 0, 51, 100
1, 33657, Note_off_c, 0, 51, 100
1, 33657, Note_on_c, 0, 48, 100
1, 33684, Note_off_c, 0, 48, 100
1, 33684, Note_on_c, 0, 51, 100
1, 33711, Note_off_c, 0, 51, 100
1, 33711, Note_on_c, 0, 53, 100
1, 33738, Note_off_c, 0, 53, 100
1, 33738, Note_on_c, 0, 55, 100
1, 33792, Note_off_c, 0, 55, 100
1, 33792, Note_on_c, 0, 58, 100
1, 33819, Note_off_c, 0, 58, 100
1, 33819, Note_on_c, 0, 60, 100
1, 33851, Note_off_c, 0, 60, 100
1, 33851, Note_on_c, 0, 56, 100
1, 33915, Note_off_c, 0, 56, 100
1, 33915, Note_on_c, 0, 62, 100
1, 33947, Note_off_c, 0, 62, 100
1, 33947, Note_on_c, 0, 63, 100
1, 33979, Note_off_c, 0, 63, 100
1, 33979, Note_on_c, 0, 53, 100
1, 34155, Note_off_c, 0, 53, 100
1, 34155, Note_on_c, 0, 53, 100
1, 34203, Note_off_c, 0, 53, 100
1, 34203, Note_on_c, 0, 52, 100
1, 34241, Note_off_c, 0, 52, 100
1, 34241, Note_on_c, 0, 51, 100
1, 34279, Note_off_c, 0, 51, 100
1, 34279, Note_on_c, 0, 58, 100
1, 34317, Note_off_c, 0, 58, 100
1, 34317, Note_on_c, 0, 55, 100
1, 34355, Note_off_c, 0, 55, 100
1, 34355, Note_on_c, 0, 54, 100
1, 34457, Note_off_c, 0, 54, 100
1, 34457, Note_on_c, 0, 55, 100
1, 34489, Note_off_c, 0, 55, 100
1, 34489, Note_on_c, 0, 58, 100
1, 34521, Note_off_c, 0, 58, 100
1, 34521, Note_on_c, 0, 60, 100
1, 34553, Note_off_c, 0, 60, 100
1, 34553, Note_on_c, 0, 61, 100
1, 34585, Note_off_c, 0, 61, 100
1, 34585, Note_on_c, 0, 63, 100
1, 34633, Note_off_c, 0, 63, 100
1, 34633, Note_on_c, 0, 64, 100
1, 34681, Note_off_c, 0, 64, 100
1, 34681, Note_on_c, 0, 65, 100
1, 34729, Note_off_c, 0, 65, 100
1, 34729, Note_on_c, 0, 63, 100
1, 34777, Note_off_c, 0, 63, 100
1, 34777, Note_on_c, 0, 70, 100
1, 34825, Note_off_c, 0, 70, 100
1, 34825, Note_on_c, 0, 72, 100
1, 34873, Note_off_c, 0, 72, 100
1, 34873, Note_on_c, 0, 67, 100
1, 34993, Note_off_c, 0, 67, 100
1, 34993, Note_on_c, 0, 68, 100
1, 35017, Note_off_c, 0, 68, 100
1, 35017, Note_on_c, 0, 71, 100
1, 35041, Note_off_c, 0, 71, 100
1, 35041, Note_on_c, 0, 71, 100
1, 35065, Note_off_c, 0, 71, 100
1, 35065, Note_on_c, 0, 75, 100
1, 35089, Note_off_c, 0, 75, 100
1, 35089, Note_on_c, 0, 71, 100
1, 35137, Note_off_c, 0, 71, 100
1, 35137, Note_on_c, 0, 67, 100
1, 35161, Note_off_c, 0, 67, 100
1, 35161, Note_on_c, 0, 70, 100
1, 35185, Note_off_c, 0, 70, 100
1, 35185, Note_on_c, 0, 72, 100
1, 35209, Note_off_c, 0, 72, 100
1, 35209, Note_on_c, 0, 73, 100
1, 35233, Note_off_c, 0, 73, 100
1, 35233, Note_on_c, 0, 72, 100
1, 35257, Note_off_c, 0, 72, 100
1, 35257, Note_on_c, 0, 70, 100
1, 35281, Note_off_c, 0, 70, 100
1, 35281, Note_on_c, 0, 68, 100
1, 35305, Note_off_c, 0, 68, 100
1, 35305, Note_on_c, 0, 65, 100
1, 35329, Note_off_c, 0, 65, 100
1, 35329, Note_on_c, 0, 60, 100
1, 35353, Note_off_c, 0, 60, 100
1, 35353, Note_on_c, 0, 63, 100
1, 35391, Note_off_c, 0, 63, 100
1, 35391, Note_on_c, 0, 67, 100
1, 35410, Note_off_c, 0, 67, 100
1, 35410, Note_on_c, 0, 62, 100
1, 35429, Note_off_c, 0, 62, 100
1, 35429, Note_on_c, 0, 63, 100
1, 35448, Note_off_c, 0, 63, 100
1, 35448, Note_on_c, 0, 62, 100
1, 35467, Note_off_c, 0, 62, 100
1, 35467, Note_on_c, 0, 58, 100
1, 35486, Note_off_c, 0, 58, 100
1, 35486, Note_on_c, 0, 60, 100
1, 35524, Note_off_c, 0, 60, 100
1, 35524, Note_on_c, 0, 62, 100
1, 35543, Note_off_c, 0, 62, 100
1, 35543, Note_on_c, 0, 58, 100
1, 35591, Note_off_c, 0, 58, 100
1, 35591, Note_on_c, 0, 56, 100
1, 35639, Note_off_c, 0, 56, 100
1, 35639, Note_on_c, 0, 60, 100
1, 35687, Note_off_c, 0, 60, 100
1, 35687, Note_on_c, 0, 65, 100
1, 35773, Note_off_c, 0, 65, 100
1, 35773, Note_on_c, 0, 70, 100
1, 35811, Note_off_c, 0, 70, 100
1, 35811, Note_on_c, 0, 68, 100
1, 35849, Note_off_c, 0, 68, 100
1, 35849, Note_on_c, 0, 65, 100
1, 35887, Note_off_c, 0, 65, 100
1, 35887, Note_on_c, 0, 64, 100
1, 35925, Note_off_c, 0, 64, 100
1, 35925, Note_on_c, 0, 63, 100
1, 35989, Note_off_c, 0, 63, 100
1, 35989, Note_on_c, 0, 67, 100
1, 36021, Note_off_c, 0, 67, 100
1, 36021, Note_on_c, 0, 66, 100
1, 36053, Note_off_c, 0, 66, 100
1, 36053, Note_on_c, 0, 65, 100
1, 36085, Note_off_c, 0, 65, 100
1, 36085, Note_on_c, 0, 64, 100
1, 36117, Note_off_c, 0, 64, 100
1, 36117, Note_on_c, 0, 63, 100
1, 36165, Note_off_c, 0, 63, 100
1, 36165, Note_on_c, 0, 62, 100
1, 36213, Note_off_c, 0, 62, 100
1, 36213, Note_on_c, 0, 67, 100
1, 36237, Note_off_c, 0, 67, 100
1, 36237, Note_on_c, 0, 65, 100
1, 36261, Note_off_c, 0, 65, 100
1, 36261, Note_on_c, 0, 62, 100
1, 36285, Note_off_c, 0, 62, 100
1, 36285, Note_on_c, 0, 61, 100
1, 36357, Note_off_c, 0, 61, 100
1, 36357, Note_on_c, 0, 65, 100
1, 36381, Note_off_c, 0, 65, 100
1, 36381, Note_on_c, 0, 64, 100
1, 36429, Note_off_c, 0, 64, 100
1, 36429, Note_on_c, 0, 60, 100
1, 36477, Note_off_c, 0, 60, 100
1, 36477, Note_on_c, 0, 63, 100
1, 36501, Note_off_c, 0, 63, 100
1, 36501, Note_on_c, 0, 61, 100
1, 36549, Note_off_c, 0, 61, 100
1, 36549, Note_on_c, 0, 60, 100
1, 36597, Note_off_c, 0, 60, 100
1, 36597, Note_on_c, 0, 58, 100
1, 36645, Note_off_c, 0, 58, 100
1, 36645, Note_on_c, 0, 56, 100
1, 36693, Note_off_c, 0, 56, 100
1, 36693, Note_on_c, 0, 57, 100
1, 36789, Note_off_c, 0, 57, 100
1, 36949, Note_on_c, 0, 69, 100
1, 37013, Note_off_c, 0, 69, 100
1, 37013, Note_on_c, 0, 86, 100
1, 37077, Note_off_c, 0, 86, 100
1, 37077, Note_on_c, 0, 91, 100
1, 37115, Note_off_c, 0, 91, 100
1, 37115, Note_on_c, 0, 66, 100
1, 37153, Note_off_c, 0, 66, 100
1, 37153, Note_on_c, 0, 67, 100
1, 37191, Note_off_c, 0, 67, 100
1, 37191, Note_on_c, 0, 70, 100
1, 37229, Note_off_c, 0, 70, 100
1, 37229, Note_on_c, 0, 63, 100
1, 37267, Note_off_c, 0, 63, 100
1, 37267, Note_on_c, 0, 59, 100
1, 37315, Note_off_c, 0, 59, 100
1, 37315, Note_on_c, 0, 64, 100
1, 37363, Note_off_c, 0, 64, 100
1, 37363, Note_on_c, 0, 60, 100
1, 37411, Note_off_c, 0, 60, 100
1, 37411, Note_on_c, 0, 70, 100
1, 37507, Note_off_c, 0, 70, 100
1, 37689, Note_on_c, 0, 64, 100
1, 37727, Note_off_c, 0, 64, 100
1, 37727, Note_on_c, 0, 65, 100
1, 37765, Note_off_c, 0, 65, 100
1, 37765, Note_on_c, 0, 70, 100
1, 37803, Note_off_c, 0, 70, 100
1, 37803, Note_on_c, 0, 75, 100
1, 37841, Note_off_c, 0, 75, 100
1, 37841, Note_on_c, 0, 78, 100
1, 37873, Note_off_c, 0, 78, 100
1, 37873, Note_on_c, 0, 80, 100
1, 37905, Note_off_c, 0, 80, 100
1, 37905, Note_on_c, 0, 84, 100
1, 37937, Note_off_c, 0, 84, 100
1, 37937, Note_on_c, 0, 83, 100
1, 37969, Note_off_c, 0, 83, 100
1, 37969, Note_on_c, 0, 87, 100
1, 38001, Note_off_c, 0, 87, 100
1, 38001, Note_on_c, 0, 88, 100
1, 38033, Note_off_c, 0, 88, 100
1, 38033, Note_on_c, 0, 89, 100
1, 38081, Note_off_c, 0, 89, 100
1, 38081, Note_on_c, 0, 87, 100
1, 38273, Note_off_c, 0, 87, 100
1, 38273, Note_on_c, 0, 77, 100
1, 38321, Note_off_c, 0, 77, 100
1, 38321, Note_on_c, 0, 78, 100
1, 38369, Note_off_c, 0, 78, 100
1, 38369, Note_on_c, 0, 80, 100
1, 38945, Note_off_c, 0, 80, 100
1, 38945, Note_on_c, 0, 77, 100
1, 38969, Note_off_c, 0, 77, 100
1, 38969, Note_on_c, 0, 79, 100
1, 39025, Note_off_c, 0, 79, 100
1, 39025, Note_on_c, 0, 75, 100
1, 39057, Note_off_c, 0, 75, 100
1, 39057, Note_on_c, 0, 77, 100
1, 39089, Note_off_c, 0, 77, 100
1, 39089, Note_on_c, 0, 77, 100
1, 39121, Note_off_c, 0, 77, 100
1, 39121, Note_on_c, 0, 75, 100
1, 39153, Note_off_c, 0, 75, 100
1, 39153, Note_on_c, 0, 77, 100
1, 39281, Note_off_c, 0, 77, 100
1, 39281, Note_on_c, 0, 75, 100
1, 39313, Note_off_c, 0, 75, 100
1, 39313, Note_on_c, 0, 71, 100
1, 39345, Note_off_c, 0, 71, 100
1, 39345, Note_on_c, 0, 73, 100
1, 39425, Note_off_c, 0, 73, 100
1, 39425, Note_on_c, 0, 72, 100
1, 39473, Note_off_c, 0, 72, 100
1, 39473, Note_on_c, 0, 70, 100
1, 39521, Note_off_c, 0, 70, 100
1, 39521, Note_on_c, 0, 72, 100
1, 39617, Note_off_c, 0, 72, 100
1, 39889, Note_on_c, 0, 67, 100
1, 39921, Note_off_c, 0, 67, 100
1, 39921, Note_on_c, 0, 68, 100
1, 39963, Note_off_c, 0, 68, 100
1, 39963, Note_on_c, 0, 70, 100
1, 39973, Note_off_c, 0, 70, 100
1, 39973, Note_on_c, 0, 71, 100
1, 39993, Note_off_c, 0, 71, 100
1, 39993, Note_on_c, 0, 75, 100
1, 40013, Note_off_c, 0, 75, 100
1, 40013, Note_on_c, 0, 74, 100
1, 40033, Note_off_c, 0, 74, 100
1, 40033, Note_on_c, 0, 71, 100
1, 40043, Note_off_c, 0, 71, 100
1, 40043, Note_on_c, 0, 72, 100
1, 40053, Note_off_c, 0, 72, 100
1, 40053, Note_on_c, 0, 70, 100
1, 40063, Note_off_c, 0, 70, 100
1, 40063, Note_on_c, 0, 71, 100
1, 40083, Note_off_c, 0, 71, 100
1, 40083, Note_on_c, 0, 70, 100
1, 40103, Note_off_c, 0, 70, 100
1, 40103, Note_on_c, 0, 68, 100
1, 40113, Note_off_c, 0, 68, 100
1, 40113, Note_on_c, 0, 67, 100
1, 40123, Note_off_c, 0, 67, 100
1, 40123, Note_on_c, 0, 66, 100
1, 40143, Note_off_c, 0, 66, 100
1, 40143, Note_on_c, 0, 67, 100
1, 40160, Note_off_c, 0, 67, 100
1, 40160, Note_on_c, 0, 64, 100
1, 40177, Note_off_c, 0, 64, 100
1, 40177, Note_on_c, 0, 65, 100
1, 40211, Note_off_c, 0, 65, 100
1, 40211, Note_on_c, 0, 63, 100
1, 40228, Note_off_c, 0, 63, 100
1, 40228, Note_on_c, 0, 62, 100
1, 40245, Note_off_c, 0, 62, 100
1, 40245, Note_on_c, 0, 61, 100
1, 40262, Note_off_c, 0, 61, 100
1, 40262, Note_on_c, 0, 62, 100
1, 40279, Note_off_c, 0, 62, 100
1, 40279, Note_on_c, 0, 61, 100
1, 40296, Note_off_c, 0, 61, 100
1, 40296, Note_on_c, 0, 62, 100
1, 40313, Note_off_c, 0, 62, 100
1, 40313, Note_on_c, 0, 61, 100
1, 40330, Note_off_c, 0, 61, 100
1, 40330, Note_on_c, 0, 62, 100
1, 40342, Note_off_c, 0, 62, 100
1, 40342, Note_on_c, 0, 60, 100
1, 40354, Note_off_c, 0, 60, 100
1, 40354, Note_on_c, 0, 58, 100
1, 40379, Note_off_c, 0, 58, 100
1, 40379, Note_on_c, 0, 59, 100
1, 40391, Note_off_c, 0, 59, 100
1, 40391, Note_on_c, 0, 58, 100
1, 40403, Note_off_c, 0, 58, 100
1, 40403, Note_on_c, 0, 59, 100
1, 40415, Note_off_c, 0, 59, 100
1, 40415, Note_on_c, 0, 58, 100
1, 40440, Note_off_c, 0, 58, 100
1, 40440, Note_on_c, 0, 57, 100
1, 40452, Note_off_c, 0, 57, 100
1, 40452, Note_on_c, 0, 56, 100
1, 40464, Note_off_c, 0, 56, 100
1, 40464, Note_on_c, 0, 55, 100
1, 40476, Note_off_c, 0, 55, 100
1, 40476, Note_on_c, 0, 54, 100
1, 40501, Note_off_c, 0, 54, 100
1, 40501, Note_on_c, 0, 53, 100
1, 40513, Note_off_c, 0, 53, 100
1, 40513, Note_on_c, 0, 51, 100
1, 40524, Note_off_c, 0, 51, 100
1, 40524, Note_on_c, 0, 52, 100
1, 40535, Note_off_c, 0, 52, 100
1, 40535, Note_on_c, 0, 51, 100
1, 40546, Note_off_c, 0, 51, 100
1, 40546, Note_on_c, 0, 52, 100
1, 40557, Note_off_c, 0, 52, 100
1, 40557, Note_on_c, 0, 51, 100
1, 40568, Note_off_c, 0, 51, 100
1, 40568, Note_on_c, 0, 52, 100
1, 40579, Note_off_c, 0, 52, 100
1, 40579, Note_on_c, 0, 51, 100
1, 40590, Note_off_c, 0, 51, 100
1, 40590, Note_on_c, 0, 52, 100
1, 40601, Note_off_c, 0, 52, 100
1, 40601, Note_on_c, 0, 51, 100
1, 40612, Note_off_c, 0, 51, 100
1, 40612, Note_on_c, 0, 52, 100
1, 40623, Note_off_c, 0, 52, 100
1, 40623, Note_on_c, 0, 51, 100
1, 40634, Note_off_c, 0, 51, 100
1, 40634, Note_on_c, 0, 52, 100
1, 40645, Note_off_c, 0, 52, 100
1, 40645, Note_on_c, 0, 51, 100
1, 40656, Note_off_c, 0, 51, 100
1, 40656, Note_on_c, 0, 52, 100
1, 40667, Note_off_c, 0, 52, 100
1, 40667, Note_on_c, 0, 51, 100
1, 40678, Note_off_c, 0, 51, 100
1, 40678, Note_on_c, 0, 52, 100
1, 40689, Note_off_c, 0, 52, 100
1, 40689, Note_on_c, 0, 51, 100
1, 40722, Note_off_c, 0, 51, 100
1, 40722, Note_on_c, 0, 53, 100
1, 40733, Note_off_c, 0, 53, 100
1, 40733, Note_on_c, 0, 49, 100
1, 40744, Note_off_c, 0, 49, 100
1, 40744, Note_on_c, 0, 53, 100
1, 40755, Note_off_c, 0, 53, 100
1, 40755, Note_on_c, 0, 49, 100
1, 40766, Note_off_c, 0, 49, 100
1, 40766, Note_on_c, 0, 53, 100
1, 40777, Note_off_c, 0, 53, 100
1, 40777, Note_on_c, 0, 49, 100
1, 40788, Note_off_c, 0, 49, 100
1, 40788, Note_on_c, 0, 53, 100
1, 40799, Note_off_c, 0, 53, 100
1, 40799, Note_on_c, 0, 49, 100
1, 40810, Note_off_c, 0, 49, 100
1, 40810, Note_on_c, 0, 53, 100
1, 40821, Note_off_c, 0, 53, 100
1, 40821, Note_on_c, 0, 49, 100
1, 40832, Note_off_c, 0, 49, 100
1, 40832, Note_on_c, 0, 53, 100
1, 40843, Note_off_c, 0, 53, 100
1, 40843, Note_on_c, 0, 49, 100
1, 40854, Note_off_c, 0, 49, 100
1, 40854, Note_on_c, 0, 53, 100
1, 40865, Note_off_c, 0, 53, 100
1, 40865, Note_on_c, 0, 49, 100
1, 40876, Note_off_c, 0, 49, 100
1, 40876, Note_on_c, 0, 53, 100
1, 40887, Note_off_c, 0, 53, 100
1, 40887, Note_on_c, 0, 49, 100
1, 40911, Note_off_c, 0, 49, 100
1, 40911, Note_on_c, 0, 53, 100
1, 40935, Note_off_c, 0, 53, 100
1, 40935, Note_on_c, 0, 49, 100
1, 40959, Note_off_c, 0, 49, 100
1, 40959, Note_on_c, 0, 53, 100
1, 41055, Note_off_c, 0, 53, 100
1, 41351, Note_on_c, 0, 45, 100
1, 41367, Note_off_c, 0, 45, 100
1, 41367, Note_on_c, 0, 49, 100
1, 41383, Note_off_c, 0, 49, 100
1, 41383, Note_on_c, 0, 52, 100
1, 41399, Note_off_c, 0, 52, 100
1, 41399, Note_on_c, 0, 55, 100
1, 41415, Note_off_c, 0, 55, 100
1, 41415, Note_on_c, 0, 58, 100
1, 41431, Note_off_c, 0, 58, 100
1, 41431, Note_on_c, 0, 55, 100
1, 41447, Note_off_c, 0, 55, 100
1, 41447, Note_on_c, 0, 57, 100
1, 41463, Note_off_c, 0, 57, 100
1, 41463, Note_on_c, 0, 58, 100
1, 41476, Note_off_c, 0, 58, 100
1, 41476, Note_on_c, 0, 60, 100
1, 41503, Note_off_c, 0, 60, 100
1, 41503, Note_on_c, 0, 62, 100
1, 41516, Note_off_c, 0, 62, 100
1, 41516, Note_on_c, 0, 65, 100
1, 41529, Note_off_c, 0, 65, 100
1, 41529, Note_on_c, 0, 62, 100
1, 41542, Note_off_c, 0, 62, 100
1, 41542, Note_on_c, 0, 63, 100
1, 41555, Note_off_c, 0, 63, 100
1, 41555, Note_on_c, 0, 65, 100
1, 41568, Note_off_c, 0, 65, 100
1, 41568, Note_on_c, 0, 67, 100
1, 41581, Note_off_c, 0, 67, 100
1, 41581, Note_on_c, 0, 70, 100
1, 41594, Note_off_c, 0, 70, 100
1, 41594, Note_on_c, 0, 67, 100
1, 41607, Note_off_c, 0, 67, 100
1, 41607, Note_on_c, 0, 68, 100
1, 41620, Note_off_c, 0, 68, 100
1, 41620, Note_on_c, 0, 71, 100
1, 41633, Note_off_c, 0, 71, 100
1, 41633, Note_on_c, 0, 72, 100
1, 41646, Note_off_c, 0, 72, 100
1, 41646, Note_on_c, 0, 75, 100
1, 41660, Note_off_c, 0, 75, 100
1, 41660, Note_on_c, 0, 74, 100
1, 41674, Note_off_c, 0, 74, 100
1, 41674, Note_on_c, 0, 72, 100
1, 41688, Note_off_c, 0, 72, 100
1, 41688, Note_on_c, 0, 71, 100
1, 41702, Note_off_c, 0, 71, 100
1, 41702, Note_on_c, 0, 68, 100
1, 41716, Note_off_c, 0, 68, 100
1, 41716, Note_on_c, 0, 67, 100
1, 41730, Note_off_c, 0, 67, 100
1, 41730, Note_on_c, 0, 66, 100
1, 41744, Note_off_c, 0, 66, 100
1, 41744, Note_on_c, 0, 64, 100
1, 41758, Note_off_c, 0, 64, 100
1, 41758, Note_on_c, 0, 63, 100
1, 41772, Note_off_c, 0, 63, 100
1, 41772, Note_on_c, 0, 62, 100
1, 41786, Note_off_c, 0, 62, 100
1, 41786, Note_on_c, 0, 61, 100
1, 41815, Note_off_c, 0, 61, 100
1, 41815, Note_on_c, 0, 75, 100
1, 41853, Note_off_c, 0, 75, 100
1, 41853, Note_on_c, 0, 67, 100
1, 41901, Note_off_c, 0, 67, 100
1, 41901, Note_on_c, 0, 72, 100
1, 41925, Note_off_c, 0, 72, 100
1, 41925, Note_on_c, 0, 73, 100
1, 41949, Note_off_c, 0, 73, 100
1, 41949, Note_on_c, 0, 72, 100
1, 41973, Note_off_c, 0, 72, 100
1, 41973, Note_on_c, 0, 70, 100
1, 42021, Note_off_c, 0, 70, 100
1, 42021, Note_on_c, 0, 68, 100
1, 42165, Note_off_c, 0, 68, 100
1, 42165, Note_on_c, 0, 67, 100
1, 42237, Note_off_c, 0, 67, 100
1, 42237, Note_on_c, 0, 70, 100
1, 42273, Note_off_c, 0, 70, 100
1, 42273, Note_on_c, 0, 64, 100
1, 42309, Note_off_c, 0, 64, 100
1, 42309, Note_on_c, 0, 69, 100
1, 42345, Note_off_c, 0, 69, 100
1, 42345, Note_on_c, 0, 67, 100
1, 42381, Note_off_c, 0, 67, 100
1, 42381, Note_on_c, 0, 63, 100
1, 42393, Note_off_c, 0, 63, 100
1, 42393, Note_on_c, 0, 60, 100
1, 42405, Note_off_c, 0, 60, 100
1, 42405, Note_on_c, 0, 63, 100
1, 42453, Note_off_c, 0, 63, 100
1, 42453, Note_on_c, 0, 67, 100
1, 42501, Note_off_c, 0, 67, 100
1, 42501, Note_on_c, 0, 62, 100
1, 42549, Note_off_c, 0, 62, 100
1, 42549, Note_on_c, 0, 58, 100
1, 42597, Note_off_c, 0, 58, 100
1, 42597, Note_on_c, 0, 60, 100
1, 42635, Note_off_c, 0, 60, 100
1, 42635, Note_on_c, 0, 62, 100
1, 42673, Note_off_c, 0, 62, 100
1, 42673, Note_on_c, 0, 59, 100
1, 42711, Note_off_c, 0, 59, 100
1, 42711, Note_on_c, 0, 55, 100
1, 42749, Note_off_c, 0, 55, 100
1, 42749, Note_on_c, 0, 57, 100
1, 42787, Note_off_c, 0, 57, 100
1, 42787, Note_on_c, 0, 60, 100
1, 42835, Note_off_c, 0, 60, 100
1, 42835, Note_on_c, 0, 61, 100
1, 42883, Note_off_c, 0, 61, 100
1, 42883, Note_on_c, 0, 63, 100
1, 42931, Note_off_c, 0, 63, 100
1, 42931, Note_on_c, 0, 65, 100
1, 43003, Note_off_c, 0, 65, 100
1, 43003, Note_on_c, 0, 65, 100
1, 43099, Note_off_c, 0, 65, 100
1, 43099, Note_on_c, 0, 63, 100
1, 43123, Note_off_c, 0, 63, 100
1, 43123, Note_on_c, 0, 65, 100
1, 43147, Note_off_c, 0, 65, 100
1, 43147, Note_on_c, 0, 60, 100
1, 43171, Note_off_c, 0, 60, 100
1, 43171, Note_on_c, 0, 62, 100
1, 43219, Note_off_c, 0, 62, 100
1, 43219, Note_on_c, 0, 58, 100
1, 43390, Note_off_c, 0, 58, 100
1, 43390, Note_on_c, 0, 58, 100
1, 43403, Note_off_c, 0, 58, 100
1, 43403, Note_on_c, 0, 58, 100
1, 43416, Note_off_c, 0, 58, 100
1, 43416, Note_on_c, 0, 58, 100
1, 43443, Note_off_c, 0, 58, 100
1, 43443, Note_on_c, 0, 58, 100
1, 43456, Note_off_c, 0, 58, 100
1, 43456, Note_on_c, 0, 58, 100
1, 43469, Note_off_c, 0, 58, 100
1, 43469, Note_on_c, 0, 58, 100
1, 43482, Note_off_c, 0, 58, 100
1, 43482, Note_on_c, 0, 58, 100
1, 43495, Note_off_c, 0, 58, 100
1, 43495, Note_on_c, 0, 58, 100
1, 43508, Note_off_c, 0, 58, 100
1, 43508, Note_on_c, 0, 58, 100
1, 43535, Note_off_c, 0, 58, 100
1, 43535, Note_on_c, 0, 58, 100
1, 43548, Note_off_c, 0, 58, 100
1, 43548, Note_on_c, 0, 58, 100
1, 43575, Note_off_c, 0, 58, 100
1, 43575, Note_on_c, 0, 58, 100
1, 43602, Note_off_c, 0, 58, 100
1, 43602, Note_on_c, 0, 58, 100
1, 43629, Note_off_c, 0, 58, 100
1, 43629, Note_on_c, 0, 58, 100
1, 43656, Note_off_c, 0, 58, 100
1, 43656, Note_on_c, 0, 58, 100
1, 43683, Note_off_c, 0, 58, 100
1, 43683, Note_on_c, 0, 58, 100
1, 43710, Note_off_c, 0, 58, 100
1, 43710, Note_on_c, 0, 58, 100
1, 43737, Note_off_c, 0, 58, 100
1, 43737, Note_on_c, 0, 58, 100
1, 43769, Note_off_c, 0, 58, 100
1, 43769, Note_on_c, 0, 58, 100
1, 43833, Note_off_c, 0, 58, 100
1, 43833, Note_on_c, 0, 58, 100
1, 43865, Note_off_c, 0, 58, 100
1, 43865, Note_on_c, 0, 58, 100
1, 43929, Note_off_c, 0, 58, 100
1, 43929, Note_on_c, 0, 58, 100
1, 43956, Note_off_c, 0, 58, 100
1, 43956, Note_on_c, 0, 58, 100
1, 43969, Note_off_c, 0, 58, 100
1, 43969, Note_on_c, 0, 58, 100
1, 43982, Note_off_c, 0, 58, 100
1, 43982, Note_on_c, 0, 62, 100
1, 44009, Note_off_c, 0, 62, 100
1, 44009, Note_on_c, 0, 65, 100
1, 44022, Note_off_c, 0, 65, 100
1, 44022, Note_on_c, 0, 64, 100
1, 44035, Note_off_c, 0, 64, 100
1, 44035, Note_on_c, 0, 63, 100
1, 44062, Note_off_c, 0, 63, 100
1, 44062, Note_on_c, 0, 58, 100
1, 44089, Note_off_c, 0, 58, 100
1, 44089, Note_on_c, 0, 63, 100
1, 44102, Note_off_c, 0, 63, 100
1, 44102, Note_on_c, 0, 63, 100
1, 44139, Note_off_c, 0, 63, 100
1, 44139, Note_on_c, 0, 62, 100
1, 44163, Note_off_c, 0, 62, 100
1, 44163, Note_on_c, 0, 63, 100
1, 44187, Note_off_c, 0, 63, 100
1, 44187, Note_on_c, 0, 62, 100
1, 44211, Note_off_c, 0, 62, 100
1, 44211, Note_on_c, 0, 63, 100
1, 44235, Note_off_c, 0, 63, 100
1, 44235, Note_on_c, 0, 62, 100
1, 44259, Note_off_c, 0, 62, 100
1, 44259, Note_on_c, 0, 61, 100
1, 44283, Note_off_c, 0, 61, 100
1, 44283, Note_on_c, 0, 60, 100
1, 44307, Note_off_c, 0, 60, 100
1, 44307, Note_on_c, 0, 60, 100
1, 44319, Note_off_c, 0, 60, 100
1, 44319, Note_on_c, 0, 58, 100
1, 44331, Note_off_c, 0, 58, 100
1, 44331, Note_on_c, 0, 59, 100
1, 44343, Note_off_c, 0, 59, 100
1, 44343, Note_on_c, 0, 58, 100
1, 44355, Note_off_c, 0, 58, 100
1, 44355, Note_on_c, 0, 57, 100
1, 44406, Note_off_c, 0, 57, 100
1, 44406, Note_on_c, 0, 58, 100
1, 44418, Note_off_c, 0, 58, 100
1, 44418, Note_on_c, 0, 54, 100
1, 44443, Note_off_c, 0, 54, 100
1, 44443, Note_on_c, 0, 56, 100
1, 44468, Note_off_c, 0, 56, 100
1, 44468, Note_on_c, 0, 54, 100
1, 44480, Note_off_c, 0, 54, 100
1, 44480, Note_on_c, 0, 53, 100
1, 44576, Note_off_c, 0, 53, 100
1, 44800, Note_on_c, 0, 50, 100
1, 44838, Note_off_c, 0, 50, 100
1, 44838, Note_on_c, 0, 51, 100
1, 44876, Note_off_c, 0, 51, 100
1, 44876, Note_on_c, 0, 53, 100
1, 44924, Note_off_c, 0, 53, 100
1, 44924, Note_on_c, 0, 51, 100
1, 44972, Note_off_c, 0, 51, 100
1, 44972, Note_on_c, 0, 58, 100
1, 45068, Note_off_c, 0, 58, 100
1, 45068, Note_on_c, 0, 55, 100
1, 45100, Note_off_c, 0, 55, 100
1, 45100, Note_on_c, 0, 56, 100
1, 45196, Note_off_c, 0, 56, 100
1, 45196, Note_on_c, 0, 52, 100
1, 45228, Note_off_c, 0, 52, 100
1, 45228, Note_on_c, 0, 55, 100
1, 45260, Note_off_c, 0, 55, 100
1, 45260, Note_on_c, 0, 53, 100
1, 45308, Note_off_c, 0, 53, 100
1, 45308, Note_on_c, 0, 51, 100
1, 45356, Note_off_c, 0, 51, 100
1, 45356, Note_on_c, 0, 53, 100
1, 45644, Note_off_c, 0, 53, 100
1, 46143, Note_on_c, 0, 64, 100
1, 46181, Note_off_c, 0, 64, 100
1, 46181, Note_on_c, 0, 59, 100
1, 46267, Note_off_c, 0, 59, 100
1, 46267, Note_on_c, 0, 56, 100
1, 46315, Note_off_c, 0, 56, 100
1, 46315, Note_on_c, 0, 58, 100
1, 46363, Note_off_c, 0, 58, 100
1, 46363, Note_on_c, 0, 58, 100
1, 46411, Note_off_c, 0, 58, 100
1, 46411, Note_on_c, 0, 59, 100
1, 46475, Note_off_c, 0, 59, 100
1, 46475, Note_on_c, 0, 63, 100
1, 46539, Note_off_c, 0, 63, 100
1, 46539, Note_on_c, 0, 65, 100
1, 46603, Note_off_c, 0, 65, 100
1, 46603, Note_on_c, 0, 70, 100
1, 46699, Note_off_c, 0, 70, 100
1, 46699, Note_on_c, 0, 77, 100
1, 46843, Note_off_c, 0, 77, 100
1, 46843, Note_on_c, 0, 44, 100
1, 46891, Note_off_c, 0, 44, 100
1, 46891, Note_on_c, 0, 51, 100
1, 46939, Note_off_c, 0, 51, 100
1, 46939, Note_on_c, 0, 56, 100
1, 47035, Note_off_c, 0, 56, 100
1, 47035, Note_on_c, 0, 57, 100
1, 47083, Note_off_c, 0, 57, 100
1, 47083, Note_on_c, 0, 58, 100
1, 47131, Note_off_c, 0, 58, 100
1, 47131, Note_on_c, 0, 63, 100
1, 47179, Note_off_c, 0, 63, 100
1, 47179, Note_on_c, 0, 65, 100
1, 47227, Note_off_c, 0, 65, 100
1, 47227, Note_on_c, 0, 66, 100
1, 47275, Note_off_c, 0, 66, 100
1, 47275, Note_on_c, 0, 65, 100
1, 47323, Note_off_c, 0, 65, 100
1, 47323, Note_on_c, 0, 65, 100
1, 47371, Note_off_c, 0, 65, 100
1, 47371, Note_on_c, 0, 61, 100
1, 47419, Note_off_c, 0, 61, 100
1, 47419, Note_on_c, 0, 58, 100
1, 47611, Note_off_c, 0, 58, 100
1, 47611, Note_on_c, 0, 64, 100
1, 47659, Note_off_c, 0, 64, 100
1, 47659, Note_on_c, 0, 63, 100
1, 47707, Note_off_c, 0, 63, 100
1, 47707, Note_on_c, 0, 61, 100
1, 47755, Note_off_c, 0, 61, 100
1, 47755, Note_on_c, 0, 64, 100
1, 47787, Note_off_c, 0, 64, 100
1, 47787, Note_on_c, 0, 61, 100
1, 47819, Note_off_c, 0, 61, 100
1, 47819, Note_on_c, 0, 63, 100
1, 47851, Note_off_c, 0, 63, 100
1, 47851, Note_on_c, 0, 61, 100
1, 47883, Note_off_c, 0, 61, 100
1, 47883, Note_on_c, 0, 67, 100
1, 47915, Note_off_c, 0, 67, 100
1, 47915, Note_on_c, 0, 73, 100
1, 47947, Note_off_c, 0, 73, 100
1, 47947, Note_on_c, 0, 72, 100
1, 47979, Note_off_c, 0, 72, 100
1, 47979, Note_on_c, 0, 70, 100
1, 48011, Note_off_c, 0, 70, 100
1, 48011, Note_on_c, 0, 68, 100
1, 48075, Note_off_c, 0, 68, 100
1, 48075, Note_on_c, 0, 67, 100
1, 48107, Note_off_c, 0, 67, 100
1, 48107, Note_on_c, 0, 65, 100
1, 48139, Note_off_c, 0, 65, 100
1, 48139, Note_on_c, 0, 61, 100
1, 48153, Note_off_c, 0, 61, 100
1, 48153, Note_on_c, 0, 72, 100
1, 48182, Note_off_c, 0, 72, 100
1, 48182, Note_on_c, 0, 70, 100
1, 48211, Note_off_c, 0, 70, 100
1, 48211, Note_on_c, 0, 76, 100
1, 48240, Note_off_c, 0, 76, 100
1, 48240, Note_on_c, 0, 78, 100
1, 48254, Note_off_c, 0, 78, 100
1, 48254, Note_on_c, 0, 79, 100
1, 48268, Note_off_c, 0, 79, 100
1, 48268, Note_on_c, 0, 81, 100
1, 48312, Note_off_c, 0, 81, 100
1, 48312, Note_on_c, 0, 84, 100
1, 48326, Note_off_c, 0, 84, 100
1, 48326, Note_on_c, 0, 84, 100
1, 48390, Note_off_c, 0, 84, 100
1, 48390, Note_on_c, 0, 75, 100
1, 48422, Note_off_c, 0, 75, 100
1, 48422, Note_on_c, 0, 70, 100
1, 48454, Note_off_c, 0, 70, 100
1, 48454, Note_on_c, 0, 67, 100
1, 48486, Note_off_c, 0, 67, 100
1, 48486, Note_on_c, 0, 63, 100
1, 48518, Note_off_c, 0, 63, 100
1, 48518, Note_on_c, 0, 70, 100
1, 48566, Note_off_c, 0, 70, 100
1, 48566, Note_on_c, 0, 69, 100
1, 48614, Note_off_c, 0, 69, 100
1, 48614, Note_on_c, 0, 70, 100
1, 48744, Note_off_c, 0, 70, 100
1, 48744, Note_on_c, 0, 79, 100
1, 48778, Note_off_c, 0, 79, 100
1, 48778, Note_on_c, 0, 75, 100
1, 48795, Note_off_c, 0, 75, 100
1, 48795, Note_on_c, 0, 71, 100
1, 48812, Note_off_c, 0, 71, 100
1, 48812, Note_on_c, 0, 68, 100
1, 48829, Note_off_c, 0, 68, 100
1, 48829, Note_on_c, 0, 66, 100
1, 48846, Note_off_c, 0, 66, 100
1, 48846, Note_on_c, 0, 71, 100
1, 48880, Note_off_c, 0, 71, 100
1, 48880, Note_on_c, 0, 75, 100
1, 48913, Note_off_c, 0, 75, 100
1, 48913, Note_on_c, 0, 71, 100
1, 48961, Note_off_c, 0, 71, 100
1, 48961, Note_on_c, 0, 64, 100
1, 48977, Note_off_c, 0, 64, 100
1, 48977, Note_on_c, 0, 64, 100
1, 48993, Note_off_c, 0, 64, 100
1, 48993, Note_on_c, 0, 62, 100
1, 49009, Note_off_c, 0, 62, 100
1, 49009, Note_on_c, 0, 61, 100
1, 49025, Note_off_c, 0, 61, 100
1, 49025, Note_on_c, 0, 56, 100
1, 49073, Note_off_c, 0, 56, 100
1, 49073, Note_on_c, 0, 58, 100
1, 49089, Note_off_c, 0, 58, 100
1, 49089, Note_on_c, 0, 56, 100
1, 49137, Note_off_c, 0, 56, 100
1, 49137, Note_on_c, 0, 52, 100
1, 49185, Note_off_c, 0, 52, 100
1, 49185, Note_on_c, 0, 53, 100
1, 49233, Note_off_c, 0, 53, 100
1, 49233, Note_on_c, 0, 55, 100
1, 49537, Note_off_c, 0, 55, 100
1, 49537, Note_on_c, 0, 54, 100
1, 49569, Note_off_c, 0, 54, 100
1, 49569, Note_on_c, 0, 55, 100
1, 49601, Note_off_c, 0, 55, 100
1, 49601, Note_on_c, 0, 58, 100
1, 49633, Note_off_c, 0, 58, 100
1, 49633, Note_on_c, 0, 60, 100
1, 49665, Note_off_c, 0, 60, 100
1, 49665, Note_on_c, 0, 58, 100
1, 49713, Note_off_c, 0, 58, 100
1, 49713, Note_on_c, 0, 62, 100
1, 49761, Note_off_c, 0, 62, 100
1, 49761, Note_on_c, 0, 63, 100
1, 49881, Note_off_c, 0, 63, 100
1, 49881, Note_on_c, 0, 61, 100
1, 49929, Note_off_c, 0, 61, 100
1, 49929, Note_on_c, 0, 58, 100
1, 49977, Note_off_c, 0, 58, 100
1, 49977, Note_on_c, 0, 60, 100
1, 50001, Note_off_c, 0, 60, 100
1, 50001, Note_on_c, 0, 61, 100
1, 50025, Note_off_c, 0, 61, 100
1, 50025, Note_on_c, 0, 60, 100
1, 50049, Note_off_c, 0, 60, 100
1, 50049, Note_on_c, 0, 61, 100
1, 50097, Note_off_c, 0, 61, 100
1, 50097, Note_on_c, 0, 58, 100
1, 50193, Note_off_c, 0, 58, 100
1, 50577, Note_on_c, 0, 72, 100
1, 50646, Note_off_c, 0, 72, 100
1, 50646, Note_on_c, 0, 69, 100
1, 50688, Note_off_c, 0, 69, 100
1, 50688, Note_on_c, 0, 58, 100
1, 50752, Note_off_c, 0, 58, 100
1, 50752, Note_on_c, 0, 72, 100
1, 50773, Note_off_c, 0, 72, 100
1, 50773, Note_on_c, 0, 69, 100
1, 50794, Note_off_c, 0, 69, 100
1, 50794, Note_on_c, 0, 71, 100
1, 50815, Note_off_c, 0, 71, 100
1, 50815, Note_on_c, 0, 69, 100
1, 50832, Note_off_c, 0, 69, 100
1, 50832, Note_on_c, 0, 65, 100
1, 50866, Note_off_c, 0, 65, 100
1, 50866, Note_on_c, 0, 62, 100
1, 50918, Note_off_c, 0, 62, 100
1, 50918, Note_on_c, 0, 58, 100
1, 50987, Note_off_c, 0, 58, 100
1, 50987, Note_on_c, 0, 57, 100
1, 51004, Note_off_c, 0, 57, 100
1, 51004, Note_on_c, 0, 53, 100
1, 51052, Note_off_c, 0, 53, 100
1, 51052, Note_on_c, 0, 55, 100
1, 51100, Note_off_c, 0, 55, 100
1, 51100, Note_on_c, 0, 56, 100
1, 51148, Note_off_c, 0, 56, 100
1, 51148, Note_on_c, 0, 57, 100
1, 51220, Note_off_c, 0, 57, 100
1, 51220, Note_on_c, 0, 52, 100
1, 51244, Note_off_c, 0, 52, 100
1, 51244, Note_on_c, 0, 51, 100
1, 51316, Note_off_c, 0, 51, 100
1, 51316, Note_on_c, 0, 49, 100
1, 51340, Note_off_c, 0, 49, 100
1, 51340, Note_on_c, 0, 50, 100
1, 51364, Note_off_c, 0, 50, 100
1, 51364, Note_on_c, 0, 51, 100
1, 51388, Note_off_c, 0, 51, 100
1, 51388, Note_on_c, 0, 53, 100
1, 51420, Note_off_c, 0, 53, 100
1, 51420, Note_on_c, 0, 54, 100
1, 51452, Note_off_c, 0, 54, 100
1, 51452, Note_on_c, 0, 55, 100
1, 51484, Note_off_c, 0, 55, 100
1, 51484, Note_on_c, 0, 54, 100
1, 51516, Note_off_c, 0, 54, 100
1, 51516, Note_on_c, 0, 51, 100
1, 51548, Note_off_c, 0, 51, 100
1, 51548, Note_on_c, 0, 50, 100
1, 51702, Note_off_c, 0, 50, 100
1, 51702, Note_on_c, 0, 50, 100
1, 51719, Note_off_c, 0, 50, 100
1, 51719, Note_on_c, 0, 53, 100
1, 51736, Note_off_c, 0, 53, 100
1, 51736, Note_on_c, 0, 55, 100
1, 51753, Note_off_c, 0, 55, 100
1, 51753, Note_on_c, 0, 58, 100
1, 51770, Note_off_c, 0, 58, 100
1, 51770, Note_on_c, 0, 59, 100
1, 51818, Note_off_c, 0, 59, 100
1, 51818, Note_on_c, 0, 61, 100
1, 51866, Note_off_c, 0, 61, 100
1, 51866, Note_on_c, 0, 64, 100
1, 51914, Note_off_c, 0, 64, 100
1, 51914, Note_on_c, 0, 63, 100
1, 51962, Note_off_c, 0, 63, 100
1, 51962, Note_on_c, 0, 60, 100
1, 52016, Note_off_c, 0, 60, 100
1, 52016, Note_on_c, 0, 66, 100
1, 52043, Note_off_c, 0, 66, 100
1, 52043, Note_on_c, 0, 66, 100
1, 52070, Note_off_c, 0, 66, 100
1, 52070, Note_on_c, 0, 65, 100
1, 52097, Note_off_c, 0, 65, 100
1, 52097, Note_on_c, 0, 64, 100
1, 52124, Note_off_c, 0, 64, 100
1, 52124, Note_on_c, 0, 63, 100
1, 52151, Note_off_c, 0, 63, 100
1, 52151, Note_on_c, 0, 62, 100
1, 52183, Note_off_c, 0, 62, 100
1, 52183, Note_on_c, 0, 61, 100
1, 52215, Note_off_c, 0, 61, 100
1, 52215, Note_on_c, 0, 60, 100
1, 52247, Note_off_c, 0, 60, 100
1, 52247, Note_on_c, 0, 65, 100
1, 52279, Note_off_c, 0, 65, 100
1, 52279, Note_on_c, 0, 60, 100
1, 52343, Note_off_c, 0, 60, 100
1, 52343, Note_on_c, 0, 58, 100
1, 52391, Note_off_c, 0, 58, 100
1, 52391, Note_on_c, 0, 56, 100
1, 52439, Note_off_c, 0, 56, 100
1, 52439, Note_on_c, 0, 55, 100
1, 52487, Note_off_c, 0, 55, 100
1, 52487, Note_on_c, 0, 53, 100
1, 52655, Note_off_c, 0, 53, 100
1, 52655, Note_on_c, 0, 51, 100
1, 52679, Note_off_c, 0, 51, 100
1, 52679, Note_on_c, 0, 56, 100
1, 52703, Note_off_c, 0, 56, 100
1, 52703, Note_on_c, 0, 56, 100
1, 52727, Note_off_c, 0, 56, 100
1, 52727, Note_on_c, 0, 58, 100
1, 52765, Note_off_c, 0, 58, 100
1, 52765, Note_on_c, 0, 60, 100
1, 52803, Note_off_c, 0, 60, 100
1, 52803, Note_on_c, 0, 58, 100
1, 52841, Note_off_c, 0, 58, 100
1, 52841, Note_on_c, 0, 60, 100
1, 52879, Note_off_c, 0, 60, 100
1, 52879, Note_on_c, 0, 61, 100
1, 52965, Note_off_c, 0, 61, 100
1, 52965, Note_on_c, 0, 58, 100
1, 53013, Note_off_c, 0, 58, 100
1, 53013, Note_on_c, 0, 60, 100
1, 53061, Note_off_c, 0, 60, 100
1, 53061, Note_on_c, 0, 58, 100
1, 53157, Note_off_c, 0, 58, 100
1, 53339, Note_on_c, 0, 76, 100
1, 53358, Note_off_c, 0, 76, 100
1, 53358, Note_on_c, 0, 77, 100
1, 53377, Note_off_c, 0, 77, 100
1, 53377, Note_on_c, 0, 80, 100
1, 53396, Note_off_c, 0, 80, 100
1, 53396, Note_on_c, 0, 75, 100
1, 53415, Note_off_c, 0, 75, 100
1, 53415, Note_on_c, 0, 76, 100
1, 53472, Note_off_c, 0, 76, 100
1, 53472, Note_on_c, 0, 73, 100
1, 53491, Note_off_c, 0, 73, 100
1, 53491, Note_on_c, 0, 76, 100
1, 53510, Note_off_c, 0, 76, 100
1, 53510, Note_on_c, 0, 72, 100
1, 53529, Note_off_c, 0, 72, 100
1, 53529, Note_on_c, 0, 73, 100
1, 53548, Note_off_c, 0, 73, 100
1, 53548, Note_on_c, 0, 70, 100
1, 53586, Note_off_c, 0, 70, 100
1, 53586, Note_on_c, 0, 68, 100
1, 53624, Note_off_c, 0, 68, 100
1, 53624, Note_on_c, 0, 65, 100
1, 53662, Note_off_c, 0, 65, 100
1, 53662, Note_on_c, 0, 64, 100
1, 53705, Note_off_c, 0, 64, 100
1, 53705, Note_on_c, 0, 63, 100
1, 53753, Note_off_c, 0, 63, 100
1, 53753, Note_on_c, 0, 72, 100
1, 53777, Note_off_c, 0, 72, 100
1, 53777, Note_on_c, 0, 66, 100
1, 53801, Note_off_c, 0, 66, 100
1, 53801, Note_on_c, 0, 67, 100
1, 53825, Note_off_c, 0, 67, 100
1, 53825, Note_on_c, 0, 70, 100
1, 53849, Note_off_c, 0, 70, 100
1, 53849, Note_on_c, 0, 68, 100
1, 53873, Note_off_c, 0, 68, 100
1, 53873, Note_on_c, 0, 60, 100
1, 53921, Note_off_c, 0, 60, 100
1, 53921, Note_on_c, 0, 65, 100
1, 53969, Note_off_c, 0, 65, 100
1, 53969, Note_on_c, 0, 73, 100
1, 54017, Note_off_c, 0, 73, 100
1, 54017, Note_on_c, 0, 72, 100
1, 54065, Note_off_c, 0, 72, 100
1, 54065, Note_on_c, 0, 70, 100
1, 54089, Note_off_c, 0, 70, 100
1, 54089, Note_on_c, 0, 71, 100
1, 54113, Note_off_c, 0, 71, 100
1, 54113, Note_on_c, 0, 64, 100
1, 54161, Note_off_c, 0, 64, 100
1, 54161, Note_on_c, 0, 68, 100
1, 54185, Note_off_c, 0, 68, 100
1, 54185, Note_on_c, 0, 68, 100
1, 54209, Note_off_c, 0, 68, 100
1, 54209, Note_on_c, 0, 67, 100
1, 54257, Note_off_c, 0, 67, 100
1, 54257, Note_on_c, 0, 65, 100
1, 54284, Note_off_c, 0, 65, 100
1, 54284, Note_on_c, 0, 66, 100
1, 54311, Note_off_c, 0, 66, 100
1, 54311, Note_on_c, 0, 65, 100
1, 54338, Note_off_c, 0, 65, 100
1, 54338, Note_on_c, 0, 64, 100
1, 54365, Note_off_c, 0, 64, 100
1, 54365, Note_on_c, 0, 63, 100
1, 54392, Note_off_c, 0, 63, 100
1, 54392, Note_on_c, 0, 61, 100
1, 54419, Note_off_c, 0, 61, 100
1, 54419, Note_on_c, 0, 62, 100
1, 54446, Note_off_c, 0, 62, 100
1, 54446, Note_on_c, 0, 65, 100
1, 54463, Note_off_c, 0, 65, 100
1, 54463, Note_on_c, 0, 62, 100
1, 54480, Note_off_c, 0, 62, 100
1, 54480, Note_on_c, 0, 63, 100
1, 54497, Note_off_c, 0, 63, 100
1, 54497, Note_on_c, 0, 62, 100
1, 54514, Note_off_c, 0, 62, 100
1, 54514, Note_on_c, 0, 58, 100
1, 54548, Note_off_c, 0, 58, 100
1, 54548, Note_on_c, 0, 60, 100
1, 54582, Note_off_c, 0, 60, 100
1, 54582, Note_on_c, 0, 62, 100
1, 54599, Note_off_c, 0, 62, 100
1, 54599, Note_on_c, 0, 58, 100
1, 54681, Note_off_c, 0, 58, 100
1, 54681, Note_on_c, 0, 59, 100
1, 54705, Note_off_c, 0, 59, 100
1, 54705, Note_on_c, 0, 68, 100
1, 54729, Note_off_c, 0, 68, 100
1, 54729, Note_on_c, 0, 71, 100
1, 54753, Note_off_c, 0, 71, 100
1, 54753, Note_on_c, 0, 74, 100
1, 54777, Note_off_c, 0, 74, 100
1, 54777, Note_on_c, 0, 71, 100
1, 54825, Note_off_c, 0, 71, 100
1, 54825, Note_on_c, 0, 59, 100
1, 54833, Note_off_c, 0, 59, 100
1, 54833, Note_on_c, 0, 66, 100
1, 54841, Note_off_c, 0, 66, 100
1, 54841, Note_on_c, 0, 68, 100
1, 54849, Note_off_c, 0, 68, 100
1, 54849, Note_on_c, 0, 71, 100
1, 54865, Note_off_c, 0, 71, 100
1, 54865, Note_on_c, 0, 72, 100
1, 54890, Note_off_c, 0, 72, 100
1, 54890, Note_on_c, 0, 70, 100
1, 54906, Note_off_c, 0, 70, 100
1, 54906, Note_on_c, 0, 70, 100
1, 54922, Note_off_c, 0, 70, 100
1, 54922, Note_on_c, 0, 71, 100
1, 54938, Note_off_c, 0, 71, 100
1, 54938, Note_on_c, 0, 72, 100
1, 54954, Note_off_c, 0, 72, 100
1, 54954, Note_on_c, 0, 72, 100
1, 54962, Note_off_c, 0, 72, 100
1, 54962, Note_on_c, 0, 71, 100
1, 54978, Note_off_c, 0, 71, 100
1, 54978, Note_on_c, 0, 69, 100
1, 54986, Note_off_c, 0, 69, 100
1, 54986, Note_on_c, 0, 67, 100
1, 55002, Note_off_c, 0, 67, 100
1, 55002, Note_on_c, 0, 65, 100
1, 55010, Note_off_c, 0, 65, 100
1, 55010, Note_on_c, 0, 63, 100
1, 55027, Note_off_c, 0, 63, 100
1, 55027, Note_on_c, 0, 59, 100
1, 55044, Note_off_c, 0, 59, 100
1, 55044, Note_on_c, 0, 57, 100
1, 55061, Note_off_c, 0, 57, 100
1, 55061, Note_on_c, 0, 55, 100
1, 55078, Note_off_c, 0, 55, 100
1, 55078, Note_on_c, 0, 53, 100
1, 55095, Note_off_c, 0, 53, 100
1, 55095, Note_on_c, 0, 55, 100
1, 55112, Note_off_c, 0, 55, 100
1, 55112, Note_on_c, 0, 58, 100
1, 55129, Note_off_c, 0, 58, 100
1, 55129, Note_on_c, 0, 60, 100
1, 55146, Note_off_c, 0, 60, 100
1, 55146, Note_on_c, 0, 67, 100
1, 55163, Note_off_c, 0, 67, 100
1, 55163, Note_on_c, 0, 69, 100
1, 55180, Note_off_c, 0, 69, 100
1, 55180, Note_on_c, 0, 73, 100
1, 55197, Note_off_c, 0, 73, 100
1, 55197, Note_on_c, 0, 71, 100
1, 55293, Note_off_c, 0, 71, 100
1, 55293, Note_on_c, 0, 72, 100
1, 55325, Note_off_c, 0, 72, 100
1, 55325, Note_on_c, 0, 70, 100
1, 55357, Note_off_c, 0, 70, 100
1, 55357, Note_on_c, 0, 67, 100
1, 55389, Note_off_c, 0, 67, 100
1, 55389, Note_on_c, 0, 70, 100
1, 55613, Note_off_c, 0, 70, 100
1, 55613, Note_on_c, 0, 67, 100
1, 55645, Note_off_c, 0, 67, 100
1, 55645, Note_on_c, 0, 70, 100
1, 55677, Note_off_c, 0, 70, 100
1, 55677, Note_on_c, 0, 71, 100
1, 55709, Note_off_c, 0, 71, 100
1, 55709, Note_on_c, 0, 73, 100
1, 55741, Note_off_c, 0, 73, 100
1, 55741, Note_on_c, 0, 71, 100
1, 55855, Note_off_c, 0, 71, 100
1, 55855, Note_on_c, 0, 67, 100
1, 55882, Note_off_c, 0, 67, 100
1, 55882, Note_on_c, 0, 70, 100
1, 55909, Note_off_c, 0, 70, 100
1, 55909, Note_on_c, 0, 71, 100
1, 55936, Note_off_c, 0, 71, 100
1, 55936, Note_on_c, 0, 72, 100
1, 55990, Note_off_c, 0, 72, 100
1, 55990, Note_on_c, 0, 72, 100
1, 56017, Note_off_c, 0, 72, 100
1, 56017, Note_on_c, 0, 73, 100
1, 56044, Note_off_c, 0, 73, 100
1, 56044, Note_on_c, 0, 71, 100
1, 56071, Note_off_c, 0, 71, 100
1, 56071, Note_on_c, 0, 72, 100
1, 56098, Note_off_c, 0, 72, 100
1, 56098, Note_on_c, 0, 73, 100
1, 56259, Note_off_c, 0, 73, 100
1, 56259, Note_on_c, 0, 70, 100
1, 56280, Note_off_c, 0, 70, 100
1, 56280, Note_on_c, 0, 66, 100
1, 56301, Note_off_c, 0, 66, 100
1, 56301, Note_on_c, 0, 65, 100
1, 56322, Note_off_c, 0, 65, 100
1, 56322, Note_on_c, 0, 64, 100
1, 56343, Note_off_c, 0, 64, 100
1, 56343, Note_on_c, 0, 63, 100
1, 56391, Note_off_c, 0, 63, 100
1, 56391, Note_on_c, 0, 62, 100
1, 56487, Note_off_c, 0, 62, 100
1, 56487, Note_on_c, 0, 61, 100
1, 56679, Note_off_c, 0, 61, 100
1, 56679, Note_on_c, 0, 61, 100
1, 56727, Note_off_c, 0, 61, 100
1, 56727, Note_on_c, 0, 62, 100
1, 56765, Note_off_c, 0, 62, 100
1, 56765, Note_on_c, 0, 65, 100
1, 56803, Note_off_c, 0, 65, 100
1, 56803, Note_on_c, 0, 72, 100
1, 56841, Note_off_c, 0, 72, 100
1, 56841, Note_on_c, 0, 65, 100
1, 56879, Note_off_c, 0, 65, 100
1, 56879, Note_on_c, 0, 70, 100
1, 56917, Note_off_c, 0, 70, 100
1, 56917, Note_on_c, 0, 68, 100
1, 56955, Note_off_c, 0, 68, 100
1, 56955, Note_on_c, 0, 58, 100
1, 56993, Note_off_c, 0, 58, 100
1, 56993, Note_on_c, 0, 63, 100
1, 57031, Note_off_c, 0, 63, 100
1, 57031, Note_on_c, 0, 67, 100
1, 57069, Note_off_c, 0, 67, 100
1, 57069, Note_on_c, 0, 65, 100
1, 57134, Note_off_c, 0, 65, 100
1, 57134, Note_on_c, 0, 62, 100
1, 57161, Note_off_c, 0, 62, 100
1, 57161, Note_on_c, 0, 58, 100
1, 57188, Note_off_c, 0, 58, 100
1, 57188, Note_on_c, 0, 63, 100
1, 57242, Note_off_c, 0, 63, 100
1, 57242, Note_on_c, 0, 61, 100
1, 57269, Note_off_c, 0, 61, 100
1, 57269, Note_on_c, 0, 56, 100
1, 57296, Note_off_c, 0, 56, 100
1, 57296, Note_on_c, 0, 60, 100
1, 57344, Note_off_c, 0, 60, 100
1, 57344, Note_on_c, 0, 58, 100
1, 57392, Note_off_c, 0, 58, 100
1, 57392, Note_on_c, 0, 53, 100
1, 57440, Note_off_c, 0, 53, 100
1, 57440, Note_on_c, 0, 56, 100
1, 57488, Note_off_c, 0, 56, 100
1, 57488, Note_on_c, 0, 58, 100
1, 57542, Note_off_c, 0, 58, 100
1, 57542, Note_on_c, 0, 56, 100
1, 57569, Note_off_c, 0, 56, 100
1, 57569, Note_on_c, 0, 48, 100
1, 57596, Note_off_c, 0, 48, 100
1, 57596, Note_on_c, 0, 55, 100
1, 57623, Note_off_c, 0, 55, 100
1, 57623, Note_on_c, 0, 56, 100
1, 57650, Note_off_c, 0, 56, 100
1, 57650, Note_on_c, 0, 58, 100
1, 57677, Note_off_c, 0, 58, 100
1, 57677, Note_on_c, 0, 53, 100
1, 57797, Note_off_c, 0, 53, 100
1, 57797, Note_on_c, 0, 51, 100
1, 57821, Note_off_c, 0, 51, 100
1, 57821, Note_on_c, 0, 62, 100
1, 57845, Note_off_c, 0, 62, 100
1, 57845, Note_on_c, 0, 63, 100
1, 57869, Note_off_c, 0, 63, 100
1, 57869, Note_on_c, 0, 59, 100
1, 57901, Note_off_c, 0, 59, 100
1, 57901, Note_on_c, 0, 52, 100
1, 57965, Note_off_c, 0, 52, 100
1, 57965, Note_on_c, 0, 58, 100
1, 57997, Note_off_c, 0, 58, 100
1, 57997, Note_on_c, 0, 56, 100
1, 58029, Note_off_c, 0, 56, 100
1, 58029, Note_on_c, 0, 55, 100
1, 58061, Note_off_c, 0, 55, 100
1, 58061, Note_on_c, 0, 46, 100
1, 58099, Note_off_c, 0, 46, 100
1, 58099, Note_on_c, 0, 48, 100
1, 58137, Note_off_c, 0, 48, 100
1, 58137, Note_on_c, 0, 49, 100
1, 58213, Note_off_c, 0, 49, 100
1, 58213, Note_on_c, 0, 51, 100
1, 58251, Note_off_c, 0, 51, 100
1, 58251, Note_on_c, 0, 51, 100
1, 58299, Note_off_c, 0, 51, 100
1, 58299, Note_on_c, 0, 51, 100
1, 58347, Note_off_c, 0, 51, 100
1, 58347, Note_on_c, 0, 48, 100
1, 58395, Note_off_c, 0, 48, 100
1, 58395, Note_on_c, 0, 51, 100
1, 58875, Note_off_c, 0, 51, 100
1, 58875, Note_on_c, 0, 53, 100
1, 58923, Note_off_c, 0, 53, 100
1, 58923, Note_on_c, 0, 55, 100
1, 58971, Note_off_c, 0, 55, 100
1, 58971, Note_on_c, 0, 58, 100
1, 59019, Note_off_c, 0, 58, 100
1, 59019, Note_on_c, 0, 60, 100
1, 59211, Note_off_c, 0, 60, 100
1, 59211, Note_on_c, 0, 58, 100
1, 59275, Note_off_c, 0, 58, 100
1, 59275, Note_on_c, 0, 55, 100
1, 59339, Note_off_c, 0, 55, 100
1, 59339, Note_on_c, 0, 52, 100
1, 59499, Note_off_c, 0, 52, 100
1, 59499, Note_on_c, 0, 52, 100
1, 59547, Note_off_c, 0, 52, 100
1, 59547, Note_on_c, 0, 51, 100
1, 59643, Note_off_c, 0, 51, 100
1, 59907, Note_on_c, 0, 50, 100
1, 59931, Note_off_c, 0, 50, 100
1, 59931, Note_on_c, 0, 52, 100
1, 59955, Note_off_c, 0, 52, 100
1, 59955, Note_on_c, 0, 50, 100
1, 59979, Note_off_c, 0, 50, 100
1, 59979, Note_on_c, 0, 51, 100
1, 59992, Note_off_c, 0, 51, 100
1, 59992, Note_on_c, 0, 55, 100
1, 60005, Note_off_c, 0, 55, 100
1, 60005, Note_on_c, 0, 58, 100
1, 60046, Note_off_c, 0, 58, 100
1, 60046, Note_on_c, 0, 55, 100
1, 60059, Note_off_c, 0, 55, 100
1, 60059, Note_on_c, 0, 56, 100
1, 60072, Note_off_c, 0, 56, 100
1, 60072, Note_on_c, 0, 58, 100
1, 60085, Note_off_c, 0, 58, 100
1, 60085, Note_on_c, 0, 60, 100
1, 60098, Note_off_c, 0, 60, 100
1, 60098, Note_on_c, 0, 63, 100
1, 60125, Note_off_c, 0, 63, 100
1, 60125, Note_on_c, 0, 67, 100
1, 60138, Note_off_c, 0, 67, 100
1, 60138, Note_on_c, 0, 70, 100
1, 60165, Note_off_c, 0, 70, 100
1, 60165, Note_on_c, 0, 67, 100
1, 60184, Note_off_c, 0, 67, 100
1, 60184, Note_on_c, 0, 68, 100
1, 60203, Note_off_c, 0, 68, 100
1, 60203, Note_on_c, 0, 67, 100
1, 60222, Note_off_c, 0, 67, 100
1, 60222, Note_on_c, 0, 65, 100
1, 60241, Note_off_c, 0, 65, 100
1, 60241, Note_on_c, 0, 64, 100
1, 60260, Note_off_c, 0, 64, 100
1, 60260, Note_on_c, 0, 63, 100
1, 60279, Note_off_c, 0, 63, 100
1, 60279, Note_on_c, 0, 62, 100
1, 60298, Note_off_c, 0, 62, 100
1, 60298, Note_on_c, 0, 60, 100
1, 60317, Note_off_c, 0, 60, 100
1, 60317, Note_on_c, 0, 58, 100
1, 60336, Note_off_c, 0, 58, 100
1, 60336, Note_on_c, 0, 55, 100
1, 60355, Note_off_c, 0, 55, 100
1, 60355, Note_on_c, 0, 56, 100
1, 60387, Note_off_c, 0, 56, 100
1, 60387, Note_on_c, 0, 54, 100
1, 60403, Note_off_c, 0, 54, 100
1, 60403, Note_on_c, 0, 55, 100
1, 60419, Note_off_c, 0, 55, 100
1, 60419, Note_on_c, 0, 53, 100
1, 60435, Note_off_c, 0, 53, 100
1, 60435, Note_on_c, 0, 52, 100
1, 60451, Note_off_c, 0, 52, 100
1, 60451, Note_on_c, 0, 51, 100
1, 60467, Note_off_c, 0, 51, 100
1, 60467, Note_on_c, 0, 50, 100
1, 60483, Note_off_c, 0, 50, 100
1, 60483, Note_on_c, 0, 51, 100
1, 60499, Note_off_c, 0, 51, 100
1, 60499, Note_on_c, 0, 55, 100
1, 60515, Note_off_c, 0, 55, 100
1, 60515, Note_on_c, 0, 58, 100
1, 60547, Note_off_c, 0, 58, 100
1, 60547, Note_on_c, 0, 55, 100
1, 60571, Note_off_c, 0, 55, 100
1, 60571, Note_on_c, 0, 56, 100
1, 60595, Note_off_c, 0, 56, 100
1, 60595, Note_on_c, 0, 58, 100
1, 60619, Note_off_c, 0, 58, 100
1, 60619, Note_on_c, 0, 60, 100
1, 60643, Note_off_c, 0, 60, 100
1, 60643, Note_on_c, 0, 62, 100
1, 60667, Note_off_c, 0, 62, 100
1, 60667, Note_on_c, 0, 79, 100
1, 60715, Note_off_c, 0, 79, 100
1, 60715, Note_on_c, 0, 67, 100
1, 60841, Note_off_c, 0, 67, 100
1, 60841, Note_on_c, 0, 56, 100
1, 60853, Note_off_c, 0, 56, 100
1, 60853, Note_on_c, 0, 66, 100
1, 60865, Note_off_c, 0, 66, 100
1, 60865, Note_on_c, 0, 67, 100
1, 60877, Note_off_c, 0, 67, 100
1, 60877, Note_on_c, 0, 72, 100
1, 60889, Note_off_c, 0, 72, 100
1, 60889, Note_on_c, 0, 79, 100
1, 60901, Note_off_c, 0, 79, 100
1, 60901, Note_on_c, 0, 80, 100
1, 60926, Note_off_c, 0, 80, 100
1, 60926, Note_on_c, 0, 84, 100
1, 60974, Note_off_c, 0, 84, 100
1, 60974, Note_on_c, 0, 75, 100
1, 61022, Note_off_c, 0, 75, 100
1, 61022, Note_on_c, 0, 70, 100
1, 61070, Note_off_c, 0, 70, 100
1, 61070, Note_on_c, 0, 63, 100
1, 61118, Note_off_c, 0, 63, 100
1, 61118, Note_on_c, 0, 70, 100
1, 61150, Note_off_c, 0, 70, 100
1, 61150, Note_on_c, 0, 67, 100
1, 61182, Note_off_c, 0, 67, 100
1, 61182, Note_on_c, 0, 68, 100
1, 61214, Note_off_c, 0, 68, 100
1, 61214, Note_on_c, 0, 60, 100
1, 61246, Note_off_c, 0, 60, 100
1, 61246, Note_on_c, 0, 63, 100
1, 61278, Note_off_c, 0, 63, 100
1, 61278, Note_on_c, 0, 66, 100
1, 61310, Note_off_c, 0, 66, 100
1, 61310, Note_on_c, 0, 67, 100
1, 61337, Note_off_c, 0, 67, 100
1, 61337, Note_on_c, 0, 63, 100
1, 61364, Note_off_c, 0, 63, 100
1, 61364, Note_on_c, 0, 60, 100
1, 61391, Note_off_c, 0, 60, 100
1, 61391, Note_on_c, 0, 64, 100
1, 61418, Note_off_c, 0, 64, 100
1, 61418, Note_on_c, 0, 65, 100
1, 61445, Note_off_c, 0, 65, 100
1, 61445, Note_on_c, 0, 72, 100
1, 61472, Note_off_c, 0, 72, 100
1, 61472, Note_on_c, 0, 73, 100
1, 61499, Note_off_c, 0, 73, 100
1, 61499, Note_on_c, 0, 67, 100
1, 61547, Note_off_c, 0, 67, 100
1, 61547, Note_on_c, 0, 70, 100
1, 61595, Note_off_c, 0, 70, 100
1, 61595, Note_on_c, 0, 68, 100
1, 61643, Note_off_c, 0, 68, 100
1, 61643, Note_on_c, 0, 60, 100
1, 61763, Note_off_c, 0, 60, 100
1, 61763, Note_on_c, 0, 57, 100
1, 61787, Note_off_c, 0, 57, 100
1, 61787, Note_on_c, 0, 60, 100
1, 61811, Note_off_c, 0, 60, 100
1, 61811, Note_on_c, 0, 59, 100
1, 61835, Note_off_c, 0, 59, 100
1, 61835, Note_on_c, 0, 58, 100
1, 61859, Note_off_c, 0, 58, 100
1, 61859, Note_on_c, 0, 70, 100
1, 61883, Note_off_c, 0, 70, 100
1, 61883, Note_on_c, 0, 68, 100
1, 61931, Note_off_c, 0, 68, 100
1, 61931, Note_on_c, 0, 58, 100
1, 61955, Note_off_c, 0, 58, 100
1, 61955, Note_on_c, 0, 63, 100
1, 61979, Note_off_c, 0, 63, 100
1, 61979, Note_on_c, 0, 65, 100
1, 62003, Note_off_c, 0, 65, 100
1, 62003, Note_on_c, 0, 66, 100
1, 62027, Note_off_c, 0, 66, 100
1, 62027, Note_on_c, 0, 67, 100
1, 62051, Note_off_c, 0, 67, 100
1, 62051, Note_on_c, 0, 63, 100
1, 62075, Note_off_c, 0, 63, 100
1, 62075, Note_on_c, 0, 62, 100
1, 62123, Note_off_c, 0, 62, 100
1, 62123, Note_on_c, 0, 65, 100
1, 62171, Note_off_c, 0, 65, 100
1, 62171, Note_on_c, 0, 65, 100
1, 62219, Note_off_c, 0, 65, 100
1, 62219, Note_on_c, 0, 63, 100
1, 62267, Note_off_c, 0, 63, 100
1, 62267, Note_on_c, 0, 65, 100
1, 62459, Note_off_c, 0, 65, 100
1, 62459, Note_on_c, 0, 68, 100
1, 62507, Note_off_c, 0, 68, 100
1, 62507, Note_on_c, 0, 65, 100
1, 62555, Note_off_c, 0, 65, 100
1, 62555, Note_on_c, 0, 64, 100
1, 62603, Note_off_c, 0, 64, 100
1, 62603, Note_on_c, 0, 63, 100
1, 62683, Note_off_c, 0, 63, 100
1, 62683, Note_on_c, 0, 60, 100
1, 62715, Note_off_c, 0, 60, 100
1, 62715, Note_on_c, 0, 61, 100
1, 62747, Note_off_c, 0, 61, 100
1, 62747, Note_on_c, 0, 58, 100
1, 62779, Note_off_c, 0, 58, 100
1, 62779, Note_on_c, 0, 56, 100
1, 62843, Note_off_c, 0, 56, 100
1, 62843, Note_on_c, 0, 58, 100
1, 62971, Note_off_c, 0, 58, 100
1, 62971, Note_on_c, 0, 58, 100
1, 63035, Note_off_c, 0, 58, 100
1, 63035, Note_on_c, 0, 56, 100
1, 63227, Note_off_c, 0, 56, 100
1, 63227, Note_on_c, 0, 55, 100
1, 63419, Note_off_c, 0, 55, 100
1, 63419, Note_on_c, 0, 53, 100
1, 63451, Note_off_c, 0, 53, 100
1, 63451, Note_on_c, 0, 54, 100
1, 63579, Note_off_c, 0, 54, 100
1, 63579, Note_on_c, 0, 53, 100
1, 63803, Note_off_c, 0, 53, 100
1, 63803, Note_on_c, 0, 52, 100
1, 63995, Note_off_c, 0, 52, 100
1, 63995, Note_on_c, 0, 51, 100
1, 64235, Note_off_c, 0, 51, 100
1, 64235, Note_on_c, 0, 49, 100
1, 64283, Note_off_c, 0, 49, 100
1, 64283, Note_on_c, 0, 50, 100
1, 64331, Note_off_c, 0, 50, 100
1, 64331, Note_on_c, 0, 58, 100
1, 64698, Note_off_c, 0, 58, 100
1, 64698, End_track
0, 0, End_of_file
