0, 0, Header, 1, 1, 192
1, 0, Start_track
1, 0, Title_t, "Melody"
1, 0, Tempo, 909090
1, 0, Key_signature, -5, "major"
1, 0, Time_signature, 4, 2, 24, 8
1, 255, Note_on_c, 0, 46, 100
1, 287, Note_off_c, 0, 46, 100
1, 287, Note_on_c, 0, 48, 100
1, 319, Note_off_c, 0, 48, 100
1, 319, Note_on_c, 0, 49, 100
1, 350, Note_off_c, 0, 49, 100
1, 350, Note_on_c, 0, 51, 100
1, 382, Note_off_c, 0, 51, 100
1, 382, Note_on_c, 0, 53, 100
1, 445, Note_off_c, 0, 53, 100
1, 445, Note_on_c, 0, 54, 100
1, 509, Note_off_c, 0, 54, 100
1, 509, Note_on_c, 0, 56, 100
1, 573, Note_off_c, 0, 56, 100
1, 573, Note_on_c, 0, 58, 100
1, 611, Note_off_c, 0, 58, 100
1, 611, Note_on_c, 0, 60, 100
1, 649, Note_off_c, 0, 60, 100
1, 649, Note_on_c, 0, 61, 100
1, 687, Note_off_c, 0, 61, 100
1, 687, Note_on_c, 0, 63, 100
1, 725, Note_off_c, 0, 63, 100
1, 725, Note_on_c, 0, 65, 100
1, 763, Note_off_c, 0, 65, 100
1, 763, Note_on_c, 0, 68, 100
1, 811, Note_off_c, 0, 68, 100
1, 811, Note_on_c, 0, 60, 100
1, 859, Note_off_c, 0, 60, 100
1, 859, Note_on_c, 0, 70, 100
1, 907, Note_off_c, 0, 70, 100
1, 907, Note_on_c, 0, 68, 100
1, 955, Note_off_c, 0, 68, 100
1, 955, Note_on_c, 0, 61, 100
1, 993, Note_off_c, 0, 61, 100
1, 993, Note_on_c, 0, 66, 100
1, 1031, Note_off_c, 0, 66, 100
1, 1031, Note_on_c, 0, 65, 100
1, 1069, Note_off_c, 0, 65, 100
1, 1069, Note_on_c, 0, 61, 100
1, 1107, Note_off_c, 0, 61, 100
1, 1107, Note_on_c, 0, 63, 100
1, 1193, Note_off_c, 0, 63, 100
1, 1193, Note_on_c, 0, 56, 100
1, 1241, Note_off_c, 0, 56, 100
1, 1241, Note_on_c, 0, 58, 100
1, 1529, Note_off_c, 0, 58, 100
1, 1529, Note_on_c, 0, 70, 100
1, 1553, Note_off_c, 0, 70, 100
1, 1553, Note_on_c, 0, 71, 100
1, 1577, Note_off_c, 0, 71, 100
1, 1577, Note_on_c, 0, 70, 100
1, 1601, Note_off_c, 0, 70, 100
1, 1601, Note_on_c, 0, 66, 100
1, 1625, Note_off_c, 0, 66, 100
1, 1625, Note_on_c, 0, 63, 100
1, 1649, Note_off_c, 0, 63, 100
1, 1649, Note_on_c, 0, 59, 100
1, 1673, Note_off_c, 0, 59, 100
1, 1673, Note_on_c, 0, 57, 100
1, 1721, Note_off_c, 0, 57, 100
1, 1721, Note_on_c, 0, 56, 100
1, 1759, Note_off_c, 0, 56, 100
1, 1759, Note_on_c, 0, 58, 100
1, 1797, Note_off_c, 0, 58, 100
1, 1797, Note_on_c, 0, 54, 100
1, 1835, Note_off_c, 0, 54, 100
1, 1835, Note_on_c, 0, 56, 100
1, 1911, Note_off_c, 0, 56, 100
1, 1911, Note_on_c, 0, 54, 100
1, 1949, Note_off_c, 0, 54, 100
1, 1949, Note_on_c, 0, 53, 100
1, 1987, Note_off_c, 0, 53, 100
1, 1987, Note_on_c, 0, 49, 100
1, 2025, Note_off_c, 0, 49, 100
1, 2025, Note_on_c, 0, 51, 100
1, 2063, Note_off_c, 0, 51, 100
1, 2063, Note_on_c, 0, 46, 100
1, 2101, Note_off_c, 0, 46, 100
1, 2101, Note_on_c, 0, 51, 100
1, 2165, Note_off_c, 0, 51, 100
1, 2165, Note_on_c, 0, 58, 100
1, 2229, Note_off_c, 0, 58, 100
1, 2229, Note_on_c, 0, 63, 100
1, 2293, Note_off_c, 0, 63, 100
1, 2293, Note_on_c, 0, 70, 100
1, 2389, Note_off_c, 0, 70, 100
1, 2389, Note_on_c, 0, 68, 100
1, 2709, Note_off_c, 0, 68, 100
1, 2709, Note_on_c, 0, 72, 100
1, 2741, Note_off_c, 0, 72, 100
1, 2741, Note_on_c, 0, 73, 100
1, 2773, Note_off_c, 0, 73, 100
1, 2773, Note_on_c, 0, 72, 100
1, 2837, Note_off_c, 0, 72, 100
1, 2837, Note_on_c, 0, 70, 100
1, 2869, Note_off_c, 0, 70, 100
1, 2869, Note_on_c, 0, 68, 100
1, 2917, Note_off_c, 0, 68, 100
1, 2917, Note_on_c, 0, 72, 100
1, 2965, Note_off_c, 0, 72, 100
1, 2965, Note_on_c, 0, 68, 100
1, 3013, Note_off_c, 0, 68, 100
1, 3013, Note_on_c, 0, 70, 100
1, 3061, Note_off_c, 0, 70, 100
1, 3061, Note_on_c, 0, 66, 100
1, 3099, Note_off_c, 0, 66, 100
1, 3099, Note_on_c, 0, 68, 100
1, 3137, Note_off_c, 0, 68, 100
1, 3137, Note_on_c, 0, 65, 100
1, 3175, Note_off_c, 0, 65, 100
1, 3175, Note_on_c, 0, 71, 100
1, 3213, Note_off_c, 0, 71, 100
1, 3213, Note_on_c, 0, 64, 100
1, 3251, Note_off_c, 0, 64, 100
1, 3251, Note_on_c, 0, 68, 100
1, 3299, Note_off_c, 0, 68, 100
1, 3299, Note_on_c, 0, 61, 100
1, 3323, Note_off_c, 0, 61, 100
1, 3323, Note_on_c, 0, 66, 100
1, 3371, Note_off_c, 0, 66, 100
1, 3371, Note_on_c, 0, 59, 100
1, 3395, Note_off_c, 0, 59, 100
1, 3395, Note_on_c, 0, 64, 100
1, 3419, Note_off_c, 0, 64, 100
1, 3419, Note_on_c, 0, 58, 100
1, 3443, Note_off_c, 0, 58, 100
1, 3443, Note_on_c, 0, 63, 100
1, 3475, Note_off_c, 0, 63, 100
1, 3475, Note_on_c, 0, 65, 100
1, 3507, Note_off_c, 0, 65, 100
1, 3507, Note_on_c, 0, 61, 100
1, 3539, Note_off_c, 0, 61, 100
1, 3539, Note_on_c, 0, 58, 100
1, 3571, Note_off_c, 0, 58, 100
1, 3571, Note_on_c, 0, 63, 100
1, 3603, Note_off_c, 0, 63, 100
1, 3603, Note_on_c, 0, 60, 100
1, 3635, Note_off_c, 0, 60, 100
1, 3635, Note_on_c, 0, 56, 100
1, 3689, Note_off_c, 0, 56, 100
1, 3689, Note_on_c, 0, 58, 100
1, 3716, Note_off_c, 0, 58, 100
1, 3716, Note_on_c, 0, 55, 100
1, 3743, Note_off_c, 0, 55, 100
1, 3743, Note_on_c, 0, 56, 100
1, 3770, Note_off_c, 0, 56, 100
1, 3770, Note_on_c, 0, 53, 100
1, 3797, Note_off_c, 0, 53, 100
1, 3797, Note_on_c, 0, 48, 100
1, 3824, Note_off_c, 0, 48, 100
1, 3824, Note_on_c, 0, 51, 100
1, 3872, Note_off_c, 0, 51, 100
1, 3872, Note_on_c, 0, 53, 100
1, 4112, Note_off_c, 0, 53, 100
1, 4112, Note_on_c, 0, 61, 100
1, 4144, Note_off_c, 0, 61, 100
1, 4144, Note_on_c, 0, 58, 100
1, 4176, Note_off_c, 0, 58, 100
1, 4176, Note_on_c, 0, 54, 100
1, 4240, Note_off_c, 0, 54, 100
1, 4240, Note_on_c, 0, 71, 100
1, 4272, Note_off_c, 0, 71, 100
1, 4272, Note_on_c, 0, 73, 100
1, 4304, Note_off_c, 0, 73, 100
1, 4304, Note_on_c, 0, 71, 100
1, 4336, Note_off_c, 0, 71, 100
1, 4336, Note_on_c, 0, 73, 100
1, 4400, Note_off_c, 0, 73, 100
1, 4400, Note_on_c, 0, 70, 100
1, 4432, Note_off_c, 0, 70, 100
1, 4432, Note_on_c, 0, 66, 100
1, 4464, Note_off_c, 0, 66, 100
1, 4464, Note_on_c, 0, 75, 100
1, 4496, Note_off_c, 0, 75, 100
1, 4496, Note_on_c, 0, 77, 100
1, 4560, Note_off_c, 0, 77, 100
1, 4560, Note_on_c, 0, 73, 100
1, 4630, Note_off_c, 0, 73, 100
1, 4630, Note_on_c, 0, 61, 100
1, 4668, Note_off_c, 0, 61, 100
1, 4668, Note_on_c, 0, 65, 100
1, 4706, Note_off_c, 0, 65, 100
1, 4706, Note_on_c, 0, 63, 100
1, 4744, Note_off_c, 0, 63, 100
1, 4744, Note_on_c, 0, 56, 100
1, 4782, Note_off_c, 0, 56, 100
1, 4782, Note_on_c, 0, 60, 100
1, 4846, Note_off_c, 0, 60, 100
1, 4846, Note_on_c, 0, 53, 100
1, 4910, Note_off_c, 0, 53, 100
1, 4910, Note_on_c, 0, 56, 100
1, 4974, Note_off_c, 0, 56, 100
1, 4974, Note_on_c, 0, 58, 100
1, 5022, Note_off_c, 0, 58, 100
1, 5022, Note_on_c, 0, 53, 100
1, 5070, Note_off_c, 0, 53, 100
1, 5070, Note_on_c, 0, 46, 100
1, 5118, Note_off_c, 0, 46, 100
1, 5118, Note_on_c, 0, 51, 100
1, 5166, Note_off_c, 0, 51, 100
1, 5166, Note_on_c, 0, 58, 100
1, 5204, Note_off_c, 0, 58, 100
1, 5204, Note_on_c, 0, 56, 100
1, 5242, Note_off_c, 0, 56, 100
1, 5242, Note_on_c, 0, 63, 100
1, 5280, Note_off_c, 0, 63, 100
1, 5280, Note_on_c, 0, 61, 100
1, 5318, Note_off_c, 0, 61, 100
1, 5318, Note_on_c, 0, 66, 100
1, 5356, Note_off_c, 0, 66, 100
1, 5356, Note_on_c, 0, 63, 100
1, 5394, Note_off_c, 0, 63, 100
1, 5394, Note_on_c, 0, 68, 100
1, 5432, Note_off_c, 0, 68, 100
1, 5432, Note_on_c, 0, 66, 100
1, 5470, Note_off_c, 0, 66, 100
1, 5470, Note_on_c, 0, 70, 100
1, 5508, Note_off_c, 0, 70, 100
1, 5508, Note_on_c, 0, 67, 100
1, 5546, Note_off_c, 0, 67, 100
1, 5546, Note_on_c, 0, 65, 100
1, 5563, Note_off_c, 0, 65, 100
1, 5563, Note_on_c, 0, 66, 100
1, 5580, Note_off_c, 0, 66, 100
1, 5580, Note_on_c, 0, 65, 100
1, 5597, Note_off_c, 0, 65, 100
1, 5597, Note_on_c, 0, 63, 100
1, 5649, Note_off_c, 0, 63, 100
1, 5649, Note_on_c, 0, 65, 100
1, 5683, Note_off_c, 0, 65, 100
1, 5683, Note_on_c, 0, 61, 100
1, 5717, Note_off_c, 0, 61, 100
1, 5717, Note_on_c, 0, 58, 100
1, 5734, Note_off_c, 0, 58, 100
1, 5734, Note_on_c, 0, 63, 100
1, 5766, Note_off_c, 0, 63, 100
1, 5766, Note_on_c, 0, 60, 100
1, 5798, Note_off_c, 0, 60, 100
1, 5798, Note_on_c, 0, 56, 100
1, 5830, Note_off_c, 0, 56, 100
1, 5830, Note_on_c, 0, 51, 100
1, 5862, Note_off_c, 0, 51, 100
1, 5862, Note_on_c, 0, 58, 100
1, 5894, Note_off_c, 0, 58, 100
1, 5894, Note_on_c, 0, 55, 100
1, 5926, Note_off_c, 0, 55, 100
1, 5926, Note_on_c, 0, 48, 100
1, 6118, Note_off_c, 0, 48, 100
1, 6118, Note_on_c, 0, 52, 100
1, 6139, Note_off_c, 0, 52, 100
1, 6139, Note_on_c, 0, 51, 100
1, 6160, Note_off_c, 0, 51, 100
1, 6160, Note_on_c, 0, 50, 100
1, 6202, Note_off_c, 0, 50, 100
1, 6202, Note_on_c, 0, 59, 100
1, 6266, Note_off_c, 0, 59, 100
1, 6266, Note_on_c, 0, 57, 100
1, 6287, Note_off_c, 0, 57, 100
1, 6287, Note_on_c, 0, 56, 100
1, 6308, Note_off_c, 0, 56, 100
1, 6308, Note_on_c, 0, 54, 100
1, 6325, Note_off_c, 0, 54, 100
1, 6325, Note_on_c, 0, 53, 100
1, 6359, Note_off_c, 0, 53, 100
1, 6359, Note_on_c, 0, 60, 100
1, 6446, Note_off_c, 0, 60, 100
1, 6446, Note_on_c, 0, 58, 100
1, 6463, Note_off_c, 0, 58, 100
1, 6463, Note_on_c, 0, 56, 100
1, 6480, Note_off_c, 0, 56, 100
1, 6480, Note_on_c, 0, 63, 100
1, 6552, Note_off_c, 0, 63, 100
1, 6552, Note_on_c, 0, 62, 100
1, 6579, Note_off_c, 0, 62, 100
1, 6579, Note_on_c, 0, 61, 100
1, 6606, Note_off_c, 0, 61, 100
1, 6606, Note_on_c, 0, 59, 100
1, 6660, Note_off_c, 0, 59, 100
1, 6660, Note_on_c, 0, 65, 100
1, 6687, Note_off_c, 0, 65, 100
1, 6687, Note_on_c, 0, 70, 100
1, 6719, Note_off_c, 0, 70, 100
1, 6719, Note_on_c, 0, 68, 100
1, 6751, Note_off_c, 0, 68, 100
1, 6751, Note_on_c, 0, 66, 100
1, 6783, Note_off_c, 0, 66, 100
1, 6783, Note_on_c, 0, 65, 100
1, 6815, Note_off_c, 0, 65, 100
1, 6815, Note_on_c, 0, 60, 100
1, 6847, Note_off_c, 0, 60, 100
1, 6847, Note_on_c, 0, 58, 100
1, 6879, Note_off_c, 0, 58, 100
1, 6879, Note_on_c, 0, 51, 100
1, 6927, Note_off_c, 0, 51, 100
1, 6927, Note_on_c, 0, 48, 100
1, 7167, Note_off_c, 0, 48, 100
1, 7167, Note_on_c, 0, 73, 100
1, 7191, Note_off_c, 0, 73, 100
1, 7191, Note_on_c, 0, 75, 100
1, 7215, Note_off_c, 0, 75, 100
1, 7215, Note_on_c, 0, 73, 100
1, 7239, Note_off_c, 0, 73, 100
1, 7239, Note_on_c, 0, 75, 100
1, 7263, Note_off_c, 0, 75, 100
1, 7263, Note_on_c, 0, 73, 100
1, 7295, Note_off_c, 0, 73, 100
1, 7295, Note_on_c, 0, 75, 100
1, 7327, Note_off_c, 0, 75, 100
1, 7327, Note_on_c, 0, 73, 100
1, 7391, Note_off_c, 0, 73, 100
1, 7391, Note_on_c, 0, 73, 100
1, 7423, Note_off_c, 0, 73, 100
1, 7423, Note_on_c, 0, 70, 100
1, 7472, Note_off_c, 0, 70, 100
1, 7472, Note_on_c, 0, 61, 100
1, 7506, Note_off_c, 0, 61, 100
1, 7506, Note_on_c, 0, 65, 100
1, 7558, Note_off_c, 0, 65, 100
1, 7558, Note_on_c, 0, 70, 100
1, 7575, Note_off_c, 0, 70, 100
1, 7575, Note_on_c, 0, 72, 100
1, 7609, Note_off_c, 0, 72, 100
1, 7609, Note_on_c, 0, 70, 100
1, 7626, Note_off_c, 0, 70, 100
1, 7626, Note_on_c, 0, 72, 100
1, 7667, Note_off_c, 0, 72, 100
1, 7667, Note_on_c, 0, 68, 100
1, 7715, Note_off_c, 0, 68, 100
1, 7715, Note_on_c, 0, 68, 100
1, 7739, Note_off_c, 0, 68, 100
1, 7739, Note_on_c, 0, 58, 100
1, 7763, Note_off_c, 0, 58, 100
1, 7763, Note_on_c, 0, 59, 100
1, 7787, Note_off_c, 0, 59, 100
1, 7787, Note_on_c, 0, 59, 100
1, 7835, Note_off_c, 0, 59, 100
1, 7835, Note_on_c, 0, 69, 100
1, 7859, Note_off_c, 0, 69, 100
1, 7859, Note_on_c, 0, 70, 100
1, 7883, Note_off_c, 0, 70, 100
1, 7883, Note_on_c, 0, 69, 100
1, 7907, Note_off_c, 0, 69, 100
1, 7907, Note_on_c, 0, 70, 100
1, 7931, Note_off_c, 0, 70, 100
1, 7931, Note_on_c, 0, 61, 100
1, 7979, Note_off_c, 0, 61, 100
1, 7979, Note_on_c, 0, 61, 100
1, 8003, Note_off_c, 0, 61, 100
1, 8003, Note_on_c, 0, 56, 100
1, 8051, Note_off_c, 0, 56, 100
1, 8051, Note_on_c, 0, 56, 100
1, 8075, Note_off_c, 0, 56, 100
1, 8075, Note_on_c, 0, 61, 100
1, 8099, Note_off_c, 0, 61, 100
1, 8099, Note_on_c, 0, 62, 100
1, 8123, Note_off_c, 0, 62, 100
1, 8123, Note_on_c, 0, 61, 100
1, 8147, Note_off_c, 0, 61, 100
1, 8147, Note_on_c, 0, 62, 100
1, 8195, Note_off_c, 0, 62, 100
1, 8195, Note_on_c, 0, 56, 100
1, 8219, Note_off_c, 0, 56, 100
1, 8219, Note_on_c, 0, 56, 100
1, 8257, Note_off_c, 0, 56, 100
1, 8257, Note_on_c, 0, 59, 100
1, 8295, Note_off_c, 0, 59, 100
1, 8295, Note_on_c, 0, 60, 100
1, 8371, Note_off_c, 0, 60, 100
1, 8371, Note_on_c, 0, 51, 100
1, 8409, Note_off_c, 0, 51, 100
1, 8409, Note_on_c, 0, 58, 100
1, 8505, Note_off_c, 0, 58, 100
1, 8745, Note_on_c, 0, 56, 100
1, 8817, Note_off_c, 0, 56, 100
1, 8817, Note_on_c, 0, 61, 100
1, 8841, Note_off_c, 0, 61, 100
1, 8841, Note_on_c, 0, 62, 100
1, 8889, Note_off_c, 0, 62, 100
1, 8889, Note_on_c, 0, 61, 100
1, 8937, Note_off_c, 0, 61, 100
1, 8937, Note_on_c, 0, 60, 100
1, 8985, Note_off_c, 0, 60, 100
1, 8985, Note_on_c, 0, 59, 100
1, 9049, Note_off_c, 0, 59, 100
1, 9049, Note_on_c, 0, 58, 100
1, 9081, Note_off_c, 0, 58, 100
1, 9081, Note_on_c, 0, 56, 100
1, 9113, Note_off_c, 0, 56, 100
1, 9113, Note_on_c, 0, 58, 100
1, 9145, Note_off_c, 0, 58, 100
1, 9145, Note_on_c, 0, 59, 100
1, 9201, Note_off_c, 0, 59, 100
1, 9201, Note_on_c, 0, 63, 100
1, 9225, Note_off_c, 0, 63, 100
1, 9225, Note_on_c, 0, 66, 100
1, 9249, Note_off_c, 0, 66, 100
1, 9249, Note_on_c, 0, 67, 100
1, 9273, Note_off_c, 0, 67, 100
1, 9273, Note_on_c, 0, 69, 100
1, 9297, Note_off_c, 0, 69, 100
1, 9297, Note_on_c, 0, 70, 100
1, 9321, Note_off_c, 0, 70, 100
1, 9321, Note_on_c, 0, 74, 100
1, 9345, Note_off_c, 0, 74, 100
1, 9345, Note_on_c, 0, 76, 100
1, 9393, Note_off_c, 0, 76, 100
1, 9393, Note_on_c, 0, 77, 100
1, 9489, Note_off_c, 0, 77, 100
1, 9489, Note_on_c, 0, 76, 100
1, 9513, Note_off_c, 0, 76, 100
1, 9513, Note_on_c, 0, 77, 100
1, 9537, Note_off_c, 0, 77, 100
1, 9537, Note_on_c, 0, 76, 100
1, 9561, Note_off_c, 0, 76, 100
1, 9561, Note_on_c, 0, 74, 100
1, 9609, Note_off_c, 0, 74, 100
1, 9609, Note_on_c, 0, 76, 100
1, 9657, Note_off_c, 0, 76, 100
1, 9657, Note_on_c, 0, 77, 100
1, 9801, Note_off_c, 0, 77, 100
1, 9801, Note_on_c, 0, 75, 100
1, 9849, Note_off_c, 0, 75, 100
1, 9849, Note_on_c, 0, 78, 100
1, 9993, Note_off_c, 0, 78, 100
1, 9993, Note_on_c, 0, 75, 100
1, 10041, Note_off_c, 0, 75, 100
1, 10041, Note_on_c, 0, 76, 100
1, 10089, Note_off_c, 0, 76, 100
1, 10089, Note_on_c, 0, 77, 100
1, 10213, Note_off_c, 0, 77, 100
1, 10213, Note_on_c, 0, 76, 100
1, 10251, Note_off_c, 0, 76, 100
1, 10251, Note_on_c, 0, 71, 100
1, 10289, Note_off_c, 0, 71, 100
1, 10289, Note_on_c, 0, 75, 100
1, 10423, Note_off_c, 0, 75, 100
1, 10423, Note_on_c, 0, 73, 100
1, 10455, Note_off_c, 0, 73, 100
1, 10455, Note_on_c, 0, 72, 100
1, 10487, Note_off_c, 0, 72, 100
1, 10487, Note_on_c, 0, 71, 100
1, 10583, Note_off_c, 0, 71, 100
1, 10759, Note_on_c, 0, 72, 100
1, 10783, Note_off_c, 0, 72, 100
1, 10783, Note_on_c, 0, 73, 100
1, 10807, Note_off_c, 0, 73, 100
1, 10807, Note_on_c, 0, 71, 100
1, 10831, Note_off_c, 0, 71, 100
1, 10831, Note_on_c, 0, 70, 100
1, 10855, Note_off_c, 0, 70, 100
1, 10855, Note_on_c, 0, 68, 100
1, 10879, Note_off_c, 0, 68, 100
1, 10879, Note_on_c, 0, 66, 100
1, 10903, Note_off_c, 0, 66, 100
1, 10903, Note_on_c, 0, 68, 100
1, 10930, Note_off_c, 0, 68, 100
1, 10930, Note_on_c, 0, 65, 100
1, 10957, Note_off_c, 0, 65, 100
1, 10957, Note_on_c, 0, 61, 100
1, 10984, Note_off_c, 0, 61, 100
1, 10984, Note_on_c, 0, 59, 100
1, 11011, Note_off_c, 0, 59, 100
1, 11011, Note_on_c, 0, 65, 100
1, 11038, Note_off_c, 0, 65, 100
1, 11038, Note_on_c, 0, 60, 100
1, 11065, Note_off_c, 0, 60, 100
1, 11065, Note_on_c, 0, 56, 100
1, 11092, Note_off_c, 0, 56, 100
1, 11092, Note_on_c, 0, 51, 100
1, 11116, Note_off_c, 0, 51, 100
1, 11116, Note_on_c, 0, 58, 100
1, 11164, Note_off_c, 0, 58, 100
1, 11164, Note_on_c, 0, 56, 100
1, 11188, Note_off_c, 0, 56, 100
1, 11188, Note_on_c, 0, 54, 100
1, 11212, Note_off_c, 0, 54, 100
1, 11212, Note_on_c, 0, 53, 100
1, 11236, Note_off_c, 0, 53, 100
1, 11236, Note_on_c, 0, 49, 100
1, 11260, Note_off_c, 0, 49, 100
1, 11260, Note_on_c, 0, 51, 100
1, 11284, Note_off_c, 0, 51, 100
1, 11284, Note_on_c, 0, 46, 100
1, 11322, Note_off_c, 0, 46, 100
1, 11322, Note_on_c, 0, 51, 100
1, 11360, Note_off_c, 0, 51, 100
1, 11360, Note_on_c, 0, 58, 100
1, 11398, Note_off_c, 0, 58, 100
1, 11398, Note_on_c, 0, 56, 100
1, 11436, Note_off_c, 0, 56, 100
1, 11436, Note_on_c, 0, 63, 100
1, 11474, Note_off_c, 0, 63, 100
1, 11474, Note_on_c, 0, 61, 100
1, 11522, Note_off_c, 0, 61, 100
1, 11522, Note_on_c, 0, 68, 100
1, 11570, Note_off_c, 0, 68, 100
1, 11570, Note_on_c, 0, 66, 100
1, 11618, Note_off_c, 0, 66, 100
1, 11618, Note_on_c, 0, 65, 100
1, 11666, Note_off_c, 0, 65, 100
1, 11666, Note_on_c, 0, 63, 100
1, 11708, Note_off_c, 0, 63, 100
1, 11708, Note_on_c, 0, 60, 100
1, 11750, Note_off_c, 0, 60, 100
1, 11750, Note_on_c, 0, 56, 100
1, 11771, Note_off_c, 0, 56, 100
1, 11771, Note_on_c, 0, 51, 100
1, 11813, Note_off_c, 0, 51, 100
1, 11813, Note_on_c, 0, 57, 100
1, 11834, Note_off_c, 0, 57, 100
1, 11834, Note_on_c, 0, 58, 100
1, 11970, Note_off_c, 0, 58, 100
1, 11970, Note_on_c, 0, 60, 100
1, 12008, Note_off_c, 0, 60, 100
1, 12008, Note_on_c, 0, 56, 100
1, 12084, Note_off_c, 0, 56, 100
1, 12084, Note_on_c, 0, 58, 100
1, 12122, Note_off_c, 0, 58, 100
1, 12122, Note_on_c, 0, 60, 100
1, 12160, Note_off_c, 0, 60, 100
1, 12160, Note_on_c, 0, 63, 100
1, 12198, Note_off_c, 0, 63, 100
1, 12198, Note_on_c, 0, 63, 100
1, 12236, Note_off_c, 0, 63, 100
1, 12236, Note_on_c, 0, 61, 100
1, 12274, Note_off_c, 0, 61, 100
1, 12274, Note_on_c, 0, 63, 100
1, 12312, Note_off_c, 0, 63, 100
1, 12312, Note_on_c, 0, 66, 100
1, 12350, Note_off_c, 0, 66, 100
1, 12350, Note_on_c, 0, 68, 100
1, 12388, Note_off_c, 0, 68, 100
1, 12388, Note_on_c, 0, 65, 100
1, 12426, Note_off_c, 0, 65, 100
1, 12426, Note_on_c, 0, 68, 100
1, 12474, Note_off_c, 0, 68, 100
1, 12474, Note_on_c, 0, 70, 100
1, 12522, Note_off_c, 0, 70, 100
1, 12522, Note_on_c, 0, 71, 100
1, 12690, Note_off_c, 0, 71, 100
1, 12690, Note_on_c, 0, 62, 100
1, 12714, Note_off_c, 0, 62, 100
1, 12714, Note_on_c, 0, 62, 100
1, 12738, Note_off_c, 0, 62, 100
1, 12738, Note_on_c, 0, 61, 100
1, 12762, Note_off_c, 0, 61, 100
1, 12762, Note_on_c, 0, 62, 100
1, 12810, Note_off_c, 0, 62, 100
1, 12810, Note_on_c, 0, 64, 100
1, 12858, Note_off_c, 0, 64, 100
1, 12858, Note_on_c, 0, 66, 100
1, 12906, Note_off_c, 0, 66, 100
1, 12906, Note_on_c, 0, 69, 100
1, 12954, Note_off_c, 0, 69, 100
1, 12954, Note_on_c, 0, 66, 100
1, 13002, Note_off_c, 0, 66, 100
1, 13002, Note_on_c, 0, 71, 100
1, 13050, Note_off_c, 0, 71, 100
1, 13050, Note_on_c, 0, 73, 100
1, 13146, Note_off_c, 0, 73, 100
1, 13146, Note_on_c, 0, 71, 100
1, 13218, Note_off_c, 0, 71, 100
1, 13218, Note_on_c, 0, 69, 100
1, 13242, Note_off_c, 0, 69, 100
1, 13242, Note_on_c, 0, 66, 100
1, 13290, Note_off_c, 0, 66, 100
1, 13290, Note_on_c, 0, 71, 100
1, 13314, Note_off_c, 0, 71, 100
1, 13314, Note_on_c, 0, 69, 100
1, 13338, Note_off_c, 0, 69, 100
1, 13338, Note_on_c, 0, 66, 100
1, 13362, Note_off_c, 0, 66, 100
1, 13362, Note_on_c, 0, 64, 100
1, 13386, Note_off_c, 0, 64, 100
1, 13386, Note_on_c, 0, 61, 100
1, 13407, Note_off_c, 0, 61, 100
1, 13407, Note_on_c, 0, 59, 100
1, 13428, Note_off_c, 0, 59, 100
1, 13428, Note_on_c, 0, 66, 100
1, 13449, Note_off_c, 0, 66, 100
1, 13449, Note_on_c, 0, 64, 100
1, 13470, Note_off_c, 0, 64, 100
1, 13470, Note_on_c, 0, 61, 100
1, 13491, Note_off_c, 0, 61, 100
1, 13491, Note_on_c, 0, 59, 100
1, 13512, Note_off_c, 0, 59, 100
1, 13512, Note_on_c, 0, 54, 100
1, 13554, Note_off_c, 0, 54, 100
1, 13554, Note_on_c, 0, 57, 100
1, 13575, Note_off_c, 0, 57, 100
1, 13575, Note_on_c, 0, 59, 100
1, 13607, Note_off_c, 0, 59, 100
1, 13607, Note_on_c, 0, 54, 100
1, 13639, Note_off_c, 0, 54, 100
1, 13639, Note_on_c, 0, 57, 100
1, 13735, Note_off_c, 0, 57, 100
1, 13735, Note_on_c, 0, 50, 100
1, 13873, Note_off_c, 0, 50, 100
1, 13873, Note_on_c, 0, 50, 100
1, 13894, Note_off_c, 0, 50, 100
1, 13894, Note_on_c, 0, 49, 100
1, 13915, Note_off_c, 0, 49, 100
1, 13915, Note_on_c, 0, 50, 100
1, 13936, Note_off_c, 0, 50, 100
1, 13936, Note_on_c, 0, 52, 100
1, 13957, Note_off_c, 0, 52, 100
1, 13957, Note_on_c, 0, 59, 100
1, 13989, Note_off_c, 0, 59, 100
1, 13989, Note_on_c, 0, 57, 100
1, 14053, Note_off_c, 0, 57, 100
1, 14053, Note_on_c, 0, 53, 100
1, 14085, Note_off_c, 0, 53, 100
1, 14085, Note_on_c, 0, 54, 100
1, 14117, Note_off_c, 0, 54, 100
1, 14117, Note_on_c, 0, 57, 100
1, 14149, Note_off_c, 0, 57, 100
1, 14149, Note_on_c, 0, 53, 100
1, 14176, Note_off_c, 0, 53, 100
1, 14176, Note_on_c, 0, 54, 100
1, 14203, Note_off_c, 0, 54, 100
1, 14203, Note_on_c, 0, 57, 100
1, 14257, Note_off_c, 0, 57, 100
1, 14257, Note_on_c, 0, 62, 100
1, 14284, Note_off_c, 0, 62, 100
1, 14284, Note_on_c, 0, 64, 100
1, 14338, Note_off_c, 0, 64, 100
1, 14338, Note_on_c, 0, 61, 100
1, 14386, Note_off_c, 0, 61, 100
1, 14386, Note_on_c, 0, 56, 100
1, 14568, Note_off_c, 0, 56, 100
1, 14568, Note_on_c, 0, 73, 100
1, 14587, Note_off_c, 0, 73, 100
1, 14587, Note_on_c, 0, 71, 100
1, 14625, Note_off_c, 0, 71, 100
1, 14625, Note_on_c, 0, 66, 100
1, 14644, Note_off_c, 0, 66, 100
1, 14644, Note_on_c, 0, 64, 100
1, 14663, Note_off_c, 0, 64, 100
1, 14663, Note_on_c, 0, 68, 100
1, 14682, Note_off_c, 0, 68, 100
1, 14682, Note_on_c, 0, 69, 100
1, 14701, Note_off_c, 0, 69, 100
1, 14701, Note_on_c, 0, 66, 100
1, 14720, Note_off_c, 0, 66, 100
1, 14720, Note_on_c, 0, 67, 100
1, 14734, Note_off_c, 0, 67, 100
1, 14734, Note_on_c, 0, 66, 100
1, 14748, Note_off_c, 0, 66, 100
1, 14748, Note_on_c, 0, 64, 100
1, 14777, Note_off_c, 0, 64, 100
1, 14777, Note_on_c, 0, 66, 100
1, 14791, Note_off_c, 0, 66, 100
1, 14791, Note_on_c, 0, 65, 100
1, 14894, Note_off_c, 0, 65, 100
1, 14894, Note_on_c, 0, 66, 100
1, 14908, Note_off_c, 0, 66, 100
1, 14908, Note_on_c, 0, 67, 100
1, 14927, Note_off_c, 0, 67, 100
1, 14927, Note_on_c, 0, 68, 100
1, 14965, Note_off_c, 0, 68, 100
1, 14965, Note_on_c, 0, 71, 100
1, 14984, Note_off_c, 0, 71, 100
1, 14984, Note_on_c, 0, 72, 100
1, 15022, Note_off_c, 0, 72, 100
1, 15022, Note_on_c, 0, 74, 100
1, 15041, Note_off_c, 0, 74, 100
1, 15041, Note_on_c, 0, 71, 100
1, 15060, Note_off_c, 0, 71, 100
1, 15060, Note_on_c, 0, 70, 100
1, 15079, Note_off_c, 0, 70, 100
1, 15079, Note_on_c, 0, 69, 100
1, 15098, Note_off_c, 0, 69, 100
1, 15098, Note_on_c, 0, 68, 100
1, 15122, Note_off_c, 0, 68, 100
1, 15122, Note_on_c, 0, 68, 100
1, 15146, Note_off_c, 0, 68, 100
1, 15146, Note_on_c, 0, 65, 100
1, 15170, Note_off_c, 0, 65, 100
1, 15170, Note_on_c, 0, 61, 100
1, 15194, Note_off_c, 0, 61, 100
1, 15194, Note_on_c, 0, 59, 100
1, 15218, Note_off_c, 0, 59, 100
1, 15218, Note_on_c, 0, 63, 100
1, 15242, Note_off_c, 0, 63, 100
1, 15242, Note_on_c, 0, 60, 100
1, 15266, Note_off_c, 0, 60, 100
1, 15266, Note_on_c, 0, 56, 100
1, 15290, Note_off_c, 0, 56, 100
1, 15290, Note_on_c, 0, 58, 100
1, 15338, Note_off_c, 0, 58, 100
1, 15338, Note_on_c, 0, 53, 100
1, 15386, Note_off_c, 0, 53, 100
1, 15386, Note_on_c, 0, 56, 100
1, 15546, Note_off_c, 0, 56, 100
1, 15546, Note_on_c, 0, 53, 100
1, 15610, Note_off_c, 0, 53, 100
1, 15610, Note_on_c, 0, 50, 100
1, 15674, Note_off_c, 0, 50, 100
1, 15674, Note_on_c, 0, 50, 100
1, 15706, Note_off_c, 0, 50, 100
1, 15706, Note_on_c, 0, 53, 100
1, 15738, Note_off_c, 0, 53, 100
1, 15738, Note_on_c, 0, 57, 100
1, 15770, Note_off_c, 0, 57, 100
1, 15770, Note_on_c, 0, 62, 100
1, 15834, Note_off_c, 0, 62, 100
1, 15834, Note_on_c, 0, 69, 100
1, 15904, Note_off_c, 0, 69, 100
1, 15904, Note_on_c, 0, 65, 100
1, 15942, Note_off_c, 0, 65, 100
1, 15942, Note_on_c, 0, 62, 100
1, 15980, Note_off_c, 0, 62, 100
1, 15980, Note_on_c, 0, 73, 100
1, 16018, Note_off_c, 0, 73, 100
1, 16018, Note_on_c, 0, 74, 100
1, 16056, Note_off_c, 0, 74, 100
1, 16056, Note_on_c, 0, 72, 100
1, 16152, Note_off_c, 0, 72, 100
1, 16152, Note_on_c, 0, 71, 100
1, 16248, Note_off_c, 0, 71, 100
1, 16478, Note_on_c, 0, 74, 100
1, 16516, Note_off_c, 0, 74, 100
1, 16516, Note_on_c, 0, 77, 100
1, 16554, Note_off_c, 0, 77, 100
1, 16554, Note_on_c, 0, 76, 100
1, 16592, Note_off_c, 0, 76, 100
1, 16592, Note_on_c, 0, 74, 100
1, 16630, Note_off_c, 0, 74, 100
1, 16630, Note_on_c, 0, 72, 100
1, 16694, Note_off_c, 0, 72, 100
1, 16694, Note_on_c, 0, 71, 100
1, 16758, Note_off_c, 0, 71, 100
1, 16758, Note_on_c, 0, 62, 100
1, 16822, Note_off_c, 0, 62, 100
1, 16822, Note_on_c, 0, 74, 100
1, 16870, Note_off_c, 0, 74, 100
1, 16870, Note_on_c, 0, 72, 100
1, 16918, Note_off_c, 0, 72, 100
1, 16918, Note_on_c, 0, 60, 100
1, 16966, Note_off_c, 0, 60, 100
1, 16966, Note_on_c, 0, 70, 100
1, 17014, Note_off_c, 0, 70, 100
1, 17014, Note_on_c, 0, 69, 100
1, 17052, Note_off_c, 0, 69, 100
1, 17052, Note_on_c, 0, 68, 100
1, 17090, Note_off_c, 0, 68, 100
1, 17090, Note_on_c, 0, 68, 100
1, 17128, Note_off_c, 0, 68, 100
1, 17128, Note_on_c, 0, 70, 100
1, 17166, Note_off_c, 0, 70, 100
1, 17166, Note_on_c, 0, 71, 100
1, 17204, Note_off_c, 0, 71, 100
1, 17204, Note_on_c, 0, 67, 100
1, 17268, Note_off_c, 0, 67, 100
1, 17268, Note_on_c, 0, 68, 100
1, 17332, Note_off_c, 0, 68, 100
1, 17332, Note_on_c, 0, 69, 100
1, 17396, Note_off_c, 0, 69, 100
1, 17396, Note_on_c, 0, 66, 100
1, 17444, Note_off_c, 0, 66, 100
1, 17444, Note_on_c, 0, 67, 100
1, 17492, Note_off_c, 0, 67, 100
1, 17492, Note_on_c, 0, 62, 100
1, 17540, Note_off_c, 0, 62, 100
1, 17540, Note_on_c, 0, 65, 100
1, 17588, Note_off_c, 0, 65, 100
1, 17588, Note_on_c, 0, 63, 100
1, 17652, Note_off_c, 0, 63, 100
1, 17652, Note_on_c, 0, 64, 100
1, 17684, Note_off_c, 0, 64, 100
1, 17684, Note_on_c, 0, 64, 100
1, 17716, Note_off_c, 0, 64, 100
1, 17716, Note_on_c, 0, 65, 100
1, 17748, Note_off_c, 0, 65, 100
1, 17748, Note_on_c, 0, 61, 100
1, 17828, Note_off_c, 0, 61, 100
1, 17828, Note_on_c, 0, 63, 100
1, 17876, Note_off_c, 0, 63, 100
1, 17876, Note_on_c, 0, 62, 100
1, 17924, Note_off_c, 0, 62, 100
1, 17924, Note_on_c, 0, 58, 100
1, 17972, Note_off_c, 0, 58, 100
1, 17972, Note_on_c, 0, 60, 100
1, 18020, Note_off_c, 0, 60, 100
1, 18020, Note_on_c, 0, 59, 100
1, 18068, Note_off_c, 0, 59, 100
1, 18068, Note_on_c, 0, 51, 100
1, 18116, Note_off_c, 0, 51, 100
1, 18116, Note_on_c, 0, 52, 100
1, 18240, Note_off_c, 0, 52, 100
1, 18240, Note_on_c, 0, 58, 100
1, 18278, Note_off_c, 0, 58, 100
1, 18278, Note_on_c, 0, 59, 100
1, 18316, Note_off_c, 0, 59, 100
1, 18316, Note_on_c, 0, 52, 100
1, 18354, Note_off_c, 0, 52, 100
1, 18354, Note_on_c, 0, 51, 100
1, 18418, Note_off_c, 0, 51, 100
1, 18418, Note_on_c, 0, 58, 100
1, 18450, Note_off_c, 0, 58, 100
1, 18450, Note_on_c, 0, 60, 100
1, 18482, Note_off_c, 0, 60, 100
1, 18482, Note_on_c, 0, 59, 100
1, 18514, Note_off_c, 0, 59, 100
1, 18514, Note_on_c, 0, 51, 100
1, 18546, Note_off_c, 0, 51, 100
1, 18546, Note_on_c, 0, 52, 100
1, 18594, Note_off_c, 0, 52, 100
1, 18594, Note_on_c, 0, 58, 100
1, 18642, Note_off_c, 0, 58, 100
1, 18642, Note_on_c, 0, 56, 100
1, 18690, Note_off_c, 0, 56, 100
1, 18690, Note_on_c, 0, 57, 100
1, 18738, Note_off_c, 0, 57, 100
1, 18738, Note_on_c, 0, 58, 100
1, 18776, Note_off_c, 0, 58, 100
1, 18776, Note_on_c, 0, 59, 100
1, 18814, Note_off_c, 0, 59, 100
1, 18814, Note_on_c, 0, 61, 100
1, 18852, Note_off_c, 0, 61, 100
1, 18852, Note_on_c, 0, 63, 100
1, 18890, Note_off_c, 0, 63, 100
1, 18890, Note_on_c, 0, 65, 100
1, 18928, Note_off_c, 0, 65, 100
1, 18928, Note_on_c, 0, 60, 100
1, 18960, Note_off_c, 0, 60, 100
1, 18960, Note_on_c, 0, 56, 100
1, 18992, Note_off_c, 0, 56, 100
1, 18992, Note_on_c, 0, 51, 100
1, 19024, Note_off_c, 0, 51, 100
1, 19024, Note_on_c, 0, 48, 100
1, 19056, Note_off_c, 0, 48, 100
1, 19056, Note_on_c, 0, 46, 100
1, 19088, Note_off_c, 0, 46, 100
1, 19088, Note_on_c, 0, 51, 100
1, 19158, Note_off_c, 0, 51, 100
1, 19158, Note_on_c, 0, 59, 100
1, 19196, Note_off_c, 0, 59, 100
1, 19196, Note_on_c, 0, 60, 100
1, 19234, Note_off_c, 0, 60, 100
1, 19234, Note_on_c, 0, 58, 100
1, 19272, Note_off_c, 0, 58, 100
1, 19272, Note_on_c, 0, 56, 100
1, 19310, Note_off_c, 0, 56, 100
1, 19310, Note_on_c, 0, 63, 100
1, 19374, Note_off_c, 0, 63, 100
1, 19374, Note_on_c, 0, 71, 100
1, 19438, Note_off_c, 0, 71, 100
1, 19438, Note_on_c, 0, 68, 100
1, 19502, Note_off_c, 0, 68, 100
1, 19502, Note_on_c, 0, 70, 100
1, 19550, Note_off_c, 0, 70, 100
1, 19550, Note_on_c, 0, 66, 100
1, 19598, Note_off_c, 0, 66, 100
1, 19598, Note_on_c, 0, 65, 100
1, 19646, Note_off_c, 0, 65, 100
1, 19646, Note_on_c, 0, 60, 100
1, 19694, Note_off_c, 0, 60, 100
1, 19694, Note_on_c, 0, 58, 100
1, 19742, Note_off_c, 0, 58, 100
1, 19742, Note_on_c, 0, 51, 100
1, 19790, Note_off_c, 0, 51, 100
1, 19790, Note_on_c, 0, 46, 100
1, 19838, Note_off_c, 0, 46, 100
1, 19838, Note_on_c, 0, 45, 100
1, 19924, Note_off_c, 0, 45, 100
1, 19924, Note_on_c, 0, 44, 100
1, 19962, Note_off_c, 0, 44, 100
1, 19962, Note_on_c, 0, 58, 100
1, 20000, Note_off_c, 0, 58, 100
1, 20000, Note_on_c, 0, 59, 100
1, 20038, Note_off_c, 0, 59, 100
1, 20038, Note_on_c, 0, 58, 100
1, 20076, Note_off_c, 0, 58, 100
1, 20076, Note_on_c, 0, 59, 100
1, 20114, Note_off_c, 0, 59, 100
1, 20114, Note_on_c, 0, 64, 100
1, 20171, Note_off_c, 0, 64, 100
1, 20171, Note_on_c, 0, 67, 100
1, 20190, Note_off_c, 0, 67, 100
1, 20190, Note_on_c, 0, 68, 100
1, 20209, Note_off_c, 0, 68, 100
1, 20209, Note_on_c, 0, 69, 100
1, 20228, Note_off_c, 0, 69, 100
1, 20228, Note_on_c, 0, 70, 100
1, 20247, Note_off_c, 0, 70, 100
1, 20247, Note_on_c, 0, 69, 100
1, 20266, Note_off_c, 0, 69, 100
1, 20266, Note_on_c, 0, 70, 100
1, 20287, Note_off_c, 0, 70, 100
1, 20287, Note_on_c, 0, 71, 100
1, 20308, Note_off_c, 0, 71, 100
1, 20308, Note_on_c, 0, 72, 100
1, 20350, Note_off_c, 0, 72, 100
1, 20350, Note_on_c, 0, 73, 100
1, 20392, Note_off_c, 0, 73, 100
1, 20392, Note_on_c, 0, 74, 100
1, 20413, Note_off_c, 0, 74, 100
1, 20413, Note_on_c, 0, 75, 100
1, 20605, Note_off_c, 0, 75, 100
1, 20839, Note_on_c, 0, 60, 100
1, 20887, Note_off_c, 0, 60, 100
1, 20887, Note_on_c, 0, 65, 100
1, 20935, Note_off_c, 0, 65, 100
1, 20935, Note_on_c, 0, 65, 100
1, 20983, Note_off_c, 0, 65, 100
1, 20983, Note_on_c, 0, 68, 100
1, 21031, Note_off_c, 0, 68, 100
1, 21031, Note_on_c, 0, 72, 100
1, 21079, Note_off_c, 0, 72, 100
1, 21079, Note_on_c, 0, 72, 100
1, 21127, Note_off_c, 0, 72, 100
1, 21127, Note_on_c, 0, 72, 100
1, 21175, Note_off_c, 0, 72, 100
1, 21175, Note_on_c, 0, 68, 100
1, 21223, Note_off_c, 0, 68, 100
1, 21223, Note_on_c, 0, 63, 100
1, 21261, Note_off_c, 0, 63, 100
1, 21261, Note_on_c, 0, 71, 100
1, 21299, Note_off_c, 0, 71, 100
1, 21299, Note_on_c, 0, 68, 100
1, 21337, Note_off_c, 0, 68, 100
1, 21337, Note_on_c, 0, 63, 100
1, 21375, Note_off_c, 0, 63, 100
1, 21375, Note_on_c, 0, 61, 100
1, 21413, Note_off_c, 0, 61, 100
1, 21413, Note_on_c, 0, 72, 100
1, 21451, Note_off_c, 0, 72, 100
1, 21451, Note_on_c, 0, 68, 100
1, 21489, Note_off_c, 0, 68, 100
1, 21489, Note_on_c, 0, 63, 100
1, 21527, Note_off_c, 0, 63, 100
1, 21527, Note_on_c, 0, 71, 100
1, 21565, Note_off_c, 0, 71, 100
1, 21565, Note_on_c, 0, 70, 100
1, 21603, Note_off_c, 0, 70, 100
1, 21603, Note_on_c, 0, 61, 100
1, 21699, Note_off_c, 0, 61, 100
1, 21699, Note_on_c, 0, 68, 100
1, 21915, Note_off_c, 0, 68, 100
1, 21915, Note_on_c, 0, 68, 100
1, 21939, Note_off_c, 0, 68, 100
1, 21939, Note_on_c, 0, 70, 100
1, 21963, Note_off_c, 0, 70, 100
1, 21963, Note_on_c, 0, 72, 100
1, 21987, Note_off_c, 0, 72, 100
1, 21987, Note_on_c, 0, 68, 100
1, 22014, Note_off_c, 0, 68, 100
1, 22014, Note_on_c, 0, 70, 100
1, 22041, Note_off_c, 0, 70, 100
1, 22041, Note_on_c, 0, 68, 100
1, 22068, Note_off_c, 0, 68, 100
1, 22068, Note_on_c, 0, 65, 100
1, 22095, Note_off_c, 0, 65, 100
1, 22095, Note_on_c, 0, 61, 100
1, 22122, Note_off_c, 0, 61, 100
1, 22122, Note_on_c, 0, 68, 100
1, 22149, Note_off_c, 0, 68, 100
1, 22149, Note_on_c, 0, 65, 100
1, 22176, Note_off_c, 0, 65, 100
1, 22176, Note_on_c, 0, 61, 100
1, 22197, Note_off_c, 0, 61, 100
1, 22197, Note_on_c, 0, 58, 100
1, 22218, Note_off_c, 0, 58, 100
1, 22218, Note_on_c, 0, 63, 100
1, 22239, Note_off_c, 0, 63, 100
1, 22239, Note_on_c, 0, 60, 100
1, 22260, Note_off_c, 0, 60, 100
1, 22260, Note_on_c, 0, 56, 100
1, 22281, Note_off_c, 0, 56, 100
1, 22281, Note_on_c, 0, 53, 100
1, 22302, Note_off_c, 0, 53, 100
1, 22302, Note_on_c, 0, 58, 100
1, 22323, Note_off_c, 0, 58, 100
1, 22323, Note_on_c, 0, 64, 100
1, 22365, Note_off_c, 0, 64, 100
1, 22365, Note_on_c, 0, 75, 100
1, 22386, Note_off_c, 0, 75, 100
1, 22386, Note_on_c, 0, 76, 100
1, 22407, Note_off_c, 0, 76, 100
1, 22407, Note_on_c, 0, 68, 100
1, 22428, Note_off_c, 0, 68, 100
1, 22428, Note_on_c, 0, 74, 100
1, 22449, Note_off_c, 0, 74, 100
1, 22449, Note_on_c, 0, 73, 100
1, 22470, Note_off_c, 0, 73, 100
1, 22470, Note_on_c, 0, 71, 100
1, 22491, Note_off_c, 0, 71, 100
1, 22491, Note_on_c, 0, 75, 100
1, 22512, Note_off_c, 0, 75, 100
1, 22512, Note_on_c, 0, 77, 100
1, 22533, Note_off_c, 0, 77, 100
1, 22533, Note_on_c, 0, 76, 100
1, 22554, Note_off_c, 0, 76, 100
1, 22554, Note_on_c, 0, 77, 100
1, 22581, Note_off_c, 0, 77, 100
1, 22581, Note_on_c, 0, 61, 100
1, 22608, Note_off_c, 0, 61, 100
1, 22608, Note_on_c, 0, 78, 100
1, 22635, Note_off_c, 0, 78, 100
1, 22635, Note_on_c, 0, 79, 100
1, 22662, Note_off_c, 0, 79, 100
1, 22662, Note_on_c, 0, 78, 100
1, 22689, Note_off_c, 0, 78, 100
1, 22689, Note_on_c, 0, 79, 100
1, 22743, Note_off_c, 0, 79, 100
1, 22743, Note_on_c, 0, 78, 100
1, 22775, Note_off_c, 0, 78, 100
1, 22775, Note_on_c, 0, 76, 100
1, 22791, Note_off_c, 0, 76, 100
1, 22791, Note_on_c, 0, 72, 100
1, 22807, Note_off_c, 0, 72, 100
1, 22807, Note_on_c, 0, 65, 100
1, 22823, Note_off_c, 0, 65, 100
1, 22823, Note_on_c, 0, 61, 100
1, 22839, Note_off_c, 0, 61, 100
1, 22839, Note_on_c, 0, 57, 100
1, 22871, Note_off_c, 0, 57, 100
1, 22871, Note_on_c, 0, 63, 100
1, 22887, Note_off_c, 0, 63, 100
1, 22887, Note_on_c, 0, 80, 100
1, 22919, Note_off_c, 0, 80, 100
1, 22919, Note_on_c, 0, 82, 100
1, 22935, Note_off_c, 0, 82, 100
1, 22935, Note_on_c, 0, 82, 100
1, 22983, Note_off_c, 0, 82, 100
1, 22983, Note_on_c, 0, 83, 100
1, 23031, Note_off_c, 0, 83, 100
1, 23031, Note_on_c, 0, 83, 100
1, 23127, Note_off_c, 0, 83, 100
1, 23127, Note_on_c, 0, 75, 100
1, 23191, Note_off_c, 0, 75, 100
1, 23191, Note_on_c, 0, 83, 100
1, 23223, Note_off_c, 0, 83, 100
1, 23223, Note_on_c, 0, 85, 100
1, 23255, Note_off_c, 0, 85, 100
1, 23255, Note_on_c, 0, 87, 100
1, 23287, Note_off_c, 0, 87, 100
1, 23287, Note_on_c, 0, 88, 100
1, 23319, Note_off_c, 0, 88, 100
1, 23319, Note_on_c, 0, 85, 100
1, 23357, Note_off_c, 0, 85, 100
1, 23357, Note_on_c, 0, 87, 100
1, 23395, Note_off_c, 0, 87, 100
1, 23395, Note_on_c, 0, 84, 100
1, 23433, Note_off_c, 0, 84, 100
1, 23433, Note_on_c, 0, 78, 100
1, 23509, Note_off_c, 0, 78, 100
1, 23509, Note_on_c, 0, 75, 100
1, 23547, Note_off_c, 0, 75, 100
1, 23547, Note_on_c, 0, 77, 100
1, 23585, Note_off_c, 0, 77, 100
1, 23585, Note_on_c, 0, 75, 100
1, 23623, Note_off_c, 0, 75, 100
1, 23623, Note_on_c, 0, 73, 100
1, 23661, Note_off_c, 0, 73, 100
1, 23661, Note_on_c, 0, 72, 100
1, 23699, Note_off_c, 0, 72, 100
1, 23699, Note_on_c, 0, 63, 100
1, 23737, Note_off_c, 0, 63, 100
1, 23737, Note_on_c, 0, 70, 100
1, 23775, Note_off_c, 0, 70, 100
1, 23775, Note_on_c, 0, 68, 100
1, 23813, Note_off_c, 0, 68, 100
1, 23813, Note_on_c, 0, 68, 100
1, 23851, Note_off_c, 0, 68, 100
1, 23851, Note_on_c, 0, 67, 100
1, 23889, Note_off_c, 0, 67, 100
1, 23889, Note_on_c, 0, 65, 100
1, 23927, Note_off_c, 0, 65, 100
1, 23927, Note_on_c, 0, 60, 100
1, 23965, Note_off_c, 0, 60, 100
1, 23965, Note_on_c, 0, 63, 100
1, 24003, Note_off_c, 0, 63, 100
1, 24003, Note_on_c, 0, 61, 100
1, 24041, Note_off_c, 0, 61, 100
1, 24041, Note_on_c, 0, 56, 100
1, 24079, Note_off_c, 0, 56, 100
1, 24079, Note_on_c, 0, 60, 100
1, 24117, Note_off_c, 0, 60, 100
1, 24117, Note_on_c, 0, 58, 100
1, 24155, Note_off_c, 0, 58, 100
1, 24155, Note_on_c, 0, 53, 100
1, 24193, Note_off_c, 0, 53, 100
1, 24193, Note_on_c, 0, 58, 100
1, 24231, Note_off_c, 0, 58, 100
1, 24231, Note_on_c, 0, 51, 100
1, 24269, Note_off_c, 0, 51, 100
1, 24269, Note_on_c, 0, 58, 100
1, 24301, Note_off_c, 0, 58, 100
1, 24301, Note_on_c, 0, 56, 100
1, 24333, Note_off_c, 0, 56, 100
1, 24333, Note_on_c, 0, 53, 100
1, 24365, Note_off_c, 0, 53, 100
1, 24365, Note_on_c, 0, 49, 100
1, 24397, Note_off_c, 0, 49, 100
1, 24397, Note_on_c, 0, 51, 100
1, 24429, Note_off_c, 0, 51, 100
1, 24429, Note_on_c, 0, 60, 100
1, 24461, Note_off_c, 0, 60, 100
1, 24461, Note_on_c, 0, 58, 100
1, 24499, Note_off_c, 0, 58, 100
1, 24499, Note_on_c, 0, 59, 100
1, 24537, Note_off_c, 0, 59, 100
1, 24537, Note_on_c, 0, 60, 100
1, 24575, Note_off_c, 0, 60, 100
1, 24575, Note_on_c, 0, 60, 100
1, 24613, Note_off_c, 0, 60, 100
1, 24613, Note_on_c, 0, 58, 100
1, 24651, Note_off_c, 0, 58, 100
1, 24651, Note_on_c, 0, 56, 100
1, 24689, Note_off_c, 0, 56, 100
1, 24689, Note_on_c, 0, 54, 100
1, 24727, Note_off_c, 0, 54, 100
1, 24727, Note_on_c, 0, 53, 100
1, 24765, Note_off_c, 0, 53, 100
1, 24765, Note_on_c, 0, 51, 100
1, 24803, Note_off_c, 0, 51, 100
1, 24803, Note_on_c, 0, 53, 100
1, 24841, Note_off_c, 0, 53, 100
1, 24841, Note_on_c, 0, 49, 100
1, 24889, Note_off_c, 0, 49, 100
1, 24889, Note_on_c, 0, 48, 100
1, 24937, Note_off_c, 0, 48, 100
1, 24937, Note_on_c, 0, 46, 100
1, 24985, Note_off_c, 0, 46, 100
1, 24985, Note_on_c, 0, 51, 100
1, 25222, Note_off_c, 0, 51, 100
1, 25222, End_track
0, 0, End_of_file
