0, 0, Header, 1, 1, 192
1, 0, Start_track
1, 0, Title_t, "Melody"
1, 0, Tempo, 483870
1, 0, Key_signature, 0, "major"
1, 0, Time_signature, 4, 2, 24, 8
1, 576, Note_on_c, 0, 71, 100
1, 624, Note_off_c, 0, 71, 100
1, 624, Note_on_c, 0, 74, 100
1, 672, Note_off_c, 0, 74, 100
1, 672, Note_on_c, 0, 72, 100
1, 720, Note_off_c, 0, 72, 100
1, 720, Note_on_c, 0, 67, 100
1, 768, Note_off_c, 0, 67, 100
1, 768, Note_on_c, 0, 64, 100
1, 864, Note_off_c, 0, 64, 100
1, 1200, Note_on_c, 0, 59, 100
1, 1248, Note_off_c, 0, 59, 100
1, 1248, Note_on_c, 0, 62, 100
1, 1296, Note_off_c, 0, 62, 100
1, 1296, Note_on_c, 0, 61, 100
1, 1344, Note_off_c, 0, 61, 100
1, 1344, Note_on_c, 0, 60, 100
1, 1408, Note_off_c, 0, 60, 100
1, 1408, Note_on_c, 0, 64, 100
1, 1472, Note_off_c, 0, 64, 100
1, 1472, Note_on_c, 0, 67, 100
1, 1536, Note_off_c, 0, 67, 100
1, 1536, Note_on_c, 0, 69, 100
1, 1574, Note_off_c, 0, 69, 100
1, 1574, Note_on_c, 0, 71, 100
1, 1612, Note_off_c, 0, 71, 100
1, 1612, Note_on_c, 0, 72, 100
1, 1650, Note_off_c, 0, 72, 100
1, 1650, Note_on_c, 0, 69, 100
1, 1688, Note_off_c, 0, 69, 100
1, 1688, Note_on_c, 0, 70, 100
1, 1758, Note_off_c, 0, 70, 100
1, 1758, Note_on_c, 0, 68, 100
1, 1790, Note_off_c, 0, 68, 100
1, 1790, Note_on_c, 0, 70, 100
1, 1822, Note_off_c, 0, 70, 100
1, 1822, Note_on_c, 0, 68, 100
1, 1854, Note_off_c, 0, 68, 100
1, 1854, Note_on_c, 0, 66, 100
1, 1886, Note_off_c, 0, 66, 100
1, 1886, Note_on_c, 0, 62, 100
1, 1918, Note_off_c, 0, 62, 100
1, 1918, Note_on_c, 0, 60, 100
1, 1966, Note_off_c, 0, 60, 100
1, 1966, Note_on_c, 0, 59, 100
1, 2014, Note_off_c, 0, 59, 100
1, 2014, Note_on_c, 0, 58, 100
1, 2062, Note_off_c, 0, 58, 100
1, 2062, Note_on_c, 0, 56, 100
1, 2110, Note_off_c, 0, 56, 100
1, 2110, Note_on_c, 0, 60, 100
1, 2206, Note_off_c, 0, 60, 100
1, 2206, Note_on_c, 0, 56, 100
1, 2302, Note_off_c, 0, 56, 100
1, 2302, Note_on_c, 0, 55, 100
1, 2398, Note_off_c, 0, 55, 100
1, 2398, Note_on_c, 0, 54, 100
1, 2494, Note_off_c, 0, 54, 100
1, 2494, Note_on_c, 0, 60, 100
1, 2590, Note_off_c, 0, 60, 100
1, 2590, Note_on_c, 0, 57, 100
1, 2686, Note_off_c, 0, 57, 100
1, 2686, Note_on_c, 0, 55, 100
1, 2830, Note_off_c, 0, 55, 100
1, 2830, Note_on_c, 0, 59, 100
1, 2974, Note_off_c, 0, 59, 100
1, 2974, Note_on_c, 0, 55, 100
1, 3070, Note_off_c, 0, 55, 100
1, 3070, Note_on_c, 0, 52, 100
1, 3214, Note_off_c, 0, 52, 100
1, 3214, Note_on_c, 0, 52, 100
1, 3262, Note_off_c, 0, 52, 100
1, 3262, Note_on_c, 0, 51, 100
1, 3358, Note_off_c, 0, 51, 100
1, 3358, Note_on_c, 0, 52, 100
1, 3454, Note_off_c, 0, 52, 100
1, 3454, Note_on_c, 0, 57, 100
1, 3646, Note_off_c, 0, 57, 100
1, 3934, Note_on_c, 0, 55, 100
1, 3982, Note_off_c, 0, 55, 100
1, 3982, Note_on_c, 0, 57, 100
1, 4030, Note_off_c, 0, 57, 100
1, 4030, Note_on_c, 0, 59, 100
1, 4068, Note_off_c, 0, 59, 100
1, 4068, Note_on_c, 0, 62, 100
1, 4106, Note_off_c, 0, 62, 100
1, 4106, Note_on_c, 0, 60, 100
1, 4182, Note_off_c, 0, 60, 100
1, 4182, Note_on_c, 0, 64, 100
1, 4220, Note_off_c, 0, 64, 100
1, 4220, Note_on_c, 0, 67, 100
1, 4268, Note_off_c, 0, 67, 100
1, 4268, Note_on_c, 0, 69, 100
1, 4316, Note_off_c, 0, 69, 100
1, 4316, Note_on_c, 0, 71, 100
1, 4364, Note_off_c, 0, 71, 100
1, 4364, Note_on_c, 0, 74, 100
1, 4412, Note_off_c, 0, 74, 100
1, 4412, Note_on_c, 0, 73, 100
1, 4460, Note_off_c, 0, 73, 100
1, 4460, Note_on_c, 0, 72, 100
1, 4508, Note_off_c, 0, 72, 100
1, 4508, Note_on_c, 0, 69, 100
1, 4556, Note_off_c, 0, 69, 100
1, 4556, Note_on_c, 0, 70, 100
1, 4604, Note_off_c, 0, 70, 100
1, 4604, Note_on_c, 0, 69, 100
1, 4700, Note_off_c, 0, 69, 100
1, 5026, Note_on_c, 0, 70, 100
1, 5064, Note_off_c, 0, 70, 100
1, 5064, Note_on_c, 0, 72, 100
1, 5102, Note_off_c, 0, 72, 100
1, 5102, Note_on_c, 0, 70, 100
1, 5140, Note_off_c, 0, 70, 100
1, 5140, Note_on_c, 0, 67, 100
1, 5178, Note_off_c, 0, 67, 100
1, 5178, Note_on_c, 0, 68, 100
1, 5226, Note_off_c, 0, 68, 100
1, 5226, Note_on_c, 0, 69, 100
1, 5322, Note_off_c, 0, 69, 100
1, 5322, Note_on_c, 0, 64, 100
1, 5370, Note_off_c, 0, 64, 100
1, 5370, Note_on_c, 0, 67, 100
1, 5434, Note_off_c, 0, 67, 100
1, 5434, Note_on_c, 0, 66, 100
1, 5498, Note_off_c, 0, 66, 100
1, 5498, Note_on_c, 0, 64, 100
1, 5562, Note_off_c, 0, 64, 100
1, 5562, Note_on_c, 0, 60, 100
1, 5610, Note_off_c, 0, 60, 100
1, 5610, Note_on_c, 0, 57, 100
1, 5706, Note_off_c, 0, 57, 100
1, 5706, Note_on_c, 0, 62, 100
1, 5802, Note_off_c, 0, 62, 100
1, 6042, Note_on_c, 0, 61, 100
1, 6090, Note_off_c, 0, 61, 100
1, 6090, Note_on_c, 0, 64, 100
1, 6138, Note_off_c, 0, 64, 100
1, 6138, Note_on_c, 0, 67, 100
1, 6234, Note_off_c, 0, 67, 100
1, 6666, Note_on_c, 0, 62, 100
1, 6714, Note_off_c, 0, 62, 100
1, 6714, Note_on_c, 0, 63, 100
1, 6778, Note_off_c, 0, 63, 100
1, 6778, Note_on_c, 0, 64, 100
1, 6842, Note_off_c, 0, 64, 100
1, 6842, Note_on_c, 0, 67, 100
1, 6906, Note_off_c, 0, 67, 100
1, 6906, Note_on_c, 0, 69, 100
1, 6988, Note_off_c, 0, 69, 100
1, 6988, Note_on_c, 0, 72, 100
1, 7042, Note_off_c, 0, 72, 100
1, 7042, Note_on_c, 0, 74, 100
1, 7069, Note_off_c, 0, 74, 100
1, 7069, Note_on_c, 0, 72, 100
1, 7096, Note_off_c, 0, 72, 100
1, 7096, Note_on_c, 0, 69, 100
1, 7144, Note_off_c, 0, 69, 100
1, 7144, Note_on_c, 0, 70, 100
1, 7240, Note_off_c, 0, 70, 100
1, 7240, Note_on_c, 0, 74, 100
1, 7288, Note_off_c, 0, 74, 100
1, 7288, Note_on_c, 0, 69, 100
1, 7480, Note_off_c, 0, 69, 100
1, 7480, Note_on_c, 0, 67, 100
1, 7576, Note_off_c, 0, 67, 100
1, 7576, Note_on_c, 0, 62, 100
1, 7672, Note_off_c, 0, 62, 100
1, 7672, Note_on_c, 0, 65, 100
1, 7768, Note_off_c, 0, 65, 100
1, 7768, Note_on_c, 0, 64, 100
1, 7928, Note_off_c, 0, 64, 100
1, 7928, Note_on_c, 0, 63, 100
1, 8056, Note_off_c, 0, 63, 100
1, 8056, Note_on_c, 0, 62, 100
1, 8392, Note_off_c, 0, 62, 100
1, 8392, Note_on_c, 0, 57, 100
1, 8440, Note_off_c, 0, 57, 100
1, 8440, Note_on_c, 0, 60, 100
1, 8536, Note_off_c, 0, 60, 100
1, 8536, Note_on_c, 0, 65, 100
1, 8584, Note_off_c, 0, 65, 100
1, 8584, Note_on_c, 0, 63, 100
1, 8632, Note_off_c, 0, 63, 100
1, 8632, Note_on_c, 0, 67, 100
1, 8728, Note_off_c, 0, 67, 100
1, 8728, Note_on_c, 0, 64, 100
1, 8776, Note_off_c, 0, 64, 100
1, 8776, Note_on_c, 0, 65, 100
1, 8824, Note_off_c, 0, 65, 100
1, 8824, Note_on_c, 0, 69, 100
1, 8920, Note_off_c, 0, 69, 100
1, 8920, Note_on_c, 0, 72, 100
1, 9016, Note_off_c, 0, 72, 100
1, 9016, Note_on_c, 0, 74, 100
1, 9112, Note_off_c, 0, 74, 100
1, 9112, Note_on_c, 0, 72, 100
1, 9246, Note_off_c, 0, 72, 100
1, 9246, Note_on_c, 0, 74, 100
1, 9284, Note_off_c, 0, 74, 100
1, 9284, Note_on_c, 0, 75, 100
1, 9360, Note_off_c, 0, 75, 100
1, 9360, Note_on_c, 0, 72, 100
1, 9398, Note_off_c, 0, 72, 100
1, 9398, Note_on_c, 0, 74, 100
1, 9542, Note_off_c, 0, 74, 100
1, 9542, Note_on_c, 0, 67, 100
1, 9590, Note_off_c, 0, 67, 100
1, 9590, Note_on_c, 0, 68, 100
1, 9638, Note_off_c, 0, 68, 100
1, 9638, Note_on_c, 0, 70, 100
1, 9686, Note_off_c, 0, 70, 100
1, 9686, Note_on_c, 0, 71, 100
1, 9734, Note_off_c, 0, 71, 100
1, 9734, Note_on_c, 0, 72, 100
1, 9782, Note_off_c, 0, 72, 100
1, 9782, Note_on_c, 0, 68, 100
1, 9878, Note_off_c, 0, 68, 100
1, 9878, Note_on_c, 0, 65, 100
1, 9926, Note_off_c, 0, 65, 100
1, 9926, Note_on_c, 0, 64, 100
1, 9974, Note_off_c, 0, 64, 100
1, 9974, Note_on_c, 0, 67, 100
1, 10070, Note_off_c, 0, 67, 100
1, 10070, Note_on_c, 0, 64, 100
1, 10166, Note_off_c, 0, 64, 100
1, 10166, Note_on_c, 0, 55, 100
1, 10310, Note_off_c, 0, 55, 100
1, 10310, Note_on_c, 0, 62, 100
1, 10358, Note_off_c, 0, 62, 100
1, 10358, Note_on_c, 0, 60, 100
1, 10454, Note_off_c, 0, 60, 100
1, 10646, Note_on_c, 0, 62, 100
1, 10742, Note_off_c, 0, 62, 100
1, 10742, Note_on_c, 0, 68, 100
1, 10790, Note_off_c, 0, 68, 100
1, 10790, Note_on_c, 0, 70, 100
1, 10838, Note_off_c, 0, 70, 100
1, 10838, Note_on_c, 0, 68, 100
1, 10934, Note_off_c, 0, 68, 100
1, 10934, Note_on_c, 0, 62, 100
1, 11078, Note_off_c, 0, 62, 100
1, 11078, Note_on_c, 0, 67, 100
1, 11190, Note_off_c, 0, 67, 100
1, 11190, Note_on_c, 0, 64, 100
1, 11286, Note_off_c, 0, 64, 100
1, 11510, Note_on_c, 0, 71, 100
1, 11606, Note_off_c, 0, 71, 100
1, 11606, Note_on_c, 0, 69, 100
1, 11702, Note_off_c, 0, 69, 100
1, 11702, Note_on_c, 0, 57, 100
1, 11846, Note_off_c, 0, 57, 100
1, 11846, Note_on_c, 0, 65, 100
1, 11990, Note_off_c, 0, 65, 100
1, 11990, Note_on_c, 0, 64, 100
1, 12150, Note_off_c, 0, 64, 100
1, 12150, Note_on_c, 0, 55, 100
1, 12278, Note_off_c, 0, 55, 100
1, 12278, Note_on_c, 0, 62, 100
1, 12342, Note_off_c, 0, 62, 100
1, 12342, Note_on_c, 0, 60, 100
1, 12614, Note_off_c, 0, 60, 100
1, 12614, Note_on_c, 0, 63, 100
1, 12662, Note_off_c, 0, 63, 100
1, 12662, Note_on_c, 0, 64, 100
1, 12726, Note_off_c, 0, 64, 100
1, 12726, Note_on_c, 0, 67, 100
1, 12790, Note_off_c, 0, 67, 100
1, 12790, Note_on_c, 0, 69, 100
1, 12854, Note_off_c, 0, 69, 100
1, 12854, Note_on_c, 0, 73, 100
1, 12902, Note_off_c, 0, 73, 100
1, 12902, Note_on_c, 0, 74, 100
1, 12998, Note_off_c, 0, 74, 100
1, 12998, Note_on_c, 0, 72, 100
1, 13110, Note_off_c, 0, 72, 100
1, 13110, Note_on_c, 0, 67, 100
1, 13174, Note_off_c, 0, 67, 100
1, 13174, Note_on_c, 0, 64, 100
1, 13238, Note_off_c, 0, 64, 100
1, 13238, Note_on_c, 0, 60, 100
1, 13286, Note_off_c, 0, 60, 100
1, 13286, Note_on_c, 0, 62, 100
1, 13334, Note_off_c, 0, 62, 100
1, 13334, Note_on_c, 0, 60, 100
1, 13382, Note_off_c, 0, 60, 100
1, 13382, Note_on_c, 0, 57, 100
1, 13430, Note_off_c, 0, 57, 100
1, 13430, Note_on_c, 0, 62, 100
1, 13494, Note_off_c, 0, 62, 100
1, 13494, Note_on_c, 0, 60, 100
1, 13718, Note_off_c, 0, 60, 100
1, 13718, Note_on_c, 0, 60, 100
1, 13742, Note_off_c, 0, 60, 100
1, 13742, Note_on_c, 0, 62, 100
1, 13766, Note_off_c, 0, 62, 100
1, 13766, Note_on_c, 0, 60, 100
1, 13790, Note_off_c, 0, 60, 100
1, 13790, Note_on_c, 0, 59, 100
1, 13814, Note_off_c, 0, 59, 100
1, 13814, Note_on_c, 0, 58, 100
1, 13862, Note_off_c, 0, 58, 100
1, 13862, Note_on_c, 0, 57, 100
1, 13910, Note_off_c, 0, 57, 100
1, 13910, Note_on_c, 0, 56, 100
1, 14006, Note_off_c, 0, 56, 100
1, 14006, Note_on_c, 0, 68, 100
1, 14054, Note_off_c, 0, 68, 100
1, 14054, Note_on_c, 0, 65, 100
1, 14150, Note_off_c, 0, 65, 100
1, 14150, Note_on_c, 0, 62, 100
1, 14262, Note_off_c, 0, 62, 100
1, 14262, Note_on_c, 0, 61, 100
1, 14390, Note_off_c, 0, 61, 100
1, 14390, Note_on_c, 0, 69, 100
1, 14486, Note_off_c, 0, 69, 100
1, 14486, Note_on_c, 0, 67, 100
1, 14630, Note_off_c, 0, 67, 100
1, 14630, Note_on_c, 0, 66, 100
1, 14726, Note_off_c, 0, 66, 100
1, 14726, Note_on_c, 0, 74, 100
1, 14870, Note_off_c, 0, 74, 100
1, 14870, Note_on_c, 0, 72, 100
1, 15030, Note_off_c, 0, 72, 100
1, 15030, Note_on_c, 0, 71, 100
1, 15158, Note_off_c, 0, 71, 100
1, 15158, Note_on_c, 0, 79, 100
1, 15286, Note_off_c, 0, 79, 100
1, 15286, Note_on_c, 0, 77, 100
1, 15414, Note_off_c, 0, 77, 100
1, 15414, Note_on_c, 0, 76, 100
1, 15590, Note_off_c, 0, 76, 100
1, 15590, Note_on_c, 0, 67, 100
1, 15686, Note_off_c, 0, 67, 100
1, 15974, Note_on_c, 0, 76, 100
1, 16070, Note_off_c, 0, 76, 100
1, 16070, Note_on_c, 0, 79, 100
1, 16166, Note_off_c, 0, 79, 100
1, 16166, Note_on_c, 0, 84, 100
1, 16262, Note_off_c, 0, 84, 100
1, 16262, Note_on_c, 0, 79, 100
1, 16374, Note_off_c, 0, 79, 100
1, 16374, Note_on_c, 0, 75, 100
1, 16438, Note_off_c, 0, 75, 100
1, 16438, Note_on_c, 0, 76, 100
1, 16502, Note_off_c, 0, 76, 100
1, 16502, Note_on_c, 0, 72, 100
1, 16550, Note_off_c, 0, 72, 100
1, 16550, Note_on_c, 0, 67, 100
1, 16598, Note_off_c, 0, 67, 100
1, 16598, Note_on_c, 0, 64, 100
1, 16646, Note_off_c, 0, 64, 100
1, 16646, Note_on_c, 0, 61, 100
1, 16694, Note_off_c, 0, 61, 100
1, 16694, Note_on_c, 0, 60, 100
1, 16758, Note_off_c, 0, 60, 100
1, 16758, Note_on_c, 0, 58, 100
1, 16822, Note_off_c, 0, 58, 100
1, 16822, Note_on_c, 0, 57, 100
1, 16886, Note_off_c, 0, 57, 100
1, 16886, Note_on_c, 0, 60, 100
1, 16934, Note_off_c, 0, 60, 100
1, 16934, Note_on_c, 0, 55, 100
1, 16982, Note_off_c, 0, 55, 100
1, 16982, Note_on_c, 0, 54, 100
1, 17030, Note_off_c, 0, 54, 100
1, 17030, Note_on_c, 0, 53, 100
1, 17078, Note_off_c, 0, 53, 100
1, 17078, Note_on_c, 0, 52, 100
1, 17142, Note_off_c, 0, 52, 100
1, 17142, Note_on_c, 0, 51, 100
1, 17206, Note_off_c, 0, 51, 100
1, 17206, Note_on_c, 0, 50, 100
1, 17270, Note_off_c, 0, 50, 100
1, 17270, Note_on_c, 0, 58, 100
1, 17366, Note_off_c, 0, 58, 100
1, 17366, Note_on_c, 0, 56, 100
1, 17414, Note_off_c, 0, 56, 100
1, 17414, Note_on_c, 0, 57, 100
1, 17510, Note_off_c, 0, 57, 100
1, 17510, Note_on_c, 0, 69, 100
1, 17606, Note_off_c, 0, 69, 100
1, 17606, Note_on_c, 0, 68, 100
1, 17654, Note_off_c, 0, 68, 100
1, 17654, Note_on_c, 0, 67, 100
1, 17750, Note_off_c, 0, 67, 100
1, 17750, Note_on_c, 0, 66, 100
1, 17846, Note_off_c, 0, 66, 100
1, 17846, Note_on_c, 0, 71, 100
1, 17910, Note_off_c, 0, 71, 100
1, 17910, Note_on_c, 0, 70, 100
1, 17974, Note_off_c, 0, 70, 100
1, 17974, Note_on_c, 0, 69, 100
1, 18038, Note_off_c, 0, 69, 100
1, 18038, Note_on_c, 0, 64, 100
1, 18134, Note_off_c, 0, 64, 100
1, 18134, Note_on_c, 0, 60, 100
1, 18374, Note_off_c, 0, 60, 100
1, 18374, Note_on_c, 0, 57, 100
1, 18422, Note_off_c, 0, 57, 100
1, 18422, Note_on_c, 0, 62, 100
1, 18518, Note_off_c, 0, 62, 100
1, 18806, Note_on_c, 0, 60, 100
1, 18902, Note_off_c, 0, 60, 100
1, 18902, Note_on_c, 0, 64, 100
1, 18950, Note_off_c, 0, 64, 100
1, 18950, Note_on_c, 0, 67, 100
1, 19046, Note_off_c, 0, 67, 100
1, 19046, Note_on_c, 0, 69, 100
1, 19142, Note_off_c, 0, 69, 100
1, 19142, Note_on_c, 0, 67, 100
1, 19254, Note_off_c, 0, 67, 100
1, 19254, Note_on_c, 0, 72, 100
1, 19430, Note_off_c, 0, 72, 100
1, 19430, Note_on_c, 0, 74, 100
1, 19526, Note_off_c, 0, 74, 100
1, 19526, Note_on_c, 0, 72, 100
1, 19670, Note_off_c, 0, 72, 100
1, 19670, Note_on_c, 0, 81, 100
1, 19766, Note_off_c, 0, 81, 100
1, 19766, Note_on_c, 0, 74, 100
1, 19804, Note_off_c, 0, 74, 100
1, 19804, Note_on_c, 0, 75, 100
1, 19919, Note_off_c, 0, 75, 100
1, 19919, Note_on_c, 0, 72, 100
1, 20015, Note_off_c, 0, 72, 100
1, 20245, Note_on_c, 0, 66, 100
1, 20341, Note_off_c, 0, 66, 100
1, 20341, Note_on_c, 0, 70, 100
1, 20389, Note_off_c, 0, 70, 100
1, 20389, Note_on_c, 0, 72, 100
1, 20437, Note_off_c, 0, 72, 100
1, 20437, Note_on_c, 0, 71, 100
1, 20485, Note_off_c, 0, 71, 100
1, 20485, Note_on_c, 0, 69, 100
1, 20533, Note_off_c, 0, 69, 100
1, 20533, Note_on_c, 0, 72, 100
1, 20581, Note_off_c, 0, 72, 100
1, 20581, Note_on_c, 0, 70, 100
1, 20629, Note_off_c, 0, 70, 100
1, 20629, Note_on_c, 0, 67, 100
1, 20677, Note_off_c, 0, 67, 100
1, 20677, Note_on_c, 0, 64, 100
1, 20725, Note_off_c, 0, 64, 100
1, 20725, Note_on_c, 0, 60, 100
1, 20749, Note_off_c, 0, 60, 100
1, 20749, Note_on_c, 0, 59, 100
1, 20773, Note_off_c, 0, 59, 100
1, 20773, Note_on_c, 0, 58, 100
1, 20821, Note_off_c, 0, 58, 100
1, 20821, Note_on_c, 0, 56, 100
1, 20893, Note_off_c, 0, 56, 100
1, 20893, Note_on_c, 0, 60, 100
1, 20949, Note_off_c, 0, 60, 100
1, 20949, Note_on_c, 0, 67, 100
1, 21013, Note_off_c, 0, 67, 100
1, 21013, Note_on_c, 0, 64, 100
1, 21045, Note_off_c, 0, 64, 100
1, 21045, Note_on_c, 0, 65, 100
1, 21077, Note_off_c, 0, 65, 100
1, 21077, Note_on_c, 0, 69, 100
1, 21109, Note_off_c, 0, 69, 100
1, 21109, Note_on_c, 0, 72, 100
1, 21157, Note_off_c, 0, 72, 100
1, 21157, Note_on_c, 0, 76, 100
1, 21205, Note_off_c, 0, 76, 100
1, 21205, Note_on_c, 0, 79, 100
1, 21301, Note_off_c, 0, 79, 100
1, 21301, Note_on_c, 0, 74, 100
1, 21365, Note_off_c, 0, 74, 100
1, 21365, Note_on_c, 0, 77, 100
1, 21429, Note_off_c, 0, 77, 100
1, 21429, Note_on_c, 0, 76, 100
1, 21493, Note_off_c, 0, 76, 100
1, 21493, Note_on_c, 0, 72, 100
1, 21589, Note_off_c, 0, 72, 100
1, 21589, Note_on_c, 0, 68, 100
1, 21685, Note_off_c, 0, 68, 100
1, 21685, Note_on_c, 0, 74, 100
1, 21781, Note_off_c, 0, 74, 100
1, 21781, Note_on_c, 0, 72, 100
1, 21877, Note_off_c, 0, 72, 100
1, 21877, Note_on_c, 0, 68, 100
1, 21941, Note_off_c, 0, 68, 100
1, 21941, Note_on_c, 0, 62, 100
1, 21973, Note_off_c, 0, 62, 100
1, 21973, Note_on_c, 0, 60, 100
1, 22005, Note_off_c, 0, 60, 100
1, 22005, Note_on_c, 0, 59, 100
1, 22037, Note_off_c, 0, 59, 100
1, 22037, Note_on_c, 0, 58, 100
1, 22069, Note_off_c, 0, 58, 100
1, 22069, Note_on_c, 0, 57, 100
1, 22101, Note_off_c, 0, 57, 100
1, 22101, Note_on_c, 0, 56, 100
1, 22133, Note_off_c, 0, 56, 100
1, 22133, Note_on_c, 0, 55, 100
1, 22197, Note_off_c, 0, 55, 100
1, 22197, Note_on_c, 0, 64, 100
1, 22261, Note_off_c, 0, 64, 100
1, 22261, Note_on_c, 0, 55, 100
1, 22357, Note_off_c, 0, 55, 100
1, 22357, Note_on_c, 0, 52, 100
1, 22453, Note_off_c, 0, 52, 100
1, 22741, Note_on_c, 0, 59, 100
1, 22789, Note_off_c, 0, 59, 100
1, 22789, Note_on_c, 0, 60, 100
1, 22885, Note_off_c, 0, 60, 100
1, 22885, Note_on_c, 0, 64, 100
1, 22933, Note_off_c, 0, 64, 100
1, 22933, Note_on_c, 0, 67, 100
1, 22981, Note_off_c, 0, 67, 100
1, 22981, Note_on_c, 0, 69, 100
1, 23077, Note_off_c, 0, 69, 100
1, 23077, Note_on_c, 0, 68, 100
1, 23125, Note_off_c, 0, 68, 100
1, 23125, Note_on_c, 0, 71, 100
1, 23221, Note_off_c, 0, 71, 100
1, 23221, Note_on_c, 0, 70, 100
1, 23259, Note_off_c, 0, 70, 100
1, 23259, Note_on_c, 0, 71, 100
1, 23335, Note_off_c, 0, 71, 100
1, 23335, Note_on_c, 0, 70, 100
1, 23373, Note_off_c, 0, 70, 100
1, 23373, Note_on_c, 0, 71, 100
1, 23411, Note_off_c, 0, 71, 100
1, 23411, Note_on_c, 0, 70, 100
1, 23507, Note_off_c, 0, 70, 100
1, 23507, Note_on_c, 0, 64, 100
1, 23603, Note_off_c, 0, 64, 100
1, 23603, Note_on_c, 0, 69, 100
1, 23699, Note_off_c, 0, 69, 100
1, 23699, Note_on_c, 0, 71, 100
1, 23795, Note_off_c, 0, 71, 100
1, 23795, Note_on_c, 0, 72, 100
1, 23891, Note_off_c, 0, 72, 100
1, 23891, Note_on_c, 0, 69, 100
1, 23987, Note_off_c, 0, 69, 100
1, 23987, Note_on_c, 0, 63, 100
1, 24083, Note_off_c, 0, 63, 100
1, 24083, Note_on_c, 0, 62, 100
1, 24131, Note_off_c, 0, 62, 100
1, 24131, Note_on_c, 0, 60, 100
1, 24179, Note_off_c, 0, 60, 100
1, 24179, Note_on_c, 0, 62, 100
1, 24419, Note_off_c, 0, 62, 100
1, 24419, Note_on_c, 0, 57, 100
1, 24515, Note_off_c, 0, 57, 100
1, 24515, Note_on_c, 0, 60, 100
1, 24627, Note_off_c, 0, 60, 100
1, 24627, Note_on_c, 0, 69, 100
1, 24755, Note_off_c, 0, 69, 100
1, 24755, Note_on_c, 0, 63, 100
1, 24899, Note_off_c, 0, 63, 100
1, 24899, Note_on_c, 0, 57, 100
1, 25011, Note_off_c, 0, 57, 100
1, 25011, Note_on_c, 0, 60, 100
1, 25139, Note_off_c, 0, 60, 100
1, 25139, Note_on_c, 0, 69, 100
1, 25283, Note_off_c, 0, 69, 100
1, 25283, Note_on_c, 0, 63, 100
1, 25379, Note_off_c, 0, 63, 100
1, 25379, Note_on_c, 0, 57, 100
1, 25475, Note_off_c, 0, 57, 100
1, 25475, Note_on_c, 0, 60, 100
1, 25571, Note_off_c, 0, 60, 100
1, 25811, Note_on_c, 0, 69, 100
1, 25955, Note_off_c, 0, 69, 100
1, 25955, Note_on_c, 0, 63, 100
1, 26099, Note_off_c, 0, 63, 100
1, 26099, Note_on_c, 0, 57, 100
1, 26195, Note_off_c, 0, 57, 100
1, 26195, Note_on_c, 0, 60, 100
1, 26291, Note_off_c, 0, 60, 100
1, 26579, Note_on_c, 0, 69, 100
1, 26675, Note_off_c, 0, 69, 100
1, 26675, Note_on_c, 0, 63, 100
1, 26867, Note_off_c, 0, 63, 100
1, 26867, Note_on_c, 0, 57, 100
1, 26995, Note_off_c, 0, 57, 100
1, 26995, Note_on_c, 0, 60, 100
1, 27107, Note_off_c, 0, 60, 100
1, 27107, Note_on_c, 0, 59, 100
1, 27155, Note_off_c, 0, 59, 100
1, 27155, Note_on_c, 0, 57, 100
1, 27251, Note_off_c, 0, 57, 100
1, 27251, Note_on_c, 0, 69, 100
1, 27347, Note_off_c, 0, 69, 100
1, 27347, Note_on_c, 0, 62, 100
1, 27443, Note_off_c, 0, 62, 100
1, 27443, Note_on_c, 0, 57, 100
1, 27635, Note_off_c, 0, 57, 100
1, 27635, Note_on_c, 0, 60, 100
1, 27891, Note_off_c, 0, 60, 100
1, 27891, Note_on_c, 0, 59, 100
1, 27923, Note_off_c, 0, 59, 100
1, 27923, Note_on_c, 0, 60, 100
1, 27955, Note_off_c, 0, 60, 100
1, 27955, Note_on_c, 0, 62, 100
1, 27987, Note_off_c, 0, 62, 100
1, 27987, Note_on_c, 0, 67, 100
1, 28019, Note_off_c, 0, 67, 100
1, 28019, Note_on_c, 0, 71, 100
1, 28115, Note_off_c, 0, 71, 100
1, 28115, Note_on_c, 0, 74, 100
1, 28211, Note_off_c, 0, 74, 100
1, 28211, Note_on_c, 0, 71, 100
1, 28275, Note_off_c, 0, 71, 100
1, 28275, Note_on_c, 0, 67, 100
1, 28339, Note_off_c, 0, 67, 100
1, 28339, Note_on_c, 0, 64, 100
1, 28403, Note_off_c, 0, 64, 100
1, 28403, Note_on_c, 0, 60, 100
1, 28441, Note_off_c, 0, 60, 100
1, 28441, Note_on_c, 0, 58, 100
1, 28479, Note_off_c, 0, 58, 100
1, 28479, Note_on_c, 0, 55, 100
1, 28517, Note_off_c, 0, 55, 100
1, 28517, Note_on_c, 0, 50, 100
1, 28555, Note_off_c, 0, 50, 100
1, 28555, Note_on_c, 0, 57, 100
1, 28593, Note_off_c, 0, 57, 100
1, 28593, Note_on_c, 0, 64, 100
1, 28641, Note_off_c, 0, 64, 100
1, 28641, Note_on_c, 0, 60, 100
1, 28689, Note_off_c, 0, 60, 100
1, 28689, Note_on_c, 0, 55, 100
1, 28785, Note_off_c, 0, 55, 100
1, 28785, Note_on_c, 0, 64, 100
1, 28881, Note_off_c, 0, 64, 100
1, 29121, Note_on_c, 0, 53, 100
1, 29217, Note_off_c, 0, 53, 100
1, 29217, Note_on_c, 0, 58, 100
1, 29265, Note_off_c, 0, 58, 100
1, 29265, Note_on_c, 0, 62, 100
1, 29313, Note_off_c, 0, 62, 100
1, 29313, Note_on_c, 0, 65, 100
1, 29425, Note_off_c, 0, 65, 100
1, 29425, Note_on_c, 0, 70, 100
1, 29489, Note_off_c, 0, 70, 100
1, 29489, Note_on_c, 0, 74, 100
1, 29553, Note_off_c, 0, 74, 100
1, 29553, Note_on_c, 0, 79, 100
1, 29649, Note_off_c, 0, 79, 100
1, 29649, Note_on_c, 0, 80, 100
1, 29745, Note_off_c, 0, 80, 100
1, 29745, Note_on_c, 0, 80, 100
1, 29793, Note_off_c, 0, 80, 100
1, 29793, Note_on_c, 0, 81, 100
1, 29841, Note_off_c, 0, 81, 100
1, 29841, Note_on_c, 0, 69, 100
1, 29937, Note_off_c, 0, 69, 100
1, 29937, Note_on_c, 0, 71, 100
1, 30033, Note_off_c, 0, 71, 100
1, 30033, Note_on_c, 0, 72, 100
1, 30129, Note_off_c, 0, 72, 100
1, 30129, Note_on_c, 0, 68, 100
1, 30225, Note_off_c, 0, 68, 100
1, 30225, Note_on_c, 0, 71, 100
1, 30273, Note_off_c, 0, 71, 100
1, 30273, Note_on_c, 0, 69, 100
1, 30369, Note_off_c, 0, 69, 100
1, 30369, Note_on_c, 0, 64, 100
1, 30417, Note_off_c, 0, 64, 100
1, 30417, Note_on_c, 0, 66, 100
1, 30513, Note_off_c, 0, 66, 100
1, 30513, Note_on_c, 0, 64, 100
1, 30609, Note_off_c, 0, 64, 100
1, 30609, Note_on_c, 0, 60, 100
1, 30705, Note_off_c, 0, 60, 100
1, 30705, Note_on_c, 0, 62, 100
1, 30801, Note_off_c, 0, 62, 100
1, 31137, Note_on_c, 0, 59, 100
1, 31185, Note_off_c, 0, 59, 100
1, 31185, Note_on_c, 0, 62, 100
1, 31233, Note_off_c, 0, 62, 100
1, 31233, Note_on_c, 0, 65, 100
1, 31281, Note_off_c, 0, 65, 100
1, 31281, Note_on_c, 0, 64, 100
1, 31329, Note_off_c, 0, 64, 100
1, 31329, Note_on_c, 0, 67, 100
1, 31377, Note_off_c, 0, 67, 100
1, 31377, Note_on_c, 0, 71, 100
1, 31425, Note_off_c, 0, 71, 100
1, 31425, Note_on_c, 0, 74, 100
1, 31473, Note_off_c, 0, 74, 100
1, 31473, Note_on_c, 0, 72, 100
1, 31521, Note_off_c, 0, 72, 100
1, 31521, Note_on_c, 0, 74, 100
1, 31569, Note_off_c, 0, 74, 100
1, 31569, Note_on_c, 0, 72, 100
1, 31617, Note_off_c, 0, 72, 100
1, 31617, Note_on_c, 0, 69, 100
1, 31665, Note_off_c, 0, 69, 100
1, 31665, Note_on_c, 0, 70, 100
1, 31761, Note_off_c, 0, 70, 100
1, 31761, Note_on_c, 0, 62, 100
1, 31857, Note_off_c, 0, 62, 100
1, 31857, Note_on_c, 0, 66, 100
1, 31905, Note_off_c, 0, 66, 100
1, 31905, Note_on_c, 0, 69, 100
1, 32001, Note_off_c, 0, 69, 100
1, 32001, Note_on_c, 0, 62, 100
1, 32097, Note_off_c, 0, 62, 100
1, 32097, Note_on_c, 0, 54, 100
1, 32145, Note_off_c, 0, 54, 100
1, 32145, Note_on_c, 0, 57, 100
1, 32193, Note_off_c, 0, 57, 100
1, 32193, Note_on_c, 0, 54, 100
1, 32241, Note_off_c, 0, 54, 100
1, 32241, Note_on_c, 0, 57, 100
1, 32273, Note_off_c, 0, 57, 100
1, 32273, Note_on_c, 0, 62, 100
1, 32305, Note_off_c, 0, 62, 100
1, 32305, Note_on_c, 0, 58, 100
1, 32337, Note_off_c, 0, 58, 100
1, 32337, Note_on_c, 0, 62, 100
1, 32369, Note_off_c, 0, 62, 100
1, 32369, Note_on_c, 0, 65, 100
1, 32401, Note_off_c, 0, 65, 100
1, 32401, Note_on_c, 0, 66, 100
1, 32457, Note_off_c, 0, 66, 100
1, 32457, Note_on_c, 0, 70, 100
1, 32505, Note_off_c, 0, 70, 100
1, 32505, Note_on_c, 0, 66, 100
1, 32529, Note_off_c, 0, 66, 100
1, 32529, Note_on_c, 0, 70, 100
1, 32553, Note_off_c, 0, 70, 100
1, 32553, Note_on_c, 0, 74, 100
1, 32577, Note_off_c, 0, 74, 100
1, 32577, Note_on_c, 0, 70, 100
1, 32625, Note_off_c, 0, 70, 100
1, 32625, Note_on_c, 0, 74, 100
1, 32673, Note_off_c, 0, 74, 100
1, 32673, Note_on_c, 0, 78, 100
1, 32865, Note_off_c, 0, 78, 100
1, 32865, Note_on_c, 0, 78, 100
1, 32913, Note_off_c, 0, 78, 100
1, 32913, Note_on_c, 0, 79, 100
1, 33009, Note_off_c, 0, 79, 100
1, 33009, Note_on_c, 0, 76, 100
1, 33105, Note_off_c, 0, 76, 100
1, 33105, Note_on_c, 0, 72, 100
1, 33201, Note_off_c, 0, 72, 100
1, 33201, Note_on_c, 0, 68, 100
1, 33249, Note_off_c, 0, 68, 100
1, 33249, Note_on_c, 0, 70, 100
1, 33297, Note_off_c, 0, 70, 100
1, 33297, Note_on_c, 0, 71, 100
1, 33345, Note_off_c, 0, 71, 100
1, 33345, Note_on_c, 0, 72, 100
1, 33393, Note_off_c, 0, 72, 100
1, 33393, Note_on_c, 0, 69, 100
1, 33441, Note_off_c, 0, 69, 100
1, 33441, Note_on_c, 0, 64, 100
1, 33489, Note_off_c, 0, 64, 100
1, 33489, Note_on_c, 0, 60, 100
1, 33537, Note_off_c, 0, 60, 100
1, 33537, Note_on_c, 0, 58, 100
1, 33585, Note_off_c, 0, 58, 100
1, 33585, Note_on_c, 0, 56, 100
1, 33617, Note_off_c, 0, 56, 100
1, 33617, Note_on_c, 0, 55, 100
1, 33649, Note_off_c, 0, 55, 100
1, 33649, Note_on_c, 0, 56, 100
1, 33681, Note_off_c, 0, 56, 100
1, 33681, Note_on_c, 0, 59, 100
1, 33713, Note_off_c, 0, 59, 100
1, 33713, Note_on_c, 0, 63, 100
1, 33745, Note_off_c, 0, 63, 100
1, 33745, Note_on_c, 0, 67, 100
1, 33841, Note_off_c, 0, 67, 100
1, 33841, Note_on_c, 0, 65, 100
1, 33905, Note_off_c, 0, 65, 100
1, 33905, Note_on_c, 0, 62, 100
1, 34065, Note_off_c, 0, 62, 100
1, 34065, Note_on_c, 0, 56, 100
1, 34161, Note_off_c, 0, 56, 100
1, 34429, Note_on_c, 0, 63, 100
1, 34467, Note_off_c, 0, 63, 100
1, 34467, Note_on_c, 0, 64, 100
1, 34505, Note_off_c, 0, 64, 100
1, 34505, Note_on_c, 0, 59, 100
1, 34543, Note_off_c, 0, 59, 100
1, 34543, Note_on_c, 0, 62, 100
1, 34639, Note_off_c, 0, 62, 100
1, 34639, Note_on_c, 0, 60, 100
1, 34735, Note_off_c, 0, 60, 100
1, 34735, Note_on_c, 0, 71, 100
1, 34831, Note_off_c, 0, 71, 100
1, 34831, Note_on_c, 0, 68, 100
1, 34879, Note_off_c, 0, 68, 100
1, 34879, Note_on_c, 0, 69, 100
1, 34927, Note_off_c, 0, 69, 100
1, 34927, Note_on_c, 0, 64, 100
1, 35023, Note_off_c, 0, 64, 100
1, 35023, Note_on_c, 0, 67, 100
1, 35119, Note_off_c, 0, 67, 100
1, 35119, Note_on_c, 0, 64, 100
1, 35183, Note_off_c, 0, 64, 100
1, 35183, Note_on_c, 0, 60, 100
1, 35247, Note_off_c, 0, 60, 100
1, 35247, Note_on_c, 0, 59, 100
1, 35375, Note_off_c, 0, 59, 100
1, 35375, Note_on_c, 0, 58, 100
1, 35503, Note_off_c, 0, 58, 100
1, 35503, Note_on_c, 0, 57, 100
1, 35599, Note_off_c, 0, 57, 100
1, 35599, Note_on_c, 0, 56, 100
1, 35695, Note_off_c, 0, 56, 100
1, 35695, Note_on_c, 0, 63, 100
1, 35759, Note_off_c, 0, 63, 100
1, 35759, Note_on_c, 0, 64, 100
1, 35823, Note_off_c, 0, 64, 100
1, 35823, Note_on_c, 0, 57, 100
1, 36031, Note_off_c, 0, 57, 100
1, 36031, Note_on_c, 0, 60, 100
1, 36175, Note_off_c, 0, 60, 100
1, 36175, Note_on_c, 0, 62, 100
1, 36223, Note_off_c, 0, 62, 100
1, 36223, Note_on_c, 0, 64, 100
1, 36335, Note_off_c, 0, 64, 100
1, 36335, Note_on_c, 0, 57, 100
1, 36463, Note_off_c, 0, 57, 100
1, 36463, Note_on_c, 0, 61, 100
1, 36511, Note_off_c, 0, 61, 100
1, 36511, Note_on_c, 0, 63, 100
1, 36607, Note_off_c, 0, 63, 100
1, 36607, Note_on_c, 0, 57, 100
1, 36751, Note_off_c, 0, 57, 100
1, 36751, Note_on_c, 0, 60, 100
1, 36799, Note_off_c, 0, 60, 100
1, 36799, Note_on_c, 0, 62, 100
1, 36847, Note_off_c, 0, 62, 100
1, 36847, Note_on_c, 0, 60, 100
1, 37103, Note_off_c, 0, 60, 100
1, 37103, Note_on_c, 0, 60, 100
1, 37135, Note_off_c, 0, 60, 100
1, 37135, Note_on_c, 0, 62, 100
1, 37167, Note_off_c, 0, 62, 100
1, 37167, Note_on_c, 0, 60, 100
1, 37199, Note_off_c, 0, 60, 100
1, 37199, Note_on_c, 0, 59, 100
1, 37231, Note_off_c, 0, 59, 100
1, 37231, Note_on_c, 0, 60, 100
1, 37279, Note_off_c, 0, 60, 100
1, 37279, Note_on_c, 0, 69, 100
1, 37327, Note_off_c, 0, 69, 100
1, 37327, Note_on_c, 0, 65, 100
1, 37375, Note_off_c, 0, 65, 100
1, 37375, Note_on_c, 0, 62, 100
1, 37487, Note_off_c, 0, 62, 100
1, 37487, Note_on_c, 0, 59, 100
1, 37615, Note_off_c, 0, 59, 100
1, 37615, Note_on_c, 0, 64, 100
1, 37711, Note_off_c, 0, 64, 100
1, 37711, Note_on_c, 0, 60, 100
1, 37973, Note_off_c, 0, 60, 100
1, 37973, End_track
0, 0, End_of_file
