0, 0, Header, 1, 1, 192
1, 0, Start_track
1, 0, Title_t, "Melody"
1, 0, Tempo, 1132075
1, 0, Key_signature, -5, "major"
1, 0, Time_signature, 4, 2, 24, 8
1, 144, Note_on_c, 0, 55, 100
1, 192, Note_off_c, 0, 55, 100
1, 192, Note_on_c, 0, 56, 100
1, 246, Note_off_c, 0, 56, 100
1, 246, Note_on_c, 0, 58, 100
1, 300, Note_off_c, 0, 58, 100
1, 300, Note_on_c, 0, 59, 100
1, 354, Note_off_c, 0, 59, 100
1, 354, Note_on_c, 0, 60, 100
1, 429, Note_off_c, 0, 60, 100
1, 429, Note_on_c, 0, 59, 100
1, 477, Note_off_c, 0, 59, 100
1, 477, Note_on_c, 0, 58, 100
1, 525, Note_off_c, 0, 58, 100
1, 525, Note_on_c, 0, 57, 100
1, 621, Note_off_c, 0, 57, 100
1, 621, Note_on_c, 0, 54, 100
1, 669, Note_off_c, 0, 54, 100
1, 669, Note_on_c, 0, 53, 100
1, 717, Note_off_c, 0, 53, 100
1, 717, Note_on_c, 0, 51, 100
1, 765, Note_off_c, 0, 51, 100
1, 765, Note_on_c, 0, 53, 100
1, 861, Note_off_c, 0, 53, 100
1, 861, Note_on_c, 0, 53, 100
1, 1225, Note_off_c, 0, 53, 100
1, 1225, Note_on_c, 0, 47, 100
1, 1263, Note_off_c, 0, 47, 100
1, 1263, Note_on_c, 0, 48, 100
1, 1301, Note_off_c, 0, 48, 100
1, 1301, Note_on_c, 0, 53, 100
1, 1339, Note_off_c, 0, 53, 100
1, 1339, Note_on_c, 0, 46, 100
1, 1387, Note_off_c, 0, 46, 100
1, 1387, Note_on_c, 0, 44, 100
1, 1579, Note_off_c, 0, 44, 100
1, 1579, Note_on_c, 0, 58, 100
1, 1627, Note_off_c, 0, 58, 100
1, 1627, Note_on_c, 0, 59, 100
1, 1675, Note_off_c, 0, 59, 100
1, 1675, Note_on_c, 0, 56, 100
1, 1723, Note_off_c, 0, 56, 100
1, 1723, Note_on_c, 0, 52, 100
1, 1771, Note_off_c, 0, 52, 100
1, 1771, Note_on_c, 0, 49, 100
1, 1819, Note_off_c, 0, 49, 100
1, 1819, Note_on_c, 0, 54, 100
1, 1867, Note_off_c, 0, 54, 100
1, 1867, Note_on_c, 0, 51, 100
1, 1915, Note_off_c, 0, 51, 100
1, 1915, Note_on_c, 0, 46, 100
1, 2011, Note_off_c, 0, 46, 100
1, 2375, Note_on_c, 0, 58, 100
1, 2413, Note_off_c, 0, 58, 100
1, 2413, Note_on_c, 0, 59, 100
1, 2451, Note_off_c, 0, 59, 100
1, 2451, Note_on_c, 0, 56, 100
1, 2489, Note_off_c, 0, 56, 100
1, 2489, Note_on_c, 0, 55, 100
1, 2537, Note_off_c, 0, 55, 100
1, 2537, Note_on_c, 0, 56, 100
1, 2585, Note_off_c, 0, 56, 100
1, 2585, Note_on_c, 0, 58, 100
1, 2633, Note_off_c, 0, 58, 100
1, 2633, Note_on_c, 0, 59, 100
1, 2766, Note_off_c, 0, 59, 100
1, 2766, Note_on_c, 0, 58, 100
1, 2787, Note_off_c, 0, 58, 100
1, 2787, Note_on_c, 0, 59, 100
1, 2808, Note_off_c, 0, 59, 100
1, 2808, Note_on_c, 0, 56, 100
1, 2850, Note_off_c, 0, 56, 100
1, 2850, Note_on_c, 0, 54, 100
1, 2919, Note_off_c, 0, 54, 100
1, 2919, Note_on_c, 0, 53, 100
1, 2967, Note_off_c, 0, 53, 100
1, 2967, Note_on_c, 0, 51, 100
1, 3015, Note_off_c, 0, 51, 100
1, 3015, Note_on_c, 0, 52, 100
1, 3063, Note_off_c, 0, 52, 100
1, 3063, Note_on_c, 0, 53, 100
1, 3111, Note_off_c, 0, 53, 100
1, 3111, Note_on_c, 0, 48, 100
1, 3159, Note_off_c, 0, 48, 100
1, 3159, Note_on_c, 0, 60, 100
1, 3207, Note_off_c, 0, 60, 100
1, 3207, Note_on_c, 0, 58, 100
1, 3255, Note_off_c, 0, 58, 100
1, 3255, Note_on_c, 0, 60, 100
1, 3639, Note_off_c, 0, 60, 100
1, 3879, Note_on_c, 0, 63, 100
1, 3927, Note_off_c, 0, 63, 100
1, 3927, Note_on_c, 0, 61, 100
1, 3975, Note_off_c, 0, 61, 100
1, 3975, Note_on_c, 0, 63, 100
1, 4119, Note_off_c, 0, 63, 100
1, 4119, Note_on_c, 0, 61, 100
1, 4167, Note_off_c, 0, 61, 100
1, 4167, Note_on_c, 0, 63, 100
1, 4215, Note_off_c, 0, 63, 100
1, 4215, Note_on_c, 0, 64, 100
1, 4253, Note_off_c, 0, 64, 100
1, 4253, Note_on_c, 0, 61, 100
1, 4291, Note_off_c, 0, 61, 100
1, 4291, Note_on_c, 0, 63, 100
1, 4329, Note_off_c, 0, 63, 100
1, 4329, Note_on_c, 0, 61, 100
1, 4367, Note_off_c, 0, 61, 100
1, 4367, Note_on_c, 0, 58, 100
1, 4405, Note_off_c, 0, 58, 100
1, 4405, Note_on_c, 0, 55, 100
1, 4437, Note_off_c, 0, 55, 100
1, 4437, Note_on_c, 0, 56, 100
1, 4469, Note_off_c, 0, 56, 100
1, 4469, Note_on_c, 0, 57, 100
1, 4501, Note_off_c, 0, 57, 100
1, 4501, Note_on_c, 0, 56, 100
1, 4533, Note_off_c, 0, 56, 100
1, 4533, Note_on_c, 0, 56, 100
1, 4693, Note_off_c, 0, 56, 100
1, 4693, Note_on_c, 0, 54, 100
1, 4741, Note_off_c, 0, 54, 100
1, 4741, Note_on_c, 0, 53, 100
1, 4789, Note_off_c, 0, 53, 100
1, 4789, Note_on_c, 0, 51, 100
1, 4837, Note_off_c, 0, 51, 100
1, 4837, Note_on_c, 0, 53, 100
1, 4933, Note_off_c, 0, 53, 100
1, 5125, Note_on_c, 0, 50, 100
1, 5173, Note_off_c, 0, 50, 100
1, 5173, Note_on_c, 0, 51, 100
1, 5192, Note_off_c, 0, 51, 100
1, 5192, Note_on_c, 0, 54, 100
1, 5211, Note_off_c, 0, 54, 100
1, 5211, Note_on_c, 0, 58, 100
1, 5249, Note_off_c, 0, 58, 100
1, 5249, Note_on_c, 0, 55, 100
1, 5268, Note_off_c, 0, 55, 100
1, 5268, Note_on_c, 0, 56, 100
1, 5287, Note_off_c, 0, 56, 100
1, 5287, Note_on_c, 0, 58, 100
1, 5306, Note_off_c, 0, 58, 100
1, 5306, Note_on_c, 0, 67, 100
1, 5325, Note_off_c, 0, 67, 100
1, 5325, Note_on_c, 0, 68, 100
1, 5344, Note_off_c, 0, 68, 100
1, 5344, Note_on_c, 0, 63, 100
1, 5363, Note_off_c, 0, 63, 100
1, 5363, Note_on_c, 0, 65, 100
1, 5390, Note_off_c, 0, 65, 100
1, 5390, Note_on_c, 0, 61, 100
1, 5417, Note_off_c, 0, 61, 100
1, 5417, Note_on_c, 0, 60, 100
1, 5444, Note_off_c, 0, 60, 100
1, 5444, Note_on_c, 0, 58, 100
1, 5471, Note_off_c, 0, 58, 100
1, 5471, Note_on_c, 0, 63, 100
1, 5498, Note_off_c, 0, 63, 100
1, 5498, Note_on_c, 0, 62, 100
1, 5525, Note_off_c, 0, 62, 100
1, 5525, Note_on_c, 0, 61, 100
1, 5552, Note_off_c, 0, 61, 100
1, 5552, Note_on_c, 0, 60, 100
1, 5590, Note_off_c, 0, 60, 100
1, 5590, Note_on_c, 0, 59, 100
1, 5628, Note_off_c, 0, 59, 100
1, 5628, Note_on_c, 0, 58, 100
1, 5666, Note_off_c, 0, 58, 100
1, 5666, Note_on_c, 0, 56, 100
1, 5704, Note_off_c, 0, 56, 100
1, 5704, Note_on_c, 0, 54, 100
1, 5742, Note_off_c, 0, 54, 100
1, 5742, Note_on_c, 0, 53, 100
1, 5780, Note_off_c, 0, 53, 100
1, 5780, Note_on_c, 0, 51, 100
1, 5818, Note_off_c, 0, 51, 100
1, 5818, Note_on_c, 0, 53, 100
1, 5856, Note_off_c, 0, 53, 100
1, 5856, Note_on_c, 0, 48, 100
1, 5894, Note_off_c, 0, 48, 100
1, 5894, Note_on_c, 0, 46, 100
1, 5932, Note_off_c, 0, 46, 100
1, 5932, Note_on_c, 0, 46, 100
1, 5996, Note_off_c, 0, 46, 100
1, 5996, Note_on_c, 0, 45, 100
1, 6060, Note_off_c, 0, 45, 100
1, 6060, Note_on_c, 0, 43, 100
1, 6124, Note_off_c, 0, 43, 100
1, 6124, Note_on_c, 0, 44, 100
1, 6162, Note_off_c, 0, 44, 100
1, 6162, Note_on_c, 0, 51, 100
1, 6200, Note_off_c, 0, 51, 100
1, 6200, Note_on_c, 0, 53, 100
1, 6238, Note_off_c, 0, 53, 100
1, 6238, Note_on_c, 0, 48, 100
1, 6276, Note_off_c, 0, 48, 100
1, 6276, Note_on_c, 0, 45, 100
1, 6314, Note_off_c, 0, 45, 100
1, 6314, Note_on_c, 0, 60, 100
1, 6352, Note_off_c, 0, 60, 100
1, 6352, Note_on_c, 0, 56, 100
1, 6390, Note_off_c, 0, 56, 100
1, 6390, Note_on_c, 0, 58, 100
1, 6428, Note_off_c, 0, 58, 100
1, 6428, Note_on_c, 0, 63, 100
1, 6466, Note_off_c, 0, 63, 100
1, 6466, Note_on_c, 0, 64, 100
1, 6504, Note_off_c, 0, 64, 100
1, 6504, Note_on_c, 0, 61, 100
1, 6552, Note_off_c, 0, 61, 100
1, 6552, Note_on_c, 0, 60, 100
1, 6600, Note_off_c, 0, 60, 100
1, 6600, Note_on_c, 0, 70, 100
1, 6624, Note_off_c, 0, 70, 100
1, 6624, Note_on_c, 0, 68, 100
1, 6648, Note_off_c, 0, 68, 100
1, 6648, Note_on_c, 0, 71, 100
1, 6672, Note_off_c, 0, 71, 100
1, 6672, Note_on_c, 0, 66, 100
1, 6728, Note_off_c, 0, 66, 100
1, 6728, Note_on_c, 0, 65, 100
1, 6760, Note_off_c, 0, 65, 100
1, 6760, Note_on_c, 0, 63, 100
1, 6792, Note_off_c, 0, 63, 100
1, 6792, Note_on_c, 0, 64, 100
1, 6824, Note_off_c, 0, 64, 100
1, 6824, Note_on_c, 0, 65, 100
1, 6856, Note_off_c, 0, 65, 100
1, 6856, Note_on_c, 0, 60, 100
1, 6888, Note_off_c, 0, 60, 100
1, 6888, Note_on_c, 0, 58, 100
1, 6984, Note_off_c, 0, 58, 100
1, 7272, Note_on_c, 0, 72, 100
1, 7320, Note_off_c, 0, 72, 100
1, 7320, Note_on_c, 0, 73, 100
1, 7368, Note_off_c, 0, 73, 100
1, 7368, Note_on_c, 0, 75, 100
1, 7464, Note_off_c, 0, 75, 100
1, 7464, Note_on_c, 0, 73, 100
1, 7560, Note_off_c, 0, 73, 100
1, 7560, Note_on_c, 0, 72, 100
1, 7608, Note_off_c, 0, 72, 100
1, 7608, Note_on_c, 0, 70, 100
1, 7704, Note_off_c, 0, 70, 100
1, 7704, Note_on_c, 0, 71, 100
1, 7800, Note_off_c, 0, 71, 100
1, 7800, Note_on_c, 0, 64, 100
1, 7896, Note_off_c, 0, 64, 100
1, 7896, Note_on_c, 0, 75, 100
1, 7992, Note_off_c, 0, 75, 100
1, 7992, Note_on_c, 0, 74, 100
1, 8078, Note_off_c, 0, 74, 100
1, 8078, Note_on_c, 0, 70, 100
1, 8116, Note_off_c, 0, 70, 100
1, 8116, Note_on_c, 0, 71, 100
1, 8154, Note_off_c, 0, 71, 100
1, 8154, Note_on_c, 0, 64, 100
1, 8192, Note_off_c, 0, 64, 100
1, 8192, Note_on_c, 0, 63, 100
1, 8278, Note_off_c, 0, 63, 100
1, 8278, Note_on_c, 0, 61, 100
1, 8326, Note_off_c, 0, 61, 100
1, 8326, Note_on_c, 0, 59, 100
1, 8374, Note_off_c, 0, 59, 100
1, 8374, Note_on_c, 0, 58, 100
1, 8422, Note_off_c, 0, 58, 100
1, 8422, Note_on_c, 0, 51, 100
1, 8486, Note_off_c, 0, 51, 100
1, 8486, Note_on_c, 0, 58, 100
1, 8550, Note_off_c, 0, 58, 100
1, 8550, Note_on_c, 0, 47, 100
1, 8646, Note_off_c, 0, 47, 100
1, 8851, Note_on_c, 0, 57, 100
1, 8869, Note_off_c, 0, 57, 100
1, 8869, Note_on_c, 0, 49, 100
1, 8905, Note_off_c, 0, 49, 100
1, 8905, Note_on_c, 0, 47, 100
1, 8914, Note_off_c, 0, 47, 100
1, 8914, Note_on_c, 0, 48, 100
1, 8923, Note_off_c, 0, 48, 100
1, 8923, Note_on_c, 0, 49, 100
1, 8932, Note_off_c, 0, 49, 100
1, 8932, Note_on_c, 0, 51, 100
1, 8941, Note_off_c, 0, 51, 100
1, 8941, Note_on_c, 0, 53, 100
1, 8959, Note_off_c, 0, 53, 100
1, 8959, Note_on_c, 0, 50, 100
1, 8986, Note_off_c, 0, 50, 100
1, 8986, Note_on_c, 0, 48, 100
1, 8995, Note_off_c, 0, 48, 100
1, 8995, Note_on_c, 0, 52, 100
1, 9027, Note_off_c, 0, 52, 100
1, 9027, Note_on_c, 0, 48, 100
1, 9155, Note_off_c, 0, 48, 100
1, 9155, Note_on_c, 0, 44, 100
1, 9263, Note_off_c, 0, 44, 100
1, 9263, Note_on_c, 0, 51, 100
1, 9282, Note_off_c, 0, 51, 100
1, 9282, Note_on_c, 0, 58, 100
1, 9301, Note_off_c, 0, 58, 100
1, 9301, Note_on_c, 0, 55, 100
1, 9320, Note_off_c, 0, 55, 100
1, 9320, Note_on_c, 0, 56, 100
1, 9339, Note_off_c, 0, 56, 100
1, 9339, Note_on_c, 0, 58, 100
1, 9358, Note_off_c, 0, 58, 100
1, 9358, Note_on_c, 0, 60, 100
1, 9377, Note_off_c, 0, 60, 100
1, 9377, Note_on_c, 0, 61, 100
1, 9394, Note_off_c, 0, 61, 100
1, 9394, Note_on_c, 0, 63, 100
1, 9411, Note_off_c, 0, 63, 100
1, 9411, Note_on_c, 0, 65, 100
1, 9428, Note_off_c, 0, 65, 100
1, 9428, Note_on_c, 0, 67, 100
1, 9445, Note_off_c, 0, 67, 100
1, 9445, Note_on_c, 0, 68, 100
1, 9462, Note_off_c, 0, 68, 100
1, 9462, Note_on_c, 0, 71, 100
1, 9479, Note_off_c, 0, 71, 100
1, 9479, Note_on_c, 0, 72, 100
1, 9496, Note_off_c, 0, 72, 100
1, 9496, Note_on_c, 0, 73, 100
1, 9513, Note_off_c, 0, 73, 100
1, 9513, Note_on_c, 0, 75, 100
1, 9530, Note_off_c, 0, 75, 100
1, 9530, Note_on_c, 0, 74, 100
1, 10012, Note_off_c, 0, 74, 100
1, 10012, Note_on_c, 0, 77, 100
1, 10044, Note_off_c, 0, 77, 100
1, 10044, Note_on_c, 0, 80, 100
1, 10076, Note_off_c, 0, 80, 100
1, 10076, Note_on_c, 0, 78, 100
1, 10108, Note_off_c, 0, 78, 100
1, 10108, Note_on_c, 0, 80, 100
1, 10380, Note_off_c, 0, 80, 100
1, 10380, Note_on_c, 0, 75, 100
1, 10428, Note_off_c, 0, 75, 100
1, 10428, Note_on_c, 0, 77, 100
1, 10572, Note_off_c, 0, 77, 100
1, 10572, Note_on_c, 0, 73, 100
1, 10620, Note_off_c, 0, 73, 100
1, 10620, Note_on_c, 0, 70, 100
1, 10668, Note_off_c, 0, 70, 100
1, 10668, Note_on_c, 0, 73, 100
1, 10716, Note_off_c, 0, 73, 100
1, 10716, Note_on_c, 0, 73, 100
1, 10812, Note_off_c, 0, 73, 100
1, 10812, Note_on_c, 0, 71, 100
1, 10844, Note_off_c, 0, 71, 100
1, 10844, Note_on_c, 0, 66, 100
1, 10876, Note_off_c, 0, 66, 100
1, 10876, Note_on_c, 0, 65, 100
1, 10908, Note_off_c, 0, 65, 100
1, 10908, Note_on_c, 0, 63, 100
1, 10946, Note_off_c, 0, 63, 100
1, 10946, Note_on_c, 0, 72, 100
1, 10984, Note_off_c, 0, 72, 100
1, 10984, Note_on_c, 0, 68, 100
1, 11022, Note_off_c, 0, 68, 100
1, 11022, Note_on_c, 0, 71, 100
1, 11146, Note_off_c, 0, 71, 100
1, 11146, Note_on_c, 0, 69, 100
1, 11194, Note_off_c, 0, 69, 100
1, 11194, Note_on_c, 0, 66, 100
1, 11242, Note_off_c, 0, 66, 100
1, 11242, Note_on_c, 0, 69, 100
1, 11290, Note_off_c, 0, 69, 100
1, 11290, Note_on_c, 0, 66, 100
1, 11307, Note_off_c, 0, 66, 100
1, 11307, Note_on_c, 0, 69, 100
1, 11324, Note_off_c, 0, 69, 100
1, 11324, Note_on_c, 0, 66, 100
1, 11341, Note_off_c, 0, 66, 100
1, 11341, Note_on_c, 0, 63, 100
1, 11358, Note_off_c, 0, 63, 100
1, 11358, Note_on_c, 0, 59, 100
1, 11392, Note_off_c, 0, 59, 100
1, 11392, Note_on_c, 0, 66, 100
1, 11409, Note_off_c, 0, 66, 100
1, 11409, Note_on_c, 0, 68, 100
1, 11426, Note_off_c, 0, 68, 100
1, 11426, Note_on_c, 0, 66, 100
1, 11443, Note_off_c, 0, 66, 100
1, 11443, Note_on_c, 0, 62, 100
1, 11460, Note_off_c, 0, 62, 100
1, 11460, Note_on_c, 0, 59, 100
1, 11477, Note_off_c, 0, 59, 100
1, 11477, Note_on_c, 0, 63, 100
1, 11504, Note_off_c, 0, 63, 100
1, 11504, Note_on_c, 0, 70, 100
1, 11531, Note_off_c, 0, 70, 100
1, 11531, Note_on_c, 0, 68, 100
1, 11558, Note_off_c, 0, 68, 100
1, 11558, Note_on_c, 0, 65, 100
1, 11585, Note_off_c, 0, 65, 100
1, 11585, Note_on_c, 0, 60, 100
1, 11639, Note_off_c, 0, 60, 100
1, 11639, Note_on_c, 0, 63, 100
1, 11698, Note_off_c, 0, 63, 100
1, 11698, Note_on_c, 0, 60, 100
1, 11730, Note_off_c, 0, 60, 100
1, 11730, Note_on_c, 0, 58, 100
1, 11762, Note_off_c, 0, 58, 100
1, 11762, Note_on_c, 0, 51, 100
1, 11794, Note_off_c, 0, 51, 100
1, 11794, Note_on_c, 0, 48, 100
1, 11826, Note_off_c, 0, 48, 100
1, 11826, Note_on_c, 0, 46, 100
1, 11858, Note_off_c, 0, 46, 100
1, 11858, Note_on_c, 0, 51, 100
1, 11906, Note_off_c, 0, 51, 100
1, 11906, Note_on_c, 0, 53, 100
1, 12002, Note_off_c, 0, 53, 100
1, 12146, Note_on_c, 0, 47, 100
1, 12178, Note_off_c, 0, 47, 100
1, 12178, Note_on_c, 0, 48, 100
1, 12210, Note_off_c, 0, 48, 100
1, 12210, Note_on_c, 0, 51, 100
1, 12242, Note_off_c, 0, 51, 100
1, 12242, Note_on_c, 0, 48, 100
1, 12259, Note_off_c, 0, 48, 100
1, 12259, Note_on_c, 0, 47, 100
1, 12276, Note_off_c, 0, 47, 100
1, 12276, Note_on_c, 0, 46, 100
1, 12293, Note_off_c, 0, 46, 100
1, 12293, Note_on_c, 0, 45, 100
1, 12327, Note_off_c, 0, 45, 100
1, 12327, Note_on_c, 0, 47, 100
1, 12344, Note_off_c, 0, 47, 100
1, 12344, Note_on_c, 0, 48, 100
1, 12361, Note_off_c, 0, 48, 100
1, 12361, Note_on_c, 0, 51, 100
1, 12378, Note_off_c, 0, 51, 100
1, 12378, Note_on_c, 0, 53, 100
1, 12412, Note_off_c, 0, 53, 100
1, 12412, Note_on_c, 0, 50, 100
1, 12429, Note_off_c, 0, 50, 100
1, 12429, Note_on_c, 0, 51, 100
1, 12461, Note_off_c, 0, 51, 100
1, 12461, Note_on_c, 0, 53, 100
1, 12477, Note_off_c, 0, 53, 100
1, 12477, Note_on_c, 0, 54, 100
1, 12493, Note_off_c, 0, 54, 100
1, 12493, Note_on_c, 0, 55, 100
1, 12509, Note_off_c, 0, 55, 100
1, 12509, Note_on_c, 0, 56, 100
1, 12525, Note_off_c, 0, 56, 100
1, 12525, Note_on_c, 0, 58, 100
1, 12557, Note_off_c, 0, 58, 100
1, 12557, Note_on_c, 0, 55, 100
1, 12573, Note_off_c, 0, 55, 100
1, 12573, Note_on_c, 0, 56, 100
1, 12605, Note_off_c, 0, 56, 100
1, 12605, Note_on_c, 0, 58, 100
1, 12645, Note_off_c, 0, 58, 100
1, 12645, Note_on_c, 0, 60, 100
1, 12669, Note_off_c, 0, 60, 100
1, 12669, Note_on_c, 0, 61, 100
1, 12693, Note_off_c, 0, 61, 100
1, 12693, Note_on_c, 0, 63, 100
1, 12717, Note_off_c, 0, 63, 100
1, 12717, Note_on_c, 0, 64, 100
1, 12741, Note_off_c, 0, 64, 100
1, 12741, Note_on_c, 0, 66, 100
1, 12765, Note_off_c, 0, 66, 100
1, 12765, Note_on_c, 0, 68, 100
1, 12789, Note_off_c, 0, 68, 100
1, 12789, Note_on_c, 0, 70, 100
1, 12813, Note_off_c, 0, 70, 100
1, 12813, Note_on_c, 0, 71, 100
1, 12837, Note_off_c, 0, 71, 100
1, 12837, Note_on_c, 0, 73, 100
1, 12861, Note_off_c, 0, 73, 100
1, 12861, Note_on_c, 0, 71, 100
1, 12933, Note_off_c, 0, 71, 100
1, 12933, Note_on_c, 0, 71, 100
1, 12957, Note_off_c, 0, 71, 100
1, 12957, Note_on_c, 0, 69, 100
1, 12981, Note_off_c, 0, 69, 100
1, 12981, Note_on_c, 0, 66, 100
1, 13005, Note_off_c, 0, 66, 100
1, 13005, Note_on_c, 0, 64, 100
1, 13149, Note_off_c, 0, 64, 100
1, 13149, Note_on_c, 0, 44, 100
1, 13173, Note_off_c, 0, 44, 100
1, 13173, Note_on_c, 0, 45, 100
1, 13197, Note_off_c, 0, 45, 100
1, 13197, Note_on_c, 0, 57, 100
1, 13245, Note_off_c, 0, 57, 100
1, 13245, Note_on_c, 0, 59, 100
1, 13293, Note_off_c, 0, 59, 100
1, 13293, Note_on_c, 0, 51, 100
1, 13389, Note_off_c, 0, 51, 100
1, 13389, Note_on_c, 0, 52, 100
1, 13453, Note_off_c, 0, 52, 100
1, 13453, Note_on_c, 0, 56, 100
1, 13517, Note_off_c, 0, 56, 100
1, 13517, Note_on_c, 0, 59, 100
1, 13581, Note_off_c, 0, 59, 100
1, 13581, Note_on_c, 0, 63, 100
1, 13629, Note_off_c, 0, 63, 100
1, 13629, Note_on_c, 0, 64, 100
1, 13677, Note_off_c, 0, 64, 100
1, 13677, Note_on_c, 0, 61, 100
1, 13725, Note_off_c, 0, 61, 100
1, 13725, Note_on_c, 0, 66, 100
1, 13773, Note_off_c, 0, 66, 100
1, 13773, Note_on_c, 0, 68, 100
1, 13821, Note_off_c, 0, 68, 100
1, 13821, Note_on_c, 0, 68, 100
1, 14013, Note_off_c, 0, 68, 100
1, 14013, Note_on_c, 0, 66, 100
1, 14061, Note_off_c, 0, 66, 100
1, 14061, Note_on_c, 0, 64, 100
1, 14109, Note_off_c, 0, 64, 100
1, 14109, Note_on_c, 0, 63, 100
1, 14301, Note_off_c, 0, 63, 100
1, 14301, Note_on_c, 0, 61, 100
1, 14349, Note_off_c, 0, 61, 100
1, 14349, Note_on_c, 0, 63, 100
1, 14397, Note_off_c, 0, 63, 100
1, 14397, Note_on_c, 0, 64, 100
1, 14445, Note_off_c, 0, 64, 100
1, 14445, Note_on_c, 0, 63, 100
1, 14493, Note_off_c, 0, 63, 100
1, 14493, Note_on_c, 0, 64, 100
1, 14628, Note_off_c, 0, 64, 100
1, 14628, Note_on_c, 0, 62, 100
1, 14645, Note_off_c, 0, 62, 100
1, 14645, Note_on_c, 0, 64, 100
1, 14662, Note_off_c, 0, 64, 100
1, 14662, Note_on_c, 0, 61, 100
1, 14679, Note_off_c, 0, 61, 100
1, 14679, Note_on_c, 0, 56, 100
1, 14713, Note_off_c, 0, 56, 100
1, 14713, Note_on_c, 0, 52, 100
1, 14730, Note_off_c, 0, 52, 100
1, 14730, Note_on_c, 0, 54, 100
1, 14874, Note_off_c, 0, 54, 100
1, 14874, Note_on_c, 0, 69, 100
1, 14922, Note_off_c, 0, 69, 100
1, 14922, Note_on_c, 0, 71, 100
1, 14954, Note_off_c, 0, 71, 100
1, 14954, Note_on_c, 0, 67, 100
1, 14986, Note_off_c, 0, 67, 100
1, 14986, Note_on_c, 0, 66, 100
1, 15018, Note_off_c, 0, 66, 100
1, 15018, Note_on_c, 0, 64, 100
1, 15050, Note_off_c, 0, 64, 100
1, 15050, Note_on_c, 0, 62, 100
1, 15082, Note_off_c, 0, 62, 100
1, 15082, Note_on_c, 0, 61, 100
1, 15133, Note_off_c, 0, 61, 100
1, 15133, Note_on_c, 0, 59, 100
1, 15152, Note_off_c, 0, 59, 100
1, 15152, Note_on_c, 0, 55, 100
1, 15171, Note_off_c, 0, 55, 100
1, 15171, Note_on_c, 0, 59, 100
1, 15190, Note_off_c, 0, 59, 100
1, 15190, Note_on_c, 0, 55, 100
1, 15209, Note_off_c, 0, 55, 100
1, 15209, Note_on_c, 0, 54, 100
1, 15247, Note_off_c, 0, 54, 100
1, 15247, Note_on_c, 0, 52, 100
1, 15285, Note_off_c, 0, 52, 100
1, 15285, Note_on_c, 0, 51, 100
1, 15336, Note_off_c, 0, 51, 100
1, 15336, Note_on_c, 0, 47, 100
1, 15368, Note_off_c, 0, 47, 100
1, 15368, Note_on_c, 0, 50, 100
1, 15400, Note_off_c, 0, 50, 100
1, 15400, Note_on_c, 0, 52, 100
1, 15464, Note_off_c, 0, 52, 100
1, 15464, Note_on_c, 0, 54, 100
1, 15496, Note_off_c, 0, 54, 100
1, 15496, Note_on_c, 0, 56, 100
1, 15544, Note_off_c, 0, 56, 100
1, 15544, Note_on_c, 0, 57, 100
1, 15592, Note_off_c, 0, 57, 100
1, 15592, Note_on_c, 0, 59, 100
1, 15640, Note_off_c, 0, 59, 100
1, 15640, Note_on_c, 0, 64, 100
1, 15688, Note_off_c, 0, 64, 100
1, 15688, Note_on_c, 0, 61, 100
1, 15752, Note_off_c, 0, 61, 100
1, 15752, Note_on_c, 0, 62, 100
1, 15816, Note_off_c, 0, 62, 100
1, 15816, Note_on_c, 0, 64, 100
1, 15880, Note_off_c, 0, 64, 100
1, 15880, Note_on_c, 0, 66, 100
1, 15918, Note_off_c, 0, 66, 100
1, 15918, Note_on_c, 0, 69, 100
1, 15956, Note_off_c, 0, 69, 100
1, 15956, Note_on_c, 0, 73, 100
1, 15994, Note_off_c, 0, 73, 100
1, 15994, Note_on_c, 0, 71, 100
1, 16032, Note_off_c, 0, 71, 100
1, 16032, Note_on_c, 0, 73, 100
1, 16152, Note_off_c, 0, 73, 100
1, 16152, Note_on_c, 0, 73, 100
1, 16179, Note_off_c, 0, 73, 100
1, 16179, Note_on_c, 0, 71, 100
1, 16206, Note_off_c, 0, 71, 100
1, 16206, Note_on_c, 0, 69, 100
1, 16233, Note_off_c, 0, 69, 100
1, 16233, Note_on_c, 0, 68, 100
1, 16260, Note_off_c, 0, 68, 100
1, 16260, Note_on_c, 0, 66, 100
1, 16308, Note_off_c, 0, 66, 100
1, 16308, Note_on_c, 0, 64, 100
1, 16356, Note_off_c, 0, 64, 100
1, 16356, Note_on_c, 0, 62, 100
1, 16404, Note_off_c, 0, 62, 100
1, 16404, Note_on_c, 0, 61, 100
1, 16500, Note_off_c, 0, 61, 100
1, 16500, Note_on_c, 0, 74, 100
1, 16524, Note_off_c, 0, 74, 100
1, 16524, Note_on_c, 0, 71, 100
1, 16548, Note_off_c, 0, 71, 100
1, 16548, Note_on_c, 0, 67, 100
1, 16572, Note_off_c, 0, 67, 100
1, 16572, Note_on_c, 0, 64, 100
1, 16596, Note_off_c, 0, 64, 100
1, 16596, Note_on_c, 0, 59, 100
1, 16644, Note_off_c, 0, 59, 100
1, 16644, Note_on_c, 0, 57, 100
1, 16692, Note_off_c, 0, 57, 100
1, 16692, Note_on_c, 0, 59, 100
1, 16788, Note_off_c, 0, 59, 100
1, 16788, Note_on_c, 0, 56, 100
1, 16836, Note_off_c, 0, 56, 100
1, 16836, Note_on_c, 0, 55, 100
1, 16868, Note_off_c, 0, 55, 100
1, 16868, Note_on_c, 0, 54, 100
1, 16900, Note_off_c, 0, 54, 100
1, 16900, Note_on_c, 0, 55, 100
1, 16932, Note_off_c, 0, 55, 100
1, 16932, Note_on_c, 0, 57, 100
1, 16964, Note_off_c, 0, 57, 100
1, 16964, Note_on_c, 0, 54, 100
1, 16996, Note_off_c, 0, 54, 100
1, 16996, Note_on_c, 0, 55, 100
1, 17028, Note_off_c, 0, 55, 100
1, 17028, Note_on_c, 0, 50, 100
1, 17220, Note_off_c, 0, 50, 100
1, 17220, Note_on_c, 0, 41, 100
1, 17252, Note_off_c, 0, 41, 100
1, 17252, Note_on_c, 0, 45, 100
1, 17284, Note_off_c, 0, 45, 100
1, 17284, Note_on_c, 0, 49, 100
1, 17316, Note_off_c, 0, 49, 100
1, 17316, Note_on_c, 0, 48, 100
1, 17348, Note_off_c, 0, 48, 100
1, 17348, Note_on_c, 0, 50, 100
1, 17380, Note_off_c, 0, 50, 100
1, 17380, Note_on_c, 0, 54, 100
1, 17439, Note_off_c, 0, 54, 100
1, 17439, Note_on_c, 0, 59, 100
1, 17466, Note_off_c, 0, 59, 100
1, 17466, Note_on_c, 0, 58, 100
1, 17493, Note_off_c, 0, 58, 100
1, 17493, Note_on_c, 0, 56, 100
1, 17520, Note_off_c, 0, 56, 100
1, 17520, Note_on_c, 0, 62, 100
1, 17547, Note_off_c, 0, 62, 100
1, 17547, Note_on_c, 0, 60, 100
1, 17574, Note_off_c, 0, 60, 100
1, 17574, Note_on_c, 0, 58, 100
1, 17601, Note_off_c, 0, 58, 100
1, 17601, Note_on_c, 0, 67, 100
1, 17620, Note_off_c, 0, 67, 100
1, 17620, Note_on_c, 0, 66, 100
1, 17639, Note_off_c, 0, 66, 100
1, 17639, Note_on_c, 0, 65, 100
1, 17658, Note_off_c, 0, 65, 100
1, 17658, Note_on_c, 0, 64, 100
1, 17696, Note_off_c, 0, 64, 100
1, 17696, Note_on_c, 0, 71, 100
1, 17715, Note_off_c, 0, 71, 100
1, 17715, Note_on_c, 0, 74, 100
1, 17734, Note_off_c, 0, 74, 100
1, 17734, Note_on_c, 0, 71, 100
1, 17753, Note_off_c, 0, 71, 100
1, 17753, Note_on_c, 0, 70, 100
1, 17772, Note_off_c, 0, 70, 100
1, 17772, Note_on_c, 0, 69, 100
1, 17791, Note_off_c, 0, 69, 100
1, 17791, Note_on_c, 0, 68, 100
1, 17815, Note_off_c, 0, 68, 100
1, 17815, Note_on_c, 0, 67, 100
1, 17839, Note_off_c, 0, 67, 100
1, 17839, Note_on_c, 0, 66, 100
1, 17887, Note_off_c, 0, 66, 100
1, 17887, Note_on_c, 0, 65, 100
1, 17911, Note_off_c, 0, 65, 100
1, 17911, Note_on_c, 0, 64, 100
1, 17959, Note_off_c, 0, 64, 100
1, 17959, Note_on_c, 0, 63, 100
1, 17983, Note_off_c, 0, 63, 100
1, 17983, Note_on_c, 0, 74, 100
1, 18015, Note_off_c, 0, 74, 100
1, 18015, Note_on_c, 0, 70, 100
1, 18047, Note_off_c, 0, 70, 100
1, 18047, Note_on_c, 0, 67, 100
1, 18079, Note_off_c, 0, 67, 100
1, 18079, Note_on_c, 0, 66, 100
1, 18111, Note_off_c, 0, 66, 100
1, 18111, Note_on_c, 0, 65, 100
1, 18143, Note_off_c, 0, 65, 100
1, 18143, Note_on_c, 0, 63, 100
1, 18175, Note_off_c, 0, 63, 100
1, 18175, Note_on_c, 0, 62, 100
1, 18290, Note_off_c, 0, 62, 100
1, 18290, Note_on_c, 0, 74, 100
1, 18328, Note_off_c, 0, 74, 100
1, 18328, Note_on_c, 0, 77, 100
1, 18366, Note_off_c, 0, 77, 100
1, 18366, Note_on_c, 0, 75, 100
1, 18390, Note_off_c, 0, 75, 100
1, 18390, Note_on_c, 0, 76, 100
1, 18414, Note_off_c, 0, 76, 100
1, 18414, Note_on_c, 0, 75, 100
1, 18462, Note_off_c, 0, 75, 100
1, 18462, Note_on_c, 0, 77, 100
1, 18486, Note_off_c, 0, 77, 100
1, 18486, Note_on_c, 0, 80, 100
1, 18558, Note_off_c, 0, 80, 100
1, 18558, Note_on_c, 0, 69, 100
1, 18610, Note_off_c, 0, 69, 100
1, 18610, Note_on_c, 0, 75, 100
1, 18662, Note_off_c, 0, 75, 100
1, 18662, Note_on_c, 0, 76, 100
1, 18679, Note_off_c, 0, 76, 100
1, 18679, Note_on_c, 0, 71, 100
1, 18696, Note_off_c, 0, 71, 100
1, 18696, Note_on_c, 0, 68, 100
1, 18713, Note_off_c, 0, 68, 100
1, 18713, Note_on_c, 0, 62, 100
1, 18730, Note_off_c, 0, 62, 100
1, 18730, Note_on_c, 0, 60, 100
1, 18747, Note_off_c, 0, 60, 100
1, 18747, Note_on_c, 0, 72, 100
1, 18759, Note_off_c, 0, 72, 100
1, 18759, Note_on_c, 0, 73, 100
1, 18797, Note_off_c, 0, 73, 100
1, 18797, Note_on_c, 0, 71, 100
1, 18809, Note_off_c, 0, 71, 100
1, 18809, Note_on_c, 0, 70, 100
1, 18821, Note_off_c, 0, 70, 100
1, 18821, Note_on_c, 0, 69, 100
1, 18833, Note_off_c, 0, 69, 100
1, 18833, Note_on_c, 0, 60, 100
1, 18871, Note_off_c, 0, 60, 100
1, 18871, Note_on_c, 0, 61, 100
1, 18896, Note_off_c, 0, 61, 100
1, 18896, Note_on_c, 0, 71, 100
1, 18908, Note_off_c, 0, 71, 100
1, 18908, Note_on_c, 0, 72, 100
1, 18976, Note_off_c, 0, 72, 100
1, 18976, Note_on_c, 0, 70, 100
1, 18997, Note_off_c, 0, 70, 100
1, 18997, Note_on_c, 0, 70, 100
1, 19025, Note_off_c, 0, 70, 100
1, 19025, Note_on_c, 0, 69, 100
1, 19046, Note_off_c, 0, 69, 100
1, 19046, Note_on_c, 0, 62, 100
1, 19053, Note_off_c, 0, 62, 100
1, 19053, Note_on_c, 0, 60, 100
1, 19060, Note_off_c, 0, 60, 100
1, 19060, Note_on_c, 0, 58, 100
1, 19095, Note_off_c, 0, 58, 100
1, 19095, Note_on_c, 0, 66, 100
1, 19116, Note_off_c, 0, 66, 100
1, 19116, Note_on_c, 0, 68, 100
1, 19123, Note_off_c, 0, 68, 100
1, 19123, Note_on_c, 0, 69, 100
1, 19180, Note_off_c, 0, 69, 100
1, 19180, Note_on_c, 0, 67, 100
1, 19199, Note_off_c, 0, 67, 100
1, 19199, Note_on_c, 0, 65, 100
1, 19218, Note_off_c, 0, 65, 100
1, 19218, Note_on_c, 0, 60, 100
1, 19237, Note_off_c, 0, 60, 100
1, 19237, Note_on_c, 0, 58, 100
1, 19256, Note_off_c, 0, 58, 100
1, 19256, Note_on_c, 0, 52, 100
1, 19275, Note_off_c, 0, 52, 100
1, 19275, Note_on_c, 0, 49, 100
1, 19294, Note_off_c, 0, 49, 100
1, 19294, Note_on_c, 0, 46, 100
1, 19313, Note_off_c, 0, 46, 100
1, 19313, Note_on_c, 0, 44, 100
1, 19409, Note_off_c, 0, 44, 100
1, 19766, Note_on_c, 0, 68, 100
1, 19783, Note_off_c, 0, 68, 100
1, 19783, Note_on_c, 0, 70, 100
1, 19800, Note_off_c, 0, 70, 100
1, 19800, Note_on_c, 0, 71, 100
1, 19817, Note_off_c, 0, 71, 100
1, 19817, Note_on_c, 0, 81, 100
1, 19834, Note_off_c, 0, 81, 100
1, 19834, Note_on_c, 0, 80, 100
1, 19851, Note_off_c, 0, 80, 100
1, 19851, Note_on_c, 0, 79, 100
1, 19868, Note_off_c, 0, 79, 100
1, 19868, Note_on_c, 0, 74, 100
1, 19885, Note_off_c, 0, 74, 100
1, 19885, Note_on_c, 0, 70, 100
1, 19899, Note_off_c, 0, 70, 100
1, 19899, Note_on_c, 0, 71, 100
1, 19913, Note_off_c, 0, 71, 100
1, 19913, Note_on_c, 0, 70, 100
1, 19927, Note_off_c, 0, 70, 100
1, 19927, Note_on_c, 0, 68, 100
1, 19956, Note_off_c, 0, 68, 100
1, 19956, Note_on_c, 0, 65, 100
1, 19985, Note_off_c, 0, 65, 100
1, 19985, Note_on_c, 0, 59, 100
1, 19999, Note_off_c, 0, 59, 100
1, 19999, Note_on_c, 0, 56, 100
1, 20013, Note_off_c, 0, 56, 100
1, 20013, Note_on_c, 0, 53, 100
1, 20027, Note_off_c, 0, 53, 100
1, 20027, Note_on_c, 0, 51, 100
1, 20056, Note_off_c, 0, 51, 100
1, 20056, Note_on_c, 0, 58, 100
1, 20070, Note_off_c, 0, 58, 100
1, 20070, Note_on_c, 0, 59, 100
1, 20082, Note_off_c, 0, 59, 100
1, 20082, Note_on_c, 0, 74, 100
1, 20094, Note_off_c, 0, 74, 100
1, 20094, Note_on_c, 0, 75, 100
1, 20106, Note_off_c, 0, 75, 100
1, 20106, Note_on_c, 0, 74, 100
1, 20130, Note_off_c, 0, 74, 100
1, 20130, Note_on_c, 0, 72, 100
1, 20142, Note_off_c, 0, 72, 100
1, 20142, Note_on_c, 0, 71, 100
1, 20154, Note_off_c, 0, 71, 100
1, 20154, Note_on_c, 0, 70, 100
1, 20166, Note_off_c, 0, 70, 100
1, 20166, Note_on_c, 0, 69, 100
1, 20178, Note_off_c, 0, 69, 100
1, 20178, Note_on_c, 0, 67, 100
1, 20190, Note_off_c, 0, 67, 100
1, 20190, Note_on_c, 0, 66, 100
1, 20202, Note_off_c, 0, 66, 100
1, 20202, Note_on_c, 0, 64, 100
1, 20214, Note_off_c, 0, 64, 100
1, 20214, Note_on_c, 0, 63, 100
1, 20226, Note_off_c, 0, 63, 100
1, 20226, Note_on_c, 0, 62, 100
1, 20238, Note_off_c, 0, 62, 100
1, 20238, Note_on_c, 0, 61, 100
1, 20250, Note_off_c, 0, 61, 100
1, 20250, Note_on_c, 0, 59, 100
1, 20262, Note_off_c, 0, 59, 100
1, 20262, Note_on_c, 0, 58, 100
1, 20279, Note_off_c, 0, 58, 100
1, 20279, Note_on_c, 0, 55, 100
1, 20296, Note_off_c, 0, 55, 100
1, 20296, Note_on_c, 0, 53, 100
1, 20313, Note_off_c, 0, 53, 100
1, 20313, Note_on_c, 0, 54, 100
1, 20330, Note_off_c, 0, 54, 100
1, 20330, Note_on_c, 0, 58, 100
1, 20347, Note_off_c, 0, 58, 100
1, 20347, Note_on_c, 0, 74, 100
1, 20364, Note_off_c, 0, 74, 100
1, 20364, Note_on_c, 0, 75, 100
1, 20381, Note_off_c, 0, 75, 100
1, 20381, Note_on_c, 0, 52, 100
1, 20514, Note_off_c, 0, 52, 100
1, 20514, Note_on_c, 0, 51, 100
1, 20546, Note_off_c, 0, 51, 100
1, 20546, Note_on_c, 0, 53, 100
1, 20578, Note_off_c, 0, 53, 100
1, 20578, Note_on_c, 0, 49, 100
1, 20610, Note_off_c, 0, 49, 100
1, 20610, Note_on_c, 0, 51, 100
1, 20642, Note_off_c, 0, 51, 100
1, 20642, Note_on_c, 0, 53, 100
1, 20690, Note_off_c, 0, 53, 100
1, 20690, Note_on_c, 0, 54, 100
1, 20738, Note_off_c, 0, 54, 100
1, 20738, Note_on_c, 0, 52, 100
1, 20786, Note_off_c, 0, 52, 100
1, 20786, Note_on_c, 0, 48, 100
1, 20872, Note_off_c, 0, 48, 100
1, 20872, Note_on_c, 0, 60, 100
1, 20910, Note_off_c, 0, 60, 100
1, 20910, Note_on_c, 0, 56, 100
1, 20948, Note_off_c, 0, 56, 100
1, 20948, Note_on_c, 0, 58, 100
1, 20986, Note_off_c, 0, 58, 100
1, 20986, Note_on_c, 0, 59, 100
1, 21024, Note_off_c, 0, 59, 100
1, 21024, Note_on_c, 0, 64, 100
1, 21062, Note_off_c, 0, 64, 100
1, 21062, Note_on_c, 0, 68, 100
1, 21100, Note_off_c, 0, 68, 100
1, 21100, Note_on_c, 0, 70, 100
1, 21138, Note_off_c, 0, 70, 100
1, 21138, Note_on_c, 0, 72, 100
1, 21176, Note_off_c, 0, 72, 100
1, 21176, Note_on_c, 0, 60, 100
1, 21214, Note_off_c, 0, 60, 100
1, 21214, Note_on_c, 0, 70, 100
1, 21310, Note_off_c, 0, 70, 100
1, 21310, Note_on_c, 0, 60, 100
1, 21358, Note_off_c, 0, 60, 100
1, 21358, Note_on_c, 0, 67, 100
1, 21406, Note_off_c, 0, 67, 100
1, 21406, Note_on_c, 0, 68, 100
1, 21425, Note_off_c, 0, 68, 100
1, 21425, Note_on_c, 0, 70, 100
1, 21444, Note_off_c, 0, 70, 100
1, 21444, Note_on_c, 0, 71, 100
1, 21463, Note_off_c, 0, 71, 100
1, 21463, Note_on_c, 0, 74, 100
1, 21482, Note_off_c, 0, 74, 100
1, 21482, Note_on_c, 0, 71, 100
1, 21501, Note_off_c, 0, 71, 100
1, 21501, Note_on_c, 0, 70, 100
1, 21520, Note_off_c, 0, 70, 100
1, 21520, Note_on_c, 0, 68, 100
1, 21539, Note_off_c, 0, 68, 100
1, 21539, Note_on_c, 0, 67, 100
1, 21577, Note_off_c, 0, 67, 100
1, 21577, Note_on_c, 0, 68, 100
1, 21596, Note_off_c, 0, 68, 100
1, 21596, Note_on_c, 0, 70, 100
1, 21610, Note_off_c, 0, 70, 100
1, 21610, Note_on_c, 0, 71, 100
1, 21624, Note_off_c, 0, 71, 100
1, 21624, Note_on_c, 0, 70, 100
1, 21638, Note_off_c, 0, 70, 100
1, 21638, Note_on_c, 0, 68, 100
1, 21652, Note_off_c, 0, 68, 100
1, 21652, Note_on_c, 0, 67, 100
1, 21666, Note_off_c, 0, 67, 100
1, 21666, Note_on_c, 0, 63, 100
1, 21695, Note_off_c, 0, 63, 100
1, 21695, Note_on_c, 0, 62, 100
1, 21709, Note_off_c, 0, 62, 100
1, 21709, Note_on_c, 0, 63, 100
1, 21738, Note_off_c, 0, 63, 100
1, 21738, Note_on_c, 0, 67, 100
1, 21752, Note_off_c, 0, 67, 100
1, 21752, Note_on_c, 0, 68, 100
1, 21766, Note_off_c, 0, 68, 100
1, 21766, Note_on_c, 0, 67, 100
1, 21780, Note_off_c, 0, 67, 100
1, 21780, Note_on_c, 0, 62, 100
1, 21822, Note_off_c, 0, 62, 100
1, 21822, Note_on_c, 0, 59, 100
1, 21843, Note_off_c, 0, 59, 100
1, 21843, Note_on_c, 0, 58, 100
1, 21885, Note_off_c, 0, 58, 100
1, 21885, Note_on_c, 0, 50, 100
1, 21906, Note_off_c, 0, 50, 100
1, 21906, Note_on_c, 0, 55, 100
1, 21927, Note_off_c, 0, 55, 100
1, 21927, Note_on_c, 0, 56, 100
1, 21948, Note_off_c, 0, 56, 100
1, 21948, Note_on_c, 0, 58, 100
1, 21969, Note_off_c, 0, 58, 100
1, 21969, Note_on_c, 0, 59, 100
1, 21990, Note_off_c, 0, 59, 100
1, 21990, Note_on_c, 0, 63, 100
1, 22011, Note_off_c, 0, 63, 100
1, 22011, Note_on_c, 0, 65, 100
1, 22032, Note_off_c, 0, 65, 100
1, 22032, Note_on_c, 0, 63, 100
1, 22053, Note_off_c, 0, 63, 100
1, 22053, Note_on_c, 0, 61, 100
1, 22074, Note_off_c, 0, 61, 100
1, 22074, Note_on_c, 0, 60, 100
1, 22095, Note_off_c, 0, 60, 100
1, 22095, Note_on_c, 0, 58, 100
1, 22116, Note_off_c, 0, 58, 100
1, 22116, Note_on_c, 0, 63, 100
1, 22137, Note_off_c, 0, 63, 100
1, 22137, Note_on_c, 0, 61, 100
1, 22158, Note_off_c, 0, 61, 100
1, 22158, Note_on_c, 0, 60, 100
1, 22206, Note_off_c, 0, 60, 100
1, 22206, Note_on_c, 0, 58, 100
1, 22230, Note_off_c, 0, 58, 100
1, 22230, Note_on_c, 0, 53, 100
1, 22278, Note_off_c, 0, 53, 100
1, 22278, Note_on_c, 0, 51, 100
1, 22302, Note_off_c, 0, 51, 100
1, 22302, Note_on_c, 0, 55, 100
1, 22326, Note_off_c, 0, 55, 100
1, 22326, Note_on_c, 0, 56, 100
1, 22350, Note_off_c, 0, 56, 100
1, 22350, Note_on_c, 0, 51, 100
1, 22398, Note_off_c, 0, 51, 100
1, 22398, Note_on_c, 0, 48, 100
1, 22446, Note_off_c, 0, 48, 100
1, 22446, Note_on_c, 0, 46, 100
1, 22494, Note_off_c, 0, 46, 100
1, 22494, Note_on_c, 0, 58, 100
1, 22686, Note_off_c, 0, 58, 100
1, 22686, Note_on_c, 0, 44, 100
1, 22734, Note_off_c, 0, 44, 100
1, 22734, Note_on_c, 0, 58, 100
1, 22782, Note_off_c, 0, 58, 100
1, 22782, Note_on_c, 0, 58, 100
1, 22830, Note_off_c, 0, 58, 100
1, 22830, Note_on_c, 0, 58, 100
1, 22926, Note_off_c, 0, 58, 100
1, 22926, Note_on_c, 0, 56, 100
1, 22974, Note_off_c, 0, 56, 100
1, 22974, Note_on_c, 0, 58, 100
1, 23022, Note_off_c, 0, 58, 100
1, 23022, Note_on_c, 0, 56, 100
1, 23310, Note_off_c, 0, 56, 100
1, 23598, Note_on_c, 0, 56, 100
1, 23630, Note_off_c, 0, 56, 100
1, 23630, Note_on_c, 0, 58, 100
1, 23662, Note_off_c, 0, 58, 100
1, 23662, Note_on_c, 0, 60, 100
1, 23718, Note_off_c, 0, 60, 100
1, 23718, Note_on_c, 0, 63, 100
1, 23766, Note_off_c, 0, 63, 100
1, 23766, Note_on_c, 0, 61, 100
1, 23790, Note_off_c, 0, 61, 100
1, 23790, Note_on_c, 0, 60, 100
1, 23814, Note_off_c, 0, 60, 100
1, 23814, Note_on_c, 0, 58, 100
1, 23838, Note_off_c, 0, 58, 100
1, 23838, Note_on_c, 0, 56, 100
1, 23862, Note_off_c, 0, 56, 100
1, 23862, Note_on_c, 0, 58, 100
1, 23886, Note_off_c, 0, 58, 100
1, 23886, Note_on_c, 0, 60, 100
1, 23950, Note_off_c, 0, 60, 100
1, 23950, Note_on_c, 0, 53, 100
1, 24014, Note_off_c, 0, 53, 100
1, 24014, Note_on_c, 0, 56, 100
1, 24100, Note_off_c, 0, 56, 100
1, 24100, Note_on_c, 0, 48, 100
1, 24133, Note_off_c, 0, 48, 100
1, 24133, Note_on_c, 0, 47, 100
1, 24200, Note_off_c, 0, 47, 100
1, 24200, Note_on_c, 0, 51, 100
1, 24211, Note_off_c, 0, 51, 100
1, 24211, Note_on_c, 0, 52, 100
1, 24222, Note_off_c, 0, 52, 100
1, 24222, Note_on_c, 0, 53, 100
1, 24233, Note_off_c, 0, 53, 100
1, 24233, Note_on_c, 0, 52, 100
1, 24244, Note_off_c, 0, 52, 100
1, 24244, Note_on_c, 0, 49, 100
1, 24255, Note_off_c, 0, 49, 100
1, 24255, Note_on_c, 0, 48, 100
1, 24266, Note_off_c, 0, 48, 100
1, 24266, Note_on_c, 0, 47, 100
1, 24282, Note_off_c, 0, 47, 100
1, 24282, Note_on_c, 0, 46, 100
1, 24298, Note_off_c, 0, 46, 100
1, 24298, Note_on_c, 0, 45, 100
1, 24314, Note_off_c, 0, 45, 100
1, 24314, Note_on_c, 0, 44, 100
1, 24346, Note_off_c, 0, 44, 100
1, 24346, Note_on_c, 0, 48, 100
1, 24378, Note_off_c, 0, 48, 100
1, 24378, Note_on_c, 0, 49, 100
1, 24394, Note_off_c, 0, 49, 100
1, 24394, Note_on_c, 0, 51, 100
1, 24410, Note_off_c, 0, 51, 100
1, 24410, Note_on_c, 0, 53, 100
1, 24442, Note_off_c, 0, 53, 100
1, 24442, Note_on_c, 0, 50, 100
1, 24458, Note_off_c, 0, 50, 100
1, 24458, Note_on_c, 0, 51, 100
1, 24496, Note_off_c, 0, 51, 100
1, 24496, Note_on_c, 0, 53, 100
1, 24534, Note_off_c, 0, 53, 100
1, 24534, Note_on_c, 0, 54, 100
1, 24572, Note_off_c, 0, 54, 100
1, 24572, Note_on_c, 0, 56, 100
1, 24610, Note_off_c, 0, 56, 100
1, 24610, Note_on_c, 0, 58, 100
1, 24648, Note_off_c, 0, 58, 100
1, 24648, Note_on_c, 0, 56, 100
1, 24680, Note_off_c, 0, 56, 100
1, 24680, Note_on_c, 0, 58, 100
1, 24712, Note_off_c, 0, 58, 100
1, 24712, Note_on_c, 0, 59, 100
1, 24776, Note_off_c, 0, 59, 100
1, 24776, Note_on_c, 0, 61, 100
1, 24808, Note_off_c, 0, 61, 100
1, 24808, Note_on_c, 0, 63, 100
1, 24840, Note_off_c, 0, 63, 100
1, 24840, Note_on_c, 0, 64, 100
1, 24888, Note_off_c, 0, 64, 100
1, 24888, Note_on_c, 0, 65, 100
1, 24936, Note_off_c, 0, 65, 100
1, 24936, Note_on_c, 0, 66, 100
1, 24984, Note_off_c, 0, 66, 100
1, 24984, Note_on_c, 0, 68, 100
1, 25032, Note_off_c, 0, 68, 100
1, 25032, Note_on_c, 0, 70, 100
1, 25064, Note_off_c, 0, 70, 100
1, 25064, Note_on_c, 0, 72, 100
1, 25096, Note_off_c, 0, 72, 100
1, 25096, Note_on_c, 0, 73, 100
1, 25128, Note_off_c, 0, 73, 100
1, 25128, Note_on_c, 0, 72, 100
1, 25160, Note_off_c, 0, 72, 100
1, 25160, Note_on_c, 0, 73, 100
1, 25192, Note_off_c, 0, 73, 100
1, 25192, Note_on_c, 0, 72, 100
1, 25251, Note_off_c, 0, 72, 100
1, 25251, Note_on_c, 0, 69, 100
1, 25278, Note_off_c, 0, 69, 100
1, 25278, Note_on_c, 0, 65, 100
1, 25305, Note_off_c, 0, 65, 100
1, 25305, Note_on_c, 0, 61, 100
1, 25332, Note_off_c, 0, 61, 100
1, 25332, Note_on_c, 0, 60, 100
1, 25359, Note_off_c, 0, 60, 100
1, 25359, Note_on_c, 0, 58, 100
1, 25505, Note_off_c, 0, 58, 100
1, 25505, End_track
0, 0, End_of_file
