0, 0, Header, 1, 1, 192
1, 0, Start_track
1, 0, Title_t, "Melody"
1, 0, Tempo, 271493
1, 0, Key_signature, -3, "major"
1, 0, Time_signature, 4, 2, 24, 8
1, 672, Note_on_c, 0, 62, 100
1, 1248, Note_off_c, 0, 62, 100
1, 1440, Note_on_c, 0, 60, 100
1, 1536, Note_off_c, 0, 60, 100
1, 1536, Note_on_c, 0, 62, 100
1, 1824, Note_off_c, 0, 62, 100
1, 1824, Note_on_c, 0, 60, 100
1, 1920, Note_off_c, 0, 60, 100
1, 1920, Note_on_c, 0, 62, 100
1, 2112, Note_off_c, 0, 62, 100
1, 2112, Note_on_c, 0, 60, 100
1, 2256, Note_off_c, 0, 60, 100
1, 2256, Note_on_c, 0, 57, 100
1, 2400, Note_off_c, 0, 57, 100
1, 2400, Note_on_c, 0, 55, 100
1, 2560, Note_off_c, 0, 55, 100
1, 2560, Note_on_c, 0, 55, 100
1, 2688, Note_off_c, 0, 55, 100
1, 2688, Note_on_c, 0, 62, 100
1, 2976, Note_off_c, 0, 62, 100
1, 2976, Note_on_c, 0, 60, 100
1, 3072, Note_off_c, 0, 60, 100
1, 3072, Note_on_c, 0, 57, 100
1, 3168, Note_off_c, 0, 57, 100
1, 3168, Note_on_c, 0, 55, 100
1, 3264, Note_off_c, 0, 55, 100
1, 3264, Note_on_c, 0, 57, 100
1, 3360, Note_off_c, 0, 57, 100
1, 3360, Note_on_c, 0, 62, 100
1, 3552, Note_off_c, 0, 62, 100
1, 4224, Note_on_c, 0, 62, 100
1, 4368, Note_off_c, 0, 62, 100
1, 4368, Note_on_c, 0, 60, 100
1, 4416, Note_off_c, 0, 60, 100
1, 4416, Note_on_c, 0, 62, 100
1, 4512, Note_off_c, 0, 62, 100
1, 4512, Note_on_c, 0, 67, 100
1, 4800, Note_off_c, 0, 67, 100
1, 4800, Note_on_c, 0, 62, 100
1, 4896, Note_off_c, 0, 62, 100
1, 4896, Note_on_c, 0, 60, 100
1, 4992, Note_off_c, 0, 60, 100
1, 4992, Note_on_c, 0, 56, 100
1, 5088, Note_off_c, 0, 56, 100
1, 5088, Note_on_c, 0, 53, 100
1, 5184, Note_off_c, 0, 53, 100
1, 5184, Note_on_c, 0, 50, 100
1, 5376, Note_off_c, 0, 50, 100
1, 5376, Note_on_c, 0, 55, 100
1, 5568, Note_off_c, 0, 55, 100
1, 5568, Note_on_c, 0, 53, 100
1, 5664, Note_off_c, 0, 53, 100
1, 5664, Note_on_c, 0, 55, 100
1, 5760, Note_off_c, 0, 55, 100
1, 5760, Note_on_c, 0, 56, 100
1, 5856, Note_off_c, 0, 56, 100
1, 5856, Note_on_c, 0, 58, 100
1, 5952, Note_off_c, 0, 58, 100
1, 5952, Note_on_c, 0, 60, 100
1, 6048, Note_off_c, 0, 60, 100
1, 6048, Note_on_c, 0, 63, 100
1, 6144, Note_off_c, 0, 63, 100
1, 6144, Note_on_c, 0, 62, 100
1, 6240, Note_off_c, 0, 62, 100
1, 6240, Note_on_c, 0, 60, 100
1, 6336, Note_off_c, 0, 60, 100
1, 6336, Note_on_c, 0, 58, 100
1, 6432, Note_off_c, 0, 58, 100
1, 6432, Note_on_c, 0, 59, 100
1, 6528, Note_off_c, 0, 59, 100
1, 6528, Note_on_c, 0, 60, 100
1, 6720, Note_off_c, 0, 60, 100
1, 6720, Note_on_c, 0, 67, 100
1, 6816, Note_off_c, 0, 67, 100
1, 6816, Note_on_c, 0, 54, 100
1, 6864, Note_off_c, 0, 54, 100
1, 6864, Note_on_c, 0, 55, 100
1, 6912, Note_off_c, 0, 55, 100
1, 6912, Note_on_c, 0, 58, 100
1, 7200, Note_off_c, 0, 58, 100
1, 7488, Note_on_c, 0, 62, 100
1, 7632, Note_off_c, 0, 62, 100
1, 7632, Note_on_c, 0, 67, 100
1, 7920, Note_off_c, 0, 67, 100
1, 7920, Note_on_c, 0, 66, 100
1, 8016, Note_off_c, 0, 66, 100
1, 8016, Note_on_c, 0, 64, 100
1, 8128, Note_off_c, 0, 64, 100
1, 8128, Note_on_c, 0, 65, 100
1, 8256, Note_off_c, 0, 65, 100
1, 8256, Note_on_c, 0, 62, 100
1, 8352, Note_off_c, 0, 62, 100
1, 8352, Note_on_c, 0, 65, 100
1, 8496, Note_off_c, 0, 65, 100
1, 8496, Note_on_c, 0, 64, 100
1, 8592, Note_off_c, 0, 64, 100
1, 8592, Note_on_c, 0, 62, 100
1, 8688, Note_off_c, 0, 62, 100
1, 8688, Note_on_c, 0, 61, 100
1, 8784, Note_off_c, 0, 61, 100
1, 8784, Note_on_c, 0, 62, 100
1, 8832, Note_off_c, 0, 62, 100
1, 8832, Note_on_c, 0, 64, 100
1, 8928, Note_off_c, 0, 64, 100
1, 8928, Note_on_c, 0, 65, 100
1, 9072, Note_off_c, 0, 65, 100
1, 9072, Note_on_c, 0, 62, 100
1, 9168, Note_off_c, 0, 62, 100
1, 9168, Note_on_c, 0, 60, 100
1, 9280, Note_off_c, 0, 60, 100
1, 9280, Note_on_c, 0, 59, 100
1, 9344, Note_off_c, 0, 59, 100
1, 9344, Note_on_c, 0, 60, 100
1, 9456, Note_off_c, 0, 60, 100
1, 9456, Note_on_c, 0, 62, 100
1, 9552, Note_off_c, 0, 62, 100
1, 9552, Note_on_c, 0, 63, 100
1, 9648, Note_off_c, 0, 63, 100
1, 9648, Note_on_c, 0, 60, 100
1, 9744, Note_off_c, 0, 60, 100
1, 9744, Note_on_c, 0, 56, 100
1, 9936, Note_off_c, 0, 56, 100
1, 9936, Note_on_c, 0, 55, 100
1, 10048, Note_off_c, 0, 55, 100
1, 10048, Note_on_c, 0, 58, 100
1, 10176, Note_off_c, 0, 58, 100
1, 10176, Note_on_c, 0, 57, 100
1, 10240, Note_off_c, 0, 57, 100
1, 10240, Note_on_c, 0, 60, 100
1, 10304, Note_off_c, 0, 60, 100
1, 10304, Note_on_c, 0, 63, 100
1, 10368, Note_off_c, 0, 63, 100
1, 10368, Note_on_c, 0, 67, 100
1, 10464, Note_off_c, 0, 67, 100
1, 10464, Note_on_c, 0, 68, 100
1, 10560, Note_off_c, 0, 68, 100
1, 10560, Note_on_c, 0, 67, 100
1, 10656, Note_off_c, 0, 67, 100
1, 10656, Note_on_c, 0, 66, 100
1, 10752, Note_off_c, 0, 66, 100
1, 10752, Note_on_c, 0, 63, 100
1, 10848, Note_off_c, 0, 63, 100
1, 10848, Note_on_c, 0, 58, 100
1, 10944, Note_off_c, 0, 58, 100
1, 10944, Note_on_c, 0, 60, 100
1, 11040, Note_off_c, 0, 60, 100
1, 11040, Note_on_c, 0, 61, 100
1, 11184, Note_off_c, 0, 61, 100
1, 11184, Note_on_c, 0, 58, 100
1, 11280, Note_off_c, 0, 58, 100
1, 11280, Note_on_c, 0, 54, 100
1, 11376, Note_off_c, 0, 54, 100
1, 11376, Note_on_c, 0, 53, 100
1, 11472, Note_off_c, 0, 53, 100
1, 11472, Note_on_c, 0, 51, 100
1, 11520, Note_off_c, 0, 51, 100
1, 11520, Note_on_c, 0, 50, 100
1, 11616, Note_off_c, 0, 50, 100
1, 11856, Note_on_c, 0, 62, 100
1, 11904, Note_off_c, 0, 62, 100
1, 11904, Note_on_c, 0, 63, 100
1, 12096, Note_off_c, 0, 63, 100
1, 12096, Note_on_c, 0, 62, 100
1, 12192, Note_off_c, 0, 62, 100
1, 12192, Note_on_c, 0, 60, 100
1, 12288, Note_off_c, 0, 60, 100
1, 12288, Note_on_c, 0, 59, 100
1, 12384, Note_off_c, 0, 59, 100
1, 12384, Note_on_c, 0, 60, 100
1, 12480, Note_off_c, 0, 60, 100
1, 12480, Note_on_c, 0, 62, 100
1, 12576, Note_off_c, 0, 62, 100
1, 12576, Note_on_c, 0, 63, 100
1, 12720, Note_off_c, 0, 63, 100
1, 12720, Note_on_c, 0, 60, 100
1, 12816, Note_off_c, 0, 60, 100
1, 12816, Note_on_c, 0, 55, 100
1, 13104, Note_off_c, 0, 55, 100
1, 13824, Note_on_c, 0, 60, 100
1, 13872, Note_off_c, 0, 60, 100
1, 13872, Note_on_c, 0, 59, 100
1, 13968, Note_off_c, 0, 59, 100
1, 13968, Note_on_c, 0, 60, 100
1, 14112, Note_off_c, 0, 60, 100
1, 14112, Note_on_c, 0, 62, 100
1, 14208, Note_off_c, 0, 62, 100
1, 14208, Note_on_c, 0, 63, 100
1, 14304, Note_off_c, 0, 63, 100
1, 14304, Note_on_c, 0, 62, 100
1, 14400, Note_off_c, 0, 62, 100
1, 14400, Note_on_c, 0, 63, 100
1, 14528, Note_off_c, 0, 63, 100
1, 14528, Note_on_c, 0, 65, 100
1, 14592, Note_off_c, 0, 65, 100
1, 14592, Note_on_c, 0, 66, 100
1, 14688, Note_off_c, 0, 66, 100
1, 14688, Note_on_c, 0, 67, 100
1, 14784, Note_off_c, 0, 67, 100
1, 14784, Note_on_c, 0, 68, 100
1, 14880, Note_off_c, 0, 68, 100
1, 14880, Note_on_c, 0, 66, 100
1, 15024, Note_off_c, 0, 66, 100
1, 15024, Note_on_c, 0, 67, 100
1, 15120, Note_off_c, 0, 67, 100
1, 15120, Note_on_c, 0, 63, 100
1, 15168, Note_off_c, 0, 63, 100
1, 15168, Note_on_c, 0, 62, 100
1, 15296, Note_off_c, 0, 62, 100
1, 15296, Note_on_c, 0, 60, 100
1, 15360, Note_off_c, 0, 60, 100
1, 15360, Note_on_c, 0, 65, 100
1, 15648, Note_off_c, 0, 65, 100
1, 15648, Note_on_c, 0, 62, 100
1, 15744, Note_off_c, 0, 62, 100
1, 15744, Note_on_c, 0, 63, 100
1, 15936, Note_off_c, 0, 63, 100
1, 15936, Note_on_c, 0, 55, 100
1, 16000, Note_off_c, 0, 55, 100
1, 16000, Note_on_c, 0, 57, 100
1, 16064, Note_off_c, 0, 57, 100
1, 16064, Note_on_c, 0, 59, 100
1, 16128, Note_off_c, 0, 59, 100
1, 16128, Note_on_c, 0, 62, 100
1, 16224, Note_off_c, 0, 62, 100
1, 16224, Note_on_c, 0, 59, 100
1, 16320, Note_off_c, 0, 59, 100
1, 16320, Note_on_c, 0, 60, 100
1, 16416, Note_off_c, 0, 60, 100
1, 16416, Note_on_c, 0, 62, 100
1, 16512, Note_off_c, 0, 62, 100
1, 16512, Note_on_c, 0, 64, 100
1, 16576, Note_off_c, 0, 64, 100
1, 16576, Note_on_c, 0, 65, 100
1, 16640, Note_off_c, 0, 65, 100
1, 16640, Note_on_c, 0, 64, 100
1, 16704, Note_off_c, 0, 64, 100
1, 16704, Note_on_c, 0, 62, 100
1, 16800, Note_off_c, 0, 62, 100
1, 16800, Note_on_c, 0, 60, 100
1, 16944, Note_off_c, 0, 60, 100
1, 16944, Note_on_c, 0, 59, 100
1, 17040, Note_off_c, 0, 59, 100
1, 17040, Note_on_c, 0, 55, 100
1, 17088, Note_off_c, 0, 55, 100
1, 17088, Note_on_c, 0, 58, 100
1, 17184, Note_off_c, 0, 58, 100
1, 17184, Note_on_c, 0, 55, 100
1, 17344, Note_off_c, 0, 55, 100
1, 17344, Note_on_c, 0, 53, 100
1, 17408, Note_off_c, 0, 53, 100
1, 17408, Note_on_c, 0, 56, 100
1, 17472, Note_off_c, 0, 56, 100
1, 17472, Note_on_c, 0, 55, 100
1, 17568, Note_off_c, 0, 55, 100
1, 17568, Note_on_c, 0, 53, 100
1, 17664, Note_off_c, 0, 53, 100
1, 17664, Note_on_c, 0, 52, 100
1, 17760, Note_off_c, 0, 52, 100
1, 17760, Note_on_c, 0, 61, 100
1, 17952, Note_off_c, 0, 61, 100
1, 17952, Note_on_c, 0, 58, 100
1, 18048, Note_off_c, 0, 58, 100
1, 18048, Note_on_c, 0, 60, 100
1, 18144, Note_off_c, 0, 60, 100
1, 18144, Note_on_c, 0, 56, 100
1, 18336, Note_off_c, 0, 56, 100
1, 18336, Note_on_c, 0, 55, 100
1, 18432, Note_off_c, 0, 55, 100
1, 18432, Note_on_c, 0, 56, 100
1, 18496, Note_off_c, 0, 56, 100
1, 18496, Note_on_c, 0, 58, 100
1, 18624, Note_off_c, 0, 58, 100
1, 18624, Note_on_c, 0, 60, 100
1, 18720, Note_off_c, 0, 60, 100
1, 18720, Note_on_c, 0, 63, 100
1, 18816, Note_off_c, 0, 63, 100
1, 18816, Note_on_c, 0, 67, 100
1, 18960, Note_off_c, 0, 67, 100
1, 18960, Note_on_c, 0, 65, 100
1, 19344, Note_off_c, 0, 65, 100
1, 19872, Note_on_c, 0, 67, 100
1, 20112, Note_off_c, 0, 67, 100
1, 20112, Note_on_c, 0, 65, 100
1, 20224, Note_off_c, 0, 65, 100
1, 20224, Note_on_c, 0, 60, 100
1, 20288, Note_off_c, 0, 60, 100
1, 20288, Note_on_c, 0, 56, 100
1, 20352, Note_off_c, 0, 56, 100
1, 20352, Note_on_c, 0, 55, 100
1, 20544, Note_off_c, 0, 55, 100
1, 20544, Note_on_c, 0, 53, 100
1, 20688, Note_off_c, 0, 53, 100
1, 20688, Note_on_c, 0, 70, 100
1, 20928, Note_off_c, 0, 70, 100
1, 20928, Note_on_c, 0, 68, 100
1, 20976, Note_off_c, 0, 68, 100
1, 20976, Note_on_c, 0, 63, 100
1, 21024, Note_off_c, 0, 63, 100
1, 21024, Note_on_c, 0, 58, 100
1, 21184, Note_off_c, 0, 58, 100
1, 21184, Note_on_c, 0, 56, 100
1, 21280, Note_off_c, 0, 56, 100
1, 21600, Note_on_c, 0, 70, 100
1, 21888, Note_off_c, 0, 70, 100
1, 21888, Note_on_c, 0, 68, 100
1, 22016, Note_off_c, 0, 68, 100
1, 22016, Note_on_c, 0, 63, 100
1, 22080, Note_off_c, 0, 63, 100
1, 22080, Note_on_c, 0, 58, 100
1, 22272, Note_off_c, 0, 58, 100
1, 22272, Note_on_c, 0, 73, 100
1, 22464, Note_off_c, 0, 73, 100
1, 22464, Note_on_c, 0, 70, 100
1, 22528, Note_off_c, 0, 70, 100
1, 22528, Note_on_c, 0, 65, 100
1, 22592, Note_off_c, 0, 65, 100
1, 22592, Note_on_c, 0, 62, 100
1, 22656, Note_off_c, 0, 62, 100
1, 22656, Note_on_c, 0, 61, 100
1, 22848, Note_off_c, 0, 61, 100
1, 22848, Note_on_c, 0, 59, 100
1, 22992, Note_off_c, 0, 59, 100
1, 22992, Note_on_c, 0, 70, 100
1, 23280, Note_off_c, 0, 70, 100
1, 23280, Note_on_c, 0, 66, 100
1, 23376, Note_off_c, 0, 66, 100
1, 23376, Note_on_c, 0, 65, 100
1, 23424, Note_off_c, 0, 65, 100
1, 23424, Note_on_c, 0, 63, 100
1, 23712, Note_off_c, 0, 63, 100
1, 23712, Note_on_c, 0, 67, 100
1, 23808, Note_off_c, 0, 67, 100
1, 23808, Note_on_c, 0, 68, 100
1, 24192, Note_off_c, 0, 68, 100
1, 24192, Note_on_c, 0, 65, 100
1, 24288, Note_off_c, 0, 65, 100
1, 24288, Note_on_c, 0, 63, 100
1, 24384, Note_off_c, 0, 63, 100
1, 24384, Note_on_c, 0, 59, 100
1, 24480, Note_off_c, 0, 59, 100
1, 24480, Note_on_c, 0, 55, 100
1, 24576, Note_off_c, 0, 55, 100
1, 24576, Note_on_c, 0, 58, 100
1, 24768, Note_off_c, 0, 58, 100
1, 24768, Note_on_c, 0, 56, 100
1, 24960, Note_off_c, 0, 56, 100
1, 24960, Note_on_c, 0, 55, 100
1, 25088, Note_off_c, 0, 55, 100
1, 25088, Note_on_c, 0, 62, 100
1, 25280, Note_off_c, 0, 62, 100
1, 25679, Note_on_c, 0, 62, 100
1, 25727, Note_off_c, 0, 62, 100
1, 25727, Note_on_c, 0, 64, 100
1, 25919, Note_off_c, 0, 64, 100
1, 25919, Note_on_c, 0, 65, 100
1, 26015, Note_off_c, 0, 65, 100
1, 26015, Note_on_c, 0, 67, 100
1, 26111, Note_off_c, 0, 67, 100
1, 26111, Note_on_c, 0, 69, 100
1, 26207, Note_off_c, 0, 69, 100
1, 26207, Note_on_c, 0, 67, 100
1, 26255, Note_off_c, 0, 67, 100
1, 26255, Note_on_c, 0, 65, 100
1, 26303, Note_off_c, 0, 65, 100
1, 26303, Note_on_c, 0, 64, 100
1, 26447, Note_off_c, 0, 64, 100
1, 26447, Note_on_c, 0, 69, 100
1, 26543, Note_off_c, 0, 69, 100
1, 26543, Note_on_c, 0, 65, 100
1, 26639, Note_off_c, 0, 65, 100
1, 26639, Note_on_c, 0, 62, 100
1, 26687, Note_off_c, 0, 62, 100
1, 26687, Note_on_c, 0, 58, 100
1, 26879, Note_off_c, 0, 58, 100
1, 26879, Note_on_c, 0, 64, 100
1, 26943, Note_off_c, 0, 64, 100
1, 26943, Note_on_c, 0, 65, 100
1, 27007, Note_off_c, 0, 65, 100
1, 27007, Note_on_c, 0, 66, 100
1, 27071, Note_off_c, 0, 66, 100
1, 27071, Note_on_c, 0, 67, 100
1, 27167, Note_off_c, 0, 67, 100
1, 27167, Note_on_c, 0, 66, 100
1, 27215, Note_off_c, 0, 66, 100
1, 27215, Note_on_c, 0, 65, 100
1, 27263, Note_off_c, 0, 65, 100
1, 27263, Note_on_c, 0, 64, 100
1, 27359, Note_off_c, 0, 64, 100
1, 27359, Note_on_c, 0, 62, 100
1, 27455, Note_off_c, 0, 62, 100
1, 27455, Note_on_c, 0, 60, 100
1, 27551, Note_off_c, 0, 60, 100
1, 27551, Note_on_c, 0, 59, 100
1, 27647, Note_off_c, 0, 59, 100
1, 27647, Note_on_c, 0, 58, 100
1, 27743, Note_off_c, 0, 58, 100
1, 27743, Note_on_c, 0, 57, 100
1, 27839, Note_off_c, 0, 57, 100
1, 27839, Note_on_c, 0, 58, 100
1, 28031, Note_off_c, 0, 58, 100
1, 28031, Note_on_c, 0, 65, 100
1, 28175, Note_off_c, 0, 65, 100
1, 28175, Note_on_c, 0, 64, 100
1, 28223, Note_off_c, 0, 64, 100
1, 28223, Note_on_c, 0, 65, 100
1, 28415, Note_off_c, 0, 65, 100
1, 28415, Note_on_c, 0, 63, 100
1, 28511, Note_off_c, 0, 63, 100
1, 28511, Note_on_c, 0, 62, 100
1, 28607, Note_off_c, 0, 62, 100
1, 28607, Note_on_c, 0, 63, 100
1, 28751, Note_off_c, 0, 63, 100
1, 28751, Note_on_c, 0, 70, 100
1, 28847, Note_off_c, 0, 70, 100
1, 28847, Note_on_c, 0, 67, 100
1, 28943, Note_off_c, 0, 67, 100
1, 28943, Note_on_c, 0, 68, 100
1, 29039, Note_off_c, 0, 68, 100
1, 29039, Note_on_c, 0, 64, 100
1, 29135, Note_off_c, 0, 64, 100
1, 29135, Note_on_c, 0, 67, 100
1, 29231, Note_off_c, 0, 67, 100
1, 29231, Note_on_c, 0, 65, 100
1, 29327, Note_off_c, 0, 65, 100
1, 29327, Note_on_c, 0, 55, 100
1, 29423, Note_off_c, 0, 55, 100
1, 29423, Note_on_c, 0, 62, 100
1, 29519, Note_off_c, 0, 62, 100
1, 29519, Note_on_c, 0, 63, 100
1, 29631, Note_off_c, 0, 63, 100
1, 29631, Note_on_c, 0, 60, 100
1, 29695, Note_off_c, 0, 60, 100
1, 29695, Note_on_c, 0, 61, 100
1, 29791, Note_off_c, 0, 61, 100
1, 30015, Note_on_c, 0, 65, 100
1, 30287, Note_off_c, 0, 65, 100
1, 30287, Note_on_c, 0, 61, 100
1, 30335, Note_off_c, 0, 61, 100
1, 30335, Note_on_c, 0, 60, 100
1, 30399, Note_off_c, 0, 60, 100
1, 30399, Note_on_c, 0, 61, 100
1, 30463, Note_off_c, 0, 61, 100
1, 30463, Note_on_c, 0, 58, 100
1, 30527, Note_off_c, 0, 58, 100
1, 30527, Note_on_c, 0, 54, 100
1, 30623, Note_off_c, 0, 54, 100
1, 30623, Note_on_c, 0, 52, 100
1, 30719, Note_off_c, 0, 52, 100
1, 30719, Note_on_c, 0, 53, 100
1, 30815, Note_off_c, 0, 53, 100
1, 30815, Note_on_c, 0, 55, 100
1, 30975, Note_off_c, 0, 55, 100
1, 30975, Note_on_c, 0, 57, 100
1, 31039, Note_off_c, 0, 57, 100
1, 31039, Note_on_c, 0, 59, 100
1, 31103, Note_off_c, 0, 59, 100
1, 31103, Note_on_c, 0, 64, 100
1, 31167, Note_off_c, 0, 64, 100
1, 31167, Note_on_c, 0, 65, 100
1, 31231, Note_off_c, 0, 65, 100
1, 31231, Note_on_c, 0, 64, 100
1, 31295, Note_off_c, 0, 64, 100
1, 31295, Note_on_c, 0, 62, 100
1, 31391, Note_off_c, 0, 62, 100
1, 31391, Note_on_c, 0, 60, 100
1, 31487, Note_off_c, 0, 60, 100
1, 31487, Note_on_c, 0, 59, 100
1, 31583, Note_off_c, 0, 59, 100
1, 31583, Note_on_c, 0, 62, 100
1, 31679, Note_off_c, 0, 62, 100
1, 31679, Note_on_c, 0, 65, 100
1, 31775, Note_off_c, 0, 65, 100
1, 31775, Note_on_c, 0, 69, 100
1, 31871, Note_off_c, 0, 69, 100
1, 31871, Note_on_c, 0, 63, 100
1, 31967, Note_off_c, 0, 63, 100
1, 31967, Note_on_c, 0, 65, 100
1, 32015, Note_off_c, 0, 65, 100
1, 32015, Note_on_c, 0, 66, 100
1, 32063, Note_off_c, 0, 66, 100
1, 32063, Note_on_c, 0, 67, 100
1, 32159, Note_off_c, 0, 67, 100
1, 32159, Note_on_c, 0, 66, 100
1, 32207, Note_off_c, 0, 66, 100
1, 32207, Note_on_c, 0, 65, 100
1, 32255, Note_off_c, 0, 65, 100
1, 32255, Note_on_c, 0, 63, 100
1, 32447, Note_off_c, 0, 63, 100
1, 32447, Note_on_c, 0, 51, 100
1, 32543, Note_off_c, 0, 51, 100
1, 32543, Note_on_c, 0, 55, 100
1, 32639, Note_off_c, 0, 55, 100
1, 32639, Note_on_c, 0, 62, 100
1, 32767, Note_off_c, 0, 62, 100
1, 32767, Note_on_c, 0, 60, 100
1, 32959, Note_off_c, 0, 60, 100
1, 33407, Note_on_c, 0, 51, 100
1, 33503, Note_off_c, 0, 51, 100
1, 33503, Note_on_c, 0, 55, 100
1, 33647, Note_off_c, 0, 55, 100
1, 33647, Note_on_c, 0, 62, 100
1, 33743, Note_off_c, 0, 62, 100
1, 33743, Note_on_c, 0, 67, 100
1, 33887, Note_off_c, 0, 67, 100
1, 33887, Note_on_c, 0, 74, 100
1, 34047, Note_off_c, 0, 74, 100
1, 34047, Note_on_c, 0, 74, 100
1, 34175, Note_off_c, 0, 74, 100
1, 34175, Note_on_c, 0, 67, 100
1, 34463, Note_off_c, 0, 67, 100
1, 34751, Note_on_c, 0, 70, 100
1, 34799, Note_off_c, 0, 70, 100
1, 34799, Note_on_c, 0, 71, 100
1, 34847, Note_off_c, 0, 71, 100
1, 34847, Note_on_c, 0, 72, 100
1, 35087, Note_off_c, 0, 72, 100
1, 35087, Note_on_c, 0, 70, 100
1, 35231, Note_off_c, 0, 70, 100
1, 35231, Note_on_c, 0, 70, 100
1, 35327, Note_off_c, 0, 70, 100
1, 35327, Note_on_c, 0, 68, 100
1, 35423, Note_off_c, 0, 68, 100
1, 35423, Note_on_c, 0, 70, 100
1, 35519, Note_off_c, 0, 70, 100
1, 35519, Note_on_c, 0, 68, 100
1, 35615, Note_off_c, 0, 68, 100
1, 35615, Note_on_c, 0, 67, 100
1, 35711, Note_off_c, 0, 67, 100
1, 35711, Note_on_c, 0, 65, 100
1, 35807, Note_off_c, 0, 65, 100
1, 35807, Note_on_c, 0, 64, 100
1, 35903, Note_off_c, 0, 64, 100
1, 35903, Note_on_c, 0, 65, 100
1, 35999, Note_off_c, 0, 65, 100
1, 35999, Note_on_c, 0, 67, 100
1, 36122, Note_off_c, 0, 67, 100
1, 36122, Note_on_c, 0, 68, 100
1, 36204, Note_off_c, 0, 68, 100
1, 36204, Note_on_c, 0, 67, 100
1, 36231, Note_off_c, 0, 67, 100
1, 36231, Note_on_c, 0, 66, 100
1, 36258, Note_off_c, 0, 66, 100
1, 36258, Note_on_c, 0, 65, 100
1, 36333, Note_off_c, 0, 65, 100
1, 36333, Note_on_c, 0, 64, 100
1, 36429, Note_off_c, 0, 64, 100
1, 36429, Note_on_c, 0, 67, 100
1, 36477, Note_off_c, 0, 67, 100
1, 36477, Note_on_c, 0, 65, 100
1, 36573, Note_off_c, 0, 65, 100
1, 36573, Note_on_c, 0, 63, 100
1, 36717, Note_off_c, 0, 63, 100
1, 36717, Note_on_c, 0, 62, 100
1, 36813, Note_off_c, 0, 62, 100
1, 36813, Note_on_c, 0, 60, 100
1, 36861, Note_off_c, 0, 60, 100
1, 36861, Note_on_c, 0, 58, 100
1, 37101, Note_off_c, 0, 58, 100
1, 37101, Note_on_c, 0, 60, 100
1, 37197, Note_off_c, 0, 60, 100
1, 37197, Note_on_c, 0, 56, 100
1, 37293, Note_off_c, 0, 56, 100
1, 37293, Note_on_c, 0, 55, 100
1, 37389, Note_off_c, 0, 55, 100
1, 37389, Note_on_c, 0, 53, 100
1, 37485, Note_off_c, 0, 53, 100
1, 37485, Note_on_c, 0, 51, 100
1, 37581, Note_off_c, 0, 51, 100
1, 37581, Note_on_c, 0, 49, 100
1, 37629, Note_off_c, 0, 49, 100
1, 37629, Note_on_c, 0, 58, 100
1, 37821, Note_off_c, 0, 58, 100
1, 38461, Note_on_c, 0, 66, 100
1, 38525, Note_off_c, 0, 66, 100
1, 38525, Note_on_c, 0, 65, 100
1, 39069, Note_off_c, 0, 65, 100
1, 39069, Note_on_c, 0, 68, 100
1, 39165, Note_off_c, 0, 68, 100
1, 39165, Note_on_c, 0, 67, 100
1, 39501, Note_off_c, 0, 67, 100
1, 39501, Note_on_c, 0, 67, 100
1, 39613, Note_off_c, 0, 67, 100
1, 39613, Note_on_c, 0, 65, 100
1, 39933, Note_off_c, 0, 65, 100
1, 39933, Note_on_c, 0, 65, 100
1, 40029, Note_off_c, 0, 65, 100
1, 40029, Note_on_c, 0, 63, 100
1, 40605, Note_off_c, 0, 63, 100
1, 40605, Note_on_c, 0, 63, 100
1, 40765, Note_off_c, 0, 63, 100
1, 40765, Note_on_c, 0, 62, 100
1, 40989, Note_off_c, 0, 62, 100
1, 40989, Note_on_c, 0, 62, 100
1, 41085, Note_off_c, 0, 62, 100
1, 41085, Note_on_c, 0, 60, 100
1, 41373, Note_off_c, 0, 60, 100
1, 41373, Note_on_c, 0, 64, 100
1, 41469, Note_off_c, 0, 64, 100
1, 41469, Note_on_c, 0, 65, 100
1, 41709, Note_off_c, 0, 65, 100
1, 41709, Note_on_c, 0, 62, 100
1, 41805, Note_off_c, 0, 62, 100
1, 41805, Note_on_c, 0, 63, 100
1, 41917, Note_off_c, 0, 63, 100
1, 41917, Note_on_c, 0, 60, 100
1, 42045, Note_off_c, 0, 60, 100
1, 42045, Note_on_c, 0, 55, 100
1, 42237, Note_off_c, 0, 55, 100
1, 42237, Note_on_c, 0, 63, 100
1, 42429, Note_off_c, 0, 63, 100
1, 42429, Note_on_c, 0, 61, 100
1, 42525, Note_off_c, 0, 61, 100
1, 42525, Note_on_c, 0, 62, 100
1, 42669, Note_off_c, 0, 62, 100
1, 42669, Note_on_c, 0, 58, 100
1, 42765, Note_off_c, 0, 58, 100
1, 42765, Note_on_c, 0, 59, 100
1, 43005, Note_off_c, 0, 59, 100
1, 43005, Note_on_c, 0, 62, 100
1, 43293, Note_off_c, 0, 62, 100
1, 43293, Note_on_c, 0, 59, 100
1, 43389, Note_off_c, 0, 59, 100
1, 43389, Note_on_c, 0, 60, 100
1, 43581, Note_off_c, 0, 60, 100
1, 43581, Note_on_c, 0, 57, 100
1, 43677, Note_off_c, 0, 57, 100
1, 44541, Note_on_c, 0, 51, 100
1, 44637, Note_off_c, 0, 51, 100
1, 44637, Note_on_c, 0, 57, 100
1, 44733, Note_off_c, 0, 57, 100
1, 44733, Note_on_c, 0, 62, 100
1, 44829, Note_off_c, 0, 62, 100
1, 44829, Note_on_c, 0, 67, 100
1, 44925, Note_off_c, 0, 67, 100
1, 44925, Note_on_c, 0, 72, 100
1, 45117, Note_off_c, 0, 72, 100
1, 45117, Note_on_c, 0, 72, 100
1, 45213, Note_off_c, 0, 72, 100
1, 45213, Note_on_c, 0, 76, 100
1, 45261, Note_off_c, 0, 76, 100
1, 45261, Note_on_c, 0, 77, 100
1, 45597, Note_off_c, 0, 77, 100
1, 45597, Note_on_c, 0, 75, 100
1, 46269, Note_off_c, 0, 75, 100
1, 46269, Note_on_c, 0, 74, 100
1, 46317, Note_off_c, 0, 74, 100
1, 46317, Note_on_c, 0, 75, 100
1, 46413, Note_off_c, 0, 75, 100
1, 46413, Note_on_c, 0, 71, 100
1, 46461, Note_off_c, 0, 71, 100
1, 46461, Note_on_c, 0, 74, 100
1, 46589, Note_off_c, 0, 74, 100
1, 46589, Note_on_c, 0, 72, 100
1, 46781, Note_off_c, 0, 72, 100
1, 47229, Note_on_c, 0, 74, 100
1, 47325, Note_off_c, 0, 74, 100
1, 47325, Note_on_c, 0, 75, 100
1, 47997, Note_off_c, 0, 75, 100
1, 47997, Note_on_c, 0, 72, 100
1, 48189, Note_off_c, 0, 72, 100
1, 48189, Note_on_c, 0, 67, 100
1, 48285, Note_off_c, 0, 67, 100
1, 48285, Note_on_c, 0, 70, 100
1, 48381, Note_off_c, 0, 70, 100
1, 48381, Note_on_c, 0, 68, 100
1, 48573, Note_off_c, 0, 68, 100
1, 48573, Note_on_c, 0, 67, 100
1, 48669, Note_off_c, 0, 67, 100
1, 48669, Note_on_c, 0, 68, 100
1, 48765, Note_off_c, 0, 68, 100
1, 48765, Note_on_c, 0, 64, 100
1, 48861, Note_off_c, 0, 64, 100
1, 48861, Note_on_c, 0, 67, 100
1, 48957, Note_off_c, 0, 67, 100
1, 48957, Note_on_c, 0, 65, 100
1, 49053, Note_off_c, 0, 65, 100
1, 49053, Note_on_c, 0, 63, 100
1, 49197, Note_off_c, 0, 63, 100
1, 49197, Note_on_c, 0, 62, 100
1, 49293, Note_off_c, 0, 62, 100
1, 49293, Note_on_c, 0, 60, 100
1, 49389, Note_off_c, 0, 60, 100
1, 49389, Note_on_c, 0, 58, 100
1, 49437, Note_off_c, 0, 58, 100
1, 49437, Note_on_c, 0, 59, 100
1, 49485, Note_off_c, 0, 59, 100
1, 49485, Note_on_c, 0, 60, 100
1, 49629, Note_off_c, 0, 60, 100
1, 49629, Note_on_c, 0, 65, 100
1, 49869, Note_off_c, 0, 65, 100
1, 49869, Note_on_c, 0, 58, 100
1, 50061, Note_off_c, 0, 58, 100
1, 50781, Note_on_c, 0, 62, 100
1, 50941, Note_off_c, 0, 62, 100
1, 50941, Note_on_c, 0, 69, 100
1, 51005, Note_off_c, 0, 69, 100
1, 51005, Note_on_c, 0, 72, 100
1, 51069, Note_off_c, 0, 72, 100
1, 51069, Note_on_c, 0, 71, 100
1, 51165, Note_off_c, 0, 71, 100
1, 51165, Note_on_c, 0, 69, 100
1, 51261, Note_off_c, 0, 69, 100
1, 51261, Note_on_c, 0, 68, 100
1, 51357, Note_off_c, 0, 68, 100
1, 51357, Note_on_c, 0, 69, 100
1, 51453, Note_off_c, 0, 69, 100
1, 51453, Note_on_c, 0, 70, 100
1, 51517, Note_off_c, 0, 70, 100
1, 51517, Note_on_c, 0, 72, 100
1, 51581, Note_off_c, 0, 72, 100
1, 51581, Note_on_c, 0, 70, 100
1, 51645, Note_off_c, 0, 70, 100
1, 51645, Note_on_c, 0, 69, 100
1, 51741, Note_off_c, 0, 69, 100
1, 51741, Note_on_c, 0, 65, 100
1, 51837, Note_off_c, 0, 65, 100
1, 51837, Note_on_c, 0, 64, 100
1, 51933, Note_off_c, 0, 64, 100
1, 51933, Note_on_c, 0, 62, 100
1, 52029, Note_off_c, 0, 62, 100
1, 52029, Note_on_c, 0, 67, 100
1, 52157, Note_off_c, 0, 67, 100
1, 52157, Note_on_c, 0, 66, 100
1, 52221, Note_off_c, 0, 66, 100
1, 52221, Note_on_c, 0, 65, 100
1, 52317, Note_off_c, 0, 65, 100
1, 52317, Note_on_c, 0, 64, 100
1, 52413, Note_off_c, 0, 64, 100
1, 52413, Note_on_c, 0, 63, 100
1, 52509, Note_off_c, 0, 63, 100
1, 52509, Note_on_c, 0, 62, 100
1, 52605, Note_off_c, 0, 62, 100
1, 52605, Note_on_c, 0, 60, 100
1, 52701, Note_off_c, 0, 60, 100
1, 52701, Note_on_c, 0, 59, 100
1, 52797, Note_off_c, 0, 59, 100
1, 52797, Note_on_c, 0, 62, 100
1, 52893, Note_off_c, 0, 62, 100
1, 52893, Note_on_c, 0, 63, 100
1, 52989, Note_off_c, 0, 63, 100
1, 52989, Note_on_c, 0, 60, 100
1, 53085, Note_off_c, 0, 60, 100
1, 53085, Note_on_c, 0, 56, 100
1, 53181, Note_off_c, 0, 56, 100
1, 53181, Note_on_c, 0, 55, 100
1, 53277, Note_off_c, 0, 55, 100
1, 53277, Note_on_c, 0, 54, 100
1, 53373, Note_off_c, 0, 54, 100
1, 53373, Note_on_c, 0, 58, 100
1, 53661, Note_off_c, 0, 58, 100
1, 53661, Note_on_c, 0, 65, 100
1, 53709, Note_off_c, 0, 65, 100
1, 53709, Note_on_c, 0, 68, 100
1, 53901, Note_off_c, 0, 68, 100
1, 53901, Note_on_c, 0, 66, 100
1, 54045, Note_off_c, 0, 66, 100
1, 54045, Note_on_c, 0, 65, 100
1, 54141, Note_off_c, 0, 65, 100
1, 54141, Note_on_c, 0, 68, 100
1, 54237, Note_off_c, 0, 68, 100
1, 54237, Note_on_c, 0, 66, 100
1, 54381, Note_off_c, 0, 66, 100
1, 54381, Note_on_c, 0, 65, 100
1, 54477, Note_off_c, 0, 65, 100
1, 54477, Note_on_c, 0, 67, 100
1, 54669, Note_off_c, 0, 67, 100
1, 54669, Note_on_c, 0, 65, 100
1, 54813, Note_off_c, 0, 65, 100
1, 54813, Note_on_c, 0, 63, 100
1, 54909, Note_off_c, 0, 63, 100
1, 54909, Note_on_c, 0, 67, 100
1, 55005, Note_off_c, 0, 67, 100
1, 55005, Note_on_c, 0, 65, 100
1, 55197, Note_off_c, 0, 65, 100
1, 55197, Note_on_c, 0, 63, 100
1, 55245, Note_off_c, 0, 63, 100
1, 55245, Note_on_c, 0, 67, 100
1, 55437, Note_off_c, 0, 67, 100
1, 55437, Note_on_c, 0, 65, 100
1, 55581, Note_off_c, 0, 65, 100
1, 55581, Note_on_c, 0, 61, 100
1, 55821, Note_off_c, 0, 61, 100
1, 55821, Note_on_c, 0, 62, 100
1, 55917, Note_off_c, 0, 62, 100
1, 56349, Note_on_c, 0, 67, 100
1, 56733, Note_off_c, 0, 67, 100
1, 56733, Note_on_c, 0, 65, 100
1, 56829, Note_off_c, 0, 65, 100
1, 56829, Note_on_c, 0, 63, 100
1, 56925, Note_off_c, 0, 63, 100
1, 56925, Note_on_c, 0, 65, 100
1, 56973, Note_off_c, 0, 65, 100
1, 56973, Note_on_c, 0, 63, 100
1, 57021, Note_off_c, 0, 63, 100
1, 57021, Note_on_c, 0, 62, 100
1, 57117, Note_off_c, 0, 62, 100
1, 57117, Note_on_c, 0, 63, 100
1, 57165, Note_off_c, 0, 63, 100
1, 57165, Note_on_c, 0, 62, 100
1, 57213, Note_off_c, 0, 62, 100
1, 57213, Note_on_c, 0, 60, 100
1, 57309, Note_off_c, 0, 60, 100
1, 57309, Note_on_c, 0, 62, 100
1, 57357, Note_off_c, 0, 62, 100
1, 57357, Note_on_c, 0, 63, 100
1, 57549, Note_off_c, 0, 63, 100
1, 57549, Note_on_c, 0, 65, 100
1, 57597, Note_off_c, 0, 65, 100
1, 57597, Note_on_c, 0, 67, 100
1, 57789, Note_off_c, 0, 67, 100
1, 57789, Note_on_c, 0, 70, 100
1, 57885, Note_off_c, 0, 70, 100
1, 57885, Note_on_c, 0, 67, 100
1, 57981, Note_off_c, 0, 67, 100
1, 57981, Note_on_c, 0, 66, 100
1, 58173, Note_off_c, 0, 66, 100
1, 58173, Note_on_c, 0, 63, 100
1, 58317, Note_off_c, 0, 63, 100
1, 58317, Note_on_c, 0, 67, 100
1, 58365, Note_off_c, 0, 67, 100
1, 58365, Note_on_c, 0, 63, 100
1, 58557, Note_off_c, 0, 63, 100
1, 58557, Note_on_c, 0, 60, 100
1, 58653, Note_off_c, 0, 60, 100
1, 58653, Note_on_c, 0, 63, 100
1, 58797, Note_off_c, 0, 63, 100
1, 58797, Note_on_c, 0, 60, 100
1, 58941, Note_off_c, 0, 60, 100
1, 58941, Note_on_c, 0, 55, 100
1, 59037, Note_off_c, 0, 55, 100
1, 59037, Note_on_c, 0, 58, 100
1, 59133, Note_off_c, 0, 58, 100
1, 59133, Note_on_c, 0, 55, 100
1, 59421, Note_off_c, 0, 55, 100
1, 59829, Note_on_c, 0, 70, 100
1, 59853, Note_off_c, 0, 70, 100
1, 59853, Note_on_c, 0, 71, 100
1, 59877, Note_off_c, 0, 71, 100
1, 59877, Note_on_c, 0, 72, 100
1, 60045, Note_off_c, 0, 72, 100
1, 60045, Note_on_c, 0, 70, 100
1, 60157, Note_off_c, 0, 70, 100
1, 60157, Note_on_c, 0, 71, 100
1, 60221, Note_off_c, 0, 71, 100
1, 60221, Note_on_c, 0, 70, 100
1, 60285, Note_off_c, 0, 70, 100
1, 60285, Note_on_c, 0, 68, 100
1, 60381, Note_off_c, 0, 68, 100
1, 60381, Note_on_c, 0, 67, 100
1, 60477, Note_off_c, 0, 67, 100
1, 60477, Note_on_c, 0, 65, 100
1, 60621, Note_off_c, 0, 65, 100
1, 60621, Note_on_c, 0, 64, 100
1, 60765, Note_off_c, 0, 64, 100
1, 60765, Note_on_c, 0, 65, 100
1, 60861, Note_off_c, 0, 65, 100
1, 60861, Note_on_c, 0, 67, 100
1, 60957, Note_off_c, 0, 67, 100
1, 60957, Note_on_c, 0, 68, 100
1, 61053, Note_off_c, 0, 68, 100
1, 61053, Note_on_c, 0, 65, 100
1, 61197, Note_off_c, 0, 65, 100
1, 61197, Note_on_c, 0, 60, 100
1, 61245, Note_off_c, 0, 60, 100
1, 61245, Note_on_c, 0, 63, 100
1, 61341, Note_off_c, 0, 63, 100
1, 61341, Note_on_c, 0, 60, 100
1, 61437, Note_off_c, 0, 60, 100
1, 61437, Note_on_c, 0, 61, 100
1, 61533, Note_off_c, 0, 61, 100
1, 61533, Note_on_c, 0, 62, 100
1, 61725, Note_off_c, 0, 62, 100
1, 61725, Note_on_c, 0, 58, 100
1, 61773, Note_off_c, 0, 58, 100
1, 61773, Note_on_c, 0, 59, 100
1, 61821, Note_off_c, 0, 59, 100
1, 61821, Note_on_c, 0, 60, 100
1, 62013, Note_off_c, 0, 60, 100
1, 62013, Note_on_c, 0, 67, 100
1, 62109, Note_off_c, 0, 67, 100
1, 62109, Note_on_c, 0, 66, 100
1, 62205, Note_off_c, 0, 66, 100
1, 62205, Note_on_c, 0, 58, 100
1, 62349, Note_off_c, 0, 58, 100
1, 62349, Note_on_c, 0, 56, 100
1, 62637, Note_off_c, 0, 56, 100
1, 62925, Note_on_c, 0, 62, 100
1, 63069, Note_off_c, 0, 62, 100
1, 63069, Note_on_c, 0, 65, 100
1, 63165, Note_off_c, 0, 65, 100
1, 63165, Note_on_c, 0, 64, 100
1, 63261, Note_off_c, 0, 64, 100
1, 63261, Note_on_c, 0, 60, 100
1, 63357, Note_off_c, 0, 60, 100
1, 63357, Note_on_c, 0, 67, 100
1, 63549, Note_off_c, 0, 67, 100
1, 63549, Note_on_c, 0, 62, 100
1, 63645, Note_off_c, 0, 62, 100
1, 63645, Note_on_c, 0, 65, 100
1, 63741, Note_off_c, 0, 65, 100
1, 63741, Note_on_c, 0, 64, 100
1, 63885, Note_off_c, 0, 64, 100
1, 63885, Note_on_c, 0, 67, 100
1, 63997, Note_off_c, 0, 67, 100
1, 63997, Note_on_c, 0, 66, 100
1, 64061, Note_off_c, 0, 66, 100
1, 64061, Note_on_c, 0, 65, 100
1, 64253, Note_off_c, 0, 65, 100
1, 64509, Note_on_c, 0, 60, 100
1, 64605, Note_off_c, 0, 60, 100
1, 64605, Note_on_c, 0, 63, 100
1, 64701, Note_off_c, 0, 63, 100
1, 64701, Note_on_c, 0, 62, 100
1, 64845, Note_off_c, 0, 62, 100
1, 64845, Note_on_c, 0, 60, 100
1, 64893, Note_off_c, 0, 60, 100
1, 64893, Note_on_c, 0, 65, 100
1, 65085, Note_off_c, 0, 65, 100
1, 65085, Note_on_c, 0, 60, 100
1, 65181, Note_off_c, 0, 60, 100
1, 65181, Note_on_c, 0, 63, 100
1, 65229, Note_off_c, 0, 63, 100
1, 65229, Note_on_c, 0, 62, 100
1, 65373, Note_off_c, 0, 62, 100
1, 65373, Note_on_c, 0, 60, 100
1, 65469, Note_off_c, 0, 60, 100
1, 65469, Note_on_c, 0, 65, 100
1, 65853, Note_off_c, 0, 65, 100
1, 65853, Note_on_c, 0, 63, 100
1, 65981, Note_off_c, 0, 63, 100
1, 65981, Note_on_c, 0, 68, 100
1, 66141, Note_off_c, 0, 68, 100
1, 66141, Note_on_c, 0, 63, 100
1, 66237, Note_off_c, 0, 63, 100
1, 66237, Note_on_c, 0, 67, 100
1, 66333, Note_off_c, 0, 67, 100
1, 66333, Note_on_c, 0, 68, 100
1, 66429, Note_off_c, 0, 68, 100
1, 66429, Note_on_c, 0, 63, 100
1, 66573, Note_off_c, 0, 63, 100
1, 66573, Note_on_c, 0, 62, 100
1, 66717, Note_off_c, 0, 62, 100
1, 66717, Note_on_c, 0, 67, 100
1, 66813, Note_off_c, 0, 67, 100
1, 67005, Note_on_c, 0, 67, 100
1, 67133, Note_off_c, 0, 67, 100
1, 67133, Note_on_c, 0, 62, 100
1, 67581, Note_off_c, 0, 62, 100
1, 67581, Note_on_c, 0, 62, 100
1, 67677, Note_off_c, 0, 62, 100
1, 67677, Note_on_c, 0, 63, 100
1, 67773, Note_off_c, 0, 63, 100
1, 67773, Note_on_c, 0, 62, 100
1, 67917, Note_off_c, 0, 62, 100
1, 67917, Note_on_c, 0, 60, 100
1, 67965, Note_off_c, 0, 60, 100
1, 67965, Note_on_c, 0, 55, 100
1, 68157, Note_off_c, 0, 55, 100
1, 68157, Note_on_c, 0, 55, 100
1, 68301, Note_off_c, 0, 55, 100
1, 68301, Note_on_c, 0, 55, 100
1, 68589, Note_off_c, 0, 55, 100
1, 69117, Note_on_c, 0, 62, 100
1, 69261, Note_off_c, 0, 62, 100
1, 69261, Note_on_c, 0, 62, 100
1, 69501, Note_off_c, 0, 62, 100
1, 69501, Note_on_c, 0, 62, 100
1, 69949, Note_off_c, 0, 62, 100
1, 69949, Note_on_c, 0, 64, 100
1, 70141, Note_off_c, 0, 64, 100
1, 70141, Note_on_c, 0, 69, 100
1, 70269, Note_off_c, 0, 69, 100
1, 70269, Note_on_c, 0, 67, 100
1, 70365, Note_off_c, 0, 67, 100
1, 70365, Note_on_c, 0, 64, 100
1, 70557, Note_off_c, 0, 64, 100
1, 70557, Note_on_c, 0, 62, 100
1, 70701, Note_off_c, 0, 62, 100
1, 70701, Note_on_c, 0, 60, 100
1, 70797, Note_off_c, 0, 60, 100
1, 70797, Note_on_c, 0, 62, 100
1, 70941, Note_off_c, 0, 62, 100
1, 70941, Note_on_c, 0, 55, 100
1, 71037, Note_off_c, 0, 55, 100
1, 71037, Note_on_c, 0, 58, 100
1, 71133, Note_off_c, 0, 58, 100
1, 71133, Note_on_c, 0, 60, 100
1, 71325, Note_off_c, 0, 60, 100
1, 71325, Note_on_c, 0, 60, 100
1, 71709, Note_off_c, 0, 60, 100
1, 72141, Note_on_c, 0, 60, 100
1, 72445, Note_off_c, 0, 60, 100
1, 72445, Note_on_c, 0, 60, 100
1, 72573, Note_off_c, 0, 60, 100
1, 72573, Note_on_c, 0, 60, 100
1, 72861, Note_off_c, 0, 60, 100
1, 72861, Note_on_c, 0, 63, 100
1, 72957, Note_off_c, 0, 63, 100
1, 72957, Note_on_c, 0, 65, 100
1, 73245, Note_off_c, 0, 65, 100
1, 73245, Note_on_c, 0, 63, 100
1, 73405, Note_off_c, 0, 63, 100
1, 73405, Note_on_c, 0, 65, 100
1, 73533, Note_off_c, 0, 65, 100
1, 73533, Note_on_c, 0, 63, 100
1, 73725, Note_off_c, 0, 63, 100
1, 73917, Note_on_c, 0, 62, 100
1, 74013, Note_off_c, 0, 62, 100
1, 74013, Note_on_c, 0, 63, 100
1, 74061, Note_off_c, 0, 63, 100
1, 74061, Note_on_c, 0, 62, 100
1, 74205, Note_off_c, 0, 62, 100
1, 74205, Note_on_c, 0, 60, 100
1, 74301, Note_off_c, 0, 60, 100
1, 74301, Note_on_c, 0, 59, 100
1, 74397, Note_off_c, 0, 59, 100
1, 74397, Note_on_c, 0, 62, 100
1, 74541, Note_off_c, 0, 62, 100
1, 74541, Note_on_c, 0, 65, 100
1, 74637, Note_off_c, 0, 65, 100
1, 74637, Note_on_c, 0, 68, 100
1, 74733, Note_off_c, 0, 68, 100
1, 74733, Note_on_c, 0, 67, 100
1, 74829, Note_off_c, 0, 67, 100
1, 74829, Note_on_c, 0, 65, 100
1, 74925, Note_off_c, 0, 65, 100
1, 74925, Note_on_c, 0, 60, 100
1, 75021, Note_off_c, 0, 60, 100
1, 75021, Note_on_c, 0, 55, 100
1, 75213, Note_off_c, 0, 55, 100
1, 75213, Note_on_c, 0, 59, 100
1, 75261, Note_off_c, 0, 59, 100
1, 75261, Note_on_c, 0, 62, 100
1, 75389, Note_off_c, 0, 62, 100
1, 75389, Note_on_c, 0, 60, 100
1, 75453, Note_off_c, 0, 60, 100
1, 75453, Note_on_c, 0, 67, 100
1, 75549, Note_off_c, 0, 67, 100
1, 75549, Note_on_c, 0, 60, 100
1, 75645, Note_off_c, 0, 60, 100
1, 75645, Note_on_c, 0, 63, 100
1, 75741, Note_off_c, 0, 63, 100
1, 75741, Note_on_c, 0, 67, 100
1, 76029, Note_off_c, 0, 67, 100
1, 76029, Note_on_c, 0, 65, 100
1, 76125, Note_off_c, 0, 65, 100
1, 76125, Note_on_c, 0, 67, 100
1, 76221, Note_off_c, 0, 67, 100
1, 76221, Note_on_c, 0, 68, 100
1, 76317, Note_off_c, 0, 68, 100
1, 76317, Note_on_c, 0, 72, 100
1, 76413, Note_off_c, 0, 72, 100
1, 76643, Note_on_c, 0, 66, 100
1, 76719, Note_off_c, 0, 66, 100
1, 76719, Note_on_c, 0, 67, 100
1, 76757, Note_off_c, 0, 67, 100
1, 76757, Note_on_c, 0, 69, 100
1, 76795, Note_off_c, 0, 69, 100
1, 76795, Note_on_c, 0, 71, 100
1, 76843, Note_off_c, 0, 71, 100
1, 76843, Note_on_c, 0, 74, 100
1, 76987, Note_off_c, 0, 74, 100
1, 76987, Note_on_c, 0, 71, 100
1, 77179, Note_off_c, 0, 71, 100
1, 77179, Note_on_c, 0, 72, 100
1, 77323, Note_off_c, 0, 72, 100
1, 77323, Note_on_c, 0, 67, 100
1, 77435, Note_off_c, 0, 67, 100
1, 77435, Note_on_c, 0, 66, 100
1, 77499, Note_off_c, 0, 66, 100
1, 77499, Note_on_c, 0, 65, 100
1, 77595, Note_off_c, 0, 65, 100
1, 78331, Note_on_c, 0, 60, 100
1, 78427, Note_off_c, 0, 60, 100
1, 78427, Note_on_c, 0, 61, 100
1, 78523, Note_off_c, 0, 61, 100
1, 78523, Note_on_c, 0, 64, 100
1, 78619, Note_off_c, 0, 64, 100
1, 78619, Note_on_c, 0, 68, 100
1, 78715, Note_off_c, 0, 68, 100
1, 78715, Note_on_c, 0, 70, 100
1, 78907, Note_off_c, 0, 70, 100
1, 78907, Note_on_c, 0, 75, 100
1, 79035, Note_off_c, 0, 75, 100
1, 79035, Note_on_c, 0, 73, 100
1, 79147, Note_off_c, 0, 73, 100
1, 79147, Note_on_c, 0, 72, 100
1, 79627, Note_off_c, 0, 72, 100
1, 79627, Note_on_c, 0, 70, 100
1, 79771, Note_off_c, 0, 70, 100
1, 79771, Note_on_c, 0, 67, 100
1, 79867, Note_off_c, 0, 67, 100
1, 79867, Note_on_c, 0, 68, 100
1, 79963, Note_off_c, 0, 68, 100
1, 79963, Note_on_c, 0, 60, 100
1, 80059, Note_off_c, 0, 60, 100
1, 80059, Note_on_c, 0, 62, 100
1, 80155, Note_off_c, 0, 62, 100
1, 80155, Note_on_c, 0, 64, 100
1, 80251, Note_off_c, 0, 64, 100
1, 80251, Note_on_c, 0, 67, 100
1, 80347, Note_off_c, 0, 67, 100
1, 80347, Note_on_c, 0, 65, 100
1, 80443, Note_off_c, 0, 65, 100
1, 80443, Note_on_c, 0, 64, 100
1, 80539, Note_off_c, 0, 64, 100
1, 80539, Note_on_c, 0, 65, 100
1, 80635, Note_off_c, 0, 65, 100
1, 80635, Note_on_c, 0, 68, 100
1, 80763, Note_off_c, 0, 68, 100
1, 80763, Note_on_c, 0, 72, 100
1, 80827, Note_off_c, 0, 72, 100
1, 80827, Note_on_c, 0, 71, 100
1, 80875, Note_off_c, 0, 71, 100
1, 80875, Note_on_c, 0, 70, 100
1, 80971, Note_off_c, 0, 70, 100
1, 81355, Note_on_c, 0, 62, 100
1, 81499, Note_off_c, 0, 62, 100
1, 81499, Note_on_c, 0, 65, 100
1, 81595, Note_off_c, 0, 65, 100
1, 81595, Note_on_c, 0, 69, 100
1, 81691, Note_off_c, 0, 69, 100
1, 81691, Note_on_c, 0, 72, 100
1, 81787, Note_off_c, 0, 72, 100
1, 81787, Note_on_c, 0, 72, 100
1, 81979, Note_off_c, 0, 72, 100
1, 81979, Note_on_c, 0, 76, 100
1, 82171, Note_off_c, 0, 76, 100
1, 82171, Note_on_c, 0, 79, 100
1, 82427, Note_off_c, 0, 79, 100
1, 82427, Note_on_c, 0, 76, 100
1, 82811, Note_off_c, 0, 76, 100
1, 83003, Note_on_c, 0, 75, 100
1, 83067, Note_off_c, 0, 75, 100
1, 83067, Note_on_c, 0, 77, 100
1, 83659, Note_off_c, 0, 77, 100
1, 83659, Note_on_c, 0, 74, 100
1, 83803, Note_off_c, 0, 74, 100
1, 83803, Note_on_c, 0, 74, 100
1, 83995, Note_off_c, 0, 74, 100
1, 83995, Note_on_c, 0, 70, 100
1, 84155, Note_off_c, 0, 70, 100
1, 84155, Note_on_c, 0, 70, 100
1, 84283, Note_off_c, 0, 70, 100
1, 84283, Note_on_c, 0, 68, 100
1, 84427, Note_off_c, 0, 68, 100
1, 84427, Note_on_c, 0, 67, 100
1, 84539, Note_off_c, 0, 67, 100
1, 84539, Note_on_c, 0, 66, 100
1, 84603, Note_off_c, 0, 66, 100
1, 84603, Note_on_c, 0, 65, 100
1, 84699, Note_off_c, 0, 65, 100
1, 85147, Note_on_c, 0, 68, 100
1, 85307, Note_off_c, 0, 68, 100
1, 85307, Note_on_c, 0, 67, 100
1, 85531, Note_off_c, 0, 67, 100
1, 85531, Note_on_c, 0, 68, 100
1, 85627, Note_off_c, 0, 68, 100
1, 85627, Note_on_c, 0, 67, 100
1, 85867, Note_off_c, 0, 67, 100
1, 85867, Note_on_c, 0, 68, 100
1, 85963, Note_off_c, 0, 68, 100
1, 85963, Note_on_c, 0, 67, 100
1, 86299, Note_off_c, 0, 67, 100
1, 86299, Note_on_c, 0, 63, 100
1, 86395, Note_off_c, 0, 63, 100
1, 86395, Note_on_c, 0, 62, 100
1, 86651, Note_off_c, 0, 62, 100
1, 86651, Note_on_c, 0, 56, 100
1, 86779, Note_off_c, 0, 56, 100
1, 86779, Note_on_c, 0, 55, 100
1, 87163, Note_off_c, 0, 55, 100
1, 87163, Note_on_c, 0, 62, 100
1, 87259, Note_off_c, 0, 62, 100
1, 87259, Note_on_c, 0, 63, 100
1, 87403, Note_off_c, 0, 63, 100
1, 87403, Note_on_c, 0, 62, 100
1, 87499, Note_off_c, 0, 62, 100
1, 87499, Note_on_c, 0, 60, 100
1, 87547, Note_off_c, 0, 60, 100
1, 87547, Note_on_c, 0, 55, 100
1, 87739, Note_off_c, 0, 55, 100
1, 87739, Note_on_c, 0, 55, 100
1, 88241, Note_off_c, 0, 55, 100
1, 88241, End_track
0, 0, End_of_file
