0, 0, Header, 1, 1, 192
1, 0, Start_track
1, 0, Title_t, "Melody"
1, 0, Tempo, 294117
1, 0, Key_signature, -5, "major"
1, 0, Time_signature, 4, 2, 24, 8
1, 192, Note_on_c, 0, 70, 100
1, 384, Note_off_c, 0, 70, 100
1, 384, Note_on_c, 0, 67, 100
1, 480, Note_off_c, 0, 67, 100
1, 480, Note_on_c, 0, 63, 100
1, 576, Note_off_c, 0, 63, 100
1, 576, Note_on_c, 0, 60, 100
1, 672, Note_off_c, 0, 60, 100
1, 672, Note_on_c, 0, 58, 100
1, 768, Note_off_c, 0, 58, 100
1, 768, Note_on_c, 0, 64, 100
1, 864, Note_off_c, 0, 64, 100
1, 864, Note_on_c, 0, 65, 100
1, 960, Note_off_c, 0, 65, 100
1, 960, Note_on_c, 0, 61, 100
1, 1088, Note_off_c, 0, 61, 100
1, 1088, Note_on_c, 0, 58, 100
1, 1248, Note_off_c, 0, 58, 100
1, 1248, Note_on_c, 0, 58, 100
1, 1392, Note_off_c, 0, 58, 100
1, 1392, Note_on_c, 0, 61, 100
1, 1488, Note_off_c, 0, 61, 100
1, 1488, Note_on_c, 0, 65, 100
1, 1536, Note_off_c, 0, 65, 100
1, 1536, Note_on_c, 0, 63, 100
1, 1728, Note_off_c, 0, 63, 100
1, 1728, Note_on_c, 0, 63, 100
1, 1920, Note_off_c, 0, 63, 100
1, 2400, Note_on_c, 0, 61, 100
1, 2496, Note_off_c, 0, 61, 100
1, 2496, Note_on_c, 0, 63, 100
1, 2592, Note_off_c, 0, 63, 100
1, 2592, Note_on_c, 0, 68, 100
1, 2752, Note_off_c, 0, 68, 100
1, 2752, Note_on_c, 0, 63, 100
1, 2928, Note_off_c, 0, 63, 100
1, 2928, Note_on_c, 0, 68, 100
1, 3024, Note_off_c, 0, 68, 100
1, 3024, Note_on_c, 0, 65, 100
1, 3408, Note_off_c, 0, 65, 100
1, 3984, Note_on_c, 0, 61, 100
1, 4032, Note_off_c, 0, 61, 100
1, 4032, Note_on_c, 0, 63, 100
1, 4128, Note_off_c, 0, 63, 100
1, 4128, Note_on_c, 0, 68, 100
1, 4272, Note_off_c, 0, 68, 100
1, 4272, Note_on_c, 0, 66, 100
1, 4368, Note_off_c, 0, 66, 100
1, 4368, Note_on_c, 0, 68, 100
1, 4464, Note_off_c, 0, 68, 100
1, 4464, Note_on_c, 0, 66, 100
1, 4560, Note_off_c, 0, 66, 100
1, 4560, Note_on_c, 0, 68, 100
1, 4656, Note_off_c, 0, 68, 100
1, 4656, Note_on_c, 0, 65, 100
1, 4864, Note_off_c, 0, 65, 100
1, 4864, Note_on_c, 0, 72, 100
1, 5040, Note_off_c, 0, 72, 100
1, 5040, Note_on_c, 0, 67, 100
1, 5136, Note_off_c, 0, 67, 100
1, 5136, Note_on_c, 0, 65, 100
1, 5184, Note_off_c, 0, 65, 100
1, 5184, Note_on_c, 0, 61, 100
1, 5280, Note_off_c, 0, 61, 100
1, 5280, Note_on_c, 0, 58, 100
1, 5376, Note_off_c, 0, 58, 100
1, 5376, Note_on_c, 0, 63, 100
1, 5568, Note_off_c, 0, 63, 100
1, 5568, Note_on_c, 0, 68, 100
1, 5760, Note_off_c, 0, 68, 100
1, 5760, Note_on_c, 0, 66, 100
1, 5856, Note_off_c, 0, 66, 100
1, 5856, Note_on_c, 0, 61, 100
1, 6048, Note_off_c, 0, 61, 100
1, 6048, Note_on_c, 0, 58, 100
1, 6192, Note_off_c, 0, 58, 100
1, 6192, Note_on_c, 0, 63, 100
1, 6288, Note_off_c, 0, 63, 100
1, 6288, Note_on_c, 0, 66, 100
1, 6384, Note_off_c, 0, 66, 100
1, 6384, Note_on_c, 0, 65, 100
1, 6480, Note_off_c, 0, 65, 100
1, 6480, Note_on_c, 0, 68, 100
1, 6576, Note_off_c, 0, 68, 100
1, 6576, Note_on_c, 0, 66, 100
1, 6672, Note_off_c, 0, 66, 100
1, 6672, Note_on_c, 0, 63, 100
1, 6768, Note_off_c, 0, 63, 100
1, 6768, Note_on_c, 0, 61, 100
1, 6864, Note_off_c, 0, 61, 100
1, 6864, Note_on_c, 0, 58, 100
1, 6912, Note_off_c, 0, 58, 100
1, 6912, Note_on_c, 0, 61, 100
1, 7008, Note_off_c, 0, 61, 100
1, 7008, Note_on_c, 0, 65, 100
1, 7152, Note_off_c, 0, 65, 100
1, 7152, Note_on_c, 0, 63, 100
1, 7248, Note_off_c, 0, 63, 100
1, 7248, Note_on_c, 0, 65, 100
1, 7344, Note_off_c, 0, 65, 100
1, 7344, Note_on_c, 0, 66, 100
1, 7440, Note_off_c, 0, 66, 100
1, 7440, Note_on_c, 0, 65, 100
1, 7488, Note_off_c, 0, 65, 100
1, 7488, Note_on_c, 0, 63, 100
1, 7584, Note_off_c, 0, 63, 100
1, 8112, Note_on_c, 0, 61, 100
1, 8208, Note_off_c, 0, 61, 100
1, 8208, Note_on_c, 0, 63, 100
1, 8256, Note_off_c, 0, 63, 100
1, 8256, Note_on_c, 0, 65, 100
1, 8448, Note_off_c, 0, 65, 100
1, 8448, Note_on_c, 0, 70, 100
1, 8544, Note_off_c, 0, 70, 100
1, 8544, Note_on_c, 0, 72, 100
1, 8736, Note_off_c, 0, 72, 100
1, 8976, Note_on_c, 0, 65, 100
1, 9072, Note_off_c, 0, 65, 100
1, 9072, Note_on_c, 0, 70, 100
1, 9168, Note_off_c, 0, 70, 100
1, 9168, Note_on_c, 0, 66, 100
1, 9280, Note_off_c, 0, 66, 100
1, 9280, Note_on_c, 0, 65, 100
1, 9408, Note_off_c, 0, 65, 100
1, 9408, Note_on_c, 0, 65, 100
1, 9504, Note_off_c, 0, 65, 100
1, 10032, Note_on_c, 0, 65, 100
1, 10080, Note_off_c, 0, 65, 100
1, 10080, Note_on_c, 0, 66, 100
1, 10128, Note_off_c, 0, 66, 100
1, 10128, Note_on_c, 0, 65, 100
1, 10224, Note_off_c, 0, 65, 100
1, 10224, Note_on_c, 0, 64, 100
1, 10320, Note_off_c, 0, 64, 100
1, 10320, Note_on_c, 0, 66, 100
1, 10416, Note_off_c, 0, 66, 100
1, 10416, Note_on_c, 0, 68, 100
1, 10512, Note_off_c, 0, 68, 100
1, 10512, Note_on_c, 0, 66, 100
1, 10608, Note_off_c, 0, 66, 100
1, 10608, Note_on_c, 0, 65, 100
1, 10704, Note_off_c, 0, 65, 100
1, 10704, Note_on_c, 0, 63, 100
1, 10752, Note_off_c, 0, 63, 100
1, 10752, Note_on_c, 0, 65, 100
1, 11088, Note_off_c, 0, 65, 100
1, 11088, Note_on_c, 0, 63, 100
1, 11184, Note_off_c, 0, 63, 100
1, 11184, Note_on_c, 0, 61, 100
1, 11280, Note_off_c, 0, 61, 100
1, 11280, Note_on_c, 0, 58, 100
1, 11376, Note_off_c, 0, 58, 100
1, 11376, Note_on_c, 0, 55, 100
1, 11584, Note_off_c, 0, 55, 100
1, 11584, Note_on_c, 0, 60, 100
1, 11648, Note_off_c, 0, 60, 100
1, 11648, Note_on_c, 0, 61, 100
1, 11712, Note_off_c, 0, 61, 100
1, 11712, Note_on_c, 0, 62, 100
1, 11760, Note_off_c, 0, 62, 100
1, 11760, Note_on_c, 0, 63, 100
1, 11808, Note_off_c, 0, 63, 100
1, 11808, Note_on_c, 0, 62, 100
1, 11856, Note_off_c, 0, 62, 100
1, 11856, Note_on_c, 0, 61, 100
1, 11952, Note_off_c, 0, 61, 100
1, 11952, Note_on_c, 0, 60, 100
1, 12048, Note_off_c, 0, 60, 100
1, 12048, Note_on_c, 0, 58, 100
1, 12144, Note_off_c, 0, 58, 100
1, 12144, Note_on_c, 0, 57, 100
1, 12240, Note_off_c, 0, 57, 100
1, 12240, Note_on_c, 0, 60, 100
1, 12288, Note_off_c, 0, 60, 100
1, 12288, Note_on_c, 0, 63, 100
1, 12384, Note_off_c, 0, 63, 100
1, 12384, Note_on_c, 0, 66, 100
1, 12480, Note_off_c, 0, 66, 100
1, 12480, Note_on_c, 0, 63, 100
1, 12576, Note_off_c, 0, 63, 100
1, 12576, Note_on_c, 0, 64, 100
1, 12672, Note_off_c, 0, 64, 100
1, 12672, Note_on_c, 0, 65, 100
1, 12768, Note_off_c, 0, 65, 100
1, 12768, Note_on_c, 0, 64, 100
1, 12928, Note_off_c, 0, 64, 100
1, 12928, Note_on_c, 0, 57, 100
1, 12991, Note_off_c, 0, 57, 100
1, 12991, Note_on_c, 0, 58, 100
1, 13055, Note_off_c, 0, 58, 100
1, 13055, Note_on_c, 0, 60, 100
1, 13199, Note_off_c, 0, 60, 100
1, 13199, Note_on_c, 0, 58, 100
1, 13487, Note_off_c, 0, 58, 100
1, 14015, Note_on_c, 0, 60, 100
1, 14111, Note_off_c, 0, 60, 100
1, 14111, Note_on_c, 0, 58, 100
1, 14207, Note_off_c, 0, 58, 100
1, 14207, Note_on_c, 0, 56, 100
1, 14303, Note_off_c, 0, 56, 100
1, 14303, Note_on_c, 0, 58, 100
1, 14399, Note_off_c, 0, 58, 100
1, 14399, Note_on_c, 0, 60, 100
1, 14495, Note_off_c, 0, 60, 100
1, 14495, Note_on_c, 0, 63, 100
1, 14591, Note_off_c, 0, 63, 100
1, 14591, Note_on_c, 0, 67, 100
1, 14687, Note_off_c, 0, 67, 100
1, 14687, Note_on_c, 0, 68, 100
1, 14783, Note_off_c, 0, 68, 100
1, 14783, Note_on_c, 0, 67, 100
1, 14879, Note_off_c, 0, 67, 100
1, 14879, Note_on_c, 0, 65, 100
1, 14975, Note_off_c, 0, 65, 100
1, 14975, Note_on_c, 0, 63, 100
1, 15071, Note_off_c, 0, 63, 100
1, 15071, Note_on_c, 0, 60, 100
1, 15215, Note_off_c, 0, 60, 100
1, 15215, Note_on_c, 0, 56, 100
1, 15311, Note_off_c, 0, 56, 100
1, 15311, Note_on_c, 0, 54, 100
1, 15359, Note_off_c, 0, 54, 100
1, 15359, Note_on_c, 0, 64, 100
1, 15487, Note_off_c, 0, 64, 100
1, 15487, Note_on_c, 0, 66, 100
1, 15599, Note_off_c, 0, 66, 100
1, 15599, Note_on_c, 0, 64, 100
1, 15695, Note_off_c, 0, 64, 100
1, 15695, Note_on_c, 0, 62, 100
1, 15791, Note_off_c, 0, 62, 100
1, 15791, Note_on_c, 0, 61, 100
1, 15887, Note_off_c, 0, 61, 100
1, 15887, Note_on_c, 0, 59, 100
1, 15935, Note_off_c, 0, 59, 100
1, 15935, Note_on_c, 0, 55, 100
1, 16127, Note_off_c, 0, 55, 100
1, 16127, Note_on_c, 0, 63, 100
1, 16223, Note_off_c, 0, 63, 100
1, 16223, Note_on_c, 0, 65, 100
1, 16319, Note_off_c, 0, 65, 100
1, 16319, Note_on_c, 0, 63, 100
1, 16415, Note_off_c, 0, 63, 100
1, 16415, Note_on_c, 0, 61, 100
1, 16559, Note_off_c, 0, 61, 100
1, 16559, Note_on_c, 0, 60, 100
1, 16655, Note_off_c, 0, 60, 100
1, 16655, Note_on_c, 0, 58, 100
1, 16751, Note_off_c, 0, 58, 100
1, 16751, Note_on_c, 0, 56, 100
1, 16847, Note_off_c, 0, 56, 100
1, 16847, Note_on_c, 0, 54, 100
1, 16959, Note_off_c, 0, 54, 100
1, 16959, Note_on_c, 0, 53, 100
1, 17135, Note_off_c, 0, 53, 100
1, 17135, Note_on_c, 0, 56, 100
1, 17231, Note_off_c, 0, 56, 100
1, 17231, Note_on_c, 0, 60, 100
1, 17327, Note_off_c, 0, 60, 100
1, 17327, Note_on_c, 0, 63, 100
1, 17471, Note_off_c, 0, 63, 100
1, 17471, Note_on_c, 0, 63, 100
1, 17615, Note_off_c, 0, 63, 100
1, 17615, Note_on_c, 0, 60, 100
1, 17663, Note_off_c, 0, 60, 100
1, 17663, Note_on_c, 0, 62, 100
1, 17807, Note_off_c, 0, 62, 100
1, 17807, Note_on_c, 0, 70, 100
1, 17903, Note_off_c, 0, 70, 100
1, 18623, Note_on_c, 0, 63, 100
1, 18719, Note_off_c, 0, 63, 100
1, 18719, Note_on_c, 0, 64, 100
1, 18767, Note_off_c, 0, 64, 100
1, 18767, Note_on_c, 0, 65, 100
1, 18815, Note_off_c, 0, 65, 100
1, 18815, Note_on_c, 0, 66, 100
1, 18879, Note_off_c, 0, 66, 100
1, 18879, Note_on_c, 0, 65, 100
1, 18943, Note_off_c, 0, 65, 100
1, 18943, Note_on_c, 0, 64, 100
1, 19007, Note_off_c, 0, 64, 100
1, 19007, Note_on_c, 0, 63, 100
1, 19103, Note_off_c, 0, 63, 100
1, 19103, Note_on_c, 0, 61, 100
1, 19247, Note_off_c, 0, 61, 100
1, 19247, Note_on_c, 0, 60, 100
1, 19343, Note_off_c, 0, 60, 100
1, 19343, Note_on_c, 0, 58, 100
1, 19391, Note_off_c, 0, 58, 100
1, 19391, Note_on_c, 0, 57, 100
1, 19487, Note_off_c, 0, 57, 100
1, 19487, Note_on_c, 0, 60, 100
1, 19583, Note_off_c, 0, 60, 100
1, 19583, Note_on_c, 0, 63, 100
1, 19679, Note_off_c, 0, 63, 100
1, 19679, Note_on_c, 0, 66, 100
1, 19775, Note_off_c, 0, 66, 100
1, 19775, Note_on_c, 0, 63, 100
1, 19871, Note_off_c, 0, 63, 100
1, 19871, Note_on_c, 0, 64, 100
1, 19967, Note_off_c, 0, 64, 100
1, 19967, Note_on_c, 0, 65, 100
1, 20207, Note_off_c, 0, 65, 100
1, 20207, Note_on_c, 0, 71, 100
1, 20255, Note_off_c, 0, 71, 100
1, 20255, Note_on_c, 0, 72, 100
1, 20399, Note_off_c, 0, 72, 100
1, 20399, Note_on_c, 0, 70, 100
1, 20495, Note_off_c, 0, 70, 100
1, 20495, Note_on_c, 0, 67, 100
1, 20543, Note_off_c, 0, 67, 100
1, 20543, Note_on_c, 0, 65, 100
1, 20639, Note_off_c, 0, 65, 100
1, 20639, Note_on_c, 0, 63, 100
1, 20799, Note_off_c, 0, 63, 100
1, 20799, Note_on_c, 0, 61, 100
1, 20927, Note_off_c, 0, 61, 100
1, 20927, Note_on_c, 0, 62, 100
1, 20991, Note_off_c, 0, 62, 100
1, 20991, Note_on_c, 0, 61, 100
1, 21167, Note_off_c, 0, 61, 100
1, 21167, Note_on_c, 0, 60, 100
1, 21263, Note_off_c, 0, 60, 100
1, 21263, Note_on_c, 0, 61, 100
1, 21359, Note_off_c, 0, 61, 100
1, 21359, Note_on_c, 0, 60, 100
1, 21455, Note_off_c, 0, 60, 100
1, 21455, Note_on_c, 0, 58, 100
1, 21567, Note_off_c, 0, 58, 100
1, 21567, Note_on_c, 0, 57, 100
1, 21695, Note_off_c, 0, 57, 100
1, 21695, Note_on_c, 0, 53, 100
1, 22079, Note_off_c, 0, 53, 100
1, 22319, Note_on_c, 0, 50, 100
1, 22415, Note_off_c, 0, 50, 100
1, 22415, Note_on_c, 0, 51, 100
1, 22527, Note_off_c, 0, 51, 100
1, 22527, Note_on_c, 0, 54, 100
1, 22591, Note_off_c, 0, 54, 100
1, 22591, Note_on_c, 0, 57, 100
1, 22655, Note_off_c, 0, 57, 100
1, 22655, Note_on_c, 0, 61, 100
1, 22847, Note_off_c, 0, 61, 100
1, 22847, Note_on_c, 0, 57, 100
1, 22991, Note_off_c, 0, 57, 100
1, 22991, Note_on_c, 0, 60, 100
1, 23567, Note_off_c, 0, 60, 100
1, 23903, Note_on_c, 0, 57, 100
1, 23999, Note_off_c, 0, 57, 100
1, 23999, Note_on_c, 0, 58, 100
1, 24063, Note_off_c, 0, 58, 100
1, 24063, Note_on_c, 0, 61, 100
1, 24127, Note_off_c, 0, 61, 100
1, 24127, Note_on_c, 0, 65, 100
1, 24255, Note_off_c, 0, 65, 100
1, 24255, Note_on_c, 0, 71, 100
1, 24319, Note_off_c, 0, 71, 100
1, 24319, Note_on_c, 0, 72, 100
1, 24431, Note_off_c, 0, 72, 100
1, 24431, Note_on_c, 0, 70, 100
1, 24527, Note_off_c, 0, 70, 100
1, 24527, Note_on_c, 0, 63, 100
1, 24959, Note_off_c, 0, 63, 100
1, 24959, Note_on_c, 0, 64, 100
1, 25055, Note_off_c, 0, 64, 100
1, 25055, Note_on_c, 0, 65, 100
1, 25295, Note_off_c, 0, 65, 100
1, 25295, Note_on_c, 0, 61, 100
1, 25407, Note_off_c, 0, 61, 100
1, 25407, Note_on_c, 0, 60, 100
1, 25535, Note_off_c, 0, 60, 100
1, 25535, Note_on_c, 0, 58, 100
1, 25823, Note_off_c, 0, 58, 100
1, 26255, Note_on_c, 0, 58, 100
1, 26351, Note_off_c, 0, 58, 100
1, 26351, Note_on_c, 0, 61, 100
1, 26447, Note_off_c, 0, 61, 100
1, 26447, Note_on_c, 0, 65, 100
1, 26543, Note_off_c, 0, 65, 100
1, 26543, Note_on_c, 0, 70, 100
1, 26639, Note_off_c, 0, 70, 100
1, 26639, Note_on_c, 0, 67, 100
1, 27023, Note_off_c, 0, 67, 100
1, 27023, Note_on_c, 0, 58, 100
1, 27119, Note_off_c, 0, 58, 100
1, 27119, Note_on_c, 0, 61, 100
1, 27215, Note_off_c, 0, 61, 100
1, 27215, Note_on_c, 0, 63, 100
1, 27327, Note_off_c, 0, 63, 100
1, 27327, Note_on_c, 0, 73, 100
1, 27455, Note_off_c, 0, 73, 100
1, 27455, Note_on_c, 0, 68, 100
1, 27647, Note_off_c, 0, 68, 100
1, 28031, Note_on_c, 0, 61, 100
1, 28127, Note_off_c, 0, 61, 100
1, 28127, Note_on_c, 0, 72, 100
1, 28223, Note_off_c, 0, 72, 100
1, 28223, Note_on_c, 0, 67, 100
1, 28559, Note_off_c, 0, 67, 100
1, 28559, Note_on_c, 0, 62, 100
1, 28655, Note_off_c, 0, 62, 100
1, 28655, Note_on_c, 0, 63, 100
1, 28751, Note_off_c, 0, 63, 100
1, 28751, Note_on_c, 0, 73, 100
1, 28895, Note_off_c, 0, 73, 100
1, 28895, Note_on_c, 0, 68, 100
1, 28991, Note_off_c, 0, 68, 100
1, 28991, Note_on_c, 0, 66, 100
1, 29183, Note_off_c, 0, 66, 100
1, 29519, Note_on_c, 0, 60, 100
1, 29615, Note_off_c, 0, 60, 100
1, 29615, Note_on_c, 0, 61, 100
1, 29711, Note_off_c, 0, 61, 100
1, 29711, Note_on_c, 0, 72, 100
1, 29855, Note_off_c, 0, 72, 100
1, 29855, Note_on_c, 0, 67, 100
1, 30095, Note_off_c, 0, 67, 100
1, 30095, Note_on_c, 0, 62, 100
1, 30239, Note_off_c, 0, 62, 100
1, 30239, Note_on_c, 0, 63, 100
1, 30335, Note_off_c, 0, 63, 100
1, 30335, Note_on_c, 0, 73, 100
1, 30431, Note_off_c, 0, 73, 100
1, 30431, Note_on_c, 0, 68, 100
1, 30527, Note_off_c, 0, 68, 100
1, 30527, Note_on_c, 0, 66, 100
1, 30623, Note_off_c, 0, 66, 100
1, 30623, Note_on_c, 0, 62, 100
1, 30911, Note_off_c, 0, 62, 100
1, 30911, Note_on_c, 0, 69, 100
1, 31007, Note_off_c, 0, 69, 100
1, 31007, Note_on_c, 0, 70, 100
1, 31055, Note_off_c, 0, 70, 100
1, 31055, Note_on_c, 0, 69, 100
1, 31103, Note_off_c, 0, 69, 100
1, 31103, Note_on_c, 0, 66, 100
1, 31199, Note_off_c, 0, 66, 100
1, 31199, Note_on_c, 0, 65, 100
1, 31343, Note_off_c, 0, 65, 100
1, 31343, Note_on_c, 0, 63, 100
1, 31439, Note_off_c, 0, 63, 100
1, 31439, Note_on_c, 0, 61, 100
1, 31487, Note_off_c, 0, 61, 100
1, 31487, Note_on_c, 0, 65, 100
1, 31775, Note_off_c, 0, 65, 100
1, 31775, Note_on_c, 0, 63, 100
1, 31919, Note_off_c, 0, 63, 100
1, 31919, Note_on_c, 0, 61, 100
1, 32015, Note_off_c, 0, 61, 100
1, 32015, Note_on_c, 0, 60, 100
1, 32159, Note_off_c, 0, 60, 100
1, 32159, Note_on_c, 0, 58, 100
1, 32255, Note_off_c, 0, 58, 100
1, 32255, Note_on_c, 0, 56, 100
1, 32351, Note_off_c, 0, 56, 100
1, 32351, Note_on_c, 0, 57, 100
1, 32447, Note_off_c, 0, 57, 100
1, 32447, Note_on_c, 0, 53, 100
1, 32735, Note_off_c, 0, 53, 100
1, 33119, Note_on_c, 0, 53, 100
1, 33215, Note_off_c, 0, 53, 100
1, 33215, Note_on_c, 0, 54, 100
1, 33407, Note_off_c, 0, 54, 100
1, 33407, Note_on_c, 0, 65, 100
1, 33647, Note_off_c, 0, 65, 100
1, 33647, Note_on_c, 0, 63, 100
1, 33743, Note_off_c, 0, 63, 100
1, 33743, Note_on_c, 0, 60, 100
1, 33839, Note_off_c, 0, 60, 100
1, 33839, Note_on_c, 0, 61, 100
1, 33935, Note_off_c, 0, 61, 100
1, 33935, Note_on_c, 0, 63, 100
1, 34031, Note_off_c, 0, 63, 100
1, 34031, Note_on_c, 0, 65, 100
1, 34127, Note_off_c, 0, 65, 100
1, 34127, Note_on_c, 0, 67, 100
1, 34175, Note_off_c, 0, 67, 100
1, 34175, Note_on_c, 0, 72, 100
1, 34367, Note_off_c, 0, 72, 100
1, 34367, Note_on_c, 0, 70, 100
1, 34463, Note_off_c, 0, 70, 100
1, 34463, Note_on_c, 0, 67, 100
1, 34559, Note_off_c, 0, 67, 100
1, 34559, Note_on_c, 0, 65, 100
1, 34655, Note_off_c, 0, 65, 100
1, 34655, Note_on_c, 0, 68, 100
1, 34751, Note_off_c, 0, 68, 100
1, 34751, Note_on_c, 0, 67, 100
1, 34847, Note_off_c, 0, 67, 100
1, 34847, Note_on_c, 0, 66, 100
1, 34943, Note_off_c, 0, 66, 100
1, 34943, Note_on_c, 0, 70, 100
1, 35019, Note_off_c, 0, 70, 100
1, 35019, Note_on_c, 0, 63, 100
1, 35057, Note_off_c, 0, 63, 100
1, 35057, Note_on_c, 0, 64, 100
1, 35095, Note_off_c, 0, 64, 100
1, 35095, Note_on_c, 0, 65, 100
1, 35229, Note_off_c, 0, 65, 100
1, 35229, Note_on_c, 0, 63, 100
1, 35325, Note_off_c, 0, 63, 100
1, 35325, Note_on_c, 0, 61, 100
1, 35613, Note_off_c, 0, 61, 100
1, 36189, Note_on_c, 0, 60, 100
1, 36237, Note_off_c, 0, 60, 100
1, 36237, Note_on_c, 0, 61, 100
1, 36333, Note_off_c, 0, 61, 100
1, 36333, Note_on_c, 0, 63, 100
1, 36381, Note_off_c, 0, 63, 100
1, 36381, Note_on_c, 0, 66, 100
1, 36429, Note_off_c, 0, 66, 100
1, 36429, Note_on_c, 0, 69, 100
1, 36477, Note_off_c, 0, 69, 100
1, 36477, Note_on_c, 0, 70, 100
1, 36573, Note_off_c, 0, 70, 100
1, 36573, Note_on_c, 0, 64, 100
1, 36621, Note_off_c, 0, 64, 100
1, 36621, Note_on_c, 0, 65, 100
1, 36813, Note_off_c, 0, 65, 100
1, 36813, Note_on_c, 0, 63, 100
1, 36861, Note_off_c, 0, 63, 100
1, 36861, Note_on_c, 0, 61, 100
1, 37101, Note_off_c, 0, 61, 100
1, 37101, Note_on_c, 0, 63, 100
1, 37149, Note_off_c, 0, 63, 100
1, 37149, Note_on_c, 0, 65, 100
1, 37197, Note_off_c, 0, 65, 100
1, 37197, Note_on_c, 0, 67, 100
1, 37245, Note_off_c, 0, 67, 100
1, 37245, Note_on_c, 0, 72, 100
1, 37293, Note_off_c, 0, 72, 100
1, 37293, Note_on_c, 0, 70, 100
1, 37437, Note_off_c, 0, 70, 100
1, 37437, Note_on_c, 0, 72, 100
1, 37533, Note_off_c, 0, 72, 100
1, 37533, Note_on_c, 0, 65, 100
1, 37725, Note_off_c, 0, 65, 100
1, 38253, Note_on_c, 0, 65, 100
1, 38349, Note_off_c, 0, 65, 100
1, 38349, Note_on_c, 0, 67, 100
1, 38397, Note_off_c, 0, 67, 100
1, 38397, Note_on_c, 0, 68, 100
1, 38493, Note_off_c, 0, 68, 100
1, 38493, Note_on_c, 0, 69, 100
1, 38541, Note_off_c, 0, 69, 100
1, 38541, Note_on_c, 0, 68, 100
1, 38589, Note_off_c, 0, 68, 100
1, 38589, Note_on_c, 0, 67, 100
1, 38685, Note_off_c, 0, 67, 100
1, 38685, Note_on_c, 0, 65, 100
1, 38829, Note_off_c, 0, 65, 100
1, 38829, Note_on_c, 0, 70, 100
1, 38925, Note_off_c, 0, 70, 100
1, 39197, Note_on_c, 0, 68, 100
1, 39293, Note_off_c, 0, 68, 100
1, 39293, Note_on_c, 0, 69, 100
1, 39325, Note_off_c, 0, 69, 100
1, 39325, Note_on_c, 0, 68, 100
1, 39357, Note_off_c, 0, 68, 100
1, 39357, Note_on_c, 0, 67, 100
1, 39501, Note_off_c, 0, 67, 100
1, 39501, Note_on_c, 0, 65, 100
1, 39597, Note_off_c, 0, 65, 100
1, 39597, Note_on_c, 0, 70, 100
1, 39693, Note_off_c, 0, 70, 100
1, 39693, Note_on_c, 0, 63, 100
1, 39741, Note_off_c, 0, 63, 100
1, 39741, Note_on_c, 0, 64, 100
1, 39789, Note_off_c, 0, 64, 100
1, 39789, Note_on_c, 0, 65, 100
1, 39997, Note_off_c, 0, 65, 100
1, 39997, Note_on_c, 0, 64, 100
1, 40173, Note_off_c, 0, 64, 100
1, 40173, Note_on_c, 0, 64, 100
1, 40269, Note_off_c, 0, 64, 100
1, 40269, Note_on_c, 0, 66, 100
1, 40413, Note_off_c, 0, 66, 100
1, 40413, Note_on_c, 0, 66, 100
1, 40797, Note_off_c, 0, 66, 100
1, 40797, Note_on_c, 0, 63, 100
1, 40957, Note_off_c, 0, 63, 100
1, 40957, Note_on_c, 0, 63, 100
1, 41085, Note_off_c, 0, 63, 100
1, 41085, Note_on_c, 0, 65, 100
1, 41213, Note_off_c, 0, 65, 100
1, 41213, Note_on_c, 0, 66, 100
1, 41277, Note_off_c, 0, 66, 100
1, 41277, Note_on_c, 0, 68, 100
1, 41373, Note_off_c, 0, 68, 100
1, 41373, Note_on_c, 0, 63, 100
1, 41469, Note_off_c, 0, 63, 100
1, 41469, Note_on_c, 0, 65, 100
1, 41661, Note_off_c, 0, 65, 100
1, 41997, Note_on_c, 0, 68, 100
1, 42093, Note_off_c, 0, 68, 100
1, 42093, Note_on_c, 0, 66, 100
1, 42141, Note_off_c, 0, 66, 100
1, 42141, Note_on_c, 0, 64, 100
1, 42189, Note_off_c, 0, 64, 100
1, 42189, Note_on_c, 0, 65, 100
1, 42237, Note_off_c, 0, 65, 100
1, 42237, Note_on_c, 0, 66, 100
1, 42285, Note_off_c, 0, 66, 100
1, 42285, Note_on_c, 0, 65, 100
1, 42381, Note_off_c, 0, 65, 100
1, 43149, Note_on_c, 0, 70, 100
1, 43197, Note_off_c, 0, 70, 100
1, 43197, Note_on_c, 0, 68, 100
1, 43235, Note_off_c, 0, 68, 100
1, 43235, Note_on_c, 0, 63, 100
1, 43350, Note_off_c, 0, 63, 100
1, 43350, Note_on_c, 0, 65, 100
1, 43436, Note_off_c, 0, 65, 100
1, 43436, Note_on_c, 0, 66, 100
1, 43532, Note_off_c, 0, 66, 100
1, 43532, Note_on_c, 0, 68, 100
1, 43628, Note_off_c, 0, 68, 100
1, 43628, Note_on_c, 0, 70, 100
1, 43724, Note_off_c, 0, 70, 100
1, 43724, Note_on_c, 0, 73, 100
1, 43820, Note_off_c, 0, 73, 100
1, 43820, Note_on_c, 0, 72, 100
1, 43916, Note_off_c, 0, 72, 100
1, 43916, Note_on_c, 0, 70, 100
1, 44012, Note_off_c, 0, 70, 100
1, 44012, Note_on_c, 0, 69, 100
1, 44108, Note_off_c, 0, 69, 100
1, 44108, Note_on_c, 0, 70, 100
1, 44220, Note_off_c, 0, 70, 100
1, 44220, Note_on_c, 0, 72, 100
1, 44444, Note_off_c, 0, 72, 100
1, 44444, Note_on_c, 0, 77, 100
1, 44876, Note_off_c, 0, 77, 100
1, 44876, Note_on_c, 0, 73, 100
1, 44972, Note_off_c, 0, 73, 100
1, 44972, Note_on_c, 0, 70, 100
1, 45068, Note_off_c, 0, 70, 100
1, 45068, Note_on_c, 0, 65, 100
1, 45164, Note_off_c, 0, 65, 100
1, 45452, Note_on_c, 0, 75, 100
1, 45548, Note_off_c, 0, 75, 100
1, 45548, Note_on_c, 0, 72, 100
1, 45644, Note_off_c, 0, 72, 100
1, 45644, Note_on_c, 0, 69, 100
1, 45740, Note_off_c, 0, 69, 100
1, 45740, Note_on_c, 0, 67, 100
1, 45788, Note_off_c, 0, 67, 100
1, 45788, Note_on_c, 0, 66, 100
1, 45932, Note_off_c, 0, 66, 100
1, 45932, Note_on_c, 0, 66, 100
1, 46028, Note_off_c, 0, 66, 100
1, 46220, Note_on_c, 0, 73, 100
1, 46316, Note_off_c, 0, 73, 100
1, 46316, Note_on_c, 0, 70, 100
1, 46412, Note_off_c, 0, 70, 100
1, 46412, Note_on_c, 0, 65, 100
1, 46524, Note_off_c, 0, 65, 100
1, 46524, Note_on_c, 0, 63, 100
1, 46652, Note_off_c, 0, 63, 100
1, 46652, Note_on_c, 0, 65, 100
1, 46796, Note_off_c, 0, 65, 100
1, 46796, Note_on_c, 0, 59, 100
1, 46844, Note_off_c, 0, 59, 100
1, 46844, Note_on_c, 0, 61, 100
1, 47180, Note_off_c, 0, 61, 100
1, 47180, Note_on_c, 0, 58, 100
1, 47228, Note_off_c, 0, 58, 100
1, 47228, Note_on_c, 0, 60, 100
1, 47324, Note_off_c, 0, 60, 100
1, 47324, Note_on_c, 0, 61, 100
1, 47420, Note_off_c, 0, 61, 100
1, 47420, Note_on_c, 0, 60, 100
1, 47468, Note_off_c, 0, 60, 100
1, 47468, Note_on_c, 0, 58, 100
1, 47564, Note_off_c, 0, 58, 100
1, 47564, Note_on_c, 0, 55, 100
1, 47612, Note_off_c, 0, 55, 100
1, 47612, Note_on_c, 0, 56, 100
1, 47708, Note_off_c, 0, 56, 100
1, 47708, Note_on_c, 0, 57, 100
1, 47900, Note_off_c, 0, 57, 100
1, 47900, Note_on_c, 0, 53, 100
1, 48188, Note_off_c, 0, 53, 100
1, 48716, Note_on_c, 0, 53, 100
1, 48764, Note_off_c, 0, 53, 100
1, 48764, Note_on_c, 0, 56, 100
1, 48812, Note_off_c, 0, 56, 100
1, 48812, Note_on_c, 0, 59, 100
1, 48860, Note_off_c, 0, 59, 100
1, 48860, Note_on_c, 0, 61, 100
1, 48908, Note_off_c, 0, 61, 100
1, 48908, Note_on_c, 0, 60, 100
1, 49004, Note_off_c, 0, 60, 100
1, 49004, Note_on_c, 0, 58, 100
1, 49052, Note_off_c, 0, 58, 100
1, 49052, Note_on_c, 0, 57, 100
1, 49148, Note_off_c, 0, 57, 100
1, 49148, Note_on_c, 0, 63, 100
1, 49196, Note_off_c, 0, 63, 100
1, 49196, Note_on_c, 0, 66, 100
1, 49244, Note_off_c, 0, 66, 100
1, 49244, Note_on_c, 0, 65, 100
1, 49340, Note_off_c, 0, 65, 100
1, 50012, Note_on_c, 0, 64, 100
1, 50060, Note_off_c, 0, 64, 100
1, 50060, Note_on_c, 0, 65, 100
1, 50108, Note_off_c, 0, 65, 100
1, 50108, Note_on_c, 0, 64, 100
1, 50236, Note_off_c, 0, 64, 100
1, 50236, Note_on_c, 0, 65, 100
1, 50300, Note_off_c, 0, 65, 100
1, 50300, Note_on_c, 0, 66, 100
1, 50396, Note_off_c, 0, 66, 100
1, 50396, Note_on_c, 0, 67, 100
1, 50540, Note_off_c, 0, 67, 100
1, 50540, Note_on_c, 0, 68, 100
1, 50636, Note_off_c, 0, 68, 100
1, 50636, Note_on_c, 0, 69, 100
1, 50732, Note_off_c, 0, 69, 100
1, 50732, Note_on_c, 0, 70, 100
1, 50828, Note_off_c, 0, 70, 100
1, 50828, Note_on_c, 0, 73, 100
1, 50924, Note_off_c, 0, 73, 100
1, 50924, Note_on_c, 0, 72, 100
1, 51020, Note_off_c, 0, 72, 100
1, 51020, Note_on_c, 0, 70, 100
1, 51116, Note_off_c, 0, 70, 100
1, 51116, Note_on_c, 0, 69, 100
1, 51212, Note_off_c, 0, 69, 100
1, 51212, Note_on_c, 0, 66, 100
1, 51308, Note_off_c, 0, 66, 100
1, 51308, Note_on_c, 0, 65, 100
1, 51404, Note_off_c, 0, 65, 100
1, 51404, Note_on_c, 0, 63, 100
1, 51516, Note_off_c, 0, 63, 100
1, 51516, Note_on_c, 0, 61, 100
1, 51644, Note_off_c, 0, 61, 100
1, 51644, Note_on_c, 0, 55, 100
1, 51708, Note_off_c, 0, 55, 100
1, 51708, Note_on_c, 0, 58, 100
1, 51772, Note_off_c, 0, 58, 100
1, 51772, Note_on_c, 0, 60, 100
1, 51932, Note_off_c, 0, 60, 100
1, 51932, Note_on_c, 0, 61, 100
1, 52092, Note_off_c, 0, 61, 100
1, 52092, Note_on_c, 0, 54, 100
1, 52156, Note_off_c, 0, 54, 100
1, 52156, Note_on_c, 0, 55, 100
1, 52220, Note_off_c, 0, 55, 100
1, 52220, Note_on_c, 0, 60, 100
1, 52796, Note_off_c, 0, 60, 100
1, 53132, Note_on_c, 0, 53, 100
1, 53228, Note_off_c, 0, 53, 100
1, 53228, Note_on_c, 0, 55, 100
1, 53324, Note_off_c, 0, 55, 100
1, 53324, Note_on_c, 0, 61, 100
1, 53516, Note_off_c, 0, 61, 100
1, 53516, Note_on_c, 0, 53, 100
1, 53564, Note_off_c, 0, 53, 100
1, 53564, Note_on_c, 0, 55, 100
1, 53660, Note_off_c, 0, 55, 100
1, 53660, Note_on_c, 0, 60, 100
1, 53756, Note_off_c, 0, 60, 100
1, 54092, Note_on_c, 0, 53, 100
1, 54188, Note_off_c, 0, 53, 100
1, 54188, Note_on_c, 0, 55, 100
1, 54284, Note_off_c, 0, 55, 100
1, 54284, Note_on_c, 0, 61, 100
1, 54524, Note_off_c, 0, 61, 100
1, 54524, Note_on_c, 0, 53, 100
1, 54588, Note_off_c, 0, 53, 100
1, 54588, Note_on_c, 0, 55, 100
1, 54652, Note_off_c, 0, 55, 100
1, 54652, Note_on_c, 0, 60, 100
1, 54716, Note_off_c, 0, 60, 100
1, 54716, Note_on_c, 0, 53, 100
1, 54764, Note_off_c, 0, 53, 100
1, 54764, Note_on_c, 0, 55, 100
1, 54860, Note_off_c, 0, 55, 100
1, 54860, Note_on_c, 0, 61, 100
1, 55052, Note_off_c, 0, 61, 100
1, 55052, Note_on_c, 0, 54, 100
1, 55100, Note_off_c, 0, 54, 100
1, 55100, Note_on_c, 0, 55, 100
1, 55148, Note_off_c, 0, 55, 100
1, 55148, Note_on_c, 0, 60, 100
1, 55244, Note_off_c, 0, 60, 100
1, 55724, Note_on_c, 0, 60, 100
1, 55820, Note_off_c, 0, 60, 100
1, 55820, Note_on_c, 0, 61, 100
1, 55868, Note_off_c, 0, 61, 100
1, 55868, Note_on_c, 0, 60, 100
1, 55964, Note_off_c, 0, 60, 100
1, 55964, Note_on_c, 0, 58, 100
1, 56060, Note_off_c, 0, 58, 100
1, 56060, Note_on_c, 0, 57, 100
1, 56204, Note_off_c, 0, 57, 100
1, 56204, Note_on_c, 0, 60, 100
1, 56316, Note_off_c, 0, 60, 100
1, 56316, Note_on_c, 0, 63, 100
1, 56444, Note_off_c, 0, 63, 100
1, 56444, Note_on_c, 0, 65, 100
1, 56492, Note_off_c, 0, 65, 100
1, 56492, Note_on_c, 0, 68, 100
1, 56588, Note_off_c, 0, 68, 100
1, 56588, Note_on_c, 0, 66, 100
1, 56684, Note_off_c, 0, 66, 100
1, 56684, Note_on_c, 0, 63, 100
1, 56780, Note_off_c, 0, 63, 100
1, 56780, Note_on_c, 0, 64, 100
1, 56892, Note_off_c, 0, 64, 100
1, 56892, Note_on_c, 0, 65, 100
1, 57068, Note_off_c, 0, 65, 100
1, 57068, Note_on_c, 0, 65, 100
1, 57164, Note_off_c, 0, 65, 100
1, 57164, Note_on_c, 0, 70, 100
1, 57212, Note_off_c, 0, 70, 100
1, 57212, Note_on_c, 0, 67, 100
1, 57404, Note_off_c, 0, 67, 100
1, 57404, Note_on_c, 0, 67, 100
1, 57500, Note_off_c, 0, 67, 100
1, 57500, Note_on_c, 0, 72, 100
1, 57596, Note_off_c, 0, 72, 100
1, 57596, Note_on_c, 0, 69, 100
1, 57788, Note_off_c, 0, 69, 100
1, 57788, Note_on_c, 0, 69, 100
1, 57916, Note_off_c, 0, 69, 100
1, 57916, Note_on_c, 0, 73, 100
1, 57980, Note_off_c, 0, 73, 100
1, 57980, Note_on_c, 0, 70, 100
1, 58172, Note_off_c, 0, 70, 100
1, 58172, Note_on_c, 0, 70, 100
1, 58268, Note_off_c, 0, 70, 100
1, 58268, Note_on_c, 0, 76, 100
1, 58316, Note_off_c, 0, 76, 100
1, 58316, Note_on_c, 0, 77, 100
1, 58508, Note_off_c, 0, 77, 100
1, 59276, Note_on_c, 0, 72, 100
1, 59324, Note_off_c, 0, 72, 100
1, 59324, Note_on_c, 0, 73, 100
1, 59372, Note_off_c, 0, 73, 100
1, 59372, Note_on_c, 0, 72, 100
1, 59420, Note_off_c, 0, 72, 100
1, 59420, Note_on_c, 0, 70, 100
1, 59468, Note_off_c, 0, 70, 100
1, 59468, Note_on_c, 0, 69, 100
1, 59548, Note_off_c, 0, 69, 100
1, 59548, Note_on_c, 0, 66, 100
1, 59612, Note_off_c, 0, 66, 100
1, 59612, Note_on_c, 0, 65, 100
1, 59644, Note_off_c, 0, 65, 100
1, 59644, Note_on_c, 0, 64, 100
1, 59676, Note_off_c, 0, 64, 100
1, 59676, Note_on_c, 0, 63, 100
1, 59756, Note_off_c, 0, 63, 100
1, 59756, Note_on_c, 0, 61, 100
1, 59804, Note_off_c, 0, 61, 100
1, 59804, Note_on_c, 0, 60, 100
1, 59900, Note_off_c, 0, 60, 100
1, 60380, Note_on_c, 0, 71, 100
1, 60476, Note_off_c, 0, 71, 100
1, 60476, Note_on_c, 0, 72, 100
1, 61148, Note_off_c, 0, 72, 100
1, 61148, Note_on_c, 0, 65, 100
1, 61244, Note_off_c, 0, 65, 100
1, 61244, Note_on_c, 0, 67, 100
1, 61340, Note_off_c, 0, 67, 100
1, 61340, Note_on_c, 0, 65, 100
1, 61436, Note_off_c, 0, 65, 100
1, 61436, Note_on_c, 0, 72, 100
1, 61628, Note_off_c, 0, 72, 100
1, 61628, Note_on_c, 0, 67, 100
1, 61724, Note_off_c, 0, 67, 100
1, 61724, Note_on_c, 0, 65, 100
1, 62012, Note_off_c, 0, 65, 100
1, 62540, Note_on_c, 0, 75, 100
1, 62828, Note_off_c, 0, 75, 100
1, 62828, Note_on_c, 0, 71, 100
1, 62924, Note_off_c, 0, 71, 100
1, 62924, Note_on_c, 0, 74, 100
1, 63020, Note_off_c, 0, 74, 100
1, 63020, Note_on_c, 0, 72, 100
1, 63164, Note_off_c, 0, 72, 100
1, 63164, Note_on_c, 0, 67, 100
1, 63260, Note_off_c, 0, 67, 100
1, 63260, Note_on_c, 0, 70, 100
1, 63356, Note_off_c, 0, 70, 100
1, 63356, Note_on_c, 0, 68, 100
1, 63452, Note_off_c, 0, 68, 100
1, 63740, Note_on_c, 0, 79, 100
1, 63836, Note_off_c, 0, 79, 100
1, 63836, Note_on_c, 0, 75, 100
1, 63980, Note_off_c, 0, 75, 100
1, 63980, Note_on_c, 0, 72, 100
1, 64076, Note_off_c, 0, 72, 100
1, 64076, Note_on_c, 0, 68, 100
1, 64172, Note_off_c, 0, 68, 100
1, 64172, Note_on_c, 0, 67, 100
1, 64268, Note_off_c, 0, 67, 100
1, 64268, Note_on_c, 0, 65, 100
1, 64364, Note_off_c, 0, 65, 100
1, 64700, Note_on_c, 0, 78, 100
1, 64796, Note_off_c, 0, 78, 100
1, 64796, Note_on_c, 0, 74, 100
1, 64940, Note_off_c, 0, 74, 100
1, 64940, Note_on_c, 0, 71, 100
1, 65036, Note_off_c, 0, 71, 100
1, 65036, Note_on_c, 0, 67, 100
1, 65228, Note_off_c, 0, 67, 100
1, 65228, Note_on_c, 0, 74, 100
1, 65276, Note_off_c, 0, 74, 100
1, 65276, Note_on_c, 0, 76, 100
1, 65372, Note_off_c, 0, 76, 100
1, 65372, Note_on_c, 0, 77, 100
1, 65516, Note_off_c, 0, 77, 100
1, 65516, Note_on_c, 0, 73, 100
1, 65612, Note_off_c, 0, 73, 100
1, 65612, Note_on_c, 0, 70, 100
1, 65708, Note_off_c, 0, 70, 100
1, 65708, Note_on_c, 0, 66, 100
1, 65804, Note_off_c, 0, 66, 100
1, 65804, Note_on_c, 0, 65, 100
1, 65900, Note_off_c, 0, 65, 100
1, 66236, Note_on_c, 0, 74, 100
1, 66300, Note_off_c, 0, 74, 100
1, 66300, Note_on_c, 0, 75, 100
1, 66364, Note_off_c, 0, 75, 100
1, 66364, Note_on_c, 0, 74, 100
1, 66428, Note_off_c, 0, 74, 100
1, 66428, Note_on_c, 0, 72, 100
1, 66524, Note_off_c, 0, 72, 100
1, 66524, Note_on_c, 0, 68, 100
1, 66620, Note_off_c, 0, 68, 100
1, 66620, Note_on_c, 0, 65, 100
1, 66716, Note_off_c, 0, 65, 100
1, 66716, Note_on_c, 0, 60, 100
1, 66812, Note_off_c, 0, 60, 100
1, 66812, Note_on_c, 0, 63, 100
1, 66908, Note_off_c, 0, 63, 100
1, 66908, Note_on_c, 0, 60, 100
1, 67004, Note_off_c, 0, 60, 100
1, 67004, Note_on_c, 0, 62, 100
1, 67100, Note_off_c, 0, 62, 100
1, 67100, Note_on_c, 0, 70, 100
1, 67292, Note_off_c, 0, 70, 100
1, 67532, Note_on_c, 0, 63, 100
1, 67676, Note_off_c, 0, 63, 100
1, 67676, Note_on_c, 0, 65, 100
1, 67772, Note_off_c, 0, 65, 100
1, 67772, Note_on_c, 0, 66, 100
1, 67868, Note_off_c, 0, 66, 100
1, 67868, Note_on_c, 0, 66, 100
1, 67964, Note_off_c, 0, 66, 100
1, 67964, Note_on_c, 0, 68, 100
1, 68060, Note_off_c, 0, 68, 100
1, 68060, Note_on_c, 0, 68, 100
1, 68156, Note_off_c, 0, 68, 100
1, 68156, Note_on_c, 0, 70, 100
1, 68252, Note_off_c, 0, 70, 100
1, 68252, Note_on_c, 0, 70, 100
1, 68348, Note_off_c, 0, 70, 100
1, 68348, Note_on_c, 0, 72, 100
1, 68444, Note_off_c, 0, 72, 100
1, 68444, Note_on_c, 0, 73, 100
1, 68588, Note_off_c, 0, 73, 100
1, 68588, Note_on_c, 0, 72, 100
1, 68684, Note_off_c, 0, 72, 100
1, 68684, Note_on_c, 0, 76, 100
1, 68732, Note_off_c, 0, 76, 100
1, 68732, Note_on_c, 0, 77, 100
1, 69020, Note_off_c, 0, 77, 100
1, 69020, Note_on_c, 0, 75, 100
1, 69116, Note_off_c, 0, 75, 100
1, 69116, Note_on_c, 0, 73, 100
1, 69212, Note_off_c, 0, 73, 100
1, 69212, Note_on_c, 0, 67, 100
1, 69500, Note_off_c, 0, 67, 100
1, 69884, Note_on_c, 0, 54, 100
1, 69980, Note_off_c, 0, 54, 100
1, 69980, Note_on_c, 0, 56, 100
1, 70028, Note_off_c, 0, 56, 100
1, 70028, Note_on_c, 0, 59, 100
1, 70076, Note_off_c, 0, 59, 100
1, 70076, Note_on_c, 0, 61, 100
1, 70140, Note_off_c, 0, 61, 100
1, 70140, Note_on_c, 0, 63, 100
1, 70172, Note_off_c, 0, 63, 100
1, 70172, Note_on_c, 0, 66, 100
1, 70204, Note_off_c, 0, 66, 100
1, 70204, Note_on_c, 0, 68, 100
1, 70236, Note_off_c, 0, 68, 100
1, 70236, Note_on_c, 0, 70, 100
1, 70268, Note_off_c, 0, 70, 100
1, 70268, Note_on_c, 0, 72, 100
1, 70332, Note_off_c, 0, 72, 100
1, 70332, Note_on_c, 0, 67, 100
1, 70524, Note_off_c, 0, 67, 100
1, 70524, Note_on_c, 0, 72, 100
1, 70588, Note_off_c, 0, 72, 100
1, 70588, Note_on_c, 0, 65, 100
1, 70780, Note_off_c, 0, 65, 100
1, 71708, Note_on_c, 0, 63, 100
1, 71756, Note_off_c, 0, 63, 100
1, 71756, Note_on_c, 0, 64, 100
1, 71804, Note_off_c, 0, 64, 100
1, 71804, Note_on_c, 0, 65, 100
1, 73244, Note_off_c, 0, 65, 100
1, 73244, Note_on_c, 0, 64, 100
1, 73340, Note_off_c, 0, 64, 100
1, 73340, Note_on_c, 0, 65, 100
1, 73436, Note_off_c, 0, 65, 100
1, 73436, Note_on_c, 0, 66, 100
1, 73532, Note_off_c, 0, 66, 100
1, 73532, Note_on_c, 0, 65, 100
1, 73676, Note_off_c, 0, 65, 100
1, 73676, Note_on_c, 0, 63, 100
1, 73772, Note_off_c, 0, 63, 100
1, 73772, Note_on_c, 0, 65, 100
1, 73868, Note_off_c, 0, 65, 100
1, 73868, Note_on_c, 0, 65, 100
1, 73964, Note_off_c, 0, 65, 100
1, 74588, Note_on_c, 0, 65, 100
1, 74684, Note_off_c, 0, 65, 100
1, 74684, Note_on_c, 0, 65, 100
1, 74876, Note_off_c, 0, 65, 100
1, 74876, Note_on_c, 0, 65, 100
1, 74972, Note_off_c, 0, 65, 100
1, 74972, Note_on_c, 0, 65, 100
1, 75164, Note_off_c, 0, 65, 100
1, 75164, Note_on_c, 0, 65, 100
1, 75260, Note_off_c, 0, 65, 100
1, 75260, Note_on_c, 0, 65, 100
1, 75500, Note_off_c, 0, 65, 100
1, 75500, Note_on_c, 0, 65, 100
1, 75596, Note_off_c, 0, 65, 100
1, 75596, Note_on_c, 0, 65, 100
1, 75788, Note_off_c, 0, 65, 100
1, 75788, Note_on_c, 0, 65, 100
1, 75884, Note_off_c, 0, 65, 100
1, 75884, Note_on_c, 0, 65, 100
1, 75980, Note_off_c, 0, 65, 100
1, 75980, Note_on_c, 0, 65, 100
1, 76268, Note_off_c, 0, 65, 100
1, 76268, Note_on_c, 0, 63, 100
1, 76364, Note_off_c, 0, 63, 100
1, 76364, Note_on_c, 0, 61, 100
1, 76412, Note_off_c, 0, 61, 100
1, 76412, Note_on_c, 0, 63, 100
1, 76540, Note_off_c, 0, 63, 100
1, 76540, Note_on_c, 0, 65, 100
1, 76732, Note_off_c, 0, 65, 100
1, 77244, Note_on_c, 0, 64, 100
1, 77308, Note_off_c, 0, 64, 100
1, 77308, Note_on_c, 0, 65, 100
1, 77372, Note_off_c, 0, 65, 100
1, 77372, Note_on_c, 0, 64, 100
1, 77852, Note_off_c, 0, 64, 100
1, 77852, Note_on_c, 0, 70, 100
1, 77996, Note_off_c, 0, 70, 100
1, 77996, Note_on_c, 0, 64, 100
1, 78044, Note_off_c, 0, 64, 100
1, 78044, Note_on_c, 0, 65, 100
1, 78092, Note_off_c, 0, 65, 100
1, 78092, Note_on_c, 0, 64, 100
1, 78188, Note_off_c, 0, 64, 100
1, 78188, Note_on_c, 0, 63, 100
1, 78284, Note_off_c, 0, 63, 100
1, 78284, Note_on_c, 0, 61, 100
1, 78380, Note_off_c, 0, 61, 100
1, 78380, Note_on_c, 0, 58, 100
1, 78476, Note_off_c, 0, 58, 100
1, 78476, Note_on_c, 0, 58, 100
1, 78572, Note_off_c, 0, 58, 100
1, 78572, Note_on_c, 0, 58, 100
1, 78668, Note_off_c, 0, 58, 100
1, 78668, Note_on_c, 0, 58, 100
1, 78716, Note_off_c, 0, 58, 100
1, 78716, Note_on_c, 0, 61, 100
1, 78860, Note_off_c, 0, 61, 100
1, 78860, Note_on_c, 0, 58, 100
1, 78972, Note_off_c, 0, 58, 100
1, 78972, Note_on_c, 0, 58, 100
1, 79036, Note_off_c, 0, 58, 100
1, 79036, Note_on_c, 0, 58, 100
1, 79100, Note_off_c, 0, 58, 100
1, 79100, Note_on_c, 0, 63, 100
1, 79196, Note_off_c, 0, 63, 100
1, 79196, Note_on_c, 0, 58, 100
1, 79340, Note_off_c, 0, 58, 100
1, 79340, Note_on_c, 0, 58, 100
1, 79436, Note_off_c, 0, 58, 100
1, 79436, Note_on_c, 0, 58, 100
1, 79484, Note_off_c, 0, 58, 100
1, 79484, Note_on_c, 0, 63, 100
1, 79548, Note_off_c, 0, 63, 100
1, 79548, Note_on_c, 0, 65, 100
1, 79612, Note_off_c, 0, 65, 100
1, 79612, Note_on_c, 0, 64, 100
1, 79676, Note_off_c, 0, 64, 100
1, 79676, Note_on_c, 0, 63, 100
1, 79772, Note_off_c, 0, 63, 100
1, 79772, Note_on_c, 0, 61, 100
1, 79868, Note_off_c, 0, 61, 100
1, 79868, Note_on_c, 0, 58, 100
1, 79964, Note_off_c, 0, 58, 100
1, 79964, Note_on_c, 0, 60, 100
1, 80060, Note_off_c, 0, 60, 100
1, 80060, Note_on_c, 0, 61, 100
1, 80156, Note_off_c, 0, 61, 100
1, 80700, Note_on_c, 0, 60, 100
1, 80828, Note_off_c, 0, 60, 100
1, 80828, Note_on_c, 0, 61, 100
1, 80876, Note_off_c, 0, 61, 100
1, 80876, Note_on_c, 0, 60, 100
1, 80972, Note_off_c, 0, 60, 100
1, 80972, Note_on_c, 0, 58, 100
1, 81068, Note_off_c, 0, 58, 100
1, 81068, Note_on_c, 0, 57, 100
1, 81164, Note_off_c, 0, 57, 100
1, 81164, Note_on_c, 0, 54, 100
1, 81212, Note_off_c, 0, 54, 100
1, 81212, Note_on_c, 0, 53, 100
1, 81340, Note_off_c, 0, 53, 100
1, 81340, Note_on_c, 0, 51, 100
1, 81452, Note_off_c, 0, 51, 100
1, 81452, Note_on_c, 0, 53, 100
1, 81548, Note_off_c, 0, 53, 100
1, 81548, Note_on_c, 0, 46, 100
1, 81932, Note_off_c, 0, 46, 100
1, 82172, Note_on_c, 0, 54, 100
1, 82364, Note_off_c, 0, 54, 100
1, 82364, Note_on_c, 0, 47, 100
1, 82748, Note_off_c, 0, 47, 100
1, 83036, Note_on_c, 0, 53, 100
1, 83132, Note_off_c, 0, 53, 100
1, 83132, Note_on_c, 0, 46, 100
1, 83756, Note_off_c, 0, 46, 100
1, 83756, Note_on_c, 0, 59, 100
1, 83852, Note_off_c, 0, 59, 100
1, 83852, Note_on_c, 0, 47, 100
1, 84092, Note_off_c, 0, 47, 100
1, 84092, Note_on_c, 0, 59, 100
1, 84188, Note_off_c, 0, 59, 100
1, 84188, Note_on_c, 0, 54, 100
1, 84476, Note_off_c, 0, 54, 100
1, 84860, Note_on_c, 0, 46, 100
1, 84956, Note_off_c, 0, 46, 100
1, 84956, Note_on_c, 0, 53, 100
1, 85052, Note_off_c, 0, 53, 100
1, 85052, Note_on_c, 0, 58, 100
1, 85148, Note_off_c, 0, 58, 100
1, 85148, Note_on_c, 0, 65, 100
1, 85244, Note_off_c, 0, 65, 100
1, 85244, Note_on_c, 0, 70, 100
1, 85340, Note_off_c, 0, 70, 100
1, 85340, Note_on_c, 0, 65, 100
1, 85436, Note_off_c, 0, 65, 100
1, 85436, Note_on_c, 0, 70, 100
1, 85532, Note_off_c, 0, 70, 100
1, 85532, Note_on_c, 0, 65, 100
1, 85628, Note_off_c, 0, 65, 100
1, 85628, Note_on_c, 0, 60, 100
1, 85724, Note_off_c, 0, 60, 100
1, 85724, Note_on_c, 0, 58, 100
1, 85820, Note_off_c, 0, 58, 100
1, 85820, Note_on_c, 0, 54, 100
1, 85916, Note_off_c, 0, 54, 100
1, 85916, Note_on_c, 0, 53, 100
1, 86012, Note_off_c, 0, 53, 100
1, 86012, Note_on_c, 0, 58, 100
1, 86348, Note_off_c, 0, 58, 100
1, 86348, Note_on_c, 0, 61, 100
1, 86444, Note_off_c, 0, 61, 100
1, 87068, Note_on_c, 0, 63, 100
1, 87116, Note_off_c, 0, 63, 100
1, 87116, Note_on_c, 0, 64, 100
1, 87228, Note_off_c, 0, 64, 100
1, 87228, Note_on_c, 0, 65, 100
1, 87324, Note_off_c, 0, 65, 100
1, 87884, Note_on_c, 0, 58, 100
1, 87932, Note_off_c, 0, 58, 100
1, 87932, Note_on_c, 0, 60, 100
1, 87980, Note_off_c, 0, 60, 100
1, 87980, Note_on_c, 0, 62, 100
1, 88028, Note_off_c, 0, 62, 100
1, 88028, Note_on_c, 0, 63, 100
1, 88076, Note_off_c, 0, 63, 100
1, 88076, Note_on_c, 0, 67, 100
1, 88124, Note_off_c, 0, 67, 100
1, 88124, Note_on_c, 0, 68, 100
1, 88220, Note_off_c, 0, 68, 100
1, 88220, Note_on_c, 0, 70, 100
1, 88412, Note_off_c, 0, 70, 100
1, 88604, Note_on_c, 0, 67, 100
1, 88748, Note_off_c, 0, 67, 100
1, 88748, Note_on_c, 0, 68, 100
1, 88844, Note_off_c, 0, 68, 100
1, 88844, Note_on_c, 0, 65, 100
1, 89036, Note_off_c, 0, 65, 100
1, 89036, Note_on_c, 0, 70, 100
1, 89084, Note_off_c, 0, 70, 100
1, 89084, Note_on_c, 0, 67, 100
1, 89132, Note_off_c, 0, 67, 100
1, 89132, Note_on_c, 0, 64, 100
1, 89228, Note_off_c, 0, 64, 100
1, 89228, Note_on_c, 0, 66, 100
1, 89340, Note_off_c, 0, 66, 100
1, 89340, Note_on_c, 0, 67, 100
1, 89468, Note_off_c, 0, 67, 100
1, 89468, Note_on_c, 0, 69, 100
1, 89564, Note_off_c, 0, 69, 100
1, 89564, Note_on_c, 0, 71, 100
1, 89708, Note_off_c, 0, 71, 100
1, 89708, Note_on_c, 0, 76, 100
1, 89852, Note_off_c, 0, 76, 100
1, 89852, Note_on_c, 0, 75, 100
1, 90188, Note_off_c, 0, 75, 100
1, 90188, Note_on_c, 0, 70, 100
1, 90284, Note_off_c, 0, 70, 100
1, 90284, Note_on_c, 0, 66, 100
1, 90380, Note_off_c, 0, 66, 100
1, 90380, Note_on_c, 0, 63, 100
1, 90428, Note_off_c, 0, 63, 100
1, 90428, Note_on_c, 0, 65, 100
1, 90668, Note_off_c, 0, 65, 100
1, 90668, Note_on_c, 0, 63, 100
1, 90956, Note_off_c, 0, 63, 100
1, 90956, Note_on_c, 0, 65, 100
1, 91148, Note_off_c, 0, 65, 100
1, 91676, Note_on_c, 0, 69, 100
1, 91724, Note_off_c, 0, 69, 100
1, 91724, Note_on_c, 0, 70, 100
1, 92108, Note_off_c, 0, 70, 100
1, 92108, Note_on_c, 0, 66, 100
1, 92204, Note_off_c, 0, 66, 100
1, 92204, Note_on_c, 0, 73, 100
1, 92300, Note_off_c, 0, 73, 100
1, 92300, Note_on_c, 0, 72, 100
1, 92348, Note_off_c, 0, 72, 100
1, 92348, Note_on_c, 0, 71, 100
1, 92396, Note_off_c, 0, 71, 100
1, 92396, Note_on_c, 0, 70, 100
1, 92492, Note_off_c, 0, 70, 100
1, 92492, Note_on_c, 0, 70, 100
1, 92636, Note_off_c, 0, 70, 100
1, 92636, Note_on_c, 0, 67, 100
1, 92732, Note_off_c, 0, 67, 100
1, 92732, Note_on_c, 0, 66, 100
1, 92988, Note_off_c, 0, 66, 100
1, 92988, Note_on_c, 0, 65, 100
1, 93052, Note_off_c, 0, 65, 100
1, 93052, Note_on_c, 0, 64, 100
1, 93116, Note_off_c, 0, 64, 100
1, 93116, Note_on_c, 0, 63, 100
1, 93308, Note_off_c, 0, 63, 100
1, 93308, Note_on_c, 0, 61, 100
1, 93404, Note_off_c, 0, 61, 100
1, 93404, Note_on_c, 0, 60, 100
1, 93644, Note_off_c, 0, 60, 100
1, 93644, Note_on_c, 0, 58, 100
1, 93756, Note_off_c, 0, 58, 100
1, 93756, Note_on_c, 0, 57, 100
1, 93884, Note_off_c, 0, 57, 100
1, 93884, Note_on_c, 0, 65, 100
1, 93948, Note_off_c, 0, 65, 100
1, 93948, Note_on_c, 0, 66, 100
1, 94012, Note_off_c, 0, 66, 100
1, 94012, Note_on_c, 0, 65, 100
1, 94076, Note_off_c, 0, 65, 100
1, 94076, Note_on_c, 0, 63, 100
1, 94172, Note_off_c, 0, 63, 100
1, 94172, Note_on_c, 0, 65, 100
1, 94460, Note_off_c, 0, 65, 100
1, 94796, Note_on_c, 0, 62, 100
1, 94892, Note_off_c, 0, 62, 100
1, 94892, Note_on_c, 0, 63, 100
1, 94988, Note_off_c, 0, 63, 100
1, 94988, Note_on_c, 0, 61, 100
1, 95084, Note_off_c, 0, 61, 100
1, 95084, Note_on_c, 0, 69, 100
1, 95180, Note_off_c, 0, 69, 100
1, 95180, Note_on_c, 0, 63, 100
1, 95324, Note_off_c, 0, 63, 100
1, 95324, Note_on_c, 0, 65, 100
1, 95420, Note_off_c, 0, 65, 100
1, 95420, Note_on_c, 0, 65, 100
1, 95612, Note_off_c, 0, 65, 100
1, 95612, Note_on_c, 0, 67, 100
1, 95650, Note_off_c, 0, 67, 100
1, 95650, Note_on_c, 0, 70, 100
1, 95688, Note_off_c, 0, 70, 100
1, 95688, Note_on_c, 0, 72, 100
1, 95726, Note_off_c, 0, 72, 100
1, 95726, Note_on_c, 0, 67, 100
1, 95802, Note_off_c, 0, 67, 100
1, 95802, Note_on_c, 0, 65, 100
1, 95994, Note_off_c, 0, 65, 100
1, 96618, Note_on_c, 0, 70, 100
1, 96714, Note_off_c, 0, 70, 100
1, 96714, Note_on_c, 0, 70, 100
1, 96810, Note_off_c, 0, 70, 100
1, 96810, Note_on_c, 0, 70, 100
1, 96906, Note_off_c, 0, 70, 100
1, 96906, Note_on_c, 0, 70, 100
1, 96954, Note_off_c, 0, 70, 100
1, 96954, Note_on_c, 0, 70, 100
1, 97050, Note_off_c, 0, 70, 100
1, 97050, Note_on_c, 0, 70, 100
1, 97194, Note_off_c, 0, 70, 100
1, 97194, Note_on_c, 0, 70, 100
1, 97290, Note_off_c, 0, 70, 100
1, 97290, Note_on_c, 0, 70, 100
1, 97386, Note_off_c, 0, 70, 100
1, 97386, Note_on_c, 0, 70, 100
1, 97482, Note_off_c, 0, 70, 100
1, 97482, Note_on_c, 0, 70, 100
1, 97594, Note_off_c, 0, 70, 100
1, 97594, Note_on_c, 0, 70, 100
1, 97866, Note_off_c, 0, 70, 100
1, 97866, Note_on_c, 0, 73, 100
1, 97962, Note_off_c, 0, 73, 100
1, 98202, Note_on_c, 0, 58, 100
1, 98250, Note_off_c, 0, 58, 100
1, 98250, Note_on_c, 0, 58, 100
1, 98346, Note_off_c, 0, 58, 100
1, 98346, Note_on_c, 0, 58, 100
1, 98442, Note_off_c, 0, 58, 100
1, 98442, Note_on_c, 0, 58, 100
1, 98538, Note_off_c, 0, 58, 100
1, 98538, Note_on_c, 0, 58, 100
1, 98634, Note_off_c, 0, 58, 100
1, 98634, Note_on_c, 0, 58, 100
1, 98730, Note_off_c, 0, 58, 100
1, 98730, Note_on_c, 0, 58, 100
1, 98826, Note_off_c, 0, 58, 100
1, 98826, Note_on_c, 0, 58, 100
1, 98874, Note_off_c, 0, 58, 100
1, 98874, Note_on_c, 0, 58, 100
1, 98970, Note_off_c, 0, 58, 100
1, 98970, Note_on_c, 0, 58, 100
1, 99066, Note_off_c, 0, 58, 100
1, 99066, Note_on_c, 0, 60, 100
1, 99162, Note_off_c, 0, 60, 100
1, 99162, Note_on_c, 0, 61, 100
1, 99306, Note_off_c, 0, 61, 100
1, 99306, Note_on_c, 0, 60, 100
1, 99354, Note_off_c, 0, 60, 100
1, 99354, Note_on_c, 0, 61, 100
1, 99498, Note_off_c, 0, 61, 100
1, 99498, Note_on_c, 0, 58, 100
1, 99594, Note_off_c, 0, 58, 100
1, 99594, Note_on_c, 0, 53, 100
1, 99690, Note_off_c, 0, 53, 100
1, 99690, Note_on_c, 0, 57, 100
1, 99786, Note_off_c, 0, 57, 100
1, 99786, Note_on_c, 0, 60, 100
1, 99898, Note_off_c, 0, 60, 100
1, 99898, Note_on_c, 0, 58, 100
1, 100026, Note_off_c, 0, 58, 100
1, 100026, Note_on_c, 0, 55, 100
1, 100380, Note_off_c, 0, 55, 100
1, 100380, End_track
0, 0, End_of_file
