0, 0, Header, 1, 1, 192
1, 0, Start_track
1, 0, Title_t, "Melody"
1, 0, Tempo, 526315
1, 0, Key_signature, -1, "minor"
1, 0, Time_signature, 4, 2, 24, 8
1, 384, Note_on_c, 0, 67, 100
1, 432, Note_off_c, 0, 67, 100
1, 432, Note_on_c, 0, 68, 100
1, 528, Note_off_c, 0, 68, 100
1, 528, Note_on_c, 0, 67, 100
1, 576, Note_off_c, 0, 67, 100
1, 576, Note_on_c, 0, 66, 100
1, 672, Note_off_c, 0, 66, 100
1, 1056, Note_on_c, 0, 68, 100
1, 1104, Note_off_c, 0, 68, 100
1, 1104, Note_on_c, 0, 65, 100
1, 1248, Note_off_c, 0, 65, 100
1, 1248, Note_on_c, 0, 71, 100
1, 1344, Note_off_c, 0, 71, 100
1, 1344, Note_on_c, 0, 70, 100
1, 1440, Note_off_c, 0, 70, 100
1, 1440, Note_on_c, 0, 68, 100
1, 1488, Note_off_c, 0, 68, 100
1, 1488, Note_on_c, 0, 65, 100
1, 1920, Note_off_c, 0, 65, 100
1, 1920, Note_on_c, 0, 68, 100
1, 1968, Note_off_c, 0, 68, 100
1, 1968, Note_on_c, 0, 69, 100
1, 2064, Note_off_c, 0, 69, 100
1, 3072, Note_on_c, 0, 67, 100
1, 3120, Note_off_c, 0, 67, 100
1, 3120, Note_on_c, 0, 69, 100
1, 3168, Note_off_c, 0, 69, 100
1, 3168, Note_on_c, 0, 70, 100
1, 3216, Note_off_c, 0, 70, 100
1, 3216, Note_on_c, 0, 71, 100
1, 3264, Note_off_c, 0, 71, 100
1, 3264, Note_on_c, 0, 72, 100
1, 3360, Note_off_c, 0, 72, 100
1, 3360, Note_on_c, 0, 72, 100
1, 3456, Note_off_c, 0, 72, 100
1, 3456, Note_on_c, 0, 70, 100
1, 3520, Note_off_c, 0, 70, 100
1, 3520, Note_on_c, 0, 70, 100
1, 3584, Note_off_c, 0, 70, 100
1, 3584, Note_on_c, 0, 67, 100
1, 3840, Note_off_c, 0, 67, 100
1, 3840, Note_on_c, 0, 69, 100
1, 3888, Note_off_c, 0, 69, 100
1, 3888, Note_on_c, 0, 68, 100
1, 3936, Note_off_c, 0, 68, 100
1, 3936, Note_on_c, 0, 67, 100
1, 3984, Note_off_c, 0, 67, 100
1, 3984, Note_on_c, 0, 66, 100
1, 4032, Note_off_c, 0, 66, 100
1, 4032, Note_on_c, 0, 65, 100
1, 4096, Note_off_c, 0, 65, 100
1, 4096, Note_on_c, 0, 62, 100
1, 4160, Note_off_c, 0, 62, 100
1, 4160, Note_on_c, 0, 69, 100
1, 4224, Note_off_c, 0, 69, 100
1, 4224, Note_on_c, 0, 57, 100
1, 4288, Note_off_c, 0, 57, 100
1, 4288, Note_on_c, 0, 55, 100
1, 4352, Note_off_c, 0, 55, 100
1, 4352, Note_on_c, 0, 53, 100
1, 4416, Note_off_c, 0, 53, 100
1, 4416, Note_on_c, 0, 54, 100
1, 4433, Note_off_c, 0, 54, 100
1, 4433, Note_on_c, 0, 60, 100
1, 4502, Note_off_c, 0, 60, 100
1, 4502, Note_on_c, 0, 57, 100
1, 4536, Note_off_c, 0, 57, 100
1, 4536, Note_on_c, 0, 58, 100
1, 4570, Note_off_c, 0, 58, 100
1, 4570, Note_on_c, 0, 60, 100
1, 4604, Note_off_c, 0, 60, 100
1, 4604, Note_on_c, 0, 69, 100
1, 4652, Note_off_c, 0, 69, 100
1, 4652, Note_on_c, 0, 68, 100
1, 4700, Note_off_c, 0, 68, 100
1, 4700, Note_on_c, 0, 67, 100
1, 4796, Note_off_c, 0, 67, 100
1, 4796, Note_on_c, 0, 66, 100
1, 4834, Note_off_c, 0, 66, 100
1, 4834, Note_on_c, 0, 65, 100
1, 4872, Note_off_c, 0, 65, 100
1, 4872, Note_on_c, 0, 62, 100
1, 4910, Note_off_c, 0, 62, 100
1, 4910, Note_on_c, 0, 58, 100
1, 4948, Note_off_c, 0, 58, 100
1, 4948, Note_on_c, 0, 55, 100
1, 4986, Note_off_c, 0, 55, 100
1, 4986, Note_on_c, 0, 57, 100
1, 5101, Note_off_c, 0, 57, 100
1, 5101, Note_on_c, 0, 58, 100
1, 5139, Note_off_c, 0, 58, 100
1, 5139, Note_on_c, 0, 60, 100
1, 5177, Note_off_c, 0, 60, 100
1, 5177, Note_on_c, 0, 64, 100
1, 5215, Note_off_c, 0, 64, 100
1, 5215, Note_on_c, 0, 67, 100
1, 5291, Note_off_c, 0, 67, 100
1, 5291, Note_on_c, 0, 65, 100
1, 5329, Note_off_c, 0, 65, 100
1, 5329, Note_on_c, 0, 64, 100
1, 5367, Note_off_c, 0, 64, 100
1, 5367, Note_on_c, 0, 69, 100
1, 5463, Note_off_c, 0, 69, 100
1, 5463, Note_on_c, 0, 72, 100
1, 5655, Note_off_c, 0, 72, 100
1, 5895, Note_on_c, 0, 63, 100
1, 5943, Note_off_c, 0, 63, 100
1, 5943, Note_on_c, 0, 70, 100
1, 5991, Note_off_c, 0, 70, 100
1, 5991, Note_on_c, 0, 72, 100
1, 6087, Note_off_c, 0, 72, 100
1, 6087, Note_on_c, 0, 69, 100
1, 6135, Note_off_c, 0, 69, 100
1, 6135, Note_on_c, 0, 67, 100
1, 6327, Note_off_c, 0, 67, 100
1, 6327, Note_on_c, 0, 65, 100
1, 6375, Note_off_c, 0, 65, 100
1, 6375, Note_on_c, 0, 69, 100
1, 6423, Note_off_c, 0, 69, 100
1, 6423, Note_on_c, 0, 62, 100
1, 6807, Note_off_c, 0, 62, 100
1, 6807, Note_on_c, 0, 67, 100
1, 6855, Note_off_c, 0, 67, 100
1, 6855, Note_on_c, 0, 66, 100
1, 6903, Note_off_c, 0, 66, 100
1, 6903, Note_on_c, 0, 65, 100
1, 6951, Note_off_c, 0, 65, 100
1, 6951, Note_on_c, 0, 62, 100
1, 6999, Note_off_c, 0, 62, 100
1, 6999, Note_on_c, 0, 58, 100
1, 7047, Note_off_c, 0, 58, 100
1, 7047, Note_on_c, 0, 55, 100
1, 7095, Note_off_c, 0, 55, 100
1, 7095, Note_on_c, 0, 53, 100
1, 7159, Note_off_c, 0, 53, 100
1, 7159, Note_on_c, 0, 51, 100
1, 7191, Note_off_c, 0, 51, 100
1, 7191, Note_on_c, 0, 52, 100
1, 7223, Note_off_c, 0, 52, 100
1, 7223, Note_on_c, 0, 55, 100
1, 7255, Note_off_c, 0, 55, 100
1, 7255, Note_on_c, 0, 58, 100
1, 7287, Note_off_c, 0, 58, 100
1, 7287, Note_on_c, 0, 63, 100
1, 7335, Note_off_c, 0, 63, 100
1, 7335, Note_on_c, 0, 61, 100
1, 7383, Note_off_c, 0, 61, 100
1, 7383, Note_on_c, 0, 63, 100
1, 7431, Note_off_c, 0, 63, 100
1, 7431, Note_on_c, 0, 61, 100
1, 7479, Note_off_c, 0, 61, 100
1, 7479, Note_on_c, 0, 63, 100
1, 7527, Note_off_c, 0, 63, 100
1, 7527, Note_on_c, 0, 61, 100
1, 7575, Note_off_c, 0, 61, 100
1, 7575, Note_on_c, 0, 60, 100
1, 7623, Note_off_c, 0, 60, 100
1, 7623, Note_on_c, 0, 58, 100
1, 7671, Note_off_c, 0, 58, 100
1, 7671, Note_on_c, 0, 57, 100
1, 7815, Note_off_c, 0, 57, 100
1, 7815, Note_on_c, 0, 60, 100
1, 7863, Note_off_c, 0, 60, 100
1, 7863, Note_on_c, 0, 64, 100
1, 7884, Note_off_c, 0, 64, 100
1, 7884, Note_on_c, 0, 67, 100
1, 7926, Note_off_c, 0, 67, 100
1, 7926, Note_on_c, 0, 65, 100
1, 7990, Note_off_c, 0, 65, 100
1, 7990, Note_on_c, 0, 64, 100
1, 8032, Note_off_c, 0, 64, 100
1, 8032, Note_on_c, 0, 65, 100
1, 8053, Note_off_c, 0, 65, 100
1, 8053, Note_on_c, 0, 69, 100
1, 8149, Note_off_c, 0, 69, 100
1, 8149, Note_on_c, 0, 72, 100
1, 8341, Note_off_c, 0, 72, 100
1, 8557, Note_on_c, 0, 60, 100
1, 8581, Note_off_c, 0, 60, 100
1, 8581, Note_on_c, 0, 62, 100
1, 8605, Note_off_c, 0, 62, 100
1, 8605, Note_on_c, 0, 67, 100
1, 8629, Note_off_c, 0, 67, 100
1, 8629, Note_on_c, 0, 70, 100
1, 8661, Note_off_c, 0, 70, 100
1, 8661, Note_on_c, 0, 69, 100
1, 8693, Note_off_c, 0, 69, 100
1, 8693, Note_on_c, 0, 67, 100
1, 8757, Note_off_c, 0, 67, 100
1, 8757, Note_on_c, 0, 65, 100
1, 8789, Note_off_c, 0, 65, 100
1, 8789, Note_on_c, 0, 62, 100
1, 8821, Note_off_c, 0, 62, 100
1, 8821, Note_on_c, 0, 63, 100
1, 8897, Note_off_c, 0, 63, 100
1, 8897, Note_on_c, 0, 55, 100
1, 8935, Note_off_c, 0, 55, 100
1, 8935, Note_on_c, 0, 56, 100
1, 8973, Note_off_c, 0, 56, 100
1, 8973, Note_on_c, 0, 60, 100
1, 9011, Note_off_c, 0, 60, 100
1, 9011, Note_on_c, 0, 62, 100
1, 9155, Note_off_c, 0, 62, 100
1, 9155, Note_on_c, 0, 57, 100
1, 9203, Note_off_c, 0, 57, 100
1, 9203, Note_on_c, 0, 60, 100
1, 9267, Note_off_c, 0, 60, 100
1, 9267, Note_on_c, 0, 57, 100
1, 9299, Note_off_c, 0, 57, 100
1, 9299, Note_on_c, 0, 58, 100
1, 9331, Note_off_c, 0, 58, 100
1, 9331, Note_on_c, 0, 62, 100
1, 9363, Note_off_c, 0, 62, 100
1, 9363, Note_on_c, 0, 65, 100
1, 9395, Note_off_c, 0, 65, 100
1, 9395, Note_on_c, 0, 69, 100
1, 9443, Note_off_c, 0, 69, 100
1, 9443, Note_on_c, 0, 68, 100
1, 9491, Note_off_c, 0, 68, 100
1, 9491, Note_on_c, 0, 67, 100
1, 9539, Note_off_c, 0, 67, 100
1, 9539, Note_on_c, 0, 66, 100
1, 9587, Note_off_c, 0, 66, 100
1, 9587, Note_on_c, 0, 65, 100
1, 9635, Note_off_c, 0, 65, 100
1, 9635, Note_on_c, 0, 62, 100
1, 9683, Note_off_c, 0, 62, 100
1, 9683, Note_on_c, 0, 58, 100
1, 9731, Note_off_c, 0, 58, 100
1, 9731, Note_on_c, 0, 56, 100
1, 9779, Note_off_c, 0, 56, 100
1, 9779, Note_on_c, 0, 61, 100
1, 9827, Note_off_c, 0, 61, 100
1, 9827, Note_on_c, 0, 62, 100
1, 9875, Note_off_c, 0, 62, 100
1, 9875, Note_on_c, 0, 63, 100
1, 9923, Note_off_c, 0, 63, 100
1, 9923, Note_on_c, 0, 64, 100
1, 9971, Note_off_c, 0, 64, 100
1, 9971, Note_on_c, 0, 65, 100
1, 10019, Note_off_c, 0, 65, 100
1, 10019, Note_on_c, 0, 61, 100
1, 10067, Note_off_c, 0, 61, 100
1, 10067, Note_on_c, 0, 60, 100
1, 10115, Note_off_c, 0, 60, 100
1, 10115, Note_on_c, 0, 58, 100
1, 10163, Note_off_c, 0, 58, 100
1, 10163, Note_on_c, 0, 56, 100
1, 10355, Note_off_c, 0, 56, 100
1, 10547, Note_on_c, 0, 63, 100
1, 10595, Note_off_c, 0, 63, 100
1, 10595, Note_on_c, 0, 61, 100
1, 10643, Note_off_c, 0, 61, 100
1, 10643, Note_on_c, 0, 63, 100
1, 10691, Note_off_c, 0, 63, 100
1, 10691, Note_on_c, 0, 61, 100
1, 10763, Note_off_c, 0, 61, 100
1, 10763, Note_on_c, 0, 60, 100
1, 10835, Note_off_c, 0, 60, 100
1, 10835, Note_on_c, 0, 57, 100
1, 10883, Note_off_c, 0, 57, 100
1, 10883, Note_on_c, 0, 58, 100
1, 10907, Note_off_c, 0, 58, 100
1, 10907, Note_on_c, 0, 60, 100
1, 10931, Note_off_c, 0, 60, 100
1, 10931, Note_on_c, 0, 67, 100
1, 10995, Note_off_c, 0, 67, 100
1, 10995, Note_on_c, 0, 65, 100
1, 11059, Note_off_c, 0, 65, 100
1, 11059, Note_on_c, 0, 64, 100
1, 11123, Note_off_c, 0, 64, 100
1, 11123, Note_on_c, 0, 62, 100
1, 11187, Note_off_c, 0, 62, 100
1, 11187, Note_on_c, 0, 64, 100
1, 11251, Note_off_c, 0, 64, 100
1, 11251, Note_on_c, 0, 60, 100
1, 11555, Note_off_c, 0, 60, 100
1, 11555, Note_on_c, 0, 57, 100
1, 11603, Note_off_c, 0, 57, 100
1, 11603, Note_on_c, 0, 60, 100
1, 11651, Note_off_c, 0, 60, 100
1, 11651, Note_on_c, 0, 64, 100
1, 11699, Note_off_c, 0, 64, 100
1, 11699, Note_on_c, 0, 67, 100
1, 11891, Note_off_c, 0, 67, 100
1, 11891, Note_on_c, 0, 65, 100
1, 11987, Note_off_c, 0, 65, 100
1, 11987, Note_on_c, 0, 63, 100
1, 12035, Note_off_c, 0, 63, 100
1, 12035, Note_on_c, 0, 59, 100
1, 12083, Note_off_c, 0, 59, 100
1, 12083, Note_on_c, 0, 58, 100
1, 12131, Note_off_c, 0, 58, 100
1, 12131, Note_on_c, 0, 56, 100
1, 12275, Note_off_c, 0, 56, 100
1, 12275, Note_on_c, 0, 64, 100
1, 12323, Note_off_c, 0, 64, 100
1, 12323, Note_on_c, 0, 65, 100
1, 12371, Note_off_c, 0, 65, 100
1, 12371, Note_on_c, 0, 62, 100
1, 12419, Note_off_c, 0, 62, 100
1, 12419, Note_on_c, 0, 58, 100
1, 12467, Note_off_c, 0, 58, 100
1, 12467, Note_on_c, 0, 57, 100
1, 12515, Note_off_c, 0, 57, 100
1, 12515, Note_on_c, 0, 55, 100
1, 12563, Note_off_c, 0, 55, 100
1, 12563, Note_on_c, 0, 60, 100
1, 12611, Note_off_c, 0, 60, 100
1, 12611, Note_on_c, 0, 57, 100
1, 12659, Note_off_c, 0, 57, 100
1, 12659, Note_on_c, 0, 58, 100
1, 12707, Note_off_c, 0, 58, 100
1, 12707, Note_on_c, 0, 60, 100
1, 12755, Note_off_c, 0, 60, 100
1, 12755, Note_on_c, 0, 62, 100
1, 12803, Note_off_c, 0, 62, 100
1, 12803, Note_on_c, 0, 64, 100
1, 12851, Note_off_c, 0, 64, 100
1, 12851, Note_on_c, 0, 65, 100
1, 12899, Note_off_c, 0, 65, 100
1, 12899, Note_on_c, 0, 62, 100
1, 12947, Note_off_c, 0, 62, 100
1, 12947, Note_on_c, 0, 58, 100
1, 12995, Note_off_c, 0, 58, 100
1, 12995, Note_on_c, 0, 55, 100
1, 13043, Note_off_c, 0, 55, 100
1, 13043, Note_on_c, 0, 57, 100
1, 13091, Note_off_c, 0, 57, 100
1, 13091, Note_on_c, 0, 55, 100
1, 13139, Note_off_c, 0, 55, 100
1, 13139, Note_on_c, 0, 54, 100
1, 13187, Note_off_c, 0, 54, 100
1, 13187, Note_on_c, 0, 55, 100
1, 13235, Note_off_c, 0, 55, 100
1, 13235, Note_on_c, 0, 60, 100
1, 13307, Note_off_c, 0, 60, 100
1, 13307, Note_on_c, 0, 57, 100
1, 13355, Note_off_c, 0, 57, 100
1, 13355, Note_on_c, 0, 58, 100
1, 13379, Note_off_c, 0, 58, 100
1, 13379, Note_on_c, 0, 62, 100
1, 13403, Note_off_c, 0, 62, 100
1, 13403, Note_on_c, 0, 65, 100
1, 13427, Note_off_c, 0, 65, 100
1, 13427, Note_on_c, 0, 69, 100
1, 13523, Note_off_c, 0, 69, 100
1, 13523, Note_on_c, 0, 69, 100
1, 13571, Note_off_c, 0, 69, 100
1, 13571, Note_on_c, 0, 65, 100
1, 13667, Note_off_c, 0, 65, 100
1, 13667, Note_on_c, 0, 65, 100
1, 13715, Note_off_c, 0, 65, 100
1, 13715, Note_on_c, 0, 62, 100
1, 13811, Note_off_c, 0, 62, 100
1, 13811, Note_on_c, 0, 67, 100
1, 13907, Note_off_c, 0, 67, 100
1, 13907, Note_on_c, 0, 67, 100
1, 13955, Note_off_c, 0, 67, 100
1, 13955, Note_on_c, 0, 64, 100
1, 14067, Note_off_c, 0, 64, 100
1, 14067, Note_on_c, 0, 64, 100
1, 14131, Note_off_c, 0, 64, 100
1, 14131, Note_on_c, 0, 60, 100
1, 14195, Note_off_c, 0, 60, 100
1, 14195, Note_on_c, 0, 64, 100
1, 14243, Note_off_c, 0, 64, 100
1, 14243, Note_on_c, 0, 65, 100
1, 14291, Note_off_c, 0, 65, 100
1, 14291, Note_on_c, 0, 65, 100
1, 14339, Note_off_c, 0, 65, 100
1, 14339, Note_on_c, 0, 62, 100
1, 14451, Note_off_c, 0, 62, 100
1, 14451, Note_on_c, 0, 62, 100
1, 14515, Note_off_c, 0, 62, 100
1, 14515, Note_on_c, 0, 58, 100
1, 14579, Note_off_c, 0, 58, 100
1, 14579, Note_on_c, 0, 64, 100
1, 14627, Note_off_c, 0, 64, 100
1, 14627, Note_on_c, 0, 60, 100
1, 14675, Note_off_c, 0, 60, 100
1, 14675, Note_on_c, 0, 62, 100
1, 14723, Note_off_c, 0, 62, 100
1, 14723, Note_on_c, 0, 58, 100
1, 14771, Note_off_c, 0, 58, 100
1, 14771, Note_on_c, 0, 60, 100
1, 14819, Note_off_c, 0, 60, 100
1, 14819, Note_on_c, 0, 57, 100
1, 14867, Note_off_c, 0, 57, 100
1, 14867, Note_on_c, 0, 58, 100
1, 14915, Note_off_c, 0, 58, 100
1, 14915, Note_on_c, 0, 55, 100
1, 14963, Note_off_c, 0, 55, 100
1, 14963, Note_on_c, 0, 57, 100
1, 15011, Note_off_c, 0, 57, 100
1, 15011, Note_on_c, 0, 55, 100
1, 15059, Note_off_c, 0, 55, 100
1, 15059, Note_on_c, 0, 54, 100
1, 15107, Note_off_c, 0, 54, 100
1, 15107, Note_on_c, 0, 57, 100
1, 15155, Note_off_c, 0, 57, 100
1, 15155, Note_on_c, 0, 55, 100
1, 15203, Note_off_c, 0, 55, 100
1, 15203, Note_on_c, 0, 50, 100
1, 15251, Note_off_c, 0, 50, 100
1, 15251, Note_on_c, 0, 53, 100
1, 15299, Note_off_c, 0, 53, 100
1, 15299, Note_on_c, 0, 50, 100
1, 15347, Note_off_c, 0, 50, 100
1, 15347, Note_on_c, 0, 52, 100
1, 15462, Note_off_c, 0, 52, 100
1, 15462, Note_on_c, 0, 55, 100
1, 15500, Note_off_c, 0, 55, 100
1, 15500, Note_on_c, 0, 58, 100
1, 15538, Note_off_c, 0, 58, 100
1, 15538, Note_on_c, 0, 62, 100
1, 15602, Note_off_c, 0, 62, 100
1, 15602, Note_on_c, 0, 60, 100
1, 15666, Note_off_c, 0, 60, 100
1, 15666, Note_on_c, 0, 57, 100
1, 15858, Note_off_c, 0, 57, 100
1, 16402, Note_on_c, 0, 68, 100
1, 16498, Note_off_c, 0, 68, 100
1, 16498, Note_on_c, 0, 65, 100
1, 16618, Note_off_c, 0, 65, 100
1, 16618, Note_on_c, 0, 70, 100
1, 16642, Note_off_c, 0, 70, 100
1, 16642, Note_on_c, 0, 71, 100
1, 16666, Note_off_c, 0, 71, 100
1, 16666, Note_on_c, 0, 73, 100
1, 16690, Note_off_c, 0, 73, 100
1, 16690, Note_on_c, 0, 71, 100
1, 16738, Note_off_c, 0, 71, 100
1, 16738, Note_on_c, 0, 68, 100
1, 16834, Note_off_c, 0, 68, 100
1, 16834, Note_on_c, 0, 65, 100
1, 16930, Note_off_c, 0, 65, 100
1, 16930, Note_on_c, 0, 65, 100
1, 17026, Note_off_c, 0, 65, 100
1, 17026, Note_on_c, 0, 65, 100
1, 17266, Note_off_c, 0, 65, 100
1, 17266, Note_on_c, 0, 68, 100
1, 17362, Note_off_c, 0, 68, 100
1, 17746, Note_on_c, 0, 68, 100
1, 17842, Note_off_c, 0, 68, 100
1, 17842, Note_on_c, 0, 65, 100
1, 17906, Note_off_c, 0, 65, 100
1, 17906, Note_on_c, 0, 70, 100
1, 17938, Note_off_c, 0, 70, 100
1, 17938, Note_on_c, 0, 71, 100
1, 17970, Note_off_c, 0, 71, 100
1, 17970, Note_on_c, 0, 72, 100
1, 18002, Note_off_c, 0, 72, 100
1, 18002, Note_on_c, 0, 70, 100
1, 18034, Note_off_c, 0, 70, 100
1, 18034, Note_on_c, 0, 68, 100
1, 18130, Note_off_c, 0, 68, 100
1, 18130, Note_on_c, 0, 65, 100
1, 18226, Note_off_c, 0, 65, 100
1, 18226, Note_on_c, 0, 68, 100
1, 18322, Note_off_c, 0, 68, 100
1, 18322, Note_on_c, 0, 65, 100
1, 18418, Note_off_c, 0, 65, 100
1, 18418, Note_on_c, 0, 65, 100
1, 18674, Note_off_c, 0, 65, 100
1, 18674, Note_on_c, 0, 68, 100
1, 18738, Note_off_c, 0, 68, 100
1, 18738, Note_on_c, 0, 65, 100
1, 18802, Note_off_c, 0, 65, 100
1, 18802, Note_on_c, 0, 68, 100
1, 18866, Note_off_c, 0, 68, 100
1, 18866, Note_on_c, 0, 65, 100
1, 18930, Note_off_c, 0, 65, 100
1, 18930, Note_on_c, 0, 58, 100
1, 19122, Note_off_c, 0, 58, 100
1, 19306, Note_on_c, 0, 66, 100
1, 19330, Note_off_c, 0, 66, 100
1, 19330, Note_on_c, 0, 67, 100
1, 19354, Note_off_c, 0, 67, 100
1, 19354, Note_on_c, 0, 68, 100
1, 19474, Note_off_c, 0, 68, 100
1, 19474, Note_on_c, 0, 65, 100
1, 19608, Note_off_c, 0, 65, 100
1, 19608, Note_on_c, 0, 70, 100
1, 19646, Note_off_c, 0, 70, 100
1, 19646, Note_on_c, 0, 71, 100
1, 19684, Note_off_c, 0, 71, 100
1, 19684, Note_on_c, 0, 70, 100
1, 19722, Note_off_c, 0, 70, 100
1, 19722, Note_on_c, 0, 68, 100
1, 19808, Note_off_c, 0, 68, 100
1, 19808, Note_on_c, 0, 65, 100
1, 19904, Note_off_c, 0, 65, 100
1, 19904, Note_on_c, 0, 58, 100
1, 19952, Note_off_c, 0, 58, 100
1, 19952, Note_on_c, 0, 65, 100
1, 20144, Note_off_c, 0, 65, 100
1, 20144, Note_on_c, 0, 68, 100
1, 20240, Note_off_c, 0, 68, 100
1, 20240, Note_on_c, 0, 60, 100
1, 20336, Note_off_c, 0, 60, 100
1, 20336, Note_on_c, 0, 62, 100
1, 20374, Note_off_c, 0, 62, 100
1, 20374, Note_on_c, 0, 65, 100
1, 20489, Note_off_c, 0, 65, 100
1, 20489, Note_on_c, 0, 68, 100
1, 20585, Note_off_c, 0, 68, 100
1, 21007, Note_on_c, 0, 68, 100
1, 21199, Note_off_c, 0, 68, 100
1, 21199, Note_on_c, 0, 65, 100
1, 21295, Note_off_c, 0, 65, 100
1, 21295, Note_on_c, 0, 69, 100
1, 21327, Note_off_c, 0, 69, 100
1, 21327, Note_on_c, 0, 70, 100
1, 21359, Note_off_c, 0, 70, 100
1, 21359, Note_on_c, 0, 71, 100
1, 21423, Note_off_c, 0, 71, 100
1, 21423, Note_on_c, 0, 70, 100
1, 22063, Note_off_c, 0, 70, 100
1, 22063, Note_on_c, 0, 68, 100
1, 22159, Note_off_c, 0, 68, 100
1, 22159, Note_on_c, 0, 65, 100
1, 22303, Note_off_c, 0, 65, 100
1, 22303, Note_on_c, 0, 71, 100
1, 22351, Note_off_c, 0, 71, 100
1, 22351, Note_on_c, 0, 70, 100
1, 22399, Note_off_c, 0, 70, 100
1, 22399, Note_on_c, 0, 68, 100
1, 22447, Note_off_c, 0, 68, 100
1, 22447, Note_on_c, 0, 65, 100
1, 22575, Note_off_c, 0, 65, 100
1, 22575, Note_on_c, 0, 68, 100
1, 22735, Note_off_c, 0, 68, 100
1, 22735, Note_on_c, 0, 70, 100
1, 22879, Note_off_c, 0, 70, 100
1, 22879, Note_on_c, 0, 65, 100
1, 22975, Note_off_c, 0, 65, 100
1, 22975, Note_on_c, 0, 68, 100
1, 23215, Note_off_c, 0, 68, 100
1, 23215, Note_on_c, 0, 70, 100
1, 23311, Note_off_c, 0, 70, 100
1, 23311, Note_on_c, 0, 65, 100
1, 23455, Note_off_c, 0, 65, 100
1, 23455, Note_on_c, 0, 68, 100
1, 23551, Note_off_c, 0, 68, 100
1, 23551, Note_on_c, 0, 65, 100
1, 23647, Note_off_c, 0, 65, 100
1, 24031, Note_on_c, 0, 68, 100
1, 24127, Note_off_c, 0, 68, 100
1, 24127, Note_on_c, 0, 65, 100
1, 24223, Note_off_c, 0, 65, 100
1, 24223, Note_on_c, 0, 70, 100
1, 24319, Note_off_c, 0, 70, 100
1, 24319, Note_on_c, 0, 68, 100
1, 24463, Note_off_c, 0, 68, 100
1, 24463, Note_on_c, 0, 68, 100
1, 24559, Note_off_c, 0, 68, 100
1, 24559, Note_on_c, 0, 65, 100
1, 24607, Note_off_c, 0, 65, 100
1, 24607, Note_on_c, 0, 68, 100
1, 24895, Note_off_c, 0, 68, 100
1, 25567, Note_on_c, 0, 68, 100
1, 25663, Note_off_c, 0, 68, 100
1, 25663, Note_on_c, 0, 65, 100
1, 25711, Note_off_c, 0, 65, 100
1, 25711, Note_on_c, 0, 70, 100
1, 25807, Note_off_c, 0, 70, 100
1, 25807, Note_on_c, 0, 68, 100
1, 25999, Note_off_c, 0, 68, 100
1, 25999, Note_on_c, 0, 68, 100
1, 26095, Note_off_c, 0, 68, 100
1, 26095, Note_on_c, 0, 68, 100
1, 26191, Note_off_c, 0, 68, 100
1, 26191, Note_on_c, 0, 68, 100
1, 26383, Note_off_c, 0, 68, 100
1, 26383, Note_on_c, 0, 65, 100
1, 26431, Note_off_c, 0, 65, 100
1, 26431, Note_on_c, 0, 63, 100
1, 26527, Note_off_c, 0, 63, 100
1, 26527, Note_on_c, 0, 65, 100
1, 26623, Note_off_c, 0, 65, 100
1, 26623, Note_on_c, 0, 64, 100
1, 26719, Note_off_c, 0, 64, 100
1, 27055, Note_on_c, 0, 68, 100
1, 27151, Note_off_c, 0, 68, 100
1, 27151, Note_on_c, 0, 65, 100
1, 27199, Note_off_c, 0, 65, 100
1, 27199, Note_on_c, 0, 67, 100
1, 27247, Note_off_c, 0, 67, 100
1, 27247, Note_on_c, 0, 70, 100
1, 27295, Note_off_c, 0, 70, 100
1, 27295, Note_on_c, 0, 76, 100
1, 27343, Note_off_c, 0, 76, 100
1, 27343, Note_on_c, 0, 77, 100
1, 27871, Note_off_c, 0, 77, 100
1, 27871, Note_on_c, 0, 69, 100
1, 27919, Note_off_c, 0, 69, 100
1, 27919, Note_on_c, 0, 70, 100
1, 27967, Note_off_c, 0, 70, 100
1, 27967, Note_on_c, 0, 68, 100
1, 28015, Note_off_c, 0, 68, 100
1, 28015, Note_on_c, 0, 65, 100
1, 28079, Note_off_c, 0, 65, 100
1, 28079, Note_on_c, 0, 68, 100
1, 28143, Note_off_c, 0, 68, 100
1, 28143, Note_on_c, 0, 67, 100
1, 28207, Note_off_c, 0, 67, 100
1, 28207, Note_on_c, 0, 66, 100
1, 28303, Note_off_c, 0, 66, 100
1, 28519, Note_on_c, 0, 75, 100
1, 28543, Note_off_c, 0, 75, 100
1, 28543, Note_on_c, 0, 76, 100
1, 28567, Note_off_c, 0, 76, 100
1, 28567, Note_on_c, 0, 77, 100
1, 28639, Note_off_c, 0, 77, 100
1, 28639, Note_on_c, 0, 70, 100
1, 28687, Note_off_c, 0, 70, 100
1, 28687, Note_on_c, 0, 71, 100
1, 28735, Note_off_c, 0, 71, 100
1, 28735, Note_on_c, 0, 70, 100
1, 29071, Note_off_c, 0, 70, 100
1, 29071, Note_on_c, 0, 68, 100
1, 29167, Note_off_c, 0, 68, 100
1, 29167, Note_on_c, 0, 65, 100
1, 29474, Note_off_c, 0, 65, 100
1, 29474, Note_on_c, 0, 68, 100
1, 29512, Note_off_c, 0, 68, 100
1, 29512, Note_on_c, 0, 69, 100
1, 29598, Note_off_c, 0, 69, 100
1, 29598, Note_on_c, 0, 67, 100
1, 29646, Note_off_c, 0, 67, 100
1, 29646, Note_on_c, 0, 62, 100
1, 29694, Note_off_c, 0, 62, 100
1, 29694, Note_on_c, 0, 60, 100
1, 29790, Note_off_c, 0, 60, 100
1, 30078, Note_on_c, 0, 60, 100
1, 30126, Note_off_c, 0, 60, 100
1, 30126, Note_on_c, 0, 69, 100
1, 30164, Note_off_c, 0, 69, 100
1, 30164, Note_on_c, 0, 70, 100
1, 30202, Note_off_c, 0, 70, 100
1, 30202, Note_on_c, 0, 69, 100
1, 30240, Note_off_c, 0, 69, 100
1, 30240, Note_on_c, 0, 67, 100
1, 30316, Note_off_c, 0, 67, 100
1, 30316, Note_on_c, 0, 66, 100
1, 30364, Note_off_c, 0, 66, 100
1, 30364, Note_on_c, 0, 54, 100
1, 30412, Note_off_c, 0, 54, 100
1, 30412, Note_on_c, 0, 60, 100
1, 30460, Note_off_c, 0, 60, 100
1, 30460, Note_on_c, 0, 63, 100
1, 30508, Note_off_c, 0, 63, 100
1, 30508, Note_on_c, 0, 62, 100
1, 30556, Note_off_c, 0, 62, 100
1, 30556, Note_on_c, 0, 60, 100
1, 30604, Note_off_c, 0, 60, 100
1, 30604, Note_on_c, 0, 59, 100
1, 30652, Note_off_c, 0, 59, 100
1, 30652, Note_on_c, 0, 57, 100
1, 30700, Note_off_c, 0, 57, 100
1, 30700, Note_on_c, 0, 58, 100
1, 30796, Note_off_c, 0, 58, 100
1, 30796, Note_on_c, 0, 65, 100
1, 30844, Note_off_c, 0, 65, 100
1, 30844, Note_on_c, 0, 64, 100
1, 30892, Note_off_c, 0, 64, 100
1, 30892, Note_on_c, 0, 65, 100
1, 30988, Note_off_c, 0, 65, 100
1, 30988, Note_on_c, 0, 70, 100
1, 31036, Note_off_c, 0, 70, 100
1, 31036, Note_on_c, 0, 69, 100
1, 31084, Note_off_c, 0, 69, 100
1, 31084, Note_on_c, 0, 70, 100
1, 31180, Note_off_c, 0, 70, 100
1, 31180, Note_on_c, 0, 65, 100
1, 31228, Note_off_c, 0, 65, 100
1, 31228, Note_on_c, 0, 64, 100
1, 31276, Note_off_c, 0, 64, 100
1, 31276, Note_on_c, 0, 65, 100
1, 31372, Note_off_c, 0, 65, 100
1, 31372, Note_on_c, 0, 62, 100
1, 31420, Note_off_c, 0, 62, 100
1, 31420, Note_on_c, 0, 61, 100
1, 31468, Note_off_c, 0, 61, 100
1, 31468, Note_on_c, 0, 62, 100
1, 31564, Note_off_c, 0, 62, 100
1, 31564, Note_on_c, 0, 69, 100
1, 31612, Note_off_c, 0, 69, 100
1, 31612, Note_on_c, 0, 68, 100
1, 31660, Note_off_c, 0, 68, 100
1, 31660, Note_on_c, 0, 69, 100
1, 31756, Note_off_c, 0, 69, 100
1, 31756, Note_on_c, 0, 65, 100
1, 31804, Note_off_c, 0, 65, 100
1, 31804, Note_on_c, 0, 64, 100
1, 31852, Note_off_c, 0, 64, 100
1, 31852, Note_on_c, 0, 65, 100
1, 31948, Note_off_c, 0, 65, 100
1, 31948, Note_on_c, 0, 67, 100
1, 31996, Note_off_c, 0, 67, 100
1, 31996, Note_on_c, 0, 66, 100
1, 32044, Note_off_c, 0, 66, 100
1, 32044, Note_on_c, 0, 67, 100
1, 32108, Note_off_c, 0, 67, 100
1, 32108, Note_on_c, 0, 64, 100
1, 32172, Note_off_c, 0, 64, 100
1, 32172, Note_on_c, 0, 62, 100
1, 32236, Note_off_c, 0, 62, 100
1, 32236, Note_on_c, 0, 60, 100
1, 32268, Note_off_c, 0, 60, 100
1, 32268, Note_on_c, 0, 65, 100
1, 32332, Note_off_c, 0, 65, 100
1, 32332, Note_on_c, 0, 62, 100
1, 32364, Note_off_c, 0, 62, 100
1, 32364, Note_on_c, 0, 58, 100
1, 32428, Note_off_c, 0, 58, 100
1, 32428, Note_on_c, 0, 55, 100
1, 32476, Note_off_c, 0, 55, 100
1, 32476, Note_on_c, 0, 57, 100
1, 32524, Note_off_c, 0, 57, 100
1, 32524, Note_on_c, 0, 60, 100
1, 32908, Note_off_c, 0, 60, 100
1, 32908, Note_on_c, 0, 60, 100
1, 32956, Note_off_c, 0, 60, 100
1, 32956, Note_on_c, 0, 59, 100
1, 33004, Note_off_c, 0, 59, 100
1, 33004, Note_on_c, 0, 58, 100
1, 33052, Note_off_c, 0, 58, 100
1, 33052, Note_on_c, 0, 65, 100
1, 33100, Note_off_c, 0, 65, 100
1, 33100, Note_on_c, 0, 62, 100
1, 33148, Note_off_c, 0, 62, 100
1, 33148, Note_on_c, 0, 58, 100
1, 33196, Note_off_c, 0, 58, 100
1, 33196, Note_on_c, 0, 57, 100
1, 33292, Note_off_c, 0, 57, 100
1, 33292, Note_on_c, 0, 55, 100
1, 33484, Note_off_c, 0, 55, 100
1, 33676, Note_on_c, 0, 60, 100
1, 33820, Note_off_c, 0, 60, 100
1, 33820, Note_on_c, 0, 64, 100
1, 33868, Note_off_c, 0, 64, 100
1, 33868, Note_on_c, 0, 65, 100
1, 33916, Note_off_c, 0, 65, 100
1, 33916, Note_on_c, 0, 60, 100
1, 34012, Note_off_c, 0, 60, 100
1, 34012, Note_on_c, 0, 64, 100
1, 34108, Note_off_c, 0, 64, 100
1, 34108, Note_on_c, 0, 65, 100
1, 34204, Note_off_c, 0, 65, 100
1, 34444, Note_on_c, 0, 60, 100
1, 34588, Note_off_c, 0, 60, 100
1, 34588, Note_on_c, 0, 64, 100
1, 34636, Note_off_c, 0, 64, 100
1, 34636, Note_on_c, 0, 65, 100
1, 34684, Note_off_c, 0, 65, 100
1, 34684, Note_on_c, 0, 60, 100
1, 34732, Note_off_c, 0, 60, 100
1, 34732, Note_on_c, 0, 64, 100
1, 34828, Note_off_c, 0, 64, 100
1, 34828, Note_on_c, 0, 65, 100
1, 35212, Note_off_c, 0, 65, 100
1, 35212, Note_on_c, 0, 60, 100
1, 35308, Note_off_c, 0, 60, 100
1, 35308, Note_on_c, 0, 64, 100
1, 35404, Note_off_c, 0, 64, 100
1, 35404, Note_on_c, 0, 65, 100
1, 35452, Note_off_c, 0, 65, 100
1, 35452, Note_on_c, 0, 60, 100
1, 35548, Note_off_c, 0, 60, 100
1, 35548, Note_on_c, 0, 64, 100
1, 35644, Note_off_c, 0, 64, 100
1, 35644, Note_on_c, 0, 64, 100
1, 35692, Note_off_c, 0, 64, 100
1, 35692, Note_on_c, 0, 65, 100
1, 35980, Note_off_c, 0, 65, 100
1, 35980, Note_on_c, 0, 63, 100
1, 36012, Note_off_c, 0, 63, 100
1, 36012, Note_on_c, 0, 62, 100
1, 36044, Note_off_c, 0, 62, 100
1, 36044, Note_on_c, 0, 60, 100
1, 36076, Note_off_c, 0, 60, 100
1, 36076, Note_on_c, 0, 59, 100
1, 36172, Note_off_c, 0, 59, 100
1, 36172, Note_on_c, 0, 59, 100
1, 36364, Note_off_c, 0, 59, 100
1, 36940, Note_on_c, 0, 65, 100
1, 37036, Note_off_c, 0, 65, 100
1, 37036, Note_on_c, 0, 68, 100
1, 37132, Note_off_c, 0, 68, 100
1, 37132, Note_on_c, 0, 67, 100
1, 37228, Note_off_c, 0, 67, 100
1, 37228, Note_on_c, 0, 65, 100
1, 37324, Note_off_c, 0, 65, 100
1, 37324, Note_on_c, 0, 68, 100
1, 37420, Note_off_c, 0, 68, 100
1, 37708, Note_on_c, 0, 65, 100
1, 37804, Note_off_c, 0, 65, 100
1, 37804, Note_on_c, 0, 68, 100
1, 37900, Note_off_c, 0, 68, 100
1, 37900, Note_on_c, 0, 67, 100
1, 37948, Note_off_c, 0, 67, 100
1, 37948, Note_on_c, 0, 65, 100
1, 37996, Note_off_c, 0, 65, 100
1, 37996, Note_on_c, 0, 68, 100
1, 38092, Note_off_c, 0, 68, 100
1, 38092, Note_on_c, 0, 59, 100
1, 38188, Note_off_c, 0, 59, 100
1, 38572, Note_on_c, 0, 68, 100
1, 38620, Note_off_c, 0, 68, 100
1, 38620, Note_on_c, 0, 69, 100
1, 38764, Note_off_c, 0, 69, 100
1, 38764, Note_on_c, 0, 64, 100
1, 38812, Note_off_c, 0, 64, 100
1, 38812, Note_on_c, 0, 65, 100
1, 38956, Note_off_c, 0, 65, 100
1, 38956, Note_on_c, 0, 59, 100
1, 39004, Note_off_c, 0, 59, 100
1, 39004, Note_on_c, 0, 60, 100
1, 39148, Note_off_c, 0, 60, 100
1, 39148, Note_on_c, 0, 55, 100
1, 39196, Note_off_c, 0, 55, 100
1, 39196, Note_on_c, 0, 57, 100
1, 39340, Note_off_c, 0, 57, 100
1, 39340, Note_on_c, 0, 57, 100
1, 39388, Note_off_c, 0, 57, 100
1, 39388, Note_on_c, 0, 58, 100
1, 39436, Note_off_c, 0, 58, 100
1, 39436, Note_on_c, 0, 57, 100
1, 39484, Note_off_c, 0, 57, 100
1, 39484, Note_on_c, 0, 55, 100
1, 39532, Note_off_c, 0, 55, 100
1, 39532, Note_on_c, 0, 54, 100
1, 39580, Note_off_c, 0, 54, 100
1, 39580, Note_on_c, 0, 57, 100
1, 39628, Note_off_c, 0, 57, 100
1, 39628, Note_on_c, 0, 60, 100
1, 39676, Note_off_c, 0, 60, 100
1, 39676, Note_on_c, 0, 62, 100
1, 39724, Note_off_c, 0, 62, 100
1, 39724, Note_on_c, 0, 63, 100
1, 39772, Note_off_c, 0, 63, 100
1, 39772, Note_on_c, 0, 62, 100
1, 39820, Note_off_c, 0, 62, 100
1, 39820, Note_on_c, 0, 56, 100
1, 39868, Note_off_c, 0, 56, 100
1, 39868, Note_on_c, 0, 54, 100
1, 39916, Note_off_c, 0, 54, 100
1, 39916, Note_on_c, 0, 55, 100
1, 40060, Note_off_c, 0, 55, 100
1, 40060, Note_on_c, 0, 58, 100
1, 40084, Note_off_c, 0, 58, 100
1, 40084, Note_on_c, 0, 62, 100
1, 40108, Note_off_c, 0, 62, 100
1, 40108, Note_on_c, 0, 69, 100
1, 40415, Note_off_c, 0, 69, 100
1, 40415, Note_on_c, 0, 67, 100
1, 40453, Note_off_c, 0, 67, 100
1, 40453, Note_on_c, 0, 65, 100
1, 40491, Note_off_c, 0, 65, 100
1, 40491, Note_on_c, 0, 64, 100
1, 40539, Note_off_c, 0, 64, 100
1, 40539, Note_on_c, 0, 62, 100
1, 40587, Note_off_c, 0, 62, 100
1, 40587, Note_on_c, 0, 60, 100
1, 40635, Note_off_c, 0, 60, 100
1, 40635, Note_on_c, 0, 59, 100
1, 40683, Note_off_c, 0, 59, 100
1, 40683, Note_on_c, 0, 58, 100
1, 40721, Note_off_c, 0, 58, 100
1, 40721, Note_on_c, 0, 62, 100
1, 40759, Note_off_c, 0, 62, 100
1, 40759, Note_on_c, 0, 65, 100
1, 40797, Note_off_c, 0, 65, 100
1, 40797, Note_on_c, 0, 69, 100
1, 40835, Note_off_c, 0, 69, 100
1, 40835, Note_on_c, 0, 72, 100
1, 40921, Note_off_c, 0, 72, 100
1, 40921, Note_on_c, 0, 69, 100
1, 40969, Note_off_c, 0, 69, 100
1, 40969, Note_on_c, 0, 70, 100
1, 41017, Note_off_c, 0, 70, 100
1, 41017, Note_on_c, 0, 67, 100
1, 41065, Note_off_c, 0, 67, 100
1, 41065, Note_on_c, 0, 69, 100
1, 41113, Note_off_c, 0, 69, 100
1, 41113, Note_on_c, 0, 67, 100
1, 41161, Note_off_c, 0, 67, 100
1, 41161, Note_on_c, 0, 66, 100
1, 41209, Note_off_c, 0, 66, 100
1, 41209, Note_on_c, 0, 69, 100
1, 41257, Note_off_c, 0, 69, 100
1, 41257, Note_on_c, 0, 67, 100
1, 41305, Note_off_c, 0, 67, 100
1, 41305, Note_on_c, 0, 62, 100
1, 41353, Note_off_c, 0, 62, 100
1, 41353, Note_on_c, 0, 65, 100
1, 41401, Note_off_c, 0, 65, 100
1, 41401, Note_on_c, 0, 62, 100
1, 41449, Note_off_c, 0, 62, 100
1, 41449, Note_on_c, 0, 64, 100
1, 41497, Note_off_c, 0, 64, 100
1, 41497, Note_on_c, 0, 62, 100
1, 41545, Note_off_c, 0, 62, 100
1, 41545, Note_on_c, 0, 61, 100
1, 41593, Note_off_c, 0, 61, 100
1, 41593, Note_on_c, 0, 62, 100
1, 41641, Note_off_c, 0, 62, 100
1, 41641, Note_on_c, 0, 65, 100
1, 41689, Note_off_c, 0, 65, 100
1, 41689, Note_on_c, 0, 62, 100
1, 41737, Note_off_c, 0, 62, 100
1, 41737, Note_on_c, 0, 58, 100
1, 41785, Note_off_c, 0, 58, 100
1, 41785, Note_on_c, 0, 55, 100
1, 41871, Note_off_c, 0, 55, 100
1, 41871, Note_on_c, 0, 57, 100
1, 41909, Note_off_c, 0, 57, 100
1, 41909, Note_on_c, 0, 55, 100
1, 41947, Note_off_c, 0, 55, 100
1, 41947, Note_on_c, 0, 54, 100
1, 41985, Note_off_c, 0, 54, 100
1, 41985, Note_on_c, 0, 55, 100
1, 42023, Note_off_c, 0, 55, 100
1, 42023, Note_on_c, 0, 60, 100
1, 42071, Note_off_c, 0, 60, 100
1, 42071, Note_on_c, 0, 57, 100
1, 42119, Note_off_c, 0, 57, 100
1, 42119, Note_on_c, 0, 58, 100
1, 42167, Note_off_c, 0, 58, 100
1, 42167, Note_on_c, 0, 62, 100
1, 42215, Note_off_c, 0, 62, 100
1, 42215, Note_on_c, 0, 69, 100
1, 42263, Note_off_c, 0, 69, 100
1, 42263, Note_on_c, 0, 70, 100
1, 42311, Note_off_c, 0, 70, 100
1, 42311, Note_on_c, 0, 69, 100
1, 42359, Note_off_c, 0, 69, 100
1, 42359, Note_on_c, 0, 67, 100
1, 42407, Note_off_c, 0, 67, 100
1, 42407, Note_on_c, 0, 65, 100
1, 42471, Note_off_c, 0, 65, 100
1, 42471, Note_on_c, 0, 62, 100
1, 42535, Note_off_c, 0, 62, 100
1, 42535, Note_on_c, 0, 58, 100
1, 42599, Note_off_c, 0, 58, 100
1, 42599, Note_on_c, 0, 57, 100
1, 42695, Note_off_c, 0, 57, 100
1, 42983, Note_on_c, 0, 55, 100
1, 43031, Note_off_c, 0, 55, 100
1, 43031, Note_on_c, 0, 53, 100
1, 43079, Note_off_c, 0, 53, 100
1, 43079, Note_on_c, 0, 52, 100
1, 43127, Note_off_c, 0, 52, 100
1, 43127, Note_on_c, 0, 53, 100
1, 43175, Note_off_c, 0, 53, 100
1, 43175, Note_on_c, 0, 58, 100
1, 43223, Note_off_c, 0, 58, 100
1, 43223, Note_on_c, 0, 57, 100
1, 43271, Note_off_c, 0, 57, 100
1, 43271, Note_on_c, 0, 56, 100
1, 43319, Note_off_c, 0, 56, 100
1, 43319, Note_on_c, 0, 57, 100
1, 43367, Note_off_c, 0, 57, 100
1, 43367, Note_on_c, 0, 62, 100
1, 43415, Note_off_c, 0, 62, 100
1, 43415, Note_on_c, 0, 60, 100
1, 43463, Note_off_c, 0, 60, 100
1, 43463, Note_on_c, 0, 59, 100
1, 43511, Note_off_c, 0, 59, 100
1, 43511, Note_on_c, 0, 60, 100
1, 43597, Note_off_c, 0, 60, 100
1, 43597, Note_on_c, 0, 67, 100
1, 43635, Note_off_c, 0, 67, 100
1, 43635, Note_on_c, 0, 65, 100
1, 43673, Note_off_c, 0, 65, 100
1, 43673, Note_on_c, 0, 64, 100
1, 43711, Note_off_c, 0, 64, 100
1, 43711, Note_on_c, 0, 65, 100
1, 43749, Note_off_c, 0, 65, 100
1, 43749, Note_on_c, 0, 69, 100
1, 43797, Note_off_c, 0, 69, 100
1, 43797, Note_on_c, 0, 70, 100
1, 43845, Note_off_c, 0, 70, 100
1, 43845, Note_on_c, 0, 71, 100
1, 43893, Note_off_c, 0, 71, 100
1, 43893, Note_on_c, 0, 72, 100
1, 43941, Note_off_c, 0, 72, 100
1, 43941, Note_on_c, 0, 70, 100
1, 44037, Note_off_c, 0, 70, 100
1, 44037, Note_on_c, 0, 58, 100
1, 44085, Note_off_c, 0, 58, 100
1, 44085, Note_on_c, 0, 62, 100
1, 44133, Note_off_c, 0, 62, 100
1, 44133, Note_on_c, 0, 65, 100
1, 44171, Note_off_c, 0, 65, 100
1, 44171, Note_on_c, 0, 69, 100
1, 44209, Note_off_c, 0, 69, 100
1, 44209, Note_on_c, 0, 68, 100
1, 44247, Note_off_c, 0, 68, 100
1, 44247, Note_on_c, 0, 67, 100
1, 44285, Note_off_c, 0, 67, 100
1, 44285, Note_on_c, 0, 66, 100
1, 44323, Note_off_c, 0, 66, 100
1, 44323, Note_on_c, 0, 65, 100
1, 44371, Note_off_c, 0, 65, 100
1, 44371, Note_on_c, 0, 62, 100
1, 44419, Note_off_c, 0, 62, 100
1, 44419, Note_on_c, 0, 58, 100
1, 44467, Note_off_c, 0, 58, 100
1, 44467, Note_on_c, 0, 55, 100
1, 44547, Note_off_c, 0, 55, 100
1, 44547, Note_on_c, 0, 57, 100
1, 44611, Note_off_c, 0, 57, 100
1, 44611, Note_on_c, 0, 60, 100
1, 44643, Note_off_c, 0, 60, 100
1, 44643, Note_on_c, 0, 64, 100
1, 44675, Note_off_c, 0, 64, 100
1, 44675, Note_on_c, 0, 67, 100
1, 44745, Note_off_c, 0, 67, 100
1, 44745, Note_on_c, 0, 65, 100
1, 44783, Note_off_c, 0, 65, 100
1, 44783, Note_on_c, 0, 64, 100
1, 44821, Note_off_c, 0, 64, 100
1, 44821, Note_on_c, 0, 65, 100
1, 44859, Note_off_c, 0, 65, 100
1, 44859, Note_on_c, 0, 69, 100
1, 44897, Note_off_c, 0, 69, 100
1, 44897, Note_on_c, 0, 72, 100
1, 45185, Note_off_c, 0, 72, 100
1, 45185, Note_on_c, 0, 60, 100
1, 45233, Note_off_c, 0, 60, 100
1, 45233, Note_on_c, 0, 62, 100
1, 45281, Note_off_c, 0, 62, 100
1, 45281, Note_on_c, 0, 67, 100
1, 45319, Note_off_c, 0, 67, 100
1, 45319, Note_on_c, 0, 70, 100
1, 45357, Note_off_c, 0, 70, 100
1, 45357, Note_on_c, 0, 67, 100
1, 45395, Note_off_c, 0, 67, 100
1, 45395, Note_on_c, 0, 69, 100
1, 45433, Note_off_c, 0, 69, 100
1, 45433, Note_on_c, 0, 66, 100
1, 45471, Note_off_c, 0, 66, 100
1, 45471, Note_on_c, 0, 67, 100
1, 45519, Note_off_c, 0, 67, 100
1, 45519, Note_on_c, 0, 63, 100
1, 45567, Note_off_c, 0, 63, 100
1, 45567, Note_on_c, 0, 62, 100
1, 45615, Note_off_c, 0, 62, 100
1, 45615, Note_on_c, 0, 60, 100
1, 45663, Note_off_c, 0, 60, 100
1, 45663, Note_on_c, 0, 58, 100
1, 45711, Note_off_c, 0, 58, 100
1, 45711, Note_on_c, 0, 55, 100
1, 45759, Note_off_c, 0, 55, 100
1, 45759, Note_on_c, 0, 57, 100
1, 45855, Note_off_c, 0, 57, 100
1, 45855, Note_on_c, 0, 63, 100
1, 45903, Note_off_c, 0, 63, 100
1, 45903, Note_on_c, 0, 66, 100
1, 45951, Note_off_c, 0, 66, 100
1, 45951, Note_on_c, 0, 65, 100
1, 45999, Note_off_c, 0, 65, 100
1, 45999, Note_on_c, 0, 63, 100
1, 46047, Note_off_c, 0, 63, 100
1, 46047, Note_on_c, 0, 62, 100
1, 46095, Note_off_c, 0, 62, 100
1, 46095, Note_on_c, 0, 53, 100
1, 46143, Note_off_c, 0, 53, 100
1, 46143, Note_on_c, 0, 55, 100
1, 46191, Note_off_c, 0, 55, 100
1, 46191, Note_on_c, 0, 57, 100
1, 46239, Note_off_c, 0, 57, 100
1, 46239, Note_on_c, 0, 60, 100
1, 46287, Note_off_c, 0, 60, 100
1, 46287, Note_on_c, 0, 57, 100
1, 46335, Note_off_c, 0, 57, 100
1, 46335, Note_on_c, 0, 58, 100
1, 46383, Note_off_c, 0, 58, 100
1, 46383, Note_on_c, 0, 60, 100
1, 46431, Note_off_c, 0, 60, 100
1, 46431, Note_on_c, 0, 62, 100
1, 46479, Note_off_c, 0, 62, 100
1, 46479, Note_on_c, 0, 65, 100
1, 46527, Note_off_c, 0, 65, 100
1, 46527, Note_on_c, 0, 67, 100
1, 46575, Note_off_c, 0, 67, 100
1, 46575, Note_on_c, 0, 65, 100
1, 46623, Note_off_c, 0, 65, 100
1, 46623, Note_on_c, 0, 67, 100
1, 46671, Note_off_c, 0, 67, 100
1, 46671, Note_on_c, 0, 68, 100
1, 46719, Note_off_c, 0, 68, 100
1, 46719, Note_on_c, 0, 67, 100
1, 46767, Note_off_c, 0, 67, 100
1, 46767, Note_on_c, 0, 66, 100
1, 46815, Note_off_c, 0, 66, 100
1, 46815, Note_on_c, 0, 65, 100
1, 46853, Note_off_c, 0, 65, 100
1, 46853, Note_on_c, 0, 62, 100
1, 46891, Note_off_c, 0, 62, 100
1, 46891, Note_on_c, 0, 58, 100
1, 46929, Note_off_c, 0, 58, 100
1, 46929, Note_on_c, 0, 55, 100
1, 46967, Note_off_c, 0, 55, 100
1, 46967, Note_on_c, 0, 61, 100
1, 47043, Note_off_c, 0, 61, 100
1, 47043, Note_on_c, 0, 62, 100
1, 47081, Note_off_c, 0, 62, 100
1, 47081, Note_on_c, 0, 63, 100
1, 47119, Note_off_c, 0, 63, 100
1, 47119, Note_on_c, 0, 64, 100
1, 47157, Note_off_c, 0, 64, 100
1, 47157, Note_on_c, 0, 65, 100
1, 47243, Note_off_c, 0, 65, 100
1, 47243, Note_on_c, 0, 61, 100
1, 47291, Note_off_c, 0, 61, 100
1, 47291, Note_on_c, 0, 60, 100
1, 47339, Note_off_c, 0, 60, 100
1, 47339, Note_on_c, 0, 58, 100
1, 47387, Note_off_c, 0, 58, 100
1, 47387, Note_on_c, 0, 56, 100
1, 47531, Note_off_c, 0, 56, 100
1, 47531, Note_on_c, 0, 53, 100
1, 47579, Note_off_c, 0, 53, 100
1, 47579, Note_on_c, 0, 55, 100
1, 47643, Note_off_c, 0, 55, 100
1, 47643, Note_on_c, 0, 52, 100
1, 47707, Note_off_c, 0, 52, 100
1, 47707, Note_on_c, 0, 53, 100
1, 47771, Note_off_c, 0, 53, 100
1, 47771, Note_on_c, 0, 57, 100
1, 47819, Note_off_c, 0, 57, 100
1, 47819, Note_on_c, 0, 60, 100
1, 47867, Note_off_c, 0, 60, 100
1, 47867, Note_on_c, 0, 62, 100
1, 47915, Note_off_c, 0, 62, 100
1, 47915, Note_on_c, 0, 60, 100
1, 47963, Note_off_c, 0, 60, 100
1, 47963, Note_on_c, 0, 64, 100
1, 48059, Note_off_c, 0, 64, 100
1, 48059, Note_on_c, 0, 63, 100
1, 48107, Note_off_c, 0, 63, 100
1, 48107, Note_on_c, 0, 62, 100
1, 48155, Note_off_c, 0, 62, 100
1, 48155, Note_on_c, 0, 61, 100
1, 48203, Note_off_c, 0, 61, 100
1, 48203, Note_on_c, 0, 60, 100
1, 48299, Note_off_c, 0, 60, 100
1, 48539, Note_on_c, 0, 64, 100
1, 48577, Note_off_c, 0, 64, 100
1, 48577, Note_on_c, 0, 65, 100
1, 48615, Note_off_c, 0, 65, 100
1, 48615, Note_on_c, 0, 64, 100
1, 48653, Note_off_c, 0, 64, 100
1, 48653, Note_on_c, 0, 62, 100
1, 48691, Note_off_c, 0, 62, 100
1, 48691, Note_on_c, 0, 60, 100
1, 48729, Note_off_c, 0, 60, 100
1, 48729, Note_on_c, 0, 59, 100
1, 48777, Note_off_c, 0, 59, 100
1, 48777, Note_on_c, 0, 60, 100
1, 48825, Note_off_c, 0, 60, 100
1, 48825, Note_on_c, 0, 62, 100
1, 48873, Note_off_c, 0, 62, 100
1, 48873, Note_on_c, 0, 64, 100
1, 48921, Note_off_c, 0, 64, 100
1, 48921, Note_on_c, 0, 66, 100
1, 49017, Note_off_c, 0, 66, 100
1, 49017, Note_on_c, 0, 67, 100
1, 49113, Note_off_c, 0, 67, 100
1, 49113, Note_on_c, 0, 62, 100
1, 49305, Note_off_c, 0, 62, 100
1, 49305, Note_on_c, 0, 69, 100
1, 49343, Note_off_c, 0, 69, 100
1, 49343, Note_on_c, 0, 67, 100
1, 49381, Note_off_c, 0, 67, 100
1, 49381, Note_on_c, 0, 65, 100
1, 49419, Note_off_c, 0, 65, 100
1, 49419, Note_on_c, 0, 64, 100
1, 49457, Note_off_c, 0, 64, 100
1, 49457, Note_on_c, 0, 62, 100
1, 49495, Note_off_c, 0, 62, 100
1, 49495, Note_on_c, 0, 60, 100
1, 49543, Note_off_c, 0, 60, 100
1, 49543, Note_on_c, 0, 59, 100
1, 49591, Note_off_c, 0, 59, 100
1, 49591, Note_on_c, 0, 58, 100
1, 49639, Note_off_c, 0, 58, 100
1, 49639, Note_on_c, 0, 57, 100
1, 49687, Note_off_c, 0, 57, 100
1, 49687, Note_on_c, 0, 55, 100
1, 49725, Note_off_c, 0, 55, 100
1, 49725, Note_on_c, 0, 53, 100
1, 49763, Note_off_c, 0, 53, 100
1, 49763, Note_on_c, 0, 52, 100
1, 49801, Note_off_c, 0, 52, 100
1, 49801, Note_on_c, 0, 55, 100
1, 49839, Note_off_c, 0, 55, 100
1, 49839, Note_on_c, 0, 58, 100
1, 49925, Note_off_c, 0, 58, 100
1, 49925, Note_on_c, 0, 61, 100
1, 49973, Note_off_c, 0, 61, 100
1, 49973, Note_on_c, 0, 58, 100
1, 50021, Note_off_c, 0, 58, 100
1, 50021, Note_on_c, 0, 59, 100
1, 50069, Note_off_c, 0, 59, 100
1, 50069, Note_on_c, 0, 60, 100
1, 50117, Note_off_c, 0, 60, 100
1, 50117, Note_on_c, 0, 57, 100
1, 50165, Note_off_c, 0, 57, 100
1, 50165, Note_on_c, 0, 58, 100
1, 50213, Note_off_c, 0, 58, 100
1, 50213, Note_on_c, 0, 55, 100
1, 50261, Note_off_c, 0, 55, 100
1, 50261, Note_on_c, 0, 57, 100
1, 50405, Note_off_c, 0, 57, 100
1, 50405, Note_on_c, 0, 53, 100
1, 50453, Note_off_c, 0, 53, 100
1, 50453, Note_on_c, 0, 55, 100
1, 50501, Note_off_c, 0, 55, 100
1, 50501, Note_on_c, 0, 53, 100
1, 50549, Note_off_c, 0, 53, 100
1, 50549, Note_on_c, 0, 52, 100
1, 50597, Note_off_c, 0, 52, 100
1, 50597, Note_on_c, 0, 53, 100
1, 50645, Note_off_c, 0, 53, 100
1, 50645, Note_on_c, 0, 57, 100
1, 50693, Note_off_c, 0, 57, 100
1, 50693, Note_on_c, 0, 60, 100
1, 50741, Note_off_c, 0, 60, 100
1, 50741, Note_on_c, 0, 62, 100
1, 50789, Note_off_c, 0, 62, 100
1, 50789, Note_on_c, 0, 60, 100
1, 50837, Note_off_c, 0, 60, 100
1, 50837, Note_on_c, 0, 65, 100
1, 50885, Note_off_c, 0, 65, 100
1, 50885, Note_on_c, 0, 63, 100
1, 51029, Note_off_c, 0, 63, 100
1, 51029, Note_on_c, 0, 60, 100
1, 51077, Note_off_c, 0, 60, 100
1, 51077, Note_on_c, 0, 62, 100
1, 51125, Note_off_c, 0, 62, 100
1, 51125, Note_on_c, 0, 60, 100
1, 51173, Note_off_c, 0, 60, 100
1, 51173, Note_on_c, 0, 59, 100
1, 51221, Note_off_c, 0, 59, 100
1, 51221, Note_on_c, 0, 58, 100
1, 51259, Note_off_c, 0, 58, 100
1, 51259, Note_on_c, 0, 62, 100
1, 51297, Note_off_c, 0, 62, 100
1, 51297, Note_on_c, 0, 65, 100
1, 51335, Note_off_c, 0, 65, 100
1, 51335, Note_on_c, 0, 69, 100
1, 51373, Note_off_c, 0, 69, 100
1, 51373, Note_on_c, 0, 72, 100
1, 51459, Note_off_c, 0, 72, 100
1, 51459, Note_on_c, 0, 69, 100
1, 51603, Note_off_c, 0, 69, 100
1, 51603, Note_on_c, 0, 69, 100
1, 51699, Note_off_c, 0, 69, 100
1, 52467, Note_on_c, 0, 60, 100
1, 52491, Note_off_c, 0, 60, 100
1, 52491, Note_on_c, 0, 62, 100
1, 52515, Note_off_c, 0, 62, 100
1, 52515, Note_on_c, 0, 65, 100
1, 52539, Note_off_c, 0, 65, 100
1, 52539, Note_on_c, 0, 69, 100
1, 52563, Note_off_c, 0, 69, 100
1, 52563, Note_on_c, 0, 72, 100
1, 52635, Note_off_c, 0, 72, 100
1, 52635, Note_on_c, 0, 72, 100
1, 52707, Note_off_c, 0, 72, 100
1, 52707, Note_on_c, 0, 75, 100
1, 52731, Note_off_c, 0, 75, 100
1, 52731, Note_on_c, 0, 76, 100
1, 52755, Note_off_c, 0, 76, 100
1, 52755, Note_on_c, 0, 77, 100
1, 52851, Note_off_c, 0, 77, 100
1, 52851, Note_on_c, 0, 69, 100
1, 52899, Note_off_c, 0, 69, 100
1, 52899, Note_on_c, 0, 69, 100
1, 52947, Note_off_c, 0, 69, 100
1, 52947, Note_on_c, 0, 72, 100
1, 53043, Note_off_c, 0, 72, 100
1, 53043, Note_on_c, 0, 60, 100
1, 53091, Note_off_c, 0, 60, 100
1, 53091, Note_on_c, 0, 60, 100
1, 53177, Note_off_c, 0, 60, 100
1, 53177, Note_on_c, 0, 69, 100
1, 53215, Note_off_c, 0, 69, 100
1, 53215, Note_on_c, 0, 70, 100
1, 53253, Note_off_c, 0, 70, 100
1, 53253, Note_on_c, 0, 71, 100
1, 53272, Note_off_c, 0, 71, 100
1, 53272, Note_on_c, 0, 72, 100
1, 53291, Note_off_c, 0, 72, 100
1, 53291, Note_on_c, 0, 71, 100
1, 53310, Note_off_c, 0, 71, 100
1, 53310, Note_on_c, 0, 70, 100
1, 53329, Note_off_c, 0, 70, 100
1, 53329, Note_on_c, 0, 69, 100
1, 53377, Note_off_c, 0, 69, 100
1, 53377, Note_on_c, 0, 67, 100
1, 53425, Note_off_c, 0, 67, 100
1, 53425, Note_on_c, 0, 65, 100
1, 53473, Note_off_c, 0, 65, 100
1, 53473, Note_on_c, 0, 64, 100
1, 53521, Note_off_c, 0, 64, 100
1, 53521, Note_on_c, 0, 67, 100
1, 53569, Note_off_c, 0, 67, 100
1, 53569, Note_on_c, 0, 65, 100
1, 53617, Note_off_c, 0, 65, 100
1, 53617, Note_on_c, 0, 64, 100
1, 53665, Note_off_c, 0, 64, 100
1, 53665, Note_on_c, 0, 62, 100
1, 53713, Note_off_c, 0, 62, 100
1, 53713, Note_on_c, 0, 65, 100
1, 53777, Note_off_c, 0, 65, 100
1, 53777, Note_on_c, 0, 62, 100
1, 53841, Note_off_c, 0, 62, 100
1, 53841, Note_on_c, 0, 58, 100
1, 53905, Note_off_c, 0, 58, 100
1, 53905, Note_on_c, 0, 55, 100
1, 53953, Note_off_c, 0, 55, 100
1, 53953, Note_on_c, 0, 57, 100
1, 54097, Note_off_c, 0, 57, 100
1, 54097, Note_on_c, 0, 60, 100
1, 54193, Note_off_c, 0, 60, 100
1, 54577, Note_on_c, 0, 60, 100
1, 54673, Note_off_c, 0, 60, 100
1, 54673, Note_on_c, 0, 61, 100
1, 54700, Note_off_c, 0, 61, 100
1, 54700, Note_on_c, 0, 62, 100
1, 54727, Note_off_c, 0, 62, 100
1, 54727, Note_on_c, 0, 63, 100
1, 54754, Note_off_c, 0, 63, 100
1, 54754, Note_on_c, 0, 67, 100
1, 54781, Note_off_c, 0, 67, 100
1, 54781, Note_on_c, 0, 70, 100
1, 54808, Note_off_c, 0, 70, 100
1, 54808, Note_on_c, 0, 77, 100
1, 54862, Note_off_c, 0, 77, 100
1, 54862, Note_on_c, 0, 76, 100
1, 54910, Note_off_c, 0, 76, 100
1, 54910, Note_on_c, 0, 77, 100
1, 55006, Note_off_c, 0, 77, 100
1, 55006, Note_on_c, 0, 74, 100
1, 55198, Note_off_c, 0, 74, 100
1, 55438, Note_on_c, 0, 53, 100
1, 55520, Note_off_c, 0, 53, 100
1, 55520, Note_on_c, 0, 56, 100
1, 55547, Note_off_c, 0, 56, 100
1, 55547, Note_on_c, 0, 60, 100
1, 55574, Note_off_c, 0, 60, 100
1, 55574, Note_on_c, 0, 62, 100
1, 55601, Note_off_c, 0, 62, 100
1, 55601, Note_on_c, 0, 67, 100
1, 55628, Note_off_c, 0, 67, 100
1, 55628, Note_on_c, 0, 70, 100
1, 55652, Note_off_c, 0, 70, 100
1, 55652, Note_on_c, 0, 71, 100
1, 55676, Note_off_c, 0, 71, 100
1, 55676, Note_on_c, 0, 73, 100
1, 55700, Note_off_c, 0, 73, 100
1, 55700, Note_on_c, 0, 74, 100
1, 55772, Note_off_c, 0, 74, 100
1, 55772, Note_on_c, 0, 70, 100
1, 55964, Note_off_c, 0, 70, 100
1, 56132, Note_on_c, 0, 66, 100
1, 56156, Note_off_c, 0, 66, 100
1, 56156, Note_on_c, 0, 67, 100
1, 56180, Note_off_c, 0, 67, 100
1, 56180, Note_on_c, 0, 68, 100
1, 56492, Note_off_c, 0, 68, 100
1, 56492, Note_on_c, 0, 67, 100
1, 56524, Note_off_c, 0, 67, 100
1, 56524, Note_on_c, 0, 66, 100
1, 56556, Note_off_c, 0, 66, 100
1, 56556, Note_on_c, 0, 65, 100
1, 56588, Note_off_c, 0, 65, 100
1, 56588, Note_on_c, 0, 63, 100
1, 56609, Note_off_c, 0, 63, 100
1, 56609, Note_on_c, 0, 62, 100
1, 56630, Note_off_c, 0, 62, 100
1, 56630, Note_on_c, 0, 60, 100
1, 56651, Note_off_c, 0, 60, 100
1, 56651, Note_on_c, 0, 59, 100
1, 56693, Note_off_c, 0, 59, 100
1, 56693, Note_on_c, 0, 62, 100
1, 56735, Note_off_c, 0, 62, 100
1, 56735, Note_on_c, 0, 65, 100
1, 56756, Note_off_c, 0, 65, 100
1, 56756, Note_on_c, 0, 68, 100
1, 56777, Note_off_c, 0, 68, 100
1, 56777, Note_on_c, 0, 67, 100
1, 57113, Note_off_c, 0, 67, 100
1, 57113, Note_on_c, 0, 65, 100
1, 57225, Note_off_c, 0, 65, 100
1, 57225, Note_on_c, 0, 64, 100
1, 57289, Note_off_c, 0, 64, 100
1, 57289, Note_on_c, 0, 60, 100
1, 57385, Note_off_c, 0, 60, 100
1, 57641, Note_on_c, 0, 57, 100
1, 57737, Note_off_c, 0, 57, 100
1, 57737, Note_on_c, 0, 58, 100
1, 57754, Note_off_c, 0, 58, 100
1, 57754, Note_on_c, 0, 60, 100
1, 57788, Note_off_c, 0, 60, 100
1, 57788, Note_on_c, 0, 62, 100
1, 57805, Note_off_c, 0, 62, 100
1, 57805, Note_on_c, 0, 64, 100
1, 57822, Note_off_c, 0, 64, 100
1, 57822, Note_on_c, 0, 67, 100
1, 57856, Note_off_c, 0, 67, 100
1, 57856, Note_on_c, 0, 69, 100
1, 57873, Note_off_c, 0, 69, 100
1, 57873, Note_on_c, 0, 67, 100
1, 57890, Note_off_c, 0, 67, 100
1, 57890, Note_on_c, 0, 70, 100
1, 57907, Note_off_c, 0, 70, 100
1, 57907, Note_on_c, 0, 71, 100
1, 57924, Note_off_c, 0, 71, 100
1, 57924, Note_on_c, 0, 72, 100
1, 58260, Note_off_c, 0, 72, 100
1, 58260, Note_on_c, 0, 72, 100
1, 58308, Note_off_c, 0, 72, 100
1, 58308, Note_on_c, 0, 73, 100
1, 58404, Note_off_c, 0, 73, 100
1, 58404, Note_on_c, 0, 71, 100
1, 58436, Note_off_c, 0, 71, 100
1, 58436, Note_on_c, 0, 70, 100
1, 58468, Note_off_c, 0, 70, 100
1, 58468, Note_on_c, 0, 68, 100
1, 58500, Note_off_c, 0, 68, 100
1, 58500, Note_on_c, 0, 66, 100
1, 58538, Note_off_c, 0, 66, 100
1, 58538, Note_on_c, 0, 65, 100
1, 58576, Note_off_c, 0, 65, 100
1, 58576, Note_on_c, 0, 63, 100
1, 58614, Note_off_c, 0, 63, 100
1, 58614, Note_on_c, 0, 61, 100
1, 58652, Note_off_c, 0, 61, 100
1, 58652, Note_on_c, 0, 59, 100
1, 58690, Note_off_c, 0, 59, 100
1, 58690, Note_on_c, 0, 58, 100
1, 58834, Note_off_c, 0, 58, 100
1, 58834, Note_on_c, 0, 57, 100
1, 58882, Note_off_c, 0, 57, 100
1, 58882, Note_on_c, 0, 62, 100
1, 58914, Note_off_c, 0, 62, 100
1, 58914, Note_on_c, 0, 63, 100
1, 58946, Note_off_c, 0, 63, 100
1, 58946, Note_on_c, 0, 68, 100
1, 58978, Note_off_c, 0, 68, 100
1, 58978, Note_on_c, 0, 73, 100
1, 59010, Note_off_c, 0, 73, 100
1, 59010, Note_on_c, 0, 70, 100
1, 59266, Note_off_c, 0, 70, 100
1, 59266, Note_on_c, 0, 69, 100
1, 59314, Note_off_c, 0, 69, 100
1, 59314, Note_on_c, 0, 71, 100
1, 59362, Note_off_c, 0, 71, 100
1, 59362, Note_on_c, 0, 72, 100
1, 60130, Note_off_c, 0, 72, 100
1, 60130, Note_on_c, 0, 69, 100
1, 60178, Note_off_c, 0, 69, 100
1, 60178, Note_on_c, 0, 67, 100
1, 60274, Note_off_c, 0, 67, 100
1, 60274, Note_on_c, 0, 65, 100
1, 60322, Note_off_c, 0, 65, 100
1, 60322, Note_on_c, 0, 67, 100
1, 60418, Note_off_c, 0, 67, 100
1, 60658, Note_on_c, 0, 71, 100
1, 60706, Note_off_c, 0, 71, 100
1, 60706, Note_on_c, 0, 72, 100
1, 60754, Note_off_c, 0, 72, 100
1, 60754, Note_on_c, 0, 74, 100
1, 60866, Note_off_c, 0, 74, 100
1, 60866, Note_on_c, 0, 69, 100
1, 60930, Note_off_c, 0, 69, 100
1, 60930, Note_on_c, 0, 67, 100
1, 60994, Note_off_c, 0, 67, 100
1, 60994, Note_on_c, 0, 65, 100
1, 61042, Note_off_c, 0, 65, 100
1, 61042, Note_on_c, 0, 67, 100
1, 61522, Note_off_c, 0, 67, 100
1, 61522, Note_on_c, 0, 66, 100
1, 61546, Note_off_c, 0, 66, 100
1, 61546, Note_on_c, 0, 67, 100
1, 61666, Note_off_c, 0, 67, 100
1, 61666, Note_on_c, 0, 65, 100
1, 61762, Note_off_c, 0, 65, 100
1, 61762, Note_on_c, 0, 67, 100
1, 61786, Note_off_c, 0, 67, 100
1, 61786, Note_on_c, 0, 70, 100
1, 61810, Note_off_c, 0, 70, 100
1, 61810, Note_on_c, 0, 72, 100
1, 61834, Note_off_c, 0, 72, 100
1, 61834, Note_on_c, 0, 73, 100
1, 61858, Note_off_c, 0, 73, 100
1, 61858, Note_on_c, 0, 74, 100
1, 61930, Note_off_c, 0, 74, 100
1, 61930, Note_on_c, 0, 72, 100
1, 61986, Note_off_c, 0, 72, 100
1, 61986, Note_on_c, 0, 66, 100
1, 62018, Note_off_c, 0, 66, 100
1, 62018, Note_on_c, 0, 67, 100
1, 62082, Note_off_c, 0, 67, 100
1, 62082, Note_on_c, 0, 66, 100
1, 62114, Note_off_c, 0, 66, 100
1, 62114, Note_on_c, 0, 67, 100
1, 62482, Note_off_c, 0, 67, 100
1, 62482, Note_on_c, 0, 65, 100
1, 62530, Note_off_c, 0, 65, 100
1, 62530, Note_on_c, 0, 67, 100
1, 62626, Note_off_c, 0, 67, 100
1, 62626, Note_on_c, 0, 65, 100
1, 62722, Note_off_c, 0, 65, 100
1, 62722, Note_on_c, 0, 62, 100
1, 62770, Note_off_c, 0, 62, 100
1, 62770, Note_on_c, 0, 63, 100
1, 62818, Note_off_c, 0, 63, 100
1, 62818, Note_on_c, 0, 62, 100
1, 62866, Note_off_c, 0, 62, 100
1, 62866, Note_on_c, 0, 63, 100
1, 63058, Note_off_c, 0, 63, 100
1, 63058, Note_on_c, 0, 60, 100
1, 63170, Note_off_c, 0, 60, 100
1, 63170, Note_on_c, 0, 60, 100
1, 63298, Note_off_c, 0, 60, 100
1, 63298, Note_on_c, 0, 60, 100
1, 63490, Note_off_c, 0, 60, 100
1, 63706, Note_on_c, 0, 60, 100
1, 63778, Note_off_c, 0, 60, 100
1, 63778, Note_on_c, 0, 62, 100
1, 63826, Note_off_c, 0, 62, 100
1, 63826, Note_on_c, 0, 63, 100
1, 63850, Note_off_c, 0, 63, 100
1, 63850, Note_on_c, 0, 65, 100
1, 63874, Note_off_c, 0, 65, 100
1, 63874, Note_on_c, 0, 67, 100
1, 63970, Note_off_c, 0, 67, 100
1, 63970, Note_on_c, 0, 67, 100
1, 64018, Note_off_c, 0, 67, 100
1, 64018, Note_on_c, 0, 66, 100
1, 64066, Note_off_c, 0, 66, 100
1, 64066, Note_on_c, 0, 66, 100
1, 64162, Note_off_c, 0, 66, 100
1, 64162, Note_on_c, 0, 73, 100
1, 64373, Note_off_c, 0, 73, 100
1, 64373, Note_on_c, 0, 67, 100
1, 64411, Note_off_c, 0, 67, 100
1, 64411, Note_on_c, 0, 71, 100
1, 64449, Note_off_c, 0, 71, 100
1, 64449, Note_on_c, 0, 72, 100
1, 64545, Note_off_c, 0, 72, 100
1, 64545, Note_on_c, 0, 70, 100
1, 64641, Note_off_c, 0, 70, 100
1, 64641, Note_on_c, 0, 67, 100
1, 64673, Note_off_c, 0, 67, 100
1, 64673, Note_on_c, 0, 68, 100
1, 64737, Note_off_c, 0, 68, 100
1, 64737, Note_on_c, 0, 65, 100
1, 64801, Note_off_c, 0, 65, 100
1, 64801, Note_on_c, 0, 68, 100
1, 64833, Note_off_c, 0, 68, 100
1, 64833, Note_on_c, 0, 67, 100
1, 64881, Note_off_c, 0, 67, 100
1, 64881, Note_on_c, 0, 65, 100
1, 64929, Note_off_c, 0, 65, 100
1, 64929, Note_on_c, 0, 63, 100
1, 64977, Note_off_c, 0, 63, 100
1, 64977, Note_on_c, 0, 62, 100
1, 65073, Note_off_c, 0, 62, 100
1, 65073, Note_on_c, 0, 60, 100
1, 65121, Note_off_c, 0, 60, 100
1, 65121, Note_on_c, 0, 58, 100
1, 65169, Note_off_c, 0, 58, 100
1, 65169, Note_on_c, 0, 59, 100
1, 65217, Note_off_c, 0, 59, 100
1, 65217, Note_on_c, 0, 60, 100
1, 65265, Note_off_c, 0, 60, 100
1, 65265, Note_on_c, 0, 56, 100
1, 65313, Note_off_c, 0, 56, 100
1, 65313, Note_on_c, 0, 55, 100
1, 65361, Note_off_c, 0, 55, 100
1, 65361, Note_on_c, 0, 53, 100
1, 65409, Note_off_c, 0, 53, 100
1, 65409, Note_on_c, 0, 51, 100
1, 65441, Note_off_c, 0, 51, 100
1, 65441, Note_on_c, 0, 58, 100
1, 65505, Note_off_c, 0, 58, 100
1, 65505, Note_on_c, 0, 55, 100
1, 65537, Note_off_c, 0, 55, 100
1, 65537, Note_on_c, 0, 56, 100
1, 65569, Note_off_c, 0, 56, 100
1, 65569, Note_on_c, 0, 53, 100
1, 65639, Note_off_c, 0, 53, 100
1, 65639, Note_on_c, 0, 55, 100
1, 65677, Note_off_c, 0, 55, 100
1, 65677, Note_on_c, 0, 53, 100
1, 65715, Note_off_c, 0, 53, 100
1, 65715, Note_on_c, 0, 52, 100
1, 65753, Note_off_c, 0, 52, 100
1, 65753, Note_on_c, 0, 53, 100
1, 65791, Note_off_c, 0, 53, 100
1, 65791, Note_on_c, 0, 57, 100
1, 65839, Note_off_c, 0, 57, 100
1, 65839, Note_on_c, 0, 60, 100
1, 65887, Note_off_c, 0, 60, 100
1, 65887, Note_on_c, 0, 62, 100
1, 65935, Note_off_c, 0, 62, 100
1, 65935, Note_on_c, 0, 60, 100
1, 65983, Note_off_c, 0, 60, 100
1, 65983, Note_on_c, 0, 63, 100
1, 66079, Note_off_c, 0, 63, 100
1, 66079, Note_on_c, 0, 62, 100
1, 66127, Note_off_c, 0, 62, 100
1, 66127, Note_on_c, 0, 61, 100
1, 66175, Note_off_c, 0, 61, 100
1, 66175, Note_on_c, 0, 60, 100
1, 66223, Note_off_c, 0, 60, 100
1, 66223, Note_on_c, 0, 58, 100
1, 66271, Note_off_c, 0, 58, 100
1, 66271, Note_on_c, 0, 57, 100
1, 66319, Note_off_c, 0, 57, 100
1, 66319, Note_on_c, 0, 55, 100
1, 66415, Note_off_c, 0, 55, 100
1, 66415, Note_on_c, 0, 53, 100
1, 66463, Note_off_c, 0, 53, 100
1, 66463, Note_on_c, 0, 52, 100
1, 66511, Note_off_c, 0, 52, 100
1, 66511, Note_on_c, 0, 55, 100
1, 66559, Note_off_c, 0, 55, 100
1, 66559, Note_on_c, 0, 52, 100
1, 66591, Note_off_c, 0, 52, 100
1, 66591, Note_on_c, 0, 53, 100
1, 66623, Note_off_c, 0, 53, 100
1, 66623, Note_on_c, 0, 55, 100
1, 66687, Note_off_c, 0, 55, 100
1, 66687, Note_on_c, 0, 57, 100
1, 66751, Note_off_c, 0, 57, 100
1, 66751, Note_on_c, 0, 60, 100
1, 66847, Note_off_c, 0, 60, 100
1, 66847, Note_on_c, 0, 65, 100
1, 66943, Note_off_c, 0, 65, 100
1, 67615, Note_on_c, 0, 69, 100
1, 67663, Note_off_c, 0, 69, 100
1, 67663, Note_on_c, 0, 70, 100
1, 67711, Note_off_c, 0, 70, 100
1, 67711, Note_on_c, 0, 65, 100
1, 67759, Note_off_c, 0, 65, 100
1, 67759, Note_on_c, 0, 61, 100
1, 67807, Note_off_c, 0, 61, 100
1, 67807, Note_on_c, 0, 60, 100
1, 67855, Note_off_c, 0, 60, 100
1, 67855, Note_on_c, 0, 58, 100
1, 67927, Note_off_c, 0, 58, 100
1, 67927, Note_on_c, 0, 63, 100
1, 67975, Note_off_c, 0, 63, 100
1, 67975, Note_on_c, 0, 60, 100
1, 67999, Note_off_c, 0, 60, 100
1, 67999, Note_on_c, 0, 61, 100
1, 68047, Note_off_c, 0, 61, 100
1, 68047, Note_on_c, 0, 65, 100
1, 68071, Note_off_c, 0, 65, 100
1, 68071, Note_on_c, 0, 68, 100
1, 68095, Note_off_c, 0, 68, 100
1, 68095, Note_on_c, 0, 72, 100
1, 68143, Note_off_c, 0, 72, 100
1, 68143, Note_on_c, 0, 71, 100
1, 68191, Note_off_c, 0, 71, 100
1, 68191, Note_on_c, 0, 70, 100
1, 68287, Note_off_c, 0, 70, 100
1, 68671, Note_on_c, 0, 73, 100
1, 68700, Note_off_c, 0, 73, 100
1, 68700, Note_on_c, 0, 74, 100
1, 68714, Note_off_c, 0, 74, 100
1, 68714, Note_on_c, 0, 75, 100
1, 68773, Note_off_c, 0, 75, 100
1, 68773, Note_on_c, 0, 73, 100
1, 68817, Note_off_c, 0, 73, 100
1, 68817, Note_on_c, 0, 72, 100
1, 68831, Note_off_c, 0, 72, 100
1, 68831, Note_on_c, 0, 71, 100
1, 68845, Note_off_c, 0, 71, 100
1, 68845, Note_on_c, 0, 68, 100
1, 68859, Note_off_c, 0, 68, 100
1, 68859, Note_on_c, 0, 65, 100
1, 68907, Note_off_c, 0, 65, 100
1, 68907, Note_on_c, 0, 64, 100
1, 68955, Note_off_c, 0, 64, 100
1, 68955, Note_on_c, 0, 64, 100
1, 69003, Note_off_c, 0, 64, 100
1, 69003, Note_on_c, 0, 63, 100
1, 69147, Note_off_c, 0, 63, 100
1, 69147, Note_on_c, 0, 60, 100
1, 69243, Note_off_c, 0, 60, 100
1, 69243, Note_on_c, 0, 64, 100
1, 69275, Note_off_c, 0, 64, 100
1, 69275, Note_on_c, 0, 67, 100
1, 69307, Note_off_c, 0, 67, 100
1, 69307, Note_on_c, 0, 72, 100
1, 69339, Note_off_c, 0, 72, 100
1, 69339, Note_on_c, 0, 71, 100
1, 69371, Note_off_c, 0, 71, 100
1, 69371, Note_on_c, 0, 69, 100
1, 69435, Note_off_c, 0, 69, 100
1, 69435, Note_on_c, 0, 70, 100
1, 69531, Note_off_c, 0, 70, 100
1, 69531, Note_on_c, 0, 67, 100
1, 69627, Note_off_c, 0, 67, 100
1, 69627, Note_on_c, 0, 69, 100
1, 69723, Note_off_c, 0, 69, 100
1, 69723, Note_on_c, 0, 65, 100
1, 69963, Note_off_c, 0, 65, 100
1, 69963, Note_on_c, 0, 69, 100
1, 70059, Note_off_c, 0, 69, 100
1, 70059, Note_on_c, 0, 68, 100
1, 70107, Note_off_c, 0, 68, 100
1, 70107, Note_on_c, 0, 67, 100
1, 70155, Note_off_c, 0, 67, 100
1, 70155, Note_on_c, 0, 66, 100
1, 70203, Note_off_c, 0, 66, 100
1, 70203, Note_on_c, 0, 65, 100
1, 70251, Note_off_c, 0, 65, 100
1, 70251, Note_on_c, 0, 62, 100
1, 70299, Note_off_c, 0, 62, 100
1, 70299, Note_on_c, 0, 58, 100
1, 70347, Note_off_c, 0, 58, 100
1, 70347, Note_on_c, 0, 55, 100
1, 70395, Note_off_c, 0, 55, 100
1, 70395, Note_on_c, 0, 57, 100
1, 70510, Note_off_c, 0, 57, 100
1, 70510, Note_on_c, 0, 60, 100
1, 70548, Note_off_c, 0, 60, 100
1, 70548, Note_on_c, 0, 64, 100
1, 70586, Note_off_c, 0, 64, 100
1, 70586, Note_on_c, 0, 65, 100
1, 70650, Note_off_c, 0, 65, 100
1, 70650, Note_on_c, 0, 67, 100
1, 70714, Note_off_c, 0, 67, 100
1, 70714, Note_on_c, 0, 67, 100
1, 70778, Note_off_c, 0, 67, 100
1, 70778, Note_on_c, 0, 65, 100
1, 70826, Note_off_c, 0, 65, 100
1, 70826, Note_on_c, 0, 67, 100
1, 70874, Note_off_c, 0, 67, 100
1, 70874, Note_on_c, 0, 67, 100
1, 70922, Note_off_c, 0, 67, 100
1, 70922, Note_on_c, 0, 65, 100
1, 70970, Note_off_c, 0, 65, 100
1, 70970, Note_on_c, 0, 67, 100
1, 71114, Note_off_c, 0, 67, 100
1, 71114, Note_on_c, 0, 65, 100
1, 71162, Note_off_c, 0, 65, 100
1, 71162, Note_on_c, 0, 67, 100
1, 71258, Note_off_c, 0, 67, 100
1, 71258, Note_on_c, 0, 70, 100
1, 71354, Note_off_c, 0, 70, 100
1, 71354, Note_on_c, 0, 65, 100
1, 71450, Note_off_c, 0, 65, 100
1, 71450, Note_on_c, 0, 65, 100
1, 71498, Note_off_c, 0, 65, 100
1, 71498, Note_on_c, 0, 63, 100
1, 71546, Note_off_c, 0, 63, 100
1, 71546, Note_on_c, 0, 65, 100
1, 71642, Note_off_c, 0, 65, 100
1, 71642, Note_on_c, 0, 65, 100
1, 71690, Note_off_c, 0, 65, 100
1, 71690, Note_on_c, 0, 63, 100
1, 71738, Note_off_c, 0, 63, 100
1, 71738, Note_on_c, 0, 65, 100
1, 71866, Note_off_c, 0, 65, 100
1, 71866, Note_on_c, 0, 63, 100
1, 71930, Note_off_c, 0, 63, 100
1, 71930, Note_on_c, 0, 68, 100
1, 71978, Note_off_c, 0, 68, 100
1, 71978, Note_on_c, 0, 66, 100
1, 72026, Note_off_c, 0, 66, 100
1, 72026, Note_on_c, 0, 65, 100
1, 72074, Note_off_c, 0, 65, 100
1, 72074, Note_on_c, 0, 63, 100
1, 72122, Note_off_c, 0, 63, 100
1, 72122, Note_on_c, 0, 61, 100
1, 72170, Note_off_c, 0, 61, 100
1, 72170, Note_on_c, 0, 59, 100
1, 72218, Note_off_c, 0, 59, 100
1, 72218, Note_on_c, 0, 58, 100
1, 72266, Note_off_c, 0, 58, 100
1, 72266, Note_on_c, 0, 56, 100
1, 72314, Note_off_c, 0, 56, 100
1, 72314, Note_on_c, 0, 55, 100
1, 72352, Note_off_c, 0, 55, 100
1, 72352, Note_on_c, 0, 53, 100
1, 72390, Note_off_c, 0, 53, 100
1, 72390, Note_on_c, 0, 52, 100
1, 72428, Note_off_c, 0, 52, 100
1, 72428, Note_on_c, 0, 55, 100
1, 72466, Note_off_c, 0, 55, 100
1, 72466, Note_on_c, 0, 58, 100
1, 72504, Note_off_c, 0, 58, 100
1, 72504, Note_on_c, 0, 61, 100
1, 72552, Note_off_c, 0, 61, 100
1, 72552, Note_on_c, 0, 58, 100
1, 72600, Note_off_c, 0, 58, 100
1, 72600, Note_on_c, 0, 59, 100
1, 72648, Note_off_c, 0, 59, 100
1, 72648, Note_on_c, 0, 60, 100
1, 72792, Note_off_c, 0, 60, 100
1, 72792, Note_on_c, 0, 58, 100
1, 72840, Note_off_c, 0, 58, 100
1, 72840, Note_on_c, 0, 55, 100
1, 72888, Note_off_c, 0, 55, 100
1, 72888, Note_on_c, 0, 57, 100
1, 72984, Note_off_c, 0, 57, 100
1, 72984, Note_on_c, 0, 60, 100
1, 73080, Note_off_c, 0, 60, 100
1, 73080, Note_on_c, 0, 67, 100
1, 73128, Note_off_c, 0, 67, 100
1, 73128, Note_on_c, 0, 63, 100
1, 73176, Note_off_c, 0, 63, 100
1, 73176, Note_on_c, 0, 65, 100
1, 73224, Note_off_c, 0, 65, 100
1, 73224, Note_on_c, 0, 62, 100
1, 73272, Note_off_c, 0, 62, 100
1, 73272, Note_on_c, 0, 63, 100
1, 73348, Note_off_c, 0, 63, 100
1, 73348, Note_on_c, 0, 55, 100
1, 73386, Note_off_c, 0, 55, 100
1, 73386, Note_on_c, 0, 56, 100
1, 73424, Note_off_c, 0, 56, 100
1, 73424, Note_on_c, 0, 57, 100
1, 73462, Note_off_c, 0, 57, 100
1, 73462, Note_on_c, 0, 62, 100
1, 73606, Note_off_c, 0, 62, 100
1, 73606, Note_on_c, 0, 57, 100
1, 73654, Note_off_c, 0, 57, 100
1, 73654, Note_on_c, 0, 60, 100
1, 73702, Note_off_c, 0, 60, 100
1, 73702, Note_on_c, 0, 57, 100
1, 73750, Note_off_c, 0, 57, 100
1, 73750, Note_on_c, 0, 58, 100
1, 73798, Note_off_c, 0, 58, 100
1, 73798, Note_on_c, 0, 60, 100
1, 73846, Note_off_c, 0, 60, 100
1, 73846, Note_on_c, 0, 57, 100
1, 73894, Note_off_c, 0, 57, 100
1, 73894, Note_on_c, 0, 55, 100
1, 73942, Note_off_c, 0, 55, 100
1, 73942, Note_on_c, 0, 53, 100
1, 73990, Note_off_c, 0, 53, 100
1, 73990, Note_on_c, 0, 50, 100
1, 74038, Note_off_c, 0, 50, 100
1, 74038, Note_on_c, 0, 51, 100
1, 74086, Note_off_c, 0, 51, 100
1, 74086, Note_on_c, 0, 53, 100
1, 74134, Note_off_c, 0, 53, 100
1, 74134, Note_on_c, 0, 50, 100
1, 74182, Note_off_c, 0, 50, 100
1, 74182, Note_on_c, 0, 48, 100
1, 74230, Note_off_c, 0, 48, 100
1, 74230, Note_on_c, 0, 46, 100
1, 74326, Note_off_c, 0, 46, 100
1, 74326, Note_on_c, 0, 58, 100
1, 74422, Note_off_c, 0, 58, 100
1, 74806, Note_on_c, 0, 49, 100
1, 74854, Note_off_c, 0, 49, 100
1, 74854, Note_on_c, 0, 58, 100
1, 74902, Note_off_c, 0, 58, 100
1, 74902, Note_on_c, 0, 61, 100
1, 74950, Note_off_c, 0, 61, 100
1, 74950, Note_on_c, 0, 70, 100
1, 75046, Note_off_c, 0, 70, 100
1, 75046, Note_on_c, 0, 72, 100
1, 75094, Note_off_c, 0, 72, 100
1, 75094, Note_on_c, 0, 73, 100
1, 75142, Note_off_c, 0, 73, 100
1, 75142, Note_on_c, 0, 72, 100
1, 75190, Note_off_c, 0, 72, 100
1, 75190, Note_on_c, 0, 70, 100
1, 75286, Note_off_c, 0, 70, 100
1, 75286, Note_on_c, 0, 69, 100
1, 75526, Note_off_c, 0, 69, 100
1, 75526, Note_on_c, 0, 60, 100
1, 75574, Note_off_c, 0, 60, 100
1, 75574, Note_on_c, 0, 58, 100
1, 75670, Note_off_c, 0, 58, 100
1, 75670, Note_on_c, 0, 57, 100
1, 75766, Note_off_c, 0, 57, 100
1, 76150, Note_on_c, 0, 69, 100
1, 76198, Note_off_c, 0, 69, 100
1, 76198, Note_on_c, 0, 70, 100
1, 76246, Note_off_c, 0, 70, 100
1, 76246, Note_on_c, 0, 69, 100
1, 76294, Note_off_c, 0, 69, 100
1, 76294, Note_on_c, 0, 67, 100
1, 76342, Note_off_c, 0, 67, 100
1, 76342, Note_on_c, 0, 66, 100
1, 76406, Note_off_c, 0, 66, 100
1, 76406, Note_on_c, 0, 67, 100
1, 76438, Note_off_c, 0, 67, 100
1, 76438, Note_on_c, 0, 70, 100
1, 76470, Note_off_c, 0, 70, 100
1, 76470, Note_on_c, 0, 76, 100
1, 76502, Note_off_c, 0, 76, 100
1, 76502, Note_on_c, 0, 77, 100
1, 76630, Note_off_c, 0, 77, 100
1, 76630, Note_on_c, 0, 75, 100
1, 76678, Note_off_c, 0, 75, 100
1, 76678, Note_on_c, 0, 74, 100
1, 76822, Note_off_c, 0, 74, 100
1, 76822, Note_on_c, 0, 72, 100
1, 76870, Note_off_c, 0, 72, 100
1, 76870, Note_on_c, 0, 71, 100
1, 76918, Note_off_c, 0, 71, 100
1, 76918, Note_on_c, 0, 70, 100
1, 77014, Note_off_c, 0, 70, 100
1, 77014, Note_on_c, 0, 71, 100
1, 77062, Note_off_c, 0, 71, 100
1, 77062, Note_on_c, 0, 72, 100
1, 77206, Note_off_c, 0, 72, 100
1, 77206, Note_on_c, 0, 71, 100
1, 77254, Note_off_c, 0, 71, 100
1, 77254, Note_on_c, 0, 70, 100
1, 77302, Note_off_c, 0, 70, 100
1, 77302, Note_on_c, 0, 69, 100
1, 77446, Note_off_c, 0, 69, 100
1, 77446, Note_on_c, 0, 69, 100
1, 77470, Note_off_c, 0, 69, 100
1, 77470, Note_on_c, 0, 70, 100
1, 77558, Note_off_c, 0, 70, 100
1, 77558, Note_on_c, 0, 69, 100
1, 77622, Note_off_c, 0, 69, 100
1, 77622, Note_on_c, 0, 68, 100
1, 77686, Note_off_c, 0, 68, 100
1, 77686, Note_on_c, 0, 67, 100
1, 77782, Note_off_c, 0, 67, 100
1, 77782, Note_on_c, 0, 68, 100
1, 77830, Note_off_c, 0, 68, 100
1, 77830, Note_on_c, 0, 69, 100
1, 78166, Note_off_c, 0, 69, 100
1, 78166, Note_on_c, 0, 65, 100
1, 78262, Note_off_c, 0, 65, 100
1, 78262, Note_on_c, 0, 60, 100
1, 78406, Note_off_c, 0, 60, 100
1, 78406, Note_on_c, 0, 60, 100
1, 78598, Note_off_c, 0, 60, 100
1, 79942, Note_on_c, 0, 69, 100
1, 80086, Note_off_c, 0, 69, 100
1, 80086, Note_on_c, 0, 70, 100
1, 80246, Note_off_c, 0, 70, 100
1, 80246, Note_on_c, 0, 69, 100
1, 80470, Note_off_c, 0, 69, 100
1, 80470, Note_on_c, 0, 65, 100
1, 80566, Note_off_c, 0, 65, 100
1, 80566, Note_on_c, 0, 60, 100
1, 80662, Note_off_c, 0, 60, 100
1, 80662, Note_on_c, 0, 60, 100
1, 80758, Note_off_c, 0, 60, 100
1, 81478, Note_on_c, 0, 65, 100
1, 81622, Note_off_c, 0, 65, 100
1, 81622, Note_on_c, 0, 60, 100
1, 81718, Note_off_c, 0, 60, 100
1, 81718, Note_on_c, 0, 65, 100
1, 81910, Note_off_c, 0, 65, 100
1, 81910, Note_on_c, 0, 71, 100
1, 81934, Note_off_c, 0, 71, 100
1, 81934, Note_on_c, 0, 73, 100
1, 81958, Note_off_c, 0, 73, 100
1, 81958, Note_on_c, 0, 74, 100
1, 82078, Note_off_c, 0, 74, 100
1, 82078, Note_on_c, 0, 72, 100
1, 82366, Note_off_c, 0, 72, 100
1, 82870, Note_on_c, 0, 60, 100
1, 82924, Note_off_c, 0, 60, 100
1, 82924, Note_on_c, 0, 62, 100
1, 82978, Note_off_c, 0, 62, 100
1, 82978, Note_on_c, 0, 64, 100
1, 83005, Note_off_c, 0, 64, 100
1, 83005, Note_on_c, 0, 65, 100
1, 83032, Note_off_c, 0, 65, 100
1, 83032, Note_on_c, 0, 67, 100
1, 83059, Note_off_c, 0, 67, 100
1, 83059, Note_on_c, 0, 68, 100
1, 83155, Note_off_c, 0, 68, 100
1, 83155, Note_on_c, 0, 60, 100
1, 83203, Note_off_c, 0, 60, 100
1, 83203, Note_on_c, 0, 62, 100
1, 83251, Note_off_c, 0, 62, 100
1, 83251, Note_on_c, 0, 64, 100
1, 83299, Note_off_c, 0, 64, 100
1, 83299, Note_on_c, 0, 65, 100
1, 83347, Note_off_c, 0, 65, 100
1, 83347, Note_on_c, 0, 67, 100
1, 83395, Note_off_c, 0, 67, 100
1, 83395, Note_on_c, 0, 68, 100
1, 83475, Note_off_c, 0, 68, 100
1, 83475, Note_on_c, 0, 60, 100
1, 83507, Note_off_c, 0, 60, 100
1, 83507, Note_on_c, 0, 61, 100
1, 83539, Note_off_c, 0, 61, 100
1, 83539, Note_on_c, 0, 62, 100
1, 83571, Note_off_c, 0, 62, 100
1, 83571, Note_on_c, 0, 64, 100
1, 83603, Note_off_c, 0, 64, 100
1, 83603, Note_on_c, 0, 65, 100
1, 83635, Note_off_c, 0, 65, 100
1, 83635, Note_on_c, 0, 70, 100
1, 83731, Note_off_c, 0, 70, 100
1, 83731, Note_on_c, 0, 70, 100
1, 83779, Note_off_c, 0, 70, 100
1, 83779, Note_on_c, 0, 68, 100
1, 83891, Note_off_c, 0, 68, 100
1, 83891, Note_on_c, 0, 68, 100
1, 83955, Note_off_c, 0, 68, 100
1, 83955, Note_on_c, 0, 60, 100
1, 84051, Note_off_c, 0, 60, 100
1, 84051, Note_on_c, 0, 67, 100
1, 84083, Note_off_c, 0, 67, 100
1, 84083, Note_on_c, 0, 68, 100
1, 84115, Note_off_c, 0, 68, 100
1, 84115, Note_on_c, 0, 67, 100
1, 84147, Note_off_c, 0, 67, 100
1, 84147, Note_on_c, 0, 65, 100
1, 84179, Note_off_c, 0, 65, 100
1, 84179, Note_on_c, 0, 64, 100
1, 84211, Note_off_c, 0, 64, 100
1, 84211, Note_on_c, 0, 62, 100
1, 84259, Note_off_c, 0, 62, 100
1, 84259, Note_on_c, 0, 60, 100
1, 84307, Note_off_c, 0, 60, 100
1, 84307, Note_on_c, 0, 59, 100
1, 84355, Note_off_c, 0, 59, 100
1, 84355, Note_on_c, 0, 58, 100
1, 84595, Note_off_c, 0, 58, 100
1, 84595, Note_on_c, 0, 57, 100
1, 84691, Note_off_c, 0, 57, 100
1, 84691, Note_on_c, 0, 55, 100
1, 84787, Note_off_c, 0, 55, 100
1, 84979, Note_on_c, 0, 62, 100
1, 85075, Note_off_c, 0, 62, 100
1, 85075, Note_on_c, 0, 60, 100
1, 85171, Note_off_c, 0, 60, 100
1, 85171, Note_on_c, 0, 69, 100
1, 85243, Note_off_c, 0, 69, 100
1, 85243, Note_on_c, 0, 67, 100
1, 85315, Note_off_c, 0, 67, 100
1, 85315, Note_on_c, 0, 71, 100
1, 85339, Note_off_c, 0, 71, 100
1, 85339, Note_on_c, 0, 73, 100
1, 85363, Note_off_c, 0, 73, 100
1, 85363, Note_on_c, 0, 74, 100
1, 85459, Note_off_c, 0, 74, 100
1, 85459, Note_on_c, 0, 72, 100
1, 85555, Note_off_c, 0, 72, 100
1, 85939, Note_on_c, 0, 71, 100
1, 85987, Note_off_c, 0, 71, 100
1, 85987, Note_on_c, 0, 72, 100
1, 86131, Note_off_c, 0, 72, 100
1, 86131, Note_on_c, 0, 71, 100
1, 86179, Note_off_c, 0, 71, 100
1, 86179, Note_on_c, 0, 72, 100
1, 86323, Note_off_c, 0, 72, 100
1, 86323, Note_on_c, 0, 70, 100
1, 86371, Note_off_c, 0, 70, 100
1, 86371, Note_on_c, 0, 71, 100
1, 86419, Note_off_c, 0, 71, 100
1, 86419, Note_on_c, 0, 70, 100
1, 86467, Note_off_c, 0, 70, 100
1, 86467, Note_on_c, 0, 68, 100
1, 86515, Note_off_c, 0, 68, 100
1, 86515, Note_on_c, 0, 65, 100
1, 86611, Note_off_c, 0, 65, 100
1, 86611, Note_on_c, 0, 63, 100
1, 86707, Note_off_c, 0, 63, 100
1, 86707, Note_on_c, 0, 65, 100
1, 86851, Note_off_c, 0, 65, 100
1, 86851, Note_on_c, 0, 63, 100
1, 86899, Note_off_c, 0, 63, 100
1, 86899, Note_on_c, 0, 65, 100
1, 87043, Note_off_c, 0, 65, 100
1, 87043, Note_on_c, 0, 65, 100
1, 87155, Note_off_c, 0, 65, 100
1, 87155, Note_on_c, 0, 63, 100
1, 87219, Note_off_c, 0, 63, 100
1, 87219, Note_on_c, 0, 65, 100
1, 87283, Note_off_c, 0, 65, 100
1, 87283, Note_on_c, 0, 68, 100
1, 87411, Note_off_c, 0, 68, 100
1, 87411, Note_on_c, 0, 60, 100
1, 87475, Note_off_c, 0, 60, 100
1, 87475, Note_on_c, 0, 65, 100
1, 87667, Note_off_c, 0, 65, 100
1, 87667, Note_on_c, 0, 65, 100
1, 87859, Note_off_c, 0, 65, 100
1, 87859, Note_on_c, 0, 68, 100
1, 87907, Note_off_c, 0, 68, 100
1, 87907, Note_on_c, 0, 70, 100
1, 87955, Note_off_c, 0, 70, 100
1, 87955, Note_on_c, 0, 68, 100
1, 88003, Note_off_c, 0, 68, 100
1, 88003, Note_on_c, 0, 65, 100
1, 88051, Note_off_c, 0, 65, 100
1, 88051, Note_on_c, 0, 63, 100
1, 88147, Note_off_c, 0, 63, 100
1, 88147, Note_on_c, 0, 60, 100
1, 88243, Note_off_c, 0, 60, 100
1, 88243, Note_on_c, 0, 59, 100
1, 88435, Note_off_c, 0, 59, 100
1, 88435, Note_on_c, 0, 59, 100
1, 88531, Note_off_c, 0, 59, 100
1, 88531, Note_on_c, 0, 58, 100
1, 88627, Note_off_c, 0, 58, 100
1, 88627, Note_on_c, 0, 59, 100
1, 88675, Note_off_c, 0, 59, 100
1, 88675, Note_on_c, 0, 58, 100
1, 88723, Note_off_c, 0, 58, 100
1, 88723, Note_on_c, 0, 56, 100
1, 88819, Note_off_c, 0, 56, 100
1, 88819, Note_on_c, 0, 53, 100
1, 88963, Note_off_c, 0, 53, 100
1, 88963, Note_on_c, 0, 51, 100
1, 89011, Note_off_c, 0, 51, 100
1, 89011, Note_on_c, 0, 53, 100
1, 89202, Note_off_c, 0, 53, 100
1, 89202, End_track
0, 0, End_of_file
