0, 0, Header, 1, 1, 192
1, 0, Start_track
1, 0, Title_t, "Melody"
1, 0, Tempo, 331491
1, 0, Key_signature, -2, "minor"
1, 0, Time_signature, 4, 2, 24, 8
1, 384, Note_on_c, 0, 60, 100
1, 480, Note_off_c, 0, 60, 100
1, 480, Note_on_c, 0, 55, 100
1, 768, Note_off_c, 0, 55, 100
1, 768, Note_on_c, 0, 58, 100
1, 960, Note_off_c, 0, 58, 100
1, 960, Note_on_c, 0, 58, 100
1, 1104, Note_off_c, 0, 58, 100
1, 1104, Note_on_c, 0, 60, 100
1, 1200, Note_off_c, 0, 60, 100
1, 1200, Note_on_c, 0, 62, 100
1, 1248, Note_off_c, 0, 62, 100
1, 1248, Note_on_c, 0, 62, 100
1, 1296, Note_off_c, 0, 62, 100
1, 1296, Note_on_c, 0, 60, 100
1, 1344, Note_off_c, 0, 60, 100
1, 1344, Note_on_c, 0, 58, 100
1, 1536, Note_off_c, 0, 58, 100
1, 1536, Note_on_c, 0, 63, 100
1, 1632, Note_off_c, 0, 63, 100
1, 1632, Note_on_c, 0, 65, 100
1, 1776, Note_off_c, 0, 65, 100
1, 1776, Note_on_c, 0, 67, 100
1, 1872, Note_off_c, 0, 67, 100
1, 1872, Note_on_c, 0, 65, 100
1, 2016, Note_off_c, 0, 65, 100
1, 2016, Note_on_c, 0, 70, 100
1, 2208, Note_off_c, 0, 70, 100
1, 2208, Note_on_c, 0, 69, 100
1, 2352, Note_off_c, 0, 69, 100
1, 2352, Note_on_c, 0, 70, 100
1, 2496, Note_off_c, 0, 70, 100
1, 2496, Note_on_c, 0, 65, 100
1, 2640, Note_off_c, 0, 65, 100
1, 2640, Note_on_c, 0, 64, 100
1, 2752, Note_off_c, 0, 64, 100
1, 2752, Note_on_c, 0, 65, 100
1, 2928, Note_off_c, 0, 65, 100
1, 2928, Note_on_c, 0, 67, 100
1, 3024, Note_off_c, 0, 67, 100
1, 3024, Note_on_c, 0, 68, 100
1, 3072, Note_off_c, 0, 68, 100
1, 3072, Note_on_c, 0, 65, 100
1, 3168, Note_off_c, 0, 65, 100
1, 3168, Note_on_c, 0, 62, 100
1, 3360, Note_off_c, 0, 62, 100
1, 3360, Note_on_c, 0, 58, 100
1, 3408, Note_off_c, 0, 58, 100
1, 3408, Note_on_c, 0, 59, 100
1, 3504, Note_off_c, 0, 59, 100
1, 3504, Note_on_c, 0, 67, 100
1, 3600, Note_off_c, 0, 67, 100
1, 3600, Note_on_c, 0, 65, 100
1, 3744, Note_off_c, 0, 65, 100
1, 3744, Note_on_c, 0, 62, 100
1, 3840, Note_off_c, 0, 62, 100
1, 3840, Note_on_c, 0, 63, 100
1, 3984, Note_off_c, 0, 63, 100
1, 3984, Note_on_c, 0, 58, 100
1, 4080, Note_off_c, 0, 58, 100
1, 4512, Note_on_c, 0, 60, 100
1, 4608, Note_off_c, 0, 60, 100
1, 4608, Note_on_c, 0, 61, 100
1, 4704, Note_off_c, 0, 61, 100
1, 4704, Note_on_c, 0, 60, 100
1, 4752, Note_off_c, 0, 60, 100
1, 4752, Note_on_c, 0, 61, 100
1, 4848, Note_off_c, 0, 61, 100
1, 4848, Note_on_c, 0, 65, 100
1, 4944, Note_off_c, 0, 65, 100
1, 4944, Note_on_c, 0, 64, 100
1, 5056, Note_off_c, 0, 64, 100
1, 5056, Note_on_c, 0, 68, 100
1, 5184, Note_off_c, 0, 68, 100
1, 5184, Note_on_c, 0, 68, 100
1, 5232, Note_off_c, 0, 68, 100
1, 5232, Note_on_c, 0, 70, 100
1, 5280, Note_off_c, 0, 70, 100
1, 5280, Note_on_c, 0, 72, 100
1, 5376, Note_off_c, 0, 72, 100
1, 5376, Note_on_c, 0, 70, 100
1, 5664, Note_off_c, 0, 70, 100
1, 6336, Note_on_c, 0, 69, 100
1, 6432, Note_off_c, 0, 69, 100
1, 6432, Note_on_c, 0, 67, 100
1, 6528, Note_off_c, 0, 67, 100
1, 6528, Note_on_c, 0, 70, 100
1, 6624, Note_off_c, 0, 70, 100
1, 6624, Note_on_c, 0, 67, 100
1, 6768, Note_off_c, 0, 67, 100
1, 6768, Note_on_c, 0, 63, 100
1, 6864, Note_off_c, 0, 63, 100
1, 6864, Note_on_c, 0, 58, 100
1, 7008, Note_off_c, 0, 58, 100
1, 7008, Note_on_c, 0, 62, 100
1, 7248, Note_off_c, 0, 62, 100
1, 7248, Note_on_c, 0, 65, 100
1, 7344, Note_off_c, 0, 65, 100
1, 7584, Note_on_c, 0, 62, 100
1, 7680, Note_off_c, 0, 62, 100
1, 7680, Note_on_c, 0, 63, 100
1, 7776, Note_off_c, 0, 63, 100
1, 7776, Note_on_c, 0, 65, 100
1, 7872, Note_off_c, 0, 65, 100
1, 7872, Note_on_c, 0, 67, 100
1, 7968, Note_off_c, 0, 67, 100
1, 7968, Note_on_c, 0, 69, 100
1, 8064, Note_off_c, 0, 69, 100
1, 8064, Note_on_c, 0, 74, 100
1, 8304, Note_off_c, 0, 74, 100
1, 8304, Note_on_c, 0, 65, 100
1, 8400, Note_off_c, 0, 65, 100
1, 8400, Note_on_c, 0, 70, 100
1, 8496, Note_off_c, 0, 70, 100
1, 8880, Note_on_c, 0, 68, 100
1, 8976, Note_off_c, 0, 68, 100
1, 8976, Note_on_c, 0, 68, 100
1, 9072, Note_off_c, 0, 68, 100
1, 9072, Note_on_c, 0, 67, 100
1, 9168, Note_off_c, 0, 67, 100
1, 9168, Note_on_c, 0, 67, 100
1, 9216, Note_off_c, 0, 67, 100
1, 9216, Note_on_c, 0, 65, 100
1, 9504, Note_off_c, 0, 65, 100
1, 9504, Note_on_c, 0, 63, 100
1, 9600, Note_off_c, 0, 63, 100
1, 9600, Note_on_c, 0, 61, 100
1, 9696, Note_off_c, 0, 61, 100
1, 9696, Note_on_c, 0, 62, 100
1, 9792, Note_off_c, 0, 62, 100
1, 9792, Note_on_c, 0, 65, 100
1, 9888, Note_off_c, 0, 65, 100
1, 9888, Note_on_c, 0, 58, 100
1, 10176, Note_off_c, 0, 58, 100
1, 10176, Note_on_c, 0, 60, 100
1, 10272, Note_off_c, 0, 60, 100
1, 10272, Note_on_c, 0, 58, 100
1, 10368, Note_off_c, 0, 58, 100
1, 10368, Note_on_c, 0, 61, 100
1, 10416, Note_off_c, 0, 61, 100
1, 10416, Note_on_c, 0, 62, 100
1, 10512, Note_off_c, 0, 62, 100
1, 10512, Note_on_c, 0, 65, 100
1, 10656, Note_off_c, 0, 65, 100
1, 10656, Note_on_c, 0, 63, 100
1, 10944, Note_off_c, 0, 63, 100
1, 10944, Note_on_c, 0, 65, 100
1, 11040, Note_off_c, 0, 65, 100
1, 11040, Note_on_c, 0, 63, 100
1, 11136, Note_off_c, 0, 63, 100
1, 11136, Note_on_c, 0, 66, 100
1, 11200, Note_off_c, 0, 66, 100
1, 11200, Note_on_c, 0, 67, 100
1, 11264, Note_off_c, 0, 67, 100
1, 11264, Note_on_c, 0, 58, 100
1, 11360, Note_off_c, 0, 58, 100
1, 11664, Note_on_c, 0, 57, 100
1, 11712, Note_off_c, 0, 57, 100
1, 11712, Note_on_c, 0, 60, 100
1, 11840, Note_off_c, 0, 60, 100
1, 11840, Note_on_c, 0, 58, 100
1, 11904, Note_off_c, 0, 58, 100
1, 11904, Note_on_c, 0, 61, 100
1, 11952, Note_off_c, 0, 61, 100
1, 11952, Note_on_c, 0, 62, 100
1, 12048, Note_off_c, 0, 62, 100
1, 12048, Note_on_c, 0, 65, 100
1, 12144, Note_off_c, 0, 65, 100
1, 12144, Note_on_c, 0, 67, 100
1, 12240, Note_off_c, 0, 67, 100
1, 12240, Note_on_c, 0, 68, 100
1, 12480, Note_off_c, 0, 68, 100
1, 12480, Note_on_c, 0, 67, 100
1, 12576, Note_off_c, 0, 67, 100
1, 12576, Note_on_c, 0, 66, 100
1, 12672, Note_off_c, 0, 66, 100
1, 12672, Note_on_c, 0, 66, 100
1, 12768, Note_off_c, 0, 66, 100
1, 12768, Note_on_c, 0, 58, 100
1, 12864, Note_off_c, 0, 58, 100
1, 13392, Note_on_c, 0, 58, 100
1, 13440, Note_off_c, 0, 58, 100
1, 13440, Note_on_c, 0, 63, 100
1, 13632, Note_off_c, 0, 63, 100
1, 13632, Note_on_c, 0, 58, 100
1, 13680, Note_off_c, 0, 58, 100
1, 13680, Note_on_c, 0, 63, 100
1, 13776, Note_off_c, 0, 63, 100
1, 13776, Note_on_c, 0, 67, 100
1, 13872, Note_off_c, 0, 67, 100
1, 13872, Note_on_c, 0, 72, 100
1, 13968, Note_off_c, 0, 72, 100
1, 13968, Note_on_c, 0, 70, 100
1, 14064, Note_off_c, 0, 70, 100
1, 14064, Note_on_c, 0, 67, 100
1, 14160, Note_off_c, 0, 67, 100
1, 14160, Note_on_c, 0, 63, 100
1, 14544, Note_off_c, 0, 63, 100
1, 14976, Note_on_c, 0, 58, 100
1, 15120, Note_off_c, 0, 58, 100
1, 15120, Note_on_c, 0, 53, 100
1, 15168, Note_off_c, 0, 53, 100
1, 15168, Note_on_c, 0, 58, 100
1, 15264, Note_off_c, 0, 58, 100
1, 15264, Note_on_c, 0, 62, 100
1, 15360, Note_off_c, 0, 62, 100
1, 15360, Note_on_c, 0, 67, 100
1, 15456, Note_off_c, 0, 67, 100
1, 15456, Note_on_c, 0, 65, 100
1, 15552, Note_off_c, 0, 65, 100
1, 15552, Note_on_c, 0, 62, 100
1, 15680, Note_off_c, 0, 62, 100
1, 15680, Note_on_c, 0, 58, 100
1, 15840, Note_off_c, 0, 58, 100
1, 15840, Note_on_c, 0, 61, 100
1, 15936, Note_off_c, 0, 61, 100
1, 15936, Note_on_c, 0, 62, 100
1, 16128, Note_off_c, 0, 62, 100
1, 16128, Note_on_c, 0, 58, 100
1, 16272, Note_off_c, 0, 58, 100
1, 16272, Note_on_c, 0, 58, 100
1, 16368, Note_off_c, 0, 58, 100
1, 16896, Note_on_c, 0, 60, 100
1, 16992, Note_off_c, 0, 60, 100
1, 16992, Note_on_c, 0, 62, 100
1, 17088, Note_off_c, 0, 62, 100
1, 17088, Note_on_c, 0, 63, 100
1, 17184, Note_off_c, 0, 63, 100
1, 17184, Note_on_c, 0, 65, 100
1, 17280, Note_off_c, 0, 65, 100
1, 17280, Note_on_c, 0, 61, 100
1, 17344, Note_off_c, 0, 61, 100
1, 17344, Note_on_c, 0, 62, 100
1, 17408, Note_off_c, 0, 62, 100
1, 17408, Note_on_c, 0, 65, 100
1, 17472, Note_off_c, 0, 65, 100
1, 17472, Note_on_c, 0, 67, 100
1, 17568, Note_off_c, 0, 67, 100
1, 17568, Note_on_c, 0, 70, 100
1, 17894, Note_off_c, 0, 70, 100
1, 17894, Note_on_c, 0, 68, 100
1, 17932, Note_off_c, 0, 68, 100
1, 17932, Note_on_c, 0, 70, 100
1, 17970, Note_off_c, 0, 70, 100
1, 17970, Note_on_c, 0, 68, 100
1, 18008, Note_off_c, 0, 68, 100
1, 18008, Note_on_c, 0, 65, 100
1, 18046, Note_off_c, 0, 65, 100
1, 18046, Note_on_c, 0, 63, 100
1, 18190, Note_off_c, 0, 63, 100
1, 18190, Note_on_c, 0, 65, 100
1, 18526, Note_off_c, 0, 65, 100
1, 18526, Note_on_c, 0, 70, 100
1, 18718, Note_off_c, 0, 70, 100
1, 18718, Note_on_c, 0, 68, 100
1, 18766, Note_off_c, 0, 68, 100
1, 18766, Note_on_c, 0, 65, 100
1, 18814, Note_off_c, 0, 65, 100
1, 18814, Note_on_c, 0, 63, 100
1, 18890, Note_off_c, 0, 63, 100
1, 18890, Note_on_c, 0, 64, 100
1, 18928, Note_off_c, 0, 64, 100
1, 18928, Note_on_c, 0, 63, 100
1, 18966, Note_off_c, 0, 63, 100
1, 18966, Note_on_c, 0, 61, 100
1, 19004, Note_off_c, 0, 61, 100
1, 19004, Note_on_c, 0, 58, 100
1, 19100, Note_off_c, 0, 58, 100
1, 19100, Note_on_c, 0, 56, 100
1, 19196, Note_off_c, 0, 56, 100
1, 19196, Note_on_c, 0, 58, 100
1, 19532, Note_off_c, 0, 58, 100
1, 19532, Note_on_c, 0, 55, 100
1, 19580, Note_off_c, 0, 55, 100
1, 19580, Note_on_c, 0, 58, 100
1, 19724, Note_off_c, 0, 58, 100
1, 19724, Note_on_c, 0, 58, 100
1, 19820, Note_off_c, 0, 58, 100
1, 20060, Note_on_c, 0, 70, 100
1, 20156, Note_off_c, 0, 70, 100
1, 20156, Note_on_c, 0, 68, 100
1, 20204, Note_off_c, 0, 68, 100
1, 20204, Note_on_c, 0, 70, 100
1, 20252, Note_off_c, 0, 70, 100
1, 20252, Note_on_c, 0, 68, 100
1, 20300, Note_off_c, 0, 68, 100
1, 20300, Note_on_c, 0, 65, 100
1, 20348, Note_off_c, 0, 65, 100
1, 20348, Note_on_c, 0, 63, 100
1, 20396, Note_off_c, 0, 63, 100
1, 20396, Note_on_c, 0, 65, 100
1, 20444, Note_off_c, 0, 65, 100
1, 20444, Note_on_c, 0, 63, 100
1, 20492, Note_off_c, 0, 63, 100
1, 20492, Note_on_c, 0, 61, 100
1, 20540, Note_off_c, 0, 61, 100
1, 20540, Note_on_c, 0, 58, 100
1, 20636, Note_off_c, 0, 58, 100
1, 20636, Note_on_c, 0, 56, 100
1, 20732, Note_off_c, 0, 56, 100
1, 20732, Note_on_c, 0, 58, 100
1, 21020, Note_off_c, 0, 58, 100
1, 21020, Note_on_c, 0, 56, 100
1, 21116, Note_off_c, 0, 56, 100
1, 21116, Note_on_c, 0, 58, 100
1, 21212, Note_off_c, 0, 58, 100
1, 21212, Note_on_c, 0, 61, 100
1, 21308, Note_off_c, 0, 61, 100
1, 21596, Note_on_c, 0, 70, 100
1, 21692, Note_off_c, 0, 70, 100
1, 21692, Note_on_c, 0, 68, 100
1, 21740, Note_off_c, 0, 68, 100
1, 21740, Note_on_c, 0, 70, 100
1, 21788, Note_off_c, 0, 70, 100
1, 21788, Note_on_c, 0, 68, 100
1, 21836, Note_off_c, 0, 68, 100
1, 21836, Note_on_c, 0, 65, 100
1, 21922, Note_off_c, 0, 65, 100
1, 21922, Note_on_c, 0, 63, 100
1, 21960, Note_off_c, 0, 63, 100
1, 21960, Note_on_c, 0, 65, 100
1, 21998, Note_off_c, 0, 65, 100
1, 21998, Note_on_c, 0, 63, 100
1, 22036, Note_off_c, 0, 63, 100
1, 22036, Note_on_c, 0, 61, 100
1, 22074, Note_off_c, 0, 61, 100
1, 22074, Note_on_c, 0, 58, 100
1, 22170, Note_off_c, 0, 58, 100
1, 22170, Note_on_c, 0, 56, 100
1, 22266, Note_off_c, 0, 56, 100
1, 22266, Note_on_c, 0, 58, 100
1, 22458, Note_off_c, 0, 58, 100
1, 22458, Note_on_c, 0, 58, 100
1, 22586, Note_off_c, 0, 58, 100
1, 22586, Note_on_c, 0, 58, 100
1, 22650, Note_off_c, 0, 58, 100
1, 22650, Note_on_c, 0, 61, 100
1, 22842, Note_off_c, 0, 61, 100
1, 22842, Note_on_c, 0, 61, 100
1, 22938, Note_off_c, 0, 61, 100
1, 22938, Note_on_c, 0, 61, 100
1, 23034, Note_off_c, 0, 61, 100
1, 23034, Note_on_c, 0, 58, 100
1, 23130, Note_off_c, 0, 58, 100
1, 23130, Note_on_c, 0, 61, 100
1, 23226, Note_off_c, 0, 61, 100
1, 23226, Note_on_c, 0, 63, 100
1, 23418, Note_off_c, 0, 63, 100
1, 23418, Note_on_c, 0, 65, 100
1, 23706, Note_off_c, 0, 65, 100
1, 23706, Note_on_c, 0, 63, 100
1, 23802, Note_off_c, 0, 63, 100
1, 23802, Note_on_c, 0, 61, 100
1, 23898, Note_off_c, 0, 61, 100
1, 23898, Note_on_c, 0, 62, 100
1, 23994, Note_off_c, 0, 62, 100
1, 23994, Note_on_c, 0, 58, 100
1, 24090, Note_off_c, 0, 58, 100
1, 24090, Note_on_c, 0, 58, 100
1, 24234, Note_off_c, 0, 58, 100
1, 24234, Note_on_c, 0, 60, 100
1, 24442, Note_off_c, 0, 60, 100
1, 24442, Note_on_c, 0, 55, 100
1, 24570, Note_off_c, 0, 55, 100
1, 24570, Note_on_c, 0, 58, 100
1, 24714, Note_off_c, 0, 58, 100
1, 24714, Note_on_c, 0, 60, 100
1, 24762, Note_off_c, 0, 60, 100
1, 24762, Note_on_c, 0, 62, 100
1, 25002, Note_off_c, 0, 62, 100
1, 25002, Note_on_c, 0, 60, 100
1, 25098, Note_off_c, 0, 60, 100
1, 25098, Note_on_c, 0, 58, 100
1, 25194, Note_off_c, 0, 58, 100
1, 25482, Note_on_c, 0, 58, 100
1, 25770, Note_off_c, 0, 58, 100
1, 25770, Note_on_c, 0, 55, 100
1, 25866, Note_off_c, 0, 55, 100
1, 25866, Note_on_c, 0, 51, 100
1, 25962, Note_off_c, 0, 51, 100
1, 26202, Note_on_c, 0, 60, 100
1, 26490, Note_off_c, 0, 60, 100
1, 26490, Note_on_c, 0, 58, 100
1, 26586, Note_off_c, 0, 58, 100
1, 26586, Note_on_c, 0, 54, 100
1, 26682, Note_off_c, 0, 54, 100
1, 26970, Note_on_c, 0, 61, 100
1, 27018, Note_off_c, 0, 61, 100
1, 27018, Note_on_c, 0, 62, 100
1, 27258, Note_off_c, 0, 62, 100
1, 27258, Note_on_c, 0, 58, 100
1, 27402, Note_off_c, 0, 58, 100
1, 27402, Note_on_c, 0, 55, 100
1, 27594, Note_off_c, 0, 55, 100
1, 27594, Note_on_c, 0, 62, 100
1, 27642, Note_off_c, 0, 62, 100
1, 27642, Note_on_c, 0, 63, 100
1, 27834, Note_off_c, 0, 63, 100
1, 27834, Note_on_c, 0, 60, 100
1, 27930, Note_off_c, 0, 60, 100
1, 27930, Note_on_c, 0, 57, 100
1, 28122, Note_off_c, 0, 57, 100
1, 28122, Note_on_c, 0, 64, 100
1, 28170, Note_off_c, 0, 64, 100
1, 28170, Note_on_c, 0, 65, 100
1, 28314, Note_off_c, 0, 65, 100
1, 28314, Note_on_c, 0, 63, 100
1, 28458, Note_off_c, 0, 63, 100
1, 28458, Note_on_c, 0, 62, 100
1, 28554, Note_off_c, 0, 62, 100
1, 28554, Note_on_c, 0, 63, 100
1, 28602, Note_off_c, 0, 63, 100
1, 28602, Note_on_c, 0, 65, 100
1, 28794, Note_off_c, 0, 65, 100
1, 28794, Note_on_c, 0, 58, 100
1, 28986, Note_off_c, 0, 58, 100
1, 29370, Note_on_c, 0, 60, 100
1, 29434, Note_off_c, 0, 60, 100
1, 29434, Note_on_c, 0, 62, 100
1, 29498, Note_off_c, 0, 62, 100
1, 29498, Note_on_c, 0, 63, 100
1, 29562, Note_off_c, 0, 63, 100
1, 29562, Note_on_c, 0, 67, 100
1, 29610, Note_off_c, 0, 67, 100
1, 29610, Note_on_c, 0, 69, 100
1, 29658, Note_off_c, 0, 69, 100
1, 29658, Note_on_c, 0, 70, 100
1, 29706, Note_off_c, 0, 70, 100
1, 29706, Note_on_c, 0, 72, 100
1, 29754, Note_off_c, 0, 72, 100
1, 29754, Note_on_c, 0, 74, 100
1, 29850, Note_off_c, 0, 74, 100
1, 30234, Note_on_c, 0, 74, 100
1, 30330, Note_off_c, 0, 74, 100
1, 30330, Note_on_c, 0, 73, 100
1, 30378, Note_off_c, 0, 73, 100
1, 30378, Note_on_c, 0, 70, 100
1, 30474, Note_off_c, 0, 70, 100
1, 30474, Note_on_c, 0, 65, 100
1, 30858, Note_off_c, 0, 65, 100
1, 30858, Note_on_c, 0, 70, 100
1, 30954, Note_off_c, 0, 70, 100
1, 30954, Note_on_c, 0, 68, 100
1, 31050, Note_off_c, 0, 68, 100
1, 31050, Note_on_c, 0, 64, 100
1, 31146, Note_off_c, 0, 64, 100
1, 31146, Note_on_c, 0, 67, 100
1, 31242, Note_off_c, 0, 67, 100
1, 31242, Note_on_c, 0, 65, 100
1, 31338, Note_off_c, 0, 65, 100
1, 31338, Note_on_c, 0, 61, 100
1, 31434, Note_off_c, 0, 61, 100
1, 31434, Note_on_c, 0, 59, 100
1, 31482, Note_off_c, 0, 59, 100
1, 31482, Note_on_c, 0, 58, 100
1, 31578, Note_off_c, 0, 58, 100
1, 31578, Note_on_c, 0, 55, 100
1, 31674, Note_off_c, 0, 55, 100
1, 31674, Note_on_c, 0, 56, 100
1, 31770, Note_off_c, 0, 56, 100
1, 31770, Note_on_c, 0, 58, 100
1, 31914, Note_off_c, 0, 58, 100
1, 31914, Note_on_c, 0, 55, 100
1, 32010, Note_off_c, 0, 55, 100
1, 32010, Note_on_c, 0, 51, 100
1, 32154, Note_off_c, 0, 51, 100
1, 32154, Note_on_c, 0, 53, 100
1, 32442, Note_off_c, 0, 53, 100
1, 33082, Note_on_c, 0, 53, 100
1, 33146, Note_off_c, 0, 53, 100
1, 33146, Note_on_c, 0, 52, 100
1, 33210, Note_off_c, 0, 52, 100
1, 33210, Note_on_c, 0, 51, 100
1, 33258, Note_off_c, 0, 51, 100
1, 33258, Note_on_c, 0, 53, 100
1, 33306, Note_off_c, 0, 53, 100
1, 33306, Note_on_c, 0, 55, 100
1, 33354, Note_off_c, 0, 55, 100
1, 33354, Note_on_c, 0, 57, 100
1, 33402, Note_off_c, 0, 57, 100
1, 33402, Note_on_c, 0, 62, 100
1, 33450, Note_off_c, 0, 62, 100
1, 33450, Note_on_c, 0, 61, 100
1, 33498, Note_off_c, 0, 61, 100
1, 33498, Note_on_c, 0, 60, 100
1, 33546, Note_off_c, 0, 60, 100
1, 33546, Note_on_c, 0, 59, 100
1, 33594, Note_off_c, 0, 59, 100
1, 33594, Note_on_c, 0, 58, 100
1, 33642, Note_off_c, 0, 58, 100
1, 33642, Note_on_c, 0, 55, 100
1, 33690, Note_off_c, 0, 55, 100
1, 33690, Note_on_c, 0, 51, 100
1, 33738, Note_off_c, 0, 51, 100
1, 33738, Note_on_c, 0, 48, 100
1, 33834, Note_off_c, 0, 48, 100
1, 33978, Note_on_c, 0, 53, 100
1, 34026, Note_off_c, 0, 53, 100
1, 34026, Note_on_c, 0, 52, 100
1, 34074, Note_off_c, 0, 52, 100
1, 34074, Note_on_c, 0, 50, 100
1, 34122, Note_off_c, 0, 50, 100
1, 34122, Note_on_c, 0, 52, 100
1, 34170, Note_off_c, 0, 52, 100
1, 34170, Note_on_c, 0, 53, 100
1, 34266, Note_off_c, 0, 53, 100
1, 34266, Note_on_c, 0, 55, 100
1, 34314, Note_off_c, 0, 55, 100
1, 34314, Note_on_c, 0, 57, 100
1, 34362, Note_off_c, 0, 57, 100
1, 34362, Note_on_c, 0, 59, 100
1, 34410, Note_off_c, 0, 59, 100
1, 34410, Note_on_c, 0, 60, 100
1, 34458, Note_off_c, 0, 60, 100
1, 34458, Note_on_c, 0, 55, 100
1, 34554, Note_off_c, 0, 55, 100
1, 34842, Note_on_c, 0, 48, 100
1, 34938, Note_off_c, 0, 48, 100
1, 34938, Note_on_c, 0, 50, 100
1, 35002, Note_off_c, 0, 50, 100
1, 35002, Note_on_c, 0, 51, 100
1, 35066, Note_off_c, 0, 51, 100
1, 35066, Note_on_c, 0, 55, 100
1, 35130, Note_off_c, 0, 55, 100
1, 35130, Note_on_c, 0, 58, 100
1, 35194, Note_off_c, 0, 58, 100
1, 35194, Note_on_c, 0, 57, 100
1, 35258, Note_off_c, 0, 57, 100
1, 35258, Note_on_c, 0, 55, 100
1, 35386, Note_off_c, 0, 55, 100
1, 35386, Note_on_c, 0, 55, 100
1, 35450, Note_off_c, 0, 55, 100
1, 35450, Note_on_c, 0, 62, 100
1, 35514, Note_off_c, 0, 62, 100
1, 35514, Note_on_c, 0, 61, 100
1, 35562, Note_off_c, 0, 61, 100
1, 35562, Note_on_c, 0, 60, 100
1, 35610, Note_off_c, 0, 60, 100
1, 35610, Note_on_c, 0, 59, 100
1, 35658, Note_off_c, 0, 59, 100
1, 35658, Note_on_c, 0, 58, 100
1, 35754, Note_off_c, 0, 58, 100
1, 36090, Note_on_c, 0, 64, 100
1, 36186, Note_off_c, 0, 64, 100
1, 36186, Note_on_c, 0, 65, 100
1, 36378, Note_off_c, 0, 65, 100
1, 36378, Note_on_c, 0, 63, 100
1, 36474, Note_off_c, 0, 63, 100
1, 36474, Note_on_c, 0, 62, 100
1, 36538, Note_off_c, 0, 62, 100
1, 36538, Note_on_c, 0, 63, 100
1, 36666, Note_off_c, 0, 63, 100
1, 36666, Note_on_c, 0, 65, 100
1, 36762, Note_off_c, 0, 65, 100
1, 37194, Note_on_c, 0, 58, 100
1, 37242, Note_off_c, 0, 58, 100
1, 37242, Note_on_c, 0, 61, 100
1, 37338, Note_off_c, 0, 61, 100
1, 37338, Note_on_c, 0, 62, 100
1, 37386, Note_off_c, 0, 62, 100
1, 37386, Note_on_c, 0, 65, 100
1, 37498, Note_off_c, 0, 65, 100
1, 37498, Note_on_c, 0, 61, 100
1, 37562, Note_off_c, 0, 61, 100
1, 37562, Note_on_c, 0, 62, 100
1, 37626, Note_off_c, 0, 62, 100
1, 37626, Note_on_c, 0, 65, 100
1, 37722, Note_off_c, 0, 65, 100
1, 37722, Note_on_c, 0, 58, 100
1, 37818, Note_off_c, 0, 58, 100
1, 37818, Note_on_c, 0, 58, 100
1, 38154, Note_off_c, 0, 58, 100
1, 38154, Note_on_c, 0, 61, 100
1, 38250, Note_off_c, 0, 61, 100
1, 38250, Note_on_c, 0, 62, 100
1, 38298, Note_off_c, 0, 62, 100
1, 38298, Note_on_c, 0, 65, 100
1, 38346, Note_off_c, 0, 65, 100
1, 38346, Note_on_c, 0, 67, 100
1, 38442, Note_off_c, 0, 67, 100
1, 38442, Note_on_c, 0, 70, 100
1, 38538, Note_off_c, 0, 70, 100
1, 38538, Note_on_c, 0, 70, 100
1, 38634, Note_off_c, 0, 70, 100
1, 38922, Note_on_c, 0, 58, 100
1, 38970, Note_off_c, 0, 58, 100
1, 38970, Note_on_c, 0, 61, 100
1, 39034, Note_off_c, 0, 61, 100
1, 39034, Note_on_c, 0, 62, 100
1, 39098, Note_off_c, 0, 62, 100
1, 39098, Note_on_c, 0, 65, 100
1, 39162, Note_off_c, 0, 65, 100
1, 39162, Note_on_c, 0, 58, 100
1, 39354, Note_off_c, 0, 58, 100
1, 39354, Note_on_c, 0, 58, 100
1, 39546, Note_off_c, 0, 58, 100
1, 39834, Note_on_c, 0, 65, 100
1, 39930, Note_off_c, 0, 65, 100
1, 39930, Note_on_c, 0, 70, 100
1, 40026, Note_off_c, 0, 70, 100
1, 40026, Note_on_c, 0, 70, 100
1, 40170, Note_off_c, 0, 70, 100
1, 40170, Note_on_c, 0, 68, 100
1, 40266, Note_off_c, 0, 68, 100
1, 40266, Note_on_c, 0, 68, 100
1, 40362, Note_off_c, 0, 68, 100
1, 40362, Note_on_c, 0, 67, 100
1, 40458, Note_off_c, 0, 67, 100
1, 40458, Note_on_c, 0, 67, 100
1, 40554, Note_off_c, 0, 67, 100
1, 40554, Note_on_c, 0, 65, 100
1, 40650, Note_off_c, 0, 65, 100
1, 40650, Note_on_c, 0, 65, 100
1, 40698, Note_off_c, 0, 65, 100
1, 40698, Note_on_c, 0, 63, 100
1, 40842, Note_off_c, 0, 63, 100
1, 40842, Note_on_c, 0, 63, 100
1, 41274, Note_off_c, 0, 63, 100
1, 41274, Note_on_c, 0, 63, 100
1, 41370, Note_off_c, 0, 63, 100
1, 41370, Note_on_c, 0, 67, 100
1, 41418, Note_off_c, 0, 67, 100
1, 41418, Note_on_c, 0, 72, 100
1, 41466, Note_off_c, 0, 72, 100
1, 41466, Note_on_c, 0, 70, 100
1, 41658, Note_off_c, 0, 70, 100
1, 41658, Note_on_c, 0, 72, 100
1, 41850, Note_off_c, 0, 72, 100
1, 41850, Note_on_c, 0, 70, 100
1, 42042, Note_off_c, 0, 70, 100
1, 42042, Note_on_c, 0, 72, 100
1, 42138, Note_off_c, 0, 72, 100
1, 42522, Note_on_c, 0, 71, 100
1, 42570, Note_off_c, 0, 71, 100
1, 42570, Note_on_c, 0, 73, 100
1, 42714, Note_off_c, 0, 73, 100
1, 42714, Note_on_c, 0, 70, 100
1, 42906, Note_off_c, 0, 70, 100
1, 42906, Note_on_c, 0, 68, 100
1, 43002, Note_off_c, 0, 68, 100
1, 43002, Note_on_c, 0, 65, 100
1, 43098, Note_off_c, 0, 65, 100
1, 43098, Note_on_c, 0, 63, 100
1, 43194, Note_off_c, 0, 63, 100
1, 43194, Note_on_c, 0, 61, 100
1, 43290, Note_off_c, 0, 61, 100
1, 43290, Note_on_c, 0, 58, 100
1, 43434, Note_off_c, 0, 58, 100
1, 43434, Note_on_c, 0, 56, 100
1, 43578, Note_off_c, 0, 56, 100
1, 43578, Note_on_c, 0, 56, 100
1, 43770, Note_off_c, 0, 56, 100
1, 43770, Note_on_c, 0, 58, 100
1, 43914, Note_off_c, 0, 58, 100
1, 43914, Note_on_c, 0, 58, 100
1, 44106, Note_off_c, 0, 58, 100
1, 44490, Note_on_c, 0, 58, 100
1, 44586, Note_off_c, 0, 58, 100
1, 44586, Note_on_c, 0, 61, 100
1, 44682, Note_off_c, 0, 61, 100
1, 44682, Note_on_c, 0, 62, 100
1, 44778, Note_off_c, 0, 62, 100
1, 44778, Note_on_c, 0, 63, 100
1, 44874, Note_off_c, 0, 63, 100
1, 44874, Note_on_c, 0, 64, 100
1, 44970, Note_off_c, 0, 64, 100
1, 44970, Note_on_c, 0, 65, 100
1, 45066, Note_off_c, 0, 65, 100
1, 45066, Note_on_c, 0, 57, 100
1, 45114, Note_off_c, 0, 57, 100
1, 45114, Note_on_c, 0, 61, 100
1, 45210, Note_off_c, 0, 61, 100
1, 45210, Note_on_c, 0, 62, 100
1, 45306, Note_off_c, 0, 62, 100
1, 45306, Note_on_c, 0, 58, 100
1, 45498, Note_off_c, 0, 58, 100
1, 45498, Note_on_c, 0, 60, 100
1, 45594, Note_off_c, 0, 60, 100
1, 45594, Note_on_c, 0, 57, 100
1, 45690, Note_off_c, 0, 57, 100
1, 45690, Note_on_c, 0, 61, 100
1, 45786, Note_off_c, 0, 61, 100
1, 45786, Note_on_c, 0, 62, 100
1, 45882, Note_off_c, 0, 62, 100
1, 45882, Note_on_c, 0, 65, 100
1, 46026, Note_off_c, 0, 65, 100
1, 46026, Note_on_c, 0, 63, 100
1, 46266, Note_off_c, 0, 63, 100
1, 46266, Note_on_c, 0, 65, 100
1, 46362, Note_off_c, 0, 65, 100
1, 46362, Note_on_c, 0, 63, 100
1, 46458, Note_off_c, 0, 63, 100
1, 46458, Note_on_c, 0, 66, 100
1, 46506, Note_off_c, 0, 66, 100
1, 46506, Note_on_c, 0, 67, 100
1, 46602, Note_off_c, 0, 67, 100
1, 46602, Note_on_c, 0, 70, 100
1, 46698, Note_off_c, 0, 70, 100
1, 46698, Note_on_c, 0, 72, 100
1, 46794, Note_off_c, 0, 72, 100
1, 46794, Note_on_c, 0, 73, 100
1, 47034, Note_off_c, 0, 73, 100
1, 47034, Note_on_c, 0, 72, 100
1, 47130, Note_off_c, 0, 72, 100
1, 47130, Note_on_c, 0, 71, 100
1, 47226, Note_off_c, 0, 71, 100
1, 47226, Note_on_c, 0, 70, 100
1, 47354, Note_off_c, 0, 70, 100
1, 47354, Note_on_c, 0, 65, 100
1, 47450, Note_off_c, 0, 65, 100
1, 47706, Note_on_c, 0, 68, 100
1, 47802, Note_off_c, 0, 68, 100
1, 47802, Note_on_c, 0, 67, 100
1, 47898, Note_off_c, 0, 67, 100
1, 47898, Note_on_c, 0, 66, 100
1, 47994, Note_off_c, 0, 66, 100
1, 47994, Note_on_c, 0, 65, 100
1, 48138, Note_off_c, 0, 65, 100
1, 48138, Note_on_c, 0, 58, 100
1, 48330, Note_off_c, 0, 58, 100
1, 48330, Note_on_c, 0, 61, 100
1, 48570, Note_off_c, 0, 61, 100
1, 48570, Note_on_c, 0, 60, 100
1, 48666, Note_off_c, 0, 60, 100
1, 48666, Note_on_c, 0, 59, 100
1, 48810, Note_off_c, 0, 59, 100
1, 48810, Note_on_c, 0, 58, 100
1, 48906, Note_off_c, 0, 58, 100
1, 48906, Note_on_c, 0, 60, 100
1, 49002, Note_off_c, 0, 60, 100
1, 49002, Note_on_c, 0, 62, 100
1, 49098, Note_off_c, 0, 62, 100
1, 49098, Note_on_c, 0, 63, 100
1, 49146, Note_off_c, 0, 63, 100
1, 49146, Note_on_c, 0, 65, 100
1, 49338, Note_off_c, 0, 65, 100
1, 49338, Note_on_c, 0, 62, 100
1, 49386, Note_off_c, 0, 62, 100
1, 49386, Note_on_c, 0, 63, 100
1, 49434, Note_off_c, 0, 63, 100
1, 49434, Note_on_c, 0, 65, 100
1, 49482, Note_off_c, 0, 65, 100
1, 49482, Note_on_c, 0, 63, 100
1, 49530, Note_off_c, 0, 63, 100
1, 49530, Note_on_c, 0, 62, 100
1, 49626, Note_off_c, 0, 62, 100
1, 49626, Note_on_c, 0, 54, 100
1, 49722, Note_off_c, 0, 54, 100
1, 49722, Note_on_c, 0, 56, 100
1, 49914, Note_off_c, 0, 56, 100
1, 49914, Note_on_c, 0, 55, 100
1, 50010, Note_off_c, 0, 55, 100
1, 50538, Note_on_c, 0, 46, 100
1, 50634, Note_off_c, 0, 46, 100
1, 50634, Note_on_c, 0, 51, 100
1, 50682, Note_off_c, 0, 51, 100
1, 50682, Note_on_c, 0, 55, 100
1, 50970, Note_off_c, 0, 55, 100
1, 50970, Note_on_c, 0, 49, 100
1, 51018, Note_off_c, 0, 49, 100
1, 51018, Note_on_c, 0, 53, 100
1, 51066, Note_off_c, 0, 53, 100
1, 51066, Note_on_c, 0, 56, 100
1, 51258, Note_off_c, 0, 56, 100
1, 51258, Note_on_c, 0, 54, 100
1, 51354, Note_off_c, 0, 54, 100
1, 51354, Note_on_c, 0, 59, 100
1, 51402, Note_off_c, 0, 59, 100
1, 51402, Note_on_c, 0, 61, 100
1, 51594, Note_off_c, 0, 61, 100
1, 52026, Note_on_c, 0, 59, 100
1, 52122, Note_off_c, 0, 59, 100
1, 52122, Note_on_c, 0, 63, 100
1, 52218, Note_off_c, 0, 63, 100
1, 52218, Note_on_c, 0, 66, 100
1, 52362, Note_off_c, 0, 66, 100
1, 52362, Note_on_c, 0, 59, 100
1, 52506, Note_off_c, 0, 59, 100
1, 52506, Note_on_c, 0, 62, 100
1, 52602, Note_off_c, 0, 62, 100
1, 52602, Note_on_c, 0, 67, 100
1, 52858, Note_off_c, 0, 67, 100
1, 52858, Note_on_c, 0, 62, 100
1, 52922, Note_off_c, 0, 62, 100
1, 52922, Note_on_c, 0, 65, 100
1, 53034, Note_off_c, 0, 65, 100
1, 53034, Note_on_c, 0, 62, 100
1, 53130, Note_off_c, 0, 62, 100
1, 53130, Note_on_c, 0, 63, 100
1, 53226, Note_off_c, 0, 63, 100
1, 53226, Note_on_c, 0, 67, 100
1, 53322, Note_off_c, 0, 67, 100
1, 53322, Note_on_c, 0, 70, 100
1, 53434, Note_off_c, 0, 70, 100
1, 53434, Note_on_c, 0, 74, 100
1, 53562, Note_off_c, 0, 74, 100
1, 53562, Note_on_c, 0, 74, 100
1, 53658, Note_off_c, 0, 74, 100
1, 53658, Note_on_c, 0, 74, 100
1, 53754, Note_off_c, 0, 74, 100
1, 54618, Note_on_c, 0, 58, 100
1, 54858, Note_off_c, 0, 58, 100
1, 54858, Note_on_c, 0, 60, 100
1, 54906, Note_off_c, 0, 60, 100
1, 54906, Note_on_c, 0, 62, 100
1, 54954, Note_off_c, 0, 62, 100
1, 54954, Note_on_c, 0, 70, 100
1, 55050, Note_off_c, 0, 70, 100
1, 55050, Note_on_c, 0, 70, 100
1, 55146, Note_off_c, 0, 70, 100
1, 55146, Note_on_c, 0, 70, 100
1, 55338, Note_off_c, 0, 70, 100
1, 56058, Note_on_c, 0, 70, 100
1, 56122, Note_off_c, 0, 70, 100
1, 56122, Note_on_c, 0, 70, 100
1, 56250, Note_off_c, 0, 70, 100
1, 56250, Note_on_c, 0, 70, 100
1, 56346, Note_off_c, 0, 70, 100
1, 56346, Note_on_c, 0, 70, 100
1, 56442, Note_off_c, 0, 70, 100
1, 56442, Note_on_c, 0, 70, 100
1, 56538, Note_off_c, 0, 70, 100
1, 56538, Note_on_c, 0, 70, 100
1, 56634, Note_off_c, 0, 70, 100
1, 56634, Note_on_c, 0, 70, 100
1, 56730, Note_off_c, 0, 70, 100
1, 56730, Note_on_c, 0, 70, 100
1, 56826, Note_off_c, 0, 70, 100
1, 56826, Note_on_c, 0, 70, 100
1, 56922, Note_off_c, 0, 70, 100
1, 56922, Note_on_c, 0, 70, 100
1, 57018, Note_off_c, 0, 70, 100
1, 57018, Note_on_c, 0, 70, 100
1, 57114, Note_off_c, 0, 70, 100
1, 57114, Note_on_c, 0, 70, 100
1, 57210, Note_off_c, 0, 70, 100
1, 57210, Note_on_c, 0, 70, 100
1, 57306, Note_off_c, 0, 70, 100
1, 57306, Note_on_c, 0, 70, 100
1, 57450, Note_off_c, 0, 70, 100
1, 57450, Note_on_c, 0, 70, 100
1, 57498, Note_off_c, 0, 70, 100
1, 57498, Note_on_c, 0, 70, 100
1, 57594, Note_off_c, 0, 70, 100
1, 57594, Note_on_c, 0, 76, 100
1, 57690, Note_off_c, 0, 76, 100
1, 57690, Note_on_c, 0, 77, 100
1, 58266, Note_off_c, 0, 77, 100
1, 58266, Note_on_c, 0, 75, 100
1, 58362, Note_off_c, 0, 75, 100
1, 58362, Note_on_c, 0, 74, 100
1, 58410, Note_off_c, 0, 74, 100
1, 58410, Note_on_c, 0, 75, 100
1, 58554, Note_off_c, 0, 75, 100
1, 58554, Note_on_c, 0, 77, 100
1, 58746, Note_off_c, 0, 77, 100
1, 59034, Note_on_c, 0, 70, 100
1, 59178, Note_off_c, 0, 70, 100
1, 59178, Note_on_c, 0, 76, 100
1, 59274, Note_off_c, 0, 76, 100
1, 59274, Note_on_c, 0, 75, 100
1, 59386, Note_off_c, 0, 75, 100
1, 59386, Note_on_c, 0, 73, 100
1, 59514, Note_off_c, 0, 73, 100
1, 59514, Note_on_c, 0, 70, 100
1, 60090, Note_off_c, 0, 70, 100
1, 60090, Note_on_c, 0, 76, 100
1, 60154, Note_off_c, 0, 76, 100
1, 60154, Note_on_c, 0, 75, 100
1, 60218, Note_off_c, 0, 75, 100
1, 60218, Note_on_c, 0, 73, 100
1, 60282, Note_off_c, 0, 73, 100
1, 60282, Note_on_c, 0, 70, 100
1, 60570, Note_off_c, 0, 70, 100
1, 60570, Note_on_c, 0, 68, 100
1, 60666, Note_off_c, 0, 68, 100
1, 60666, Note_on_c, 0, 65, 100
1, 60858, Note_off_c, 0, 65, 100
1, 60858, Note_on_c, 0, 65, 100
1, 60954, Note_off_c, 0, 65, 100
1, 60954, Note_on_c, 0, 64, 100
1, 61050, Note_off_c, 0, 64, 100
1, 61578, Note_on_c, 0, 62, 100
1, 61626, Note_off_c, 0, 62, 100
1, 61626, Note_on_c, 0, 63, 100
1, 61722, Note_off_c, 0, 63, 100
1, 61722, Note_on_c, 0, 65, 100
1, 61770, Note_off_c, 0, 65, 100
1, 61770, Note_on_c, 0, 70, 100
1, 61818, Note_off_c, 0, 70, 100
1, 61818, Note_on_c, 0, 62, 100
1, 61914, Note_off_c, 0, 62, 100
1, 61914, Note_on_c, 0, 65, 100
1, 61962, Note_off_c, 0, 65, 100
1, 61962, Note_on_c, 0, 64, 100
1, 62010, Note_off_c, 0, 64, 100
1, 62010, Note_on_c, 0, 63, 100
1, 62106, Note_off_c, 0, 63, 100
1, 62106, Note_on_c, 0, 61, 100
1, 62202, Note_off_c, 0, 61, 100
1, 62202, Note_on_c, 0, 58, 100
1, 62394, Note_off_c, 0, 58, 100
1, 62394, Note_on_c, 0, 66, 100
1, 62538, Note_off_c, 0, 66, 100
1, 62538, Note_on_c, 0, 58, 100
1, 62586, Note_off_c, 0, 58, 100
1, 62586, Note_on_c, 0, 61, 100
1, 62682, Note_off_c, 0, 61, 100
1, 62682, Note_on_c, 0, 62, 100
1, 62778, Note_off_c, 0, 62, 100
1, 62778, Note_on_c, 0, 65, 100
1, 62922, Note_off_c, 0, 65, 100
1, 62922, Note_on_c, 0, 70, 100
1, 63162, Note_off_c, 0, 70, 100
1, 63162, Note_on_c, 0, 67, 100
1, 63258, Note_off_c, 0, 67, 100
1, 63258, Note_on_c, 0, 63, 100
1, 63354, Note_off_c, 0, 63, 100
1, 63354, Note_on_c, 0, 62, 100
1, 63546, Note_off_c, 0, 62, 100
1, 63546, Note_on_c, 0, 65, 100
1, 63690, Note_off_c, 0, 65, 100
1, 63690, Note_on_c, 0, 57, 100
1, 63738, Note_off_c, 0, 57, 100
1, 63738, Note_on_c, 0, 58, 100
1, 63930, Note_off_c, 0, 58, 100
1, 63930, Note_on_c, 0, 60, 100
1, 64026, Note_off_c, 0, 60, 100
1, 64026, Note_on_c, 0, 58, 100
1, 64122, Note_off_c, 0, 58, 100
1, 64122, Note_on_c, 0, 61, 100
1, 64170, Note_off_c, 0, 61, 100
1, 64170, Note_on_c, 0, 62, 100
1, 64314, Note_off_c, 0, 62, 100
1, 64314, Note_on_c, 0, 55, 100
1, 64506, Note_off_c, 0, 55, 100
1, 64842, Note_on_c, 0, 55, 100
1, 65130, Note_off_c, 0, 55, 100
1, 65130, Note_on_c, 0, 55, 100
1, 65274, Note_off_c, 0, 55, 100
1, 65274, Note_on_c, 0, 55, 100
1, 65466, Note_off_c, 0, 55, 100
1, 65850, Note_on_c, 0, 55, 100
1, 65898, Note_off_c, 0, 55, 100
1, 65898, Note_on_c, 0, 55, 100
1, 66042, Note_off_c, 0, 55, 100
1, 66042, Note_on_c, 0, 55, 100
1, 66234, Note_off_c, 0, 55, 100
1, 66618, Note_on_c, 0, 55, 100
1, 66682, Note_off_c, 0, 55, 100
1, 66682, Note_on_c, 0, 55, 100
1, 66810, Note_off_c, 0, 55, 100
1, 66810, Note_on_c, 0, 55, 100
1, 67194, Note_off_c, 0, 55, 100
1, 67578, Note_on_c, 0, 50, 100
1, 67626, Note_off_c, 0, 50, 100
1, 67626, Note_on_c, 0, 51, 100
1, 67674, Note_off_c, 0, 51, 100
1, 67674, Note_on_c, 0, 53, 100
1, 67722, Note_off_c, 0, 53, 100
1, 67722, Note_on_c, 0, 55, 100
1, 67770, Note_off_c, 0, 55, 100
1, 67770, Note_on_c, 0, 56, 100
1, 67818, Note_off_c, 0, 56, 100
1, 67818, Note_on_c, 0, 55, 100
1, 67866, Note_off_c, 0, 55, 100
1, 67866, Note_on_c, 0, 53, 100
1, 67914, Note_off_c, 0, 53, 100
1, 67914, Note_on_c, 0, 51, 100
1, 67962, Note_off_c, 0, 51, 100
1, 67962, Note_on_c, 0, 50, 100
1, 68058, Note_off_c, 0, 50, 100
1, 68058, Note_on_c, 0, 53, 100
1, 68106, Note_off_c, 0, 53, 100
1, 68106, Note_on_c, 0, 56, 100
1, 68154, Note_off_c, 0, 56, 100
1, 68154, Note_on_c, 0, 59, 100
1, 68250, Note_off_c, 0, 59, 100
1, 68922, Note_on_c, 0, 54, 100
1, 68970, Note_off_c, 0, 54, 100
1, 68970, Note_on_c, 0, 55, 100
1, 69018, Note_off_c, 0, 55, 100
1, 69018, Note_on_c, 0, 54, 100
1, 69066, Note_off_c, 0, 54, 100
1, 69066, Note_on_c, 0, 55, 100
1, 69114, Note_off_c, 0, 55, 100
1, 69114, Note_on_c, 0, 58, 100
1, 69190, Note_off_c, 0, 58, 100
1, 69190, Note_on_c, 0, 54, 100
1, 69228, Note_off_c, 0, 54, 100
1, 69228, Note_on_c, 0, 55, 100
1, 69266, Note_off_c, 0, 55, 100
1, 69266, Note_on_c, 0, 58, 100
1, 69352, Note_off_c, 0, 58, 100
1, 69352, Note_on_c, 0, 55, 100
1, 69400, Note_off_c, 0, 55, 100
1, 69400, Note_on_c, 0, 54, 100
1, 69448, Note_off_c, 0, 54, 100
1, 69448, Note_on_c, 0, 53, 100
1, 69496, Note_off_c, 0, 53, 100
1, 69496, Note_on_c, 0, 51, 100
1, 69592, Note_off_c, 0, 51, 100
1, 69880, Note_on_c, 0, 46, 100
1, 69928, Note_off_c, 0, 46, 100
1, 69928, Note_on_c, 0, 48, 100
1, 70024, Note_off_c, 0, 48, 100
1, 70024, Note_on_c, 0, 53, 100
1, 70110, Note_off_c, 0, 53, 100
1, 70110, Note_on_c, 0, 49, 100
1, 70148, Note_off_c, 0, 49, 100
1, 70148, Note_on_c, 0, 50, 100
1, 70186, Note_off_c, 0, 50, 100
1, 70186, Note_on_c, 0, 51, 100
1, 70224, Note_off_c, 0, 51, 100
1, 70224, Note_on_c, 0, 56, 100
1, 70300, Note_off_c, 0, 56, 100
1, 70300, Note_on_c, 0, 54, 100
1, 70376, Note_off_c, 0, 54, 100
1, 70376, Note_on_c, 0, 56, 100
1, 70414, Note_off_c, 0, 56, 100
1, 70414, Note_on_c, 0, 58, 100
1, 70452, Note_off_c, 0, 58, 100
1, 70452, Note_on_c, 0, 61, 100
1, 70516, Note_off_c, 0, 61, 100
1, 70516, Note_on_c, 0, 58, 100
1, 70580, Note_off_c, 0, 58, 100
1, 70580, Note_on_c, 0, 61, 100
1, 70644, Note_off_c, 0, 61, 100
1, 70644, Note_on_c, 0, 63, 100
1, 70692, Note_off_c, 0, 63, 100
1, 70692, Note_on_c, 0, 66, 100
1, 70740, Note_off_c, 0, 66, 100
1, 70740, Note_on_c, 0, 64, 100
1, 70836, Note_off_c, 0, 64, 100
1, 71028, Note_on_c, 0, 51, 100
1, 71124, Note_off_c, 0, 51, 100
1, 71124, Note_on_c, 0, 55, 100
1, 71220, Note_off_c, 0, 55, 100
1, 71220, Note_on_c, 0, 56, 100
1, 71258, Note_off_c, 0, 56, 100
1, 71258, Note_on_c, 0, 59, 100
1, 71296, Note_off_c, 0, 59, 100
1, 71296, Note_on_c, 0, 56, 100
1, 71372, Note_off_c, 0, 56, 100
1, 71372, Note_on_c, 0, 59, 100
1, 71410, Note_off_c, 0, 59, 100
1, 71410, Note_on_c, 0, 62, 100
1, 71458, Note_off_c, 0, 62, 100
1, 71458, Note_on_c, 0, 64, 100
1, 71506, Note_off_c, 0, 64, 100
1, 71506, Note_on_c, 0, 62, 100
1, 71602, Note_off_c, 0, 62, 100
1, 72082, Note_on_c, 0, 70, 100
1, 72322, Note_off_c, 0, 70, 100
1, 72322, Note_on_c, 0, 62, 100
1, 72418, Note_off_c, 0, 62, 100
1, 72418, Note_on_c, 0, 63, 100
1, 72514, Note_off_c, 0, 63, 100
1, 72514, Note_on_c, 0, 65, 100
1, 72658, Note_off_c, 0, 65, 100
1, 72658, Note_on_c, 0, 67, 100
1, 72754, Note_off_c, 0, 67, 100
1, 72754, Note_on_c, 0, 70, 100
1, 72802, Note_off_c, 0, 70, 100
1, 72802, Note_on_c, 0, 69, 100
1, 72898, Note_off_c, 0, 69, 100
1, 72898, Note_on_c, 0, 67, 100
1, 73042, Note_off_c, 0, 67, 100
1, 73042, Note_on_c, 0, 65, 100
1, 73234, Note_off_c, 0, 65, 100
1, 73234, Note_on_c, 0, 60, 100
1, 73282, Note_off_c, 0, 60, 100
1, 73282, Note_on_c, 0, 63, 100
1, 73378, Note_off_c, 0, 63, 100
1, 73378, Note_on_c, 0, 62, 100
1, 73474, Note_off_c, 0, 62, 100
1, 73474, Note_on_c, 0, 61, 100
1, 73570, Note_off_c, 0, 61, 100
1, 73570, Note_on_c, 0, 60, 100
1, 73666, Note_off_c, 0, 60, 100
1, 73666, Note_on_c, 0, 59, 100
1, 73714, Note_off_c, 0, 59, 100
1, 73714, Note_on_c, 0, 58, 100
1, 73810, Note_off_c, 0, 58, 100
1, 74050, Note_on_c, 0, 61, 100
1, 74098, Note_off_c, 0, 61, 100
1, 74098, Note_on_c, 0, 62, 100
1, 74242, Note_off_c, 0, 62, 100
1, 74242, Note_on_c, 0, 65, 100
1, 74338, Note_off_c, 0, 65, 100
1, 74338, Note_on_c, 0, 67, 100
1, 74482, Note_off_c, 0, 67, 100
1, 74482, Note_on_c, 0, 70, 100
1, 74578, Note_off_c, 0, 70, 100
1, 74578, Note_on_c, 0, 70, 100
1, 74674, Note_off_c, 0, 70, 100
1, 74674, Note_on_c, 0, 70, 100
1, 74770, Note_off_c, 0, 70, 100
1, 74770, Note_on_c, 0, 70, 100
1, 74914, Note_off_c, 0, 70, 100
1, 74914, Note_on_c, 0, 68, 100
1, 75010, Note_off_c, 0, 68, 100
1, 75010, Note_on_c, 0, 65, 100
1, 75154, Note_off_c, 0, 65, 100
1, 75154, Note_on_c, 0, 70, 100
1, 75314, Note_off_c, 0, 70, 100
1, 75314, Note_on_c, 0, 68, 100
1, 75442, Note_off_c, 0, 68, 100
1, 75442, Note_on_c, 0, 65, 100
1, 75586, Note_off_c, 0, 65, 100
1, 75586, Note_on_c, 0, 65, 100
1, 75682, Note_off_c, 0, 65, 100
1, 76162, Note_on_c, 0, 58, 100
1, 76306, Note_off_c, 0, 58, 100
1, 76306, Note_on_c, 0, 61, 100
1, 76498, Note_off_c, 0, 61, 100
1, 76498, Note_on_c, 0, 65, 100
1, 76690, Note_off_c, 0, 65, 100
1, 76690, Note_on_c, 0, 70, 100
1, 76882, Note_off_c, 0, 70, 100
1, 76882, Note_on_c, 0, 73, 100
1, 77122, Note_off_c, 0, 73, 100
1, 77122, Note_on_c, 0, 77, 100
1, 77794, Note_off_c, 0, 77, 100
1, 78418, Note_on_c, 0, 76, 100
1, 78514, Note_off_c, 0, 76, 100
1, 79186, Note_on_c, 0, 83, 100
1, 79234, Note_off_c, 0, 83, 100
1, 79234, Note_on_c, 0, 84, 100
1, 79378, Note_off_c, 0, 84, 100
1, 79378, Note_on_c, 0, 76, 100
1, 79522, Note_off_c, 0, 76, 100
1, 79522, Note_on_c, 0, 75, 100
1, 79762, Note_off_c, 0, 75, 100
1, 79762, Note_on_c, 0, 73, 100
1, 79858, Note_off_c, 0, 73, 100
1, 79858, Note_on_c, 0, 70, 100
1, 80146, Note_off_c, 0, 70, 100
1, 80146, Note_on_c, 0, 73, 100
1, 80338, Note_off_c, 0, 73, 100
1, 80338, Note_on_c, 0, 70, 100
1, 80434, Note_off_c, 0, 70, 100
1, 80434, Note_on_c, 0, 73, 100
1, 80530, Note_off_c, 0, 73, 100
1, 80530, Note_on_c, 0, 75, 100
1, 80626, Note_off_c, 0, 75, 100
1, 80626, Note_on_c, 0, 75, 100
1, 80690, Note_off_c, 0, 75, 100
1, 80690, Note_on_c, 0, 76, 100
1, 80754, Note_off_c, 0, 76, 100
1, 80754, Note_on_c, 0, 75, 100
1, 81138, Note_off_c, 0, 75, 100
1, 81586, Note_on_c, 0, 76, 100
1, 81634, Note_off_c, 0, 76, 100
1, 81634, Note_on_c, 0, 75, 100
1, 81730, Note_off_c, 0, 75, 100
1, 81730, Note_on_c, 0, 73, 100
1, 81778, Note_off_c, 0, 73, 100
1, 81778, Note_on_c, 0, 70, 100
1, 82066, Note_off_c, 0, 70, 100
1, 82066, Note_on_c, 0, 68, 100
1, 82162, Note_off_c, 0, 68, 100
1, 82162, Note_on_c, 0, 65, 100
1, 82258, Note_off_c, 0, 65, 100
1, 82258, Note_on_c, 0, 68, 100
1, 82354, Note_off_c, 0, 68, 100
1, 83314, Note_on_c, 0, 72, 100
1, 83410, Note_off_c, 0, 72, 100
1, 83410, Note_on_c, 0, 73, 100
1, 83602, Note_off_c, 0, 73, 100
1, 83602, Note_on_c, 0, 70, 100
1, 83698, Note_off_c, 0, 70, 100
1, 83698, Note_on_c, 0, 73, 100
1, 83762, Note_off_c, 0, 73, 100
1, 83762, Note_on_c, 0, 70, 100
1, 83826, Note_off_c, 0, 70, 100
1, 83826, Note_on_c, 0, 73, 100
1, 83890, Note_off_c, 0, 73, 100
1, 83890, Note_on_c, 0, 70, 100
1, 84274, Note_off_c, 0, 70, 100
1, 84274, Note_on_c, 0, 68, 100
1, 84418, Note_off_c, 0, 68, 100
1, 84418, Note_on_c, 0, 68, 100
1, 84466, Note_off_c, 0, 68, 100
1, 84466, Note_on_c, 0, 65, 100
1, 84850, Note_off_c, 0, 65, 100
1, 84850, Note_on_c, 0, 63, 100
1, 84914, Note_off_c, 0, 63, 100
1, 84914, Note_on_c, 0, 61, 100
1, 84978, Note_off_c, 0, 61, 100
1, 84978, Note_on_c, 0, 63, 100
1, 85090, Note_off_c, 0, 63, 100
1, 85090, Note_on_c, 0, 58, 100
1, 85426, Note_off_c, 0, 58, 100
1, 85426, Note_on_c, 0, 56, 100
1, 85522, Note_off_c, 0, 56, 100
1, 85522, Note_on_c, 0, 53, 100
1, 85570, Note_off_c, 0, 53, 100
1, 85570, Note_on_c, 0, 56, 100
1, 85618, Note_off_c, 0, 56, 100
1, 85618, Note_on_c, 0, 53, 100
1, 85954, Note_off_c, 0, 53, 100
1, 85954, Note_on_c, 0, 56, 100
1, 86002, Note_off_c, 0, 56, 100
1, 86002, Note_on_c, 0, 60, 100
1, 86050, Note_off_c, 0, 60, 100
1, 86050, Note_on_c, 0, 63, 100
1, 86098, Note_off_c, 0, 63, 100
1, 86098, Note_on_c, 0, 67, 100
1, 86146, Note_off_c, 0, 67, 100
1, 86146, Note_on_c, 0, 62, 100
1, 86290, Note_off_c, 0, 62, 100
1, 86290, Note_on_c, 0, 65, 100
1, 86338, Note_off_c, 0, 65, 100
1, 86338, Note_on_c, 0, 68, 100
1, 86386, Note_off_c, 0, 68, 100
1, 86386, Note_on_c, 0, 72, 100
1, 86434, Note_off_c, 0, 72, 100
1, 86434, Note_on_c, 0, 70, 100
1, 86626, Note_off_c, 0, 70, 100
1, 86866, Note_on_c, 0, 75, 100
1, 87154, Note_off_c, 0, 75, 100
1, 87154, Note_on_c, 0, 73, 100
1, 87346, Note_off_c, 0, 73, 100
1, 87346, Note_on_c, 0, 70, 100
1, 87490, Note_off_c, 0, 70, 100
1, 87490, Note_on_c, 0, 75, 100
1, 87586, Note_off_c, 0, 75, 100
1, 87586, Note_on_c, 0, 73, 100
1, 87682, Note_off_c, 0, 73, 100
1, 87682, Note_on_c, 0, 70, 100
1, 87778, Note_off_c, 0, 70, 100
1, 87778, Note_on_c, 0, 68, 100
1, 87874, Note_off_c, 0, 68, 100
1, 87874, Note_on_c, 0, 66, 100
1, 87970, Note_off_c, 0, 66, 100
1, 87970, Note_on_c, 0, 63, 100
1, 88066, Note_off_c, 0, 63, 100
1, 88066, Note_on_c, 0, 65, 100
1, 88162, Note_off_c, 0, 65, 100
1, 88450, Note_on_c, 0, 63, 100
1, 88562, Note_off_c, 0, 63, 100
1, 88562, Note_on_c, 0, 65, 100
1, 88738, Note_off_c, 0, 65, 100
1, 88738, Note_on_c, 0, 63, 100
1, 88834, Note_off_c, 0, 63, 100
1, 88834, Note_on_c, 0, 61, 100
1, 88930, Note_off_c, 0, 61, 100
1, 88930, Note_on_c, 0, 58, 100
1, 89138, Note_off_c, 0, 58, 100
1, 89138, Note_on_c, 0, 60, 100
1, 89202, Note_off_c, 0, 60, 100
1, 89202, Note_on_c, 0, 61, 100
1, 89314, Note_off_c, 0, 61, 100
1, 89314, Note_on_c, 0, 60, 100
1, 89410, Note_off_c, 0, 60, 100
1, 89410, Note_on_c, 0, 58, 100
1, 89506, Note_off_c, 0, 58, 100
1, 89506, Note_on_c, 0, 57, 100
1, 89602, Note_off_c, 0, 57, 100
1, 89602, Note_on_c, 0, 53, 100
1, 89698, Note_off_c, 0, 53, 100
1, 90562, Note_on_c, 0, 60, 100
1, 90658, Note_off_c, 0, 60, 100
1, 90658, Note_on_c, 0, 62, 100
1, 90706, Note_off_c, 0, 62, 100
1, 90706, Note_on_c, 0, 63, 100
1, 90802, Note_off_c, 0, 63, 100
1, 90802, Note_on_c, 0, 67, 100
1, 90850, Note_off_c, 0, 67, 100
1, 90850, Note_on_c, 0, 70, 100
1, 90898, Note_off_c, 0, 70, 100
1, 90898, Note_on_c, 0, 69, 100
1, 90946, Note_off_c, 0, 69, 100
1, 90946, Note_on_c, 0, 67, 100
1, 90994, Note_off_c, 0, 67, 100
1, 90994, Note_on_c, 0, 65, 100
1, 91058, Note_off_c, 0, 65, 100
1, 91058, Note_on_c, 0, 64, 100
1, 91122, Note_off_c, 0, 64, 100
1, 91122, Note_on_c, 0, 63, 100
1, 91186, Note_off_c, 0, 63, 100
1, 91186, Note_on_c, 0, 62, 100
1, 91234, Note_off_c, 0, 62, 100
1, 91234, Note_on_c, 0, 60, 100
1, 91282, Note_off_c, 0, 60, 100
1, 91282, Note_on_c, 0, 58, 100
1, 91330, Note_off_c, 0, 58, 100
1, 91330, Note_on_c, 0, 57, 100
1, 91426, Note_off_c, 0, 57, 100
1, 92050, Note_on_c, 0, 64, 100
1, 92146, Note_off_c, 0, 64, 100
1, 92146, Note_on_c, 0, 65, 100
1, 92242, Note_off_c, 0, 65, 100
1, 92914, Note_on_c, 0, 64, 100
1, 93010, Note_off_c, 0, 64, 100
1, 93010, Note_on_c, 0, 65, 100
1, 93154, Note_off_c, 0, 65, 100
1, 93154, Note_on_c, 0, 65, 100
1, 93250, Note_off_c, 0, 65, 100
1, 93250, Note_on_c, 0, 65, 100
1, 93346, Note_off_c, 0, 65, 100
1, 93346, Note_on_c, 0, 64, 100
1, 93442, Note_off_c, 0, 64, 100
1, 93442, Note_on_c, 0, 65, 100
1, 93538, Note_off_c, 0, 65, 100
1, 93538, Note_on_c, 0, 65, 100
1, 93634, Note_off_c, 0, 65, 100
1, 93634, Note_on_c, 0, 65, 100
1, 93730, Note_off_c, 0, 65, 100
1, 93730, Note_on_c, 0, 64, 100
1, 93826, Note_off_c, 0, 64, 100
1, 93826, Note_on_c, 0, 65, 100
1, 93874, Note_off_c, 0, 65, 100
1, 93874, Note_on_c, 0, 65, 100
1, 93970, Note_off_c, 0, 65, 100
1, 93970, Note_on_c, 0, 65, 100
1, 94066, Note_off_c, 0, 65, 100
1, 94066, Note_on_c, 0, 64, 100
1, 94162, Note_off_c, 0, 64, 100
1, 94162, Note_on_c, 0, 65, 100
1, 94258, Note_off_c, 0, 65, 100
1, 94258, Note_on_c, 0, 65, 100
1, 94354, Note_off_c, 0, 65, 100
1, 94354, Note_on_c, 0, 65, 100
1, 94450, Note_off_c, 0, 65, 100
1, 94450, Note_on_c, 0, 64, 100
1, 94546, Note_off_c, 0, 64, 100
1, 94546, Note_on_c, 0, 65, 100
1, 94642, Note_off_c, 0, 65, 100
1, 94642, Note_on_c, 0, 65, 100
1, 94738, Note_off_c, 0, 65, 100
1, 94738, Note_on_c, 0, 65, 100
1, 94834, Note_off_c, 0, 65, 100
1, 94834, Note_on_c, 0, 64, 100
1, 94930, Note_off_c, 0, 64, 100
1, 94930, Note_on_c, 0, 65, 100
1, 95026, Note_off_c, 0, 65, 100
1, 95026, Note_on_c, 0, 65, 100
1, 95122, Note_off_c, 0, 65, 100
1, 95122, Note_on_c, 0, 65, 100
1, 95282, Note_off_c, 0, 65, 100
1, 95282, Note_on_c, 0, 70, 100
1, 95410, Note_off_c, 0, 70, 100
1, 95410, Note_on_c, 0, 63, 100
1, 95506, Note_off_c, 0, 63, 100
1, 95506, Note_on_c, 0, 64, 100
1, 95602, Note_off_c, 0, 64, 100
1, 95602, Note_on_c, 0, 63, 100
1, 95986, Note_off_c, 0, 63, 100
1, 95986, Note_on_c, 0, 61, 100
1, 96082, Note_off_c, 0, 61, 100
1, 96082, Note_on_c, 0, 58, 100
1, 96178, Note_off_c, 0, 58, 100
1, 96178, Note_on_c, 0, 58, 100
1, 96274, Note_off_c, 0, 58, 100
1, 96898, Note_on_c, 0, 58, 100
1, 96946, Note_off_c, 0, 58, 100
1, 96946, Note_on_c, 0, 61, 100
1, 97042, Note_off_c, 0, 61, 100
1, 97042, Note_on_c, 0, 62, 100
1, 97138, Note_off_c, 0, 62, 100
1, 97138, Note_on_c, 0, 65, 100
1, 97202, Note_off_c, 0, 65, 100
1, 97202, Note_on_c, 0, 61, 100
1, 97266, Note_off_c, 0, 61, 100
1, 97266, Note_on_c, 0, 62, 100
1, 97330, Note_off_c, 0, 62, 100
1, 97330, Note_on_c, 0, 65, 100
1, 97394, Note_off_c, 0, 65, 100
1, 97394, Note_on_c, 0, 61, 100
1, 97458, Note_off_c, 0, 61, 100
1, 97458, Note_on_c, 0, 62, 100
1, 97522, Note_off_c, 0, 62, 100
1, 97522, Note_on_c, 0, 65, 100
1, 97650, Note_off_c, 0, 65, 100
1, 97650, Note_on_c, 0, 57, 100
1, 97714, Note_off_c, 0, 57, 100
1, 97714, Note_on_c, 0, 58, 100
1, 97906, Note_off_c, 0, 58, 100
1, 97906, Note_on_c, 0, 67, 100
1, 98050, Note_off_c, 0, 67, 100
1, 98050, Note_on_c, 0, 65, 100
1, 98338, Note_off_c, 0, 65, 100
1, 99058, Note_on_c, 0, 60, 100
1, 99154, Note_off_c, 0, 60, 100
1, 99154, Note_on_c, 0, 63, 100
1, 99250, Note_off_c, 0, 63, 100
1, 99250, Note_on_c, 0, 62, 100
1, 99378, Note_off_c, 0, 62, 100
1, 99378, Note_on_c, 0, 60, 100
1, 99442, Note_off_c, 0, 60, 100
1, 99442, Note_on_c, 0, 65, 100
1, 99634, Note_off_c, 0, 65, 100
1, 99634, Note_on_c, 0, 60, 100
1, 99730, Note_off_c, 0, 60, 100
1, 99730, Note_on_c, 0, 63, 100
1, 99826, Note_off_c, 0, 63, 100
1, 99826, Note_on_c, 0, 62, 100
1, 99922, Note_off_c, 0, 62, 100
1, 99922, Note_on_c, 0, 60, 100
1, 100018, Note_off_c, 0, 60, 100
1, 100018, Note_on_c, 0, 65, 100
1, 100210, Note_off_c, 0, 65, 100
1, 100210, Note_on_c, 0, 60, 100
1, 100306, Note_off_c, 0, 60, 100
1, 100306, Note_on_c, 0, 63, 100
1, 100402, Note_off_c, 0, 63, 100
1, 100402, Note_on_c, 0, 62, 100
1, 100498, Note_off_c, 0, 62, 100
1, 100498, Note_on_c, 0, 60, 100
1, 100594, Note_off_c, 0, 60, 100
1, 100594, Note_on_c, 0, 65, 100
1, 100690, Note_off_c, 0, 65, 100
1, 100690, Note_on_c, 0, 65, 100
1, 100834, Note_off_c, 0, 65, 100
1, 100834, Note_on_c, 0, 65, 100
1, 100930, Note_off_c, 0, 65, 100
1, 100930, Note_on_c, 0, 65, 100
1, 101026, Note_off_c, 0, 65, 100
1, 101026, Note_on_c, 0, 61, 100
1, 101074, Note_off_c, 0, 61, 100
1, 101074, Note_on_c, 0, 62, 100
1, 101170, Note_off_c, 0, 62, 100
1, 101170, Note_on_c, 0, 62, 100
1, 101266, Note_off_c, 0, 62, 100
1, 102226, Note_on_c, 0, 70, 100
1, 102418, Note_off_c, 0, 70, 100
1, 102418, Note_on_c, 0, 69, 100
1, 102610, Note_off_c, 0, 69, 100
1, 102610, Note_on_c, 0, 67, 100
1, 102706, Note_off_c, 0, 67, 100
1, 102898, Note_on_c, 0, 70, 100
1, 103090, Note_off_c, 0, 70, 100
1, 103090, Note_on_c, 0, 65, 100
1, 103282, Note_off_c, 0, 65, 100
1, 103282, Note_on_c, 0, 65, 100
1, 103570, Note_off_c, 0, 65, 100
1, 103570, Note_on_c, 0, 63, 100
1, 103666, Note_off_c, 0, 63, 100
1, 103666, Note_on_c, 0, 62, 100
1, 103858, Note_off_c, 0, 62, 100
1, 103858, Note_on_c, 0, 62, 100
1, 104050, Note_off_c, 0, 62, 100
1, 104050, Note_on_c, 0, 60, 100
1, 104242, Note_off_c, 0, 60, 100
1, 104242, Note_on_c, 0, 60, 100
1, 104434, Note_off_c, 0, 60, 100
1, 104434, Note_on_c, 0, 58, 100
1, 104530, Note_off_c, 0, 58, 100
1, 104530, Note_on_c, 0, 60, 100
1, 104626, Note_off_c, 0, 60, 100
1, 104626, Note_on_c, 0, 62, 100
1, 104722, Note_off_c, 0, 62, 100
1, 104722, Note_on_c, 0, 63, 100
1, 104818, Note_off_c, 0, 63, 100
1, 104818, Note_on_c, 0, 65, 100
1, 104962, Note_off_c, 0, 65, 100
1, 104962, Note_on_c, 0, 63, 100
1, 105106, Note_off_c, 0, 63, 100
1, 105106, Note_on_c, 0, 65, 100
1, 105154, Note_off_c, 0, 65, 100
1, 105154, Note_on_c, 0, 63, 100
1, 105202, Note_off_c, 0, 63, 100
1, 105202, Note_on_c, 0, 61, 100
1, 105346, Note_off_c, 0, 61, 100
1, 105346, Note_on_c, 0, 58, 100
1, 105634, Note_off_c, 0, 58, 100
1, 106066, Note_on_c, 0, 55, 100
1, 106114, Note_off_c, 0, 55, 100
1, 106114, Note_on_c, 0, 58, 100
1, 106162, Note_off_c, 0, 58, 100
1, 106162, Note_on_c, 0, 61, 100
1, 106210, Note_off_c, 0, 61, 100
1, 106210, Note_on_c, 0, 65, 100
1, 106258, Note_off_c, 0, 65, 100
1, 106258, Note_on_c, 0, 69, 100
1, 106306, Note_off_c, 0, 69, 100
1, 106306, Note_on_c, 0, 73, 100
1, 106354, Note_off_c, 0, 73, 100
1, 106354, Note_on_c, 0, 69, 100
1, 106546, Note_off_c, 0, 69, 100
1, 106546, Note_on_c, 0, 72, 100
1, 106642, Note_off_c, 0, 72, 100
1, 106642, Note_on_c, 0, 64, 100
1, 106738, Note_off_c, 0, 64, 100
1, 106738, Note_on_c, 0, 65, 100
1, 106930, Note_off_c, 0, 65, 100
1, 107506, Note_on_c, 0, 76, 100
1, 107602, Note_off_c, 0, 76, 100
1, 107602, Note_on_c, 0, 74, 100
1, 107650, Note_off_c, 0, 74, 100
1, 107650, Note_on_c, 0, 72, 100
1, 107698, Note_off_c, 0, 72, 100
1, 107698, Note_on_c, 0, 68, 100
1, 107746, Note_off_c, 0, 68, 100
1, 107746, Note_on_c, 0, 65, 100
1, 107890, Note_off_c, 0, 65, 100
1, 107890, Note_on_c, 0, 75, 100
1, 108005, Note_off_c, 0, 75, 100
1, 108005, Note_on_c, 0, 70, 100
1, 108043, Note_off_c, 0, 70, 100
1, 108043, Note_on_c, 0, 68, 100
1, 108081, Note_off_c, 0, 68, 100
1, 108081, Note_on_c, 0, 64, 100
1, 108177, Note_off_c, 0, 64, 100
1, 108177, Note_on_c, 0, 63, 100
1, 108513, Note_off_c, 0, 63, 100
1, 108513, Note_on_c, 0, 67, 100
1, 108561, Note_off_c, 0, 67, 100
1, 108561, Note_on_c, 0, 70, 100
1, 108609, Note_off_c, 0, 70, 100
1, 108609, Note_on_c, 0, 73, 100
1, 108657, Note_off_c, 0, 73, 100
1, 108657, Note_on_c, 0, 74, 100
1, 108785, Note_off_c, 0, 74, 100
1, 108785, Note_on_c, 0, 72, 100
1, 108881, Note_off_c, 0, 72, 100
1, 109137, Note_on_c, 0, 76, 100
1, 109185, Note_off_c, 0, 76, 100
1, 109185, Note_on_c, 0, 77, 100
1, 109425, Note_off_c, 0, 77, 100
1, 109425, Note_on_c, 0, 74, 100
1, 109521, Note_off_c, 0, 74, 100
1, 109521, Note_on_c, 0, 72, 100
1, 109665, Note_off_c, 0, 72, 100
1, 109665, Note_on_c, 0, 69, 100
1, 109761, Note_off_c, 0, 69, 100
1, 109761, Note_on_c, 0, 72, 100
1, 109873, Note_off_c, 0, 72, 100
1, 109873, Note_on_c, 0, 70, 100
1, 110001, Note_off_c, 0, 70, 100
1, 110001, Note_on_c, 0, 65, 100
1, 110193, Note_off_c, 0, 65, 100
1, 110481, Note_on_c, 0, 66, 100
1, 110577, Note_off_c, 0, 66, 100
1, 110577, Note_on_c, 0, 67, 100
1, 110673, Note_off_c, 0, 67, 100
1, 110673, Note_on_c, 0, 68, 100
1, 110769, Note_off_c, 0, 68, 100
1, 110769, Note_on_c, 0, 67, 100
1, 110865, Note_off_c, 0, 67, 100
1, 110865, Note_on_c, 0, 66, 100
1, 110961, Note_off_c, 0, 66, 100
1, 110961, Note_on_c, 0, 65, 100
1, 111105, Note_off_c, 0, 65, 100
1, 111105, Note_on_c, 0, 58, 100
1, 111153, Note_off_c, 0, 58, 100
1, 111153, Note_on_c, 0, 61, 100
1, 111249, Note_off_c, 0, 61, 100
1, 111249, Note_on_c, 0, 62, 100
1, 111345, Note_off_c, 0, 62, 100
1, 111345, Note_on_c, 0, 58, 100
1, 111489, Note_off_c, 0, 58, 100
1, 111489, Note_on_c, 0, 58, 100
1, 111737, Note_off_c, 0, 58, 100
1, 111737, End_track
0, 0, End_of_file
