0, 0, Header, 1, 1, 192
1, 0, Start_track
1, 0, Title_t, "Melody"
1, 0, Tempo, 500000
1, 0, Key_signature, -3, "major"
1, 0, Time_signature, 4, 2, 24, 8
1, 288, Note_on_c, 0, 51, 100
1, 384, Note_off_c, 0, 51, 100
1, 384, Note_on_c, 0, 52, 100
1, 512, Note_off_c, 0, 52, 100
1, 512, Note_on_c, 0, 60, 100
1, 672, Note_off_c, 0, 60, 100
1, 672, Note_on_c, 0, 52, 100
1, 768, Note_off_c, 0, 52, 100
1, 768, Note_on_c, 0, 53, 100
1, 864, Note_off_c, 0, 53, 100
1, 864, Note_on_c, 0, 55, 100
1, 960, Note_off_c, 0, 55, 100
1, 960, Note_on_c, 0, 56, 100
1, 1056, Note_off_c, 0, 56, 100
1, 1056, Note_on_c, 0, 53, 100
1, 1152, Note_off_c, 0, 53, 100
1, 1152, Note_on_c, 0, 54, 100
1, 1248, Note_off_c, 0, 54, 100
1, 1248, Note_on_c, 0, 57, 100
1, 1296, Note_off_c, 0, 57, 100
1, 1296, Note_on_c, 0, 62, 100
1, 1392, Note_off_c, 0, 62, 100
1, 1392, Note_on_c, 0, 63, 100
1, 1440, Note_off_c, 0, 63, 100
1, 1440, Note_on_c, 0, 62, 100
1, 1488, Note_off_c, 0, 62, 100
1, 1488, Note_on_c, 0, 60, 100
1, 1536, Note_off_c, 0, 60, 100
1, 1536, Note_on_c, 0, 58, 100
1, 1632, Note_off_c, 0, 58, 100
1, 1632, Note_on_c, 0, 63, 100
1, 1824, Note_off_c, 0, 63, 100
1, 1824, Note_on_c, 0, 63, 100
1, 1920, Note_off_c, 0, 63, 100
1, 1920, Note_on_c, 0, 62, 100
1, 2064, Note_off_c, 0, 62, 100
1, 2064, Note_on_c, 0, 65, 100
1, 2208, Note_off_c, 0, 65, 100
1, 2208, Note_on_c, 0, 65, 100
1, 2304, Note_off_c, 0, 65, 100
1, 2304, Note_on_c, 0, 63, 100
1, 2400, Note_off_c, 0, 63, 100
1, 2400, Note_on_c, 0, 60, 100
1, 2544, Note_off_c, 0, 60, 100
1, 2544, Note_on_c, 0, 63, 100
1, 2640, Note_off_c, 0, 63, 100
1, 2640, Note_on_c, 0, 67, 100
1, 2688, Note_off_c, 0, 67, 100
1, 2688, Note_on_c, 0, 65, 100
1, 2784, Note_off_c, 0, 65, 100
1, 2784, Note_on_c, 0, 67, 100
1, 2880, Note_off_c, 0, 67, 100
1, 2880, Note_on_c, 0, 68, 100
1, 2976, Note_off_c, 0, 68, 100
1, 2976, Note_on_c, 0, 70, 100
1, 3120, Note_off_c, 0, 70, 100
1, 3120, Note_on_c, 0, 67, 100
1, 3216, Note_off_c, 0, 67, 100
1, 3216, Note_on_c, 0, 58, 100
1, 3312, Note_off_c, 0, 58, 100
1, 3312, Note_on_c, 0, 60, 100
1, 3408, Note_off_c, 0, 60, 100
1, 3408, Note_on_c, 0, 65, 100
1, 3504, Note_off_c, 0, 65, 100
1, 3936, Note_on_c, 0, 68, 100
1, 4032, Note_off_c, 0, 68, 100
1, 4032, Note_on_c, 0, 64, 100
1, 4096, Note_off_c, 0, 64, 100
1, 4096, Note_on_c, 0, 61, 100
1, 4160, Note_off_c, 0, 61, 100
1, 4160, Note_on_c, 0, 56, 100
1, 4272, Note_off_c, 0, 56, 100
1, 4272, Note_on_c, 0, 66, 100
1, 4320, Note_off_c, 0, 66, 100
1, 4320, Note_on_c, 0, 68, 100
1, 4368, Note_off_c, 0, 68, 100
1, 4368, Note_on_c, 0, 66, 100
1, 4560, Note_off_c, 0, 66, 100
1, 4752, Note_on_c, 0, 67, 100
1, 4800, Note_off_c, 0, 67, 100
1, 4800, Note_on_c, 0, 68, 100
1, 4896, Note_off_c, 0, 68, 100
1, 4896, Note_on_c, 0, 67, 100
1, 5088, Note_off_c, 0, 67, 100
1, 5088, Note_on_c, 0, 65, 100
1, 5136, Note_off_c, 0, 65, 100
1, 5136, Note_on_c, 0, 67, 100
1, 5248, Note_off_c, 0, 67, 100
1, 5248, Note_on_c, 0, 65, 100
1, 5520, Note_off_c, 0, 65, 100
1, 5520, Note_on_c, 0, 63, 100
1, 5616, Note_off_c, 0, 63, 100
1, 5616, Note_on_c, 0, 65, 100
1, 5712, Note_off_c, 0, 65, 100
1, 5712, Note_on_c, 0, 63, 100
1, 5760, Note_off_c, 0, 63, 100
1, 5760, Note_on_c, 0, 67, 100
1, 5952, Note_off_c, 0, 67, 100
1, 6336, Note_on_c, 0, 62, 100
1, 6399, Note_off_c, 0, 62, 100
1, 6399, Note_on_c, 0, 60, 100
1, 6463, Note_off_c, 0, 60, 100
1, 6463, Note_on_c, 0, 65, 100
1, 6526, Note_off_c, 0, 65, 100
1, 6526, Note_on_c, 0, 62, 100
1, 6622, Note_off_c, 0, 62, 100
1, 6622, Note_on_c, 0, 64, 100
1, 6670, Note_off_c, 0, 64, 100
1, 6670, Note_on_c, 0, 60, 100
1, 6862, Note_off_c, 0, 60, 100
1, 7054, Note_on_c, 0, 67, 100
1, 7150, Note_off_c, 0, 67, 100
1, 7150, Note_on_c, 0, 65, 100
1, 7246, Note_off_c, 0, 65, 100
1, 7246, Note_on_c, 0, 70, 100
1, 7294, Note_off_c, 0, 70, 100
1, 7294, Note_on_c, 0, 67, 100
1, 7630, Note_off_c, 0, 67, 100
1, 7630, Note_on_c, 0, 58, 100
1, 7678, Note_off_c, 0, 58, 100
1, 7678, Note_on_c, 0, 65, 100
1, 7934, Note_off_c, 0, 65, 100
1, 7934, Note_on_c, 0, 62, 100
1, 7966, Note_off_c, 0, 62, 100
1, 7966, Note_on_c, 0, 63, 100
1, 7998, Note_off_c, 0, 63, 100
1, 7998, Note_on_c, 0, 65, 100
1, 8030, Note_off_c, 0, 65, 100
1, 8030, Note_on_c, 0, 62, 100
1, 8182, Note_off_c, 0, 62, 100
1, 8182, Note_on_c, 0, 58, 100
1, 8206, Note_off_c, 0, 58, 100
1, 8206, Note_on_c, 0, 60, 100
1, 8230, Note_off_c, 0, 60, 100
1, 8230, Note_on_c, 0, 62, 100
1, 8254, Note_off_c, 0, 62, 100
1, 8254, Note_on_c, 0, 58, 100
1, 8446, Note_off_c, 0, 58, 100
1, 8446, Note_on_c, 0, 55, 100
1, 8494, Note_off_c, 0, 55, 100
1, 8494, Note_on_c, 0, 56, 100
1, 8542, Note_off_c, 0, 56, 100
1, 8542, Note_on_c, 0, 58, 100
1, 8590, Note_off_c, 0, 58, 100
1, 8590, Note_on_c, 0, 55, 100
1, 9022, Note_off_c, 0, 55, 100
1, 9022, Note_on_c, 0, 53, 100
1, 9094, Note_off_c, 0, 53, 100
1, 9094, Note_on_c, 0, 50, 100
1, 9142, Note_off_c, 0, 50, 100
1, 9142, Note_on_c, 0, 51, 100
1, 9166, Note_off_c, 0, 51, 100
1, 9166, Note_on_c, 0, 55, 100
1, 9190, Note_off_c, 0, 55, 100
1, 9190, Note_on_c, 0, 58, 100
1, 9214, Note_off_c, 0, 58, 100
1, 9214, Note_on_c, 0, 62, 100
1, 9310, Note_off_c, 0, 62, 100
1, 9310, Note_on_c, 0, 59, 100
1, 9358, Note_off_c, 0, 59, 100
1, 9358, Note_on_c, 0, 60, 100
1, 9406, Note_off_c, 0, 60, 100
1, 9406, Note_on_c, 0, 63, 100
1, 9438, Note_off_c, 0, 63, 100
1, 9438, Note_on_c, 0, 67, 100
1, 9502, Note_off_c, 0, 67, 100
1, 9502, Note_on_c, 0, 62, 100
1, 9534, Note_off_c, 0, 62, 100
1, 9534, Note_on_c, 0, 63, 100
1, 9566, Note_off_c, 0, 63, 100
1, 9566, Note_on_c, 0, 67, 100
1, 9598, Note_off_c, 0, 67, 100
1, 9598, Note_on_c, 0, 70, 100
1, 9646, Note_off_c, 0, 70, 100
1, 9646, Note_on_c, 0, 74, 100
1, 9694, Note_off_c, 0, 74, 100
1, 9694, Note_on_c, 0, 75, 100
1, 9838, Note_off_c, 0, 75, 100
1, 9838, Note_on_c, 0, 70, 100
1, 9934, Note_off_c, 0, 70, 100
1, 10174, Note_on_c, 0, 69, 100
1, 10366, Note_off_c, 0, 69, 100
1, 10366, Note_on_c, 0, 61, 100
1, 10462, Note_off_c, 0, 61, 100
1, 10750, Note_on_c, 0, 60, 100
1, 10846, Note_off_c, 0, 60, 100
1, 10846, Note_on_c, 0, 59, 100
1, 10894, Note_off_c, 0, 59, 100
1, 10894, Note_on_c, 0, 60, 100
1, 10942, Note_off_c, 0, 60, 100
1, 10942, Note_on_c, 0, 63, 100
1, 10990, Note_off_c, 0, 63, 100
1, 10990, Note_on_c, 0, 62, 100
1, 11038, Note_off_c, 0, 62, 100
1, 11038, Note_on_c, 0, 63, 100
1, 11086, Note_off_c, 0, 63, 100
1, 11086, Note_on_c, 0, 64, 100
1, 11134, Note_off_c, 0, 64, 100
1, 11134, Note_on_c, 0, 65, 100
1, 11198, Note_off_c, 0, 65, 100
1, 11198, Note_on_c, 0, 62, 100
1, 11326, Note_off_c, 0, 62, 100
1, 11326, Note_on_c, 0, 58, 100
1, 11422, Note_off_c, 0, 58, 100
1, 11710, Note_on_c, 0, 56, 100
1, 11758, Note_off_c, 0, 56, 100
1, 11758, Note_on_c, 0, 58, 100
1, 11806, Note_off_c, 0, 58, 100
1, 11806, Note_on_c, 0, 60, 100
1, 11854, Note_off_c, 0, 60, 100
1, 11854, Note_on_c, 0, 63, 100
1, 11902, Note_off_c, 0, 63, 100
1, 11902, Note_on_c, 0, 66, 100
1, 11950, Note_off_c, 0, 66, 100
1, 11950, Note_on_c, 0, 67, 100
1, 11998, Note_off_c, 0, 67, 100
1, 11998, Note_on_c, 0, 66, 100
1, 12046, Note_off_c, 0, 66, 100
1, 12046, Note_on_c, 0, 67, 100
1, 12094, Note_off_c, 0, 67, 100
1, 12094, Note_on_c, 0, 63, 100
1, 12158, Note_off_c, 0, 63, 100
1, 12158, Note_on_c, 0, 58, 100
1, 12222, Note_off_c, 0, 58, 100
1, 12222, Note_on_c, 0, 54, 100
1, 12286, Note_off_c, 0, 54, 100
1, 12286, Note_on_c, 0, 55, 100
1, 12310, Note_off_c, 0, 55, 100
1, 12310, Note_on_c, 0, 58, 100
1, 12358, Note_off_c, 0, 58, 100
1, 12358, Note_on_c, 0, 63, 100
1, 12406, Note_off_c, 0, 63, 100
1, 12406, Note_on_c, 0, 62, 100
1, 12454, Note_off_c, 0, 62, 100
1, 12454, Note_on_c, 0, 60, 100
1, 12478, Note_off_c, 0, 60, 100
1, 12478, Note_on_c, 0, 65, 100
1, 12574, Note_off_c, 0, 65, 100
1, 12574, Note_on_c, 0, 58, 100
1, 12670, Note_off_c, 0, 58, 100
1, 12670, Note_on_c, 0, 61, 100
1, 12734, Note_off_c, 0, 61, 100
1, 12734, Note_on_c, 0, 63, 100
1, 12797, Note_off_c, 0, 63, 100
1, 12797, Note_on_c, 0, 65, 100
1, 12861, Note_off_c, 0, 65, 100
1, 12861, Note_on_c, 0, 68, 100
1, 12925, Note_off_c, 0, 68, 100
1, 12925, Note_on_c, 0, 73, 100
1, 12988, Note_off_c, 0, 73, 100
1, 12988, Note_on_c, 0, 68, 100
1, 13052, Note_off_c, 0, 68, 100
1, 13052, Note_on_c, 0, 59, 100
1, 13100, Note_off_c, 0, 59, 100
1, 13100, Note_on_c, 0, 61, 100
1, 13148, Note_off_c, 0, 61, 100
1, 13148, Note_on_c, 0, 62, 100
1, 13196, Note_off_c, 0, 62, 100
1, 13196, Note_on_c, 0, 64, 100
1, 13244, Note_off_c, 0, 64, 100
1, 13244, Note_on_c, 0, 66, 100
1, 13292, Note_off_c, 0, 66, 100
1, 13292, Note_on_c, 0, 64, 100
1, 13340, Note_off_c, 0, 64, 100
1, 13340, Note_on_c, 0, 62, 100
1, 13388, Note_off_c, 0, 62, 100
1, 13388, Note_on_c, 0, 61, 100
1, 13436, Note_off_c, 0, 61, 100
1, 13436, Note_on_c, 0, 59, 100
1, 13532, Note_off_c, 0, 59, 100
1, 13532, Note_on_c, 0, 54, 100
1, 13580, Note_off_c, 0, 54, 100
1, 13580, Note_on_c, 0, 57, 100
1, 13628, Note_off_c, 0, 57, 100
1, 13628, Note_on_c, 0, 54, 100
1, 13692, Note_off_c, 0, 54, 100
1, 13692, Note_on_c, 0, 56, 100
1, 13756, Note_off_c, 0, 56, 100
1, 13756, Note_on_c, 0, 52, 100
1, 13852, Note_off_c, 0, 52, 100
1, 14460, Note_on_c, 0, 68, 100
1, 14524, Note_off_c, 0, 68, 100
1, 14524, Note_on_c, 0, 67, 100
1, 14588, Note_off_c, 0, 67, 100
1, 14588, Note_on_c, 0, 70, 100
1, 14652, Note_off_c, 0, 70, 100
1, 14652, Note_on_c, 0, 68, 100
1, 14716, Note_off_c, 0, 68, 100
1, 14716, Note_on_c, 0, 72, 100
1, 14780, Note_off_c, 0, 72, 100
1, 14780, Note_on_c, 0, 70, 100
1, 14844, Note_off_c, 0, 70, 100
1, 14844, Note_on_c, 0, 73, 100
1, 14908, Note_off_c, 0, 73, 100
1, 14908, Note_on_c, 0, 72, 100
1, 14972, Note_off_c, 0, 72, 100
1, 14972, Note_on_c, 0, 75, 100
1, 15100, Note_off_c, 0, 75, 100
1, 15100, Note_on_c, 0, 72, 100
1, 15260, Note_off_c, 0, 72, 100
1, 15260, Note_on_c, 0, 69, 100
1, 15596, Note_off_c, 0, 69, 100
1, 15596, Note_on_c, 0, 67, 100
1, 15644, Note_off_c, 0, 67, 100
1, 15644, Note_on_c, 0, 63, 100
1, 15692, Note_off_c, 0, 63, 100
1, 15692, Note_on_c, 0, 60, 100
1, 15788, Note_off_c, 0, 60, 100
1, 15788, Note_on_c, 0, 57, 100
1, 15884, Note_off_c, 0, 57, 100
1, 15884, Note_on_c, 0, 62, 100
1, 15980, Note_off_c, 0, 62, 100
1, 15980, Note_on_c, 0, 60, 100
1, 16076, Note_off_c, 0, 60, 100
1, 16076, Note_on_c, 0, 56, 100
1, 16268, Note_off_c, 0, 56, 100
1, 16508, Note_on_c, 0, 68, 100
1, 16572, Note_off_c, 0, 68, 100
1, 16572, Note_on_c, 0, 64, 100
1, 16636, Note_off_c, 0, 64, 100
1, 16636, Note_on_c, 0, 60, 100
1, 16700, Note_off_c, 0, 60, 100
1, 16700, Note_on_c, 0, 56, 100
1, 16748, Note_off_c, 0, 56, 100
1, 16748, Note_on_c, 0, 62, 100
1, 16796, Note_off_c, 0, 62, 100
1, 16796, Note_on_c, 0, 56, 100
1, 16988, Note_off_c, 0, 56, 100
1, 17276, Note_on_c, 0, 67, 100
1, 17324, Note_off_c, 0, 67, 100
1, 17324, Note_on_c, 0, 66, 100
1, 17372, Note_off_c, 0, 66, 100
1, 17372, Note_on_c, 0, 65, 100
1, 17420, Note_off_c, 0, 65, 100
1, 17420, Note_on_c, 0, 64, 100
1, 17468, Note_off_c, 0, 64, 100
1, 17468, Note_on_c, 0, 62, 100
1, 17516, Note_off_c, 0, 62, 100
1, 17516, Note_on_c, 0, 60, 100
1, 17564, Note_off_c, 0, 60, 100
1, 17564, Note_on_c, 0, 59, 100
1, 17612, Note_off_c, 0, 59, 100
1, 17612, Note_on_c, 0, 62, 100
1, 17660, Note_off_c, 0, 62, 100
1, 17660, Note_on_c, 0, 65, 100
1, 17708, Note_off_c, 0, 65, 100
1, 17708, Note_on_c, 0, 69, 100
1, 17756, Note_off_c, 0, 69, 100
1, 17756, Note_on_c, 0, 67, 100
1, 17804, Note_off_c, 0, 67, 100
1, 17804, Note_on_c, 0, 65, 100
1, 17852, Note_off_c, 0, 65, 100
1, 17852, Note_on_c, 0, 64, 100
1, 17900, Note_off_c, 0, 64, 100
1, 17900, Note_on_c, 0, 67, 100
1, 17948, Note_off_c, 0, 67, 100
1, 17948, Note_on_c, 0, 70, 100
1, 17996, Note_off_c, 0, 70, 100
1, 17996, Note_on_c, 0, 74, 100
1, 18044, Note_off_c, 0, 74, 100
1, 18044, Note_on_c, 0, 66, 100
1, 18108, Note_off_c, 0, 66, 100
1, 18108, Note_on_c, 0, 67, 100
1, 18172, Note_off_c, 0, 67, 100
1, 18172, Note_on_c, 0, 70, 100
1, 18236, Note_off_c, 0, 70, 100
1, 18236, Note_on_c, 0, 67, 100
1, 18284, Note_off_c, 0, 67, 100
1, 18284, Note_on_c, 0, 69, 100
1, 18332, Note_off_c, 0, 69, 100
1, 18332, Note_on_c, 0, 64, 100
1, 18428, Note_off_c, 0, 64, 100
1, 18812, Note_on_c, 0, 66, 100
1, 18860, Note_off_c, 0, 66, 100
1, 18860, Note_on_c, 0, 67, 100
1, 18908, Note_off_c, 0, 67, 100
1, 18908, Note_on_c, 0, 63, 100
1, 18956, Note_off_c, 0, 63, 100
1, 18956, Note_on_c, 0, 62, 100
1, 19052, Note_off_c, 0, 62, 100
1, 19052, Note_on_c, 0, 60, 100
1, 19148, Note_off_c, 0, 60, 100
1, 19148, Note_on_c, 0, 66, 100
1, 19196, Note_off_c, 0, 66, 100
1, 19196, Note_on_c, 0, 67, 100
1, 19244, Note_off_c, 0, 67, 100
1, 19244, Note_on_c, 0, 63, 100
1, 19292, Note_off_c, 0, 63, 100
1, 19292, Note_on_c, 0, 60, 100
1, 19340, Note_off_c, 0, 60, 100
1, 19340, Note_on_c, 0, 56, 100
1, 19388, Note_off_c, 0, 56, 100
1, 19388, Note_on_c, 0, 55, 100
1, 19452, Note_off_c, 0, 55, 100
1, 19452, Note_on_c, 0, 53, 100
1, 19516, Note_off_c, 0, 53, 100
1, 19516, Note_on_c, 0, 51, 100
1, 19580, Note_off_c, 0, 51, 100
1, 19580, Note_on_c, 0, 50, 100
1, 19772, Note_off_c, 0, 50, 100
1, 19772, Note_on_c, 0, 58, 100
1, 19868, Note_off_c, 0, 58, 100
1, 20396, Note_on_c, 0, 63, 100
1, 20492, Note_off_c, 0, 63, 100
1, 20492, Note_on_c, 0, 58, 100
1, 20796, Note_off_c, 0, 58, 100
1, 20796, Note_on_c, 0, 65, 100
1, 20924, Note_off_c, 0, 65, 100
1, 20924, Note_on_c, 0, 58, 100
1, 20988, Note_off_c, 0, 58, 100
1, 20988, Note_on_c, 0, 66, 100
1, 21116, Note_off_c, 0, 66, 100
1, 21116, Note_on_c, 0, 58, 100
1, 21164, Note_off_c, 0, 58, 100
1, 21164, Note_on_c, 0, 67, 100
1, 21260, Note_off_c, 0, 67, 100
1, 21260, Note_on_c, 0, 58, 100
1, 21356, Note_off_c, 0, 58, 100
1, 21980, Note_on_c, 0, 68, 100
1, 22028, Note_off_c, 0, 68, 100
1, 22028, Note_on_c, 0, 67, 100
1, 22076, Note_off_c, 0, 67, 100
1, 22076, Note_on_c, 0, 68, 100
1, 22172, Note_off_c, 0, 68, 100
1, 22172, Note_on_c, 0, 67, 100
1, 22268, Note_off_c, 0, 67, 100
1, 22268, Note_on_c, 0, 63, 100
1, 22604, Note_off_c, 0, 63, 100
1, 22604, Note_on_c, 0, 58, 100
1, 22700, Note_off_c, 0, 58, 100
1, 22700, Note_on_c, 0, 64, 100
1, 22796, Note_off_c, 0, 64, 100
1, 22796, Note_on_c, 0, 61, 100
1, 22892, Note_off_c, 0, 61, 100
1, 22892, Note_on_c, 0, 57, 100
1, 22988, Note_off_c, 0, 57, 100
1, 22988, Note_on_c, 0, 54, 100
1, 23036, Note_off_c, 0, 54, 100
1, 23036, Note_on_c, 0, 63, 100
1, 23228, Note_off_c, 0, 63, 100
1, 23228, Note_on_c, 0, 63, 100
1, 23420, Note_off_c, 0, 63, 100
1, 23420, Note_on_c, 0, 60, 100
1, 23612, Note_off_c, 0, 60, 100
1, 23612, Note_on_c, 0, 63, 100
1, 23740, Note_off_c, 0, 63, 100
1, 23740, Note_on_c, 0, 63, 100
1, 23804, Note_off_c, 0, 63, 100
1, 23804, Note_on_c, 0, 67, 100
1, 23996, Note_off_c, 0, 67, 100
1, 23996, Note_on_c, 0, 67, 100
1, 24188, Note_off_c, 0, 67, 100
1, 24188, Note_on_c, 0, 63, 100
1, 24284, Note_off_c, 0, 63, 100
1, 24284, Note_on_c, 0, 58, 100
1, 24428, Note_off_c, 0, 58, 100
1, 24428, Note_on_c, 0, 62, 100
1, 24524, Note_off_c, 0, 62, 100
1, 24524, Note_on_c, 0, 65, 100
1, 24620, Note_off_c, 0, 65, 100
1, 24620, Note_on_c, 0, 63, 100
1, 24716, Note_off_c, 0, 63, 100
1, 24716, Note_on_c, 0, 58, 100
1, 24812, Note_off_c, 0, 58, 100
1, 25148, Note_on_c, 0, 61, 100
1, 25211, Note_off_c, 0, 61, 100
1, 25211, Note_on_c, 0, 64, 100
1, 25275, Note_off_c, 0, 64, 100
1, 25275, Note_on_c, 0, 67, 100
1, 25338, Note_off_c, 0, 67, 100
1, 25338, Note_on_c, 0, 65, 100
1, 25402, Note_off_c, 0, 65, 100
1, 25402, Note_on_c, 0, 68, 100
1, 25466, Note_off_c, 0, 68, 100
1, 25466, Note_on_c, 0, 72, 100
1, 25530, Note_off_c, 0, 72, 100
1, 25530, Note_on_c, 0, 71, 100
1, 25594, Note_off_c, 0, 71, 100
1, 25594, Note_on_c, 0, 68, 100
1, 25658, Note_off_c, 0, 68, 100
1, 25658, Note_on_c, 0, 65, 100
1, 25722, Note_off_c, 0, 65, 100
1, 25722, Note_on_c, 0, 62, 100
1, 25914, Note_off_c, 0, 62, 100
1, 25914, Note_on_c, 0, 70, 100
1, 26010, Note_off_c, 0, 70, 100
1, 26010, Note_on_c, 0, 67, 100
1, 26106, Note_off_c, 0, 67, 100
1, 26106, Note_on_c, 0, 62, 100
1, 26394, Note_off_c, 0, 62, 100
1, 26394, Note_on_c, 0, 65, 100
1, 26442, Note_off_c, 0, 65, 100
1, 26442, Note_on_c, 0, 62, 100
1, 26490, Note_off_c, 0, 62, 100
1, 26490, Note_on_c, 0, 63, 100
1, 26586, Note_off_c, 0, 63, 100
1, 26586, Note_on_c, 0, 58, 100
1, 26778, Note_off_c, 0, 58, 100
1, 27066, Note_on_c, 0, 56, 100
1, 27114, Note_off_c, 0, 56, 100
1, 27114, Note_on_c, 0, 58, 100
1, 27162, Note_off_c, 0, 58, 100
1, 27162, Note_on_c, 0, 60, 100
1, 27210, Note_off_c, 0, 60, 100
1, 27210, Note_on_c, 0, 63, 100
1, 27258, Note_off_c, 0, 63, 100
1, 27258, Note_on_c, 0, 66, 100
1, 27322, Note_off_c, 0, 66, 100
1, 27322, Note_on_c, 0, 67, 100
1, 27386, Note_off_c, 0, 67, 100
1, 27386, Note_on_c, 0, 66, 100
1, 27450, Note_off_c, 0, 66, 100
1, 27450, Note_on_c, 0, 67, 100
1, 27482, Note_off_c, 0, 67, 100
1, 27482, Note_on_c, 0, 63, 100
1, 27546, Note_off_c, 0, 63, 100
1, 27546, Note_on_c, 0, 58, 100
1, 27610, Note_off_c, 0, 58, 100
1, 27610, Note_on_c, 0, 54, 100
1, 27642, Note_off_c, 0, 54, 100
1, 27642, Note_on_c, 0, 55, 100
1, 27690, Note_off_c, 0, 55, 100
1, 27690, Note_on_c, 0, 58, 100
1, 27738, Note_off_c, 0, 58, 100
1, 27738, Note_on_c, 0, 63, 100
1, 27786, Note_off_c, 0, 63, 100
1, 27786, Note_on_c, 0, 62, 100
1, 27834, Note_off_c, 0, 62, 100
1, 27834, Note_on_c, 0, 60, 100
1, 27882, Note_off_c, 0, 60, 100
1, 27882, Note_on_c, 0, 65, 100
1, 27978, Note_off_c, 0, 65, 100
1, 27978, Note_on_c, 0, 62, 100
1, 28026, Note_off_c, 0, 62, 100
1, 28026, Note_on_c, 0, 63, 100
1, 28090, Note_off_c, 0, 63, 100
1, 28090, Note_on_c, 0, 60, 100
1, 28154, Note_off_c, 0, 60, 100
1, 28154, Note_on_c, 0, 56, 100
1, 28218, Note_off_c, 0, 56, 100
1, 28218, Note_on_c, 0, 53, 100
1, 28266, Note_off_c, 0, 53, 100
1, 28266, Note_on_c, 0, 55, 100
1, 28314, Note_off_c, 0, 55, 100
1, 28314, Note_on_c, 0, 53, 100
1, 28362, Note_off_c, 0, 53, 100
1, 28362, Note_on_c, 0, 52, 100
1, 28410, Note_off_c, 0, 52, 100
1, 28410, Note_on_c, 0, 53, 100
1, 28458, Note_off_c, 0, 53, 100
1, 28458, Note_on_c, 0, 57, 100
1, 28698, Note_off_c, 0, 57, 100
1, 28698, Note_on_c, 0, 60, 100
1, 28746, Note_off_c, 0, 60, 100
1, 28746, Note_on_c, 0, 61, 100
1, 28832, Note_off_c, 0, 61, 100
1, 28832, Note_on_c, 0, 57, 100
1, 28870, Note_off_c, 0, 57, 100
1, 28870, Note_on_c, 0, 52, 100
1, 28946, Note_off_c, 0, 52, 100
1, 28946, Note_on_c, 0, 51, 100
1, 28984, Note_off_c, 0, 51, 100
1, 28984, Note_on_c, 0, 56, 100
1, 29080, Note_off_c, 0, 56, 100
1, 29080, Note_on_c, 0, 54, 100
1, 29176, Note_off_c, 0, 54, 100
1, 29560, Note_on_c, 0, 53, 100
1, 29608, Note_off_c, 0, 53, 100
1, 29608, Note_on_c, 0, 52, 100
1, 29656, Note_off_c, 0, 52, 100
1, 29656, Note_on_c, 0, 53, 100
1, 29704, Note_off_c, 0, 53, 100
1, 29704, Note_on_c, 0, 55, 100
1, 29752, Note_off_c, 0, 55, 100
1, 29752, Note_on_c, 0, 56, 100
1, 29828, Note_off_c, 0, 56, 100
1, 29828, Note_on_c, 0, 55, 100
1, 29866, Note_off_c, 0, 55, 100
1, 29866, Note_on_c, 0, 56, 100
1, 29904, Note_off_c, 0, 56, 100
1, 29904, Note_on_c, 0, 58, 100
1, 29942, Note_off_c, 0, 58, 100
1, 29942, Note_on_c, 0, 60, 100
1, 29990, Note_off_c, 0, 60, 100
1, 29990, Note_on_c, 0, 59, 100
1, 30038, Note_off_c, 0, 59, 100
1, 30038, Note_on_c, 0, 60, 100
1, 30086, Note_off_c, 0, 60, 100
1, 30086, Note_on_c, 0, 62, 100
1, 30134, Note_off_c, 0, 62, 100
1, 30134, Note_on_c, 0, 63, 100
1, 30182, Note_off_c, 0, 63, 100
1, 30182, Note_on_c, 0, 62, 100
1, 30230, Note_off_c, 0, 62, 100
1, 30230, Note_on_c, 0, 63, 100
1, 30278, Note_off_c, 0, 63, 100
1, 30278, Note_on_c, 0, 65, 100
1, 30326, Note_off_c, 0, 65, 100
1, 30326, Note_on_c, 0, 67, 100
1, 30374, Note_off_c, 0, 67, 100
1, 30374, Note_on_c, 0, 66, 100
1, 30422, Note_off_c, 0, 66, 100
1, 30422, Note_on_c, 0, 67, 100
1, 30470, Note_off_c, 0, 67, 100
1, 30470, Note_on_c, 0, 68, 100
1, 30518, Note_off_c, 0, 68, 100
1, 30518, Note_on_c, 0, 70, 100
1, 30582, Note_off_c, 0, 70, 100
1, 30582, Note_on_c, 0, 67, 100
1, 30646, Note_off_c, 0, 67, 100
1, 30646, Note_on_c, 0, 68, 100
1, 30710, Note_off_c, 0, 68, 100
1, 30710, Note_on_c, 0, 65, 100
1, 30758, Note_off_c, 0, 65, 100
1, 30758, Note_on_c, 0, 67, 100
1, 30902, Note_off_c, 0, 67, 100
1, 30902, Note_on_c, 0, 70, 100
1, 31094, Note_off_c, 0, 70, 100
1, 31094, Note_on_c, 0, 67, 100
1, 31142, Note_off_c, 0, 67, 100
1, 31142, Note_on_c, 0, 68, 100
1, 31190, Note_off_c, 0, 68, 100
1, 31190, Note_on_c, 0, 67, 100
1, 31238, Note_off_c, 0, 67, 100
1, 31238, Note_on_c, 0, 65, 100
1, 31286, Note_off_c, 0, 65, 100
1, 31286, Note_on_c, 0, 64, 100
1, 31382, Note_off_c, 0, 64, 100
1, 31382, Note_on_c, 0, 72, 100
1, 31478, Note_off_c, 0, 72, 100
1, 31670, Note_on_c, 0, 75, 100
1, 31718, Note_off_c, 0, 75, 100
1, 31718, Note_on_c, 0, 72, 100
1, 31766, Note_off_c, 0, 72, 100
1, 31766, Note_on_c, 0, 68, 100
1, 31814, Note_off_c, 0, 68, 100
1, 31814, Note_on_c, 0, 65, 100
1, 31862, Note_off_c, 0, 65, 100
1, 31862, Note_on_c, 0, 63, 100
1, 31910, Note_off_c, 0, 63, 100
1, 31910, Note_on_c, 0, 62, 100
1, 31958, Note_off_c, 0, 62, 100
1, 31958, Note_on_c, 0, 60, 100
1, 32006, Note_off_c, 0, 60, 100
1, 32006, Note_on_c, 0, 59, 100
1, 32054, Note_off_c, 0, 59, 100
1, 32054, Note_on_c, 0, 60, 100
1, 32102, Note_off_c, 0, 60, 100
1, 32102, Note_on_c, 0, 62, 100
1, 32150, Note_off_c, 0, 62, 100
1, 32150, Note_on_c, 0, 67, 100
1, 32246, Note_off_c, 0, 67, 100
1, 32246, Note_on_c, 0, 62, 100
1, 32294, Note_off_c, 0, 62, 100
1, 32294, Note_on_c, 0, 65, 100
1, 32390, Note_off_c, 0, 65, 100
1, 32390, Note_on_c, 0, 63, 100
1, 32630, Note_off_c, 0, 63, 100
1, 32630, Note_on_c, 0, 62, 100
1, 32726, Note_off_c, 0, 62, 100
1, 32726, Note_on_c, 0, 60, 100
1, 32822, Note_off_c, 0, 60, 100
1, 33206, Note_on_c, 0, 67, 100
1, 33282, Note_off_c, 0, 67, 100
1, 33282, Note_on_c, 0, 63, 100
1, 33320, Note_off_c, 0, 63, 100
1, 33320, Note_on_c, 0, 60, 100
1, 33358, Note_off_c, 0, 60, 100
1, 33358, Note_on_c, 0, 56, 100
1, 33492, Note_off_c, 0, 56, 100
1, 33492, Note_on_c, 0, 65, 100
1, 33540, Note_off_c, 0, 65, 100
1, 33540, Note_on_c, 0, 62, 100
1, 33588, Note_off_c, 0, 62, 100
1, 33588, Note_on_c, 0, 58, 100
1, 33636, Note_off_c, 0, 58, 100
1, 33636, Note_on_c, 0, 55, 100
1, 33732, Note_off_c, 0, 55, 100
1, 33972, Note_on_c, 0, 63, 100
1, 34068, Note_off_c, 0, 63, 100
1, 34068, Note_on_c, 0, 60, 100
1, 34116, Note_off_c, 0, 60, 100
1, 34116, Note_on_c, 0, 56, 100
1, 34164, Note_off_c, 0, 56, 100
1, 34164, Note_on_c, 0, 53, 100
1, 34212, Note_off_c, 0, 53, 100
1, 34212, Note_on_c, 0, 62, 100
1, 34308, Note_off_c, 0, 62, 100
1, 34308, Note_on_c, 0, 61, 100
1, 34404, Note_off_c, 0, 61, 100
1, 34404, Note_on_c, 0, 60, 100
1, 34500, Note_off_c, 0, 60, 100
1, 34500, Note_on_c, 0, 59, 100
1, 34612, Note_off_c, 0, 59, 100
1, 34612, Note_on_c, 0, 57, 100
1, 34884, Note_off_c, 0, 57, 100
1, 34884, Note_on_c, 0, 52, 100
1, 34932, Note_off_c, 0, 52, 100
1, 34932, Note_on_c, 0, 56, 100
1, 35028, Note_off_c, 0, 56, 100
1, 35028, Note_on_c, 0, 54, 100
1, 35124, Note_off_c, 0, 54, 100
1, 35124, Note_on_c, 0, 61, 100
1, 35316, Note_off_c, 0, 61, 100
1, 35316, Note_on_c, 0, 58, 100
1, 35412, Note_off_c, 0, 58, 100
1, 35412, Note_on_c, 0, 58, 100
1, 35508, Note_off_c, 0, 58, 100
1, 36036, Note_on_c, 0, 58, 100
1, 36148, Note_off_c, 0, 58, 100
1, 36148, Note_on_c, 0, 67, 100
1, 36276, Note_off_c, 0, 67, 100
1, 36276, Note_on_c, 0, 67, 100
1, 36324, Note_off_c, 0, 67, 100
1, 36324, Note_on_c, 0, 68, 100
1, 36420, Note_off_c, 0, 68, 100
1, 36420, Note_on_c, 0, 68, 100
1, 36516, Note_off_c, 0, 68, 100
1, 36516, Note_on_c, 0, 70, 100
1, 36612, Note_off_c, 0, 70, 100
1, 36612, Note_on_c, 0, 58, 100
1, 36804, Note_off_c, 0, 58, 100
1, 36804, Note_on_c, 0, 67, 100
1, 36900, Note_off_c, 0, 67, 100
1, 36900, Note_on_c, 0, 63, 100
1, 36996, Note_off_c, 0, 63, 100
1, 36996, Note_on_c, 0, 63, 100
1, 37236, Note_off_c, 0, 63, 100
1, 37236, Note_on_c, 0, 58, 100
1, 37284, Note_off_c, 0, 58, 100
1, 37284, Note_on_c, 0, 61, 100
1, 37380, Note_off_c, 0, 61, 100
1, 37380, Note_on_c, 0, 68, 100
1, 37572, Note_off_c, 0, 68, 100
1, 37572, Note_on_c, 0, 68, 100
1, 37668, Note_off_c, 0, 68, 100
1, 37668, Note_on_c, 0, 66, 100
1, 37764, Note_off_c, 0, 66, 100
1, 37764, Note_on_c, 0, 73, 100
1, 37812, Note_off_c, 0, 73, 100
1, 37812, Note_on_c, 0, 71, 100
1, 37908, Note_off_c, 0, 71, 100
1, 37908, Note_on_c, 0, 66, 100
1, 38196, Note_off_c, 0, 66, 100
1, 38580, Note_on_c, 0, 65, 100
1, 38628, Note_off_c, 0, 65, 100
1, 38628, Note_on_c, 0, 72, 100
1, 38676, Note_off_c, 0, 72, 100
1, 38676, Note_on_c, 0, 68, 100
1, 38724, Note_off_c, 0, 68, 100
1, 38724, Note_on_c, 0, 65, 100
1, 38772, Note_off_c, 0, 65, 100
1, 38772, Note_on_c, 0, 61, 100
1, 38868, Note_off_c, 0, 61, 100
1, 39156, Note_on_c, 0, 71, 100
1, 39204, Note_off_c, 0, 71, 100
1, 39204, Note_on_c, 0, 67, 100
1, 39252, Note_off_c, 0, 67, 100
1, 39252, Note_on_c, 0, 64, 100
1, 39300, Note_off_c, 0, 64, 100
1, 39300, Note_on_c, 0, 61, 100
1, 39386, Note_off_c, 0, 61, 100
1, 39386, Note_on_c, 0, 67, 100
1, 39424, Note_off_c, 0, 67, 100
1, 39424, Note_on_c, 0, 68, 100
1, 39462, Note_off_c, 0, 68, 100
1, 39462, Note_on_c, 0, 65, 100
1, 39500, Note_off_c, 0, 65, 100
1, 39500, Note_on_c, 0, 61, 100
1, 39538, Note_off_c, 0, 61, 100
1, 39538, Note_on_c, 0, 58, 100
1, 39634, Note_off_c, 0, 58, 100
1, 39634, Note_on_c, 0, 63, 100
1, 39682, Note_off_c, 0, 63, 100
1, 39682, Note_on_c, 0, 62, 100
1, 39730, Note_off_c, 0, 62, 100
1, 39730, Note_on_c, 0, 61, 100
1, 39778, Note_off_c, 0, 61, 100
1, 39778, Note_on_c, 0, 65, 100
1, 39826, Note_off_c, 0, 65, 100
1, 39826, Note_on_c, 0, 60, 100
1, 39874, Note_off_c, 0, 60, 100
1, 39874, Note_on_c, 0, 59, 100
1, 39922, Note_off_c, 0, 59, 100
1, 39922, Note_on_c, 0, 58, 100
1, 40018, Note_off_c, 0, 58, 100
1, 40258, Note_on_c, 0, 67, 100
1, 40306, Note_off_c, 0, 67, 100
1, 40306, Note_on_c, 0, 66, 100
1, 40354, Note_off_c, 0, 66, 100
1, 40354, Note_on_c, 0, 65, 100
1, 40402, Note_off_c, 0, 65, 100
1, 40402, Note_on_c, 0, 63, 100
1, 40450, Note_off_c, 0, 63, 100
1, 40450, Note_on_c, 0, 62, 100
1, 40498, Note_off_c, 0, 62, 100
1, 40498, Note_on_c, 0, 60, 100
1, 40546, Note_off_c, 0, 60, 100
1, 40546, Note_on_c, 0, 58, 100
1, 40594, Note_off_c, 0, 58, 100
1, 40594, Note_on_c, 0, 57, 100
1, 40690, Note_off_c, 0, 57, 100
1, 40978, Note_on_c, 0, 68, 100
1, 41026, Note_off_c, 0, 68, 100
1, 41026, Note_on_c, 0, 67, 100
1, 41074, Note_off_c, 0, 67, 100
1, 41074, Note_on_c, 0, 66, 100
1, 41170, Note_off_c, 0, 66, 100
1, 41170, Note_on_c, 0, 58, 100
1, 41218, Note_off_c, 0, 58, 100
1, 41218, Note_on_c, 0, 62, 100
1, 41266, Note_off_c, 0, 62, 100
1, 41266, Note_on_c, 0, 66, 100
1, 41314, Note_off_c, 0, 66, 100
1, 41314, Note_on_c, 0, 62, 100
1, 41362, Note_off_c, 0, 62, 100
1, 41362, Note_on_c, 0, 60, 100
1, 41410, Note_off_c, 0, 60, 100
1, 41410, Note_on_c, 0, 56, 100
1, 41458, Note_off_c, 0, 56, 100
1, 41458, Note_on_c, 0, 54, 100
1, 41554, Note_off_c, 0, 54, 100
1, 41554, Note_on_c, 0, 55, 100
1, 41842, Note_off_c, 0, 55, 100
1, 41842, Note_on_c, 0, 67, 100
1, 42130, Note_off_c, 0, 67, 100
1, 42130, Note_on_c, 0, 65, 100
1, 42226, Note_off_c, 0, 65, 100
1, 42226, Note_on_c, 0, 64, 100
1, 42322, Note_off_c, 0, 64, 100
1, 42322, Note_on_c, 0, 60, 100
1, 42418, Note_off_c, 0, 60, 100
1, 42418, Note_on_c, 0, 65, 100
1, 42514, Note_off_c, 0, 65, 100
1, 42514, Note_on_c, 0, 65, 100
1, 42610, Note_off_c, 0, 65, 100
1, 42610, Note_on_c, 0, 66, 100
1, 42706, Note_off_c, 0, 66, 100
1, 42706, Note_on_c, 0, 67, 100
1, 42994, Note_off_c, 0, 67, 100
1, 42994, Note_on_c, 0, 65, 100
1, 43282, Note_off_c, 0, 65, 100
1, 43282, Note_on_c, 0, 72, 100
1, 43714, Note_off_c, 0, 72, 100
1, 43714, Note_on_c, 0, 71, 100
1, 43858, Note_off_c, 0, 71, 100
1, 43858, Note_on_c, 0, 70, 100
1, 43954, Note_off_c, 0, 70, 100
1, 43954, Note_on_c, 0, 77, 100
1, 44242, Note_off_c, 0, 77, 100
1, 44674, Note_on_c, 0, 70, 100
1, 44722, Note_off_c, 0, 70, 100
1, 44722, Note_on_c, 0, 74, 100
1, 44818, Note_off_c, 0, 74, 100
1, 44818, Note_on_c, 0, 75, 100
1, 44914, Note_off_c, 0, 75, 100
1, 44914, Note_on_c, 0, 70, 100
1, 44962, Note_off_c, 0, 70, 100
1, 44962, Note_on_c, 0, 74, 100
1, 45058, Note_off_c, 0, 74, 100
1, 45058, Note_on_c, 0, 75, 100
1, 45250, Note_off_c, 0, 75, 100
1, 45490, Note_on_c, 0, 69, 100
1, 45554, Note_off_c, 0, 69, 100
1, 45554, Note_on_c, 0, 70, 100
1, 45618, Note_off_c, 0, 70, 100
1, 45618, Note_on_c, 0, 66, 100
1, 45682, Note_off_c, 0, 66, 100
1, 45682, Note_on_c, 0, 69, 100
1, 45810, Note_off_c, 0, 69, 100
1, 45810, Note_on_c, 0, 70, 100
1, 46210, Note_off_c, 0, 70, 100
1, 46210, Note_on_c, 0, 63, 100
1, 46258, Note_off_c, 0, 63, 100
1, 46258, Note_on_c, 0, 66, 100
1, 46354, Note_off_c, 0, 66, 100
1, 46354, Note_on_c, 0, 67, 100
1, 46402, Note_off_c, 0, 67, 100
1, 46402, Note_on_c, 0, 63, 100
1, 46498, Note_off_c, 0, 63, 100
1, 46498, Note_on_c, 0, 66, 100
1, 46594, Note_off_c, 0, 66, 100
1, 46594, Note_on_c, 0, 67, 100
1, 46738, Note_off_c, 0, 67, 100
1, 46738, Note_on_c, 0, 63, 100
1, 47026, Note_off_c, 0, 63, 100
1, 47026, Note_on_c, 0, 65, 100
1, 47122, Note_off_c, 0, 65, 100
1, 47122, Note_on_c, 0, 63, 100
1, 47218, Note_off_c, 0, 63, 100
1, 47218, Note_on_c, 0, 68, 100
1, 47314, Note_off_c, 0, 68, 100
1, 47314, Note_on_c, 0, 61, 100
1, 47410, Note_off_c, 0, 61, 100
1, 47794, Note_on_c, 0, 67, 100
1, 47842, Note_off_c, 0, 67, 100
1, 47842, Note_on_c, 0, 68, 100
1, 47890, Note_off_c, 0, 68, 100
1, 47890, Note_on_c, 0, 64, 100
1, 47938, Note_off_c, 0, 64, 100
1, 47938, Note_on_c, 0, 67, 100
1, 47986, Note_off_c, 0, 67, 100
1, 47986, Note_on_c, 0, 65, 100
1, 48130, Note_off_c, 0, 65, 100
1, 48130, Note_on_c, 0, 67, 100
1, 48226, Note_off_c, 0, 67, 100
1, 48226, Note_on_c, 0, 68, 100
1, 48274, Note_off_c, 0, 68, 100
1, 48274, Note_on_c, 0, 64, 100
1, 48322, Note_off_c, 0, 64, 100
1, 48322, Note_on_c, 0, 67, 100
1, 48370, Note_off_c, 0, 67, 100
1, 48370, Note_on_c, 0, 65, 100
1, 48418, Note_off_c, 0, 65, 100
1, 48418, Note_on_c, 0, 63, 100
1, 48466, Note_off_c, 0, 63, 100
1, 48466, Note_on_c, 0, 62, 100
1, 48514, Note_off_c, 0, 62, 100
1, 48514, Note_on_c, 0, 60, 100
1, 48562, Note_off_c, 0, 60, 100
1, 48562, Note_on_c, 0, 59, 100
1, 48610, Note_off_c, 0, 59, 100
1, 48610, Note_on_c, 0, 60, 100
1, 48658, Note_off_c, 0, 60, 100
1, 48658, Note_on_c, 0, 67, 100
1, 48706, Note_off_c, 0, 67, 100
1, 48706, Note_on_c, 0, 65, 100
1, 48754, Note_off_c, 0, 65, 100
1, 48754, Note_on_c, 0, 63, 100
1, 48802, Note_off_c, 0, 63, 100
1, 48802, Note_on_c, 0, 60, 100
1, 48850, Note_off_c, 0, 60, 100
1, 48850, Note_on_c, 0, 56, 100
1, 48898, Note_off_c, 0, 56, 100
1, 48898, Note_on_c, 0, 53, 100
1, 48946, Note_off_c, 0, 53, 100
1, 48946, Note_on_c, 0, 55, 100
1, 49022, Note_off_c, 0, 55, 100
1, 49022, Note_on_c, 0, 53, 100
1, 49060, Note_off_c, 0, 53, 100
1, 49060, Note_on_c, 0, 52, 100
1, 49098, Note_off_c, 0, 52, 100
1, 49098, Note_on_c, 0, 53, 100
1, 49136, Note_off_c, 0, 53, 100
1, 49136, Note_on_c, 0, 58, 100
1, 49232, Note_off_c, 0, 58, 100
1, 49232, Note_on_c, 0, 63, 100
1, 49328, Note_off_c, 0, 63, 100
1, 49904, Note_on_c, 0, 61, 100
1, 49968, Note_off_c, 0, 61, 100
1, 49968, Note_on_c, 0, 64, 100
1, 50032, Note_off_c, 0, 64, 100
1, 50032, Note_on_c, 0, 67, 100
1, 50096, Note_off_c, 0, 67, 100
1, 50096, Note_on_c, 0, 64, 100
1, 50134, Note_off_c, 0, 64, 100
1, 50134, Note_on_c, 0, 65, 100
1, 50172, Note_off_c, 0, 65, 100
1, 50172, Note_on_c, 0, 67, 100
1, 50210, Note_off_c, 0, 67, 100
1, 50210, Note_on_c, 0, 68, 100
1, 50248, Note_off_c, 0, 68, 100
1, 50248, Note_on_c, 0, 70, 100
1, 50286, Note_off_c, 0, 70, 100
1, 50286, Note_on_c, 0, 71, 100
1, 50334, Note_off_c, 0, 71, 100
1, 50334, Note_on_c, 0, 73, 100
1, 50382, Note_off_c, 0, 73, 100
1, 50382, Note_on_c, 0, 70, 100
1, 50478, Note_off_c, 0, 70, 100
1, 50478, Note_on_c, 0, 68, 100
1, 50526, Note_off_c, 0, 68, 100
1, 50526, Note_on_c, 0, 67, 100
1, 50574, Note_off_c, 0, 67, 100
1, 50574, Note_on_c, 0, 65, 100
1, 50622, Note_off_c, 0, 65, 100
1, 50622, Note_on_c, 0, 63, 100
1, 50670, Note_off_c, 0, 63, 100
1, 50670, Note_on_c, 0, 62, 100
1, 50718, Note_off_c, 0, 62, 100
1, 50718, Note_on_c, 0, 65, 100
1, 50766, Note_off_c, 0, 65, 100
1, 50766, Note_on_c, 0, 62, 100
1, 50814, Note_off_c, 0, 62, 100
1, 50814, Note_on_c, 0, 63, 100
1, 50862, Note_off_c, 0, 63, 100
1, 50862, Note_on_c, 0, 65, 100
1, 50910, Note_off_c, 0, 65, 100
1, 50910, Note_on_c, 0, 62, 100
1, 51054, Note_off_c, 0, 62, 100
1, 51054, Note_on_c, 0, 62, 100
1, 51150, Note_off_c, 0, 62, 100
1, 51150, Note_on_c, 0, 58, 100
1, 51198, Note_off_c, 0, 58, 100
1, 51198, Note_on_c, 0, 60, 100
1, 51246, Note_off_c, 0, 60, 100
1, 51246, Note_on_c, 0, 62, 100
1, 51284, Note_off_c, 0, 62, 100
1, 51284, Note_on_c, 0, 58, 100
1, 51322, Note_off_c, 0, 58, 100
1, 51322, Note_on_c, 0, 55, 100
1, 51360, Note_off_c, 0, 55, 100
1, 51360, Note_on_c, 0, 56, 100
1, 51436, Note_off_c, 0, 56, 100
1, 51436, Note_on_c, 0, 58, 100
1, 51484, Note_off_c, 0, 58, 100
1, 51484, Note_on_c, 0, 55, 100
1, 51532, Note_off_c, 0, 55, 100
1, 51532, Note_on_c, 0, 51, 100
1, 51580, Note_off_c, 0, 51, 100
1, 51580, Note_on_c, 0, 53, 100
1, 51628, Note_off_c, 0, 53, 100
1, 51628, Note_on_c, 0, 50, 100
1, 51724, Note_off_c, 0, 50, 100
1, 51724, Note_on_c, 0, 46, 100
1, 51820, Note_off_c, 0, 46, 100
1, 52396, Note_on_c, 0, 51, 100
1, 52444, Note_off_c, 0, 51, 100
1, 52444, Note_on_c, 0, 48, 100
1, 52492, Note_off_c, 0, 48, 100
1, 52492, Note_on_c, 0, 51, 100
1, 52540, Note_off_c, 0, 51, 100
1, 52540, Note_on_c, 0, 55, 100
1, 52588, Note_off_c, 0, 55, 100
1, 52588, Note_on_c, 0, 60, 100
1, 52684, Note_off_c, 0, 60, 100
1, 52684, Note_on_c, 0, 58, 100
1, 52972, Note_off_c, 0, 58, 100
1, 52972, Note_on_c, 0, 54, 100
1, 53164, Note_off_c, 0, 54, 100
1, 53164, Note_on_c, 0, 49, 100
1, 53212, Note_off_c, 0, 49, 100
1, 53212, Note_on_c, 0, 54, 100
1, 53308, Note_off_c, 0, 54, 100
1, 53308, Note_on_c, 0, 57, 100
1, 53420, Note_off_c, 0, 57, 100
1, 53420, Note_on_c, 0, 64, 100
1, 53484, Note_off_c, 0, 64, 100
1, 53484, Note_on_c, 0, 66, 100
1, 53548, Note_off_c, 0, 66, 100
1, 53548, Note_on_c, 0, 63, 100
1, 53932, Note_off_c, 0, 63, 100
1, 53932, Note_on_c, 0, 60, 100
1, 53980, Note_off_c, 0, 60, 100
1, 53980, Note_on_c, 0, 62, 100
1, 54028, Note_off_c, 0, 62, 100
1, 54028, Note_on_c, 0, 63, 100
1, 54076, Note_off_c, 0, 63, 100
1, 54076, Note_on_c, 0, 65, 100
1, 54124, Note_off_c, 0, 65, 100
1, 54124, Note_on_c, 0, 67, 100
1, 54172, Note_off_c, 0, 67, 100
1, 54172, Note_on_c, 0, 68, 100
1, 54220, Note_off_c, 0, 68, 100
1, 54220, Note_on_c, 0, 64, 100
1, 54268, Note_off_c, 0, 64, 100
1, 54268, Note_on_c, 0, 67, 100
1, 54316, Note_off_c, 0, 67, 100
1, 54316, Note_on_c, 0, 65, 100
1, 54364, Note_off_c, 0, 65, 100
1, 54364, Note_on_c, 0, 63, 100
1, 54412, Note_off_c, 0, 63, 100
1, 54412, Note_on_c, 0, 62, 100
1, 54460, Note_off_c, 0, 62, 100
1, 54460, Note_on_c, 0, 60, 100
1, 54508, Note_off_c, 0, 60, 100
1, 54508, Note_on_c, 0, 59, 100
1, 54556, Note_off_c, 0, 59, 100
1, 54556, Note_on_c, 0, 60, 100
1, 54604, Note_off_c, 0, 60, 100
1, 54604, Note_on_c, 0, 67, 100
1, 54652, Note_off_c, 0, 67, 100
1, 54652, Note_on_c, 0, 65, 100
1, 54700, Note_off_c, 0, 65, 100
1, 54700, Note_on_c, 0, 63, 100
1, 54764, Note_off_c, 0, 63, 100
1, 54764, Note_on_c, 0, 60, 100
1, 54828, Note_off_c, 0, 60, 100
1, 54828, Note_on_c, 0, 56, 100
1, 54892, Note_off_c, 0, 56, 100
1, 54892, Note_on_c, 0, 53, 100
1, 54930, Note_off_c, 0, 53, 100
1, 54930, Note_on_c, 0, 55, 100
1, 54968, Note_off_c, 0, 55, 100
1, 54968, Note_on_c, 0, 53, 100
1, 55044, Note_off_c, 0, 53, 100
1, 55044, Note_on_c, 0, 52, 100
1, 55082, Note_off_c, 0, 52, 100
1, 55082, Note_on_c, 0, 53, 100
1, 55130, Note_off_c, 0, 53, 100
1, 55130, Note_on_c, 0, 58, 100
1, 55226, Note_off_c, 0, 58, 100
1, 55466, Note_on_c, 0, 63, 100
1, 55562, Note_off_c, 0, 63, 100
1, 55562, Note_on_c, 0, 63, 100
1, 55658, Note_off_c, 0, 63, 100
1, 55658, Note_on_c, 0, 67, 100
1, 55706, Note_off_c, 0, 67, 100
1, 55706, Note_on_c, 0, 64, 100
1, 55754, Note_off_c, 0, 64, 100
1, 55754, Note_on_c, 0, 65, 100
1, 55802, Note_off_c, 0, 65, 100
1, 55802, Note_on_c, 0, 67, 100
1, 55850, Note_off_c, 0, 67, 100
1, 55850, Note_on_c, 0, 68, 100
1, 55898, Note_off_c, 0, 68, 100
1, 55898, Note_on_c, 0, 64, 100
1, 55946, Note_off_c, 0, 64, 100
1, 55946, Note_on_c, 0, 60, 100
1, 55994, Note_off_c, 0, 60, 100
1, 55994, Note_on_c, 0, 56, 100
1, 56042, Note_off_c, 0, 56, 100
1, 56042, Note_on_c, 0, 52, 100
1, 56080, Note_off_c, 0, 52, 100
1, 56080, Note_on_c, 0, 55, 100
1, 56118, Note_off_c, 0, 55, 100
1, 56118, Note_on_c, 0, 53, 100
1, 56156, Note_off_c, 0, 53, 100
1, 56156, Note_on_c, 0, 52, 100
1, 56194, Note_off_c, 0, 52, 100
1, 56194, Note_on_c, 0, 53, 100
1, 56232, Note_off_c, 0, 53, 100
1, 56232, Note_on_c, 0, 56, 100
1, 56328, Note_off_c, 0, 56, 100
1, 56328, Note_on_c, 0, 60, 100
1, 56424, Note_off_c, 0, 60, 100
1, 56424, Note_on_c, 0, 59, 100
1, 56472, Note_off_c, 0, 59, 100
1, 56472, Note_on_c, 0, 61, 100
1, 56520, Note_off_c, 0, 61, 100
1, 56520, Note_on_c, 0, 62, 100
1, 56568, Note_off_c, 0, 62, 100
1, 56568, Note_on_c, 0, 64, 100
1, 56616, Note_off_c, 0, 64, 100
1, 56616, Note_on_c, 0, 66, 100
1, 56664, Note_off_c, 0, 66, 100
1, 56664, Note_on_c, 0, 62, 100
1, 56712, Note_off_c, 0, 62, 100
1, 56712, Note_on_c, 0, 59, 100
1, 56760, Note_off_c, 0, 59, 100
1, 56760, Note_on_c, 0, 55, 100
1, 56808, Note_off_c, 0, 55, 100
1, 56808, Note_on_c, 0, 58, 100
1, 57192, Note_off_c, 0, 58, 100
1, 57192, Note_on_c, 0, 67, 100
1, 57256, Note_off_c, 0, 67, 100
1, 57256, Note_on_c, 0, 68, 100
1, 57320, Note_off_c, 0, 68, 100
1, 57320, Note_on_c, 0, 63, 100
1, 57384, Note_off_c, 0, 63, 100
1, 57384, Note_on_c, 0, 65, 100
1, 57480, Note_off_c, 0, 65, 100
1, 57480, Note_on_c, 0, 62, 100
1, 57576, Note_off_c, 0, 62, 100
1, 57576, Note_on_c, 0, 63, 100
1, 57768, Note_off_c, 0, 63, 100
1, 57768, Note_on_c, 0, 60, 100
1, 57816, Note_off_c, 0, 60, 100
1, 57816, Note_on_c, 0, 62, 100
1, 57864, Note_off_c, 0, 62, 100
1, 57864, Note_on_c, 0, 58, 100
1, 58152, Note_off_c, 0, 58, 100
1, 58152, Note_on_c, 0, 60, 100
1, 58216, Note_off_c, 0, 60, 100
1, 58216, Note_on_c, 0, 63, 100
1, 58280, Note_off_c, 0, 63, 100
1, 58280, Note_on_c, 0, 67, 100
1, 58344, Note_off_c, 0, 67, 100
1, 58344, Note_on_c, 0, 70, 100
1, 58382, Note_off_c, 0, 70, 100
1, 58382, Note_on_c, 0, 74, 100
1, 58420, Note_off_c, 0, 74, 100
1, 58420, Note_on_c, 0, 75, 100
1, 58496, Note_off_c, 0, 75, 100
1, 58496, Note_on_c, 0, 75, 100
1, 58534, Note_off_c, 0, 75, 100
1, 58534, Note_on_c, 0, 75, 100
1, 58630, Note_off_c, 0, 75, 100
1, 58630, Note_on_c, 0, 75, 100
1, 58726, Note_off_c, 0, 75, 100
1, 59110, Note_on_c, 0, 72, 100
1, 59206, Note_off_c, 0, 72, 100
1, 59206, Note_on_c, 0, 73, 100
1, 59302, Note_off_c, 0, 73, 100
1, 59302, Note_on_c, 0, 73, 100
1, 59398, Note_off_c, 0, 73, 100
1, 59398, Note_on_c, 0, 73, 100
1, 59494, Note_off_c, 0, 73, 100
1, 59494, Note_on_c, 0, 73, 100
1, 59590, Note_off_c, 0, 73, 100
1, 60022, Note_on_c, 0, 75, 100
1, 60262, Note_off_c, 0, 75, 100
1, 60262, Note_on_c, 0, 72, 100
1, 60358, Note_off_c, 0, 72, 100
1, 60358, Note_on_c, 0, 68, 100
1, 60454, Note_off_c, 0, 68, 100
1, 60454, Note_on_c, 0, 65, 100
1, 60550, Note_off_c, 0, 65, 100
1, 60550, Note_on_c, 0, 60, 100
1, 60646, Note_off_c, 0, 60, 100
1, 60646, Note_on_c, 0, 63, 100
1, 60742, Note_off_c, 0, 63, 100
1, 60742, Note_on_c, 0, 60, 100
1, 60838, Note_off_c, 0, 60, 100
1, 60838, Note_on_c, 0, 63, 100
1, 60934, Note_off_c, 0, 63, 100
1, 60934, Note_on_c, 0, 60, 100
1, 61030, Note_off_c, 0, 60, 100
1, 61030, Note_on_c, 0, 62, 100
1, 61126, Note_off_c, 0, 62, 100
1, 61126, Note_on_c, 0, 67, 100
1, 61414, Note_off_c, 0, 67, 100
1, 61414, Note_on_c, 0, 63, 100
1, 61702, Note_off_c, 0, 63, 100
1, 61702, Note_on_c, 0, 68, 100
1, 61798, Note_off_c, 0, 68, 100
1, 61798, Note_on_c, 0, 65, 100
1, 61894, Note_off_c, 0, 65, 100
1, 61894, Note_on_c, 0, 61, 100
1, 62086, Note_off_c, 0, 61, 100
1, 62086, Note_on_c, 0, 66, 100
1, 62182, Note_off_c, 0, 66, 100
1, 62182, Note_on_c, 0, 63, 100
1, 62278, Note_off_c, 0, 63, 100
1, 62278, Note_on_c, 0, 59, 100
1, 62374, Note_off_c, 0, 59, 100
1, 62902, Note_on_c, 0, 72, 100
1, 63190, Note_off_c, 0, 72, 100
1, 63190, Note_on_c, 0, 70, 100
1, 63286, Note_off_c, 0, 70, 100
1, 63286, Note_on_c, 0, 68, 100
1, 63382, Note_off_c, 0, 68, 100
1, 63382, Note_on_c, 0, 67, 100
1, 63478, Note_off_c, 0, 67, 100
1, 63478, Note_on_c, 0, 65, 100
1, 63574, Note_off_c, 0, 65, 100
1, 63574, Note_on_c, 0, 63, 100
1, 63670, Note_off_c, 0, 63, 100
1, 63670, Note_on_c, 0, 62, 100
1, 63718, Note_off_c, 0, 62, 100
1, 63718, Note_on_c, 0, 61, 100
1, 63814, Note_off_c, 0, 61, 100
1, 63814, Note_on_c, 0, 63, 100
1, 63910, Note_off_c, 0, 63, 100
1, 63910, Note_on_c, 0, 65, 100
1, 64006, Note_off_c, 0, 65, 100
1, 64006, Note_on_c, 0, 67, 100
1, 64102, Note_off_c, 0, 67, 100
1, 64102, Note_on_c, 0, 72, 100
1, 64198, Note_off_c, 0, 72, 100
1, 64198, Note_on_c, 0, 70, 100
1, 64294, Note_off_c, 0, 70, 100
1, 64294, Note_on_c, 0, 69, 100
1, 64390, Note_off_c, 0, 69, 100
1, 64390, Note_on_c, 0, 70, 100
1, 64534, Note_off_c, 0, 70, 100
1, 64534, Note_on_c, 0, 75, 100
1, 64630, Note_off_c, 0, 75, 100
1, 64630, Note_on_c, 0, 72, 100
1, 64726, Note_off_c, 0, 72, 100
1, 65254, Note_on_c, 0, 74, 100
1, 65398, Note_off_c, 0, 74, 100
1, 65398, Note_on_c, 0, 68, 100
1, 65590, Note_off_c, 0, 68, 100
1, 66022, Note_on_c, 0, 74, 100
1, 66070, Note_off_c, 0, 74, 100
1, 66070, Note_on_c, 0, 73, 100
1, 66118, Note_off_c, 0, 73, 100
1, 66118, Note_on_c, 0, 72, 100
1, 66166, Note_off_c, 0, 72, 100
1, 66166, Note_on_c, 0, 70, 100
1, 66214, Note_off_c, 0, 70, 100
1, 66214, Note_on_c, 0, 71, 100
1, 66310, Note_off_c, 0, 71, 100
1, 66310, Note_on_c, 0, 62, 100
1, 66502, Note_off_c, 0, 62, 100
1, 66502, Note_on_c, 0, 69, 100
1, 66790, Note_off_c, 0, 69, 100
1, 66790, Note_on_c, 0, 67, 100
1, 66828, Note_off_c, 0, 67, 100
1, 66828, Note_on_c, 0, 69, 100
1, 66866, Note_off_c, 0, 69, 100
1, 66866, Note_on_c, 0, 67, 100
1, 66904, Note_off_c, 0, 67, 100
1, 66904, Note_on_c, 0, 65, 100
1, 66942, Note_off_c, 0, 65, 100
1, 66942, Note_on_c, 0, 63, 100
1, 66980, Note_off_c, 0, 63, 100
1, 66980, Note_on_c, 0, 64, 100
1, 67076, Note_off_c, 0, 64, 100
1, 67076, Note_on_c, 0, 60, 100
1, 67428, Note_off_c, 0, 60, 100
1, 67428, Note_on_c, 0, 60, 100
1, 67492, Note_off_c, 0, 60, 100
1, 67492, Note_on_c, 0, 58, 100
1, 67556, Note_off_c, 0, 58, 100
1, 67556, Note_on_c, 0, 57, 100
1, 67604, Note_off_c, 0, 57, 100
1, 67604, Note_on_c, 0, 57, 100
1, 67652, Note_off_c, 0, 57, 100
1, 67652, Note_on_c, 0, 58, 100
1, 67700, Note_off_c, 0, 58, 100
1, 67700, Note_on_c, 0, 60, 100
1, 67812, Note_off_c, 0, 60, 100
1, 67812, Note_on_c, 0, 60, 100
1, 67876, Note_off_c, 0, 60, 100
1, 67876, Note_on_c, 0, 62, 100
1, 67940, Note_off_c, 0, 62, 100
1, 67940, Note_on_c, 0, 63, 100
1, 67978, Note_off_c, 0, 63, 100
1, 67978, Note_on_c, 0, 62, 100
1, 68016, Note_off_c, 0, 62, 100
1, 68016, Note_on_c, 0, 60, 100
1, 68054, Note_off_c, 0, 60, 100
1, 68054, Note_on_c, 0, 58, 100
1, 68092, Note_off_c, 0, 58, 100
1, 68092, Note_on_c, 0, 57, 100
1, 68178, Note_off_c, 0, 57, 100
1, 68178, Note_on_c, 0, 60, 100
1, 68226, Note_off_c, 0, 60, 100
1, 68226, Note_on_c, 0, 63, 100
1, 68274, Note_off_c, 0, 63, 100
1, 68274, Note_on_c, 0, 67, 100
1, 68322, Note_off_c, 0, 67, 100
1, 68322, Note_on_c, 0, 65, 100
1, 68418, Note_off_c, 0, 65, 100
1, 68706, Note_on_c, 0, 67, 100
1, 68754, Note_off_c, 0, 67, 100
1, 68754, Note_on_c, 0, 68, 100
1, 68802, Note_off_c, 0, 68, 100
1, 68802, Note_on_c, 0, 64, 100
1, 68850, Note_off_c, 0, 64, 100
1, 68850, Note_on_c, 0, 67, 100
1, 68898, Note_off_c, 0, 67, 100
1, 68898, Note_on_c, 0, 65, 100
1, 68962, Note_off_c, 0, 65, 100
1, 68962, Note_on_c, 0, 63, 100
1, 69026, Note_off_c, 0, 63, 100
1, 69026, Note_on_c, 0, 62, 100
1, 69090, Note_off_c, 0, 62, 100
1, 69090, Note_on_c, 0, 60, 100
1, 69138, Note_off_c, 0, 60, 100
1, 69138, Note_on_c, 0, 58, 100
1, 69426, Note_off_c, 0, 58, 100
1, 69426, Note_on_c, 0, 70, 100
1, 69618, Note_off_c, 0, 70, 100
1, 69618, Note_on_c, 0, 67, 100
1, 69714, Note_off_c, 0, 67, 100
1, 69714, Note_on_c, 0, 65, 100
1, 69810, Note_off_c, 0, 65, 100
1, 69810, Note_on_c, 0, 63, 100
1, 69858, Note_off_c, 0, 63, 100
1, 69858, Note_on_c, 0, 65, 100
1, 70146, Note_off_c, 0, 65, 100
1, 70146, Note_on_c, 0, 67, 100
1, 70242, Note_off_c, 0, 67, 100
1, 70690, Note_on_c, 0, 63, 100
1, 70818, Note_off_c, 0, 63, 100
1, 70818, Note_on_c, 0, 63, 100
1, 70866, Note_off_c, 0, 63, 100
1, 70866, Note_on_c, 0, 63, 100
1, 70962, Note_off_c, 0, 63, 100
1, 70962, Note_on_c, 0, 63, 100
1, 71058, Note_off_c, 0, 63, 100
1, 71058, Note_on_c, 0, 60, 100
1, 71154, Note_off_c, 0, 60, 100
1, 71154, Note_on_c, 0, 58, 100
1, 71442, Note_off_c, 0, 58, 100
1, 71442, Note_on_c, 0, 71, 100
1, 71538, Note_off_c, 0, 71, 100
1, 71538, Note_on_c, 0, 71, 100
1, 71634, Note_off_c, 0, 71, 100
1, 71634, Note_on_c, 0, 71, 100
1, 71730, Note_off_c, 0, 71, 100
1, 71730, Note_on_c, 0, 71, 100
1, 71826, Note_off_c, 0, 71, 100
1, 71826, Note_on_c, 0, 69, 100
1, 71922, Note_off_c, 0, 69, 100
1, 71922, Note_on_c, 0, 66, 100
1, 72018, Note_off_c, 0, 66, 100
1, 72306, Note_on_c, 0, 70, 100
1, 72402, Note_off_c, 0, 70, 100
1, 72402, Note_on_c, 0, 67, 100
1, 72450, Note_off_c, 0, 67, 100
1, 72450, Note_on_c, 0, 63, 100
1, 72498, Note_off_c, 0, 63, 100
1, 72498, Note_on_c, 0, 60, 100
1, 72594, Note_off_c, 0, 60, 100
1, 72594, Note_on_c, 0, 68, 100
1, 72690, Note_off_c, 0, 68, 100
1, 72690, Note_on_c, 0, 65, 100
1, 72786, Note_off_c, 0, 65, 100
1, 72786, Note_on_c, 0, 62, 100
1, 72882, Note_off_c, 0, 62, 100
1, 72882, Note_on_c, 0, 58, 100
1, 72994, Note_off_c, 0, 58, 100
1, 72994, Note_on_c, 0, 66, 100
1, 73058, Note_off_c, 0, 66, 100
1, 73058, Note_on_c, 0, 67, 100
1, 73170, Note_off_c, 0, 67, 100
1, 73170, Note_on_c, 0, 68, 100
1, 73266, Note_off_c, 0, 68, 100
1, 73266, Note_on_c, 0, 69, 100
1, 73362, Note_off_c, 0, 69, 100
1, 73362, Note_on_c, 0, 70, 100
1, 73458, Note_off_c, 0, 70, 100
1, 73458, Note_on_c, 0, 67, 100
1, 73602, Note_off_c, 0, 67, 100
1, 73602, Note_on_c, 0, 67, 100
1, 73746, Note_off_c, 0, 67, 100
1, 73746, Note_on_c, 0, 63, 100
1, 73842, Note_off_c, 0, 63, 100
1, 73842, Note_on_c, 0, 58, 100
1, 74034, Note_off_c, 0, 58, 100
1, 74322, Note_on_c, 0, 58, 100
1, 74418, Note_off_c, 0, 58, 100
1, 74418, Note_on_c, 0, 59, 100
1, 74466, Note_off_c, 0, 59, 100
1, 74466, Note_on_c, 0, 60, 100
1, 74562, Note_off_c, 0, 60, 100
1, 74562, Note_on_c, 0, 68, 100
1, 74658, Note_off_c, 0, 68, 100
1, 74658, Note_on_c, 0, 65, 100
1, 74754, Note_off_c, 0, 65, 100
1, 74754, Note_on_c, 0, 66, 100
1, 74850, Note_off_c, 0, 66, 100
1, 74850, Note_on_c, 0, 67, 100
1, 74946, Note_off_c, 0, 67, 100
1, 74946, Note_on_c, 0, 63, 100
1, 75090, Note_off_c, 0, 63, 100
1, 75090, Note_on_c, 0, 58, 100
1, 75186, Note_off_c, 0, 58, 100
1, 75186, Note_on_c, 0, 58, 100
1, 75234, Note_off_c, 0, 58, 100
1, 75234, Note_on_c, 0, 65, 100
1, 75378, Note_off_c, 0, 65, 100
1, 75378, Note_on_c, 0, 63, 100
1, 75581, Note_off_c, 0, 63, 100
1, 75581, End_track
0, 0, End_of_file
