0, 0, Header, 1, 1, 192
1, 0, Start_track
1, 0, Title_t, "Melody"
1, 0, Tempo, 206896
1, 0, Key_signature, -4, "major"
1, 0, Time_signature, 4, 2, 24, 8
1, 0, Note_on_c, 0, 72, 100
1, 48, Note_off_c, 0, 72, 100
1, 48, Note_on_c, 0, 74, 100
1, 144, Note_off_c, 0, 74, 100
1, 144, Note_on_c, 0, 72, 100
1, 240, Note_off_c, 0, 72, 100
1, 240, Note_on_c, 0, 70, 100
1, 432, Note_off_c, 0, 70, 100
1, 432, Note_on_c, 0, 68, 100
1, 528, Note_off_c, 0, 68, 100
1, 528, Note_on_c, 0, 72, 100
1, 720, Note_off_c, 0, 72, 100
1, 720, Note_on_c, 0, 68, 100
1, 912, Note_off_c, 0, 68, 100
1, 912, Note_on_c, 0, 72, 100
1, 1008, Note_off_c, 0, 72, 100
1, 1536, Note_on_c, 0, 72, 100
1, 1584, Note_off_c, 0, 72, 100
1, 1584, Note_on_c, 0, 74, 100
1, 1632, Note_off_c, 0, 74, 100
1, 1632, Note_on_c, 0, 72, 100
1, 1680, Note_off_c, 0, 72, 100
1, 1680, Note_on_c, 0, 74, 100
1, 1728, Note_off_c, 0, 74, 100
1, 1728, Note_on_c, 0, 70, 100
1, 1824, Note_off_c, 0, 70, 100
1, 1824, Note_on_c, 0, 67, 100
1, 1920, Note_off_c, 0, 67, 100
1, 1920, Note_on_c, 0, 68, 100
1, 2064, Note_off_c, 0, 68, 100
1, 2064, Note_on_c, 0, 72, 100
1, 2256, Note_off_c, 0, 72, 100
1, 2256, Note_on_c, 0, 70, 100
1, 2400, Note_off_c, 0, 70, 100
1, 2400, Note_on_c, 0, 66, 100
1, 2496, Note_off_c, 0, 66, 100
1, 3264, Note_on_c, 0, 70, 100
1, 3360, Note_off_c, 0, 70, 100
1, 3360, Note_on_c, 0, 68, 100
1, 3456, Note_off_c, 0, 68, 100
1, 3456, Note_on_c, 0, 67, 100
1, 3552, Note_off_c, 0, 67, 100
1, 3552, Note_on_c, 0, 65, 100
1, 3648, Note_off_c, 0, 65, 100
1, 3648, Note_on_c, 0, 64, 100
1, 3744, Note_off_c, 0, 64, 100
1, 3744, Note_on_c, 0, 67, 100
1, 3840, Note_off_c, 0, 67, 100
1, 3840, Note_on_c, 0, 70, 100
1, 3936, Note_off_c, 0, 70, 100
1, 3936, Note_on_c, 0, 73, 100
1, 4032, Note_off_c, 0, 73, 100
1, 4032, Note_on_c, 0, 72, 100
1, 4128, Note_off_c, 0, 72, 100
1, 4128, Note_on_c, 0, 70, 100
1, 4224, Note_off_c, 0, 70, 100
1, 4224, Note_on_c, 0, 67, 100
1, 4320, Note_off_c, 0, 67, 100
1, 4320, Note_on_c, 0, 68, 100
1, 4416, Note_off_c, 0, 68, 100
1, 4416, Note_on_c, 0, 70, 100
1, 4544, Note_off_c, 0, 70, 100
1, 4544, Note_on_c, 0, 67, 100
1, 4608, Note_off_c, 0, 67, 100
1, 4608, Note_on_c, 0, 68, 100
1, 4800, Note_off_c, 0, 68, 100
1, 4800, Note_on_c, 0, 65, 100
1, 4896, Note_off_c, 0, 65, 100
1, 4896, Note_on_c, 0, 68, 100
1, 4992, Note_off_c, 0, 68, 100
1, 4992, Note_on_c, 0, 67, 100
1, 5120, Note_off_c, 0, 67, 100
1, 5120, Note_on_c, 0, 65, 100
1, 5184, Note_off_c, 0, 65, 100
1, 5184, Note_on_c, 0, 64, 100
1, 5280, Note_off_c, 0, 64, 100
1, 5280, Note_on_c, 0, 60, 100
1, 5376, Note_off_c, 0, 60, 100
1, 5376, Note_on_c, 0, 65, 100
1, 5472, Note_off_c, 0, 65, 100
1, 6432, Note_on_c, 0, 80, 100
1, 6816, Note_off_c, 0, 80, 100
1, 6816, Note_on_c, 0, 77, 100
1, 6912, Note_off_c, 0, 77, 100
1, 6912, Note_on_c, 0, 76, 100
1, 7008, Note_off_c, 0, 76, 100
1, 7008, Note_on_c, 0, 77, 100
1, 7056, Note_off_c, 0, 77, 100
1, 7056, Note_on_c, 0, 81, 100
1, 7104, Note_off_c, 0, 81, 100
1, 7104, Note_on_c, 0, 85, 100
1, 7200, Note_off_c, 0, 85, 100
1, 7200, Note_on_c, 0, 84, 100
1, 7296, Note_off_c, 0, 84, 100
1, 7296, Note_on_c, 0, 82, 100
1, 7344, Note_off_c, 0, 82, 100
1, 7344, Note_on_c, 0, 80, 100
1, 7392, Note_off_c, 0, 80, 100
1, 7392, Note_on_c, 0, 79, 100
1, 7440, Note_off_c, 0, 79, 100
1, 7440, Note_on_c, 0, 80, 100
1, 7488, Note_off_c, 0, 80, 100
1, 7488, Note_on_c, 0, 82, 100
1, 7584, Note_off_c, 0, 82, 100
1, 7584, Note_on_c, 0, 80, 100
1, 7680, Note_off_c, 0, 80, 100
1, 7680, Note_on_c, 0, 79, 100
1, 7776, Note_off_c, 0, 79, 100
1, 7776, Note_on_c, 0, 77, 100
1, 7872, Note_off_c, 0, 77, 100
1, 7872, Note_on_c, 0, 76, 100
1, 7968, Note_off_c, 0, 76, 100
1, 7968, Note_on_c, 0, 73, 100
1, 8064, Note_off_c, 0, 73, 100
1, 8064, Note_on_c, 0, 70, 100
1, 8160, Note_off_c, 0, 70, 100
1, 8160, Note_on_c, 0, 73, 100
1, 8256, Note_off_c, 0, 73, 100
1, 8256, Note_on_c, 0, 72, 100
1, 8352, Note_off_c, 0, 72, 100
1, 8352, Note_on_c, 0, 70, 100
1, 8448, Note_off_c, 0, 70, 100
1, 8448, Note_on_c, 0, 67, 100
1, 8544, Note_off_c, 0, 67, 100
1, 8544, Note_on_c, 0, 68, 100
1, 8640, Note_off_c, 0, 68, 100
1, 8640, Note_on_c, 0, 70, 100
1, 8736, Note_off_c, 0, 70, 100
1, 8736, Note_on_c, 0, 68, 100
1, 8832, Note_off_c, 0, 68, 100
1, 8832, Note_on_c, 0, 67, 100
1, 8928, Note_off_c, 0, 67, 100
1, 8928, Note_on_c, 0, 65, 100
1, 9024, Note_off_c, 0, 65, 100
1, 9024, Note_on_c, 0, 64, 100
1, 9120, Note_off_c, 0, 64, 100
1, 9120, Note_on_c, 0, 67, 100
1, 9168, Note_off_c, 0, 67, 100
1, 9168, Note_on_c, 0, 70, 100
1, 9312, Note_off_c, 0, 70, 100
1, 9312, Note_on_c, 0, 73, 100
1, 9408, Note_off_c, 0, 73, 100
1, 9408, Note_on_c, 0, 72, 100
1, 9504, Note_off_c, 0, 72, 100
1, 9504, Note_on_c, 0, 70, 100
1, 9600, Note_off_c, 0, 70, 100
1, 9600, Note_on_c, 0, 68, 100
1, 9664, Note_off_c, 0, 68, 100
1, 9664, Note_on_c, 0, 67, 100
1, 9728, Note_off_c, 0, 67, 100
1, 9728, Note_on_c, 0, 68, 100
1, 9792, Note_off_c, 0, 68, 100
1, 9792, Note_on_c, 0, 70, 100
1, 9888, Note_off_c, 0, 70, 100
1, 9888, Note_on_c, 0, 67, 100
1, 9984, Note_off_c, 0, 67, 100
1, 9984, Note_on_c, 0, 68, 100
1, 10112, Note_off_c, 0, 68, 100
1, 10112, Note_on_c, 0, 65, 100
1, 10176, Note_off_c, 0, 65, 100
1, 10176, Note_on_c, 0, 66, 100
1, 10272, Note_off_c, 0, 66, 100
1, 10272, Note_on_c, 0, 68, 100
1, 10368, Note_off_c, 0, 68, 100
1, 10368, Note_on_c, 0, 67, 100
1, 10464, Note_off_c, 0, 67, 100
1, 10464, Note_on_c, 0, 65, 100
1, 10512, Note_off_c, 0, 65, 100
1, 10512, Note_on_c, 0, 64, 100
1, 10704, Note_off_c, 0, 64, 100
1, 10704, Note_on_c, 0, 65, 100
1, 10848, Note_off_c, 0, 65, 100
1, 10848, Note_on_c, 0, 60, 100
1, 10944, Note_off_c, 0, 60, 100
1, 11904, Note_on_c, 0, 75, 100
1, 12096, Note_off_c, 0, 75, 100
1, 12096, Note_on_c, 0, 87, 100
1, 12576, Note_off_c, 0, 87, 100
1, 12576, Note_on_c, 0, 85, 100
1, 12624, Note_off_c, 0, 85, 100
1, 12624, Note_on_c, 0, 86, 100
1, 12768, Note_off_c, 0, 86, 100
1, 12768, Note_on_c, 0, 84, 100
1, 12960, Note_off_c, 0, 84, 100
1, 12960, Note_on_c, 0, 81, 100
1, 13056, Note_off_c, 0, 81, 100
1, 13056, Note_on_c, 0, 80, 100
1, 13200, Note_off_c, 0, 80, 100
1, 13200, Note_on_c, 0, 76, 100
1, 13248, Note_off_c, 0, 76, 100
1, 13248, Note_on_c, 0, 78, 100
1, 13344, Note_off_c, 0, 78, 100
1, 13344, Note_on_c, 0, 80, 100
1, 13440, Note_off_c, 0, 80, 100
1, 13440, Note_on_c, 0, 79, 100
1, 13536, Note_off_c, 0, 79, 100
1, 13536, Note_on_c, 0, 77, 100
1, 13632, Note_off_c, 0, 77, 100
1, 13632, Note_on_c, 0, 76, 100
1, 13824, Note_off_c, 0, 76, 100
1, 13824, Note_on_c, 0, 75, 100
1, 13920, Note_off_c, 0, 75, 100
1, 13920, Note_on_c, 0, 74, 100
1, 14016, Note_off_c, 0, 74, 100
1, 14016, Note_on_c, 0, 71, 100
1, 14112, Note_off_c, 0, 71, 100
1, 14112, Note_on_c, 0, 70, 100
1, 14208, Note_off_c, 0, 70, 100
1, 14208, Note_on_c, 0, 68, 100
1, 14336, Note_off_c, 0, 68, 100
1, 14336, Note_on_c, 0, 66, 100
1, 14400, Note_off_c, 0, 66, 100
1, 14400, Note_on_c, 0, 67, 100
1, 14496, Note_off_c, 0, 67, 100
1, 14496, Note_on_c, 0, 70, 100
1, 14784, Note_off_c, 0, 70, 100
1, 15264, Note_on_c, 0, 85, 100
1, 15648, Note_off_c, 0, 85, 100
1, 15648, Note_on_c, 0, 83, 100
1, 15696, Note_off_c, 0, 83, 100
1, 15696, Note_on_c, 0, 84, 100
1, 15808, Note_off_c, 0, 84, 100
1, 15808, Note_on_c, 0, 82, 100
1, 15872, Note_off_c, 0, 82, 100
1, 15872, Note_on_c, 0, 80, 100
1, 16000, Note_off_c, 0, 80, 100
1, 16000, Note_on_c, 0, 79, 100
1, 16064, Note_off_c, 0, 79, 100
1, 16064, Note_on_c, 0, 78, 100
1, 16192, Note_off_c, 0, 78, 100
1, 16192, Note_on_c, 0, 77, 100
1, 16256, Note_off_c, 0, 77, 100
1, 16256, Note_on_c, 0, 78, 100
1, 16384, Note_off_c, 0, 78, 100
1, 16384, Note_on_c, 0, 78, 100
1, 16448, Note_off_c, 0, 78, 100
1, 16448, Note_on_c, 0, 77, 100
1, 16560, Note_off_c, 0, 77, 100
1, 16560, Note_on_c, 0, 75, 100
1, 16656, Note_off_c, 0, 75, 100
1, 16656, Note_on_c, 0, 74, 100
1, 16800, Note_off_c, 0, 74, 100
1, 16800, Note_on_c, 0, 72, 100
1, 16848, Note_off_c, 0, 72, 100
1, 16848, Note_on_c, 0, 73, 100
1, 16992, Note_off_c, 0, 73, 100
1, 16992, Note_on_c, 0, 68, 100
1, 17088, Note_off_c, 0, 68, 100
1, 17280, Note_on_c, 0, 76, 100
1, 17344, Note_off_c, 0, 76, 100
1, 17344, Note_on_c, 0, 77, 100
1, 17408, Note_off_c, 0, 77, 100
1, 17408, Note_on_c, 0, 77, 100
1, 17728, Note_off_c, 0, 77, 100
1, 17728, Note_on_c, 0, 75, 100
1, 17792, Note_off_c, 0, 75, 100
1, 17792, Note_on_c, 0, 76, 100
1, 17904, Note_off_c, 0, 76, 100
1, 17904, Note_on_c, 0, 67, 100
1, 17952, Note_off_c, 0, 67, 100
1, 17952, Note_on_c, 0, 70, 100
1, 18048, Note_off_c, 0, 70, 100
1, 18048, Note_on_c, 0, 73, 100
1, 18144, Note_off_c, 0, 73, 100
1, 18144, Note_on_c, 0, 72, 100
1, 18240, Note_off_c, 0, 72, 100
1, 18240, Note_on_c, 0, 70, 100
1, 18336, Note_off_c, 0, 70, 100
1, 18336, Note_on_c, 0, 68, 100
1, 18480, Note_off_c, 0, 68, 100
1, 18480, Note_on_c, 0, 60, 100
1, 18576, Note_off_c, 0, 60, 100
1, 18576, Note_on_c, 0, 65, 100
1, 18672, Note_off_c, 0, 65, 100
1, 18672, Note_on_c, 0, 68, 100
1, 18768, Note_off_c, 0, 68, 100
1, 18768, Note_on_c, 0, 67, 100
1, 18864, Note_off_c, 0, 67, 100
1, 18864, Note_on_c, 0, 65, 100
1, 18960, Note_off_c, 0, 65, 100
1, 18960, Note_on_c, 0, 64, 100
1, 19056, Note_off_c, 0, 64, 100
1, 19056, Note_on_c, 0, 62, 100
1, 19152, Note_off_c, 0, 62, 100
1, 19152, Note_on_c, 0, 65, 100
1, 19296, Note_off_c, 0, 65, 100
1, 19296, Note_on_c, 0, 63, 100
1, 19344, Note_off_c, 0, 63, 100
1, 19344, Note_on_c, 0, 64, 100
1, 19392, Note_off_c, 0, 64, 100
1, 19392, Note_on_c, 0, 65, 100
1, 19584, Note_off_c, 0, 65, 100
1, 19584, Note_on_c, 0, 67, 100
1, 19680, Note_off_c, 0, 67, 100
1, 19680, Note_on_c, 0, 68, 100
1, 19776, Note_off_c, 0, 68, 100
1, 19776, Note_on_c, 0, 70, 100
1, 19872, Note_off_c, 0, 70, 100
1, 19872, Note_on_c, 0, 67, 100
1, 19920, Note_off_c, 0, 67, 100
1, 19920, Note_on_c, 0, 68, 100
1, 20016, Note_off_c, 0, 68, 100
1, 20016, Note_on_c, 0, 70, 100
1, 20112, Note_off_c, 0, 70, 100
1, 20112, Note_on_c, 0, 72, 100
1, 20224, Note_off_c, 0, 72, 100
1, 20224, Note_on_c, 0, 73, 100
1, 20288, Note_off_c, 0, 73, 100
1, 20288, Note_on_c, 0, 74, 100
1, 20400, Note_off_c, 0, 74, 100
1, 20400, Note_on_c, 0, 75, 100
1, 20496, Note_off_c, 0, 75, 100
1, 20496, Note_on_c, 0, 76, 100
1, 20544, Note_off_c, 0, 76, 100
1, 20544, Note_on_c, 0, 77, 100
1, 20640, Note_off_c, 0, 77, 100
1, 20640, Note_on_c, 0, 78, 100
1, 20736, Note_off_c, 0, 78, 100
1, 20736, Note_on_c, 0, 77, 100
1, 20928, Note_off_c, 0, 77, 100
1, 20928, Note_on_c, 0, 75, 100
1, 20992, Note_off_c, 0, 75, 100
1, 20992, Note_on_c, 0, 76, 100
1, 21056, Note_off_c, 0, 76, 100
1, 21056, Note_on_c, 0, 77, 100
1, 21184, Note_off_c, 0, 77, 100
1, 21184, Note_on_c, 0, 73, 100
1, 21248, Note_off_c, 0, 73, 100
1, 21248, Note_on_c, 0, 74, 100
1, 21376, Note_off_c, 0, 74, 100
1, 21376, Note_on_c, 0, 71, 100
1, 21440, Note_off_c, 0, 71, 100
1, 21440, Note_on_c, 0, 72, 100
1, 21568, Note_off_c, 0, 72, 100
1, 21568, Note_on_c, 0, 70, 100
1, 21696, Note_off_c, 0, 70, 100
1, 21696, Note_on_c, 0, 67, 100
1, 21744, Note_off_c, 0, 67, 100
1, 21744, Note_on_c, 0, 68, 100
1, 21840, Note_off_c, 0, 68, 100
1, 21840, Note_on_c, 0, 70, 100
1, 21984, Note_off_c, 0, 70, 100
1, 21984, Note_on_c, 0, 68, 100
1, 22080, Note_off_c, 0, 68, 100
1, 22080, Note_on_c, 0, 67, 100
1, 22176, Note_off_c, 0, 67, 100
1, 22176, Note_on_c, 0, 65, 100
1, 22272, Note_off_c, 0, 65, 100
1, 22272, Note_on_c, 0, 64, 100
1, 22368, Note_off_c, 0, 64, 100
1, 22368, Note_on_c, 0, 67, 100
1, 22416, Note_off_c, 0, 67, 100
1, 22416, Note_on_c, 0, 70, 100
1, 22560, Note_off_c, 0, 70, 100
1, 22560, Note_on_c, 0, 75, 100
1, 22608, Note_off_c, 0, 75, 100
1, 22608, Note_on_c, 0, 73, 100
1, 22752, Note_off_c, 0, 73, 100
1, 22752, Note_on_c, 0, 72, 100
1, 22992, Note_off_c, 0, 72, 100
1, 22992, Note_on_c, 0, 70, 100
1, 23136, Note_off_c, 0, 70, 100
1, 23136, Note_on_c, 0, 68, 100
1, 23232, Note_off_c, 0, 68, 100
1, 24576, Note_on_c, 0, 84, 100
1, 24768, Note_off_c, 0, 84, 100
1, 24768, Note_on_c, 0, 80, 100
1, 24864, Note_off_c, 0, 80, 100
1, 24864, Note_on_c, 0, 84, 100
1, 24960, Note_off_c, 0, 84, 100
1, 24960, Note_on_c, 0, 82, 100
1, 25056, Note_off_c, 0, 82, 100
1, 25056, Note_on_c, 0, 80, 100
1, 25152, Note_off_c, 0, 80, 100
1, 25152, Note_on_c, 0, 79, 100
1, 25344, Note_off_c, 0, 79, 100
1, 25344, Note_on_c, 0, 80, 100
1, 25488, Note_off_c, 0, 80, 100
1, 25488, Note_on_c, 0, 75, 100
1, 25536, Note_off_c, 0, 75, 100
1, 25536, Note_on_c, 0, 78, 100
1, 25632, Note_off_c, 0, 78, 100
1, 25632, Note_on_c, 0, 80, 100
1, 25728, Note_off_c, 0, 80, 100
1, 25728, Note_on_c, 0, 79, 100
1, 25776, Note_off_c, 0, 79, 100
1, 25776, Note_on_c, 0, 77, 100
1, 25872, Note_off_c, 0, 77, 100
1, 25872, Note_on_c, 0, 76, 100
1, 26016, Note_off_c, 0, 76, 100
1, 26016, Note_on_c, 0, 76, 100
1, 26064, Note_off_c, 0, 76, 100
1, 26064, Note_on_c, 0, 77, 100
1, 26208, Note_off_c, 0, 77, 100
1, 26208, Note_on_c, 0, 72, 100
1, 26304, Note_off_c, 0, 72, 100
1, 26304, Note_on_c, 0, 68, 100
1, 26448, Note_off_c, 0, 68, 100
1, 26448, Note_on_c, 0, 73, 100
1, 26592, Note_off_c, 0, 73, 100
1, 26592, Note_on_c, 0, 72, 100
1, 26688, Note_off_c, 0, 72, 100
1, 26688, Note_on_c, 0, 70, 100
1, 26784, Note_off_c, 0, 70, 100
1, 26784, Note_on_c, 0, 68, 100
1, 26880, Note_off_c, 0, 68, 100
1, 26880, Note_on_c, 0, 67, 100
1, 26928, Note_off_c, 0, 67, 100
1, 26928, Note_on_c, 0, 65, 100
1, 27024, Note_off_c, 0, 65, 100
1, 27024, Note_on_c, 0, 64, 100
1, 27168, Note_off_c, 0, 64, 100
1, 27168, Note_on_c, 0, 55, 100
1, 27264, Note_off_c, 0, 55, 100
1, 27264, Note_on_c, 0, 58, 100
1, 27360, Note_off_c, 0, 58, 100
1, 27360, Note_on_c, 0, 60, 100
1, 27456, Note_off_c, 0, 60, 100
1, 27456, Note_on_c, 0, 59, 100
1, 27552, Note_off_c, 0, 59, 100
1, 27552, Note_on_c, 0, 58, 100
1, 27648, Note_off_c, 0, 58, 100
1, 27648, Note_on_c, 0, 56, 100
1, 27696, Note_off_c, 0, 56, 100
1, 27696, Note_on_c, 0, 60, 100
1, 27792, Note_off_c, 0, 60, 100
1, 27792, Note_on_c, 0, 65, 100
1, 27936, Note_off_c, 0, 65, 100
1, 27936, Note_on_c, 0, 68, 100
1, 28032, Note_off_c, 0, 68, 100
1, 28032, Note_on_c, 0, 67, 100
1, 28128, Note_off_c, 0, 67, 100
1, 28128, Note_on_c, 0, 65, 100
1, 28224, Note_off_c, 0, 65, 100
1, 28224, Note_on_c, 0, 64, 100
1, 28320, Note_off_c, 0, 64, 100
1, 28320, Note_on_c, 0, 63, 100
1, 28416, Note_off_c, 0, 63, 100
1, 28416, Note_on_c, 0, 70, 100
1, 28512, Note_off_c, 0, 70, 100
1, 28512, Note_on_c, 0, 67, 100
1, 28608, Note_off_c, 0, 67, 100
1, 28608, Note_on_c, 0, 68, 100
1, 28704, Note_off_c, 0, 68, 100
1, 28704, Note_on_c, 0, 70, 100
1, 28800, Note_off_c, 0, 70, 100
1, 28800, Note_on_c, 0, 72, 100
1, 28864, Note_off_c, 0, 72, 100
1, 28864, Note_on_c, 0, 73, 100
1, 28928, Note_off_c, 0, 73, 100
1, 28928, Note_on_c, 0, 74, 100
1, 29088, Note_off_c, 0, 74, 100
1, 29088, Note_on_c, 0, 75, 100
1, 29184, Note_off_c, 0, 75, 100
1, 29184, Note_on_c, 0, 76, 100
1, 29280, Note_off_c, 0, 76, 100
1, 29280, Note_on_c, 0, 77, 100
1, 29376, Note_off_c, 0, 77, 100
1, 29376, Note_on_c, 0, 78, 100
1, 29440, Note_off_c, 0, 78, 100
1, 29440, Note_on_c, 0, 76, 100
1, 29504, Note_off_c, 0, 76, 100
1, 29504, Note_on_c, 0, 77, 100
1, 29600, Note_off_c, 0, 77, 100
1, 30528, Note_on_c, 0, 74, 100
1, 30672, Note_off_c, 0, 74, 100
1, 30672, Note_on_c, 0, 87, 100
1, 30768, Note_off_c, 0, 87, 100
1, 30768, Note_on_c, 0, 88, 100
1, 30864, Note_off_c, 0, 88, 100
1, 30864, Note_on_c, 0, 89, 100
1, 31296, Note_off_c, 0, 89, 100
1, 31296, Note_on_c, 0, 82, 100
1, 31392, Note_off_c, 0, 82, 100
1, 32064, Note_on_c, 0, 73, 100
1, 32112, Note_off_c, 0, 73, 100
1, 32112, Note_on_c, 0, 74, 100
1, 32160, Note_off_c, 0, 74, 100
1, 32160, Note_on_c, 0, 80, 100
1, 32256, Note_off_c, 0, 80, 100
1, 32256, Note_on_c, 0, 85, 100
1, 32352, Note_off_c, 0, 85, 100
1, 32352, Note_on_c, 0, 87, 100
1, 32448, Note_off_c, 0, 87, 100
1, 32448, Note_on_c, 0, 85, 100
1, 32512, Note_off_c, 0, 85, 100
1, 32512, Note_on_c, 0, 84, 100
1, 32576, Note_off_c, 0, 84, 100
1, 32576, Note_on_c, 0, 85, 100
1, 32640, Note_off_c, 0, 85, 100
1, 32640, Note_on_c, 0, 84, 100
1, 32784, Note_off_c, 0, 84, 100
1, 32784, Note_on_c, 0, 78, 100
1, 32880, Note_off_c, 0, 78, 100
1, 33408, Note_on_c, 0, 85, 100
1, 33600, Note_off_c, 0, 85, 100
1, 33600, Note_on_c, 0, 80, 100
1, 33792, Note_off_c, 0, 80, 100
1, 33792, Note_on_c, 0, 83, 100
1, 33936, Note_off_c, 0, 83, 100
1, 33936, Note_on_c, 0, 80, 100
1, 33984, Note_off_c, 0, 80, 100
1, 33984, Note_on_c, 0, 79, 100
1, 34128, Note_off_c, 0, 79, 100
1, 34128, Note_on_c, 0, 76, 100
1, 34320, Note_off_c, 0, 76, 100
1, 34320, Note_on_c, 0, 71, 100
1, 34368, Note_off_c, 0, 71, 100
1, 34368, Note_on_c, 0, 70, 100
1, 34464, Note_off_c, 0, 70, 100
1, 34464, Note_on_c, 0, 70, 100
1, 34560, Note_off_c, 0, 70, 100
1, 34560, Note_on_c, 0, 72, 100
1, 34656, Note_off_c, 0, 72, 100
1, 34656, Note_on_c, 0, 70, 100
1, 34752, Note_off_c, 0, 70, 100
1, 34752, Note_on_c, 0, 68, 100
1, 34848, Note_off_c, 0, 68, 100
1, 34848, Note_on_c, 0, 69, 100
1, 34944, Note_off_c, 0, 69, 100
1, 34944, Note_on_c, 0, 70, 100
1, 35040, Note_off_c, 0, 70, 100
1, 35040, Note_on_c, 0, 67, 100
1, 35136, Note_off_c, 0, 67, 100
1, 35136, Note_on_c, 0, 68, 100
1, 35232, Note_off_c, 0, 68, 100
1, 35232, Note_on_c, 0, 65, 100
1, 35472, Note_off_c, 0, 65, 100
1, 35472, Note_on_c, 0, 67, 100
1, 35616, Note_off_c, 0, 67, 100
1, 35616, Note_on_c, 0, 65, 100
1, 35904, Note_off_c, 0, 65, 100
1, 36624, Note_on_c, 0, 84, 100
1, 36720, Note_off_c, 0, 84, 100
1, 36720, Note_on_c, 0, 86, 100
1, 36864, Note_off_c, 0, 86, 100
1, 36864, Note_on_c, 0, 90, 100
1, 36960, Note_off_c, 0, 90, 100
1, 36960, Note_on_c, 0, 89, 100
1, 37248, Note_off_c, 0, 89, 100
1, 37248, Note_on_c, 0, 88, 100
1, 37392, Note_off_c, 0, 88, 100
1, 37392, Note_on_c, 0, 84, 100
1, 37536, Note_off_c, 0, 84, 100
1, 37536, Note_on_c, 0, 87, 100
1, 37728, Note_off_c, 0, 87, 100
1, 37728, Note_on_c, 0, 86, 100
1, 37920, Note_off_c, 0, 86, 100
1, 37920, Note_on_c, 0, 77, 100
1, 38016, Note_off_c, 0, 77, 100
1, 38016, Note_on_c, 0, 81, 100
1, 38080, Note_off_c, 0, 81, 100
1, 38080, Note_on_c, 0, 86, 100
1, 38144, Note_off_c, 0, 86, 100
1, 38144, Note_on_c, 0, 84, 100
1, 38208, Note_off_c, 0, 84, 100
1, 38208, Note_on_c, 0, 82, 100
1, 38304, Note_off_c, 0, 82, 100
1, 38304, Note_on_c, 0, 80, 100
1, 38400, Note_off_c, 0, 80, 100
1, 38400, Note_on_c, 0, 79, 100
1, 38448, Note_off_c, 0, 79, 100
1, 38448, Note_on_c, 0, 77, 100
1, 38544, Note_off_c, 0, 77, 100
1, 38544, Note_on_c, 0, 77, 100
1, 38640, Note_off_c, 0, 77, 100
1, 38640, Note_on_c, 0, 75, 100
1, 38736, Note_off_c, 0, 75, 100
1, 38736, Note_on_c, 0, 77, 100
1, 38880, Note_off_c, 0, 77, 100
1, 38880, Note_on_c, 0, 74, 100
1, 38928, Note_off_c, 0, 74, 100
1, 38928, Note_on_c, 0, 76, 100
1, 39072, Note_off_c, 0, 76, 100
1, 39072, Note_on_c, 0, 83, 100
1, 39264, Note_off_c, 0, 83, 100
1, 39744, Note_on_c, 0, 83, 100
1, 39936, Note_off_c, 0, 83, 100
1, 39936, Note_on_c, 0, 87, 100
1, 40272, Note_off_c, 0, 87, 100
1, 40272, Note_on_c, 0, 86, 100
1, 40512, Note_off_c, 0, 86, 100
1, 40512, Note_on_c, 0, 82, 100
1, 40896, Note_off_c, 0, 82, 100
1, 40896, Note_on_c, 0, 85, 100
1, 41280, Note_off_c, 0, 85, 100
1, 41280, Note_on_c, 0, 78, 100
1, 41616, Note_off_c, 0, 78, 100
1, 41616, Note_on_c, 0, 79, 100
1, 41712, Note_off_c, 0, 79, 100
1, 41712, Note_on_c, 0, 77, 100
1, 41808, Note_off_c, 0, 77, 100
1, 41808, Note_on_c, 0, 72, 100
1, 41856, Note_off_c, 0, 72, 100
1, 41856, Note_on_c, 0, 75, 100
1, 42000, Note_off_c, 0, 75, 100
1, 42000, Note_on_c, 0, 73, 100
1, 42112, Note_off_c, 0, 73, 100
1, 42112, Note_on_c, 0, 72, 100
1, 42176, Note_off_c, 0, 72, 100
1, 42176, Note_on_c, 0, 70, 100
1, 42240, Note_off_c, 0, 70, 100
1, 42240, Note_on_c, 0, 68, 100
1, 42384, Note_off_c, 0, 68, 100
1, 42384, Note_on_c, 0, 70, 100
1, 42528, Note_off_c, 0, 70, 100
1, 42528, Note_on_c, 0, 68, 100
1, 42576, Note_off_c, 0, 68, 100
1, 42576, Note_on_c, 0, 67, 100
1, 42688, Note_off_c, 0, 67, 100
1, 42688, Note_on_c, 0, 65, 100
1, 42752, Note_off_c, 0, 65, 100
1, 42752, Note_on_c, 0, 64, 100
1, 42848, Note_off_c, 0, 64, 100
1, 43008, Note_on_c, 0, 57, 100
1, 43056, Note_off_c, 0, 57, 100
1, 43056, Note_on_c, 0, 58, 100
1, 43104, Note_off_c, 0, 58, 100
1, 43104, Note_on_c, 0, 60, 100
1, 43200, Note_off_c, 0, 60, 100
1, 43200, Note_on_c, 0, 60, 100
1, 43840, Note_off_c, 0, 60, 100
1, 43840, Note_on_c, 0, 65, 100
1, 43968, Note_off_c, 0, 65, 100
1, 43968, Note_on_c, 0, 67, 100
1, 44064, Note_off_c, 0, 67, 100
1, 44064, Note_on_c, 0, 68, 100
1, 44160, Note_off_c, 0, 68, 100
1, 44160, Note_on_c, 0, 70, 100
1, 44256, Note_off_c, 0, 70, 100
1, 44256, Note_on_c, 0, 67, 100
1, 44352, Note_off_c, 0, 67, 100
1, 44352, Note_on_c, 0, 68, 100
1, 44400, Note_off_c, 0, 68, 100
1, 44400, Note_on_c, 0, 70, 100
1, 44496, Note_off_c, 0, 70, 100
1, 44496, Note_on_c, 0, 72, 100
1, 44608, Note_off_c, 0, 72, 100
1, 44608, Note_on_c, 0, 73, 100
1, 44672, Note_off_c, 0, 73, 100
1, 44672, Note_on_c, 0, 74, 100
1, 44800, Note_off_c, 0, 74, 100
1, 44800, Note_on_c, 0, 75, 100
1, 44928, Note_off_c, 0, 75, 100
1, 44928, Note_on_c, 0, 78, 100
1, 44976, Note_off_c, 0, 78, 100
1, 44976, Note_on_c, 0, 77, 100
1, 45072, Note_off_c, 0, 77, 100
1, 45072, Note_on_c, 0, 78, 100
1, 45184, Note_off_c, 0, 78, 100
1, 45184, Note_on_c, 0, 76, 100
1, 45248, Note_off_c, 0, 76, 100
1, 45248, Note_on_c, 0, 77, 100
1, 45440, Note_off_c, 0, 77, 100
1, 46464, Note_on_c, 0, 84, 100
1, 46656, Note_off_c, 0, 84, 100
1, 46656, Note_on_c, 0, 84, 100
1, 47040, Note_off_c, 0, 84, 100
1, 47040, Note_on_c, 0, 84, 100
1, 47184, Note_off_c, 0, 84, 100
1, 47184, Note_on_c, 0, 84, 100
1, 47520, Note_off_c, 0, 84, 100
1, 47520, Note_on_c, 0, 84, 100
1, 47712, Note_off_c, 0, 84, 100
1, 47712, Note_on_c, 0, 84, 100
1, 47904, Note_off_c, 0, 84, 100
1, 48768, Note_on_c, 0, 83, 100
1, 48864, Note_off_c, 0, 83, 100
1, 48864, Note_on_c, 0, 84, 100
1, 48960, Note_off_c, 0, 84, 100
1, 48960, Note_on_c, 0, 83, 100
1, 49056, Note_off_c, 0, 83, 100
1, 49056, Note_on_c, 0, 83, 100
1, 49152, Note_off_c, 0, 83, 100
1, 49152, Note_on_c, 0, 84, 100
1, 49248, Note_off_c, 0, 84, 100
1, 49248, Note_on_c, 0, 84, 100
1, 49344, Note_off_c, 0, 84, 100
1, 49344, Note_on_c, 0, 85, 100
1, 49440, Note_off_c, 0, 85, 100
1, 49440, Note_on_c, 0, 84, 100
1, 49536, Note_off_c, 0, 84, 100
1, 49536, Note_on_c, 0, 83, 100
1, 49584, Note_off_c, 0, 83, 100
1, 49584, Note_on_c, 0, 84, 100
1, 49680, Note_off_c, 0, 84, 100
1, 49680, Note_on_c, 0, 85, 100
1, 49728, Note_off_c, 0, 85, 100
1, 49728, Note_on_c, 0, 84, 100
1, 49824, Note_off_c, 0, 84, 100
1, 49824, Note_on_c, 0, 84, 100
1, 49920, Note_off_c, 0, 84, 100
1, 49920, Note_on_c, 0, 83, 100
1, 50016, Note_off_c, 0, 83, 100
1, 50016, Note_on_c, 0, 84, 100
1, 50112, Note_off_c, 0, 84, 100
1, 50112, Note_on_c, 0, 83, 100
1, 50176, Note_off_c, 0, 83, 100
1, 50176, Note_on_c, 0, 82, 100
1, 50240, Note_off_c, 0, 82, 100
1, 50240, Note_on_c, 0, 83, 100
1, 50304, Note_off_c, 0, 83, 100
1, 50304, Note_on_c, 0, 85, 100
1, 50544, Note_off_c, 0, 85, 100
1, 50544, Note_on_c, 0, 79, 100
1, 50640, Note_off_c, 0, 79, 100
1, 50640, Note_on_c, 0, 80, 100
1, 50736, Note_off_c, 0, 80, 100
1, 50736, Note_on_c, 0, 82, 100
1, 50832, Note_off_c, 0, 82, 100
1, 50832, Note_on_c, 0, 80, 100
1, 50944, Note_off_c, 0, 80, 100
1, 50944, Note_on_c, 0, 79, 100
1, 51008, Note_off_c, 0, 79, 100
1, 51008, Note_on_c, 0, 77, 100
1, 51072, Note_off_c, 0, 77, 100
1, 51072, Note_on_c, 0, 76, 100
1, 51264, Note_off_c, 0, 76, 100
1, 51264, Note_on_c, 0, 70, 100
1, 51360, Note_off_c, 0, 70, 100
1, 51360, Note_on_c, 0, 73, 100
1, 51456, Note_off_c, 0, 73, 100
1, 51456, Note_on_c, 0, 72, 100
1, 51520, Note_off_c, 0, 72, 100
1, 51520, Note_on_c, 0, 70, 100
1, 51584, Note_off_c, 0, 70, 100
1, 51584, Note_on_c, 0, 67, 100
1, 51696, Note_off_c, 0, 67, 100
1, 51696, Note_on_c, 0, 68, 100
1, 51792, Note_off_c, 0, 68, 100
1, 51792, Note_on_c, 0, 70, 100
1, 51936, Note_off_c, 0, 70, 100
1, 51936, Note_on_c, 0, 67, 100
1, 51984, Note_off_c, 0, 67, 100
1, 51984, Note_on_c, 0, 68, 100
1, 52224, Note_off_c, 0, 68, 100
1, 52224, Note_on_c, 0, 59, 100
1, 52320, Note_off_c, 0, 59, 100
1, 52320, Note_on_c, 0, 68, 100
1, 52368, Note_off_c, 0, 68, 100
1, 52368, Note_on_c, 0, 67, 100
1, 52416, Note_off_c, 0, 67, 100
1, 52416, Note_on_c, 0, 64, 100
1, 52512, Note_off_c, 0, 64, 100
1, 52512, Note_on_c, 0, 65, 100
1, 52608, Note_off_c, 0, 65, 100
1, 52608, Note_on_c, 0, 64, 100
1, 52752, Note_off_c, 0, 64, 100
1, 52752, Note_on_c, 0, 65, 100
1, 52896, Note_off_c, 0, 65, 100
1, 52896, Note_on_c, 0, 62, 100
1, 52992, Note_off_c, 0, 62, 100
1, 52992, Note_on_c, 0, 63, 100
1, 53088, Note_off_c, 0, 63, 100
1, 53088, Note_on_c, 0, 65, 100
1, 53184, Note_off_c, 0, 65, 100
1, 53184, Note_on_c, 0, 67, 100
1, 53248, Note_off_c, 0, 67, 100
1, 53248, Note_on_c, 0, 68, 100
1, 53312, Note_off_c, 0, 68, 100
1, 53312, Note_on_c, 0, 70, 100
1, 53440, Note_off_c, 0, 70, 100
1, 53440, Note_on_c, 0, 68, 100
1, 53504, Note_off_c, 0, 68, 100
1, 53504, Note_on_c, 0, 73, 100
1, 53616, Note_off_c, 0, 73, 100
1, 53616, Note_on_c, 0, 74, 100
1, 53712, Note_off_c, 0, 74, 100
1, 53712, Note_on_c, 0, 75, 100
1, 53824, Note_off_c, 0, 75, 100
1, 53824, Note_on_c, 0, 76, 100
1, 53888, Note_off_c, 0, 76, 100
1, 53888, Note_on_c, 0, 77, 100
1, 53952, Note_off_c, 0, 77, 100
1, 53952, Note_on_c, 0, 75, 100
1, 54048, Note_off_c, 0, 75, 100
1, 54048, Note_on_c, 0, 76, 100
1, 54144, Note_off_c, 0, 76, 100
1, 54144, Note_on_c, 0, 77, 100
1, 54336, Note_off_c, 0, 77, 100
1, 55296, Note_on_c, 0, 72, 100
1, 55488, Note_off_c, 0, 72, 100
1, 55488, Note_on_c, 0, 86, 100
1, 55680, Note_off_c, 0, 86, 100
1, 55680, Note_on_c, 0, 84, 100
1, 55872, Note_off_c, 0, 84, 100
1, 56160, Note_on_c, 0, 82, 100
1, 56256, Note_off_c, 0, 82, 100
1, 56256, Note_on_c, 0, 77, 100
1, 56352, Note_off_c, 0, 77, 100
1, 56352, Note_on_c, 0, 80, 100
1, 56448, Note_off_c, 0, 80, 100
1, 56448, Note_on_c, 0, 82, 100
1, 56496, Note_off_c, 0, 82, 100
1, 56496, Note_on_c, 0, 80, 100
1, 56592, Note_off_c, 0, 80, 100
1, 56592, Note_on_c, 0, 78, 100
1, 56704, Note_off_c, 0, 78, 100
1, 56704, Note_on_c, 0, 77, 100
1, 56768, Note_off_c, 0, 77, 100
1, 56768, Note_on_c, 0, 76, 100
1, 57120, Note_off_c, 0, 76, 100
1, 57120, Note_on_c, 0, 73, 100
1, 57216, Note_off_c, 0, 73, 100
1, 57216, Note_on_c, 0, 72, 100
1, 57312, Note_off_c, 0, 72, 100
1, 57792, Note_on_c, 0, 67, 100
1, 57888, Note_off_c, 0, 67, 100
1, 57888, Note_on_c, 0, 69, 100
1, 57984, Note_off_c, 0, 69, 100
1, 57984, Note_on_c, 0, 70, 100
1, 58080, Note_off_c, 0, 70, 100
1, 58080, Note_on_c, 0, 68, 100
1, 58176, Note_off_c, 0, 68, 100
1, 58176, Note_on_c, 0, 67, 100
1, 58272, Note_off_c, 0, 67, 100
1, 58272, Note_on_c, 0, 65, 100
1, 58368, Note_off_c, 0, 65, 100
1, 58368, Note_on_c, 0, 64, 100
1, 58464, Note_off_c, 0, 64, 100
1, 58464, Note_on_c, 0, 67, 100
1, 58512, Note_off_c, 0, 67, 100
1, 58512, Note_on_c, 0, 70, 100
1, 58608, Note_off_c, 0, 70, 100
1, 58608, Note_on_c, 0, 73, 100
1, 58704, Note_off_c, 0, 73, 100
1, 58704, Note_on_c, 0, 72, 100
1, 58848, Note_off_c, 0, 72, 100
1, 58848, Note_on_c, 0, 70, 100
1, 58944, Note_off_c, 0, 70, 100
1, 58944, Note_on_c, 0, 68, 100
1, 59136, Note_off_c, 0, 68, 100
1, 59136, Note_on_c, 0, 70, 100
1, 59232, Note_off_c, 0, 70, 100
1, 59232, Note_on_c, 0, 68, 100
1, 59328, Note_off_c, 0, 68, 100
1, 59328, Note_on_c, 0, 67, 100
1, 59376, Note_off_c, 0, 67, 100
1, 59376, Note_on_c, 0, 65, 100
1, 59472, Note_off_c, 0, 65, 100
1, 59472, Note_on_c, 0, 64, 100
1, 59568, Note_off_c, 0, 64, 100
1, 59568, Note_on_c, 0, 61, 100
1, 59616, Note_off_c, 0, 61, 100
1, 59616, Note_on_c, 0, 57, 100
1, 59664, Note_off_c, 0, 57, 100
1, 59664, Note_on_c, 0, 58, 100
1, 59808, Note_off_c, 0, 58, 100
1, 59808, Note_on_c, 0, 61, 100
1, 59904, Note_off_c, 0, 61, 100
1, 59904, Note_on_c, 0, 60, 100
1, 60000, Note_off_c, 0, 60, 100
1, 60000, Note_on_c, 0, 58, 100
1, 60096, Note_off_c, 0, 58, 100
1, 60096, Note_on_c, 0, 56, 100
1, 60288, Note_off_c, 0, 56, 100
1, 60288, Note_on_c, 0, 58, 100
1, 60432, Note_off_c, 0, 58, 100
1, 60432, Note_on_c, 0, 56, 100
1, 60624, Note_off_c, 0, 56, 100
1, 61344, Note_on_c, 0, 65, 100
1, 61440, Note_off_c, 0, 65, 100
1, 61440, Note_on_c, 0, 64, 100
1, 61504, Note_off_c, 0, 64, 100
1, 61504, Note_on_c, 0, 62, 100
1, 61568, Note_off_c, 0, 62, 100
1, 61568, Note_on_c, 0, 65, 100
1, 61632, Note_off_c, 0, 65, 100
1, 61632, Note_on_c, 0, 67, 100
1, 61680, Note_off_c, 0, 67, 100
1, 61680, Note_on_c, 0, 70, 100
1, 61776, Note_off_c, 0, 70, 100
1, 61776, Note_on_c, 0, 72, 100
1, 61824, Note_off_c, 0, 72, 100
1, 61824, Note_on_c, 0, 73, 100
1, 61920, Note_off_c, 0, 73, 100
1, 61920, Note_on_c, 0, 75, 100
1, 62016, Note_off_c, 0, 75, 100
1, 62016, Note_on_c, 0, 76, 100
1, 62064, Note_off_c, 0, 76, 100
1, 62064, Note_on_c, 0, 77, 100
1, 62112, Note_off_c, 0, 77, 100
1, 62112, Note_on_c, 0, 75, 100
1, 62272, Note_off_c, 0, 75, 100
1, 62272, Note_on_c, 0, 73, 100
1, 62336, Note_off_c, 0, 73, 100
1, 62336, Note_on_c, 0, 74, 100
1, 62464, Note_off_c, 0, 74, 100
1, 62464, Note_on_c, 0, 70, 100
1, 62528, Note_off_c, 0, 70, 100
1, 62528, Note_on_c, 0, 67, 100
1, 62640, Note_off_c, 0, 67, 100
1, 62640, Note_on_c, 0, 68, 100
1, 62736, Note_off_c, 0, 68, 100
1, 62736, Note_on_c, 0, 72, 100
1, 62848, Note_off_c, 0, 72, 100
1, 62848, Note_on_c, 0, 68, 100
1, 62912, Note_off_c, 0, 68, 100
1, 62912, Note_on_c, 0, 67, 100
1, 63072, Note_off_c, 0, 67, 100
1, 63072, Note_on_c, 0, 65, 100
1, 63168, Note_off_c, 0, 65, 100
1, 63168, Note_on_c, 0, 63, 100
1, 63360, Note_off_c, 0, 63, 100
1, 63360, Note_on_c, 0, 65, 100
1, 63456, Note_off_c, 0, 65, 100
1, 63456, Note_on_c, 0, 62, 100
1, 63552, Note_off_c, 0, 62, 100
1, 63552, Note_on_c, 0, 63, 100
1, 63648, Note_off_c, 0, 63, 100
1, 63648, Note_on_c, 0, 65, 100
1, 64032, Note_off_c, 0, 65, 100
1, 64032, Note_on_c, 0, 62, 100
1, 64128, Note_off_c, 0, 62, 100
1, 64128, Note_on_c, 0, 63, 100
1, 64176, Note_off_c, 0, 63, 100
1, 64176, Note_on_c, 0, 65, 100
1, 64272, Note_off_c, 0, 65, 100
1, 64272, Note_on_c, 0, 66, 100
1, 64416, Note_off_c, 0, 66, 100
1, 64416, Note_on_c, 0, 68, 100
1, 64464, Note_off_c, 0, 68, 100
1, 64464, Note_on_c, 0, 70, 100
1, 64576, Note_off_c, 0, 70, 100
1, 64576, Note_on_c, 0, 68, 100
1, 64640, Note_off_c, 0, 68, 100
1, 64640, Note_on_c, 0, 68, 100
1, 64704, Note_off_c, 0, 68, 100
1, 64704, Note_on_c, 0, 70, 100
1, 64780, Note_off_c, 0, 70, 100
1, 64780, Note_on_c, 0, 68, 100
1, 64818, Note_off_c, 0, 68, 100
1, 64818, Note_on_c, 0, 67, 100
1, 64856, Note_off_c, 0, 67, 100
1, 64856, Note_on_c, 0, 65, 100
1, 64942, Note_off_c, 0, 65, 100
1, 64942, Note_on_c, 0, 66, 100
1, 65038, Note_off_c, 0, 66, 100
1, 65038, Note_on_c, 0, 70, 100
1, 65150, Note_off_c, 0, 70, 100
1, 65150, Note_on_c, 0, 73, 100
1, 65342, Note_off_c, 0, 73, 100
1, 65342, Note_on_c, 0, 80, 100
1, 65902, Note_off_c, 0, 80, 100
1, 65902, Note_on_c, 0, 79, 100
1, 65950, Note_off_c, 0, 79, 100
1, 65950, Note_on_c, 0, 78, 100
1, 66046, Note_off_c, 0, 78, 100
1, 66046, Note_on_c, 0, 77, 100
1, 66142, Note_off_c, 0, 77, 100
1, 66142, Note_on_c, 0, 73, 100
1, 66238, Note_off_c, 0, 73, 100
1, 67390, Note_on_c, 0, 80, 100
1, 67582, Note_off_c, 0, 80, 100
1, 67582, Note_on_c, 0, 84, 100
1, 67774, Note_off_c, 0, 84, 100
1, 67774, Note_on_c, 0, 80, 100
1, 68014, Note_off_c, 0, 80, 100
1, 68014, Note_on_c, 0, 84, 100
1, 68110, Note_off_c, 0, 84, 100
1, 68110, Note_on_c, 0, 80, 100
1, 68254, Note_off_c, 0, 80, 100
1, 68254, Note_on_c, 0, 85, 100
1, 68446, Note_off_c, 0, 85, 100
1, 68446, Note_on_c, 0, 83, 100
1, 68542, Note_off_c, 0, 83, 100
1, 68542, Note_on_c, 0, 84, 100
1, 68638, Note_off_c, 0, 84, 100
1, 68638, Note_on_c, 0, 82, 100
1, 68734, Note_off_c, 0, 82, 100
1, 68734, Note_on_c, 0, 80, 100
1, 68926, Note_off_c, 0, 80, 100
1, 68926, Note_on_c, 0, 82, 100
1, 69022, Note_off_c, 0, 82, 100
1, 69022, Note_on_c, 0, 80, 100
1, 69118, Note_off_c, 0, 80, 100
1, 69118, Note_on_c, 0, 79, 100
1, 69214, Note_off_c, 0, 79, 100
1, 69214, Note_on_c, 0, 77, 100
1, 69374, Note_off_c, 0, 77, 100
1, 69374, Note_on_c, 0, 78, 100
1, 69438, Note_off_c, 0, 78, 100
1, 69438, Note_on_c, 0, 82, 100
1, 69502, Note_off_c, 0, 82, 100
1, 69502, Note_on_c, 0, 84, 100
1, 69598, Note_off_c, 0, 84, 100
1, 69598, Note_on_c, 0, 82, 100
1, 69646, Note_off_c, 0, 82, 100
1, 69646, Note_on_c, 0, 81, 100
1, 69694, Note_off_c, 0, 81, 100
1, 69694, Note_on_c, 0, 80, 100
1, 69790, Note_off_c, 0, 80, 100
1, 69790, Note_on_c, 0, 81, 100
1, 69886, Note_off_c, 0, 81, 100
1, 69886, Note_on_c, 0, 82, 100
1, 69982, Note_off_c, 0, 82, 100
1, 69982, Note_on_c, 0, 80, 100
1, 70078, Note_off_c, 0, 80, 100
1, 70078, Note_on_c, 0, 79, 100
1, 70174, Note_off_c, 0, 79, 100
1, 70174, Note_on_c, 0, 77, 100
1, 70270, Note_off_c, 0, 77, 100
1, 70270, Note_on_c, 0, 76, 100
1, 70462, Note_off_c, 0, 76, 100
1, 70462, Note_on_c, 0, 70, 100
1, 70558, Note_off_c, 0, 70, 100
1, 70558, Note_on_c, 0, 73, 100
1, 70654, Note_off_c, 0, 73, 100
1, 70654, Note_on_c, 0, 72, 100
1, 70750, Note_off_c, 0, 72, 100
1, 70750, Note_on_c, 0, 70, 100
1, 70798, Note_off_c, 0, 70, 100
1, 70798, Note_on_c, 0, 68, 100
1, 70942, Note_off_c, 0, 68, 100
1, 70942, Note_on_c, 0, 67, 100
1, 71038, Note_off_c, 0, 67, 100
1, 71038, Note_on_c, 0, 70, 100
1, 71134, Note_off_c, 0, 70, 100
1, 71134, Note_on_c, 0, 68, 100
1, 71230, Note_off_c, 0, 68, 100
1, 71230, Note_on_c, 0, 67, 100
1, 71326, Note_off_c, 0, 67, 100
1, 71326, Note_on_c, 0, 65, 100
1, 71422, Note_off_c, 0, 65, 100
1, 71422, Note_on_c, 0, 64, 100
1, 71518, Note_off_c, 0, 64, 100
1, 71518, Note_on_c, 0, 67, 100
1, 71614, Note_off_c, 0, 67, 100
1, 71614, Note_on_c, 0, 70, 100
1, 71678, Note_off_c, 0, 70, 100
1, 71678, Note_on_c, 0, 73, 100
1, 71742, Note_off_c, 0, 73, 100
1, 71742, Note_on_c, 0, 72, 100
1, 71806, Note_off_c, 0, 72, 100
1, 71806, Note_on_c, 0, 70, 100
1, 71998, Note_off_c, 0, 70, 100
1, 71998, Note_on_c, 0, 68, 100
1, 72094, Note_off_c, 0, 68, 100
1, 72094, Note_on_c, 0, 67, 100
1, 72190, Note_off_c, 0, 67, 100
1, 72190, Note_on_c, 0, 70, 100
1, 72286, Note_off_c, 0, 70, 100
1, 72286, Note_on_c, 0, 68, 100
1, 72334, Note_off_c, 0, 68, 100
1, 72334, Note_on_c, 0, 67, 100
1, 72446, Note_off_c, 0, 67, 100
1, 72446, Note_on_c, 0, 65, 100
1, 72510, Note_off_c, 0, 65, 100
1, 72510, Note_on_c, 0, 64, 100
1, 72622, Note_off_c, 0, 64, 100
1, 72622, Note_on_c, 0, 56, 100
1, 72670, Note_off_c, 0, 56, 100
1, 72670, Note_on_c, 0, 57, 100
1, 72718, Note_off_c, 0, 57, 100
1, 72718, Note_on_c, 0, 58, 100
1, 72862, Note_off_c, 0, 58, 100
1, 72862, Note_on_c, 0, 61, 100
1, 72910, Note_off_c, 0, 61, 100
1, 72910, Note_on_c, 0, 60, 100
1, 73022, Note_off_c, 0, 60, 100
1, 73022, Note_on_c, 0, 58, 100
1, 73086, Note_off_c, 0, 58, 100
1, 73086, Note_on_c, 0, 56, 100
1, 73198, Note_off_c, 0, 56, 100
1, 73198, Note_on_c, 0, 55, 100
1, 73294, Note_off_c, 0, 55, 100
1, 73294, Note_on_c, 0, 58, 100
1, 73390, Note_off_c, 0, 58, 100
1, 73390, Note_on_c, 0, 56, 100
1, 73486, Note_off_c, 0, 56, 100
1, 73486, Note_on_c, 0, 53, 100
1, 73567, Note_off_c, 0, 53, 100
1, 73567, End_track
0, 0, End_of_file
