0, 0, Header, 1, 1, 192
1, 0, Start_track
1, 0, Title_t, "Melody"
1, 0, Tempo, 606060
1, 0, Key_signature, -5, "major"
1, 0, Time_signature, 4, 2, 24, 8
1, 480, Note_on_c, 0, 51, 100
1, 576, Note_off_c, 0, 51, 100
1, 576, Note_on_c, 0, 56, 100
1, 640, Note_off_c, 0, 56, 100
1, 640, Note_on_c, 0, 59, 100
1, 704, Note_off_c, 0, 59, 100
1, 704, Note_on_c, 0, 58, 100
1, 768, Note_off_c, 0, 58, 100
1, 768, Note_on_c, 0, 51, 100
1, 1200, Note_off_c, 0, 51, 100
1, 1200, Note_on_c, 0, 52, 100
1, 1248, Note_off_c, 0, 52, 100
1, 1248, Note_on_c, 0, 53, 100
1, 1296, Note_off_c, 0, 53, 100
1, 1296, Note_on_c, 0, 54, 100
1, 1392, Note_off_c, 0, 54, 100
1, 1392, Note_on_c, 0, 56, 100
1, 1440, Note_off_c, 0, 56, 100
1, 1440, Note_on_c, 0, 53, 100
1, 1488, Note_off_c, 0, 53, 100
1, 1488, Note_on_c, 0, 51, 100
1, 1600, Note_off_c, 0, 51, 100
1, 1600, Note_on_c, 0, 58, 100
1, 1664, Note_off_c, 0, 58, 100
1, 1664, Note_on_c, 0, 58, 100
1, 2016, Note_off_c, 0, 58, 100
1, 2016, Note_on_c, 0, 52, 100
1, 2064, Note_off_c, 0, 52, 100
1, 2064, Note_on_c, 0, 56, 100
1, 2112, Note_off_c, 0, 56, 100
1, 2112, Note_on_c, 0, 64, 100
1, 2160, Note_off_c, 0, 64, 100
1, 2160, Note_on_c, 0, 60, 100
1, 2208, Note_off_c, 0, 60, 100
1, 2208, Note_on_c, 0, 58, 100
1, 2256, Note_off_c, 0, 58, 100
1, 2256, Note_on_c, 0, 54, 100
1, 2304, Note_off_c, 0, 54, 100
1, 2304, Note_on_c, 0, 53, 100
1, 2544, Note_off_c, 0, 53, 100
1, 2544, Note_on_c, 0, 56, 100
1, 2592, Note_off_c, 0, 56, 100
1, 2592, Note_on_c, 0, 58, 100
1, 2640, Note_off_c, 0, 58, 100
1, 2640, Note_on_c, 0, 56, 100
1, 2712, Note_off_c, 0, 56, 100
1, 2712, Note_on_c, 0, 58, 100
1, 2808, Note_off_c, 0, 58, 100
1, 2808, Note_on_c, 0, 51, 100
1, 2832, Note_off_c, 0, 51, 100
1, 2832, Note_on_c, 0, 54, 100
1, 2856, Note_off_c, 0, 54, 100
1, 2856, Note_on_c, 0, 58, 100
1, 2880, Note_off_c, 0, 58, 100
1, 2880, Note_on_c, 0, 63, 100
1, 2928, Note_off_c, 0, 63, 100
1, 2928, Note_on_c, 0, 61, 100
1, 2976, Note_off_c, 0, 61, 100
1, 2976, Note_on_c, 0, 58, 100
1, 3024, Note_off_c, 0, 58, 100
1, 3024, Note_on_c, 0, 54, 100
1, 3072, Note_off_c, 0, 54, 100
1, 3072, Note_on_c, 0, 53, 100
1, 3216, Note_off_c, 0, 53, 100
1, 3216, Note_on_c, 0, 56, 100
1, 3328, Note_off_c, 0, 56, 100
1, 3328, Note_on_c, 0, 63, 100
1, 3392, Note_off_c, 0, 63, 100
1, 3392, Note_on_c, 0, 61, 100
1, 3504, Note_off_c, 0, 61, 100
1, 3504, Note_on_c, 0, 60, 100
1, 3600, Note_off_c, 0, 60, 100
1, 3600, Note_on_c, 0, 58, 100
1, 3724, Note_off_c, 0, 58, 100
1, 3724, Note_on_c, 0, 52, 100
1, 3762, Note_off_c, 0, 52, 100
1, 3762, Note_on_c, 0, 53, 100
1, 3800, Note_off_c, 0, 53, 100
1, 3800, Note_on_c, 0, 51, 100
1, 4126, Note_off_c, 0, 51, 100
1, 4126, Note_on_c, 0, 54, 100
1, 4222, Note_off_c, 0, 54, 100
1, 4222, Note_on_c, 0, 58, 100
1, 4286, Note_off_c, 0, 58, 100
1, 4286, Note_on_c, 0, 61, 100
1, 4350, Note_off_c, 0, 61, 100
1, 4350, Note_on_c, 0, 58, 100
1, 4414, Note_off_c, 0, 58, 100
1, 4414, Note_on_c, 0, 56, 100
1, 4462, Note_off_c, 0, 56, 100
1, 4462, Note_on_c, 0, 54, 100
1, 4510, Note_off_c, 0, 54, 100
1, 4510, Note_on_c, 0, 49, 100
1, 4558, Note_off_c, 0, 49, 100
1, 4558, Note_on_c, 0, 51, 100
1, 4606, Note_off_c, 0, 51, 100
1, 4606, Note_on_c, 0, 53, 100
1, 4894, Note_off_c, 0, 53, 100
1, 4894, Note_on_c, 0, 53, 100
1, 4990, Note_off_c, 0, 53, 100
1, 4990, Note_on_c, 0, 54, 100
1, 5054, Note_off_c, 0, 54, 100
1, 5054, Note_on_c, 0, 53, 100
1, 5118, Note_off_c, 0, 53, 100
1, 5118, Note_on_c, 0, 57, 100
1, 5182, Note_off_c, 0, 57, 100
1, 5182, Note_on_c, 0, 61, 100
1, 5246, Note_off_c, 0, 61, 100
1, 5246, Note_on_c, 0, 53, 100
1, 5310, Note_off_c, 0, 53, 100
1, 5310, Note_on_c, 0, 57, 100
1, 5422, Note_off_c, 0, 57, 100
1, 5422, Note_on_c, 0, 60, 100
1, 5518, Note_off_c, 0, 60, 100
1, 5518, Note_on_c, 0, 59, 100
1, 5566, Note_off_c, 0, 59, 100
1, 5566, Note_on_c, 0, 58, 100
1, 5662, Note_off_c, 0, 58, 100
1, 5662, Note_on_c, 0, 53, 100
1, 5806, Note_off_c, 0, 53, 100
1, 5806, Note_on_c, 0, 59, 100
1, 5902, Note_off_c, 0, 59, 100
1, 5902, Note_on_c, 0, 58, 100
1, 5950, Note_off_c, 0, 58, 100
1, 5950, Note_on_c, 0, 57, 100
1, 6014, Note_off_c, 0, 57, 100
1, 6014, Note_on_c, 0, 52, 100
1, 6078, Note_off_c, 0, 52, 100
1, 6078, Note_on_c, 0, 54, 100
1, 6142, Note_off_c, 0, 54, 100
1, 6142, Note_on_c, 0, 56, 100
1, 6430, Note_off_c, 0, 56, 100
1, 6430, Note_on_c, 0, 53, 100
1, 6478, Note_off_c, 0, 53, 100
1, 6478, Note_on_c, 0, 52, 100
1, 6526, Note_off_c, 0, 52, 100
1, 6526, Note_on_c, 0, 51, 100
1, 6574, Note_off_c, 0, 51, 100
1, 6574, Note_on_c, 0, 56, 100
1, 6622, Note_off_c, 0, 56, 100
1, 6622, Note_on_c, 0, 59, 100
1, 6670, Note_off_c, 0, 59, 100
1, 6670, Note_on_c, 0, 51, 100
1, 6718, Note_off_c, 0, 51, 100
1, 6718, Note_on_c, 0, 50, 100
1, 7006, Note_off_c, 0, 50, 100
1, 7006, Note_on_c, 0, 51, 100
1, 7054, Note_off_c, 0, 51, 100
1, 7054, Note_on_c, 0, 53, 100
1, 7102, Note_off_c, 0, 53, 100
1, 7102, Note_on_c, 0, 54, 100
1, 7150, Note_off_c, 0, 54, 100
1, 7150, Note_on_c, 0, 56, 100
1, 7198, Note_off_c, 0, 56, 100
1, 7198, Note_on_c, 0, 58, 100
1, 7246, Note_off_c, 0, 58, 100
1, 7246, Note_on_c, 0, 61, 100
1, 7294, Note_off_c, 0, 61, 100
1, 7294, Note_on_c, 0, 65, 100
1, 7342, Note_off_c, 0, 65, 100
1, 7342, Note_on_c, 0, 63, 100
1, 7390, Note_off_c, 0, 63, 100
1, 7390, Note_on_c, 0, 62, 100
1, 7438, Note_off_c, 0, 62, 100
1, 7438, Note_on_c, 0, 65, 100
1, 7486, Note_off_c, 0, 65, 100
1, 7486, Note_on_c, 0, 68, 100
1, 7550, Note_off_c, 0, 68, 100
1, 7550, Note_on_c, 0, 71, 100
1, 7614, Note_off_c, 0, 71, 100
1, 7614, Note_on_c, 0, 69, 100
1, 7678, Note_off_c, 0, 69, 100
1, 7678, Note_on_c, 0, 70, 100
1, 7742, Note_off_c, 0, 70, 100
1, 7742, Note_on_c, 0, 66, 100
1, 7774, Note_off_c, 0, 66, 100
1, 7774, Note_on_c, 0, 65, 100
1, 7806, Note_off_c, 0, 65, 100
1, 7806, Note_on_c, 0, 64, 100
1, 7838, Note_off_c, 0, 64, 100
1, 7838, Note_on_c, 0, 63, 100
1, 7870, Note_off_c, 0, 63, 100
1, 7870, Note_on_c, 0, 62, 100
1, 7918, Note_off_c, 0, 62, 100
1, 7918, Note_on_c, 0, 70, 100
1, 7966, Note_off_c, 0, 70, 100
1, 7966, Note_on_c, 0, 66, 100
1, 8014, Note_off_c, 0, 66, 100
1, 8014, Note_on_c, 0, 62, 100
1, 8086, Note_off_c, 0, 62, 100
1, 8086, Note_on_c, 0, 61, 100
1, 8134, Note_off_c, 0, 61, 100
1, 8134, Note_on_c, 0, 58, 100
1, 8182, Note_off_c, 0, 58, 100
1, 8182, Note_on_c, 0, 54, 100
1, 8206, Note_off_c, 0, 54, 100
1, 8206, Note_on_c, 0, 51, 100
1, 8230, Note_off_c, 0, 51, 100
1, 8230, Note_on_c, 0, 49, 100
1, 8254, Note_off_c, 0, 49, 100
1, 8254, Note_on_c, 0, 48, 100
1, 8330, Note_off_c, 0, 48, 100
1, 8330, Note_on_c, 0, 56, 100
1, 8368, Note_off_c, 0, 56, 100
1, 8368, Note_on_c, 0, 54, 100
1, 8406, Note_off_c, 0, 54, 100
1, 8406, Note_on_c, 0, 53, 100
1, 8636, Note_off_c, 0, 53, 100
1, 8636, Note_on_c, 0, 56, 100
1, 8684, Note_off_c, 0, 56, 100
1, 8684, Note_on_c, 0, 58, 100
1, 8732, Note_off_c, 0, 58, 100
1, 8732, Note_on_c, 0, 60, 100
1, 8780, Note_off_c, 0, 60, 100
1, 8780, Note_on_c, 0, 63, 100
1, 8876, Note_off_c, 0, 63, 100
1, 8876, Note_on_c, 0, 60, 100
1, 8924, Note_off_c, 0, 60, 100
1, 8924, Note_on_c, 0, 61, 100
1, 8972, Note_off_c, 0, 61, 100
1, 8972, Note_on_c, 0, 63, 100
1, 9020, Note_off_c, 0, 63, 100
1, 9020, Note_on_c, 0, 65, 100
1, 9116, Note_off_c, 0, 65, 100
1, 9116, Note_on_c, 0, 68, 100
1, 9164, Note_off_c, 0, 68, 100
1, 9164, Note_on_c, 0, 66, 100
1, 9212, Note_off_c, 0, 66, 100
1, 9212, Note_on_c, 0, 65, 100
1, 9260, Note_off_c, 0, 65, 100
1, 9260, Note_on_c, 0, 66, 100
1, 9308, Note_off_c, 0, 66, 100
1, 9308, Note_on_c, 0, 68, 100
1, 9356, Note_off_c, 0, 68, 100
1, 9356, Note_on_c, 0, 70, 100
1, 9404, Note_off_c, 0, 70, 100
1, 9404, Note_on_c, 0, 72, 100
1, 9500, Note_off_c, 0, 72, 100
1, 9500, Note_on_c, 0, 65, 100
1, 9596, Note_off_c, 0, 65, 100
1, 9596, Note_on_c, 0, 64, 100
1, 9644, Note_off_c, 0, 64, 100
1, 9644, Note_on_c, 0, 66, 100
1, 9692, Note_off_c, 0, 66, 100
1, 9692, Note_on_c, 0, 67, 100
1, 9740, Note_off_c, 0, 67, 100
1, 9740, Note_on_c, 0, 69, 100
1, 9788, Note_off_c, 0, 69, 100
1, 9788, Note_on_c, 0, 71, 100
1, 9884, Note_off_c, 0, 71, 100
1, 9884, Note_on_c, 0, 64, 100
1, 9980, Note_off_c, 0, 64, 100
1, 9980, Note_on_c, 0, 63, 100
1, 10044, Note_off_c, 0, 63, 100
1, 10044, Note_on_c, 0, 65, 100
1, 10108, Note_off_c, 0, 65, 100
1, 10108, Note_on_c, 0, 66, 100
1, 10172, Note_off_c, 0, 66, 100
1, 10172, Note_on_c, 0, 68, 100
1, 10220, Note_off_c, 0, 68, 100
1, 10220, Note_on_c, 0, 70, 100
1, 10460, Note_off_c, 0, 70, 100
1, 10460, Note_on_c, 0, 68, 100
1, 10508, Note_off_c, 0, 68, 100
1, 10508, Note_on_c, 0, 66, 100
1, 10556, Note_off_c, 0, 66, 100
1, 10556, Note_on_c, 0, 62, 100
1, 10583, Note_off_c, 0, 62, 100
1, 10583, Note_on_c, 0, 65, 100
1, 10610, Note_off_c, 0, 65, 100
1, 10610, Note_on_c, 0, 63, 100
1, 10637, Note_off_c, 0, 63, 100
1, 10637, Note_on_c, 0, 61, 100
1, 10664, Note_off_c, 0, 61, 100
1, 10664, Note_on_c, 0, 58, 100
1, 10718, Note_off_c, 0, 58, 100
1, 10718, Note_on_c, 0, 54, 100
1, 10745, Note_off_c, 0, 54, 100
1, 10745, Note_on_c, 0, 53, 100
1, 10793, Note_off_c, 0, 53, 100
1, 10793, Note_on_c, 0, 57, 100
1, 10841, Note_off_c, 0, 57, 100
1, 10841, Note_on_c, 0, 60, 100
1, 10889, Note_off_c, 0, 60, 100
1, 10889, Note_on_c, 0, 62, 100
1, 10937, Note_off_c, 0, 62, 100
1, 10937, Note_on_c, 0, 63, 100
1, 10985, Note_off_c, 0, 63, 100
1, 10985, Note_on_c, 0, 65, 100
1, 11033, Note_off_c, 0, 65, 100
1, 11033, Note_on_c, 0, 67, 100
1, 11081, Note_off_c, 0, 67, 100
1, 11081, Note_on_c, 0, 63, 100
1, 11129, Note_off_c, 0, 63, 100
1, 11129, Note_on_c, 0, 59, 100
1, 11177, Note_off_c, 0, 59, 100
1, 11177, Note_on_c, 0, 62, 100
1, 11225, Note_off_c, 0, 62, 100
1, 11225, Note_on_c, 0, 60, 100
1, 11273, Note_off_c, 0, 60, 100
1, 11273, Note_on_c, 0, 58, 100
1, 11321, Note_off_c, 0, 58, 100
1, 11321, Note_on_c, 0, 57, 100
1, 11369, Note_off_c, 0, 57, 100
1, 11369, Note_on_c, 0, 54, 100
1, 11417, Note_off_c, 0, 54, 100
1, 11417, Note_on_c, 0, 53, 100
1, 11465, Note_off_c, 0, 53, 100
1, 11465, Note_on_c, 0, 51, 100
1, 11561, Note_off_c, 0, 51, 100
1, 11753, Note_on_c, 0, 56, 100
1, 11849, Note_off_c, 0, 56, 100
1, 11849, Note_on_c, 0, 55, 100
1, 11945, Note_off_c, 0, 55, 100
1, 11945, Note_on_c, 0, 64, 100
1, 11993, Note_off_c, 0, 64, 100
1, 11993, Note_on_c, 0, 61, 100
1, 12041, Note_off_c, 0, 61, 100
1, 12041, Note_on_c, 0, 55, 100
1, 12089, Note_off_c, 0, 55, 100
1, 12089, Note_on_c, 0, 54, 100
1, 12137, Note_off_c, 0, 54, 100
1, 12137, Note_on_c, 0, 63, 100
1, 12185, Note_off_c, 0, 63, 100
1, 12185, Note_on_c, 0, 60, 100
1, 12233, Note_off_c, 0, 60, 100
1, 12233, Note_on_c, 0, 54, 100
1, 12281, Note_off_c, 0, 54, 100
1, 12281, Note_on_c, 0, 53, 100
1, 12537, Note_off_c, 0, 53, 100
1, 12537, Note_on_c, 0, 57, 100
1, 12761, Note_off_c, 0, 57, 100
1, 12761, Note_on_c, 0, 66, 100
1, 12857, Note_off_c, 0, 66, 100
1, 12857, Note_on_c, 0, 64, 100
1, 12905, Note_off_c, 0, 64, 100
1, 12905, Note_on_c, 0, 62, 100
1, 12953, Note_off_c, 0, 62, 100
1, 12953, Note_on_c, 0, 61, 100
1, 13001, Note_off_c, 0, 61, 100
1, 13001, Note_on_c, 0, 55, 100
1, 13049, Note_off_c, 0, 55, 100
1, 13049, Note_on_c, 0, 54, 100
1, 13145, Note_off_c, 0, 54, 100
1, 13145, Note_on_c, 0, 57, 100
1, 13193, Note_off_c, 0, 57, 100
1, 13193, Note_on_c, 0, 59, 100
1, 13241, Note_off_c, 0, 59, 100
1, 13241, Note_on_c, 0, 64, 100
1, 13289, Note_off_c, 0, 64, 100
1, 13289, Note_on_c, 0, 62, 100
1, 13337, Note_off_c, 0, 62, 100
1, 13337, Note_on_c, 0, 57, 100
1, 13385, Note_off_c, 0, 57, 100
1, 13385, Note_on_c, 0, 55, 100
1, 13433, Note_off_c, 0, 55, 100
1, 13433, Note_on_c, 0, 55, 100
1, 13529, Note_off_c, 0, 55, 100
1, 13529, Note_on_c, 0, 62, 100
1, 13817, Note_off_c, 0, 62, 100
1, 13817, Note_on_c, 0, 57, 100
1, 13913, Note_off_c, 0, 57, 100
1, 13913, Note_on_c, 0, 58, 100
1, 13961, Note_off_c, 0, 58, 100
1, 13961, Note_on_c, 0, 61, 100
1, 14009, Note_off_c, 0, 61, 100
1, 14009, Note_on_c, 0, 64, 100
1, 14057, Note_off_c, 0, 64, 100
1, 14057, Note_on_c, 0, 61, 100
1, 14105, Note_off_c, 0, 61, 100
1, 14105, Note_on_c, 0, 62, 100
1, 14153, Note_off_c, 0, 62, 100
1, 14153, Note_on_c, 0, 66, 100
1, 14249, Note_off_c, 0, 66, 100
1, 14249, Note_on_c, 0, 69, 100
1, 14297, Note_off_c, 0, 69, 100
1, 14297, Note_on_c, 0, 67, 100
1, 14345, Note_off_c, 0, 67, 100
1, 14345, Note_on_c, 0, 62, 100
1, 14393, Note_off_c, 0, 62, 100
1, 14393, Note_on_c, 0, 60, 100
1, 14489, Note_off_c, 0, 60, 100
1, 14489, Note_on_c, 0, 58, 100
1, 14537, Note_off_c, 0, 58, 100
1, 14537, Note_on_c, 0, 57, 100
1, 14777, Note_off_c, 0, 57, 100
1, 14777, Note_on_c, 0, 67, 100
1, 14825, Note_off_c, 0, 67, 100
1, 14825, Note_on_c, 0, 65, 100
1, 14873, Note_off_c, 0, 65, 100
1, 14873, Note_on_c, 0, 66, 100
1, 14921, Note_off_c, 0, 66, 100
1, 14921, Note_on_c, 0, 64, 100
1, 14969, Note_off_c, 0, 64, 100
1, 14969, Note_on_c, 0, 65, 100
1, 15017, Note_off_c, 0, 65, 100
1, 15017, Note_on_c, 0, 62, 100
1, 15065, Note_off_c, 0, 62, 100
1, 15065, Note_on_c, 0, 59, 100
1, 15113, Note_off_c, 0, 59, 100
1, 15113, Note_on_c, 0, 56, 100
1, 15161, Note_off_c, 0, 56, 100
1, 15161, Note_on_c, 0, 55, 100
1, 15209, Note_off_c, 0, 55, 100
1, 15209, Note_on_c, 0, 64, 100
1, 15257, Note_off_c, 0, 64, 100
1, 15257, Note_on_c, 0, 61, 100
1, 15305, Note_off_c, 0, 61, 100
1, 15305, Note_on_c, 0, 55, 100
1, 15353, Note_off_c, 0, 55, 100
1, 15353, Note_on_c, 0, 54, 100
1, 15449, Note_off_c, 0, 54, 100
1, 15449, Note_on_c, 0, 57, 100
1, 15497, Note_off_c, 0, 57, 100
1, 15497, Note_on_c, 0, 59, 100
1, 15545, Note_off_c, 0, 59, 100
1, 15545, Note_on_c, 0, 64, 100
1, 15599, Note_off_c, 0, 64, 100
1, 15599, Note_on_c, 0, 59, 100
1, 15626, Note_off_c, 0, 59, 100
1, 15626, Note_on_c, 0, 62, 100
1, 15653, Note_off_c, 0, 62, 100
1, 15653, Note_on_c, 0, 63, 100
1, 15680, Note_off_c, 0, 63, 100
1, 15680, Note_on_c, 0, 62, 100
1, 15707, Note_off_c, 0, 62, 100
1, 15707, Note_on_c, 0, 59, 100
1, 15734, Note_off_c, 0, 59, 100
1, 15734, Note_on_c, 0, 57, 100
1, 16022, Note_off_c, 0, 57, 100
1, 16022, Note_on_c, 0, 71, 100
1, 16118, Note_off_c, 0, 71, 100
1, 16118, Note_on_c, 0, 74, 100
1, 16150, Note_off_c, 0, 74, 100
1, 16150, Note_on_c, 0, 73, 100
1, 16182, Note_off_c, 0, 73, 100
1, 16182, Note_on_c, 0, 72, 100
1, 16214, Note_off_c, 0, 72, 100
1, 16214, Note_on_c, 0, 71, 100
1, 16278, Note_off_c, 0, 71, 100
1, 16278, Note_on_c, 0, 69, 100
1, 16310, Note_off_c, 0, 69, 100
1, 16310, Note_on_c, 0, 67, 100
1, 16358, Note_off_c, 0, 67, 100
1, 16358, Note_on_c, 0, 66, 100
1, 16406, Note_off_c, 0, 66, 100
1, 16406, Note_on_c, 0, 65, 100
1, 16454, Note_off_c, 0, 65, 100
1, 16454, Note_on_c, 0, 64, 100
1, 16502, Note_off_c, 0, 64, 100
1, 16502, Note_on_c, 0, 62, 100
1, 16550, Note_off_c, 0, 62, 100
1, 16550, Note_on_c, 0, 61, 100
1, 16598, Note_off_c, 0, 61, 100
1, 16598, Note_on_c, 0, 58, 100
1, 16646, Note_off_c, 0, 58, 100
1, 16646, Note_on_c, 0, 57, 100
1, 16694, Note_off_c, 0, 57, 100
1, 16694, Note_on_c, 0, 56, 100
1, 16742, Note_off_c, 0, 56, 100
1, 16742, Note_on_c, 0, 53, 100
1, 16790, Note_off_c, 0, 53, 100
1, 16790, Note_on_c, 0, 51, 100
1, 16934, Note_off_c, 0, 51, 100
1, 16934, Note_on_c, 0, 55, 100
1, 16982, Note_off_c, 0, 55, 100
1, 16982, Note_on_c, 0, 52, 100
1, 17030, Note_off_c, 0, 52, 100
1, 17030, Note_on_c, 0, 53, 100
1, 17054, Note_off_c, 0, 53, 100
1, 17054, Note_on_c, 0, 55, 100
1, 17078, Note_off_c, 0, 55, 100
1, 17078, Note_on_c, 0, 57, 100
1, 17126, Note_off_c, 0, 57, 100
1, 17126, Note_on_c, 0, 59, 100
1, 17174, Note_off_c, 0, 59, 100
1, 17174, Note_on_c, 0, 62, 100
1, 17222, Note_off_c, 0, 62, 100
1, 17222, Note_on_c, 0, 59, 100
1, 17270, Note_off_c, 0, 59, 100
1, 17270, Note_on_c, 0, 60, 100
1, 17318, Note_off_c, 0, 60, 100
1, 17318, Note_on_c, 0, 57, 100
1, 17366, Note_off_c, 0, 57, 100
1, 17366, Note_on_c, 0, 55, 100
1, 17414, Note_off_c, 0, 55, 100
1, 17414, Note_on_c, 0, 52, 100
1, 17462, Note_off_c, 0, 52, 100
1, 17462, Note_on_c, 0, 54, 100
1, 17558, Note_off_c, 0, 54, 100
1, 17558, Note_on_c, 0, 63, 100
1, 17726, Note_off_c, 0, 63, 100
1, 17726, Note_on_c, 0, 68, 100
1, 17750, Note_off_c, 0, 68, 100
1, 17750, Note_on_c, 0, 66, 100
1, 17774, Note_off_c, 0, 66, 100
1, 17774, Note_on_c, 0, 65, 100
1, 17822, Note_off_c, 0, 65, 100
1, 17822, Note_on_c, 0, 62, 100
1, 17846, Note_off_c, 0, 62, 100
1, 17846, Note_on_c, 0, 61, 100
1, 17894, Note_off_c, 0, 61, 100
1, 17894, Note_on_c, 0, 65, 100
1, 17942, Note_off_c, 0, 65, 100
1, 17942, Note_on_c, 0, 69, 100
1, 17990, Note_off_c, 0, 69, 100
1, 17990, Note_on_c, 0, 73, 100
1, 18038, Note_off_c, 0, 73, 100
1, 18038, Note_on_c, 0, 72, 100
1, 18086, Note_off_c, 0, 72, 100
1, 18086, Note_on_c, 0, 65, 100
1, 18134, Note_off_c, 0, 65, 100
1, 18134, Note_on_c, 0, 69, 100
1, 18182, Note_off_c, 0, 69, 100
1, 18182, Note_on_c, 0, 72, 100
1, 18230, Note_off_c, 0, 72, 100
1, 18230, Note_on_c, 0, 59, 100
1, 18326, Note_off_c, 0, 59, 100
1, 18326, Note_on_c, 0, 62, 100
1, 18374, Note_off_c, 0, 62, 100
1, 18374, Note_on_c, 0, 65, 100
1, 18422, Note_off_c, 0, 65, 100
1, 18422, Note_on_c, 0, 67, 100
1, 18470, Note_off_c, 0, 67, 100
1, 18470, Note_on_c, 0, 65, 100
1, 18518, Note_off_c, 0, 65, 100
1, 18518, Note_on_c, 0, 64, 100
1, 18566, Note_off_c, 0, 64, 100
1, 18566, Note_on_c, 0, 55, 100
1, 18614, Note_off_c, 0, 55, 100
1, 18614, Note_on_c, 0, 54, 100
1, 18662, Note_off_c, 0, 54, 100
1, 18662, Note_on_c, 0, 63, 100
1, 18710, Note_off_c, 0, 63, 100
1, 18710, Note_on_c, 0, 59, 100
1, 18758, Note_off_c, 0, 59, 100
1, 18758, Note_on_c, 0, 51, 100
1, 18806, Note_off_c, 0, 51, 100
1, 18806, Note_on_c, 0, 50, 100
1, 18950, Note_off_c, 0, 50, 100
1, 18950, Note_on_c, 0, 56, 100
1, 19046, Note_off_c, 0, 56, 100
1, 19046, Note_on_c, 0, 58, 100
1, 19094, Note_off_c, 0, 58, 100
1, 19094, Note_on_c, 0, 59, 100
1, 19142, Note_off_c, 0, 59, 100
1, 19142, Note_on_c, 0, 61, 100
1, 19190, Note_off_c, 0, 61, 100
1, 19190, Note_on_c, 0, 62, 100
1, 19238, Note_off_c, 0, 62, 100
1, 19238, Note_on_c, 0, 65, 100
1, 19286, Note_off_c, 0, 65, 100
1, 19286, Note_on_c, 0, 63, 100
1, 19334, Note_off_c, 0, 63, 100
1, 19334, Note_on_c, 0, 61, 100
1, 19382, Note_off_c, 0, 61, 100
1, 19382, Note_on_c, 0, 58, 100
1, 19646, Note_off_c, 0, 58, 100
1, 19646, Note_on_c, 0, 63, 100
1, 19694, Note_off_c, 0, 63, 100
1, 19694, Note_on_c, 0, 62, 100
1, 19718, Note_off_c, 0, 62, 100
1, 19718, Note_on_c, 0, 66, 100
1, 19742, Note_off_c, 0, 66, 100
1, 19742, Note_on_c, 0, 70, 100
1, 19766, Note_off_c, 0, 70, 100
1, 19766, Note_on_c, 0, 62, 100
1, 20054, Note_off_c, 0, 62, 100
1, 20054, Note_on_c, 0, 61, 100
1, 20102, Note_off_c, 0, 61, 100
1, 20102, Note_on_c, 0, 58, 100
1, 20150, Note_off_c, 0, 58, 100
1, 20150, Note_on_c, 0, 56, 100
1, 20174, Note_off_c, 0, 56, 100
1, 20174, Note_on_c, 0, 58, 100
1, 20198, Note_off_c, 0, 58, 100
1, 20198, Note_on_c, 0, 56, 100
1, 20222, Note_off_c, 0, 56, 100
1, 20222, Note_on_c, 0, 54, 100
1, 20270, Note_off_c, 0, 54, 100
1, 20270, Note_on_c, 0, 51, 100
1, 20318, Note_off_c, 0, 51, 100
1, 20318, Note_on_c, 0, 49, 100
1, 20342, Note_off_c, 0, 49, 100
1, 20342, Note_on_c, 0, 48, 100
1, 20374, Note_off_c, 0, 48, 100
1, 20374, Note_on_c, 0, 54, 100
1, 20406, Note_off_c, 0, 54, 100
1, 20406, Note_on_c, 0, 56, 100
1, 20470, Note_off_c, 0, 56, 100
1, 20470, Note_on_c, 0, 54, 100
1, 20502, Note_off_c, 0, 54, 100
1, 20502, Note_on_c, 0, 58, 100
1, 20534, Note_off_c, 0, 58, 100
1, 20534, Note_on_c, 0, 55, 100
1, 20566, Note_off_c, 0, 55, 100
1, 20566, Note_on_c, 0, 56, 100
1, 20598, Note_off_c, 0, 56, 100
1, 20598, Note_on_c, 0, 60, 100
1, 20630, Note_off_c, 0, 60, 100
1, 20630, Note_on_c, 0, 57, 100
1, 20662, Note_off_c, 0, 57, 100
1, 20662, Note_on_c, 0, 54, 100
1, 20694, Note_off_c, 0, 54, 100
1, 20694, Note_on_c, 0, 58, 100
1, 20726, Note_off_c, 0, 58, 100
1, 20726, Note_on_c, 0, 54, 100
1, 20774, Note_off_c, 0, 54, 100
1, 20774, Note_on_c, 0, 53, 100
1, 21014, Note_off_c, 0, 53, 100
1, 21014, Note_on_c, 0, 56, 100
1, 21062, Note_off_c, 0, 56, 100
1, 21062, Note_on_c, 0, 53, 100
1, 21110, Note_off_c, 0, 53, 100
1, 21110, Note_on_c, 0, 54, 100
1, 21148, Note_off_c, 0, 54, 100
1, 21148, Note_on_c, 0, 58, 100
1, 21186, Note_off_c, 0, 58, 100
1, 21186, Note_on_c, 0, 63, 100
1, 21224, Note_off_c, 0, 63, 100
1, 21224, Note_on_c, 0, 61, 100
1, 21262, Note_off_c, 0, 61, 100
1, 21262, Note_on_c, 0, 58, 100
1, 21300, Note_off_c, 0, 58, 100
1, 21300, Note_on_c, 0, 54, 100
1, 21444, Note_off_c, 0, 54, 100
1, 21444, Note_on_c, 0, 52, 100
1, 21468, Note_off_c, 0, 52, 100
1, 21468, Note_on_c, 0, 53, 100
1, 21492, Note_off_c, 0, 53, 100
1, 21492, Note_on_c, 0, 56, 100
1, 21540, Note_off_c, 0, 56, 100
1, 21540, Note_on_c, 0, 61, 100
1, 21588, Note_off_c, 0, 61, 100
1, 21588, Note_on_c, 0, 60, 100
1, 21636, Note_off_c, 0, 60, 100
1, 21636, Note_on_c, 0, 56, 100
1, 21684, Note_off_c, 0, 56, 100
1, 21684, Note_on_c, 0, 53, 100
1, 21828, Note_off_c, 0, 53, 100
1, 21828, Note_on_c, 0, 51, 100
1, 21876, Note_off_c, 0, 51, 100
1, 21876, Note_on_c, 0, 52, 100
1, 21908, Note_off_c, 0, 52, 100
1, 21908, Note_on_c, 0, 55, 100
1, 21940, Note_off_c, 0, 55, 100
1, 21940, Note_on_c, 0, 61, 100
1, 21972, Note_off_c, 0, 61, 100
1, 21972, Note_on_c, 0, 59, 100
1, 22036, Note_off_c, 0, 59, 100
1, 22036, Note_on_c, 0, 55, 100
1, 22068, Note_off_c, 0, 55, 100
1, 22068, Note_on_c, 0, 52, 100
1, 22342, Note_off_c, 0, 52, 100
1, 22342, Note_on_c, 0, 51, 100
1, 22369, Note_off_c, 0, 51, 100
1, 22369, Note_on_c, 0, 54, 100
1, 22396, Note_off_c, 0, 54, 100
1, 22396, Note_on_c, 0, 58, 100
1, 22423, Note_off_c, 0, 58, 100
1, 22423, Note_on_c, 0, 61, 100
1, 22450, Note_off_c, 0, 61, 100
1, 22450, Note_on_c, 0, 65, 100
1, 22498, Note_off_c, 0, 65, 100
1, 22498, Note_on_c, 0, 63, 100
1, 22546, Note_off_c, 0, 63, 100
1, 22546, Note_on_c, 0, 61, 100
1, 22594, Note_off_c, 0, 61, 100
1, 22594, Note_on_c, 0, 58, 100
1, 22834, Note_off_c, 0, 58, 100
1, 22834, Note_on_c, 0, 56, 100
1, 22861, Note_off_c, 0, 56, 100
1, 22861, Note_on_c, 0, 58, 100
1, 22888, Note_off_c, 0, 58, 100
1, 22888, Note_on_c, 0, 56, 100
1, 22915, Note_off_c, 0, 56, 100
1, 22915, Note_on_c, 0, 54, 100
1, 22942, Note_off_c, 0, 54, 100
1, 22942, Note_on_c, 0, 51, 100
1, 22996, Note_off_c, 0, 51, 100
1, 22996, Note_on_c, 0, 49, 100
1, 23023, Note_off_c, 0, 49, 100
1, 23023, Note_on_c, 0, 48, 100
1, 23119, Note_off_c, 0, 48, 100
1, 23119, Note_on_c, 0, 54, 100
1, 23167, Note_off_c, 0, 54, 100
1, 23167, Note_on_c, 0, 53, 100
1, 23471, Note_off_c, 0, 53, 100
1, 23471, Note_on_c, 0, 57, 100
1, 23535, Note_off_c, 0, 57, 100
1, 23535, Note_on_c, 0, 60, 100
1, 23599, Note_off_c, 0, 60, 100
1, 23599, Note_on_c, 0, 61, 100
1, 23695, Note_off_c, 0, 61, 100
1, 23695, Note_on_c, 0, 53, 100
1, 23743, Note_off_c, 0, 53, 100
1, 23743, Note_on_c, 0, 57, 100
1, 23791, Note_off_c, 0, 57, 100
1, 23791, Note_on_c, 0, 60, 100
1, 23887, Note_off_c, 0, 60, 100
1, 23887, Note_on_c, 0, 58, 100
1, 23935, Note_off_c, 0, 58, 100
1, 23935, Note_on_c, 0, 65, 100
1, 24239, Note_off_c, 0, 65, 100
1, 24239, Note_on_c, 0, 59, 100
1, 24303, Note_off_c, 0, 59, 100
1, 24303, Note_on_c, 0, 57, 100
1, 24367, Note_off_c, 0, 57, 100
1, 24367, Note_on_c, 0, 64, 100
1, 24511, Note_off_c, 0, 64, 100
1, 24511, Note_on_c, 0, 58, 100
1, 24607, Note_off_c, 0, 58, 100
1, 24607, Note_on_c, 0, 56, 100
1, 24655, Note_off_c, 0, 56, 100
1, 24655, Note_on_c, 0, 63, 100
1, 25007, Note_off_c, 0, 63, 100
1, 25007, Note_on_c, 0, 62, 100
1, 25071, Note_off_c, 0, 62, 100
1, 25071, Note_on_c, 0, 65, 100
1, 25135, Note_off_c, 0, 65, 100
1, 25135, Note_on_c, 0, 68, 100
1, 25231, Note_off_c, 0, 68, 100
1, 25231, Note_on_c, 0, 71, 100
1, 25279, Note_off_c, 0, 71, 100
1, 25279, Note_on_c, 0, 69, 100
1, 25327, Note_off_c, 0, 69, 100
1, 25327, Note_on_c, 0, 70, 100
1, 25391, Note_off_c, 0, 70, 100
1, 25391, Note_on_c, 0, 75, 100
1, 25455, Note_off_c, 0, 75, 100
1, 25455, Note_on_c, 0, 68, 100
1, 25759, Note_off_c, 0, 68, 100
1, 25759, Note_on_c, 0, 66, 100
1, 25807, Note_off_c, 0, 66, 100
1, 25807, Note_on_c, 0, 65, 100
1, 25855, Note_off_c, 0, 65, 100
1, 25855, Note_on_c, 0, 72, 100
1, 25903, Note_off_c, 0, 72, 100
1, 25903, Note_on_c, 0, 63, 100
1, 26191, Note_off_c, 0, 63, 100
1, 26191, Note_on_c, 0, 61, 100
1, 26239, Note_off_c, 0, 61, 100
1, 26239, Note_on_c, 0, 62, 100
1, 26287, Note_off_c, 0, 62, 100
1, 26287, Note_on_c, 0, 65, 100
1, 26335, Note_off_c, 0, 65, 100
1, 26335, Note_on_c, 0, 63, 100
1, 26383, Note_off_c, 0, 63, 100
1, 26383, Note_on_c, 0, 62, 100
1, 26431, Note_off_c, 0, 62, 100
1, 26431, Note_on_c, 0, 59, 100
1, 26479, Note_off_c, 0, 59, 100
1, 26479, Note_on_c, 0, 58, 100
1, 26527, Note_off_c, 0, 58, 100
1, 26527, Note_on_c, 0, 56, 100
1, 26575, Note_off_c, 0, 56, 100
1, 26575, Note_on_c, 0, 54, 100
1, 26623, Note_off_c, 0, 54, 100
1, 26623, Note_on_c, 0, 53, 100
1, 26671, Note_off_c, 0, 53, 100
1, 26671, Note_on_c, 0, 51, 100
1, 26719, Note_off_c, 0, 51, 100
1, 26719, Note_on_c, 0, 50, 100
1, 26767, Note_off_c, 0, 50, 100
1, 26767, Note_on_c, 0, 59, 100
1, 26815, Note_off_c, 0, 59, 100
1, 26815, Note_on_c, 0, 57, 100
1, 26863, Note_off_c, 0, 57, 100
1, 26863, Note_on_c, 0, 56, 100
1, 27151, Note_off_c, 0, 56, 100
1, 27151, Note_on_c, 0, 61, 100
1, 27199, Note_off_c, 0, 61, 100
1, 27199, Note_on_c, 0, 65, 100
1, 27295, Note_off_c, 0, 65, 100
1, 27295, Note_on_c, 0, 68, 100
1, 27343, Note_off_c, 0, 68, 100
1, 27343, Note_on_c, 0, 66, 100
1, 27391, Note_off_c, 0, 66, 100
1, 27391, Note_on_c, 0, 63, 100
1, 27439, Note_off_c, 0, 63, 100
1, 27439, Note_on_c, 0, 61, 100
1, 27535, Note_off_c, 0, 61, 100
1, 27535, Note_on_c, 0, 54, 100
1, 27567, Note_off_c, 0, 54, 100
1, 27567, Note_on_c, 0, 52, 100
1, 27599, Note_off_c, 0, 52, 100
1, 27599, Note_on_c, 0, 53, 100
1, 27727, Note_off_c, 0, 53, 100
1, 27727, Note_on_c, 0, 56, 100
1, 27775, Note_off_c, 0, 56, 100
1, 27775, Note_on_c, 0, 58, 100
1, 27823, Note_off_c, 0, 58, 100
1, 27823, Note_on_c, 0, 60, 100
1, 27871, Note_off_c, 0, 60, 100
1, 27871, Note_on_c, 0, 65, 100
1, 27919, Note_off_c, 0, 65, 100
1, 27919, Note_on_c, 0, 68, 100
1, 27967, Note_off_c, 0, 68, 100
1, 27967, Note_on_c, 0, 72, 100
1, 28015, Note_off_c, 0, 72, 100
1, 28015, Note_on_c, 0, 59, 100
1, 28111, Note_off_c, 0, 59, 100
1, 28111, Note_on_c, 0, 61, 100
1, 28159, Note_off_c, 0, 61, 100
1, 28159, Note_on_c, 0, 64, 100
1, 28207, Note_off_c, 0, 64, 100
1, 28207, Note_on_c, 0, 67, 100
1, 28255, Note_off_c, 0, 67, 100
1, 28255, Note_on_c, 0, 71, 100
1, 28303, Note_off_c, 0, 71, 100
1, 28303, Note_on_c, 0, 66, 100
1, 28351, Note_off_c, 0, 66, 100
1, 28351, Note_on_c, 0, 64, 100
1, 28399, Note_off_c, 0, 64, 100
1, 28399, Note_on_c, 0, 63, 100
1, 28687, Note_off_c, 0, 63, 100
1, 28687, Note_on_c, 0, 66, 100
1, 28735, Note_off_c, 0, 66, 100
1, 28735, Note_on_c, 0, 68, 100
1, 28807, Note_off_c, 0, 68, 100
1, 28807, Note_on_c, 0, 70, 100
1, 28903, Note_off_c, 0, 70, 100
1, 28903, Note_on_c, 0, 66, 100
1, 28927, Note_off_c, 0, 66, 100
1, 28927, Note_on_c, 0, 68, 100
1, 28951, Note_off_c, 0, 68, 100
1, 28951, Note_on_c, 0, 66, 100
1, 28975, Note_off_c, 0, 66, 100
1, 28975, Note_on_c, 0, 63, 100
1, 29023, Note_off_c, 0, 63, 100
1, 29023, Note_on_c, 0, 61, 100
1, 29071, Note_off_c, 0, 61, 100
1, 29071, Note_on_c, 0, 58, 100
1, 29119, Note_off_c, 0, 58, 100
1, 29119, Note_on_c, 0, 54, 100
1, 29167, Note_off_c, 0, 54, 100
1, 29167, Note_on_c, 0, 53, 100
1, 29455, Note_off_c, 0, 53, 100
1, 29455, Note_on_c, 0, 69, 100
1, 29551, Note_off_c, 0, 69, 100
1, 29551, Note_on_c, 0, 74, 100
1, 29578, Note_off_c, 0, 74, 100
1, 29578, Note_on_c, 0, 73, 100
1, 29605, Note_off_c, 0, 73, 100
1, 29605, Note_on_c, 0, 72, 100
1, 29632, Note_off_c, 0, 72, 100
1, 29632, Note_on_c, 0, 71, 100
1, 29659, Note_off_c, 0, 71, 100
1, 29659, Note_on_c, 0, 70, 100
1, 29686, Note_off_c, 0, 70, 100
1, 29686, Note_on_c, 0, 69, 100
1, 29713, Note_off_c, 0, 69, 100
1, 29713, Note_on_c, 0, 72, 100
1, 29740, Note_off_c, 0, 72, 100
1, 29740, Note_on_c, 0, 71, 100
1, 29757, Note_off_c, 0, 71, 100
1, 29757, Note_on_c, 0, 67, 100
1, 29774, Note_off_c, 0, 67, 100
1, 29774, Note_on_c, 0, 66, 100
1, 29808, Note_off_c, 0, 66, 100
1, 29808, Note_on_c, 0, 64, 100
1, 29825, Note_off_c, 0, 64, 100
1, 29825, Note_on_c, 0, 63, 100
1, 29877, Note_off_c, 0, 63, 100
1, 29877, Note_on_c, 0, 60, 100
1, 29894, Note_off_c, 0, 60, 100
1, 29894, Note_on_c, 0, 61, 100
1, 29928, Note_off_c, 0, 61, 100
1, 29928, Note_on_c, 0, 63, 100
1, 29966, Note_off_c, 0, 63, 100
1, 29966, Note_on_c, 0, 60, 100
1, 30004, Note_off_c, 0, 60, 100
1, 30004, Note_on_c, 0, 61, 100
1, 30042, Note_off_c, 0, 61, 100
1, 30042, Note_on_c, 0, 63, 100
1, 30080, Note_off_c, 0, 63, 100
1, 30080, Note_on_c, 0, 65, 100
1, 30262, Note_off_c, 0, 65, 100
1, 30262, Note_on_c, 0, 66, 100
1, 30310, Note_off_c, 0, 66, 100
1, 30310, Note_on_c, 0, 65, 100
1, 30337, Note_off_c, 0, 65, 100
1, 30337, Note_on_c, 0, 64, 100
1, 30364, Note_off_c, 0, 64, 100
1, 30364, Note_on_c, 0, 62, 100
1, 30391, Note_off_c, 0, 62, 100
1, 30391, Note_on_c, 0, 61, 100
1, 30418, Note_off_c, 0, 61, 100
1, 30418, Note_on_c, 0, 59, 100
1, 30445, Note_off_c, 0, 59, 100
1, 30445, Note_on_c, 0, 57, 100
1, 30472, Note_off_c, 0, 57, 100
1, 30472, Note_on_c, 0, 55, 100
1, 30499, Note_off_c, 0, 55, 100
1, 30499, Note_on_c, 0, 54, 100
1, 30523, Note_off_c, 0, 54, 100
1, 30523, Note_on_c, 0, 61, 100
1, 30571, Note_off_c, 0, 61, 100
1, 30571, Note_on_c, 0, 63, 100
1, 30595, Note_off_c, 0, 63, 100
1, 30595, Note_on_c, 0, 65, 100
1, 30619, Note_off_c, 0, 65, 100
1, 30619, Note_on_c, 0, 63, 100
1, 30643, Note_off_c, 0, 63, 100
1, 30643, Note_on_c, 0, 60, 100
1, 30667, Note_off_c, 0, 60, 100
1, 30667, Note_on_c, 0, 58, 100
1, 30691, Note_off_c, 0, 58, 100
1, 30691, Note_on_c, 0, 56, 100
1, 30723, Note_off_c, 0, 56, 100
1, 30723, Note_on_c, 0, 54, 100
1, 30755, Note_off_c, 0, 54, 100
1, 30755, Note_on_c, 0, 53, 100
1, 30787, Note_off_c, 0, 53, 100
1, 30787, Note_on_c, 0, 56, 100
1, 30819, Note_off_c, 0, 56, 100
1, 30819, Note_on_c, 0, 61, 100
1, 30851, Note_off_c, 0, 61, 100
1, 30851, Note_on_c, 0, 65, 100
1, 30883, Note_off_c, 0, 65, 100
1, 30883, Note_on_c, 0, 68, 100
1, 30904, Note_off_c, 0, 68, 100
1, 30904, Note_on_c, 0, 67, 100
1, 30925, Note_off_c, 0, 67, 100
1, 30925, Note_on_c, 0, 64, 100
1, 30967, Note_off_c, 0, 64, 100
1, 30967, Note_on_c, 0, 62, 100
1, 30988, Note_off_c, 0, 62, 100
1, 30988, Note_on_c, 0, 60, 100
1, 31009, Note_off_c, 0, 60, 100
1, 31009, Note_on_c, 0, 59, 100
1, 31030, Note_off_c, 0, 59, 100
1, 31030, Note_on_c, 0, 57, 100
1, 31051, Note_off_c, 0, 57, 100
1, 31051, Note_on_c, 0, 55, 100
1, 31104, Note_off_c, 0, 55, 100
1, 31104, Note_on_c, 0, 54, 100
1, 31136, Note_off_c, 0, 54, 100
1, 31136, Note_on_c, 0, 63, 100
1, 31168, Note_off_c, 0, 63, 100
1, 31168, Note_on_c, 0, 65, 100
1, 31200, Note_off_c, 0, 65, 100
1, 31200, Note_on_c, 0, 63, 100
1, 31232, Note_off_c, 0, 63, 100
1, 31232, Note_on_c, 0, 59, 100
1, 31264, Note_off_c, 0, 59, 100
1, 31264, Note_on_c, 0, 53, 100
1, 31408, Note_off_c, 0, 53, 100
1, 31408, Note_on_c, 0, 53, 100
1, 31432, Note_off_c, 0, 53, 100
1, 31432, Note_on_c, 0, 56, 100
1, 31456, Note_off_c, 0, 56, 100
1, 31456, Note_on_c, 0, 59, 100
1, 31504, Note_off_c, 0, 59, 100
1, 31504, Note_on_c, 0, 58, 100
1, 31744, Note_off_c, 0, 58, 100
1, 31744, Note_on_c, 0, 63, 100
1, 31792, Note_off_c, 0, 63, 100
1, 31792, Note_on_c, 0, 65, 100
1, 31878, Note_off_c, 0, 65, 100
1, 31878, Note_on_c, 0, 67, 100
1, 31916, Note_off_c, 0, 67, 100
1, 31916, Note_on_c, 0, 66, 100
1, 31954, Note_off_c, 0, 66, 100
1, 31954, Note_on_c, 0, 65, 100
1, 31992, Note_off_c, 0, 65, 100
1, 31992, Note_on_c, 0, 63, 100
1, 32030, Note_off_c, 0, 63, 100
1, 32030, Note_on_c, 0, 62, 100
1, 32078, Note_off_c, 0, 62, 100
1, 32078, Note_on_c, 0, 65, 100
1, 32126, Note_off_c, 0, 65, 100
1, 32126, Note_on_c, 0, 68, 100
1, 32174, Note_off_c, 0, 68, 100
1, 32174, Note_on_c, 0, 71, 100
1, 32222, Note_off_c, 0, 71, 100
1, 32222, Note_on_c, 0, 70, 100
1, 32318, Note_off_c, 0, 70, 100
1, 32318, Note_on_c, 0, 66, 100
1, 32366, Note_off_c, 0, 66, 100
1, 32366, Note_on_c, 0, 62, 100
1, 32414, Note_off_c, 0, 62, 100
1, 32414, Note_on_c, 0, 65, 100
1, 32452, Note_off_c, 0, 65, 100
1, 32452, Note_on_c, 0, 63, 100
1, 32528, Note_off_c, 0, 63, 100
1, 32528, Note_on_c, 0, 58, 100
1, 32566, Note_off_c, 0, 58, 100
1, 32566, Note_on_c, 0, 54, 100
1, 32604, Note_off_c, 0, 54, 100
1, 32604, Note_on_c, 0, 51, 100
1, 32700, Note_off_c, 0, 51, 100
1, 32700, Note_on_c, 0, 50, 100
1, 32748, Note_off_c, 0, 50, 100
1, 32748, Note_on_c, 0, 59, 100
1, 32796, Note_off_c, 0, 59, 100
1, 32796, Note_on_c, 0, 57, 100
1, 33084, Note_off_c, 0, 57, 100
1, 33084, Note_on_c, 0, 56, 100
1, 33132, Note_off_c, 0, 56, 100
1, 33132, Note_on_c, 0, 58, 100
1, 33180, Note_off_c, 0, 58, 100
1, 33180, Note_on_c, 0, 60, 100
1, 33228, Note_off_c, 0, 60, 100
1, 33228, Note_on_c, 0, 63, 100
1, 33276, Note_off_c, 0, 63, 100
1, 33276, Note_on_c, 0, 61, 100
1, 33324, Note_off_c, 0, 61, 100
1, 33324, Note_on_c, 0, 56, 100
1, 33372, Note_off_c, 0, 56, 100
1, 33372, Note_on_c, 0, 54, 100
1, 33420, Note_off_c, 0, 54, 100
1, 33420, Note_on_c, 0, 58, 100
1, 33468, Note_off_c, 0, 58, 100
1, 33468, Note_on_c, 0, 63, 100
1, 33516, Note_off_c, 0, 63, 100
1, 33516, Note_on_c, 0, 58, 100
1, 33564, Note_off_c, 0, 58, 100
1, 33564, Note_on_c, 0, 61, 100
1, 33804, Note_off_c, 0, 61, 100
1, 33804, Note_on_c, 0, 52, 100
1, 33852, Note_off_c, 0, 52, 100
1, 33852, Note_on_c, 0, 53, 100
1, 33900, Note_off_c, 0, 53, 100
1, 33900, Note_on_c, 0, 54, 100
1, 33948, Note_off_c, 0, 54, 100
1, 33948, Note_on_c, 0, 56, 100
1, 33996, Note_off_c, 0, 56, 100
1, 33996, Note_on_c, 0, 58, 100
1, 34044, Note_off_c, 0, 58, 100
1, 34044, Note_on_c, 0, 60, 100
1, 34092, Note_off_c, 0, 60, 100
1, 34092, Note_on_c, 0, 61, 100
1, 34140, Note_off_c, 0, 61, 100
1, 34140, Note_on_c, 0, 63, 100
1, 34178, Note_off_c, 0, 63, 100
1, 34178, Note_on_c, 0, 62, 100
1, 34216, Note_off_c, 0, 62, 100
1, 34216, Note_on_c, 0, 59, 100
1, 34254, Note_off_c, 0, 59, 100
1, 34254, Note_on_c, 0, 50, 100
1, 34292, Note_off_c, 0, 50, 100
1, 34292, Note_on_c, 0, 53, 100
1, 34378, Note_off_c, 0, 53, 100
1, 34378, Note_on_c, 0, 56, 100
1, 34426, Note_off_c, 0, 56, 100
1, 34426, Note_on_c, 0, 59, 100
1, 34474, Note_off_c, 0, 59, 100
1, 34474, Note_on_c, 0, 57, 100
1, 34498, Note_off_c, 0, 57, 100
1, 34498, Note_on_c, 0, 58, 100
1, 34810, Note_off_c, 0, 58, 100
1, 34810, Note_on_c, 0, 65, 100
1, 34858, Note_off_c, 0, 65, 100
1, 34858, Note_on_c, 0, 62, 100
1, 34906, Note_off_c, 0, 62, 100
1, 34906, Note_on_c, 0, 63, 100
1, 34954, Note_off_c, 0, 63, 100
1, 34954, Note_on_c, 0, 65, 100
1, 35002, Note_off_c, 0, 65, 100
1, 35002, Note_on_c, 0, 66, 100
1, 35050, Note_off_c, 0, 66, 100
1, 35050, Note_on_c, 0, 68, 100
1, 35098, Note_off_c, 0, 68, 100
1, 35098, Note_on_c, 0, 70, 100
1, 35146, Note_off_c, 0, 70, 100
1, 35146, Note_on_c, 0, 66, 100
1, 35194, Note_off_c, 0, 66, 100
1, 35194, Note_on_c, 0, 65, 100
1, 35242, Note_off_c, 0, 65, 100
1, 35242, Note_on_c, 0, 63, 100
1, 35290, Note_off_c, 0, 63, 100
1, 35290, Note_on_c, 0, 61, 100
1, 35338, Note_off_c, 0, 61, 100
1, 35338, Note_on_c, 0, 60, 100
1, 35386, Note_off_c, 0, 60, 100
1, 35386, Note_on_c, 0, 66, 100
1, 35434, Note_off_c, 0, 66, 100
1, 35434, Note_on_c, 0, 65, 100
1, 35578, Note_off_c, 0, 65, 100
1, 35578, Note_on_c, 0, 63, 100
1, 35626, Note_off_c, 0, 63, 100
1, 35626, Note_on_c, 0, 61, 100
1, 35712, Note_off_c, 0, 61, 100
1, 35712, Note_on_c, 0, 60, 100
1, 35750, Note_off_c, 0, 60, 100
1, 35750, Note_on_c, 0, 58, 100
1, 35788, Note_off_c, 0, 58, 100
1, 35788, Note_on_c, 0, 57, 100
1, 35826, Note_off_c, 0, 57, 100
1, 35826, Note_on_c, 0, 61, 100
1, 35864, Note_off_c, 0, 61, 100
1, 35864, Note_on_c, 0, 54, 100
1, 36152, Note_off_c, 0, 54, 100
1, 36152, Note_on_c, 0, 53, 100
1, 36200, Note_off_c, 0, 53, 100
1, 36200, Note_on_c, 0, 57, 100
1, 36248, Note_off_c, 0, 57, 100
1, 36248, Note_on_c, 0, 60, 100
1, 36344, Note_off_c, 0, 60, 100
1, 36344, Note_on_c, 0, 58, 100
1, 36392, Note_off_c, 0, 58, 100
1, 36392, Note_on_c, 0, 51, 100
1, 36440, Note_off_c, 0, 51, 100
1, 36440, Note_on_c, 0, 50, 100
1, 36504, Note_off_c, 0, 50, 100
1, 36504, Note_on_c, 0, 59, 100
1, 36568, Note_off_c, 0, 59, 100
1, 36568, Note_on_c, 0, 54, 100
1, 36632, Note_off_c, 0, 54, 100
1, 36632, Note_on_c, 0, 64, 100
1, 36696, Note_off_c, 0, 64, 100
1, 36696, Note_on_c, 0, 59, 100
1, 36760, Note_off_c, 0, 59, 100
1, 36760, Note_on_c, 0, 57, 100
1, 36824, Note_off_c, 0, 57, 100
1, 36824, Note_on_c, 0, 56, 100
1, 37112, Note_off_c, 0, 56, 100
1, 37112, Note_on_c, 0, 61, 100
1, 37448, Note_off_c, 0, 61, 100
1, 37448, Note_on_c, 0, 64, 100
1, 37496, Note_off_c, 0, 64, 100
1, 37496, Note_on_c, 0, 55, 100
1, 37544, Note_off_c, 0, 55, 100
1, 37544, Note_on_c, 0, 54, 100
1, 37688, Note_off_c, 0, 54, 100
1, 37688, Note_on_c, 0, 57, 100
1, 37736, Note_off_c, 0, 57, 100
1, 37736, Note_on_c, 0, 59, 100
1, 37784, Note_off_c, 0, 59, 100
1, 37784, Note_on_c, 0, 64, 100
1, 37822, Note_off_c, 0, 64, 100
1, 37822, Note_on_c, 0, 65, 100
1, 37860, Note_off_c, 0, 65, 100
1, 37860, Note_on_c, 0, 64, 100
1, 37898, Note_off_c, 0, 64, 100
1, 37898, Note_on_c, 0, 62, 100
1, 37936, Note_off_c, 0, 62, 100
1, 37936, Note_on_c, 0, 55, 100
1, 38262, Note_off_c, 0, 55, 100
1, 38262, Note_on_c, 0, 57, 100
1, 38310, Note_off_c, 0, 57, 100
1, 38310, Note_on_c, 0, 59, 100
1, 38358, Note_off_c, 0, 59, 100
1, 38358, Note_on_c, 0, 64, 100
1, 38406, Note_off_c, 0, 64, 100
1, 38406, Note_on_c, 0, 61, 100
1, 38454, Note_off_c, 0, 61, 100
1, 38454, Note_on_c, 0, 62, 100
1, 38502, Note_off_c, 0, 62, 100
1, 38502, Note_on_c, 0, 64, 100
1, 38574, Note_off_c, 0, 64, 100
1, 38574, Note_on_c, 0, 69, 100
1, 38598, Note_off_c, 0, 69, 100
1, 38598, Note_on_c, 0, 71, 100
1, 38622, Note_off_c, 0, 71, 100
1, 38622, Note_on_c, 0, 69, 100
1, 38646, Note_off_c, 0, 69, 100
1, 38646, Note_on_c, 0, 67, 100
1, 38718, Note_off_c, 0, 67, 100
1, 38718, Note_on_c, 0, 60, 100
1, 38838, Note_off_c, 0, 60, 100
1, 38838, Note_on_c, 0, 58, 100
1, 39126, Note_off_c, 0, 58, 100
1, 39126, Note_on_c, 0, 67, 100
1, 39174, Note_off_c, 0, 67, 100
1, 39174, Note_on_c, 0, 65, 100
1, 39222, Note_off_c, 0, 65, 100
1, 39222, Note_on_c, 0, 66, 100
1, 39246, Note_off_c, 0, 66, 100
1, 39246, Note_on_c, 0, 67, 100
1, 39270, Note_off_c, 0, 67, 100
1, 39270, Note_on_c, 0, 66, 100
1, 39294, Note_off_c, 0, 66, 100
1, 39294, Note_on_c, 0, 64, 100
1, 39318, Note_off_c, 0, 64, 100
1, 39318, Note_on_c, 0, 62, 100
1, 39366, Note_off_c, 0, 62, 100
1, 39366, Note_on_c, 0, 59, 100
1, 39414, Note_off_c, 0, 59, 100
1, 39414, Note_on_c, 0, 57, 100
1, 39462, Note_off_c, 0, 57, 100
1, 39462, Note_on_c, 0, 55, 100
1, 39510, Note_off_c, 0, 55, 100
1, 39510, Note_on_c, 0, 56, 100
1, 39542, Note_off_c, 0, 56, 100
1, 39542, Note_on_c, 0, 59, 100
1, 39574, Note_off_c, 0, 59, 100
1, 39574, Note_on_c, 0, 62, 100
1, 39606, Note_off_c, 0, 62, 100
1, 39606, Note_on_c, 0, 65, 100
1, 39638, Note_off_c, 0, 65, 100
1, 39638, Note_on_c, 0, 63, 100
1, 39702, Note_off_c, 0, 63, 100
1, 39702, Note_on_c, 0, 64, 100
1, 39740, Note_off_c, 0, 64, 100
1, 39740, Note_on_c, 0, 61, 100
1, 39778, Note_off_c, 0, 61, 100
1, 39778, Note_on_c, 0, 59, 100
1, 39816, Note_off_c, 0, 59, 100
1, 39816, Note_on_c, 0, 55, 100
1, 39854, Note_off_c, 0, 55, 100
1, 39854, Note_on_c, 0, 53, 100
1, 39892, Note_off_c, 0, 53, 100
1, 39892, Note_on_c, 0, 54, 100
1, 39940, Note_off_c, 0, 54, 100
1, 39940, Note_on_c, 0, 57, 100
1, 39988, Note_off_c, 0, 57, 100
1, 39988, Note_on_c, 0, 59, 100
1, 40036, Note_off_c, 0, 59, 100
1, 40036, Note_on_c, 0, 64, 100
1, 40084, Note_off_c, 0, 64, 100
1, 40084, Note_on_c, 0, 62, 100
1, 40372, Note_off_c, 0, 62, 100
1, 40372, Note_on_c, 0, 74, 100
1, 40420, Note_off_c, 0, 74, 100
1, 40420, Note_on_c, 0, 70, 100
1, 40468, Note_off_c, 0, 70, 100
1, 40468, Note_on_c, 0, 66, 100
1, 40516, Note_off_c, 0, 66, 100
1, 40516, Note_on_c, 0, 60, 100
1, 40564, Note_off_c, 0, 60, 100
1, 40564, Note_on_c, 0, 59, 100
1, 40660, Note_off_c, 0, 59, 100
1, 40660, Note_on_c, 0, 64, 100
1, 40708, Note_off_c, 0, 64, 100
1, 40708, Note_on_c, 0, 59, 100
1, 40756, Note_off_c, 0, 59, 100
1, 40756, Note_on_c, 0, 62, 100
1, 40804, Note_off_c, 0, 62, 100
1, 40804, Note_on_c, 0, 64, 100
1, 40852, Note_off_c, 0, 64, 100
1, 40852, Note_on_c, 0, 65, 100
1, 40900, Note_off_c, 0, 65, 100
1, 40900, Note_on_c, 0, 67, 100
1, 40948, Note_off_c, 0, 67, 100
1, 40948, Note_on_c, 0, 68, 100
1, 40996, Note_off_c, 0, 68, 100
1, 40996, Note_on_c, 0, 69, 100
1, 41140, Note_off_c, 0, 69, 100
1, 41140, Note_on_c, 0, 79, 100
1, 41188, Note_off_c, 0, 79, 100
1, 41188, Note_on_c, 0, 75, 100
1, 41236, Note_off_c, 0, 75, 100
1, 41236, Note_on_c, 0, 71, 100
1, 41284, Note_off_c, 0, 71, 100
1, 41284, Note_on_c, 0, 67, 100
1, 41332, Note_off_c, 0, 67, 100
1, 41332, Note_on_c, 0, 66, 100
1, 41380, Note_off_c, 0, 66, 100
1, 41380, Note_on_c, 0, 65, 100
1, 41428, Note_off_c, 0, 65, 100
1, 41428, Note_on_c, 0, 64, 100
1, 41476, Note_off_c, 0, 64, 100
1, 41476, Note_on_c, 0, 55, 100
1, 41524, Note_off_c, 0, 55, 100
1, 41524, Note_on_c, 0, 57, 100
1, 41572, Note_off_c, 0, 57, 100
1, 41572, Note_on_c, 0, 59, 100
1, 41620, Note_off_c, 0, 59, 100
1, 41620, Note_on_c, 0, 62, 100
1, 41668, Note_off_c, 0, 62, 100
1, 41668, Note_on_c, 0, 59, 100
1, 41716, Note_off_c, 0, 59, 100
1, 41716, Note_on_c, 0, 60, 100
1, 41764, Note_off_c, 0, 60, 100
1, 41764, Note_on_c, 0, 62, 100
1, 41812, Note_off_c, 0, 62, 100
1, 41812, Note_on_c, 0, 64, 100
1, 41850, Note_off_c, 0, 64, 100
1, 41850, Note_on_c, 0, 67, 100
1, 41888, Note_off_c, 0, 67, 100
1, 41888, Note_on_c, 0, 69, 100
1, 41926, Note_off_c, 0, 69, 100
1, 41926, Note_on_c, 0, 73, 100
1, 42002, Note_off_c, 0, 73, 100
1, 42002, Note_on_c, 0, 66, 100
1, 42242, Note_off_c, 0, 66, 100
1, 42242, Note_on_c, 0, 65, 100
1, 42338, Note_off_c, 0, 65, 100
1, 42338, Note_on_c, 0, 69, 100
1, 42386, Note_off_c, 0, 69, 100
1, 42386, Note_on_c, 0, 63, 100
1, 42413, Note_off_c, 0, 63, 100
1, 42413, Note_on_c, 0, 65, 100
1, 42440, Note_off_c, 0, 65, 100
1, 42440, Note_on_c, 0, 64, 100
1, 42467, Note_off_c, 0, 64, 100
1, 42467, Note_on_c, 0, 62, 100
1, 42494, Note_off_c, 0, 62, 100
1, 42494, Note_on_c, 0, 61, 100
1, 42548, Note_off_c, 0, 61, 100
1, 42548, Note_on_c, 0, 57, 100
1, 42575, Note_off_c, 0, 57, 100
1, 42575, Note_on_c, 0, 60, 100
1, 42623, Note_off_c, 0, 60, 100
1, 42623, Note_on_c, 0, 57, 100
1, 42671, Note_off_c, 0, 57, 100
1, 42671, Note_on_c, 0, 53, 100
1, 42719, Note_off_c, 0, 53, 100
1, 42719, Note_on_c, 0, 48, 100
1, 42815, Note_off_c, 0, 48, 100
1, 42815, Note_on_c, 0, 57, 100
1, 42863, Note_off_c, 0, 57, 100
1, 42863, Note_on_c, 0, 53, 100
1, 42959, Note_off_c, 0, 53, 100
1, 42959, Note_on_c, 0, 52, 100
1, 43151, Note_off_c, 0, 52, 100
1, 43151, Note_on_c, 0, 51, 100
1, 43199, Note_off_c, 0, 51, 100
1, 43199, Note_on_c, 0, 54, 100
1, 43247, Note_off_c, 0, 54, 100
1, 43247, Note_on_c, 0, 61, 100
1, 43295, Note_off_c, 0, 61, 100
1, 43295, Note_on_c, 0, 59, 100
1, 43343, Note_off_c, 0, 59, 100
1, 43343, Note_on_c, 0, 51, 100
1, 43391, Note_off_c, 0, 51, 100
1, 43391, Note_on_c, 0, 53, 100
1, 43439, Note_off_c, 0, 53, 100
1, 43439, Note_on_c, 0, 60, 100
1, 43487, Note_off_c, 0, 60, 100
1, 43487, Note_on_c, 0, 58, 100
1, 43535, Note_off_c, 0, 58, 100
1, 43535, Note_on_c, 0, 62, 100
1, 43583, Note_off_c, 0, 62, 100
1, 43583, Note_on_c, 0, 65, 100
1, 43631, Note_off_c, 0, 65, 100
1, 43631, Note_on_c, 0, 68, 100
1, 43679, Note_off_c, 0, 68, 100
1, 43679, Note_on_c, 0, 65, 100
1, 43727, Note_off_c, 0, 65, 100
1, 43727, Note_on_c, 0, 66, 100
1, 44015, Note_off_c, 0, 66, 100
1, 44015, Note_on_c, 0, 51, 100
1, 44063, Note_off_c, 0, 51, 100
1, 44063, Note_on_c, 0, 53, 100
1, 44159, Note_off_c, 0, 53, 100
1, 44159, Note_on_c, 0, 51, 100
1, 44207, Note_off_c, 0, 51, 100
1, 44207, Note_on_c, 0, 53, 100
1, 44447, Note_off_c, 0, 53, 100
1, 44447, Note_on_c, 0, 51, 100
1, 44495, Note_off_c, 0, 51, 100
1, 44495, Note_on_c, 0, 58, 100
1, 44917, Note_off_c, 0, 58, 100
1, 44917, Note_on_c, 0, 60, 100
1, 44993, Note_off_c, 0, 60, 100
1, 44993, Note_on_c, 0, 61, 100
1, 45031, Note_off_c, 0, 61, 100
1, 45031, Note_on_c, 0, 58, 100
1, 45117, Note_off_c, 0, 58, 100
1, 45117, Note_on_c, 0, 60, 100
1, 45165, Note_off_c, 0, 60, 100
1, 45165, Note_on_c, 0, 56, 100
1, 45213, Note_off_c, 0, 56, 100
1, 45213, Note_on_c, 0, 52, 100
1, 45261, Note_off_c, 0, 52, 100
1, 45261, Note_on_c, 0, 53, 100
1, 45549, Note_off_c, 0, 53, 100
1, 45549, Note_on_c, 0, 56, 100
1, 45597, Note_off_c, 0, 56, 100
1, 45597, Note_on_c, 0, 58, 100
1, 45645, Note_off_c, 0, 58, 100
1, 45645, Note_on_c, 0, 60, 100
1, 45693, Note_off_c, 0, 60, 100
1, 45693, Note_on_c, 0, 63, 100
1, 45741, Note_off_c, 0, 63, 100
1, 45741, Note_on_c, 0, 61, 100
1, 45789, Note_off_c, 0, 61, 100
1, 45789, Note_on_c, 0, 58, 100
1, 45837, Note_off_c, 0, 58, 100
1, 45837, Note_on_c, 0, 54, 100
1, 46067, Note_off_c, 0, 54, 100
1, 46067, Note_on_c, 0, 52, 100
1, 46105, Note_off_c, 0, 52, 100
1, 46105, Note_on_c, 0, 53, 100
1, 46143, Note_off_c, 0, 53, 100
1, 46143, Note_on_c, 0, 56, 100
1, 46181, Note_off_c, 0, 56, 100
1, 46181, Note_on_c, 0, 60, 100
1, 46219, Note_off_c, 0, 60, 100
1, 46219, Note_on_c, 0, 63, 100
1, 46315, Note_off_c, 0, 63, 100
1, 46315, Note_on_c, 0, 61, 100
1, 46411, Note_off_c, 0, 61, 100
1, 46411, Note_on_c, 0, 60, 100
1, 46507, Note_off_c, 0, 60, 100
1, 46507, Note_on_c, 0, 58, 100
1, 46747, Note_off_c, 0, 58, 100
1, 46747, Note_on_c, 0, 54, 100
1, 46795, Note_off_c, 0, 54, 100
1, 46795, Note_on_c, 0, 51, 100
1, 47083, Note_off_c, 0, 51, 100
1, 47083, Note_on_c, 0, 54, 100
1, 47179, Note_off_c, 0, 54, 100
1, 47179, Note_on_c, 0, 58, 100
1, 47275, Note_off_c, 0, 58, 100
1, 47275, Note_on_c, 0, 61, 100
1, 47323, Note_off_c, 0, 61, 100
1, 47323, Note_on_c, 0, 58, 100
1, 47409, Note_off_c, 0, 58, 100
1, 47409, Note_on_c, 0, 56, 100
1, 47447, Note_off_c, 0, 56, 100
1, 47447, Note_on_c, 0, 54, 100
1, 47485, Note_off_c, 0, 54, 100
1, 47485, Note_on_c, 0, 49, 100
1, 47523, Note_off_c, 0, 49, 100
1, 47523, Note_on_c, 0, 51, 100
1, 47561, Note_off_c, 0, 51, 100
1, 47561, Note_on_c, 0, 53, 100
1, 47849, Note_off_c, 0, 53, 100
1, 47849, Note_on_c, 0, 53, 100
1, 48009, Note_off_c, 0, 53, 100
1, 48009, Note_on_c, 0, 54, 100
1, 48073, Note_off_c, 0, 54, 100
1, 48073, Note_on_c, 0, 57, 100
1, 48137, Note_off_c, 0, 57, 100
1, 48137, Note_on_c, 0, 60, 100
1, 48201, Note_off_c, 0, 60, 100
1, 48201, Note_on_c, 0, 61, 100
1, 48265, Note_off_c, 0, 61, 100
1, 48265, Note_on_c, 0, 53, 100
1, 48329, Note_off_c, 0, 53, 100
1, 48329, Note_on_c, 0, 57, 100
1, 48425, Note_off_c, 0, 57, 100
1, 48425, Note_on_c, 0, 60, 100
1, 48809, Note_off_c, 0, 60, 100
1, 48809, Note_on_c, 0, 58, 100
1, 48857, Note_off_c, 0, 58, 100
1, 48857, Note_on_c, 0, 53, 100
1, 48905, Note_off_c, 0, 53, 100
1, 48905, Note_on_c, 0, 51, 100
1, 48953, Note_off_c, 0, 51, 100
1, 48953, Note_on_c, 0, 48, 100
1, 49001, Note_off_c, 0, 48, 100
1, 49001, Note_on_c, 0, 49, 100
1, 49049, Note_off_c, 0, 49, 100
1, 49049, Note_on_c, 0, 51, 100
1, 49097, Note_off_c, 0, 51, 100
1, 49097, Note_on_c, 0, 53, 100
1, 49161, Note_off_c, 0, 53, 100
1, 49161, Note_on_c, 0, 58, 100
1, 49225, Note_off_c, 0, 58, 100
1, 49225, Note_on_c, 0, 59, 100
1, 49537, Note_off_c, 0, 59, 100
1, 49537, End_track
0, 0, End_of_file
