<?xml version="1.0" encoding="UTF-8"?>
<!DOCTYPE score-partwise PUBLIC "-//Recordare//DTD MusicXML 3.0 Partwise//EN" "http://www.musicxml.org/dtds/partwise.dtd">
<score-partwise>
  <identification>
    <encoding>
      <software>MuseScore 2.0.3</software>
      <encoding-date>2016-04-22</encoding-date>
      <supports element="accidental" type="yes"/>
      <supports element="beam" type="yes"/>
      <supports element="print" attribute="new-page" type="yes" value="yes"/>
      <supports element="print" attribute="new-system" type="yes" value="yes"/>
      <supports element="stem" type="yes"/>
      </encoding>
    </identification>
  <defaults>
    <scaling>
      <millimeters>7.05556</millimeters>
      <tenths>40</tenths>
      </scaling>
    <page-layout>
      <page-height>1683.78</page-height>
      <page-width>1190.55</page-width>
      <page-margins type="even">
        <left-margin>56.6929</left-margin>
        <right-margin>56.6929</right-margin>
        <top-margin>56.6929</top-margin>
        <bottom-margin>113.386</bottom-margin>
        </page-margins>
      <page-margins type="odd">
        <left-margin>56.6929</left-margin>
        <right-margin>56.6929</right-margin>
        <top-margin>56.6929</top-margin>
        <bottom-margin>113.386</bottom-margin>
        </page-margins>
      </page-layout>
    <word-font font-family="FreeSerif" font-size="10"/>
    <lyric-font font-family="FreeSerif" font-size="11"/>
    </defaults>
  <part-list>
    <score-part id="P1">
      <part-name>Piano, Melody</part-name>
      <part-abbreviation>Pno.</part-abbreviation>
      <score-instrument id="P1-I1">
        <instrument-name>Piano</instrument-name>
        </score-instrument>
      <midi-device id="P1-I1" port="1"></midi-device>
      <midi-instrument id="P1-I1">
        <midi-channel>1</midi-channel>
        <midi-program>1</midi-program>
        <volume>78.7402</volume>
        <pan>0</pan>
        </midi-instrument>
      </score-part>
    </part-list>
  <part id="P1">
    <measure number="1" width="380.83">
      <print>
        <system-layout>
          <system-margins>
            <left-margin>0.00</left-margin>
            <right-margin>0.00</right-margin>
            </system-margins>
          <top-system-distance>70.00</top-system-distance>
          </system-layout>
        </print>
      <attributes>
        <divisions>480</divisions>
        <key>
          <fifths>-3</fifths>
          </key>
        <time>
          <beats>4</beats>
          <beat-type>4</beat-type>
          </time>
        <clef>
          <sign>G</sign>
          <line>2</line>
          </clef>
        </attributes>
      <direction placement="above">
        <direction-type>
          <metronome parentheses="no">
            <beat-unit>quarter</beat-unit>
            <per-minute>99</per-minute>
            </metronome>
          </direction-type>
        <sound tempo="99"/>
        </direction>
      <note>
        <rest/>
        <duration>480</duration>
        <voice>1</voice>
        <type>quarter</type>
        </note>
      <note default-x="159.04" default-y="-25.00" dynamics="111.11">
        <pitch>
          <step>A</step>
          <octave>4</octave>
          </pitch>
        <duration>240</duration>
        <voice>1</voice>
        <type>eighth</type>
        <accidental>natural</accidental>
        <stem>down</stem>
        <beam number="1">begin</beam>
        </note>
      <note default-x="198.18" default-y="-20.00" dynamics="111.11">
        <pitch>
          <step>B</step>
          <alter>-1</alter>
          <octave>4</octave>
          </pitch>
        <duration>120</duration>
        <voice>1</voice>
        <type>16th</type>
        <stem>down</stem>
        <beam number="1">continue</beam>
        <beam number="2">begin</beam>
        </note>
      <note default-x="222.65" default-y="-5.00" dynamics="111.11">
        <pitch>
          <step>E</step>
          <alter>-1</alter>
          <octave>5</octave>
          </pitch>
        <duration>120</duration>
        <tie type="start"/>
        <voice>1</voice>
        <type>16th</type>
        <stem>down</stem>
        <beam number="1">end</beam>
        <beam number="2">end</beam>
        <notations>
          <tied type="start"/>
          </notations>
        </note>
      <note default-x="247.11" default-y="-5.00" dynamics="111.11">
        <pitch>
          <step>E</step>
          <alter>-1</alter>
          <octave>5</octave>
          </pitch>
        <duration>240</duration>
        <tie type="stop"/>
        <voice>1</voice>
        <type>eighth</type>
        <stem>down</stem>
        <beam number="1">begin</beam>
        <notations>
          <tied type="stop"/>
          </notations>
        </note>
      <note default-x="286.26" default-y="-25.00" dynamics="111.11">
        <pitch>
          <step>A</step>
          <octave>4</octave>
          </pitch>
        <duration>240</duration>
        <voice>1</voice>
        <type>eighth</type>
        <stem>down</stem>
        <beam number="1">end</beam>
        </note>
      <note default-x="325.40" default-y="-20.00" dynamics="111.11">
        <pitch>
          <step>B</step>
          <alter>-1</alter>
          <octave>4</octave>
          </pitch>
        <duration>480</duration>
        <voice>1</voice>
        <type>quarter</type>
        <stem>down</stem>
        </note>
      </measure>
    <measure number="2" width="395.86">
      <note default-x="12.00" default-y="-50.00" dynamics="111.11">
        <pitch>
          <step>C</step>
          <octave>4</octave>
          </pitch>
        <duration>120</duration>
        <voice>1</voice>
        <type>16th</type>
        <stem>up</stem>
        <beam number="1">begin</beam>
        <beam number="2">begin</beam>
        </note>
      <note default-x="40.93" default-y="-45.00" dynamics="111.11">
        <pitch>
          <step>D</step>
          <alter>-1</alter>
          <octave>4</octave>
          </pitch>
        <duration>120</duration>
        <voice>1</voice>
        <type>16th</type>
        <accidental>flat</accidental>
        <stem>up</stem>
        <beam number="1">continue</beam>
        <beam number="2">continue</beam>
        </note>
      <note default-x="69.03" default-y="-40.00" dynamics="111.11">
        <pitch>
          <step>E</step>
          <alter>-1</alter>
          <octave>4</octave>
          </pitch>
        <duration>120</duration>
        <voice>1</voice>
        <type>16th</type>
        <stem>up</stem>
        <beam number="1">continue</beam>
        <beam number="2">continue</beam>
        </note>
      <note default-x="97.12" default-y="-50.00" dynamics="111.11">
        <pitch>
          <step>C</step>
          <octave>4</octave>
          </pitch>
        <duration>120</duration>
        <tie type="start"/>
        <voice>1</voice>
        <type>16th</type>
        <stem>up</stem>
        <beam number="1">end</beam>
        <beam number="2">end</beam>
        <notations>
          <tied type="start"/>
          </notations>
        </note>
      <note default-x="125.21" default-y="-50.00" dynamics="111.11">
        <pitch>
          <step>C</step>
          <octave>4</octave>
          </pitch>
        <duration>120</duration>
        <tie type="stop"/>
        <voice>1</voice>
        <type>16th</type>
        <stem>up</stem>
        <beam number="1">begin</beam>
        <beam number="2">begin</beam>
        <notations>
          <tied type="stop"/>
          </notations>
        </note>
      <note default-x="154.15" default-y="-30.00" dynamics="111.11">
        <pitch>
          <step>G</step>
          <alter>-1</alter>
          <octave>4</octave>
          </pitch>
        <duration>120</duration>
        <voice>1</voice>
        <type>16th</type>
        <accidental>flat</accidental>
        <stem>up</stem>
        <beam number="1">continue</beam>
        <beam number="2">end</beam>
        </note>
      <note default-x="182.24" default-y="-25.00" dynamics="111.11">
        <pitch>
          <step>A</step>
          <octave>4</octave>
          </pitch>
        <duration>240</duration>
        <voice>1</voice>
        <type>eighth</type>
        <accidental>natural</accidental>
        <stem>up</stem>
        <beam number="1">end</beam>
        </note>
      <note default-x="227.19" default-y="-10.00" dynamics="111.11">
        <pitch>
          <step>D</step>
          <octave>5</octave>
          </pitch>
        <duration>480</duration>
        <voice>1</voice>
        <type>quarter</type>
        <stem>down</stem>
        </note>
      <note default-x="289.00" default-y="-15.00" dynamics="111.11">
        <pitch>
          <step>C</step>
          <octave>5</octave>
          </pitch>
        <duration>160</duration>
        <voice>1</voice>
        <type>eighth</type>
        <time-modification>
          <actual-notes>3</actual-notes>
          <normal-notes>2</normal-notes>
          </time-modification>
        <stem>down</stem>
        <beam number="1">begin</beam>
        <notations>
          <tuplet type="start" bracket="no"/>
          </notations>
        </note>
      <note default-x="324.09" default-y="-5.00" dynamics="111.11">
        <pitch>
          <step>E</step>
          <alter>-1</alter>
          <octave>5</octave>
          </pitch>
        <duration>160</duration>
        <voice>1</voice>
        <type>eighth</type>
        <time-modification>
          <actual-notes>3</actual-notes>
          <normal-notes>2</normal-notes>
          </time-modification>
        <stem>down</stem>
        <beam number="1">continue</beam>
        </note>
      <note default-x="359.18" default-y="-15.00" dynamics="111.11">
        <pitch>
          <step>C</step>
          <octave>5</octave>
          </pitch>
        <duration>160</duration>
        <voice>1</voice>
        <type>eighth</type>
        <time-modification>
          <actual-notes>3</actual-notes>
          <normal-notes>2</normal-notes>
          </time-modification>
        <stem>down</stem>
        <beam number="1">end</beam>
        <notations>
          <tuplet type="stop"/>
          </notations>
        </note>
      </measure>
    <measure number="3" width="300.47">
      <note default-x="12.00" default-y="-25.00" dynamics="111.11">
        <pitch>
          <step>A</step>
          <alter>-1</alter>
          <octave>4</octave>
          </pitch>
        <duration>240</duration>
        <voice>1</voice>
        <type>eighth</type>
        <stem>up</stem>
        <beam number="1">begin</beam>
        </note>
      <note default-x="49.43" default-y="-20.00" dynamics="111.11">
        <pitch>
          <step>B</step>
          <alter>-1</alter>
          <octave>4</octave>
          </pitch>
        <duration>240</duration>
        <voice>1</voice>
        <type>eighth</type>
        <stem>up</stem>
        <beam number="1">end</beam>
        </note>
      <note>
        <rest/>
        <duration>480</duration>
        <voice>1</voice>
        <type>quarter</type>
        </note>
      <note default-x="140.91" default-y="-30.00" dynamics="111.11">
        <pitch>
          <step>G</step>
          <octave>4</octave>
          </pitch>
        <duration>240</duration>
        <voice>1</voice>
        <type>eighth</type>
        <stem>up</stem>
        <beam number="1">begin</beam>
        </note>
      <note default-x="178.33" default-y="-25.00" dynamics="111.11">
        <pitch>
          <step>A</step>
          <alter>-1</alter>
          <octave>4</octave>
          </pitch>
        <duration>240</duration>
        <voice>1</voice>
        <type>eighth</type>
        <stem>up</stem>
        <beam number="1">end</beam>
        </note>
      <note default-x="215.76" default-y="-35.00" dynamics="111.11">
        <pitch>
          <step>F</step>
          <octave>4</octave>
          </pitch>
        <duration>160</duration>
        <voice>1</voice>
        <type>eighth</type>
        <time-modification>
          <actual-notes>3</actual-notes>
          <normal-notes>2</normal-notes>
          </time-modification>
        <stem>up</stem>
        <beam number="1">begin</beam>
        <notations>
          <tuplet type="start" bracket="no"/>
          </notations>
        </note>
      <note default-x="243.47" default-y="-30.00" dynamics="111.11">
        <pitch>
          <step>G</step>
          <octave>4</octave>
          </pitch>
        <duration>160</duration>
        <voice>1</voice>
        <type>eighth</type>
        <time-modification>
          <actual-notes>3</actual-notes>
          <normal-notes>2</normal-notes>
          </time-modification>
        <stem>up</stem>
        <beam number="1">continue</beam>
        </note>
      <note default-x="271.17" default-y="-25.00" dynamics="111.11">
        <pitch>
          <step>A</step>
          <alter>-1</alter>
          <octave>4</octave>
          </pitch>
        <duration>160</duration>
        <voice>1</voice>
        <type>eighth</type>
        <time-modification>
          <actual-notes>3</actual-notes>
          <normal-notes>2</normal-notes>
          </time-modification>
        <stem>up</stem>
        <beam number="1">end</beam>
        <notations>
          <tuplet type="stop"/>
          </notations>
        </note>
      </measure>
    <measure number="4" width="531.41">
      <print new-system="yes">
        <system-layout>
          <system-margins>
            <left-margin>0.00</left-margin>
            <right-margin>0.00</right-margin>
            </system-margins>
          <system-distance>150.00</system-distance>
          </system-layout>
        </print>
      <note default-x="94.53" default-y="-40.00" dynamics="111.11">
        <pitch>
          <step>E</step>
          <octave>4</octave>
          </pitch>
        <duration>120</duration>
        <voice>1</voice>
        <type>16th</type>
        <accidental>natural</accidental>
        <stem>up</stem>
        <beam number="1">begin</beam>
        <beam number="2">begin</beam>
        </note>
      <note default-x="123.47" default-y="-40.00" dynamics="111.11">
        <pitch>
          <step>E</step>
          <alter>-1</alter>
          <octave>4</octave>
          </pitch>
        <duration>120</duration>
        <voice>1</voice>
        <type>16th</type>
        <accidental>flat</accidental>
        <stem>up</stem>
        <beam number="1">continue</beam>
        <beam number="2">end</beam>
        </note>
      <note default-x="149.89" default-y="-55.00" dynamics="111.11">
        <pitch>
          <step>B</step>
          <alter>-1</alter>
          <octave>3</octave>
          </pitch>
        <duration>240</duration>
        <voice>1</voice>
        <type>eighth</type>
        <stem>up</stem>
        <beam number="1">end</beam>
        </note>
      <note default-x="186.95" default-y="-55.00" dynamics="111.11">
        <pitch>
          <step>B</step>
          <alter>-1</alter>
          <octave>3</octave>
          </pitch>
        <duration>206</duration>
        <voice>1</voice>
        <type>16th</type>
        <dot/>
        <time-modification>
          <actual-notes>7</actual-notes>
          <normal-notes>8</normal-notes>
          <normal-type>32nd</normal-type>
          </time-modification>
        <stem>up</stem>
        <beam number="1">begin</beam>
        <beam number="2">begin</beam>
        <notations>
          <tuplet type="start" bracket="no"/>
          </notations>
        </note>
      <note default-x="222.00" default-y="-20.00" dynamics="111.11">
        <pitch>
          <step>B</step>
          <octave>4</octave>
          </pitch>
        <duration>69</duration>
        <voice>1</voice>
        <type>32nd</type>
        <accidental>natural</accidental>
        <time-modification>
          <actual-notes>7</actual-notes>
          <normal-notes>8</normal-notes>
          <normal-type>32nd</normal-type>
          </time-modification>
        <stem>up</stem>
        <beam number="1">continue</beam>
        <beam number="2">continue</beam>
        <beam number="3">begin</beam>
        </note>
      <backup>
        <duration>1</duration>
        </backup>
      <note default-x="250.93" default-y="-20.00" dynamics="111.11">
        <pitch>
          <step>B</step>
          <alter>-1</alter>
          <octave>4</octave>
          </pitch>
        <duration>69</duration>
        <voice>1</voice>
        <type>32nd</type>
        <accidental>flat</accidental>
        <time-modification>
          <actual-notes>7</actual-notes>
          <normal-notes>8</normal-notes>
          <normal-type>32nd</normal-type>
          </time-modification>
        <stem>up</stem>
        <beam number="1">continue</beam>
        <beam number="2">continue</beam>
        <beam number="3">continue</beam>
        </note>
      <note default-x="268.87" default-y="-25.00" dynamics="111.11">
        <pitch>
          <step>A</step>
          <alter>-1</alter>
          <octave>4</octave>
          </pitch>
        <duration>69</duration>
        <voice>1</voice>
        <type>32nd</type>
        <time-modification>
          <actual-notes>7</actual-notes>
          <normal-notes>8</normal-notes>
          <normal-type>32nd</normal-type>
          </time-modification>
        <stem>up</stem>
        <beam number="1">continue</beam>
        <beam number="2">continue</beam>
        <beam number="3">continue</beam>
        </note>
      <backup>
        <duration>1</duration>
        </backup>
      <note default-x="297.81" default-y="-30.00" dynamics="111.11">
        <pitch>
          <step>G</step>
          <alter>-1</alter>
          <octave>4</octave>
          </pitch>
        <duration>69</duration>
        <voice>1</voice>
        <type>32nd</type>
        <accidental>flat</accidental>
        <time-modification>
          <actual-notes>7</actual-notes>
          <normal-notes>8</normal-notes>
          <normal-type>32nd</normal-type>
          </time-modification>
        <stem>up</stem>
        <beam number="1">end</beam>
        <beam number="2">end</beam>
        <beam number="3">end</beam>
        <notations>
          <tuplet type="stop"/>
          </notations>
        </note>
      <note default-x="324.83" default-y="-40.00" dynamics="111.11">
        <pitch>
          <step>E</step>
          <octave>4</octave>
          </pitch>
        <duration>96</duration>
        <voice>1</voice>
        <type>16th</type>
        <accidental>natural</accidental>
        <time-modification>
          <actual-notes>5</actual-notes>
          <normal-notes>4</normal-notes>
          <normal-type>16th</normal-type>
          </time-modification>
        <stem>up</stem>
        <beam number="1">begin</beam>
        <beam number="2">begin</beam>
        <notations>
          <tuplet type="start" bracket="no"/>
          </notations>
        </note>
      <note default-x="347.83" default-y="-45.00" dynamics="111.11">
        <pitch>
          <step>D</step>
          <octave>4</octave>
          </pitch>
        <duration>96</duration>
        <voice>1</voice>
        <type>16th</type>
        <time-modification>
          <actual-notes>5</actual-notes>
          <normal-notes>4</normal-notes>
          <normal-type>16th</normal-type>
          </time-modification>
        <stem>up</stem>
        <beam number="1">continue</beam>
        <beam number="2">continue</beam>
        </note>
      <note default-x="376.77" default-y="-45.00" dynamics="111.11">
        <pitch>
          <step>D</step>
          <alter>-1</alter>
          <octave>4</octave>
          </pitch>
        <duration>96</duration>
        <voice>1</voice>
        <type>16th</type>
        <accidental>flat</accidental>
        <time-modification>
          <actual-notes>5</actual-notes>
          <normal-notes>4</normal-notes>
          <normal-type>16th</normal-type>
          </time-modification>
        <stem>up</stem>
        <beam number="1">continue</beam>
        <beam number="2">end</beam>
        </note>
      <note default-x="399.77" default-y="-50.00" dynamics="111.11">
        <pitch>
          <step>C</step>
          <octave>4</octave>
          </pitch>
        <duration>192</duration>
        <voice>1</voice>
        <type>eighth</type>
        <time-modification>
          <actual-notes>5</actual-notes>
          <normal-notes>4</normal-notes>
          <normal-type>16th</normal-type>
          </time-modification>
        <stem>up</stem>
        <beam number="1">end</beam>
        <notations>
          <tuplet type="stop"/>
          </notations>
        </note>
      <attributes>
        <clef>
          <sign>F</sign>
          <line>4</line>
          </clef>
        </attributes>
      <note default-x="455.71" default-y="5.00" dynamics="111.11">
        <pitch>
          <step>B</step>
          <octave>3</octave>
          </pitch>
        <duration>240</duration>
        <voice>1</voice>
        <type>eighth</type>
        <accidental>natural</accidental>
        <stem>down</stem>
        <beam number="1">begin</beam>
        </note>
      <note default-x="492.76" default-y="0.00" dynamics="111.11">
        <pitch>
          <step>A</step>
          <octave>3</octave>
          </pitch>
        <duration>240</duration>
        <voice>1</voice>
        <type>eighth</type>
        <accidental>natural</accidental>
        <stem>down</stem>
        <beam number="1">end</beam>
        </note>
      </measure>
    <measure number="5" width="262.49">
      <note default-x="14.36" default-y="0.00" dynamics="111.11">
        <pitch>
          <step>A</step>
          <octave>3</octave>
          </pitch>
        <duration>360</duration>
        <voice>1</voice>
        <type>eighth</type>
        <dot/>
        <accidental>natural</accidental>
        <stem>down</stem>
        <beam number="1">begin</beam>
        </note>
      <note default-x="51.07" default-y="0.00" dynamics="111.11">
        <pitch>
          <step>A</step>
          <octave>3</octave>
          </pitch>
        <duration>120</duration>
        <voice>1</voice>
        <type>16th</type>
        <stem>down</stem>
        <beam number="1">end</beam>
        <beam number="2">backward hook</beam>
        </note>
      <note default-x="69.89" default-y="10.00" dynamics="111.11">
        <pitch>
          <step>C</step>
          <octave>4</octave>
          </pitch>
        <duration>120</duration>
        <voice>1</voice>
        <type>16th</type>
        <stem>down</stem>
        <beam number="1">begin</beam>
        <beam number="2">begin</beam>
        </note>
      <attributes>
        <clef>
          <sign>G</sign>
          <line>2</line>
          </clef>
        </attributes>
      <note default-x="113.19" default-y="-40.00" dynamics="111.11">
        <pitch>
          <step>E</step>
          <alter>-1</alter>
          <octave>4</octave>
          </pitch>
        <duration>120</duration>
        <voice>1</voice>
        <type>16th</type>
        <stem>down</stem>
        <beam number="1">continue</beam>
        <beam number="2">end</beam>
        </note>
      <note default-x="132.01" default-y="-30.00" dynamics="111.11">
        <pitch>
          <step>G</step>
          <octave>4</octave>
          </pitch>
        <duration>240</duration>
        <voice>1</voice>
        <type>eighth</type>
        <stem>down</stem>
        <beam number="1">end</beam>
        </note>
      <note default-x="162.12" default-y="-15.00" dynamics="111.11">
        <pitch>
          <step>C</step>
          <octave>5</octave>
          </pitch>
        <duration>360</duration>
        <voice>1</voice>
        <type>eighth</type>
        <dot/>
        <stem>up</stem>
        <beam number="1">begin</beam>
        </note>
      <note default-x="198.83" default-y="-30.00" dynamics="111.11">
        <pitch>
          <step>G</step>
          <octave>4</octave>
          </pitch>
        <duration>120</duration>
        <voice>1</voice>
        <type>16th</type>
        <stem>up</stem>
        <beam number="1">end</beam>
        <beam number="2">backward hook</beam>
        </note>
      <note default-x="219.50" default-y="10.00" dynamics="111.11">
        <pitch>
          <step>A</step>
          <alter>-1</alter>
          <octave>5</octave>
          </pitch>
        <duration>480</duration>
        <voice>1</voice>
        <type>quarter</type>
        <stem>down</stem>
        <notations>
          <articulations>
            <staccato/>
            </articulations>
          </notations>
        </note>
      </measure>
    <measure number="6" width="283.26">
      <note>
        <rest/>
        <duration>240</duration>
        <voice>1</voice>
        <type>eighth</type>
        </note>
      <note default-x="41.10" default-y="-20.00" dynamics="111.11">
        <pitch>
          <step>B</step>
          <alter>-1</alter>
          <octave>4</octave>
          </pitch>
        <duration>240</duration>
        <voice>1</voice>
        <type>eighth</type>
        <stem>down</stem>
        </note>
      <note default-x="70.01" default-y="-35.00" dynamics="111.11">
        <pitch>
          <step>F</step>
          <octave>4</octave>
          </pitch>
        <duration>80</duration>
        <voice>1</voice>
        <type>16th</type>
        <time-modification>
          <actual-notes>3</actual-notes>
          <normal-notes>2</normal-notes>
          </time-modification>
        <stem>up</stem>
        <beam number="1">begin</beam>
        <beam number="2">begin</beam>
        <notations>
          <tuplet type="start" bracket="no"/>
          </notations>
        </note>
      <note default-x="99.03" default-y="-55.00" dynamics="111.11">
        <pitch>
          <step>B</step>
          <octave>3</octave>
          </pitch>
        <duration>80</duration>
        <voice>1</voice>
        <type>16th</type>
        <accidental>natural</accidental>
        <time-modification>
          <actual-notes>3</actual-notes>
          <normal-notes>2</normal-notes>
          </time-modification>
        <stem>up</stem>
        <beam number="1">continue</beam>
        <beam number="2">continue</beam>
        </note>
      <note default-x="114.70" default-y="-45.00" dynamics="111.11">
        <pitch>
          <step>D</step>
          <octave>4</octave>
          </pitch>
        <duration>80</duration>
        <voice>1</voice>
        <type>16th</type>
        <time-modification>
          <actual-notes>3</actual-notes>
          <normal-notes>2</normal-notes>
          </time-modification>
        <stem>up</stem>
        <beam number="1">continue</beam>
        <beam number="2">continue</beam>
        <notations>
          <tuplet type="stop"/>
          </notations>
        </note>
      <note default-x="130.36" default-y="-35.00" dynamics="111.11">
        <pitch>
          <step>F</step>
          <octave>4</octave>
          </pitch>
        <duration>80</duration>
        <voice>1</voice>
        <type>16th</type>
        <time-modification>
          <actual-notes>3</actual-notes>
          <normal-notes>2</normal-notes>
          <normal-type>16th</normal-type>
          </time-modification>
        <stem>up</stem>
        <beam number="1">continue</beam>
        <beam number="2">end</beam>
        <notations>
          <tuplet type="start" bracket="no"/>
          </notations>
        </note>
      <note default-x="146.03" default-y="-25.00" dynamics="111.11">
        <pitch>
          <step>A</step>
          <alter>-1</alter>
          <octave>4</octave>
          </pitch>
        <duration>160</duration>
        <voice>1</voice>
        <type>eighth</type>
        <time-modification>
          <actual-notes>3</actual-notes>
          <normal-notes>2</normal-notes>
          <normal-type>16th</normal-type>
          </time-modification>
        <stem>up</stem>
        <beam number="1">end</beam>
        <notations>
          <tuplet type="stop"/>
          </notations>
        </note>
      <note default-x="169.73" default-y="-15.00" dynamics="111.11">
        <pitch>
          <step>C</step>
          <octave>5</octave>
          </pitch>
        <duration>360</duration>
        <voice>1</voice>
        <type>eighth</type>
        <dot/>
        <stem>up</stem>
        <beam number="1">begin</beam>
        </note>
      <note default-x="203.83" default-y="-30.00" dynamics="111.11">
        <pitch>
          <step>G</step>
          <octave>4</octave>
          </pitch>
        <duration>120</duration>
        <tie type="start"/>
        <voice>1</voice>
        <type>16th</type>
        <stem>up</stem>
        <beam number="1">end</beam>
        <beam number="2">backward hook</beam>
        <notations>
          <tied type="start"/>
          </notations>
        </note>
      <note default-x="223.85" default-y="-30.00" dynamics="111.11">
        <pitch>
          <step>G</step>
          <octave>4</octave>
          </pitch>
        <duration>240</duration>
        <tie type="stop"/>
        <voice>1</voice>
        <type>eighth</type>
        <stem>up</stem>
        <beam number="1">begin</beam>
        <notations>
          <tied type="stop"/>
          </notations>
        </note>
      <note default-x="252.75" default-y="-45.00" dynamics="111.11">
        <pitch>
          <step>D</step>
          <octave>4</octave>
          </pitch>
        <duration>240</duration>
        <voice>1</voice>
        <type>eighth</type>
        <stem>up</stem>
        <beam number="1">end</beam>
        </note>
      </measure>
    <measure number="7" width="407.42">
      <print new-system="yes">
        <system-layout>
          <system-margins>
            <left-margin>0.00</left-margin>
            <right-margin>0.00</right-margin>
            </system-margins>
          <system-distance>150.00</system-distance>
          </system-layout>
        </print>
      <note>
        <rest/>
        <duration>240</duration>
        <voice>1</voice>
        <type>eighth</type>
        </note>
      <note>
        <rest/>
        <duration>120</duration>
        <voice>1</voice>
        <type>16th</type>
        </note>
      <note default-x="141.49" default-y="-40.00" dynamics="111.11">
        <pitch>
          <step>E</step>
          <alter>-1</alter>
          <octave>4</octave>
          </pitch>
        <duration>120</duration>
        <voice>1</voice>
        <type>16th</type>
        <stem>up</stem>
        </note>
      <note default-x="166.79" default-y="-35.00" dynamics="111.11">
        <pitch>
          <step>F</step>
          <octave>4</octave>
          </pitch>
        <duration>120</duration>
        <voice>1</voice>
        <type>16th</type>
        <stem>up</stem>
        <beam number="1">begin</beam>
        <beam number="2">begin</beam>
        </note>
      <note default-x="189.14" default-y="-30.00" dynamics="111.11">
        <pitch>
          <step>G</step>
          <octave>4</octave>
          </pitch>
        <duration>120</duration>
        <voice>1</voice>
        <type>16th</type>
        <stem>up</stem>
        <beam number="1">continue</beam>
        <beam number="2">end</beam>
        </note>
      <note default-x="211.49" default-y="-20.00" dynamics="111.11">
        <pitch>
          <step>B</step>
          <alter>-1</alter>
          <octave>4</octave>
          </pitch>
        <duration>240</duration>
        <voice>1</voice>
        <type>eighth</type>
        <stem>up</stem>
        <beam number="1">end</beam>
        </note>
      <note default-x="247.25" default-y="-20.00" dynamics="111.11">
        <pitch>
          <step>B</step>
          <alter>-1</alter>
          <octave>4</octave>
          </pitch>
        <duration>240</duration>
        <voice>1</voice>
        <type>eighth</type>
        <stem>down</stem>
        <beam number="1">begin</beam>
        </note>
      <note default-x="283.02" default-y="-15.00" dynamics="111.11">
        <pitch>
          <step>C</step>
          <octave>5</octave>
          </pitch>
        <duration>120</duration>
        <voice>1</voice>
        <type>16th</type>
        <stem>down</stem>
        <beam number="1">continue</beam>
        <beam number="2">begin</beam>
        </note>
      <note default-x="311.95" default-y="5.00" dynamics="111.11">
        <pitch>
          <step>G</step>
          <alter>-1</alter>
          <octave>5</octave>
          </pitch>
        <duration>120</duration>
        <tie type="start"/>
        <voice>1</voice>
        <type>16th</type>
        <accidental>flat</accidental>
        <stem>down</stem>
        <beam number="1">end</beam>
        <beam number="2">end</beam>
        <notations>
          <tied type="start"/>
          </notations>
        </note>
      <note default-x="334.30" default-y="5.00" dynamics="111.11">
        <pitch>
          <step>G</step>
          <alter>-1</alter>
          <octave>5</octave>
          </pitch>
        <duration>240</duration>
        <tie type="stop"/>
        <voice>1</voice>
        <type>eighth</type>
        <stem>down</stem>
        <beam number="1">begin</beam>
        <notations>
          <tied type="stop"/>
          </notations>
        </note>
      <note default-x="370.06" default-y="0.00" dynamics="111.11">
        <pitch>
          <step>F</step>
          <octave>5</octave>
          </pitch>
        <duration>240</duration>
        <tie type="start"/>
        <voice>1</voice>
        <type>eighth</type>
        <stem>down</stem>
        <beam number="1">end</beam>
        <notations>
          <tied type="start"/>
          </notations>
        </note>
      </measure>
    <measure number="8" width="342.85">
      <note default-x="12.00" default-y="0.00" dynamics="111.11">
        <pitch>
          <step>F</step>
          <octave>5</octave>
          </pitch>
        <duration>120</duration>
        <tie type="stop"/>
        <voice>1</voice>
        <type>16th</type>
        <stem>down</stem>
        <beam number="1">begin</beam>
        <beam number="2">forward hook</beam>
        <notations>
          <tied type="stop"/>
          </notations>
        </note>
      <note default-x="36.39" default-y="0.00" dynamics="111.11">
        <pitch>
          <step>F</step>
          <octave>5</octave>
          </pitch>
        <duration>240</duration>
        <voice>1</voice>
        <type>eighth</type>
        <stem>down</stem>
        <beam number="1">continue</beam>
        </note>
      <note default-x="75.42" default-y="20.00" dynamics="111.11">
        <pitch>
          <step>C</step>
          <octave>6</octave>
          </pitch>
        <duration>120</duration>
        <voice>1</voice>
        <type>16th</type>
        <stem>down</stem>
        <beam number="1">end</beam>
        <beam number="2">backward hook</beam>
        </note>
      <note default-x="99.81" default-y="30.00" dynamics="111.11">
        <pitch>
          <step>E</step>
          <alter>-1</alter>
          <octave>6</octave>
          </pitch>
        <duration>120</duration>
        <voice>1</voice>
        <type>16th</type>
        <stem>down</stem>
        <beam number="1">begin</beam>
        <beam number="2">begin</beam>
        </note>
      <note default-x="124.20" default-y="10.00" dynamics="111.11">
        <pitch>
          <step>A</step>
          <alter>-1</alter>
          <octave>5</octave>
          </pitch>
        <duration>120</duration>
        <voice>1</voice>
        <type>16th</type>
        <stem>down</stem>
        <beam number="1">continue</beam>
        <beam number="2">end</beam>
        </note>
      <note default-x="148.60" default-y="20.00" dynamics="111.11">
        <pitch>
          <step>C</step>
          <octave>6</octave>
          </pitch>
        <duration>240</duration>
        <voice>1</voice>
        <type>eighth</type>
        <stem>down</stem>
        <beam number="1">end</beam>
        </note>
      <note default-x="187.62" default-y="-30.00" dynamics="111.11">
        <pitch>
          <step>G</step>
          <octave>4</octave>
          </pitch>
        <duration>320</duration>
        <voice>1</voice>
        <type>quarter</type>
        <time-modification>
          <actual-notes>3</actual-notes>
          <normal-notes>2</normal-notes>
          <normal-type>eighth</normal-type>
          </time-modification>
        <stem>up</stem>
        <notations>
          <tuplet type="start" bracket="yes"/>
          </notations>
        </note>
      <note default-x="232.73" default-y="-30.00" dynamics="111.11">
        <pitch>
          <step>G</step>
          <octave>4</octave>
          </pitch>
        <duration>160</duration>
        <tie type="start"/>
        <voice>1</voice>
        <type>eighth</type>
        <time-modification>
          <actual-notes>3</actual-notes>
          <normal-notes>2</normal-notes>
          <normal-type>eighth</normal-type>
          </time-modification>
        <stem>up</stem>
        <notations>
          <tied type="start"/>
          <tuplet type="stop"/>
          </notations>
        </note>
      <note default-x="263.19" default-y="-30.00" dynamics="111.11">
        <pitch>
          <step>G</step>
          <octave>4</octave>
          </pitch>
        <duration>240</duration>
        <tie type="stop"/>
        <voice>1</voice>
        <type>eighth</type>
        <stem>up</stem>
        <beam number="1">begin</beam>
        <notations>
          <tied type="stop"/>
          </notations>
        </note>
      <note default-x="302.22" default-y="-30.00" dynamics="111.11">
        <pitch>
          <step>G</step>
          <octave>4</octave>
          </pitch>
        <duration>240</duration>
        <voice>1</voice>
        <type>eighth</type>
        <stem>up</stem>
        <beam number="1">end</beam>
        </note>
      </measure>
    <measure number="9" width="326.89">
      <note>
        <rest/>
        <duration>160</duration>
        <voice>1</voice>
        <type>eighth</type>
        <time-modification>
          <actual-notes>3</actual-notes>
          <normal-notes>2</normal-notes>
          </time-modification>
        <notations>
          <tuplet type="start" bracket="yes"/>
          </notations>
        </note>
      <note default-x="39.84" default-y="15.00" dynamics="111.11">
        <pitch>
          <step>B</step>
          <alter>-1</alter>
          <octave>5</octave>
          </pitch>
        <duration>160</duration>
        <voice>1</voice>
        <type>eighth</type>
        <time-modification>
          <actual-notes>3</actual-notes>
          <normal-notes>2</normal-notes>
          </time-modification>
        <stem>up</stem>
        <beam number="1">begin</beam>
        </note>
      <note default-x="67.48" default-y="5.00" dynamics="111.11">
        <pitch>
          <step>G</step>
          <octave>5</octave>
          </pitch>
        <duration>160</duration>
        <voice>1</voice>
        <type>eighth</type>
        <time-modification>
          <actual-notes>3</actual-notes>
          <normal-notes>2</normal-notes>
          </time-modification>
        <stem>up</stem>
        <beam number="1">end</beam>
        <notations>
          <tuplet type="stop"/>
          </notations>
        </note>
      <note default-x="95.13" default-y="0.00" dynamics="111.11">
        <pitch>
          <step>F</step>
          <octave>5</octave>
          </pitch>
        <duration>120</duration>
        <voice>1</voice>
        <type>16th</type>
        <stem>up</stem>
        <beam number="1">begin</beam>
        <beam number="2">begin</beam>
        </note>
      <note default-x="117.26" default-y="-5.00" dynamics="111.11">
        <pitch>
          <step>E</step>
          <alter>-1</alter>
          <octave>5</octave>
          </pitch>
        <duration>120</duration>
        <voice>1</voice>
        <type>16th</type>
        <stem>up</stem>
        <beam number="1">continue</beam>
        <beam number="2">end</beam>
        </note>
      <note default-x="139.39" default-y="-10.00" dynamics="111.11">
        <pitch>
          <step>D</step>
          <octave>5</octave>
          </pitch>
        <duration>240</duration>
        <voice>1</voice>
        <type>eighth</type>
        <stem>up</stem>
        <beam number="1">end</beam>
        </note>
      <note default-x="174.80" default-y="-15.00" dynamics="111.11">
        <pitch>
          <step>C</step>
          <octave>5</octave>
          </pitch>
        <duration>120</duration>
        <voice>1</voice>
        <type>16th</type>
        <stem>up</stem>
        <beam number="1">begin</beam>
        <beam number="2">begin</beam>
        </note>
      <note default-x="196.93" default-y="-10.00" dynamics="111.11">
        <pitch>
          <step>D</step>
          <octave>5</octave>
          </pitch>
        <duration>120</duration>
        <voice>1</voice>
        <type>16th</type>
        <stem>up</stem>
        <beam number="1">continue</beam>
        <beam number="2">end</beam>
        </note>
      <note default-x="219.06" default-y="-5.00" dynamics="111.11">
        <pitch>
          <step>E</step>
          <alter>-1</alter>
          <octave>5</octave>
          </pitch>
        <duration>240</duration>
        <voice>1</voice>
        <type>eighth</type>
        <stem>up</stem>
        <beam number="1">end</beam>
        </note>
      <note default-x="254.47" default-y="5.00" dynamics="111.11">
        <pitch>
          <step>G</step>
          <octave>5</octave>
          </pitch>
        <duration>240</duration>
        <voice>1</voice>
        <type>eighth</type>
        <stem>up</stem>
        <beam number="1">begin</beam>
        </note>
      <note default-x="289.88" default-y="-10.00" dynamics="111.11">
        <pitch>
          <step>D</step>
          <octave>5</octave>
          </pitch>
        <duration>240</duration>
        <voice>1</voice>
        <type>eighth</type>
        <stem>up</stem>
        <beam number="1">end</beam>
        </note>
      <backup>
        <duration>1920</duration>
        </backup>
      <note default-x="12.20" default-y="-20.00" dynamics="111.11">
        <pitch>
          <step>B</step>
          <alter>-1</alter>
          <octave>4</octave>
          </pitch>
        <duration>480</duration>
        <voice>2</voice>
        <type>quarter</type>
        <stem>down</stem>
        <notations>
          <articulations>
            <staccato/>
            </articulations>
          </notations>
        </note>
      <note>
        <rest/>
        <duration>480</duration>
        <voice>2</voice>
        <type>quarter</type>
        </note>
      <note>
        <rest/>
        <duration>960</duration>
        <voice>2</voice>
        <type>half</type>
        </note>
      </measure>
    <measure number="10" width="587.43">
      <print new-system="yes">
        <system-layout>
          <system-margins>
            <left-margin>0.00</left-margin>
            <right-margin>0.00</right-margin>
            </system-margins>
          <system-distance>150.00</system-distance>
          </system-layout>
        </print>
      <note default-x="83.18" default-y="-15.00" dynamics="111.11">
        <pitch>
          <step>C</step>
          <octave>5</octave>
          </pitch>
        <duration>360</duration>
        <voice>1</voice>
        <type>eighth</type>
        <dot/>
        <stem>up</stem>
        <beam number="1">begin</beam>
        </note>
      <note default-x="152.48" default-y="-25.00" dynamics="111.11">
        <pitch>
          <step>A</step>
          <octave>4</octave>
          </pitch>
        <duration>120</duration>
        <voice>1</voice>
        <type>16th</type>
        <accidental>natural</accidental>
        <stem>up</stem>
        <beam number="1">end</beam>
        <beam number="2">backward hook</beam>
        </note>
      <note default-x="188.00" default-y="-30.00" dynamics="111.11">
        <pitch>
          <step>G</step>
          <alter>-1</alter>
          <octave>4</octave>
          </pitch>
        <duration>120</duration>
        <voice>1</voice>
        <type>16th</type>
        <accidental>flat</accidental>
        <stem>up</stem>
        <beam number="1">begin</beam>
        <beam number="2">begin</beam>
        </note>
      <note default-x="223.52" default-y="-40.00" dynamics="111.11">
        <pitch>
          <step>E</step>
          <alter>-1</alter>
          <octave>4</octave>
          </pitch>
        <duration>120</duration>
        <voice>1</voice>
        <type>16th</type>
        <stem>up</stem>
        <beam number="1">continue</beam>
        <beam number="2">continue</beam>
        </note>
      <note default-x="259.04" default-y="-45.00" dynamics="111.11">
        <pitch>
          <step>D</step>
          <octave>4</octave>
          </pitch>
        <duration>120</duration>
        <voice>1</voice>
        <type>16th</type>
        <stem>up</stem>
        <beam number="1">continue</beam>
        <beam number="2">continue</beam>
        </note>
      <note default-x="294.56" default-y="-50.00" dynamics="111.11">
        <pitch>
          <step>C</step>
          <octave>4</octave>
          </pitch>
        <duration>120</duration>
        <voice>1</voice>
        <type>16th</type>
        <stem>up</stem>
        <beam number="1">end</beam>
        <beam number="2">end</beam>
        </note>
      <note default-x="330.08" default-y="-50.00" dynamics="111.11">
        <pitch>
          <step>C</step>
          <octave>4</octave>
          </pitch>
        <duration>240</duration>
        <voice>1</voice>
        <type>eighth</type>
        <stem>up</stem>
        <beam number="1">begin</beam>
        </note>
      <note default-x="386.91" default-y="-30.00" dynamics="111.11">
        <pitch>
          <step>G</step>
          <alter>-1</alter>
          <octave>4</octave>
          </pitch>
        <duration>240</duration>
        <voice>1</voice>
        <type>eighth</type>
        <stem>up</stem>
        <beam number="1">end</beam>
        </note>
      <note default-x="443.74" default-y="-15.00" dynamics="111.11">
        <pitch>
          <step>C</step>
          <octave>5</octave>
          </pitch>
        <duration>120</duration>
        <voice>1</voice>
        <type>16th</type>
        <stem>up</stem>
        <beam number="1">begin</beam>
        <beam number="2">begin</beam>
        </note>
      <note default-x="479.26" default-y="-25.00" dynamics="111.11">
        <pitch>
          <step>A</step>
          <alter>-1</alter>
          <octave>4</octave>
          </pitch>
        <duration>120</duration>
        <voice>1</voice>
        <type>16th</type>
        <accidental>flat</accidental>
        <stem>up</stem>
        <beam number="1">continue</beam>
        <beam number="2">continue</beam>
        </note>
      <note default-x="514.78" default-y="-35.00" dynamics="111.11">
        <pitch>
          <step>F</step>
          <octave>4</octave>
          </pitch>
        <duration>120</duration>
        <voice>1</voice>
        <type>16th</type>
        <stem>up</stem>
        <beam number="1">continue</beam>
        <beam number="2">continue</beam>
        </note>
      <note default-x="550.31" default-y="-20.00" dynamics="111.11">
        <pitch>
          <step>B</step>
          <alter>-1</alter>
          <octave>4</octave>
          </pitch>
        <duration>120</duration>
        <voice>1</voice>
        <type>16th</type>
        <stem>up</stem>
        <beam number="1">end</beam>
        <beam number="2">end</beam>
        </note>
      </measure>
    <measure number="11" width="489.74">
      <note default-x="13.00" default-y="-30.00" dynamics="111.11">
        <pitch>
          <step>G</step>
          <octave>4</octave>
          </pitch>
        <duration>480</duration>
        <voice>1</voice>
        <type>quarter</type>
        <stem>up</stem>
        <notations>
          <articulations>
            <staccato/>
            </articulations>
          </notations>
        </note>
      <note>
        <rest/>
        <duration>480</duration>
        <voice>1</voice>
        <type>quarter</type>
        </note>
      <note>
        <rest/>
        <duration>960</duration>
        <voice>1</voice>
        <type>half</type>
        </note>
      <backup>
        <duration>1920</duration>
        </backup>
      <note>
        <rest/>
        <duration>96</duration>
        <voice>2</voice>
        <type>16th</type>
        <time-modification>
          <actual-notes>5</actual-notes>
          <normal-notes>4</normal-notes>
          <normal-type>16th</normal-type>
          </time-modification>
        <notations>
          <tuplet type="start" bracket="yes"/>
          </notations>
        </note>
      <note default-x="42.79" default-y="-40.00" dynamics="111.11">
        <pitch>
          <step>E</step>
          <alter>-1</alter>
          <octave>4</octave>
          </pitch>
        <duration>192</duration>
        <voice>2</voice>
        <type>eighth</type>
        <time-modification>
          <actual-notes>5</actual-notes>
          <normal-notes>4</normal-notes>
          <normal-type>16th</normal-type>
          </time-modification>
        <stem>down</stem>
        <beam number="1">begin</beam>
        </note>
      <note default-x="90.44" default-y="-50.00" dynamics="111.11">
        <pitch>
          <step>C</step>
          <octave>4</octave>
          </pitch>
        <duration>96</duration>
        <voice>2</voice>
        <type>16th</type>
        <time-modification>
          <actual-notes>5</actual-notes>
          <normal-notes>4</normal-notes>
          <normal-type>16th</normal-type>
          </time-modification>
        <stem>down</stem>
        <beam number="1">continue</beam>
        <beam number="2">begin</beam>
        </note>
      <note default-x="120.23" default-y="-55.00" dynamics="111.11">
        <pitch>
          <step>B</step>
          <alter>-1</alter>
          <octave>3</octave>
          </pitch>
        <duration>96</duration>
        <tie type="start"/>
        <voice>2</voice>
        <type>16th</type>
        <time-modification>
          <actual-notes>5</actual-notes>
          <normal-notes>4</normal-notes>
          <normal-type>16th</normal-type>
          </time-modification>
        <stem>down</stem>
        <beam number="1">end</beam>
        <beam number="2">end</beam>
        <notations>
          <tied type="start"/>
          <tuplet type="stop"/>
          </notations>
        </note>
      <note default-x="150.01" default-y="-55.00" dynamics="111.11">
        <pitch>
          <step>B</step>
          <alter>-1</alter>
          <octave>3</octave>
          </pitch>
        <duration>240</duration>
        <tie type="stop"/>
        <voice>2</voice>
        <type>eighth</type>
        <stem>down</stem>
        <beam number="1">begin</beam>
        <notations>
          <tied type="stop"/>
          </notations>
        </note>
      <note default-x="203.42" default-y="-30.00" dynamics="111.11">
        <pitch>
          <step>G</step>
          <octave>4</octave>
          </pitch>
        <duration>240</duration>
        <voice>2</voice>
        <type>eighth</type>
        <stem>down</stem>
        <beam number="1">end</beam>
        </note>
      <note default-x="256.83" default-y="-30.00" dynamics="111.11">
        <pitch>
          <step>G</step>
          <alter>-1</alter>
          <octave>4</octave>
          </pitch>
        <duration>240</duration>
        <voice>2</voice>
        <type>eighth</type>
        <accidental>flat</accidental>
        <stem>down</stem>
        <beam number="1">begin</beam>
        </note>
      <note default-x="310.24" default-y="-40.00" dynamics="111.11">
        <pitch>
          <step>E</step>
          <alter>-1</alter>
          <octave>4</octave>
          </pitch>
        <duration>120</duration>
        <voice>2</voice>
        <type>16th</type>
        <stem>down</stem>
        <beam number="1">continue</beam>
        <beam number="2">begin</beam>
        </note>
      <note default-x="345.78" default-y="-20.00" dynamics="111.11">
        <pitch>
          <step>B</step>
          <alter>-1</alter>
          <octave>4</octave>
          </pitch>
        <duration>120</duration>
        <voice>2</voice>
        <type>16th</type>
        <stem>down</stem>
        <beam number="1">end</beam>
        <beam number="2">end</beam>
        </note>
      <note default-x="381.32" default-y="-5.00" dynamics="111.11">
        <pitch>
          <step>E</step>
          <alter>-1</alter>
          <octave>5</octave>
          </pitch>
        <duration>240</duration>
        <voice>2</voice>
        <type>eighth</type>
        <stem>down</stem>
        <beam number="1">begin</beam>
        </note>
      <note default-x="434.73" default-y="-20.00" dynamics="111.11">
        <pitch>
          <step>B</step>
          <alter>-1</alter>
          <octave>4</octave>
          </pitch>
        <duration>240</duration>
        <voice>2</voice>
        <type>eighth</type>
        <stem>down</stem>
        <beam number="1">end</beam>
        </note>
      </measure>
    <measure number="12" width="587.84">
      <print new-system="yes">
        <system-layout>
          <system-margins>
            <left-margin>0.00</left-margin>
            <right-margin>0.00</right-margin>
            </system-margins>
          <system-distance>150.00</system-distance>
          </system-layout>
        </print>
      <note default-x="83.18" default-y="-10.00" dynamics="111.11">
        <pitch>
          <step>D</step>
          <octave>5</octave>
          </pitch>
        <duration>120</duration>
        <voice>1</voice>
        <type>16th</type>
        <stem>down</stem>
        <beam number="1">begin</beam>
        <beam number="2">begin</beam>
        </note>
      <note default-x="114.67" default-y="-20.00" dynamics="111.11">
        <pitch>
          <step>B</step>
          <alter>-1</alter>
          <octave>4</octave>
          </pitch>
        <duration>120</duration>
        <voice>1</voice>
        <type>16th</type>
        <stem>down</stem>
        <beam number="1">continue</beam>
        <beam number="2">continue</beam>
        </note>
      <note default-x="146.15" default-y="-25.00" dynamics="111.11">
        <pitch>
          <step>A</step>
          <alter>-1</alter>
          <octave>4</octave>
          </pitch>
        <duration>120</duration>
        <voice>1</voice>
        <type>16th</type>
        <stem>down</stem>
        <beam number="1">continue</beam>
        <beam number="2">continue</beam>
        </note>
      <note default-x="177.64" default-y="-30.00" dynamics="111.11">
        <pitch>
          <step>G</step>
          <octave>4</octave>
          </pitch>
        <duration>120</duration>
        <voice>1</voice>
        <type>16th</type>
        <stem>down</stem>
        <beam number="1">end</beam>
        <beam number="2">end</beam>
        </note>
      <note default-x="209.13" default-y="-40.00" dynamics="111.11">
        <pitch>
          <step>E</step>
          <octave>4</octave>
          </pitch>
        <duration>120</duration>
        <voice>1</voice>
        <type>16th</type>
        <accidental>natural</accidental>
        <stem>up</stem>
        <beam number="1">begin</beam>
        <beam number="2">forward hook</beam>
        </note>
      <note default-x="240.61" default-y="-45.00" dynamics="111.11">
        <pitch>
          <step>D</step>
          <octave>4</octave>
          </pitch>
        <duration>240</duration>
        <voice>1</voice>
        <type>eighth</type>
        <stem>up</stem>
        <beam number="1">continue</beam>
        </note>
      <note default-x="290.99" default-y="-25.00" dynamics="111.11">
        <pitch>
          <step>A</step>
          <alter>-1</alter>
          <octave>4</octave>
          </pitch>
        <duration>120</duration>
        <tie type="start"/>
        <voice>1</voice>
        <type>16th</type>
        <stem>up</stem>
        <beam number="1">end</beam>
        <beam number="2">backward hook</beam>
        <notations>
          <tied type="start"/>
          </notations>
        </note>
      <note default-x="322.48" default-y="-25.00" dynamics="111.11">
        <pitch>
          <step>A</step>
          <alter>-1</alter>
          <octave>4</octave>
          </pitch>
        <duration>120</duration>
        <tie type="stop"/>
        <voice>1</voice>
        <type>16th</type>
        <stem>up</stem>
        <beam number="1">begin</beam>
        <beam number="2">begin</beam>
        <notations>
          <tied type="stop"/>
          </notations>
        </note>
      <note default-x="353.97" default-y="-50.00" dynamics="111.11">
        <pitch>
          <step>C</step>
          <octave>4</octave>
          </pitch>
        <duration>120</duration>
        <voice>1</voice>
        <type>16th</type>
        <stem>up</stem>
        <beam number="1">continue</beam>
        <beam number="2">continue</beam>
        </note>
      <note default-x="385.46" default-y="-40.00" dynamics="111.11">
        <pitch>
          <step>E</step>
          <octave>4</octave>
          </pitch>
        <duration>120</duration>
        <voice>1</voice>
        <type>16th</type>
        <stem>up</stem>
        <beam number="1">continue</beam>
        <beam number="2">continue</beam>
        </note>
      <attributes>
        <clef>
          <sign>F</sign>
          <line>4</line>
          </clef>
        </attributes>
      <note default-x="441.40" default-y="5.00" dynamics="111.11">
        <pitch>
          <step>B</step>
          <octave>3</octave>
          </pitch>
        <duration>120</duration>
        <tie type="start"/>
        <voice>1</voice>
        <type>16th</type>
        <accidental>natural</accidental>
        <stem>up</stem>
        <beam number="1">end</beam>
        <beam number="2">end</beam>
        <notations>
          <tied type="start"/>
          </notations>
        </note>
      <note default-x="472.88" default-y="5.00" dynamics="111.11">
        <pitch>
          <step>B</step>
          <octave>3</octave>
          </pitch>
        <duration>120</duration>
        <tie type="stop"/>
        <voice>1</voice>
        <type>16th</type>
        <stem>down</stem>
        <beam number="1">begin</beam>
        <beam number="2">begin</beam>
        <notations>
          <tied type="stop"/>
          </notations>
        </note>
      <note default-x="504.37" default-y="20.00" dynamics="111.11">
        <pitch>
          <step>E</step>
          <alter>-1</alter>
          <octave>4</octave>
          </pitch>
        <duration>120</duration>
        <voice>1</voice>
        <type>16th</type>
        <accidental>flat</accidental>
        <stem>down</stem>
        <beam number="1">continue</beam>
        <beam number="2">end</beam>
        </note>
      <note default-x="535.86" default-y="5.00" dynamics="111.11">
        <pitch>
          <step>B</step>
          <alter>-1</alter>
          <octave>3</octave>
          </pitch>
        <duration>240</duration>
        <voice>1</voice>
        <type>eighth</type>
        <accidental>flat</accidental>
        <stem>down</stem>
        <beam number="1">end</beam>
        </note>
      </measure>
    <measure number="13" width="489.33">
      <note default-x="12.00" default-y="20.00" dynamics="111.11">
        <pitch>
          <step>E</step>
          <alter>-1</alter>
          <octave>4</octave>
          </pitch>
        <duration>120</duration>
        <voice>1</voice>
        <type>16th</type>
        <stem>down</stem>
        <beam number="1">begin</beam>
        <beam number="2">begin</beam>
        </note>
      <note default-x="44.52" default-y="0.00" dynamics="111.11">
        <pitch>
          <step>A</step>
          <octave>3</octave>
          </pitch>
        <duration>120</duration>
        <voice>1</voice>
        <type>16th</type>
        <accidental>natural</accidental>
        <stem>down</stem>
        <beam number="1">continue</beam>
        <beam number="2">continue</beam>
        </note>
      <attributes>
        <clef>
          <sign>G</sign>
          <line>2</line>
          </clef>
        </attributes>
      <note default-x="87.82" default-y="-50.00" dynamics="111.11">
        <pitch>
          <step>C</step>
          <octave>4</octave>
          </pitch>
        <duration>120</duration>
        <voice>1</voice>
        <type>16th</type>
        <stem>down</stem>
        <beam number="1">continue</beam>
        <beam number="2">continue</beam>
        </note>
      <note default-x="120.34" default-y="-40.00" dynamics="111.11">
        <pitch>
          <step>E</step>
          <alter>-1</alter>
          <octave>4</octave>
          </pitch>
        <duration>120</duration>
        <voice>1</voice>
        <type>16th</type>
        <stem>down</stem>
        <beam number="1">end</beam>
        <beam number="2">end</beam>
        </note>
      <note default-x="152.86" default-y="-30.00" dynamics="111.11">
        <pitch>
          <step>G</step>
          <octave>4</octave>
          </pitch>
        <duration>160</duration>
        <voice>1</voice>
        <type>eighth</type>
        <time-modification>
          <actual-notes>3</actual-notes>
          <normal-notes>2</normal-notes>
          <normal-type>eighth</normal-type>
          </time-modification>
        <stem>up</stem>
        <notations>
          <tuplet type="start" bracket="yes"/>
          </notations>
        </note>
      <note default-x="193.47" default-y="-15.00" dynamics="111.11">
        <pitch>
          <step>C</step>
          <octave>5</octave>
          </pitch>
        <duration>320</duration>
        <tie type="start"/>
        <voice>1</voice>
        <type>quarter</type>
        <time-modification>
          <actual-notes>3</actual-notes>
          <normal-notes>2</normal-notes>
          <normal-type>eighth</normal-type>
          </time-modification>
        <stem>down</stem>
        <notations>
          <tied type="start"/>
          <tuplet type="stop"/>
          </notations>
        </note>
      <note default-x="253.60" default-y="-15.00" dynamics="111.11">
        <pitch>
          <step>C</step>
          <octave>5</octave>
          </pitch>
        <duration>240</duration>
        <tie type="stop"/>
        <voice>1</voice>
        <type>eighth</type>
        <stem>down</stem>
        <beam number="1">begin</beam>
        <notations>
          <tied type="stop"/>
          </notations>
        </note>
      <note default-x="305.63" default-y="-15.00" dynamics="111.11">
        <pitch>
          <step>C</step>
          <octave>5</octave>
          </pitch>
        <duration>120</duration>
        <voice>1</voice>
        <type>16th</type>
        <stem>down</stem>
        <beam number="1">continue</beam>
        <beam number="2">begin</beam>
        </note>
      <note default-x="338.15" default-y="-20.00" dynamics="111.11">
        <pitch>
          <step>B</step>
          <octave>4</octave>
          </pitch>
        <duration>120</duration>
        <tie type="start"/>
        <voice>1</voice>
        <type>16th</type>
        <accidental>natural</accidental>
        <stem>down</stem>
        <beam number="1">end</beam>
        <beam number="2">end</beam>
        <notations>
          <tied type="start"/>
          </notations>
        </note>
      <note default-x="370.66" default-y="-20.00" dynamics="111.11">
        <pitch>
          <step>B</step>
          <octave>4</octave>
          </pitch>
        <duration>120</duration>
        <tie type="stop"/>
        <voice>1</voice>
        <type>16th</type>
        <stem>down</stem>
        <beam number="1">begin</beam>
        <beam number="2">forward hook</beam>
        <notations>
          <tied type="stop"/>
          </notations>
        </note>
      <note default-x="403.18" default-y="-20.00" dynamics="111.11">
        <pitch>
          <step>B</step>
          <alter>-1</alter>
          <octave>4</octave>
          </pitch>
        <duration>240</duration>
        <voice>1</voice>
        <type>eighth</type>
        <accidental>flat</accidental>
        <stem>down</stem>
        <beam number="1">continue</beam>
        </note>
      <note default-x="455.21" default-y="-20.00" dynamics="111.11">
        <pitch>
          <step>B</step>
          <octave>4</octave>
          </pitch>
        <duration>120</duration>
        <tie type="start"/>
        <voice>1</voice>
        <type>16th</type>
        <accidental>natural</accidental>
        <stem>down</stem>
        <beam number="1">end</beam>
        <beam number="2">backward hook</beam>
        <notations>
          <tied type="start"/>
          </notations>
        </note>
      </measure>
    <measure number="14" width="531.32">
      <print new-system="yes">
        <system-layout>
          <system-margins>
            <left-margin>0.00</left-margin>
            <right-margin>0.00</right-margin>
            </system-margins>
          <system-distance>150.00</system-distance>
          </system-layout>
        </print>
      <note default-x="85.68" default-y="-20.00" dynamics="111.11">
        <pitch>
          <step>B</step>
          <octave>4</octave>
          </pitch>
        <duration>107</duration>
        <tie type="stop"/>
        <voice>1</voice>
        <type>16th</type>
        <time-modification>
          <actual-notes>9</actual-notes>
          <normal-notes>8</normal-notes>
          <normal-type>16th</normal-type>
          </time-modification>
        <stem>up</stem>
        <beam number="1">begin</beam>
        <beam number="2">begin</beam>
        <notations>
          <tied type="stop"/>
          <tuplet type="start" bracket="no"/>
          </notations>
        </note>
      <note default-x="115.37" default-y="-15.00" dynamics="111.11">
        <pitch>
          <step>C</step>
          <octave>5</octave>
          </pitch>
        <duration>107</duration>
        <voice>1</voice>
        <type>16th</type>
        <time-modification>
          <actual-notes>9</actual-notes>
          <normal-notes>8</normal-notes>
          <normal-type>16th</normal-type>
          </time-modification>
        <stem>up</stem>
        <beam number="1">continue</beam>
        <beam number="2">continue</beam>
        </note>
      <backup>
        <duration>1</duration>
        </backup>
      <note default-x="144.83" default-y="-20.00" dynamics="111.11">
        <pitch>
          <step>B</step>
          <octave>4</octave>
          </pitch>
        <duration>107</duration>
        <voice>1</voice>
        <type>16th</type>
        <accidental>natural</accidental>
        <time-modification>
          <actual-notes>9</actual-notes>
          <normal-notes>8</normal-notes>
          <normal-type>16th</normal-type>
          </time-modification>
        <stem>up</stem>
        <beam number="1">continue</beam>
        <beam number="2">continue</beam>
        </note>
      <note default-x="174.52" default-y="-25.00" dynamics="111.11">
        <pitch>
          <step>A</step>
          <alter>-1</alter>
          <octave>4</octave>
          </pitch>
        <duration>107</duration>
        <voice>1</voice>
        <type>16th</type>
        <time-modification>
          <actual-notes>9</actual-notes>
          <normal-notes>8</normal-notes>
          <normal-type>16th</normal-type>
          </time-modification>
        <stem>up</stem>
        <beam number="1">continue</beam>
        <beam number="2">end</beam>
        </note>
      <note default-x="204.21" default-y="-35.00" dynamics="111.11">
        <pitch>
          <step>F</step>
          <octave>4</octave>
          </pitch>
        <duration>213</duration>
        <voice>1</voice>
        <type>eighth</type>
        <time-modification>
          <actual-notes>9</actual-notes>
          <normal-notes>8</normal-notes>
          <normal-type>16th</normal-type>
          </time-modification>
        <stem>up</stem>
        <beam number="1">continue</beam>
        </note>
      <note default-x="251.46" default-y="-25.00" dynamics="111.11">
        <pitch>
          <step>A</step>
          <alter>-1</alter>
          <octave>4</octave>
          </pitch>
        <duration>107</duration>
        <voice>1</voice>
        <type>16th</type>
        <time-modification>
          <actual-notes>9</actual-notes>
          <normal-notes>8</normal-notes>
          <normal-type>16th</normal-type>
          </time-modification>
        <stem>up</stem>
        <beam number="1">continue</beam>
        <beam number="2">begin</beam>
        </note>
      <note default-x="281.15" default-y="-20.00" dynamics="111.11">
        <pitch>
          <step>B</step>
          <alter>-1</alter>
          <octave>4</octave>
          </pitch>
        <duration>107</duration>
        <voice>1</voice>
        <type>16th</type>
        <accidental>flat</accidental>
        <time-modification>
          <actual-notes>9</actual-notes>
          <normal-notes>8</normal-notes>
          <normal-type>16th</normal-type>
          </time-modification>
        <stem>up</stem>
        <beam number="1">continue</beam>
        <beam number="2">continue</beam>
        </note>
      <backup>
        <duration>1</duration>
        </backup>
      <note default-x="310.61" default-y="-25.00" dynamics="111.11">
        <pitch>
          <step>A</step>
          <alter>-1</alter>
          <octave>4</octave>
          </pitch>
        <duration>107</duration>
        <tie type="start"/>
        <voice>1</voice>
        <type>16th</type>
        <time-modification>
          <actual-notes>9</actual-notes>
          <normal-notes>8</normal-notes>
          <normal-type>16th</normal-type>
          </time-modification>
        <stem>up</stem>
        <beam number="1">end</beam>
        <beam number="2">end</beam>
        <notations>
          <tied type="start"/>
          <tuplet type="stop"/>
          </notations>
        </note>
      <note default-x="340.30" default-y="-25.00" dynamics="111.11">
        <pitch>
          <step>A</step>
          <alter>-1</alter>
          <octave>4</octave>
          </pitch>
        <duration>240</duration>
        <tie type="stop"/>
        <voice>1</voice>
        <type>eighth</type>
        <stem>up</stem>
        <notations>
          <tied type="stop"/>
          </notations>
        </note>
      <note default-x="411.46" default-y="-35.00" dynamics="111.11">
        <pitch>
          <step>F</step>
          <octave>4</octave>
          </pitch>
        <duration>720</duration>
        <voice>1</voice>
        <type>quarter</type>
        <dot/>
        <stem>up</stem>
        </note>
      <backup>
        <duration>1920</duration>
        </backup>
      <note>
        <rest/>
        <duration>960</duration>
        <voice>2</voice>
        <type>half</type>
        </note>
      <note>
        <rest/>
        <duration>120</duration>
        <voice>2</voice>
        <type>16th</type>
        </note>
      <note default-x="378.85" default-y="-30.00" dynamics="111.11">
        <pitch>
          <step>G</step>
          <alter>-1</alter>
          <octave>4</octave>
          </pitch>
        <duration>360</duration>
        <voice>2</voice>
        <type>eighth</type>
        <dot/>
        <accidental>flat</accidental>
        <stem>down</stem>
        <notations>
          <articulations>
            <staccato/>
            </articulations>
          </notations>
        </note>
      <note>
        <rest/>
        <duration>480</duration>
        <voice>2</voice>
        <type>quarter</type>
        </note>
      </measure>
    <measure number="15" width="545.85">
      <note default-x="12.00" default-y="30.00" dynamics="111.11">
        <pitch>
          <step>E</step>
          <alter>-1</alter>
          <octave>6</octave>
          </pitch>
        <duration>120</duration>
        <voice>1</voice>
        <type>16th</type>
        <stem>up</stem>
        <beam number="1">begin</beam>
        <beam number="2">begin</beam>
        </note>
      <note default-x="46.83" default-y="10.00" dynamics="111.11">
        <pitch>
          <step>A</step>
          <octave>5</octave>
          </pitch>
        <duration>120</duration>
        <voice>1</voice>
        <type>16th</type>
        <accidental>natural</accidental>
        <stem>up</stem>
        <beam number="1">continue</beam>
        <beam number="2">continue</beam>
        </note>
      <note default-x="81.66" default-y="10.00" dynamics="111.11">
        <pitch>
          <step>A</step>
          <alter>-1</alter>
          <octave>5</octave>
          </pitch>
        <duration>120</duration>
        <voice>1</voice>
        <type>16th</type>
        <accidental>flat</accidental>
        <stem>up</stem>
        <beam number="1">continue</beam>
        <beam number="2">continue</beam>
        </note>
      <note default-x="116.49" default-y="-5.00" dynamics="111.11">
        <pitch>
          <step>E</step>
          <octave>5</octave>
          </pitch>
        <duration>120</duration>
        <voice>1</voice>
        <type>16th</type>
        <accidental>natural</accidental>
        <stem>up</stem>
        <beam number="1">end</beam>
        <beam number="2">end</beam>
        </note>
      <note default-x="151.32" default-y="-5.00" dynamics="111.11">
        <pitch>
          <step>E</step>
          <alter>-1</alter>
          <octave>5</octave>
          </pitch>
        <duration>96</duration>
        <voice>1</voice>
        <type>16th</type>
        <accidental>flat</accidental>
        <time-modification>
          <actual-notes>5</actual-notes>
          <normal-notes>4</normal-notes>
          <normal-type>16th</normal-type>
          </time-modification>
        <stem>up</stem>
        <beam number="1">begin</beam>
        <beam number="2">begin</beam>
        <notations>
          <tuplet type="start" bracket="no"/>
          </notations>
        </note>
      <note default-x="182.94" default-y="-20.00" dynamics="111.11">
        <pitch>
          <step>B</step>
          <octave>4</octave>
          </pitch>
        <duration>96</duration>
        <voice>1</voice>
        <type>16th</type>
        <accidental>natural</accidental>
        <time-modification>
          <actual-notes>5</actual-notes>
          <normal-notes>4</normal-notes>
          <normal-type>16th</normal-type>
          </time-modification>
        <stem>up</stem>
        <beam number="1">continue</beam>
        <beam number="2">end</beam>
        </note>
      <note default-x="214.55" default-y="-25.00" dynamics="111.11">
        <pitch>
          <step>A</step>
          <alter>-1</alter>
          <octave>4</octave>
          </pitch>
        <duration>288</duration>
        <voice>1</voice>
        <type>eighth</type>
        <dot/>
        <time-modification>
          <actual-notes>5</actual-notes>
          <normal-notes>4</normal-notes>
          <normal-type>16th</normal-type>
          </time-modification>
        <stem>up</stem>
        <beam number="1">end</beam>
        <notations>
          <tuplet type="stop"/>
          </notations>
        </note>
      <note default-x="262.00" default-y="-35.00" dynamics="111.11">
        <pitch>
          <step>F</step>
          <octave>4</octave>
          </pitch>
        <duration>137</duration>
        <voice>1</voice>
        <type>16th</type>
        <time-modification>
          <actual-notes>7</actual-notes>
          <normal-notes>8</normal-notes>
          <normal-type>16th</normal-type>
          </time-modification>
        <stem>up</stem>
        <beam number="1">begin</beam>
        <beam number="2">begin</beam>
        <notations>
          <tuplet type="start" bracket="no"/>
          <articulations>
            <staccato/>
            </articulations>
          </notations>
        </note>
      <note default-x="315.27" default-y="-20.00" dynamics="111.11">
        <pitch>
          <step>B</step>
          <octave>4</octave>
          </pitch>
        <duration>137</duration>
        <voice>1</voice>
        <type>16th</type>
        <time-modification>
          <actual-notes>7</actual-notes>
          <normal-notes>8</normal-notes>
          <normal-type>16th</normal-type>
          </time-modification>
        <stem>up</stem>
        <beam number="1">continue</beam>
        <beam number="2">continue</beam>
        </note>
      <note default-x="364.55" default-y="15.00" dynamics="111.11">
        <pitch>
          <step>B</step>
          <alter>-1</alter>
          <octave>5</octave>
          </pitch>
        <duration>137</duration>
        <voice>1</voice>
        <type>16th</type>
        <time-modification>
          <actual-notes>7</actual-notes>
          <normal-notes>8</normal-notes>
          <normal-type>16th</normal-type>
          </time-modification>
        <stem>up</stem>
        <beam number="1">continue</beam>
        <beam number="2">end</beam>
        </note>
      <note default-x="401.29" default-y="10.00" dynamics="111.11">
        <pitch>
          <step>A</step>
          <alter>-1</alter>
          <octave>5</octave>
          </pitch>
        <duration>274</duration>
        <voice>1</voice>
        <type>eighth</type>
        <time-modification>
          <actual-notes>7</actual-notes>
          <normal-notes>8</normal-notes>
          <normal-type>16th</normal-type>
          </time-modification>
        <stem>up</stem>
        <beam number="1">continue</beam>
        </note>
      <forward>
        <duration>1</duration>
        </forward>
      <note default-x="470.77" default-y="5.00" dynamics="111.11">
        <pitch>
          <step>G</step>
          <octave>5</octave>
          </pitch>
        <duration>137</duration>
        <voice>1</voice>
        <type>16th</type>
        <time-modification>
          <actual-notes>7</actual-notes>
          <normal-notes>8</normal-notes>
          <normal-type>16th</normal-type>
          </time-modification>
        <stem>up</stem>
        <beam number="1">continue</beam>
        <beam number="2">begin</beam>
        </note>
      <note default-x="507.51" default-y="-5.00" dynamics="111.11">
        <pitch>
          <step>E</step>
          <alter>-1</alter>
          <octave>5</octave>
          </pitch>
        <duration>137</duration>
        <tie type="start"/>
        <voice>1</voice>
        <type>16th</type>
        <time-modification>
          <actual-notes>7</actual-notes>
          <normal-notes>8</normal-notes>
          <normal-type>16th</normal-type>
          </time-modification>
        <stem>up</stem>
        <beam number="1">end</beam>
        <beam number="2">end</beam>
        <notations>
          <tied type="start"/>
          <tuplet type="stop"/>
          </notations>
        </note>
      <backup>
        <duration>1920</duration>
        </backup>
      <note>
        <rest/>
        <duration>960</duration>
        <voice>2</voice>
        <type>half</type>
        </note>
      <note>
        <rest/>
        <duration>60</duration>
        <voice>2</voice>
        <type>32nd</type>
        </note>
      <note default-x="286.84" default-y="-25.00" dynamics="111.11">
        <pitch>
          <step>A</step>
          <alter>-1</alter>
          <octave>4</octave>
          </pitch>
        <duration>180</duration>
        <voice>2</voice>
        <type>16th</type>
        <dot/>
        <stem>down</stem>
        <notations>
          <articulations>
            <staccato/>
            </articulations>
          </notations>
        </note>
      <note>
        <rest/>
        <duration>240</duration>
        <voice>2</voice>
        <type>eighth</type>
        </note>
      <note>
        <rest/>
        <duration>480</duration>
        <voice>2</voice>
        <type>quarter</type>
        </note>
      </measure>
    <measure number="16" width="651.96">
      <print new-system="yes">
        <system-layout>
          <system-margins>
            <left-margin>0.00</left-margin>
            <right-margin>0.00</right-margin>
            </system-margins>
          <system-distance>150.00</system-distance>
          </system-layout>
        </print>
      <note default-x="85.68" default-y="-5.00" dynamics="111.11">
        <pitch>
          <step>E</step>
          <alter>-1</alter>
          <octave>5</octave>
          </pitch>
        <duration>120</duration>
        <tie type="stop"/>
        <voice>1</voice>
        <type>16th</type>
        <stem>down</stem>
        <beam number="1">begin</beam>
        <beam number="2">forward hook</beam>
        <notations>
          <tied type="stop"/>
          </notations>
        </note>
      <note default-x="131.20" default-y="-20.00" dynamics="111.11">
        <pitch>
          <step>B</step>
          <alter>-1</alter>
          <octave>4</octave>
          </pitch>
        <duration>360</duration>
        <voice>1</voice>
        <type>eighth</type>
        <dot/>
        <stem>down</stem>
        <beam number="1">end</beam>
        </note>
      <note default-x="208.76" default-y="-30.00" dynamics="111.11">
        <pitch>
          <step>G</step>
          <alter>-1</alter>
          <octave>4</octave>
          </pitch>
        <duration>240</duration>
        <voice>1</voice>
        <type>eighth</type>
        <accidental>flat</accidental>
        <stem>up</stem>
        <beam number="1">begin</beam>
        </note>
      <note default-x="274.50" default-y="-30.00" dynamics="111.11">
        <pitch>
          <step>G</step>
          <octave>4</octave>
          </pitch>
        <duration>240</duration>
        <voice>1</voice>
        <type>eighth</type>
        <accidental>natural</accidental>
        <stem>up</stem>
        <beam number="1">end</beam>
        </note>
      <note default-x="340.24" default-y="-25.00" dynamics="111.11">
        <pitch>
          <step>A</step>
          <alter>-1</alter>
          <octave>4</octave>
          </pitch>
        <duration>240</duration>
        <voice>1</voice>
        <type>eighth</type>
        <stem>up</stem>
        <beam number="1">begin</beam>
        </note>
      <note default-x="405.98" default-y="-20.00" dynamics="111.11">
        <pitch>
          <step>B</step>
          <alter>-1</alter>
          <octave>4</octave>
          </pitch>
        <duration>240</duration>
        <voice>1</voice>
        <type>eighth</type>
        <stem>up</stem>
        <beam number="1">end</beam>
        </note>
      <note default-x="471.71" default-y="30.00" dynamics="111.11">
        <pitch>
          <step>E</step>
          <alter>-1</alter>
          <octave>6</octave>
          </pitch>
        <duration>160</duration>
        <voice>1</voice>
        <type>eighth</type>
        <time-modification>
          <actual-notes>3</actual-notes>
          <normal-notes>2</normal-notes>
          <normal-type>16th</normal-type>
          </time-modification>
        <stem>down</stem>
        <beam number="1">begin</beam>
        <notations>
          <tuplet type="start" bracket="no"/>
          </notations>
        </note>
      <note default-x="525.63" default-y="25.00" dynamics="111.11">
        <pitch>
          <step>D</step>
          <octave>6</octave>
          </pitch>
        <duration>80</duration>
        <voice>1</voice>
        <type>16th</type>
        <time-modification>
          <actual-notes>3</actual-notes>
          <normal-notes>2</normal-notes>
          <normal-type>16th</normal-type>
          </time-modification>
        <stem>down</stem>
        <beam number="1">continue</beam>
        <beam number="2">begin</beam>
        <notations>
          <tuplet type="stop"/>
          </notations>
        </note>
      <note default-x="559.32" default-y="20.00" dynamics="111.11">
        <pitch>
          <step>C</step>
          <octave>6</octave>
          </pitch>
        <duration>120</duration>
        <voice>1</voice>
        <type>16th</type>
        <stem>down</stem>
        <beam number="1">continue</beam>
        <beam number="2">continue</beam>
        </note>
      <note default-x="604.84" default-y="5.00" dynamics="111.11">
        <pitch>
          <step>G</step>
          <octave>5</octave>
          </pitch>
        <duration>120</duration>
        <voice>1</voice>
        <type>16th</type>
        <stem>down</stem>
        <beam number="1">end</beam>
        <beam number="2">end</beam>
        </note>
      </measure>
    <measure number="17" width="425.20">
      <note default-x="12.00" default-y="15.00" dynamics="111.11">
        <pitch>
          <step>B</step>
          <alter>-1</alter>
          <octave>5</octave>
          </pitch>
        <duration>480</duration>
        <voice>1</voice>
        <type>quarter</type>
        <stem>down</stem>
        <notations>
          <articulations>
            <staccato/>
            </articulations>
          </notations>
        </note>
      <note>
        <rest/>
        <duration>480</duration>
        <voice>1</voice>
        <type>quarter</type>
        </note>
      <note>
        <rest/>
        <duration>960</duration>
        <voice>1</voice>
        <type>half</type>
        </note>
      </measure>
    </part>
  </score-partwise>
